<?xml version="1.0"?><svg xmlns="http://www.w3.org/2000/svg" version="1.2" baseProfile="tiny" width="6000" height="5918" viewBox="0 0 6000 5918" stroke-linecap="round" stroke-linejoin="round"><path d="M 4167.3912 529.247 4172.0099 531.0795 4454.7486 662.1371 4449.4961 823.1249 4138.2811 826.3894 4167.3912 529.247 Z" fill="none" stroke="#12852D" opacity="0.6" stroke-width="1" class="allerton"/>
<path d="M 3898.0027 686.8857 4112.1234 616.7002 4226.7219 687.3531 4191.0153 888.8702 3949.0384 886.4451 3807.6584 818.5334 3898.0027 686.8857 Z" fill="none" stroke="#12852D" opacity="0.6" stroke-width="1" class="allerton"/>
<path d="M 3831.4778 649.2514 3826.857 645.5774 3861.0264 651.057 3879.5974 739.3388 3799.2228 705.3958 3831.4778 649.2514 Z" fill="none" stroke="#12852D" opacity="0.6" stroke-width="1" class="allerton"/>
<path d="M 4213.449 762.802 4164.0116 740.3395 4148.6516 656.1975 4296.8483 656.8881 4296.5884 781.0687 4218.5541 779.8124 4213.449 762.802 Z" fill="none" stroke="#12852D" opacity="0.6" stroke-width="1" class="allerton"/>
<path d="M 4193.6931 675.2162 4440.4687 680.0988 4441.2769 745.1766 4193.1034 743.0555 4193.6931 675.2162 Z" fill="none" stroke="#12852D" opacity="0.6" stroke-width="1" class="allerton"/>
<path d="M 4065.9662 622.2835 4515.6036 616.0372 4177.0503 814.3728 4065.9662 622.2835 Z" fill="none" stroke="#12852D" opacity="0.6" stroke-width="1" class="allerton"/>
<path d="M 3056.249 1840.7558 3100.63 1855.4762 3211.5712 1855.4303 3211.6513 2024.9005 2989.7186 1980.7668 3056.249 1840.7558 Z" fill="none" stroke="#12852D" opacity="0.6" stroke-width="1" class="allerton"/>
<path d="M 4319.2086 778.272 4200.0773 774.7812 4193.5212 714.0792 4199.9023 659.8001 4221.0368 593.5447 4242.1971 545.6869 4252.341 538.3135 4285.6036 554.8148 4359.4282 534.4597 4394.539 550.954 4425.8997 534.3449 4461.0613 578.4277 4319.2086 778.272 Z" fill="none" stroke="#12852D" opacity="0.6" stroke-width="1" class="allerton"/>
<path d="M 4078.1741 769.4394 4070.6795 692.1813 4084.5352 695.8413 4088.3333 770.3451 4078.1741 769.4394 Z" fill="none" stroke="#12852D" opacity="0.6" stroke-width="1" class="allerton"/>
<path d="M 4166.3902 697.4092 4181.8636 548.385 4360.109 584.8885 4364.0143 709.9725 4166.3902 697.4092 Z" fill="none" stroke="#12852D" opacity="0.6" stroke-width="1" class="allerton"/>
<path d="M 3501.1225 898.5541 3650.8207 983.0715 3658.4208 1205.7564 3619.7199 1318.0783 3414.5842 1301.6741 3359.0245 1108.4432 3429.1357 972.2124 3501.1225 898.5541 Z" fill="none" stroke="#12852D" opacity="0.6" stroke-width="1" class="allerton"/>
<path d="M 3311.0423 2366.3856 3414.5839 2279.7081 3455.3211 2334.9625 3311.0423 2366.3856 Z" fill="none" stroke="#12852D" opacity="0.6" stroke-width="1" class="allerton"/>
<path d="M 4231.3087 668.0299 4302.4079 668.8365 4334.8062 717.534 4214.8129 749.0016 4229.4534 662.514 4231.3087 668.0299 Z" fill="none" stroke="#12852D" opacity="0.6" stroke-width="1" class="allerton"/>
<path d="M 4116.8019 659.9229 4127.8886 664.5059 4122.3618 673.7119 4116.8019 659.9229 Z" fill="none" stroke="#12852D" opacity="0.6" stroke-width="1" class="allerton"/>
<path d="M 2783.531 2270.0541 2796.4802 2279.2673 2796.4814 2317.9653 2757.6331 2307.8305 2783.531 2270.0541 Z" fill="none" stroke="#12852D" opacity="0.6" stroke-width="1" class="allerton"/>
<path d="M 4208.1504 619.3173 4286.6397 624.7124 4257.2337 713.0607 4208.1504 619.3173 Z" fill="none" stroke="#12852D" opacity="0.6" stroke-width="1" class="allerton"/>
<path d="M 4155.4464 567.8916 4529.6338 712.5901 4529.6425 717.1894 4550.9677 763.1429 4151.1101 758.2963 4155.4464 567.8916 Z" fill="none" stroke="#12852D" opacity="0.6" stroke-width="1" class="allerton"/>
<path d="M 4192.4655 626.6993 4259.8639 624.7553 4256.3074 711.2225 4189.8179 707.6459 4193.3943 630.3769 4192.4655 626.6993 Z" fill="none" stroke="#12852D" opacity="0.6" stroke-width="1" class="allerton"/>
<path d="M 4227.5282 611.9294 4407.405 516.9037 4475.8151 568.2842 4609.9778 717.0356 4560.4158 875.359 4454.3197 938.1175 4286.2922 981.6477 4185.4712 887.0386 4161.2583 751.8421 4227.5282 611.9294 Z" fill="none" stroke="#12852D" opacity="0.6" stroke-width="1" class="allerton"/>
<path d="M 4143.7428 772.1055 4139.8612 643.3334 4166.6375 643.2939 4214.6446 639.5422 4298.6561 632.9709 4337.4352 632.907 4385.4759 649.3816 4536.12 724.5361 4596.2251 767.6556 4442.046 788.1805 4143.7428 772.1055 Z" fill="none" stroke="#12852D" opacity="0.6" stroke-width="1" class="allerton"/>
<path d="M 4158.2977 623.0714 4297.7238 627.4538 4304.2591 671.5928 4297.0172 760.8301 4160.3172 739.8851 4158.2977 623.0714 Z" fill="none" stroke="#12852D" opacity="0.6" stroke-width="1" class="allerton"/>
<path d="M 4208.9596 544.8187 4471.412 686.0221 4366.6188 963.1127 4034.0617 927.7361 3922.0869 749.4063 3952.2159 476.2033 4093.3036 365.6674 4212.6496 542.9737 4208.9596 544.8187 Z" fill="none" stroke="#12852D" opacity="0.6" stroke-width="1" class="allerton"/>
<path d="M 4049.6714 860.5533 4071.7954 831.0837 4136.6014 941.3934 4131.1557 1007.6485 4061.0775 1096.0842 3987.1094 1044.6522 4049.6714 860.5533 Z" fill="none" stroke="#12852D" opacity="0.6" stroke-width="1" class="allerton"/>
<path d="M 4230.2109 555.8222 4596.2091 759.3766 4499.7611 1038.3275 4215.2643 1042.4886 4146.6331 853.9763 4141.728 657.1274 4003.9708 520.2793 4038.9829 468.7331 4230.2109 555.8222 Z" fill="none" stroke="#12852D" opacity="0.6" stroke-width="1" class="allerton"/>
<path d="M 4206.1815 539.3049 4199.7259 543.9132 4371.1071 345.0058 4449.6123 371.5344 4483.9902 494.6956 4344.7662 599.7836 4206.1815 539.3049 Z" fill="none" stroke="#12852D" opacity="0.6" stroke-width="1" class="allerton"/>
<path d="M 4216.5451 674.4914 4229.4891 685.5092 4223.949 685.5178 4212.8644 682.7754 4209.1639 678.182 4207.3101 673.5858 4208.2264 668.9853 4210.0619 661.6241 4212.8248 657.0209 4215.5863 651.4979 4222.973 651.4865 4223.9063 657.9236 4216.5451 674.4914 Z" fill="none" stroke="#12852D" opacity="0.6" stroke-width="1" class="allerton"/>
<path d="M 4194.6466 745.1438 4195.8919 651.3864 4446.1274 746.8506 4286.8188 738.6927 4259.8118 740.5756 4253.1062 733.6872 4286.9744 725.531 4294.8615 721.6932 4243.4865 736.3543 4194.6466 745.1438 Z" fill="none" stroke="#12852D" opacity="0.6" stroke-width="1" class="allerton"/>
<path d="M 4067.8064 617.6822 4414.1473 676.9259 4380.3331 881.2048 4063.4649 817.2959 4067.8064 617.6822 Z" fill="none" stroke="#12852D" opacity="0.6" stroke-width="1" class="allerton"/>
<path d="M 4264.4804 624.748 4404.9762 712.8152 4251.6731 700.1917 4403.9041 627.2751 4333.7251 622.7957 4264.4804 624.748 Z" fill="none" stroke="#12852D" opacity="0.6" stroke-width="1" class="allerton"/>
<path d="M 4157.4396 667.2221 4236.8459 666.1817 4232.3609 750.8142 4152.9502 753.6941 4157.4396 667.2221 Z" fill="none" stroke="#12852D" opacity="0.6" stroke-width="1" class="allerton"/>
<path d="M 4158.8151 660.7815 4344.4171 666.9274 4348.2665 759.8256 4158.9613 759.6645 4158.8151 660.7815 Z" fill="none" stroke="#12852D" opacity="0.6" stroke-width="1" class="allerton"/>
<path d="M 4164.7595 622.142 4400.2076 625.442 4394.0783 818.6225 4196.4771 836.4224 4168.7649 831.8643 4159.5285 830.958 4164.7595 622.142 Z" fill="none" stroke="#12852D" opacity="0.6" stroke-width="1" class="allerton"/>
<path d="M 4159.8147 712.29 4158.3735 674.3492 4159.4158 598.6964 4204.4274 599.7784 4209.2686 595.8621 4212.9638 597.236 4215.9708 601.3702 4224.2875 605.9561 4229.6057 611.9262 4256.1623 619.4725 4256.6348 626.37 4254.4087 678.3416 4262.5096 691.8961 4246.8365 707.3281 4213.6449 740.0346 4203.969 753.1577 4193.6268 783.7601 4184.2091 815.512 4178.6661 814.1404 4177.0558 818.0526 4152.5944 825.6785 4153.0494 821.078 4159.8147 712.29 Z" fill="none" stroke="#12852D" opacity="0.6" stroke-width="1" class="allerton"/>
<path d="M 4158.8359 674.8085 4192.9996 674.5274 4192.141 717.3008 4160.0516 716.429 4158.8359 674.8085 Z" fill="none" stroke="#12852D" opacity="0.6" stroke-width="1" class="allerton"/>
<path d="M 4164.6188 527.4118 4354.9455 613.5626 4225.1416 859.3779 4017.1876 740.086 4164.6188 527.4118 Z" fill="none" stroke="#12852D" opacity="0.6" stroke-width="1" class="allerton"/>
<path d="M 4207.517 808.807 4342.4572 599.3276 4460.7743 675.4634 4452.7251 821.2792 4207.517 808.807 Z" fill="none" stroke="#12852D" opacity="0.6" stroke-width="1" class="allerton"/>
<path d="M 4062.1844 557.9078 4552.3942 541.471 4453.1111 778.9616 4062.1844 557.9078 Z" fill="none" stroke="#12852D" opacity="0.6" stroke-width="1" class="allerton"/>
<path d="M 4142.2347 372.0337 4181.0832 425.3096 4093.4682 482.4521 4043.0479 402.9778 4142.2347 372.0337 Z" fill="none" stroke="#12852D" opacity="0.6" stroke-width="1" class="allerton"/>
<path d="M 4190.476 837.5815 4189.6382 817.9186 4184.5561 815.9714 4154.7894 826.8252 4155.45 805.0905 4158.5095 766.3344 4159.2795 740.6915 4160.5052 710.9092 4160.0164 692.6282 4159.4109 673.4279 4157.186 651.8159 4158.6835 649.8592 4236.2426 649.3964 4267.5222 650.4968 4298.9197 653.0906 4307.343 651.8122 4354.0895 653.4591 4350.7424 653.4648 4379.4815 653.6459 4406.9523 654.5183 4418.4655 638.287 4430.5985 646.4286 4454.5183 662.4824 4453.975 681.3394 4451.4916 712.5032 4450.7093 726.8773 4449.9393 748.1507 4452.2779 764.9346 4455.4306 785.0519 4455.9266 804.1395 4452.3629 812.4253 4417.7225 806.967 4386.4363 805.1815 4376.5093 805.4285 4355.6196 807.8788 4334.8458 810.6735 4315.3425 813.9255 4307.4926 813.8234 4252.3143 814.0271 4210.994 817.8861 4189.7558 819.2984 4190.1038 820.4478 4190.476 837.5815 Z" fill="none" stroke="#12852D" opacity="0.6" stroke-width="1" class="allerton"/>
<path d="M 4201.6102 568.7421 4259.7355 543.8199 4305.0547 593.4111 4249.6916 614.654 4201.6102 568.7421 Z" fill="none" stroke="#12852D" opacity="0.6" stroke-width="1" class="allerton"/>
<path d="M 4167.3912 529.247 4157.2236 520.9851 4463.057 661.2023 4447.6475 822.2082 4133.6797 837.4356 4162.771 526.4949 4167.3912 529.247 Z" fill="none" stroke="#12852D" opacity="0.6" stroke-width="1" class="allerton"/>
<path d="M 4277.2724 645.8124 4306.3182 716.2849 4318.512 741.1366 4302.404 772.8992 4243.7231 746.3162 4267.8781 777.1713 4277.2724 645.8124 Z" fill="none" stroke="#12852D" opacity="0.6" stroke-width="1" class="allerton"/>
<path d="M 3899.6446 516.7321 3902.4031 507.5322 3917.164 499.2375 3925.484 508.4237 3899.6446 516.7321 Z" fill="none" stroke="#12852D" opacity="0.6" stroke-width="1" class="allerton"/>
<path d="M 4045.6286 603.9164 4253.6259 767.3389 4013.5853 809.0838 4045.6286 603.9164 Z" fill="none" stroke="#12852D" opacity="0.6" stroke-width="1" class="allerton"/>
<path d="M 4180.352 553.1393 4613.8085 786.9394 4237.4406 1047.0551 4180.352 553.1393 Z" fill="none" stroke="#12852D" opacity="0.6" stroke-width="1" class="allerton"/>
<path d="M 4449.363 748.6117 4451.251 771.6057 4453.13 789.5406 4453.6066 797.8191 4451.7835 811.1614 4435.6151 807.0505 4402.3658 804.809 4376.5099 805.7735 4354.3494 807.651 4329.42 810.4525 4231.0773 816.1302 4187.6774 818.9565 4173.8222 817.1374 4152.5968 827.2884 4153.4945 809.8081 4158.0413 761.9656 4158.4554 729.7693 4160.2648 704.4707 4157.9088 672.2804 4156.9521 649.7468 4158.3011 625.3708 4370.6666 628.2521 4395.5832 620.8512 4461.2202 666.7245 4454.7865 683.2926 4450.2059 703.537 4449.7705 718.2554 4449.363 748.6117 Z" fill="none" stroke="#12852D" opacity="0.6" stroke-width="1" class="allerton"/>
<path d="M 3519.7672 828.9272 3534.5403 825.2355 3517.6916 831.6888 3514.2264 829.1617 3507.3005 829.6271 3501.7625 833.5413 3497.8397 836.3042 3490.9132 836.0796 3519.7672 828.9272 Z" fill="none" stroke="#12852D" opacity="0.6" stroke-width="1" class="allerton"/>
<path d="M 4263.1638 377.3664 4334.3544 446.2172 4200.743 605.5324 4263.1638 377.3664 Z" fill="none" stroke="#12852D" opacity="0.6" stroke-width="1" class="allerton"/>
<path d="M 4199.8099 599.0956 4410.3255 603.3504 4392.9038 673.2835 4207.3073 671.7462 4199.8099 599.0956 Z" fill="none" stroke="#12852D" opacity="0.6" stroke-width="1" class="allerton"/>
<path d="M 4182.4432 715.9357 4152.7389 610.203 4160.1253 610.1921 4182.2787 606.4801 4213.6817 613.7903 4250.6424 632.128 4328.2067 635.6816 4367.2985 819.5883 4129.0688 842.0422 4143.498 604.6981 4182.4432 715.9357 Z" fill="none" stroke="#12852D" opacity="0.6" stroke-width="1" class="allerton"/>
<path d="M 4003.0065 489.0127 4597.145 765.814 4554.4398 1133.0069 3973.3221 1098.0412 4002.0882 492.6924 4003.0065 489.0127 Z" fill="none" stroke="#12852D" opacity="0.6" stroke-width="1" class="allerton"/>
<path d="M 4126.0684 682.9047 4145.3216 589.0599 4444.5295 627.2036 4466.1042 814.8155 4116.1237 831.0212 4126.0684 682.9047 Z" fill="none" stroke="#12852D" opacity="0.6" stroke-width="1" class="allerton"/>
<path d="M 4192.2068 809.5672 4194.5361 545.5204 4451.0797 660.373 4447.7648 790.1555 4435.8152 821.4546 4192.2068 809.5672 Z" fill="none" stroke="#12852D" opacity="0.6" stroke-width="1" class="allerton"/>
<path d="M 3851.8726 720.0541 3862.9834 745.7975 3826.0382 738.4808 3848.1759 717.2988 3851.8726 720.0541 Z" fill="none" stroke="#12852D" opacity="0.6" stroke-width="1" class="allerton"/>
<path d="M 4195.8658 798.7054 4202.1053 530.1144 4460.8519 667.277 4457.4241 815.1991 4192.9162 802.3896 4200.6158 522.0236 4195.8658 798.7054 Z" fill="none" stroke="#12852D" opacity="0.6" stroke-width="1" class="allerton"/>
<path d="M 3843.2117 413.8024 4533.6656 400.8054 4685.0088 832.7942 4297.4269 1012.9138 3884.4427 931.6058 3765.6832 424.9226 3843.2117 413.8024 Z" fill="none" stroke="#12852D" opacity="0.6" stroke-width="1" class="allerton"/>
<path d="M 4145.6705 827.2986 4165.8153 711.3613 4350.4791 702.7902 4329.3582 773.1957 4235.2251 811.0641 4145.6705 827.2986 Z" fill="none" stroke="#12852D" opacity="0.6" stroke-width="1" class="allerton"/>
<path d="M 4162.8978 612.0275 4340.325 704.6469 4330.4458 872.0889 4158.7015 896.2787 4162.8978 612.0275 Z" fill="none" stroke="#12852D" opacity="0.6" stroke-width="1" class="allerton"/>
<path d="M 4118.3422 446.5521 4132.1651 429.9797 4124.8173 455.7387 4118.3422 446.5521 Z" fill="none" stroke="#12852D" opacity="0.6" stroke-width="1" class="allerton"/>
<path d="M 4162.7724 527.4145 4197.7313 446.4348 4546.1037 632.5358 4626.8478 843.0305 4147.5323 837.4154 4136.1318 618.5051 4162.7724 527.4145 Z" fill="none" stroke="#12852D" opacity="0.6" stroke-width="1" class="allerton"/>
<path d="M 3979.6486 989.4534 3946.3668 965.573 3959.222 905.7528 4022.9662 918.5504 3984.2669 989.4474 3979.6486 989.4534 Z" fill="none" stroke="#12852D" opacity="0.6" stroke-width="1" class="allerton"/>
<path d="M 4310.9518 811.4029 4232.4511 808.7685 4235.8651 629.3919 4258.9508 631.1951 4375.2894 631.9233 4394.6615 621.7726 4457.5318 669.4905 4443.7848 727.4646 4446.6682 790.9321 4446.701 809.3306 4389.4323 802.0716 4310.9518 811.4029 Z" fill="none" stroke="#12852D" opacity="0.6" stroke-width="1" class="allerton"/>
<path d="M 4160.0926 588.1185 4378.9685 623.6391 4589.7397 756.6294 4153.8519 738.9747 4160.0926 588.1185 Z" fill="none" stroke="#12852D" opacity="0.6" stroke-width="1" class="allerton"/>
<path d="M 4189.5982 562.3224 4463.0702 668.5607 4516.9081 821.1621 4182.5857 810.6847 4189.5982 562.3224 Z" fill="none" stroke="#12852D" opacity="0.6" stroke-width="1" class="allerton"/>
<path d="M 4378.1959 711.7116 4303.598 832.3439 4152.6079 834.8781 4156.259 649.2879 4379.4809 653.301 4378.1959 711.7116 Z" fill="none" stroke="#12852D" opacity="0.6" stroke-width="1" class="allerton"/>
<path d="M 4186.8063 547.6115 4204.2788 502.5214 4288.351 541.015 4378.9039 585.9298 4210.2353 774.7657 4141.7938 702.1982 4145.3257 591.8191 4186.8063 547.6115 Z" fill="none" stroke="#12852D" opacity="0.6" stroke-width="1" class="allerton"/>
<path d="M 4289.6238 757.1626 4544.4532 736.4786 4482.8443 879.1836 4289.6238 757.1626 Z" fill="none" stroke="#12852D" opacity="0.6" stroke-width="1" class="allerton"/>
<path d="M 4102.88 609.3553 4208.0969 584.3673 4600.5905 1112.6728 3983.493 1105.3899 3825.3703 965.7168 4102.88 609.3553 Z" fill="none" stroke="#12852D" opacity="0.6" stroke-width="1" class="allerton"/>
<path d="M 4427.2008 748.6511 4168.7183 800.5861 4195.1014 538.4021 4427.2008 748.6511 Z" fill="none" stroke="#12852D" opacity="0.6" stroke-width="1" class="allerton"/>
<path d="M 4150.238 793.2541 4171.2445 636.8486 4184.1086 595.4405 4287.6685 690.0161 4205.5379 722.3396 4180.6669 762.8518 4150.238 793.2541 Z" fill="none" stroke="#12852D" opacity="0.6" stroke-width="1" class="allerton"/>
<path d="M 4257.1391 653.2726 4324.5834 677.9981 4314.5399 747.0032 4249.9958 807.8211 4207.4016 733.3751 4217.4698 675.4098 4257.1391 653.2726 Z" fill="none" stroke="#12852D" opacity="0.6" stroke-width="1" class="allerton"/>
<path d="M 4003.966 516.6007 3931.8757 451.3994 4016.8871 513.8247 4136.9265 530.2115 4035.6125 707.8664 3933.0507 654.6497 4003.966 516.6007 Z" fill="none" stroke="#12852D" opacity="0.6" stroke-width="1" class="allerton"/>
<path d="M 4093.6121 584.5356 4078.8617 600.1917 4027.5968 583.2468 4013.2704 571.3096 4016.4951 566.2469 4012.7674 540.0406 4019.2214 533.5943 4093.6121 584.5356 Z" fill="none" stroke="#12852D" opacity="0.6" stroke-width="1" class="allerton"/>
<path d="M 4156.5203 669.9829 4463.9969 670.3987 4447.6344 814.8486 4153.0423 816.2483 4156.5203 669.9829 Z" fill="none" stroke="#12852D" opacity="0.6" stroke-width="1" class="allerton"/>
<path d="M 4160.0266 713.2087 4264.7655 706.4571 4357.1229 712.4967 4359.7845 745.088 4320.1828 809.0879 4158.8856 824.5929 4160.0266 713.2087 Z" fill="none" stroke="#12852D" opacity="0.6" stroke-width="1" class="allerton"/>
<path d="M 4126.9772 672.7855 4115.9866 735.3503 4066.1452 751.9782 4047.604 698.6518 4102.9518 659.9426 4126.9772 672.7855 Z" fill="none" stroke="#12852D" opacity="0.6" stroke-width="1" class="allerton"/>
<path d="M 4194.3079 623.9372 4191.5435 627.6204 4197.9871 614.7341 4202.4956 543.9089 4409.2161 496.6683 4607.8558 576.3127 4487.898 612.4092 4386.3565 624.5462 4256.1721 625.6809 4194.3079 623.9372 Z" fill="none" stroke="#12852D" opacity="0.6" stroke-width="1" class="allerton"/>
<path d="M 4517.6485 1219.5839 4696.6355 1098.6775 4493.7033 1261.0442 4482.5827 1242.6571 4523.2209 1235.2194 4049.9923 1096.0994 4262.8788 198.0769 4807.7718 377.2627 4682.7771 1097.7856 4517.6485 1219.5839 Z" fill="none" stroke="#12852D" opacity="0.6" stroke-width="1" class="allerton"/>
<path d="M 4160.736 710.9089 4157.9118 674.3499 4193.001 675.4472 4255.5614 677.4199 4254.918 708.4651 4160.736 710.9089 Z" fill="none" stroke="#12852D" opacity="0.6" stroke-width="1" class="allerton"/>
<path d="M 4158.6308 848.4388 4196.1615 628.5332 4374.3535 624.5668 4410.5615 738.5616 4350.7685 874.8149 4199.3596 910.0182 4158.6308 848.4388 Z" fill="none" stroke="#12852D" opacity="0.6" stroke-width="1" class="allerton"/>
<path d="M 4196.6588 651.9868 4237.286 652.3841 4236.0424 742.9895 4193.0992 740.2959 4196.6588 651.9868 Z" fill="none" stroke="#12852D" opacity="0.6" stroke-width="1" class="allerton"/>
<path d="M 4167.3912 529.247 4357.703 606.2 4392.826 628.2141 4251.6832 706.6305 4150.1123 707.7051 4167.3912 529.247 Z" fill="none" stroke="#12852D" opacity="0.6" stroke-width="1" class="allerton"/>
<path d="M 4220.8621 480.4247 4221.6886 417.8912 4374.0945 472.8186 4536.7322 558.9747 4552.5633 630.684 4615.6536 786.0159 4565.8868 838.5491 4406.0709 811.2421 4160.4561 833.7165 4077.3646 851.3153 3938.7372 772.383 3890.8047 845.1167 3842.7459 813.8942 3870.2219 618.8543 3945.7112 442.1862 4220.8621 480.4247 Z" fill="none" stroke="#12852D" opacity="0.6" stroke-width="1" class="allerton"/>
<path d="M 4140.8315 675.5248 4268.2763 689.1274 4246.2137 751.7124 4139.0987 753.7144 4140.8315 675.5248 Z" fill="none" stroke="#12852D" opacity="0.6" stroke-width="1" class="allerton"/>
<path d="M 4166.7743 735.2761 4164.7513 616.6235 4413.1564 638.2962 4362.5392 735.8846 4166.7743 735.2761 Z" fill="none" stroke="#12852D" opacity="0.6" stroke-width="1" class="allerton"/>
<path d="M 4243.054 503.381 4243.2837 502.6909 4288.2615 485.606 4269.8117 494.1423 4243.054 503.381 Z" fill="none" stroke="#12852D" opacity="0.6" stroke-width="1" class="allerton"/>
<path d="M 4165.5615 705.8615 4165.7715 691.8337 4174.5346 685.8418 4200.8501 685.5721 4222.3201 686.6889 4224.1886 700.7134 4224.098 723.9349 4166.6238 729.0813 4165.5615 705.8615 Z" fill="none" stroke="#12852D" opacity="0.6" stroke-width="1" class="allerton"/>
<path d="M 4304.2741 680.7909 4533.4586 782.494 4362.0521 993.4839 4058.9118 864.2206 4304.2741 680.7909 Z" fill="none" stroke="#12852D" opacity="0.6" stroke-width="1" class="allerton"/>
<path d="M 4193.3832 623.0188 4204.4516 615.644 4346.6344 612.6569 4398.3451 616.2477 4360.9929 913.4387 4187.4932 1002.9646 4161.069 623.987 4193.3832 623.0188 Z" fill="none" stroke="#12852D" opacity="0.6" stroke-width="1" class="allerton"/>
<path d="M 4275.7266 728.6688 4266.4764 718.5651 4360.6924 735.8877 4262.0318 827.121 4275.7266 728.6688 Z" fill="none" stroke="#12852D" opacity="0.6" stroke-width="1" class="allerton"/>
<path d="M 4449.363 748.6117 4283.1405 745.2145 4308.2077 827.5065 4188.7578 922.9149 4139.6879 841.1068 4060.7305 675.6383 4015.4343 549.5788 3952.3048 546.7864 4013.226 537.7408 4157.3771 624.9122 4315.2727 631.1041 4449.363 748.6117 Z" fill="none" stroke="#12852D" opacity="0.6" stroke-width="1" class="allerton"/>
<path d="M 4159.4927 650.6628 4183.4978 649.7072 4205.1936 648.0647 4236.5896 649.8557 4253.9034 650.7483 4253.7158 678.1127 4298.7276 676.8908 4341.205 678.6603 4387.1408 677.8925 4409.3085 681.9933 4462.8589 679.3689 4469.8468 714.0799 4463.216 749.5067 4413.1202 749.5957 4390.9544 747.5644 4375.0233 746.4419 4354.7049 744.6366 4327.6949 744.6818 4305.7621 743.798 4254.5159 746.1801 4231.1987 745.7567 4217.58 746.9276 4198.4148 744.1973 4200.2847 759.3726 4187.8336 769.5103 4170.5149 766.7766 4159.6634 766.1028 4142.3445 763.1386 4141.5747 710.2472 4142.4238 659.4259 4156.4939 652.0469 4159.4927 650.6628 Z" fill="none" stroke="#12852D" opacity="0.6" stroke-width="1" class="allerton"/>
<path d="M 3987.5595 679.4152 4413.2465 689.8049 4397.8169 844.375 4056.9928 811.7851 3987.5595 679.4152 Z" fill="none" stroke="#12852D" opacity="0.6" stroke-width="1" class="allerton"/>
<path d="M 4496.8977 485.4756 4490.3951 463.4168 4564.2573 468.7963 4715.9301 601.8476 4557.5804 841.3248 4140.1416 835.5863 4179.3004 467.6134 4496.8977 485.4756 Z" fill="none" stroke="#12852D" opacity="0.6" stroke-width="1" class="allerton"/>
<path d="M 3945.8126 523.113 3957.8165 524.9372 4009.4821 499.1201 3969.85 549.7531 3945.8126 523.113 Z" fill="none" stroke="#12852D" opacity="0.6" stroke-width="1" class="allerton"/>
<path d="M 4204.3448 545.7455 4592.5331 768.5827 4456.9469 858.0704 4139.273 873.3069 4183.0926 533.8219 4205.3693 611.9636 4204.3448 545.7455 Z" fill="none" stroke="#12852D" opacity="0.6" stroke-width="1" class="allerton"/>
<path d="M 4188.7764 629.4642 4358.6589 625.5132 4400.2108 627.2816 4597.12 752.9356 4570.5044 838.5403 4299.8714 812.3409 4195.5159 811.5851 4188.7764 629.4642 Z" fill="none" stroke="#12852D" opacity="0.6" stroke-width="1" class="allerton"/>
<path d="M 4024.8023 910.2676 4149.0687 625.8442 4243.4189 736.0789 4221.5469 923.7849 4136.6857 999.3593 4024.8023 910.2676 Z" fill="none" stroke="#12852D" opacity="0.6" stroke-width="1" class="allerton"/>
<path d="M 4163.7188 543.0476 4251.9507 290.953 4465.3209 380.7014 4586.0495 758.4763 4463.9919 667.6393 4443.1839 908.6958 4153.3619 1033.3801 4150.284 824.5319 4163.7188 543.0476 Z" fill="none" stroke="#12852D" opacity="0.6" stroke-width="1" class="allerton"/>
<path d="M 4242.5366 762.2969 4475.2473 764.2032 4501.978 988.1758 4160.2244 989.2035 4146.9587 761.062 4242.5366 762.2969 Z" fill="none" stroke="#12852D" opacity="0.6" stroke-width="1" class="allerton"/>
<path d="M 4310.9518 811.4029 4246.3127 814.7265 4251.7833 770.1015 4157.5911 769.7854 4157.745 561.4503 4168.3198 532.9243 4416.8416 633.6909 4310.9518 811.4029 Z" fill="none" stroke="#12852D" opacity="0.6" stroke-width="1" class="allerton"/>
<path d="M 4275.4893 580.5828 4352.0394 532.6329 4367.8263 586.8684 4500.9308 670.3314 4495.6829 829.4809 4398.9333 955.6965 4146.0208 1066.5172 3933.526 1038.2789 3860.3798 889.3123 3867.608 752.2312 3953.3211 620.5928 4131.4473 571.6055 4275.4893 580.5828 Z" fill="none" stroke="#12852D" opacity="0.6" stroke-width="1" class="allerton"/>
<path d="M 3931.2814 717.1997 3921.1252 718.132 3944.1445 665.6734 4026.2716 627.8561 4041.1616 714.2978 4031.1401 815.5 3957.3551 890.1147 3931.2814 717.1997 Z" fill="none" stroke="#12852D" opacity="0.6" stroke-width="1" class="allerton"/>
<path d="M 4160.1504 627.2075 4185.5393 625.79 4194.3135 627.6162 4237.2451 626.1705 4237.7096 628.0093 4243.7161 631.2191 4247.4448 653.7478 4247.0258 680.8827 4244.7571 706.1815 4231.4146 736.0977 4233.2965 758.6318 4232.8899 794.0489 4235.6775 805.0837 4153.4844 802.9085 4160.1504 627.2075 Z" fill="none" stroke="#12852D" opacity="0.6" stroke-width="1" class="allerton"/>
<path d="M 4216.6159 720.4829 4183.6628 912.8021 3929.6436 886.4692 3966.3352 689.5605 4216.6159 720.4829 Z" fill="none" stroke="#12852D" opacity="0.6" stroke-width="1" class="allerton"/>
<path d="M 4139.7277 551.8199 4154.9156 520.9885 4471.2813 613.8191 4488.7389 819.8341 4142.4322 823.1635 4139.7277 551.8199 Z" fill="none" stroke="#12852D" opacity="0.6" stroke-width="1" class="allerton"/>
<path d="M 4156.1363 644.3442 4158.415 624.3359 4258.7141 627.5164 4254.162 814.4841 4151.6709 825.6798 4156.1363 644.3442 Z" fill="none" stroke="#12852D" opacity="0.6" stroke-width="1" class="allerton"/></svg>