<?xml version="1.0"?><svg xmlns="http://www.w3.org/2000/svg" version="1.2" baseProfile="tiny" width="6000" height="5918" viewBox="0 0 6000 5918" stroke-linecap="round" stroke-linejoin="round"><path d="M 2951.9331 2610.9976 3053.7275 2666.2746 2992.6833 2774.1406 2889.0315 2728.9907 2951.9331 2610.9976 Z" fill="none" stroke="#A9159C" opacity="0.6" stroke-width="1" class="alphabet_city"/>
<path d="M 3013.0445 2782.432 2802.0459 2697.6574 2803.8925 2598.1117 2881.5968 2470.9233 3024.0862 2551.073 3041.6845 2618.3491 3013.0445 2782.432 Z" fill="none" stroke="#A9159C" opacity="0.6" stroke-width="1" class="alphabet_city"/>
<path d="M 3053.2645 2665.353 2994.9961 2770.9136 2887.1807 2728.53 2952.8581 2610.0757 3053.2645 2665.353 Z" fill="none" stroke="#A9159C" opacity="0.6" stroke-width="1" class="alphabet_city"/>
<path d="M 3035.2559 2787.0352 2883.4791 2727.1478 2889.0313 2727.1471 2953.3205 2608.6931 3068.0723 2674.5658 3035.2559 2787.0352 Z" fill="none" stroke="#A9159C" opacity="0.6" stroke-width="1" class="alphabet_city"/>
<path d="M 2890.8778 2695.3454 3066.6863 2680.5576 3032.0166 2786.1143 2861.2694 2718.3933 2926.0242 2599.9422 2890.8778 2695.3454 Z" fill="none" stroke="#A9159C" opacity="0.6" stroke-width="1" class="alphabet_city"/>
<path d="M 2977.3808 2625.7392 3052.8033 2669.9618 2994.533 2769.5309 2913.0927 2739.5879 2977.3808 2625.7392 Z" fill="none" stroke="#A9159C" opacity="0.6" stroke-width="1" class="alphabet_city"/>
<path d="M 2965.8138 2620.2116 3064.8343 2676.4103 3002.8626 2773.2162 2914.9426 2734.5177 2914.9419 2729.9087 2905.6877 2726.2229 2965.8138 2620.2116 Z" fill="none" stroke="#A9159C" opacity="0.6" stroke-width="1" class="alphabet_city"/>
<path d="M 2630.8422 2814.7202 2641.9672 2665.3887 2852.0279 2849.7579 2643.8184 2660.7803 2830.7272 2637.7429 3046.3346 2698.5381 2969.5668 2860.8029 2867.7619 2856.2098 2635.4395 3032.3095 2579.905 3005.5599 2630.8422 2814.7202 Z" fill="none" stroke="#A9159C" opacity="0.6" stroke-width="1" class="alphabet_city"/>
<path d="M 2913.0929 2740.9706 2976.918 2625.2785 3068.0729 2676.4093 3035.2565 2789.3399 2913.0929 2740.9706 Z" fill="none" stroke="#A9159C" opacity="0.6" stroke-width="1" class="alphabet_city"/>
<path d="M 3071.5433 2677.7908 3050.9895 2791.8703 3011.4255 2784.0457 2994.7656 2774.601 2912.3987 2740.2794 2976.9179 2624.5872 3071.5433 2677.7908 Z" fill="none" stroke="#A9159C" opacity="0.6" stroke-width="1" class="alphabet_city"/>
<path d="M 3001.0116 2772.2948 2919.5711 2744.6569 2905.6903 2743.7372 2981.5444 2625.7383 3059.281 2671.8033 3001.0116 2772.2948 Z" fill="none" stroke="#A9159C" opacity="0.6" stroke-width="1" class="alphabet_city"/>
<path d="M 2770.5826 2345.6082 2788.1573 2338.2366 2855.6819 2347.4468 2804.8105 2423.0103 2750.2319 2404.5812 2770.5826 2345.6082 Z" fill="none" stroke="#A9159C" opacity="0.6" stroke-width="1" class="alphabet_city"/>
<path d="M 2992.2213 2776.9062 2860.8068 2718.3933 2926.0236 2596.7163 3048.6409 2675.0327 2992.2213 2776.9062 Z" fill="none" stroke="#A9159C" opacity="0.6" stroke-width="1" class="alphabet_city"/>
<path d="M 3026.6584 2651.9956 3071.0804 2677.0996 3062.7695 2730.7955 3050.5255 2787.7221 3027.3893 2785.1937 3013.7384 2781.7405 2996.1532 2772.296 2968.3883 2760.3186 2912.8614 2740.0489 2977.1491 2624.3567 3026.6584 2651.9956 Z" fill="none" stroke="#A9159C" opacity="0.6" stroke-width="1" class="alphabet_city"/>
<path d="M 2889.9565 2726.2251 2958.4119 2621.1348 3058.356 2672.7253 3008.4153 2774.1366 2889.9565 2726.2251 Z" fill="none" stroke="#A9159C" opacity="0.6" stroke-width="1" class="alphabet_city"/>
<path d="M 3050.9894 2791.6399 3009.8057 2782.8938 2993.8396 2772.2966 2885.7929 2730.3738 2952.1644 2611.2279 3069.6923 2676.6392 3050.9894 2791.6399 Z" fill="none" stroke="#A9159C" opacity="0.6" stroke-width="1" class="alphabet_city"/>
<path d="M 3038.0327 2788.8781 2885.3296 2725.3039 2951.0075 2609.1544 3062.982 2670.8804 3038.0327 2788.8781 Z" fill="none" stroke="#A9159C" opacity="0.6" stroke-width="1" class="alphabet_city"/>
<path d="M 3036.2235 2672.8121 2996.4597 2773.298 2880.7794 2739.2117 2946.4556 2606.4704 3036.2235 2672.8121 Z" fill="none" stroke="#A9159C" opacity="0.6" stroke-width="1" class="alphabet_city"/>
<path d="M 2951.934 2615.606 3038.0055 2694.8535 3004.7305 2840.5125 2875.1618 2822.0985 2861.2801 2823.0219 2951.934 2615.606 Z" fill="none" stroke="#A9159C" opacity="0.6" stroke-width="1" class="alphabet_city"/>
<path d="M 3035.1891 2553.374 3063.9154 2696.6892 2912.1681 2744.658 2734.0351 2657.1007 2739.1281 2520.2341 2932.4825 2496.2586 2949.1371 2506.8536 2889.0123 2582.4361 2930.6349 2511.4649 3035.1891 2553.374 Z" fill="none" stroke="#A9159C" opacity="0.6" stroke-width="1" class="alphabet_city"/>
<path d="M 2998.6956 2762.3857 3016.165 2771.7148 3014.6618 2774.2502 3022.182 2778.5118 3018.6031 2805.1314 3019.5287 2805.7073 3018.4878 2806.399 2983.2019 2791.5427 2983.0863 2791.8884 2998.6956 2762.3857 Z" fill="none" stroke="#A9159C" opacity="0.6" stroke-width="1" class="alphabet_city"/>
<path d="M 2975.9929 2625.7396 3070.3892 2685.626 3050.9908 2796.2492 2912.1669 2737.2836 2975.9929 2625.7396 Z" fill="none" stroke="#A9159C" opacity="0.6" stroke-width="1" class="alphabet_city"/>
<path d="M 2912.746 2741.6621 2886.7184 2731.4107 2953.4367 2611.3429 3071.5429 2676.6386 3049.1399 2795.904 2912.746 2741.6621 Z" fill="none" stroke="#A9159C" opacity="0.6" stroke-width="1" class="alphabet_city"/>
<path d="M 2977.3807 2625.2784 3045.4027 2676.4162 2993.6082 2771.8357 2967.6946 2761.7015 2914.9431 2737.744 2977.3807 2625.2784 Z" fill="none" stroke="#A9159C" opacity="0.6" stroke-width="1" class="alphabet_city"/>
<path d="M 3069.4606 2675.4871 3063.4491 2685.1674 3035.7182 2785.6523 2914.9432 2738.2049 2976.4557 2626.6611 3069.4606 2675.4871 Z" fill="none" stroke="#A9159C" opacity="0.6" stroke-width="1" class="alphabet_city"/>
<path d="M 3032.4799 2787.9579 2650.2992 2630.3645 2779.8336 2414.7176 2852.0079 2631.2892 2946.3607 2502.2462 3032.4799 2787.9579 Z" fill="none" stroke="#A9159C" opacity="0.6" stroke-width="1" class="alphabet_city"/>
<path d="M 2952.8591 2614.6841 3061.1351 2682.8637 3029.7028 2785.1931 2888.1059 2727.1472 2952.8591 2614.6841 Z" fill="none" stroke="#A9159C" opacity="0.6" stroke-width="1" class="alphabet_city"/>
<path d="M 3029.7028 2785.1931 2887.1803 2725.3037 2953.7825 2605.4671 3058.3586 2681.0211 3036.1813 2787.035 3029.7028 2785.1931 Z" fill="none" stroke="#A9159C" opacity="0.6" stroke-width="1" class="alphabet_city"/>
<path d="M 2951.006 2601.781 3054.6545 2671.8047 3038.0265 2767.6757 3017.6815 2819.3055 2945.4939 2808.2595 2880.707 2760.3333 2860.3474 2751.1174 2938.0536 2607.3135 2951.006 2601.781 Z" fill="none" stroke="#A9159C" opacity="0.6" stroke-width="1" class="alphabet_city"/>
<path d="M 2613.2214 3046.1376 2579.9061 3000.0276 2802.0485 2764.027 2982.5322 2897.6777 2781.6926 2937.3476 2663.2113 3014.7933 2613.2214 3046.1376 Z" fill="none" stroke="#A9159C" opacity="0.6" stroke-width="1" class="alphabet_city"/>
<path d="M 2977.8432 2624.8174 2951.9329 2610.0759 2997.2511 2532.6477 3115.688 2572.2411 3121.2705 2655.1908 3063.022 2798.0892 2909.3914 2740.9712 2977.8432 2624.8174 Z" fill="none" stroke="#A9159C" opacity="0.6" stroke-width="1" class="alphabet_city"/>
<path d="M 2952.8596 2617.4492 3043.5494 2667.1994 2998.2328 2762.1553 2898.284 2720.6933 2932.5106 2655.243 2952.8596 2617.4492 Z" fill="none" stroke="#A9159C" opacity="0.6" stroke-width="1" class="alphabet_city"/>
<path d="M 2939.9038 2605.4698 3062.0555 2667.1937 3001.9353 2765.8418 2853.8667 2719.7767 2939.9038 2605.4698 Z" fill="none" stroke="#A9159C" opacity="0.6" stroke-width="1" class="alphabet_city"/>
<path d="M 3038.9446 2742.3253 3035.7174 2782.8868 3014.894 2777.3614 2987.1286 2764.4626 2958.4388 2752.9461 2915.4068 2744.1966 2896.434 2725.7634 2954.7093 2613.3012 3025.5017 2651.996 3070.3855 2674.1041 3056.5163 2708.2137 3038.9446 2742.3253 Z" fill="none" stroke="#A9159C" opacity="0.6" stroke-width="1" class="alphabet_city"/>
<path d="M 2976.9177 2623.896 3062.9852 2681.0196 3033.4058 2789.8013 2912.1675 2740.9708 2976.9177 2623.896 Z" fill="none" stroke="#A9159C" opacity="0.6" stroke-width="1" class="alphabet_city"/>
<path d="M 2913.5555 2740.5097 2976.9178 2624.1264 3069.229 2674.5654 3038.2643 2789.7999 2913.5555 2740.5097 Z" fill="none" stroke="#A9159C" opacity="0.6" stroke-width="1" class="alphabet_city"/>
<path d="M 3032.9435 2791.1842 2910.7798 2743.2755 2975.9922 2622.9745 3030.1276 2649.6904 3019.4896 2660.2931 3063.9118 2685.1672 3032.9435 2791.1842 Z" fill="none" stroke="#A9159C" opacity="0.6" stroke-width="1" class="alphabet_city"/>
<path d="M 3028.7404 2652.4559 3047.6976 2614.6605 3064.3583 2634.011 3068.5319 2664.8873 3048.6514 2710.0596 3033.8671 2784.731 2898.7486 2734.0592 2963.0374 2617.4471 3028.7404 2652.4559 Z" fill="none" stroke="#A9159C" opacity="0.6" stroke-width="1" class="alphabet_city"/>
<path d="M 2952.6267 2609.3845 2991.7007 2535.4138 3008.3553 2540.9394 3063.8994 2645.9934 3019.5358 2832.2115 2869.6045 2780.6151 2952.6267 2609.3845 Z" fill="none" stroke="#A9159C" opacity="0.6" stroke-width="1" class="alphabet_city"/>
<path d="M 3033.8681 2788.4184 2913.3241 2740.2792 2977.1493 2625.2784 3066.453 2674.5663 3033.8681 2788.4184 Z" fill="none" stroke="#A9159C" opacity="0.6" stroke-width="1" class="alphabet_city"/>
<path d="M 2973.2167 2623.8968 3064.8364 2682.8625 3032.4799 2787.9579 2912.1674 2740.049 2973.2167 2623.8968 Z" fill="none" stroke="#A9159C" opacity="0.6" stroke-width="1" class="alphabet_city"/>
<path d="M 2977.8434 2625.7391 3067.6097 2674.5659 3044.5104 2787.9544 2915.869 2740.9702 2977.8434 2625.7391 Z" fill="none" stroke="#A9159C" opacity="0.6" stroke-width="1" class="alphabet_city"/>
<path d="M 3048.2126 2789.797 2939.0048 2748.3407 3001.9035 2638.6373 3070.3862 2676.4085 3048.2126 2789.797 Z" fill="none" stroke="#A9159C" opacity="0.6" stroke-width="1" class="alphabet_city"/>
<path d="M 3028.7409 2654.2994 3022.2666 2664.4402 3051.8799 2676.4143 2992.6818 2767.6877 2908.4659 2740.0495 2973.2177 2628.5053 3028.7409 2654.2994 Z" fill="none" stroke="#A9159C" opacity="0.6" stroke-width="1" class="alphabet_city"/>
<path d="M 2976.9175 2622.9743 3028.7409 2654.2994 3021.3406 2661.6752 3050.029 2675.4931 2997.3099 2772.2958 2914.0177 2737.2833 2976.9175 2622.9743 Z" fill="none" stroke="#A9159C" opacity="0.6" stroke-width="1" class="alphabet_city"/>
<path d="M 2956.5588 2608.2316 3050.9529 2670.8841 2999.1621 2777.8264 2884.4051 2732.6784 2956.5588 2608.2316 Z" fill="none" stroke="#A9159C" opacity="0.6" stroke-width="1" class="alphabet_city"/>
<path d="M 3052.8414 2795.3268 2907.5402 2738.2061 2970.4403 2621.1323 3074.0875 2676.4073 3052.8414 2795.3268 Z" fill="none" stroke="#A9159C" opacity="0.6" stroke-width="1" class="alphabet_city"/>
<path d="M 3039.8816 2782.4246 2901.062 2734.5198 2963.038 2620.2122 3066.6847 2675.488 3039.8816 2782.4246 Z" fill="none" stroke="#A9159C" opacity="0.6" stroke-width="1" class="alphabet_city"/>
<path d="M 3063.9122 2686.5498 3041.7344 2788.8771 2912.1669 2737.2836 2975.9925 2623.8962 3063.9122 2686.5498 Z" fill="none" stroke="#A9159C" opacity="0.6" stroke-width="1" class="alphabet_city"/>
<path d="M 3068.9978 2675.0263 3049.1391 2793.4842 2911.7047 2740.049 2976.4556 2626.2003 3068.9978 2675.0263 Z" fill="none" stroke="#A9159C" opacity="0.6" stroke-width="1" class="alphabet_city"/>
<path d="M 2967.6623 2610.9943 3032.441 2650.6114 3048.1596 2612.817 3076.8537 2646.911 3051.9171 2799.0145 2900.1365 2733.5981 2967.6623 2610.9943 Z" fill="none" stroke="#A9159C" opacity="0.6" stroke-width="1" class="alphabet_city"/>
<path d="M 2977.381 2626.6609 3066.222 2675.4881 3035.2576 2793.0273 2911.7047 2740.51 2977.381 2626.6609 Z" fill="none" stroke="#A9159C" opacity="0.6" stroke-width="1" class="alphabet_city"/>
<path d="M 2921.447 2896.7678 2855.7351 2904.1521 2859.4365 2896.776 2735.419 2784.3077 2745.5988 2775.0895 2735.4145 2926.2834 2863.1304 2817.4904 2800.1966 2735.4507 3002.8809 2846.0444 2921.447 2896.7678 Z" fill="none" stroke="#A9159C" opacity="0.6" stroke-width="1" class="alphabet_city"/>
<path d="M 2975.9927 2624.8179 3068.5344 2672.7221 3050.0651 2795.3276 2908.4656 2738.2059 2975.9927 2624.8179 Z" fill="none" stroke="#A9159C" opacity="0.6" stroke-width="1" class="alphabet_city"/>
<path d="M 2935.2893 2670.4511 2941.7636 2655.2413 2952.8558 2598.0939 3050.4863 2657.5191 3001.0084 2759.8501 2909.3863 2707.7867 2935.2893 2670.4511 Z" fill="none" stroke="#A9159C" opacity="0.6" stroke-width="1" class="alphabet_city"/>
<path d="M 2953.5524 2611.8037 2953.3211 2611.5733 2953.6681 2611.8037 3068.1881 2675.0266 3037.1073 2788.9936 2888.8003 2730.2582 2889.9565 2725.8795 2953.5524 2611.8037 Z" fill="none" stroke="#A9159C" opacity="0.6" stroke-width="1" class="alphabet_city"/>
<path d="M 2976.9536 2784.2845 2911.2646 2886.6279 2778.9145 2835.9332 2846.4639 2719.7773 2976.9536 2784.2845 Z" fill="none" stroke="#A9159C" opacity="0.6" stroke-width="1" class="alphabet_city"/>
<path d="M 3036.1818 2788.8787 2889.032 2732.6779 2990.7771 2541.8654 3038.8964 2575.9531 3070.3743 2639.5394 3036.1818 2788.8787 Z" fill="none" stroke="#A9159C" opacity="0.6" stroke-width="1" class="alphabet_city"/>
<path d="M 3026.8615 2550.1506 3064.8171 2622.0288 3072.2294 2653.3645 3042.6595 2787.9549 2891.8076 2728.9903 2986.1482 2528.9639 3026.8615 2550.1506 Z" fill="none" stroke="#A9159C" opacity="0.6" stroke-width="1" class="alphabet_city"/>
<path d="M 2926.9492 2598.5595 3024.1138 2651.9963 3037.5656 2773.6678 2867.2846 2721.6189 2926.9492 2598.5595 Z" fill="none" stroke="#A9159C" opacity="0.6" stroke-width="1" class="alphabet_city"/>
<path d="M 2926.0239 2598.0988 3052.8033 2669.9618 2995.4584 2769.5307 2878.8518 2723.4612 2926.0239 2598.0988 Z" fill="none" stroke="#A9159C" opacity="0.6" stroke-width="1" class="alphabet_city"/>
<path d="M 2888.5691 2731.2952 2982.4546 2559.839 3040.7517 2592.5424 3069.4481 2636.7745 3050.0651 2795.3276 3037.5698 2788.4173 2888.5691 2731.2952 Z" fill="none" stroke="#A9159C" opacity="0.6" stroke-width="1" class="alphabet_city"/>
<path d="M 2909.3922 2746.5021 2977.8419 2619.2873 3069.4576 2666.2696 3050.0649 2794.4057 2909.3922 2746.5021 Z" fill="none" stroke="#A9159C" opacity="0.6" stroke-width="1" class="alphabet_city"/>
<path d="M 2952.8582 2610.5365 3070.8489 2676.4084 3064.8456 2711.8982 3057.9152 2743.2414 3053.2977 2774.124 3048.2143 2795.3282 3013.0448 2783.3539 2995.922 2773.2179 2886.7181 2729.4519 2952.8582 2610.5365 Z" fill="none" stroke="#A9159C" opacity="0.6" stroke-width="1" class="alphabet_city"/>
<path d="M 2953.6937 2612.8037 3027.5471 2653.7305 3046.3983 2617.2117 3063.8427 2634.9329 3069.1843 2650.7063 3065.8123 2674.6356 3064.3904 2684.5633 3050.5215 2712.9304 3040.3838 2735.0933 3037.3619 2749.2762 3033.2798 2786.1508 3012.6344 2780.1275 2996.9719 2771.268 2969.0292 2760.4613 2941.0871 2749.4742 2890.1906 2729.804 2890.3684 2727.1469 2953.6937 2612.8037 Z" fill="none" stroke="#A9159C" opacity="0.6" stroke-width="1" class="alphabet_city"/>
<path d="M 2888.1061 2728.9908 2953.3209 2610.9973 3053.2651 2667.1965 2994.996 2770.4526 2888.1061 2728.9908 Z" fill="none" stroke="#A9159C" opacity="0.6" stroke-width="1" class="alphabet_city"/>
<path d="M 2941.7577 2623.9032 2909.3893 2727.1442 2931.5761 2602.7062 2941.7577 2623.9032 Z" fill="none" stroke="#A9159C" opacity="0.6" stroke-width="1" class="alphabet_city"/>
<path d="M 2951.0076 2610.0761 3067.6085 2670.8789 3052.8397 2789.7956 2882.5543 2731.7569 2951.0076 2610.0761 Z" fill="none" stroke="#A9159C" opacity="0.6" stroke-width="1" class="alphabet_city"/>
<path d="M 3069.4591 2670.8783 3037.1088 2794.4096 2863.1202 2718.854 2926.024 2599.0205 3069.4591 2670.8783 Z" fill="none" stroke="#A9159C" opacity="0.6" stroke-width="1" class="alphabet_city"/>
<path d="M 2880.6799 2538.1988 2985.2423 2611.9121 2820.5483 2623.918 2786.3119 2549.265 2791.8631 2550.1864 2880.6799 2538.1988 Z" fill="none" stroke="#A9159C" opacity="0.6" stroke-width="1" class="alphabet_city"/>
<path d="M 3033.4063 2791.645 2843.688 2721.6211 2908.4421 2583.3551 3057.4327 2679.1778 3033.4063 2791.645 Z" fill="none" stroke="#A9159C" opacity="0.6" stroke-width="1" class="alphabet_city"/>
<path d="M 2977.1492 2624.5872 2977.1489 2623.4351 3067.3788 2675.9486 3035.4872 2786.8047 2914.2493 2739.1268 2977.1492 2624.5872 Z" fill="none" stroke="#A9159C" opacity="0.6" stroke-width="1" class="alphabet_city"/>
<path d="M 2959.3356 2613.7611 3066.6823 2668.114 3038.0361 2800.8623 2896.4351 2733.5987 2959.3356 2613.7611 Z" fill="none" stroke="#A9159C" opacity="0.6" stroke-width="1" class="alphabet_city"/>
<path d="M 3070.385 2672.7215 3037.1067 2787.0347 2859.4187 2717.9326 2928.7997 2599.02 3070.385 2672.7215 Z" fill="none" stroke="#A9159C" opacity="0.6" stroke-width="1" class="alphabet_city"/>
<path d="M 2809.9069 2605.9457 2806.6689 2613.7801 2830.7297 2675.0729 2778.4494 2664.0141 2809.9069 2605.9457 Z" fill="none" stroke="#A9159C" opacity="0.6" stroke-width="1" class="alphabet_city"/>
<path d="M 2902.8909 2584.2775 2907.5175 2587.0418 2903.8163 2585.1991 3067.6091 2672.7224 3037.1075 2789.8003 2844.6125 2712.4032 2860.3382 2659.8617 2902.8909 2584.2775 Z" fill="none" stroke="#A9159C" opacity="0.6" stroke-width="1" class="alphabet_city"/>
<path d="M 2952.8584 2611.4582 3056.0414 2668.5782 2994.5337 2772.2964 2890.4191 2725.7642 2952.8584 2611.4582 Z" fill="none" stroke="#A9159C" opacity="0.6" stroke-width="1" class="alphabet_city"/>
<path d="M 2984.32 2624.816 3075.0119 2673.6418 3058.3914 2787.0283 2915.8684 2737.283 2984.32 2624.816 Z" fill="none" stroke="#A9159C" opacity="0.6" stroke-width="1" class="alphabet_city"/>
<path d="M 2928.7996 2598.0984 3030.5918 2655.2206 3021.3423 2668.1274 3058.36 2685.6298 3047.2886 2794.4066 2860.3438 2715.1671 2928.7996 2598.0984 Z" fill="none" stroke="#A9159C" opacity="0.6" stroke-width="1" class="alphabet_city"/>
<path d="M 2912.6307 2744.1971 2934.8335 2709.1651 2952.8712 2675.9783 2981.5441 2624.3558 3061.1308 2669.0375 2996.8474 2773.2177 2912.6307 2744.1971 Z" fill="none" stroke="#A9159C" opacity="0.6" stroke-width="1" class="alphabet_city"/>
<path d="M 2887.4123 2730.604 2953.0898 2611.6886 3027.815 2651.9953 3049.5482 2615.1208 3054.6387 2620.419 3059.7295 2626.4084 3067.8278 2633.3187 3068.9894 2648.757 3065.3 2685.8581 3052.5846 2711.6716 3038.4844 2750.8522 3034.0991 2787.0356 3011.1936 2782.2021 2993.6082 2772.0662 2967.9259 2761.471 2940.6245 2749.7232 2887.4123 2730.604 Z" fill="none" stroke="#A9159C" opacity="0.6" stroke-width="1" class="alphabet_city"/>
<path d="M 3052.803 2669.0401 2996.3838 2769.5305 2912.1674 2740.049 2974.1417 2622.9749 3052.803 2669.0401 Z" fill="none" stroke="#A9159C" opacity="0.6" stroke-width="1" class="alphabet_city"/>
<path d="M 2951.0082 2612.8411 3066.6885 2687.4707 3051.916 2795.327 2880.7032 2728.9917 2950.0838 2617.4497 2951.0082 2612.8411 Z" fill="none" stroke="#A9159C" opacity="0.6" stroke-width="1" class="alphabet_city"/>
<path d="M 2951.0082 2612.8411 3069.4594 2671.8001 3014.8941 2777.8223 2892.7327 2727.1466 2951.0082 2612.8411 Z" fill="none" stroke="#A9159C" opacity="0.6" stroke-width="1" class="alphabet_city"/>
<path d="M 2975.9927 2624.8179 3064.8361 2681.9408 3033.4042 2784.2702 2914.9441 2743.7358 2975.9927 2624.8179 Z" fill="none" stroke="#A9159C" opacity="0.6" stroke-width="1" class="alphabet_city"/>
<path d="M 3055.5769 2662.5871 2991.2019 2771.0066 2913.4625 2737.8364 2976.3628 2625.0021 3055.5769 2662.5871 Z" fill="none" stroke="#A9159C" opacity="0.6" stroke-width="1" class="alphabet_city"/>
<path d="M 2976.9177 2623.896 3028.74 2651.0733 3039.3763 2635.4012 3068.9902 2651.5221 3066.2242 2682.4012 3062.5368 2726.6475 3048.214 2794.4063 3001.9385 2778.2866 2916.3318 2741.431 2909.8538 2739.1275 2976.9177 2623.896 Z" fill="none" stroke="#A9159C" opacity="0.6" stroke-width="1" class="alphabet_city"/>
<path d="M 3068.9984 2676.8698 3048.6763 2793.0234 2889.9567 2727.6078 2953.7844 2615.1448 3068.9984 2676.8698 Z" fill="none" stroke="#A9159C" opacity="0.6" stroke-width="1" class="alphabet_city"/>
<path d="M 2976.9181 2625.7393 3063.9084 2674.5671 3035.2561 2787.9571 2912.1675 2740.9708 2976.9181 2625.7393 Z" fill="none" stroke="#A9159C" opacity="0.6" stroke-width="1" class="alphabet_city"/>
<path d="M 2952.3956 2610.5366 3027.3522 2651.5346 3046.3105 2617.426 3068.5249 2643.2268 3066.2204 2670.4185 3062.062 2687.9331 3050.5024 2710.9808 3038.4799 2735.4119 3035.2478 2758.9191 3033.8671 2784.731 3010.7299 2778.2843 2995.921 2769.0697 2967.694 2758.936 2887.1808 2728.9909 2952.3956 2610.5366 Z" fill="none" stroke="#A9159C" opacity="0.6" stroke-width="1" class="alphabet_city"/>
<path d="M 3065.7595 2675.9491 3033.4049 2786.5748 2916.3309 2735.9002 2977.8437 2627.1217 3065.7595 2675.9491 Z" fill="none" stroke="#A9159C" opacity="0.6" stroke-width="1" class="alphabet_city"/>
<path d="M 3062.9849 2680.0979 3033.4079 2797.1762 2913.0923 2737.2834 2974.1427 2627.5834 2972.2912 2622.9753 3062.9849 2680.0979 Z" fill="none" stroke="#A9159C" opacity="0.6" stroke-width="1" class="alphabet_city"/>
<path d="M 2855.1112 2805.4063 2829.6203 2797.3549 2862.6964 2718.7664 2926.5255 2598.9329 2953.7724 2610.6027 3032.4301 2651.1386 3067.5958 2665.8757 3046.3495 2785.7156 3008.4273 2864.0868 2855.1112 2805.4063 Z" fill="none" stroke="#A9159C" opacity="0.6" stroke-width="1" class="alphabet_city"/>
<path d="M 2887.6438 2731.7562 2952.3958 2611.4583 2956.5595 2611.9183 2953.3212 2612.3798 2955.1717 2612.3794 3052.803 2669.0401 2995.4597 2774.6008 2887.6438 2731.7562 Z" fill="none" stroke="#A9159C" opacity="0.6" stroke-width="1" class="alphabet_city"/>
<path d="M 2925.1201 2725.2981 2989.8685 2611.911 3065.7506 2647.8363 3006.5614 2762.1533 2925.1201 2725.2981 Z" fill="none" stroke="#A9159C" opacity="0.6" stroke-width="1" class="alphabet_city"/>
<path d="M 2861.2685 2708.7145 2898.28 2692.1182 2875.1492 2713.3219 2861.2685 2708.7145 Z" fill="none" stroke="#A9159C" opacity="0.6" stroke-width="1" class="alphabet_city"/>
<path d="M 2975.9925 2623.8962 3075.9429 2691.1548 3050.9914 2798.0929 2910.3162 2737.2838 2975.9925 2623.8962 Z" fill="none" stroke="#A9159C" opacity="0.6" stroke-width="1" class="alphabet_city"/>
<path d="M 2914.9164 2568.6077 2906.5826 2522.5279 3010.2052 2539.0957 3059.2784 2663.5077 3028.7766 2782.4278 2867.7486 2733.6022 2914.9267 2634.0465 2914.9164 2568.6077 Z" fill="none" stroke="#A9159C" opacity="0.6" stroke-width="1" class="alphabet_city"/>
<path d="M 2976.9177 2623.896 3067.6094 2673.6442 3037.1067 2787.0347 3001.0109 2769.5293 2907.5409 2742.8151 2976.9177 2623.896 Z" fill="none" stroke="#A9159C" opacity="0.6" stroke-width="1" class="alphabet_city"/>
<path d="M 2976.9176 2623.4351 3068.5356 2676.4091 3035.2563 2788.418 2914.0182 2740.5096 2976.9176 2623.4351 Z" fill="none" stroke="#A9159C" opacity="0.6" stroke-width="1" class="alphabet_city"/>
<path d="M 2842.7402 2447.8889 3030.5636 2554.7577 3049.0877 2622.0336 3072.2264 2644.1473 3050.0401 2712.3637 3032.4786 2783.3486 2733.5726 2653.4138 2838.115 2450.6538 2842.7402 2447.8889 Z" fill="none" stroke="#A9159C" opacity="0.6" stroke-width="1" class="alphabet_city"/>
<path d="M 2950.0831 2613.763 2948.2319 2610.0766 3048.1762 2668.1197 3000.0868 2775.0606 2888.1057 2725.3036 2950.0831 2613.763 Z" fill="none" stroke="#A9159C" opacity="0.6" stroke-width="1" class="alphabet_city"/>
<path d="M 2946.4073 2745.5739 2996.3841 2770.4523 2919.5696 2735.4388 2980.62 2629.4253 3050.9538 2673.6493 3004.7104 2761.2319 2946.4073 2745.5739 Z" fill="none" stroke="#A9159C" opacity="0.6" stroke-width="1" class="alphabet_city"/>
<path d="M 2956.5586 2607.3099 3065.7617 2682.8622 3017.6871 2840.5091 2865.9032 2784.3029 2956.5586 2607.3099 Z" fill="none" stroke="#A9159C" opacity="0.6" stroke-width="1" class="alphabet_city"/>
<path d="M 3047.2531 2675.4939 3060.2095 2681.9422 3027.8525 2787.0373 2911.2414 2736.3619 2978.7684 2624.8172 3047.2531 2675.4939 Z" fill="none" stroke="#A9159C" opacity="0.6" stroke-width="1" class="alphabet_city"/>
<path d="M 2887.1812 2732.6781 2951.0075 2609.1544 3069.463 2682.8611 3047.2886 2794.4066 2887.1812 2732.6781 Z" fill="none" stroke="#A9159C" opacity="0.6" stroke-width="1" class="alphabet_city"/>
<path d="M 2901.005 2337.3057 2981.4411 2174.2137 3066.5339 2202.7499 2982.4079 2356.6405 2901.005 2337.3057 Z" fill="none" stroke="#A9159C" opacity="0.6" stroke-width="1" class="alphabet_city"/>
<path d="M 2874.6694 2565.3874 2973.7102 2764.0047 2809.9104 2679.2219 2874.6694 2565.3874 Z" fill="none" stroke="#A9159C" opacity="0.6" stroke-width="1" class="alphabet_city"/>
<path d="M 2789.0894 2626.6844 3023.1776 2611.9025 3020.4409 2756.6187 2777.0616 2676.4577 2788.1644 2634.9798 2789.0894 2626.6844 Z" fill="none" stroke="#A9159C" opacity="0.6" stroke-width="1" class="alphabet_city"/>
<path d="M 2952.8591 2614.6841 3066.6855 2678.2532 3044.494 2732.6447 3038.9578 2787.956 2888.1062 2729.9126 2952.8591 2614.6841 Z" fill="none" stroke="#A9159C" opacity="0.6" stroke-width="1" class="alphabet_city"/>
<path d="M 2953.7837 2611.6885 2954.9404 2612.3795 3052.108 2665.8142 2994.9966 2773.2182 2887.1811 2731.2954 2953.7837 2611.6885 Z" fill="none" stroke="#A9159C" opacity="0.6" stroke-width="1" class="alphabet_city"/>
<path d="M 2735.4296 2451.5776 2777.9846 2503.1851 2774.2852 2631.2932 2687.3089 2642.3505 2633.6484 2600.8683 2618.8542 2539.116 2663.2728 2446.965 2735.4296 2451.5776 Z" fill="none" stroke="#A9159C" opacity="0.6" stroke-width="1" class="alphabet_city"/>
<path d="M 2946.8238 2505.0109 3037.0397 2553.8343 3046.7657 2592.5406 3052.3238 2614.6591 3059.266 2623.4131 3068.0589 2632.6273 3071.3005 2642.3042 3071.3072 2663.043 3070.3858 2675.0259 2902.8909 2583.8167 2946.8238 2505.0109 Z" fill="none" stroke="#A9159C" opacity="0.6" stroke-width="1" class="alphabet_city"/>
<path d="M 2953.3212 2612.3798 3027.3521 2651.0737 3023.1914 2662.5965 3049.5666 2676.415 2995.9219 2772.757 2887.6434 2728.5299 2953.3212 2612.3798 Z" fill="none" stroke="#A9159C" opacity="0.6" stroke-width="1" class="alphabet_city"/>
<path d="M 2976.4552 2624.3569 3026.427 2651.7653 3065.296 2673.4145 3066.6848 2675.9488 3050.7344 2713.0548 3038.4811 2739.3296 3036.8645 2749.2395 3033.1733 2785.8835 3010.7306 2780.8194 2996.3846 2772.5264 2995.4597 2774.6008 2966.5381 2763.0845 2967.9257 2760.5491 2913.3242 2740.7402 2976.4552 2624.3569 Z" fill="none" stroke="#A9159C" opacity="0.6" stroke-width="1" class="alphabet_city"/>
<path d="M 3034.3306 2787.4964 2910.7797 2742.8146 2967.2065 2642.793 3057.4374 2694.3868 3034.3306 2787.4964 Z" fill="none" stroke="#A9159C" opacity="0.6" stroke-width="1" class="alphabet_city"/>
<path d="M 2956.5593 2610.9966 3059.2827 2677.3338 3035.2582 2795.3319 2887.1815 2734.5217 2956.5593 2610.9966 Z" fill="none" stroke="#A9159C" opacity="0.6" stroke-width="1" class="alphabet_city"/>
<path d="M 2995.8637 2534.0304 3032.8761 2553.3747 3047.6981 2616.5039 3071.3012 2644.6085 3067.1488 2680.0965 3040.3328 2742.7858 3035.7191 2788.8788 2887.6435 2729.4517 2995.8637 2534.0304 Z" fill="none" stroke="#A9159C" opacity="0.6" stroke-width="1" class="alphabet_city"/>
<path d="M 3000.9518 2532.6468 2962.1097 2605.4654 3047.2363 2619.2691 3079.6292 2645.9883 3053.7404 2708.6754 3042.6606 2791.6424 2840.9119 2721.6214 2859.4126 2656.1748 2876.0559 2553.8668 2914.9037 2488.4282 3000.9518 2532.6468 Z" fill="none" stroke="#A9159C" opacity="0.6" stroke-width="1" class="alphabet_city"/>
<path d="M 2954.2466 2612.8405 3068.9975 2674.1046 3039.407 2741.4034 3035.7183 2786.1132 3011.193 2779.667 2996.8468 2770.4522 2889.0315 2728.9907 2954.2466 2612.8405 Z" fill="none" stroke="#A9159C" opacity="0.6" stroke-width="1" class="alphabet_city"/>
<path d="M 2951.9331 2610.9976 3062.0601 2681.9417 3016.7474 2787.0403 2884.4049 2730.8348 2951.9331 2610.9976 Z" fill="none" stroke="#A9159C" opacity="0.6" stroke-width="1" class="alphabet_city"/>
<path d="M 2914.0186 2743.275 2978.3076 2632.6518 3067.1491 2681.0183 3037.5692 2786.1127 2914.0186 2743.275 Z" fill="none" stroke="#A9159C" opacity="0.6" stroke-width="1" class="alphabet_city"/>
<path d="M 3074.9391 2451.5274 3028.7969 2855.2567 2612.3367 2793.5143 2637.3534 2571.3757 3074.9391 2451.5274 Z" fill="none" stroke="#A9159C" opacity="0.6" stroke-width="1" class="alphabet_city"/>
<path d="M 2951.9327 2609.1542 3065.7599 2677.3317 3029.702 2782.4275 2889.0311 2726.2253 2951.9327 2609.1542 Z" fill="none" stroke="#A9159C" opacity="0.6" stroke-width="1" class="alphabet_city"/>
<path d="M 2977.3803 2623.8958 3071.7722 2670.4167 3045.8974 2784.2666 3043.5848 2787.4937 2913.5553 2739.5879 2977.3803 2623.8958 Z" fill="none" stroke="#A9159C" opacity="0.6" stroke-width="1" class="alphabet_city"/>
<path d="M 2833.0337 2545.1155 2863.5667 2562.6237 2858.9447 2603.6379 2847.3805 2618.8468 2806.2056 2597.1899 2833.0337 2545.1155 Z" fill="none" stroke="#A9159C" opacity="0.6" stroke-width="1" class="alphabet_city"/>
<path d="M 2973.2167 2623.8968 3072.238 2680.0949 3032.4796 2787.036 2913.0935 2744.6579 2973.2167 2623.8968 Z" fill="none" stroke="#A9159C" opacity="0.6" stroke-width="1" class="alphabet_city"/>
<path d="M 3047.2358 2617.4257 3071.2993 2638.6174 3071.3142 2684.704 3040.7936 2736.333 3041.7344 2788.8771 2887.1806 2728.0691 2954.7096 2614.6837 3026.8878 2645.0827 3047.2358 2617.4257 Z" fill="none" stroke="#A9159C" opacity="0.6" stroke-width="1" class="alphabet_city"/>
<path d="M 2953.7838 2611.9189 3071.3091 2669.0343 3034.3307 2787.9573 2888.1064 2730.8344 2953.7838 2611.9189 Z" fill="none" stroke="#A9159C" opacity="0.6" stroke-width="1" class="alphabet_city"/>
<path d="M 2943.6053 2608.2341 3065.7593 2675.4882 3037.1226 2842.3475 2867.7535 2778.7716 2943.6053 2608.2341 Z" fill="none" stroke="#A9159C" opacity="0.6" stroke-width="1" class="alphabet_city"/>
<path d="M 3066.6841 2673.6445 3034.3312 2789.8011 2813.1499 2696.7352 2926.9482 2592.5687 3066.6841 2673.6445 Z" fill="none" stroke="#A9159C" opacity="0.6" stroke-width="1" class="alphabet_city"/>
<path d="M 2995.4597 2774.6008 2915.4062 2740.5094 2977.3801 2622.9742 3052.3388 2663.9707 2995.4597 2774.6008 Z" fill="none" stroke="#A9159C" opacity="0.6" stroke-width="1" class="alphabet_city"/>
<path d="M 2848.3308 2905.0747 2973.2156 2619.2883 3069.4639 2685.6263 3012.1509 2904.1242 2855.737 2924.4356 2848.3308 2905.0747 Z" fill="none" stroke="#A9159C" opacity="0.6" stroke-width="1" class="alphabet_city"/>
<path d="M 2973.2173 2626.6619 3057.4273 2661.6648 3043.5526 2678.2603 3001.9351 2764.9199 2913.091 2728.9872 2973.2173 2626.6619 Z" fill="none" stroke="#A9159C" opacity="0.6" stroke-width="1" class="alphabet_city"/>
<path d="M 2952.3962 2613.3017 3051.8769 2666.2751 2995.9218 2772.2961 2887.6439 2732.678 2952.3962 2613.3017 Z" fill="none" stroke="#A9159C" opacity="0.6" stroke-width="1" class="alphabet_city"/>
<path d="M 2952.858 2609.154 3069.4618 2679.1741 3038.0175 2736.3338 3034.3297 2784.2699 3010.2683 2782.4328 2997.3097 2771.3739 2888.1061 2728.9908 2952.858 2609.154 Z" fill="none" stroke="#A9159C" opacity="0.6" stroke-width="1" class="alphabet_city"/>
<path d="M 3066.6855 2678.2532 3032.4793 2786.1142 2889.9571 2730.8341 2951.9342 2616.5277 2956.5601 2614.6834 3066.6855 2678.2532 Z" fill="none" stroke="#A9159C" opacity="0.6" stroke-width="1" class="alphabet_city"/>
<path d="M 3067.6104 2676.8703 3033.868 2787.9575 2914.0177 2737.2833 2978.7691 2627.5823 3067.6104 2676.8703 Z" fill="none" stroke="#A9159C" opacity="0.6" stroke-width="1" class="alphabet_city"/></svg>