<?xml version="1.0"?><svg xmlns="http://www.w3.org/2000/svg" version="1.2" baseProfile="tiny" width="6000" height="5918" viewBox="0 0 6000 5918" stroke-linecap="round" stroke-linejoin="round"><path d="M 635.5899 5274.1679 571.9744 5098.4281 631.438 5057.9046 737.8563 5180.1218 635.5899 5274.1679 Z" fill="none" stroke="#12852D" opacity="0.6" stroke-width="1" class="annadale"/>
<path d="M 881.7743 5123.1219 914.6968 5128.9626 914.2225 5134.2754 856.5062 5232.1237 850.9468 5228.4156 761.0348 5187.5646 758.2652 5181.0895 899.7067 5085.6158 913.6239 5084.6036 909.6489 5101.1139 881.7743 5123.1219 Z" fill="none" stroke="#12852D" opacity="0.6" stroke-width="1" class="annadale"/>
<path d="M 701.5854 5433.3012 633.2723 5273.2384 718.7911 5201.3371 821.5973 5062.4724 862.3917 5073.644 877.0417 5170.2438 875.9987 5228.0038 854.4659 5323.6223 815.8445 5378.5419 701.5854 5433.3012 Z" fill="none" stroke="#12852D" opacity="0.6" stroke-width="1" class="annadale"/>
<path d="M 847.726 4986.2936 996.978 5033.7087 1002.1273 5257.3605 916.6213 5331.1402 843.2729 5352.2538 787.562 5368.7774 847.726 4986.2936 Z" fill="none" stroke="#12852D" opacity="0.6" stroke-width="1" class="annadale"/>
<path d="M 1114.1078 5423.0174 785.2384 5592.4934 766.3498 5306.8029 812.914 5224.6411 747.1616 5167.2034 715.6619 5146.8043 800.2604 5062.8903 806.9661 4960.3389 909.8248 5011.3654 882.4465 5251.5846 957.4355 5338.6136 1114.1078 5423.0174 Z" fill="none" stroke="#12852D" opacity="0.6" stroke-width="1" class="annadale"/>
<path d="M 1147.0444 4613.635 1725.7348 4514.7015 1472.737 5116.7204 997.6623 5164.0075 668.3083 4745.7066 706.0292 4457.6214 1366.391 4259.3786 1135.8924 4628.394 1147.0444 4613.635 Z" fill="none" stroke="#12852D" opacity="0.6" stroke-width="1" class="annadale"/>
<path d="M 666.4232 5596.3982 628.3159 5619.4278 589.5748 5513.4785 814.3019 5226.4924 955.7257 5505.004 666.4232 5596.3982 Z" fill="none" stroke="#12852D" opacity="0.6" stroke-width="1" class="annadale"/>
<path d="M 808.5859 5523.2014 716.6966 5419.0056 651.3511 5279.7489 627.6978 5276.4608 732.7595 5177.3384 927.4646 5242.4306 1070.4551 5443.2775 808.5859 5523.2014 Z" fill="none" stroke="#12852D" opacity="0.6" stroke-width="1" class="annadale"/>
<path d="M 738.8078 5169.0338 848.6405 4992.7634 931.1185 5032.6594 993.7576 5267.5117 932.4299 5313.609 738.8078 5169.0338 Z" fill="none" stroke="#12852D" opacity="0.6" stroke-width="1" class="annadale"/>
<path d="M 1202.6771 4613.7285 1464.6262 4058.4696 1631.6782 4190.3793 1725.1782 4337.9669 1699.6431 4615.8263 1530.514 4787.3216 1202.6771 4613.7285 Z" fill="none" stroke="#12852D" opacity="0.6" stroke-width="1" class="annadale"/>
<path d="M 845.8746 4984.4419 863.2646 5100.9063 811.0622 5222.7888 679.8727 5389.8069 570.2755 5431.1571 462.4646 5115.726 672.3689 5006.2501 791.1958 4961.2301 845.8746 4984.4419 Z" fill="none" stroke="#12852D" opacity="0.6" stroke-width="1" class="annadale"/>
<path d="M 757.5489 5354.849 751.8948 5340.9719 857.1518 5257.0794 989.6842 5275.0137 774.1704 5393.5918 757.5489 5354.849 Z" fill="none" stroke="#12852D" opacity="0.6" stroke-width="1" class="annadale"/>
<path d="M 921.3329 5294.1773 773.7895 5298.9621 831.0422 5207.1183 931.5823 5032.6603 979.8512 5261.4779 921.3329 5294.1773 Z" fill="none" stroke="#12852D" opacity="0.6" stroke-width="1" class="annadale"/>
<path d="M 809.5778 5185.5216 816.8944 5184.7481 815.8464 5186.8254 813.7475 5188.0717 809.5778 5185.5216 Z" fill="none" stroke="#12852D" opacity="0.6" stroke-width="1" class="annadale"/>
<path d="M 747.3329 5086.8049 777.135 5031.4245 1127.6739 5091.2356 1021.5064 5314.7016 686.7358 5222.524 747.3329 5086.8049 Z" fill="none" stroke="#12852D" opacity="0.6" stroke-width="1" class="annadale"/>
<path d="M 398.3513 5156.2298 452.2643 5113.8529 494.0442 5100.0925 618.4971 5037.5462 798.0421 5237.5494 352.011 5501.8091 398.3513 5156.2298 Z" fill="none" stroke="#12852D" opacity="0.6" stroke-width="1" class="annadale"/>
<path d="M 569.1399 5120.6001 562.7029 5096.0963 564.554 5097.9488 569.1399 5120.6001 Z" fill="none" stroke="#12852D" opacity="0.6" stroke-width="1" class="annadale"/>
<path d="M 856.4019 5283.8815 932.4388 5308.9875 817.1899 5401.1919 856.4019 5283.8815 Z" fill="none" stroke="#12852D" opacity="0.6" stroke-width="1" class="annadale"/>
<path d="M 551.8492 5373.802 597.336 5366.5123 662.2186 5399.936 811.7555 5336.4756 777.0537 5512.0417 602.5153 5536.6209 551.8492 5373.802 Z" fill="none" stroke="#12852D" opacity="0.6" stroke-width="1" class="annadale"/>
<path d="M 627.7337 5055.124 735.7274 5307.662 571.8374 5157.5718 618.4552 5056.0271 794.9272 4951.0743 932.9988 5019.7267 814.7563 5231.1144 627.7337 5055.124 Z" fill="none" stroke="#12852D" opacity="0.6" stroke-width="1" class="annadale"/>
<path d="M 818.4752 5227.4252 814.7354 5241.2809 861.0933 5258.0116 949.741 5480.0316 740.785 5546.1718 688.1738 5412.9349 818.4752 5227.4252 Z" fill="none" stroke="#12852D" opacity="0.6" stroke-width="1" class="annadale"/>
<path d="M 736.7959 5242.0413 857.6929 5103.6674 989.8868 5352.5401 818.0589 5429.8502 736.7959 5242.0413 Z" fill="none" stroke="#12852D" opacity="0.6" stroke-width="1" class="annadale"/>
<path d="M 636.5198 5273.2457 635.5795 5278.7892 572.9106 5094.7338 631.4443 5055.1324 739.7178 5177.3533 636.5198 5273.2457 Z" fill="none" stroke="#12852D" opacity="0.6" stroke-width="1" class="annadale"/>
<path d="M 857.4264 4775.6674 1021.3725 4380.6864 1280.7079 4521.4961 751.7849 5610.9146 455.4318 5336.5978 857.4264 4775.6674 Z" fill="none" stroke="#12852D" opacity="0.6" stroke-width="1" class="annadale"/>
<path d="M 816.6138 5230.194 949.1197 5320.1113 1024.9241 5474.626 945.0385 5512.3794 839.2434 5508.4722 755.6389 5544.3544 677.9984 5398.1222 816.6138 5230.194 Z" fill="none" stroke="#12852D" opacity="0.6" stroke-width="1" class="annadale"/>
<path d="M 801.1631 5074.9051 851.2252 5090.717 842.8667 5095.3205 802.7349 5211.681 737.8781 5169.956 844.9189 4998.2999 896.8037 5028.8962 882.8858 5030.7166 847.4845 5105.495 801.1631 5074.9051 Z" fill="none" stroke="#12852D" opacity="0.6" stroke-width="1" class="annadale"/>
<path d="M 811.9786 5228.336 938.008 5308.074 940.7578 5325.6411 1034.1608 5498.6792 926.3851 5559.4939 914.3301 5553.9232 904.5747 5558.989 859.268 5473.3826 832.5299 5387.3576 811.2057 5378.0701 797.7425 5381.7397 766.3566 5303.5679 811.9786 5228.336 Z" fill="none" stroke="#12852D" opacity="0.6" stroke-width="1" class="annadale"/>
<path d="M 690.4288 5230.8501 694.1421 5229.934 901.9311 5251.6231 922.187 5332.0754 591.7704 5365.5752 567.899 5255.5281 690.4288 5230.8501 Z" fill="none" stroke="#12852D" opacity="0.6" stroke-width="1" class="annadale"/>
<path d="M 430.8525 5520.4966 474.9003 5344.0398 704.1569 5317.7612 954.5846 5373.7333 945.9293 5531.7958 927.306 5563.1939 601.5027 5573.6002 475.9808 5664.8407 430.8525 5520.4966 Z" fill="none" stroke="#12852D" opacity="0.6" stroke-width="1" class="annadale"/>
<path d="M 620.183 5521.8689 926.8517 5319.1441 737.8603 5178.2735 1084.4149 5421.1163 486.0647 5717.5713 405.407 5303.1992 739.7435 5165.3392 954.7348 5295.166 976.976 5309.997 620.183 5521.8689 Z" fill="none" stroke="#12852D" opacity="0.6" stroke-width="1" class="annadale"/>
<path d="M 864.1552 5119.3903 945.8166 5107.5373 990.022 5280.4444 809.7927 5388.2353 836.975 5255.1901 849.1753 5186.8229 850.1461 5165.569 913.3201 5121.3359 864.1348 5129.5555 864.1552 5119.3903 Z" fill="none" stroke="#12852D" opacity="0.6" stroke-width="1" class="annadale"/>
<path d="M 748.0892 5330.5651 815.225 5228.8048 858.7744 5257.6604 917.9675 5295.095 939.0548 5306.574 940.3046 5320.0944 905.9247 5344.1754 883.4073 5351.7567 853.9024 5372.9577 811.7842 5378.7646 775.9079 5394.7509 749.8268 5331.6087 748.0892 5330.5651 Z" fill="none" stroke="#12852D" opacity="0.6" stroke-width="1" class="annadale"/>
<path d="M 664.173 5355.5707 807.3357 5230.1749 844.3977 5255.2051 945.4258 5310.8612 994.3087 5469.0225 909.6949 5551.1405 790.7939 5598.9771 751.012 5537.8729 707.6235 5430.5411 798.9988 5223.688 744.327 5191.2258 621.2276 5060.6537 584.8833 5132.6501 604.2663 5176.1296 622.6689 5243.6384 646.7263 5273.2686 646.6663 5300.0726 664.173 5355.5707 Z" fill="none" stroke="#12852D" opacity="0.6" stroke-width="1" class="annadale"/>
<path d="M 646.9537 5171.6053 716.5797 5151.427 693.2041 5234.5531 583.6787 5252.7918 646.9537 5171.6053 Z" fill="none" stroke="#12852D" opacity="0.6" stroke-width="1" class="annadale"/>
<path d="M 868.3104 5129.1019 880.704 5194.7418 846.6087 5308.8175 940.7739 5317.3224 1018.8935 5473.6904 829.4834 5515.8483 691.3772 5433.2789 730.165 5305.3394 861.821 5126.7785 868.3104 5129.1019 Z" fill="none" stroke="#12852D" opacity="0.6" stroke-width="1" class="annadale"/>
<path d="M 569.4182 5400.6498 609.4962 5324.0206 665.0948 5358.3458 633.4553 5398.0229 577.7679 5401.5935 569.4182 5400.6498 Z" fill="none" stroke="#12852D" opacity="0.6" stroke-width="1" class="annadale"/>
<path d="M 719.1651 5242.9276 696.9477 5219.7737 722.9722 5198.5735 788.1256 5098.9042 805.6426 5151.6156 830.6387 5177.5435 861.2345 5187.7714 876.0494 5202.5882 869.5012 5229.3772 861.1044 5252.4662 939.8638 5308.0776 950.9861 5314.5691 1068.5444 5473.7807 890.1803 5563.1211 719.1651 5242.9276 Z" fill="none" stroke="#12852D" opacity="0.6" stroke-width="1" class="annadale"/>
<path d="M 825.892 5230.2131 905.1559 5027.0646 1002.5213 5045.7316 996.959 5043.8731 1087.931 5008.0017 1140.525 5170.7326 945.4311 5308.0883 825.892 5230.2131 Z" fill="none" stroke="#12852D" opacity="0.6" stroke-width="1" class="annadale"/>
<path d="M 811.6687 5378.5333 709.4726 5220.0321 813.2071 4970.0534 909.5798 5018.064 858.602 5112.9103 846.2762 5129.5195 814.6884 5376.6908 811.6687 5378.5333 Z" fill="none" stroke="#12852D" opacity="0.6" stroke-width="1" class="annadale"/>
<path d="M 636.5177 5274.17 738.7861 5179.1997 935.2368 5301.5986 937.0515 5322.8611 1023.9978 5473.6998 949.6825 5510.5394 847.6 5506.6402 755.6271 5549.9016 636.5177 5274.17 Z" fill="none" stroke="#12852D" opacity="0.6" stroke-width="1" class="annadale"/>
<path d="M 736.0087 5176.4212 810.6553 4970.5102 931.1364 5023.4192 806.0942 5381.757 736.0087 5176.4212 Z" fill="none" stroke="#12852D" opacity="0.6" stroke-width="1" class="annadale"/>
<path d="M 644.4134 5684.6506 456.3232 5732.2946 431.6815 5560.7156 573.7726 5524.0739 644.4134 5684.6506 Z" fill="none" stroke="#12852D" opacity="0.6" stroke-width="1" class="annadale"/>
<path d="M 470.843 5103.733 611.9848 5045.8478 811.0584 5224.6372 570.2776 5430.2327 470.843 5103.733 Z" fill="none" stroke="#12852D" opacity="0.6" stroke-width="1" class="annadale"/>
<path d="M 691.5894 5124.5727 926.884 5302.5067 688.2893 5360.2457 486.338 4833.0467 691.5894 5124.5727 Z" fill="none" stroke="#12852D" opacity="0.6" stroke-width="1" class="annadale"/>
<path d="M 810.7436 5377.1448 833.9313 5382.7386 854.3671 5372.612 910.1114 5338.5221 934.2678 5322.8557 946.3395 5318.2574 1020.2771 5478.3153 970.1058 5507.8048 912.5534 5513.2409 855.0265 5505.7307 839.2867 5487.2092 832.8072 5478.8758 820.7291 5485.3223 792.9699 5445.5135 774.4501 5426.0619 774.4696 5416.8178 810.7436 5377.1448 Z" fill="none" stroke="#12852D" opacity="0.6" stroke-width="1" class="annadale"/>
<path d="M 741.6484 5142.2395 891.2032 5046.4418 962.0874 5332.1522 705.9022 5368.6033 741.6484 5142.2395 Z" fill="none" stroke="#12852D" opacity="0.6" stroke-width="1" class="annadale"/>
<path d="M 818.4752 5227.4252 938.9573 5296.9843 1025.8624 5469.081 953.3436 5537.3571 800.0891 5592.5244 760.2815 5543.4397 685.4527 5384.2729 818.4752 5227.4252 Z" fill="none" stroke="#12852D" opacity="0.6" stroke-width="1" class="annadale"/>
<path d="M 682.4017 5083.892 746.2161 5175.5188 813.8342 5228.3398 867.5993 5252.4792 837.709 5350.3938 787.5311 5383.5672 693.7013 5431.4352 565.5042 5088.248 631.4422 5056.0565 659.2037 5086.613 679.6391 5074.6452 682.4017 5083.892 Z" fill="none" stroke="#12852D" opacity="0.6" stroke-width="1" class="annadale"/>
<path d="M 586.1535 4983.8796 725.4451 4912.1219 1189.25 4881.5952 1797.4736 5078.2962 1429.4133 5576.9789 634.4711 5771.5507 248.9963 5500.6165 586.1535 4983.8796 Z" fill="none" stroke="#12852D" opacity="0.6" stroke-width="1" class="annadale"/>
<path d="M 633.859 5218.7096 759.1558 5198.6509 1009.6871 5183.4375 1186.6602 5322.3858 1102.9117 5457.2015 846.4902 5596.3178 747.2562 5558.2046 632.3566 5473.8232 633.859 5218.7096 Z" fill="none" stroke="#12852D" opacity="0.6" stroke-width="1" class="annadale"/>
<path d="M 743.4288 5177.3612 940.7792 5314.5495 1030.4552 5494.9745 778.7121 5606.3485 630.0248 5273.2311 743.4288 5177.3612 Z" fill="none" stroke="#12852D" opacity="0.6" stroke-width="1" class="annadale"/>
<path d="M 571.9787 5096.5799 563.6424 5091.016 1086.3152 5396.161 760.2952 5536.9681 571.9787 5096.5799 Z" fill="none" stroke="#12852D" opacity="0.6" stroke-width="1" class="annadale"/>
<path d="M 721.5715 5202.7294 716.5527 5163.903 742.6185 5122.3728 790.9231 5091.9793 864.607 5125.3979 876.1038 5175.3248 863.4454 5241.8421 820.2473 5268.0954 721.5715 5202.7294 Z" fill="none" stroke="#12852D" opacity="0.6" stroke-width="1" class="annadale"/>
<path d="M 975.8988 5253.7719 990.707 5273.6713 976.1399 5292.8233 958.0601 5307.5502 950.9392 5323.5773 942.9764 5331.1073 913.4551 5335.7713 894.0222 5349.792 813.1555 5379.6634 798.3161 5384.5258 766.8169 5303.881 805.363 5245.1835 830.6856 5207.044 865.1304 5117.5451 975.8988 5253.7719 Z" fill="none" stroke="#12852D" opacity="0.6" stroke-width="1" class="annadale"/>
<path d="M 636.7899 5153.0993 902.0403 5196.1703 868.2068 5412.3882 611.2321 5376.712 636.7899 5153.0993 Z" fill="none" stroke="#12852D" opacity="0.6" stroke-width="1" class="annadale"/>
<path d="M 694.1628 5220.4608 713.7774 5160.2004 761.185 5116.6366 848.1218 5134.3749 869.3553 5186.4015 801.3897 5301.0994 694.1628 5220.4608 Z" fill="none" stroke="#12852D" opacity="0.6" stroke-width="1" class="annadale"/>
<path d="M 591.3985 5123.4238 737.0236 5135.7607 676.4809 5244.6829 591.3985 5123.4238 Z" fill="none" stroke="#12852D" opacity="0.6" stroke-width="1" class="annadale"/>
<path d="M 928.2521 5553.9503 870.6653 5575.1014 752.3666 5337.2756 813.8228 5233.8852 946.62 5172.2283 981.7164 5256.398 1119.6742 5423.9515 1063.9075 5471.9235 1028.5974 5495.8956 1011.8971 5493.0913 928.2521 5553.9503 Z" fill="none" stroke="#12852D" opacity="0.6" stroke-width="1" class="annadale"/>
<path d="M 597.7232 5197.3709 749.1194 5119.1523 869.5086 5225.6803 677.1214 5375.0108 597.7232 5197.3709 Z" fill="none" stroke="#12852D" opacity="0.6" stroke-width="1" class="annadale"/>
<path d="M 434.9516 5363.3536 902.9989 5180.4611 1016.5768 5471.8372 470.7205 5537.2353 434.9516 5363.3536 Z" fill="none" stroke="#12852D" opacity="0.6" stroke-width="1" class="annadale"/>
<path d="M 518.6379 5291.4589 624.4681 5268.5972 673.3626 5396.2632 569.3175 5444.0969 518.6379 5291.4589 Z" fill="none" stroke="#12852D" opacity="0.6" stroke-width="1" class="annadale"/>
<path d="M 922.6134 5113.0371 999.6195 5109.4874 953.01 5226.768 896.4444 5210.9464 922.6134 5113.0371 Z" fill="none" stroke="#12852D" opacity="0.6" stroke-width="1" class="annadale"/>
<path d="M 838.0752 5398.4615 829.7035 5408.1505 708.9553 5458.2769 705.7243 5450.4122 831.5906 5392.902 806.2424 5310.1213 811.8184 5305.9735 855.6733 5415.1362 884.4605 5405.4877 936.0156 5378.7816 990.2026 5431.5751 1042.6816 5406.2509 1040.8088 5415.4915 1037.5229 5436.2848 1018.9335 5451.966 973.8959 5466.673 901.0387 5469.3057 851.9136 5438.7012 838.0752 5398.4615 Z" fill="none" stroke="#12852D" opacity="0.6" stroke-width="1" class="annadale"/>
<path d="M 716.9346 5416.2329 684.2204 5206.1138 780.7613 4960.9773 827.5663 4978.8607 853.5112 4992.3113 907.9506 5021.0639 939.3218 5107.9868 864.3537 5251.5484 817.7898 5335.1016 898.9536 5350.0544 878.922 5390.6865 844.5617 5403.0966 805.1232 5402.5536 784.7133 5399.738 716.9346 5416.2329 Z" fill="none" stroke="#12852D" opacity="0.6" stroke-width="1" class="annadale"/>
<path d="M 717.0395 5153.2763 813.8456 5222.7945 860.6358 5254.7758 940.3135 5315.4729 1017.5116 5468.1412 877.7628 5506.7008 815.5648 5514.433 754.2516 5542.0402 695.0974 5429.5894 671.5536 5374.9986 632.8105 5272.3131 615.7605 5221.4413 679.8352 5196.169 717.0395 5153.2763 Z" fill="none" stroke="#12852D" opacity="0.6" stroke-width="1" class="annadale"/>
<path d="M 587.6 5363.2547 589.1109 5311.4958 460.8279 5597.7695 583.8914 5361.8597 591.4359 5309.1904 626.6948 5309.7328 924.0186 5344.5574 736.4123 5637.6954 464.0754 5598.2397 587.6 5363.2547 Z" fill="none" stroke="#12852D" opacity="0.6" stroke-width="1" class="annadale"/>
<path d="M 674.7253 5199.3924 900.1738 5201.7118 879.4587 5354.1753 662.2412 5389.7679 674.7253 5199.3924 Z" fill="none" stroke="#12852D" opacity="0.6" stroke-width="1" class="annadale"/>
<path d="M 385.2398 5205.1784 627.8416 5058.705 908.8791 5020.6037 1092.5314 5029.2623 1157.1273 5228.0609 1220.94 5354.7938 923.6043 5557.6394 506.7584 5603.8899 385.2398 5205.1784 Z" fill="none" stroke="#12852D" opacity="0.6" stroke-width="1" class="annadale"/>
<path d="M 828.6792 5228.3703 961.4078 5201.8304 1092.8061 5398.9456 1117.8045 5431.8057 913.8588 5557.6204 780.273 5304.5214 823.5895 5221.8904 828.6792 5228.3703 Z" fill="none" stroke="#12852D" opacity="0.6" stroke-width="1" class="annadale"/>
<path d="M 519.5373 5303.4768 743.3933 5193.9964 1013.7943 5470.9077 643.2199 5595.8842 519.5373 5303.4768 Z" fill="none" stroke="#12852D" opacity="0.6" stroke-width="1" class="annadale"/>
<path d="M 386.1653 5206.1049 435.4975 5141.5356 522.8442 5082.6034 602.7295 5036.5863 700.8242 5143.9996 920.3906 5301.5698 944.4784 5321.0267 803.295 5389.1462 609.1321 5483.9398 583.0696 5517.1616 427.0693 5549.1475 416.09 5485.3295 366.9235 5476.8861 342.0434 5407.4904 352.6187 5263.3223 386.1653 5206.1049 Z" fill="none" stroke="#12852D" opacity="0.6" stroke-width="1" class="annadale"/>
<path d="M 623.1534 5439.598 784.9134 5304.069 943.4846 5355.225 939.5198 5486.4833 708.1861 5598.8013 623.1534 5439.598 Z" fill="none" stroke="#12852D" opacity="0.6" stroke-width="1" class="annadale"/>
<path d="M 654.7549 5001.591 1022.0442 5022.6669 1164.6592 5163.3805 1081.6572 5406.321 818.6601 5588.8644 535.8519 5468.0542 389.684 5282.8256 568.2379 5109.5086 654.7549 5001.591 Z" fill="none" stroke="#12852D" opacity="0.6" stroke-width="1" class="annadale"/>
<path d="M 593.9867 5208.4527 430.4783 5295.867 422.9089 5355.0047 434.0191 5365.2 698.7045 5265.0651 698.4826 5366.7385 639.0253 5397.1111 646.5691 5343.5151 651.1592 5365.7096 667.8561 5368.5198 682.7786 5334.3521 636.391 5330.5517 628.8279 5392.4662 539.7184 5402.4292 556.5515 5347.0068 429.3634 5371.659 416.3904 5364.232 427.7037 5292.163 587.507 5201.9684 586.6558 5168.6959 582.0575 5151.1264 576.5445 5128.0102 537.5804 5127.9193 572.8528 5119.6846 558.0138 5117.8019 558.976 5103.0184 573.8105 5106.7492 575.7022 5091.0439 619.3535 5068.966 697.2183 5095.9377 687.9252 5103.3101 695.9351 5258.5893 662.5019 5272.3795 652.6543 5111.549 685.1584 5095.9112 614.6984 5076.348 583.1066 5098.4538 645.2224 5116.1529 654.1471 5274.2095 610.6491 5225.1266 459.2223 5304.2561 458.2336 5329.2101 613.3927 5242.6932 642.0766 5277.8796 429.393 5359.6424 438.8178 5300.509 593.9867 5208.4527 Z" fill="none" stroke="#12852D" opacity="0.6" stroke-width="1" class="annadale"/>
<path d="M 1054.1105 5193.8428 906.7713 5286.2943 703.2481 5415.9703 638.9354 5271.0034 727.6567 5168.3464 804.3694 4968.1882 1008.4543 5016.8205 1054.1105 5193.8428 Z" fill="none" stroke="#12852D" opacity="0.6" stroke-width="1" class="annadale"/>
<path d="M 652.3347 5254.796 662.543 5253.8945 848.1147 5252.4399 943.0738 5568.7716 593.0794 5604.0918 513.7941 5377.4097 652.3347 5254.796 Z" fill="none" stroke="#12852D" opacity="0.6" stroke-width="1" class="annadale"/>
<path d="M 493.0677 5120.4206 494.4659 5117.6516 710.7449 5061.3142 711.4671 5156.0367 665.2424 5291.7954 490.7006 5333.4481 410.7092 5223.2641 493.0677 5120.4206 Z" fill="none" stroke="#12852D" opacity="0.6" stroke-width="1" class="annadale"/>
<path d="M 717.5054 5152.3532 1066.0224 5327.7229 746.9391 5707.0668 370.166 5295.7164 717.5054 5152.3532 Z" fill="none" stroke="#12852D" opacity="0.6" stroke-width="1" class="annadale"/>
<path d="M 906.0438 5283.5182 928.7506 5296.9646 939.3882 5314.0846 951.3943 5343.6859 995.3361 5415.8698 1033.7086 5492.207 1022.0906 5501.4305 974.7086 5527.6903 942.6444 5550.7422 924.0638 5559.9517 902.7257 5555.2872 878.085 5577.8899 847.8553 5609.7271 830.2868 5576.8689 822.0235 5532.9364 816.955 5515.3603 779.4999 5451.9564 751.7591 5404.7526 729.5928 5355.7136 682.0744 5232.6802 736.0146 5173.6487 816.0438 5056.4546 800.456 4968.6411 844.0251 4981.6662 906.1108 5013.2061 858.6504 5088.8838 874.2511 5173.9349 871.3661 5224.7598 852.7501 5254.2978 906.0438 5283.5182 Z" fill="none" stroke="#12852D" opacity="0.6" stroke-width="1" class="annadale"/>
<path d="M 529.7484 5301.6524 549.0913 5362.7032 204.8183 5363.6836 430.8793 5133.207 955.0882 5110.3274 1082.5737 5412.7934 631.1744 5586.6114 529.7484 5301.6524 Z" fill="none" stroke="#12852D" opacity="0.6" stroke-width="1" class="annadale"/>
<path d="M 710.7647 5159.0387 716.5567 5162.0547 821.0931 5195.0834 724.3124 5330.052 631.8821 5272.5421 710.7647 5159.0387 Z" fill="none" stroke="#12852D" opacity="0.6" stroke-width="1" class="annadale"/>
<path d="M 787.9982 5159.8962 871.4253 5195.1854 852.6941 5282.0255 785.6983 5372.471 691.1035 5346.3867 624.4514 5275.9913 557.7574 5227.7774 583.9619 5129.8756 663.8072 5102.3328 739.8582 5111.7396 787.9982 5159.8962 Z" fill="none" stroke="#12852D" opacity="0.6" stroke-width="1" class="annadale"/>
<path d="M 973.5682 4170.085 913.6327 4487.6021 883.7014 4620.537 973.5682 4170.085 Z" fill="none" stroke="#12852D" opacity="0.6" stroke-width="1" class="annadale"/>
<path d="M 1056.1641 5134.5423 1151.3273 5364.8455 672.2017 5501.6463 529.196 5142.6857 842.9605 5049.1172 1065.4911 5106.8356 1056.1641 5134.5423 Z" fill="none" stroke="#12852D" opacity="0.6" stroke-width="1" class="annadale"/>
<path d="M 563.09 5328.5354 925.2366 5195.2915 1104.9299 5364.7653 913.5339 5486.4328 1061.8901 5561.5964 941.1249 5616.8457 916.1593 5567.7949 847.4521 5579.6775 832.5015 5628.6502 765.6414 5642.3806 683.1172 5602.4448 671.106 5577.4549 724.1305 5522.0986 717.6638 5508.2172 709.323 5502.6521 664.8324 5476.6692 625.808 5496.9203 541.3291 5506.895 537.6624 5487.4722 535.8476 5469.9031 542.3917 5449.5807 535.9259 5436.6234 529.4364 5433.8349 492.3401 5423.578 483.9881 5423.5579 448.7238 5423.4723 438.5816 5396.6398 428.4149 5379.976 410.848 5354.0504 412.7613 5330.9468 435.0494 5323.6074 450.8126 5328.2676 480.5571 5307.0807 485.2121 5300.6219 491.7317 5290.4704 505.6697 5282.1852 514.9352 5287.753 522.3363 5297.0134 513.9326 5319.1766 512.9585 5338.5851 510.1571 5345.9731 510.1351 5355.2164 510.1241 5359.8381 517.5411 5362.6288 536.0935 5365.4458 544.4429 5366.3897 554.6503 5366.4136 558.3729 5361.8005 563.0277 5355.3409 562.1169 5347.9441 563.0621 5340.5516 563.0793 5333.157 563.09 5328.5354 Z" fill="none" stroke="#12852D" opacity="0.6" stroke-width="1" class="annadale"/>
<path d="M 1137.3055 5424.4441 1049.5428 5460.8041 1025.8666 5466.7699 1064.3674 5474.2354 788.4571 5606.8312 690.9152 5432.3535 816.8486 5228.8082 1066.9228 5472.3911 1137.3055 5424.4441 Z" fill="none" stroke="#12852D" opacity="0.6" stroke-width="1" class="annadale"/>
<path d="M 787.4011 5223.6639 835.4327 5215.214 848.3261 5262.6071 749.2847 5259.3976 787.4011 5223.6639 Z" fill="none" stroke="#12852D" opacity="0.6" stroke-width="1" class="annadale"/>
<path d="M 840.443 5603.2399 681.8394 5234.066 820.2073 5061.7765 805.7981 4964.4943 906.1058 5015.7472 929.4869 5156.4846 941.7013 5317.5552 1035.558 5495.9083 847.4081 5601.4049 840.443 5603.2399 Z" fill="none" stroke="#12852D" opacity="0.6" stroke-width="1" class="annadale"/>
<path d="M 654.7549 5001.591 788.4324 4951.9847 930.2159 5019.7213 987.2488 5274.8936 696.4611 5442.5343 565.4849 5096.5648 565.5235 5079.9313 654.7549 5001.591 Z" fill="none" stroke="#12852D" opacity="0.6" stroke-width="1" class="annadale"/>
<path d="M 779.034 5452.8799 805.0065 5458.9429 808.7129 5461.7239 796.6609 5455.69 799.4392 5458.4691 779.034 5452.8799 Z" fill="none" stroke="#12852D" opacity="0.6" stroke-width="1" class="annadale"/>
<path d="M 635.5836 5276.9407 737.8128 5200.4538 778.585 5224.5696 698.5391 5340.857 635.5836 5276.9407 Z" fill="none" stroke="#12852D" opacity="0.6" stroke-width="1" class="annadale"/>
<path d="M 1108.5082 5441.0337 1073.4085 5478.4117 1042.5126 5499.1567 1015.5898 5503.7297 926.3797 5562.2675 910.6049 5560.3877 855.5558 5473.3752 814.3888 5409.5057 787.1183 5359.0708 765.8898 5304.9533 814.4136 5228.5721 838.7397 5185.8776 874.9127 5191.0335 931.749 5186.0623 949.2176 5269.0447 970.2672 5300.2792 1012.5947 5366.9098 1033.4356 5387.7463 1080.2323 5424.8065 1102.9433 5439.1751 1108.5082 5441.0337 Z" fill="none" stroke="#12852D" opacity="0.6" stroke-width="1" class="annadale"/>
<path d="M 941.2307 5321.0205 968.0417 5372.8346 966.88 5373.7567 975.2017 5389.6024 979.943 5397.353 997.7451 5430.3182 1037.4158 5494.9872 951.4953 5533.1932 789.8754 5594.3523 693.6932 5435.1328 678.9345 5394.4267 822.1712 5234.8266 881.9376 5274.2278 917.6133 5298.3293 941.2307 5321.0205 Z" fill="none" stroke="#12852D" opacity="0.6" stroke-width="1" class="annadale"/>
<path d="M 1067.1553 5472.1604 839.7398 5606.7057 816.2561 5516.7457 726.108 5358.017 767.9848 5301.4916 839.6591 5190.0383 806.9466 5081.8477 857.298 5069.4755 866.7078 5118.7023 962.3295 5326.8379 995.4009 5381.2054 1067.1553 5472.1604 Z" fill="none" stroke="#12852D" opacity="0.6" stroke-width="1" class="annadale"/>
<path d="M 832.5978 5581.4964 692.8319 5404.6255 875.1622 5182.2543 1083.505 5410.9463 832.5978 5581.4964 Z" fill="none" stroke="#12852D" opacity="0.6" stroke-width="1" class="annadale"/></svg>