<?xml version="1.0"?><svg xmlns="http://www.w3.org/2000/svg" version="1.2" baseProfile="tiny" width="6000" height="5918" viewBox="0 0 6000 5918" stroke-linecap="round" stroke-linejoin="round"><path d="M 924.6754 5006.7743 682.6586 5388.8886 630.0165 5276.9282 563.6295 5096.5605 793.0663 4953.8423 924.6754 5006.7743 Z" fill="none" stroke="#A9159C" opacity="0.6" stroke-width="1" class="arden_heights"/>
<path d="M 825.3127 5060.1698 745.3021 5169.0477 726.6833 5198.5815 661.611 5255.7409 626.3113 5274.147 569.2063 5091.953 597.0346 5092.9412 633.3058 5052.3644 675.1558 5004.4083 699.2814 5000.7652 724.3642 4983.2637 746.6181 4987.0074 756.7077 5040.6217 822.5828 5034.2909 825.3127 5060.1698 Z" fill="none" stroke="#A9159C" opacity="0.6" stroke-width="1" class="arden_heights"/>
<path d="M 630.9443 5276.9303 565.4849 5096.5648 752.2229 4968.5398 790.2798 4955.6844 903.3352 5009.5046 812.9064 5228.3379 737.8583 5179.1977 630.9443 5276.9303 Z" fill="none" stroke="#A9159C" opacity="0.6" stroke-width="1" class="arden_heights"/>
<path d="M 610.9583 5089.2767 612.8599 5068.9513 651.9144 5027.4571 692.7963 4997.055 712.2656 5001.7175 811.3903 5063.8374 738.8137 5166.2614 660.9091 5154.0774 610.9583 5089.2767 Z" fill="none" stroke="#A9159C" opacity="0.6" stroke-width="1" class="arden_heights"/>
<path d="M 731.5664 5084.923 738.2006 5019.3296 817.9333 5039.8256 740.8096 5100.6524 731.5664 5084.923 Z" fill="none" stroke="#A9159C" opacity="0.6" stroke-width="1" class="arden_heights"/>
<path d="M 580.3236 5098.4474 670.5199 5003.474 815.2018 5014.8712 717.0756 5351.0649 580.3236 5098.4474 Z" fill="none" stroke="#A9159C" opacity="0.6" stroke-width="1" class="arden_heights"/>
<path d="M 625.8847 5052.3477 675.166 4999.7883 701.1345 5001.6932 714.1609 4983.2417 755.9253 4972.2435 792.133 4956.6122 928.3535 5023.4138 961.3884 5211.9966 967.869 5219.4026 977.0633 5263.7833 992.8142 5275.8283 938.9091 5321.9403 934.3018 5305.294 715.6279 5162.5148 625.8847 5052.3477 Z" fill="none" stroke="#A9159C" opacity="0.6" stroke-width="1" class="arden_heights"/>
<path d="M 779.695 5137.6994 1269.4265 5206.9882 884.0984 5354.1845 779.695 5137.6994 Z" fill="none" stroke="#A9159C" opacity="0.6" stroke-width="1" class="arden_heights"/>
<path d="M 563.623 5099.3328 731.8285 4962.9523 814.3903 4958.5063 878.1132 5098.1637 834.2461 5228.3817 654.1079 5291.7706 541.8088 5302.6051 501.4326 5113.9718 563.623 5099.3328 Z" fill="none" stroke="#A9159C" opacity="0.6" stroke-width="1" class="arden_heights"/>
<path d="M 571.0839 5096.3643 801.1087 4967.4496 822.2339 5069.1353 623.2509 5273.8711 571.0839 5096.3643 Z" fill="none" stroke="#A9159C" opacity="0.6" stroke-width="1" class="arden_heights"/>
<path d="M 842.2244 4954.8674 908.8918 5014.1356 771.0068 5298.4941 674.3191 5383.324 560.8723 5085.465 701.2534 4947.1789 842.2244 4954.8674 Z" fill="none" stroke="#A9159C" opacity="0.6" stroke-width="1" class="arden_heights"/>
<path d="M 732.504 5080.3046 624.0336 5050.4954 729.9316 4982.3517 815.1333 5048.1362 739.7356 5169.0358 624.0168 5057.8878 732.504 5080.3046 Z" fill="none" stroke="#A9159C" opacity="0.6" stroke-width="1" class="arden_heights"/>
<path d="M 643.5119 5051.4633 832.0408 5172.4634 804.7017 5213.9956 799.3558 5219.2988 798.4232 5221.6074 779.7825 5261.8882 806.4222 5223.2413 798.4206 5222.8781 710.568 5356.5969 555.4294 5430.1982 447.5557 5142.4893 643.5119 5051.4633 Z" fill="none" stroke="#A9159C" opacity="0.6" stroke-width="1" class="arden_heights"/>
<path d="M 630.031 5270.4583 586.6983 5150.2129 570.1297 5093.8033 594.2516 5092.9348 624.0273 5053.2675 678.8784 4998.8724 784.7049 4960.2926 795.3729 4959.7374 803.3673 4962.5259 805.1024 4964.4929 818.3572 5059.2315 765.7996 5127.9668 736.9365 5176.4232 719.258 5199.9518 680.6796 5234.0635 630.031 5270.4583 Z" fill="none" stroke="#A9159C" opacity="0.6" stroke-width="1" class="arden_heights"/>
<path d="M 714.1569 4985.0896 1086.2069 4934.0809 1184.8815 5276.1683 825.5304 5406.7554 443.0697 5458.5867 240.9232 5047.7032 667.8599 4948.0294 714.1569 4985.0896 Z" fill="none" stroke="#A9159C" opacity="0.6" stroke-width="1" class="arden_heights"/>
<path d="M 847.3146 5163.9372 907.1229 5180.2294 868.0539 5231.445 844.8884 5216.6108 847.3146 5163.9372 Z" fill="none" stroke="#A9159C" opacity="0.6" stroke-width="1" class="arden_heights"/>
<path d="M 519.557 5295.1582 460.6159 5112.9492 525.6031 5092.7749 581.264 5092.905 660.3061 5008.0714 801.3816 4969.567 806.029 4964.9568 816.04 5058.3027 746.2338 5167.2014 629.122 5262.1379 519.557 5295.1582 Z" fill="none" stroke="#A9159C" opacity="0.6" stroke-width="1" class="arden_heights"/>
<path d="M 842.2244 4954.8674 689.8723 5225.6585 632.4281 5030.1855 842.2244 4954.8674 Z" fill="none" stroke="#A9159C" opacity="0.6" stroke-width="1" class="arden_heights"/>
<path d="M 486.0421 4955.9247 777.2612 4971.3646 671.2553 5090.336 486.0421 4955.9247 Z" fill="none" stroke="#A9159C" opacity="0.6" stroke-width="1" class="arden_heights"/>
<path d="M 464.2462 5114.8035 522.0145 4863.9481 773.7024 4778.6293 907.5014 5018.3298 540.0481 5347.4137 464.2462 5114.8035 Z" fill="none" stroke="#A9159C" opacity="0.6" stroke-width="1" class="arden_heights"/>
<path d="M 740.6495 5175.507 631.8743 5276.0081 569.2042 5092.8771 582.1811 5097.5276 592.3984 5092.0065 628.6697 5051.4299 677.9508 4998.8704 702.0601 5002.6193 713.2253 4986.9356 764.2753 4971.3372 780.9966 4959.3608 805.111 4960.3351 819.7543 5056.4622 740.6495 5175.507 Z" fill="none" stroke="#A9159C" opacity="0.6" stroke-width="1" class="arden_heights"/>
<path d="M 373.1318 5223.6321 450.5174 5069.4923 809.806 4932.6263 965.4721 5016.0929 1085.2941 4925.7639 1155.8657 4878.7674 1269.8367 4947.3241 1378.1855 5065.7617 1155.0878 5336.1974 445.2089 5343.0432 373.1318 5223.6321 Z" fill="none" stroke="#A9159C" opacity="0.6" stroke-width="1" class="arden_heights"/>
<path d="M 775.4216 4963.969 842.8686 5094.3965 561.3159 5293.4078 494.0464 5099.1684 775.4216 4963.969 Z" fill="none" stroke="#A9159C" opacity="0.6" stroke-width="1" class="arden_heights"/>
<path d="M 851.3952 5006.629 969.9787 5085.4052 859.3566 5198.8579 719.4547 5108.9234 851.3952 5006.629 Z" fill="none" stroke="#A9159C" opacity="0.6" stroke-width="1" class="arden_heights"/>
<path d="M 611.0235 5060.6305 675.1742 4996.0923 797.6925 4959.3957 904.2465 5017.8225 811.9919 5221.8665 677.1051 5382.4058 570.134 5091.9551 611.0235 5060.6305 Z" fill="none" stroke="#A9159C" opacity="0.6" stroke-width="1" class="arden_heights"/>
<path d="M 629.5911 5054.2042 805.0995 4965.8788 817.88 5065.6989 737.8603 5178.2735 629.5911 5054.2042 Z" fill="none" stroke="#A9159C" opacity="0.6" stroke-width="1" class="arden_heights"/>
<path d="M 949.9013 4912.579 967.6081 4868.2659 1180.994 4827.0738 1299.3706 5042.5417 933.6063 5185.1417 868.9233 5054.7139 949.9013 4912.579 Z" fill="none" stroke="#A9159C" opacity="0.6" stroke-width="1" class="arden_heights"/>
<path d="M 663.1709 4971.1181 825.5664 4936.3545 949.1161 5321.96 661.3297 5382.3708 590.7956 4982.0423 663.1709 4971.1181 Z" fill="none" stroke="#A9159C" opacity="0.6" stroke-width="1" class="arden_heights"/>
<path d="M 927.3434 5065.9178 939.4421 5045.612 1145.1843 5158.7266 904.5457 5337.5869 703.0096 5418.5137 724.4493 5374.1897 787.755 5276.3465 899.5064 5069.5596 932.0389 5036.3573 927.3434 5065.9178 Z" fill="none" stroke="#A9159C" opacity="0.6" stroke-width="1" class="arden_heights"/>
<path d="M 462.4623 5116.6501 561.8279 5073.4542 664.117 4962.8045 802.3494 4950.1658 914.4592 5013.2225 810.1325 5223.7111 670.6155 5379.6183 572.1337 5430.237 462.4623 5116.6501 Z" fill="none" stroke="#A9159C" opacity="0.6" stroke-width="1" class="arden_heights"/>
<path d="M 632.3907 5046.8181 794.9156 4956.618 816.0266 5064.7711 733.2353 5171.7944 632.3907 5046.8181 Z" fill="none" stroke="#A9159C" opacity="0.6" stroke-width="1" class="arden_heights"/>
<path d="M 567.3553 5090.1005 649.2286 4984.0227 797.7002 4955.6999 915.394 5009.5283 894.0117 5033.5108 820.3726 5207.0964 721.7192 5349.2263 674.2987 5392.5677 567.3553 5090.1005 Z" fill="none" stroke="#A9159C" opacity="0.6" stroke-width="1" class="arden_heights"/>
<path d="M 678.8764 4999.7964 907.0456 5009.5119 818.5626 5184.9121 632.825 5265.8433 570.1297 5093.8033 639.8284 5039.4425 649.084 5048.7036 645.4086 5032.9867 678.8764 4999.7964 Z" fill="none" stroke="#A9159C" opacity="0.6" stroke-width="1" class="arden_heights"/>
<path d="M 738.2729 4985.6036 1227.2255 4913.0703 1305.3218 5093.3744 514.9594 5277.586 738.2729 4985.6036 Z" fill="none" stroke="#A9159C" opacity="0.6" stroke-width="1" class="arden_heights"/>
<path d="M 927.8478 5284.0229 872.2403 5251.5642 878.8825 5177.6408 871.5676 5124.0257 899.5046 5070.4837 923.6759 5043.7334 946.7887 5084.4368 953.1815 5137.1232 977.1767 5203.7087 977.1052 5241.6015 980.7694 5266.563 980.7276 5288.7454 954.7154 5305.3332 937.9937 5315.4684 927.8478 5284.0229 Z" fill="none" stroke="#A9159C" opacity="0.6" stroke-width="1" class="arden_heights"/>
<path d="M 700.9189 5100.5662 717.6433 5088.5893 712.9468 5115.3781 700.8726 5121.8206 691.6339 5104.2423 700.9189 5100.5662 Z" fill="none" stroke="#A9159C" opacity="0.6" stroke-width="1" class="arden_heights"/>
<path d="M 563.6811 5074.3826 804.1949 4954.7894 815.099 5064.7692 630.0102 5279.701 563.6811 5074.3826 Z" fill="none" stroke="#A9159C" opacity="0.6" stroke-width="1" class="arden_heights"/>
<path d="M 627.7379 5053.2759 674.2364 5000.7102 693.7178 4999.829 741.0665 4980.5277 781.9338 4954.743 835.6788 4980.7253 932.0729 5018.8009 978.0033 5257.3153 920.4122 5290.4784 847.0745 5307.8942 764.4296 5337.3012 668.7534 5382.3873 627.2329 5276.9219 547.8762 5089.131 581.2662 5091.9809 627.7379 5053.2759 Z" fill="none" stroke="#A9159C" opacity="0.6" stroke-width="1" class="arden_heights"/>
<path d="M 955.253 4902.8882 946.5592 4962.4653 797.2686 4940.2228 840.4858 4897.5803 955.253 4902.8882 Z" fill="none" stroke="#A9159C" opacity="0.6" stroke-width="1" class="arden_heights"/>
<path d="M 649.0675 5056.096 856.3907 5289.4272 493.8724 5558.5554 434.7082 5462.264 392.6065 5227.378 649.0675 5056.096 Z" fill="none" stroke="#A9159C" opacity="0.6" stroke-width="1" class="arden_heights"/>
<path d="M 750.9847 5114.5357 756.5489 5115.4716 753.7197 5137.1825 715.5269 5209.1857 640.3287 5229.8148 571.9444 5111.3654 611.0256 5059.7064 645.3714 5049.6194 813.2208 5075.8541 750.9847 5114.5357 Z" fill="none" stroke="#A9159C" opacity="0.6" stroke-width="1" class="arden_heights"/>
<path d="M 661.5658 5276.0745 410.6648 5054.609 632.8695 4834.312 962.1314 4822.0629 1144.2772 5146.7111 661.5658 5276.0745 Z" fill="none" stroke="#A9159C" opacity="0.6" stroke-width="1" class="arden_heights"/>
<path d="M 706.907 4906.5383 898.71 5003.0275 840.8855 5157.2328 681.7327 5387.9622 359.4873 5481.4896 319.0442 5329.785 430.8862 5130.4346 564.598 5079.0051 706.907 4906.5383 Z" fill="none" stroke="#A9159C" opacity="0.6" stroke-width="1" class="arden_heights"/>
<path d="M 476.3734 5118.5321 634.196 5068.9995 882.4116 5269.1453 588.6615 5507.005 476.3734 5118.5321 Z" fill="none" stroke="#A9159C" opacity="0.6" stroke-width="1" class="arden_heights"/>
<path d="M 931.14 5021.5711 990.0306 5275.8231 610.9819 5486.7174 347.2125 5563.7396 168.9279 5592.8537 197.6153 5282.3243 472.779 5070.4705 784.7087 4958.4447 931.14 5021.5711 Z" fill="none" stroke="#A9159C" opacity="0.6" stroke-width="1" class="arden_heights"/>
<path d="M 628.6043 5266.2123 564.6044 5076.2329 585.979 5059.6491 559.9726 5073.4499 511.7011 5087.1974 455.07 5104.6187 518.6248 5297.0046 604.1836 5025.3084 629.529 5051.6908 737.2116 5177.6088 715.2819 5209.1981 679.5099 5232.6875 667.2452 5244.2974 657.4783 5255.3667 643.0709 5266.8877 628.6043 5266.2123 Z" fill="none" stroke="#A9159C" opacity="0.6" stroke-width="1" class="arden_heights"/>
<path d="M 644.3112 5108.758 636.0098 5087.4852 671.47 4993.3121 772.6389 4963.9631 807.7637 5023.1721 799.2521 5101.6996 709.1136 5171.7423 644.3112 5108.758 Z" fill="none" stroke="#A9159C" opacity="0.6" stroke-width="1" class="arden_heights"/>
<path d="M 800.2009 5091.5366 858.669 5079.643 864.1867 5103.6805 870.4956 5196.1077 815.7564 5195.9966 800.2009 5091.5366 Z" fill="none" stroke="#A9159C" opacity="0.6" stroke-width="1" class="arden_heights"/>
<path d="M 678.8764 4999.7964 695.575 4998.9091 711.3521 4995.2475 728.0705 4985.1197 749.4146 4980.5455 773.5587 4967.6609 793.9765 4962.1599 786.4151 5029.5959 792.0906 4976.9395 786.4537 5011.1155 771.4973 5065.6024 756.6175 5083.1283 731.493 5119.1146 738.0146 5106.191 720.3166 5139.4213 706.3625 5156.9498 684.9695 5181.8555 665.4495 5198.4477 646.0053 5180.8449 640.4781 5163.2733 633.0914 5147.5461 610.8679 5129.0131 597.9264 5108.653 598.9069 5085.5528 608.211 5073.561 623.0892 5057.8857 637.0309 5045.9045 647.2515 5038.5351 658.4159 5023.7755 670.5117 5007.17 678.8764 4999.7964 Z" fill="none" stroke="#A9159C" opacity="0.6" stroke-width="1" class="arden_heights"/>
<path d="M 608.7633 5034.752 673.3966 4960.9771 738.2778 4983.2936 747.4314 5040.602 815.139 5045.3641 803.6321 5226.4703 651.5129 5155.3271 608.7633 5034.752 Z" fill="none" stroke="#A9159C" opacity="0.6" stroke-width="1" class="arden_heights"/>
<path d="M 860.5187 5082.419 852.2276 5053.7562 879.0703 5083.3802 854.0064 5091.6467 860.5187 5082.419 Z" fill="none" stroke="#A9159C" opacity="0.6" stroke-width="1" class="arden_heights"/>
<path d="M 809.7793 4945.5614 1035.2706 4891.4891 1148.8906 5161.5054 962.1561 5296.1045 567.7231 5331.3191 496.4176 5271.0719 574.751 5101.2068 645.4645 5008.0383 792.1445 4951.0685 809.7793 4945.5614 Z" fill="none" stroke="#A9159C" opacity="0.6" stroke-width="1" class="arden_heights"/>
<path d="M 950.9772 5319.1906 804.5407 5235.7144 895.8469 5043.6788 927.4223 5025.26 956.7918 5189.8072 971.6047 5206.4708 975.246 5243.4464 995.5995 5274.9092 950.9772 5319.1906 Z" fill="none" stroke="#A9159C" opacity="0.6" stroke-width="1" class="arden_heights"/>
<path d="M 800.4656 4964.0213 1000.6919 5031.8676 924.1219 5291.4099 736.0206 5170.8762 800.4656 4964.0213 Z" fill="none" stroke="#A9159C" opacity="0.6" stroke-width="1" class="arden_heights"/>
<path d="M 563.6488 5088.2437 788.4633 4937.2016 910.7415 5016.9113 730.0726 5348.3199 675.2247 5393.4941 563.6488 5088.2437 Z" fill="none" stroke="#A9159C" opacity="0.6" stroke-width="1" class="arden_heights"/>
<path d="M 1184.4815 4960.1207 1132.486 4990.5236 796.8092 4938.143 815.6776 4783.8964 1184.4815 4960.1207 Z" fill="none" stroke="#A9159C" opacity="0.6" stroke-width="1" class="arden_heights"/>
<path d="M 841.8019 5162.7796 907.9623 5015.0578 992.3277 5040.1683 1085.181 4989.5169 1144.2218 5179.0565 810.7131 5391.9347 701.1234 5432.3758 669.6589 5392.5575 809.197 5227.406 841.8019 5162.7796 Z" fill="none" stroke="#A9159C" opacity="0.6" stroke-width="1" class="arden_heights"/>
<path d="M 864.4094 4992.7952 983.9843 5037.3805 1015.1205 5255.5361 891.5256 5352.3505 803.6014 5241.2579 857.9182 4991.8582 864.4094 4992.7952 Z" fill="none" stroke="#A9159C" opacity="0.6" stroke-width="1" class="arden_heights"/>
<path d="M 825.3127 5060.1698 816.2302 4965.9018 937.619 5028.9758 999.3161 5272.1434 945.4098 5319.1799 822.1788 5231.1297 752.7163 5172.7602 825.3127 5060.1698 Z" fill="none" stroke="#A9159C" opacity="0.6" stroke-width="1" class="arden_heights"/>
<path d="M 735.4921 4984.6736 741.8805 5033.6599 747.846 5063.7042 753.807 5096.0596 745.8882 5111.7525 728.24 5121.8799 714.2643 5149.5737 698.4504 5168.9466 682.1628 5192.4774 666.3752 5199.374 645.4793 5208.5694 621.8038 5215.9098 613.462 5212.194 600.5394 5183.0525 589.4698 5155.3021 582.5735 5128.4862 571.5052 5100.7372 598.4315 5090.6342 634.2428 5048.2083 657.0327 5020.0763 666.3785 4988.6809 735.4921 4984.6736 Z" fill="none" stroke="#A9159C" opacity="0.6" stroke-width="1" class="arden_heights"/>
<path d="M 1028.2442 5182.5475 1039.3842 5178.8712 1056.094 5173.3565 1185.7616 5304.8225 1193.9255 5417.6067 903.6087 5342.2067 1028.2442 5182.5475 Z" fill="none" stroke="#A9159C" opacity="0.6" stroke-width="1" class="arden_heights"/>
<path d="M 1007.7687 4717.762 1460.6359 4809.948 1190.8768 5018.8047 789.5818 4845.7383 1008.7089 4710.8358 1007.7687 4717.762 Z" fill="none" stroke="#A9159C" opacity="0.6" stroke-width="1" class="arden_heights"/>
<path d="M 804.1796 4962.1811 819.7449 5061.0825 732.2957 5177.3374 625.0009 5032.9408 688.2151 4971.1734 783.7889 4954.7469 804.1796 4962.1811 Z" fill="none" stroke="#A9159C" opacity="0.6" stroke-width="1" class="arden_heights"/>
<path d="M 740.6495 5175.507 630.029 5271.3826 568.2658 5097.4954 682.5867 4999.8046 748.5047 4972.2277 806.9527 4966.8066 819.7506 5058.3103 740.6495 5175.507 Z" fill="none" stroke="#A9159C" opacity="0.6" stroke-width="1" class="arden_heights"/>
<path d="M 592.3835 5098.4751 572.9577 5074.4041 657.5891 4978.4975 676.0916 5000.7143 699.2693 5006.3092 779.8675 5055.4553 701.7338 5152.3189 657.0747 5209.5195 592.3835 5098.4751 Z" fill="none" stroke="#A9159C" opacity="0.6" stroke-width="1" class="arden_heights"/>
<path d="M 839.3416 5026.8627 935.8495 5008.5738 1134.1011 5156.789 885.1463 5317.1433 779.4547 5274.4103 839.3416 5026.8627 Z" fill="none" stroke="#A9159C" opacity="0.6" stroke-width="1" class="arden_heights"/>
<path d="M 740.6475 5176.4311 628.653 5058.8223 567.3402 5096.5691 634.6641 5273.2416 742.4912 5181.9801 628.678 5047.7337 807.9051 4954.7971 823.4668 5055.5458 740.6475 5176.4311 Z" fill="none" stroke="#A9159C" opacity="0.6" stroke-width="1" class="arden_heights"/>
<path d="M 716.7836 5057.169 1060.5398 5280.574 773.4794 5446.3971 490.0536 5216.5265 716.7836 5057.169 Z" fill="none" stroke="#A9159C" opacity="0.6" stroke-width="1" class="arden_heights"/>
<path d="M 828.7681 5184.933 857.6258 5136.9355 895.7922 5071.4004 946.8987 5027.1457 1028.5223 5030.9951 1069.3939 4999.6527 1053.4411 5101.2693 1048.5797 5224.1735 1051.3331 5240.8145 971.4927 5265.6212 890.7147 5293.1929 852.6867 5285.7226 838.8043 5268.1333 828.7681 5184.933 Z" fill="none" stroke="#A9159C" opacity="0.6" stroke-width="1" class="arden_heights"/>
<path d="M 620.8496 5022.7671 722.2955 4867.3062 821.5225 4873.0584 844.3182 5065.753 764.8748 5126.5786 680.6826 5232.6772 611.5801 5223.7424 575.1978 5108.6006 692.7882 5000.751 620.8496 5022.7671 Z" fill="none" stroke="#A9159C" opacity="0.6" stroke-width="1" class="arden_heights"/>
<path d="M 629.5911 5054.2042 741.5654 5181.054 630.9443 5276.9303 571.0595 5092.8814 629.5911 5054.2042 Z" fill="none" stroke="#A9159C" opacity="0.6" stroke-width="1" class="arden_heights"/>
<path d="M 628.1996 5054.201 677.487 4998.8694 717.4064 4983.7107 765.2019 4971.8012 788.417 4959.3764 806.4947 4964.0338 905.6433 5015.0532 860.9668 5090.2746 877.0205 5180.8717 873.6866 5224.3023 856.9236 5255.2305 738.3241 5178.2745 628.1996 5054.201 Z" fill="none" stroke="#A9159C" opacity="0.6" stroke-width="1" class="arden_heights"/>
<path d="M 643.5119 5051.4633 702.0984 4985.0634 819.967 4952.974 912.613 5008.5988 885.5035 5113.8882 832.4207 5213.5905 798.9872 5229.2333 695.2295 5156.9255 643.5119 5051.4633 Z" fill="none" stroke="#A9159C" opacity="0.6" stroke-width="1" class="arden_heights"/>
<path d="M 677.7104 5107.9081 870.023 4968.783 887.6577 4963.2743 899.7068 4967.918 911.7506 4975.3334 914.5134 4985.5026 914.4881 4998.4384 720.3225 5136.6489 737.0097 5142.2296 749.0368 5157.9658 747.1557 5169.9758 736.9087 5189.3616 720.1868 5199.4917 703.4726 5205.9249 680.2798 5204.9499 660.8064 5200.2858 636.711 5188.2175 625.6173 5170.6331 626.5848 5153.0763 678.6523 5101.4415 677.7104 5107.9081 Z" fill="none" stroke="#A9159C" opacity="0.6" stroke-width="1" class="arden_heights"/>
<path d="M 475.5731 5065.8569 542.8286 4868.2876 822.9241 4867.98 870.7804 5053.7935 797.2161 5188.5647 557.7811 5217.6111 475.5731 5065.8569 Z" fill="none" stroke="#A9159C" opacity="0.6" stroke-width="1" class="arden_heights"/>
<path d="M 754.9997 4971.3176 755.0095 4966.6977 921.7361 5087.1606 810.0218 5277.317 577.359 5176.992 711.3641 4989.7035 721.5735 4986.9537 738.2837 4980.5217 749.4205 4977.7735 754.9997 4971.3176 Z" fill="none" stroke="#A9159C" opacity="0.6" stroke-width="1" class="arden_heights"/>
<path d="M 627.7379 5053.2759 680.7275 5001.6485 724.3443 4992.5036 804.172 4965.8769 816.0419 5057.3786 737.8642 5176.4252 627.7379 5053.2759 Z" fill="none" stroke="#A9159C" opacity="0.6" stroke-width="1" class="arden_heights"/>
<path d="M 804.1796 4962.1811 959.8836 5028.0945 1079.6023 4996.8989 1308.5516 5104.4686 1286.1282 5206.0902 1091.803 5441.4666 892.1226 5519.6723 750.0662 5546.1916 644.8871 5265.8704 817.8953 5058.3065 804.1796 4962.1811 Z" fill="none" stroke="#A9159C" opacity="0.6" stroke-width="1" class="arden_heights"/></svg>