<?xml version="1.0"?><svg xmlns="http://www.w3.org/2000/svg" version="1.2" baseProfile="tiny" width="6000" height="5918" viewBox="0 0 6000 5918" stroke-linecap="round" stroke-linejoin="round"><path d="M 4980.306 4533.4604 4981.6732 4523.4136 4984.9181 4523.406 5020.0265 4569.2702 4981.4601 4580.9062 4980.0723 4532.6528 4984.109 4524.3314 4986.5796 4540.026 4980.306 4533.4604 Z" fill="none" stroke="#E71E24" opacity="0.6" stroke-width="1" class="arverne"/>
<path d="M 3681.2042 1836.6725 3821.8671 1961.7809 3849.5823 1941.4864 3910.6792 2002.2046 3960.6362 2022.4069 3801.6733 2096.2869 3701.9999 2297.2307 3456.0016 2347.1985 3296.8615 2273.5901 3424.3563 2067.1482 3418.7417 1971.3566 3479.7236 1914.2082 3572.1835 1917.8177 3668.2613 1836.685 3681.2042 1836.6725 Z" fill="none" stroke="#E71E24" opacity="0.6" stroke-width="1" class="arverne"/>
<path d="M 5049.5056 4538.3754 5079.3547 4612.1902 5082.2064 4640.816 4916.3167 4679.0782 4907.8625 4631.0666 4878.1994 4634.8279 4874.3957 4592.3496 4846.5191 4564.7035 4846.4581 4536.9966 4881.6005 4497.2067 4915.8528 4474.9654 5002.06 4470.1481 5060.3602 4426.6055 5087.2418 4425.6164 5047.5578 4499.5916 5049.5056 4538.3754 Z" fill="none" stroke="#E71E24" opacity="0.6" stroke-width="1" class="arverne"/>
<path d="M 4890.1305 4580.0766 4892.2456 4489.7948 5015.7508 4477.0418 5019.9021 4565.6916 5053.6911 4543.9066 5052.9054 4506.505 5117.5579 4501.0363 5122.5149 4537.0419 5103.7404 4537.0885 5111.7928 4606.3376 5098.5875 4609.3721 5099.7454 4608.9074 4900.0466 4660.1796 4890.1305 4580.0766 Z" fill="none" stroke="#E71E24" opacity="0.6" stroke-width="1" class="arverne"/>
<path d="M 4668.7282 4676.8374 4911.4981 4598.7314 4920.9005 4655.9758 4688.3023 4726.6783 4668.7282 4676.8374 Z" fill="none" stroke="#E71E24" opacity="0.6" stroke-width="1" class="arverne"/>
<path d="M 4860.6085 4646.8745 4848.5503 4645.0538 4892.9541 4598.7733 5054.2798 4595.626 4888.5046 4681.9121 4860.6085 4646.8745 Z" fill="none" stroke="#E71E24" opacity="0.6" stroke-width="1" class="arverne"/>
<path d="M 4817.2836 4604.4821 4808.8416 4613.1593 4812.8869 4607.9552 4817.2836 4604.4821 Z" fill="none" stroke="#E71E24" opacity="0.6" stroke-width="1" class="arverne"/>
<path d="M 4914.3237 4618.1211 4913.3881 4614.4287 5024.5809 4583.6905 5032.1333 4640.0136 4918.146 4667.9898 4914.3237 4618.1211 Z" fill="none" stroke="#E71E24" opacity="0.6" stroke-width="1" class="arverne"/>
<path d="M 4920.6776 4659.9019 4865.6055 4496.088 5055.136 4470.4829 5091.837 4503.6396 5099.9823 4610.985 4920.6776 4659.9019 Z" fill="none" stroke="#E71E24" opacity="0.6" stroke-width="1" class="arverne"/>
<path d="M 4860.4255 4564.211 4849.8383 4493.1214 5074.7309 4427.2631 5023.7918 4544.4402 5074.3139 4541.3167 5082.6282 4623.7275 4874.0958 4665.7798 4860.4255 4564.211 Z" fill="none" stroke="#E71E24" opacity="0.6" stroke-width="1" class="arverne"/>
<path d="M 4920.8974 4654.4148 4915.7137 4627.2416 4913.1366 4601.4664 5043.5228 4555.8976 5048.7802 4628.2147 4927.8127 4654.7475 4923.3748 4653.4106 4920.8974 4654.4148 Z" fill="none" stroke="#E71E24" opacity="0.6" stroke-width="1" class="arverne"/>
<path d="M 5999 4018.4875 5999 4039.181 5636.0196 4416.723 5317.3543 4159.1082 5539.9928 3915.7133 5999 3947.8937 5999 4018.4875 Z" fill="none" stroke="#E71E24" opacity="0.6" stroke-width="1" class="arverne"/>
<path d="M 4936.8261 4575.1218 4941.345 4574.6496 4941.3545 4578.8058 4937.7617 4578.814 4936.8261 4575.1218 Z" fill="none" stroke="#E71E24" opacity="0.6" stroke-width="1" class="arverne"/>
<path d="M 4765.7796 4528.8587 4778.7614 4529.7547 5030.629 4398.9741 5125.8903 4682.2735 4810.8227 4779.0759 4765.7796 4528.8587 Z" fill="none" stroke="#E71E24" opacity="0.6" stroke-width="1" class="arverne"/>
<path d="M 5090.2112 4502.2583 5092.6153 4537.3468 5103.7409 4537.3194 5105.2218 4573.7968 5091.3699 4596.4592 5093.739 4617.2348 4909.5709 4668.933 4881.3414 4588.6396 4829.3454 4555.0435 4897.7228 4451.9194 5001.0707 4443.8314 5054.7511 4407.2269 5115.3338 4352.1359 5141.6918 4328.0626 5162.5325 4322.0083 5190.3451 4323.7841 5215.4068 4337.1082 5215.4463 4352.3437 5215.518 4380.0452 5209.5427 4399.4523 5202.2087 4431.3298 5177.6812 4446.6297 5150.862 4472.5551 5090.2112 4502.2583 Z" fill="none" stroke="#E71E24" opacity="0.6" stroke-width="1" class="arverne"/>
<path d="M 5041.1836 4547.631 5046.9825 4645.5199 4897.7649 4676.3491 4827.9174 4537.9608 5036.1356 4375.8757 5084.4652 4427.4702 5041.1836 4547.631 Z" fill="none" stroke="#E71E24" opacity="0.6" stroke-width="1" class="arverne"/>
<path d="M 5042.7055 4505.837 5056.7152 4644.1109 4859.0849 4691.6764 4854.9048 4583.3877 4839.5643 4564.2569 4865.142 4496.089 4880.6399 4482.2019 4914.4611 4474.5068 5059.4181 4420.3745 5076.122 4427.4906 5066.8809 4439.518 5048.6381 4467.0355 5041.2998 4499.6066 5042.7055 4505.837 Z" fill="none" stroke="#E71E24" opacity="0.6" stroke-width="1" class="arverne"/>
<path d="M 4906.9885 4654.6218 4903.6868 4629.6906 4847.6088 4638.5903 4840.3315 4491.2953 5028.9616 4477.0103 5034.6858 4544.4142 5043.7241 4543.8152 5049.6043 4627.2715 4906.8883 4661.5496 4906.9885 4654.6218 Z" fill="none" stroke="#E71E24" opacity="0.6" stroke-width="1" class="arverne"/>
<path d="M 4891.8484 4519.3484 4948.3154 4481.3555 5017.9279 4515.3625 5060.8239 4617.7771 4931.1045 4657.7998 4891.8484 4519.3484 Z" fill="none" stroke="#E71E24" opacity="0.6" stroke-width="1" class="arverne"/>
<path d="M 5047.8964 4639.9758 4862.5572 4689.3595 4845.6812 4605.3437 4843.7335 4562.8624 4877.9354 4516.6089 4893.6445 4493.4857 5001.1307 4469.2268 5036.5412 4544.8715 5047.8964 4639.9758 Z" fill="none" stroke="#E71E24" opacity="0.6" stroke-width="1" class="arverne"/>
<path d="M 4909.7839 4660.6194 4879.7484 4498.1344 5061.2895 4427.5267 5120.6562 4442.156 5170.8856 4508.5213 5150.7174 4599.0823 4909.7839 4660.6194 Z" fill="none" stroke="#E71E24" opacity="0.6" stroke-width="1" class="arverne"/>
<path d="M 5647.2385 2625.0527 5641.8571 3288.9284 5108.7678 3386.3296 4715.104 2885.5491 5610.3168 2654.6597 5647.2385 2625.0527 Z" fill="none" stroke="#E71E24" opacity="0.6" stroke-width="1" class="arverne"/>
<path d="M 4919.5146 4658.1726 4909.5333 4601.1603 4890.4103 4601.4344 4874.369 4580.3428 4833.9852 4556.8806 4894.0935 4487.0201 4946.9194 4479.05 5067.9987 4422.6623 5072.8781 4522.8493 5078.4292 4612.8851 5079.4168 4637.5901 4919.5146 4658.1726 Z" fill="none" stroke="#E71E24" opacity="0.6" stroke-width="1" class="arverne"/>
<path d="M 3281.4253 2799.8389 3282.3573 2811.8227 3195.3347 2744.5716 3205.5109 2738.1143 3281.4253 2799.8389 Z" fill="none" stroke="#E71E24" opacity="0.6" stroke-width="1" class="arverne"/>
<path d="M 4925.2353 4523.8904 4979.8384 4482.2058 5086.4847 4494.8793 5118.1276 4543.7486 5085.8225 4602.9381 4957.8858 4610.6321 4912.2723 4531.3083 4925.2353 4523.8904 Z" fill="none" stroke="#E71E24" opacity="0.6" stroke-width="1" class="arverne"/>
<path d="M 4917.6519 4654.5977 4915.7429 4630.587 4897.0246 4553.5082 5042.5521 4538.3921 5077.9752 4616.8117 4922.2956 4657.8199 4915.7586 4637.5143 4915.2897 4635.2062 4916.2317 4641.6696 4916.2432 4646.7497 4916.2506 4649.9825 4917.6519 4654.5977 Z" fill="none" stroke="#E71E24" opacity="0.6" stroke-width="1" class="arverne"/>
<path d="M 4793.3283 4405.053 5222.727 4478.8357 5001.1178 4856.2468 4793.3283 4405.053 Z" fill="none" stroke="#E71E24" opacity="0.6" stroke-width="1" class="arverne"/>
<path d="M 4739.7734 4673.2281 4752.5801 4700.2194 4689.2261 4724.9444 4681.4289 4709.7187 4739.7734 4673.2281 Z" fill="none" stroke="#E71E24" opacity="0.6" stroke-width="1" class="arverne"/>
<path d="M 4729.8478 4637.9184 4744.672 4632.3457 4823.342 4565.6777 4911.4562 4580.2594 4912.5657 4660.6131 4757.7913 4697.8992 4729.8478 4637.9184 Z" fill="none" stroke="#E71E24" opacity="0.6" stroke-width="1" class="arverne"/>
<path d="M 4858.1505 4583.6114 4842.7729 4547.6256 5072.8717 4425.1899 5079.8206 4613.1126 4873.1582 4661.1635 4858.1505 4583.6114 Z" fill="none" stroke="#E71E24" opacity="0.6" stroke-width="1" class="arverne"/>
<path d="M 4951.2487 4635.0941 4922.1929 4639.3051 4934.6911 4619.7745 4937.6282 4633.2488 4950.0726 4619.9832 4944.4199 4612.2597 4939.5505 4614.0392 4935.4236 4617.34 4936.3931 4621.4115 4951.2487 4635.0941 Z" fill="none" stroke="#E71E24" opacity="0.6" stroke-width="1" class="arverne"/>
<path d="M 4913.3504 4597.8036 5278.4916 4531.3301 5087.7087 4615.8642 4913.3504 4597.8036 Z" fill="none" stroke="#E71E24" opacity="0.6" stroke-width="1" class="arverne"/>
<path d="M 4902.9947 4528.5586 4998.4498 4511.7145 4976.43 4610.589 4902.9947 4528.5586 Z" fill="none" stroke="#E71E24" opacity="0.6" stroke-width="1" class="arverne"/>
<path d="M 4922.4588 4576.8864 5032.5353 4565.8924 5041.2581 4626.8298 4931.3273 4653.8737 4922.4588 4576.8864 Z" fill="none" stroke="#E71E24" opacity="0.6" stroke-width="1" class="arverne"/>
<path d="M 4892.0352 4602.4698 4928.967 4534.0409 5004.0474 4526.4779 5030.1661 4592.9132 5014.5048 4635.4374 4903.2722 4651.3974 4892.0352 4602.4698 Z" fill="none" stroke="#E71E24" opacity="0.6" stroke-width="1" class="arverne"/>
<path d="M 4907.6199 4523.9305 4910.6399 4526.9251 4905.6673 4531.6696 4898.5877 4527.1833 4900.668 4524.6388 4907.6199 4523.9305 Z" fill="none" stroke="#E71E24" opacity="0.6" stroke-width="1" class="arverne"/>
<path d="M 4790.9307 4584.2195 4796.5493 4610.0685 4796.5731 4621.152 4801.247 4638.6912 4800.3336 4645.1587 4799.4153 4649.3172 4801.7473 4655.7778 4800.5977 4660.1677 4790.9307 4584.2195 Z" fill="none" stroke="#E71E24" opacity="0.6" stroke-width="1" class="arverne"/>
<path d="M 4838.5937 4544.4023 4882.6538 4657.2167 4867.4854 4611.9918 4946.0325 4597.0361 5042.6532 4580.4146 5049.246 4622.8851 4964.9161 4643.405 4919.5122 4657.1335 4885.4434 4660.6742 4838.5937 4544.4023 Z" fill="none" stroke="#E71E24" opacity="0.6" stroke-width="1" class="arverne"/>
<path d="M 4690.1551 4725.7508 4669.6518 4674.9882 5032.8813 4565.1988 5048.7768 4620.5771 4690.1551 4725.7508 Z" fill="none" stroke="#E71E24" opacity="0.6" stroke-width="1" class="arverne"/>
<path d="M 5050.6402 4624.2672 4823.587 4678.3607 4802.8588 4526.0089 5065.9157 4423.8217 5077.4935 4609.4238 5050.6402 4624.2672 Z" fill="none" stroke="#E71E24" opacity="0.6" stroke-width="1" class="arverne"/>
<path d="M 4909.7609 4650.4591 4875.5734 4496.7584 5030.371 4484.8567 5073.8095 4619.5927 4909.7609 4650.4591 Z" fill="none" stroke="#E71E24" opacity="0.6" stroke-width="1" class="arverne"/>
<path d="M 4827.2328 4541.6186 4894.2075 4380.6824 5073.2393 4431.0511 5025.0977 4589.2429 4827.2328 4541.6186 Z" fill="none" stroke="#E71E24" opacity="0.6" stroke-width="1" class="arverne"/></svg>