<?xml version="1.0"?><svg xmlns="http://www.w3.org/2000/svg" version="1.2" baseProfile="tiny" width="6000" height="5918" viewBox="0 0 6000 5918" stroke-linecap="round" stroke-linejoin="round"><path d="M 2802.5911 4802.9943 2810.9332 4710.6178 2844.3229 4789.5967 2802.5911 4802.9943 Z" fill="none" stroke="#FBC20F" opacity="0.6" stroke-width="1" class="bath_beach"/>
<path d="M 2649.1694 4293.3365 2744.3295 4373.0591 2678.5055 4467.2457 2579.3173 4425.6757 2591.3799 4364.7328 2649.1694 4293.3365 Z" fill="none" stroke="#FBC20F" opacity="0.6" stroke-width="1" class="bath_beach"/>
<path d="M 2567.576 4419.2101 2566.4173 4418.7481 2596.3215 4375.1227 2581.0286 4363.8084 2636.1927 4294.1048 2806.5162 4427.5409 2922.6418 4518.4921 2939.815 4634.8611 2902.0372 4682.898 2914.562 4724.463 2900.6521 4724.2342 2567.576 4419.2101 Z" fill="none" stroke="#FBC20F" opacity="0.6" stroke-width="1" class="bath_beach"/>
<path d="M 2852.6508 4588.3457 2854.7373 4591.5781 2858.9101 4596.773 2868.6467 4606.239 2876.1814 4615.8207 2868.8752 4575.7602 2880.6984 4589.959 2887.5371 4595.3843 2895.7669 4601.964 2884.5265 4617.5515 2893.7988 4618.3585 2903.9967 4608.1972 2896.003 4633.2518 2910.0248 4616.1625 2924.3915 4585.7965 2929.8405 4595.9552 2934.246 4603.3433 2926.9463 4615.1207 2929.3814 4621.8166 2936.6854 4633.7071 2934.95 4651.6032 2925.793 4649.4111 2910.2642 4666.155 2904.3517 4657.612 2901.6836 4642.4874 2893.1117 4680.2436 2877.4625 4668.2377 2896.4757 4698.7171 2913.7449 4687.861 2925.2194 4684.2799 2931.1298 4678.5058 2852.6508 4588.3457 Z" fill="none" stroke="#FBC20F" opacity="0.6" stroke-width="1" class="bath_beach"/>
<path d="M 2582.4183 4367.5022 2639.9002 4295.0286 2929.1319 4519.8763 2943.9873 4633.4749 2904.5867 4679.6647 2876.7694 4687.9816 2561.0876 4415.515 2582.4183 4367.5022 Z" fill="none" stroke="#FBC20F" opacity="0.6" stroke-width="1" class="bath_beach"/>
<path d="M 2570.4058 4182.8408 2748.3499 4164.3968 2837.3267 4253.0244 2756.6885 4408.1496 2539.7878 4325.0182 2570.4058 4182.8408 Z" fill="none" stroke="#FBC20F" opacity="0.6" stroke-width="1" class="bath_beach"/>
<path d="M 2638.5101 4292.7202 2832.2425 4444.6232 2748.8065 4548.0585 2558.7668 4430.2895 2596.3217 4374.4302 2581.9557 4362.8852 2638.5101 4292.7202 Z" fill="none" stroke="#FBC20F" opacity="0.6" stroke-width="1" class="bath_beach"/>
<path d="M 2638.0466 4293.1817 2922.1782 4518.0305 2949.5626 4694.898 2586.128 4358.2691 2637.12 4290.8733 2637.5838 4288.5651 2638.0466 4293.1817 Z" fill="none" stroke="#FBC20F" opacity="0.6" stroke-width="1" class="bath_beach"/>
<path d="M 2515.6637 4415.5041 2613.9466 4297.3331 2591.7009 4297.3293 2600.9722 4284.4046 2901.319 4524.4984 2916.1759 4668.5787 2862.3986 4709.2284 2754.8324 4592.8522 2702.9158 4500.4944 2599.0908 4441.3789 2515.6637 4415.5041 Z" fill="none" stroke="#FBC20F" opacity="0.6" stroke-width="1" class="bath_beach"/>
<path d="M 2640.8276 4290.8738 2924.4957 4516.183 2953.2697 4684.2747 2918.034 4690.7469 2738.1453 4514.3489 2544.4009 4417.3581 2640.8276 4290.8738 Z" fill="none" stroke="#FBC20F" opacity="0.6" stroke-width="1" class="bath_beach"/>
<path d="M 2639.6677 4328.2758 2795.5827 4424.3581 2734.3963 4504.7007 2573.0972 4419.7219 2639.6677 4328.2758 Z" fill="none" stroke="#FBC20F" opacity="0.6" stroke-width="1" class="bath_beach"/>
<path d="M 2638.0467 4292.7201 2831.7791 4446.0085 2790.9905 4501.4197 2754.8331 4530.0493 2740.9258 4544.8259 2552.7426 4423.8241 2565.7247 4406.2817 2638.0467 4292.7201 Z" fill="none" stroke="#FBC20F" opacity="0.6" stroke-width="1" class="bath_beach"/>
<path d="M 2635.2662 4290.8731 2834.56 4443.2379 2750.1971 4555.9088 2531.4205 4425.6659 2635.2662 4290.8731 Z" fill="none" stroke="#FBC20F" opacity="0.6" stroke-width="1" class="bath_beach"/>
<path d="M 2480.4432 4395.1789 2513.8254 4356.4059 2573.167 4277.0129 2619.5092 4289.9475 2665.8512 4315.8065 2752.9813 4350.899 2808.6011 4406.3018 2780.7914 4445.0872 2714.0409 4502.3421 2751.1254 4476.4854 2675.1035 4493.1041 2626.8994 4459.8526 2480.4432 4395.1789 Z" fill="none" stroke="#FBC20F" opacity="0.6" stroke-width="1" class="bath_beach"/>
<path d="M 2575.9287 4371.887 2619.9684 4316.9547 2667.2376 4354.3566 2718.687 4289.2651 2864.6851 4405.605 2766.4223 4528.2023 2567.577 4414.3621 2575.4648 4373.7337 2575.9287 4371.887 Z" fill="none" stroke="#FBC20F" opacity="0.6" stroke-width="1" class="bath_beach"/>
<path d="M 2710.7122 4350.8975 2834.5605 4448.4092 2773.0049 4522.2916 2758.9127 4523.0304 2734.4367 4517.8582 2712.1865 4506.7749 2692.1622 4491.9973 2666.9478 4467.6148 2632.8342 4449.1412 2710.7122 4350.8975 Z" fill="none" stroke="#FBC20F" opacity="0.6" stroke-width="1" class="bath_beach"/>
<path d="M 2951.4178 4698.1306 2586.1154 4424.7544 3001.3306 4051.7453 2951.4178 4698.1306 Z" fill="none" stroke="#FBC20F" opacity="0.6" stroke-width="1" class="bath_beach"/>
<path d="M 2639.9006 4291.797 2830.8519 4443.2382 2771.5214 4515.2728 2546.253 4425.6695 2582.4196 4361.0385 2639.9006 4291.797 Z" fill="none" stroke="#FBC20F" opacity="0.6" stroke-width="1" class="bath_beach"/>
<path d="M 2574.0747 4372.1174 2636.1934 4289.0266 2906.8783 4501.4095 2779.8672 4630.7207 2720.5302 4511.5777 2578.6991 4424.753 2574.0747 4372.1174 Z" fill="none" stroke="#FBC20F" opacity="0.6" stroke-width="1" class="bath_beach"/>
<path d="M 2407.2201 4369.2988 2540.7394 4221.148 2734.9051 4367.0577 2660.7364 4467.2448 2407.2201 4369.2988 Z" fill="none" stroke="#FBC20F" opacity="0.6" stroke-width="1" class="bath_beach"/>
<path d="M 2830.2401 4443.9585 2780.1806 4511.6802 2566.9634 4423.0053 2637.4347 4294.9821 2830.2401 4443.9585 Z" fill="none" stroke="#FBC20F" opacity="0.6" stroke-width="1" class="bath_beach"/>
<path d="M 2636.4172 4292.694 2831.0766 4449.6765 2768.4536 4534.1323 2587.6864 4406.6748 2636.4172 4292.694 Z" fill="none" stroke="#FBC20F" opacity="0.6" stroke-width="1" class="bath_beach"/>
<path d="M 2712.157 4498.9654 2709.3665 4493.7823 2571.286 4409.9766 2638.0693 4297.026 2783.5157 4408.2123 2712.157 4498.9654 Z" fill="none" stroke="#FBC20F" opacity="0.6" stroke-width="1" class="bath_beach"/>
<path d="M 2839.2059 4579.9191 2553.6715 4415.5134 2646.3889 4291.7979 2907.8048 4497.7153 2839.2059 4579.9191 Z" fill="none" stroke="#FBC20F" opacity="0.6" stroke-width="1" class="bath_beach"/>
<path d="M 2639.9004 4293.6436 2925.4236 4520.8005 2951.4196 4707.3676 2572.2126 4411.8236 2596.3209 4378.5854 2581.4919 4364.7318 2639.9004 4293.6436 Z" fill="none" stroke="#FBC20F" opacity="0.6" stroke-width="1" class="bath_beach"/>
<path d="M 2676.5081 4343.9697 2689.4863 4332.198 2694.1207 4337.046 2686.4739 4331.2744 2927.2778 4520.8002 2907.5808 4549.2024 2848.0172 4615.4772 2657.0296 4454.0849 2608.8262 4432.8386 2658.1986 4364.282 2686.2421 4332.4286 2667.2373 4357.3576 2676.5081 4343.9697 Z" fill="none" stroke="#FBC20F" opacity="0.6" stroke-width="1" class="bath_beach"/>
<path d="M 2582.4165 4376.7361 2698.2918 4337.9696 2835.4874 4446.9317 2778.9384 4518.0433 2582.4165 4376.7361 Z" fill="none" stroke="#FBC20F" opacity="0.6" stroke-width="1" class="bath_beach"/>
<path d="M 2636.1928 4293.6431 2918.9321 4510.6428 2948.6376 4706.4445 2763.1772 4574.3804 2568.5034 4417.3634 2600.9557 4379.5096 2580.5646 4366.5784 2636.1928 4293.6431 Z" fill="none" stroke="#FBC20F" opacity="0.6" stroke-width="1" class="bath_beach"/>
<path d="M 2638.5102 4292.2585 2924.0324 4518.0301 2940.2788 4635.7847 2892.9974 4692.1362 2566.6507 4410.899 2598.639 4374.8923 2581.9554 4364.7319 2638.5102 4292.2585 Z" fill="none" stroke="#FBC20F" opacity="0.6" stroke-width="1" class="bath_beach"/>
<path d="M 2593.5304 4431.2199 2675.1192 4328.7342 2670.4853 4320.4237 2898.5346 4503.2577 2826.2254 4579.92 2589.8224 4430.2958 2825.2979 4575.3021 2588.8956 4429.3722 2678.8269 4328.7346 2593.5304 4431.2199 Z" fill="none" stroke="#FBC20F" opacity="0.6" stroke-width="1" class="bath_beach"/>
<path d="M 2638.9732 4295.4902 2921.7148 4518.9541 2935.6377 4608.5384 2778.9407 4679.6748 2747.4128 4704.6146 2524.932 4422.894 2638.9732 4295.4902 Z" fill="none" stroke="#FBC20F" opacity="0.6" stroke-width="1" class="bath_beach"/>
<path d="M 2609.2904 4372.8535 2786.0677 4507.0995 2753.73 4526.4291 2566.1702 4403.9918 2601.7448 4372.8615 2679.3447 4444.8065 2609.2904 4372.8535 Z" fill="none" stroke="#FBC20F" opacity="0.6" stroke-width="1" class="bath_beach"/>
<path d="M 2738.1495 4367.5195 2900.3884 4500.4869 2785.4306 4631.6442 2659.3468 4458.0099 2738.1495 4367.5195 Z" fill="none" stroke="#FBC20F" opacity="0.6" stroke-width="1" class="bath_beach"/>
<path d="M 2671.4196 4246.5595 2763.1783 4129.3165 2914.2549 4245.6292 2882.7641 4424.7642 2731.658 4442.3163 2466.5732 4284.3717 2533.3263 4215.1451 2600.9767 4258.5524 2671.4196 4246.5595 Z" fill="none" stroke="#FBC20F" opacity="0.6" stroke-width="1" class="bath_beach"/>
<path d="M 2786.3528 4401.6855 2728.8752 4486.6432 2654.7173 4408.1432 2713.1223 4349.0509 2786.3528 4401.6855 Z" fill="none" stroke="#FBC20F" opacity="0.6" stroke-width="1" class="bath_beach"/>
<path d="M 2586.037 4362.5 2602.7263 4340.1113 2649.2296 4378.6864 2680.3993 4404.4859 2702.8782 4421.1093 2937.7792 4611.5689 2943.1862 4635.2133 2902.8584 4681.8652 2880.6368 4687.5257 2810.1884 4726.1073 2763.9565 4711.8509 2759.6561 4597.8139 2727.8192 4534.6627 2685.7984 4487.426 2604.4265 4440.744 2558.5036 4427.8853 2599.7656 4376.182 2586.037 4362.5 Z" fill="none" stroke="#FBC20F" opacity="0.6" stroke-width="1" class="bath_beach"/>
<path d="M 2585.2007 4360.1157 2637.1189 4299.1832 2641.2899 4300.107 2639.4372 4291.797 2900.4879 4502.1483 2782.7478 4611.1387 2737.9112 4528.2278 2701.7558 4490.3616 2662.8211 4460.8065 2577.7714 4428.4466 2601.8825 4380.4332 2585.2007 4360.1157 Z" fill="none" stroke="#FBC20F" opacity="0.6" stroke-width="1" class="bath_beach"/>
<path d="M 2738.1495 4367.5195 2918.6869 4519.6047 2922.0781 4529.6153 2947.13 4630.2822 2905.4135 4690.3277 2571.6024 4417.5515 2601.2736 4379.6972 2581.8104 4362.1492 2640.2185 4291.9845 2738.1495 4367.5195 Z" fill="none" stroke="#FBC20F" opacity="0.6" stroke-width="1" class="bath_beach"/>
<path d="M 2639.8995 4300.1069 2827.1437 4444.1619 2753.9059 4536.5141 2562.0174 4402.5873 2639.8995 4300.1069 Z" fill="none" stroke="#FBC20F" opacity="0.6" stroke-width="1" class="bath_beach"/>
<path d="M 2840.1233 4456.166 2647.2943 4463.5493 2695.5095 4358.2835 2840.1233 4456.166 Z" fill="none" stroke="#FBC20F" opacity="0.6" stroke-width="1" class="bath_beach"/>
<path d="M 2581.4924 4361.9617 2562.0232 4375.8085 2496.2192 4335.1636 2536.1081 4209.6064 2825.2896 4444.162 2782.6467 4512.5021 2581.4924 4361.9617 Z" fill="none" stroke="#FBC20F" opacity="0.6" stroke-width="1" class="bath_beach"/>
<path d="M 2779.9951 4510.4427 2623.7211 4449.7494 2712.9054 4248.3723 2872.6811 4288.817 2779.9951 4510.4427 Z" fill="none" stroke="#FBC20F" opacity="0.6" stroke-width="1" class="bath_beach"/>
<path d="M 2570.9794 4399.5114 2627.5372 4326.5743 2677.6015 4218.555 2736.9206 4143.7792 2764.7232 4111.4693 2922.905 4239.165 3044.659 4332.6991 3056.7262 4388.0981 3030.1661 4434.5857 2985.6825 4495.5467 2931.9216 4556.5112 2905.0409 4602.695 2878.7775 4661.504 2830.8676 4630.7194 2570.9794 4399.5114 Z" fill="none" stroke="#FBC20F" opacity="0.6" stroke-width="1" class="bath_beach"/>
<path d="M 2935.4033 4573.1552 2852.2725 4598.1608 2772.5321 4404.2269 2935.4033 4573.1552 Z" fill="none" stroke="#FBC20F" opacity="0.6" stroke-width="1" class="bath_beach"/>
<path d="M 2785.4281 4512.502 2781.7196 4512.5021 2792.8446 4499.5726 2798.4077 4513.4252 2785.4281 4512.502 Z" fill="none" stroke="#FBC20F" opacity="0.6" stroke-width="1" class="bath_beach"/>
<path d="M 2715.9029 4354.5913 2735.3686 4367.5194 2720.536 4389.6803 2706.6295 4414.6118 2688.0883 4425.6917 2671.3998 4446.0061 2643.5874 4453.3906 2577.7745 4412.7482 2623.2127 4316.7244 2631.5577 4297.3358 2575.0016 4372.1176 2588.9059 4373.9671 2657.0468 4303.8023 2661.4489 4310.9585 2685.316 4322.2717 2715.9029 4354.5913 Z" fill="none" stroke="#FBC20F" opacity="0.6" stroke-width="1" class="bath_beach"/>
<path d="M 2663.2864 4461.4734 2713.8147 4400.7609 2760.6282 4436.3145 2766.1904 4432.3898 2931.4571 4562.1285 2942.1331 4634.8607 2902.5009 4683.3597 2891.3751 4695.3693 2889.057 4696.7552 2870.7427 4693.9863 2808.1519 4723.5501 2768.2771 4711.5426 2763.1769 4707.3859 2762.7134 4663.0487 2763.6408 4596.0849 2740.4622 4546.2112 2709.8684 4511.1153 2658.4183 4470.4767 2663.2864 4461.4734 Z" fill="none" stroke="#FBC20F" opacity="0.6" stroke-width="1" class="bath_beach"/>
<path d="M 2629.4519 4438.3825 2667.0019 4391.9848 2794.9304 4494.0315 2741.3893 4548.0583 2628.2929 4439.7675 2629.4519 4438.3825 Z" fill="none" stroke="#FBC20F" opacity="0.6" stroke-width="1" class="bath_beach"/>
<path d="M 2638.0464 4294.5667 2928.2046 4518.953 2956.0562 4707.3667 2859.6118 4660.273 2771.5215 4530.0494 2697.3538 4491.9516 2565.4899 4420.5948 2597.9435 4376.7389 2581.0284 4364.7317 2601.6576 4340.7279 2638.0464 4294.5667 Z" fill="none" stroke="#FBC20F" opacity="0.6" stroke-width="1" class="bath_beach"/>
<path d="M 2639.4371 4292.2586 2832.2426 4445.085 2743.707 4555.4469 2555.0608 4421.0543 2597.7119 4375.8155 2582.419 4364.2703 2639.4371 4292.2586 Z" fill="none" stroke="#FBC20F" opacity="0.6" stroke-width="1" class="bath_beach"/>
<path d="M 2638.0469 4290.8735 2834.0965 4443.2379 2745.098 4544.826 2678.3499 4476.0197 2626.9019 4443.2303 2581.0145 4436.2965 2571.2852 4413.6703 2602.3471 4373.9695 2580.565 4364.27 2638.0469 4290.8735 Z" fill="none" stroke="#FBC20F" opacity="0.6" stroke-width="1" class="bath_beach"/>
<path d="M 2562.9432 4408.128 2654.7271 4325.0387 2823.4359 4450.6263 2778.9383 4512.5022 2761.3231 4520.814 2730.7281 4521.7369 2562.9432 4408.128 Z" fill="none" stroke="#FBC20F" opacity="0.6" stroke-width="1" class="bath_beach"/>
<path d="M 2930.557 4716.8396 2924.0671 4725.1543 2914.0999 4734.3932 2902.7415 4744.3252 2897.8745 4755.18 2891.6161 4764.1876 2883.0371 4756.7986 2864.7211 4748.9487 2857.3014 4740.1739 2847.0985 4713.8484 2843.8518 4700.9167 2832.2584 4669.9739 2810.4642 4597.4693 2840.1295 4534.2024 2878.5992 4481.0962 2917.535 4470.4706 2954.6647 4704.5959 2940.292 4707.3698 2930.557 4716.8396 Z" fill="none" stroke="#FBC20F" opacity="0.6" stroke-width="1" class="bath_beach"/>
<path d="M 2557.3783 4421.0548 2638.0463 4295.49 2831.7791 4446.0085 2742.78 4549.4437 2557.3783 4421.0548 Z" fill="none" stroke="#FBC20F" opacity="0.6" stroke-width="1" class="bath_beach"/>
<path d="M 2541.6679 4214.2239 2762.2507 4382.2941 2682.522 4472.7879 2558.3078 4409.9738 2613.9359 4363.8142 2565.7325 4369.3456 2484.166 4345.3171 2541.6679 4214.2239 Z" fill="none" stroke="#FBC20F" opacity="0.6" stroke-width="1" class="bath_beach"/>
<path d="M 2603.2728 4381.3568 2582.4084 4418.7514 2581.9447 4419.6747 2515.6688 4396.1122 2606.9874 4341.6522 2728.4147 4408.6106 2678.3492 4482.9459 2581.9454 4416.4427 2603.2728 4381.3568 Z" fill="none" stroke="#FBC20F" opacity="0.6" stroke-width="1" class="bath_beach"/>
<path d="M 2563.8685 4416.439 2582.418 4369.3489 2628.7778 4291.7955 2920.7874 4517.1072 2944.0003 4702.7505 2563.8685 4416.439 Z" fill="none" stroke="#FBC20F" opacity="0.6" stroke-width="1" class="bath_beach"/>
<path d="M 2639.2895 4293.5946 2900.9128 4497.7643 2894.4243 4507.0004 2876.8127 4535.6321 2836.9496 4586.4324 2798.0086 4608.6011 2735.8876 4546.7209 2712.3343 4516.048 2636.3192 4454.1663 2604.0431 4435.79 2577.1614 4423.7803 2587.369 4369.3009 2639.2895 4293.5946 Z" fill="none" stroke="#FBC20F" opacity="0.6" stroke-width="1" class="bath_beach"/>
<path d="M 2635.7291 4295.0281 2925.192 4521.8395 2846.6264 4615.3619 2566.9964 4420.1334 2597.7118 4376.1618 2581.8394 4365.309 2635.7291 4295.0281 Z" fill="none" stroke="#FBC20F" opacity="0.6" stroke-width="1" class="bath_beach"/></svg>