<?xml version="1.0"?><svg xmlns="http://www.w3.org/2000/svg" version="1.2" baseProfile="tiny" width="6000" height="5918" viewBox="0 0 6000 5918" stroke-linecap="round" stroke-linejoin="round"><path d="M 2616.5008 2795.3587 2620.1998 2813.3358 2579.4452 2990.3459 2556.3102 2964.985 2583.1866 2788.8999 2616.5008 2795.3587 Z" fill="none" stroke="#E71E24" opacity="0.5291005291005291" stroke-width="1" class="battery_park_city"/>
<path d="M 2566.0241 2988.038 2561.8591 2987.1151 2586.4249 2792.127 2590.1264 2793.5105 2623.4405 2802.2738 2591.4883 2935.9487 2571.5779 2988.0392 2566.0241 2988.038 Z" fill="none" stroke="#E71E24" opacity="0.5291005291005291" stroke-width="1" class="battery_park_city"/>
<path d="M 2629.9198 2793.517 2628.99 2823.9387 2613.253 2849.7496 2608.621 2877.4067 2608.616 2907.8312 2600.2821 2930.8793 2580.8418 2948.3938 2572.5069 2971.4426 2569.7268 2987.1167 2558.6236 2967.7516 2559.5579 2928.1054 2586.431 2760.3234 2594.7604 2755.7158 2594.761 2752.0285 2604.0155 2748.3429 2640.1057 2747.4265 2629.9198 2793.517 Z" fill="none" stroke="#E71E24" opacity="0.5291005291005291" stroke-width="1" class="battery_park_city"/>
<path d="M 2622.5164 2793.5159 2571.5684 3034.1427 2509.5698 2956.6753 2523.4945 2797.1832 2622.5164 2793.5159 Z" fill="none" stroke="#E71E24" opacity="0.5291005291005291" stroke-width="1" class="battery_park_city"/>
<path d="M 2627.1429 2798.1259 2597.5044 2936.4108 2613.2214 3046.1376 2559.0832 2982.5043 2587.8125 2795.3538 2609.5587 2803.6544 2622.5153 2800.8908 2627.1429 2798.1259 Z" fill="none" stroke="#E71E24" opacity="0.5291005291005291" stroke-width="1" class="battery_park_city"/>
<path d="M 2628.994 2796.2825 2585.4622 2988.0419 2566.7166 2996.5672 2556.7717 2970.9783 2561.4059 2942.3967 2585.731 2791.205 2623.2099 2796.973 2628.994 2796.2825 Z" fill="none" stroke="#E71E24" opacity="0.5291005291005291" stroke-width="1" class="battery_park_city"/>
<path d="M 2615.9997 3037.8392 2615.0723 3048.6737 2594.015 3038.2965 2554.687 2980.6592 2588.2846 2745.1137 2633.8587 2751.8043 2591.4837 2960.6125 2611.6104 2991.0432 2609.293 3011.5587 2615.771 3020.55 2615.9997 3037.8392 Z" fill="none" stroke="#E71E24" opacity="0.5291005291005291" stroke-width="1" class="battery_park_city"/>
<path d="M 2585.4994 2792.5877 2625.7548 2797.2039 2584.0741 2986.1976 2612.7676 2989.8908 2635.4388 3037.381 2598.4111 3042.9078 2555.8445 2978.3544 2585.4994 2792.5877 Z" fill="none" stroke="#E71E24" opacity="0.5291005291005291" stroke-width="1" class="battery_park_city"/>
<path d="M 2597.5147 2878.3267 2593.8273 2798.1205 2628.9927 2805.5011 2611.3967 2882.9388 2579.903 3015.7027 2566.9622 2929.0289 2590.1254 2799.0416 2597.5147 2878.3267 Z" fill="none" stroke="#E71E24" opacity="0.5291005291005291" stroke-width="1" class="battery_park_city"/>
<path d="M 2587.3501 2793.5099 2621.5904 2797.2032 2587.3136 2987.1202 2560.4702 2988.9589 2568.8091 2949.3134 2587.3501 2793.5099 Z" fill="none" stroke="#E71E24" opacity="0.5291005291005291" stroke-width="1" class="battery_park_city"/>
<path d="M 2627.1103 3020.3212 2629.8832 3048.9065 2614.1462 3051.6704 2582.6758 3036.9112 2566.024 2988.9601 2574.3678 2923.4985 2601.2059 2941.0215 2619.7105 2985.2817 2613.2261 3016.6307 2627.1103 3020.3212 Z" fill="none" stroke="#E71E24" opacity="0.5291005291005291" stroke-width="1" class="battery_park_city"/>
<path d="M 2618.8135 2800.8903 2594.7177 2991.7318 2553.9919 2984.3472 2578.0956 2794.43 2618.8135 2800.8903 Z" fill="none" stroke="#E71E24" opacity="0.5291005291005291" stroke-width="1" class="battery_park_city"/>
<path d="M 2624.3642 2813.7973 2683.5326 2858.0325 2621.5085 2964.0521 2575.238 2917.9438 2624.3642 2813.7973 Z" fill="none" stroke="#E71E24" opacity="0.5291005291005291" stroke-width="1" class="battery_park_city"/>
<path d="M 2625.2915 2801.3522 2582.2209 2996.3398 2546.1236 2986.6505 2593.8292 2787.5191 2625.2915 2801.3522 Z" fill="none" stroke="#E71E24" opacity="0.5291005291005291" stroke-width="1" class="battery_park_city"/>
<path d="M 2588.2761 2790.2836 2594.2914 2790.2847 2604.9334 2792.5912 2615.1131 2792.5929 2623.9044 2794.438 2625.2909 2805.5006 2623.9013 2815.1801 2621.1232 2826.2423 2617.8815 2843.2969 2615.1029 2856.6643 2612.3237 2873.7195 2606.7663 2899.5332 2603.5245 2913.3622 2590.5578 2962.6869 2582.2231 2984.8141 2565.5611 2988.96 2557.6976 2969.5954 2588.2761 2790.2836 Z" fill="none" stroke="#E71E24" opacity="0.5291005291005291" stroke-width="1" class="battery_park_city"/>
<path d="M 2587.1186 2794.2013 2630.1488 2810.1107 2579.9026 3017.5469 2553.068 2976.9707 2587.1186 2794.2013 Z" fill="none" stroke="#E71E24" opacity="0.5291005291005291" stroke-width="1" class="battery_park_city"/>
<path d="M 2622.5164 2793.5159 2580.8341 2988.041 2567.8742 2993.5707 2555.845 2976.0493 2573.4507 2882.0099 2580.8548 2882.0114 2587.3336 2881.0907 2589.186 2873.7155 2591.039 2862.6526 2575.3058 2861.7277 2587.3511 2787.9788 2622.5164 2793.5159 Z" fill="none" stroke="#E71E24" opacity="0.5291005291005291" stroke-width="1" class="battery_park_city"/>
<path d="M 2562.3207 2992.6475 2559.551 2959.4536 2585.4987 2796.2752 2624.366 2801.813 2619.7348 2827.6249 2608.6173 2899.5335 2592.8698 2973.2906 2579.9072 2994.4952 2562.3207 2992.6475 Z" fill="none" stroke="#E71E24" opacity="0.5291005291005291" stroke-width="1" class="battery_park_city"/>
<path d="M 2626.4472 2808.7273 2585.6938 2986.8894 2559.7791 2974.8976 2588.0445 2791.8968 2603.3129 2798.5831 2626.4472 2808.7273 Z" fill="none" stroke="#E71E24" opacity="0.5291005291005291" stroke-width="1" class="battery_park_city"/>
<path d="M 2552.1401 2987.1129 2582.7235 2790.7435 2589.2004 2796.2759 2645.6511 2801.8159 2607.6769 2988.9679 2552.1401 2987.1129 Z" fill="none" stroke="#E71E24" opacity="0.5291005291005291" stroke-width="1" class="battery_park_city"/>
<path d="M 2556.7706 2976.0495 2576.2122 2956.691 2557.7021 2949.311 2558.6345 2917.9633 2565.1204 2884.774 2584.5546 2893.9975 2583.6331 2872.7925 2570.6785 2860.8048 2576.2457 2789.8203 2620.6641 2802.7343 2619.7358 2821.1717 2613.2464 2891.2366 2590.1087 2888.4668 2592.8767 2935.488 2590.0911 2983.4326 2592.8575 3040.6015 2578.0513 3017.5465 2562.3195 2998.1798 2556.7706 2976.0495 Z" fill="none" stroke="#E71E24" opacity="0.5291005291005291" stroke-width="1" class="battery_park_city"/>
<path d="M 2586.4252 2790.7442 2625.2923 2796.2819 2580.8339 2988.9631 2559.5444 2989.8807 2553.9948 2971.4387 2553.9998 2949.3102 2564.1794 2957.6105 2571.587 2943.7819 2564.1833 2939.1703 2572.525 2882.9317 2585.4822 2882.9342 2589.1877 2864.4962 2574.3803 2861.7275 2586.4252 2790.7442 Z" fill="none" stroke="#E71E24" opacity="0.5291005291005291" stroke-width="1" class="battery_park_city"/>
<path d="M 2626.2176 2796.743 2582.6858 2985.2752 2567.4117 2992.1875 2557.2341 2972.8224 2585.0369 2791.6658 2625.2922 2796.7429 2626.2176 2796.743 Z" fill="none" stroke="#E71E24" opacity="0.5291005291005291" stroke-width="1" class="battery_park_city"/>
<path d="M 2596.8008 2988.9661 2597.7271 2985.0475 2563.4806 2979.0475 2571.8303 2885.4669 2603.7589 2896.3058 2596.8008 2988.9661 Z" fill="none" stroke="#E71E24" opacity="0.5291005291005291" stroke-width="1" class="battery_park_city"/>
<path d="M 2587.3501 2793.5099 2628.9944 2793.5169 2580.8324 2996.3395 2558.6194 2987.1144 2558.6271 2952.0772 2587.3501 2793.5099 Z" fill="none" stroke="#E71E24" opacity="0.5291005291005291" stroke-width="1" class="battery_park_city"/>
<path d="M 2576.2073 2981.5858 2588.2684 2831.3071 2596.6039 2796.2772 2620.6636 2806.4218 2594.7094 3037.8356 2576.2073 2981.5858 Z" fill="none" stroke="#E71E24" opacity="0.5291005291005291" stroke-width="1" class="battery_park_city"/>
<path d="M 2586.0684 2798.0028 2627.6432 2800.3237 2585.0377 2985.6298 2550.7889 2990.2328 2586.0684 2798.0028 Z" fill="none" stroke="#E71E24" opacity="0.5291005291005291" stroke-width="1" class="battery_park_city"/>
<path d="M 2626.2176 2796.743 2578.518 2998.1832 2558.6182 2992.6467 2586.8876 2792.1271 2626.2176 2796.743 Z" fill="none" stroke="#E71E24" opacity="0.5291005291005291" stroke-width="1" class="battery_park_city"/>
<path d="M 2630.8443 2799.9702 2600.2714 2991.7328 2557.6942 2985.2701 2588.2755 2793.5101 2630.8443 2799.9702 Z" fill="none" stroke="#E71E24" opacity="0.5291005291005291" stroke-width="1" class="battery_park_city"/>
<path d="M 2616.0019 3024.0078 2536.3954 3024.9139 2582.7229 2793.5091 2634.5465 2797.2051 2616.0019 3024.0078 Z" fill="none" stroke="#E71E24" opacity="0.5291005291005291" stroke-width="1" class="battery_park_city"/>
<path d="M 2627.1434 2794.4385 2581.7602 2985.2751 2570.1886 2992.1881 2560.9328 2989.881 2556.7729 2965.4461 2584.5743 2790.7438 2624.8296 2796.2819 2627.1434 2794.4385 Z" fill="none" stroke="#E71E24" opacity="0.5291005291005291" stroke-width="1" class="battery_park_city"/>
<path d="M 2585.4998 2790.744 2625.7551 2795.8211 2581.2971 2987.1191 2578.9829 2987.5796 2581.759 2991.7294 2566.9473 2999.5639 2558.6203 2982.9652 2557.6986 2964.9853 2561.4056 2943.7797 2585.4998 2790.744 Z" fill="none" stroke="#E71E24" opacity="0.5291005291005291" stroke-width="1" class="battery_park_city"/>
<path d="M 2586.4251 2791.2051 2622.9792 2793.0551 2623.4418 2793.5161 2579.4463 2984.8136 2579.4468 2982.0475 2560.4705 2987.5758 2561.3962 2987.3455 2586.4255 2788.9005 2586.4251 2791.2051 Z" fill="none" stroke="#E71E24" opacity="0.5291005291005291" stroke-width="1" class="battery_park_city"/>
<path d="M 2607.7075 2805.4978 2618.813 2804.5777 2590.0974 2949.3175 2562.331 2944.7019 2587.343 2831.307 2593.8229 2822.0892 2593.8247 2811.9485 2597.5275 2806.4179 2597.5283 2801.8086 2603.081 2801.8096 2607.7075 2805.4978 Z" fill="none" stroke="#E71E24" opacity="0.5291005291005291" stroke-width="1" class="battery_park_city"/>
<path d="M 2627.1429 2798.1259 2577.129 3000.9491 2556.7716 2971.4393 2583.6491 2789.8218 2627.1429 2798.1259 Z" fill="none" stroke="#E71E24" opacity="0.5291005291005291" stroke-width="1" class="battery_park_city"/>
<path d="M 2607.702 2838.6858 2659.5269 2852.5217 2662.2995 2888.4774 2624.3387 2984.3603 2588.2425 2969.6017 2607.702 2838.6858 Z" fill="none" stroke="#E71E24" opacity="0.5291005291005291" stroke-width="1" class="battery_park_city"/>
<path d="M 2585.4994 2792.5877 2650.2786 2799.0509 2576.2017 3009.2475 2553.07 2967.7503 2585.4994 2792.5877 Z" fill="none" stroke="#E71E24" opacity="0.5291005291005291" stroke-width="1" class="battery_park_city"/>
<path d="M 2580.5993 2792.4891 2617.6151 2800.7924 2582.4128 2985.1775 2552.7953 2975.0288 2580.5993 2792.4891 Z" fill="none" stroke="#E71E24" opacity="0.5291005291005291" stroke-width="1" class="battery_park_city"/>
<path d="M 2646.5471 3035.0772 2650.2484 3046.1429 2632.6594 3054.4395 2612.2942 3055.3586 2595.6357 3034.1473 2585.4553 3024.0025 2568.7974 3005.5577 2561.3951 2992.6473 2559.5478 2974.206 2555.8489 2958.5307 2556.7802 2932.7147 2561.4144 2903.2124 2572.5253 2881.0878 2585.4818 2884.7781 2602.1402 2890.3128 2610.4664 2911.5194 2618.7945 2923.5065 2613.238 2942.8675 2614.1608 2960.3859 2624.3407 2971.4518 2634.5211 2979.7516 2644.7007 2996.3498 2646.5471 3035.0772 Z" fill="none" stroke="#E71E24" opacity="0.5291005291005291" stroke-width="1" class="battery_park_city"/>
<path d="M 2627.6057 2797.2041 2586.853 2989.883 2585.9281 2986.1739 2558.1609 2967.2905 2587.8135 2789.8226 2627.6057 2797.2041 Z" fill="none" stroke="#E71E24" opacity="0.5291005291005291" stroke-width="1" class="battery_park_city"/>
<path d="M 2592.8681 2982.511 2646.5455 3047.9866 2595.6332 3047.9788 2556.3083 2973.7443 2585.9626 2790.2832 2623.4413 2796.7426 2626.217 2800.8914 2654.8966 2877.4132 2592.8681 2982.511 Z" fill="none" stroke="#E71E24" opacity="0.5291005291005291" stroke-width="1" class="battery_park_city"/>
<path d="M 2585.9624 2791.205 2620.2017 2800.8905 2625.753 2809.6491 2576.6634 3014.78 2575.2767 3006.02 2563.2458 2994.9528 2557.2323 2981.1208 2558.6238 2966.8295 2585.9624 2791.205 Z" fill="none" stroke="#E71E24" opacity="0.5291005291005291" stroke-width="1" class="battery_park_city"/>
<path d="M 2585.9249 2988.503 2572.9664 2987.5784 2569.2736 2941.0154 2591.9766 2797.1982 2626.6801 2798.1259 2585.9249 2988.503 Z" fill="none" stroke="#E71E24" opacity="0.5291005291005291" stroke-width="1" class="battery_park_city"/>
<path d="M 2585.463 2983.4317 2582.6839 2995.4178 2578.5185 2995.878 2631.7704 2795.361 2615.5648 2861.7349 2585.463 2983.4317 Z" fill="none" stroke="#E71E24" opacity="0.5291005291005291" stroke-width="1" class="battery_park_city"/>
<path d="M 2580.8343 2986.658 2577.5947 2986.6573 2561.1669 2977.4335 2588.9693 2795.1235 2623.6708 2809.4183 2624.3647 2810.8012 2582.6856 2986.6583 2580.8343 2986.658 Z" fill="none" stroke="#E71E24" opacity="0.5291005291005291" stroke-width="1" class="battery_park_city"/>
<path d="M 2613.6844 3045.2156 2593.7844 3033.686 2582.6803 3013.8591 2577.1298 2996.7998 2563.2459 2994.4918 2561.8654 2957.61 2591.0206 2962.226 2584.9995 2987.1198 2616.4707 2986.2032 2610.4496 3014.3251 2625.7214 3023.5483 2645.1614 3012.947 2647.0095 3038.7657 2613.6844 3045.2156 Z" fill="none" stroke="#E71E24" opacity="0.5291005291005291" stroke-width="1" class="battery_park_city"/>
<path d="M 2629.9198 2793.517 2589.1636 2993.5749 2537.3324 2977.889 2570.6948 2781.5225 2617.89 2788.9059 2629.9198 2793.517 Z" fill="none" stroke="#E71E24" opacity="0.5291005291005291" stroke-width="1" class="battery_park_city"/>
<path d="M 2628.994 2796.2825 2580.8319 2999.1057 2553.9899 2993.5677 2584.574 2792.5876 2628.994 2796.2825 Z" fill="none" stroke="#E71E24" opacity="0.5291005291005291" stroke-width="1" class="battery_park_city"/>
<path d="M 2590.5793 2846.519 2617.6473 2861.2743 2673.6365 2894.7018 2612.0733 2990.8128 2607.2097 3014.7856 2627.1097 3024.4706 2618.3125 3046.5995 2572.0385 2998.6429 2559.084 2978.8161 2561.8646 2961.2981 2567.4262 2923.0361 2572.9876 2883.3927 2577.1599 2846.0554 2590.5793 2846.519 Z" fill="none" stroke="#E71E24" opacity="0.5291005291005291" stroke-width="1" class="battery_park_city"/>
<path d="M 2581.7973 2794.4307 2584.5821 2750.183 2635.4786 2748.3477 2647.5086 2748.3493 2670.643 2751.1174 2692.8512 2764.9467 2703.9547 2784.3062 2702.1021 2811.0401 2674.3367 2832.2413 2648.4243 2826.707 2625.2917 2799.9694 2583.6115 2985.2754 2566.0234 2991.7262 2555.8448 2976.9713 2581.7973 2794.4307 Z" fill="none" stroke="#E71E24" opacity="0.5291005291005291" stroke-width="1" class="battery_park_city"/>
<path d="M 2585.4999 2789.8222 2624.3671 2794.4381 2585.4611 2993.5742 2560.4674 3001.8677 2555.845 2976.0493 2585.4999 2789.8222 Z" fill="none" stroke="#E71E24" opacity="0.5291005291005291" stroke-width="1" class="battery_park_city"/>
<path d="M 2578.0563 2992.6507 2566.9482 2995.4146 2554.92 2973.2829 2587.3504 2791.6662 2623.4417 2794.4379 2582.6871 2978.821 2578.0563 2992.6507 Z" fill="none" stroke="#E71E24" opacity="0.5291005291005291" stroke-width="1" class="battery_park_city"/>
<path d="M 2585.4999 2789.8222 2621.591 2793.5158 2578.9805 3000.0274 2575.2779 3000.0266 2561.3957 2989.8811 2559.55 2964.0637 2585.4999 2789.8222 Z" fill="none" stroke="#E71E24" opacity="0.5291005291005291" stroke-width="1" class="battery_park_city"/>
<path d="M 2584.5743 2790.7438 2669.7126 2800.4359 2659.5244 2875.1089 2612.322 2883.8609 2583.6107 2988.9636 2609.9908 2989.8904 2609.5235 3017.0912 2624.7962 3020.3208 2629.4222 3035.997 2539.1727 3023.301 2584.5743 2790.7438 Z" fill="none" stroke="#E71E24" opacity="0.5291005291005291" stroke-width="1" class="battery_park_city"/>
<path d="M 2586.3881 2986.198 2578.983 2987.1186 2566.9518 2978.3568 2565.1094 2936.8655 2586.8872 2794.4317 2624.8296 2795.8209 2603.9871 2914.7452 2586.3881 2986.198 Z" fill="none" stroke="#E71E24" opacity="0.5291005291005291" stroke-width="1" class="battery_park_city"/>
<path d="M 2580.3708 2990.3461 2552.6033 2985.2689 2568.3541 2911.9726 2574.1448 2882.01 2609.3129 2891.0055 2580.3708 2990.3461 Z" fill="none" stroke="#E71E24" opacity="0.5291005291005291" stroke-width="1" class="battery_park_city"/>
<path d="M 2617.8756 2881.0959 2610.4595 2953.9312 2703.0155 2993.5893 2569.731 2966.8319 2617.8756 2881.0959 Z" fill="none" stroke="#E71E24" opacity="0.5291005291005291" stroke-width="1" class="battery_park_city"/>
<path d="M 2556.7716 2971.4393 2585.2683 2791.4354 2625.2921 2797.4342 2586.389 2981.5878 2568.7993 2996.3371 2556.7716 2971.4393 Z" fill="none" stroke="#E71E24" opacity="0.5291005291005291" stroke-width="1" class="battery_park_city"/>
<path d="M 2695.6211 2850.6812 2692.8438 2860.8221 2688.2126 2905.9971 2691.452 2906.9194 2669.7008 2916.5982 2672.247 2906.6872 2658.1345 2889.8599 2663.92 2879.9496 2659.9881 2866.8115 2677.1099 2866.5828 2679.657 2844.457 2695.6211 2850.6812 Z" fill="none" stroke="#E71E24" opacity="0.5291005291005291" stroke-width="1" class="battery_park_city"/>
<path d="M 2610.4444 3046.1372 2574.813 3010.6303 2559.0831 2982.9653 2557.2344 2971.4394 2558.6265 2954.8433 2563.7215 2934.5602 2583.1862 2790.7436 2623.9041 2796.7426 2705.5707 2839.158 2666 2903.2292 2639.3851 2946.0984 2701.858 2999.5826 2610.4444 3046.1372 Z" fill="none" stroke="#E71E24" opacity="0.5291005291005291" stroke-width="1" class="battery_park_city"/>
<path d="M 2586.6565 2790.9747 2604.0076 2794.6653 2604.4706 2793.0521 2623.6728 2796.0512 2593.3379 2944.4776 2578.057 2989.3083 2570.5361 2989.9983 2570.1888 2991.1508 2561.1646 2988.1522 2556.7722 2969.019 2559.3206 2955.1892 2568.0071 2911.5115 2575.5362 2866.3374 2586.6565 2790.9747 Z" fill="none" stroke="#E71E24" opacity="0.5291005291005291" stroke-width="1" class="battery_park_city"/>
<path d="M 2586.3873 2990.3472 2561.3971 2982.9658 2584.1108 2794.8921 2625.2918 2799.5084 2586.3873 2990.3472 Z" fill="none" stroke="#E71E24" opacity="0.5291005291005291" stroke-width="1" class="battery_park_city"/>
<path d="M 2583.6109 2988.0416 2562.7846 2987.5763 2552.142 2978.3535 2587.8126 2794.4319 2629.4564 2798.1263 2583.6109 2988.0416 Z" fill="none" stroke="#E71E24" opacity="0.5291005291005291" stroke-width="1" class="battery_park_city"/>
<path d="M 2571.5788 2983.4289 2559.389 2938.6963 2586.258 2793.9587 2622.3489 2799.496 2590.0951 2962.2258 2571.5788 2983.4289 Z" fill="none" stroke="#E71E24" opacity="0.5291005291005291" stroke-width="1" class="battery_park_city"/>
<path d="M 2580.8343 2986.658 2554.9184 2980.6592 2587.3497 2795.3537 2624.8273 2811.4927 2580.8343 2986.658 Z" fill="none" stroke="#E71E24" opacity="0.5291005291005291" stroke-width="1" class="battery_park_city"/>
<path d="M 2613.4523 3049.1345 2601.651 3042.9083 2563.9399 2995.6445 2557.6978 2968.9039 2580.6336 2829.9228 2678.4964 2885.2522 2614.6188 2990.1216 2613.4523 3049.1345 Z" fill="none" stroke="#E71E24" opacity="0.5291005291005291" stroke-width="1" class="battery_park_city"/>
<path d="M 2582.7238 2788.8998 2629.919 2799.0482 2584.538 2980.6654 2577.1301 2995.4167 2565.0979 2990.804 2553.9946 2972.3607 2582.7238 2788.8998 Z" fill="none" stroke="#E71E24" opacity="0.5291005291005291" stroke-width="1" class="battery_park_city"/>
<path d="M 2585.4995 2792.1268 2626.6804 2796.0517 2582.2225 2987.8108 2560.702 2987.1148 2557.2349 2969.3648 2558.8573 2957.3789 2566.0306 2957.3804 2569.7353 2946.0865 2561.8687 2942.1663 2584.8041 2799.0406 2585.4995 2792.1268 Z" fill="none" stroke="#E71E24" opacity="0.5291005291005291" stroke-width="1" class="battery_park_city"/>
<path d="M 2579.0038 2882.011 2605.61 2896.0757 2579.678 2982.9695 2570.6522 2988.5 2560.9362 2974.4368 2559.7828 2957.8401 2571.132 2905.5193 2575.5331 2882.0103 2579.0038 2882.011 Z" fill="none" stroke="#E71E24" opacity="0.5291005291005291" stroke-width="1" class="battery_park_city"/>
<path d="M 2585.0375 2788.4393 2622.0533 2795.8205 2578.0569 2989.4236 2565.5607 2991.2651 2556.3095 2968.2121 2585.0375 2788.4393 Z" fill="none" stroke="#E71E24" opacity="0.5291005291005291" stroke-width="1" class="battery_park_city"/>
<path d="M 2801.1167 2596.2685 2872.345 2464.4736 2974.1181 2516.0643 2932.4994 2591.646 3007.4542 2634.949 2943.6338 2759.4017 2801.1167 2596.2685 Z" fill="none" stroke="#E71E24" opacity="0.5291005291005291" stroke-width="1" class="battery_park_city"/>
<path d="M 2644.8477 2780.4057 2646.0558 2755.1162 2646.057 2745.898 2735.8176 2792.9188 2686.763 2874.965 2625.6569 3027.09 2610.8576 2958.8557 2641.4291 2753.272 2644.8477 2780.4057 Z" fill="none" stroke="#E71E24" opacity="0.5291005291005291" stroke-width="1" class="battery_park_city"/>
<path d="M 2807.6162 3107.932 3267.7482 3184.3422 3074.2706 3236.9943 2807.6162 3107.932 Z" fill="none" stroke="#E71E24" opacity="0.5291005291005291" stroke-width="1" class="battery_park_city"/>
<path d="M 2595.0083 2893.0938 2596.2414 2892.7014 2605.7271 2898.6958 2579.863 2982.202 2561.3528 2972.4015 2571.8712 2887.9034 2595.0083 2893.0938 Z" fill="none" stroke="#E71E24" opacity="0.5291005291005291" stroke-width="1" class="battery_park_city"/>
<path d="M 2582.6858 2985.2752 2555.8432 2984.3476 2582.7244 2786.1342 2630.8458 2789.8297 2582.6858 2985.2752 Z" fill="none" stroke="#E71E24" opacity="0.5291005291005291" stroke-width="1" class="battery_park_city"/>
<path d="M 2628.994 2796.2825 2580.8346 2985.2749 2562.3209 2991.7254 2557.7001 2958.5311 2585.4992 2793.5096 2628.994 2796.2825 Z" fill="none" stroke="#E71E24" opacity="0.5291005291005291" stroke-width="1" class="battery_park_city"/>
<path d="M 2559.436 2956.5722 2575.8655 2954.9621 2578.6361 2986.0812 2576.4371 2989.308 2570.1888 2991.0356 2561.5116 2988.7286 2557.1191 2969.9411 2559.436 2956.5722 Z" fill="none" stroke="#E71E24" opacity="0.5291005291005291" stroke-width="1" class="battery_park_city"/>
<path d="M 2611.3798 2986.2024 2606.7596 2939.1784 2637.3298 2745.5825 2665.0881 2775.0844 2661.3907 2736.3674 2718.7612 2788.9163 2620.6343 2997.2685 2611.3798 2986.2024 Z" fill="none" stroke="#E71E24" opacity="0.5291005291005291" stroke-width="1" class="battery_park_city"/>
<path d="M 2636.3973 2797.2054 2790.0226 2931.8155 2679.8721 3024.0158 2611.3714 3037.8384 2578.0557 2995.4169 2567.8891 2922.5752 2586.4238 2798.1191 2636.3973 2797.2054 Z" fill="none" stroke="#E71E24" opacity="0.5291005291005291" stroke-width="1" class="battery_park_city"/>
<path d="M 2584.9994 2987.8113 2610.6849 2990.582 2627.11 3022.3959 2633.3542 3050.7512 2601.1881 3042.9083 2566.0231 2992.8788 2555.6155 2967.2899 2566.2699 2920.0394 2574.6117 2861.2666 2585.9623 2791.666 2624.3668 2796.5122 2608.6165 2904.8348 2585.4624 2986.6589 2584.9994 2987.8113 Z" fill="none" stroke="#E71E24" opacity="0.5291005291005291" stroke-width="1" class="battery_park_city"/>
<path d="M 2621.1262 2806.8828 2607.2465 2795.3572 2610.4854 2796.2796 2624.8293 2798.1256 2612.7866 2872.3367 2608.1569 2885.7041 2603.0609 2918.433 2591.0214 2958.0769 2585.9274 2975.1334 2587.7772 2982.9711 2602.1232 2988.967 2608.1364 3008.7923 2611.3745 3018.4746 2625.2574 3030.9249 2633.1228 3050.7512 2609.519 3044.2928 2581.754 3017.0862 2559.5461 2982.0433 2561.402 2960.376 2569.7422 2912.8948 2577.1578 2856.6575 2582.2538 2826.6965 2588.2744 2799.5022 2603.5447 2795.8175 2621.1262 2806.8828 Z" fill="none" stroke="#E71E24" opacity="0.5291005291005291" stroke-width="1" class="battery_park_city"/>
<path d="M 2586.0544 2794.2011 2815.7469 2810.0729 2807.608 2924.946 2568.8149 2921.4229 2618.4245 2922.1695 2569.0003 2919.7634 2586.0544 2794.2011 Z" fill="none" stroke="#E71E24" opacity="0.5291005291005291" stroke-width="1" class="battery_park_city"/>
<path d="M 2584.5735 2795.3531 2624.3667 2797.2036 2578.0574 2987.1184 2561.4022 2959.454 2583.6427 2823.0092 2584.5735 2795.3531 Z" fill="none" stroke="#E71E24" opacity="0.5291005291005291" stroke-width="1" class="battery_park_city"/>
<path d="M 2585.4998 2790.744 2627.1429 2798.1259 2578.0561 2993.5728 2554.917 2986.6525 2585.4998 2790.744 Z" fill="none" stroke="#E71E24" opacity="0.5291005291005291" stroke-width="1" class="battery_park_city"/>
<path d="M 2546.6071 2897.6773 2721.762 2938.0383 2725.6949 2955.0956 2724.3053 2982.5259 2708.3372 3003.0408 2684.2689 3024.2467 2659.7375 3038.5366 2640.5291 3044.528 2605.5851 3042.909 2561.8617 2974.898 2546.6071 2897.6773 Z" fill="none" stroke="#E71E24" opacity="0.5291005291005291" stroke-width="1" class="battery_park_city"/>
<path d="M 2577.1308 2991.7285 2567.8777 2976.9739 2566.9608 2935.4829 2574.3758 2883.854 2576.2383 2826.6953 2591.9771 2794.4327 2629.9192 2798.1263 2623.4378 2820.2504 2616.9515 2871.8764 2603.9861 2920.7381 2606.7632 2917.9726 2591.0203 2964.07 2577.1308 2991.7285 Z" fill="none" stroke="#E71E24" opacity="0.5291005291005291" stroke-width="1" class="battery_park_city"/>
<path d="M 2617.8787 2860.8134 2591.4827 2966.3752 2586.3884 2984.8149 2578.0577 2985.7354 2569.2636 2988.9607 2559.0823 2986.6535 2555.8455 2973.7442 2557.2375 2957.609 2562.7956 2936.404 2569.2798 2911.0508 2570.6739 2882.9313 2575.7675 2866.7984 2581.3282 2827.1573 2586.4253 2790.2833 2608.6347 2795.3574 2625.7547 2798.1257 2617.8787 2860.8134 Z" fill="none" stroke="#E71E24" opacity="0.5291005291005291" stroke-width="1" class="battery_park_city"/>
<path d="M 2623.4413 2797.2035 2618.8141 2797.2028 2621.5897 2801.8126 2590.0962 2955.7716 2559.5522 2953.9214 2588.276 2790.7445 2623.4413 2797.2035 Z" fill="none" stroke="#E71E24" opacity="0.5291005291005291" stroke-width="1" class="battery_park_city"/>
<path d="M 2611.8419 2990.8127 2610.9151 2997.728 2609.7569 3005.1043 2609.9871 3012.4809 2613.6884 3019.8581 2618.3164 3021.4725 2626.8787 3021.4738 2640.996 3013.6381 2644.6965 3029.3139 2650.4788 3054.4419 2640.5276 3055.5933 2625.2532 3059.5101 2613.4513 3055.3588 2602.345 3044.5221 2581.9849 3019.8525 2563.4774 2994.2613 2556.0776 2970.7476 2561.1745 2942.3967 2572.5252 2881.7792 2585.7132 2884.7781 2595.1984 2892.386 2606.3038 2897.6892 2581.7599 2987.1192 2589.3962 2987.1206 2601.892 2987.5839 2611.8419 2990.8127 Z" fill="none" stroke="#E71E24" opacity="0.5291005291005291" stroke-width="1" class="battery_park_city"/>
<path d="M 2587.3499 2794.4318 2626.2176 2797.2039 2579.9075 2992.6511 2556.7696 2980.6597 2587.3499 2794.4318 Z" fill="none" stroke="#E71E24" opacity="0.5291005291005291" stroke-width="1" class="battery_park_city"/>
<path d="M 2605.9684 2828.6598 2588.0436 2796.5061 2623.4416 2795.1293 2577.5949 2985.5048 2562.7852 2984.5797 2558.623 2970.7482 2571.5971 2894.4559 2582.0182 2848.5917 2588.0435 2796.9671 2605.9684 2828.6598 Z" fill="none" stroke="#E71E24" opacity="0.5291005291005291" stroke-width="1" class="battery_park_city"/>
<path d="M 2569.7262 2989.8829 2558.6206 2981.5821 2559.5531 2950.2334 2585.4994 2792.5877 2628.9936 2799.0481 2584.5374 2983.4315 2569.7262 2989.8829 Z" fill="none" stroke="#E71E24" opacity="0.5291005291005291" stroke-width="1" class="battery_park_city"/>
<path d="M 2589.663 2796.9674 2585.0369 2791.4353 2681.0453 2843.7657 2697.2403 2855.7519 2621.5634 2974.6785 2630.5775 3048.215 2600.4939 3042.6776 2563.7098 2989.4206 2555.3836 2969.5949 2561.8691 2940.5528 2584.5746 2789.3611 2589.663 2796.9674 Z" fill="none" stroke="#E71E24" opacity="0.5291005291005291" stroke-width="1" class="battery_park_city"/>
<path d="M 2583.1854 2794.8919 2588.7392 2788.44 2610.9491 2790.2876 2623.4408 2800.43 2597.5057 2929.0349 2574.353 2996.7992 2558.1583 2979.2769 2583.1854 2794.8919 Z" fill="none" stroke="#E71E24" opacity="0.5291005291005291" stroke-width="1" class="battery_park_city"/>
<path d="M 2583.6162 2960.3805 2600.2808 2938.2553 2603.9909 2892.1571 2627.1335 2861.7367 2658.5982 2881.1014 2691.9167 2882.0266 2721.5325 2895.8577 2762.2556 2948.4118 2743.7437 2960.3978 2725.231 2981.6039 2693.7579 3011.1078 2686.3525 3013.8735 2653.0249 3050.7537 2600.2642 3033.2261 2583.6162 2960.3805 Z" fill="none" stroke="#E71E24" opacity="0.5291005291005291" stroke-width="1" class="battery_park_city"/>
<path d="M 2583.6086 3000.0283 2677.0967 3007.4182 2622.4797 3035.996 2585.459 3004.6389 2583.6086 3000.0283 Z" fill="none" stroke="#E71E24" opacity="0.5291005291005291" stroke-width="1" class="battery_park_city"/>
<path d="M 2572.9879 2882.125 2647.254 2934.3439 2611.4949 2989.8906 2609.5243 3012.135 2616.8122 3021.7027 2614.6132 3025.506 2614.9586 3036.3406 2617.9665 3039.4531 2613.9154 3047.8667 2603.8496 3042.2171 2602.6923 3043.3696 2574.4669 3005.4436 2560.8175 2988.3827 2557.2368 2960.8361 2572.9879 2882.125 Z" fill="none" stroke="#E71E24" opacity="0.5291005291005291" stroke-width="1" class="battery_park_city"/>
<path d="M 2578.7519 2985.505 2572.2739 2979.2799 2570.8873 2970.5203 2573.897 2962.9142 2575.0547 2959.4568 2576.4435 2957.613 2580.1473 2950.2377 2577.6023 2948.1626 2573.669 2946.0873 2564.6455 2941.9364 2565.5727 2934.5606 2574.1447 2882.471 2578.5485 2844.2119 2581.5609 2820.4736 2585.0378 2787.0565 2625.7549 2796.7429 2578.7519 2985.505 Z" fill="none" stroke="#E71E24" opacity="0.5291005291005291" stroke-width="1" class="battery_park_city"/>
<path d="M 2585.9622 2792.1269 2627.3742 2798.126 2614.8711 2859.1995 2608.386 2899.5335 2583.3797 2987.1195 2564.4043 2988.0377 2585.9622 2792.1269 Z" fill="none" stroke="#E71E24" opacity="0.5291005291005291" stroke-width="1" class="battery_park_city"/>
<path d="M 2623.4514 2729.9098 2708.5848 2735.4496 2666.9507 2661.7047 2602.1732 2699.4875 2621.5998 2735.4404 2627.1545 2718.8489 2643.8157 2681.0586 2661.3927 2717.9315 2717.8382 2740.981 2666.936 2802.7402 2649.3607 2737.2878 2603.0738 2843.2945 2623.4514 2729.9098 Z" fill="none" stroke="#E71E24" opacity="0.5291005291005291" stroke-width="1" class="battery_park_city"/>
<path d="M 2585.4998 2790.744 2621.59 2799.9688 2587.3111 3000.029 2559.5476 2975.128 2585.4998 2790.744 Z" fill="none" stroke="#E71E24" opacity="0.5291005291005291" stroke-width="1" class="battery_park_city"/>
<path d="M 2556.7722 2968.6732 2568.8219 2887.5406 2628.9699 2963.1542 2634.5145 3027.6989 2601.1876 3046.1356 2581.7504 3035.9889 2567.8719 3004.6354 2556.7722 2968.6732 Z" fill="none" stroke="#E71E24" opacity="0.5291005291005291" stroke-width="1" class="battery_park_city"/>
<path d="M 2583.6484 2793.5092 2628.0688 2794.4386 2587.3134 2988.0423 2550.2911 2976.97 2583.6484 2793.5092 Z" fill="none" stroke="#E71E24" opacity="0.5291005291005291" stroke-width="1" class="battery_park_city"/>
<path d="M 2576.2073 2981.5858 2594.7452 2839.6054 2757.6278 2934.5817 2670.6163 3016.6382 2576.2073 2981.5858 Z" fill="none" stroke="#E71E24" opacity="0.5291005291005291" stroke-width="1" class="battery_park_city"/>
<path d="M 2577.1413 2939.173 2647.4835 2949.3265 2674.322 2984.3665 2676.1692 3026.7817 2637.2892 3044.297 2598.412 3037.8362 2580.8308 3004.638 2572.5059 2976.0528 2577.1413 2939.173 Z" fill="none" stroke="#E71E24" opacity="0.5291005291005291" stroke-width="1" class="battery_park_city"/>
<path d="M 2625.2924 2795.3601 2574.3514 3004.6368 2557.6966 2974.2056 2584.5742 2791.6657 2625.2924 2795.3601 Z" fill="none" stroke="#E71E24" opacity="0.5291005291005291" stroke-width="1" class="battery_park_city"/>
<path d="M 2586.8875 2793.0489 2622.5158 2797.2034 2579.9084 2988.5019 2563.2467 2990.8036 2586.8875 2793.0489 Z" fill="none" stroke="#E71E24" opacity="0.5291005291005291" stroke-width="1" class="battery_park_city"/>
<path d="M 2591.051 2798.1199 2632.6951 2800.8923 2586.3871 2991.7303 2564.1774 2966.8307 2591.051 2798.1199 Z" fill="none" stroke="#E71E24" opacity="0.5291005291005291" stroke-width="1" class="battery_park_city"/>
<path d="M 2586.8865 2798.1192 2597.5296 2794.4337 2604.933 2794.8959 2619.2774 2793.5154 2626.2178 2795.3602 2628.5305 2801.8136 2625.7529 2810.11 2619.271 2835 2618.8057 2851.5943 2612.784 2888.4707 2608.6164 2905.5263 2606.7626 2921.6606 2602.5951 2935.9507 2600.742 2947.0144 2596.1118 2959.9218 2594.2594 2966.8367 2593.3312 2981.1281 2590.5547 2979.2835 2588.7026 2983.8933 2583.6115 2984.8144 2575.7433 2987.118 2583.1478 2989.8856 2578.5196 2990.3457 2573.4283 2992.1888 2566.0254 2982.0447 2559.5473 2976.5111 2560.0144 2956.6876 2563.7213 2935.4822 2566.9648 2916.5821 2572.5224 2895.378 2574.3763 2881.5491 2579.9343 2856.658 2583.1777 2834.5328 2586.8849 2806.416 2586.8865 2798.1192 Z" fill="none" stroke="#E71E24" opacity="0.5291005291005291" stroke-width="1" class="battery_park_city"/>
<path d="M 2556.7706 2976.0495 2559.5498 2964.9857 2582.7233 2791.6653 2628.9941 2795.3606 2586.3878 2988.0421 2602.115 3035.9927 2580.8267 3025.8458 2573.4274 2996.338 2566.022 2998.1806 2556.7706 2976.0495 Z" fill="none" stroke="#E71E24" opacity="0.5291005291005291" stroke-width="1" class="battery_park_city"/>
<path d="M 2631.7698 2799.9703 2607.6826 2954.8527 2588.3755 2995.3986 2557.8317 2987.0939 2587.4854 2807.3177 2596.898 2797.1991 2631.7698 2799.9703 Z" fill="none" stroke="#E71E24" opacity="0.5291005291005291" stroke-width="1" class="battery_park_city"/>
<path d="M 2582.6858 2985.2752 2575.5114 2989.8841 2563.7095 2990.8037 2552.8354 2982.2724 2585.5001 2788.9003 2586.194 2789.8223 2628.7626 2796.7434 2614.4075 2864.5005 2582.6858 2985.2752 Z" fill="none" stroke="#E71E24" opacity="0.5291005291005291" stroke-width="1" class="battery_park_city"/>
<path d="M 2610.9475 2799.5062 2643.7945 2845.6054 2609.5273 2994.0395 2628.9577 3047.0621 2503.0804 2994.016 2587.3515 2786.1351 2610.9475 2799.5062 Z" fill="none" stroke="#E71E24" opacity="0.5291005291005291" stroke-width="1" class="battery_park_city"/>
<path d="M 2627.1434 2794.4385 2586.388 2987.1201 2573.4278 2994.4939 2566.948 2996.3367 2558.6204 2982.5042 2559.5502 2963.1416 2586.4254 2789.8223 2627.1434 2794.4385 Z" fill="none" stroke="#E71E24" opacity="0.5291005291005291" stroke-width="1" class="battery_park_city"/>
<path d="M 2501.2628 2873.695 2588.2563 2895.8421 2624.3391 2981.5942 2533.625 2998.1732 2501.2628 2873.695 Z" fill="none" stroke="#E71E24" opacity="0.5291005291005291" stroke-width="1" class="battery_park_city"/>
<path d="M 2560.0077 2987.5757 2577.1721 2784.7503 2604.4707 2792.7064 2621.128 2795.2442 2627.2588 2796.5127 2626.7953 2801.5829 2619.9657 2831.1973 2616.9548 2850.9026 2609.3156 2874.7562 2608.1564 2888.47 2606.7659 2901.8381 2591.7162 2954.6194 2583.3798 2986.5432 2575.9743 2989.5384 2569.6102 2991.727 2560.0077 2987.5757 Z" fill="none" stroke="#E71E24" opacity="0.5291005291005291" stroke-width="1" class="battery_park_city"/>
<path d="M 2557.6995 2961.2972 2588.275 2796.2757 2626.2157 2810.1101 2616.0362 2807.3429 2585.463 2983.4317 2581.7599 2987.1192 2566.0265 2976.9735 2557.6995 2961.2972 Z" fill="none" stroke="#E71E24" opacity="0.5291005291005291" stroke-width="1" class="battery_park_city"/>
<path d="M 2585.9618 2794.4315 2624.3669 2796.0513 2607.4604 2899.5333 2578.5198 2988.9626 2545.6599 2990.7996 2567.9165 2791.6624 2585.9618 2794.4315 Z" fill="none" stroke="#E71E24" opacity="0.5291005291005291" stroke-width="1" class="battery_park_city"/>
<path d="M 2589.2006 2795.354 2661.382 2815.6459 2641.9384 2885.2482 2625.2723 2930.8834 2585.9311 2955.7709 2562.7931 2947.9291 2589.2006 2795.354 Z" fill="none" stroke="#E71E24" opacity="0.5291005291005291" stroke-width="1" class="battery_park_city"/>
<path d="M 2583.6491 2789.8218 2627.1437 2792.5947 2611.4001 2861.7343 2600.2858 2909.6737 2584.5394 2973.2891 2581.7597 2988.0412 2568.7995 2995.415 2554.92 2973.2829 2583.6491 2789.8218 Z" fill="none" stroke="#E71E24" opacity="0.5291005291005291" stroke-width="1" class="battery_park_city"/>
<path d="M 2569.979 2886.6189 2606.9976 2899.879 2599.0067 2946.3226 2629.2015 2961.656 2617.5043 3035.6494 2579.556 3014.8958 2558.3946 2956.9178 2570.7885 2888.5782 2571.3672 2887.3107 2569.979 2886.6189 Z" fill="none" stroke="#E71E24" opacity="0.5291005291005291" stroke-width="1" class="battery_park_city"/>
<path d="M 2585.9624 2790.9746 2626.6803 2796.9735 2578.9827 2988.5017 2564.1723 2990.8038 2557.2346 2970.5174 2585.9624 2790.9746 Z" fill="none" stroke="#E71E24" opacity="0.5291005291005291" stroke-width="1" class="battery_park_city"/>
<path d="M 2585.0375 2788.4393 2628.994 2796.2825 2585.9249 2988.503 2562.3207 2992.6475 2557.2345 2970.9784 2585.0375 2788.4393 Z" fill="none" stroke="#E71E24" opacity="0.5291005291005291" stroke-width="1" class="battery_park_city"/>
<path d="M 2566.9492 2990.8044 2579.9476 2788.8992 2626.2174 2798.1258 2594.716 3000.9524 2545.6588 2995.4099 2575.3193 2794.4295 2566.9492 2990.8044 Z" fill="none" stroke="#E71E24" opacity="0.5291005291005291" stroke-width="1" class="battery_park_city"/>
<path d="M 2564.6463 2938.4789 2570.0889 2914.6236 2572.8691 2897.4525 2580.1613 2878.8997 2578.4299 2858.6168 2580.8632 2839.0266 2583.179 2828.0795 2585.6123 2807.3376 2585.6143 2796.9666 2585.6149 2793.6248 2589.6634 2794.7779 2596.1415 2794.4334 2598.4549 2795.5862 2611.7578 2796.6255 2612.2204 2796.9713 2621.7061 2796.8575 2627.1497 2751.5729 2629.6945 2751.2276 2632.355 2751.4584 2633.0487 2754.224 2629.8063 2778.7673 2623.9018 2811.6078 2618.1128 2843.297 2611.515 2866.8049 2608.5039 2885.9346 2603.409 2912.4402 2597.6212 2929.9569 2594.8423 2942.4034 2592.2959 2948.1654 2590.5599 2951.2769 2587.6668 2954.6187 2584.7738 2957.4994 2583.5005 2960.8415 2581.996 2962.6853 2580.1439 2967.1798 2581.0696 2967.0647 2577.5954 2982.8539 2578.2895 2983.5456 2578.868 2983.4304 2576.3219 2986.6571 2570.8835 2988.9611 2563.8258 2988.0376 2559.3176 2968.789 2564.6463 2938.4789 Z" fill="none" stroke="#E71E24" opacity="0.5291005291005291" stroke-width="1" class="battery_park_city"/>
<path d="M 2591.9767 2796.2764 2635.4716 2799.049 2588.2395 2985.2763 2555.8434 2983.4256 2591.9767 2796.2764 Z" fill="none" stroke="#E71E24" opacity="0.5291005291005291" stroke-width="1" class="battery_park_city"/>
<path d="M 2620.2022 2797.6639 2579.9093 2983.8916 2562.3224 2984.8101 2558.1608 2967.7515 2587.813 2792.5882 2620.2022 2797.6639 Z" fill="none" stroke="#E71E24" opacity="0.5291005291005291" stroke-width="1" class="battery_park_city"/>
<path d="M 2585.4987 2796.2752 2590.1267 2791.6667 2626.2177 2796.2821 2584.5369 2986.1977 2567.8746 2991.7266 2560.477 2957.6097 2585.4987 2796.2752 Z" fill="none" stroke="#E71E24" opacity="0.5291005291005291" stroke-width="1" class="battery_park_city"/>
<path d="M 2583.6489 2790.7437 2628.0686 2796.2823 2576.2039 2998.1827 2552.1424 2976.9705 2583.6489 2790.7437 Z" fill="none" stroke="#E71E24" opacity="0.5291005291005291" stroke-width="1" class="battery_park_city"/>
<path d="M 2569.5434 2983.1408 2590.858 2845.7704 2688.0311 2874.3631 2608.4185 2987.7583 2569.5434 2983.1408 Z" fill="none" stroke="#E71E24" opacity="0.5291005291005291" stroke-width="1" class="battery_park_city"/>
<path d="M 2585.4994 2792.5877 2621.5903 2798.1251 2628.0678 2801.8135 2617.8822 2838.6874 2603.0608 2918.894 2581.7575 2999.1059 2565.0962 2999.1025 2557.6997 2960.3752 2570.658 2960.3779 2571.586 2948.3919 2558.6299 2939.1691 2574.376 2882.932 2589.1839 2884.7788 2597.5173 2863.5757 2577.1566 2862.65 2585.4994 2792.5877 Z" fill="none" stroke="#E71E24" opacity="0.5291005291005291" stroke-width="1" class="battery_park_city"/>
<path d="M 2587.3136 2987.1202 2563.2465 2991.7256 2556.773 2964.9851 2584.5742 2791.6657 2622.9786 2797.2034 2587.3136 2987.1202 Z" fill="none" stroke="#E71E24" opacity="0.5291005291005291" stroke-width="1" class="battery_park_city"/>
<path d="M 2588.275 2796.2757 2604.9326 2797.2005 2589.2011 2792.5884 2631.7703 2796.2829 2576.2054 2990.8063 2561.3953 2991.7252 2550.2895 2984.3464 2579.9438 2808.2584 2588.275 2796.2757 Z" fill="none" stroke="#E71E24" opacity="0.5291005291005291" stroke-width="1" class="battery_park_city"/>
<path d="M 2627.126 2913.366 2658.5946 2913.37 2696.5382 2965.0056 2641.9227 3005.5701 2627.126 2913.366 Z" fill="none" stroke="#E71E24" opacity="0.5291005291005291" stroke-width="1" class="battery_park_city"/>
<path d="M 2582.9167 2987.9262 2578.0576 2986.0811 2576.4371 2989.4232 2562.0901 2988.6135 2559.5516 2957.0333 2565.5676 2958.4176 2569.0415 2944.1271 2563.0257 2942.2818 2573.2192 2882.2403 2587.5644 2883.9718 2591.27 2864.6118 2576.4626 2861.7279 2586.3093 2791.666 2627.8368 2798.9327 2607.8082 2895.3846 2582.9167 2987.9262 Z" fill="none" stroke="#E71E24" opacity="0.5291005291005291" stroke-width="1" class="battery_park_city"/>
<path d="M 2554.9184 2980.6592 2581.7982 2789.8214 2628.0683 2798.1261 2598.413 3032.3037 2554.9184 2980.6592 Z" fill="none" stroke="#E71E24" opacity="0.5291005291005291" stroke-width="1" class="battery_park_city"/>
<path d="M 2583.1482 2987.5805 2565.5596 2996.3364 2558.1587 2977.4328 2583.6492 2789.3609 2629.4568 2795.8216 2583.1482 2987.5805 Z" fill="none" stroke="#E71E24" opacity="0.5291005291005291" stroke-width="1" class="battery_park_city"/>
<path d="M 2582.8326 2856.4281 2611.0818 2872.203 2609.1333 2872.6879 2590.1196 2961.2431 2602.2978 2965.1275 2595.9604 2989.3906 2562.5894 2989.1413 2581.6148 2856.1853 2582.8326 2856.4281 Z" fill="none" stroke="#E71E24" opacity="0.5291005291005291" stroke-width="1" class="battery_park_city"/>
<path d="M 2625.2921 2797.2038 2584.9999 2985.2757 2561.3945 2995.4134 2585.0363 2794.4314 2625.2921 2797.2038 Z" fill="none" stroke="#E71E24" opacity="0.5291005291005291" stroke-width="1" class="battery_park_city"/>
<path d="M 2585.9624 2791.205 2630.8448 2796.7437 2584.0743 2985.2755 2599.8097 2985.7394 2612.7676 2990.3519 2609.5245 3011.0977 2616.9277 3023.0859 2628.0358 3021.2434 2630.8096 3043.835 2609.9818 3044.2929 2590.545 3031.3801 2578.0531 3008.7868 2560.9344 2982.5047 2560.9394 2959.4539 2585.9624 2791.205 Z" fill="none" stroke="#E71E24" opacity="0.5291005291005291" stroke-width="1" class="battery_park_city"/>
<path d="M 2583.1482 2987.5805 2564.6351 2990.8039 2557.2344 2971.4394 2586.4252 2790.7442 2626.6801 2798.5868 2583.1482 2987.5805 Z" fill="none" stroke="#E71E24" opacity="0.5291005291005291" stroke-width="1" class="battery_park_city"/>
<path d="M 2586.8875 2793.0489 2624.8297 2795.36 2581.7596 2988.5022 2564.1726 2989.4207 2555.3835 2970.0559 2582.2607 2791.2043 2583.6483 2793.9702 2586.8875 2793.0489 Z" fill="none" stroke="#E71E24" opacity="0.5291005291005291" stroke-width="1" class="battery_park_city"/>
<path d="M 2598.4469 2840.528 2601.2116 2907.83 2572.517 2921.6542 2581.7884 2840.5249 2598.4469 2840.528 Z" fill="none" stroke="#E71E24" opacity="0.5291005291005291" stroke-width="1" class="battery_park_city"/>
<path d="M 2628.7604 2811.7238 2624.2489 2811.6079 2622.9756 2816.4475 2606.0732 2893.3099 2585.2305 2989.425 2559.7764 2987.3451 2573.6871 2857.1177 2585.037 2791.2049 2623.4413 2797.2035 2628.7604 2811.7238 Z" fill="none" stroke="#E71E24" opacity="0.5291005291005291" stroke-width="1" class="battery_park_city"/>
<path d="M 2585.9622 2792.1269 2628.5308 2799.5089 2582.2219 2991.2685 2567.4126 2988.0383 2555.3807 2982.9645 2585.9622 2792.1269 Z" fill="none" stroke="#E71E24" opacity="0.5291005291005291" stroke-width="1" class="battery_park_city"/>
<path d="M 2591.9672 2847.9021 2616.0272 2864.0398 2580.8334 2991.2682 2571.5771 2991.7274 2579.475 2839.1416 2571.1148 2989.4222 2579.0127 2836.8367 2555.3818 2977.8932 2569.2628 2993.11 2591.9672 2847.9021 Z" fill="none" stroke="#E71E24" opacity="0.5291005291005291" stroke-width="1" class="battery_park_city"/>
<path d="M 2588.275 2796.2757 2632.6948 2802.7361 2598.4261 2958.5392 2569.7327 2958.5337 2564.1784 2962.2206 2559.5527 2952.0774 2588.275 2796.2757 Z" fill="none" stroke="#E71E24" opacity="0.5291005291005291" stroke-width="1" class="battery_park_city"/>
<path d="M 2605.5105 2800.1967 2622.861 2809.7639 2644.1447 2821.7513 2647.6149 2823.7108 2664.619 2834.545 2645.5272 2866.4641 2627.589 2911.7526 2603.6277 2986.3164 2575.3964 2986.4264 2561.7435 2986.5388 2560.0148 2954.9588 2568.9333 2908.5153 2571.2519 2885.2363 2579.1276 2840.5244 2603.0813 2799.6201 2603.5441 2799.3897 2605.5105 2800.1967 Z" fill="none" stroke="#E71E24" opacity="0.5291005291005291" stroke-width="1" class="battery_park_city"/>
<path d="M 2587.3464 2812.8692 2701.1809 2748.3545 2749.2974 2956.7098 2611.3693 3050.7479 2557.698 2967.7514 2587.3464 2812.8692 Z" fill="none" stroke="#E71E24" opacity="0.5291005291005291" stroke-width="1" class="battery_park_city"/>
<path d="M 2586.4251 2791.2051 2588.7467 2748.3401 2630.851 2753.4171 2579.908 2990.346 2566.9481 2995.8757 2557.6975 2970.0564 2586.4251 2791.2051 Z" fill="none" stroke="#E71E24" opacity="0.5291005291005291" stroke-width="1" class="battery_park_city"/>
<path d="M 2613.4831 2857.8164 2583.8713 2837.5291 2594.2908 2793.5112 2627.6089 2775.3101 2613.4831 2857.8164 Z" fill="none" stroke="#E71E24" opacity="0.5291005291005291" stroke-width="1" class="battery_park_city"/>
<path d="M 2581.7973 2794.4307 2630.8443 2799.9702 2588.2371 2998.185 2556.7677 2988.9581 2581.7973 2794.4307 Z" fill="none" stroke="#E71E24" opacity="0.5291005291005291" stroke-width="1" class="battery_park_city"/>
<path d="M 2584.5745 2789.822 2620.6654 2794.4375 2576.2056 2989.8842 2562.3203 2994.4916 2554.921 2968.6728 2584.5745 2789.822 Z" fill="none" stroke="#E71E24" opacity="0.5291005291005291" stroke-width="1" class="battery_park_city"/>
<path d="M 2620.6621 2816.1015 2586.8519 2981.1268 2563.7149 2965.4476 2595.2155 2797.6598 2620.6621 2816.1015 Z" fill="none" stroke="#E71E24" opacity="0.5291005291005291" stroke-width="1" class="battery_park_city"/>
<path d="M 2563.7095 2990.8037 2558.1606 2968.6735 2585.4996 2791.6659 2623.9037 2799.0473 2606.3043 2894.9233 2585.9281 2971.4453 2579.9088 2986.1968 2594.2558 2986.6605 2578.9828 2988.0407 2563.7095 2990.8037 Z" fill="none" stroke="#E71E24" opacity="0.5291005291005291" stroke-width="1" class="battery_park_city"/>
<path d="M 2581.1797 2995.5328 2566.0222 2997.1433 2564.6347 2992.9937 2577.4782 2990.576 2577.3628 2989.1929 2569.2633 2990.6896 2561.1646 2988.3827 2556.5406 2969.7104 2559.5521 2954.7282 2565.1057 2954.2684 2567.1885 2953.1163 2569.157 2945.0491 2561.2904 2941.3594 2573.7985 2877.9765 2586.7549 2882.4735 2589.1875 2865.4181 2575.7682 2863.1107 2585.4997 2790.9745 2627.3742 2798.4717 2581.1797 2995.5328 Z" fill="none" stroke="#E71E24" opacity="0.5291005291005291" stroke-width="1" class="battery_park_city"/>
<path d="M 2612.2956 3046.8291 2602.8082 3042.4475 2572.2686 3005.0974 2555.3829 2972.822 2568.1236 2907.5931 2572.524 2887.5414 2606.7666 2897.9198 2612.2956 3046.8291 Z" fill="none" stroke="#E71E24" opacity="0.5291005291005291" stroke-width="1" class="battery_park_city"/>
<path d="M 2626.6802 2797.6649 2585.9258 2983.8928 2571.5775 2989.6528 2557.4662 2969.8259 2587.3498 2794.8927 2626.6802 2797.6649 Z" fill="none" stroke="#E71E24" opacity="0.5291005291005291" stroke-width="1" class="battery_park_city"/>
<path d="M 2592.87 2972.3686 2563.2524 2964.0645 2591.0523 2790.7451 2627.1421 2803.6571 2592.87 2972.3686 Z" fill="none" stroke="#E71E24" opacity="0.5291005291005291" stroke-width="1" class="battery_park_city"/>
<path d="M 2580.8341 2988.041 2572.5031 2989.8835 2557.2302 2990.8023 2586.1937 2791.666 2629.2252 2797.6653 2580.8341 2988.041 Z" fill="none" stroke="#E71E24" opacity="0.5291005291005291" stroke-width="1" class="battery_park_city"/>
<path d="M 2587.8122 2796.7365 2635.0089 2799.5098 2636.3952 2812.8772 2635.4661 2839.151 2631.7605 2865.4251 2626.6658 2895.3875 2620.6456 2923.5068 2605.8264 2984.3574 2591.9412 2989.4262 2568.338 2988.9606 2560.0096 2978.8163 2563.716 2960.3765 2572.0559 2913.8173 2587.8122 2796.7365 Z" fill="none" stroke="#E71E24" opacity="0.5291005291005291" stroke-width="1" class="battery_park_city"/>
<path d="M 2578.9808 2998.1833 2558.6206 2981.5821 2580.8723 2792.5868 2623.4409 2799.9691 2578.9808 2998.1833 Z" fill="none" stroke="#E71E24" opacity="0.5291005291005291" stroke-width="1" class="battery_park_city"/>
<path d="M 2583.6115 2985.2754 2560.4706 2987.1148 2558.625 2961.2974 2585.5003 2787.9784 2682.6666 2823.945 2594.7189 2985.2775 2583.6115 2985.2754 Z" fill="none" stroke="#E71E24" opacity="0.5291005291005291" stroke-width="1" class="battery_park_city"/>
<path d="M 2214.4743 2669.8448 2235.7192 2736.2245 2190.381 2727.9018 2139.5226 2672.5633 2166.3794 2636.6334 2202.4717 2625.5952 2210.7774 2662.4687 2214.4743 2669.8448 Z" fill="none" stroke="#E71E24" opacity="0.5291005291005291" stroke-width="1" class="battery_park_city"/>
<path d="M 2625.2917 2799.9694 2602.1252 2976.9804 2569.7285 2978.8184 2591.9764 2798.1201 2625.2917 2799.9694 Z" fill="none" stroke="#E71E24" opacity="0.5291005291005291" stroke-width="1" class="battery_park_city"/>
<path d="M 2581.624 3019.2613 2534.7094 2962.0572 2576.4889 2832.047 2586.93 2739.1881 2647.5841 2766.6982 2581.624 3019.2613 Z" fill="none" stroke="#E71E24" opacity="0.5291005291005291" stroke-width="1" class="battery_park_city"/>
<path d="M 2585.7309 2791.6659 2628.2995 2799.2784 2582.6854 2987.5804 2610.6851 2989.4295 2609.5243 3012.0198 2616.9277 3022.8554 2613.9155 3046.8293 2591.7019 3032.3024 2575.5079 3007.1727 2558.6212 2978.816 2561.869 2941.0138 2572.9879 2882.0098 2580.1704 2832.4579 2585.7309 2791.6659 Z" fill="none" stroke="#E71E24" opacity="0.5291005291005291" stroke-width="1" class="battery_park_city"/>
<path d="M 2587.3501 2793.5099 2619.7402 2792.5936 2618.8135 2800.8903 2581.7608 2982.5089 2566.9492 2990.8044 2556.7712 2973.2834 2587.3501 2793.5099 Z" fill="none" stroke="#E71E24" opacity="0.5291005291005291" stroke-width="1" class="battery_park_city"/>
<path d="M 2624.3659 2802.7348 2584.9969 3000.9506 2580.3689 3000.0276 2577.1293 2999.566 2567.8736 2996.7979 2559.5451 2986.6536 2557.235 2968.6733 2585.4991 2793.9705 2592.4396 2795.3546 2600.7684 2795.817 2605.3954 2796.7397 2611.4106 2797.6626 2616.963 2798.5853 2624.3659 2802.7348 Z" fill="none" stroke="#E71E24" opacity="0.5291005291005291" stroke-width="1" class="battery_park_city"/>
<path d="M 2653.0659 2706.4083 2676.2083 2613.7768 2666.0294 2623.9144 2675.2809 2635.8974 2653.0659 2706.4083 Z" fill="none" stroke="#E71E24" opacity="0.5291005291005291" stroke-width="1" class="battery_park_city"/>
<path d="M 2584.8055 2791.8962 2624.3667 2797.4341 2577.3603 3001.6407 2556.0772 2972.5917 2584.8055 2791.8962 Z" fill="none" stroke="#E71E24" opacity="0.5291005291005291" stroke-width="1" class="battery_park_city"/>
<path d="M 2613.6844 3045.2156 2611.3701 3045.6763 2607.6677 3044.062 2611.7199 3029.0786 2610.7939 3031.3837 2608.8262 3035.4175 2601.7667 3043.0236 2575.8557 3003.8303 2581.1792 2997.9532 2613.688 3022.6243 2613.4536 3041.1814 2613.6844 3045.2156 Z" fill="none" stroke="#E71E24" opacity="0.5291005291005291" stroke-width="1" class="battery_park_city"/>
<path d="M 2631.7704 2795.361 2630.3809 2805.0404 2581.7598 2987.5802 2631.7704 2795.361 Z" fill="none" stroke="#E71E24" opacity="0.5291005291005291" stroke-width="1" class="battery_park_city"/>
<path d="M 2563.7089 2993.8003 2579.0092 2854.353 2769.6602 2939.6528 2720.8345 2978.8376 2629.8831 3049.5981 2601.8826 3041.5252 2563.7089 2993.8003 Z" fill="none" stroke="#E71E24" opacity="0.5291005291005291" stroke-width="1" class="battery_park_city"/>
<path d="M 2584.5745 2789.822 2626.6808 2793.5165 2615.559 2898.6127 2580.8318 2999.5667 2558.6197 2985.7313 2584.5745 2789.822 Z" fill="none" stroke="#E71E24" opacity="0.5291005291005291" stroke-width="1" class="battery_park_city"/>
<path d="M 2585.4999 2789.8222 2589.2106 2741.8875 2633.6281 2746.5038 2600.2815 2934.1063 2606.2908 2975.1371 2619.7118 2976.9833 2628.0362 3018.9382 2635.4418 3015.712 2650.7075 3077.0339 2542.8725 3035.5195 2585.4999 2789.8222 Z" fill="none" stroke="#E71E24" opacity="0.5291005291005291" stroke-width="1" class="battery_park_city"/>
<path d="M 2585.4622 2988.0419 2557.6956 2978.8158 2589.1996 2800.8852 2628.9933 2800.8918 2585.4622 2988.0419 Z" fill="none" stroke="#E71E24" opacity="0.5291005291005291" stroke-width="1" class="battery_park_city"/>
<path d="M 2621.5902 2798.8165 2606.7659 2901.6076 2581.2975 2984.5834 2575.0488 2988.5009 2562.785 2985.7322 2557.4665 2968.2123 2564.4142 2941.7059 2576.4605 2872.5606 2587.3503 2792.5881 2621.5902 2798.8165 Z" fill="none" stroke="#E71E24" opacity="0.5291005291005291" stroke-width="1" class="battery_park_city"/>
<path d="M 2584.5738 2793.5094 2623.4414 2796.2816 2585.4627 2985.2758 2552.1376 2998.1776 2584.5738 2793.5094 Z" fill="none" stroke="#E71E24" opacity="0.5291005291005291" stroke-width="1" class="battery_park_city"/>
<path d="M 2627.1431 2796.2822 2589.1648 2987.1206 2564.1719 2992.6479 2575.3203 2789.8202 2627.1431 2796.2822 Z" fill="none" stroke="#E71E24" opacity="0.5291005291005291" stroke-width="1" class="battery_park_city"/>
<path d="M 2620.626 3051.2104 2593.3207 3038.7574 2575.2776 3001.8708 2563.25 2975.5899 2566.956 2958.5331 2578.5248 2964.0676 2578.0623 2962.2235 2615.0865 2959.464 2631.2773 3009.2569 2643.3062 3043.8367 2620.626 3051.2104 Z" fill="none" stroke="#E71E24" opacity="0.5291005291005291" stroke-width="1" class="battery_park_city"/>
<path d="M 2622.7467 2800.4299 2625.2916 2801.1217 2624.5968 2805.9614 2597.2734 2934.3363 2576.206 2988.0401 2548.4418 2968.6713 2589.2009 2793.5103 2622.7467 2800.4299 Z" fill="none" stroke="#E71E24" opacity="0.5291005291005291" stroke-width="1" class="battery_park_city"/>
<path d="M 2591.051 2797.659 2626.2173 2799.0476 2569.7243 2999.1034 2555.8464 2969.595 2591.051 2797.659 Z" fill="none" stroke="#E71E24" opacity="0.5291005291005291" stroke-width="1" class="battery_park_city"/>
<path d="M 2626.6802 2797.6649 2607.2294 2897.2284 2580.6029 2986.8884 2570.1891 2989.6525 2561.8588 2988.4982 2558.6239 2966.599 2559.0896 2953.4603 2572.9883 2880.1659 2585.2683 2791.4354 2626.6802 2797.6649 Z" fill="none" stroke="#E71E24" opacity="0.5291005291005291" stroke-width="1" class="battery_park_city"/>
<path d="M 2582.7233 2791.6653 2628.0687 2795.3605 2575.279 2994.4943 2562.3215 2988.9593 2559.5482 2972.3619 2557.6995 2961.2972 2582.7233 2791.6653 Z" fill="none" stroke="#E71E24" opacity="0.5291005291005291" stroke-width="1" class="battery_park_city"/>
<path d="M 2627.1431 2796.2822 2580.8346 2985.2749 2562.3229 2982.505 2555.3826 2974.2051 2587.3504 2792.1272 2627.1431 2796.2822 Z" fill="none" stroke="#E71E24" opacity="0.5291005291005291" stroke-width="1" class="battery_park_city"/>
<path d="M 2625.2916 2800.8912 2580.8332 2992.6513 2560.472 2980.6605 2582.7237 2789.8216 2625.2916 2800.8912 Z" fill="none" stroke="#E71E24" opacity="0.5291005291005291" stroke-width="1" class="battery_park_city"/>
<path d="M 2616.9544 2853.4378 2600.7449 2930.4184 2598.4258 2959.9222 2615.5372 3035.9949 2593.3221 3030.9196 2577.5905 3007.4036 2560.474 2971.4401 2561.4026 2957.6099 2567.4237 2935.022 2567.8911 2912.8944 2572.5247 2884.3146 2579.4735 2846.5168 2584.1067 2816.5561 2586.888 2790.2833 2596.1498 2748.3415 2633.6274 2751.5738 2616.9544 2853.4378 Z" fill="none" stroke="#E71E24" opacity="0.5291005291005291" stroke-width="1" class="battery_park_city"/>
<path d="M 2574.8357 2897.9139 2617.8713 2908.0632 2604.2057 2989.6589 2559.0838 2979.9686 2574.8357 2897.9139 Z" fill="none" stroke="#E71E24" opacity="0.5291005291005291" stroke-width="1" class="battery_park_city"/></svg>