<?xml version="1.0"?><svg xmlns="http://www.w3.org/2000/svg" version="1.2" baseProfile="tiny" width="6000" height="5918" viewBox="0 0 6000 5918" stroke-linecap="round" stroke-linejoin="round"><path d="M 1255.0438 5208.1206 1211.0726 5147.7472 1245.8971 5126.3177 1248.8201 5111.421 1257.5484 5091.9134 1265.9253 5074.3692 1276.6 5070.2277 1298.6555 5055.0152 1303.7851 5037.2353 1312.155 5023.3877 1317.966 5014.6185 1336.7294 5028.2763 1342.9791 5036.1399 1354.5809 5031.7681 1363.3786 5041.7146 1364.7629 5046.5679 1364.0603 5051.1871 1365.6704 5060.1989 1366.8204 5066.6691 1365.8835 5072.9051 1363.092 5078.6765 1360.7632 5085.1416 1360.5241 5089.9926 1365.6236 5091.8484 1373.4997 5098.0976 1352.5778 5130.8725 1255.0438 5208.1206 Z" fill="none" stroke="#A9159C" opacity="0.6" stroke-width="1" class="bay_terrace__staten_island_"/>
<path d="M 1379.5442 5088.1725 1341.4458 5130.3938 1292.3451 5086.4237 1286.8086 5067.4715 1280.5494 5065.8446 1306.1031 5037.9319 1316.109 5015.7706 1379.5442 5088.1725 Z" fill="none" stroke="#A9159C" opacity="0.6" stroke-width="1" class="bay_terrace__staten_island_"/>
<path d="M 1188.573 5288.1901 1132.1481 5186.4292 1153.5404 5155.0442 1279.8497 5068.3847 1341.9041 5134.091 1188.573 5288.1901 Z" fill="none" stroke="#A9159C" opacity="0.6" stroke-width="1" class="bay_terrace__staten_island_"/>
<path d="M 1230.5704 5138.3066 1233.125 5136.2315 1331.6828 4991.7703 1350.4056 5032.4549 1379.5456 5087.2484 1281.5222 5185.0577 1230.5704 5138.3066 Z" fill="none" stroke="#A9159C" opacity="0.6" stroke-width="1" class="bay_terrace__staten_island_"/>
<path d="M 1374.2111 5087.4716 1317.3598 5107.7164 1215.7177 5143.8273 1216.1819 5143.597 1374.2111 5087.4716 Z" fill="none" stroke="#A9159C" opacity="0.6" stroke-width="1" class="bay_terrace__staten_island_"/>
<path d="M 1441.8883 3958.545 1445.0313 3947.2428 1491.7717 3899.0825 1633.7354 3919.5678 1680.7469 4029.3451 1645.9913 4034.843 1625.1392 4037.0103 1612.0482 4038.7252 1576.2459 4046.9885 1458.4044 4075.9103 1430.8001 4018.8718 1424.5191 3955.7515 1425.443 3957.5988 1428.93 3948.8354 1428.4609 3952.9882 1444.6835 3947.4731 1441.8883 3958.545 Z" fill="none" stroke="#A9159C" opacity="0.6" stroke-width="1" class="bay_terrace__staten_island_"/>
<path d="M 1246.8297 5123.3158 1259.4148 5084.9858 1337.4858 4988.0831 1361.6289 4970.5636 1478.415 5034.4857 1296.8487 5173.2984 1246.8297 5123.3158 Z" fill="none" stroke="#A9159C" opacity="0.6" stroke-width="1" class="bay_terrace__staten_island_"/>
<path d="M 1080.5414 4990.4326 1112.1551 4947.0618 1210.2875 5060.8805 1139.6861 5118.9794 1080.5414 4990.4326 Z" fill="none" stroke="#A9159C" opacity="0.6" stroke-width="1" class="bay_terrace__staten_island_"/>
<path d="M 1381.516 5087.8289 1262.9253 5211.1368 1193.8907 5159.0397 1170.4032 5058.042 1296.7053 4966.7692 1330.9955 4986.2253 1349.2519 5028.5261 1362.6877 5038.4794 1364.7208 5074.9826 1381.516 5087.8289 Z" fill="none" stroke="#A9159C" opacity="0.6" stroke-width="1" class="bay_terrace__staten_island_"/>
<path d="M 1193.3842 5184.6845 1191.5563 5168.0464 1267.7463 5096.088 1338.1807 5142.4026 1256.3858 5239.315 1193.3842 5184.6845 Z" fill="none" stroke="#A9159C" opacity="0.6" stroke-width="1" class="bay_terrace__staten_island_"/>
<path d="M 1258.7495 5211.5923 1212.0037 5145.6695 1228.2514 5138.0718 1215.3155 5106.1687 1245.9865 5070.6411 1264.0619 5079.4487 1297.9602 5054.7831 1331.6884 4988.0743 1350.6782 5005.1968 1364.0275 5073.3644 1382.096 5087.7142 1258.7495 5211.5923 Z" fill="none" stroke="#A9159C" opacity="0.6" stroke-width="1" class="bay_terrace__staten_island_"/>
<path d="M 1160.9498 5162.45 1285.4128 5070.2416 1321.4957 5133.1359 1187.7467 5227.1882 1160.9498 5162.45 Z" fill="none" stroke="#A9159C" opacity="0.6" stroke-width="1" class="bay_terrace__staten_island_"/>
<path d="M 1253.8184 5249.2465 1246.4128 5238.6059 1234.5998 5228.1894 1232.2818 5227.2614 1214.6813 5210.1348 1212.1519 5196.7298 1203.592 5183.3151 1200.1358 5169.4468 1195.2842 5157.8868 1207.3567 5150.7446 1213.1653 5144.5162 1226.1682 5135.5271 1241.2552 5128.3895 1247.9934 5120.7764 1256.1547 5093.2973 1270.5636 5074.3765 1286.1208 5062.3881 1297.7286 5054.5517 1308.4403 5026.1541 1317.0341 5017.3891 1336.4919 5031.972 1341.8192 5036.3692 1350.6403 5030.6072 1357.3562 5036.8545 1364.7212 5074.7516 1381.1687 5087.4818 1307.9946 5164.9982 1266.1869 5202.131 1284.9435 5222.0309 1254.5154 5248.5544 1253.8184 5249.2465 Z" fill="none" stroke="#A9159C" opacity="0.6" stroke-width="1" class="bay_terrace__staten_island_"/>
<path d="M 1331.6884 4988.0743 1349.7544 5002.6544 1356.8931 5036.3918 1364.2574 5074.7509 1380.7041 5087.9432 1370.2361 5109.413 1253.8778 5212.0466 1228.1745 5185.4347 1212.4619 5149.1357 1210.8956 5114.2474 1214.1683 5098.543 1331.6884 4988.0743 Z" fill="none" stroke="#A9159C" opacity="0.6" stroke-width="1" class="bay_terrace__staten_island_"/>
<path d="M 1255.5476 5248.5316 1215.2523 5208.4939 1200.6995 5172.1958 1195.5374 5158.4662 1193.4742 5143.9075 1192.7987 5131.6616 1191.8814 5125.4222 1255.3582 5066.4371 1282.6713 5053.2036 1299.6176 5042.3725 1307.0578 5025.291 1319.6029 5010.757 1328.4819 4996.5016 1333.8285 4987.9628 1355.6865 5007.4445 1363.7752 5026.1679 1366.1156 5039.6779 1367.2577 5051.4611 1369.0898 5067.1728 1381.6806 5088.8664 1343.0323 5130.9841 1310.6567 5162.6764 1291.4444 5178.247 1278.6673 5191.1655 1284.6451 5224.9082 1255.5476 5248.5316 Z" fill="none" stroke="#A9159C" opacity="0.6" stroke-width="1" class="bay_terrace__staten_island_"/>
<path d="M 1196.8025 5121.197 1342.2455 4984.4516 1354.71 5023.2784 1365.786 5060.7185 1390.3312 5086.6284 1288.712 5190.4108 1196.8025 5121.197 Z" fill="none" stroke="#A9159C" opacity="0.6" stroke-width="1" class="bay_terrace__staten_island_"/>
<path d="M 1242.5071 5215.2631 1208.2969 5143.122 1217.6181 5116.3376 1233.4504 5078.4755 1255.7439 5060.03 1341.2142 4976.077 1366.1492 5050.0351 1386.5088 5083.3312 1247.1312 5224.5127 1242.5071 5215.2631 Z" fill="none" stroke="#A9159C" opacity="0.6" stroke-width="1" class="bay_terrace__staten_island_"/>
<path d="M 1228.0221 5136.4542 1332.6153 4988.5377 1409.5101 5054.4874 1280.5911 5187.1357 1228.0221 5136.4542 Z" fill="none" stroke="#A9159C" opacity="0.6" stroke-width="1" class="bay_terrace__staten_island_"/>
<path d="M 1226.6503 5135.1425 1339.2833 4977.0516 1348.2517 4997.7014 1359.6372 5034.3713 1386.463 5086.158 1284.0925 5184.2143 1226.6503 5135.1425 Z" fill="none" stroke="#A9159C" opacity="0.6" stroke-width="1" class="bay_terrace__staten_island_"/>
<path d="M 1286.9817 5105.1282 1281.3115 5097.4955 1283.7501 5095.3046 1331.135 5047.2105 1380.5875 5088.4051 1362.1174 5110.3251 1349.2243 5124.5141 1326.3465 5146.0812 1316.9665 5137.4031 1297.7495 5115.8877 1280.7314 5097.7256 1286.9817 5105.1282 Z" fill="none" stroke="#A9159C" opacity="0.6" stroke-width="1" class="bay_terrace__staten_island_"/>
<path d="M 1462.882 5144.3022 1368.3322 5456.7058 856.0403 5463.2071 800.9483 5178.4065 1462.882 5144.3022 Z" fill="none" stroke="#A9159C" opacity="0.6" stroke-width="1" class="bay_terrace__staten_island_"/>
<path d="M 496.9911 5031.7187 1023.9182 5012.5062 999.111 5382.1367 472.0762 5360.6711 496.9911 5031.7187 Z" fill="none" stroke="#A9159C" opacity="0.6" stroke-width="1" class="bay_terrace__staten_island_"/>
<path d="M 1349.3411 5123.9367 1283.5777 5057.3018 1360.7068 4966.8664 1463.5883 5023.3771 1349.3411 5123.9367 Z" fill="none" stroke="#A9159C" opacity="0.6" stroke-width="1" class="bay_terrace__staten_island_"/>
<path d="M 1195.9788 5158.5811 1281.476 5066.5391 1342.6038 5131.5507 1238.7683 5232.3551 1195.9788 5158.5811 Z" fill="none" stroke="#A9159C" opacity="0.6" stroke-width="1" class="bay_terrace__staten_island_"/>
<path d="M 1434.4773 5110.8917 1281.5193 5186.9061 1227.7894 5136.9159 1210.2093 5108.4706 1306.3439 5032.157 1342.3757 4974.6927 1368.2439 5044.9559 1434.4773 5110.8917 Z" fill="none" stroke="#A9159C" opacity="0.6" stroke-width="1" class="bay_terrace__staten_island_"/>
<path d="M 1106.7032 5411.9116 1222.35 5059.0521 1537.9735 4887.655 1773.513 4926.7353 1275.5284 5456.5644 1121.442 5474.7985 1106.7032 5411.9116 Z" fill="none" stroke="#A9159C" opacity="0.6" stroke-width="1" class="bay_terrace__staten_island_"/>
<path d="M 1235.455 4986.0757 1283.2513 4969.5202 1284.6448 4968.1364 1285.5009 5013.8753 1285.0393 5012.4885 1245.3846 5012.1947 1244.2258 5011.7308 1235.455 4986.0757 Z" fill="none" stroke="#A9159C" opacity="0.6" stroke-width="1" class="bay_terrace__staten_island_"/>
<path d="M 1365.3528 4961.3295 1212.5795 5360.3262 789.4757 5341.0511 905.5045 4849.6686 1365.3528 4961.3295 Z" fill="none" stroke="#A9159C" opacity="0.6" stroke-width="1" class="bay_terrace__staten_island_"/></svg>