<?xml version="1.0"?><svg xmlns="http://www.w3.org/2000/svg" version="1.2" baseProfile="tiny" width="6000" height="5918" viewBox="0 0 6000 5918" stroke-linecap="round" stroke-linejoin="round"><path d="M 4980.0291 1798.6022 5090.9272 1783.6011 5175.1453 1820.226 5250.2751 1913.9699 4999.9354 2006.7018 4980.0291 1798.6022 Z" fill="none" stroke="#012394" opacity="0.6" stroke-width="1" class="bay_terrace"/>
<path d="M 5012.3543 1785.6333 5193.2082 1654.4279 5195.0497 1651.6609 5305.1444 2032.6422 5126.8348 2094.8228 5012.3543 1785.6333 Z" fill="none" stroke="#012394" opacity="0.6" stroke-width="1" class="bay_terrace"/>
<path d="M 5021.6449 1804.95 5124.2117 1785.3602 5189.0361 1829.3997 5279.1232 1983.8932 5097.1087 2040.5481 5021.6449 1804.95 Z" fill="none" stroke="#012394" opacity="0.6" stroke-width="1" class="bay_terrace"/>
<path d="M 5049.4872 1797.7368 5215.6209 1694.1847 5314.6822 2071.8611 5127.9805 2109.1944 5049.4872 1797.7368 Z" fill="none" stroke="#012394" opacity="0.6" stroke-width="1" class="bay_terrace"/>
<path d="M 5091.388 1970.5585 5086.6358 1918.0707 5072.6208 1858.2408 5029.9651 1804.93 5023.474 1796.6574 5064.1297 1788.2712 5103.8831 1789.0944 5162.1675 1806.4453 5220.701 1918.6524 5185.6003 1931.6375 5184.5766 1892.9576 5179.14 1936.2592 5193.1937 2008.0666 5101.7322 2040.5367 5091.388 1970.5585 Z" fill="none" stroke="#012394" opacity="0.6" stroke-width="1" class="bay_terrace"/>
<path d="M 1215.0151 5147.9847 1217.3397 5144.7541 1221.9866 5139.6789 1227.3267 5136.2221 1234.2895 5133.2299 1243.3444 5127.2377 1248.4565 5121.2392 1248.9314 5114.3091 1251.0347 5104.3783 1263.5941 5081.9891 1272.885 5072.9941 1286.5843 5062.6199 1296.7988 5055.9364 1302.613 5045.3188 1308.6736 5025.2304 1318.4309 5013.9262 1327.0273 5003.3132 1331.2183 4992.2316 1334.2375 4989.2332 1343.5032 4995.9461 1350.6734 5008.4308 1341.8428 5020.6608 1337.4241 5028.9703 1342.9822 5034.0609 1351.9147 5031.3022 1357.817 5038.9342 1360.1273 5044.8284 1361.0457 5051.0671 1362.5426 5058.1152 1364.7318 5067.59 1366.5763 5074.8698 1371.0933 5078.5728 1380.705 5087.3656 1373.4848 5108.2627 1349.3259 5134.1021 1326.575 5148.3919 1315.4166 5165.0096 1302.4088 5177.4658 1286.1578 5187.1444 1272.6876 5198.2135 1258.7535 5209.0507 1249.0242 5201.1795 1242.5461 5191.003 1233.9795 5181.5164 1226.5701 5173.6489 1222.1798 5163.476 1218.7128 5156.0771 1215.0151 5147.9847 Z" fill="none" stroke="#012394" opacity="0.6" stroke-width="1" class="bay_terrace"/>
<path d="M 1220.3529 5145.9142 1306.3998 4995.8896 1312.3915 5020.385 1319.811 5021.3204 1344.8357 5035.2187 1369.4001 5047.2677 1399.9821 5068.1036 1262.0063 5205.5901 1240.7169 5174.596 1220.3529 5145.9142 Z" fill="none" stroke="#012394" opacity="0.6" stroke-width="1" class="bay_terrace"/>
<path d="M 5023.496 1805.8664 5035.4874 1794.7868 5115.9009 1789.0645 5188.3622 1927.0252 5082.1531 1975.1866 5023.496 1805.8664 Z" fill="none" stroke="#012394" opacity="0.6" stroke-width="1" class="bay_terrace"/>
<path d="M 5025.3141 1792.9694 5101.9521 1755.9476 5131.3901 1698.7826 5207.2397 1718.8473 5241.6181 1785.9803 5198.2809 1829.3759 5277.0778 1910.2149 5116.3207 1957.6018 5084.9202 1972.4165 5073.5949 1878.4998 5025.3141 1792.9694 Z" fill="none" stroke="#012394" opacity="0.6" stroke-width="1" class="bay_terrace"/>
<path d="M 5028.1191 1804.9906 5014.1468 1791.0833 5015.9584 1775.424 5047.3578 1762.4563 5107.8223 1704.6433 5135.4977 1682.475 5171.5469 1682.3838 5201.1971 1709.9318 5207.944 1744.522 5237.6527 1793.2509 5198.9234 1825.0439 5212.8765 1858.1618 5235.154 1892.1799 5216.7181 1913.4111 5163.0355 1950.4916 5124.2298 1961.642 5091.8865 1969.0908 5092.2747 1954.0333 5092.2134 1929.1654 5082.9201 1909.8469 5074.4931 1866.5811 5058.7225 1844.5166 5047.5862 1827.0457 5028.1191 1804.9906 Z" fill="none" stroke="#012394" opacity="0.6" stroke-width="1" class="bay_terrace"/>
<path d="M 5184.3948 1822.0442 5216.7586 1824.7234 5240.7347 1801.6379 5237.9131 1783.2274 5161.8518 1682.1314 5146.375 1776.0957 5250.2485 1903.8389 5086.7876 1979.7805 5040.1297 1803.0638 5163.9743 1789.8645 5184.3948 1822.0442 Z" fill="none" stroke="#012394" opacity="0.6" stroke-width="1" class="bay_terrace"/>
<path d="M 5012.3472 2073.9152 4975.5044 1840.2845 5031.1256 1806.9993 5115.4518 1794.3608 5311.6345 2039.0726 5054.5814 2139.4493 5012.3472 2073.9152 Z" fill="none" stroke="#012394" opacity="0.6" stroke-width="1" class="bay_terrace"/>
<path d="M 5110.3725 1796.4455 5144.5401 1781.6256 5273.5558 1976.5394 5185.7987 2009.0067 5110.3725 1796.4455 Z" fill="none" stroke="#012394" opacity="0.6" stroke-width="1" class="bay_terrace"/>
<path d="M 5122.3743 1789.9693 5176.9872 1817.4585 5238.193 1890.0556 5264.2095 1938.8009 5313.5063 2047.3578 5137.0001 2092.0338 5093.3804 2028.5827 5035.4963 1798.4704 5122.3743 1789.9693 Z" fill="none" stroke="#012394" opacity="0.6" stroke-width="1" class="bay_terrace"/>
<path d="M 5080.7673 1975.6505 5082.4809 1920.3835 5074.9727 1874.8125 5043.8742 1822.3939 4999.3805 1772.3113 5014.5885 1753.3974 5048.6959 1713.7194 5120.683 1667.9629 5198.7957 1670.527 5264.7218 1783.1567 5263.724 1930.0523 5184.289 1961.1143 5176.8356 1939.0282 5080.7673 1975.6505 Z" fill="none" stroke="#012394" opacity="0.6" stroke-width="1" class="bay_terrace"/>
<path d="M 5160.0054 1683.0568 5236.1197 1804.4127 5195.5098 1830.304 5280.0625 1989.4172 5007.957 2074.8468 4859.9563 1846.7645 5032.7738 1819.6579 5022.4923 1772.7167 5097.371 1772.5346 5126.7614 1696.0318 5155.3907 1685.8309 5160.0054 1683.0568 Z" fill="none" stroke="#012394" opacity="0.6" stroke-width="1" class="bay_terrace"/>
<path d="M 5088.6323 1977.9338 5072.2281 1866.6235 5024.9275 1804.1142 5073.8608 1778.2107 5155.2646 1799.1885 5235.4411 1898.3518 5172.6796 1940.8809 5088.6323 1977.9338 Z" fill="none" stroke="#012394" opacity="0.6" stroke-width="1" class="bay_terrace"/>
<path d="M 5169.2817 1695.9244 5281.8676 1972.833 5111.9107 2043.2749 5032.6721 1777.2967 5169.2817 1695.9244 Z" fill="none" stroke="#012394" opacity="0.6" stroke-width="1" class="bay_terrace"/>
<path d="M 4978.1823 1799.5275 5212.9986 1800.7893 5284.6439 1973.7466 4990.7823 2046.3317 4978.1823 1799.5275 Z" fill="none" stroke="#012394" opacity="0.6" stroke-width="1" class="bay_terrace"/>
<path d="M 5195.5003 1826.6203 5240.0977 1911.2336 4992.5295 2003.0349 4974.5449 1825.3216 5064.105 1778.1415 5195.5003 1826.6203 Z" fill="none" stroke="#012394" opacity="0.6" stroke-width="1" class="bay_terrace"/>
<path d="M 5094.1574 1968.7095 5083.9707 1962.2872 5078.2311 1884.0143 5105.9513 1877.4991 5105.8964 1855.396 5122.4088 1803.7827 5139.9411 1790.8461 5176.0392 1808.2518 5264.1729 1924.9855 5190.3132 1966.6252 5181.9256 1940.8572 5094.1574 1968.7095 Z" fill="none" stroke="#012394" opacity="0.6" stroke-width="1" class="bay_terrace"/>
<path d="M 5068.8081 1811.2824 5109.4492 1796.9082 5111.3164 1804.2708 5076.6323 1797.4496 5064.6065 1794.2559 5119.2099 1818.5253 5136.3729 1842.4266 5167.9394 1894.8421 5155.0296 1908.2294 5133.337 1922.0993 5112.5616 1933.2035 5074.391 1826.0035 5082.7362 1836.1133 5094.7523 1835.1627 5103.9424 1813.0378 5053.0877 1809.4788 5068.8081 1811.2824 Z" fill="none" stroke="#012394" opacity="0.6" stroke-width="1" class="bay_terrace"/>
<path d="M 5180.0622 1935.3358 5140.3397 1949.2522 5091.388 1970.5585 5089.4344 1928.1951 5077.2502 1860.9924 5029.0362 1803.0904 5090.0096 1786.366 5149.2111 1800.9527 5196.477 1846.8784 5237.2998 1902.0309 5180.0622 1935.3358 Z" fill="none" stroke="#012394" opacity="0.6" stroke-width="1" class="bay_terrace"/>
<path d="M 5062.8002 1811.7575 5117.7842 1802.8733 5180.008 1914.1524 5107.0826 1960.8485 5062.8002 1811.7575 Z" fill="none" stroke="#012394" opacity="0.6" stroke-width="1" class="bay_terrace"/>
<path d="M 5084.0632 1890.0537 5201.9322 1846.572 5240.2405 1912.1078 5108.2998 1955.4113 5084.0632 1890.0537 Z" fill="none" stroke="#012394" opacity="0.6" stroke-width="1" class="bay_terrace"/>
<path d="M 5150.7294 1670.1894 5200.7762 1721.6265 5239.7837 1791.5105 5182.5104 1808.2352 5284.58 1949.7992 5373.9324 2163.264 5161.3427 2209.8915 5161.2725 2182.253 5120.3409 2086.5484 5088.655 1987.1446 5084.7165 1889.5243 5014.1878 1779.1827 5150.7294 1670.1894 Z" fill="none" stroke="#012394" opacity="0.6" stroke-width="1" class="bay_terrace"/>
<path d="M 5388.5425 2095.9741 5390.5662 2158.6116 5160.4575 2225.556 5107.1043 1969.5985 5098.6939 1933.6984 5065.0474 1785.5063 5088.1154 1767.9531 5128.6424 1708.9184 5157.2184 1677.5392 5388.5425 2095.9741 Z" fill="none" stroke="#012394" opacity="0.6" stroke-width="1" class="bay_terrace"/>
<path d="M 5188.5282 1779.5983 5135.9842 1775.3143 5149.6761 1706.2163 5188.5282 1779.5983 Z" fill="none" stroke="#012394" opacity="0.6" stroke-width="1" class="bay_terrace"/>
<path d="M 5094.1574 1968.7095 5054.0055 1806.7138 5119.6928 1826.8124 5141.8015 1795.4459 5228.9788 1902.0527 5094.1574 1968.7095 Z" fill="none" stroke="#012394" opacity="0.6" stroke-width="1" class="bay_terrace"/>
<path d="M 4858.8269 1837.7418 5025.9116 1810.8336 5151.1003 2182.6474 5085.2813 2194.6038 4858.8269 1837.7418 Z" fill="none" stroke="#012394" opacity="0.6" stroke-width="1" class="bay_terrace"/>
<path d="M 5103.395 1965.2327 5030.4212 1802.3964 5145.9831 1803.9538 5179.0411 1897.5767 5177.0632 1937.646 5103.395 1965.2327 Z" fill="none" stroke="#012394" opacity="0.6" stroke-width="1" class="bay_terrace"/>
<path d="M 5106.1988 1790.9305 5182.8301 1933.0261 5004.068 1994.7177 4973.17 1830.3899 5106.1988 1790.9305 Z" fill="none" stroke="#012394" opacity="0.6" stroke-width="1" class="bay_terrace"/>
<path d="M 5095.2616 2041.4738 5086.7695 1972.412 5081.0296 1894.1383 5069.8428 1856.4057 5025.345 1805.862 5049.3408 1789.228 5098.3273 1785.4246 5139.948 1793.6088 5183.4679 1821.1256 5243.7911 1909.3819 5257.713 1929.6077 5293.0766 2015.1733 5321.8311 2048.2565 5345.9463 2074.9044 5373.9553 2171.5553 5162.3096 2226.4726 5095.2616 2041.4738 Z" fill="none" stroke="#012394" opacity="0.6" stroke-width="1" class="bay_terrace"/>
<path d="M 1258.0529 5212.0533 1222.8677 5168.3289 1211.7733 5144.7449 1245.437 5124.0067 1238.2565 5118.2194 1221.3312 5114.9575 1216.7059 5106.864 1226.6917 5098.7945 1238.2878 5098.8132 1232.5066 5088.4079 1245.749 5074.106 1259.1788 5087.5266 1276.3732 5066.9932 1298.6566 5054.3222 1306.8144 5027.7686 1326.8056 4996.6139 1331.6881 4988.3053 1350.2144 5005.1961 1358.0887 5012.1379 1363.8698 5023.2347 1365.7148 5030.1676 1436.5941 5089.8714 1258.0529 5212.0533 Z" fill="none" stroke="#012394" opacity="0.6" stroke-width="1" class="bay_terrace"/>
<path d="M 5033.674 1809.5257 5053.9809 1796.5839 5081.7258 1801.1207 5109.4549 1799.2105 5125.1914 1807.4594 5141.8665 1821.2313 5152.0823 1839.6242 5164.171 1867.2222 5182.7251 1892.0413 5186.48 1914.1358 5174.5171 1936.271 5149.5788 1946.4658 5120.9599 1964.0377 5088.6142 1970.5653 5091.3086 1938.3218 5081.9654 1898.741 5067.978 1849.9636 5033.674 1809.5257 Z" fill="none" stroke="#012394" opacity="0.6" stroke-width="1" class="bay_terrace"/>
<path d="M 5160.9227 1680.2922 5230.828 1902.0478 5098.7759 1966.856 5029.0229 1797.565 5160.9227 1680.2922 Z" fill="none" stroke="#012394" opacity="0.6" stroke-width="1" class="bay_terrace"/>
<path d="M 5028.0941 1795.7255 5095.5472 1782.6688 5150.1076 1789.8996 5173.2869 1816.547 5199.2529 1847.7922 5230.7822 1884.5491 5253.0416 1911.1996 5264.2339 1948.0112 5286.5473 1994.0054 5307.8837 2019.7391 5323.6705 2044.5669 5346.8735 2075.823 5360.8559 2116.3171 5382.2506 2161.3984 5359.1582 2171.596 5355.4792 2178.9763 5273.2014 2191.1751 5240.8538 2199.5521 5173.3916 2219.9952 5165.0889 2228.3082 5126.8994 2120.6163 5083.1841 2018.4754 5089.5025 1955.8261 5084.7006 1883.0775 5058.7017 1837.0929 5033.6961 1818.7348 5028.0941 1795.7255 Z" fill="none" stroke="#012394" opacity="0.6" stroke-width="1" class="bay_terrace"/>
<path d="M 5026.2429 1794.809 5115.8756 1778.9348 5222.4446 1878.1239 5228.1697 1946.2639 5095.0865 1970.5494 5014.269 1813.2558 5026.2429 1794.809 Z" fill="none" stroke="#012394" opacity="0.6" stroke-width="1" class="bay_terrace"/>
<path d="M 5051.1652 1779.0938 5141.5302 1687.7075 5227.8139 1809.9599 4979.1651 1824.3898 5051.1652 1779.0938 Z" fill="none" stroke="#012394" opacity="0.6" stroke-width="1" class="bay_terrace"/>
<path d="M 5030.8895 1804.9278 5011.4693 1802.2115 5031.8029 1800.3211 5129.7514 1782.5837 5240.0928 1909.3916 5086.7649 1970.5699 5030.8895 1804.9278 Z" fill="none" stroke="#012394" opacity="0.6" stroke-width="1" class="bay_terrace"/>
<path d="M 5155.1281 1947.1425 5104.7865 1967.0714 5093.5829 1970.0925 5093.6595 1954.3192 5090.6185 1939.7051 5089.3325 1933.7215 5091.6323 1928.9956 5088.6039 1919.4474 5087.9006 1915.4197 5086.1395 1904.2568 5083.8117 1897.5852 5079.959 1881.7076 5079.2503 1875.4928 5077.3866 1869.511 5073.9058 1863.8786 5066.8263 1851.5781 5059.1681 1838.8186 5049.6653 1827.7904 5037.0451 1817.8058 5025.2206 1802.1787 5053.8489 1789.7926 5077.7582 1785.3601 5096.5928 1784.9684 5118.2065 1786.8717 5140.9918 1795.1026 5161.9315 1804.4889 5176.7525 1816.0777 5187.2988 1827.9076 5201.448 1847.5563 5211.0854 1865.1447 5219.3207 1876.7506 5231.3814 1892.7213 5223.6533 1898.4977 5205.3118 1911.6696 5193.6611 1920.2191 5184.781 1927.6101 5179.2618 1938.6766 5177.759 1938.5653 5167.0197 1942.1617 5104.6695 1966.496 5155.1281 1947.1425 Z" fill="none" stroke="#012394" opacity="0.6" stroke-width="1" class="bay_terrace"/>
<path d="M 5104.0359 2037.307 5074.471 1858.6968 5117.736 1783.5346 5188.1092 1828.4811 5226.1655 1886.8636 5181.4609 1939.9374 5190.4144 2006.0013 5104.0359 2037.307 Z" fill="none" stroke="#012394" opacity="0.6" stroke-width="1" class="bay_terrace"/>
<path d="M 4620.3058 1743.2047 4586.9137 1684.3374 4710.654 1625.1617 4988.1387 1709.2599 4941.3613 1867.7623 4869.3061 1893.7132 4739.7808 1851.6283 4625.8577 1745.9563 4620.3058 1743.2047 Z" fill="none" stroke="#012394" opacity="0.6" stroke-width="1" class="bay_terrace"/>
<path d="M 5091.8608 1787.2823 5143.6574 1798.204 5240.1073 1914.9177 5140.3675 1960.3048 5091.8608 1787.2823 Z" fill="none" stroke="#012394" opacity="0.6" stroke-width="1" class="bay_terrace"/>
<path d="M 5151.6724 1677.5532 5159.06 1674.7722 5237.9565 1799.8034 5204.4538 2071.596 5053.8984 2143.8268 5003.7848 2070.2509 4971.7887 1832.6955 4976.1241 1710.2089 5151.6724 1677.5532 Z" fill="none" stroke="#012394" opacity="0.6" stroke-width="1" class="bay_terrace"/>
<path d="M 4959.7767 1835.4863 4950.5297 1834.5868 5019.7828 1799.429 5085.8516 1975.1775 4999.9398 2008.544 4959.7767 1835.4863 Z" fill="none" stroke="#012394" opacity="0.6" stroke-width="1" class="bay_terrace"/>
<path d="M 5017.9361 1800.3543 5080.6431 1736.6623 5254.8421 1892.7748 5197.6318 1936.2117 5074.7899 1989.0208 5059.709 1871.1658 5017.9361 1800.3543 Z" fill="none" stroke="#012394" opacity="0.6" stroke-width="1" class="bay_terrace"/>
<path d="M 5090.0045 1971.9435 5077.3043 1883.0956 5060.5652 1843.0745 5010.9632 1783.7948 5099.5215 1707.6097 5115.676 1698.8219 5141.9761 1681.2609 5158.1509 1680.7596 5179.9047 1693.1349 5214.7328 1756.5824 5233.8037 1802.577 5197.3446 1824.7736 5231.7212 1890.0725 5184.2005 1926.5754 5176.3709 1938.1083 5090.0045 1971.9435 Z" fill="none" stroke="#012394" opacity="0.6" stroke-width="1" class="bay_terrace"/></svg>