<?xml version="1.0"?><svg xmlns="http://www.w3.org/2000/svg" version="1.2" baseProfile="tiny" width="6000" height="5918" viewBox="0 0 6000 5918" stroke-linecap="round" stroke-linejoin="round"><path d="M 4504.6497 684.1217 4503.7331 687.8027 4347.536 599.7789 4539.3132 458.7279 4559.0913 664.7036 4504.6497 684.1217 Z" fill="none" stroke="#FBC20F" opacity="0.6" stroke-width="1" class="baychester"/>
<path d="M 4333.6164 557.4952 4809.9033 508.7591 4863.9521 734.9015 4441.1748 817.62 4333.6164 557.4952 Z" fill="none" stroke="#FBC20F" opacity="0.6" stroke-width="1" class="baychester"/>
<path d="M 4664.325 1 4720.0263 1 4865.5036 1 4875.2627 13.0522 4905.4701 312.6813 5145.6029 372.7916 5167.911 433.4253 5151.6396 569.5743 5053.8823 613.964 4867.4016 625.4355 4721.6073 668.0595 4559.1298 684.9394 4490.5551 550.7831 4525.3596 401.7405 4604.6516 353.7738 4600.8699 307.8072 4664.325 1 Z" fill="none" stroke="#FBC20F" opacity="0.6" stroke-width="1" class="baychester"/>
<path d="M 4362.8092 350.5369 4417.5956 537.1186 4461.2153 663.9651 4456.8049 778.955 4450.4016 813.0038 4249.0839 815.1821 4258.8808 587.0474 4268.981 552.0824 4362.8092 350.5369 Z" fill="none" stroke="#FBC20F" opacity="0.6" stroke-width="1" class="baychester"/>
<path d="M 4487.4089 344.8004 4564.9785 363.0455 4667.4924 390.4297 4676.8892 472.253 4629.9466 542.2404 4439.7479 534.3204 4444.2034 444.1887 4487.4089 344.8004 Z" fill="none" stroke="#FBC20F" opacity="0.6" stroke-width="1" class="baychester"/>
<path d="M 4343.0806 601.6158 4481.2177 490.5559 4591.4957 744.548 4585.9641 749.1581 4570.2729 752.8678 4343.0806 601.6158 Z" fill="none" stroke="#FBC20F" opacity="0.6" stroke-width="1" class="baychester"/>
<path d="M 4258.1354 626.4826 4256.5131 622.3462 4259.4516 583.1376 4272.5522 548.168 4293.4772 499.737 4315.7809 449.0067 4340.2604 389.7692 4359.6753 339.5083 4421.9089 364.917 4463.5928 382.1987 4491.9001 466.0579 4522.5029 540.4925 4532.295 592.8975 4556.6806 671.6068 4500.7447 694.5919 4430.8309 647.348 4394.546 621.7728 4258.2523 627.4022 4258.1354 626.4826 Z" fill="none" stroke="#FBC20F" opacity="0.6" stroke-width="1" class="baychester"/>
<path d="M 4451.4844 514.9865 4593.6898 412.8749 4634.6047 447.0487 4536.9617 558.2845 4451.4844 514.9865 Z" fill="none" stroke="#FBC20F" opacity="0.6" stroke-width="1" class="baychester"/>
<path d="M 3595.6015 1212.5634 3639.847 1103.9308 3861.5526 1103.6991 3865.6342 1435.0329 3564.3798 1437.1773 3595.6015 1212.5634 Z" fill="none" stroke="#FBC20F" opacity="0.6" stroke-width="1" class="baychester"/>
<path d="M 4165.542 527.4104 4324.9206 323.9354 4468.0934 382.5354 4494.8657 384.3257 4541.9144 369.5258 4598.2315 374.935 4610.2456 382.2678 4612.1747 424.5632 4743.9956 336.9406 4754.3158 415.9978 4715.9473 610.1253 4624.8519 767.5996 4165.542 527.4104 Z" fill="none" stroke="#FBC20F" opacity="0.6" stroke-width="1" class="baychester"/>
<path d="M 4425.608 368.8184 4524.349 354.8466 4559.4927 390.6416 4574.3891 456.822 4562.4759 502.8259 4505.3302 552.5953 4445.3446 566.4996 4387.1358 540.8502 4370.4222 484.7799 4372.165 424.0836 4425.608 368.8184 Z" fill="none" stroke="#FBC20F" opacity="0.6" stroke-width="1" class="baychester"/>
<path d="M 4463.2785 386.019 4533.0375 558.0619 4466.0819 524.8729 4452.2264 520.7593 4429.4989 508.4915 4420.2493 498.3917 4405.4608 488.3016 4391.1135 466.2556 4376.0307 444.4061 4361.3323 428.1757 4393.9804 357.3154 4463.2785 386.019 Z" fill="none" stroke="#FBC20F" opacity="0.6" stroke-width="1" class="baychester"/>
<path d="M 4466.4293 379.0599 4547.7314 358.2141 4636.4147 393.9035 4677.8826 416.3446 4682.2627 493.9066 4650.0709 721.6944 4586.3919 740.2169 4532.362 673.9062 4417.5857 514.0809 4406.9105 480.5328 4412.0714 438.0078 4466.4293 379.0599 Z" fill="none" stroke="#FBC20F" opacity="0.6" stroke-width="1" class="baychester"/>
<path d="M 4371.4198 799.3426 4387.5877 803.4546 4407.4457 805.2601 4429.1491 806.142 4448.5414 805.6476 4452.2279 801.5013 4454.4971 779.4191 4449.3556 744.4723 4447.9278 720.5583 4446.5246 710.4424 4445.584 700.7858 4449.7376 699.8585 4456.6258 679.1501 4459.8311 664.4274 4352.4514 777.2967 4339.4585 738.683 4363.3924 694.4899 4409.484 650.2598 4407.6293 645.6641 4426.0715 631.8352 4386.4744 693.0707 4414.5615 649.7911 4429.3267 645.1662 4441.8063 653.4221 4450.5919 661.2247 4446.894 658.7019 4452.4435 663.9808 4456.1381 664.664 4457.0633 665.6971 4371.4198 799.3426 Z" fill="none" stroke="#FBC20F" opacity="0.6" stroke-width="1" class="baychester"/>
<path d="M 4441.6006 602.7204 4417.8432 546.6598 4409.9619 395.0524 4465.9032 383.6888 4550.8114 497.905 4515.1847 514.7554 4523.7695 538.9957 4486.2292 583.3256 4461.7967 666.3785 4456.0491 679.3811 4409.4199 679.6936 4441.6006 602.7204 Z" fill="none" stroke="#FBC20F" opacity="0.6" stroke-width="1" class="baychester"/>
<path d="M 4558.1679 664.7054 4502.8267 697.0027 4335.5388 603.0181 4490.4398 487.7866 4514.4328 482.6844 4558.1679 664.7054 Z" fill="none" stroke="#FBC20F" opacity="0.6" stroke-width="1" class="baychester"/>
<path d="M 4275.0257 867.5793 4611.2452 892.7411 4600.8645 1253.4787 4120.2672 1143.8536 3557.6328 7.729 4805.7743 307.3857 4614.6507 745.5423 4496.6419 848.7985 4275.0257 867.5793 Z" fill="none" stroke="#FBC20F" opacity="0.6" stroke-width="1" class="baychester"/></svg>