<?xml version="1.0"?><svg xmlns="http://www.w3.org/2000/svg" version="1.2" baseProfile="tiny" width="6000" height="5918" viewBox="0 0 6000 5918" stroke-linecap="round" stroke-linejoin="round"><path d="M 4984.4005 1790.1888 4974.4934 1803.3348 4975.7866 1812.7711 4976.5035 1822.7845 4963.9206 1828.4545 4954.3347 1830.8943 4943.1264 1831.3807 4933.3003 1829.9068 4922.5539 1830.2768 4912.4959 1828.4578 4903.2506 1828.2486 4893.4287 1828.6162 4883.2573 1827.7181 4864.1845 1825.3433 4854.3606 1824.7895 4834.2451 1821.1501 4837.8644 1785.342 4839.1155 1776.2455 4839.3216 1764.8493 4841.0336 1755.1764 4842.6293 1745.1586 4843.4067 1730.8839 4845.097 1711.4277 4850.9889 1710.9543 4852.125 1702.2041 4872.8098 1703.194 4874.0636 1695.4794 4881.9159 1693.3901 4886.5405 1694.6458 4906.1901 1697.7091 4918.551 1696.6451 4925.2478 1694.558 4947.4575 1705.4414 4976.8176 1710.3224 4976.738 1725.6313 4971.8375 1754.7645 4974.2733 1758.6725 4982.0658 1780.1796 4984.975 1788.8061 4984.4005 1790.1888 Z" fill="none" stroke="#12852D" opacity="0.6" stroke-width="1" class="beechhurst"/>
<path d="M 4696.8557 1657.4162 4686.7163 1671.2485 4961.3664 1724.0558 4926.4656 1822.6702 4661.0016 1754.174 4682.9928 1658.3653 4696.8557 1657.4162 Z" fill="none" stroke="#12852D" opacity="0.6" stroke-width="1" class="beechhurst"/>
<path d="M 4706.4881 1621.9477 4784.6726 1660.455 4883.6264 1683.2575 4933.5577 1690.5104 4978.4264 1706.5203 4982.1444 1715.2593 4972.5246 1752.1154 4984.6253 1787.5407 5012.8505 1799.906 4969.4645 1827.1753 4879.3327 1829.6839 4697.0989 1776.2016 4694.7878 1776.2064 4638.2009 1677.3311 4700.0171 1621.5007 4706.4881 1621.9477 Z" fill="none" stroke="#12852D" opacity="0.6" stroke-width="1" class="beechhurst"/>
<path d="M 4848.3722 1691.1627 4849.4134 1689.5688 4854.9587 1689.2113 4857.9657 1690.4707 4861.1251 1691.0584 4868.9885 1693.9184 4878.9919 1689.2537 4883.9606 1689.3577 4895.1704 1690.2532 4899.4536 1690.1121 4905.1124 1688.8332 4914.7051 1689.9624 4919.2455 1693.6204 4925.945 1692.6843 4929.3562 1693.8658 4944.5029 1698.3198 4949.6484 1699.9577 4953.3478 1700.8123 4976.2392 1706.514 4981.0875 1712.7565 4982.8348 1718.7377 4977.5512 1732.2173 4976.7842 1737.8091 4972.6425 1745.5309 4973.0069 1753.1271 4974.5422 1759.0899 4979.4227 1770.7044 4981.1205 1776.8932 4982.0118 1781.3393 4983.9965 1789.968 4982.9614 1792.0425 4976.787 1803.6329 4976.5729 1810.8856 4977.2886 1820.4384 4965.7491 1827.4875 4952.1962 1830.205 4937.753 1831.0441 4930.931 1829.3331 4919.6341 1826.5475 4904.1498 1826.928 4898.792 1825.3669 4900.0665 1826.8605 4889.5568 1829.647 4896.6161 1834.1206 4878.8045 1827.3688 4874.9416 1827.0733 4867.1958 1825.5941 4863.1888 1825.1617 4851.6297 1823.8059 4848.7412 1824.0425 4837.2968 1822.2259 4833.2459 1819.3569 4837.9557 1806.5689 4836.617 1798.868 4838.7852 1786.4311 4839.695 1779.7527 4840.25 1766.689 4840.3481 1758.7463 4841.7183 1751.2613 4842.8642 1746.8847 4845.6681 1722.4763 4846.0806 1699.9154 4848.3722 1691.1627 Z" fill="none" stroke="#12852D" opacity="0.6" stroke-width="1" class="beechhurst"/>
<path d="M 4835.6303 1715.1318 4892.8708 1683.6971 4963.1915 1713.9224 4959.7489 1823.5143 4847.8972 1828.3724 4833.9814 1806.301 4835.6303 1715.1318 Z" fill="none" stroke="#12852D" opacity="0.6" stroke-width="1" class="beechhurst"/>
<path d="M 4632.9539 1594.935 5044.3783 1648.3539 5169.8002 1899.4423 4977.681 1980.0426 4692.2797 1906.0642 4632.9539 1594.935 Z" fill="none" stroke="#12852D" opacity="0.6" stroke-width="1" class="beechhurst"/>
<path d="M 4612.8169 1695.3366 4975.4478 1816.1102 4713.1108 1919.8366 4620.4 1791.0897 4883.739 1733.4416 4612.8169 1695.3366 Z" fill="none" stroke="#12852D" opacity="0.6" stroke-width="1" class="beechhurst"/>
<path d="M 4842.5234 1756.3132 4847.4454 1725.9145 4854.8242 1718.5315 4854.8038 1709.3234 4852.0103 1700.1215 4851.0636 1689.9948 4853.8285 1686.3055 4852.9082 1688.1491 4858.4481 1685.3744 4869.5382 1684.429 4888.5824 1684.3863 4909.8465 1686.1798 4925.5603 1686.1439 4947.7552 1690.6968 4969.9525 1696.17 4980.1528 1709.9583 4988.5177 1729.2759 4988.5481 1742.1676 4989.5202 1762.4242 4998.8189 1785.4241 4999.7913 1805.6816 4979.4834 1818.6223 4965.6249 1822.3384 4938.832 1829.7679 4913.8793 1833.5088 4886.1426 1832.6506 4853.7815 1830.8809 4833.4145 1818.0328 4837.0963 1810.6574 4837.0214 1776.5844 4837.0538 1791.3185 4837.9277 1768.2946 4842.5234 1756.3132 Z" fill="none" stroke="#12852D" opacity="0.6" stroke-width="1" class="beechhurst"/>
<path d="M 4756.9751 1675.7067 4984.4326 1705.5854 4988.386 1814.238 4769.2711 1807.3615 4939.1812 1724.1071 4774.8159 1806.4288 4756.9751 1675.7067 Z" fill="none" stroke="#12852D" opacity="0.6" stroke-width="1" class="beechhurst"/>
<path d="M 4640.5584 1700.8067 4632.2064 1684.2489 4707.9152 1641.7407 4775.4676 1678.4298 4973.3359 1703.7698 5018.8847 1810.482 4971.8188 1845.5886 4695.2764 1789.0978 4640.5584 1700.8067 Z" fill="none" stroke="#12852D" opacity="0.6" stroke-width="1" class="beechhurst"/>
<path d="M 4977.0814 1724.2492 4972.5284 1753.7269 4974.3848 1756.9456 4977.6526 1770.7509 4984.8597 1788.9215 4973.3397 1804.1433 4975.2086 1812.6574 4977.9995 1820.1333 4975.5852 1825.4343 4962.7636 1827.8817 4954.3339 1830.5489 4942.7799 1831.4966 4931.9154 1830.7158 4912.8442 1829.1477 4894.3576 1830.571 4882.565 1828.1801 4863.3782 1826.4962 4853.5532 1825.482 4832.6303 1822.5351 4836.8269 1786.4954 4838.9774 1766.0011 4840.6636 1744.5874 4842.3634 1729.3898 4845.21 1710.2764 4828.6603 1698.112 4829.3138 1679.9249 4852.4342 1685.2837 4869.7813 1692.2662 4882.9346 1683.9496 4888.1338 1683.8228 4906.857 1686.0825 4934.8289 1690.6226 4980.0421 1705.7108 4977.0814 1724.2492 Z" fill="none" stroke="#12852D" opacity="0.6" stroke-width="1" class="beechhurst"/>
<path d="M 4830.3098 1818.2809 4853.1353 1688.8502 4983.0493 1706.9698 4975.9391 1828.5416 4830.3098 1818.2809 Z" fill="none" stroke="#12852D" opacity="0.6" stroke-width="1" class="beechhurst"/>
<path d="M 4974.5932 1747.2761 4974.8314 1750.2683 4976.1148 1755.5602 4977.6313 1761.6574 4980.3157 1773.0469 4984.2657 1782.0162 4985.0873 1787.4245 4981.9751 1790.77 4976.5678 1800.9126 4977.155 1804.9402 4977.0567 1812.3077 4977.3224 1827.0418 4974.7736 1824.285 4961.6145 1830.6471 4955.257 1829.9712 4939.4281 1831.2741 4926.3706 1831.6494 4915.619 1829.717 4904.2891 1827.5556 4897.5853 1826.9951 4890.0749 1827.4726 4884.6441 1827.715 4877.8255 1827.5001 4872.2786 1827.5125 4866.6156 1827.2949 4858.9843 1825.3548 4854.1316 1825.7109 4851.8232 1826.9823 4849.9716 1825.8353 4843.2661 1824.4687 4836.5631 1824.2532 4835.6334 1821.8378 4834.2418 1819.6536 4834.6995 1817.5806 4836.0592 1805.2604 4837.6482 1792.134 4837.053 1784.1927 4839.5752 1775.0934 4840.825 1765.4215 4840.9234 1757.5939 4841.2457 1746.543 4843.3091 1739.0565 4843.6299 1727.3151 4845.3423 1717.8729 4845.5569 1710.3908 4849.9342 1704.2807 4850.7247 1695.9917 4852.3184 1685.1688 4855.0942 1686.4288 4858.4495 1688.4931 4864.4614 1690.0912 4867.4709 1692.5016 4874.86 1689.9529 4881.0968 1688.7879 4886.0603 1686.5899 4891.1501 1689.2257 4893.8084 1689.565 4900.2773 1688.8598 4906.1658 1687.0049 4910.2111 1687.5712 4911.3657 1687.2233 4915.644 1688.5947 4922.1186 1690.4215 4927.3191 1690.87 4933.3269 1690.626 4935.8675 1690.0447 4935.2935 1691.6574 4936.7977 1692.5747 4941.0747 1693.3706 4941.8869 1694.865 4945.4733 1696.8134 4947.2059 1696.5792 4952.5271 1699.2142 4959.1182 1701.3858 4960.3868 1700.347 4964.8949 1701.1422 4969.8704 1704.1232 4976.1112 1704.6841 4982.5874 1707.086 4983.4222 1718.1339 4980.6699 1727.0033 4977.8003 1735.1825 4977.0052 1741.0547 4974.5932 1747.2761 Z" fill="none" stroke="#12852D" opacity="0.6" stroke-width="1" class="beechhurst"/>
<path d="M 4851.2897 1690.2355 4981.666 1708.3543 4979.163 1823.4689 4833.0792 1816.433 4851.2897 1690.2355 Z" fill="none" stroke="#12852D" opacity="0.6" stroke-width="1" class="beechhurst"/>
<path d="M 4908.7499 1756.4063 4843.7526 1730.5378 4842.2547 1732.4979 4842.5968 1730.4252 4842.368 1731.4617 4845.7966 1714.3037 4845.4454 1712.2326 4852.0232 1708.4198 4864.2582 1702.6375 4853.6281 1702.6611 4905.7289 1698.1705 4911.8442 1694.3583 4976.1303 1811.5041 4976.4894 1816.7985 4834.128 1820.4597 4836.2197 1825.7504 4908.7499 1756.4063 Z" fill="none" stroke="#12852D" opacity="0.6" stroke-width="1" class="beechhurst"/>
<path d="M 4699.2044 1901.4451 4722.8855 1729.1848 4926.2757 1739.791 5146.5958 1863.5828 5125.6267 1981.5264 4693.8114 1976.9811 4699.2044 1901.4451 Z" fill="none" stroke="#12852D" opacity="0.6" stroke-width="1" class="beechhurst"/>
<path d="M 4848.5024 1683.7961 4918.7566 1685.4799 4977.9599 1704.6798 4982.6077 1715.7186 4973.4523 1753.4945 4983.7074 1790.3055 5002.1963 1790.2618 5027.1166 1773.6265 5028.0896 1793.8837 4971.78 1829.0118 4832.1668 1821.9605 4848.5024 1683.7961 Z" fill="none" stroke="#12852D" opacity="0.6" stroke-width="1" class="beechhurst"/>
<path d="M 4895.7291 1721.4438 4939.1897 1727.7904 4971.7111 1799.5426 4933.8677 1825.416 4863.597 1820.9702 4855.1829 1778.6274 4867.0733 1721.508 4895.7291 1721.4438 Z" fill="none" stroke="#12852D" opacity="0.6" stroke-width="1" class="beechhurst"/>
<path d="M 4839.0882 1816.4198 4852.7139 1707.2672 4964.1191 1715.3015 4981.2265 1718.0239 4979.6101 1817.0214 4967.6102 1824.8773 4964.381 1827.6477 4962.9878 1824.8881 4839.0882 1816.4198 Z" fill="none" stroke="#12852D" opacity="0.6" stroke-width="1" class="beechhurst"/>
<path d="M 4679.8205 1917.1417 4724.0164 1828.6377 4993.872 1788.4398 5128.0316 1834.1591 5012.0196 2033.3855 4742.0561 2055.1757 4679.8205 1917.1417 Z" fill="none" stroke="#12852D" opacity="0.6" stroke-width="1" class="beechhurst"/></svg>