<?xml version="1.0"?><svg xmlns="http://www.w3.org/2000/svg" version="1.2" baseProfile="tiny" width="6000" height="5918" viewBox="0 0 6000 5918" stroke-linecap="round" stroke-linejoin="round"><path d="M 4182.1717 4853.2075 4358.1658 4721.7491 4505.5806 4705.7862 4558.5943 4788.8253 4254.6637 4949.1822 4182.1717 4853.2075 Z" fill="none" stroke="#865327" opacity="0.6" stroke-width="1" class="belle_harbor"/>
<path d="M 4455.0222 4824.3516 4310.9296 4898.7381 4272.7631 4811.264 4416.6034 4731.1172 4455.0222 4824.3516 Z" fill="none" stroke="#865327" opacity="0.6" stroke-width="1" class="belle_harbor"/>
<path d="M 4283.8593 4790.9225 4397.1144 4722.3755 4353.7832 4734.9197 4282.6886 4783.765 4402.2175 4723.9832 4448.0682 4825.2879 4454.3353 4829.203 4327.3876 4895.7084 4283.8593 4790.9225 Z" fill="none" stroke="#865327" opacity="0.6" stroke-width="1" class="belle_harbor"/>
<path d="M 4394.9054 4785.8879 4393.5128 4784.9665 4420.0416 4841.2735 4314.4009 4894.5749 4271.1155 4795.7928 4347.9947 4739.3172 4362.8196 4731.9023 4373.4823 4730.9605 4393.5072 4781.7333 4394.9054 4785.8879 Z" fill="none" stroke="#865327" opacity="0.6" stroke-width="1" class="belle_harbor"/>
<path d="M 4318.5473 4877.9381 4276.7064 4812.4125 4480.6371 4757.5612 4503.9228 4812.9462 4318.5473 4877.9381 Z" fill="none" stroke="#865327" opacity="0.6" stroke-width="1" class="belle_harbor"/>
<path d="M 4333.2598 4801.2347 4399.0109 4746.6205 4411.0503 4737.3621 4321.143 4764.3032 4473.1833 4738.1758 4501.1202 4801.8656 4361.183 4861.2374 4333.2598 4801.2347 Z" fill="none" stroke="#865327" opacity="0.6" stroke-width="1" class="belle_harbor"/>
<path d="M 4522.5494 4855.1775 4457.8169 4831.2754 4307.6845 4899.4363 4264.3985 4799.9606 4395.9425 4714.9877 4522.5494 4855.1775 Z" fill="none" stroke="#865327" opacity="0.6" stroke-width="1" class="belle_harbor"/>
<path d="M 4202.5657 4846.7098 4366.518 4725.4299 4660.3698 4670.3884 4686.4589 4732.2245 4253.7173 4937.1724 4202.5657 4846.7098 Z" fill="none" stroke="#865327" opacity="0.6" stroke-width="1" class="belle_harbor"/>
<path d="M 4421.4332 4841.502 4352.1654 4876.2655 4305.1618 4774.0289 4314.4249 4767.5474 4339.1996 4748.1075 4375.3385 4731.8811 4421.4332 4841.502 Z" fill="none" stroke="#865327" opacity="0.6" stroke-width="1" class="belle_harbor"/>
<path d="M 4467.7738 4824.0978 4237.0261 4939.9703 4198.8601 4849.487 4375.7755 4716.1769 4429.584 4729.9398 4467.7738 4824.0978 Z" fill="none" stroke="#865327" opacity="0.6" stroke-width="1" class="belle_harbor"/>
<path d="M 4265.5731 4809.6587 4400.8225 4721.6763 4450.1677 4832.4438 4307.4538 4900.1296 4265.5731 4809.6587 Z" fill="none" stroke="#865327" opacity="0.6" stroke-width="1" class="belle_harbor"/>
<path d="M 4537.7251 4787.2479 4324.8275 4889.9383 4279.9165 4790.005 4356.7986 4735.8383 4414.277 4726.5026 4441.4123 4732.6901 4511.4201 4729.5614 4537.7251 4787.2479 Z" fill="none" stroke="#865327" opacity="0.6" stroke-width="1" class="belle_harbor"/>
<path d="M 4279.4539 4790.6986 4363.2871 4734.2109 4461.1189 4733.1169 4490.9247 4805.1176 4324.1296 4888.5536 4279.4539 4790.6986 Z" fill="none" stroke="#865327" opacity="0.6" stroke-width="1" class="belle_harbor"/>
<path d="M 4446.4448 4825.0598 4447.8409 4827.8288 4439.2696 4832.0013 4430.2308 4834.0958 4419.8017 4836.6547 4414.2464 4841.9765 4405.4457 4847.7658 4397.1079 4853.0924 4388.3031 4856.572 4378.5759 4863.0557 4370.7011 4868.1503 4362.5917 4871.6286 4353.0914 4875.3401 4344.0562 4879.9746 4335.0241 4886.4568 4326.6814 4889.2423 4317.2966 4892.9533 4305.0783 4865.2568 4290.0689 4831.6759 4278.551 4806.0583 4273.8965 4795.0955 4281.5375 4788.8477 4288.2525 4783.5251 4297.2847 4777.5059 4304.4636 4772.4135 4314.1904 4765.9312 4322.5279 4760.6058 4329.2425 4755.2831 4339.2015 4749.2622 4344.9878 4743.4791 4354.0204 4738.1524 4363.519 4734.2105 4374.4132 4733.0373 4383.4499 4730.2507 4393.8799 4728.8472 4405.2389 4728.3657 4411.9869 4742.6721 4424.7908 4772.903 4434.802 4796.673 4446.4448 4825.0598 Z" fill="none" stroke="#865327" opacity="0.6" stroke-width="1" class="belle_harbor"/>
<path d="M 4279.4539 4790.6986 4449.2956 4733.2535 4485.2602 4813.7887 4370.0069 4868.9599 4320.3239 4900.8015 4272.3903 4795.5598 4279.4539 4790.6986 Z" fill="none" stroke="#865327" opacity="0.6" stroke-width="1" class="belle_harbor"/>
<path d="M 4402.6807 4723.7515 4453.4215 4836.8263 4316.7325 4902.4242 4267.1752 4796.4919 4313.0327 4766.8568 4352.6279 4737.231 4402.6807 4723.7515 Z" fill="none" stroke="#865327" opacity="0.6" stroke-width="1" class="belle_harbor"/>
<path d="M 4465.6726 4816.0181 4324.5991 4892.0174 4280.1446 4787.6952 4368.6162 4732.3544 4423.0915 4729.2584 4428.6648 4734.5601 4429.3672 4738.4848 4465.6726 4816.0181 Z" fill="none" stroke="#865327" opacity="0.6" stroke-width="1" class="belle_harbor"/>
<path d="M 4303.1257 4876.4619 4302.4224 4871.7282 4290.9081 4848.8812 4284.3921 4833.9947 4278.8061 4820.608 4274.9706 4814.3784 4272.4118 4809.0705 4269.8495 4801.5686 4268.6833 4797.1824 4269.2609 4795.9112 4282.3475 4787.9226 4294.0419 4779.3587 4302.0312 4773.5721 4311.5276 4768.014 4341.7458 4745.6784 4347.5353 4741.8582 4353.9043 4738.0371 4372.5567 4732.0013 4420.968 4840.6945 4312.7816 4896.8873 4303.1264 4876.9239 4303.1257 4876.4619 Z" fill="none" stroke="#865327" opacity="0.6" stroke-width="1" class="belle_harbor"/>
<path d="M 4279.9157 4789.5431 4301.1762 4746.7843 4357.2595 4734.221 4405.0082 4729.0589 4447.1439 4827.0217 4325.5239 4890.3991 4279.9157 4789.5431 Z" fill="none" stroke="#865327" opacity="0.6" stroke-width="1" class="belle_harbor"/>
<path d="M 4372.3247 4731.8862 4421.4356 4842.8878 4317.4179 4896.1867 4272.2725 4794.4053 4372.3247 4731.8862 Z" fill="none" stroke="#865327" opacity="0.6" stroke-width="1" class="belle_harbor"/>
<path d="M 4242.5797 4932.5702 4208.1317 4847.6252 4364.6727 4730.9754 4512.1147 4729.0983 4537.9574 4787.4784 4415.8706 4842.6665 4242.5797 4932.5702 Z" fill="none" stroke="#865327" opacity="0.6" stroke-width="1" class="belle_harbor"/>
<path d="M 4260.6936 4802.9688 4351.9382 4740.6962 4368.3855 4733.0476 4394.1102 4727.9231 4415.9023 4727.8853 4426.1077 4730.6387 4467.0741 4821.7895 4308.3843 4901.9759 4260.6936 4802.9688 Z" fill="none" stroke="#865327" opacity="0.6" stroke-width="1" class="belle_harbor"/>
<path d="M 4266.4888 4802.2668 4331.3256 4753.2012 4391.7842 4858.4138 4309.3223 4908.4417 4266.4888 4802.2668 Z" fill="none" stroke="#865327" opacity="0.6" stroke-width="1" class="belle_harbor"/>
<path d="M 4355.6291 4867.7138 4306.3082 4766.175 4462.976 4734.4992 4499.2908 4815.7262 4355.6291 4867.7138 Z" fill="none" stroke="#865327" opacity="0.6" stroke-width="1" class="belle_harbor"/>
<path d="M 4448.4203 4824.3262 4325.6418 4888.2023 4284.5306 4791.2958 4406.2989 4733.8925 4448.4203 4824.3262 Z" fill="none" stroke="#865327" opacity="0.6" stroke-width="1" class="belle_harbor"/>
<path d="M 4459.1915 4822.0346 4387.378 4857.9594 4327.6092 4889.4717 4282.2353 4790.2323 4326.2316 4757.1356 4357.7278 4736.9915 4415.4426 4730.1955 4459.1915 4822.0346 Z" fill="none" stroke="#865327" opacity="0.6" stroke-width="1" class="belle_harbor"/>
<path d="M 4331.2904 4731.955 4364.9151 4737.2103 4413.3209 4843.1329 4335.4882 4886.687 4290.5736 4785.138 4364.4467 4734.4398 4331.2904 4731.955 Z" fill="none" stroke="#865327" opacity="0.6" stroke-width="1" class="belle_harbor"/>
<path d="M 4307.6883 4901.746 4338.03 4881.3705 4347.0663 4877.4289 4346.3614 4871.8868 4328.0604 4881.8489 4312.3193 4897.8119 4309.2824 4883.9585 4312.0509 4875.408 4299.5005 4857.182 4289.2669 4837.5667 4286.2342 4826.0236 4269.9709 4805.0327 4298.2151 4779.352 4342.2162 4749.719 4360.9774 4739.2954 4385.3057 4730.9403 4404.3147 4730.2148 4418.6887 4730.4208 4424.0374 4739.8798 4426.1381 4747.9589 4428.7001 4754.6517 4433.8229 4767.3445 4443.1235 4782.5704 4449.6472 4800.5729 4460.1342 4830.5784 4430.4793 4843.5648 4401.5233 4858.8589 4375.5754 4871.1447 4353.3283 4878.3423 4326.9071 4885.5464 4308.621 4904.9782 4307.6883 4901.746 Z" fill="none" stroke="#865327" opacity="0.6" stroke-width="1" class="belle_harbor"/>
<path d="M 4457.5718 4823.8852 4243.7384 4932.1064 4205.8058 4842.7785 4360.0415 4734.2163 4416.599 4728.5769 4458.0372 4824.8082 4457.5718 4823.8852 Z" fill="none" stroke="#865327" opacity="0.6" stroke-width="1" class="belle_harbor"/>
<path d="M 4675.5395 4720.6999 4319.937 4877.0119 4678.7819 4719.0768 4675.5395 4720.6999 Z" fill="none" stroke="#865327" opacity="0.6" stroke-width="1" class="belle_harbor"/>
<path d="M 4404.7826 4732.6388 4445.4035 4826.2164 4368.9279 4847.9439 4343.014 4880.6692 4295.0852 4779.357 4405.8186 4728.4802 4404.7826 4732.6388 Z" fill="none" stroke="#865327" opacity="0.6" stroke-width="1" class="belle_harbor"/>
<path d="M 4191.5603 4928.9527 4328.6427 4813.2519 4490.9256 4805.5795 4186.0021 4933.5807 4191.5603 4928.9527 Z" fill="none" stroke="#865327" opacity="0.6" stroke-width="1" class="belle_harbor"/>
<path d="M 4276.6739 4792.0888 4388.7705 4723.5445 4469.6253 4822.2468 4329.6983 4890.8541 4276.6739 4792.0888 Z" fill="none" stroke="#865327" opacity="0.6" stroke-width="1" class="belle_harbor"/>
<path d="M 4354.9476 4738.0354 4383.6843 4731.7514 4406.0527 4729.7499 4448.653 4828.1738 4316.3718 4894.5716 4271.3457 4794.7532 4305.9719 4773.2193 4336.3045 4749.8443 4354.9476 4738.0354 Z" fill="none" stroke="#865327" opacity="0.6" stroke-width="1" class="belle_harbor"/>
<path d="M 4470.0438 4732.7545 4501.0034 4801.4039 4253.694 4922.3896 4190.5201 4854.1189 4349.8432 4735.6191 4414.7178 4713.3387 4470.0438 4732.7545 Z" fill="none" stroke="#865327" opacity="0.6" stroke-width="1" class="belle_harbor"/>
<path d="M 4284.3149 4785.8409 4354.2499 4736.7664 4377.6521 4729.1059 4421.0042 4728.8002 4464.9965 4826.8743 4330.1655 4892.9321 4284.3149 4785.8409 Z" fill="none" stroke="#865327" opacity="0.6" stroke-width="1" class="belle_harbor"/>
<path d="M 4463.5142 4776.0676 4316.6379 4844.682 4286.3944 4781.4496 4385.0612 4723.5509 4450.4587 4735.4453 4476.5701 4816.2295 4331.5449 4885.7697 4316.6424 4847.4536 4407.4543 4802.7256 4318.4916 4843.9861 4463.5142 4776.0676 Z" fill="none" stroke="#865327" opacity="0.6" stroke-width="1" class="belle_harbor"/>
<path d="M 4446.8519 4793.1874 4415.67 4727.6548 4462.2101 4824.5697 4345.9147 4882.0502 4310.9578 4774.0195 4416.1297 4725.3447 4446.8519 4793.1874 Z" fill="none" stroke="#865327" opacity="0.6" stroke-width="1" class="belle_harbor"/>
<path d="M 4256.2961 4807.8258 4362.8211 4732.826 4407.5413 4852.8434 4289.381 4908.474 4256.2961 4807.8258 Z" fill="none" stroke="#865327" opacity="0.6" stroke-width="1" class="belle_harbor"/>
<path d="M 4262.0964 4810.3571 4470.1578 4731.7151 4501.7848 4785.0051 4304.4496 4906.3709 4262.0964 4810.3571 Z" fill="none" stroke="#865327" opacity="0.6" stroke-width="1" class="belle_harbor"/>
<path d="M 4268.8201 4810.3464 4266.9466 4798.5708 4355.6406 4736.5331 4403.614 4727.2139 4412.457 4746.3662 4423.401 4773.5983 4427.8023 4771.512 4452.2408 4824.8185 4306.987 4898.2826 4268.8201 4810.3464 Z" fill="none" stroke="#865327" opacity="0.6" stroke-width="1" class="belle_harbor"/>
<path d="M 4405.3566 4729.4047 4447.2594 4826.7905 4317.4135 4893.5305 4272.2716 4793.8279 4313.7271 4766.1629 4354.3672 4737.5745 4380.1946 4724.5984 4400.9404 4722.8308 4405.3566 4729.4047 Z" fill="none" stroke="#865327" opacity="0.6" stroke-width="1" class="belle_harbor"/>
<path d="M 4415.4418 4729.7336 4459.1935 4823.1894 4316.0248 4895.0341 4271.5795 4796.023 4415.4418 4729.7336 Z" fill="none" stroke="#865327" opacity="0.6" stroke-width="1" class="belle_harbor"/>
<path d="M 4460.8142 4834.0533 4311.7111 4912.4829 4253.2737 4784.9567 4406.5911 4708.3806 4460.8142 4834.0533 Z" fill="none" stroke="#865327" opacity="0.6" stroke-width="1" class="belle_harbor"/>
<path d="M 4421.4304 4839.8853 4423.7481 4839.4193 4342.6654 4880.2079 4300.5298 4777.0388 4373.4811 4730.2677 4421.4304 4839.8853 Z" fill="none" stroke="#865327" opacity="0.6" stroke-width="1" class="belle_harbor"/>
<path d="M 4267.1774 4797.8776 4396.4317 4729.7666 4440.8922 4831.7674 4305.8292 4899.2083 4267.1774 4797.8776 Z" fill="none" stroke="#865327" opacity="0.6" stroke-width="1" class="belle_harbor"/>
<path d="M 4328.5172 4877.6907 4323.1898 4881.0485 4283.7434 4790.9227 4414.5159 4730.5435 4451.872 4813.0404 4323.1902 4881.2795 4328.5172 4877.6907 Z" fill="none" stroke="#865327" opacity="0.6" stroke-width="1" class="belle_harbor"/>
<path d="M 4293.9406 4792.4149 4298.7016 4793.439 4298.3462 4791.0128 4369.0371 4738.3317 4440.8982 4734.0503 4588.7372 4702.4239 4673.532 4675.9313 4680.594 4729.0305 4536.1244 4795.6436 4357.7124 4869.7895 4273.163 4916.8152 4159.148 4963.649 4140.9546 4890.6853 4183.5808 4865.2156 4277.2564 4797.9845 4293.9406 4792.4149 Z" fill="none" stroke="#865327" opacity="0.6" stroke-width="1" class="belle_harbor"/>
<path d="M 4439.2671 4830.6155 4341.8231 4881.2323 4297.1532 4777.7163 4393.3379 4730.8672 4439.2671 4830.6155 Z" fill="none" stroke="#865327" opacity="0.6" stroke-width="1" class="belle_harbor"/>
<path d="M 4404.2684 4837.3746 4376.9591 4866.7539 4392.7347 4871.8082 4414.5172 4864.3795 4412.6358 4849.1391 4396.4056 4849.1672 4318.3458 4896.4162 4272.5058 4795.3287 4348.0009 4743.0121 4411.2398 4846.37 4404.2684 4837.3746 Z" fill="none" stroke="#865327" opacity="0.6" stroke-width="1" class="belle_harbor"/>
<path d="M 4438.1711 4735.2362 4474.2474 4813.9241 4325.6391 4889.9369 4278.0576 4787.4676 4362.359 4733.7506 4408.2547 4729.5152 4423.5563 4729.9504 4438.1711 4735.2362 Z" fill="none" stroke="#865327" opacity="0.6" stroke-width="1" class="belle_harbor"/>
<path d="M 4208.3875 4863.3304 4198.3887 4844.4065 4243.7791 4809.693 4342.4353 4742.0977 4380.4294 4726.33 4411.4937 4725.6991 4438.7485 4733.965 4459.8434 4732.8883 4478.4681 4776.0406 4496.0537 4820.5822 4246.2999 4939.0319 4208.3875 4863.3304 Z" fill="none" stroke="#865327" opacity="0.6" stroke-width="1" class="belle_harbor"/>
<path d="M 4273.9017 4798.3288 4272.7417 4797.8688 4361.2014 4734.6763 4404.3139 4729.7529 4448.0707 4826.6736 4317.6509 4896.8793 4273.9017 4798.3288 Z" fill="none" stroke="#865327" opacity="0.6" stroke-width="1" class="belle_harbor"/>
<path d="M 4267.4099 4798.3392 4352.3914 4734.4601 4414.5077 4725.8094 4443.8367 4792.4999 4433.4129 4797.8302 4453.1896 4836.8267 4314.8798 4903.8131 4267.4099 4798.3392 Z" fill="none" stroke="#865327" opacity="0.6" stroke-width="1" class="belle_harbor"/>
<path d="M 4492.6422 4729.8268 4566.0081 4786.0398 4352.887 4891.7394 4256.2947 4806.902 4375.7896 4724.4904 4492.6422 4729.8268 Z" fill="none" stroke="#865327" opacity="0.6" stroke-width="1" class="belle_harbor"/>
<path d="M 4268.3568 4810.5781 4263.4696 4799.0383 4352.3968 4737.6932 4382.7528 4729.3282 4415.6717 4728.5785 4437.7058 4734.3132 4511.8846 4730.0224 4536.3319 4786.0958 4308.1505 4900.8214 4268.3568 4810.5781 Z" fill="none" stroke="#865327" opacity="0.6" stroke-width="1" class="belle_harbor"/>
<path d="M 4288.2529 4783.756 4289.1814 4784.4474 4353.3242 4737.6917 4437.7026 4732.4658 4474.0189 4815.7722 4333.6333 4886.6901 4288.2529 4783.756 Z" fill="none" stroke="#865327" opacity="0.6" stroke-width="1" class="belle_harbor"/>
<path d="M 4268.1044 4797.6452 4307.7068 4770.7916 4314.6552 4766.6232 4336.4214 4750.4215 4352.1654 4737.9246 4373.7145 4731.191 4395.5023 4728.6135 4410.3403 4729.0497 4436.4106 4788.5869 4454.0997 4827.1248 4312.552 4898.2735 4299.0536 4867.5762 4268.1044 4797.6452 Z" fill="none" stroke="#865327" opacity="0.6" stroke-width="1" class="belle_harbor"/>
<path d="M 4369.0745 4866.0744 4320.4421 4761.0711 4427.9644 4731.7901 4465.9078 4817.8654 4369.0745 4866.0744 Z" fill="none" stroke="#865327" opacity="0.6" stroke-width="1" class="belle_harbor"/>
<path d="M 4520.4551 4726.0807 4551.9701 4718.6319 4560.3615 4742.6332 4478.8159 4776.04 4388.9401 4822.3887 4232.3268 4900.249 4196.0862 4855.0343 4348.9267 4742.0868 4415.6725 4729.0404 4450.9174 4732.6733 4486.1576 4733.5336 4520.4551 4726.0807 Z" fill="none" stroke="#865327" opacity="0.6" stroke-width="1" class="belle_harbor"/>
<path d="M 4334.149 4778.1384 4363.9154 4831.6696 4286.0769 4872.4475 4258.1713 4820.7563 4334.149 4778.1384 Z" fill="none" stroke="#865327" opacity="0.6" stroke-width="1" class="belle_harbor"/>
<path d="M 4449.5285 4733.8304 4486.2953 4809.2832 4307.6804 4896.8956 4267.4129 4800.1868 4365.6031 4732.8213 4407.3265 4729.0549 4449.5285 4733.8304 Z" fill="none" stroke="#865327" opacity="0.6" stroke-width="1" class="belle_harbor"/>
<path d="M 4448.0721 4827.4819 4316.7194 4894.4556 4271.4614 4794.6375 4353.4387 4736.8832 4380.774 4724.4819 4401.5204 4723.0607 4405.0048 4727.096 4448.0721 4827.4819 Z" fill="none" stroke="#865327" opacity="0.6" stroke-width="1" class="belle_harbor"/>
<path d="M 4404.0807 4728.9451 4448.1893 4828.1746 4307.1037 4898.7443 4264.8618 4799.7289 4341.2834 4746.4874 4370.1227 4732.1209 4404.0807 4728.9451 Z" fill="none" stroke="#865327" opacity="0.6" stroke-width="1" class="belle_harbor"/>
<path d="M 4464.8949 4770.2915 4466.2814 4767.7486 4483.5206 4813.4454 4326.4544 4892.2453 4279.915 4789.0812 4374.179 4731.6521 4449.9925 4734.0605 4461.862 4759.6735 4464.8949 4770.2915 Z" fill="none" stroke="#865327" opacity="0.6" stroke-width="1" class="belle_harbor"/>
<path d="M 4424.9518 4732.4882 4465.2209 4822.7167 4351.7029 4876.9592 4303.5378 4773.3388 4424.9518 4732.4882 Z" fill="none" stroke="#865327" opacity="0.6" stroke-width="1" class="belle_harbor"/>
<path d="M 4403.8495 4729.2919 4448.8848 4828.1734 4326.2235 4892.8231 4279.1044 4789.6599 4352.9789 4739.1933 4361.3164 4734.0987 4380.6681 4730.3709 4403.8495 4729.2919 Z" fill="none" stroke="#865327" opacity="0.6" stroke-width="1" class="belle_harbor"/>
<path d="M 4311.1668 4901.9714 4268.3509 4806.8829 4377.6458 4725.411 4461.2554 4809.3284 4491.0098 4851.7711 4311.1668 4901.9714 Z" fill="none" stroke="#865327" opacity="0.6" stroke-width="1" class="belle_harbor"/>
<path d="M 4280.6112 4789.542 4295.6641 4778.8942 4306.3184 4772.4105 4320.9066 4761.5322 4345.453 4744.402 4355.1823 4739.767 4365.8393 4735.3612 4383.2184 4730.482 4405.9375 4730.212 4447.6103 4828.5221 4323.8997 4889.7088 4280.6112 4789.542 Z" fill="none" stroke="#865327" opacity="0.6" stroke-width="1" class="belle_harbor"/>
<path d="M 4354.9476 4738.0354 4362.5932 4735.1358 4365.1492 4738.5955 4367.242 4742.287 4369.1084 4749.212 4373.997 4760.9816 4379.3474 4771.5959 4385.6249 4781.9778 4389.1339 4800.2167 4395.1743 4807.3659 4399.8328 4819.8294 4406.5734 4829.518 4409.8326 4837.134 4410.0813 4846.8339 4403.8271 4850.3092 4396.6446 4853.3242 4392.2463 4857.4891 4388.0784 4860.7298 4384.1387 4861.8913 4380.8945 4863.0517 4373.1288 4864.1043 4368.9606 4867.2294 4362.0118 4871.5141 4354.5979 4874.9911 4344.7524 4880.3199 4334.9062 4885.3022 4326.3354 4890.3977 4321.6847 4882.3213 4317.1468 4872.2816 4314.9337 4865.9336 4310.8617 4857.1635 4307.5987 4846.7755 4304.8108 4843.3156 4301.8998 4835.4676 4297.0151 4825.7753 4293.7568 4818.159 4290.8493 4812.3898 4287.4799 4807.6607 4288.0547 4804.6573 4286.6561 4800.0406 4284.6812 4797.3878 4282.2392 4792.6572 4281.8873 4790.1173 4282.8132 4789.1921 4289.4127 4784.1006 4298.5627 4779.2359 4304.3509 4774.3767 4314.5408 4767.5472 4321.1392 4761.9938 4329.7077 4756.2061 4338.0433 4749.8414 4345.7994 4743.5932 4354.9476 4738.0354 Z" fill="none" stroke="#865327" opacity="0.6" stroke-width="1" class="belle_harbor"/>
<path d="M 4405.0082 4729.06 4448.5418 4830.8311 4324.3668 4891.7879 4280.3816 4790.9292 4378.1091 4725.1804 4405.0082 4729.06 Z" fill="none" stroke="#865327" opacity="0.6" stroke-width="1" class="belle_harbor"/>
<path d="M 4307.9153 4898.743 4270.6797 4813.3459 4473.6303 4728.9376 4505.2867 4798.1627 4307.9153 4898.743 Z" fill="none" stroke="#865327" opacity="0.6" stroke-width="1" class="belle_harbor"/>
<path d="M 4246.9847 4932.1013 4214.1788 4859.8571 4373.9463 4731.1907 4421.2009 4841.2714 4249.7644 4930.2491 4246.9847 4932.1013 Z" fill="none" stroke="#865327" opacity="0.6" stroke-width="1" class="belle_harbor"/>
<path d="M 4368.6308 4877.8546 4316.5228 4774.4723 4448.0648 4692.9583 4529.8764 4805.5077 4368.6308 4877.8546 Z" fill="none" stroke="#865327" opacity="0.6" stroke-width="1" class="belle_harbor"/>
<path d="M 4439.2665 4830.2691 4368.6112 4866.3061 4322.298 4761.7609 4363.7477 4732.3626 4397.5904 4729.5336 4439.2665 4830.2691 Z" fill="none" stroke="#865327" opacity="0.6" stroke-width="1" class="belle_harbor"/>
<path d="M 4285.9626 4801.3119 4439.8025 4740.0829 4466.8331 4816.7089 4316.6969 4880.7127 4285.9626 4801.3119 Z" fill="none" stroke="#865327" opacity="0.6" stroke-width="1" class="belle_harbor"/>
<path d="M 4441.5023 4783.4971 4457.7962 4819.7275 4454.7883 4823.1973 4440.2003 4833.8473 4326.6775 4886.9326 4313.1822 4858.3146 4299.4533 4828.0809 4286.8919 4802.4652 4283.856 4788.844 4294.9689 4779.1263 4356.8013 4737.4549 4382.2907 4730.2527 4407.7894 4728.5923 4416.8369 4732.0405 4422.4231 4744.7323 4427.5393 4753.7299 4432.4217 4761.5734 4440.3308 4776.5708 4457.0998 4819.2669 4451.5102 4805.1886 4445.9245 4793.1891 4442.4341 4786.0359 4441.5023 4783.4971 Z" fill="none" stroke="#865327" opacity="0.6" stroke-width="1" class="belle_harbor"/>
<path d="M 4362.4775 4735.2514 4411.4699 4845.3303 4324.7116 4889.9385 4280.4955 4789.6577 4362.4775 4735.2514 Z" fill="none" stroke="#865327" opacity="0.6" stroke-width="1" class="belle_harbor"/>
<path d="M 4315.3276 4894.1114 4272.0407 4794.4056 4372.0709 4718.9544 4438.1699 4734.5434 4474.9488 4817.1562 4315.3276 4894.1114 Z" fill="none" stroke="#865327" opacity="0.6" stroke-width="1" class="belle_harbor"/>
<path d="M 4438.4604 4813.3534 4305.4061 4899.1568 4288.8417 4858.8811 4266.9729 4812.4931 4407.3574 4737.3563 4417.6835 4760.3392 4428.1519 4783.4768 4438.4604 4813.3534 Z" fill="none" stroke="#865327" opacity="0.6" stroke-width="1" class="belle_harbor"/>
<path d="M 4273.0856 4795.4432 4297.982 4778.544 4321.2539 4761.3007 4354.3684 4738.2673 4362.4759 4734.3277 4382.5212 4729.444 4415.7872 4728.3474 4427.2677 4731.0985 4439.5586 4733.2708 4450.4554 4733.5978 4485.6067 4813.0952 4317.0699 4896.0718 4273.0856 4795.4432 Z" fill="none" stroke="#865327" opacity="0.6" stroke-width="1" class="belle_harbor"/>
<path d="M 4320.6865 4768.6918 4461.7381 4819.9514 4422.4 4731.5689 4366.759 4867.9261 4320.6865 4768.6918 Z" fill="none" stroke="#865327" opacity="0.6" stroke-width="1" class="belle_harbor"/>
<path d="M 4274.3344 4796.0937 4272.4929 4793.6079 4283.7153 4787.3511 4305.2545 4772.0786 4329.575 4755.8129 4345.9945 4743.1411 4353.4756 4738.0324 4362.1922 4733.8809 4382.6902 4730.0109 4415.6678 4727.2984 4426.3407 4732.2448 4465.9725 4818.5952 4456.6973 4823.1098 4439.0266 4831.5986 4412.5151 4844.5417 4368.0914 4866.9414 4333.3909 4886.0482 4316.8259 4894.3905 4317.8672 4893.1184 4313.8969 4888.7344 4301.1173 4859.9139 4298.4151 4851.1757 4293.5819 4841.4178 4291.2038 4836.1096 4288.4139 4831.3794 4286.3151 4823.8766 4284.5263 4820.5791 4282.7815 4816.8866 4281.0895 4813.3295 4279.8093 4810.2137 4278.2968 4806.7518 4276.5791 4803.3554 4275.1847 4801.279 4274.2223 4798.5189 4274.3344 4796.0937 Z" fill="none" stroke="#865327" opacity="0.6" stroke-width="1" class="belle_harbor"/>
<path d="M 4426.9226 4732.6002 4466.0293 4820.983 4307.7999 4899.0896 4262.8938 4801.4642 4312.9174 4767.2034 4352.7448 4737.8081 4361.548 4733.9829 4372.0911 4730.8474 4383.5644 4729.4423 4394.6919 4729.1922 4404.7756 4728.5975 4415.3233 4728.2327 4426.9226 4732.6002 Z" fill="none" stroke="#865327" opacity="0.6" stroke-width="1" class="belle_harbor"/>
<path d="M 4266.4822 4798.1097 4449.7574 4732.2135 4484.2162 4813.4441 4311.6362 4905.4352 4266.4822 4798.1097 Z" fill="none" stroke="#865327" opacity="0.6" stroke-width="1" class="belle_harbor"/>
<path d="M 4307.4493 4897.3579 4261.8445 4797.6551 4358.1814 4730.9864 4440.7102 4728.9964 4447.2081 4732.6799 4481.6616 4811.1392 4307.4493 4897.3579 Z" fill="none" stroke="#865327" opacity="0.6" stroke-width="1" class="belle_harbor"/>
<path d="M 4440.6033 4759.5189 4440.9614 4765.4073 4427.4335 4736.9931 4450.7402 4786.748 4458.595 4805.9505 4464.2433 4818.3668 4316.1272 4895.5576 4271.8554 4797.2098 4271.4637 4796.6476 4425.0035 4731.9621 4425.0073 4734.1559 4426.6342 4736.4624 4426.6389 4739.1182 4428.1683 4740.5871 4427.1269 4741.6281 4427.9436 4744.6289 4430.2713 4749.9364 4432.3641 4753.5122 4433.0938 4751.6769 4440.6033 4759.5189 Z" fill="none" stroke="#865327" opacity="0.6" stroke-width="1" class="belle_harbor"/>
<path d="M 4405.2385 4728.1348 4448.3001 4825.2874 4307.6834 4898.7434 4265.3255 4799.7282 4338.0419 4749.0331 4360.9688 4734.2148 4375.8002 4730.7256 4394.1125 4729.3087 4405.2385 4728.1348 Z" fill="none" stroke="#865327" opacity="0.6" stroke-width="1" class="belle_harbor"/>
<path d="M 4511.6511 4729.0991 4537.9548 4786.0927 4325.0598 4890.1689 4280.1453 4788.1571 4379.0372 4725.6396 4511.6511 4729.0991 Z" fill="none" stroke="#865327" opacity="0.6" stroke-width="1" class="belle_harbor"/>
<path d="M 4197.9173 4839.3261 4359.1103 4731.9086 4433.29 4728.0858 4505.8523 4853.5916 4242.5869 4937.1899 4197.9173 4839.3261 Z" fill="none" stroke="#865327" opacity="0.6" stroke-width="1" class="belle_harbor"/></svg>