<?xml version="1.0"?><svg xmlns="http://www.w3.org/2000/svg" version="1.2" baseProfile="tiny" width="6000" height="5918" viewBox="0 0 6000 5918" stroke-linecap="round" stroke-linejoin="round"><path d="M 5999 2406.9645 5999 2429.0123 5999 2432.7642 5999 2438.1686 5999 2439.9124 5999 2447.8856 5999 2461.5426 5999 2466.2829 5999 2472.5895 5999 2475.2199 5999 2490.5411 5999 2490.589 5999 2491.1505 5999 2492.2872 5999 2494.4513 5999 2496.149 5999 2496.3287 5999 2501.9504 5999 2506.7103 5999 2511.4324 5999 2511.4842 5999 2518.3149 5999 2520.0091 5999 2524.5167 5999 2539.5997 5999 2555.3212 5999 2587.9717 5999 2588.8586 5999 2610.1138 5999 2613.5943 5999 2617.5173 5999 2626.5454 5999 2628.0705 5999 2628.3143 5999 2628.7702 5999 2629.4242 5999 2633.76 5999 2633.7959 5999 2633.8528 5999 2634.2103 5999 2634.3295 5853.4814 2668.4926 5762.5947 2696.6586 5733.8803 2687.5316 5607.8835 2637.2234 5639.8669 2505.3302 5635.7327 2514.8656 5878.601 2526.2078 5999 2406.9645 Z" fill="none" stroke="#12852D" opacity="0.6" stroke-width="1" class="bellerose"/>
<path d="M 5727.26 2472.3083 5743.8917 2465.805 5765.5277 2453.3915 5755.3633 2457.1099 5783.9884 2440.4312 5805.2149 2424.6973 5829.3013 2420.4754 5849.7038 2436.0747 5874.7599 2459.9524 5893.3474 2485.6947 5906.385 2511.4558 5904.6205 2537.2667 5908.4286 2569.5114 5907.626 2606.3809 5896.6209 2635.912 5889.2797 2654.3708 5877.316 2666.8676 5856.04 2668.781 5823.6752 2675.3386 5795.9483 2685.5673 5780.7657 2684.2001 5756.7307 2691.6507 5719.0717 2485.3151 5725.6487 2517.55 5727.26 2472.3083 Z" fill="none" stroke="#12852D" opacity="0.6" stroke-width="1" class="bellerose"/>
<path d="M 5708.249 2717.9614 5683.1901 2731.4053 5678.7633 2721.2791 5667.0795 2683.2916 5662.1601 2663.2586 5672.6705 2620.8271 5681.6954 2547.066 5697.249 2490.8001 5673.1189 2465.9925 5658.3059 2462.3518 5665.1338 2426.3912 5684.0066 2396.8451 5700.5599 2365.4638 5722.1548 2319.7855 5752.1403 2295.7347 5753.5274 2295.6152 5771.3805 2310.6463 5776.879 2330.7847 5788.5455 2363.3432 5801.2758 2402.8105 5819.4968 2459.1947 5835.7154 2503.7229 5851.5554 2538.1163 5876.8217 2589.8761 5886.1015 2633.1651 5885.5111 2664.5058 5842.2783 2672.3673 5790.387 2685.5548 5753.5324 2699.153 5708.249 2717.9614 Z" fill="none" stroke="#12852D" opacity="0.6" stroke-width="1" class="bellerose"/>
<path d="M 5669.3818 2754.9542 5641.7922 2659.6339 5655.3296 2623.415 5707.6171 2552.285 5730.4785 2466.7357 5808.0666 2428.9363 5887.9419 2665.0739 5673.5425 2753.7892 5675.3947 2754.2444 5669.3818 2754.9542 Z" fill="none" stroke="#12852D" opacity="0.6" stroke-width="1" class="bellerose"/>
<path d="M 5888.9213 2681.4318 5620.8824 2782.7575 5614.6902 2570.7724 5881.9452 2530.2979 5888.9213 2681.4318 Z" fill="none" stroke="#12852D" opacity="0.6" stroke-width="1" class="bellerose"/>
<path d="M 5745.5317 2692.9563 5756.9741 2507.6621 5903.0097 2465.7173 5939.6744 2639.7842 5745.5317 2692.9563 Z" fill="none" stroke="#12852D" opacity="0.6" stroke-width="1" class="bellerose"/>
<path d="M 5999 2255.0134 5999 2270.2192 5999 2295.4929 5999 2295.6235 5999 2298.4338 5999 2298.6703 5999 2316.0631 5999 2323.2836 5999 2327.8605 5999 2329.5211 5999 2329.8283 5999 2333.3938 5999 2334.317 5999 2334.3186 5999 2344.2758 5999 2347.9137 5999 2356.8891 5999 2371.2577 5999 2385.379 5999 2406.9645 5999 2429.0123 5999 2432.7642 5999 2438.1686 5999 2439.9124 5999 2447.8856 5999 2461.5426 5999 2466.2829 5999 2472.5895 5999 2475.2199 5999 2490.5411 5999 2490.589 5999 2491.1505 5999 2492.2872 5999 2494.4513 5999 2496.149 5999 2496.3287 5999 2501.9504 5999 2506.7103 5999 2511.4324 5999 2511.4842 5999 2518.3149 5999 2520.0091 5999 2524.5167 5999 2539.5997 5999 2555.3212 5999 2587.9717 5787.9494 2646.734 5724.2097 2385.2014 5753.484 2281.9098 5834.626 2204.2572 5978.8902 2200.0919 5999 2255.0134 Z" fill="none" stroke="#12852D" opacity="0.6" stroke-width="1" class="bellerose"/>
<path d="M 5548.859 2523.0441 5556.2548 2521.179 5608.0278 2509.0438 5668.9885 2476.6031 5710.6131 2474.6311 5722.6483 2477.3581 5761.7489 2554.6493 5734.4162 2689.3043 5503.8146 2622.7144 5498.167 2589.5501 5548.859 2523.0441 Z" fill="none" stroke="#12852D" opacity="0.6" stroke-width="1" class="bellerose"/>
<path d="M 5699.3454 2718.9109 5688.0928 2671.0136 5636.2194 2652.7379 5656.3585 2581.7057 5659.1511 2587.2271 5698.913 2579.7311 5716.1465 2469.0844 5721.6943 2468.1455 5729.0865 2465.3577 5729.9943 2459.8256 5692.7102 2369.6347 5693.6095 2361.3388 5695.4309 2352.1187 5699.108 2344.7358 5703.7071 2336.4286 5711.0839 2329.0342 5717.5299 2319.8 5731.3697 2308.6997 5737.8182 2300.3869 5746.134 2297.5965 5748.8885 2291.1381 5754.4439 2292.9633 5760.9302 2296.6283 5887.9411 2664.8434 5882.3954 2666.7053 5699.3454 2718.9109 Z" fill="none" stroke="#12852D" opacity="0.6" stroke-width="1" class="bellerose"/>
<path d="M 5545.3618 2592.1773 5493.3305 2516.7549 5544.9277 2444.7224 5644.7528 2416.7777 5761.2577 2399.8283 5800.2161 2432.878 5841.1596 2506.47 5863.6958 2607.7768 5845.4373 2683.4181 5843.797 2747.9491 5823.9102 2893.6733 5844.422 2939.7061 5794.6717 3011.7865 5819.0722 3114.9866 5717.2231 3109.7772 5639.461 3110.017 5572.605 3041.9795 5579.6588 2923.9359 5581.2021 2820.6735 5566.0941 2719.3155 5551.0654 2643.7756 5545.3618 2592.1773 Z" fill="none" stroke="#12852D" opacity="0.6" stroke-width="1" class="bellerose"/>
<path d="M 5999 2316.0631 5999 2323.2836 5999 2327.8605 5999 2329.5211 5999 2329.8283 5999 2333.3938 5999 2334.317 5999 2334.3186 5999 2344.2758 5999 2347.9137 5999 2356.8891 5999 2371.2577 5999 2385.379 5999 2406.9645 5999 2429.0123 5999 2432.7642 5999 2438.1686 5999 2439.9124 5999 2447.8856 5999 2461.5426 5999 2466.2829 5999 2472.5895 5999 2475.2199 5999 2490.5411 5999 2490.589 5999 2491.1505 5999 2492.2872 5999 2494.4513 5999 2496.149 5999 2496.3287 5999 2501.9504 5999 2506.7103 5999 2511.4324 5999 2511.4842 5999 2518.3149 5999 2520.0091 5999 2524.5167 5999 2539.5997 5999 2555.3212 5999 2587.9717 5999 2588.8586 5999 2610.1138 5999 2613.5943 5999 2617.5173 5999 2626.5454 5999 2628.0705 5999 2628.3143 5999 2628.7702 5999 2629.4242 5999 2633.76 5999 2633.7959 5999 2633.8528 5999 2634.2103 5999 2634.3295 5999 2637.391 5999 2637.4884 5999 2638.2622 5999 2639.7131 5999 2646.6027 5999 2647.5003 5999 2648.0545 5544.173 2817.0956 5419.1573 2459.8288 5938.2403 2213.1276 5999 2316.0631 Z" fill="none" stroke="#12852D" opacity="0.6" stroke-width="1" class="bellerose"/>
<path d="M 5632.0258 2490.5396 5676.4264 2488.5606 5709.7196 2484.7711 5748.6332 2503.0805 5752.4678 2545.4624 5748.901 2587.8695 5736.116 2641.3682 5730.6859 2680.0983 5695.5238 2680.2081 5619.5642 2652.7883 5582.547 2651.056 5597.2245 2608.6135 5630.388 2560.5868 5632.1153 2520.0302 5632.0258 2490.5396 Z" fill="none" stroke="#12852D" opacity="0.6" stroke-width="1" class="bellerose"/>
<path d="M 5999 2333.3938 5999 2334.317 5999 2334.3186 5999 2344.2758 5999 2347.9137 5999 2356.8891 5999 2371.2577 5999 2385.379 5999 2406.9645 5999 2429.0123 5999 2432.7642 5999 2438.1686 5999 2439.9124 5999 2447.8856 5999 2461.5426 5999 2466.2829 5999 2472.5895 5999 2475.2199 5999 2490.5411 5999 2490.589 5999 2491.1505 5999 2492.2872 5999 2494.4513 5999 2496.149 5999 2496.3287 5999 2501.9504 5999 2506.7103 5999 2511.4324 5999 2511.4842 5999 2518.3149 5999 2520.0091 5999 2524.5167 5999 2539.5997 5999 2555.3212 5999 2587.9717 5999 2588.8586 5999 2610.1138 5999 2613.5943 5999 2617.5173 5999 2626.5454 5999 2628.0705 5999 2628.3143 5999 2628.7702 5999 2629.4242 5999 2633.76 5999 2633.7959 5999 2633.8528 5795.467 2682.658 5724.4783 2470.9015 5980.1602 2301.4355 5999 2333.3938 Z" fill="none" stroke="#12852D" opacity="0.6" stroke-width="1" class="bellerose"/>
<path d="M 5887.0067 2662.0813 5761.7308 2694.7486 5752.4855 2697.3128 5743.9117 2692.731 5747.8857 2632.5748 5757.6338 2569.8695 5758.0803 2564.799 5688.7527 2585.2926 5670.261 2589.4972 5651.2783 2584.4862 5621.4098 2574.6692 5635.0619 2500.2069 5656.7547 2484.474 5693.0395 2475.8377 5716.1509 2470.4668 5747.1043 2458.3894 5809.4431 2425.4762 5887.0067 2662.0813 Z" fill="none" stroke="#12852D" opacity="0.6" stroke-width="1" class="bellerose"/>
<path d="M 5894.3602 2647.3092 5847.4802 2671.4286 5802.0577 2681.9455 5761.7396 2697.5139 5735.1688 2707.9679 5695.2013 2725.3764 5666.1161 2746.2069 5630.6035 2784.1108 5625.7018 2769.837 5618.7006 2749.8082 5616.59 2740.3659 5611.4602 2727.0151 5606.5167 2698.685 5597.1031 2645.2517 5525.7909 2623.1113 5561.5588 2593.9729 5549.867 2551.1505 5563.212 2527.3793 5729.5513 2466.0474 5753.1109 2456.2969 5781.0561 2443.9977 5816.1372 2421.5381 5839.2091 2404.6459 5859.0583 2392.6017 5897.129 2366.2144 5880.5191 2378.4787 5886.8422 2402.4163 5894.3074 2421.9734 5899.9236 2441.7675 5905.7736 2462.2523 5909.3094 2482.2844 5917.2707 2511.5182 5924.7428 2532.6902 5927.0966 2544.8938 5928.065 2557.7935 5938.2871 2571.1231 5938.5618 2584.0254 5931.2141 2600.1794 5938.6005 2595.5462 5920.1697 2617.7285 5894.3602 2647.3092 Z" fill="none" stroke="#12852D" opacity="0.6" stroke-width="1" class="bellerose"/>
<path d="M 5809.942 2436.7632 5847.7387 2538.0136 5879.9028 2612.332 5884.2361 2663.7035 5752.0272 2698.6969 5685.5524 2672.4041 5727.2941 2631.257 5696.9757 2626.2822 5704.1071 2613.5867 5710.9236 2574.1638 5704.1416 2476.0336 5809.942 2436.7632 Z" fill="none" stroke="#12852D" opacity="0.6" stroke-width="1" class="bellerose"/>
<path d="M 5897.1758 2659.2824 5667.0322 2743.2082 5639.6935 2654.1099 5598.4882 2644.3258 5622.5726 2576.7394 5653.3685 2587.2448 5766.1663 2561.778 5864.6126 2534.7327 5908.0427 2657.6333 5897.1758 2659.2824 Z" fill="none" stroke="#12852D" opacity="0.6" stroke-width="1" class="bellerose"/>
<path d="M 5999 2344.2758 5999 2347.9137 5999 2356.8891 5999 2371.2577 5999 2385.379 5999 2406.9645 5999 2429.0123 5999 2432.7642 5999 2438.1686 5999 2439.9124 5999 2447.8856 5999 2461.5426 5999 2466.2829 5999 2472.5895 5999 2475.2199 5999 2490.5411 5999 2490.589 5999 2491.1505 5999 2492.2872 5999 2494.4513 5999 2496.149 5999 2496.3287 5999 2501.9504 5999 2506.7103 5999 2511.4324 5999 2511.4842 5999 2518.3149 5999 2520.0091 5999 2524.5167 5999 2539.5997 5999 2555.3212 5999 2587.9717 5999 2588.8586 5999 2610.1138 5999 2613.5943 5999 2617.5173 5999 2626.5454 5999 2628.0705 5999 2628.3143 5743.7014 2699.4145 5737.427 2469.9393 5976.4855 2308.8192 5999 2344.2758 Z" fill="none" stroke="#12852D" opacity="0.6" stroke-width="1" class="bellerose"/>
<path d="M 5765.7132 2564.7748 5804.7173 2681.7065 5727.5434 2710.7572 5716.8355 2763.5646 5660.9138 2784.9402 5659.2251 2762.3601 5609.0919 2708.8168 5537.402 2638.5159 5535.4791 2613.8659 5571.7732 2528.5059 5638.0686 2500.1978 5629.9548 2570.2654 5665.6207 2584.9031 5699.1443 2579.7304 5765.7132 2564.7748 Z" fill="none" stroke="#12852D" opacity="0.6" stroke-width="1" class="bellerose"/>
<path d="M 5999 2617.5173 5999 2626.5454 5999 2628.0705 5999 2628.3143 5999 2628.7702 5892.5615 2662.9847 5749.2418 2695.7099 5604.7263 2641.7724 5638.5241 2497.8925 5736.4613 2457.0406 5978.348 2312.4985 5991.0303 2505.0483 5999 2617.5173 Z" fill="none" stroke="#12852D" opacity="0.6" stroke-width="1" class="bellerose"/>
<path d="M 5890.4346 2666.0321 5913.6778 2699.1383 5656.5384 2783.1223 5647.0956 2761.9823 5721.4637 2711.7376 5765.9499 2698.2306 5798.7833 2674.4105 5872.7525 2669.8682 5881.4703 2665.2307 5890.4346 2666.0321 Z" fill="none" stroke="#12852D" opacity="0.6" stroke-width="1" class="bellerose"/>
<path d="M 5614.6985 2573.5374 5662.8521 2587.2158 5759.9307 2564.7931 5847.7379 2537.7832 5873.8098 2588.3883 5883.132 2609.5562 5884.2399 2664.8557 5918.6177 2707.1428 5789.1993 2748.1254 5731.8689 2762.1347 5672.6973 2779.8338 5622.7806 2798.4234 5518.608 2618.9846 5574.0248 2585.6408 5614.6985 2573.5374 Z" fill="none" stroke="#12852D" opacity="0.6" stroke-width="1" class="bellerose"/>
<path d="M 5893.4991 2666.6685 5804.7143 2680.7848 5736.2958 2698.5161 5741.0926 2458.8691 5898.0907 2377.2687 5992.8964 2509.6499 5893.4991 2666.6685 Z" fill="none" stroke="#12852D" opacity="0.6" stroke-width="1" class="bellerose"/>
<path d="M 5694.8944 2775.6169 5660.5429 2663.9549 5732.0938 2465.5786 5795.6233 2443.0295 5871.6754 2713.0595 5694.8944 2775.6169 Z" fill="none" stroke="#12852D" opacity="0.6" stroke-width="1" class="bellerose"/>
<path d="M 5878.6881 2664.874 5620.8991 2788.2886 5501.0762 2635.6263 5927.5524 2335.7054 5878.6881 2664.874 Z" fill="none" stroke="#12852D" opacity="0.6" stroke-width="1" class="bellerose"/>
<path d="M 5599.1746 2641.789 5632.051 2498.8337 5808.524 2427.3222 5887.0158 2664.8465 5745.5463 2697.5652 5599.1746 2641.789 Z" fill="none" stroke="#12852D" opacity="0.6" stroke-width="1" class="bellerose"/>
<path d="M 5999 2356.8891 5999 2371.2577 5999 2385.379 5999 2406.9645 5999 2429.0123 5999 2432.7642 5999 2438.1686 5999 2439.9124 5999 2447.8856 5999 2461.5426 5999 2466.2829 5999 2472.5895 5999 2475.2199 5999 2490.5411 5999 2490.589 5999 2491.1505 5999 2492.2872 5999 2494.4513 5999 2496.149 5999 2496.3287 5999 2501.9504 5999 2506.7103 5999 2511.4324 5999 2511.4842 5999 2518.3149 5999 2520.0091 5999 2524.5167 5999 2539.5997 5999 2555.3212 5999 2587.9717 5999 2588.8586 5999 2610.1138 5999 2613.5943 5999 2617.5173 5999 2626.5454 5999 2628.0705 5999 2628.3143 5999 2628.7702 5999 2629.4242 5999 2633.76 5999 2633.7959 5697.4832 2715.2295 5526.7979 2571.9552 5690.9487 2398.2058 5940.1706 2237.0754 5999 2356.8891 Z" fill="none" stroke="#12852D" opacity="0.6" stroke-width="1" class="bellerose"/>
<path d="M 5732.323 2464.8868 5808.5225 2426.8614 5886.9915 2657.4727 5801.449 2672.4995 5729.7779 2685.6318 5629.2811 2653.2198 5636.1157 2618.6347 5702.2874 2623.5006 5716.0036 2571.383 5732.323 2464.8868 Z" fill="none" stroke="#12852D" opacity="0.6" stroke-width="1" class="bellerose"/>
<path d="M 5679.2637 2733.4915 5677.3731 2720.592 5674.8007 2711.6125 5671.7635 2701.9431 5669.1912 2692.9637 5668.3809 2692.7357 5666.1535 2683.064 5663.1161 2673.2797 5659.8451 2662.6896 5658.3203 2655.7813 5663.0164 2640.7888 5668.1655 2622.6844 5670.4951 2590.4182 5671.1777 2586.7294 5669.6359 2574.2917 5673.5184 2558.1509 5678.5363 2535.2099 5683.3326 2515.4957 5691.5619 2484.1363 5694.3104 2475.4881 5706.2181 2474.4144 5720.891 2470.1064 5731.8593 2464.5426 5744.1024 2459.8964 5752.416 2455.9535 5763.2698 2450.8507 5772.161 2446.7907 5780.5914 2443.308 5789.7137 2439.2472 5799.6416 2434.0317 5808.4065 2426.7466 5811.6688 2434.3386 5814.8221 2444.0044 5818.3229 2453.7844 5820.4286 2461.2652 5824.6296 2473.0014 5827.6616 2480.8248 5828.4879 2486.006 5830.9332 2491.1819 5832.4527 2496.1305 5835.7146 2503.4925 5836.8789 2505.9079 5839.9115 2513.8468 5844.9154 2523.3921 5846.3204 2528.6868 5849.4583 2533.3999 5851.671 2538.1159 5856.2179 2549.2758 5860.2924 2557.442 5864.4841 2566.0687 5869.2595 2576.3064 5871.5873 2580.7918 5876.0151 2590.8004 5878.1208 2598.0517 5880.577 2606.3387 5881.4071 2612.5574 5883.7385 2618.0799 5884.3377 2624.4146 5884.3594 2630.9817 5884.6021 2634.4374 5885.7926 2644.6876 5885.8147 2651.37 5885.5898 2653.3295 5886.4367 2664.618 5871.8727 2667.5465 5861.5843 2669.3085 5847.9436 2671.6575 5838.2312 2672.7261 5828.2879 2673.9106 5816.0386 2677.4069 5802.6338 2681.2523 5791.1955 2685.2065 5779.5251 2688.9309 5770.7448 2692.1851 5761.8491 2695.5548 5755.7279 2698.4547 5746.8328 2702.0548 5735.3918 2705.317 5729.7332 2708.2154 5722.7981 2709.8503 5715.2919 2713.7914 5704.3213 2719.5868 5695.3137 2724.339 5690.9258 2726.7723 5685.6149 2730.0151 5679.2637 2733.4915 Z" fill="none" stroke="#12852D" opacity="0.6" stroke-width="1" class="bellerose"/>
<path d="M 5999 2639.7131 5802.8814 2686.3212 5737.4096 2464.41 5951.5739 2327.3318 5999 2520.0091 5999 2524.5167 5999 2539.5997 5999 2555.3212 5999 2587.9717 5999 2588.8586 5999 2610.1138 5999 2613.5943 5999 2617.5173 5999 2626.5454 5999 2628.0705 5999 2628.3143 5999 2628.7702 5999 2629.4242 5999 2633.76 5999 2633.7959 5999 2633.8528 5999 2634.2103 5999 2634.3295 5999 2637.391 5999 2637.4884 5999 2638.2622 5999 2639.7131 Z" fill="none" stroke="#12852D" opacity="0.6" stroke-width="1" class="bellerose"/>
<path d="M 5752.0207 2696.6229 5599.1829 2644.5542 5632.0482 2497.9121 5809.449 2427.3192 5890.7018 2660.2256 5752.0207 2696.6229 Z" fill="none" stroke="#12852D" opacity="0.6" stroke-width="1" class="bellerose"/>
<path d="M 5624.8954 2579.9582 5670.2652 2590.8797 5846.8308 2543.3159 5882.3711 2659.3314 5752.0119 2693.8576 5600.1082 2644.5514 5624.8954 2579.9582 Z" fill="none" stroke="#12852D" opacity="0.6" stroke-width="1" class="bellerose"/>
<path d="M 5747.3998 2698.4811 5599.1787 2643.1716 5636.4482 2499.7419 5730.0066 2463.7421 5712.5278 2421.1761 5794.7498 2387.051 5871.0068 2580.1025 5883.151 2615.3167 5886.3188 2663.9271 5747.3998 2698.4811 Z" fill="none" stroke="#12852D" opacity="0.6" stroke-width="1" class="bellerose"/>
<path d="M 5928.6143 2652.7255 5752.876 2674.4979 5626.0384 2651.847 5550.7202 2526.725 5785.4621 2447.6697 5928.6143 2652.7255 Z" fill="none" stroke="#12852D" opacity="0.6" stroke-width="1" class="bellerose"/>
<path d="M 5692.672 2372.2241 5751.5971 2296.5012 5813.6677 2421.6475 5715.4849 2473.4363 5737.832 2686.7587 5524.2279 2620.148 5497.495 2600.2988 5692.672 2372.2241 Z" fill="none" stroke="#12852D" opacity="0.6" stroke-width="1" class="bellerose"/>
<path d="M 5887.0128 2663.9248 5743.7072 2701.2581 5761.7753 2562.944 5728.1672 2467.2037 5808.521 2426.4007 5907.351 2658.3269 5887.0128 2663.9248 Z" fill="none" stroke="#12852D" opacity="0.6" stroke-width="1" class="bellerose"/>
<path d="M 5566.446 2525.9873 5565.2902 2526.2211 5711.7616 2472.0932 5734.7363 2570.4026 5607.1675 2607.4315 5562.0146 2591.6673 5547.5608 2553.4614 5566.446 2525.9873 Z" fill="none" stroke="#12852D" opacity="0.6" stroke-width="1" class="bellerose"/>
<path d="M 5658.3779 2485.8513 5662.5325 2483.0739 5655.1259 2481.2535 5810.3652 2424.5517 5900.5129 2549.5906 5719.0236 2723.4586 5658.8126 2778.7241 5633.1908 2721.8795 5561.0935 2593.0526 5630.1783 2491.4668 5658.3779 2485.8513 Z" fill="none" stroke="#12852D" opacity="0.6" stroke-width="1" class="bellerose"/>
<path d="M 5999 2461.5426 5999 2466.2829 5999 2472.5895 5999 2475.2199 5999 2490.5411 5999 2490.589 5999 2491.1505 5999 2492.2872 5999 2494.4513 5999 2496.149 5999 2496.3287 5999 2501.9504 5999 2506.7103 5999 2511.4324 5653.4553 2842.5811 5620.244 2877.7155 5746.1484 2888.3901 5925.1506 2723.7132 5286.4395 2646.3626 5999 2461.5426 Z" fill="none" stroke="#12852D" opacity="0.6" stroke-width="1" class="bellerose"/>
<path d="M 5999 2432.7642 5999 2438.1686 5999 2439.9124 5999 2447.8856 5999 2461.5426 5999 2466.2829 5999 2472.5895 5999 2475.2199 5999 2490.5411 5999 2490.589 5999 2491.1505 5999 2492.2872 5999 2494.4513 5999 2496.149 5999 2496.3287 5999 2501.9504 5999 2506.7103 5999 2511.4324 5999 2511.4842 5999 2518.3149 5999 2520.0091 5999 2524.5167 5999 2539.5997 5999 2555.3212 5999 2587.9717 5999 2588.8586 5999 2610.1138 5999 2613.5943 5999 2617.5173 5999 2626.5454 5999 2628.0705 5999 2628.3143 5999 2628.7702 5999 2629.4242 5999 2633.76 5999 2633.7959 5999 2633.8528 5999 2634.2103 5999 2634.3295 5999 2637.391 5999 2637.4884 5999 2638.2622 5999 2639.7131 5999 2646.6027 5999 2647.5003 5999 2648.0545 5999 2666.0367 5787.4872 2791.4577 5620.4978 2655.5507 5610.314 2653.738 5712.5496 2502.2722 5715.328 2503.1851 5713.4834 2505.0341 5848.305 2428.1146 5902.8199 2408.5834 5999 2432.7642 Z" fill="none" stroke="#12852D" opacity="0.6" stroke-width="1" class="bellerose"/>
<path d="M 5884.051 2327.5573 5877.0136 2718.3422 5708.7426 2764.9726 5609.6588 2436.2359 5596.5612 2387.4358 5637.5457 2480.3855 5696.9395 2540.1066 5709.6938 2476.4771 5597.4365 2370.8468 5884.051 2327.5573 Z" fill="none" stroke="#12852D" opacity="0.6" stroke-width="1" class="bellerose"/>
<path d="M 5757.5552 2691.0748 5835.69 2673.7714 5837.0824 2675.1495 5757.5552 2691.0748 Z" fill="none" stroke="#12852D" opacity="0.6" stroke-width="1" class="bellerose"/>
<path d="M 5722.9152 2710.3108 5731.8599 2685.6252 5684.8592 2672.6366 5714.7242 2680.1483 5744.4488 2569.6808 5721.5287 2489.1116 5704.8304 2474.4187 5789.5977 2439.1324 5808.7545 2427.091 5828.6021 2485.5448 5839.7959 2513.8472 5850.9745 2537.3118 5875.4342 2589.9959 5883.3884 2617.1594 5886.0882 2664.1583 5828.2897 2674.4867 5816.9614 2676.5974 5802.6331 2681.0219 5753.8757 2697.9997 5722.9152 2710.3108 Z" fill="none" stroke="#12852D" opacity="0.6" stroke-width="1" class="bellerose"/>
<path d="M 5999 2295.6235 5999 2298.4338 5999 2298.6703 5999 2316.0631 5999 2323.2836 5999 2327.8605 5999 2329.5211 5999 2329.8283 5999 2333.3938 5999 2334.317 5999 2334.3186 5999 2344.2758 5999 2347.9137 5999 2356.8891 5999 2371.2577 5999 2385.379 5999 2406.9645 5999 2429.0123 5999 2432.7642 5999 2438.1686 5999 2439.9124 5999 2447.8856 5999 2461.5426 5999 2466.2829 5999 2472.5895 5999 2475.2199 5999 2490.5411 5999 2490.589 5999 2491.1505 5999 2492.2872 5999 2494.4513 5999 2496.149 5999 2496.3287 5999 2501.9504 5999 2506.7103 5999 2511.4324 5999 2511.4842 5999 2518.3149 5999 2520.0091 5999 2524.5167 5999 2539.5997 5999 2555.3212 5999 2587.9717 5999 2588.8586 5999 2610.1138 5987.7795 2636.8561 5765.9124 2700.266 5739.2482 2460.718 5694.443 2331.8503 5954.8816 2211.2289 5999 2295.6235 Z" fill="none" stroke="#12852D" opacity="0.6" stroke-width="1" class="bellerose"/>
<path d="M 5999 2298.4338 5999 2298.6703 5999 2316.0631 5999 2323.2836 5999 2327.8605 5999 2329.5211 5999 2329.8283 5999 2333.3938 5999 2334.317 5999 2334.3186 5999 2344.2758 5999 2347.9137 5999 2356.8891 5999 2371.2577 5999 2385.379 5999 2406.9645 5999 2429.0123 5999 2432.7642 5999 2438.1686 5999 2439.9124 5999 2447.8856 5999 2461.5426 5999 2466.2829 5999 2472.5895 5999 2475.2199 5999 2490.5411 5999 2490.589 5999 2491.1505 5999 2492.2872 5999 2494.4513 5999 2496.149 5999 2496.3287 5993.79 2500.4309 5762.7063 2564.7843 5741.8594 2702.1857 5711.2686 2684.7679 5510.286 2620.8522 5527.8633 2619.8793 5571.2546 2587.4924 5618.405 2575.3695 5632.9733 2497.9093 5726.3083 2464.4449 5711.3801 2423.9442 5752.0335 2408.1509 5798.2416 2394.1813 5805.725 2419.9591 5975.5449 2304.2154 5999 2298.4338 Z" fill="none" stroke="#12852D" opacity="0.6" stroke-width="1" class="bellerose"/>
<path d="M 5699.3454 2718.9109 5651.041 2658.2231 5734.643 2467.1834 5805.6485 2683.547 5699.3454 2718.9109 Z" fill="none" stroke="#12852D" opacity="0.6" stroke-width="1" class="bellerose"/>
<path d="M 5999 2230.3293 5999 2237.7895 5999 2255.0134 5999 2270.2192 5999 2295.4929 5999 2295.6235 5999 2298.4338 5999 2298.6703 5999 2316.0631 5999 2323.2836 5999 2327.8605 5999 2329.5211 5999 2329.8283 5999 2333.3938 5999 2334.317 5999 2334.3186 5999 2344.2758 5999 2347.9137 5999 2356.8891 5999 2371.2577 5999 2385.379 5999 2406.9645 5999 2429.0123 5999 2432.7642 5999 2438.1686 5999 2439.9124 5999 2447.8856 5999 2461.5426 5999 2466.2829 5999 2472.5895 5999 2475.2199 5999 2490.5411 5999 2490.589 5999 2491.1505 5999 2492.2872 5999 2494.4513 5999 2496.149 5999 2496.3287 5999 2501.9504 5999 2506.7103 5999 2511.4324 5999 2511.4842 5999 2518.3149 5999 2520.0091 5999 2524.5167 5999 2539.5997 5999 2555.3212 5999 2587.9717 5999 2588.8586 5999 2610.1138 5999 2613.5943 5436.7997 2810.0303 5243.0879 2346.0427 5956.4821 2137.5218 5999 2230.3293 Z" fill="none" stroke="#12852D" opacity="0.6" stroke-width="1" class="bellerose"/>
<path d="M 5886.7834 2664.5016 5892.1248 2670.821 5744.1801 2704.4828 5605.6765 2650.065 5621.2155 2586.8818 5711.8948 2588.9074 5710.1665 2553.8899 5718.9587 2517.8041 5707.381 2476.4843 5810.0298 2428.1236 5886.7834 2664.5016 Z" fill="none" stroke="#12852D" opacity="0.6" stroke-width="1" class="bellerose"/>
<path d="M 5999 2439.9124 5999 2447.8856 5999 2461.5426 5999 2466.2829 5999 2472.5895 5999 2475.2199 5999 2490.5411 5999 2490.589 5999 2491.1505 5999 2492.2872 5999 2494.4513 5999 2496.149 5999 2496.3287 5999 2501.9504 5999 2506.7103 5999 2511.4324 5999 2511.4842 5999 2518.3149 5999 2520.0091 5999 2524.5167 5999 2539.5997 5952.3928 2707.0294 5706.0295 2785.2618 5521.3999 2624.5067 5489.8665 2598.7908 5554.4127 2523.9493 5985.7288 2306.9449 5999 2439.9124 Z" fill="none" stroke="#12852D" opacity="0.6" stroke-width="1" class="bellerose"/>
<path d="M 5608.4191 2638.9961 5626.5057 2500.6937 5745.1042 2557.4669 5814.8749 2675.2215 5626.4237 2779.0533 5608.4191 2638.9961 Z" fill="none" stroke="#12852D" opacity="0.6" stroke-width="1" class="bellerose"/>
<path d="M 5760.8659 2276.3582 5902.7827 2675.8553 5740.003 2700.348 5761.8133 2574.9253 5726.3603 2481.0328 5665.1154 2420.4014 5760.8659 2276.3582 Z" fill="none" stroke="#12852D" opacity="0.6" stroke-width="1" class="bellerose"/>
<path d="M 5762.2023 2697.5124 5741.8478 2698.4986 5723.3122 2689.3391 5700.1475 2679.272 5670.509 2670.1461 5649.1819 2655.4636 5673.0239 2585.3412 5681.0208 2478.4092 5687.9578 2477.9269 5697.6715 2477.8968 5709.2283 2475.5569 5718.0054 2471.8433 5735.0823 2459.8096 5748.9589 2459.7658 5760.9618 2452.3555 5777.59 2444.9303 5793.7524 2436.5848 5806.2232 2431.0156 5811.3304 2436.9891 5817.3821 2448.9494 5821.6077 2468.2882 5828.1149 2477.9435 5827.6822 2487.1606 5831.4186 2498.2074 5839.7749 2507.3961 5843.0549 2520.2878 5849.5612 2529.4827 5852.3879 2545.141 5857.9662 2553.4174 5866.3262 2563.5281 5869.1624 2581.9519 5877.535 2595.7494 5881.2907 2612.3274 5885.9656 2627.0592 5885.1013 2645.4964 5887.0097 2663.003 5869.4563 2671.3566 5851.8784 2672.336 5834.3155 2677.9238 5811.1826 2677.9986 5788.0792 2687.2905 5773.2975 2694.7118 5762.2023 2697.5124 Z" fill="none" stroke="#12852D" opacity="0.6" stroke-width="1" class="bellerose"/>
<path d="M 5765.4819 2564.7755 5855.1062 2527.6213 5888.8329 2654.7014 5751.0895 2694.7823 5603.8065 2643.6186 5623.973 2580.8826 5765.4819 2564.7755 Z" fill="none" stroke="#12852D" opacity="0.6" stroke-width="1" class="bellerose"/>
<path d="M 5999 2327.8605 5999 2329.5211 5999 2329.8283 5999 2333.3938 5999 2334.317 5999 2334.3186 5999 2344.2758 5999 2347.9137 5999 2356.8891 5999 2371.2577 5999 2385.379 5999 2406.9645 5999 2429.0123 5999 2432.7642 5999 2438.1686 5999 2439.9124 5999 2447.8856 5999 2461.5426 5999 2466.2829 5999 2472.5895 5999 2475.2199 5999 2490.5411 5999 2490.589 5999 2491.1505 5999 2492.2872 5999 2494.4513 5998.3968 2494.8857 5623.0255 2573.5122 5636.6795 2499.7412 5989.4537 2314.3034 5999 2327.8605 Z" fill="none" stroke="#12852D" opacity="0.6" stroke-width="1" class="bellerose"/>
<path d="M 5999 2518.3149 5999 2520.0091 5999 2524.5167 5999 2539.5997 5999 2555.3212 5999 2587.9717 5999 2588.8586 5999 2610.1138 5999 2613.5943 5999 2617.5173 5999 2626.5454 5973.9066 2638.7468 5876.8253 2661.1932 5826.0056 2683.4813 5768.6562 2690.1178 5701.981 2673.7357 5635.3025 2655.5059 5693.0302 2472.8426 5636.6767 2498.8197 5591.5268 2559.7823 5567.6768 2628.979 5723.5388 2466.2967 5747.5537 2454.241 5899.9162 2369.8909 5937.8851 2382.6646 5975.9992 2437.8258 5983.5569 2483.8774 5999 2518.3149 Z" fill="none" stroke="#12852D" opacity="0.6" stroke-width="1" class="bellerose"/>
<path d="M 5886.5471 2663.0046 5752.0221 2697.0838 5714.0302 2680.1505 5673.7391 2667.3709 5601.4905 2642.7038 5521.3905 2621.2807 5528.7724 2614.3464 5550.4642 2596.7707 5573.5581 2584.2597 5591.1208 2578.6774 5623.0352 2576.738 5673.0338 2588.567 5762.7019 2563.4019 5850.976 2537.7726 5886.5471 2663.0046 Z" fill="none" stroke="#12852D" opacity="0.6" stroke-width="1" class="bellerose"/>
<path d="M 5808.9073 2427.4889 5839.9472 2513.7843 5851.4918 2539.1077 5875.2076 2589.7318 5882.9206 2613.9006 5884.9016 2664.453 5946.6516 2696.5865 5866.8218 2722.6013 5734.6248 2755.6732 5622.7793 2797.9625 5613.4727 2736.4922 5616.5412 2709.0156 5604.5434 2580.9412 5747.039 2584.1887 5740.0897 2468.8186 5727.1179 2462.4085 5808.9073 2427.4889 Z" fill="none" stroke="#12852D" opacity="0.6" stroke-width="1" class="bellerose"/>
<path d="M 5713.079 2671.8577 5722.6236 2764.9292 5768.2165 2551.8638 5891.3128 2565.289 5912.4236 2514.5295 5906.4962 2679.53 5713.079 2671.8577 Z" fill="none" stroke="#12852D" opacity="0.6" stroke-width="1" class="bellerose"/>
<path d="M 5613.2984 2722.8615 5630.2202 2505.2904 5713.4431 2492.132 5728.951 2716.9749 5618.8505 2722.8447 5613.2984 2722.8615 Z" fill="none" stroke="#12852D" opacity="0.6" stroke-width="1" class="bellerose"/>
<path d="M 5750.7252 2286.9861 5769.3045 2312.2654 5820.2036 2463.2242 5840.2615 2514.7673 5876.3655 2591.8361 5881.751 2611.6346 5886.089 2664.3887 5829.2135 2674.0229 5816.4987 2676.5988 5803.0965 2681.2508 5755.0302 2697.3047 5724.5317 2709.3839 5697.2748 2722.6045 5680.8795 2732.3342 5658.6824 2660.7345 5666.6606 2622.2282 5643.5234 2620.4556 5651.2811 2585.4079 5665.6291 2587.6681 5671.9933 2588.6854 5715.0953 2576.8005 5709.0021 2551.3591 5717.2034 2548.2229 5727.4878 2545.5411 5717.897 2511.1258 5711.7602 2471.6324 5663.7865 2439.527 5679.0404 2436.2547 5672.7089 2407.9378 5701.8342 2329.0631 5729.0392 2302.9483 5750.7252 2286.9861 Z" fill="none" stroke="#12852D" opacity="0.6" stroke-width="1" class="bellerose"/>
<path d="M 5660.0711 2660.9607 5698.4497 2579.5022 5709.887 2538.4535 5730.5393 2486.0883 5821.1183 2459.9958 5888.858 2662.3056 5804.2516 2680.7862 5735.8592 2706.8135 5679.4808 2728.8818 5661.4767 2666.7173 5660.0711 2660.9607 Z" fill="none" stroke="#12852D" opacity="0.6" stroke-width="1" class="bellerose"/>
<path d="M 5999 2466.2829 5999 2472.5895 5999 2475.2199 5999 2490.5411 5999 2490.589 5999 2491.1505 5999 2492.2872 5999 2494.4513 5999 2496.149 5999 2496.3287 5999 2501.9504 5999 2506.7103 5999 2511.4324 5999 2511.4842 5999 2518.3149 5999 2520.0091 5999 2524.5167 5999 2539.5997 5999 2555.3212 5999 2587.9717 5999 2588.8586 5988.8054 2666.3481 5894.9008 2810.4673 5760.6439 2789.6995 5648.4114 2706.1627 5721.9656 2554.7747 5767.262 2542.6506 5999 2466.2829 Z" fill="none" stroke="#12852D" opacity="0.6" stroke-width="1" class="bellerose"/>
<path d="M 5999 2475.2199 5999 2490.5411 5999 2490.589 5999 2491.1505 5999 2492.2872 5999 2494.4513 5999 2496.149 5999 2496.3287 5999 2501.9504 5999 2506.7103 5999 2511.4324 5999 2511.4842 5785.0674 2613.5617 5705.7579 2400.9242 5783.0404 2268.9166 5999 2475.2199 Z" fill="none" stroke="#12852D" opacity="0.6" stroke-width="1" class="bellerose"/>
<path d="M 5688.1308 2384.3923 5732.7927 2467.1892 5797.2881 2673.4346 5612.537 2777.2515 5508.4061 2610.719 5688.1308 2384.3923 Z" fill="none" stroke="#12852D" opacity="0.6" stroke-width="1" class="bellerose"/>
<path d="M 5704.602 2475.341 5853.521 2537.9947 5927.6883 2652.4981 5755.0375 2699.6092 5666.0968 2664.6292 5704.602 2475.341 Z" fill="none" stroke="#12852D" opacity="0.6" stroke-width="1" class="bellerose"/>
<path d="M 5724.6823 2425.5779 5795.8001 2390.3355 5808.2592 2524.8408 5798.4997 2654.828 5672.7251 2676.4237 5651.0606 2704.9166 5612.7102 2568.619 5724.6823 2425.5779 Z" fill="none" stroke="#12852D" opacity="0.6" stroke-width="1" class="bellerose"/>
<path d="M 5999 2438.1686 5999 2439.9124 5999 2447.8856 5999 2461.5426 5999 2466.2829 5999 2472.5895 5999 2475.2199 5999 2490.5411 5999 2490.589 5999 2491.1505 5999 2492.2872 5999 2494.4513 5999 2496.149 5999 2496.3287 5999 2501.9504 5896.2475 2658.3637 5749.2359 2693.8664 5745.5055 2684.6605 5648.251 2653.6229 5628.5823 2575.3387 5638.5157 2495.1277 5729.0807 2463.5146 5985.7539 2314.316 5999 2438.1686 Z" fill="none" stroke="#12852D" opacity="0.6" stroke-width="1" class="bellerose"/>
<path d="M 5999 2677.5779 5718.0081 2768.6311 5737.1834 2686.5303 5597.324 2641.7946 5620.2554 2575.3639 5672.1043 2587.1874 5763.6257 2562.9381 5991.002 2496.7541 5999 2490.589 5999 2491.1505 5999 2492.2872 5999 2494.4513 5999 2496.149 5999 2496.3287 5999 2501.9504 5999 2506.7103 5999 2511.4324 5999 2511.4842 5999 2518.3149 5999 2520.0091 5999 2524.5167 5999 2539.5997 5999 2555.3212 5999 2587.9717 5999 2588.8586 5999 2610.1138 5999 2613.5943 5999 2617.5173 5999 2626.5454 5999 2628.0705 5999 2628.3143 5999 2628.7702 5999 2629.4242 5999 2633.76 5999 2633.7959 5999 2633.8528 5999 2634.2103 5999 2634.3295 5999 2637.391 5999 2637.4884 5999 2638.2622 5999 2639.7131 5999 2646.6027 5999 2647.5003 5999 2648.0545 5999 2666.0367 5999 2677.5779 Z" fill="none" stroke="#12852D" opacity="0.6" stroke-width="1" class="bellerose"/>
<path d="M 5592.4575 2561.6228 5672.9742 2418.995 5749.1564 2375.9082 5811.1535 2382.1605 5843.6556 2420.7577 5842.0127 2484.3493 5789.4635 2541.6581 5685.0803 2594.5207 5592.4575 2561.6228 Z" fill="none" stroke="#12852D" opacity="0.6" stroke-width="1" class="bellerose"/>
<path d="M 5618.8648 2574.4465 5710.1441 2472.559 5807.6026 2428.477 5851.4446 2539.6143 5875.2895 2651.4048 5802.9804 2681.136 5751.6781 2698.0067 5739.1643 2691.1329 5597.1003 2644.33 5618.8648 2574.4465 Z" fill="none" stroke="#12852D" opacity="0.6" stroke-width="1" class="bellerose"/>
<path d="M 5598.2548 2643.6352 5606.4853 2611.3507 5740.7047 2629.3714 5785.147 2638.4475 5799.1476 2676.1939 5744.6238 2698.4898 5598.2548 2643.6352 Z" fill="none" stroke="#12852D" opacity="0.6" stroke-width="1" class="bellerose"/>
<path d="M 5741.4045 2460.0965 5814.3914 2430.0687 5874.9096 2547.8329 5891.6342 2662.3739 5755.723 2696.9191 5743.621 2673.9132 5600.0786 2634.7204 5626.072 2561.2147 5640.6759 2495.7359 5741.4045 2460.0965 Z" fill="none" stroke="#12852D" opacity="0.6" stroke-width="1" class="bellerose"/>
<path d="M 5514.9177 2622.6822 5544.2575 2531.3521 5802.0426 2425.5 5882.4015 2668.5487 5604.9979 2732.1045 5514.9177 2622.6822 Z" fill="none" stroke="#12852D" opacity="0.6" stroke-width="1" class="bellerose"/>
<path d="M 5727.2219 2460.7558 5802.8666 2681.7125 5704.8975 2718.8936 5627.4336 2501.6125 5727.2219 2460.7558 Z" fill="none" stroke="#12852D" opacity="0.6" stroke-width="1" class="bellerose"/>
<path d="M 5841.9943 2762.7043 5836.3849 2745.2077 5860.4237 2738.6765 5861.4035 2755.2661 5841.9943 2762.7043 Z" fill="none" stroke="#12852D" opacity="0.6" stroke-width="1" class="bellerose"/>
<path d="M 5999 2496.149 5999 2496.3287 5999 2501.9504 5999 2506.7103 5999 2511.4324 5999 2511.4842 5999 2518.3149 5999 2520.0091 5999 2524.5167 5999 2539.5997 5999 2555.3212 5999 2587.9717 5999 2588.8586 5999 2610.1138 5999 2613.5943 5999 2617.5173 5999 2626.5454 5999 2628.0705 5999 2628.3143 5999 2628.7702 5999 2629.4242 5999 2633.76 5999 2633.7959 5999 2633.8528 5999 2634.2103 5999 2634.3295 5999 2637.391 5999 2637.4884 5999 2638.2622 5999 2639.7131 5999 2646.6027 5999 2647.5003 5862.3772 2770.0124 5667.2431 2510.7069 5658.1384 2558.6589 5676.398 2479.345 5977.5672 2354.8867 5999 2496.149 Z" fill="none" stroke="#12852D" opacity="0.6" stroke-width="1" class="bellerose"/>
<path d="M 5715.952 2480.8349 5808.5314 2429.6259 5853.7486 2536.8419 5889.7826 2662.0721 5687.3995 2671.2462 5715.952 2480.8349 Z" fill="none" stroke="#12852D" opacity="0.6" stroke-width="1" class="bellerose"/>
<path d="M 5504.0647 2549.4412 5505.9164 2549.8966 5730.0275 2470.4233 5797.3088 2679.8868 5609.1523 2728.8657 5504.538 2553.1263 5504.1827 2550.2473 5504.0647 2549.4412 Z" fill="none" stroke="#12852D" opacity="0.6" stroke-width="1" class="bellerose"/>
<path d="M 5690.2688 2776.0922 5654.7534 2661.8987 5729.1241 2477.3378 5801.1975 2450.3839 5908.4328 2705.3331 5690.2688 2776.0922 Z" fill="none" stroke="#12852D" opacity="0.6" stroke-width="1" class="bellerose"/></svg>