<?xml version="1.0"?><svg xmlns="http://www.w3.org/2000/svg" version="1.2" baseProfile="tiny" width="6000" height="5918" viewBox="0 0 6000 5918" stroke-linecap="round" stroke-linejoin="round"><path d="M 2787.2742 4159.7808 2954.5677 4288.8005 2825.8122 4599.6814 2560.1737 4410.6419 2787.2742 4159.7808 Z" fill="none" stroke="#E71E24" opacity="0.3333333333333333" stroke-width="1" class="bensonhurst"/>
<path d="M 2577.7838 4365.6545 2794.6864 4096.0831 2990.258 4251.1538 2898.5145 4360.1235 2917.0731 4481.0908 2844.7681 4568.8356 2577.7838 4365.6545 Z" fill="none" stroke="#E71E24" opacity="0.3333333333333333" stroke-width="1" class="bensonhurst"/>
<path d="M 2774.3029 4530.0493 2686.2342 4426.615 2801.1732 4093.3135 2996.7417 4233.6103 2774.3029 4530.0493 Z" fill="none" stroke="#E71E24" opacity="0.3333333333333333" stroke-width="1" class="bensonhurst"/>
<path d="M 2701.9958 4394.2963 2752.9819 4302.8851 2940.2384 4417.3678 2859.5966 4506.9564 2701.9958 4394.2963 Z" fill="none" stroke="#E71E24" opacity="0.3333333333333333" stroke-width="1" class="bensonhurst"/>
<path d="M 2752.0578 4106.2378 2917.0343 4238.4735 2782.6448 4407.4569 2639.2056 4290.8736 2537.4985 4208.6835 2665.4172 4037.0003 2752.0578 4106.2378 Z" fill="none" stroke="#E71E24" opacity="0.3333333333333333" stroke-width="1" class="bensonhurst"/>
<path d="M 2778.9296 3902.2476 3116.1894 3924.3333 3201.6828 4470.844 2663.9918 4367.5144 2760.3992 3931.782 2778.9296 3902.2476 Z" fill="none" stroke="#E71E24" opacity="0.3333333333333333" stroke-width="1" class="bensonhurst"/>
<path d="M 2813.2218 4122.8532 2641.7653 4208.7029 2618.6301 3981.6119 2784.4892 3926.2441 2912.3779 4096.0721 2832.6816 4100.6967 2846.5895 4185.627 2881.8013 4133.9251 3011.5945 4323.1665 2841.9757 4434.0028 2694.585 4325.0425 2813.2218 4122.8532 Z" fill="none" stroke="#E71E24" opacity="0.3333333333333333" stroke-width="1" class="bensonhurst"/>
<path d="M 5999 2709.0124 5999 2719.4596 5999 2726.0339 5999 2756.2217 5999 2791.8164 5999 2805.005 5999 2814.3171 5407.6651 2981.598 5193.129 2342.4868 5841.9047 2167.3822 5999 2709.0124 Z" fill="none" stroke="#E71E24" opacity="0.3333333333333333" stroke-width="1" class="bensonhurst"/>
<path d="M 2744.6384 4361.056 2543.5235 4205.9153 2672.37 4007.4634 2895.7082 4175.4663 2744.6384 4361.056 Z" fill="none" stroke="#E71E24" opacity="0.3333333333333333" stroke-width="1" class="bensonhurst"/>
<path d="M 2647.3139 4306.5711 2676.9779 4277.0284 2708.4945 4232.7136 2760.3974 4253.0271 2795.6191 4286.265 2816.0124 4317.6571 2879.0465 4345.3521 2914.2758 4378.5889 2925.4186 4491.2479 2880.9258 4554.0547 2830.8615 4583.6141 2569.4316 4411.823 2584.273 4363.809 2647.3139 4306.5711 Z" fill="none" stroke="#E71E24" opacity="0.3333333333333333" stroke-width="1" class="bensonhurst"/>
<path d="M 2643.424 4297.0198 2826.9103 4075.6106 3030.3653 4196.0571 2824.7943 4439.3231 2643.424 4297.0198 Z" fill="none" stroke="#E71E24" opacity="0.3333333333333333" stroke-width="1" class="bensonhurst"/>
<path d="M 2744.6342 4551.2909 2658.4186 4468.168 2968.9038 4081.2918 3112.5764 4178.1812 2944.9203 4663.9554 2790.9966 4727.7075 2744.6342 4551.2909 Z" fill="none" stroke="#E71E24" opacity="0.3333333333333333" stroke-width="1" class="bensonhurst"/>
<path d="M 2633.393 4430.3029 2582.6507 4364.0395 2797.0046 4141.317 3058.8758 4349.0069 3065.3853 4414.5661 2905.0539 4703.6808 2633.393 4430.3029 Z" fill="none" stroke="#E71E24" opacity="0.3333333333333333" stroke-width="1" class="bensonhurst"/>
<path d="M 2931.1097 4563.3984 2935.049 4557.3945 2912.5704 4589.3774 2911.8751 4589.6084 2895.0729 4612.3547 2896.1164 4615.4718 2876.4154 4634.9861 2883.254 4636.7171 2860.8852 4644.1088 2853.5836 4649.1896 2781.6037 4511.0014 2777.8953 4511.4632 2760.3961 4489.6453 2756.3401 4492.3003 2649.3907 4378.2472 2650.666 4372.2453 2718.9188 4287.3031 2719.0348 4284.764 2770.2452 4224.8676 2773.9525 4220.8284 2789.5921 4200.0554 2791.7932 4197.2857 2805.9262 4178.4748 2808.7065 4178.1285 2828.0514 4151.8165 2831.9897 4144.8925 2863.8433 4111.0792 2858.978 4111.1951 2931.1097 4563.3984 Z" fill="none" stroke="#E71E24" opacity="0.3333333333333333" stroke-width="1" class="bensonhurst"/>
<path d="M 2638.9738 4290.8736 2809.5127 4074.8509 3003.2289 4230.8389 2834.5602 4445.0848 2638.9738 4290.8736 Z" fill="none" stroke="#E71E24" opacity="0.3333333333333333" stroke-width="1" class="bensonhurst"/>
<path d="M 2738.1497 4361.0558 2799.3214 4138.5474 3015.2256 4033.2803 3059.8005 4341.6197 2738.1497 4361.0558 Z" fill="none" stroke="#E71E24" opacity="0.3333333333333333" stroke-width="1" class="bensonhurst"/>
<path d="M 2744.6384 4361.056 2749.2733 4359.2093 2883.6628 4197.6249 2988.4102 4276.0829 2985.6553 4386.8855 2909.6359 4346.2713 2929.1302 4509.7175 2741.8574 4365.6728 2808.602 4426.6173 2744.6384 4361.056 Z" fill="none" stroke="#E71E24" opacity="0.3333333333333333" stroke-width="1" class="bensonhurst"/>
<path d="M 2639.1423 4292.4081 2805.2636 4081.4264 3043.6596 4272.4153 3059.3387 4347.16 2890.6369 4372.1285 2829.3706 4444.9587 2639.1423 4292.4081 Z" fill="none" stroke="#E71E24" opacity="0.3333333333333333" stroke-width="1" class="bensonhurst"/>
<path d="M 2827.1517 4566.9898 2651.0086 4413.6833 2838.251 4219.787 3042.1969 4370.2496 2827.1517 4566.9898 Z" fill="none" stroke="#E71E24" opacity="0.3333333333333333" stroke-width="1" class="bensonhurst"/>
<path d="M 2833.5155 4588.0813 2688.3547 4455.8038 2785.5315 4141.4244 3059.7486 4380.4173 2910.7724 4400.4372 2916.3473 4481.7004 2833.5155 4588.0813 Z" fill="none" stroke="#E71E24" opacity="0.3333333333333333" stroke-width="1" class="bensonhurst"/>
<path d="M 2780.7906 4395.2217 2673.2666 4315.8073 2652.883 4242.8644 2751.1287 4262.2598 2757.6165 4289.9587 2772.4472 4338.8954 2786.3525 4389.6811 2780.7907 4400.7622 2732.591 4272.4155 2780.7906 4395.2217 Z" fill="none" stroke="#E71E24" opacity="0.3333333333333333" stroke-width="1" class="bensonhurst"/>
<path d="M 2833.6333 4446.9318 2749.0412 4378.8313 2746.4924 4359.671 2911.2282 4152.1536 3081.1452 4416.4079 2833.6333 4446.9318 Z" fill="none" stroke="#E71E24" opacity="0.3333333333333333" stroke-width="1" class="bensonhurst"/>
<path d="M 2967.0699 4172.6842 2897.5553 4129.3072 3050.4982 4232.6724 2891.1213 4530.0411 2706.6355 4319.5033 2890.1441 4149.6178 2896.6295 4135.7695 2967.0699 4172.6842 Z" fill="none" stroke="#E71E24" opacity="0.3333333333333333" stroke-width="1" class="bensonhurst"/>
<path d="M 2699.4449 4418.7668 2747.8811 4452.7057 2735.1335 4470.7132 2684.3794 4435.1567 2630.8481 4398.675 2686.474 4329.6586 2783.5718 4406.9952 2749.0399 4452.7058 2699.4449 4418.7668 Z" fill="none" stroke="#E71E24" opacity="0.3333333333333333" stroke-width="1" class="bensonhurst"/>
<path d="M 2897.1425 4492.8684 2903.9811 4501.7562 2836.4143 4445.5464 2897.1425 4492.8684 Z" fill="none" stroke="#E71E24" opacity="0.3333333333333333" stroke-width="1" class="bensonhurst"/>
<path d="M 3045.992 4273.5286 2853.1028 4463.5526 2503.445 4183.6324 2709.5506 4006.8894 3045.992 4273.5286 Z" fill="none" stroke="#E71E24" opacity="0.3333333333333333" stroke-width="1" class="bensonhurst"/>
<path d="M 2624.1224 4432.1484 2619.4874 4431.2243 2834.5384 4146.854 3003.2273 4224.3762 2798.4084 4533.743 2624.1224 4432.1484 Z" fill="none" stroke="#E71E24" opacity="0.3333333333333333" stroke-width="1" class="bensonhurst"/>
<path d="M 2687.1607 4432.1557 2745.5655 4354.5924 2928.2029 4508.7942 2913.3875 4626.091 2687.1607 4432.1557 Z" fill="none" stroke="#E71E24" opacity="0.3333333333333333" stroke-width="1" class="bensonhurst"/>
<path d="M 2927.7426 4527.7266 2649.1723 4269.639 3003.183 4048.0525 3053.3635 4511.5349 2927.7426 4527.7266 Z" fill="none" stroke="#E71E24" opacity="0.3333333333333333" stroke-width="1" class="bensonhurst"/>
<path d="M 2606.5832 3988.9941 2666.8067 4041.6157 3054.2408 4348.0849 3168.2445 4321.266 3181.3002 4500.4051 2927.2782 4522.6473 2829.0068 4578.0726 2523.087 4387.8035 2437.8012 4395.1651 2606.5832 3988.9941 Z" fill="none" stroke="#E71E24" opacity="0.3333333333333333" stroke-width="1" class="bensonhurst"/>
<path d="M 2902.9575 4357.8042 2878.3908 4338.8785 2852.4346 4319.0293 2813.8237 4284.8562 2878.1414 4198.0041 2967.8186 4189.5002 3007.6763 4210.725 3065.2973 4239.3951 3077.823 4279.5537 3074.9385 4357.5028 3069.018 4396.3583 3023.6036 4427.7684 2946.8129 4443.8985 2912.0475 4436.5169 2869.7643 4419.2712 2859.5668 4416.502 2902.9575 4357.8042 Z" fill="none" stroke="#E71E24" opacity="0.3333333333333333" stroke-width="1" class="bensonhurst"/>
<path d="M 2838.2683 4444.1611 2817.8585 4178.2434 2654.7302 4298.2621 2977.2882 4278.8554 2838.2683 4444.1611 Z" fill="none" stroke="#E71E24" opacity="0.3333333333333333" stroke-width="1" class="bensonhurst"/>
<path d="M 2662.128 4458.0102 2903.5836 4160.2325 3005.0833 4233.6082 2905.9316 4369.3562 2947.6974 4639.9397 2893.9228 4677.8188 2662.128 4458.0102 Z" fill="none" stroke="#E71E24" opacity="0.3333333333333333" stroke-width="1" class="bensonhurst"/>
<path d="M 2947.1328 4114.0671 2949.1021 4113.9513 2995.8982 4099.9787 3013.9695 4101.5896 3022.8907 4107.5876 3023.2424 4122.9347 3015.3683 4134.8224 3042.7078 4136.6611 3050.7154 4184.6643 3048.289 4206.0144 3034.6251 4229.3302 3027.2168 4252.5292 3011.9295 4274.923 3002.6648 4291.314 2993.6307 4304.2426 2978.4527 4305.0541 2962.2364 4327.333 2953.7794 4333.5674 2937.5604 4346.7283 2932.5815 4366.5817 2927.0229 4385.166 2922.6219 4398.6716 2907.6752 4406.4076 2882.6475 4418.9927 2867.701 4434.9238 2852.5218 4445.7759 2833.5173 4446.2392 2815.7886 4466.5567 2794.1192 4493.2234 2765.8428 4527.9714 2607.3198 4432.6075 2611.7241 4427.2984 2731.0848 4273.1079 2756.3425 4242.1786 2795.732 4193.1311 2844.0364 4131.3903 2867.7807 4100.6936 2884.9225 4081.7677 2947.1328 4114.0671 Z" fill="none" stroke="#E71E24" opacity="0.3333333333333333" stroke-width="1" class="bensonhurst"/>
<path d="M 2640.8275 4291.7971 2735.3797 4018.544 3010.6436 4230.837 2841.9769 4449.7015 2640.8275 4291.7971 Z" fill="none" stroke="#E71E24" opacity="0.3333333333333333" stroke-width="1" class="bensonhurst"/>
<path d="M 2582.4192 4362.8853 2640.8269 4296.4137 2740.9303 4373.0599 2808.5955 4284.4179 2901.2952 4359.1997 2918.0011 4486.6316 2839.2058 4578.0719 2582.4192 4362.8853 Z" fill="none" stroke="#E71E24" opacity="0.3333333333333333" stroke-width="1" class="bensonhurst"/>
<path d="M 2733.5145 4371.2129 2805.8149 4284.418 2900.368 4357.3531 2793.7716 4494.955 2699.2128 4423.8457 2684.3785 4445.0838 2667.6895 4466.3221 2550.8913 4411.819 2638.0454 4301.9533 2733.5145 4371.2129 Z" fill="none" stroke="#E71E24" opacity="0.3333333333333333" stroke-width="1" class="bensonhurst"/>
<path d="M 2511.0895 4189.2891 2697.3882 4013.9268 2969.8726 4276.0871 2831.7789 4443.6998 2511.0895 4189.2891 Z" fill="none" stroke="#E71E24" opacity="0.3333333333333333" stroke-width="1" class="bensonhurst"/>
<path d="M 2891.0683 4130.2313 2894.7752 4130.2308 3070.9468 4412.7175 2837.3514 4578.072 2838.2781 4571.6069 2704.7757 4411.8414 2891.0683 4130.2313 Z" fill="none" stroke="#E71E24" opacity="0.3333333333333333" stroke-width="1" class="bensonhurst"/>
<path d="M 2733.0338 4359.2846 2641.9857 4280.7361 2806.7309 4034.8262 3008.7971 4258.5355 2910.7606 4505.1934 2648.3435 4293.1831 2733.0338 4359.2846 Z" fill="none" stroke="#E71E24" opacity="0.3333333333333333" stroke-width="1" class="bensonhurst"/>
<path d="M 2604.682 4271.4791 3108.7798 3931.7197 3305.4812 4411.6893 2919.86 4515.2602 2604.682 4271.4791 Z" fill="none" stroke="#E71E24" opacity="0.3333333333333333" stroke-width="1" class="bensonhurst"/>
<path d="M 2560.2225 4130.2173 2663.1001 4041.6153 2967.0923 4277.9343 2905.0047 4370.2798 2918.0007 4483.8611 2808.6095 4591.9277 2396.1054 4346.2102 2560.2225 4130.2173 Z" fill="none" stroke="#E71E24" opacity="0.3333333333333333" stroke-width="1" class="bensonhurst"/>
<path d="M 2746.4921 4374.9068 2816.0109 4289.9574 2877.1765 4209.6276 3004.1103 4050.8215 3034.7243 4170.821 2919.8318 4342.5762 2904.0757 4356.4292 2835.4863 4432.1564 2790.0627 4474.6382 2743.7105 4405.3791 2722.3898 4393.374 2737.2213 4407.2258 2746.4921 4374.9068 Z" fill="none" stroke="#E71E24" opacity="0.3333333333333333" stroke-width="1" class="bensonhurst"/>
<path d="M 2831.779 4445.085 2662.1442 4309.3428 2795.6145 4140.3939 2966.1652 4277.0112 2831.779 4445.085 Z" fill="none" stroke="#E71E24" opacity="0.3333333333333333" stroke-width="1" class="bensonhurst"/>
<path d="M 2842.4509 4578.0716 2829.471 4586.3849 2683.9118 4482.4847 2830.8421 4302.4212 2901.758 4354.1211 2917.5368 4482.0142 2842.4509 4578.0716 Z" fill="none" stroke="#E71E24" opacity="0.3333333333333333" stroke-width="1" class="bensonhurst"/>
<path d="M 2574.0681 4404.4366 2733.5195 4222.559 2905.9299 4358.2757 2949.5645 4704.5969 2886.5045 4676.8961 2574.0681 4404.4366 Z" fill="none" stroke="#E71E24" opacity="0.3333333333333333" stroke-width="1" class="bensonhurst"/>
<path d="M 2612.1066 4212.3915 2915.1808 4240.0895 2982.8714 4373.9586 2943.0287 4466.3105 2764.1046 4459.8628 2621.3473 4392.4406 2514.7538 4350.8659 2558.3581 4180.0686 2688.1199 4038.8485 2864.1859 4063.7697 2872.5179 3992.6934 2960.5411 3972.3731 3077.3077 4024.0313 3071.7886 4149.5765 2612.1066 4212.3915 Z" fill="none" stroke="#E71E24" opacity="0.3333333333333333" stroke-width="1" class="bensonhurst"/>
<path d="M 2903.151 4372.1268 2905.9365 4402.5987 2815.3277 4516.8877 2752.9782 4578.5365 2714.0402 4515.2714 2641.2696 4454.3138 2557.3757 4433.0595 2787.274 4149.6258 2798.162 4108.7759 3016.1662 4085.896 3056.5579 4347.1609 2903.151 4372.1268 Z" fill="none" stroke="#E71E24" opacity="0.3333333333333333" stroke-width="1" class="bensonhurst"/>
<path d="M 2901.2933 4345.3492 2948.5527 4267.7819 2941.1144 4142.2244 3043.954 4041.5799 3065.2287 3920.6591 3106.8917 3834.8143 3170.8484 3908.6214 3294.1665 4071.0118 3194.1854 4292.6315 3077.431 4397.9406 2901.2933 4345.3492 Z" fill="none" stroke="#E71E24" opacity="0.3333333333333333" stroke-width="1" class="bensonhurst"/>
<path d="M 2965.2383 4277.0114 2790.0539 4138.5477 2822.0161 3961.7771 2839.6193 3940.0858 2982.3347 4054.5191 3011.7519 4037.8966 3029.1657 4178.2081 2965.2383 4277.0114 Z" fill="none" stroke="#E71E24" opacity="0.3333333333333333" stroke-width="1" class="bensonhurst"/>
<path d="M 2834.8284 3702.8791 3368.3957 3713.7624 2882.9864 3706.6059 3576.3669 4278.539 3434.5982 4582.8257 2941.3494 4648.4792 2566.3815 4315.8353 2521.9303 4157.0246 2648.0079 3854.2935 2834.8284 3702.8791 Z" fill="none" stroke="#E71E24" opacity="0.3333333333333333" stroke-width="1" class="bensonhurst"/>
<path d="M 2712.4242 4400.9917 2711.0337 4401.2224 2787.2776 4309.3482 2789.1314 4308.194 2905.9362 4400.7519 2910.8093 4442.0749 2863.3051 4507.4178 2712.4242 4400.9917 Z" fill="none" stroke="#E71E24" opacity="0.3333333333333333" stroke-width="1" class="bensonhurst"/>
<path d="M 2774.2992 4130.2396 2905.0031 4359.1992 2949.5649 4706.4443 2538.8376 4421.974 2774.2992 4130.2396 Z" fill="none" stroke="#E71E24" opacity="0.3333333333333333" stroke-width="1" class="bensonhurst"/>
<path d="M 2903.1508 4370.28 2922.6416 4517.1068 2543.5206 4217.9173 2725.1883 3982.5455 3114.4896 4339.7544 2903.1508 4370.28 Z" fill="none" stroke="#E71E24" opacity="0.3333333333333333" stroke-width="1" class="bensonhurst"/>
<path d="M 3057.0211 4346.2374 3067.2387 4412.7187 3055.2183 4513.3814 2942.114 4532.8035 2713.1219 4355.5145 2791.9074 4137.6245 3057.0211 4346.2374 Z" fill="none" stroke="#E71E24" opacity="0.3333333333333333" stroke-width="1" class="bensonhurst"/>
<path d="M 2563.9297 4129.295 2744.6472 3964.086 3307.2908 4334.1235 2817.8669 4329.6604 2563.9297 4129.295 Z" fill="none" stroke="#E71E24" opacity="0.3333333333333333" stroke-width="1" class="bensonhurst"/>
<path d="M 3057.0216 4348.0841 2904.0778 4370.2799 2928.2061 4527.2648 2698.2834 4457.09 2679.744 4437.6958 2868.8344 4202.2428 3057.0216 4348.0841 Z" fill="none" stroke="#E71E24" opacity="0.3333333333333333" stroke-width="1" class="bensonhurst"/>
<path d="M 2700.6321 4004.6966 2719.6284 3989.0063 2769.6642 3849.6419 2850.2663 3845.9466 2961.4465 3869.9253 2983.6774 3849.6168 3044.8226 3844.9863 3119.871 3858.8044 3228.2859 3894.751 3266.2767 3902.1151 3286.6839 3945.4829 3304.35 4053.4674 3306.2144 4072.8512 3301.6187 4139.3193 3290.551 4235.3393 3292.4119 4248.264 3304.5089 4332.2784 3278.5962 4408.934 3212.7972 4448.6754 3149.7693 4477.3309 3114.5489 4500.4321 3042.2376 4509.6912 2955.9967 4411.8242 2936.5275 4401.6703 2881.8363 4418.3002 2813.0053 4424.5394 2819.2629 4427.5402 2785.4263 4426.6181 2783.5723 4428.465 2756.6885 4414.6136 2755.7622 4342.5888 2709.4159 4325.9668 2663.0722 4299.1863 2652.8825 4246.5575 2671.4224 4217.9387 2658.4481 4207.7817 2619.5295 4157.9234 2624.1715 4103.4579 2650.1262 4048.0754 2700.6321 4004.6966 Z" fill="none" stroke="#E71E24" opacity="0.3333333333333333" stroke-width="1" class="bensonhurst"/>
<path d="M 2931.017 4696.2869 2372.9359 4336.0439 2682.5604 4035.1558 3027.3328 4252.9909 2931.017 4696.2869 Z" fill="none" stroke="#E71E24" opacity="0.3333333333333333" stroke-width="1" class="bensonhurst"/>
<path d="M 2833.6331 4445.0849 2686.7058 4329.6586 2819.7111 4159.7795 2966.6278 4272.8563 2833.6331 4445.0849 Z" fill="none" stroke="#E71E24" opacity="0.3333333333333333" stroke-width="1" class="bensonhurst"/>
<path d="M 2583.3453 4367.5023 2831.7554 4108.0818 3004.1725 4297.3151 2846.6232 4578.0713 2583.3453 4367.5023 Z" fill="none" stroke="#E71E24" opacity="0.3333333333333333" stroke-width="1" class="bensonhurst"/>
<path d="M 2872.5726 4475.5559 2752.0542 4360.1327 2694.5761 4444.1612 2435.0354 4351.7648 2282.1948 4142.1172 2521.2864 4180.9829 2728.8827 4291.8047 2752.9818 4312.1183 2756.689 4356.4393 2819.7226 4361.978 2869.7808 4380.4416 2869.7853 4421.0719 2908.7279 4470.9337 2872.5726 4475.5559 Z" fill="none" stroke="#E71E24" opacity="0.3333333333333333" stroke-width="1" class="bensonhurst"/>
<path d="M 2926.0028 4519.5305 2665.3883 4310.7281 2797.6998 4142.9325 2965.9335 4277.0113 2926.0028 4519.5305 Z" fill="none" stroke="#E71E24" opacity="0.3333333333333333" stroke-width="1" class="bensonhurst"/>
<path d="M 2681.5986 4431.2318 2769.6663 4325.9685 2905.941 4433.072 2820.661 4557.7544 2681.5986 4431.2318 Z" fill="none" stroke="#E71E24" opacity="0.3333333333333333" stroke-width="1" class="bensonhurst"/>
<path d="M 2903.1508 4370.28 2925.4238 4521.724 2707.5609 4343.5104 2845.6628 4186.5503 3055.1672 4346.2379 2903.1508 4370.28 Z" fill="none" stroke="#E71E24" opacity="0.3333333333333333" stroke-width="1" class="bensonhurst"/>
<path d="M 2949.565 4707.368 2771.5227 4712.9282 2526.7877 4416.4304 2772.4456 4121.9312 2967.0919 4276.0877 2901.2948 4356.4296 2938.4239 4633.4759 2905.0503 4679.6646 2941.2063 4637.1699 2949.565 4707.368 Z" fill="none" stroke="#E71E24" opacity="0.3333333333333333" stroke-width="1" class="bensonhurst"/>
<path d="M 2792.2451 4151.8838 2958.463 4277.8217 2833.7092 4446.0259 2658.8535 4310.275 2792.2451 4151.8838 Z" fill="none" stroke="#E71E24" opacity="0.3333333333333333" stroke-width="1" class="bensonhurst"/>
<path d="M 2791.9119 4300.1148 2900.3879 4496.7928 2776.1546 4305.6551 2791.9119 4300.1148 Z" fill="none" stroke="#E71E24" opacity="0.3333333333333333" stroke-width="1" class="bensonhurst"/>
<path d="M 2937.47 4486.6283 2751.1226 4663.0486 2485.98 4480.1381 2795.6145 4142.2402 2858.6292 4097.9252 3090.3675 4276.9767 2966.2169 4520.7927 2760.3952 4659.354 2937.47 4486.6283 Z" fill="none" stroke="#E71E24" opacity="0.3333333333333333" stroke-width="1" class="bensonhurst"/>
<path d="M 2903.3806 4356.891 2923.8006 4517.3375 2750.8952 4378.1387 2774.0683 4221.8671 2854.2295 4120.3116 2999.986 4234.9944 2903.3806 4356.891 Z" fill="none" stroke="#E71E24" opacity="0.3333333333333333" stroke-width="1" class="bensonhurst"/>
<path d="M 3053.3124 4343.4684 2837.3528 4596.544 2660.2729 4466.3213 2683.452 4438.6196 2745.5657 4349.0522 2791.9074 4138.5477 2869.7613 4203.1659 3053.3124 4343.4684 Z" fill="none" stroke="#E71E24" opacity="0.3333333333333333" stroke-width="1" class="bensonhurst"/>
<path d="M 2790.4146 4635.9159 2734.67 4470.2514 2691.7952 4441.3906 2719.6082 4406.8788 2747.1872 4379.7546 2743.8277 4344.6661 2757.2689 4294.8061 2769.3185 4278.7637 2796.083 4299.076 2817.2869 4316.5028 2841.6201 4335.4297 2864.3321 4354.2412 2888.6671 4372.5905 2891.2161 4371.3205 2903.3825 4370.3954 2924.8438 4518.9535 2918.5851 4515.0296 2850.5656 4599.6601 2790.4146 4635.9159 Z" fill="none" stroke="#E71E24" opacity="0.3333333333333333" stroke-width="1" class="bensonhurst"/>
<path d="M 2904.1262 4700.9098 2600.007 4503.2526 2568.503 4419.2103 2636.1938 4286.2567 2918.0045 4507.8724 2941.2037 4623.3154 2916.1716 4641.7925 2904.1262 4700.9098 Z" fill="none" stroke="#E71E24" opacity="0.3333333333333333" stroke-width="1" class="bensonhurst"/>
<path d="M 2773.8365 4213.7887 2784.4935 4138.5479 2787.2736 4135.3167 2772.9097 4209.6342 2771.9829 4213.7887 2772.4463 4213.7887 2744.1745 4380.9088 2772.9097 4212.8655 2787.7371 4137.6246 3056.0938 4345.3143 3054.7553 4515.2286 2942.1139 4532.3418 2746.9555 4379.9855 2773.8365 4213.7887 Z" fill="none" stroke="#E71E24" opacity="0.3333333333333333" stroke-width="1" class="bensonhurst"/>
<path d="M 2829.9152 4301.498 2900.3678 4355.5063 2743.707 4554.9851 2686.6932 4480.1762 2829.9152 4301.498 Z" fill="none" stroke="#E71E24" opacity="0.3333333333333333" stroke-width="1" class="bensonhurst"/>
<path d="M 2903.1701 4503.257 2834.1075 4595.1588 2827.6168 4589.6177 2572.2125 4412.2853 2820.1744 4159.3178 2831.3257 4591.9264 2903.1701 4503.257 Z" fill="none" stroke="#E71E24" opacity="0.3333333333333333" stroke-width="1" class="bensonhurst"/>
<path d="M 2904.0434 4135.7684 2949.4332 4029.6032 3076.3944 4064.6468 3173.7829 4267.7115 3169.2317 4462.5471 3132.1978 4588.1633 2977.3616 4606.6827 2863.3096 4551.286 2751.1268 4389.6813 2735.3741 4194.8621 2812.2945 4111.7755 2904.0434 4135.7684 Z" fill="none" stroke="#E71E24" opacity="0.3333333333333333" stroke-width="1" class="bensonhurst"/>
<path d="M 2960.5396 4270.7672 2666.0416 4038.7892 2866.8834 3864.4618 2941.8316 3913.1349 2976.1034 3869.7504 3044.6602 3859.5808 3079.1804 4102.0346 2974.791 4273.8433 2960.5396 4270.7672 Z" fill="none" stroke="#E71E24" opacity="0.3333333333333333" stroke-width="1" class="bensonhurst"/>
<path d="M 2790.0521 4069.313 2794.6859 4080.3901 2801.1731 4091.4672 2807.6605 4101.6213 2828.0489 4113.6209 2841.0238 4122.8514 2994.8907 4244.6898 2815.094 4479.2546 2678.8202 4401.6817 2790.0521 4069.313 Z" fill="none" stroke="#E71E24" opacity="0.3333333333333333" stroke-width="1" class="bensonhurst"/>
<path d="M 2745.571 4097.9295 2968.019 4277.0108 2901.2946 4354.5828 2938.406 4535.5749 2901.3155 4500.4868 2825.2984 4583.6144 2739.9994 4518.9666 2623.1942 4439.5359 2541.6216 4409.97 2745.571 4097.9295 Z" fill="none" stroke="#E71E24" opacity="0.3333333333333333" stroke-width="1" class="bensonhurst"/>
<path d="M 2789.3588 4136.2398 2966.6285 4276.0878 2901.7588 4359.6613 2924.8438 4518.9535 2746.0285 4378.6004 2745.1023 4345.8204 2789.3588 4136.2398 Z" fill="none" stroke="#E71E24" opacity="0.3333333333333333" stroke-width="1" class="bensonhurst"/>
<path d="M 2911.4923 4361.9683 2827.1435 4441.3915 2606.5345 4278.8657 2763.1783 4113.623 3056.0944 4347.161 2911.4923 4361.9683 Z" fill="none" stroke="#E71E24" opacity="0.3333333333333333" stroke-width="1" class="bensonhurst"/>
<path d="M 2518.5027 4193.9072 2636.2431 3925.3125 3006.9313 4211.4499 2828.9978 4443.2383 2518.5027 4193.9072 Z" fill="none" stroke="#E71E24" opacity="0.3333333333333333" stroke-width="1" class="bensonhurst"/>
<path d="M 2831.7791 4446.0085 2636.1928 4293.6431 2844.7234 4036.0792 3032.8744 4183.7463 2831.7791 4446.0085 Z" fill="none" stroke="#E71E24" opacity="0.3333333333333333" stroke-width="1" class="bensonhurst"/>
<path d="M 2954.4808 4007.0263 2955.3848 4019.2629 3035.5727 4110.5464 3004.9622 3997.0157 3035.5711 4105.0076 3056.0283 4331.1953 2747.3034 4365.793 2515.874 4184.4565 2954.4808 4007.0263 Z" fill="none" stroke="#E71E24" opacity="0.3333333333333333" stroke-width="1" class="bensonhurst"/>
<path d="M 2965.2383 4277.0114 2899.4409 4356.4299 3168.2476 4328.6528 3185.009 4501.327 2919.8612 4522.6485 2721.4644 4360.1318 2683.4616 4327.8116 2819.7113 4163.4722 2965.2383 4277.0114 Z" fill="none" stroke="#E71E24" opacity="0.3333333333333333" stroke-width="1" class="bensonhurst"/>
<path d="M 2639.9006 4291.797 2772.4456 4124.2391 2965.2382 4276.5498 2832.2426 4445.5467 2639.9006 4291.797 Z" fill="none" stroke="#E71E24" opacity="0.3333333333333333" stroke-width="1" class="bensonhurst"/>
<path d="M 2595.4353 4148.6876 2836.4076 4356.4367 2741.856 4421.0774 2563.8811 4357.3412 2578.7265 4286.2471 2595.4353 4148.6876 Z" fill="none" stroke="#E71E24" opacity="0.3333333333333333" stroke-width="1" class="bensonhurst"/>
<path d="M 3011.5203 4037.8966 3057.9491 4349.9305 3066.3132 4417.3361 3050.5967 4559.5602 3040.4435 4716.5832 3016.362 4824.6715 2740.9169 4888.4506 2643.5383 4833.9352 2635.2024 4754.4875 2624.0694 4786.818 2374.7905 4334.1979 2664.0275 4035.154 3011.5203 4037.8966 Z" fill="none" stroke="#E71E24" opacity="0.3333333333333333" stroke-width="1" class="bensonhurst"/>
<path d="M 3030.1116 4246.5272 3031.9692 4260.3758 3056.095 4349.0077 2890.1735 4373.052 2832.7061 4446.0084 2635.2657 4294.5663 2795.613 4095.1599 2808.5859 4072.0817 3030.1116 4246.5272 Z" fill="none" stroke="#E71E24" opacity="0.3333333333333333" stroke-width="1" class="bensonhurst"/>
<path d="M 2657.3929 4316.9597 2975.4099 4168.0664 2955.9422 4141.2984 2929.0633 4122.8403 2901.2573 4095.1506 2855.8484 4090.5405 2812.2955 4130.2385 2980.0454 4175.4509 3006.0024 4203.141 3000.4521 4245.6117 2966.1656 4278.8578 2931.8774 4315.7971 2905.9287 4349.9653 2906.8603 4381.3602 2917.0659 4435.8406 2903.1661 4475.552 2892.973 4510.6466 2873.5071 4541.1258 2829.932 4549.4418 2784.5019 4559.603 2671.3962 4482.0217 2615.7779 4439.5347 2615.7905 4360.121 2793.761 4142.2403 2778.9336 4181.0144 2754.8369 4198.5554 2734.4462 4228.5601 2711.7372 4254.8721 2688.1004 4278.1835 2682.7698 4289.3781 2671.2984 4300.4568 2657.3929 4316.9597 Z" fill="none" stroke="#E71E24" opacity="0.3333333333333333" stroke-width="1" class="bensonhurst"/>
<path d="M 2925.4238 4521.724 2637.1198 4292.72 2805.2271 4082.3513 3048.6575 4276.0668 3056.095 4349.0077 2901.2967 4369.3569 2925.4238 4521.724 Z" fill="none" stroke="#E71E24" opacity="0.3333333333333333" stroke-width="1" class="bensonhurst"/>
<path d="M 2684.8519 4329.4276 2736.7621 4265.9526 2858.1918 4362.6676 2807.6749 4425.6939 2684.8519 4329.4276 Z" fill="none" stroke="#E71E24" opacity="0.3333333333333333" stroke-width="1" class="bensonhurst"/>
<path d="M 2989.2877 4067.4407 3153.3444 4152.3161 2905.9582 4548.51 2580.5626 4376.7357 2989.2877 4067.4407 Z" fill="none" stroke="#E71E24" opacity="0.3333333333333333" stroke-width="1" class="bensonhurst"/>
<path d="M 2966.1644 4273.318 2904.0752 4352.7357 2929.1314 4517.1057 2905.9497 4491.251 2739.5399 4368.2121 2877.1759 4204.0883 2966.1644 4273.318 Z" fill="none" stroke="#E71E24" opacity="0.3333333333333333" stroke-width="1" class="bensonhurst"/>
<path d="M 2670.2989 4275.9585 2742.5925 4230.0256 2750.4705 4239.2583 2802.8384 4266.9559 2765.7635 4319.5854 2702.6822 4318.7251 2741.3783 4232.9315 2705.6941 4246.7788 2670.2989 4275.9585 Z" fill="none" stroke="#E71E24" opacity="0.3333333333333333" stroke-width="1" class="bensonhurst"/>
<path d="M 2899.4448 4384.1315 2833.6343 4460.7838 2738.1462 4480.179 2655.6398 4446.9279 2658.4355 4318.5757 2650.1021 4245.6339 2689.0366 4162.5475 2727.9626 4121.0074 2790.0536 4125.6235 2841.953 4153.3157 2887.369 4190.2387 2936.4991 4244.7022 2934.6585 4317.6433 2899.4448 4384.1315 Z" fill="none" stroke="#E71E24" opacity="0.3333333333333333" stroke-width="1" class="bensonhurst"/>
<path d="M 2600.0293 4375.8159 2579.638 4364.7315 2771.5189 4124.7007 3053.313 4345.3151 2903.1512 4373.0502 2898.5137 4354.5832 2950.4923 4707.3678 2804.906 4716.6223 2548.1077 4422.8996 2600.0293 4375.8159 Z" fill="none" stroke="#E71E24" opacity="0.3333333333333333" stroke-width="1" class="bensonhurst"/>
<path d="M 2636.1925 4295.4898 2771.5189 4118.2387 3054.2402 4346.2382 3038.5857 4705.4991 2897.6339 4692.5974 2573.1377 4421.0581 2636.1925 4295.4898 Z" fill="none" stroke="#E71E24" opacity="0.3333333333333333" stroke-width="1" class="bensonhurst"/>
<path d="M 2568.7354 4415.9783 2819.7069 4086.8508 3233.2078 4480.0638 2893.9243 4688.9031 2568.7354 4415.9783 Z" fill="none" stroke="#E71E24" opacity="0.3333333333333333" stroke-width="1" class="bensonhurst"/>
<path d="M 2851.2597 4585.4596 2689.9418 4432.156 3016.1545 4041.5877 3033.8009 4182.8228 2851.2597 4585.4596 Z" fill="none" stroke="#E71E24" opacity="0.3333333333333333" stroke-width="1" class="bensonhurst"/>
<path d="M 2542.5938 4217.9171 2651.0572 4012.0762 2991.2021 4323.1715 2787.2821 4504.1903 2498.9998 4336.0878 2542.5938 4217.9171 Z" fill="none" stroke="#E71E24" opacity="0.3333333333333333" stroke-width="1" class="bensonhurst"/>
<path d="M 2894.842 4618.7047 2823.4466 4624.2535 2730.7275 4537.4371 2576.8525 4387.8157 2626.9259 4278.8689 2676.9851 4199.4746 2765.9585 4169.9361 2801.1771 4197.6316 2888.3057 4265.945 2932.8069 4330.5704 2995.8493 4374.8789 3001.4326 4460.7569 3000.5209 4522.6319 2962.5217 4584.5194 2894.842 4618.7047 Z" fill="none" stroke="#E71E24" opacity="0.3333333333333333" stroke-width="1" class="bensonhurst"/>
<path d="M 2947.5769 4301.5074 2918.052 4337.8626 2890.6953 4372.0988 2866.0859 4402.0315 2831.75 4443.6192 2793.1527 4494.0334 2707.9432 4425.5551 2743.4014 4448.6428 2709.5513 4425.4924 2672.8977 4397.9651 2601.498 4340.4959 2615.9096 4320.1705 2653.8865 4274.726 2688.5637 4233.4011 2713.5236 4199.3494 2752.7647 4150.5371 2766.5419 4158.3429 2792.4999 4180.2243 2809.154 4190.0219 2830.3788 4210.1137 2849.1116 4224.713 2881.4191 4247.7733 2911.7066 4272.0569 2936.2891 4290.2543 2943.4305 4296.161 2946.8812 4298.5067 2947.5769 4301.5074 Z" fill="none" stroke="#E71E24" opacity="0.3333333333333333" stroke-width="1" class="bensonhurst"/>
<path d="M 3045.876 4273.2978 3057.4851 4348.0839 2892.0272 4371.205 2832.7061 4445.5467 2638.9735 4293.1819 2804.8796 4084.0822 3045.876 4273.2978 Z" fill="none" stroke="#E71E24" opacity="0.3333333333333333" stroke-width="1" class="bensonhurst"/>
<path d="M 3056.6769 4346.821 3050.3187 4347.6337 2891.6915 4373.4022 2833.8323 4442.8589 2738.1029 4368.5121 2903.0256 4159.8079 3044.9314 4273.7823 3056.6769 4346.821 Z" fill="none" stroke="#E71E24" opacity="0.3333333333333333" stroke-width="1" class="bensonhurst"/>
<path d="M 2888.3182 4362.895 2887.3896 4349.9679 2983.7952 4360.1076 2933.7683 4524.4932 2815.0956 4509.7304 2746.4933 4313.9649 2888.3182 4362.895 Z" fill="none" stroke="#E71E24" opacity="0.3333333333333333" stroke-width="1" class="bensonhurst"/>
<path d="M 2841.0603 4579.9189 2655.638 4462.6268 2738.1494 4371.213 2685.3153 4329.6585 2850.2908 4119.158 3046.8026 4272.3742 3058.8752 4347.1602 3066.312 4413.6424 2905.9343 4387.8241 2920.7809 4477.3962 2841.0603 4579.9189 Z" fill="none" stroke="#E71E24" opacity="0.3333333333333333" stroke-width="1" class="bensonhurst"/>
<path d="M 2740.0035 4363.826 2957.7938 4132.0664 3096.8515 4264.9717 2899.4609 4497.7165 2743.7114 4364.7495 2740.0035 4363.826 Z" fill="none" stroke="#E71E24" opacity="0.3333333333333333" stroke-width="1" class="bensonhurst"/>
<path d="M 2669.551 4393.3701 2652.8686 4363.8196 2680.6816 4319.5013 2721.4677 4288.1111 2776.1546 4303.8084 2792.8393 4314.888 2818.7943 4337.9705 2836.408 4361.9769 2836.409 4374.9043 2827.1431 4434.0039 2801.1879 4482.0258 2773.3754 4483.8734 2736.2931 4446.9338 2710.3364 4435.8512 2669.551 4393.3701 Z" fill="none" stroke="#E71E24" opacity="0.3333333333333333" stroke-width="1" class="bensonhurst"/>
<path d="M 2831.779 4444.1615 2638.0468 4291.7968 2833.604 4040.6954 3024.5353 4191.1343 2831.779 4444.1615 Z" fill="none" stroke="#E71E24" opacity="0.3333333333333333" stroke-width="1" class="bensonhurst"/>
<path d="M 3106.946 3985.2537 3133.0328 4350.8277 2749.2737 4334.2785 2704.8016 4008.389 3106.946 3985.2537 Z" fill="none" stroke="#E71E24" opacity="0.3333333333333333" stroke-width="1" class="bensonhurst"/>
<path d="M 2693.1872 4422.4601 2707.0934 4408.6096 2720.5357 4396.1442 2735.8319 4373.5214 2750.2002 4362.4412 2754.2558 4353.5537 2763.0619 4342.0117 2769.5505 4332.3165 2779.0515 4321.9288 2785.7715 4313.6186 2794.8086 4303.4618 2803.4979 4290.3042 2814.8516 4276.2233 2823.1929 4265.9512 2830.1437 4255.1022 2843.6975 4236.8667 2854.2393 4225.6713 2870.5722 4202.2426 3024.571 4321.4317 3054.3566 4347.8541 2955.6392 4362.8839 2928.758 4367.9675 2909.6445 4402.2519 2869.3254 4454.0854 2848.7009 4482.1382 2827.6115 4508.8061 2806.1734 4538.7068 2792.6145 4556.1394 2778.707 4547.0195 2767.0017 4538.3613 2738.8405 4519.3129 2726.093 4507.4221 2712.5343 4502.9193 2715.3159 4497.6092 2702.5687 4492.4137 2691.5602 4482.3698 2677.1914 4472.3257 2663.7499 4462.2814 2673.0215 4452.3551 2686.4655 4431.694 2693.1872 4422.4601 Z" fill="none" stroke="#E71E24" opacity="0.3333333333333333" stroke-width="1" class="bensonhurst"/>
<path d="M 2839.0312 4575.6743 2553.328 4417.6704 2506.9992 4336.4003 2540.406 4181.2979 2603.4393 4112.9961 2897.0271 4356.1993 2931.7306 4472.2265 2839.0312 4575.6743 Z" fill="none" stroke="#E71E24" opacity="0.3333333333333333" stroke-width="1" class="bensonhurst"/>
<path d="M 2584.3034 4205.0007 2585.2369 4169.9189 2601.929 4111.7626 2619.5458 4052.6865 2684.4198 3964.0828 2763.1787 3976.0853 2886.4232 4041.6132 3018.0246 4104.3579 3042.1474 4201.2847 3053.2992 4300.0714 2966.193 4408.1284 2818.8027 4485.7189 2740.003 4383.2172 2626.9249 4286.2554 2608.3898 4269.6331 2584.3034 4205.0007 Z" fill="none" stroke="#E71E24" opacity="0.3333333333333333" stroke-width="1" class="bensonhurst"/>
<path d="M 2768.7387 4121.0081 3054.2396 4344.3915 3070.0533 4517.0709 2943.9683 4532.8032 2933.7938 4667.6521 2873.5225 4675.974 2632.4641 4443.2311 2524.9403 4390.5742 2768.7387 4121.0081 Z" fill="none" stroke="#E71E24" opacity="0.3333333333333333" stroke-width="1" class="bensonhurst"/>
<path d="M 3003.9237 4229.4539 2832.9379 4445.3158 2736.0637 4370.0587 2907.9845 4152.1541 3003.9237 4229.4539 Z" fill="none" stroke="#E71E24" opacity="0.3333333333333333" stroke-width="1" class="bensonhurst"/>
<path d="M 2771.5189 4124.7007 2827.1183 4053.6189 2980.9705 4168.0652 2810.454 4384.1399 2656.5882 4262.2536 2771.5189 4124.7007 Z" fill="none" stroke="#E71E24" opacity="0.3333333333333333" stroke-width="1" class="bensonhurst"/>
<path d="M 3066.3114 4411.7955 3050.5825 4512.4593 2839.2058 4578.9955 2841.0607 4585.4605 2555.5243 4421.0544 2783.5666 4134.8552 3032.8671 4157.8969 3057.948 4346.2371 3066.3114 4411.7955 Z" fill="none" stroke="#E71E24" opacity="0.3333333333333333" stroke-width="1" class="bensonhurst"/>
<path d="M 2925.4241 4523.5711 2617.0471 4275.2121 2749.6544 4105.6539 2964.3113 4276.0883 2901.2943 4352.7361 2925.4241 4523.5711 Z" fill="none" stroke="#E71E24" opacity="0.3333333333333333" stroke-width="1" class="bensonhurst"/>
<path d="M 3038.4394 4198.5161 2864.4432 4309.3433 2841.0373 4292.4948 2810.9123 4275.1848 2770.1294 4240.3321 2707.3378 4203.4006 2804.4162 4081.3129 2901.2937 4348.1193 3038.4394 4198.5161 Z" fill="none" stroke="#E71E24" opacity="0.3333333333333333" stroke-width="1" class="bensonhurst"/>
<path d="M 2632.9341 4397.2902 2820.1746 4163.0106 2966.8601 4275.6261 2778.243 4512.2713 2632.9337 4400.0604 2632.9341 4397.2902 Z" fill="none" stroke="#E71E24" opacity="0.3333333333333333" stroke-width="1" class="bensonhurst"/>
<path d="M 2831.779 4445.085 2655.6566 4302.8788 2839.1672 4083.157 3016.1993 4210.5242 2901.295 4357.353 2924.4959 4517.1065 2831.779 4445.085 Z" fill="none" stroke="#E71E24" opacity="0.3333333333333333" stroke-width="1" class="bensonhurst"/>
<path d="M 2732.5927 4222.559 2830.3784 4298.728 2711.2624 4453.3969 2604.6631 4382.7422 2732.5927 4222.559 Z" fill="none" stroke="#E71E24" opacity="0.3333333333333333" stroke-width="1" class="bensonhurst"/>
<path d="M 2584.297 4238.2375 2775.2257 4112.6998 2949.4557 4144.9923 3109.8095 4215.111 3150.6739 4421.9227 3074.698 4544.7757 2839.2065 4587.3078 2735.3631 4540.2079 2624.1236 4423.8374 2524.0142 4386.8803 2490.6589 4330.5453 2634.3351 4321.3427 2556.4807 4288.089 2787.2774 4298.2683 2584.297 4238.2375 Z" fill="none" stroke="#E71E24" opacity="0.3333333333333333" stroke-width="1" class="bensonhurst"/>
<path d="M 2828.9878 4295.4965 2919.8783 4627.9373 3023.708 4555.8737 3114.5523 4509.6673 3205.4168 4526.253 3316.6032 4407.9892 3229.4678 4415.4233 3149.7067 4323.1204 3016.2658 4461.6765 2962.4842 4404.4355 2715.9016 4378.5993 2714.0609 4134.854 2942.0311 4088.6821 3019.9145 4240.0671 2828.9878 4295.4965 Z" fill="none" stroke="#E71E24" opacity="0.3333333333333333" stroke-width="1" class="bensonhurst"/>
<path d="M 2668.6323 4312.5751 2666.3154 4309.1124 2670.2551 4305.6503 2673.7314 4301.2649 2680.2204 4293.879 2696.4424 4276.5683 2710.1149 4260.8733 2740.4706 4227.1754 2785.8842 4166.2431 2802.102 4148.2406 2824.3449 4160.2408 2863.2727 4193.9344 2891.5439 4222.0895 2936.964 4252.5499 2962.9212 4277.4735 3053.2731 4214.2066 3068.1453 4349.004 2923.5459 4380.4341 2838.2679 4439.5438 2668.6323 4312.5751 Z" fill="none" stroke="#E71E24" opacity="0.3333333333333333" stroke-width="1" class="bensonhurst"/>
<path d="M 2966.1652 4277.0112 2905.0035 4361.9693 2906.8598 4377.6666 2919.8548 4483.8608 2896.6826 4518.9579 2631.5533 4328.729 2627.8485 4308.4151 2634.3385 4297.3362 2769.6654 4114.5461 2966.1652 4277.0112 Z" fill="none" stroke="#E71E24" opacity="0.3333333333333333" stroke-width="1" class="bensonhurst"/>
<path d="M 2987.8196 4227.9575 3033.94 4264.53 3046.9417 4350.2801 2891.7957 4373.1672 2746.7203 4554.4079 2608.9421 4432.8386 2853.0711 4120.7733 2987.8196 4227.9575 Z" fill="none" stroke="#E71E24" opacity="0.3333333333333333" stroke-width="1" class="bensonhurst"/>
<path d="M 2925.4241 4523.5711 2664.9248 4311.1897 2659.3619 4323.1925 2725.1877 3997.3138 3017.1251 4206.8311 2902.2206 4348.1191 2925.4241 4523.5711 Z" fill="none" stroke="#E71E24" opacity="0.3333333333333333" stroke-width="1" class="bensonhurst"/>
<path d="M 2820.5116 4093.3688 2844.0727 4145.4127 2788.9308 4142.6461 2764.2034 4068.3695 2871.2297 4024.0561 2876.4623 4046.5376 2820.5116 4093.3688 Z" fill="none" stroke="#E71E24" opacity="0.3333333333333333" stroke-width="1" class="bensonhurst"/>
<path d="M 2998.5936 4226.2238 2831.7783 4434.0036 2656.5855 4285.3359 2818.7797 4077.6198 2998.5936 4226.2238 Z" fill="none" stroke="#E71E24" opacity="0.3333333333333333" stroke-width="1" class="bensonhurst"/>
<path d="M 2633.393 4430.3029 2644.0554 4418.2996 2652.8618 4420.6093 2724.9343 4503.9588 2723.5437 4502.1117 2727.9478 4494.0312 2726.0936 4494.9546 2709.8705 4475.5603 2698.2824 4470.9422 2678.3521 4451.5476 2670.0086 4452.0085 2666.2999 4456.1637 2659.8117 4446.0049 2644.9796 4440.4624 2633.393 4430.3029 Z" fill="none" stroke="#E71E24" opacity="0.3333333333333333" stroke-width="1" class="bensonhurst"/>
<path d="M 3067.239 4413.6421 3055.2186 4514.305 2941.186 4528.186 2873.5077 4546.6671 2601.8897 4338.8812 2844.7233 4034.2331 3036.5869 4202.2096 3067.239 4413.6421 Z" fill="none" stroke="#E71E24" opacity="0.3333333333333333" stroke-width="1" class="bensonhurst"/>
<path d="M 2903.147 4344.4255 2773.3745 4384.1409 2740.0104 4110.8532 3164.4262 4059.0752 3225.6371 4163.3618 3234.9699 4294.4588 2903.147 4344.4255 Z" fill="none" stroke="#E71E24" opacity="0.3333333333333333" stroke-width="1" class="bensonhurst"/>
<path d="M 2650.0971 4286.7201 2775.2258 4118.2386 2975.4334 4274.2393 2843.8293 4429.3854 2841.0486 4434.0029 2841.9763 4442.3139 2650.0971 4286.7201 Z" fill="none" stroke="#E71E24" opacity="0.3333333333333333" stroke-width="1" class="bensonhurst"/>
<path d="M 2297.1814 3821.8399 3095.8652 4095.1027 2811.3593 3936.3957 3013.3211 3837.612 3395.9734 3878.9644 3340.5842 4208.5362 2297.1814 3821.8399 Z" fill="none" stroke="#E71E24" opacity="0.3333333333333333" stroke-width="1" class="bensonhurst"/>
<path d="M 2636.6563 4292.7199 2778.0061 4125.6238 3047.7485 4336.0832 2897.5875 4360.1236 2832.7059 4443.238 2636.6563 4292.7199 Z" fill="none" stroke="#E71E24" opacity="0.3333333333333333" stroke-width="1" class="bensonhurst"/>
<path d="M 3045.6444 4273.5287 3038.4653 4288.0727 3033.8261 4271.4547 2803.5076 4532.3575 2626.4449 4398.9052 2630.1535 4394.2887 2851.9128 4121.6965 2854.2296 4122.1579 2949.4657 4196.6912 2998.5962 4236.8412 3042.4004 4273.7604 3045.6444 4273.5287 Z" fill="none" stroke="#E71E24" opacity="0.3333333333333333" stroke-width="1" class="bensonhurst"/>
<path d="M 2602.8165 4339.8048 2775.2258 4123.7775 3055.1686 4350.8548 3053.3635 4511.5349 2929.1342 4532.8059 2938.4198 4611.3087 2602.8165 4339.8048 Z" fill="none" stroke="#E71E24" opacity="0.3333333333333333" stroke-width="1" class="bensonhurst"/>
<path d="M 2636.1929 4292.7198 2803.0261 4081.3129 3015.27 4201.2922 2811.3851 4468.173 2636.1929 4292.7198 Z" fill="none" stroke="#E71E24" opacity="0.3333333333333333" stroke-width="1" class="bensonhurst"/>
<path d="M 2933.6963 4119.1469 2761.3232 4496.8025 2578.7114 4362.8845 2652.8755 4305.6484 2595.4162 4254.8583 2816.923 4017.62 2933.6963 4119.1469 Z" fill="none" stroke="#E71E24" opacity="0.3333333333333333" stroke-width="1" class="bensonhurst"/>
<path d="M 3057.0202 4343.4673 2905.003 4358.2758 2588.0297 4103.4519 2738.1609 3972.3929 3032.8721 4175.4375 3057.0202 4343.4673 Z" fill="none" stroke="#E71E24" opacity="0.3333333333333333" stroke-width="1" class="bensonhurst"/>
<path d="M 2736.759 4369.8279 2791.4486 4305.1931 2871.1514 4202.2425 2914.7024 4144.7676 3040.537 4240.7538 3057.2533 4347.8532 3065.6164 4412.4883 2911.9671 4435.3797 2879.7583 4482.943 2736.759 4369.8279 Z" fill="none" stroke="#E71E24" opacity="0.3333333333333333" stroke-width="1" class="bensonhurst"/>
<path d="M 2752.9782 4578.5365 2733.0452 4542.5167 2700.1344 4502.3413 2635.708 4449.234 2879.0221 4142.6955 3029.1849 4246.9891 3031.5007 4242.3721 3040.3055 4241.4463 3060.2662 4349.0065 2904.0777 4369.8182 2906.4001 4403.0604 2854.4935 4464.0143 2880.917 4482.0194 2819.7337 4555.4456 2808.6085 4568.838 2752.9782 4578.5365 Z" fill="none" stroke="#E71E24" opacity="0.3333333333333333" stroke-width="1" class="bensonhurst"/>
<path d="M 2873.7248 3866.9455 2990.7112 3865.4445 3007.4086 3946.6589 2996.4987 4050.4413 2861.2214 4200.0149 2666.1753 4036.7751 2873.7248 3866.9455 Z" fill="none" stroke="#E71E24" opacity="0.3333333333333333" stroke-width="1" class="bensonhurst"/>
<path d="M 2976.8608 4439.9847 2982.4229 4439.5217 3066.782 4433.9579 3102.491 4484.7369 3115.9566 4546.6084 3096.9605 4576.1695 2969.4853 4629.3133 2924.0487 4615.0057 2857.7428 4511.5742 2921.2407 4454.7709 2970.3716 4440.4479 2976.8608 4439.9847 Z" fill="none" stroke="#E71E24" opacity="0.3333333333333333" stroke-width="1" class="bensonhurst"/>
<path d="M 2560.1782 4334.2563 3227.5452 4275.0731 3194.2411 4415.4399 3168.3286 4518.8812 3049.6862 4614.9764 2990.3524 4648.2434 2953.2662 4666.7248 3067.2364 4405.3313 2560.1782 4334.2563 Z" fill="none" stroke="#E71E24" opacity="0.3333333333333333" stroke-width="1" class="bensonhurst"/>
<path d="M 2725.1843 4075.7742 2803.0225 3990.8527 2890.1197 3965.0011 2966.1261 4092.3697 3057.0145 4325.0002 2851.247 4445.0834 2569.4671 4240.081 2636.2107 4162.5417 2725.1843 4075.7742 Z" fill="none" stroke="#E71E24" opacity="0.3333333333333333" stroke-width="1" class="bensonhurst"/>
<path d="M 2565.7223 4417.3628 2729.7979 4207.957 2913.3295 4350.1342 2843.5037 4583.9705 2565.7223 4417.3628 Z" fill="none" stroke="#E71E24" opacity="0.3333333333333333" stroke-width="1" class="bensonhurst"/>
<path d="M 2803.0053 4081.5112 3045.4816 4273.9736 3056.1508 4347.4797 2903.6135 4369.9521 2923.3198 4518.4956 2687.1848 4330.3772 2756.3121 4241.6063 2733.4734 4222.5373 2770.1529 4174.3242 2747.5714 4156.6919 2803.0053 4081.5112 Z" fill="none" stroke="#E71E24" opacity="0.3333333333333333" stroke-width="1" class="bensonhurst"/>
<path d="M 2426.6799 4387.7739 2715.921 4009.3127 2966.1374 4145.9121 2710.3323 4506.036 2426.6799 4387.7739 Z" fill="none" stroke="#E71E24" opacity="0.3333333333333333" stroke-width="1" class="bensonhurst"/>
<path d="M 2897.5591 4156.6561 3045.8761 4273.5286 2879.6425 4483.6357 2686.2423 4329.8894 2852.4918 4120.3118 2897.5591 4156.6561 Z" fill="none" stroke="#E71E24" opacity="0.3333333333333333" stroke-width="1" class="bensonhurst"/>
<path d="M 3054.7746 4517.6187 3037.2156 4713.4323 2912.1204 4694.9858 2593.8737 4429.82 2707.7896 4347.6323 2902.9367 4389.5153 3054.7746 4517.6187 Z" fill="none" stroke="#E71E24" opacity="0.3333333333333333" stroke-width="1" class="bensonhurst"/>
<path d="M 2713.8175 4350.2052 2701.0701 4374.9048 2625.9939 4313.9548 2709.4229 4206.8629 2786.3498 4269.6459 2713.8175 4350.2052 Z" fill="none" stroke="#E71E24" opacity="0.3333333333333333" stroke-width="1" class="bensonhurst"/>
<path d="M 2909.6359 4346.2713 2947.712 4715.6818 2582.403 4446.9165 2704.79 4189.3214 2909.6359 4346.2713 Z" fill="none" stroke="#E71E24" opacity="0.3333333333333333" stroke-width="1" class="bensonhurst"/>
<path d="M 2779.8654 4509.5007 2634.3182 4443.2313 2845.6627 4185.6271 2967.7877 4278.8575 2779.8654 4509.5007 Z" fill="none" stroke="#E71E24" opacity="0.3333333333333333" stroke-width="1" class="bensonhurst"/>
<path d="M 2563.8685 4416.439 2873.4606 4133.9261 3130.348 4600.1708 2883.7238 4686.1333 2563.8685 4416.439 Z" fill="none" stroke="#E71E24" opacity="0.3333333333333333" stroke-width="1" class="bensonhurst"/>
<path d="M 2778.9383 4510.6551 2811.6169 4468.173 2667.4693 4354.1258 2852.1444 4121.2349 2997.669 4235.2257 2901.2944 4353.6595 2778.9383 4510.6551 Z" fill="none" stroke="#E71E24" opacity="0.3333333333333333" stroke-width="1" class="bensonhurst"/>
<path d="M 2830.852 4446.0085 2618.5847 4274.2512 2751.1311 4106.2378 2725.1815 4141.3167 2876.2446 4166.2368 2826.1979 4151.4705 2739.084 4097.0063 2970.798 4269.6239 2830.852 4446.0085 Z" fill="none" stroke="#E71E24" opacity="0.3333333333333333" stroke-width="1" class="bensonhurst"/>
<path d="M 3017.1283 4218.8331 2810.4573 4453.3974 2560.2023 4223.4605 2646.4172 4066.5366 3018.9797 4210.5235 3017.1283 4218.8331 Z" fill="none" stroke="#E71E24" opacity="0.3333333333333333" stroke-width="1" class="bensonhurst"/>
<path d="M 2740.0098 4132.0856 2747.4238 4127.9316 2746.0335 4137.1631 2748.3503 4139.0095 2740.0098 4132.0856 Z" fill="none" stroke="#E71E24" opacity="0.3333333333333333" stroke-width="1" class="bensonhurst"/>
<path d="M 2714.5045 4501.8804 2667.6904 4457.0873 2710.3378 4410.9183 2805.8152 4292.7278 2903.1474 4347.1956 2943.071 4691.6662 2764.1042 4699.9962 2753.4419 4575.3039 2714.5045 4501.8804 Z" fill="none" stroke="#E71E24" opacity="0.3333333333333333" stroke-width="1" class="bensonhurst"/>
<path d="M 2793.7612 4145.933 2966.1644 4273.318 2816.0198 4456.1676 2606.5246 4337.9587 2793.7612 4145.933 Z" fill="none" stroke="#E71E24" opacity="0.3333333333333333" stroke-width="1" class="bensonhurst"/>
<path d="M 2638.0467 4292.7201 2773.3724 4123.7775 2968.0196 4279.7807 2831.7791 4446.0085 2638.0467 4292.7201 Z" fill="none" stroke="#E71E24" opacity="0.3333333333333333" stroke-width="1" class="bensonhurst"/>
<path d="M 2953.1449 4055.4484 3016.1924 4184.6741 2999.5143 4201.2962 2858.6567 4376.7492 2754.8357 4304.7317 2953.1449 4055.4484 Z" fill="none" stroke="#E71E24" opacity="0.3333333333333333" stroke-width="1" class="bensonhurst"/>
<path d="M 3038.4514 4240.062 2943.9679 4530.9561 2931.9208 4562.3593 2711.2653 4403.531 2919.7982 4136.6891 2943.8974 4156.9947 2991.171 4192.9893 3028.2317 4152.3591 3038.4514 4240.062 Z" fill="none" stroke="#E71E24" opacity="0.3333333333333333" stroke-width="1" class="bensonhurst"/>
<path d="M 2816.9285 4118.4681 2985.1603 4250.9242 2882.5268 4379.7476 2702.4681 4262.7194 2816.9285 4118.4681 Z" fill="none" stroke="#E71E24" opacity="0.3333333333333333" stroke-width="1" class="bensonhurst"/>
<path d="M 2489.8186 4033.2731 2829.9025 4115.4671 2698.2903 4359.2071 2474.9583 4144.0424 2489.8186 4033.2731 Z" fill="none" stroke="#E71E24" opacity="0.3333333333333333" stroke-width="1" class="bensonhurst"/>
<path d="M 2916.1516 4516.1844 2612.0968 4272.4036 2811.3638 4029.62 3030.0925 4178.2079 2901.2955 4361.0465 2916.1516 4516.1844 Z" fill="none" stroke="#E71E24" opacity="0.3333333333333333" stroke-width="1" class="bensonhurst"/>
<path d="M 2638.9737 4292.0277 2805.1112 4082.236 2949.6976 4197.6144 2861.4442 4441.3886 2851.2477 4452.4711 2638.9737 4292.0277 Z" fill="none" stroke="#E71E24" opacity="0.3333333333333333" stroke-width="1" class="bensonhurst"/>
<path d="M 2745.5618 4533.7434 2497.137 4367.4818 2689.9747 4020.3875 2938.3591 4278.8633 2745.5618 4533.7434 Z" fill="none" stroke="#E71E24" opacity="0.3333333333333333" stroke-width="1" class="bensonhurst"/>
<path d="M 2836.6493 4488.4882 2671.4101 4341.6608 2728.8839 4262.2592 2793.7641 4243.794 2873.4614 4140.3882 2986.5001 4035.1336 3042.1167 4096.0431 3010.6451 4236.3765 2898.2902 4412.9883 2869.0934 4452.0076 2836.6493 4488.4882 Z" fill="none" stroke="#E71E24" opacity="0.3333333333333333" stroke-width="1" class="bensonhurst"/>
<path d="M 2952.3468 4706.4438 2757.6133 4681.5222 2513.8134 4401.6522 2800.2449 4049.9279 3008.7375 4026.8206 3019.8735 4087.7412 3061.6561 4347.1593 2899.4435 4374.8975 2952.3468 4706.4438 Z" fill="none" stroke="#E71E24" opacity="0.3333333333333333" stroke-width="1" class="bensonhurst"/>
<path d="M 2990.2778 4334.2519 3081.1375 4393.3223 3077.4624 4493.057 2992.179 4531.8693 2769.6672 4511.5787 3023.6753 4435.8176 2825.2923 4485.7185 2643.5903 4430.3042 2628.7704 4343.5023 2773.3731 4213.3271 2783.5683 4218.8664 2917.0404 4276.5587 2917.5034 4274.2504 3010.6711 4337.0169 3004.1821 4335.1719 2990.2778 4334.2519 Z" fill="none" stroke="#E71E24" opacity="0.3333333333333333" stroke-width="1" class="bensonhurst"/>
<path d="M 2617.6412 4380.4358 2678.827 4327.8112 2722.3939 4303.8075 2816.0102 4275.1846 2898.5057 4297.3359 2943.002 4324.1051 2986.5836 4392.4258 3031.0856 4414.5764 3060.766 4465.3576 3045.9721 4597.4288 3014.4564 4631.6117 2965.3321 4721.2206 2878.166 4736.0148 2876.3124 4745.2524 2617.6412 4380.4358 Z" fill="none" stroke="#E71E24" opacity="0.3333333333333333" stroke-width="1" class="bensonhurst"/>
<path d="M 2736.5273 4369.1354 2855.8841 4464.0141 2788.2102 4545.7495 2653.3207 4459.3944 2736.5273 4369.1354 Z" fill="none" stroke="#E71E24" opacity="0.3333333333333333" stroke-width="1" class="bensonhurst"/>
<path d="M 3057.0216 4348.0841 3065.3845 4412.2576 2912.4305 4434.4562 2911.5028 4430.3008 2753.4453 4305.6551 2789.5905 4137.163 3057.0216 4348.0841 Z" fill="none" stroke="#E71E24" opacity="0.3333333333333333" stroke-width="1" class="bensonhurst"/>
<path d="M 2806.1969 4084.2164 3044.9566 4274.9771 3055.1825 4344.9512 2902.8003 4369.7944 2923.8717 4515.6825 2688.6581 4332.6702 2758.3626 4240.5048 2710.5353 4202.5768 2806.1969 4084.2164 Z" fill="none" stroke="#E71E24" opacity="0.3333333333333333" stroke-width="1" class="bensonhurst"/>
<path d="M 2575.4549 4422.9055 2823.0676 4110.0441 2986.5528 4260.3875 2903.1493 4360.1228 2951.4175 4696.2831 2575.4549 4422.9055 Z" fill="none" stroke="#E71E24" opacity="0.3333333333333333" stroke-width="1" class="bensonhurst"/>
<path d="M 2864.2192 4383.2124 2973.5638 4202.2255 3047.6436 3984.3503 2873.4468 4013 3005.0354 4044.3598 2905.9535 4517.1095 2795.6272 4541.1315 2644.5142 4455.2377 2650.091 4337.0416 2626.9547 4082.2266 3001.3292 4046.2068 2864.2192 4383.2124 Z" fill="none" stroke="#E71E24" opacity="0.3333333333333333" stroke-width="1" class="bensonhurst"/>
<path d="M 2830.852 4445.0851 2684.3885 4328.735 2853.0711 4121.0041 3044.9483 4270.5282 3057.0211 4346.2374 2890.1731 4370.2818 2830.852 4445.0851 Z" fill="none" stroke="#E71E24" opacity="0.3333333333333333" stroke-width="1" class="bensonhurst"/>
<path d="M 2511.0897 4188.3659 2704.8018 4004.4661 2977.2893 4283.4719 2833.6331 4445.0849 2511.0897 4188.3659 Z" fill="none" stroke="#E71E24" opacity="0.3333333333333333" stroke-width="1" class="bensonhurst"/>
<path d="M 2638.9735 4293.6435 2805.8064 4086.8515 3042.1512 4214.2099 2856.5795 4464.9375 2638.9735 4293.6435 Z" fill="none" stroke="#E71E24" opacity="0.3333333333333333" stroke-width="1" class="bensonhurst"/>
<path d="M 2506.4249 4301.003 2675.1469 4038.8474 3095.8962 4183.7264 2867.9341 4446.9287 2506.4249 4301.003 Z" fill="none" stroke="#E71E24" opacity="0.3333333333333333" stroke-width="1" class="bensonhurst"/>
<path d="M 2667.728 4093.3091 2905.9184 4280.7153 2798.4043 4416.4599 2540.7408 4215.1469 2652.9026 4078.5377 2667.728 4093.3091 Z" fill="none" stroke="#E71E24" opacity="0.3333333333333333" stroke-width="1" class="bensonhurst"/>
<path d="M 2650.0761 4458.9323 2917.9432 4127.4579 3049.5747 4243.7517 2796.5547 4549.4435 2650.0761 4458.9323 Z" fill="none" stroke="#E71E24" opacity="0.3333333333333333" stroke-width="1" class="bensonhurst"/>
<path d="M 2592.1552 4013.4555 2976.5415 4305.5041 2780.0398 4517.9158 2532.7425 4342.8298 2569.8837 4036.3318 2592.1552 4013.4555 Z" fill="none" stroke="#E71E24" opacity="0.3333333333333333" stroke-width="1" class="bensonhurst"/>
<path d="M 2755.7527 4367.5512 2941.1058 4145.9484 3087.5851 4299.1684 2904.09 4517.1411 2755.7527 4367.5512 Z" fill="none" stroke="#E71E24" opacity="0.3333333333333333" stroke-width="1" class="bensonhurst"/>
<path d="M 2598.1695 4409.0583 2625.0548 4396.1348 2634.3249 4395.2127 2727.9517 4395.2211 2794.6949 4372.1364 2745.0995 4471.8678 2720.5307 4501.419 2598.1695 4409.0583 Z" fill="none" stroke="#E71E24" opacity="0.3333333333333333" stroke-width="1" class="bensonhurst"/>
<path d="M 3056.6748 4342.9646 2905.0338 4372.1418 2924.621 4519.2985 2689.2765 4331.5798 2756.5205 4243.2081 2709.6627 4204.4196 2808.13 4082.4957 3046.409 4270.1173 3056.6748 4342.9646 Z" fill="none" stroke="#E71E24" opacity="0.3333333333333333" stroke-width="1" class="bensonhurst"/>
<path d="M 2731.4263 4440.0077 2747.8811 4451.0897 2736.2924 4468.6354 2719.8374 4458.4765 2731.4263 4440.0077 Z" fill="none" stroke="#E71E24" opacity="0.3333333333333333" stroke-width="1" class="bensonhurst"/>
<path d="M 2780.7906 4395.2217 2742.7843 4370.2898 2814.1565 4277.0313 2877.1751 4197.6257 3057.0222 4349.9308 2909.6396 4370.2791 2923.569 4518.9538 2780.7906 4395.2217 Z" fill="none" stroke="#E71E24" opacity="0.3333333333333333" stroke-width="1" class="bensonhurst"/>
<path d="M 2651.0173 4342.1202 2825.2695 4125.1604 2985.624 4252.0782 2809.5311 4470.9435 2651.0173 4342.1202 Z" fill="none" stroke="#E71E24" opacity="0.3333333333333333" stroke-width="1" class="bensonhurst"/>
<path d="M 2942.1137 4530.9565 2710.3413 4351.8209 2843.8088 4181.0112 2904.9741 4162.5403 2911.4663 4193.9282 2937.4201 4212.3883 2917.0339 4236.3962 2990.2688 4296.3952 2942.1137 4530.9565 Z" fill="none" stroke="#E71E24" opacity="0.3333333333333333" stroke-width="1" class="bensonhurst"/>
<path d="M 3058.8761 4349.9302 3038.587 4710.1177 2903.199 4701.8336 2493.4392 4332.3928 2608.4352 3996.3786 3058.8761 4349.9302 Z" fill="none" stroke="#E71E24" opacity="0.3333333333333333" stroke-width="1" class="bensonhurst"/>
<path d="M 2728.8869 4184.7066 2969.803 3953.9113 3116.2031 3961.2523 3168.2799 4404.3702 2799.3275 4308.4245 2728.8869 4184.7066 Z" fill="none" stroke="#E71E24" opacity="0.3333333333333333" stroke-width="1" class="bensonhurst"/>
<path d="M 2638.9737 4292.0277 2772.909 4123.0852 2796.773 4142.9326 3013.6777 4314.1634 3010.4344 4317.8576 2923.3059 4330.8029 2902.4538 4358.2762 2924.0326 4519.1846 2638.9737 4292.0277 Z" fill="none" stroke="#E71E24" opacity="0.3333333333333333" stroke-width="1" class="bensonhurst"/>
<path d="M 2867.9575 4663.0431 2458.2006 4378.5506 2754.8379 4110.8535 2951.334 4271.4745 2947.6446 4365.6556 2931.0031 4616.8518 2867.9575 4663.0431 Z" fill="none" stroke="#E71E24" opacity="0.3333333333333333" stroke-width="1" class="bensonhurst"/>
<path d="M 2585.2007 4360.1157 2641.7538 4296.4138 2923.5738 4547.5836 2910.615 4686.1296 2585.2007 4360.1157 Z" fill="none" stroke="#E71E24" opacity="0.3333333333333333" stroke-width="1" class="bensonhurst"/>
<path d="M 2499.0003 4334.2411 2583.4216 3971.4527 2969.8728 4277.0104 2829.9246 4440.4678 2778.011 4502.3435 2499.0003 4334.2411 Z" fill="none" stroke="#E71E24" opacity="0.3333333333333333" stroke-width="1" class="bensonhurst"/>
<path d="M 2397.0327 4345.2872 2660.3217 4027.7691 3068.1465 4352.6974 3027.4586 4707.3497 2864.2584 4759.1101 2723.3033 4696.3005 2259.8186 4393.2398 2397.0327 4345.2872 Z" fill="none" stroke="#E71E24" opacity="0.3333333333333333" stroke-width="1" class="bensonhurst"/>
<path d="M 2666.8068 4040.6927 2965.2393 4281.6279 2816.0204 4466.3258 2515.7213 4197.5993 2666.8068 4040.6927 Z" fill="none" stroke="#E71E24" opacity="0.3333333333333333" stroke-width="1" class="bensonhurst"/>
<path d="M 2619.7367 4316.9547 3042.1366 4164.3565 2929.165 4711.0666 2576.8561 4369.3478 2619.7367 4316.9547 Z" fill="none" stroke="#E71E24" opacity="0.3333333333333333" stroke-width="1" class="bensonhurst"/>
<path d="M 3118.3495 4658.2648 2862.9294 4640.3548 2911.1521 4680.9901 2985.3395 4703.1445 2862.9267 4614.493 2670.0832 4448.2555 2925.391 4130.1264 3092.2575 4285.1861 3118.3495 4658.2648 Z" fill="none" stroke="#E71E24" opacity="0.3333333333333333" stroke-width="1" class="bensonhurst"/>
<path d="M 2898.5151 4364.7404 2898.5324 4487.5581 2773.3746 4390.6047 2752.054 4371.2133 2749.2732 4363.8262 2803.9615 4294.5745 2898.5151 4364.7404 Z" fill="none" stroke="#E71E24" opacity="0.3333333333333333" stroke-width="1" class="bensonhurst"/>
<path d="M 2830.9644 4107.684 3023.6246 4246.745 2920.0933 4377.3284 2836.2019 4444.5971 2736.7034 4368.4502 2830.9644 4107.684 Z" fill="none" stroke="#E71E24" opacity="0.3333333333333333" stroke-width="1" class="bensonhurst"/>
<path d="M 2739.0767 4359.2091 2860.4912 4182.8561 3063.4978 4308.3782 3038.5388 4542.9397 2761.3233 4472.7915 2695.5052 4416.4579 2739.0767 4359.2091 Z" fill="none" stroke="#E71E24" opacity="0.3333333333333333" stroke-width="1" class="bensonhurst"/>
<path d="M 3057.9477 4345.3137 3066.3114 4411.7955 3056.1457 4514.3047 2940.2591 4529.1097 2927.2777 4519.8767 2925.4233 4518.9534 2937.4928 4612.2325 2686.2334 4435.8495 2870.6878 4200.3961 3057.9477 4345.3137 Z" fill="none" stroke="#E71E24" opacity="0.3333333333333333" stroke-width="1" class="bensonhurst"/>
<path d="M 2638.9736 4292.7202 2771.5189 4128.3933 3024.5717 4324.0863 2889.2614 4486.6358 2638.9736 4292.7202 Z" fill="none" stroke="#E71E24" opacity="0.3333333333333333" stroke-width="1" class="bensonhurst"/>
<path d="M 2903.1734 4525.4217 2903.1705 4506.0276 2918.9325 4513.4133 2903.1734 4525.4217 Z" fill="none" stroke="#E71E24" opacity="0.3333333333333333" stroke-width="1" class="bensonhurst"/>
<path d="M 2733.5262 4026.3898 2736.7694 4027.7745 3029.6476 4244.45 3046.3642 4356.6285 2868.1577 4372.3621 2770.825 4322.5059 2674.9094 4099.7717 2733.5262 4026.3898 Z" fill="none" stroke="#E71E24" opacity="0.3333333333333333" stroke-width="1" class="bensonhurst"/>
<path d="M 3030.1116 4246.5272 3058.8755 4348.0835 2888.3193 4371.2055 2831.779 4444.1615 2636.1929 4292.7198 2811.3661 4075.7739 3030.1116 4246.5272 Z" fill="none" stroke="#E71E24" opacity="0.3333333333333333" stroke-width="1" class="bensonhurst"/>
<path d="M 2526.8425 4199.4486 2586.1784 4092.374 2877.1915 4336.1187 2828.9973 4435.8506 2526.8425 4199.4486 Z" fill="none" stroke="#E71E24" opacity="0.3333333333333333" stroke-width="1" class="bensonhurst"/>
<path d="M 2649.1771 4230.8616 2921.6459 4101.6094 3116.3106 4251.1155 2969.9083 4441.3714 2649.1771 4230.8616 Z" fill="none" stroke="#E71E24" opacity="0.3333333333333333" stroke-width="1" class="bensonhurst"/>
<path d="M 2582.4176 4371.1957 2598.1816 4340.7273 2620.4334 4307.4907 2641.7548 4289.0273 2654.7299 4301.032 2686.2431 4320.4251 2697.3649 4337.9696 2708.4874 4350.8974 2725.1719 4367.519 2737.2223 4376.7533 2756.6888 4377.6771 2772.4476 4394.2984 2788.2067 4400.762 2769.6668 4427.5417 2755.7612 4444.1638 2740.0009 4460.7859 2721.459 4474.6375 2582.4176 4371.1957 Z" fill="none" stroke="#E71E24" opacity="0.3333333333333333" stroke-width="1" class="bensonhurst"/>
<path d="M 2966.166 4280.7044 2831.3155 4445.5468 2537.0345 4210.9915 2560.2228 4128.8326 2589.8826 4106.2216 2662.6369 4040.6922 2966.1655 4278.3962 2897.5875 4359.6619 2966.166 4280.7044 Z" fill="none" stroke="#E71E24" opacity="0.3333333333333333" stroke-width="1" class="bensonhurst"/>
<path d="M 2841.0603 4579.9189 2751.124 4574.3803 2552.7449 4413.6663 2709.4232 4202.2467 2904.076 4358.2759 2841.0603 4579.9189 Z" fill="none" stroke="#E71E24" opacity="0.3333333333333333" stroke-width="1" class="bensonhurst"/>
<path d="M 2575.0011 4374.8878 2912.365 4012.9948 3212.6505 4138.4423 3209.0249 4312.0145 3164.5905 4448.697 3090.4176 4422.8688 3157.1665 4430.231 3131.1767 4345.2882 3045.9105 4389.6398 2990.3129 4481.9997 2979.2179 4614.9949 2927.3097 4707.3721 2931.0274 4755.4058 2908.7737 4773.8848 2842.0004 4740.6371 2797.4878 4725.8598 2856.8325 4685.2126 2575.0011 4374.8878 Z" fill="none" stroke="#E71E24" opacity="0.3333333333333333" stroke-width="1" class="bensonhurst"/>
<path d="M 2805.8212 4434.005 2800.258 4405.3788 2770.5936 4381.3707 2748.3465 4349.9756 2783.8018 4314.8882 2819.0225 4275.4152 2833.3876 4253.9479 2885.2834 4187.7001 2889.9172 4186.3147 3031.0765 4382.2569 2956.984 4710.1377 2805.8212 4434.005 Z" fill="none" stroke="#E71E24" opacity="0.3333333333333333" stroke-width="1" class="bensonhurst"/>
<path d="M 2830.852 4446.0085 2764.568 4531.4347 2573.6021 4416.9028 2663.5347 4308.4196 2830.852 4446.0085 Z" fill="none" stroke="#E71E24" opacity="0.3333333333333333" stroke-width="1" class="bensonhurst"/>
<path d="M 2754.8363 4247.4874 2707.5598 4361.0544 2818.8789 4110.8853 2910.5498 4097.7654 2988.4139 4185.451 3012.5271 4249.1485 2849.78 4439.9094 2820.1156 4456.534 2719.998 4359.5749 2717.2166 4368.8086 2754.8363 4247.4874 Z" fill="none" stroke="#E71E24" opacity="0.3333333333333333" stroke-width="1" class="bensonhurst"/>
<path d="M 2647.0643 4449.2355 2903.352 4160.925 3048.6771 4341.6231 2846.623 4576.2241 2782.6486 4616.8661 2647.0643 4449.2355 Z" fill="none" stroke="#E71E24" opacity="0.3333333333333333" stroke-width="1" class="bensonhurst"/>
<path d="M 2665.88 4042.5387 3033.3353 4174.9757 2912.4422 4509.7203 2606.5363 4267.7862 2665.88 4042.5387 Z" fill="none" stroke="#E71E24" opacity="0.3333333333333333" stroke-width="1" class="bensonhurst"/>
<path d="M 2833.633 4443.238 2540.7419 4210.5307 2561.1507 4123.7555 2689.9753 4013.0032 3050.5235 4316.6922 2833.633 4443.238 Z" fill="none" stroke="#E71E24" opacity="0.3333333333333333" stroke-width="1" class="bensonhurst"/>
<path d="M 2713.5853 4357.3613 2760.3973 4279.8024 2908.2521 4389.6706 2874.891 4482.0201 2713.5853 4357.3613 Z" fill="none" stroke="#E71E24" opacity="0.3333333333333333" stroke-width="1" class="bensonhurst"/>
<path d="M 2929.0947 4304.7177 3207.3366 4666.6402 2944.005 4727.691 2854.9772 4677.8233 2704.7688 4518.965 2734.4419 4360.1323 2929.0947 4304.7177 Z" fill="none" stroke="#E71E24" opacity="0.3333333333333333" stroke-width="1" class="bensonhurst"/>
<path d="M 2600.035 4343.4977 2535.1925 4163.4457 2803.0201 3929.0124 3081.0423 4108.0315 3116.3455 4345.2939 3054.2918 4515.2288 2946.7495 4531.8791 2606.5233 4345.3456 2600.035 4343.4977 Z" fill="none" stroke="#E71E24" opacity="0.3333333333333333" stroke-width="1" class="bensonhurst"/>
<path d="M 2528.6868 4236.3787 2866.7442 4157.2369 3029.2523 4488.9159 2932.8431 4535.1141 2536.0953 4262.232 2528.6868 4236.3787 Z" fill="none" stroke="#E71E24" opacity="0.3333333333333333" stroke-width="1" class="bensonhurst"/>
<path d="M 2637.1204 4288.1034 2838.2689 4451.5488 2768.7401 4519.8905 2761.3231 4529.1258 2573.1407 4406.2833 2637.1204 4288.1034 Z" fill="none" stroke="#E71E24" opacity="0.3333333333333333" stroke-width="1" class="bensonhurst"/>
<path d="M 3038.4514 4240.062 3056.0952 4349.9311 2902.2234 4367.51 2923.5692 4519.8773 2830.852 4445.0851 2766.8858 4528.2023 2561.086 4422.9025 2597.2481 4377.6622 2580.5655 4361.9615 2638.0467 4292.7201 2613.9504 4273.3272 2785.4185 4055.4668 3038.4514 4240.062 Z" fill="none" stroke="#E71E24" opacity="0.3333333333333333" stroke-width="1" class="bensonhurst"/>
<path d="M 3116.3962 4481.9614 2962.5329 4638.0894 2850.3366 4630.717 2635.2443 4450.6191 2714.0481 4370.2886 2718.6829 4372.1357 2934.6156 4077.6061 3116.3962 4481.9614 Z" fill="none" stroke="#E71E24" opacity="0.3333333333333333" stroke-width="1" class="bensonhurst"/>
<path d="M 2612.0844 4349.0399 2964.2903 4176.3776 3060.7283 4344.3895 2935.6372 4605.7675 2612.0844 4349.0399 Z" fill="none" stroke="#E71E24" opacity="0.3333333333333333" stroke-width="1" class="bensonhurst"/>
<path d="M 2734.9049 4372.8289 2922.6422 4520.801 2850.3359 4623.3279 2760.3957 4581.7691 2658.4196 4458.9333 2734.9049 4372.8289 Z" fill="none" stroke="#E71E24" opacity="0.3333333333333333" stroke-width="1" class="bensonhurst"/>
<path d="M 2903.1491 4358.7378 2925.887 4519.8769 2734.4415 4371.2129 2808.5955 4284.4179 2903.1491 4358.7378 Z" fill="none" stroke="#E71E24" opacity="0.3333333333333333" stroke-width="1" class="bensonhurst"/>
<path d="M 3091.2204 4687.1488 2979.0625 4715.509 2856.6523 4663.8017 2663.8065 4434.7576 2871.4335 4172.5335 3086.4903 4301.7411 3091.2204 4687.1488 Z" fill="none" stroke="#E71E24" opacity="0.3333333333333333" stroke-width="1" class="bensonhurst"/>
<path d="M 2765.0316 4529.8185 2779.4018 4511.4632 2793.8874 4493.2234 2812.4281 4469.789 2832.5902 4445.3158 2808.1385 4426.3865 2769.319 4396.0298 2740.6985 4372.7136 2693.3097 4335.4301 2638.2784 4292.7201 2651.7205 4275.8715 2666.7843 4256.5996 2686.9457 4231.3271 2708.6121 4204.2085 2737.4602 4167.6277 2765.1476 4132.6629 2777.4267 4117.0847 2788.4313 4103.3528 2797.1189 4092.6213 2801.0572 4087.6594 2802.4469 4080.9668 2828.7432 4101.5047 2852.1443 4120.3118 2878.6745 4141.657 2902.6569 4160.5789 2926.4085 4179.5006 2949.9293 4197.8451 2997.4374 4235.6874 3046.3395 4273.5285 3057.2533 4347.8532 3065.1531 4413.1811 3061.4554 4446.4262 3054.2919 4515.6905 3043.6588 4613.3618 3040.2116 4716.3523 3011.4657 4719.3623 2992.6871 4717.5195 2953.2747 4709.6766 2908.0666 4696.9835 2885.5785 4687.0568 2867.4947 4670.6635 2859.8437 4660.7348 2853.1198 4647.3424 2842.4542 4619.4031 2834.8034 4602.3167 2806.2903 4563.0657 2787.5148 4544.595 2765.0316 4529.8185 Z" fill="none" stroke="#E71E24" opacity="0.3333333333333333" stroke-width="1" class="bensonhurst"/>
<path d="M 2794.6877 4138.5476 3050.5328 4347.6244 2923.1052 4517.1068 2663.0709 4311.1895 2794.6877 4138.5476 Z" fill="none" stroke="#E71E24" opacity="0.3333333333333333" stroke-width="1" class="bensonhurst"/>
<path d="M 2991.1825 4240.9977 2879.9775 4379.0553 2782.6432 4315.3499 2872.0718 4145.0042 2991.1825 4240.9977 Z" fill="none" stroke="#E71E24" opacity="0.3333333333333333" stroke-width="1" class="bensonhurst"/>
<path d="M 2833.8647 4443.2379 2838.7314 4438.6203 2835.2553 4443.4687 2837.341 4441.6216 2765.9586 4391.5282 2833.1693 4440.9293 2664.6933 4308.6506 2795.1512 4142.7018 2827.5848 4102.3126 2997.2049 4232.6869 2838.2677 4437.0043 2833.8647 4443.2379 Z" fill="none" stroke="#E71E24" opacity="0.3333333333333333" stroke-width="1" class="bensonhurst"/>
<path d="M 2742.8226 4357.8887 2710.0534 4321.8407 2732.1753 4290.4983 2755.5795 4289.8063 2781.8842 4168.0083 2878.2667 4149.5381 2930.187 4275.0903 2831.2435 4396.8724 2742.8226 4357.8887 Z" fill="none" stroke="#E71E24" opacity="0.3333333333333333" stroke-width="1" class="bensonhurst"/>
<path d="M 2927.2775 4518.9531 2643.6087 4288.1043 2777.0793 4121.9312 3051.4591 4345.3157 3070.0195 4411.7944 3060.7799 4509.6856 2927.2775 4518.9531 Z" fill="none" stroke="#E71E24" opacity="0.3333333333333333" stroke-width="1" class="bensonhurst"/>
<path d="M 3057.023 4352.7009 3070.9471 4413.6409 2914.2851 4437.688 2825.2966 4554.0599 2635.2512 4399.8299 2827.1254 4163.4718 2925.3758 4238.2413 3022.6589 4107.1261 3057.023 4352.7009 Z" fill="none" stroke="#E71E24" opacity="0.3333333333333333" stroke-width="1" class="bensonhurst"/>
<path d="M 2918.0032 4499.5607 2649.1697 4290.8749 2818.7819 4117.314 3057.9457 4338.8502 2918.0032 4499.5607 Z" fill="none" stroke="#E71E24" opacity="0.3333333333333333" stroke-width="1" class="bensonhurst"/>
<path d="M 2479.565 4233.5953 2503.7111 4059.1231 2700.1673 4025.9266 2661.2261 4229.9398 2478.6368 4238.2113 2479.565 4233.5953 Z" fill="none" stroke="#E71E24" opacity="0.3333333333333333" stroke-width="1" class="bensonhurst"/>
<path d="M 2667.7333 4042.5389 2963.3848 4277.9351 2829.9249 4444.1617 2536.1087 4206.8367 2562.076 4130.2177 2667.7333 4042.5389 Z" fill="none" stroke="#E71E24" opacity="0.3333333333333333" stroke-width="1" class="bensonhurst"/>
<path d="M 3045.876 4273.2978 3057.9477 4345.3137 2890.1733 4371.6669 2832.7061 4445.5467 2638.5101 4292.7202 2805.3429 4081.7744 3045.876 4273.2978 Z" fill="none" stroke="#E71E24" opacity="0.3333333333333333" stroke-width="1" class="bensonhurst"/>
<path d="M 2736.759 4368.9045 2712.6588 4349.9743 2782.8739 4262.7213 2901.7585 4357.5837 2882.0634 4380.671 2906.3997 4400.2901 2857.2748 4465.6301 2736.759 4368.9045 Z" fill="none" stroke="#E71E24" opacity="0.3333333333333333" stroke-width="1" class="bensonhurst"/>
<path d="M 2670.0342 4198.3199 2848.9064 4184.0112 2773.6056 4308.1942 2670.0342 4198.3199 Z" fill="none" stroke="#E71E24" opacity="0.3333333333333333" stroke-width="1" class="bensonhurst"/>
<path d="M 2666.8068 4040.6927 3032.4091 4176.8224 3054.7048 4349.9315 3064.4577 4412.7196 3051.0467 4514.768 2498.0724 4337.4726 2534.2543 4210.0676 2666.8068 4040.6927 Z" fill="none" stroke="#E71E24" opacity="0.3333333333333333" stroke-width="1" class="bensonhurst"/>
<path d="M 2703.8735 4031.4652 3000.4489 4232.6861 2833.6332 4446.0083 2604.6818 4272.4024 2703.8735 4031.4652 Z" fill="none" stroke="#E71E24" opacity="0.3333333333333333" stroke-width="1" class="bensonhurst"/>
<path d="M 2557.3783 4421.0548 2703.8625 4199.4767 2912.4179 4353.6578 2940.291 4701.8275 2911.5454 4706.4509 2557.3783 4421.0548 Z" fill="none" stroke="#E71E24" opacity="0.3333333333333333" stroke-width="1" class="bensonhurst"/>
<path d="M 3057.0341 4388.713 2917.0609 4404.4438 2859.5921 4461.7051 2649.1675 4308.418 2812.2969 4158.8567 3059.801 4343.4664 3057.0341 4388.713 Z" fill="none" stroke="#E71E24" opacity="0.3333333333333333" stroke-width="1" class="bensonhurst"/>
<path d="M 2721.4608 4436.7752 2527.7753 4175.4454 2534.261 4182.8326 2734.4542 3985.3148 2981.9195 4265.005 2790.0632 4494.0316 2758.5421 4477.4089 2786.355 4504.1903 2721.4608 4436.7752 Z" fill="none" stroke="#E71E24" opacity="0.3333333333333333" stroke-width="1" class="bensonhurst"/>
<path d="M 2991.6839 4400.0427 2826.3141 4156.2017 2820.9854 4161.1642 2979.1422 4279.7783 2980.0696 4282.0863 2991.6839 4400.0427 Z" fill="none" stroke="#E71E24" opacity="0.3333333333333333" stroke-width="1" class="bensonhurst"/>
<path d="M 2643.6088 4287.181 2778.0061 4124.7006 2892.9339 4220.7045 2758.5427 4386.9111 2643.6088 4287.181 Z" fill="none" stroke="#E71E24" opacity="0.3333333333333333" stroke-width="1" class="bensonhurst"/>
<path d="M 2580.5631 4373.9655 2831.7565 4122.8521 3234.9781 4311.0786 2795.6271 4537.4373 2580.5631 4373.9655 Z" fill="none" stroke="#E71E24" opacity="0.3333333333333333" stroke-width="1" class="bensonhurst"/>
<path d="M 3028.2376 4173.5924 2824.3631 4451.5497 2832.707 4458.0135 2530.5451 4217.9142 2756.6928 3953.9333 3028.2376 4173.5924 Z" fill="none" stroke="#E71E24" opacity="0.3333333333333333" stroke-width="1" class="bensonhurst"/>
<path d="M 2664.9087 4461.9353 2722.3901 4387.8336 2927.7484 4561.6673 2947.0131 4697.9005 2882.1 4677.3585 2664.9087 4461.9353 Z" fill="none" stroke="#E71E24" opacity="0.3333333333333333" stroke-width="1" class="bensonhurst"/>
<path d="M 2833.8647 4443.2379 2809.2972 4425.463 2684.852 4328.2734 2700.6144 4261.3344 2705.2551 4161.6255 2779.8585 4059.1593 2996.5106 4235.9185 2833.8647 4443.2379 Z" fill="none" stroke="#E71E24" opacity="0.3333333333333333" stroke-width="1" class="bensonhurst"/>
<path d="M 2639.9004 4293.6436 2794.6877 4139.4708 2968.0186 4275.1642 2831.779 4445.085 2639.9004 4293.6436 Z" fill="none" stroke="#E71E24" opacity="0.3333333333333333" stroke-width="1" class="bensonhurst"/>
<path d="M 2638.5102 4292.2585 2860.5202 4471.8633 2924.4972 4525.4183 2930.065 4554.0475 2935.6375 4607.6148 2600.9632 4336.111 2771.5189 4121.0081 2965.2372 4271.4717 2897.5858 4348.1198 2926.3504 4518.9533 2905.0241 4501.4097 2804.8937 4422.0003 2638.5102 4292.2585 Z" fill="none" stroke="#E71E24" opacity="0.3333333333333333" stroke-width="1" class="bensonhurst"/>
<path d="M 2779.8578 4012.083 3019.8993 4183.7499 2812.3079 4382.293 2646.4012 4193.9319 2779.8578 4012.083 Z" fill="none" stroke="#E71E24" opacity="0.3333333333333333" stroke-width="1" class="bensonhurst"/>
<path d="M 2905.9523 4508.7977 2661.2183 4300.1095 2761.3249 4122.8544 3044.0416 4338.8544 2905.9523 4508.7977 Z" fill="none" stroke="#E71E24" opacity="0.3333333333333333" stroke-width="1" class="bensonhurst"/>
<path d="M 2791.5194 4148.2207 2854.878 4080.0448 3000.4011 4212.0332 3033.0672 4256.133 2902.6939 4428.6372 2719.2442 4286.1388 2791.5194 4148.2207 Z" fill="none" stroke="#E71E24" opacity="0.3333333333333333" stroke-width="1" class="bensonhurst"/>
<path d="M 2950.4033 4252.0857 3054.2337 4325.0011 2905.9369 4405.369 2873.4988 4468.1679 2664.9251 4308.4198 2739.0798 4247.4871 2950.4033 4252.0857 Z" fill="none" stroke="#E71E24" opacity="0.3333333333333333" stroke-width="1" class="bensonhurst"/>
<path d="M 2560.2215 4134.8331 2867.8711 3865.3255 3048.6177 4143.1215 2839.196 4452.4722 2560.2215 4134.8331 Z" fill="none" stroke="#E71E24" opacity="0.3333333333333333" stroke-width="1" class="bensonhurst"/>
<path d="M 2565.8208 4223.0038 2978.5573 4283.6249 2956.3138 4292.8627 2900.7362 4364.9469 2908.1569 4398.1882 2866.1399 4470.4811 2565.8208 4223.0038 Z" fill="none" stroke="#E71E24" opacity="0.3333333333333333" stroke-width="1" class="bensonhurst"/>
<path d="M 2624.1282 4393.3644 2754.8364 4238.2548 2898.5138 4355.5066 2938.4202 4613.156 2940.2812 4649.1776 2624.1282 4393.3644 Z" fill="none" stroke="#E71E24" opacity="0.3333333333333333" stroke-width="1" class="bensonhurst"/>
<path d="M 2977.2851 4265.006 3055.1633 4333.7726 3054.7562 4517.9992 3045.0456 4599.7381 2902.7299 4663.9624 2814.6298 4467.7111 2892.4697 4214.7035 2980.993 4266.8517 2977.2851 4265.006 Z" fill="none" stroke="#E71E24" opacity="0.3333333333333333" stroke-width="1" class="bensonhurst"/>
<path d="M 2775.4896 4523.4996 2395.4259 4341.7565 2670.4443 4046.3653 2966.1299 4280.8974 2775.4896 4523.4996 Z" fill="none" stroke="#E71E24" opacity="0.3333333333333333" stroke-width="1" class="bensonhurst"/>
<path d="M 2692.2675 4328.0432 2821.1014 4163.4721 2962.6893 4276.3195 2832.2423 4442.0837 2699.2193 4330.3521 2692.2675 4328.0432 Z" fill="none" stroke="#E71E24" opacity="0.3333333333333333" stroke-width="1" class="bensonhurst"/>
<path d="M 2661.2001 4465.3979 2869.7611 4201.3194 3057.0225 4350.8542 3061.6882 4449.6583 2919.8524 4469.085 2834.5712 4595.6206 2661.2001 4465.3979 Z" fill="none" stroke="#E71E24" opacity="0.3333333333333333" stroke-width="1" class="bensonhurst"/>
<path d="M 2781.0169 4064.0054 3004.3868 4228.0689 2831.779 4445.3159 2613.9505 4273.0964 2781.0169 4064.0054 Z" fill="none" stroke="#E71E24" opacity="0.3333333333333333" stroke-width="1" class="bensonhurst"/>
<path d="M 2735.3685 4369.3662 2925.4234 4519.877 2927.2796 4530.9591 2939.3618 4691.6669 2908.76 4683.3588 2760.3959 4534.6671 2660.2737 4458.9335 2735.3685 4369.3662 Z" fill="none" stroke="#E71E24" opacity="0.3333333333333333" stroke-width="1" class="bensonhurst"/>
<path d="M 2836.4142 4444.1612 2519.4319 4184.6753 2599.1499 4105.3001 2686.267 4035.1561 2823.4182 4160.7024 2963.3857 4282.5516 2836.4142 4444.1612 Z" fill="none" stroke="#E71E24" opacity="0.3333333333333333" stroke-width="1" class="bensonhurst"/>
<path d="M 2663.0652 4363.8208 2727.9534 4353.6685 2738.1492 4378.6002 2670.4809 4364.745 2663.0652 4363.8208 Z" fill="none" stroke="#E71E24" opacity="0.3333333333333333" stroke-width="1" class="bensonhurst"/>
<path d="M 2923.5694 4520.8008 2614.8773 4273.4427 2664.8196 4210.4367 2723.2124 4136.8162 2768.3911 4079.929 2985.6235 4250.2317 2901.2947 4355.5062 2923.5694 4520.8008 Z" fill="none" stroke="#E71E24" opacity="0.3333333333333333" stroke-width="1" class="bensonhurst"/>
<path d="M 2482.3276 4293.6096 2853.9759 3886.5538 2901.3049 4426.6086 2482.3276 4293.6096 Z" fill="none" stroke="#E71E24" opacity="0.3333333333333333" stroke-width="1" class="bensonhurst"/>
<path d="M 3268.351 4318.4481 3290.6884 4482.8042 3137.7279 4504.1174 3124.822 4698.0806 2867.0313 4673.2037 2770.5943 4525.4317 2680.6672 4480.1756 2553.6709 4418.2837 2653.8023 4306.5719 2831.7788 4441.3912 3079.187 4102.4934 3268.351 4318.4481 Z" fill="none" stroke="#E71E24" opacity="0.3333333333333333" stroke-width="1" class="bensonhurst"/>
<path d="M 2823.435 4435.851 2640.8268 4297.337 2650.0964 4292.7216 2674.1987 4261.3322 2714.0564 4217.9419 2754.8373 4158.8578 2825.2668 4083.158 2870.6788 4119.156 2942.0485 4181.9212 3042.1669 4267.7591 3053.311 4338.8516 2900.3735 4396.1356 2902.2229 4363.8165 2892.9513 4349.9672 2823.435 4435.851 Z" fill="none" stroke="#E71E24" opacity="0.3333333333333333" stroke-width="1" class="bensonhurst"/>
<path d="M 2725.6466 4102.083 2727.5 4101.6215 2688.1144 4107.1579 2669.5865 4043.4622 2972.6554 4286.2428 2781.7196 4513.4256 2594.4678 4373.9681 2571.3477 4108.9874 2725.6466 4102.083 Z" fill="none" stroke="#E71E24" opacity="0.3333333333333333" stroke-width="1" class="bensonhurst"/>
<path d="M 2728.4236 4180.0905 2728.887 4181.0138 2753.9107 4148.7028 2853.0809 4226.9409 2827.3633 4258.3339 2874.4001 4244.7114 3220.3756 4303.6991 3174.5401 4411.0624 2825.9731 4259.9497 2900.1345 4345.1185 2978.9289 4361.4938 2728.4236 4180.0905 Z" fill="none" stroke="#E71E24" opacity="0.3333333333333333" stroke-width="1" class="bensonhurst"/>
<path d="M 2781.0169 4064.467 2999.9739 4186.063 2997.1945 4190.2182 2992.5625 4198.5283 2985.6131 4205.4541 2980.981 4214.2258 2977.2747 4218.3813 2971.7161 4228.9998 2958.7419 4236.3886 2955.4991 4242.3904 2950.4042 4256.2405 2887.7214 4227.2833 2864.5485 4208.3596 2866.2864 4209.5134 2840.334 4189.8974 2813.5717 4168.6655 2790.7493 4151.2413 2767.0011 4131.8551 2734.3343 4107.7375 2736.4195 4104.2758 2778.7003 4067.1209 2771.2869 4075.775 2765.2635 4082.6983 2763.6418 4085.0061 2760.8617 4088.0062 2767.001 4081.5445 2768.5069 4079.2367 2769.7811 4077.852 2774.1828 4074.1596 2776.0362 4072.0826 2777.0786 4069.5441 2780.322 4066.0824 2778.9319 4059.6208 2781.2486 4063.7747 2788.4305 4070.0054 2784.1445 4066.4285 2782.1753 4065.2747 2781.0169 4064.467 Z" fill="none" stroke="#E71E24" opacity="0.3333333333333333" stroke-width="1" class="bensonhurst"/>
<path d="M 2687.1699 4321.3485 2809.5176 4181.0134 2934.6517 4279.7873 2815.0909 4421.0764 2687.1699 4321.3485 Z" fill="none" stroke="#E71E24" opacity="0.3333333333333333" stroke-width="1" class="bensonhurst"/>
<path d="M 2923.5692 4519.8773 2586.1485 4250.2403 2590.7824 4252.0877 2722.4037 4088.6976 2726.1106 4085.0053 3057.9489 4349.0072 2902.2235 4368.4334 2923.5692 4519.8773 Z" fill="none" stroke="#E71E24" opacity="0.3333333333333333" stroke-width="1" class="bensonhurst"/>
<path d="M 2835.4869 4440.4675 2537.9613 4211.4533 2706.652 4054.5421 2841.9331 3907.7822 3115.4172 4341.6008 2835.4869 4440.4675 Z" fill="none" stroke="#E71E24" opacity="0.3333333333333333" stroke-width="1" class="bensonhurst"/>
<path d="M 2900.3884 4500.4869 2884.6303 4520.8065 2614.8698 4320.4164 2786.3468 4129.3162 3063.5109 4349.9288 2895.7529 4500.4875 2900.3884 4500.4869 Z" fill="none" stroke="#E71E24" opacity="0.3333333333333333" stroke-width="1" class="bensonhurst"/>
<path d="M 2752.055 4301.9617 2745.5661 4325.9683 2713.1255 4291.8039 2747.4207 4289.9586 2752.055 4301.9617 Z" fill="none" stroke="#E71E24" opacity="0.3333333333333333" stroke-width="1" class="bensonhurst"/>
<path d="M 2643.1451 4289.0275 2768.2754 4135.7786 2933.2572 4256.2437 2809.5285 4415.9978 2648.7054 4297.338 2643.1451 4289.0275 Z" fill="none" stroke="#E71E24" opacity="0.3333333333333333" stroke-width="1" class="bensonhurst"/>
<path d="M 3041.2299 4233.1367 3055.6313 4348.5462 2901.2972 4372.5888 2913.3594 4446.461 2878.1355 4479.711 2641.2914 4288.5656 2792.8335 4116.392 3041.2299 4233.1367 Z" fill="none" stroke="#E71E24" opacity="0.3333333333333333" stroke-width="1" class="bensonhurst"/>
<path d="M 2774.5997 4543.5885 2893.2517 4377.3546 3080.7894 4427.9971 3067.8446 4533.2797 3040.0863 4725.4048 2887.3233 4698.9575 2774.5997 4543.5885 Z" fill="none" stroke="#E71E24" opacity="0.3333333333333333" stroke-width="1" class="bensonhurst"/>
<path d="M 2744.6451 4061.0053 3184.7802 3985.2224 3298.0588 4400.6124 2986.6091 4501.3942 2587.9746 4397.052 2744.6451 4061.0053 Z" fill="none" stroke="#E71E24" opacity="0.3333333333333333" stroke-width="1" class="bensonhurst"/>
<path d="M 2763.8217 4509.6061 2744.2787 4527.515 2563.5976 4421.6814 2573.5971 4372.6982 2704.6176 4204.1871 2893.1499 4358.1187 2763.8217 4509.6061 Z" fill="none" stroke="#E71E24" opacity="0.3333333333333333" stroke-width="1" class="bensonhurst"/>
<path d="M 2647.3139 4306.5711 2793.7587 4064.6975 3034.7677 4323.1601 3123.7625 4348.9845 3151.6359 4507.8059 2929.134 4531.8823 2647.3139 4306.5711 Z" fill="none" stroke="#E71E24" opacity="0.3333333333333333" stroke-width="1" class="bensonhurst"/>
<path d="M 2904.1227 4676.8937 2598.1643 4438.6083 2890.134 4072.9975 3032.8736 4180.9767 3055.1674 4347.1613 2927.277 4516.1825 2941.2047 4628.8572 2904.1227 4676.8937 Z" fill="none" stroke="#E71E24" opacity="0.3333333333333333" stroke-width="1" class="bensonhurst"/>
<path d="M 2609.2999 4371.2005 2878.087 4072.0759 3058.7985 4099.7305 3130.2359 4309.2781 2985.6723 4459.8372 2838.2812 4612.2454 2832.7179 4611.3221 2604.6655 4368.4296 2609.2999 4371.2005 Z" fill="none" stroke="#E71E24" opacity="0.3333333333333333" stroke-width="1" class="bensonhurst"/>
<path d="M 2773.3732 4218.8665 2801.1727 4081.313 3048.6569 4274.2202 3064.4574 4411.7961 2907.795 4432.1483 2880.9173 4483.8664 2745.5651 4375.8302 2773.3732 4218.8665 Z" fill="none" stroke="#E71E24" opacity="0.3333333333333333" stroke-width="1" class="bensonhurst"/>
<path d="M 2930.0724 4596.5324 2745.5652 4373.06 2891.0814 4229.0139 3144.2364 4551.2153 2930.0724 4596.5324 Z" fill="none" stroke="#E71E24" opacity="0.3333333333333333" stroke-width="1" class="bensonhurst"/>
<path d="M 2699.2199 4321.3495 2846.6126 4454.3185 2651.005 4443.2335 2699.2199 4321.3495 Z" fill="none" stroke="#E71E24" opacity="0.3333333333333333" stroke-width="1" class="bensonhurst"/></svg>