<?xml version="1.0"?><svg xmlns="http://www.w3.org/2000/svg" version="1.2" baseProfile="tiny" width="6000" height="5918" viewBox="0 0 6000 5918" stroke-linecap="round" stroke-linejoin="round"><path d="M 2830.8078 3805.8037 2881.0713 3848.2505 2977.6432 3795.4003 2995.5074 3921.8323 3028.2316 4151.8975 2942.5264 4259.0118 2653.6034 4029.1529 2830.8078 3805.8037 Z" fill="none" stroke="#FBC20F" opacity="0.6" stroke-width="1" class="borough_park"/>
<path d="M 3008.7398 4036.0512 2853.9981 4123.7734 2681.6374 3993.6188 2815.0595 3821.0317 2938.7561 3916.5374 2988.3202 3894.3765 3008.7398 4036.0512 Z" fill="none" stroke="#FBC20F" opacity="0.6" stroke-width="1" class="borough_park"/>
<path d="M 2939.2193 3916.0758 2962.3749 3879.1541 2987.3873 3867.1508 2994.8133 3925.2935 2816.931 4163.4724 2608.4353 3995.4555 2626.0451 3966.845 2772.4432 3785.0423 2939.2193 3916.0758 Z" fill="none" stroke="#FBC20F" opacity="0.6" stroke-width="1" class="borough_park"/>
<path d="M 2803.9418 3809.0352 2838.2207 3825.6445 2941.9927 3882.8498 2982.7547 3866.229 3018.0243 4103.4348 2922.5953 4238.2418 2650.1303 4014.8452 2803.9418 3809.0352 Z" fill="none" stroke="#FBC20F" opacity="0.6" stroke-width="1" class="borough_park"/>
<path d="M 2740.9395 4018.5441 2808.577 3878.4815 2979.3139 4014.3666 2884.1183 4134.6172 2740.9395 4018.5441 Z" fill="none" stroke="#FBC20F" opacity="0.6" stroke-width="1" class="borough_park"/>
<path d="M 2851.4441 4104.7293 2840.8029 4107.2199 2814.0238 4074.9753 2774.7487 4138.6726 2813.4275 4084.5765 2891.1465 4154.2308 2860.2622 4228.7073 2797.1072 4159.7777 2816.362 4096.2963 2844.3156 4146.0778 2860.882 4198.4731 2851.4441 4104.7293 Z" fill="none" stroke="#FBC20F" opacity="0.6" stroke-width="1" class="borough_park"/>
<path d="M 2826.1791 3858.8688 2989.2589 3945.6001 3017.091 4078.5109 2914.2463 4191.1581 2701.0946 4015.7731 2826.1791 3858.8688 Z" fill="none" stroke="#FBC20F" opacity="0.6" stroke-width="1" class="borough_park"/>
<path d="M 2688.1228 4003.7727 2651.0599 3989.9235 2642.7273 3937.3119 2677.0169 3859.7895 2719.6372 3808.112 2740.9464 3750.8983 2803.9417 3807.1895 2832.6621 3825.6449 2856.7516 3846.8689 2877.1349 3857.0184 2862.3123 3866.249 2843.7859 3904.0903 2737.2339 3987.161 2688.1228 4003.7727 Z" fill="none" stroke="#FBC20F" opacity="0.6" stroke-width="1" class="borough_park"/>
<path d="M 2982.9052 3799.2307 2976.425 3820.4576 2982.9177 3853.6794 2992.7366 3885.2669 2994.3626 3904.4173 2996.3519 3930.4017 2998.2087 3945.3995 3002.7616 3966.9056 3006.9392 3998.2869 3008.5633 4007.9783 3011.3235 4022.4922 3011.2873 4033.0506 3010.3391 4038.9305 2997.3676 4045.3953 2986.9441 4051.3978 2982.0796 4053.4758 2970.8389 4074.1511 2952.8385 4096.4719 2933.4373 4122.0846 2912.311 4149.9175 2894.7447 4174.3248 2870.8577 4202.1904 2846.0347 4182.5283 2820.9447 4161.6873 2796.89 4142.7157 2777.1929 4127.5248 2748.8683 4103.6094 2725.6337 4086.1032 2700.8029 4065.8678 2665.8066 4037.9519 2653.4917 4029.3005 2629.1705 4008.298 2636.4937 4000.2776 2642.9808 3994.0481 2649.4682 3984.8187 2664.6722 3960.78 2688.2802 3934.6853 2720.2715 3892.5176 2749.3222 3857.1981 2770.4882 3833.6051 2788.6991 3809.0606 2793.331 3803.5234 2801.8582 3808.1509 2820.6192 3823.377 2829.5028 3831.221 2852.2023 3847.8309 2861.9312 3857.9817 2866.794 3860.3731 2982.9052 3799.2307 Z" fill="none" stroke="#FBC20F" opacity="0.6" stroke-width="1" class="borough_park"/>
<path d="M 2940.1406 3887.4647 2964.2339 3907.7644 2980.9314 3996.3671 3071.7407 4001.8802 3088.4633 4129.2613 3001.372 4217.9139 2895.726 4304.7228 2821.5682 4219.7882 2762.2514 4169.9361 2701.0874 4121.9291 2662.1724 4051.7691 2775.224 3948.3955 2851.1935 3854.2525 2940.1406 3887.4647 Z" fill="none" stroke="#FBC20F" opacity="0.6" stroke-width="1" class="borough_park"/>
<path d="M 2709.9033 4012.1978 2749.1297 3978.317 2778.7801 3941.3974 2825.1065 3921.0905 2836.2234 3900.785 2867.7209 3863.8655 2876.9865 3871.2477 2880.6929 3874.9389 2958.53 3933.9941 2986.3574 4066.9042 2899.266 4181.3909 2709.9033 4012.1978 Z" fill="none" stroke="#FBC20F" opacity="0.6" stroke-width="1" class="borough_park"/>
<path d="M 2820.6249 2608.2113 2780.8391 2599.1492 2798.419 2577.5658 2829.8774 2592.1575 2820.6249 2608.2113 Z" fill="none" stroke="#FBC20F" opacity="0.6" stroke-width="1" class="borough_park"/>
<path d="M 2672.0208 4043.3 2831.4072 4070.9948 2783.2217 4173.4662 2678.4982 4142.9974 2666.4563 4087.6078 2672.0208 4043.3 Z" fill="none" stroke="#FBC20F" opacity="0.6" stroke-width="1" class="borough_park"/>
<path d="M 2803.2522 3941.7032 2845.4014 3835.334 2886.6301 3848.0191 2936.8953 3873.8524 2858.8432 3918.6253 2803.2522 3941.7032 Z" fill="none" stroke="#FBC20F" opacity="0.6" stroke-width="1" class="borough_park"/>
<path d="M 2783.56 3785.0421 2783.56 3788.7334 2971.6241 3807.1678 3001.303 3940.9823 2827.1255 4164.3949 2603.804 3985.3015 2783.56 3785.0421 Z" fill="none" stroke="#FBC20F" opacity="0.6" stroke-width="1" class="borough_park"/>
<path d="M 2683.6446 4023.6281 2685.4984 4022.5348 2698.2405 4010.5362 2679.7095 3995.074 2806.2358 3836.1772 2854.4923 3873.0328 2892.7414 3840.7875 2983.3324 3910.6585 2999.9049 4040.4751 3012.8768 4035.8565 3001.5469 4225.8978 3032.4481 4177.1099 3004.6987 4228.3448 3029.9597 4245.4184 3041.0239 4311.1173 2683.6446 4023.6281 Z" fill="none" stroke="#FBC20F" opacity="0.6" stroke-width="1" class="borough_park"/>
<path d="M 2875.2849 3881.937 2996.6752 3961.289 2845.662 4176.3951 2651.0562 4020.3836 2828.9594 3871.7892 2875.2849 3881.937 Z" fill="none" stroke="#FBC20F" opacity="0.6" stroke-width="1" class="borough_park"/>
<path d="M 2866.9438 3857.9425 2892.1879 3840.6354 2994.5786 3912.603 3011.5204 4038.3582 2981.1767 4056.3655 2901.7301 4160.2328 2704.3387 4001.9278 2866.9438 3857.9425 Z" fill="none" stroke="#FBC20F" opacity="0.6" stroke-width="1" class="borough_park"/>
<path d="M 2651.0779 3841.3291 2707.59 3869.0209 2713.1451 3936.3954 2636.2441 3917.9289 2627.9125 3869.0126 2662.194 3853.3278 2651.0779 3841.3291 Z" fill="none" stroke="#FBC20F" opacity="0.6" stroke-width="1" class="borough_park"/>
<path d="M 2867.8707 3861.6339 2938.2923 3913.3072 2986.4606 3866.2281 3010.5929 4035.1277 2978.1649 4055.4431 2871.6146 4200.396 2665.8807 4036.0772 2841.0043 3879.1716 2867.8707 3861.6339 Z" fill="none" stroke="#FBC20F" opacity="0.6" stroke-width="1" class="borough_park"/>
<path d="M 2637.1569 4019.4588 2797.4565 3800.7298 2886.3982 3845.9427 3019.8556 4021.2794 2874.3949 4199.4725 2637.1569 4019.4588 Z" fill="none" stroke="#FBC20F" opacity="0.6" stroke-width="1" class="borough_park"/>
<path d="M 2832.4291 3806.4958 2848.6426 3818.7222 2983.4603 3912.8364 3001.7918 4043.2067 2985.115 4056.1338 3017.0922 4083.1264 3021.4997 4104.1262 3014.0895 4117.5137 3018.7348 4161.1319 2973.3351 4215.6124 2686.7341 3989.6964 2718.9355 3949.0866 2770.3593 3883.097 2832.4291 3806.4958 Z" fill="none" stroke="#FBC20F" opacity="0.6" stroke-width="1" class="borough_park"/>
<path d="M 2972.5759 3922.9913 2993.8977 3970.5197 2977.6951 4026.8281 2913.7556 4016.6867 2901.6994 3947.4627 2972.5759 3922.9913 Z" fill="none" stroke="#FBC20F" opacity="0.6" stroke-width="1" class="borough_park"/>
<path d="M 2905.8078 3847.4295 2971.3574 3799.1197 3016.8334 4106.462 2783.3014 4125.9892 2663.5219 4031.326 2842.3473 3828.277 2905.8078 3847.4295 Z" fill="none" stroke="#FBC20F" opacity="0.6" stroke-width="1" class="borough_park"/>
<path d="M 2986.4606 3866.2281 3032.8718 4174.5143 2991.1833 4244.6907 2652.9148 3976.0786 2794.6774 3804.4213 2803.0144 3785.0416 2950.3342 3898.5379 2964.2284 3881.9225 2986.4606 3866.2281 Z" fill="none" stroke="#FBC20F" opacity="0.6" stroke-width="1" class="borough_park"/>
<path d="M 3001.3283 4042.7453 2871.1513 4200.8577 2725.879 4085.0053 2820.1633 3966.6229 2889.645 3877.5514 2989.7248 3956.9065 3001.3283 4042.7453 Z" fill="none" stroke="#FBC20F" opacity="0.6" stroke-width="1" class="borough_park"/>
<path d="M 2641.7877 4036.9975 2908.6323 3839.4794 3005.0382 4055.4367 2867.9109 4232.7097 2641.7877 4036.9975 Z" fill="none" stroke="#FBC20F" opacity="0.6" stroke-width="1" class="borough_park"/>
<path d="M 2818.7652 3820.5701 2937.3663 3916.0762 2988.776 3862.536 3012.4467 4036.9733 2892.9276 4173.6203 2683.0274 3992.2344 2818.7652 3820.5701 Z" fill="none" stroke="#FBC20F" opacity="0.6" stroke-width="1" class="borough_park"/>
<path d="M 2973.4744 4070.6878 2974.1298 4070.3965 2974.9407 4070.627 2982.7318 4054.4404 2964.2813 4038.3336 2969.769 4029.4191 2979.2222 4014.0454 2957.3284 3993.5398 2967.4482 3979.7851 2973.9024 3969.7452 2987.678 3950.1476 2986.5586 3938.0491 2997.258 3936.666 3031.4202 3931.9228 3103.3968 3916.9002 3137.0194 4087.7196 3113.3699 4095.5523 3022.7106 4105.9547 2973.4744 4070.6878 Z" fill="none" stroke="#FBC20F" opacity="0.6" stroke-width="1" class="borough_park"/>
<path d="M 2637.1569 4019.4588 2803.9428 3835.798 2859.5336 3873.6325 2941.0712 3909.6149 2990.1668 3867.1502 3008.7292 3994.5143 2991.1307 4024.0558 2954.0765 4080.3718 2900.341 4168.0801 2862.3458 4193.0112 2850.2956 4172.7019 2825.2721 4166.2414 2783.5664 4122.8542 2738.1573 4098.8525 2711.2846 4065.6194 2676.0739 4034.2321 2637.1569 4019.4588 Z" fill="none" stroke="#FBC20F" opacity="0.6" stroke-width="1" class="borough_park"/>
<path d="M 2687.194 4030.5409 2873.4304 3869.0165 2997.6026 3964.9808 3028.2399 4181.9012 2971.7237 4264.084 2687.194 4030.5409 Z" fill="none" stroke="#FBC20F" opacity="0.6" stroke-width="1" class="borough_park"/>
<path d="M 2766.8849 3849.6419 2892.8895 3891.164 2866.0239 3919.7783 2779.8581 4033.3132 2728.894 4001.006 2664.0352 3963.1578 2689.0548 3937.3167 2717.7796 3902.2465 2742.7963 3870.8682 2766.8849 3849.6419 Z" fill="none" stroke="#FBC20F" opacity="0.6" stroke-width="1" class="borough_park"/>
<path d="M 2770.1272 3785.0423 2826.177 3825.6453 2828.0345 3895.7851 2789.5905 4135.7783 2607.9726 3991.7634 2770.1272 3785.0423 Z" fill="none" stroke="#FBC20F" opacity="0.6" stroke-width="1" class="borough_park"/>
<path d="M 2830.7615 3805.5269 2883.9434 3848.3425 2891.1689 3841.6968 2948.4328 3887.6478 2987.3409 3866.7817 3011.8445 4037.7119 2983.1225 4055.2574 2903.2593 4160.8788 2843.2009 4113.989 2823.3687 4109.9286 2796.308 4094.0521 2676.4015 3999.7103 2830.7615 3805.5269 Z" fill="none" stroke="#FBC20F" opacity="0.6" stroke-width="1" class="borough_park"/>
<path d="M 2873.468 4198.5493 2871.6128 4184.7013 2568.6026 3940.9912 2731.6828 3749.0524 2847.4645 3587.5757 2967.8907 3677.9795 2973.4741 3794.2477 2994.8014 3876.3781 3024.4923 4034.2009 2990.2106 4051.748 2873.468 4198.5493 Z" fill="none" stroke="#FBC20F" opacity="0.6" stroke-width="1" class="borough_park"/>
<path d="M 2666.8074 4035.1543 2970.6951 3795.1711 3031.9466 4180.0537 2962.4575 4276.0887 2666.8074 4035.1543 Z" fill="none" stroke="#FBC20F" opacity="0.6" stroke-width="1" class="borough_park"/>
<path d="M 2852.1195 3849.638 2862.7746 3856.5586 2868.3337 3859.3266 2878.528 3885.6283 2870.6543 3899.0116 2848.8818 3905.0128 2832.2039 3896.7078 2832.6657 3876.865 2836.368 3827.9518 2891.9601 3869.4757 2907.7142 3895.315 2917.446 3916.5411 2914.6668 3919.195 2900.8851 3922.6581 2893.0095 3921.967 2888.0296 3923.6982 2885.5971 3921.3911 2875.1734 3919.3158 2871.0039 3918.624 2867.2973 3913.6636 2869.2665 3917.1244 2852.1195 3849.638 Z" fill="none" stroke="#FBC20F" opacity="0.6" stroke-width="1" class="borough_park"/>
<path d="M 2935.5119 3908.693 2944.1787 3904.6332 2988.7947 3941.6914 2999.9381 4041.8992 3013.8365 4036.3573 3020.3407 4101.8953 3004.5903 4116.6696 2950.8552 4193.3055 2904.2603 4161.1842 2690.9304 3993.0325 2822.498 3824.1357 2866.6723 3857.6499 2935.5119 3908.693 Z" fill="none" stroke="#FBC20F" opacity="0.6" stroke-width="1" class="borough_park"/>
<path d="M 2996.8687 3890.8328 2971.6021 3842.1068 3011.0388 4040.1419 2903.8537 4163.0341 2709.2318 4014.609 2821.1177 3900.8693 2892.9274 3844.0799 2968.6 3841.7796 2996.8687 3890.8328 Z" fill="none" stroke="#FBC20F" opacity="0.6" stroke-width="1" class="borough_park"/>
<path d="M 3000.4014 4041.5917 2897.5597 4160.695 2696.4617 4012.0806 2869.7238 3862.5566 2989.7279 3970.0592 3000.4014 4041.5917 Z" fill="none" stroke="#FBC20F" opacity="0.6" stroke-width="1" class="borough_park"/>
<path d="M 2869.808 3861.8211 2996.5452 3982.7322 2828.2267 4167.3528 2671.6166 4017.805 2869.808 3861.8211 Z" fill="none" stroke="#FBC20F" opacity="0.6" stroke-width="1" class="borough_park"/>
<path d="M 2869.7237 3861.6337 3013.3545 3964.9768 3021.7334 4111.742 2948.5412 4208.6933 2732.6011 3982.5457 2869.7237 3861.6337 Z" fill="none" stroke="#FBC20F" opacity="0.6" stroke-width="1" class="borough_park"/>
<path d="M 2866.0176 3859.7883 2975.3292 3804.3985 3038.4333 4177.2823 2847.5159 4181.0109 2866.0176 3859.7883 Z" fill="none" stroke="#FBC20F" opacity="0.6" stroke-width="1" class="borough_park"/>
<path d="M 2630.2085 4010.2274 2862.2967 3713.9828 2976.2529 3792.4014 3034.7254 4174.5138 2968.0194 4278.8574 2630.2085 4010.2274 Z" fill="none" stroke="#FBC20F" opacity="0.6" stroke-width="1" class="borough_park"/>
<path d="M 2799.0339 3819.8954 2850.4441 3835.0724 2944.7338 3905.018 2980.869 3909.6251 3010.562 4080.3773 3007.7978 4142.2281 3001.3218 4187.466 2992.9906 4229.0134 2966.1126 4229.9427 2677.6566 3974.944 2799.0339 3819.8954 Z" fill="none" stroke="#FBC20F" opacity="0.6" stroke-width="1" class="borough_park"/>
<path d="M 2818.7652 3820.5701 2832.4291 3806.0343 2882.6924 3845.9431 2891.0306 3846.8649 2958.6715 3892.0757 2986.4611 3868.0739 3002.2316 3949.2889 3021.7237 4075.7403 3024.5139 4112.8952 3027.7701 4158.8215 3043.068 4180.0505 2998.5964 4237.5337 2904.0473 4162.5404 2880.4123 4142.6953 2853.7662 4121.2348 2828.7433 4103.0048 2806.0379 4082.9282 2757.3869 4044.8516 2732.8312 4026.6206 2705.4967 4005.3892 2685.8074 3990.3886 2818.7652 3820.5701 Z" fill="none" stroke="#FBC20F" opacity="0.6" stroke-width="1" class="borough_park"/>
<path d="M 2982.7549 3867.1519 3005.9613 4041.5903 2977.2384 4056.3664 2869.7612 4202.2426 2664.9539 4037.0002 2868.7973 3862.5567 2931.8061 3910.5395 2942.923 3903.154 2942.9196 3884.6955 2982.7549 3867.1519 Z" fill="none" stroke="#FBC20F" opacity="0.6" stroke-width="1" class="borough_park"/>
<path d="M 2849.8019 3833.0264 2968.1759 3928.0685 2822.0249 4108.544 2694.1453 4010.2344 2849.8019 3833.0264 Z" fill="none" stroke="#FBC20F" opacity="0.6" stroke-width="1" class="borough_park"/>
<path d="M 2731.6746 3979.7767 2866.0177 3860.7112 2931.8071 3916.0772 3074.4684 3842.2084 3048.6 4084.0406 3160.826 4313.8825 2748.3475 4296.4218 2684.4164 4003.7723 2731.6746 3979.7767 Z" fill="none" stroke="#FBC20F" opacity="0.6" stroke-width="1" class="borough_park"/>
<path d="M 2688.1228 4003.7727 2862.3112 3855.1743 2989.2645 3969.5978 3004.1082 4042.5139 2890.1474 4174.5439 2688.1228 4003.7727 Z" fill="none" stroke="#FBC20F" opacity="0.6" stroke-width="1" class="borough_park"/>
<path d="M 3000.4019 4043.4379 2908.6781 4142.2299 2871.6135 4190.2406 2623.2589 4009.3033 2772.9064 3785.5037 2990.1878 3955.7527 3000.4019 4043.4379 Z" fill="none" stroke="#FBC20F" opacity="0.6" stroke-width="1" class="borough_park"/>
<path d="M 2711.4643 3937.5582 2722.4971 3923.9976 2732.342 3913.6148 2741.6514 3903.0179 2758.1256 3885.6272 2775.0247 3867.0459 2786.0182 3849.9937 2808.4053 3837.3395 2833.6268 3850.1252 2841.1207 3860.6998 2857.5651 3869.7076 2866.3509 3877.7903 2875.8811 3886.0845 2889.2204 3895.1229 2899.9496 3903.3817 2915.1423 3912.3209 2950.4617 3929.5278 2977.4467 3945.8051 2990.0596 3953.0639 2993.5213 3968.7659 2998.8491 3975.6292 3001.7631 3994.0672 3004.2109 4010.7363 3009.1495 4038.9037 3008.7825 4056.4314 3001.4884 4070.1642 3001.4178 4078.6831 3006.8765 4083.3837 3013.1326 4086.8438 3014.7035 4096.1508 3012.2973 4104.8895 3019.3059 4114.1299 3016.0118 4125.9615 3009.7416 4139.3187 3001.6874 4148.2139 2995.3715 4159.5163 2985.3183 4177.5485 2978.4439 4186.0385 2968.4673 4204.3652 2960.8303 4217.3831 2952.761 4225.3689 2929.4186 4210.2134 2908.7091 4198.3212 2901.6121 4186.0259 2890.333 4177.4378 2866.0928 4156.9098 2838.8395 4138.0369 2814.8832 4118.078 2791.8461 4099.5723 2764.3183 4083.3982 2742.2686 4065.5829 2725.9989 4050.2679 2721.5101 4044.6515 2690.9212 4019.6058 2671.8254 4004.6552 2666.1774 3999.1078 2677.1456 3993.7018 2681.8948 3988.9718 2688.8139 3979.6048 2696.6896 3969.7465 2705.8707 3958.17 2711.4643 3937.5582 Z" fill="none" stroke="#FBC20F" opacity="0.6" stroke-width="1" class="borough_park"/>
<path d="M 2626.036 4028.6877 2763.6421 3889.7882 2901.6754 3780.8798 3117.5663 3889.7226 3220.9663 4086.7427 2969.8734 4279.7803 2624.1435 4290.8715 2626.036 4028.6877 Z" fill="none" stroke="#FBC20F" opacity="0.6" stroke-width="1" class="borough_park"/>
<path d="M 2665.2441 4035.372 2659.3823 4017.9099 2816.8987 3825.9403 2998.3042 3950.5451 3011.2996 4040.9982 2981.6493 4052.0823 2948.2987 4100.0907 2876.9529 4191.4956 2665.2441 4035.372 Z" fill="none" stroke="#FBC20F" opacity="0.6" stroke-width="1" class="borough_park"/>
<path d="M 2982.7982 4055.4421 2903.5837 4160.9249 2705.2652 4004.2354 2868.3339 3861.1724 2989.4932 3956.9066 3001.7919 4043.6683 2982.7982 4055.4421 Z" fill="none" stroke="#FBC20F" opacity="0.6" stroke-width="1" class="borough_park"/>
<path d="M 2660.2919 4028.8657 2878.4558 3854.7239 3013.7687 4039.2935 2871.6153 4206.8586 2660.2919 4028.8657 Z" fill="none" stroke="#FBC20F" opacity="0.6" stroke-width="1" class="borough_park"/>
<path d="M 2755.7673 3848.719 2899.1442 3896.9314 2914.6703 3941.3461 2783.9108 3962.817 2722.4122 3901.3238 2755.7673 3848.719 Z" fill="none" stroke="#FBC20F" opacity="0.6" stroke-width="1" class="borough_park"/>
<path d="M 2693.6801 4035.1567 3012.3884 3813.6179 3071.7671 4083.1103 2932.7916 4243.7796 2693.6801 4035.1567 Z" fill="none" stroke="#FBC20F" opacity="0.6" stroke-width="1" class="borough_park"/>
<path d="M 2872.5418 4204.0888 2866.0537 4199.935 2803.0288 4149.6253 2668.1969 4039.3082 2791.4383 3929.0128 2840.0786 3888.8623 2891.0302 3843.6349 2959.5803 3805.7861 2977.6446 3801.6294 3011.0575 4040.2044 2951.2993 4094.6806 2917.0188 4141.767 2872.5418 4204.0888 Z" fill="none" stroke="#FBC20F" opacity="0.6" stroke-width="1" class="borough_park"/>
<path d="M 2951.7832 4199.2296 2948.7706 4196.6913 2705.4967 4006.0815 2869.0287 3861.1724 3012.2155 4038.8195 3020.5741 4108.5113 2951.7832 4199.2296 Z" fill="none" stroke="#FBC20F" opacity="0.6" stroke-width="1" class="borough_park"/>
<path d="M 3017.0794 4035.126 2871.6147 4201.3192 2539.8825 3928.0633 2702.9668 3728.7499 3017.0794 4035.126 Z" fill="none" stroke="#FBC20F" opacity="0.6" stroke-width="1" class="borough_park"/>
<path d="M 2840.0748 3841.3331 2986.4624 3873.6114 3017.0883 4068.3568 2834.5496 4300.1127 2613.975 4120.0728 2840.0748 3841.3331 Z" fill="none" stroke="#FBC20F" opacity="0.6" stroke-width="1" class="borough_park"/>
<path d="M 2690.7451 3986.3891 2836.1704 3805.5851 3012.8172 4038.23 3022.3642 4103.8767 2945.9189 4206.4116 2690.7451 3986.3891 Z" fill="none" stroke="#FBC20F" opacity="0.6" stroke-width="1" class="borough_park"/>
<path d="M 2662.6394 4017.6158 2799.3109 3844.5655 2816.4491 3820.1088 2822.0074 3815.4942 2893.813 3869.014 2951.7273 3915.1505 2969.7976 3928.9911 2897.539 4012.5355 2801.1746 4129.7774 2662.6394 4017.6158 Z" fill="none" stroke="#FBC20F" opacity="0.6" stroke-width="1" class="borough_park"/>
<path d="M 3011.0566 4036.5121 3018.9523 4108.0502 3018.5027 4159.7472 2948.0858 4250.2396 2940.2085 4255.3191 2689.509 4050.8486 2684.413 4043.4636 2693.2168 4034.6951 2704.8008 4020.8501 2714.5313 4004.236 2739.0874 3974.7004 2782.1726 3913.7843 2805.3348 3889.3259 2826.1792 3859.7917 2844.707 3840.4098 2923.4656 3899.9272 2928.5623 3904.541 2955.4371 3933.6089 2961.4597 3934.0691 2995.748 3958.9818 3011.0566 4036.5121 Z" fill="none" stroke="#FBC20F" opacity="0.6" stroke-width="1" class="borough_park"/>
<path d="M 2679.7881 3950.2376 2850.2911 4122.8506 2796.5302 3803.4984 2987.3886 3872.6882 2919.7747 3992.6869 2863.2631 4101.6172 2679.7881 3950.2376 Z" fill="none" stroke="#FBC20F" opacity="0.6" stroke-width="1" class="borough_park"/>
<path d="M 2807.6458 3771.1992 2869.9552 3860.7108 2979.1504 3803.1287 3034.3781 4175.5524 3034.751 4264.5298 2890.6078 4151.9257 2734.9161 4026.3899 2868.218 3860.711 2807.6458 3771.1992 Z" fill="none" stroke="#FBC20F" opacity="0.6" stroke-width="1" class="borough_park"/>
<path d="M 2828.0289 3810.8796 2880.8401 3851.4807 2891.9565 3842.2504 2979.9843 3905.9151 2990.1905 3966.8286 3052.2693 3960.3508 3066.1802 3999.1129 3010.5939 4038.8199 2983.7244 4053.5957 2929.0641 4127.456 2828.9716 4052.6957 2774.2991 4123.7775 2650.1288 4026.8449 2828.0289 3810.8796 Z" fill="none" stroke="#FBC20F" opacity="0.6" stroke-width="1" class="borough_park"/>
<path d="M 2663.1081 3967.7727 2792.8245 3803.4985 2890.1087 3881.0122 2907.7079 3853.3228 2990.1771 3910.5274 3006.8887 4044.3593 3023.5677 4041.5857 3032.8614 4137.5871 3019.8889 4144.976 3021.7467 4160.6695 2979.1291 4221.6122 2663.1081 3967.7727 Z" fill="none" stroke="#FBC20F" opacity="0.6" stroke-width="1" class="borough_park"/>
<path d="M 2982.7409 3806.2425 2965.6262 3919.7624 2986.0032 3891.1468 3006.4219 4030.975 2940.1835 4120.0688 2821.5587 4061.0039 2743.7211 3944.7033 2982.7409 3806.2425 Z" fill="none" stroke="#FBC20F" opacity="0.6" stroke-width="1" class="borough_park"/>
<path d="M 2937.3658 3913.3073 2994.8135 3926.2165 3022.6581 4104.3567 2918.8878 4237.3191 2726.1107 4083.1591 2888.2552 3877.3208 2937.3658 3913.3073 Z" fill="none" stroke="#FBC20F" opacity="0.6" stroke-width="1" class="borough_park"/>
<path d="M 2859.8763 3854.0855 2897.0004 3883.8308 2924.8032 3930.8964 2959.0936 3971.5012 2961.8934 4009.8705 2960.4756 4041.0839 2939.339 4093.0618 2920.8132 4143.8379 2950.3296 4211.6279 2956.9041 4301.3322 2855.9259 4213.0025 2841.4783 4197.2664 2824.6984 4179.7829 2782.8218 4145.9997 2742.0446 4145.9995 2653.7681 4125.4262 2612.5563 4102.5543 2660.3736 4035.8791 2686.6152 3992.5301 2749.6252 3941.7684 2859.8763 3854.0855 Z" fill="none" stroke="#FBC20F" opacity="0.6" stroke-width="1" class="borough_park"/>
<path d="M 2722.4193 3746.2837 3000.3821 3964.0571 2869.7604 4194.8569 2540.8082 3931.7553 2722.4193 3746.2837 Z" fill="none" stroke="#FBC20F" opacity="0.6" stroke-width="1" class="borough_park"/>
<path d="M 4267.8761 4434.8908 4275.8821 4441.3422 4332.2092 4446.7914 4345.6584 4450.9246 4363.5381 4470.9803 4366.5686 4481.3644 4381.1828 4488.7276 4367.054 4494.2926 4343.2198 4517.4207 4312.8711 4526.2444 4276.0056 4518.6848 4268.7995 4505.536 4262.3047 4502.314 4258.3605 4499.7806 4258.3565 4497.2409 4245.1229 4482.9474 4244.4233 4480.178 4242.0966 4474.4098 4243.241 4465.1731 4249.5921 4450.8493 4259.6545 4438.5976 4267.8761 4434.8908 Z" fill="none" stroke="#FBC20F" opacity="0.6" stroke-width="1" class="borough_park"/></svg>