<?xml version="1.0"?><svg xmlns="http://www.w3.org/2000/svg" version="1.2" baseProfile="tiny" width="6000" height="5918" viewBox="0 0 6000 5918" stroke-linecap="round" stroke-linejoin="round"><path d="M 3068.8415 4750.9487 3263.5658 4715.7641 3281.2492 4833.9984 3053.1131 4871.0494 3034.3819 4749.8524 3019.5458 4755.3991 3040.9058 4861.6314 3068.8415 4750.9487 Z" fill="none" stroke="#FBC20F" opacity="0.6" stroke-width="1" class="brighton_beach"/>
<path d="M 3147.1173 4797.8372 3148.0111 4714.6983 3278.7495 4691.5437 3306.6183 4779.2836 3272.3297 4824.5691 3147.1173 4797.8372 Z" fill="none" stroke="#FBC20F" opacity="0.6" stroke-width="1" class="brighton_beach"/>
<path d="M 3270.2502 4837.9658 3099.1462 4858.5972 3125.5188 4701.5442 3225.6596 4686.2598 3228.6856 4711.4293 3248.8618 4725.506 3270.2502 4837.9658 Z" fill="none" stroke="#FBC20F" opacity="0.6" stroke-width="1" class="brighton_beach"/>
<path d="M 3143.2234 4703.7023 3145.8035 4701.6518 3149.5123 4700.6111 3158.7848 4699.4527 3165.391 4697.7179 3170.8383 4696.4455 3173.663 4697.3235 3178.9957 4698.9376 3183.4016 4701.8223 3187.1119 4704.3608 3190.8218 4705.8602 3193.8601 4708.6254 3196.5272 4711.0489 3198.2675 4714.6275 3197.8066 4720.6319 3198.2735 4727.5597 3222.8519 4722.611 3225.9665 4720.9553 3240.4548 4718.7543 3241.9632 4721.7557 3237.4463 4729.4942 3233.0446 4735.6162 3232.7023 4738.6668 3229.9234 4745.0189 3226.6806 4750.9094 3251.6109 4768.2824 3260.194 4777.7467 3258.0193 4816.3423 3146.5301 4826.9922 3101.9219 4822.9612 3120.0856 4749.4191 3126.7721 4709.8613 3137.0888 4710.781 3142.1868 4705.3522 3143.2234 4703.7023 Z" fill="none" stroke="#FBC20F" opacity="0.6" stroke-width="1" class="brighton_beach"/>
<path d="M 3125.7507 4701.7751 3198.0752 4691.1222 3247.2346 4716.9623 3245.3823 4721.5819 3228.7062 4753.4594 3252.3607 4767.304 3274.1533 4766.3687 3275.563 4801.01 3241.723 4820.8896 3049.7508 4830.205 3071.523 4761.3752 3115.1047 4750.275 3125.7507 4701.7751 Z" fill="none" stroke="#FBC20F" opacity="0.6" stroke-width="1" class="brighton_beach"/>
<path d="M 3120.1872 4702.47 3238.4098 4686.2535 3257.1886 4688.7841 3280.4498 4834.0339 3106.0994 4851.2039 3121.8101 4702.9312 3120.1872 4702.47 Z" fill="none" stroke="#FBC20F" opacity="0.6" stroke-width="1" class="brighton_beach"/>
<path d="M 3263.5861 4731.2717 3279.2894 4831.9559 3274.1873 4829.6491 3272.3324 4829.6501 3100.7573 4825.1073 3105.1568 4808.9389 3121.3462 4702.2386 3176.0545 4696.6742 3194.3739 4708.4434 3196.4685 4726.455 3238.6566 4716.2739 3263.5861 4731.2717 Z" fill="none" stroke="#FBC20F" opacity="0.6" stroke-width="1" class="brighton_beach"/>
<path d="M 3492.0649 4742.2088 3509.7403 4813.3263 2779.8712 4891.2225 2639.828 4838.5539 2627.7823 4763.7241 2686.2096 4720.3147 2874.4601 4765.5754 2890.2243 4758.1833 2860.5467 4736.0167 2870.742 4687.9823 2808.6157 4726.7831 2759.4677 4700.9199 2852.1923 4644.5715 2931.9156 4532.8054 3055.2189 4515.2285 3046.9037 4612.2063 3044.1397 4672.2444 3462.2962 4614.7625 3473.4566 4660.0129 3703.4294 4672.7443 3719.2479 4727.2273 3492.0649 4742.2088 Z" fill="none" stroke="#FBC20F" opacity="0.6" stroke-width="1" class="brighton_beach"/>
<path d="M 3256.5281 4756.2166 3257.4317 4710.4911 3267.2174 4802.8621 3264.4491 4829.1924 3197.218 4844.9307 3146.208 4842.643 3118.3826 4836.6488 3109.0956 4801.547 3108.1501 4751.6632 3111.8416 4702.704 3152.6382 4691.6037 3203.6357 4684.1919 3242.588 4697.1049 3246.293 4688.7897 3256.5281 4756.2166 Z" fill="none" stroke="#FBC20F" opacity="0.6" stroke-width="1" class="brighton_beach"/>
<path d="M 3042.7261 4721.3766 3253.8863 4686.3657 3282.8114 4861.7851 3031.0771 4879.7476 3042.7261 4721.3766 Z" fill="none" stroke="#FBC20F" opacity="0.6" stroke-width="1" class="brighton_beach"/>
<path d="M 3113.7444 4833.879 3101.6882 4834.8072 3127.6581 4716.2841 3257.3118 4689.3907 3281.4803 4834.2951 3116.3165 4836.4322 3113.7444 4833.879 Z" fill="none" stroke="#FBC20F" opacity="0.6" stroke-width="1" class="brighton_beach"/>
<path d="M 2934.6984 4541.1168 2943.0424 4539.2682 2949.5322 4538.3434 3471.4567 4465.1403 3687.7396 4748.5046 2970.9217 4839.4638 2934.6984 4541.1168 Z" fill="none" stroke="#FBC20F" opacity="0.6" stroke-width="1" class="brighton_beach"/>
<path d="M 3278.6428 4830.0292 3021.3193 4863.1364 3013.4339 4820.1169 3038.4562 4758.2159 3076.6682 4750.839 3256.3243 4713.6452 3278.6428 4830.0292 Z" fill="none" stroke="#FBC20F" opacity="0.6" stroke-width="1" class="brighton_beach"/>
<path d="M 3126.6777 4700.851 3263.9104 4686.9332 3287.1603 4809.7799 3287.1755 4837.4947 3128.5875 4844.9595 3109.1113 4844.9668 3117.4476 4816.3249 3126.6777 4700.851 Z" fill="none" stroke="#FBC20F" opacity="0.6" stroke-width="1" class="brighton_beach"/>
<path d="M 3049.7616 4866.2352 3113.7132 4748.8899 3257.4339 4714.6478 3281.6074 4831.0309 3049.7616 4866.2352 Z" fill="none" stroke="#FBC20F" opacity="0.6" stroke-width="1" class="brighton_beach"/>
<path d="M 3119.2782 4751.4281 3260.9102 4712.5676 3280.6822 4835.0731 3103.542 4831.8041 3118.6994 4753.6223 3119.2782 4751.4281 Z" fill="none" stroke="#FBC20F" opacity="0.6" stroke-width="1" class="brighton_beach"/>
<path d="M 3075.7615 4734.5231 3256.2308 4711.3558 3277.0547 4836.2562 3081.6958 4711.7785 3042.2517 4865.4877 3075.7615 4734.5231 Z" fill="none" stroke="#FBC20F" opacity="0.6" stroke-width="1" class="brighton_beach"/>
<path d="M 3114.6685 4824.6403 3114.647 4766.441 3127.6089 4711.0115 3167.0122 4693.907 3183.2424 4699.904 3240.7348 4699.8769 3260.2216 4725.7311 3270.4743 4781.8218 3278.8428 4822.4647 3114.6685 4824.6403 Z" fill="none" stroke="#FBC20F" opacity="0.6" stroke-width="1" class="brighton_beach"/>
<path d="M 3115.5684 4750.2748 3260.6782 4712.3368 3280.684 4838.4221 3096.5954 4857.9052 3090.5568 4828.3442 3115.5684 4750.2748 Z" fill="none" stroke="#FBC20F" opacity="0.6" stroke-width="1" class="brighton_beach"/>
<path d="M 3125.3069 4753.9662 3257.9004 4720.1899 3273.2559 4822.259 3103.545 4840.3496 3125.3069 4753.9662 Z" fill="none" stroke="#FBC20F" opacity="0.6" stroke-width="1" class="brighton_beach"/>
<path d="M 3127.6057 4702.6981 3258.3477 4688.7835 3282.5379 4836.5734 3103.546 4843.1211 3127.6057 4702.6981 Z" fill="none" stroke="#FBC20F" opacity="0.6" stroke-width="1" class="brighton_beach"/>
<path d="M 3113.7631 4756.0397 3248.2089 4716.2598 3186.1385 4850.2386 3113.7631 4756.0397 Z" fill="none" stroke="#FBC20F" opacity="0.6" stroke-width="1" class="brighton_beach"/>
<path d="M 3116.4956 4749.8126 3259.287 4711.8757 3279.7521 4830.108 3101.6833 4820.9497 3116.4956 4749.8126 Z" fill="none" stroke="#FBC20F" opacity="0.6" stroke-width="1" class="brighton_beach"/>
<path d="M 3052.2994 4824.1994 3075.2208 4725.8097 3139.5827 4702.8038 3221.5258 4687.2575 3228.4948 4716.5819 3264.4009 4729.4587 3275.061 4797.9511 3268.0713 4832.6816 3056.8788 4823.6629 3052.2994 4824.1994 Z" fill="none" stroke="#FBC20F" opacity="0.6" stroke-width="1" class="brighton_beach"/>
<path d="M 3266.7672 4828.2673 2972.7804 4857.0166 2957.9224 4764.6383 3265.7919 4737.7367 3266.7672 4828.2673 Z" fill="none" stroke="#FBC20F" opacity="0.6" stroke-width="1" class="brighton_beach"/>
<path d="M 3279.7556 4836.5749 2973.7122 4876.8795 2950.0245 4685.6609 3226.3363 4647.696 3238.8823 4704.0345 3259.7502 4710.9517 3279.7556 4836.5749 Z" fill="none" stroke="#FBC20F" opacity="0.6" stroke-width="1" class="brighton_beach"/>
<path d="M 2694.5553 4722.1628 2735.357 4731.4023 2760.3948 4739.7164 2784.5053 4729.5551 2784.5056 4742.4875 2900.4274 4773.886 3492.9901 4739.4368 3506.0313 4814.253 2740.9168 4891.2223 2729.788 4865.3533 2649.1023 4838.5551 2627.7742 4819.1518 2624.0705 4779.4277 2627.7832 4757.2577 2669.5164 4734.1691 2694.5553 4722.1628 Z" fill="none" stroke="#FBC20F" opacity="0.6" stroke-width="1" class="brighton_beach"/>
<path d="M 3095.6583 4830.1901 3099.8052 4755.1302 3241.4393 4717.6581 3263.0515 4816.9524 3095.6583 4830.1901 Z" fill="none" stroke="#FBC20F" opacity="0.6" stroke-width="1" class="brighton_beach"/>
<path d="M 3284.3922 4835.6485 3088.7174 4873.6137 3122.9894 4756.2765 3262.0665 4707.2556 3284.3922 4835.6485 Z" fill="none" stroke="#FBC20F" opacity="0.6" stroke-width="1" class="brighton_beach"/>
<path d="M 2733.5022 4735.0972 3073.8745 4862.9941 2897.6609 4885.6701 2797.4935 4894.9177 2742.7717 4895.3799 2711.2392 4858.4235 2669.0413 4846.8719 2635.1926 4825.6196 2623.1425 4783.5846 2646.7954 4745.7133 2688.9912 4724.4717 2733.5022 4735.0972 Z" fill="none" stroke="#FBC20F" opacity="0.6" stroke-width="1" class="brighton_beach"/>
<path d="M 3101.6939 4850.9745 3119.2805 4757.6635 3248.3966 4722.5041 3264.673 4814.1801 3101.6939 4850.9745 Z" fill="none" stroke="#FBC20F" opacity="0.6" stroke-width="1" class="brighton_beach"/>
<path d="M 3196.2376 4728.5335 3259.7512 4712.7991 3278.8267 4833.8039 3100.2962 4832.4981 3124.8197 4692.0765 3194.3635 4685.5817 3196.2376 4728.5335 Z" fill="none" stroke="#FBC20F" opacity="0.6" stroke-width="1" class="brighton_beach"/>
<path d="M 3066.4465 4836.6667 3064.5846 4814.4955 3071.0696 4793.2458 3088.678 4758.1363 3116.4818 4712.8631 3128.5177 4662.9791 3189.707 4640.7858 3236.0814 4665.7027 3254.6557 4722.039 3298.2912 4813.4689 3294.5909 4830.0999 3107.2641 4866.2162 3068.3037 4844.0569 3066.4465 4836.6667 Z" fill="none" stroke="#FBC20F" opacity="0.6" stroke-width="1" class="brighton_beach"/>
<path d="M 3273.1922 4703.5549 3280.6478 4771.9079 3272.3347 4833.8074 3252.8886 4892.021 3202.833 4953.9483 3129.5583 4957.6751 3056.2686 4914.2755 3060.8782 4824.6587 3073.8343 4739.6662 3105.3472 4693.4693 3190.6571 4691.5874 3245.3727 4702.6457 3273.1922 4703.5549 Z" fill="none" stroke="#FBC20F" opacity="0.6" stroke-width="1" class="brighton_beach"/>
<path d="M 3120.189 4707.3194 3267.623 4693.3971 3279.7586 4842.1179 3090.5667 4856.9834 3120.189 4707.3194 Z" fill="none" stroke="#FBC20F" opacity="0.6" stroke-width="1" class="brighton_beach"/>
<path d="M 3147.3525 4806.0359 3161.4942 4803.2586 3162.5377 4803.7201 3164.2819 4816.3063 3147.4731 4817.699 3144.5704 4806.3834 3147.3525 4806.0359 Z" fill="none" stroke="#FBC20F" opacity="0.6" stroke-width="1" class="brighton_beach"/>
<path d="M 3110.9369 4764.5948 3123.9136 4747.9623 3165.6421 4743.3268 3227.7662 4727.5949 3256.5094 4720.1906 3269.5406 4811.637 3250.0702 4821.8092 3201.8476 4828.2995 3167.5357 4834.7815 3133.2212 4835.7193 3108.1792 4832.0334 3110.9541 4811.7082 3113.7291 4792.3073 3111.8696 4779.3749 3110.9369 4764.5948 Z" fill="none" stroke="#FBC20F" opacity="0.6" stroke-width="1" class="brighton_beach"/>
<path d="M 3086.7584 4566.9372 3451.1128 4536.2658 3456.8726 4805.9759 3090.5524 4815.4107 3086.7584 4566.9372 Z" fill="none" stroke="#FBC20F" opacity="0.6" stroke-width="1" class="brighton_beach"/>
<path d="M 3259.7507 4711.8754 3281.146 4835.1884 3045.125 4868.5462 3046.9681 4828.8201 3017.7519 4820.052 3023.7577 4737.8337 3043.2264 4719.8154 3100.2513 4705.4793 3135.027 4710.0849 3142.4425 4702.6923 3173.0408 4696.6755 3205.5055 4716.9827 3227.2956 4713.2774 3236.5712 4718.3533 3259.7507 4711.8754 Z" fill="none" stroke="#FBC20F" opacity="0.6" stroke-width="1" class="brighton_beach"/>
<path d="M 2714.0276 4748.0288 2959.7769 4763.7142 2963.5005 4831.1509 2661.1621 4809.9179 2680.643 4749.8739 2708.4637 4744.3334 2714.0276 4748.0288 Z" fill="none" stroke="#FBC20F" opacity="0.6" stroke-width="1" class="brighton_beach"/>
<path d="M 3102.148 4823.7211 3115.1047 4750.275 3260.678 4711.8749 3279.7531 4831.9557 3102.148 4823.7211 Z" fill="none" stroke="#FBC20F" opacity="0.6" stroke-width="1" class="brighton_beach"/>
<path d="M 3104.7948 4825.5586 3108.7304 4809.1594 3113.6526 4778.2418 3118.9526 4749.7388 3126.1329 4709.1422 3140.2734 4706.712 3161.3955 4698.7259 3174.5435 4696.9631 3197.5056 4709.8641 3198.0521 4727.6581 3225.7672 4720.7226 3241.2564 4717.8303 3263.5233 4731.555 3269.4343 4766.1455 3274.5611 4800.1051 3279.4044 4832.6754 3268.3385 4834.3598 3209.4227 4839.0066 3170.0133 4842.9656 3124.8103 4848.668 3108.2784 4853.1788 3105.719 4828.1204 3104.7948 4825.5586 Z" fill="none" stroke="#FBC20F" opacity="0.6" stroke-width="1" class="brighton_beach"/>
<path d="M 3077.558 4783.082 3122.0325 4677.7604 3223.1024 4671.2511 3309.3829 4748.7977 3300.1606 4839.3351 3176.8156 4847.7113 3087.7821 4850.5174 3000.6072 4869.9442 2955.1625 4875.4976 2955.1538 4832.0764 3077.558 4783.082 Z" fill="none" stroke="#FBC20F" opacity="0.6" stroke-width="1" class="brighton_beach"/>
<path d="M 3118.3468 4740.5744 3121.1285 4739.8806 3173.5207 4734.5479 3250.2529 4725.7362 3265.6014 4816.0273 3106.3215 4824.1815 3118.3468 4740.5744 Z" fill="none" stroke="#FBC20F" opacity="0.6" stroke-width="1" class="brighton_beach"/>
<path d="M 3024.2161 4718.4352 3100.4824 4703.4009 3175.8226 4696.4434 3196.4611 4710.2899 3198.5556 4727.8397 3247.6969 4714.1909 3269.5551 4838.89 3014.9837 4873.174 3024.2161 4718.4352 Z" fill="none" stroke="#FBC20F" opacity="0.6" stroke-width="1" class="brighton_beach"/>
<path d="M 3258.3434 4680.4703 3276.0269 4801.4717 3020.9999 4827.4418 3043.2247 4713.8112 3258.3434 4680.4703 Z" fill="none" stroke="#FBC20F" opacity="0.6" stroke-width="1" class="brighton_beach"/>
<path d="M 3116.4959 4750.7364 3261.1402 4709.1036 3276.9643 4819.9474 3096.1252 4839.4284 3116.4959 4750.7364 Z" fill="none" stroke="#FBC20F" opacity="0.6" stroke-width="1" class="brighton_beach"/>
<path d="M 3038.6007 4757.4593 3040.6757 4717.7377 3257.1881 4687.8604 3252.8104 4740.0528 3271.4128 4844.2011 3032.136 4852.3824 3038.6007 4757.4593 Z" fill="none" stroke="#FBC20F" opacity="0.6" stroke-width="1" class="brighton_beach"/>
<path d="M 3241.6575 4690.6394 3279.7541 4833.8034 3038.6292 4856.076 3046.9364 4722.1236 3241.6575 4690.6394 Z" fill="none" stroke="#FBC20F" opacity="0.6" stroke-width="1" class="brighton_beach"/>
<path d="M 3012.781 4819.954 3025.2864 4766.3705 3047.5386 4751.5839 3055.3608 4736.3794 3079.8264 4728.8274 3105.325 4720.9669 3127.5791 4716.8019 3150.2705 4718.1503 3177.2505 4720.9101 3205.9995 4725.5159 3223.1505 4716.2704 3241.8224 4715.3112 3250.5005 4722.286 3255.1472 4741.6821 3253.0915 4743.8821 3253.0953 4751.2721 3253.5685 4769.7472 3266.0989 4790.5258 3266.1075 4806.6923 3012.781 4819.954 Z" fill="none" stroke="#FBC20F" opacity="0.6" stroke-width="1" class="brighton_beach"/>
<path d="M 3022.3475 4817.3745 3049.8019 4816.5356 3051.269 4808.6061 3158.0069 4795.8678 3024.499 4756.1912 3159.8855 4739.5169 3022.3475 4817.3745 Z" fill="none" stroke="#FBC20F" opacity="0.6" stroke-width="1" class="brighton_beach"/>
<path d="M 3258.3434 4680.4703 3276.0444 4833.8054 3085.9241 4841.2795 3092.4091 4820.953 3114.6398 4747.042 3122.9664 4695.3102 3258.3434 4680.4703 Z" fill="none" stroke="#FBC20F" opacity="0.6" stroke-width="1" class="brighton_beach"/>
<path d="M 3123.8951 4699.0047 3224.9627 4683.2581 3232.3987 4719.2791 3260.2139 4710.9515 3281.6099 4835.65 3094.2694 4836.6575 3123.8951 4699.0047 Z" fill="none" stroke="#FBC20F" opacity="0.6" stroke-width="1" class="brighton_beach"/>
<path d="M 3115.8008 4751.8913 3262.9963 4711.8737 3283.0024 4837.9589 3096.3639 4858.8291 3115.8008 4751.8913 Z" fill="none" stroke="#FBC20F" opacity="0.6" stroke-width="1" class="brighton_beach"/>
<path d="M 3117.4237 4751.8907 3243.9868 4712.5763 3271.3816 4785.7696 3202.7558 4786.7276 3108.1701 4806.8592 3117.4237 4751.8907 Z" fill="none" stroke="#FBC20F" opacity="0.6" stroke-width="1" class="brighton_beach"/>
<path d="M 3481.8949 4782.8623 2658.3772 4833.937 2638.9081 4782.2012 2692.6982 4753.5699 3416.9702 4770.9001 3485.5932 4768.079 3481.8949 4782.8623 Z" fill="none" stroke="#FBC20F" opacity="0.6" stroke-width="1" class="brighton_beach"/>
<path d="M 3261.8794 4792.4721 3260.4854 4786.9301 3270.0211 4843.278 3099.1471 4861.1378 3118.3506 4750.7357 3239.5847 4717.8899 3250.0214 4726.4291 3261.8794 4792.4721 Z" fill="none" stroke="#FBC20F" opacity="0.6" stroke-width="1" class="brighton_beach"/>
<path d="M 3103.5348 4811.7109 3110.9332 4754.4334 3193.4544 4725.7636 3256.508 4717.4194 3276.9668 4824.5666 3271.4097 4838.4271 3200.0012 4846.7771 3149.9216 4852.3419 3106.333 4856.054 3060.8911 4866.2318 3066.4239 4765.5338 3090.5315 4754.4407 3115.561 4730.4143 3117.4198 4741.4985 3117.4195 4740.5748 3132.2536 4732.2554 3103.5348 4811.7109 Z" fill="none" stroke="#FBC20F" opacity="0.6" stroke-width="1" class="brighton_beach"/>
<path d="M 2721.9059 4836.2517 3212.4843 4767.7855 3220.3973 4831.0623 2756.6842 4877.3643 2721.9059 4836.2517 Z" fill="none" stroke="#FBC20F" opacity="0.6" stroke-width="1" class="brighton_beach"/>
<path d="M 3122.0412 4700.8528 3140.5461 4597.396 3492.8417 4546.3937 3504.9235 4583.3274 3506.809 4623.0413 3529.0817 4647.0384 3504.9783 4653.5231 3504.9819 4658.1414 3535.5814 4658.117 3548.5951 4696.9011 3518.9209 4696.0015 3330.6848 4703.5223 3256.5056 4712.8008 3275.1164 4832.882 3097.9762 4828.3417 3122.0412 4700.8528 Z" fill="none" stroke="#FBC20F" opacity="0.6" stroke-width="1" class="brighton_beach"/>
<path d="M 3379.7994 4653.6126 2873.5345 4781.2797 3036.6136 4295.4598 3316.458 4158.6974 3379.7994 4653.6126 Z" fill="none" stroke="#FBC20F" opacity="0.6" stroke-width="1" class="brighton_beach"/>
<path d="M 3268.973 4834.2711 3121.1718 4854.8937 3115.8287 4827.2959 3100.9886 4823.4905 3126.793 4699.2345 3181.6173 4694.478 3207.9383 4714.0949 3226.5994 4711.7767 3234.6007 4718.3543 3239.9325 4717.8898 3242.3687 4721.9298 3249.7896 4726.4293 3268.973 4834.2711 Z" fill="none" stroke="#FBC20F" opacity="0.6" stroke-width="1" class="brighton_beach"/>
<path d="M 3098.8652 4719.3355 3125.0044 4716.7109 3129.6413 4717.6329 3120.6625 4733.6455 3103.0401 4724.8764 3098.8652 4719.3355 Z" fill="none" stroke="#FBC20F" opacity="0.6" stroke-width="1" class="brighton_beach"/>
<path d="M 3253.9648 4730.8148 3259.7886 4784.39 3263.0436 4801.9405 3263.5185 4823.188 3223.6409 4825.9796 3159.6521 4833.861 3064.5978 4856.0681 3060.4203 4843.5974 3055.3135 4824.1985 3041.845 4752.6086 3038.5906 4722.5879 3070.8252 4754.2163 3054.586 4719.581 3080.779 4708.719 3169.7921 4689.2873 3190.1907 4685.5836 3218.9367 4686.0321 3209.8967 4688.1147 3230.0769 4712.1214 3243.9926 4724.1229 3258.6248 4775.6147 3257.4584 4761.7587 3253.2755 4742.8239 3253.9648 4730.8148 Z" fill="none" stroke="#FBC20F" opacity="0.6" stroke-width="1" class="brighton_beach"/>
<path d="M 3264.4415 4814.8731 3240.1005 4821.8143 3196.5128 4823.6828 3161.0411 4828.5484 3129.9731 4830.4085 3107.4829 4829.955 3106.0901 4825.3363 3104.6968 4819.332 3105.8503 4803.3958 3112.1028 4782.839 3116.9624 4758.3572 3122.5141 4725.3312 3126.2179 4711.012 3138.0397 4707.5435 3141.9785 4701.9997 3156.814 4698.7607 3170.0275 4697.6005 3188.1122 4703.1348 3198.0845 4711.4438 3200.4105 4728.3007 3218.9533 4720.6712 3238.6565 4716.043 3243.7599 4722.2755 3250.9499 4728.738 3252.3454 4737.5128 3256.9901 4752.9832 3258.3887 4767.5318 3261.1796 4784.3893 3264.8961 4797.5514 3264.4415 4814.8731 Z" fill="none" stroke="#FBC20F" opacity="0.6" stroke-width="1" class="brighton_beach"/>
<path d="M 3257.4329 4712.8004 3285.3202 4836.5718 3099.8307 4827.4172 3127.6074 4707.3166 3257.4329 4712.8004 Z" fill="none" stroke="#FBC20F" opacity="0.6" stroke-width="1" class="brighton_beach"/>
<path d="M 3102.7648 4823.2859 3125.2958 4708.253 3224.334 4688.0632 3125.857 4706.8626 3126.5519 4705.4017 3127.7094 4701.0137 3127.1703 4705.8021 3126.707 4706.726 3225.9697 4686.555 3229.3482 4721.3848 3260.9426 4712.0339 3280.5849 4834.3852 3102.7648 4823.2859 Z" fill="none" stroke="#FBC20F" opacity="0.6" stroke-width="1" class="brighton_beach"/>
<path d="M 3057.1762 4849.6035 3047.8888 4806.1863 3041.3816 4753.5325 3055.2805 4716.5787 3064.5435 4684.2461 3122.0342 4682.3788 3156.3409 4675.8995 3194.3595 4676.8067 3242.5815 4684.1731 3275.9761 4707.2482 3277.8572 4756.2053 3260.2762 4830.1184 3057.1762 4849.6035 Z" fill="none" stroke="#FBC20F" opacity="0.6" stroke-width="1" class="brighton_beach"/>
<path d="M 3019.3942 4705.3881 3261.5476 4715.8887 3276.3878 4815.0513 2983.8267 4819.1664 3019.3942 4705.3881 Z" fill="none" stroke="#FBC20F" opacity="0.6" stroke-width="1" class="brighton_beach"/>
<path d="M 3267.4668 4835.8886 3264.4526 4835.8902 3245.6723 4836.1309 3218.7782 4839.1466 3172.1763 4842.8631 3139.7183 4848.6506 3104.941 4853.7449 3060.6582 4862.7674 3022.6336 4866.9359 3020.7782 4865.0886 3016.3614 4822.3619 3021.2129 4757.6951 3023.9899 4739.2193 3043.6895 4717.7369 3101.6419 4704.5551 3174.8953 4696.4438 3193.4378 4689.046 3224.7335 4688.5695 3228.2217 4710.9677 3241.904 4719.7362 3249.5564 4723.8891 3250.4877 4731.5094 3253.0457 4746.7499 3258.3882 4766.608 3261.6479 4793.1651 3267.4668 4835.8886 Z" fill="none" stroke="#FBC20F" opacity="0.6" stroke-width="1" class="brighton_beach"/>
<path d="M 3279.289 4831.2631 3267.6975 4833.8098 3259.3423 4817.8782 3102.8444 4826.2613 3126.6764 4697.618 3253.7051 4676.7779 3279.289 4831.2631 Z" fill="none" stroke="#FBC20F" opacity="0.6" stroke-width="1" class="brighton_beach"/>
<path d="M 3114.6419 4752.5846 3248.1603 4713.7289 3274.6587 4843.9684 3092.4235 4862.526 3114.6419 4752.5846 Z" fill="none" stroke="#FBC20F" opacity="0.6" stroke-width="1" class="brighton_beach"/></svg>