<?xml version="1.0"?><svg xmlns="http://www.w3.org/2000/svg" version="1.2" baseProfile="tiny" width="6000" height="5918" viewBox="0 0 6000 5918" stroke-linecap="round" stroke-linejoin="round"><path d="M 5329.4984 3169.93 5543.0459 3063.2756 5713.4712 3094.1121 5727.8167 3240.702 5629.2688 3412.5694 5379.9712 3343.187 5329.4984 3169.93 Z" fill="none" stroke="#A9159C" opacity="0.6" stroke-width="1" class="cambria_heights"/>
<path d="M 5485.8148 3119.6936 5383.2039 3507.3793 5338.7296 3500.1209 4868.3336 3534.4969 4960.5976 3382.9956 4948.3007 2870.2879 5128.5828 2423.7398 5413.1208 2286.6113 5576.0844 2345.1101 5709.8691 2532.6934 5714.4216 2805.5168 5726.4862 3111.5926 5682.6884 3318.3189 5579.5211 3499.4347 5390.6129 3507.3587 5427.2527 3363.348 5585.2231 2927.6073 5485.8148 3119.6936 Z" fill="none" stroke="#A9159C" opacity="0.6" stroke-width="1" class="cambria_heights"/>
<path d="M 5999 2940.282 5999 2941.0296 5999 2944.6557 5999 2988.2074 5999 2990.1591 5999 3205.7856 5876.687 3181.198 5815.3692 3114.9986 5903.6709 2943.1991 5999 2940.282 Z" fill="none" stroke="#A9159C" opacity="0.6" stroke-width="1" class="cambria_heights"/>
<path d="M 5545.2526 3184.0757 5503.5216 3160.2194 5481.1914 3121.5513 5443.8973 3028.5216 5533.3026 2897.3354 5571.3315 2924.8827 5615.8084 2941.3456 5669.5483 2959.6223 5700.1072 2964.138 5702.0787 3002.8581 5697.5879 3047.1325 5701.4139 3086.7724 5713.6381 3147.5984 5717.5544 3215.8323 5692.6452 3244.5008 5643.5151 3225.2835 5600.8595 3203.2778 5545.2526 3184.0757 Z" fill="none" stroke="#A9159C" opacity="0.6" stroke-width="1" class="cambria_heights"/>
<path d="M 3301.2677 3520.0779 3314.1266 3335.5755 3602.1181 3355.6572 3614.319 3537.3774 3301.2677 3520.0779 Z" fill="none" stroke="#A9159C" opacity="0.6" stroke-width="1" class="cambria_heights"/>
<path d="M 5686.075 2916.2369 5721.4338 3272.0807 5566.6264 3523.4597 5047.9586 3513.7836 5079.8939 2940.0446 5686.075 2916.2369 Z" fill="none" stroke="#A9159C" opacity="0.6" stroke-width="1" class="cambria_heights"/>
<path d="M 5673.1937 3018.895 5478.1262 3029.5127 5702.2803 3018.4051 5704.0552 3092.3723 5713.8805 3246.5058 5709.8155 3257.821 5709.5149 3278.3642 5708.6149 3286.6681 5491.5473 3197.1716 5514.2991 3144.3934 5478.989 3032.2058 5673.1937 3018.895 Z" fill="none" stroke="#A9159C" opacity="0.6" stroke-width="1" class="cambria_heights"/>
<path d="M 5486.5653 3058.8293 5556.8332 3030.0389 5558.432 3022.8879 5702.3897 3028.445 5711.8929 3181.7263 5710.3575 3283.1834 5483.2471 3192.5563 5520.1347 3142.6491 5486.5653 3058.8293 Z" fill="none" stroke="#A9159C" opacity="0.6" stroke-width="1" class="cambria_heights"/>
<path d="M 5486.5653 3058.8293 5474.9109 3029.8163 5527.1595 3012.1454 5556.8223 3026.3505 5561.8765 3013.8874 5701.2018 3018.5362 5709.8931 3282.7237 5491.1299 3197.1449 5517.3789 3150.0348 5486.5653 3058.8293 Z" fill="none" stroke="#A9159C" opacity="0.6" stroke-width="1" class="cambria_heights"/>
<path d="M 5727.7445 3217.6449 5707.5884 3285.959 5488.7409 3171.3289 5465.422 3110.5304 5553.1441 3034.6603 5701.5027 3115.3593 5727.7445 3217.6449 Z" fill="none" stroke="#A9159C" opacity="0.6" stroke-width="1" class="cambria_heights"/>
<path d="M 5504.2897 3105.8076 5561.4042 3010.6615 5703.9644 3013.9172 5712.813 3179.8789 5764.7168 3198.1606 5718.6935 3284.0797 5492.5213 3198.0631 5504.2897 3105.8076 Z" fill="none" stroke="#A9159C" opacity="0.6" stroke-width="1" class="cambria_heights"/>
<path d="M 5490.8478 3196.4911 5502.1694 3174.2108 5517.2535 3148.1142 5508.2841 3122.3994 5495.7026 3086.866 5475.9351 3029.4766 5524.0381 3013.0762 5533.978 3009.3588 5557.5935 3001.971 5563.2651 3002.6457 5568.1442 3003.6467 5701.2315 3007.9719 5703.9157 3090.4359 5705.6306 3155.8174 5697.6427 3179.7106 5706.3294 3181.9893 5714.3155 3247.0772 5710.0639 3256.8901 5700.684 3280.888 5672.8156 3270.3951 5638.0733 3256.1069 5558.2376 3223.9818 5490.8478 3196.4911 Z" fill="none" stroke="#A9159C" opacity="0.6" stroke-width="1" class="cambria_heights"/>
<path d="M 5421.2226 2865.3888 5517.3591 2825.4712 5704.4598 2875.6133 5719.5243 3253.6402 5534.1159 3174.886 5434.1875 2868.1181 5421.2226 2865.3888 Z" fill="none" stroke="#A9159C" opacity="0.6" stroke-width="1" class="cambria_heights"/>
<path d="M 5635.0654 3070.9493 5639.4851 3075.3253 5701.2854 3104.9947 5718.3184 3193.6493 5690.2326 3236.7793 5529.5548 3169.6333 5550.4053 3063.3 5635.0654 3070.9493 Z" fill="none" stroke="#A9159C" opacity="0.6" stroke-width="1" class="cambria_heights"/>
<path d="M 5701.4367 3280.3288 5558.3329 3224.271 5518.416 3148.5332 5555.3388 3033.3859 5704.2054 3091.3745 5706.1438 3156.498 5697.6508 3179.2344 5707.265 3182.0865 5714.7597 3247.4295 5701.4367 3280.3288 Z" fill="none" stroke="#A9159C" opacity="0.6" stroke-width="1" class="cambria_heights"/>
<path d="M 5493.9548 3053.2753 5696.8025 3092.3196 5704.7074 3252.7641 5496.174 3180.5298 5493.9548 3053.2753 Z" fill="none" stroke="#A9159C" opacity="0.6" stroke-width="1" class="cambria_heights"/>
<path d="M 5495.7715 3041.2825 5588.8152 2890.7173 5783.3342 2939.9032 5856.2438 3158.2092 5659.4438 3287.0301 5495.7715 3041.2825 Z" fill="none" stroke="#A9159C" opacity="0.6" stroke-width="1" class="cambria_heights"/>
<path d="M 5376.8958 3530.4609 5393.0642 3469.6384 5551.9386 3030.8095 5711.1289 3091.0763 5715.6846 3281.2206 5563.9231 3526.9366 5376.8958 3530.4609 Z" fill="none" stroke="#A9159C" opacity="0.6" stroke-width="1" class="cambria_heights"/>
<path d="M 5476.9207 3028.9575 5527.5193 3011.8702 5556.9057 3003.0556 5589.2497 3003.3795 5700.5589 3008.2002 5704.6338 3091.1059 5705.7662 3155.3774 5705.6569 3157.4528 5697.2746 3178.5749 5691.3563 3194.0167 5708.7406 3202.0325 5714.0755 3246.8447 5710.2879 3257.002 5701.1707 3280.6391 5662.9713 3266.858 5598.1801 3239.0856 5558.2222 3224.0881 5490.9403 3197.7658 5502.4532 3174.2334 5517.5057 3147.467 5496.0823 3087.3385 5476.9207 3028.9575 Z" fill="none" stroke="#A9159C" opacity="0.6" stroke-width="1" class="cambria_heights"/>
<path d="M 5715.9129 3283.1661 5557.3999 3221.8527 5476.7628 3030.0415 5701.7488 3008.3916 5715.9129 3283.1661 Z" fill="none" stroke="#A9159C" opacity="0.6" stroke-width="1" class="cambria_heights"/>
<path d="M 5538.5284 3101.0969 5554.9846 3030.9664 5565.964 2987.5963 5703.9386 3005.6185 5710.1448 3214.9331 5711.1051 3225.9975 5521.9944 3145.4103 5538.2658 3011.6518 5547.4761 2995.9495 5554.8566 2987.6292 5562.2479 2982.9971 5702.0386 2989.9493 5538.5284 3101.0969 Z" fill="none" stroke="#A9159C" opacity="0.6" stroke-width="1" class="cambria_heights"/>
<path d="M 5700.3982 3281.3697 5628.544 3249.7699 5491.1286 3196.6838 5519.3502 3151.4124 5516.8989 3144.1571 5478.7305 3030.2664 5533.1626 3007.5174 5562.0772 3003.5134 5702.0945 3007.9295 5709.2428 3148.3037 5709.122 3183.8099 5714.6476 3248.5828 5700.3982 3281.3697 Z" fill="none" stroke="#A9159C" opacity="0.6" stroke-width="1" class="cambria_heights"/>
<path d="M 5504.2897 3105.8076 5462.7628 2989.7407 5448.9926 2948.5188 5606.8351 2881.4437 5531.136 3105.7294 5505.9064 3104.6502 5504.2897 3105.8076 Z" fill="none" stroke="#A9159C" opacity="0.6" stroke-width="1" class="cambria_heights"/></svg>