<?xml version="1.0"?><svg xmlns="http://www.w3.org/2000/svg" version="1.2" baseProfile="tiny" width="6000" height="5918" viewBox="0 0 6000 5918" stroke-linecap="round" stroke-linejoin="round"><path d="M 3720.1665 3800.2484 3649.2624 3872.6151 3785.7436 3752.823 3831.3619 3701.9366 3878.5446 3704.847 3918.4181 3738.9414 3951.892 3768.4828 3980.6585 3806.282 3999.2123 3825.6379 4032.7451 3859.6874 4071.7156 3902.0885 4058.7987 3941.7933 4029.5977 4001.6978 4007.777 4008.8461 3929.9942 4086.1152 3898.5574 4145.2344 3829.9901 4156.3922 3750.2134 4084.4732 3677.8867 4038.3913 3648.4595 3988.1762 3655.7975 3908.7931 3656.4003 3899.5114 3636 3881.072 3631.6937 3929.6834 3652.0863 3938.8941 3646.5235 3935.2075 3720.1665 3800.2484 Z" fill="none" stroke="#E71E24" opacity="0.6" stroke-width="1" class="canarsie"/>
<path d="M 3594.8471 3511.5628 3592.994 3510.6419 3804.9665 3408.9568 4162.2179 3902.1391 4006.7644 4055.5755 3594.8471 3511.5628 Z" fill="none" stroke="#E71E24" opacity="0.6" stroke-width="1" class="canarsie"/>
<path d="M 4039.0137 3918.926 3843.7007 4081.6222 3664.7686 3996.8871 3927.662 3782.4824 4039.0137 3918.926 Z" fill="none" stroke="#E71E24" opacity="0.6" stroke-width="1" class="canarsie"/>
<path d="M 4072.4186 3954.8763 3892.8979 4150.8005 3664.7571 3984.8878 3927.6609 3781.5596 4072.4186 3954.8763 Z" fill="none" stroke="#E71E24" opacity="0.6" stroke-width="1" class="canarsie"/>
<path d="M 3647.3564 4008.4967 3629.5545 3729.0953 3832.9498 3647.9643 3952.2507 3657.1763 4079.4413 3969.0225 3870.0418 4198.1608 3784.6091 4075.4992 3647.3564 4008.4967 Z" fill="none" stroke="#E71E24" opacity="0.6" stroke-width="1" class="canarsie"/>
<path d="M 4150.5751 3544.1244 4180.2413 3563.4551 4194.1675 3585.577 4204.3965 3612.3181 4185.883 3619.7274 4153.4822 3631.7702 4120.165 3651.1948 4096.1002 3664.1468 4067.4121 3683.5638 4040.5705 3699.2868 4017.4273 3710.3906 3996.1386 3723.3372 3968.3707 3740.9055 3938.7593 3766.7809 3903.599 3801.8911 3883.2375 3818.5266 3859.1801 3844.395 3812.896 3879.5174 3751.7975 3927.5758 3712.9087 3953.4588 3699.9714 3988.5457 3685.1476 3990.4063 3657.3687 4010.7396 3647.1458 3978.4433 3645.2668 3950.7552 3640.5965 3910.1492 3652.6248 3892.6023 3675.7643 3868.5845 3702.6177 3853.792 3718.3593 3845.4703 3729.0046 3836.6922 3741.5022 3827.4507 3765.5677 3806.6614 3778.5213 3791.4208 3795.1816 3777.5605 3818.3214 3759.5403 3831.2802 3750.2979 3845.1604 3736.9018 3858.5765 3723.0448 3878.0172 3712.4105 3894.2164 3702.7024 3913.654 3690.2221 3932.6342 3682.817 3944.2031 3674.9596 3963.1793 3664.7859 3981.6901 3653.2285 3995.5722 3643.9837 4022.419 3632.8762 4045.0947 3619.9284 4064.9911 3606.9841 4084.4264 3595.8854 4105.2551 3588.0138 4114.0422 3579.6976 4132.0885 3569.5229 4145.9719 3563.0444 4149.1993 3553.3524 4150.5751 3544.1244 Z" fill="none" stroke="#E71E24" opacity="0.6" stroke-width="1" class="canarsie"/>
<path d="M 3602.4268 3704.3899 3750.6402 3706.0925 3769.1588 3698.6911 3790.5761 3802.0204 3992.8381 4035.2861 3971.5499 4054.698 3894.7172 4122.1803 3880.8424 4144.3526 3666.6376 4013.4999 3653.6588 4007.0509 3645.3261 4014.443 3602.4268 3704.3899 Z" fill="none" stroke="#E71E24" opacity="0.6" stroke-width="1" class="canarsie"/>
<path d="M 3631.3932 3724.895 3938.9852 3762.1666 3645.0942 4014.2125 3643.9368 4015.1366 3631.3932 3724.895 Z" fill="none" stroke="#E71E24" opacity="0.6" stroke-width="1" class="canarsie"/>
<path d="M 3604.082 3702.6684 3662.5679 3712.7359 3845.2416 3670.5126 4048.4534 3913.9072 3882.1843 4056.4407 3604.082 3702.6684 Z" fill="none" stroke="#E71E24" opacity="0.6" stroke-width="1" class="canarsie"/>
<path d="M 4109.6421 3833.9344 3880.9466 4145.536 3640.248 4003.1692 3708.7175 3795.2092 4109.6421 3833.9344 Z" fill="none" stroke="#E71E24" opacity="0.6" stroke-width="1" class="canarsie"/>
<path d="M 3851.5797 3680.1455 4368.0657 3450.6038 4479.3416 3531.5919 4057.5708 3938.283 3776.5367 4535.0505 3214.369 3854.1498 3193.9307 3730.5004 3851.5797 3680.1455 Z" fill="none" stroke="#E71E24" opacity="0.6" stroke-width="1" class="canarsie"/>
<path d="M 4105.826 3990.8267 4068.0476 4145.0365 3599.1388 4177.8775 3564.4515 3709.0365 3845.0735 3660.776 4105.826 3990.8267 Z" fill="none" stroke="#E71E24" opacity="0.6" stroke-width="1" class="canarsie"/>
<path d="M 3908.6148 4119.3942 3752.8532 4051.2593 3706.4889 4019.9224 3671.2504 3992.2658 3923.0221 3776.0284 4040.8506 3906.9253 4053.92 3978.8996 3908.6148 4119.3942 Z" fill="none" stroke="#E71E24" opacity="0.6" stroke-width="1" class="canarsie"/>
<path d="M 4070.0647 3669.8448 4046.3536 3898.3179 3892.5659 3909.5889 4037.0037 3999.2898 3944.4232 4064.024 3861.0076 4051.2011 3836.2989 4024.8684 3464.0663 3680.0406 3826.9529 3467.1209 4070.0647 3669.8448 Z" fill="none" stroke="#E71E24" opacity="0.6" stroke-width="1" class="canarsie"/>
<path d="M 3952.0946 4058.415 3915.0054 4039.9992 3870.4507 3975.4397 3842.6005 3929.3227 3805.482 3877.6798 3768.3636 3822.3468 3794.2798 3800.1707 3862.7767 3750.2618 3910.9276 3733.5947 3940.5547 3720.6396 3970.2046 3726.1389 3992.5374 3803.6255 4022.2736 3871.8791 4033.4013 3879.2475 4053.8018 3892.1408 4085.3673 3938.2447 4090.9577 3960.3884 3952.0946 4058.415 Z" fill="none" stroke="#E71E24" opacity="0.6" stroke-width="1" class="canarsie"/>
<path d="M 3874.3713 4158.2078 3579.4499 3914.8185 3849.7335 3685.6839 4129.911 3986.1771 3874.3713 4158.2078 Z" fill="none" stroke="#E71E24" opacity="0.6" stroke-width="1" class="canarsie"/>
<path d="M 3928.9476 3777.7616 3846.9373 3685.9741 4041.6891 3920.6631 3838.5994 4101.3255 3668.9372 3994.8026 3643.9411 4018.8251 3628.5462 3900.1261 3844.5347 3683.7623 3928.9476 3777.7616 Z" fill="none" stroke="#E71E24" opacity="0.6" stroke-width="1" class="canarsie"/>
<path d="M 4100.213 3952.9915 3902.161 4147.0967 3636.9678 3994.144 3923.9327 3763.108 4100.213 3952.9915 Z" fill="none" stroke="#E71E24" opacity="0.6" stroke-width="1" class="canarsie"/>
<path d="M 3643.8229 4017.2135 3641.3591 3983.2945 3651.4274 3974.2858 3639.9507 3963.3358 3637.8452 3940.8401 3801.7035 3811.4674 3820.0239 3832.5575 3643.8229 4017.2135 Z" fill="none" stroke="#E71E24" opacity="0.6" stroke-width="1" class="canarsie"/>
<path d="M 4057.5633 3932.7452 4013.2498 4054.6439 3896.5718 4123.1012 3653.6779 4027.3579 3640.5153 3822.4738 3838.1384 3671.395 4057.5633 3932.7452 Z" fill="none" stroke="#E71E24" opacity="0.6" stroke-width="1" class="canarsie"/>
<path d="M 3883.1087 3709.6362 3916.5076 3751.5821 4053.375 3918.9066 3597.8827 4330.219 3528.8685 3808.7278 3883.1087 3709.6362 Z" fill="none" stroke="#E71E24" opacity="0.6" stroke-width="1" class="canarsie"/>
<path d="M 3645.0979 4018.1354 3644.8647 4016.5203 3644.6296 4012.8283 3643.7004 4010.0601 3643.0018 4006.1378 3641.5615 3951.6816 3634.0676 3863.0863 3673.8715 3827.0566 3851.5564 3659.8459 3856.2846 3743.8098 3945.2846 3799.3022 4105.7724 3952.9836 3889.1799 4141.5732 3645.0979 4018.1354 Z" fill="none" stroke="#E71E24" opacity="0.6" stroke-width="1" class="canarsie"/>
<path d="M 3647.1815 4016.7489 3636.6485 3899.0776 3827.9936 3710.8532 4055.6806 3911.0584 3890.3515 4152.6499 3647.1815 4016.7489 Z" fill="none" stroke="#E71E24" opacity="0.6" stroke-width="1" class="canarsie"/>
<path d="M 3636.8904 3910.1526 3690.5817 3862.1098 3720.1815 3815.0139 3782.1848 3752.1975 3830.3154 3716.1564 3856.1963 3667.2222 3870.0733 3652.4428 3901.5621 3648.7148 3907.1453 3669.9301 3915.4999 3684.6835 3934.0544 3707.7291 3962.8032 3733.5304 3978.589 3763.0394 3996.2491 3808.2349 4016.6793 3845.1226 4046.3772 3882.9217 4079.7375 3887.4905 4096.4496 3912.3863 4089.1214 3972.3899 4045.6843 4055.5237 3963.2976 4123.9422 3884.5548 4148.9641 3770.5019 4090.9339 3656.4552 4024.5861 3636.8904 3910.1526 Z" fill="none" stroke="#E71E24" opacity="0.6" stroke-width="1" class="canarsie"/>
<path d="M 3945.3852 3644.2608 4102.3183 3861.9561 3884.3306 4147.4564 3643.3125 4022.3813 3626.7594 3807.0385 3740.0613 3707.6939 3945.3852 3644.2608 Z" fill="none" stroke="#E71E24" opacity="0.6" stroke-width="1" class="canarsie"/>
<path d="M 3764.7476 3907.2573 3955.433 3765.8373 3975.8843 3821.1811 4039.9241 3906.9265 3977.9194 3963.309 3838.1322 4074.2437 3689.5975 3803.0473 3942.443 3749.2432 3764.7476 3907.2573 Z" fill="none" stroke="#E71E24" opacity="0.6" stroke-width="1" class="canarsie"/>
<path d="M 4090.9642 3965.0033 3898.4551 4148.0243 3555.3995 3961.9104 3844.1883 3696.763 4090.9642 3965.0033 Z" fill="none" stroke="#E71E24" opacity="0.6" stroke-width="1" class="canarsie"/>
<path d="M 4068.5724 3853.3585 4198.3394 3893.7787 4057.7222 4049.0457 3865.1702 4215.4576 3683.058 3746.7622 3687.2311 4226.7267 3668.215 3724.6299 3957.1404 3650.4917 4068.5724 3853.3585 Z" fill="none" stroke="#E71E24" opacity="0.6" stroke-width="1" class="canarsie"/>
<path d="M 3948.1451 3771.7293 4085.4292 3982.5482 4048.3153 3945.6794 3845.5941 4116.6988 3651.8194 4021.8213 3627.4846 3756.0424 3897.6804 3694.6243 3948.1451 3771.7293 Z" fill="none" stroke="#E71E24" opacity="0.6" stroke-width="1" class="canarsie"/>
<path d="M 3612.613 3700.6898 3636.5511 3541.9701 4105.0479 3441.7882 4216.6287 3736.866 3987.2841 4039.9086 3663.1527 4247.0615 3612.613 3700.6898 Z" fill="none" stroke="#E71E24" opacity="0.6" stroke-width="1" class="canarsie"/>
<path d="M 3839.3405 4096.2511 3677.5352 3993.8556 3925.0732 3777.6131 4042.3826 3915.4983 4070.4363 3945.2301 3992.821 4038.5593 3891.6441 4125.2276 3852.5115 4107.2342 3839.3405 4096.2511 Z" fill="none" stroke="#E71E24" opacity="0.6" stroke-width="1" class="canarsie"/>
<path d="M 3926.3842 3779.2541 4044.2264 3919.6112 4029.2751 3998.0855 4010.4677 4053.0322 3931.4843 4065.0176 3833.7688 4108.1732 3670.2114 3995.8435 3645.4439 4016.5197 3641.8232 3984.2171 3639.2352 3941.0695 3636.9977 3900.9232 3634.9143 3902.3095 3725.1833 3836.9268 3696.1311 3852.414 3774.1253 3795.5782 3822.716 3754.46 3863.3203 3719.8097 3871.3041 3714.8406 3926.3842 3779.2541 Z" fill="none" stroke="#E71E24" opacity="0.6" stroke-width="1" class="canarsie"/>
<path d="M 3905.5709 3900.6375 3935.3894 4038.1281 3787.1426 4053.9921 3735.0034 3814.076 3887.8357 3789.9131 3905.5709 3900.6375 Z" fill="none" stroke="#E71E24" opacity="0.6" stroke-width="1" class="canarsie"/>
<path d="M 3802.8261 4090.0322 3664.8915 4002.3946 3933.327 3771.9885 4084.5908 3960.0613 3814.1186 4098.0223 3809.482 4095.258 3802.8261 4090.0322 Z" fill="none" stroke="#E71E24" opacity="0.6" stroke-width="1" class="canarsie"/>
<path d="M 3644.6324 4015.8282 3619.1206 3726.521 3836.7438 3666.783 3930.4378 3779.7105 4051.0536 3915.2179 3839.0882 4100.0898 3751.9231 4048.0295 3669.864 3995.9592 3644.6324 4015.8282 Z" fill="none" stroke="#E71E24" opacity="0.6" stroke-width="1" class="canarsie"/>
<path d="M 4079.5403 3953.5853 3875.8584 4139.7352 3601.3631 3938.789 3858.9986 3687.5187 3948.3665 3773.2065 3953.9387 3776.8446 3952.1434 3784.2755 4079.5403 3953.5853 Z" fill="none" stroke="#E71E24" opacity="0.6" stroke-width="1" class="canarsie"/>
<path d="M 3603.8407 4254.5021 3676.0007 4114.1079 3768.8081 4241.4158 3474.2199 4441.1281 3327.3806 3824.5575 3610.2968 4089.129 3622.6867 4083.9253 3628.1208 4072.7277 3631.112 4050.2247 3634.2251 4034.6451 3653.5271 3990.2058 3638.8882 3941.5313 3599.6499 3969.2564 3601.5314 4001.3295 3603.8407 4254.5021 Z" fill="none" stroke="#E71E24" opacity="0.6" stroke-width="1" class="canarsie"/>
<path d="M 3642.5479 4016.2917 3630.3625 3864.0126 3847.8534 3661.6955 4091.8882 3963.1561 3955.9279 4159.0319 3642.5479 4016.2917 Z" fill="none" stroke="#E71E24" opacity="0.6" stroke-width="1" class="canarsie"/>
<path d="M 3777.4937 3696.8368 3914.6947 3784.3439 4056.6241 3923.5169 3891.0246 4134.1857 3651.8082 4009.8217 3777.4937 3696.8368 Z" fill="none" stroke="#E71E24" opacity="0.6" stroke-width="1" class="canarsie"/>
<path d="M 3642.5342 4001.5231 3933.2147 3777.8615 4097.458 3970.5322 3904.9568 4160.0179 3642.5342 4001.5231 Z" fill="none" stroke="#E71E24" opacity="0.6" stroke-width="1" class="canarsie"/>
<path d="M 3894.7547 4153.5678 3643.943 4021.8287 3635.9545 3900.0012 3705.3577 3814.1059 3781.2584 3752.1985 3830.4453 3831.5076 3872.9278 3717.0302 4087.2604 3966.8545 3894.7547 4153.5678 Z" fill="none" stroke="#E71E24" opacity="0.6" stroke-width="1" class="canarsie"/>
<path d="M 3668.4812 4003.3447 3663.8507 4006.1182 3928.5805 3776.0216 4071.4653 3935.4951 3884.5483 4143.425 3673.1178 4007.0324 3668.4812 4003.3447 Z" fill="none" stroke="#E71E24" opacity="0.6" stroke-width="1" class="canarsie"/>
<path d="M 3667.8543 3994.0799 3926.0263 3772.8973 4093.0297 3948.6284 3896.6441 4134.7578 3668.7213 4011.326 3667.8543 3994.0799 Z" fill="none" stroke="#E71E24" opacity="0.6" stroke-width="1" class="canarsie"/>
<path d="M 3635.9154 3857.5473 3842.3346 3695.8424 4072.3867 3931.8019 3891.0257 4135.1089 3891.0323 4140.6478 3671.253 3995.0348 3642.5514 4019.9839 3635.9154 3857.5473 Z" fill="none" stroke="#E71E24" opacity="0.6" stroke-width="1" class="canarsie"/>
<path d="M 3625.7879 3767.9683 3696.8456 3705.4546 3714.4455 3705.2064 3854.528 3661.1458 4045.898 3920.2352 3985.3413 4026.7021 3839.2931 4097.5143 3671.2429 3996.2759 3640.8687 3966.3066 3625.7879 3767.9683 Z" fill="none" stroke="#E71E24" opacity="0.6" stroke-width="1" class="canarsie"/>
<path d="M 3827.73 4101.3562 3643.7532 4017.0308 3613.1633 3699.6974 3842.5531 3664.8554 4054.1143 3923.0099 3836.0054 4108.6461 3874.9703 4145.0593 4069.9294 3962.6319 4063.3876 3922.03 3827.73 4101.3562 Z" fill="none" stroke="#E71E24" opacity="0.6" stroke-width="1" class="canarsie"/>
<path d="M 3566.785 4276.6931 3519.0645 3712.7647 4018.2148 3605.6633 4172.9133 3929.3502 3600.6664 4333.4483 3566.785 4276.6931 Z" fill="none" stroke="#E71E24" opacity="0.6" stroke-width="1" class="canarsie"/>
<path d="M 3774.9305 3898.9401 3555.3941 3955.4495 3597.8155 3727.4628 3859.801 3580.4874 3991.5045 3721.4977 3774.9305 3898.9401 Z" fill="none" stroke="#E71E24" opacity="0.6" stroke-width="1" class="canarsie"/>
<path d="M 4066.8541 3951.192 3874.0368 4133.6962 3610.6539 3923.5112 3870.1035 3678.2786 4066.8541 3951.192 Z" fill="none" stroke="#E71E24" opacity="0.6" stroke-width="1" class="canarsie"/>
<path d="M 3960.2485 3754.7816 3968.7483 3959.411 3975.2116 3941.6353 3952.1022 3963.8421 3943.0431 3943.7785 3894.7616 3940.2881 3892.8306 3931.923 3891.1914 3917.0229 3916.5809 3861.6308 3985.821 3783.4323 4039.1681 3922.4532 4019.1745 3934.9576 3975.5418 3977.401 3931.917 4012.3589 3901.128 4038.561 3882.661 4054.4366 3869.4884 4069.672 3854.3211 4078.0385 3844.7376 4084.3853 3828.9799 4094.9253 3823.1794 4087.316 3825.6903 4075.9283 3825.3877 4074.4653 3818.4217 4060.1651 3819.2353 4049.564 3801.1637 4047.9686 3792.8343 4039.3781 3783.0831 4034.7521 3770.3971 4035.9195 3755.0036 4027.4154 3738.4975 4016.0942 3723.6631 4007.802 3712.3426 4002.7863 3703.1467 4001.1802 3693.1702 3985.4986 3683.1311 3976.7578 3678.0488 3968.4582 3662.9897 3966.1652 3650.24 3956.255 3642.5832 3942.6482 3645.3598 3939.4152 3652.7655 3932.2553 3662.0266 3927.6317 3665.1129 3925.3897 3673.215 3920.075 3678.3042 3913.148 3687.1 3910.0695 3690.1049 3903.606 3698.8988 3895.5217 3705.3969 3894.3794 3712.1079 3888.1429 3723.1832 3883.2225 3729.8946 3877.6782 3734.9804 3867.9825 3753.9254 3859.8788 3763.8743 3849.7166 3775.78 3840.2931 3785.958 3828.2849 3803.5541 3822.4978 3812.8476 3814.8906 3816.0816 3807.2736 3830.4429 3795.6422 3834.2744 3790.8161 3846.3071 3781.5742 3852.5323 3782.1447 3858.0797 3772.6795 3863.63 3765.752 3870.1093 3761.1305 3872.6509 3756.0521 3880.9809 3749.8135 3886.0671 3742.4252 3894.0869 3743.2026 3898.4607 3752.0768 3908.194 3757.3712 3913.7638 3759.2707 3918.0238 3770.9604 3925.4856 3775.8161 3927.1003 3770.508 3936.1932 3757.193 3945.9648 3757.2115 3951.9805 3752.59 3967.3078 3762.8261 3967.7504 3766.4787 3972.62 3771.3172 3966.1157 3755.8686 3960.2485 3754.7816 Z" fill="none" stroke="#E71E24" opacity="0.6" stroke-width="1" class="canarsie"/>
<path d="M 3827.7628 3711.5455 3922.3835 3821.9402 4029.3906 3997.8546 3832.6109 4108.6361 3780.2621 3902.8569 3703.0043 3776.5029 3827.7628 3711.5455 Z" fill="none" stroke="#E71E24" opacity="0.6" stroke-width="1" class="canarsie"/>
<path d="M 3840.9309 4088.1665 3670.3311 3996.9611 3646.3715 4010.5819 3634.8698 3856.9087 3851.4175 3666.3215 4046.2734 3914.3181 4087.6319 3966.099 3931.2439 4131.5355 3840.9309 4088.1665 Z" fill="none" stroke="#E71E24" opacity="0.6" stroke-width="1" class="canarsie"/>
<path d="M 3272.691 3769.2185 3511.517 3539.3093 3754.4661 3821.4386 3647.1062 3935.9859 3268.9879 3773.8345 3272.691 3769.2185 Z" fill="none" stroke="#E71E24" opacity="0.6" stroke-width="1" class="canarsie"/>
<path d="M 3674.947 3982.109 3853.6341 3855.476 3926.7458 3790.789 4051.0674 3925.3704 3833.5425 4113.0199 3674.947 3982.109 Z" fill="none" stroke="#E71E24" opacity="0.6" stroke-width="1" class="canarsie"/>
<path d="M 3656.3423 3980.4865 3869.2496 3735.5701 4090.1361 3954.6393 3897.8173 4147.1517 3771.6208 4086.1122 3663.1964 4012.8099 3649.2754 3989.7473 3656.3423 3980.4865 Z" fill="none" stroke="#E71E24" opacity="0.6" stroke-width="1" class="canarsie"/>
<path d="M 4090.0376 3965.0046 3893.8191 4146.1835 3584.1097 3946.1952 3852.5209 3693.0625 3920.2373 3771.4177 4090.0376 3965.0046 Z" fill="none" stroke="#E71E24" opacity="0.6" stroke-width="1" class="canarsie"/>
<path d="M 3644.2897 3896.3018 3636.7926 3804.0203 3716.3857 3725.5055 3786.7727 3711.5907 3833.0819 3705.0803 3911.8103 3697.6062 3955.3587 3706.7798 3996.1158 3705.8049 3947.1279 3791.6865 4025.998 3885.7178 4059.4025 3922.5902 4004.8917 4040.8088 3891.018 4128.6468 3831.6797 4104.7138 3781.6184 4087.2296 3740.8104 4054.9641 3700.9492 4040.2352 3671.2743 4017.1876 3654.5889 4010.7422 3645.3141 4001.5205 3644.2897 3896.3018 Z" fill="none" stroke="#E71E24" opacity="0.6" stroke-width="1" class="canarsie"/>
<path d="M 3669.1176 3699.7148 3908.9901 3663.4689 4113.9759 3857.9092 3895.6395 4118.4866 3675.8941 4003.3376 3644.1327 3727.4209 3669.1176 3699.7148 Z" fill="none" stroke="#E71E24" opacity="0.6" stroke-width="1" class="canarsie"/>
<path d="M 3637.035 3941.4177 3637.6139 3941.1864 3638.1932 3941.4166 3637.4975 3940.6097 3636.9179 3940.0333 3802.1658 3810.6594 3820.2554 3832.4419 3906.6723 3757.7075 4042.0218 3916.6146 4045.1515 3918.5716 3920.0812 4022.9164 3835.2645 4099.171 3669.1695 3996.4213 3683.9821 3982.9079 3672.8495 3968.8428 3644.4409 3934.3732 3667.0519 3962.0413 3649.2268 3974.4032 3638.5608 3963.2218 3637.035 3941.4177 Z" fill="none" stroke="#E71E24" opacity="0.6" stroke-width="1" class="canarsie"/>
<path d="M 3708.297 3974.6923 3992.9186 3740.4126 3882.679 4130.0414 4088.5134 3869.02 3708.297 3974.6923 Z" fill="none" stroke="#E71E24" opacity="0.6" stroke-width="1" class="canarsie"/>
<path d="M 3832.5929 4092.7122 3638.8107 3983.0661 3915.6009 3767.7322 4048.2903 3927.2201 3832.5929 4092.7122 Z" fill="none" stroke="#E71E24" opacity="0.6" stroke-width="1" class="canarsie"/>
<path d="M 3701.0889 3743.4606 3735.701 3717.0882 3738.9353 3716.1133 3754.6682 3702.025 4045.9744 3917.0961 3960.8015 3995.1479 3979.3637 4021.5972 3983.3108 4028.5151 3972.6134 4038.1295 3964.9844 4050.6007 3945.5052 4035.1638 3921.9363 4022.1593 3850.0629 4085.6808 3825.4861 4068.4004 3707.3283 3927.9435 3685.7889 3904.741 3631.5187 3838.2395 3627.9973 3806.7634 3735.2812 3715.7871 3701.0889 3743.4606 Z" fill="none" stroke="#E71E24" opacity="0.6" stroke-width="1" class="canarsie"/>
<path d="M 3942.2103 3817.3562 3925.9629 3780.2113 3938.4923 3792.4571 4050.5697 3913.2637 3957.2682 4005.31 3885.3351 4143.5813 3662.6046 4005.0778 3924.9377 3782.213 3942.2103 3817.3562 Z" fill="none" stroke="#E71E24" opacity="0.6" stroke-width="1" class="canarsie"/>
<path d="M 3655.3179 4016.3655 3640.3501 3863.1663 3853.2115 3664.5432 3945.0228 3752.0941 4095.0341 3960.6835 3896.1845 4147.9938 3655.3179 4016.3655 Z" fill="none" stroke="#E71E24" opacity="0.6" stroke-width="1" class="canarsie"/>
<path d="M 3645.2145 3894.455 4097.3072 3863.4702 3663.1554 4249.8314 3645.2145 3894.455 Z" fill="none" stroke="#E71E24" opacity="0.6" stroke-width="1" class="canarsie"/>
<path d="M 3629.7717 3724.4351 3653.3723 3702.0366 3713.1225 3704.5161 3770.3155 3697.5365 3780.0985 3750.3542 3827.0665 3710.1622 3903.1316 3798.431 3924.647 3779.0256 4052.6681 3910.1396 3997.3727 3959.5919 4029.1593 3998.0856 3952.1166 4075.9538 3899.2551 4042.3259 3836.5392 4099.6311 3669.1717 3998.7289 3643.9389 4017.4442 3620.977 3730.6718 3629.7717 3724.4351 Z" fill="none" stroke="#E71E24" opacity="0.6" stroke-width="1" class="canarsie"/>
<path d="M 4000.2548 4038.0456 3994.6997 4041.7451 3596.4858 4322.8335 3596.4874 4324.6802 3327.4958 4018.3775 3305.0923 3730.4435 3838.5613 3635.8708 4076.1018 3938.2575 4000.2548 4038.0456 Z" fill="none" stroke="#E71E24" opacity="0.6" stroke-width="1" class="canarsie"/>
<path d="M 4090.9642 3965.0033 3900.3086 4148.0221 3646.2381 3998.7506 3632.1342 3775.417 3662.6868 3756.0096 3847.8724 3678.3043 4090.9642 3965.0033 Z" fill="none" stroke="#E71E24" opacity="0.6" stroke-width="1" class="canarsie"/>
<path d="M 3638.8406 4015.3721 3647.1432 3975.6743 3638.7553 3923.0722 3634.9889 3857.5481 3637.7428 3829.8593 3627.5174 3792.0319 3621.9372 3768.0438 3622.3774 3742.6666 3646.4606 3740.3375 3688.139 3732.4542 3705.7309 3723.6706 3713.6034 3722.2786 3734.6703 3715.1058 3752.2668 3711.3966 3767.7801 3708.8428 3785.3733 3702.3647 3830.7546 3694.9328 3876.587 3677.8096 3893.2994 3710.5469 3918.3609 3752.0413 3932.7384 3767.2498 3940.1919 3801.3849 3964.7841 3834.5768 3981.9536 3858.0883 3999.1033 3865.68 4006.9996 3881.8205 4043.6476 3919.8427 3893.8136 4141.5677 3638.8406 4015.3721 Z" fill="none" stroke="#E71E24" opacity="0.6" stroke-width="1" class="canarsie"/>
<path d="M 4045.3844 3919.4943 4047.595 3920.2845 3999.3662 3960.4913 4031.9439 3999.3908 4007.2821 4020.8124 4018.0234 4065.112 3985.77 4028.0905 3980.233 4045.8667 3964.5986 4048.1943 3958.355 4057.2022 3950.3933 4063.8765 3932.9058 4066.6675 3930.8125 4059.9777 3944.5641 4033.7684 3923.933 4022.948 3834.886 4108.9575 3672.6439 3996.9582 3646.2554 4018.3284 3631.3062 3840.6208 3651.4998 3858.5513 3680.7772 3835.4514 3698.5289 3851.0776 3703.847 3841.8436 3706.2484 3811.1561 3827.3704 3712.8106 3848.3278 3736.0689 3868.2772 3757.2985 3890.1892 3738.9316 3907.386 3759.6824 3924.3915 3746.0505 3939.9306 3764.1412 3926.748 3779.4659 4045.3844 3919.4943 Z" fill="none" stroke="#E71E24" opacity="0.6" stroke-width="1" class="canarsie"/>
<path d="M 3630.1052 3723.474 3652.7832 3704.998 3696.1853 3708.0322 3712.3094 3708.9571 3723.9009 3721.1719 3741.0915 3743.8619 3761.4886 3761.9331 3781.477 3748.3345 3826.4021 3710.7747 3864.1654 3754.7736 3891.875 3735.868 3906.9608 3755.2925 3925.745 3775.802 4094.6615 3961.5468 4033.7707 4071.1388 3891.7449 4155.4178 3648.5798 4017.2912 3644.6097 4016.5662 3620.8418 3731.4431 3630.1052 3723.474 Z" fill="none" stroke="#E71E24" opacity="0.6" stroke-width="1" class="canarsie"/>
<path d="M 3566.0437 3917.8859 3837.2031 3681.7831 3890.4957 3720.1371 4093.9261 3960.183 3896.919 4149.5854 3566.0437 3917.8859 Z" fill="none" stroke="#E71E24" opacity="0.6" stroke-width="1" class="canarsie"/>
<path d="M 4071.0084 3940.1105 4049.2914 3982.1364 4004.0246 4037.7919 3958.2038 4076.1589 3911.3883 4113.852 3888.9383 4133.265 3832.6106 4108.4053 3819.5107 4099.4195 3804.5595 4092.1664 3791.462 4084.9112 3769.4393 4072.0114 3742.1994 4054.0396 3720.1793 4042.2929 3693.0618 4029.1662 3677.065 4016.4898 3645.3291 4017.6737 3643.4429 3982.1388 3638.5829 3903.439 3632.1622 3805.8702 3622.8059 3704.3716 3922.8786 3658.8385 4014.7032 3751.9189 4090.7792 3833.0243 4103.8357 3893.9171 4071.0084 3940.1105 Z" fill="none" stroke="#E71E24" opacity="0.6" stroke-width="1" class="canarsie"/></svg>