<?xml version="1.0"?><svg xmlns="http://www.w3.org/2000/svg" version="1.2" baseProfile="tiny" width="6000" height="5918" viewBox="0 0 6000 5918" stroke-linecap="round" stroke-linejoin="round"><path d="M 1456.5448 4080.4079 1469.5046 4090.5799 1455.622 4077.6373 1648.1777 4243.1345 1348.7349 4289.8211 1349.0212 4098.7153 1456.5448 4080.4079 Z" fill="none" stroke="#12852D" opacity="0.6" stroke-width="1" class="castleton_corners"/>
<path d="M 1340.2427 4389.5312 1339.3734 4351.2092 1332.0403 4296.7208 1349.1922 4293.9767 1347.4415 4225.1896 1455.4353 4212.4199 1526.798 4214.3625 1554.9874 4275.7963 1535.3993 4370.8754 1457.0578 4379.5425 1340.2427 4389.5312 Z" fill="none" stroke="#12852D" opacity="0.6" stroke-width="1" class="castleton_corners"/>
<path d="M 1353.8416 4388.3198 1331.3496 4341.5165 1342.5257 4306.4463 1379.6346 4284.3418 1452.9676 4291.6445 1465.8401 4367.377 1454.5527 4485.5621 1400.763 4498.4152 1352.5869 4476.1804 1347.0854 4435.5394 1353.8416 4388.3198 Z" fill="none" stroke="#12852D" opacity="0.6" stroke-width="1" class="castleton_corners"/>
<path d="M 1464.6054 4283.7552 1392.7605 4291.271 1383.8429 4209.3175 1456.8377 4203.6512 1464.6054 4283.7552 Z" fill="none" stroke="#12852D" opacity="0.6" stroke-width="1" class="castleton_corners"/>
<path d="M 1503.5397 4280.1148 1392.066 4290.8083 1379.2535 4178.8446 1473.1111 4163.9756 1503.5397 4280.1148 Z" fill="none" stroke="#12852D" opacity="0.6" stroke-width="1" class="castleton_corners"/>
<path d="M 1347.3994 4098.7128 1412.5152 4088.6539 1438.9335 4083.3834 1436.8297 4096.7657 1443.527 4112.0067 1448.3707 4127.4762 1450.8965 4143.8658 1461.0739 4156.112 1470.3314 4163.5102 1473.5732 4164.8994 1480.0296 4187.7574 1489.0437 4204.1568 1490.8858 4212.6992 1519.3919 4207.8902 1524.0293 4205.3574 1530.5041 4215.2906 1532.3163 4247.0298 1532.4141 4260.8791 1533.6755 4270.9215 1534.1338 4274.8461 1540.853 4275.4319 1542.127 4275.7798 1542.9243 4286.3988 1546.0451 4292.1735 1535.7304 4294.4684 1532.2494 4298.388 1528.9974 4304.3853 1530.3672 4320.0838 1545.8822 4328.6448 1550.2724 4338.5765 1551.1771 4355.8908 1542.8091 4375.502 1458.5606 4382.084 1341.3972 4392.3032 1336.1598 4330.8904 1336.4435 4296.4967 1353.3636 4293.7521 1337.8275 4147.1638 1337.8533 4130.0853 1347.3994 4098.7128 Z" fill="none" stroke="#12852D" opacity="0.6" stroke-width="1" class="castleton_corners"/>
<path d="M 1458.3957 4082.2566 1772.1332 4474.117 1026.6561 4532.1458 1066.3687 4101.9422 1458.3957 4082.2566 Z" fill="none" stroke="#12852D" opacity="0.6" stroke-width="1" class="castleton_corners"/>
<path d="M 1449.153 4334.5197 1424.7458 4180.1602 1474.6787 4167.0787 1533.4223 4220.5144 1565.7289 4324.8882 1449.153 4334.5197 Z" fill="none" stroke="#12852D" opacity="0.6" stroke-width="1" class="castleton_corners"/>
<path d="M 1417.1414 4093.7377 1457.4779 4075.7936 1642.621 4239.4349 1442.3475 4292.7266 1417.1414 4093.7377 Z" fill="none" stroke="#12852D" opacity="0.6" stroke-width="1" class="castleton_corners"/>
<path d="M 1344.2593 4184.1011 1337.7697 4185.4762 1521.5891 4122.8442 1621.2536 4280.7261 1362.0897 4347.3189 1344.2593 4184.1011 Z" fill="none" stroke="#12852D" opacity="0.6" stroke-width="1" class="castleton_corners"/>
<path d="M 1432.3195 4173.6125 1474.9565 4169.9789 1495.2885 4212.4743 1530.5101 4210.6745 1539.7077 4265.1588 1508.1744 4279.8901 1451.7465 4289.1914 1434.1433 4283.627 1428.6577 4230.0691 1432.3195 4173.6125 Z" fill="none" stroke="#12852D" opacity="0.6" stroke-width="1" class="castleton_corners"/>
<path d="M 1443.0692 4439.5458 1250.206 4463.2668 1214.3579 4275.7607 1452.6894 4187.4891 1523.0131 4273.4466 1511.6727 4437.7923 1443.0692 4439.5458 Z" fill="none" stroke="#12852D" opacity="0.6" stroke-width="1" class="castleton_corners"/>
<path d="M 1504.9337 4277.3467 1501.3406 4278.3806 1492.997 4279.639 1477.0046 4282.2718 1466.1111 4284.1035 1443.1706 4284.0717 1440.1911 4260.639 1432.9284 4234.7772 1432.7382 4205.3486 1431.38 4182.6124 1430.2342 4173.6096 1471.8376 4163.3969 1477.725 4178.6376 1485.116 4195.8425 1491.0063 4209.2372 1492.5112 4210.1625 1495.3949 4219.5141 1497.8252 4221.4793 1496.4263 4227.9401 1495.0326 4230.4772 1509.8721 4222.8802 1498.7394 4230.9438 1505.4569 4232.4531 1497.5717 4237.7513 1497.7999 4240.4059 1500.3428 4244.7949 1500.3382 4248.2571 1501.9534 4253.3373 1505.1916 4257.7272 1504.4906 4262.1118 1504.482 4268.5748 1505.6338 4273.6545 1504.9337 4277.3467 Z" fill="none" stroke="#12852D" opacity="0.6" stroke-width="1" class="castleton_corners"/>
<path d="M 1650.9583 4243.1378 1682.8781 4292.5708 1704.1765 4310.5997 1711.1119 4325.3809 1633.7116 4326.6765 1547.0578 4315.4887 1510.4414 4317.7492 1466.3986 4327.8465 1427.4479 4341.6426 1381.0918 4347.5777 1339.3651 4356.7495 1294.4003 4361.2975 1261.9565 4361.2465 1239.2556 4355.2082 1171.6311 4329.2425 1200.3813 4320.0571 1259.7104 4316.46 1319.0715 4291.6228 1366.346 4289.8473 1413.6268 4283.4529 1441.8957 4284.4162 1429.4733 4220.2311 1431.8327 4190.2295 1427.2444 4157.9111 1420.3219 4138.053 1418.96 4118.2033 1415.7527 4092.8126 1415.2959 4088.1963 1439.8612 4082.6924 1454.23 4079.02 1520.8793 4134.0365 1547.7305 4152.9964 1586.6142 4185.3574 1617.6433 4200.6287 1638.0077 4221.8876 1650.9583 4243.1378 Z" fill="none" stroke="#12852D" opacity="0.6" stroke-width="1" class="castleton_corners"/>
<path d="M 1468.313 4283.7603 1464.1378 4286.7553 1362.1205 4326.5434 1345.3901 4202.5672 1431.1216 4201.538 1468.313 4283.7603 Z" fill="none" stroke="#12852D" opacity="0.6" stroke-width="1" class="castleton_corners"/>
<path d="M 1298.621 4329.4479 1290.4952 4487.8029 1262.7236 4461.9015 1240.9786 4436.4714 1208.147 4388.8613 1215.1766 4341.7802 1220.794 4307.6256 1265.3839 4245.8363 1337.7676 4186.861 1377.6556 4162.4556 1426.7823 4156.9873 1464.3144 4158.4244 1480.951 4191.6823 1517.531 4213.4271 1524.8995 4248.5205 1543.3829 4290.0926 1532.2181 4322.3946 1537.7485 4346.4089 1533.0259 4413.8109 1529.2418 4471.9839 1410.5248 4507.838 1345.6591 4486.5021 1340.1258 4467.1004 1298.621 4329.4479 Z" fill="none" stroke="#12852D" opacity="0.6" stroke-width="1" class="castleton_corners"/>
<path d="M 1335.2845 4296.7257 1438.6451 4289.0282 1452.9639 4323.6729 1341.235 4346.1335 1335.2845 4296.7257 Z" fill="none" stroke="#12852D" opacity="0.6" stroke-width="1" class="castleton_corners"/>
<path d="M 1430.2989 4209.8459 1486.3848 4199.9987 1502.0076 4299.5022 1423.0891 4310.4734 1416.8073 4246.8722 1430.2989 4209.8459 Z" fill="none" stroke="#12852D" opacity="0.6" stroke-width="1" class="castleton_corners"/>
<path d="M 1548.0317 4279.0189 1464.5118 4351.8513 1432.313 4178.2285 1494.461 4138.6172 1548.0317 4279.0189 Z" fill="none" stroke="#12852D" opacity="0.6" stroke-width="1" class="castleton_corners"/>
<path d="M 1441.8931 4286.2628 1425.7549 4228.0735 1431.3627 4194.845 1418.4585 4144.9741 1414.8332 4087.7341 1453.7699 4076.7116 1491.7081 4118.3041 1540.7899 4145.1405 1556.9839 4164.0865 1621.3477 4202.9412 1645.8644 4239.9003 1618.5035 4255.5631 1537.8407 4275.3126 1441.8931 4286.2628 Z" fill="none" stroke="#12852D" opacity="0.6" stroke-width="1" class="castleton_corners"/>
<path d="M 1506.0471 4311.28 1426.7615 4335.4089 1418.4861 4288.3072 1411.4315 4198.2787 1433.8991 4203.6191 1524.2562 4209.0506 1506.0471 4311.28 Z" fill="none" stroke="#12852D" opacity="0.6" stroke-width="1" class="castleton_corners"/>
<path d="M 1399.7294 4413.1153 1401.988 4411.0381 1405.8119 4411.0436 1407.8967 4411.7392 1408.2425 4413.0094 1408.5875 4414.8567 1408.4685 4417.0497 1408.58 4420.0511 1409.0394 4422.9375 1412.7391 4428.8297 1410.4205 4429.519 1407.9881 4428.8229 1405.2173 4429.2834 1402.4356 4429.7411 1401.9749 4427.7781 1401.7969 4425.8156 1401.568 4423.8529 1401.1073 4421.89 1400.7628 4419.6963 1400.3025 4417.5025 1399.379 4415.0771 1400.884 4416.0027 1399.7294 4413.1153 Z" fill="none" stroke="#12852D" opacity="0.6" stroke-width="1" class="castleton_corners"/>
<path d="M 1335.2838 4297.1874 1476.8858 4284.4645 1482.4073 4313.7874 1419.1067 4340.7074 1341.2211 4355.3672 1335.2838 4297.1874 Z" fill="none" stroke="#12852D" opacity="0.6" stroke-width="1" class="castleton_corners"/>
<path d="M 1356.8064 4497.1031 1333.0159 4303.1486 1356.9237 4209.7948 1444.9893 4196.9967 1500.5568 4227.5394 1544.224 4303.4467 1571.0402 4354.2651 1583.9485 4409.6853 1581.1281 4441.0788 1591.4915 4538.2434 1356.8064 4497.1031 Z" fill="none" stroke="#12852D" opacity="0.6" stroke-width="1" class="castleton_corners"/>
<path d="M 1281.328 4126.3057 1326.7816 4097.7586 1427.8031 4090.5219 1491.58 4213.3925 1527.7272 4212.5173 1530.4281 4273.4563 1503.5511 4271.5743 1504.4324 4305.7379 1416.3325 4336.0866 1181.7996 4345.88 1199.6042 4229.5727 1209.0579 4116.958 1281.328 4126.3057 Z" fill="none" stroke="#12852D" opacity="0.6" stroke-width="1" class="castleton_corners"/>
<path d="M 1356.1364 4299.0653 1338.6895 4190.0936 1347.1747 4094.0969 1434.2978 4084.9924 1474.9628 4165.3629 1494.3617 4212.473 1526.8004 4212.5161 1541.5542 4270.7009 1356.1364 4299.0653 Z" fill="none" stroke="#12852D" opacity="0.6" stroke-width="1" class="castleton_corners"/>
<path d="M 1649.11 4238.5193 1618.4671 4285.5701 1399.7182 4287.1262 1328.3194 4305.4867 1308.2361 4105.1152 1458.4084 4073.0256 1649.11 4238.5193 Z" fill="none" stroke="#12852D" opacity="0.6" stroke-width="1" class="castleton_corners"/>
<path d="M 1523.9387 4274.3711 1443.5155 4286.0343 1433.477 4174.3065 1471.4877 4165.1274 1523.9387 4274.3711 Z" fill="none" stroke="#12852D" opacity="0.6" stroke-width="1" class="castleton_corners"/>
<path d="M 1375.18 4270.471 1447.0219 4264.1109 1469.0162 4446.9694 1368.8813 4456.0616 1355.8956 4460.6597 1347.8025 4293.513 1375.18 4270.471 Z" fill="none" stroke="#12852D" opacity="0.6" stroke-width="1" class="castleton_corners"/>
<path d="M 1438.0023 4086.613 1436.1385 4093.9953 1442.831 4112.6981 1450.4418 4137.6338 1455.9888 4147.3348 1470.5609 4165.1261 1473.112 4163.2832 1488.1116 4208.0793 1492.7396 4212.5863 1525.7662 4206.0521 1527.8453 4210.7864 1534.5937 4277.6166 1540.3885 4276.2392 1548.0064 4298.6392 1528.5339 4304.3847 1529.4328 4325.8535 1540.7892 4324.714 1547.7283 4334.649 1553.5019 4350.1227 1544.2023 4373.4261 1458.6775 4381.3916 1342.0935 4391.6116 1336.4013 4324.4274 1337.1383 4296.7285 1354.2915 4293.061 1338.9867 4146.704 1338.3177 4129.3936 1348.0938 4099.1754 1414.3689 4088.4258 1439.1652 4083.3838 1438.0023 4086.613 Z" fill="none" stroke="#12852D" opacity="0.6" stroke-width="1" class="castleton_corners"/></svg>