<?xml version="1.0"?><svg xmlns="http://www.w3.org/2000/svg" version="1.2" baseProfile="tiny" width="6000" height="5918" viewBox="0 0 6000 5918" stroke-linecap="round" stroke-linejoin="round"><path d="M 4417.4204 1491.3035 4357.2572 1436.1724 4310.1342 1439.933 4283.0715 1276.1329 4461.3377 1245.4567 4486.4664 1345.7361 4417.4204 1491.3035 Z" fill="none" stroke="#012394" opacity="0.6" stroke-width="1" class="castle_hill"/>
<path d="M 4363.7986 1342.7303 4315.7151 1040.4884 4345.7237 1033.3074 4395.105 1145.4892 4408.5925 1198.3826 4422.8226 1278.6588 4434.4623 1329.7216 4442.1921 1389.7688 4424.2698 1444.8022 4419.0005 1470.1271 4404.4338 1463.4783 4388.6853 1441.1819 4372.0369 1432.6953 4365.544 1418.438 4338.7138 1399.3823 4335.8654 1353.5927 4326.1148 1324.3845 4322.6134 1302.3 4321.9022 1291.2562 4317.0253 1275.3873 4320.0121 1265.7183 4333.6405 1265.9259 4347.2631 1262.6818 4363.7986 1342.7303 Z" fill="none" stroke="#012394" opacity="0.6" stroke-width="1" class="castle_hill"/>
<path d="M 4278.9112 1274.5289 4318.8603 1267.561 4381.8986 1255.7202 4438.4701 1245.0373 4447.0187 1246.4027 4460.1799 1243.8481 4466.2144 1259.9437 4482.4702 1307.7751 4491.2918 1331.6903 4486.2552 1356.5519 4474.7157 1362.556 4466.645 1370.6248 4464.3503 1379.1434 4455.8441 1402.1713 4442.2755 1436.7155 4431.2437 1469.185 4425.7037 1471.9565 4422.4834 1480.0173 4414.4116 1488.3168 4407.4681 1481.1943 4402.1263 1465.0933 4395.8714 1455.208 4375.2901 1443.7364 4367.4184 1433.8539 4362.2875 1405.3261 4307.3216 1415.3131 4294.2707 1345.1468 4285.873 1294.5364 4278.9112 1274.5289 Z" fill="none" stroke="#012394" opacity="0.6" stroke-width="1" class="castle_hill"/>
<path d="M 4307.3243 1416.9241 4276.6025 1275.2229 4449.3236 1243.6375 4480.9374 1354.0303 4420.1815 1484.8544 4307.3243 1416.9241 Z" fill="none" stroke="#012394" opacity="0.6" stroke-width="1" class="castle_hill"/>
<path d="M 4354.9327 1153.6101 4429.4133 1479.3146 4300.8587 1418.7757 4257.9575 1170.3337 4354.9327 1153.6101 Z" fill="none" stroke="#012394" opacity="0.6" stroke-width="1" class="castle_hill"/>
<path d="M 4444.0176 1377.1087 4434.862 1424.9917 4427.5828 1489.4444 4348.0224 1439.8702 4396.289 1563.1499 4303.8336 1543.0506 4202.0871 1487.9736 4199.5863 1059.0757 4419.4049 1042.1526 4533.9107 1023.5416 4526.8787 1214.965 4501.176 1305.2097 4444.0176 1377.1087 Z" fill="none" stroke="#012394" opacity="0.6" stroke-width="1" class="castle_hill"/>
<path d="M 4309.1558 1406.7953 4244.1057 1174.0367 4408.4582 1121.3093 4454.0799 1320.0221 4309.1558 1406.7953 Z" fill="none" stroke="#012394" opacity="0.6" stroke-width="1" class="castle_hill"/>
<path d="M 4452.1974 1300.6965 4287.7774 1329.5096 4232.9867 1152.8875 4309.6473 1142.6422 4420.4562 1114.8467 4452.1974 1300.6965 Z" fill="none" stroke="#012394" opacity="0.6" stroke-width="1" class="castle_hill"/>
<path d="M 4347.9436 1392.9233 4308.2513 1418.7636 4298.7621 1265.9832 4304.7661 1265.0531 4325.5447 1259.0365 4346.7981 1260.8418 4365.7511 1268.1729 4377.3215 1280.5785 4384.747 1300.3545 4392.1959 1333.4772 4395.0005 1352.3418 4393.1652 1359.7087 4383.0215 1371.6924 4370.0975 1379.0784 4381.1639 1366.1727 4347.9436 1392.9233 Z" fill="none" stroke="#012394" opacity="0.6" stroke-width="1" class="castle_hill"/>
<path d="M 4364.1615 1148.0729 4431.5888 1141.5143 4447.4035 1203.1458 4471.7022 1356.8085 4403.5101 1463.7101 4319.2599 1369.9586 4277.4216 1209.876 4364.1615 1148.0729 Z" fill="none" stroke="#012394" opacity="0.6" stroke-width="1" class="castle_hill"/>
<path d="M 4409.9934 1471.984 4420.8524 1472.1951 4421.5447 1471.7336 4367.8537 1146.2261 4429.7363 1138.7568 4466.2179 1389.9559 4409.9934 1471.984 Z" fill="none" stroke="#012394" opacity="0.6" stroke-width="1" class="castle_hill"/>
<path d="M 4356.2943 1413.1606 4341.5014 1408.5828 4332.2285 1389.2675 4303.5454 1366.3025 4291.457 1319.3788 4312.6709 1296.3336 4341.2768 1274.1966 4373.6037 1267.6993 4403.1712 1268.5688 4441.0705 1278.6266 4466.0718 1308.9553 4466.1465 1350.3752 4448.6724 1396.431 4433.9607 1437.8809 4411.8353 1468.2985 4391.4774 1452.6841 4372.0444 1437.0679 4352.6212 1426.9748 4356.2943 1413.1606 Z" fill="none" stroke="#012394" opacity="0.6" stroke-width="1" class="castle_hill"/>
<path d="M 4452.1974 1300.6965 4452.2081 1306.6792 4450.8287 1310.3633 4456.8358 1311.0429 4455.2233 1313.577 4451.4181 1317.0354 4446.9166 1318.6542 4441.5023 1326.6026 4437.9081 1318.9003 4390.1917 1242.8208 4353.2849 1272.3357 4284.958 1300.0604 4227.6864 1309.3551 4380.7098 1235.9344 4214.366 1059.0531 4242.0664 1051.6487 4299.3461 1057.0783 4336.2768 1045.9754 4363.9821 1042.2482 4364.0258 1068.0131 4388.0176 1053.2492 4397.2644 1058.7543 4444.2642 1256.0714 4444.7147 1249.628 4446.1243 1262.971 4446.1465 1275.3961 4447.5545 1287.819 4452.1686 1284.5894 4452.1974 1300.6965 Z" fill="none" stroke="#012394" opacity="0.6" stroke-width="1" class="castle_hill"/>
<path d="M 4402.0284 1142.4863 4413.9865 1113.0175 4465.2872 1386.2756 4309.1709 1416.0005 4252.4232 1175.8642 4396.4871 1143.4162 4402.0284 1142.4863 Z" fill="none" stroke="#012394" opacity="0.6" stroke-width="1" class="castle_hill"/>
<path d="M 4225.4422 1053.5149 4402.7525 1027.4591 4492.9294 1342.9629 4400.9452 1583.3968 4332.5268 1568.782 4273.8056 1259.5808 4226.3788 1061.7951 4225.4422 1053.5149 Z" fill="none" stroke="#012394" opacity="0.6" stroke-width="1" class="castle_hill"/>
<path d="M 4421.1008 1482.091 4314.7124 1414.1504 4307.2656 1381.0242 4276.5759 1258.656 4251.5037 1178.6265 4272.7449 1173.9913 4364.1724 1154.5148 4390.9538 1148.9474 4423.2227 1112.0811 4433.4559 1152.5542 4463.1756 1239.9312 4493.8619 1347.5635 4421.1008 1482.091 Z" fill="none" stroke="#012394" opacity="0.6" stroke-width="1" class="castle_hill"/>
<path d="M 4232.2246 1256.8853 4237.4664 1063.6183 4409.2232 1030.2083 4430.6162 1113.9085 4470.7832 1359.5716 4374.0605 1535.5683 4319.3631 1432.5534 4232.2246 1256.8853 Z" fill="none" stroke="#012394" opacity="0.6" stroke-width="1" class="castle_hill"/>
<path d="M 4278.4636 1283.5035 4259.8111 1174.0119 4361.4025 1155.4397 4400.5909 1379.026 4313.7762 1406.7877 4278.4636 1283.5035 Z" fill="none" stroke="#012394" opacity="0.6" stroke-width="1" class="castle_hill"/>
<path d="M 4253.6855 1390.3153 4346.5429 1384.1809 4281.5006 1385.7578 4377.0844 1258.104 4279.1721 1272.9923 4295.5911 1378.1787 4378.555 1261.1451 4394.47 1381.695 4299.8852 1388.4002 4253.6855 1390.3153 Z" fill="none" stroke="#012394" opacity="0.6" stroke-width="1" class="castle_hill"/>
<path d="M 4277.5438 1271.1118 4246.9006 1173.6044 4357.7367 1158.6991 4384.6858 1250.6856 4277.5438 1271.1118 Z" fill="none" stroke="#012394" opacity="0.6" stroke-width="1" class="castle_hill"/>
<path d="M 4403.3375 1364.2935 4382.1384 1395.6269 4405.2127 1379.9385 4387.6844 1396.5378 4383.9866 1395.6237 4403.3375 1364.2935 Z" fill="none" stroke="#012394" opacity="0.6" stroke-width="1" class="castle_hill"/>
<path d="M 4284.5428 1042.3795 4323.36 1055.1986 4349.2212 1053.3151 4371.4376 1080.8833 4390.0109 1137.9058 4408.609 1207.8159 4449.4435 1310.826 4475.4617 1391.7802 4455.2249 1443.3664 4425.7021 1471.0359 4390.5184 1432.4335 4351.6228 1382.7916 4327.5092 1329.4446 4299.6965 1272.4244 4279.3019 1230.1204 4282.8849 1160.1708 4290.1833 1103.1033 4284.5428 1042.3795 Z" fill="none" stroke="#012394" opacity="0.6" stroke-width="1" class="castle_hill"/>
<path d="M 4373.497 1205.1154 4376.2592 1199.5888 4449.6342 1417.6012 4308.286 1439.936 4267.3704 1279.8396 4373.497 1205.1154 Z" fill="none" stroke="#012394" opacity="0.6" stroke-width="1" class="castle_hill"/>
<path d="M 4401.5517 1400.1959 4374.0435 1119.2981 4361.7476 1086.421 4348.067 1053.5471 4344.3547 1043.2014 4343.1947 1039.9828 4344.5806 1040.2105 4349.6553 1036.7514 4354.0409 1035.5938 4348.5022 1037.6735 4347.814 1040.4351 4351.9707 1040.4281 4354.2808 1040.8843 4354.273 1036.2835 4397.8657 1139.2726 4444.0357 1387.2342 4383.5613 1147.8097 4341.8053 1037.6847 4401.5517 1400.1959 Z" fill="none" stroke="#012394" opacity="0.6" stroke-width="1" class="castle_hill"/>
<path d="M 4409.188 1473.8266 4405.4585 1454.8462 4380.5978 1440.2752 4378.9674 1432.5684 4371.0006 1434.6532 4367.8797 1433.3928 4362.7505 1405.9006 4307.5526 1415.3128 4285.5265 1294.537 4255.2417 1205.5397 4242.4811 1168.9776 4385.1799 1148.9573 4428.8185 1142.2094 4466.6185 1355.8972 4433.231 1417.1701 4418.9856 1461.6118 4420.3904 1472.196 4409.188 1473.8266 Z" fill="none" stroke="#012394" opacity="0.6" stroke-width="1" class="castle_hill"/>
<path d="M 4402.2915 1398.9483 4359.7167 1142.9831 4416.956 1121.7187 4418.428 1124.8569 4428.8714 1146.7504 4438.2042 1200.1109 4441.9439 1224.9532 4362.2892 1141.9752 4390.6621 1256.0462 4421.1217 1238.9664 4408.1253 1203.5561 4383.8579 1176.1406 4431.7947 1225.65 4442.0164 1258.7648 4442.941 1251.6169 4402.2915 1398.9483 Z" fill="none" stroke="#012394" opacity="0.6" stroke-width="1" class="castle_hill"/>
<path d="M 4347.9436 1392.9233 4320.9319 1263.1858 4351.4169 1260.3739 4332.7701 1159.1689 4420.5143 1147.9757 4481.8564 1351.2672 4416.4575 1469.211 4347.9436 1392.9233 Z" fill="none" stroke="#012394" opacity="0.6" stroke-width="1" class="castle_hill"/>
<path d="M 4283.5602 1287.5763 4335.1742 1437.9751 4269.1814 1391.1394 4208.3358 1323.4344 4163.9407 1294.0477 4235.3894 1290.8704 4385.2484 1242.0723 4377.7966 1206.6519 4371.1035 1155.8834 4395.1086 1147.5598 4420.9358 1124.9685 4431.557 1123.5694 4437.6351 1164.9706 4446.5034 1190.0642 4458.6371 1247.5103 4419.8464 1255.3571 4400.4648 1267.3559 4398.3676 1335.2467 4390.8677 1272.6711 4312.5322 1394.3021 4303.1926 1333.5658 4283.5602 1287.5763 Z" fill="none" stroke="#012394" opacity="0.6" stroke-width="1" class="castle_hill"/>
<path d="M 4342.2671 1037.6839 4388.8985 1296.6657 4418.7554 1462.0725 4420.6222 1472.6558 4408.8415 1473.8272 4341.502 1408.928 4295.3573 1160.6108 4342.2625 1034.9234 4342.2671 1037.6839 Z" fill="none" stroke="#012394" opacity="0.6" stroke-width="1" class="castle_hill"/>
<path d="M 4418.3413 1489.4606 4410.2522 1487.8637 4403.7571 1472.9154 4394.2534 1454.7505 4376.2166 1445.1156 4370.8908 1437.9904 4340.8064 1407.4334 4324.0278 1319.5556 4476.2021 1290.5287 4493.8433 1337.4385 4489.262 1358.6175 4468.9501 1367.8592 4464.3482 1377.9928 4428.4745 1471.031 4422.0153 1476.5659 4422.0282 1483.9306 4418.3413 1489.4606 Z" fill="none" stroke="#012394" opacity="0.6" stroke-width="1" class="castle_hill"/>
<path d="M 4320.5873 1054.283 4360.2763 1035.8133 4437.6195 1416.7021 4335.062 1426.0836 4313.545 1265.9591 4352.3331 1255.7704 4320.5873 1054.283 Z" fill="none" stroke="#012394" opacity="0.6" stroke-width="1" class="castle_hill"/>
<path d="M 4284.5629 1263.0426 4375.9345 1205.8291 4442.6432 1312.4765 4334.6833 1400.107 4284.5629 1263.0426 Z" fill="none" stroke="#012394" opacity="0.6" stroke-width="1" class="castle_hill"/>
<path d="M 4571.7204 1473.5293 4448.6083 1360.5319 4442.9872 1317.2805 4450.8259 1050.3784 4652.2136 1058.2785 4772.9174 1348.8517 4571.7204 1473.5293 Z" fill="none" stroke="#012394" opacity="0.6" stroke-width="1" class="castle_hill"/>
<path d="M 4453.179 1332.9099 4407.3169 1394.3775 4399.279 1394.084 4291.5242 1416.322 4293.1979 1308.6236 4220.4925 1016.1881 4301.9086 1017.9719 4399.81 1012.2864 4405.3521 1012.2768 4438.7601 1020.1349 4453.6611 1088.2016 4453.179 1332.9099 Z" fill="none" stroke="#012394" opacity="0.6" stroke-width="1" class="castle_hill"/>
<path d="M 4271.9622 1262.3449 4402.4678 1395.5918 4214.019 1434.5622 4338.1197 1043.2118 4225.4379 1050.7544 4271.9622 1262.3449 Z" fill="none" stroke="#012394" opacity="0.6" stroke-width="1" class="castle_hill"/>
<path d="M 4380.9637 1249.2792 4408.9378 1396.501 4374.7554 1401.1625 4318.8217 1103.9768 4352.0729 1101.1608 4380.9637 1249.2792 Z" fill="none" stroke="#012394" opacity="0.6" stroke-width="1" class="castle_hill"/>
<path d="M 4324.9518 1319.5541 4478.0521 1291.6758 4493.3691 1330.7661 4487.1779 1355.8599 4469.413 1368.3186 4413.7197 1489.0084 4352.6371 1436.4103 4324.9518 1319.5541 Z" fill="none" stroke="#012394" opacity="0.6" stroke-width="1" class="castle_hill"/></svg>