<?xml version="1.0"?><svg xmlns="http://www.w3.org/2000/svg" version="1.2" baseProfile="tiny" width="6000" height="5918" viewBox="0 0 6000 5918" stroke-linecap="round" stroke-linejoin="round"><path d="M 2784.9284 2754.8092 2789.5553 2752.5046 2945.0327 2816.0955 2935.7822 2838.4531 2970.722 2853.1968 2973.7363 2882.6979 2765.7266 2922.1349 2719.6826 2872.1174 2785.1598 2756.4224 2784.9284 2754.8092 Z" fill="none" stroke="#012394" opacity="0.5714285714285714" stroke-width="1" class="chinatown"/>
<path d="M 2791.8468 2753.0313 2791.8938 2754.6664 2794.3665 2755.1332 2801.2635 2764.1768 2849.4573 2783.8525 2915.8385 2815.2746 2904.9095 2847.0557 2911.6681 2904.3331 2807.5233 2922.5295 2799.886 2884.0377 2788.4196 2887.4566 2780.3626 2865.106 2740.8755 2839.7651 2791.8468 2753.0313 Z" fill="none" stroke="#012394" opacity="0.5714285714285714" stroke-width="1" class="chinatown"/>
<path d="M 2874.2235 2710.5567 3057.423 2647.8389 3006.5673 2785.1993 2874.2235 2710.5567 Z" fill="none" stroke="#012394" opacity="0.5714285714285714" stroke-width="1" class="chinatown"/>
<path d="M 2860.5846 2809.8851 2882.1024 2819.1015 2869.8436 2851.139 2871.9277 2866.3505 2873.3171 2876.4916 2768.7345 2888.4831 2784.2366 2867.9697 2780.9973 2864.282 2742.1269 2840.5425 2765.2638 2800.4407 2780.5337 2813.5773 2789.7883 2817.4951 2803.6688 2785.9207 2821.2523 2793.7556 2830.2735 2768.6346 2870.2991 2785.4547 2860.5846 2809.8851 Z" fill="none" stroke="#012394" opacity="0.5714285714285714" stroke-width="1" class="chinatown"/>
<path d="M 2860.5846 2809.8851 2843.0053 2859.4388 2790.0209 2865.6647 2780.7659 2863.5906 2742.5896 2841.0034 2732.8724 2833.6279 2776.1374 2771.8632 2831.6637 2798.3642 2860.5846 2809.8851 Z" fill="none" stroke="#012394" opacity="0.5714285714285714" stroke-width="1" class="chinatown"/>
<path d="M 2753.9259 2911.0711 2758.0909 2903.0039 2771.0483 2886.6391 2783.3111 2869.3526 2782.1542 2865.6649 2741.6642 2838.9291 2752.3074 2824.8704 2761.7934 2807.8157 2772.2045 2791.9135 2780.0704 2775.3201 2783.7721 2776.0114 2858.5023 2808.5025 2853.4142 2828.7845 2850.1754 2832.4723 2847.1685 2842.383 2845.3183 2851.6023 2846.7071 2858.0556 2849.024 2893.5501 2852.0341 2916.8295 2848.332 2917.9823 2773.5939 2932.2768 2766.4207 2923.0569 2756.7025 2913.1456 2753.9259 2911.0711 Z" fill="none" stroke="#012394" opacity="0.5714285714285714" stroke-width="1" class="chinatown"/>
<path d="M 2951.9798 2847.6692 2789.3268 2865.4342 2742.821 2840.312 2781.9212 2775.5505 2785.8543 2777.855 2951.9798 2847.6692 Z" fill="none" stroke="#012394" opacity="0.5714285714285714" stroke-width="1" class="chinatown"/>
<path d="M 2766.4206 2808.7376 2857.5805 2846.0697 2794.1854 2855.7539 2747.4485 2835.4721 2766.4206 2808.7376 Z" fill="none" stroke="#012394" opacity="0.5714285714285714" stroke-width="1" class="chinatown"/>
<path d="M 2737.2713 2736.8336 2824.259 2778.3143 2777.0641 2879.7245 2755.7773 2874.6538 2697.0095 2847.9156 2698.4012 2798.5946 2737.2713 2736.8336 Z" fill="none" stroke="#012394" opacity="0.5714285714285714" stroke-width="1" class="chinatown"/>
<path d="M 2994.5337 2772.2964 2930.7039 2905.9859 2732.6364 2966.8516 2625.259 3020.3209 2604.8977 3002.7983 2653.9743 2849.7553 2763.1819 2672.7707 2994.5337 2772.2964 Z" fill="none" stroke="#012394" opacity="0.5714285714285714" stroke-width="1" class="chinatown"/>
<path d="M 2805.7546 2870.0433 2728.012 2875.5751 2697.4744 2817.493 2714.1366 2743.7462 2739.1243 2655.2574 2852.9405 2710.5589 2832.5872 2771.4 2920.506 2802.7327 2909.4086 2854.3605 2805.7546 2870.0433 Z" fill="none" stroke="#012394" opacity="0.5714285714285714" stroke-width="1" class="chinatown"/>
<path d="M 2767.6426 2799.1762 2782.6021 2775.9287 2821.4575 2793.63 2832.7439 2798.7071 2819.4334 2832.1439 2808.9766 2826.7486 2793.5996 2857.2359 2781.3369 2865.0726 2744.38 2840.345 2767.6426 2799.1762 Z" fill="none" stroke="#012394" opacity="0.5714285714285714" stroke-width="1" class="chinatown"/>
<path d="M 2759.0175 2740.9822 2849.7083 2782.9217 2838.6048 2803.6644 2844.6221 2826.711 2836.7576 2851.603 2799.2756 2856.2147 2798.3496 2843.3079 2766.8834 2829.9409 2755.7777 2839.1599 2747.9112 2836.394 2794.6452 2761.2617 2870.0681 2788.4507 2759.0175 2740.9822 Z" fill="none" stroke="#012394" opacity="0.5714285714285714" stroke-width="1" class="chinatown"/>
<path d="M 2858.965 2808.272 2903.6243 2854.3613 2903.8561 2857.1271 2904.7827 2864.2719 2904.7833 2868.4205 2905.9409 2873.2605 2908.4868 2878.5613 2908.9506 2885.0149 2912.4237 2900.6876 2911.4987 2903.9146 2910.3422 2906.6807 2904.5576 2907.1425 2903.1693 2907.3732 2896.4592 2908.0657 2891.8316 2908.7578 2888.361 2909.6802 2885.1216 2910.1416 2881.4195 2910.3726 2876.0976 2910.1427 2874.4779 2910.3734 2868.9247 2911.296 2862.4463 2914.7541 2835.1429 2918.6749 2820.3342 2920.5198 2818.7145 2921.2114 2807.1452 2923.978 2799.5094 2923.7478 2793.4933 2925.3614 2783.3122 2926.9752 2781.9238 2925.1312 2780.7668 2922.8263 2778.6843 2921.4433 2771.0484 2913.1456 2765.4952 2908.9967 2763.8755 2905.7698 2762.7186 2904.6174 2760.8675 2901.16 2758.5537 2898.3941 2759.0165 2896.5502 2756.2399 2891.9403 2755.5458 2889.8659 2754.6203 2888.022 2754.8517 2881.3379 2754.8518 2879.033 2755.3146 2876.0367 2755.7773 2873.0404 2755.546 2870.5051 2754.6205 2867.0479 2752.5382 2865.4345 2751.1499 2864.0515 2748.8362 2862.2076 2745.8284 2860.5942 2743.2833 2858.5198 2738.656 2853.2187 2736.8051 2851.6053 2737.7307 2849.3005 2738.1935 2847.4567 2738.1935 2845.1519 2742.3583 2840.5425 2742.3584 2837.7768 2745.1348 2834.5502 2746.5231 2829.9407 2751.1505 2827.1751 2751.6133 2824.4095 2753.0015 2821.1829 2753.927 2819.3391 2755.3152 2816.5735 2757.1662 2811.0422 2759.9425 2807.8157 2762.2561 2804.1282 2764.5697 2801.8235 2766.8833 2797.6751 2769.6596 2793.5267 2771.5104 2791.2221 2772.8985 2787.0737 2774.7494 2783.8472 2775.6748 2781.5426 2778.9136 2775.0896 2782.1526 2774.6287 2784.9288 2776.0114 2787.7051 2777.855 2792.7949 2780.1595 2798.8103 2783.3858 2801.5865 2783.8466 2805.2884 2787.5338 2812.2291 2788.9163 2817.7818 2790.7597 2822.409 2793.0641 2824.7227 2794.4467 2830.2754 2796.751 2834.9026 2797.6726 2842.3064 2800.8985 2845.5456 2803.2029 2849.7103 2805.5072 2856.1885 2806.8895 2858.965 2808.272 Z" fill="none" stroke="#012394" opacity="0.5714285714285714" stroke-width="1" class="chinatown"/>
<path d="M 2758.5547 2761.2622 2840.4556 2802.051 2845.5521 2879.9517 2732.4057 2946.1062 2758.5547 2761.2622 Z" fill="none" stroke="#012394" opacity="0.5714285714285714" stroke-width="1" class="chinatown"/>
<path d="M 2751.1517 2751.122 2851.0952 2769.5548 2773.3621 2883.8733 2684.5168 2832.2422 2703.0325 2736.3711 2751.1517 2751.122 Z" fill="none" stroke="#012394" opacity="0.5714285714285714" stroke-width="1" class="chinatown"/>
<path d="M 2790.019 2792.6046 2832.1281 2822.1025 2826.1149 2858.5181 2801.5903 2883.8726 2777.5271 2898.6245 2757.6281 2909.6882 2720.607 2895.8576 2690.9925 2865.4316 2678.9646 2825.7884 2706.7307 2788.9156 2741.8973 2770.4802 2765.9579 2780.6208 2790.019 2792.6046 Z" fill="none" stroke="#012394" opacity="0.5714285714285714" stroke-width="1" class="chinatown"/>
<path d="M 2742.5159 2716.7082 2785.0813 2675.2288 2836.901 2703.8009 2888.7316 2792.2899 2826.7318 2851.2967 2737.8859 2825.485 2742.5159 2716.7082 Z" fill="none" stroke="#012394" opacity="0.5714285714285714" stroke-width="1" class="chinatown"/>
<path d="M 2795.5702 2749.278 2820.556 2756.6515 2835.3599 2723.4654 2878.8552 2752.0371 2875.1576 2786.1455 2924.2095 2812.8727 2909.4088 2855.2824 2911.263 2876.4865 2808.5318 2885.7162 2793.7226 2855.2929 2748.3742 2822.1047 2795.5702 2749.278 Z" fill="none" stroke="#012394" opacity="0.5714285714285714" stroke-width="1" class="chinatown"/>
<path d="M 2791.8725 2885.7168 2748.3737 2851.6055 2766.8834 2827.6362 2795.5707 2764.0272 2921.4324 2808.2637 2912.1903 2887.5497 2791.8725 2885.7168 Z" fill="none" stroke="#012394" opacity="0.5714285714285714" stroke-width="1" class="chinatown"/>
<path d="M 2813.1253 2210.167 3093.4106 2363.98 2889.0311 2726.2253 2737.2738 2652.4922 2681.7566 2649.7237 2697.4951 2530.8305 2765.9577 2506.8715 2818.6866 2425.7742 2691.0322 2362.1911 2785.3791 2186.2146 2813.1253 2210.167 Z" fill="none" stroke="#012394" opacity="0.5714285714285714" stroke-width="1" class="chinatown"/>
<path d="M 2722.4595 2864.9726 2778.4514 2812.425 2826.5721 2771.8613 2870.0679 2786.607 2867.2962 2829.0135 2926.0713 2876.9451 2797.8886 2893.5533 2722.4595 2864.9726 Z" fill="none" stroke="#012394" opacity="0.5714285714285714" stroke-width="1" class="chinatown"/>
<path d="M 2903.8247 2642.3436 2967.6832 2708.6978 2907.5557 2841.454 2824.2603 2799.0561 2903.8247 2642.3436 Z" fill="none" stroke="#012394" opacity="0.5714285714285714" stroke-width="1" class="chinatown"/>
<path d="M 2826.5792 2881.336 2798.2354 2885.1404 2796.7311 2874.4229 2792.3344 2855.5235 2779.3776 2864.1668 2760.6364 2852.9886 2760.1737 2841.0037 2755.0836 2840.5427 2772.6674 2810.5813 2761.562 2807.8157 2791.6376 2760.5705 2824.4905 2782.0017 2830.0421 2768.6346 2867.1757 2784.1875 2841.8477 2851.1417 2846.4775 2878.5687 2826.5792 2881.336 Z" fill="none" stroke="#012394" opacity="0.5714285714285714" stroke-width="1" class="chinatown"/>
<path d="M 2762.7188 2806.2024 2807.8349 2824.1781 2843.2352 2842.1529 2840.922 2847.915 2844.3935 2859.8997 2783.7738 2864.9734 2740.9701 2841.2339 2762.7188 2806.2024 Z" fill="none" stroke="#012394" opacity="0.5714285714285714" stroke-width="1" class="chinatown"/>
<path d="M 2778.4509 2773.0155 2832.5891 2798.3641 2820.0977 2831.3222 2834.5585 2837.0831 2871.2318 2850.2169 2871.6952 2856.6703 2791.4092 2865.6647 2780.9973 2864.282 2735.1861 2832.0147 2778.4509 2773.0155 Z" fill="none" stroke="#012394" opacity="0.5714285714285714" stroke-width="1" class="chinatown"/>
<path d="M 2789.3239 2749.9696 3014.4521 2856.413 2749.7612 2891.7098 2719.2198 2872.8089 2721.9975 2848.8389 2789.3239 2749.9696 Z" fill="none" stroke="#012394" opacity="0.5714285714285714" stroke-width="1" class="chinatown"/>
<path d="M 2731.722 2654.3355 2882.5531 2722.5389 2877.0076 2778.7705 2836.2937 2835.9306 2855.7334 2886.6348 2850.1827 2914.2943 2801.1289 2917.9853 2785.3938 2885.717 2755.7776 2849.7618 2713.2082 2798.1346 2731.722 2654.3355 Z" fill="none" stroke="#012394" opacity="0.5714285714285714" stroke-width="1" class="chinatown"/>
<path d="M 2870.9947 2798.9368 2864.7478 2797.4394 2846.4746 2845.1488 2848.0976 2883.6392 2801.822 2890.7872 2789.3271 2876.7279 2780.0718 2864.5125 2732.641 2835.4717 2785.0441 2757.5747 2794.4139 2762.5293 2771.7419 2809.6594 2790.7137 2816.5732 2807.9482 2770.1339 2870.9947 2798.9368 Z" fill="none" stroke="#012394" opacity="0.5714285714285714" stroke-width="1" class="chinatown"/>
<path d="M 2843.0053 2859.4388 2788.6326 2864.5123 2785.1619 2861.2857 2779.8404 2862.8991 2741.8956 2840.0815 2761.7934 2805.7415 2737.2697 2790.9912 2749.9946 2772.785 2774.518 2787.0737 2790.0182 2760.1096 2793.2568 2751.5826 2867.7542 2785.2245 2842.079 2850.6807 2843.0053 2859.4388 Z" fill="none" stroke="#012394" opacity="0.5714285714285714" stroke-width="1" class="chinatown"/>
<path d="M 2747.6874 2830.1459 2761.8008 2806.177 2764.7315 2800.1649 2747.1872 2781.7125 2755.7475 2759.5886 2774.0242 2771.8029 2783.4512 2778.1337 2819.7967 2795.0315 2825.117 2780.9729 2860.8086 2795.6427 2843.5564 2842.1944 2842.1687 2849.5698 2845.6364 2889.3173 2800.1317 2894.3177 2788.331 2885.5595 2784.1658 2868.7342 2777.8557 2852.4204 2769.9891 2851.9595 2747.6874 2830.1459 Z" fill="none" stroke="#012394" opacity="0.5714285714285714" stroke-width="1" class="chinatown"/>
<path d="M 2765.0324 2826.599 2764.8011 2825.7924 2748.3744 2811.6183 2758.4388 2796.0618 2785.5072 2778.0855 2822.8717 2793.1793 2790.1363 2855.9845 2765.0324 2826.599 Z" fill="none" stroke="#012394" opacity="0.5714285714285714" stroke-width="1" class="chinatown"/>
<path d="M 2688.2282 2716.0905 2913.1024 2801.812 2842.7744 2866.3533 2697.4735 2830.3994 2688.2282 2716.0905 Z" fill="none" stroke="#012394" opacity="0.5714285714285714" stroke-width="1" class="chinatown"/>
<path d="M 2776.1378 2806.8937 2802.2825 2832.7059 2797.6555 2841.6946 2793.2597 2849.531 2787.7069 2856.4455 2780.9972 2860.8248 2775.6756 2859.6724 2761.3305 2850.4533 2760.6364 2839.1599 2776.1378 2806.8937 Z" fill="none" stroke="#012394" opacity="0.5714285714285714" stroke-width="1" class="chinatown"/>
<path d="M 2801.5911 2904.1557 2787.0135 2884.1036 2781.2287 2866.5868 2767.5775 2859.6725 2763.8756 2842.3866 2767.3461 2825.3314 2784.6981 2806.6631 2794.1838 2804.1278 2803.2061 2786.1511 2817.5505 2792.373 2826.5723 2775.3182 2839.0659 2781.7702 2844.6188 2786.6095 2857.344 2793.7527 2859.6588 2805.7368 2865.2122 2812.6503 2873.3118 2829.9348 2870.075 2851.1389 2874.4739 2875.339 2863.3688 2885.4817 2801.5911 2904.1557 Z" fill="none" stroke="#012394" opacity="0.5714285714285714" stroke-width="1" class="chinatown"/>
<path d="M 2891.8917 2735.5415 2849.3344 2845.2472 2783.6257 2866.4549 2731.7987 2836.9532 2805.28 2698.5689 2891.8917 2735.5415 Z" fill="none" stroke="#012394" opacity="0.5714285714285714" stroke-width="1" class="chinatown"/>
<path d="M 3014.9146 2855.2604 2993.6406 2905.9728 2771.5114 2938.2697 2751.1492 2912.454 2824.2589 2777.8534 3014.9146 2855.2604 Z" fill="none" stroke="#012394" opacity="0.5714285714285714" stroke-width="1" class="chinatown"/>
<path d="M 2737.7323 2792.1435 2762.9502 2805.7415 2781.6899 2775.32 2860.1219 2809.8852 2845.318 2847.6842 2847.17 2859.208 2790.4836 2865.2037 2787.4757 2861.9771 2780.5345 2865.2039 2715.9831 2824.6387 2737.7323 2792.1435 Z" fill="none" stroke="#012394" opacity="0.5714285714285714" stroke-width="1" class="chinatown"/>
<path d="M 2773.3614 2808.7375 2805.7527 2826.7134 2786.7816 2862.2076 2723.847 2880.6456 2692.8434 2865.8927 2693.769 2864.7404 2715.9829 2827.8654 2743.9792 2784.3079 2719.6884 2752.0428 2773.3614 2808.7375 Z" fill="none" stroke="#012394" opacity="0.5714285714285714" stroke-width="1" class="chinatown"/>
<path d="M 2779.609 2864.0515 2769.1971 2855.9848 2771.2793 2820.4915 2771.9733 2810.8118 2887.4283 2854.1331 2850.6425 2881.3341 2852.0328 2902.539 2802.7483 2910.6094 2798.1197 2884.5642 2779.609 2864.0515 Z" fill="none" stroke="#012394" opacity="0.5714285714285714" stroke-width="1" class="chinatown"/>
<path d="M 2766.4206 2785.691 2790.4817 2791.6827 2809.9167 2814.2678 2812.6942 2835.9321 2806.2172 2867.7385 2776.6013 2877.8806 2756.7029 2865.4345 2732.6404 2851.1442 2705.3393 2840.0799 2693.7723 2821.1802 2697.7061 2812.8836 2704.4163 2802.2825 2709.2752 2796.2907 2713.4402 2785.2286 2725.7026 2773.4757 2734.494 2771.6323 2741.8973 2771.863 2756.0097 2773.9374 2757.1665 2776.9334 2766.4206 2785.691 Z" fill="none" stroke="#012394" opacity="0.5714285714285714" stroke-width="1" class="chinatown"/>
<path d="M 2704.8606 2785.8706 2733.261 2755.7786 2892.4601 2812.6599 2873.0341 2886.4155 2721.251 2840.3242 2704.8606 2785.8706 Z" fill="none" stroke="#012394" opacity="0.5714285714285714" stroke-width="1" class="chinatown"/>
<path d="M 2770.8165 2810.1204 2793.2571 2763.1054 2826.3413 2780.1579 2862.8968 2795.3654 2842.0792 2852.9855 2843.4681 2860.1302 2792.3346 2864.9732 2778.9149 2863.8211 2759.7109 2851.8362 2759.7109 2840.5427 2756.4718 2838.6989 2770.8165 2810.1204 Z" fill="none" stroke="#012394" opacity="0.5714285714285714" stroke-width="1" class="chinatown"/>
<path d="M 2798.5825 2885.9471 2776.3698 2862.4382 2715.5203 2826.0215 2751.3827 2770.25 2883.0276 2817.0272 2873.5485 2876.4916 2798.5825 2885.9471 Z" fill="none" stroke="#012394" opacity="0.5714285714285714" stroke-width="1" class="chinatown"/>
<path d="M 2791.8687 2752.0436 2872.3816 2787.9896 2848.3262 2851.6021 2845.555 2914.2947 2773.3625 2930.8938 2747.447 2912.4539 2791.8687 2752.0436 Z" fill="none" stroke="#012394" opacity="0.5714285714285714" stroke-width="1" class="chinatown"/>
<path d="M 2871.0005 2851.1388 2879.7932 2855.7474 2871.0011 2856.2094 2846.4759 2859.8995 2846.9394 2869.1188 2847.8658 2878.799 2850.6443 2900.9257 2804.368 2911.0704 2797.4256 2884.7947 2779.8407 2886.639 2777.9896 2877.4196 2784.9307 2868.2001 2779.3777 2865.4344 2758.0911 2869.1222 2737.2678 2853.4491 2738.6561 2850.2224 2749.762 2845.6131 2759.9422 2852.0666 2759.9423 2841.0037 2756.2404 2838.6989 2764.107 2827.6362 2771.9733 2810.1203 2778.9142 2812.8859 2790.4824 2817.956 2810.3768 2758.9566 2819.631 2763.5652 2829.3481 2769.5565 2842.3042 2773.7038 2858.4996 2781.5381 2870.0678 2786.1461 2865.9046 2796.7479 2878.8612 2801.8167 2873.7728 2814.7236 2881.6395 2817.9492 2871.0005 2851.1388 Z" fill="none" stroke="#012394" opacity="0.5714285714285714" stroke-width="1" class="chinatown"/>
<path d="M 2666.0061 2845.1471 2792.7906 2629.4494 2910.3158 2734.5184 2876.0939 2878.3352 2813.1598 2894.0136 2758.5538 2886.6391 2720.6081 2873.7309 2696.5447 2875.5733 2666.0061 2845.1471 Z" fill="none" stroke="#012394" opacity="0.5714285714285714" stroke-width="1" class="chinatown"/>
<path d="M 2815.4904 2825.7984 2736.5471 2800.4693 2812.9679 2762.6382 2882.2694 2858.2281 2786.7453 2855.9434 2793.1256 2821.101 2740.3406 2804.0494 2758.6135 2844.7992 2756.9939 2853.7878 2815.4904 2825.7984 Z" fill="none" stroke="#012394" opacity="0.5714285714285714" stroke-width="1" class="chinatown"/>
<path d="M 2860.3583 2859.8982 2789.0955 2870.0439 2751.1503 2838.6988 2740.0449 2828.5577 2777.0626 2759.4185 2850.1714 2787.9918 2886.2659 2811.0345 2860.3583 2859.8982 Z" fill="none" stroke="#012394" opacity="0.5714285714285714" stroke-width="1" class="chinatown"/>
<path d="M 2742.9367 2841.6949 2740.3914 2849.1853 2737.9619 2853.4491 2734.1441 2857.8281 2730.095 2860.248 2726.5086 2862.3222 2701.8683 2846.8787 2716.6772 2824.1778 2697.359 2813.2292 2684.4034 2805.8532 2702.6831 2772.0917 2718.1847 2751.8123 2724.7787 2737.8702 2740.8568 2749.0477 2783.539 2685.6751 2889.2633 2732.9083 2847.1699 2858.9775 2795.921 2865.4341 2780.7659 2865.0887 2744.5562 2842.6168 2742.9367 2841.6949 Z" fill="none" stroke="#012394" opacity="0.5714285714285714" stroke-width="1" class="chinatown"/>
<path d="M 2745.5987 2780.6206 2802.9764 2826.7135 2780.7659 2865.4344 2725.2354 2879.2627 2697.4716 2856.2128 2745.5987 2780.6206 Z" fill="none" stroke="#012394" opacity="0.5714285714285714" stroke-width="1" class="chinatown"/>
<path d="M 2793.7204 2782.925 3011.2165 2870.0122 2773.3625 2935.5037 2793.7204 2782.925 Z" fill="none" stroke="#012394" opacity="0.5714285714285714" stroke-width="1" class="chinatown"/>
<path d="M 2871.2325 2857.1313 2873.7798 2875.5696 2876.0936 2876.0303 2788.8645 2885.4864 2784.2366 2868.2001 2731.9469 2834.7803 2774.5179 2771.4023 2795.5713 2782.6945 2881.4083 2819.3321 2871.0004 2850.4474 2871.2325 2857.1313 Z" fill="none" stroke="#012394" opacity="0.5714285714285714" stroke-width="1" class="chinatown"/>
<path d="M 2868.6796 2785.2244 2779.8402 2849.7618 2856.6564 2860.8205 2745.5959 2913.3759 2774.2863 2745.5912 2686.363 2889.4017 2666.0028 2876.4925 2686.3636 2882.0261 2868.6796 2785.2244 Z" fill="none" stroke="#012394" opacity="0.5714285714285714" stroke-width="1" class="chinatown"/>
<path d="M 2779.8404 2863.8211 2716.7929 2824.4083 2745.7144 2781.4272 2777.7573 2812.6555 2806.9095 2825.2153 2798.4653 2842.847 2790.3677 2857.0216 2779.8404 2863.8211 Z" fill="none" stroke="#012394" opacity="0.5714285714285714" stroke-width="1" class="chinatown"/>
<path d="M 2797.8818 2693.5096 2889.0322 2734.5215 2843.2357 2848.3758 2844.6249 2859.4387 2778.9149 2864.5125 2716.9086 2823.9474 2797.8818 2693.5096 Z" fill="none" stroke="#012394" opacity="0.5714285714285714" stroke-width="1" class="chinatown"/>
<path d="M 2801.1017 2196.3482 3039.6348 1932.859 3354.1605 2199.8505 3200.8432 2649.6271 2758.5566 2504.1067 2801.1017 2196.3482 Z" fill="none" stroke="#012394" opacity="0.5714285714285714" stroke-width="1" class="chinatown"/>
<path d="M 2744.9046 2780.851 2788.8628 2817.2646 2803.4374 2785.2293 2820.7896 2794.2165 2815.0065 2811.0409 2851.1003 2825.7885 2845.0884 2869.1189 2796.4997 2873.9619 2793.2599 2858.0587 2780.9973 2864.743 2761.7932 2852.5276 2760.1736 2852.2971 2759.4796 2840.3123 2722.693 2816.3421 2744.9046 2780.851 Z" fill="none" stroke="#012394" opacity="0.5714285714285714" stroke-width="1" class="chinatown"/>
<path d="M 2820.5657 2922.5943 2810.8475 2924.4388 2805.7563 2909.2263 2802.5165 2900.0068 2801.5904 2885.2555 2795.5741 2872.8095 2790.9463 2859.9026 2784.005 2859.9028 2775.2128 2855.2933 2771.5108 2854.3714 2765.4952 2848.84 2762.7187 2846.5352 2758.0913 2847.4571 2753.0012 2841.0036 2751.613 2844.2303 2750.2249 2837.316 2750.6877 2832.2455 2760.8679 2816.5735 2768.7342 2804.5891 2769.6596 2791.2221 2781.6899 2776.4723 2796.4966 2779.2375 2789.5564 2795.8311 2810.379 2805.5099 2815.4681 2788.9161 2832.587 2769.0954 2873.3061 2780.1537 2864.9803 2807.8104 2886.2669 2819.3315 2873.7767 2848.8337 2874.7072 2892.6255 2871.9331 2913.8311 2820.5657 2922.5943 Z" fill="none" stroke="#012394" opacity="0.5714285714285714" stroke-width="1" class="chinatown"/>
<path d="M 2830.7382 2798.1338 2834.2101 2818.1843 2874.7007 2836.3879 2873.7773 2854.1348 2846.0132 2860.3605 2846.7089 2878.5686 2825.6537 2882.9494 2827.97 2919.8279 2805.5255 2924.2085 2798.5824 2883.4118 2775.9072 2877.4196 2764.3383 2855.5238 2744.4406 2840.5425 2764.3384 2807.1243 2780.0704 2776.7028 2830.7382 2798.1338 Z" fill="none" stroke="#012394" opacity="0.5714285714285714" stroke-width="1" class="chinatown"/>
<path d="M 2793.2568 2752.0435 2867.5227 2783.8418 2842.0789 2848.8368 2844.1621 2859.4387 2789.3268 2865.4342 2787.2443 2861.2856 2780.5345 2863.1296 2777.7578 2849.5313 2770.5853 2849.7619 2768.503 2840.7732 2772.8989 2827.8666 2780.7651 2813.8078 2764.107 2798.597 2793.2568 2752.0435 Z" fill="none" stroke="#012394" opacity="0.5714285714285714" stroke-width="1" class="chinatown"/>
<path d="M 2649.3493 2830.3947 2698.409 2689.3599 2827.9588 2751.1201 2774.2875 2877.4197 2656.7451 2899.5403 2649.3493 2830.3947 Z" fill="none" stroke="#012394" opacity="0.5714285714285714" stroke-width="1" class="chinatown"/>
<path d="M 2805.7492 2744.6686 2814.772 2749.5077 2810.6082 2759.4175 2884.181 2790.0623 2860.3571 2847.9133 2878.4048 2854.8257 2904.3182 2852.5174 2906.635 2873.4909 2789.5587 2885.7169 2779.8404 2864.0515 2777.5264 2842.617 2805.7492 2744.6686 Z" fill="none" stroke="#012394" opacity="0.5714285714285714" stroke-width="1" class="chinatown"/>
<path d="M 2807.6036 2825.7915 2798.3495 2840.5422 2728.94 2811.0415 2756.7038 2773.246 2820.5587 2802.7438 2807.6036 2825.7915 Z" fill="none" stroke="#012394" opacity="0.5714285714285714" stroke-width="1" class="chinatown"/>
<path d="M 2756.4717 2846.5351 2807.8324 2768.6359 2853.411 2794.675 2834.6753 2851.8336 2827.736 2880.414 2800.4333 2879.9544 2756.4717 2846.5351 Z" fill="none" stroke="#012394" opacity="0.5714285714285714" stroke-width="1" class="chinatown"/>
<path d="M 2824.259 2779.6971 2779.8403 2856.2152 2745.596 2910.61 2747.4473 2897.7025 2703.9485 2880.1835 2639.1694 2828.5496 2655.841 2714.2437 2715.9909 2675.5347 2852.9363 2665.3928 2862.1928 2698.575 2824.259 2779.6971 Z" fill="none" stroke="#012394" opacity="0.5714285714285714" stroke-width="1" class="chinatown"/>
<path d="M 2794.8762 2751.3521 2893.667 2792.5962 2871.4636 2854.3655 2782.8483 2868.4307 2749.0667 2915.2199 2718.5259 2868.1992 2794.8762 2751.3521 Z" fill="none" stroke="#012394" opacity="0.5714285714285714" stroke-width="1" class="chinatown"/>
<path d="M 2815.0006 2698.1177 2889.4943 2729.9124 2845.0865 2846.0709 2848.3302 2898.16 2815.0123 2920.7506 2718.2942 2876.0356 2815.0006 2698.1177 Z" fill="none" stroke="#012394" opacity="0.5714285714285714" stroke-width="1" class="chinatown"/>
<path d="M 2761.3307 2794.4486 2777.0628 2771.4023 2807.6014 2775.0888 2836.2901 2787.9929 2863.1291 2804.5841 2854.8043 2848.8357 2827.0405 2859.901 2804.8293 2874.6531 2775.2132 2889.405 2762.2558 2894.0148 2715.9806 2871.8868 2731.715 2849.7613 2743.7463 2847.9178 2746.5233 2822.1046 2752.0763 2801.8234 2761.3307 2794.4486 Z" fill="none" stroke="#012394" opacity="0.5714285714285714" stroke-width="1" class="chinatown"/>
<path d="M 2807.5982 2705.0314 2849.2447 2773.2423 2881.6476 2883.8662 2882.5767 2912.4469 2767.8091 2923.5179 2689.1455 2815.6486 2653.059 2764.9428 2712.2882 2701.3437 2807.5982 2705.0314 Z" fill="none" stroke="#012394" opacity="0.5714285714285714" stroke-width="1" class="chinatown"/>
<path d="M 2765.0324 2826.0229 2771.0478 2810.8118 2872.6202 2851.8301 2877.0214 2895.8521 2803.905 2905.9995 2788.4018 2887.0999 2781.46 2866.1259 2765.0324 2826.0229 Z" fill="none" stroke="#012394" opacity="0.5714285714285714" stroke-width="1" class="chinatown"/>
<path d="M 2654.9167 2705.9476 3006.5842 2851.5749 2654.882 3001.8834 2654.9167 2705.9476 Z" fill="none" stroke="#012394" opacity="0.5714285714285714" stroke-width="1" class="chinatown"/>
<path d="M 2868.6799 2787.99 2849.2572 2914.2944 2769.6602 2935.5038 2715.0548 2878.3403 2763.1816 2798.1361 2783.5405 2767.7148 2790.9433 2751.1218 2868.6799 2787.99 Z" fill="none" stroke="#012394" opacity="0.5714285714285714" stroke-width="1" class="chinatown"/>
<path d="M 2845.5497 2851.1413 2847.1717 2879.721 2826.1164 2881.797 2769.4286 2887.7916 2783.3111 2868.4306 2779.1463 2864.282 2742.5896 2841.0034 2749.7623 2826.9446 2772.8986 2791.683 2781.2272 2776.3571 2821.4836 2793.8708 2826.3414 2782.0016 2865.6732 2797.2089 2860.7003 2809.7699 2845.5497 2851.1413 Z" fill="none" stroke="#012394" opacity="0.5714285714285714" stroke-width="1" class="chinatown"/>
<path d="M 2778.9142 2812.425 2846.9372 2842.844 2845.0871 2852.9852 2852.0342 2918.443 2797.427 2928.5883 2772.437 2939.6527 2709.9643 2880.6449 2727.0871 2861.2851 2737.7306 2852.5272 2742.3583 2840.0815 2764.107 2805.9719 2778.9142 2812.425 Z" fill="none" stroke="#012394" opacity="0.5714285714285714" stroke-width="1" class="chinatown"/>
<path d="M 2737.2696 2793.5263 2800.2002 2832.245 2754.8514 2910.6101 2684.5129 2877.4162 2737.2696 2793.5263 Z" fill="none" stroke="#012394" opacity="0.5714285714285714" stroke-width="1" class="chinatown"/>
<path d="M 2775.6747 2772.3241 2849.2475 2805.0464 2820.5628 2871.8865 2769.66 2884.7953 2773.3619 2858.981 2743.7466 2837.7768 2775.6747 2772.3241 Z" fill="none" stroke="#012394" opacity="0.5714285714285714" stroke-width="1" class="chinatown"/>
<path d="M 2797.4199 2799.3782 2866.946 2765.0086 2891.0138 2820.3173 2838.2645 2842.4483 2797.4199 2799.3782 Z" fill="none" stroke="#012394" opacity="0.5714285714285714" stroke-width="1" class="chinatown"/>
<path d="M 2807.3722 2824.8696 2843.9293 2841.6919 2841.6161 2847.6845 2843.2366 2858.9779 2780.3032 2865.6649 2742.1269 2839.6206 2764.5697 2805.9719 2807.3722 2824.8696 Z" fill="none" stroke="#012394" opacity="0.5714285714285714" stroke-width="1" class="chinatown"/>
<path d="M 2691.9183 2860.822 2682.6765 2711.4811 2890.8841 2742.8175 2907.5532 2824.8598 2910.336 2866.3454 2859.436 2892.1662 2758.5535 2921.6739 2691.9183 2860.822 Z" fill="none" stroke="#012394" opacity="0.5714285714285714" stroke-width="1" class="chinatown"/>
<path d="M 2725.238 2816.5727 2783.0781 2779.6988 2883.0284 2823.4804 2882.1069 2855.7471 2799.7388 2869.1216 2725.238 2816.5727 Z" fill="none" stroke="#012394" opacity="0.5714285714285714" stroke-width="1" class="chinatown"/>
<path d="M 2890.2075 2874.8761 2781.229 2887.561 2777.2952 2861.9772 2761.3305 2851.3752 2757.1659 2838.9294 2765.7265 2821.6439 2755.7779 2815.4211 2748.3744 2810.5812 2755.5467 2800.9016 2774.7493 2772.5546 2780.9958 2775.0896 2762.1404 2805.6262 2771.0478 2809.1985 2785.8543 2779.6987 2832.7048 2798.7098 2842.3041 2772.782 2870.299 2784.7633 2848.2097 2842.8439 2880.0245 2855.7474 2887.1969 2854.3636 2890.2075 2874.8761 Z" fill="none" stroke="#012394" opacity="0.5714285714285714" stroke-width="1" class="chinatown"/>
<path d="M 3062.9863 2684.7066 2998.2678 2904.1277 2784.4693 2934.5816 2651.1762 3028.6232 2653.0269 3034.1559 2598.4234 2973.2916 2699.3384 2630.3692 3062.9863 2684.7066 Z" fill="none" stroke="#012394" opacity="0.5714285714285714" stroke-width="1" class="chinatown"/>
<path d="M 2903.8555 2852.748 2831.6681 2861.7445 2801.1269 2864.9729 2791.4091 2865.2037 2787.013 2862.438 2781.2286 2864.743 2716.4458 2825.3302 2745.136 2780.851 2765.7265 2800.9017 2790.2495 2761.0314 2826.3413 2780.3884 2821.4836 2793.2946 2908.4793 2829.0082 2903.6228 2843.7593 2903.8555 2852.748 Z" fill="none" stroke="#012394" opacity="0.5714285714285714" stroke-width="1" class="chinatown"/>
<path d="M 2699.3285 2771.4 2704.881 2771.4004 2800.1998 2822.1042 2715.0528 2914.2967 2650.2691 2876.4907 2699.3285 2771.4 Z" fill="none" stroke="#012394" opacity="0.5714285714285714" stroke-width="1" class="chinatown"/>
<path d="M 2733.1038 2834.0889 2789.3239 2750.2 2891.3536 2794.4402 2882.1023 2818.6406 2870.7698 2857.1313 2873.7798 2876.2611 2847.1716 2878.3381 2850.1816 2902.0782 2759.2478 2900.0075 2733.1038 2834.0889 Z" fill="none" stroke="#012394" opacity="0.5714285714285714" stroke-width="1" class="chinatown"/>
<path d="M 2779.609 2864.0515 2733.5665 2834.5499 2754.6213 2801.3625 2738.8891 2791.6827 2764.8011 2747.2044 2826.1099 2780.6188 2848.3207 2789.8357 2823.8014 2862.206 2779.609 2864.0515 Z" fill="none" stroke="#012394" opacity="0.5714285714285714" stroke-width="1" class="chinatown"/>
<path d="M 2887.8911 2854.594 2894.1461 2913.3673 2775.6765 2939.1917 2753.9259 2909.9186 2784.6993 2866.3563 2887.8911 2854.594 Z" fill="none" stroke="#012394" opacity="0.5714285714285714" stroke-width="1" class="chinatown"/>
<path d="M 2785.3916 2778.316 2793.9512 2762.414 2826.1099 2780.1579 2830.2735 2768.8651 2870.2992 2785.9156 2860.816 2809.6546 2934.8569 2839.6057 2925.8371 2860.5808 2926.3016 2870.4915 2848.7913 2879.0294 2849.9491 2888.9403 2799.9711 2895.3971 2798.1197 2884.3337 2769.1973 2888.7135 2784.6993 2868.6611 2780.7659 2864.9735 2770.354 2858.5201 2759.7109 2852.2971 2760.6364 2841.9256 2756.7032 2838.9294 2785.3916 2778.316 Z" fill="none" stroke="#012394" opacity="0.5714285714285714" stroke-width="1" class="chinatown"/>
<path d="M 2673.4086 2858.9766 2798.3491 2829.4794 2814.0858 2903.2332 2617.861 2974.2169 2673.4086 2858.9766 Z" fill="none" stroke="#012394" opacity="0.5714285714285714" stroke-width="1" class="chinatown"/>
<path d="M 2848.3254 2842.8439 2873.3145 2853.4434 2872.8545 2877.8746 2788.1704 2885.256 2784.9307 2866.8172 2716.2144 2824.8692 2738.1951 2792.1436 2702.1049 2770.0175 2733.1075 2725.311 2838.1408 2786.1491 2867.2928 2797.6696 2848.3254 2842.8439 Z" fill="none" stroke="#012394" opacity="0.5714285714285714" stroke-width="1" class="chinatown"/>
<path d="M 2738.199 2655.2574 2776.137 2739.1385 2844.6151 2742.8225 2906.6152 2740.9716 2919.5816 2809.1859 2868.6903 2882.9457 2811.3057 2830.4007 2771.5106 2815.6516 2733.567 2819.3386 2799.2738 2807.3541 2847.3986 2827.6326 2880.7141 2818.4103 2885.3363 2778.7695 2853.871 2764.9454 2798.3465 2753.887 2836.2909 2799.0553 2782.6155 2788.9173 2741.8974 2768.6366 2725.2409 2748.3558 2708.578 2847.9163 2739.1185 2864.5122 2797.424 2837.7765 2860.3614 2890.3222 2803.9032 2860.8241 2813.1604 2905.0771 2724.3074 2935.5029 2673.4027 2919.8255 2694.7036 2743.745 2738.199 2655.2574 Z" fill="none" stroke="#012394" opacity="0.5714285714285714" stroke-width="1" class="chinatown"/>
<path d="M 2754.8526 2802.2844 2805.0586 2825.5611 2816.3963 2840.7719 2849.2574 2916.1383 2774.7508 2932.7377 2752.7689 2911.3016 2730.0958 2838.0069 2754.8526 2802.2844 Z" fill="none" stroke="#012394" opacity="0.5714285714285714" stroke-width="1" class="chinatown"/>
<path d="M 2738.1938 2835.9329 2761.3307 2806.4329 2830.7402 2826.712 2802.9777 2860.8242 2738.1938 2835.9329 Z" fill="none" stroke="#012394" opacity="0.5714285714285714" stroke-width="1" class="chinatown"/>
<path d="M 2869.8366 2787.5289 2852.142 2832.4722 2845.6652 2849.2975 2854.5793 2916.8293 2804.8314 2925.1305 2797.8883 2884.449 2768.8502 2888.1373 2783.8895 2867.8544 2760.1736 2851.3752 2759.4796 2840.4275 2703.0279 2805.048 2727.6694 2764.1422 2723.0426 2759.9937 2742.361 2730.0355 2784.8127 2756.7681 2789.4395 2749.5086 2870.4148 2785.3394 2869.8366 2787.5289 Z" fill="none" stroke="#012394" opacity="0.5714285714285714" stroke-width="1" class="chinatown"/>
<path d="M 2870.2989 2783.611 2861.5101 2810.346 2882.1023 2818.871 2871.0007 2853.2132 2872.623 2876.4917 2846.4776 2879.9516 2846.7098 2888.9405 2800.2025 2894.7056 2798.1197 2885.7166 2787.0135 2885.256 2780.5345 2864.0515 2743.2838 2840.773 2777.5255 2774.6287 2787.7046 2758.4964 2870.2989 2783.611 Z" fill="none" stroke="#012394" opacity="0.5714285714285714" stroke-width="1" class="chinatown"/>
<path d="M 2802.9748 2786.3816 2858.9651 2809.6548 2845.3197 2867.736 2772.8991 2859.9029 2802.9748 2786.3816 Z" fill="none" stroke="#012394" opacity="0.5714285714285714" stroke-width="1" class="chinatown"/>
<path d="M 2848.314 2713.3247 2862.1951 2721.6194 2890.8815 2723.4596 2885.3324 2747.4273 2904.7671 2758.4864 2936.2336 2775.9961 2968.6242 2781.5208 3007.4974 2803.6363 3015.8342 2833.1344 2988.0791 2870.9399 2978.8276 2886.6151 2951.0632 2893.0746 2911.2666 2899.5353 2870.5431 2899.5407 2841.8518 2901.3874 2813.1605 2906.9211 2816.863 2914.2967 2789.0966 2912.4538 2768.7346 2917.986 2730.7857 2953.9433 2702.0902 2988.979 2674.32 3004.6517 2657.6583 3007.4161 2645.6254 3003.7264 2630.8154 3002.8024 2633.5927 3000.0366 2634.5188 2996.3485 2625.2624 2997.2692 2625.2619 3000.9574 2619.7094 2992.6581 2638.2451 2820.2525 2635.4682 2823.9397 2619.7235 2901.3792 2607.6833 2950.2427 2606.752 2984.3576 2616.0127 2955.7761 2621.5748 2899.5356 2628.9837 2867.2685 2625.275 2912.4437 2628.9835 2869.1124 2668.8049 2626.6798 2710.4411 2640.5087 2735.4234 2647.8835 2764.1072 2658.023 2790.9412 2673.6921 2868.6554 2564.0056 2836.28 2653.4117 2828.8795 2681.0643 2821.4775 2690.2824 2848.314 2713.3247 Z" fill="none" stroke="#012394" opacity="0.5714285714285714" stroke-width="1" class="chinatown"/>
<path d="M 2712.9793 2753.6557 2768.5029 2808.968 2710.1956 2881.7973 2664.1565 2832.7012 2712.9793 2753.6557 Z" fill="none" stroke="#012394" opacity="0.5714285714285714" stroke-width="1" class="chinatown"/>
<path d="M 2781.6914 2864.5125 2732.8724 2834.7803 2790.0179 2749.2782 2869.1422 2783.8416 2843.6988 2852.2939 2844.6248 2858.7473 2781.6914 2864.5125 Z" fill="none" stroke="#012394" opacity="0.5714285714285714" stroke-width="1" class="chinatown"/>
<path d="M 2908.0076 2830.5513 2905.2506 2837.111 2903.9165 2843.1393 2903.4722 2850.6737 2903.6518 2852.5371 2794.7294 2864.337 2790.7254 2864.8695 2789.8346 2864.5146 2787.7881 2862.476 2782.8043 2865.6672 2717.1318 2824.6238 2758.6889 2760.9822 2782.3585 2776.848 2822.3119 2793.7762 2830.3187 2770.1096 2891.7181 2795.0106 2881.8433 2819.6547 2908.0076 2830.5513 Z" fill="none" stroke="#012394" opacity="0.5714285714285714" stroke-width="1" class="chinatown"/>
<path d="M 2745.483 2781.7729 2781.9219 2813.5773 2803.3206 2756.5371 2870.0677 2784.8786 2847.9783 2842.4982 2871.1163 2851.8303 2873.5485 2876.1459 2789.6744 2886.7541 2785.3935 2869.0068 2780.1874 2863.5906 2716.5615 2825.3302 2745.483 2781.7729 Z" fill="none" stroke="#012394" opacity="0.5714285714285714" stroke-width="1" class="chinatown"/>
<path d="M 2844.6247 2857.1339 2823.3379 2848.8382 2804.8273 2827.6354 2765.9579 2807.3547 2790.9435 2756.6527 2866.8291 2788.912 2844.6247 2857.1339 Z" fill="none" stroke="#012394" opacity="0.5714285714285714" stroke-width="1" class="chinatown"/>
<path d="M 2877.0237 2915.2135 2774.2881 2938.2697 2746.5214 2915.2199 2826.5726 2780.6188 2940.8702 2827.1589 2935.3194 2838.2227 2972.3421 2855.2707 2976.9795 2899.9839 2877.0237 2915.2135 Z" fill="none" stroke="#012394" opacity="0.5714285714285714" stroke-width="1" class="chinatown"/>
<path d="M 2718.7572 2870.965 2790.9433 2749.2782 2872.3813 2785.224 2850.1772 2852.5238 2718.7572 2870.965 Z" fill="none" stroke="#012394" opacity="0.5714285714285714" stroke-width="1" class="chinatown"/>
<path d="M 2707.1961 2745.8199 2806.4469 2827.1743 2780.9973 2865.2039 2680.8187 2790.5269 2705.5765 2748.8157 2707.1961 2745.8199 Z" fill="none" stroke="#012394" opacity="0.5714285714285714" stroke-width="1" class="chinatown"/>
<path d="M 2644.9566 2804.5814 2698.4009 2802.2821 2798.8109 2801.1315 2896.9097 2819.33 2796.2696 2913.3756 2692.3747 2943.1075 2668.0785 2941.7223 2628.7508 2878.1013 2628.7505 2880.1756 2616.7401 2745.1186 2643.7998 2804.8118 2638.7069 2827.3972 2644.9566 2804.5814 Z" fill="none" stroke="#012394" opacity="0.5714285714285714" stroke-width="1" class="chinatown"/>
<path d="M 2755.3142 2908.7662 2697.009 2853.908 2764.5698 2745.5912 2870.5303 2784.3023 2755.3142 2908.7662 Z" fill="none" stroke="#012394" opacity="0.5714285714285714" stroke-width="1" class="chinatown"/>
<path d="M 2954.7556 2844.2114 2781.2286 2864.0515 2746.5231 2834.0893 2785.8542 2774.6286 2954.7556 2844.2114 Z" fill="none" stroke="#012394" opacity="0.5714285714285714" stroke-width="1" class="chinatown"/>
<path d="M 2647.5021 2800.8943 2710.442 2623.918 2945.4742 2705.0152 3006.5906 2876.467 2708.575 2898.6229 2647.5021 2800.8943 Z" fill="none" stroke="#012394" opacity="0.5714285714285714" stroke-width="1" class="chinatown"/>
<path d="M 2803.902 2830.4011 2766.8833 2796.2923 2779.839 2771.4023 2877.9386 2825.7857 2867.7621 2858.0536 2792.7967 2840.5424 2756.7026 2902.3124 2742.8224 2782.4642 2799.2747 2832.245 2865.9104 2851.6004 2803.902 2830.4011 Z" fill="none" stroke="#012394" opacity="0.5714285714285714" stroke-width="1" class="chinatown"/>
<path d="M 2819.6328 2794.4471 2803.8998 2776.9326 2775.6746 2769.5586 2777.0627 2767.7149 2791.8687 2749.2781 2951.9736 2816.0942 2939.4857 2846.9801 2788.17 2868.661 2732.1782 2836.3936 2774.2865 2772.3242 2819.6328 2794.4471 Z" fill="none" stroke="#012394" opacity="0.5714285714285714" stroke-width="1" class="chinatown"/>
<path d="M 2713.2139 2694.8914 2988.0651 2811.477 2869.6129 2857.1315 2673.4171 2772.3197 2713.2139 2694.8914 Z" fill="none" stroke="#012394" opacity="0.5714285714285714" stroke-width="1" class="chinatown"/>
<path d="M 2857.5764 2804.5846 2831.6671 2846.9938 2790.0207 2856.215 2749.2994 2838.6988 2777.9881 2768.6368 2857.5764 2804.5846 Z" fill="none" stroke="#012394" opacity="0.5714285714285714" stroke-width="1" class="chinatown"/>
<path d="M 2887.1812 2732.6781 2845.5488 2840.5394 2766.8833 2801.3626 2816.3887 2700.4221 2887.1812 2732.6781 Z" fill="none" stroke="#012394" opacity="0.5714285714285714" stroke-width="1" class="chinatown"/>
<path d="M 2772.4358 2787.9956 2803.9013 2814.729 2803.9021 2833.6277 2799.7384 2858.5195 2796.0378 2900.007 2777.5275 2929.9717 2765.0324 2913.3761 2746.9845 2901.3903 2724.7725 2881.5676 2718.7566 2882.9502 2700.248 2858.0569 2690.9944 2841.4617 2701.177 2805.5088 2716.9109 2779.6977 2732.6434 2764.9489 2749.3004 2776.9333 2772.4358 2787.9956 Z" fill="none" stroke="#012394" opacity="0.5714285714285714" stroke-width="1" class="chinatown"/>
<path d="M 2863.6035 2917.0589 2807.145 2919.829 2672.018 2882.4858 2724.7769 2778.3153 2806.6719 2682.4482 3036.6378 2765.3715 3004.7402 2878.7723 2863.6035 2917.0589 Z" fill="none" stroke="#012394" opacity="0.5714285714285714" stroke-width="1" class="chinatown"/>
<path d="M 2966.3067 2762.6236 2945.9639 2846.057 2784.0052 2868.6611 2742.821 2841.4644 2809.9113 2698.118 2966.3067 2762.6236 Z" fill="none" stroke="#012394" opacity="0.5714285714285714" stroke-width="1" class="chinatown"/>
<path d="M 2756.2404 2838.6989 2762.9502 2826.0229 2770.0067 2809.6594 2778.0181 2793.7076 2824.2242 2814.6292 2850.2535 2825.9203 2842.2186 2848.0964 2844.0712 2868.3786 2846.0188 2889.1747 2800.2056 2893.7872 2797.8166 2885.0368 2789.2556 2886.0743 2784.5119 2867.8661 2778.9589 2864.2937 2759.9862 2851.8478 2760.2734 2841.3743 2756.2404 2838.6989 Z" fill="none" stroke="#012394" opacity="0.5714285714285714" stroke-width="1" class="chinatown"/>
<path d="M 2903.8555 2852.748 2906.4035 2872.569 2848.5599 2878.5685 2850.1804 2888.2488 2799.7397 2894.4751 2798.1197 2885.0252 2789.7901 2887.0998 2784.468 2867.9697 2741.6642 2839.851 2781.4585 2775.781 2789.0928 2760.5705 2887.4219 2804.5813 2869.6124 2851.8304 2903.8555 2852.748 Z" fill="none" stroke="#012394" opacity="0.5714285714285714" stroke-width="1" class="chinatown"/>
<path d="M 3008.439 2866.3252 2993.6387 2898.1361 2772.4369 2935.5037 2753.0003 2913.1455 2782.1542 2866.1258 2822.409 2792.6032 3008.439 2866.3252 Z" fill="none" stroke="#012394" opacity="0.5714285714285714" stroke-width="1" class="chinatown"/>
<path d="M 2781.2286 2864.743 2769.6599 2857.3677 2769.1971 2840.5428 2794.4145 2782.6945 2821.715 2793.5251 2793.7226 2855.7539 2781.2286 2864.743 Z" fill="none" stroke="#012394" opacity="0.5714285714285714" stroke-width="1" class="chinatown"/>
<path d="M 2765.0324 2809.1985 2804.824 2747.434 2888.1125 2777.8473 2870.5376 2849.756 2850.1819 2905.0745 2728.0126 2860.8242 2687.2928 2836.8519 2730.7917 2790.7605 2765.0324 2809.1985 Z" fill="none" stroke="#012394" opacity="0.5714285714285714" stroke-width="1" class="chinatown"/>
<path d="M 2780.9973 2863.4753 2760.7521 2851.3752 2757.9757 2839.1599 2779.0296 2794.4485 2787.4742 2798.4815 2797.3071 2802.1687 2800.4301 2793.987 2804.2472 2786.2663 2857.6925 2808.8483 2844.8547 2841.0004 2844.0464 2858.9778 2804.4818 2864.627 2780.9973 2863.4753 Z" fill="none" stroke="#012394" opacity="0.5714285714285714" stroke-width="1" class="chinatown"/>
<path d="M 2747.4495 2780.6206 2766.999 2799.7493 2781.3428 2776.1267 2785.8543 2779.9292 2773.8241 2807.009 2789.0942 2816.8037 2808.0638 2769.673 2836.8683 2785.6883 2841.7258 2773.8191 2866.713 2784.1875 2857.4611 2808.5026 2908.8265 2829.5843 2903.3913 2843.1832 2904.434 2853.2088 2844.3935 2859.6692 2843.7002 2869.0038 2787.129 2876.267 2784.3523 2867.0477 2760.2893 2852.7581 2759.8266 2841.6951 2756.4718 2838.3532 2771.2792 2811.1575 2738.3107 2793.2959 2745.3673 2783.3861 2747.4495 2780.6206 Z" fill="none" stroke="#012394" opacity="0.5714285714285714" stroke-width="1" class="chinatown"/>
<path d="M 2770.6933 2809.9674 2807.3487 2825.4927 2823.2325 2853.4988 2842.2049 2852.1146 2845.6786 2888.5307 2800.1993 2894.6669 2798.2323 2885.7932 2789.3981 2886.7563 2783.5708 2867.8932 2759.7034 2849.9546 2759.2407 2840.8508 2757.8525 2837.8546 2770.6933 2809.9674 Z" fill="none" stroke="#012394" opacity="0.5714285714285714" stroke-width="1" class="chinatown"/>
<path d="M 2734.4978 2655.7181 2800.6579 2697.6575 2858.0312 2723.0025 2779.3777 2866.3564 2628.0682 2798.587 2650.76 2645.5727 2734.4978 2655.7181 Z" fill="none" stroke="#012394" opacity="0.5714285714285714" stroke-width="1" class="chinatown"/>
<path d="M 2754.8531 2763.1058 2859.4276 2807.3501 2844.6273 2888.4797 2705.8015 2848.8381 2754.8531 2763.1058 Z" fill="none" stroke="#012394" opacity="0.5714285714285714" stroke-width="1" class="chinatown"/>
<path d="M 2802.9791 2895.858 2790.9464 2864.5123 2739.1192 2836.8548 2790.018 2752.0436 2916.8047 2805.4989 2905.7093 2871.8777 2802.9791 2895.858 Z" fill="none" stroke="#012394" opacity="0.5714285714285714" stroke-width="1" class="chinatown"/>
<path d="M 2807.835 2825.561 2778.9142 2813.3468 2764.8011 2800.2103 2782.6153 2776.2419 2788.1678 2779.0073 2821.4836 2793.986 2807.835 2825.561 Z" fill="none" stroke="#012394" opacity="0.5714285714285714" stroke-width="1" class="chinatown"/>
<path d="M 2807.5982 2705.0314 2828.8819 2716.0915 2852.0162 2721.6204 2864.0461 2724.3846 2875.1524 2740.9758 2876.0808 2766.7867 2870.5327 2805.5052 2860.3569 2846.0695 2838.1453 2845.1495 2830.7405 2831.3215 2818.7092 2825.7909 2795.5737 2858.0587 2768.7344 2846.9961 2740.9703 2833.1672 2710.4315 2804.5875 2746.5256 2706.8757 2763.1819 2680.1447 2807.5982 2705.0314 Z" fill="none" stroke="#012394" opacity="0.5714285714285714" stroke-width="1" class="chinatown"/>
<path d="M 2763.1816 2802.7454 2919.5886 2851.5931 2929.7772 2899.5323 2849.257 2912.4504 2777.0647 2929.9717 2762.2558 2906.9223 2721.533 2884.7942 2763.1816 2802.7454 Z" fill="none" stroke="#012394" opacity="0.5714285714285714" stroke-width="1" class="chinatown"/>
<path d="M 2906.86 2830.6218 2903.3926 2851.5956 2905.9407 2872.1081 2850.8738 2879.7207 2850.8747 2889.8621 2799.0456 2895.6276 2797.657 2885.4862 2790.0214 2884.7949 2784.6994 2869.3526 2760.8677 2852.2971 2759.4796 2840.0818 2757.6287 2838.0075 2793.4885 2764.0273 2879.5552 2801.3557 2874.2354 2813.3407 2906.86 2830.6218 Z" fill="none" stroke="#012394" opacity="0.5714285714285714" stroke-width="1" class="chinatown"/>
<path d="M 2795.5702 2749.278 2874.2321 2785.2238 2841.8479 2853.4464 2782.6169 2862.6686 2735.4173 2838.6985 2789.0925 2749.2782 2795.5702 2749.278 Z" fill="none" stroke="#012394" opacity="0.5714285714285714" stroke-width="1" class="chinatown"/>
<path d="M 2787.2424 2779.4682 2830.9696 2798.8252 2818.478 2828.7871 2778.6828 2811.5031 2787.2424 2779.4682 Z" fill="none" stroke="#012394" opacity="0.5714285714285714" stroke-width="1" class="chinatown"/>
<path d="M 2783.7717 2758.0356 2789.5552 2750.2 2891.8161 2792.8269 2870.5376 2849.5255 2871.4639 2857.1313 2825.4209 2859.6706 2794.417 2864.9731 2791.8717 2856.9064 2780.3031 2864.5125 2716.4458 2825.2149 2745.2517 2781.0815 2745.5987 2779.9292 2766.1892 2746.7435 2783.7717 2758.0356 Z" fill="none" stroke="#012394" opacity="0.5714285714285714" stroke-width="1" class="chinatown"/>
<path d="M 2930.6929 2842.8331 2870.5377 2850.217 2815.4698 2821.6426 2849.7024 2717.0117 2940.8567 2754.3322 2930.6929 2842.8331 Z" fill="none" stroke="#012394" opacity="0.5714285714285714" stroke-width="1" class="chinatown"/>
<path d="M 2802.9795 2906.9215 2796.5 2883.8728 2777.9894 2862.6687 2743.7464 2843.3082 2733.5665 2835.0108 2774.2865 2769.5586 2860.8159 2809.1937 2882.1022 2817.9492 2856.655 2846.0698 2845.0875 2858.0558 2851.1073 2903.6915 2804.368 2909.6874 2802.9795 2906.9215 Z" fill="none" stroke="#012394" opacity="0.5714285714285714" stroke-width="1" class="chinatown"/>
<path d="M 2945.2647 2819.3221 2925.3743 2860.1199 2930.241 2905.064 2852.0344 2920.0565 2806.6826 2927.6659 2776.602 2937.5782 2731.2511 2882.7203 2740.5064 2875.1145 2765.0324 2871.4271 2778.9149 2865.6649 2740.9701 2840.7729 2761.7934 2808.968 2752.5391 2801.593 2788.3985 2750.2 2834.2064 2768.4039 2895.9807 2793.7482 2945.2647 2819.3221 Z" fill="none" stroke="#012394" opacity="0.5714285714285714" stroke-width="1" class="chinatown"/>
<path d="M 2762.9501 2854.141 2742.474 2840.1968 2762.0248 2805.9719 2781.3435 2813.6925 2870.5378 2851.7151 2872.276 2876.8375 2797.4256 2885.2557 2755.3144 2891.4794 2756.0087 2872.9252 2762.2559 2869.3527 2762.9501 2854.141 Z" fill="none" stroke="#012394" opacity="0.5714285714285714" stroke-width="1" class="chinatown"/>
<path d="M 2758.092 2759.4185 2825.1855 2795.3686 2808.5289 2822.5648 2831.2053 2860.3617 2905.2438 2853.4392 2908.0232 2872.7993 2768.7345 2886.1782 2783.0796 2862.2076 2759.0168 2851.1447 2765.4952 2820.2611 2732.1794 2801.8229 2758.092 2759.4185 Z" fill="none" stroke="#012394" opacity="0.5714285714285714" stroke-width="1" class="chinatown"/>
<path d="M 2740.7383 2854.3711 2756.472 2818.6477 2793.4904 2826.2529 2811.54 2890.3258 2771.9741 2924.4398 2723.8467 2888.9431 2740.7383 2854.3711 Z" fill="none" stroke="#012394" opacity="0.5714285714285714" stroke-width="1" class="chinatown"/>
<path d="M 2821.021 2794.447 2814.0811 2811.041 2851.7944 2825.9037 2854.2238 2826.5949 2847.6313 2842.7287 2870.4221 2851.7151 2871.1168 2856.9008 2846.7072 2859.0928 2846.5924 2869.4645 2786.8976 2875.4603 2785.2778 2868.8916 2779.3776 2863.4753 2760.405 2851.7209 2759.4796 2840.7732 2738.1941 2826.3682 2760.2896 2793.8724 2775.4433 2771.4023 2786.0856 2778.0855 2782.3841 2787.0736 2787.3585 2798.3663 2773.8241 2804.4739 2774.0555 2807.9309 2780.9964 2813.2316 2789.7883 2817.1494 2788.0526 2798.712 2802.8591 2785.8055 2821.021 2794.447 Z" fill="none" stroke="#012394" opacity="0.5714285714285714" stroke-width="1" class="chinatown"/>
<path d="M 2805.7553 2887.5603 2771.5106 2809.1985 2784.4661 2773.2458 2863.1294 2808.2716 2852.952 2834.0854 2834.4452 2870.0417 2805.7553 2887.5603 Z" fill="none" stroke="#012394" opacity="0.5714285714285714" stroke-width="1" class="chinatown"/>
<path d="M 2819.9292 2781.9513 2777.3611 2872.2982 2671.8548 2857.5428 2726.4635 2744.157 2819.9292 2781.9513 Z" fill="none" stroke="#012394" opacity="0.5714285714285714" stroke-width="1" class="chinatown"/>
<path d="M 2869.8362 2783.8415 2893.4355 2792.1353 2883.0276 2817.4881 2988.7706 2860.1071 2871.0034 2876.7224 2845.7843 2889.4016 2799.7397 2894.9361 2756.4713 2889.1745 2736.5737 2853.2186 2762.7188 2807.8157 2790.4806 2751.1218 2789.7866 2749.8543 2829.8107 2767.8281 2841.1441 2732.222 2880.4742 2748.1192 2869.8362 2783.8415 Z" fill="none" stroke="#012394" opacity="0.5714285714285714" stroke-width="1" class="chinatown"/>
<path d="M 2743.7479 2781.5424 2759.4801 2763.1058 2779.839 2774.1678 2765.0325 2799.0579 2743.7479 2781.5424 Z" fill="none" stroke="#012394" opacity="0.5714285714285714" stroke-width="1" class="chinatown"/>
<path d="M 2761.7934 2805.7415 2780.9958 2773.9373 2810.8409 2787.9945 2815.4673 2774.1666 2836.2898 2784.3055 2840.9161 2773.9344 2868.4481 2784.0721 2846.2428 2840.0784 2878.8674 2853.4427 2887.6596 2853.9026 2889.7446 2874.1847 2873.7799 2876.4916 2875.8647 2897.0047 2802.2855 2909.918 2798.5825 2885.2557 2788.1704 2886.4084 2781.46 2865.2039 2759.9423 2851.3752 2756.7032 2838.238 2769.891 2810.1204 2761.7934 2805.7415 Z" fill="none" stroke="#012394" opacity="0.5714285714285714" stroke-width="1" class="chinatown"/>
<path d="M 2661.6068 2875.1091 2647.0311 2866.349 2671.3293 2828.7838 2684.5164 2837.3126 2661.6068 2875.1091 Z" fill="none" stroke="#012394" opacity="0.5714285714285714" stroke-width="1" class="chinatown"/>
<path d="M 2745.5987 2780.6206 2780.3023 2813.3468 2808.9917 2823.9476 2821.021 2794.447 2933.4685 2838.2231 2848.3286 2879.26 2755.3144 2888.944 2745.5987 2780.6206 Z" fill="none" stroke="#012394" opacity="0.5714285714285714" stroke-width="1" class="chinatown"/>
<path d="M 2727.1028 2474.6158 2666.045 2476.4545 2673.4491 2443.2799 2677.1586 2345.6041 2677.1579 2352.9755 2756.7075 2369.5656 2786.3088 2408.267 2786.3092 2426.6969 2727.1028 2474.6158 Z" fill="none" stroke="#012394" opacity="0.5714285714285714" stroke-width="1" class="chinatown"/>
<path d="M 2831.1821 2769.363 2859.408 2780.4228 2849.4246 2805.3761 2881.7817 2819.4045 2874.3153 2876.6876 2798.7216 2884.9144 2789.6743 2886.78 2784.6992 2865.5755 2778.8522 2862.6948 2770.5087 2857.4413 2759.9812 2850.1812 2759.3964 2841.1923 2737.008 2825.1807 2754.1195 2802.5824 2774.9448 2771.6264 2789.0928 2751.2486 2831.1821 2769.363 Z" fill="none" stroke="#012394" opacity="0.5714285714285714" stroke-width="1" class="chinatown"/>
<path d="M 2800.1954 2702.2663 2984.3536 2769.5333 2951.0636 2894.9185 2674.3207 2997.2752 2644.7325 2748.349 2795.5686 2697.6577 2800.1954 2702.2663 Z" fill="none" stroke="#012394" opacity="0.5714285714285714" stroke-width="1" class="chinatown"/>
<path d="M 2796.0326 2739.8294 2831.4295 2758.0335 2830.2734 2767.2519 2883.7183 2789.8319 2869.1495 2850.9086 2826.8086 2851.1427 2821.9487 2832.4744 2807.835 2825.7914 2792.5657 2852.7577 2779.609 2863.8211 2731.2528 2834.7803 2796.0326 2739.8294 Z" fill="none" stroke="#012394" opacity="0.5714285714285714" stroke-width="1" class="chinatown"/>
<path d="M 2757.3973 2839.1599 2787.1267 2778.0855 2803.0904 2785.6902 2808.6422 2770.0186 2865.3262 2796.748 2859.8905 2809.309 2865.6748 2811.4979 2846.0131 2859.2081 2782.2698 2865.2039 2759.4795 2851.9514 2757.3973 2839.1599 Z" fill="none" stroke="#012394" opacity="0.5714285714285714" stroke-width="1" class="chinatown"/>
<path d="M 2738.0794 2791.5674 2805.1742 2824.7544 2877.7108 2855.6324 2780.5345 2865.3192 2716.3301 2824.9845 2738.0794 2791.5674 Z" fill="none" stroke="#012394" opacity="0.5714285714285714" stroke-width="1" class="chinatown"/>
<path d="M 2774.2865 2770.4805 2861.279 2812.8811 2841.8481 2856.2122 2777.9894 2862.6687 2735.4175 2833.1671 2774.2865 2770.4805 Z" fill="none" stroke="#012394" opacity="0.5714285714285714" stroke-width="1" class="chinatown"/>
<path d="M 2846.4636 2716.0902 2861.27 2723.4631 2888.5694 2733.1388 2881.6308 2746.9668 2873.306 2779.2319 2864.9801 2805.9667 2855.7274 2824.4052 2849.2509 2843.3048 2828.8898 2835.0092 2804.3646 2827.1744 2783.5416 2823.0265 2759.4798 2810.5813 2738.6576 2796.2919 2796.0329 2750.1998 2812.6905 2761.7219 2830.2733 2765.4082 2838.1383 2753.8848 2846.4636 2716.0902 Z" fill="none" stroke="#012394" opacity="0.5714285714285714" stroke-width="1" class="chinatown"/>
<path d="M 2751.8443 2846.3046 2752.3071 2843.0779 2788.1677 2774.6285 2751.8443 2846.3046 Z" fill="none" stroke="#012394" opacity="0.5714285714285714" stroke-width="1" class="chinatown"/>
<path d="M 2870.7698 2856.6704 2758.7858 2794.9095 2788.6298 2749.0478 2891.5851 2795.3621 2870.5376 2849.2951 2870.7698 2856.6704 Z" fill="none" stroke="#012394" opacity="0.5714285714285714" stroke-width="1" class="chinatown"/>
<path d="M 2623.4357 2834.0788 2634.5439 2815.6426 2669.7091 2835.0065 2657.676 2852.5215 2623.4357 2834.0788 Z" fill="none" stroke="#012394" opacity="0.5714285714285714" stroke-width="1" class="chinatown"/>
<path d="M 2766.1893 2821.4134 2756.3563 2816.4582 2770.8164 2790.7612 2813.8497 2810.8105 2820.7896 2793.7556 2935.0884 2840.2971 2926.0698 2868.1867 2799.2766 2884.3337 2793.0285 2855.8692 2799.3907 2842.1555 2763.7599 2826.8295 2766.1893 2821.4134 Z" fill="none" stroke="#012394" opacity="0.5714285714285714" stroke-width="1" class="chinatown"/>
<path d="M 2728.9441 2705.0316 2823.3284 2694.8911 2859.4243 2774.1632 2811.3076 2869.1212 2702.1003 2837.7749 2728.9441 2705.0316 Z" fill="none" stroke="#012394" opacity="0.5714285714285714" stroke-width="1" class="chinatown"/>
<path d="M 2842.3105 2852.0635 2844.6247 2857.5949 2793.2602 2867.278 2781.2286 2864.5125 2759.9423 2851.1447 2757.1659 2836.3942 2770.5851 2811.5032 2765.9579 2798.1361 2794.1822 2752.9653 2868.2166 2782.9198 2845.5489 2841.9222 2842.3105 2852.0635 Z" fill="none" stroke="#012394" opacity="0.5714285714285714" stroke-width="1" class="chinatown"/>
<path d="M 2843.4681 2860.1302 2790.4837 2865.4342 2785.3933 2860.3637 2779.8404 2863.8211 2759.9423 2851.8362 2759.7109 2840.7732 2756.2404 2838.238 2773.8241 2806.6633 2793.2571 2761.9532 2861.9713 2794.9046 2841.6163 2850.4502 2843.4681 2860.1302 Z" fill="none" stroke="#012394" opacity="0.5714285714285714" stroke-width="1" class="chinatown"/>
<path d="M 2821.0209 2793.5251 2888.5809 2821.6359 2841.3893 2905.5363 2784.0052 2866.8173 2821.0209 2793.5251 Z" fill="none" stroke="#012394" opacity="0.5714285714285714" stroke-width="1" class="chinatown"/>
<path d="M 2787.2433 2817.9561 2790.0197 2818.8779 2790.0196 2817.0341 2794.6469 2817.495 2798.3488 2818.4167 2802.5133 2818.4166 2806.2152 2819.7992 2809.4543 2821.1819 2814.5444 2823.0254 2819.1718 2824.869 2822.4112 2829.0173 2825.1878 2832.7047 2825.1881 2836.8533 2823.8002 2842.3848 2821.024 2845.6116 2816.3968 2849.7605 2812.6949 2851.6045 2807.1421 2852.5267 2801.5892 2852.9879 2795.1107 2850.6833 2791.4087 2848.8396 2786.7812 2847.4568 2783.542 2845.6131 2780.3028 2844.2303 2778.4518 2841.4646 2777.5263 2838.6989 2777.5263 2836.3941 2778.4517 2833.6284 2778.9144 2829.9408 2781.228 2826.7142 2784.0043 2821.6437 2787.2433 2817.9561 Z" fill="none" stroke="#012394" opacity="0.5714285714285714" stroke-width="1" class="chinatown"/>
<path d="M 2780.7645 2775.5505 2919.1192 2811.0298 2906.1687 2849.2904 2903.6269 2871.6475 2846.2462 2879.9516 2753.6949 2873.5014 2726.6243 2862.8984 2757.629 2793.7572 2766.1892 2800.095 2780.7645 2775.5505 Z" fill="none" stroke="#012394" opacity="0.5714285714285714" stroke-width="1" class="chinatown"/>
<path d="M 2829.5794 2768.4042 2869.605 2784.7634 2848.5567 2841.922 2807.3722 2824.8696 2798.8123 2841.6946 2763.6442 2827.4057 2785.6229 2778.5464 2821.9464 2794.4469 2829.5794 2768.4042 Z" fill="none" stroke="#012394" opacity="0.5714285714285714" stroke-width="1" class="chinatown"/>
<path d="M 2864.065 2905.0732 2800.1971 2748.356 2952.8997 2819.3206 2939.9571 2893.9987 2864.065 2905.0732 Z" fill="none" stroke="#012394" opacity="0.5714285714285714" stroke-width="1" class="chinatown"/>
<path d="M 2801.1142 2528.989 3000.0527 2637.716 2918.6555 2804.5767 2710.4366 2717.9356 2801.1142 2528.989 Z" fill="none" stroke="#012394" opacity="0.5714285714285714" stroke-width="1" class="chinatown"/>
<path d="M 2797.8884 2886.1776 2780.3031 2864.0515 2759.4795 2852.0666 2748.374 2833.1674 2779.839 2773.7069 2820.5581 2792.1424 2828.4227 2768.6348 2870.0679 2786.607 2846.9369 2839.6173 2800.2021 2883.8727 2797.8884 2886.1776 Z" fill="none" stroke="#012394" opacity="0.5714285714285714" stroke-width="1" class="chinatown"/>
<path d="M 2840.9112 2713.3253 2856.6368 2658.0186 2903.8156 2580.5908 2873.2819 2567.6917 2873.2805 2555.7104 2865.8795 2561.241 2854.7762 2552.0258 2833.4963 2544.6546 2802.0393 2526.2242 2844.5914 2459.8686 3037.0391 2551.991 3048.1605 2615.5821 2968.6205 2764.0058 2840.9112 2713.3253 Z" fill="none" stroke="#012394" opacity="0.5714285714285714" stroke-width="1" class="chinatown"/>
<path d="M 2906.6352 2874.6433 2891.5951 2870.2663 2869.6143 2869.347 2848.0972 2878.799 2828.2009 2912.913 2806.9135 2916.3716 2806.2191 2911.9922 2760.8677 2852.0666 2763.4129 2827.1752 2760.1739 2803.8977 2790.2495 2760.801 2906.6352 2874.6433 Z" fill="none" stroke="#012394" opacity="0.5714285714285714" stroke-width="1" class="chinatown"/>
<path d="M 2770.8165 2810.1204 2772.436 2807.5852 2765.4952 2798.8275 2771.7418 2790.9916 2805.2891 2805.9711 2816.1614 2774.1665 2844.8504 2789.3751 2840.2242 2802.051 2850.173 2805.5072 2852.2546 2798.593 2886.0347 2812.1869 2871.6938 2843.533 2855.0346 2838.0033 2852.2588 2844.4569 2850.4085 2851.1409 2870.3069 2855.7485 2873.5484 2875.5696 2789.79 2885.4864 2784.6993 2867.9697 2760.405 2852.2971 2759.0168 2840.5427 2757.1659 2839.3903 2770.8165 2810.1204 Z" fill="none" stroke="#012394" opacity="0.5714285714285714" stroke-width="1" class="chinatown"/></svg>