<?xml version="1.0"?><svg xmlns="http://www.w3.org/2000/svg" version="1.2" baseProfile="tiny" width="6000" height="5918" viewBox="0 0 6000 5918" stroke-linecap="round" stroke-linejoin="round"><path d="M 3841.6736 1105.6892 3819.5871 1042.0769 3830.1296 1011.5756 3880.4788 1018.6485 3801.001 1081.5791 3841.6736 1105.6892 Z" fill="none" stroke="#12852D" opacity="0.6" stroke-width="1" class="claremont"/>
<path d="M 2817.7655 2496.7327 2991.7096 2572.279 3019.5076 2727.121 2880.7162 2835.9262 2719.6871 2780.6197 2727.0962 2636.8227 2817.7655 2496.7327 Z" fill="none" stroke="#12852D" opacity="0.6" stroke-width="1" class="claremont"/>
<path d="M 3834.092 1323.3372 3803.575 1300.3606 3692.691 1292.1925 3676.9783 1286.6854 3615.0487 1259.1316 3638.1136 1223.2166 3676.8209 1123.7884 3735.8376 1020.6678 3747.8264 1002.2527 3801.8679 932.6046 3826.6808 920.4544 3886.5688 798.0267 3917.9568 789.7095 3981.6973 806.1881 4022.3722 837.4131 4038.1763 914.6723 4024.813 1009.5007 3860.373 1307.4177 3834.092 1323.3372 Z" fill="none" stroke="#12852D" opacity="0.6" stroke-width="1" class="claremont"/>
<path d="M 4102.6633 456.69 4159.9497 491.5524 4304.673 359.8287 4302.1693 522.5992 4276.3506 541.954 4298.6636 637.5697 4214.7677 719.5659 4046.6219 655.4219 3883.195 658.3893 4026.0108 432.8864 4084.225 474.1885 4102.6633 456.69 Z" fill="none" stroke="#12852D" opacity="0.6" stroke-width="1" class="claremont"/>
<path d="M 3820.6384 1110.8356 3794.195 1099.9687 3833.0827 1013.1743 3865.6505 1019.4191 3869.8369 1028.6099 3858.8257 1038.7619 3861.2578 1044.0707 3867.2535 1036.8175 3869.4423 1032.5592 3872.2116 1031.0519 3864.8689 1046.7941 3869.2487 1038.8893 3866.8328 1046.4835 3858.547 1053.485 3856.8284 1065.1043 3861.5538 1057.5073 3862.1284 1055.2062 3864.3172 1050.8328 3820.6384 1110.8356 Z" fill="none" stroke="#12852D" opacity="0.6" stroke-width="1" class="claremont"/>
<path d="M 3709.0425 1016.4467 4002.8537 1075.9179 3915.9587 1024.4982 3868.834 1010.7524 3720.1119 1001.7135 4002.8657 1085.1199 3960.415 1118.3027 3900.4153 1157.0276 3850.5584 1182.8544 3746.259 1275.0032 3701.0069 1296.2184 3591.9455 1257.6638 3612.2454 1228.1944 3626.071 1192.2891 3644.5242 1166.5037 3659.2689 1127.8387 3685.1065 1098.3664 3691.544 1068.9135 3709.0425 1016.4467 Z" fill="none" stroke="#12852D" opacity="0.6" stroke-width="1" class="claremont"/></svg>