<?xml version="1.0"?><svg xmlns="http://www.w3.org/2000/svg" version="1.2" baseProfile="tiny" width="6000" height="5918" viewBox="0 0 6000 5918" stroke-linecap="round" stroke-linejoin="round"><path d="M 4242.6545 1427.1534 4451.4133 1378.9365 4427.7158 1564.9363 4279.8428 1567.0267 4266.9094 1570.7301 4214.0275 1440.0855 4190.9082 1429.0742 4242.6545 1427.1534 Z" fill="none" stroke="#865327" opacity="0.6" stroke-width="1" class="clason_point"/>
<path d="M 4220.0239 1433.4023 4258.5943 1426.6681 4311.0243 1419.2193 4317.5399 1447.7455 4338.34 1452.3139 4349.0199 1483.5957 4391.0574 1477.08 4389.7077 1498.2561 4380.5071 1522.208 4409.6846 1559.9043 4324.6822 1575.7001 4286.2856 1550.4443 4220.0239 1433.4023 Z" fill="none" stroke="#865327" opacity="0.6" stroke-width="1" class="clason_point"/>
<path d="M 4222.2833 1400.4899 4225.5157 1399.3342 4299.8788 1384.4881 4325.7986 1412.5212 4376.4363 1573.7718 4294.6177 1559.1772 4236.0578 1493.2147 4222.2833 1400.4899 Z" fill="none" stroke="#865327" opacity="0.6" stroke-width="1" class="clason_point"/>
<path d="M 4402.4693 1396.5123 4416.4721 1477.4962 4406.3161 1483.0375 4382.4083 1553.0464 4315.8695 1555.9201 4201.0732 1429.0587 4299.009 1417.8582 4402.4693 1396.5123 Z" fill="none" stroke="#865327" opacity="0.6" stroke-width="1" class="clason_point"/>
<path d="M 4311.718 1560.5303 4170.3177 1409.3136 4335.9083 1379.3661 4341.2711 1409.0435 4362.2868 1404.8658 4390.7282 1554.183 4351.9371 1569.6702 4311.718 1560.5303 Z" fill="none" stroke="#865327" opacity="0.6" stroke-width="1" class="clason_point"/>
<path d="M 4406.6805 1559.6793 4406.2204 1560.831 4341.7723 1570.723 4293.7008 1563.6669 4286.4063 1481.9726 4265.8433 1481.5453 4216.4405 1431.7968 4308.8261 1417.0367 4406.6805 1559.6793 Z" fill="none" stroke="#865327" opacity="0.6" stroke-width="1" class="clason_point"/>
<path d="M 4308.2468 1416.002 4353.5112 1406.7217 4392.4317 1470.1733 4423.0915 1563.1031 4330.7318 1601.0092 4160.435 1443.8485 4308.2468 1416.002 Z" fill="none" stroke="#865327" opacity="0.6" stroke-width="1" class="clason_point"/>
<path d="M 4397.2021 1556.7036 4326.8732 1503.4256 4288.0657 1508.0921 4226.9564 1434.5422 4310.0874 1411.3964 4381.3406 1469.2718 4397.2021 1556.7036 Z" fill="none" stroke="#865327" opacity="0.6" stroke-width="1" class="clason_point"/>
<path d="M 4019.8055 1319.7831 4010.5122 1279.2972 4182.3079 1240.3989 4434.9158 1194.4288 4491.5257 1333.3045 4409.233 1565.8933 4320.0588 1574.3305 4286.2938 1555.5118 4263.0905 1493.8665 4193.3021 1484.3084 4158.1016 1428.2065 4146.079 1421.7804 4074.8861 1394.2663 4033.2565 1359.3446 4019.8055 1319.7831 Z" fill="none" stroke="#865327" opacity="0.6" stroke-width="1" class="clason_point"/>
<path d="M 4307.3243 1416.9241 4333.7034 1442.6557 4378.0872 1458.2304 4384.2014 1520.8208 4400.8942 1553.9352 4410.6072 1558.982 4399.5358 1570.0493 4376.4379 1574.6924 4343.6268 1574.2876 4298.3221 1563.7745 4280.7359 1547.6913 4281.6069 1514.5469 4267.6988 1486.0302 4245.029 1468.1146 4228.3697 1452.0306 4215.8778 1441.4635 4214.4818 1435.0218 4226.9521 1431.7806 4307.3243 1416.9241 Z" fill="none" stroke="#865327" opacity="0.6" stroke-width="1" class="clason_point"/>
<path d="M 4403.6646 1552.6645 4405.6338 1555.6532 4404.4899 1562.215 4397.6801 1565.9095 4372.9618 1568.7139 4351.4748 1569.5559 4296.9266 1558.1377 4292.7586 1552.6204 4291.4819 1548.9399 4291.2382 1541.1147 4291.4581 1534.2095 4281.7835 1480.7143 4269.6576 1482.9201 4254.853 1471.3212 4231.0288 1453.5224 4218.9988 1442.8395 4216.5559 1431.6816 4307.4371 1415.313 4336.493 1453.0074 4376.0423 1478.3716 4378.8431 1494.9376 4403.6646 1552.6645 Z" fill="none" stroke="#865327" opacity="0.6" stroke-width="1" class="clason_point"/>
<path d="M 4138.7924 1177.417 4135.9841 1152.1133 4162.7708 1149.3131 4207.1127 1148.3261 4229.3078 1163.4765 4146.6808 1201.7937 4141.1296 1196.2799 4137.8552 1168.2154 4138.7924 1177.417 Z" fill="none" stroke="#865327" opacity="0.6" stroke-width="1" class="clason_point"/></svg>