<?xml version="1.0"?><svg xmlns="http://www.w3.org/2000/svg" version="1.2" baseProfile="tiny" width="6000" height="5918" viewBox="0 0 6000 5918" stroke-linecap="round" stroke-linejoin="round"><path d="M 2791.8807 3181.7086 2847.431 3201.3031 2809.7083 3304.6038 2752.5324 3283.852 2791.8807 3181.7086 Z" fill="none" stroke="#FBC20F" opacity="0.373134328358209" stroke-width="1" class="cobble_hill"/>
<path d="M 2790.9547 3172.4863 2972.5859 3258.5549 2927.4188 3341.0127 2757.9677 3260.7819 2790.9547 3172.4863 Z" fill="none" stroke="#FBC20F" opacity="0.373134328358209" stroke-width="1" class="cobble_hill"/>
<path d="M 2791.8808 3182.8614 2848.8198 3201.7641 2838.4065 3231.7387 2823.8265 3268.8624 2802.5331 3323.7431 2743.9673 3302.2987 2760.6342 3263.5609 2774.9852 3227.3607 2791.8808 3182.8614 Z" fill="none" stroke="#FBC20F" opacity="0.373134328358209" stroke-width="1" class="cobble_hill"/>
<path d="M 2788.8718 3180.7864 2848.1254 3202.2253 2880.9941 3216.5169 2831.237 3315.9014 2810.4028 3305.2955 2750.6806 3283.6213 2788.8718 3180.7864 Z" fill="none" stroke="#FBC20F" opacity="0.373134328358209" stroke-width="1" class="cobble_hill"/>
<path d="M 2789.1033 3179.8642 2881.92 3216.7474 2839.5689 3295.8396 2759.4769 3265.1749 2789.3347 3181.017 2789.1033 3179.8642 Z" fill="none" stroke="#FBC20F" opacity="0.373134328358209" stroke-width="1" class="cobble_hill"/>
<path d="M 2847.4428 3337.576 2807.6249 3303.4509 2828.9172 3242.5763 2849.2872 3252.72 2896.5077 3257.3262 2884.4749 3286.8422 2847.4428 3337.576 Z" fill="none" stroke="#FBC20F" opacity="0.373134328358209" stroke-width="1" class="cobble_hill"/>
<path d="M 2824.2847 3191.8518 2819.6554 3189.0853 2901.1334 3231.5012 2823.3671 3325.5868 2780.773 3305.2965 2824.2847 3191.8518 Z" fill="none" stroke="#FBC20F" opacity="0.373134328358209" stroke-width="1" class="cobble_hill"/>
<path d="M 2760.4028 3265.1749 2789.5662 3183.092 2852.5233 3203.8389 2815.4945 3287.3095 2760.4028 3265.1749 Z" fill="none" stroke="#FBC20F" opacity="0.373134328358209" stroke-width="1" class="cobble_hill"/>
<path d="M 2788.6404 3183.092 2843.0334 3201.9952 2844.4222 3203.3784 2815.2628 3284.3119 2761.0972 3263.7915 2788.6404 3183.092 Z" fill="none" stroke="#FBC20F" opacity="0.373134328358209" stroke-width="1" class="cobble_hill"/>
<path d="M 2865.9485 3209.8322 2882.1516 3217.6696 2830.774 3315.4403 2746.5141 3282.2378 2788.1774 3178.0197 2865.9485 3209.8322 Z" fill="none" stroke="#FBC20F" opacity="0.373134328358209" stroke-width="1" class="cobble_hill"/>
<path d="M 2973.3571 3262.3851 2917.358 3368.929 2744.1989 3301.1457 2744.6619 3298.8399 2788.1775 3183.092 2973.3571 3262.3851 Z" fill="none" stroke="#FBC20F" opacity="0.373134328358209" stroke-width="1" class="cobble_hill"/>
<path d="M 2789.7976 3180.3253 2881.2256 3216.5169 2840.7264 3297.9148 2817.1147 3285.9259 2758.551 3264.7138 2789.7976 3180.3253 Z" fill="none" stroke="#FBC20F" opacity="0.373134328358209" stroke-width="1" class="cobble_hill"/>
<path d="M 2797.4355 3178.0195 2869.6522 3213.0597 2889.0963 3224.1247 2845.5879 3302.5261 2773.3653 3278.5486 2759.4769 3265.6361 2797.4355 3178.0195 Z" fill="none" stroke="#FBC20F" opacity="0.373134328358209" stroke-width="1" class="cobble_hill"/>
<path d="M 2848.5884 3202.2253 2816.4204 3287.0789 2758.088 3264.4832 2789.3347 3179.6336 2789.1033 3181.017 2848.5884 3202.2253 Z" fill="none" stroke="#FBC20F" opacity="0.373134328358209" stroke-width="1" class="cobble_hill"/>
<path d="M 2927.9847 3239.7976 2887.2566 3317.7406 2839.5695 3303.9101 2865.0228 3211.2157 2927.9847 3239.7976 Z" fill="none" stroke="#FBC20F" opacity="0.373134328358209" stroke-width="1" class="cobble_hill"/>
<path d="M 2847.6625 3201.7642 2816.8832 3284.773 2758.551 3264.7138 2790.492 3180.5558 2847.6625 3201.7642 Z" fill="none" stroke="#FBC20F" opacity="0.373134328358209" stroke-width="1" class="cobble_hill"/>
<path d="M 2789.5663 3183.5531 2843.2649 3202.9174 2815.0317 3290.5377 2757.6251 3267.9419 2789.5663 3183.5531 Z" fill="none" stroke="#FBC20F" opacity="0.373134328358209" stroke-width="1" class="cobble_hill"/>
<path d="M 2815.2628 3284.7731 2839.332 3227.1273 2916.8785 3265.8546 2890.9606 3319.1237 2815.2628 3284.7731 Z" fill="none" stroke="#FBC20F" opacity="0.373134328358209" stroke-width="1" class="cobble_hill"/>
<path d="M 2839.8005 3297.9148 2816.8832 3285.9259 2740.4963 3258.2573 2771.05 3174.3311 2848.3568 3201.303 2881.4572 3217.4391 2866.878 3244.6482 2839.8005 3297.9148 Z" fill="none" stroke="#FBC20F" opacity="0.373134328358209" stroke-width="1" class="cobble_hill"/>
<path d="M 2789.3348 3183.3226 2882.3828 3215.5945 2875.2091 3228.9683 2822.4414 3330.8906 2744.1988 3303.4516 2789.3348 3183.3226 Z" fill="none" stroke="#FBC20F" opacity="0.373134328358209" stroke-width="1" class="cobble_hill"/>
<path d="M 2847.6626 3202.6865 2904.3736 3229.4256 2877.0672 3283.3843 2826.6035 3257.7945 2847.6626 3202.6865 Z" fill="none" stroke="#FBC20F" opacity="0.373134328358209" stroke-width="1" class="cobble_hill"/>
<path d="M 2702.0699 3291.4592 2764.5694 3168.9093 2926.1339 3245.3317 2862.2605 3359.7122 2702.0699 3291.4592 Z" fill="none" stroke="#FBC20F" opacity="0.373134328358209" stroke-width="1" class="cobble_hill"/>
<path d="M 2831.4684 3315.9014 2709.2471 3268.1708 2746.9793 3163.7253 2881.6886 3217.4391 2831.4684 3315.9014 Z" fill="none" stroke="#FBC20F" opacity="0.373134328358209" stroke-width="1" class="cobble_hill"/>
<path d="M 2789.3348 3183.3226 2846.9682 3203.1477 2800.9128 3326.2797 2739.5691 3304.835 2789.3348 3183.3226 Z" fill="none" stroke="#FBC20F" opacity="0.373134328358209" stroke-width="1" class="cobble_hill"/>
<path d="M 2759.013 3397.5366 2729.8454 3342.1908 2790.492 3181.7086 2881.2258 3218.1309 2792.3502 3411.8342 2759.013 3397.5366 Z" fill="none" stroke="#FBC20F" opacity="0.373134328358209" stroke-width="1" class="cobble_hill"/>
<path d="M 2784.4741 3176.1753 2849.2827 3201.7641 2803.1118 3323.7431 2703.6905 3287.5394 2784.4741 3176.1753 Z" fill="none" stroke="#FBC20F" opacity="0.373134328358209" stroke-width="1" class="cobble_hill"/>
<path d="M 2786.3259 3180.7865 2803.9166 3190.0083 2822.4332 3194.6186 2841.8764 3206.6065 2839.1004 3225.0521 2827.9919 3251.7994 2820.5856 3263.7899 2787.2532 3249.0343 2760.4029 3234.2778 2786.3259 3180.7865 Z" fill="none" stroke="#FBC20F" opacity="0.373134328358209" stroke-width="1" class="cobble_hill"/>
<path d="M 2790.2605 3180.7864 2847.1996 3201.7642 2838.4063 3228.9719 2868.2668 3243.9563 2841.6523 3297.6841 2759.2454 3264.7138 2790.2605 3180.7864 Z" fill="none" stroke="#FBC20F" opacity="0.373134328358209" stroke-width="1" class="cobble_hill"/>
<path d="M 2758.088 3264.4832 2789.4504 3179.9794 2846.7367 3202.2254 2815.9574 3286.8483 2758.088 3264.4832 Z" fill="none" stroke="#FBC20F" opacity="0.373134328358209" stroke-width="1" class="cobble_hill"/>
<path d="M 2758.5512 3234.2778 2838.1768 3254.5656 2799.2952 3404.9156 2756.698 3394.7692 2711.3288 3295.1492 2716.887 3243.4995 2743.7371 3250.8789 2758.5512 3234.2778 Z" fill="none" stroke="#FBC20F" opacity="0.373134328358209" stroke-width="1" class="cobble_hill"/>
<path d="M 2785.4 3179.8643 2848.1254 3201.9947 2905.2995 3229.6561 2865.7279 3312.4395 2813.874 3285.6955 2755.7733 3262.8691 2785.4 3179.8643 Z" fill="none" stroke="#FBC20F" opacity="0.373134328358209" stroke-width="1" class="cobble_hill"/>
<path d="M 2839.8005 3298.1454 2773.1338 3271.6312 2804.3798 3196.464 2875.6723 3231.9657 2866.6462 3241.1896 2839.8005 3298.1454 Z" fill="none" stroke="#FBC20F" opacity="0.373134328358209" stroke-width="1" class="cobble_hill"/>
<path d="M 2793.7324 3183.553 2885.3917 3215.3635 2831.0053 3314.0567 2756.9305 3281.5462 2793.7324 3183.553 Z" fill="none" stroke="#FBC20F" opacity="0.373134328358209" stroke-width="1" class="cobble_hill"/>
<path d="M 2790.0291 3180.0947 2847.6624 3201.0725 2816.4203 3285.9259 2758.551 3264.7138 2790.0291 3180.0947 Z" fill="none" stroke="#FBC20F" opacity="0.373134328358209" stroke-width="1" class="cobble_hill"/>
<path d="M 2847.1995 3201.3031 2812.4856 3295.6107 2756.0047 3274.1675 2789.5662 3180.7864 2847.1995 3201.3031 Z" fill="none" stroke="#FBC20F" opacity="0.373134328358209" stroke-width="1" class="cobble_hill"/>
<path d="M 2789.1033 3181.2475 2866.8743 3209.371 2906.4567 3229.1948 2854.6182 3328.8127 2809.4768 3305.065 2750.9121 3283.8519 2789.1033 3181.2475 Z" fill="none" stroke="#FBC20F" opacity="0.373134328358209" stroke-width="1" class="cobble_hill"/>
<path d="M 2788.1774 3179.4031 2883.5403 3217.2083 2854.3812 3270.7047 2839.569 3297.4537 2760.6342 3263.7915 2788.1774 3179.4031 Z" fill="none" stroke="#FBC20F" opacity="0.373134328358209" stroke-width="1" class="cobble_hill"/>
<path d="M 2884.4658 3214.9025 2859.4866 3401.2217 2712.2513 3356.026 2792.8063 3173.4085 2782.6226 3177.0976 2884.4658 3214.9025 Z" fill="none" stroke="#FBC20F" opacity="0.373134328358209" stroke-width="1" class="cobble_hill"/>
<path d="M 2816.1888 3286.1565 2774.7541 3270.2477 2795.585 3215.1401 2891.4151 3255.9434 2853.9236 3327.8904 2808.7824 3305.065 2816.1888 3286.1565 Z" fill="none" stroke="#FBC20F" opacity="0.373134328358209" stroke-width="1" class="cobble_hill"/>
<path d="M 2882.6147 3219.5141 2876.1346 3225.9708 2843.7348 3287.7687 2751.1443 3237.0446 2767.8097 3177.0978 2804.8421 3183.5526 2852.9859 3200.1498 2872.4297 3213.0594 2882.6147 3219.5141 Z" fill="none" stroke="#FBC20F" opacity="0.373134328358209" stroke-width="1" class="cobble_hill"/>
<path d="M 2760.3127 3273.0599 2791.4456 3181.1686 2850.0761 3201.0606 2815.4214 3292.7921 2760.3127 3273.0599 Z" fill="none" stroke="#FBC20F" opacity="0.373134328358209" stroke-width="1" class="cobble_hill"/>
<path d="M 2845.5792 3200.1504 2858.0785 3206.144 2862.2449 3207.9881 2869.6519 3210.2929 2876.1332 3213.9813 2881.6885 3216.2863 2831.0055 3315.6709 2809.2454 3304.8344 2752.9954 3283.852 2790.0291 3180.0947 2791.8807 3180.7863 2807.1568 3186.7803 2813.6376 3189.5467 2823.8218 3192.774 2830.3027 3194.157 2840.0241 3198.3064 2845.5792 3200.1504 Z" fill="none" stroke="#FBC20F" opacity="0.373134328358209" stroke-width="1" class="cobble_hill"/>
<path d="M 2792.8065 3181.7085 2850.2087 3203.8391 2838.4063 3228.7413 2868.0353 3243.9563 2839.8006 3299.5289 2815.4944 3285.4648 2759.7083 3265.4055 2789.5662 3181.2475 2792.8065 3181.7085 Z" fill="none" stroke="#FBC20F" opacity="0.373134328358209" stroke-width="1" class="cobble_hill"/>
<path d="M 2789.1034 3184.4754 2907.1511 3229.4252 2895.8124 3250.8702 2882.1589 3276.9274 2863.8759 3311.5174 2834.9395 3299.7599 2796.513 3280.1622 2761.7916 3262.1774 2789.1034 3184.4754 Z" fill="none" stroke="#FBC20F" opacity="0.373134328358209" stroke-width="1" class="cobble_hill"/>
<path d="M 2789.5662 3180.0947 2867.3372 3210.0626 2851.6004 3235.8879 2837.9433 3228.5108 2815.4944 3286.3871 2761.0972 3265.1749 2757.1622 3261.9468 2789.5662 3180.0947 Z" fill="none" stroke="#FBC20F" opacity="0.373134328358209" stroke-width="1" class="cobble_hill"/>
<path d="M 2882.383 3217.0932 2849.2896 3279.6978 2824.7523 3267.2483 2824.9834 3261.7144 2770.0088 3237.6211 2790.3763 3181.2475 2882.383 3217.0932 Z" fill="none" stroke="#FBC20F" opacity="0.373134328358209" stroke-width="1" class="cobble_hill"/>
<path d="M 2789.7976 3180.5558 2847.1995 3201.0726 2816.6518 3285.6953 2758.3195 3264.4832 2789.7976 3180.5558 Z" fill="none" stroke="#FBC20F" opacity="0.373134328358209" stroke-width="1" class="cobble_hill"/>
<path d="M 2882.1516 3218.1308 2838.6431 3297.9149 2774.2912 3269.7865 2804.3794 3187.2416 2882.1516 3218.1308 Z" fill="none" stroke="#FBC20F" opacity="0.373134328358209" stroke-width="1" class="cobble_hill"/>
<path d="M 2757.1621 3274.8593 2789.1033 3180.7864 2778.4571 3222.4034 2789.5662 3180.21 2847.5468 3201.7642 2809.9398 3305.5261 2752.5324 3283.5061 2757.1621 3274.8593 Z" fill="none" stroke="#FBC20F" opacity="0.373134328358209" stroke-width="1" class="cobble_hill"/>
<path d="M 2881.38 3218.592 2840.2631 3298.8372 2828.2272 3315.6711 2788.2571 3296.7645 2769.893 3290.3082 2807.0023 3188.7784 2881.38 3218.592 Z" fill="none" stroke="#FBC20F" opacity="0.373134328358209" stroke-width="1" class="cobble_hill"/>
<path d="M 2828.9142 3197.385 2980.7693 3284.5193 2912.2609 3342.1801 2820.1244 3293.3044 2828.9142 3197.385 Z" fill="none" stroke="#FBC20F" opacity="0.373134328358209" stroke-width="1" class="cobble_hill"/>
<path d="M 2816.6518 3285.6953 2680.5474 3234.274 2695.8259 3209.835 2716.8913 3160.4965 2845.5794 3202.4561 2816.6518 3285.6953 Z" fill="none" stroke="#FBC20F" opacity="0.373134328358209" stroke-width="1" class="cobble_hill"/>
<path d="M 2847.8939 3201.5336 2906.6882 3229.1947 2863.8758 3310.595 2816.4203 3285.6953 2766.6525 3267.7113 2799.5187 3183.7834 2806.6939 3187.9332 2847.8939 3201.5336 Z" fill="none" stroke="#FBC20F" opacity="0.373134328358209" stroke-width="1" class="cobble_hill"/>
<path d="M 2848.3569 3202.2253 2810.1713 3305.2955 2709.2471 3268.632 2716.1923 3249.0333 2741.1907 3257.7961 2768.2726 3179.4033 2755.7742 3175.0227 2759.7089 3169.2588 2848.3569 3202.2253 Z" fill="none" stroke="#FBC20F" opacity="0.373134328358209" stroke-width="1" class="cobble_hill"/>
<path d="M 2739.5704 3257.1044 2759.7087 3202.69 2778.2254 3209.3763 2783.0858 3198.3092 2840.9517 3219.9795 2824.5208 3265.8648 2815.7259 3286.1566 2739.5704 3257.1044 Z" fill="none" stroke="#FBC20F" opacity="0.373134328358209" stroke-width="1" class="cobble_hill"/>
<path d="M 2881.9201 3217.4391 2840.032 3297.9148 2760.8657 3265.8667 2790.0291 3180.5558 2881.9201 3217.4391 Z" fill="none" stroke="#FBC20F" opacity="0.373134328358209" stroke-width="1" class="cobble_hill"/>
<path d="M 2867.8002 3210.2931 2907.6141 3229.6557 2862.2553 3308.9811 2756.6992 3264.7138 2789.1033 3181.7086 2867.8002 3210.2931 Z" fill="none" stroke="#FBC20F" opacity="0.373134328358209" stroke-width="1" class="cobble_hill"/>
<path d="M 2839.569 3297.6843 2756.4677 3264.022 2788.8718 3181.4781 2866.4114 3209.6016 2851.6002 3233.5822 2868.0354 3244.4175 2839.569 3297.6843 Z" fill="none" stroke="#FBC20F" opacity="0.373134328358209" stroke-width="1" class="cobble_hill"/>
<path d="M 2853.9121 3204.761 2845.3479 3201.4186 2842.2238 3208.7969 2838.637 3218.5963 2835.8602 3229.4332 2830.6532 3241.9998 2827.9919 3251.5688 2824.2891 3262.0603 2815.3786 3284.8884 2814.9156 3284.7731 2794.0824 3277.7412 2757.2779 3264.4832 2782.6225 3174.3309 2853.9121 3204.761 Z" fill="none" stroke="#FBC20F" opacity="0.373134328358209" stroke-width="1" class="cobble_hill"/>
<path d="M 2809.7083 3304.8344 2752.3009 3284.3131 2790.2605 3180.3253 2846.2738 3202.6866 2809.7083 3304.8344 Z" fill="none" stroke="#FBC20F" opacity="0.373134328358209" stroke-width="1" class="cobble_hill"/>
<path d="M 2847.8939 3201.5336 2815.9573 3286.1565 2758.3195 3264.4832 2789.7976 3180.5558 2847.8939 3201.5336 Z" fill="none" stroke="#FBC20F" opacity="0.373134328358209" stroke-width="1" class="cobble_hill"/>
<path d="M 2847.6625 3201.7642 2772.4404 3407.2223 2760.1705 3402.6101 2754.846 3391.0795 2729.1508 3345.8804 2788.4089 3180.3253 2847.6625 3201.7642 Z" fill="none" stroke="#FBC20F" opacity="0.373134328358209" stroke-width="1" class="cobble_hill"/>
<path d="M 2791.3755 3182.7897 2846.9257 3200.7703 2865.093 3209.8049 2882.4608 3217.6348 2839.9839 3298.7493 2816.6463 3286.7572 2760.9435 3265.145 2791.3755 3182.7897 Z" fill="none" stroke="#FBC20F" opacity="0.373134328358209" stroke-width="1" class="cobble_hill"/>
<path d="M 2789.6819 3181.5933 2847.3154 3202.5712 2816.7675 3286.5024 2759.0139 3264.8291 2789.6819 3181.5933 Z" fill="none" stroke="#FBC20F" opacity="0.373134328358209" stroke-width="1" class="cobble_hill"/>
<path d="M 2849.7526 3279.9284 2768.7357 3237.967 2788.6404 3180.7864 2881.4571 3216.7474 2849.7526 3279.9284 Z" fill="none" stroke="#FBC20F" opacity="0.373134328358209" stroke-width="1" class="cobble_hill"/>
<path d="M 2881.6887 3217.6697 2831.9314 3315.4402 2752.1852 3284.0825 2789.6819 3180.4406 2881.6887 3217.6697 Z" fill="none" stroke="#FBC20F" opacity="0.373134328358209" stroke-width="1" class="cobble_hill"/>
<path d="M 2883.0774 3217.6695 2841.1894 3298.6065 2759.4769 3263.7915 2790.492 3181.478 2883.0774 3217.6695 Z" fill="none" stroke="#FBC20F" opacity="0.373134328358209" stroke-width="1" class="cobble_hill"/>
<path d="M 2864.0967 3209.3713 2778.9231 3439.9699 2730.7716 3336.6565 2734.4755 3335.7343 2788.1776 3185.3976 2864.0967 3209.3713 Z" fill="none" stroke="#FBC20F" opacity="0.373134328358209" stroke-width="1" class="cobble_hill"/>
<path d="M 2865.2541 3210.2934 2906.6883 3229.8864 2878.4561 3283.6147 2828.4552 3256.872 2847.6625 3202.4559 2865.2541 3210.2934 Z" fill="none" stroke="#FBC20F" opacity="0.373134328358209" stroke-width="1" class="cobble_hill"/>
<path d="M 2831.4684 3315.9014 2751.3751 3283.3908 2788.6403 3179.1725 2865.4856 3210.0628 2831.4684 3315.9014 Z" fill="none" stroke="#FBC20F" opacity="0.373134328358209" stroke-width="1" class="cobble_hill"/>
<path d="M 2847.8939 3201.7642 2807.6254 3314.9804 2748.8286 3293.5365 2790.492 3181.2475 2847.8939 3201.7642 Z" fill="none" stroke="#FBC20F" opacity="0.373134328358209" stroke-width="1" class="cobble_hill"/>
<path d="M 2791.8808 3184.4753 2795.1211 3183.5529 2889.5585 3218.5909 2866.8791 3254.1018 2843.7357 3298.8369 2822.9046 3333.4271 2790.035 3409.9894 2761.7911 3395.6917 2736.7902 3340.8075 2743.2727 3311.7528 2767.8098 3241.6562 2773.8279 3237.0447 2791.8808 3184.4753 Z" fill="none" stroke="#FBC20F" opacity="0.373134328358209" stroke-width="1" class="cobble_hill"/>
<path d="M 2881.6885 3216.7474 2841.4208 3297.6841 2759.7084 3264.022 2790.492 3180.5558 2881.6885 3216.7474 Z" fill="none" stroke="#FBC20F" opacity="0.373134328358209" stroke-width="1" class="cobble_hill"/>
<path d="M 2881.6886 3216.978 2831.4684 3315.9014 2752.0695 3283.852 2790.2606 3181.7086 2788.6404 3180.5559 2881.6886 3216.978 Z" fill="none" stroke="#FBC20F" opacity="0.373134328358209" stroke-width="1" class="cobble_hill"/>
<path d="M 2847.1996 3201.7642 2809.4767 3302.7591 2759.4769 3261.7162 2779.1508 3177.0977 2847.1996 3201.7642 Z" fill="none" stroke="#FBC20F" opacity="0.373134328358209" stroke-width="1" class="cobble_hill"/>
<path d="M 2815.9573 3285.4648 2740.4963 3257.5655 2769.4298 3173.6394 2847.431 3201.9948 2815.9573 3285.4648 Z" fill="none" stroke="#FBC20F" opacity="0.373134328358209" stroke-width="1" class="cobble_hill"/>
<path d="M 2866.8743 3209.8321 2855.0724 3235.8876 2841.1837 3227.1271 2811.0972 3305.0649 2756.0046 3284.5438 2754.6157 3283.3908 2791.4178 3181.0169 2866.8743 3209.8321 Z" fill="none" stroke="#FBC20F" opacity="0.373134328358209" stroke-width="1" class="cobble_hill"/>
<path d="M 2758.088 3264.4832 2789.3347 3180.7864 2826.5993 3193.0044 2823.1281 3203.38 2844.4228 3210.0648 2815.7258 3285.4648 2806.2351 3282.2371 2758.088 3264.4832 Z" fill="none" stroke="#FBC20F" opacity="0.373134328358209" stroke-width="1" class="cobble_hill"/>
<path d="M 2789.5662 3181.2475 2883.0773 3216.7472 2824.7563 3330.8904 2744.8933 3302.9905 2789.5662 3181.2475 Z" fill="none" stroke="#FBC20F" opacity="0.373134328358209" stroke-width="1" class="cobble_hill"/>
<path d="M 2882.1515 3216.7473 2842.3468 3297.684 2740.9593 3256.1821 2770.8185 3168.5672 2778.9192 3170.6421 2882.1515 3216.7473 Z" fill="none" stroke="#FBC20F" opacity="0.373134328358209" stroke-width="1" class="cobble_hill"/>
<path d="M 2794.6581 3180.7863 2908.5401 3230.5779 2834.4818 3371.706 2740.9576 3322.8212 2794.6581 3180.7863 Z" fill="none" stroke="#FBC20F" opacity="0.373134328358209" stroke-width="1" class="cobble_hill"/>
<path d="M 2826.5776 3214.3095 2832.3706 3227.4995 2800.4493 3186.9217 2791.4694 3180.7852 2845.413 3201.6865 2814.0935 3286.0019 2761.9059 3267.0242 2780.1145 3217.442 2792.1495 3184.087 2826.5776 3214.3095 Z" fill="none" stroke="#FBC20F" opacity="0.373134328358209" stroke-width="1" class="cobble_hill"/>
<path d="M 2788.1774 3178.942 2807.8512 3186.7803 2820.5812 3189.0852 2827.2937 3193.4655 2845.1163 3199.9199 2865.9485 3209.8322 2881.6884 3215.8251 2874.5151 3232.8881 2866.1835 3243.2648 2864.7953 3249.4905 2854.1493 3265.4014 2849.7524 3278.5449 2826.3727 3268.4011 2815.4944 3286.3871 2814.569 3296.0718 2784.0134 3287.08 2761.3286 3275.7816 2753.9214 3274.6287 2765.7266 3245.3453 2772.2076 3228.5135 2779.6142 3208.9152 2786.7891 3194.159 2787.7146 3183.3226 2788.1775 3180.7864 2787.7145 3179.1725 2797.4355 3180.325 2788.1774 3178.942 Z" fill="none" stroke="#FBC20F" opacity="0.373134328358209" stroke-width="1" class="cobble_hill"/>
<path d="M 2789.7977 3181.9392 2885.6234 3217.208 2840.7264 3297.4536 2757.6251 3264.7138 2789.7977 3181.9392 Z" fill="none" stroke="#FBC20F" opacity="0.373134328358209" stroke-width="1" class="cobble_hill"/>
<path d="M 2882.6144 3217.2084 2839.8005 3297.9148 2758.551 3264.7138 2788.8718 3180.5559 2882.6144 3217.2084 Z" fill="none" stroke="#FBC20F" opacity="0.373134328358209" stroke-width="1" class="cobble_hill"/>
<path d="M 2789.3347 3180.5558 2847.431 3201.3031 2881.6886 3217.4391 2840.2635 3297.9148 2816.8833 3286.3871 2758.551 3265.1749 2789.3347 3180.5558 Z" fill="none" stroke="#FBC20F" opacity="0.373134328358209" stroke-width="1" class="cobble_hill"/>
<path d="M 2789.1033 3183.092 2847.6625 3202.2253 2880.9941 3216.5169 2839.3374 3296.5314 2760.6342 3264.7138 2790.0292 3184.4753 2834.47 3210.2962 2789.1033 3183.092 Z" fill="none" stroke="#FBC20F" opacity="0.373134328358209" stroke-width="1" class="cobble_hill"/>
<path d="M 2835.866 3306.9081 2813.1801 3296.0719 2754.6159 3272.5534 2787.4833 3189.7783 2877.5234 3226.2012 2835.866 3306.9081 Z" fill="none" stroke="#FBC20F" opacity="0.373134328358209" stroke-width="1" class="cobble_hill"/>
<path d="M 2791.4177 3178.7113 2850.4401 3203.1473 2807.8569 3314.7498 2749.9861 3291.2306 2791.4177 3178.7113 Z" fill="none" stroke="#FBC20F" opacity="0.373134328358209" stroke-width="1" class="cobble_hill"/>
<path d="M 2868.2729 3300.4486 2865.8429 3305.176 2859.0143 3306.6755 2848.9443 3301.3729 2839.2217 3296.6467 2831.4668 3292.4967 2824.4065 3288.8078 2815.7258 3284.773 2808.4341 3282.4676 2799.5222 3279.4704 2781.8141 3272.4381 2769.8932 3268.6336 2758.3195 3262.0621 2762.1388 3253.7613 2765.9581 3241.5409 2768.8514 3232.0874 2775.3323 3217.4462 2779.7298 3205.572 2765.3794 3191.3925 2770.8185 3175.4839 2781.581 3177.4435 2789.2191 3182.7462 2795.6998 3184.014 2805.1895 3187.1263 2816.1837 3191.1605 2823.7062 3193.9268 2831.3444 3196.232 2843.6119 3200.6117 2849.63 3202.9169 2861.319 3207.4118 2868.9576 3211.2153 2879.4896 3215.8254 2890.7159 3219.9742 2905.415 3228.2726 2898.2412 3239.2258 2895.4646 3246.6046 2891.8775 3251.5624 2888.0593 3259.6331 2885.2824 3265.7438 2882.1585 3274.0451 2879.9603 3280.1558 2874.0588 3290.0716 2868.2729 3300.4486 Z" fill="none" stroke="#FBC20F" opacity="0.373134328358209" stroke-width="1" class="cobble_hill"/>
<path d="M 2848.1254 3201.9947 2813.1801 3295.3801 2756.4676 3274.3981 2782.3915 3198.0786 2781.9282 3179.4032 2848.1254 3201.9947 Z" fill="none" stroke="#FBC20F" opacity="0.373134328358209" stroke-width="1" class="cobble_hill"/>
<path d="M 2758.3195 3264.9443 2785.8631 3189.7783 2845.1173 3211.4482 2816.8833 3287.0788 2758.3195 3264.9443 Z" fill="none" stroke="#FBC20F" opacity="0.373134328358209" stroke-width="1" class="cobble_hill"/>
<path d="M 2791.8808 3182.8614 2790.9549 3180.3252 2866.8744 3210.7544 2855.7667 3235.4264 2840.0265 3228.9718 2816.1892 3293.5353 2757.8565 3273.0146 2791.8808 3182.8614 Z" fill="none" stroke="#FBC20F" opacity="0.373134328358209" stroke-width="1" class="cobble_hill"/>
<path d="M 2846.5053 3203.3783 2803.2276 3324.4349 2762.9488 3308.986 2806.231 3187.4721 2846.5053 3203.3783 Z" fill="none" stroke="#FBC20F" opacity="0.373134328358209" stroke-width="1" class="cobble_hill"/>
<path d="M 2793.3903 3182.7809 2790.8061 3181.3462 2882.9157 3217.9958 2840.9578 3297.5482 2760.287 3265.7514 2790.7235 3182.0544 2793.3903 3182.7809 Z" fill="none" stroke="#FBC20F" opacity="0.373134328358209" stroke-width="1" class="cobble_hill"/>
<path d="M 2768.7355 3174.3311 2847.4311 3202.917 2814.1056 3286.8484 2739.1074 3259.1795 2768.7355 3174.3311 Z" fill="none" stroke="#FBC20F" opacity="0.373134328358209" stroke-width="1" class="cobble_hill"/>
<path d="M 2791.8808 3184.4753 2971.5062 3266.536 2736.3272 3343.1135 2791.8808 3184.4753 Z" fill="none" stroke="#FBC20F" opacity="0.373134328358209" stroke-width="1" class="cobble_hill"/>
<path d="M 2846.9683 3203.3782 2814.106 3295.6106 2756.2362 3274.8593 2789.5662 3182.6309 2846.9683 3203.3782 Z" fill="none" stroke="#FBC20F" opacity="0.373134328358209" stroke-width="1" class="cobble_hill"/>
<path d="M 2865.9485 3210.2933 2882.383 3217.2085 2905.9938 3229.1948 2854.6181 3327.8904 2810.4028 3306.2179 2788.6432 3296.9951 2826.5994 3194.1572 2865.9485 3210.2933 Z" fill="none" stroke="#FBC20F" opacity="0.373134328358209" stroke-width="1" class="cobble_hill"/>
<path d="M 2790.1449 3182.4003 2880.4156 3217.6698 2825.7977 3325.3561 2748.3657 3292.96 2790.1449 3182.4003 Z" fill="none" stroke="#FBC20F" opacity="0.373134328358209" stroke-width="1" class="cobble_hill"/>
<path d="M 2790.9549 3180.7864 2878.9113 3219.0534 2832.1628 3314.0566 2755.7731 3283.1602 2790.9549 3180.7864 Z" fill="none" stroke="#FBC20F" opacity="0.373134328358209" stroke-width="1" class="cobble_hill"/>
<path d="M 2790.0291 3181.7086 2793.7324 3182.6308 2906.6883 3229.6559 2865.9589 3308.0583 2755.7733 3264.7137 2790.0291 3181.7086 Z" fill="none" stroke="#FBC20F" opacity="0.373134328358209" stroke-width="1" class="cobble_hill"/>
<path d="M 2790.955 3186.3198 2845.5798 3206.6062 2818.7351 3285.9258 2761.3287 3262.8692 2790.955 3186.3198 Z" fill="none" stroke="#FBC20F" opacity="0.373134328358209" stroke-width="1" class="cobble_hill"/>
<path d="M 2790.2605 3180.7864 2847.431 3201.5337 2810.8657 3303.2202 2753.4584 3281.5461 2790.2605 3180.7864 Z" fill="none" stroke="#FBC20F" opacity="0.373134328358209" stroke-width="1" class="cobble_hill"/>
<path d="M 2791.8807 3181.7086 2883.5406 3219.514 2842.3468 3298.6064 2738.6446 3255.4903 2791.8807 3181.7086 Z" fill="none" stroke="#FBC20F" opacity="0.373134328358209" stroke-width="1" class="cobble_hill"/>
<path d="M 2790.0291 3181.7086 2847.8941 3203.3781 2813.1801 3295.1495 2755.7732 3274.3981 2790.0291 3181.7086 Z" fill="none" stroke="#FBC20F" opacity="0.373134328358209" stroke-width="1" class="cobble_hill"/>
<path d="M 2790.955 3183.5531 2903.2161 3228.273 2853.9235 3326.7374 2749.7547 3282.699 2790.955 3183.5531 Z" fill="none" stroke="#FBC20F" opacity="0.373134328358209" stroke-width="1" class="cobble_hill"/>
<path d="M 2882.6144 3216.9779 2840.032 3297.9148 2759.7083 3264.7138 2789.7977 3181.7086 2882.6144 3216.9779 Z" fill="none" stroke="#FBC20F" opacity="0.373134328358209" stroke-width="1" class="cobble_hill"/>
<path d="M 2787.2517 3181.7087 2863.1705 3205.6823 2826.1428 3292.3817 2756.6992 3267.4807 2787.2517 3181.7087 Z" fill="none" stroke="#FBC20F" opacity="0.373134328358209" stroke-width="1" class="cobble_hill"/>
<path d="M 2737.7187 3257.3349 2749.5242 3228.744 2772.4387 3174.3311 2772.6701 3175.4838 2865.0227 3210.524 2851.6005 3236.8102 2839.1008 3229.8941 2815.4945 3287.5401 2737.7187 3257.3349 Z" fill="none" stroke="#FBC20F" opacity="0.373134328358209" stroke-width="1" class="cobble_hill"/>
<path d="M 2824.9834 3261.7144 2766.884 3236.353 2787.7146 3180.7864 2882.8459 3216.9778 2844.6608 3288.4604 2820.5863 3275.78 2824.9834 3261.7144 Z" fill="none" stroke="#FBC20F" opacity="0.373134328358209" stroke-width="1" class="cobble_hill"/>
<path d="M 2882.8459 3217.2084 2831.0055 3315.6709 2753.2269 3284.0826 2768.2726 3174.7922 2866.4112 3208.4488 2882.8459 3217.2084 Z" fill="none" stroke="#FBC20F" opacity="0.373134328358209" stroke-width="1" class="cobble_hill"/>
<path d="M 2882.6144 3216.632 2854.2655 3271.2811 2829.1496 3257.1026 2826.488 3262.0602 2769.4301 3236.0071 2791.0707 3182.0544 2847.3153 3201.9948 2882.6144 3216.632 Z" fill="none" stroke="#FBC20F" opacity="0.373134328358209" stroke-width="1" class="cobble_hill"/>
<path d="M 2880.2999 3217.9004 2839.5691 3299.2984 2831.0055 3315.9015 2752.1852 3284.0825 2780.3085 3205.2261 2788.1774 3178.942 2880.2999 3217.9004 Z" fill="none" stroke="#FBC20F" opacity="0.373134328358209" stroke-width="1" class="cobble_hill"/>
<path d="M 2758.3195 3264.4832 2788.1774 3179.8642 2847.8939 3200.8419 2817.5777 3286.1565 2758.3195 3264.4832 Z" fill="none" stroke="#FBC20F" opacity="0.373134328358209" stroke-width="1" class="cobble_hill"/>
<path d="M 2906.6883 3229.6559 2855.3126 3327.8903 2752.5324 3285.2355 2790.9549 3180.5558 2906.6883 3229.6559 Z" fill="none" stroke="#FBC20F" opacity="0.373134328358209" stroke-width="1" class="cobble_hill"/>
<path d="M 2758.551 3264.7138 2790.9549 3179.8641 2846.968 3200.6115 2813.874 3285.4649 2758.551 3264.7138 Z" fill="none" stroke="#FBC20F" opacity="0.373134328358209" stroke-width="1" class="cobble_hill"/>
<path d="M 2804.8428 3199.2308 2948.3591 3267.4631 2861.3425 3439.0427 2756.6981 3380.9327 2802.0655 3202.9199 2804.8428 3199.2308 Z" fill="none" stroke="#FBC20F" opacity="0.373134328358209" stroke-width="1" class="cobble_hill"/>
<path d="M 2790.0291 3180.7864 2847.8939 3201.3031 2881.2257 3217.2086 2840.0319 3297.4536 2816.4203 3285.6953 2758.088 3264.022 2790.0291 3180.7864 Z" fill="none" stroke="#FBC20F" opacity="0.373134328358209" stroke-width="1" class="cobble_hill"/>
<path d="M 2847.431 3201.7642 2816.1888 3286.1565 2739.5704 3257.1044 2770.1242 3173.87 2847.431 3201.7642 Z" fill="none" stroke="#FBC20F" opacity="0.373134328358209" stroke-width="1" class="cobble_hill"/>
<path d="M 2793.7324 3182.6308 2847.8939 3201.0725 2811.3288 3306.679 2752.0695 3283.6214 2785.4 3180.7865 2793.7324 3182.6308 Z" fill="none" stroke="#FBC20F" opacity="0.373134328358209" stroke-width="1" class="cobble_hill"/>
<path d="M 2769.6613 3173.4088 2883.0773 3216.9778 2858.0839 3261.7117 2831.2322 3247.4182 2752.0704 3218.599 2769.6613 3173.4088 Z" fill="none" stroke="#FBC20F" opacity="0.373134328358209" stroke-width="1" class="cobble_hill"/>
<path d="M 2848.1254 3201.9947 2809.4768 3305.065 2752.0695 3283.1602 2789.3347 3180.3253 2848.1254 3201.9947 Z" fill="none" stroke="#FBC20F" opacity="0.373134328358209" stroke-width="1" class="cobble_hill"/>
<path d="M 2847.431 3201.9948 2839.7951 3229.2024 2868.0356 3246.4927 2838.6431 3298.1455 2740.2648 3257.1044 2771.2814 3176.1755 2806.9255 3189.5471 2847.431 3201.9948 Z" fill="none" stroke="#FBC20F" opacity="0.373134328358209" stroke-width="1" class="cobble_hill"/>
<path d="M 2757.163 3169.9505 2881.11 3217.6697 2880.8786 3218.1309 2830.0794 3314.518 2702.3031 3265.4034 2757.163 3169.9505 Z" fill="none" stroke="#FBC20F" opacity="0.373134328358209" stroke-width="1" class="cobble_hill"/>
<path d="M 2769.1984 3177.3283 2910.8549 3231.4998 2881.4664 3292.8377 2870.1264 3314.9756 2707.6275 3256.1806 2769.1984 3177.3283 Z" fill="none" stroke="#FBC20F" opacity="0.373134328358209" stroke-width="1" class="cobble_hill"/>
<path d="M 2782.1597 3178.0199 2839.5612 3198.7676 2861.3189 3206.1436 2852.063 3232.4293 2828.9209 3297.9156 2771.0506 3280.3933 2782.1597 3178.0199 Z" fill="none" stroke="#FBC20F" opacity="0.373134328358209" stroke-width="1" class="cobble_hill"/>
<path d="M 2789.4505 3181.7086 2865.9485 3209.9475 2857.2703 3226.0881 2841.7617 3218.596 2817.3462 3286.5023 2757.9723 3264.5985 2789.4505 3181.7086 Z" fill="none" stroke="#FBC20F" opacity="0.373134328358209" stroke-width="1" class="cobble_hill"/>
<path d="M 2759.0139 3264.7138 2789.6819 3180.9017 2847.7782 3201.9948 2816.1888 3285.6954 2759.0139 3264.7138 Z" fill="none" stroke="#FBC20F" opacity="0.373134328358209" stroke-width="1" class="cobble_hill"/>
<path d="M 2848.1254 3201.9947 2816.6518 3286.1565 2759.2454 3265.1749 2790.2605 3180.7864 2848.1254 3201.9947 Z" fill="none" stroke="#FBC20F" opacity="0.373134328358209" stroke-width="1" class="cobble_hill"/>
<path d="M 2848.357 3203.3781 2883.5402 3216.286 2855.0758 3272.7798 2829.1497 3257.5637 2826.3723 3261.7143 2767.3469 3237.5058 2790.9548 3178.0197 2848.357 3203.3781 Z" fill="none" stroke="#FBC20F" opacity="0.373134328358209" stroke-width="1" class="cobble_hill"/>
<path d="M 2790.0291 3179.8641 2883.5403 3217.6694 2836.329 3307.1386 2757.1621 3274.8593 2790.0291 3179.8641 Z" fill="none" stroke="#FBC20F" opacity="0.373134328358209" stroke-width="1" class="cobble_hill"/>
<path d="M 2790.9549 3181.7086 2850.2088 3204.7613 2818.7349 3283.1588 2761.3287 3263.7915 2790.9549 3181.7086 Z" fill="none" stroke="#FBC20F" opacity="0.373134328358209" stroke-width="1" class="cobble_hill"/>
<path d="M 2864.0967 3209.3713 2861.3198 3214.9052 2827.9964 3320.0523 2741.8843 3289.6164 2777.0678 3180.7866 2864.0967 3209.3713 Z" fill="none" stroke="#FBC20F" opacity="0.373134328358209" stroke-width="1" class="cobble_hill"/>
<path d="M 2827.0623 3194.3878 2906.6881 3228.503 2855.3125 3327.6597 2788.4117 3296.7645 2827.0623 3194.3878 Z" fill="none" stroke="#FBC20F" opacity="0.373134328358209" stroke-width="1" class="cobble_hill"/>
<path d="M 2791.8807 3180.7863 2806.6938 3185.397 2825.2103 3189.085 2862.2443 3201.9934 2888.1698 3219.5134 2869.6559 3247.1842 2855.7704 3273.9327 2845.5878 3300.6814 2826.1427 3291.4594 2805.772 3279.4701 2779.8466 3273.0146 2758.551 3262.8691 2765.0322 3238.8893 2782.6231 3209.3763 2791.8807 3180.7863 Z" fill="none" stroke="#FBC20F" opacity="0.373134328358209" stroke-width="1" class="cobble_hill"/>
<path d="M 2847.6625 3201.7642 2816.4203 3286.3871 2759.4769 3265.1749 2783.3173 3199.6925 2799.5195 3205.2256 2803.6852 3192.0834 2793.2696 3187.9336 2795.1211 3182.4002 2847.6625 3201.7642 Z" fill="none" stroke="#FBC20F" opacity="0.373134328358209" stroke-width="1" class="cobble_hill"/>
<path d="M 2848.5883 3201.7641 2883.3088 3217.2083 2831.0055 3316.3626 2809.9398 3304.8344 2709.4786 3267.9402 2758.5517 3169.0283 2848.5883 3201.7641 Z" fill="none" stroke="#FBC20F" opacity="0.373134328358209" stroke-width="1" class="cobble_hill"/>
<path d="M 2847.431 3201.3031 2816.6518 3285.6953 2738.876 3257.1043 2771.05 3175.0227 2847.431 3201.3031 Z" fill="none" stroke="#FBC20F" opacity="0.373134328358209" stroke-width="1" class="cobble_hill"/>
<path d="M 2882.6144 3216.7473 2839.8005 3297.6843 2739.3389 3257.5655 2770.5871 3173.4088 2882.6144 3216.7473 Z" fill="none" stroke="#FBC20F" opacity="0.373134328358209" stroke-width="1" class="cobble_hill"/>
<path d="M 2882.383 3217.439 2877.7546 3224.3566 2845.818 3286.1545 2841.1894 3298.3759 2817.1147 3286.1565 2740.0334 3257.5655 2770.3556 3173.87 2787.4831 3179.8642 2840.95 3199.2286 2851.5974 3203.3778 2882.383 3217.439 Z" fill="none" stroke="#FBC20F" opacity="0.373134328358209" stroke-width="1" class="cobble_hill"/>
<path d="M 2759.7083 3265.4055 2790.7234 3181.0169 2846.9682 3202.9171 2815.2629 3285.926 2759.7083 3265.4055 Z" fill="none" stroke="#FBC20F" opacity="0.373134328358209" stroke-width="1" class="cobble_hill"/>
<path d="M 2790.0291 3181.8931 2846.3201 3202.5482 2799.6627 3326.5104 2747.0691 3305.8498 2790.0291 3181.8931 Z" fill="none" stroke="#FBC20F" opacity="0.373134328358209" stroke-width="1" class="cobble_hill"/>
<path d="M 2756.0047 3274.8593 2785.6316 3185.1671 2847.1999 3205.6838 2831.9262 3241.6538 2808.782 3296.9944 2756.9306 3273.937 2756.0047 3274.8593 Z" fill="none" stroke="#FBC20F" opacity="0.373134328358209" stroke-width="1" class="cobble_hill"/>
<path d="M 2877.9851 3215.8256 2840.9578 3296.9924 2757.625 3274.8593 2784.4742 3179.8643 2877.9851 3215.8256 Z" fill="none" stroke="#FBC20F" opacity="0.373134328358209" stroke-width="1" class="cobble_hill"/>
<path d="M 2788.6404 3181.017 2848.3569 3201.7641 2838.1748 3228.0496 2867.8039 3244.1869 2826.3764 3325.1255 2806.2365 3314.5193 2748.5972 3292.8447 2788.6404 3181.017 Z" fill="none" stroke="#FBC20F" opacity="0.373134328358209" stroke-width="1" class="cobble_hill"/>
<path d="M 2753.9216 3262.4079 2765.0322 3236.8141 2775.2164 3208.4541 2787.7146 3181.4781 2804.6108 3186.3193 2825.4421 3193.9267 2846.5052 3202.2254 2865.7171 3210.5239 2881.2259 3219.2837 2903.9108 3230.5786 2859.247 3318.8968 2834.2457 3308.5223 2811.3283 3296.072 2791.1893 3288.0022 2750.9122 3273.4757 2753.9216 3262.4079 Z" fill="none" stroke="#FBC20F" opacity="0.373134328358209" stroke-width="1" class="cobble_hill"/>
<path d="M 2789.3347 3181.017 2848.1254 3201.9947 2816.5361 3286.5024 2758.7825 3264.7138 2789.3347 3181.017 Z" fill="none" stroke="#FBC20F" opacity="0.373134328358209" stroke-width="1" class="cobble_hill"/>
<path d="M 2816.8833 3286.3871 2847.1996 3201.7642 2906.9197 3229.4253 2864.1073 3310.1338 2816.8833 3286.3871 Z" fill="none" stroke="#FBC20F" opacity="0.373134328358209" stroke-width="1" class="cobble_hill"/>
<path d="M 2789.5662 3181.2475 2846.9682 3203.1477 2813.8745 3295.8412 2755.0788 3274.3981 2789.5662 3181.2475 Z" fill="none" stroke="#FBC20F" opacity="0.373134328358209" stroke-width="1" class="cobble_hill"/>
<path d="M 2789.5662 3180.0947 2882.6144 3216.7473 2840.4949 3297.6842 2757.1622 3264.022 2789.5662 3180.0947 Z" fill="none" stroke="#FBC20F" opacity="0.373134328358209" stroke-width="1" class="cobble_hill"/>
<path d="M 2882.6145 3217.6696 2881.2258 3218.3614 2840.2635 3298.376 2813.6426 3285.9261 2739.8019 3258.0267 2769.1984 3174.7922 2882.6145 3217.6696 Z" fill="none" stroke="#FBC20F" opacity="0.373134328358209" stroke-width="1" class="cobble_hill"/>
<path d="M 2789.5662 3181.7086 2879.8369 3216.7476 2831.0055 3315.6709 2752.9954 3283.852 2789.5662 3181.7086 Z" fill="none" stroke="#FBC20F" opacity="0.373134328358209" stroke-width="1" class="cobble_hill"/>
<path d="M 2790.9549 3181.7086 2883.3089 3218.1306 2830.7741 3317.5156 2750.9121 3281.5461 2790.9549 3181.7086 Z" fill="none" stroke="#FBC20F" opacity="0.373134328358209" stroke-width="1" class="cobble_hill"/>
<path d="M 2848.1254 3201.7642 2809.9398 3305.0649 2733.32 3277.1646 2770.5871 3175.2533 2772.9016 3174.7922 2848.1254 3201.7642 Z" fill="none" stroke="#FBC20F" opacity="0.373134328358209" stroke-width="1" class="cobble_hill"/>
<path d="M 2889.0958 3220.4356 2837.2545 3301.6044 2807.624 3282.237 2761.3287 3263.7915 2795.5841 3185.3974 2889.0958 3220.4356 Z" fill="none" stroke="#FBC20F" opacity="0.373134328358209" stroke-width="1" class="cobble_hill"/>
<path d="M 2790.955 3183.5531 2849.7458 3203.8391 2804.6164 3322.3595 2704.1536 3285.003 2790.955 3183.5531 Z" fill="none" stroke="#FBC20F" opacity="0.373134328358209" stroke-width="1" class="cobble_hill"/>
<path d="M 2868.4981 3242.3423 2838.1747 3227.8191 2816.8833 3286.1565 2759.9398 3264.4832 2788.8719 3183.092 2846.0424 3203.3783 2879.6054 3216.9782 2868.4981 3242.3423 Z" fill="none" stroke="#FBC20F" opacity="0.373134328358209" stroke-width="1" class="cobble_hill"/>
<path d="M 2788.4089 3181.7087 2866.5272 3210.985 2862.7079 3208.6797 2881.9201 3217.6696 2888.6318 3212.2505 2826.4921 3325.3561 2830.7749 3328.8147 2707.5104 3278.8927 2702.1861 3283.2735 2715.3821 3250.8778 2737.7187 3256.0667 2758.6672 3203.6123 2775.9108 3206.8401 2786.7888 3182.0545 2788.4089 3181.7087 Z" fill="none" stroke="#FBC20F" opacity="0.373134328358209" stroke-width="1" class="cobble_hill"/>
<path d="M 2882.383 3217.0932 2831.6998 3314.0567 2753.5741 3283.5061 2790.9549 3179.403 2882.383 3217.0932 Z" fill="none" stroke="#FBC20F" opacity="0.373134328358209" stroke-width="1" class="cobble_hill"/>
<path d="M 2789.5662 3181.7086 2847.1996 3202.4559 2815.9573 3286.1565 2759.7083 3264.2526 2789.5662 3181.7086 Z" fill="none" stroke="#FBC20F" opacity="0.373134328358209" stroke-width="1" class="cobble_hill"/>
<path d="M 2788.6404 3179.8642 2880.9942 3216.9781 2849.5213 3282.0036 2765.4952 3235.6613 2788.6404 3179.8642 Z" fill="none" stroke="#FBC20F" opacity="0.373134328358209" stroke-width="1" class="cobble_hill"/>
<path d="M 2789.3347 3180.5558 2848.3569 3202.11 2816.8832 3285.9259 2739.339 3257.1043 2760.866 3201.0761 2779.6142 3208.6846 2789.3347 3180.5558 Z" fill="none" stroke="#FBC20F" opacity="0.373134328358209" stroke-width="1" class="cobble_hill"/>
<path d="M 2848.3566 3199.2279 2769.6624 3419.2143 2699.7554 3287.0779 2781.2339 3179.8643 2848.3566 3199.2279 Z" fill="none" stroke="#FBC20F" opacity="0.373134328358209" stroke-width="1" class="cobble_hill"/>
<path d="M 2882.1515 3217.2085 2830.311 3315.2097 2753.6898 3284.3131 2789.5662 3180.5558 2882.1515 3217.2085 Z" fill="none" stroke="#FBC20F" opacity="0.373134328358209" stroke-width="1" class="cobble_hill"/>
<path d="M 2790.955 3184.4753 2754.6337 3274.0402 2790.3873 3180.6963 2847.4825 3202.0448 2866.4554 3210.4744 2852.4304 3235.4796 2868.3731 3244.0953 2835.8169 3306.8285 2813.0926 3296.2423 2754.8132 3274.5075 2790.955 3184.4753 Z" fill="none" stroke="#FBC20F" opacity="0.373134328358209" stroke-width="1" class="cobble_hill"/>
<path d="M 2789.3347 3180.3253 2847.6627 3204.0699 2821.7436 3274.8577 2763.6434 3245.3453 2789.3347 3180.3253 Z" fill="none" stroke="#FBC20F" opacity="0.373134328358209" stroke-width="1" class="cobble_hill"/>
<path d="M 2847.1995 3201.3031 2882.383 3216.9779 2840.7264 3297.9148 2816.6518 3285.9259 2758.3195 3264.2526 2789.3347 3180.7864 2847.1995 3201.3031 Z" fill="none" stroke="#FBC20F" opacity="0.373134328358209" stroke-width="1" class="cobble_hill"/>
<path d="M 2838.4063 3228.7413 2810.1713 3305.2955 2815.9574 3287.3095 2741.4222 3258.7184 2765.9581 3167.8755 2866.8744 3210.5238 2861.0886 3217.4414 2851.8318 3235.1962 2838.4063 3228.7413 Z" fill="none" stroke="#FBC20F" opacity="0.373134328358209" stroke-width="1" class="cobble_hill"/>
<path d="M 2788.6404 3181.2475 2849.0514 3203.1475 2838.8692 3228.5107 2893.267 3256.8655 2872.9015 3291.2247 2823.3634 3266.0955 2825.4464 3261.9449 2769.4301 3237.7364 2788.6404 3181.2475 Z" fill="none" stroke="#FBC20F" opacity="0.373134328358209" stroke-width="1" class="cobble_hill"/>
<path d="M 2791.8807 3181.7086 2848.5884 3202.2253 2905.9937 3228.7337 2859.0154 3318.4356 2810.8653 3295.1496 2755.5417 3274.8593 2791.8807 3181.7086 Z" fill="none" stroke="#FBC20F" opacity="0.373134328358209" stroke-width="1" class="cobble_hill"/>
<path d="M 2838.1733 3208.4514 2923.3581 3256.3998 2853.0046 3402.1448 2760.4022 3370.7861 2834.4704 3215.8298 2838.1733 3208.4514 Z" fill="none" stroke="#FBC20F" opacity="0.373134328358209" stroke-width="1" class="cobble_hill"/>
<path d="M 2882.6147 3219.5141 2877.0595 3218.5925 2788.183 3410.4507 2758.55 3398.459 2724.2895 3344.9578 2785.4 3177.0976 2882.6147 3219.5141 Z" fill="none" stroke="#FBC20F" opacity="0.373134328358209" stroke-width="1" class="cobble_hill"/>
<path d="M 2788.4089 3180.3253 2789.3347 3179.6336 2905.9938 3228.9643 2865.0331 3309.6725 2816.6518 3285.6953 2817.5777 3286.8482 2759.0139 3265.6361 2756.9307 3267.2501 2788.4089 3180.3253 Z" fill="none" stroke="#FBC20F" opacity="0.373134328358209" stroke-width="1" class="cobble_hill"/>
<path d="M 2854.3813 3271.3964 2749.2927 3229.6663 2770.8185 3174.5616 2788.4089 3178.942 2882.6144 3216.5167 2854.3813 3271.3964 Z" fill="none" stroke="#FBC20F" opacity="0.373134328358209" stroke-width="1" class="cobble_hill"/>
<path d="M 2789.5662 3181.7086 2846.9683 3204.3005 2829.8441 3257.3331 2876.6039 3280.3868 2858.0894 3317.7439 2812.2541 3294.2272 2754.3844 3274.3981 2789.5662 3181.7086 Z" fill="none" stroke="#FBC20F" opacity="0.373134328358209" stroke-width="1" class="cobble_hill"/>
<path d="M 2789.1033 3180.5558 2848.1255 3203.2628 2815.3787 3286.9636 2759.9398 3265.8667 2789.1033 3180.5558 Z" fill="none" stroke="#FBC20F" opacity="0.373134328358209" stroke-width="1" class="cobble_hill"/>
<path d="M 2811.3275 3280.3922 2768.7358 3270.2477 2797.436 3194.6198 2854.8388 3213.9835 2811.3275 3280.3922 Z" fill="none" stroke="#FBC20F" opacity="0.373134328358209" stroke-width="1" class="cobble_hill"/>
<path d="M 2829.8434 3247.1878 2832.1577 3242.8067 2774.9851 3218.3685 2789.5662 3180.3253 2881.6887 3217.9002 2858.084 3262.634 2829.8434 3247.1878 Z" fill="none" stroke="#FBC20F" opacity="0.373134328358209" stroke-width="1" class="cobble_hill"/>
<path d="M 2826.831 3196.4628 2829.0301 3199.9211 2834.7011 3205.1084 2846.1601 3226.0891 2838.8695 3232.3151 2829.4969 3258.0249 2825.2144 3253.6442 2819.659 3252.0305 2810.4004 3254.5673 2801.3729 3250.6479 2793.5028 3245.8061 2785.4012 3234.9693 2785.4009 3219.7517 2783.7805 3210.9902 2788.178 3203.612 2800.2137 3199.2309 2807.1572 3195.7722 2818.7299 3193.9271 2826.831 3196.4628 Z" fill="none" stroke="#FBC20F" opacity="0.373134328358209" stroke-width="1" class="cobble_hill"/>
<path d="M 2848.3569 3201.9947 2764.106 3468.5675 2677.9829 3433.5086 2771.5129 3174.3311 2848.3569 3201.9947 Z" fill="none" stroke="#FBC20F" opacity="0.373134328358209" stroke-width="1" class="cobble_hill"/>
<path d="M 2789.1033 3179.8642 2850.2086 3202.9168 2815.9573 3285.926 2756.6992 3262.8691 2789.1033 3179.8642 Z" fill="none" stroke="#FBC20F" opacity="0.373134328358209" stroke-width="1" class="cobble_hill"/>
<path d="M 2785.4029 3318.2094 2782.6249 3307.1411 2781.6986 3284.0825 2796.5119 3247.1894 2831.6941 3233.3532 2877.9877 3237.9603 2894.6597 3284.9961 2881.7012 3320.0472 2868.7409 3346.7978 2846.5193 3366.1705 2811.3314 3360.6384 2790.0333 3343.1136 2785.4029 3318.2094 Z" fill="none" stroke="#FBC20F" opacity="0.373134328358209" stroke-width="1" class="cobble_hill"/>
<path d="M 2789.103 3169.7197 2977.9852 3256.3891 2874.3025 3396.6079 2743.7355 3316.3647 2789.103 3169.7197 Z" fill="none" stroke="#FBC20F" opacity="0.373134328358209" stroke-width="1" class="cobble_hill"/>
<path d="M 2790.0291 3180.7864 2958.5439 3267.461 2842.8156 3369.8605 2751.1429 3324.6661 2790.0291 3180.7864 Z" fill="none" stroke="#FBC20F" opacity="0.373134328358209" stroke-width="1" class="cobble_hill"/>
<path d="M 4630.4435 793.3461 4572.9538 671.1158 4550.6401 590.2187 4573.5665 509.2423 4677.7303 431.789 4701.7218 427.1422 4691.7293 506.2491 4666.047 589.0733 4664.319 647.9412 4694.8453 675.4732 4716.2462 754.5363 4630.4435 793.3461 Z" fill="none" stroke="#FBC20F" opacity="0.373134328358209" stroke-width="1" class="cobble_hill"/>
<path d="M 2790.0291 3180.7864 2826.1363 3190.9294 2809.4722 3205.6864 2800.2144 3218.5985 2835.3975 3232.4307 2815.0313 3284.0813 2761.3287 3263.7915 2790.0291 3180.7864 Z" fill="none" stroke="#FBC20F" opacity="0.373134328358209" stroke-width="1" class="cobble_hill"/>
<path d="M 2816.1888 3285.4648 2759.7083 3265.4055 2778.9196 3193.9285 2781.0025 3181.4783 2778.6879 3179.4033 2788.409 3182.4003 2844.6536 3202.2256 2816.1888 3285.4648 Z" fill="none" stroke="#FBC20F" opacity="0.373134328358209" stroke-width="1" class="cobble_hill"/>
<path d="M 2847.6625 3201.7642 2816.7675 3286.2718 2758.7825 3264.4832 2782.623 3199.3467 2799.1723 3205.1104 2804.4953 3191.5069 2793.6168 3187.4725 2795.2368 3182.9765 2847.6625 3201.7642 Z" fill="none" stroke="#FBC20F" opacity="0.373134328358209" stroke-width="1" class="cobble_hill"/>
<path d="M 2847.1996 3201.7642 2881.92 3216.9779 2839.8004 3296.9925 2817.1147 3285.9259 2739.5704 3257.7961 2770.5871 3175.7144 2847.1996 3201.7642 Z" fill="none" stroke="#FBC20F" opacity="0.373134328358209" stroke-width="1" class="cobble_hill"/>
<path d="M 2883.0774 3217.2084 2840.8422 3298.03 2818.2722 3287.0788 2740.2648 3259.4101 2771.7443 3172.0255 2772.3229 3173.4088 2788.5246 3180.4406 2883.0774 3217.2084 Z" fill="none" stroke="#FBC20F" opacity="0.373134328358209" stroke-width="1" class="cobble_hill"/>
<path d="M 2790.9549 3181.2475 2793.9638 3182.4002 2879.7213 3218.3616 2840.379 3295.6089 2762.8332 3262.5233 2769.0829 3242.2326 2771.629 3234.739 2780.3086 3211.5667 2783.3174 3201.0759 2786.789 3191.3922 2788.1776 3187.2421 2790.9549 3181.2475 Z" fill="none" stroke="#FBC20F" opacity="0.373134328358209" stroke-width="1" class="cobble_hill"/>
<path d="M 2790.4284 3181.2604 2847.7718 3202.8534 2813.6908 3293.2089 2758.5643 3274.1037 2790.4284 3181.2604 Z" fill="none" stroke="#FBC20F" opacity="0.373134328358209" stroke-width="1" class="cobble_hill"/>
<path d="M 2785.4 3179.8643 2881.6882 3213.9806 2844.6617 3298.8368 2831.2371 3317.285 2791.4211 3299.5315 2751.6065 3285.0049 2736.7922 3277.1647 2737.4872 3257.796 2764.3379 3179.1728 2779.6137 3179.8644 2785.4 3179.8643 Z" fill="none" stroke="#FBC20F" opacity="0.373134328358209" stroke-width="1" class="cobble_hill"/>
<path d="M 2794.1952 3180.7863 2846.8777 3202.7436 2814.2777 3294.3581 2757.5296 3273.8612 2794.1952 3180.7863 Z" fill="none" stroke="#FBC20F" opacity="0.373134328358209" stroke-width="1" class="cobble_hill"/>
<path d="M 2789.3347 3180.7864 2847.894 3202.6864 2866.1799 3209.8322 2930.2996 3240.9501 2877.7684 3340.1095 2809.2454 3305.065 2752.9954 3282.9296 2789.3347 3180.7864 Z" fill="none" stroke="#FBC20F" opacity="0.373134328358209" stroke-width="1" class="cobble_hill"/>
<path d="M 2789.6818 3177.7891 2887.938 3217.0925 2843.9674 3300.6816 2755.1946 3264.829 2789.6818 3177.7891 Z" fill="none" stroke="#FBC20F" opacity="0.373134328358209" stroke-width="1" class="cobble_hill"/>
<path d="M 2790.9549 3181.7086 2847.8941 3203.1476 2811.7918 3307.3707 2752.3009 3284.5437 2790.9549 3181.7086 Z" fill="none" stroke="#FBC20F" opacity="0.373134328358209" stroke-width="1" class="cobble_hill"/>
<path d="M 2789.7977 3181.4781 2846.9682 3202.9171 2813.18 3294.6883 2758.3194 3274.6287 2789.7977 3181.4781 Z" fill="none" stroke="#FBC20F" opacity="0.373134328358209" stroke-width="1" class="cobble_hill"/>
<path d="M 2789.3347 3180.5558 2848.3569 3201.7641 2818.0406 3286.1564 2757.8566 3265.1749 2789.3347 3180.5558 Z" fill="none" stroke="#FBC20F" opacity="0.373134328358209" stroke-width="1" class="cobble_hill"/>
<path d="M 2809.4768 3305.065 2704.6177 3267.0176 2746.5164 3165.3392 2864.5596 3208.6795 2905.7622 3228.2726 2854.3867 3328.5822 2809.4768 3305.065 Z" fill="none" stroke="#FBC20F" opacity="0.373134328358209" stroke-width="1" class="cobble_hill"/>
<path d="M 2790.9549 3179.8641 2884.4655 3212.1357 2828.9226 3322.8194 2747.4398 3291.4612 2790.9549 3179.8641 Z" fill="none" stroke="#FBC20F" opacity="0.373134328358209" stroke-width="1" class="cobble_hill"/>
<path d="M 2882.6147 3219.5141 2837.2544 3300.6821 2762.2545 3266.5584 2790.0292 3183.5531 2850.2086 3202.9168 2882.6147 3219.5141 Z" fill="none" stroke="#FBC20F" opacity="0.373134328358209" stroke-width="1" class="cobble_hill"/>
<path d="M 2847.8939 3201.7642 2882.2672 3216.7473 2830.5426 3316.5933 2809.4768 3305.065 2752.5324 3283.6214 2789.5662 3180.6711 2847.8939 3201.7642 Z" fill="none" stroke="#FBC20F" opacity="0.373134328358209" stroke-width="1" class="cobble_hill"/>
<path d="M 2790.2605 3180.5558 2883.3088 3216.9778 2831.0055 3315.9015 2752.9954 3283.6214 2790.2605 3180.5558 Z" fill="none" stroke="#FBC20F" opacity="0.373134328358209" stroke-width="1" class="cobble_hill"/>
<path d="M 2789.5662 3180.3253 2882.6145 3217.6696 2831.7 3316.5932 2751.375 3284.0825 2789.5662 3180.3253 Z" fill="none" stroke="#FBC20F" opacity="0.373134328358209" stroke-width="1" class="cobble_hill"/>
<path d="M 2789.1032 3176.1752 2849.5141 3201.0724 2882.1515 3216.7473 2839.1061 3298.1455 2760.1713 3263.7915 2790.0291 3179.403 2789.1032 3176.1752 Z" fill="none" stroke="#FBC20F" opacity="0.373134328358209" stroke-width="1" class="cobble_hill"/>
<path d="M 2790.9549 3182.6308 2882.846 3218.1307 2826.3764 3325.8172 2748.5971 3293.767 2790.9549 3182.6308 Z" fill="none" stroke="#FBC20F" opacity="0.373134328358209" stroke-width="1" class="cobble_hill"/>
<path d="M 2789.7976 3180.7864 2848.3569 3201.9947 2817.1147 3286.1565 2759.4769 3264.9444 2789.7976 3180.7864 Z" fill="none" stroke="#FBC20F" opacity="0.373134328358209" stroke-width="1" class="cobble_hill"/>
<path d="M 2835.8589 3212.1406 2846.5059 3210.2952 2859.2367 3214.9054 2917.1079 3252.9422 2912.943 3263.0882 2899.9828 3279.0002 2878.9195 3287.5346 2858.0867 3290.3039 2836.3274 3286.6164 2823.1326 3277.6246 2815.9557 3255.2587 2816.1858 3230.3568 2824.9806 3216.5221 2835.8589 3212.1406 Z" fill="none" stroke="#FBC20F" opacity="0.373134328358209" stroke-width="1" class="cobble_hill"/>
<path d="M 2789.1033 3182.6309 2884.9288 3214.9025 2894.6514 3224.1239 2843.2747 3322.1265 2751.6065 3282.699 2733.0886 3276.7034 2765.4952 3180.3256 2768.2726 3173.4088 2789.1033 3182.6309 Z" fill="none" stroke="#FBC20F" opacity="0.373134328358209" stroke-width="1" class="cobble_hill"/>
<path d="M 2790.2605 3180.5558 2851.3657 3200.8416 2818.9664 3284.0811 2759.4769 3263.3303 2790.2605 3180.5558 Z" fill="none" stroke="#FBC20F" opacity="0.373134328358209" stroke-width="1" class="cobble_hill"/>
<path d="M 2788.4089 3179.4031 2788.8718 3180.5559 2866.1799 3209.6016 2852.2948 3235.8879 2868.4982 3243.9563 2830.3111 3317.0545 2752.7639 3283.6214 2788.4089 3179.4031 Z" fill="none" stroke="#FBC20F" opacity="0.373134328358209" stroke-width="1" class="cobble_hill"/>
<path d="M 2774.2903 3176.1755 2864.0967 3209.3713 2810.4039 3328.3547 2743.7358 3305.2963 2757.6251 3265.6361 2738.1816 3256.4126 2774.2903 3176.1755 Z" fill="none" stroke="#FBC20F" opacity="0.373134328358209" stroke-width="1" class="cobble_hill"/>
<path d="M 2789.3347 3180.5558 2847.431 3201.5337 2817.3462 3285.9259 2758.7825 3265.1749 2789.3347 3180.5558 Z" fill="none" stroke="#FBC20F" opacity="0.373134328358209" stroke-width="1" class="cobble_hill"/>
<path d="M 2789.3347 3180.3253 2882.1515 3216.9779 2840.2634 3297.223 2757.6251 3264.022 2789.3347 3180.3253 Z" fill="none" stroke="#FBC20F" opacity="0.373134328358209" stroke-width="1" class="cobble_hill"/>
<path d="M 2790.9549 3181.7086 2881.4571 3216.978 2839.8004 3296.7619 2817.3462 3285.4647 2759.4769 3265.1749 2790.9549 3181.7086 Z" fill="none" stroke="#FBC20F" opacity="0.373134328358209" stroke-width="1" class="cobble_hill"/>
<path d="M 2793.7323 3179.864 2763.5278 3167.9908 2881.4571 3217.0933 2841.5366 3297.9147 2740.0334 3255.0292 2759.1301 3203.2664 2761.4447 3194.2745 2767.9254 3182.977 2771.2814 3177.7894 2764.2222 3168.6824 2793.7323 3179.864 Z" fill="none" stroke="#FBC20F" opacity="0.373134328358209" stroke-width="1" class="cobble_hill"/>
<path d="M 2788.6404 3180.3253 2847.894 3201.9948 2809.0139 3304.8344 2708.5527 3267.479 2715.4979 3249.4944 2737.7187 3257.3349 2767.8097 3172.9477 2788.6404 3180.3253 Z" fill="none" stroke="#FBC20F" opacity="0.373134328358209" stroke-width="1" class="cobble_hill"/>
<path d="M 2774.2903 3178.02 2877.0594 3217.6702 2842.8095 3295.1476 2742.811 3257.335 2774.2903 3178.02 Z" fill="none" stroke="#FBC20F" opacity="0.373134328358209" stroke-width="1" class="cobble_hill"/>
<path d="M 2779.9452 3209.7305 2792.2238 3184.5288 2849.3796 3203.2263 2846.1408 3222.133 2842.4377 3225.6966 2823.4621 3297.6384 2755.407 3272.2758 2779.9452 3209.7305 Z" fill="none" stroke="#FBC20F" opacity="0.373134328358209" stroke-width="1" class="cobble_hill"/>
<path d="M 2847.8939 3201.7642 2816.8832 3285.6953 2759.0139 3264.7138 2789.5662 3181.017 2791.6493 3181.0169 2796.7413 3183.5529 2847.8939 3201.7642 Z" fill="none" stroke="#FBC20F" opacity="0.373134328358209" stroke-width="1" class="cobble_hill"/>
<path d="M 2790.492 3179.403 2847.894 3202.4559 2817.5776 3285.0035 2760.5572 3263.7147 2790.492 3179.403 Z" fill="none" stroke="#FBC20F" opacity="0.373134328358209" stroke-width="1" class="cobble_hill"/>
<path d="M 2761.0972 3265.1749 2759.2454 3265.1749 2788.6403 3179.6336 2789.7976 3180.5558 2846.7366 3201.5337 2817.1147 3285.9259 2761.0972 3265.1749 Z" fill="none" stroke="#FBC20F" opacity="0.373134328358209" stroke-width="1" class="cobble_hill"/>
<path d="M 2759.4769 3265.1749 2789.7976 3180.7864 2848.8198 3201.9947 2881.6885 3216.7474 2928.4478 3240.9504 2887.7201 3321.8912 2864.3388 3310.595 2816.8832 3285.9259 2759.4769 3265.1749 Z" fill="none" stroke="#FBC20F" opacity="0.373134328358209" stroke-width="1" class="cobble_hill"/>
<path d="M 2845.5792 3200.1504 2792.3436 3181.0169 2816.1889 3286.8483 2759.4769 3265.8667 2845.5792 3200.1504 Z" fill="none" stroke="#FBC20F" opacity="0.373134328358209" stroke-width="1" class="cobble_hill"/>
<path d="M 2759.4769 3265.1749 2788.6404 3181.017 2846.2737 3201.3032 2816.4203 3285.4648 2759.4769 3265.1749 Z" fill="none" stroke="#FBC20F" opacity="0.373134328358209" stroke-width="1" class="cobble_hill"/>
<path d="M 2789.1033 3179.8642 2880.9943 3217.6698 2831.4684 3315.2096 2751.6065 3283.6214 2789.1033 3179.8642 Z" fill="none" stroke="#FBC20F" opacity="0.373134328358209" stroke-width="1" class="cobble_hill"/>
<path d="M 2883.0773 3216.7472 2838.1802 3299.2985 2816.8832 3285.0036 2757.1621 3264.7138 2787.7145 3179.8642 2883.0773 3216.7472 Z" fill="none" stroke="#FBC20F" opacity="0.373134328358209" stroke-width="1" class="cobble_hill"/>
<path d="M 2789.1032 3179.4031 2881.2256 3216.978 2829.3848 3311.5203 2748.3659 3281.5461 2785.4 3180.3254 2789.1032 3179.4031 Z" fill="none" stroke="#FBC20F" opacity="0.373134328358209" stroke-width="1" class="cobble_hill"/>
<path d="M 2790.9549 3180.7864 2881.2257 3217.6697 2854.8443 3271.627 2828.4552 3256.4109 2827.0667 3261.4837 2769.6615 3237.0447 2790.9549 3180.7864 Z" fill="none" stroke="#FBC20F" opacity="0.373134328358209" stroke-width="1" class="cobble_hill"/>
<path d="M 2792.8065 3181.7085 2881.2257 3217.6697 2877.9853 3218.1313 2830.5424 3314.0568 2731.4682 3276.7034 2759.246 3169.2588 2792.8065 3181.7085 Z" fill="none" stroke="#FBC20F" opacity="0.373134328358209" stroke-width="1" class="cobble_hill"/>
<path d="M 2789.7977 3181.9392 2851.8289 3204.3 2821.5129 3288.0009 2740.7278 3257.1044 2761.3289 3201.7678 2781.0029 3209.6069 2789.7977 3181.9392 Z" fill="none" stroke="#FBC20F" opacity="0.373134328358209" stroke-width="1" class="cobble_hill"/>
<path d="M 2848.8198 3202.4558 2815.4944 3287.0789 2738.876 3257.3349 2769.8927 3174.3311 2848.8198 3202.4558 Z" fill="none" stroke="#FBC20F" opacity="0.373134328358209" stroke-width="1" class="cobble_hill"/>
<path d="M 2747.4422 3163.0337 2849.1669 3201.3029 2882.9615 3216.0555 2850.2155 3279.6978 2824.868 3266.326 2826.3723 3261.3684 2750.5657 3230.2427 2747.4422 3163.0337 Z" fill="none" stroke="#FBC20F" opacity="0.373134328358209" stroke-width="1" class="cobble_hill"/>
<path d="M 2789.1032 3178.9419 2795.5841 3184.4752 2795.5839 3180.3251 2813.1747 3189.5468 2830.7659 3199.2293 2867.8008 3215.8267 2876.1332 3213.9813 2870.5791 3223.2046 2852.989 3234.2738 2850.2118 3238.8855 2829.8443 3261.0223 2828.921 3299.7603 2815.9588 3312.6741 2801.144 3319.1313 2780.773 3304.3741 2761.3285 3288.6943 2751.1438 3269.3253 2759.477 3247.1899 2776.1424 3220.4436 2785.4002 3189.0866 2789.1032 3178.9419 Z" fill="none" stroke="#FBC20F" opacity="0.373134328358209" stroke-width="1" class="cobble_hill"/>
<path d="M 2839.106 3296.9925 2786.3279 3275.7814 2802.9914 3206.6089 2814.1004 3187.2411 2878.9111 3217.67 2839.106 3296.9925 Z" fill="none" stroke="#FBC20F" opacity="0.373134328358209" stroke-width="1" class="cobble_hill"/>
<path d="M 2792.5752 3185.1669 2878.2169 3219.0535 2837.4856 3296.3009 2762.949 3265.4055 2792.5752 3185.1669 Z" fill="none" stroke="#FBC20F" opacity="0.373134328358209" stroke-width="1" class="cobble_hill"/>
<path d="M 2842.5712 3210.9872 2877.0603 3225.279 2842.5783 3298.1452 2760.6342 3265.1749 2784.4744 3191.1617 2842.5712 3210.9872 Z" fill="none" stroke="#FBC20F" opacity="0.373134328358209" stroke-width="1" class="cobble_hill"/>
<path d="M 2789.1033 3179.8642 2845.5792 3200.1504 2814.1055 3285.9261 2754.8474 3262.8691 2789.1033 3179.8642 Z" fill="none" stroke="#FBC20F" opacity="0.373134328358209" stroke-width="1" class="cobble_hill"/>
<path d="M 2793.732 3171.564 2890.0212 3217.2075 2861.7875 3261.4808 2739.3387 3267.711 2793.732 3171.564 Z" fill="none" stroke="#FBC20F" opacity="0.373134328358209" stroke-width="1" class="cobble_hill"/>
<path d="M 2789.3347 3180.5558 2847.3153 3201.7642 2817.3462 3285.58 2816.999 3286.0412 2758.8982 3264.8291 2789.3347 3180.5558 Z" fill="none" stroke="#FBC20F" opacity="0.373134328358209" stroke-width="1" class="cobble_hill"/>
<path d="M 2809.9398 3304.8344 2749.5233 3282.3531 2788.7561 3179.9795 2847.894 3201.8795 2882.9617 3217.5542 2861.4398 3256.6387 2831.237 3316.3626 2809.9398 3304.8344 Z" fill="none" stroke="#FBC20F" opacity="0.373134328358209" stroke-width="1" class="cobble_hill"/>
<path d="M 2794.6582 3184.0141 2845.348 3202.2255 2815.2627 3282.9284 2760.6342 3264.2526 2770.8189 3237.5058 2779.8456 3210.5291 2787.9461 3182.8615 2792.3436 3181.0169 2794.6582 3184.0141 Z" fill="none" stroke="#FBC20F" opacity="0.373134328358209" stroke-width="1" class="cobble_hill"/>
<path d="M 2786.789 3189.7783 2844.8858 3210.987 2812.9486 3296.0719 2754.3844 3273.7064 2785.6317 3188.8561 2786.789 3189.7783 Z" fill="none" stroke="#FBC20F" opacity="0.373134328358209" stroke-width="1" class="cobble_hill"/>
<path d="M 2818.0407 3286.6176 2757.6251 3264.2526 2789.5662 3180.5558 2847.8939 3201.5336 2882.1514 3216.5168 2840.032 3297.6842 2838.643 3296.762 2818.0407 3286.6176 Z" fill="none" stroke="#FBC20F" opacity="0.373134328358209" stroke-width="1" class="cobble_hill"/>
<path d="M 2766.884 3236.353 2789.3347 3180.7864 2847.6625 3201.7642 2825.9094 3261.9449 2766.884 3236.353 Z" fill="none" stroke="#FBC20F" opacity="0.373134328358209" stroke-width="1" class="cobble_hill"/>
<path d="M 2794.6585 3191.8531 2919.6514 3237.0321 2931.6911 3256.3984 2923.3646 3295.1375 2901.1478 3332.0355 2872.4474 3369.8576 2845.5928 3360.6361 2828.9239 3342.1894 2802.0707 3338.5013 2752.0691 3308.0636 2762.2545 3274.8593 2776.1427 3243.5007 2794.6585 3191.8531 Z" fill="none" stroke="#FBC20F" opacity="0.373134328358209" stroke-width="1" class="cobble_hill"/>
<path d="M 2789.7976 3181.0169 2883.5403 3216.9777 2840.0319 3296.5313 2759.9398 3264.022 2789.7976 3181.0169 Z" fill="none" stroke="#FBC20F" opacity="0.373134328358209" stroke-width="1" class="cobble_hill"/>
<path d="M 2848.5883 3201.0724 2882.383 3217.6696 2839.5691 3298.8372 2817.3462 3285.2341 2740.0334 3257.7961 2771.9758 3175.0227 2771.9758 3176.1755 2848.5883 3201.0724 Z" fill="none" stroke="#FBC20F" opacity="0.373134328358209" stroke-width="1" class="cobble_hill"/>
<path d="M 2812.2489 3189.7774 2857.8471 3206.6051 2815.2626 3281.0837 2788.8741 3271.1697 2770.1246 3262.6386 2755.5419 3259.8716 2742.5798 3246.0368 2743.0431 3232.8941 2756.9313 3199.9232 2777.5306 3177.5588 2812.2489 3189.7774 Z" fill="none" stroke="#FBC20F" opacity="0.373134328358209" stroke-width="1" class="cobble_hill"/>
<path d="M 2789.7977 3181.4781 2882.8458 3216.7473 2839.8005 3298.376 2760.1713 3265.1749 2789.7977 3181.4781 Z" fill="none" stroke="#FBC20F" opacity="0.373134328358209" stroke-width="1" class="cobble_hill"/>
<path d="M 2847.6625 3201.7642 2817.3462 3286.1565 2758.3195 3264.9443 2789.3347 3181.017 2847.6625 3201.7642 Z" fill="none" stroke="#FBC20F" opacity="0.373134328358209" stroke-width="1" class="cobble_hill"/>
<path d="M 2881.2257 3217.4392 2834.4771 3306.6776 2772.208 3280.3933 2805.5367 3187.2415 2881.2257 3217.4392 Z" fill="none" stroke="#FBC20F" opacity="0.373134328358209" stroke-width="1" class="cobble_hill"/>
<path d="M 2792.8066 3183.7836 2789.7976 3179.8642 2846.0423 3201.5338 2816.6516 3283.6201 2760.4028 3262.8691 2759.4769 3262.8691 2759.7083 3265.6361 2792.8066 3183.7836 Z" fill="none" stroke="#FBC20F" opacity="0.373134328358209" stroke-width="1" class="cobble_hill"/>
<path d="M 2865.9485 3210.2933 2906.6884 3230.5782 2874.2895 3284.0764 2750.2185 3228.744 2771.5129 3173.4088 2865.9485 3210.2933 Z" fill="none" stroke="#FBC20F" opacity="0.373134328358209" stroke-width="1" class="cobble_hill"/>
<path d="M 2881.9201 3217.2085 2840.2634 3297.4536 2816.8832 3285.9259 2739.5704 3257.1044 2768.0411 3181.0173 2759.7089 3169.9505 2849.2828 3203.378 2881.9201 3217.2085 Z" fill="none" stroke="#FBC20F" opacity="0.373134328358209" stroke-width="1" class="cobble_hill"/>
<path d="M 2882.1516 3218.1308 2835.403 3306.6775 2756.2362 3273.937 2789.1032 3178.4808 2882.1516 3218.1308 Z" fill="none" stroke="#FBC20F" opacity="0.373134328358209" stroke-width="1" class="cobble_hill"/>
<path d="M 2739.1075 3256.4126 2743.0425 3257.1044 2769.6613 3174.1005 2846.9679 3199.2281 2812.0225 3292.6131 2735.1722 3264.7133 2739.1075 3256.4126 Z" fill="none" stroke="#FBC20F" opacity="0.373134328358209" stroke-width="1" class="cobble_hill"/>
<path d="M 2785.9531 3452.4087 2684.1017 3256.8559 2768.3568 3178.4663 2791.5022 3184.9216 2935.9406 3249.4655 2894.2882 3338.0172 2883.1791 3357.389 2880.4044 3384.1395 2865.5901 3401.6675 2839.6608 3394.2904 2823.9191 3402.5935 2785.9531 3452.4087 Z" fill="none" stroke="#FBC20F" opacity="0.373134328358209" stroke-width="1" class="cobble_hill"/>
<path d="M 2790.9549 3182.1697 2849.2827 3202.2252 2907.8454 3228.2723 2863.4129 3311.5174 2756.4677 3263.5609 2790.9549 3182.1697 Z" fill="none" stroke="#FBC20F" opacity="0.373134328358209" stroke-width="1" class="cobble_hill"/>
<path d="M 2776.1419 3173.4088 2865.0229 3212.138 2824.2932 3328.3539 2733.5511 3289.6161 2776.1419 3173.4088 Z" fill="none" stroke="#FBC20F" opacity="0.373134328358209" stroke-width="1" class="cobble_hill"/>
<path d="M 2848.3569 3202.2253 2849.9771 3202.2251 2812.0227 3295.1496 2810.6338 3294.6885 2737.024 3267.0192 2770.1242 3175.945 2760.8662 3171.1033 2759.9404 3170.181 2848.3569 3202.2253 Z" fill="none" stroke="#FBC20F" opacity="0.373134328358209" stroke-width="1" class="cobble_hill"/>
<path d="M 2840.9578 3296.9924 2831.6999 3315.4402 2735.4033 3278.5482 2772.6701 3174.7922 2872.893 3216.2873 2877.0598 3220.4371 2840.9578 3296.9924 Z" fill="none" stroke="#FBC20F" opacity="0.373134328358209" stroke-width="1" class="cobble_hill"/>
<path d="M 2883.5403 3217.2083 2829.848 3315.9015 2733.3201 3276.4728 2790.0291 3182.6309 2883.5403 3217.2083 Z" fill="none" stroke="#FBC20F" opacity="0.373134328358209" stroke-width="1" class="cobble_hill"/>
<path d="M 2771.2814 3174.3311 2847.1995 3201.3031 2881.92 3216.5168 2830.774 3316.3627 2809.2454 3304.8344 2710.173 3268.8626 2716.6552 3249.4944 2739.5704 3257.1044 2771.2814 3174.3311 Z" fill="none" stroke="#FBC20F" opacity="0.373134328358209" stroke-width="1" class="cobble_hill"/>
<path d="M 2880.2999 3217.9004 2839.8006 3299.5289 2757.8566 3265.8667 2789.7976 3181.2475 2880.5311 3215.8253 2880.2999 3217.9004 Z" fill="none" stroke="#FBC20F" opacity="0.373134328358209" stroke-width="1" class="cobble_hill"/>
<path d="M 2847.6624 3201.0725 2810.6342 3303.2202 2801.8386 3323.0514 2743.5044 3302.2987 2750.2177 3284.0825 2731.4682 3276.9339 2758.5514 3211.2209 2760.6346 3198.3093 2792.3445 3212.3734 2804.8422 3185.3971 2847.6624 3201.0725 Z" fill="none" stroke="#FBC20F" opacity="0.373134328358209" stroke-width="1" class="cobble_hill"/></svg>