<?xml version="1.0"?><svg xmlns="http://www.w3.org/2000/svg" version="1.2" baseProfile="tiny" width="6000" height="5918" viewBox="0 0 6000 5918" stroke-linecap="round" stroke-linejoin="round"><path d="M 2715.9608 3249.0332 2762.2548 3194.6203 2775.2163 3192.7758 2724.9844 3336.8869 2701.3752 3294.2262 2715.9608 3249.0332 Z" fill="none" stroke="#12852D" opacity="0.6" stroke-width="1" class="columbia_street_waterfront_district"/>
<path d="M 2719.6642 3250.878 2743.274 3257.335 2760.4031 3202.4595 2774.7536 3211.682 2728.4567 3337.1177 2703.4586 3294.2263 2719.6642 3250.878 Z" fill="none" stroke="#12852D" opacity="0.6" stroke-width="1" class="columbia_street_waterfront_district"/>
<path d="M 2699.2924 3287.7697 2680.778 3244.4192 2740.0358 3166.0307 2764.1064 3182.6312 2751.1448 3205.6873 2773.3647 3200.1538 2725.2161 3331.122 2702.9966 3279.4689 2716.8873 3237.0435 2699.2924 3287.7697 Z" fill="none" stroke="#12852D" opacity="0.6" stroke-width="1" class="columbia_street_waterfront_district"/>
<path d="M 2717.8125 3250.8779 2740.4963 3257.1044 2748.0195 3237.9668 2755.0794 3218.599 2771.6286 3173.8699 2789.2191 3182.6309 2775.2165 3214.4488 2759.4769 3254.1072 2741.6526 3298.148 2722.2052 3363.6364 2705.3064 3356.948 2718.7351 3316.8249 2699.7552 3289.6144 2717.8125 3250.8779 Z" fill="none" stroke="#12852D" opacity="0.6" stroke-width="1" class="columbia_street_waterfront_district"/>
<path d="M 2724.9843 3337.3481 2722.0909 3333.5431 2716.8828 3324.5497 2710.5177 3311.4056 2705.1942 3300.5676 2700.1022 3293.3038 2706.3531 3277.9703 2716.6552 3249.0333 2740.0334 3257.6808 2771.2814 3174.1005 2777.2994 3195.1967 2775.9108 3203.0358 2774.985 3207.8777 2728.2253 3334.4658 2724.9843 3337.3481 Z" fill="none" stroke="#12852D" opacity="0.6" stroke-width="1" class="columbia_street_waterfront_district"/>
<path d="M 2699.292 3293.3037 2715.2664 3249.2638 2738.876 3257.5655 2770.3556 3173.4088 2789.3347 3179.8642 2726.3732 3338.04 2699.292 3293.3037 Z" fill="none" stroke="#12852D" opacity="0.6" stroke-width="1" class="columbia_street_waterfront_district"/>
<path d="M 2700.4494 3293.3038 2716.8867 3249.6097 2739.4547 3257.5655 2770.9342 3173.9852 2776.7207 3186.2048 2778.341 3199.1162 2775.7951 3207.7624 2726.1418 3336.887 2723.8269 3336.6563 2702.5326 3295.3792 2700.4494 3293.3038 Z" fill="none" stroke="#12852D" opacity="0.6" stroke-width="1" class="columbia_street_waterfront_district"/>
<path d="M 2700.218 3292.3814 2716.771 3249.3791 2739.6862 3257.1044 2760.2874 3202.2289 2779.0355 3209.4916 2727.762 3342.0755 2700.218 3292.3814 Z" fill="none" stroke="#12852D" opacity="0.6" stroke-width="1" class="columbia_street_waterfront_district"/>
<path d="M 2702.9957 3292.3816 2718.5069 3251.3391 2743.0425 3257.5656 2771.7443 3176.1755 2788.1775 3182.1698 2724.5215 3333.4279 2702.9957 3292.3816 Z" fill="none" stroke="#12852D" opacity="0.6" stroke-width="1" class="columbia_street_waterfront_district"/>
<path d="M 2776.6052 3209.2611 2726.1417 3338.5011 2701.0282 3292.0356 2716.5395 3248.918 2740.2649 3256.6432 2759.2458 3202.2289 2776.6052 3209.2611 Z" fill="none" stroke="#12852D" opacity="0.6" stroke-width="1" class="columbia_street_waterfront_district"/>
<path d="M 2779.8454 3196.4647 2724.2898 3339.4234 2695.5885 3290.5364 2772.4386 3156.8089 2779.8454 3196.4647 Z" fill="none" stroke="#12852D" opacity="0.6" stroke-width="1" class="columbia_street_waterfront_district"/>
<path d="M 2788.6404 3179.8642 2726.6048 3336.6564 2699.7549 3293.9955 2717.8126 3248.5722 2740.4963 3257.335 2766.421 3173.87 2788.6404 3179.8642 Z" fill="none" stroke="#12852D" opacity="0.6" stroke-width="1" class="columbia_street_waterfront_district"/>
<path d="M 2788.6404 3180.3253 2727.0676 3339.8848 2700.2179 3293.3038 2715.9608 3249.0332 2739.1075 3256.8738 2767.8097 3172.4866 2788.6404 3180.3253 Z" fill="none" stroke="#12852D" opacity="0.6" stroke-width="1" class="columbia_street_waterfront_district"/>
<path d="M 2771.7443 3176.6366 2779.1511 3197.1564 2755.5418 3263.7914 2727.0677 3338.9624 2698.1345 3293.9954 2711.5629 3249.2636 2771.7443 3176.6366 Z" fill="none" stroke="#12852D" opacity="0.6" stroke-width="1" class="columbia_street_waterfront_district"/>
<path d="M 2724.29 3334.8115 2701.1439 3292.3815 2708.5526 3268.8625 2714.5721 3247.6497 2739.5704 3257.3349 2771.2814 3176.8672 2777.7624 3198.5398 2727.0681 3328.355 2724.29 3334.8115 Z" fill="none" stroke="#12852D" opacity="0.6" stroke-width="1" class="columbia_street_waterfront_district"/>
<path d="M 2701.1438 3293.3038 2716.8868 3247.1887 2738.6446 3256.4126 2769.6613 3173.87 2789.1032 3179.4031 2729.8455 3341.2685 2701.1438 3293.3038 Z" fill="none" stroke="#12852D" opacity="0.6" stroke-width="1" class="columbia_street_waterfront_district"/>
<path d="M 2772.2072 3175.0227 2788.8718 3180.9017 2770.8188 3219.7519 2725.7945 3337.5787 2699.9865 3291.8049 2703.2276 3285.6947 2716.3081 3248.5721 2740.0334 3256.7585 2771.05 3174.2158 2771.3972 3174.6769 2772.2072 3175.0227 Z" fill="none" stroke="#12852D" opacity="0.6" stroke-width="1" class="columbia_street_waterfront_district"/>
<path d="M 2725.6788 3336.6563 2700.4494 3292.612 2686.5643 3249.0312 2765.9581 3165.1088 2792.8065 3180.7863 2725.6788 3336.6563 Z" fill="none" stroke="#12852D" opacity="0.6" stroke-width="1" class="columbia_street_waterfront_district"/>
<path d="M 2727.7624 3334.0046 2725.4474 3335.3881 2701.8383 3292.151 2709.594 3273.1283 2717.9282 3250.6474 2738.6445 3260.3324 2741.3065 3256.8738 2748.251 3234.2777 2760.4031 3204.304 2772.2072 3175.4838 2786.4416 3181.7087 2772.6704 3208.2236 2770.0087 3219.8672 2762.1389 3239.2351 2753.8058 3261.0245 2747.7872 3280.8543 2740.9582 3296.5339 2736.5596 3312.2138 2731.3508 3324.0891 2727.7624 3334.0046 Z" fill="none" stroke="#12852D" opacity="0.6" stroke-width="1" class="columbia_street_waterfront_district"/>
<path d="M 2725.2158 3338.5011 2684.4808 3251.798 2768.7354 3166.031 2772.4388 3197.3871 2725.2158 3338.5011 Z" fill="none" stroke="#12852D" opacity="0.6" stroke-width="1" class="columbia_street_waterfront_district"/>
<path d="M 2717.3497 3248.111 2760.6346 3202.69 2776.6052 3207.7624 2727.2992 3338.2706 2700.2178 3293.9955 2717.3497 3248.111 Z" fill="none" stroke="#12852D" opacity="0.6" stroke-width="1" class="columbia_street_waterfront_district"/>
<path d="M 2771.2814 3174.3311 2777.5308 3193.2369 2774.2905 3201.076 2726.1419 3333.8892 2715.0317 3310.8294 2688.1844 3250.876 2721.7438 3330.4301 2683.0921 3250.4144 2675.4548 3238.885 2680.7789 3234.5046 2685.4092 3222.5154 2691.6594 3213.5237 2696.0579 3202.918 2703.6967 3192.7738 2707.4006 3182.3988 2713.6503 3172.9463 2717.5856 3161.4187 2743.0445 3171.103 2745.8221 3165.1086 2771.2814 3174.3311 Z" fill="none" stroke="#12852D" opacity="0.6" stroke-width="1" class="columbia_street_waterfront_district"/>
<path d="M 2724.29 3334.8115 2700.2185 3285.0027 2713.1834 3246.2662 2737.2559 3252.7233 2762.2548 3189.0868 2778.9197 3200.1537 2724.29 3334.8115 Z" fill="none" stroke="#12852D" opacity="0.6" stroke-width="1" class="columbia_street_waterfront_district"/>
<path d="M 2725.2161 3330.1996 2696.5152 3280.3908 2708.5539 3247.1882 2735.4041 3252.7233 2759.4775 3170.6422 2776.1422 3204.7651 2725.2161 3330.1996 Z" fill="none" stroke="#12852D" opacity="0.6" stroke-width="1" class="columbia_street_waterfront_district"/>
<path d="M 2716.8868 3248.111 2741.8851 3258.2573 2769.6613 3176.1755 2805.3052 3188.1638 2740.9565 3361.5616 2699.292 3292.3814 2716.8868 3248.111 Z" fill="none" stroke="#12852D" opacity="0.6" stroke-width="1" class="columbia_street_waterfront_district"/>
<path d="M 2738.876 3257.1043 2771.7443 3175.5991 2775.1005 3185.2826 2777.1836 3192.7758 2776.7208 3201.5372 2726.6048 3336.3105 2701.3753 3293.4191 2717.5811 3248.918 2738.876 3257.1043 Z" fill="none" stroke="#12852D" opacity="0.6" stroke-width="1" class="columbia_street_waterfront_district"/>
<path d="M 2727.9937 3336.6564 2699.9863 3294.9179 2702.3011 3294.6874 2716.8868 3248.111 2716.8869 3244.8829 2769.1983 3149.8923 2778.2253 3200.1537 2778.9197 3201.7677 2727.0675 3344.0355 2727.9937 3336.6564 Z" fill="none" stroke="#12852D" opacity="0.6" stroke-width="1" class="columbia_street_waterfront_district"/>
<path d="M 2788.1774 3177.0975 2753.9215 3263.7914 2739.1075 3256.4126 2766.8839 3172.4866 2788.1774 3177.0975 Z" fill="none" stroke="#12852D" opacity="0.6" stroke-width="1" class="columbia_street_waterfront_district"/>
<path d="M 2702.0696 3295.1486 2710.4056 3249.0329 2766.8839 3167.8755 2778.9198 3207.5318 2729.8458 3333.8894 2702.0696 3295.1486 Z" fill="none" stroke="#12852D" opacity="0.6" stroke-width="1" class="columbia_street_waterfront_district"/>
<path d="M 2740.0333 3258.2573 2770.5871 3172.4866 2784.4743 3183.5532 2729.8456 3338.5013 2720.5861 3335.7337 2689.1066 3296.07 2705.7763 3247.1881 2740.0333 3258.2573 Z" fill="none" stroke="#12852D" opacity="0.6" stroke-width="1" class="columbia_street_waterfront_district"/>
<path d="M 2792.8065 3181.7085 2727.0677 3337.5788 2681.7037 3246.2639 2733.5561 3142.0531 2738.1849 3143.8976 2792.8065 3181.7085 Z" fill="none" stroke="#12852D" opacity="0.6" stroke-width="1" class="columbia_street_waterfront_district"/>
<path d="M 2698.0204 3301.1786 2717.4674 3250.6824 2718.1618 3251.3742 2740.1512 3255.756 2762.3726 3204.8002 2777.1859 3209.1808 2726.2594 3343.1482 2698.0204 3301.1786 Z" fill="none" stroke="#12852D" opacity="0.6" stroke-width="1" class="columbia_street_waterfront_district"/>
<path d="M 2787.2517 3181.7087 2724.2895 3345.8802 2694.6623 3294.2257 2715.9608 3249.9555 2740.0334 3257.3349 2771.5128 3159.5755 2787.2517 3181.7087 Z" fill="none" stroke="#12852D" opacity="0.6" stroke-width="1" class="columbia_street_waterfront_district"/>
<path d="M 2669.2059 3231.9672 2712.2626 3156.3463 2788.6403 3178.0197 2724.7523 3349.5698 2669.2059 3231.9672 Z" fill="none" stroke="#12852D" opacity="0.6" stroke-width="1" class="columbia_street_waterfront_district"/>
<path d="M 2712.7215 3226.437 2756.2371 3178.4811 2778.4567 3195.5425 2733.0883 3285.4656 2712.7215 3226.437 Z" fill="none" stroke="#12852D" opacity="0.6" stroke-width="1" class="columbia_street_waterfront_district"/>
<path d="M 2725.6788 3338.0399 2701.3753 3292.8427 2716.8867 3249.4944 2758.3199 3211.9126 2771.2817 3217.9074 2725.6788 3338.0399 Z" fill="none" stroke="#12852D" opacity="0.6" stroke-width="1" class="columbia_street_waterfront_district"/>
<path d="M 2740.0349 3201.0757 2774.2906 3209.3764 2724.2898 3338.5011 2699.2915 3299.7601 2730.7767 3199.2309 2735.4057 3203.8424 2740.0349 3201.0757 Z" fill="none" stroke="#12852D" opacity="0.6" stroke-width="1" class="columbia_street_waterfront_district"/>
<path d="M 2768.7355 3171.5644 2777.068 3199.2315 2724.2897 3340.3458 2699.2921 3291.459 2714.1091 3249.0331 2768.7355 3171.5644 Z" fill="none" stroke="#12852D" opacity="0.6" stroke-width="1" class="columbia_street_waterfront_district"/>
<path d="M 2788.6403 3178.942 2724.9843 3337.3481 2699.9864 3292.8426 2743.7389 3172.0253 2747.2108 3164.1864 2758.7831 3168.106 2788.6403 3178.942 Z" fill="none" stroke="#12852D" opacity="0.6" stroke-width="1" class="columbia_street_waterfront_district"/>
<path d="M 2789.1033 3180.5558 2724.2899 3336.4257 2700.6809 3292.1509 2716.4237 3249.725 2740.2648 3258.0267 2771.2814 3172.9477 2789.1033 3180.5558 Z" fill="none" stroke="#12852D" opacity="0.6" stroke-width="1" class="columbia_street_waterfront_district"/>
<path d="M 2699.292 3293.3037 2757.6259 3171.5644 2766.8839 3174.3311 2785.3999 3176.1753 2726.1415 3344.0355 2699.292 3293.3037 Z" fill="none" stroke="#12852D" opacity="0.6" stroke-width="1" class="columbia_street_waterfront_district"/>
<path d="M 2727.9937 3336.6564 2701.1438 3294.2262 2709.4789 3262.8675 2774.7532 3176.1755 2784.9372 3183.0921 2727.9937 3336.6564 Z" fill="none" stroke="#12852D" opacity="0.6" stroke-width="1" class="columbia_street_waterfront_district"/>
<path d="M 2724.29 3334.8115 2725.2163 3325.5878 2716.8833 3315.4413 2709.4771 3293.3044 2713.1818 3273.9356 2716.886 3261.9456 2724.2938 3248.1113 2733.5521 3259.1794 2741.8854 3248.1119 2747.441 3227.8217 2760.4031 3207.5319 2771.5129 3183.5534 2767.8097 3192.7758 2783.5488 3199.2314 2769.6615 3220.4436 2776.1423 3210.2986 2755.7736 3236.1224 2755.7734 3259.1799 2763.1805 3244.423 2748.3659 3278.5485 2752.0696 3275.7816 2744.662 3294.2281 2739.1061 3307.1409 2736.3276 3329.2777 2743.7354 3320.9765 2728.9196 3340.346 2724.29 3334.8115 Z" fill="none" stroke="#12852D" opacity="0.6" stroke-width="1" class="columbia_street_waterfront_district"/>
<path d="M 2699.2924 3287.7697 2715.961 3246.2663 2740.9592 3258.2573 2767.8097 3174.3311 2785.4 3180.7865 2725.216 3333.8892 2699.2924 3287.7697 Z" fill="none" stroke="#12852D" opacity="0.6" stroke-width="1" class="columbia_street_waterfront_district"/>
<path d="M 2738.1816 3256.4126 2770.5871 3173.4088 2789.5662 3179.8642 2724.7529 3336.6563 2698.8291 3292.3813 2716.4239 3247.1887 2738.1816 3256.4126 Z" fill="none" stroke="#12852D" opacity="0.6" stroke-width="1" class="columbia_street_waterfront_district"/>
<path d="M 2786.7884 3164.6475 2787.2518 3188.1644 2730.7709 3356.0268 2702.0698 3292.3816 2762.2549 3158.6533 2786.7884 3164.6475 Z" fill="none" stroke="#12852D" opacity="0.6" stroke-width="1" class="columbia_street_waterfront_district"/>
<path d="M 2773.8274 3180.3255 2788.6405 3184.0142 2728.9194 3345.4192 2700.6808 3293.765 2716.8868 3247.6498 2773.8274 3180.3255 Z" fill="none" stroke="#12852D" opacity="0.6" stroke-width="1" class="columbia_street_waterfront_district"/>
<path d="M 2768.7355 3174.3311 2790.0291 3183.092 2730.7715 3340.3461 2701.1436 3296.0709 2715.4976 3255.4893 2735.8668 3260.5629 2757.6256 3202.4594 2768.7355 3174.3311 Z" fill="none" stroke="#12852D" opacity="0.6" stroke-width="1" class="columbia_street_waterfront_district"/>
<path d="M 2710.4045 3266.7874 2716.5395 3250.0709 2741.3065 3257.335 2761.0975 3202.4595 2777.2996 3208.6846 2765.3794 3235.4307 2754.2688 3263.5608 2746.1668 3281.6613 2710.4045 3266.7874 Z" fill="none" stroke="#12852D" opacity="0.6" stroke-width="1" class="columbia_street_waterfront_district"/>
<path d="M 2769.6613 3173.4088 2826.1365 3194.3878 2754.6145 3386.2367 2730.7714 3343.5745 2701.8383 3291.9204 2715.9608 3249.9555 2740.2648 3257.5655 2769.6613 3173.4088 Z" fill="none" stroke="#12852D" opacity="0.6" stroke-width="1" class="columbia_street_waterfront_district"/>
<path d="M 2787.7145 3179.8642 2724.753 3334.8115 2694.663 3285.4635 2675.6863 3238.4239 2713.6513 3154.5019 2787.7145 3179.8642 Z" fill="none" stroke="#12852D" opacity="0.6" stroke-width="1" class="columbia_street_waterfront_district"/>
<path d="M 2716.6552 3249.0333 2740.0333 3258.2573 2763.6435 3193.0064 2778.2253 3198.7704 2727.0677 3338.7318 2699.7551 3291.2285 2716.6552 3249.0333 Z" fill="none" stroke="#12852D" opacity="0.6" stroke-width="1" class="columbia_street_waterfront_district"/>
<path d="M 2790.9549 3181.9392 2793.9638 3182.746 2787.7146 3183.3226 2787.1361 3185.974 2786.0946 3188.0491 2787.0203 3186.6657 2785.7474 3190.0089 2784.0116 3191.9687 2782.16 3198.655 2778.2254 3209.261 2771.8604 3224.7091 2764.685 3241.6562 2757.8566 3255.7212 2755.3104 3265.1749 2746.7454 3286.3883 2741.1896 3302.5292 2736.791 3315.3268 2733.7814 3323.1669 2731.3507 3327.548 2727.9939 3331.9292 2726.8363 3335.5034 2721.3964 3332.736 2718.5031 3326.971 2715.4942 3319.8225 2700.7967 3292.3815 2693.9688 3282.3505 2705.5434 3269.7846 2710.0581 3254.2209 2714.1098 3236.4669 2719.7813 3222.8635 2724.2955 3208.5685 2729.5036 3201.4212 2742.2339 3195.7729 2753.6909 3195.1967 2758.0886 3191.7383 2760.6346 3190.816 2764.9165 3186.2048 2765.4952 3184.0145 2770.3556 3172.2561 2774.7532 3175.2533 2777.5306 3177.3283 2780.771 3178.2504 2784.7057 3180.3254 2787.2517 3181.017 2790.9549 3181.9392 Z" fill="none" stroke="#12852D" opacity="0.6" stroke-width="1" class="columbia_street_waterfront_district"/>
<path d="M 2787.2516 3179.8642 2725.2158 3338.5011 2699.2918 3295.1484 2715.035 3248.1109 2736.3298 3258.2571 2770.587 3159.5755 2785.4001 3183.5532 2787.2516 3179.8642 Z" fill="none" stroke="#12852D" opacity="0.6" stroke-width="1" class="columbia_street_waterfront_district"/>
<path d="M 2725.6788 3338.0399 2699.7549 3294.2261 2716.4238 3249.2638 2739.8019 3257.7961 2759.9402 3201.9983 2774.7535 3207.993 2725.6788 3338.0399 Z" fill="none" stroke="#12852D" opacity="0.6" stroke-width="1" class="columbia_street_waterfront_district"/>
<path d="M 2715.035 3248.1109 2739.1075 3256.4126 2768.7354 3155.8867 2788.1775 3181.7087 2721.5115 3346.8025 2696.514 3296.0705 2715.035 3248.1109 Z" fill="none" stroke="#12852D" opacity="0.6" stroke-width="1" class="columbia_street_waterfront_district"/>
<path d="M 2715.9608 3250.4167 2738.1816 3257.796 2759.4773 3201.7678 2774.7535 3208.4541 2725.6788 3337.1175 2699.755 3292.8426 2715.9608 3250.4167 Z" fill="none" stroke="#12852D" opacity="0.6" stroke-width="1" class="columbia_street_waterfront_district"/>
<path d="M 2764.5694 3172.4866 2776.8366 3201.9983 2741.8843 3290.0775 2724.2899 3336.6563 2700.6809 3293.3038 2713.1833 3247.6496 2764.5694 3172.4866 Z" fill="none" stroke="#12852D" opacity="0.6" stroke-width="1" class="columbia_street_waterfront_district"/>
<path d="M 2739.5704 3257.3349 2762.7177 3193.6981 2779.3825 3196.0036 2720.1217 3364.7893 2665.0291 3329.734 2715.9608 3250.4167 2739.5704 3257.3349 Z" fill="none" stroke="#12852D" opacity="0.6" stroke-width="1" class="columbia_street_waterfront_district"/>
<path d="M 2717.1181 3249.725 2759.9402 3201.9983 2774.985 3207.5318 2728.9199 3332.5057 2724.9843 3337.3481 2700.4495 3292.1509 2717.1181 3249.725 Z" fill="none" stroke="#12852D" opacity="0.6" stroke-width="1" class="columbia_street_waterfront_district"/>
<path d="M 2699.292 3293.3037 2705.7757 3256.4111 2770.1242 3174.7922 2789.5662 3182.1697 2734.476 3321.4374 2712.2538 3311.2904 2699.292 3293.3037 Z" fill="none" stroke="#12852D" opacity="0.6" stroke-width="1" class="columbia_street_waterfront_district"/>
<path d="M 2716.8867 3248.5721 2740.9592 3258.2573 2763.1806 3196.0037 2768.7355 3194.6203 2774.7534 3197.8482 2776.1422 3200.6149 2774.7535 3205.2262 2725.6789 3333.8892 2701.6068 3292.8427 2716.8867 3248.5721 Z" fill="none" stroke="#12852D" opacity="0.6" stroke-width="1" class="columbia_street_waterfront_district"/>
<path d="M 2717.8125 3250.8779 2740.0333 3259.1796 2769.6613 3179.8645 2774.2903 3179.8644 2776.1422 3201.9983 2725.2158 3338.5011 2700.218 3291.4591 2717.8125 3250.8779 Z" fill="none" stroke="#12852D" opacity="0.6" stroke-width="1" class="columbia_street_waterfront_district"/>
<path d="M 2699.5234 3293.7649 2768.9669 3157.27 2778.2253 3200.6149 2727.2995 3331.5833 2727.7624 3332.7363 2725.6788 3337.3481 2699.5234 3293.7649 Z" fill="none" stroke="#12852D" opacity="0.6" stroke-width="1" class="columbia_street_waterfront_district"/>
<path d="M 2776.1423 3209.3764 2729.8453 3346.8028 2694.6645 3265.6335 2755.7739 3204.7651 2776.1423 3209.3764 Z" fill="none" stroke="#12852D" opacity="0.6" stroke-width="1" class="columbia_street_waterfront_district"/>
<path d="M 2721.9835 3152.6579 2775.6792 3190.9313 2725.2159 3334.8116 2681.2411 3242.5747 2721.9835 3152.6579 Z" fill="none" stroke="#12852D" opacity="0.6" stroke-width="1" class="columbia_street_waterfront_district"/>
<path d="M 2701.1438 3293.3038 2718.7386 3247.1888 2741.8851 3259.1796 2767.8097 3171.5644 2786.3259 3181.7087 2725.2156 3343.113 2701.1438 3293.3038 Z" fill="none" stroke="#12852D" opacity="0.6" stroke-width="1" class="columbia_street_waterfront_district"/>
<path d="M 2778.9196 3196.4647 2732.6244 3312.6749 2701.1458 3263.7893 2765.9581 3172.4866 2778.9196 3196.4647 Z" fill="none" stroke="#12852D" opacity="0.6" stroke-width="1" class="columbia_street_waterfront_district"/>
<path d="M 2700.218 3292.3814 2716.8868 3247.6498 2740.0334 3257.7961 2770.1242 3171.5644 2788.6404 3181.7087 2722.901 3335.2726 2700.218 3292.3814 Z" fill="none" stroke="#12852D" opacity="0.6" stroke-width="1" class="columbia_street_waterfront_district"/>
<path d="M 2785.4003 3194.6201 2736.3277 3327.4329 2702.9958 3290.5369 2747.4417 3190.9312 2785.4003 3194.6201 Z" fill="none" stroke="#12852D" opacity="0.6" stroke-width="1" class="columbia_street_waterfront_district"/>
<path d="M 2789.1033 3181.2475 2729.8454 3344.4968 2700.2183 3287.7697 2717.8126 3248.111 2741.8851 3256.8738 2769.1984 3172.9477 2789.1033 3181.2475 Z" fill="none" stroke="#12852D" opacity="0.6" stroke-width="1" class="columbia_street_waterfront_district"/>
<path d="M 2749.4079 3260.7938 2751.3754 3263.3302 2751.7226 3262.5232 2751.7226 3262.062 2754.2687 3264.1373 2726.0261 3335.3881 2711.9068 3307.1398 2714.2217 3305.8717 2702.07 3288.9228 2706.817 3261.5992 2715.729 3255.2588 2726.0296 3250.9936 2749.4079 3260.7938 Z" fill="none" stroke="#12852D" opacity="0.6" stroke-width="1" class="columbia_street_waterfront_district"/>
<path d="M 2699.0605 3293.5343 2708.5539 3248.5717 2716.6553 3247.6498 2739.1075 3255.4903 2769.4298 3174.1005 2787.7146 3182.4004 2727.9938 3334.5811 2699.0605 3293.5343 Z" fill="none" stroke="#12852D" opacity="0.6" stroke-width="1" class="columbia_street_waterfront_district"/>
<path d="M 2789.5662 3181.2475 2738.6431 3308.0633 2722.4395 3302.9897 2768.2726 3176.1755 2789.5662 3181.2475 Z" fill="none" stroke="#12852D" opacity="0.6" stroke-width="1" class="columbia_street_waterfront_district"/>
<path d="M 2756.0048 3264.7137 2754.6159 3264.9443 2724.9843 3338.0399 2700.4495 3292.1509 2718.044 3249.2639 2756.0048 3264.7137 Z" fill="none" stroke="#12852D" opacity="0.6" stroke-width="1" class="columbia_street_waterfront_district"/>
<path d="M 2726.1419 3335.734 2701.144 3290.5368 2716.8868 3247.1887 2740.0334 3256.4126 2765.0323 3196.4648 2773.3647 3202.9206 2726.1419 3335.734 Z" fill="none" stroke="#12852D" opacity="0.6" stroke-width="1" class="columbia_street_waterfront_district"/>
<path d="M 2774.2906 3207.7624 2725.4473 3337.3481 2704.8471 3298.8382 2700.9123 3293.3038 2716.1923 3248.5721 2739.5704 3256.8738 2759.4773 3202.69 2774.2906 3207.7624 Z" fill="none" stroke="#12852D" opacity="0.6" stroke-width="1" class="columbia_street_waterfront_district"/>
<path d="M 2717.8126 3248.111 2762.0234 3168.106 2772.2072 3173.8699 2777.9939 3206.8401 2727.9936 3340.1154 2701.3752 3293.9956 2717.8126 3248.111 Z" fill="none" stroke="#12852D" opacity="0.6" stroke-width="1" class="columbia_street_waterfront_district"/>
<path d="M 2789.1033 3181.2475 2730.3086 3338.5013 2699.292 3293.3037 2716.8867 3248.5721 2739.5705 3255.0292 2769.1984 3175.2533 2789.1033 3181.2475 Z" fill="none" stroke="#12852D" opacity="0.6" stroke-width="1" class="columbia_street_waterfront_district"/>
<path d="M 2732.6299 3154.9639 2786.3259 3184.4754 2732.6233 3343.1133 2678.9257 3250.8752 2732.6299 3154.9639 Z" fill="none" stroke="#12852D" opacity="0.6" stroke-width="1" class="columbia_street_waterfront_district"/>
<path d="M 2700.2181 3290.5367 2715.0352 3245.344 2740.9593 3255.4904 2760.4031 3199.2316 2779.8457 3211.2208 2725.2157 3339.4235 2700.2181 3290.5367 Z" fill="none" stroke="#12852D" opacity="0.6" stroke-width="1" class="columbia_street_waterfront_district"/>
<path d="M 2788.4089 3180.5559 2726.8362 3338.04 2701.6069 3291.9204 2716.6552 3250.1862 2771.05 3175.945 2788.4089 3180.5559 Z" fill="none" stroke="#12852D" opacity="0.6" stroke-width="1" class="columbia_street_waterfront_district"/></svg>