<?xml version="1.0"?><svg xmlns="http://www.w3.org/2000/svg" version="1.2" baseProfile="tiny" width="6000" height="5918" viewBox="0 0 6000 5918" stroke-linecap="round" stroke-linejoin="round"><path d="M 2993.4285 2027.7418 3026.7256 2059.0517 2990.6735 2107.8831 2964.7903 2154.8711 2900.0497 2124.482 2955.5161 2024.9868 2956.4374 2008.4067 2993.4285 2027.7418 Z" fill="none" stroke="#FBC20F" opacity="0.6" stroke-width="1" class="columbus_circle"/>
<path d="M 2991.3669 2106.9617 2980.5056 2127.0005 2919.696 2093.1583 2939.571 2055.1569 2969.3968 2074.0346 2964.5444 2085.3199 2966.1637 2090.1558 2966.3955 2093.1496 2969.6328 2096.1427 2991.3669 2106.9617 Z" fill="none" stroke="#FBC20F" opacity="0.6" stroke-width="1" class="columbus_circle"/>
<path d="M 2975.8674 2062.749 2992.5153 2075.6413 3004.544 2104.1949 2986.0586 2145.654 2961.0924 2161.3206 2934.2734 2164.0895 2897.2796 2154.8829 2888.9501 2106.9807 2899.118 2075.6592 2931.4808 2060.9155 2975.8674 2062.749 Z" fill="none" stroke="#FBC20F" opacity="0.6" stroke-width="1" class="columbus_circle"/>
<path d="M 2988.8243 2108.8047 2979.1184 2126.7705 2915.3033 2091.7773 2934.7179 2064.139 2965.6999 2083.4773 2988.8243 2108.8047 Z" fill="none" stroke="#FBC20F" opacity="0.6" stroke-width="1" class="columbus_circle"/>
<path d="M 2961.5402 2090.8476 2991.5983 2107.8829 2978.6565 2129.0736 2884.3221 2073.3583 2912.9817 2029.6 2974.4807 2064.5916 2961.5402 2090.8476 Z" fill="none" stroke="#FBC20F" opacity="0.6" stroke-width="1" class="columbus_circle"/>
<path d="M 2930.5611 2089.4718 2951.8225 2050.7791 2949.9725 2048.0161 2970.3103 2022.2204 2996.193 1989.0549 2966.6039 1986.2984 3031.3299 1990.8878 3026.7171 2028.6543 3000.8362 2069.1912 3003.6174 2096.8256 2994.3737 2112.4882 2981.4298 2124.4669 2966.6306 2111.5733 2943.5087 2095.9177 2930.5611 2089.4718 Z" fill="none" stroke="#FBC20F" opacity="0.6" stroke-width="1" class="columbus_circle"/>
<path d="M 2905.3553 2044.7998 2915.7562 2032.5932 2961.0705 2055.8435 2975.406 2067.3549 2968.9386 2093.3793 2992.7543 2108.1129 2982.1237 2126.0789 2961.3135 2112.7259 2948.1345 2106.7408 2937.0363 2100.5248 2928.2504 2095.9205 2914.3782 2089.7048 2897.2696 2082.7985 2886.1718 2075.2003 2891.4886 2072.6665 2894.2617 2064.6059 2901.1953 2052.63 2905.3553 2044.7998 Z" fill="none" stroke="#FBC20F" opacity="0.6" stroke-width="1" class="columbus_circle"/>
<path d="M 2847.3253 1982.632 3013.7775 2050.7649 2962.0168 2159.4779 2784.4521 2075.6685 2847.3253 1982.632 Z" fill="none" stroke="#FBC20F" opacity="0.6" stroke-width="1" class="columbus_circle"/>
<path d="M 2838.0931 2165.9443 2893.5684 2066.4484 3119.2493 2199.9677 3013.8506 2328.99 2806.6514 2212.9312 2838.0931 2165.9443 Z" fill="none" stroke="#FBC20F" opacity="0.6" stroke-width="1" class="columbus_circle"/>
<path d="M 2989.7497 2111.5681 2966.6395 2153.0282 2903.748 2118.9542 2943.4995 2047.0962 2975.8682 2066.4336 2957.3793 2093.1514 2989.7497 2111.5681 Z" fill="none" stroke="#FBC20F" opacity="0.6" stroke-width="1" class="columbus_circle"/>
<path d="M 2949.0602 2111.5769 2918.5399 2092.2373 2888.0211 2073.8184 2905.5866 2045.2603 2965.6975 2071.9628 2993.4476 2106.9612 2978.6563 2128.1524 2949.0602 2111.5769 Z" fill="none" stroke="#FBC20F" opacity="0.6" stroke-width="1" class="columbus_circle"/>
<path d="M 2980.5052 2125.3884 2919.4648 2092.6978 2944.4242 2047.096 2974.0186 2065.5129 2963.3883 2084.399 2968.4768 2095.9127 2989.2866 2108.8046 2980.5052 2125.3884 Z" fill="none" stroke="#FBC20F" opacity="0.6" stroke-width="1" class="columbus_circle"/>
<path d="M 2950.4463 2106.51 2887.0968 2077.5031 2912.9831 2038.3507 2973.0943 2067.8159 2964.775 2082.5564 2950.4463 2106.51 Z" fill="none" stroke="#FBC20F" opacity="0.6" stroke-width="1" class="columbus_circle"/>
<path d="M 2969.1703 2095.4519 2949.7538 2111.5768 2917.8467 2094.0798 2936.1049 2063.9084 2970.3262 2095.682 2969.1703 2095.4519 Z" fill="none" stroke="#FBC20F" opacity="0.6" stroke-width="1" class="columbus_circle"/>
<path d="M 2946.2794 2077.4937 2963.8477 2070.1208 2986.9737 2104.1992 2977.7305 2123.5466 2930.5642 2106.9743 2946.2794 2077.4937 Z" fill="none" stroke="#FBC20F" opacity="0.6" stroke-width="1" class="columbus_circle"/>
<path d="M 2948.1344 2106.0499 2805.7263 2205.5609 2870.4696 2237.8016 2880.6226 2068.2923 2948.1344 2106.0499 Z" fill="none" stroke="#FBC20F" opacity="0.6" stroke-width="1" class="columbus_circle"/>
<path d="M 2944.4156 2001.9614 3007.3016 2039.2524 2957.3859 2125.8539 2896.3463 2093.6225 2944.4156 2001.9614 Z" fill="none" stroke="#FBC20F" opacity="0.6" stroke-width="1" class="columbus_circle"/>
<path d="M 2959.228 2089.4663 2957.3857 2124.4721 2878.7751 2083.9524 2924.0754 2014.8604 2988.8083 2041.5597 2959.228 2089.4663 Z" fill="none" stroke="#FBC20F" opacity="0.6" stroke-width="1" class="columbus_circle"/>
<path d="M 2962.9264 2086.702 2966.6269 2094.0707 2991.3669 2106.9617 2979.3493 2125.6189 2920.1584 2093.1583 2943.2686 2048.9385 2974.2493 2063.6705 2962.9264 2086.702 Z" fill="none" stroke="#FBC20F" opacity="0.6" stroke-width="1" class="columbus_circle"/>
<path d="M 2955.1845 2100.4062 2957.2644 2096.3756 2957.1492 2098.3331 2955.1845 2100.4062 Z" fill="none" stroke="#FBC20F" opacity="0.6" stroke-width="1" class="columbus_circle"/>
<path d="M 2909.2986 2131.8504 3082.2477 2176.949 3010.1479 2317.9341 2840.878 2297.6922 2909.2986 2131.8504 Z" fill="none" stroke="#FBC20F" opacity="0.6" stroke-width="1" class="columbus_circle"/>
<path d="M 2930.6167 2238.1376 2869.5678 2179.1835 2845.1368 2114.6995 2873.7947 2029.9498 2949.6955 2049.9874 3007.0373 2090.5054 3013.5286 2159.5947 2987.6486 2221.3266 2930.6167 2238.1376 Z" fill="none" stroke="#FBC20F" opacity="0.6" stroke-width="1" class="columbus_circle"/>
<path d="M 3060.9637 2135.5 3040.3983 2173.2771 2945.5941 2120.7896 2853.5747 2068.9861 2877.843 2022.2359 2908.1287 2039.9634 2913.9067 2031.6724 2974.4806 2064.131 3060.9637 2135.5 Z" fill="none" stroke="#FBC20F" opacity="0.6" stroke-width="1" class="columbus_circle"/>
<path d="M 2989.7323 2038.3356 2988.8238 2106.9623 2959.7055 2162.7027 2868.606 2111.1285 2928.2346 2004.7276 2989.7323 2038.3356 Z" fill="none" stroke="#FBC20F" opacity="0.6" stroke-width="1" class="columbus_circle"/>
<path d="M 2964.7767 2090.3864 2931.4852 2085.7869 2912.9941 2108.8196 2989.7492 2109.7257 2954.6174 2154.8732 2900.9738 2119.8759 2964.7767 2090.3864 Z" fill="none" stroke="#FBC20F" opacity="0.6" stroke-width="1" class="columbus_circle"/>
<path d="M 2965.2382 2086.7015 2965.2384 2087.6227 2964.547 2097.5256 2955.0682 2097.0669 2956.9154 2085.7821 2965.2382 2086.7015 Z" fill="none" stroke="#FBC20F" opacity="0.6" stroke-width="1" class="columbus_circle"/>
<path d="M 2963.8517 2089.4654 3008.2456 2114.3271 2978.6636 2160.3955 2837.1621 2084.8776 2900.0284 1975.2574 3010.0696 2015.7631 2963.8517 2089.4654 Z" fill="none" stroke="#FBC20F" opacity="0.6" stroke-width="1" class="columbus_circle"/>
<path d="M 3062.8151 2141.0268 2975.8959 2190.7978 2904.6724 2116.1905 3024.8815 2078.3965 3027.6579 2086.6863 3062.8151 2141.0268 Z" fill="none" stroke="#FBC20F" opacity="0.6" stroke-width="1" class="columbus_circle"/>
<path d="M 2956.4411 2026.8288 2942.5704 2024.0682 2989.7245 2005.6361 3121.9751 2070.9955 3109.9632 2096.7928 3035.0808 2174.1999 2979.5886 2161.3165 2940.7438 2146.5847 2931.4931 2130.9255 2927.7874 2092.2358 2935.1818 2072.8899 2941.6494 2043.412 2956.4411 2026.8288 Z" fill="none" stroke="#FBC20F" opacity="0.6" stroke-width="1" class="columbus_circle"/>
<path d="M 2898.2012 2131.852 2864.9068 2109.7471 2840.8622 2099.6162 2851.9568 2072.9012 2872.2982 2050.7915 2880.6177 2027.7623 2895.4086 1999.2061 2916.6731 1983.5445 2941.6411 1999.1986 2962.9104 2010.2475 2995.2769 2024.0568 3050.3045 2055.3603 3047.9932 2056.7427 3048.4572 2062.2694 3041.5225 2064.5744 3037.8258 2071.9447 3035.9793 2082.0781 3027.6615 2099.5828 3023.0413 2112.4808 3017.4991 2136.4338 3006.4092 2165.9163 2998.0914 2188.0287 2974.9664 2169.6088 2955.5441 2164.0854 2927.7977 2152.1144 2898.2012 2131.852 Z" fill="none" stroke="#FBC20F" opacity="0.6" stroke-width="1" class="columbus_circle"/>
<path d="M 2724.7946 2370.0254 2786.0775 2404.1203 2748.8431 2473.0038 2673.4501 2432.9129 2679.7004 2367.4884 2676.0026 2343.07 2724.7946 2370.0254 Z" fill="none" stroke="#FBC20F" opacity="0.6" stroke-width="1" class="columbus_circle"/>
<path d="M 2917.6141 2085.3287 2935.6319 2004.7263 2999.9029 2034.6486 2980.9588 2086.6981 2992.5254 2117.5553 2969.4133 2150.2639 2931.0326 2141.5197 2880.6279 2111.5877 2868.1424 2100.0742 2906.9737 2045.7207 2933.3211 2009.3322 2917.6141 2085.3287 Z" fill="none" stroke="#FBC20F" opacity="0.6" stroke-width="1" class="columbus_circle"/>
<path d="M 2875.0946 2243.329 2752.5476 2176.5414 2775.2056 2153.5102 2820.9787 2074.7458 2823.7508 2042.5055 2840.393 2013.0285 2956.9137 2077.4916 2961.5389 2084.86 2875.0946 2243.329 Z" fill="none" stroke="#FBC20F" opacity="0.6" stroke-width="1" class="columbus_circle"/>
<path d="M 2973.0936 2064.5919 3021.1951 2124.9176 2930.1085 2145.6654 2826.5295 2112.9746 2880.6164 2017.63 2973.0936 2064.5919 Z" fill="none" stroke="#FBC20F" opacity="0.6" stroke-width="1" class="columbus_circle"/>
<path d="M 2863.9767 2058.6221 2867.2105 2034.2117 2903.7378 2049.4057 2974.9412 2056.3011 2987.8987 2105.5808 2962.4782 2154.4109 2904.6716 2111.1239 2863.9767 2058.6221 Z" fill="none" stroke="#FBC20F" opacity="0.6" stroke-width="1" class="columbus_circle"/>
<path d="M 2975.4055 2065.052 2961.5395 2087.6235 2988.8236 2106.0411 2965.7146 2152.5678 2871.8417 2102.8374 2928.2343 2002.8854 2954.1276 2017.6182 2988.3453 2038.7965 2975.4055 2065.052 Z" fill="none" stroke="#FBC20F" opacity="0.6" stroke-width="1" class="columbus_circle"/>
<path d="M 2960.1526 2088.545 2963.8527 2094.0713 2924.0869 2083.0247 2948.1233 2048.9376 2960.1526 2088.545 Z" fill="none" stroke="#FBC20F" opacity="0.6" stroke-width="1" class="columbus_circle"/>
<path d="M 2978.2204 2126.8481 2954.1731 2111.1927 2931.0507 2091.852 2948.6142 2057.7657 2956.0027 2012.6291 2982.811 1982.2274 3017.9525 2002.4825 2993.9211 2042.0965 2980.0563 2066.9706 2992.0847 2096.4453 3001.3377 2118.5517 2978.2204 2126.8481 Z" fill="none" stroke="#FBC20F" opacity="0.6" stroke-width="1" class="columbus_circle"/>
<path d="M 2955.0664 2088.0854 2958.5303 2069.2008 2971.9399 2074.4946 2969.633 2097.0639 2963.3911 2097.9864 2957.3867 2129.7691 2942.5885 2120.0993 2912.0687 2104.6744 2923.6247 2084.1762 2935.1807 2066.4418 2956.6828 2078.6431 2955.0664 2088.0854 Z" fill="none" stroke="#FBC20F" opacity="0.6" stroke-width="1" class="columbus_circle"/>
<path d="M 2993.8914 2030.0444 3084.9935 2092.1957 3045.7134 2164.5236 2888.4839 2077.0424 2932.8564 1995.9764 2993.8914 2030.0444 Z" fill="none" stroke="#FBC20F" opacity="0.6" stroke-width="1" class="columbus_circle"/>
<path d="M 2949.5223 2110.4253 2888.4837 2075.6606 2903.5066 2048.9452 2965.006 2081.6351 2949.5223 2110.4253 Z" fill="none" stroke="#FBC20F" opacity="0.6" stroke-width="1" class="columbus_circle"/>
<path d="M 2972.3997 2062.7497 2980.7317 2104.6612 2968.7123 2115.7183 2962.4728 2128.6165 2952.3019 2136.9096 2926.1738 2119.8719 2929.4087 2109.9684 2931.0248 2096.8412 2925.0116 2083.2548 2935.1805 2065.7509 2945.8116 2049.1683 2972.3997 2062.7497 Z" fill="none" stroke="#FBC20F" opacity="0.6" stroke-width="1" class="columbus_circle"/>
<path d="M 2920.3896 2093.1582 2941.6504 2048.9388 2977.7164 2060.9063 2959.2292 2094.9934 2952.7589 2109.7338 2991.5981 2106.9617 2987.9051 2132.7564 2920.3896 2093.1582 Z" fill="none" stroke="#FBC20F" opacity="0.6" stroke-width="1" class="columbus_circle"/></svg>