<?xml version="1.0"?><svg xmlns="http://www.w3.org/2000/svg" version="1.2" baseProfile="tiny" width="6000" height="5918" viewBox="0 0 6000 5918" stroke-linecap="round" stroke-linejoin="round"><path d="M 1738.0651 4258.932 1631.2985 4406.5464 1528.4874 4339.9333 1472.041 4268.7618 1639.8647 4219.1201 1738.0651 4258.932 Z" fill="none" stroke="#444" opacity="0.6" stroke-width="1" class="concord"/>
<path d="M 1908.4652 4416.9958 1911.7125 4413.9975 1936.9705 4417.7137 1961.7645 4422.1214 1990.0149 4451.2338 1948.2824 4468.7446 1908.4652 4416.9958 Z" fill="none" stroke="#444" opacity="0.6" stroke-width="1" class="concord"/>
<path d="M 1776.7589 4483.3568 1762.883 4454.7142 1764.7742 4419.625 1762.9711 4371.6056 1802.8855 4318.092 1822.3905 4278.409 1816.8514 4256.2445 1840.0835 4194.4099 1877.146 4204.6009 1932.701 4265.5864 2084.7206 4248.1658 2094.861 4325.7308 2142.9945 4427.337 2118.8665 4464.2592 2066.9208 4504.8562 1990.8709 4538.0442 1894.4494 4537.0368 1811.0219 4522.1797 1776.7589 4483.3568 Z" fill="none" stroke="#444" opacity="0.6" stroke-width="1" class="concord"/>
<path d="M 1344.113 4281.5044 1741.0627 4058.6045 1703.8923 4150.8766 1941.0558 4250.8213 1953.8432 4470.5964 1710.6374 4751.1373 1588.439 4581.0371 1089.374 4716.9863 1008.2301 4469.3127 1344.113 4281.5044 Z" fill="none" stroke="#444" opacity="0.6" stroke-width="1" class="concord"/>
<path d="M 1867.5478 4308.2298 1885.4033 4294.8584 1926.6614 4282.4312 1913.8874 4314.9668 1877.9134 4374.4906 1841.9509 4417.6257 1767.837 4372.3033 1794.5228 4337.9354 1819.8268 4293.1793 1846.4675 4301.0538 1858.9756 4306.3749 1867.5478 4308.2298 Z" fill="none" stroke="#444" opacity="0.6" stroke-width="1" class="concord"/>
<path d="M 1933.4882 4424.4056 1918.6393 4442.8614 1907.5147 4442.8514 1875.9969 4440.9754 1855.602 4440.956 1827.7834 4448.3165 1799.9719 4448.2885 1790.7413 4409.4944 1794.4759 4383.6426 1807.4687 4368.8816 1822.3095 4359.6627 1850.1309 4346.7628 1891.3977 4327.873 1923.7955 4378.2261 1933.4882 4424.4056 Z" fill="none" stroke="#444" opacity="0.6" stroke-width="1" class="concord"/>
<path d="M 1816.7273 4379.9716 1965.0103 4420.739 1816.6819 4425.2191 1940.8602 4475.2026 1816.7273 4379.9716 Z" fill="none" stroke="#444" opacity="0.6" stroke-width="1" class="concord"/></svg>