<?xml version="1.0"?><svg xmlns="http://www.w3.org/2000/svg" version="1.2" baseProfile="tiny" width="6000" height="5918" viewBox="0 0 6000 5918" stroke-linecap="round" stroke-linejoin="round"><path d="M 3523.2677 1450.099 3509.8684 1450.5699 3503.9284 1240.7101 3597.3709 1123.7542 3609.8456 1127.6542 3663.6747 1146.4697 3642.9426 1204.2376 3523.2677 1450.099 Z" fill="none" stroke="#012394" opacity="0.6" stroke-width="1" class="concourse"/>
<path d="M 3518.94 1238.3974 3604.303 1127.8892 3692.5654 1168.2983 3554.1643 1376.892 3515.81 1368.6389 3518.94 1238.3974 Z" fill="none" stroke="#012394" opacity="0.6" stroke-width="1" class="concourse"/>
<path d="M 3513.3966 1238.4018 3663.8265 1063.4192 3781.2052 1123.114 3583.7404 1384.691 3511.6515 1368.182 3513.3966 1238.4018 Z" fill="none" stroke="#012394" opacity="0.6" stroke-width="1" class="concourse"/>
<path d="M 3708.3838 1050.4932 3706.7696 1052.7952 3669.352 1045.7005 3708.3838 1050.4932 Z" fill="none" stroke="#012394" opacity="0.6" stroke-width="1" class="concourse"/>
<path d="M 3689.6099 980.5812 3837.1192 738.4682 3947.9509 755.8134 3951.6586 766.8475 3662.1243 1216.1838 3615.8339 1109.4741 3689.6099 980.5812 Z" fill="none" stroke="#012394" opacity="0.6" stroke-width="1" class="concourse"/>
<path d="M 3559.681 1344.2106 3533.778 1306.4941 3623.2191 1103.946 3686.9846 1129.6525 3566.178 1378.2626 3546.767 1370.915 3559.681 1344.2106 Z" fill="none" stroke="#012394" opacity="0.6" stroke-width="1" class="concourse"/>
<path d="M 3563.9826 1240.8913 3622.7608 1107.8574 3630.1449 1101.179 3702.6974 1137.9193 3659.1407 1236.2041 3641.8532 1274.6458 3563.9826 1240.8913 Z" fill="none" stroke="#012394" opacity="0.6" stroke-width="1" class="concourse"/>
<path d="M 3613.5451 1132.4822 3621.8376 1108.5484 3630.8383 1101.8686 3702.467 1138.3796 3664.9023 1222.8536 3641.8536 1275.106 3564.2126 1239.7406 3613.5451 1132.4822 Z" fill="none" stroke="#012394" opacity="0.6" stroke-width="1" class="concourse"/>
<path d="M 3653.6698 1068.0298 3708.1989 1096.5031 3729.4577 1108.4445 3668.6171 1242.8677 3659.3693 1233.6729 3626.1853 1317.4594 3592.9106 1304.6032 3573.538 1340.517 3560.6035 1342.3689 3544.8824 1326.7344 3533.7795 1308.3349 3624.1454 1106.7059 3653.6698 1068.0298 Z" fill="none" stroke="#012394" opacity="0.6" stroke-width="1" class="concourse"/>
<path d="M 3533.5973 1084.6988 3611.2241 1119.6008 3638.0957 1207.9234 3572.6014 1325.7907 3478.2583 1198.8546 3530.8216 1079.1798 3533.5973 1084.6988 Z" fill="none" stroke="#012394" opacity="0.6" stroke-width="1" class="concourse"/>
<path d="M 3533.2484 1223.4302 3652.5924 1150.1612 3640.114 1142.8108 3632.9555 1143.9677 3623.7118 1137.7644 3613.0832 1132.4826 3604.0962 1155.0371 3660.4494 1154.9852 3645.9355 1193.8813 3615.9725 1263.1647 3598.1801 1255.5875 3561.6753 1243.8844 3533.2484 1223.4302 Z" fill="none" stroke="#012394" opacity="0.6" stroke-width="1" class="concourse"/>
<path d="M 3567.9094 1241.118 3695.1663 995.2975 3771.8415 1005.3402 3636.2947 1258.5443 3563.402 1373.6625 3553.2491 1387.4784 3522.7347 1361.7298 3514.4163 1358.975 3567.9094 1241.118 Z" fill="none" stroke="#012394" opacity="0.6" stroke-width="1" class="concourse"/>
<path d="M 3547.926 1375.7466 3511.6485 1364.385 3507.6603 1286.8412 3504.9658 1238.1783 3532.903 1224.6959 3546.7463 1206.508 3568.4312 1175.7745 3582.3749 1141.8273 3629.452 1101.1797 3670.6959 1122.6514 3547.926 1375.7466 Z" fill="none" stroke="#012394" opacity="0.6" stroke-width="1" class="concourse"/>
<path d="M 3688.2424 998.9848 3756.5965 1001.2158 3627.9912 1271.4373 3626.6036 1269.5978 3564.2153 1242.9619 3688.2424 998.9848 Z" fill="none" stroke="#012394" opacity="0.6" stroke-width="1" class="concourse"/>
<path d="M 3777.7724 937.3617 3720.4311 860.9444 3804.8105 748.3931 3940.5781 767.5513 3849.6131 963.389 3777.7724 937.3617 Z" fill="none" stroke="#012394" opacity="0.6" stroke-width="1" class="concourse"/>
<path d="M 3747.0624 1159.2704 3756.5147 1143.1557 3766.1943 1123.8202 3754.9186 1162.7132 3747.0624 1159.2704 Z" fill="none" stroke="#012394" opacity="0.6" stroke-width="1" class="concourse"/>
<path d="M 3520.0752 1213.7773 3521.6924 1214.2362 3546.6317 1207.5435 3584.2216 1140.7904 3601.0681 1126.0516 3650.9751 1149.4726 3598.646 1259.9589 3549.08 1374.3649 3510.0315 1364.5014 3512.0253 1256.8101 3509.4693 1237.4845 3533.0191 1225.5011 3520.0752 1213.7773 Z" fill="none" stroke="#012394" opacity="0.6" stroke-width="1" class="concourse"/>
<path d="M 3603.378 1126.5096 3651.4374 1149.9323 3596.1031 1257.6602 3557.8365 1348.3542 3546.7708 1375.5174 3513.4952 1362.6577 3505.5297 1220.9214 3519.3829 1214.4681 3541.5519 1209.3883 3550.3229 1202.4786 3569.2387 1174.8535 3582.145 1143.0928 3603.378 1126.5096 Z" fill="none" stroke="#012394" opacity="0.6" stroke-width="1" class="concourse"/>
<path d="M 3527.8965 1460.2215 3508.2474 1445.7383 3621.8625 1135.9256 3659.7566 1154.9859 3527.8965 1460.2215 Z" fill="none" stroke="#012394" opacity="0.6" stroke-width="1" class="concourse"/>
<path d="M 3749.8344 960.6738 3774.8974 947.9079 3809.0938 968.1125 3801.7846 1040.8107 3753.8721 1155.8895 3687.4018 1201.9717 3684.5871 1157.8002 3674.6666 1095.0913 3675.5611 1064.7238 3659.8122 1016.8904 3635.7691 987.4689 3685.6269 967.1793 3749.8344 960.6738 Z" fill="none" stroke="#012394" opacity="0.6" stroke-width="1" class="concourse"/>
<path d="M 3408.5142 1210.4087 3360.5286 1299.256 3297.2186 1266.6197 3462.8423 966.0547 3494.7213 983.5124 3439.8333 1080.6296 3452.318 1099.945 3429.2632 1156.0966 3406.1905 1189.7032 3408.5142 1210.4087 Z" fill="none" stroke="#012394" opacity="0.6" stroke-width="1" class="concourse"/>
<path d="M 3559.2229 1348.8133 3556.4516 1349.7361 3541.6462 1323.9758 3613.5484 1136.1632 3710.5858 1173.8021 3664.0366 1283.8289 3567.5652 1379.6422 3559.2229 1348.8133 Z" fill="none" stroke="#012394" opacity="0.6" stroke-width="1" class="concourse"/>
<path d="M 3507.1601 1238.1766 3540.6344 1217.2119 3569.2389 1175.0836 3585.8373 1139.6387 3602.223 1126.2806 3689.5616 1166.9208 3625.0303 1317.4604 3570.7966 1376.4177 3508.7771 1238.4054 3507.1601 1238.1766 Z" fill="none" stroke="#012394" opacity="0.6" stroke-width="1" class="concourse"/>
<path d="M 3602.2477 1154.1184 3680.1133 1188.557 3628.0252 1308.7136 3596.6835 1392.0437 3516.7293 1362.6551 3602.2477 1154.1184 Z" fill="none" stroke="#012394" opacity="0.6" stroke-width="1" class="concourse"/>
<path d="M 3556.0085 1372.288 3535.9092 1370.4637 3656.7524 1153.1482 3556.0085 1372.288 Z" fill="none" stroke="#012394" opacity="0.6" stroke-width="1" class="concourse"/>
<path d="M 3585.4956 1277.9179 3601.1758 1247.5317 3607.6267 1229.1188 3610.8562 1224.5142 3618.0043 1211.1629 3623.3001 1192.9818 3626.5252 1183.7758 3631.5986 1175.2584 3638.8663 1167.0842 3640.2515 1166.5077 3643.0176 1160.7534 3650.4002 1152.1189 3652.1305 1150.1617 3654.6667 1145.558 3660.5511 1140.3759 3664.242 1135.8861 3670.9252 1120.9257 3673.4646 1119.773 3585.4956 1277.9179 Z" fill="none" stroke="#012394" opacity="0.6" stroke-width="1" class="concourse"/>
<path d="M 3603.378 1126.5096 3646.8175 1149.0163 3597.9502 1256.7382 3561.4428 1242.0439 3530.4777 1224.5829 3561.8612 1190.5049 3577.0771 1158.2817 3603.378 1126.5096 Z" fill="none" stroke="#012394" opacity="0.6" stroke-width="1" class="concourse"/>
<path d="M 3708.163 1060.6154 3693.415 1092.8369 3603.7208 992.6229 3627.7117 965.9183 3664.6248 931.8411 3711.6621 865.5532 3730.1273 860.0145 3757.8459 871.9457 3807.7509 902.2523 3779.1587 938.1653 3743.1732 972.2463 3715.5093 1017.3604 3708.163 1060.6154 Z" fill="none" stroke="#012394" opacity="0.6" stroke-width="1" class="concourse"/>
<path d="M 3536.4479 1310.018 3613.7155 1132.3596 3651.8639 1150.5687 3598.8668 1260.4911 3560.3275 1347.7059 3536.4479 1310.018 Z" fill="none" stroke="#012394" opacity="0.6" stroke-width="1" class="concourse"/>
<path d="M 3558.6796 1252.1702 3527.2478 1229.1872 3545.7112 1211.6857 3578.9129 1144.476 3613.0733 1121.4396 3681.3221 1006.3526 3699.7956 1006.3345 3732.1328 1014.5831 3733.0839 1041.2665 3701.7544 1118.595 3625.2277 1280.6437 3565.2352 1356.1719 3534.7125 1319.3793 3541.1554 1289.0002 3558.6796 1252.1702 Z" fill="none" stroke="#012394" opacity="0.6" stroke-width="1" class="concourse"/>
<path d="M 3547.5872 1245.7369 3925.4715 498.3077 4076.9447 549.6102 3651.1224 1306.3912 3547.5872 1245.7369 Z" fill="none" stroke="#012394" opacity="0.6" stroke-width="1" class="concourse"/>
<path d="M 3509.5845 1237.1393 3510.3766 1216.546 3549.8631 1205.0099 3569.2401 1176.464 3584.4534 1141.7104 3604.0704 1126.0489 3663.6804 1152.4514 3643.0086 1275.105 3635.4052 1295.821 3600.516 1285.0378 3543.5505 1392.3191 3510.2774 1383.3711 3508.3882 1331.136 3511.2231 1264.634 3509.5845 1237.1393 Z" fill="none" stroke="#012394" opacity="0.6" stroke-width="1" class="concourse"/>
<path d="M 3505.9866 1214.4787 3564.9449 1013.8195 3680.3966 1004.5132 3566.0639 1243.8807 3505.9866 1214.4787 Z" fill="none" stroke="#012394" opacity="0.6" stroke-width="1" class="concourse"/>
<path d="M 3943.6385 999.6204 3928.8586 998.7186 3915.9227 995.054 3923.294 980.3232 3939.0018 984.9043 3943.6385 999.6204 Z" fill="none" stroke="#012394" opacity="0.6" stroke-width="1" class="concourse"/>
<path d="M 3646.817 1148.5562 3546.7704 1375.0572 3506.5628 1359.9017 3507.3786 1222.3005 3598.2963 1125.5939 3649.1266 1148.554 3646.817 1148.5562 Z" fill="none" stroke="#012394" opacity="0.6" stroke-width="1" class="concourse"/>
<path d="M 4000.2895 529.021 3981.4527 598.0231 3945.9675 646.8154 3923.3692 665.6992 3862.5581 777.0743 3826.1764 861.2913 3788.8446 927.1141 3751.027 974.9984 3737.6446 985.1334 3703.0921 1070.2824 3711.3771 1041.7486 3711.3642 1028.8664 3715.9665 1012.7592 3665.2771 1131.514 3679.1216 1118.6172 3640.3785 1178.9315 3629.7568 1181.7022 3606.2528 1242.4652 4000.2895 529.021 Z" fill="none" stroke="#012394" opacity="0.6" stroke-width="1" class="concourse"/></svg>