<?xml version="1.0"?><svg xmlns="http://www.w3.org/2000/svg" version="1.2" baseProfile="tiny" width="6000" height="5918" viewBox="0 0 6000 5918" stroke-linecap="round" stroke-linejoin="round"><path d="M 3088.1373 3853.0477 3218.9915 3833.6136 3225.2636 3871.6796 3253.5417 3911.1204 3118.068 3992.6338 3088.1373 3853.0477 Z" fill="none" stroke="#865327" opacity="0.37037037037037035" stroke-width="1" class="ditmas_park"/>
<path d="M 3066.101 3749.928 3176.7774 3694.0594 3211.6293 3938.1376 3119.922 3994.9406 3066.101 3749.928 Z" fill="none" stroke="#865327" opacity="0.37037037037037035" stroke-width="1" class="ditmas_park"/>
<path d="M 3218.1226 3953.8251 3122.7034 3999.0932 3085.5703 3796.062 3186.538 3771.1064 3218.1226 3953.8251 Z" fill="none" stroke="#865327" opacity="0.37037037037037035" stroke-width="1" class="ditmas_park"/>
<path d="M 3124.558 4002.7846 3112.0304 3952.7162 3099.9656 3897.5739 3089.7585 3852.5857 3199.075 3838.2373 3228.5886 4039.8921 3132.2223 4053.5498 3128.7392 4032.5513 3124.558 4002.7846 Z" fill="none" stroke="#865327" opacity="0.37037037037037035" stroke-width="1" class="ditmas_park"/>
<path d="M 3222.271 3909.9823 3121.5341 3969.788 3103.1919 3851.4274 3209.2638 3833.6182 3222.271 3909.9823 Z" fill="none" stroke="#865327" opacity="0.37037037037037035" stroke-width="1" class="ditmas_park"/>
<path d="M 3211.5446 3758.6371 3216.6526 3785.8575 3218.0659 3835.229 3223.1783 3870.2962 3264.4365 3926.5741 3123.6358 4014.3229 3080.0182 3815.4436 3185.6079 3762.8015 3211.5446 3758.6371 Z" fill="none" stroke="#865327" opacity="0.37037037037037035" stroke-width="1" class="ditmas_park"/>
<path d="M 3101.3615 3915.1092 3199.5455 3854.1567 3233.0079 4075.6595 3136.6384 4090.472 3132.9219 4065.5496 3101.3615 3915.1092 Z" fill="none" stroke="#865327" opacity="0.37037037037037035" stroke-width="1" class="ditmas_park"/>
<path d="M 3090.4532 3852.124 3101.8023 3851.8893 3128.8995 3846.8034 3175.6829 3840.0934 3196.0636 3837.3158 3208.6014 3902.8361 3212.555 3936.5219 3190.7876 3950.8381 3152.1132 3974.391 3121.0796 3993.0942 3106.6952 3932.182 3094.6323 3880.7324 3090.4532 3852.124 Z" fill="none" stroke="#865327" opacity="0.37037037037037035" stroke-width="1" class="ditmas_park"/>
<path d="M 3189.3118 3759.1087 3207.682 3918.0651 3214.6505 3959.1339 3124.5631 4016.1687 3042.0476 3859.7532 3189.3118 3759.1087 Z" fill="none" stroke="#865327" opacity="0.37037037037037035" stroke-width="1" class="ditmas_park"/>
<path d="M 3078.1675 3821.9041 3184.6824 3764.6476 3214.4183 3957.9803 3124.3313 4015.7072 3078.1675 3821.9041 Z" fill="none" stroke="#865327" opacity="0.37037037037037035" stroke-width="1" class="ditmas_park"/>
<path d="M 3303.0398 3990.0084 3126.7653 4019.9754 3090.1058 3852.1241 3216.9081 3835.8064 3303.0398 3990.0084 Z" fill="none" stroke="#865327" opacity="0.37037037037037035" stroke-width="1" class="ditmas_park"/>
<path d="M 3079.5549 3814.9823 3173.1042 3768.3438 3211.0825 3760.9443 3218.9921 3834.7672 3225.9564 3867.5262 3244.5018 3898.6654 3227.132 3903.2887 3115.513 3974.1745 3079.5549 3814.9823 Z" fill="none" stroke="#865327" opacity="0.37037037037037035" stroke-width="1" class="ditmas_park"/>
<path d="M 3186.5343 3762.8011 3228.3609 4047.9691 3133.8493 4067.3954 3080.9456 3818.2118 3186.5343 3762.8011 Z" fill="none" stroke="#865327" opacity="0.37037037037037035" stroke-width="1" class="ditmas_park"/>
<path d="M 3078.1584 3794.2189 3180.5004 3734.4282 3210.9343 3938.1379 3119.9223 3995.6329 3078.1584 3794.2189 Z" fill="none" stroke="#865327" opacity="0.37037037037037035" stroke-width="1" class="ditmas_park"/>
<path d="M 3087.4423 3852.3558 3222.2335 3832.4584 3222.2523 3871.2196 3263.0475 3927.9593 3122.7102 4017.0924 3087.4423 3852.3558 Z" fill="none" stroke="#865327" opacity="0.37037037037037035" stroke-width="1" class="ditmas_park"/>
<path d="M 3127.8056 4014.3214 3079.5547 3814.5209 3174.2611 3765.8056 3187.4603 3761.8779 3213.3978 3759.559 3218.9697 3788.1634 3220.38 3831.075 3225.4937 3868.68 3267.6787 3925.188 3127.8056 4014.3214 Z" fill="none" stroke="#865327" opacity="0.37037037037037035" stroke-width="1" class="ditmas_park"/>
<path d="M 3122.246 4014.785 3088.8321 3852.8167 3107.3605 3850.0416 3250.4876 3827.3686 3263.9735 3927.0359 3122.246 4014.785 Z" fill="none" stroke="#865327" opacity="0.37037037037037035" stroke-width="1" class="ditmas_park"/>
<path d="M 3080.4819 3816.8277 3216.8904 3798.777 3266.2885 3924.4965 3124.5622 4013.8611 3080.4819 3816.8277 Z" fill="none" stroke="#865327" opacity="0.37037037037037035" stroke-width="1" class="ditmas_park"/>
<path d="M 3069.2197 3740.176 3175.7295 3691.2298 3226.7583 4041.4385 3142.1902 4069.2383 3069.2197 3740.176 Z" fill="none" stroke="#865327" opacity="0.37037037037037035" stroke-width="1" class="ditmas_park"/>
<path d="M 3074.4511 3789.3752 3181.8897 3733.8508 3214.6499 3957.7494 3124.331 4014.8996 3074.4511 3789.3752 Z" fill="none" stroke="#865327" opacity="0.37037037037037035" stroke-width="1" class="ditmas_park"/>
<path d="M 3262.5837 3927.0366 3276.0616 4006.8686 3278.8625 4045.6354 3131.9954 4066.0115 3075.0067 4071.5705 3042.5046 3838.5268 3121.2378 3797.895 3188.8507 3763.7229 3213.3984 3760.9432 3225.0328 3873.5255 3262.5837 3927.0366 Z" fill="none" stroke="#865327" opacity="0.37037037037037035" stroke-width="1" class="ditmas_park"/>
<path d="M 3080.4662 3815.5394 3188.3722 3763.8191 3212.3524 3761.6607 3223.893 3865.2924 3264.7581 3927.5578 3126.3557 4012.4292 3126.137 4014.9602 3121.5028 4012.1929 3080.4662 3815.5394 Z" fill="none" stroke="#865327" opacity="0.37037037037037035" stroke-width="1" class="ditmas_park"/>
<path d="M 3131.064 4053.781 3081.4091 3818.9038 3191.8796 3804.0949 3226.0405 4040.1242 3131.064 4053.781 Z" fill="none" stroke="#865327" opacity="0.37037037037037035" stroke-width="1" class="ditmas_park"/>
<path d="M 3191.4164 3804.0951 3209.301 3912.7574 3119.6816 3971.4039 3090.9163 3851.6624 3191.4164 3804.0951 Z" fill="none" stroke="#865327" opacity="0.37037037037037035" stroke-width="1" class="ditmas_park"/>
<path d="M 3036.2393 3797.4617 3182.0052 3733.274 3214.1867 3958.0958 3072.3348 4047.8019 3036.2393 3797.4617 Z" fill="none" stroke="#865327" opacity="0.37037037037037035" stroke-width="1" class="ditmas_park"/>
<path d="M 3192.592 3843.0853 3211.1777 3963.0583 3124.5628 4015.2456 3090.2225 3854.662 3192.592 3843.0853 Z" fill="none" stroke="#865327" opacity="0.37037037037037035" stroke-width="1" class="ditmas_park"/>
<path d="M 3211.8607 3937.676 3206.9985 3942.5238 3199.1242 3945.5272 3194.7245 3948.7596 3188.7044 3954.3002 3183.3786 3958.9175 3177.5888 3961.689 3180.8311 3960.0723 3172.7234 3959.7298 3173.0718 3961.8063 3171.2185 3961.5764 3171.6791 3955.2306 3170.8666 3951.0776 3168.7804 3947.7327 3168.0848 3946.2331 3166.9234 3938.7344 3166.226 3932.7355 3165.8771 3929.3899 3166.223 3925.6979 3164.0173 3913.3544 3164.0168 3912.316 3165.2909 3912.6616 3168.4167 3909.7761 3171.7743 3907.2366 3182.3099 3899.1563 3185.552 3897.5397 3189.9525 3896.7302 3192.7321 3896.729 3193.4254 3893.383 3196.8992 3891.8817 3202.9183 3885.0724 3205.3507 3885.7635 3207.2053 3889.2235 3206.9774 3897.2992 3209.065 3903.5281 3208.8289 3894.0681 3210.9196 3906.7575 3211.1545 3913.6794 3209.9982 3917.8332 3209.3055 3922.4483 3213.0156 3930.7532 3214.4076 3935.3673 3210.9296 3927.9853 3211.8607 3937.676 Z" fill="none" stroke="#865327" opacity="0.37037037037037035" stroke-width="1" class="ditmas_park"/>
<path d="M 3017.5418 4031.4336 3011.5197 4035.589 3113.431 3982.0208 3148.2343 4120.4691 3030.5436 4134.3567 3017.5418 4031.4336 Z" fill="none" stroke="#865327" opacity="0.37037037037037035" stroke-width="1" class="ditmas_park"/>
<path d="M 3067.0273 3749.9277 3177.2404 3693.5978 3225.5832 4052.5859 3131.9953 4065.55 3067.0273 3749.9277 Z" fill="none" stroke="#865327" opacity="0.37037037037037035" stroke-width="1" class="ditmas_park"/>
<path d="M 3126.4155 4013.8604 3076.7677 3790.9894 3181.4279 3736.9654 3215.8088 3959.3641 3126.4155 4013.8604 Z" fill="none" stroke="#865327" opacity="0.37037037037037035" stroke-width="1" class="ditmas_park"/>
<path d="M 3115.512 3971.6362 3080.7133 3816.1355 3141.612 3780.5841 3152.2917 3844.487 3158.7935 3884.3996 3165.7664 3941.3885 3115.512 3971.6362 Z" fill="none" stroke="#865327" opacity="0.37037037037037035" stroke-width="1" class="ditmas_park"/>
<path d="M 3184.9139 3764.4168 3203.2595 3871.69 3209.6514 3919.1024 3211.6295 3938.599 3119.2272 3995.1717 3079.0916 3814.7517 3184.9139 3764.4168 Z" fill="none" stroke="#865327" opacity="0.37037037037037035" stroke-width="1" class="ditmas_park"/>
<path d="M 3080.4815 3815.4434 3186.0701 3760.4943 3221.3911 4006.6658 3124.7962 4019.8608 3079.5569 3820.9808 3080.4815 3815.4434 Z" fill="none" stroke="#865327" opacity="0.37037037037037035" stroke-width="1" class="ditmas_park"/>
<path d="M 3081.9576 4073.8759 3048.5249 3832.9878 3189.3139 3763.7227 3228.3632 4052.5845 3081.9576 4073.8759 Z" fill="none" stroke="#865327" opacity="0.37037037037037035" stroke-width="1" class="ditmas_park"/>
<path d="M 3180.5003 3734.1975 3224.6494 4037.8172 3136.6234 4052.1634 3105.5313 3916.0307 3077.6927 3786.8364 3180.5003 3734.1975 Z" fill="none" stroke="#865327" opacity="0.37037037037037035" stroke-width="1" class="ditmas_park"/>
<path d="M 3187.4579 3763.8255 3228.1305 4053.3046 3138.2498 4067.6522 3083.6626 3816.1216 3187.4579 3763.8255 Z" fill="none" stroke="#865327" opacity="0.37037037037037035" stroke-width="1" class="ditmas_park"/>
<path d="M 3210.7027 3938.138 3121.3118 3994.4786 3101.1304 3916.4937 3198.1583 3859.464 3210.7027 3938.138 Z" fill="none" stroke="#865327" opacity="0.37037037037037035" stroke-width="1" class="ditmas_park"/>
<path d="M 3080.9448 3815.9047 3217.3533 3798.0846 3222.2527 3872.1425 3262.8149 3926.1135 3123.1713 4011.3232 3080.9448 3815.9047 Z" fill="none" stroke="#865327" opacity="0.37037037037037035" stroke-width="1" class="ditmas_park"/>
<path d="M 3125.4894 4015.2453 3214.8819 3958.6723 3235.8039 4107.7364 3140.5883 4119.3182 3125.4894 4015.2453 Z" fill="none" stroke="#865327" opacity="0.37037037037037035" stroke-width="1" class="ditmas_park"/>
<path d="M 3074.4506 3787.7603 3180.9639 3735.12 3213.492 3958.4422 3125.4903 4017.5529 3073.5251 3790.5291 3067.9655 3786.8396 3074.4506 3787.7603 Z" fill="none" stroke="#865327" opacity="0.37037037037037035" stroke-width="1" class="ditmas_park"/>
<path d="M 3098.5469 3815.4372 3191.1846 3803.6338 3212.092 3936.9836 3133.3549 3987.3206 3129.6396 3964.2469 3119.6813 3970.7117 3098.5469 3815.4372 Z" fill="none" stroke="#865327" opacity="0.37037037037037035" stroke-width="1" class="ditmas_park"/>
<path d="M 3103.099 3915.5701 3200.3584 3859.0015 3211.3975 3937.9069 3120.385 3994.0174 3103.099 3915.5701 Z" fill="none" stroke="#865327" opacity="0.37037037037037035" stroke-width="1" class="ditmas_park"/>
<path d="M 3080.4816 3815.9048 3186.7665 3764.1852 3227.4308 4040.8158 3162.5689 4049.6144 3134.0759 4054.2414 3126.8816 4021.2445 3080.4816 3815.9048 Z" fill="none" stroke="#865327" opacity="0.37037037037037035" stroke-width="1" class="ditmas_park"/>
<path d="M 3088.369 3853.2783 3196.7584 3837.0847 3213.7234 3957.9806 3124.0992 4014.5535 3088.369 3853.2783 Z" fill="none" stroke="#865327" opacity="0.37037037037037035" stroke-width="1" class="ditmas_park"/>
<path d="M 3189.2791 3686.2107 3204.1188 3726.8047 3222.7157 3871.6808 3241.2566 3893.8216 3233.8482 3901.2088 3108.7949 3973.2539 3057.8416 4001.8846 3030.906 3774.8541 3054.9846 3749.9315 3189.2791 3686.2107 Z" fill="none" stroke="#865327" opacity="0.37037037037037035" stroke-width="1" class="ditmas_park"/>
<path d="M 3081.4074 3814.0588 3183.2916 3761.8798 3211.1659 3937.907 3119.6903 3994.71 3093.24 3873.5804 3080.5967 3813.8284 3081.4074 3814.0588 Z" fill="none" stroke="#865327" opacity="0.37037037037037035" stroke-width="1" class="ditmas_park"/>
<path d="M 3073.5244 3788.4527 3182.5838 3732.351 3226.9676 4041.0468 3075.2355 4062.801 3035.7756 3795.8469 3073.5244 3788.4527 Z" fill="none" stroke="#865327" opacity="0.37037037037037035" stroke-width="1" class="ditmas_park"/>
<path d="M 3131.9909 4054.2422 3066.5661 3756.1567 3177.0092 3694.5207 3227.1987 4039.8928 3131.9909 4054.2422 Z" fill="none" stroke="#865327" opacity="0.37037037037037035" stroke-width="1" class="ditmas_park"/>
<path d="M 3074.4503 3786.8375 3165.2194 3743.4318 3175.4202 3768.3428 3186.5343 3762.8011 3208.8384 3914.142 3113.4271 3971.4062 3074.4503 3786.8375 Z" fill="none" stroke="#865327" opacity="0.37037037037037035" stroke-width="1" class="ditmas_park"/>
<path d="M 3080.0182 3815.4436 3186.5335 3760.9555 3210.6188 3760.0217 3218.9925 3835.69 3252.4659 4071.0342 3133.8576 4088.6268 3080.0182 3815.4436 Z" fill="none" stroke="#865327" opacity="0.37037037037037035" stroke-width="1" class="ditmas_park"/>
<path d="M 3080.1342 3815.7896 3173.5672 3767.8822 3186.0715 3763.7241 3211.9767 3938.1374 3119.8066 3995.9791 3080.1342 3815.7896 Z" fill="none" stroke="#865327" opacity="0.37037037037037035" stroke-width="1" class="ditmas_park"/>
<path d="M 3069.8048 3744.8515 3199.468 3685.2833 3206.2905 3914.3739 3115.5126 3973.2515 3069.8048 3744.8515 Z" fill="none" stroke="#865327" opacity="0.37037037037037035" stroke-width="1" class="ditmas_park"/>
<path d="M 3089.2952 3852.3551 3193.9805 3840.3161 3212.5654 3958.4426 3122.71 4016.6309 3089.2952 3852.3551 Z" fill="none" stroke="#865327" opacity="0.37037037037037035" stroke-width="1" class="ditmas_park"/>
<path d="M 3080.0184 3815.905 3172.6402 3766.4984 3186.5343 3762.8011 3212.0071 3757.2527 3217.118 3790.4714 3217.6035 3837.075 3221.7872 3867.5282 3253.5416 3910.8897 3119.4586 3994.4793 3080.0184 3815.905 Z" fill="none" stroke="#865327" opacity="0.37037037037037035" stroke-width="1" class="ditmas_park"/>
<path d="M 3080.0192 3818.2121 3184.6811 3761.8792 3211.5444 3758.1757 3222.7166 3873.5266 3229.2183 3906.7487 3234.3337 3946.2026 3148.88 3998.6215 3124.0984 4012.4767 3080.0192 3818.2121 Z" fill="none" stroke="#865327" opacity="0.37037037037037035" stroke-width="1" class="ditmas_park"/>
<path d="M 3176.3149 3695.4437 3221.1595 4006.8967 3125.723 4020.3219 3124.5629 4015.7072 3116.2081 3974.6357 3070.2702 3751.7722 3176.3149 3695.4437 Z" fill="none" stroke="#865327" opacity="0.37037037037037035" stroke-width="1" class="ditmas_park"/>
<path d="M 3208.5459 3685.6482 3253.6801 3909.8743 3068.4082 4011.85 3027.7535 3764.7041 3055.9095 3745.5018 3208.5459 3685.6482 Z" fill="none" stroke="#865327" opacity="0.37037037037037035" stroke-width="1" class="ditmas_park"/>
<path d="M 3122.7086 4012.9387 3078.1562 3787.7591 3182.8149 3731.4281 3212.565 3957.5197 3122.7086 4012.9387 Z" fill="none" stroke="#865327" opacity="0.37037037037037035" stroke-width="1" class="ditmas_park"/>
<path d="M 3112.0153 3911.4136 3102.2877 3914.1859 3081.1775 3819.1346 3216.6601 3801.5456 3218.2967 3833.6139 3223.6423 3871.9111 3227.5952 3903.2885 3241.9534 3897.7437 3253.5414 3910.4282 3120.6172 3995.4019 3113.8919 3975.3288 3102.7515 3915.5702 3112.0153 3911.4136 Z" fill="none" stroke="#865327" opacity="0.37037037037037035" stroke-width="1" class="ditmas_park"/>
<path d="M 3211.8606 3937.4452 3119.6907 3995.8638 3079.555 3815.213 3173.3355 3767.6516 3186.0712 3763.032 3211.8606 3937.4452 Z" fill="none" stroke="#865327" opacity="0.37037037037037035" stroke-width="1" class="ditmas_park"/>
<path d="M 3075.3743 3779.4546 3077.2155 3744.3877 3182.8015 3700.9773 3228.3641 4054.4307 3138.4842 4071.086 3113.4305 3980.6363 3075.3743 3779.4546 Z" fill="none" stroke="#865327" opacity="0.37037037037037035" stroke-width="1" class="ditmas_park"/>
<path d="M 3114.353 3969.5599 3067.0284 3753.1575 3177.7055 3698.2113 3236.6259 3897.5157 3212.0827 3917.3708 3114.353 3969.5599 Z" fill="none" stroke="#865327" opacity="0.37037037037037035" stroke-width="1" class="ditmas_park"/>
<path d="M 3183.7548 3761.8796 3211.6384 3957.5201 3122.7086 4012.9387 3079.0921 3816.3667 3183.7548 3761.8796 Z" fill="none" stroke="#865327" opacity="0.37037037037037035" stroke-width="1" class="ditmas_park"/>
<path d="M 3187.4611 3763.7235 3223.7077 4006.8954 3125.0278 4019.8607 3083.2614 3817.2882 3187.4611 3763.7235 Z" fill="none" stroke="#865327" opacity="0.37037037037037035" stroke-width="1" class="ditmas_park"/>
<path d="M 3092.0746 3852.3542 3221.7741 3840.303 3318.3984 4307.3402 3169.1714 4321.2657 3092.0746 3852.3542 Z" fill="none" stroke="#865327" opacity="0.37037037037037035" stroke-width="1" class="ditmas_park"/>
<path d="M 3154.2065 3994.9272 3137.7639 4006.9332 3113.1731 3910.4902 3194.9314 3894.3053 3205.6198 3966.2913 3184.7765 3976.9153 3154.2065 3994.9272 Z" fill="none" stroke="#865327" opacity="0.37037037037037035" stroke-width="1" class="ditmas_park"/>
<path d="M 3093.0017 3854.1996 3199.0736 3835.2379 3210.2392 3937.6767 3125.4808 3992.631 3119.9118 3967.7118 3093.0017 3854.1996 Z" fill="none" stroke="#865327" opacity="0.37037037037037035" stroke-width="1" class="ditmas_park"/>
<path d="M 3082.334 3814.5199 3185.6087 3764.6471 3212.5658 3959.3656 3125.4882 4012.0146 3082.334 3814.5199 Z" fill="none" stroke="#865327" opacity="0.37037037037037035" stroke-width="1" class="ditmas_park"/>
<path d="M 3028.1256 3770.2408 3191.1375 3699.1281 3206.0596 3915.9892 3065.2542 4000.9592 3028.1256 3770.2408 Z" fill="none" stroke="#865327" opacity="0.37037037037037035" stroke-width="1" class="ditmas_park"/>
<path d="M 3230.2165 4052.5836 3134.7739 4061.8565 3079.0927 3818.2124 3216.196 3799.7001 3221.7888 3870.7584 3262.5842 3927.9595 3220.9112 3972.2836 3230.2165 4052.5836 Z" fill="none" stroke="#865327" opacity="0.37037037037037035" stroke-width="1" class="ditmas_park"/>
<path d="M 3072.5882 3758.231 3180.0205 3696.3648 3188.3879 3764.6459 3203.2352 3819.0859 3206.9599 3859.6906 3221.8124 3919.6735 3216.2699 3954.7489 3193.1141 3973.2196 3166.4804 3986.3841 3150.0391 4000.6978 3125.7203 4013.1683 3122.7032 3998.4009 3120.6122 3982.2489 3121.5309 3961.2503 3120.8335 3954.7896 3109.7026 3921.5669 3105.0561 3882.8053 3094.8505 3842.2015 3083.7215 3808.0595 3080.9327 3779.4528 3072.5882 3758.231 Z" fill="none" stroke="#865327" opacity="0.37037037037037035" stroke-width="1" class="ditmas_park"/>
<path d="M 3212.5658 3959.3656 3123.636 4014.7845 3089.2954 3852.8166 3196.5267 3837.0848 3212.5658 3959.3656 Z" fill="none" stroke="#865327" opacity="0.37037037037037035" stroke-width="1" class="ditmas_park"/>
<path d="M 3213.0293 3959.8269 3122.246 4014.785 3103.6774 3913.724 3197.6951 3859.6949 3200.9444 3873.9984 3213.0293 3959.8269 Z" fill="none" stroke="#865327" opacity="0.37037037037037035" stroke-width="1" class="ditmas_park"/>
<path d="M 3165.0587 3911.239 3203.7302 3887.6871 3210.7021 3936.8306 3170.6402 3963.3843 3165.0587 3911.239 Z" fill="none" stroke="#865327" opacity="0.37037037037037035" stroke-width="1" class="ditmas_park"/>
<path d="M 3080.4819 3816.8277 3185.6073 3761.4173 3242.1138 3756.3152 3255.8347 3866.1268 3262.5846 3928.6518 3172.9655 3983.8431 3124.7943 4015.0148 3095.5605 3885.8082 3080.4819 3816.8277 Z" fill="none" stroke="#865327" opacity="0.37037037037037035" stroke-width="1" class="ditmas_park"/>
<path d="M 3074.072 4047.109 3075.3777 3789.8364 3183.974 3733.9652 3216.0399 3958.2102 3074.072 4047.109 Z" fill="none" stroke="#865327" opacity="0.37037037037037035" stroke-width="1" class="ditmas_park"/>
<path d="M 3213.9548 3957.519 3071.2916 4045.7253 3039.2607 3833.9134 3186.5331 3760.0327 3213.9548 3957.519 Z" fill="none" stroke="#865327" opacity="0.37037037037037035" stroke-width="1" class="ditmas_park"/>
<path d="M 3080.9453 3817.2889 3187.4627 3767.4147 3218.1487 4008.2827 3124.5654 4022.1685 3080.9453 3817.2889 Z" fill="none" stroke="#865327" opacity="0.37037037037037035" stroke-width="1" class="ditmas_park"/>
<path d="M 3080.9444 3814.5204 3209.692 3759.0993 3224.3373 3872.1415 3273.0455 3998.3322 3125.0277 4019.6299 3080.9444 3814.5204 Z" fill="none" stroke="#865327" opacity="0.37037037037037035" stroke-width="1" class="ditmas_park"/>
<path d="M 3062.3952 3749.0064 3171.6849 3699.1366 3232.0694 4051.6596 3136.6294 4067.3944 3062.3952 3749.0064 Z" fill="none" stroke="#865327" opacity="0.37037037037037035" stroke-width="1" class="ditmas_park"/>
<path d="M 3198.5412 3684.1303 3225.4962 3873.756 3109.7105 3943.2565 3068.4178 3752.6956 3198.5412 3684.1303 Z" fill="none" stroke="#865327" opacity="0.37037037037037035" stroke-width="1" class="ditmas_park"/>
<path d="M 3186.0714 3763.4934 3213.7231 3957.2884 3124.7937 4013.3995 3081.176 3814.5203 3186.0714 3763.4934 Z" fill="none" stroke="#865327" opacity="0.37037037037037035" stroke-width="1" class="ditmas_park"/>
<path d="M 3198.5417 3685.2838 3214.3603 3835.6922 3264.6676 3925.4203 3124.0995 4015.2458 3074.4503 3786.8375 3144.8421 3749.8997 3129.0818 3718.5317 3198.5417 3685.2838 Z" fill="none" stroke="#865327" opacity="0.37037037037037035" stroke-width="1" class="ditmas_park"/>
<path d="M 3123.8675 4014.5536 3094.864 3881.1938 3079.5549 3814.9823 3183.7554 3763.2638 3210.3868 3759.099 3222.4846 3872.6038 3265.1318 3927.266 3123.8675 4014.5536 Z" fill="none" stroke="#865327" opacity="0.37037037037037035" stroke-width="1" class="ditmas_park"/>
<path d="M 3265.8264 3926.6888 3125.0262 4015.4762 3077.2388 3814.9831 3211.3132 3759.0986 3265.8264 3926.6888 Z" fill="none" stroke="#865327" opacity="0.37037037037037035" stroke-width="1" class="ditmas_park"/>
<path d="M 3211.6291 3937.9068 3170.6402 3963.3072 3162.7422 3910.7014 3203.729 3885.072 3211.6291 3937.9068 Z" fill="none" stroke="#865327" opacity="0.37037037037037035" stroke-width="1" class="ditmas_park"/>
<path d="M 3050.3803 3841.2931 3227.3265 3827.3802 3224.549 3831.073 3219.1482 3918.7518 3210.9236 3915.2947 3072.2035 4000.034 3072.4359 4002.3415 3046.2096 3835.7571 3050.3803 3841.2931 Z" fill="none" stroke="#865327" opacity="0.37037037037037035" stroke-width="1" class="ditmas_park"/>
<path d="M 3203.2288 3805.2432 3218.1284 3965.8239 3110.6578 4000.0207 3083.7348 3847.7426 3203.2288 3805.2432 Z" fill="none" stroke="#865327" opacity="0.37037037037037035" stroke-width="1" class="ditmas_park"/>
<path d="M 3070.7334 3751.7721 3179.0958 3700.0562 3269.2745 4311.9843 3172.8859 4336.961 3144.0823 4166.1676 3070.7382 3766.5368 3070.7334 3751.7721 Z" fill="none" stroke="#865327" opacity="0.37037037037037035" stroke-width="1" class="ditmas_park"/>
<path d="M 3075.4717 4076.6474 3043.8932 3834.8349 3074.46 3816.3682 3193.9646 3805.2475 3231.1441 4054.4293 3075.4717 4076.6474 Z" fill="none" stroke="#865327" opacity="0.37037037037037035" stroke-width="1" class="ditmas_park"/>
<path d="M 3197.6163 3687.1296 3219.0062 3864.2994 3264.4363 3926.1127 3123.6361 4015.246 3064.2471 3746.2374 3197.6163 3687.1296 Z" fill="none" stroke="#865327" opacity="0.37037037037037035" stroke-width="1" class="ditmas_park"/>
<path d="M 3081.872 3818.2115 3188.39 3769.2599 3220.885 3917.828 3120.8419 3976.9415 3081.872 3818.2115 Z" fill="none" stroke="#865327" opacity="0.37037037037037035" stroke-width="1" class="ditmas_park"/>
<path d="M 3077.2307 3790.5279 3181.889 3732.3513 3212.7885 3940.4444 3214.4182 3957.7495 3144.9429 4001.2767 3123.9835 4014.7843 3115.7456 3976.828 3104.4924 3925.722 3088.6013 3855.2394 3074.7986 3789.6058 3077.2307 3790.5279 Z" fill="none" stroke="#865327" opacity="0.37037037037037035" stroke-width="1" class="ditmas_park"/>
<path d="M 3047.3761 3864.1354 3204.6738 3836.8338 3224.1282 4058.1121 3077.7211 4077.5568 3047.3761 3864.1354 Z" fill="none" stroke="#865327" opacity="0.37037037037037035" stroke-width="1" class="ditmas_park"/>
<path d="M 3088.5701 3817.8586 3183.1356 3765.3681 3185.092 3769.2522 3251.4464 3913.0204 3119.3241 3994.2048 3085.7273 3821.9616 3088.5701 3817.8586 Z" fill="none" stroke="#865327" opacity="0.37037037037037035" stroke-width="1" class="ditmas_park"/>
<path d="M 3131.064 4053.5502 3090.222 3853.2777 3196.7594 3839.3919 3223.7232 4038.7407 3131.064 4053.5502 Z" fill="none" stroke="#865327" opacity="0.37037037037037035" stroke-width="1" class="ditmas_park"/>
<path d="M 3080.2499 3815.6742 3185.3761 3762.3403 3209.2291 3759.561 3217.5854 3799.2381 3219.4621 3848.8408 3234.1018 3945.5105 3124.0989 4013.8612 3098.5764 3899.1895 3080.2499 3815.6742 Z" fill="none" stroke="#865327" opacity="0.37037037037037035" stroke-width="1" class="ditmas_park"/>
<path d="M 3079.0937 3820.981 3203.2108 3766.4848 3216.2242 3858.7634 3347.893 4036.8262 3130.1384 4056.3198 3079.0937 3820.981 Z" fill="none" stroke="#865327" opacity="0.37037037037037035" stroke-width="1" class="ditmas_park"/>
<path d="M 3185.6081 3763.2629 3214.4185 3958.4418 3122.7093 4014.7848 3079.5555 3816.828 3172.1778 3768.3442 3185.6081 3763.2629 Z" fill="none" stroke="#865327" opacity="0.37037037037037035" stroke-width="1" class="ditmas_park"/>
<path d="M 3081.409 3818.6731 3190.7206 3802.019 3226.2719 4039.6625 3131.5271 4053.0885 3081.409 3818.6731 Z" fill="none" stroke="#865327" opacity="0.37037037037037035" stroke-width="1" class="ditmas_park"/>
<path d="M 3033.6912 3796.0782 3178.1836 3732.3529 3231.1418 4049.8139 3074.5438 4072.9553 3033.6912 3796.0782 Z" fill="none" stroke="#865327" opacity="0.37037037037037035" stroke-width="1" class="ditmas_park"/>
<path d="M 3065.1755 3752.6967 3176.3149 3695.4437 3215.346 3960.2873 3124.3309 4014.7842 3065.1755 3752.6967 Z" fill="none" stroke="#865327" opacity="0.37037037037037035" stroke-width="1" class="ditmas_park"/>
<path d="M 2992.0205 3870.3799 3193.053 3838.0093 3223.7319 4056.7406 3020.3372 4089.1258 2992.0205 3870.3799 Z" fill="none" stroke="#865327" opacity="0.37037037037037035" stroke-width="1" class="ditmas_park"/>
<path d="M 3072.6836 4051.7248 3041.1144 3836.6815 3207.8389 3758.1774 3239.4258 3938.124 3072.6836 4051.7248 Z" fill="none" stroke="#865327" opacity="0.37037037037037035" stroke-width="1" class="ditmas_park"/>
<path d="M 3124.3308 4014.3227 3109.7107 3943.718 3203.9605 3884.8412 3214.4189 3959.134 3124.3308 4014.3227 Z" fill="none" stroke="#865327" opacity="0.37037037037037035" stroke-width="1" class="ditmas_park"/>
<path d="M 3088.8321 3852.8167 3195.8317 3836.6237 3228.8279 4055.3535 3132.9221 4066.0112 3088.8321 3852.8167 Z" fill="none" stroke="#865327" opacity="0.37037037037037035" stroke-width="1" class="ditmas_park"/>
<path d="M 3078.1629 3808.0614 3186.5298 3752.6504 3216.1736 3752.6367 3229.2011 3871.6777 3327.4843 3998.9937 3328.4361 4041.4534 3119.9499 4069.2469 3078.1629 3808.0614 Z" fill="none" stroke="#865327" opacity="0.37037037037037035" stroke-width="1" class="ditmas_park"/>
<path d="M 3089.2889 3833.8976 3193.0469 3824.6277 3177.3268 3892.0058 3116.1942 3937.2548 3076.3131 3817.2905 3155.9718 3782.1932 3193.0419 3813.5535 3089.2889 3833.8976 Z" fill="none" stroke="#865327" opacity="0.37037037037037035" stroke-width="1" class="ditmas_park"/>
<path d="M 3210.6184 3759.0989 3216.6531 3786.7803 3222.25 3866.6051 3263.973 3926.1129 3124.0993 4014.7843 3119.6909 3996.3253 3079.0921 3816.3667 3187.4611 3763.7235 3210.6184 3759.0989 Z" fill="none" stroke="#865327" opacity="0.37037037037037035" stroke-width="1" class="ditmas_park"/>
<path d="M 3195.8002 3767.411 3220.0001 4004.5896 3125.0263 4015.9377 3081.0603 3814.9818 3195.8002 3767.411 Z" fill="none" stroke="#865327" opacity="0.37037037037037035" stroke-width="1" class="ditmas_park"/>
<path d="M 3102.7513 3914.878 3080.4815 3815.6741 3186.3027 3762.8012 3211.1633 3932.3692 3221.1596 4007.1274 3125.2599 4021.0144 3102.7513 3914.878 Z" fill="none" stroke="#865327" opacity="0.37037037037037035" stroke-width="1" class="ditmas_park"/>
<path d="M 3200.9504 3887.1499 3208.1442 3915.7575 3178.2718 3934.4608 3175.4785 3902.851 3200.9504 3887.1499 Z" fill="none" stroke="#865327" opacity="0.37037037037037035" stroke-width="1" class="ditmas_park"/>
<path d="M 3092.0561 3798.8283 3092.9857 3808.0564 3082.7972 3814.5198 3186.5355 3765.5695 3219.0412 3937.2111 3214.4207 3963.0567 3231.1363 4038.7371 3144.0391 4058.1605 3135.6933 4043.3946 3088.3612 3830.2065 3089.2917 3842.2034 3127.3435 4017.5522 3092.0561 3798.8283 Z" fill="none" stroke="#865327" opacity="0.37037037037037035" stroke-width="1" class="ditmas_park"/>
<path d="M 3083.2618 3818.6725 3084.883 3818.4412 3192.8057 3803.4023 3210.7026 3937.9073 3121.0802 3994.7095 3083.2618 3818.6725 Z" fill="none" stroke="#865327" opacity="0.37037037037037035" stroke-width="1" class="ditmas_park"/>
<path d="M 3074.4512 3789.6059 3183.7413 3731.4277 3226.5085 4049.8162 3132.9198 4060.0111 3074.4512 3789.6059 Z" fill="none" stroke="#865327" opacity="0.37037037037037035" stroke-width="1" class="ditmas_park"/>
<path d="M 3116.2077 3973.7127 3082.3345 3815.9042 3183.293 3765.1096 3206.0601 3916.9121 3116.2077 3973.7127 Z" fill="none" stroke="#865327" opacity="0.37037037037037035" stroke-width="1" class="ditmas_park"/>
<path d="M 3211.8606 3937.4452 3118.7636 3994.4796 3074.9144 3789.6058 3181.8895 3733.5048 3211.8606 3937.4452 Z" fill="none" stroke="#865327" opacity="0.37037037037037035" stroke-width="1" class="ditmas_park"/>
<path d="M 3061.3919 3843.7233 3230.9278 3831.6578 3252.3397 4032.8529 3099.4487 4047.6884 3061.3919 3843.7233 Z" fill="none" stroke="#865327" opacity="0.37037037037037035" stroke-width="1" class="ditmas_park"/>
<path d="M 3120.6169 3994.825 3102.6362 3917.07 3200.0106 3858.1942 3212.2077 3936.7528 3120.6169 3994.825 Z" fill="none" stroke="#865327" opacity="0.37037037037037035" stroke-width="1" class="ditmas_park"/>
<path d="M 3071.672 3789.6069 3204.1162 3721.2681 3210.6197 3761.8673 3217.118 3790.4714 3217.1387 3833.8452 3223.6427 3872.6033 3264.9002 3927.2661 3163.702 3989.8466 3128.9629 4011.7825 3123.6356 4013.8614 3096.721 3892.4989 3087.9055 3852.3556 3071.672 3789.6069 Z" fill="none" stroke="#865327" opacity="0.37037037037037035" stroke-width="1" class="ditmas_park"/>
<path d="M 3160.5994 3771.579 3182.1439 3785.1812 3187.2472 3803.4048 3185.6356 3825.0925 3173.5954 3833.1728 3157.6105 3824.4124 3160.5994 3771.579 Z" fill="none" stroke="#865327" opacity="0.37037037037037035" stroke-width="1" class="ditmas_park"/>
<path d="M 3080.5669 3817.3468 3144.3583 3781.6341 3173.5984 3982.4403 3120.4168 3993.0155 3080.5669 3817.3468 Z" fill="none" stroke="#865327" opacity="0.37037037037037035" stroke-width="1" class="ditmas_park"/>
<path d="M 3066.1021 3753.6192 3196.6908 3688.9755 3218.0714 3846.765 3104.1421 3917.8771 3066.1021 3753.6192 Z" fill="none" stroke="#865327" opacity="0.37037037037037035" stroke-width="1" class="ditmas_park"/>
<path d="M 3036.4623 3767.4701 3040.1662 3761.9322 3054.0596 3754.5457 3068.8798 3749.0043 3079.9946 3744.3868 3101.2973 3734.2289 3124.4519 3723.1472 3134.6369 3711.1475 3154.0879 3706.526 3165.2015 3700.9849 3171.6845 3698.2139 3180.0189 3692.6739 3195.7628 3685.285 3187.4286 3690.8251 3198.5455 3693.5883 3218.9708 3790.4705 3227.3518 3879.0618 3444.3465 4151.2288 3407.2942 4178.0271 3292.4459 4309.2017 3112.6364 4341.6018 3017.9353 3770.2436 3036.4623 3767.4701 Z" fill="none" stroke="#865327" opacity="0.37037037037037035" stroke-width="1" class="ditmas_park"/>
<path d="M 3228.3576 4041.2769 3132.6862 4054.9342 3079.0924 3817.0589 3210.6195 3761.4059 3228.3576 4041.2769 Z" fill="none" stroke="#865327" opacity="0.37037037037037035" stroke-width="1" class="ditmas_park"/>
<path d="M 3031.367 3767.0101 3200.3935 3683.4375 3222.718 3876.2954 3267.1018 3929.3416 3071.7558 4048.379 3031.0195 3766.4335 3031.367 3767.0101 Z" fill="none" stroke="#865327" opacity="0.37037037037037035" stroke-width="1" class="ditmas_park"/>
<path d="M 3210.6588 3844.9227 3218.1421 3994.4372 3075.4629 4049.8778 3047.6075 3863.4432 3210.6588 3844.9227 Z" fill="none" stroke="#865327" opacity="0.37037037037037035" stroke-width="1" class="ditmas_park"/>
<path d="M 3081.8711 3815.4429 3212.0075 3758.1755 3222.2518 3870.2967 3356.2334 4037.7441 3134.7757 4066.472 3081.8711 3815.4429 Z" fill="none" stroke="#865327" opacity="0.37037037037037035" stroke-width="1" class="ditmas_park"/>
<path d="M 3183.7548 3761.8796 3212.0082 3759.5597 3222.7171 3874.4495 3246.8191 3900.7408 3115.7439 3972.3284 3079.092 3815.9053 3183.7548 3761.8796 Z" fill="none" stroke="#865327" opacity="0.37037037037037035" stroke-width="1" class="ditmas_park"/>
<path d="M 3030.9042 3768.3944 3177.2408 3694.5206 3226.272 4039.8933 3075.2353 4062.3394 3030.9042 3768.3944 Z" fill="none" stroke="#865327" opacity="0.37037037037037035" stroke-width="1" class="ditmas_park"/>
<path d="M 3201.3215 3687.1279 3346.0414 4039.5966 3068.9864 4081.265 3014.3145 4092.3583 2988.3127 3862.5361 3033.6834 3768.3937 3201.3215 3687.1279 Z" fill="none" stroke="#865327" opacity="0.37037037037037035" stroke-width="1" class="ditmas_park"/>
<path d="M 3080.945 3816.3661 3072.6065 3814.5231 3184.682 3763.7248 3215.8075 3956.5951 3123.8674 4014.3229 3080.945 3816.3661 Z" fill="none" stroke="#865327" opacity="0.37037037037037035" stroke-width="1" class="ditmas_park"/>
<path d="M 3082.7978 3816.3655 3175.419 3765.5744 3210.6197 3761.8673 3215.2736 3808.0061 3224.5687 3871.6799 3329.3408 4004.5308 3333.9916 4034.0655 3134.7746 4063.7027 3082.7978 3816.3655 Z" fill="none" stroke="#865327" opacity="0.37037037037037035" stroke-width="1" class="ditmas_park"/>
<path d="M 3185.1455 3764.4167 3210.4708 3937.6766 3122.2378 3992.863 3081.6401 3817.2887 3185.1455 3764.4167 Z" fill="none" stroke="#865327" opacity="0.37037037037037035" stroke-width="1" class="ditmas_park"/>
<path d="M 3074.2195 3789.1446 3204.5802 3722.8827 3215.9576 3785.3964 3218.9973 3845.6109 3223.1781 3869.8348 3264.6683 3926.8047 3123.6354 4013.3999 3074.2195 3789.1446 Z" fill="none" stroke="#865327" opacity="0.37037037037037035" stroke-width="1" class="ditmas_park"/>
<path d="M 3228.3609 4047.9691 3136.6276 4062.7789 3067.0291 3755.4644 3071.6598 3751.7718 3177.24 3692.6751 3228.3609 4047.9691 Z" fill="none" stroke="#865327" opacity="0.37037037037037035" stroke-width="1" class="ditmas_park"/>
<path d="M 3073.5122 3750.8484 3197.6125 3678.8251 3342.5989 4472.6155 3181.2953 4489.3231 3073.5122 3750.8484 Z" fill="none" stroke="#865327" opacity="0.37037037037037035" stroke-width="1" class="ditmas_park"/>
<path d="M 3122.2467 4016.6311 3088.1376 3853.7399 3200.4647 3838.2366 3214.6497 3957.5187 3122.2467 4016.6311 Z" fill="none" stroke="#865327" opacity="0.37037037037037035" stroke-width="1" class="ditmas_park"/>
<path d="M 3080.945 3816.3661 3137.4439 3782.2007 3151.3658 3845.8717 3180.0865 3846.7824 3211.2142 4040.362 3210.9828 4041.0544 3140.7931 4051.4695 3128.9452 3965.6317 3118.7548 3970.9428 3102.034 3852.12 3087.442 3851.6636 3080.945 3816.3661 Z" fill="none" stroke="#865327" opacity="0.37037037037037035" stroke-width="1" class="ditmas_park"/>
<path d="M 3081.872 3818.2115 3080.8291 3816.1354 3186.8817 3762.801 3215.3454 3959.0182 3125.2574 4014.3223 3081.872 3818.2115 Z" fill="none" stroke="#865327" opacity="0.37037037037037035" stroke-width="1" class="ditmas_park"/>
<path d="M 3080.3657 3815.5588 3163.9577 3772.039 3173.946 3840.5556 3196.9899 3836.9693 3200.0108 3858.5402 3211.7447 3937.3299 3120.0379 3994.9406 3080.3657 3815.5588 Z" fill="none" stroke="#865327" opacity="0.37037037037037035" stroke-width="1" class="ditmas_park"/>
<path d="M 3081.2935 3819.7113 3214.3292 3770.1708 3246.3531 3895.2035 3113.5474 3983.4053 3081.2935 3819.7113 Z" fill="none" stroke="#865327" opacity="0.37037037037037035" stroke-width="1" class="ditmas_park"/>
<path d="M 3105.0471 3857.8869 3118.9438 3856.959 3117.093 3862.497 3121.7248 3861.1109 3124.0415 3862.4944 3122.6522 3863.4178 3125.201 3866.1855 3105.0471 3857.8869 Z" fill="none" stroke="#865327" opacity="0.37037037037037035" stroke-width="1" class="ditmas_park"/>
<path d="M 3080.2499 3815.6742 3186.7655 3761.8782 3211.1588 3922.9089 3211.861 3938.3682 3119.2273 3995.6332 3099.2725 3902.6503 3080.2499 3815.6742 Z" fill="none" stroke="#865327" opacity="0.37037037037037035" stroke-width="1" class="ditmas_park"/>
<path d="M 3089.2955 3853.278 3195.8313 3835.7009 3225.5774 4040.5859 3133.8432 4051.703 3089.2955 3853.278 Z" fill="none" stroke="#865327" opacity="0.37037037037037035" stroke-width="1" class="ditmas_park"/>
<path d="M 3199.2253 3848.7118 3218.5553 3847.3581 3228.7599 3875.04 3265.0328 3929.2135 3275.2675 4008.5859 3264.1529 4017.8222 3233.5806 4030.7606 3224.3267 4056.6111 3142.7837 4065.878 3101.0342 3904.0054 3163.6014 3865.2878 3199.2253 3848.7118 Z" fill="none" stroke="#865327" opacity="0.37037037037037035" stroke-width="1" class="ditmas_park"/>
<path d="M 3089.5277 3854.893 3216.6765 3835.9219 3212.3332 3957.289 3125.2571 4013.63 3089.5277 3854.893 Z" fill="none" stroke="#865327" opacity="0.37037037037037035" stroke-width="1" class="ditmas_park"/>
<path d="M 3074.4506 3787.7603 3204.1154 3719.4226 3216.1916 3790.4718 3221.787 3867.0668 3267.2169 3927.9571 3121.7841 4018.4773 3074.4506 3787.7603 Z" fill="none" stroke="#865327" opacity="0.37037037037037035" stroke-width="1" class="ditmas_park"/>
<path d="M 3062.3969 3754.5431 3190.2071 3689.9012 3210.6519 3830.1568 3088.375 3870.8133 3062.3969 3754.5431 Z" fill="none" stroke="#865327" opacity="0.37037037037037035" stroke-width="1" class="ditmas_park"/>
<path d="M 3213.9548 3957.519 3123.8678 4015.2459 3074.4509 3788.6831 3181.4264 3733.7357 3213.9548 3957.519 Z" fill="none" stroke="#865327" opacity="0.37037037037037035" stroke-width="1" class="ditmas_park"/>
<path d="M 3231.1322 3568.459 3268.1168 3655.6096 3280.6316 3748.1588 3296.5093 3912.0041 3101.8202 3885.2029 3196.0603 3685.5723 3232.787 3523.7565 3231.1322 3568.459 Z" fill="none" stroke="#865327" opacity="0.37037037037037035" stroke-width="1" class="ditmas_park"/>
<path d="M 3218.1226 3953.8251 3128.2684 4012.9366 3078.1694 3827.4413 3084.6501 3814.5192 3152.276 3806.1883 3194.8994 3823.704 3218.1226 3953.8251 Z" fill="none" stroke="#865327" opacity="0.37037037037037035" stroke-width="1" class="ditmas_park"/>
<path d="M 3074.4506 3787.7603 3184.668 3732.3501 3222.7987 4043.3565 3130.1373 4053.5506 3074.4506 3787.7603 Z" fill="none" stroke="#865327" opacity="0.37037037037037035" stroke-width="1" class="ditmas_park"/>
<path d="M 3115.7446 3974.1744 3088.8321 3852.8167 3196.99 3837.0846 3209.0712 3916.68 3115.7446 3974.1744 Z" fill="none" stroke="#865327" opacity="0.37037037037037035" stroke-width="1" class="ditmas_park"/>
<path d="M 3199.5477 3858.7712 3214.8814 3957.5186 3124.1002 4017.0919 3102.2882 3915.5704 3199.5477 3858.7712 Z" fill="none" stroke="#865327" opacity="0.37037037037037035" stroke-width="1" class="ditmas_park"/>
<path d="M 3332.605 4039.6047 3133.8488 4066.0108 3105.9998 3930.7978 3087.906 3853.7399 3218.5286 3834.3059 3219.4582 3840.7656 3315.3415 3832.4089 3329.8063 4008.2226 3332.605 4039.6047 Z" fill="none" stroke="#865327" opacity="0.37037037037037035" stroke-width="1" class="ditmas_park"/>
<path d="M 3019.8278 3917.9035 3223.6695 3927.9792 3228.3578 4041.5076 3035.6155 4046.1977 3019.8278 3917.9035 Z" fill="none" stroke="#865327" opacity="0.37037037037037035" stroke-width="1" class="ditmas_park"/>
<path d="M 3076.304 3789.6053 3184.6685 3733.2729 3226.2722 4040.3548 3132.4541 4054.0112 3076.304 3789.6053 Z" fill="none" stroke="#865327" opacity="0.37037037037037035" stroke-width="1" class="ditmas_park"/>
<path d="M 3083.0304 3819.134 3190.7213 3803.4033 3213.9552 3958.2112 3124.2151 4014.7842 3083.0304 3819.134 Z" fill="none" stroke="#865327" opacity="0.37037037037037035" stroke-width="1" class="ditmas_park"/>
<path d="M 3162.974 3911.1628 3159.7194 3883.0148 3200.7056 3858.5399 3210.7025 3937.6765 3170.6382 3958.6923 3162.974 3911.1628 Z" fill="none" stroke="#865327" opacity="0.37037037037037035" stroke-width="1" class="ditmas_park"/>
<path d="M 3224.3374 3872.3722 3264.8994 3925.8817 3122.941 4014.7847 3102.2883 3915.8011 3080.0183 3815.6743 3173.1038 3767.3057 3186.7661 3763.2624 3211.429 3759.2139 3217.6998 3796.2388 3218.5288 3834.652 3224.3374 3872.3722 Z" fill="none" stroke="#865327" opacity="0.37037037037037035" stroke-width="1" class="ditmas_park"/>
<path d="M 3075.3773 3788.6828 3123.5402 3761.9043 3129.1088 3788.6637 3190.2585 3804.3263 3232.9947 4048.8899 3138.4842 4071.086 3132.9241 4071.0882 3075.3773 3788.6828 Z" fill="none" stroke="#865327" opacity="0.37037037037037035" stroke-width="1" class="ditmas_park"/>
<path d="M 3210.7026 3937.9073 3120.153 3993.0945 3089.7584 3852.355 3094.6217 3850.5075 3091.3793 3851.2008 3089.9898 3851.6627 3197.6858 3839.1608 3210.7026 3937.9073 Z" fill="none" stroke="#865327" opacity="0.37037037037037035" stroke-width="1" class="ditmas_park"/>
<path d="M 3185.5792 3698.2078 3281.3234 4310.1311 3181.2235 4325.8771 3049.4444 3809.9162 3046.6662 3813.6084 3079.994 3742.5412 3185.5792 3698.2078 Z" fill="none" stroke="#865327" opacity="0.37037037037037035" stroke-width="1" class="ditmas_park"/>
<path d="M 3080.0186 3816.3664 3202.7637 3801.3214 3207.8747 3834.7724 3223.4385 3929.3638 3120.6167 3994.2481 3080.0186 3816.3664 Z" fill="none" stroke="#865327" opacity="0.37037037037037035" stroke-width="1" class="ditmas_park"/>
<path d="M 3103.2152 3916.7237 3219.23 3847.918 3223.6422 3871.6804 3263.5095 3925.6517 3272.3506 3998.3326 3126.1867 4021.2448 3103.2152 3916.7237 Z" fill="none" stroke="#865327" opacity="0.37037037037037035" stroke-width="1" class="ditmas_park"/>
<path d="M 3058.7204 3847.7507 3197.6483 3757.2593 3291.3716 4044.2439 3090.2965 4070.1807 3058.7204 3847.7507 Z" fill="none" stroke="#865327" opacity="0.37037037037037035" stroke-width="1" class="ditmas_park"/>
<path d="M 3102.2661 3853.2735 3221.7732 3838.4573 3346.9584 4023.904 3142.1876 4062.7767 3102.2661 3853.2735 Z" fill="none" stroke="#865327" opacity="0.37037037037037035" stroke-width="1" class="ditmas_park"/>
<path d="M 3080.7131 3815.4433 3134.4351 3787.5081 3141.6372 3844.0298 3196.9896 3836.3925 3204.0765 3885.3026 3226.5037 4039.8932 3131.7593 4054.473 3117.1365 3979.7119 3108.3212 3944.6415 3080.7131 3815.4433 Z" fill="none" stroke="#865327" opacity="0.37037037037037035" stroke-width="1" class="ditmas_park"/>
<path d="M 3131.5278 4054.9347 3080.0178 3814.0593 3210.8505 3760.2523 3226.5033 4039.2009 3131.5278 4054.9347 Z" fill="none" stroke="#865327" opacity="0.37037037037037035" stroke-width="1" class="ditmas_park"/>
<path d="M 3199.4659 3680.6697 3215.2125 3679.7396 3280.186 3923.3353 3059.6979 4012.0374 3046.6465 3747.1656 3199.4659 3680.6697 Z" fill="none" stroke="#865327" opacity="0.37037037037037035" stroke-width="1" class="ditmas_park"/>
<path d="M 3080.9448 3815.9047 3185.1435 3760.0334 3214.4194 3960.2877 3122.9412 4015.2462 3103.2192 3928.0299 3080.9448 3815.9047 Z" fill="none" stroke="#865327" opacity="0.37037037037037035" stroke-width="1" class="ditmas_park"/>
<path d="M 3185.6073 3761.4173 3212.4712 3759.098 3218.9919 3834.3057 3222.2509 3868.4509 3310.3332 3983.7739 3294.5881 3996.2436 3251.0403 4001.8051 3255.6861 4026.2633 3234.3753 4029.9664 3233.4534 4039.659 3072.687 4062.3403 3041.1145 3837.1429 3185.6073 3761.4173 Z" fill="none" stroke="#865327" opacity="0.37037037037037035" stroke-width="1" class="ditmas_park"/>
<path d="M 3033.6836 3769.3165 3182.7974 3691.7499 3215.3218 3909.5242 3077.3004 4001.8784 3033.6836 3769.3165 Z" fill="none" stroke="#865327" opacity="0.37037037037037035" stroke-width="1" class="ditmas_park"/>
<path d="M 3091.6422 3866.5263 3094.6102 3846.5401 3081.6314 3821.627 3093.6773 3828.083 3088.0297 3819.8899 3126.7573 3812.2384 3196.2376 3808.5179 3198.1175 3867.5809 3215.7549 3939.5616 3226.9249 4044.7806 3134.2644 4057.7444 3118.4825 3981.1374 3104.4138 3915.8354 3091.6422 3866.5263 Z" fill="none" stroke="#865327" opacity="0.37037037037037035" stroke-width="1" class="ditmas_park"/>
<path d="M 3057.7788 3798.8395 3204.1192 3727.7274 3218.1076 3922.4441 3091.1968 3993.5664 3057.7788 3798.8395 Z" fill="none" stroke="#865327" opacity="0.37037037037037035" stroke-width="1" class="ditmas_park"/>
<path d="M 3065.1761 3754.5422 3176.7772 3693.598 3198.618 3851.8499 3226.9732 4052.5852 3132.9227 4067.3958 3065.1761 3754.5422 Z" fill="none" stroke="#865327" opacity="0.37037037037037035" stroke-width="1" class="ditmas_park"/>
<path d="M 3102.0334 3850.2742 3142.3326 3845.4139 3199.3061 3837.0836 3212.786 3935.1374 3120.1525 3991.71 3102.0334 3850.2742 Z" fill="none" stroke="#865327" opacity="0.37037037037037035" stroke-width="1" class="ditmas_park"/>
<path d="M 3224.3374 3872.3722 3263.9732 3926.3436 3124.3308 4014.5534 3076.3119 3813.5991 3175.8836 3768.804 3210.6188 3760.0217 3217.5927 3814.4649 3224.3374 3872.3722 Z" fill="none" stroke="#865327" opacity="0.37037037037037035" stroke-width="1" class="ditmas_park"/>
<path d="M 3128.2224 3892.9488 3123.5874 3886.4901 3137.4802 3874.4869 3153.2365 3889.2472 3135.6387 3904.0211 3128.2224 3892.9488 Z" fill="none" stroke="#865327" opacity="0.37037037037037035" stroke-width="1" class="ditmas_park"/>
<path d="M 3078.1651 3814.5213 3186.5351 3764.6467 3186.5359 3766.4923 3226.2723 4040.4702 3131.5274 4053.7808 3078.1651 3814.5213 Z" fill="none" stroke="#865327" opacity="0.37037037037037035" stroke-width="1" class="ditmas_park"/>
<path d="M 3038.5554 3797.9225 3040.1759 3795.3842 3184.9006 3734.4262 3212.7876 3938.3678 3072.2108 4022.6484 3038.5554 3797.9225 Z" fill="none" stroke="#865327" opacity="0.37037037037037035" stroke-width="1" class="ditmas_park"/>
<path d="M 3080.9364 3790.5266 3186.5203 3731.4265 3224.4181 4038.7403 3133.1487 4052.8571 3077.2314 3792.6042 3091.1252 3785.9091 3080.9364 3790.5266 Z" fill="none" stroke="#865327" opacity="0.37037037037037035" stroke-width="1" class="ditmas_park"/>
<path d="M 3090.2242 3859.7379 3077.2195 3756.3839 3200.3986 3694.5102 3223.6306 3847.6852 3340.4759 4030.3693 3130.1433 4069.2431 3118.0618 3976.0195 3108.7808 3934.4886 3090.2242 3859.7379 Z" fill="none" stroke="#865327" opacity="0.37037037037037035" stroke-width="1" class="ditmas_park"/>
<path d="M 3086.5036 3816.3642 3172.6424 3771.5738 3214.44 4003.6693 3131.9792 4024.0117 3086.5036 3816.3642 Z" fill="none" stroke="#865327" opacity="0.37037037037037035" stroke-width="1" class="ditmas_park"/>
<path d="M 3105.0673 3914.1849 3062.4514 3928.0436 3104.1373 3904.4944 3095.7845 3863.889 3116.6234 3845.4238 3153.2216 3852.7925 3161.5866 3916.9318 3118.5149 3948.7911 3105.0673 3914.1849 Z" fill="none" stroke="#865327" opacity="0.37037037037037035" stroke-width="1" class="ditmas_park"/>
<path d="M 3128.2068 3852.341 3102.2657 3852.3506 3198.1485 3838.007 3212.6711 3937.0987 3122.1222 3993.5553 3104.6046 3915.5695 3153.4674 3887.4013 3092.5385 3854.1998 3128.2068 3852.341 Z" fill="none" stroke="#865327" opacity="0.37037037037037035" stroke-width="1" class="ditmas_park"/>
<path d="M 3086.5158 3852.3561 3066.1024 3754.5419 3196.6883 3683.4392 3216.1903 3787.7034 3220.8601 3866.1443 3343.2536 4026.6754 3132.9173 4053.5495 3086.5158 3852.3561 Z" fill="none" stroke="#865327" opacity="0.37037037037037035" stroke-width="1" class="ditmas_park"/>
<path d="M 3086.9798 3854.6631 3197.6852 3838.0072 3226.7352 4039.6623 3131.7588 4053.0884 3092.3124 3870.3505 3087.9063 3854.6628 3086.9798 3854.6631 Z" fill="none" stroke="#865327" opacity="0.37037037037037035" stroke-width="1" class="ditmas_park"/>
<path d="M 3263.5102 3927.0361 3123.1727 4015.0154 3092.9943 3832.9735 3118.0669 3989.8647 3079.5543 3813.3673 3083.4935 3818.9031 3217.3537 3799.0075 3217.1229 3800.6225 3222.2511 3868.9123 3223.4098 3870.0654 3265.1316 3926.8045 3263.5102 3927.0361 Z" fill="none" stroke="#865327" opacity="0.37037037037037035" stroke-width="1" class="ditmas_park"/>
<path d="M 3087.4423 3852.3558 3198.6102 3834.7767 3232.9965 4052.5822 3141.262 4065.5463 3087.4423 3852.3558 Z" fill="none" stroke="#865327" opacity="0.37037037037037035" stroke-width="1" class="ditmas_park"/>
<path d="M 3132.6856 4053.5496 3075.3866 3816.8294 3210.1552 3759.0991 3223.1774 3868.4504 3226.9665 4038.9699 3132.6856 4053.5496 Z" fill="none" stroke="#865327" opacity="0.37037037037037035" stroke-width="1" class="ditmas_park"/>
<path d="M 3090.2899 3851.5051 3198.4156 3837.7461 3218.7668 3834.4872 3225.1164 3872.4154 3263.1252 3925.1253 3124.974 4014.7851 3090.4315 3856.4757 3090.2899 3851.5051 Z" fill="none" stroke="#865327" opacity="0.37037037037037035" stroke-width="1" class="ditmas_park"/>
<path d="M 3200.3948 3686.2056 3215.6925 3958.2104 3124.5628 4015.2456 3074.6704 3751.5401 3077.2174 3749.9244 3200.3948 3686.2056 Z" fill="none" stroke="#865327" opacity="0.37037037037037035" stroke-width="1" class="ditmas_park"/>
<path d="M 3032.8314 4031.4294 3223.6614 3911.3661 3433.2175 4140.1587 3107.0087 4158.7962 3027.2889 4094.201 3010.6082 4094.2055 2997.614 4011.1316 3029.1274 4040.6611 3032.8314 4031.4294 Z" fill="none" stroke="#865327" opacity="0.37037037037037035" stroke-width="1" class="ditmas_park"/>
<path d="M 3173.1034 3766.4982 3185.1443 3761.879 3221.6224 4006.0888 3124.9121 4020.2069 3080.0181 3814.9821 3173.1034 3766.4982 Z" fill="none" stroke="#865327" opacity="0.37037037037037035" stroke-width="1" class="ditmas_park"/>
<path d="M 3186.5224 3736.0403 3229.2844 4041.5072 3131.9921 4057.2422 3077.2262 3776.6856 3186.5224 3736.0403 Z" fill="none" stroke="#865327" opacity="0.37037037037037035" stroke-width="1" class="ditmas_park"/>
<path d="M 3086.5158 3852.3561 3080.0192 3818.2121 3191.1824 3798.7889 3217.1969 3955.6715 3120.8557 4013.8625 3086.5158 3852.3561 Z" fill="none" stroke="#865327" opacity="0.37037037037037035" stroke-width="1" class="ditmas_park"/>
<path d="M 3081.8711 3815.4429 3144.1605 3782.8901 3167.5618 3805.7205 3183.0933 3837.3216 3225.8085 4039.432 3132.9174 4053.7803 3081.8711 3815.4429 Z" fill="none" stroke="#865327" opacity="0.37037037037037035" stroke-width="1" class="ditmas_park"/>
<path d="M 3186.0711 3762.8013 3214.8827 3960.2875 3123.6361 4015.246 3079.5552 3815.9051 3186.0711 3762.8013 Z" fill="none" stroke="#865327" opacity="0.37037037037037035" stroke-width="1" class="ditmas_park"/>
<path d="M 3125.4875 4010.1686 3070.745 3787.7615 3182.8158 3733.2737 3219.047 3949.2097 3125.4875 4010.1686 Z" fill="none" stroke="#865327" opacity="0.37037037037037035" stroke-width="1" class="ditmas_park"/>
<path d="M 3214.1869 3958.4419 3125.2574 4014.3223 3079.5553 3816.1358 3192.3428 3804.0947 3214.1869 3958.4419 Z" fill="none" stroke="#865327" opacity="0.37037037037037035" stroke-width="1" class="ditmas_park"/>
<path d="M 3133.8027 4066.5185 3079.7866 3815.3975 3143.6972 3782.5212 3147.4134 3808.9127 3191.5086 3803.1722 3228.3173 4053.5538 3133.8027 4066.5185 Z" fill="none" stroke="#865327" opacity="0.37037037037037035" stroke-width="1" class="ditmas_park"/>
<path d="M 3174.2788 3806.8712 3072.1318 3779.225 3052.435 3743.0114 3091.5625 3710.7019 3160.5654 3690.3754 3238.5969 3670.5011 3243.0159 3708.3307 3256.2716 3815.3685 3261.8746 3900.0408 3364.1092 4036.5853 3237.6312 4055.3492 3129.6819 4074.0895 3121.7867 4025.4002 3090.2317 3881.6569 3071.4388 3784.7621 3174.2788 3806.8712 Z" fill="none" stroke="#865327" opacity="0.37037037037037035" stroke-width="1" class="ditmas_park"/>
<path d="M 3078.1651 3814.5213 3184.682 3763.7248 3225.577 4039.8936 3130.3695 4054.9351 3078.1651 3814.5213 Z" fill="none" stroke="#865327" opacity="0.37037037037037035" stroke-width="1" class="ditmas_park"/>
<path d="M 3080.945 3816.3661 3186.0709 3762.3399 3227.4302 4039.6619 3131.5276 4054.2423 3080.945 3816.3661 Z" fill="none" stroke="#865327" opacity="0.37037037037037035" stroke-width="1" class="ditmas_park"/>
<path d="M 3108.7208 3769.2922 3160.5872 3742.511 3185.6826 3930.7657 3141.2191 3957.5507 3108.7208 3769.2922 Z" fill="none" stroke="#865327" opacity="0.37037037037037035" stroke-width="1" class="ditmas_park"/>
<path d="M 3066.1004 3748.0824 3175.3894 3697.2896 3215.3445 3957.0568 3125.7203 4013.3991 3066.1004 3748.0824 Z" fill="none" stroke="#865327" opacity="0.37037037037037035" stroke-width="1" class="ditmas_park"/>
<path d="M 3205.8134 3884.6096 3212.4384 3934.7914 3205.2598 3939.2943 3199.933 3941.3734 3189.3963 3947.7236 3180.2493 3954.0732 3170.8693 3957.5385 3170.1725 3953.0392 3166.578 3943.4648 3168.0809 3937.1188 3166.2258 3932.3894 3162.2831 3920.6233 3160.1948 3912.0869 3162.2789 3910.7016 3169.9207 3905.853 3175.9414 3902.1586 3185.667 3895.6938 3197.246 3890.6125 3205.8134 3884.6096 Z" fill="none" stroke="#865327" opacity="0.37037037037037035" stroke-width="1" class="ditmas_park"/>
<path d="M 3282.7388 3509.0175 3295.8071 3691.6933 3551.4976 3726.5797 3331.1537 3937.1506 3282.7388 3509.0175 Z" fill="none" stroke="#865327" opacity="0.37037037037037035" stroke-width="1" class="ditmas_park"/>
<path d="M 3082.7978 3816.3655 3166.1571 3770.1924 3198.4586 4009.4457 3124.7963 4020.0915 3082.7978 3816.3655 Z" fill="none" stroke="#865327" opacity="0.37037037037037035" stroke-width="1" class="ditmas_park"/>
<path d="M 3026.2723 3768.3957 3173.5383 3700.9813 3224.8816 4038.9709 3074.5402 4061.8781 3026.2723 3768.3957 Z" fill="none" stroke="#865327" opacity="0.37037037037037035" stroke-width="1" class="ditmas_park"/>
<path d="M 3214.1869 3958.4419 3124.0994 4015.015 3101.8251 3916.032 3200.0106 3858.0788 3214.1869 3958.4419 Z" fill="none" stroke="#865327" opacity="0.37037037037037035" stroke-width="1" class="ditmas_park"/>
<path d="M 3080.0179 3814.5207 3186.5339 3761.8783 3214.4199 3961.2107 3120.8568 4016.6316 3080.0179 3814.5207 Z" fill="none" stroke="#865327" opacity="0.37037037037037035" stroke-width="1" class="ditmas_park"/>
<path d="M 3089.2955 3853.278 3217.1405 3837.5367 3222.7148 3869.835 3263.5088 3924.2672 3122.7104 4017.5539 3089.2955 3853.278 Z" fill="none" stroke="#865327" opacity="0.37037037037037035" stroke-width="1" class="ditmas_park"/>
<path d="M 3088.601 3854.2011 3198.1478 3836.6227 3228.5952 4053.2767 3134.0808 4066.9338 3088.601 3854.2011 Z" fill="none" stroke="#865327" opacity="0.37037037037037035" stroke-width="1" class="ditmas_park"/>
<path d="M 3263.5102 3927.0361 3128.2709 4019.3979 3101.3612 3914.1863 3223.6292 3844.9165 3274.581 3838.4303 3291.2987 3913.1768 3263.5102 3927.0361 Z" fill="none" stroke="#865327" opacity="0.37037037037037035" stroke-width="1" class="ditmas_park"/>
<path d="M 3080.7131 3815.674 3152.728 3778.6186 3158.6461 3808.4928 3148.8036 3810.2272 3153.6809 3843.2174 3197.3374 3837.0845 3203.7291 3885.3028 3109.2478 3944.6411 3080.7131 3815.674 Z" fill="none" stroke="#865327" opacity="0.37037037037037035" stroke-width="1" class="ditmas_park"/>
<path d="M 3062.8582 3748.5448 3384.7449 3710.094 3451.7659 4158.6089 3116.2866 4186.4887 3062.8582 3748.5448 Z" fill="none" stroke="#865327" opacity="0.37037037037037035" stroke-width="1" class="ditmas_park"/>
<path d="M 3034.6074 3760.0882 3070.706 3666.8794 3180.9476 3698.2099 3201.3993 3856.0016 3111.5554 3920.6432 3055.9642 3923.4308 3034.6074 3760.0882 Z" fill="none" stroke="#865327" opacity="0.37037037037037035" stroke-width="1" class="ditmas_park"/>
<path d="M 3190.2419 3767.4135 3209.7662 3916.9104 3112.4999 3969.5606 3081.8754 3828.3629 3190.2419 3767.4135 Z" fill="none" stroke="#865327" opacity="0.37037037037037035" stroke-width="1" class="ditmas_park"/>
<path d="M 3213.0293 3959.8269 3125.4894 4015.2453 3087.4424 3852.8172 3197.2212 3836.1617 3213.0293 3959.8269 Z" fill="none" stroke="#865327" opacity="0.37037037037037035" stroke-width="1" class="ditmas_park"/>
<path d="M 3182.8382 3784.0274 3192.1017 3783.1004 3227.9001 4053.0463 3140.7981 4064.1619 3091.1386 3824.6683 3182.8382 3784.0274 Z" fill="none" stroke="#865327" opacity="0.37037037037037035" stroke-width="1" class="ditmas_park"/>
<path d="M 3115.2817 3975.0976 3067.0297 3757.31 3232.8063 3667.7358 3260.7224 3911.3474 3115.2817 3975.0976 Z" fill="none" stroke="#865327" opacity="0.37037037037037035" stroke-width="1" class="ditmas_park"/>
<path d="M 3101.3615 3915.1092 3202.3267 3857.847 3215.3469 3962.1333 3124.5633 4016.6302 3101.3615 3915.1092 Z" fill="none" stroke="#865327" opacity="0.37037037037037035" stroke-width="1" class="ditmas_park"/>
<path d="M 3124.7939 4013.861 3102.0569 3916.2626 3200.4741 3858.7707 3208.3768 3917.834 3214.6492 3956.3649 3124.7939 4013.861 Z" fill="none" stroke="#865327" opacity="0.37037037037037035" stroke-width="1" class="ditmas_park"/>
<path d="M 3078.7215 3816.0835 3214.8989 3799.4174 3239.9607 3896.3077 3113.984 3973.8917 3078.7215 3816.0835 Z" fill="none" stroke="#865327" opacity="0.37037037037037035" stroke-width="1" class="ditmas_park"/>
<path d="M 3085.5773 3816.826 3194.8883 3799.2486 3208.8391 3915.6418 3114.9332 3972.3287 3082.335 3817.5192 3085.5773 3816.826 Z" fill="none" stroke="#865327" opacity="0.37037037037037035" stroke-width="1" class="ditmas_park"/>
<path d="M 3124.3302 4012.9381 3082.7957 3809.9055 3209.6916 3758.1766 3265.3628 3926.1122 3124.3302 4012.9381 Z" fill="none" stroke="#865327" opacity="0.37037037037037035" stroke-width="1" class="ditmas_park"/>
<path d="M 3188.4482 3899.3843 3205.155 3963.0611 3175.5138 3984.3035 3130.1202 4009.2437 3112.489 3940.0251 3094.8546 3854.199 3168.9682 3844.9414 3188.4482 3899.3843 Z" fill="none" stroke="#865327" opacity="0.37037037037037035" stroke-width="1" class="ditmas_park"/>
<path d="M 3200.0018 3838.929 3223.2442 4006.4341 3125.4906 4018.4759 3087.443 3854.663 3200.0018 3838.929 Z" fill="none" stroke="#865327" opacity="0.37037037037037035" stroke-width="1" class="ditmas_park"/>
<path d="M 3080.0187 3816.8278 3172.177 3766.4986 3210.6178 3757.7147 3221.7877 3868.4511 3253.3106 3912.0435 3264.4369 3927.2663 3124.3308 4014.3227 3115.5122 3972.0977 3080.0187 3816.8278 Z" fill="none" stroke="#865327" opacity="0.37037037037037035" stroke-width="1" class="ditmas_park"/>
<path d="M 3211.5448 3759.0985 3221.7875 3867.9897 3266.2889 3925.1887 3125.0261 4015.2455 3080.481 3814.0591 3184.2175 3760.9566 3211.5448 3759.0985 Z" fill="none" stroke="#865327" opacity="0.37037037037037035" stroke-width="1" class="ditmas_park"/>
<path d="M 3089.9903 3853.0471 3199.0747 3837.5451 3215.8082 3957.9796 3125.9524 4014.3221 3089.9903 3853.0471 Z" fill="none" stroke="#865327" opacity="0.37037037037037035" stroke-width="1" class="ditmas_park"/>
<path d="M 3065.1746 3749.9283 3179.0918 3690.8288 3180.9622 3731.429 3206.8974 3725.8806 3234.7967 3945.5101 3124.5643 4019.3993 3065.1746 3749.9283 Z" fill="none" stroke="#865327" opacity="0.37037037037037035" stroke-width="1" class="ditmas_park"/>
<path d="M 3203.2407 3831.0831 3209.7866 3960.2899 3060.6205 3999.1146 3055.9869 3997.27 3041.1197 3855.1391 3080.0308 3853.2811 3203.2407 3831.0831 Z" fill="none" stroke="#865327" opacity="0.37037037037037035" stroke-width="1" class="ditmas_park"/>
<path d="M 3089.2954 3853.0473 3196.9898 3836.6232 3211.8611 3938.4836 3214.3028 3958.5572 3136.1424 4007.1646 3123.9835 4015.0151 3096.6038 3888.5766 3089.2954 3853.0473 Z" fill="none" stroke="#865327" opacity="0.37037037037037035" stroke-width="1" class="ditmas_park"/>
<path d="M 3127.1124 4018.9368 3082.7982 3817.519 3190.7201 3800.8655 3220.9273 4005.743 3127.1124 4018.9368 Z" fill="none" stroke="#865327" opacity="0.37037037037037035" stroke-width="1" class="ditmas_park"/>
<path d="M 3091.1469 3848.663 3203.242 3833.8517 3225.5437 3971.3583 3120.8571 4017.5546 3091.1469 3848.663 Z" fill="none" stroke="#865327" opacity="0.37037037037037035" stroke-width="1" class="ditmas_park"/>
<path d="M 3192.5741 3803.4024 3212.0922 3937.4451 3118.5319 3994.4797 3082.3356 3819.1342 3192.5741 3803.4024 Z" fill="none" stroke="#865327" opacity="0.37037037037037035" stroke-width="1" class="ditmas_park"/>
<path d="M 3199.5375 3836.622 3229.2907 4054.4302 3121.7987 4057.2461 3073.6135 4061.8784 3042.9738 3858.8301 3199.5375 3836.622 Z" fill="none" stroke="#865327" opacity="0.37037037037037035" stroke-width="1" class="ditmas_park"/>
<path d="M 3196.6895 3686.2073 3240.3315 3896.5909 3065.7191 4006.0358 3030.9038 3767.0102 3196.6895 3686.2073 Z" fill="none" stroke="#865327" opacity="0.37037037037037035" stroke-width="1" class="ditmas_park"/>
<path d="M 3213.4915 3957.5192 3083.723 3812.6738 3189.3122 3760.0315 3218.0281 3756.327 3213.4915 3957.5192 Z" fill="none" stroke="#865327" opacity="0.37037037037037035" stroke-width="1" class="ditmas_park"/>
<path d="M 3114.3537 3971.4059 3087.4429 3854.2015 3197.6863 3840.3144 3209.7636 3911.3727 3114.3537 3971.4059 Z" fill="none" stroke="#865327" opacity="0.37037037037037035" stroke-width="1" class="ditmas_park"/>
<path d="M 3082.3354 3818.6728 3214.8051 3796.9323 3222.7146 3869.3736 3264.9018 3930.2657 3279.7904 4047.9426 3075.0073 4073.4167 3066.6447 4002.8048 3114.3539 3971.8674 3082.3354 3818.6728 Z" fill="none" stroke="#865327" opacity="0.37037037037037035" stroke-width="1" class="ditmas_park"/>
<path d="M 3126.4155 4013.8604 3088.3692 3853.7398 3199.0749 3838.0065 3217.198 3957.979 3126.4155 4013.8604 Z" fill="none" stroke="#865327" opacity="0.37037037037037035" stroke-width="1" class="ditmas_park"/>
<path d="M 3076.7668 3788.221 3185.1312 3732.3499 3224.8808 4037.3555 3134.7705 4053.318 3076.7668 3788.221 Z" fill="none" stroke="#865327" opacity="0.37037037037037035" stroke-width="1" class="ditmas_park"/>
<path d="M 3191.4159 3802.9415 3214.6496 3957.2879 3130.1206 4010.1668 3124.0993 4014.7843 3114.8178 3973.4825 3080.2499 3815.4435 3083.4934 3818.6724 3166.4042 3806.6438 3191.4159 3802.9415 Z" fill="none" stroke="#865327" opacity="0.37037037037037035" stroke-width="1" class="ditmas_park"/>
<path d="M 3081.1777 3819.8267 3191.8794 3803.6335 3208.3762 3916.4496 3214.534 3957.7495 3124.7941 4014.3225 3081.1777 3819.8267 Z" fill="none" stroke="#865327" opacity="0.37037037037037035" stroke-width="1" class="ditmas_park"/>
<path d="M 3210.0081 3938.8305 3122.0065 3994.0168 3103.2148 3915.8008 3199.7798 3859.9247 3210.0081 3938.8305 Z" fill="none" stroke="#865327" opacity="0.37037037037037035" stroke-width="1" class="ditmas_park"/>
<path d="M 3212.4716 3760.0208 3222.7117 3863.3747 3327.4991 4023.9158 3130.1376 4054.4736 3078.1657 3816.367 3171.715 3769.2672 3212.4716 3760.0208 Z" fill="none" stroke="#865327" opacity="0.37037037037037035" stroke-width="1" class="ditmas_park"/>
<path d="M 3179.095 3698.2107 3215.8091 3959.8256 3077.7782 4045.7232 3042.4927 3797.9213 3064.9408 3743.0075 3179.095 3698.2107 Z" fill="none" stroke="#865327" opacity="0.37037037037037035" stroke-width="1" class="ditmas_park"/>
<path d="M 3080.945 3816.3661 3184.682 3763.7248 3207.9105 3911.3736 3114.3547 3974.1749 3080.945 3816.3661 Z" fill="none" stroke="#865327" opacity="0.37037037037037035" stroke-width="1" class="ditmas_park"/>
<path d="M 3100.6362 3829.2793 3108.9697 3816.8178 3114.2963 3815.6622 3121.9385 3813.583 3129.8132 3813.58 3140.2349 3812.1916 3153.4349 3808.2642 3152.2834 3824.1839 3155.3016 3841.7171 3172.2606 3960.7683 3134.9762 3986.8585 3133.578 3965.3991 3122.2287 3968.8647 3118.5111 3938.6384 3113.8686 3912.1051 3110.6137 3879.1117 3106.6654 3849.3497 3101.3269 3817.5126 3100.6362 3829.2793 Z" fill="none" stroke="#865327" opacity="0.37037037037037035" stroke-width="1" class="ditmas_park"/>
<path d="M 3088.3687 3852.3555 3218.5282 3833.3831 3219.4622 3849.0715 3317.6635 3842.5591 3331.6783 4039.6053 3133.8492 4066.9339 3088.3687 3852.3555 Z" fill="none" stroke="#865327" opacity="0.37037037037037035" stroke-width="1" class="ditmas_park"/>
<path d="M 3206.9866 3916.9117 3106.0125 3965.871 3071.6714 3787.7612 3182.832 3770.1852 3206.9866 3916.9117 Z" fill="none" stroke="#865327" opacity="0.37037037037037035" stroke-width="1" class="ditmas_park"/>
<path d="M 3226.7353 4039.8931 3131.5278 4054.9347 3073.061 3787.7608 3181.8897 3733.9662 3226.7353 4039.8931 Z" fill="none" stroke="#865327" opacity="0.37037037037037035" stroke-width="1" class="ditmas_park"/>
<path d="M 3185.5792 3698.2078 3189.3089 3752.6492 3233.9245 4055.351 3141.2595 4059.0847 3131.0675 4062.7811 3076.2922 3753.6159 3118.8952 3726.8404 3159.6459 3706.5237 3185.5792 3698.2078 Z" fill="none" stroke="#865327" opacity="0.37037037037037035" stroke-width="1" class="ditmas_park"/>
<path d="M 3124.3308 4014.3227 3087.6744 3853.9707 3196.7582 3836.854 3215.3447 3957.5183 3124.3308 4014.3227 Z" fill="none" stroke="#865327" opacity="0.37037037037037035" stroke-width="1" class="ditmas_park"/>
<path d="M 3199.5375 3836.622 3209.033 3835.2333 3220.186 3909.2911 3209.0707 3915.757 3116.4385 3971.4051 3088.831 3849.5866 3198.8432 3837.7759 3190.9704 3842.3939 3048.7542 3825.3741 3199.5375 3836.622 Z" fill="none" stroke="#865327" opacity="0.37037037037037035" stroke-width="1" class="ditmas_park"/>
<path d="M 3088.6003 3852.3554 3196.7582 3836.854 3213.3762 3958.5576 3124.3309 4014.6688 3088.6003 3852.3554 Z" fill="none" stroke="#865327" opacity="0.37037037037037035" stroke-width="1" class="ditmas_park"/>
<path d="M 3223.7299 4052.5868 3136.6279 4063.702 3090.2226 3855.1235 3195.833 3839.3923 3223.7299 4052.5868 Z" fill="none" stroke="#865327" opacity="0.37037037037037035" stroke-width="1" class="ditmas_park"/>
<path d="M 3082.3357 3819.5956 3080.0196 3819.5964 3136.0655 3810.809 3144.4162 3843.1058 3152.2908 3842.1798 3196.7573 3834.7776 3214.8812 3957.0571 3125.0266 4016.63 3082.3357 3819.5956 Z" fill="none" stroke="#865327" opacity="0.37037037037037035" stroke-width="1" class="ditmas_park"/>
<path d="M 3088.6003 3852.3554 3197.4531 3836.8537 3214.8825 3959.826 3122.9406 4013.8617 3088.6003 3852.3554 Z" fill="none" stroke="#865327" opacity="0.37037037037037035" stroke-width="1" class="ditmas_park"/>
<path d="M 3214.1869 3958.4419 3122.2465 4015.9388 3081.8725 3819.5958 3082.7986 3818.6726 3216.1959 3799.4694 3218.7671 3848.6104 3199.0841 3858.0792 3214.1869 3958.4419 Z" fill="none" stroke="#865327" opacity="0.37037037037037035" stroke-width="1" class="ditmas_park"/>
<path d="M 3187.4619 3765.5691 3216.178 3761.8647 3228.2769 3876.2927 3267.2203 3934.4178 3274.668 3999.9466 3126.4208 4027.7061 3085.5784 3820.056 3187.4619 3765.5691 Z" fill="none" stroke="#865327" opacity="0.37037037037037035" stroke-width="1" class="ditmas_park"/>
<path d="M 3088.3681 3850.5097 3216.2141 3837.5371 3262.5823 3924.2677 3312.8257 4287.9538 3266.4947 4313.8324 3223.8591 4319.3941 3171.9562 4330.4979 3088.3681 3850.5097 Z" fill="none" stroke="#865327" opacity="0.37037037037037035" stroke-width="1" class="ditmas_park"/>
<path d="M 3226.7353 4039.8931 3131.064 4053.781 3080.9446 3815.2125 3185.3769 3764.1858 3226.7353 4039.8931 Z" fill="none" stroke="#865327" opacity="0.37037037037037035" stroke-width="1" class="ditmas_park"/>
<path d="M 3218.5349 3847.4569 3263.047 3927.0363 3124.3311 4015.2457 3101.5936 3916.2628 3218.5349 3847.4569 Z" fill="none" stroke="#865327" opacity="0.37037037037037035" stroke-width="1" class="ditmas_park"/>
<path d="M 3360.9974 4245.4535 3285.0321 4311.9758 3060.728 4343.4661 2979.0494 3868.9985 3312.5544 3819.029 3360.9974 4245.4535 Z" fill="none" stroke="#865327" opacity="0.37037037037037035" stroke-width="1" class="ditmas_park"/></svg>