<?xml version="1.0"?><svg xmlns="http://www.w3.org/2000/svg" version="1.2" baseProfile="tiny" width="6000" height="5918" viewBox="0 0 6000 5918" stroke-linecap="round" stroke-linejoin="round"><path d="M 3676.5791 1833.9142 3956.934 2019.6483 3984.8229 2134.7586 3667.5543 2064.1836 3540.7912 1970.3432 3676.5791 1833.9142 Z" fill="none" stroke="#FBC20F" opacity="0.6" stroke-width="1" class="ditmars"/>
<path d="M 3679.3606 1842.2 3939.3068 1972.6948 3843.27 2081.5014 3592.5628 1962.0097 3679.3606 1842.2 Z" fill="none" stroke="#FBC20F" opacity="0.6" stroke-width="1" class="ditmars"/>
<path d="M 3818.1841 1975.6009 3748.0063 2065.9456 3668.4605 2044.8387 3604.5951 1975.815 3586.0913 1962.9364 3587.0055 1950.9619 3688.6128 1849.5585 3818.1841 1975.6009 Z" fill="none" stroke="#FBC20F" opacity="0.6" stroke-width="1" class="ditmars"/>
<path d="M 3600.9072 1987.7922 3570.819 1944.0681 3677.736 1835.2945 3848.2012 1946.5537 3731.8266 2068.7258 3661.9937 2051.2929 3600.9072 1987.7922 Z" fill="none" stroke="#FBC20F" opacity="0.6" stroke-width="1" class="ditmars"/>
<path d="M 3671.9558 1832.9977 3780.2199 1924.9851 3806.0918 1910.2207 3839.4054 1935.9719 3865.2671 1912.9166 3907.8417 1949.707 3886.5999 1969.9957 3922.7054 2006.7954 3956.0082 2018.7283 3962.5521 2074.9095 3846.0568 2092.5524 3736.9135 2069.6417 3651.8186 2047.6179 3594.4323 1985.0347 3568.5048 1940.8464 3671.9558 1832.9977 Z" fill="none" stroke="#FBC20F" opacity="0.6" stroke-width="1" class="ditmars"/>
<path d="M 3715.441 1867.03 3883.7639 1917.4999 3917.1035 1962.5905 3894.0035 1975.5133 3925.4895 2015.0819 3893.1636 2046.4392 3834.9725 2103.6192 3797.0475 2094.4496 3735.0736 2078.8553 3658.3037 2060.5078 3591.6713 1999.7745 3592.5701 1970.2992 3653.5414 1913.1396 3664.6344 1911.2871 3635.0229 1883.685 3687.673 1833.9035 3715.441 1867.03 Z" fill="none" stroke="#FBC20F" opacity="0.6" stroke-width="1" class="ditmars"/>
<path d="M 3732.9059 1768.4743 3839.2398 1790.4603 3891.0703 1841.9712 3858.7599 1882.5314 3831.0238 1882.5631 3813.4832 1905.6075 3811.6422 1912.9776 3816.2692 1916.6565 3822.7288 1905.5972 3829.1945 1900.0639 3853.2275 1895.4315 3877.2506 1882.5097 3891.1033 1869.5997 3929.9844 1910.9969 3924.4563 1926.661 3935.5649 1937.6996 3927.2595 1950.6044 3952.24 1963.468 3971.8382 2105.2966 3920.9903 2116.4146 3658.7603 2054.5199 3539.8609 1963.436 3732.9059 1768.4743 Z" fill="none" stroke="#FBC20F" opacity="0.6" stroke-width="1" class="ditmars"/>
<path d="M 3675.6564 1835.757 3821.8733 1967.3072 3733.2147 2069.6455 3662.1484 2061.2742 3585.3189 1971.0755 3626.3617 1887.5869 3675.6564 1835.757 Z" fill="none" stroke="#FBC20F" opacity="0.6" stroke-width="1" class="ditmars"/>
<path d="M 3645.222 1914.9894 3738.5255 1839.378 3940.2567 1992.9573 3854.3784 2091.6216 3645.222 1914.9894 Z" fill="none" stroke="#FBC20F" opacity="0.6" stroke-width="1" class="ditmars"/>
<path d="M 3894.0685 2029.8578 3840.5126 2096.2434 3797.9607 2083.855 3624.9017 1937.1126 3669.1788 1829.3167 3894.0685 2029.8578 Z" fill="none" stroke="#FBC20F" opacity="0.6" stroke-width="1" class="ditmars"/>
<path d="M 3544.4867 1966.6559 3559.2449 1924.2758 3571.2558 1914.1345 3636.8006 1806.3243 3805.2038 1943.3784 3820.8982 1922.1774 3830.1304 1910.1939 3855.0798 1898.1924 3877.255 1886.1937 3892.9876 1899.0688 3927.1745 1881.5286 3932.7889 1935.861 3950.378 1953.3388 3949.5205 2006.7621 3915.3081 2006.8044 3960.6315 2018.7225 3973.6818 2100.6883 3927.458 2111.8007 3669.4011 2061.4184 3582.4255 2000.7036 3544.4867 1966.6559 Z" fill="none" stroke="#FBC20F" opacity="0.6" stroke-width="1" class="ditmars"/>
<path d="M 3920.6387 2009.6623 3842.8595 2098.219 3737.5906 2071.1227 3580.8488 1935.7794 3697.7068 1801.5386 3920.6387 2009.6623 Z" fill="none" stroke="#FBC20F" opacity="0.6" stroke-width="1" class="ditmars"/>
<path d="M 3895.002 2037.2257 3841.4342 2093.4788 3654.5979 2053.1421 3592.5886 1991.4839 3611.0617 1969.3618 3707.1166 1863.3545 3895.002 2037.2257 Z" fill="none" stroke="#FBC20F" opacity="0.6" stroke-width="1" class="ditmars"/>
<path d="M 3710.8156 1864.2718 3859.709 1903.713 3917.0922 1953.38 3894.9998 2035.3835 3843.2847 2094.3979 3831.263 2094.4115 3729.5186 2072.4128 3609.2141 1971.2055 3710.8156 1864.2718 Z" fill="none" stroke="#FBC20F" opacity="0.6" stroke-width="1" class="ditmars"/>
<path d="M 3592.587 1989.6417 3710.7289 1777.7055 3962.5019 2035.3003 3929.2904 2097.9805 3592.587 1989.6417 Z" fill="none" stroke="#FBC20F" opacity="0.6" stroke-width="1" class="ditmars"/>
<path d="M 3675.6555 1834.8361 3804.2406 1908.3807 3919.9337 2008.641 3839.5868 2095.3233 3433.5631 2010.0317 3451.0948 1959.3599 3675.6555 1834.8361 Z" fill="none" stroke="#FBC20F" opacity="0.6" stroke-width="1" class="ditmars"/>
<path d="M 3849.76 2096.2328 3626.6987 1880.0088 3739.3607 1752.813 3959.5017 1856.6222 3967.1828 2080.4306 3849.76 2096.2328 Z" fill="none" stroke="#FBC20F" opacity="0.6" stroke-width="1" class="ditmars"/>
<path d="M 3930.0538 1967.1799 3888.5752 2075.9216 3675.8785 2066.018 3568.5072 1943.6095 3647.9225 1836.7043 3743.148 1839.3732 3930.0538 1967.1799 Z" fill="none" stroke="#FBC20F" opacity="0.6" stroke-width="1" class="ditmars"/>
<path d="M 3577.7523 1942.6806 3680.2842 1841.2781 3825.5759 1970.9873 3873.1313 1917.5124 3926.3576 1969.0266 3840.9734 2094.8611 3663.844 2052.2122 3572.6702 1946.3691 3577.7523 1942.6806 Z" fill="none" stroke="#FBC20F" opacity="0.6" stroke-width="1" class="ditmars"/>
<path d="M 3635.0153 1875.3963 3681.1908 1822.8587 3729.2082 1768.4781 3836.4717 1795.0679 3890.1316 1830.0001 3893.8758 1868.6754 3850.5058 1940.5643 3729.5233 2077.0186 3658.3098 2066.9559 3539.8636 1966.6597 3568.4954 1929.7941 3581.4451 1936.2302 3635.0153 1875.3963 Z" fill="none" stroke="#FBC20F" opacity="0.6" stroke-width="1" class="ditmars"/>
<path d="M 3834.6145 1787.7029 3943.8793 1932.1631 3972.7595 2102.5319 3666.6217 2055.8942 3569.4349 1947.2929 3573.1278 1940.8425 3727.3612 1770.3217 3834.6145 1787.7029 Z" fill="none" stroke="#FBC20F" opacity="0.6" stroke-width="1" class="ditmars"/>
<path d="M 3712.6702 1869.7957 3886.9317 2039.0776 3805.6635 2134.0518 3620.8516 1969.3843 3712.6702 1869.7957 Z" fill="none" stroke="#FBC20F" opacity="0.6" stroke-width="1" class="ditmars"/>
<path d="M 3631.5563 1884.1487 3632.709 1880.9242 3797.1357 1752.2912 3942.8485 1846.9731 3776.1623 2021.2409 3723.8716 1975.2409 3711.8399 1963.7397 3691.4766 1941.6548 3631.5563 1884.1487 Z" fill="none" stroke="#FBC20F" opacity="0.6" stroke-width="1" class="ditmars"/>
<path d="M 3845.1342 2094.3958 3661.076 2058.6629 3602.7712 2004.3702 3567.5794 1939.9262 3621.1557 1884.6187 3669.1867 1837.6051 3728.2988 1783.213 3819.8295 1793.2449 3879.0867 1871.4559 3934.6552 1949.6742 3929.1791 2007.7085 3845.1342 2094.3958 Z" fill="none" stroke="#FBC20F" opacity="0.6" stroke-width="1" class="ditmars"/>
<path d="M 3674.7301 1833.916 3896.8536 2039.0658 3829.4187 2099.0196 3453.9184 2027.5182 3674.7301 1833.916 Z" fill="none" stroke="#FBC20F" opacity="0.6" stroke-width="1" class="ditmars"/>
<path d="M 3677.5051 1835.525 3892.9193 2035.386 3836.351 2096.0179 3655.9838 2051.9894 3587.2543 1971.2249 3677.5051 1835.525 Z" fill="none" stroke="#FBC20F" opacity="0.6" stroke-width="1" class="ditmars"/>
<path d="M 3809.8288 1945.2154 3832.0431 1966.3747 3868.9804 1925.8064 3884.6906 1919.3408 3912.4591 1945.0962 3934.6837 1972.7006 3922.7054 2006.7954 3894.0784 2038.148 3867.2861 2058.4447 3860.8452 2086.0871 3833.0938 2077.8283 3767.4322 2072.3733 3726.7398 2067.8098 3668.4552 2039.3119 3593.4955 1971.2195 3599.0123 1936.2148 3623.9444 1901.194 3655.3506 1870.7725 3689.5192 1831.1389 3708.043 1865.1955 3724.6825 1863.3368 3747.828 1894.6262 3786.6919 1924.9781 3809.8288 1945.2154 Z" fill="none" stroke="#FBC20F" opacity="0.6" stroke-width="1" class="ditmars"/>
<path d="M 3733.8293 1767.5525 3829.0688 1788.6301 3891.0692 1841.0502 3949.5205 2006.7621 3774.1465 2298.0778 3449.3424 2092.9232 3733.8293 1767.5525 Z" fill="none" stroke="#FBC20F" opacity="0.6" stroke-width="1" class="ditmars"/>
<path d="M 3966.2803 2097.9342 3853.9238 2098.3007 3663.8416 2049.6791 3573.8256 1945.9076 3619.7816 1898.665 3674.4999 1834.8372 3690.9215 1847.0236 3711.7411 1865.1918 3957.3972 2020.3385 3966.2803 2097.9342 Z" fill="none" stroke="#FBC20F" opacity="0.6" stroke-width="1" class="ditmars"/>
<path d="M 3846.8137 1946.0948 3917.1496 2000.3545 3850.6615 2075.9659 3774.7758 2021.7029 3666.4853 1913.1273 3710.8202 1868.8766 3819.0984 1966.3892 3846.8137 1946.0948 Z" fill="none" stroke="#FBC20F" opacity="0.6" stroke-width="1" class="ditmars"/>
<path d="M 3681.2131 1845.8819 3781.1544 1934.1943 3869.8975 1919.3583 3971.7488 2035.2885 3981.1 2116.3391 3905.2893 2133.0156 3659.231 2063.2704 3588.8627 1960.1708 3681.2131 1845.8819 Z" fill="none" stroke="#FBC20F" opacity="0.6" stroke-width="1" class="ditmars"/>
<path d="M 3752.9169 1898.3048 3869.5354 2005.0169 3807.6556 2070.4874 3767.4259 2066.3858 3689.6951 2010.7368 3684.5583 1958.2404 3752.9169 1898.3048 Z" fill="none" stroke="#FBC20F" opacity="0.6" stroke-width="1" class="ditmars"/>
<path d="M 3983.3923 2101.1364 3916.5982 2116.8806 3801.6677 2091.2204 3704.9433 2001.9713 3605.459 1907.6576 3676.1111 1827.9286 3796.6497 1942.0063 3834.2704 1891.9995 3862.4843 1905.0913 3918.9462 1957.2922 3907.6549 1986.3195 3963.6338 2016.4159 3983.3923 2101.1364 Z" fill="none" stroke="#FBC20F" opacity="0.6" stroke-width="1" class="ditmars"/>
<path d="M 3678.4307 1836.6752 3918.0855 2009.5643 3832.1909 2097.1741 3536.1621 1962.9785 3678.4307 1836.6752 Z" fill="none" stroke="#FBC20F" opacity="0.6" stroke-width="1" class="ditmars"/>
<path d="M 3919.0045 2004.9577 3838.6589 2092.5608 3663.8493 2057.7391 3557.4321 1967.5662 3733.8397 1777.682 3942.9915 1961.6375 3919.0045 2004.9577 Z" fill="none" stroke="#FBC20F" opacity="0.6" stroke-width="1" class="ditmars"/>
<path d="M 3663.851 2059.5814 3564.7955 1927.9552 3739.3455 1738.0795 3918.8311 1863.1195 3730.4471 2076.0965 3663.851 2059.5814 Z" fill="none" stroke="#FBC20F" opacity="0.6" stroke-width="1" class="ditmars"/>
<path d="M 3611.0625 1970.2828 3713.5864 1861.5061 3870.8177 1915.6731 3939.355 2011.3803 3857.1846 2119.2542 3611.0625 1970.2828 Z" fill="none" stroke="#FBC20F" opacity="0.6" stroke-width="1" class="ditmars"/>
<path d="M 3712.8411 2016.0443 3641.5698 1938.7432 3645.2648 1935.0556 3708.9821 1855.7888 3788.5799 1938.5953 3712.8411 2016.0443 Z" fill="none" stroke="#FBC20F" opacity="0.6" stroke-width="1" class="ditmars"/>
<path d="M 3644.3548 2010.313 3592.0884 1950.3266 3692.0594 1852.469 3783.7254 1927.1364 3830.9351 1976.8208 3736.7178 2069.0339 3646.0103 2029.583 3644.3548 2010.313 Z" fill="none" stroke="#FBC20F" opacity="0.6" stroke-width="1" class="ditmars"/>
<path d="M 3655.8941 2032.7967 3641.4651 2013.1251 3619.6624 1992.6756 3615.9029 1970.2716 3629.8132 1951.3133 3650.1393 1935.1763 3660.3024 1927.338 3681.978 1915.1907 3701.1992 1908.5751 3726.6286 1912.3795 3749.2961 1932.6605 3770.6327 1953.9029 3789.1913 1968.2624 3809.5123 1987.188 3824.5515 2004.4472 3809.8496 2025.4183 3786.3998 2048.0747 3763.3042 2068.8252 3655.8941 2032.7967 Z" fill="none" stroke="#FBC20F" opacity="0.6" stroke-width="1" class="ditmars"/>
<path d="M 3663.851 2059.5814 3597.2192 1999.7696 3570.3603 1948.2132 3710.7381 1786.9143 3738.4524 1768.4686 3831.8432 1789.5478 3882.74 1833.6926 3890.1327 1830.9211 3893.8449 1842.8888 3955.0243 1971.7541 3842.3568 2091.6354 3663.851 2059.5814 Z" fill="none" stroke="#FBC20F" opacity="0.6" stroke-width="1" class="ditmars"/>
<path d="M 3837.3888 1788.6207 3881.8112 1830.01 3891.9959 1842.891 3934.5764 1886.1244 3944.8154 1941.3722 3921.748 1980.0851 3921.7796 2005.8754 3847.9042 2090.7079 3661.9946 2052.214 3542.6374 1966.6574 3676.5729 1827.4677 3707.9602 1782.3126 3744.9186 1763.8575 3837.3888 1788.6207 Z" fill="none" stroke="#FBC20F" opacity="0.6" stroke-width="1" class="ditmars"/>
<path d="M 3713.579 1854.1385 3740.3488 1814.5111 3729.2985 1856.8854 3968.0347 2023.3186 3975.5042 2079.4988 3921.88 2087.8566 3859.9301 2094.3787 3809.9389 2044.6927 3668.3389 1917.7306 3713.579 1854.1385 Z" fill="none" stroke="#FBC20F" opacity="0.6" stroke-width="1" class="ditmars"/>
<path d="M 3672.882 1834.8387 3900.549 2036.2979 3846.0526 2088.8676 3794.2592 2081.5561 3742.6849 2061.8059 3611.0394 1944.4934 3672.882 1834.8387 Z" fill="none" stroke="#FBC20F" opacity="0.6" stroke-width="1" class="ditmars"/>
<path d="M 3626.7029 1884.6136 3677.9716 1839.899 3826.0393 1971.9078 3776.6257 2022.1615 3626.7029 1884.6136 Z" fill="none" stroke="#FBC20F" opacity="0.6" stroke-width="1" class="ditmars"/>
<path d="M 3649.4158 1950.445 3720.0715 1874.8536 3894.0751 2035.3846 3870.0629 2060.7443 3801.1022 1997.2652 3753.074 2048.4385 3649.4158 1950.445 Z" fill="none" stroke="#FBC20F" opacity="0.6" stroke-width="1" class="ditmars"/>
<path d="M 3623.0131 1893.8269 3742.132 1750.9684 3901.2099 1817.094 3959.7057 2017.8025 3956.086 2080.4447 3849.7537 2090.7058 3623.0131 1893.8269 Z" fill="none" stroke="#FBC20F" opacity="0.6" stroke-width="1" class="ditmars"/>
<path d="M 3883.8992 2031.7122 3849.76 2096.2328 3795.1809 2078.7916 3705.4667 2063.2255 3654.5953 2050.3787 3595.3569 1985.0339 3577.7626 1954.6541 3572.1961 1932.554 3675.659 1838.5198 3883.8992 2031.7122 Z" fill="none" stroke="#FBC20F" opacity="0.6" stroke-width="1" class="ditmars"/>
<path d="M 3676.58 1834.8352 3772.8183 1920.3879 3819.046 1919.4164 3872.6712 1919.355 3930.0526 1966.2588 3919.009 2008.6421 3840.5168 2099.9282 3783.1674 2086.174 3664.7793 2063.2651 3602.7752 2008.9757 3566.658 1943.6111 3676.58 1834.8352 Z" fill="none" stroke="#FBC20F" opacity="0.6" stroke-width="1" class="ditmars"/>
<path d="M 3671.0313 1832.9986 3814.4641 1956.2628 3863.4137 1909.2347 3917.1001 1959.8273 3919.009 2008.6421 3842.3621 2096.2413 3798.895 2092.6052 3663.8475 2055.8968 3594.4404 1994.2455 3562.0327 1940.8519 3666.4088 1833.0031 3671.0313 1832.9986 Z" fill="none" stroke="#FBC20F" opacity="0.6" stroke-width="1" class="ditmars"/></svg>