<?xml version="1.0"?><svg xmlns="http://www.w3.org/2000/svg" version="1.2" baseProfile="tiny" width="6000" height="5918" viewBox="0 0 6000 5918" stroke-linecap="round" stroke-linejoin="round"><path d="M 2831.6785 3009.2641 2982.5544 2994.4885 2962.2022 3049.8179 2773.3641 3130.0651 2831.6785 3009.2641 Z" fill="none" stroke="#A9159C" opacity="0.6" stroke-width="1" class="dumbo"/>
<path d="M 2854.8185 2999.1195 2909.4341 3021.2424 2874.2634 3057.209 2800.2081 3047.0714 2806.6858 3000.0449 2833.528 2985.2905 2854.8185 2999.1195 Z" fill="none" stroke="#A9159C" opacity="0.6" stroke-width="1" class="dumbo"/>
<path d="M 2888.152 3082.1047 2830.754 3025.8616 2913.1316 2988.9696 2956.6455 3036.9096 2939.9888 3065.4982 2888.152 3082.1047 Z" fill="none" stroke="#A9159C" opacity="0.6" stroke-width="1" class="dumbo"/>
<path d="M 2954.7831 2981.8163 2948.7816 3058.8111 2883.9828 3054.672 2856.9039 3027.012 2844.8705 3029.5488 2819.4144 3021.7129 2834.9174 2998.1991 2954.7831 2981.8163 Z" fill="none" stroke="#A9159C" opacity="0.6" stroke-width="1" class="dumbo"/>
<path d="M 2818.7215 3045.2263 2826.1257 3026.784 2831.679 3017.5628 2846.4875 2995.432 2856.6698 2999.1193 2869.6283 2996.3518 2891.8429 2992.6609 2906.6524 2989.8926 2923.3148 2997.2664 2934.4249 3011.0955 2931.6525 3036.9143 2923.3241 3052.5915 2895.5541 3056.2842 2877.9655 3051.6759 2852.9725 3056.2891 2833.5328 3051.6801 2818.7215 3045.2263 Z" fill="none" stroke="#A9159C" opacity="0.6" stroke-width="1" class="dumbo"/>
<path d="M 2851.1173 3013.8729 2970.5219 2997.2574 2945.5334 3015.7038 2936.2861 3066.421 2851.1173 3013.8729 Z" fill="none" stroke="#A9159C" opacity="0.6" stroke-width="1" class="dumbo"/>
<path d="M 2818.2568 3011.1091 2824.5039 2995.6642 2846.2556 2989.4387 2910.8163 2980.441 2908.0496 3047.7528 2863.8482 3045.2227 2858.0621 3039.2296 2839.7788 3022.4031 2818.2568 3011.1091 Z" fill="none" stroke="#A9159C" opacity="0.6" stroke-width="1" class="dumbo"/>
<path d="M 2825.7778 3014.3359 2830.2899 3008.4574 2865.8115 3009.8374 2866.2733 3000.5014 2888.9514 3001.4208 2890.3386 2992.0848 2931.7606 2993.8073 2929.8009 3035.3009 2877.1533 3032.5424 2864.0781 3031.0454 2854.7047 3019.6356 2838.7374 3020.7895 2825.7778 3014.3359 Z" fill="none" stroke="#A9159C" opacity="0.6" stroke-width="1" class="dumbo"/>
<path d="M 2929.8028 3046.5967 2911.0563 3036.6872 2860.6069 3030.7 2840.4729 3019.6368 2825.1976 2987.5962 2853.4284 2981.1397 2914.5188 2980.671 2931.876 2991.9631 2929.8028 3046.5967 Z" fill="none" stroke="#A9159C" opacity="0.6" stroke-width="1" class="dumbo"/>
<path d="M 2932.2276 2978.4205 2929.1938 3057.6967 2890.3587 3056.6906 2825.7835 2993.9491 2932.2276 2978.4205 Z" fill="none" stroke="#A9159C" opacity="0.6" stroke-width="1" class="dumbo"/>
<path d="M 2911.5104 2979.7494 2907.818 3046.6002 2805.5289 3005.1163 2824.7351 2992.6675 2911.5104 2979.7494 Z" fill="none" stroke="#A9159C" opacity="0.6" stroke-width="1" class="dumbo"/>
<path d="M 2828.0906 2994.3961 2879.8095 2990.7031 2907.009 3053.4009 2884.7926 3053.1734 2827.3964 2994.3962 2828.0906 2994.3961 Z" fill="none" stroke="#A9159C" opacity="0.6" stroke-width="1" class="dumbo"/>
<path d="M 2822.4223 3012.953 2835.379 2981.6022 2909.4275 2978.3667 2908.9729 3032.3075 2850.1936 3035.0809 2822.4223 3012.953 Z" fill="none" stroke="#A9159C" opacity="0.6" stroke-width="1" class="dumbo"/>
<path d="M 2832.3721 3001.196 2891.1486 2992.661 2930.9508 2994.2684 2930.0323 3035.5314 2862.2269 3031.8524 2832.3721 3001.196 Z" fill="none" stroke="#A9159C" opacity="0.6" stroke-width="1" class="dumbo"/>
<path d="M 2923.0826 2992.1952 2950.8515 2993.4579 2947.2752 3047.6308 2874.1461 3042.9163 2874.838 3022.976 2840.5892 3027.705 2812.9346 3016.9876 2830.9831 2992.5518 2899.7095 2984.5919 2923.0826 2992.1952 Z" fill="none" stroke="#A9159C" opacity="0.6" stroke-width="1" class="dumbo"/>
<path d="M 2828.9007 2997.2775 2889.065 2985.2849 2961.2603 2971.4421 2956.6563 3090.3926 2858.5241 3030.4697 2828.9007 2997.2775 Z" fill="none" stroke="#A9159C" opacity="0.6" stroke-width="1" class="dumbo"/>
<path d="M 3078.8498 3085.7493 3084.4144 3116.1786 3098.3311 3202.862 2966.8622 3198.2879 2987.2412 3244.397 2983.5382 3246.2425 2974.2831 3262.8461 2869.6519 3210.2929 2785.4 3179.8643 2765.0323 3159.5755 2749.2941 3149.4311 2754.8488 3140.2092 2730.7791 3131.9089 2739.1114 3117.1542 2761.3293 3128.2207 2771.5124 3105.1664 2761.3294 3099.6335 2766.8837 3091.3341 2752.9981 3082.1126 2761.3295 3074.7356 2782.6208 3082.1125 2787.2492 3072.8911 2764.1066 3061.8258 2771.5121 3050.7604 2790.9517 3062.7476 2797.4308 3039.6947 2784.4713 3033.2403 2805.7606 3010.1876 2815.9425 3008.343 2819.6449 3006.0376 2819.1819 3001.4274 2822.4212 2994.5117 2827.049 2990.8232 2833.5283 2989.9007 2839.0821 2989.9003 2850.1894 2988.0553 2850.1898 2992.6655 2855.7439 2996.3532 2863.1487 2994.5084 2869.627 2984.3652 2877.032 2985.2864 2891.8416 2983.4404 2900.1722 2983.4393 2910.3543 2986.2039 2911.2787 2977.9054 2929.7907 2976.9803 2941.8235 2976.0561 2953.8565 2976.9758 2955.7068 2972.3652 2971.4425 2974.206 2967.7507 3023.998 2967.7519 3029.5305 2971.4568 3039.6727 2977.9381 3047.0481 2977.016 3062.7243 2977.0201 3081.1668 3078.8498 3085.7493 Z" fill="none" stroke="#A9159C" opacity="0.6" stroke-width="1" class="dumbo"/>
<path d="M 2836.3075 3020.3287 2830.7517 2992.6671 2873.3301 2989.897 2950.1559 2986.1969 2950.1705 3060.8856 2879.8181 3061.8189 2836.3075 3020.3287 Z" fill="none" stroke="#A9159C" opacity="0.6" stroke-width="1" class="dumbo"/>
<path d="M 2878.4205 2985.5167 2878.4204 2984.9404 2916.2535 2975.83 2930.254 2979.5158 2930.2658 3047.2882 2923.3232 3047.2894 2909.6683 3039.9147 2902.2629 3039.6853 2895.5515 3037.6115 2877.9634 3033.6949 2856.2101 3032.0836 2852.5074 3031.7381 2844.5231 3026.3216 2835.266 3018.4846 2827.3977 3014.2205 2822.7692 3009.9562 2817.4463 3001.1969 2822.8839 2992.8981 2830.6357 2989.3247 2848.8009 2987.9402 2853.7768 2994.8551 2861.6448 2997.0442 2867.3128 2983.3281 2878.4205 2985.5167 Z" fill="none" stroke="#A9159C" opacity="0.6" stroke-width="1" class="dumbo"/>
<path d="M 2767.8096 3164.1866 2847.4139 3003.7305 3002.9203 3002.7821 3054.7708 3051.6383 2940.942 3213.9715 2767.8096 3164.1866 Z" fill="none" stroke="#A9159C" opacity="0.6" stroke-width="1" class="dumbo"/>
<path d="M 2829.1328 3007.6507 2900.1722 2983.9003 2923.7886 3062.7347 2877.5052 3073.3457 2865.931 3045.453 2829.1328 3007.6507 Z" fill="none" stroke="#A9159C" opacity="0.6" stroke-width="1" class="dumbo"/>
<path d="M 2821.0338 3012.7226 2814.0913 3008.6889 2824.9666 2993.5895 2837.1151 2989.7852 2849.611 2989.3232 2850.4212 2993.3571 2854.7028 2998.6585 2862.2236 2999.6951 2864.5372 2994.7388 2868.8178 2991.0501 2869.9743 2986.555 2874.0238 2985.402 2886.636 2991.2785 2891.4955 2990.7016 2891.8417 2983.9014 2908.0399 2983.2076 2909.7763 2988.9701 2911.6274 2988.5088 2912.4357 2978.1357 2932.5676 2977.4408 2929.5694 3035.0705 2849.0361 3030.4706 2821.0338 3012.7226 Z" fill="none" stroke="#A9159C" opacity="0.6" stroke-width="1" class="dumbo"/>
<path d="M 2874.2558 2990.819 3092.6761 2914.2414 3223.2332 3027.5971 3249.2508 3221.2421 2992.8018 3266.5311 2745.5904 3176.1753 2794.6533 3024.0192 2874.2558 2990.819 Z" fill="none" stroke="#A9159C" opacity="0.6" stroke-width="1" class="dumbo"/>
<path d="M 2875.1712 2903.228 3290.8612 3126.2303 3036.3176 3262.8304 2615.0854 2966.8402 2726.1665 2743.7468 2891.8309 2903.226 2875.1712 2903.228 Z" fill="none" stroke="#A9159C" opacity="0.6" stroke-width="1" class="dumbo"/>
<path d="M 2927.6831 2998.6396 2931.3931 3041.0546 2893.6956 3065.382 2843.3289 3080.9014 2815.9813 3042.0719 2830.7896 3006.1098 2887.8783 2984.4524 2927.6831 2998.6396 Z" fill="none" stroke="#A9159C" opacity="0.6" stroke-width="1" class="dumbo"/>
<path d="M 2929.8028 3046.5967 2923.323 3046.3672 2908.7424 3038.5317 2899.7168 3035.7667 2887.6828 3033.2326 2865.0036 3029.5469 2849.4978 3017.5614 2838.3902 3020.559 2822.8851 3012.953 2822.4221 3010.4173 2820.339 3002.3493 2826.8177 2992.4368 2849.7267 2989.4384 2854.8184 2997.7364 2862.6863 2998.8882 2872.1725 2985.2869 2890.6856 2990.8169 2891.8417 2983.6709 2913.1302 2979.7491 2955.245 2977.4365 2950.6285 3035.9887 2949.4737 3047.7457 2929.8028 3046.5967 Z" fill="none" stroke="#A9159C" opacity="0.6" stroke-width="1" class="dumbo"/>
<path d="M 2885.6033 3059.0518 2822.6526 2994.5117 2838.8504 2986.9037 2876.5687 2981.3677 2976.5327 2971.2083 2974.7011 3059.7279 2885.6033 3059.0518 Z" fill="none" stroke="#A9159C" opacity="0.6" stroke-width="1" class="dumbo"/>
<path d="M 2834.9046 2994.0499 2874.2431 2989.4359 2900.6295 3032.7698 2865.9172 3033.6962 2834.9046 2994.0499 Z" fill="none" stroke="#A9159C" opacity="0.6" stroke-width="1" class="dumbo"/>
<path d="M 2864.9997 2991.742 2930.7175 2983.4344 2923.3236 3049.8251 2878.8888 3031.3895 2864.9997 2991.742 Z" fill="none" stroke="#A9159C" opacity="0.6" stroke-width="1" class="dumbo"/>
<path d="M 2933.0336 2995.4206 2929.8024 3044.0609 2860.8387 3034.6189 2849.2645 2997.0454 2933.0336 2995.4206 Z" fill="none" stroke="#A9159C" opacity="0.6" stroke-width="1" class="dumbo"/>
<path d="M 2821.4965 3011.1089 2821.4954 2991.7456 2978.8463 2969.5942 2976.0911 3066.413 2886.2981 3062.7402 2821.4965 3011.1089 Z" fill="none" stroke="#A9159C" opacity="0.6" stroke-width="1" class="dumbo"/>
<path d="M 2858.521 2999.1191 2869.6286 2999.118 2875.1818 2994.5071 2877.9596 3001.8832 2874.2584 3013.8705 2869.63 3012.0269 2861.2984 3003.7292 2856.6717 3019.4048 2854.8197 3012.0284 2849.2657 3010.1848 2844.6371 3005.5748 2835.38 2995.4329 2845.5618 2994.51 2852.0412 2994.5095 2858.521 2999.1191 Z" fill="none" stroke="#A9159C" opacity="0.6" stroke-width="1" class="dumbo"/>
<path d="M 2816.8681 3006.4988 2879.808 2977.9097 2979.7744 2980.6584 2977.951 3104.2204 2863.1604 3107.9279 2802.0605 3075.657 2816.8681 3006.4988 Z" fill="none" stroke="#A9159C" opacity="0.6" stroke-width="1" class="dumbo"/>
<path d="M 3006.6932 3278.5179 2762.2548 3199.2316 2819.6452 3011.109 3070.5151 3075.6085 3006.6932 3278.5179 Z" fill="none" stroke="#A9159C" opacity="0.6" stroke-width="1" class="dumbo"/>
<path d="M 2820.57 2996.3559 2980.6992 2976.9701 3055.699 3059.937 3050.1446 3059.0166 2777.0663 3059.9815 2820.57 2996.3559 Z" fill="none" stroke="#A9159C" opacity="0.6" stroke-width="1" class="dumbo"/>
<path d="M 2827.1649 2993.4741 2846.487 2989.7845 2850.4209 2989.8994 2852.2727 2995.4315 2854.8183 2997.5059 2863.8434 2999.1186 2865 2994.854 2868.1237 2992.2027 2869.9747 2990.3584 2871.0156 2986.0938 2873.4453 2986.0936 2876.9165 2986.6694 2883.8592 2991.2788 2886.636 2990.8175 2891.727 2991.3931 2892.536 2984.5929 2908.2712 2983.0923 2909.4286 2985.5125 2909.1979 2989.6617 2910.8178 2990.2378 2907.8169 3039.4539 2897.6341 3036.1128 2887.4516 3035.0768 2878.4262 3033.5796 2867.5494 3031.5061 2862.9209 3029.4319 2854.3581 3025.0528 2839.662 3007.9957 2827.1649 2993.4741 Z" fill="none" stroke="#A9159C" opacity="0.6" stroke-width="1" class="dumbo"/>
<path d="M 2821.0329 2997.278 2818.7188 2996.8171 2915.906 2973.2944 2920.5464 3048.4424 2871.9486 3051.6765 2821.0329 2997.278 Z" fill="none" stroke="#A9159C" opacity="0.6" stroke-width="1" class="dumbo"/>
<path d="M 2737.2684 2833.1671 2924.2567 3094.0872 2688.2036 3016.6398 2737.2684 2833.1671 Z" fill="none" stroke="#A9159C" opacity="0.6" stroke-width="1" class="dumbo"/>
<path d="M 2858.521 2999.1191 2885.3631 2989.8956 2940.8985 2979.7444 2937.2102 3057.1996 2877.9662 3057.2085 2858.521 2999.1191 Z" fill="none" stroke="#A9159C" opacity="0.6" stroke-width="1" class="dumbo"/>
<path d="M 2821.4871 2852.2955 2825.1889 2850.2209 2825.8831 2851.1428 2886.7522 2994.5057 2896.4741 3015.0203 2891.3833 3017.0957 2821.4871 2852.2955 Z" fill="none" stroke="#A9159C" opacity="0.6" stroke-width="1" class="dumbo"/>
<path d="M 2895.5442 2984.3619 2986.2526 2976.0467 3126.0314 3007.3535 3196.4064 3065.416 3035.3538 3130.0266 2905.733 3031.3859 2895.5442 2984.3619 Z" fill="none" stroke="#A9159C" opacity="0.6" stroke-width="1" class="dumbo"/>
<path d="M 2829.8269 3005.576 2930.7193 2993.8075 2930.4951 3035.0703 2854.1274 3032.5448 2826.5877 3012.9527 2829.8269 3005.576 Z" fill="none" stroke="#A9159C" opacity="0.6" stroke-width="1" class="dumbo"/>
<path d="M 2822.4212 2994.5117 2982.5523 2985.268 2771.5127 3142.9758 2843.7256 3176.1723 3032.5638 3084.8413 2781.6958 3121.7653 2782.6213 3108.8549 2780.7695 3085.8011 2790.0258 3055.3707 2795.5792 3032.318 2822.4212 2994.5117 Z" fill="none" stroke="#A9159C" opacity="0.6" stroke-width="1" class="dumbo"/>
<path d="M 2827.0486 2984.3689 2988.1032 2973.2802 3067.7341 3063.6217 2969.6319 3162.3201 2793.7301 3107.9325 2827.0486 2984.3689 Z" fill="none" stroke="#A9159C" opacity="0.6" stroke-width="1" class="dumbo"/>
<path d="M 2792.8041 3095.9445 2809.4622 2989.9022 2969.5895 2965.9081 2965.9164 3104.223 2792.8041 3095.9445 Z" fill="none" stroke="#A9159C" opacity="0.6" stroke-width="1" class="dumbo"/>
<path d="M 2821.0338 3012.9531 2821.4964 3008.6885 2823.4633 3007.19 2819.6448 3004.3088 2820.2233 3002.9256 2818.9505 3002.2342 2820.9173 2998.6611 2822.3057 2999.0068 2821.38 2998.0848 2824.1567 2993.5896 2831.9086 2991.2839 2833.1814 2992.4364 2834.5698 2991.399 2834.5697 2990.3617 2845.33 2990.1303 2846.0241 2988.9777 2850.5366 2989.3231 2850.4212 2993.4723 2854.2398 2997.6212 2862.5707 2999.234 2864.0743 2994.393 2865.1157 2995.0845 2869.8591 2990.9347 2868.5862 2989.206 2871.594 2985.5175 2873.2139 2985.6326 2875.6436 2985.8628 2881.545 2990.7028 2891.3798 2991.1626 2891.9574 2984.0167 2908.8497 2983.0922 2909.7763 2989.4311 2911.859 2989.4308 2920.3059 2993.1177 2919.1577 3047.4053 2882.8246 3045.451 2864.0795 3044.5311 2853.3176 3033.928 2846.2588 3027.013 2837.0017 3020.2134 2821.0338 3012.9531 Z" fill="none" stroke="#A9159C" opacity="0.6" stroke-width="1" class="dumbo"/>
<path d="M 2890.0008 3062.7397 2817.7926 2987.1356 2927.9384 2970.5264 2927.9496 3035.9928 2950.1655 3035.0667 2950.1799 3108.837 2932.591 3109.7625 2886.3038 3107.9252 2890.0008 3062.7397 Z" fill="none" stroke="#A9159C" opacity="0.6" stroke-width="1" class="dumbo"/>
<path d="M 2829.7119 3016.295 2824.8519 3009.3798 2825.083 3005.1152 2823.81 3000.966 2823.8098 2998.1999 2829.479 2993.3587 2834.6855 2991.86 2842.9003 2990.7068 2849.7268 2990.7062 2851.4626 2993.5875 2857.0167 2996.8141 2853.7772 2999.2349 2858.4054 3000.387 2865.1161 2999.0032 2865.579 2999.1184 2866.8514 2996.6979 2867.7767 2993.4706 2869.7434 2990.589 2873.6771 2989.2054 2877.7266 2988.6287 2879.4623 2990.2421 2882.0084 2994.9673 2881.3148 2999.8082 2886.9843 3000.1532 2892.1902 2994.1592 2892.7688 2995.0812 2892.3056 2992.0845 2893.347 2992.7759 2892.5371 2993.1218 2911.2812 2994.0412 2913.8266 2994.0408 2921.0002 2993.8091 2925.6285 2994.6151 2931.2979 2994.4989 2932.6864 2995.0749 2934.3062 2994.7289 2934.422 2994.9594 2935.8106 2995.8812 2936.6207 2996.9183 2937.8938 2998.8775 2937.6626 3000.2606 2938.7041 3001.1825 2936.8532 3002.9117 2937.3164 3004.871 2938.242 3005.1013 2937.0852 3006.1389 2937.2011 3007.1762 2936.276 3010.1731 2930.8382 3012.3639 2930.26 3014.3235 2929.6824 3019.6255 2930.4924 3019.7406 2931.0717 3024.2357 2931.1883 3029.0766 2929.1066 3035.0705 2922.1641 3035.0717 2908.2787 3032.5382 2900.4106 3032.8851 2895.7822 3032.1942 2886.757 3032.4259 2878.5417 3031.6201 2877.7317 3031.6202 2871.9462 3030.814 2864.7721 3028.6249 2859.6805 3023.0929 2862.1098 3018.2517 2850.4235 3018.0223 2837.3487 3018.8302 2829.7119 3016.295 Z" fill="none" stroke="#A9159C" opacity="0.6" stroke-width="1" class="dumbo"/>
<path d="M 2910.5864 2990.5836 2908.7449 3054.8991 2881.4369 3052.367 2826.1248 3012.2612 2832.14 2991.5144 2908.9654 2982.5159 2910.5864 2990.5836 Z" fill="none" stroke="#A9159C" opacity="0.6" stroke-width="1" class="dumbo"/>
<path d="M 2826.8189 3010.6475 2953.6253 2977.6674 2949.4758 3058.5805 2872.1803 3054.4429 2826.8189 3010.6475 Z" fill="none" stroke="#A9159C" opacity="0.6" stroke-width="1" class="dumbo"/>
<path d="M 2991.5762 2981.5777 2980.4822 3040.3623 2870.7902 3039.9198 2833.5308 3023.7867 2802.7525 3016.8728 2845.33 2989.4388 2914.9814 2979.5183 2991.5762 2981.5777 Z" fill="none" stroke="#A9159C" opacity="0.6" stroke-width="1" class="dumbo"/>
<path d="M 2848.3384 2991.5131 2865.9258 2996.3522 2866.1594 3017.0987 2840.4739 3033.2375 2814.5555 3036.0055 2800.4384 3016.4118 2816.8682 3009.9566 2826.5865 2994.281 2848.3384 2991.5131 Z" fill="none" stroke="#A9159C" opacity="0.6" stroke-width="1" class="dumbo"/>
<path d="M 2911.2795 2983.4376 2908.5109 3037.8402 2848.3418 3029.5485 2827.9749 2993.5893 2911.2795 2983.4376 Z" fill="none" stroke="#A9159C" opacity="0.6" stroke-width="1" class="dumbo"/>
<path d="M 2832.6028 2990.8228 2877.0321 2985.7474 2978.8458 2967.2891 3005.233 2997.2492 2982.5698 3061.3398 2878.8915 3054.4421 2832.6028 2990.8228 Z" fill="none" stroke="#A9159C" opacity="0.6" stroke-width="1" class="dumbo"/>
<path d="M 2851.0513 3023.7249 2833.9713 2992.4245 2836.0662 2996.3943 2838.2138 3002.0434 2840.1812 3006.6536 2955.8351 2978.004 2954.2949 2982.7326 2954.9899 2986.5359 2953.7182 2991.8379 2951.3753 3003.3025 2951.26 3005.3772 2950.6481 3021.9433 2936.3854 3022.5663 2908.1423 3020.1973 2899.8115 3021.1206 2890.0086 3020.6913 2893.3944 3020.3002 2889.576 3020.3007 2886.8711 3019.9777 2882.4371 3020.8146 2874.3378 3021.9682 2867.8582 3021.7384 2864.121 3023.0839 2857.8727 3021.4709 2856.7859 3022.7266 2826.768 2996.0801 2830.008 3000.6902 2834.0002 3006.1524 2833.3058 3004.0778 2837.54 3008.314 2845.177 3013.8458 2843.3763 3015.5027 2839.9049 3012.7367 2844.9413 3017.7116 2847.7185 3021.3997 2851.0513 3023.7249 Z" fill="none" stroke="#A9159C" opacity="0.6" stroke-width="1" class="dumbo"/>
<path d="M 2990.8797 2972.127 2969.3705 3023.3061 2969.6031 3028.8385 2973.5393 3038.7502 2977.4749 3045.204 2977.2574 3107.2176 2931.1935 3058.8144 2918.9258 3044.5238 2861.5326 3031.1609 2824.9666 2993.82 2879.5777 2987.3607 2990.8797 2972.127 Z" fill="none" stroke="#A9159C" opacity="0.6" stroke-width="1" class="dumbo"/>
<path d="M 2931.6449 2993.5768 2930.0301 3022.8527 2863.8455 3019.1736 2866.3891 3000.7319 2889.2986 3001.6513 2889.2971 2990.8171 2931.6449 2993.5768 Z" fill="none" stroke="#A9159C" opacity="0.6" stroke-width="1" class="dumbo"/>
<path d="M 2935.5807 3004.4103 2968.9039 3006.0173 2973.5439 3059.2671 2932.3502 3056.7394 2935.5807 3004.4103 Z" fill="none" stroke="#A9159C" opacity="0.6" stroke-width="1" class="dumbo"/>
<path d="M 2806.6882 3054.909 2823.8096 2994.5116 2987.1796 2982.0398 3037.6519 3073.3132 2858.528 3069.6593 2840.019 3132.8287 2790.9528 3103.7828 2806.688 3051.2206 2806.6882 3054.909 Z" fill="none" stroke="#A9159C" opacity="0.6" stroke-width="1" class="dumbo"/>
<path d="M 2825.6608 2993.1284 2830.983 2991.0535 2871.4783 2985.5175 2907.577 2982.9771 2931.6449 2994.0378 2930.7242 3022.161 2909.6655 3021.2424 2908.2796 3038.5318 2900.6427 3037.6108 2861.3012 3031.161 2825.6608 2993.1284 Z" fill="none" stroke="#A9159C" opacity="0.6" stroke-width="1" class="dumbo"/>
<path d="M 2967.7523 3031.3747 2972.3966 3104.2216 2952.0317 3110.681 2903.8929 3107.9228 2905.7378 3063.6596 2888.1474 3047.064 2897.4007 3022.1663 2967.7523 3031.3747 Z" fill="none" stroke="#A9159C" opacity="0.6" stroke-width="1" class="dumbo"/>
<path d="M 2826.4707 2993.2436 2931.8733 2976.9799 2928.9946 3056.5095 2884.0984 3053.2888 2826.4707 2993.2436 Z" fill="none" stroke="#A9159C" opacity="0.6" stroke-width="1" class="dumbo"/>
<path d="M 2942.4101 3019.5079 2891.033 2992.8915 2953.1661 2996.1084 2950.3944 3022.5032 2890.5736 3019.1704 2892.0745 2994.1592 2946.456 2999.3369 2942.4101 3019.5079 Z" fill="none" stroke="#A9159C" opacity="0.6" stroke-width="1" class="dumbo"/>
<path d="M 2824.2736 3012.9529 2933.9559 2976.5185 2930.4986 3055.3566 2877.5037 3059.9749 2824.2736 3012.9529 Z" fill="none" stroke="#A9159C" opacity="0.6" stroke-width="1" class="dumbo"/>
<path d="M 2911.2788 2978.5969 2908.5102 3033.2297 2849.7304 3031.3926 2815.2483 3007.882 2824.7348 2988.5182 2911.2788 2978.5969 Z" fill="none" stroke="#A9159C" opacity="0.6" stroke-width="1" class="dumbo"/>
<path d="M 2827.512 2993.5894 2828.4377 2993.8198 3017.7229 2974.4253 3019.8292 3062.7137 2887.9171 3055.5936 2827.512 2993.5894 Z" fill="none" stroke="#A9159C" opacity="0.6" stroke-width="1" class="dumbo"/>
<path d="M 2886.2968 3052.5969 2827.5119 2992.2063 2829.3631 2990.362 2969.1278 2970.9794 2971.9231 3055.8095 2886.2968 3052.5969 Z" fill="none" stroke="#A9159C" opacity="0.6" stroke-width="1" class="dumbo"/>
<path d="M 2869.1816 3143.4312 2787.2499 3106.0883 2834.9179 3004.6535 2893.6936 2988.9724 2908.9661 2987.1261 2931.1824 2995.882 2927.0243 3037.8372 2869.1816 3143.4312 Z" fill="none" stroke="#A9159C" opacity="0.6" stroke-width="1" class="dumbo"/>
<path d="M 2887.6854 3053.2883 2886.9901 3045.22 2876.3448 3044.9908 2832.6035 3000.2739 2872.8671 2988.2835 2932.3392 2994.2682 2927.9536 3059.0455 2887.6854 3053.2883 Z" fill="none" stroke="#A9159C" opacity="0.6" stroke-width="1" class="dumbo"/>
<path d="M 2932.1081 2995.8818 2929.5694 3035.301 2863.3841 3033.466 2836.5374 3000.7347 2891.1486 2992.4305 2932.1079 2994.7293 2932.1081 2995.8818 Z" fill="none" stroke="#A9159C" opacity="0.6" stroke-width="1" class="dumbo"/>
<path d="M 2825.1999 3023.3262 2817.1003 3021.9436 2807.3819 3042.4606 2801.3659 3065.9747 2790.0267 3089.259 2785.6298 3101.247 2756.9323 3088.5676 2751.378 3085.8011 2759.2466 3076.3493 2765.4952 3063.9006 2770.5864 3053.0657 2784.7028 3038.5424 2804.6034 3008.5741 2820.3387 2998.2001 2834.4539 2988.7481 2852.272 2988.2856 2874.4866 2985.7477 2893.9238 2979.9825 2910.5852 2982.5157 2957.5584 2974.0937 2951.8989 3023.886 2840.0107 3028.1661 2844.755 3031.6235 2854.7062 3035.1958 2862.6913 3047.067 2871.022 3043.7235 2887.6845 3046.3725 2897.8671 3047.2933 2902.264 3046.8316 2927.7201 3046.597 2930.4973 3047.7492 2940.6798 3048.3237 2950.5151 3048.0913 2952.7089 3024.2316 2821.4976 3029.0895 2825.1999 3023.3262 Z" fill="none" stroke="#A9159C" opacity="0.6" stroke-width="1" class="dumbo"/>
<path d="M 2844.6363 2995.4322 2951.081 2983.4306 2976.0843 3035.9833 2856.6739 3042.4571 2844.6363 2995.4322 Z" fill="none" stroke="#A9159C" opacity="0.6" stroke-width="1" class="dumbo"/>
<path d="M 2825.6607 2992.6674 2932.7989 2976.5187 2928.8773 3047.7495 2910.8266 3047.2914 2874.262 3044.53 2862.4584 3032.7745 2856.9038 3026.0899 2836.075 3006.2671 2825.6607 2992.6674 Z" fill="none" stroke="#A9159C" opacity="0.6" stroke-width="1" class="dumbo"/>
<path d="M 2911.7545 3062.045 2836.0746 3000.0431 2947.8399 2975.8244 2921.0089 3046.8287 2911.7545 3062.045 Z" fill="none" stroke="#A9159C" opacity="0.6" stroke-width="1" class="dumbo"/>
<path d="M 2934.8847 2994.7288 2930.4971 3046.5965 2903.1895 3045.6788 2886.0581 2996.1193 2889.2975 2993.5833 2934.8847 2994.7288 Z" fill="none" stroke="#A9159C" opacity="0.6" stroke-width="1" class="dumbo"/>
<path d="M 2853.8961 3033.928 2829.8273 3010.8779 2846.7191 2997.5066 2873.7926 2987.5918 2914.5207 2993.1186 2910.3618 3035.0736 2853.8961 3033.928 Z" fill="none" stroke="#A9159C" opacity="0.6" stroke-width="1" class="dumbo"/>
<path d="M 2832.1405 2998.1993 2845.0123 2997.9742 2904.2516 2991.513 2968.1347 2990.768 2972.8872 3034.6627 2961.4687 3063.5681 2888.6124 3063.201 2832.1405 2998.1993 Z" fill="none" stroke="#A9159C" opacity="0.6" stroke-width="1" class="dumbo"/>
<path d="M 2881.6609 2991.7401 2892.3092 3018.9397 2898.5597 3035.9974 2868.0124 3032.7739 2861.9955 3032.083 2825.8924 2996.3556 2832.3714 2991.2839 2847.1812 2989.6691 2871.0156 2986.6701 2881.6609 2991.7401 Z" fill="none" stroke="#A9159C" opacity="0.6" stroke-width="1" class="dumbo"/>
<path d="M 2847.98 2861.9737 2923.1748 2851.3621 2921.4456 2888.2397 2854.4624 2903.6912 2847.98 2861.9737 Z" fill="none" stroke="#A9159C" opacity="0.6" stroke-width="1" class="dumbo"/>
<path d="M 2863.612 2999.4644 2871.4783 2985.287 2890.3387 2992.2001 2899.942 2992.5445 2911.0497 2993.5802 2912.6672 2978.5967 2955.361 2978.8196 2959.4177 3013.6264 2955.488 3035.0656 2950.8655 3064.3435 2874.8414 3052.5983 2838.2737 3009.7247 2835.3795 2989.4396 2863.612 2999.4644 Z" fill="none" stroke="#A9159C" opacity="0.6" stroke-width="1" class="dumbo"/>
<path d="M 2856.6763 3067.3541 2818.7198 3014.7974 2816.8688 3019.4078 2827.0489 2988.0571 2882.5854 2982.5196 2903.8831 3041.5293 2880.7402 3032.3114 2868.7072 3037.8454 2863.1545 3050.7554 2856.6763 3067.3541 Z" fill="none" stroke="#A9159C" opacity="0.6" stroke-width="1" class="dumbo"/>
<path d="M 2829.8263 2996.8164 2828.669 2991.9757 2842.5531 2989.2085 2869.1643 2985.9788 2891.3789 2984.132 2932.5675 2976.7493 2929.3381 3035.9926 2909.8989 3034.6126 2906.891 3037.6099 2880.7403 3033.2335 2863.1525 3031.1608 2829.8263 2996.8164 Z" fill="none" stroke="#A9159C" opacity="0.6" stroke-width="1" class="dumbo"/>
<path d="M 2930.4951 3035.5313 2865.4668 3032.7742 2850.4236 3019.6359 2831.6789 3015.4881 2820.8011 2990.1321 2858.7512 2987.1324 2908.734 2982.7465 2934.6533 2994.7288 2950.8558 3015.2417 2930.9556 3021.9305 2930.4951 3035.5313 Z" fill="none" stroke="#A9159C" opacity="0.6" stroke-width="1" class="dumbo"/>
<path d="M 2889.9915 2992.2001 2931.4135 2993.9226 2930.6086 3022.5068 2889.301 3020.2079 2889.3005 3016.4044 2886.1757 3010.7571 2889.9915 2992.2001 Z" fill="none" stroke="#A9159C" opacity="0.6" stroke-width="1" class="dumbo"/>
<path d="M 2971.4448 2984.579 2975.6264 3057.9987 2875.8829 3052.944 2821.0335 3007.1901 2841.6272 2985.2899 2970.7481 2973.2841 2971.4448 2984.579 Z" fill="none" stroke="#A9159C" opacity="0.6" stroke-width="1" class="dumbo"/>
<path d="M 2843.2485 3003.7308 2913.1331 2998.1901 2928.88 3063.1949 2883.0575 3057.2079 2843.2485 3003.7308 Z" fill="none" stroke="#A9159C" opacity="0.6" stroke-width="1" class="dumbo"/>
<path d="M 2987.2419 3247.1639 2816.8963 3525.7637 2732.624 3323.7433 2784.4742 3180.7865 2766.8838 3154.0423 2808.5394 3052.6037 2849.2673 3027.7043 2901.1062 3042.4518 2987.2419 3247.1639 Z" fill="none" stroke="#A9159C" opacity="0.6" stroke-width="1" class="dumbo"/>
<path d="M 2866.5048 3000.9624 2932.4549 2994.3834 2931.3051 3035.3007 2865.6982 3032.3131 2866.5048 3000.9624 Z" fill="none" stroke="#A9159C" opacity="0.6" stroke-width="1" class="dumbo"/>
<path d="M 2954.7827 2979.5112 2951.0958 3058.8107 2866.1636 3056.2877 2826.8192 3014.7969 2813.1651 2997.5089 2954.7827 2979.5112 Z" fill="none" stroke="#A9159C" opacity="0.6" stroke-width="1" class="dumbo"/>
<path d="M 2930.7192 2993.5769 2930.7242 3021.9305 2908.9711 3020.5509 2909.436 3034.1517 2887.4514 3033.2327 2889.9916 2992.4306 2930.7192 2993.5769 Z" fill="none" stroke="#A9159C" opacity="0.6" stroke-width="1" class="dumbo"/>
<path d="M 2979.7968 3079.3219 2905.7442 3107.0003 2815.9471 3095.0214 2645.5796 3365.244 2618.7266 3360.6281 2612.2465 3349.5582 2802.9872 3100.5549 2821.4968 3016.6414 2970.5161 2970.5181 2994.5853 2985.2652 2979.7968 3079.3219 Z" fill="none" stroke="#A9159C" opacity="0.6" stroke-width="1" class="dumbo"/></svg>