<?xml version="1.0"?><svg xmlns="http://www.w3.org/2000/svg" version="1.2" baseProfile="tiny" width="6000" height="5918" viewBox="0 0 6000 5918" stroke-linecap="round" stroke-linejoin="round"><path d="M 3783.6837 3423.7394 3827.1975 3414.4669 3818.932 3476.2831 3778.1768 3469.87 3783.6837 3423.7394 Z" fill="none" stroke="#012394" opacity="0.6" stroke-width="1" class="east_new_york"/>
<path d="M 4310.6974 3480.2197 4316.2888 3501.4289 4315.393 3519.8816 4327.4816 3549.3842 4311.6039 3468.2255 4298.5937 3440.5716 4285.5844 3412.9183 4243.8276 3358.5608 4223.3791 3308.7838 4160.3585 3270.1406 4130.6871 3240.67 4064.0349 3248.1423 4021.4618 3261.1122 3951.114 3276.8825 3910.4201 3314.749 3885.446 3336.916 3827.1394 3362.8105 3779.0218 3394.2258 4327.4984 3559.5328 4318.376 3644.4312 4335.1131 3683.1572 4279.6296 3742.3038 4142.6253 3808.9559 4042.6762 3886.6183 4042.8059 3982.6067 3956.3792 3781.5239 3934.1035 3747.408 3901.6231 3699.464 3863.5658 3632.1514 3819.039 3572.2302 3789.2659 3447.718 3780.8807 3400.6809 4310.6974 3480.2197 Z" fill="none" stroke="#012394" opacity="0.6" stroke-width="1" class="east_new_york"/>
<path d="M 4309.7321 3456.2359 3952.4824 3629.2759 3883.6759 3406.0996 4093.3243 3336.6467 4309.7321 3456.2359 Z" fill="none" stroke="#012394" opacity="0.6" stroke-width="1" class="east_new_york"/>
<path d="M 4206.6701 3281.139 4231.6653 3278.3336 4284.0361 3602.0444 4283.1099 3602.0458 3953.571 3758.4572 3908.0783 3675.4653 3859.9057 3670.9087 3791.9329 3345.3237 4183.3149 3142.8342 4206.6701 3281.139 Z" fill="none" stroke="#012394" opacity="0.6" stroke-width="1" class="east_new_york"/>
<path d="M 3856.2125 3346.2502 3881.4712 3303.4847 3947.0829 3200.1067 3969.6925 3264.3316 4018.7353 3242.1324 4037.898 3262.3976 4151.6781 3191.2218 4189.3112 3179.4834 4208.6177 3293.8182 4218.4893 3290.1137 4222.22 3307.6326 4231.1661 3304.2361 4240.8072 3351.5714 4259.9409 3349.0809 4273.6445 3426.8506 4298.0474 3436.3452 4311.1148 3499.0549 4260.5027 3509.5912 4278.2419 3598.7483 4199.5381 3615.1696 4244.7234 3683.995 4238.5689 3697.8456 4202.7889 3723.1217 4103.1881 3817.7034 4070.5435 3883.5808 3938.1759 3731.485 3898.564 3658.9441 3858.4278 3660.53 3844.143 3590.1169 3807.815 3403.4951 3857.4777 3373.3076 3856.2125 3346.2502 Z" fill="none" stroke="#012394" opacity="0.6" stroke-width="1" class="east_new_york"/>
<path d="M 3721.435 3451.479 4085.4623 3342.8839 4138.7433 3368.8659 4223.7056 3370.3529 4252.2565 3418.9674 4266.7156 3485.3645 4277.7819 3600.6704 3937.1327 3762.3996 3920.6658 3743.0413 3879.1732 3710.7943 3769.3884 3696.8454 3721.435 3451.479 Z" fill="none" stroke="#012394" opacity="0.6" stroke-width="1" class="east_new_york"/>
<path d="M 3760.4975 3390.5557 4275.8976 3725.6999 3908.2693 3067.5895 4266.6313 3723.8691 4000.2789 4056.5071 3701.5505 3711.6789 3760.4975 3390.5557 Z" fill="none" stroke="#012394" opacity="0.6" stroke-width="1" class="east_new_york"/>
<path d="M 4173.8207 3294.7931 4215.3027 3325.3989 4153.9429 3314.8837 4225.4978 3331.6092 4223.9133 3354.9022 4233.9317 3396.1652 4202.9553 3425.9622 4177.5024 3434.9947 4168.0544 3464.7593 4165.5446 3489.6712 4158.1782 3518.5118 4127.8674 3532.6252 4116.3063 3543.7127 4079.0603 3566.8302 4056.8469 3577.9322 3948.3195 3633.4331 3883.2113 3404.7165 3960.0477 3385.7124 4024.8394 3363.9513 4092.862 3337.1086 4141.4461 3317.2079 4173.8207 3294.7931 Z" fill="none" stroke="#012394" opacity="0.6" stroke-width="1" class="east_new_york"/>
<path d="M 2811.2983 2678.3001 2923.6774 2399.0392 3077.7189 2465.3495 3039.4267 2809.1588 2811.2983 2678.3001 Z" fill="none" stroke="#012394" opacity="0.6" stroke-width="1" class="east_new_york"/>
<path d="M 4056.5598 3876.4474 3985.9488 3723.3504 3864.2197 3397.8204 4041.0377 3359.0869 4150.5602 3533.976 4265.6786 3707.261 4064.8818 3864.4383 4056.5598 3876.4474 Z" fill="none" stroke="#012394" opacity="0.6" stroke-width="1" class="east_new_york"/>
<path d="M 3869.7359 3363.6841 3863.2486 3359.0796 4250.0921 3220.1997 4394.2055 3572.3368 4073.3145 3932.7236 3869.7359 3363.6841 Z" fill="none" stroke="#012394" opacity="0.6" stroke-width="1" class="east_new_york"/>
<path d="M 3806.582 3404.3428 4217.7931 3288.9618 4239.4997 3403.7667 4277.2008 3599.2874 4268.2144 3699.9904 4082.7766 3907.56 3894.3887 3653.1061 3858.7321 3657.3002 3853.6089 3632.3936 3806.582 3404.3428 Z" fill="none" stroke="#012394" opacity="0.6" stroke-width="1" class="east_new_york"/>
<path d="M 3748.4382 3370.2749 4331.0182 3447.8984 3873.4251 4141.5918 3633.8717 3649.9212 3748.4382 3370.2749 Z" fill="none" stroke="#012394" opacity="0.6" stroke-width="1" class="east_new_york"/>
<path d="M 3867.7817 3276.0611 4132.7484 3385.4783 4103.3877 3577.4062 3731.9788 3574.1684 3653.9756 3358.3771 3867.7817 3276.0611 Z" fill="none" stroke="#012394" opacity="0.6" stroke-width="1" class="east_new_york"/>
<path d="M 4215.3035 3175.0632 4233.5286 3285.7093 4227.9731 3285.718 4250.7507 3344.714 4257.6868 3339.1687 4273.0888 3416.6282 4285.6897 3478.4152 4256.5306 3486.7644 4278.467 3594.6721 4280.4695 3688.3213 4312.7026 3856.6821 4132.6568 3962.6365 4079.8459 3965.4804 3903.1297 3796.8161 3950.778 3747.3872 3870.0388 3622.9172 3819.7681 3395.5649 3791.0069 3345.3247 3811.3568 3325.9323 3879.4196 3330.4664 3903.4123 3262.184 4003.8041 3210.8707 4215.3035 3175.0632 Z" fill="none" stroke="#012394" opacity="0.6" stroke-width="1" class="east_new_york"/>
<path d="M 3869.7715 3394.1241 4112.3013 3332.9303 4369.921 3452.4456 3934.9054 3646.8287 3869.7715 3394.1241 Z" fill="none" stroke="#012394" opacity="0.6" stroke-width="1" class="east_new_york"/>
<path d="M 4060.2759 3883.8256 3738.3558 3470.8344 3754.8159 3270.6522 4284.1557 3100.2572 4514.7744 3660.6967 4601.9736 3726.9683 4502.0675 3802.827 4060.2759 3883.8256 Z" fill="none" stroke="#012394" opacity="0.6" stroke-width="1" class="east_new_york"/>
<path d="M 4471.9957 3566.6638 4416.0464 3637.735 4316.0592 3667.4305 4128.8617 3606.8222 4156.5746 3504.995 4223.1419 3431.0934 4329.076 3393.4759 4439.3324 3427.418 4471.9957 3566.6638 Z" fill="none" stroke="#012394" opacity="0.6" stroke-width="1" class="east_new_york"/>
<path d="M 3902.1089 3333.2065 4336.2158 3232.0501 4364.5331 3552.0901 3962.9668 3862.727 3779.9508 3396.9922 3902.1089 3333.2065 Z" fill="none" stroke="#012394" opacity="0.6" stroke-width="1" class="east_new_york"/>
<path d="M 3878.1067 3395.0368 4221.8273 3353.2912 4247.2681 3485.8565 3946.0108 3638.9721 3878.1067 3395.0368 Z" fill="none" stroke="#012394" opacity="0.6" stroke-width="1" class="east_new_york"/>
<path d="M 3878.1111 3398.7266 4178.0098 3309.7751 4651.4568 3456.5383 4098.2051 3843.1654 3878.1111 3398.7266 Z" fill="none" stroke="#012394" opacity="0.6" stroke-width="1" class="east_new_york"/>
<path d="M 4228.365 3538.933 4399.2227 3527.8129 4407.7907 3528.4899 4409.9071 3547.1686 4404.1621 3572.3195 4428.46 3563.9736 4364.6845 3641.5859 4331.8053 3643.4864 4228.365 3538.933 Z" fill="none" stroke="#012394" opacity="0.6" stroke-width="1" class="east_new_york"/>
<path d="M 3801.1633 3318.5645 3842.8639 3347.573 3890.5284 3328.1473 4013.5668 3242.2154 4034.8909 3263.8612 4040.0231 3293.3689 4075.6575 3283.6356 4104.4901 3374.9108 4135.501 3367.9482 4467.2651 3511.3173 4350.741 3612.084 4197.9171 3615.0959 4246.194 3686.9915 4100.9479 3817.3213 4070.4674 3883.8116 3952.6354 3751.0761 3936.9043 3764.9376 3890.4776 3674.5637 3855.2743 3670.9141 3788.2161 3333.3366 3801.1633 3318.5645 Z" fill="none" stroke="#012394" opacity="0.6" stroke-width="1" class="east_new_york"/>
<path d="M 3875.2897 3361.8327 4156.7699 3191.0599 4273.3772 3597.4482 4101.0079 3859.7734 3875.2897 3361.8327 Z" fill="none" stroke="#012394" opacity="0.6" stroke-width="1" class="east_new_york"/>
<path d="M 3502.2849 3577.1432 3959.467 3292.5518 4027.4605 3593.1953 3947.8685 3643.1218 3922.8764 3656.9931 3855.2604 3658.9189 3795.0896 3693.1268 3603.3556 3707.1573 3502.2849 3577.1432 Z" fill="none" stroke="#012394" opacity="0.6" stroke-width="1" class="east_new_york"/>
<path d="M 4323.64 3466.3607 3944.6171 3635.5138 3887.8491 3411.1682 4096.5509 3326.496 4134.5737 3367.0272 4323.64 3466.3607 Z" fill="none" stroke="#012394" opacity="0.6" stroke-width="1" class="east_new_york"/>
<path d="M 3840.2669 3506.7028 3845.3875 3530.2224 3850.4914 3538.981 3869.1363 3643.217 3830.0338 3466.123 4188.3256 3396.4656 4303.2481 3455.324 3894.1321 3632.1154 3883.9565 3643.1996 3944.1531 3634.8224 3905.2671 3648.7103 3901.5599 3646.8694 3840.2669 3506.7028 Z" fill="none" stroke="#012394" opacity="0.6" stroke-width="1" class="east_new_york"/>
<path d="M 3732.7832 3455.1574 3752.1961 3421.9279 3776.2802 3428.3598 3998.4951 3399.4996 4045.7985 3455.7078 4038.4992 3536.9014 3996.8882 3587.6998 3943.1993 3612.6796 3912.6683 3641.3199 3872.8478 3648.7488 3816.3691 3670.0354 3785.7389 3611.94 3760.6617 3546.4606 3741.1588 3494.8172 3734.6514 3470.8382 3732.7832 3455.1574 Z" fill="none" stroke="#012394" opacity="0.6" stroke-width="1" class="east_new_york"/>
<path d="M 3878.1111 3398.7266 3936.439 3389.4317 4006.7857 3366.2812 4095.634 3332.9539 4126.4124 3486.9608 4197.9129 3612.3279 4231.3574 3676.8647 4246.1896 3684.2234 4265.661 3696.1882 4214.7788 3738.7144 4152.778 3783.1017 4119.4806 3820.0635 4101.0105 3861.6192 4066.8516 3949.346 3848.8061 3684.7623 3854.348 3670.9151 3852.4795 3657.0767 3804.9614 3404.3446 3878.1111 3398.7266 Z" fill="none" stroke="#012394" opacity="0.6" stroke-width="1" class="east_new_york"/>
<path d="M 3869.7381 3365.5289 4221.2317 3116.9553 4234.3025 3187.9452 4236.147 3183.3312 4275.2344 3310.5471 4272.4507 3306.8621 4337.5375 3470.0277 4357.1734 3581.626 4384.0301 3579.7352 4258.2753 3711.8865 4254.5685 3710.9696 4134.7594 3495.2515 4126.4257 3496.1861 4255.0383 3421.2692 4114.3164 3447.31 4131.9757 3491.5654 3918.1752 3599.7933 3869.7381 3365.5289 Z" fill="none" stroke="#012394" opacity="0.6" stroke-width="1" class="east_new_york"/>
<path d="M 3869.8228 3352.4831 3898.6655 3260.8413 4066.7052 3293.9265 4134.4603 3406.3637 3899.0118 3458.504 3869.8228 3352.4831 Z" fill="none" stroke="#012394" opacity="0.6" stroke-width="1" class="east_new_york"/>
<path d="M 3855.8206 3341.5625 4085.7774 3237.0446 4280.0204 3697.088 4112.1269 3860.6806 3855.8206 3341.5625 Z" fill="none" stroke="#012394" opacity="0.6" stroke-width="1" class="east_new_york"/>
<path d="M 4190.0837 3180.635 4277.0832 3598.1343 4150.2122 3770.6475 4070.461 3879.1971 3878.6443 3654.9702 3869.914 3516.1249 3871.3575 3364.6046 3934.3793 3221.5652 4178.7419 3180.1909 4190.0837 3180.635 Z" fill="none" stroke="#012394" opacity="0.6" stroke-width="1" class="east_new_york"/>
<path d="M 3835.502 3388.1677 4001.2364 3371.3618 4036.1739 3529.5239 3878.3706 3619.2167 3835.502 3388.1677 Z" fill="none" stroke="#012394" opacity="0.6" stroke-width="1" class="east_new_york"/>
<path d="M 3897.5642 3404.2382 4076.2465 3374.4892 4082.884 3486.0999 4066.9852 3373.5796 3850.5952 3629.3983 3831.9255 3501.177 3897.5642 3404.2382 Z" fill="none" stroke="#012394" opacity="0.6" stroke-width="1" class="east_new_york"/>
<path d="M 3806.7789 3372.9797 4119.5662 3233.3077 4166.2775 3515.5015 3854.3342 3658.92 3806.7789 3372.9797 Z" fill="none" stroke="#012394" opacity="0.6" stroke-width="1" class="east_new_york"/>
<path d="M 3971.4662 3263.0219 3986.29 3270.3815 3963.1379 3266.7218 3971.4662 3263.0219 Z" fill="none" stroke="#012394" opacity="0.6" stroke-width="1" class="east_new_york"/>
<path d="M 4214.8434 3176.9084 4255.3523 3620.5431 3949.721 3643.1195 3794.6807 3317.6492 4214.8434 3176.9084 Z" fill="none" stroke="#012394" opacity="0.6" stroke-width="1" class="east_new_york"/>
<path d="M 3749.2989 3307.5516 3792.4907 3313.2169 3981.5814 3467.9623 3749.2989 3307.5516 Z" fill="none" stroke="#012394" opacity="0.6" stroke-width="1" class="east_new_york"/>
<path d="M 3876.22 3365.5213 3881.3086 3361.8256 3875.2913 3363.2163 4020.0528 3245.896 4029.3337 3262.4852 4326.4183 3466.3561 3940.4607 3644.9765 3876.22 3365.5213 Z" fill="none" stroke="#012394" opacity="0.6" stroke-width="1" class="east_new_york"/>
<path d="M 3818.7614 3323.1569 3821.5377 3321.7703 3821.3117 3326.7283 3821.6584 3326.2667 3822.3524 3325.8047 3822.8101 3321.0771 3825.8167 3318.6525 3827.9304 3345.6298 3873.4488 3371.2896 3875.2167 3398.2688 3886.8336 3433.3087 3921.6459 3502.9166 3939.99 3545.6781 4094.4367 3551.5858 4085.5842 3678.8096 4101.6474 3738.6503 4099.7978 3740.8445 3818.7614 3323.1569 Z" fill="none" stroke="#012394" opacity="0.6" stroke-width="1" class="east_new_york"/>
<path d="M 3856.1186 3599.867 3843.1673 3613.7216 3830.1782 3594.3607 3831.9817 3550.9957 3863.4801 3558.3405 3856.1186 3599.867 Z" fill="none" stroke="#012394" opacity="0.6" stroke-width="1" class="east_new_york"/>
<path d="M 3846.0223 3595.0144 3842.9631 3595.7237 3802.5356 3405.0981 3802.9976 3404.1752 3806.4659 3400.2509 3850.9809 3374.9586 3905.2888 3342.9657 4007.3351 3274.7077 4010.3393 3285.2003 4020.1043 3317.4698 4028.0652 3387.9301 4036.2107 3426.1951 4050.3134 3513.6435 4023.6215 3530.3966 3963.4455 3565.7069 3930.2685 3570.5566 3893.2714 3576.8284 3846.0223 3595.0144 Z" fill="none" stroke="#012394" opacity="0.6" stroke-width="1" class="east_new_york"/>
<path d="M 4147.7655 3522.9093 4248.064 3698.0614 4090.7973 3845.9445 3726.1356 3292.8178 3772.8572 3692.2281 4094.52 3857.9368 3868.8088 3362.7627 4147.7655 3522.9093 Z" fill="none" stroke="#012394" opacity="0.6" stroke-width="1" class="east_new_york"/>
<path d="M 4132.6521 3959.406 3854.3256 3651.5384 3802.1793 3400.6578 4128.0266 3321.8392 4267.9955 3416.6363 4360.2493 3757.8587 4132.6521 3959.406 Z" fill="none" stroke="#012394" opacity="0.6" stroke-width="1" class="east_new_york"/>
<path d="M 3815.7959 3154.3807 3971.2685 3108.0857 4010.2102 3154.1446 4106.5832 3218.5697 3871.5803 3357.225 3880.9011 3408.8703 3827.241 3453.2111 3660.5649 3471.8338 3601.2329 3401.7793 3612.2626 3309.529 3730.6767 3206.1167 3815.7959 3154.3807 Z" fill="none" stroke="#012394" opacity="0.6" stroke-width="1" class="east_new_york"/>
<path d="M 3878.1154 3402.4164 4112.2986 3331.0856 4141.9843 3368.8612 4311.5571 3439.628 4324.5722 3470.0492 4179.2172 3497.9537 4147.7655 3522.9093 3946.9422 3643.123 3917.2434 3595.1813 3878.1154 3402.4164 Z" fill="none" stroke="#012394" opacity="0.6" stroke-width="1" class="east_new_york"/>
<path d="M 3277.6151 1747.6515 3293.7982 1758.2324 3274.4048 1794.1572 3326.6513 1819.4524 3261.192 1939.2158 3189.4012 1895.9633 3194.8948 1778.0813 3277.6151 1747.6515 Z" fill="none" stroke="#012394" opacity="0.6" stroke-width="1" class="east_new_york"/>
<path d="M 3831.4149 3516.4799 3810.8815 3404.2845 3891.6152 3403.3671 3983.1333 3591.4699 3919.2248 3591.5501 3855.3545 3624.8413 3831.4149 3516.4799 Z" fill="none" stroke="#012394" opacity="0.6" stroke-width="1" class="east_new_york"/>
<path d="M 3883.7078 3593.5451 3894.5156 3580.9513 3816.3143 3499.0911 3775.7996 3459.5515 3754.4562 3418.0622 3738.8138 3287.9007 3743.4023 3248.2362 3852.0248 3210.9384 3959.6204 3197.8647 4090.581 3257.631 4186.5018 3445.4976 3883.7078 3593.5451 Z" fill="none" stroke="#012394" opacity="0.6" stroke-width="1" class="east_new_york"/>
<path d="M 3885.5214 3400.5627 4106.1811 3331.2557 4296.5653 3678.7683 4107.8366 3845.1591 3950.8099 3642.0276 3885.5214 3400.5627 Z" fill="none" stroke="#012394" opacity="0.6" stroke-width="1" class="east_new_york"/>
<path d="M 4367.1623 3463.9816 4226.5146 3611.4683 3939.2268 3761.6745 3852.3392 3682.7455 3855.0867 3633.9406 3811.0927 3405.24 4073.2533 3375.5848 4088.3849 3342.7149 4367.1623 3463.9816 Z" fill="none" stroke="#012394" opacity="0.6" stroke-width="1" class="east_new_york"/>
<path d="M 2845.0753 2712.8641 2926.9491 2598.0987 2981.5295 2560.3 3048.1599 2613.7387 2966.7692 2761.7017 2845.0753 2712.8641 Z" fill="none" stroke="#012394" opacity="0.6" stroke-width="1" class="east_new_york"/>
<path d="M 3893.9603 3488.1894 3913.5972 3408.5599 3958.0537 3414.0396 4056.1456 3364.099 4109.887 3388.0072 4159.9379 3419.298 4263.7043 3450.5037 4329.767 3503.2038 4307.6394 3564.1304 4234.2275 3624.61 4253.4635 3697.4384 4090.6442 3849.0216 4026.164 3765.6016 3865.6192 3376.6138 3893.9603 3488.1894 Z" fill="none" stroke="#012394" opacity="0.6" stroke-width="1" class="east_new_york"/>
<path d="M 4178.746 3182.9576 4181.987 3183.4139 4195.0014 3218.4401 4205.2567 3265.0004 4215.5416 3330.241 4234.4395 3424.9913 4243.5655 3487.0154 4257.0683 3534.0446 4279.6273 3596.2849 4248.7334 3681.9126 4231.1669 3703.3935 4198.3109 3722.1296 4165.5034 3774.5469 4134.7447 3804.8145 4090.399 3892.3209 4070.4642 3881.5043 4010.8415 3809.1386 3956.7994 3747.3797 3938.0196 3730.5625 3916.6628 3688.8343 3890.7452 3704.7827 3877.7197 3656.3553 3860.3552 3659.1437 3818.691 3467.7501 3808.2025 3404.341 3818.8266 3381.7294 3873.2092 3364.3718 4178.746 3182.9576 Z" fill="none" stroke="#012394" opacity="0.6" stroke-width="1" class="east_new_york"/>
<path d="M 4277.4366 3597.1732 3964.0461 3632.0045 3770.2628 3695.9351 3721.7721 3446.6217 4036.0754 3264.1162 4207.2965 3291.2646 4277.4366 3597.1732 Z" fill="none" stroke="#012394" opacity="0.6" stroke-width="1" class="east_new_york"/>
<path d="M 3838.1923 3445.458 3827.7495 3431.0311 3854.0956 3451.7968 3838.1923 3445.458 Z" fill="none" stroke="#012394" opacity="0.6" stroke-width="1" class="east_new_york"/>
<path d="M 3718.8539 3417.3498 3790.181 3437.5696 3714.2218 3415.5095 4032.6664 3331.1957 4056.0886 3531.342 3760.717 3599.0496 3718.8539 3417.3498 Z" fill="none" stroke="#012394" opacity="0.6" stroke-width="1" class="east_new_york"/>
<path d="M 3799.3054 3313.0323 4321.7848 3464.5187 3943.2234 3632.0555 3877.4813 3650.5888 3799.3054 3313.0323 Z" fill="none" stroke="#012394" opacity="0.6" stroke-width="1" class="east_new_york"/>
<path d="M 3590.8573 3185.0374 3926.7957 3077.7104 4561.8009 3061.0402 4337.1283 3780.9676 4098.3091 3916.9984 3880.2394 3633.0545 3774.6881 3671.9262 3722.5739 3433.0281 3657.636 3312.2543 3590.8573 3185.0374 Z" fill="none" stroke="#012394" opacity="0.6" stroke-width="1" class="east_new_york"/>
<path d="M 4167.1527 3559.2075 4162.6244 3550.3342 4214.5903 3540.2228 4218.676 3562.1282 4174.1174 3571.5371 4167.1527 3559.2075 Z" fill="none" stroke="#012394" opacity="0.6" stroke-width="1" class="east_new_york"/>
<path d="M 3977.4316 3402.2942 3983.4679 3415.5468 3960.2057 3419.1511 3956.3662 3403.5894 3977.4316 3402.2942 Z" fill="none" stroke="#012394" opacity="0.6" stroke-width="1" class="east_new_york"/>
<path d="M 3714.5117 3704.284 3624.5697 3606.5643 3633.7438 3510.6053 3759.6259 3442.2147 3984.6107 3404.1299 4048.7433 3578.4046 3729.3423 3713.4965 3714.5117 3704.284 Z" fill="none" stroke="#012394" opacity="0.6" stroke-width="1" class="east_new_york"/>
<path d="M 3630.0342 3505.0734 3868.8099 3363.6851 3907.9177 3542.6037 3912.5944 3580.4248 3919.0958 3595.179 3946.0148 3642.2015 3912.6874 3657.0056 3886.7451 3651.5005 3839.5148 3659.8596 3767.3091 3701.4613 3611.6843 3697.9225 3505.0656 3579.9089 3499.502 3571.6097 3630.0342 3505.0734 Z" fill="none" stroke="#012394" opacity="0.6" stroke-width="1" class="east_new_york"/>
<path d="M 4131.3589 3705.6192 4327.6905 3675.7877 4424.1221 3730.9881 4643.1652 3944.6854 4428.0417 3852.7947 4239.3416 4045.0878 4102.1235 3993.601 3902.1055 4100.9393 3709.103 3853.7855 3023.434 3551.5622 3190.072 3389.1393 3416.0012 3363.1829 3560.4273 3329.8662 3682.5602 3233.8328 3830.5731 3123.0095 4060.1848 3141.1666 4315.6124 3089.1403 4597.374 3265.7051 4646.3794 3697.3529 4520.5993 3804.6384 4346.1917 3660.9936 4131.3589 3705.6192 Z" fill="none" stroke="#012394" opacity="0.6" stroke-width="1" class="east_new_york"/>
<path d="M 4121.5714 3340.2962 4214.7392 3712.877 3923.9666 3790.7924 3832.7183 3383.0975 4121.5714 3340.2962 Z" fill="none" stroke="#012394" opacity="0.6" stroke-width="1" class="east_new_york"/>
<path d="M 3895.8136 3489.1097 3895.8081 3484.4971 3893.0243 3479.8877 3880.9501 3450.3817 4196.6486 3389.0735 4242.0448 3402.8403 4300.4234 3426.7314 4421.828 3479.109 4445.0969 3544.5696 4341.4941 3621.3261 4235.1128 3709.1546 4091.7393 3857.0178 3990.5889 3729.8037 3917.2479 3598.8718 3895.8136 3489.1097 Z" fill="none" stroke="#012394" opacity="0.6" stroke-width="1" class="east_new_york"/>
<path d="M 3873.4396 3363.4491 4189.3894 3180.6361 4279.4002 3599.0532 4250.4653 3605.0963 4198.1487 3615.0955 3938.5194 3760.0909 3898.3804 3699.0065 3881.0231 3708.4852 3855.2341 3636.0824 3808.8991 3406.1851 3873.4396 3363.4491 Z" fill="none" stroke="#012394" opacity="0.6" stroke-width="1" class="east_new_york"/>
<path d="M 3726.2763 3431.1793 3754.0232 3397.9421 3761.3924 3361.0372 3783.5932 3339.7983 3799.3084 3315.7994 3869.7294 3358.1496 3886.4475 3400.5616 4119.6944 3322.7736 4240.9388 3287.5425 4307.8122 3414.7272 4305.0341 3414.7318 4327.8059 3465.4313 4158.8643 3512.7448 3945.069 3626.5172 3841.382 3672.7754 3772.8641 3698.6872 3726.2763 3431.1793 Z" fill="none" stroke="#012394" opacity="0.6" stroke-width="1" class="east_new_york"/>
<path d="M 3997.5931 3417.95 4277.2486 3412.0092 4258.7862 3448.9378 4387.2455 3834.408 3989.1183 4025.1373 3855.3594 3744.7337 3858.7233 3449.4852 3997.5931 3417.95 Z" fill="none" stroke="#012394" opacity="0.6" stroke-width="1" class="east_new_york"/>
<path d="M 3836.839 3546.4926 4026.8894 3165.4196 4273.0799 3411.0934 3836.839 3546.4926 Z" fill="none" stroke="#012394" opacity="0.6" stroke-width="1" class="east_new_york"/>
<path d="M 3620.0269 3704.3741 3625.605 3726.5152 3566.1784 3560.4843 4186.278 3266.4126 4410.6265 3428.3909 4377.383 3483.7985 3620.0269 3704.3741 Z" fill="none" stroke="#012394" opacity="0.6" stroke-width="1" class="east_new_york"/>
<path d="M 2844.6125 2712.4032 2873.2827 2575.0648 2875.1306 2552.9453 2882.993 2539.5809 2874.2029 2531.7483 2879.2839 2469.5412 3030.0988 2546.9241 3054.1729 2610.0502 3067.1556 2701.297 3045.8997 2792.1023 2844.6125 2712.4032 Z" fill="none" stroke="#012394" opacity="0.6" stroke-width="1" class="east_new_york"/>
<path d="M 3916.2806 3379.5348 3947.752 3369.3492 3940.3934 3409.0233 3916.2806 3379.5348 Z" fill="none" stroke="#012394" opacity="0.6" stroke-width="1" class="east_new_york"/>
<path d="M 3875.0769 3377.7447 4190.35 3357.2594 4217.8741 3492.3599 3948.0978 3641.2762 3875.0769 3377.7447 Z" fill="none" stroke="#012394" opacity="0.6" stroke-width="1" class="east_new_york"/>
<path d="M 4014.6391 3528.1687 4016.728 3531.9716 4016.4958 3531.5106 4016.3809 3532.2027 4014.7561 3529.0911 4015.9141 3529.3202 4014.6391 3528.1687 Z" fill="none" stroke="#012394" opacity="0.6" stroke-width="1" class="east_new_york"/>
<path d="M 3868.8132 3366.4524 3829.9538 3395.0923 3437.1141 3103.0834 3536.1546 3087.3312 3868.8132 3366.4524 Z" fill="none" stroke="#012394" opacity="0.6" stroke-width="1" class="east_new_york"/>
<path d="M 3821.4734 3471.4371 3825.8886 3485.9619 3834.2833 3538.7688 3821.4734 3471.4371 Z" fill="none" stroke="#012394" opacity="0.6" stroke-width="1" class="east_new_york"/>
<path d="M 3882.7673 3420.8601 3879.9664 3401.4917 4109.5326 3339.391 4138.2736 3364.2545 4155.4756 3412.6574 4172.7453 3505.3438 3949.728 3648.6556 3916.3149 3593.3371 3882.7673 3420.8601 Z" fill="none" stroke="#012394" opacity="0.6" stroke-width="1" class="east_new_york"/>
<path d="M 3871.5954 3370.1388 4395.4564 3223.6492 4461.6454 3476.2708 3961.8021 3674.4761 3871.5954 3370.1388 Z" fill="none" stroke="#012394" opacity="0.6" stroke-width="1" class="east_new_york"/>
<path d="M 3730.7671 3294.6577 3939.6284 2975.3429 4478.2847 2948.7031 4680.5846 3206.5134 4772.1701 3608.5154 4529.8704 3808.3126 3831.2989 3766.9082 3710.5629 3460.715 3730.7671 3294.6577 Z" fill="none" stroke="#012394" opacity="0.6" stroke-width="1" class="east_new_york"/>
<path d="M 3258.7861 3751.6927 3844.5331 3187.5485 3852.8505 3174.6276 3850.0467 3151.5754 3856.5186 3144.1903 3887.0505 3128.4773 3901.8626 3128.4596 4014.8233 3142.1498 4084.3449 3205.6892 4091.8422 3270.2392 4065.9856 3320.0819 4012.2991 3333.9899 3969.6885 3321.1319 3546.8521 3709.9739 3607.9765 3695.1576 3653.3667 3696.0388 3709.8884 3712.5934 3744.2018 3750.392 3772.0262 3781.7381 3762.8147 3831.5813 3738.7461 3850.0639 3660.9406 3868.5987 3642.4058 3863.0786 3675.7768 3881.5052 3701.7497 3912.8595 3692.5044 3933.1736 3616.5542 3962.7803 3536.8597 3951.7728 3496.0809 3938.8835 3394.1529 3927.8812 3336.6974 3911.3046 3284.7999 3889.1841 3266.2591 3868.8901 3229.1789 3826.4564 3193.9524 3778.4855 3258.7861 3751.6927 Z" fill="none" stroke="#012394" opacity="0.6" stroke-width="1" class="east_new_york"/>
<path d="M 3873.4063 3335.0854 4316.1799 3435.008 3993.7347 4012.2086 3990.9465 4005.7509 3581.1366 3721.9408 3873.4063 3335.0854 Z" fill="none" stroke="#012394" opacity="0.6" stroke-width="1" class="east_new_york"/>
<path d="M 3746.8396 4507.3758 3223.5854 3754.4788 4371.4314 3251.3591 4509.3325 3723.4526 3839.1312 4137.9387 3750.525 4485.2077 3746.8396 4507.3758 Z" fill="none" stroke="#012394" opacity="0.6" stroke-width="1" class="east_new_york"/>
<path d="M 3805.8864 3403.4211 4082.9931 3232.2065 4110.9186 3337.3136 4119.0283 3342.6058 4136.6568 3366.7935 4287.4725 3435.2853 4305.4494 3527.509 4243.4122 3685.1504 4236.48 3694.8499 4201.3236 3723.5092 4205.0458 3734.5767 4104.1878 3815.471 4070.0035 3883.3508 3937.79 3732.1776 3898.791 3655.1769 3885.8199 3652.4243 3857.113 3658.9168 3805.8864 3403.4211 Z" fill="none" stroke="#012394" opacity="0.6" stroke-width="1" class="east_new_york"/>
<path d="M 3853.4068 3657.9983 3805.8956 3411.7232 4041.8413 3268.4634 4242.496 3691.611 4066.75 3875.5105 3853.4068 3657.9983 Z" fill="none" stroke="#012394" opacity="0.6" stroke-width="1" class="east_new_york"/>
<path d="M 4523.0419 3125.6639 4746.3208 3649.1675 4594.8414 3870.9447 4350.3051 3904.6114 4013.2815 4078.6443 3883.2876 3860.9788 3764.3751 3554.76 3786.0414 3034.5335 4285.9716 3078.1228 4668.0018 3394.6992 4523.0419 3125.6639 Z" fill="none" stroke="#012394" opacity="0.6" stroke-width="1" class="east_new_york"/>
<path d="M 4079.4321 3842.4054 4062.6434 3819.8978 3936.4289 3642.8907 3874.9997 3370.3913 4115.5741 3333.3315 4321.5578 3453.805 4079.4321 3842.4054 Z" fill="none" stroke="#012394" opacity="0.6" stroke-width="1" class="east_new_york"/>
<path d="M 3806.5817 3404.1122 4189.0417 3180.2907 4253.4191 3422.1942 4300.1265 3671.6806 4091.573 3903.6252 3939.9124 3762.8576 3854.3307 3655.9212 3806.5817 3404.1122 Z" fill="none" stroke="#012394" opacity="0.6" stroke-width="1" class="east_new_york"/>
<path d="M 3881.7622 3391.5051 3888.1286 3358.0061 3906.6416 3352.4495 3947.3499 3324.7278 3988.0535 3295.1604 4026.92 3278.5073 4036.1865 3284.0288 4052.883 3306.1426 4078.827 3319.02 4114.6658 3341.7283 4170.2841 3382.2334 4231.4376 3406.1241 4307.4232 3437.3672 4330.2038 3466.1228 4282.0738 3482.8067 4226.519 3490.2745 4176.5447 3514.3366 4145.0831 3532.8345 4171.0702 3569.7 4204.4973 3625.0082 4232.3791 3685.8633 4193.5664 3746.8246 4151.0213 3793.0283 4104.7976 3861.3868 4050.9918 3809.7807 3987.8827 3723.1208 3924.749 3606.9394 3898.6975 3509.1752 3891.2093 3442.7626 3881.7622 3391.5051 Z" fill="none" stroke="#012394" opacity="0.6" stroke-width="1" class="east_new_york"/>
<path d="M 3295.9423 3569.4854 3300.0048 3481.3317 3628.2742 3504.6691 3870.9702 3366.044 3767.3739 3675.2373 3622.3091 3728.6959 3309.4224 3753.5381 3339.2774 3750.4384 3325.7814 3564.8828 3324.4498 3568.3711 3295.9423 3569.4854 Z" fill="none" stroke="#012394" opacity="0.6" stroke-width="1" class="east_new_york"/>
<path d="M 3428.7255 3021.9427 4208.9716 2969.4375 4176.3176 3416.7776 3267.8472 3370.6526 3428.7255 3021.9427 Z" fill="none" stroke="#012394" opacity="0.6" stroke-width="1" class="east_new_york"/>
<path d="M 3920.2605 3032.5348 3934.1546 3039.8945 4227.1713 3365.9661 3688.3711 3495.7928 3920.2605 3032.5348 Z" fill="none" stroke="#012394" opacity="0.6" stroke-width="1" class="east_new_york"/></svg>