<?xml version="1.0"?><svg xmlns="http://www.w3.org/2000/svg" version="1.2" baseProfile="tiny" width="6000" height="5918" viewBox="0 0 6000 5918" stroke-linecap="round" stroke-linejoin="round"><path d="M 4126.4007 2245.4925 4221.3165 2619.4849 3895.7004 2682.6079 3856.3748 2282.6971 4126.4007 2245.4925 Z" fill="none" stroke="#FBC20F" opacity="0.6" stroke-width="1" class="elmhurst"/>
<path d="M 4171.039 2359.3048 4225.0126 2568.4132 4007.688 2644.3019 3977.0626 2573.3721 3957.5866 2536.5317 3893.7009 2496.0601 3891.7858 2441.6911 3907.4754 2411.2625 3887.9923 2363.3696 3937.0531 2391.8752 4171.039 2359.3048 Z" fill="none" stroke="#FBC20F" opacity="0.6" stroke-width="1" class="elmhurst"/>
<path d="M 3982.0619 2623.5973 3959.0939 2508.8818 3938.2069 2451.3101 4008.6417 2430.7927 4180.6664 2404.5947 4126.9368 2565.333 4051.4732 2635.0257 3982.0619 2623.5973 Z" fill="none" stroke="#FBC20F" opacity="0.6" stroke-width="1" class="elmhurst"/>
<path d="M 4173.8113 2357.4578 4192.4562 2453.2644 4231.4905 2569.3248 4192.6568 2585.974 3890.8991 2473.9459 3885.2588 2398.3884 3877.8476 2389.1824 4173.8113 2357.4578 Z" fill="none" stroke="#FBC20F" opacity="0.6" stroke-width="1" class="elmhurst"/>
<path d="M 4020.5501 2575.1586 3968.237 2545.0431 3965.4518 2537.4433 3948.5144 2495.3018 3939.4671 2473.426 3928.7971 2448.0969 3941.7432 2443.934 3953.5348 2441.385 3949.1055 2413.2846 3959.2776 2410.5074 3968.7601 2411.0712 3965.2613 2387.578 4194.0821 2457.8696 4193.1824 2474.6892 4199.4626 2498.1795 4207.1362 2525.1243 4218.0501 2553.2169 4175.7483 2570.5617 4167.6582 2574.2604 4165.1238 2580.9461 4156.3617 2599.6228 4108.9687 2617.6642 4020.5501 2575.1586 Z" fill="none" stroke="#FBC20F" opacity="0.6" stroke-width="1" class="elmhurst"/>
<path d="M 4133.4063 2561.1772 4083.5071 2605.4878 4003.0592 2642.4645 3943.8205 2625.9496 3825.3504 2593.831 3818.809 2535.7751 3822.4333 2467.5742 3921.3772 2432.4402 3977.7748 2407.4889 4082.3107 2411.0349 4143.4732 2485.5913 4133.4063 2561.1772 Z" fill="none" stroke="#FBC20F" opacity="0.6" stroke-width="1" class="elmhurst"/>
<path d="M 4172.4245 2357.9206 4182.1688 2379.0994 4192.8992 2440.3623 4192.9264 2458.3321 4192.0243 2473.539 4224.5535 2570.718 4054.8774 2644.2386 4035.4502 2647.0301 3981.3245 2649.8665 3935.5285 2654.533 3893.9283 2686.3837 3885.4506 2560.1214 3889.0204 2449.9881 3882.482 2397.0094 4172.4245 2357.9206 Z" fill="none" stroke="#FBC20F" opacity="0.6" stroke-width="1" class="elmhurst"/>
<path d="M 4034.1954 2387.3948 4137.2899 2371.1725 4138.229 2380.8464 4144.7573 2417.2354 4120.9892 2427.5598 4121.019 2448.2939 4087.3164 2493.4976 4072.0338 2480.6169 4055.3533 2459.905 4036.3633 2441.0394 4017.5291 2426.4715 4032.3018 2405.2574 4036.0604 2398.45 4034.1954 2387.3948 Z" fill="none" stroke="#FBC20F" opacity="0.6" stroke-width="1" class="elmhurst"/>
<path d="M 3964.3663 2411.192 3969.2219 2410.4947 4030.9254 2377.7017 4092.4293 2370.476 4163.083 2452.3868 4082.4469 2508.7178 3964.3663 2411.192 Z" fill="none" stroke="#FBC20F" opacity="0.6" stroke-width="1" class="elmhurst"/>
<path d="M 3859.4516 2479.5122 3883.4742 2453.6808 3858.3142 2296.1413 4128.3386 2255.2503 4170.1072 2354.699 4192.4701 2462.4797 4229.6601 2582.2307 4183.4073 2587.8313 4080.6159 2522.5442 3859.4516 2479.5122 Z" fill="none" stroke="#FBC20F" opacity="0.6" stroke-width="1" class="elmhurst"/>
<path d="M 3897.1838 2314.5233 4136.6948 2277.3506 4221.2876 2552.7511 3869.8812 2696.0906 3897.1838 2314.5233 Z" fill="none" stroke="#FBC20F" opacity="0.6" stroke-width="1" class="elmhurst"/>
<path d="M 3958.0405 2407.3611 4119.1289 2389.7896 4187.985 2452.8117 4224.5531 2569.7972 4107.8955 2621.2773 3997.3706 2654.9165 3936.2549 2494.1651 3912.7543 2441.359 3958.0405 2407.3611 Z" fill="none" stroke="#FBC20F" opacity="0.6" stroke-width="1" class="elmhurst"/>
<path d="M 4173.8113 2357.4578 4224.0916 2571.1795 3914.2927 2692.3506 3893.0046 2687.7674 3885.2599 2399.3099 3892.6569 2396.5366 4173.8113 2357.4578 Z" fill="none" stroke="#FBC20F" opacity="0.6" stroke-width="1" class="elmhurst"/>
<path d="M 4171.4995 2357.922 4181.7046 2377.9483 4193.3621 2440.592 4193.8504 2457.6396 4192.9497 2473.768 4224.5528 2570.2572 4188.4953 2587.3628 4113.5079 2556.5976 4086.1791 2531.2917 4088.4727 2517.4645 4080.5793 2496.2791 4042.595 2456.7044 4005.0965 2432.334 3934.7417 2392.7995 4171.4995 2357.922 Z" fill="none" stroke="#FBC20F" opacity="0.6" stroke-width="1" class="elmhurst"/>
<path d="M 4032.312 2377.0087 4192.4617 2456.9505 4191.0957 2471.2365 4218.9732 2551.833 4166.2707 2574.4928 3951.0577 2494.6074 4032.312 2377.0087 Z" fill="none" stroke="#FBC20F" opacity="0.6" stroke-width="1" class="elmhurst"/>
<path d="M 4182.1336 2355.6025 4291.2493 2334.2396 4358.168 2523.9601 4187.104 2585.0607 3976.9715 2502.4079 4059.2651 2470.044 4009.2581 2431.407 4003.7052 2429.5712 4032.3009 2368.7157 4182.1336 2355.6025 Z" fill="none" stroke="#FBC20F" opacity="0.6" stroke-width="1" class="elmhurst"/>
<path d="M 3933.7059 2394.899 4023.5192 2400.2733 4082.7895 2448.5714 4092.5463 2479.4295 4072.6894 2503.418 4029.6739 2506.2413 3938.9831 2485.1622 3889.4701 2469.556 3908.2994 2433.0728 3917.515 2404.2648 3925.8209 2388.3591 3933.7059 2394.899 Z" fill="none" stroke="#FBC20F" opacity="0.6" stroke-width="1" class="elmhurst"/>
<path d="M 3931.6964 2548.545 3900.3928 2675.7758 3705.1113 2635.4343 3707.774 2522.0683 3931.6964 2548.545 Z" fill="none" stroke="#FBC20F" opacity="0.6" stroke-width="1" class="elmhurst"/>
<path d="M 3730.6788 2302.7301 4126.9419 2248.8029 4178.4563 2370.8118 4192.9006 2441.2839 4192.9257 2457.8713 4251.9379 2628.2799 4084.8982 2607.79 3898.8024 2507.1129 3806.1687 2399.4003 3755.2382 2348.7751 3739.5043 2340.0379 3730.6788 2302.7301 Z" fill="none" stroke="#FBC20F" opacity="0.6" stroke-width="1" class="elmhurst"/>
<path d="M 4031.6201 2378.3918 4141.8638 2333.5478 4165.1119 2416.9055 4064.1762 2509.4343 3950.3329 2469.9566 4031.6201 2378.3918 Z" fill="none" stroke="#FBC20F" opacity="0.6" stroke-width="1" class="elmhurst"/>
<path d="M 4224.0888 2569.3362 3990.0765 2620.3605 3962.0244 2388.158 4171.0384 2358.8441 4224.0888 2569.3362 Z" fill="none" stroke="#FBC20F" opacity="0.6" stroke-width="1" class="elmhurst"/>
<path d="M 4171.0308 2353.7762 4225.9378 2568.4117 3891.1628 2695.1437 3883.4087 2398.3906 4171.0308 2353.7762 Z" fill="none" stroke="#FBC20F" opacity="0.6" stroke-width="1" class="elmhurst"/>
<path d="M 4115.9036 2614.4284 4016.2059 2438.7699 4013.892 2437.8515 4032.8524 2435.0616 4044.8241 2394.9605 4043.8972 2393.5795 4034.6307 2381.6129 4159.9349 2356.557 4162.7031 2351.9457 4184.9501 2383.2418 4188.6586 2388.765 4196.8649 2462.8187 4193.0417 2458.1016 4227.1048 2575.2071 4225.0149 2569.9108 4181.5658 2593.8249 4178.3232 2590.9495 4130.3561 2611.2969 4128.9698 2612.3358 4128.5046 2610.6083 4121.5744 2616.9549 4120.5285 2613.5001 4121.9157 2613.0372 4117.0595 2613.9659 4117.1741 2613.2745 4115.9036 2614.4284 Z" fill="none" stroke="#FBC20F" opacity="0.6" stroke-width="1" class="elmhurst"/>
<path d="M 4172.8877 2358.3806 4182.6272 2376.3343 4184.0417 2394.3008 4194.291 2443.1248 4193.8884 2482.7517 4227.7882 2568.4089 4110.8202 2618.3528 4020.5513 2576.0802 3991.9294 2622.2015 3926.4821 2446.2567 4005.0953 2431.4124 3931.5024 2391.4213 4172.8877 2358.3806 Z" fill="none" stroke="#FBC20F" opacity="0.6" stroke-width="1" class="elmhurst"/>
<path d="M 3886.8415 2367.9782 4187.1082 2587.8257 3888.3243 2642.6079 3887.6741 2484.778 3886.8415 2367.9782 Z" fill="none" stroke="#FBC20F" opacity="0.6" stroke-width="1" class="elmhurst"/>
<path d="M 3868.6382 2424.2097 3971.2536 2371.56 4133.1299 2370.4179 4173.1034 2503.0575 4182.4807 2586.911 4033.5105 2580.6712 3985.4109 2589.9512 3909.5466 2593.7328 3852.1503 2566.1509 3855.7809 2505.3204 3868.6382 2424.2097 Z" fill="none" stroke="#FBC20F" opacity="0.6" stroke-width="1" class="elmhurst"/>
<path d="M 3934.7371 2389.1136 4168.2675 2361.6126 4225.9428 2571.6375 4108.5058 2617.4344 4008.1537 2646.6055 3934.7371 2389.1136 Z" fill="none" stroke="#FBC20F" opacity="0.6" stroke-width="1" class="elmhurst"/>
<path d="M 3693.2792 2835.4776 3559.9805 2798.7238 3596.7609 2529.5454 3885.3091 2440.7773 4137.0656 2532.6016 4122.5436 2728.0238 3963.5258 2842.5487 3693.2792 2835.4776 Z" fill="none" stroke="#FBC20F" opacity="0.6" stroke-width="1" class="elmhurst"/>
<path d="M 4163.5249 2438.4481 4167.2247 2438.097 4167.2287 2440.7464 4163.9875 2438.4474 4163.5249 2438.4481 Z" fill="none" stroke="#FBC20F" opacity="0.6" stroke-width="1" class="elmhurst"/>
<path d="M 4173.8044 2352.8506 4224.0931 2572.1012 4040.9944 2641.4923 4010.4031 2598.2135 4093.5785 2529.8989 4093.5358 2499.4864 3923.172 2387.285 4173.8044 2352.8506 Z" fill="none" stroke="#FBC20F" opacity="0.6" stroke-width="1" class="elmhurst"/>
<path d="M 4194.3175 2460.6339 4240.7858 2596.96 4244.4997 2605.2493 3979.9461 2657.2421 3954.7716 2505.2009 4198.8829 2421.0016 4174.8505 2433.9388 4194.3175 2460.6339 Z" fill="none" stroke="#FBC20F" opacity="0.6" stroke-width="1" class="elmhurst"/>
<path d="M 3932.8876 2389.5767 4252.9831 2410.7814 4201.4653 2598.4032 3901.5862 2514.0215 3932.8876 2389.5767 Z" fill="none" stroke="#FBC20F" opacity="0.6" stroke-width="1" class="elmhurst"/>
<path d="M 3976.8125 2413.7535 4017.9653 2411.4699 4052.9 2397.1638 4116.1277 2422.4984 4124.9435 2569.5339 3962.1703 2539.7285 3889.5445 2484.6302 3976.8125 2413.7535 Z" fill="none" stroke="#FBC20F" opacity="0.6" stroke-width="1" class="elmhurst"/>
<path d="M 4022.4079 2580.686 3886.2976 2494.2257 3780.631 2307.2847 3991.6733 2424.9794 4095.203 2369.5506 4183.3907 2576.7714 4101.1024 2616.5232 4022.4079 2580.686 Z" fill="none" stroke="#FBC20F" opacity="0.6" stroke-width="1" class="elmhurst"/>
<path d="M 3936.127 2390.9549 4170.1127 2358.3848 4205.4736 2496.5576 4087.101 2528.9864 3889.0577 2481.3205 3882.4837 2398.3917 3936.127 2390.9549 Z" fill="none" stroke="#FBC20F" opacity="0.6" stroke-width="1" class="elmhurst"/>
<path d="M 4116.4322 2251.9653 4134.0159 2259.3107 4160.8981 2299.8114 4208.2801 2437.0363 4187.0296 2454.5775 4115.784 2445.4668 4072.2998 2441.8419 4031.4972 2368.1786 4017.49 2268.686 4116.4322 2251.9653 Z" fill="none" stroke="#FBC20F" opacity="0.6" stroke-width="1" class="elmhurst"/>
<path d="M 3865.9446 2494.2497 3939.0349 2497.848 4180.6288 2585.9921 4066.9023 2641.457 3974.4108 2670.1535 3930.9509 2694.1737 3801.3974 2687.8724 3760.6569 2663.029 3736.5801 2644.6196 3626.3983 2564.5405 3768.8543 2540.4375 3865.9446 2494.2497 Z" fill="none" stroke="#FBC20F" opacity="0.6" stroke-width="1" class="elmhurst"/>
<path d="M 3968.643 2409.9195 4013.2688 2403.7568 4016.9714 2405.5948 4142.5488 2327.5576 4155.4889 2321.0888 4189.6308 2420.0941 4057.649 2472.1197 3966.9084 2409.8066 3968.643 2409.9195 Z" fill="none" stroke="#FBC20F" opacity="0.6" stroke-width="1" class="elmhurst"/>
<path d="M 3983.1516 2272.9543 4164.5285 2335.3573 4196.9349 2356.5016 4186.7863 2374.0244 4152.6473 2433.0502 4208.0124 2341.7418 4168.2106 2323.3735 4152.5078 2338.1393 4131.2186 2328.0348 4103.5817 2407.319 4132.3216 2451.0495 4181.7713 2422.4096 4207.2394 2441.2621 4206.3523 2466.1448 4216.5851 2502.9917 4244.4448 2570.2262 4264.8361 2593.2355 4270.3992 2600.6 4274.1149 2609.8109 4248.2166 2615.382 4150.1829 2645.0254 4053.9433 2637.7879 3955.864 2637.9166 3913.2139 2566.0787 3901.9894 2464.7172 3894.4563 2354.1475 3870.3395 2297.0487 4212.4947 2248.6756 4068.2263 2259.9418 3983.1516 2272.9543 Z" fill="none" stroke="#FBC20F" opacity="0.6" stroke-width="1" class="elmhurst"/>
<path d="M 3790.5823 2101.8261 4329.0391 2253.0965 4630.2256 3022.1793 3752.4871 2814.2141 3785.9625 2105.5159 3790.5823 2101.8261 Z" fill="none" stroke="#FBC20F" opacity="0.6" stroke-width="1" class="elmhurst"/>
<path d="M 4174.7349 2356.535 4242.6766 2622.7643 3899.4742 2681.3074 3882.4815 2396.5487 4174.7349 2356.535 Z" fill="none" stroke="#FBC20F" opacity="0.6" stroke-width="1" class="elmhurst"/>
<path d="M 3884.3392 2402.9969 4180.2849 2356.5267 4239.8058 2561.9387 3994.752 2658.1446 3897.471 2554.1164 3884.3392 2402.9969 Z" fill="none" stroke="#FBC20F" opacity="0.6" stroke-width="1" class="elmhurst"/>
<path d="M 3926.0218 2448.1003 3883.3749 2369.8252 3899.9177 2280.4289 4129.2435 2241.4289 4197.9424 2410.8665 4222.2156 2554.5929 4185.2577 2587.8285 4081.6939 2632.2194 4059.5202 2656.2147 3997.5147 2648.0021 3967.767 2539.2836 3926.0218 2448.1003 Z" fill="none" stroke="#FBC20F" opacity="0.6" stroke-width="1" class="elmhurst"/>
<path d="M 4003.3426 2285.6798 4069.0026 2278.2205 4118.0288 2281.8369 4136.6438 2361.9723 4133.0305 2421.8733 3962.9518 2527.1614 3883.2663 2424.9666 4003.3426 2285.6798 Z" fill="none" stroke="#FBC20F" opacity="0.6" stroke-width="1" class="elmhurst"/>
<path d="M 3977.7618 2397.3526 4165.6202 2447.7754 4112.3422 2712.3679 3838.4429 2716.406 3977.7618 2397.3526 Z" fill="none" stroke="#FBC20F" opacity="0.6" stroke-width="1" class="elmhurst"/>
<path d="M 4125.5532 2247.8836 4171.0404 2360.2263 4179.4 2383.2501 4190.5559 2420.0927 4187.8529 2468.016 4221.3103 2567.4972 4167.6839 2591.5414 4125.1471 2608.1938 4069.6565 2625.7842 4016.0192 2647.056 3982.7291 2662.7689 3956.8428 2680.315 3920.7644 2687.7339 3858.7623 2683.1989 3776.3998 2674.9949 3716.2118 2632.658 3723.571 2590.2531 3781.671 2414.1708 3752.9884 2408.6723 3734.4685 2390.2619 3733.517 2364.4621 3737.1904 2338.6582 3727.9059 2304.5757 3763.0471 2298.0896 4125.5532 2247.8836 Z" fill="none" stroke="#FBC20F" opacity="0.6" stroke-width="1" class="elmhurst"/>
<path d="M 4190.5559 2420.0927 4230.5624 2567.4829 3995.6509 2637.8656 3947.3739 2507.9749 4190.5559 2420.0927 Z" fill="none" stroke="#FBC20F" opacity="0.6" stroke-width="1" class="elmhurst"/>
<path d="M 3769.1972 2293.8318 4264.4659 2244.7784 4418.769 2685.019 3835.9575 2811.2266 3769.1972 2293.8318 Z" fill="none" stroke="#FBC20F" opacity="0.6" stroke-width="1" class="elmhurst"/>
<path d="M 4010.1505 2640.3048 3969.5731 2504.5683 3945.4514 2450.227 3928.1222 2401.1019 4204.936 2346.0468 4225.9293 2562.8819 4067.2084 2639.3053 4010.1505 2640.3048 Z" fill="none" stroke="#FBC20F" opacity="0.6" stroke-width="1" class="elmhurst"/>
<path d="M 3917.5723 2346.7481 4124.6363 2253.4129 4248.1905 2598.7918 4040.0853 2653.4759 3858.519 2473.0624 3917.5723 2346.7481 Z" fill="none" stroke="#FBC20F" opacity="0.6" stroke-width="1" class="elmhurst"/>
<path d="M 4041.5971 2402.7974 4182.1764 2384.1674 4225.0055 2563.805 4103.8743 2613.7543 3748.5493 2587.4625 4041.5971 2402.7974 Z" fill="none" stroke="#FBC20F" opacity="0.6" stroke-width="1" class="elmhurst"/>
<path d="M 4174.2731 2356.9964 4096.354 2529.895 4084.33 2532.2159 4036.2024 2518.4579 3972.3429 2500.1099 3894.1392 2475.7851 3900.5741 2441.6806 3932.4257 2390.038 4174.2731 2356.9964 Z" fill="none" stroke="#FBC20F" opacity="0.6" stroke-width="1" class="elmhurst"/>
<path d="M 4245.5954 2714.012 4175.277 2719.6504 4127.1026 2681.0066 4171.3354 2558.3566 4182.3866 2524.2402 4329.5688 2572.854 4245.5954 2714.012 Z" fill="none" stroke="#FBC20F" opacity="0.6" stroke-width="1" class="elmhurst"/>
<path d="M 4103.097 2391.6545 4036.9722 2403.034 4036.5103 2403.4954 4038.0974 2379.9957 4097.5175 2370.9295 4103.097 2391.6545 Z" fill="none" stroke="#FBC20F" opacity="0.6" stroke-width="1" class="elmhurst"/>
<path d="M 3904.6802 2394.6792 4168.2654 2360.2304 4221.3217 2574.8704 4145.4824 2594.3391 3998.4328 2642.4706 3904.6802 2394.6792 Z" fill="none" stroke="#FBC20F" opacity="0.6" stroke-width="1" class="elmhurst"/>
<path d="M 4004.8631 2430.7216 3995.0493 2353.5611 4160.579 2322.9241 4191.4761 2416.866 4060.6465 2465.4344 4013.9572 2487.1538 4004.8631 2430.7216 Z" fill="none" stroke="#FBC20F" opacity="0.6" stroke-width="1" class="elmhurst"/>
<path d="M 4002.0882 2430.9556 4031.3885 2378.1618 4140.7499 2362.5745 4151.7151 2428.2136 4127.9298 2452.6685 4098.5866 2472.9844 4071.527 2473.0222 4003.4776 2432.3361 4002.0882 2430.9556 Z" fill="none" stroke="#FBC20F" opacity="0.6" stroke-width="1" class="elmhurst"/>
<path d="M 4045.3666 2453.936 4190.5566 2420.5534 4146.8352 2570.3741 4045.3666 2453.936 Z" fill="none" stroke="#FBC20F" opacity="0.6" stroke-width="1" class="elmhurst"/>
<path d="M 4051.4682 2179.3506 4168.7109 2193.233 4243.2687 2262.2177 4241.5225 2402.3908 4115.3015 2435.9841 4051.9636 2288.4111 4044.4287 2188.4577 4053.203 2179.924 4051.4682 2179.3506 Z" fill="none" stroke="#FBC20F" opacity="0.6" stroke-width="1" class="elmhurst"/>
<path d="M 3768.0211 2627.0743 3808.6259 2530.2567 3883.4873 2464.7392 3952.7938 2403.8347 4035.1007 2387.1411 4135.905 2370.4138 4170.1442 2379.5781 4183.125 2399.8311 4186.9042 2452.3512 4199.9115 2489.1935 4206.4676 2541.7143 4167.6674 2580.4815 4089.9851 2606.4004 4008.6096 2641.5355 3921.666 2668.376 3836.5347 2665.7112 3768.0211 2627.0743 Z" fill="none" stroke="#FBC20F" opacity="0.6" stroke-width="1" class="elmhurst"/>
<path d="M 4176.5877 2358.3751 4194.5114 2588.7362 3998.4532 2658.1398 3902.8324 2396.5244 3907.4565 2395.5974 4176.5877 2358.3751 Z" fill="none" stroke="#FBC20F" opacity="0.6" stroke-width="1" class="elmhurst"/>
<path d="M 3757.6572 2450.1353 3778.0113 2451.9567 3789.0864 2427.9853 3803.8632 2405.8533 3814.9454 2389.2544 3813.1066 2399.3927 3815.8735 2392.0178 3826.0354 2380.0274 3825.1119 2381.4106 3829.2678 2375.4164 3832.4991 2369.8841 3827.6387 2366.2038 3830.2947 2363.2061 3824.9698 2357.7986 3827.3959 2355.953 3834.4258 2335.4433 3840.3085 2323.1127 3771.2597 2301.536 3820.8498 2292.3833 3851.4833 2287.972 3877.8127 2359.5807 3778.0119 2452.5327 3757.6572 2450.1353 Z" fill="none" stroke="#FBC20F" opacity="0.6" stroke-width="1" class="elmhurst"/>
<path d="M 4087.4352 2602.4868 4020.3114 2569.629 4012.211 2565.9532 3985.5899 2549.3986 3975.6373 2544.112 3975.6213 2531.6703 3968.2138 2526.8413 3951.544 2513.4992 3967.728 2508.6404 3979.5192 2505.1694 3985.0725 2507.0054 3996.6396 2509.064 3998.4814 2502.6105 4023.4502 2494.9745 4036.3885 2484.82 4056.2642 2474.1951 4065.74 2469.344 4081.2266 2462.8717 4089.549 2460.3258 4101.1079 2456.8538 4111.9896 2465.1322 4126.3138 2454.7443 4141.5783 2454.9526 4142.977 2462.5532 4147.3932 2477.5219 4149.4879 2486.5041 4152.0468 2496.6376 4155.2974 2505.1574 4160.1704 2515.9789 4161.3415 2525.8843 4165.5211 2536.9375 4169.9387 2552.368 4176.6756 2571.9428 4163.7312 2577.7224 4159.3483 2585.7934 4151.9573 2593.1776 4142.478 2596.1868 4134.1656 2606.3374 4117.7544 2614.6562 4108.0392 2614.67 4097.8527 2608.4631 4087.4352 2602.4868 Z" fill="none" stroke="#FBC20F" opacity="0.6" stroke-width="1" class="elmhurst"/>
<path d="M 3908.9451 2395.0905 4190.0984 2356.007 4210.5923 2449.9672 4238.5089 2554.9842 4260.8041 2612.092 4193.6698 2606.1276 4152.9481 2598.8149 4082.694 2644.7735 4030.8707 2639.3141 4016.0712 2643.0207 3931.009 2694.747 3930.9885 2678.1554 3910.5399 2602.5999 3884.5654 2545.4888 3908.5176 2460.6748 3908.9451 2395.0905 Z" fill="none" stroke="#FBC20F" opacity="0.6" stroke-width="1" class="elmhurst"/>
<path d="M 3931.4984 2388.1962 4127.5718 2364.8972 4096.2112 2428.5239 4123.9805 2440.464 4123.0687 2449.6806 4192.4617 2456.9505 4227.7925 2571.1738 4049.3232 2642.4027 3982.7113 2648.943 3955.6909 2500.5918 3931.4984 2388.1962 Z" fill="none" stroke="#FBC20F" opacity="0.6" stroke-width="1" class="elmhurst"/>
<path d="M 4003.7083 2431.875 4031.8489 2376.5486 4172.8911 2360.6842 4193.8445 2453.723 4079.1935 2497.6634 4043.1411 2518.4485 3950.6003 2498.7551 3926.9463 2447.6384 4003.7083 2431.875 Z" fill="none" stroke="#FBC20F" opacity="0.6" stroke-width="1" class="elmhurst"/>
<path d="M 4176.9169 2578.6244 3868.6963 2473.9721 3889.0226 2451.8312 3909.3255 2411.2603 4129.3739 2331.7231 4197.0844 2455.1004 4176.9169 2578.6244 Z" fill="none" stroke="#FBC20F" opacity="0.6" stroke-width="1" class="elmhurst"/>
<path d="M 4141.444 2362.8038 4065.3345 2510.8151 4003.2448 2431.1845 4141.444 2362.8038 Z" fill="none" stroke="#FBC20F" opacity="0.6" stroke-width="1" class="elmhurst"/>
<path d="M 4191.538 2457.8734 4231.9631 2575.7756 4041.0019 2647.0226 3948.34 2540.6906 4034.6264 2378.3878 4191.538 2457.8734 Z" fill="none" stroke="#FBC20F" opacity="0.6" stroke-width="1" class="elmhurst"/>
<path d="M 4178.4322 2354.6866 4220.378 2562.8905 4181.5471 2581.3824 4086.1733 2527.1445 4081.4922 2487.5229 4038.8915 2454.4055 4001.8491 2424.9661 4031.3857 2376.0885 4178.4322 2354.6866 Z" fill="none" stroke="#FBC20F" opacity="0.6" stroke-width="1" class="elmhurst"/>
<path d="M 4170.8234 2356.1087 4214.9029 2549.1795 4081.6435 2526.3343 4068.4775 2371.5358 4170.8234 2356.1087 Z" fill="none" stroke="#FBC20F" opacity="0.6" stroke-width="1" class="elmhurst"/>
<path d="M 4169.1781 2351.9361 4174.7583 2372.1996 4186.8251 2399.8255 4191.5088 2438.5214 4191.5464 2463.4027 4201.7772 2499.328 4212.9269 2530.6451 4221.2933 2556.4376 4225.9478 2574.8632 4190.8133 2590.5851 4138.9588 2562.0908 4109.3405 2553.8387 4087.0998 2528.0648 4063.0479 2529.9414 4026.9478 2516.1663 3970.4885 2496.8868 3910.3377 2483.1381 3867.7723 2474.8947 3861.7515 2468.4509 3883.9204 2439.8574 3901.4747 2421.4062 3895.8984 2399.7579 3894.507 2396.5344 3996.4752 2383.0456 4161.7849 2356.5542 4169.6474 2356.5426 4169.1781 2351.9361 Z" fill="none" stroke="#FBC20F" opacity="0.6" stroke-width="1" class="elmhurst"/>
<path d="M 3898.6691 2396.0687 3933.8144 2390.9577 4172.8884 2358.8414 4181.7022 2376.3357 4193.3889 2458.3314 4191.0936 2469.8542 4225.9392 2569.3334 4110.8196 2617.892 4022.4005 2575.1561 3952.2714 2540.2248 3918.2477 2521.1436 3875.4167 2485.2533 3858.0607 2476.7491 3883.469 2449.3035 3893.3992 2437.0816 3903.552 2417.9481 3898.6691 2396.0687 Z" fill="none" stroke="#FBC20F" opacity="0.6" stroke-width="1" class="elmhurst"/>
<path d="M 3980.6603 2493.1874 3932.5259 2471.1307 3994.5445 2498.6989 4012.1319 2506.0485 4042.6767 2517.0667 4062.1101 2520.7266 4041.8014 2553.9324 4019.6346 2582.533 4003.9337 2603.7521 3993.7632 2609.2955 3985.4443 2615.7581 3973.4207 2619.4603 3963.2487 2624.0817 3957.696 2623.167 3938.08 2473.8885 3980.6603 2493.1874 Z" fill="none" stroke="#FBC20F" opacity="0.6" stroke-width="1" class="elmhurst"/>
<path d="M 3896.7417 2381.6629 4069.7261 2376.8141 4063.932 2471.7803 4085.9258 2540.7156 3988.8821 2618.2652 3948.6955 2503.24 3896.7417 2381.6629 Z" fill="none" stroke="#FBC20F" opacity="0.6" stroke-width="1" class="elmhurst"/>
<path d="M 4172.8877 2358.3806 4219.4627 2569.3434 4182.4793 2585.9893 4085.2507 2528.989 4084.2818 2497.6563 3934.2757 2390.0357 4172.8877 2358.3806 Z" fill="none" stroke="#FBC20F" opacity="0.6" stroke-width="1" class="elmhurst"/>
<path d="M 3983.6913 2691.3419 3984.3703 2500.5553 4191.2518 2421.4739 4231.4847 2565.6382 3983.6913 2691.3419 Z" fill="none" stroke="#FBC20F" opacity="0.6" stroke-width="1" class="elmhurst"/>
<path d="M 4227.7968 2573.9387 3891.1606 2693.3002 3897.9748 2395.6088 4171.0363 2357.462 4227.7968 2573.9387 Z" fill="none" stroke="#FBC20F" opacity="0.6" stroke-width="1" class="elmhurst"/>
<path d="M 4050.9096 2448.3993 4061.5362 2439.6303 4056.9202 2446.548 4054.632 2464.5211 4060.1732 2457.6019 4065.246 2446.5366 4068.9451 2445.61 4067.8008 2454.3661 4062.2521 2455.756 4050.9096 2448.3993 Z" fill="none" stroke="#FBC20F" opacity="0.6" stroke-width="1" class="elmhurst"/>
<path d="M 3882.3525 2678.5625 4069.0526 2523.4819 4088.1501 2617.4632 3918.8952 2672.5273 3882.3525 2678.5625 Z" fill="none" stroke="#FBC20F" opacity="0.6" stroke-width="1" class="elmhurst"/>
<path d="M 3935.2036 2392.3382 4176.1245 2357.9151 4190.6157 2459.7179 4224.0867 2567.9538 4039.6096 2643.7985 3935.2036 2392.3382 Z" fill="none" stroke="#FBC20F" opacity="0.6" stroke-width="1" class="elmhurst"/>
<path d="M 4035.2122 2470.0767 4153.716 2530.734 4050.2222 2623.0457 3902.99 2527.3829 4035.2122 2470.0767 Z" fill="none" stroke="#FBC20F" opacity="0.6" stroke-width="1" class="elmhurst"/>
<path d="M 3989.1596 2626.8136 3962.8001 2560.7362 3964.5545 2485.1628 3981.157 2446.4367 4042.148 2398.4381 4132.7968 2394.6252 4182.0369 2330.6652 4237.6734 2419.0399 4276.6558 2500.0737 4281.6565 2572.3423 4172.5474 2616.7513 4080.6774 2645.1487 4028.8738 2654.4367 3989.1596 2626.8136 Z" fill="none" stroke="#FBC20F" opacity="0.6" stroke-width="1" class="elmhurst"/>
<path d="M 4129.1252 2249.1941 4202.7007 2498.252 4081.3317 2503.1419 4045.2921 2265.2424 4044.7176 2266.5395 4129.1252 2249.1941 Z" fill="none" stroke="#FBC20F" opacity="0.6" stroke-width="1" class="elmhurst"/>
<path d="M 4175.6627 2358.3765 4230.561 2566.5613 3892.8682 2573.4764 3918.6706 2488.6573 3907.5401 2464.7105 3940.7934 2424.1226 4029.5332 2374.2481 4175.6627 2358.3765 Z" fill="none" stroke="#FBC20F" opacity="0.6" stroke-width="1" class="elmhurst"/>
<path d="M 3938.6997 2414.2191 3936.1567 2414.9134 3935.3452 2413.3018 3935.2276 2411.6893 3940.0797 2408.1125 3944.4793 2412.5993 3943.5574 2415.1346 3931.0748 2419.7575 3938.6997 2414.2191 Z" fill="none" stroke="#FBC20F" opacity="0.6" stroke-width="1" class="elmhurst"/>
<path d="M 3894.4131 2701.0419 3875.3246 2397.4298 4170.5958 2359.78 4228.6383 2576.0701 3894.4131 2701.0419 Z" fill="none" stroke="#FBC20F" opacity="0.6" stroke-width="1" class="elmhurst"/>
<path d="M 4313.2412 2771.9779 4300.7542 2775.6856 4284.3315 2777.7863 4261.2049 2783.3543 4237.1623 2795.1458 4196.5846 2735.7498 4175.2563 2705.8236 4160.8577 2668.0529 4154.3494 2646.8627 4149.677 2615.5316 4159.8106 2585.5623 4153.3211 2576.8161 4132.0305 2569.4739 4108.4173 2555.2224 4092.2076 2541.8818 4084.7939 2533.1369 4088.4739 2518.3861 4085.2172 2505.0276 4075.4814 2489.3744 4056.953 2470.508 4040.2798 2454.8644 4025.9273 2444.7469 4015.7434 2438.7705 4005.0983 2433.7162 3937.0566 2394.6396 3935.4346 2392.1076 4171.7324 2359.0734 4181.0136 2379.7922 4187.313 2416.6419 4192.2106 2443.8191 4191.7679 2456.9516 4189.7108 2473.0817 4199.9402 2508.0858 4222.2391 2569.7999 4243.1356 2620.4593 4284.3534 2647.5843 4321.3922 2664.1151 4356.5847 2682.4914 4377.9049 2704.5776 4402.9322 2729.4228 4363.1446 2731.3346 4332.6319 2746.1347 4324.3263 2759.9758 4313.2412 2771.9779 Z" fill="none" stroke="#FBC20F" opacity="0.6" stroke-width="1" class="elmhurst"/>
<path d="M 3935.6656 2391.8769 3933.3524 2391.419 4141.6789 2365.3375 4148.4767 2427.7576 4124.9219 2451.7514 4081.2741 2496.9693 4089.3965 2516.5416 4081.7916 2536.3667 4019.6261 2576.0815 3956.8962 2539.2974 3952.9117 2497.6002 3935.6656 2391.8769 Z" fill="none" stroke="#FBC20F" opacity="0.6" stroke-width="1" class="elmhurst"/>
<path d="M 4171.0308 2353.7762 4184.9376 2374.9487 4198.929 2451.4115 4188.7905 2476.3085 4224.0803 2563.8064 4184.3283 2585.0649 4118.607 2563.9634 4088.0211 2525.2987 4077.7866 2483.8418 4035.1862 2450.7244 3995.3724 2424.0531 4026.7557 2372.4089 4171.0308 2353.7762 Z" fill="none" stroke="#FBC20F" opacity="0.6" stroke-width="1" class="elmhurst"/>
<path d="M 4191.5464 2463.4027 4202.7823 2551.8578 4138.0617 2581.4467 4024.2522 2576.0753 3995.6089 2605.6063 3966.8383 2536.5199 3933.4316 2455.4634 4036.9445 2382.5313 4165.515 2376.8206 4191.5464 2463.4027 Z" fill="none" stroke="#FBC20F" opacity="0.6" stroke-width="1" class="elmhurst"/>
<path d="M 3868.3369 2400.2918 4010.3147 2387.6754 4073.3337 2375.4499 4128.1881 2368.8931 4143.3079 2365.377 4151.7203 2424.7999 3981.0009 2504.4975 3888.6072 2515.6028 3890.1434 2448.7501 3868.3369 2400.2918 Z" fill="none" stroke="#FBC20F" opacity="0.6" stroke-width="1" class="elmhurst"/>
<path d="M 4181.2099 2356.5253 4176.5739 2349.1608 4228.7048 2562.8776 4007.6916 2647.067 3905.6186 2405.7359 4181.2099 2356.5253 Z" fill="none" stroke="#FBC20F" opacity="0.6" stroke-width="1" class="elmhurst"/>
<path d="M 4173.8168 2361.1436 4306.2008 2427.283 4196.1594 2455.1018 4083.3901 2521.6188 3872.3925 2470.2816 3907.4542 2393.7544 3936.1281 2391.8763 4173.8168 2361.1436 Z" fill="none" stroke="#FBC20F" opacity="0.6" stroke-width="1" class="elmhurst"/>
<path d="M 3899.1333 2397.4503 4155.3201 2363.4746 3978.3569 2500.563 3865.4541 2470.2897 3899.1333 2397.4503 Z" fill="none" stroke="#FBC20F" opacity="0.6" stroke-width="1" class="elmhurst"/>
<path d="M 4011.3326 2601.4382 3958.5193 2542.521 3971.3695 2462.3272 4031.852 2378.8523 4172.4314 2362.5278 4155.0698 2507.6921 4011.3326 2601.4382 Z" fill="none" stroke="#FBC20F" opacity="0.6" stroke-width="1" class="elmhurst"/>
<path d="M 3969.6903 2415.1016 3968.7594 2410.4953 3969.6878 2413.1434 3969.6903 2415.1016 Z" fill="none" stroke="#FBC20F" opacity="0.6" stroke-width="1" class="elmhurst"/>
<path d="M 4030.0013 2378.394 4245.4823 2346.7517 4229.8625 2414.5035 4236.3437 2418.1794 4287.4277 2545.7346 4182.9412 2585.5278 4116.748 2557.9754 4087.1056 2532.212 3985.7592 2501.475 4003.2445 2430.9541 4030.0013 2378.394 Z" fill="none" stroke="#FBC20F" opacity="0.6" stroke-width="1" class="elmhurst"/>
<path d="M 4031.3907 2379.7743 4172.8726 2348.2449 4194.3119 2456.9477 4075.9747 2511.4916 3984.2918 2439.7332 4031.3907 2379.7743 Z" fill="none" stroke="#FBC20F" opacity="0.6" stroke-width="1" class="elmhurst"/>
<path d="M 4223.165 2570.2593 4151.9658 2598.938 3933.8375 2783.5856 3774.5285 2655.6404 3925.0288 2392.8115 4175.6641 2359.2979 4223.165 2570.2593 Z" fill="none" stroke="#FBC20F" opacity="0.6" stroke-width="1" class="elmhurst"/>
<path d="M 3936.127 2390.9549 4242.6607 2612.6257 3898.5865 2712.6486 3821.6855 2626.0941 3936.127 2390.9549 Z" fill="none" stroke="#FBC20F" opacity="0.6" stroke-width="1" class="elmhurst"/>
<path d="M 4189.8282 2550.9558 4181.0845 2581.3831 4173.68 2579.5509 4145.4527 2574.0627 4111.6535 2553.8354 4094.0431 2531.2807 4084.7566 2506.4106 4098.138 2482.8917 4114.308 2469.0454 4135.9157 2454.7551 4143.5467 2454.0528 4166.214 2455.6322 4187.1894 2459.4597 4191 2471.9098 4192.8774 2489.8774 4202.6355 2509.5088 4206.9167 2525.7601 4213.2997 2547.5013 4219.5763 2567.9981 4206.1831 2576.3959 4182.8307 2582.6524 4189.8282 2550.9558 Z" fill="none" stroke="#FBC20F" opacity="0.6" stroke-width="1" class="elmhurst"/>
<path d="M 3934.278 2391.8786 4174.7432 2362.0636 4222.2355 2567.4958 4071.5172 2633.1552 3985.4895 2650.7828 3975.2771 2624.0664 3934.278 2391.8786 Z" fill="none" stroke="#FBC20F" opacity="0.6" stroke-width="1" class="elmhurst"/>
<path d="M 3907.4487 2389.1471 4192.2918 2344.53 4244.4261 2558.2449 3913.3618 2687.7429 3815.0929 2521.9551 3907.4487 2389.1471 Z" fill="none" stroke="#FBC20F" opacity="0.6" stroke-width="1" class="elmhurst"/>
<path d="M 3933.3517 2390.8431 3941.2146 2390.9485 3949.0743 2388.4047 3957.7469 2388.7393 3967.9194 2386.5379 3979.7117 2385.0255 3991.273 2383.8587 4004.6836 2382.1134 4015.2023 2379.4504 4025.6081 2378.8606 4056.8206 2373.7504 4078.9017 2371.0708 4094.6249 2369.5514 4111.1552 2366.5333 4132.888 2363.0466 4147.4553 2361.9888 4159.2463 2360.0134 4169.4187 2358.2706 4173.4648 2357.6887 4177.7582 2367.9334 4180.774 2374.2638 4182.8707 2384.5119 4184.1554 2393.0336 4187.0704 2409.1552 4189.4001 2420.44 4191.032 2429.0766 4192.5502 2438.9806 4193.9506 2447.3874 4193.158 2458.5621 4192.595 2468.5848 4193.1845 2476.0715 4195.5107 2484.938 4201.0877 2502.209 4203.4125 2510.0389 4205.9678 2517.2925 4210.1551 2533.0686 4214.2144 2540.6657 4217.2376 2551.2597 4221.4134 2559.3175 4224.3176 2567.723 4225.8269 2571.5225 4226.9872 2573.94 4227.8035 2578.3166 4216.476 2582.4815 4204.6859 2586.7622 4195.7869 2590.9232 4188.9689 2594.6202 4173.4753 2597.4084 4160.7634 2604.2247 4147.3515 2607.1246 4139.4942 2612.0901 4127.7044 2617.0613 4120.3063 2619.837 4104.1227 2625.8511 4084.3563 2633.8286 4080.198 2637.7517 4072.8012 2641.6792 4067.1385 2645.0283 4062.8638 2648.4906 4056.9662 2649.3052 4046.2121 2651.0481 4036.0353 2652.0988 4030.6015 2653.8343 4021.5799 2653.8463 4011.867 2655.8179 4003.6559 2656.52 3995.1007 2659.4116 3988.1672 2664.2597 3984.4651 2663.5732 3981.3391 2661.1576 3981.7864 2649.2898 3979.694 2641.1123 3978.5305 2635.6987 3978.2924 2630.3992 3976.2058 2626.7151 3971.3496 2627.8734 3971.212 2610.7071 3970.0371 2596.3074 3968.1759 2587.8995 3968.2766 2576.1483 3965.3692 2563.4794 3960.7324 2554.9601 3958.0633 2547.7057 3949.6175 2544.9514 3950.998 2539.1896 3967.6474 2536.1733 3982.0999 2533.5052 3987.1857 2531.425 3988.908 2521.8611 3989.7072 2513.9113 3979.4104 2510.4687 3965.2985 2507.8371 3928.51 2496.709 3915.0926 2494.3063 3904.4492 2490.7481 3889.0657 2488.1171 3878.7693 2484.443 3860.1465 2480.433 3853.438 2479.2888 3862.9106 2470.7534 3869.6088 2463.1429 3880.2374 2454.6062 3888.3211 2445.3813 3895.2485 2436.3882 3900.7859 2425.5538 3903.0872 2416.1057 3900.9864 2399.9822 3895.8822 2386.1662 3889.8533 2372.5819 3886.6105 2368.2088 3892.3916 2367.9716 3900.9557 2374.4115 3911.3703 2381.0795 3922.2447 2385.4432 3929.6494 2389.1199 3933.3517 2390.8431 Z" fill="none" stroke="#FBC20F" opacity="0.6" stroke-width="1" class="elmhurst"/>
<path d="M 3884.2195 2399.5415 4137.7441 2362.9244 4167.3155 2577.141 3891.1384 2480.6269 3884.2195 2399.5415 Z" fill="none" stroke="#FBC20F" opacity="0.6" stroke-width="1" class="elmhurst"/>
<path d="M 3859.4516 2479.5122 3895.4023 2371.6538 4105.3821 2372.3006 4111.187 2551.0712 3859.4516 2479.5122 Z" fill="none" stroke="#FBC20F" opacity="0.6" stroke-width="1" class="elmhurst"/>
<path d="M 3902.3704 2396.9857 4171.964 2359.3035 4226.4011 2568.8718 3998.9056 2650.3046 3902.3704 2396.9857 Z" fill="none" stroke="#FBC20F" opacity="0.6" stroke-width="1" class="elmhurst"/>
<path d="M 3994.247 2270.1759 4204.1805 2255.1377 4204.1889 2260.6658 4188.4474 2248.7122 4218.5134 2553.677 4062.1139 2523.4914 4059.1212 2364.9935 4070.1411 2306.929 3994.247 2270.1759 Z" fill="none" stroke="#FBC20F" opacity="0.6" stroke-width="1" class="elmhurst"/>
<path d="M 4038.0487 2515.4602 4083.1797 2536.5951 4002.3281 2614.1231 3968.576 2629.6051 4038.0487 2515.4602 Z" fill="none" stroke="#FBC20F" opacity="0.6" stroke-width="1" class="elmhurst"/>
<path d="M 4172.8877 2358.3806 4357.5054 2679.7246 4192.0392 2789.6838 3986.3767 2621.287 3893.6833 2481.315 3858.4465 2410.3991 3854.7399 2404.8744 4172.8877 2358.3806 Z" fill="none" stroke="#FBC20F" opacity="0.6" stroke-width="1" class="elmhurst"/>
<path d="M 3993.5642 2456.3086 3989.3738 2435.119 4003.6937 2420.817 4043.0002 2414.3141 4014.3545 2437.8508 4099.5225 2480.5859 4045.8648 2480.1994 4047.7494 2505.54 4034.8252 2526.2933 3999.9071 2531.6388 3997.3644 2532.7942 3961.292 2540.2134 3976.0204 2482.1346 3993.5642 2456.3086 Z" fill="none" stroke="#FBC20F" opacity="0.6" stroke-width="1" class="elmhurst"/>
<path d="M 4173.8168 2361.1436 4186.8335 2405.3544 4199.8625 2456.9393 4142.501 2453.3386 4130.8295 2453.656 4083.7075 2495.1928 4072.6365 2517.3262 4046.7446 2526.5777 4027.316 2526.6039 3978.2857 2529.4329 3943.1499 2546.0664 3900.6069 2559.0213 3848.7915 2555.3957 3854.2396 2465.9954 3881.059 2458.5918 3898.6061 2433.6897 3906.8916 2400.5059 4173.8168 2361.1436 Z" fill="none" stroke="#FBC20F" opacity="0.6" stroke-width="1" class="elmhurst"/>
<path d="M 3898.6711 2397.6813 4032.3778 2598.4147 3934.3382 2440.4875 3899.5945 2396.2979 4018.6731 2380.9431 4080.6479 2379.4766 4172.6568 2358.6113 4191.7676 2456.7212 4225.246 2569.7953 4176.011 2591.529 4108.7404 2619.7383 3841.5065 2562.707 3856.672 2475.8292 3886.2467 2451.3737 3898.6711 2397.6813 Z" fill="none" stroke="#FBC20F" opacity="0.6" stroke-width="1" class="elmhurst"/>
<path d="M 4016.6636 2435.0832 3866.6333 2291.5248 4116.2845 2234.077 4190.4669 2361.1186 4016.6636 2435.0832 Z" fill="none" stroke="#FBC20F" opacity="0.6" stroke-width="1" class="elmhurst"/>
<path d="M 4057.6481 2471.4286 4150.6446 2486.7328 4081.3306 2537.5193 4057.6481 2471.4286 Z" fill="none" stroke="#FBC20F" opacity="0.6" stroke-width="1" class="elmhurst"/>
<path d="M 4144.5221 2570.3774 4028.8992 2591.7373 3973.3853 2591.8099 3880.8208 2556.9011 3853.8966 2475.8324 3937.0932 2424.1272 4094.3779 2440.5062 4141.6014 2470.8491 4153.6902 2513.2237 4144.5221 2570.3774 Z" fill="none" stroke="#FBC20F" opacity="0.6" stroke-width="1" class="elmhurst"/>
<path d="M 3871.2537 2287.8339 4194.4474 2240.8718 4312.8711 2546.1541 4164.9109 2593.3889 3871.2537 2287.8339 Z" fill="none" stroke="#FBC20F" opacity="0.6" stroke-width="1" class="elmhurst"/>
<path d="M 3866.8429 2471.2096 4045.1414 2458.4288 4054.7508 2466.8248 4054.2813 2461.7569 4048.6101 2458.0785 4044.3262 2454.1678 4032.4125 2451.88 4023.7354 2448.6663 4018.2877 2438.9975 4011.2295 2435.6664 4005.6749 2432.5636 4007.864 2426.4557 4008.0936 2425.1883 4008.9009 2423.5746 4010.5162 2420.9232 4015.4784 2413.3143 4008.6505 2409.0614 4009.5715 2405.9502 4025.4008 2396.8295 4027.0148 2393.2567 4028.7429 2388.5318 4031.1645 2383.5757 4025.382 2382.7771 4028.8501 2382.1966 4035.9009 2380.3442 4037.9815 2379.7655 4041.6805 2378.9542 4046.0723 2377.4509 4049.8866 2376.4091 4064.8033 2376.9646 4072.8942 2374.7649 4081.9088 2371.6425 4087.2288 2372.4413 4097.168 2369.0871 4119.7139 2368.1336 4132.7652 2358.0941 4138.8927 2357.6244 4150.1171 2363.5974 4158.4413 2363.0093 4169.5351 2358.7312 4174.1663 2362.8708 4179.8424 2369.8883 4199.5035 2372.8534 4173.3801 2378.4214 4180.7896 2384.6302 4180.1044 2390.3905 4184.7434 2399.5982 4188.2179 2403.2789 4187.3085 2413.6471 4180.3712 2414.1182 4179.4569 2421.2612 4183.62 2421.4854 4185.7028 2422.4037 4187.3279 2426.548 4187.5661 2431.1552 4191.2692 2432.9927 4191.9717 2438.7511 4190.5921 2444.0519 4188.7516 2450.5054 4191.3047 2456.4915 4190.1504 2457.8755 4176.2718 2456.5141 4179.9791 2461.1162 4182.7572 2462.9551 4188.3162 2468.476 4195.2608 2472.6125 4192.9661 2484.5962 4196.6896 2499.7965 4200.4147 2515.9186 4208.2933 2525.5834 4216.1686 2532.9442 4218.0402 2546.7655 4222.6868 2560.122 4220.852 2570.2629 4213.9285 2580.4117 4196.8238 2588.2719 4172.3224 2599.8295 4149.2022 2607.2371 4127.0056 2613.7212 4110.8209 2618.8137 4071.0144 2604.1226 4086.2861 2607.7881 4059.4362 2594.9218 4038.1416 2584.3516 4024.2589 2581.1444 4011.7453 2563.6497 3989.5351 2559.5314 3970.5573 2550.8003 3953.4262 2538.8409 3934.91 2528.7263 3892.7884 2506.6593 3910.3763 2514.9324 3890.4646 2497.4463 3883.9744 2485.4736 3866.8429 2471.2096 Z" fill="none" stroke="#FBC20F" opacity="0.6" stroke-width="1" class="elmhurst"/>
<path d="M 4174.7308 2353.7707 4249.6153 2622.2925 3899.4891 2693.7511 3883.8696 2397.0078 4174.7308 2353.7707 Z" fill="none" stroke="#FBC20F" opacity="0.6" stroke-width="1" class="elmhurst"/>
<path d="M 4175.6544 2352.8479 4216.6829 2566.5827 4054.8699 2638.7083 3975.1708 2541.1174 4006.4792 2428.6461 4175.6544 2352.8479 Z" fill="none" stroke="#FBC20F" opacity="0.6" stroke-width="1" class="elmhurst"/>
<path d="M 4138.684 2373.1742 4169.2055 2370.3649 4189.6225 2414.5651 4194.3984 2514.0845 4222.2313 2564.7309 4190.8007 2582.2902 4106.5741 2560.294 4076.8717 2491.2156 4020.3835 2449.8226 3981.5237 2445.2659 3960.2163 2421.3337 3950.0048 2392.7805 3958.3383 2399.2203 3959.247 2386.3186 4117.3902 2360.3046 4138.684 2373.1742 Z" fill="none" stroke="#FBC20F" opacity="0.6" stroke-width="1" class="elmhurst"/>
<path d="M 3901.3194 2484.5313 3968.2624 2474.1961 3963.2466 2440.1057 4002.3228 2433.4895 4003.4764 2431.4146 3965.9838 2410.1533 4013.0378 2403.9874 4017.6655 2405.8243 4031.273 2378.2771 4130.8074 2363.5104 4093.897 2427.4904 4116.6962 2440.9352 4128.8545 2452.4368 4080.8107 2496.3939 4089.3981 2517.6936 4085.6015 2531.7533 3901.3194 2484.5313 Z" fill="none" stroke="#FBC20F" opacity="0.6" stroke-width="1" class="elmhurst"/>
<path d="M 3885.2151 2361.53 3862.0054 2288.766 4125.5612 2253.4116 4223.1394 2553.6699 4162.1107 2576.8031 3945.504 2492.3105 3885.3561 2480.4034 3868.6845 2463.8351 3902.8657 2424.1691 3885.2151 2361.53 Z" fill="none" stroke="#FBC20F" opacity="0.6" stroke-width="1" class="elmhurst"/>
<path d="M 3898.561 2691.4478 3780.7429 2411.4073 4175.6572 2354.6907 4248.2398 2630.1291 3898.561 2691.4478 Z" fill="none" stroke="#FBC20F" opacity="0.6" stroke-width="1" class="elmhurst"/>
<path d="M 4003.7101 2433.2573 4029.5394 2378.8554 4017.5153 2379.7928 4005.4138 2321.7586 4143.2002 2298.5327 4179.3862 2374.0355 4184.0708 2413.6519 3950.1239 2487.6968 3937.1195 2445.322 4003.7101 2433.2573 Z" fill="none" stroke="#FBC20F" opacity="0.6" stroke-width="1" class="elmhurst"/>
<path d="M 4051.7575 2391.7259 4078.622 2419.3335 4097.1362 2428.5226 4122.1542 2457.0542 4121.74 2490.6914 4069.0373 2512.4227 4048.6796 2509.2251 4022.284 2487.6035 4027.3697 2485.7536 4008.3627 2453.9854 3996.5392 2432.1148 4017.0977 2413.6577 4026.0752 2382.3155 4042.265 2383.6759 4051.7575 2391.7259 Z" fill="none" stroke="#FBC20F" opacity="0.6" stroke-width="1" class="elmhurst"/>
<path d="M 4021.9385 2575.6176 3969.1671 2548.9588 3929.7205 2446.7134 4004.1684 2430.0314 4026.3141 2388.0743 4116.5799 2440.4746 4127.6948 2450.1347 4139.723 2451.4995 4186.6483 2589.6697 4113.598 2619.7314 4021.9385 2575.6176 Z" fill="none" stroke="#FBC20F" opacity="0.6" stroke-width="1" class="elmhurst"/>
<path d="M 4084.1016 2534.2898 3960.7789 2500.355 3932.4271 2391.1898 4089.1675 2518.1547 4082.712 2532.9094 4084.1016 2534.2898 Z" fill="none" stroke="#FBC20F" opacity="0.6" stroke-width="1" class="elmhurst"/>
<path d="M 3917.0496 2676.6774 4405.3402 2517.4281 4501.9023 2705.2795 4281.9253 2864.2173 4207.9249 2890.1476 4054.3508 2936.4685 4006.1123 2853.5567 3917.0496 2676.6774 Z" fill="none" stroke="#FBC20F" opacity="0.6" stroke-width="1" class="elmhurst"/>
<path d="M 3901.9051 2394.6826 4171.9627 2358.382 4182.1792 2386.0104 4187.7835 2421.9398 4193.3813 2453.263 4191.5659 2476.3043 4193.4314 2486.4387 4203.6542 2516.8353 4223.1607 2567.4944 4150.1126 2597.0974 4127.9229 2608.1898 4095.5574 2621.1395 4066.8959 2636.8484 4037.3008 2647.0276 3997.5219 2653.5324 3990.0777 2621.2822 3977.9902 2575.2142 3959.4229 2525.4701 3941.7908 2482.1779 3924.1637 2441.6519 3901.9051 2394.6826 Z" fill="none" stroke="#FBC20F" opacity="0.6" stroke-width="1" class="elmhurst"/>
<path d="M 4171.9586 2355.6177 4223.165 2570.2593 4183.6355 2585.7572 4083.4 2528.7612 4004.9638 2507.4403 4014.9712 2379.5659 4171.9586 2355.6177 Z" fill="none" stroke="#FBC20F" opacity="0.6" stroke-width="1" class="elmhurst"/>
<path d="M 4230.1258 2577.0789 4115.6397 2624.6964 3869.5633 2478.0536 3852.8187 2343.1392 3933.2213 2381.1025 4176.13 2354.1474 4230.1258 2577.0789 Z" fill="none" stroke="#FBC20F" opacity="0.6" stroke-width="1" class="elmhurst"/>
<path d="M 3984.5404 2632.3498 3928.0581 2599.2402 3910.4137 2545.8062 3917.7713 2509.8547 3988.9709 2481.1964 4054.6484 2476.5012 4113.7704 2416.5194 4163.7264 2418.2898 4198.9151 2442.1963 4200.4053 2506.7027 4209.7315 2555.5337 4179.2567 2593.3675 4123.7771 2617.4126 4029.4392 2646.1164 3984.5404 2632.3498 Z" fill="none" stroke="#FBC20F" opacity="0.6" stroke-width="1" class="elmhurst"/>
<path d="M 3877.9377 2465.6673 3911.1454 2386.3782 4061.0319 2409.2213 4111.9742 2454.3041 4184.104 2435.768 4206.4704 2543.5576 4217.6648 2603.4476 4169.5919 2630.2494 4043.7291 2611.0725 3910.4081 2541.1981 3855.782 2506.242 3877.9377 2465.6673 Z" fill="none" stroke="#FBC20F" opacity="0.6" stroke-width="1" class="elmhurst"/>
<path d="M 3969.5575 2492.2801 3885.6639 2350.0115 3976.1857 2250.3903 3995.5683 2219.501 4026.5218 2197.3491 4056.578 2196.3872 4150.9182 2200.3992 4164.8278 2225.2538 4172.2666 2251.9611 4184.8046 2286.4931 4201.0736 2340.831 4204.3658 2376.7622 4208.6108 2430.6625 4210.0612 2471.6684 4147.6079 2466.2326 4075.0163 2487.5319 3969.5575 2492.2801 Z" fill="none" stroke="#FBC20F" opacity="0.6" stroke-width="1" class="elmhurst"/>
<path d="M 3928.7971 2448.0969 4011.1082 2431.4045 4193.3882 2457.8706 4226.8744 2575.7835 3997.5255 2656.2976 3928.7971 2448.0969 Z" fill="none" stroke="#FBC20F" opacity="0.6" stroke-width="1" class="elmhurst"/>
<path d="M 3932.8899 2391.4196 4170.1065 2354.2383 4177.8669 2595.2129 3932.8899 2391.4196 Z" fill="none" stroke="#FBC20F" opacity="0.6" stroke-width="1" class="elmhurst"/>
<path d="M 4173.8099 2356.5364 4225.0283 2578.5513 4031.7441 2643.3482 3981.7848 2648.0225 3973.4289 2625.9121 3963.1388 2537.4462 3927.872 2448.098 3901.9073 2396.5255 3992.5433 2382.59 4173.8099 2356.5364 Z" fill="none" stroke="#FBC20F" opacity="0.6" stroke-width="1" class="elmhurst"/>
<path d="M 3940.7544 2392.7921 4142.8352 2365.3358 4150.3211 2423.8385 4186.3862 2415.4915 4221.3167 2571.6446 4188.9517 2583.2146 4090.345 2533.1291 4019.1604 2573.778 3969.6245 2544.8109 3906.532 2396.0592 3940.7544 2392.7921 Z" fill="none" stroke="#FBC20F" opacity="0.6" stroke-width="1" class="elmhurst"/></svg>