<?xml version="1.0"?><svg xmlns="http://www.w3.org/2000/svg" version="1.2" baseProfile="tiny" width="6000" height="5918" viewBox="0 0 6000 5918" stroke-linecap="round" stroke-linejoin="round"><path d="M 3329.8052 4006.3766 3262.8157 3927.7287 3124.0998 4016.1689 3075.3779 3790.5285 3075.8405 3788.6827 3180.7319 3734.1974 3184.6813 3762.3406 3309.0418 3752.1265 3329.8052 4006.3766 Z" fill="none" stroke="#012394" opacity="0.43859649122807015" stroke-width="1" class="flatbush"/>
<path d="M 3198.5405 3682.5156 3198.541 3683.669 3190.9009 3687.8247 3213.1472 3719.4183 3033.6816 3761.934 3198.5405 3682.5156 Z" fill="none" stroke="#012394" opacity="0.43859649122807015" stroke-width="1" class="flatbush"/>
<path d="M 3088.6001 3851.6632 3072.5849 3748.0803 3198.54 3681.5929 3205.9715 3726.8038 3215.2621 3784.0125 3218.2969 3834.0753 3088.6001 3851.6632 Z" fill="none" stroke="#012394" opacity="0.43859649122807015" stroke-width="1" class="flatbush"/>
<path d="M 3171.6334 3579.1884 3325.8361 3563.4251 3355.2276 3910.8317 3232.0027 3916.4382 3171.6334 3579.1884 Z" fill="none" stroke="#012394" opacity="0.43859649122807015" stroke-width="1" class="flatbush"/>
<path d="M 3176.3147 3694.9823 3164.6903 3587.2643 3170.938 3577.5741 3186.4507 3575.0301 3354.084 3562.2547 3397.4785 4051.5635 3187.1389 4080.0658 3139.9807 3754.977 3073.9878 3788.914 3071.8902 3748.0806 3176.3147 3694.9823 Z" fill="none" stroke="#012394" opacity="0.43859649122807015" stroke-width="1" class="flatbush"/>
<path d="M 3033.6834 3768.3937 3199.4676 3684.3606 3293.1667 3939.9415 3071.7551 4046.1867 3033.6834 3768.3937 Z" fill="none" stroke="#012394" opacity="0.43859649122807015" stroke-width="1" class="flatbush"/>
<path d="M 3137.4609 3825.5741 3077.2676 3902.1963 3143.0208 3828.8019 3187.9694 3864.7752 3184.2658 3869.8528 3134.7203 3924.7878 3085.1443 3906.3469 3137.4609 3825.5741 Z" fill="none" stroke="#012394" opacity="0.43859649122807015" stroke-width="1" class="flatbush"/>
<path d="M 3116.3962 4481.9614 2797.473 4289.9582 3116.0074 3433.4476 3901.3825 3499.251 3627.9845 4304.3386 3116.3962 4481.9614 Z" fill="none" stroke="#012394" opacity="0.43859649122807015" stroke-width="1" class="flatbush"/>
<path d="M 3133.8015 3944.6319 3238.5449 4029.5028 3181.0957 4035.0681 3116.2428 4068.3252 3066.1511 3907.7375 3097.6185 3809.9005 3169.8488 3737.8932 3256.9472 3778.4549 3310.7388 3883.632 3314.5123 3999.9243 3227.4225 4023.9699 3167.6346 3976.9228 3161.613 3979.9251 3144.4643 3963.0873 3139.8274 3952.9363 3120.8287 3941.8679 3133.8015 3944.6319 Z" fill="none" stroke="#012394" opacity="0.43859649122807015" stroke-width="1" class="flatbush"/>
<path d="M 3152.2534 3750.8195 3188.3689 3722.198 3222.6363 3707.418 3280.083 3734.1485 3290.3118 3804.2761 3291.2721 3865.1849 3290.3732 3915.0232 3219.9558 3912.2908 3206.9513 3841.233 3179.1358 3791.4116 3152.2534 3750.8195 Z" fill="none" stroke="#012394" opacity="0.43859649122807015" stroke-width="1" class="flatbush"/>
<path d="M 3058.7446 3925.9681 3241.4788 3875.1325 3276.504 3968.1017 3113.67 4001.8657 3058.7446 3925.9681 Z" fill="none" stroke="#012394" opacity="0.43859649122807015" stroke-width="1" class="flatbush"/>
<path d="M 3171.6326 3577.3431 3326.2992 3563.4248 3357.1606 4038.6666 3132.9212 4063.7034 3067.0267 3748.0821 3178.1663 3692.6747 3171.6326 3577.3431 Z" fill="none" stroke="#012394" opacity="0.43859649122807015" stroke-width="1" class="flatbush"/>
<path d="M 3241.173 3727.7095 3283.7848 3727.6871 3313.4295 3730.4387 3339.3644 3725.8095 3340.3076 3753.4922 3338.4817 3797.7883 3337.572 3825.4742 3343.1498 3856.8486 3339.4518 3869.7714 3340.4046 3913.1482 3339.4904 3933.4538 3344.1356 3953.7564 3344.1655 4002.6758 3334.9205 4037.7572 3224.6556 4050.7402 3201.4538 3974.1388 3192.1446 3878.1555 3181.0052 3829.2474 3167.0788 3759.1184 3174.477 3729.5862 3213.3783 3718.4955 3240.243 3720.3279 3228.1997 3718.4883 3237.4681 3728.6341 3241.173 3727.7095 Z" fill="none" stroke="#012394" opacity="0.43859649122807015" stroke-width="1" class="flatbush"/>
<path d="M 3083.2618 3818.6725 3311.129 3757.2007 3334.4316 3995.2974 3131.976 4015.7043 3083.2618 3818.6725 Z" fill="none" stroke="#012394" opacity="0.43859649122807015" stroke-width="1" class="flatbush"/>
<path d="M 3066.5646 3751.312 3197.151 3682.5162 3206.4385 3735.1085 3604.2782 3703.0041 3622.8189 3718.6742 3630.5966 3866.7811 3432.4386 4021.3092 3356.9272 4035.8976 3133.6176 4067.1648 3066.5646 3751.312 Z" fill="none" stroke="#012394" opacity="0.43859649122807015" stroke-width="1" class="flatbush"/>
<path d="M 3130.9349 3719.6844 3134.1768 3718.9911 3178.1674 3695.2122 3197.6159 3686.4376 3201.7893 3697.2777 3235.5988 3695.1854 3273.5741 3688.7066 3302.9841 3688.229 3302.7535 3690.0746 3303.6896 3707.1447 3306.7119 3727.6743 3309.5062 3754.2025 3312.7637 3780.5005 3215.4943 3785.1659 3209.4606 3759.3302 3197.882 3761.8732 3186.0708 3762.1092 3172.6404 3766.9598 3154.5802 3777.349 3145.3046 3748.2846 3130.9349 3719.6844 Z" fill="none" stroke="#012394" opacity="0.43859649122807015" stroke-width="1" class="flatbush"/>
<path d="M 3194.8361 3684.3627 3203.1771 3693.5862 3226.4176 3863.3729 3205.0228 3678.8217 3329.1427 3672.2969 3350.561 3855.9211 3359.893 3962.9765 3363.6337 4017.4323 3363.6477 4039.5856 3359.9481 4050.6648 3208.8154 3865.2271 3174.4666 3705.5946 3194.8361 3684.3627 Z" fill="none" stroke="#012394" opacity="0.43859649122807015" stroke-width="1" class="flatbush"/>
<path d="M 3174.051 4358.3243 3385.935 4030.288 3339.4891 4317.6107 3174.051 4358.3243 Z" fill="none" stroke="#012394" opacity="0.43859649122807015" stroke-width="1" class="flatbush"/>
<path d="M 3199.4663 3681.5924 3221.7866 3866.1439 3332.3541 4007.5288 3332.1416 4039.605 3236.4701 4049.8113 3236.7027 4051.6573 3133.6171 4066.0109 3066.101 3749.928 3197.6175 3689.8978 3199.4663 3681.5924 Z" fill="none" stroke="#012394" opacity="0.43859649122807015" stroke-width="1" class="flatbush"/>
<path d="M 3171.6318 3575.4979 3335.5594 3560.6515 3410.5851 3567.9841 3420.8736 3712.8379 3314.3537 3726.7471 3316.2225 3754.4293 3344.1779 4022.9827 3078.2469 4061.8769 3039.2433 3773.9289 3040.1675 3766.5462 3179.0934 3694.5197 3171.6318 3575.4979 Z" fill="none" stroke="#012394" opacity="0.43859649122807015" stroke-width="1" class="flatbush"/>
<path d="M 3304.7795 3588.002 3319.0525 3841.4047 3317.8951 3842.559 3304.7795 3588.002 Z" fill="none" stroke="#012394" opacity="0.43859649122807015" stroke-width="1" class="flatbush"/>
<path d="M 3154.1361 3823.7217 3524.2448 3819.3443 3496.1936 4084.7239 3191.3251 4115.835 3179.2513 4055.3765 3154.1361 3823.7217 Z" fill="none" stroke="#012394" opacity="0.43859649122807015" stroke-width="1" class="flatbush"/>
<path d="M 3455.1377 3698.9724 3505.166 3708.162 3533.1745 3977.6197 3440.6315 4140.1534 3303.395 4003.6229 3288.412 3719.3797 3455.1377 3698.9724 Z" fill="none" stroke="#012394" opacity="0.43859649122807015" stroke-width="1" class="flatbush"/>
<path d="M 3587.7313 4329.5179 3221.0284 3871.1685 3362.8616 3999.3818 3587.7313 4329.5179 Z" fill="none" stroke="#012394" opacity="0.43859649122807015" stroke-width="1" class="flatbush"/>
<path d="M 3056.8345 3740.7031 3194.834 3679.7491 3282.8742 3756.2938 3296.8859 3963.014 3333.05 4009.1437 3333.9955 4040.527 3133.8497 4068.3185 3056.8345 3740.7031 Z" fill="none" stroke="#012394" opacity="0.43859649122807015" stroke-width="1" class="flatbush"/>
<path d="M 3187.459 3759.1095 3139.2952 3778.5087 3130.933 3714.8399 3204.0961 3677.8994 3299.5035 3676.0049 3329.3606 4037.7605 3229.2889 4050.7379 3187.459 3759.1095 Z" fill="none" stroke="#012394" opacity="0.43859649122807015" stroke-width="1" class="flatbush"/>
<path d="M 3199.4862 3724.9613 3332.8506 3676.9082 3364.2652 3551.4077 3579.1274 3540.1761 3766.4482 3763.2878 3605.4009 3924.0254 3520.2214 4001.6286 3423.9282 4108.7781 3282.955 3903.952 3214.3682 3852.304 3199.4862 3724.9613 Z" fill="none" stroke="#012394" opacity="0.43859649122807015" stroke-width="1" class="flatbush"/>
<path d="M 3063.3227 3752.6972 3195.7624 3684.3623 3239.2972 3681.5733 3236.5427 3730.4801 3276.3761 3731.3822 3281.0204 3754.4492 3295.0276 3953.7851 3461.0471 4177.0659 3275.7669 4319.3675 3113.5637 4342.5248 3031.8296 3764.703 3063.3227 3752.6972 Z" fill="none" stroke="#012394" opacity="0.43859649122807015" stroke-width="1" class="flatbush"/>
<path d="M 3089.329 3951.109 3048.5265 3838.525 3194.8612 3739.7277 3286.602 3796.8955 3297.7699 3887.3311 3271.8783 3981.4877 3209.8204 4032.2859 3121.7998 4060.0153 3086.5725 4019.413 3089.329 3951.109 Z" fill="none" stroke="#012394" opacity="0.43859649122807015" stroke-width="1" class="flatbush"/>
<path d="M 3142.1887 4065.546 3084.6417 3789.6026 3159.6651 3752.662 3137.4199 3721.2967 3206.878 3684.3572 3198.4923 3577.3312 3330.934 3569.8803 3367.3485 4030.3526 3142.1887 4065.546 Z" fill="none" stroke="#012394" opacity="0.43859649122807015" stroke-width="1" class="flatbush"/>
<path d="M 3457.3197 4149.3731 3438.7898 4156.7718 3301.7176 4313.8131 3055.1703 4356.395 2977.1965 3868.999 3206.9168 3767.4058 3621.9013 3728.3641 3642.5445 4012.5995 3457.3197 4149.3731 Z" fill="none" stroke="#012394" opacity="0.43859649122807015" stroke-width="1" class="flatbush"/>
<path d="M 3561.5337 4286.5691 3218.4196 3900.5519 3233.5136 3857.7639 3213.6457 3688.4675 3224.773 3712.4534 3621.5502 3753.8866 3640.6282 4004.4657 3561.5337 4286.5691 Z" fill="none" stroke="#012394" opacity="0.43859649122807015" stroke-width="1" class="flatbush"/>
<path d="M 3176.3149 3695.4437 3297.4188 3675.0834 3334.2392 3675.5233 3348.9411 3858.2293 3200.2436 3861.0781 3201.8647 3860.6159 3177.0102 3696.8275 3176.3149 3695.4437 Z" fill="none" stroke="#012394" opacity="0.43859649122807015" stroke-width="1" class="flatbush"/>
<path d="M 3056.8376 3750.8537 3512.5787 3710.9244 3520.9213 4007.8585 3077.3247 4075.4929 3056.8376 3750.8537 Z" fill="none" stroke="#012394" opacity="0.43859649122807015" stroke-width="1" class="flatbush"/>
<path d="M 3137.4616 3827.4198 3339.4193 3816.2445 3382.1783 4035.8814 3253.4083 4101.4964 3116.2449 4073.8638 3131.9026 3826.4991 3137.4616 3827.4198 Z" fill="none" stroke="#012394" opacity="0.43859649122807015" stroke-width="1" class="flatbush"/>
<path d="M 3448.9836 4155.8413 3219.0076 3867.0681 3211.5457 3760.9441 3620.9699 3722.8283 3639.6537 3892.6143 3493.3837 4045.9561 3493.4157 4087.4953 3448.9836 4155.8413 Z" fill="none" stroke="#012394" opacity="0.43859649122807015" stroke-width="1" class="flatbush"/>
<path d="M 3174.4658 3703.7491 3164.2294 3592.5696 3169.7786 3573.6534 3234.1467 3569.0107 3289.2509 3561.6009 3329.8066 4008.6842 3201.86 3850.4641 3174.4658 3703.7491 Z" fill="none" stroke="#012394" opacity="0.43859649122807015" stroke-width="1" class="flatbush"/>
<path d="M 3064.2482 3749.9286 3176.3137 3692.6755 3163.3007 3586.5729 3170.7068 3578.2661 3262.394 3566.2284 3295.9604 3964.8605 3352.5245 4034.0542 3133.8472 4061.8569 3125.4924 4023.0912 3064.2482 3749.9286 Z" fill="none" stroke="#012394" opacity="0.43859649122807015" stroke-width="1" class="flatbush"/>
<path d="M 3067.9531 3748.0818 3196.6883 3683.4392 3303.4396 3674.8493 3315.3413 3832.1782 3318.5994 3858.709 3223.8723 3868.4501 3147.6872 3913.2457 3138.1507 3812.6539 3083.9564 3817.7494 3067.9531 3748.0818 Z" fill="none" stroke="#012394" opacity="0.43859649122807015" stroke-width="1" class="flatbush"/>
<path d="M 3213.4915 3957.5192 3173.5355 3694.5222 3196.6874 3681.5937 3333.7725 3669.526 3355.2342 3921.4456 3262.5827 3925.1907 3213.4915 3957.5192 Z" fill="none" stroke="#012394" opacity="0.43859649122807015" stroke-width="1" class="flatbush"/>
<path d="M 3238.327 3593.9194 3251.3064 3617.9016 3271.6826 3616.0456 3316.1365 3606.7943 3371.7136 3612.2962 3393.9505 3623.3535 3395.8239 3654.7234 3390.2797 3675.0266 3390.3004 3706.3994 3389.3881 3727.6233 3389.4155 3769.1486 3397.7733 3799.5961 3399.6466 3830.0489 3392.2625 3871.5836 3390.4297 3902.0412 3387.6763 3941.73 3385.3569 3937.1167 3382.1467 3987.4219 3369.635 3983.2764 3347.3981 3985.5978 3327.4785 3989.302 3305.2411 3991.1609 3298.2807 3971.7817 3298.2596 3934.4009 3298.2381 3896.0986 3294.995 3895.6389 3227.347 3869.3713 3295.0446 3984.2441 3268.1758 3988.8738 3235.2847 3995.3519 3240.3702 3973.6585 3235.2744 3974.5841 3231.0916 3947.8194 3224.5913 3918.2877 3220.8705 3887.8327 3217.1588 3875.8366 3238.327 3593.9194 Z" fill="none" stroke="#012394" opacity="0.43859649122807015" stroke-width="1" class="flatbush"/>
<path d="M 3080.0084 3785.9128 3144.8391 3742.5174 3135.5636 3712.0699 3197.6171 3688.9751 3329.151 3686.1376 3365.3072 3734.0983 3372.7892 3844.8325 3417.382 4022.935 3359.0116 4034.9732 3269.0887 3963.0292 3216.2761 3967.6708 3227.432 4043.3542 3135.7016 4064.6254 3117.14 3988.942 3080.0084 3785.9128 Z" fill="none" stroke="#012394" opacity="0.43859649122807015" stroke-width="1" class="flatbush"/>
<path d="M 3210.087 3755.742 3372.2312 4004.7755 3249.9487 4064.8452 3147.758 3875.0107 3142.1748 3814.1029 3172.7338 3783.6368 3207.0019 3765.1652 3210.087 3755.742 Z" fill="none" stroke="#012394" opacity="0.43859649122807015" stroke-width="1" class="flatbush"/>
<path d="M 3354.0842 3562.4853 3502.2798 3570.6849 3517.2331 3739.5263 3535.0029 3947.1594 3323.7784 3999.9189 3356.2311 4034.0519 3131.069 4066.4734 3064.2485 3750.8514 3176.3141 3693.5982 3170.7087 3582.8793 3267.9531 3569.9159 3354.0842 3562.4853 Z" fill="none" stroke="#012394" opacity="0.43859649122807015" stroke-width="1" class="flatbush"/>
<path d="M 3063.3227 3752.6972 3197.6163 3687.1296 3219.0071 3866.1452 3356.2317 4034.9749 3131.9967 4069.2423 3063.3227 3752.6972 Z" fill="none" stroke="#012394" opacity="0.43859649122807015" stroke-width="1" class="flatbush"/>
<path d="M 3191.0856 3583.7929 3327.2331 3576.3408 3361.7683 3998.0497 3330.2674 4004.5302 3219.9363 3871.6822 3191.0856 3583.7929 Z" fill="none" stroke="#012394" opacity="0.43859649122807015" stroke-width="1" class="flatbush"/>
<path d="M 3081.872 3818.2115 3209.6925 3760.0221 3222.2487 3863.8364 3264.4365 3926.5741 3121.7756 3995.863 3079.7883 3820.5193 3081.872 3818.2115 Z" fill="none" stroke="#012394" opacity="0.43859649122807015" stroke-width="1" class="flatbush"/>
<path d="M 3156.6729 3813.1291 3243.7646 3827.8547 3191.9134 3893.4049 3156.6729 3813.1291 Z" fill="none" stroke="#012394" opacity="0.43859649122807015" stroke-width="1" class="flatbush"/>
<path d="M 3199.4655 3679.747 3507.9043 3656.4874 3537.818 3990.5381 3447.1334 4160.4586 3216.218 3845.843 3084.6641 3856.0483 3078.1645 3812.6756 3072.5978 3787.7609 3142.0619 3747.1324 3129.0811 3716.6861 3199.4655 3679.747 Z" fill="none" stroke="#012394" opacity="0.43859649122807015" stroke-width="1" class="flatbush"/>
<path d="M 3160.721 4062.7691 3140.3577 4121.857 3058.6897 3749.0075 3036.4274 3645.6678 2988.2508 3599.5472 3067.8708 3490.6597 2995.5711 3232.4053 3467.9539 3494.1372 3473.6792 3719.2591 3768.2266 3693.1557 3772.0242 3779.8925 3579.4658 3933.2776 3160.721 4062.7691 Z" fill="none" stroke="#012394" opacity="0.43859649122807015" stroke-width="1" class="flatbush"/>
<path d="M 3262.5837 3927.0366 3112.5022 3976.0216 3078.1648 3813.5985 3143.003 3784.0441 3213.3997 3763.7116 3365.3184 3751.6311 3385.8104 3922.349 3262.5837 3927.0366 Z" fill="none" stroke="#012394" opacity="0.43859649122807015" stroke-width="1" class="flatbush"/>
<path d="M 3067.9534 3749.0046 3198.543 3688.0519 3308.7739 3688.9177 3367.4519 4192.8247 3152.4414 4210.4783 3074.4467 3775.7637 3073.5113 3748.08 3080.9219 3747.1548 3101.2973 3734.2289 3122.5995 3724.0707 3067.9534 3749.0046 Z" fill="none" stroke="#012394" opacity="0.43859649122807015" stroke-width="1" class="flatbush"/>
<path d="M 3301.4978 3926.0924 3179.6677 3948.3048 3142.0435 3700.9944 3282.8368 3688.0096 3301.4978 3926.0924 Z" fill="none" stroke="#012394" opacity="0.43859649122807015" stroke-width="1" class="flatbush"/>
<path d="M 3173.4834 3573.6519 3302.22 3566.2066 3327.4859 4001.7628 3328.4323 4034.9919 3131.9931 4060.0114 3068.8818 3755.4638 3183.7221 3688.0586 3173.4834 3573.6519 Z" fill="none" stroke="#012394" opacity="0.43859649122807015" stroke-width="1" class="flatbush"/>
<path d="M 3095.7814 3855.1216 3226.4028 3832.9178 3269.9916 3918.7261 3112.5175 4017.5577 3095.7814 3855.1216 Z" fill="none" stroke="#012394" opacity="0.43859649122807015" stroke-width="1" class="flatbush"/>
<path d="M 3073.4244 3481.4326 3086.3892 3479.5833 3334.6654 3614.1645 3245.8793 3874.4381 3029.0589 3795.1567 3016.0095 3494.3651 3064.1622 3477.7455 3073.4244 3481.4326 Z" fill="none" stroke="#012394" opacity="0.43859649122807015" stroke-width="1" class="flatbush"/>
<path d="M 3169.7806 3578.2665 3384.0286 4031.2649 3229.2939 4060.8918 3166.0844 3598.566 3169.7806 3578.2665 Z" fill="none" stroke="#012394" opacity="0.43859649122807015" stroke-width="1" class="flatbush"/>
<path d="M 3176.3245 3717.5896 3509.7816 3687.8581 3531.3011 3952.7003 3184.7699 3962.1473 3176.3245 3717.5896 Z" fill="none" stroke="#012394" opacity="0.43859649122807015" stroke-width="1" class="flatbush"/>
<path d="M 3542.0633 4082.6103 3371.7639 4052.0419 3337.9613 3703.4336 3384.6813 3612.9798 3598.3562 3552.6144 3628.0196 3834.7132 3635.5299 3941.9959 3542.0633 4082.6103 Z" fill="none" stroke="#012394" opacity="0.43859649122807015" stroke-width="1" class="flatbush"/>
<path d="M 3471.8527 3754.3259 3467.2188 3751.5609 3867.2289 3596.1635 3802.9101 4066.8982 2998.5363 3993.5938 3177.2106 3625.3181 3471.8527 3754.3259 Z" fill="none" stroke="#012394" opacity="0.43859649122807015" stroke-width="1" class="flatbush"/>
<path d="M 3295.5177 3745.5132 3315.0398 3740.2814 3323.3564 3717.8395 3315.0227 3723.6116 3314.3386 3741.8367 3321.0495 3733.0664 3329.835 3708.1468 3285.4876 3742.2364 3288.726 3735.3138 3287.7976 3731.6233 3291.9603 3721.0092 3294.2704 3710.8576 3303.975 3688.6884 3311.3796 3678.5342 3323.8854 3679.911 3330.8383 3689.4169 3339.1835 3703.2529 3355.4073 3724.4662 3331.6626 3763.4544 3341.8416 3744.9924 3350.1697 3730.2229 3339.9785 3727.9222 3320.0951 3784.2245 3356.3102 3726.9271 3352.7351 3753.1496 3358.3497 3843.1223 3395.3665 3921.369 3366.6458 3924.1565 3337.4596 3923.7132 3328.8063 3925.4886 3297.7694 3929.1984 3273.2162 3929.6734 3262.1171 3920.6966 3248.8694 3827.0524 3248.8281 3758.0471 3303.0233 3675.7086 3280.5818 3748.4568 3295.5177 3745.5132 Z" fill="none" stroke="#012394" opacity="0.43859649122807015" stroke-width="1" class="flatbush"/>
<path d="M 3371.9681 4009.1196 3509.0962 3994.2532 3442.481 4134.6131 3371.9681 4009.1196 Z" fill="none" stroke="#012394" opacity="0.43859649122807015" stroke-width="1" class="flatbush"/>
<path d="M 3080.9207 3743.4637 3087.4048 3742.308 3131.3984 3720.607 3171.686 3701.6742 3193.908 3680.4416 3191.5811 3655.7602 3182.5267 3602.9414 3195.4823 3577.7939 3229.0548 3573.3956 3262.861 3573.6091 3262.4113 3598.9816 3267.052 3617.2014 3270.0804 3651.1081 3273.1101 3687.0921 3275.217 3729.3066 3279.8706 3769.4453 3282.4393 3808.2025 3284.073 3830.8115 3286.1701 3853.6515 3290.3551 3882.2592 3291.5206 3895.6409 3291.7693 3926.3286 3271.1523 3923.571 3252.6265 3933.041 3225.0705 3951.0528 3210.2491 3958.6745 3193.5759 3969.9889 3172.7343 3984.9969 3145.6376 4000.4688 3128.0352 4009.0138 3120.8368 3963.3273 3107.3815 3908.185 3103.4353 3884.421 3093.2336 3855.1224 3084.1894 3821.9021 3076.7675 3790.2973 3080.9207 3743.4637 Z" fill="none" stroke="#012394" opacity="0.43859649122807015" stroke-width="1" class="flatbush"/>
<path d="M 3061.4697 3751.775 3300.4282 3673.2363 3489.6976 4072.7285 3141.284 4120.9335 3116.2202 4007.4029 3061.4697 3751.775 Z" fill="none" stroke="#012394" opacity="0.43859649122807015" stroke-width="1" class="flatbush"/>
<path d="M 3299.2112 3158.5026 3643.6655 3224.647 3908.8204 3523.2285 3638.7408 3907.3821 3182.8577 3828.3237 2938.2137 3483.3121 3299.2112 3158.5026 Z" fill="none" stroke="#012394" opacity="0.43859649122807015" stroke-width="1" class="flatbush"/>
<path d="M 3201.3257 3696.3552 3336.5597 3683.365 3361.7991 4046.9713 3219.9336 3866.1448 3201.3257 3696.3552 Z" fill="none" stroke="#012394" opacity="0.43859649122807015" stroke-width="1" class="flatbush"/>
<path d="M 3197.615 3684.3615 3619.9877 3661.0062 3643.4728 4014.4447 3453.6295 4172.4554 3224.5674 3868.9112 3197.615 3684.3615 Z" fill="none" stroke="#012394" opacity="0.43859649122807015" stroke-width="1" class="flatbush"/>
<path d="M 3324.6799 3957.46 3327.4793 3990.6865 3122.7135 4025.8614 3067.9531 3748.0818 3201.3198 3683.437 3307.8333 3664.005 3324.6799 3957.46 Z" fill="none" stroke="#012394" opacity="0.43859649122807015" stroke-width="1" class="flatbush"/>
<path d="M 3150.3913 3727.7508 3189.2398 3598.5559 3219.8037 3595.7738 3316.129 3593.8773 3315.2178 3619.712 3364.3604 3701.8024 3364.4996 3921.4398 3295.9428 3933.4792 3181.0782 3995.3773 3150.3913 3727.7508 Z" fill="none" stroke="#012394" opacity="0.43859649122807015" stroke-width="1" class="flatbush"/>
<path d="M 3067.0282 3752.6961 3186.7983 3575.7219 3363.8677 4021.1243 3131.9908 4054.0114 3067.0282 3752.6961 Z" fill="none" stroke="#012394" opacity="0.43859649122807015" stroke-width="1" class="flatbush"/>
<path d="M 3184.5997 3578.2601 3173.4427 3479.5497 3171.5806 3456.4877 3219.742 3467.5359 3305.8694 3469.3356 3450.3543 3489.5375 3513.3277 3486.7221 3522.7772 3721.9893 3521.9328 3824.4218 3231.9565 3822.7636 3205.058 3754.4875 3196.682 3669.5984 3201.304 3649.2969 3184.5997 3578.2601 Z" fill="none" stroke="#012394" opacity="0.43859649122807015" stroke-width="1" class="flatbush"/>
<path d="M 3074.4383 3749.9253 3111.4872 3734.2252 3138.3484 3726.8329 3184.6488 3688.9809 3216.1375 3676.9711 3051.2978 3811.7613 3047.6039 3851.4456 3041.1267 3879.1345 3039.2799 3900.3622 3046.7019 3933.5862 3052.2624 3937.7378 3051.8 3940.5069 3036.4612 3763.7789 3074.4383 3749.9253 Z" fill="none" stroke="#012394" opacity="0.43859649122807015" stroke-width="1" class="flatbush"/>
<path d="M 2977.1806 3797.9382 3614.4657 3700.6882 3471.2452 4181.6744 3057.01 4310.2269 2977.1806 3797.9382 Z" fill="none" stroke="#012394" opacity="0.43859649122807015" stroke-width="1" class="flatbush"/>
<path d="M 3049.4505 3830.2189 3042.0405 3835.7583 3036.4715 3799.7687 3202.264 3722.1917 3277.2979 3723.0768 3344.2361 4118.0616 3027.3103 4171.7462 2975.3312 3813.6269 3049.4505 3830.2189 Z" fill="none" stroke="#012394" opacity="0.43859649122807015" stroke-width="1" class="flatbush"/>
<path d="M 3067.9546 3752.6958 3072.5855 3749.9259 3197.615 3684.3615 3187.3771 3575.491 3501.3543 3571.6083 3535.0359 3987.7713 3350.6729 4036.8245 3067.9546 3752.6958 Z" fill="none" stroke="#012394" opacity="0.43859649122807015" stroke-width="1" class="flatbush"/>
<path d="M 3068.8807 3751.7727 3175.8519 3695.9053 3179.0984 3706.054 3200.3988 3694.9716 3513.4729 3670.3236 3538.7566 4005.3058 3333.0556 4018.3741 3264.4363 3926.1127 3125.4899 4016.6298 3058.6915 3754.5443 3068.8807 3751.7727 Z" fill="none" stroke="#012394" opacity="0.43859649122807015" stroke-width="1" class="flatbush"/>
<path d="M 3080.0189 3817.2893 3080.0186 3816.3664 3185.6083 3763.7243 3210.6171 3756.3305 3219.9185 3834.7667 3225.4961 3873.5253 3369.2171 4054.3513 3134.776 4067.3951 3080.0189 3817.2893 Z" fill="none" stroke="#012394" opacity="0.43859649122807015" stroke-width="1" class="flatbush"/>
<path d="M 3075.3782 3791.4513 3200.413 3725.8836 3309.7209 3724.9042 3326.5204 3936.2304 3119.9298 4015.7089 3075.3782 3791.4513 Z" fill="none" stroke="#012394" opacity="0.43859649122807015" stroke-width="1" class="flatbush"/>
<path d="M 3175.3369 3576.4189 3266.1003 3568.9943 3281.0209 3755.372 3383.8421 3746.0824 3546.2488 4101.3 3257.2246 4311.9906 3119.8181 3717.6124 3205.0271 3688.0489 3164.2152 3558.8941 3175.3369 3576.4189 Z" fill="none" stroke="#012394" opacity="0.43859649122807015" stroke-width="1" class="flatbush"/>
<path d="M 3066.1018 3752.6964 3199.4663 3681.5924 3302.2819 3675.0806 3361.9242 4245.4529 3270.2053 4319.3705 3057.0216 4348.0841 2978.1064 3795.1695 3066.1018 3752.6964 Z" fill="none" stroke="#012394" opacity="0.43859649122807015" stroke-width="1" class="flatbush"/>
<path d="M 3019.8718 4081.2795 3012.4474 4039.7425 2984.5906 3792.3995 3198.5438 3689.8974 3208.7523 3730.4936 3238.3944 3728.6337 3518.1389 3713.6882 3534.0778 3949.0061 3019.8718 4081.2795 Z" fill="none" stroke="#012394" opacity="0.43859649122807015" stroke-width="1" class="flatbush"/>
<path d="M 3186.4509 3575.4914 3387.4261 3561.5414 3414.2924 3571.672 3448.7068 3772.7989 3454.448 4023.8318 3058.7905 4073.8834 3008.7512 4080.3593 2990.176 3905.9127 2997.5635 3805.3161 3079.0704 3750.8466 3199.4659 3680.6697 3171.6821 3692.6775 3166.0785 3584.7265 3186.4509 3575.4914 Z" fill="none" stroke="#012394" opacity="0.43859649122807015" stroke-width="1" class="flatbush"/>
<path d="M 3032.8089 3952.0496 3201.3117 3665.9055 3636.733 3739.4238 3659.4488 4250.7581 3416.6771 4345.1348 3077.3723 4219.7384 3032.8089 3952.0496 Z" fill="none" stroke="#012394" opacity="0.43859649122807015" stroke-width="1" class="flatbush"/>
<path d="M 3612.613 3700.6898 3644.3995 4014.4439 3466.6078 4177.0618 3221.7897 3872.6042 3214.306 3721.2633 3612.613 3700.6898 Z" fill="none" stroke="#012394" opacity="0.43859649122807015" stroke-width="1" class="flatbush"/>
<path d="M 3270.8175 3730.4624 3243.9586 3740.6269 3255.071 3733.239 3236.5454 3736.0167 3222.6488 3733.2553 3212.4616 3738.7968 3214.32 3750.792 3220.3598 3789.0856 3218.7397 3791.3934 3219.8992 3794.6228 3219.441 3805.0049 3221.0635 3807.5419 3223.3861 3821.1528 3217.9425 3819.5405 3217.712 3821.7323 3220.0336 3833.267 3218.0681 3839.9588 3219.1156 3850.9174 3220.3918 3855.6466 3224.2216 3872.3723 3224.7998 3870.5262 3226.7705 3874.5629 3228.9724 3877.5613 3229.7844 3880.2143 3233.9523 3877.5589 3234.3033 3884.7113 3238.1279 3890.3622 3244.0383 3898.2041 3247.6305 3902.0094 3250.6443 3907.1994 3254.005 3911.1202 3255.5109 3911.6962 3257.8295 3916.1944 3260.1478 3919.885 3262.4663 3924.037 3265.4796 3927.8426 3262.8169 3929.9207 3258.5329 3932.3457 3250.3123 3937.1955 3243.9439 3940.5446 3234.9128 3946.0869 3234.45 3947.1255 3230.2836 3953.3577 3221.3658 3954.285 3206.8938 3966.2907 3206.6611 3963.9834 3203.187 3965.1387 3194.0398 3971.2578 3186.8607 3975.5299 3189.2925 3974.4904 3183.5027 3977.6081 3178.5167 3964.6883 3177.5836 3949.8056 3179.4325 3940.1135 3176.532 3928.5777 3176.5299 3923.7322 3175.3686 3916.5798 3175.0188 3911.1577 3174.5546 3908.9659 3173.5079 3898.9294 3171.9981 3889.0086 3168.748 3871.8207 3166.1941 3857.5169 3164.6833 3844.9433 3162.0115 3825.3334 3158.7614 3807.1085 3159.339 3803.8783 3158.8722 3795.1116 3157.133 3789.806 3155.7363 3772.7345 3155.2748 3776.772 3151.7953 3763.2774 3149.5907 3752.4354 3152.4842 3748.9738 3156.3044 3746.3192 3170.8916 3739.2769 3182.2369 3733.62 3188.8361 3731.1948 3192.8875 3728.194 3204.8118 3722.9979 3207.3591 3722.7661 3215.9321 3731.8743 3218.2477 3731.4118 3224.0378 3732.2165 3226.2379 3732.3307 3234.3432 3731.75 3248.8167 3730.3586 3247.4274 3730.7053 3253.9115 3730.2406 3257.1541 3730.931 3270.8175 3730.4624 Z" fill="none" stroke="#012394" opacity="0.43859649122807015" stroke-width="1" class="flatbush"/>
<path d="M 3162.3725 3581.9602 3169.7806 3578.2665 3325.3731 3563.4254 3334.7193 3703.6662 3513.4861 3686.9325 3538.7536 4001.6136 3075.4654 4057.2624 3029.9768 3764.7035 3177.2396 3691.7524 3162.3725 3581.9602 Z" fill="none" stroke="#012394" opacity="0.43859649122807015" stroke-width="1" class="flatbush"/>
<path d="M 3205.9749 3734.1859 3409.762 3719.3048 3452.688 4152.146 3221.7884 3869.8355 3205.9749 3734.1859 Z" fill="none" stroke="#012394" opacity="0.43859649122807015" stroke-width="1" class="flatbush"/>
<path d="M 3196.2429 3684.8511 3353.9356 4036.0195 3133.0379 4064.6939 3064.8867 3749.1214 3196.2429 3684.8511 Z" fill="none" stroke="#012394" opacity="0.43859649122807015" stroke-width="1" class="flatbush"/>
<path d="M 3156.1765 3717.1367 3199.7046 3696.1253 3268.4799 3689.6321 3376.3892 3681.0333 3397.4029 3938.4932 3403.4844 4025.7137 3127.363 4068.321 3156.1765 3717.1367 Z" fill="none" stroke="#012394" opacity="0.43859649122807015" stroke-width="1" class="flatbush"/>
<path d="M 3049.4344 3776.6943 3219.8569 3706.4966 3197.5593 3562.5698 3682.8538 3536.3908 3398.0739 4249.1225 3134.8788 4330.5131 3049.4344 3776.6943 Z" fill="none" stroke="#012394" opacity="0.43859649122807015" stroke-width="1" class="flatbush"/>
<path d="M 3172.1889 3578.856 3501.1689 3571.6084 3606.4999 3701.4335 3553.3592 3959.8815 3492.6471 4052.2336 3497.8638 4087.6765 3471.2042 4126.8376 3466.0156 4128.3185 3466.0205 4134.9652 3399.3321 4190.4034 3268.9097 4323.4338 3229.4776 4057.5686 3209.3999 3926.1401 3172.1889 3578.856 Z" fill="none" stroke="#012394" opacity="0.43859649122807015" stroke-width="1" class="flatbush"/>
<path d="M 3175.3882 3694.5214 3510.6926 3668.4803 3540.6386 4040.3802 3229.3003 4073.8151 3175.3882 3694.5214 Z" fill="none" stroke="#012394" opacity="0.43859649122807015" stroke-width="1" class="flatbush"/>
<path d="M 3207.8328 3745.2584 3205.9779 3740.6454 3193.9349 3739.7281 3513.5109 3718.3057 3542.4927 4041.3017 3247.8518 4108.8843 3246.9274 4113.5005 3207.8328 3745.2584 Z" fill="none" stroke="#012394" opacity="0.43859649122807015" stroke-width="1" class="flatbush"/>
<path d="M 3332.1754 4095.9137 3033.7729 4084.045 3022.564 3758.246 3281.9463 3753.5259 3305.1013 3746.1307 3323.6242 3738.7377 3406.9999 3744.2214 3339.5565 4042.3697 3351.627 4081.1321 3387.7728 4088.4939 3405.372 4076.4817 3404.3867 3989.7146 3399.7407 3970.3346 3401.5324 3878.9607 3403.3306 3797.7467 3404.2495 3786.6722 3398.7139 3820.821 3332.1754 4095.9137 Z" fill="none" stroke="#012394" opacity="0.43859649122807015" stroke-width="1" class="flatbush"/>
<path d="M 3041.4735 3797.3679 3037.0259 3794.4161 3030.3479 3766.3644 3191.1312 3685.1026 3304.5031 3671.7576 3309.7188 3721.2132 3352.1558 4037.1928 3077.882 4079.4159 3041.4735 3797.3679 Z" fill="none" stroke="#012394" opacity="0.43859649122807015" stroke-width="1" class="flatbush"/>
<path d="M 3077.2307 3790.5279 3334.0565 4142.0698 3227.3684 3913.2102 2995.7367 3912.372 3077.2307 3790.5279 Z" fill="none" stroke="#012394" opacity="0.43859649122807015" stroke-width="1" class="flatbush"/>
<path d="M 3405.3489 4042.3275 3269.1344 4048.8714 3268.1174 3879.041 3460.8489 3907.5297 3371.9941 4049.7341 3405.3489 4042.3275 Z" fill="none" stroke="#012394" opacity="0.43859649122807015" stroke-width="1" class="flatbush"/>
<path d="M 3201.3202 3684.3598 3304.136 3677.8477 3302.2751 3663.0854 3507.8957 3645.4151 3520.9378 3738.6006 3208.7665 3760.9454 3201.3202 3684.3598 Z" fill="none" stroke="#012394" opacity="0.43859649122807015" stroke-width="1" class="flatbush"/>
<path d="M 3215.3447 3957.5183 3120.8568 4016.6316 3065.174 3748.0827 3199.4668 3682.5152 3183.6735 3578.2605 3327.2249 3562.5017 3334.7088 3686.1343 3365.4899 4022.0463 3225.5769 4039.6628 3215.3447 3957.5183 Z" fill="none" stroke="#012394" opacity="0.43859649122807015" stroke-width="1" class="flatbush"/>
<path d="M 3172.5588 3577.3427 3186.7984 3575.9526 3227.3177 3572.3585 3240.4799 3731.0549 3242.1139 3756.6612 3242.4705 3774.771 3243.9944 3811.4527 3253.967 3837.5183 3254.7824 3846.862 3260.6105 3918.731 3292.4826 3959.3245 3311.3754 3983.4272 3295.9778 3995.8967 3292.9664 3996.0137 3222.3175 4006.3192 3125.3756 4020.6682 3099.9696 3909.1106 3066.101 3749.928 3177.2408 3694.5206 3165.1578 3597.6437 3167.0047 3584.7261 3172.5588 3577.3427 Z" fill="none" stroke="#012394" opacity="0.43859649122807015" stroke-width="1" class="flatbush"/>
<path d="M 3068.8795 3748.0815 3277.2735 3677.8626 3356.2305 4033.1288 3139.4068 4060.9316 3068.8795 3748.0815 Z" fill="none" stroke="#012394" opacity="0.43859649122807015" stroke-width="1" class="flatbush"/>
<path d="M 3067.4913 3752.4652 3378.3643 3725.7334 3391.9365 3923.471 3401.2724 3927.0689 3113.5854 3940.716 3067.4913 3752.4652 Z" fill="none" stroke="#012394" opacity="0.43859649122807015" stroke-width="1" class="flatbush"/>
<path d="M 3268.3488 4314.2931 3179.0906 3688.0606 3509.7947 3704.4673 3546.2328 4081.9145 3549.0221 4092.9896 3268.3488 4314.2931 Z" fill="none" stroke="#012394" opacity="0.43859649122807015" stroke-width="1" class="flatbush"/>
<path d="M 3066.1001 3747.1596 3508.8713 3708.159 3538.731 3973.9231 3453.6275 4169.6858 3360.9951 4241.7604 3342.4671 4256.5442 3292.4443 4306.4317 3171.9569 4332.3446 3066.1001 3747.1596 Z" fill="none" stroke="#012394" opacity="0.43859649122807015" stroke-width="1" class="flatbush"/>
<path d="M 3211.4768 3757.9469 3204.8418 3721.2804 3338.2534 3724.8646 3355.8916 3923.274 3266.387 3924.9 3226.0267 3872.4672 3217.6619 3797.0087 3204.2268 3720.0002 3211.4768 3757.9469 Z" fill="none" stroke="#012394" opacity="0.43859649122807015" stroke-width="1" class="flatbush"/>
<path d="M 3264.3243 3713.8562 3270.8126 3721.2348 3259.6724 3675.1039 3264.3116 3689.865 3271.7389 3721.2343 3268.2748 3739.4608 3272.4468 3745.8027 3254.7263 3738.4298 3264.3243 3713.8562 Z" fill="none" stroke="#012394" opacity="0.43859649122807015" stroke-width="1" class="flatbush"/>
<path d="M 3336.0974 3684.7494 3363.4046 4021.3554 3226.2718 4039.4317 3131.5275 4054.0116 3073.9878 3788.914 3205.739 3724.9584 3201.557 3695.6631 3336.0974 3684.7494 Z" fill="none" stroke="#012394" opacity="0.43859649122807015" stroke-width="1" class="flatbush"/>
<path d="M 3212.4716 3760.0208 3562.5903 3698.8879 3625.6856 3815.1046 3333.5237 4026.4506 3212.4716 3760.0208 Z" fill="none" stroke="#012394" opacity="0.43859649122807015" stroke-width="1" class="flatbush"/>
<path d="M 3177.2404 3693.5978 3303.2061 3671.3893 3396.1125 4087.5652 3234.8764 4106.1214 3177.2404 3693.5978 Z" fill="none" stroke="#012394" opacity="0.43859649122807015" stroke-width="1" class="flatbush"/>
<path d="M 3169.7814 3580.1118 3357.7906 3565.2508 3396.075 4031.257 3227.4356 4050.7388 3169.7814 3580.1118 Z" fill="none" stroke="#012394" opacity="0.43859649122807015" stroke-width="1" class="flatbush"/>
<path d="M 3196.3071 3682.3265 3324.7529 4035.5553 3148.203 4059.0995 3071.3699 3743.4586 3196.3071 3682.3265 Z" fill="none" stroke="#012394" opacity="0.43859649122807015" stroke-width="1" class="flatbush"/>
<path d="M 3146.6961 3753.1287 3130.0088 3720.3768 3196.6888 3684.5926 3210.8497 3758.4067 3217.824 3813.7727 3219.925 3848.1484 3222.2513 3869.1431 3228.508 3875.1389 3243.343 3897.2816 3221.5753 3908.3675 3166.461 3940.696 3166.2234 3926.6209 3155.0765 3857.6369 3148.3402 3809.8813 3141.8335 3755.2069 3146.6961 3753.1287 Z" fill="none" stroke="#012394" opacity="0.43859649122807015" stroke-width="1" class="flatbush"/>
<path d="M 2912.3559 3953.922 3181.021 3865.2398 3336.6361 3809.7863 3366.2559 3769.1636 3327.3236 3728.585 3216.1472 3697.271 3090.1729 3710.2411 3108.7724 3911.4148 3375.5412 3802.3793 3361.2346 4622.2205 3019.9895 4518.9327 2967.9743 4068.3686 2912.3559 3953.922 Z" fill="none" stroke="#012394" opacity="0.43859649122807015" stroke-width="1" class="flatbush"/>
<path d="M 2981.1871 3777.0261 3307.2075 3655.092 3463.1318 4075.8316 3140.6648 4125.2448 3063.9421 3748.7013 2981.1871 3777.0261 Z" fill="none" stroke="#012394" opacity="0.43859649122807015" stroke-width="1" class="flatbush"/>
<path d="M 3170.9911 3579.7754 3173.8299 3581.8997 3191.2088 3610.0325 3198.453 3684.7414 3216.5085 3834.7743 3340.4361 4022.8649 3176.144 4010.5801 3133.6913 3760.8874 3145.9757 3748.7243 3131.8371 3718.9705 3176.1398 3693.9113 3170.9911 3579.7754 Z" fill="none" stroke="#012394" opacity="0.43859649122807015" stroke-width="1" class="flatbush"/>
<path d="M 3066.1013 3750.8508 3198.3098 3684.5918 3302.7451 3675.311 3321.6301 3892.1627 3242.4163 3897.0513 3228.0584 3903.0575 3115.7446 3974.1744 3066.1013 3750.8508 Z" fill="none" stroke="#012394" opacity="0.43859649122807015" stroke-width="1" class="flatbush"/>
<path d="M 3164.6888 3583.8044 3226.2753 3571.3211 3374.9236 3562.9334 3392.2748 3890.0419 3396.0165 3943.5704 3116.6709 3973.251 3067.0295 3756.8486 3131.8617 3720.8375 3132.3259 3723.6056 3134.6429 3726.373 3135.5701 3728.6795 3136.0344 3731.4476 3146.6948 3749.8989 3130.4711 3718.0697 3200.3928 3682.0534 3177.7035 3693.5976 3164.6888 3583.8044 Z" fill="none" stroke="#012394" opacity="0.43859649122807015" stroke-width="1" class="flatbush"/>
<path d="M 3305.0597 3673.2336 3360.8672 4038.6643 3108.7858 3948.3332 3060.5439 3753.6209 3305.0597 3673.2336 Z" fill="none" stroke="#012394" opacity="0.43859649122807015" stroke-width="1" class="flatbush"/>
<path d="M 3065.6379 3750.3895 3170.7083 3581.9566 3187.3923 3609.6284 3198.5409 3683.4383 3234.66 3670.0417 3261.6543 3921.4993 3221.787 3867.0668 3217.1392 3834.768 3088.8332 3856.0468 3065.6379 3750.3895 Z" fill="none" stroke="#012394" opacity="0.43859649122807015" stroke-width="1" class="flatbush"/>
<path d="M 3074.4518 3791.4516 3180.9647 3736.9656 3427.3579 3712.8334 3611.7024 3718.2229 3514.5557 3867.8031 3529.4584 3965.6237 3441.5055 4066.3025 3347.018 4120.8293 3251.5914 4172.5808 3151.4818 4130.1609 3130.1284 4030.4738 3074.4518 3791.4516 Z" fill="none" stroke="#012394" opacity="0.43859649122807015" stroke-width="1" class="flatbush"/>
<path d="M 3032.572 3769.5013 3176.3137 3692.86 3164.5972 3586.2033 3172.0027 3576.6049 3295.7367 3566.2103 3332.3188 4026.0359 3072.1307 4061.3251 3032.572 3769.5013 Z" fill="none" stroke="#012394" opacity="0.43859649122807015" stroke-width="1" class="flatbush"/>
<path d="M 3208.6962 3689.9813 3402.8799 3685.73 3397.4892 3935.8248 3121.7297 3972.4148 3075.3343 3770.3151 3208.6962 3689.9813 Z" fill="none" stroke="#012394" opacity="0.43859649122807015" stroke-width="1" class="flatbush"/>
<path d="M 3294.3477 3566.6724 3323.7525 3563.8876 3326.7704 3577.0331 3365.7288 4033.3536 3134.3123 4066.4722 3064.2478 3748.5444 3173.9987 3694.522 3164.6888 3583.8044 3189.6926 3575.49 3294.3477 3566.6724 Z" fill="none" stroke="#012394" opacity="0.43859649122807015" stroke-width="1" class="flatbush"/>
<path d="M 3211.6293 3938.1376 3199.967 3763.2565 3362.0737 3747.942 3378.8608 3921.4306 3211.6293 3938.1376 Z" fill="none" stroke="#012394" opacity="0.43859649122807015" stroke-width="1" class="flatbush"/>
<path d="M 3080.01 3790.5269 3100.3809 3762.3742 3145.3129 3768.8168 3148.564 3790.5017 3165.2473 3809.4129 3168.5096 3856.0162 3167.364 3885.3189 3171.8809 3885.8938 3165.8642 3898.9327 3168.7657 3913.237 3169.9258 3917.8512 3158.3522 3937.2382 3133.8103 3967.245 3119.9049 3949.2521 3114.8003 3926.1798 3113.1769 3920.8734 3113.8705 3917.4121 3108.7664 3894.8019 3112.4718 3892.9547 3100.4144 3856.9657 3087.4313 3820.0553 3080.01 3790.5269 Z" fill="none" stroke="#012394" opacity="0.43859649122807015" stroke-width="1" class="flatbush"/>
<path d="M 3049.44 3795.1508 3520.0122 3739.5241 3539.6787 3999.7668 3533.4547 4322.8868 3227.6796 4550.2547 2981.0614 4566.9672 2903.1034 4044.3801 3006.8237 3789.6256 3049.44 3795.1508 Z" fill="none" stroke="#012394" opacity="0.43859649122807015" stroke-width="1" class="flatbush"/>
<path d="M 3024.8475 4082.3711 3356.8936 4042.8474 3457.6356 4177.0703 3355.7273 4238.0725 3402.6365 4457.7967 3057.578 4510.9389 3024.8475 4082.3711 Z" fill="none" stroke="#012394" opacity="0.43859649122807015" stroke-width="1" class="flatbush"/>
<path d="M 3333.0683 4039.6044 3226.509 4050.7393 3197.6842 3835.7 3319.9729 3831.0219 3333.0683 4039.6044 Z" fill="none" stroke="#012394" opacity="0.43859649122807015" stroke-width="1" class="flatbush"/>
<path d="M 3333.9728 4002.6819 3343.2592 4035.906 3138.4784 4056.3166 3089.2844 3820.9775 3108.7309 3796.9768 3218.0352 3771.0918 3228.2638 3849.5287 3269.066 3920.5725 3306.1564 3971.3157 3349.7389 4024.8253 3333.9728 4002.6819 Z" fill="none" stroke="#012394" opacity="0.43859649122807015" stroke-width="1" class="flatbush"/>
<path d="M 3185.2818 4071.5279 3237.5745 3941.8168 3422.9206 3992.471 3228.3894 4106.1246 3189.4566 4082.1418 3185.2818 4071.5279 Z" fill="none" stroke="#012394" opacity="0.43859649122807015" stroke-width="1" class="flatbush"/>
<path d="M 3359.1414 4241.7616 3255.1795 3942.7309 3294.2548 4228.8745 3349.874 4243.6139 3171.6327 3577.5738 3226.9705 3572.474 3294.1163 3566.9032 3359.1414 4241.7616 Z" fill="none" stroke="#012394" opacity="0.43859649122807015" stroke-width="1" class="flatbush"/>
<path d="M 3074.9156 3793.0664 3074.451 3788.9138 3204.5798 3722.1906 3204.1126 3713.4247 3304.6135 3702.9918 3304.6163 3707.8362 3330.5004 4006.8377 3266.0579 3926.3425 3125.4884 4012.7069 3074.9156 3793.0664 Z" fill="none" stroke="#012394" opacity="0.43859649122807015" stroke-width="1" class="flatbush"/>
<path d="M 3396.9878 4102.2132 3414.1564 4091.5739 3407.9042 4095.963 3403.7362 4099.1967 3396.9878 4102.2132 Z" fill="none" stroke="#012394" opacity="0.43859649122807015" stroke-width="1" class="flatbush"/>
<path d="M 3226.3483 3721.2575 3286.5618 3723.9945 3343.0912 3760.8729 3345.0033 3857.7703 3353.3892 3934.3682 3344.1791 4024.8288 3318.2613 4072.8442 3207.9956 4093.2106 3123.6468 4043.3992 3091.1933 3983.4132 3105.9583 3815.4346 3226.3483 3721.2575 Z" fill="none" stroke="#012394" opacity="0.43859649122807015" stroke-width="1" class="flatbush"/>
<path d="M 3167.9341 3592.1067 3149.4158 3606.8767 3164.2245 3581.0368 3258.6903 3568.0756 3299.6343 3907.6345 3251.4866 3968.5764 3199.5642 3894.7646 3167.9341 3592.1067 Z" fill="none" stroke="#012394" opacity="0.43859649122807015" stroke-width="1" class="flatbush"/>
<path d="M 3208.5405 3721.4737 3199.4188 3687.1297 3267.9634 3683.4049 3306.8696 3686.1516 3508.5334 3674.4003 3591.8965 3670.6403 3613.2268 3699.2258 3565.3728 3930.8632 3444.8759 4017.5278 3370.7593 4038.8085 3352.2263 4038.8202 3221.8038 3871.2475 3208.5405 3721.4737 Z" fill="none" stroke="#012394" opacity="0.43859649122807015" stroke-width="1" class="flatbush"/>
<path d="M 3176.3145 3694.521 3169.822 3675.1466 3197.6099 3673.2888 3209.653 3676.0514 3508.8241 3648.1825 3531.2921 3941.6246 3444.3478 4153.0752 3127.2302 3721.3006 3176.3145 3694.521 Z" fill="none" stroke="#012394" opacity="0.43859649122807015" stroke-width="1" class="flatbush"/>
<path d="M 3196.6883 3683.4392 3354.0847 3563.4079 3377.4053 3819.9121 3214.359 3832.9236 3089.2961 3855.1238 3064.2476 3748.083 3196.6883 3683.4392 Z" fill="none" stroke="#012394" opacity="0.43859649122807015" stroke-width="1" class="flatbush"/>
<path d="M 3162.5291 3954.773 3191.2622 3975.9894 3218.1235 3955.671 3271.8526 3933.4924 3301.4963 3923.3235 3295.9096 3874.4113 3289.3894 3811.6593 3277.3234 3770.1388 3147.7029 3952.0102 3092.9883 3815.4392 3129.1091 3789.5865 3171.7134 3765.576 3202.2832 3763.7168 3247.6701 3752.6212 3274.5378 3758.1439 3162.5291 3954.773 Z" fill="none" stroke="#012394" opacity="0.43859649122807015" stroke-width="1" class="flatbush"/>
<path d="M 3133.7695 3862.4907 3123.5535 3796.9713 3193.9458 3763.7206 3376.4324 3747.9328 3383.9737 3947.2703 3224.6166 3970.4358 3153.2789 3992.62 3133.7695 3862.4907 Z" fill="none" stroke="#012394" opacity="0.43859649122807015" stroke-width="1" class="flatbush"/>
<path d="M 3179.557 3695.4423 3197.6156 3685.7455 3208.754 3734.1846 3308.334 3729.5189 3329.3422 4006.8384 3452.2249 4152.6079 3360.9878 4230.2197 3272.9841 4315.6756 3179.557 3695.4423 Z" fill="none" stroke="#012394" opacity="0.43859649122807015" stroke-width="1" class="flatbush"/>
<path d="M 3133.8483 4064.6262 3065.1752 3751.7739 3179.091 3688.9834 3167.0039 3582.8808 3296.6629 3566.2098 3355.0092 3560.6395 3504.1344 3573.4513 3533.134 3927.7786 3539.7097 4037.6117 3133.8483 4064.6262 Z" fill="none" stroke="#012394" opacity="0.43859649122807015" stroke-width="1" class="flatbush"/>
<path d="M 3065.1737 3747.1599 3197.6137 3681.5933 3334.6999 3671.3708 3362.71 4022.0481 3198.7057 4043.3678 3162.9151 3771.1166 3080.0176 3813.5979 3065.1737 3747.1599 Z" fill="none" stroke="#012394" opacity="0.43859649122807015" stroke-width="1" class="flatbush"/>
<path d="M 3169.7814 3580.1118 3355.0103 3562.4848 3503.2067 3571.6068 3536.8906 3989.6158 3522.0812 4009.9344 3492.4563 4045.0338 3232.0808 4074.7369 3169.7814 3580.1118 Z" fill="none" stroke="#012394" opacity="0.43859649122807015" stroke-width="1" class="flatbush"/>
<path d="M 3268.8135 4316.6012 3067.0257 3744.8524 3306.029 3748.4371 3448.5172 4151.6874 3268.8135 4316.6012 Z" fill="none" stroke="#012394" opacity="0.43859649122807015" stroke-width="1" class="flatbush"/>
<path d="M 3190.2046 3684.3648 3504.1949 3650.9542 3513.5262 3737.6837 3536.0114 4047.7685 3228.3731 4072.8925 3189.3478 3839.3953 3089.2946 3850.5094 3081.8699 3811.7515 3078.1565 3788.6819 3148.5483 3751.7438 3132.7878 3720.3757 3190.2046 3684.3648 Z" fill="none" stroke="#012394" opacity="0.43859649122807015" stroke-width="1" class="flatbush"/>
<path d="M 3066.0992 3744.3913 3197.6108 3675.1343 3612.5924 3677.6217 3559.1236 3983.1363 3488.797 4106.8845 3403.5423 4111.5615 3238.6026 4144.8919 3225.5845 4055.3551 3075.4717 4076.6474 3040.1927 3853.2936 3080.9542 3844.052 3066.0992 3744.3913 Z" fill="none" stroke="#012394" opacity="0.43859649122807015" stroke-width="1" class="flatbush"/>
<path d="M 3069.6551 3999.5733 3070.1174 3996.3425 3115.0487 3971.6364 3166.6931 3941.8496 3161.1196 3907.9333 3156.4754 3879.786 3150.9008 3841.4882 3148.1075 3807.1128 3141.6121 3780.8148 3210.1554 3759.5605 3215.7331 3800.3925 3217.1293 3814.0037 3219.9245 3847.2255 3223.4108 3872.1419 3264.6681 3926.3433 3075.2295 4044.3394 3069.6551 3999.5733 Z" fill="none" stroke="#012394" opacity="0.43859649122807015" stroke-width="1" class="flatbush"/>
<path d="M 3175.2869 3461.0986 3251.2324 3473.9778 3506.8522 3495.9526 3523.8227 3870.5644 3210.6927 3916.91 3168.8599 3591.1837 3175.2869 3461.0986 Z" fill="none" stroke="#012394" opacity="0.43859649122807015" stroke-width="1" class="flatbush"/>
<path d="M 3073.5248 3789.6063 3205.9693 3722.19 3225.4216 3720.3352 3239.3222 3731.4015 3516.2826 3709.0759 3534.0815 3953.6211 3133.8483 4064.6262 3073.5248 3789.6063 Z" fill="none" stroke="#012394" opacity="0.43859649122807015" stroke-width="1" class="flatbush"/>
<path d="M 3198.5417 3685.2838 3223.6427 3872.6033 3333.0495 4008.2207 3332.1389 4034.9897 3131.0693 4067.3965 3068.8807 3751.7727 3198.5417 3685.2838 Z" fill="none" stroke="#012394" opacity="0.43859649122807015" stroke-width="1" class="flatbush"/>
<path d="M 3082.7982 3817.2883 3210.6136 3748.9482 3257.0653 4005.4941 3128.2648 4003.7062 3082.7982 3817.2883 Z" fill="none" stroke="#012394" opacity="0.43859649122807015" stroke-width="1" class="flatbush"/>
<path d="M 3065.1749 3750.8511 3054.9863 3755.4682 3196.6879 3682.5164 3207.8272 3733.2623 3306.9424 3725.8286 3327.4876 4004.5319 3358.0861 4036.8199 3077.3242 4073.8774 3029.0512 3767.4722 3065.1749 3750.8511 Z" fill="none" stroke="#012394" opacity="0.43859649122807015" stroke-width="1" class="flatbush"/>
<path d="M 3194.6659 3574.6481 3349.2948 3560.9199 3501.5108 3570.4456 3518.5764 3762.9918 3311.5651 3774.3737 3315.6192 3832.1503 3326.9777 3957.3387 3215.7959 3971.04 3176.998 3690.1838 3174.5342 3583.4773 3194.6659 3574.6481 Z" fill="none" stroke="#012394" opacity="0.43859649122807015" stroke-width="1" class="flatbush"/>
<path d="M 3065.9853 3750.5048 3198.6568 3683.7843 3303.6712 3674.8492 3331.9011 4024.8362 3131.7591 4053.8961 3065.9853 3750.5048 Z" fill="none" stroke="#012394" opacity="0.43859649122807015" stroke-width="1" class="flatbush"/>
<path d="M 3170.706 3576.4209 3229.3532 4181.8239 3396.1439 4134.6452 3178.1119 3568.1142 3612.5453 3625.0283 3445.2427 4108.763 3439.6837 4110.6133 3170.706 3576.4209 Z" fill="none" stroke="#012394" opacity="0.43859649122807015" stroke-width="1" class="flatbush"/>
<path d="M 2996.6449 3837.6163 2971.1471 3743.9553 3033.2263 3790.0799 3226.8822 3866.1414 2996.6449 3837.6163 Z" fill="none" stroke="#012394" opacity="0.43859649122807015" stroke-width="1" class="flatbush"/>
<path d="M 3238.3012 3542.2532 3486.5212 3553.1676 3637.2111 4258.1651 3301.6778 4243.6424 3238.3012 3542.2532 Z" fill="none" stroke="#012394" opacity="0.43859649122807015" stroke-width="1" class="flatbush"/>
<path d="M 3073.5245 3788.6834 3185.6063 3759.1104 3338.4526 3749.8022 3355.2331 3919.5997 3265.3614 3923.3433 3124.564 4018.4763 3073.5245 3788.6834 Z" fill="none" stroke="#012394" opacity="0.43859649122807015" stroke-width="1" class="flatbush"/>
<path d="M 3176.3449 3764.6512 3500.563 3745.0761 3536.9433 4054.2293 3253.4888 4257.5176 3176.3449 3764.6512 Z" fill="none" stroke="#012394" opacity="0.43859649122807015" stroke-width="1" class="flatbush"/>
<path d="M 3202.1438 3462.0091 3466.6044 4172.4458 3322.093 4285.1785 3202.1438 3462.0091 Z" fill="none" stroke="#012394" opacity="0.43859649122807015" stroke-width="1" class="flatbush"/>
<path d="M 3093.9339 3870.8114 3084.671 3876.352 3304.9975 3564.3598 3882.8579 3497.428 4007.2704 3735.3186 3183.0753 4321.2596 3097.6366 3861.5811 3093.9339 3870.8114 Z" fill="none" stroke="#012394" opacity="0.43859649122807015" stroke-width="1" class="flatbush"/>
<path d="M 3181.878 3707.4369 3193.8939 3649.3003 3601.4238 3617.6569 3612.6147 3702.5353 3655.3922 3879.6788 3251.6033 4195.6609 3181.878 3707.4369 Z" fill="none" stroke="#012394" opacity="0.43859649122807015" stroke-width="1" class="flatbush"/>
<path d="M 3200.4669 3843.0817 3455.4878 4178.9164 3060.5583 3799.7615 3230.0678 3749.8616 3230.0963 3807.999 3200.4669 3843.0817 Z" fill="none" stroke="#012394" opacity="0.43859649122807015" stroke-width="1" class="flatbush"/>
<path d="M 3066.0989 3743.4685 3203.1758 3690.818 3367.1699 3749.7843 3468.4484 4159.5198 3178.4592 4363.7362 3066.0989 3743.4685 Z" fill="none" stroke="#012394" opacity="0.43859649122807015" stroke-width="1" class="flatbush"/>
<path d="M 3134.7735 4060.9334 3186.494 3672.3711 3463.3819 3573.4823 3492.0917 3570.6928 3557.2279 3932.3736 3134.7735 4060.9334 Z" fill="none" stroke="#012394" opacity="0.43859649122807015" stroke-width="1" class="flatbush"/>
<path d="M 3030.8965 3740.7107 3299.5796 3810.7308 3303.2824 3805.6531 3313.9355 3804.2627 3327.3737 3813.0218 3341.7317 3810.2446 3357.9459 3813.0031 3348.6799 3810.2404 3350.0687 3808.8552 3361.651 3812.078 3373.6978 3817.146 3385.277 3815.2927 3381.1108 3819.4483 3397.7875 3820.8216 3386.7255 3904.8124 3387.6623 3920.5019 3415.5008 3982.3229 3410.8855 4008.1708 3390.5175 4034.9529 3296.2336 4038.9335 3294.6119 4038.9344 3296.9274 4036.8562 3291.3696 4040.5516 3274.6901 4041.0223 3262.1793 4039.1828 3259.8634 4040.5686 3257.549 4044.7236 3238.5521 4043.8103 3233.687 4043.5819 3224.6527 4044.7402 3214.9237 4046.591 3205.1945 4047.9802 3191.2979 4055.3712 3185.74 4059.9891 3133.8454 4057.2415 3131.0568 4035.0888 3105.0988 4001.8688 3112.4508 3835.7351 3090.2388 3902.1919 3097.6379 3865.2727 3067.9788 3828.3675 3025.3216 3679.8109 3018.8373 3678.8899 3017.9181 3705.6494 3030.8965 3740.7107 Z" fill="none" stroke="#012394" opacity="0.43859649122807015" stroke-width="1" class="flatbush"/>
<path d="M 3356.2334 4037.7441 3126.4373 4071.0907 3059.6158 3748.0845 3306.9144 3676.9234 3356.2334 4037.7441 Z" fill="none" stroke="#012394" opacity="0.43859649122807015" stroke-width="1" class="flatbush"/>
<path d="M 2998.3601 3278.5199 3096.5657 3449.1369 3338.6081 4006.3713 3418.7223 4622.1826 3034.8676 4674.0945 3042.2671 4610.3604 2932.8438 4539.2701 2908.7108 4358.2752 2545.4407 3932.6794 2998.3601 3278.5199 Z" fill="none" stroke="#012394" opacity="0.43859649122807015" stroke-width="1" class="flatbush"/>
<path d="M 3211.5426 3754.4845 3422.6794 3645.4782 3572.0235 3898.212 3523.0226 4028.3946 3372.9178 4045.1181 3227.3491 3873.5244 3218.0639 3831.0761 3211.5426 3754.4845 Z" fill="none" stroke="#012394" opacity="0.43859649122807015" stroke-width="1" class="flatbush"/>
<path d="M 3176.3145 3694.521 3160.5194 3580.1157 3348.5276 3563.4114 3383.1032 4033.1116 3132.9209 4062.7803 3067.9537 3749.9274 3176.3145 3694.521 Z" fill="none" stroke="#012394" opacity="0.43859649122807015" stroke-width="1" class="flatbush"/>
<path d="M 3064.2471 3746.2374 3179.0922 3691.7516 3163.3022 3590.2634 3173.4838 3574.5745 3356.8627 3562.4836 3505.9867 3573.4499 3522.8674 3834.5726 3535.0517 4007.1549 3333.0572 4021.1433 3333.0672 4037.7583 3135.7012 4063.7023 3064.2471 3746.2374 Z" fill="none" stroke="#012394" opacity="0.43859649122807015" stroke-width="1" class="flatbush"/>
<path d="M 3071.6717 3788.684 3205.9693 3722.19 3449.9117 4157.687 3173.8276 4371.1253 3071.6717 3788.684 Z" fill="none" stroke="#012394" opacity="0.43859649122807015" stroke-width="1" class="flatbush"/>
<path d="M 3188.3049 3579.1811 3196.6883 3683.4392 3305.0618 3676.9245 3330.2684 4006.1455 3221.7875 3867.9897 3203.7292 3885.5335 3163.9969 3590.2631 3172.5611 3582.8785 3188.3049 3579.1811 Z" fill="none" stroke="#012394" opacity="0.43859649122807015" stroke-width="1" class="flatbush"/>
<path d="M 3068.9601 3999.3427 3072.6666 3999.5723 3115.5128 3973.713 3166.4613 3941.3882 3162.0481 3912.5476 3157.1706 3880.7086 3153.2168 3841.2565 3146.0236 3808.4979 3145.3176 3780.5826 3187.2291 3762.8008 3210.1548 3758.1763 3218.0567 3816.0797 3218.9983 3847.6874 3223.4117 3873.9878 3253.3113 3913.4279 3266.0574 3925.4196 3215.3453 3958.9028 3125.2578 4015.4761 3077.3147 4045.2618 3068.9601 3999.3427 Z" fill="none" stroke="#012394" opacity="0.43859649122807015" stroke-width="1" class="flatbush"/>
<path d="M 3180.9485 3700.0553 3175.383 3682.5259 3185.5448 3620.7011 3183.6894 3614.2434 3279.09 3611.4284 3217.0316 3609.6147 3402.255 3576.2933 3412.4684 3613.1918 3410.6644 3684.2401 3382.011 3779.3044 3358.0254 3939.9031 3202.3881 3990.7525 3143.0354 3865.2557 3102.2375 3772.9858 3219.8622 3717.5696 3180.9485 3700.0553 Z" fill="none" stroke="#012394" opacity="0.43859649122807015" stroke-width="1" class="flatbush"/>
<path d="M 3192.9827 3682.5181 3240.2241 3677.177 3253.2312 3752.8361 3192.0001 3765.1859 3080.8626 3811.1299 3071.658 3746.2351 3192.9827 3682.5181 Z" fill="none" stroke="#012394" opacity="0.43859649122807015" stroke-width="1" class="flatbush"/>
<path d="M 3067.0279 3751.7733 3198.5413 3684.361 3333.7742 3672.2941 3363.6442 4034.0472 3076.3975 4073.8777 3031.8301 3766.5486 3067.0279 3751.7733 Z" fill="none" stroke="#012394" opacity="0.43859649122807015" stroke-width="1" class="flatbush"/>
<path d="M 3191.0161 3577.6059 3294.4239 3565.5357 3329.1575 4003.3014 3217.0876 3866.4175 3191.0161 3577.6059 Z" fill="none" stroke="#012394" opacity="0.43859649122807015" stroke-width="1" class="flatbush"/>
<path d="M 3078.166 3817.2899 3072.5948 3778.5327 3195.7586 3676.0578 3453.2783 3689.7464 3452.6799 4141.0679 3116.225 4020.3255 3078.166 3817.2899 Z" fill="none" stroke="#012394" opacity="0.43859649122807015" stroke-width="1" class="flatbush"/>
<path d="M 3190.2046 3684.3648 3181.8219 3580.1066 3264.2445 3562.537 3493.9462 3573.4592 3534.1153 3995.1562 3071.7644 4074.8024 3042.0211 3769.3141 3057.7688 3766.5409 3190.2046 3684.3648 Z" fill="none" stroke="#012394" opacity="0.43859649122807015" stroke-width="1" class="flatbush"/>
<path d="M 3063.4337 3757.8067 3201.4319 3689.4688 3232.0246 3739.2828 3273.5649 3761.2201 3297.7645 3963.3208 3216.2858 3970.5395 3126.4239 4013.96 3063.4337 3757.8067 Z" fill="none" stroke="#012394" opacity="0.43859649122807015" stroke-width="1" class="flatbush"/>
<path d="M 3030.9042 3768.3944 3198.5409 3683.4383 3189.2514 3624.3901 3185.5247 3575.4918 3339.2641 3560.6492 3501.3551 3572.5309 3697.9362 3803.962 3572.9729 3924.9766 3458.1403 4004.4452 3401.6336 4029.4071 3072.6913 4075.7252 3030.9042 3768.3944 Z" fill="none" stroke="#012394" opacity="0.43859649122807015" stroke-width="1" class="flatbush"/>
<path d="M 3079.9955 3747.1551 3200.3952 3687.1284 3286.7338 4035.9389 3138.4773 4053.5473 3048.503 3760.0841 3079.9955 3747.1551 Z" fill="none" stroke="#012394" opacity="0.43859649122807015" stroke-width="1" class="flatbush"/>
<path d="M 3190.2419 3767.4135 3315.2966 3755.3527 3335.8477 4038.6797 3232.0717 4056.275 3190.2419 3767.4135 Z" fill="none" stroke="#012394" opacity="0.43859649122807015" stroke-width="1" class="flatbush"/>
<path d="M 2972.8991 3706.7676 2977.3282 3629.9974 3061.7986 3618.9027 3178.8773 3624.0257 3210.7477 3640.2502 3214.4734 3683.8 3166.2888 3643.9608 3144.8081 3665.3762 3347.1634 3754.5953 3200.361 3612.9441 3627.9271 3631.8421 3731.4328 4127.9 3038.9833 4156.418 2972.8991 3706.7676 Z" fill="none" stroke="#012394" opacity="0.43859649122807015" stroke-width="1" class="flatbush"/>
<path d="M 3223.7299 4052.5868 3205.1151 3877.2266 3193.0569 3846.7766 3204.1732 3844.0029 3372.7684 3812.5323 3406.2693 4033.0962 3223.7299 4052.5868 Z" fill="none" stroke="#012394" opacity="0.43859649122807015" stroke-width="1" class="flatbush"/>
<path d="M 3054.982 3741.6264 3207.8035 3682.5113 3280.9721 3665.8654 3300.4235 3664.9319 3314.5155 4005.4625 3348.0112 4228.8429 3273.9021 4299.0553 3142.2942 4330.5102 3121.9037 4336.0582 3054.982 3741.6264 Z" fill="none" stroke="#012394" opacity="0.43859649122807015" stroke-width="1" class="flatbush"/>
<path d="M 3203.1916 3724.9596 3648.7205 3680.3567 3835.1151 3864.7261 3465.6886 4187.2178 3203.1916 3724.9596 Z" fill="none" stroke="#012394" opacity="0.43859649122807015" stroke-width="1" class="flatbush"/>
<path d="M 3171.633 3578.2657 3374.4614 3564.3176 3508.7755 3586.3644 3539.6364 3948.0786 3337.7027 4041.4478 3147.7473 4061.8514 3129.1925 4006.475 3087.4306 3818.2096 3082.7777 3756.3821 3188.3578 3697.2838 3171.633 3578.2657 Z" fill="none" stroke="#012394" opacity="0.43859649122807015" stroke-width="1" class="flatbush"/>
<path d="M 3064.2482 3749.9286 3197.6142 3682.516 3173.5339 3690.8312 3166.0785 3584.7265 3175.3365 3575.4963 3301.2939 3566.2072 3330.2883 4039.6061 3131.996 4067.3962 3064.2482 3749.9286 Z" fill="none" stroke="#012394" opacity="0.43859649122807015" stroke-width="1" class="flatbush"/>
<path d="M 3066.1013 3750.8508 3194.8361 3684.3627 3510.6879 3662.4828 3521.0233 3845.6486 3094.864 3880.9631 3066.1013 3750.8508 Z" fill="none" stroke="#012394" opacity="0.43859649122807015" stroke-width="1" class="flatbush"/>
<path d="M 2987.3869 3865.305 3183.7544 3760.9568 3243.0392 3754.4691 3243.0672 3809.8382 3254.2005 3841.2097 3264.4378 3928.8815 3019.4081 4079.8949 2987.3869 3865.305 Z" fill="none" stroke="#012394" opacity="0.43859649122807015" stroke-width="1" class="flatbush"/>
<path d="M 3253.3578 4003.65 3459.2247 4219.5354 3454.6377 4284.1679 3461.1707 4345.1031 3453.7954 4400.5119 3423.228 4434.7007 3388.9295 4437.4943 3316.5946 4393.2145 3312.8524 4334.1203 3272.0523 4306.4428 3279.4385 4252.8875 3284.9682 4195.6432 3238.5532 4046.1179 3253.3578 4003.65 Z" fill="none" stroke="#012394" opacity="0.43859649122807015" stroke-width="1" class="flatbush"/>
<path d="M 3190.1859 3642.8432 3359.7022 3659.3603 3429.4179 4008.1579 3213.4998 3975.0561 3157.7913 3701.9107 3190.1859 3642.8432 Z" fill="none" stroke="#012394" opacity="0.43859649122807015" stroke-width="1" class="flatbush"/>
<path d="M 3132.923 4068.3189 3060.5436 3752.6981 3196.6879 3682.5164 3222.7131 3866.1434 3354.3784 4034.9761 3132.923 4068.3189 Z" fill="none" stroke="#012394" opacity="0.43859649122807015" stroke-width="1" class="flatbush"/>
<path d="M 3173.485 3577.3423 3225.3506 3574.5507 3250.3082 3477.6684 3505.9231 3492.2632 3505.9896 3577.1403 3532.191 3907.4745 3268.1439 3928.8796 3221.7866 3866.1439 3218.0652 3833.8447 3196.7581 3836.6233 3181.8898 3734.1969 3073.5245 3788.6834 3067.0273 3749.9277 3176.3137 3692.6755 3173.485 3577.3423 Z" fill="none" stroke="#012394" opacity="0.43859649122807015" stroke-width="1" class="flatbush"/>
<path d="M 3090.2106 3820.0544 3183.756 3764.648 3207.8397 3760.023 3264.4329 3919.652 3349.7383 4023.9023 3139.4043 4054.47 3090.2106 3820.0544 Z" fill="none" stroke="#012394" opacity="0.43859649122807015" stroke-width="1" class="flatbush"/>
<path d="M 3152.3021 3781.5884 3162.3138 3594.234 3236.4017 3575.7474 3316.0545 3575.7044 3365.3461 3589.5378 3379.2968 3678.1055 3410.3646 3755.3517 3432.6425 3819.011 3459.5748 3908.5126 3430.0834 3939.9273 3376.3815 3999.0354 3279.116 4051.7073 3210.1246 4068.3264 3140.619 4056.3563 3100.2167 4047.1093 3092.7779 3973.2689 3105.7256 3904.9645 3129.793 3847.7352 3155.0984 3823.115 3152.3021 3781.5884 Z" fill="none" stroke="#012394" opacity="0.43859649122807015" stroke-width="1" class="flatbush"/>
<path d="M 3067.9564 3758.2325 3512.5773 3709.0789 3531.2779 3924.0883 3114.3537 3971.4059 3067.9564 3758.2325 Z" fill="none" stroke="#012394" opacity="0.43859649122807015" stroke-width="1" class="flatbush"/>
<path d="M 3296.1022 3904.3785 3262.7117 3865.5467 3319.1931 3880.902 3279.3574 3942.515 3270.5301 3895.68 3296.1022 3904.3785 Z" fill="none" stroke="#012394" opacity="0.43859649122807015" stroke-width="1" class="flatbush"/>
<path d="M 3171.6766 3578.6352 3276.6742 3844.9122 3343.6592 4024.7488 3280.0854 4047.8944 3177.0818 3935.8592 3140.9846 3754.8458 3177.8893 3698.4537 3166.7095 3614.1744 3171.6766 3578.6352 Z" fill="none" stroke="#012394" opacity="0.43859649122807015" stroke-width="1" class="flatbush"/>
<path d="M 3131.3983 3720.3763 3148.5476 3750.1289 3181.1956 3735.3506 3226.4667 3963.9739 3126.4162 4015.7064 3064.3293 4006.4977 3042.9548 3794.2299 3081.8634 3792.372 3076.2916 3751.7703 3131.3983 3720.3763 Z" fill="none" stroke="#012394" opacity="0.43859649122807015" stroke-width="1" class="flatbush"/>
<path d="M 3184.5981 3574.5696 3355.008 3558.7943 3393.2944 4030.3358 3355.3062 4036.8216 3225.4956 3872.6024 3108.7852 3946.4872 3065.174 3748.0827 3196.6874 3681.5937 3184.5981 3574.5696 Z" fill="none" stroke="#012394" opacity="0.43859649122807015" stroke-width="1" class="flatbush"/>
<path d="M 3199.4668 3682.5152 3408.7999 3666.7098 3437.7023 3930.6202 3232.0197 3951.0494 3199.4668 3682.5152 Z" fill="none" stroke="#012394" opacity="0.43859649122807015" stroke-width="1" class="flatbush"/>
<path d="M 3101.3583 3905.8798 3106.9101 3885.5734 3140.2106 3750.8243 3234.6662 3682.4983 3319.9117 3726.7438 3403.3573 3837.4294 3425.6579 3931.5516 3366.4083 4009.1231 3305.2651 4033.1593 3210.7944 4132.9043 3116.2695 4140.3293 3043.9668 4084.9651 2964.2653 4057.2923 2956.846 4027.7556 2953.1138 3898.5374 3101.3583 3905.8798 Z" fill="none" stroke="#012394" opacity="0.43859649122807015" stroke-width="1" class="flatbush"/>
<path d="M 3064.3141 3958.5011 3355.9411 3569.865 3418.3704 4112.4745 3181.1776 4221.545 3167.2666 4201.2398 3064.3141 3958.5011 Z" fill="none" stroke="#012394" opacity="0.43859649122807015" stroke-width="1" class="flatbush"/>
<path d="M 3187.6088 3575.9522 3189.9247 3576.8738 3505.9857 3572.0659 3528.9228 3876.0977 3269.0705 3928.8791 3225.2646 3873.7561 3187.6088 3575.9522 Z" fill="none" stroke="#012394" opacity="0.43859649122807015" stroke-width="1" class="flatbush"/>
<path d="M 3335.6345 3685.211 3363.6362 4021.3552 3224.3371 3871.68 3199.4731 3696.3561 3335.6345 3685.211 Z" fill="none" stroke="#012394" opacity="0.43859649122807015" stroke-width="1" class="flatbush"/>
<path d="M 3253.8707 3699.573 3496.0047 3624.3865 3509.0302 3698.1924 3532.5945 3822.3396 3513.1896 3886.0344 3478.0435 3947.1912 3390.0277 3958.3292 3325.8704 3955.6355 3288.5675 3938.5052 3255.1887 3894.2215 3217.1627 3812.1036 3223.8416 3791.7906 3220.1094 3736.4244 3252.961 3731.8698 3253.8707 3699.573 Z" fill="none" stroke="#012394" opacity="0.43859649122807015" stroke-width="1" class="flatbush"/>
<path d="M 3178.1671 3694.5201 3199.4672 3683.4379 3333.7747 3673.2168 3363.6448 4034.9703 3229.2907 4054.4302 3178.1671 3694.5201 Z" fill="none" stroke="#012394" opacity="0.43859649122807015" stroke-width="1" class="flatbush"/>
<path d="M 3013.33 3871.7589 3078.1706 3831.1327 3379.26 3822.6795 3390.4181 3884.5056 3274.6079 3888.2667 3246.8433 3948.273 3245.9637 4040.5758 3210.7666 4073.824 3041.1765 4049.8884 3013.33 3871.7589 Z" fill="none" stroke="#012394" opacity="0.43859649122807015" stroke-width="1" class="flatbush"/>
<path d="M 3071.6607 3754.5402 3306.888 3630.7888 3364.4569 3854.0666 3119.9142 3974.1728 3071.6607 3754.5402 Z" fill="none" stroke="#012394" opacity="0.43859649122807015" stroke-width="1" class="flatbush"/>
<path d="M 3205.061 3760.9471 3200.4011 3700.0466 3508.8524 3684.168 3545.3175 4095.762 3466.6037 4171.5226 3223.6422 3871.6804 3205.061 3760.9471 Z" fill="none" stroke="#012394" opacity="0.43859649122807015" stroke-width="1" class="flatbush"/>
<path d="M 3082.7982 3817.2883 3208.7644 3756.3314 3350.6729 4036.8245 3132.9216 4064.6265 3082.7982 3817.2883 Z" fill="none" stroke="#012394" opacity="0.43859649122807015" stroke-width="1" class="flatbush"/>
<path d="M 3218.3044 3849.7642 3273.2419 3932.5687 3125.9163 3919.7149 3112.9409 3909.1059 3101.3522 3888.8056 3092.5302 3830.205 3070.2809 3784.9932 3083.2384 3748.9996 3095.2768 3736.538 3189.2797 3687.5948 3204.5648 3689.8946 3214.3513 3816.7736 3218.3044 3849.7642 Z" fill="none" stroke="#012394" opacity="0.43859649122807015" stroke-width="1" class="flatbush"/>
<path d="M 3205.9023 3578.2504 3246.7602 3784.9198 3104.1196 3855.1186 3067.969 3797.9135 3059.6012 3701.0236 3205.9023 3578.2504 Z" fill="none" stroke="#012394" opacity="0.43859649122807015" stroke-width="1" class="flatbush"/>
<path d="M 3067.9575 3761.9237 3178.1747 3712.0522 3202.3548 3918.7597 3211.6384 3957.5201 3128.268 4012.0136 3078.1483 3763.766 3067.9575 3761.9237 Z" fill="none" stroke="#012394" opacity="0.43859649122807015" stroke-width="1" class="flatbush"/>
<path d="M 3178.1671 3694.5201 3335.6329 3682.4428 3367.3514 4034.9679 3134.7757 4066.472 3066.1013 3750.8508 3178.1671 3694.5201 Z" fill="none" stroke="#012394" opacity="0.43859649122807015" stroke-width="1" class="flatbush"/>
<path d="M 3185.5251 3576.4144 3229.9821 3575.471 3305.9258 3568.0497 3382.7934 3558.7766 3508.774 3584.5191 3519.0888 3743.216 3539.6576 3973.9224 3516.5164 4003.4776 3444.3498 4155.8447 3360.9881 4230.6813 3262.754 4251.0498 3223.7415 4076.5871 3134.7511 4003.7037 3077.2183 3752.6928 3070.7224 3717.6295 3103.1381 3701.0091 3131.8433 3673.3166 3140.1631 3630.8695 3157.7465 3593.9563 3185.5251 3576.4144 Z" fill="none" stroke="#012394" opacity="0.43859649122807015" stroke-width="1" class="flatbush"/>
<path d="M 3174.4622 3695.4445 3196.6887 3684.3619 3334.7016 3674.139 3360.8294 3978.6669 3224.5691 3872.6028 3196.7586 3837.5462 3174.4622 3695.4445 Z" fill="none" stroke="#012394" opacity="0.43859649122807015" stroke-width="1" class="flatbush"/>
<path d="M 3043.3749 3647.5112 2979.4545 3612.005 3090.9969 3413.1623 3097.4898 3443.6017 3187.8563 3611.4735 3198.0775 3682.9772 3221.324 3867.5284 3326.0971 4003.6097 3447.1307 4156.7659 3400.8157 4191.418 3275.7666 4318.9058 3114.9532 4340.2159 3066.1818 4004.1895 3027.1982 3766.5499 3062.8588 3750.3904 3043.3749 3647.5112 Z" fill="none" stroke="#012394" opacity="0.43859649122807015" stroke-width="1" class="flatbush"/>
<path d="M 3207.4851 3657.422 3288.9917 3647.2308 3304.7788 3718.2715 3353.901 3760.6899 3352.1301 3892.6601 3285.4607 3963.767 3147.401 3963.8328 3101.0512 3904.7807 3116.7424 3744.1976 3095.4267 3717.445 3207.4851 3657.422 Z" fill="none" stroke="#012394" opacity="0.43859649122807015" stroke-width="1" class="flatbush"/>
<path d="M 3200.4654 3839.8517 3329.316 3962.9952 3368.7511 4050.1977 3124.5773 4053.5527 3200.4654 3839.8517 Z" fill="none" stroke="#012394" opacity="0.43859649122807015" stroke-width="1" class="flatbush"/>
<path d="M 2987.3274 3611.5419 3499.5034 3573.4549 3542.4661 4008.9949 3123.6321 4004.631 3089.2108 3605.9766 2987.3274 3611.5419 Z" fill="none" stroke="#012394" opacity="0.43859649122807015" stroke-width="1" class="flatbush"/>
<path d="M 3190.4045 3614.0097 3192.0402 3646.7638 3198.5412 3684.1303 3206.2066 3734.4165 3307.6374 3726.2896 3330.965 4008.9142 3368.7539 4054.5823 3230.9217 4073.3528 3163.5346 3592.1086 3165.0374 3586.8028 3171.1701 3578.7273 3190.4045 3614.0097 Z" fill="none" stroke="#012394" opacity="0.43859649122807015" stroke-width="1" class="flatbush"/>
<path d="M 3080.2415 3790.2962 3203.8857 3723.5751 3206.9014 3734.4162 3482.9373 3712.3315 3498.3755 3910.7316 3264.4368 3927.0356 3124.5626 4014.7841 3080.2415 3790.2962 Z" fill="none" stroke="#012394" opacity="0.43859649122807015" stroke-width="1" class="flatbush"/>
<path d="M 3132.9216 4064.6265 3064.2441 3737.0097 3158.667 3580.1165 3326.3036 3570.8057 3363.6437 4033.1242 3132.9216 4064.6265 Z" fill="none" stroke="#012394" opacity="0.43859649122807015" stroke-width="1" class="flatbush"/></svg>