<?xml version="1.0"?><svg xmlns="http://www.w3.org/2000/svg" version="1.2" baseProfile="tiny" width="6000" height="5918" viewBox="0 0 6000 5918" stroke-linecap="round" stroke-linejoin="round"><path d="M 2019.7997 4417.2041 2031.6461 4382.5853 2042.7537 4374.6494 2062.6947 4359.8902 2077.0662 4355.0531 2089.1191 4343.2979 2097.3377 4351.6994 2106.0402 4368.936 2135.8029 4359.0214 2149.4783 4354.8752 2160.1373 4376.8062 2172.0909 4384.9667 2184.6009 4392.1308 2187.5462 4414.5348 2190.079 4441.547 2192.077 4455.3877 2194.2339 4471.2668 2183.8669 4486.0415 2168.5711 4505.1073 2153.5426 4518.5121 2139.3771 4534.3325 2132.8193 4543.2739 2123.5472 4555.9576 2108.7279 4534.013 2099.001 4522.6928 2087.8349 4506.2359 2079.0414 4486.8359 2068.5684 4471.0783 2062.1074 4446.0873 2057.9572 4424.0929 2023.9391 4419.5838 2019.7997 4417.2041 Z" fill="none" stroke="#865327" opacity="0.6" stroke-width="1" class="fort_wadsworth"/>
<path d="M 2065.9928 4300.0941 2107.1446 4372.8434 2054.684 4404.5267 2014.2523 4334.2202 2065.9928 4300.0941 Z" fill="none" stroke="#865327" opacity="0.6" stroke-width="1" class="fort_wadsworth"/>
<path d="M 2020.6347 4410.5274 2030.3898 4382.8327 2039.2019 4375.4523 2058.677 4363.9247 2089.4186 4342.5171 2106.5484 4369.307 2115.3458 4382.2406 2138.5287 4369.7905 2171.882 4397.9757 2184.837 4424.9077 2178.6662 4450.4165 2080.3576 4486.6249 2020.6347 4410.5274 Z" fill="none" stroke="#865327" opacity="0.6" stroke-width="1" class="fort_wadsworth"/>
<path d="M 2116.1791 4327.5923 2134.719 4325.7582 2191.2203 4394.1241 2201.3677 4477.2408 2092.8351 4567.6763 2012.273 4440.1702 2101.3391 4340.509 2116.1791 4327.5923 Z" fill="none" stroke="#865327" opacity="0.6" stroke-width="1" class="fort_wadsworth"/>
<path d="M 2147.6836 4344.6955 2156.0086 4371.9405 2169.9057 4383.9535 2181.9543 4387.6546 2186.1175 4401.0466 2183.7952 4408.8943 2185.6455 4414.8977 2188.415 4433.8299 2194.4285 4454.1496 2190.2503 4464.767 2197.6599 4476.3151 2190.2427 4477.2341 2121.5833 4558.9223 2071.1114 4479.4629 2053.0813 4415.7306 2060.5095 4399.5762 2105.0276 4368.2127 2147.6836 4344.6955 Z" fill="none" stroke="#865327" opacity="0.6" stroke-width="1" class="fort_wadsworth"/>
<path d="M 2099.4761 4353.4348 2104.1116 4352.5146 2142.1101 4362.6976 2297.7683 4508.6926 2079.826 4607.3816 1980.7681 4422.5991 2099.4761 4353.4348 Z" fill="none" stroke="#865327" opacity="0.6" stroke-width="1" class="fort_wadsworth"/>
<path d="M 2083.1549 4330.6854 2089.9832 4341.6551 2068.1881 4357.7982 2062.4042 4344.8668 2083.1549 4330.6854 Z" fill="none" stroke="#865327" opacity="0.6" stroke-width="1" class="fort_wadsworth"/>
<path d="M 2143.9786 4340.5379 2188.4404 4392.2756 2205.0798 4470.7786 2135.5027 4540.9222 2100.2862 4519.6566 2051.2311 4410.6503 2143.9786 4340.5379 Z" fill="none" stroke="#865327" opacity="0.6" stroke-width="1" class="fort_wadsworth"/></svg>