<?xml version="1.0"?><svg xmlns="http://www.w3.org/2000/svg" version="1.2" baseProfile="tiny" width="6000" height="5918" viewBox="0 0 6000 5918" stroke-linecap="round" stroke-linejoin="round"><path d="M 3654.2762 4664.4787 3571.7759 4695.0343 3510.5542 4669.2211 3468.6625 4447.5964 3654.2762 4664.4787 Z" fill="none" stroke="#012394" opacity="0.6" stroke-width="1" class="gerritsen_beach"/>
<path d="M 3496.5193 4506.217 3662.6146 4657.0815 3654.7464 4671.4058 3653.3477 4663.094 3649.6429 4667.7159 3638.5162 4668.1881 3638.0534 4669.1122 3627.8556 4671.4307 3609.3188 4681.1461 3588.4567 4683.0118 3568.981 4679.7957 3568.0393 4662.7084 3569.8899 4658.0885 3558.2957 4653.9418 3546.7031 4651.6423 3534.6369 4636.8737 3520.7177 4623.4921 3513.7503 4606.8724 3519.7569 4581.4685 3517.8813 4554.6862 3503.0389 4544.5387 3494.2253 4537.1571 3491.4326 4522.3826 3496.5193 4506.217 Z" fill="none" stroke="#012394" opacity="0.6" stroke-width="1" class="gerritsen_beach"/>
<path d="M 3485.3367 4430.9617 3709.888 4640.4096 3590.3169 4689.4761 3544.8578 4662.7278 3489.1374 4551.938 3465.8793 4444.8281 3485.3367 4430.9617 Z" fill="none" stroke="#012394" opacity="0.6" stroke-width="1" class="gerritsen_beach"/>
<path d="M 3524.3403 4515.8921 3652.4243 4667.2514 3567.1292 4683.0301 3490.0596 4545.4723 3524.3403 4515.8921 Z" fill="none" stroke="#012394" opacity="0.6" stroke-width="1" class="gerritsen_beach"/>
<path d="M 3647.7785 4657.0954 3649.6425 4667.254 3621.8279 4670.9743 3569.9032 4673.7909 3519.7805 4611.0239 3502.1103 4542.6924 3482.5878 4473.4433 3505.7517 4456.8028 3647.7785 4657.0954 Z" fill="none" stroke="#012394" opacity="0.6" stroke-width="1" class="gerritsen_beach"/>
<path d="M 3650.3821 4664.8518 3581.4083 4681.9095 3551.7311 4676.762 3523.5029 4628.0157 3498.236 4568.1858 3487.8314 4541.5951 3483.3632 4517.9558 3524.1511 4511.2746 3496.6892 4486.1767 3482.5829 4466.9789 3466.9961 4450.7374 3494.4243 4434.4638 3700.7806 4619.7291 3650.3821 4664.8518 Z" fill="none" stroke="#012394" opacity="0.6" stroke-width="1" class="gerritsen_beach"/>
<path d="M 3618.1022 4652.5043 3712.6651 4635.7886 3644.9984 4658.9453 3547.6716 4701.5204 3440.8582 4457.7748 3507.5761 4418.9398 3701.5383 4635.7997 3618.1022 4652.5043 Z" fill="none" stroke="#012394" opacity="0.6" stroke-width="1" class="gerritsen_beach"/>
<path d="M 3649.0578 4661.7126 3645.1206 4665.6418 3640.9498 4667.724 3637.0109 4669.8059 3630.6344 4668.1953 3624.9555 4668.8932 3619.856 4669.3597 3609.5425 4672.0245 3599.804 4669.6085 3578.5966 4674.0144 3573.2628 4671.7098 3570.7098 4668.1327 3556.3223 4650.3642 3548.5445 4635.8232 3520.0143 4613.5637 3518.6062 4591.8599 3495.2713 4540.966 3499.2082 4536.5761 3494.2006 4505.0644 3507.2871 4493.7412 3536.403 4528.4655 3559.3718 4555.1141 3594.4082 4596.53 3649.0578 4661.7126 Z" fill="none" stroke="#012394" opacity="0.6" stroke-width="1" class="gerritsen_beach"/>
<path d="M 3681.14 4636.7433 3637.5906 4670.0363 3586.5941 4673.7766 3563.3897 4647.0101 3542.0381 4616.5477 3513.2776 4595.3277 3516.9725 4577.7764 3516.9431 4540.8336 3501.1832 4542.6931 3551.2213 4509.4055 3581.8063 4498.2974 3695.0295 4617.3334 3681.14 4636.7433 Z" fill="none" stroke="#012394" opacity="0.6" stroke-width="1" class="gerritsen_beach"/>
<path d="M 3483.0035 4434.4924 3495.5284 4449.0879 3510.8858 4466.9515 3524.8252 4483.6747 3541.7607 4504.1507 3563.8909 4527.8726 3548.0257 4542.3163 3648.8136 4660.7765 3648.8162 4663.5475 3650.2697 4665.6757 3637.8085 4671.3107 3633.5182 4669.4673 3630.0421 4670.7406 3626.9127 4670.8589 3621.1512 4671.9366 3618.6036 4674.5945 3609.9093 4673.3322 3606.5479 4673.3352 3604.5646 4670.7606 3600.3451 4671.2885 3595.5936 4672.2164 3592.0007 4672.4505 3579.0063 4677.1345 3571.8159 4672.4068 3564.1947 4661.7594 3552.4766 4647.9142 3545.8357 4633.6746 3541.4298 4630.6585 3534.9357 4626.392 3522.9943 4622.1298 3518.7034 4619.016 3515.6759 4610.3669 3519.0708 4578.2757 3523.65 4569.9983 3521.9037 4560.1867 3514.9434 4551.8801 3505.0059 4548.6392 3498.5148 4547.2589 3495.0717 4544.849 3488.7968 4545.3111 3484.1859 4519.0147 3475.7151 4459.0101 3467.2539 4448.0098 3483.0035 4434.4924 Z" fill="none" stroke="#012394" opacity="0.6" stroke-width="1" class="gerritsen_beach"/>
<path d="M 3528.0457 4512.195 3656.1186 4651.5456 3604.2155 4677.4559 3493.7667 4543.6224 3528.0457 4512.195 Z" fill="none" stroke="#012394" opacity="0.6" stroke-width="1" class="gerritsen_beach"/>
<path d="M 3652.4156 4658.0147 3640.607 4673.0354 3581.7281 4676.3209 3599.1108 4672.1492 3520.0176 4617.72 3545.5239 4627.1666 3497.3574 4541.0798 3527.4696 4516.3513 3652.4156 4658.0147 Z" fill="none" stroke="#012394" opacity="0.6" stroke-width="1" class="gerritsen_beach"/>
<path d="M 3523.6754 4515.4131 3651.32 4662.4219 3575.3868 4676.1116 3493.7931 4543.4928 3523.6754 4515.4131 Z" fill="none" stroke="#012394" opacity="0.6" stroke-width="1" class="gerritsen_beach"/>
<path d="M 3492.1437 4542.9309 3524.5722 4516.1228 3652.1901 4664.7116 3609.3153 4677.2204 3591.9219 4669.1536 3590.7626 4668.9237 3577.7876 4676.7862 3532.7717 4623.7134 3518.6274 4618.4138 3516.5325 4607.5629 3492.1437 4542.9309 Z" fill="none" stroke="#012394" opacity="0.6" stroke-width="1" class="gerritsen_beach"/>
<path d="M 3641.2954 4665.4145 3578.255 4681.1733 3508.6663 4626.7344 3482.6438 4547.3251 3514.1325 4503.8944 3641.2954 4665.4145 Z" fill="none" stroke="#012394" opacity="0.6" stroke-width="1" class="gerritsen_beach"/>
<path d="M 3486.3496 4543.628 3483.5436 4511.3063 3507.6355 4494.6644 3650.5663 4663.5585 3645.0036 4664.4873 3637.5898 4669.1126 3613.4858 4674.6766 3577.3245 4677.4793 3516.0775 4618.4159 3486.3496 4543.628 Z" fill="none" stroke="#012394" opacity="0.6" stroke-width="1" class="gerritsen_beach"/>
<path d="M 3490.9853 4543.6245 3479.8108 4478.9863 3483.51 4466.9782 3478.8718 4463.2878 3540.0906 4502.95 3652.4182 4660.7857 3582.8866 4675.6272 3515.1503 4618.4166 3522.5244 4563.9182 3503.0374 4542.6916 3490.9853 4543.6245 Z" fill="none" stroke="#012394" opacity="0.6" stroke-width="1" class="gerritsen_beach"/>
<path d="M 3487.2795 4547.3216 3565.5762 4491.3849 3697.8166 4622.8724 3659.8407 4665.3971 3635.7386 4672.809 3607.9222 4674.6815 3578.2518 4677.4785 3563.4037 4663.636 3536.4913 4636.8722 3521.6416 4619.3351 3514.2099 4601.7922 3487.2795 4547.3216 Z" fill="none" stroke="#012394" opacity="0.6" stroke-width="1" class="gerritsen_beach"/>
<path d="M 3652.4206 4663.3258 3604.2245 4687.6165 3547.1772 4664.3423 3510.274 4607.7988 3489.3639 4545.0111 3484.9401 4518.9243 3522.4838 4513.123 3652.4206 4663.3258 Z" fill="none" stroke="#012394" opacity="0.6" stroke-width="1" class="gerritsen_beach"/>
<path d="M 3454.6257 4196.4838 3710.8478 4621.038 3432.7314 4691.4735 3332.3208 4251.9598 3454.6257 4196.4838 Z" fill="none" stroke="#012394" opacity="0.6" stroke-width="1" class="gerritsen_beach"/>
<path d="M 3658.913 4664.9362 3578.253 4678.8641 3520.7095 4613.3322 3489.3628 4543.6257 3475.3926 4459.5965 3466.1119 4445.9823 3482.3256 4433.2726 3541.9445 4502.4867 3658.913 4664.9362 Z" fill="none" stroke="#012394" opacity="0.6" stroke-width="1" class="gerritsen_beach"/>
<path d="M 3649.6321 4656.17 3578.2439 4668.2417 3486.3489 4542.7045 3524.3343 4508.5039 3649.6321 4656.17 Z" fill="none" stroke="#012394" opacity="0.6" stroke-width="1" class="gerritsen_beach"/>
<path d="M 3657.23 4674.7583 3633.8177 4663.0734 3606.5292 4672.3736 3588.9431 4672.3881 3578.6985 4676.3201 3568.8954 4667.6322 3563.7501 4662.0193 3560.1528 4657.0576 3550.4606 4649.6051 3544.8334 4642.7737 3533.9306 4633.1998 3524.4206 4627.6709 3516.5359 4623.5209 3511.2436 4614.7504 3511.1809 4607.747 3510.3384 4589.0287 3515.0825 4579.2118 3514.585 4569.5796 3512.6313 4563.9356 3506.3681 4557.8218 3497.0905 4549.9787 3494.6547 4547.3254 3495.1152 4543.3999 3495.229 4540.7446 3488.84 4521.1242 3488.2796 4516.5798 3488.7052 4509.14 3494.4957 4504.0562 3493.2717 4498.8624 3490.2535 4476.0541 3486.7725 4470.285 3501.7126 4458.73 3503.5143 4457.1125 3506.0016 4454.3067 3514.3439 4446.0895 3519.012 4445.623 3526.5435 4444.6935 3542.4119 4457.0072 3555.0422 4465.0328 3567.9377 4480.1649 3582.4376 4496.6601 3592.1999 4506.3431 3607.5072 4517.6428 3616.3537 4533.9004 3640.3676 4548.0954 3662.0095 4578.3248 3683.2603 4601.5477 3702.7512 4609.2413 3706.1431 4631.7119 3703.5614 4647.1674 3680.5827 4654.4708 3666.0597 4663.6472 3658.0292 4671.6278 3657.23 4674.7583 Z" fill="none" stroke="#012394" opacity="0.6" stroke-width="1" class="gerritsen_beach"/>
<path d="M 3471.4422 4445.7474 3502.5167 4469.2723 3648.7075 4658.9419 3609.7825 4681.1457 3576.8577 4673.785 3554.1219 4652.5598 3540.201 4637.7928 3524.4265 4623.4892 3511.4276 4600.8708 3512.7983 4575.4707 3509.0758 4557.9257 3496.5514 4547.7762 3482.6379 4539.4749 3460.3719 4519.6353 3453.3997 4493.7819 3445.9597 4461.4651 3471.4422 4445.7474 Z" fill="none" stroke="#012394" opacity="0.6" stroke-width="1" class="gerritsen_beach"/>
<path d="M 3495.6246 4548.2387 3532.6858 4517.7324 3656.1203 4653.3929 3590.3161 4688.5524 3531.832 4608.2434 3519.7746 4603.635 3524.4277 4624.8746 3553.1893 4646.0949 3573.6076 4668.2457 3495.6246 4548.2387 Z" fill="none" stroke="#012394" opacity="0.6" stroke-width="1" class="gerritsen_beach"/>
<path d="M 3455.9979 4457.6171 3657.8199 4660.2117 3478.6962 4444.2497 3624.4579 4681.4872 3381.6561 4659.8601 3336.1325 4513.9603 3455.9979 4457.6171 Z" fill="none" stroke="#012394" opacity="0.6" stroke-width="1" class="gerritsen_beach"/>
<path d="M 3562.2377 4380.1119 3708.0731 4680.1292 3527.2807 4713.5453 3469.5936 4453.1365 3562.2377 4380.1119 Z" fill="none" stroke="#012394" opacity="0.6" stroke-width="1" class="gerritsen_beach"/>
<path d="M 3494.6996 4551.0101 3491.8976 4524.2293 3503.935 4504.8259 3551.2082 4493.7057 3589.2159 4489.9794 3600.3638 4515.8281 3625.4119 4533.3528 3643.9632 4542.5713 3663.4629 4573.9544 3671.8305 4597.9599 3687.5956 4600.7155 3717.291 4625.6239 3688.5714 4650.5909 3658.0018 4682.0251 3633.8892 4678.3528 3604.2229 4685.7691 3583.8259 4689.4817 3562.4866 4675.6446 3542.0631 4647.0278 3520.7165 4622.1067 3514.2033 4593.4797 3494.6996 4551.0101 Z" fill="none" stroke="#012394" opacity="0.6" stroke-width="1" class="gerritsen_beach"/>
<path d="M 3488.2081 4549.168 3476.0844 4454.9786 3466.8091 4448.5213 3484.4111 4432.8093 3708.0271 4633.946 3597.7319 4685.7748 3550.4236 4665.4942 3514.2267 4623.0355 3509.5398 4558.3871 3488.2081 4549.168 Z" fill="none" stroke="#012394" opacity="0.6" stroke-width="1" class="gerritsen_beach"/>
<path d="M 3501.5824 4460.0382 3540.5553 4504.3349 3540.0933 4506.1823 3653.8078 4659.3989 3575.4767 4685.3323 3573.1569 4683.4869 3489.1314 4544.0877 3501.5824 4460.0382 Z" fill="none" stroke="#012394" opacity="0.6" stroke-width="1" class="gerritsen_beach"/>
<path d="M 3491.4498 4544.7786 3523.6444 4515.2 3651.4921 4661.9412 3650.3356 4664.7133 3637.5917 4671.1909 3625.7696 4671.8944 3614.8777 4675.8299 3601.4276 4670.5307 3580.336 4674.9366 3572.453 4673.5578 3547.153 4635.0162 3518.6277 4618.8757 3522.9877 4563.4561 3514.6333 4550.9945 3502.3457 4547.31 3495.6226 4545.6989 3491.4498 4544.7786 Z" fill="none" stroke="#012394" opacity="0.6" stroke-width="1" class="gerritsen_beach"/>
<path d="M 3527.5848 4515.4277 3536.4007 4525.5794 3548.4632 4537.5756 3566.0949 4556.4938 3585.1248 4583.2614 3599.0459 4598.4886 3613.4316 4614.1773 3621.3279 4630.7956 3634.3206 4643.253 3645.9218 4654.788 3654.742 4666.7874 3647.3256 4668.6417 3636.2018 4672.3467 3630.6374 4671.4282 3615.8036 4674.2126 3607.4569 4672.8346 3612.5583 4674.4465 3599.8083 4674.4578 3593.315 4671.6925 3587.5236 4676.3159 3581.9605 4677.0135 3575.7 4675.4024 3568.9704 4667.326 3562.9395 4662.9436 3561.7766 4658.3263 3558.0666 4657.1748 3554.1211 4651.6361 3551.5675 4647.2509 3547.8557 4643.7902 3544.3723 4636.173 3543.4414 4631.7865 3539.7299 4628.5568 3534.8599 4626.0207 3530.4542 4624.408 3525.1214 4622.7959 3520.7154 4620.7212 3517.4671 4616.7984 3515.3762 4611.0274 3515.5987 4599.2512 3518.1368 4584.4715 3523.6876 4569.2279 3517.9006 4578.9301 3520.1993 4554.9153 3513.7069 4551.9188 3508.1422 4549.6143 3503.5048 4547.5399 3500.0291 4548.928 3499.3319 4546.6196 3496.0853 4544.5441 3492.6067 4542.2379 3494.9226 4539.6964 3498.3973 4536.923 3501.6397 4533.6881 3505.5773 4530.2217 3508.8208 4528.3721 3512.7584 4524.9057 3515.0746 4522.826 3519.4753 4518.8974 3523.6445 4515.4309 3527.5848 4515.4277 Z" fill="none" stroke="#012394" opacity="0.6" stroke-width="1" class="gerritsen_beach"/>
<path d="M 3454.7628 4455.9178 3508.7272 4704.3229 3524.2995 4465.0994 3466.3452 4448.0599 3657.9896 4669.0936 3552.2943 4684.89 3505.9323 4687.6985 3454.7628 4455.9178 Z" fill="none" stroke="#012394" opacity="0.6" stroke-width="1" class="gerritsen_beach"/>
<path d="M 3516.4096 4452.6388 3697.8189 4625.1815 3582.4222 4674.7039 3516.5327 4607.7938 3494.2331 4547.3162 3487.6864 4472.9776 3516.4096 4452.6388 Z" fill="none" stroke="#012394" opacity="0.6" stroke-width="1" class="gerritsen_beach"/>
<path d="M 3495.6217 4544.5445 3531.7665 4527.4303 3534.5498 4529.7369 3537.7955 4530.6578 3543.3636 4537.118 3549.3938 4541.7308 3555.4287 4551.8849 3570.7401 4567.5727 3580.4893 4583.7272 3586.0588 4591.1111 3599.5177 4607.7243 3612.5139 4624.7999 3622.7196 4631.718 3628.291 4640.4875 3644.9937 4653.8652 3648.7066 4658.0182 3649.1763 4664.4835 3645.4702 4667.7198 3643.1542 4670.0311 3635.2763 4674.1949 3620.4412 4675.594 3614.4143 4676.0613 3607.925 4677.9144 3596.7977 4677.9243 3578.7143 4676.0926 3573.1506 4676.0974 3573.619 4681.6391 3561.5601 4676.569 3553.2073 4667.8011 3546.7111 4661.3407 3542.5324 4653.9549 3535.5634 4635.9493 3529.0712 4634.1073 3522.5754 4627.647 3517.9349 4622.1089 3510.5084 4611.0313 3510.5033 4604.5659 3512.3493 4593.943 3514.1971 4585.6291 3517.8993 4577.3139 3518.8195 4568.5391 3518.8154 4563.4594 3514.6395 4558.8449 3511.8533 4552.8439 3505.3629 4552.3872 3500.7239 4548.2348 3497.4785 4547.7755 3495.6217 4544.5445 Z" fill="none" stroke="#012394" opacity="0.6" stroke-width="1" class="gerritsen_beach"/>
<path d="M 3482.1274 4477.5993 3496.5227 4510.6037 3503.722 4528.8379 3505.3304 4510.8277 3484.6748 4474.8269 3504.3609 4456.573 3542.1759 4502.0248 3530.8306 4516.5795 3650.5661 4663.3276 3581.7279 4676.09 3544.1342 4628.5532 3521.6399 4617.2569 3518.3731 4590.2438 3526.469 4568.9947 3516.7198 4551.4547 3490.7514 4540.854 3482.1274 4477.5993 Z" fill="none" stroke="#012394" opacity="0.6" stroke-width="1" class="gerritsen_beach"/>
<path d="M 3490.0585 4544.087 3522.4845 4514.0465 3653.3464 4661.7085 3573.849 4679.5606 3521.6484 4627.8787 3490.0585 4544.087 Z" fill="none" stroke="#012394" opacity="0.6" stroke-width="1" class="gerritsen_beach"/>
<path d="M 3522.5636 4612.8689 3459.4563 4535.3362 3394.5273 4491.0523 3485.3515 4450.3543 3552.0562 4398.5885 3592.8637 4420.7159 3624.4026 4442.8506 3674.4808 4461.2731 3724.5965 4514.7868 3726.5408 4603.4476 3689.4996 4651.5136 3650.5896 4688.4979 3594.9444 4679.3114 3522.5636 4612.8689 Z" fill="none" stroke="#012394" opacity="0.6" stroke-width="1" class="gerritsen_beach"/>
<path d="M 3510.0054 4560.9266 3490.1756 4545.7031 3489.943 4544.5489 3525.0346 4514.6217 3652.4219 4664.7113 3633.4254 4678.2378 3589.8455 4680.5859 3568.7485 4678.9876 3549.2597 4659.6068 3536.0332 4643.569 3514.6881 4620.1488 3512.9216 4584.822 3510.0054 4560.9266 Z" fill="none" stroke="#012394" opacity="0.6" stroke-width="1" class="gerritsen_beach"/>
<path d="M 3490.9853 4543.6245 3470.5166 4447.595 3486.7304 4435.1162 3672.3145 4619.2027 3656.5918 4661.7055 3622.7602 4676.5156 3577.791 4680.7118 3521.1698 4609.1756 3490.9853 4543.6245 Z" fill="none" stroke="#012394" opacity="0.6" stroke-width="1" class="gerritsen_beach"/>
<path d="M 3625.9754 4643.2606 3651.0325 4666.3291 3643.1572 4673.264 3617.1961 4676.0588 3581.4961 4676.0902 3553.6517 4644.7091 3526.275 4616.0987 3520.2294 4592.5513 3494.2289 4541.7749 3525.7328 4518.1998 3652.4204 4663.0949 3625.9754 4643.2606 Z" fill="none" stroke="#012394" opacity="0.6" stroke-width="1" class="gerritsen_beach"/>
<path d="M 3505.7806 4493.7423 3521.5301 4479.8774 3542.4088 4503.4099 3526.658 4515.8902 3648.7096 4661.251 3601.4402 4684.8478 3554.6028 4673.342 3532.3162 4633.6428 3513.2908 4611.9527 3511.4079 4575.9336 3490.5207 4542.2395 3484.4711 4511.7673 3505.7806 4493.7423 Z" fill="none" stroke="#012394" opacity="0.6" stroke-width="1" class="gerritsen_beach"/>
<path d="M 3483.9486 4434.1948 3657.9818 4660.7805 3576.4068 4688.5644 3488.2099 4551.4769 3465.8803 4446.2133 3483.9486 4434.1948 Z" fill="none" stroke="#012394" opacity="0.6" stroke-width="1" class="gerritsen_beach"/>
<path d="M 3648.7101 4661.7129 3579.6388 4672.8589 3559.68 4646.0895 3520.247 4614.718 3522.0933 4604.5568 3522.9973 4575.4626 3499.7878 4536.6911 3506.7391 4533.915 3516.9197 4511.2804 3648.7101 4661.7129 Z" fill="none" stroke="#012394" opacity="0.6" stroke-width="1" class="gerritsen_beach"/>
<path d="M 3648.7126 4664.4839 3573.1593 4686.2579 3484.9624 4548.2469 3522.486 4515.8936 3648.7126 4664.4839 Z" fill="none" stroke="#012394" opacity="0.6" stroke-width="1" class="gerritsen_beach"/>
<path d="M 3654.2762 4664.4787 3598.6568 4683.0029 3532.7914 4647.959 3517.9275 4612.8726 3500.261 4549.1587 3476.1087 4487.3006 3540.0574 4462.3162 3702.4445 4614.5552 3654.2762 4664.4787 Z" fill="none" stroke="#012394" opacity="0.6" stroke-width="1" class="gerritsen_beach"/>
<path d="M 3648.7083 4659.8655 3573.6154 4677.4825 3542.0494 4630.4021 3516.0709 4610.1033 3525.3141 4574.0754 3490.9881 4547.3187 3485.3992 4513.1519 3507.634 4492.8174 3648.7083 4659.8655 Z" fill="none" stroke="#012394" opacity="0.6" stroke-width="1" class="gerritsen_beach"/>
<path d="M 3572.689 4678.407 3517.4691 4619.3384 3511.4036 4570.3921 3491.6828 4546.3946 3467.967 4447.3661 3484.8765 4435.3484 3545.4209 4502.253 3529.6725 4517.504 3657.7572 4668.401 3621.3741 4681.828 3572.689 4678.407 Z" fill="none" stroke="#012394" opacity="0.6" stroke-width="1" class="gerritsen_beach"/>
<path d="M 3628.3381 4692.2133 3497.4782 4547.3137 3498.4039 4545.4659 3488.4072 4506.4541 3502.0731 4494.8996 3521.2982 4479.6467 3538.2344 4500.4119 3541.7161 4506.6427 3650.3328 4661.7114 3628.3381 4692.2133 Z" fill="none" stroke="#012394" opacity="0.6" stroke-width="1" class="gerritsen_beach"/>
<path d="M 3572.689 4678.407 3506.8082 4622.1177 3491.4499 4545.0095 3497.9339 4537.1543 3496.0785 4535.7704 3488.6378 4504.8378 3527.0941 4481.7199 3657.9792 4658.0095 3615.3445 4679.2933 3572.689 4678.407 Z" fill="none" stroke="#012394" opacity="0.6" stroke-width="1" class="gerritsen_beach"/>
<path d="M 3655.207 4668.1725 3577.3285 4682.0978 3518.8555 4613.7955 3516.9563 4557.4577 3490.0596 4545.4723 3475.1594 4457.7497 3464.9522 4444.8288 3497.3874 4430.029 3699.6674 4619.1761 3655.207 4668.1725 Z" fill="none" stroke="#012394" opacity="0.6" stroke-width="1" class="gerritsen_beach"/>
<path d="M 3490.9867 4545.4716 3483.0216 4434.1955 3541.4521 4467.3942 3697.8143 4620.5633 3638.9952 4684.8139 3565.7348 4678.8747 3514.2205 4615.1846 3490.9867 4545.4716 Z" fill="none" stroke="#012394" opacity="0.6" stroke-width="1" class="gerritsen_beach"/>
<path d="M 3588.4518 4677.4697 3581.0376 4682.0946 3519.7834 4614.7184 3490.0638 4551.0137 3409.4067 4558.4605 3393.5163 4364.5413 3496.4633 4433.7235 3691.3288 4625.6497 3645.0045 4665.411 3588.4518 4677.4697 Z" fill="none" stroke="#012394" opacity="0.6" stroke-width="1" class="gerritsen_beach"/>
<path d="M 3522.4853 4514.97 3669.1142 4666.312 3645.0156 4677.4188 3620.9198 4692.22 3567.1198 4671.9459 3533.7036 4629.4853 3518.0346 4601.7892 3519.5358 4594.8609 3516.9849 4593.4775 3520.6845 4581.9296 3522.9917 4568.5357 3514.18 4563.9249 3508.601 4543.6108 3494.691 4539.9274 3504.8787 4526.0664 3522.4853 4514.97 Z" fill="none" stroke="#012394" opacity="0.6" stroke-width="1" class="gerritsen_beach"/>
<path d="M 3649.4057 4661.9431 3623.2226 4675.1296 3586.1301 4673.3152 3568.9638 4659.4748 3551.7934 4640.0924 3515.1492 4617.0312 3520.6915 4590.7038 3499.5544 4534.6133 3495.1286 4506.2181 3506.012 4493.2804 3649.4057 4661.9431 Z" fill="none" stroke="#012394" opacity="0.6" stroke-width="1" class="gerritsen_beach"/>
<path d="M 3529.9895 4623.0229 3503.0338 4538.0739 3466.807 4445.7509 3495.5277 4422.6429 3505.7351 4435.5632 3685.7663 4626.5787 3638.5145 4666.3407 3581.9538 4669.1622 3529.9895 4623.0229 Z" fill="none" stroke="#012394" opacity="0.6" stroke-width="1" class="gerritsen_beach"/>
<path d="M 3652.4217 4664.4804 3603.2801 4668.2199 3572.6858 4674.7122 3529.9895 4623.0229 3518.8599 4619.3373 3515.1291 4591.6318 3519.7481 4570.3855 3520.6664 4559.3019 3503.9711 4551.0029 3488.2046 4544.5502 3521.5582 4514.9708 3652.4217 4664.4804 Z" fill="none" stroke="#012394" opacity="0.6" stroke-width="1" class="gerritsen_beach"/>
<path d="M 3651.9559 4662.1717 3643.6221 4674.6491 3619.0511 4676.5189 3571.2969 4677.0226 3519.7868 4618.8747 3516.9827 4590.7067 3527.6298 4571.3028 3492.3735 4540.391 3503.0288 4531.609 3493.2811 4514.9929 3506.7225 4512.6737 3508.098 4493.2788 3517.8266 4485.8831 3497.4124 4462.3501 3502.0449 4458.6526 3543.7968 4500.1764 3528.974 4513.5795 3651.9559 4662.1717 Z" fill="none" stroke="#012394" opacity="0.6" stroke-width="1" class="gerritsen_beach"/>
<path d="M 3544.8212 4618.3926 3478.9025 4503.9216 3479.8094 4477.1393 3489.071 4465.127 3515.9794 4494.6578 3552.1668 4531.5695 3574.4448 4562.9517 3599.5083 4597.1028 3645.9205 4653.4025 3623.6799 4668.2016 3579.1696 4666.3936 3544.8212 4618.3926 Z" fill="none" stroke="#012394" opacity="0.6" stroke-width="1" class="gerritsen_beach"/>
<path d="M 3523.8763 4515.4307 3525.0352 4515.4298 3602.6104 4697.3167 3523.8763 4515.4307 Z" fill="none" stroke="#012394" opacity="0.6" stroke-width="1" class="gerritsen_beach"/>
<path d="M 3485.3388 4433.732 3691.3249 4621.7242 3665.8477 4644.1472 3654.5072 4663.5548 3579.4119 4678.6321 3543.67 4627.8608 3532.0741 4620.943 3516.9941 4605.0226 3523.9165 4565.5334 3516.9527 4552.8398 3491.2166 4542.9317 3477.4771 4457.748 3468.8949 4448.5197 3485.3388 4433.732 Z" fill="none" stroke="#012394" opacity="0.6" stroke-width="1" class="gerritsen_beach"/>
<path d="M 3658.916 4668.169 3657.9844 4663.5515 3587.5294 4683.0126 3560.6266 4669.1804 3540.2056 4643.3347 3525.3549 4624.8739 3511.4363 4611.9542 3512.349 4593.4812 3516.038 4568.5413 3505.8312 4558.39 3496.5524 4549.1616 3488.2025 4541.7795 3466.8111 4451.2916 3493.6736 4422.6443 3693.1787 4621.0297 3696.8948 4628.4151 3657.0519 4658.0104 3658.916 4668.169 Z" fill="none" stroke="#012394" opacity="0.6" stroke-width="1" class="gerritsen_beach"/>
<path d="M 3485.4189 4539.011 3560.4668 4478.922 3697.812 4618.2543 3636.6667 4673.7318 3573.617 4679.3299 3525.3415 4608.2486 3525.3497 4618.4085 3485.4189 4539.011 Z" fill="none" stroke="#012394" opacity="0.6" stroke-width="1" class="gerritsen_beach"/>
<path d="M 3649.6416 4666.3304 3625.537 4670.971 3599.1139 4675.613 3576.3905 4669.6288 3551.3375 4649.3293 3531.3807 4623.4836 3514.2092 4600.8686 3521.1488 4582.8528 3521.5988 4565.7661 3516.4902 4554.2256 3497.0142 4546.8523 3498.396 4535.3068 3401.859 4364.5357 3656.1273 4660.7823 3621.7874 4626.177 3637.5689 4646.4828 3652.8836 4662.6326 3649.6416 4666.3304 Z" fill="none" stroke="#012394" opacity="0.6" stroke-width="1" class="gerritsen_beach"/>
<path d="M 3649.6416 4666.3304 3622.761 4677.4393 3582.8914 4681.1693 3546.6955 4642.4057 3590.2356 4596.1873 3543.9047 4631.3243 3513.2922 4613.7999 3526.245 4578.6926 3490.061 4547.3194 3528.9773 4517.7354 3649.6416 4666.3304 Z" fill="none" stroke="#012394" opacity="0.6" stroke-width="1" class="gerritsen_beach"/>
<path d="M 3469.5895 4447.5957 3490.0023 4470.6672 3506.7086 4494.896 3484.7043 4513.7297 3499.9037 4536.691 3508.7051 4528.6031 3496.5464 4541.3113 3469.5895 4447.5957 Z" fill="none" stroke="#012394" opacity="0.6" stroke-width="1" class="gerritsen_beach"/>
<path d="M 3488.4624 4544.6525 3522.1918 4515.493 3657.8031 4665.5256 3560.9541 4685.3238 3488.4624 4544.6525 Z" fill="none" stroke="#012394" opacity="0.6" stroke-width="1" class="gerritsen_beach"/>
<path d="M 3503.0715 4501.9028 3466.1201 4449.5995 3492.0676 4436.6515 3542.18 4500.332 3531.0668 4515.1174 3655.2666 4661.5534 3615.4085 4677.2926 3574.6061 4674.5573 3544.8976 4631.1701 3520.7793 4618.2588 3520.7506 4582.238 3518.8734 4553.6086 3496.6153 4545.314 3485.4657 4513.9221 3503.0715 4501.9028 Z" fill="none" stroke="#012394" opacity="0.6" stroke-width="1" class="gerritsen_beach"/>
<path d="M 3458.8669 4448.3756 3537.3382 4387.1447 3664.0408 4476.4956 3716.6039 4573.0167 3693.4889 4638.6164 3647.1727 4687.6153 3576.7101 4700.6101 3507.1266 4654.4829 3490.4616 4546.2441 3458.8669 4448.3756 Z" fill="none" stroke="#012394" opacity="0.6" stroke-width="1" class="gerritsen_beach"/>
<path d="M 3491.9121 4543.162 3523.8741 4512.6601 3528.0513 4519.1214 3655.6702 4667.7102 3575.0064 4677.4813 3494.6967 4547.3159 3520.697 4597.6308 3514.6783 4607.7953 3517.9308 4617.029 3526.2817 4624.4113 3530.4561 4626.717 3540.1927 4627.6328 3575.9352 4679.3279 3656.6005 4670.9422 3491.9121 4543.162 Z" fill="none" stroke="#012394" opacity="0.6" stroke-width="1" class="gerritsen_beach"/>
<path d="M 3557.8386 4661.7933 3513.2652 4579.6265 3529.8947 4505.7288 3574.3627 4466.9049 3643.0334 4539.8015 3697.8257 4632.1088 3629.2671 4694.0598 3557.8386 4661.7933 Z" fill="none" stroke="#012394" opacity="0.6" stroke-width="1" class="gerritsen_beach"/>
<path d="M 3648.7126 4664.4839 3644.0789 4667.2592 3581.9633 4680.2464 3519.7879 4620.2602 3487.2831 4551.9394 3467.7368 4449.444 3648.7126 4664.4839 Z" fill="none" stroke="#012394" opacity="0.6" stroke-width="1" class="gerritsen_beach"/></svg>