<?xml version="1.0"?><svg xmlns="http://www.w3.org/2000/svg" version="1.2" baseProfile="tiny" width="6000" height="5918" viewBox="0 0 6000 5918" stroke-linecap="round" stroke-linejoin="round"><path d="M 3773.1027 3053.9116 4486.7124 3002.166 3875.2973 3368.2896 3768.7318 3296.4629 3773.1027 3053.9116 Z" fill="none" stroke="#FBC20F" opacity="0.6" stroke-width="1" class="glendale"/>
<path d="M 4297.9041 3015.4002 4329.3822 3019.0369 4375.8548 3130.5372 4338.6448 3022.7098 4107.5012 3213.0348 3990.715 3112.6715 3945.2857 3058.3228 3954.517 3038.0249 4218.29 3009.9935 4297.9041 3015.4002 Z" fill="none" stroke="#FBC20F" opacity="0.6" stroke-width="1" class="glendale"/>
<path d="M 3927.4917 2954.1923 3961.173 2975.8147 3986.6141 2965.6398 4012.7337 2961.8797 4046.9857 2965.522 4084.9294 2961.3206 4097.3853 2970.6134 4165.2781 2921.1075 4203.209 2909.9868 4250.8234 2881.8684 4277.5169 2886.5893 4282.6806 2932.2188 4294.0128 2976.0424 4325.8178 3017.8215 4246.832 3008.4135 4200.9918 3012.2892 4142.0602 3017.1311 4108.2687 3021.8888 4055.5543 3028.8249 4022.8847 3048.4986 3999.289 3055.4455 3986.5638 3057.7674 3977.2538 3060.0754 3971.4833 3071.8399 3987.4913 3102.4807 3960.2768 3111.4061 3961.6768 3120.3955 3935.6795 3129.5072 3930.3442 3119.6003 3919.6989 3120.305 3913.2694 3099.7803 3905.0461 3043.488 3883.5476 2972.2248 3927.4917 2954.1923 Z" fill="none" stroke="#FBC20F" opacity="0.6" stroke-width="1" class="glendale"/>
<path d="M 4062.5202 2819.3705 4328.4382 3007.9735 4112.7827 3021.2148 4062.5202 2819.3705 Z" fill="none" stroke="#FBC20F" opacity="0.6" stroke-width="1" class="glendale"/>
<path d="M 4292.2846 2974.8387 4314.5355 2996.9317 4318.2425 2999.6918 4296.9695 3009.8692 3914.7166 3040.8404 3958.0986 2942.127 4018.2952 2967.8655 4123.8003 2958.4995 4208.0263 2956.5306 4283.9127 2949.0355 4292.2846 2974.8387 Z" fill="none" stroke="#FBC20F" opacity="0.6" stroke-width="1" class="glendale"/>
<path d="M 4090.4765 2956.7028 4113.3861 2957.5924 4166.7863 2922.0175 4223.2135 2901.4181 4256.039 2881.7753 4281.9638 2888.1877 4325.6735 3015.3547 3908.2325 3037.1599 3965.5466 2976.2323 3998.8564 2966.9691 4090.4765 2956.7028 Z" fill="none" stroke="#FBC20F" opacity="0.6" stroke-width="1" class="glendale"/>
<path d="M 3393.5666 3045.9411 3399.1207 3045.9374 3656.2865 2863.1706 3861.6677 2794.7344 4046.7524 2793.5796 4163.3961 2820.1485 4204.2017 2876.324 4226.4682 2911.3243 4274.7835 3028.3465 4372.4607 3312.2315 3858.6209 3360.9297 3393.5666 3045.9411 Z" fill="none" stroke="#FBC20F" opacity="0.6" stroke-width="1" class="glendale"/>
<path d="M 4308.026 2978.5013 4324.7258 3001.9862 3927.6596 3027.4542 4279.1791 2883.1214 4308.026 2978.5013 Z" fill="none" stroke="#FBC20F" opacity="0.6" stroke-width="1" class="glendale"/>
<path d="M 3905.695 3043.8482 3911.7077 3040.383 3943.1253 2996.0846 3959.5298 2976.0094 3984.5105 2967.6792 4018.0605 2965.3303 4074.0524 2960.4137 4147.6279 2954.0853 4230.696 2951.8856 4239.2696 2959.4789 4244.2011 3005.5735 4151.4205 3015.6264 4146.5615 3016.0946 4113.4749 3019.8307 4053.7799 3026.8296 4019.7914 3049.0057 4006.3738 3052.7119 3976.53 3060.1275 3969.8335 3071.6626 3931.4325 3084.3902 3927.9455 3071.7151 3883.5205 3079.1458 3879.5825 3075.923 3905.695 3043.8482 Z" fill="none" stroke="#FBC20F" opacity="0.6" stroke-width="1" class="glendale"/>
<path d="M 3953.4812 2950.4309 4422.7175 2930.3621 4415.3178 2933.141 3837.9665 3111.9351 3953.4812 2950.4309 Z" fill="none" stroke="#FBC20F" opacity="0.6" stroke-width="1" class="glendale"/>
<path d="M 3903.613 3044.5423 3925.8043 3024.2292 3951.6729 2984.5482 3986.8201 2964.2186 4267.2537 2949.9841 4282.063 2949.9605 4320.1029 3005.2211 3962.9451 3114.5514 3968.5113 3123.7661 3937.0448 3131.1832 3887.9774 3129.3984 3903.6852 3104.4809 3896.233 3065.7598 3903.613 3044.5423 Z" fill="none" stroke="#FBC20F" opacity="0.6" stroke-width="1" class="glendale"/>
<path d="M 3902.6851 3042.6992 3964.4993 2880.3465 4169.0132 2863.4699 4274.5552 2885.4337 4282.06 2948.1165 4338.5327 2955.4002 4325.6521 3002.4457 4294.2 3014.4841 4139.6212 3017.4878 3902.6851 3042.6992 Z" fill="none" stroke="#FBC20F" opacity="0.6" stroke-width="1" class="glendale"/>
<path d="M 3839.862 3150.6648 3877.7321 3076.8473 3903.6175 3048.2307 3843.2516 2875.8829 3966.3538 2883.11 3977.4943 2909.8326 3959.0161 2935.6718 3986.8165 2961.4526 4089.5612 2964.0802 4066.3007 2876.524 4147.7294 2865.3451 4256.0419 2883.6192 4277.3347 2887.2732 4280.2044 2945.3534 4321.0209 3000.6093 4328.4748 3030.1034 4282.2199 3047.6987 4282.1785 3021.8801 4250.6831 3007.1769 4113.7057 3019.3693 4044.3343 3058.1939 4028.5828 3047.1498 3970.2816 3060.1355 3989.7785 3104.3732 3968.5054 3119.1553 3931.4937 3133.9566 3926.8501 3121.9739 3899.0853 3128.4629 3839.862 3150.6648 Z" fill="none" stroke="#FBC20F" opacity="0.6" stroke-width="1" class="glendale"/>
<path d="M 4348.8193 3018.0824 3908.3329 3120.1521 3874.9572 3078.6948 3961.8103 2949.4983 4004.41 2966.9618 4108.9869 2955.7546 4277.3037 2867.9124 4333.8803 2940.6558 4348.8193 3018.0824 Z" fill="none" stroke="#FBC20F" opacity="0.6" stroke-width="1" class="glendale"/>
<path d="M 3789.989 3048.7406 4487.6842 2924.9039 4579.6818 2971.4777 4581.8988 3050.0028 3868.9348 3343.7315 3737.3676 3266.398 3870.8692 3137.2423 3789.989 3048.7406 Z" fill="none" stroke="#FBC20F" opacity="0.6" stroke-width="1" class="glendale"/>
<path d="M 4254.196 2886.849 4317.3336 3009.836 4128.7636 3190.8701 3899.0632 3110.0194 3903.6314 3059.7571 3955.3341 2951.8115 4121.483 2956.1977 4254.196 2886.849 Z" fill="none" stroke="#FBC20F" opacity="0.6" stroke-width="1" class="glendale"/>
<path d="M 3902.6851 3042.6992 3848.8121 2882.3302 4005.3356 2966.9606 4282.0585 2947.1945 4295.0614 2974.8342 4354.2537 2947.0758 4378.3298 2953.4891 4332.1239 2997.8247 4274.7732 3021.892 4110.9314 3021.2174 4057.2511 3026.8249 3971.2097 3061.9786 3987.927 3104.3756 3918.5161 3120.1398 3839.8767 3163.5758 3779.7904 3247.5679 3498.2067 3095.6607 3902.6851 3042.6992 Z" fill="none" stroke="#FBC20F" opacity="0.6" stroke-width="1" class="glendale"/>
<path d="M 3834.3168 3158.971 3834.3115 3154.3599 3849.0913 3125.755 3866.6419 3092.5367 3892.5203 3057.4651 3914.7021 3028.8532 3935.9477 2992.8663 3950.6883 2937.5263 3971.994 2951.3294 3991.4456 2962.3686 4014.5892 2965.1044 4111.769 2959.4387 4163.5448 2920.6393 4277.2978 2864.2247 4281.1034 2928.7559 4281.1552 2961.0262 4323.7933 2997.8385 4330.3338 3034.7108 4312.7733 3051.3376 4197.0952 3072.7288 4153.6279 3100.458 4121.2406 3109.7267 4080.6069 3180.7937 4041.7715 3216.8149 3982.5365 3231.6495 3964.9054 3200.3149 3908.4054 3180.0955 3834.3168 3158.971 Z" fill="none" stroke="#FBC20F" opacity="0.6" stroke-width="1" class="glendale"/>
<path d="M 3679.7772 3228.3018 3667.3916 2862.2382 4478.2346 2921.0432 3679.7772 3228.3018 Z" fill="none" stroke="#FBC20F" opacity="0.6" stroke-width="1" class="glendale"/>
<path d="M 3910.0933 3044.9955 4276.3746 2865.6091 4327.0646 3016.966 4055.6343 3029.1323 3968.4349 3063.8263 3984.2214 3102.3055 3869.4713 3137.2588 3910.0933 3044.9955 Z" fill="none" stroke="#FBC20F" opacity="0.6" stroke-width="1" class="glendale"/>
<path d="M 3888.9063 2998.9306 3905.0559 3042.8319 3998.4406 2959.729 4060.3525 2877.2421 4158.3663 2869.1473 4223.6112 2905.4908 4290.8272 3008.9387 4176.6444 3028.596 4037.5477 3057.9071 3965.9015 3072.0328 3895.2065 3072.0758 3888.9063 2998.9306 Z" fill="none" stroke="#FBC20F" opacity="0.6" stroke-width="1" class="glendale"/>
<path d="M 4278.2662 2890.9595 4327.5293 3018.1179 4255.4436 3091.0814 3878.7317 3139.5534 3958.0951 2939.3609 4103.4373 2958.5285 4255.1019 2874.4012 4278.2662 2890.9595 Z" fill="none" stroke="#FBC20F" opacity="0.6" stroke-width="1" class="glendale"/>
<path d="M 4250.474 3007.2574 4190.6602 3005.5008 3906.4496 3051.6169 3924.9394 3032.2303 4098.2399 2972.8061 4127.4466 2954.926 4249.5213 2889.281 4285.9908 2892.2138 4464.1674 2927.4173 4446.585 2929.2928 4395.6966 2939.524 4352.2106 2957.3016 4294.8599 2979.5249 4250.474 3007.2574 Z" fill="none" stroke="#FBC20F" opacity="0.6" stroke-width="1" class="glendale"/>
<path d="M 4198.8193 2988.8158 3736.1246 3101.9014 3736.9157 2970.9629 4173.8235 2986.0873 4194.1898 2987.9008 4198.8193 2988.8158 Z" fill="none" stroke="#FBC20F" opacity="0.6" stroke-width="1" class="glendale"/>
<path d="M 3914.2594 3045.4515 3999.3198 2967.4295 3951.681 2991.0026 4047.4685 2980.2739 4279.6035 2859.1504 4295.9885 2975.7548 4176.1781 3013.2846 4090.5761 3027.7008 4024.4032 3036.5512 3914.2594 3045.4515 Z" fill="none" stroke="#FBC20F" opacity="0.6" stroke-width="1" class="glendale"/>
<path d="M 4246.0505 3004.418 4108.1544 3021.2214 4041.5573 3058.1977 4031.3574 3045.3018 3970.284 3061.9797 3987.9282 3105.2978 3838.9342 3148.8215 3903.6103 3042.237 3878.9881 2964.3519 4277.4321 2948.1239 4325.6689 3012.5885 4246.0505 3004.418 Z" fill="none" stroke="#FBC20F" opacity="0.6" stroke-width="1" class="glendale"/>
<path d="M 3921.5289 3028.9601 3893.8318 2992.9175 3872.0375 2956.9839 3849.2759 2883.2516 3930.7777 2928.7921 3968.2864 2947.1851 4017.3672 2966.0227 4045.5979 2965.9849 4077.9926 2965.0184 4121.4658 2944.2116 4175.1046 2914.1683 4281.0057 2867.9065 4279.2323 2916.3121 4282.5465 2962.868 4317.3222 3002.9205 4285.416 3020.4918 4197.0373 3034.4612 4047.254 3163.3172 3960.2658 3192.0205 3845.412 3146.5086 3921.5289 3028.9601 Z" fill="none" stroke="#FBC20F" opacity="0.6" stroke-width="1" class="glendale"/>
<path d="M 4021.3147 3150.4411 3962.0053 3103.4866 4056.3368 3035.1249 4120.1654 3005.529 3792.5401 3052.0464 3769.4029 3056.6818 3803.4527 2874.0836 3910.815 2876.7253 3997.7997 2866.4746 4076.4711 2869.1344 4126.4416 2864.4541 4193.0845 2868.9654 4021.3147 3150.4411 Z" fill="none" stroke="#FBC20F" opacity="0.6" stroke-width="1" class="glendale"/>
<path d="M 3950.9608 2932.7436 4008.0602 2967.3037 4085.8015 2960.7441 4169.6633 2925.3868 4285.6511 2863.4268 4351.7594 3018.7875 4103.7512 3038.3223 3984.3721 3063.3809 3995.6245 3114.3371 3841.0673 3151.4133 3950.9608 2932.7436 Z" fill="none" stroke="#FBC20F" opacity="0.6" stroke-width="1" class="glendale"/>
<path d="M 3930.318 3118.9726 3914.7195 3043.1457 3901.5264 3041.3174 3899.8929 3030.0237 3908.4477 3023.7893 3916.0779 3018.4781 3920.6952 3009.4822 3923.4583 2998.1835 3928.759 2980.658 3933.832 2966.1297 3937.7437 2948.376 3949.7818 2952.7405 3961.8389 2972.0879 4023.8476 2966.9361 4085.8576 2963.1634 4090.4978 2971.9162 4078.0573 3011.5819 3930.318 3118.9726 Z" fill="none" stroke="#FBC20F" opacity="0.6" stroke-width="1" class="glendale"/>
<path d="M 3967.2746 2879.421 4277.7931 2884.5066 4335.4609 3056.3718 3987.4659 3105.7595 3892.926 3009.5158 3901.7606 3043.6224 3967.2746 2879.421 Z" fill="none" stroke="#FBC20F" opacity="0.6" stroke-width="1" class="glendale"/>
<path d="M 4321.9694 3014.4387 3914.7166 3040.8404 3967.2852 2887.7185 4269.9394 2892.8167 4321.9694 3014.4387 Z" fill="none" stroke="#FBC20F" opacity="0.6" stroke-width="1" class="glendale"/>
<path d="M 3964.5028 2883.1123 4078.3208 2868.2099 4272.7071 2887.2806 4285.7623 2948.1105 4508.9344 3005.8135 4477.5246 3039.9881 4337.8281 3088.1814 4188.8584 3135.4483 4138.9033 3160.4218 4071.3208 3160.5176 3959.3248 3180.0325 3885.3913 3290.7978 3783.5197 3271.544 3836.1579 3149.7468 3949.7881 2957.8116 3964.5028 2883.1123 Z" fill="none" stroke="#FBC20F" opacity="0.6" stroke-width="1" class="glendale"/>
<path d="M 3954.3987 2943.9756 4017.3672 2966.0227 4270.9531 2948.1342 4321.027 3004.2975 4041.551 3053.5871 3975.8369 3061.0505 3986.0827 3109.911 3831.5404 3159.8964 3954.3987 2943.9756 Z" fill="none" stroke="#FBC20F" opacity="0.6" stroke-width="1" class="glendale"/>
<path d="M 3886.1422 3143.2334 3830.6095 3155.2863 3860.1811 3109.1431 3903.6219 3051.9191 3935.9591 3002.0869 3955.3335 2951.3505 3985.8861 2957.7657 4053.458 2960.442 4121.0262 2960.3475 4237.5603 2902.0874 4263.4431 2881.7636 4275.253 2887.7375 4279.1991 2895.5678 4279.9076 2904.5558 4278.3064 2916.0831 4279.9413 2925.5308 4281.3433 2934.057 4281.8342 2951.5744 4286.7065 2959.6342 4291.8103 2967.6937 4295.5239 2974.603 4331.8287 2959.33 4356.4582 3019.4527 4338.6325 3015.3332 4338.674 3040.2296 4285.933 3054.1475 4203.5232 3038.6007 4025.8636 3090.4934 3886.1422 3143.2334 Z" fill="none" stroke="#FBC20F" opacity="0.6" stroke-width="1" class="glendale"/>
<path d="M 3602.6984 2965.5592 4344.0385 2926.8089 4330.3964 3072.5174 3599.0733 3053.159 3601.7777 2971.0922 3602.6984 2965.5592 Z" fill="none" stroke="#FBC20F" opacity="0.6" stroke-width="1" class="glendale"/>
<path d="M 3839.856 3145.3622 3962.5197 2961.4837 4168.8705 2923.1669 4194.5422 3067.8915 3928.8277 3224.3389 3839.856 3145.3622 Z" fill="none" stroke="#FBC20F" opacity="0.6" stroke-width="1" class="glendale"/>
<path d="M 3953.7531 3046.6798 4198.6818 2749.3461 4369.71 2994.4763 4128.4282 3065.6073 4034.1654 3068.351 3953.7531 3046.6798 Z" fill="none" stroke="#FBC20F" opacity="0.6" stroke-width="1" class="glendale"/>
<path d="M 3691.1997 2602.2671 4210.3367 2954.222 4149.7047 2950.1637 3691.1997 2602.2671 Z" fill="none" stroke="#FBC20F" opacity="0.6" stroke-width="1" class="glendale"/>
<path d="M 4272.2135 2867.9205 4285.3337 2969.3177 4292.2846 2974.8387 3975.8428 3065.6611 3953.4754 2945.8208 4090.3562 2870.9589 4272.2135 2867.9205 Z" fill="none" stroke="#FBC20F" opacity="0.6" stroke-width="1" class="glendale"/>
<path d="M 3914.2426 3031.62 3952.083 2942.5955 4259.7469 2885.4573 4245.5921 3007.1849 4121.1149 3022.1249 3914.2426 3031.62 Z" fill="none" stroke="#FBC20F" opacity="0.6" stroke-width="1" class="glendale"/>
<path d="M 3911.0156 3042.2281 4321.86 2948.0517 4518.0676 2939.41 4524.6393 2989.1873 4389.6477 3076.1059 3911.0156 3042.2281 Z" fill="none" stroke="#FBC20F" opacity="0.6" stroke-width="1" class="glendale"/>
<path d="M 4313.6098 2996.9332 3887.8492 3021.5088 3930.3473 2955.0697 3878.5927 3021.5197 3774.5728 2697.119 4126.091 2621.096 4313.6098 2996.9332 Z" fill="none" stroke="#FBC20F" opacity="0.6" stroke-width="1" class="glendale"/>
<path d="M 4069.2656 3012.9771 4049.0316 2707.673 4131.4073 2721.3842 4278.5584 2733.1433 4322.9686 2728.4621 4166.4282 3134.9968 4036.3263 2767.297 4102.3157 2969.1094 4106.3576 2998.3031 4069.2656 3012.9771 Z" fill="none" stroke="#FBC20F" opacity="0.6" stroke-width="1" class="glendale"/>
<path d="M 4290.3873 2946.259 4308.0772 3009.8512 3916.5747 3046.3708 3928.5847 3026.992 3961.7986 2940.2783 4290.3873 2946.259 Z" fill="none" stroke="#FBC20F" opacity="0.6" stroke-width="1" class="glendale"/>
<path d="M 3906.3874 3042.3489 3866.5305 3096.2255 3856.9531 3119.6365 3846.106 3146.2772 3874.4488 3138.521 3877.9548 3167.6817 3969.7065 2972.0779 4096.056 2975.1355 4274.5582 2887.2776 4255.3011 3000.7152 3980.5188 3102.5408 3890.7865 3156.1388 3906.3874 3042.3489 Z" fill="none" stroke="#FBC20F" opacity="0.6" stroke-width="1" class="glendale"/>
<path d="M 3840.3228 3148.8199 3907.7786 3044.5372 3961.3796 2974.8546 3989.5998 2966.5201 3999.0327 2924.7869 4164.2321 2916.0284 4377.8426 2939.1988 4334.9361 3019.0277 4344.312 3090.476 4184.6876 3132.2269 4032.4451 3166.1039 3840.3228 3148.8199 Z" fill="none" stroke="#FBC20F" opacity="0.6" stroke-width="1" class="glendale"/>
<path d="M 3875.7377 2955.1355 4002.4514 2884.9073 4161.6105 2864.4028 4293.9956 2888.1683 4375.5531 2953.4938 4324.76 3022.7329 4352.6442 3090.9231 3981.4481 3105.3061 3839.8641 3152.5092 3902.6874 3044.5434 3875.7377 2955.1355 Z" fill="none" stroke="#FBC20F" opacity="0.6" stroke-width="1" class="glendale"/>
<path d="M 3841.7746 2879.2036 4165.3109 2863.291 4273.4466 2886.7262 4279.4716 2950.1491 4354.4994 3093.1332 3923.5172 3121.7936 3841.7746 2879.2036 Z" fill="none" stroke="#FBC20F" opacity="0.6" stroke-width="1" class="glendale"/>
<path d="M 3719.4065 3047.5125 4222.5484 2770.2784 4324.9822 3157.3663 3719.4065 3047.5125 Z" fill="none" stroke="#FBC20F" opacity="0.6" stroke-width="1" class="glendale"/>
<path d="M 3997.1314 3063.7894 4007.6347 3064.3709 4013.6413 3056.5249 4028.5859 3049.455 4050.7784 3031.9052 4081.9357 3011.5765 4097.177 2988.9646 3937.8391 3083.0032 3867.8875 3031.4489 3851.7828 2994.384 3956.3801 2968.367 4020.3751 2957.0935 4099.5579 2988.7953 3997.1314 3063.7894 Z" fill="none" stroke="#FBC20F" opacity="0.6" stroke-width="1" class="glendale"/>
<path d="M 4066.8238 2965.9826 4141.4275 2947.2014 4179.7319 3012.2143 4127.9464 3047.3298 4073.3634 3070.4599 4008.8108 3096.0443 3952.9596 3115.0039 3862.2677 3141.8569 3851.1967 3099.3536 3851.1458 3055.0911 3886.2704 3011.7117 3947.7259 2988.1676 4013.4254 2973.3304 4066.8238 2965.9826 Z" fill="none" stroke="#FBC20F" opacity="0.6" stroke-width="1" class="glendale"/>
<path d="M 3991.4492 2965.1347 3992.8379 2965.3634 4008.1127 2967.1875 4089.324 2959.9314 4110.3799 2958.9797 4164.243 2923.4043 4219.7441 2902.3455 4252.1056 2881.7815 4275.483 2886.8152 4279.9804 2949.9638 4288.8121 2973.9223 4322.1791 3001.2989 4324.0874 3035.8738 4287.0738 3044.0025 4288.1885 3017.7211 4257.8903 3028.3734 4243.739 3006.0352 4097.7454 3024.4634 4100.3023 3032.5281 4042.7191 3061.6541 4032.0513 3045.0704 4024.8826 3048.9989 3977.9177 3059.4341 3974.2258 3067.9685 3987.9306 3107.1421 3967.3388 3111.7794 3970.3642 3124.9165 3931.2622 3133.9569 3926.3884 3122.8967 3898.8572 3131.2297 3895.6259 3138.6111 3912.0857 3161.1854 3877.1439 3166.991 3871.3242 3138.4094 3838.7035 3149.5134 3854.1723 3116.5274 3857.4028 3108.2241 3935.03 2999.3218 3959.9894 2973.4733 3991.4492 2965.1347 Z" fill="none" stroke="#FBC20F" opacity="0.6" stroke-width="1" class="glendale"/>
<path d="M 3889.5952 3127.5521 3921.7145 3086.0159 3970.2951 3070.7399 3942.7139 3037.3481 3922.1073 3028.8442 3947.5145 2990.0857 3962.0729 2974.1622 3991.4498 2965.5957 4019.4522 2967.864 4057.6275 2963.6634 4124.2611 2957.1158 4160.3554 2954.5276 4246.4324 2952.7831 4278.8198 2947.6607 4323.3582 3014.667 4129.4407 3018.6552 3891.6807 3129.6245 3978.4365 3103.0046 4167.1675 3022.9798 4163.9215 3018.8353 3889.5952 3127.5521 Z" fill="none" stroke="#FBC20F" opacity="0.6" stroke-width="1" class="glendale"/>
<path d="M 3773.1017 3052.9894 4000.7004 2961.4345 4280.2163 2952.7295 4317.3442 3016.2905 3869.4687 3134.9533 3773.1017 3052.9894 Z" fill="none" stroke="#FBC20F" opacity="0.6" stroke-width="1" class="glendale"/>
<path d="M 4057.0469 2877.4586 4059.8171 2872.8452 4278.216 2859.6136 4307.9672 2942.5425 4340.3885 2958.1632 4321.0103 2994.1548 4327.5659 3040.248 4355.4074 3082.6192 4165.6979 3124.4167 4184.2919 3176.9548 4095.4666 3213.974 3970.1617 2966.0841 4084.923 2956.7105 4057.0469 2877.4586 Z" fill="none" stroke="#FBC20F" opacity="0.6" stroke-width="1" class="glendale"/>
<path d="M 3954.3987 2943.9756 4097.8968 2967.7566 4280.0669 2859.6106 4280.2118 2949.9635 4334.8288 2954.4844 4336.749 2995.9729 4298.8252 3012.6324 4184.96 3005.4338 4038.8051 3076.6439 4023.9655 3055.4549 3967.5116 3065.6718 3967.5749 3115.4677 3844.4867 3146.9707 3954.3987 2943.9756 Z" fill="none" stroke="#FBC20F" opacity="0.6" stroke-width="1" class="glendale"/>
<path d="M 3917.0414 2965.2587 3922.3403 2971.89 3941.8113 2998.6053 3917.0414 2965.2587 Z" fill="none" stroke="#FBC20F" opacity="0.6" stroke-width="1" class="glendale"/>
<path d="M 3985.1498 3104.3792 3909.2597 3121.0732 3894.3783 3062.9956 3911.0128 3039.9228 3950.716 2959.6545 3965.5173 2953.1817 4002.5636 2970.6524 4108.0666 2959.444 4096.9829 2976.0562 4111.857 3021.2161 4047.1101 3057.268 3972.1354 3061.9774 3985.1498 3104.3792 Z" fill="none" stroke="#FBC20F" opacity="0.6" stroke-width="1" class="glendale"/>
<path d="M 3955.5738 2929.7513 4282.0605 2947.897 4322.7927 3010.7859 4350.678 3079.8975 4182.4784 3128.9389 4100.6649 3210.5211 3957.0171 3179.5355 3921.5108 3107.9173 3906.6832 3035.1128 3955.5738 2929.7513 Z" fill="none" stroke="#FBC20F" opacity="0.6" stroke-width="1" class="glendale"/>
<path d="M 3955.3446 2960.1097 4267.6534 2910.3377 4288.1736 3008.5003 3829.1507 3093.0407 3955.3446 2960.1097 Z" fill="none" stroke="#FBC20F" opacity="0.6" stroke-width="1" class="glendale"/>
<path d="M 3985.1498 3104.3792 3841.7105 3147.8961 3954.4097 2952.7347 4113.6175 2957.592 4275.9133 2866.5317 4325.2274 3025.4983 4303.0326 3038.444 4289.1461 3037.5444 4285.864 3011.2703 4242.813 3005.8062 4041.5623 3061.8862 4028.1206 3047.6114 3969.3577 3061.5199 3985.1498 3104.3792 Z" fill="none" stroke="#FBC20F" opacity="0.6" stroke-width="1" class="glendale"/>
<path d="M 3838.0094 3149.7447 3917.4951 3041.9897 4278.467 3016.3536 4008.3113 3118.1816 3838.0094 3149.7447 Z" fill="none" stroke="#FBC20F" opacity="0.6" stroke-width="1" class="glendale"/>
<path d="M 3923.9575 3027.9198 4279.1296 2852.2367 4478.2362 2921.9651 3982.369 3101.6163 3923.9575 3027.9198 Z" fill="none" stroke="#FBC20F" opacity="0.6" stroke-width="1" class="glendale"/>
<path d="M 4020.1476 2968.7851 4116.3936 2957.1271 4251.8742 2881.7819 4274.5589 2887.7386 4289.9609 2968.8492 4321.8942 2968.7972 4354.3778 3020.8393 4321.9572 3007.0622 4324.7646 3025.4991 4285.9011 3034.3223 4287.7212 3014.9556 4240.0375 3006.7326 4097.5224 3030.4573 4039.7109 3061.8887 3987.93 3106.681 3970.8292 3126.5297 3931.4951 3135.1093 3908.3736 3153.8122 3876.6821 3167.9138 3866.2349 3140.4902 3840.7865 3149.511 3856.4861 3116.0636 3956.2893 2975.322 3987.2858 2966.5231 4020.1476 2968.7851 Z" fill="none" stroke="#FBC20F" opacity="0.6" stroke-width="1" class="glendale"/>
<path d="M 3874.9561 3077.7727 3888.7419 2993.8457 4172.7838 2909.5619 4097.9098 2976.977 4172.9267 3005.4518 4234.3671 3229.447 4154.8153 3278.4497 4010.424 3316.4673 3801.1491 3305.6514 3874.9561 3077.7727 Z" fill="none" stroke="#FBC20F" opacity="0.6" stroke-width="1" class="glendale"/>
<path d="M 3912.1722 3041.7656 3922.3375 3027.8065 3961.4969 2976.1222 3989.8317 2966.8656 4018.4131 2969.4789 4022.0087 2976.1589 4031.3766 2973.265 4040.511 2968.8731 4049.3006 2966.2104 4059.2483 2964.3527 4090.0218 2962.466 4094.3202 2974.9074 4126.2136 2947.086 4211.8792 2903.7405 4253.2634 2882.3559 4276.1775 2887.0445 4293.2121 2975.9898 4301.2086 2984.0447 4319.9811 3001.533 4324.6323 3015.4717 4276.6046 3009.441 4225.1132 3007.7931 4190.6389 3011.6492 4137.7699 3017.4905 4103.1807 3022.381 4100.4162 3031.26 4077.4053 3042.0117 4041.9088 3061.4246 4031.8207 3045.647 4010.1918 3052.361 3976.8767 3059.7813 3972.3749 3068.3167 3986.1875 3101.4961 3961.0993 3119.0494 3934.6104 3127.728 3930.7803 3118.5109 3925.1991 3096.7316 3921.0195 3085.4404 3917.0539 3059.7408 3916.2247 3043.9507 3912.1722 3041.7656 Z" fill="none" stroke="#FBC20F" opacity="0.6" stroke-width="1" class="glendale"/>
<path d="M 3889.3101 2997.8075 3986.3782 2963.2294 4283.5263 2944.1947 4297.9244 2973.1626 4324.2686 3000.9257 4265.0618 3022.2293 4101.6328 3035.3294 4036.6571 3067.4698 3967.7624 3072.1494 3889.3101 2997.8075 Z" fill="none" stroke="#FBC20F" opacity="0.6" stroke-width="1" class="glendale"/>
<path d="M 3774.8506 2957.0927 4332.9838 2958.1755 4316.0875 3378.7383 3654.0024 3386.9721 3494.4127 2977.6354 3724.7845 2874.1668 3797.0517 2945.0826 3774.8506 2957.0927 Z" fill="none" stroke="#FBC20F" opacity="0.6" stroke-width="1" class="glendale"/>
<path d="M 3863.63 2890.6106 3868.2533 2886.9174 4172.7179 2865.3082 4316.4427 3031.0453 4322.9376 3040.2556 3816.7371 3168.2129 3811.1803 3166.3746 3863.63 2890.6106 Z" fill="none" stroke="#FBC20F" opacity="0.6" stroke-width="1" class="glendale"/>
<path d="M 4287.3663 2976.2034 3845.9642 3145.3017 3634.1425 2931.066 3867.1638 2881.2284 4270.7107 2868.6536 4287.3663 2976.2034 Z" fill="none" stroke="#FBC20F" opacity="0.6" stroke-width="1" class="glendale"/>
<path d="M 3907.5472 3044.5375 3920.256 3028.8464 3939.204 3006.2321 3959.7624 2976.9312 3987.751 2968.3666 4019.2227 2969.2474 4049.9967 2967.5925 4089.3285 2963.1585 4104.8359 2965.6722 4144.3661 2938.8769 4222.9817 2901.188 4252.91 2951.8509 4246.5159 3006.0309 4188.4422 3012.8051 4106.0727 3021.9159 4099.6074 3032.068 4076.9456 3044.3175 4048.4977 3056.5746 4034.3658 3045.2978 3979.3074 3060.3545 3984.9172 3103.4573 3911.5755 3122.2231 3905.5414 3108.3978 3897.6174 3062.3001 3907.5472 3044.5375 Z" fill="none" stroke="#FBC20F" opacity="0.6" stroke-width="1" class="glendale"/>
<path d="M 3998.8528 2964.203 4088.6292 2959.4714 4100.6762 2969.5968 4136.7265 2936.3525 4191.2975 2911.3781 4278.2292 2867.9109 4288.5703 2967.4684 4326.5763 3001.5222 4287.716 3011.7283 4244.1993 3004.4209 4112.7853 3023.0589 4103.5379 3029.5267 4035.0898 3067.4276 4030.4342 3047.1473 3981.3863 3057.3549 3971.2191 3069.3555 3984.2217 3102.5361 3890.7502 3125.7063 3901.8371 3107.2496 3895.2974 3057.4618 3903.6175 3048.2307 3886.8841 2988.3156 3838.6283 2879.5759 3865.4821 2891.5304 3998.8528 2964.203 Z" fill="none" stroke="#FBC20F" opacity="0.6" stroke-width="1" class="glendale"/>
<path d="M 4280.1128 2888.1907 4454.1636 2917.3986 4319.106 2961.8865 4391.4197 3029.9972 4317.3457 3017.2126 4302.6373 3079.9401 4245.1567 3024.7051 4197.0058 3013.7143 3980.5733 3144.9611 3863.9602 3174.6148 3897.1609 3067.6029 3908.2314 3036.2378 3972.9338 2962.3924 4011.7528 2919.9298 4120.9865 2932.6873 4254.1894 2882.7002 4281.9253 2864.2173 4280.1128 2888.1907 Z" fill="none" stroke="#FBC20F" opacity="0.6" stroke-width="1" class="glendale"/>
<path d="M 4095.1875 3015.7072 3940.6171 3026.055 3950.738 2977.1731 4094.1737 2953.0095 4095.1875 3015.7072 Z" fill="none" stroke="#FBC20F" opacity="0.6" stroke-width="1" class="glendale"/>
<path d="M 3929.9949 2669.2875 4059.3813 2554.8301 4063.0846 2556.6683 3999.5664 2801.9392 3994.9464 2807.4764 3900.3585 2647.2021 3907.763 2649.0366 3929.9949 2669.2875 Z" fill="none" stroke="#FBC20F" opacity="0.6" stroke-width="1" class="glendale"/>
<path d="M 4285.6347 2868.821 4330.3032 3016.2691 3913.7843 3035.309 3946.9917 2942.1409 4112.6854 2952.9833 4285.6347 2868.821 Z" fill="none" stroke="#FBC20F" opacity="0.6" stroke-width="1" class="glendale"/>
<path d="M 3747.4049 3266.9706 3683.4511 3197.8634 3657.4923 3160.0767 3624.1153 3106.6206 3619.4558 3072.5054 3638.8717 3046.6683 3721.2224 3012.4713 3770.2688 3000.4335 3810.0689 2998.5462 3845.2481 3003.117 3898.9437 3010.4306 3938.7417 3006.6938 3990.5619 2994.6412 4037.7539 2983.5142 4086.8012 2976.0705 4131.2344 2978.7734 4163.6212 2972.2718 4238.598 2974.0019 4280.2429 2969.3259 4368.1421 2949.8184 4435.6689 2926.6513 4462.5101 2926.6035 4553.0858 2858.2114 4541.0804 2872.0631 4529.0195 2856.4128 4540.1947 2893.2696 4491.2193 2935.7714 4466.2671 2957.0229 4420.0635 3000.441 4372.9018 3027.2626 4344.2218 3036.5319 4282.2702 3079.0508 4226.7648 3103.1142 4172.1864 3129.9401 4109.2715 3155.8533 4014.8586 3168.894 3942.6706 3188.3536 3890.8403 3201.3282 3852.91 3226.2739 3786.2755 3251.2501 3747.4049 3266.9706 Z" fill="none" stroke="#FBC20F" opacity="0.6" stroke-width="1" class="glendale"/>
<path d="M 3953.48 2949.5088 4055.7776 2964.588 4118.7043 2954.8187 4278.6883 2865.6054 4321.5065 3014.4395 4054.4716 3024.9845 3983.2989 3104.8427 3873.6405 3140.0205 3853.7137 3120.2166 3900.8299 3039.474 3842.7984 2884.1809 3953.48 2949.5088 Z" fill="none" stroke="#FBC20F" opacity="0.6" stroke-width="1" class="glendale"/>
<path d="M 4277.3362 2888.1951 4319.1909 3013.5212 4085.94 3022.1748 3917.5015 3047.2917 3791.6194 3056.658 3604.516 2927.7552 3669.2364 2855.7829 3993.1818 2873.8561 4181.9798 2869.904 4291.2041 2878.9533 4225.5882 2940.8294 4277.3362 2888.1951 Z" fill="none" stroke="#FBC20F" opacity="0.6" stroke-width="1" class="glendale"/>
<path d="M 3634.083 2872.4106 4129.8932 2691.1419 3856.0555 2743.118 3985.6229 2754.0213 4259.4917 2724.1299 4418.8861 2856.612 4441.6083 3144.2557 4149.2747 3288.6035 3734.3365 3163.6899 3634.083 2872.4106 Z" fill="none" stroke="#FBC20F" opacity="0.6" stroke-width="1" class="glendale"/>
<path d="M 4279.1621 2872.5191 4280.0802 2867.908 4277.3805 2915.8541 4309.9224 3006.1599 3964.7251 3058.2983 4279.1621 2872.5191 Z" fill="none" stroke="#FBC20F" opacity="0.6" stroke-width="1" class="glendale"/>
<path d="M 3934.0816 2980.882 4232.2777 3076.3634 4019.6027 3255.5808 3702.7534 3056.7503 4222.995 3059.7794 3934.0816 2980.882 Z" fill="none" stroke="#FBC20F" opacity="0.6" stroke-width="1" class="glendale"/>
<path d="M 3905.0004 3043.6185 3926.8002 3081.3989 3885.0241 2980.9414 4042.2449 2882.0885 4256.9609 2879.469 4256.6066 2948.157 4260.395 3002.5513 4259.4919 3016.8448 4161.0119 3085.6927 4107.835 3122.1952 3998.1161 3108.9732 3936.0654 3087.8425 3905.0004 3043.6185 Z" fill="none" stroke="#FBC20F" opacity="0.6" stroke-width="1" class="glendale"/>
<path d="M 3909.5779 3049.6998 3918.1758 3035.4392 3960.6841 2978.2181 3982.8868 2968.9694 4039.3472 2967.9729 4104.5591 2963.7207 4130.4558 2949.8533 4190.5672 2915.6507 4247.7176 2891.1619 4273.5481 2893.437 4273.6393 2950.6 4301.5118 2976.9721 4325.6264 3006.4383 4321.3712 3019.371 4241.1883 3009.8455 4102.0893 3028.2387 3909.5779 3049.6998 Z" fill="none" stroke="#FBC20F" opacity="0.6" stroke-width="1" class="glendale"/>
<path d="M 3952.5591 2953.1981 3961.7379 2892.3354 4268.9977 2882.6767 4261.7966 3010.8477 4071.1398 3029.572 3984.2241 3104.3804 3912.0191 3106.3151 3898.1076 3085.1223 3913.7865 3037.1531 3921.176 3024.2349 3952.5591 2953.1981 Z" fill="none" stroke="#FBC20F" opacity="0.6" stroke-width="1" class="glendale"/>
<path d="M 3880.3852 2971.7265 3963.6521 2942.1199 4003.4832 2966.041 4114.5444 2958.5127 4168.634 2919.7098 4221.362 2901.1905 4278.6868 2864.6834 4280.6539 2937.0546 4291.8218 2974.8395 4321.9489 3001.9908 4328.9575 3042.0899 4307.6903 3056.4176 4245.5906 3006.2628 4097.5114 3022.6196 4101.6905 3032.2956 4040.6384 3063.2706 4021.178 3047.6207 3975.8346 3059.2063 3969.3712 3072.1243 3951.7476 3044.022 3942.0194 3037.1184 3909.6266 3041.7687 3900.8332 3042.2403 3880.3852 2971.7265 Z" fill="none" stroke="#FBC20F" opacity="0.6" stroke-width="1" class="glendale"/>
<path d="M 4286.5721 2876.195 4353.4429 3015.3084 3984.1694 3061.9619 3960.88 2945.8115 4082.0408 2881.1119 4286.5721 2876.195 Z" fill="none" stroke="#FBC20F" opacity="0.6" stroke-width="1" class="glendale"/>
<path d="M 3923.9383 3012.2444 3913.7271 2988.2833 3909.0622 2957.8618 3921.0655 2933.875 3938.6169 2906.1938 3951.5513 2887.7384 3974.7071 2901.5385 4012.6382 2889.5037 4045.9607 2892.2249 4078.3464 2886.6488 4134.8005 2884.7247 4182.0047 2886.499 4226.4382 2891.9631 4257.0068 2908.5107 4273.7195 2941.6758 4283.9453 2969.3199 4301.5932 3007.0955 4309.9842 3043.9653 4308.1916 3079.931 4280.4661 3108.5626 4233.2736 3121.5476 4173.0888 3114.2617 4118.4647 3110.6529 4001.7925 3088.6809 3962.8901 3071.2104 3939.7063 3038.0434 3930.4303 3022.3793 3923.9383 3012.2444 Z" fill="none" stroke="#FBC20F" opacity="0.6" stroke-width="1" class="glendale"/>
<path d="M 3914.8705 3040.4559 3962.9233 2975.6209 3991.3732 2965.9031 4022.2289 2967.7833 4052.6933 2965.2835 4092.1038 2962.0786 4152.1064 2957.4591 4147.6758 2934.0311 4219.3547 2899.8102 4253.8037 2882.5468 4279.6919 2866.1412 4278.1332 2904.1742 4282.2879 2945.8108 4293.91 2978.14 4329.9509 3036.1714 4285.9936 3043.6199 4245.9755 3005.5707 4183.8143 3012.8889 4111.317 3020.9863 4086.817 3042.306 4038.246 3062.2751 3976.3047 3064.7386 3944.4915 3039.8051 3914.8705 3040.4559 Z" fill="none" stroke="#FBC20F" opacity="0.6" stroke-width="1" class="glendale"/>
<path d="M 4292.2846 2974.8387 4242.3494 3005.3458 3909.1626 3040.8471 3949.802 2968.8759 4280.2103 2949.0414 4292.2846 2974.8387 Z" fill="none" stroke="#FBC20F" opacity="0.6" stroke-width="1" class="glendale"/>
<path d="M 4291.362 2976.6843 4348.0002 3081.7095 4172.1891 3131.7845 4197.2504 3175.0908 3908.2113 3019.6402 3953.4371 2915.395 4269.0124 2891.8962 4291.362 2976.6843 Z" fill="none" stroke="#FBC20F" opacity="0.6" stroke-width="1" class="glendale"/>
<path d="M 4288.4095 3011.2662 4218.7549 3011.3759 4182.6811 3028.9502 4168.8688 3077.8429 4120.7572 3095.4339 4093.9475 3121.2926 4079.6445 3154.5117 4032.9005 3160.5699 3975.1663 3079.494 3988.676 2967.9044 4058.5519 2962.7401 4118.4736 2955.28 4246.1949 2948.8649 4288.4095 3011.2662 Z" fill="none" stroke="#FBC20F" opacity="0.6" stroke-width="1" class="glendale"/>
<path d="M 3840.7868 3149.7442 3867.5601 3086.0832 3906.3901 3044.5415 3919.3225 3022.3956 3943.3308 2975.3409 3953.4754 2945.8234 3989.5969 2964.2177 4040.5046 2964.1503 4114.5418 2956.6713 4281.1315 2946.2765 4294.1388 2976.6824 4322.8737 3001.5309 4324.7493 3016.2809 4246.9791 3006.2633 4105.3775 3021.2279 4036.9363 3063.7393 4023.0288 3047.1598 3974.9089 3059.2101 3971.2238 3073.0467 3975.8653 3083.1843 3980.5081 3094.2441 3985.1474 3102.5375 3968.496 3111.7805 3972.2166 3125.6084 3929.6456 3136.7281 3924.9964 3120.1344 3887.9806 3132.1675 3840.7868 3149.7442 Z" fill="none" stroke="#FBC20F" opacity="0.6" stroke-width="1" class="glendale"/>
<path d="M 4276.4048 2884.5088 4321.024 3002.4534 4292.3368 3007.1105 4108.1662 3029.5201 4042.4929 3065.5734 4034.1456 3053.5971 4029.5036 3043.4601 3972.1401 3065.6659 3983.296 3102.5373 3877.8114 3144.1655 3853.7147 3121.1388 3899.9103 3044.5467 3837.7028 2879.577 3950.6987 2945.8243 4092.3238 2953.9341 4097.9085 2976.0549 4120.0847 2949.2846 4222.7589 2906.7202 4274.514 2859.6195 4281.9609 2886.3438 4286.685 2946.265 4276.4048 2884.5088 Z" fill="none" stroke="#FBC20F" opacity="0.6" stroke-width="1" class="glendale"/>
<path d="M 4323.7994 3001.5267 4328.4504 3015.3501 4246.0505 3004.418 4214.5846 3008.155 4051.6984 3027.7545 4032.2794 3042.5343 3977.686 3059.2039 3972.146 3070.2765 3942.4833 3038.0399 3902.6896 3046.3876 3837.6965 2874.0453 3989.4881 2880.3144 4169.0132 2863.4699 4275.4837 2887.2761 4291.3546 2972.0741 4323.7994 3001.5267 Z" fill="none" stroke="#FBC20F" opacity="0.6" stroke-width="1" class="glendale"/>
<path d="M 3953.4592 2932.9128 4112.6788 2948.3732 4248.6262 2876.2553 4280.1202 2892.8005 4324.7463 3014.4342 3858.3382 3116.5226 3953.4592 2932.9128 Z" fill="none" stroke="#FBC20F" opacity="0.6" stroke-width="1" class="glendale"/>
<path d="M 3718.7236 3288.2135 3815.799 3157.1473 3972.1377 3063.8216 3919.3304 3028.8475 3951.6185 2941.2131 4002.5552 2964.1982 4091.406 2959.4675 4094.1996 2971.45 4249.5575 2879.9416 4274.5493 2881.7459 4292.2846 2974.8387 4248.8274 3004.4136 4108.1544 3021.2214 4058.1768 3026.8236 3981.3899 3060.1213 3718.7236 3288.2135 Z" fill="none" stroke="#FBC20F" opacity="0.6" stroke-width="1" class="glendale"/>
<path d="M 3935.03 2999.3218 3943.5734 2984.3279 3947.7165 2966.5735 3950.2463 2954.123 3960.4202 2948.1171 3989.596 2963.5235 4027.0847 2965.0878 4086.0832 2959.014 4114.7729 2956.4379 4152.4544 2931.7196 4167.2484 2921.5558 4214.1916 2902.815 4226.2147 2897.0342 4252.5683 2881.7808 4277.2993 2865.1466 4278.7791 2922.3057 4284.3918 2959.1769 4295.5287 2977.5996 4321.2542 3001.7614 4327.0677 3018.8102 4326.8633 3035.1776 4332.4383 3047.8473 4309.3111 3056.876 4216.7572 3066.705 4151.7625 3091.0087 4126.7784 3098.1917 4090.0373 3138.5892 4063.449 3158.684 4013.9277 3164.9757 3990.5657 3176.073 3948.4697 3198.4911 3929.7549 3225.4906 3925.1392 3236.5637 3839.6288 3149.0512 3854.172 3116.2968 3870.3405 3088.8438 3894.3709 3056.7713 3916.7828 3027.237 3935.03 2999.3218 Z" fill="none" stroke="#FBC20F" opacity="0.6" stroke-width="1" class="glendale"/>
<path d="M 3839.5454 2872.1994 4175.4944 2865.3041 4275.4866 2889.12 4280.3109 3011.7402 4127.5107 2964.0263 4161.9145 3070.0151 3859.344 3185.687 3804.6449 3116.5832 3898.0546 3040.8605 3839.5454 2872.1994 Z" fill="none" stroke="#FBC20F" opacity="0.6" stroke-width="1" class="glendale"/>
<path d="M 4333.9178 3012.8644 4135.5196 3072.3544 4099.2591 2978.1083 4269.9518 2911.6258 4333.9178 3012.8644 Z" fill="none" stroke="#FBC20F" opacity="0.6" stroke-width="1" class="glendale"/>
<path d="M 4353.5607 3085.3887 3911.0151 3041.767 4279.1355 2855.9244 4294.1299 2971.1476 4353.5607 3085.3887 Z" fill="none" stroke="#FBC20F" opacity="0.6" stroke-width="1" class="glendale"/>
<path d="M 3901.7595 3042.7003 3890.5976 2997.5317 3957.2149 2975.3208 3997.0028 2965.1274 4104.359 2955.7612 4280.203 2944.4314 4283.0063 2961.0232 4295.9915 2977.5988 4311.751 2992.3259 4322.8768 3003.3724 4325.6765 3017.1989 4242.3509 3006.2679 3901.7595 3042.7003 Z" fill="none" stroke="#FBC20F" opacity="0.6" stroke-width="1" class="glendale"/>
<path d="M 3786.1561 3053.3129 3611.3997 2920.8664 3676.4351 2865.6724 4280.7272 2886.9644 4304.8103 3011.9523 3786.1561 3053.3129 Z" fill="none" stroke="#FBC20F" opacity="0.6" stroke-width="1" class="glendale"/>
<path d="M 3910.5525 3041.9981 3960.6863 2975.547 3988.4425 2966.2911 4018.9891 2967.6341 4116.394 2957.3576 4252.1059 2882.012 4276.4085 2886.8137 4279.7487 2949.7337 4280.9204 2958.952 4316.6246 3000.847 4295.3496 3009.8718 4243.9707 3006.2654 4104.4515 3020.9961 4083.886 3042.6942 4047.1092 3056.5765 4022.5675 3048.3104 3974.2164 3060.5915 3970.758 3070.7393 3985.1456 3101.1516 3960.858 3111.3265 3962.4883 3119.3934 3936.8122 3130.2613 3927.7728 3119.4368 3909.7212 3119.9199 3904.3834 3107.7076 3900.895 3093.6489 3890.0181 3093.8924 3888.8376 3074.2983 3898.075 3057.9195 3910.5525 3041.9981 Z" fill="none" stroke="#FBC20F" opacity="0.6" stroke-width="1" class="glendale"/>
<path d="M 4093.2584 2960.3869 4058.8916 2872.8464 4279.1474 2863.2998 4359.0014 3018.0653 3973.9926 3066.5856 3915.6266 3027.93 3939.6284 2975.3429 4093.2584 2960.3869 Z" fill="none" stroke="#FBC20F" opacity="0.6" stroke-width="1" class="glendale"/>
<path d="M 3946.9156 2881.2906 3971.9081 2884.0248 3992.2743 2887.6864 4045.0689 2917.1193 4087.7036 2959.4727 4079.4618 3023.1059 4056.3582 3050.8007 3982.3441 3082.2512 3934.2322 3102.5992 3886.1313 3134.0115 3820.4094 3140.5425 3778.6608 3057.5941 3771.1993 3005.0428 3779.4697 2948.7896 3840.5066 2903.5447 3877.4966 2876.7651 3926.5373 2867.4868 3946.9156 2881.2906 Z" fill="none" stroke="#FBC20F" opacity="0.6" stroke-width="1" class="glendale"/>
<path d="M 3910.0905 3042.6902 4090.4998 2973.2992 4454.1603 2915.5546 4515.2892 2938.4932 4520.0095 2988.2739 4472.8979 3040.9186 4199.9424 3118.8322 4115.5623 3023.055 3911.0732 3089.7174 3910.0905 3042.6902 Z" fill="none" stroke="#FBC20F" opacity="0.6" stroke-width="1" class="glendale"/>
<path d="M 3843.678 3148.1244 3847.7149 3136.477 3855.5717 3125.8628 3859.7252 3115.1377 3874.5024 3085.6114 3895.768 3063.9161 3923.0319 3027.9209 3961.3883 2981.7699 3994.2248 2964.209 4044.2058 2963.2207 4083.0795 2962.2452 4128.4203 2952.9607 4179.2833 2923.3819 4231.0644 2891.0339 4287.4857 2868.818 4286.6285 2911.2293 4301.5032 2951.7731 4344.0739 2948.0149 4314.3782 2901.0426 4363.4378 2904.6487 4415.2792 2911.0134 4390.3307 2935.0283 4350.5994 2975.6647 4363.6343 3020.8237 4268.2775 3011.7594 4152.5762 3014.7026 4082.2863 3057.2197 4037.8533 3057.2806 3995.2741 3059.1812 3979.5646 3080.4105 3957.4011 3122.858 3910.1978 3131.2161 3925.9436 3137.6522 3877.8038 3137.7101 3843.678 3148.1244 Z" fill="none" stroke="#FBC20F" opacity="0.6" stroke-width="1" class="glendale"/>
<path d="M 4293.2117 2975.7593 4307.1154 2987.7233 4321.024 3002.4534 4324.7372 3008.9017 4325.6902 3025.4976 4329.4142 3038.4007 4181.4053 3104.1055 4118.5135 3144.7736 4081.5301 3178.948 4022.3079 3201.1625 4010.3001 3222.3905 3982.5282 3225.1935 3964.0065 3221.5281 3923.2398 3197.6001 3889.8969 3186.5734 3862.1064 3172.7725 3840.8015 3162.6525 3833.3951 3162.6609 3839.86 3148.8204 3850.9375 3121.142 3862.0251 3102.6858 3873.1101 3082.3855 3891.5979 3060.2326 3902.6896 3046.3876 3918.3968 3022.3941 3931.3332 3003.9367 3939.6376 2982.7192 3944.2415 2963.3507 3947.9185 2943.0618 3950.6871 2936.6043 3966.4335 2945.8044 3972.9232 2954.0943 3989.5933 2961.449 3999.7784 2964.2018 4033.0986 2963.2356 4052.5349 2962.2873 4071.9698 2960.4166 4086.7767 2958.552 4097.8825 2957.6144 4106.2102 2955.7585 4113.6162 2956.67 4133.0322 2941.8899 4156.1485 2926.1822 4179.2695 2914.1621 4211.6453 2902.1274 4221.8191 2897.5019 4276.3782 2867.9139 4278.2765 2897.4132 4279.2537 2929.6809 4285.7727 2954.5646 4293.2117 2975.7593 Z" fill="none" stroke="#FBC20F" opacity="0.6" stroke-width="1" class="glendale"/>
<path d="M 4278.2248 2865.1451 4277.796 2886.3505 4283.4491 2948.5752 4296.4491 2974.371 4335.7613 2958.6319 4359.9302 3019.9079 4327.0635 3016.2745 4328.9529 3039.3236 4283.601 3043.086 4290.0324 3013.1077 3874.1034 3140.0199 3852.3261 3121.1404 3904.0725 3041.7754 3876.6681 2959.2835 3950.2249 2937.0658 4003.943 2963.7353 4109.9178 2959.4413 4249.5597 2881.3246 4278.2248 2865.1451 Z" fill="none" stroke="#FBC20F" opacity="0.6" stroke-width="1" class="glendale"/>
<path d="M 3907.3124 3041.7715 3949.8216 2984.5506 3979.4212 2968.8383 4004.4016 2960.5076 4281.133 2947.1959 4321.0255 3003.3754 4246.9921 3014.5593 4189.6132 3022.0242 4120.1826 3017.5159 4041.5548 3056.3534 4030.433 3046.2252 3977.6907 3062.8924 3985.1474 3102.5349 3969.4405 3126.5315 3929.6456 3136.7255 3917.587 3117.3744 3882.4239 3130.3271 3900.908 3104.4842 3897.1543 3062.0702 3907.3124 3041.7715 Z" fill="none" stroke="#FBC20F" opacity="0.6" stroke-width="1" class="glendale"/></svg>