<?xml version="1.0"?><svg xmlns="http://www.w3.org/2000/svg" version="1.2" baseProfile="tiny" width="6000" height="5918" viewBox="0 0 6000 5918" stroke-linecap="round" stroke-linejoin="round"><path d="M 3154.8073 4247.9899 3337.1934 4161.6928 3340.875 4170.0426 3358.9295 4186.2669 3375.284 4215.4544 3383.6513 4255.149 3400.3584 4290.223 3407.1332 4310.8925 3402.4973 4309.049 3439.6147 4366.2714 3452.5654 4408.4459 3429.4491 4492.4978 3369.0629 4496.8482 3318.5359 4468.0411 3282.6921 4414.668 3259.9613 4378.4806 3243.7327 4353.1014 3209.4197 4319.8774 3179.7391 4276.4949 3167.9047 4263.309 3281.7505 4182.3793 3154.8073 4247.9899 Z" fill="none" stroke="#012394" opacity="0.6" stroke-width="1" class="gravesend"/>
<path d="M 2919.8404 4395.2092 2928.1838 4397.5164 3075.1192 4415.4864 3126.098 4396.5382 3151.6608 4568.7601 3137.3251 4658.8191 3047.8582 4703.6489 3049.6848 4610.3582 2939.3309 4523.5687 2919.8404 4395.2092 Z" fill="none" stroke="#012394" opacity="0.6" stroke-width="1" class="gravesend"/>
<path d="M 2905.9339 4385.0539 3112.636 4340.6784 3128.5163 4659.2844 2953.273 4700.9013 2905.9339 4385.0539 Z" fill="none" stroke="#012394" opacity="0.6" stroke-width="1" class="gravesend"/>
<path d="M 3320.2609 4322.1125 3351.8874 4501.2383 3060.7902 4542.933 3046.8845 4547.555 3040.381 4501.3801 3349.0839 4465.2237 3044.0883 4497.685 3320.2609 4322.1125 Z" fill="none" stroke="#012394" opacity="0.6" stroke-width="1" class="gravesend"/>
<path d="M 2904.0778 4370.2799 3170.1023 4330.4987 3190.8441 4591.8331 2941.6681 4627.4716 2929.1343 4533.7294 2904.0778 4370.2799 Z" fill="none" stroke="#012394" opacity="0.6" stroke-width="1" class="gravesend"/>
<path d="M 2929.1314 4517.1057 2908.71 4352.735 3010.641 4220.6813 3044.9393 4240.0601 3198.7831 4212.3047 3246.6545 4487.9068 2956.9491 4537.4184 2929.1314 4517.1057 Z" fill="none" stroke="#012394" opacity="0.6" stroke-width="1" class="gravesend"/>
<path d="M 3077.8994 4412.7152 3251.701 4385.8628 3276.3535 4547.4589 3096.9601 4575.246 3077.8994 4412.7152 Z" fill="none" stroke="#012394" opacity="0.6" stroke-width="1" class="gravesend"/>
<path d="M 2902.2238 4370.2802 3120.9785 4340.6753 3113.5654 4347.1416 3150.734 4569.6841 3134.0725 4640.3473 3125.2848 4695.7712 2951.4194 4705.9821 2902.2238 4370.2802 Z" fill="none" stroke="#012394" opacity="0.6" stroke-width="1" class="gravesend"/>
<path d="M 2751.1245 4541.1318 3072.7876 4372.0869 3130.384 4693.46 2803.9788 4720.3172 2751.1245 4541.1318 Z" fill="none" stroke="#012394" opacity="0.6" stroke-width="1" class="gravesend"/>
<path d="M 2929.1346 4535.5765 3055.2192 4516.152 3044.1221 4612.2071 2951.4039 4627.008 2929.1346 4535.5765 Z" fill="none" stroke="#012394" opacity="0.6" stroke-width="1" class="gravesend"/>
<path d="M 2910.566 4366.5854 3169.1785 4337.8859 3205.4868 4676.8016 2954.201 4704.596 2910.566 4366.5854 Z" fill="none" stroke="#012394" opacity="0.6" stroke-width="1" class="gravesend"/>
<path d="M 2848.1372 4574.6759 2913.9977 4355.3197 3267.0879 4331.4034 3300.9314 4582.1441 3197.0904 4589.586 3189.564 4680.6588 3044.9474 4703.7038 3041.6503 4612.714 2941.8439 4628.0563 2939.7564 4621.4758 2926.1987 4638.45 2848.1372 4574.6759 Z" fill="none" stroke="#012394" opacity="0.6" stroke-width="1" class="gravesend"/>
<path d="M 2741.8526 4556.5274 2888.9401 4369.3586 3268.3508 4318.1434 3322.9597 4702.2983 3244.433 4678.3344 3045.3934 4710.4297 2913.0825 4693.2232 2864.8603 4663.6715 2847.5553 4636.5731 2752.3665 4555.2992 2741.8526 4556.5274 Z" fill="none" stroke="#012394" opacity="0.6" stroke-width="1" class="gravesend"/>
<path d="M 3087.5449 4682.0864 3012.9732 4696.8602 2955.4821 4702.4158 2933.1929 4510.3079 3170.4788 4382.7985 3185.4409 4676.4782 3087.5449 4682.0864 Z" fill="none" stroke="#012394" opacity="0.6" stroke-width="1" class="gravesend"/>
<path d="M 3277.4631 4692.7601 3034.5178 4709.487 3061.6691 4524.9568 3254.4959 4495.3241 3277.4631 4692.7601 Z" fill="none" stroke="#012394" opacity="0.6" stroke-width="1" class="gravesend"/>
<path d="M 3013.4829 4455.2129 3178.487 4427.4516 3192.4946 4653.7157 3039.5039 4674.0931 3043.1935 4607.5893 3007.0258 4581.7383 3013.4829 4455.2129 Z" fill="none" stroke="#012394" opacity="0.6" stroke-width="1" class="gravesend"/>
<path d="M 3048.208 4322.6945 3075.5458 4302.8344 3108.9085 4286.2032 3136.7087 4269.5733 3184.9046 4265.86 3227.5506 4286.1527 3238.6955 4330.4669 3248.0081 4415.414 3220.2207 4463.4474 3207.2711 4526.2521 3196.1649 4568.7409 3146.1097 4598.3174 3062.6532 4570.6394 3001.4558 4554.0324 2977.3325 4476.4618 2965.0384 4427.867 2967.7002 4411.8218 2962.4863 4414.2469 2965.0352 4412.5149 2966.1905 4396.3548 2964.7994 4393.354 2973.1388 4377.1927 2967.1149 4384.1195 2981.9408 4358.2613 2991.2113 4361.9527 2998.3929 4352.0247 3008.5878 4345.7894 3019.4781 4340.708 3025.503 4339.783 3029.4427 4340.7053 3034.7705 4333.0861 3041.7211 4328.2365 3047.7452 4325.003 3048.208 4322.6945 Z" fill="none" stroke="#012394" opacity="0.6" stroke-width="1" class="gravesend"/>
<path d="M 2908.7157 4390.5939 3121.0014 4401.6189 3137.7289 4506.8879 3140.5469 4599.2432 3130.3737 4666.673 3053.397 4621.4406 2930.0618 4535.5763 2908.7157 4390.5939 Z" fill="none" stroke="#012394" opacity="0.6" stroke-width="1" class="gravesend"/>
<path d="M 3187.7936 4508.7139 3045.9483 4517.0783 3290.6822 4471.7223 3188.7265 4521.6429 3200.8424 4659.2539 3194.3503 4656.4858 3121.1007 4665.7529 3083.0677 4620.5075 3093.2598 4599.2608 3074.6995 4549.3934 3078.4053 4541.0802 3067.2764 4530.9248 3074.227 4522.149 3187.7936 4508.7139 Z" fill="none" stroke="#012394" opacity="0.6" stroke-width="1" class="gravesend"/>
<path d="M 3114.4894 4339.2927 3146.5606 4566.9151 3124.3589 4699.4663 2953.7392 4713.8332 2890.6368 4371.2051 3114.4894 4339.2927 Z" fill="none" stroke="#012394" opacity="0.6" stroke-width="1" class="gravesend"/>
<path d="M 2924.4959 4517.1065 2905.9343 4387.8241 2910.5694 4388.7468 3063.5306 4412.7199 3120.071 4392.3851 3147.9488 4560.4495 3142.4009 4598.3189 3046.9042 4614.0536 2924.4959 4517.1065 Z" fill="none" stroke="#012394" opacity="0.6" stroke-width="1" class="gravesend"/>
<path d="M 3060.7816 4515.2268 3096.9359 4505.9796 3135.8729 4502.2711 3145.1506 4518.8908 3147.0224 4562.297 3147.9585 4584.4626 3143.3362 4618.6381 3141.4924 4645.4244 3135.01 4666.6712 3109.9745 4668.528 3091.4295 4669.4583 3067.3209 4670.39 3051.5579 4672.2422 3044.1392 4670.3971 3043.2073 4654.6949 3043.1967 4618.6728 3049.6803 4595.5804 3052.4605 4590.9616 3047.8171 4566.0261 3061.7021 4493.9856 3066.3208 4441.3457 3071.8756 4418.2578 3095.9755 4410.8622 3115.4421 4409.0084 3112.6682 4428.4015 3114.5305 4450.5637 3100.6401 4493.9726 3119.1847 4501.3539 3126.5984 4493.0395 3126.579 4442.2481 3129.3786 4490.268 3133.0869 4490.2665 3129.3722 4473.645 3164.6155 4507.8005 3196.1355 4504.0926 3173.9136 4570.598 3175.7984 4640.7919 3177.6658 4670.3483 3060.7816 4515.2268 Z" fill="none" stroke="#012394" opacity="0.6" stroke-width="1" class="gravesend"/>
<path d="M 3191.1141 4676.8081 3172.1038 4674.0455 2938.4347 4692.5908 2905.0168 4452.4647 3168.2877 4422.8388 3186.6555 4555.3534 3188.0602 4586.7546 3191.1141 4676.8081 Z" fill="none" stroke="#012394" opacity="0.6" stroke-width="1" class="gravesend"/>
<path d="M 2917.7659 4464.9297 2926.3401 4458.4639 3077.4474 4447.8063 3080.251 4515.2205 3080.2711 4575.7135 3101.6267 4661.6035 3102.566 4695.3177 3041.2533 4710.9251 3020.0419 4713.8177 2971.4725 4707.1326 2953.0414 4702.4024 2950.604 4685.4299 2946.8907 4664.0704 2942.1316 4626.7788 2936.5617 4590.9896 2931.1102 4566.2846 2930.5279 4550.2377 2926.8168 4535.8078 2926.6982 4519.7613 2926.0025 4517.6835 2924.6105 4509.8337 2922.9863 4499.329 2921.0145 4488.4781 2920.2019 4480.1668 2918.3462 4470.7013 2918.81 4472.5482 2918.4618 4468.7389 2917.7659 4464.9297 Z" fill="none" stroke="#012394" opacity="0.6" stroke-width="1" class="gravesend"/>
<path d="M 3116.5418 4344.5523 3432.9501 4163.0573 3470.9536 4194.5359 3600.4622 4335.2712 3488.2842 4470.3757 3646.9933 4663.269 3512.2568 4645.8529 3373.8714 4678.0033 3274.7049 4674.8327 3130.0554 4687.8311 3145.0811 4509.6112 3116.5418 4344.5523 Z" fill="none" stroke="#012394" opacity="0.6" stroke-width="1" class="gravesend"/>
<path d="M 2909.3835 4380.49 3117.5084 4393.7583 3140.6819 4511.7796 3129.6244 4688.1934 2945.0972 4702.1019 2909.3835 4380.49 Z" fill="none" stroke="#012394" opacity="0.6" stroke-width="1" class="gravesend"/>
<path d="M 3121.1118 4695.3109 2944.9264 4696.2844 2922.6332 4466.3141 3121.9427 4439.4794 3130.2929 4457.0221 3147.9465 4554.9081 3121.1118 4695.3109 Z" fill="none" stroke="#012394" opacity="0.6" stroke-width="1" class="gravesend"/>
<path d="M 3170.5663 4331.8835 3211.4801 4604.7541 2943.9915 4655.6425 2903.1507 4369.8183 3170.5663 4331.8835 Z" fill="none" stroke="#012394" opacity="0.6" stroke-width="1" class="gravesend"/>
<path d="M 2899.4448 4384.1315 2934.6702 4383.2024 3168.2504 4335.1162 3191.5449 4603.8397 2939.3547 4652.8724 2899.4448 4384.1315 Z" fill="none" stroke="#012394" opacity="0.6" stroke-width="1" class="gravesend"/>
<path d="M 3057.0521 4446.8893 3058.9053 4444.1184 3157.1676 4433.0014 3217.4382 4460.6783 3222.1229 4563.1873 3134.9873 4608.4815 3015.361 4545.7167 3057.0521 4446.8893 Z" fill="none" stroke="#012394" opacity="0.6" stroke-width="1" class="gravesend"/>
<path d="M 3032.0426 4520.7765 3030.1881 4519.8535 3108.0628 4510.5932 3122.9639 4688.8443 2873.5235 4684.2872 2832.7134 4548.518 3032.0426 4520.7765 Z" fill="none" stroke="#012394" opacity="0.6" stroke-width="1" class="gravesend"/>
<path d="M 2903.1508 4370.28 3171.0264 4324.0349 3194.3482 4651.8675 3042.286 4675.016 2949.5643 4703.6732 2903.1508 4370.28 Z" fill="none" stroke="#012394" opacity="0.6" stroke-width="1" class="gravesend"/>
<path d="M 3065.3946 4444.1163 3104.3445 4482.8892 3105.2732 4487.5064 3080.2526 4519.8381 3065.3946 4444.1163 Z" fill="none" stroke="#012394" opacity="0.6" stroke-width="1" class="gravesend"/>
<path d="M 3190.5915 4545.6542 3200.8543 4685.1169 3068.7239 4708.261 3202.2448 4684.1926 2951.8836 4708.7531 2903.6143 4370.28 3172.4204 4332.3444 3198.5346 4681.8851 3193.8639 4606.1477 3192.9221 4573.8221 3190.5915 4545.6542 Z" fill="none" stroke="#012394" opacity="0.6" stroke-width="1" class="gravesend"/>
<path d="M 3057.0216 4348.0841 3042.2682 4614.0549 2943.0592 4628.8568 2885.5787 4688.9042 2828.0804 4589.1558 2917.0736 4483.8613 2901.297 4371.2037 2964.3117 4277.9349 3057.0216 4348.0841 Z" fill="none" stroke="#012394" opacity="0.6" stroke-width="1" class="gravesend"/>
<path d="M 3186.834 4435.759 3290.6571 4426.4726 3311.1029 4515.1155 3173.9025 4544.738 3186.8373 4443.1466 3186.834 4435.759 Z" fill="none" stroke="#012394" opacity="0.6" stroke-width="1" class="gravesend"/>
<path d="M 3051.5582 4673.1659 2971.8121 4669.4919 2935.6181 4499.5577 3141.419 4460.7116 3148.8524 4502.2659 3137.79 4662.0518 3051.5582 4673.1659 Z" fill="none" stroke="#012394" opacity="0.6" stroke-width="1" class="gravesend"/>
<path d="M 3123.8951 4699.0047 3086.8048 4703.6365 3032.1006 4726.7465 2949.5656 4710.1392 2905.0045 4368.433 3119.125 4341.5994 3123.8951 4699.0047 Z" fill="none" stroke="#012394" opacity="0.6" stroke-width="1" class="gravesend"/>
<path d="M 3137.6523 4503.0378 3118.273 4744.1133 2961.925 4765.1991 2861.933 4553.2164 2901.7858 4502.4648 2915.6893 4483.0691 2903.6206 4369.4876 3114.0326 4339.8856 3137.6523 4503.0378 Z" fill="none" stroke="#012394" opacity="0.6" stroke-width="1" class="gravesend"/>
<path d="M 3067.2178 4347.1575 3059.8556 4518.9212 2930.9881 4530.9585 2904.0775 4368.4331 3067.2178 4347.1575 Z" fill="none" stroke="#012394" opacity="0.6" stroke-width="1" class="gravesend"/>
<path d="M 3017.2074 4516.1629 3015.3973 4683.3367 2951.4164 4690.7409 2891.1009 4375.822 3108.9286 4341.6031 3127.5894 4660.2084 3028.3782 4679.6384 3024.6693 4680.5631 3017.2074 4516.1629 Z" fill="none" stroke="#012394" opacity="0.6" stroke-width="1" class="gravesend"/>
<path d="M 3152.5955 4587.2315 3127.5134 4461.6405 3272.118 4429.253 3302.7798 4552.0621 3196.1834 4609.3793 3156.302 4581.6884 3152.5955 4587.2315 Z" fill="none" stroke="#012394" opacity="0.6" stroke-width="1" class="gravesend"/>
<path d="M 2951.42 4709.2151 2907.7855 4369.356 3116.3469 4348.9873 3137.7293 4507.8114 3122.038 4692.5394 2951.42 4709.2151 Z" fill="none" stroke="#012394" opacity="0.6" stroke-width="1" class="gravesend"/>
<path d="M 3191.5328 4577.0553 3042.2693 4617.7494 2926.3512 4523.5709 2912.4298 4430.3007 2938.3847 4419.215 3177.5338 4367.4302 3191.5328 4577.0553 Z" fill="none" stroke="#012394" opacity="0.6" stroke-width="1" class="gravesend"/>
<path d="M 2941.2171 4695.3614 2781.7197 4518.0433 2885.5398 4382.2865 3064.4568 4409.9493 3128.4146 4394.2288 3132.2393 4695.3067 2941.2171 4695.3614 Z" fill="none" stroke="#012394" opacity="0.6" stroke-width="1" class="gravesend"/>
<path d="M 3180.3263 4490.8833 3185.8987 4513.0452 3187.7854 4586.0056 3186.8731 4619.2561 3132.1704 4627.5916 3042.233 4639.6295 2941.752 4644.8001 2924.1155 4532.1242 3180.3263 4490.8833 Z" fill="none" stroke="#012394" opacity="0.6" stroke-width="1" class="gravesend"/>
<path d="M 2952.1881 4466.3706 3047.7365 4555.2439 2947.8757 4465.3496 2952.1881 4466.3706 Z" fill="none" stroke="#012394" opacity="0.6" stroke-width="1" class="gravesend"/>
<path d="M 2960.6165 4337.9519 2978.2608 4482.0025 2900.3789 4433.9963 2986.0716 4184.22 3130.235 4306.9698 3140.0171 4432.0849 2975.4779 4474.6152 2960.6165 4337.9519 Z" fill="none" stroke="#012394" opacity="0.6" stroke-width="1" class="gravesend"/>
<path d="M 2895.714 4217.9344 3002.4682 3968.9023 3112.4965 3960.3306 3179.4011 4397.9015 2895.714 4217.9344 Z" fill="none" stroke="#012394" opacity="0.6" stroke-width="1" class="gravesend"/>
<path d="M 2915.2118 4435.8409 3065.3856 4415.4896 3050.5925 4545.7068 2915.2118 4435.8409 Z" fill="none" stroke="#012394" opacity="0.6" stroke-width="1" class="gravesend"/>
<path d="M 2893.8767 4337.9633 3071.6738 3795.1438 3101.2075 3481.4232 3127.0664 3293.2369 3867.9259 3399.661 4001.7123 3735.3259 4131.5509 3838.5035 3898.5004 4185.8751 3850.5995 4440.7713 2893.8767 4337.9633 Z" fill="none" stroke="#012394" opacity="0.6" stroke-width="1" class="gravesend"/>
<path d="M 3122.8516 4391.4607 3272.0572 4315.6761 3306.5048 4580.6909 3047.8317 4614.9769 3069.0913 4408.101 3122.8516 4391.4607 Z" fill="none" stroke="#012394" opacity="0.6" stroke-width="1" class="gravesend"/>
<path d="M 3265.703 4569.6303 3265.7113 4585.3313 3163.7303 4607.5463 3118.2886 4584.4742 3064.4909 4517.9962 3053.3318 4407.1825 3064.4305 4326.8446 3171.0233 4316.6482 3174.6994 4243.7059 3213.6157 4219.6837 3285.9036 4211.3375 3357.2634 4202.9865 3373.05 4250.9854 3368.4581 4317.4663 3381.4621 4359.0089 3390.7604 4402.4025 3441.7661 4430.9938 3491.8685 4486.3651 3536.4131 4540.8179 3487.3056 4581.4938 3402.934 4584.3252 3315.7712 4571.4497 3265.703 4569.6303 Z" fill="none" stroke="#012394" opacity="0.6" stroke-width="1" class="gravesend"/>
<path d="M 2775.2257 4109.0072 3240.4149 4062.7325 3346.4387 4686.8861 2938.4408 4725.8446 2775.2257 4109.0072 Z" fill="none" stroke="#012394" opacity="0.6" stroke-width="1" class="gravesend"/>
<path d="M 3198.0758 4692.5077 3040.9064 4713.8119 3047.8309 4612.206 2931.4502 4522.6465 2911.494 4373.0489 3118.6617 4342.0612 3184.4978 4393.7439 3198.0758 4692.5077 Z" fill="none" stroke="#012394" opacity="0.6" stroke-width="1" class="gravesend"/>
<path d="M 2944.2001 4533.034 3137.4963 4504.5792 3135.459 4629.263 3048.3033 4641.5313 2944.2001 4533.034 Z" fill="none" stroke="#012394" opacity="0.6" stroke-width="1" class="gravesend"/>
<path d="M 2925.4238 4521.724 2919.8505 4457.0798 2910.5728 4410.9088 2908.7143 4381.3599 2931.8852 4360.1182 2980.0863 4355.4916 3015.3097 4351.7895 3082.9744 4342.5356 3114.491 4343.4478 3117.2818 4370.2246 3121.9347 4418.2402 3135.8559 4458.8668 3140.5099 4505.9633 3140.5245 4542.9047 3147.9585 4584.4626 3138.6965 4609.4037 3128.5114 4646.3531 3118.3289 4692.5408 3109.9846 4696.2387 3077.5318 4703.6396 3027.4606 4714.7394 2987.5865 4715.6733 2955.1255 4690.7402 2948.6292 4663.031 2937.4918 4606.6908 2937.4851 4569.7469 2925.4238 4521.724 Z" fill="none" stroke="#012394" opacity="0.6" stroke-width="1" class="gravesend"/>
<path d="M 3057.0216 4348.0841 3169.175 4329.5757 3175.6815 4371.1245 3270.2068 4322.1405 3303.7222 4578.8453 3189.6859 4593.6808 3192.5104 4688.8155 3124.8224 4699.0043 3112.7855 4747.9665 3017.2713 4756.3105 3038.5878 4712.8888 3043.1951 4613.131 2941.2051 4630.7045 2922.6413 4515.2598 2903.1509 4371.2034 3057.0216 4348.0841 Z" fill="none" stroke="#012394" opacity="0.6" stroke-width="1" class="gravesend"/>
<path d="M 2931.9437 4692.592 2981.1056 4760.9382 2922.6815 4757.2547 2931.9437 4692.592 Z" fill="none" stroke="#012394" opacity="0.6" stroke-width="1" class="gravesend"/>
<path d="M 2833.633 4443.238 2848.4634 4416.4569 3079.1886 4107.109 3139.4225 4100.6252 3197.1481 4691.5845 2904.1244 4688.9017 2778.9381 4502.3434 2833.633 4443.238 Z" fill="none" stroke="#012394" opacity="0.6" stroke-width="1" class="gravesend"/>
<path d="M 3125.6375 4404.3874 3154.4419 4567.8354 3131.3106 4691.6122 3053.4245 4711.9607 3049.6842 4608.511 2943.9706 4544.8093 2920.7683 4400.7496 3125.6375 4404.3874 Z" fill="none" stroke="#012394" opacity="0.6" stroke-width="1" class="gravesend"/>
<path d="M 3065.6164 4412.7192 3099.9143 4407.9751 3109.1824 4402.3159 3116.9432 4394.6948 3177.1866 4368.2383 3184.5434 4496.8251 3186.2955 4527.647 3189.4489 4582.136 3192.1353 4628.2 3194.3534 4663.2979 3193.8909 4665.8382 3195.1771 4690.4307 3166.6656 4696.6782 3136.4136 4699.1153 3127.2568 4699.6962 3121.2295 4700.0448 3116.1295 4700.5086 3106.857 4701.6666 3083.9075 4705.1385 3065.5945 4708.8394 3039.2847 4717.7381 3043.6645 4632.7581 3043.8907 4613.8235 3051.518 4540.1652 3061.4557 4447.3497 3065.6164 4412.7192 Z" fill="none" stroke="#012394" opacity="0.6" stroke-width="1" class="gravesend"/>
<path d="M 2851.2637 4628.8696 2963.672 4542.9583 2930.0666 4563.2832 3089.2546 4410.6337 3213.0017 4391.1915 3219.9858 4456.9832 2931.4576 4564.6683 2851.2637 4628.8696 Z" fill="none" stroke="#012394" opacity="0.6" stroke-width="1" class="gravesend"/>
<path d="M 3006.0663 4454.2914 3130.2847 4435.7825 3135.9094 4595.5506 3030.2136 4611.2875 3006.0663 4454.2914 Z" fill="none" stroke="#012394" opacity="0.6" stroke-width="1" class="gravesend"/>
<path d="M 2917.9819 4367.5076 3277.6167 4311.9798 3462.883 4153.0617 3609.4793 4341.289 3483.4805 4428.1928 3498.4919 4659.0701 3240.7218 4674.0135 2943.9981 4690.7424 2917.9819 4367.5076 Z" fill="none" stroke="#012394" opacity="0.6" stroke-width="1" class="gravesend"/>
<path d="M 2923.7037 4336.993 2968.1941 4324.0577 3029.3647 4300.036 3101.6646 4303.7063 3120.2201 4349.8668 3131.3585 4388.6448 3136.9459 4453.2831 3135.0997 4473.6004 3138.8175 4497.6099 3072.0657 4495.7868 3040.5498 4514.2669 2986.7771 4514.281 2945.9844 4516.1367 2907.0414 4488.4379 2905.1695 4368.3905 2923.7037 4336.993 Z" fill="none" stroke="#012394" opacity="0.6" stroke-width="1" class="gravesend"/>
<path d="M 3185.4576 4467.6192 3197.6086 4684.6565 2946.7828 4705.5211 2828.071 4446.9322 3185.4576 4467.6192 Z" fill="none" stroke="#012394" opacity="0.6" stroke-width="1" class="gravesend"/>
<path d="M 2778.9383 4510.6551 2962.4577 4277.012 3117.2907 4394.233 2897.6326 4683.3604 2778.9383 4510.6551 Z" fill="none" stroke="#012394" opacity="0.6" stroke-width="1" class="gravesend"/>
<path d="M 2884.3482 4740.6327 2819.4671 4691.7571 2815.7551 4638.1843 2821.3136 4555.0595 2845.4153 4503.3394 2889.1219 4355.4266 3089.3394 4338.7587 3130.942 4539.2143 3118.0047 4653.7464 3030.8612 4718.4333 2967.8077 4736.9236 2884.3482 4740.6327 Z" fill="none" stroke="#012394" opacity="0.6" stroke-width="1" class="gravesend"/>
<path d="M 3053.422 4703.6473 3052.4381 4517.0764 3070.0215 4418.2584 3184.0267 4376.6612 3270.2339 4372.9256 3310.2438 4633.3349 3313.972 4666.5844 3317.6919 4685.0559 3053.422 4703.6473 Z" fill="none" stroke="#012394" opacity="0.6" stroke-width="1" class="gravesend"/>
<path d="M 2748.1142 4378.3695 2902.9212 4385.2852 3064.4578 4413.1813 3055.9142 4514.9974 2956.4868 4543.8833 2748.1142 4378.3695 Z" fill="none" stroke="#012394" opacity="0.6" stroke-width="1" class="gravesend"/>
<path d="M 2903.1508 4370.28 2897.5889 4370.2808 3109.8549 4339.7561 3141.4491 4536.4395 2933.7761 4567.9004 2903.1508 4370.28 Z" fill="none" stroke="#012394" opacity="0.6" stroke-width="1" class="gravesend"/>
<path d="M 3033.8868 4485.6823 3155.269 4324.9648 3385.1415 4315.6088 3398.216 4461.4982 3231.3682 4509.617 3033.8868 4485.6823 Z" fill="none" stroke="#012394" opacity="0.6" stroke-width="1" class="gravesend"/>
<path d="M 2936.0875 4531.8811 3058.9265 4512.4568 3037.195 4706.4232 2959.3007 4702.2857 2936.0875 4531.8811 Z" fill="none" stroke="#012394" opacity="0.6" stroke-width="1" class="gravesend"/>
<path d="M 3263.7164 4318.4506 3268.3711 4356.3057 3305.6087 4635.1848 2938.4354 4696.2856 2886.4649 4367.5121 3263.7164 4318.4506 Z" fill="none" stroke="#012394" opacity="0.6" stroke-width="1" class="gravesend"/>
<path d="M 2850.296 4177.3179 2867.9075 4201.3196 2910.5432 4217.9322 2936.4973 4234.5463 2938.3525 4242.8553 2945.7708 4261.3194 2951.7955 4261.7799 2961.5308 4277.0122 2962.2255 4274.7038 2966.6294 4280.2427 2850.296 4177.3179 Z" fill="none" stroke="#012394" opacity="0.6" stroke-width="1" class="gravesend"/>
<path d="M 3056.1415 4500.4519 3190.5699 4497.6305 3199.0014 4688.8125 3045.076 4702.7261 3056.1415 4500.4519 Z" fill="none" stroke="#012394" opacity="0.6" stroke-width="1" class="gravesend"/>
<path d="M 2903.151 4372.1268 2904.0773 4367.5097 3172.8835 4331.4209 3178.46 4365.583 2919.8572 4498.6369 2918.0007 4483.8611 2903.151 4372.1268 Z" fill="none" stroke="#012394" opacity="0.6" stroke-width="1" class="gravesend"/>
<path d="M 2912.4281 4419.2194 3125.4766 3981.5548 3179.3547 4291.7148 3205.3533 4389.5791 3199.927 4685.1173 2955.1292 4709.2143 2948.6309 4672.2677 2939.3464 4607.6141 2937.4804 4543.887 2959.6799 4290.8621 2930.0269 4335.1877 2905.0032 4360.1225 2933.7652 4506.9462 2930.9831 4502.3291 2930.0542 4492.1706 2913.3605 4453.3869 2924.4865 4461.6964 2915.2117 4434.9175 2912.4281 4419.2194 Z" fill="none" stroke="#012394" opacity="0.6" stroke-width="1" class="gravesend"/>
<path d="M 2866.0462 4129.3111 3175.5582 4086.7634 2879.0214 4136.6949 3166.292 4088.6136 3266.6043 4520.6813 3005.171 4579.8916 2866.0462 4129.3111 Z" fill="none" stroke="#012394" opacity="0.6" stroke-width="1" class="gravesend"/>
<path d="M 2708.482 4441.3918 2971.7438 4356.4169 3005.0966 4286.2352 3183.0174 4190.1544 3390.6786 4278.6725 3539.1643 4503.8743 3580.1 4670.0875 2764.1046 4434.0059 2786.3538 4448.7809 2934.7255 4692.5915 3246.3174 4736.8231 3483.7287 4755.1477 3520.7667 4684.9157 2816.0206 4470.9432 3097.8766 4544.7678 2708.482 4441.3918 Z" fill="none" stroke="#012394" opacity="0.6" stroke-width="1" class="gravesend"/>
<path d="M 3116.4956 4749.8126 2956.9951 4764.6385 2905.7025 4387.3625 3064.9212 4412.9503 3124.0153 4404.388 3148.8782 4565.9905 3116.4956 4749.8126 Z" fill="none" stroke="#012394" opacity="0.6" stroke-width="1" class="gravesend"/>
<path d="M 2914.2749 4373.0485 3075.5616 4350.8483 2943.9709 4546.6565 2914.2749 4373.0485 Z" fill="none" stroke="#012394" opacity="0.6" stroke-width="1" class="gravesend"/>
<path d="M 2903.1506 4369.3566 3113.5609 4335.1379 3147.0242 4566.9149 3121.1118 4695.3109 2953.2743 4707.3673 2903.1506 4369.3566 Z" fill="none" stroke="#012394" opacity="0.6" stroke-width="1" class="gravesend"/>
<path d="M 2906.859 4372.1263 3114.4892 4338.831 3127.5915 4665.7504 2946.7783 4682.4286 2906.859 4372.1263 Z" fill="none" stroke="#012394" opacity="0.6" stroke-width="1" class="gravesend"/>
<path d="M 3115.4162 4338.8307 3147.9525 4569.6852 3121.1128 4698.082 2954.203 4714.7568 2904.0782 4373.0501 3115.4162 4338.8307 Z" fill="none" stroke="#012394" opacity="0.6" stroke-width="1" class="gravesend"/>
<path d="M 3172.8847 4334.1909 3195.2899 4683.7339 3038.5874 4711.5032 2995.9414 4753.0828 2943.5378 4708.7547 2895.3251 4760.9539 2853.128 4735.5555 2869.3514 4691.2154 2936.5657 4613.1563 2902.2237 4369.3568 3172.4196 4330.4977 3172.8847 4334.1909 Z" fill="none" stroke="#012394" opacity="0.6" stroke-width="1" class="gravesend"/>
<path d="M 2960.5853 4186.5336 3190.4633 4260.3178 3212.6837 4208.6053 3205.1764 4009.2118 3420.2699 4178.9414 3235.0519 4459.7463 3049.6373 4452.4324 2953.2193 4430.2935 2879.0061 4009.3072 3108.8106 4016.636 2960.5853 4186.5336 Z" fill="none" stroke="#012394" opacity="0.6" stroke-width="1" class="gravesend"/>
<path d="M 2952.3464 4704.5963 2917.9981 4468.1618 3126.5765 4435.7839 3138.6546 4503.1935 3147.0231 4564.1441 3125.7462 4689.7669 3108.13 4696.2394 3046.0047 4707.3443 3008.9144 4714.7443 2952.3464 4704.5963 Z" fill="none" stroke="#012394" opacity="0.6" stroke-width="1" class="gravesend"/>
<path d="M 2956.9829 4704.5954 2912.4237 4390.5934 3071.8759 4419.1812 3179.3906 4373.8931 3199.924 4678.6515 2956.9829 4704.5954 Z" fill="none" stroke="#012394" opacity="0.6" stroke-width="1" class="gravesend"/>
<path d="M 2903.1506 4369.3566 3169.1757 4331.4224 3192.51 4687.8918 2952.3462 4703.6726 2903.1506 4369.3566 Z" fill="none" stroke="#012394" opacity="0.6" stroke-width="1" class="gravesend"/>
<path d="M 3161.8542 4555.8259 2955.0957 4542.0365 2948.5764 4390.5871 3147.8827 4396.9914 3161.8542 4555.8259 Z" fill="none" stroke="#012394" opacity="0.6" stroke-width="1" class="gravesend"/>
<path d="M 3199.9202 4670.3384 3197.1515 4698.9741 3039.52 4729.5156 3035.8033 4703.6525 2944.9191 4657.4897 2795.6267 4522.6606 2923.5437 4367.5067 3173.8132 4337.8839 3199.9202 4670.3384 Z" fill="none" stroke="#012394" opacity="0.6" stroke-width="1" class="gravesend"/>
<path d="M 2919.2617 4399.2493 3048.2346 4411.9165 3121.3509 4406.3513 3144.2434 4568.5322 3140.0832 4599.0125 3129.0928 4651.3176 3124.006 4685.9574 3101.0597 4697.0502 3071.7359 4702.8333 3041.3691 4710.4632 2964.749 4704.2474 2961.9632 4685.3121 2961.1493 4673.4198 2949.5573 4667.4182 2943.7544 4628.0485 2930.4092 4534.4219 2911.1506 4400.7511 2919.2617 4399.2493 Z" fill="none" stroke="#012394" opacity="0.6" stroke-width="1" class="gravesend"/>
<path d="M 3221.9875 4282.4622 3300.0745 4686.9134 2945.8484 4668.5735 2925.3877 4308.4116 3221.9875 4282.4622 Z" fill="none" stroke="#012394" opacity="0.6" stroke-width="1" class="gravesend"/>
<path d="M 2949.565 4707.368 2760.396 4518.9669 3079.1837 4092.339 3136.6363 4084.9333 3196.2221 4694.356 3313.0586 4690.6008 2949.565 4707.368 Z" fill="none" stroke="#012394" opacity="0.6" stroke-width="1" class="gravesend"/>
<path d="M 2902.2207 4349.0425 3040.2855 4172.6658 3153.4337 4370.2105 3134.9465 4504.1184 2936.5477 4513.4103 2902.2207 4349.0425 Z" fill="none" stroke="#012394" opacity="0.6" stroke-width="1" class="gravesend"/>
<path d="M 3169.3322 4698.0627 2788.2149 4738.7924 2900.3697 4369.357 3120.0436 4319.4387 3169.3322 4698.0627 Z" fill="none" stroke="#012394" opacity="0.6" stroke-width="1" class="gravesend"/>
<path d="M 3196.1229 4476.3875 3201.7799 4681.4217 2960.6919 4703.6709 2930.987 4524.4937 3196.1229 4476.3875 Z" fill="none" stroke="#012394" opacity="0.6" stroke-width="1" class="gravesend"/>
<path d="M 3043.6863 4706.8832 3046.4275 4569.7208 3186.4272 4563.2039 3189.2622 4682.8129 3043.6863 4706.8832 Z" fill="none" stroke="#012394" opacity="0.6" stroke-width="1" class="gravesend"/>
<path d="M 3263.7183 4322.1439 3286.0479 4473.5718 3056.146 4515.2282 3062.5842 4350.8525 3276.6893 4311.057 3263.7183 4322.1439 Z" fill="none" stroke="#012394" opacity="0.6" stroke-width="1" class="gravesend"/>
<path d="M 2913.3501 4386.8996 3063.533 4420.1073 3059.8553 4517.9976 2960.6576 4537.4176 2943.0412 4532.8034 2930.0589 4518.9526 2923.568 4512.4891 2908.7172 4400.7515 2913.3501 4386.8996 Z" fill="none" stroke="#012394" opacity="0.6" stroke-width="1" class="gravesend"/>
<path d="M 3134.0184 4501.3483 3138.6553 4505.0405 3141.4399 4513.3511 3144.229 4532.7442 3145.1617 4546.5971 3147.9484 4559.5259 3147.954 4573.3796 3146.1056 4588.1578 3144.2564 4601.089 3141.4799 4614.0207 3135.4597 4631.1103 3134.0737 4643.58 3134.0773 4652.8166 3132.6888 4658.8209 3130.8364 4664.3637 3126.6689 4677.7586 3124.3438 4659.7478 3111.8262 4660.6761 3092.819 4665.3013 3071.4931 4669.0031 3056.6579 4672.2407 3046.4579 4672.2437 3041.3575 4670.8597 3041.3535 4657.0046 3039.9576 4639.9174 3043.1978 4622.3673 3039.9491 4610.3611 3033.9208 4605.5139 3028.1248 4601.821 3018.1553 4594.204 3011.4315 4587.7405 3002.8533 4581.0467 2994.0437 4575.0455 2981.5245 4564.8891 2973.1785 4557.9642 2968.3096 4551.962 2958.8052 4546.4227 2950.9234 4540.8829 2946.7503 4536.0351 2942.8094 4533.0343 2941.6497 4528.8786 2934.2319 4524.4931 2928.4367 4520.8 2925.8861 4514.3357 2924.7259 4506.9477 2923.7978 4500.945 2921.0144 4488.2473 2920.5489 4476.011 2920.5479 4470.2392 2926.5733 4466.7752 2944.8824 4464.2323 2962.4961 4461.4584 2982.1954 4457.991 3031.5594 4451.0524 3060.7606 4447.8116 3089.9614 4444.3391 3110.1234 4440.869 3123.3329 4438.5555 3128.2064 4455.6377 3129.8356 4473.414 3130.7698 4491.6527 3134.0184 4501.3483 Z" fill="none" stroke="#012394" opacity="0.6" stroke-width="1" class="gravesend"/>
<path d="M 2952.3468 4706.4438 2897.1801 4762.8012 2810.934 4726.783 2759.9314 4699.5344 2764.1045 4528.2023 2831.779 4445.085 2923.5688 4517.5685 2952.3468 4706.4438 Z" fill="none" stroke="#012394" opacity="0.6" stroke-width="1" class="gravesend"/>
<path d="M 3047.8025 4517.0778 3052.4426 4531.853 3038.5849 4702.728 2913.3984 4696.2899 2846.6234 4580.8421 2914.2931 4488.4792 3047.8025 4517.0778 Z" fill="none" stroke="#012394" opacity="0.6" stroke-width="1" class="gravesend"/>
<path d="M 2908.7125 4369.3558 3240.5456 4323.0792 3205.4847 4672.1832 2953.2735 4703.6724 2908.7125 4369.3558 Z" fill="none" stroke="#012394" opacity="0.6" stroke-width="1" class="gravesend"/>
<path d="M 3319.4085 4449.5425 3323.1167 4449.5403 3330.5359 4454.1532 3440.8523 4449.4636 3427.9563 4567.6835 2939.3462 4606.6905 2921.7136 4511.5658 3116.3887 4461.6447 3319.4085 4449.5425 Z" fill="none" stroke="#012394" opacity="0.6" stroke-width="1" class="gravesend"/>
<path d="M 3123.1995 4698.774 2951.6514 4707.1367 2905.2387 4385.054 3124.4788 4404.3879 3123.1995 4698.774 Z" fill="none" stroke="#012394" opacity="0.6" stroke-width="1" class="gravesend"/>
<path d="M 3041.8329 4711.0404 3004.7417 4715.6691 2951.8831 4706.4438 2916.6066 4462.3903 2905.3549 4387.2471 2990.2935 4400.6202 3066.0801 4413.1808 3108.2568 4406.2407 3118.6777 4384.9984 3136.8009 4504.5795 3141.9187 4551.4471 3144.0116 4568.5323 3120.4172 4697.6204 3092.5988 4698.7851 3041.8329 4711.0404 Z" fill="none" stroke="#012394" opacity="0.6" stroke-width="1" class="gravesend"/></svg>