<?xml version="1.0"?><svg xmlns="http://www.w3.org/2000/svg" version="1.2" baseProfile="tiny" width="6000" height="5918" viewBox="0 0 6000 5918" stroke-linecap="round" stroke-linejoin="round"><path d="M 1006.7281 5028.2982 1121.6876 4932.5263 1278.7381 5185.5155 1149.5096 5342.4271 1006.7281 5028.2982 Z" fill="none" stroke="#FBC20F" opacity="0.6" stroke-width="1" class="great_kills"/>
<path d="M 812.5957 5378.9974 801.3893 4965.8711 1138.1817 4914.7692 1340.9875 5126.6966 812.5957 5378.9974 Z" fill="none" stroke="#FBC20F" opacity="0.6" stroke-width="1" class="great_kills"/>
<path d="M 1035.4866 5280.9907 1023.1087 5263.407 1031.1152 5261.3421 1033.675 5256.8411 1041.5732 5250.5013 1046.5683 5246.1202 1050.3931 5247.5135 1074.1348 5266.6189 1066.2667 5256.2069 1059.786 5248.3392 1049.9581 5231.5697 1045.228 5217.8134 1040.6079 5207.4077 1035.1972 5185.4483 1034.2935 5172.2772 1035.3567 5161.6513 1035.7158 5155.5294 1038.2852 5145.5995 1038.5287 5139.2465 1033.4537 5124.2202 1029.3105 5107.001 1026.5484 5095.5602 1023.3188 5086.1979 1021.5989 5075.5678 1017.2211 5060.0816 1007.7719 5028.1847 1121.8037 4932.411 1127.942 4936.2329 1184.4221 4995.6938 1215.1777 5048.6448 1214.558 5143.8254 1257.2978 5249.252 1148.7233 5395.3452 1035.4866 5280.9907 Z" fill="none" stroke="#FBC20F" opacity="0.6" stroke-width="1" class="great_kills"/>
<path d="M 1119.7931 4928.557 1265.2751 5266.6521 1234.6535 5337.0434 980.922 5165.8984 900.7925 5096.0117 907.2287 5040.3008 952.6702 5016.5882 1045.0584 4989.461 1119.7931 4928.557 Z" fill="none" stroke="#FBC20F" opacity="0.6" stroke-width="1" class="great_kills"/>
<path d="M 1122.2217 4931.0342 1271.5801 5073.9642 1243.9128 5127.4438 1193.7655 5157.8585 1142.73 5163.3173 1187.4133 5285.2979 1236.868 5338.7686 1170.1986 5381.0585 1136.8316 5357.8928 1051.6885 5232.0397 1011.778 5028.8547 1122.2217 4931.0342 Z" fill="none" stroke="#FBC20F" opacity="0.6" stroke-width="1" class="great_kills"/>
<path d="M 1147.3096 5392.8544 999.5035 5037.3727 1170.1005 4887.5277 1451.8419 5041.3388 1147.3096 5392.8544 Z" fill="none" stroke="#FBC20F" opacity="0.6" stroke-width="1" class="great_kills"/>
<path d="M 1143.4643 5350.5047 1130.7143 5345.1679 1109.1881 5317.6319 1071.0105 5262.5697 1046.9594 5222.3221 1036.3571 5185.3349 1032.304 5118.7889 1009.9711 5030.2678 1121.9159 4934.6056 1203.4106 5012.1264 1218.8826 5052.1161 1184.7247 5092.2567 1194.6279 5134.0891 1230.1054 5138.999 1281.9843 5186.2137 1297.792 5462.608 1143.4643 5350.5047 Z" fill="none" stroke="#FBC20F" opacity="0.6" stroke-width="1" class="great_kills"/>
<path d="M 1127.4614 5428.0842 977.6735 5257.5448 1190.3438 5139.5658 1285.4659 5240.4053 1225.7506 5364.4287 1127.4614 5428.0842 Z" fill="none" stroke="#FBC20F" opacity="0.6" stroke-width="1" class="great_kills"/>
<path d="M 1265.2151 4937.1534 1290.9557 5085.0354 1365.1027 5130.429 1447.8574 4995.6351 1477.3479 5137.0573 1410.5159 5161.9159 1265.2151 4937.1534 Z" fill="none" stroke="#FBC20F" opacity="0.6" stroke-width="1" class="great_kills"/>
<path d="M 1111.2415 5337.2772 1099.6653 5324.3165 1004.6395 5029.1029 1118.4393 4933.6756 1246.4685 5059.3222 1214.09 5146.366 1266.65 5202.5939 1177.055 5378.5233 1137.8816 5359.2764 1120.2639 5351.6201 1115.6371 5344.2174 1112.165 5339.8207 1111.2415 5337.2772 Z" fill="none" stroke="#FBC20F" opacity="0.6" stroke-width="1" class="great_kills"/>
<path d="M 1250.7797 5263.7985 1151.2092 5161.9714 1084.2665 4982.1234 1250.7797 5263.7985 Z" fill="none" stroke="#FBC20F" opacity="0.6" stroke-width="1" class="great_kills"/>
<path d="M 1010.4313 5027.4813 1025.6816 5022.073 1176.25 4888.523 1359.7788 4969.0437 1393.1683 4970.9407 1529.3857 5074.6889 1577.5523 5132.0447 1287.14 5471.4484 1175.8428 5378.3868 1129.512 5342.0318 1050.5591 5234.3731 1041.6965 5210.6573 1033.4555 5176.463 1038.8538 5141.5861 1010.4313 5027.4813 Z" fill="none" stroke="#FBC20F" opacity="0.6" stroke-width="1" class="great_kills"/>
<path d="M 1208.1976 5062.4942 1271.9352 5234.0254 1171.7114 5383.1362 986.0723 5036.9224 1120.7557 4935.0655 1208.1976 5062.4942 Z" fill="none" stroke="#FBC20F" opacity="0.6" stroke-width="1" class="great_kills"/>
<path d="M 1124.1704 4933.595 1049.9366 5013.5269 1055.038 5013.7671 1061.0604 5017.7051 1100.766 5004.2849 1086.1457 5010.2652 1077.0798 5022.4922 1079.3811 5032.4296 1085.545 5043.9291 1091.8956 5058.3375 1102.4323 5069.7068 1108.2096 5081.4989 1111.8636 5087.0701 1102.813 5090.2885 1088.5856 5098.9021 1062.2093 5105.314 1044.6959 5107.9336 1027.8258 5119.9931 1014.2894 5114.7941 1007.8208 5101.1515 1004.8258 5081.6653 998.2376 5067.3031 994.1559 5053.7998 992.3273 5040.3993 997.431 5039.4848 1003.3546 5038.4318 1006.6672 5033.4923 1008.4052 5034.1886 1018.6161 5030.3959 1020.9525 5027.0491 1024.0545 5022.8813 1030.8975 5021.8543 1034.2569 5023.593 1038.1615 5020.2148 1041.643 5018.6041 1046.4027 5015.4942 1048.6171 5009.2611 1061.3774 5010.3943 1066.506 5005.9088 1069.4472 5003.7709 1073.0468 5000.8899 1078.1627 4992.9295 1075.9374 5005.3995 1086.8402 5003.4554 1084.426 4991.7857 1082.2361 4985.4049 1083.4038 4977.7565 1088.795 4976.9881 1090.289 4984.4981 1096.6588 4988.6672 1101.3799 4989.6865 1104.1626 4989.6914 1112.5197 4984.6241 1112.2132 4982.8262 1108.1508 4985.2445 1104.7928 4982.6977 1100.0476 4980.2708 1097.8489 4977.8415 1092.7612 4969.9788 1094.7398 4965.7089 1095.6698 4964.3246 1098.1189 4968.0622 1104.052 4956.7541 1106.2307 4960.6823 1116.7529 4977.2166 1127.1782 4982.8941 1127.9939 4980.5856 1117.107 4973.6369 1110.515 4963.9237 1114.3623 4951.8034 1114.2212 4966.2401 1121.875 4965.4449 1127.3078 4963.9815 1135.7837 4957.0664 1137.7646 4951.2951 1138.4639 4949.2174 1128.4004 4935.5719 1124.1704 4933.595 Z" fill="none" stroke="#FBC20F" opacity="0.6" stroke-width="1" class="great_kills"/>
<path d="M 1280.6477 5184.9404 1251.8657 5282.5589 1234.8839 5348.3625 1174.1617 5398.0521 1168.6493 5384.6925 1129.3555 5358.3665 1105.4739 5319.2508 1058.3787 5260.1626 1036.7044 5245.7696 1026.7287 5204.0238 1029.7779 5139.2185 1000.8597 5022.8497 1007.2672 5019.1052 1123.7917 4925.6853 1157.5856 4958.2275 1205.5894 5010.9412 1251.2934 5053.2621 1245.0029 5071.2712 1230.3795 5079.1022 1216.4232 5065.7209 1189.4113 5092.4359 1192.5819 5137.3412 1226.766 5135.4521 1280.6477 5184.9404 Z" fill="none" stroke="#FBC20F" opacity="0.6" stroke-width="1" class="great_kills"/>
<path d="M 1030.4165 5009.7461 1122.3788 4935.0683 1246.9327 5059.0919 1233.9172 5076.6282 1184.7301 5089.0224 1185.603 5121.8294 1221.7634 5134.3648 1277.8093 5186.2071 1388.3467 5095.347 1490.2613 5192.5243 1408.4909 5280.2123 1277.3525 5476.9052 1229.23 5392.7061 1181.4493 5386.6189 1123.0609 5343.9992 1079.0642 5299.0928 1060.0908 5272.2548 1034.6372 5238.0114 1018.4268 5223.6562 996.326 5134.4324 977.9604 5034.3661 1030.4165 5009.7461 Z" fill="none" stroke="#FBC20F" opacity="0.6" stroke-width="1" class="great_kills"/>
<path d="M 1311.3084 5160.8908 1095.5868 5400.7993 926.8853 5020.916 1130.1351 4937.0812 1263.1284 5083.1435 1311.3084 5160.8908 Z" fill="none" stroke="#FBC20F" opacity="0.6" stroke-width="1" class="great_kills"/>
<path d="M 1043.4356 5246.8077 1038.1128 5240.0973 1280.2668 5098.187 1325.6511 5145.8491 1377.4532 5090.7107 1579.1579 5143.4283 1283.8511 5475.5287 1180.9845 5387.0803 1039.273 5239.8684 1043.4356 5246.8077 Z" fill="none" stroke="#FBC20F" opacity="0.6" stroke-width="1" class="great_kills"/>
<path d="M 1006.2654 5027.7199 1120.2927 4934.6027 1274.5765 5103.3761 1482.7777 5237.8003 1011.0604 5193.375 1006.2654 5027.7199 Z" fill="none" stroke="#FBC20F" opacity="0.6" stroke-width="1" class="great_kills"/>
<path d="M 1385.7482 4968.7511 1546.9986 5081.7032 1466.3546 5035.3932 1364.2023 5111.9454 1023.0986 5457.9825 857.3707 5263.5496 936.6592 5045.6066 1176.2871 4868.6392 1187.4105 4872.3533 1385.7482 4968.7511 Z" fill="none" stroke="#FBC20F" opacity="0.6" stroke-width="1" class="great_kills"/>
<path d="M 1143.2552 5355.279 1006.0832 5027.653 1130.0253 4929.7787 1343.872 5134.0006 1462.7421 5185.3337 1481.2123 5248.2051 1288.8432 5479.6688 1143.2552 5355.279 Z" fill="none" stroke="#FBC20F" opacity="0.6" stroke-width="1" class="great_kills"/>
<path d="M 1142.3916 5164.2667 1081.0073 4989.2785 1133.0725 4919.38 1254.2584 5118.9381 1142.3916 5164.2667 Z" fill="none" stroke="#FBC20F" opacity="0.6" stroke-width="1" class="great_kills"/>
<path d="M 1167.2181 5021.5371 1218.505 5141.2904 1128.1206 5369.4274 1021.9974 5048.0778 1167.2181 5021.5371 Z" fill="none" stroke="#FBC20F" opacity="0.6" stroke-width="1" class="great_kills"/>
<path d="M 1574.7799 5120.5506 1312.6102 5482.5067 982.1779 5504.1297 986.4598 5200.9536 1306.0036 4952.0003 1574.7799 5120.5506 Z" fill="none" stroke="#FBC20F" opacity="0.6" stroke-width="1" class="great_kills"/>
<path d="M 1117.9356 5356.4689 957.0848 5036.4055 1055.5034 4986.6918 1199.738 5269.7232 1117.9356 5356.4689 Z" fill="none" stroke="#FBC20F" opacity="0.6" stroke-width="1" class="great_kills"/>
<path d="M 1138.3423 5361.1259 1049.2597 5232.9548 1228.0217 5136.6853 1281.7512 5186.9065 1170.0824 5386.1376 1138.3423 5361.1259 Z" fill="none" stroke="#FBC20F" opacity="0.6" stroke-width="1" class="great_kills"/>
<path d="M 987.9126 5039.4976 1021.4807 5020.4363 1080.8873 4998.3676 1086.5118 4965.1143 1121.8247 4927.2944 1253.5415 5056.0578 1241.4479 5077.2918 1213.6285 5070.7781 1185.7509 5099.3786 1191.2725 5126.1869 1192.1605 5158.4639 1224.6692 5135.4138 1275.6082 5190.0206 1154.7861 5342.8567 1046.0059 5230.9 1032.2747 5129.2158 996.0799 5136.5418 987.9126 5039.4976 Z" fill="none" stroke="#FBC20F" opacity="0.6" stroke-width="1" class="great_kills"/>
<path d="M 3381.2088 2549.0645 3419.185 2611.7114 3442.3328 2634.7375 3474.7263 2646.696 3544.1478 2677.0585 3558.053 2707.4651 3449.8078 2735.2034 3392.4451 2750.914 3345.5028 2785.2824 3339.7207 2788.282 3338.0954 2778.6035 3333.9316 2779.5279 3331.62 2782.7557 3315.8888 2784.3783 3258.9467 2729.3307 3220.761 2699.6224 3208.7326 2701.7021 3172.4089 2692.0399 3130.0436 2610.7152 3136.2647 2548.7316 3200.7829 2518.7518 3240.5531 2495.693 3312.7208 2507.6345 3381.2088 2549.0645 Z" fill="none" stroke="#FBC20F" opacity="0.6" stroke-width="1" class="great_kills"/>
<path d="M 686.1733 5056.1782 1161.4978 4839.0508 1365.1942 5068.5148 915.3196 5522.4914 686.1733 5056.1782 Z" fill="none" stroke="#FBC20F" opacity="0.6" stroke-width="1" class="great_kills"/>
<path d="M 1121.4497 4935.9907 1201.783 5155.1251 1103.3741 5193.7726 1034.115 5016.2209 1121.4497 4935.9907 Z" fill="none" stroke="#FBC20F" opacity="0.6" stroke-width="1" class="great_kills"/>
<path d="M 1212.2341 5146.594 1256.1988 5211.1261 1265.72 5203.9787 1283.318 5223.1837 1241.0045 5284.1167 1228.8267 5355.2688 1183.7719 5385.0051 1129.3236 5344.4722 1100.6257 5305.832 1064.7538 5259.0925 1047.8625 5235.956 1047.0725 5223.9397 1036.323 5204.0497 1032.66 5177.7037 1034.8993 5158.0693 1036.669 5141.5535 1027.5696 5107.8064 1017.4377 5068.3986 1006.2626 5029.2214 1026.461 5016.8999 1065.4454 5003.1106 1090.5595 4964.117 1120.9916 4932.7561 1189.9672 5007.946 1247.8611 5058.6313 1236.2352 5077.325 1216.0766 5066.2034 1212.1318 5067.583 1185.5283 5097.1095 1191.0468 5125.766 1192.0632 5142.171 1209.6827 5146.7053 1212.2341 5146.594 Z" fill="none" stroke="#FBC20F" opacity="0.6" stroke-width="1" class="great_kills"/>
<path d="M 1297.8615 5417.7735 1205.296 5275.2779 1197.8915 5264.1746 1081.4559 4997.8262 1187.3889 4885.2877 1204.0744 4890.8587 1257.7861 4942.6852 1335.6543 4972.3727 1374.612 4972.4307 1404.2595 4996.4974 1459.8816 5020.5999 1524.7854 5042.8639 1558.1377 5076.1731 1530.2065 5153.7623 1485.6199 5194.3664 1422.4338 5262.6712 1374.0689 5342.0904 1340.5912 5390.107 1297.8615 5417.7735 Z" fill="none" stroke="#FBC20F" opacity="0.6" stroke-width="1" class="great_kills"/>
<path d="M 1122.839 4937.148 1279.6655 5185.748 1177.5224 5376.4443 983.2838 5039.9203 1122.839 4937.148 Z" fill="none" stroke="#FBC20F" opacity="0.6" stroke-width="1" class="great_kills"/>
<path d="M 1035.7879 5116.0229 983.7947 5138.1055 963.485 5085.3928 1009.9065 5065.1504 1074.8637 5053.2559 1093.3219 5106.8852 1035.7879 5116.0229 Z" fill="none" stroke="#FBC20F" opacity="0.6" stroke-width="1" class="great_kills"/>
<path d="M 1007.3074 5028.5303 1008.124 5025.8753 1121.806 4931.1406 1247.398 5058.1686 1234.1521 5074.7804 1208.1952 5063.9958 1181.5991 5089.0171 1190.2346 5125.9957 1131.4286 5132.9425 1143.6629 5166.8103 1207.1384 5142.427 1212.2387 5143.8216 1257.3622 5208.8175 1268.2738 5202.4809 1285.0599 5221.8001 1178.5621 5378.988 1007.3074 5028.5303 Z" fill="none" stroke="#FBC20F" opacity="0.6" stroke-width="1" class="great_kills"/>
<path d="M 1114.8318 5425.0671 926.9358 5022.134 1090.6923 4990.276 1135.275 4956.1668 1248.2478 5073.7044 1343.0128 5141.4756 1114.8318 5425.0671 Z" fill="none" stroke="#FBC20F" opacity="0.6" stroke-width="1" class="great_kills"/>
<path d="M 1284.2467 5222.6458 1281.2265 5225.722 1177.0538 5379.2166 1006.0326 5028.1814 1120.1426 4932.1388 1284.2467 5222.6458 Z" fill="none" stroke="#FBC20F" opacity="0.6" stroke-width="1" class="great_kills"/>
<path d="M 947.7837 5049.3243 1083.3012 5003.3735 1187.3766 4892.6788 1298.695 4879.9234 1552.4249 5190.7576 1294.0834 5460.2912 1034.1439 5507.924 1017.4622 5494.9506 960.6967 5088.1598 945.8681 5080.7387 947.7837 5049.3243 Z" fill="none" stroke="#FBC20F" opacity="0.6" stroke-width="1" class="great_kills"/>
<path d="M 1256.4337 5209.2781 1132.7675 5365.2759 1098.3691 5401.7286 985.4035 5269.3445 1050.4253 5229.7221 1007.1939 5027.2596 1120.527 4933.2172 1259.4265 5077.5932 1327.9757 5142.3871 1256.4337 5209.2781 Z" fill="none" stroke="#FBC20F" opacity="0.6" stroke-width="1" class="great_kills"/>
<path d="M 1142.7385 4961.898 1179.0626 5149.5424 999.3187 5270.757 979.4352 5236.0605 933.8888 5039.133 1194.8571 5135.7067 1207.4977 5065.0342 1123.7813 4928.6032 1142.7385 4961.898 Z" fill="none" stroke="#FBC20F" opacity="0.6" stroke-width="1" class="great_kills"/>
<path d="M 1007.1913 5028.6456 1008.599 5019.87 1122.6227 4928.1393 1255.0496 5059.1049 1208.3612 5104.0781 1226.1685 5135.2961 1281.287 5187.1368 1387.2073 5081.4841 1472.2141 5159.9228 1504.405 5196.24 1586.7751 5172.7796 1294.0554 5478.318 1184.5796 5387.5485 1129.439 5344.819 1124.459 5340.4198 1094.8372 5299.6984 1064.0595 5258.167 1048.671 5237.8059 1047.4154 5226.713 1042.791 5218.6177 1036.0908 5204.1648 1031.3862 5176.6617 1033.6252 5157.2584 1035.0476 5140.3953 1032.6368 5126.991 1007.1913 5028.6456 Z" fill="none" stroke="#FBC20F" opacity="0.6" stroke-width="1" class="great_kills"/>
<path d="M 1016.4564 5034.669 1121.4272 4948.9258 1255.4786 5226.3744 1164.2295 5417.557 1047.6167 5243.5805 1016.4564 5034.669 Z" fill="none" stroke="#FBC20F" opacity="0.6" stroke-width="1" class="great_kills"/>
<path d="M 1242.6081 5152.4192 1245.8519 5154.5038 1248.86 5158.8983 1255.8115 5163.0681 1261.8364 5166.5433 1263.9209 5168.3949 1266.0039 5171.1707 1269.2478 5173.2552 1270.867 5176.0303 1275.5015 5178.8101 1278.973 5183.6675 1279.4318 5186.9028 1277.7977 5193.6006 1274.3167 5194.7503 1272.2244 5197.7507 1268.9735 5200.056 1264.099 5202.3588 1278.9313 5210.2379 1278.9244 5214.6278 1279.8475 5217.633 1284.2459 5223.1851 1282.1543 5225.7234 1279.0184 5228.6067 1273.6782 5231.9486 1260.815 5225.4587 1251.5387 5224.2887 1238.0836 5225.4223 1232.7472 5226.3379 1233.6701 5229.3431 1231.8059 5234.6544 1231.8007 5237.8892 1228.3089 5245.5085 1227.0255 5250.2431 1221.8043 5251.5054 1216.9268 5255.4255 1215.2981 5258.4267 1212.0423 5263.5047 1209.0215 5266.7346 1205.3017 5271.812 1196.2417 5279.8843 1195.3127 5280.576 1242.6081 5152.4192 Z" fill="none" stroke="#FBC20F" opacity="0.6" stroke-width="1" class="great_kills"/>
<path d="M 1172.2445 5066.3616 1152.578 5175.3741 1248.4337 4990.7166 1513.4534 5194.4036 948.3443 5240.6225 1172.2445 5066.3616 Z" fill="none" stroke="#FBC20F" opacity="0.6" stroke-width="1" class="great_kills"/>
<path d="M 1065.0012 4988.0939 1011.1434 5019.4118 1120.7763 4918.8959 1205.0474 4999.4231 1255.9573 5066.9599 1238.2349 5126.9976 1197.3849 5145.4134 1151.9118 5153.6543 1137.0329 5173.9603 1146.26 5203.55 1163.8176 5245.1696 1189.7262 5287.7289 1211.2316 5325.5894 1213.0283 5361.6413 1183.2815 5393.0205 1142.8673 5420.5296 1127.0881 5422.3512 1106.2955 5337.9443 1072.9845 5285.2002 1031.3522 5218.5793 1019.2386 5151.7296 1003.5909 5085.1643 997.1903 5035.2532 1065.0012 4988.0939 Z" fill="none" stroke="#FBC20F" opacity="0.6" stroke-width="1" class="great_kills"/>
<path d="M 1261.5442 5173.4752 1114.3937 5345.9116 1275.9261 5136.5253 1275.1033 5144.4196 1261.5442 5173.4752 Z" fill="none" stroke="#FBC20F" opacity="0.6" stroke-width="1" class="great_kills"/>
<path d="M 1175.3348 4883.4197 1343.9983 4975.1572 1395.0158 4974.3084 1524.7297 5085.3706 1627.5483 5213.0315 1285.6545 5509.2749 1144.6038 5497.9501 1033.493 5356.3182 950.207 5236.9291 924.6323 5028.9507 933.0685 4983.6907 1175.3348 4883.4197 Z" fill="none" stroke="#FBC20F" opacity="0.6" stroke-width="1" class="great_kills"/>
<path d="M 1227.0959 5135.5286 1282.4467 5187.1386 1267.5793 5201.6711 1312.0372 5251.1861 1194.4224 5397.7331 1141.6032 5353.5056 1100.6261 5305.601 1046.9359 5235.2612 1042.7961 5215.845 1035.1704 5200.1197 1031.5028 5176.3153 1036.439 5140.5134 1008.3367 5036.271 1005.3408 5026.1011 1122.3917 4927.6769 1228.6394 5041.9675 1258.296 5059.3411 1203.2386 5116.314 1227.0959 5135.5286 Z" fill="none" stroke="#FBC20F" opacity="0.6" stroke-width="1" class="great_kills"/>
<path d="M 1090.7544 5402.5721 1075.0974 5397.3945 1030.3573 5333.6598 986.8597 5272.5757 968.1784 5215.7664 950.6228 5177.8411 930.9657 5068.9049 928.2724 5022.6975 965.647 5030.714 982.3312 5037.6759 995.3241 5034.388 1023.3269 5017.2577 1054.4184 5008.0743 1066.0226 5003.0132 1078.8686 4988.5488 1094.2061 4962.1004 1103.4995 4951.9532 1121.0404 4935.315 1139.0963 4953.3631 1152.9803 4970.4802 1180.7608 4998.2467 1188.6038 5008.9773 1231.873 5046.6294 1265.224 5074.4046 1282.171 5067.0023 1338.662 5130.8516 1291.9269 5173.6216 1255.2162 5213.7659 1090.7544 5402.5721 Z" fill="none" stroke="#FBC20F" opacity="0.6" stroke-width="1" class="great_kills"/>
<path d="M 1099.176 4943.3432 1121.4625 4928.5992 1142.7734 4941.5711 1196.4953 4986.9359 1225.1991 5018.3991 1244.6418 5041.5313 1255.7365 5064.6503 1271.4906 5074.84 1259.3913 5099.7711 1245.4329 5126.548 1239.8562 5133.0079 1248.1687 5156.1247 1275.9661 5178.3487 1274.0742 5201.4503 1293.5132 5230.1312 1238.6543 5303.0607 1232.0782 5352.9632 1178.1959 5389.8488 1141.0152 5425.8371 1104.8585 5405.4376 1002.1014 5271.2243 966.0327 5209.2328 944.9226 5089.9777 939.4867 5022.5113 1099.176 4943.3432 Z" fill="none" stroke="#FBC20F" opacity="0.6" stroke-width="1" class="great_kills"/>
<path d="M 1258.7495 5211.5923 1267.812 5201.2094 1302.0669 5248.6291 1196.5219 5390.8037 1143.4575 5354.4331 1124.6932 5339.1493 1064.0604 5257.7049 1046.2426 5233.8736 1032.4209 5181.631 1036.4352 5142.5927 1019.1621 5076.4874 1006.4973 5027.7203 1041.5464 5010.4594 1107.0601 4943.3571 1119.833 4932.2921 1124.014 4928.1417 1203.4098 5012.5884 1256.2081 5059.7998 1199.9886 5118.1569 1208.5369 5138.2707 1228.4196 5177.3486 1258.7495 5211.5923 Z" fill="none" stroke="#FBC20F" opacity="0.6" stroke-width="1" class="great_kills"/>
<path d="M 1046.4951 5222.5523 1007.6577 5027.2604 1082.406 4985.123 1176.2623 4883.4213 1479.3477 5030.7908 1576.6284 5126.0977 1046.4951 5222.5523 Z" fill="none" stroke="#FBC20F" opacity="0.6" stroke-width="1" class="great_kills"/>
<path d="M 1007.4857 5029.4526 1012.3236 5046.7873 1017.3868 5067.8189 1026.6839 5097.9617 1030.5326 5119.5009 1036.1224 5152.1757 1034.2344 5168.9861 1039.6922 5207.3707 1046.1616 5221.2456 1049.5271 5235.1254 1059.2435 5249.4686 1073.129 5267.1384 1083.3935 5281.5733 1106.0234 5313.1373 1121.5067 5330.4879 1138.6977 5349.9581 1177.2356 5378.9703 1175.597 5387.7491 1201.5886 5380.1622 1211.3656 5366.1608 1224.3129 5362.0224 1233.6938 5364.1174 1231.881 5348.9831 1229.7759 5335.8852 1233.6386 5315.4939 1229.7183 5301.1609 1234.221 5294.9362 1241.4805 5299.379 1244.2069 5286.9825 1243.7515 5281.6671 1265.7341 5279.2908 1278.9244 5265.9098 1292.9339 5254.3251 1296.9779 5236.1066 1331.3703 5230.0893 1351.0129 5246.855 1386.1239 5292.8416 1370.1932 5332.4653 1319.0942 5373.984 1328.4544 5371.0504 1371.7442 5378.2124 1427.0396 5312.5933 1456.7706 5284.9062 1346.4493 5426.1718 1268.3573 5487.759 1007.4857 5029.4526 Z" fill="none" stroke="#FBC20F" opacity="0.6" stroke-width="1" class="great_kills"/>
<path d="M 932.9898 5024.3468 983.9878 5035.5325 1082.4015 4987.664 1119.6011 4932.2917 1293.5074 5233.8281 1129.8294 4917.5266 1300.0108 5228.2929 1126.1687 5424.8871 1053.886 5368.3718 989.1062 5273.9728 974.2885 5259.1568 932.9898 5024.3468 Z" fill="none" stroke="#FBC20F" opacity="0.6" stroke-width="1" class="great_kills"/>
<path d="M 1226.6912 5241.8089 1262.464 5209.5187 1277.9715 5230.569 1210.9776 5346.9206 1145.3166 5352.5876 1051.1203 5230.1855 1035.7673 5127.3433 1006.2645 5028.1819 1082.4048 4985.816 1115.8713 4943.6035 1111.0029 4942.902 1226.6912 5241.8089 Z" fill="none" stroke="#FBC20F" opacity="0.6" stroke-width="1" class="great_kills"/>
<path d="M 1006.9585 5029.1072 1082.8653 4987.6648 1129.6877 5133.7481 1035.2468 5158.301 1006.9585 5029.1072 Z" fill="none" stroke="#FBC20F" opacity="0.6" stroke-width="1" class="great_kills"/>
<path d="M 1132.6328 5443.3867 1066.879 5367.4709 1015.9442 5311.9184 1016.9267 5282.343 1042.0548 5240.7977 1103.3027 5234.4376 1140.5266 5169.8085 1180.4495 5152.3172 1244.5215 5116.3812 1301.2759 5010.2038 1345.8132 5001.9555 1420.8419 5076.9121 1463.4815 5100.9979 1488.4843 5134.3 1518.0691 5211.9694 1479.0401 5257.2043 1459.5018 5295.9967 1422.3551 5318.1279 1374.0023 5387.3836 1348.8808 5431.7173 1298.7093 5469.5428 1266.2612 5448.2298 1318.3213 5389.1489 1374.073 5339.3174 1383.4237 5290.343 1342.6791 5235.7517 1254.5051 5255.0241 1183.7561 5394.48 1132.6328 5443.3867 Z" fill="none" stroke="#FBC20F" opacity="0.6" stroke-width="1" class="great_kills"/>
<path d="M 1025.1397 5019.1299 1019.9561 4988.9738 1135.0875 4924.502 1307.2499 5155.7924 1402.0501 5037.6498 1478.0351 5096.8963 1502.0415 5181.9489 1461.2829 5222.2514 1416.6506 5290.5832 1347.7747 5432.8324 1286.4709 5467.8672 1254.9968 5417.8984 1271.7562 5382.7982 1346.0351 5355.1818 1386.9694 5283.1462 1361.0877 5216.5628 1301.2731 5209.964 1182.2246 5383.5383 1150.7147 5359.4518 1060.0327 5216.9539 1025.1397 5019.1299 Z" fill="none" stroke="#FBC20F" opacity="0.6" stroke-width="1" class="great_kills"/>
<path d="M 1183.5648 4953.6515 1231.6938 5017.4857 1270.5994 5051.7371 1256.589 5111.78 1246.3324 5144.1079 1199.9137 5163.4394 1166.4991 5172.6252 1134.0179 5178.1148 1124.7003 5201.2033 1108.9198 5205.7968 1073.6224 5228.8396 1042.9759 5244.4963 1019.7563 5257.3932 1003.0293 5271.226 1020.7948 5197.3208 1020.88 5151.1125 1012.5885 5119.6767 1011.7361 5079.0149 997.859 5058.6596 970.9537 5060.4571 948.738 5035.4655 958.0495 5017.0028 1074.0599 4983.9531 1115.8942 4930.4374 1183.5648 4953.6515 Z" fill="none" stroke="#FBC20F" opacity="0.6" stroke-width="1" class="great_kills"/>
<path d="M 1228.2479 5140.2667 1279.3178 5185.6319 1142.7639 5353.0454 1006.727 5028.8757 1119.8301 4933.909 1228.2479 5140.2667 Z" fill="none" stroke="#FBC20F" opacity="0.6" stroke-width="1" class="great_kills"/>
<path d="M 1072.6499 5253.7922 1120.0384 5214.3651 1138.95 5277.477 1105.0506 5295.9037 1072.6499 5253.7922 Z" fill="none" stroke="#FBC20F" opacity="0.6" stroke-width="1" class="great_kills"/>
<path d="M 932.9191 5027.3488 1122.3167 4933.4504 1272.3629 5109.9568 995.5569 5263.9409 986.7679 5260.2274 978.4155 5261.136 932.9191 5027.3488 Z" fill="none" stroke="#FBC20F" opacity="0.6" stroke-width="1" class="great_kills"/>
<path d="M 1281.9499 5184.88 1388.5248 5082.5995 1506.1806 5201.9769 1403.8114 5299.1366 1335.5528 5431.5531 1282.6025 5465.6757 1202.2124 5368.2364 1117.8596 5186.8517 1042.5556 5006.3864 1101.0706 4964.1254 1175.9551 5066.3679 1191.5701 5159.729 1227.7542 5134.7892 1281.9499 5184.88 Z" fill="none" stroke="#FBC20F" opacity="0.6" stroke-width="1" class="great_kills"/>
<path d="M 1130.7154 4941.5503 1269.6455 5068.3687 1302.1378 5052.7104 1362.3387 5117.4873 1451.2227 5244.2267 1295.9252 5469.5385 1156.9248 5347.2925 1071.7998 5210.3521 1071.7866 5217.7458 1021.8485 5128.935 994.1865 5038.3237 1131.6541 4935.0844 1130.7154 4941.5503 Z" fill="none" stroke="#FBC20F" opacity="0.6" stroke-width="1" class="great_kills"/>
<path d="M 1174.3973 5378.9327 1005.2747 5025.7076 1118.7309 4933.4597 1227.7922 5135.6459 1277.0414 5184.9483 1174.3973 5378.9327 Z" fill="none" stroke="#FBC20F" opacity="0.6" stroke-width="1" class="great_kills"/>
<path d="M 1172.5524 4883.415 1371.8484 4959.4911 1524.7333 5082.5984 1165.6621 5393.5252 1045.3324 5224.1676 1011.3647 5029.1154 1116.8016 4941.9882 1172.5524 4883.415 Z" fill="none" stroke="#FBC20F" opacity="0.6" stroke-width="1" class="great_kills"/>
<path d="M 1011.369 5026.8053 1133.0581 4927.6953 1347.9475 5125.3208 1146.7152 5348.6616 1011.369 5026.8053 Z" fill="none" stroke="#FBC20F" opacity="0.6" stroke-width="1" class="great_kills"/>
<path d="M 1290.3342 5111.8332 1319.7481 5138.447 1183.0784 5383.5019 1182.963 5383.155 1036.2886 5159.3426 1035.5939 5158.7637 1072.0189 5152.7071 1072.3672 5152.4766 1125.386 5140.0941 1125.3874 5139.2854 1189.7712 5125.7639 1190.3518 5125.3028 1206.4824 5118.2831 1207.178 5118.3998 1219.4703 5118.3044 1219.356 5117.2646 1227.8545 5096.8327 1226.4617 5097.639 1253.5182 5074.1185 1318.7061 5137.2903 1253.4019 5074.3493 1290.3342 5111.8332 Z" fill="none" stroke="#FBC20F" opacity="0.6" stroke-width="1" class="great_kills"/>
<path d="M 809.5086 4627.7756 1313.9993 4576.9615 1127.5923 5138.3651 600.1706 5344.3345 347.0944 5609.9679 340.4644 5299.338 534.6143 4811.9136 720.447 4649.755 631.4146 4656.9477 1143.6901 4406.7596 1595.7788 4643.8525 1506.0557 5175.9102 1297.9388 5367.8571 882.0109 5470.6548 495.4983 5654.7166 287.2841 5765.1577 153.9701 5631.6457 184.2775 5409.8468 809.5086 4627.7756 Z" fill="none" stroke="#FBC20F" opacity="0.6" stroke-width="1" class="great_kills"/>
<path d="M 1125.0285 5011.7628 1483.7719 5188.8188 1222.7883 5359.4185 1128.0183 5428.588 1071.527 5362.8574 1011.3167 5305.4397 970.6139 5239.7407 949.4121 5167.6129 938.4128 5098.282 935.7477 5037.2885 973.7751 5040.1334 1009.0491 5027.263 1056.4026 5002.4013 1089.8434 4975.6654 1112.0776 4991.4122 1125.0285 5011.7628 Z" fill="none" stroke="#FBC20F" opacity="0.6" stroke-width="1" class="great_kills"/>
<path d="M 1135.9101 5359.0419 1131.8565 5355.4531 1122.4792 5345.0381 1115.4212 5334.9737 1064.0409 5268.5648 1048.0802 5243.8124 1026.1461 5188.3198 1030.8438 5156.2136 1032.2727 5135.8851 1024.9131 5102.0259 1021.6932 5087.35 1007.6534 5029.5705 1006.152 5026.3336 1081.0176 4983.5036 1225.3418 5287.0952 1224.5299 5287.0939 1204.9251 5359.6203 1171.0108 5385.9081 1135.9101 5359.0419 Z" fill="none" stroke="#FBC20F" opacity="0.6" stroke-width="1" class="great_kills"/>
<path d="M 1027.6269 5013.437 1180.9306 4864.9515 1366.279 4962.2548 1518.2493 5075.1973 1576.5959 5151.9734 1373.0322 5416.0382 1148.4582 5414.757 1027.6269 5013.437 Z" fill="none" stroke="#FBC20F" opacity="0.6" stroke-width="1" class="great_kills"/>
<path d="M 985.8291 5042.9282 1176.2592 4885.269 1359.7655 4976.1047 1467.2747 5040.9387 1528.4331 5090.92 1610.0216 5129.8355 1293.1496 5463.9875 1139.1624 5423.9851 985.8291 5042.9282 Z" fill="none" stroke="#FBC20F" opacity="0.6" stroke-width="1" class="great_kills"/>
<path d="M 990.9585 5275.8248 1121.4762 4920.7459 1339.7782 5159.7327 1260.3063 5253.647 1120.591 5430.4239 990.9585 5275.8248 Z" fill="none" stroke="#FBC20F" opacity="0.6" stroke-width="1" class="great_kills"/>
<path d="M 1098.8335 5401.4983 1086.3102 5398.9341 1080.0821 5118.1821 1159.2981 5042.3144 1278.7407 5183.8982 1098.8335 5401.4983 Z" fill="none" stroke="#FBC20F" opacity="0.6" stroke-width="1" class="great_kills"/>
<path d="M 1141.1444 5350.5007 999.7695 5029.0938 1092.6588 4957.191 1248.5062 5122.0363 1293.8851 5172.9357 1182.0661 5382.5957 1141.1444 5350.5007 Z" fill="none" stroke="#FBC20F" opacity="0.6" stroke-width="1" class="great_kills"/>
<path d="M 947.8121 5034.5397 960.8042 5031.7924 984.0069 5025.3682 1008.1455 5014.3251 1007.2453 4999.5393 1035.0832 4994.0466 1062.9473 4973.7694 1094.5563 4933.1718 1155.8358 4896.3213 1185.534 4885.2846 1213.3371 4898.2651 1287.4701 4940.8841 1331.9413 4974.215 1385.6781 5016.7986 1430.172 5039.039 1441.2338 5088.9539 1509.8231 5133.4044 1535.7153 5198.1295 1509.7153 5214.731 1453.9755 5266.4124 1398.2377 5312.5475 1349.9152 5360.5414 1307.1159 5434.4272 1231.0065 5441.7023 1164.2107 5428.6499 1099.315 5391.562 1003.0224 5274.9231 969.8263 5165.8035 947.8121 5034.5397 Z" fill="none" stroke="#FBC20F" opacity="0.6" stroke-width="1" class="great_kills"/>
<path d="M 1121.4497 4935.9907 1292.8455 5062.8606 1284.4837 5071.1642 1352.116 5129.4856 1396.7092 5086.1183 1513.4118 5225.8264 1185.1604 5387.0873 1143.6844 5357.4377 1049.2538 5236.1896 1042.8032 5211.9172 1035.8637 5201.5073 1031.9638 5177.9335 1038.0596 5142.1336 1006.7266 5029.1068 1069.157 5002.4242 1088.4819 4958.8006 1121.4497 4935.9907 Z" fill="none" stroke="#FBC20F" opacity="0.6" stroke-width="1" class="great_kills"/>
<path d="M 1127.0261 4929.5328 1129.7959 4936.9291 1339.1252 5131.3144 1170.9185 5302.9491 1021.1371 5011.577 1127.0261 4929.5328 Z" fill="none" stroke="#FBC20F" opacity="0.6" stroke-width="1" class="great_kills"/>
<path d="M 984.9128 5036.9203 1083.7954 4986.2805 1146.0947 5168.8939 1031.3746 5246.3236 984.9128 5036.9203 Z" fill="none" stroke="#FBC20F" opacity="0.6" stroke-width="1" class="great_kills"/></svg>