<?xml version="1.0"?><svg xmlns="http://www.w3.org/2000/svg" version="1.2" baseProfile="tiny" width="6000" height="5918" viewBox="0 0 6000 5918" stroke-linecap="round" stroke-linejoin="round"><path d="M 2840.0516 3546.9815 2889.1443 3591.2617 2901.189 3618.9394 2870.6272 3655.8504 2845.6161 3634.6311 2840.9856 3644.7809 2819.6804 3625.4062 2732.6099 3729.6741 2710.3786 3711.2179 2687.222 3692.7615 2819.6748 3526.6861 2840.0516 3546.9815 Z" fill="none" stroke="#A9159C" opacity="0.5494505494505495" stroke-width="1" class="greenwood_heights"/>
<path d="M 2768.0423 3600.9574 2819.6752 3533.6054 2914.6166 3600.715 2872.2485 3658.3876 2848.395 3637.1682 2841.6805 3647.3183 2819.449 3627.2516 2812.271 3636.4787 2768.0423 3600.9574 Z" fill="none" stroke="#A9159C" opacity="0.5494505494505495" stroke-width="1" class="greenwood_heights"/>
<path d="M 2917.0834 3602.5876 2869.5912 3861.7574 2666.7034 3726.9935 2821.6786 3536.17 2917.0834 3602.5876 Z" fill="none" stroke="#A9159C" opacity="0.5494505494505495" stroke-width="1" class="greenwood_heights"/>
<path d="M 2867.3754 3564.047 2743.263 3721.831 2694.6331 3684.4576 2819.675 3530.8377 2867.3754 3564.047 Z" fill="none" stroke="#A9159C" opacity="0.5494505494505495" stroke-width="1" class="greenwood_heights"/>
<path d="M 2745.5789 3721.3696 2671.4773 3666.0013 2719.6472 3602.3403 2750.2123 3618.0264 2793.7437 3560.8229 2891.9285 3632.7807 2871.5533 3654.0049 2848.3951 3638.3215 2842.838 3643.8581 2818.7544 3629.0969 2745.5789 3721.3696 Z" fill="none" stroke="#A9159C" opacity="0.5494505494505495" stroke-width="1" class="greenwood_heights"/>
<path d="M 2962.7881 3639.4579 2937.4376 3671.2959 2890.4233 3633.1269 2871.2062 3656.3117 2847.7004 3637.9756 2841.2172 3645.7036 2817.7123 3627.367 2742.3367 3722.4077 2723.2299 3746.399 2650.1702 3687.106 2721.4997 3601.3024 2745.2337 3620.6789 2817.7072 3536.0273 2821.7585 3524.9562 2962.7881 3639.4579 Z" fill="none" stroke="#A9159C" opacity="0.5494505494505495" stroke-width="1" class="greenwood_heights"/>
<path d="M 2819.6806 3628.1742 2732.6094 3743.5157 2677.0306 3713.0609 2777.0727 3584.8113 2819.6754 3537.757 2828.0108 3536.8339 2855.7971 3553.4383 2893.7751 3589.4158 2915.0831 3622.6279 2881.742 3651.2356 2859.5105 3641.0885 2819.6806 3628.1742 Z" fill="none" stroke="#A9159C" opacity="0.5494505494505495" stroke-width="1" class="greenwood_heights"/>
<path d="M 2790.2276 3654.6398 2682.7861 3584.5143 2779.6393 3466.834 2807.6322 3528.5309 2867.6481 3576.0778 3003.0986 3712.1124 3029.0538 3776.7002 3041.1486 3833.5012 2987.4203 3857.5102 2978.1427 3800.2948 2790.2276 3654.6398 Z" fill="none" stroke="#A9159C" opacity="0.5494505494505495" stroke-width="1" class="greenwood_heights"/>
<path d="M 2962.7988 3690.8987 2890.076 3632.7809 2872.0168 3657.2343 2847.4688 3637.399 2842.3753 3648.0102 2816.9017 3624.945 2722.8825 3746.7451 2675.6415 3708.9084 2820.6011 3529.9151 2987.8013 3657.6755 2962.7988 3690.8987 Z" fill="none" stroke="#A9159C" opacity="0.5494505494505495" stroke-width="1" class="greenwood_heights"/>
<path d="M 2840.9779 3548.3653 2915.08 3602.7909 2844.6825 3547.4424 2912.7644 3602.3299 2873.8695 3658.6181 2850.248 3642.0121 2847.933 3649.3938 2793.2821 3612.4901 2791.4296 3609.7222 2840.9779 3548.3653 Z" fill="none" stroke="#A9159C" opacity="0.5494505494505495" stroke-width="1" class="greenwood_heights"/>
<path d="M 2819.675 3531.299 3013.2797 3679.8141 2937.3658 3913.3073 2680.7361 3711.2157 2819.675 3531.299 Z" fill="none" stroke="#A9159C" opacity="0.5494505494505495" stroke-width="1" class="greenwood_heights"/>
<path d="M 2652.9491 3687.2217 2815.9705 3532.2218 2902.1164 3627.2432 2874.3318 3651.2365 2820.6068 3627.2515 2730.7564 3749.9751 2652.9491 3687.2217 Z" fill="none" stroke="#A9159C" opacity="0.5494505494505495" stroke-width="1" class="greenwood_heights"/>
<path d="M 2821.5321 3611.5662 2869.6903 3558.9724 2953.0559 3606.936 3012.3505 3668.7418 3026.2749 3777.6238 2994.7802 3788.7058 2821.5321 3611.5662 Z" fill="none" stroke="#A9159C" opacity="0.5494505494505495" stroke-width="1" class="greenwood_heights"/>
<path d="M 2873.3954 3562.6624 2872.5874 3583.4213 2878.7254 3599.2207 2891.2338 3632.6654 2872.2482 3655.2735 2848.0479 3639.0136 2840.9856 3644.2043 2817.1333 3626.5597 2744.5368 3721.3696 2672.9827 3664.3867 2712.2403 3551.9419 2754.7281 3581.0055 2769.663 3560.3621 2738.1736 3532.684 2765.9582 3520.691 2784.4806 3499.472 2799.299 3512.0414 2813.7705 3525.3026 2822.3377 3530.8375 2836.9254 3541.9075 2864.2495 3564.278 2873.3954 3562.6624 Z" fill="none" stroke="#A9159C" opacity="0.5494505494505495" stroke-width="1" class="greenwood_heights"/>
<path d="M 2816.9015 3621.7157 2749.053 3701.992 2751.1372 3704.2988 2741.4104 3721.8309 2668.6983 3668.0771 2775.2199 3543.986 2814.3547 3627.7132 2816.9015 3621.7157 Z" fill="none" stroke="#A9159C" opacity="0.5494505494505495" stroke-width="1" class="greenwood_heights"/>
<path d="M 2699.8406 3726.0967 2819.0987 3576.0449 2962.9144 3689.8606 2978.3382 3796.4383 2868.1021 3859.442 2819.1127 3821.7236 2770.7061 3782.5045 2723.1141 3745.8223 2700.9986 3725.4047 2701.5775 3726.0968 2699.8406 3726.0967 Z" fill="none" stroke="#A9159C" opacity="0.5494505494505495" stroke-width="1" class="greenwood_heights"/>
<path d="M 2899.8728 3631.9215 2815.8174 3631.3521 2724.1141 3735.6201 2664.8322 3692.2464 2810.255 3528.9414 2823.4453 3519.0876 2903.1034 3614.7126 2899.8728 3631.9215 Z" fill="none" stroke="#A9159C" opacity="0.5494505494505495" stroke-width="1" class="greenwood_heights"/>
<path d="M 2817.3649 3626.7904 2741.4104 3721.3695 2715.474 3701.068 2839.1256 3548.3654 2864.1341 3567.2765 2886.8288 3591.7233 2898.4106 3621.2464 2871.5535 3655.3889 2848.8581 3636.9375 2839.5962 3644.3197 2817.3649 3626.7904 Z" fill="none" stroke="#A9159C" opacity="0.5494505494505495" stroke-width="1" class="greenwood_heights"/>
<path d="M 2773.368 3593.5763 2819.675 3530.3764 2913.6906 3602.3298 2870.6269 3652.621 2849.3214 3638.3215 2842.3751 3646.1649 2773.368 3593.5763 Z" fill="none" stroke="#A9159C" opacity="0.5494505494505495" stroke-width="1" class="greenwood_heights"/>
<path d="M 2890.5391 3633.2422 2869.7009 3655.3891 2846.5426 3638.3217 2840.9858 3647.0877 2817.3649 3626.7904 2792.8203 3658.1626 2767.8108 3638.3252 2840.9777 3546.0588 2914.1533 3600.0231 2890.5391 3633.2422 Z" fill="none" stroke="#A9159C" opacity="0.5494505494505495" stroke-width="1" class="greenwood_heights"/>
<path d="M 2819.675 3531.299 2837.2728 3542.3688 2847.4614 3551.5938 2861.355 3561.7411 2878.028 3576.5011 2889.1445 3593.1069 2901.1883 3614.3261 2912.3053 3628.1644 2971.5963 3679.8241 2963.2622 3691.8213 2889.1504 3638.3171 2870.627 3654.005 2849.3214 3638.3215 2842.8383 3646.6262 2819.6806 3628.1742 2726.1248 3746.2838 2677.0312 3707.5244 2692.7801 3689.071 2714.0863 3668.7727 2743.7284 3624.4849 2779.8512 3576.5076 2800.2268 3558.0549 2812.2656 3525.7639 2819.675 3531.299 Z" fill="none" stroke="#A9159C" opacity="0.5494505494505495" stroke-width="1" class="greenwood_heights"/>
<path d="M 2820.601 3528.5312 2916.006 3601.4068 2871.5534 3654.9276 2846.5425 3636.4764 2840.0594 3645.7037 2818.7545 3630.0196 2723.8089 3744.4382 2675.6418 3706.1402 2820.601 3528.5312 Z" fill="none" stroke="#A9159C" opacity="0.5494505494505495" stroke-width="1" class="greenwood_heights"/>
<path d="M 2937.322 3672.4493 2962.3353 3689.0533 2976.2537 3796.0927 2750.2121 3627.253 2778.9239 3497.1658 2966.0301 3640.1493 2937.322 3672.4493 Z" fill="none" stroke="#A9159C" opacity="0.5494505494505495" stroke-width="1" class="greenwood_heights"/>
<path d="M 2817.8281 3627.2517 2881.7289 3544.6708 2981.3066 3610.1593 2937.7852 3672.9105 2889.6129 3633.2423 2871.0904 3656.3117 2847.9319 3637.3989 2841.912 3647.0876 2817.8281 3627.2517 Z" fill="none" stroke="#A9159C" opacity="0.5494505494505495" stroke-width="1" class="greenwood_heights"/>
<path d="M 2885.4401 3596.798 2987.8058 3676.591 2990.5884 3692.2766 2871.1118 3847.3288 2796.5295 3783.6576 2743.7264 3711.2193 2774.2948 3663.2378 2833.5723 3600.4937 2983.6348 3665.0581 2944.7265 3641.9989 2863.2085 3572.8122 2885.4401 3596.798 Z" fill="none" stroke="#A9159C" opacity="0.5494505494505495" stroke-width="1" class="greenwood_heights"/>
<path d="M 2760.8345 3771.2656 2714.335 3728.3851 2844.4474 3548.8171 3010.2655 3679.8057 2986.2087 3795.1584 2870.7005 3864.3996 2698.8236 3725.2625 2760.8345 3771.2656 Z" fill="none" stroke="#A9159C" opacity="0.5494505494505495" stroke-width="1" class="greenwood_heights"/>
<path d="M 2785.41 3654.0106 2854.8764 3611.5637 3039.2302 3728.7123 3005.9003 3801.6227 2833.597 3942.8552 2677.0199 3828.4117 2727.9768 3763.8169 2849.3186 3606.9509 2785.41 3654.0106 Z" fill="none" stroke="#A9159C" opacity="0.5494505494505495" stroke-width="1" class="greenwood_heights"/>
<path d="M 2964.1774 3639.227 2939.6374 3670.6034 2889.1497 3632.781 2872.943 3656.5421 2848.3951 3637.3989 2842.1435 3645.2422 2820.1435 3625.1755 2724.851 3745.4763 2677.2626 3709.1392 2817.5915 3536.6039 2817.5916 3538.9104 2964.1774 3639.227 Z" fill="none" stroke="#A9159C" opacity="0.5494505494505495" stroke-width="1" class="greenwood_heights"/>
<path d="M 2866.9438 3857.9425 2721.493 3745.3608 2849.3156 3572.8136 2968.819 3687.2065 2866.9438 3857.9425 Z" fill="none" stroke="#A9159C" opacity="0.5494505494505495" stroke-width="1" class="greenwood_heights"/>
<path d="M 2890.5601 3632.6725 2871.1519 3657.4309 2848.4565 3638.2874 2842.542 3645.4373 2817.3434 3626.9477 2742.3916 3721.8602 2671.061 3665.5362 2721.8034 3602.8599 2746.8173 3621.4837 2797.4601 3558.4792 2890.5601 3632.6725 Z" fill="none" stroke="#A9159C" opacity="0.5494505494505495" stroke-width="1" class="greenwood_heights"/>
<path d="M 2793.7451 3607.8769 2839.1255 3547.9041 2865.9862 3564.5084 2886.3652 3587.5715 2903.0415 3618.9391 2946.5826 3660.4524 2939.1742 3670.6035 2888.2235 3632.7812 2869.7009 3654.9278 2846.5426 3638.3217 2840.0593 3644.781 2793.7451 3607.8769 Z" fill="none" stroke="#A9159C" opacity="0.5494505494505495" stroke-width="1" class="greenwood_heights"/>
<path d="M 2740.9472 3721.3695 2693.7067 3685.3802 2795.1329 3560.3616 2889.6128 3632.781 2872.4797 3654.9275 2847.0057 3637.8603 2840.5225 3645.7037 2817.365 3627.713 2740.9472 3721.3695 Z" fill="none" stroke="#A9159C" opacity="0.5494505494505495" stroke-width="1" class="greenwood_heights"/>
<path d="M 2841.8757 3552.9856 2857.7395 3546.9449 2864.4258 3576.0302 2728.2682 3750.4254 2693.9941 3730.1223 2712.063 3721.0897 2852.5781 3548.0571 2841.8757 3552.9856 Z" fill="none" stroke="#A9159C" opacity="0.5494505494505495" stroke-width="1" class="greenwood_heights"/>
<path d="M 2727.9802 3749.2709 2679.8131 3705.8978 2809.4907 3541.6665 2870.62 3565.6492 2727.9802 3749.2709 Z" fill="none" stroke="#A9159C" opacity="0.5494505494505495" stroke-width="1" class="greenwood_heights"/>
<path d="M 2889.613 3633.7037 2867.3853 3655.8507 2847.4688 3636.9376 2840.9857 3646.6263 2816.9018 3627.713 2750.2108 3710.2967 2702.9705 3673.8469 2679.8147 3656.775 2720.5735 3601.4177 2819.2121 3533.1441 2935.9234 3621.7018 2912.3088 3650.77 2889.613 3633.7037 Z" fill="none" stroke="#A9159C" opacity="0.5494505494505495" stroke-width="1" class="greenwood_heights"/>
<path d="M 2889.1498 3633.7037 2743.7262 3721.3696 2716.8633 3704.7591 2816.8989 3574.6611 2889.1498 3633.7037 Z" fill="none" stroke="#A9159C" opacity="0.5494505494505495" stroke-width="1" class="greenwood_heights"/>
<path d="M 2906.7463 3618.0159 2910.4528 3628.1647 2944.73 3660.4527 2941.027 3671.5259 2892.8555 3638.3166 2873.4061 3655.8501 2852.1 3636.4759 2843.7642 3642.0127 2818.7543 3628.1743 2810.4185 3635.5561 2762.2534 3599.5735 2786.3345 3573.7397 2740.9521 3531.3002 2779.8495 3464.8774 2818.7491 3534.9893 2850.2403 3556.2066 2875.2495 3577.424 2894.7031 3602.3326 2906.7463 3618.0159 Z" fill="none" stroke="#A9159C" opacity="0.5494505494505495" stroke-width="1" class="greenwood_heights"/>
<path d="M 2807.635 3530.377 2861.3554 3566.3541 2888.2172 3584.8034 2887.2934 3603.2562 2910.4528 3628.1647 2870.6265 3649.3915 2845.617 3645.7032 2819.6805 3627.2516 2718.7138 3747.2063 2654.8015 3689.0674 2807.635 3530.377 Z" fill="none" stroke="#A9159C" opacity="0.5494505494505495" stroke-width="1" class="greenwood_heights"/>
<path d="M 2819.9093 3578.1208 2819.9091 3575.5836 2842.3708 3593.1119 2889.3815 3634.3957 2961.6406 3689.2842 2985.7653 3863.9211 2946.6263 3888.8479 2948.2505 3903.3837 2937.8292 3913.9995 2841.2326 3838.1029 2771.2852 3783.4274 2702.0407 3725.0588 2819.9093 3578.1208 Z" fill="none" stroke="#A9159C" opacity="0.5494505494505495" stroke-width="1" class="greenwood_heights"/>
<path d="M 2875.2584 3654.0045 2846.5431 3643.8578 2820.6071 3631.8649 2724.2722 3742.5926 2668.6952 3698.2962 2797.4477 3541.4484 2831.7169 3558.0532 2910.4519 3622.6287 2875.2584 3654.0045 Z" fill="none" stroke="#A9159C" opacity="0.5494505494505495" stroke-width="1" class="greenwood_heights"/>
<path d="M 2961.4092 3689.9763 2972.5479 3795.1707 2881.7659 3845.9432 2866.9438 3857.9425 2655.7284 3684.4538 2718.721 3601.4176 2743.7285 3621.7169 2815.9703 3529.454 2828.9348 3504.5441 2938.2286 3564.498 2914.1531 3598.6392 2938.2382 3617.088 2916.0114 3635.5452 2961.4092 3689.9763 Z" fill="none" stroke="#A9159C" opacity="0.5494505494505495" stroke-width="1" class="greenwood_heights"/>
<path d="M 2890.0759 3632.3196 2718.7138 3747.2063 2651.0964 3688.1442 2590.8971 3630.9277 2790.9649 3552.5196 2786.7972 3554.8262 2890.0759 3632.3196 Z" fill="none" stroke="#A9159C" opacity="0.5494505494505495" stroke-width="1" class="greenwood_heights"/>
<path d="M 2887.2968 3630.0133 2876.1849 3655.8497 2838.2065 3640.1677 2814.1234 3633.7106 2735.3891 3724.1376 2670.5521 3655.8515 2831.7128 3499.9312 2799.3008 3561.7454 2887.2968 3630.0133 Z" fill="none" stroke="#A9159C" opacity="0.5494505494505495" stroke-width="1" class="greenwood_heights"/>
<path d="M 2848.3863 3537.7549 2998.4471 3631.8378 2957.7032 3686.2861 2888.2236 3633.7038 2870.6268 3652.1596 2853.0261 3634.6304 2838.2065 3641.0904 2796.5237 3606.0315 2848.3863 3537.7549 Z" fill="none" stroke="#A9159C" opacity="0.5494505494505495" stroke-width="1" class="greenwood_heights"/>
<path d="M 2794.6773 3802.5756 2652.9488 3689.9899 2804.8573 3547.9062 2963.2593 3677.9805 2794.6773 3802.5756 Z" fill="none" stroke="#A9159C" opacity="0.5494505494505495" stroke-width="1" class="greenwood_heights"/>
<path d="M 2983.6216 3607.8521 2937.3218 3671.5266 2891.9285 3632.7807 2871.5534 3654.9276 2849.3211 3635.5534 2843.7643 3643.858 2817.8281 3627.2517 2879.8764 3543.2871 2983.6216 3607.8521 Z" fill="none" stroke="#A9159C" opacity="0.5494505494505495" stroke-width="1" class="greenwood_heights"/>
<path d="M 2971.5963 3679.8241 2960.4836 3693.6674 2890.0766 3637.3943 2871.5538 3658.6184 2849.3214 3638.3215 2840.9858 3647.549 2816.9018 3627.2517 2740.9472 3722.2923 2694.6329 3686.303 2817.8228 3532.2217 2882.6599 3583.8815 2905.8213 3626.32 2971.5963 3679.8241 Z" fill="none" stroke="#A9159C" opacity="0.5494505494505495" stroke-width="1" class="greenwood_heights"/>
<path d="M 2838.2004 3560.8206 2891.0007 3621.7088 2860.4587 3859.7889 2710.3779 3724.1365 2838.2004 3560.8206 Z" fill="none" stroke="#A9159C" opacity="0.5494505494505495" stroke-width="1" class="greenwood_heights"/>
<path d="M 2923.4229 3643.8481 2740.0204 3739.8248 2746.5082 3570.9719 2923.4229 3643.8481 Z" fill="none" stroke="#A9159C" opacity="0.5494505494505495" stroke-width="1" class="greenwood_heights"/>
<path d="M 2818.5198 3575.5836 2843.297 3593.5731 2736.5469 3728.7515 2711.9998 3709.8339 2818.5198 3575.5836 Z" fill="none" stroke="#A9159C" opacity="0.5494505494505495" stroke-width="1" class="greenwood_heights"/>
<path d="M 2962.3351 3688.1306 2980.8841 3788.7091 2870.6501 3861.6336 2803.9419 3811.8037 2695.5564 3725.0583 2857.646 3518.3801 3010.4865 3624.4534 2962.3351 3688.1306 Z" fill="none" stroke="#A9159C" opacity="0.5494505494505495" stroke-width="1" class="greenwood_heights"/>
<path d="M 2712.748 3714.4145 2807.9101 3571.3734 3013.6784 3769.715 2915.4996 3883.2476 2712.748 3714.4145 Z" fill="none" stroke="#A9159C" opacity="0.5494505494505495" stroke-width="1" class="greenwood_heights"/>
<path d="M 2740.0209 3719.524 2673.3308 3656.7744 2776.1462 3555.2877 2834.4988 3604.1842 2740.0209 3719.524 Z" fill="none" stroke="#A9159C" opacity="0.5494505494505495" stroke-width="1" class="greenwood_heights"/>
<path d="M 2960.4792 3672.4448 2731.6877 3613.4126 2736.3191 3605.1089 2760.401 3594.0376 2766.8845 3592.1924 2807.6362 3557.132 2960.4792 3672.4448 Z" fill="none" stroke="#A9159C" opacity="0.5494505494505495" stroke-width="1" class="greenwood_heights"/>
<path d="M 2819.6777 3577.4288 2889.1501 3635.5491 2870.6277 3659.5412 2848.3953 3640.1669 2840.9859 3648.4717 2818.7543 3628.1743 2773.3687 3684.4602 2749.2853 3661.3923 2819.6777 3577.4288 Z" fill="none" stroke="#A9159C" opacity="0.5494505494505495" stroke-width="1" class="greenwood_heights"/>
<path d="M 2775.2204 3593.115 2868.07 3564.0469 2842.5984 3544.4442 2847.4696 3646.6258 2775.2204 3593.115 Z" fill="none" stroke="#A9159C" opacity="0.5494505494505495" stroke-width="1" class="greenwood_heights"/>
<path d="M 2897.4856 3630.4732 2870.1641 3655.8504 2851.6369 3636.4759 2844.2275 3644.3193 2820.1436 3625.4062 2725.6615 3747.668 2682.1263 3703.8339 2690.464 3693.2231 2798.3745 3559.4389 2888.2236 3634.1652 2897.4856 3630.4732 Z" fill="none" stroke="#A9159C" opacity="0.5494505494505495" stroke-width="1" class="greenwood_heights"/>
<path d="M 2981.7693 3608.7752 2934.5434 3674.2952 2889.1501 3636.0104 2872.0171 3660.0024 2846.5427 3639.7057 2838.67 3645.7038 2818.2911 3626.329 2880.8024 3541.9032 2979.4534 3606.9304 2981.7693 3608.7752 Z" fill="none" stroke="#A9159C" opacity="0.5494505494505495" stroke-width="1" class="greenwood_heights"/>
<path d="M 2963.2512 3639.2272 2941.4894 3667.835 2965.1136 3686.2846 2980.8845 3790.5547 2883.6185 3843.1744 2828.9549 3804.4196 2814.1333 3825.646 2575.614 3630.9247 2597.8479 3608.7851 2627.9528 3591.7211 2667.7821 3570.5057 2714.0927 3550.6734 2755.307 3577.8916 2767.3475 3559.9008 2735.3954 3527.1485 2776.1455 3496.7045 2963.2512 3639.2272 Z" fill="none" stroke="#A9159C" opacity="0.5494505494505495" stroke-width="1" class="greenwood_heights"/>
<path d="M 2890.0702 3589.4163 2911.377 3615.2473 2899.3379 3629.089 2866.9244 3677.073 2767.8107 3600.4961 2819.6745 3521.1507 2890.0702 3589.4163 Z" fill="none" stroke="#A9159C" opacity="0.5494505494505495" stroke-width="1" class="greenwood_heights"/>
<path d="M 2866.9223 3657.6962 2852.1003 3640.1666 2838.2072 3650.3173 2816.9016 3623.561 2750.2107 3714.9104 2721.4953 3696.4547 2820.6037 3573.7383 2891.9281 3630.0127 2866.9223 3657.6962 Z" fill="none" stroke="#A9159C" opacity="0.5494505494505495" stroke-width="1" class="greenwood_heights"/>
<path d="M 2841.9039 3546.0587 2889.1438 3587.5711 2903.0409 3615.2485 2872.9428 3654.4661 2735.8513 3755.9735 2721.493 3744.4381 2696.9458 3725.5198 2841.9039 3546.0587 Z" fill="none" stroke="#A9159C" opacity="0.5494505494505495" stroke-width="1" class="greenwood_heights"/>
<path d="M 2819.9067 3533.1441 2916.2379 3603.252 2871.7852 3657.2343 2847.0057 3638.091 2840.9857 3645.473 2816.9018 3627.9437 2742.3367 3722.0616 2695.7909 3685.1497 2819.6751 3531.7603 2819.9067 3533.1441 Z" fill="none" stroke="#A9159C" opacity="0.5494505494505495" stroke-width="1" class="greenwood_heights"/>
<path d="M 2987.3252 3602.3154 2940.1452 3912.3839 2649.2444 3683.5303 2782.6339 3801.6531 2725.1985 3743.5154 2632.5706 3686.2963 2783.5542 3483.3277 2987.3252 3602.3154 Z" fill="none" stroke="#A9159C" opacity="0.5494505494505495" stroke-width="1" class="greenwood_heights"/>
<path d="M 2901.1889 3618.0167 2869.7009 3654.9278 2846.5425 3636.4764 2838.2068 3644.7812 2816.9019 3628.1744 2739.0946 3719.524 2597.383 3618.9342 2802.0789 3549.7515 2819.675 3530.3764 2889.1456 3601.4107 2865.0604 3568.199 2856.7242 3563.5868 2901.1889 3618.0167 Z" fill="none" stroke="#A9159C" opacity="0.5494505494505495" stroke-width="1" class="greenwood_heights"/>
<path d="M 2903.0415 3618.9391 2888.2236 3633.7038 2866.9223 3657.6962 2816.9021 3632.7877 2723.3455 3749.0521 2677.0317 3701.988 2812.266 3534.0671 2903.0415 3618.9391 Z" fill="none" stroke="#A9159C" opacity="0.5494505494505495" stroke-width="1" class="greenwood_heights"/>
<path d="M 2950.2881 3662.2971 2937.3223 3674.2947 2895.6342 3638.3162 2870.6277 3659.5412 2850.2481 3643.8575 2822.4599 3637.4008 2777.0728 3592.1923 2815.9709 3540.525 2834.4952 3554.3626 2871.5445 3575.5792 2904.893 3612.4803 2922.4958 3639.2348 2950.2881 3662.2971 Z" fill="none" stroke="#A9159C" opacity="0.5494505494505495" stroke-width="1" class="greenwood_heights"/>
<path d="M 2902.115 3617.0939 2969.7441 3681.67 2962.3351 3688.1306 2891.9287 3634.626 2870.6269 3653.0823 2850.2474 3635.5534 2841.9119 3644.7809 2818.7543 3627.2516 2842.834 3594.9571 2865.0602 3566.3538 2885.439 3587.5716 2902.115 3617.0939 Z" fill="none" stroke="#A9159C" opacity="0.5494505494505495" stroke-width="1" class="greenwood_heights"/>
<path d="M 2700.6538 3686.9955 2844.2193 3546.5198 3017.9361 3773.2427 2883.8505 3846.6352 2742.5683 3721.1389 2700.6538 3686.9955 Z" fill="none" stroke="#A9159C" opacity="0.5494505494505495" stroke-width="1" class="greenwood_heights"/>
<path d="M 2870.627 3654.005 2818.2914 3630.481 2744.1894 3721.831 2743.263 3724.1379 2696.9488 3684.9191 2816.4336 3533.6056 2888.2176 3588.0326 2902.1155 3620.7846 2870.627 3654.005 Z" fill="none" stroke="#A9159C" opacity="0.5494505494505495" stroke-width="1" class="greenwood_heights"/>
<path d="M 3046.6731 3836.6798 2946.6301 3908.6909 2704.8197 3725.9817 2822.4567 3583.887 3016.0667 3710.2636 3046.6731 3836.6798 Z" fill="none" stroke="#A9159C" opacity="0.5494505494505495" stroke-width="1" class="greenwood_heights"/>
<path d="M 2867.8484 3655.8507 2846.5425 3636.4764 2838.2069 3645.7038 2817.8281 3628.1743 2740.9472 3722.2923 2603.8681 3610.6314 2753.9184 3522.0748 2891.0025 3634.6261 2867.8484 3655.8507 Z" fill="none" stroke="#A9159C" opacity="0.5494505494505495" stroke-width="1" class="greenwood_heights"/>
<path d="M 2861.356 3571.8898 2885.4394 3590.8008 2878.4938 3599.1054 2901.1885 3615.2488 2896.5586 3624.476 2921.5705 3644.7711 2915.0879 3652.615 2890.076 3632.7809 2871.0905 3656.773 2847.9322 3640.6283 2840.5226 3646.6263 2817.3649 3626.7904 2861.356 3571.8898 Z" fill="none" stroke="#A9159C" opacity="0.5494505494505495" stroke-width="1" class="greenwood_heights"/>
<path d="M 2816.899 3575.5837 2842.8338 3592.1892 2981.7812 3660.445 2966.0387 3680.7481 2702.0412 3717.6767 2816.899 3575.5837 Z" fill="none" stroke="#A9159C" opacity="0.5494505494505495" stroke-width="1" class="greenwood_heights"/>
<path d="M 2741.8735 3721.3695 2699.2644 3687.2261 2815.0441 3527.6089 2916.006 3601.4068 2887.2974 3634.6266 2871.5535 3655.8503 2845.6164 3638.3218 2840.0596 3647.5491 2817.8281 3627.2517 2741.8735 3721.3695 Z" fill="none" stroke="#A9159C" opacity="0.5494505494505495" stroke-width="1" class="greenwood_heights"/>
<path d="M 2963.2616 3689.0532 2888.2236 3633.7038 2870.6272 3655.8504 2853.9525 3636.4757 2838.2067 3643.8585 2815.0493 3627.2518 2719.6403 3743.5152 2639.0573 3666.9202 2775.2194 3499.9335 2986.4121 3658.5985 2963.2616 3689.0532 Z" fill="none" stroke="#A9159C" opacity="0.5494505494505495" stroke-width="1" class="greenwood_heights"/>
<path d="M 2721.4929 3746.2836 2651.0966 3686.2987 2736.3199 3578.3525 2748.3604 3583.8886 2768.7368 3560.8234 2733.5429 3532.2226 2762.2537 3511.9266 2774.2934 3506.3913 2805.7826 3527.6094 2880.8077 3585.7269 2885.4392 3589.4169 2901.1889 3618.0167 2873.4058 3653.082 2848.3951 3637.3989 2843.7645 3645.7034 2815.9756 3627.2518 2721.4929 3746.2836 Z" fill="none" stroke="#A9159C" opacity="0.5494505494505495" stroke-width="1" class="greenwood_heights"/>
<path d="M 2893.7785 3614.3271 2866.9215 3649.3919 2856.7319 3642.9342 2816.9041 3669.6954 2778.0006 3708.4512 2697.4054 3775.8117 2623.3038 3711.2089 2659.4342 3678.9179 2696.4889 3640.168 2724.2779 3610.6443 2761.3273 3572.8173 2791.8906 3534.9905 2811.3396 3530.3768 2842.8302 3547.9038 2869.6917 3571.8889 2893.7785 3614.3271 Z" fill="none" stroke="#A9159C" opacity="0.5494505494505495" stroke-width="1" class="greenwood_heights"/>
<path d="M 2889.1438 3587.5711 2903.9677 3618.939 2997.5365 3695.5045 3034.6098 3768.3934 2978.1061 3794.2467 2961.4088 3688.1308 2889.1496 3631.8584 2869.7008 3654.0051 2847.4688 3637.399 2838.2068 3644.7812 2818.7541 3624.4836 2861.3553 3565.4315 2889.1438 3587.5711 Z" fill="none" stroke="#A9159C" opacity="0.5494505494505495" stroke-width="1" class="greenwood_heights"/>
<path d="M 2568.3829 3528.1054 2800.8475 3562.2611 2732.0454 3739.2968 2597.7412 3641.4733 2568.3829 3528.1054 Z" fill="none" stroke="#A9159C" opacity="0.5494505494505495" stroke-width="1" class="greenwood_heights"/>
<path d="M 2944.7321 3671.5252 2889.1498 3633.7037 2871.5534 3654.9276 2848.3948 3634.6308 2840.9858 3647.549 2816.9016 3623.561 2765.032 3698.3012 2738.1694 3678.0008 2839.1255 3546.9816 2969.7316 3623.5404 2944.7321 3671.5252 Z" fill="none" stroke="#A9159C" opacity="0.5494505494505495" stroke-width="1" class="greenwood_heights"/>
<path d="M 2771.0524 3590.1164 2815.0444 3534.067 2902.115 3617.5553 2870.6273 3656.0811 2848.6266 3637.6295 2839.8279 3645.9344 2816.6703 3627.7131 2771.0524 3590.1164 Z" fill="none" stroke="#A9159C" opacity="0.5494505494505495" stroke-width="1" class="greenwood_heights"/>
<path d="M 2880.8077 3585.7269 2824.3062 3537.7567 2907.6732 3622.6291 2874.3323 3655.85 2851.1742 3642.012 2844.6908 3646.626 2827.0906 3629.0964 2747.4316 3721.3697 2696.4854 3688.1486 2815.0446 3536.8347 2880.8077 3585.7269 Z" fill="none" stroke="#A9159C" opacity="0.5494505494505495" stroke-width="1" class="greenwood_heights"/>
<path d="M 2782.1675 3623.5623 2841.9032 3537.2942 2925.2652 3583.4139 2872.4798 3656.3115 2804.3981 3641.0924 2782.1675 3623.5623 Z" fill="none" stroke="#A9159C" opacity="0.5494505494505495" stroke-width="1" class="greenwood_heights"/>
<path d="M 2889.6128 3632.781 2870.6271 3654.4663 2847.4689 3638.3216 2840.9856 3645.2423 2820.1438 3629.0969 2766.4215 3690.4579 2724.739 3657.7007 2787.2608 3576.9688 2806.7116 3592.1915 2813.1946 3583.4262 2836.8141 3600.4934 2842.834 3594.4958 2889.6128 3632.781 Z" fill="none" stroke="#A9159C" opacity="0.5494505494505495" stroke-width="1" class="greenwood_heights"/>
<path d="M 2840.9783 3553.4396 2917.8587 3603.2518 2876.185 3656.7724 2853.0266 3640.1665 2839.1339 3655.8534 2818.7545 3630.9423 2789.114 3608.7996 2840.9783 3553.4396 Z" fill="none" stroke="#A9159C" opacity="0.5494505494505495" stroke-width="1" class="greenwood_heights"/>
<path d="M 2819.6749 3529.4538 2898.4094 3612.4812 2780.7805 3767.5088 2690.0013 3688.1481 2819.6749 3529.4538 Z" fill="none" stroke="#A9159C" opacity="0.5494505494505495" stroke-width="1" class="greenwood_heights"/>
<path d="M 2941.027 3671.5259 2891.002 3630.9355 2871.5536 3656.773 2847.4689 3638.3216 2842.8382 3645.7035 2792.8188 3606.9542 2842.83 3546.0587 2962.3243 3636.4593 2941.027 3671.5259 Z" fill="none" stroke="#A9159C" opacity="0.5494505494505495" stroke-width="1" class="greenwood_heights"/>
<path d="M 2674.2514 3715.8289 2679.8104 3704.7564 2813.1927 3545.138 2898.4083 3605.1 2892.8543 3630.0125 2867.8481 3653.0826 2852.0997 3633.7078 2843.7642 3642.9353 2821.5332 3630.0195 2763.1794 3697.3784 2751.1371 3712.1422 2756.6949 3731.5202 2760.4002 3746.2846 2747.4308 3759.2035 2724.2718 3750.8977 2674.2514 3715.8289 Z" fill="none" stroke="#A9159C" opacity="0.5494505494505495" stroke-width="1" class="greenwood_heights"/>
<path d="M 2954.4336 3548.3494 2808.2181 3624.4841 2819.2174 3626.2136 2889.0135 3476.7468 2895.7287 3483.3189 2911.1277 3499.807 2924.3263 3508.1078 2919.2321 3505.341 2932.5475 3518.3698 2949.2185 3521.0191 2953.0394 3523.9014 2940.428 3562.9984 2939.3862 3564.0365 2949.8046 3557.8069 2946.5627 3556.539 2964.4965 3504.9866 2965.3112 3525.5133 2949.3411 3556.1925 2954.4336 3548.3494 Z" fill="none" stroke="#A9159C" opacity="0.5494505494505495" stroke-width="1" class="greenwood_heights"/>
<path d="M 2793.7435 3554.3647 2822.4532 3526.6859 2899.3338 3599.564 2871.552 3642.01 2831.7224 3636.4775 2767.8107 3586.6566 2793.7435 3554.3647 Z" fill="none" stroke="#A9159C" opacity="0.5494505494505495" stroke-width="1" class="greenwood_heights"/>
<path d="M 2789.1187 3799.8073 2677.0313 3705.6789 2818.7488 3530.3764 2966.0384 3678.9026 2789.1187 3799.8073 Z" fill="none" stroke="#A9159C" opacity="0.5494505494505495" stroke-width="1" class="greenwood_heights"/>
<path d="M 2871.0906 3657.4651 2840.5226 3646.3957 2817.8281 3627.713 2779.158 3674.3102 2754.6115 3654.9335 2819.2145 3576.2756 2890.7708 3633.9342 2871.0906 3657.4651 Z" fill="none" stroke="#A9159C" opacity="0.5494505494505495" stroke-width="1" class="greenwood_heights"/>
<path d="M 2888.2232 3630.9358 2869.7011 3656.7732 2847.4694 3643.8577 2840.0595 3646.6264 2816.902 3630.0197 2740.0208 3725.0605 2669.625 3664.1557 2779.8508 3547.9069 2888.2232 3630.9358 Z" fill="none" stroke="#A9159C" opacity="0.5494505494505495" stroke-width="1" class="greenwood_heights"/>
<path d="M 2778.2299 3543.5246 2843.2974 3597.4943 2723.3456 3747.4372 2614.0489 3658.8429 2778.2299 3543.5246 Z" fill="none" stroke="#A9159C" opacity="0.5494505494505495" stroke-width="1" class="greenwood_heights"/>
<path d="M 2846.311 3637.3991 2841.4488 3645.9343 2817.828 3626.7903 2779.8527 3675.0022 2734.0024 3638.094 2818.7488 3528.9926 2865.7548 3566.123 2884.5122 3583.1893 2902.1149 3616.6326 2871.0905 3656.5424 2846.311 3637.3991 Z" fill="none" stroke="#A9159C" opacity="0.5494505494505495" stroke-width="1" class="greenwood_heights"/>
<path d="M 2819.9067 3533.1441 2914.1537 3602.3297 2870.6272 3655.8504 2847.2373 3638.3216 2840.291 3645.9343 2816.9018 3626.7904 2741.1788 3721.6002 2670.088 3665.0784 2721.0365 3602.1097 2749.0544 3623.101 2819.9067 3533.1441 Z" fill="none" stroke="#A9159C" opacity="0.5494505494505495" stroke-width="1" class="greenwood_heights"/>
<path d="M 2888.9182 3633.4731 2871.5537 3657.0037 2846.311 3637.3991 2841.6804 3645.4729 2817.3648 3625.4064 2864.3658 3568.4297 2873.1651 3573.7338 2884.2812 3587.5718 2890.7664 3600.7185 2896.5563 3607.8682 2899.1051 3620.093 2888.9182 3633.4731 Z" fill="none" stroke="#A9159C" opacity="0.5494505494505495" stroke-width="1" class="greenwood_heights"/>
<path d="M 2819.6805 3627.2516 2817.3649 3627.2517 2882.1918 3543.2869 2955.8314 3591.2506 2911.8453 3648.4634 2938.7103 3666.4514 2963.2614 3688.1304 2888.2234 3632.3198 2870.6271 3654.4663 2847.4687 3636.4763 2842.3751 3646.1649 2819.6805 3627.2516 Z" fill="none" stroke="#A9159C" opacity="0.5494505494505495" stroke-width="1" class="greenwood_heights"/>
<path d="M 2870.6501 3861.6336 2697.4088 3728.7495 2813.1949 3588.5007 2816.8994 3582.9647 2878.0348 3633.7051 2883.5937 3644.7766 2966.9676 3692.7433 2984.5914 3796.0908 2870.6501 3861.6336 Z" fill="none" stroke="#A9159C" opacity="0.5494505494505495" stroke-width="1" class="greenwood_heights"/>
<path d="M 2674.2514 3715.8289 2806.7097 3548.8287 2827.0861 3559.8988 2902.1144 3613.4033 2892.8547 3632.7806 2872.4793 3651.2367 2844.6898 3634.6312 2840.9859 3648.4717 2815.9756 3628.1744 2743.7263 3717.6786 2767.8111 3743.5163 2746.5044 3761.0491 2674.2514 3715.8289 Z" fill="none" stroke="#A9159C" opacity="0.5494505494505495" stroke-width="1" class="greenwood_heights"/>
<path d="M 2817.825 3572.8158 2831.7162 3548.8273 2878.9551 3583.8819 2901.1883 3614.3261 2944.7285 3652.1485 2929.9112 3669.6825 2889.1492 3629.0904 2878.9637 3655.8494 2839.1334 3649.3945 2787.2614 3606.0317 2817.825 3572.8158 Z" fill="none" stroke="#A9159C" opacity="0.5494505494505495" stroke-width="1" class="greenwood_heights"/>
<path d="M 2741.8736 3720.4468 2717.7897 3701.9909 2823.845 3567.7411 2968.8178 3681.6702 2962.3354 3689.5147 2890.076 3632.7809 2872.0166 3654.9275 2847.932 3637.8602 2841.4488 3645.7036 2817.3649 3626.329 2741.8736 3720.4468 Z" fill="none" stroke="#A9159C" opacity="0.5494505494505495" stroke-width="1" class="greenwood_heights"/>
<path d="M 2960.4821 3686.2855 2985.5176 3795.1678 2873.4289 3856.096 2678.8841 3704.7564 2803.9311 3547.9062 2960.4821 3686.2855 Z" fill="none" stroke="#A9159C" opacity="0.5494505494505495" stroke-width="1" class="greenwood_heights"/>
<path d="M 2838.1844 3557.9845 2887.3811 3586.8527 2906.8362 3618.2198 2888.3139 3637.5984 2874.4221 3655.1312 2849.4113 3639.4481 2835.5185 3653.2895 2816.9918 3629.301 2732.3407 3744.218 2700.846 3722.0699 2838.1844 3557.9845 Z" fill="none" stroke="#A9159C" opacity="0.5494505494505495" stroke-width="1" class="greenwood_heights"/>
<path d="M 2818.7542 3624.9449 2880.8029 3546.0548 3007.2443 3623.0702 2960.4833 3692.2833 2870.6274 3657.2344 2836.8177 3648.9334 2818.7542 3624.9449 Z" fill="none" stroke="#A9159C" opacity="0.5494505494505495" stroke-width="1" class="greenwood_heights"/>
<path d="M 2662.2141 3669.6911 2801.152 3532.2224 2850.2399 3551.5936 2874.322 3566.3527 2883.5889 3606.0246 2821.5281 3543.2924 2891.0001 3617.0955 2876.1852 3658.6178 2881.74 3635.55 2840.9852 3640.1675 2812.2706 3627.252 2739.0944 3724.1377 2730.7579 3709.3734 2662.2141 3669.6911 Z" fill="none" stroke="#A9159C" opacity="0.5494505494505495" stroke-width="1" class="greenwood_heights"/>
<path d="M 2857.3037 3522.2226 2884.2798 3539.3121 2932.8021 3575.0481 2878.1657 3651.6365 2845.7454 3641.4903 2819.8096 3632.2653 2721.6217 3746.6841 2678.5224 3708.7204 2797.0873 3565.709 2857.3037 3522.2226 Z" fill="none" stroke="#A9159C" opacity="0.5494505494505495" stroke-width="1" class="greenwood_heights"/>
<path d="M 2915.0793 3598.639 2888.2233 3631.8585 2868.7745 3654.0052 2865.0654 3616.1759 2840.0593 3644.781 2816.9018 3626.329 2741.8735 3721.3695 2672.4035 3666.9241 2816.8962 3523.9186 2915.0793 3598.639 Z" fill="none" stroke="#A9159C" opacity="0.5494505494505495" stroke-width="1" class="greenwood_heights"/>
<path d="M 2816.8968 3534.9894 3010.9636 3678.4307 2967.899 3716.7344 2977.643 3794.7082 2867.8705 3859.3267 2652.0227 3688.6057 2816.8968 3534.9894 Z" fill="none" stroke="#A9159C" opacity="0.5494505494505495" stroke-width="1" class="greenwood_heights"/>
<path d="M 2741.8735 3722.2923 2661.2876 3671.5364 2736.3202 3570.9716 2812.2667 3549.751 2818.749 3533.1442 2899.3357 3613.4037 2956.7728 3665.9866 2964.1861 3680.7484 2980.8686 3720.4226 2741.8735 3722.2923 Z" fill="none" stroke="#A9159C" opacity="0.5494505494505495" stroke-width="1" class="greenwood_heights"/>
<path d="M 2819.6755 3538.6796 2889.1445 3593.1069 2901.19 3626.3207 2867.8483 3654.928 2840.9858 3647.549 2819.6807 3630.0196 2750.2108 3709.3739 2727.0534 3689.9958 2838.1996 3550.672 2819.6755 3538.6796 Z" fill="none" stroke="#A9159C" opacity="0.5494505494505495" stroke-width="1" class="greenwood_heights"/>
<path d="M 2790.0416 3662.3148 2702.05 3587.5771 2790.0368 3477.7924 2913.2265 3595.8714 2859.5101 3637.3978 2811.3446 3632.788 2790.0416 3662.3148 Z" fill="none" stroke="#A9159C" opacity="0.5494505494505495" stroke-width="1" class="greenwood_heights"/>
<path d="M 2864.1341 3567.2765 2820.6069 3629.0968 2773.368 3594.9603 2815.9704 3531.2992 2864.1341 3567.2765 Z" fill="none" stroke="#A9159C" opacity="0.5494505494505495" stroke-width="1" class="greenwood_heights"/>
<path d="M 2742.7999 3721.3696 2695.5591 3688.1485 2816.8968 3535.912 2883.5868 3589.4171 2902.1152 3618.9393 2995.6843 3697.3504 3028.1246 3766.5496 3035.5441 3796.0777 2959.5967 3885.6151 2742.7999 3721.3696 Z" fill="none" stroke="#A9159C" opacity="0.5494505494505495" stroke-width="1" class="greenwood_heights"/>
<path d="M 2722.4194 3743.5153 2677.9571 3712.1382 2796.5223 3562.6681 2839.1293 3596.8027 2722.4194 3743.5153 Z" fill="none" stroke="#A9159C" opacity="0.5494505494505495" stroke-width="1" class="greenwood_heights"/>
<path d="M 2938.2527 3909.5555 2800.5775 3798.0581 2740.3619 3750.9951 2682.2463 3708.5639 2748.8229 3619.8716 2784.382 3578.5665 2786.6973 3573.1461 2793.5237 3556.9719 2805.4479 3549.706 2806.2462 3539.4875 2818.171 3547.9055 2835.7694 3564.8572 2842.3685 3565.3179 2855.5678 3577.6567 2852.3076 3573.952 2872.4704 3593.0869 2874.9014 3590.7801 2887.2913 3605.1948 2888.4514 3604.64 2898.9886 3614.7878 2913.9333 3629.3975 2914.0563 3632.4559 2929.0655 3643.5033 2945.9965 3657.9838 2947.9718 3659.4141 2955.493 3666.5801 2977.0327 3682.4924 2985.0308 3693.2006 3014.2226 3721.7238 3022.5597 3742.5586 3040.171 3778.5427 3042.0335 3811.764 3012.398 3850.5326 3000.8209 3865.3018 2982.7181 3876.321 2959.5583 3888.3239 2938.2527 3909.5555 Z" fill="none" stroke="#A9159C" opacity="0.5494505494505495" stroke-width="1" class="greenwood_heights"/>
<path d="M 2723.3455 3749.0521 2655.7277 3689.9902 2711.3109 3607.8757 2760.4012 3557.1329 2790.9654 3569.1265 2872.4754 3617.0978 2846.544 3654.0074 2774.2951 3693.6874 2740.0206 3731.5199 2723.3455 3749.0521 Z" fill="none" stroke="#A9159C" opacity="0.5494505494505495" stroke-width="1" class="greenwood_heights"/>
<path d="M 2980.8856 3795.1689 2866.9436 3856.0967 2776.1487 3780.4282 2652.0243 3675.2262 2804.8565 3529.4546 2906.7454 3612.48 2979.9313 3672.4406 2980.8856 3795.1689 Z" fill="none" stroke="#A9159C" opacity="0.5494505494505495" stroke-width="1" class="greenwood_heights"/>
<path d="M 2937.3663 3916.0762 2677.9575 3707.5245 2817.8227 3531.2991 3020.6918 3686.2712 3039.262 3838.5278 2946.6263 3888.3864 2947.5556 3903.1531 2937.3663 3916.0762 Z" fill="none" stroke="#A9159C" opacity="0.5494505494505495" stroke-width="1" class="greenwood_heights"/>
<path d="M 2792.8176 3563.5908 2882.6658 3631.8592 2869.7007 3653.0824 2850.2472 3633.708 2839.1327 3640.1677 2814.1232 3629.0972 2740.9472 3721.6002 2695.7909 3684.6883 2792.8176 3563.5908 Z" fill="none" stroke="#A9159C" opacity="0.5494505494505495" stroke-width="1" class="greenwood_heights"/>
<path d="M 2865.9628 3658.0995 2808.5324 3631.346 2829.8334 3590.7481 2853.9131 3571.3711 2888.1858 3599.9687 2903.0103 3634.105 2865.9628 3658.0995 Z" fill="none" stroke="#A9159C" opacity="0.5494505494505495" stroke-width="1" class="greenwood_heights"/>
<path d="M 2961.4092 3689.9763 2885.4448 3633.7042 2871.5534 3654.9276 2848.3951 3637.3989 2839.1334 3648.4718 2765.0321 3594.9603 2811.3396 3529.4543 2883.5855 3579.2682 2911.3792 3629.0872 2968.817 3677.9793 2961.4092 3689.9763 Z" fill="none" stroke="#A9159C" opacity="0.5494505494505495" stroke-width="1" class="greenwood_heights"/>
<path d="M 2841.912 3646.1649 2792.8188 3605.5703 2843.756 3543.7521 2893.7741 3582.4961 2941.944 3621.7007 2914.6247 3652.615 2888.6867 3633.7038 2872.0169 3657.6956 2850.2476 3637.86 2841.912 3646.1649 Z" fill="none" stroke="#A9159C" opacity="0.5494505494505495" stroke-width="1" class="greenwood_heights"/>
<path d="M 2725.6628 3716.7552 2681.4308 3712.3692 2812.2685 3585.6175 2859.3929 3623.0965 2727.7471 3716.7553 2680.3886 3712.7152 2725.6628 3716.7552 Z" fill="none" stroke="#A9159C" opacity="0.5494505494505495" stroke-width="1" class="greenwood_heights"/>
<path d="M 2816.8968 3535.912 2900.2626 3618.0169 2868.7745 3654.0052 2846.5427 3639.2444 2840.9856 3644.7809 2815.0493 3627.2518 2767.8109 3681.692 2728.9076 3648.474 2816.8968 3535.912 Z" fill="none" stroke="#A9159C" opacity="0.5494505494505495" stroke-width="1" class="greenwood_heights"/>
<path d="M 2977.1806 3797.9382 2860.4583 3856.0974 2577.9265 3646.6107 2745.583 3527.61 2965.1138 3687.2073 2977.1806 3797.9382 Z" fill="none" stroke="#A9159C" opacity="0.5494505494505495" stroke-width="1" class="greenwood_heights"/>
<path d="M 2810.4139 3538.6801 2892.8516 3609.714 2874.3319 3652.1592 2818.7546 3632.7876 2728.9043 3733.3651 2669.6227 3686.3008 2810.4139 3538.6801 Z" fill="none" stroke="#A9159C" opacity="0.5494505494505495" stroke-width="1" class="greenwood_heights"/>
<path d="M 2741.8735 3722.2923 2667.7723 3665.0782 2845.6004 3450.114 3012.3219 3558.9459 3016.0946 3815.4627 2741.8735 3722.2923 Z" fill="none" stroke="#A9159C" opacity="0.5494505494505495" stroke-width="1" class="greenwood_heights"/>
<path d="M 2871.0906 3657.4651 2847.4688 3637.8603 2841.2173 3646.3956 2818.0597 3628.1743 2742.1051 3722.7537 2716.8634 3701.7602 2841.2094 3548.3653 2886.1337 3588.2635 2900.9575 3619.6314 2871.0906 3657.4651 Z" fill="none" stroke="#A9159C" opacity="0.5494505494505495" stroke-width="1" class="greenwood_heights"/>
<path d="M 2746.9684 3723.2152 2721.4949 3703.3752 2840.0521 3552.517 2946.1188 3657.223 2932.6917 3678.9091 2874.7952 3653.5432 2840.5224 3643.8583 2818.7543 3627.7129 2746.9684 3723.2152 Z" fill="none" stroke="#A9159C" opacity="0.5494505494505495" stroke-width="1" class="greenwood_heights"/>
<path d="M 2774.2934 3508.2364 3024.419 3766.5506 3039.2615 3836.682 2933.6608 3919.7686 2591.8246 3624.4692 2774.2933 3503.6236 2774.2934 3508.2364 Z" fill="none" stroke="#A9159C" opacity="0.5494505494505495" stroke-width="1" class="greenwood_heights"/>
<path d="M 2816.9015 3621.7157 2795.5974 3605.1089 2850.2393 3545.1354 2882.6584 3571.8874 2875.2488 3570.9657 2893.775 3588.4932 2904.8933 3614.3256 2872.4794 3652.1594 2842.8376 3638.322 2816.9015 3621.7157 Z" fill="none" stroke="#A9159C" opacity="0.5494505494505495" stroke-width="1" class="greenwood_heights"/>
<path d="M 2821.5273 3530.3763 2890.9956 3582.9578 2915.0799 3601.8683 2888.6867 3633.7038 2871.5536 3656.3116 2847.9321 3639.2443 2840.9857 3646.165 2818.2913 3629.097 2810.4184 3634.6334 2767.3476 3599.5735 2821.5273 3530.3763 Z" fill="none" stroke="#A9159C" opacity="0.5494505494505495" stroke-width="1" class="greenwood_heights"/>
<path d="M 2872.2481 3654.6968 2872.9429 3655.6194 2848.8582 3637.8602 2842.6067 3647.0875 2766.8845 3590.3471 2793.7435 3556.2099 2890.539 3632.0889 2872.2481 3654.6968 Z" fill="none" stroke="#A9159C" opacity="0.5494505494505495" stroke-width="1" class="greenwood_heights"/>
<path d="M 2888.2165 3579.2676 2830.789 3533.1434 2818.7483 3521.1508 2916.9322 3601.4066 2791.8967 3753.6666 2691.8549 3674.3074 2815.9696 3516.5381 2888.2165 3579.2676 Z" fill="none" stroke="#A9159C" opacity="0.5494505494505495" stroke-width="1" class="greenwood_heights"/>
<path d="M 2843.5336 3598.0986 2889.0847 3632.0291 2871.0994 3654.1433 2815.9802 3627.4593 2841.2411 3596.9594 2843.5336 3598.0986 Z" fill="none" stroke="#A9159C" opacity="0.5494505494505495" stroke-width="1" class="greenwood_heights"/>
<path d="M 2885.9024 3590.1088 2872.9373 3606.0259 2896.5587 3625.3987 2871.5536 3656.6576 2848.1636 3638.0909 2841.6804 3645.7036 2816.4387 3627.7131 2742.7998 3722.523 2718.0212 3703.1443 2837.2735 3552.056 2885.9024 3590.1088 Z" fill="none" stroke="#A9159C" opacity="0.5494505494505495" stroke-width="1" class="greenwood_heights"/>
<path d="M 2747.4352 3533.1455 2889.1498 3633.7037 2872.4798 3655.8502 2845.6164 3639.2445 2840.9857 3646.6263 2816.9019 3629.097 2739.0945 3722.2922 2589.9724 3622.6235 2739.0999 3529.455 2747.4352 3533.1455 Z" fill="none" stroke="#A9159C" opacity="0.5494505494505495" stroke-width="1" class="greenwood_heights"/>
<path d="M 2723.8088 3746.7451 2652.0226 3689.5284 2720.5734 3601.879 2734.9296 3610.1834 2775.2201 3566.8203 2817.3592 3522.5347 2884.5119 3581.1134 2893.7767 3601.4101 2904.4312 3621.7069 2919.2539 3639.2354 2936.3924 3654.4567 2956.773 3666.9093 2974.8384 3679.8234 2990.1251 3691.8153 2998.0005 3698.7339 2979.9391 3706.5815 2966.5091 3714.4278 2977.6438 3797.9381 2893.809 3839.0201 2868.7963 3853.3278 2723.8088 3746.7451 Z" fill="none" stroke="#A9159C" opacity="0.5494505494505495" stroke-width="1" class="greenwood_heights"/>
<path d="M 2854.8685 3527.606 2983.6229 3613.388 2978.1066 3796.0923 2833.5933 3892.093 2679.8056 3757.3542 2854.8685 3527.606 Z" fill="none" stroke="#A9159C" opacity="0.5494505494505495" stroke-width="1" class="greenwood_heights"/>
<path d="M 2959.5459 3638.3053 2935.4687 3668.7588 2887.2972 3632.7813 2866.922 3654.0054 2841.9119 3644.7809 2815.9754 3623.5611 2865.06 3564.5085 2959.5459 3638.3053 Z" fill="none" stroke="#A9159C" opacity="0.5494505494505495" stroke-width="1" class="greenwood_heights"/>
<path d="M 2741.8735 3721.3695 2714.0845 3700.1452 2808.5635 3581.1199 2890.0757 3630.9356 2739.0948 3713.0647 2741.8735 3721.3695 Z" fill="none" stroke="#A9159C" opacity="0.5494505494505495" stroke-width="1" class="greenwood_heights"/>
<path d="M 2840.9856 3644.7809 2815.9755 3626.3291 2809.4922 3634.6335 2765.032 3600.4961 2830.7873 3508.2342 2980.8431 3608.7754 2935.4696 3673.3723 2890.0762 3634.6263 2869.701 3655.8505 2845.6162 3636.4764 2840.9856 3644.7809 Z" fill="none" stroke="#A9159C" opacity="0.5494505494505495" stroke-width="1" class="greenwood_heights"/>
<path d="M 2799.1989 3587.6543 2866.3304 3544.2823 2880.8219 3542.4918 2882.1292 3554.2796 2889.9436 3577.5071 2928.913 3607.7036 2875.7919 3677.3064 2860.0297 3525.9947 2799.1989 3587.6543 Z" fill="none" stroke="#A9159C" opacity="0.5494505494505495" stroke-width="1" class="greenwood_heights"/>
<path d="M 2728.9044 3730.5968 2668.6975 3676.1508 2678.8875 3666.9247 2772.4414 3543.294 2960.4815 3683.5174 2968.8417 3792.403 2867.869 3845.9449 2665.918 3681.6868 2728.9044 3730.5968 Z" fill="none" stroke="#A9159C" opacity="0.5494505494505495" stroke-width="1" class="greenwood_heights"/>
<path d="M 2885.9024 3590.1088 2878.7253 3598.6441 2900.4943 3618.9395 2871.322 3656.5423 2846.7742 3638.091 2841.912 3646.1649 2817.1333 3626.7904 2742.5683 3722.2923 2671.2458 3666.0012 2721.2681 3601.6484 2745.1179 3621.2556 2814.8129 3533.375 2838.1995 3549.5187 2864.3656 3567.2764 2885.9024 3590.1088 Z" fill="none" stroke="#A9159C" opacity="0.5494505494505495" stroke-width="1" class="greenwood_heights"/>
<path d="M 2715.7697 3713.8204 2841.0893 3552.0833 2966.4212 3693.1771 2976.2538 3796.305 2858.5502 3860.3798 2707.053 3713.8199 2833.4579 3555.3407 2715.7697 3713.8204 Z" fill="none" stroke="#A9159C" opacity="0.5494505494505495" stroke-width="1" class="greenwood_heights"/>
<path d="M 2910.4509 3616.1701 2877.1114 3657.695 2824.3119 3629.0966 2723.346 3737.9787 2660.3602 3681.6862 2769.6628 3511.0041 2827.0849 3540.5243 2867.8392 3570.9665 2884.5139 3596.7981 2910.4509 3616.1701 Z" fill="none" stroke="#A9159C" opacity="0.5494505494505495" stroke-width="1" class="greenwood_heights"/>
<path d="M 2968.8182 3683.5156 2959.5567 3690.8994 2891.9288 3635.5487 2872.4799 3656.7729 2848.3953 3640.1669 2842.838 3643.8581 2815.9757 3629.0971 2742.7999 3719.5241 2738.1684 3713.9874 2718.7163 3697.3773 2833.5688 3552.5175 2884.5132 3591.2623 2897.4839 3618.0173 2906.7488 3634.6239 2944.7304 3662.2981 2968.8182 3683.5156 Z" fill="none" stroke="#A9159C" opacity="0.5494505494505495" stroke-width="1" class="greenwood_heights"/>
<path d="M 2980.3805 3611.0821 2936.8585 3670.6039 2889.613 3633.7037 2870.1642 3656.3118 2847.4689 3638.3216 2840.5226 3646.6263 2817.365 3628.1744 2741.4103 3722.7537 2695.9067 3684.8037 2695.7947 3633.9399 2720.1103 3601.6483 2823.3794 3527.6085 2980.3805 3611.0821 Z" fill="none" stroke="#A9159C" opacity="0.5494505494505495" stroke-width="1" class="greenwood_heights"/>
<path d="M 2981.7693 3608.7752 2940.5636 3670.1419 2889.1498 3633.2424 2872.0167 3655.8502 2846.0796 3639.2444 2842.3752 3647.5489 2770.5893 3590.8084 2803.4659 3493.9362 2981.7693 3608.7752 Z" fill="none" stroke="#A9159C" opacity="0.5494505494505495" stroke-width="1" class="greenwood_heights"/>
<path d="M 2847.2373 3638.091 2841.2173 3646.1649 2817.1334 3627.2517 2744.0736 3719.9855 2742.1051 3722.0616 2670.088 3665.3091 2721.0366 3600.9564 2746.7388 3621.7169 2777.5358 3582.966 2818.6329 3528.1853 2962.6723 3639.3426 2938.0165 3671.0651 2889.9602 3633.1269 2870.9747 3656.5424 2847.2373 3638.091 Z" fill="none" stroke="#A9159C" opacity="0.5494505494505495" stroke-width="1" class="greenwood_heights"/>
<path d="M 2900.2635 3624.4755 2968.8174 3679.8247 2963.2616 3689.0532 2894.7076 3635.5483 2875.2584 3654.0045 2852.1004 3641.0893 2838.2068 3644.7812 2817.8282 3630.0197 2737.2417 3725.0605 2669.6237 3677.0736 2664.9925 3674.305 2809.4871 3524.8415 2883.5862 3584.804 2900.2635 3624.4755 Z" fill="none" stroke="#A9159C" opacity="0.5494505494505495" stroke-width="1" class="greenwood_heights"/>
<path d="M 2869.7011 3656.7732 2846.5426 3638.3217 2839.1334 3648.4718 2816.9019 3628.1744 2765.9583 3593.115 2800.2268 3557.1323 2822.4536 3533.144 2869.6917 3571.8889 2908.5997 3624.4743 2967.8913 3680.7477 2960.4834 3692.7446 2889.1499 3634.6264 2869.7011 3656.7732 Z" fill="none" stroke="#A9159C" opacity="0.5494505494505495" stroke-width="1" class="greenwood_heights"/>
<path d="M 2870.1641 3655.8504 2847.0057 3637.8603 2839.5965 3648.4718 2816.9018 3626.7904 2804.3982 3643.3991 2759.0116 3606.724 2818.9804 3530.8377 2866.2179 3566.3536 2886.3653 3588.2635 2900.726 3619.8621 2899.7998 3620.3236 2870.1641 3655.8504 Z" fill="none" stroke="#A9159C" opacity="0.5494505494505495" stroke-width="1" class="greenwood_heights"/>
<path d="M 2905.8209 3623.552 2924.3496 3646.616 2764.1057 3701.9921 2731.6853 3678.9233 2818.7512 3572.8158 2905.8209 3623.552 Z" fill="none" stroke="#A9159C" opacity="0.5494505494505495" stroke-width="1" class="greenwood_heights"/>
<path d="M 2889.1498 3633.7037 2869.7014 3659.5413 2847.4687 3636.4763 2841.9119 3644.7809 2816.9018 3627.2517 2720.5665 3747.2064 2677.9573 3709.37 2818.7493 3537.7571 2865.0607 3570.9668 2911.3802 3635.5459 2967.8913 3680.7477 2961.4086 3687.2081 2889.1498 3633.7037 Z" fill="none" stroke="#A9159C" opacity="0.5494505494505495" stroke-width="1" class="greenwood_heights"/>
<path d="M 2979.9173 3610.6209 3041.0587 3645.6665 3059.6161 3749.0073 2978.1072 3798.8608 2963.2627 3694.5895 2890.0763 3635.5489 2871.5535 3655.8503 2847.469 3639.2443 2903.9597 3564.5036 2979.9173 3610.6209 Z" fill="none" stroke="#A9159C" opacity="0.5494505494505495" stroke-width="1" class="greenwood_heights"/>
<path d="M 3026.3928 3644.515 2989.354 3693.8894 2961.5673 3706.8139 2885.6375 3641.3061 2866.2399 3655.306 2824.556 3630.8585 2813.4405 3620.7098 2787.9685 3601.335 2811.5861 3580.5749 2839.8327 3548.7432 2848.1672 3536.7489 3026.3928 3644.515 Z" fill="none" stroke="#A9159C" opacity="0.5494505494505495" stroke-width="1" class="greenwood_heights"/>
<path d="M 2778.9264 3674.3102 2708.5316 3618.4861 2784.481 3516.5393 2921.5636 3603.2512 2778.9264 3674.3102 Z" fill="none" stroke="#A9159C" opacity="0.5494505494505495" stroke-width="1" class="greenwood_heights"/>
<path d="M 2817.8281 3628.1743 2723.3457 3745.3609 2654.8019 3686.2992 2801.1516 3520.229 2884.5129 3588.4944 2903.0417 3620.7845 2867.8485 3656.7734 2817.8281 3628.1743 Z" fill="none" stroke="#A9159C" opacity="0.5494505494505495" stroke-width="1" class="greenwood_heights"/>
<path d="M 2576.54 3632.3089 2777.9979 3507.3138 2889.6065 3584.3419 2740.0198 3759.6647 2576.54 3632.3089 Z" fill="none" stroke="#A9159C" opacity="0.5494505494505495" stroke-width="1" class="greenwood_heights"/>
<path d="M 2888.2232 3630.9358 2843.301 3642.0127 2821.996 3624.9448 2782.6315 3672.4647 2738.168 3726.6753 2732.6097 3735.2107 2708.9886 3720.4454 2721.9582 3701.5297 2825.6971 3563.128 2830.7914 3568.6633 2902.5775 3612.9419 2874.7948 3650.3138 2888.2232 3630.9358 Z" fill="none" stroke="#A9159C" opacity="0.5494505494505495" stroke-width="1" class="greenwood_heights"/>
<path d="M 2843.7558 3540.5231 2985.485 3654.9079 2962.3353 3689.0533 2887.2966 3628.1679 2867.8484 3655.8507 2846.5423 3634.631 2836.3544 3645.704 2816.9015 3620.7931 2737.2418 3723.2149 2718.7139 3746.2835 2648.3177 3686.2984 2843.7558 3540.5231 Z" fill="none" stroke="#A9159C" opacity="0.5494505494505495" stroke-width="1" class="greenwood_heights"/>
<path d="M 2745.3221 3728.1649 2697.726 3684.0564 2818.2782 3529.0692 2906.6173 3610.1014 2876.0567 3652.5484 2855.0829 3631.2136 2843.9689 3643.2094 2823.5901 3625.68 2745.3221 3728.1649 Z" fill="none" stroke="#A9159C" opacity="0.5494505494505495" stroke-width="1" class="greenwood_heights"/>
<path d="M 2817.8279 3625.4063 2865.9863 3565.4311 2914.1533 3599.5618 2902.1148 3616.1713 2873.4061 3655.8501 2848.395 3636.4762 2840.0594 3645.7037 2817.8279 3625.4063 Z" fill="none" stroke="#A9159C" opacity="0.5494505494505495" stroke-width="1" class="greenwood_heights"/>
<path d="M 2980.1075 3689.557 2882.219 3613.7059 2912.7771 3564.8022 2936.5517 3582.5355 3010.6659 3651.7185 2980.1075 3689.557 Z" fill="none" stroke="#A9159C" opacity="0.5494505494505495" stroke-width="1" class="greenwood_heights"/>
<path d="M 2962.5565 3639.458 2937.3217 3670.8345 2870.1642 3656.3118 2841.2173 3646.1649 2817.8281 3627.4823 2868.07 3563.355 2962.5565 3639.458 Z" fill="none" stroke="#A9159C" opacity="0.5494505494505495" stroke-width="1" class="greenwood_heights"/>
<path d="M 3033.4214 3661.0832 2967.6666 3712.7721 2809.1027 3625.3911 2756.3072 3590.3314 2819.2853 3517.4448 2849.8438 3472.2381 2951.723 3517.428 2991.5525 3540.4836 2995.2628 3563.5475 3033.4214 3661.0832 Z" fill="none" stroke="#A9159C" opacity="0.5494505494505495" stroke-width="1" class="greenwood_heights"/>
<path d="M 2841.912 3647.0876 2815.9757 3630.4811 2742.7999 3721.3696 2673.3298 3666.9241 2721.4996 3603.7244 2794.2067 3559.439 2893.3182 3635.0872 2872.48 3657.2342 2847.9322 3640.6283 2841.912 3647.0876 Z" fill="none" stroke="#A9159C" opacity="0.5494505494505495" stroke-width="1" class="greenwood_heights"/>
<path d="M 2840.5226 3646.165 2818.2912 3628.1743 2725.1984 3746.2838 2677.9574 3708.9086 2818.2858 3531.299 2903.041 3615.7098 2900.7255 3616.6328 2872.0167 3656.3116 2848.8582 3637.3988 2840.5226 3646.165 Z" fill="none" stroke="#A9159C" opacity="0.5494505494505495" stroke-width="1" class="greenwood_heights"/>
<path d="M 2816.8989 3574.6611 2840.0553 3594.0347 2727.0512 3744.4383 2697.4091 3724.1357 2816.8989 3574.6611 Z" fill="none" stroke="#A9159C" opacity="0.5494505494505495" stroke-width="1" class="greenwood_heights"/>
<path d="M 2865.9866 3568.1989 2886.3652 3587.5715 2903.9676 3618.0163 2910.4532 3630.9327 2945.6563 3660.4526 2938.2478 3669.681 2889.1498 3633.7037 2871.5535 3655.8503 2847.4688 3637.399 2841.912 3646.6262 2793.7451 3608.7995 2838.1994 3548.8268 2865.9866 3568.1989 Z" fill="none" stroke="#A9159C" opacity="0.5494505494505495" stroke-width="1" class="greenwood_heights"/>
<path d="M 2934.5411 3661.3773 2743.263 3723.2151 2699.7277 3685.3806 2781.7036 3578.3528 2816.4339 3539.1411 2823.3805 3545.1375 2866.4504 3575.5797 2871.0832 3591.2639 2894.7066 3628.6283 2928.0554 3651.2288 2934.5411 3661.3773 Z" fill="none" stroke="#A9159C" opacity="0.5494505494505495" stroke-width="1" class="greenwood_heights"/>
<path d="M 2816.9013 3618.0251 2798.376 3602.3408 2838.1999 3555.285 3002.1755 3725.0313 2960.507 3807.1701 2795.5988 3647.5515 2812.2701 3617.1027 2816.9013 3618.0251 Z" fill="none" stroke="#A9159C" opacity="0.5494505494505495" stroke-width="1" class="greenwood_heights"/>
<path d="M 2964.1885 3691.8211 2888.2236 3633.7038 2875.2589 3658.6179 2848.3949 3635.5535 2847.4697 3647.5485 2817.828 3626.329 2796.5254 3656.7784 2698.3452 3586.6542 2793.7432 3545.1388 2984.5592 3656.7535 2964.1885 3691.8211 Z" fill="none" stroke="#A9159C" opacity="0.5494505494505495" stroke-width="1" class="greenwood_heights"/>
<path d="M 2866.9124 3564.739 2743.0314 3722.523 2659.6682 3657.465 2771.9781 3508.2364 2866.9124 3564.739 Z" fill="none" stroke="#A9159C" opacity="0.5494505494505495" stroke-width="1" class="greenwood_heights"/>
<path d="M 2840.0556 3596.8026 2722.4195 3741.6698 2681.6627 3708.4476 2798.3747 3564.5132 2840.0556 3596.8026 Z" fill="none" stroke="#A9159C" opacity="0.5494505494505495" stroke-width="1" class="greenwood_heights"/>
<path d="M 2848.1636 3639.0136 2841.6804 3645.9342 2817.5965 3627.4823 2742.5683 3721.3696 2672.1721 3665.7706 2719.1841 3601.879 2741.1818 3606.0317 2797.4468 3514.9244 2914.8483 3602.099 2871.3218 3654.6969 2848.1636 3639.0136 Z" fill="none" stroke="#A9159C" opacity="0.5494505494505495" stroke-width="1" class="greenwood_heights"/>
<path d="M 2869.7009 3655.3891 2847.469 3639.7056 2839.5962 3645.2424 2818.2912 3627.2516 2801.6193 3642.0152 2781.7044 3622.6396 2838.6627 3550.672 2884.0497 3587.5718 2901.6522 3619.4007 2869.7009 3655.3891 Z" fill="none" stroke="#A9159C" opacity="0.5494505494505495" stroke-width="1" class="greenwood_heights"/>
<path d="M 2707.123 3734.9594 2844.2089 3565.1831 3046.0049 3729.8739 2933.022 3907.0884 2707.123 3734.9594 Z" fill="none" stroke="#A9159C" opacity="0.5494505494505495" stroke-width="1" class="greenwood_heights"/></svg>