<?xml version="1.0"?><svg xmlns="http://www.w3.org/2000/svg" version="1.2" baseProfile="tiny" width="6000" height="5918" viewBox="0 0 6000 5918" stroke-linecap="round" stroke-linejoin="round"><path d="M 1647.2585 4236.6706 1689.9448 4191.4815 1714.0261 4205.3569 1746.4805 4190.6209 1752.9522 4205.3993 1744.5731 4240.4737 1712.1201 4252.4406 1710.2437 4272.7507 1703.7317 4293.9794 1690.752 4296.7347 1647.2585 4236.6706 Z" fill="none" stroke="#FBC20F" opacity="0.6" stroke-width="1" class="grymes_hill"/>
<path d="M 1723.3492 4155.5142 1745.6144 4134.3055 1783.6684 4078.9578 1847.7084 3977.4859 1912.6121 3930.4744 1924.6563 3931.4082 1925.5444 3974.7892 1861.4961 4093.8052 1846.6096 4154.7188 1799.1439 4351.3289 1712.0368 4327.2286 1650.0347 4240.3669 1723.3492 4155.5142 Z" fill="none" stroke="#FBC20F" opacity="0.6" stroke-width="1" class="grymes_hill"/>
<path d="M 1795.794 4331.2406 1704.8251 4297.6305 1672.4283 4258.8151 1663.1812 4240.3389 1688.2365 4213.5935 1709.5853 4184.9977 1747.6146 4156.4204 1774.5382 4111.2142 1813.5273 4044.7906 1846.8897 4041.9353 1863.5457 4066.8746 1846.7965 4137.9394 1839.3292 4192.4003 1824.4526 4240.394 1816.0647 4286.5498 1795.794 4331.2406 Z" fill="none" stroke="#FBC20F" opacity="0.6" stroke-width="1" class="grymes_hill"/>
<path d="M 1798.2301 4338.4009 1786.1818 4336.5418 1713.8999 4318.9206 1682.4109 4295.8019 1744.5781 4235.8574 1821.4977 4244.2466 1816.8495 4258.0911 1822.3868 4282.1022 1802.8808 4322.7087 1793.5964 4337.4728 1798.2301 4338.4009 Z" fill="none" stroke="#FBC20F" opacity="0.6" stroke-width="1" class="grymes_hill"/>
<path d="M 1645.021 4239.9234 1800.9308 4044.3837 1863.736 4069.369 1787.0074 4333.2574 1703.6079 4311.0072 1645.021 4239.9234 Z" fill="none" stroke="#FBC20F" opacity="0.6" stroke-width="1" class="grymes_hill"/>
<path d="M 1648.181 4240.3647 1753.964 4126.0061 1806.7869 4126.9843 1807.665 4174.9903 1782.6064 4209.1235 1752.0284 4202.6287 1750.1371 4237.7099 1713.9697 4256.1357 1710.2478 4269.0576 1705.5907 4289.365 1692.6047 4297.6601 1648.181 4240.3647 Z" fill="none" stroke="#FBC20F" opacity="0.6" stroke-width="1" class="grymes_hill"/>
<path d="M 1853.1442 4105.7978 1947.6459 4132.6555 1908.4736 4407.7615 1799.1108 4383.6474 1775.1262 4271.8976 1853.1442 4105.7978 Z" fill="none" stroke="#FBC20F" opacity="0.6" stroke-width="1" class="grymes_hill"/>
<path d="M 1647.2553 4239.4404 1803.1683 4040.2082 1795.4521 4335.628 1693.303 4294.891 1647.2553 4239.4404 Z" fill="none" stroke="#FBC20F" opacity="0.6" stroke-width="1" class="grymes_hill"/>
<path d="M 1647.2585 4236.6706 1688.0901 4192.4026 1724.216 4209.9843 1746.4864 4185.0816 1781.6959 4193.4278 1780.747 4214.661 1751.9414 4283.8759 1693.5369 4293.0446 1647.2585 4236.6706 Z" fill="none" stroke="#FBC20F" opacity="0.6" stroke-width="1" class="grymes_hill"/>
<path d="M 1663.9342 4243.153 1815.2045 4050.3742 1874.4969 4065.2013 1842.0074 4122.4035 1825.2344 4214.7063 1794.5328 4328.2402 1721.3255 4309.6955 1663.9342 4243.153 Z" fill="none" stroke="#FBC20F" opacity="0.6" stroke-width="1" class="grymes_hill"/>
<path d="M 1805.9463 4042.0572 1857.799 4083.6474 1794.5195 4341.1672 1709.2746 4310.6054 1649.1057 4242.2123 1805.9463 4042.0572 Z" fill="none" stroke="#FBC20F" opacity="0.6" stroke-width="1" class="grymes_hill"/>
<path d="M 1741.8315 4204.4641 1852.9792 4036.6807 1906.3538 4062.4615 1835.8239 4167.0558 1808.8292 4169.3369 1741.8315 4204.4641 Z" fill="none" stroke="#FBC20F" opacity="0.6" stroke-width="1" class="grymes_hill"/></svg>