<?xml version="1.0"?><svg xmlns="http://www.w3.org/2000/svg" version="1.2" baseProfile="tiny" width="6000" height="5918" viewBox="0 0 6000 5918" stroke-linecap="round" stroke-linejoin="round"><path d="M 3188.5888 1371.595 3189.3345 1368.1665 3266.4073 1248.0319 3330.1974 1281.1321 3237.3585 1447.3564 3188.5888 1371.595 Z" fill="none" stroke="#12852D" opacity="0.2976190476190476" stroke-width="1" class="hamilton_heights"/>
<path d="M 3190.0931 1379.4274 3267.5975 1249.702 3303.0009 1280.1921 3324.2248 1289.3454 3345.5423 1303.6867 3333.0826 1326.705 3305.0193 1384.0487 3265.916 1476.0467 3201.1872 1391.3888 3190.0931 1379.4274 Z" fill="none" stroke="#12852D" opacity="0.2976190476190476" stroke-width="1" class="hamilton_heights"/>
<path d="M 3372.9423 1206.2909 3438.5491 1222.8123 3434.8647 1238.4608 3432.1053 1255.9496 3410.896 1315.7904 3342.5952 1436.4186 3279.7956 1508.2602 3164.2612 1477.0157 3179.942 1409.8086 3237.1793 1299.3257 3301.8108 1218.2983 3319.3305 1160.3088 3352.6016 1181.4554 3372.9423 1206.2909 Z" fill="none" stroke="#12852D" opacity="0.2976190476190476" stroke-width="1" class="hamilton_heights"/>
<path d="M 3396.0348 1199.8335 3378.0588 1260.5882 3358.6781 1295.1153 3346.6921 1336.5421 3338.3725 1330.5642 3325.8996 1332.4126 3331.9169 1351.2783 3306.525 1383.51 3281.5677 1368.7962 3270.9519 1388.5925 3209.0246 1355.026 3311.4727 1151.1107 3396.0348 1199.8335 Z" fill="none" stroke="#12852D" opacity="0.2976190476190476" stroke-width="1" class="hamilton_heights"/>
<path d="M 3312.0685 1382.1261 3227.0292 1326.9435 3311.9346 1151.1104 3418.2076 1199.8184 3312.0685 1382.1261 Z" fill="none" stroke="#12852D" opacity="0.2976190476190476" stroke-width="1" class="hamilton_heights"/>
<path d="M 3239.1017 1447.5228 3207.6672 1416.2397 3193.7918 1384.9487 3294.4176 1214.6211 3309.6269 1154.3327 3370.1588 1187.8864 3338.8104 1290.9857 3239.1017 1447.5228 Z" fill="none" stroke="#12852D" opacity="0.2976190476190476" stroke-width="1" class="hamilton_heights"/>
<path d="M 3409.4362 1207.6471 3360.2965 1297.4153 3364.2249 1299.9439 3353.3888 1332.8561 3327.3203 1390.6317 3326.8616 1396.155 3230.9647 1344.2 3215.0219 1336.614 3219.4059 1326.2569 3255.6431 1269.4034 3288.1846 1220.3767 3308.4692 1149.2719 3312.6269 1150.1898 3320.9441 1155.0163 3332.9592 1163.9819 3409.4362 1207.6471 Z" fill="none" stroke="#12852D" opacity="0.2976190476190476" stroke-width="1" class="hamilton_heights"/>
<path d="M 3378.0137 1191.1024 3408.5139 1209.9486 3308.8431 1397.3162 3216.8688 1334.312 3317.4802 1155.7085 3378.0137 1191.1024 Z" fill="none" stroke="#12852D" opacity="0.2976190476190476" stroke-width="1" class="hamilton_heights"/>
<path d="M 3359.0662 1177.7701 3396.9568 1197.0719 3441.3195 1220.9696 3430.2614 1261.4732 3397.0234 1296.471 3372.1072 1344.3499 3355.5027 1388.5434 3324.9969 1368.3112 3297.2708 1359.1225 3260.3031 1346.2561 3235.3442 1325.0986 3323.9519 1163.9872 3359.0662 1177.7701 Z" fill="none" stroke="#12852D" opacity="0.2976190476190476" stroke-width="1" class="hamilton_heights"/>
<path d="M 3293.6479 1489.8404 3251.1246 1465.928 3191.9392 1374.8241 3299.9484 1192.5303 3382.2075 1246.7799 3293.6479 1489.8404 Z" fill="none" stroke="#12852D" opacity="0.2976190476190476" stroke-width="1" class="hamilton_heights"/>
<path d="M 3315.3997 1152.4888 3408.2817 1208.1081 3282.5056 1394.1092 3203.9393 1348.1249 3315.3997 1152.4888 Z" fill="none" stroke="#12852D" opacity="0.2976190476190476" stroke-width="1" class="hamilton_heights"/>
<path d="M 3394.2619 1312.1199 3267.6403 1243.1665 3316.5505 1145.5861 3443.1725 1228.331 3394.2619 1312.1199 Z" fill="none" stroke="#12852D" opacity="0.2976190476190476" stroke-width="1" class="hamilton_heights"/>
<path d="M 3302.3672 1384.2028 3289.4246 1373.6244 3249.2189 1354.0858 3221.4909 1338.6819 3213.8646 1331.7822 3279.1811 1228.4346 3368.1381 1278.5421 3348.5408 1337.6915 3322.6607 1324.1306 3290.8118 1375.6947 3302.3672 1384.2028 Z" fill="none" stroke="#12852D" opacity="0.2976190476190476" stroke-width="1" class="hamilton_heights"/>
<path d="M 3311.4879 1177.3387 3388.6572 1220.0856 3375.7538 1267.9527 3357.291 1293.2753 3279.6553 1250.9831 3311.4879 1177.3387 Z" fill="none" stroke="#12852D" opacity="0.2976190476190476" stroke-width="1" class="hamilton_heights"/>
<path d="M 3212.9418 1334.3139 3213.1723 1333.1632 3285.864 1200.5909 3368.3472 1244.2579 3293.8156 1376.8437 3212.9418 1334.3139 Z" fill="none" stroke="#12852D" opacity="0.2976190476190476" stroke-width="1" class="hamilton_heights"/>
<path d="M 3302.2324 1147.4349 3407.5881 1207.1882 3344.3818 1336.0833 3316.7073 1413.8809 3196.5476 1349.0488 3302.2324 1147.4349 Z" fill="none" stroke="#12852D" opacity="0.2976190476190476" stroke-width="1" class="hamilton_heights"/>
<path d="M 3396.9599 1201.6735 3279.5022 1393.8808 3203.7099 1351.5768 3308.2396 1151.5727 3396.9599 1201.6735 Z" fill="none" stroke="#12852D" opacity="0.2976190476190476" stroke-width="1" class="hamilton_heights"/>
<path d="M 3248.2709 1307.1437 3278.7212 1232.1163 3334.6418 1273.0405 3294.254 1334.732 3248.2709 1307.1437 Z" fill="none" stroke="#12852D" opacity="0.2976190476190476" stroke-width="1" class="hamilton_heights"/>
<path d="M 3345.2051 1172.257 3292.2989 1143.0693 3338.2879 1191.3574 3367.4008 1209.0554 3329.7934 1276.9551 3324.95 1289.1533 3257.0675 1343.2663 3215.9419 1328.0995 3244.5599 1277.4625 3270.1832 1247.3067 3284.2624 1228.2018 3294.1824 1207.0286 3304.0984 1179.6437 3305.9385 1166.2984 3292.7624 1145.8298 3345.2051 1172.257 Z" fill="none" stroke="#12852D" opacity="0.2976190476190476" stroke-width="1" class="hamilton_heights"/>
<path d="M 3369.77 1302.0113 3330.951 1281.3263 3378.0146 1192.4828 3414.9849 1215.4661 3369.77 1302.0113 Z" fill="none" stroke="#12852D" opacity="0.2976190476190476" stroke-width="1" class="hamilton_heights"/>
<path d="M 3312.8589 1152.0302 3407.3581 1208.5689 3338.1859 1403.7424 3215.4852 1339.3751 3312.8589 1152.0302 Z" fill="none" stroke="#12852D" opacity="0.2976190476190476" stroke-width="1" class="hamilton_heights"/>
<path d="M 3220.7981 1339.1425 3309.8895 1209.0904 3356.1002 1235.9825 3280.6453 1371.7883 3220.7981 1339.1425 Z" fill="none" stroke="#12852D" opacity="0.2976190476190476" stroke-width="1" class="hamilton_heights"/>
<path d="M 3323.0256 1159.8465 3402.505 1204.4307 3298.6703 1383.0543 3225.6495 1339.8305 3315.1698 1154.3295 3323.0256 1159.8465 Z" fill="none" stroke="#12852D" opacity="0.2976190476190476" stroke-width="1" class="hamilton_heights"/>
<path d="M 3345.7681 1336.5426 3256.1139 1286.4304 3309.6402 1177.3398 3399.2863 1226.5209 3360.2968 1297.8755 3345.7681 1336.5426 Z" fill="none" stroke="#12852D" opacity="0.2976190476190476" stroke-width="1" class="hamilton_heights"/>
<path d="M 3395.3416 1199.3738 3403.66 1204.66 3408.0534 1212.0196 3399.5182 1227.9012 3385.2152 1254.371 3377.3711 1268.6419 3371.3718 1278.3099 3358.2178 1297.8768 3354.2992 1310.9952 3348.9969 1328.0265 3345.5399 1341.145 3342.5438 1352.4225 3332.8529 1371.068 3331.7035 1380.5036 3325.0119 1393.6247 3303.0595 1383.0518 3293.1221 1375.9236 3279.952 1371.3284 3267.2423 1363.5112 3257.5376 1358.9139 3244.1357 1351.7872 3234.6626 1347.88 3229.347 1342.8201 3224.9573 1341.4416 3224.0316 1337.9904 3236.0392 1329.0101 3242.2682 1313.3596 3251.2673 1294.4864 3264.8886 1281.1335 3273.8913 1270.3141 3281.044 1256.0443 3289.5849 1246.3758 3299.5075 1229.5738 3304.118 1213.9254 3308.4973 1198.0473 3311.725 1187.922 3308.4876 1181.2517 3307.3279 1172.7397 3308.016 1164.4567 3310.3212 1156.8631 3315.4004 1153.6392 3321.8705 1159.3871 3337.5815 1169.0406 3350.5179 1173.4041 3379.1694 1192.4821 3395.3416 1199.3738 Z" fill="none" stroke="#12852D" opacity="0.2976190476190476" stroke-width="1" class="hamilton_heights"/>
<path d="M 3439.4717 1220.9709 3339.7977 1394.9966 3255.6864 1352.7017 3349.8237 1171.3338 3439.4717 1220.9709 Z" fill="none" stroke="#12852D" opacity="0.2976190476190476" stroke-width="1" class="hamilton_heights"/>
<path d="M 3281.5054 1255.1237 3326.5615 1280.1784 3321.949 1292.3764 3291.2602 1351.3019 3279.1438 1372.0192 3269.1046 1390.0893 3200.2448 1351.6934 3237.0602 1292.1926 3250.9076 1268.9456 3263.0254 1252.1425 3272.034 1252.8279 3281.5054 1255.1237 Z" fill="none" stroke="#12852D" opacity="0.2976190476190476" stroke-width="1" class="hamilton_heights"/>
<path d="M 3318.8644 1153.177 3316.0906 1149.0374 3318.1607 1134.5421 3321.6194 1125.1075 3326.2375 1123.7244 3330.1664 1128.3233 3339.1769 1134.0694 3351.6521 1140.2735 3359.9694 1145.0996 3374.7554 1152.6824 3387.9254 1161.1863 3388.3936 1170.6189 3388.1655 1174.9905 3379.3984 1189.4909 3368.308 1183.056 3350.5186 1174.5544 3332.2657 1162.8319 3318.8644 1153.177 Z" fill="none" stroke="#12852D" opacity="0.2976190476190476" stroke-width="1" class="hamilton_heights"/>
<path d="M 3218.7168 1334.3111 3311.9389 1158.4726 3350.7527 1179.6159 3403.4338 1211.7927 3319.4717 1400.5318 3218.7168 1334.3111 Z" fill="none" stroke="#12852D" opacity="0.2976190476190476" stroke-width="1" class="hamilton_heights"/>
<path d="M 3297.6787 1263.3981 3378.0887 1306.6081 3357.3202 1339.757 3280.1439 1299.7635 3297.6787 1263.3981 Z" fill="none" stroke="#12852D" opacity="0.2976190476190476" stroke-width="1" class="hamilton_heights"/>
<path d="M 3311.0102 1150.1907 3342.4353 1175.0196 3250.1437 1355.466 3215.0213 1335.2333 3311.0102 1150.1907 Z" fill="none" stroke="#12852D" opacity="0.2976190476190476" stroke-width="1" class="hamilton_heights"/>
<path d="M 3314.7055 1150.1885 3412.6284 1147.3656 3343.4686 1353.5725 3338.8485 1353.5753 3228.8844 1341.6698 3314.7055 1150.1885 Z" fill="none" stroke="#12852D" opacity="0.2976190476190476" stroke-width="1" class="hamilton_heights"/>
<path d="M 3218.4867 1336.1521 3304.3278 1176.8827 3399.2856 1225.6005 3304.9078 1383.2808 3218.4867 1336.1521 Z" fill="none" stroke="#12852D" opacity="0.2976190476190476" stroke-width="1" class="hamilton_heights"/>
<path d="M 3225.1862 1337.0693 3287.9709 1251.4387 3329.5626 1277.1853 3279.7173 1364.6551 3225.1862 1337.0693 Z" fill="none" stroke="#12852D" opacity="0.2976190476190476" stroke-width="1" class="hamilton_heights"/>
<path d="M 3274.2372 1483.4069 3193.7931 1387.7102 3322.1004 1157.5464 3388.6457 1202.5993 3360.9848 1290.0516 3274.2372 1483.4069 Z" fill="none" stroke="#12852D" opacity="0.2976190476190476" stroke-width="1" class="hamilton_heights"/>
<path d="M 3309.1727 1167.677 3387.7315 1217.3252 3309.2921 1374.7638 3240.0466 1488.9483 3162.4001 1446.6377 3155.9276 1437.4349 3309.1727 1167.677 Z" fill="none" stroke="#12852D" opacity="0.2976190476190476" stroke-width="1" class="hamilton_heights"/>
<path d="M 3223.1085 1339.8317 3314.9378 1152.4891 3408.3968 1207.5328 3344.8438 1335.9679 3282.9541 1369.4858 3223.1085 1339.8317 Z" fill="none" stroke="#12852D" opacity="0.2976190476190476" stroke-width="1" class="hamilton_heights"/>
<path d="M 3221.0286 1337.9918 3291.1961 1236.251 3309.1841 1187.4634 3354.9307 1212.7446 3387.0476 1230.9006 3384.5218 1253.6812 3359.1409 1296.4956 3345.5385 1338.8439 3325.2408 1389.9426 3313.9245 1395.7024 3294.5204 1397.7846 3279.0393 1392.2701 3269.5649 1386.9824 3221.0286 1337.9918 Z" fill="none" stroke="#12852D" opacity="0.2976190476190476" stroke-width="1" class="hamilton_heights"/>
<path d="M 3441.0911 1224.6511 3390.1059 1314.884 3341.4204 1404.2007 3211.3245 1333.6243 3220.0937 1315.4415 3202.0708 1303.9447 3222.8344 1251.0123 3234.841 1242.263 3253.783 1245.9348 3271.783 1215.5539 3303.3873 1147.6643 3441.0911 1224.6511 Z" fill="none" stroke="#12852D" opacity="0.2976190476190476" stroke-width="1" class="hamilton_heights"/>
<path d="M 3218.7168 1334.3111 3297.1758 1190.6913 3311.0331 1189.7631 3330.443 1204.4766 3391.4393 1235.7296 3364.6835 1294.6513 3336.9859 1329.6446 3300.0564 1383.0535 3261.2348 1360.9831 3229.8102 1345.3512 3218.7168 1334.3111 Z" fill="none" stroke="#12852D" opacity="0.2976190476190476" stroke-width="1" class="hamilton_heights"/>
<path d="M 3359.9773 1157.5233 3362.7418 1146.4783 3397.8659 1174.984 3350.8424 1324.1135 3311.0741 1260.6293 3359.9773 1157.5233 Z" fill="none" stroke="#12852D" opacity="0.2976190476190476" stroke-width="1" class="hamilton_heights"/>
<path d="M 3275.0977 1365.5781 3221.4904 1337.5314 3306.1833 1190.4561 3335.2908 1200.3323 3386.3554 1232.0515 3431.4106 1253.4191 3453.602 1277.103 3388.7714 1392.8944 3372.3891 1423.5123 3326.6299 1395.0045 3275.0977 1365.5781 Z" fill="none" stroke="#12852D" opacity="0.2976190476190476" stroke-width="1" class="hamilton_heights"/>
<path d="M 3242.7357 1324.1744 3210.3852 1301.1796 3328.5243 1085.7638 3341.4586 1088.5166 3453.2783 1150.0976 3448.7172 1230.1677 3399.8083 1315.7979 3360.1183 1381.1765 3237.6521 1320.9554 3256.5759 1286.4301 3242.7357 1324.1744 Z" fill="none" stroke="#12852D" opacity="0.2976190476190476" stroke-width="1" class="hamilton_heights"/>
<path d="M 3331.6459 1284.5473 3300.4513 1264.7771 3334.5939 1193.6604 3359.2845 1157.7538 3386.0855 1172.9212 3394.1872 1200.0648 3377.366 1260.8187 3357.9855 1295.806 3331.6459 1284.5473 Z" fill="none" stroke="#12852D" opacity="0.2976190476190476" stroke-width="1" class="hamilton_heights"/>
<path d="M 3311.0102 1150.1907 3316.5569 1156.6294 3437.6272 1225.574 3427.4728 1237.5457 3288.5681 1495.3668 3184.0858 1377.1289 3311.0102 1150.1907 Z" fill="none" stroke="#12852D" opacity="0.2976190476190476" stroke-width="1" class="hamilton_heights"/>
<path d="M 3222.8768 1338.4511 3313.5509 1150.4193 3408.7428 1206.9574 3359.6032 1296.9555 3325.9371 1395.4652 3222.8768 1338.4511 Z" fill="none" stroke="#12852D" opacity="0.2976190476190476" stroke-width="1" class="hamilton_heights"/>
<path d="M 3303.6864 1267.0762 3338.8082 1287.3041 3350.8224 1291.8988 3299.5954 1384.8947 3304.2188 1390.4151 3308.3789 1393.6345 3329.1441 1349.8993 3284.8433 1444.2768 3270.0721 1471.4415 3239.5748 1469.6162 3268.6891 1477.4261 3230.3258 1453.9711 3214.6035 1428.2033 3195.1857 1401.9774 3179.9325 1388.1766 3209.4738 1327.8724 3237.6275 1271.7135 3251.4756 1250.5378 3263.9439 1241.7879 3285.1986 1250.5198 3303.6864 1267.0762 Z" fill="none" stroke="#12852D" opacity="0.2976190476190476" stroke-width="1" class="hamilton_heights"/>
<path d="M 3224.2624 1337.53 3223.1076 1337.9908 3271.5502 1212.1028 3377.5964 1259.8982 3326.6279 1391.7828 3224.2624 1337.53 Z" fill="none" stroke="#12852D" opacity="0.2976190476190476" stroke-width="1" class="hamilton_heights"/>
<path d="M 3274.5718 1247.3044 3304.1074 1195.2889 3361.4078 1228.3862 3294.9716 1378.4539 3219.1795 1335.6916 3274.5718 1247.3044 Z" fill="none" stroke="#12852D" opacity="0.2976190476190476" stroke-width="1" class="hamilton_heights"/>
<path d="M 3379.3986 1189.721 3362.8356 1294.6525 3275.9604 1252.3656 3305.4689 1152.9547 3379.3986 1189.721 Z" fill="none" stroke="#12852D" opacity="0.2976190476190476" stroke-width="1" class="hamilton_heights"/>
<path d="M 3275.0977 1365.5781 3255.6844 1349.0199 3237.2019 1344.427 3227.031 1330.6253 3332.2664 1163.9823 3440.4041 1232.9347 3376.7231 1337.9037 3337.0328 1406.9649 3319.4679 1394.0883 3299.1297 1378.4515 3289.8842 1369.2519 3275.0977 1365.5781 Z" fill="none" stroke="#12852D" opacity="0.2976190476190476" stroke-width="1" class="hamilton_heights"/>
<path d="M 3406.6636 1206.2685 3414.7547 1216.6167 3414.0656 1222.1392 3370.0016 1302.9316 3359.3725 1297.4159 3345.9994 1337.0027 3333.5209 1329.6467 3327.5199 1337.9344 3329.605 1348.0581 3329.6076 1352.4303 3321.3008 1368.3134 3318.9925 1371.3063 3314.143 1374.3007 3306.5255 1384.4305 3223.8008 1338.4507 3183.138 1323.2823 3286.0603 1137.7812 3406.6636 1206.2685 Z" fill="none" stroke="#12852D" opacity="0.2976190476190476" stroke-width="1" class="hamilton_heights"/>
<path d="M 3315.6299 1151.1083 3398.346 1202.1327 3375.2912 1267.0326 3359.1415 1297.416 3327.7847 1394.5436 3219.6435 1339.8334 3315.6299 1151.1083 Z" fill="none" stroke="#12852D" opacity="0.2976190476190476" stroke-width="1" class="hamilton_heights"/>
<path d="M 3378.707 1191.7922 3330.1399 1276.9549 3278.7334 1254.665 3278.7344 1256.5058 3311.9371 1155.4817 3311.7056 1154.5616 3377.7829 1191.3326 3378.707 1191.7922 Z" fill="none" stroke="#12852D" opacity="0.2976190476190476" stroke-width="1" class="hamilton_heights"/>
<path d="M 3346.1323 1177.7782 3438.5531 1228.3343 3340.7251 1400.5191 3286.1906 1373.8563 3240.8988 1346.2661 3216.8653 1326.9485 3304.5588 1176.8826 3346.1323 1177.7782 Z" fill="none" stroke="#12852D" opacity="0.2976190476190476" stroke-width="1" class="hamilton_heights"/>
<path d="M 3251.268 1295.867 3239.0203 1285.5187 3308.4728 1155.4837 3424.9177 1217.0698 3349.4732 1351.2676 3251.268 1295.867 Z" fill="none" stroke="#12852D" opacity="0.2976190476190476" stroke-width="1" class="hamilton_heights"/>
<path d="M 3314.7079 1154.3298 3424.6882 1219.1407 3338.6491 1405.5832 3208.553 1334.7762 3314.7079 1154.3298 Z" fill="none" stroke="#12852D" opacity="0.2976190476190476" stroke-width="1" class="hamilton_heights"/>
<path d="M 3396.3819 1200.8686 3385.8944 1233.4324 3376.9068 1265.0758 3365.2565 1287.6328 3356.8374 1306.6216 3346.5755 1334.7012 3324.7822 1395.8111 3320.2864 1411.0022 3312.5569 1427.6913 3299.2863 1451.0578 3249.3708 1424.9642 3202.808 1399.3274 3180.3849 1366.3148 3158.1851 1310.8672 3206.6523 1222.029 3258.3557 1156.2014 3272.4354 1140.0893 3396.3819 1200.8686 Z" fill="none" stroke="#12852D" opacity="0.2976190476190476" stroke-width="1" class="hamilton_heights"/>
<path d="M 3205.7798 1332.0161 3200.2222 1302.5649 3226.9932 1253.3112 3307.3134 1147.432 3412.672 1210.8661 3323.1641 1394.0861 3205.7798 1332.0161 Z" fill="none" stroke="#12852D" opacity="0.2976190476190476" stroke-width="1" class="hamilton_heights"/>
<path d="M 3217.5628 1336.3827 3307.5456 1149.7326 3395.8044 1200.7539 3305.6013 1384.2009 3217.5628 1336.3827 Z" fill="none" stroke="#12852D" opacity="0.2976190476190476" stroke-width="1" class="hamilton_heights"/>
<path d="M 3396.9587 1199.8329 3276.086 1484.3265 3254.8259 1475.1319 3184.546 1372.9865 3298.0737 1144.6765 3396.9587 1199.8329 Z" fill="none" stroke="#12852D" opacity="0.2976190476190476" stroke-width="1" class="hamilton_heights"/>
<path d="M 3221.0288 1338.452 3314.7082 1154.7899 3396.0348 1199.8335 3386.8155 1229.2902 3366.9609 1243.5685 3294.9718 1378.9141 3221.0288 1338.452 Z" fill="none" stroke="#12852D" opacity="0.2976190476190476" stroke-width="1" class="hamilton_heights"/>
<path d="M 3222.646 1338.9115 3294.6609 1236.4791 3313.0894 1151.1098 3347.9769 1172.7154 3395.1115 1200.7544 3386.5855 1230.6709 3368.8088 1243.7974 3319.2016 1334.0274 3306.9875 1384.4303 3222.646 1338.9115 Z" fill="none" stroke="#12852D" opacity="0.2976190476190476" stroke-width="1" class="hamilton_heights"/>
<path d="M 3289.5809 1143.6252 3380.2171 1191.1769 3233.6272 1449.3437 3169.6115 1357.3219 3191.2665 1307.3966 3289.5809 1143.6252 Z" fill="none" stroke="#12852D" opacity="0.2976190476190476" stroke-width="1" class="hamilton_heights"/>
<path d="M 3242.7357 1324.1744 3341.4648 1098.6389 3382.2057 1244.0189 3330.5373 1361.8646 3288.0275 1353.6048 3236.2563 1301.167 3242.7357 1324.1744 Z" fill="none" stroke="#12852D" opacity="0.2976190476190476" stroke-width="1" class="hamilton_heights"/>
<path d="M 3248.2579 1281.8324 3307.3192 1157.555 3473.6666 1235.6714 3398.922 1371.9464 3248.2579 1281.8324 Z" fill="none" stroke="#12852D" opacity="0.2976190476190476" stroke-width="1" class="hamilton_heights"/>
<path d="M 3360.0655 1297.4154 3298.2463 1450.2529 3190.0985 1391.3939 3185.477 1388.6344 3271.3393 1249.607 3360.0655 1297.4154 Z" fill="none" stroke="#12852D" opacity="0.2976190476190476" stroke-width="1" class="hamilton_heights"/>
<path d="M 3308.2393 1151.1126 3412.6714 1209.9457 3374.3899 1302.0084 3357.3222 1342.9786 3326.3997 1396.3854 3212.2482 1332.9335 3222.403 1314.0597 3198.8348 1299.3441 3231.146 1243.6454 3248.7032 1249.1587 3308.2393 1151.1126 Z" fill="none" stroke="#12852D" opacity="0.2976190476190476" stroke-width="1" class="hamilton_heights"/>
<path d="M 3238.8088 1324.4065 3293.7374 1237.1699 3341.1032 1262.9124 3293.1089 1352.4514 3260.0659 1334.5205 3238.8088 1324.4065 Z" fill="none" stroke="#12852D" opacity="0.2976190476190476" stroke-width="1" class="hamilton_heights"/>
<path d="M 3216.8706 1337.9938 3206.704 1332.4759 3304.5593 1177.8029 3392.3534 1221.0035 3299.1282 1375.6901 3216.8706 1337.9938 Z" fill="none" stroke="#12852D" opacity="0.2976190476190476" stroke-width="1" class="hamilton_heights"/>
<path d="M 3283.584 1254.6624 3310.5716 1190.4535 3393.0573 1237.5692 3391.9021 1237.1098 3359.6029 1296.4953 3283.584 1254.6624 Z" fill="none" stroke="#12852D" opacity="0.2976190476190476" stroke-width="1" class="hamilton_heights"/>
<path d="M 3230.0341 1330.8539 3301.1184 1219.219 3384.9825 1251.8401 3329.1692 1392.0114 3221.2604 1339.6025 3230.0341 1330.8539 Z" fill="none" stroke="#12852D" opacity="0.2976190476190476" stroke-width="1" class="hamilton_heights"/>
<path d="M 3188.2444 1378.0475 3183.1622 1378.0498 3307.7763 1149.2723 3440.3976 1223.7313 3389.6436 1314.4241 3291.3401 1494.4447 3280.2469 1488.4669 3251.5895 1471.4512 3188.2444 1378.0475 Z" fill="none" stroke="#12852D" opacity="0.2976190476190476" stroke-width="1" class="hamilton_heights"/>
<path d="M 3219.6439 1340.7538 3216.8719 1340.7552 3299.4807 1182.4072 3376.6673 1251.8455 3308.8356 1384.4292 3219.6439 1340.7538 Z" fill="none" stroke="#12852D" opacity="0.2976190476190476" stroke-width="1" class="hamilton_heights"/>
<path d="M 3313.5522 1152.72 3335.9493 1143.504 3357.2045 1155.4544 3391.3979 1173.3778 3410.8071 1185.7887 3408.7447 1209.7183 3378.7555 1266.3401 3362.1454 1299.0248 3329.3343 1281.7874 3277.8098 1255.1257 3313.5522 1152.72 Z" fill="none" stroke="#12852D" opacity="0.2976190476190476" stroke-width="1" class="hamilton_heights"/>
<path d="M 3314.0134 1151.5693 3346.8224 1173.1763 3396.0342 1198.9132 3388.6566 1219.1652 3329.6281 1386.7182 3274.2372 1483.4069 3251.1284 1473.2926 3215.9826 1413.4742 3212.75 1416.9277 3193.7902 1381.2667 3212.0224 1343.9791 3223.5696 1337.9906 3254.9591 1286.6611 3301.8142 1224.2805 3305.4821 1175.9617 3314.0134 1151.5693 Z" fill="none" stroke="#12852D" opacity="0.2976190476190476" stroke-width="1" class="hamilton_heights"/>
<path d="M 3281.7364 1255.1236 3328.8715 1280.4071 3285.4903 1360.7399 3231.4206 1331.7737 3281.7364 1255.1236 Z" fill="none" stroke="#12852D" opacity="0.2976190476190476" stroke-width="1" class="hamilton_heights"/>
<path d="M 3408.0507 1208.1082 3360.0672 1300.1767 3324.944 1279.0289 3280.1824 1370.1777 3166.4978 1303.5003 3288.8322 1138.7 3408.0507 1208.1082 Z" fill="none" stroke="#12852D" opacity="0.2976190476190476" stroke-width="1" class="hamilton_heights"/>
<path d="M 3282.4294 1255.1232 3318.4029 1153.8675 3345.2051 1172.257 3396.0323 1196.1522 3361.9134 1297.4143 3282.4294 1255.1232 Z" fill="none" stroke="#12852D" opacity="0.2976190476190476" stroke-width="1" class="hamilton_heights"/>
<path d="M 3251.9827 1337.9763 3322.1026 1161.2275 3421.9095 1209.019 3329.6066 1350.8195 3174.4295 1483.4555 3117.1037 1406.1521 3251.9827 1337.9763 Z" fill="none" stroke="#12852D" opacity="0.2976190476190476" stroke-width="1" class="hamilton_heights"/>
<path d="M 3481.614 751.6837 3522.2522 760.8508 3476.2066 928.3217 3395.8403 909.058 3481.614 751.6837 Z" fill="none" stroke="#12852D" opacity="0.2976190476190476" stroke-width="1" class="hamilton_heights"/>
<path d="M 3308.2388 1150.1923 3399.7321 1202.5919 3321.2872 1345.3017 3220.5471 1297.4931 3308.2388 1150.1923 Z" fill="none" stroke="#12852D" opacity="0.2976190476190476" stroke-width="1" class="hamilton_heights"/>
<path d="M 3313.7828 1152.0296 3409.8988 1208.5671 3345.7684 1337.0029 3323.5866 1327.3516 3318.5095 1335.6386 3330.0703 1353.5806 3307.449 1383.5095 3222.4137 1336.1502 3312.8563 1147.4288 3313.7828 1152.0296 Z" fill="none" stroke="#12852D" opacity="0.2976190476190476" stroke-width="1" class="hamilton_heights"/>
<path d="M 3306.4065 1176.8815 3409.9154 1232.9561 3367.4607 1302.9332 3352.7047 1347.1236 3320.3914 1393.1672 3213.1715 1331.5524 3306.4065 1176.8815 Z" fill="none" stroke="#12852D" opacity="0.2976190476190476" stroke-width="1" class="hamilton_heights"/>
<path d="M 3359.6033 1297.1856 3325.9365 1394.5447 3210.401 1334.7753 3198.8374 1305.0967 3237.3786 1236.0493 3359.6033 1297.1856 Z" fill="none" stroke="#12852D" opacity="0.2976190476190476" stroke-width="1" class="hamilton_heights"/>
<path d="M 3214.0979 1336.6145 3322.2949 1095.8898 3442.4246 1151.716 3306.5256 1384.6606 3214.0979 1336.6145 Z" fill="none" stroke="#12852D" opacity="0.2976190476190476" stroke-width="1" class="hamilton_heights"/>
<path d="M 3285.2035 1259.4935 3348.4422 1178.2369 3440.1671 1224.4217 3390.5682 1315.3439 3285.2035 1259.4935 Z" fill="none" stroke="#12852D" opacity="0.2976190476190476" stroke-width="1" class="hamilton_heights"/>
<path d="M 3226.5326 1256.0726 3312.615 1129.714 3409.2034 1204.8863 3399.2884 1229.7421 3367.2105 1272.7902 3351.5231 1304.3239 3340.6628 1298.3479 3325.6439 1290.7635 3292.6033 1274.4456 3226.5326 1256.0726 Z" fill="none" stroke="#12852D" opacity="0.2976190476190476" stroke-width="1" class="hamilton_heights"/>
<path d="M 3390.0439 1221.3501 3385.3149 1230.4416 3376.7734 1237.3498 3370.5413 1244.0264 3365.2335 1251.3927 3354.2738 1270.2673 3345.507 1287.5301 3339.0463 1299.0392 3347.9429 1304.6713 3334.7916 1329.8761 3324.9718 1325.9701 3320.2406 1333.2214 3305.7989 1325.8662 3289.9712 1317.9364 3276.5682 1308.2793 3273.2174 1305.7499 3253.1165 1296.9015 3258.6548 1286.429 3263.8483 1279.4083 3272.0446 1272.616 3277.6992 1264.2145 3283.2379 1255.2378 3297.0846 1233.8317 3290.047 1246.7207 3300.4308 1228.5379 3309.6503 1194.8256 3311.949 1175.958 3390.0439 1221.3501 Z" fill="none" stroke="#12852D" opacity="0.2976190476190476" stroke-width="1" class="hamilton_heights"/>
<path d="M 3312.86 1153.8707 3396.9596 1201.2133 3378.5215 1261.7383 3347.1547 1337.4622 3332.8293 1331.9483 3306.2948 1384.8909 3221.491 1338.912 3312.86 1153.8707 Z" fill="none" stroke="#12852D" opacity="0.2976190476190476" stroke-width="1" class="hamilton_heights"/>
<path d="M 3312.7168 1386.2605 3320.0816 1339.312 3340.3816 1293.2784 3362.5286 1249.0861 3384.3138 1209.8562 3312.7168 1386.2605 Z" fill="none" stroke="#12852D" opacity="0.2976190476190476" stroke-width="1" class="hamilton_heights"/>
<path d="M 3295.4331 1377.5331 3296.3581 1379.3736 3246.4471 1354.5474 3299.9901 1266.1579 3341.5812 1289.1432 3295.4331 1377.5331 Z" fill="none" stroke="#12852D" opacity="0.2976190476190476" stroke-width="1" class="hamilton_heights"/>
<path d="M 3346.1295 1173.1767 3420.9856 1209.0197 3426.5282 1208.0955 3309.3855 1536.7831 3149.4678 1459.5309 3312.8605 1154.791 3346.1295 1173.1767 Z" fill="none" stroke="#12852D" opacity="0.2976190476190476" stroke-width="1" class="hamilton_heights"/>
<path d="M 3359.3726 1297.646 3343.891 1289.1418 3338.1223 1299.0397 3347.596 1303.8661 3332.1358 1331.0282 3322.4308 1325.9716 3319.8943 1333.5667 3324.7482 1338.3962 3328.6788 1344.3768 3328.9161 1354.962 3323.1471 1365.3207 3313.2203 1376.6025 3305.1393 1384.2012 3221.7217 1338.2216 3236.037 1324.638 3246.6509 1301.1618 3258.8838 1282.7473 3270.428 1273.0771 3281.7364 1255.1236 3289.8155 1245.6854 3298.5832 1228.884 3307.1185 1210.2424 3310.3448 1197.5861 3311.0323 1188.3826 3306.4054 1175.0409 3369.4796 1209.2842 3378.7069 1191.5621 3408.0507 1208.1082 3414.2932 1217.3073 3412.9129 1225.3612 3369.3091 1303.6224 3359.3726 1297.646 Z" fill="none" stroke="#12852D" opacity="0.2976190476190476" stroke-width="1" class="hamilton_heights"/>
<path d="M 3252.9172 1358.226 3221.2587 1336.1508 3310.7672 1129.2549 3414.9631 1183.9453 3332.4033 1391.7793 3220.5664 1337.5318 3252.9172 1358.226 Z" fill="none" stroke="#12852D" opacity="0.2976190476190476" stroke-width="1" class="hamilton_heights"/>
<path d="M 3396.2667 1201.2138 3407.818 1205.5775 3341.6163 1346.6702 3232.5523 1284.8316 3305.9283 1148.5831 3395.804 1200.0637 3396.2667 1201.2138 Z" fill="none" stroke="#12852D" opacity="0.2976190476190476" stroke-width="1" class="hamilton_heights"/>
<path d="M 3220.875 1339.5263 3266.1038 1250.2237 3339.1123 1281.475 3251.3762 1356.9998 3220.875 1339.5263 Z" fill="none" stroke="#12852D" opacity="0.2976190476190476" stroke-width="1" class="hamilton_heights"/>
<path d="M 3319.6632 1333.3368 3253.1172 1298.3972 3339.3932 1109.9129 3404.7755 1146.6808 3319.6632 1333.3368 Z" fill="none" stroke="#12852D" opacity="0.2976190476190476" stroke-width="1" class="hamilton_heights"/>
<path d="M 3212.7115 1335.6947 3304.0819 1150.6548 3431.1564 1220.5167 3328.7084 1394.0828 3212.7115 1335.6947 Z" fill="none" stroke="#12852D" opacity="0.2976190476190476" stroke-width="1" class="hamilton_heights"/>
<path d="M 3251.0334 1288.9641 3299.0248 1192.991 3405.5304 1238.021 3358.4769 1342.5177 3251.0334 1288.9641 Z" fill="none" stroke="#12852D" opacity="0.2976190476190476" stroke-width="1" class="hamilton_heights"/>
<path d="M 3312.8596 1153.1805 3396.9593 1200.7532 3373.6775 1271.8657 3360.9881 1295.3439 3352.2227 1314.9083 3307.0182 1437.8205 3197.0258 1384.487 3312.8596 1153.1805 Z" fill="none" stroke="#12852D" opacity="0.2976190476190476" stroke-width="1" class="hamilton_heights"/>
<path d="M 3216.8707 1338.2239 3283.5834 1253.5119 3322.7696 1117.5148 3440.105 1137.6836 3408.0529 1211.3294 3350.134 1299.2625 3306.756 1383.5099 3216.8707 1338.2239 Z" fill="none" stroke="#12852D" opacity="0.2976190476190476" stroke-width="1" class="hamilton_heights"/>
<path d="M 3306.9873 1383.97 3297.281 1377.302 3282.2619 1371.097 3287.108 1361.8896 3280.6371 1356.8306 3270.4701 1351.7735 3259.1476 1345.3363 3230.7279 1332.4644 3239.2707 1324.1762 3258.1921 1285.0487 3283.3537 1255.813 3304.1212 1219.4474 3307.8113 1210.0119 3311.2706 1201.0367 3312.4189 1189.7622 3395.1343 1234.8068 3360.7583 1297.1849 3346.4621 1338.153 3326.1272 1326.6597 3322.6688 1337.7071 3331.453 1348.057 3326.6103 1362.097 3319.6867 1373.377 3306.9873 1383.97 Z" fill="none" stroke="#12852D" opacity="0.2976190476190476" stroke-width="1" class="hamilton_heights"/>
<path d="M 3378.5214 1261.5083 3359.1418 1297.8762 3325.4752 1395.6956 3211.7855 1331.5531 3303.8483 1146.0536 3396.0357 1201.2139 3378.5214 1261.5083 Z" fill="none" stroke="#12852D" opacity="0.2976190476190476" stroke-width="1" class="hamilton_heights"/>
<path d="M 3306.9875 1384.4303 3221.9526 1337.9914 3312.8603 1154.3308 3403.4285 1203.9699 3306.9875 1384.4303 Z" fill="none" stroke="#12852D" opacity="0.2976190476190476" stroke-width="1" class="hamilton_heights"/>
<path d="M 3202.098 1362.8532 3282.4049 1210.4863 3398.8543 1271.1588 3312.0909 1420.7876 3202.098 1362.8532 Z" fill="none" stroke="#12852D" opacity="0.2976190476190476" stroke-width="1" class="hamilton_heights"/>
<path d="M 3358.6792 1296.9561 3294.6238 1376.2679 3222.5303 1338.4513 3279.1936 1251.4435 3358.6792 1296.9561 Z" fill="none" stroke="#12852D" opacity="0.2976190476190476" stroke-width="1" class="hamilton_heights"/>
<path d="M 3278.705 1202.4355 3369.2706 1243.567 3293.1239 1379.1453 3207.3977 1334.0864 3278.705 1202.4355 Z" fill="none" stroke="#12852D" opacity="0.2976190476190476" stroke-width="1" class="hamilton_heights"/>
<path d="M 3214.0969 1334.5434 3214.7891 1332.7022 3302.5042 1219.2182 3381.5166 1250.0017 3340.0353 1405.8125 3214.0969 1334.5434 Z" fill="none" stroke="#12852D" opacity="0.2976190476190476" stroke-width="1" class="hamilton_heights"/>
<path d="M 3306.9873 1383.97 3223.1085 1339.8317 3283.8149 1254.4322 3344.1217 1288.6815 3322.2023 1330.1137 3326.5962 1338.3951 3329.8387 1352.6603 3306.9873 1383.97 Z" fill="none" stroke="#12852D" opacity="0.2976190476190476" stroke-width="1" class="hamilton_heights"/>
<path d="M 3221.4914 1339.6024 3240.8858 1320.4936 3261.4243 1282.0557 3282.4275 1251.6718 3304.5784 1211.1641 3313.5537 1155.2507 3347.5164 1175.0164 3396.4964 1199.373 3410.5929 1210.4073 3411.0686 1230.4243 3379.2295 1284.7476 3358.7053 1338.3755 3339.0918 1373.8256 3326.8577 1389.7115 3306.7544 1380.7484 3279.9511 1369.7176 3221.4914 1339.6024 Z" fill="none" stroke="#12852D" opacity="0.2976190476190476" stroke-width="1" class="hamilton_heights"/>
<path d="M 3216.6281 1314.0625 3306.147 1127.1871 3402.0252 1177.9722 3333.0854 1373.5991 3216.6281 1314.0625 Z" fill="none" stroke="#12852D" opacity="0.2976190476190476" stroke-width="1" class="hamilton_heights"/>
<path d="M 3224.2622 1337.0698 3311.9378 1156.6321 3396.0336 1197.9928 3320.3881 1387.6442 3224.2622 1337.0698 Z" fill="none" stroke="#12852D" opacity="0.2976190476190476" stroke-width="1" class="hamilton_heights"/>
<path d="M 3282.1983 1254.8932 3314.9377 1152.259 3347.5154 1173.4059 3409.6672 1207.647 3385.4448 1252.3 3362.1447 1297.8743 3283.5849 1256.273 3282.1983 1254.8932 Z" fill="none" stroke="#12852D" opacity="0.2976190476190476" stroke-width="1" class="hamilton_heights"/>
<path d="M 3385.4448 1252.3 3359.3721 1296.7256 3326.8609 1395.0044 3223.8014 1339.6013 3222.4155 1339.832 3253.8065 1291.2637 3289.816 1246.6057 3305.5011 1209.0929 3385.4448 1252.3 Z" fill="none" stroke="#12852D" opacity="0.2976190476190476" stroke-width="1" class="hamilton_heights"/>
<path d="M 3297.7772 1437.8257 3256.1809 1415.2952 3268.6415 1388.1335 3241.8366 1373.4195 3223.3625 1387.2361 3200.2538 1371.1384 3221.4917 1340.2927 3308.4854 1177.3405 3368.3254 1210.2052 3400.4413 1226.7502 3345.3053 1335.1622 3297.7772 1437.8257 Z" fill="none" stroke="#12852D" opacity="0.2976190476190476" stroke-width="1" class="hamilton_heights"/>
<path d="M 3306.3911 1150.1933 3394.1871 1199.8347 3385.8922 1230.2111 3361.9122 1295.5734 3265.7944 1246.8489 3306.3911 1150.1933 Z" fill="none" stroke="#12852D" opacity="0.2976190476190476" stroke-width="1" class="hamilton_heights"/>
<path d="M 3223.1082 1339.1414 3237.7688 1323.3715 3241.8064 1313.705 3251.0355 1292.8758 3258.8839 1282.9774 3270.8898 1272.8468 3282.3136 1254.6631 3329.2183 1280.8671 3379.3996 1191.2165 3440.514 1225.1117 3390.6833 1314.8836 3379.7073 1309.1382 3356.9742 1340.5626 3325.2445 1396.156 3305.173 1443.1147 3254.564 1415.7563 3279.7205 1370.4081 3223.1082 1339.1414 Z" fill="none" stroke="#12852D" opacity="0.2976190476190476" stroke-width="1" class="hamilton_heights"/>
<path d="M 3300.9091 1257.4138 3326.7524 1212.7618 3341.0599 1192.046 3369.2382 1192.9487 3394.6435 1191.5516 3427.4605 1220.0591 3432.1017 1250.8876 3367.935 1322.2619 3344.4109 1383.4875 3327.3281 1403.749 3258.0017 1362.8257 3248.2935 1351.3249 3300.9091 1257.4138 Z" fill="none" stroke="#12852D" opacity="0.2976190476190476" stroke-width="1" class="hamilton_heights"/>
<path d="M 3392.879 1316.723 3385.03 1324.0917 3381.3392 1331.9178 3382.0329 1333.0679 3376.4938 1340.6652 3373.034 1348.7215 3369.1117 1356.0877 3369.9186 1353.671 3362.8832 1369.7837 3358.7282 1374.734 3349.8446 1391.3084 3347.3059 1395.3372 3347.0774 1399.4796 3342.6922 1406.156 3334.4969 1415.7114 3325.1508 1432.977 3322.4968 1437.6964 3319.9593 1444.1417 3313.6116 1453.6962 3303.3385 1467.1655 3301.0313 1472.6903 3299.5348 1481.7819 3296.5373 1492.4855 3292.1516 1499.6226 3288.7977 1492.8351 3277.473 1485.7066 3267.0734 1480.3038 3251.5942 1480.542 3251.2418 1469.265 3243.7304 1463.7454 3238.2966 1454.6576 3238.1778 1448.0986 3241.9864 1441.4227 3244.2931 1434.4024 3247.5239 1427.4967 3255.1404 1413.4546 3260.2203 1408.7343 3265.4126 1398.0306 3273.1448 1385.4846 3275.799 1380.8807 3281.9139 1368.3358 3288.1451 1357.4017 3291.144 1349.9213 3301.761 1333.9224 3306.8376 1324.485 3313.1823 1311.135 3317.7991 1305.8399 3322.4162 1301.1201 3325.4137 1292.1443 3330.0281 1283.0526 3336.1502 1284.6596 3341.4655 1288.9132 3350.7037 1286.7216 3354.9792 1290.2855 3360.7598 1299.4859 3369.0753 1299.2505 3373.7002 1307.0711 3378.4377 1310.4046 3390.6791 1308.5557 3392.879 1316.723 Z" fill="none" stroke="#12852D" opacity="0.2976190476190476" stroke-width="1" class="hamilton_heights"/>
<path d="M 3439.4717 1220.9709 3344.8826 1399.1358 3342.1107 1399.5977 3332.4019 1389.4781 3215.4828 1334.3127 3313.3182 1147.4285 3439.4717 1220.9709 Z" fill="none" stroke="#12852D" opacity="0.2976190476190476" stroke-width="1" class="hamilton_heights"/>
<path d="M 3330.4874 1278.5654 3341.5809 1288.683 3328.2088 1331.0306 3284.8142 1391.3465 3266.7939 1389.055 3241.3722 1368.8174 3251.9896 1351.323 3297.217 1263.8585 3330.4874 1278.5654 Z" fill="none" stroke="#12852D" opacity="0.2976190476190476" stroke-width="1" class="hamilton_heights"/>
<path d="M 3218.0248 1336.3825 3313.5525 1153.1801 3409.2052 1207.6473 3359.6038 1297.8759 3325.7069 1396.8461 3218.0248 1336.3825 Z" fill="none" stroke="#12852D" opacity="0.2976190476190476" stroke-width="1" class="hamilton_heights"/>
<path d="M 3395.8043 1200.5239 3374.3706 1272.0953 3359.3726 1297.646 3345.3064 1337.0031 3278.2962 1300.2247 3347.515 1172.7157 3395.8043 1200.5239 Z" fill="none" stroke="#12852D" opacity="0.2976190476190476" stroke-width="1" class="hamilton_heights"/>
<path d="M 3233.557 1447.5256 3191.9437 1384.9495 3346.979 1052.6257 3428.299 1098.5819 3262.2194 1476.0486 3252.9757 1471.4505 3233.557 1447.5256 Z" fill="none" stroke="#12852D" opacity="0.2976190476190476" stroke-width="1" class="hamilton_heights"/>
<path d="M 3343.4663 1349.8906 3264.0293 1403.3243 3323.9404 1144.6615 3343.4663 1349.8906 Z" fill="none" stroke="#12852D" opacity="0.2976190476190476" stroke-width="1" class="hamilton_heights"/>
<path d="M 3251.1284 1473.2926 3183.853 1372.9868 3268.1042 1246.8477 3359.3716 1296.0353 3325.2442 1395.6957 3305.1734 1443.8051 3285.3198 1470.5127 3275.8557 1485.7075 3251.1284 1473.2926 Z" fill="none" stroke="#12852D" opacity="0.2976190476190476" stroke-width="1" class="hamilton_heights"/>
<path d="M 3305.6968 1147.663 3396.2661 1200.2935 3386.1234 1230.4411 3369.5012 1242.8766 3344.3513 1286.3803 3324.968 1319.527 3331.4497 1342.5343 3307.6802 1383.7395 3301.679 1392.7178 3307.4648 1410.8946 3280.4646 1464.0713 3270.7583 1458.5531 3262.451 1476.9691 3253.9036 1478.8147 3187.3192 1375.2865 3168.3736 1368.8514 3195.377 1314.9929 3235.0723 1242.9532 3249.1648 1248.4682 3305.6968 1147.663 Z" fill="none" stroke="#12852D" opacity="0.2976190476190476" stroke-width="1" class="hamilton_heights"/>
<path d="M 3309.1621 1149.2715 3325.7979 1161.2253 3396.958 1198.9125 3371.1353 1269.7964 3349.915 1318.5915 3323.163 1392.2451 3213.1733 1335.2342 3309.1621 1149.2715 Z" fill="none" stroke="#12852D" opacity="0.2976190476190476" stroke-width="1" class="hamilton_heights"/>
<path d="M 3338.3453 1285.8088 3341.5811 1289.0282 3299.4114 1263.8573 3368.9725 1138.6521 3399.5845 1154.8517 3353.9065 1236.9042 3369.502 1244.1421 3343.8908 1288.6816 3338.3453 1285.8088 Z" fill="none" stroke="#12852D" opacity="0.2976190476190476" stroke-width="1" class="hamilton_heights"/>
<path d="M 3185.4725 1378.509 3306.3911 1150.1933 3464.431 1240.2801 3469.1281 1344.2825 3391.6477 1549.6212 3256.6751 1476.9721 3192.8669 1383.1081 3185.4725 1378.509 Z" fill="none" stroke="#12852D" opacity="0.2976190476190476" stroke-width="1" class="hamilton_heights"/>
<path d="M 3227.9527 1326.0227 3271.5959 1297.352 3269.8631 1296.5476 3256.9309 1302.7672 3253.0067 1307.9466 3272.2909 1301.0333 3278.5195 1285.9583 3275.7507 1291.5972 3280.8228 1273.8768 3278.6289 1274.7984 3283.8205 1264.6713 3272.2705 1263.067 3284.5046 1248.6795 3283.9283 1250.6356 3292.4691 1240.9671 3290.6239 1245.6849 3300.8935 1229.9181 3299.1641 1234.981 3309.3187 1220.7099 3311.8601 1221.8588 3316.9354 1211.3871 3311.9204 1126.6086 3319.8991 1145.2391 3314.3528 1139.3757 3328.9131 1156.7371 3331.4545 1158.116 3345.7795 1167.4251 3361.0223 1166.6104 3366.5732 1178.9157 3369.5755 1178.6837 3375.5789 1176.1491 3373.0473 1190.0702 3375.2429 1192.2546 3374.0909 1196.7418 3373.6303 1198.6978 3363.8207 1208.9426 3362.3217 1212.6249 3358.169 1220.1052 3353.3233 1227.7011 3348.5942 1237.1376 3346.8639 1240.4749 3345.9413 1242.5463 3345.3647 1243.9272 3343.7522 1251.061 3332.9041 1264.2979 3332.5584 1265.5637 3331.8683 1270.281 3334.0616 1268.554 3319.8636 1281.3329 3324.0197 1278.5692 3314.439 1287.4337 3310.0527 1291.6931 3315.5957 1290.5394 3305.5532 1300.2095 3309.3674 1305.1545 3294.1244 1309.6502 3291.5847 1311.7226 3290.1992 1312.6438 3286.6205 1315.7522 3282.4634 1317.2502 3278.1926 1321.9698 3276.923 1323.5812 3275.4219 1324.3874 3276.6922 1323.9265 3269.4191 1330.2584 3267.9199 1334.5163 3262.7237 1336.9352 3259.4924 1342.1145 3260.8801 1345.3353 3252.6796 1345.5697 3248.1759 1347.1829 3248.2906 1345.687 3243.2074 1343.3885 3238.4711 1341.8951 3233.0396 1335.9149 3225.186 1336.8392 3239.0487 1342.125 3223.8 1336.8399 3221.4899 1336.6109 3246.4175 1296.5598 3241.8005 1302.0847 3238.5687 1306.2282 3235.3373 1311.2921 3227.9527 1326.0227 Z" fill="none" stroke="#12852D" opacity="0.2976190476190476" stroke-width="1" class="hamilton_heights"/>
<path d="M 3396.9599 1201.6735 3377.6014 1267.4913 3324.0884 1394.5458 3209.0142 1332.9351 3304.5438 1150.6545 3396.9599 1201.6735 Z" fill="none" stroke="#12852D" opacity="0.2976190476190476" stroke-width="1" class="hamilton_heights"/>
<path d="M 3396.497 1200.2933 3386.3542 1230.2108 3368.3476 1244.9482 3292.6612 1377.9949 3222.8764 1337.5307 3239.9609 1318.6532 3249.6486 1291.0357 3270.8887 1270.7759 3301.811 1218.7585 3307.7906 1174.1198 3311.9354 1152.4908 3346.5909 1172.2561 3396.497 1200.2933 Z" fill="none" stroke="#12852D" opacity="0.2976190476190476" stroke-width="1" class="hamilton_heights"/>
<path d="M 3281.5054 1255.1237 3348.9751 1292.8203 3372.9802 1265.1934 3301.9055 1384.8934 3293.586 1379.3751 3262.1584 1360.0621 3216.8741 1345.3574 3240.8835 1315.8915 3258.4238 1286.4292 3274.1166 1259.7296 3293.5108 1244.9931 3306.4387 1233.0211 3281.5054 1255.1237 Z" fill="none" stroke="#12852D" opacity="0.2976190476190476" stroke-width="1" class="hamilton_heights"/>
<path d="M 3362.7878 1290.6377 3291.1591 1251.1037 3350.7081 1180.6632 3399.6934 1212.3824 3362.7878 1290.6377 Z" fill="none" stroke="#12852D" opacity="0.2976190476190476" stroke-width="1" class="hamilton_heights"/>
<path d="M 3354.5493 1341.5997 3256.1146 1287.811 3311.9565 1188.8422 3402.5314 1243.5452 3354.5493 1341.5997 Z" fill="none" stroke="#12852D" opacity="0.2976190476190476" stroke-width="1" class="hamilton_heights"/>
<path d="M 3340.2048 1344.2926 3303.235 1327.7463 3270.8874 1313.0372 3235.7689 1298.3287 3289.3107 1211.7857 3378.9497 1246.7047 3340.2048 1344.2926 Z" fill="none" stroke="#12852D" opacity="0.2976190476190476" stroke-width="1" class="hamilton_heights"/>
<path d="M 3313.5511 1150.8794 3440.8605 1225.1115 3343.0384 1405.5805 3219.1794 1335.4615 3313.5511 1150.8794 Z" fill="none" stroke="#12852D" opacity="0.2976190476190476" stroke-width="1" class="hamilton_heights"/>
<path d="M 3262.3247 1237.4171 3281.0417 1251.9027 3293.5011 1227.7365 3301.6848 1199.8918 3306.1727 1171.9351 3318.611 1114.8716 3337.8921 1110.0289 3427.7638 1158.6284 3408.7439 1208.4529 3360.2972 1298.5658 3310.7334 1270.6386 3307.267 1267.6494 3297.4476 1263.1681 3293.5195 1260.6393 3293.1729 1260.4094 3289.2448 1257.8806 3286.3569 1256.7317 3283.5846 1255.8129 3284.9705 1255.8121 3281.7359 1254.2032 3262.3247 1237.4171 Z" fill="none" stroke="#12852D" opacity="0.2976190476190476" stroke-width="1" class="hamilton_heights"/>
<path d="M 3307.9108 1383.049 3221.952 1336.7644 3236.2697 1328.0131 3253.8069 1292.1077 3282.2754 1254.9701 3309.0413 1206.6368 3314.0921 1154.1769 3394.496 1201.0617 3380.3735 1267.9497 3366.0718 1298.332 3350.849 1334.6986 3330.0921 1389.9397 3307.9108 1383.049 Z" fill="none" stroke="#12852D" opacity="0.2976190476190476" stroke-width="1" class="hamilton_heights"/>
<path d="M 3314.4756 1152.0292 3325.7978 1160.9952 3395.8043 1200.5239 3386.5862 1231.8213 3369.5013 1243.1067 3323.1237 1325.7411 3294.5097 1378.6843 3221.4906 1337.9916 3236.268 1324.6379 3246.6511 1301.622 3260.0385 1282.2865 3286.8148 1249.3685 3309.187 1192.525 3310.551 1154.7923 3314.4756 1152.0292 Z" fill="none" stroke="#12852D" opacity="0.2976190476190476" stroke-width="1" class="hamilton_heights"/>
<path d="M 3369.4538 1349.2991 3314.8806 1450.7037 3275.1335 1431.8547 3272.3419 1395.9558 3226.8 1330.6254 3300.4192 1208.1755 3410.7527 1275.0624 3369.4538 1349.2991 Z" fill="none" stroke="#12852D" opacity="0.2976190476190476" stroke-width="1" class="hamilton_heights"/>
<path d="M 3256.9596 1242.7004 3312.5607 1151.515 3379.0131 1190.0388 3330.235 1281.4464 3256.9596 1242.7004 Z" fill="none" stroke="#12852D" opacity="0.2976190476190476" stroke-width="1" class="hamilton_heights"/>
<path d="M 3191.0388 1427.2937 3144.8265 1407.9823 3259.3159 1225.6842 3346.214 1310.3099 3255.7581 1490.7815 3191.0388 1427.2937 Z" fill="none" stroke="#12852D" opacity="0.2976190476190476" stroke-width="1" class="hamilton_heights"/>
<path d="M 3278.2993 1203.8622 3403.5789 1269.232 3327.6889 1396.6102 3207.012 1329.1714 3278.2993 1203.8622 Z" fill="none" stroke="#12852D" opacity="0.2976190476190476" stroke-width="1" class="hamilton_heights"/>
<path d="M 3266.0267 1249.3798 3360.5276 1297.6452 3325.704 1392.0134 3213.1722 1332.9331 3266.0267 1249.3798 Z" fill="none" stroke="#12852D" opacity="0.2976190476190476" stroke-width="1" class="hamilton_heights"/>
<path d="M 3282.8913 1255.123 3370.2329 1303.3917 3355.9365 1343.4397 3325.7061 1395.4653 3217.7938 1336.2675 3282.8913 1255.123 Z" fill="none" stroke="#12852D" opacity="0.2976190476190476" stroke-width="1" class="hamilton_heights"/>
<path d="M 3329.9113 1280.9818 3269.1044 1389.8592 3204.0567 1352.2669 3282.6601 1254.6629 3329.9113 1280.9818 Z" fill="none" stroke="#12852D" opacity="0.2976190476190476" stroke-width="1" class="hamilton_heights"/>
<path d="M 3395.1128 1202.595 3326.8592 1392.2429 3230.732 1340.7484 3307.316 1152.0334 3395.1128 1202.595 Z" fill="none" stroke="#12852D" opacity="0.2976190476190476" stroke-width="1" class="hamilton_heights"/>
<path d="M 3163.9838 1367.2424 3230.1886 1175.5417 3405.5475 1263.331 3306.3283 1443.3442 3163.9838 1367.2424 Z" fill="none" stroke="#12852D" opacity="0.2976190476190476" stroke-width="1" class="hamilton_heights"/>
<path d="M 3380.3236 1191.561 3277.8725 1370.6392 3246.6778 1353.857 3242.2871 1350.6376 3234.4322 1349.2608 3236.3942 1346.1533 3243.442 1350.4069 3247.6009 1352.0156 3224.1479 1339.7161 3232.1118 1328.2067 3241.5752 1313.2449 3262.5783 1280.2143 3307.9273 1210.9321 3313.4374 1153.8704 3380.3236 1191.561 Z" fill="none" stroke="#12852D" opacity="0.2976190476190476" stroke-width="1" class="hamilton_heights"/>
<path d="M 3264.9182 1337.0491 3298.6029 1263.8578 3327.2546 1280.4081 3322.1797 1291.9161 3264.9182 1337.0491 Z" fill="none" stroke="#12852D" opacity="0.2976190476190476" stroke-width="1" class="hamilton_heights"/>
<path d="M 3307.3308 1177.8013 3402.5218 1229.2797 3344.3835 1338.8446 3321.2748 1324.1314 3293.6169 1434.6062 3187.3161 1368.3828 3307.3308 1177.8013 Z" fill="none" stroke="#12852D" opacity="0.2976190476190476" stroke-width="1" class="hamilton_heights"/>
<path d="M 3305.4672 1149.9638 3411.9781 1209.4861 3314.0754 1422.2504 3306.5573 1439.892 3180.6202 1375.9798 3202.0691 1300.2631 3239.916 1229.3755 3305.4672 1149.9638 Z" fill="none" stroke="#12852D" opacity="0.2976190476190476" stroke-width="1" class="hamilton_heights"/>
<path d="M 3306.1743 1174.811 3409.6835 1231.5757 3369.7712 1303.8522 3359.1412 1296.9558 3328.2413 1385.5684 3324.5514 1396.1564 3187.0623 1317.5278 3234.3794 1242.9535 3249.3966 1250.0787 3293.6979 1166.7655 3306.1743 1174.811 Z" fill="none" stroke="#12852D" opacity="0.2976190476190476" stroke-width="1" class="hamilton_heights"/>
<path d="M 3308.2529 1174.8098 3370.865 1208.593 3392.121 1218.9328 3386.5855 1230.6709 3369.9634 1243.3365 3351.277 1279.9333 3339.9694 1297.658 3348.5194 1302.9451 3336.0611 1328.2645 3310.6449 1317.2343 3305.3377 1327.1321 3252.6541 1296.0964 3265.58 1278.1418 3291.6628 1244.764 3308.2529 1174.8098 Z" fill="none" stroke="#12852D" opacity="0.2976190476190476" stroke-width="1" class="hamilton_heights"/>
<path d="M 3198.4095 1379.4236 3326.7201 1158.4639 3446.8655 1224.647 3282.5535 1481.5612 3198.4095 1379.4236 Z" fill="none" stroke="#12852D" opacity="0.2976190476190476" stroke-width="1" class="hamilton_heights"/>
<path d="M 3221.0288 1338.452 3219.1793 1335.2313 3242.7156 1284.5965 3308.9323 1151.3422 3320.2537 1159.158 3396.9584 1199.3727 3392.8144 1219.6226 3381.0628 1262.427 3325.4756 1396.386 3305.1393 1384.2012 3221.0288 1338.452 Z" fill="none" stroke="#12852D" opacity="0.2976190476190476" stroke-width="1" class="hamilton_heights"/>
<path d="M 3222.8773 1339.3716 3221.9544 1341.6732 3199.298 1302.1052 3234.8414 1243.1834 3248.7039 1250.5393 3302.6961 1150.6556 3335.9489 1142.8138 3400.6405 1179.5836 3345.7687 1337.4631 3334.6757 1329.1858 3320.8193 1335.177 3329.6075 1352.2002 3307.4493 1383.9697 3222.8773 1339.3716 Z" fill="none" stroke="#12852D" opacity="0.2976190476190476" stroke-width="1" class="hamilton_heights"/>
<path d="M 3222.1844 1339.602 3208.5533 1335.3515 3313.2056 1152.4901 3428.3835 1218.793 3396.3172 1276.6828 3327.093 1396.8453 3222.1844 1339.602 Z" fill="none" stroke="#12852D" opacity="0.2976190476190476" stroke-width="1" class="hamilton_heights"/>
<path d="M 3352.8545 1181.0236 3419.9655 1263.3607 3384.6097 1327.7037 3355.0548 1348.4328 3272.2579 1371.1977 3257.0208 1280.434 3352.8545 1181.0236 Z" fill="none" stroke="#12852D" opacity="0.2976190476190476" stroke-width="1" class="hamilton_heights"/>
<path d="M 3359.6032 1296.9555 3344.845 1337.9239 3325.4729 1391.7835 3208.5513 1331.0944 3219.1677 1311.3 3198.8362 1302.5656 3232.9925 1240.8834 3251.0127 1248.6973 3301.3099 1149.7361 3409.8994 1209.4875 3415.9154 1225.129 3368.847 1303.3925 3359.6032 1296.9555 Z" fill="none" stroke="#12852D" opacity="0.2976190476190476" stroke-width="1" class="hamilton_heights"/>
<path d="M 3311.0086 1147.4299 3439.4763 1227.4133 3287.1793 1490.7646 3253.9008 1473.2912 3184.5485 1378.5094 3311.0086 1147.4299 Z" fill="none" stroke="#12852D" opacity="0.2976190476190476" stroke-width="1" class="hamilton_heights"/>
<path d="M 3306.3902 1148.5829 3396.2661 1200.2935 3333.2902 1330.1071 3308.1576 1410.4339 3209.0247 1355.2561 3263.7352 1283.8953 3227.2652 1337.0683 3206.0211 1354.107 3306.3902 1148.5829 Z" fill="none" stroke="#12852D" opacity="0.2976190476190476" stroke-width="1" class="hamilton_heights"/>
<path d="M 3303.6197 1150.1949 3357.144 1059.0606 3392.168 942.1823 3479.0157 978.9239 3338.8043 1280.8613 3264.8783 1261.5753 3303.6197 1150.1949 Z" fill="none" stroke="#12852D" opacity="0.2976190476190476" stroke-width="1" class="hamilton_heights"/>
<path d="M 3307.7769 1150.1926 3425.1482 1216.3794 3398.8555 1272.9996 3410.8705 1278.5138 3395.6433 1305.2159 3425.6839 1321.763 3370.7684 1417.9902 3221.4913 1339.3723 3307.7769 1150.1926 Z" fill="none" stroke="#12852D" opacity="0.2976190476190476" stroke-width="1" class="hamilton_heights"/>
<path d="M 3227.9573 1335.2271 3316.0993 1163.9919 3401.1226 1209.4934 3398.3509 1209.4953 3309.2971 1383.5084 3227.9573 1335.2271 Z" fill="none" stroke="#12852D" opacity="0.2976190476190476" stroke-width="1" class="hamilton_heights"/>
<path d="M 3322.9961 1109.9228 3361.0685 1056.9878 3446.5524 1110.9919 3427.4167 1157.7084 3406.8824 1188.3223 3408.743 1207.1875 3359.6032 1296.9555 3325.2439 1395.2355 3224.7254 1339.6008 3293.7367 1236.0195 3305.9439 1175.7314 3322.9961 1109.9228 Z" fill="none" stroke="#12852D" opacity="0.2976190476190476" stroke-width="1" class="hamilton_heights"/>
<path d="M 3300.9277 1290.0876 3308.3129 1279.0386 3318.942 1285.2451 3280.413 1369.4872 3254.2987 1349.4808 3224.9524 1331.3167 3257.2665 1282.0579 3273.6609 1271.4647 3275.5053 1265.021 3277.1219 1264.5599 3306.2346 1279.9602 3300.9277 1290.0876 Z" fill="none" stroke="#12852D" opacity="0.2976190476190476" stroke-width="1" class="hamilton_heights"/>
<path d="M 3317.4791 1153.868 3399.7327 1203.5123 3329.632 1393.1617 3215.9475 1339.8351 3317.4791 1153.868 Z" fill="none" stroke="#12852D" opacity="0.2976190476190476" stroke-width="1" class="hamilton_heights"/>
<path d="M 3305.4794 1171.3603 3386.8101 1221.0071 3322.1998 1325.9717 3246.4091 1279.9926 3305.4794 1171.3603 Z" fill="none" stroke="#12852D" opacity="0.2976190476190476" stroke-width="1" class="hamilton_heights"/>
<path d="M 3396.4976 1201.2136 3358.6787 1296.0357 3326.8606 1394.5441 3279.2591 1371.5589 3210.4008 1334.3151 3308.6996 1148.3515 3396.4976 1201.2136 Z" fill="none" stroke="#12852D" opacity="0.2976190476190476" stroke-width="1" class="hamilton_heights"/>
<path d="M 3308.2536 1175.9602 3399.286 1226.0607 3358.679 1296.4959 3324.5506 1394.7756 3215.7145 1335.6932 3281.7353 1253.0528 3308.2536 1175.9602 Z" fill="none" stroke="#12852D" opacity="0.2976190476190476" stroke-width="1" class="hamilton_heights"/>
<path d="M 3325.2788 1395.6612 3247.7035 1353.9531 3309.3513 1245.1152 3369.4277 1279.5928 3368.1234 1302.6038 3356.5986 1342.0586 3325.2788 1395.6612 Z" fill="none" stroke="#12852D" opacity="0.2976190476190476" stroke-width="1" class="hamilton_heights"/>
<path d="M 3319.3435 1182.3958 3389.5744 1209.9613 3312.9343 1281.7971 3319.3435 1182.3958 Z" fill="none" stroke="#12852D" opacity="0.2976190476190476" stroke-width="1" class="hamilton_heights"/>
<path d="M 3395.1122 1201.6747 3327.7855 1395.9243 3310.2198 1381.2067 3222.4173 1343.5139 3304.5467 1155.716 3395.1122 1201.6747 Z" fill="none" stroke="#12852D" opacity="0.2976190476190476" stroke-width="1" class="hamilton_heights"/>
<path d="M 3363.7508 1280.8458 3272.2623 1247.7658 3323.0025 1120.7355 3399.7074 1165.7799 3363.7508 1280.8458 Z" fill="none" stroke="#12852D" opacity="0.2976190476190476" stroke-width="1" class="hamilton_heights"/>
<path d="M 3316.5574 1157.5496 3393.2626 1198.915 3310.2523 1437.3583 3209.4959 1374.816 3316.5574 1157.5496 Z" fill="none" stroke="#12852D" opacity="0.2976190476190476" stroke-width="1" class="hamilton_heights"/>
<path d="M 3224.0319 1338.6807 3228.8433 1257.9122 3211.3074 1297.4975 3242.6993 1252.383 3217.7884 1325.1071 3299.0146 1175.0451 3285.2 1253.0509 3290.9697 1244.5343 3298.1228 1231.6453 3305.2768 1220.8272 3307.0985 1175.5007 3312.6431 1178.0283 3332.0503 1188.8304 3344.7579 1196.1851 3369.2481 1208.364 3398.1316 1226.7517 3392.1348 1239.6406 3376.9089 1268.1821 3360.0659 1298.1057 3346.692 1336.3119 3326.8197 1325.7389 3322.8976 1334.0252 3330.5311 1351.5093 3308.8359 1384.8894 3224.0319 1338.6807 Z" fill="none" stroke="#12852D" opacity="0.2976190476190476" stroke-width="1" class="hamilton_heights"/>
<path d="M 3408.0491 1205.8074 3469.9741 1239.8158 3322.3103 1513.0693 3251.5903 1473.0623 3185.4705 1373.9066 3308.2287 1132.7073 3410.1131 1184.1787 3408.0491 1205.8074 Z" fill="none" stroke="#12852D" opacity="0.2976190476190476" stroke-width="1" class="hamilton_heights"/>
<path d="M 3406.6636 1206.2685 3326.6288 1393.1635 3219.1787 1334.0808 3314.2443 1151.3391 3406.6636 1206.2685 Z" fill="none" stroke="#12852D" opacity="0.2976190476190476" stroke-width="1" class="hamilton_heights"/>
<path d="M 3187.3202 1377.5877 3264.871 1247.7697 3345.2781 1290.9818 3263.1416 1472.3658 3187.3202 1377.5877 Z" fill="none" stroke="#12852D" opacity="0.2976190476190476" stroke-width="1" class="hamilton_heights"/>
<path d="M 3333.3055 1355.4196 3307.4493 1383.9697 3201.1613 1335.2398 3315.6336 1157.5502 3399.7303 1199.831 3386.8258 1244.9362 3354.5378 1323.1908 3324.9784 1337.0154 3333.3055 1355.4196 Z" fill="none" stroke="#12852D" opacity="0.2976190476190476" stroke-width="1" class="hamilton_heights"/>
<path d="M 3409.4368 1208.5675 3326.3989 1395.0047 3307.4493 1383.9697 3208.5539 1336.6171 3312.3968 1151.5703 3409.4368 1208.5675 Z" fill="none" stroke="#12852D" opacity="0.2976190476190476" stroke-width="1" class="hamilton_heights"/>
<path d="M 3233.0259 1308.3019 3281.0105 1194.8416 3354.7142 1235.7532 3294.0279 1343.4764 3233.0259 1308.3019 Z" fill="none" stroke="#12852D" opacity="0.2976190476190476" stroke-width="1" class="hamilton_heights"/>
<path d="M 3259.4465 1475.1295 3234.4825 1450.2868 3326.794 1282.7094 3391.4882 1309.3605 3293.6489 1491.6816 3272.3864 1478.805 3259.4465 1475.1295 Z" fill="none" stroke="#12852D" opacity="0.2976190476190476" stroke-width="1" class="hamilton_heights"/>
<path d="M 3309.1727 1167.677 3408.0504 1207.6481 3309.2977 1384.4289 3217.7933 1335.232 3215.4833 1335.2331 3309.1727 1167.677 Z" fill="none" stroke="#12852D" opacity="0.2976190476190476" stroke-width="1" class="hamilton_heights"/>
<path d="M 3326.3991 1395.4649 3322.7018 1393.6261 3247.8322 1352.7058 3330.9019 1199.4146 3387.74 1230.2099 3326.3991 1395.4649 Z" fill="none" stroke="#12852D" opacity="0.2976190476190476" stroke-width="1" class="hamilton_heights"/>
<path d="M 3222.1843 1339.3719 3314.4746 1150.1887 3410.592 1209.0268 3325.4749 1395.2353 3222.1843 1339.3719 Z" fill="none" stroke="#12852D" opacity="0.2976190476190476" stroke-width="1" class="hamilton_heights"/>
<path d="M 3230.7343 1345.3507 3235.8161 1344.888 3251.0637 1347.6416 3257.9947 1349.4789 3230.7343 1345.3507 Z" fill="none" stroke="#12852D" opacity="0.2976190476190476" stroke-width="1" class="hamilton_heights"/>
<path d="M 3168.3724 1366.0899 3147.5734 1345.3881 3299.9234 1148.3565 3397.8828 1200.2924 3293.6185 1437.3678 3168.3724 1366.0899 Z" fill="none" stroke="#12852D" opacity="0.2976190476190476" stroke-width="1" class="hamilton_heights"/>
<path d="M 3313.3211 1152.49 3415.6749 1211.3242 3413.3679 1215.2372 3414.9877 1219.6076 3413.6055 1224.9005 3369.5398 1303.162 3355.9068 1296.0374 3348.987 1312.149 3339.7572 1328.4924 3342.5305 1330.5617 3347.1524 1333.7804 3345.307 1337.9236 3325.4747 1394.7751 3208.7836 1333.8556 3217.7839 1315.6727 3199.9912 1302.5651 3224.6835 1253.5425 3228.6112 1255.6114 3235.9958 1242.0323 3249.6268 1248.6981 3253.3194 1242.7138 3301.7732 1152.2666 3302.4643 1149.0453 3313.3211 1152.49 Z" fill="none" stroke="#12852D" opacity="0.2976190476190476" stroke-width="1" class="hamilton_heights"/>
<path d="M 3297.4478 1263.3982 3385.3513 1110.1139 3418.1509 1117.9137 3360.9896 1297.645 3297.4478 1263.3982 Z" fill="none" stroke="#12852D" opacity="0.2976190476190476" stroke-width="1" class="hamilton_heights"/>
<path d="M 3308.9315 1149.9618 3469.051 1240.9669 3318.6159 1516.9841 3157.7631 1407.0565 3308.9315 1149.9618 Z" fill="none" stroke="#12852D" opacity="0.2976190476190476" stroke-width="1" class="hamilton_heights"/>
<path d="M 3186.3974 1380.3496 3253.7821 1244.0941 3359.1461 1304.7793 3327.8041 1427.2221 3304.724 1465.8989 3223.369 1400.5834 3186.3974 1380.3496 Z" fill="none" stroke="#12852D" opacity="0.2976190476190476" stroke-width="1" class="hamilton_heights"/>
<path d="M 3218.7186 1337.9929 3346.0655 1069.1896 3411.2135 1104.8052 3307.4504 1385.8107 3218.7186 1337.9929 Z" fill="none" stroke="#12852D" opacity="0.2976190476190476" stroke-width="1" class="hamilton_heights"/>
<path d="M 3312.8608 1155.2511 3398.8073 1201.2121 3374.8319 1271.1746 3355.9097 1300.6395 3328.2409 1384.8781 3306.5585 1441.9632 3297.7865 1454.3957 3283.4723 1471.8946 3275.1621 1484.7873 3252.5138 1471.9111 3221.996 1427.7395 3192.8676 1384.4889 3312.8608 1155.2511 Z" fill="none" stroke="#12852D" opacity="0.2976190476190476" stroke-width="1" class="hamilton_heights"/>
<path d="M 3317.2535 1150.2689 3412.9866 1207.5453 3268.5621 1483.4762 3189.9575 1367.5274 3317.2535 1150.2689 Z" fill="none" stroke="#12852D" opacity="0.2976190476190476" stroke-width="1" class="hamilton_heights"/>
<path d="M 3312.8573 1149.2693 3397.8825 1199.8322 3378.5232 1264.2694 3362.8391 1300.1749 3325.9374 1395.9254 3227.0355 1339.8298 3312.8573 1149.2693 Z" fill="none" stroke="#12852D" opacity="0.2976190476190476" stroke-width="1" class="hamilton_heights"/>
<path d="M 3221.9519 1336.6107 3280.576 1245.0002 3366.5315 1294.6501 3309.2966 1382.5879 3221.9519 1336.6107 Z" fill="none" stroke="#12852D" opacity="0.2976190476190476" stroke-width="1" class="hamilton_heights"/>
<path d="M 3275.1628 1486.1682 3253.4396 1475.1326 3186.3939 1372.5254 3268.1039 1246.3875 3359.1421 1298.3364 3311.1732 1431.8345 3275.1628 1486.1682 Z" fill="none" stroke="#12852D" opacity="0.2976190476190476" stroke-width="1" class="hamilton_heights"/>
<path d="M 3205.3212 1339.3799 3217.0899 1313.6021 3200.6848 1303.9454 3225.3766 1254.0023 3227.9183 1255.8418 3234.8411 1242.4931 3248.7034 1249.6189 3254.4742 1242.4831 3281.2737 1253.7433 3342.9678 1290.2929 3319.8947 1334.2571 3327.7528 1341.1558 3327.5309 1356.3435 3317.8384 1372.9178 3305.1385 1382.8204 3288.2702 1374.7757 3233.5049 1342.588 3213.8682 1339.3759 3205.3212 1339.3799 Z" fill="none" stroke="#12852D" opacity="0.2976190476190476" stroke-width="1" class="hamilton_heights"/>
<path d="M 3346.6924 1337.0023 3324.2785 1325.5103 3295.4329 1377.303 3270.0291 1390.8942 3239.9885 1373.4205 3298.3726 1265.0084 3343.1988 1290.2928 3358.9111 1298.3366 3346.6924 1337.0023 Z" fill="none" stroke="#12852D" opacity="0.2976190476190476" stroke-width="1" class="hamilton_heights"/>
<path d="M 3222.5303 1338.3362 3210.6311 1332.7042 3304.7733 1148.1237 3410.1288 1207.1865 3359.8332 1295.3447 3326.1677 1394.7747 3222.5303 1338.3362 Z" fill="none" stroke="#12852D" opacity="0.2976190476190476" stroke-width="1" class="hamilton_heights"/>
<path d="M 3317.477 1150.1869 3335.0354 1159.8394 3417.2958 1217.3052 3337.0211 1387.6343 3217.7915 1331.5502 3317.477 1150.1869 Z" fill="none" stroke="#12852D" opacity="0.2976190476190476" stroke-width="1" class="hamilton_heights"/>
<path d="M 3307.3715 1248.6666 3295.3632 1253.2753 3351.6666 1163.5103 3307.3715 1248.6666 Z" fill="none" stroke="#12852D" opacity="0.2976190476190476" stroke-width="1" class="hamilton_heights"/>
<path d="M 3387.7397 1229.7498 3369.7302 1239.8853 3346.2009 1289.1404 3282.4299 1256.0436 3311.0121 1153.4116 3345.6673 1172.7168 3396.0339 1198.453 3387.7397 1229.7498 Z" fill="none" stroke="#12852D" opacity="0.2976190476190476" stroke-width="1" class="hamilton_heights"/>
<path d="M 3223.108 1338.9112 3292.5894 1249.5954 3393.0742 1262.8792 3326.1682 1395.6952 3223.108 1338.9112 Z" fill="none" stroke="#12852D" opacity="0.2976190476190476" stroke-width="1" class="hamilton_heights"/>
<path d="M 3122.6418 1389.5808 3163.3056 1402.4516 3308.2406 1153.4132 3396.9602 1202.1336 3294.5591 1466.8252 3122.6418 1389.5808 Z" fill="none" stroke="#12852D" opacity="0.2976190476190476" stroke-width="1" class="hamilton_heights"/>
<path d="M 3265.7934 1245.0082 3304.5414 1146.5133 3395.1109 1199.8341 3381.2842 1247.7009 3358.2164 1295.5758 3265.7934 1245.0082 Z" fill="none" stroke="#12852D" opacity="0.2976190476190476" stroke-width="1" class="hamilton_heights"/>
<path d="M 3391.4912 1313.9626 3314.8867 1461.2902 3203.0293 1378.501 3291.6681 1254.1977 3391.4912 1313.9626 Z" fill="none" stroke="#12852D" opacity="0.2976190476190476" stroke-width="1" class="hamilton_heights"/>
<path d="M 3190.0931 1379.4274 3306.3907 1149.5031 3396.2659 1200.0634 3384.0456 1232.053 3281.6163 1457.6267 3291.7852 1464.0651 3276.085 1482.4853 3250.2033 1471.452 3190.0931 1379.4274 Z" fill="none" stroke="#12852D" opacity="0.2976190476190476" stroke-width="1" class="hamilton_heights"/>
<path d="M 3192.8674 1384.0286 3253.794 1267.1034 3310.0843 1146.5102 3322.0993 1155.7058 3408.9727 1205.3466 3292.6604 1376.6142 3257.5992 1476.9716 3192.8674 1384.0286 Z" fill="none" stroke="#12852D" opacity="0.2976190476190476" stroke-width="1" class="hamilton_heights"/>
<path d="M 3314.0133 1151.3393 3323.0233 1155.9354 3322.5637 1159.8468 3381.2484 1192.9409 3409.6675 1208.1071 3409.4394 1212.2488 3414.9885 1220.758 3369.5396 1302.9319 3355.9362 1342.9795 3324.9717 1325.74 3319.2023 1335.1779 3326.596 1338.165 3330.2994 1350.3589 3319.6844 1369.4649 3306.0636 1384.6609 3223.5704 1339.6014 3241.5759 1314.7406 3248.0361 1299.7804 3254.9597 1287.8116 3261.1925 1280.4451 3271.5827 1272.6163 3295.3529 1234.8681 3309.8819 1195.9758 3306.6377 1177.3415 3308.2479 1166.067 3312.3977 1153.1808 3314.0133 1151.3393 Z" fill="none" stroke="#12852D" opacity="0.2976190476190476" stroke-width="1" class="hamilton_heights"/>
<path d="M 3314.7564 1237.6181 3374.8322 1271.6348 3325.0117 1393.1645 3249.2187 1353.6256 3314.7564 1237.6181 Z" fill="none" stroke="#12852D" opacity="0.2976190476190476" stroke-width="1" class="hamilton_heights"/>
<path d="M 3237.8688 1292.4223 3286.3395 1225.2095 3303.1734 1177.5736 3313.0907 1153.4104 3417.5243 1213.6237 3368.8461 1302.0119 3355.2432 1342.9799 3341.1676 1368.5316 3294.9514 1342.5555 3304.1824 1326.6725 3237.8688 1292.4223 Z" fill="none" stroke="#12852D" opacity="0.2976190476190476" stroke-width="1" class="hamilton_heights"/>
<path d="M 3321.1777 1159.3875 3425.6118 1218.6799 3326.3994 1395.9252 3221.9528 1338.4516 3321.1777 1159.3875 Z" fill="none" stroke="#12852D" opacity="0.2976190476190476" stroke-width="1" class="hamilton_heights"/>
<path d="M 3440.3989 1225.572 3340.2656 1404.6617 3191.4534 1322.3581 3230.2208 1240.8848 3302.2326 1147.8951 3440.3989 1225.572 Z" fill="none" stroke="#12852D" opacity="0.2976190476190476" stroke-width="1" class="hamilton_heights"/>
<path d="M 3268.6781 1456.7131 3240.4827 1437.3961 3278.5657 1370.8689 3250.6044 1352.9345 3296.0617 1263.1689 3343.8902 1287.7612 3319.2012 1333.337 3329.1457 1352.6607 3305.8318 1383.2803 3291.3073 1435.7581 3278.616 1463.3819 3268.6781 1456.7131 Z" fill="none" stroke="#12852D" opacity="0.2976190476190476" stroke-width="1" class="hamilton_heights"/>
<path d="M 3408.9746 1208.1076 3359.1421 1298.3364 3345.3064 1337.0031 3310.1832 1317.6948 3280.1821 1369.7175 3222.8768 1338.4511 3315.169 1152.9491 3408.9746 1208.1076 Z" fill="none" stroke="#12852D" opacity="0.2976190476190476" stroke-width="1" class="hamilton_heights"/>
<path d="M 3305.1632 1262.8573 3302.7326 1229.2278 3309.1892 1210.8173 3329.5448 1125.4691 3348.5222 1086.4749 3380.7762 967.7551 3401.0783 941.0594 3434.0186 914.355 3464.38 903.6238 3514.2642 917.386 3521.6758 945.9019 3521.4224 967.3667 3505.7342 984.861 3492.3344 1008.3999 3448.0524 1083.8867 3447.1359 1094.0097 3465.659 1154.5629 3473.1235 1253.0316 3432.5179 1319.3301 3305.1632 1262.8573 Z" fill="none" stroke="#12852D" opacity="0.2976190476190476" stroke-width="1" class="hamilton_heights"/>
<path d="M 3186.3974 1380.3496 3265.7968 1251.4507 3344.3547 1291.9028 3329.5868 1317.6834 3301.8883 1354.5175 3269.586 1426.3345 3260.3721 1477.8908 3250.2009 1466.8491 3186.3974 1380.3496 Z" fill="none" stroke="#12852D" opacity="0.2976190476190476" stroke-width="1" class="hamilton_heights"/>
<path d="M 3221.0286 1337.9918 3267.6434 1249.1488 3328.1791 1281.3279 3279.2578 1369.2577 3221.0286 1337.9918 Z" fill="none" stroke="#12852D" opacity="0.2976190476190476" stroke-width="1" class="hamilton_heights"/>
<path d="M 3208.5922 1418.0803 3350.7447 1166.7318 3449.6431 1232.9281 3328.7667 1491.6613 3208.5922 1418.0803 Z" fill="none" stroke="#12852D" opacity="0.2976190476190476" stroke-width="1" class="hamilton_heights"/>
<path d="M 3355.6761 1296.4978 3323.1642 1394.3162 3223.8012 1339.141 3281.7369 1256.044 3355.6761 1296.4978 Z" fill="none" stroke="#12852D" opacity="0.2976190476190476" stroke-width="1" class="hamilton_heights"/>
<path d="M 3307.0983 1175.0405 3369.4794 1208.824 3379.1682 1190.6415 3396.2664 1200.7536 3408.5119 1206.9575 3414.9866 1217.997 3369.3086 1302.932 3359.3721 1296.7256 3345.3063 1336.773 3323.585 1324.5903 3318.9705 1333.7974 3327.2908 1341.1561 3327.7602 1353.582 3322.2232 1365.5514 3313.4503 1374.7614 3304.2157 1384.8921 3221.4902 1337.0711 3240.8842 1317.2721 3247.8021 1293.7979 3263.5016 1279.0633 3282.4284 1253.2825 3301.8116 1219.6788 3306.4186 1198.0485 3307.0983 1175.0405 Z" fill="none" stroke="#12852D" opacity="0.2976190476190476" stroke-width="1" class="hamilton_heights"/>
<path d="M 3234.6179 1341.7735 3232.1933 1343.6156 3262.5858 1356.8598 3275.3291 1366.4102 3294.8121 1374.4505 3304.9747 1380.9996 3320.3147 1363.3618 3326.0832 1352.0826 3320.9185 1338.594 3311.3056 1332.6538 3319.502 1325.7457 3324.5813 1316.6439 3318.0649 1311.5832 3327.5336 1308.2411 3314.9456 1310.0893 3310.5221 1332.9125 3301.0478 1327.1651 3291.4301 1320.7334 3281.9562 1315.216 3261.3852 1305.3536 3250.4432 1298.7278 3262.2396 1282.3613 3274.3814 1276.8419 3284.4533 1258.9801 3340.3177 1291.1098 3326.2408 1313.6684 3323.8593 1315.1563 3234.6179 1341.7735 Z" fill="none" stroke="#12852D" opacity="0.2976190476190476" stroke-width="1" class="hamilton_heights"/>
<path d="M 3268.3385 1253.06 3355.4451 1296.4979 3285.0636 1424.7151 3195.8588 1358.2538 3268.3385 1253.06 Z" fill="none" stroke="#12852D" opacity="0.2976190476190476" stroke-width="1" class="hamilton_heights"/>
<path d="M 3222.646 1338.9115 3230.7271 1330.8536 3237.7684 1322.4511 3242.6146 1313.1293 3246.1905 1304.3835 3247.5743 1300.0108 3249.1885 1294.7176 3252.8821 1290.3438 3254.7284 1287.2364 3257.8452 1284.3586 3260.7312 1281.7109 3271.5826 1272.5012 3274.1217 1269.2785 3278.1594 1260.8779 3282.1979 1254.203 3286.0069 1250.2893 3289.5845 1245.6855 3293.3918 1238.7807 3296.045 1233.4872 3299.2757 1228.1934 3301.0053 1223.4756 3302.7345 1218.0677 3303.4255 1214.616 3304.0005 1210.4742 3304.2298 1207.483 3305.0361 1203.8013 3306.8807 1198.2783 3307.5714 1194.5967 3308.7226 1188.2689 3307.7951 1181.9423 3306.6366 1175.5009 3311.0136 1156.0574 3313.8981 1151.7995 3322.3303 1155.7057 3322.1009 1158.3516 3337.1186 1167.5455 3407.3566 1206.2681 3408.86 1209.3731 3359.8347 1297.7607 3325.7054 1394.3147 3222.646 1338.9115 Z" fill="none" stroke="#12852D" opacity="0.2976190476190476" stroke-width="1" class="hamilton_heights"/>
<path d="M 3299.9218 1145.5957 3419.141 1213.6226 3371.1542 1299.2492 3354.5487 1340.6792 3322.1993 1325.0513 3318.5076 1332.417 3324.0527 1334.2546 3330.5295 1348.978 3324.0685 1360.9479 3304.6772 1383.9713 3203.0076 1331.5572 3215.9351 1314.0628 3194.6778 1301.1869 3235.2988 1233.9796 3248.2405 1247.7784 3265.7807 1221.0791 3299.9218 1145.5957 Z" fill="none" stroke="#12852D" opacity="0.2976190476190476" stroke-width="1" class="hamilton_heights"/>
<path d="M 3223.108 1338.9112 3236.2675 1323.7174 3241.5764 1315.661 3246.8814 1300.2412 3251.4963 1290.5746 3271.3512 1271.696 3281.5053 1254.8936 3289.1226 1245.6858 3304.1204 1218.0669 3311.4941 1188.1522 3306.1742 1174.5809 3309.6286 1157.3236 3314.4756 1152.0292 3321.6367 1154.5558 3322.794 1158.6963 3348.2086 1173.8656 3407.3566 1206.2681 3409.2068 1209.9481 3414.2919 1215.4666 3414.2957 1220.9886 3369.539 1302.0115 3355.7044 1341.8291 3326.1681 1395.4651 3223.108 1338.9112 Z" fill="none" stroke="#12852D" opacity="0.2976190476190476" stroke-width="1" class="hamilton_heights"/>
<path d="M 3409.8988 1208.5671 3416.3754 1222.3677 3370.0029 1305.0025 3357.091 1342.7486 3369.8019 1351.7151 3342.3459 1406.5014 3215.9459 1336.6136 3310.5528 1158.0133 3311.2443 1155.4821 3409.8988 1208.5671 Z" fill="none" stroke="#12852D" opacity="0.2976190476190476" stroke-width="1" class="hamilton_heights"/>
<path d="M 3265.7934 1245.0082 3383.4037 1309.8261 3307.7134 1441.5023 3180.8498 1372.758 3223.3265 1313.1389 3216.8587 1313.142 3265.7934 1245.0082 Z" fill="none" stroke="#12852D" opacity="0.2976190476190476" stroke-width="1" class="hamilton_heights"/>
<path d="M 3271.3401 1250.9876 3361.9153 1300.4056 3294.3234 1458.5402 3182.9347 1385.8741 3271.3401 1250.9876 Z" fill="none" stroke="#12852D" opacity="0.2976190476190476" stroke-width="1" class="hamilton_heights"/>
<path d="M 3306.8671 1174.5805 3398.8235 1225.3707 3359.1415 1297.416 3345.9993 1336.7726 3324.2783 1325.0501 3318.9703 1333.5673 3326.1338 1337.7051 3330.7608 1349.4381 3329.608 1353.1207 3318.0688 1371.9972 3312.0646 1375.4525 3306.9875 1384.4303 3223.8013 1339.3711 3236.0364 1323.4875 3245.9583 1301.8524 3254.7282 1286.8913 3271.3519 1273.0766 3281.2746 1255.3539 3288.4308 1247.757 3298.814 1228.6538 3302.5041 1218.9881 3306.8671 1174.5805 Z" fill="none" stroke="#12852D" opacity="0.2976190476190476" stroke-width="1" class="hamilton_heights"/>
<path d="M 3294.4032 1188.8522 3299.0219 1187.9293 3385.8801 1211.8044 3300.058 1385.815 3219.6461 1345.3561 3294.4032 1188.8522 Z" fill="none" stroke="#12852D" opacity="0.2976190476190476" stroke-width="1" class="hamilton_heights"/>
<path d="M 3306.0636 1384.6609 3224.0318 1338.4506 3313.5523 1152.95 3379.6315 1192.7119 3306.0636 1384.6609 Z" fill="none" stroke="#12852D" opacity="0.2976190476190476" stroke-width="1" class="hamilton_heights"/>
<path d="M 3313.7833 1152.9499 3439.9363 1224.652 3371.1869 1350.1034 3250.8004 1285.0525 3247.7976 1285.0541 3313.7833 1152.9499 Z" fill="none" stroke="#12852D" opacity="0.2976190476190476" stroke-width="1" class="hamilton_heights"/>
<path d="M 3220.328 1435.3937 3196.5272 1397.5114 3281.6565 1250.924 3308.0279 1244.5402 3412.9104 1315.8967 3395.4064 1393.2278 3303.0406 1463.2458 3254.3641 1452.5321 3220.328 1435.3937 Z" fill="none" stroke="#12852D" opacity="0.2976190476190476" stroke-width="1" class="hamilton_heights"/>
<path d="M 3336.982 1323.2016 3268.5858 1283.6626 3324.873 1159.3853 3417.2933 1213.6239 3336.982 1323.2016 Z" fill="none" stroke="#12852D" opacity="0.2976190476190476" stroke-width="1" class="hamilton_heights"/>
<path d="M 3320.7334 1189.2972 3387.7367 1225.148 3344.3816 1335.623 3320.8125 1323.6714 3294.9703 1376.1527 3225.1871 1338.9102 3218.2548 1334.3113 3302.2476 1174.123 3320.7334 1189.2972 Z" fill="none" stroke="#12852D" opacity="0.2976190476190476" stroke-width="1" class="hamilton_heights"/>
<path d="M 3211.5552 1332.9339 3222.3774 1261.1366 3267.1812 1248.6889 3378.0896 1307.9887 3330.5593 1398.6842 3211.5552 1332.9339 Z" fill="none" stroke="#12852D" opacity="0.2976190476190476" stroke-width="1" class="hamilton_heights"/>
<path d="M 3320.0291 1154.1564 3379.8616 1191.4141 3328.3722 1279.6067 3344.4224 1289.2888 3294.8743 1377.9707 3222.3873 1338.7643 3313.7076 1149.8026 3320.0291 1154.1564 Z" fill="none" stroke="#12852D" opacity="0.2976190476190476" stroke-width="1" class="hamilton_heights"/>
<path d="M 3217.1007 1336.1528 3312.3965 1151.1102 3425.8414 1216.8391 3325.2449 1396.8464 3217.1007 1336.1528 Z" fill="none" stroke="#12852D" opacity="0.2976190476190476" stroke-width="1" class="hamilton_heights"/>
<path d="M 3395.1115 1200.7544 3337.9066 1324.1214 3335.1368 1327.8049 3312.954 1315.8524 3376.6294 1193.4041 3395.1115 1200.7544 Z" fill="none" stroke="#12852D" opacity="0.2976190476190476" stroke-width="1" class="hamilton_heights"/>
<path d="M 3314.4756 1152.0292 3396.4976 1201.2136 3378.06 1262.4289 3359.3726 1297.646 3326.1685 1396.1554 3223.3393 1339.3714 3314.4756 1152.0292 Z" fill="none" stroke="#12852D" opacity="0.2976190476190476" stroke-width="1" class="hamilton_heights"/>
<path d="M 3347.9778 1174.0959 3405.5091 1206.7295 3403.199 1206.0408 3349.8269 1176.3955 3346.1306 1175.0173 3343.1855 1268.6635 3351.0394 1269.3489 3349.6472 1259.2256 3345.9558 1266.1308 3353.5616 1239.4354 3348.2146 1183.5288 3344.7948 1256.2374 3346.8221 1172.7161 3408.5122 1207.4177 3414.9883 1220.528 3355.4732 1341.369 3257.7312 1287.1198 3313.3209 1152.0299 3347.9778 1174.0959 Z" fill="none" stroke="#12852D" opacity="0.2976190476190476" stroke-width="1" class="hamilton_heights"/>
<path d="M 3311.4721 1150.1904 3411.2846 1208.5662 3326.3991 1395.4649 3215.9435 1331.5511 3257.4455 1182.4301 3311.4721 1150.1904 Z" fill="none" stroke="#12852D" opacity="0.2976190476190476" stroke-width="1" class="hamilton_heights"/>
<path d="M 3340.2656 1404.6617 3210.1687 1332.0141 3200.9155 1303.2549 3230.6828 1241.1146 3305.4685 1152.2645 3440.1674 1224.8819 3340.2656 1404.6617 Z" fill="none" stroke="#12852D" opacity="0.2976190476190476" stroke-width="1" class="hamilton_heights"/>
<path d="M 3396.9587 1199.8329 3288.0489 1392.2652 3272.3375 1387.6713 3295.4036 1325.0667 3288.9755 1396.8672 3201.1681 1349.9671 3315.6304 1152.0285 3396.9587 1199.8329 Z" fill="none" stroke="#12852D" opacity="0.2976190476190476" stroke-width="1" class="hamilton_heights"/>
<path d="M 3306.8671 1174.5805 3409.914 1230.8853 3370.0015 1302.7015 3360.2963 1297.1852 3346.23 1336.3122 3324.7403 1325.0498 3295.2022 1377.7634 3223.1082 1339.1414 3306.8671 1174.5805 Z" fill="none" stroke="#12852D" opacity="0.2976190476190476" stroke-width="1" class="hamilton_heights"/>
<path d="M 3282.1983 1254.8932 3370.6949 1303.3914 3356.3974 1341.8286 3325.4753 1395.9257 3217.5614 1333.3912 3282.1983 1254.8932 Z" fill="none" stroke="#12852D" opacity="0.2976190476190476" stroke-width="1" class="hamilton_heights"/>
<path d="M 3236.0992 1449.3654 3191.25 1383.339 3263.2535 1246.6201 3328.8714 1280.177 3236.0992 1449.3654 Z" fill="none" stroke="#12852D" opacity="0.2976190476190476" stroke-width="1" class="hamilton_heights"/>
<path d="M 3310.0859 1149.271 3378.4753 1190.6419 3291.7163 1340.7164 3225.1722 1308.5358 3310.0859 1149.271 Z" fill="none" stroke="#12852D" opacity="0.2976190476190476" stroke-width="1" class="hamilton_heights"/>
<path d="M 3345.8997 1175.0174 3471.592 1241.1951 3400.9984 1368.0329 3251.7304 1296.7872 3321.6398 1159.8473 3345.8997 1175.0174 Z" fill="none" stroke="#12852D" opacity="0.2976190476190476" stroke-width="1" class="hamilton_heights"/>
<path d="M 3209.9373 1331.0937 3305.4639 1144.2122 3439.0127 1225.1128 3341.6514 1404.2006 3328.0153 1393.8531 3209.9373 1331.0937 Z" fill="none" stroke="#12852D" opacity="0.2976190476190476" stroke-width="1" class="hamilton_heights"/>
<path d="M 3468.248 1403.1942 3240.8645 1278.1546 3317.4727 1142.8248 3465.3529 1237.5183 3473.7869 1395.826 3468.248 1403.1942 Z" fill="none" stroke="#12852D" opacity="0.2976190476190476" stroke-width="1" class="hamilton_heights"/>
<path d="M 3306.525 1383.51 3295.4328 1377.0729 3210.1699 1334.5453 3277.1062 1235.5684 3353.8121 1270.7278 3346.6716 1303.1764 3335.8311 1329.8755 3325.4333 1325.0494 3319.6641 1334.9475 3325.6719 1337.9355 3331.223 1349.668 3306.525 1383.51 Z" fill="none" stroke="#12852D" opacity="0.2976190476190476" stroke-width="1" class="hamilton_heights"/>
<path d="M 3269.615 1480.6476 3260.3736 1480.6525 3245.5629 1432.7908 3268.6425 1389.9745 3248.3081 1379.8597 3240.9244 1396.8926 3230.7565 1390.4542 3236.2914 1371.5813 3206.7145 1355.0271 3220.5582 1320.5036 3198.8386 1307.6279 3238.0754 1243.6419 3281.9659 1252.3624 3344.8139 1287.3005 3340.6606 1294.6662 3348.0568 1302.025 3338.8294 1322.28 3328.6675 1325.5077 3319.8917 1329.1946 3330.0686 1350.8192 3305.1387 1383.0506 3306.5387 1407.4432 3269.615 1480.6476 Z" fill="none" stroke="#12852D" opacity="0.2976190476190476" stroke-width="1" class="hamilton_heights"/>
<path d="M 3239.0476 1339.8238 3317.4872 1167.6722 3321.1766 1157.5469 3226.1075 1331.5462 3328.5688 1160.3034 3362.7598 1175.0069 3408.0438 1197.9847 3380.3657 1255.9848 3368.3788 1293.7285 3349.0047 1340.6827 3324.0887 1395.006 3305.597 1376.6069 3294.5054 1371.0902 3264.9324 1363.7425 3239.0476 1339.8238 Z" fill="none" stroke="#12852D" opacity="0.2976190476190476" stroke-width="1" class="hamilton_heights"/>
<path d="M 3223.1077 1338.2209 3239.4982 1317.1577 3251.15 1291.035 3271.5812 1269.8551 3291.4309 1243.1535 3303.3093 1213.4657 3308.0223 1175.3851 3368.6713 1209.3997 3379.1687 1191.4467 3408.2813 1207.5329 3414.8699 1216.2715 3413.8362 1224.5552 3399.9943 1248.954 3370.0018 1303.1617 3355.5894 1342.5195 3325.5906 1395.5805 3223.1077 1338.2209 Z" fill="none" stroke="#12852D" opacity="0.2976190476190476" stroke-width="1" class="hamilton_heights"/>
<path d="M 3313.016 1422.6281 3361.0929 1461.2621 3279.8473 1603.0883 3218.8425 1595.7539 3313.016 1422.6281 Z" fill="none" stroke="#12852D" opacity="0.2976190476190476" stroke-width="1" class="hamilton_heights"/>
<path d="M 3295.3552 1239.0097 3341.0046 1101.3999 3435.2567 1139.9877 3352.1946 1269.8084 3299.0521 1241.3085 3295.3552 1239.0097 Z" fill="none" stroke="#12852D" opacity="0.2976190476190476" stroke-width="1" class="hamilton_heights"/>
<path d="M 3215.9475 1339.8351 3320.6952 1124.4179 3483.8131 1214.0357 3369.3841 1420.7526 3215.9475 1339.8351 Z" fill="none" stroke="#12852D" opacity="0.2976190476190476" stroke-width="1" class="hamilton_heights"/>
<path d="M 3309.9514 1316.3143 3279.0266 1368.7976 3248.0631 1352.4756 3299.5291 1267.7689 3301.1465 1268.6883 3356.8319 1297.8777 3345.0744 1335.3925 3309.9514 1316.3143 Z" fill="none" stroke="#12852D" opacity="0.2976190476190476" stroke-width="1" class="hamilton_heights"/>
<path d="M 3396.9594 1200.9832 3386.3545 1230.671 3369.7326 1243.5667 3293.5845 1376.6137 3210.3987 1329.7129 3306.6199 1146.2821 3307.0826 1147.6622 3396.9594 1200.9832 Z" fill="none" stroke="#12852D" opacity="0.2976190476190476" stroke-width="1" class="hamilton_heights"/>
<path d="M 3274.7005 1485.7081 3250.6661 1472.8326 3191.9431 1383.5688 3215.0252 1343.5174 3235.344 1324.6383 3249.6495 1292.8765 3283.3533 1255.1227 3359.1424 1298.7966 3326.8592 1392.2429 3274.7005 1485.7081 Z" fill="none" stroke="#12852D" opacity="0.2976190476190476" stroke-width="1" class="hamilton_heights"/>
<path d="M 3222.5303 1338.3362 3210.0538 1333.1647 3214.4405 1328.3303 3219.8622 1314.4061 3201.6079 1301.989 3225.0306 1254.9228 3229.7659 1255.2657 3235.881 1243.4129 3250.5517 1250.5383 3259.8991 1236.7281 3277.7811 1202.436 3285.7409 1186.7864 3302.0044 1152.6116 3313.6682 1153.6402 3326.2591 1159.9596 3347.2842 1173.061 3379.7457 1190.7561 3407.9344 1206.9579 3409.6691 1210.408 3412.4419 1212.1317 3415.1013 1216.8465 3414.9889 1221.3333 3409.5688 1232.7262 3369.3092 1303.7374 3356.8582 1339.7573 3325.821 1394.5448 3280.6443 1370.0624 3248.8717 1352.5902 3222.5303 1338.3362 Z" fill="none" stroke="#12852D" opacity="0.2976190476190476" stroke-width="1" class="hamilton_heights"/>
<path d="M 3282.1989 1256.0437 3359.3731 1298.3363 3306.5256 1384.6606 3223.3388 1338.4509 3282.1989 1256.0437 Z" fill="none" stroke="#12852D" opacity="0.2976190476190476" stroke-width="1" class="hamilton_heights"/>
<path d="M 3318.1909 1186.0777 3318.1736 1156.6284 3347.0458 1160.9824 3345.6724 1180.9995 3318.1909 1186.0777 Z" fill="none" stroke="#12852D" opacity="0.2976190476190476" stroke-width="1" class="hamilton_heights"/>
<path d="M 3307.0983 1175.0405 3389.1196 1220.7755 3385.4306 1230.6716 3367.4232 1244.2585 3319.6635 1333.797 3325.4413 1338.6259 3328.9106 1345.7574 3328.6844 1353.8116 3322.4542 1365.5513 3317.3761 1372.4579 3310.4479 1376.1438 3306.7564 1384.2003 3221.7219 1338.6818 3209.9392 1335.0056 3218.7077 1315.4422 3200.2224 1303.0252 3225.3765 1253.7722 3229.0729 1255.151 3236.4579 1242.4923 3250.0886 1248.2376 3255.1681 1244.3235 3293.4689 1170.2167 3307.0983 1175.0405 Z" fill="none" stroke="#12852D" opacity="0.2976190476190476" stroke-width="1" class="hamilton_heights"/>
<path d="M 3245.5222 1352.707 3214.0977 1336.1542 3286.121 1247.7582 3389.6305 1294.6351 3397.9486 1298.3112 3345.3471 1403.2778 3245.5222 1352.707 Z" fill="none" stroke="#12852D" opacity="0.2976190476190476" stroke-width="1" class="hamilton_heights"/>
<path d="M 3306.7526 1176.3061 3369.3646 1209.9745 3280.0676 1371.5585 3216.8716 1340.0648 3303.6361 1178.9538 3306.7526 1176.3061 Z" fill="none" stroke="#12852D" opacity="0.2976190476190476" stroke-width="1" class="hamilton_heights"/>
<path d="M 3409.6678 1208.5673 3325.013 1395.4657 3216.8712 1339.3745 3313.5521 1152.4899 3409.6678 1208.5673 Z" fill="none" stroke="#12852D" opacity="0.2976190476190476" stroke-width="1" class="hamilton_heights"/>
<path d="M 3231.4202 1331.0834 3286.1281 1260.6434 3328.8722 1281.5576 3285.7215 1360.9699 3231.4202 1331.0834 Z" fill="none" stroke="#12852D" opacity="0.2976190476190476" stroke-width="1" class="hamilton_heights"/>
<path d="M 3232.5722 1325.0999 3291.1476 1258.6379 3348.4452 1281.6138 3306.5157 1367.4015 3232.5722 1325.0999 Z" fill="none" stroke="#12852D" opacity="0.2976190476190476" stroke-width="1" class="hamilton_heights"/>
<path d="M 3394.6493 1200.2946 3395.1137 1203.9755 3294.9721 1379.3744 3227.9597 1340.2896 3316.5561 1155.249 3394.6493 1200.2946 Z" fill="none" stroke="#12852D" opacity="0.2976190476190476" stroke-width="1" class="hamilton_heights"/>
<path d="M 3385.4091 1197.9999 3395.1177 1209.9576 3407.1287 1210.8699 3395.1272 1224.2228 3378.5187 1257.3666 3363.7467 1274.4031 3355.4422 1291.8959 3346.2244 1327.3379 3337.4479 1329.6444 3318.4979 1315.8491 3311.0989 1303.4277 3295.8487 1295.1527 3280.5999 1288.7183 3270.4287 1274.4577 3269.9611 1263.8735 3277.8033 1243.161 3288.8797 1224.2877 3298.5673 1200.8139 3296.0296 1206.1072 3301.3354 1194.6002 3307.5655 1184.2432 3308.7147 1174.5794 3309.1642 1152.9526 3324.8631 1142.8204 3338.7075 1121.6464 3382.1413 1145.5455 3400.6306 1164.859 3419.1245 1189.6943 3397.8807 1197.0713 3412.6644 1199.8222 3355.8356 1182.3736 3364.1544 1188.8105 3375.2445 1194.7854 3385.4091 1197.9999 Z" fill="none" stroke="#12852D" opacity="0.2976190476190476" stroke-width="1" class="hamilton_heights"/>
<path d="M 3321.6409 1161.6879 3317.0221 1162.1508 3353.9965 1196.1794 3410.828 1216.3893 3328.2277 1362.7864 3224.7159 1320.0414 3328.169 1264.3008 3321.6409 1161.6879 Z" fill="none" stroke="#12852D" opacity="0.2976190476190476" stroke-width="1" class="hamilton_heights"/>
<path d="M 3209.7074 1333.395 3218.4772 1316.3627 3215.0112 1314.0633 3215.9342 1311.9919 3199.068 1304.1762 3224.6836 1253.7725 3227.9186 1256.302 3235.5338 1242.0326 3249.6273 1249.6184 3288.8534 1176.8914 3386.5849 1229.7505 3369.2702 1242.8768 3294.0474 1378.2243 3209.7074 1333.395 Z" fill="none" stroke="#12852D" opacity="0.2976190476190476" stroke-width="1" class="hamilton_heights"/>
<path d="M 3346.1323 1177.7782 3461.6566 1236.6007 3518.3416 1646.2023 3517.4246 1655.4106 3171.6456 1456.7599 3346.1323 1177.7782 Z" fill="none" stroke="#12852D" opacity="0.2976190476190476" stroke-width="1" class="hamilton_heights"/>
<path d="M 3409.4368 1208.5675 3426.5342 1216.6085 3421.9293 1237.5495 3380.6297 1306.6064 3361.6828 1298.1047 3344.8151 1289.3714 3369.2708 1243.7971 3387.739 1228.5993 3396.2662 1200.5236 3406.6635 1206.0385 3412.8995 1205.8041 3409.4368 1208.5675 Z" fill="none" stroke="#12852D" opacity="0.2976190476190476" stroke-width="1" class="hamilton_heights"/>
<path d="M 3380.3236 1191.561 3329.1028 1280.8672 3310.6452 1317.6946 3346.2304 1337.0026 3326.3989 1395.0047 3219.6421 1337.072 3222.4157 1340.2923 3312.3962 1150.65 3380.3236 1191.561 Z" fill="none" stroke="#12852D" opacity="0.2976190476190476" stroke-width="1" class="hamilton_heights"/>
<path d="M 3345.2764 1288.2206 3339.2767 1298.1186 3347.3645 1303.1759 3334.444 1328.0354 3295.4328 1377.0729 3269.5656 1388.133 3207.4072 1354.3364 3281.7363 1254.8935 3345.2764 1288.2206 Z" fill="none" stroke="#12852D" opacity="0.2976190476190476" stroke-width="1" class="hamilton_heights"/>
<path d="M 3305.7908 1150.3777 3419.2791 1212.8862 3303.7424 1446.1994 3179.8824 1379.432 3304.6826 1151.1146 3305.7908 1150.3777 Z" fill="none" stroke="#12852D" opacity="0.2976190476190476" stroke-width="1" class="hamilton_heights"/>
<path d="M 3214.1038 1349.0406 3281.5014 1247.7608 3370.2243 1290.0457 3324.0849 1388.5625 3228.8813 1335.2266 3214.1038 1349.0406 Z" fill="none" stroke="#12852D" opacity="0.2976190476190476" stroke-width="1" class="hamilton_heights"/>
<path d="M 3395.1128 1202.595 3324.0903 1397.7676 3214.0916 1323.268 3311.0102 1150.1907 3335.0401 1167.6617 3395.1128 1202.595 Z" fill="none" stroke="#12852D" opacity="0.2976190476190476" stroke-width="1" class="hamilton_heights"/>
<path d="M 3214.6745 1334.7733 3309.1631 1151.112 3439.4743 1224.6523 3340.7268 1403.2806 3325.4732 1392.2437 3280.6444 1370.1774 3214.6745 1334.7733 Z" fill="none" stroke="#12852D" opacity="0.2976190476190476" stroke-width="1" class="hamilton_heights"/>
<path d="M 3395.342 1200.064 3376.9054 1262.8899 3345.3057 1335.8526 3308.1037 1316.7756 3279.951 1369.4875 3248.5246 1351.5549 3306.2161 1247.7469 3255.9089 1336.3635 3344.7476 1179.3895 3306.2172 1249.5877 3349.1331 1175.0154 3395.342 1200.064 Z" fill="none" stroke="#12852D" opacity="0.2976190476190476" stroke-width="1" class="hamilton_heights"/>
<path d="M 3186.3949 1374.8266 3216.8397 1273.5645 3308.242 1155.7139 3395.1103 1198.9138 3251.1269 1470.5309 3186.3949 1374.8266 Z" fill="none" stroke="#12852D" opacity="0.2976190476190476" stroke-width="1" class="hamilton_heights"/>
<path d="M 3409.8991 1209.0273 3306.7716 1410.6649 3202.0935 1352.9582 3308.2541 1176.8804 3312.8593 1152.7204 3409.8991 1209.0273 Z" fill="none" stroke="#12852D" opacity="0.2976190476190476" stroke-width="1" class="hamilton_heights"/>
<path d="M 3153.0735 1519.7135 3309.2539 1308.4911 3462.7016 1400.4368 3263.2038 1590.2074 3153.0735 1519.7135 Z" fill="none" stroke="#12852D" opacity="0.2976190476190476" stroke-width="1" class="hamilton_heights"/>
<path d="M 3191.9434 1384.1441 3336.8415 1091.28 3412.6139 1126.1997 3272.7958 1380.7673 3242.7933 1437.9702 3232.6312 1444.189 3191.9434 1384.1441 Z" fill="none" stroke="#12852D" opacity="0.2976190476190476" stroke-width="1" class="hamilton_heights"/>
<path d="M 3279.6757 1288.2586 3248.2914 1347.1828 3215.9387 1321.4263 3305.4963 1200.81 3329.5196 1205.3975 3360.0196 1224.7057 3317.5626 1296.5209 3283.4094 1357.2893 3253.8326 1341.6572 3266.7658 1336.1277 3279.6757 1288.2586 Z" fill="none" stroke="#12852D" opacity="0.2976190476190476" stroke-width="1" class="hamilton_heights"/>
<path d="M 3212.7503 1417.6181 3191.4805 1382.1883 3301.8126 1221.5195 3307.7917 1175.9604 3351.6734 1174.5537 3410.823 1209.0267 3326.3986 1394.5444 3212.7503 1417.6181 Z" fill="none" stroke="#12852D" opacity="0.2976190476190476" stroke-width="1" class="hamilton_heights"/>
<path d="M 3328.7079 1393.1623 3219.643 1338.9129 3213.1728 1334.3138 3359.9123 1054.458 3413.5117 1088.4698 3328.7079 1393.1623 Z" fill="none" stroke="#12852D" opacity="0.2976190476190476" stroke-width="1" class="hamilton_heights"/>
<path d="M 3222.8773 1339.3716 3201.1468 1303.9451 3230.6861 1247.7872 3307.7763 1149.2723 3395.1122 1201.6747 3386.3539 1229.7507 3368.8075 1241.7266 3325.433 1324.5892 3294.048 1379.3749 3222.8773 1339.3716 Z" fill="none" stroke="#12852D" opacity="0.2976190476190476" stroke-width="1" class="hamilton_heights"/>
<path d="M 3226.1115 1339.8302 3243.6583 1321.4126 3268.5853 1282.7422 3285.2021 1256.9624 3302.7651 1271.6787 3324.0206 1279.9498 3312.9482 1305.7277 3291.7143 1337.0346 3275.0997 1369.26 3263.1057 1404.2453 3238.1665 1425.4302 3220.599 1405.1873 3206.7289 1385.8632 3206.7212 1369.2944 3215.0305 1354.5629 3226.1115 1339.8302 Z" fill="none" stroke="#12852D" opacity="0.2976190476190476" stroke-width="1" class="hamilton_heights"/>
<path d="M 3345.1842 1138.2069 3329.9378 1132.2345 3329.0134 1131.3148 3318.3855 1124.1892 3317.4612 1123.2695 3380.0696 1156.13 3379.3767 1156.1304 3392.7773 1163.8289 3232.5651 1310.6032 3231.6407 1309.9133 3304.0895 1163.9988 3304.5509 1163.0783 3315.3867 1130.1725 3316.5405 1128.5614 3317.231 1124.5349 3345.1842 1138.2069 Z" fill="none" stroke="#12852D" opacity="0.2976190476190476" stroke-width="1" class="hamilton_heights"/>
<path d="M 3465.8158 1238.8985 3376.7696 1409.7016 3215.4817 1332.0116 3209.4396 1255.1604 3292.5292 1141.9188 3465.8158 1238.8985 Z" fill="none" stroke="#12852D" opacity="0.2976190476190476" stroke-width="1" class="hamilton_heights"/>
<path d="M 3396.2661 1200.2935 3342.9986 1340.6864 3239.482 1285.0583 3314.9374 1151.7989 3396.2661 1200.2935 Z" fill="none" stroke="#12852D" opacity="0.2976190476190476" stroke-width="1" class="hamilton_heights"/>
<path d="M 3400.6516 1196.1491 3323.1592 1385.8016 3256.6099 1351.7808 3358.14 1174.0895 3400.6516 1196.1491 Z" fill="none" stroke="#12852D" opacity="0.2976190476190476" stroke-width="1" class="hamilton_heights"/>
<path d="M 3312.8581 1150.6498 3316.5542 1152.028 3327.8771 1162.1443 3394.6485 1199.1442 3385.8765 1206.2824 3385.8874 1222.8484 3378.5076 1240.3398 3376.6741 1262.4298 3370.2143 1274.399 3361.9064 1286.3694 3353.5972 1296.4991 3349.9144 1317.671 3349.0035 1338.8418 3346.2293 1335.1617 3336.9831 1325.0424 3319.4235 1318.6099 3300.0178 1314.9394 3287.0795 1310.3445 3269.5186 1300.2294 3249.189 1295.638 3255.6519 1286.4306 3281.9674 1255.1235 3283.8112 1247.7595 3291.6599 1239.4719 3300.8913 1226.1217 3306.4247 1208.6322 3308.7243 1191.1448 3307.7949 1181.4822 3308.7065 1160.315 3312.8581 1150.6498 Z" fill="none" stroke="#12852D" opacity="0.2976190476190476" stroke-width="1" class="hamilton_heights"/>
<path d="M 3315.6307 1152.4887 3396.497 1200.2933 3378.9819 1259.207 3361.4505 1296.0339 3282.8913 1255.123 3315.6307 1152.4887 Z" fill="none" stroke="#12852D" opacity="0.2976190476190476" stroke-width="1" class="hamilton_heights"/>
<path d="M 3407.1275 1209.0292 3317.6214 1396.8509 3215.9453 1335.2329 3315.6283 1148.3475 3407.1275 1209.0292 Z" fill="none" stroke="#12852D" opacity="0.2976190476190476" stroke-width="1" class="hamilton_heights"/>
<path d="M 3313.5264 1153.2775 3467.9525 1241.5466 3474.6749 1423.4976 3327.0162 1396.2553 3282.0287 1369.8932 3249.7022 1349.9395 3225.0524 1337.123 3213.735 1327.7563 3313.5264 1153.2775 Z" fill="none" stroke="#12852D" opacity="0.2976190476190476" stroke-width="1" class="hamilton_heights"/>
<path d="M 3194.2436 1362.3966 3332.2879 1199.8739 3447.768 1195.1959 3313.4816 1428.6113 3264.4908 1402.4035 3194.2436 1362.3966 Z" fill="none" stroke="#12852D" opacity="0.2976190476190476" stroke-width="1" class="hamilton_heights"/>
<path d="M 3221.0295 1339.8327 3218.2575 1339.834 3303.1559 1146.9743 3408.0485 1204.8871 3306.5263 1385.8113 3221.0295 1339.8327 Z" fill="none" stroke="#12852D" opacity="0.2976190476190476" stroke-width="1" class="hamilton_heights"/>
<path d="M 3298.3721 1264.088 3312.6432 1178.2584 3398.1308 1225.6013 3359.8356 1299.2564 3298.3721 1264.088 Z" fill="none" stroke="#12852D" opacity="0.2976190476190476" stroke-width="1" class="hamilton_heights"/>
<path d="M 3326.596 1338.165 3330.0692 1351.7397 3325.4544 1360.717 3321.0698 1368.3135 3318.0691 1372.4575 3310.2172 1376.6042 3306.2945 1384.4307 3212.7102 1332.9333 3209.4749 1330.1735 3217.0912 1316.3634 3215.704 1313.8328 3199.53 1304.176 3224.6833 1253.0823 3227.6872 1255.6118 3238.9964 1237.8892 3344.3526 1288.4512 3338.815 1298.5791 3347.8265 1303.1757 3326.596 1338.165 Z" fill="none" stroke="#12852D" opacity="0.2976190476190476" stroke-width="1" class="hamilton_heights"/>
<path d="M 3278.7963 1370.1784 3221.953 1338.9118 3307.7914 1175.5003 3370.6349 1209.9737 3294.5098 1378.9144 3278.7963 1370.1784 Z" fill="none" stroke="#12852D" opacity="0.2976190476190476" stroke-width="1" class="hamilton_heights"/>
<path d="M 3222.8769 1338.6812 3292.5745 1222.9052 3311.244 1155.022 3313.5519 1152.2598 3376.6285 1192.0236 3278.1022 1368.1077 3222.8769 1338.6812 Z" fill="none" stroke="#12852D" opacity="0.2976190476190476" stroke-width="1" class="hamilton_heights"/>
<path d="M 3315.9997 1389.0275 3160.262 1306.0341 3259.2667 1131.814 3259.8433 1130.3183 3401.1181 1202.8211 3333.2905 1330.5673 3334.457 1349.666 3315.9997 1389.0275 Z" fill="none" stroke="#12852D" opacity="0.2976190476190476" stroke-width="1" class="hamilton_heights"/>
<path d="M 3332.1106 1289.149 3354.2936 1302.0211 3340.2224 1333.7847 3316.4227 1322.2934 3332.1106 1289.149 Z" fill="none" stroke="#12852D" opacity="0.2976190476190476" stroke-width="1" class="hamilton_heights"/>
<path d="M 3250.5458 1239.0338 3343.7609 1077.0126 3438.946 1131.7028 3361.4523 1298.7952 3250.5458 1239.0338 Z" fill="none" stroke="#12852D" opacity="0.2976190476190476" stroke-width="1" class="hamilton_heights"/>
<path d="M 3234.4309 1346.4994 3241.9398 1349.142 3224.9562 1339.1405 3248.6408 1352.8204 3234.4309 1346.4994 Z" fill="none" stroke="#12852D" opacity="0.2976190476190476" stroke-width="1" class="hamilton_heights"/>
<path d="M 3308.7153 1175.4997 3367.4017 1210.4359 3397.8992 1224.6811 3357.2939 1297.8774 3343.4581 1336.544 3314.8623 1419.4052 3199.3279 1366.9967 3308.7153 1175.4997 Z" fill="none" stroke="#12852D" opacity="0.2976190476190476" stroke-width="1" class="hamilton_heights"/>
<path d="M 3302.297 1260.8644 3296.7376 1232.7965 3306.4059 1175.8462 3367.4011 1209.6306 3327.8329 1281.6733 3302.297 1260.8644 Z" fill="none" stroke="#12852D" opacity="0.2976190476190476" stroke-width="1" class="hamilton_heights"/>
<path d="M 3314.2448 1152.2594 3379.6309 1191.7916 3329.7962 1281.5571 3283.1222 1254.8927 3292.1226 1240.8522 3303.6572 1215.9964 3307.7999 1190.2251 3306.8657 1172.2798 3309.8584 1155.2528 3314.2448 1152.2594 Z" fill="none" stroke="#12852D" opacity="0.2976190476190476" stroke-width="1" class="hamilton_heights"/>
<path d="M 3222.8769 1338.6812 3313.3206 1151.5698 3396.4973 1200.7535 3306.7568 1384.8906 3222.8769 1338.6812 Z" fill="none" stroke="#12852D" opacity="0.2976190476190476" stroke-width="1" class="hamilton_heights"/>
<path d="M 3330.0268 1280.8666 3358.6794 1297.1862 3325.9367 1394.7748 3249.4497 1353.6254 3255.4507 1343.7274 3324.258 1290.7644 3330.0268 1280.8666 Z" fill="none" stroke="#12852D" opacity="0.2976190476190476" stroke-width="1" class="hamilton_heights"/>
<path d="M 3221.4888 1334.3098 3300.8514 1155.7181 3436.704 1226.495 3340.7257 1401.4396 3221.4888 1334.3098 Z" fill="none" stroke="#12852D" opacity="0.2976190476190476" stroke-width="1" class="hamilton_heights"/>
<path d="M 3303.6194 1149.7348 3381.71 1192.4804 3343.8919 1290.5224 3304.1994 1356.3572 3221.941 1314.06 3303.6194 1149.7348 Z" fill="none" stroke="#12852D" opacity="0.2976190476190476" stroke-width="1" class="hamilton_heights"/>
<path d="M 3325.9371 1395.4652 3211.093 1332.4739 3314.4758 1152.2593 3408.7435 1207.8777 3415.9125 1220.9875 3369.0781 1303.6225 3356.1664 1341.8288 3325.9371 1395.4652 Z" fill="none" stroke="#12852D" opacity="0.2976190476190476" stroke-width="1" class="hamilton_heights"/>
<path d="M 3287.049 1255.1207 3310.0652 1113.3812 3356.2232 1063.6621 3452.333 1120.6502 3420.0649 1213.6219 3370.2273 1294.6477 3287.049 1255.1207 Z" fill="none" stroke="#12852D" opacity="0.2976190476190476" stroke-width="1" class="hamilton_heights"/>
<path d="M 3313.7785 1144.6675 3381.2427 1184.198 3290.798 1350.8419 3230.7202 1316.8169 3313.7785 1144.6675 Z" fill="none" stroke="#12852D" opacity="0.2976190476190476" stroke-width="1" class="hamilton_heights"/>
<path d="M 3287.1141 1372.9353 3349.8494 1212.7477 3396.9038 1117.9282 3287.1141 1372.9353 Z" fill="none" stroke="#12852D" opacity="0.2976190476190476" stroke-width="1" class="hamilton_heights"/>
<path d="M 3314.5946 1158.0109 3396.96 1201.9036 3305.8329 1385.1213 3224.1475 1338.7957 3314.5946 1158.0109 Z" fill="none" stroke="#12852D" opacity="0.2976190476190476" stroke-width="1" class="hamilton_heights"/>
<path d="M 3223.5703 1339.3713 3307.3492 1209.7821 3384.7525 1253.2208 3360.0658 1297.8756 3329.3341 1281.3272 3280.4136 1370.6378 3223.5703 1339.3713 Z" fill="none" stroke="#12852D" opacity="0.2976190476190476" stroke-width="1" class="hamilton_heights"/>
<path d="M 3378.5214 1261.5083 3325.4742 1394.0847 3209.2449 1332.2446 3187.9847 1313.8457 3233.6829 1235.8211 3249.163 1245.0168 3303.3895 1151.5755 3396.4975 1200.9836 3378.5214 1261.5083 Z" fill="none" stroke="#12852D" opacity="0.2976190476190476" stroke-width="1" class="hamilton_heights"/>
<path d="M 3329.3343 1281.7874 3295.4131 1342.095 3265.6059 1326.9239 3300.2207 1265.4675 3329.3343 1281.7874 Z" fill="none" stroke="#12852D" opacity="0.2976190476190476" stroke-width="1" class="hamilton_heights"/>
<path d="M 3398.3442 1199.3718 3381.295 1264.2676 3347.1536 1335.6213 3329.6339 1396.3835 3218.2586 1342.1352 3314.7042 1147.8879 3398.3442 1199.3718 Z" fill="none" stroke="#12852D" opacity="0.2976190476190476" stroke-width="1" class="hamilton_heights"/>
<path d="M 3314.2433 1149.7287 3437.1633 1222.8133 3438.0898 1226.494 3346.2624 1389.0094 3221.0233 1326.9465 3314.2433 1149.7287 Z" fill="none" stroke="#12852D" opacity="0.2976190476190476" stroke-width="1" class="hamilton_heights"/>
<path d="M 3208.5513 1331.0944 3303.3882 1149.2748 3421.6948 1232.4878 3302.3685 1386.504 3208.5513 1331.0944 Z" fill="none" stroke="#12852D" opacity="0.2976190476190476" stroke-width="1" class="hamilton_heights"/>
<path d="M 3280.4134 1370.1776 3221.4907 1338.2217 3325.3348 1159.155 3380.0927 1191.5612 3280.4134 1370.1776 Z" fill="none" stroke="#12852D" opacity="0.2976190476190476" stroke-width="1" class="hamilton_heights"/></svg>