<?xml version="1.0"?><svg xmlns="http://www.w3.org/2000/svg" version="1.2" baseProfile="tiny" width="6000" height="5918" viewBox="0 0 6000 5918" stroke-linecap="round" stroke-linejoin="round"><path d="M 3701.4305 760.7334 3728.1493 745.28 3709.9231 756.682 3703.59 758.503 3701.4305 760.7334 Z" fill="none" stroke="#12852D" opacity="0.6" stroke-width="1" class="high_bridge"/>
<path d="M 3525.3555 1173.9696 3541.4814 1123.8019 3552.5562 1110.9094 3549.3141 1100.3295 3571.4886 1104.9119 3567.8099 1124.24 3551.2069 1154.6225 3540.1468 1185.9214 3525.3555 1173.9696 Z" fill="none" stroke="#12852D" opacity="0.6" stroke-width="1" class="high_bridge"/>
<path d="M 3597.2592 997.2293 3576.9314 988.9659 3563.0617 971.4958 3714.2975 731.241 3717.0575 721.1197 3729.0617 721.1075 3741.0716 726.6143 3752.1573 731.2021 3764.1645 733.949 3778.0176 735.774 3795.5645 737.5947 3818.657 744.0083 3818.6673 753.2071 3729.2564 911.5361 3712.6716 951.1154 3707.1611 982.4041 3688.6935 987.943 3645.2806 987.0644 3613.8803 991.6937 3597.2592 997.2293 Z" fill="none" stroke="#12852D" opacity="0.6" stroke-width="1" class="high_bridge"/>
<path d="M 3502.7415 1199.7561 3560.0884 1005.3124 3718.4952 1001.4851 3605.7847 1235.5629 3502.7415 1199.7561 Z" fill="none" stroke="#12852D" opacity="0.6" stroke-width="1" class="high_bridge"/>
<path d="M 3543.0701 1369.9976 3489.4669 1358.0741 3481.9412 1182.2862 3484.6671 1122.4666 3555.671 969.6618 3586.1023 913.5117 3613.7644 862.8864 3772.6885 933.5719 3543.0701 1369.9976 Z" fill="none" stroke="#12852D" opacity="0.6" stroke-width="1" class="high_bridge"/>
<path d="M 3548.7934 1029.4756 3575.5621 1007.8296 3591.7265 1007.8156 3597.7613 1042.7759 3607.9468 1070.3722 3609.3402 1079.1128 3599.6616 1102.5868 3598.7582 1125.5935 3577.5299 1147.6981 3563.2388 1180.8405 3542.9358 1207.0864 3504.1424 1219.0818 3490.2724 1203.9072 3491.168 1167.0944 3518.7996 1062.6261 3548.7934 1029.4756 Z" fill="none" stroke="#12852D" opacity="0.6" stroke-width="1" class="high_bridge"/>
<path d="M 3550.1544 1000.03 3600.036 1003.6677 3599.131 1024.8316 3617.6482 1072.664 3608.4321 1096.5976 3590.9136 1134.3428 3563.24 1182.221 3535.5598 1225.4991 3491.2222 1237.4988 3481.9545 1199.7721 3502.2076 1107.7293 3550.1544 1000.03 Z" fill="none" stroke="#12852D" opacity="0.6" stroke-width="1" class="high_bridge"/>
<path d="M 3582.4614 975.1596 3722.4178 998.4907 3594.2508 1252.5998 3500.8891 1193.7755 3582.4614 975.1596 Z" fill="none" stroke="#12852D" opacity="0.6" stroke-width="1" class="high_bridge"/>
<path d="M 3588.58 1106.7376 3582.5731 1103.9821 3603.6079 1125.3591 3581.6429 1096.6212 3545.1092 1042.3608 3572.5633 1011.5127 3617.5881 1006.1823 3654.0701 1002.6982 3686.1709 1005.8878 3683.6404 1015.7817 3694.3335 1087.5448 3653.0519 1147.6301 3606.3793 1125.3567 3588.58 1106.7376 Z" fill="none" stroke="#12852D" opacity="0.6" stroke-width="1" class="high_bridge"/>
<path d="M 3537.2215 998.2004 3686.8614 1003.5868 3519.9619 1360.8116 3498.7064 1357.1465 3480.1151 1210.8174 3537.2215 998.2004 Z" fill="none" stroke="#12852D" opacity="0.6" stroke-width="1" class="high_bridge"/>
<path d="M 3537.3315 1132.5476 3520.7812 1230.1127 3504.1309 1204.3566 3537.3315 1132.5476 Z" fill="none" stroke="#12852D" opacity="0.6" stroke-width="1" class="high_bridge"/>
<path d="M 3526.1323 991.7686 3608.4848 1155.4933 3645.3673 1080.0001 3643.4933 1051.476 3599.2254 1131.5747 3589.0917 1163.7929 3526.1323 991.7686 Z" fill="none" stroke="#12852D" opacity="0.6" stroke-width="1" class="high_bridge"/>
<path d="M 3496.7363 1199.7608 3546.4742 1017.5156 3591.7269 1008.2756 3610.2566 1070.8302 3601.0624 1119.6099 3580.7597 1143.5542 3559.55 1188.6662 3510.6213 1233.8022 3496.7363 1199.7608 Z" fill="none" stroke="#12852D" opacity="0.6" stroke-width="1" class="high_bridge"/>
<path d="M 3497.2029 1205.7425 3551.5476 1009.2301 3555.7049 1010.1468 3581.5632 1004.604 3687.3201 1000.3659 3595.9856 1124.2156 3531.3974 1219.5203 3497.2029 1205.7425 Z" fill="none" stroke="#12852D" opacity="0.6" stroke-width="1" class="high_bridge"/>
<path d="M 3505.7733 1237.0273 3487.5283 1239.8025 3482.1875 1202.5329 3479.5092 1173.2002 3483.3012 1148.4648 3489.516 1121.1975 3503.6977 1093.5797 3508.6543 1082.6483 3513.3778 1069.0717 3514.0668 1064.3552 3521.096 1046.5211 3522.475 1038.3536 3527.3188 1031.3335 3526.8524 1025.6979 3534.9163 1003.033 3538.0315 1000.3851 3540.6809 992.9069 3548.1742 978.9841 3598.189 1004.1294 3593.7006 1020.6958 3599.4938 1043.3495 3611.9883 1070.4836 3611.5348 1079.801 3601.9711 1102.5848 3602.1071 1125.7055 3583.7599 1141.0208 3568.0853 1176.465 3532.5564 1224.5812 3505.7733 1237.0273 Z" fill="none" stroke="#12852D" opacity="0.6" stroke-width="1" class="high_bridge"/>
<path d="M 3548.521 979.5588 3589.6446 1003.6768 3599.5737 1003.208 3636.0773 1023.188 3611.1756 1065.5383 3612.5734 1079.1099 3608.8856 1087.165 3605.4303 1097.0604 3602.2032 1103.9649 3601.5302 1126.2812 3582.1444 1142.4026 3568.3163 1176.4648 3557.0131 1193.0398 3542.9399 1212.1481 3533.0189 1225.2711 3515.01 1234.0288 3486.3731 1239.3432 3479.1691 1181.5981 3482.144 1145.2447 3489.7467 1120.8522 3513.2581 1063.7807 3533.9928 1003.2638 3548.521 979.5588 Z" fill="none" stroke="#12852D" opacity="0.6" stroke-width="1" class="high_bridge"/>
<path d="M 3580.5807 1203.6034 3556.5498 1191.4297 3538.0775 1197.427 3529.0652 1191.6824 3516.5898 1187.551 3510.1222 1186.8659 3505.5127 1199.2937 3498.3501 1195.8482 3482.6442 1195.6302 3506.8084 1084.7202 3531.2517 1040.0718 3613.96 1080.2589 3580.5807 1203.6034 Z" fill="none" stroke="#12852D" opacity="0.6" stroke-width="1" class="high_bridge"/>
<path d="M 3552.0594 1069.0402 3598.2935 1122.373 3512.4472 1206.1907 3552.0594 1069.0402 Z" fill="none" stroke="#12852D" opacity="0.6" stroke-width="1" class="high_bridge"/>
<path d="M 3622.07 1110.1586 3685.4743 1001.9779 3722.4498 1030.0054 3681.4385 1126.207 3622.07 1110.1586 Z" fill="none" stroke="#12852D" opacity="0.6" stroke-width="1" class="high_bridge"/>
<path d="M 3671.3809 1234.5818 3493.9235 1146.386 3556.607 984.3826 3595.3115 883.1428 3707.8567 754.2443 3864.8721 781.6712 3671.3809 1234.5818 Z" fill="none" stroke="#12852D" opacity="0.6" stroke-width="1" class="high_bridge"/>
<path d="M 3545.9964 998.1932 3691.0107 996.2218 3634.7586 1095.6535 3621.3765 1109.4691 3560.5235 1247.5668 3520.3064 1214.0072 3485.6689 1224.6182 3481.4513 1145.4753 3524.3209 1036.3967 3537.6815 995.8998 3545.9964 998.1932 Z" fill="none" stroke="#12852D" opacity="0.6" stroke-width="1" class="high_bridge"/>
<path d="M 3551.8405 1032.5325 3560.7186 1035.1903 3598.6068 1053.5609 3613.4174 1088.0549 3608.8463 1150.6353 3581.6366 1200.3551 3549.7698 1239.9566 3510.1686 1205.7829 3517.9922 1168.9926 3534.0963 1091.6786 3551.8405 1032.5325 Z" fill="none" stroke="#12852D" opacity="0.6" stroke-width="1" class="high_bridge"/>
<path d="M 3488.4515 1238.8814 3483.818 1220.478 3481.9573 1203.4534 3479.1689 1181.3681 3479.1574 1166.1832 3481.4541 1149.1564 3484.6738 1131.2089 3491.5884 1113.2589 3499.8907 1098.0687 3507.7289 1080.5786 3514.6402 1059.4087 3522.0168 1042.8397 3528.0034 1021.2113 3530.3037 1010.1677 3540.9094 989.9164 3547.3647 977.4896 3564.4565 982.5358 3582.0171 995.4023 3602.8094 1006.4256 3596.8213 1024.3736 3599.6026 1035.8731 3607.4747 1058.8703 3611.6389 1067.1482 3614.42 1078.1881 3607.5038 1091.5372 3601.5133 1107.1863 3600.6021 1121.4508 3600.1467 1128.8131 3585.3744 1138.4887 3578.9165 1148.6172 3571.9996 1162.4273 3569.2415 1178.0745 3559.0892 1190.0471 3548.9402 1206.1611 3539.2512 1220.4342 3519.3998 1235.6359 3500.9242 1238.8718 3483.3704 1239.3455 3488.4515 1238.8814 Z" fill="none" stroke="#12852D" opacity="0.6" stroke-width="1" class="high_bridge"/>
<path d="M 3508.7488 1202.5123 3523.4493 1101.2708 3543.7138 1030.3999 3574.1517 978.8471 3639.7233 970.5077 3691.4708 994.3811 3713.6545 1010.0012 3710.9397 1066.1337 3669.4325 1129.6695 3620.5053 1167.4461 3567.8616 1184.978 3508.7488 1202.5123 Z" fill="none" stroke="#12852D" opacity="0.6" stroke-width="1" class="high_bridge"/>
<path d="M 3544.8208 1252.1818 3501.3873 1240.2519 3475.4936 1208.0599 3478.2235 1152.8399 3491.123 1108.6581 3510.4824 1058.0318 3527.9982 1014.7703 3547.3659 978.8697 3561.195 948.4952 3595.3398 915.3437 3606.4327 926.3744 3643.4007 952.1026 3673.9113 984.2769 3689.6388 1010.025 3698.8911 1025.6583 3687.8436 1063.396 3670.3289 1101.1413 3630.6566 1155.4732 3574.3333 1190.4943 3577.1072 1193.2528 3544.8208 1252.1818 Z" fill="none" stroke="#12852D" opacity="0.6" stroke-width="1" class="high_bridge"/>
<path d="M 3575.0473 1008.4806 3622.1516 1004.7584 3627.7046 1016.7151 3598.1978 1074.7122 3568.6262 1060.935 3485.5192 1098.7304 3470.6666 1002.1235 3515.8548 911.9206 3560.1908 916.4845 3607.3112 935.7647 3621.2263 1002.919 3575.0473 1008.4806 Z" fill="none" stroke="#12852D" opacity="0.6" stroke-width="1" class="high_bridge"/>
<path d="M 3612.8773 903.3676 3670.1584 923.5553 3588.0378 1014.7198 3610.2656 1080.9524 3603.8419 1128.8098 3615.8588 1137.0813 3556.8256 1244.8088 3491.1896 1195.1635 3541.849 1009.2382 3612.8773 903.3676 Z" fill="none" stroke="#12852D" opacity="0.6" stroke-width="1" class="high_bridge"/>
<path d="M 3503.2173 1217.472 3501.8304 1216.0926 3498.5887 1205.7414 3499.4972 1185.954 3510.7751 1136.25 3522.0579 1094.1403 3532.204 1075.2679 3551.0975 1023.2626 3569.0985 1010.3655 3586.1828 1005.9802 3592.6514 1009.195 3612.1069 1074.0492 3602.66 1098.2131 3600.6064 1126.282 3583.7597 1140.7908 3549.1694 1204.0901 3503.2173 1217.472 Z" fill="none" stroke="#12852D" opacity="0.6" stroke-width="1" class="high_bridge"/>
<path d="M 3533.0939 1033.6292 3766.8805 1117.6078 3694.0749 1293.9242 3482.4178 1201.6124 3533.0939 1033.6292 Z" fill="none" stroke="#12852D" opacity="0.6" stroke-width="1" class="high_bridge"/></svg>