<?xml version="1.0"?><svg xmlns="http://www.w3.org/2000/svg" version="1.2" baseProfile="tiny" width="6000" height="5918" viewBox="0 0 6000 5918" stroke-linecap="round" stroke-linejoin="round"><path d="M 4837.1512 2829.9737 4800.7025 2665.0472 4994.9268 2626.8181 5026.6198 2724.4483 5027.6732 2777.9116 4837.1512 2829.9737 Z" fill="none" stroke="#A9159C" opacity="0.6" stroke-width="1" class="hillcrest"/>
<path d="M 5012.6494 2686.6887 4806.4853 2771.9626 4805.9097 2505.5884 4998.3337 2502.3882 5012.6494 2686.6887 Z" fill="none" stroke="#A9159C" opacity="0.6" stroke-width="1" class="hillcrest"/>
<path d="M 4669.2685 2645.0433 4919.934 2606.7149 4945.1561 2710.813 4734.3554 2797.0058 4669.2685 2645.0433 Z" fill="none" stroke="#A9159C" opacity="0.6" stroke-width="1" class="hillcrest"/>
<path d="M 4879.5389 2747.8343 4874.3788 2509.1243 5067.6655 2480.1039 5124.5031 2642.1724 4886.9337 2744.1304 4879.5389 2747.8343 Z" fill="none" stroke="#A9159C" opacity="0.6" stroke-width="1" class="hillcrest"/>
<path d="M 4869.2502 2526.3742 4992.232 2512.8654 5002.8499 2684.5965 4869.7349 2743.8969 4869.2502 2526.3742 Z" fill="none" stroke="#A9159C" opacity="0.6" stroke-width="1" class="hillcrest"/>
<path d="M 4882.785 2751.0534 4885.9928 2737.2189 4896.6232 2732.125 4904.0261 2732.1083 4946.5537 2714.9578 4973.432 2733.3313 4989.715 2771.0879 4983.3215 2807.0555 4972.3024 2843.9572 4926.9983 2863.4223 4896.8665 2839.9818 4875.5013 2804.5369 4877.2667 2766.2759 4882.785 2751.0534 Z" fill="none" stroke="#A9159C" opacity="0.6" stroke-width="1" class="hillcrest"/>
<path d="M 4916.0727 2739.4554 4924.3842 2732.062 4935.4855 2730.6538 4959.0866 2732.4429 4947.995 2737.9995 4995.7018 2759.0899 5009.1901 2788.5571 5000.9224 2814.3891 4969.9532 2828.7512 4937.1268 2840.812 4893.1408 2829.3883 4869.9518 2805.9321 4868.066 2790.2646 4876.7968 2763.0506 4894.3502 2750.1055 4916.0727 2739.4554 Z" fill="none" stroke="#A9159C" opacity="0.6" stroke-width="1" class="hillcrest"/>
<path d="M 4870.6874 2513.2797 4959.0407 2513.5393 4997.3976 2497.7825 4992.9861 2588.5727 4986.0891 2606.5616 4988.8963 2619.9196 5010.3361 2686.6942 4871.6773 2749.6955 4864.0499 2648.7783 4870.6874 2513.2797 Z" fill="none" stroke="#A9159C" opacity="0.6" stroke-width="1" class="hillcrest"/>
<path d="M 5010.7966 2685.7714 4824.0681 2771.9244 4801.6317 2666.8887 4809.6243 2512.0315 4995.5582 2502.3947 5010.7966 2685.7714 Z" fill="none" stroke="#A9159C" opacity="0.6" stroke-width="1" class="hillcrest"/>
<path d="M 5243.7579 2601.3121 5126.3456 2638.9418 5011.723 2686.23 4873.9897 2749.2294 4871.6012 2715.5888 4866.618 2659.3725 4877.4866 2657.7352 4934.8264 2645.1619 4972.7345 2632.8613 5088.0584 2590.4174 5198.9672 2544.0558 5215.3886 2543.7829 5243.7579 2601.3121 Z" fill="none" stroke="#A9159C" opacity="0.6" stroke-width="1" class="hillcrest"/></svg>