<?xml version="1.0"?><svg xmlns="http://www.w3.org/2000/svg" version="1.2" baseProfile="tiny" width="6000" height="5918" viewBox="0 0 6000 5918" stroke-linecap="round" stroke-linejoin="round"><path d="M 3123.7835 4404.3881 3275.8013 4383.0799 3294.4143 4514.2015 3140.5201 4531.8222 3123.7835 4404.3881 Z" fill="none" stroke="#865327" opacity="0.6" stroke-width="1" class="homecrest"/>
<path d="M 3095.9491 4335.1443 3310.9873 4314.7312 3325.8339 4341.4995 3331.4265 4393.2057 3330.5232 4432.9137 3293.4439 4436.6289 3264.7076 4440.3383 3222.9947 4448.6706 3173.8654 4458.8512 3124.7358 4470.8763 3106.1946 4471.8067 3095.9491 4335.1443 Z" fill="none" stroke="#865327" opacity="0.6" stroke-width="1" class="homecrest"/>
<path d="M 3190.9836 4592.9414 3176.7923 4367.6152 3269.4642 4320.2942 3305.5738 4574.0416 3190.9836 4592.9414 Z" fill="none" stroke="#865327" opacity="0.6" stroke-width="1" class="homecrest"/>
<path d="M 3182.9067 4464.3881 3180.6899 4430.1056 3178.5896 4396.9785 3176.955 4368.7001 3196.9963 4358.8802 3244.7212 4331.7334 3254.5674 4326.9963 3267.5415 4321.334 3270.9155 4347.4169 3286.0344 4448.9843 3252.1996 4454.0814 3182.9067 4464.3881 Z" fill="none" stroke="#865327" opacity="0.6" stroke-width="1" class="homecrest"/>
<path d="M 3147.0011 4509.6548 3398.2203 4467.9625 3407.5499 4554.7675 3149.8166 4593.6979 3147.0011 4509.6548 Z" fill="none" stroke="#865327" opacity="0.6" stroke-width="1" class="homecrest"/>
<path d="M 3179.3886 4369.2761 3265.5722 4322.1429 3304.6489 4577.9212 3195.2486 4592.7547 3179.3886 4369.2761 Z" fill="none" stroke="#865327" opacity="0.6" stroke-width="1" class="homecrest"/>
<path d="M 3295.8082 4519.9728 3211.6902 4558.5744 3204.2692 4550.4967 3187.1181 4553.2752 3178.4616 4369.2765 3267.8897 4322.6034 3295.8082 4519.9728 Z" fill="none" stroke="#865327" opacity="0.6" stroke-width="1" class="homecrest"/>
<path d="M 3215.5419 4372.0298 3239.6895 4464.3614 3200.7166 4385.8876 3215.5419 4372.0298 Z" fill="none" stroke="#865327" opacity="0.6" stroke-width="1" class="homecrest"/>
<path d="M 3297.1998 4521.5882 3184.1076 4559.5106 3169.1935 4372.9741 3270.2063 4321.2171 3297.1998 4521.5882 Z" fill="none" stroke="#865327" opacity="0.6" stroke-width="1" class="homecrest"/>
<path d="M 3285.1102 4454.1793 3290.6679 4445.865 3335.1623 4439.3751 3342.6023 4478.1565 3348.1995 4534.4877 3305.5528 4537.2836 3306.48 4537.2831 3303.7033 4545.5967 3285.1102 4454.1793 Z" fill="none" stroke="#865327" opacity="0.6" stroke-width="1" class="homecrest"/></svg>