<?xml version="1.0"?><svg xmlns="http://www.w3.org/2000/svg" version="1.2" baseProfile="tiny" width="6000" height="5918" viewBox="0 0 6000 5918" stroke-linecap="round" stroke-linejoin="round"><path d="M 2735.0762 2653.8747 2722.6986 2694.3158 2703.3825 2691.4342 2680.1311 2719.0856 2657.1153 2697.3062 2663.1357 2644.8829 2663.3671 2644.5373 2735.0762 2653.8747 Z" fill="none" stroke="#12852D" opacity="0.6" stroke-width="1" class="hudson_square"/>
<path d="M 2731.722 2653.4137 2704.8828 2743.7457 2647.5163 2686.5896 2653.0735 2642.347 2731.722 2653.4137 Z" fill="none" stroke="#12852D" opacity="0.6" stroke-width="1" class="hudson_square"/>
<path d="M 2653.0732 2645.1122 2734.0353 2652.953 2706.2709 2742.8239 2648.904 2688.8942 2653.0732 2645.1122 Z" fill="none" stroke="#12852D" opacity="0.6" stroke-width="1" class="hudson_square"/>
<path d="M 2650.2976 2643.2684 2735.1919 2653.6443 2706.7334 2745.1285 2647.0533 2689.5853 2650.2976 2643.2684 Z" fill="none" stroke="#12852D" opacity="0.6" stroke-width="1" class="hudson_square"/>
<path d="M 2706.2708 2744.898 2647.9786 2689.8158 2652.3795 2643.0382 2734.7292 2654.3356 2706.2708 2744.898 Z" fill="none" stroke="#12852D" opacity="0.6" stroke-width="1" class="hudson_square"/>
<path d="M 2676.6586 2744.4348 2696.2071 2746.741 2693.3138 2766.099 2673.7649 2763.7928 2676.6586 2744.4348 Z" fill="none" stroke="#12852D" opacity="0.6" stroke-width="1" class="hudson_square"/>
<path d="M 2695.6295 2736.3706 2644.7406 2684.7458 2649.3731 2636.8163 2650.2979 2640.5033 2654.924 2643.2689 2707.6646 2651.5691 2695.6295 2736.3706 Z" fill="none" stroke="#12852D" opacity="0.6" stroke-width="1" class="hudson_square"/>
<path d="M 2735.4232 2653.8747 2715.0632 2720.2403 2680.3627 2716.0898 2646.1281 2688.433 2649.8353 2640.5032 2652.1484 2641.4252 2735.4232 2653.8747 Z" fill="none" stroke="#12852D" opacity="0.6" stroke-width="1" class="hudson_square"/>
<path d="M 2648.6729 2687.5115 2691.7036 2647.1898 2683.1386 2718.1641 2700.0251 2734.7577 2648.6729 2687.5115 Z" fill="none" stroke="#12852D" opacity="0.6" stroke-width="1" class="hudson_square"/>
<path d="M 2706.7334 2745.5894 2645.6656 2687.5111 2658.6421 2493.0418 2677.148 2458.9462 2737.2785 2495.8121 2767.8082 2566.7762 2706.7334 2745.5894 Z" fill="none" stroke="#12852D" opacity="0.6" stroke-width="1" class="hudson_square"/>
<path d="M 2653.0745 2634.0516 2708.1279 2639.5868 2708.3586 2650.6474 2734.9605 2654.1051 2706.7335 2743.9762 2646.8221 2688.6635 2651.6867 2633.5906 2653.0745 2634.0516 Z" fill="none" stroke="#12852D" opacity="0.6" stroke-width="1" class="hudson_square"/>
<path d="M 2707.8966 2639.3564 2709.0526 2649.9562 2734.7292 2653.1834 2706.7335 2743.9762 2648.4413 2689.5854 2652.8432 2634.0516 2707.8966 2639.3564 Z" fill="none" stroke="#12852D" opacity="0.6" stroke-width="1" class="hudson_square"/>
<path d="M 2653.9988 2642.3471 2733.5726 2654.3355 2707.6588 2744.6676 2644.7394 2693.9633 2653.9988 2642.3471 Z" fill="none" stroke="#12852D" opacity="0.6" stroke-width="1" class="hudson_square"/>
<path d="M 2721.5435 2660.7871 2702.1053 2763.1037 2650.2868 2731.7571 2659.5498 2648.7998 2721.5435 2660.7871 Z" fill="none" stroke="#12852D" opacity="0.6" stroke-width="1" class="hudson_square"/>
<path d="M 2736.3485 2653.4139 2706.2708 2744.898 2646.5907 2689.1243 2650.9915 2643.9598 2736.3485 2653.4139 Z" fill="none" stroke="#12852D" opacity="0.6" stroke-width="1" class="hudson_square"/>
<path d="M 2649.3719 2646.9551 2727.5582 2653.8744 2705.3453 2745.5893 2641.0389 2687.5105 2649.3719 2646.9551 Z" fill="none" stroke="#12852D" opacity="0.6" stroke-width="1" class="hudson_square"/>
<path d="M 2647.5159 2690.2767 2647.5221 2640.5029 2707.6651 2642.3519 2698.4056 2737.2926 2647.5159 2690.2767 Z" fill="none" stroke="#12852D" opacity="0.6" stroke-width="1" class="hudson_square"/>
<path d="M 2664.9863 2644.8831 2708.3586 2650.417 2705.3501 2671.0406 2661.5142 2665.1607 2664.755 2644.1918 2664.9863 2644.8831 Z" fill="none" stroke="#12852D" opacity="0.6" stroke-width="1" class="hudson_square"/>
<path d="M 2735.6545 2653.8747 2706.5021 2745.5894 2644.9714 2688.6633 2648.6783 2643.2682 2735.6545 2653.8747 Z" fill="none" stroke="#12852D" opacity="0.6" stroke-width="1" class="hudson_square"/>
<path d="M 2649.835 2643.2683 2735.1919 2653.8747 2706.502 2746.0503 2648.21 2689.5854 2649.835 2643.2683 Z" fill="none" stroke="#12852D" opacity="0.6" stroke-width="1" class="hudson_square"/>
<path d="M 2707.1961 2745.8199 2647.9787 2689.355 2653.0735 2642.8079 2734.7292 2654.3356 2707.1961 2745.8199 Z" fill="none" stroke="#12852D" opacity="0.6" stroke-width="1" class="hudson_square"/>
<path d="M 2649.8351 2642.3466 2736.3485 2653.4139 2705.3454 2744.6675 2648.4413 2689.355 2649.8351 2642.3466 Z" fill="none" stroke="#12852D" opacity="0.6" stroke-width="1" class="hudson_square"/>
<path d="M 2647.5159 2690.0462 2650.7602 2643.4989 2734.7292 2654.566 2707.659 2742.1327 2707.8901 2746.9722 2647.5159 2690.0462 Z" fill="none" stroke="#12852D" opacity="0.6" stroke-width="1" class="hudson_square"/>
<path d="M 2650.5301 2633.1296 2709.2845 2639.7021 2703.2667 2692.5864 2649.1359 2684.7463 2650.5301 2633.1296 Z" fill="none" stroke="#12852D" opacity="0.6" stroke-width="1" class="hudson_square"/>
<path d="M 2643.8207 2642.3459 2732.069 2653.529 2731.1433 2663.5527 2738.3144 2664.3595 2720.8479 2693.6244 2716.2213 2693.7393 2714.0226 2712.1747 2718.3022 2714.825 2701.2971 2740.7495 2641.0396 2682.9018 2643.8207 2642.3459 Z" fill="none" stroke="#12852D" opacity="0.6" stroke-width="1" class="hudson_square"/>
<path d="M 2720.1559 2652.6067 2719.1145 2661.9392 2712.6374 2661.9388 2711.4803 2671.1562 2710.0917 2681.4105 2720.6171 2683.6002 2720.3855 2688.5546 2722.5831 2689.0156 2715.4104 2716.2075 2706.849 2746.396 2671.9192 2712.0562 2675.1602 2688.5514 2667.1794 2687.6288 2673.4293 2646.4969 2720.1559 2652.6067 Z" fill="none" stroke="#12852D" opacity="0.6" stroke-width="1" class="hudson_square"/></svg>