<?xml version="1.0"?><svg xmlns="http://www.w3.org/2000/svg" version="1.2" baseProfile="tiny" width="6000" height="5918" viewBox="0 0 6000 5918" stroke-linecap="round" stroke-linejoin="round"><path d="M 606.2862 5104.0515 698.4927 5362.1167 574.0239 5415.4508 528.8904 5272.0734 571.9551 5106.7449 606.2862 5104.0515 Z" fill="none" stroke="#E71E24" opacity="0.6" stroke-width="1" class="huguenot"/>
<path d="M 369.6263 5142.2954 478.1797 5138.8673 496.6147 5188.8163 489.9781 5247.9501 381.5496 5196.8513 369.6263 5142.2954 Z" fill="none" stroke="#E71E24" opacity="0.6" stroke-width="1" class="huguenot"/>
<path d="M 611.8157 5222.1255 641.2897 5215.0295 901.3453 5549.275 738.7789 5616.2033 710.8058 5567.834 504.565 5259.076 611.8157 5222.1255 Z" fill="none" stroke="#E71E24" opacity="0.6" stroke-width="1" class="huguenot"/>
<path d="M 623.0369 5080.9873 720.949 5276.2046 813.2588 5507.4945 712.8811 5573.8481 579.8778 5291.6022 484.7139 5122.2487 623.0369 5080.9873 Z" fill="none" stroke="#E71E24" opacity="0.6" stroke-width="1" class="huguenot"/>
<path d="M 678.2562 5702.2945 560.1147 5410.7965 667.8623 5365.7468 789.8696 5597.126 678.2562 5702.2945 Z" fill="none" stroke="#E71E24" opacity="0.6" stroke-width="1" class="huguenot"/>
<path d="M 593.3147 5501.4687 543.5626 5346.052 734.1532 5176.4172 841.4114 5355.0231 593.3147 5501.4687 Z" fill="none" stroke="#E71E24" opacity="0.6" stroke-width="1" class="huguenot"/>
<path d="M 546.4222 5313.7075 710.8207 5240.1369 806.8157 5481.5958 632.1588 5561.6506 546.4222 5313.7075 Z" fill="none" stroke="#E71E24" opacity="0.6" stroke-width="1" class="huguenot"/>
<path d="M 431.3104 5334.69 648.5882 5270.5 692.9108 5368.575 471.8747 5443.8659 431.3104 5334.69 Z" fill="none" stroke="#E71E24" opacity="0.6" stroke-width="1" class="huguenot"/>
<path d="M 631.3601 5269.4724 704.8023 5221.1476 770.7562 5298.512 799.3517 5379.9128 818.8408 5379.0287 861.4226 5419.571 902.9064 5560.1737 840.97 5607.4543 792.2399 5610.1861 693.6497 5702.4392 676.2146 5670.451 642.9303 5611.2012 591.8514 5504.1741 567.8756 5437.5578 527.3989 5286.7935 631.3601 5269.4724 Z" fill="none" stroke="#E71E24" opacity="0.6" stroke-width="1" class="huguenot"/>
<path d="M 714.9969 5239.6838 748.6992 5316.4706 902.2735 5549.2769 639.0161 5607.8944 580.7971 5295.3015 714.9969 5239.6838 Z" fill="none" stroke="#E71E24" opacity="0.6" stroke-width="1" class="huguenot"/>
<path d="M 480.0932 5114.8446 600.8806 5033.81 789.09 5525.9344 634.8413 5606.9604 480.0932 5114.8446 Z" fill="none" stroke="#E71E24" opacity="0.6" stroke-width="1" class="huguenot"/>
<path d="M 538.5194 5271.0563 601.0778 5251.9075 626.6048 5246.8822 643.5554 5239.0643 650.0623 5233.649 662.3757 5224.7808 678.5856 5236.9471 686.2191 5246.5528 660.6816 5256.432 639.0779 5270.3632 617.9501 5278.7494 600.3164 5280.5578 581.401 5284.9047 553.8937 5293.0438 545.0767 5293.9475 540.723 5271.0615 593.6254 5264.83 612.6508 5262.9094 625.3029 5258.4323 622.5398 5249.4146 604.9059 5251.5697 544.5534 5269.7996 557.7829 5266.5956 566.7153 5265.8077 563.5804 5267.3023 582.0276 5264.6878 538.5194 5271.0563 Z" fill="none" stroke="#E71E24" opacity="0.6" stroke-width="1" class="huguenot"/>
<path d="M 678.2562 5702.2945 628.0812 5723.4506 583.7677 5617.0147 566.3681 5515.274 523.8398 5445.8392 503.6418 5354.2766 475.9757 5283.0382 620.7588 5267.6646 734.5299 5433.3724 731.6149 5494.3799 703.6438 5553.488 757.405 5586.8874 744.314 5632.1646 714.5472 5661.6887 678.2562 5702.2945 Z" fill="none" stroke="#E71E24" opacity="0.6" stroke-width="1" class="huguenot"/>
<path d="M 671.1262 5726.5964 686.8152 5579.8445 675.7186 5519.3743 666.0427 5500.5923 650.3252 5473.7476 635.4024 5486.4804 628.0936 5476.4127 645.5045 5462.8384 630.5811 5427.7719 619.1423 5398.5979 615.4231 5387.9011 603.1942 5355.084 595.1659 5331.6837 580.5217 5286.6543 632.9272 5273.7803 659.3742 5252.6716 695.1616 5222.2946 711.7184 5234.6276 716.4525 5244.3423 721.0707 5254.0569 710.1675 5267.7512 708.6397 5276.9905 712.2071 5289.9381 732.4306 5291.1132 730.135 5279.9014 732.8303 5290.1436 734.9046 5296.387 742.2837 5316.9684 739.1392 5322.9697 734.4396 5326.0101 748.6936 5331.9332 751.4614 5339.4492 757.5557 5352.6739 759.7427 5360.651 767.5869 5376.4879 775.0913 5393.258 769.3987 5397.4057 753.1045 5403.5911 738.6597 5410.2479 752.2172 5404.2232 756.5936 5413.4743 775.7338 5446.3337 786.9955 5464.7445 793.5874 5474.5805 806.5883 5493.9032 810.1631 5504.311 820.011 5526.051 824.1788 5544.6096 822.3363 5559.9545 828.0001 5570.2517 830.3228 5580.2733 834.1302 5590.6825 838.9643 5609.7618 826.9088 5604.4209 811.1495 5594.7959 796.9847 5599.6207 785.7199 5604.6824 777.225 5610.7239 767.3501 5616.8286 751.3099 5630.3169 739.8297 5642.9375 733.0791 5652.7473 722.4994 5663.5082 721.667 5672.8685 715.1702 5672.3921 702.5459 5687.8035 696.6118 5695.3035 687.2599 5709.2135 676.2215 5716.0088 671.1262 5726.5964 Z" fill="none" stroke="#E71E24" opacity="0.6" stroke-width="1" class="huguenot"/>
<path d="M 633.626 5734.5596 433.7148 5111.9592 564.6195 5069.7644 788.0036 5601.745 633.626 5734.5596 Z" fill="none" stroke="#E71E24" opacity="0.6" stroke-width="1" class="huguenot"/>
<path d="M 514.0005 5095.5197 570.1683 5077.1699 593.5489 5095.9365 628.7123 5135.2914 645.7376 5196.7865 695.7839 5221.6196 720.5319 5254.4836 758.0272 5293.383 779.7567 5329.4767 798.8982 5383.822 810.0429 5379.4543 817.0582 5465.2078 824.6109 5515.8383 889.0087 5568.8972 727.0745 5663.565 629.8003 5475.6664 603.4741 5421.5271 569.3539 5428.3817 527.4364 5298.4119 546.0124 5290.5992 537.2531 5267.0096 514.0005 5095.5197 Z" fill="none" stroke="#E71E24" opacity="0.6" stroke-width="1" class="huguenot"/>
<path d="M 507.0385 5097.3513 598.9873 5050.4384 848.4027 5568.5847 677.2811 5723.5603 507.0385 5097.3513 Z" fill="none" stroke="#E71E24" opacity="0.6" stroke-width="1" class="huguenot"/>
<path d="M 789.334 5408.9915 761.6057 5356.2441 762.9888 5360.4066 765.3028 5363.1845 770.8481 5373.8263 786.5645 5402.0528 789.334 5408.9915 Z" fill="none" stroke="#E71E24" opacity="0.6" stroke-width="1" class="huguenot"/>
<path d="M 640.6952 5273.2551 640.4699 5270.2508 724.5828 5204.5843 768.2105 5304.4961 670.8505 5378.2323 635.3574 5274.3985 639.7766 5269.0939 640.6952 5273.2551 Z" fill="none" stroke="#E71E24" opacity="0.6" stroke-width="1" class="huguenot"/>
<path d="M 534.3879 5301.6633 630.0123 5278.7767 689.041 5440.6692 750.9943 5546.1936 638.5416 5612.5163 631.1307 5606.0275 534.3879 5301.6633 Z" fill="none" stroke="#E71E24" opacity="0.6" stroke-width="1" class="huguenot"/>
<path d="M 736.0087 5176.4212 937.9901 5317.317 589.6215 5493.1399 573.0852 5420.0707 526.0631 5290.5522 736.0087 5176.4212 Z" fill="none" stroke="#E71E24" opacity="0.6" stroke-width="1" class="huguenot"/>
<path d="M 631.1078 5616.198 527.8992 5298.8751 632.8084 5273.2374 738.79 5177.3513 935.2243 5308.0686 943.5398 5326.5708 1018.4295 5473.6896 947.7607 5544.7426 840.9005 5606.4769 631.1078 5616.198 Z" fill="none" stroke="#E71E24" opacity="0.6" stroke-width="1" class="huguenot"/>
<path d="M 848.3129 5612.9641 667.0534 5730.9353 441.9307 5544.5614 334.4722 5103.3926 498.9327 4995.6867 577.5063 5113.2265 759.3494 5545.2868 848.3129 5612.9641 Z" fill="none" stroke="#E71E24" opacity="0.6" stroke-width="1" class="huguenot"/>
<path d="M 617.4562 5087.4432 838.1573 5586.1306 605.8526 5701.2076 486.5804 5117.6326 617.4562 5087.4432 Z" fill="none" stroke="#E71E24" opacity="0.6" stroke-width="1" class="huguenot"/>
<path d="M 635.7591 5611.5854 465.2859 5100.0231 604.5911 5033.8185 878.2342 5503.0038 635.7591 5611.5854 Z" fill="none" stroke="#E71E24" opacity="0.6" stroke-width="1" class="huguenot"/>
<path d="M 626.3092 5275.0713 743.5772 5542.4797 622.7457 5619.8775 525.0981 5306.2629 626.3092 5275.0713 Z" fill="none" stroke="#E71E24" opacity="0.6" stroke-width="1" class="huguenot"/>
<path d="M 813.518 5381.7724 876.3578 5513.1694 728.6835 5562.7876 642.5859 5464.6017 615.7188 5444.2033 619.5021 5412.7817 769.1666 5291.0959 813.518 5381.7724 Z" fill="none" stroke="#E71E24" opacity="0.6" stroke-width="1" class="huguenot"/>
<path d="M 530.6883 5296.571 671.3768 5245.1338 731.0075 5345.0868 537.3201 5435.7023 530.6883 5296.571 Z" fill="none" stroke="#E71E24" opacity="0.6" stroke-width="1" class="huguenot"/>
<path d="M 528.4116 5299.9744 549.7659 5294.4788 491.8203 5116.0178 549.3964 5091.2036 574.4245 5099.5787 596.3335 5094.6829 638.8502 5164.551 678.0604 5239.9081 696.3883 5220.6006 750.9323 5313.1442 765.5016 5412.2878 820.3637 5521.3405 838.7753 5595.3415 762.535 5607.9214 724.7586 5560.9504 696.1054 5506.3416 677.5172 5518.3193 597.7282 5506.1216 589.4258 5499.951 528.4116 5299.9744 Z" fill="none" stroke="#E71E24" opacity="0.6" stroke-width="1" class="huguenot"/>
<path d="M 473.27 5634.3213 480.0352 5138.8717 390.7045 5245.8578 608.8564 5605.0524 473.27 5634.3213 Z" fill="none" stroke="#E71E24" opacity="0.6" stroke-width="1" class="huguenot"/>
<path d="M 845.3213 5506.3 750.5758 5544.0081 646.9187 5604.566 554.0649 5404.5002 462.6226 5149.9387 442.362 5088.8974 491.0555 5053.6117 561.6425 5016.8172 607.1142 5008.6058 689.6542 5148.7078 778.2871 5295.3548 809.7184 5375.7099 845.3213 5506.3 Z" fill="none" stroke="#E71E24" opacity="0.6" stroke-width="1" class="huguenot"/>
<path d="M 531.6086 5299.8082 630.0206 5275.0796 740.7889 5544.3228 632.9808 5608.8054 531.6086 5299.8082 Z" fill="none" stroke="#E71E24" opacity="0.6" stroke-width="1" class="huguenot"/>
<path d="M 668.2888 5592.2417 610.0475 5489.4887 635.1616 5464.585 618.5552 5421.0992 675.2124 5399.0404 699.3682 5386.1521 737.3516 5415.8147 791.8685 5528.7138 846.4677 5607.4128 681.9226 5723.5705 667.1906 5668.9821 689.5942 5611.7049 668.2888 5592.2417 Z" fill="none" stroke="#E71E24" opacity="0.6" stroke-width="1" class="huguenot"/>
<path d="M 706.812 5376.9246 737.8309 5408.6516 798.8351 5525.9547 806.8131 5595.0809 777.5383 5612.8182 730.1052 5657.099 683.1063 5712.9391 672.911 5705.7503 676.3007 5641.9567 657.5886 5604.0064 637.2362 5470.5986 616.474 5418.0902 677.0781 5394.6537 706.812 5376.9246 Z" fill="none" stroke="#E71E24" opacity="0.6" stroke-width="1" class="huguenot"/>
<path d="M 474.9852 5117.1426 630.5083 5058.8265 734.1423 5181.5001 528.8478 5290.0966 474.9852 5117.1426 Z" fill="none" stroke="#E71E24" opacity="0.6" stroke-width="1" class="huguenot"/>
<path d="M 883.7914 5549.8468 628.016 5652.7791 428.094 5120.1719 606.7571 5032.1879 883.7914 5549.8468 Z" fill="none" stroke="#E71E24" opacity="0.6" stroke-width="1" class="huguenot"/>
<path d="M 673.2564 5444.3322 406.5053 5234.8065 616.4979 5509.842 359.5904 5075.7341 437.6256 5030.6505 801.5656 5328.1357 673.2564 5444.3322 Z" fill="none" stroke="#E71E24" opacity="0.6" stroke-width="1" class="huguenot"/></svg>