<?xml version="1.0"?><svg xmlns="http://www.w3.org/2000/svg" version="1.2" baseProfile="tiny" width="6000" height="5918" viewBox="0 0 6000 5918" stroke-linecap="round" stroke-linejoin="round"><path d="M 4008.7371 1334.521 4074.8511 1411.6234 4149.0017 1444.9635 4192.5768 1538.8 4146.4855 1619.8889 4079.9335 1617.2218 4081.1145 1587.8736 4018.2974 1611.8974 3910.0817 1549.4282 3876.7028 1458.3275 3958.8784 1364.0402 3980.1038 1342.8424 4008.7371 1334.521 Z" fill="none" stroke="#A9159C" opacity="0.6" stroke-width="1" class="hunts_point"/>
<path d="M 3921.0079 1376.0536 3900.6834 1379.7603 3844.3884 1442.4219 3978.2747 1357.5721 4008.7589 1351.0892 4085.5218 1400.6912 4183.6276 1503.6518 4159.8089 1645.4723 3938.8681 1619.9923 3805.781 1628.4351 3837.0405 1482.0148 3825.9042 1440.6017 3849.8885 1403.7531 3917.296 1363.1714 3921.0079 1376.0536 Z" fill="none" stroke="#A9159C" opacity="0.6" stroke-width="1" class="hunts_point"/>
<path d="M 3947.5717 1374.1797 3948.261 1371.1873 4054.9387 1504.6421 4053.2059 1504.6445 4135.67 1571.8505 4133.7122 1576.1115 3967.4351 1552.7458 4053.3197 1503.3785 3922.5261 1483.755 3923.9146 1485.5945 3965.5914 1556.4308 3959.1114 1548.1531 3947.5717 1374.1797 Z" fill="none" stroke="#A9159C" opacity="0.6" stroke-width="1" class="hunts_point"/>
<path d="M 4001.2172 1236.9683 4030.9686 1375.9125 4145.6506 1444.7908 4184.6196 1548.7614 4139.4729 1644.5814 3859.2968 1548.2741 3844.4221 1471.88 4001.2172 1236.9683 Z" fill="none" stroke="#A9159C" opacity="0.6" stroke-width="1" class="hunts_point"/>
<path d="M 3817.2623 1563.5129 3794.6247 1463.0751 3858.3917 1265.6761 3861.9478 1244.9636 3963.3715 1264.0529 4024.2001 1237.5131 4038.3709 1383.2665 4141.0193 1437.4331 4189.224 1537.7067 4157.929 1624.2981 4167.4633 1820.4196 4018.6814 1864.8341 3887.3088 1788.5626 3834.5268 1710.3517 3810.43 1653.29 3826.0791 1596.1874 3817.2623 1563.5129 Z" fill="none" stroke="#A9159C" opacity="0.6" stroke-width="1" class="hunts_point"/>
<path d="M 4009.0866 1599.6467 3995.3932 1553.1701 3969.0581 1557.1169 3965.2871 1498.8915 3940.1049 1499.8438 3898.2988 1510.0217 3888.9841 1448.8137 3836.9432 1396.4038 3855.3989 1374.2908 3855.3569 1337.9323 3904.5584 1336.4935 4008.9456 1317.4925 4175.3032 1499.0613 4009.0866 1599.6467 Z" fill="none" stroke="#A9159C" opacity="0.6" stroke-width="1" class="hunts_point"/>
<path d="M 3976.4278 1358.495 3986.5587 1332.7091 4009.6805 1349.247 4088.3224 1420.9388 4194.7678 1536.7777 4105.2475 1626.2158 3941.5847 1574.8745 3843.6095 1569.4675 3802.8259 1462.7209 3825.8721 1412.0651 3903.4756 1396.3259 3976.4278 1358.495 Z" fill="none" stroke="#A9159C" opacity="0.6" stroke-width="1" class="hunts_point"/>
<path d="M 3915.6455 1525.191 3884.0943 1416.6005 4122.8142 1629.8736 3989.6664 1591.3857 3915.6455 1525.191 Z" fill="none" stroke="#A9159C" opacity="0.6" stroke-width="1" class="hunts_point"/>
<path d="M 4006.8685 1318.8759 4063.3544 1408.0861 4140.102 1442.0372 4184.6086 1541.3962 4144.0513 1615.1112 4078.4291 1616.1255 3998.9294 1607.0257 3883.3186 1541.8014 3867.5114 1459.8858 3986.542 1319.8229 4006.8685 1318.8759 Z" fill="none" stroke="#A9159C" opacity="0.6" stroke-width="1" class="hunts_point"/>
<path d="M 3999.6163 1425.6617 4185.4718 1500.8872 4168.9821 1598.5016 3889.8934 1630.18 3792.4732 1396.7985 3788.3098 1392.0854 3795.6562 1349.8503 3795.633 1328.6799 3814.3081 1296.4444 3820.6482 1285.6225 3835.7602 1269.9588 3999.6163 1425.6617 Z" fill="none" stroke="#A9159C" opacity="0.6" stroke-width="1" class="hunts_point"/>
<path d="M 3875.3567 1451.5915 3893.3456 1425.3345 3915.9487 1394.93 3940.3995 1365.4441 3961.1628 1343.787 3982.39 1324.4305 4005.0211 1319.3386 4027.7197 1364.871 4061.0354 1401.6457 4064.7411 1408.5445 4089.7053 1418.6355 4120.2211 1433.3208 4143.8024 1444.7935 4159.5605 1477.4506 4185.9983 1543.6958 4143.5925 1617.4137 4128.3546 1626.1827 4075.6627 1620.733 4077.9625 1612.9037 4072.3945 1596.799 4016.4923 1608.3836 4005.4017 1608.8586 3977.6399 1582.6547 3972.9993 1567.4694 3948.0353 1559.6753 3928.6165 1551.4135 3893.4926 1548.2339 3852.8364 1556.1072 3835.2862 1564.8736 3821.8896 1569.0317 3805.7074 1561.6844 3781.1918 1539.6153 3780.2621 1534.5528 3875.3567 1451.5915 Z" fill="none" stroke="#A9159C" opacity="0.6" stroke-width="1" class="hunts_point"/>
<path d="M 3999.4501 1298.6364 4139.1792 1442.9591 4149.5861 1607.7373 3959.1242 1558.2804 3853.6337 1446.0935 3931.1268 1339.2223 3999.4501 1298.6364 Z" fill="none" stroke="#A9159C" opacity="0.6" stroke-width="1" class="hunts_point"/>
<path d="M 3984.6964 1321.6662 3989.3164 1321.6602 4186.4431 1532.187 4136.6785 1629.8536 3886.0901 1540.8775 3868.4485 1470.9316 3984.6964 1321.6662 Z" fill="none" stroke="#A9159C" opacity="0.6" stroke-width="1" class="hunts_point"/>
<path d="M 4010.0954 1339.473 4067.6226 1404.6854 4149.004 1447.8348 4195.3393 1533.3815 4141.8664 1622.7674 4083.6302 1618.247 4074.3568 1596.1628 4018.7823 1606.7638 3897.6327 1547.9932 3883.6746 1467.9163 3928.873 1399.7413 3954.7003 1362.8893 3986.0898 1341.6785 4010.0954 1339.473 Z" fill="none" stroke="#A9159C" opacity="0.6" stroke-width="1" class="hunts_point"/>
<path d="M 3933.198 1290.3993 3993.6341 1255.6754 3871.4075 1456.7209 3997.0768 1253.6719 4138.4197 1443.0431 4185.696 1540.5568 4134.0543 1618.8915 4024.0541 1610.7582 3866.3254 1454.7827 3933.198 1290.3993 Z" fill="none" stroke="#A9159C" opacity="0.6" stroke-width="1" class="hunts_point"/>
<path d="M 3977.3022 1319.8348 4278.4474 1273.3791 4380.4196 1471.1145 4406.5019 1589.832 4019.3269 1654.877 3881.4822 1551.9308 3881.3711 1458.0284 3977.3022 1319.8348 Z" fill="none" stroke="#A9159C" opacity="0.6" stroke-width="1" class="hunts_point"/>
<path d="M 3944.5401 1557.6027 3786.2694 1534.5463 3843.519 1490.2928 3885.984 1451.5789 3924.7176 1387.095 3961.6213 1341.0251 4017.0812 1355.6805 4122.5493 1445.7449 4176.2935 1543.25 4108.0072 1617.0046 3944.5401 1557.6027 Z" fill="none" stroke="#A9159C" opacity="0.6" stroke-width="1" class="hunts_point"/>
<path d="M 4023.5812 1379.6043 4197.4328 1465.8866 4154.2753 1653.7672 3887.0275 1551.9242 3993.0854 1377.8035 4023.5812 1379.6043 Z" fill="none" stroke="#A9159C" opacity="0.6" stroke-width="1" class="hunts_point"/>
<path d="M 3958.8586 1348.3922 3982.8485 1321.6686 4007.7913 1317.9543 4039.29 1379.5832 4144.7292 1446.6333 4171.597 1492.6226 4183.6927 1546.9215 4139.4661 1639.9777 4085.8388 1627.1639 4026.6685 1615.2754 3993.3802 1604.2708 3994.2877 1591.3797 3873.1632 1551.0199 3861.9977 1486.5891 3873.0648 1467.2439 3903.5122 1426.7031 3925.6451 1389.8554 3958.8586 1348.3922 Z" fill="none" stroke="#A9159C" opacity="0.6" stroke-width="1" class="hunts_point"/>
<path d="M 4356.7466 1188.3784 3828.7895 1563.7541 3753.2553 1302.5786 4070.8225 1171.6282 4356.7466 1188.3784 Z" fill="none" stroke="#A9159C" opacity="0.6" stroke-width="1" class="hunts_point"/>
<path d="M 4153.1505 1517.5065 4126.5047 1625.2646 3863.7817 1431.3529 3986.3347 1159.6811 4178.8647 1408.8406 4120.9511 1619.7483 4119.0959 1615.1473 4153.1505 1517.5065 Z" fill="none" stroke="#A9159C" opacity="0.6" stroke-width="1" class="hunts_point"/></svg>