<?xml version="1.0"?><svg xmlns="http://www.w3.org/2000/svg" version="1.2" baseProfile="tiny" width="6000" height="5918" viewBox="0 0 6000 5918" stroke-linecap="round" stroke-linejoin="round"><path d="M 5122.6411 2637.5684 5209.2117 2838.3034 4933.6175 2924.7177 4873.9907 2749.6903 5122.6411 2637.5684 Z" fill="none" stroke="#12852D" opacity="0.6" stroke-width="1" class="jamaica_estates"/>
<path d="M 4942.0537 2720.9912 5273.1726 2591.2951 5407.611 2713.456 5208.0689 2843.0524 4996.1555 2903.3978 5012.53 2783.5102 4936.6838 2800.2812 4942.0537 2720.9912 Z" fill="none" stroke="#12852D" opacity="0.6" stroke-width="1" class="jamaica_estates"/>
<path d="M 4937.3218 2925.6311 4876.7586 2745.9968 5277.042 2592.0075 5406.0048 2718.8548 5260.0542 2816.045 4941.0325 2929.3106 4937.3218 2925.6311 Z" fill="none" stroke="#12852D" opacity="0.6" stroke-width="1" class="jamaica_estates"/>
<path d="M 5008.0239 2687.1606 5239.5979 2602.7056 5357.5185 2753.5571 5274.8345 2805.8651 5205.0411 2836.0095 5074.2008 2882.8958 5008.0239 2687.1606 Z" fill="none" stroke="#12852D" opacity="0.6" stroke-width="1" class="jamaica_estates"/>
<path d="M 5124.4916 2637.5638 5213.8343 2836.4477 4932.6898 2923.7978 4871.2125 2748.7747 5124.4916 2637.5638 Z" fill="none" stroke="#12852D" opacity="0.6" stroke-width="1" class="jamaica_estates"/>
<path d="M 5204.5819 2837.3935 4931.3075 2928.8738 4892.1931 2822.0171 5172.9763 2734.7961 5204.5819 2837.3935 Z" fill="none" stroke="#12852D" opacity="0.6" stroke-width="1" class="jamaica_estates"/>
<path d="M 5206.4352 2838.3106 4928.0472 2917.3545 4932.6665 2913.656 4869.3679 2751.5443 5126.3422 2637.5592 5206.4352 2838.3106 Z" fill="none" stroke="#12852D" opacity="0.6" stroke-width="1" class="jamaica_estates"/>
<path d="M 5011.9258 2771.4963 5019.5894 2686.6722 5121.2681 2643.563 5027.6015 2747.9521 4988.8075 2778.6953 5011.9258 2771.4963 Z" fill="none" stroke="#12852D" opacity="0.6" stroke-width="1" class="jamaica_estates"/>
<path d="M 5207.3631 2839.2301 4996.4748 2890.4582 5027.6489 2767.7714 5008.0316 2690.3867 5130.9755 2640.3128 5207.3631 2839.2301 Z" fill="none" stroke="#12852D" opacity="0.6" stroke-width="1" class="jamaica_estates"/>
<path d="M 5153.3313 2699.2482 5136.548 2648.5943 5124.4456 2619.1298 5163.2596 2600.5983 5201.1255 2573.7731 5224.2606 2575.5564 5247.4249 2588.3991 5259.4699 2594.819 5266.0442 2631.6693 5269.8162 2658.3893 5272.641 2676.8167 5269.0082 2702.6358 5275.0155 2699.8545 5234.3549 2720.7018 5201.0741 2733.2326 5185.8091 2734.6545 5164.0441 2727.3356 5155.6797 2713.069 5153.3313 2699.2482 Z" fill="none" stroke="#12852D" opacity="0.6" stroke-width="1" class="jamaica_estates"/>
<path d="M 4985.3902 2899.7039 5020.2479 2768.7109 5110.6125 2637.5984 5212.9136 2838.2939 4985.3902 2899.7039 Z" fill="none" stroke="#12852D" opacity="0.6" stroke-width="1" class="jamaica_estates"/>
<path d="M 5046.4236 2876.1984 5019.8232 2710.0178 5129.1472 2659.3717 5270.216 2782.9643 5203.1586 2828.2795 5046.4236 2876.1984 Z" fill="none" stroke="#12852D" opacity="0.6" stroke-width="1" class="jamaica_estates"/>
<path d="M 4998.3433 2897.8295 4988.0583 2853.6004 5030.4539 2779.7487 4994.9247 2625.8964 5107.7041 2584.1477 5206.4281 2835.5449 4998.3433 2897.8295 Z" fill="none" stroke="#12852D" opacity="0.6" stroke-width="1" class="jamaica_estates"/>
<path d="M 5011.4999 2689.6872 5125.6557 2640.5565 5158.9447 2723.4309 5172.8797 2744.8275 5207.1294 2838.3088 5055.4674 2886.3987 5039.4906 2881.597 4996.9582 2899.2157 4998.0923 2889.5324 4996.2064 2874.7857 4991.3198 2863.0425 4993.5998 2848.7472 5000.2752 2834.2114 5004.4027 2818.5293 5008.2893 2798.9302 5019.8243 2785.0748 5026.9565 2768.4644 5024.758 2719.8438 5011.4999 2689.6872 Z" fill="none" stroke="#12852D" opacity="0.6" stroke-width="1" class="jamaica_estates"/>
<path d="M 5018.197 2684.832 5027.437 2679.2793 5166.1033 2627.3201 5230.3917 2797.6853 5037.0936 2847.0303 5018.197 2684.832 Z" fill="none" stroke="#12852D" opacity="0.6" stroke-width="1" class="jamaica_estates"/>
<path d="M 4997.6295 2889.5335 4997.1531 2883.7724 4993.6515 2870.6429 4990.3905 2861.4313 4990.3693 2852.4425 4996.1258 2840.6745 5003.9465 2821.2961 5004.6073 2807.2358 5006.9034 2799.8553 5012.4335 2790.3931 5019.1313 2785.5373 5025.5651 2767.085 5026.2393 2758.7869 5025.4559 2721.4553 5014.7611 2699.1275 5128.2244 2650.2282 5142.1989 2687.9846 5162.4347 2731.2574 5172.6501 2745.5195 5202.9374 2827.7178 5180.2836 2835.6121 5178.654 2831.6982 5166.6329 2835.6469 5154.1419 2836.831 5107.6764 2852.8504 5045.2673 2878.3563 5039.0095 2873.9921 5023.2814 2876.3347 4997.6295 2889.5335 Z" fill="none" stroke="#12852D" opacity="0.6" stroke-width="1" class="jamaica_estates"/>
<path d="M 5108.2619 2809.0586 5273.9727 2829.8365 5318.714 2947.7274 5261.518 3019.8002 5113.3795 3006.3488 5067.8188 2922.5561 5108.2619 2809.0586 Z" fill="none" stroke="#12852D" opacity="0.6" stroke-width="1" class="jamaica_estates"/>
<path d="M 5155.3103 2749.9422 5255.3662 2793.0104 5268.5152 2865.8058 5279.8028 2934.0016 5198.5714 3019.0423 5042.8466 2929.9926 5155.3103 2749.9422 Z" fill="none" stroke="#12852D" opacity="0.6" stroke-width="1" class="jamaica_estates"/>
<path d="M 5295.5516 2593.8014 5400.3961 2698.5912 5290.0076 2596.5812 5072.2732 2851.5546 5404.1232 2707.7986 4736.6276 2998.9114 4726.0418 2804.3981 5295.5516 2593.8014 Z" fill="none" stroke="#12852D" opacity="0.6" stroke-width="1" class="jamaica_estates"/>
<path d="M 4999.283 2903.8201 4991.2964 2853.1318 5019.8259 2785.7661 4995.8434 2623.1291 5216.2899 2534.5644 5309.2704 2706.2153 5363.0696 2753.0809 5302.5569 2790.5802 5200.8872 2840.1688 5059.8609 2885.2356 5043.6598 2883.4309 4999.283 2903.8201 Z" fill="none" stroke="#12852D" opacity="0.6" stroke-width="1" class="jamaica_estates"/>
<path d="M 4997.4265 2901.5195 4995.4687 2856.3487 5027.6335 2761.3186 5025.6724 2715.2327 4998.6366 2630.4961 5221.3867 2537.7768 5252.0802 2599.4469 5294.8535 2678.601 5341.24 2722.7209 5360.7536 2752.1654 5210.1395 2839.223 5064.0279 2886.1474 5045.502 2879.7387 4997.4265 2901.5195 Z" fill="none" stroke="#12852D" opacity="0.6" stroke-width="1" class="jamaica_estates"/>
<path d="M 4904.7727 2857.4804 4908.4768 2858.3939 5068.5892 2858.939 5518.3033 2831.9217 5802.1124 3022.8277 5922.7124 3101.7355 5934.5201 3310.1289 5765.7474 3522.8486 5376.0369 3595.0462 4752.5448 3525.5216 4621.2987 3190.0311 4724.4586 2933.4725 4904.7727 2857.4804 Z" fill="none" stroke="#12852D" opacity="0.6" stroke-width="1" class="jamaica_estates"/>
<path d="M 5143.0459 2656.8735 5181.3803 2812.101 5170.2702 2810.2856 5202.2706 2838.3214 5168.9911 2853.1573 5091.3001 2873.6343 5034.9746 2735.4899 5146.7912 2674.3772 5196.2384 2831.8836 5143.0459 2656.8735 Z" fill="none" stroke="#12852D" opacity="0.6" stroke-width="1" class="jamaica_estates"/>
<path d="M 5119.8779 2642.6448 5160.8287 2736.5618 5181.0381 2768.7743 5197.8236 2818.512 5205.9701 2837.3899 5159.0381 2851.5692 5109.7948 2867.3655 5105.3707 2856.0828 5076.9345 2865.3722 5055.2557 2799.048 5038.3299 2783.8781 5020.0485 2782.0782 5028.5412 2753.9417 5026.394 2726.7534 5010.8048 2689.2279 5119.8779 2642.6448 Z" fill="none" stroke="#12852D" opacity="0.6" stroke-width="1" class="jamaica_estates"/>
<path d="M 4894.9027 2830.9516 4903.7755 2825.7689 4979.2291 2798.3073 5020.6621 2787.1469 5076.1658 2778.163 5141.3001 2772.1015 5168.6264 2746.2211 5179.699 2733.6562 5249.1841 2694.3921 5313.5752 2689.7961 5351.3447 2695.5928 5379.4871 2699.9398 5393.5891 2713.1743 5346.3321 2757.5516 5294.5969 2790.1406 5216.9684 2831.6456 5070.4609 2867.4162 4932.1192 2917.1608 4894.9027 2830.9516 Z" fill="none" stroke="#12852D" opacity="0.6" stroke-width="1" class="jamaica_estates"/>
<path d="M 5004.3325 2691.3173 5129.1272 2641.2391 5211.9761 2833.6868 5079.7426 2878.2725 5061.9852 2807.3285 5026.7412 2775.1483 5004.3325 2691.3173 Z" fill="none" stroke="#12852D" opacity="0.6" stroke-width="1" class="jamaica_estates"/>
<path d="M 5178.5062 2773.8509 5196.6846 2825.4291 5133.785 2838.2651 5115.9829 2843.6106 5001.7616 2875.6945 5004.6324 2817.8374 5012.2186 2797.3076 5025.6021 2782.5258 5098.6976 2777.2779 5147.0155 2763.3297 5175.9601 2773.3965 5178.5062 2773.8509 Z" fill="none" stroke="#12852D" opacity="0.6" stroke-width="1" class="jamaica_estates"/>
<path d="M 5165.3538 2621.3066 5195.8944 2698.2179 5198.4041 2814.9421 5103.3496 2820.0698 5029.4858 2771.8033 5014.0683 2686.8102 5165.3538 2621.3066 Z" fill="none" stroke="#12852D" opacity="0.6" stroke-width="1" class="jamaica_estates"/>
<path d="M 4866.5175 2724.4272 4879.8874 2909.6968 5147.4278 2499.0333 5269.4349 2805.6535 5215.8813 2852.8109 4866.5175 2724.4272 Z" fill="none" stroke="#12852D" opacity="0.6" stroke-width="1" class="jamaica_estates"/>
<path d="M 5082.7285 2775.0126 5126.4427 2770.2951 5167.7678 2736.0833 5183.3428 2765.3115 5195.4726 2803.9984 5208.0477 2835.5407 5127.1324 2861.0993 5079.5084 2877.1206 5054.3061 2884.5576 5042.954 2878.5924 5060.2844 2869.1005 5057.0234 2860.1196 5066.4507 2835.8963 5054.3274 2797.8979 5042.7323 2786.6331 5029.9961 2781.8239 5051.2774 2780.3899 5082.7285 2775.0126 Z" fill="none" stroke="#12852D" opacity="0.6" stroke-width="1" class="jamaica_estates"/>
<path d="M 4737.1471 2804.3749 5246.536 2602.2265 5415.2093 2701.3151 4737.5493 2997.0654 4729.7455 2805.3122 5241.905 2600.3953 4737.1471 2804.3749 Z" fill="none" stroke="#12852D" opacity="0.6" stroke-width="1" class="jamaica_estates"/>
<path d="M 5124.4893 2636.6421 5208.2886 2839.2277 5051.9928 2884.7937 5040.8733 2879.2888 4995.5645 2896.9141 4990.8282 2850.8281 5017.5025 2781.6233 5025.6834 2719.8416 5009.8822 2690.3823 5124.4893 2636.6421 Z" fill="none" stroke="#12852D" opacity="0.6" stroke-width="1" class="jamaica_estates"/>
<path d="M 5011.7285 2688.5344 5163.3298 2628.2489 5195.0023 2711.1251 5027.6556 2770.5369 5011.7285 2688.5344 Z" fill="none" stroke="#12852D" opacity="0.6" stroke-width="1" class="jamaica_estates"/>
<path d="M 5011.7252 2687.1518 5122.6468 2639.8727 5146.8598 2701.569 5171.0301 2745.2932 5207.8151 2835.0804 5058.932 2883.8549 5035.7841 2879.7621 4996.0349 2900.1398 4999.2187 2876.6224 4992.6847 2853.1285 5001.4091 2824.5287 5010.1309 2795.0079 5027.6434 2765.4668 5030.3146 2721.6741 5011.7252 2687.1518 Z" fill="none" stroke="#12852D" opacity="0.6" stroke-width="1" class="jamaica_estates"/>
<path d="M 5203.6321 2827.9464 5040.8833 2883.4376 5021.2091 2783.6887 5011.2669 2688.9964 5010.8021 2688.0757 5124.7264 2638.9458 5142.6546 2685.2182 5203.6321 2827.9464 Z" fill="none" stroke="#12852D" opacity="0.6" stroke-width="1" class="jamaica_estates"/>
<path d="M 5206.5151 2838.6736 5167.7766 2736.9629 5205.9679 2709.4623 5255.3787 2691.9064 5285.8149 2680.9134 5300.4205 2703.7807 5327.9406 2720.1599 5348.1822 2734.0085 5359.8044 2754.0262 5206.5151 2838.6736 Z" fill="none" stroke="#12852D" opacity="0.6" stroke-width="1" class="jamaica_estates"/>
<path d="M 5207.872 2840.9731 5079.8675 2881.2759 5028.7035 2772.6159 5011.93 2690.7665 5127.4738 2641.6322 5207.872 2840.9731 Z" fill="none" stroke="#12852D" opacity="0.6" stroke-width="1" class="jamaica_estates"/>
<path d="M 4872.1358 2747.8508 5124.5008 2641.2507 5241.9026 2599.4737 5288.1424 2591.0562 5416.1398 2703.156 5358.9079 2754.0142 5206.4329 2837.3887 5050.1463 2886.6421 5039.0311 2882.9811 4929.9237 2928.4141 4886.2049 2831.7087 4872.1358 2747.8508 Z" fill="none" stroke="#12852D" opacity="0.6" stroke-width="1" class="jamaica_estates"/>
<path d="M 5023.5089 2777.9216 5011.4916 2783.4814 4992.9941 2788.1345 4969.4249 2800.6349 4944.4466 2804.3804 4936.4998 2769.3681 4952.2104 2760.1135 4939.1625 2720.0447 4951.6442 2715.4069 4966.8996 2709.8408 4984.4541 2698.2775 4997.3925 2691.3337 5020.9741 2685.2862 5031.1438 2681.5748 5042.6914 2673.7122 5057.4874 2669.9894 5071.3513 2663.5034 5087.9852 2654.7062 5108.3176 2644.9778 5124.9508 2636.1801 5129.621 2653.6811 5137.53 2671.1743 5144.5197 2690.9745 5154.7497 2711.2278 5167.7608 2733.3179 5176.135 2751.272 5181.2647 2766.93 5186.8526 2780.7434 5193.8347 2796.8581 5199.8952 2814.3582 5210.13 2835.5353 5200.8848 2839.2469 5184.244 2846.204 5163.437 2852.7105 5131.532 2862.4712 5102.4028 2872.224 5079.7448 2879.1944 5058.4726 2885.239 5043.6532 2880.6651 5029.7815 2885.3082 5013.6069 2894.5664 4998.8017 2895.9845 4995.9957 2883.5447 4992.2654 2871.5682 4992.2284 2855.8954 4994.05 2843.4452 5000.9639 2831.905 5004.6318 2817.6069 5006.4499 2803.7744 5015.2131 2791.7692 5023.5089 2777.9216 Z" fill="none" stroke="#12852D" opacity="0.6" stroke-width="1" class="jamaica_estates"/>
<path d="M 5010.3394 2688.0768 5124.0324 2638.9475 5206.4341 2837.8497 5053.3833 2885.7123 5040.8722 2878.8279 4996.502 2901.9827 4996.477 2891.3801 4995.0506 2875.2494 4987.6064 2858.2111 4995.8988 2842.5189 5003.2546 2822.2196 5006.4576 2807.0009 5010.1199 2790.3986 5021.6723 2783.918 5024.8738 2768.239 5026.6176 2723.5266 5010.3394 2688.0768 Z" fill="none" stroke="#12852D" opacity="0.6" stroke-width="1" class="jamaica_estates"/>
<path d="M 5139.6598 2782.246 4890.1557 2942.3344 4811.2202 2821.7332 5173.8039 2744.3643 5187.9163 2834.6707 5139.6598 2782.246 Z" fill="none" stroke="#12852D" opacity="0.6" stroke-width="1" class="jamaica_estates"/>
<path d="M 4893.1387 2828.4664 5170.0989 2742.991 5160.3649 2736.1021 5159.3764 2711.2161 5147.305 2694.6546 5133.3314 2657.3588 5082.0035 2668.0861 5055.3652 2748.8071 5172.9103 2756.8112 5090.8442 2876.4013 4939.6389 2927.0088 4918.7371 2893.4045 4898.7029 2833.5243 4893.1387 2828.4664 Z" fill="none" stroke="#12852D" opacity="0.6" stroke-width="1" class="jamaica_estates"/>
<path d="M 5010.3394 2688.0768 5124.498 2640.0985 5154.0597 2712.8427 5207.1288 2838.0784 5052.2237 2884.5626 5040.4128 2880.2119 4997.8876 2900.8269 4990.3753 2854.9778 5005.2975 2805.6209 5022.1246 2779.5381 5025.6906 2722.8374 5010.3394 2688.0768 Z" fill="none" stroke="#12852D" opacity="0.6" stroke-width="1" class="jamaica_estates"/>
<path d="M 4891.0797 2941.6408 4838.307 2829.5102 5012.1928 2689.2246 5124.033 2639.178 5205.9707 2837.6204 4891.0797 2941.6408 Z" fill="none" stroke="#12852D" opacity="0.6" stroke-width="1" class="jamaica_estates"/>
<path d="M 5046.9421 2709.6508 5020.9818 2688.5124 5026.5437 2692.647 5123.1221 2644.941 5136.2647 2720.0314 5189.042 2732.3417 5284.2529 2693.8384 5344.5631 2753.5925 5195.2715 2815.7529 5082.0055 2857.5233 5035.0588 2770.5191 5023.3193 2698.6462 5046.9421 2709.6508 Z" fill="none" stroke="#12852D" opacity="0.6" stroke-width="1" class="jamaica_estates"/>
<path d="M 5213.5188 2714.7644 5233.8356 2699.0412 5253.258 2695.3032 5285.6348 2691.5303 5307.86 2697.9231 5323.6257 2710.7854 5328.315 2733.8177 5332.9894 2751.3195 5317.3052 2768.8769 5303.4588 2781.8201 5272.9494 2792.9639 5251.7033 2807.77 5226.7596 2824.4293 5197.171 2834.6469 5166.6704 2850.3974 5146.3074 2849.5271 5116.7286 2864.352 5091.7538 2869.9455 5104.6401 2841.3339 5096.2357 2810.9321 5095.2443 2784.2003 5194.1173 2726.7979 5213.5188 2714.7644 Z" fill="none" stroke="#12852D" opacity="0.6" stroke-width="1" class="jamaica_estates"/>
<path d="M 5008.4789 2683.9333 5226.1975 2608.7315 5276.3276 2671.2764 5164.5642 2749.9187 5205.4907 2830.9378 5191.6324 2840.1926 5062.1668 2882.0032 5008.4789 2683.9333 Z" fill="none" stroke="#12852D" opacity="0.6" stroke-width="1" class="jamaica_estates"/></svg>