<?xml version="1.0"?><svg xmlns="http://www.w3.org/2000/svg" version="1.2" baseProfile="tiny" width="6000" height="5918" viewBox="0 0 6000 5918" stroke-linecap="round" stroke-linejoin="round"><path d="M 4838.3085 2830.2017 5003.8629 2786.0346 5019.5923 2784.8448 5009.2044 2794.5491 5005.3019 2807.4646 5005.3352 2821.5233 4991.2948 2852.4404 4990.3856 2859.3569 4996.9114 2879.3937 4996.7301 2900.5992 4978.9379 2911.0133 4892.7057 2944.4032 4884.5743 2929.8999 4868.8202 2921.1762 4854.178 2891.936 4838.3085 2830.2017 Z" fill="none" stroke="#865327" opacity="0.6" stroke-width="1" class="jamaica_hills"/>
<path d="M 5209.2069 2836.4596 4933.6217 2926.5616 4874.2241 2750.6116 5236.3536 2600.4099 5360.7625 2755.3918 5209.2069 2836.4596 Z" fill="none" stroke="#865327" opacity="0.6" stroke-width="1" class="jamaica_hills"/>
<path d="M 5133.2092 3532.0254 5198.0351 3530.0156 5261.028 3535.3869 5218.6786 3633.2967 5127.7814 3583.7049 5085.1126 3557.9772 5077.631 3528.4726 5133.2092 3532.0254 Z" fill="none" stroke="#865327" opacity="0.6" stroke-width="1" class="jamaica_hills"/>
<path d="M 5058.3327 2827.6189 5085.0353 2772.2414 5181.1834 2735.1273 5218.452 2832.748 5090.8646 2884.6988 5058.3327 2827.6189 Z" fill="none" stroke="#865327" opacity="0.6" stroke-width="1" class="jamaica_hills"/>
<path d="M 4281.4493 2855.9207 4193.35 2738.5201 4248.7038 2631.0501 4359.8233 2682.4859 4281.4493 2855.9207 Z" fill="none" stroke="#865327" opacity="0.6" stroke-width="1" class="jamaica_hills"/>
<path d="M 4901.6902 2858.4093 4932.2387 2928.7163 4894.485 2946.6277 4838.2376 2832.891 4889.5855 2825.8627 4901.6902 2858.4093 Z" fill="none" stroke="#865327" opacity="0.6" stroke-width="1" class="jamaica_hills"/>
<path d="M 5165.4474 2733.3238 5204.1144 2835.5509 4996.4911 2897.3729 4943.5148 2801.6169 4932.794 2767.5329 4952.2082 2759.1916 4940.5538 2721.4242 5123.1072 2638.9499 5165.4474 2733.3238 Z" fill="none" stroke="#865327" opacity="0.6" stroke-width="1" class="jamaica_hills"/>
<path d="M 4839.1095 2831.6747 4840.3377 2831.0724 4950.6878 2808.8779 4978.4076 2883.3853 4911.6538 2913.7056 4888.4999 2938.3855 4855.6377 2894.1097 4846.9244 2861.4734 4839.1095 2831.6747 Z" fill="none" stroke="#865327" opacity="0.6" stroke-width="1" class="jamaica_hills"/>
<path d="M 4837.1512 2829.9737 4887.1076 2821.5658 4955.5444 2801.1282 5017.5047 2782.5452 5018.4411 2787.1522 5003.6671 2801.0154 5000.9366 2820.3813 4994.5106 2842.5222 4988.0691 2858.21 4991.795 2868.3425 4995.5689 2898.758 4886.4575 2944.1867 4885.4967 2928.5148 4866.9609 2917.4924 4852.089 2888.9443 4848.3259 2861.2943 4839.0224 2839.1887 4837.1512 2829.9737 Z" fill="none" stroke="#865327" opacity="0.6" stroke-width="1" class="jamaica_hills"/>
<path d="M 4996.5031 2902.4437 4895.2484 2943.245 4857.6737 2903.2223 4843.2174 2853.0082 4824.5288 2771.0016 5012.6516 2687.6105 5024.7514 2717.0785 5022.1119 2774.2375 4996.5031 2902.4437 Z" fill="none" stroke="#865327" opacity="0.6" stroke-width="1" class="jamaica_hills"/>
<path d="M 4960.63 2998.4175 4699.7779 3084.7433 4512.0487 2687.7472 4754.2898 2595.0965 4865.3384 2604.0728 4960.63 2998.4175 Z" fill="none" stroke="#865327" opacity="0.6" stroke-width="1" class="jamaica_hills"/>
<path d="M 4823.1387 2770.0828 4874.4606 2752.9156 4921.5986 2727.9202 4957.9874 2856.8974 4980.7809 2907.5515 4799.06 2976.6498 4790.2687 2977.5908 4788.7983 2939.3299 4784.0985 2905.6874 4785.4287 2878.4867 4781.1655 2832.3996 4840.3822 2826.279 4823.1387 2770.0828 Z" fill="none" stroke="#865327" opacity="0.6" stroke-width="1" class="jamaica_hills"/>
<path d="M 4988.0583 2853.6004 4995.5134 2875.2483 4997.421 2899.2146 4988.1787 2904.7682 4967.3767 2914.4977 4891.5471 2943.7143 4888.2879 2934.9626 4869.7468 2921.6351 4854.8788 2894.9308 4850.1952 2869.5875 4843.2144 2851.6253 4837.1451 2827.2081 5018.4356 2784.8476 5008.746 2796.394 5005.0902 2815.7621 4997.7323 2835.1393 4988.0583 2853.6004 Z" fill="none" stroke="#865327" opacity="0.6" stroke-width="1" class="jamaica_hills"/>
<path d="M 5167.0732 2735.8546 5218.5652 2698.1593 5285.3702 2679.0872 5297.6888 2700.7157 5358.6727 2752.6321 5206.8944 2836.9266 5167.0732 2735.8546 Z" fill="none" stroke="#865327" opacity="0.6" stroke-width="1" class="jamaica_hills"/></svg>