<?xml version="1.0"?><svg xmlns="http://www.w3.org/2000/svg" version="1.2" baseProfile="tiny" width="6000" height="5918" viewBox="0 0 6000 5918" stroke-linecap="round" stroke-linejoin="round"><path d="M 3044.4345 2531.2525 3031.9435 2527.1089 3024.0776 2519.7383 3012.9755 2519.2805 3001.8712 2509.6066 2991.693 2503.158 2986.6027 2494.4043 2990.7636 2485.1876 3000.4732 2468.1365 3011.5706 2453.3891 3018.9673 2438.182 3026.3636 2422.5144 3034.223 2409.6112 3046.2468 2403.1573 3057.352 2418.3586 3070.7677 2425.2656 3044.4345 2531.2525 Z" fill="none" stroke="#E71E24" opacity="0.45454545454545453" stroke-width="1" class="kips_bay"/>
<path d="M 3043.5125 2541.8513 2942.6577 2489.3449 3017.5643 2380.5894 3074.0007 2410.9813 3043.5125 2541.8513 Z" fill="none" stroke="#E71E24" opacity="0.45454545454545453" stroke-width="1" class="kips_bay"/>
<path d="M 3054.5991 2491.1604 3029.6363 2547.385 2928.7821 2496.72 2957.4501 2441.4218 3054.5991 2491.1604 Z" fill="none" stroke="#E71E24" opacity="0.45454545454545453" stroke-width="1" class="kips_bay"/>
<path d="M 2977.3412 2449.4809 3001.3979 2466.5236 2977.3549 2510.3036 2950.7541 2496.7159 2977.3412 2449.4809 Z" fill="none" stroke="#E71E24" opacity="0.45454545454545453" stroke-width="1" class="kips_bay"/>
<path d="M 2991.6614 2371.3814 3076.778 2417.4309 3054.5935 2472.7293 2964.8471 2423.9116 2991.6614 2371.3814 Z" fill="none" stroke="#E71E24" opacity="0.45454545454545453" stroke-width="1" class="kips_bay"/>
<path d="M 2929.9383 2495.7982 2983.3425 2398.3362 3071.6997 2446.6905 3059.9428 2568.5736 2929.9383 2495.7982 Z" fill="none" stroke="#E71E24" opacity="0.45454545454545453" stroke-width="1" class="kips_bay"/>
<path d="M 2967.6148 2388.8946 3070.7744 2445.9996 3053.2328 2561.2025 2910.7402 2485.6641 2967.6148 2388.8946 Z" fill="none" stroke="#E71E24" opacity="0.45454545454545453" stroke-width="1" class="kips_bay"/>
<path d="M 3032.8755 2551.0706 2946.3612 2504.5502 2969.0098 2423.45 3058.2902 2460.7481 3032.8755 2551.0706 Z" fill="none" stroke="#E71E24" opacity="0.45454545454545453" stroke-width="1" class="kips_bay"/>
<path d="M 3043.2756 2522.728 2986.1395 2492.1005 3036.5336 2402.4691 3075.3926 2424.1122 3065.9171 2444.3885 3063.6068 2451.9918 3061.0657 2461.208 3057.8335 2479.6399 3058.2973 2483.326 3056.2196 2495.7678 3053.2155 2504.5237 3043.2756 2522.728 Z" fill="none" stroke="#E71E24" opacity="0.45454545454545453" stroke-width="1" class="kips_bay"/>
<path d="M 2984.7301 2398.5662 3064.2976 2442.3156 3062.019 2551.0619 3035.1897 2555.2173 2931.0947 2495.3372 2984.7301 2398.5662 Z" fill="none" stroke="#E71E24" opacity="0.45454545454545453" stroke-width="1" class="kips_bay"/>
<path d="M 3034.8891 2448.7788 2986.8051 2537.2619 2957.1979 2529.8955 2923.8881 2507.7834 2903.5272 2456.1793 2996.0137 2360.3267 3066.3234 2389.7934 2981.2528 2531.7335 3034.8891 2448.7788 Z" fill="none" stroke="#E71E24" opacity="0.45454545454545453" stroke-width="1" class="kips_bay"/>
<path d="M 2947.2855 2500.4029 3002.7709 2408.2374 3054.5828 2437.711 2997.2502 2528.9613 2950.9859 2499.4806 2947.2855 2500.4029 Z" fill="none" stroke="#E71E24" opacity="0.45454545454545453" stroke-width="1" class="kips_bay"/>
<path d="M 3065.6858 2444.1582 3032.8756 2551.5314 2886.6982 2574.1416 2984.2673 2397.1841 3065.6858 2444.1582 Z" fill="none" stroke="#E71E24" opacity="0.45454545454545453" stroke-width="1" class="kips_bay"/>
<path d="M 3067.9986 2444.3878 3057.1416 2485.8606 2945.883 2422.9939 2969.2335 2388.6639 3067.9986 2444.3878 Z" fill="none" stroke="#E71E24" opacity="0.45454545454545453" stroke-width="1" class="kips_bay"/>
<path d="M 2878.8209 2465.8551 2927.3729 2371.3946 3064.7613 2446.0015 3032.4122 2548.7667 2878.8209 2465.8551 Z" fill="none" stroke="#E71E24" opacity="0.45454545454545453" stroke-width="1" class="kips_bay"/>
<path d="M 3043.9638 2503.6049 2954.2142 2451.0985 2982.4185 2402.7134 3058.288 2453.3758 3050.9031 2505.9067 3043.9638 2503.6049 Z" fill="none" stroke="#E71E24" opacity="0.45454545454545453" stroke-width="1" class="kips_bay"/>
<path d="M 3007.4252 2521.5859 2960.2373 2499.4787 3023.1157 2385.1952 3076.7738 2404.53 3007.4252 2521.5859 Z" fill="none" stroke="#E71E24" opacity="0.45454545454545453" stroke-width="1" class="kips_bay"/>
<path d="M 3063.6036 2441.6247 3040.7287 2513.7432 2957.2283 2487.9597 2986.3573 2434.2738 3063.6036 2441.6247 Z" fill="none" stroke="#E71E24" opacity="0.45454545454545453" stroke-width="1" class="kips_bay"/>
<path d="M 3036.1147 2554.7562 2959.3145 2510.5379 3014.798 2413.7633 3064.7607 2444.1585 3036.1147 2554.7562 Z" fill="none" stroke="#E71E24" opacity="0.45454545454545453" stroke-width="1" class="kips_bay"/>
<path d="M 3107.2893 2374.111 3025.0126 2555.6809 2876.0464 2472.7671 2969.4467 2305.0443 3107.2893 2374.111 Z" fill="none" stroke="#E71E24" opacity="0.45454545454545453" stroke-width="1" class="kips_bay"/>
<path d="M 3108.213 2370.4248 3034.2601 2540.0108 2930.6309 2488.4256 3016.6239 2322.5394 3108.213 2370.4248 Z" fill="none" stroke="#E71E24" opacity="0.45454545454545453" stroke-width="1" class="kips_bay"/>
<path d="M 2953.7518 2451.5594 2986.1169 2395.3407 3062.9102 2443.2376 3053.6777 2503.1412 2953.7518 2451.5594 Z" fill="none" stroke="#E71E24" opacity="0.45454545454545453" stroke-width="1" class="kips_bay"/>
<path d="M 3065.6852 2442.3152 3034.2646 2555.6783 2911.203 2487.5072 2963.9145 2387.9739 3065.6852 2442.3152 Z" fill="none" stroke="#E71E24" opacity="0.45454545454545453" stroke-width="1" class="kips_bay"/>
<path d="M 2997.2032 2337.5173 3080.9298 2384.4866 3010.1968 2506.6094 2927.1568 2460.0885 2997.2032 2337.5173 Z" fill="none" stroke="#E71E24" opacity="0.45454545454545453" stroke-width="1" class="kips_bay"/>
<path d="M 2913.0521 2480.1344 2963.9139 2385.2095 3065.6846 2440.4721 3032.4124 2549.2275 2913.0521 2480.1344 Z" fill="none" stroke="#E71E24" opacity="0.45454545454545453" stroke-width="1" class="kips_bay"/>
<path d="M 2913.053 2485.6638 2966.6897 2388.8948 3065.6857 2443.6974 3057.6011 2475.9538 3031.4887 2554.7575 2913.053 2485.6638 Z" fill="none" stroke="#E71E24" opacity="0.45454545454545453" stroke-width="1" class="kips_bay"/>
<path d="M 3074.0116 2444.1555 3037.9712 2575.9533 2854.7704 2490.2789 2924.137 2381.5312 3074.0116 2444.1555 Z" fill="none" stroke="#E71E24" opacity="0.45454545454545453" stroke-width="1" class="kips_bay"/>
<path d="M 3070.3127 2448.7643 2905.6321 2352.0478 2931.5247 2310.5801 3085.1005 2408.2132 3070.3127 2448.7643 Z" fill="none" stroke="#E71E24" opacity="0.45454545454545453" stroke-width="1" class="kips_bay"/>
<path d="M 2967.1525 2389.8162 3066.8419 2443.4667 3045.5855 2512.5898 3029.6362 2546.9242 2912.5901 2483.8207 2967.1525 2389.8162 Z" fill="none" stroke="#E71E24" opacity="0.45454545454545453" stroke-width="1" class="kips_bay"/>
<path d="M 2899.1701 2443.2749 2942.6349 2367.7061 3066.6091 2438.6288 3041.6562 2521.5765 2899.1701 2443.2749 Z" fill="none" stroke="#E71E24" opacity="0.45454545454545453" stroke-width="1" class="kips_bay"/>
<path d="M 3092.498 2399.9173 3047.2289 2594.3838 2913.0585 2520.6838 3009.232 2352.9482 3092.498 2399.9173 Z" fill="none" stroke="#E71E24" opacity="0.45454545454545453" stroke-width="1" class="kips_bay"/>
<path d="M 2983.8049 2397.645 3071.2369 2445.9995 3059.228 2501.2963 3060.8619 2548.9886 3041.8929 2540.239 3040.2772 2551.5293 3053.2315 2557.0552 3052.0762 2560.9725 3035.4206 2553.8347 2929.707 2495.3375 2983.8049 2397.645 Z" fill="none" stroke="#E71E24" opacity="0.45454545454545453" stroke-width="1" class="kips_bay"/>
<path d="M 3032.6447 2552.9139 2929.4757 2495.5679 2983.3424 2397.8755 3071.6998 2446.9208 3032.6447 2552.9139 Z" fill="none" stroke="#E71E24" opacity="0.45454545454545453" stroke-width="1" class="kips_bay"/>
<path d="M 3032.4137 2553.8356 2947.9802 2504.7803 3000.9205 2407.086 3065.2229 2443.0064 3054.1359 2488.8567 3039.1131 2525.2636 3032.1778 2537.4769 3032.4137 2553.8356 Z" fill="none" stroke="#E71E24" opacity="0.45454545454545453" stroke-width="1" class="kips_bay"/>
<path d="M 3039.7518 2335.4327 3113.7655 2376.873 3097.1239 2401.7586 3083.2547 2421.1147 3071.2378 2448.764 3061.0765 2495.7663 2975.9542 2452.4762 3039.7518 2335.4327 Z" fill="none" stroke="#E71E24" opacity="0.45454545454545453" stroke-width="1" class="kips_bay"/>
<path d="M 2972.4864 2458.4669 3021.2777 2429.6574 3053.4253 2434.0253 3022.2186 2487.7139 2996.7738 2472.7452 2972.4864 2458.4669 Z" fill="none" stroke="#E71E24" opacity="0.45454545454545453" stroke-width="1" class="kips_bay"/>
<path d="M 3036.1134 2550.148 2965.7929 2521.5956 3016.6547 2438.6434 3062.9146 2457.0605 3036.1134 2550.148 Z" fill="none" stroke="#E71E24" opacity="0.45454545454545453" stroke-width="1" class="kips_bay"/>
<path d="M 2997.2509 2531.7261 2913.5153 2483.8206 2966.2269 2387.5127 3050.4191 2434.9478 2997.2509 2531.7261 Z" fill="none" stroke="#E71E24" opacity="0.45454545454545453" stroke-width="1" class="kips_bay"/>
<path d="M 2913.5155 2485.6637 2915.8284 2485.6633 2896.399 2473.686 2936.167 2407.3303 3035.6252 2460.7548 2998.1758 2530.8042 2913.5155 2485.6637 Z" fill="none" stroke="#E71E24" opacity="0.45454545454545453" stroke-width="1" class="kips_bay"/>
<path d="M 2997.2321 2455.2358 3011.1069 2448.7816 3016.1932 2442.3296 3024.0515 2424.358 3049.4943 2435.8696 3069.3858 2443.2355 3055.0655 2503.6015 3053.6787 2506.3667 3005.0995 2471.3608 3002.7869 2471.8222 2997.2321 2455.2358 Z" fill="none" stroke="#E71E24" opacity="0.45454545454545453" stroke-width="1" class="kips_bay"/>
<path d="M 2930.6323 2496.7197 2983.3412 2392.577 3091.5905 2450.6003 3079.602 2563.959 3042.5919 2557.5192 2930.6323 2496.7197 Z" fill="none" stroke="#E71E24" opacity="0.45454545454545453" stroke-width="1" class="kips_bay"/>
<path d="M 3064.76 2441.8547 3049.051 2499.917 2993.0742 2475.9715 3024.5124 2418.3681 3024.0505 2420.672 3064.76 2441.8547 Z" fill="none" stroke="#E71E24" opacity="0.45454545454545453" stroke-width="1" class="kips_bay"/>
<path d="M 3049.9765 2501.2991 2948.2015 2452.9427 2989.3533 2389.8112 3079.0962 2434.0172 3049.9765 2501.2991 Z" fill="none" stroke="#E71E24" opacity="0.45454545454545453" stroke-width="1" class="kips_bay"/>
<path d="M 2930.1695 2495.3374 2984.7296 2396.2625 3067.9982 2443.2359 3060.6091 2480.0998 3060.1676 2547.8368 3041.6663 2556.137 2930.1695 2495.3374 Z" fill="none" stroke="#E71E24" opacity="0.45454545454545453" stroke-width="1" class="kips_bay"/>
<path d="M 2966.6894 2387.0519 3067.5363 2445.0791 3033.3394 2555.6786 2915.8282 2484.7418 2966.6894 2387.0519 Z" fill="none" stroke="#E71E24" opacity="0.45454545454545453" stroke-width="1" class="kips_bay"/>
<path d="M 2950.9695 2416.0817 3061.0699 2474.5704 3031.9503 2551.0708 2911.6651 2484.7424 2950.9695 2416.0817 Z" fill="none" stroke="#E71E24" opacity="0.45454545454545453" stroke-width="1" class="kips_bay"/>
<path d="M 2947.749 2505.0107 3000.4582 2408.238 3066.1478 2442.315 3036.5773 2554.756 2947.749 2505.0107 Z" fill="none" stroke="#E71E24" opacity="0.45454545454545453" stroke-width="1" class="kips_bay"/>
<path d="M 3026.8612 2549.229 2940.8095 2500.4041 2988.8942 2404.5549 3033.3025 2425.7377 3045.3213 2401.7754 3067.5292 2422.9628 3069.3829 2434.0203 3026.8612 2549.229 Z" fill="none" stroke="#E71E24" opacity="0.45454545454545453" stroke-width="1" class="kips_bay"/>
<path d="M 3036.1036 2516.0486 2904.7207 2444.1957 2949.1111 2373.2335 2980.5669 2396.2635 2996.2883 2378.7519 3061.0537 2422.9649 3036.1036 2516.0486 Z" fill="none" stroke="#E71E24" opacity="0.45454545454545453" stroke-width="1" class="kips_bay"/>
<path d="M 3026.8612 2549.229 2948.2116 2505.0106 3001.8454 2406.3947 3068.4605 2442.3143 3026.8612 2549.229 Z" fill="none" stroke="#E71E24" opacity="0.45454545454545453" stroke-width="1" class="kips_bay"/>
<path d="M 2965.0804 2433.8178 3054.366 2485.1703 3032.1821 2552.6836 2930.1696 2496.0286 2965.0804 2433.8178 Z" fill="none" stroke="#E71E24" opacity="0.45454545454545453" stroke-width="1" class="kips_bay"/>
<path d="M 3006.6725 2345.6226 3033.0279 2341.2866 3087.6134 2374.4413 3048.785 2449.0945 2978.4693 2410.4097 2995.1129 2379.9971 3018.5828 2339.4947 3006.6725 2345.6226 Z" fill="none" stroke="#E71E24" opacity="0.45454545454545453" stroke-width="1" class="kips_bay"/>
<path d="M 3019.9201 2540.9363 2954.2251 2505.4702 3002.3101 2415.1487 3055.0483 2447.3869 3029.6353 2543.6985 3022.6961 2542.7788 3019.9201 2540.9363 Z" fill="none" stroke="#E71E24" opacity="0.45454545454545453" stroke-width="1" class="kips_bay"/>
<path d="M 3037.9647 2553.3732 2946.3614 2505.9326 2929.2445 2496.0287 2986.1171 2396.2622 3072.6245 2445.999 3037.9647 2553.3732 Z" fill="none" stroke="#E71E24" opacity="0.45454545454545453" stroke-width="1" class="kips_bay"/>
<path d="M 2999.1021 2535.412 2938.9577 2492.1103 2991.6756 2430.3561 3049.9649 2462.5937 2999.1021 2535.412 Z" fill="none" stroke="#E71E24" opacity="0.45454545454545453" stroke-width="1" class="kips_bay"/>
<path d="M 3032.4134 2552.914 2969.4933 2520.6733 3027.7514 2422.9747 3070.313 2449.6859 3032.4134 2552.914 Z" fill="none" stroke="#E71E24" opacity="0.45454545454545453" stroke-width="1" class="kips_bay"/>
<path d="M 2954.2462 2610.9971 2870.506 2565.8487 2944.0342 2429.9056 3058.2975 2484.2476 2954.2462 2610.9971 Z" fill="none" stroke="#E71E24" opacity="0.45454545454545453" stroke-width="1" class="kips_bay"/>
<path d="M 3028.7114 2548.3069 2936.1837 2499.4834 2989.8177 2398.1043 3076.7859 2441.39 3028.7114 2548.3069 Z" fill="none" stroke="#E71E24" opacity="0.45454545454545453" stroke-width="1" class="kips_bay"/>
<path d="M 3033.3373 2548.3056 2943.5853 2502.2468 3009.246 2407.3143 3068.4593 2438.6282 3033.3373 2548.3056 Z" fill="none" stroke="#E71E24" opacity="0.45454545454545453" stroke-width="1" class="kips_bay"/>
<path d="M 2955.1493 2500.8621 2950.293 2504.319 2951.6801 2501.3236 2964.1656 2482.6593 2968.3259 2469.7567 2971.7935 2462.614 2978.4988 2455.0098 3002.3232 2467.4449 3026.1483 2480.3404 2997.2505 2530.3437 2947.9805 2506.1626 2955.1493 2500.8621 Z" fill="none" stroke="#E71E24" opacity="0.45454545454545453" stroke-width="1" class="kips_bay"/>
<path d="M 3061.2249 2443.8564 2976.4489 2542.5995 2870.0475 2493.7729 2928.0063 2407.9501 3061.2249 2443.8564 Z" fill="none" stroke="#E71E24" opacity="0.45454545454545453" stroke-width="1" class="kips_bay"/>
<path d="M 3030.562 2549.228 2947.2854 2499.4813 3001.8461 2409.1592 3067.5369 2446.9222 3030.562 2549.228 Z" fill="none" stroke="#E71E24" opacity="0.45454545454545453" stroke-width="1" class="kips_bay"/>
<path d="M 2938.031 2483.3556 2968.7811 2435.66 3052.7446 2477.1072 3046.9742 2516.0454 3001.8743 2521.8177 2938.031 2483.3556 Z" fill="none" stroke="#E71E24" opacity="0.45454545454545453" stroke-width="1" class="kips_bay"/>
<path d="M 3009.2772 2528.0366 2959.3088 2482.8907 2994.449 2422.9834 3049.0359 2449.6925 3009.2772 2528.0366 Z" fill="none" stroke="#E71E24" opacity="0.45454545454545453" stroke-width="1" class="kips_bay"/>
<path d="M 2953.7836 2610.9972 2901.9652 2581.0519 3001.3831 2407.3163 3067.073 2442.7755 3035.652 2554.2955 2997.2509 2531.7261 2953.7836 2610.9972 Z" fill="none" stroke="#E71E24" opacity="0.45454545454545453" stroke-width="1" class="kips_bay"/>
<path d="M 2994.0123 2529.8836 2929.9379 2493.2639 2982.4181 2401.1008 3049.4941 2435.4088 2994.0123 2529.8836 Z" fill="none" stroke="#E71E24" opacity="0.45454545454545453" stroke-width="1" class="kips_bay"/>
<path d="M 2911.6653 2485.664 2966.2271 2388.4342 3026.826 2422.0535 2971.8058 2518.8296 2911.6653 2485.664 Z" fill="none" stroke="#E71E24" opacity="0.45454545454545453" stroke-width="1" class="kips_bay"/>
<path d="M 3032.8755 2551.0706 2944.0482 2504.0898 2973.6431 2459.849 3048.1303 2514.6626 3034.7234 2542.3147 3032.8755 2551.0706 Z" fill="none" stroke="#E71E24" opacity="0.45454545454545453" stroke-width="1" class="kips_bay"/>
<path d="M 2983.8049 2397.645 3067.0736 2444.6185 3033.3386 2552.9137 2930.1696 2495.7982 2983.8049 2397.645 Z" fill="none" stroke="#E71E24" opacity="0.45454545454545453" stroke-width="1" class="kips_bay"/>
<path d="M 3064.76 2441.8547 3031.951 2553.6053 2914.2094 2485.4332 2949.5844 2428.5222 2967.8468 2392.3501 3064.76 2441.8547 Z" fill="none" stroke="#E71E24" opacity="0.45454545454545453" stroke-width="1" class="kips_bay"/>
<path d="M 2930.1694 2494.8766 2984.2674 2397.6449 3071.2366 2445.0779 3060.6134 2493.9233 3062.4803 2546.9144 3056.0087 2562.1233 3035.1891 2553.374 2930.1694 2494.8766 Z" fill="none" stroke="#E71E24" opacity="0.45454545454545453" stroke-width="1" class="kips_bay"/>
<path d="M 3065.2231 2443.6976 3053.6781 2504.5235 2936.6357 2441.4259 2968.077 2387.5123 3065.2231 2443.6976 Z" fill="none" stroke="#E71E24" opacity="0.45454545454545453" stroke-width="1" class="kips_bay"/>
<path d="M 3018.535 2551.0745 2944.511 2505.0113 2993.5206 2409.1612 3053.6611 2448.7696 3046.2746 2496.6924 3018.535 2551.0745 Z" fill="none" stroke="#E71E24" opacity="0.45454545454545453" stroke-width="1" class="kips_bay"/>
<path d="M 3045.1255 2521.5755 2944.504 2468.1488 2982.88 2398.3363 3067.5364 2445.5399 3045.1255 2521.5755 Z" fill="none" stroke="#E71E24" opacity="0.45454545454545453" stroke-width="1" class="kips_bay"/>
<path d="M 3053.6597 2444.1619 3051.8182 2472.7301 3044.4306 2517.8893 3028.7157 2563.9746 2937.1091 2501.3264 2991.67 2407.3187 3053.6597 2444.1619 Z" fill="none" stroke="#E71E24" opacity="0.45454545454545453" stroke-width="1" class="kips_bay"/>
<path d="M 3030.5628 2551.9929 2900.1 2477.3717 2940.7919 2405.4865 3054.5884 2456.1415 3061.9918 2464.4331 3060.1511 2494.845 3060.1655 2540.9246 3030.5628 2551.9929 Z" fill="none" stroke="#E71E24" opacity="0.45454545454545453" stroke-width="1" class="kips_bay"/>
<path d="M 3000.9495 2523.4307 2951.91 2493.951 2965.7815 2468.1445 3044.4295 2514.2029 3000.9495 2523.4307 Z" fill="none" stroke="#E71E24" opacity="0.45454545454545453" stroke-width="1" class="kips_bay"/>
<path d="M 3037.964 2551.0691 2929.7068 2494.4159 2984.7301 2398.5662 3072.1619 2445.5384 3070.3429 2542.3038 3037.964 2551.0691 Z" fill="none" stroke="#E71E24" opacity="0.45454545454545453" stroke-width="1" class="kips_bay"/>
<path d="M 3032.4129 2551.0707 2946.3613 2505.011 2999.0702 2406.3954 3066.6112 2445.0794 3032.4129 2551.0707 Z" fill="none" stroke="#E71E24" opacity="0.45454545454545453" stroke-width="1" class="kips_bay"/>
<path d="M 3033.3385 2552.4529 2911.2027 2485.2033 2950.5066 2414.2388 3041.6371 2456.1454 3031.0019 2468.5892 3064.3109 2484.2457 3033.3385 2552.4529 Z" fill="none" stroke="#E71E24" opacity="0.45454545454545453" stroke-width="1" class="kips_bay"/>
<path d="M 3005.0954 2455.0035 3027.9954 2469.0508 3020.3693 2491.4007 2997.9446 2531.0347 2911.2025 2484.2817 2946.8085 2425.0671 3005.0954 2455.0035 Z" fill="none" stroke="#E71E24" opacity="0.45454545454545453" stroke-width="1" class="kips_bay"/>
<path d="M 3088.3378 2407.2906 3036.8033 2536.0932 2977.8176 2510.9947 3050.8702 2397.1663 3088.3378 2407.2906 Z" fill="none" stroke="#E71E24" opacity="0.45454545454545453" stroke-width="1" class="kips_bay"/>
<path d="M 3066.1482 2443.6973 3035.1881 2549.6875 2930.6318 2493.955 2985.1924 2397.6447 3066.1482 2443.6973 Z" fill="none" stroke="#E71E24" opacity="0.45454545454545453" stroke-width="1" class="kips_bay"/>
<path d="M 3037.9651 2554.7556 2906.1144 2484.7433 2944.2638 2420.9209 3057.141 2483.7871 3037.9651 2554.7556 Z" fill="none" stroke="#E71E24" opacity="0.45454545454545453" stroke-width="1" class="kips_bay"/>
<path d="M 3070.7594 2399.6942 3082.0938 2407.5231 3053.9035 2485.4009 3031.2565 2551.3014 2946.1301 2505.7022 3021.2622 2372.2953 3070.7594 2399.6942 Z" fill="none" stroke="#E71E24" opacity="0.45454545454545453" stroke-width="1" class="kips_bay"/>
<path d="M 3038.4177 2520.1951 2925.5377 2458.9368 2967.1519 2387.0518 3064.7603 2442.7762 3038.4177 2520.1951 Z" fill="none" stroke="#E71E24" opacity="0.45454545454545453" stroke-width="1" class="kips_bay"/>
<path d="M 2912.1277 2484.7424 2953.2818 2414.2383 3053.2049 2469.5043 3024.5471 2545.0824 2912.1277 2484.7424 Z" fill="none" stroke="#E71E24" opacity="0.45454545454545453" stroke-width="1" class="kips_bay"/>
<path d="M 3065.6852 2442.3152 3065.6864 2446.0012 3047.2033 2508.6726 2928.7746 2453.4071 2967.6152 2390.7375 3065.6852 2442.3152 Z" fill="none" stroke="#E71E24" opacity="0.45454545454545453" stroke-width="1" class="kips_bay"/>
<path d="M 2910.2775 2485.2034 2968.5399 2389.3551 3051.8064 2434.0258 2998.6387 2532.1865 2910.2775 2485.2034 Z" fill="none" stroke="#E71E24" opacity="0.45454545454545453" stroke-width="1" class="kips_bay"/>
<path d="M 3065.0646 2428.1849 3073.0694 2391.6305 3038.3991 2455.6856 3022.2185 2487.4835 3020.8307 2487.0231 3010.4279 2505.9181 2988.221 2491.6392 2997.6951 2457.0788 3014.537 2447.3217 3006.9431 2445.2118 2987.2867 2452.5888 2989.3721 2469.176 3000.4691 2451.7793 3002.0885 2453.8523 3005.3257 2451.2021 3065.0646 2428.1849 Z" fill="none" stroke="#E71E24" opacity="0.45454545454545453" stroke-width="1" class="kips_bay"/>
<path d="M 3012.9474 2411.9208 3078.6364 2442.311 3042.5881 2544.6164 2955.6116 2499.4797 2996.296 2410.082 3012.9474 2411.9208 Z" fill="none" stroke="#E71E24" opacity="0.45454545454545453" stroke-width="1" class="kips_bay"/>
<path d="M 3035.1303 2347.4126 3107.287 2367.6608 3026.86 2544.6209 2942.6603 2503.1685 3035.1303 2347.4126 Z" fill="none" stroke="#E71E24" opacity="0.45454545454545453" stroke-width="1" class="kips_bay"/>
<path d="M 3031.9502 2550.61 2911.6652 2485.2032 2964.8408 2394.424 2967.6151 2390.2768 3062.9098 2441.8553 3060.1357 2445.5422 3031.9502 2550.61 Z" fill="none" stroke="#E71E24" opacity="0.45454545454545453" stroke-width="1" class="kips_bay"/>
<path d="M 2986.8332 2491.4091 3019.8902 2430.1185 3045.334 2444.6252 3010.8904 2505.6876 2986.8332 2491.4091 Z" fill="none" stroke="#E71E24" opacity="0.45454545454545453" stroke-width="1" class="kips_bay"/>
<path d="M 2989.8484 2527.1198 3002.7991 2520.6655 3028.7029 2517.8938 2902.8718 2452.4897 2925.9921 2411.0181 2958.3586 2360.3314 2999.966 2288.4524 3116.5289 2345.5429 2980.6011 2546.4758 2989.8484 2527.1198 Z" fill="none" stroke="#E71E24" opacity="0.45454545454545453" stroke-width="1" class="kips_bay"/>
<path d="M 3019.629 2425.4244 3062.7933 2450.6946 3055.8889 2560.8847 2968.7715 2524.0428 3019.629 2425.4244 Z" fill="none" stroke="#E71E24" opacity="0.45454545454545453" stroke-width="1" class="kips_bay"/>
<path d="M 3036.5772 2554.2952 2944.974 2507.3152 2999.5331 2407.7775 3066.1488 2445.5403 3036.5772 2554.2952 Z" fill="none" stroke="#E71E24" opacity="0.45454545454545453" stroke-width="1" class="kips_bay"/>
<path d="M 2984.7518 2491.8704 3020.8156 2431.2702 3064.3015 2454.5258 3057.3766 2497.841 3043.7382 2522.9583 2984.7518 2491.8704 Z" fill="none" stroke="#E71E24" opacity="0.45454545454545453" stroke-width="1" class="kips_bay"/>
<path d="M 2962.0717 2422.9907 3035.1595 2449.6966 2999.0987 2521.588 2893.6234 2471.8433 2927.8406 2401.8029 2962.0717 2422.9907 Z" fill="none" stroke="#E71E24" opacity="0.45454545454545453" stroke-width="1" class="kips_bay"/>
<path d="M 2932.3173 2490.7688 2985.4423 2396.0892 3065.0103 2442.1421 3030.3591 2548.3405 2932.3173 2490.7688 Z" fill="none" stroke="#E71E24" opacity="0.45454545454545453" stroke-width="1" class="kips_bay"/>
<path d="M 3016.3759 2430.184 3017.2093 2530.6741 2960.7887 2602.5754 2852.2476 2520.8342 2926.2433 2419.4543 3024.3004 2414.5155 3016.3759 2430.184 Z" fill="none" stroke="#E71E24" opacity="0.45454545454545453" stroke-width="1" class="kips_bay"/>
<path d="M 2960.2402 2513.3025 3012.0228 2413.764 3074.0125 2446.9201 3060.1695 2553.8273 3052.7705 2562.1243 2960.2402 2513.3025 Z" fill="none" stroke="#E71E24" opacity="0.45454545454545453" stroke-width="1" class="kips_bay"/>
<path d="M 3001.8458 2408.2377 3063.3725 2442.3159 3033.8019 2555.2176 2946.3614 2505.4718 3001.8458 2408.2377 Z" fill="none" stroke="#E71E24" opacity="0.45454545454545453" stroke-width="1" class="kips_bay"/>
<path d="M 3030.563 2552.9145 2908.4273 2485.6645 2969.4646 2387.9727 3062.9105 2444.1591 3055.5401 2542.7693 3032.4121 2548.3058 3030.563 2552.9145 Z" fill="none" stroke="#E71E24" opacity="0.45454545454545453" stroke-width="1" class="kips_bay"/>
<path d="M 2983.805 2398.1057 3064.2971 2440.9333 3034.7214 2535.4026 2933.8683 2485.6603 2974.0962 2416.9984 2983.805 2398.1057 Z" fill="none" stroke="#E71E24" opacity="0.45454545454545453" stroke-width="1" class="kips_bay"/>
<path d="M 2945.4359 2504.0896 2994.4443 2403.6321 3068.4605 2442.3143 3062.0167 2543.6889 3051.8439 2557.5164 3035.189 2552.9132 2945.4359 2504.0896 Z" fill="none" stroke="#E71E24" opacity="0.45454545454545453" stroke-width="1" class="kips_bay"/>
<path d="M 2911.6653 2485.664 2966.2272 2388.8949 3064.2982 2444.1586 3051.831 2515.1223 3019.921 2544.162 2911.6653 2485.664 Z" fill="none" stroke="#E71E24" opacity="0.45454545454545453" stroke-width="1" class="kips_bay"/>
<path d="M 2970.3801 2343.7431 3061.0393 2376.891 3014.8087 2454.3098 2936.169 2418.3882 2970.3801 2343.7431 Z" fill="none" stroke="#E71E24" opacity="0.45454545454545453" stroke-width="1" class="kips_bay"/>
<path d="M 3064.7607 2444.1585 3059.2251 2492.0806 3039.8087 2531.2539 3033.8013 2553.3744 2930.1695 2495.3374 2983.805 2398.1057 3064.7607 2444.1585 Z" fill="none" stroke="#E71E24" opacity="0.45454545454545453" stroke-width="1" class="kips_bay"/>
<path d="M 3032.4132 2551.9923 2876.0456 2466.3162 2932.4598 2367.7079 3068.4614 2445.0788 3060.1669 2545.5327 3032.4132 2551.9923 Z" fill="none" stroke="#E71E24" opacity="0.45454545454545453" stroke-width="1" class="kips_bay"/>
<path d="M 3000.9208 2408.2379 3065.6854 2443.0063 3051.8259 2498.3034 2976.6482 2453.1672 3000.9208 2408.2379 Z" fill="none" stroke="#E71E24" opacity="0.45454545454545453" stroke-width="1" class="kips_bay"/>
<path d="M 3034.2638 2552.9134 2929.2443 2494.8768 2984.2671 2396.2627 3066.1483 2444.1581 3034.2638 2552.9134 Z" fill="none" stroke="#E71E24" opacity="0.45454545454545453" stroke-width="1" class="kips_bay"/>
<path d="M 3063.3724 2441.8551 3047.6633 2499.9175 3000.4718 2462.6073 3024.9755 2420.6718 3063.3724 2441.8551 Z" fill="none" stroke="#E71E24" opacity="0.45454545454545453" stroke-width="1" class="kips_bay"/>
<path d="M 3064.2977 2442.7764 3041.4248 2521.1158 2962.3145 2478.5127 2976.648 2452.2457 3026.1317 2420.2107 3064.2977 2442.7764 Z" fill="none" stroke="#E71E24" opacity="0.45454545454545453" stroke-width="1" class="kips_bay"/>
<path d="M 2984.2675 2398.1056 3051.8068 2435.4081 2998.6387 2532.1865 2970.8807 2518.8298 2994.9237 2473.2064 2953.7518 2451.5594 2984.2675 2398.1056 Z" fill="none" stroke="#E71E24" opacity="0.45454545454545453" stroke-width="1" class="kips_bay"/>
<path d="M 2912.1276 2483.8208 2967.1519 2387.0518 3049.9564 2434.4871 3051.3442 2434.9475 2992.1624 2531.7273 2988.4616 2531.2674 2912.1276 2483.8208 Z" fill="none" stroke="#E71E24" opacity="0.45454545454545453" stroke-width="1" class="kips_bay"/>
<path d="M 3031.9508 2552.9141 2875.583 2465.8555 2931.9975 2369.0902 3066.1482 2443.6973 3031.9508 2552.9141 Z" fill="none" stroke="#E71E24" opacity="0.45454545454545453" stroke-width="1" class="kips_bay"/>
<path d="M 2997.2512 2533.1085 2946.8238 2505.0109 2986.5886 2434.5041 3035.1628 2461.2157 2997.2512 2533.1085 Z" fill="none" stroke="#E71E24" opacity="0.45454545454545453" stroke-width="1" class="kips_bay"/>
<path d="M 2981.0402 2443.2598 3001.6145 2408.0074 3050.8815 2434.4869 3012.5093 2505.4568 2961.852 2478.7432 2981.0402 2443.2598 Z" fill="none" stroke="#E71E24" opacity="0.45454545454545453" stroke-width="1" class="kips_bay"/>
<path d="M 2931.0948 2496.2588 2987.5057 2400.4085 3065.2235 2445.0799 3038.4261 2549.2257 2931.0948 2496.2588 Z" fill="none" stroke="#E71E24" opacity="0.45454545454545453" stroke-width="1" class="kips_bay"/>
<path d="M 3061.9846 2441.3948 3063.6037 2442.0854 3063.6041 2443.2373 3052.5188 2495.0777 3032.1817 2551.5316 3024.5475 2546.4648 2928.7819 2495.7984 2970.6282 2421.6066 2975.7144 2414.0032 2977.3323 2409.6257 2980.1065 2405.4784 2982.187 2401.792 2983.3429 2400.1791 2983.805 2398.3361 3061.9846 2441.3948 Z" fill="none" stroke="#E71E24" opacity="0.45454545454545453" stroke-width="1" class="kips_bay"/>
<path d="M 3029.2518 2426.2355 3067.8604 2454.7173 3066.9694 2561.6213 2971.9183 2521.1695 3029.2518 2426.2355 Z" fill="none" stroke="#E71E24" opacity="0.45454545454545453" stroke-width="1" class="kips_bay"/>
<path d="M 3061.5231 2444.6203 3033.3382 2551.5313 2948.6746 2507.3145 2998.1464 2411.4638 3061.5231 2444.6203 Z" fill="none" stroke="#E71E24" opacity="0.45454545454545453" stroke-width="1" class="kips_bay"/>
<path d="M 2967.6149 2389.4705 3066.6107 2443.6971 3042.1188 2521.8068 2926.9255 2459.7429 2967.6149 2389.4705 Z" fill="none" stroke="#E71E24" opacity="0.45454545454545453" stroke-width="1" class="kips_bay"/>
<path d="M 3110.9511 2269.3 3039.9999 2393.4837 2998.3675 2370.228 3067.7036 2245.36 3110.9511 2269.3 Z" fill="none" stroke="#E71E24" opacity="0.45454545454545453" stroke-width="1" class="kips_bay"/>
<path d="M 3033.3387 2553.3745 2913.2843 2485.6637 2946.577 2424.1457 3055.2916 2486.5524 3033.3387 2553.3745 Z" fill="none" stroke="#E71E24" opacity="0.45454545454545453" stroke-width="1" class="kips_bay"/>
<path d="M 3064.76 2441.8547 3052.2699 2437.251 3061.0604 2444.1597 3053.2252 2536.3187 3052.2995 2534.4758 3036.5703 2530.3332 2944.5061 2479.2074 2946.3538 2465.8446 2981.0289 2393.9597 2997.6816 2402.2491 3029.6008 2420.6705 3064.76 2441.8547 Z" fill="none" stroke="#E71E24" opacity="0.45454545454545453" stroke-width="1" class="kips_bay"/>
<path d="M 3036.5774 2555.2169 2913.0532 2487.0461 2965.302 2387.9736 3066.148 2443.2365 3036.5774 2555.2169 Z" fill="none" stroke="#E71E24" opacity="0.45454545454545453" stroke-width="1" class="kips_bay"/>
<path d="M 2947.1709 2505.4716 3030.6229 2354.4398 3102.3244 2393.9242 3084.7571 2418.8104 3070.7745 2446.3452 3066.9618 2456.7136 3063.8466 2478.9469 3065.5812 2478.9463 3064.3123 2488.7383 3062.4618 2488.1629 3060.3843 2500.9503 3060.9731 2534.7035 3061.787 2548.7579 3053.2336 2563.8522 2996.4417 2533.2239 2947.1709 2505.4716 Z" fill="none" stroke="#E71E24" opacity="0.45454545454545453" stroke-width="1" class="kips_bay"/>
<path d="M 3066.1487 2445.31 3034.4956 2554.7566 2929.2448 2497.8719 2985.1925 2398.1054 3066.1487 2445.31 Z" fill="none" stroke="#E71E24" opacity="0.45454545454545453" stroke-width="1" class="kips_bay"/>
<path d="M 3067.5361 2444.6184 3033.8013 2553.3744 2944.5114 2507.3153 3000.4581 2407.7773 3067.5361 2444.6184 Z" fill="none" stroke="#E71E24" opacity="0.45454545454545453" stroke-width="1" class="kips_bay"/>
<path d="M 3037.964 2551.0691 2913.0533 2487.5069 2967.614 2385.2087 3065.6832 2435.8645 3037.964 2551.0691 Z" fill="none" stroke="#E71E24" opacity="0.45454545454545453" stroke-width="1" class="kips_bay"/>
<path d="M 2976.3983 2369.542 3075.3926 2423.8818 3034.2567 2528.0298 2919.5259 2467.2317 2976.3983 2369.542 Z" fill="none" stroke="#E71E24" opacity="0.45454545454545453" stroke-width="1" class="kips_bay"/>
<path d="M 2913.053 2485.6638 2966.6893 2386.5911 3067.5361 2444.6184 3034.2642 2554.2959 2913.053 2485.6638 Z" fill="none" stroke="#E71E24" opacity="0.45454545454545453" stroke-width="1" class="kips_bay"/>
<path d="M 3020.1215 2430.1185 3045.7967 2445.0858 3011.3529 2505.4571 2986.1394 2491.6397 3020.1215 2430.1185 Z" fill="none" stroke="#E71E24" opacity="0.45454545454545453" stroke-width="1" class="kips_bay"/>
<path d="M 3067.0731 2443.2362 3031.95 2550.1492 2996.7893 2535.8734 2950.5447 2608.2328 2901.0403 2583.3561 3001.8459 2408.6984 3067.0731 2443.2362 Z" fill="none" stroke="#E71E24" opacity="0.45454545454545453" stroke-width="1" class="kips_bay"/>
<path d="M 2912.8218 2486.5854 2946.8083 2423.9153 3057.6047 2487.4732 3038.4278 2554.9859 2912.8218 2486.5854 Z" fill="none" stroke="#E71E24" opacity="0.45454545454545453" stroke-width="1" class="kips_bay"/>
<path d="M 3062.9111 2446.0021 3050.9039 2508.6715 2930.6243 2450.6422 2970.3901 2389.8155 3062.9111 2446.0021 Z" fill="none" stroke="#E71E24" opacity="0.45454545454545453" stroke-width="1" class="kips_bay"/>
<path d="M 3000.4582 2408.238 3067.0731 2443.2362 3036.1147 2554.7562 2948.6742 2505.4713 3000.4582 2408.238 Z" fill="none" stroke="#E71E24" opacity="0.45454545454545453" stroke-width="1" class="kips_bay"/>
<path d="M 3066.6106 2443.2364 3059.2412 2543.6898 3039.8091 2532.6363 3042.5905 2552.911 2945.4358 2503.168 3000.921 2409.1594 3066.6106 2443.2364 Z" fill="none" stroke="#E71E24" opacity="0.45454545454545453" stroke-width="1" class="kips_bay"/>
<path d="M 3030.5396 2469.5109 3007.423 2513.2916 2941.2678 2477.3649 2965.3119 2434.9696 3030.5396 2469.5109 Z" fill="none" stroke="#E71E24" opacity="0.45454545454545453" stroke-width="1" class="kips_bay"/>
<path d="M 3001.8456 2407.3162 3067.0734 2444.1578 3031.0254 2551.9927 2947.7488 2504.0891 3001.8456 2407.3162 Z" fill="none" stroke="#E71E24" opacity="0.45454545454545453" stroke-width="1" class="kips_bay"/>
<path d="M 2930.4009 2496.0285 2963.6927 2433.3573 3060.6114 2487.7027 3041.8983 2558.441 2930.4009 2496.0285 Z" fill="none" stroke="#E71E24" opacity="0.45454545454545453" stroke-width="1" class="kips_bay"/>
<path d="M 2903.7975 2457.0972 2914.8943 2429.4499 2935.2486 2444.1907 2957.439 2387.0538 3062.9088 2438.63 3055.528 2503.1406 3037.9601 2537.2449 3005.5732 2515.1352 2903.7975 2457.0972 Z" fill="none" stroke="#E71E24" opacity="0.45454545454545453" stroke-width="1" class="kips_bay"/>
<path d="M 3067.3046 2443.9273 3054.1393 2500.1459 3036.3394 2531.7157 2956.5343 2487.2687 3000.6892 2407.0861 3067.3046 2443.9273 Z" fill="none" stroke="#E71E24" opacity="0.45454545454545453" stroke-width="1" class="kips_bay"/>
<path d="M 2913.7467 2484.7421 2942.6469 2431.7488 3026.1483 2480.11 2995.6324 2534.0305 2913.7467 2484.7421 Z" fill="none" stroke="#E71E24" opacity="0.45454545454545453" stroke-width="1" class="kips_bay"/>
<path d="M 2951.9101 2494.8726 2975.9382 2380.5996 3067.5313 2429.4134 3034.2614 2544.6188 2951.9101 2494.8726 Z" fill="none" stroke="#E71E24" opacity="0.45454545454545453" stroke-width="1" class="kips_bay"/>
<path d="M 3063.9651 2441.2507 3030.7942 2550.9495 2969.6382 2520.2544 3026.2004 2423.5276 3063.9651 2441.2507 Z" fill="none" stroke="#E71E24" opacity="0.45454545454545453" stroke-width="1" class="kips_bay"/>
<path d="M 3062.0199 2553.8268 2940.8109 2507.7768 2996.2971 2414.6895 3082.3374 2444.1528 3062.0199 2553.8268 Z" fill="none" stroke="#E71E24" opacity="0.45454545454545453" stroke-width="1" class="kips_bay"/>
<path d="M 3021.2949 2493.0132 3027.7798 2525.2669 3039.8 2501.3021 3045.3366 2453.3797 3061.0566 2432.18 3073.0775 2416.5106 3061.0682 2469.0411 3042.5797 2516.0467 3034.2596 2538.1675 3000.9481 2517.9012 3036.1121 2545.5399 2998.1788 2542.7852 3021.2949 2493.0132 Z" fill="none" stroke="#E71E24" opacity="0.45454545454545453" stroke-width="1" class="kips_bay"/>
<path d="M 3074.0122 2445.9986 3048.1414 2551.9878 2974.1195 2522.5154 2979.667 2506.8472 3024.9764 2423.897 3074.0122 2445.9986 Z" fill="none" stroke="#E71E24" opacity="0.45454545454545453" stroke-width="1" class="kips_bay"/>
<path d="M 3078.6281 2417.4302 3043.5277 2593.4632 2896.4041 2510.5487 2982.4092 2362.1691 3078.6281 2417.4302 Z" fill="none" stroke="#E71E24" opacity="0.45454545454545453" stroke-width="1" class="kips_bay"/>
<path d="M 2984.2674 2397.6449 3063.3725 2442.3159 3037.5021 2553.3733 2927.8567 2495.3378 2984.2674 2397.6449 Z" fill="none" stroke="#E71E24" opacity="0.45454545454545453" stroke-width="1" class="kips_bay"/>
<path d="M 3001.8458 2408.2377 3064.2967 2439.551 3032.876 2552.9138 2945.8988 2505.4719 3001.8458 2408.2377 Z" fill="none" stroke="#E71E24" opacity="0.45454545454545453" stroke-width="1" class="kips_bay"/>
<path d="M 2968.5475 2424.8323 2981.9547 2397.1847 3065.6849 2441.3936 3060.6078 2475.9528 2968.5475 2424.8323 Z" fill="none" stroke="#E71E24" opacity="0.45454545454545453" stroke-width="1" class="kips_bay"/>
<path d="M 2946.8238 2504.5501 2979.6545 2452.0146 3055.5282 2504.0622 3025.9348 2544.8516 2946.8238 2504.5501 Z" fill="none" stroke="#E71E24" opacity="0.45454545454545453" stroke-width="1" class="kips_bay"/>
<path d="M 2912.359 2484.7423 2967.3834 2388.2035 3067.073 2442.7755 3030.0997 2550.3801 2912.359 2484.7423 Z" fill="none" stroke="#E71E24" opacity="0.45454545454545453" stroke-width="1" class="kips_bay"/>
<path d="M 2955.635 2615.6053 2922.3212 2587.9611 2878.8339 2574.1425 2891.7844 2555.7081 2912.134 2525.2919 2935.2554 2481.9738 2941.7261 2454.3263 2957.4497 2439.5788 2988.8892 2383.361 3008.3072 2353.8699 3030.4999 2328.0641 3099.8879 2370.4278 3032.4405 2648.768 2996.3503 2632.1867 2955.635 2615.6053 Z" fill="none" stroke="#E71E24" opacity="0.45454545454545453" stroke-width="1" class="kips_bay"/>
<path d="M 3103.5896 2375.0338 3055.0542 2466.7391 2934.3166 2405.4877 2984.2466 2307.8051 3103.5896 2375.0338 Z" fill="none" stroke="#E71E24" opacity="0.45454545454545453" stroke-width="1" class="kips_bay"/>
<path d="M 2997.2513 2533.5693 2968.5677 2518.3695 3025.2069 2421.1324 3051.3443 2435.4082 2997.2513 2533.5693 Z" fill="none" stroke="#E71E24" opacity="0.45454545454545453" stroke-width="1" class="kips_bay"/>
<path d="M 3065.2233 2444.1583 3049.9946 2561.2035 2980.5965 2526.2004 3001.8466 2411.4629 3065.2233 2444.1583 Z" fill="none" stroke="#E71E24" opacity="0.45454545454545453" stroke-width="1" class="kips_bay"/>
<path d="M 3047.2347 2613.739 3028.2777 2652.4561 2903.8159 2582.8949 2967.6322 2470.448 3059.6966 2520.6495 3060.6312 2551.0623 3047.2347 2613.739 Z" fill="none" stroke="#E71E24" opacity="0.45454545454545453" stroke-width="1" class="kips_bay"/>
<path d="M 3032.8761 2553.3747 2929.2438 2492.1121 2986.118 2399.9481 3069.8482 2442.7746 3032.8761 2553.3747 Z" fill="none" stroke="#E71E24" opacity="0.45454545454545453" stroke-width="1" class="kips_bay"/>
<path d="M 2990.6582 2413.6399 3002.1295 2408.8771 3004.1363 2419.3203 3053.1707 2439.5798 3055.4861 2448.3336 3059.6574 2475.0569 3029.6113 2547.4104 2987.0056 2518.1635 2915.6023 2483.3788 2969.3515 2393.256 2990.6582 2413.6399 Z" fill="none" stroke="#E71E24" opacity="0.45454545454545453" stroke-width="1" class="kips_bay"/>
<path d="M 3040.7399 2551.99 2928.7817 2494.8768 2983.3442 2405.4777 3062.9114 2446.9236 3040.7399 2551.99 Z" fill="none" stroke="#E71E24" opacity="0.45454545454545453" stroke-width="1" class="kips_bay"/>
<path d="M 2996.3259 2532.6479 2966.7329 2591.6394 2896.873 2555.9378 2964.3864 2432.666 3055.5213 2481.4837 3032.8752 2550.149 2996.3259 2532.6479 Z" fill="none" stroke="#E71E24" opacity="0.45454545454545453" stroke-width="1" class="kips_bay"/>
<path d="M 3073.0898 2454.2926 3057.3834 2519.7286 2937.1006 2454.3271 2989.8101 2365.8532 3062.8995 2409.1419 3082.3275 2414.6645 3073.0898 2454.2926 Z" fill="none" stroke="#E71E24" opacity="0.45454545454545453" stroke-width="1" class="kips_bay"/>
<path d="M 2971.7978 2517.8924 2948.2739 2503.0581 3002.3474 2407.769 3065.0739 2442.8932 3036.8826 2553.022 2971.7978 2517.8924 Z" fill="none" stroke="#E71E24" opacity="0.45454545454545453" stroke-width="1" class="kips_bay"/>
<path d="M 3066.1482 2443.6973 3056.9135 2496.2284 3033.7971 2538.6285 3035.1894 2554.2956 2929.707 2495.7983 2982.8797 2397.1845 3066.1482 2443.6973 Z" fill="none" stroke="#E71E24" opacity="0.45454545454545453" stroke-width="1" class="kips_bay"/>
<path d="M 3049.9702 2480.1031 3033.337 2547.384 2931.5573 2495.7979 2961.1495 2436.8135 3049.9702 2480.1031 Z" fill="none" stroke="#E71E24" opacity="0.45454545454545453" stroke-width="1" class="kips_bay"/>
<path d="M 3063.8342 2439.5512 3020.3814 2536.3282 2915.8275 2480.134 2967.1523 2388.8947 3063.8342 2439.5512 Z" fill="none" stroke="#E71E24" opacity="0.45454545454545453" stroke-width="1" class="kips_bay"/>
<path d="M 3023.1592 2544.6219 2943.586 2505.9331 3008.3221 2411.922 3050.8816 2434.9476 3071.2399 2455.2147 3023.1592 2544.6219 Z" fill="none" stroke="#E71E24" opacity="0.45454545454545453" stroke-width="1" class="kips_bay"/>
<path d="M 3032.4129 2551.0707 2877.8962 2469.0806 2931.9973 2367.708 3064.7601 2442.3155 3032.4129 2551.0707 Z" fill="none" stroke="#E71E24" opacity="0.45454545454545453" stroke-width="1" class="kips_bay"/>
<path d="M 3000.9212 2410.0809 3044.4066 2436.7926 3017.5927 2487.024 2982.4349 2474.1309 2968.5551 2459.8501 2953.7511 2448.334 2990.2833 2411.005 2982.4197 2408.2423 2963.4567 2410.5502 2946.8121 2443.7278 2938.9482 2440.0432 2944.4961 2426.6802 3000.9212 2410.0809 Z" fill="none" stroke="#E71E24" opacity="0.45454545454545453" stroke-width="1" class="kips_bay"/>
<path d="M 2990.7614 2475.9721 2985.1366 2497.4702 2995.9774 2469.308 3026.9554 2421.3808 3050.086 2434.7359 3002.7989 2519.7439 2938.0348 2504.091 2991.6722 2416.5336 3006.4727 2414.6869 3033.2991 2413.7582 2990.7614 2475.9721 Z" fill="none" stroke="#E71E24" opacity="0.45454545454545453" stroke-width="1" class="kips_bay"/>
<path d="M 2947.2864 2505.0108 2983.3507 2434.0441 3056.4449 2476.4149 3027.7887 2557.5234 2947.2864 2505.0108 Z" fill="none" stroke="#E71E24" opacity="0.45454545454545453" stroke-width="1" class="kips_bay"/>
<path d="M 3060.2098 2682.864 2899.1896 2581.5131 3016.639 2379.6682 3075.8521 2414.6667 3060.2098 2682.864 Z" fill="none" stroke="#E71E24" opacity="0.45454545454545453" stroke-width="1" class="kips_bay"/>
<path d="M 2915.8287 2487.5065 2969.4644 2387.0513 3072.1617 2445.0776 3037.9632 2548.3043 3031.4924 2567.6604 3037.0452 2573.1887 3040.7412 2556.5981 2915.8287 2487.5065 Z" fill="none" stroke="#E71E24" opacity="0.45454545454545453" stroke-width="1" class="kips_bay"/>
<path d="M 2981.0405 2444.6421 3056.4479 2486.0913 3033.3325 2531.2557 2957.4592 2486.1166 2981.0405 2444.6421 Z" fill="none" stroke="#E71E24" opacity="0.45454545454545453" stroke-width="1" class="kips_bay"/>
<path d="M 3005.5794 2539.5577 2939.8835 2495.7964 2848.7476 2382.923 3037.4233 2279.6894 3005.5794 2539.5577 Z" fill="none" stroke="#E71E24" opacity="0.45454545454545453" stroke-width="1" class="kips_bay"/>
<path d="M 2985.2009 2434.0437 3012.032 2448.7814 3015.7289 2435.8791 3041.6352 2449.6947 3061.9915 2463.5115 3044.4306 2517.8893 3029.6376 2551.9931 2946.3616 2506.8541 2985.2009 2434.0437 Z" fill="none" stroke="#E71E24" opacity="0.45454545454545453" stroke-width="1" class="kips_bay"/>
<path d="M 2949.1362 2502.2457 3001.8459 2408.6984 3068.4621 2447.3826 3030.0997 2550.1497 2949.1362 2502.2457 Z" fill="none" stroke="#E71E24" opacity="0.45454545454545453" stroke-width="1" class="kips_bay"/>
<path d="M 2998.1766 2533.7995 2947.5177 2505.2411 2980.8091 2444.1814 3032.6216 2471.123 2998.1766 2533.7995 Z" fill="none" stroke="#E71E24" opacity="0.45454545454545453" stroke-width="1" class="kips_bay"/>
<path d="M 2969.935 2424.3713 3010.6441 2447.8602 3005.5586 2457.5376 3031.465 2470.4322 2996.326 2533.1087 2929.2445 2496.2591 2969.935 2424.3713 Z" fill="none" stroke="#E71E24" opacity="0.45454545454545453" stroke-width="1" class="kips_bay"/>
<path d="M 2999.9957 2408.2381 3062.91 2442.316 3048.1268 2503.1428 2970.4061 2463.5358 2999.9957 2408.2381 Z" fill="none" stroke="#E71E24" opacity="0.45454545454545453" stroke-width="1" class="kips_bay"/>
<path d="M 3059.2197 2474.5709 3058.3003 2493.0024 3050.4409 2507.2893 3041.1941 2523.4198 3033.7973 2539.0893 3034.7267 2553.8349 2947.2865 2505.4716 3002.3082 2407.7768 3066.6113 2445.5402 3059.2197 2474.5709 Z" fill="none" stroke="#E71E24" opacity="0.45454545454545453" stroke-width="1" class="kips_bay"/>
<path d="M 3063.3724 2441.8551 3039.3521 2551.9904 2930.1694 2494.8766 2918.6028 2479.6728 2970.8519 2386.5902 3063.3724 2441.8551 Z" fill="none" stroke="#E71E24" opacity="0.45454545454545453" stroke-width="1" class="kips_bay"/>
<path d="M 2912.5902 2484.2815 2951.894 2412.8563 3061.5322 2473.6487 3038.425 2545.5393 2909.3521 2483.3604 2912.5902 2484.2815 Z" fill="none" stroke="#E71E24" opacity="0.45454545454545453" stroke-width="1" class="kips_bay"/>
<path d="M 2912.5905 2486.1246 2970.8807 2518.8298 2947.5287 2561.9201 2888.3115 2529.6729 2912.5905 2486.1246 Z" fill="none" stroke="#E71E24" opacity="0.45454545454545453" stroke-width="1" class="kips_bay"/>
<path d="M 2997.02 2533.3389 2929.707 2495.7983 2954.6768 2451.0984 2971.7933 2461.4621 3001.3831 2407.3163 3051.113 2435.1779 2997.02 2533.3389 Z" fill="none" stroke="#E71E24" opacity="0.45454545454545453" stroke-width="1" class="kips_bay"/>
<path d="M 2949.1122 2378.7623 3065.2234 2444.6191 3034.2635 2551.9918 2894.5488 2473.6863 2949.1122 2378.7623 Z" fill="none" stroke="#E71E24" opacity="0.45454545454545453" stroke-width="1" class="kips_bay"/>
<path d="M 3035.6521 2554.7563 2996.5575 2533.7999 2985.6908 2551.5436 2937.1133 2524.1357 2941.0436 2515.1494 2967.4009 2469.9873 3047.8992 2515.5843 3035.6521 2554.7563 Z" fill="none" stroke="#E71E24" opacity="0.45454545454545453" stroke-width="1" class="kips_bay"/>
<path d="M 3028.7116 2549.2285 2948.2119 2506.8538 3003.6962 2409.1587 3066.6106 2443.2364 3028.7116 2549.2285 Z" fill="none" stroke="#E71E24" opacity="0.45454545454545453" stroke-width="1" class="kips_bay"/>
<path d="M 2919.5137 2392.5895 2989.8134 2379.6749 3019.4176 2392.568 2986.1279 2442.3371 2903.7916 2416.5505 2987.0398 2386.1258 2919.5137 2392.5895 Z" fill="none" stroke="#E71E24" opacity="0.45454545454545453" stroke-width="1" class="kips_bay"/>
<path d="M 3066.6103 2442.3149 3030.5628 2551.9929 2971.3428 2516.9865 2975.9686 2516.9855 3022.2005 2421.1333 3066.6103 2442.3149 Z" fill="none" stroke="#E71E24" opacity="0.45454545454545453" stroke-width="1" class="kips_bay"/>
<path d="M 2985.2146 2493.0223 3020.122 2431.9615 3064.9951 2453.8344 3055.7584 2500.3758 3043.2756 2522.728 2985.2146 2493.0223 Z" fill="none" stroke="#E71E24" opacity="0.45454545454545453" stroke-width="1" class="kips_bay"/>
<path d="M 3032.8762 2553.6051 2912.8218 2486.355 2966.9209 2388.434 3065.6855 2443.2367 3032.8762 2553.6051 Z" fill="none" stroke="#E71E24" opacity="0.45454545454545453" stroke-width="1" class="kips_bay"/>
<path d="M 2972.266 2507.7704 3067.5041 2344.6385 3119.3146 2374.1066 3038.8879 2546.4607 2972.266 2507.7704 Z" fill="none" stroke="#E71E24" opacity="0.45454545454545453" stroke-width="1" class="kips_bay"/>
<path d="M 2930.6318 2493.4942 2987.5048 2396.7226 3071.2353 2440.9311 3067.106 2545.9913 3043.511 2536.7824 3036.1156 2557.9819 2930.6318 2493.4942 Z" fill="none" stroke="#E71E24" opacity="0.45454545454545453" stroke-width="1" class="kips_bay"/>
<path d="M 3067.5363 2445.0791 3030.5623 2550.1496 2933.4069 2492.1113 2981.4926 2399.0277 3067.5363 2445.0791 Z" fill="none" stroke="#E71E24" opacity="0.45454545454545453" stroke-width="1" class="kips_bay"/>
<path d="M 3051.9371 2483.4431 3036.3358 2519.2741 3033.1003 2528.0302 2958.6157 2486.5771 2987.0508 2433.1217 3010.1813 2446.7084 3036.5511 2463.2888 3051.9371 2483.4431 Z" fill="none" stroke="#E71E24" opacity="0.45454545454545453" stroke-width="1" class="kips_bay"/>
<path d="M 3036.1147 2554.7562 2887.1482 2476.4519 2954.6584 2359.4108 3065.6782 2420.1989 3036.1147 2554.7562 Z" fill="none" stroke="#E71E24" opacity="0.45454545454545453" stroke-width="1" class="kips_bay"/>
<path d="M 2853.3707 2361.2685 2870.0175 2331.7811 2894.0694 2350.2066 2884.8223 2372.7831 2878.3478 2377.3912 2853.3707 2361.2685 Z" fill="none" stroke="#E71E24" opacity="0.45454545454545453" stroke-width="1" class="kips_bay"/>
<path d="M 2983.805 2398.1057 3065.2227 2442.3153 3031.9508 2552.9141 2928.3194 2496.2593 2983.805 2398.1057 Z" fill="none" stroke="#E71E24" opacity="0.45454545454545453" stroke-width="1" class="kips_bay"/>
<path d="M 2950.0448 2417.6945 2949.3507 2416.3124 2976.8791 2451.5545 3026.3792 2478.958 2996.7886 2532.8782 2912.8217 2485.6638 2950.0448 2417.6945 Z" fill="none" stroke="#E71E24" opacity="0.45454545454545453" stroke-width="1" class="kips_bay"/>
<path d="M 3032.8762 2553.6051 2947.0553 2505.9324 3001.3834 2408.5833 3064.0667 2443.5828 3054.1345 2484.2488 3035.067 2530.7944 3032.8762 2553.6051 Z" fill="none" stroke="#E71E24" opacity="0.45454545454545453" stroke-width="1" class="kips_bay"/>
<path d="M 3039.816 2556.5984 2911.2023 2482.8994 2966.6892 2386.1304 3064.7601 2442.3155 3039.816 2556.5984 Z" fill="none" stroke="#E71E24" opacity="0.45454545454545453" stroke-width="1" class="kips_bay"/>
<path d="M 2913.0531 2486.5853 2963.4521 2388.8955 3060.1356 2445.0815 3061.5231 2444.6203 3066.1473 2440.9327 3066.6088 2437.7073 3066.1461 2437.2467 3063.8333 2436.7866 3030.0993 2548.7673 2913.0531 2486.5853 Z" fill="none" stroke="#E71E24" opacity="0.45454545454545453" stroke-width="1" class="kips_bay"/>
<path d="M 3032.8759 2552.453 2947.0553 2505.9324 2972.0243 2460.3101 3050.4396 2502.9117 3032.8759 2552.453 Z" fill="none" stroke="#E71E24" opacity="0.45454545454545453" stroke-width="1" class="kips_bay"/>
<path d="M 3015.6967 2314.2471 3085.0256 2187.082 3191.4099 2249.6886 3111.9107 2363.9734 3015.6967 2314.2471 Z" fill="none" stroke="#E71E24" opacity="0.45454545454545453" stroke-width="1" class="kips_bay"/>
<path d="M 3034.7267 2553.8349 2911.6651 2484.2816 2967.152 2387.5125 3066.6104 2442.7756 3060.1459 2478.2569 3052.2922 2510.5142 3039.3462 2531.7148 3034.7267 2553.8349 Z" fill="none" stroke="#E71E24" opacity="0.45454545454545453" stroke-width="1" class="kips_bay"/>
<path d="M 2929.9383 2495.7982 2984.0361 2397.6449 3065.4542 2443.0064 3032.1823 2553.3748 2929.9383 2495.7982 Z" fill="none" stroke="#E71E24" opacity="0.45454545454545453" stroke-width="1" class="kips_bay"/>
<path d="M 3032.4134 2552.914 2945.4361 2505.0112 3000.458 2407.3165 3065.2225 2441.8545 3032.4134 2552.914 Z" fill="none" stroke="#E71E24" opacity="0.45454545454545453" stroke-width="1" class="kips_bay"/>
<path d="M 3067.3046 2443.9273 3057.8366 2489.5467 3048.593 2515.1233 3034.2641 2553.8351 2947.749 2505.0107 2980.8087 2442.5687 2946.577 2423.6849 2967.6147 2388.6642 3067.3046 2443.9273 Z" fill="none" stroke="#E71E24" opacity="0.45454545454545453" stroke-width="1" class="kips_bay"/>
<path d="M 3036.5774 2555.2169 2911.2027 2485.6641 2928.6594 2456.2869 2966.8054 2388.8948 3066.1479 2442.7758 3036.5774 2555.2169 Z" fill="none" stroke="#E71E24" opacity="0.45454545454545453" stroke-width="1" class="kips_bay"/>
<path d="M 3065.9846 2444.0263 3034.6369 2560.161 3036.487 2559.2389 3031.4395 2544.1846 2907.4577 2497.21 2969.4205 2397.674 2974.9701 2394.9084 3065.9846 2444.0263 Z" fill="none" stroke="#E71E24" opacity="0.45454545454545453" stroke-width="1" class="kips_bay"/>
<path d="M 3035.1885 2551.0699 2932.4824 2495.337 2958.8378 2441.8823 3055.0599 2485.1701 3035.1885 2551.0699 Z" fill="none" stroke="#E71E24" opacity="0.45454545454545453" stroke-width="1" class="kips_bay"/>
<path d="M 3016.3735 2539.401 2963.6332 2515.4518 2945.4363 2505.9327 2964.856 2466.3017 3000.9215 2411.0024 3035.4608 2422.6666 3064.1451 2445.6958 3062.3071 2484.4011 3043.8236 2548.9182 3015.1427 2548.9262 3016.3735 2539.401 Z" fill="none" stroke="#E71E24" opacity="0.45454545454545453" stroke-width="1" class="kips_bay"/>
<path d="M 3050.8818 2435.6388 3011.5843 2505.9178 2944.504 2468.3792 2983.5738 2398.3361 3050.8818 2435.6388 Z" fill="none" stroke="#E71E24" opacity="0.45454545454545453" stroke-width="1" class="kips_bay"/>
<path d="M 3033.3397 2556.6002 2968.1054 2519.752 3040.6942 2395.3264 3080.4775 2415.1259 3033.3397 2556.6002 Z" fill="none" stroke="#E71E24" opacity="0.45454545454545453" stroke-width="1" class="kips_bay"/></svg>