<?xml version="1.0"?><svg xmlns="http://www.w3.org/2000/svg" version="1.2" baseProfile="tiny" width="6000" height="5918" viewBox="0 0 6000 5918" stroke-linecap="round" stroke-linejoin="round"><path d="M 3286.372 2121.1237 3287.2972 2121.8141 3210.5856 2216.0517 3112.5312 2164.7317 3173.0601 2057.3878 3286.372 2121.1237 Z" fill="none" stroke="#012394" opacity="0.6" stroke-width="1" class="lenox_hill"/>
<path d="M 3055.8801 2144.2532 3161.458 1954.2299 3280.0733 2017.4967 3179.8292 2205.4708 3055.8801 2144.2532 Z" fill="none" stroke="#012394" opacity="0.6" stroke-width="1" class="lenox_hill"/>
<path d="M 3319.3958 2058.4647 3211.7415 2215.5905 3097.9613 2152.9911 3190.8291 1987.1451 3319.3958 2058.4647 Z" fill="none" stroke="#012394" opacity="0.6" stroke-width="1" class="lenox_hill"/>
<path d="M 3213.5934 2220.1961 3061.4263 2135.9605 3119.1851 2028.6241 3288.6838 2120.8921 3213.5934 2220.1961 Z" fill="none" stroke="#012394" opacity="0.6" stroke-width="1" class="lenox_hill"/>
<path d="M 3225.501 1982.984 3280.9944 2011.0485 3237.5766 2093.5135 3179.7696 2069.5902 3225.501 1982.984 Z" fill="none" stroke="#012394" opacity="0.6" stroke-width="1" class="lenox_hill"/>
<path d="M 3204.3528 2237.7054 3103.522 2186.1543 3192.2573 2078.3357 3282.9074 2127.1134 3204.3528 2237.7054 Z" fill="none" stroke="#012394" opacity="0.6" stroke-width="1" class="lenox_hill"/>
<path d="M 3329.1066 2060.7618 3233.9283 2195.772 3063.7496 2171.8881 3089.6017 2047.0573 3158.6887 1965.0534 3329.1066 2060.7618 Z" fill="none" stroke="#012394" opacity="0.6" stroke-width="1" class="lenox_hill"/>
<path d="M 3328.4129 2060.532 3216.3633 2210.5212 3159.009 2178.993 3248.8656 2017.283 3328.4129 2060.532 Z" fill="none" stroke="#012394" opacity="0.6" stroke-width="1" class="lenox_hill"/>
<path d="M 3139.5335 2042.4332 3257.9375 2125.2844 3204.3344 2198.0894 3100.7275 2129.9594 3139.5335 2042.4332 Z" fill="none" stroke="#012394" opacity="0.6" stroke-width="1" class="lenox_hill"/>
<path d="M 3158.0592 2118.8827 3215.3478 2020.2931 3273.61 2035.0015 3215.4053 2140.9664 3158.0592 2118.8827 Z" fill="none" stroke="#012394" opacity="0.6" stroke-width="1" class="lenox_hill"/>
<path d="M 3097.9619 2154.8336 3182.0495 1997.2809 3318.9429 2074.5852 3204.3421 2214.6727 3097.9619 2154.8336 Z" fill="none" stroke="#012394" opacity="0.6" stroke-width="1" class="lenox_hill"/>
<path d="M 3055.8801 2144.2532 3121.0336 2026.3206 3214.9133 2078.7857 3149.7682 2197.1919 3055.8801 2144.2532 Z" fill="none" stroke="#012394" opacity="0.6" stroke-width="1" class="lenox_hill"/>
<path d="M 3162.3183 2076.1609 3274.2436 2138.288 3212.5525 2219.2753 3113.8029 2164.9616 3162.3183 2076.1609 Z" fill="none" stroke="#012394" opacity="0.6" stroke-width="1" class="lenox_hill"/>
<path d="M 3060.9635 2134.5788 3109.9454 2047.9712 3233.8828 2104.109 3183.9886 2199.9412 3060.9635 2134.5788 Z" fill="none" stroke="#012394" opacity="0.6" stroke-width="1" class="lenox_hill"/>
<path d="M 3119.1848 2027.703 3189.4779 2066.8224 3155.7518 2129.9382 3084.0683 2090.8142 3119.1848 2027.703 Z" fill="none" stroke="#012394" opacity="0.6" stroke-width="1" class="lenox_hill"/>
<path d="M 3169.8435 2103.678 3220.4305 2014.0732 3318.0136 2066.7559 3279.4431 2133.7942 3245.4635 2145.788 3169.8435 2103.678 Z" fill="none" stroke="#012394" opacity="0.6" stroke-width="1" class="lenox_hill"/>
<path d="M 3120.1099 2028.8541 3120.5718 2027.7025 3264.4019 2108.2387 3120.1099 2028.8541 Z" fill="none" stroke="#012394" opacity="0.6" stroke-width="1" class="lenox_hill"/>
<path d="M 3232.4171 1945.2172 3231.4939 1947.9808 3302.2444 1980.6408 3235.7307 2100.8839 3166.8208 2063.1477 3232.4171 1945.2172 Z" fill="none" stroke="#012394" opacity="0.6" stroke-width="1" class="lenox_hill"/>
<path d="M 3076.9076 2109.2404 3077.8314 2106.2462 3079.218 2104.8639 3079.68 2103.7123 3081.5285 2100.4875 3083.3768 2097.0324 3084.7625 2092.8866 3087.0733 2089.6617 3088.228 2086.2069 3092.1555 2078.6059 3094.9284 2074.9203 3096.5458 2072.3865 3076.9076 2109.2404 Z" fill="none" stroke="#012394" opacity="0.6" stroke-width="1" class="lenox_hill"/>
<path d="M 3096.0881 2085.7436 3108.0535 1930.9946 3175.5617 1962.283 3276.3836 2034.0789 3210.7823 2142.811 3096.0881 2085.7436 Z" fill="none" stroke="#012394" opacity="0.6" stroke-width="1" class="lenox_hill"/>
<path d="M 3045.4818 2163.1418 3091.0014 2083.6727 3131.8928 2011.5787 3152.0083 2021.4726 3164.495 2029.9877 3181.6047 2037.1191 3199.6413 2048.3948 3223.458 2060.1281 3300.234 2104.304 3196.0323 2245.3102 3045.4818 2163.1418 Z" fill="none" stroke="#012394" opacity="0.6" stroke-width="1" class="lenox_hill"/>
<path d="M 3330.0294 2057.5373 3330.0296 2057.9978 3328.6438 2060.0712 3306.2291 2076.6652 3297.4551 2096.0149 3271.8133 2133.1074 3247.7625 2120.4533 3221.8639 2110.1026 3178.3891 2084.5597 3127.7485 2055.1034 3137.9147 2040.8218 3147.8474 2021.7046 3155.2381 2005.5822 3174.8737 1974.7177 3207.0136 1994.276 3330.0294 2057.5373 Z" fill="none" stroke="#012394" opacity="0.6" stroke-width="1" class="lenox_hill"/>
<path d="M 3239.3963 2034.2133 3184.422 2134.4169 3183.4999 2140.5204 3160.6028 2120.0332 3156.211 2122.1077 3215.2328 2021.5597 3239.3963 2034.2133 Z" fill="none" stroke="#012394" opacity="0.6" stroke-width="1" class="lenox_hill"/>
<path d="M 3145.1236 2146.5246 3071.1262 2104.1757 3120.108 2024.0182 3190.402 2065.4402 3145.1236 2146.5246 Z" fill="none" stroke="#012394" opacity="0.6" stroke-width="1" class="lenox_hill"/>
<path d="M 3061.8871 2130.8936 3182.9399 1919.9122 3351.2671 2008.2442 3302.2816 2046.0392 3196.9407 2209.1483 3061.8871 2130.8936 Z" fill="none" stroke="#012394" opacity="0.6" stroke-width="1" class="lenox_hill"/>
<path d="M 3203.3634 2098.5965 3154.8509 2187.7468 3062.1199 2136.1905 3109.0208 2048.4322 3203.3634 2098.5965 Z" fill="none" stroke="#012394" opacity="0.6" stroke-width="1" class="lenox_hill"/>
<path d="M 3123.6043 2099.6664 3121.292 2098.5158 3117.7082 2097.4808 3115.3957 2095.7545 3109.847 2095.0656 3108.921 2091.8418 3106.9555 2090.5759 3105.9147 2089.1945 3103.3713 2088.2743 3101.406 2087.6992 3097.4756 2086.7794 3095.5098 2084.5923 3094.2377 2083.0959 3083.3742 2089.3175 3092.8503 2082.2903 3094.9294 2077.6838 3096.3156 2075.1501 3097.9327 2071.8103 3099.8968 2069.2764 3101.5137 2065.4761 3102.5529 2062.2517 3105.9006 2050.2756 3108.329 2053.0381 3110.0613 2049.0075 3115.1428 2037.2612 3117.338 2034.7273 3119.4181 2033.5751 3120.5735 2032.1929 3128.5453 2022.8636 3131.4321 2015.6087 3137.5541 2005.7045 3136.0516 2005.9354 3135.2424 2005.7054 3138.3582 1993.1543 3138.5891 1992.5785 3143.6702 1981.5236 3144.2481 1981.5233 3150.9474 1971.0435 3150.7168 1972.31 3161.3442 1958.4898 3165.7332 1951.6952 3165.5012 1949.6229 3166.1935 1946.8595 3168.7347 1943.5197 3168.8494 1941.4473 3176.2416 1930.9674 3178.2052 1928.4337 3181.7844 1920.3732 3180.1675 1923.0219 3187.3274 1910.4699 3183.5153 1914.3859 3192.5233 1899.9912 3191.2534 1902.8699 3196.7953 1891.1247 3193.2158 1897.8035 3200.6054 1883.0644 3200.0279 1883.8705 3209.4981 1870.3969 3211.8081 1867.6329 3212.6165 1866.4813 3214.6941 1861.1848 3217.9274 1855.8878 3219.5434 1851.9729 3222.315 1847.9425 3225.6635 1842.185 3231.2088 1838.7287 3241.8439 1845.5153 3244.0399 1846.0898 3258.259 1855.5222 3260.34 1857.1328 3264.7327 1859.548 3267.5079 1862.6547 3277.9125 1869.5564 3303.2193 1866.0887 3295.0163 1869.8923 3298.8332 1875.6462 3298.1409 1877.4885 3298.489 1880.021 3299.9941 1884.8553 3347.6141 1894.9579 3363.6912 1915.5553 3349.1268 1911.6501 3389.2397 1926.5909 3390.2801 1926.9356 3404.3884 1939.36 3404.2747 1942.1232 3409.2456 1943.9619 3408.2105 1951.4461 3402.7832 1958.4727 3397.4747 1970.3349 3394.9433 1987.3764 3412.0737 2023.1725 3407.47 2052.1912 3407.4747 2059.0998 3402.2779 2066.0119 3401.3651 2083.6298 3394.1924 2074.6532 3395.7145 2103.7845 3379.4183 2107.7103 3359.6516 2107.7229 3360.8074 2107.4919 3352.4825 2104.0426 3325.0962 2120.1803 3326.7172 2124.5551 3364.6249 2111.9803 3364.7439 2117.2772 3360.1229 2121.771 3353.194 2132.8299 3348.1244 2160.0094 3337.8334 2155.8701 3328.7041 2161.1728 3325.3514 2160.7142 3320.1595 2177.9908 3307.6852 2196.769 3306.1839 2199.5337 3313.2435 2212.7732 3308.6213 2216.461 3292.2114 2227.9867 3298.8081 2240.1904 3347.2267 2204.0005 3337.9807 2208.152 3123.6043 2099.6664 Z" fill="none" stroke="#012394" opacity="0.6" stroke-width="1" class="lenox_hill"/>
<path d="M 3283.8332 2128.9554 3210.8183 2219.2762 3114.6121 2164.9613 3166.3598 2066.3719 3283.8332 2128.9554 Z" fill="none" stroke="#012394" opacity="0.6" stroke-width="1" class="lenox_hill"/>
<path d="M 3111.3321 2047.0496 3279.2156 2140.4732 3266.28 2162.1292 3214.9822 2223.4201 3058.1911 2141.0282 3111.3321 2047.0496 Z" fill="none" stroke="#012394" opacity="0.6" stroke-width="1" class="lenox_hill"/>
<path d="M 3057.0363 2144.7135 3120.5722 2028.8539 3213.9889 2079.477 3149.9989 2196.0402 3057.0363 2144.7135 Z" fill="none" stroke="#012394" opacity="0.6" stroke-width="1" class="lenox_hill"/>
<path d="M 3209.8952 2222.9618 3060.964 2136.4212 3156.1467 1966.8966 3325.4061 2058.0006 3209.8952 2222.9618 Z" fill="none" stroke="#012394" opacity="0.6" stroke-width="1" class="lenox_hill"/>
<path d="M 3208.0476 2227.5692 3126.6351 2165.878 3099.8125 2157.5966 3176.5289 2059.9195 3297.7023 2124.3416 3208.0476 2227.5692 Z" fill="none" stroke="#012394" opacity="0.6" stroke-width="1" class="lenox_hill"/>
<path d="M 3102.5657 2098.1773 3167.7145 1990.379 3241.2446 2032.255 3185.8123 2141.4406 3102.5657 2098.1773 Z" fill="none" stroke="#012394" opacity="0.6" stroke-width="1" class="lenox_hill"/>
<path d="M 3213.1305 2219.2751 3060.964 2136.4212 3105.0936 2056.033 3271.8212 2147.847 3213.1305 2219.2751 Z" fill="none" stroke="#012394" opacity="0.6" stroke-width="1" class="lenox_hill"/>
<path d="M 3211.7478 2228.9495 3091.4915 2164.0483 3154.7932 2047.9538 3291.2283 2123.424 3257.962 2172.2674 3231.1572 2202.683 3223.7631 2212.3602 3211.7478 2228.9495 Z" fill="none" stroke="#012394" opacity="0.6" stroke-width="1" class="lenox_hill"/>
<path d="M 3153.3767 1976.1083 3221.3566 2017.0664 3200.5698 2056.6847 3116.4114 2029.5463 3153.3767 1976.1083 Z" fill="none" stroke="#012394" opacity="0.6" stroke-width="1" class="lenox_hill"/>
<path d="M 3249.5585 2016.1312 3198.9751 2107.8104 3139.0837 2073.9827 3189.4401 1982.5403 3249.5585 2016.1312 Z" fill="none" stroke="#012394" opacity="0.6" stroke-width="1" class="lenox_hill"/>
<path d="M 3091.6832 2083.8403 3154.3294 1968.2867 3221.7351 2005.7242 3161.4468 2123.6279 3091.6832 2083.8403 Z" fill="none" stroke="#012394" opacity="0.6" stroke-width="1" class="lenox_hill"/>
<path d="M 3174.6219 1927.284 3343.8805 2025.7498 3257.0319 2162.1341 3095.1579 2070.0841 3174.6219 1927.284 Z" fill="none" stroke="#012394" opacity="0.6" stroke-width="1" class="lenox_hill"/>
<path d="M 3116.4614 2164.0393 3168.2096 2067.2923 3290.3097 2134.4791 3218.2173 2219.2726 3159.0116 2185.2115 3116.4614 2164.0393 Z" fill="none" stroke="#012394" opacity="0.6" stroke-width="1" class="lenox_hill"/>
<path d="M 3225.0463 1998.6426 3257.8764 2008.2975 3282.8513 2024.8641 3273.6264 2065.3991 3186.6855 2025.8331 3197.7681 1996.3528 3225.0463 1998.6426 Z" fill="none" stroke="#012394" opacity="0.6" stroke-width="1" class="lenox_hill"/>
<path d="M 3097.9619 2154.8336 3180.2014 2000.045 3315.2442 2075.0479 3306.4747 2101.7672 3275.9855 2152.9116 3215.9044 2217.8918 3097.9619 2154.8336 Z" fill="none" stroke="#012394" opacity="0.6" stroke-width="1" class="lenox_hill"/>
<path d="M 3071.1306 2117.7634 3156.1457 1964.4788 3249.3273 2016.0162 3165.248 2170.4687 3071.1306 2117.7634 Z" fill="none" stroke="#012394" opacity="0.6" stroke-width="1" class="lenox_hill"/>
<path d="M 3061.4288 2144.0212 3120.8035 2029.0841 3267.6383 2107.7764 3199.7238 2227.5731 3061.4288 2144.0212 Z" fill="none" stroke="#012394" opacity="0.6" stroke-width="1" class="lenox_hill"/>
<path d="M 3057.7271 2135.9616 3122.8822 2024.4777 3128.4321 2029.0812 3291.2281 2122.9634 3215.904 2216.9705 3057.7271 2135.9616 Z" fill="none" stroke="#012394" opacity="0.6" stroke-width="1" class="lenox_hill"/>
<path d="M 3211.6983 2124.3862 3097.9295 2062.7139 3184.7805 1900.5703 3305.9408 1976.9544 3211.6983 2124.3862 Z" fill="none" stroke="#012394" opacity="0.6" stroke-width="1" class="lenox_hill"/>
<path d="M 3120.5721 2028.6236 3285.2154 2119.9728 3202.4491 2121.1662 3284.7535 2120.8943 3222.8215 2177.8126 3079.4473 2099.1064 3120.5721 2028.6236 Z" fill="none" stroke="#012394" opacity="0.6" stroke-width="1" class="lenox_hill"/>
<path d="M 3049.8666 2136.4246 3216.192 1851.7443 3233.7553 1847.131 3240.2296 1852.6535 3206.0293 1866.4844 3362.3024 1912.4477 3394.7113 1986.1101 3220.0692 2223.8783 3049.8666 2136.4246 Z" fill="none" stroke="#012394" opacity="0.6" stroke-width="1" class="lenox_hill"/>
<path d="M 3131.2527 2149.2938 3120.1541 2146.5343 3195.0017 2012.9338 3319.8725 2082.8752 3224.6797 2195.3159 3229.303 2193.4711 3131.2527 2149.2938 Z" fill="none" stroke="#012394" opacity="0.6" stroke-width="1" class="lenox_hill"/>
<path d="M 3121.5277 2110.6064 3228.9375 1920.121 3360.9654 1991.4282 3227.9051 2171.822 3121.5277 2110.6064 Z" fill="none" stroke="#012394" opacity="0.6" stroke-width="1" class="lenox_hill"/>
<path d="M 3159.9334 2177.841 3063.7343 2123.5233 3109.0183 2041.5236 3123.8036 2015.7268 3220.9198 2070.0318 3159.9334 2177.841 Z" fill="none" stroke="#012394" opacity="0.6" stroke-width="1" class="lenox_hill"/>
<path d="M 3150.2064 2137.7709 3083.609 2100.0262 3154.2983 1968.7394 3225.0488 2003.7086 3150.2064 2137.7709 Z" fill="none" stroke="#012394" opacity="0.6" stroke-width="1" class="lenox_hill"/>
<path d="M 3066.8568 2127.8981 3066.2789 2128.0134 3120.9191 2029.1992 3263.8239 2108.1238 3219.2432 2188.9848 3235.0842 2195.3108 3216.7104 2210.9817 3066.8568 2127.8981 Z" fill="none" stroke="#012394" opacity="0.6" stroke-width="1" class="lenox_hill"/>
<path d="M 3163.642 2199.95 3063.7395 2140.1052 3107.1793 2070.0798 3196.8969 2113.3386 3214.4744 2128.0697 3174.7402 2199.9453 3163.642 2199.95 Z" fill="none" stroke="#012394" opacity="0.6" stroke-width="1" class="lenox_hill"/>
<path d="M 3120.11 2029.0843 3191.3278 2067.7427 3145.1241 2147.9065 3075.7517 2109.2408 3120.11 2029.0843 Z" fill="none" stroke="#012394" opacity="0.6" stroke-width="1" class="lenox_hill"/>
<path d="M 3179.8279 2202.4766 3078.307 2146.3188 3131.9071 2048.4235 3234.114 2104.1088 3179.8279 2202.4766 Z" fill="none" stroke="#012394" opacity="0.6" stroke-width="1" class="lenox_hill"/>
<path d="M 3253.3384 2173.191 3219.139 2212.8231 3064.6603 2127.2079 3092.3881 2082.5208 3253.3384 2173.191 Z" fill="none" stroke="#012394" opacity="0.6" stroke-width="1" class="lenox_hill"/>
<path d="M 3100.7167 2099.5597 3215.3891 2106.8815 3113.7454 2322.5086 2991.6383 2274.634 3100.7167 2099.5597 Z" fill="none" stroke="#012394" opacity="0.6" stroke-width="1" class="lenox_hill"/>
<path d="M 3163.0763 1954.92 3336.7292 2050.3944 3193.257 2243.9295 3045.7131 2163.6024 3163.0763 1954.92 Z" fill="none" stroke="#012394" opacity="0.6" stroke-width="1" class="lenox_hill"/>
<path d="M 3067.4414 2148.3951 3154.3013 1976.108 3330.0346 2066.2882 3208.0433 2218.3562 3067.4414 2148.3951 Z" fill="none" stroke="#012394" opacity="0.6" stroke-width="1" class="lenox_hill"/>
<path d="M 3200.6558 2243.2351 3080.4002 2183.3985 3165.4243 2041.0409 3289.8391 2119.7399 3200.6558 2243.2351 Z" fill="none" stroke="#012394" opacity="0.6" stroke-width="1" class="lenox_hill"/>
<path d="M 3194.7944 2065.4382 3211.1909 2029.0457 3282.8771 2071.8422 3277.5946 2135.6376 3170.075 2104.5991 3193.1771 2067.5116 3194.7944 2065.4382 Z" fill="none" stroke="#012394" opacity="0.6" stroke-width="1" class="lenox_hill"/>
<path d="M 3220.9639 2161.2309 3205.3863 2149.1046 3181.8093 2137.1495 3249.823 2180.1281 3089.7977 2092.6804 3174.6371 1962.2834 3170.227 1954.4214 3337.6372 2047.3651 3293.3084 2148.7215 3254.4817 2177.3011 3220.9639 2161.2309 Z" fill="none" stroke="#012394" opacity="0.6" stroke-width="1" class="lenox_hill"/>
<path d="M 3266.2763 2155.2199 3170.7684 2104.1382 3230.5912 1992.4226 3334.4174 2050.3958 3266.2763 2155.2199 Z" fill="none" stroke="#012394" opacity="0.6" stroke-width="1" class="lenox_hill"/>
<path d="M 3205.2691 2219.2788 3110.9142 2168.6476 3158.0458 2086.6411 3269.0525 2158.4428 3205.2691 2219.2788 Z" fill="none" stroke="#012394" opacity="0.6" stroke-width="1" class="lenox_hill"/>
<path d="M 3213.5928 2219.0445 3060.5013 2135.2698 3104.4002 2056.4938 3273.6704 2147.1551 3213.5928 2219.0445 Z" fill="none" stroke="#012394" opacity="0.6" stroke-width="1" class="lenox_hill"/>
<path d="M 3206.1949 2221.1209 3051.7209 2152.085 3120.1101 2029.5449 3290.302 2120.6609 3206.1949 2221.1209 Z" fill="none" stroke="#012394" opacity="0.6" stroke-width="1" class="lenox_hill"/>
<path d="M 3208.9708 2223.8836 3059.1142 2135.5006 3206.0353 1879.378 3210.6588 1881.2177 3218.0564 1883.9772 3226.3791 1887.657 3266.1456 1908.8196 3386.3823 1975.0627 3216.3609 2205.4541 3225.6099 2206.3709 3208.9708 2223.8836 Z" fill="none" stroke="#012394" opacity="0.6" stroke-width="1" class="lenox_hill"/>
<path d="M 3137.697 2075.1347 3198.6849 1979.3124 3284.6992 2022.0998 3220.4832 2123.4608 3137.697 2075.1347 Z" fill="none" stroke="#012394" opacity="0.6" stroke-width="1" class="lenox_hill"/>
<path d="M 3225.5109 2003.2478 3204.9548 2040.793 3170.9636 2020.3133 3192.6774 1985.0718 3225.5109 2003.2478 Z" fill="none" stroke="#012394" opacity="0.6" stroke-width="1" class="lenox_hill"/>
<path d="M 3056.8052 2145.1742 3155.6831 1963.673 3331.8807 2060.7602 3215.4455 2225.2625 3056.8052 2145.1742 Z" fill="none" stroke="#012394" opacity="0.6" stroke-width="1" class="lenox_hill"/>
<path d="M 3141.3631 1992.6926 3260.676 2057.1156 3220.9478 2128.0666 3098.8552 2065.477 3141.3631 1992.6926 Z" fill="none" stroke="#012394" opacity="0.6" stroke-width="1" class="lenox_hill"/>
<path d="M 3097.9619 2154.8336 3097.0371 2154.7187 3156.1805 2048.529 3289.6094 2122.3885 3211.7428 2218.3544 3097.9619 2154.8336 Z" fill="none" stroke="#012394" opacity="0.6" stroke-width="1" class="lenox_hill"/>
<path d="M 3109.0662 2173.0243 3152.269 2093.5523 3245.2317 2144.6366 3199.7229 2225.7305 3109.0662 2173.0243 Z" fill="none" stroke="#012394" opacity="0.6" stroke-width="1" class="lenox_hill"/>
<path d="M 3064.663 2135.9594 3069.2856 2131.8125 3070.6697 2122.3696 3107.1749 2058.1048 3250.0822 2135.6521 3207.1176 2216.514 3062.3511 2136.1905 3064.1982 2128.1292 3064.663 2135.9594 Z" fill="none" stroke="#012394" opacity="0.6" stroke-width="1" class="lenox_hill"/>
<path d="M 3216.3158 2111.0265 3132.839 2066.8461 3182.7322 1972.8721 3264.8164 2017.7352 3216.3158 2111.0265 Z" fill="none" stroke="#012394" opacity="0.6" stroke-width="1" class="lenox_hill"/>
<path d="M 3132.1864 2172.3246 3238.4503 1991.7278 3335.5779 2057.9945 3203.4104 2199.9324 3132.1864 2172.3246 Z" fill="none" stroke="#012394" opacity="0.6" stroke-width="1" class="lenox_hill"/>
<path d="M 3156.3771 1965.0543 3331.1869 2060.3 3313.6309 2083.5697 3121.7281 2028.8535 3156.3771 1965.0543 Z" fill="none" stroke="#012394" opacity="0.6" stroke-width="1" class="lenox_hill"/>
<path d="M 3213.1305 2219.2751 3094.9564 2155.0649 3180.2023 2002.1175 3318.9442 2076.8881 3213.1305 2219.2751 Z" fill="none" stroke="#012394" opacity="0.6" stroke-width="1" class="lenox_hill"/>
<path d="M 3054.9552 2143.7929 3133.9686 1999.6037 3279.6446 2079.2133 3202.0327 2220.6622 3054.9552 2143.7929 Z" fill="none" stroke="#012394" opacity="0.6" stroke-width="1" class="lenox_hill"/>
<path d="M 3131.9249 2094.2513 3166.1134 2030.4476 3250.514 2076.0046 3214.4801 2140.0456 3131.9249 2094.2513 Z" fill="none" stroke="#012394" opacity="0.6" stroke-width="1" class="lenox_hill"/>
<path d="M 3234.3476 1945.9573 3365.3184 2020.142 3268.5234 2159.1791 3256.9691 2170.2402 3211.1499 2147.7284 3144.4078 2110.884 3234.3476 1945.9573 Z" fill="none" stroke="#012394" opacity="0.6" stroke-width="1" class="lenox_hill"/>
<path d="M 3224.8157 1999.7941 3234.2972 2007.3885 3244.2406 2014.0615 3257.1902 2022.1145 3267.1345 2029.9388 3257.6656 2047.2149 3253.7413 2058.2707 3248.6585 2064.2608 3240.3343 2060.6955 3232.0165 2070.0264 3225.0791 2065.8846 3218.1373 2052.5313 3218.1364 2050.5738 3201.6055 2046.5516 3198.0206 2042.8687 3193.6259 2037.6894 3186.6891 2033.8929 3174.667 2031.2499 3166.4576 2024.4602 3168.9995 2022.2715 3174.6609 2017.0878 3177.6606 2004.5365 3184.5944 2002.0004 3190.2527 1990.4843 3192.9077 1983.1144 3192.9029 1972.5221 3197.293 1968.4905 3202.8419 1970.9057 3206.6556 1970.2131 3213.0145 1974.7003 3217.0624 1980.2248 3223.9979 1981.7182 3227.5834 1987.0127 3231.0589 2003.4754 3224.8157 1999.7941 Z" fill="none" stroke="#012394" opacity="0.6" stroke-width="1" class="lenox_hill"/>
<path d="M 3209.7844 1987.5969 3280.0781 2026.2473 3220.7183 2131.5213 3245.4625 2143.9455 3196.2316 2175.2917 3128.2429 2138.4705 3209.7844 1987.5969 Z" fill="none" stroke="#012394" opacity="0.6" stroke-width="1" class="lenox_hill"/>
<path d="M 3148.3286 2068.2217 3194.0651 1986.6831 3330.0305 2059.3796 3280.6033 2141.3936 3148.3286 2068.2217 Z" fill="none" stroke="#012394" opacity="0.6" stroke-width="1" class="lenox_hill"/>
<path d="M 3227.2108 2170.4404 3084.7618 2090.814 3116.183 2036.9154 3281.9844 2130.3382 3227.2103 2169.2888 3227.2108 2170.4404 Z" fill="none" stroke="#012394" opacity="0.6" stroke-width="1" class="lenox_hill"/>
<path d="M 3230.1094 1953.0472 3270.8015 1970.5264 3186.7336 2133.6098 3141.4097 2109.6775 3230.1094 1953.0472 Z" fill="none" stroke="#012394" opacity="0.6" stroke-width="1" class="lenox_hill"/>
<path d="M 3280.9723 1970.5209 3232.9307 2048.8395 3186.6826 2019.3853 3230.1072 1948.442 3280.9723 1970.5209 Z" fill="none" stroke="#012394" opacity="0.6" stroke-width="1" class="lenox_hill"/>
<path d="M 3249.212 2016.592 3213.874 2080.8588 3171.7887 2057.6186 3195.1177 2013.97 3207.5911 1993.3547 3249.212 2016.592 Z" fill="none" stroke="#012394" opacity="0.6" stroke-width="1" class="lenox_hill"/>
<path d="M 3090.0758 2081.1398 3140.6703 1994.3048 3309.9329 2085.1839 3235.2991 2162.6058 3090.0758 2081.1398 Z" fill="none" stroke="#012394" opacity="0.6" stroke-width="1" class="lenox_hill"/>
<path d="M 3082.7117 2181.5552 3171.6574 2021.0038 3253.5146 2066.7914 3181.2146 2201.0941 3165.9654 2226.6667 3082.7117 2181.5552 Z" fill="none" stroke="#012394" opacity="0.6" stroke-width="1" class="lenox_hill"/>
<path d="M 3123.8366 2117.2714 3180.2 2009.4734 3243.0956 2046.2884 3208.005 2148.5571 3146.9967 2218.6003 3061.9013 2193.7559 3123.8366 2117.2714 Z" fill="none" stroke="#012394" opacity="0.6" stroke-width="1" class="lenox_hill"/>
<path d="M 3070.2113 2134.5758 3234.6652 1817.6608 3390.0199 1882.958 3222.8416 2219.2704 3209.89 2211.9062 3070.2113 2134.5758 Z" fill="none" stroke="#012394" opacity="0.6" stroke-width="1" class="lenox_hill"/>
<path d="M 3287.528 2121.123 3196.9538 2237.7089 3057.2694 2151.1621 3124.733 2028.1615 3287.528 2121.123 Z" fill="none" stroke="#012394" opacity="0.6" stroke-width="1" class="lenox_hill"/></svg>