<?xml version="1.0"?><svg xmlns="http://www.w3.org/2000/svg" version="1.2" baseProfile="tiny" width="6000" height="5918" viewBox="0 0 6000 5918" stroke-linecap="round" stroke-linejoin="round"><path d="M 5383.8888 2168.5337 5535.6595 2123.6506 5524.9981 1956.4952 5579.8322 2050.9766 5613.5824 2050.4148 5655.9531 2071.7029 5731.2314 2117.529 5736.8344 2134.7843 5757.0056 2225.6965 5753.6161 2250.5832 5751.3956 2279.613 5691.9122 2336.0045 5686.916 2365.5061 5675.0754 2387.8882 5650.8591 2409.5022 5635.5918 2446.2942 5618.8633 2420.8879 5620.7524 2395.5411 5607.1627 2375.3097 5556.6805 2313.1484 5548.3019 2294.8604 5554.8353 2275.6074 5569.3744 2266.0052 5575.4752 2257.0039 5576.2588 2248.3639 5572.7675 2240.6581 5552.677 2249.4704 5538.1366 2219.2246 5500.1208 2146.2092 5466.0546 2158.7441 5458.1727 2151.3966 5383.8888 2168.5337 Z" fill="none" stroke="#A9159C" opacity="0.6" stroke-width="1" class="little_neck"/>
<path d="M 5615.4402 2053.1726 5741.4562 2134.0788 5923.7939 2318.211 5302.9312 2585.4866 5153.9624 2217.2806 5615.4402 2053.1726 Z" fill="none" stroke="#A9159C" opacity="0.6" stroke-width="1" class="little_neck"/>
<path d="M 5650.8079 2430.5819 5649.4048 2425.5178 5638.276 2416.3367 5623.4332 2402.5593 5615.9855 2386.9166 5581.6233 2341.4078 5554.2178 2301.4078 5567.0741 2270.043 5570.6861 2240.5491 5518.5418 2120.4764 5479.5769 2077.2931 5439.8541 2091.6848 5411.0412 2039.7203 5423.8701 1998.234 5408.0466 1960.9747 5424.0717 1905.6677 5450.8223 1883.9485 5528.2099 1948.1963 5575.4578 1979.373 5630.602 2021.5778 5665.4357 2073.0556 5683.0567 2089.5825 5696.0295 2098.0633 5729.6037 2114.5401 5733.5622 2123.5096 5739.7819 2116.3505 5756.707 2131.4972 5782.8623 2140.8566 5788.6673 2148.6686 5806.2859 2163.352 5821.5848 2175.5093 5849.8755 2200.9829 5836.0118 2203.792 5816.8308 2206.8485 5780.3726 2229.9984 5755.7671 2272.6889 5747.9504 2286.9948 5735.2746 2300.3949 5706.4433 2323.9809 5696.5399 2336.9116 5689.6875 2364.3457 5682.3508 2384.8709 5666.9358 2410.72 5656.7962 2422.5003 5650.8079 2430.5819 Z" fill="none" stroke="#A9159C" opacity="0.6" stroke-width="1" class="little_neck"/>
<path d="M 5759.8942 2261.6195 5686.1952 2356.7545 5691.4739 2269.2049 5654.2319 2189.1646 5591.9423 2080.648 5567.0566 2108.3579 5526.1409 2031.1004 5517.7704 2014.5447 5515.6768 1930.7332 5572.1476 1954.5141 5562.0616 1983.0971 5630.6132 2025.2623 5614.0441 2050.1831 5675.1652 2079.4739 5797.4899 2160.1559 5841.0939 2202.3935 5793.9768 2218.2081 5759.8942 2261.6195 Z" fill="none" stroke="#A9159C" opacity="0.6" stroke-width="1" class="little_neck"/>
<path d="M 5482.8188 2079.1261 5496.2686 1933.5527 5516.5907 1927.0464 5591.843 2047.4864 5696.4397 2081.2504 5753.0495 2144.6364 5761.7557 2265.299 5718.4751 2326.2469 5657.2887 2281.288 5567.3547 2208.7736 5482.8188 2079.1261 Z" fill="none" stroke="#A9159C" opacity="0.6" stroke-width="1" class="little_neck"/>
<path d="M 5999 1878.5343 5999 1954.9222 5999 2072.4184 5999 2080.6574 5999 2181.587 5999 2203.3902 5803.2196 2216.3357 5777.8821 1812.0476 5784.3474 1810.1851 5999 1786.204 5999 1788.2217 5999 1834.7225 5999 1868.3403 5999 1878.5343 Z" fill="none" stroke="#A9159C" opacity="0.6" stroke-width="1" class="little_neck"/>
<path d="M 5507.8977 1962.0365 5616.3443 1986.3557 5752.5963 2151.0516 5627.0414 2223.3005 5507.8977 1962.0365 Z" fill="none" stroke="#A9159C" opacity="0.6" stroke-width="1" class="little_neck"/>
<path d="M 5566.1407 2111.3545 5541.4666 2054.3143 5524.5221 2030.8749 5542.2524 2007.1041 5532.8721 1961.538 5525.424 1944.0598 5637.0579 2016.0315 5648.567 1999.877 5685.9156 1967.5242 5712.8364 2001.6358 5789.0522 2124.485 5725.0535 2138.0456 5702.8873 2147.3272 5647.7574 2188.954 5603.6747 2215.1142 5573.2268 2239.6203 5533.9396 2167.8752 5535.5604 2168.6765 5520.4068 2125.768 5569.3836 2113.4176 5552.3645 2065.3361 5566.1407 2111.3545 Z" fill="none" stroke="#A9159C" opacity="0.6" stroke-width="1" class="little_neck"/>
<path d="M 5764.1419 2215.7697 5766.3666 2224.6303 5753.3119 2227.5508 5750.2762 2218.1169 5764.1419 2215.7697 Z" fill="none" stroke="#A9159C" opacity="0.6" stroke-width="1" class="little_neck"/>
<path d="M 5517.4669 1910.4655 5676.8015 2010.383 5579.9922 2104.6346 5661.5995 2179.0079 5546.2187 2254.9023 5426.535 2123.5039 5378.1714 2024.1527 5426.7453 1870.202 5498.0537 1911.4429 5517.4669 1910.4655 Z" fill="none" stroke="#A9159C" opacity="0.6" stroke-width="1" class="little_neck"/>
<path d="M 5503.6225 1918.7949 5814.9303 2119.5653 5652.3654 2183.6426 5485.5717 2071.7488 5503.6225 1918.7949 Z" fill="none" stroke="#A9159C" opacity="0.6" stroke-width="1" class="little_neck"/>
<path d="M 5530.6471 2622.6362 5564.8533 2300.9156 5717.0258 2158.5684 5950.0521 2150.4409 5972.7951 2311.5959 5530.6471 2622.6362 Z" fill="none" stroke="#A9159C" opacity="0.6" stroke-width="1" class="little_neck"/>
<path d="M 5724.8979 2309.6414 5713.3647 2318.8916 5694.463 2338.3002 5686.6748 2362.2818 5672.4748 2407.017 5658.6626 2427.7933 5632.7578 2426.9508 5618.794 2397.9659 5613.2062 2385.5428 5596.0062 2356.5685 5569.0758 2321.1739 5552.3421 2292.6602 5567.5352 2269.5809 5571.6234 2244.6924 5523.6347 2122.7646 5476.3338 2074.9995 5406.4268 2042.9572 5445.7517 1889.0284 5526.3715 1951.8859 5617.2624 2044.186 5673.3172 2079.9402 5703.8992 2101.0328 5727.976 2111.5513 5748.3556 2122.5417 5770.5824 2132.6047 5789.1518 2155.5764 5811.4096 2174.8513 5843.8595 2199.6206 5827.2481 2210.7303 5809.7144 2222.764 5785.7061 2234.8183 5761.7265 2256.0855 5758.0911 2276.367 5745.2004 2294.8353 5724.8979 2309.6414 Z" fill="none" stroke="#A9159C" opacity="0.6" stroke-width="1" class="little_neck"/>
<path d="M 5999 2347.9137 5999 2356.8891 5999 2371.2577 5999 2385.379 5632.9845 2501.5956 5628.152 2433.4154 5525.0699 2297.3472 5657.9567 2197.4447 5738.2586 2146.5256 5918.9352 2248.2027 5999 2347.9137 Z" fill="none" stroke="#A9159C" opacity="0.6" stroke-width="1" class="little_neck"/>
<path d="M 5519.9424 2125.0784 5558.7556 2115.7522 5613.1138 2048.3436 5676.0928 2080.3922 5730.7763 2119.8334 5754.1697 2206.358 5755.2755 2263.4768 5682.461 2345.7088 5680.7248 2382.5723 5648.4446 2414.0019 5620.665 2404.8714 5541.792 2322.176 5484.1919 2234.8136 5415.6162 2187.1008 5410.93 2165.0035 5519.9424 2125.0784 Z" fill="none" stroke="#A9159C" opacity="0.6" stroke-width="1" class="little_neck"/>
<path d="M 5639.8319 2016.023 5735.4378 2131.7947 5642.2427 2200.2566 5522.6978 2118.6218 5526.8284 1950.0425 5639.8319 2016.023 Z" fill="none" stroke="#A9159C" opacity="0.6" stroke-width="1" class="little_neck"/>
<path d="M 5557.5065 2006.138 5593.3473 1932.3457 5839.851 2104.7451 5874.8642 2065.9407 5748.5204 1882.1333 5672.7652 1900.7897 5589.649 1932.3568 5836.1879 2115.8115 5658.8476 2186.3866 5557.5065 2006.138 Z" fill="none" stroke="#A9159C" opacity="0.6" stroke-width="1" class="little_neck"/>
<path d="M 5903.5242 2064.0035 5961.3088 2197.3877 5374.4231 2675.6192 5227.5746 2427.1729 5903.5242 2064.0035 Z" fill="none" stroke="#A9159C" opacity="0.6" stroke-width="1" class="little_neck"/>
<path d="M 5424.387 2017.5758 5431.7973 2022.1605 5436.4311 2025.8318 5447.5587 2036.8538 5454.0577 2046.0467 5469.8356 2066.267 5494.8562 2084.6184 5506.9367 2104.8496 5522.7355 2131.5188 5531.126 2154.5252 5540.477 2189.5059 5557.184 2209.725 5568.3315 2226.2756 5574.8413 2238.2335 5558.2342 2252.1028 5540.7126 2269.6602 5518.5496 2281.7028 5513.9598 2293.6941 5500.1124 2302.9482 5489.0263 2307.5872 5467.7683 2313.1767 5443.735 2318.7736 5429.7903 2293.9354 5404.6959 2250.7019 5382.3528 2198.2491 5376.6916 2157.7288 5420.7038 2023.1129 5424.387 2017.5758 Z" fill="none" stroke="#A9159C" opacity="0.6" stroke-width="1" class="little_neck"/>
<path d="M 5623.1139 2022.4989 5521.4573 2122.2686 5842.4445 2388.197 5648.9449 2485.6574 5623.1139 2022.4989 Z" fill="none" stroke="#A9159C" opacity="0.6" stroke-width="1" class="little_neck"/>
<path d="M 5558.7556 2115.7522 5489.285 1916.5338 5570.8223 1975.242 5634.7476 2016.4991 5675.6219 2077.6301 5680.274 2086.8275 5731.2336 2118.2199 5735.6806 2135.4788 5742.4579 2158.4886 5753.7102 2207.2807 5754.2529 2232.6151 5753.3732 2246.8986 5745.5712 2265.8109 5747.9228 2278.2419 5752.4544 2285.3682 5755.1431 2294.6887 5761.2902 2300.7734 5768.1315 2306.9711 5770.6956 2313.4127 5776.76 2329.7485 5808.9835 2426.3992 5792.3663 2437.0501 5731.3978 2464.8897 5717.429 2435.4443 5690.8002 2350.2902 5693.7961 2272.4224 5650.0857 2194.2443 5614.5376 2213.6995 5558.7556 2115.7522 Z" fill="none" stroke="#A9159C" opacity="0.6" stroke-width="1" class="little_neck"/>
<path d="M 5586.1076 1984.8677 5555.5074 1955.4845 5559.2004 1953.6314 5559.0913 1916.7903 5619.0742 1878.8497 5644.9527 1876.0082 5634.1187 1961.6962 5586.1076 1984.8677 Z" fill="none" stroke="#A9159C" opacity="0.6" stroke-width="1" class="little_neck"/>
<path d="M 5634.7336 2011.8936 5735.4552 2137.322 5649.619 2192.8638 5529.5995 1949.1133 5634.7336 2011.8936 Z" fill="none" stroke="#A9159C" opacity="0.6" stroke-width="1" class="little_neck"/>
<path d="M 5897.0757 2071.3942 5900.7685 2069.5396 5955.7535 2195.5639 5800.4302 2211.7382 5528.5377 2534.1631 5480.768 2330.6462 5897.0757 2071.3942 Z" fill="none" stroke="#A9159C" opacity="0.6" stroke-width="1" class="little_neck"/>
<path d="M 5012.4529 1827.0739 5618.4378 2050.6304 5594.2555 2081.1016 5012.4529 1827.0739 Z" fill="none" stroke="#A9159C" opacity="0.6" stroke-width="1" class="little_neck"/>
<path d="M 5759.8942 2261.6195 5688.9302 2343.8459 5530.5268 1950.0317 5634.3035 2022.4877 5734.4812 2121.6642 5759.8942 2261.6195 Z" fill="none" stroke="#A9159C" opacity="0.6" stroke-width="1" class="little_neck"/>
<path d="M 5693.9977 2337.3802 5593.3322 2081.565 5615.8935 2050.1775 5838.0739 2198.0272 5693.9977 2337.3802 Z" fill="none" stroke="#A9159C" opacity="0.6" stroke-width="1" class="little_neck"/>
<path d="M 5402.7126 2037.4408 5442.2495 1958.1152 5562.8538 1938.4233 5653.6441 1997.0982 5703.4196 2095.5071 5598.2904 2193.0193 5517.9313 2228.2665 5402.7126 2037.4408 Z" fill="none" stroke="#A9159C" opacity="0.6" stroke-width="1" class="little_neck"/>
<path d="M 5572.986 2236.3963 5471.6956 2069.9464 5662.875 1992.0039 5789.9822 2126.0941 5572.986 2236.3963 Z" fill="none" stroke="#A9159C" opacity="0.6" stroke-width="1" class="little_neck"/>
<path d="M 5649.5904 2410.5428 5626.3341 2405.8909 5623.3043 2398.1826 5623.1573 2387.8164 5628.5831 2384.9204 5630.7514 2375.4687 5639.298 2372.2176 5651.0898 2371.4906 5663.0157 2376.7524 5670.126 2395.2753 5649.5904 2410.5428 Z" fill="none" stroke="#A9159C" opacity="0.6" stroke-width="1" class="little_neck"/>
<path d="M 5738.2441 2141.9194 5910.9342 2067.6635 5973.7044 2306.9858 5708.7571 2472.7937 5517.6623 2294.6047 5738.2441 2141.9194 Z" fill="none" stroke="#A9159C" opacity="0.6" stroke-width="1" class="little_neck"/>
<path d="M 5566.1407 2111.3545 5527.0723 2033.4005 5545.4914 2008.0157 5490.2361 1925.7413 5565.0332 1971.8051 5562.1223 2003.5913 5620.4822 2038.6494 5615.6644 2050.8691 5637.879 2057.9407 5656.6509 2073.0825 5674.2419 2079.9373 5730.5314 2115.4584 5756.0661 2221.0929 5752.9319 2253.5797 5748.6187 2278.9307 5716.7894 2304.8295 5673.0876 2230.5653 5650.3014 2189.1766 5625.3685 2201.6899 5596.3025 2146.962 5574.6749 2104.6504 5566.1407 2111.3545 Z" fill="none" stroke="#A9159C" opacity="0.6" stroke-width="1" class="little_neck"/>
<path d="M 5499.4105 2060.6548 5567.6504 1996.8969 5586.069 1971.9728 5647.1505 1990.2098 5703.8089 2072.0157 5751.9673 2094.8941 5780.7344 2126.1237 5812.3998 2195.1162 5762.6748 2263.4533 5720.2587 2305.049 5678.8378 2370.5991 5653.0163 2396.4796 5638.2157 2396.5248 5615.0285 2376.3226 5540.7749 2290.8515 5476.3907 2094.8047 5499.4105 2060.6548 Z" fill="none" stroke="#A9159C" opacity="0.6" stroke-width="1" class="little_neck"/>
<path d="M 5535.6121 1950.0167 5642.6241 2022.0018 5750.6865 2128.5223 5651.9043 2184.1046 5535.6121 1950.0167 Z" fill="none" stroke="#A9159C" opacity="0.6" stroke-width="1" class="little_neck"/>
<path d="M 5717.916 2147.5107 5668.2376 2232.4229 5572.2009 2283.3876 5427.9457 2295.7834 5375.9961 2240.647 5373.8968 2150.3666 5436.5354 2062.6772 5480.691 1982.4137 5625.1098 2040.0171 5685.2033 2036.1485 5763.1081 2108.6768 5711.4424 2147.5309 5717.916 2147.5107 Z" fill="none" stroke="#A9159C" opacity="0.6" stroke-width="1" class="little_neck"/>
<path d="M 5511.882 1897.5877 5643.5109 2009.564 5738.2673 2149.2893 5877.7706 2386.5506 5707.8464 2477.4044 5566.1073 2100.0699 5511.882 1897.5877 Z" fill="none" stroke="#A9159C" opacity="0.6" stroke-width="1" class="little_neck"/>
<path d="M 5906.2984 2063.9942 5924.916 2100.7794 5939.839 2138.4992 5954.7353 2167.929 5964.0396 2184.4804 5943.7336 2196.5257 5913.2537 2208.6047 5879.9407 2203.1875 5846.637 2200.5329 5808.739 2207.1049 5778.2777 2225.6288 5756.2208 2269.9233 5729.4995 2302.2558 5699.0707 2332.7573 5676.1508 2399.173 5645.7481 2439.8125 5606.0444 2464.8144 5561.7594 2505.4956 5535.8796 2513.8662 5523.7395 2475.1955 5445.1333 2485.5591 5423.7516 2448.7575 5511.6004 2436.5262 5488.3299 2386.8327 5505.8119 2354.5311 5492.7821 2326.9259 5498.2759 2307.5605 5521.3459 2289.0657 5552.6957 2255.8045 5591.4561 2227.128 5639.4598 2197.5012 5672.6889 2176.21 5699.4458 2155.8595 5722.5169 2140.1263 5754.867 2134.497 5801.0706 2123.2948 5828.745 2102.0176 5856.4091 2077.9765 5880.4216 2068.6858 5906.2984 2063.9942 Z" fill="none" stroke="#A9159C" opacity="0.6" stroke-width="1" class="little_neck"/>
<path d="M 5654.215 2183.6369 5528.6992 1957.4055 5633.3872 2025.2539 5743.7667 2133.6109 5654.215 2183.6369 Z" fill="none" stroke="#A9159C" opacity="0.6" stroke-width="1" class="little_neck"/>
<path d="M 5736.8063 2272.7487 5713.8042 2311.519 5500.8194 1908.6719 5659.1821 1993.8574 5797.6822 2220.0388 5736.8063 2272.7487 Z" fill="none" stroke="#A9159C" opacity="0.6" stroke-width="1" class="little_neck"/>
<path d="M 5649.0321 2000.7967 5784.4954 2145.4576 5958.4738 2316.2515 5823.2893 2416.2163 5589.1819 2085.2621 5649.0195 1996.6518 5649.0321 2000.7967 Z" fill="none" stroke="#A9159C" opacity="0.6" stroke-width="1" class="little_neck"/>
<path d="M 5427.5221 2145.6106 5414.5414 2133.6711 5418.2146 2124.4486 5418.1784 2111.5517 5571.5407 2061.3643 5523.235 1985.9747 5545.315 1948.1461 5710.2992 2077.5225 5725.2046 2112.4812 5738.2267 2136.392 5764.1148 2134.4677 5852.1921 2202.3573 5790.2685 2215.456 5758.0648 2268.0748 5702.7534 2327.2174 5679.8709 2405.612 5624.421 2423.29 5427.5221 2145.6106 Z" fill="none" stroke="#A9159C" opacity="0.6" stroke-width="1" class="little_neck"/>
<path d="M 5419.2093 2149.319 5664.9649 2070.2935 5820.7323 2197.8532 5665.9839 2401.9688 5419.2093 2149.319 Z" fill="none" stroke="#A9159C" opacity="0.6" stroke-width="1" class="little_neck"/>
<path d="M 5815.1182 1891.5908 5901.2017 2060.7871 5651.917 2188.2504 5593.3363 2082.9467 5815.1182 1891.5908 Z" fill="none" stroke="#A9159C" opacity="0.6" stroke-width="1" class="little_neck"/>
<path d="M 5575.2623 1991.3477 5582.8989 1994.0882 5594.2451 2000.502 5609.7601 2009.4361 5619.0192 2013.5531 5623.8863 2017.6834 5604.2107 2008.9923 5586.6081 1997.6464 5517.6093 1959.28 5642.8385 2016.4744 5649.0849 2018.0673 5648.3907 2017.8392 5575.2623 1991.3477 Z" fill="none" stroke="#A9159C" opacity="0.6" stroke-width="1" class="little_neck"/>
<path d="M 5492.5329 1920.6691 5492.517 1915.143 5577.9835 2051.2124 5613.1194 2050.1859 5643.6626 2059.3048 5673.3129 2078.5584 5730.7734 2118.9122 5752.2471 2183.3318 5753.3673 2245.0559 5741.4628 2282.8691 5691.4681 2267.3622 5649.6077 2189.1787 5575.2396 2061.3533 5492.5329 1920.6691 Z" fill="none" stroke="#A9159C" opacity="0.6" stroke-width="1" class="little_neck"/>
<path d="M 5567.0566 2108.3579 5524.2808 2027.4214 5506.3802 1913.2608 5522.087 1909.531 5854.0599 2207.879 5804.1711 2224.6245 5774.7221 2270.7859 5705.5398 2330.8944 5692.3845 2264.5953 5657.0206 2193.7625 5567.0566 2108.3579 Z" fill="none" stroke="#A9159C" opacity="0.6" stroke-width="1" class="little_neck"/>
<path d="M 5741.4946 2146.2851 5758.8458 2222.6964 5753.6358 2256.8022 5752.0879 2279.1501 5718.648 2307.5879 5694.2246 2335.9974 5692.3995 2269.4324 5668.676 2224.5903 5658.8808 2197.2116 5637.9758 2165.7217 5619.1494 2133.0747 5590.0832 2077.4294 5580.0538 2047.752 5564.5063 2027.9938 5531.5 1966.6079 5494.3634 1914.2166 5741.4946 2146.2851 Z" fill="none" stroke="#A9159C" opacity="0.6" stroke-width="1" class="little_neck"/>
<path d="M 5999 1954.9222 5999 2072.4184 5999 2080.6574 5999 2181.587 5999 2203.3902 5999 2230.3293 5999 2237.7895 5999 2255.0134 5999 2270.2192 5999 2295.4929 5999 2295.6235 5999 2298.4338 5999 2298.6703 5999 2316.0631 5999 2323.2836 5999 2327.8605 5999 2329.5211 5717.9968 2469.0787 5651.2705 2430.5805 5414.6215 2162.2294 5403.529 2164.103 5650.8603 1993.8829 5939.67 1813.3591 5999 1954.9222 Z" fill="none" stroke="#A9159C" opacity="0.6" stroke-width="1" class="little_neck"/>
<path d="M 5733.3478 2055.3424 5991.6145 2134.6387 5898.2986 2439.9298 5708.7629 2474.6368 5704.1316 2472.8081 5733.3478 2055.3424 Z" fill="none" stroke="#A9159C" opacity="0.6" stroke-width="1" class="little_neck"/>
<path d="M 5527.7086 2013.8248 5516.7108 1968.263 5530.7519 1947.9586 5568.7689 1984.3437 5633.8464 2024.2162 5662.0398 2058.788 5684.9584 2069.0804 5690.7754 2081.1528 5715.5544 2094.6632 5738.1654 2116.9314 5759.023 2132.7565 5799.6992 2164.1793 5839.8076 2197.9064 5753.542 2263.7126 5750.2431 2280.7683 5695.1564 2338.1829 5691.4579 2338.655 5670.2427 2245.3154 5654.7197 2197.4547 5625.599 2201.4588 5575.944 2103.8406 5533.6347 2024.5155 5528.4061 2015.2045 5527.7086 2013.8248 Z" fill="none" stroke="#A9159C" opacity="0.6" stroke-width="1" class="little_neck"/>
<path d="M 5520.3293 1940.851 5691.7975 2075.2772 5850.3304 2198.6782 5783.7518 2202.118 5694.894 2328.1632 5695.626 2265.9672 5653.2944 2185.0217 5624.6692 2199.8494 5575.3548 2100.0424 5562.9048 2111.5944 5521.9758 2029.7309 5520.3293 1940.851 Z" fill="none" stroke="#A9159C" opacity="0.6" stroke-width="1" class="little_neck"/>
<path d="M 5638.0835 2049.1891 5724.3607 2138.2781 5572.0201 2222.5794 5512.5522 2127.8636 5638.0835 2049.1891 Z" fill="none" stroke="#A9159C" opacity="0.6" stroke-width="1" class="little_neck"/>
<path d="M 5524.7499 2029.7228 5525.2149 2030.6426 5526.8317 2030.1773 5552.6732 2013.2909 5746.3302 2140.0514 5843.8595 2199.6206 5631.6789 2376.2722 5351.5855 2108.0517 5545.5891 2041.1758 5536.2989 2026.465 5524.7499 2029.7228 Z" fill="none" stroke="#A9159C" opacity="0.6" stroke-width="1" class="little_neck"/>
<path d="M 5999 1878.5343 5999 1954.9222 5999 2072.4184 5999 2080.6574 5999 2181.587 5999 2203.3902 5999 2230.3293 5999 2237.7895 5931.2493 2334.7716 5600.2531 2384.6603 5409.8658 2115.2599 5398.2213 1919.0949 5452.6399 1872.8916 5502.5937 1882.8788 5899.618 1723.247 5999 1878.5343 Z" fill="none" stroke="#A9159C" opacity="0.6" stroke-width="1" class="little_neck"/>
<path d="M 5648.1025 1999.1876 5683.8839 2058.0298 5678.1997 2088.9066 5632.5231 2121.2885 5593.2611 2134.995 5587.984 2071.2178 5576.2926 2026.8073 5562.9958 1986.3182 5555.0111 1943.9728 5646.6537 1978.9281 5648.1025 1999.1876 Z" fill="none" stroke="#A9159C" opacity="0.6" stroke-width="1" class="little_neck"/>
<path d="M 5699.7218 2324.681 5500.1312 1932.4952 5663.8874 1966.0853 5829.6435 2187.0803 5699.7218 2324.681 Z" fill="none" stroke="#A9159C" opacity="0.6" stroke-width="1" class="little_neck"/>
<path d="M 5507.7838 2078.1327 5519.308 1907.6971 5549.9679 1958.264 5656.6339 2067.5556 5734.4841 2122.5854 5764.4016 2224.7517 5655.4191 2274.8441 5584.0351 2219.7796 5507.7838 2078.1327 Z" fill="none" stroke="#A9159C" opacity="0.6" stroke-width="1" class="little_neck"/>
<path d="M 5174.1026 2136.1578 5273.8177 2075.0989 5321.9783 2102.6052 5444.3488 2209.1307 5540.821 2306.515 5604.3217 2507.2118 5315.7599 2539.3699 5113.8276 2442.207 5174.1026 2136.1578 Z" fill="none" stroke="#A9159C" opacity="0.6" stroke-width="1" class="little_neck"/>
<path d="M 5529.5968 1948.1923 5594.4431 1989.4482 5637.9741 2013.2654 5661.1275 2025.1691 5686.2591 2078.5184 5728.9152 2116.1544 5740.1111 2147.441 5697.602 2157.7077 5654.2432 2192.8497 5608.704 2119.2879 5577.978 2049.3701 5548.2654 2008.0075 5531.5405 1980.4239 5529.5968 1948.1923 Z" fill="none" stroke="#A9159C" opacity="0.6" stroke-width="1" class="little_neck"/>
<path d="M 5677.7525 2243.6799 5483.2823 2240.1138 5483.7057 2065.9969 5573.3445 1968.3264 5687.1717 2074.6006 5677.9865 2244.6005 5677.7525 2243.6799 Z" fill="none" stroke="#A9159C" opacity="0.6" stroke-width="1" class="little_neck"/>
<path d="M 5411.3688 2073.4354 5404.1558 2022.1303 5404.085 1996.8001 5405.4427 1937.4266 5415.3928 1914.0659 5428.712 1883.1749 5462.9106 1879.8543 5476.3191 1893.4893 5487.9185 1908.192 5497.6389 1930.8376 5514.327 1946.4468 5524.1924 1957.484 5532.4906 1976.9403 5550.5521 1987.4796 5561.2018 1992.9746 5589.4793 2018.2208 5606.3774 2031.7562 5631.8331 2036.7464 5642.9406 2040.3972 5658.2389 2053.707 5677.6918 2064.7011 5688.7321 2087.9837 5696.6009 2090.7229 5709.5674 2097.1308 5731.8192 2115.4852 5745.0477 2133.7943 5755.795 2169.2283 5762.6096 2196.3006 5768.2231 2216.5513 5776.1185 2253.8907 5761.7858 2287.1694 5742.877 2303.8142 5719.3542 2324.159 5702.7707 2345.4035 5688.8115 2354.9501 5678.2323 2373.8726 5660.2482 2391.4358 5643.5947 2390.5653 5624.1341 2379.106 5613.0295 2381.0668 5598.6391 2363.6023 5587.1284 2352.7029 5569.507 2337.0911 5550.9529 2318.7177 5535.1859 2309.7338 5529.5768 2289.4797 5536.9411 2277.4803 5550.3076 2262.2385 5553.9634 2245.1906 5546.0509 2233.0832 5530.7229 2210.0954 5518.6379 2188.941 5507.6934 2169.5386 5485.915 2153.9403 5467.9576 2136.3773 5444.7739 2113.8735 5429.9309 2097.3339 5418.3327 2083.5488 5411.3688 2073.4354 Z" fill="none" stroke="#A9159C" opacity="0.6" stroke-width="1" class="little_neck"/>
<path d="M 5447.6424 2066.3304 5490.6386 1905.0173 5480.4366 1893.9947 5452.6897 1890.3901 5447.1451 1891.3269 5435.2146 1922.675 5410.6228 2055.3809 5510.9279 1887.4595 5624.8753 1962.6453 5665.6235 1983.7056 5706.4653 2034.2402 5739.0238 2095.8562 5740.9429 2117.959 5718.9042 2167.7751 5605.4484 2266.7035 5559.0146 2203.2705 5447.6424 2066.3304 Z" fill="none" stroke="#A9159C" opacity="0.6" stroke-width="1" class="little_neck"/>
<path d="M 5536.6328 1982.7116 5561.92 2091.331 5466.6426 2081.4755 5464.3295 1919.3686 5644.8937 2008.1782 5594.2583 2082.0228 5536.6328 1982.7116 Z" fill="none" stroke="#A9159C" opacity="0.6" stroke-width="1" class="little_neck"/></svg>