<?xml version="1.0"?><svg xmlns="http://www.w3.org/2000/svg" version="1.2" baseProfile="tiny" width="6000" height="5918" viewBox="0 0 6000 5918" stroke-linecap="round" stroke-linejoin="round"><path d="M 3836.8596 1322.7661 3880.0988 1163.4938 3912.3937 1131.2457 3941.0304 1130.2902 3975.1814 1107.241 4033.4214 1138.4528 4018.6699 1160.559 3993.8032 1219.4914 3987.4135 1279.3235 3979.1419 1313.3894 3959.7651 1334.5843 3940.3669 1339.2109 3854.4345 1339.314 3852.5759 1330.1117 3836.8596 1322.7661 Z" fill="none" stroke="#FBC20F" opacity="0.6" stroke-width="1" class="longwood"/>
<path d="M 3875.7884 1425.8156 3820.3266 1411.1508 3788.8402 1348.5921 3793.4141 1306.2468 3808.1539 1266.6533 3879.2771 1250.0053 3954.2246 1337.3526 3875.7884 1425.8156 Z" fill="none" stroke="#FBC20F" opacity="0.6" stroke-width="1" class="longwood"/>
<path d="M 3797.2822 1463.6475 3834.0372 1318.8411 3860.8595 1341.8214 3931.0806 1338.9759 3944.9602 1354.6064 3858.2133 1450.4444 3806.5087 1491.929 3797.2822 1463.6475 Z" fill="none" stroke="#FBC20F" opacity="0.6" stroke-width="1" class="longwood"/>
<path d="M 3824.6571 1358.6776 3853.0493 1340.006 3951.2248 1339.8876 3945.2233 1343.577 3877.1846 1434.329 3826.084 1395.0354 3814.5292 1391.3663 3824.6571 1358.6776 Z" fill="none" stroke="#FBC20F" opacity="0.6" stroke-width="1" class="longwood"/>
<path d="M 3987.3742 1248.951 3977.301 1318.9144 3808.4012 1490.3323 3786.1847 1456.295 3654.9164 1410.4008 3987.3742 1248.951 Z" fill="none" stroke="#FBC20F" opacity="0.6" stroke-width="1" class="longwood"/>
<path d="M 3732.7199 1529.8849 3729.276 1466.449 3707.5785 1433.5282 3704.1177 1438.1344 3693.5373 1462.6265 3677.8568 1493.2513 3695.005 1513.6636 3748.7318 1441.4993 3753.8156 1442.6447 3770.4519 1444.9285 3786.8854 1454.8152 3793.9197 1460.223 3736.4645 1533.0584 3734.6801 1531.8717 3732.7199 1529.8849 Z" fill="none" stroke="#FBC20F" opacity="0.6" stroke-width="1" class="longwood"/>
<path d="M 3793.8165 1463.4212 3852.2772 1271.4355 3858.9675 1264.2948 3873.0626 1268.6502 3876.7589 1269.106 3886.6906 1268.6341 3898.0044 1264.939 3918.3222 1257.7815 3951.3525 1257.7405 3970.9867 1258.4059 3990.373 1245.956 3988.5571 1270.5783 3985.7966 1279.3256 3980.752 1308.0949 3977.5293 1316.8431 3948.2229 1340.8119 3875.1043 1433.4109 3808.1788 1498.1577 3804.6874 1474.6863 3793.8165 1463.4212 Z" fill="none" stroke="#FBC20F" opacity="0.6" stroke-width="1" class="longwood"/>
<path d="M 3796.3586 1464.1088 3833.6298 1326.4516 3860.4325 1332.4037 3988.7565 1246.1882 3977.298 1316.6133 3857.3349 1450.2317 3805.1763 1499.0816 3796.3586 1464.1088 Z" fill="none" stroke="#FBC20F" opacity="0.6" stroke-width="1" class="longwood"/>
<path d="M 3673.4032 1415.9063 3715.742 1248.3435 3942.2195 1342.8904 3800.9807 1465.4846 3673.4032 1415.9063 Z" fill="none" stroke="#FBC20F" opacity="0.6" stroke-width="1" class="longwood"/></svg>