<?xml version="1.0"?><svg xmlns="http://www.w3.org/2000/svg" version="1.2" baseProfile="tiny" width="6000" height="5918" viewBox="0 0 6000 5918" stroke-linecap="round" stroke-linejoin="round"><path d="M 3143.9434 1510.1657 3174.4259 1475.1702 3170.7452 1511.9958 3149.5005 1539.6237 3131.0132 1531.3452 3143.9434 1510.1657 Z" fill="none" stroke="#FBC20F" opacity="0.6" stroke-width="1" class="manhattan_valley"/>
<path d="M 3156.0556 1746.7888 3009.0586 1681.4604 3089.4176 1511.1066 3250.2539 1569.9591 3156.0556 1746.7888 Z" fill="none" stroke="#FBC20F" opacity="0.6" stroke-width="1" class="manhattan_valley"/>
<path d="M 3154.1446 1595.7828 3215.1617 1629.8222 3150.5088 1745.8703 3089.4869 1712.7433 3154.1446 1595.7828 Z" fill="none" stroke="#FBC20F" opacity="0.6" stroke-width="1" class="manhattan_valley"/>
<path d="M 3014.1425 1681.4591 3106.9742 1503.7355 3247.0205 1572.7228 3146.3535 1756.9222 3014.1425 1681.4591 Z" fill="none" stroke="#FBC20F" opacity="0.6" stroke-width="1" class="manhattan_valley"/>
<path d="M 3166.3288 1721.3465 3104.9601 1684.9988 3154.1445 1595.5526 3214.9307 1630.0525 3166.3288 1721.3465 Z" fill="none" stroke="#FBC20F" opacity="0.6" stroke-width="1" class="manhattan_valley"/>
<path d="M 3145.1974 1755.5414 3086.2552 1723.3339 3155.531 1595.7822 3214.4686 1630.0527 3145.1974 1755.5414 Z" fill="none" stroke="#FBC20F" opacity="0.6" stroke-width="1" class="manhattan_valley"/>
<path d="M 3205.924 1640.8754 3176.1399 1697.5163 3152.3566 1743.3372 3079.7785 1705.15 3108.1847 1655.8782 3117.4179 1629.1732 3116.0258 1613.9818 3126.4123 1583.5946 3157.6117 1598.5435 3196.4405 1620.3935 3215.1625 1631.4335 3205.924 1640.8754 Z" fill="none" stroke="#FBC20F" opacity="0.6" stroke-width="1" class="manhattan_valley"/>
<path d="M 3214.7 1630.7432 3144.5048 1757.3833 3070.0751 1712.7498 3107.9477 1639.535 3112.092 1598.5613 3121.7889 1577.8421 3123.1761 1580.1433 3214.7 1630.7432 Z" fill="none" stroke="#FBC20F" opacity="0.6" stroke-width="1" class="manhattan_valley"/>
<path d="M 3214.2391 1633.5056 3152.3572 1744.9487 3072.8464 1707.224 3108.8691 1631.7084 3108.8594 1605.0074 3121.7915 1584.7473 3125.4871 1581.0631 3214.2391 1633.5056 Z" fill="none" stroke="#FBC20F" opacity="0.6" stroke-width="1" class="manhattan_valley"/>
<path d="M 3213.3135 1630.7438 3144.0421 1756.0022 3069.151 1713.6709 3110.7194 1636.3114 3111.6319 1604.0857 3124.5632 1581.9841 3213.3135 1630.7438 Z" fill="none" stroke="#FBC20F" opacity="0.6" stroke-width="1" class="manhattan_valley"/>
<path d="M 3039.1036 1695.264 3116.2481 1590.2735 3238.2454 1582.8547 3145.8892 1751.8577 3039.1036 1695.264 Z" fill="none" stroke="#FBC20F" opacity="0.6" stroke-width="1" class="manhattan_valley"/>
<path d="M 3374.859 1849.5831 3369.7617 1830.0164 3359.2418 1823.922 3334.6207 1812.5408 3331.4988 1809.4346 3333.5784 1808.7427 3334.2703 1806.3249 3262.2614 1775.1705 3291.6968 1719.9037 3360.818 1757.8472 3410.5246 1786.1313 3403.2869 1848.6433 3380.9756 1836.9162 3331.731 1811.2763 3261.1065 1776.3222 3258.3358 1781.3884 3235.1285 1819.8478 3270.0381 1839.7448 3305.2953 1858.8349 3330.6122 1872.7496 3363.4421 1887.2348 3389.7713 1856.5955 3374.859 1849.5831 Z" fill="none" stroke="#FBC20F" opacity="0.6" stroke-width="1" class="manhattan_valley"/>
<path d="M 3124.331 1578.992 3211.9262 1628.903 3213.5458 1633.2757 3150.9713 1746.5607 3074.0011 1704.9217 3099.8673 1660.0246 3107.9487 1642.2972 3108.6383 1632.399 3113.0157 1597.1799 3124.331 1578.992 Z" fill="none" stroke="#FBC20F" opacity="0.6" stroke-width="1" class="manhattan_valley"/>
<path d="M 3214.5057 1630.3474 3192.0708 1665.8711 3111.5002 1623.1538 3112.8132 1599.4818 3124.6912 1578.4302 3214.5057 1630.3474 Z" fill="none" stroke="#FBC20F" opacity="0.6" stroke-width="1" class="manhattan_valley"/>
<path d="M 3217.0094 1627.9799 3151.4336 1746.7907 3091.335 1710.9011 3155.0688 1595.7824 3217.0094 1627.9799 Z" fill="none" stroke="#FBC20F" opacity="0.6" stroke-width="1" class="manhattan_valley"/>
<path d="M 3216.5486 1630.7423 3151.4328 1744.9491 3090.4112 1712.743 3155.0692 1596.7031 3186.0396 1614.1833 3216.5486 1630.7423 Z" fill="none" stroke="#FBC20F" opacity="0.6" stroke-width="1" class="manhattan_valley"/>
<path d="M 3124.5625 1580.1428 3215.1626 1631.6637 3149.5844 1745.8707 3076.0808 1704.4606 3124.5625 1580.1428 Z" fill="none" stroke="#FBC20F" opacity="0.6" stroke-width="1" class="manhattan_valley"/>
<path d="M 3104.686 1565.4193 3215.1632 1633.0448 3164.8267 1721.4622 3049.7212 1653.8259 3104.686 1565.4193 Z" fill="none" stroke="#FBC20F" opacity="0.6" stroke-width="1" class="manhattan_valley"/>
<path d="M 3216.9454 1629.559 3144.7031 1756.1999 3089.5559 1725.3079 3084.2768 1722.6807 3071.0653 1716.1059 3106.6952 1639.471 3114.9265 1590.4719 3122.5153 1580.277 3216.9454 1629.559 Z" fill="none" stroke="#FBC20F" opacity="0.6" stroke-width="1" class="manhattan_valley"/>
<path d="M 3215.1621 1630.743 3151.4336 1746.7907 3120.9227 1732.0693 3184.6528 1613.2632 3215.1621 1630.743 Z" fill="none" stroke="#FBC20F" opacity="0.6" stroke-width="1" class="manhattan_valley"/>
<path d="M 3154.2068 1746.7896 3033.0919 1683.2955 3100.528 1568.1828 3217.9332 1627.0587 3154.2068 1746.7896 Z" fill="none" stroke="#FBC20F" opacity="0.6" stroke-width="1" class="manhattan_valley"/>
<path d="M 3144.5045 1756.4625 3068.2264 1712.9806 3125.2565 1582.4442 3214.9321 1633.0449 3144.5045 1756.4625 Z" fill="none" stroke="#FBC20F" opacity="0.6" stroke-width="1" class="manhattan_valley"/>
<path d="M 3164.7962 1649.4107 3155.0989 1668.5205 3124.5894 1651.0381 3081.6327 1721.4938 3033.3266 1695.7261 3087.1398 1606.6263 3164.7962 1649.4107 Z" fill="none" stroke="#FBC20F" opacity="0.6" stroke-width="1" class="manhattan_valley"/>
<path d="M 3034.0192 1693.4239 3113.474 1586.5917 3204.0728 1635.3519 3057.1911 1897.8554 2944.3863 1847.2303 3034.0192 1693.4239 Z" fill="none" stroke="#FBC20F" opacity="0.6" stroke-width="1" class="manhattan_valley"/>
<path d="M 3217.0116 1632.5835 3148.6604 1746.7919 3074.6939 1703.5402 3112.5666 1632.6278 3109.7864 1612.3728 3115.3255 1594.8773 3126.4109 1580.1421 3217.0116 1632.5835 Z" fill="none" stroke="#FBC20F" opacity="0.6" stroke-width="1" class="manhattan_valley"/>
<path d="M 3153.6536 1525.5822 3245.6357 1575.7157 3161.5961 1732.7437 3151.4334 1746.3303 3019.4593 1688.5938 3022.0001 1684.2193 3112.5175 1499.1305 3153.6536 1525.5822 Z" fill="none" stroke="#FBC20F" opacity="0.6" stroke-width="1" class="manhattan_valley"/>
<path d="M 3212.8518 1631.6648 3152.3578 1746.3299 3148.6595 1744.4898 3145.8866 1745.4117 3143.1134 1745.4128 3069.1497 1709.5273 3094.0927 1666.7022 3105.6381 1642.7584 3113.9483 1619.737 3109.7822 1600.8639 3119.9409 1579.2238 3212.8518 1631.6648 Z" fill="none" stroke="#FBC20F" opacity="0.6" stroke-width="1" class="manhattan_valley"/>
<path d="M 3217.0111 1631.6628 3155.1316 1747.7101 3087.6384 1713.6648 3150.4476 1595.7843 3217.0111 1631.6628 Z" fill="none" stroke="#FBC20F" opacity="0.6" stroke-width="1" class="manhattan_valley"/>
<path d="M 3157.4177 1598.7553 3215.7358 1632.0133 3149.94 1745.1983 3120.0659 1727.5023 3090.554 1711.219 3157.3471 1595.7493 3157.4177 1598.7553 Z" fill="none" stroke="#FBC20F" opacity="0.6" stroke-width="1" class="manhattan_valley"/>
<path d="M 3216.086 1629.8218 3166.6751 1720.5406 3105.1914 1685.5742 3156.9174 1595.7817 3216.086 1629.8218 Z" fill="none" stroke="#FBC20F" opacity="0.6" stroke-width="1" class="manhattan_valley"/>
<path d="M 3214.237 1628.9019 3150.5092 1746.7911 3073.7702 1705.3821 3110.7191 1635.3906 3111.6312 1602.2443 3127.3352 1580.1417 3214.237 1628.9019 Z" fill="none" stroke="#FBC20F" opacity="0.6" stroke-width="1" class="manhattan_valley"/>
<path d="M 3152.3569 1744.0278 3116.2998 1729.3085 3186.4997 1609.5795 3217.0085 1626.1384 3162.5148 1719.1612 3152.3569 1744.0278 Z" fill="none" stroke="#FBC20F" opacity="0.6" stroke-width="1" class="manhattan_valley"/>
<path d="M 3212.3906 1633.5065 3150.0461 1744.4892 3076.5436 1706.302 3124.0995 1577.8412 3212.3906 1633.5065 Z" fill="none" stroke="#FBC20F" opacity="0.6" stroke-width="1" class="manhattan_valley"/>
<path d="M 3156.3355 1597.7634 3185.2754 1612.5624 3233.8363 1484.0482 3280.8627 1512.4424 3215.8247 1629.7619 3149.565 1747.4922 3090.8738 1713.8839 3156.3355 1597.7634 Z" fill="none" stroke="#FBC20F" opacity="0.6" stroke-width="1" class="manhattan_valley"/>
<path d="M 3121.789 1578.3025 3216.0863 1630.5123 3146.122 1756.0014 3068.4578 1713.6711 3103.5616 1651.5063 3110.7151 1624.572 3111.8621 1601.7839 3121.789 1578.3025 Z" fill="none" stroke="#FBC20F" opacity="0.6" stroke-width="1" class="manhattan_valley"/>
<path d="M 3123.1762 1580.3735 3155.5309 1595.5521 3086.0236 1721.9527 3034.9437 1693.884 3048.1117 1680.5287 3109.0779 1570.4814 3123.1762 1580.3735 Z" fill="none" stroke="#FBC20F" opacity="0.6" stroke-width="1" class="manhattan_valley"/>
<path d="M 3104.2292 1580.1503 3209.622 1642.7152 3140.3506 1771.6584 3010.9135 1705.4006 3087.5888 1568.1873 3104.2292 1580.1503 Z" fill="none" stroke="#FBC20F" opacity="0.6" stroke-width="1" class="manhattan_valley"/>
<path d="M 3215.1621 1630.743 3166.6752 1720.7708 3134.777 1702.5978 3185.5775 1614.1835 3215.1621 1630.743 Z" fill="none" stroke="#FBC20F" opacity="0.6" stroke-width="1" class="manhattan_valley"/>
<path d="M 3120.4598 1730.2278 3185.3459 1613.0327 3216.7799 1631.2026 3151.2021 1745.87 3120.4598 1730.2278 Z" fill="none" stroke="#FBC20F" opacity="0.6" stroke-width="1" class="manhattan_valley"/>
<path d="M 3214.6998 1630.2828 3144.9667 1756.4623 3083.9439 1722.4138 3154.6073 1597.1637 3214.6998 1630.2828 Z" fill="none" stroke="#FBC20F" opacity="0.6" stroke-width="1" class="manhattan_valley"/>
<path d="M 3219.7818 1627.0578 3151.4381 1757.841 3027.5495 1696.1881 3091.2847 1565.424 3219.7818 1627.0578 Z" fill="none" stroke="#FBC20F" opacity="0.6" stroke-width="1" class="manhattan_valley"/>
<path d="M 3077.9283 1700.7767 3124.0991 1576.9206 3211.4634 1627.5221 3154.2053 1743.1062 3077.9283 1700.7767 Z" fill="none" stroke="#FBC20F" opacity="0.6" stroke-width="1" class="manhattan_valley"/>
<path d="M 3142.6508 1744.4922 3015.9908 1680.0774 3078.8124 1579.6987 3206.3818 1631.6678 3142.6508 1744.4922 Z" fill="none" stroke="#FBC20F" opacity="0.6" stroke-width="1" class="manhattan_valley"/>
<path d="M 3106.537 1572.3237 3212.8518 1631.6648 3137.5744 1764.2926 3132.0351 1782.7122 3019.6999 1723.8146 3021.0835 1712.7644 3106.537 1572.3237 Z" fill="none" stroke="#FBC20F" opacity="0.6" stroke-width="1" class="manhattan_valley"/>
<path d="M 3419.2725 1403.2294 3561.159 1453.2898 3551.9709 1516.8184 3419.2725 1403.2294 Z" fill="none" stroke="#FBC20F" opacity="0.6" stroke-width="1" class="manhattan_valley"/>
<path d="M 3149.5852 1747.7123 3073.7688 1701.2385 3032.7788 1680.7459 3090.3577 1557.1383 3209.1551 1632.5873 3149.5852 1747.7123 Z" fill="none" stroke="#FBC20F" opacity="0.6" stroke-width="1" class="manhattan_valley"/>
<path d="M 3210.5407 1630.7451 3144.0354 1739.427 3033.0943 1691.5826 3103.303 1574.6265 3210.5407 1630.7451 Z" fill="none" stroke="#FBC20F" opacity="0.6" stroke-width="1" class="manhattan_valley"/>
<path d="M 3304.7551 1520.2143 3136.2942 1729.3092 3047.5408 1687.9035 3204.5732 1459.5151 3304.7551 1520.2143 Z" fill="none" stroke="#FBC20F" opacity="0.6" stroke-width="1" class="manhattan_valley"/>
<path d="M 3133.8775 1766.1357 3017.3823 1698.9533 3115.3119 1558.0501 3225.3271 1626.1344 3133.8775 1766.1357 Z" fill="none" stroke="#FBC20F" opacity="0.6" stroke-width="1" class="manhattan_valley"/>
<path d="M 3146.122 1756.0014 3011.3696 1681.9202 3078.5727 1553.4597 3216.317 1629.8217 3146.122 1756.0014 Z" fill="none" stroke="#FBC20F" opacity="0.6" stroke-width="1" class="manhattan_valley"/>
<path d="M 3213.7766 1632.5851 3160.2087 1730.6724 3094.5653 1696.6275 3140.2769 1586.1211 3213.7766 1632.5851 Z" fill="none" stroke="#FBC20F" opacity="0.6" stroke-width="1" class="manhattan_valley"/>
<path d="M 3081.5765 1553.919 3212.6189 1627.7518 3151.4342 1748.172 3151.8956 1746.3301 3007.6723 1682.3815 3081.5765 1553.919 Z" fill="none" stroke="#FBC20F" opacity="0.6" stroke-width="1" class="manhattan_valley"/>
<path d="M 3154.6069 1596.243 3216.5479 1629.3612 3145.4289 1756.4621 3083.4822 1723.7952 3154.6069 1596.243 Z" fill="none" stroke="#FBC20F" opacity="0.6" stroke-width="1" class="manhattan_valley"/>
<path d="M 3217.0107 1630.7421 3151.434 1747.7116 3087.6388 1714.5856 3152.2976 1599.4664 3217.0107 1630.7421 Z" fill="none" stroke="#FBC20F" opacity="0.6" stroke-width="1" class="manhattan_valley"/>
<path d="M 3150.9708 1745.4097 3076.5425 1703.0792 3107.9509 1648.2821 3110.2497 1615.5951 3126.8725 1578.7609 3216.0849 1627.52 3150.9708 1745.4097 Z" fill="none" stroke="#FBC20F" opacity="0.6" stroke-width="1" class="manhattan_valley"/>
<path d="M 3125.4867 1580.1424 3216.0869 1631.6632 3145.8887 1750.4764 3069.1484 1705.3836 3107.9475 1639.0746 3110.7083 1605.9275 3119.9402 1577.3825 3125.4867 1580.1424 Z" fill="none" stroke="#FBC20F" opacity="0.6" stroke-width="1" class="manhattan_valley"/>
<path d="M 3192.9954 1666.6626 3150.5069 1741.2661 3091.3356 1712.7427 3136.5979 1631.6979 3192.9954 1666.6626 Z" fill="none" stroke="#FBC20F" opacity="0.6" stroke-width="1" class="manhattan_valley"/>
<path d="M 3138.0315 1751.1701 3029.7851 1691.3533 3107.5398 1572.4016 3215.7814 1630.669 3144.9664 1755.7716 3138.0315 1751.1701 Z" fill="none" stroke="#FBC20F" opacity="0.6" stroke-width="1" class="manhattan_valley"/>
<path d="M 3182.3289 1583.3414 3197.8029 1567.9131 3199.1899 1569.2934 3182.3289 1583.3414 Z" fill="none" stroke="#FBC20F" opacity="0.6" stroke-width="1" class="manhattan_valley"/>
<path d="M 3216.5486 1630.7423 3150.5086 1745.4099 3091.7976 1712.2821 3155.5304 1594.4012 3216.5486 1630.7423 Z" fill="none" stroke="#FBC20F" opacity="0.6" stroke-width="1" class="manhattan_valley"/>
<path d="M 3144.0413 1754.1605 3052.5093 1703.5472 3126.4131 1585.6662 3221.6308 1627.9777 3144.0413 1754.1605 Z" fill="none" stroke="#FBC20F" opacity="0.6" stroke-width="1" class="manhattan_valley"/>
<path d="M 3213.3135 1630.7438 3204.0736 1637.1933 3145.8875 1747.7138 3015.5292 1682.3795 3088.5073 1551.615 3213.3135 1630.7438 Z" fill="none" stroke="#FBC20F" opacity="0.6" stroke-width="1" class="manhattan_valley"/>
<path d="M 3213.3131 1629.8231 3153.2816 1744.9483 3043.2608 1686.9757 3107.9225 1570.0215 3213.3131 1629.8231 Z" fill="none" stroke="#FBC20F" opacity="0.6" stroke-width="1" class="manhattan_valley"/>
<path d="M 3136.5986 1633.5393 3220.6386 1487.1167 3251.1412 1498.1487 3198.5422 1668.5016 3136.5986 1633.5393 Z" fill="none" stroke="#FBC20F" opacity="0.6" stroke-width="1" class="manhattan_valley"/>
<path d="M 3151.4313 1741.2657 3085.7869 1705.3781 3118.1138 1636.3086 3131.0375 1593.9507 3212.3919 1636.2687 3151.4313 1741.2657 Z" fill="none" stroke="#FBC20F" opacity="0.6" stroke-width="1" class="manhattan_valley"/>
<path d="M 3152.3569 1744.0278 3091.3359 1713.6635 3152.2976 1599.4664 3212.3914 1635.348 3152.3569 1744.0278 Z" fill="none" stroke="#FBC20F" opacity="0.6" stroke-width="1" class="manhattan_valley"/>
<path d="M 3148.6596 1744.9502 3084.8669 1718.2698 3053.4348 1707.2302 3111.6217 1576.4649 3208.6921 1630.746 3218.8615 1635.3449 3148.6596 1744.9502 Z" fill="none" stroke="#FBC20F" opacity="0.6" stroke-width="1" class="manhattan_valley"/>
<path d="M 3154.0294 1596.5885 3214.8157 1631.2035 3165.4041 1720.6563 3135.4703 1702.4824 3104.3825 1685.3443 3154.0294 1596.5885 Z" fill="none" stroke="#FBC20F" opacity="0.6" stroke-width="1" class="manhattan_valley"/>
<path d="M 3132.6965 1700.757 3093.4022 1674.7592 3104.0309 1671.5327 3110.2626 1650.8133 3121.5747 1622.4964 3127.8029 1594.6424 3151.3759 1605.6815 3204.304 1635.5819 3159.971 1715.0185 3099.1823 1683.2744 3132.6965 1700.757 Z" fill="none" stroke="#FBC20F" opacity="0.6" stroke-width="1" class="manhattan_valley"/>
<path d="M 3319.536 1510.0789 3292.7232 1488.9203 3273.3141 1485.2486 3302.8506 1421.7134 3338.8518 1359.0981 3361.9239 1313.9818 3398.833 1239.406 3416.3599 1199.8197 3453.275 1145.4963 3471.7761 1178.6127 3480.1283 1228.3037 3482.9694 1319.4201 3483.9396 1380.1698 3472.8773 1415.1575 3468.2727 1436.3333 3455.3555 1463.9596 3437.8135 1486.9869 3426.7438 1515.5336 3421.2141 1537.6326 3405.5121 1551.4532 3399.9643 1547.7743 3319.536 1510.0789 Z" fill="none" stroke="#FBC20F" opacity="0.6" stroke-width="1" class="manhattan_valley"/>
<path d="M 3152.2953 1593.9422 3174.4826 1605.902 3204.9906 1621.5405 3210.5502 1651.0015 3181.9166 1696.1326 3154.2068 1746.7896 3127.3981 1744.0377 3103.3603 1734.8383 3080.2444 1716.4297 3053.4353 1709.0718 3070.0626 1674.0764 3084.8401 1639.0827 3103.3181 1616.9787 3118.0983 1594.8763 3129.1863 1587.0462 3129.184 1581.0617 3152.2953 1593.9422 Z" fill="none" stroke="#FBC20F" opacity="0.6" stroke-width="1" class="manhattan_valley"/>
<path d="M 3107.4603 1570.0216 3107.461 1571.863 3216.5497 1633.0441 3153.7427 1742.1856 3151.8954 1745.8697 3146.3524 1754.1596 3032.1705 1693.4244 3054.8046 1652.9036 3107.4603 1570.0216 Z" fill="none" stroke="#FBC20F" opacity="0.6" stroke-width="1" class="manhattan_valley"/>
<path d="M 3092.2603 1713.6632 3152.2949 1593.0215 3216.0864 1630.7425 3152.3554 1740.3445 3092.2603 1713.6632 Z" fill="none" stroke="#FBC20F" opacity="0.6" stroke-width="1" class="manhattan_valley"/>
<path d="M 3213.7755 1630.2832 3213.6616 1633.8512 3210.0827 1639.4924 3203.7335 1651.1198 3205.9271 1647.666 3199.2321 1661.1351 3201.1965 1661.7097 3193.5763 1673.5681 3194.3859 1675.2942 3185.2629 1686.2326 3183.8772 1688.0748 3176.9484 1696.7103 3174.41 1704.8835 3172.5624 1707.6467 3168.2896 1713.0583 3167.3679 1719.5044 3167.2535 1722.1518 3157.6679 1733.6662 3159.7501 1739.4206 3159.0578 1741.6078 3151.5492 1747.0209 3149.009 1751.5111 3147.046 1754.9651 3143.233 1755.5421 3139.3041 1755.1984 3137.4549 1754.0481 3136.1826 1751.0558 3131.7902 1747.259 3121.3893 1743.5796 3120.1183 1743.6952 3110.7572 1739.4398 3108.5619 1740.0161 3101.8583 1735.1841 3101.1652 1735.6448 3094.8082 1730.4673 3093.7681 1730.0073 3089.7224 1725.5196 3087.7577 1724.4844 3078.6305 1727.8254 3083.9439 1722.2987 3085.3299 1720.6868 3091.1054 1715.3901 3092.0291 1713.318 3094.8008 1709.2885 3102.5377 1696.2794 3101.1518 1697.8913 3106.1162 1686.84 3106.231 1684.8833 3112.6976 1674.407 3113.0438 1673.2559 3112.1188 1671.5298 3111.425 1670.0338 3118.3544 1661.9745 3119.1624 1659.6723 3124.2439 1653.8005 3127.4769 1648.2748 3130.3636 1643.785 3130.1322 1642.9795 3134.6342 1632.8496 3132.9003 1630.6635 3139.0201 1621.4538 3136.9405 1621.5697 3142.8297 1613.8563 3144.7923 1610.2878 3149.5275 1606.0276 3144.9047 1602.3466 3148.7156 1598.2019 3154.9536 1596.473 3152.2945 1591.8706 3159.2289 1597.9674 3160.6161 1599.9233 3162.0007 1595.5494 3163.8516 1601.303 3168.936 1603.6026 3172.634 1605.6726 3176.7955 1610.9649 3183.9587 1611.1919 3188.5809 1613.2615 3189.0455 1618.5554 3195.5162 1620.3939 3198.29 1622.4643 3200.833 1624.9951 3205.455 1626.3741 3208.2289 1628.4444 3213.7755 1630.2832 Z" fill="none" stroke="#FBC20F" opacity="0.6" stroke-width="1" class="manhattan_valley"/>
<path d="M 3216.086 1629.8218 3143.5775 1750.0169 3022.9253 1687.4418 3100.065 1565.8813 3216.086 1629.8218 Z" fill="none" stroke="#FBC20F" opacity="0.6" stroke-width="1" class="manhattan_valley"/>
<path d="M 3216.0851 1627.9803 3153.2816 1744.9483 3041.4121 1686.9762 3106.0737 1569.1015 3216.0851 1627.9803 Z" fill="none" stroke="#FBC20F" opacity="0.6" stroke-width="1" class="manhattan_valley"/>
<path d="M 3219.7836 1630.7407 3154.6675 1743.106 3093.6456 1709.9795 3161.0748 1591.6368 3219.7836 1630.7407 Z" fill="none" stroke="#FBC20F" opacity="0.6" stroke-width="1" class="manhattan_valley"/>
<path d="M 3145.4289 1756.4621 3034.4821 1696.1861 3040.2579 1691.3503 3043.9536 1685.5943 3044.645 1679.1486 3044.4119 1672.2428 3046.7192 1660.5023 3053.4178 1651.5229 3062.6569 1638.8598 3074.8988 1623.4335 3102.6071 1567.0312 3210.3082 1627.7529 3213.0833 1632.5854 3145.4289 1756.4621 Z" fill="none" stroke="#FBC20F" opacity="0.6" stroke-width="1" class="manhattan_valley"/>
<path d="M 3087.5875 1564.5046 3209.6186 1635.3493 3212.1615 1637.6499 3166.906 1720.0801 3053.8822 1658.8888 3087.5875 1564.5046 Z" fill="none" stroke="#FBC20F" opacity="0.6" stroke-width="1" class="manhattan_valley"/>
<path d="M 3106.9979 1569.1011 3202.2225 1631.6698 3185.6004 1665.7451 3097.7728 1617.9014 3106.9979 1569.1011 Z" fill="none" stroke="#FBC20F" opacity="0.6" stroke-width="1" class="manhattan_valley"/>
<path d="M 3214.6995 1629.8224 3165.2877 1718.6996 3049.7219 1656.1278 3106.9982 1570.0218 3214.6995 1629.8224 Z" fill="none" stroke="#FBC20F" opacity="0.6" stroke-width="1" class="manhattan_valley"/>
<path d="M 3215.6796 1632.4654 3154.6007 1747.0565 3075.0884 1705.6487 3126.1691 1585.67 3215.6796 1632.4654 Z" fill="none" stroke="#FBC20F" opacity="0.6" stroke-width="1" class="manhattan_valley"/>
<path d="M 3216.0869 1631.6632 3166.9059 1719.8499 3105.4221 1684.4232 3152.068 1603.1493 3156.4578 1601.9966 3161.5429 1605.9075 3156.6884 1600.8456 3216.0869 1631.6632 Z" fill="none" stroke="#FBC20F" opacity="0.6" stroke-width="1" class="manhattan_valley"/>
<path d="M 3215.1283 1559.8491 3246.0974 1575.0249 3162.0526 1719.1613 3104.266 1682.8122 3150.9093 1594.8634 3203.1423 1622.0017 3215.1437 1592.0729 3215.1283 1559.8491 Z" fill="none" stroke="#FBC20F" opacity="0.6" stroke-width="1" class="manhattan_valley"/>
<path d="M 3215.1619 1630.2826 3163.44 1721.0024 3106.1154 1684.6531 3154.1453 1597.6242 3215.1619 1630.2826 Z" fill="none" stroke="#FBC20F" opacity="0.6" stroke-width="1" class="manhattan_valley"/>
<path d="M 3193.9185 1663.8998 3132.8993 1628.0164 3185.5447 1540.529 3245.637 1578.2475 3193.9185 1663.8998 Z" fill="none" stroke="#FBC20F" opacity="0.6" stroke-width="1" class="manhattan_valley"/>
<path d="M 3215.1612 1628.9015 3195.7693 1668.5028 3135.6754 1636.3019 3158.7682 1601.3051 3215.1612 1628.9015 Z" fill="none" stroke="#FBC20F" opacity="0.6" stroke-width="1" class="manhattan_valley"/>
<path d="M 3124.5625 1580.1428 3217.0103 1629.8213 3144.0417 1755.0814 3068.2275 1716.4337 3124.5625 1580.1428 Z" fill="none" stroke="#FBC20F" opacity="0.6" stroke-width="1" class="manhattan_valley"/>
<path d="M 3226.1115 1339.8302 3364.7637 1420.7556 3139.4258 1770.7379 3015.5375 1713.6867 3226.1115 1339.8302 Z" fill="none" stroke="#FBC20F" opacity="0.6" stroke-width="1" class="manhattan_valley"/>
<path d="M 3215.1626 1631.6637 3156.0564 1748.6305 3035.8676 1692.5026 3105.1501 1570.9432 3215.1626 1631.6637 Z" fill="none" stroke="#FBC20F" opacity="0.6" stroke-width="1" class="manhattan_valley"/>
<path d="M 3145.5815 1756.614 3028.8562 1691.8093 3109.6875 1556.7448 3214.8529 1631.5073 3145.5815 1756.614 Z" fill="none" stroke="#FBC20F" opacity="0.6" stroke-width="1" class="manhattan_valley"/>
<path d="M 3270.1204 1561.6626 3271.5071 1562.2373 3270.6979 1561.3171 3271.9688 1561.5465 3272.2015 1564.5386 3270.1204 1561.6626 Z" fill="none" stroke="#FBC20F" opacity="0.6" stroke-width="1" class="manhattan_valley"/>
<path d="M 3154.607 1596.4732 3212.8504 1628.6724 3163.4389 1718.4702 3124.874 1791.4633 3065.9232 1737.153 3099.4095 1672.225 3109.3393 1653.5759 3115.5667 1622.0382 3125.2598 1590.9606 3154.607 1596.4732 Z" fill="none" stroke="#FBC20F" opacity="0.6" stroke-width="1" class="manhattan_valley"/>
<path d="M 3195.3062 1666.4313 3125.799 1792.8443 3018.3159 1733.2534 3086.4462 1605.4757 3195.3062 1666.4313 Z" fill="none" stroke="#FBC20F" opacity="0.6" stroke-width="1" class="manhattan_valley"/>
<path d="M 3217.9359 1632.5831 3136.658 1784.5521 3123.7137 1779.0318 3095.9752 1763.3872 3000.7467 1710.0072 3009.9872 1698.0344 3089.4331 1556.218 3217.9359 1632.5831 Z" fill="none" stroke="#FBC20F" opacity="0.6" stroke-width="1" class="manhattan_valley"/>
<path d="M 3154.607 1596.4732 3212.3888 1629.8235 3214.239 1633.2754 3216.0874 1632.8142 3213.7756 1630.5134 3164.8259 1719.6206 3104.9603 1685.5743 3134.7498 1633.0797 3154.607 1596.4732 Z" fill="none" stroke="#FBC20F" opacity="0.6" stroke-width="1" class="manhattan_valley"/>
<path d="M 3080.1906 1555.3005 3217.4733 1631.6626 3150.5084 1744.9494 3015.9887 1672.2508 3080.1906 1555.3005 Z" fill="none" stroke="#FBC20F" opacity="0.6" stroke-width="1" class="manhattan_valley"/>
<path d="M 3065.5071 1882.196 2942.5338 1828.8119 3125.4621 1515.6967 3273.3715 1592.0434 3065.5071 1882.196 Z" fill="none" stroke="#FBC20F" opacity="0.6" stroke-width="1" class="manhattan_valley"/>
<path d="M 3145.4287 1756.0017 3066.3778 1713.2114 3124.3316 1580.6032 3215.3933 1630.973 3145.4287 1756.0017 Z" fill="none" stroke="#FBC20F" opacity="0.6" stroke-width="1" class="manhattan_valley"/>
<path d="M 3215.6229 1627.9805 3143.5789 1753.7003 3034.0197 1695.2655 3106.5348 1566.3393 3211.0011 1627.062 3215.6229 1627.9805 Z" fill="none" stroke="#FBC20F" opacity="0.6" stroke-width="1" class="manhattan_valley"/>
<path d="M 3215.6243 1630.7427 3145.1979 1756.8075 3095.0802 1847.6501 3018.7969 1803.4694 3123.6377 1578.7621 3215.6243 1630.7427 Z" fill="none" stroke="#FBC20F" opacity="0.6" stroke-width="1" class="manhattan_valley"/>
<path d="M 3213.314 1631.6646 3152.3561 1742.1861 3040.4875 1686.0557 3111.6211 1574.6235 3213.314 1631.6646 Z" fill="none" stroke="#FBC20F" opacity="0.6" stroke-width="1" class="manhattan_valley"/>
<path d="M 3195.7588 1665.8902 3087.3547 1606.861 3198.7003 1398.8599 3271.9437 1497.6015 3273.1871 1528.3541 3195.7588 1665.8902 Z" fill="none" stroke="#FBC20F" opacity="0.6" stroke-width="1" class="manhattan_valley"/>
<path d="M 3150.9713 1746.5607 3074.0009 1704.2311 3124.5607 1575.5394 3215.6243 1630.7427 3150.9713 1746.5607 Z" fill="none" stroke="#FBC20F" opacity="0.6" stroke-width="1" class="manhattan_valley"/>
<path d="M 3243.8221 1644.54 3200.3692 1621.5426 3215.1428 1590.2315 3219.7468 1554.3229 3258.5277 1485.2564 3270.517 1439.2216 3279.7575 1438.296 3300.0804 1425.3971 3307.4625 1406.9824 3311.145 1383.0471 3312.0743 1392.2516 3360.1531 1436.4077 3243.8221 1644.54 Z" fill="none" stroke="#FBC20F" opacity="0.6" stroke-width="1" class="manhattan_valley"/>
<path d="M 3218.8584 1628.8997 3144.0376 1744.952 3040.4864 1682.3725 3105.1471 1562.6571 3218.8584 1628.8997 Z" fill="none" stroke="#FBC20F" opacity="0.6" stroke-width="1" class="manhattan_valley"/>
<path d="M 3217.0111 1631.6628 3150.5084 1744.9494 3039.5637 1687.8975 3107.9225 1570.0215 3217.0111 1631.6628 Z" fill="none" stroke="#FBC20F" opacity="0.6" stroke-width="1" class="manhattan_valley"/>
<path d="M 3084.8133 1559.9022 3223.4785 1626.1353 3220.7101 1635.344 3151.4355 1751.395 3008.1338 1679.6191 3084.8133 1559.9022 Z" fill="none" stroke="#FBC20F" opacity="0.6" stroke-width="1" class="manhattan_valley"/>
<path d="M 3215.1612 1628.9015 3150.5084 1744.9494 3089.4869 1712.7433 3153.2215 1598.5453 3215.1612 1628.9015 Z" fill="none" stroke="#FBC20F" opacity="0.6" stroke-width="1" class="manhattan_valley"/>
<path d="M 3123.6386 1581.0638 3214.237 1628.9019 3145.8909 1756.0015 3068.2271 1715.0524 3103.794 1655.1892 3113.9488 1621.1181 3113.4782 1598.1005 3123.6386 1581.0638 Z" fill="none" stroke="#FBC20F" opacity="0.6" stroke-width="1" class="manhattan_valley"/>
<path d="M 3215.6247 1631.6635 3124.8745 1792.8447 3017.6225 1732.7932 3087.601 1604.0942 3215.6247 1631.6635 Z" fill="none" stroke="#FBC20F" opacity="0.6" stroke-width="1" class="manhattan_valley"/>
<path d="M 3153.2839 1750.4734 3036.7904 1686.9775 3124.5414 1524.9033 3244.7123 1577.3273 3153.2839 1750.4734 Z" fill="none" stroke="#FBC20F" opacity="0.6" stroke-width="1" class="manhattan_valley"/>
<path d="M 3212.3888 1629.8235 3148.66 1745.871 3026.6203 1678.6934 3085.7366 1557.1399 3212.3888 1629.8235 Z" fill="none" stroke="#FBC20F" opacity="0.6" stroke-width="1" class="manhattan_valley"/>
<path d="M 3122.2512 1578.3023 3217.4722 1629.3608 3167.5991 1719.6194 3089.4742 1675.9115 3107.4859 1640.4559 3113.2506 1607.5378 3122.2512 1578.3023 Z" fill="none" stroke="#FBC20F" opacity="0.6" stroke-width="1" class="manhattan_valley"/>
<path d="M 3216.5488 1631.2027 3144.9667 1756.4623 3071.4624 1715.0514 3106.5651 1650.1241 3114.4033 1600.4019 3125.4869 1580.6028 3216.5488 1631.2027 Z" fill="none" stroke="#FBC20F" opacity="0.6" stroke-width="1" class="manhattan_valley"/>
<path d="M 3124.5621 1579.2221 3215.1612 1628.9015 3145.8909 1756.0015 3068.227 1714.592 3107.9479 1639.9954 3110.7069 1602.2446 3124.5621 1579.2221 Z" fill="none" stroke="#FBC20F" opacity="0.6" stroke-width="1" class="manhattan_valley"/>
<path d="M 3153.2801 1741.2649 3086.7141 1713.6651 3162.4641 1598.5415 3217.0111 1631.6628 3153.2801 1741.2649 Z" fill="none" stroke="#FBC20F" opacity="0.6" stroke-width="1" class="manhattan_valley"/>
<path d="M 3322.0779 1510.7679 3135.9601 1772.8112 3011.1437 1701.9475 3153.61 1419.7155 3322.0779 1510.7679 Z" fill="none" stroke="#FBC20F" opacity="0.6" stroke-width="1" class="manhattan_valley"/>
<path d="M 3150.9708 1745.4097 3075.1564 1704.4609 3123.1758 1579.2226 3214.007 1631.2039 3150.9708 1745.4097 Z" fill="none" stroke="#FBC20F" opacity="0.6" stroke-width="1" class="manhattan_valley"/>
<path d="M 3072.3601 1633.1021 3097.0691 1587.9787 3146.2962 1615.1209 3121.1275 1662.0886 3072.3601 1633.1021 Z" fill="none" stroke="#FBC20F" opacity="0.6" stroke-width="1" class="manhattan_valley"/>
<path d="M 3074.7507 1876.6672 2955.4751 1821.442 2953.6254 1817.7587 3107.4598 1568.6406 3204.0698 1628.9067 3074.7507 1876.6672 Z" fill="none" stroke="#FBC20F" opacity="0.6" stroke-width="1" class="manhattan_valley"/>
<path d="M 3082.0403 1558.9825 3204.9949 1630.7477 3086.7561 1837.0622 2973.0312 1780.9188 3082.0403 1558.9825 Z" fill="none" stroke="#FBC20F" opacity="0.6" stroke-width="1" class="manhattan_valley"/>
<path d="M 3217.0098 1628.9006 3153.2824 1746.79 3145.8846 1740.3471 3138.4905 1743.1126 3070.0724 1704.4625 3112.5612 1617.8961 3122.7157 1584.7469 3217.0098 1628.9006 Z" fill="none" stroke="#FBC20F" opacity="0.6" stroke-width="1" class="manhattan_valley"/>
<path d="M 3145.4287 1756.0017 3034.0197 1695.2655 3103.7633 1569.5626 3214.7 1630.7432 3145.4287 1756.0017 Z" fill="none" stroke="#FBC20F" opacity="0.6" stroke-width="1" class="manhattan_valley"/>
<path d="M 3216.0862 1630.2821 3167.5995 1720.5402 3103.8047 1685.1143 3153.22 1594.8625 3216.0862 1630.2821 Z" fill="none" stroke="#FBC20F" opacity="0.6" stroke-width="1" class="manhattan_valley"/>
<path d="M 3151.4332 1745.8699 3140.3362 1735.2847 3107.0546 1725.6286 3050.6633 1712.7559 3035.8584 1660.2753 3080.6617 1581.9998 3132.8813 1581.9809 3186.9503 1583.7997 3214.6906 1610.9476 3211.9306 1638.1104 3151.4332 1745.8699 Z" fill="none" stroke="#FBC20F" opacity="0.6" stroke-width="1" class="manhattan_valley"/>
<path d="M 3150.5077 1743.1077 3021.0775 1690.6651 3104.2262 1571.8642 3217.0116 1632.5835 3150.5077 1743.1077 Z" fill="none" stroke="#FBC20F" opacity="0.6" stroke-width="1" class="manhattan_valley"/>
<path d="M 3144.9665 1756.0019 3039.5688 1705.3927 3072.8077 1588.4473 3022.927 1693.427 3035.866 1686.9778 3082.0446 1571.8719 3110.6995 1581.9893 3119.9426 1583.8273 3217.0156 1640.8702 3144.9665 1756.0019 Z" fill="none" stroke="#FBC20F" opacity="0.6" stroke-width="1" class="manhattan_valley"/>
<path d="M 3214.237 1628.9019 3145.8907 1755.5411 3084.8678 1721.0323 3154.6071 1596.7033 3214.237 1628.9019 Z" fill="none" stroke="#FBC20F" opacity="0.6" stroke-width="1" class="manhattan_valley"/>
<path d="M 3088.5625 1712.7437 3044.1854 1687.8962 3107.9228 1570.9422 3218.8593 1630.7412 3150.5088 1745.8703 3088.5625 1712.7437 Z" fill="none" stroke="#FBC20F" opacity="0.6" stroke-width="1" class="manhattan_valley"/>
<path d="M 3192.0695 1662.9799 3136.5986 1633.5393 3184.634 1570.9112 3220.6888 1591.1496 3192.0695 1662.9799 Z" fill="none" stroke="#FBC20F" opacity="0.6" stroke-width="1" class="manhattan_valley"/>
<path d="M 3215.1622 1630.9731 3139.6551 1766.1335 3062.6835 1723.3416 3123.1758 1579.4528 3215.1622 1630.9731 Z" fill="none" stroke="#FBC20F" opacity="0.6" stroke-width="1" class="manhattan_valley"/>
<path d="M 3109.3095 1571.8623 3215.6243 1630.7427 3145.4292 1757.383 3028.4732 1693.8858 3109.3095 1571.8623 Z" fill="none" stroke="#FBC20F" opacity="0.6" stroke-width="1" class="manhattan_valley"/>
<path d="M 3019.4527 1663.9629 3064.0228 1574.1794 3215.6242 1630.5126 3158.1302 1733.8962 3019.4527 1663.9629 Z" fill="none" stroke="#FBC20F" opacity="0.6" stroke-width="1" class="manhattan_valley"/>
<path d="M 3216.0855 1628.901 3151.4328 1744.9491 3089.9496 1714.3546 3153.6831 1597.3942 3216.0855 1628.901 Z" fill="none" stroke="#FBC20F" opacity="0.6" stroke-width="1" class="manhattan_valley"/>
<path d="M 3217.0098 1628.9006 3139.412 1735.7455 3016.4558 1690.6663 3115.3177 1573.7015 3209.6151 1627.9834 3217.0098 1628.9006 Z" fill="none" stroke="#FBC20F" opacity="0.6" stroke-width="1" class="manhattan_valley"/>
<path d="M 3214.6995 1629.8224 3166.2127 1720.0804 3150.0327 1711.7998 3135.2394 1703.058 3104.729 1685.114 3153.6823 1595.3227 3214.6995 1629.8224 Z" fill="none" stroke="#FBC20F" opacity="0.6" stroke-width="1" class="manhattan_valley"/>
<path d="M 3216.086 1629.8218 3146.8149 1755.0803 3032.1705 1693.4244 3102.3758 1566.3408 3216.086 1629.8218 Z" fill="none" stroke="#FBC20F" opacity="0.6" stroke-width="1" class="manhattan_valley"/>
<path d="M 3029.3969 1691.5836 3124.5379 1515.697 3269.6711 1585.6005 3240.1485 1691.5011 3141.2626 1740.3489 3029.3969 1691.5836 Z" fill="none" stroke="#FBC20F" opacity="0.6" stroke-width="1" class="manhattan_valley"/>
<path d="M 3208.6905 1627.2933 3211.2326 1627.9826 3213.5451 1631.6645 3165.9821 1721.2315 3150.264 1712.2601 3136.8569 1702.8272 3090.3993 1677.983 3103.1007 1654.9593 3106.564 1647.1316 3109.7958 1638.1532 3110.9488 1631.7076 3113.4836 1612.6016 3113.4812 1606.1566 3114.6334 1597.6397 3125.2554 1579.452 3208.6905 1627.2933 Z" fill="none" stroke="#FBC20F" opacity="0.6" stroke-width="1" class="manhattan_valley"/>
<path d="M 3123.1759 1579.683 3185.5773 1613.7232 3115.8413 1739.4379 3067.7643 1713.211 3072.3836 1705.3826 3074.6944 1704.9214 3111.1804 1633.0886 3112.5526 1594.418 3123.1759 1579.683 Z" fill="none" stroke="#FBC20F" opacity="0.6" stroke-width="1" class="manhattan_valley"/>
<path d="M 3046.9353 1610.322 3125.5138 1651.268 3186.0709 1684.3906 3125.5678 1792.6142 2990.3493 1717.6065 3046.9353 1610.322 Z" fill="none" stroke="#FBC20F" opacity="0.6" stroke-width="1" class="manhattan_valley"/>
<path d="M 3214.4693 1631.664 3145.891 1756.2317 3070.538 1715.0517 3101.4842 1657.9523 3109.3342 1639.7647 3113.2552 1619.9675 3113.7113 1603.6246 3115.557 1596.0281 3124.331 1578.992 3214.4693 1631.664 Z" fill="none" stroke="#FBC20F" opacity="0.6" stroke-width="1" class="manhattan_valley"/>
<path d="M 3245.6721 1647.3013 3208.6908 1627.9838 3149.5848 1746.7915 3042.3354 1683.2928 3190.1014 1397.8374 3319.5392 1515.6026 3245.6721 1647.3013 Z" fill="none" stroke="#FBC20F" opacity="0.6" stroke-width="1" class="manhattan_valley"/>
<path d="M 3215.1622 1630.9731 3165.981 1718.6993 3107.2703 1683.2715 3156.9167 1594.1704 3215.1622 1630.9731 Z" fill="none" stroke="#FBC20F" opacity="0.6" stroke-width="1" class="manhattan_valley"/>
<path d="M 3191.1455 1663.9011 3133.8254 1632.6197 3154.1465 1600.3863 3210.5411 1631.6659 3193.916 1658.3753 3145.8378 1624.3283 3198.5367 1656.5316 3191.1455 1663.9011 Z" fill="none" stroke="#FBC20F" opacity="0.6" stroke-width="1" class="manhattan_valley"/>
<path d="M 3217.9359 1632.5831 3151.8967 1749.0927 3060.3645 1697.5596 3040.4879 1687.4369 3103.3015 1570.4835 3217.9359 1632.5831 Z" fill="none" stroke="#FBC20F" opacity="0.6" stroke-width="1" class="manhattan_valley"/>
<path d="M 3215.1612 1628.9015 3152.3576 1745.8695 3055.2801 1696.18 3123.6375 1578.3018 3215.1612 1628.9015 Z" fill="none" stroke="#FBC20F" opacity="0.6" stroke-width="1" class="manhattan_valley"/>
<path d="M 3104.686 1565.4193 3212.8514 1630.7441 3142.1932 1756.003 3031.7087 1694.8057 3033.0946 1692.5033 3104.686 1565.4193 Z" fill="none" stroke="#FBC20F" opacity="0.6" stroke-width="1" class="manhattan_valley"/>
<path d="M 3152.7581 1595.5532 3214.7014 1633.7356 3147.5051 1747.2528 3089.0248 1712.9737 3152.7581 1595.5532 Z" fill="none" stroke="#FBC20F" opacity="0.6" stroke-width="1" class="manhattan_valley"/>
<path d="M 3215.6229 1627.9805 3147.7347 1743.5693 3033.557 1693.424 3100.9904 1569.1033 3215.6229 1627.9805 Z" fill="none" stroke="#FBC20F" opacity="0.6" stroke-width="1" class="manhattan_valley"/>
<path d="M 3131.0311 1577.3782 3217.9337 1627.9794 3188.3817 1684.1594 3093.1549 1628.031 3131.0311 1577.3782 Z" fill="none" stroke="#FBC20F" opacity="0.6" stroke-width="1" class="manhattan_valley"/>
<path d="M 3215.3932 1630.7428 3144.5049 1757.6136 3069.8447 1714.8217 3107.718 1643.4482 3113.7095 1598.7909 3123.6379 1579.2224 3215.3932 1630.7428 Z" fill="none" stroke="#FBC20F" opacity="0.6" stroke-width="1" class="manhattan_valley"/>
<path d="M 3180.0298 1609.5824 3219.7867 1637.1859 3113.4648 1561.7334 3203.0532 1430.0498 3240.0387 1473.2983 3180.0298 1609.5824 Z" fill="none" stroke="#FBC20F" opacity="0.6" stroke-width="1" class="manhattan_valley"/>
<path d="M 3214.7004 1631.6639 3163.9002 1716.3981 3104.2662 1683.2726 3152.7582 1595.7834 3214.7004 1631.6639 Z" fill="none" stroke="#FBC20F" opacity="0.6" stroke-width="1" class="manhattan_valley"/>
<path d="M 3034.02 1696.1863 3038.8714 1691.3507 3043.2607 1686.7455 3044.1827 1678.9185 3043.4871 1670.6317 3045.7951 1661.4234 3054.3407 1646.9189 3064.7354 1635.1762 3070.5109 1631.2612 3105.149 1567.951 3215.3932 1630.7428 3145.66 1756.462 3034.02 1696.1863 Z" fill="none" stroke="#FBC20F" opacity="0.6" stroke-width="1" class="manhattan_valley"/>
<path d="M 3152.7654 1604.3174 3153.561 1612.8106 3146.1705 1622.0209 3156.3334 1611.8888 3171.1242 1617.4068 3154.7228 1597.0485 3183.7128 1612.9371 3199.0915 1622.4156 3213.7128 1633.0468 3202.2896 1654.771 3193.2092 1669.6852 3187.3906 1679.9819 3184.912 1684.601 3171.9388 1710.3088 3164.9791 1720.5499 3144.5181 1708.7437 3128.2456 1698.7399 3112.1902 1689.6733 3091.1756 1678.0322 3083.2787 1673.6612 3063.3042 1662.4965 3053.8868 1657.8721 3070.8347 1636.954 3080.0119 1619.6718 3090.9156 1599.8211 3100.421 1580.7901 3106.5116 1571.9978 3123.6131 1580.2775 3137.427 1587.9184 3153.0102 1596.9434 3152.7654 1604.3174 Z" fill="none" stroke="#FBC20F" opacity="0.6" stroke-width="1" class="manhattan_valley"/>
<path d="M 3084.8563 1686.9625 3108.8705 1635.3913 3112.7842 1596.0291 3144.909 1613.0499 3154.8382 1596.7032 3216.3175 1630.7424 3162.7498 1728.3693 3084.8563 1686.9625 Z" fill="none" stroke="#FBC20F" opacity="0.6" stroke-width="1" class="manhattan_valley"/>
<path d="M 3216.0864 1630.7425 3167.1347 1714.5551 3104.2667 1684.6538 3046.4876 1658.8911 3109.7711 1570.4811 3216.0864 1630.7425 Z" fill="none" stroke="#FBC20F" opacity="0.6" stroke-width="1" class="manhattan_valley"/>
<path d="M 3222.5569 1631.6601 3166.226 1751.3888 3092.2616 1717.3465 3160.6144 1595.7801 3222.5569 1631.6601 Z" fill="none" stroke="#FBC20F" opacity="0.6" stroke-width="1" class="manhattan_valley"/>
<path d="M 3125.486 1578.3011 3216.0855 1628.901 3152.3569 1744.0278 3076.5427 1703.5396 3110.7187 1634.4699 3114.4026 1598.5605 3125.486 1578.3011 Z" fill="none" stroke="#FBC20F" opacity="0.6" stroke-width="1" class="manhattan_valley"/></svg>