<?xml version="1.0"?><svg xmlns="http://www.w3.org/2000/svg" version="1.2" baseProfile="tiny" width="6000" height="5918" viewBox="0 0 6000 5918" stroke-linecap="round" stroke-linejoin="round"><path d="M 4114.5405 2955.7467 4161.032 2786.0427 4115.4647 2954.8233 4003.9454 2965.5794 3880.8491 2972.648 3812.5688 2748.6981 4145.0413 2609.0866 4277.2978 2864.2247 4115.0039 2956.207 4012.2758 2965.5684 4114.5405 2955.7467 Z" fill="none" stroke="#E71E24" opacity="0.6" stroke-width="1" class="middle_village"/>
<path d="M 3991.3308 2873.8585 3952.3726 2804.7653 3884.692 2700.682 4133.481 2612.7901 4196.6538 2781.3802 4143.0307 2816.4909 4176.559 2958.4221 4104.3499 2949.3071 4000.481 2793.6412 4050.5733 2881.1553 3991.3308 2873.8585 Z" fill="none" stroke="#E71E24" opacity="0.6" stroke-width="1" class="middle_village"/>
<path d="M 4069.7602 2700.9055 4089.6379 2688.6644 4108.128 2677.1164 4131.9362 2664.1778 4146.2595 2651.2528 4155.5026 2644.5567 4164.8083 2680.2602 4179.6676 2716.4175 4198.9085 2742.6598 4215.8303 2764.5273 4211.6784 2772.5998 4189.949 2784.3863 4166.1382 2797.0975 4150.646 2803.1125 4145.1005 2807.9605 4147.6741 2827.5468 4149.0863 2843.9085 4154.0111 2888.8454 4163.0575 2904.0445 4165.4058 2927.321 4142.9805 2940.7229 4137.2033 2946.0329 4118.2451 2957.3549 4106.6825 2962.4425 4097.1867 2956.4628 4088.3971 2959.0107 4082.5913 2944.0361 4079.0954 2926.062 4081.3891 2911.5376 4071.4101 2890.3462 4062.6021 2879.0644 4051.0276 2874.9315 4024.1955 2880.7298 4005.9233 2885.8247 3992.0387 2884.4599 3984.6036 2860.4991 3968.8144 2816.7289 3964.6452 2813.0467 3952.1244 2791.3985 3941.9266 2776.8921 3973.3671 2758.4157 4001.8028 2742.9384 4040.6382 2720.3026 4073.9198 2697.6735 4069.7602 2700.9055 Z" fill="none" stroke="#E71E24" opacity="0.6" stroke-width="1" class="middle_village"/>
<path d="M 3893.0333 2711.7334 3898.577 2704.8135 4039.6295 2658.546 4146.4379 2615.0755 4207.7377 2767.5357 4144.8587 2800.8163 4152.3569 2865.3383 4167.2388 2915.102 4107.1292 2951.1471 4085.8485 2956.7092 4071.8601 2881.1261 3995.0376 2877.5414 3893.0333 2711.7334 Z" fill="none" stroke="#E71E24" opacity="0.6" stroke-width="1" class="middle_village"/>
<path d="M 4151.3354 2642.2585 4163.8799 2678.1876 4177.5855 2716.4207 4205.1714 2753.4817 4231.6036 2791.2365 4256.6386 2821.8497 4273.1007 2843.9491 4278.6828 2862.1481 4255.8106 2883.6196 4215.3514 2904.6571 4181.2406 2917.0403 4119.6272 2952.9733 4060.4018 2961.8156 4000.7022 2962.8176 3952.5429 2940.2899 3889.5592 2902.7961 3862.0055 2886.4637 3851.5865 2880.4831 3844.8718 2876.342 3831.8965 2860.2229 3840.8993 2842.0049 3875.1173 2820.9921 3888.2946 2812.2186 3917.6531 2792.1326 3936.6089 2779.6643 4012.4331 2734.1673 4052.1935 2711.7604 4081.5483 2693.7454 4109.0553 2678.4977 4137.0096 2653.3401 4142.7833 2646.8796 4151.3354 2642.2585 Z" fill="none" stroke="#E71E24" opacity="0.6" stroke-width="1" class="middle_village"/>
<path d="M 4006.8427 2705.1382 4143.6884 2633.0526 4143.6763 2624.7573 4138.1153 2618.3136 4001.2291 2658.1362 4149.2549 2643.1833 4152.9899 2666.221 4275.4439 2862.3838 4102.5144 2960.3739 3952.5371 2935.6799 4006.8427 2705.1382 Z" fill="none" stroke="#E71E24" opacity="0.6" stroke-width="1" class="middle_village"/>
<path d="M 4357.6002 2735.953 4327.0873 2750.7529 4301.2724 2809.7936 4281.909 2854.0761 4275.5102 2903.8714 4282.0748 2957.3366 4306.1928 2989.5689 4323.8024 3003.3709 4284.9406 3012.6549 4202.5513 3008.1734 4109.0761 3018.4538 3996.1661 3033.361 3900.8316 3040.8572 3837.6954 2873.1234 3809.7947 2750.5448 3877.2882 2699.769 3932.8096 2700.6238 3970.7167 2675.6887 3998.4484 2654.4529 4037.3082 2652.5579 4083.5522 2637.747 4129.7854 2616.4822 4186.1899 2592.4354 4213.9808 2614.5135 4328.8037 2669.6333 4363.0713 2688.011 4385.3281 2716.5481 4414.0431 2733.0907 4357.6002 2735.953 Z" fill="none" stroke="#E71E24" opacity="0.6" stroke-width="1" class="middle_village"/>
<path d="M 3991.3398 2880.773 3940.5405 2778.5071 4152.7213 2640.8739 4215.8335 2766.6014 4276.7989 2841.6385 4278.7178 2884.0441 4253.9573 2882.2396 4173.6444 2865.9983 4152.1269 2866.2606 4169.096 2919.2481 4133.2389 2924.8327 4126.0665 2925.304 4084.4373 2940.3455 4068.3822 2875.8297 4006.8433 2881.6747 3991.3398 2880.773 Z" fill="none" stroke="#E71E24" opacity="0.6" stroke-width="1" class="middle_village"/>
<path d="M 4145.5107 2613.6943 4193.8078 2735.2931 4206.7982 2758.3188 4271.7154 2845.7952 4282.9116 2902.0156 3991.3834 2914.4246 3995.0448 2883.0731 3934.6614 2701.5433 3969.7914 2675.6898 4007.7037 2656.2842 4060.4379 2650.683 4145.5107 2613.6943 Z" fill="none" stroke="#E71E24" opacity="0.6" stroke-width="1" class="middle_village"/>
<path d="M 4300.1658 2897.6822 4362.9129 2737.1631 4362.4448 2733.9375 4571.6268 2846.6595 4551.3168 2873.4341 4458.6992 2925.6565 4407.9174 2917.1256 4319.4983 2901.0231 4305.6123 2899.2019 4300.1658 2897.6822 Z" fill="none" stroke="#E71E24" opacity="0.6" stroke-width="1" class="middle_village"/>
<path d="M 3904.1274 2703.4241 3907.8299 2704.3414 4139.0366 2615.5471 4280.0714 2862.3764 4087.7049 2960.3947 4067.2237 2874.6789 3991.3356 2877.5462 3904.1274 2703.4241 Z" fill="none" stroke="#E71E24" opacity="0.6" stroke-width="1" class="middle_village"/>
<path d="M 4137.5138 2628.4531 4184.8812 2747.2901 4270.2059 2866.0799 4064.7563 2874.6823 3827.5155 2873.7489 3808.876 2756.6907 3999.0407 2635.403 4073.8742 2553.2738 4137.5138 2628.4531 Z" fill="none" stroke="#E71E24" opacity="0.6" stroke-width="1" class="middle_village"/>
<path d="M 3951.5844 2923.6952 3943.9028 2701.5318 3983.7018 2708.8555 4137.3052 2705.8795 4162.6086 2921.5627 3951.5844 2923.6952 Z" fill="none" stroke="#E71E24" opacity="0.6" stroke-width="1" class="middle_village"/>
<path d="M 3964.5004 2881.2684 4035.4613 2655.3256 4105.7379 2622.9685 4144.6164 2634.8947 4160.3787 2656.9928 4117.9154 2727.1086 4141.1583 2801.7436 4145.8744 2862.582 4098.6832 2869.1033 3964.5004 2881.2684 Z" fill="none" stroke="#E71E24" opacity="0.6" stroke-width="1" class="middle_village"/>
<path d="M 4164.4703 2920.638 4110.8394 2956.674 4090.4765 2956.7028 4063.528 2879.2937 3995.0412 2880.3072 3961.7227 2880.35 3978.3287 2838.8422 3947.7304 2792.7868 3920.0002 2819.5555 3906.0872 2793.7599 3924.5811 2781.7533 3901.3891 2734.7683 3946.6954 2705.2154 4005.9161 2704.2177 3998.4568 2660.905 4146.4305 2610.0062 4166.9118 2694.7748 4192.8755 2730.6855 4213.2915 2768.449 4143.0091 2801.7409 4164.4703 2920.638 Z" fill="none" stroke="#E71E24" opacity="0.6" stroke-width="1" class="middle_village"/>
<path d="M 3993.1945 2705.617 3991.9785 2659.9917 4113.1386 2622.0363 4149.9428 2639.0346 4161.8082 2685.1039 4186.4021 2733.4606 4275.8853 2849.0152 4274.987 2866.0723 4250.9458 2879.9395 4107.1384 2957.6013 3993.1956 2884.4584 3940.773 2779.4286 3997.6343 2739.7175 3993.1945 2705.617 Z" fill="none" stroke="#E71E24" opacity="0.6" stroke-width="1" class="middle_village"/>
<path d="M 3906.0961 2801.1348 3924.3526 2784.0582 3908.8258 2762.6443 3892.1343 2733.8575 3860.8792 2713.3844 3908.9813 2699.9616 3954.9974 2684.4652 3999.8424 2659.0597 4044.2473 2652.0877 4082.3969 2638.6703 4122.8612 2627.0917 4155.2963 2661.6089 4137.9989 2697.3521 4125.5666 2738.8506 4135.0905 2765.5697 4147.4003 2798.5079 4147.439 2825.0119 4149.8077 2862.5763 4111.8653 2864.7055 4069.9929 2869.3739 4040.1557 2877.0206 3985.3168 2875.2492 3970.9152 2831.246 3951.4486 2805.9188 3922.32 2824.623 3906.0961 2801.1348 Z" fill="none" stroke="#E71E24" opacity="0.6" stroke-width="1" class="middle_village"/>
<path d="M 3899.5018 2704.3515 3905.045 2696.9706 3950.8392 2689.0793 3997.0641 2657.2199 4065.0638 2650.2158 4078.9219 2634.9883 4150.1322 2610.4617 4152.5042 2650.5523 4168.7522 2687.8588 4184.5402 2726.089 4234.6095 2790.0795 4277.2772 2851.3178 4276.4092 2887.2747 4254.188 2881.7782 4224.595 2897.0367 4164.4724 2922.0209 4112.2305 2958.516 3990.5153 2958.6817 3943.7413 2933.386 3846.0266 2874.4968 3990.4166 2882.6181 3980.6453 2841.144 3938.4601 2779.8924 3899.5018 2704.3515 Z" fill="none" stroke="#E71E24" opacity="0.6" stroke-width="1" class="middle_village"/>
<path d="M 3965.4224 2878.5014 4004.4725 2661.8189 4120.5493 2628.0167 4273.5922 2861.9258 4250.478 2876.7134 4146.8039 2865.3465 4026.0435 2878.4225 3965.4224 2878.5014 Z" fill="none" stroke="#E71E24" opacity="0.6" stroke-width="1" class="middle_village"/>
<path d="M 3936.6092 2779.8947 3973.1254 2750.3501 3973.5262 2701.9552 3996.6573 2700.0818 4056.7866 2687.0968 4124.8125 2697.1407 4172.0005 2694.3063 4195.2168 2749.1181 4197.5296 2748.6537 4226.7362 2785.4825 4262.4475 2837.5127 4276.8624 2881.2813 4264.8329 2882.6834 4216.2291 2873.5398 4118.5881 2873.6847 4063.0583 2874.2236 3992.2653 2880.7718 3975.0996 2846.6826 3936.6092 2779.8947 Z" fill="none" stroke="#E71E24" opacity="0.6" stroke-width="1" class="middle_village"/>
<path d="M 4203.0854 2750.9498 4073.715 2883.8893 3963.4603 2790.9233 4138.1917 2670.8514 4203.0854 2750.9498 Z" fill="none" stroke="#E71E24" opacity="0.6" stroke-width="1" class="middle_village"/>
<path d="M 3918.0098 2705.2508 4038.2347 2653.4784 4256.966 2882.6958 4161.6133 2866.2466 4001.5246 2883.9866 3918.0098 2705.2508 Z" fill="none" stroke="#E71E24" opacity="0.6" stroke-width="1" class="middle_village"/>
<path d="M 3905.1377 2700.1617 3995.5741 2655.5701 4050.1564 2648.1236 4153.1417 2612.0987 4157.8386 2660.0207 4195.3229 2737.3169 4273.7783 2845.1788 4279.3489 2856.2329 4275.573 2888.1316 4129.3142 2869.4856 3988.6556 2883.5073 3982.1319 2848.4823 3905.1377 2700.1617 Z" fill="none" stroke="#E71E24" opacity="0.6" stroke-width="1" class="middle_village"/>
<path d="M 3911.9419 3042.688 4009.6806 2752.1462 4118.858 2739.0907 4172.4899 2712.2802 4211.4336 2763.8427 4275.438 2858.6961 4289.5093 2975.7652 4241.418 3001.659 3911.9419 3042.688 Z" fill="none" stroke="#E71E24" opacity="0.6" stroke-width="1" class="middle_village"/>
<path d="M 3836.7741 2876.8122 3811.6454 2750.5427 4042.8662 2657.1591 4283.7808 2866.9801 3836.7741 2876.8122 Z" fill="none" stroke="#E71E24" opacity="0.6" stroke-width="1" class="middle_village"/>
<path d="M 4151.0568 2609.9995 4191.0386 2739.9063 4279.1488 2864.2217 4282.0674 2952.7265 4094.1853 2961.3077 3983.8815 2838.835 3903.1988 2700.6599 4151.0568 2609.9995 Z" fill="none" stroke="#E71E24" opacity="0.6" stroke-width="1" class="middle_village"/>
<path d="M 3811.1812 2749.1605 3879.1394 2700.2277 4141.8063 2611.3955 4277.2846 2855.9274 4286.2207 2945.3437 4109.4556 2959.903 3989.1287 2960.0665 3840.0108 2874.5037 3905.2308 2850.9181 3836.7726 2875.4293 3811.1812 2749.1605 Z" fill="none" stroke="#E71E24" opacity="0.6" stroke-width="1" class="middle_village"/>
<path d="M 3837.6986 2875.8892 3808.403 2747.32 3879.3686 2698.3839 3887.4672 2699.9874 3889.808 2723.0292 3907.6259 2726.9254 3947.3851 2701.7579 4074.1415 2690.76 4150.4084 2641.1078 4270.3177 2839.805 4277.3296 2884.0464 4110.8467 2961.7451 3995.1522 2965.5909 3837.6986 2875.8892 Z" fill="none" stroke="#E71E24" opacity="0.6" stroke-width="1" class="middle_village"/>
<path d="M 3988.5452 2882.5753 3902.1422 2710.8007 3998.3122 2659.9834 4150.5065 2624.0293 4269.3715 2871.5455 4114.0634 2956.7615 3988.5452 2882.5753 Z" fill="none" stroke="#E71E24" opacity="0.6" stroke-width="1" class="middle_village"/>
<path d="M 3919.9686 2793.743 3891.1804 2709.8921 3913.3797 2702.4911 3951.3024 2689.5396 3991.0556 2661.8364 4039.16 2653.4772 4121.4753 2628.4763 4162.2211 2651.4597 4185.4767 2733.462 4238.3177 2794.2221 4281.0309 2883.5795 4155.1253 2859.8027 4117.1813 2860.7797 4005.2219 2880.2939 3932.096 2872.0896 3846.0282 2875.8797 3833.045 2852.8462 3849.6858 2837.1548 3853.3887 2838.0725 3865.4091 2828.8395 3881.1311 2819.6022 3907.026 2804.8212 3919.9686 2793.743 Z" fill="none" stroke="#E71E24" opacity="0.6" stroke-width="1" class="middle_village"/>
<path d="M 4009.1844 2664.1686 4041.2911 2652.2042 4117.1328 2627.053 4155.1026 2650.0406 4194.0957 2736.6284 4283.689 2868.0423 4254.0991 2884.6844 4150.4248 2873.7787 3995.849 2881.6209 3983.613 2841.6583 4009.1844 2664.1686 Z" fill="none" stroke="#E71E24" opacity="0.6" stroke-width="1" class="middle_village"/>
<path d="M 3900.425 2702.5068 4150.1329 2610.9225 4276.3473 2848.5535 4283.076 3004.3592 3903.6097 3041.776 3896.7148 2695.1371 3900.425 2702.5068 Z" fill="none" stroke="#E71E24" opacity="0.6" stroke-width="1" class="middle_village"/>
<path d="M 4028.1282 2665.0346 4027.0243 2668.6845 4029.5714 2670.5246 4031.8834 2669.5998 4022.255 2667.2567 4028.1282 2665.0346 Z" fill="none" stroke="#E71E24" opacity="0.6" stroke-width="1" class="middle_village"/>
<path d="M 4277.7458 2855.0047 4251.1783 2880.6305 4146.8029 2864.655 4064.6747 2871.9165 3896.466 2873.7463 3868.8705 2820.9994 3832.8071 2847.0845 3811.1804 2748.4692 3887.485 2714.9663 3951.9985 2691.1518 4061.8271 2651.6029 4114.9892 2622.0337 4149.9414 2638.1129 4174.3344 2708.1295 4277.7458 2855.0047 Z" fill="none" stroke="#E71E24" opacity="0.6" stroke-width="1" class="middle_village"/>
<path d="M 3839.1153 2869.1308 3867.8015 2865.41 3896.4854 2859.8445 3936.2816 2859.796 3971.4021 2821.9536 3957.497 2803.5337 3935.2614 2783.2805 3982.2537 2761.3412 4013.3615 2736.4706 4047.1144 2719.3721 4073.1641 2697.8824 4130.7957 2701.9262 4137.2765 2704.2213 4170.5576 2707.788 4182.603 2718.3706 4188.1787 2734.0327 4227.8889 2777.7569 4245.0459 2801.2376 4264.5364 2836.6995 4273.3527 2851.897 4260.7002 2878.4549 4243.5725 2874.7941 4225.9824 2890.4969 4201.9013 2879.0095 4173.6443 2859.6914 4152.8281 2864.7928 4126.1024 2870.9008 4160.8599 2905.4233 4123.3697 2901.3291 4089.618 2923.0435 4046.8615 2927.9014 4013.995 2921.0305 4051.9695 2950.8228 4021.8856 2949.0193 4015.426 2963.7802 3961.406 2937.9369 3941.9437 2917.6775 3926.2453 2911.1375 3885.0372 2893.2089 3885.9595 2890.4419 3852.8026 2875.5696 3839.1153 2869.1308 Z" fill="none" stroke="#E71E24" opacity="0.6" stroke-width="1" class="middle_village"/>
<path d="M 4277.9942 2865.6065 4167.1351 2923.1695 4099.746 2966.371 4067.2288 2878.3666 3992.7307 2882.8456 3969.7498 2824.5637 3904.8295 2710.1062 3914.7708 2705.0243 4000.7677 2659.0585 4078.467 2640.5192 4150.3623 2609.6548 4277.9942 2865.6065 Z" fill="none" stroke="#E71E24" opacity="0.6" stroke-width="1" class="middle_village"/>
<path d="M 4004.9932 2706.0624 4161.3394 2680.9567 4218.8453 2769.3623 4270.7929 2847.6405 4282.9989 2956.4131 4143.2243 2949.2512 4000.6558 2927.3203 3970.892 2813.0387 4004.9932 2706.0624 Z" fill="none" stroke="#E71E24" opacity="0.6" stroke-width="1" class="middle_village"/>
<path d="M 4088.1593 2954.401 4064.4497 2876.5266 4000.5859 2873.8464 3994.5011 2820.8443 4010.4894 2663.6544 4043.7884 2654.8535 4146.945 2645.491 4210.9744 2766.148 4139.304 2799.4416 4166.3194 2919.2523 4088.1593 2954.401 Z" fill="none" stroke="#E71E24" opacity="0.6" stroke-width="1" class="middle_village"/>
<path d="M 4281.9076 2853.1542 4247.6964 2873.491 3996.885 2874.7732 3902.2623 2691.4434 4136.2621 2616.4729 4281.9076 2853.1542 Z" fill="none" stroke="#E71E24" opacity="0.6" stroke-width="1" class="middle_village"/>
<path d="M 4281.0339 2885.4234 3848.8015 2873.1107 3814.4277 2756.0706 3907.831 2705.2632 4118.6995 2628.4802 4002.158 2660.9002 3988.2869 2667.3704 3974.4179 2675.6839 4154.8039 2641.3317 4281.0339 2885.4234 Z" fill="none" stroke="#E71E24" opacity="0.6" stroke-width="1" class="middle_village"/>
<path d="M 3839.5486 2874.9652 3806.0951 2752.3925 3823.6558 2733.0149 3901.3503 2702.5057 4142.7389 2616.4634 4272.6998 2882.6708 3963.5772 2883.1135 3947.9081 2934.7637 3839.5486 2874.9652 Z" fill="none" stroke="#E71E24" opacity="0.6" stroke-width="1" class="middle_village"/>
<path d="M 4280.9865 2855.9214 4250.4859 2881.7841 4157.9086 2864.4082 3988.5614 2879.3937 3899.4963 2699.7426 4118.6981 2627.5585 4150.1802 2643.182 4209.5927 2770.2983 4280.9865 2855.9214 Z" fill="none" stroke="#E71E24" opacity="0.6" stroke-width="1" class="middle_village"/>
<path d="M 4093.2584 2960.3869 3997.819 2881.2256 3842.3188 2869.4304 3903.191 2694.2076 4032.6756 2647.9555 4069.743 2688.4616 4145.7989 2810.9555 4176.5025 2920.6201 4093.2584 2960.3869 Z" fill="none" stroke="#E71E24" opacity="0.6" stroke-width="1" class="middle_village"/>
<path d="M 4153.8325 2609.9954 4288.4142 2870.6604 4187.6689 2960.2495 4096.9647 2963.1478 3990.4065 2874.7816 3908.7419 2693.2791 4153.8325 2609.9954 Z" fill="none" stroke="#E71E24" opacity="0.6" stroke-width="1" class="middle_village"/>
<path d="M 4113.1439 2625.7231 4146.4642 2633.0486 4169.7043 2705.8319 4271.7125 2843.9514 4278.2145 2858.6917 4247.7079 2880.8665 4172.7152 2863.4644 4147.7281 2864.4232 3990.416 2882.1571 3982.0401 2846.2127 3899.5007 2703.4297 4113.1439 2625.7231 Z" fill="none" stroke="#E71E24" opacity="0.6" stroke-width="1" class="middle_village"/>
<path d="M 4192.8852 2737.1381 4279.1503 2865.1437 4088.6253 2956.7053 4066.2982 2874.6801 3990.4184 2884.001 3893.009 2691.4545 4143.6534 2609.0886 4192.8852 2737.1381 Z" fill="none" stroke="#E71E24" opacity="0.6" stroke-width="1" class="middle_village"/>
<path d="M 3811.6434 2748.6991 3923.4952 2650.8609 4140.879 2610.0143 4166.9214 2701.2272 4229.9759 2785.9384 4280.0743 2864.2202 4244.9386 2885.4806 4178.3509 2918.7733 4104.3682 2962.2153 4068.27 2962.2658 3879.4509 2964.3514 3811.6434 2748.6991 Z" fill="none" stroke="#E71E24" opacity="0.6" stroke-width="1" class="middle_village"/>
<path d="M 3833.07 2874.9725 3795.8125 2869.7128 3832.1151 2848.9292 3810.9517 2750.774 4148.05 2610.2343 4212.8291 2768.6802 4147.9611 2865.5753 3797.204 2872.7075 3833.07 2874.9725 Z" fill="none" stroke="#E71E24" opacity="0.6" stroke-width="1" class="middle_village"/>
<path d="M 4276.4077 2886.3527 3835.8455 2874.0474 3809.7947 2750.5448 3830.1334 2733.0077 3956.8498 2685.8455 4149.2508 2640.4182 4276.4077 2886.3527 Z" fill="none" stroke="#E71E24" opacity="0.6" stroke-width="1" class="middle_village"/>
<path d="M 3835.8423 2871.2816 3676.3993 2605.9682 3815.0734 2504.4449 4282.4569 2619.0144 4311.5081 2843.8871 3889.842 3140.4624 3832.106 2840.8624 3715.3255 2671.3713 3835.8423 2871.2816 Z" fill="none" stroke="#E71E24" opacity="0.6" stroke-width="1" class="middle_village"/>
<path d="M 4279.1282 2851.3148 4288.5361 2946.262 4157.0849 2933.5568 4034.0527 2984.4412 4000.5931 2879.378 3926.3537 2718.1456 3967.1913 2813.9653 3925.4193 2710.7724 3942.063 2700.6123 4019.7326 2656.2683 4139.0379 2616.4688 4190.1174 2742.6731 4279.1282 2851.3148 Z" fill="none" stroke="#E71E24" opacity="0.6" stroke-width="1" class="middle_village"/>
<path d="M 3792.3436 2871.3299 3672.9428 2860.389 3943.8527 2651.7574 3995.6677 2650.7696 4123.3152 2621.1 4125.171 2624.7842 4130.7173 2621.0894 4242.7833 2690.9721 4287.2971 2751.7397 4290.292 2887.2524 4468.0634 2926.5935 4422.7159 2929.4401 4355.1731 2943.3862 4339.4675 2960.9308 4346.0192 3004.256 4294.2343 3035.692 4287.7205 3014.4945 4246.9762 3004.4165 4105.3774 3021.2253 4109.0945 3031.363 4048.0371 3058.1889 4032.2818 3044.3785 3988.7883 3054.579 3974.9195 3067.5066 3953.5914 3038.026 3842.5237 3049.2244 3792.3436 2871.3299 Z" fill="none" stroke="#E71E24" opacity="0.6" stroke-width="1" class="middle_village"/>
<path d="M 3907.8411 2713.5592 3919.865 2708.9357 3946.7012 2709.8243 3969.8019 2683.9856 3998.4592 2662.7485 4032.6855 2655.3293 4059.5101 2648.8409 4082.6333 2642.3569 4105.7457 2628.4987 4139.9672 2619.2326 4142.7685 2636.7408 4167.8057 2673.5731 4178.9715 2715.0359 4193.805 2733.4495 4266.1816 2857.7889 4223.6517 2885.5137 4148.6401 2855.2026 4077.3927 2866.3674 4020.0105 2865.5234 4004.2794 2867.388 3994.1061 2872.9329 3907.8411 2713.5592 Z" fill="none" stroke="#E71E24" opacity="0.6" stroke-width="1" class="middle_village"/>
<path d="M 3792.3436 2871.3299 3870.0289 2822.3809 3866.3206 2816.8539 3856.1311 2808.5688 3871.8496 2796.5662 3858.8807 2785.519 3840.388 2799.3681 3837.5835 2774.4813 3872.7426 2768.9096 3868.0973 2753.244 3844.0361 2752.3499 3839.3766 2723.7792 3853.2496 2717.3108 3862.5139 2726.518 3890.266 2719.111 3886.5394 2697.9145 3902.2734 2700.661 3934.6568 2697.8562 3948.5276 2690.4648 3961.4705 2681.2309 3979.952 2661.8507 4000.3014 2656.2939 4039.1563 2650.712 4064.1353 2647.9128 4114.9878 2621.112 4150.1694 2635.8083 4153.903 2657.9241 4169.6947 2699.3795 4191.9557 2734.3741 4272.6321 2840.2622 4275.4203 2847.6331 4277.2949 2862.3808 4252.3341 2879.9373 4219.9723 2900.2707 4165.3986 2922.4806 4113.6149 2955.748 4005.3296 2962.3505 3843.2495 2874.039 3792.3436 2871.3299 Z" fill="none" stroke="#E71E24" opacity="0.6" stroke-width="1" class="middle_village"/>
<path d="M 3902.2734 2700.661 3950.3771 2689.5407 3986.4303 2662.7641 4020.6517 2651.6585 4056.7305 2646.0795 4115.9144 2622.0323 4149.2036 2608.1588 4152.0388 2648.7095 4165.9756 2687.4021 4190.0966 2728.8461 4215.1395 2766.6025 4180.9258 2784.1694 4143.0065 2799.8971 4142.1254 2830.3205 4147.7308 2866.267 4087.5745 2867.2751 4034.8284 2872.8791 3988.5602 2878.4718 3982.962 2843.4458 3948.6558 2792.7857 3918.1482 2818.6358 3907.0193 2799.29 3930.1359 2783.5901 3893.0509 2726.482 3889.3286 2708.9725 3902.2734 2700.661 Z" fill="none" stroke="#E71E24" opacity="0.6" stroke-width="1" class="middle_village"/>
<path d="M 4151.7981 2642.2579 4153.6676 2655.1592 4162.4831 2672.1983 4166.906 2690.8573 4171.0895 2703.9863 4186.3948 2728.6212 4194.2764 2739.2101 4205.639 2756.7073 4214.9067 2765.681 4229.0501 2785.7093 4257.7987 2823.9221 4280.5323 2861.2232 4278.9551 2887.7316 4261.5972 2884.9934 4237.7572 2879.9601 4200.7234 2871.2587 4170.4069 2867.1555 4169.0193 2867.6186 4137.0879 2866.513 4150.7528 2875.943 4155.6355 2892.0699 4161.4524 2913.9581 4165.8621 2922.9409 4144.8255 2936.5712 4131.6389 2938.4344 4121.9283 2943.9804 4104.3548 2952.7646 4096.4915 2955.7723 4090.9341 2953.014 4086.992 2947.0265 4076.7866 2929.7532 4070.2672 2900.4893 4067.2294 2878.8276 4031.1378 2881.412 3992.7283 2881.0017 3962.8799 2880.579 3954.5813 2905.2519 3931.4477 2909.1991 3910.8446 2901.1571 3894.8733 2896.336 3871.9511 2883.2253 3865.2438 2885.538 3852.0445 2876.3338 3850.4228 2874.4918 3846.4709 2858.3625 3847.6172 2849.142 3843.6755 2841.7712 3844.3682 2840.618 3862.8644 2829.073 3881.8211 2816.1443 3899.3903 2804.139 3912.5691 2796.9786 3974.7552 2758.4139 4033.4726 2724.6908 4114.597 2671.3462 4146.0272 2650.5618 4151.7981 2642.2579 Z" fill="none" stroke="#E71E24" opacity="0.6" stroke-width="1" class="middle_village"/>
<path d="M 4279.1725 2878.9727 3841.3975 2873.1192 3847.8707 2868.5021 3846.4783 2864.816 3892.339 2711.5038 4149.9485 2642.9519 4279.1725 2878.9727 Z" fill="none" stroke="#E71E24" opacity="0.6" stroke-width="1" class="middle_village"/>
<path d="M 3952.5973 2788.4765 3921.0619 2730.4405 3980.4288 2841.9103 3995.2893 2882.4559 3896.0262 2688.0689 4018.9819 2603.1156 4154.9827 2638.3524 4193.0625 2733.2367 4046.0462 2820.1009 3998.925 2879.1663 3983.139 2838.6221 3952.5973 2788.4765 Z" fill="none" stroke="#E71E24" opacity="0.6" stroke-width="1" class="middle_village"/>
<path d="M 4150.538 2635.7875 4155.893 2659.2835 4137.129 2695.2591 4152.0307 2721.1583 4161.7422 2717.9177 4199.4888 2775.6344 4213.8235 2769.6205 4275.6514 2843.8194 4278.6282 2866.8182 4252.4931 2882.7967 4219.9616 2902.4726 4164.6387 2924.4591 4123.1626 2927.2496 4083.4373 2941.5602 4072.4202 2906.9798 4067.2881 2876.7928 4004.5648 2882.9703 3989.0612 2882.0685 3837.9849 2873.9146 3830.6132 2847.6243 3820.3801 2800.3888 3842.1128 2800.9944 3867.7577 2815.7266 3925.7742 2787.0792 3897.804 2731.098 3948.4449 2702.1529 3948.4307 2690.8613 3990.7324 2661.9764 4021.4332 2655.3197 4061.8211 2650.5546 4092.9532 2634.3046 4116.4705 2625.6043 4150.538 2635.7875 Z" fill="none" stroke="#E71E24" opacity="0.6" stroke-width="1" class="middle_village"/>
<path d="M 4150.1315 2610.0008 4276.3679 2861.4604 4097.902 2971.4447 3911.9385 3039.9217 3819.978 2754.2207 4150.1315 2610.0008 Z" fill="none" stroke="#E71E24" opacity="0.6" stroke-width="1" class="middle_village"/>
<path d="M 4153.8271 2606.3087 4279.1607 2871.5972 4105.3081 2972.3563 4164.4895 2933.5458 4116.3811 2948.3679 3937.5083 2758.6913 4153.8271 2606.3087 Z" fill="none" stroke="#E71E24" opacity="0.6" stroke-width="1" class="middle_village"/>
<path d="M 4146.448 2621.9882 4263.3876 2846.7303 4108.0627 2956.6779 3913.3887 2709.8653 4146.448 2621.9882 Z" fill="none" stroke="#E71E24" opacity="0.6" stroke-width="1" class="middle_village"/>
<path d="M 3847.6634 2874.1188 3836.5228 2843.708 3951.1814 2763.3682 4075.952 2691.8304 4161.5156 2637.4285 4285.8998 2864.7244 4124.6636 2954.1071 4040.344 2959.3257 3960.8733 2926.2093 3856.9146 2869.5676 3847.6634 2874.1188 Z" fill="none" stroke="#E71E24" opacity="0.6" stroke-width="1" class="middle_village"/>
<path d="M 3839.5486 2874.9652 3810.716 2746.8565 3864.3292 2696.0971 4151.9834 2610.9198 4279.1488 2864.2217 4117.3186 2956.6647 4015.5221 2970.6353 3839.5486 2874.9652 Z" fill="none" stroke="#E71E24" opacity="0.6" stroke-width="1" class="middle_village"/>
<path d="M 4152.9492 2638.5693 4168.7789 2705.8333 4191.9557 2734.3741 4217.0002 2773.0525 4269.8527 2838.4229 4277.2801 2853.1616 4278.2189 2861.4574 4246.7839 2881.7899 4219.051 2903.038 4164.4703 2920.638 4121.0064 2946.5173 4110.8394 2956.674 4088.6253 2956.7053 4064.4979 2911.5609 4052.4168 2875.6211 4006.1474 2880.2927 3987.6359 2879.3949 3854.1739 2716.388 3889.3077 2691.4589 3929.1003 2694.176 3956.8381 2676.628 3980.8738 2659.0843 4015.0976 2649.8224 4065.0542 2643.3029 4096.4839 2622.0599 4130.7039 2611.8725 4140.9153 2634.9001 4152.9492 2638.5693 Z" fill="none" stroke="#E71E24" opacity="0.6" stroke-width="1" class="middle_village"/>
<path d="M 3889.8072 2722.3378 3899.0331 2699.2823 3917.5381 2697.8772 3948.752 2684.934 3996.5981 2654.6858 4056.4998 2646.5407 4116.1464 2622.4929 4150.1744 2639.2647 4162.9638 2684.4108 4213.2897 2767.2967 4140.9269 2801.7439 4149.5791 2864.4205 4167.0197 2923.4002 4178.8644 2952.6561 4077.2936 2961.5618 4004.1756 2964.6571 3949.9906 2934.7611 3866.8677 2889.2239 3867.5465 2876.0854 3897.6273 2877.4327 3871.416 2821.4574 3928.2873 2785.4361 3897.684 2731.7768 3903.4612 2726.4696 3889.8072 2722.3378 Z" fill="none" stroke="#E71E24" opacity="0.6" stroke-width="1" class="middle_village"/>
<path d="M 4007.2441 2658.5892 4039.6214 2652.5548 4112.6826 2626.6454 4146.4797 2643.6482 4187.7977 2738.5285 4275.9044 2861.0002 4086.7735 2956.2469 3956.6981 2932.4477 3842.7826 2870.3518 3838.1278 2846.3871 3948.174 2777.5757 4001.7973 2738.7903 3986.8995 2667.8331 4040.0866 2654.3976 4007.2441 2658.5892 Z" fill="none" stroke="#E71E24" opacity="0.6" stroke-width="1" class="middle_village"/>
<path d="M 4151.6288 2612.0199 4197.1463 2730.8569 4207.3887 2772.3233 4287.0669 2862.78 4242.6791 2885.899 4005.1078 2903.3983 3991.0541 2886.0598 3910.3138 2704.5541 4151.6288 2612.0199 Z" fill="none" stroke="#E71E24" opacity="0.6" stroke-width="1" class="middle_village"/>
<path d="M 3940.0744 2775.7421 3873.0345 2820.5336 3895.5435 2876.2828 4149.0212 2641.5707 4149.3504 2866.2647 4278.223 2863.9927 3940.0744 2775.7421 Z" fill="none" stroke="#E71E24" opacity="0.6" stroke-width="1" class="middle_village"/>
<path d="M 3847.4022 2863.432 3857.5981 2876.7884 3853.9147 2892.9267 3832.6302 2895.2559 3827.973 2868.9857 3847.4022 2863.432 Z" fill="none" stroke="#E71E24" opacity="0.6" stroke-width="1" class="middle_village"/>
<path d="M 4275.4203 2847.6331 4277.7653 2867.1419 4221.9796 2902.5725 4165.5529 2923.5544 4115.9308 2957.1277 4012.5863 2965.8769 3988.5159 2962.2203 3950.8396 2936.4519 3837.5454 2875.4284 3831.8103 2849.4642 4126.4609 2665.9555 4151.1009 2640.1113 4173.4102 2708.8959 4275.4203 2847.6331 Z" fill="none" stroke="#E71E24" opacity="0.6" stroke-width="1" class="middle_village"/>
<path d="M 4281.9179 2859.6076 4249.5546 2878.0978 4118.2455 2957.5854 3997.9248 2962.3602 3947.9092 2935.6857 3842.3314 2880.4937 3840.0134 2876.8085 3835.1219 2848.0038 4006.6559 2739.0144 4016.1315 2731.8579 4012.3874 2699.6003 4110.3642 2622.962 4150.1761 2640.4168 4148.3606 2664.3843 4107.7364 2727.1231 4172.4693 2698.4536 4215.148 2772.1335 4281.9179 2859.6076 Z" fill="none" stroke="#E71E24" opacity="0.6" stroke-width="1" class="middle_village"/>
<path d="M 3906.931 2726.2349 3948.0785 2701.2961 3992.7321 2705.848 4080.6169 2689.3683 4141.863 2650.3374 4149.7114 2639.0349 4189.1816 2735.761 4280.5223 2855.0003 4277.5311 2865.3767 4252.5676 2881.3198 4163.6936 2864.8607 3990.1847 2882.1574 3906.931 2726.2349 Z" fill="none" stroke="#E71E24" opacity="0.6" stroke-width="1" class="middle_village"/>
<path d="M 4149.2532 2642.0312 3927.3627 2786.1286 3830.4957 2849.1615 3809.0993 2749.3933 3881.6827 2699.0725 4034.9934 2651.4089 4111.7511 2622.2687 4149.2532 2642.0312 Z" fill="none" stroke="#E71E24" opacity="0.6" stroke-width="1" class="middle_village"/>
<path d="M 3940.7736 2779.8896 4065.1297 2698.1465 4117.0679 2781.4974 4173.6455 2866.6897 3991.3421 2882.6169 3926.5503 2878.089 3906.5549 2797.9077 3940.7736 2779.8896 Z" fill="none" stroke="#E71E24" opacity="0.6" stroke-width="1" class="middle_village"/>
<path d="M 3989.4917 2883.0803 3975.26 2881.6004 3960.9145 2881.6187 3956.892 2902.7136 3952.5229 2924.3855 3949.7575 2933.3784 3940.033 2928.5501 3925.6837 2926.0324 3920.1239 2920.7378 3904.7264 2912.3434 3894.7685 2905.4405 3885.9708 2901.1869 3876.5918 2894.3985 3867.4468 2889.7994 3861.6583 2886.3489 3855.0587 2881.7467 3849.6172 2878.1805 3843.7145 2875.9976 3838.1608 2875.4277 3835.3748 2867.0182 3834.0919 2857.9156 3831.6499 2846.7401 3858.4704 2830.8066 3872.9201 2821.6861 3895.6928 2807.7157 3914.7651 2795.3626 3928.751 2786.2422 3940.077 2777.8163 3928.0259 2761.0076 3918.5214 2745.3483 3912.9578 2736.0217 3909.0176 2729.9196 3907.6244 2725.658 3904.2616 2718.7486 3904.252 2710.7982 3902.1614 2703.6569 3901.2328 2701.008 3913.9574 2701.9143 3926.3309 2699.5948 3938.5876 2696.3534 3950.261 2689.1952 3960.4298 2681.4627 3972.4485 2673.2669 3981.6925 2666.1115 3994.1746 2658.8367 4003.1932 2656.5206 4018.342 2654.3115 4033.2594 2652.1025 4039.97 2653.7065 4042.4045 2657.851 4045.6508 2663.6074 4063.3874 2692.8488 4074.0251 2690.184 4085.4749 2689.3615 4152.2604 2642.0268 4163.8822 2679.6855 4175.0236 2704.9022 4184.535 2722.6323 4192.8789 2732.99 4210.7311 2758.3128 4217.6889 2769.5945 4226.2669 2781.2196 4233.3395 2791.6947 4239.2506 2799.0605 4246.2066 2808.7292 4253.9742 2819.5491 4270.7778 2838.1909 4277.6209 2849.2429 4279.0261 2859.8428 4278.4551 2864.4533 4276.145 2866.7618 4270.7117 2869.3058 4266.4364 2872.5394 4253.7296 2884.5448 4198.8713 2870.57 4173.8762 2866.2284 4155.1348 2866.2562 4139.632 2865.8179 4123.2067 2867.455 4102.3865 2870.0201 4039.4628 2877.9435 4023.2688 2879.8091 4005.4569 2883.0595 3989.4917 2883.0803 Z" fill="none" stroke="#E71E24" opacity="0.6" stroke-width="1" class="middle_village"/>
<path d="M 3903.6659 2704.3465 3907.3661 2703.4202 4145.0453 2611.8516 4274.5191 2862.8462 3993.6529 2880.309 3901.352 2703.8884 3903.6659 2704.3465 Z" fill="none" stroke="#E71E24" opacity="0.6" stroke-width="1" class="middle_village"/>
<path d="M 4275.711 2884.7404 3787.4872 2873.64 3895.3378 2704.3565 4157.3728 2657.919 4274.5534 2884.2813 4275.711 2884.7404 Z" fill="none" stroke="#E71E24" opacity="0.6" stroke-width="1" class="middle_village"/>
<path d="M 3991.3308 2873.8585 3903.1949 2697.4337 4042.3992 2653.9336 4155.5982 2866.7165 3991.3308 2873.8585 Z" fill="none" stroke="#E71E24" opacity="0.6" stroke-width="1" class="middle_village"/>
<path d="M 3995.0364 2876.6195 3984.8272 2854.5063 3974.6067 2823.1747 3946.8038 2791.8661 3921.7755 2757.7889 3902.2956 2719.0966 3915.227 2699.7236 3949.4472 2685.8548 3980.8833 2666.4582 4000.2857 2644.3116 4012.3229 2650.7478 4050.246 2640.5581 4083.5393 2628.53 4111.2724 2610.9787 4133.457 2596.2 4152.891 2598.9366 4159.3976 2619.2041 4161.2876 2645.9308 4168.7447 2682.7892 4189.1406 2708.5681 4215.1197 2753.6969 4233.6676 2779.4797 4260.5528 2809.859 4286.5098 2837.4743 4273.615 2876.2158 4227.3252 2867.0692 4181.0419 2861.6081 4114.4114 2865.3933 4057.9724 2877.4574 3995.0364 2876.6195 Z" fill="none" stroke="#E71E24" opacity="0.6" stroke-width="1" class="middle_village"/>
<path d="M 3750.6045 2783.7944 4160.297 2601.6907 4318.9847 2888.1276 3783.0816 2864.8864 3750.6045 2783.7944 Z" fill="none" stroke="#E71E24" opacity="0.6" stroke-width="1" class="middle_village"/>
<path d="M 3831.1867 2846.3949 4126.6154 2663.9551 4151.564 2640.4148 4159.9412 2674.0456 4212.8274 2767.5279 4142.0824 2800.8203 4149.117 2864.8821 4005.6877 2882.5982 3835.3848 2875.8918 3831.1867 2846.3949 Z" fill="none" stroke="#E71E24" opacity="0.6" stroke-width="1" class="middle_village"/>
<path d="M 4151.0568 2609.9995 4148.3202 2636.7327 4154.8283 2657.9227 4170.6145 2695.6911 4192.8824 2735.2945 4272.6306 2839.3403 4280.0699 2861.4545 4254.1793 2876.2466 4229.2205 2895.6466 4177.4198 2915.0868 4137.6574 2940.0392 4112.6919 2957.5934 4001.6344 2967.8875 3839.5496 2875.8871 3833.9673 2850.0795 3939.3855 2779.8913 3906.0071 2727.3883 3902.2756 2702.5046 3933.7315 2697.8573 3979.0303 2664.6171 3998.452 2657.2181 4054.8837 2648.8472 4115.9118 2620.189 4151.0568 2609.9995 Z" fill="none" stroke="#E71E24" opacity="0.6" stroke-width="1" class="middle_village"/>
<path d="M 4277.9942 2865.6065 4264.127 2875.3089 4164.2427 2923.1738 4122.398 2948.8203 4107.139 2958.0623 4088.392 2955.3226 4084.223 2952.5624 4070.0881 2938.2909 4062.6496 2913.6379 4015.2144 2913.0104 3983.7596 2923.6543 3939.3351 2925.5545 3901.5995 2909.6965 3860.8441 2882.5468 3836.3093 2874.9689 3829.3412 2851.2371 3833.2683 2845.7012 3867.0185 2820.0797 3894.9085 2732.2411 3928.6436 2699.0158 3962.3944 2680.0776 3997.5243 2655.3758 4024.3523 2651.1927 4048.6321 2644.4775 4115.2202 2621.8029 4151.5573 2635.8062 4159.4599 2661.3724 4173.8697 2706.7475 4191.7184 2730.4568 4217.2227 2767.2907 4244.5863 2808.2708 4272.4011 2840.4931 4277.9942 2865.6065 Z" fill="none" stroke="#E71E24" opacity="0.6" stroke-width="1" class="middle_village"/>
<path d="M 4280.0551 2852.2352 4255.115 2882.6987 4001.515 2876.611 3908.7463 2696.9661 3934.6466 2689.5603 4110.3694 2626.6487 4162.2552 2674.503 4163.1655 2664.3625 4156.6476 2636.7205 4119.6102 2618.3403 4131.6652 2636.7569 4280.0551 2852.2352 Z" fill="none" stroke="#E71E24" opacity="0.6" stroke-width="1" class="middle_village"/>
<path d="M 3845.1048 2877.7247 3811.6495 2754.23 4148.2824 2610.9252 4269.9056 2871.612 3845.1048 2877.7247 Z" fill="none" stroke="#E71E24" opacity="0.6" stroke-width="1" class="middle_village"/>
<path d="M 4188.9593 2588.2838 4368.6201 2686.1581 4411.7264 2731.2512 4251.4085 2879.9387 3994.5821 2883.0737 3924.7004 2879.0133 3833.9924 2872.2057 3807.9256 2733.9542 4188.9593 2588.2838 Z" fill="none" stroke="#E71E24" opacity="0.6" stroke-width="1" class="middle_village"/>
<path d="M 4276.7092 2864.7991 4166.2581 2922.8739 4115.9263 2956.1508 4100.0512 2957.2896 4089.2925 2958.2268 3950.7169 2935.4711 3921.0953 2916.8053 3867.9661 2881.332 3869.4626 2874.8766 3837.2448 2875.0291 3831.2723 2847.8308 3871.4124 2822.2427 3927.0921 2785.1692 3897.8078 2730.414 3901.0804 2701.823 3991.5088 2662.9971 3992.9395 2705.5636 4068.3618 2701.1775 4084.6244 2689.7922 4135.5991 2704.153 4156.1368 2658.7391 4276.7092 2864.7991 Z" fill="none" stroke="#E71E24" opacity="0.6" stroke-width="1" class="middle_village"/>
<path d="M 4139.9632 2616.4675 4190.098 2729.7679 3992.1856 2819.4645 4003.0894 2665.5076 4139.9632 2616.4675 Z" fill="none" stroke="#E71E24" opacity="0.6" stroke-width="1" class="middle_village"/>
<path d="M 4161.2359 2610.9062 4015.122 2668.257 4168.6529 2621.0338 4199.367 2739.8937 4282.8612 2870.6693 4178.3536 2920.6173 4091.4098 2962.2336 3952.5487 2944.9 3840.473 2874.0422 3816.2672 2745.9285 3892.0903 2696.9862 4054.8887 2652.5341 4161.2359 2610.9062 Z" fill="none" stroke="#E71E24" opacity="0.6" stroke-width="1" class="middle_village"/>
<path d="M 3829.6631 2818.6083 3842.7474 2799.2405 3840.9612 2794.7582 3850.9249 2793.4145 3846.2788 2776.8264 3811.777 2749.6712 3834.7803 2749.0269 3846.6646 2744.4078 3867.0224 2743.9233 3879.7923 2747.1121 3893.8865 2732.116 3904.2802 2718.2766 3913.1301 2709.119 3926.6891 2712.6416 3946.3505 2710.7737 3966.6467 2717.3444 3984.9272 2721.0081 4009.7109 2744.0208 3998.3978 2770.2211 4009.3682 2800.7042 4009.9379 2816.2458 4025.9102 2822.4473 4034.2771 2850.5542 4021.3387 2864.4003 3977.3597 2850.9396 3973.4415 2862.6991 3948.2448 2881.1698 3922.8302 2878.2549 3933.7053 2878.472 3945.4486 2880.3135 3919.8628 2856.2783 3898.0047 2878.2297 3841.5096 2875.6424 3839.8421 2869.4394 3808.9994 2747.7415 3818.0412 2765.0157 3820.3622 2777.1348 3829.6631 2818.6083 Z" fill="none" stroke="#E71E24" opacity="0.6" stroke-width="1" class="middle_village"/>
<path d="M 4282.8967 2892.796 4453.2446 2921.0881 3905.4655 3045.4621 3840.473 2874.0422 4282.8967 2892.796 Z" fill="none" stroke="#E71E24" opacity="0.6" stroke-width="1" class="middle_village"/>
<path d="M 3989.36 2870.7495 3980.9234 2842.7027 3980.5946 2843.8026 3982.4841 2848.1846 3986.6888 2862.686 3988.8851 2861.3003 3989.36 2870.7495 Z" fill="none" stroke="#E71E24" opacity="0.6" stroke-width="1" class="middle_village"/>
<path d="M 4103.4308 2953.9184 3999.7676 2955.9036 3797.8966 2871.3239 4015.211 2735.5463 4015.1232 2669.1787 4039.1675 2659.0075 4143.6615 2614.6187 4156.6585 2644.0942 4198.4263 2729.7553 4270.7973 2850.4062 4160.7572 2913.2676 4103.4308 2953.9184 Z" fill="none" stroke="#E71E24" opacity="0.6" stroke-width="1" class="middle_village"/>
<path d="M 3811.6475 2752.3864 3912.4521 2700.6487 4148.2918 2617.377 4168.7693 2699.3809 4279.1252 2849.471 4299.685 2972.0606 3911.0173 3043.6112 3811.6475 2752.3864 Z" fill="none" stroke="#E71E24" opacity="0.6" stroke-width="1" class="middle_village"/>
<path d="M 4148.6536 2864.4218 3990.4136 2880.3132 3984.8118 2842.5215 3907.8377 2710.7939 3997.5387 2666.4366 4062.2885 2650.6805 4145.5147 2616.4594 4207.7334 2764.7702 4142.0797 2798.9766 4148.6536 2864.4218 Z" fill="none" stroke="#E71E24" opacity="0.6" stroke-width="1" class="middle_village"/>
<path d="M 4020.7608 2733.6953 3972.6038 2704.2609 4147.4192 2653.3249 4155.9653 2801.7219 4132.9214 2865.3667 3980.2282 2876.6386 3983.7935 2770.6166 3975.4235 2738.3635 3977.2554 2723.6124 3980.0184 2713.4691 4020.7608 2733.6953 Z" fill="none" stroke="#E71E24" opacity="0.6" stroke-width="1" class="middle_village"/>
<path d="M 4044.698 2643.3307 4107.1267 2623.6578 4152.2583 2640.6442 4163.4142 2676.1144 4199.1413 2743.5813 4229.5125 2785.4782 4262.6664 2829.6762 4282.9823 2946.0405 3911.7419 2877.8766 4001.9179 2654.2179 4044.698 2643.3307 Z" fill="none" stroke="#E71E24" opacity="0.6" stroke-width="1" class="middle_village"/>
<path d="M 4183.3042 2728.1014 4276.1016 2891.1299 3685.1662 2860.8234 3944.9813 2641.2328 4105.6994 2616.7656 4154.7705 2638.8155 4173.3984 2720.8238 4183.3042 2728.1014 Z" fill="none" stroke="#E71E24" opacity="0.6" stroke-width="1" class="middle_village"/>
<path d="M 4008.6303 2657.2047 4048.4092 2650.6995 4112.2134 2622.0376 4149.2454 2636.7313 4156.7019 2673.5895 4188.2486 2730.6925 4273.5708 2848.558 4274.5272 2867.9169 4220.9035 2903.9571 4168.1712 2919.7105 4111.7677 2958.5167 4092.3315 2959.4662 4070.9665 2904.1762 4065.3727 2874.6814 3962.6459 2878.505 3838.6199 2872.2004 3830.2644 2849.1617 3940.3086 2778.0464 4004.1077 2736.4827 4001.2375 2664.5883 4008.6303 2657.2047 Z" fill="none" stroke="#E71E24" opacity="0.6" stroke-width="1" class="middle_village"/>
<path d="M 3901.7204 2702.5053 4006.839 2702.373 4168.9728 2711.7324 4168.9673 2708.0453 4216.4345 2766.2318 4284.0954 2947.56 4093.8107 2958.1733 4091.5986 2964.815 4059.6388 2877.8239 3990.047 2883.0796 3901.7204 2702.5053 Z" fill="none" stroke="#E71E24" opacity="0.6" stroke-width="1" class="middle_village"/>
<path d="M 3809.7947 2750.5448 4035.4502 2647.0301 4150.5019 2862.5753 3838.1608 2875.4277 3809.7947 2750.5448 Z" fill="none" stroke="#E71E24" opacity="0.6" stroke-width="1" class="middle_village"/>
<path d="M 3947.9127 2938.4517 3703.4942 2870.5004 3817.1382 2697.0726 3816.218 2701.6825 4148.2932 2618.2987 4279.1414 2859.6121 3947.9127 2938.4517 Z" fill="none" stroke="#E71E24" opacity="0.6" stroke-width="1" class="middle_village"/>
<path d="M 3942.7648 2833.8683 3962.6479 2879.3789 3836.7666 2869.3887 3812.5696 2748.6501 3892.1165 2718.1391 4142.7651 2612.2097 4278.6333 2855.5343 3966.9208 2882.1227 3942.7648 2833.8683 Z" fill="none" stroke="#E71E24" opacity="0.6" stroke-width="1" class="middle_village"/>
<path d="M 4278.2248 2865.1451 4112.688 2954.8273 4003.4808 2964.197 3816.3944 2860.2403 3937.5324 2778.0499 3899.5018 2704.3515 3986.422 2656.312 4058.5785 2644.2335 4106.6605 2621.1238 4151.1014 2640.4155 4169.7015 2703.9884 4273.5605 2842.1046 4278.2248 2865.1451 Z" fill="none" stroke="#E71E24" opacity="0.6" stroke-width="1" class="middle_village"/>
<path d="M 3994.818 2708.8411 4162.2838 2693.8599 4275.5706 2941.6728 3867.3902 2940.3931 3994.818 2708.8411 Z" fill="none" stroke="#E71E24" opacity="0.6" stroke-width="1" class="middle_village"/>
<path d="M 4035.1378 2656.9178 4131.5843 2703.6165 4206.8663 2762.3065 4137.3935 2799.1493 4149.5134 2859.9768 3983.0733 2881.6899 3838.6887 2878.1772 3829.9662 2847.3081 3935.4829 2782.7805 3901.6277 2700.0101 4035.1378 2656.9178 Z" fill="none" stroke="#E71E24" opacity="0.6" stroke-width="1" class="middle_village"/>
<path d="M 3989.4917 2883.0803 3962.6482 2880.3488 3946.5209 2935.6875 3838.6194 2871.7395 3811.1812 2749.1605 3831.9795 2728.8575 3877.7487 2697.9249 3906.4363 2699.7342 3939.2761 2691.859 3992.8954 2653.5384 4056.2697 2647.4627 4146.8898 2607.7014 4148.7868 2639.4971 4159.4867 2679.5768 4173.8903 2720.5742 4211.9013 2767.0684 4165.6721 2794.7935 4140.6956 2801.7442 4147.7328 2867.6499 3989.4917 2883.0803 Z" fill="none" stroke="#E71E24" opacity="0.6" stroke-width="1" class="middle_village"/>
<path d="M 3827.5201 2877.7446 3836.7281 2836.2477 3934.7664 2786.35 3885.6217 2704.368 3945.7539 2692.3118 3984.5785 2661.8448 4018.8158 2662.7217 4115.9184 2624.7974 4150.1707 2636.73 4164.0922 2665.2829 4180.8236 2715.9549 4212.3788 2776.747 4140.2409 2807.2761 4170.9547 2924.3163 4117.3304 2964.9629 3998.8588 2968.8131 3959.0265 2943.9698 3827.5201 2877.7446 Z" fill="none" stroke="#E71E24" opacity="0.6" stroke-width="1" class="middle_village"/>
<path d="M 4175.2593 2707.8193 4274.7934 2843.3287 4277.9248 2868.5291 4219.9766 2903.0366 4167.5538 2921.5554 4114.5435 2957.895 4006.5663 2966.6547 3950.3793 2934.7607 3955.5884 2907.5555 4005.0555 2753.5351 4110.8494 2746.0157 4175.2593 2707.8193 Z" fill="none" stroke="#E71E24" opacity="0.6" stroke-width="1" class="middle_village"/>
<path d="M 4148.2783 2608.1602 4149.2299 2626.1318 4195.6551 2732.9858 4278.7193 2884.9661 3989.9533 2882.1577 3898.5721 2700.6655 4148.2783 2608.1602 Z" fill="none" stroke="#E71E24" opacity="0.6" stroke-width="1" class="middle_village"/>
<path d="M 3841.4017 2876.807 3810.7211 2751.4656 3879.1411 2701.6104 3904.1508 2722.7815 3944.8424 2703.3742 4131.7585 2701.2787 4152.051 2657.0051 4278.2233 2864.2232 4176.4956 2916.0102 4168.1684 2917.8665 3841.4017 2876.807 Z" fill="none" stroke="#E71E24" opacity="0.6" stroke-width="1" class="middle_village"/>
<path d="M 3837.6986 2875.8892 3809.3299 2748.7017 3879.5988 2697.4619 3899.9606 2701.1247 3927.7174 2698.3256 3939.7416 2694.1628 3951.3001 2687.696 3963.7803 2678.4627 3973.9505 2671.9976 3985.0424 2662.7659 3996.1406 2658.6037 4009.5513 2653.9775 4022.968 2653.9597 4037.3088 2653.0188 4059.0462 2647.9198 4067.832 2644.6817 4078.0018 2638.6765 4083.0882 2636.826 4095.5697 2629.8957 4107.1284 2624.81 4148.7436 2610.0029 4154.3656 2657.9234 4190.1056 2734.8378 4230.4444 2789.6251 4275.4255 2850.8598 4276.8698 2885.891 4173.6441 2865.7678 4135.2365 2866.2852 4086.6561 2872.347 4031.5965 2878.415 4002.4477 2882.1415 3837.6986 2875.8892 Z" fill="none" stroke="#E71E24" opacity="0.6" stroke-width="1" class="middle_village"/>
<path d="M 3965.276 2763.2656 4144.6083 2629.3645 4277.3185 2877.1318 4093.2688 2967.7631 3915.282 2744.8913 4141.858 2646.881 3931.9321 2739.3401 3965.276 2763.2656 Z" fill="none" stroke="#E71E24" opacity="0.6" stroke-width="1" class="middle_village"/>
<path d="M 3887.6728 2873.0654 3851.506 2810.4179 4125.2453 2676.4006 4154.2093 2866.2575 3887.6728 2873.0654 Z" fill="none" stroke="#E71E24" opacity="0.6" stroke-width="1" class="middle_village"/>
<path d="M 4281.4493 2855.9207 3835.3624 2856.0703 3831.2122 2868.982 3831.2086 2865.7553 3841.8145 2833.0153 3877.8953 2822.3717 3897.7727 2805.7542 3929.6726 2783.1298 3942.6221 2778.0436 3901.3525 2704.3492 3967.0277 2685.3718 3982.7404 2671.5254 4042.4023 2656.238 4039.1619 2654.8597 4156.6537 2640.8682 4254.1982 2888.2319 4281.4493 2855.9207 Z" fill="none" stroke="#E71E24" opacity="0.6" stroke-width="1" class="middle_village"/>
<path d="M 4112.6919 2957.5934 3998.8528 2964.203 3841.4048 2879.5728 3807.0185 2750.5478 3811.6373 2743.1682 3962.3795 2668.3253 4148.2986 2621.9855 4154.8418 2667.14 4274.5228 2865.1511 4190.3678 2908.6135 4112.6919 2957.5934 Z" fill="none" stroke="#E71E24" opacity="0.6" stroke-width="1" class="middle_village"/>
<path d="M 3928.3194 2743.1313 3922.6745 2741.8869 3905.9692 2701.8093 3983.2893 2671.3067 4142.52 2617.6827 4188.584 2738.6167 4241.8083 2799.8013 4273.8109 2846.7672 4166.1209 2922.1139 4115.4418 2954.9801 4081.2022 2960.0995 4063.1559 2873.556 3992.3588 2876.8774 3966.2647 2813.0446 3938.533 2770.7734 3928.3194 2743.1313 Z" fill="none" stroke="#E71E24" opacity="0.6" stroke-width="1" class="middle_village"/>
<path d="M 4276.3694 2862.3823 4226.451 2900.2607 4187.5287 2867.1299 3956.1638 2875.7473 3970.0241 2858.213 4025.5168 2830.4833 3981.919 2752.1824 4111.4208 2715.1346 4276.3694 2862.3823 Z" fill="none" stroke="#E71E24" opacity="0.6" stroke-width="1" class="middle_village"/>
<path d="M 4004.9472 2671.0356 4153.8799 2642.2548 4279.1414 2859.6121 3970.9696 2873.8847 4004.9472 2671.0356 Z" fill="none" stroke="#E71E24" opacity="0.6" stroke-width="1" class="middle_village"/>
<path d="M 4141.1583 2801.7436 4148.1888 2863.0396 3989.9497 2879.3919 3947.5977 2686.7789 4006.7094 2603.7485 4033.5959 2644.2674 4147.4016 2641.3426 4135.4532 2696.6645 4197.5694 2774.9259 4141.1583 2801.7436 Z" fill="none" stroke="#E71E24" opacity="0.6" stroke-width="1" class="middle_village"/></svg>