<?xml version="1.0"?><svg xmlns="http://www.w3.org/2000/svg" version="1.2" baseProfile="tiny" width="6000" height="5918" viewBox="0 0 6000 5918" stroke-linecap="round" stroke-linejoin="round"><path d="M 1791.1844 4879.6345 1785.6358 4863.923 1765.2327 4862.9778 1739.277 4850.9398 1729.0892 4837.9948 1723.0619 4837.0644 1718.2001 4830.5921 1706.1487 4825.9596 1660.755 4783.1815 1729.6846 4717.6728 1846.6485 4830.7256 1803.2296 4891.4264 1791.1844 4879.6345 Z" fill="none" stroke="#12852D" opacity="0.6" stroke-width="1" class="midland_beach"/>
<path d="M 1759.8348 4924.1801 1625.6858 4833.4877 1680.0227 4761.726 1819.4973 4854.7188 1759.8348 4924.1801 Z" fill="none" stroke="#12852D" opacity="0.6" stroke-width="1" class="midland_beach"/>
<path d="M 1763.778 4923.0294 1744.3141 4910.0737 1719.7506 4896.1883 1693.335 4880.4526 1669.7047 4862.872 1645.6116 4845.2905 1623.3675 4833.254 1637.7641 4815.2566 1650.3049 4797.719 1667.9532 4773.7211 1687.4511 4753.4206 1695.3163 4768.6717 1713.8482 4782.5492 1723.5816 4786.2551 1740.266 4794.1256 1748.1339 4807.9911 1764.8198 4814.9375 1787.5308 4825.1233 1797.7202 4837.1437 1813.0126 4847.3215 1820.8912 4851.9486 1836.6764 4833.0254 1859.4116 4819.19 1890.9607 4800.7434 1917.4068 4783.6772 1935.9755 4759.6755 1922.9892 4763.3591 1763.778 4923.0294 Z" fill="none" stroke="#12852D" opacity="0.6" stroke-width="1" class="midland_beach"/>
<path d="M 1758.2114 4924.4093 1619.1874 4838.792 1777.4927 4668.5368 1917.4197 4769.3586 1765.1673 4924.8787 1758.2114 4924.4093 Z" fill="none" stroke="#12852D" opacity="0.6" stroke-width="1" class="midland_beach"/>
<path d="M 1789.7846 4887.9481 1767.4905 4920.7235 1641.4453 4839.2806 1624.7601 4832.1009 1679.7918 4760.9174 1821.3552 4851.7181 1789.7846 4887.9481 Z" fill="none" stroke="#12852D" opacity="0.6" stroke-width="1" class="midland_beach"/>
<path d="M 1767.2033 4973.1571 1624.7258 4860.5092 1695.5489 4767.9791 1759.7227 4811.4678 1783.4054 4778.9287 1869.8085 4857.7703 1767.2033 4973.1571 Z" fill="none" stroke="#12852D" opacity="0.6" stroke-width="1" class="midland_beach"/>
<path d="M 1584.343 4891.4096 1667.9513 4775.3377 1716.4653 4722.2768 1757.9237 4759.0408 1773.1999 4783.0751 1835.7637 4818.0123 1838.526 4838.3393 1789.5558 4884.9452 1785.1396 4895.3344 1768.1871 4919.8003 1709.6915 4975.6357 1654.3135 4937.9211 1645.0448 4932.3665 1632.7617 4926.8083 1625.5799 4921.4871 1617.239 4915.9335 1607.5075 4909.9162 1598.4689 4906.2095 1594.3028 4899.968 1589.903 4895.343 1584.343 4891.4096 Z" fill="none" stroke="#12852D" opacity="0.6" stroke-width="1" class="midland_beach"/>
<path d="M 1803.0935 4797.1939 1847.5772 4829.3407 1763.7746 4926.2631 1624.0645 4832.1 1679.7932 4759.7627 1770.3741 4824.6435 1803.0935 4797.1939 Z" fill="none" stroke="#12852D" opacity="0.6" stroke-width="1" class="midland_beach"/>
<path d="M 1627.0761 4834.1823 1720.8698 4722.5126 1845.0255 4830.724 1759.5993 4927.6445 1627.0761 4834.1823 Z" fill="none" stroke="#12852D" opacity="0.6" stroke-width="1" class="midland_beach"/>
<path d="M 1650.8134 4799.8028 1657.7932 4787.7647 1801.4435 4880.3056 1762.4328 4933.8517 1624.345 4839.4587 1650.8134 4799.8028 Z" fill="none" stroke="#12852D" opacity="0.6" stroke-width="1" class="midland_beach"/>
<path d="M 1938.743 4776.3058 1944.7685 4779.0824 1751.6387 4999.2432 1577.8477 4893.7112 1659.5944 4784.3349 1769.6172 4662.5247 1938.743 4776.3058 Z" fill="none" stroke="#12852D" opacity="0.6" stroke-width="1" class="midland_beach"/>
<path d="M 1657.7462 4778.79 1918.8107 4769.3599 1790.2569 4879.6336 1708.9274 4829.1961 1711.4773 4829.6608 1693.8777 4810.7027 1686.9348 4799.6091 1665.1523 4789.8841 1657.7462 4778.79 Z" fill="none" stroke="#12852D" opacity="0.6" stroke-width="1" class="midland_beach"/>
<path d="M 1630.7881 4832.3391 1683.5024 4759.8824 1838.5251 4839.2631 1767.0282 4919.3371 1630.7881 4832.3391 Z" fill="none" stroke="#12852D" opacity="0.6" stroke-width="1" class="midland_beach"/>
<path d="M 1762.3809 4928.5714 1615.0106 4841.5584 1711.5935 4725.2735 1848.7352 4830.7276 1762.3809 4928.5714 Z" fill="none" stroke="#12852D" opacity="0.6" stroke-width="1" class="midland_beach"/>
<path d="M 1818.8054 4851.0227 1765.3977 4926.2648 1623.829 4835.1022 1680.7238 4756.877 1818.8054 4851.0227 Z" fill="none" stroke="#12852D" opacity="0.6" stroke-width="1" class="midland_beach"/>
<path d="M 1859.6289 4822.7617 1766.2347 4927.2968 1623.2383 4834.6788 1727.5487 4712.922 1859.6289 4822.7617 Z" fill="none" stroke="#12852D" opacity="0.6" stroke-width="1" class="midland_beach"/>
<path d="M 1658.2017 4785.719 1769.1512 4664.8334 1923.9149 4765.2075 1793.036 4882.87 1793.0322 4886.5656 1658.2017 4785.719 Z" fill="none" stroke="#12852D" opacity="0.6" stroke-width="1" class="midland_beach"/>
<path d="M 1678.1166 4806.5276 1674.4314 4785.2759 1692.0831 4757.5828 1735.725 4705.9019 1777.499 4662.5329 1778.406 4681.9312 1827.5216 4712.4634 1833.0781 4719.8587 1884.0616 4740.2297 1912.7824 4769.8164 1909.0345 4812.3076 1858.9147 4853.8335 1818.0783 4882.4335 1780.0634 4871.3081 1719.8272 4826.8986 1678.1166 4806.5276 Z" fill="none" stroke="#12852D" opacity="0.6" stroke-width="1" class="midland_beach"/>
<path d="M 1583.4155 4891.4084 1772.8597 4665.2991 1936.8818 4783.6945 1752.103 4998.7817 1583.4155 4891.4084 Z" fill="none" stroke="#12852D" opacity="0.6" stroke-width="1" class="midland_beach"/>
<path d="M 1658.6673 4784.1029 1753.8351 4680.0578 1923.6827 4765.6691 1789.7853 4887.2552 1658.6673 4784.1029 Z" fill="none" stroke="#12852D" opacity="0.6" stroke-width="1" class="midland_beach"/>
<path d="M 1782.7671 4947.0716 1621.5105 4835.0994 1691.1641 4750.1917 1814.3926 4858.4091 1833.8636 4863.9717 1782.7671 4947.0716 Z" fill="none" stroke="#12852D" opacity="0.6" stroke-width="1" class="midland_beach"/>
<path d="M 1922.9867 4766.1304 1744.6842 4996.9257 1577.8517 4890.4776 1656.8123 4784.3316 1770.0789 4664.3725 1922.9867 4766.1304 Z" fill="none" stroke="#12852D" opacity="0.6" stroke-width="1" class="midland_beach"/>
<path d="M 1847.8077 4830.7267 1760.5356 4919.3302 1627.0784 4832.3346 1716.226 4728.9736 1847.8077 4830.7267 Z" fill="none" stroke="#12852D" opacity="0.6" stroke-width="1" class="midland_beach"/>
<path d="M 1749.6256 4714.2304 1768.1816 4705.013 1838.6348 4727.254 1875.7399 4714.3574 1897.9835 4727.3102 1916.4836 4779.0575 1923.8903 4792.921 1922.9423 4816.0153 1918.7624 4823.4022 1821.733 4937.8718 1760.4905 4961.8314 1636.238 4928.4294 1597.3597 4865.5571 1508.4831 4745.3479 1664.384 4653.1714 1749.6256 4714.2304 Z" fill="none" stroke="#12852D" opacity="0.6" stroke-width="1" class="midland_beach"/>
<path d="M 1635.4252 4832.3446 1643.7928 4814.8018 1662.3766 4784.3381 1678.1579 4770.4997 1699.4822 4775.1428 1829.2336 4856.5762 1764.2486 4916.5624 1635.4252 4832.3446 Z" fill="none" stroke="#12852D" opacity="0.6" stroke-width="1" class="midland_beach"/>
<path d="M 1659.1302 4784.7963 1570.6383 4726.9535 1665.3488 4620.8449 1931.3326 4766.5997 1794.4211 4888.8767 1659.1302 4784.7963 Z" fill="none" stroke="#12852D" opacity="0.6" stroke-width="1" class="midland_beach"/>
<path d="M 1620.8174 4833.0199 1681.1841 4759.8798 1819.0345 4853.7945 1761.9178 4927.878 1620.8174 4833.0199 Z" fill="none" stroke="#12852D" opacity="0.6" stroke-width="1" class="midland_beach"/>
<path d="M 1629.8595 4833.2618 1672.5959 4768.6457 1827.3925 4842.7166 1763.3113 4925.8006 1629.8595 4833.2618 Z" fill="none" stroke="#12852D" opacity="0.6" stroke-width="1" class="midland_beach"/></svg>