<?xml version="1.0"?><svg xmlns="http://www.w3.org/2000/svg" version="1.2" baseProfile="tiny" width="6000" height="5918" viewBox="0 0 6000 5918" stroke-linecap="round" stroke-linejoin="round"><path d="M 3569.7728 988.742 3552.9016 971.5043 3648.8349 837.3248 3800.3545 895.1302 3714.3558 1018.5117 3598.6478 1000.6785 3569.7728 988.742 Z" fill="none" stroke="#865327" opacity="0.6" stroke-width="1" class="morris_heights"/>
<path d="M 3643.9227 2878.9704 3674.2188 2863.9602 3702.9115 2866.237 3733.0136 2889.0248 3736.2627 2898.4715 3711.6528 2930.8809 3703.3165 2924.5506 3668.7664 2969.1864 3644.3363 2950.5385 3632.6653 2966.3389 3595.0372 2937.0988 3643.9227 2878.9704 Z" fill="none" stroke="#865327" opacity="0.6" stroke-width="1" class="morris_heights"/>
<path d="M 3702.8231 799.7847 3815.5603 865.4432 3722.4131 993.8901 3576.4652 983.9057 3702.8231 799.7847 Z" fill="none" stroke="#865327" opacity="0.6" stroke-width="1" class="morris_heights"/>
<path d="M 3596.3364 998.1502 3566.7782 997.2557 3576.9148 969.6438 3629.4999 901.5125 3683.9998 910.6613 3596.3364 998.1502 Z" fill="none" stroke="#865327" opacity="0.6" stroke-width="1" class="morris_heights"/>
<path d="M 3591.306 1003.3496 3594.4953 965.3565 3594.9057 983.494 3591.306 1003.3496 Z" fill="none" stroke="#865327" opacity="0.6" stroke-width="1" class="morris_heights"/>
<path d="M 3763.1599 875.3901 3689.8584 998.5232 3544.6069 993.3637 3659.1292 858.7045 3763.1599 875.3901 Z" fill="none" stroke="#865327" opacity="0.6" stroke-width="1" class="morris_heights"/>
<path d="M 3607.6883 876.1766 3699.979 743.2752 3868.1851 751.3724 3791.7388 933.6131 3607.6883 876.1766 Z" fill="none" stroke="#865327" opacity="0.6" stroke-width="1" class="morris_heights"/>
<path d="M 3569.9953 978.8507 3651.1458 839.6225 3666.6187 843.7477 3674.4714 846.7301 3690.8685 851.314 3705.1859 854.0598 3714.8869 857.96 3733.5976 866.9109 3741.6845 872.6525 3753.232 875.6305 3763.1585 874.0101 3753.7087 889.8902 3737.3373 911.0678 3723.9647 930.1725 3715.9057 952.4923 3705.3047 973.2049 3693.3154 991.6189 3680.3917 999.4525 3656.8394 1000.8553 3631.4388 1001.339 3608.81 1002.7397 3594.9493 996.3112 3581.0915 993.1029 3569.9953 978.8507 Z" fill="none" stroke="#865327" opacity="0.6" stroke-width="1" class="morris_heights"/>
<path d="M 3556.2105 990.729 3649.0865 840.2675 3760.7855 874.1087 3687.2081 998.2571 3556.2105 990.729 Z" fill="none" stroke="#865327" opacity="0.6" stroke-width="1" class="morris_heights"/>
<path d="M 3654.5141 983.8353 3658.2763 1055.1428 3651.8059 1050.5481 3598.2447 1067.1602 3582.5435 1069.9345 3552.9439 1022.1109 3547.8634 1021.8851 3606.9746 1016.0833 3609.7457 1016.0808 3654.5141 983.8353 Z" fill="none" stroke="#865327" opacity="0.6" stroke-width="1" class="morris_heights"/>
<path d="M 3571.3879 987.1305 3720.7726 742.2728 3835.287 751.3486 3866.6846 752.2323 3905.4753 757.7055 3933.1874 765.0307 3877.8982 864.4517 3848.8744 923.3668 3835.9775 952.8236 3813.8657 1002.534 3804.1682 1003.4649 3759.8259 997.9919 3724.7227 994.3478 3688.7016 996.224 3650.8312 996.2603 3612.9641 999.9756 3590.7928 996.3148 3571.3879 987.1305 Z" fill="none" stroke="#865327" opacity="0.6" stroke-width="1" class="morris_heights"/>
<path d="M 3869.4972 755.9564 3770.9173 947.2046 3608.3397 879.0428 3696.2294 754.3253 3869.4972 755.9564 Z" fill="none" stroke="#865327" opacity="0.6" stroke-width="1" class="morris_heights"/>
<path d="M 3555.1343 977.5776 3677.065 800.9728 3719.6866 750.4756 3788.8214 751.3765 3608.3686 997.3887 3586.1702 989.3653 3555.1343 977.5776 Z" fill="none" stroke="#865327" opacity="0.6" stroke-width="1" class="morris_heights"/>
<path d="M 3705.5056 1174.7275 3690.3155 993.6921 3774.3095 937.9405 3705.5056 1174.7275 Z" fill="none" stroke="#865327" opacity="0.6" stroke-width="1" class="morris_heights"/>
<path d="M 3688.7031 997.8342 3589.182 1002.7571 3560.9957 985.9891 3592.5822 930.2969 3616.1046 897.6146 3645.8816 888.847 3654.2043 900.1095 3668.2923 903.7762 3672.9261 920.3325 3687.9433 929.2884 3708.4893 925.1278 3714.7076 909.2508 3729.247 902.3358 3743.3339 904.6214 3688.7031 997.8342 Z" fill="none" stroke="#865327" opacity="0.6" stroke-width="1" class="morris_heights"/>
<path d="M 3630.9419 899.7751 3668.215 809.5018 3745.7379 761.5887 3739.8019 909.7248 3630.9419 899.7751 Z" fill="none" stroke="#865327" opacity="0.6" stroke-width="1" class="morris_heights"/>
<path d="M 3578.7247 926.3988 3642.3572 823.3014 3720.9031 871.0638 3672.9921 988.8783 3562.1419 976.097 3578.7247 926.3988 Z" fill="none" stroke="#865327" opacity="0.6" stroke-width="1" class="morris_heights"/>
<path d="M 3702.3517 790.126 3832.6229 845.1843 3734.8878 998.938 3576.0014 981.6058 3702.3517 790.126 Z" fill="none" stroke="#865327" opacity="0.6" stroke-width="1" class="morris_heights"/>
<path d="M 3756.5409 948.3101 3717.7492 948.8101 3787.1351 841.0949 3811.1682 860.6181 3791.1444 918.6012 3777.5451 940.6972 3769.4701 946.9163 3764.1593 946.9219 3756.5409 948.3101 Z" fill="none" stroke="#865327" opacity="0.6" stroke-width="1" class="morris_heights"/>
<path d="M 3200.3695 1622.003 3154.1442 1594.8621 3237.2541 1448.9046 3252.5143 1472.8316 3290.8769 1492.6037 3272.4112 1524.8354 3275.2196 1591.1217 3247.5199 1645.689 3216.5489 1631.4328 3200.3695 1622.003 Z" fill="none" stroke="#865327" opacity="0.6" stroke-width="1" class="morris_heights"/>
<path d="M 3802.3291 801.0604 3806.0245 802.4363 3804.4125 806.1178 3841.8311 821.4848 3839.2962 825.6275 3809.0378 813.2422 3806.0341 811.1756 3792.6734 838.5589 3782.0716 855.82 3767.3164 875.8457 3772.6221 871.47 3807.7364 889.142 3794.5867 899.2767 3782.5711 890.7795 3774.2536 885.7283 3766.1663 879.9869 3753.9449 894.95 3748.1796 901.6263 3772.9073 922.301 3768.758 928.7458 3756.5135 922.3184 3742.6443 907.6122 3744.726 911.0602 3737.8098 921.4178 3732.0477 931.5443 3722.1383 950.6458 3710.8435 970.209 3696.2905 964.4729 3722.3405 922.3537 3719.5588 911.546 3720.2379 898.2049 3742.401 895.6521 3755.5409 875.6281 3727.3698 872.8973 3726.6673 863.238 3739.1353 863.4552 3755.9983 871.4876 3802.5587 799.9103 3802.3291 801.0604 Z" fill="none" stroke="#865327" opacity="0.6" stroke-width="1" class="morris_heights"/>
<path d="M 3759.4643 874.014 3726.4205 847.5985 3755.4556 794.4413 3826.7463 752.2781 3759.4643 874.014 Z" fill="none" stroke="#865327" opacity="0.6" stroke-width="1" class="morris_heights"/>
<path d="M 3653.4488 833.4106 3876.0923 899.4142 3737.8429 1177.4556 3513.2849 1097.5981 3653.4488 833.4106 Z" fill="none" stroke="#865327" opacity="0.6" stroke-width="1" class="morris_heights"/></svg>