<?xml version="1.0"?><svg xmlns="http://www.w3.org/2000/svg" version="1.2" baseProfile="tiny" width="6000" height="5918" viewBox="0 0 6000 5918" stroke-linecap="round" stroke-linejoin="round"><path d="M 3740.8226 932.2253 3743.6527 940.3728 3747.278 930.7024 3738.4153 961.7948 3712.7667 974.9764 3718.7905 998.8933 3697.7541 985.5726 3740.8381 908.4026 3776.4863 940.3791 3722.5151 999.7816 3740.8226 932.2253 Z" fill="none" stroke="#012394" opacity="0.6" stroke-width="1" class="mount_hope"/>
<path d="M 3751.4369 925.3139 3767.1537 940.0183 3761.5717 901.8422 3769.8775 895.8532 3775.9083 921.6078 3778.2336 936.7862 3751.4369 925.3139 Z" fill="none" stroke="#012394" opacity="0.6" stroke-width="1" class="mount_hope"/>
<path d="M 3670.8137 1109.6143 3715.4698 1006.6004 3858.6538 1018.407 3748.2252 1291.0428 3598.2885 1254.7812 3670.8137 1109.6143 Z" fill="none" stroke="#012394" opacity="0.6" stroke-width="1" class="mount_hope"/>
<path d="M 3808.2346 922.0326 3823.2096 686.5127 3821.1387 898.5573 3788.8241 908.2532 3808.2346 922.0326 Z" fill="none" stroke="#012394" opacity="0.6" stroke-width="1" class="mount_hope"/>
<path d="M 3718.4878 994.1241 3692.6225 991.5046 3739.9894 907.96 3781.8319 847.6554 3818.9068 864.1744 3721.3751 995.0413 3718.4878 994.1241 Z" fill="none" stroke="#012394" opacity="0.6" stroke-width="1" class="mount_hope"/>
<path d="M 3710.3729 961.4686 3728.1167 926.028 3776.6215 940.6982 3739.7169 979.3806 3710.3729 961.4686 Z" fill="none" stroke="#012394" opacity="0.6" stroke-width="1" class="mount_hope"/>
<path d="M 3701.4047 998.9719 3679.1604 920.3264 3731.1165 924.1849 3804.1258 965.0504 3813.8693 1005.7544 3701.4047 998.9719 Z" fill="none" stroke="#012394" opacity="0.6" stroke-width="1" class="mount_hope"/>
<path d="M 3734.7397 911.5158 3825.8679 960.6337 3743.6083 906.4391 3782.7909 934.4664 3827.1614 967.5402 3828.0965 977.6602 3812.4312 1010.802 3800.4193 1007.1348 3780.0934 1002.5562 3759.7697 999.8175 3727.4383 997.0907 3700.6456 990.6768 3709.8462 954.7838 3729.2245 937.2829 3734.7397 911.5158 Z" fill="none" stroke="#012394" opacity="0.6" stroke-width="1" class="mount_hope"/></svg>