<?xml version="1.0"?><svg xmlns="http://www.w3.org/2000/svg" version="1.2" baseProfile="tiny" width="6000" height="5918" viewBox="0 0 6000 5918" stroke-linecap="round" stroke-linejoin="round"><path d="M 4401.5212 4723.5226 4271.4605 4794.0601 4316.2563 4894.8028 4241.0745 4933.843 4227.6974 4905.4531 4209.5455 4862.4048 4206.289 4855.5962 4203.4928 4846.4774 4241.9448 4822.8603 4258.0308 4805.1671 4271.6949 4795.6764 4401.5212 4723.5226 Z" fill="none" stroke="#012394" opacity="0.6" stroke-width="1" class="neponsit"/>
<path d="M 4272.1308 4806.9306 4311.7606 4896.7021 4239.2939 4930.4332 4205.7144 4855.8279 4249.1918 4811.9693 4272.1308 4806.9306 Z" fill="none" stroke="#012394" opacity="0.6" stroke-width="1" class="neponsit"/>
<path d="M 4216.7368 4864.7034 4242.6375 4821.0116 4267.8912 4809.4241 4307.9145 4898.281 4243.2689 4928.4114 4216.7368 4864.7034 Z" fill="none" stroke="#012394" opacity="0.6" stroke-width="1" class="neponsit"/>
<path d="M 4214.0406 4921.0652 4206.0643 4860.3314 4257.2101 4799.2791 4303.2861 4903.832 4245.1337 4934.6451 4238.17 4930.0362 4221.7154 4935.8363 4214.0406 4921.0652 Z" fill="none" stroke="#012394" opacity="0.6" stroke-width="1" class="neponsit"/>
<path d="M 4231.4036 4903.0221 4209.9796 4843.0031 4214.6111 4839.3007 4278.5331 4794.8572 4306.4782 4870.5668 4231.4036 4903.0221 Z" fill="none" stroke="#012394" opacity="0.6" stroke-width="1" class="neponsit"/>
<path d="M 4222.0818 4872.5481 4213.7388 4875.3326 4207.224 4860.5606 4223.9054 4852.2203 4221.106 4841.1384 4281.333 4805.9384 4314.8646 4894.5741 4237.9349 4927.9578 4222.0818 4872.5481 Z" fill="none" stroke="#012394" opacity="0.6" stroke-width="1" class="neponsit"/>
<path d="M 4249.0738 4933.484 4211.8641 4862.4012 4450.7353 4760.6172 4474.7165 4816.9257 4383.2072 4859.5833 4249.0738 4933.484 Z" fill="none" stroke="#012394" opacity="0.6" stroke-width="1" class="neponsit"/>
<path d="M 4272.0399 4793.9437 4319.8601 4900.8022 4244.3302 4939.8435 4201.1684 4842.6701 4238.8058 4817.0913 4272.0399 4793.9437 Z" fill="none" stroke="#012394" opacity="0.6" stroke-width="1" class="neponsit"/>
<path d="M 4198.8489 4842.0962 4265.5511 4795.8016 4317.6638 4904.7324 4234.2478 4942.7465 4198.8489 4842.0962 Z" fill="none" stroke="#012394" opacity="0.6" stroke-width="1" class="neponsit"/>
<path d="M 4210.3582 4863.2119 4211.1722 4864.8274 4198.8516 4843.8284 4263.8216 4801.6936 4307.2206 4899.3216 4245.1297 4932.1042 4210.3582 4863.2119 Z" fill="none" stroke="#012394" opacity="0.6" stroke-width="1" class="neponsit"/>
<path d="M 4210.7062 4863.3269 4280.6863 4836.4257 4307.2208 4899.4371 4245.2433 4930.6027 4212.102 4866.3273 4266.8023 4853.77 4210.7062 4863.3269 Z" fill="none" stroke="#012394" opacity="0.6" stroke-width="1" class="neponsit"/>
<path d="M 4210.9578 4876.2607 4262.4886 4911.7506 4200.7402 4866.1136 4209.069 4854.0907 4241.4786 4821.2444 4262.3301 4811.5115 4270.2233 4817.9657 4306.5075 4888.5824 4233.2973 4927.965 4220.2666 4898.4198 4210.9578 4876.2607 Z" fill="none" stroke="#012394" opacity="0.6" stroke-width="1" class="neponsit"/>
<path d="M 4245.8246 4931.6412 4207.6638 4844.8544 4266.9488 4799.9565 4307.4523 4899.2057 4245.8246 4931.6412 Z" fill="none" stroke="#012394" opacity="0.6" stroke-width="1" class="neponsit"/>
<path d="M 4198.8657 4853.1824 4260.0072 4808.7437 4307.4583 4902.9013 4326.0371 4920.4252 4247.2361 4944.5741 4198.8657 4853.1824 Z" fill="none" stroke="#012394" opacity="0.6" stroke-width="1" class="neponsit"/>
<path d="M 4268.4751 4812.0791 4272.8904 4818.4234 4276.497 4826.5011 4280.2224 4836.3109 4285.687 4846.2335 4287.9021 4853.9672 4294.8847 4870.4701 4303.8406 4888.3558 4311.4043 4905.4356 4247.8048 4937.5282 4228.3301 4939.7528 4216.3555 4918.5209 4232.8026 4907.986 4222.1097 4890.6793 4212.1028 4866.9047 4211.0545 4863.6728 4211.3856 4852.7014 4229.8059 4844.4739 4237.3365 4841.3443 4241.5049 4838.1043 4236.3857 4826.3334 4242.9865 4821.8194 4253.6431 4816.2598 4261.0587 4813.9385 4268.4751 4812.0791 Z" fill="none" stroke="#012394" opacity="0.6" stroke-width="1" class="neponsit"/>
<path d="M 4268.8201 4810.3464 4308.1509 4901.0524 4243.0453 4933.7244 4212.5413 4850.39 4268.8201 4810.3464 Z" fill="none" stroke="#012394" opacity="0.6" stroke-width="1" class="neponsit"/>
<path d="M 4203.4987 4850.4038 4262.7733 4798.5775 4314.8828 4905.6609 4248.1637 4944.5727 4203.4987 4850.4038 Z" fill="none" stroke="#012394" opacity="0.6" stroke-width="1" class="neponsit"/>
<path d="M 4245.8246 4931.6412 4188.4663 4876.0638 4263.7029 4799.9617 4307.4511 4898.5128 4245.8246 4931.6412 Z" fill="none" stroke="#012394" opacity="0.6" stroke-width="1" class="neponsit"/>
<path d="M 4305.6138 4909.3717 4243.526 4944.5799 4201.6411 4848.5589 4267.422 4805.9606 4305.6138 4909.3717 Z" fill="none" stroke="#012394" opacity="0.6" stroke-width="1" class="neponsit"/>
<path d="M 4205.3564 4852.2487 4283.6219 4787.4587 4332.7176 4893.8518 4230.5276 4936.2847 4205.3564 4852.2487 Z" fill="none" stroke="#012394" opacity="0.6" stroke-width="1" class="neponsit"/>
<path d="M 4269.0538 4811.5008 4306.7563 4898.9759 4244.433 4931.4124 4202.3324 4845.7863 4263.9351 4800.1923 4269.0538 4811.5008 Z" fill="none" stroke="#012394" opacity="0.6" stroke-width="1" class="neponsit"/>
<path d="M 4209.778 4862.8664 4240.7852 4822.6312 4268.3575 4811.04 4310.2381 4901.2799 4242.5833 4934.88 4209.778 4862.8664 Z" fill="none" stroke="#012394" opacity="0.6" stroke-width="1" class="neponsit"/>
<path d="M 4215.1059 4859.6247 4242.4074 4822.1667 4269.7486 4811.0378 4306.061 4899.208 4244.8942 4929.7948 4215.1059 4859.6247 Z" fill="none" stroke="#012394" opacity="0.6" stroke-width="1" class="neponsit"/>
<path d="M 4203.4917 4845.7845 4286.8485 4775.4442 4300.7995 4800.3641 4275.779 4812.414 4318.5898 4903.807 4255.5811 4942.7131 4203.4917 4845.7845 Z" fill="none" stroke="#012394" opacity="0.6" stroke-width="1" class="neponsit"/>
<path d="M 4268.3568 4810.5781 4310.4791 4906.823 4245.3738 4939.9573 4209.5465 4863.0977 4211.1547 4853.3947 4241.0415 4838.336 4235.4597 4827.2586 4242.177 4823.0909 4268.3568 4810.5781 Z" fill="none" stroke="#012394" opacity="0.6" stroke-width="1" class="neponsit"/></svg>