<?xml version="1.0"?><svg xmlns="http://www.w3.org/2000/svg" version="1.2" baseProfile="tiny" width="6000" height="5918" viewBox="0 0 6000 5918" stroke-linecap="round" stroke-linejoin="round"><path d="M 1844.1352 3840.8871 1857.0887 3858.4344 1855.2251 3869.5074 1862.614 3893.5103 1845.9477 3882.4192 1833.9205 3864.8721 1851.9913 3860.2753 1844.1352 3840.8871 Z" fill="none" stroke="#12852D" opacity="0.6" stroke-width="1" class="new_brighton"/>
<path d="M 1802.2482 4033.7458 1824.5102 4011.1535 1824.5051 4016.2302 1813.8285 4036.5267 1802.2416 4040.2073 1714.6967 4018.8837 1721.2234 3982.4312 1765.6955 3986.6329 1781.9172 3980.6503 1787.9305 3989.8867 1794.4082 3998.2006 1811.0932 3992.2179 1826.856 3981.619 1845.8445 3988.5602 1802.2482 4033.7458 Z" fill="none" stroke="#12852D" opacity="0.6" stroke-width="1" class="new_brighton"/>
<path d="M 1822.404 3800.26 1867.7291 3873.211 1869.7995 3888.2103 1879.9787 3901.3716 1883.8953 3923.9874 1882.9414 3953.2908 1853.0428 3970.7993 1839.822 3988.0929 1829.6344 3983.0062 1814.1066 3990.3749 1803.9067 3997.518 1797.185 4001.2033 1793.9376 4005.3536 1788.8362 4010.1943 1771.4724 4000.2535 1768.4948 3968.1757 1756.9302 3951.5496 1752.7832 3930.5475 1747.9472 3904.2383 1747.4911 3897.5465 1742.396 3896.8488 1738.9429 3877.233 1731.341 3839.1554 1729.9518 3838.6925 1804.5585 3812.0083 1822.404 3800.26 Z" fill="none" stroke="#12852D" opacity="0.6" stroke-width="1" class="new_brighton"/>
<path d="M 1457.4741 4078.5629 1583.5464 4044.5746 1714.2303 4021.6523 1800.3808 4047.5899 1753.0303 4132.4672 1645.4114 4231.1289 1457.4741 4078.5629 Z" fill="none" stroke="#12852D" opacity="0.6" stroke-width="1" class="new_brighton"/>
<path d="M 1792.0855 4004.1979 1720.7494 3992.1224 1708.8686 3844.4371 1808.9532 3817.7806 1851.4335 3958.1065 1792.0855 4004.1979 Z" fill="none" stroke="#12852D" opacity="0.6" stroke-width="1" class="new_brighton"/>
<path d="M 1806.8757 3810.8571 1831.8448 3855.8719 1821.3419 3936.1562 1799.0736 3966.5922 1766.6402 3969.5582 1750.2516 3915.316 1743.0932 3894.773 1694.2102 3903.256 1686.4075 3839.5666 1806.8757 3810.8571 Z" fill="none" stroke="#12852D" opacity="0.6" stroke-width="1" class="new_brighton"/>
<path d="M 1829.3261 3815.0617 1822.6161 3800.9318 1838.342 3826.4953 1844.8138 3840.1139 1855.9791 3851.0955 1859.4414 3863.5578 1862.906 3873.713 1866.3746 3879.7153 1867.7485 3885.3871 1877.514 3897.8796 1882.3918 3918.3284 1882.6334 3927.0822 1881.2336 3937.6949 1880.1635 3947.7968 1884.0946 3955.069 1859.3322 3967.3138 1839.13 3991.0835 1829.6833 3983.2573 1811.3602 3989.982 1807.4508 3996.83 1793.4291 4003.3923 1791.0965 4008.575 1778.5454 4007.3489 1774.9831 4001.4222 1769.6573 3999.3398 1762.1258 4000.5351 1750.7742 4001.0999 1733.6009 4001.8411 1716.6339 3993.6798 1715.3646 3989.4094 1723.0014 3977.0972 1724.3979 3971.0992 1730.4243 3967.7599 1711.4417 3918.8989 1708.4011 3900.7772 1706.7035 3880.1564 1704.4096 3860.8615 1703.148 3849.9216 1701.7664 3842.7677 1702.2323 3840.3457 1729.1448 3837.7931 1757.124 3829.4357 1790.2306 3818.2123 1807.4032 3807.9176 1813.2728 3803.9625 1821.0378 3797.7411 1822.4269 3798.3193 1829.3261 3815.0617 Z" fill="none" stroke="#12852D" opacity="0.6" stroke-width="1" class="new_brighton"/>
<path d="M 1717.2755 3991.3109 1717.2791 3988.0803 1802.9353 3813.9677 1923.9419 3823.1963 1933.5714 3934.7618 1717.2755 3991.3109 Z" fill="none" stroke="#12852D" opacity="0.6" stroke-width="1" class="new_brighton"/>
<path d="M 1743.0677 3918.3079 1781.9167 3981.1118 1696.6515 3997.6336 1622.5763 3953.2427 1648.6226 3866.5172 1715.3374 3859.2105 1743.0677 3918.3079 Z" fill="none" stroke="#12852D" opacity="0.6" stroke-width="1" class="new_brighton"/>
<path d="M 1618.9092 3920.9343 1552.5883 3617.2483 1708.7603 3941.3442 1618.9092 3920.9343 Z" fill="none" stroke="#12852D" opacity="0.6" stroke-width="1" class="new_brighton"/>
<path d="M 1823.795 3798.8772 1868.1928 3872.75 1868.1785 3887.7473 1876.0447 3897.4454 1879.279 3906.4471 1880.6604 3915.4471 1882.2732 3924.6781 1879.7155 3935.059 1880.1682 3946.3658 1881.5524 3952.3665 1861.6192 3965.0388 1838.6993 3951.864 1815.5493 3937.7656 1812.0868 3925.7636 1792.0439 3819.609 1823.795 3798.8772 Z" fill="none" stroke="#12852D" opacity="0.6" stroke-width="1" class="new_brighton"/>
<path d="M 1806.4115 4040.2115 1720.258 4017.5053 1716.1077 3999.963 1719.8391 3977.3531 1734.6761 3966.7549 1752.7365 3974.1584 1774.5214 3964.49 1790.268 3969.5829 1787.4725 3984.8096 1793.4778 4001.8917 1812.4878 3987.6042 1825.4629 3984.8481 1841.6684 3995.0173 1806.4115 4040.2115 Z" fill="none" stroke="#12852D" opacity="0.6" stroke-width="1" class="new_brighton"/>
<path d="M 1732.9605 3840.7722 1808.0286 3815.9339 1825.5226 3924.8541 1755.1028 3927.5504 1732.9605 3840.7722 Z" fill="none" stroke="#12852D" opacity="0.6" stroke-width="1" class="new_brighton"/>
<path d="M 1727.3981 3844.1752 1821.8298 3798.2255 1876.7679 3953.0543 1819.2695 4022.8848 1727.3981 3844.1752 Z" fill="none" stroke="#12852D" opacity="0.6" stroke-width="1" class="new_brighton"/>
<path d="M 1737.4528 3969.5269 1718.1393 3838.9102 1814.982 3810.8653 1847.2796 3941.9504 1737.4528 3969.5269 Z" fill="none" stroke="#12852D" opacity="0.6" stroke-width="1" class="new_brighton"/>
<path d="M 1819.7034 3831.8253 1836.8586 3869.3732 1820.1302 3921.0406 1831.2295 3940.4339 1841.0942 3959.6896 1807.7049 3991.9615 1758.5822 4003.9099 1685.3996 3986.2916 1644.6296 3976.6375 1751.3466 3828.1654 1801.9271 3810.5632 1819.7034 3831.8253 Z" fill="none" stroke="#12852D" opacity="0.6" stroke-width="1" class="new_brighton"/>
<path d="M 1774.6578 3834.3567 1838.628 3788.2793 1928.4777 3801.2827 1965.3103 4066.2056 1774.6578 3834.3567 Z" fill="none" stroke="#12852D" opacity="0.6" stroke-width="1" class="new_brighton"/>
<path d="M 1355.2822 3628.9692 1360.8301 3635.4362 1356.2057 3630.8159 1355.2822 3628.9692 Z" fill="none" stroke="#12852D" opacity="0.6" stroke-width="1" class="new_brighton"/>
<path d="M 1806.4121 3811.318 1839.8432 3966.4022 1693.9085 3965.0943 1688.9571 3837.9545 1806.4121 3811.318 Z" fill="none" stroke="#12852D" opacity="0.6" stroke-width="1" class="new_brighton"/>
<path d="M 1798.6152 3961.746 1764.332 3961.7103 1744.9068 3931.2313 1737.5416 3887.845 1724.6103 3851.8376 1729.2628 3833.3852 1814.522 3807.6348 1833.0113 3847.3363 1832.9758 3883.3294 1825.5143 3933.1608 1798.6152 3961.746 Z" fill="none" stroke="#12852D" opacity="0.6" stroke-width="1" class="new_brighton"/>
<path d="M 1705.1627 3844.433 1806.1786 3813.1635 1832.0785 3853.7956 1819.9624 3925.7715 1848.6565 3955.3349 1842.1561 3970.0965 1816.1886 3993.146 1789.3019 4007.8871 1764.291 4000.4767 1732.7862 4000.4428 1717.9706 3991.1963 1654.979 3976.3562 1655.963 3927.4392 1708.7881 3916.4243 1705.1627 3844.433 Z" fill="none" stroke="#12852D" opacity="0.6" stroke-width="1" class="new_brighton"/>
<path d="M 1892.2375 3920.3033 1901.4953 3928.6184 1731.9847 3885.9931 1731.1056 3842.6159 1856.2252 3792.9105 1942.2751 3914.8105 1937.7071 3840.9736 1925.6804 3821.5829 1903.4577 3808.643 1887.7137 3803.0914 1881.2348 3796.6255 1873.8244 3795.6957 1892.2375 3920.3033 Z" fill="none" stroke="#12852D" opacity="0.6" stroke-width="1" class="new_brighton"/>
<path d="M 1703.5451 3841.2011 1805.2554 3809.9326 1830.4613 3849.641 1831.3713 3866.254 1820.1911 3928.7714 1822.9631 3936.3886 1846.1068 3956.9476 1830.0982 3982.5452 1812.4866 3988.758 1809.2368 3995.4466 1796.4926 3998.6642 1793.7028 4008.3532 1785.8246 4010.1911 1771.4737 3999.0998 1736.2585 4002.7542 1715.1916 3990.5009 1703.5451 3841.2011 Z" fill="none" stroke="#12852D" opacity="0.6" stroke-width="1" class="new_brighton"/>
<path d="M 1952.4582 3924.9718 1621.614 3982.7775 1577.3115 3844.2809 1909.0272 3796.6511 1952.4582 3924.9718 Z" fill="none" stroke="#12852D" opacity="0.6" stroke-width="1" class="new_brighton"/>
<path d="M 1794.2026 3927.776 1769.5359 4123.4378 1701.3293 4122.625 1539.781 4065.5652 1621.4419 3971.8858 1710.4788 3895.937 1794.2026 3927.776 Z" fill="none" stroke="#12852D" opacity="0.6" stroke-width="1" class="new_brighton"/>
<path d="M 1845.2851 3959.6383 1804.7606 3816.4529 1931.9627 3837.1581 1845.2851 3959.6383 Z" fill="none" stroke="#12852D" opacity="0.6" stroke-width="1" class="new_brighton"/>
<path d="M 1823.3322 3798.4153 1865.1815 3872.9778 1869.1044 3888.4404 1877.8981 3896.9857 1880.1965 3916.1388 1882.5126 3916.3717 1882.5051 3924.4476 1882.0312 3935.7534 1880.6325 3945.2126 1880.8577 3952.1351 1861.8504 3965.5005 1825.5171 3930.3919 1824.5823 3938.6976 1807.3383 3811.5497 1823.3322 3798.4153 Z" fill="none" stroke="#12852D" opacity="0.6" stroke-width="1" class="new_brighton"/>
<path d="M 1821.0155 3799.1051 1865.8726 3876.9008 1883.2969 3953.0922 1860.1716 3967.7524 1827.8972 3984.0517 1743.5211 3974.4046 1725.2426 3969.5385 1742.8366 3897.3197 1731.0655 3842.2774 1821.0155 3799.1051 Z" fill="none" stroke="#12852D" opacity="0.6" stroke-width="1" class="new_brighton"/>
<path d="M 1567.1064 3855.3427 1808.0268 3817.7796 1812.6515 3825.1671 1812.6431 3833.4729 1822.8184 3849.172 1835.7535 3885.1779 1828.3132 3913.7815 1822.6988 3969.1543 1779.1341 3983.8779 1707.7842 3985.6468 1638.296 3980.0285 1606.8077 3967.0684 1592.0111 3943.9755 1588.3359 3919.0509 1583.7263 3900.5863 1580.0515 3875.6628 1574.5042 3866.4268 1567.1064 3855.3427 Z" fill="none" stroke="#12852D" opacity="0.6" stroke-width="1" class="new_brighton"/>
<path d="M 1727.413 3830.6146 1844.1963 3778.1337 1892.3637 3783.7163 1896.0489 3805.8676 1852.4536 3861.1986 1881.1071 3933.2144 1846.7998 3959.025 1789.3 4009.7332 1769.8516 3999.5596 1733.7108 4002.2899 1712.4151 3987.498 1754.1525 3949.7006 1727.413 3830.6146 Z" fill="none" stroke="#12852D" opacity="0.6" stroke-width="1" class="new_brighton"/>
<path d="M 1548.5532 3873.777 1807.105 3813.1644 1839.3845 3961.7868 1772.5956 4033.7151 1694.6237 4151.7894 1562.2227 4052.8554 1548.5532 3873.777 Z" fill="none" stroke="#12852D" opacity="0.6" stroke-width="1" class="new_brighton"/>
<path d="M 1805.2493 3815.9311 1857.9062 3971.9577 1786.5182 4011.5764 1683.7022 3977.3125 1679.223 3843.4806 1805.2493 3815.9311 Z" fill="none" stroke="#12852D" opacity="0.6" stroke-width="1" class="new_brighton"/></svg>