<?xml version="1.0"?><svg xmlns="http://www.w3.org/2000/svg" version="1.2" baseProfile="tiny" width="6000" height="5918" viewBox="0 0 6000 5918" stroke-linecap="round" stroke-linejoin="round"><path d="M 1554.8608 4737.0946 1646.5838 4807.4146 1661.4427 4789.8798 1793.0356 4883.332 1709.4647 4971.0155 1579.709 4888.6321 1464.507 5029.8465 1359.7847 4963.1691 1485.392 4676.9617 1554.8608 4737.0946 Z" fill="none" stroke="#E71E24" opacity="0.6" stroke-width="1" class="new_dorp"/>
<path d="M 1394.0895 4973.3831 1467.0368 4876.2428 1563.1358 4792.9933 1623.8293 4834.8712 1773.0389 4936.6671 1666.0199 5040.9594 1639.9521 5022.5637 1612.3081 5061.5711 1509.3266 4983.2448 1469.1413 5032.625 1394.0895 4973.3831 Z" fill="none" stroke="#E71E24" opacity="0.6" stroke-width="1" class="new_dorp"/>
<path d="M 1437.0539 4927.4778 1416.9014 4912.6666 1454.7552 4870.9136 1450.4155 4823.5602 1423.766 4813.8226 1478.3542 4738.1483 1495.9073 4787.5937 1556.2518 4737.0964 1645.6586 4805.5659 1507.934 4984.1669 1437.0539 4927.4778 Z" fill="none" stroke="#E71E24" opacity="0.6" stroke-width="1" class="new_dorp"/>
<path d="M 1662.3755 4785.2619 1641.9424 4811.1044 1608.4937 4861.8753 1580.6238 4898.7961 1531.4017 4948.6251 1508.169 4981.8573 1484.9346 5015.0901 1467.3051 5018.7621 1425.6019 4990.9839 1388.5389 4963.2114 1367.2325 4944.7011 1364.5059 4906.816 1362.7057 4869.8577 1368.3046 4846.7695 1383.1719 4827.3906 1411.9511 4807.1082 1431.4441 4794.6645 1443.9871 4778.0538 1461.1702 4758.6784 1475.5593 4747.613 1527.9488 4751.8398 1565.065 4734.3364 1581.7743 4720.5014 1662.3755 4785.2619 Z" fill="none" stroke="#E71E24" opacity="0.6" stroke-width="1" class="new_dorp"/>
<path d="M 1535.4096 4719.5186 1641.9413 4812.0282 1660.5143 4790.8025 1787.4774 4876.8591 1713.1688 4976.5635 1616.7847 4908.0797 1516.3977 5072.4226 1476.5623 5032.6351 1352.3505 4972.3978 1396.224 4780.2954 1535.4096 4719.5186 Z" fill="none" stroke="#E71E24" opacity="0.6" stroke-width="1" class="new_dorp"/>
<path d="M 1436.2318 4926.1359 1433.6183 4897.2148 1450.8769 4825.1775 1470.5161 4814.7081 1580.1698 4890.4353 1614.6055 4913.105 1553.5063 5018.4513 1436.2318 4926.1359 Z" fill="none" stroke="#E71E24" opacity="0.6" stroke-width="1" class="new_dorp"/>
<path d="M 1519.7922 4960.1594 1438.7221 4895.3742 1450.3516 4869.5216 1457.8326 4825.1872 1549.2956 4738.0112 1641.0167 4809.7176 1519.7922 4960.1594 Z" fill="none" stroke="#E71E24" opacity="0.6" stroke-width="1" class="new_dorp"/>
<path d="M 1471.0041 5027.0834 1369.996 4957.6405 1504.7344 4774.9034 1595.5048 4865.5548 1553.691 4926.4794 1471.0041 5027.0834 Z" fill="none" stroke="#E71E24" opacity="0.6" stroke-width="1" class="new_dorp"/>
<path d="M 1526.0736 4767.5414 1617.7996 4836.0187 1622.439 4834.1767 1748.4661 4930.4044 1713.1729 4972.8676 1584.3476 4887.714 1535.1082 4951.4018 1420.2058 4871.789 1471.3389 4782.2486 1439.8456 4755.4156 1483.5037 4701.899 1544.6601 4737.0815 1531.6329 4771.2438 1526.0736 4767.5414 Z" fill="none" stroke="#E71E24" opacity="0.6" stroke-width="1" class="new_dorp"/>
<path d="M 1460.6155 4824.7291 1524.2467 4746.2925 1556.7131 4738.9445 1688.2843 4836.1016 1579.1358 4975.943 1460.6155 4824.7291 Z" fill="none" stroke="#E71E24" opacity="0.6" stroke-width="1" class="new_dorp"/>
<path d="M 1517.6298 4841.435 1543.5885 4848.8597 1573.2131 4891.3956 1495.1557 5002.1677 1480.4271 4918.9914 1441.4587 4928.1769 1517.6298 4841.435 Z" fill="none" stroke="#E71E24" opacity="0.6" stroke-width="1" class="new_dorp"/>
<path d="M 1460.0881 4870.9209 1452.7401 4819.1752 1527.9802 4727.8225 1553.9205 4747.2547 1460.0881 4870.9209 Z" fill="none" stroke="#E71E24" opacity="0.6" stroke-width="1" class="new_dorp"/>
<path d="M 1614.7433 5061.4585 1504.471 4972.6126 1580.6319 4892.3288 1719.6639 4974.7228 1642.563 5069.8085 1614.7433 5061.4585 Z" fill="none" stroke="#E71E24" opacity="0.6" stroke-width="1" class="new_dorp"/>
<path d="M 1449.4865 4824.7137 1527.2331 4767.312 1601.359 4818.6768 1625.9155 4835.3357 1610.0956 4879.1999 1610.2917 4908.5338 1640.6385 4932.8233 1674.9375 4949.7253 1709.2357 4968.4744 1703.8932 4976.5532 1740.0593 4984.9088 1713.1082 5031.0796 1688.0299 5059.6966 1675.0332 5067.9983 1635.0794 5122.0107 1611.0324 5061.685 1552.8821 5014.9485 1505.3853 4982.5466 1435.2028 4924.7034 1416.441 4910.3562 1449.4865 4824.7137 Z" fill="none" stroke="#E71E24" opacity="0.6" stroke-width="1" class="new_dorp"/>
<path d="M 990.6509 5192.4127 990.8852 5191.1424 993.5528 5191.0319 993.7822 5192.4186 990.6509 5192.4127 Z" fill="none" stroke="#E71E24" opacity="0.6" stroke-width="1" class="new_dorp"/>
<path d="M 1526.1101 4828.166 1592.0172 4873.2879 1603.7442 4858.8669 1664.5645 4896.5877 1761.4131 4966.4522 1637.4052 5116.4688 1625.5592 5131.2405 1542.3991 5051.6653 1490.2768 5008.8602 1439.3125 4970.4446 1406.6259 4963.4685 1367.4439 4958.5607 1356.7643 4967.0915 1354.5656 4886.4755 1369.7206 4829.9114 1389.6753 4819.5476 1392.0401 4787.6796 1421.3432 4723.9821 1458.4858 4688.0093 1545.1363 4727.3829 1539.0812 4748.6212 1526.9985 4769.3902 1527.8558 4822.9717 1526.1101 4828.166 Z" fill="none" stroke="#E71E24" opacity="0.6" stroke-width="1" class="new_dorp"/>
<path d="M 1508.8758 5148.1893 1031.3339 5015.2918 1359.2223 4717.4257 1576.4135 4558.8561 1917.4118 4778.1345 1508.8758 5148.1893 Z" fill="none" stroke="#E71E24" opacity="0.6" stroke-width="1" class="new_dorp"/>
<path d="M 1449.4865 4824.7137 1471.2953 4814.1198 1581.0968 4891.4055 1507.704 4982.7807 1415.9729 4913.3582 1428.9776 4899.518 1445.23 4884.2966 1454.0704 4863.0597 1453.1609 4850.1244 1448.5468 4833.4888 1449.4865 4824.7137 Z" fill="none" stroke="#E71E24" opacity="0.6" stroke-width="1" class="new_dorp"/>
<path d="M 1670.8325 5090.6333 1375.2 4887.8919 1476.1029 4688.9571 1626.1515 4831.8716 1785.555 4941.9928 1670.8325 5090.6333 Z" fill="none" stroke="#E71E24" opacity="0.6" stroke-width="1" class="new_dorp"/>
<path d="M 1579.8221 4890.942 1508.117 4984.1191 1374.8541 4877.8462 1389.133 4822.0885 1471.7428 4814.2689 1579.8221 4890.942 Z" fill="none" stroke="#E71E24" opacity="0.6" stroke-width="1" class="new_dorp"/>
<path d="M 1476.9724 4731.4493 1578.9796 4730.659 1683.8995 4615.3245 1788.6289 4659.7735 1467.2797 5037.2426 1360.6999 4971.4862 1389.7458 4771.0482 1476.9724 4731.4493 Z" fill="none" stroke="#E71E24" opacity="0.6" stroke-width="1" class="new_dorp"/>
<path d="M 1436.8626 4898.6052 1453.6534 4829.3386 1502.8636 4786.9102 1595.4933 4874.7935 1634.4095 4906.2531 1548.9157 5033.6549 1497.9508 4992.9315 1433.0967 4938.3285 1436.8626 4898.6052 Z" fill="none" stroke="#E71E24" opacity="0.6" stroke-width="1" class="new_dorp"/>
<path d="M 1589.5426 4812.1955 1621.0456 4836.0227 1566.7023 4905.9388 1507.2389 4983.704 1357.3824 4863.3828 1369.0243 4830.3723 1423.3026 4813.591 1429.6222 4771.3362 1476.9642 4737.4536 1525.3792 4766.6167 1621.9742 4835.1 1589.5426 4812.1955 Z" fill="none" stroke="#E71E24" opacity="0.6" stroke-width="1" class="new_dorp"/>
<path d="M 1711.2564 4975.581 1640.2804 5100.2896 1375.3876 4878.6805 1393.3637 4811.5286 1473.4147 4814.313 1711.2564 4975.581 Z" fill="none" stroke="#E71E24" opacity="0.6" stroke-width="1" class="new_dorp"/>
<path d="M 1381.9245 5046.3621 1381.4593 5047.2854 1380.3018 5045.8977 1354.8645 4997.1181 1362.0591 4836.8289 1512.621 4771.9116 1775.1251 4937.3622 1494.9092 5185.8302 1381.9245 5046.3621 Z" fill="none" stroke="#E71E24" opacity="0.6" stroke-width="1" class="new_dorp"/>
<path d="M 1636.2545 4817.4489 1635.4437 4816.8705 1773.2946 4913.9157 1652.0381 5098.2351 1509.0952 4982.898 1636.2545 4817.4489 Z" fill="none" stroke="#E71E24" opacity="0.6" stroke-width="1" class="new_dorp"/>
<path d="M 1525.1462 4767.5402 1621.9739 4835.3309 1507.4718 4983.0114 1358.7763 4861.5371 1369.488 4830.373 1387.1216 4821.8534 1392.9397 4806.8498 1423.5338 4814.0533 1427.7476 4785.4213 1432.8658 4772.9574 1453.2964 4752.4321 1476.962 4739.0702 1494.2838 4788.0534 1525.1462 4767.5402 Z" fill="none" stroke="#E71E24" opacity="0.6" stroke-width="1" class="new_dorp"/>
<path d="M 1476.5585 5035.4072 1457.2058 4943.2128 1471.2439 4936.5335 1479.7308 4919.4524 1482.6451 4907.7919 1490.1778 4910.2274 1501.5545 4899.1558 1509.4316 4904.1322 1519.7462 4907.0331 1520.7626 4927.5916 1526.6743 4928.5233 1534.43 4938.0037 1548.3089 4964.4698 1550.0376 4972.6722 1550.1342 4987.687 1548.2737 4991.8426 1545.0043 5009.6253 1545.6791 5025.7965 1527.1147 5035.0127 1491.8724 5029.4217 1442.3255 4971.6038 1466.3851 5013.2168 1472.8682 5020.6178 1476.5585 5035.4072 Z" fill="none" stroke="#E71E24" opacity="0.6" stroke-width="1" class="new_dorp"/>
<path d="M 1359.7031 4862.0004 1369.0245 4830.2569 1386.4253 4822.3143 1392.476 4806.8492 1401.7826 4784.2295 1489.4938 4729.6188 1537.4559 4750.4666 1531.4167 4759.2345 1629.6346 4827.4875 1620.347 4838.5624 1631.9291 4847.5838 1594.3043 4898.8131 1580.6324 4891.8669 1507.4714 4983.2423 1380.5364 4885.59 1359.7031 4862.0004 Z" fill="none" stroke="#E71E24" opacity="0.6" stroke-width="1" class="new_dorp"/>
<path d="M 1524.2455 4747.2162 1650.2858 4813.8857 1510.9443 4987.4049 1420.1375 4919.8316 1333.0282 4868.8894 1524.2455 4747.2162 Z" fill="none" stroke="#E71E24" opacity="0.6" stroke-width="1" class="new_dorp"/>
<path d="M 1394.1471 4933.6532 1361.7275 4904.0402 1361.8056 4851.3791 1386.8897 4821.8531 1421.2225 4808.969 1455.5224 4819.1791 1542.6611 4848.8585 1581.5732 4881.2433 1497.022 4993.8543 1394.1471 4933.6532 Z" fill="none" stroke="#E71E24" opacity="0.6" stroke-width="1" class="new_dorp"/>
<path d="M 1376.1308 4885.5835 1501.7862 4780.3226 1636.118 4844.3882 1552.3134 5018.2756 1376.1308 4885.5835 Z" fill="none" stroke="#E71E24" opacity="0.6" stroke-width="1" class="new_dorp"/>
<path d="M 1710.3892 4973.7885 1692.7152 5018.1204 1663.9443 5031.0236 1647.2558 5023.6119 1621.3016 5007.8726 1583.3012 4982.8781 1544.3777 4956.0336 1521.2157 4935.6766 1495.266 4919.9354 1443.355 4898.6143 1452.6632 4874.6062 1461.9863 4839.5124 1497.2708 4808.1501 1603.8542 4863.7173 1570.433 4889.5443 1590.8262 4898.8088 1649.2146 4935.8362 1710.3892 4973.7885 Z" fill="none" stroke="#E71E24" opacity="0.6" stroke-width="1" class="new_dorp"/>
<path d="M 1622.4404 4833.0219 1547.6583 4929.4744 1506.546 4981.6241 1508.6386 4977.469 1466.7086 4946.4597 1417.1376 4909.6642 1421.7787 4907.1301 1450.8041 4877.6062 1452.0337 4827.0268 1481.7359 4808.8221 1501.2475 4781.8272 1528.6268 4765.2353 1542.755 4776.108 1563.1382 4791.1457 1583.2944 4802.7186 1601.3602 4817.753 1622.4404 4833.0219 Z" fill="none" stroke="#E71E24" opacity="0.6" stroke-width="1" class="new_dorp"/>
<path d="M 1359.7031 4862.0004 1370.646 4831.2986 1383.4072 4825.0814 1392.4761 4806.7337 1423.9975 4814.0539 1425.4233 4789.5751 1416.0386 4785.982 1420.0089 4765.6645 1433.6795 4771.3419 1453.8816 4748.3915 1476.4988 4738.7232 1494.864 4787.5923 1539.9463 4707.1697 1530.0173 4765.699 1638.6597 4842.0488 1522.5269 4996.6601 1519.2895 4989.7259 1374.7508 4877.9594 1359.7031 4862.0004 Z" fill="none" stroke="#E71E24" opacity="0.6" stroke-width="1" class="new_dorp"/>
<path d="M 1430.8609 4879.426 1432.3674 4879.8901 1430.9731 4882.0824 1430.8609 4879.426 Z" fill="none" stroke="#E71E24" opacity="0.6" stroke-width="1" class="new_dorp"/>
<path d="M 1535.119 4943.0863 1448.9482 4878.2965 1554.8667 4732.4759 1636.3879 4802.7835 1651.211 4815.7344 1535.119 4943.0863 Z" fill="none" stroke="#E71E24" opacity="0.6" stroke-width="1" class="new_dorp"/>
<path d="M 1584.185 4944.4303 1555.9998 4934.3358 1575.5326 4907.7738 1593.3224 4911.2754 1584.185 4944.4303 Z" fill="none" stroke="#E71E24" opacity="0.6" stroke-width="1" class="new_dorp"/>
<path d="M 1598.8503 5161.2425 1330.0946 4968.6684 1168.8456 4881.561 1373.1239 4722.9886 1584.5551 4721.4286 1806.9692 4862.0971 1831.0411 4904.6199 1598.8503 5161.2425 Z" fill="none" stroke="#E71E24" opacity="0.6" stroke-width="1" class="new_dorp"/>
<path d="M 1552.88 5016.5655 1543.9589 5011.01 1538.0518 5006.1513 1519.6351 4991.4588 1513.9594 4987.0624 1498.5547 4974.9146 1493.111 4970.634 1481.992 4961.9568 1477.823 4958.2553 1465.1985 4948.5365 1461.6096 4944.6048 1449.0996 4936.1565 1444.9303 4932.9169 1437.2871 4926.5542 1434.1591 4924.8175 1428.2541 4919.2656 1422.4633 4914.8688 1417.9449 4912.6681 1412.963 4910.2357 1408.5646 4905.1479 1400.572 4900.2859 1395.1303 4895.1966 1386.7916 4889.1792 1383.0864 4885.9402 1382.7418 4883.7454 1386.3419 4879.5932 1387.7376 4876.4771 1390.4131 4870.2449 1392.1575 4866.5519 1390.0781 4861.4676 1394.3726 4858.0094 1394.9574 4854.4302 1395.7773 4848.6573 1396.1286 4846.2327 1397.4109 4841.3844 1397.7742 4830.6453 1396.0433 4825.0998 1396.3909 4825.2158 1394.312 4819.7853 1394.8962 4816.6682 1397.3291 4817.711 1406.0273 4815.1831 1411.1312 4812.9963 1412.6381 4813.1139 1415.072 4813.4638 1422.3758 4813.1278 1424.4618 4813.5927 1426.7799 4813.9424 1432.8067 4814.8747 1437.6719 4817.5375 1443.5808 4819.9708 1449.9516 4823.675 1459.4599 4822.0715 1466.304 4818.8475 1476.5139 4812.7412 1483.9411 4806.8619 1488.7009 4801.7874 1497.182 4787.9418 1499.2738 4784.0185 1502.9869 4781.3676 1505.892 4776.0597 1512.0327 4778.4928 1515.3948 4778.1508 1519.2259 4773.8834 1525.1444 4768.9258 1536.3852 4771.5964 1537.3114 4772.5213 1541.9458 4774.3749 1542.7549 4776.2235 1547.8504 4780.1562 1547.2702 4780.6173 1548.8898 4783.1598 1555.2601 4787.4405 1563.1373 4791.8386 1569.1589 4796.9271 1577.6157 4801.4413 1582.8264 4806.1823 1584.2163 4807.1079 1597.3046 4816.2468 1601.1242 4821.1016 1602.6313 4821.1034 1612.2466 4826.5427 1615.8364 4829.7805 1623.1346 4834.1775 1626.7274 4834.9902 1629.6227 4837.4188 1634.3726 4840.0805 1644.2192 4846.3282 1634.2445 4850.2427 1625.9976 4863.3978 1624.4872 4866.1676 1620.5404 4870.3202 1617.4038 4875.6287 1614.6169 4879.3208 1613.8009 4883.0154 1609.8537 4887.399 1607.4163 4889.7058 1605.7906 4891.7826 1601.027 4900.0918 1599.6324 4902.8618 1606.3508 4907.7205 1609.0145 4910.0336 1612.6051 4912.9252 1614.5735 4915.0064 1610.7395 4921.5846 1607.371 4926.6621 1602.3761 4934.3939 1593.0814 4950.0895 1581.8114 4968.9011 1569.7291 4987.943 1559.6162 5007.9116 1552.88 5016.5655 Z" fill="none" stroke="#E71E24" opacity="0.6" stroke-width="1" class="new_dorp"/>
<path d="M 1453.8499 4854.8601 1451.9939 4855.6659 1451.7667 4852.3166 1452.3556 4845.6195 1450.6205 4842.8456 1449.581 4840.0726 1448.5467 4833.6043 1449.1273 4832.9122 1448.2092 4826.2131 1449.3684 4826.2147 1450.0632 4826.7931 1452.971 4819.8684 1455.1722 4820.9108 1457.489 4822.1842 1462.3649 4817.1099 1462.5958 4817.8031 1470.2563 4811.0005 1470.9495 4812.7336 1473.4986 4813.6609 1479.3026 4808.0104 1481.7406 4805.3578 1484.4087 4803.9757 1488.7054 4798.4386 1490.4446 4798.21 1496.5976 4791.5208 1496.7154 4790.1352 1494.3941 4792.2106 1493.7015 4790.0157 1495.9113 4784.5914 1499.2769 4781.7091 1504.2699 4775.4802 1506.7013 4777.6774 1515.5155 4774.5713 1525.6085 4768.58 1530.3668 4764.3138 1531.5277 4763.0451 1538.7231 4756.5881 1531.4191 4757.3869 1538.3851 4749.0822 1538.3845 4749.544 1538.4984 4751.0453 1543.8375 4745.7406 1544.3055 4742.3926 1546.1613 4741.5867 1550.4561 4736.9735 1551.4969 4738.9378 1556.719 4734.3258 1558.3348 4739.8703 1559.26 4741.488 1564.128 4741.9561 1564.588 4744.8434 1568.4082 4748.8897 1575.4726 4754.0947 1575.8201 4754.3261 1579.2953 4756.178 1582.889 4756.067 1584.5088 4758.4939 1588.677 4762.4251 1599.4497 4768.7894 1607.7875 4775.7279 1625.391 4789.4906 1640.331 4801.4025 1645.7741 4805.9125 1635.6714 4820.3351 1624.5263 4833.7173 1611.1729 4851.3696 1598.5161 4867.8682 1587.1363 4882.6361 1575.06 4897.8652 1559.6157 4917.2478 1549.512 4930.5163 1543.9357 4939.171 1530.6989 4954.0524 1519.3147 4970.5533 1509.0946 4983.36 1489.5187 4969.1277 1479.6748 4960.6832 1466.7032 4950.3865 1449.6787 4936.6193 1434.9715 4924.2412 1417.4819 4912.09 1431.7627 4897.6742 1445.1129 4885.1048 1452.7856 4869.987 1453.8499 4854.8601 Z" fill="none" stroke="#E71E24" opacity="0.6" stroke-width="1" class="new_dorp"/>
<path d="M 1218.9836 4848.385 1309.8559 4859.6154 1439.746 4826.5477 1536.1786 4841.4593 1218.9836 4848.385 Z" fill="none" stroke="#E71E24" opacity="0.6" stroke-width="1" class="new_dorp"/>
<path d="M 1367.2079 4961.3322 1553.0026 4739.8635 1643.8016 4807.4113 1462.6454 5034.4641 1367.2079 4961.3322 Z" fill="none" stroke="#E71E24" opacity="0.6" stroke-width="1" class="new_dorp"/>
<path d="M 1416.6705 4911.9733 1604.0001 4744.7771 1660.0581 4784.3354 1507.703 4983.4736 1416.6705 4911.9733 Z" fill="none" stroke="#E71E24" opacity="0.6" stroke-width="1" class="new_dorp"/>
<path d="M 1611.9592 5062.3792 1413.6568 4911.5071 1454.5182 4874.6087 1448.0953 4824.7117 1517.7175 4774.9206 1615.0083 4843.4061 1578.7792 4890.4787 1707.6086 4971.9374 1667.6462 5038.4202 1611.9592 5062.3792 Z" fill="none" stroke="#E71E24" opacity="0.6" stroke-width="1" class="new_dorp"/>
<path d="M 1724.2834 4991.3595 1565.4361 5173.2149 1465.4283 5034.4679 1581.5536 4896.9495 1724.2834 4991.3595 Z" fill="none" stroke="#E71E24" opacity="0.6" stroke-width="1" class="new_dorp"/>
<path d="M 1487.0457 4825.689 1578.7809 4889.0929 1602.4681 4859.5582 1634.4442 4877.1505 1574.4957 4977.7852 1535.1124 4948.168 1517.9237 4970.3205 1439.1567 4916.1627 1467.4977 4878.3221 1454.0615 4869.5268 1487.0457 4825.689 Z" fill="none" stroke="#E71E24" opacity="0.6" stroke-width="1" class="new_dorp"/></svg>