<?xml version="1.0"?><svg xmlns="http://www.w3.org/2000/svg" version="1.2" baseProfile="tiny" width="6000" height="5918" viewBox="0 0 6000 5918" stroke-linecap="round" stroke-linejoin="round"><path d="M 2825.1844 2778.7752 2790.0181 2758.7268 2816.1573 2699.0394 2844.8439 2712.4032 2825.1844 2778.7752 Z" fill="none" stroke="#865327" opacity="0.6" stroke-width="1" class="nolita"/>
<path d="M 2846.0007 2713.5553 2828.8854 2768.4043 2793.0255 2751.3522 2801.1215 2722.7759 2815.0007 2699.9613 2846.0007 2713.5553 Z" fill="none" stroke="#865327" opacity="0.6" stroke-width="1" class="nolita"/>
<path d="M 2846.2321 2714.938 2831.1988 2767.7127 2793.7195 2749.9694 2802.2782 2721.6237 2816.8515 2701.1134 2846.2321 2714.938 Z" fill="none" stroke="#865327" opacity="0.6" stroke-width="1" class="nolita"/>
<path d="M 3000.212 3278.9807 3007.1569 3281.2847 3078.9587 3414.0888 3082.6734 3445.4517 2981.3056 3606.0074 2856.2577 3528.0672 3000.212 3278.9807 Z" fill="none" stroke="#865327" opacity="0.6" stroke-width="1" class="nolita"/>
<path d="M 2801.1205 2695.8139 2813.6107 2660.0956 2851.7812 2681.7538 2845.7694 2713.7858 2801.1205 2695.8139 Z" fill="none" stroke="#865327" opacity="0.6" stroke-width="1" class="nolita"/>
<path d="M 2844.15 2713.7859 2825.6471 2779.2361 2785.1598 2757.3442 2796.2639 2738.9076 2800.8902 2723.0064 2815.6948 2700.6525 2844.15 2713.7859 Z" fill="none" stroke="#865327" opacity="0.6" stroke-width="1" class="nolita"/>
<path d="M 2793.7195 2750.4303 2803.4349 2721.6236 2815.6949 2702.7265 2847.6203 2716.0901 2827.7284 2765.6388 2793.7195 2750.4303 Z" fill="none" stroke="#865327" opacity="0.6" stroke-width="1" class="nolita"/>
<path d="M 2814.7694 2700.4222 2844.15 2714.4773 2830.5048 2767.7128 2793.4881 2751.1217 2801.1216 2724.1586 2814.7694 2700.4222 Z" fill="none" stroke="#865327" opacity="0.6" stroke-width="1" class="nolita"/>
<path d="M 2843.9186 2713.5555 2825.4157 2777.8534 2791.1749 2759.6486 2815.8105 2702.4961 2843.9186 2713.5555 Z" fill="none" stroke="#865327" opacity="0.6" stroke-width="1" class="nolita"/>
<path d="M 2845.0754 2714.2467 2824.491 2789.607 2761.3309 2759.649 2770.1221 2749.2785 2799.7326 2698.8097 2845.0754 2714.2467 Z" fill="none" stroke="#865327" opacity="0.6" stroke-width="1" class="nolita"/>
<path d="M 2819.2806 2704.3394 2819.6277 2704.6851 2835.2433 2710.9061 2797.7705 2821.4129 2780.9964 2813.1163 2799.2723 2765.6403 2811.1849 2724.8495 2815.5798 2714.4792 2817.8929 2708.4875 2818.5867 2705.6069 2819.2806 2704.3394 Z" fill="none" stroke="#865327" opacity="0.6" stroke-width="1" class="nolita"/>
<path d="M 2845.3067 2714.0163 2826.5726 2780.1579 2783.309 2758.2661 2796.7266 2739.8294 2802.5095 2720.4714 2816.1574 2700.4221 2845.3067 2714.0163 Z" fill="none" stroke="#865327" opacity="0.6" stroke-width="1" class="nolita"/>
<path d="M 2814.7695 2701.5744 2846.0008 2715.6293 2829.5792 2765.8692 2792.5627 2750.8913 2814.7695 2701.5744 Z" fill="none" stroke="#865327" opacity="0.6" stroke-width="1" class="nolita"/>
<path d="M 2826.1041 2689.8212 2848.3126 2697.4241 2827.9599 2767.0216 2801.5854 2755.5001 2823.7908 2689.5909 2826.1041 2689.8212 Z" fill="none" stroke="#865327" opacity="0.6" stroke-width="1" class="nolita"/>
<path d="M 2815.4635 2702.0352 2843.2246 2713.786 2826.1098 2778.0838 2791.1749 2760.5705 2815.4635 2702.0352 Z" fill="none" stroke="#865327" opacity="0.6" stroke-width="1" class="nolita"/>
<path d="M 2815.6948 2701.4591 2844.9597 2714.0163 2826.1099 2780.0427 2790.5966 2761.0314 2801.1215 2723.3521 2815.6948 2701.4591 Z" fill="none" stroke="#865327" opacity="0.6" stroke-width="1" class="nolita"/>
<path d="M 2844.8439 2712.8641 2829.348 2767.9433 2797.1898 2753.8871 2800.8909 2742.3642 2803.4353 2732.6852 2807.1363 2721.6235 2811.994 2713.0967 2817.3141 2700.6525 2827.7244 2705.0302 2844.8439 2712.8641 Z" fill="none" stroke="#865327" opacity="0.6" stroke-width="1" class="nolita"/>
<path d="M 2793.4881 2751.3522 2801.1215 2722.7759 2815.926 2698.809 2843.4559 2712.6337 2828.6539 2767.0215 2793.4881 2751.3522 Z" fill="none" stroke="#865327" opacity="0.6" stroke-width="1" class="nolita"/>
<path d="M 2848.3141 2714.2465 2826.1098 2778.7752 2768.04 2747.2044 2803.6652 2695.5834 2848.3141 2714.2465 Z" fill="none" stroke="#865327" opacity="0.6" stroke-width="1" class="nolita"/>
<path d="M 2848.7768 2714.4769 2830.7361 2767.9432 2796.4957 2751.5825 2803.4349 2722.315 2818.7022 2701.8046 2848.7768 2714.4769 Z" fill="none" stroke="#865327" opacity="0.6" stroke-width="1" class="nolita"/>
<path d="M 2712.1264 2650.1536 2940.6723 2648.2954 2937.934 2853.8616 2716.7419 2861.2514 2712.1264 2650.1536 Z" fill="none" stroke="#865327" opacity="0.6" stroke-width="1" class="nolita"/>
<path d="M 2815.9261 2700.1916 2844.6126 2713.0945 2827.2667 2779.9274 2790.4809 2760.34 2800.6589 2723.4673 2815.9261 2700.1916 Z" fill="none" stroke="#865327" opacity="0.6" stroke-width="1" class="nolita"/>
<path d="M 2826.571 2754.8074 2829.3479 2766.0996 2794.8762 2749.7389 2797.6519 2737.2944 2804.3601 2719.0887 2818.7022 2702.9568 2846.6949 2716.0902 2842.3011 2736.37 2826.571 2754.8074 Z" fill="none" stroke="#865327" opacity="0.6" stroke-width="1" class="nolita"/>
<path d="M 2815.9261 2700.1916 2842.0677 2711.0207 2828.6539 2767.252 2795.1076 2750.8912 2815.9261 2700.1916 Z" fill="none" stroke="#865327" opacity="0.6" stroke-width="1" class="nolita"/>
<path d="M 2800.3109 2696.9662 2843.4561 2714.823 2827.7285 2766.7911 2773.3609 2739.1385 2800.3109 2696.9662 Z" fill="none" stroke="#865327" opacity="0.6" stroke-width="1" class="nolita"/>
<path d="M 2810.1427 2699.2702 2843.8031 2714.5925 2816.7397 2773.8208 2776.2528 2751.9287 2810.1427 2699.2702 Z" fill="none" stroke="#865327" opacity="0.6" stroke-width="1" class="nolita"/>
<path d="M 2844.15 2714.0164 2838.3682 2735.2181 2833.7425 2750.6588 2828.654 2767.4824 2821.2523 2793.5251 2781.2271 2774.8591 2774.9806 2771.4023 2796.2638 2737.064 2799.7336 2725.5414 2814.6538 2700.883 2827.6089 2706.989 2844.15 2714.0164 Z" fill="none" stroke="#865327" opacity="0.6" stroke-width="1" class="nolita"/>
<path d="M 2845.7695 2715.3989 2829.001 2767.5977 2792.9098 2752.5045 2801.1215 2721.9694 2814.5381 2701.92 2816.1574 2700.883 2845.7695 2715.3989 Z" fill="none" stroke="#865327" opacity="0.6" stroke-width="1" class="nolita"/>
<path d="M 2815.6948 2701.8048 2843.4561 2714.7078 2825.4158 2778.7752 2791.1749 2760.34 2802.0469 2723.0064 2815.6948 2701.8048 Z" fill="none" stroke="#865327" opacity="0.6" stroke-width="1" class="nolita"/>
<path d="M 2825.6415 2690.5125 2848.3126 2696.7327 2829.5791 2764.0255 2797.6523 2748.817 2825.6415 2690.5125 Z" fill="none" stroke="#865327" opacity="0.6" stroke-width="1" class="nolita"/>
<path d="M 2818.2395 2701.1133 2846.232 2714.0162 2828.8853 2767.4824 2794.4135 2750.6608 2804.3602 2720.0104 2818.2395 2701.1133 Z" fill="none" stroke="#865327" opacity="0.6" stroke-width="1" class="nolita"/>
<path d="M 2815.5792 2701.92 2843.456 2713.6708 2825.9942 2779.0056 2791.2906 2760.8009 2794.4135 2751.4674 2801.5842 2723.9282 2815.5792 2701.92 Z" fill="none" stroke="#865327" opacity="0.6" stroke-width="1" class="nolita"/>
<path d="M 2793.0257 2760.1095 2803.2036 2723.4672 2815.4635 2702.0352 2843.9187 2714.7077 2825.1843 2777.3924 2793.0257 2760.1095 Z" fill="none" stroke="#865327" opacity="0.6" stroke-width="1" class="nolita"/>
<path d="M 2844.8441 2714.5924 2829.1166 2766.2149 2793.7195 2752.0435 2801.3529 2723.9282 2815.4634 2700.9982 2844.8441 2714.5924 Z" fill="none" stroke="#865327" opacity="0.6" stroke-width="1" class="nolita"/>
<path d="M 2843.803 2714.3621 2831.5452 2758.6096 2795.9169 2739.8294 2801.6999 2722.8911 2815.5791 2701.5743 2843.803 2714.3621 Z" fill="none" stroke="#865327" opacity="0.6" stroke-width="1" class="nolita"/>
<path d="M 2825.7628 2779.5818 2784.5814 2757.1138 2796.1483 2739.8294 2801.2372 2722.7759 2803.2035 2720.2409 2798.1139 2717.2453 2818.7013 2685.5585 2825.0631 2689.706 2849.5851 2698.3457 2829.695 2767.5976 2825.7628 2779.5818 Z" fill="none" stroke="#865327" opacity="0.6" stroke-width="1" class="nolita"/>
<path d="M 2815.8105 2701.6895 2843.9187 2714.2468 2828.1912 2766.215 2794.5292 2751.4674 2815.2321 2701.8048 2815.8105 2701.6895 Z" fill="none" stroke="#865327" opacity="0.6" stroke-width="1" class="nolita"/>
<path d="M 2889.0317 2730.8342 2816.8565 2793.5253 2766.8832 2746.513 2806.6715 2672.7698 2855.7115 2658.0187 2844.6126 2713.325 2889.0317 2730.8342 Z" fill="none" stroke="#865327" opacity="0.6" stroke-width="1" class="nolita"/>
<path d="M 2843.9188 2715.1686 2828.1913 2767.9434 2794.0665 2752.3892 2802.5095 2722.315 2815.4635 2702.4961 2843.9188 2715.1686 Z" fill="none" stroke="#865327" opacity="0.6" stroke-width="1" class="nolita"/>
<path d="M 2815.2321 2700.883 2842.7617 2711.0207 2827.0351 2777.3923 2847.1575 2714.7074 2823.5649 2778.0839 2787.0105 2755.0396 2815.2321 2700.883 Z" fill="none" stroke="#865327" opacity="0.6" stroke-width="1" class="nolita"/>
<path d="M 2826.1098 2779.0056 2775.9058 2751.8134 2809.4486 2699.0398 2846.0007 2713.7858 2832.355 2759.1857 2823.1007 2753.4249 2830.5043 2760.5686 2826.1098 2779.0056 Z" fill="none" stroke="#865327" opacity="0.6" stroke-width="1" class="nolita"/>
<path d="M 2843.2247 2714.7078 2828.1912 2766.3302 2806.9065 2756.6522 2823.4448 2705.9523 2843.2247 2714.7078 Z" fill="none" stroke="#865327" opacity="0.6" stroke-width="1" class="nolita"/>
<path d="M 2846.0006 2713.0944 2830.9674 2766.5605 2795.3389 2751.3521 2817.3142 2701.8047 2846.0006 2713.0944 Z" fill="none" stroke="#865327" opacity="0.6" stroke-width="1" class="nolita"/>
<path d="M 2778.5669 2795.3704 2777.7571 2794.4485 2814.4282 2811.5019 2806.6781 2824.6391 2786.0875 2863.0143 2774.5188 2862.0925 2756.5875 2838.9294 2778.5669 2795.3704 Z" fill="none" stroke="#865327" opacity="0.6" stroke-width="1" class="nolita"/>
<path d="M 2817.3141 2700.422 2848.777 2717.2422 2828.4242 2791.9114 2783.3092 2770.9413 2762.719 2759.4185 2802.7398 2694.4312 2817.3141 2700.422 Z" fill="none" stroke="#865327" opacity="0.6" stroke-width="1" class="nolita"/>
<path d="M 2800.1953 2699.9619 2841.3742 2716.5515 2827.0343 2764.0257 2787.2416 2745.591 2783.0776 2754.3483 2768.734 2746.0521 2800.1953 2699.9619 Z" fill="none" stroke="#865327" opacity="0.6" stroke-width="1" class="nolita"/>
<path d="M 2793.4881 2750.8913 2789.4395 2749.163 2795.4542 2739.7142 2786.8944 2734.2988 2809.5643 2699.0398 2844.8441 2714.5924 2828.4225 2766.6759 2793.4881 2750.8913 Z" fill="none" stroke="#865327" opacity="0.6" stroke-width="1" class="nolita"/>
<path d="M 2800.6578 2694.4313 2845.5382 2715.6294 2828.8852 2766.3301 2772.4355 2740.0603 2797.8819 2697.1967 2800.6578 2694.4313 Z" fill="none" stroke="#865327" opacity="0.6" stroke-width="1" class="nolita"/>
<path d="M 2846.0006 2713.0944 2815.4634 2700.1917 2867.0425 2621.3795 2846.0006 2713.0944 Z" fill="none" stroke="#865327" opacity="0.6" stroke-width="1" class="nolita"/>
<path d="M 2846.0007 2713.5553 2824.4904 2779.4666 2784.697 2754.5788 2815.0008 2700.883 2846.0007 2713.5553 Z" fill="none" stroke="#865327" opacity="0.6" stroke-width="1" class="nolita"/>
<path d="M 2846.0007 2714.2467 2829.8101 2758.4945 2801.5852 2748.8169 2819.165 2705.4917 2846.0007 2714.2467 Z" fill="none" stroke="#865327" opacity="0.6" stroke-width="1" class="nolita"/>
<path d="M 2844.6126 2713.0945 2826.5726 2779.4665 2791.869 2760.1095 2801.3528 2721.8541 2817.3141 2699.9611 2844.6126 2713.0945 Z" fill="none" stroke="#865327" opacity="0.6" stroke-width="1" class="nolita"/>
<path d="M 2815.232 2699.5004 2844.844 2713.325 2821.0209 2793.986 2782.1526 2775.5505 2791.4063 2760.1096 2796.264 2741.2121 2801.5842 2723.2368 2805.7481 2717.0146 2815.232 2699.5004 Z" fill="none" stroke="#865327" opacity="0.6" stroke-width="1" class="nolita"/>
<path d="M 2828.6539 2766.7911 2778.4505 2742.5953 2810.1427 2699.5006 2845.0754 2714.9381 2828.6539 2766.7911 Z" fill="none" stroke="#865327" opacity="0.6" stroke-width="1" class="nolita"/>
<path d="M 2844.6125 2712.288 2825.1844 2779.2361 2784.6971 2757.1138 2813.8441 2701.2287 2842.8775 2712.1729 2839.9859 2714.2471 2842.5306 2713.9013 2821.9426 2730.6102 2816.0436 2735.2195 2815.0027 2738.3307 2821.8269 2730.9559 2817.0846 2734.5281 2816.3907 2736.2565 2844.6125 2712.288 Z" fill="none" stroke="#865327" opacity="0.6" stroke-width="1" class="nolita"/>
<path d="M 2829.001 2767.5977 2793.7195 2751.4674 2801.5842 2722.8912 2815.3478 2700.883 2828.0716 2707.2194 2844.2657 2714.1316 2829.001 2767.5977 Z" fill="none" stroke="#865327" opacity="0.6" stroke-width="1" class="nolita"/>
<path d="M 2801.8156 2723.4673 2815.4635 2701.8048 2847.1574 2714.0161 2826.5725 2778.3142 2792.1003 2759.8791 2801.8156 2723.4673 Z" fill="none" stroke="#865327" opacity="0.6" stroke-width="1" class="nolita"/>
<path d="M 2846.6948 2714.7075 2827.498 2779.0055 2768.734 2746.513 2804.1278 2695.1225 2846.6948 2714.7075 Z" fill="none" stroke="#865327" opacity="0.6" stroke-width="1" class="nolita"/>
<path d="M 2810.3741 2701.3441 2839.0597 2703.1859 2818.7066 2780.6193 2778.9137 2781.5425 2810.3741 2701.3441 Z" fill="none" stroke="#865327" opacity="0.6" stroke-width="1" class="nolita"/>
<path d="M 2801.3529 2723.0064 2815.2321 2700.5373 2844.3814 2714.2468 2828.8853 2767.252 2793.4882 2751.6979 2801.3529 2723.0064 Z" fill="none" stroke="#865327" opacity="0.6" stroke-width="1" class="nolita"/>
<path d="M 2844.6127 2713.7859 2826.1098 2779.0056 2791.8689 2759.4182 2797.4207 2741.2121 2804.8229 2721.6236 2817.5455 2701.5742 2834.2019 2705.9516 2844.6127 2713.7859 Z" fill="none" stroke="#865327" opacity="0.6" stroke-width="1" class="nolita"/>
<path d="M 2796.2639 2739.3685 2801.3528 2722.315 2815.0008 2701.1135 2844.6126 2713.5554 2825.8785 2779.697 2784.9284 2757.3442 2796.2639 2739.3685 Z" fill="none" stroke="#865327" opacity="0.6" stroke-width="1" class="nolita"/>
<path d="M 2826.5726 2779.4665 2791.1749 2760.1096 2801.8156 2723.4673 2815.6948 2701.8048 2844.8441 2714.9381 2826.5726 2779.4665 Z" fill="none" stroke="#865327" opacity="0.6" stroke-width="1" class="nolita"/>
<path d="M 2791.6376 2758.7268 2784.6971 2756.6529 2800.1962 2722.776 2816.3888 2701.8047 2844.1501 2715.399 2824.7216 2777.6229 2791.6376 2758.7268 Z" fill="none" stroke="#865327" opacity="0.6" stroke-width="1" class="nolita"/>
<path d="M 2816.8515 2701.3438 2846.926 2713.0943 2830.2734 2767.7128 2793.7195 2751.8131 2802.9723 2723.6977 2816.8515 2701.3438 Z" fill="none" stroke="#865327" opacity="0.6" stroke-width="1" class="nolita"/>
<path d="M 2844.6128 2715.6294 2827.2666 2779.0055 2792.1004 2762.1836 2802.047 2725.5413 2816.3888 2702.2656 2811.7626 2711.0227 2818.0082 2702.7264 2844.6128 2715.6294 Z" fill="none" stroke="#865327" opacity="0.6" stroke-width="1" class="nolita"/>
<path d="M 2844.6128 2715.1686 2823.3335 2778.3144 2786.2008 2756.9985 2814.5385 2709.6399 2844.6128 2715.1686 Z" fill="none" stroke="#865327" opacity="0.6" stroke-width="1" class="nolita"/>
<path d="M 2815.4634 2700.4221 2844.6126 2712.8641 2829.3478 2764.9474 2796.4957 2753.8871 2800.1971 2747.4342 2815.4634 2700.4221 Z" fill="none" stroke="#865327" opacity="0.6" stroke-width="1" class="nolita"/>
<path d="M 2840.6798 2712.1731 2824.4896 2766.5609 2796.033 2752.7348 2806.2109 2720.9322 2817.3141 2701.3438 2840.6798 2712.1731 Z" fill="none" stroke="#865327" opacity="0.6" stroke-width="1" class="nolita"/>
<path d="M 2836.7475 2717.9345 2847.8519 2719.7772 2827.0363 2794.9075 2778.4509 2774.1678 2814.5383 2704.1093 2845.0758 2718.8557 2836.7475 2717.9345 Z" fill="none" stroke="#865327" opacity="0.6" stroke-width="1" class="nolita"/>
<path d="M 2801.3528 2722.315 2816.8515 2701.8047 2846.0006 2713.0944 2828.8852 2765.6388 2797.421 2750.8911 2797.1897 2752.9652 2793.9509 2753.6567 2801.3528 2722.315 Z" fill="none" stroke="#865327" opacity="0.6" stroke-width="1" class="nolita"/>
<path d="M 2826.3413 2780.1579 2817.5495 2774.3969 2790.9436 2759.8791 2794.6447 2746.743 2800.6589 2725.7718 2815.2321 2701.8048 2843.2247 2714.9382 2826.3413 2780.1579 Z" fill="none" stroke="#865327" opacity="0.6" stroke-width="1" class="nolita"/>
<path d="M 2845.0754 2714.4772 2827.4979 2778.0837 2768.5027 2747.6653 2799.9639 2697.6575 2845.0754 2714.4772 Z" fill="none" stroke="#865327" opacity="0.6" stroke-width="1" class="nolita"/>
<path d="M 2846.926 2713.7857 2831.4299 2763.334 2794.6449 2751.3521 2818.4708 2700.8828 2846.926 2713.7857 Z" fill="none" stroke="#865327" opacity="0.6" stroke-width="1" class="nolita"/>
<path d="M 2794.1822 2752.274 2803.4349 2723.2368 2799.2713 2737.9857 2806.2108 2719.319 2811.7625 2710.1009 2817.0829 2703.8787 2817.777 2704.57 2841.3741 2716.3211 2827.96 2768.6348 2824.9523 2766.5609 2794.1822 2752.274 Z" fill="none" stroke="#865327" opacity="0.6" stroke-width="1" class="nolita"/>
<path d="M 2814.7694 2701.1135 2845.0754 2714.0163 2829.5794 2767.7128 2789.3238 2749.0477 2796.2639 2739.3685 2800.6589 2723.2369 2814.7694 2701.1135 Z" fill="none" stroke="#865327" opacity="0.6" stroke-width="1" class="nolita"/>
<path d="M 2790.0179 2749.7391 2796.611 2740.1751 2801.4685 2723.3521 2815.9261 2701.2286 2845.5381 2714.938 2829.1167 2767.5976 2811.8806 2759.5326 2790.0179 2749.7391 Z" fill="none" stroke="#865327" opacity="0.6" stroke-width="1" class="nolita"/>
<path d="M 2793.4881 2750.8913 2801.8155 2721.6237 2815.4634 2700.6526 2844.8441 2714.9381 2828.4226 2768.1738 2793.4881 2750.8913 Z" fill="none" stroke="#865327" opacity="0.6" stroke-width="1" class="nolita"/>
<path d="M 2828.8853 2767.9433 2793.4882 2751.5826 2796.2639 2739.599 2801.3528 2721.6237 2815.232 2699.7308 2828.4186 2707.5651 2845.3068 2714.7076 2828.8853 2767.9433 Z" fill="none" stroke="#865327" opacity="0.6" stroke-width="1" class="nolita"/>
<path d="M 2815.2642 2701.4368 2844.6649 2714.4442 2829.5251 2767.5317 2793.3038 2752.3502 2815.2642 2701.4368 Z" fill="none" stroke="#865327" opacity="0.6" stroke-width="1" class="nolita"/>
<path d="M 2815.6948 2701.3439 2844.3814 2714.7077 2826.1098 2779.2361 2790.2496 2761.4923 2801.1215 2722.5455 2815.6948 2701.3439 Z" fill="none" stroke="#865327" opacity="0.6" stroke-width="1" class="nolita"/>
<path d="M 2815.9261 2701.1134 2844.6127 2714.2468 2828.4225 2766.0997 2794.8762 2751.3521 2802.0469 2723.6977 2815.9261 2701.1134 Z" fill="none" stroke="#865327" opacity="0.6" stroke-width="1" class="nolita"/>
<path d="M 2801.1205 2694.8922 2849.7022 2714.7072 2830.2742 2779.6967 2771.0475 2748.8176 2801.1205 2694.8922 Z" fill="none" stroke="#865327" opacity="0.6" stroke-width="1" class="nolita"/>
<path d="M 2790.0182 2760.1096 2784.9284 2756.3072 2795.5698 2737.4097 2801.1215 2722.8912 2812.1094 2706.529 2814.6537 2700.5374 2847.3887 2713.5552 2828.4225 2766.3302 2826.3411 2778.3142 2790.0182 2760.1096 Z" fill="none" stroke="#865327" opacity="0.6" stroke-width="1" class="nolita"/>
<path d="M 2815.4635 2701.5743 2843.9187 2714.8229 2824.7218 2779.9275 2792.1003 2760.5704 2767.5773 2747.8958 2788.8602 2711.4845 2815.4635 2701.5743 Z" fill="none" stroke="#865327" opacity="0.6" stroke-width="1" class="nolita"/>
<path d="M 2802.0469 2723.0064 2816.1574 2699.7308 2836.7469 2710.3298 2836.747 2710.7907 2814.0797 2783.3851 2805.9821 2779.0067 2803.6675 2754.3477 2787.2418 2751.3523 2802.0469 2723.0064 Z" fill="none" stroke="#865327" opacity="0.6" stroke-width="1" class="nolita"/>
<path d="M 2842.7622 2716.0905 2821.0209 2793.5251 2793.2577 2782.4641 2799.6192 2762.4139 2820.206 2703.8785 2842.7622 2716.0905 Z" fill="none" stroke="#865327" opacity="0.6" stroke-width="1" class="nolita"/>
<path d="M 2845.0753 2713.5554 2821.4837 2795.3688 2757.6293 2758.7271 2800.6578 2696.0444 2845.0753 2713.5554 Z" fill="none" stroke="#865327" opacity="0.6" stroke-width="1" class="nolita"/>
<path d="M 2793.7194 2748.1258 2812.4561 2701.5745 2844.3814 2714.2468 2829.3478 2764.0255 2793.7194 2748.1258 Z" fill="none" stroke="#865327" opacity="0.6" stroke-width="1" class="nolita"/>
<path d="M 2844.15 2714.4773 2826.1099 2779.4665 2790.2495 2760.5705 2790.2495 2759.4182 2800.6589 2723.6978 2814.7694 2700.883 2820.3216 2703.1872 2844.15 2714.4773 Z" fill="none" stroke="#865327" opacity="0.6" stroke-width="1" class="nolita"/>
<path d="M 2830.0328 2767.5561 2830.8472 2768.2843 2792.9491 2750.7276 2832.6725 2669.6713 2854.705 2679.7672 2830.0328 2767.5561 Z" fill="none" stroke="#865327" opacity="0.6" stroke-width="1" class="nolita"/>
<path d="M 2791.6376 2760.8009 2814.3068 2702.4962 2842.7621 2715.3992 2825.4157 2778.0838 2791.6376 2760.8009 Z" fill="none" stroke="#865327" opacity="0.6" stroke-width="1" class="nolita"/>
<path d="M 2819.3964 2705.7221 2842.2993 2714.4774 2825.8777 2766.5608 2802.5108 2755.2696 2819.3964 2705.7221 Z" fill="none" stroke="#865327" opacity="0.6" stroke-width="1" class="nolita"/>
<path d="M 2843.6874 2714.4773 2825.9942 2780.1579 2785.0441 2757.229 2796.9579 2739.138 2801.8156 2723.2368 2815.5791 2701.6895 2843.6874 2714.4773 Z" fill="none" stroke="#865327" opacity="0.6" stroke-width="1" class="nolita"/>
<path d="M 2844.3813 2714.0163 2828.8853 2767.252 2793.4881 2751.3522 2802.0469 2723.2368 2815.5791 2700.7678 2844.3813 2714.0163 Z" fill="none" stroke="#865327" opacity="0.6" stroke-width="1" class="nolita"/>
<path d="M 2802.1638 2755.7305 2820.0937 2763.5652 2811.8821 2789.8382 2794.8772 2781.7726 2802.1638 2755.7305 Z" fill="none" stroke="#865327" opacity="0.6" stroke-width="1" class="nolita"/>
<path d="M 2801.8156 2723.4673 2816.6201 2701.1134 2841.1423 2709.6382 2825.6463 2765.8694 2793.9508 2750.6608 2801.8156 2723.4673 Z" fill="none" stroke="#865327" opacity="0.6" stroke-width="1" class="nolita"/>
<path d="M 2815.4634 2700.4221 2813.15 2699.5005 2861.7322 2718.8541 2832.1264 2798.5946 2775.2119 2771.8632 2799.7335 2723.4673 2815.4634 2700.4221 Z" fill="none" stroke="#865327" opacity="0.6" stroke-width="1" class="nolita"/>
<path d="M 2814.7695 2701.3439 2844.0344 2715.0534 2828.0756 2768.0586 2789.7865 2749.163 2803.6662 2720.7018 2814.7695 2701.3439 Z" fill="none" stroke="#865327" opacity="0.6" stroke-width="1" class="nolita"/>
<path d="M 2817.0827 2700.1916 2844.8443 2717.0121 2842.9935 2716.3209 2827.498 2779.4664 2792.1003 2759.6486 2817.0827 2700.1916 Z" fill="none" stroke="#865327" opacity="0.6" stroke-width="1" class="nolita"/>
<path d="M 2801.3529 2723.0064 2815.1165 2701.6896 2843.8031 2714.9382 2829.1167 2767.5976 2789.0925 2749.8543 2801.3529 2723.0064 Z" fill="none" stroke="#865327" opacity="0.6" stroke-width="1" class="nolita"/>
<path d="M 2825.1801 2711.022 2836.2846 2714.9388 2829.5774 2738.445 2816.3905 2732.2237 2825.1801 2711.022 Z" fill="none" stroke="#865327" opacity="0.6" stroke-width="1" class="nolita"/>
<path d="M 2815.6949 2703.4179 2845.5382 2715.3989 2830.9673 2765.6386 2799.5032 2753.6565 2793.0255 2752.7349 2815.6949 2703.4179 Z" fill="none" stroke="#865327" opacity="0.6" stroke-width="1" class="nolita"/>
<path d="M 2801.1205 2696.7357 2850.1556 2611.9339 2858.4782 2564.0067 2878.8316 2554.7881 2922.3226 2596.2561 2867.7449 2699.4961 2851.0911 2724.3859 2801.1205 2696.7357 Z" fill="none" stroke="#865327" opacity="0.6" stroke-width="1" class="nolita"/>
<path d="M 2844.6122 2708.7161 2840.9112 2712.4035 2785.3895 2681.988 2821.4725 2605.4842 2878.8397 2622.9911 2844.6122 2708.7161 Z" fill="none" stroke="#865327" opacity="0.6" stroke-width="1" class="nolita"/>
<path d="M 2815.6948 2701.2287 2844.9597 2714.7076 2825.5315 2780.0427 2790.7122 2759.9943 2801.5842 2723.1216 2815.6948 2701.2287 Z" fill="none" stroke="#865327" opacity="0.6" stroke-width="1" class="nolita"/>
<path d="M 2829.0009 2766.5606 2794.5292 2750.776 2797.4207 2740.2903 2802.2783 2724.5043 2804.2445 2721.2779 2811.1842 2711.2532 2810.3745 2710.9076 2815.6948 2702.3809 2842.7621 2715.2839 2842.6463 2714.3622 2829.0009 2766.5606 Z" fill="none" stroke="#865327" opacity="0.6" stroke-width="1" class="nolita"/>
<path d="M 2815.4635 2701.8048 2827.4933 2707.3347 2808.0639 2770.2491 2790.0182 2760.34 2802.0468 2721.8541 2815.4635 2701.8048 Z" fill="none" stroke="#865327" opacity="0.6" stroke-width="1" class="nolita"/>
<path d="M 2844.0344 2714.362 2828.7696 2766.7911 2793.9508 2751.2369 2796.4953 2739.7142 2801.2372 2723.2368 2815.4634 2700.5373 2844.0344 2714.362 Z" fill="none" stroke="#865327" opacity="0.6" stroke-width="1" class="nolita"/>
<path d="M 2817.3141 2700.8829 2845.3067 2714.0163 2830.7362 2768.1737 2794.8762 2749.0476 2795.8014 2745.5907 2801.8157 2726.0022 2805.0542 2720.0104 2817.3141 2700.8829 Z" fill="none" stroke="#865327" opacity="0.6" stroke-width="1" class="nolita"/>
<path d="M 2815.4635 2701.8048 2843.456 2714.0164 2825.1844 2778.7752 2791.4063 2760.5705 2814.0754 2701.1135 2800.1962 2724.3891 2791.4062 2759.6486 2815.4635 2701.8048 Z" fill="none" stroke="#865327" opacity="0.6" stroke-width="1" class="nolita"/>
<path d="M 2815.2321 2700.883 2845.3066 2713.3249 2827.2667 2780.1578 2783.7717 2758.0356 2815.2321 2700.883 Z" fill="none" stroke="#865327" opacity="0.6" stroke-width="1" class="nolita"/>
<path d="M 2815.2321 2701.3439 2844.3812 2711.9423 2830.0421 2767.4824 2792.7941 2752.0436 2799.9649 2723.9282 2815.2321 2701.3439 Z" fill="none" stroke="#865327" opacity="0.6" stroke-width="1" class="nolita"/></svg>