<?xml version="1.0"?><svg xmlns="http://www.w3.org/2000/svg" version="1.2" baseProfile="tiny" width="6000" height="5918" viewBox="0 0 6000 5918" stroke-linecap="round" stroke-linejoin="round"><path d="M 2947.7333 2423.6847 2927.3879 2459.3973 2856.3827 2421.1638 2876.2676 2387.0668 2947.7333 2423.6847 Z" fill="none" stroke="#A9159C" opacity="0.6" stroke-width="1" class="nomad"/>
<path d="M 2892.9253 2439.8201 2857.3077 2420.0118 2898.0004 2348.5936 2970.3902 2390.2762 2927.3881 2460.0884 2892.9253 2439.8201 Z" fill="none" stroke="#A9159C" opacity="0.6" stroke-width="1" class="nomad"/>
<path d="M 2836.2545 2312.8955 2949.5744 2377.38 2894.3178 2475.6446 2781.2211 2412.4138 2836.2545 2312.8955 Z" fill="none" stroke="#A9159C" opacity="0.6" stroke-width="1" class="nomad"/>
<path d="M 2894.0816 2439.9351 2931.7665 2370.4724 2965.8801 2387.7431 2928.6598 2458.7059 2894.0816 2439.9351 Z" fill="none" stroke="#A9159C" opacity="0.6" stroke-width="1" class="nomad"/>
<path d="M 2862.862 2458.0238 2888.0606 2378.0811 2960.2203 2416.771 2920.2235 2490.2704 2862.862 2458.0238 Z" fill="none" stroke="#A9159C" opacity="0.6" stroke-width="1" class="nomad"/>
<path d="M 2895.4571 2351.5886 2966.2268 2387.052 2926.9252 2458.4758 2893.1566 2440.0505 2884.8302 2434.9832 2895.4571 2351.5886 Z" fill="none" stroke="#A9159C" opacity="0.6" stroke-width="1" class="nomad"/>
<path d="M 2944.9667 2468.8399 2885.5241 2435.9046 2893.38 2381.9966 2968.0854 2426.6754 2944.9667 2468.8399 Z" fill="none" stroke="#A9159C" opacity="0.6" stroke-width="1" class="nomad"/>
<path d="M 2842.9436 2446.1149 2896.3215 2348.4325 2984.6001 2396.5943 2930.9651 2495.0792 2842.9436 2446.1149 Z" fill="none" stroke="#A9159C" opacity="0.6" stroke-width="1" class="nomad"/>
<path d="M 2917.9083 2475.9866 2857.7725 2443.0495 2885.9808 2390.2907 2947.0395 2423.5696 2917.9083 2475.9866 Z" fill="none" stroke="#A9159C" opacity="0.6" stroke-width="1" class="nomad"/>
<path d="M 2960.4642 2478.0523 2883.6738 2434.5226 2891.5299 2381.7665 2986.3575 2434.9649 2960.4642 2478.0523 Z" fill="none" stroke="#A9159C" opacity="0.6" stroke-width="1" class="nomad"/>
<path d="M 2880.6716 2470.0019 2890.8374 2391.6723 2935.2426 2411.0165 2901.0247 2474.6069 2888.9977 2470.9223 2896.3992 2474.6075 2880.6716 2470.0019 Z" fill="none" stroke="#A9159C" opacity="0.6" stroke-width="1" class="nomad"/>
<path d="M 2883.9051 2434.9833 2897.7697 2352.5097 2983.8051 2398.5665 2946.3542 2468.1485 2883.9051 2434.9833 Z" fill="none" stroke="#A9159C" opacity="0.6" stroke-width="1" class="nomad"/>
<path d="M 2914.2092 2484.1661 2846.556 2445.8151 2881.3551 2385.3384 2947.3861 2422.3025 2914.2092 2484.1661 Z" fill="none" stroke="#A9159C" opacity="0.6" stroke-width="1" class="nomad"/>
<path d="M 2812.2113 2428.539 2848.284 2371.4049 2963.9241 2434.0484 2930.6317 2493.0334 2812.2113 2428.539 Z" fill="none" stroke="#A9159C" opacity="0.6" stroke-width="1" class="nomad"/>
<path d="M 2893.3876 2437.977 2885.7552 2434.0616 2888.2979 2424.8462 2887.1402 2413.7884 2889.6829 2405.2643 2889.2189 2393.7458 2891.9926 2383.379 2916.0454 2396.0456 2934.0852 2405.027 2949.5817 2414.9301 2966.0035 2424.3721 2958.1439 2441.4217 2953.0579 2451.0987 2949.5905 2459.854 2942.6535 2466.7669 2914.8977 2450.4144 2904.258 2442.8134 2899.17 2442.5838 2893.3876 2437.977 Z" fill="none" stroke="#A9159C" opacity="0.6" stroke-width="1" class="nomad"/>
<path d="M 2947.7291 2401.7993 2919.5238 2454.3302 2883.9052 2435.4441 2891.7597 2370.9393 2947.7291 2401.7993 Z" fill="none" stroke="#A9159C" opacity="0.6" stroke-width="1" class="nomad"/>
<path d="M 2922.0719 2479.2114 2874.6565 2453.4149 2885.2856 2378.5422 2955.8264 2417.463 2922.0719 2479.2114 Z" fill="none" stroke="#A9159C" opacity="0.6" stroke-width="1" class="nomad"/>
<path d="M 2812.6739 2430.8428 2847.8214 2370.0227 2964.1552 2432.8964 2930.4009 2495.7981 2913.7467 2484.7421 2914.6722 2487.5066 2812.6739 2430.8428 Z" fill="none" stroke="#A9159C" opacity="0.6" stroke-width="1" class="nomad"/>
<path d="M 2912.5903 2484.7423 2912.5906 2486.8158 2881.1335 2464.2421 2882.2892 2459.1735 2894.0821 2443.0453 2903.0991 2425.5353 2929.9169 2372.7764 2929.9166 2370.9335 2949.8059 2378.5318 2966.9215 2391.4288 2950.5064 2413.0869 2938.485 2436.8179 2925.0748 2457.3242 2915.8258 2469.5361 2913.2839 2483.3598 2912.5903 2484.7423 Z" fill="none" stroke="#A9159C" opacity="0.6" stroke-width="1" class="nomad"/>
<path d="M 2812.2114 2430.382 2851.0581 2360.3473 2967.6223 2423.911 2932.4823 2494.8762 2812.2114 2430.382 Z" fill="none" stroke="#A9159C" opacity="0.6" stroke-width="1" class="nomad"/>
<path d="M 2811.2862 2429.4606 2867.7053 2333.6242 2929.6849 2368.6299 2877.8957 2465.3945 2811.2862 2429.4606 Z" fill="none" stroke="#A9159C" opacity="0.6" stroke-width="1" class="nomad"/>
<path d="M 2883.2111 2433.3708 2889.4497 2390.0599 2981.9649 2441.8773 2961.6205 2477.5913 2883.2111 2433.3708 Z" fill="none" stroke="#A9159C" opacity="0.6" stroke-width="1" class="nomad"/>
<path d="M 2912.1278 2485.2031 2877.4332 2465.8553 2894.0692 2348.8245 2965.7641 2386.1306 2913.0522 2480.5952 2912.1278 2485.2031 Z" fill="none" stroke="#A9159C" opacity="0.6" stroke-width="1" class="nomad"/>
<path d="M 2927.3876 2457.5542 2858.0015 2420.7029 2877.6551 2386.3755 2946.8084 2424.376 2927.3876 2457.5542 Z" fill="none" stroke="#A9159C" opacity="0.6" stroke-width="1" class="nomad"/>
<path d="M 2984.2675 2398.1056 2947.2794 2468.6091 2827.9358 2403.197 2866.3177 2332.7029 2984.2675 2398.1056 Z" fill="none" stroke="#A9159C" opacity="0.6" stroke-width="1" class="nomad"/>
<path d="M 2877.1924 2384.9934 2964.1554 2433.818 2945.198 2468.8398 2858.2328 2420.2421 2877.1924 2384.9934 Z" fill="none" stroke="#A9159C" opacity="0.6" stroke-width="1" class="nomad"/>
<path d="M 2812.6739 2430.8428 2847.3588 2369.1013 2895.9258 2396.279 2964.1551 2432.6661 2931.7887 2496.2587 2812.6739 2430.8428 Z" fill="none" stroke="#A9159C" opacity="0.6" stroke-width="1" class="nomad"/>
<path d="M 2911.3059 2405.146 2887.029 2448.8057 2852.4519 2428.9969 2876.8456 2386.0301 2911.3059 2405.146 Z" fill="none" stroke="#A9159C" opacity="0.6" stroke-width="1" class="nomad"/>
<path d="M 2947.7291 2401.7993 2918.136 2453.8696 2882.9799 2434.0619 2892.6847 2370.4785 2947.7291 2401.7993 Z" fill="none" stroke="#A9159C" opacity="0.6" stroke-width="1" class="nomad"/>
<path d="M 2846.4406 2447.8885 2890.8338 2364.0286 2975.9467 2418.841 2932.0196 2493.9547 2846.4406 2447.8885 Z" fill="none" stroke="#A9159C" opacity="0.6" stroke-width="1" class="nomad"/>
<path d="M 2843.6654 2448.8103 2895.4584 2361.2636 2982.4204 2411.0068 2938.0333 2495.7968 2843.6654 2448.8103 Z" fill="none" stroke="#A9159C" opacity="0.6" stroke-width="1" class="nomad"/>
<path d="M 2946.1144 2423.685 2963.9239 2433.1269 2984.0466 2443.0287 3007.6397 2456.1547 3032.3902 2470.6623 3012.5092 2504.8425 2986.3701 2489.1823 2964.8589 2479.7411 2945.1981 2469.608 2927.619 2458.0919 2910.0408 2449.801 2895.007 2442.2006 2886.9114 2432.9865 2891.5312 2391.5188 2913.2715 2403.9556 2930.3865 2413.321 2946.1144 2423.685 Z" fill="none" stroke="#A9159C" opacity="0.6" stroke-width="1" class="nomad"/>
<path d="M 2846.9032 2449.2708 2900.5443 2349.745 2983.3425 2398.1058 2935.2581 2497.1796 2846.9032 2449.2708 Z" fill="none" stroke="#A9159C" opacity="0.6" stroke-width="1" class="nomad"/>
<path d="M 2843.2027 2447.6584 2877.6549 2384.9933 2964.6177 2432.8964 2929.9384 2496.4894 2843.2027 2447.6584 Z" fill="none" stroke="#A9159C" opacity="0.6" stroke-width="1" class="nomad"/>
<path d="M 2813.1364 2429.4605 2851.0581 2360.3473 2950.5068 2415.1603 2913.978 2484.7421 2813.1364 2429.4605 Z" fill="none" stroke="#A9159C" opacity="0.6" stroke-width="1" class="nomad"/>
<path d="M 2873.2621 2394.8996 2924.6067 2423.9193 2892.6988 2475.5296 2842.2776 2446.9674 2871.4121 2395.3606 2873.2621 2394.8996 Z" fill="none" stroke="#A9159C" opacity="0.6" stroke-width="1" class="nomad"/>
<path d="M 2931.0887 2461.5853 2883.327 2435.0986 2888.2951 2403.0759 2907.3758 2414.0159 2931.8819 2369.2054 2965.8802 2388.0887 2931.0887 2461.5853 Z" fill="none" stroke="#A9159C" opacity="0.6" stroke-width="1" class="nomad"/>
<path d="M 2931.9975 2369.0902 2983.8048 2397.1842 2946.3546 2469.9916 2908.8844 2449.2634 2892.6942 2440.972 2931.9975 2369.0902 Z" fill="none" stroke="#A9159C" opacity="0.6" stroke-width="1" class="nomad"/>
<path d="M 2813.1363 2428.539 2849.2081 2360.3474 2967.6223 2423.911 2929.7069 2494.8767 2813.1363 2428.539 Z" fill="none" stroke="#A9159C" opacity="0.6" stroke-width="1" class="nomad"/>
<path d="M 2857.7703 2420.9333 2876.9612 2385.6845 2963.4615 2433.5877 2944.5042 2469.0704 2857.7703 2420.9333 Z" fill="none" stroke="#A9159C" opacity="0.6" stroke-width="1" class="nomad"/>
<path d="M 2846.6651 2368.871 2964.3865 2433.3572 2930.1695 2495.3374 2813.3677 2430.382 2846.6651 2368.871 Z" fill="none" stroke="#A9159C" opacity="0.6" stroke-width="1" class="nomad"/>
<path d="M 2961.8518 2477.5913 2883.4426 2434.9834 2895.226 2352.7404 3000.2268 2407.547 2961.8518 2477.5913 Z" fill="none" stroke="#A9159C" opacity="0.6" stroke-width="1" class="nomad"/></svg>