<?xml version="1.0"?><svg xmlns="http://www.w3.org/2000/svg" version="1.2" baseProfile="tiny" width="6000" height="5918" viewBox="0 0 6000 5918" stroke-linecap="round" stroke-linejoin="round"><path d="M 5386.4317 2668.212 5259.257 2514.1766 5232.5998 2403.2008 5531.5175 2288.1145 5648.5107 2435.6572 5629.3189 2513.1266 5569.5715 2527.0148 5548.8547 2560.8307 5501.9043 2602.0971 5386.4317 2668.212 Z" fill="none" stroke="#E71E24" opacity="0.6" stroke-width="1" class="oakland_gardens"/>
<path d="M 5510.5744 2322.2673 5983.0293 2329.0679 5998.9848 2531.5172 5548.0451 2560.8331 5509.4175 2322.0403 5510.5744 2322.2673 Z" fill="none" stroke="#E71E24" opacity="0.6" stroke-width="1" class="oakland_gardens"/>
<path d="M 5257.1744 2426.1737 5539.009 2319.4199 5635.5582 2435.236 5366.0902 2673.7987 5257.1744 2426.1737 Z" fill="none" stroke="#E71E24" opacity="0.6" stroke-width="1" class="oakland_gardens"/>
<path d="M 5189.6988 2447.5444 5387.8809 2357.1696 5489.7043 2542.5705 5230.7925 2596.7377 5189.6988 2447.5444 Z" fill="none" stroke="#E71E24" opacity="0.6" stroke-width="1" class="oakland_gardens"/>
<path d="M 5505.7183 2322.2814 5521.5772 2368.3069 5494.7865 2380.3637 5526.5715 2494.5402 5391.5887 2526.2594 5326.827 2526.4373 5288.6538 2436.2268 5269.1465 2405.869 5448.4044 2334.4244 5505.7183 2322.2814 Z" fill="none" stroke="#E71E24" opacity="0.6" stroke-width="1" class="oakland_gardens"/>
<path d="M 5583.8281 2460.2732 5386.3984 2656.2295 5259.0343 2429.8549 5504.7719 2314.9129 5583.8281 2460.2732 Z" fill="none" stroke="#E71E24" opacity="0.6" stroke-width="1" class="oakland_gardens"/>
<path d="M 5180.9839 2295.5262 5243.8097 2268.6436 5325.1597 2252.7636 5390.661 2192.6983 5451.7398 2206.3458 5513.051 2299.2251 5634.6191 2430.6312 5500.9266 2584.0121 5386.4547 2676.5077 5291.8457 2591.968 5228.478 2418.877 5180.9839 2295.5262 Z" fill="none" stroke="#E71E24" opacity="0.6" stroke-width="1" class="oakland_gardens"/>
<path d="M 4793.2573 2214.4392 4998.6114 2228.7167 5013.9185 2442.4502 4892.0563 2553.3219 4668.1408 2544.5834 4536.7299 2526.4068 4505.1588 2463.7984 4493.9158 2386.4126 4793.2573 2214.4392 Z" fill="none" stroke="#E71E24" opacity="0.6" stroke-width="1" class="oakland_gardens"/>
<path d="M 5398.1728 2564.9494 5290.9107 2588.2838 5269.5082 2542.2585 5235.0715 2464.0145 5235.8881 2422.5436 5335.6848 2381.7318 5393.9178 2365.9066 5397.6384 2373.2679 5411.6144 2409.1664 5420.966 2445.0792 5436.7577 2468.0731 5464.5926 2496.5625 5483.1405 2512.1763 5495.2634 2545.3193 5472.1628 2555.5238 5451.8111 2556.5036 5427.7664 2560.2582 5407.43 2566.7668 5398.1728 2564.9494 Z" fill="none" stroke="#E71E24" opacity="0.6" stroke-width="1" class="oakland_gardens"/>
<path d="M 5262.0556 2522.9244 5221.0991 2427.1897 5387.3864 2345.653 5525.984 2293.659 5646.6704 2438.8882 5737.5024 2493.8998 5758.0774 2563.8774 5667.481 2588.1232 5375.3637 2681.1472 5278.9097 2598.4542 5262.0556 2522.9244 Z" fill="none" stroke="#E71E24" opacity="0.6" stroke-width="1" class="oakland_gardens"/>
<path d="M 5227.5553 2419.8009 5234.9583 2420.703 5521.3755 2299.2008 5651.2648 2428.7374 5383.6864 2679.2806 5227.5553 2419.8009 Z" fill="none" stroke="#E71E24" opacity="0.6" stroke-width="1" class="oakland_gardens"/>
<path d="M 5264.9043 2550.5654 5212.7424 2415.2319 5505.6167 2287.2687 5646.6507 2432.4376 5547.9419 2525.8116 5471.3353 2589.6273 5427.0464 2633.0727 5383.6225 2656.2372 5349.3866 2656.3315 5264.9043 2550.5654 Z" fill="none" stroke="#E71E24" opacity="0.6" stroke-width="1" class="oakland_gardens"/>
<path d="M 5458.382 2265.2918 5459.692 2263.4758 5469.8872 2270.8175 5484.7787 2303.0229 5453.3908 2324.3051 5387.7743 2344.7609 5330.4625 2358.74 5312.4511 2357.4895 5270.7355 2323.5083 5206.7125 2246.2806 5177.9325 2203.9741 5185.2557 2174.4744 5192.5856 2147.7392 5223.9807 2129.2333 5299.2172 2119.8442 5376.8927 2117.7901 5432.4594 2146.1927 5458.382 2265.2918 Z" fill="none" stroke="#E71E24" opacity="0.6" stroke-width="1" class="oakland_gardens"/>
<path d="M 5213.5647 2375.6061 5509.2923 2278.9657 5668.776 2407.4891 5421.5881 2666.2703 5280.6669 2563.4264 5213.5647 2375.6061 Z" fill="none" stroke="#E71E24" opacity="0.6" stroke-width="1" class="oakland_gardens"/>
<path d="M 5179.5039 2440.1983 5526.9494 2307.477 5654.0429 2429.6505 5399.4348 2685.6891 5274.5406 2695.2469 5179.5039 2440.1983 Z" fill="none" stroke="#E71E24" opacity="0.6" stroke-width="1" class="oakland_gardens"/>
<path d="M 5420.9841 2451.5298 5376.6408 2473.7706 5301.2584 2307.1889 5358.608 2307.9545 5452.4006 2438.5395 5390.9403 2293.1229 5377.9963 2295.0016 5373.3767 2296.8571 5365.0598 2299.6442 5364.1425 2302.4109 5362.3027 2306.1015 5420.9841 2451.5298 Z" fill="none" stroke="#E71E24" opacity="0.6" stroke-width="1" class="oakland_gardens"/>
<path d="M 5519.0631 2299.2075 5521.8406 2300.1208 5531.5566 2301.4745 5542.6682 2305.5881 5561.6884 2325.3422 5570.5221 2340.9802 5597.4407 2372.2289 5613.2035 2384.6213 5614.6661 2409.497 5632.8152 2445.8418 5631.5758 2494.688 5242.8278 2599.4712 5185.5252 2443.4082 5338.4649 2383.5671 5389.2697 2357.6265 5489.5234 2319.564 5501.0748 2315.845 5519.0631 2299.2075 Z" fill="none" stroke="#E71E24" opacity="0.6" stroke-width="1" class="oakland_gardens"/>
<path d="M 5234.9679 2424.389 5184.6813 2294.5954 5332.5414 2246.2942 5408.2356 2193.5705 5473.0696 2226.5536 5627.2409 2438.0258 5516.591 2561.8469 5398.4684 2670.9437 5299.2624 2597.4781 5234.9679 2424.389 Z" fill="none" stroke="#E71E24" opacity="0.6" stroke-width="1" class="oakland_gardens"/>
<path d="M 5262.6882 2412.3366 5500.1551 2317.6905 5531.6093 2319.4416 5613.2618 2403.9723 5632.9789 2499.7525 5297.3823 2586.4231 5242.4506 2455.7013 5262.6882 2412.3366 Z" fill="none" stroke="#E71E24" opacity="0.6" stroke-width="1" class="oakland_gardens"/>
<path d="M 5267.3649 2403.8041 5511.2654 2321.3439 5575.6222 2475.7373 5462.2854 2634.5894 5267.3649 2403.8041 Z" fill="none" stroke="#E71E24" opacity="0.6" stroke-width="1" class="oakland_gardens"/>
<path d="M 5202.0839 2228.2134 5807.3139 2338.8647 5744.1848 2559.3131 5083.6867 2599.8753 5202.0839 2228.2134 Z" fill="none" stroke="#E71E24" opacity="0.6" stroke-width="1" class="oakland_gardens"/>
<path d="M 5183.1783 2430.0522 5496.45 2315.8584 5540.546 2527.6766 5287.2122 2589.2153 5183.1783 2430.0522 Z" fill="none" stroke="#E71E24" opacity="0.6" stroke-width="1" class="oakland_gardens"/>
<path d="M 5167.8635 2228.3011 5365.6573 2180.7909 5443.4135 2205.4482 5509.3378 2294.6289 5233.0696 2405.964 5227.5409 2414.2719 5168.8025 2233.8266 5167.8635 2228.3011 Z" fill="none" stroke="#E71E24" opacity="0.6" stroke-width="1" class="oakland_gardens"/>
<path d="M 5253.4498 2416.9685 5520.4774 2308.4174 5560.8152 2499.0473 5337.0491 2542.9986 5253.4498 2416.9685 Z" fill="none" stroke="#E71E24" opacity="0.6" stroke-width="1" class="oakland_gardens"/>
<path d="M 5373.9655 2175.2403 5382.3426 2194.5639 5424.9164 2205.5005 5461.0752 2236.7225 5495.4957 2305.7257 5533.6375 2380.2506 5506.8573 2395.9938 5517.1643 2441.1176 5426.5373 2452.4357 5466.4086 2484.5769 5523.7341 2473.3524 5561.7539 2503.6524 5418.7941 2659.8259 5360.4775 2651.6924 5309.4425 2598.3724 5298.263 2569.8309 5332.4432 2550.3842 5289.5789 2436.2243 5277.5234 2425.1983 5267.3037 2408.6384 5333.8348 2381.7368 5382.7947 2357.6445 5362.3154 2310.7085 5332.5589 2252.7435 5318.501 2184.6047 5373.9655 2175.2403 Z" fill="none" stroke="#E71E24" opacity="0.6" stroke-width="1" class="oakland_gardens"/>
<path d="M 5229.4103 2421.639 5525.0672 2296.4259 5649.4288 2433.3506 5389.2204 2672.813 5229.4103 2421.639 Z" fill="none" stroke="#E71E24" opacity="0.6" stroke-width="1" class="oakland_gardens"/>
<path d="M 5372.1082 2172.4816 5442.4965 2208.2147 5531.7794 2377.4917 5311.9299 2491.4571 5171.5631 2228.2917 5372.1082 2172.4816 Z" fill="none" stroke="#E71E24" opacity="0.6" stroke-width="1" class="oakland_gardens"/>
<path d="M 5283.4326 2559.7325 5282.5173 2563.4215 5225.698 2417.0412 5520.4371 2294.5966 5647.5758 2432.4348 5569.125 2493.4932 5283.4326 2559.7325 Z" fill="none" stroke="#E71E24" opacity="0.6" stroke-width="1" class="oakland_gardens"/>
<path d="M 5155.716 2361.9325 5463.4256 2250.0752 5507.1111 2324.1202 5513.9185 2438.3625 5421.9092 2451.5272 5213.9877 2538.7176 5155.716 2361.9325 Z" fill="none" stroke="#E71E24" opacity="0.6" stroke-width="1" class="oakland_gardens"/>
<path d="M 5377.647 2168.7813 5513.051 2299.2251 5609.6338 2427.9423 5559.86 2488.9128 5443.3981 2526.1139 5350.8511 2515.3126 5287.9306 2511.7964 5228.692 2500.8937 5163.2345 2226.4702 5377.647 2168.7813 Z" fill="none" stroke="#E71E24" opacity="0.6" stroke-width="1" class="oakland_gardens"/>
<path d="M 5259.0148 2422.4828 5514.9921 2330.5472 5626.2795 2426.0489 5382.7611 2679.2832 5259.0148 2422.4828 Z" fill="none" stroke="#E71E24" opacity="0.6" stroke-width="1" class="oakland_gardens"/>
<path d="M 5235.7941 2386.6058 5512.992 2278.9549 5672.5103 2418.5357 5362.3585 2662.748 5269.5155 2545.0234 5235.7941 2386.6058 Z" fill="none" stroke="#E71E24" opacity="0.6" stroke-width="1" class="oakland_gardens"/>
<path d="M 5435.181 2237.7175 5629.9938 2430.6453 5402.2133 2686.6031 5180.991 2298.2904 5435.181 2237.7175 Z" fill="none" stroke="#E71E24" opacity="0.6" stroke-width="1" class="oakland_gardens"/>
<path d="M 5443.8187 2348.2589 5464.4214 2436.6622 5369.0925 2420.3427 5443.8187 2348.2589 Z" fill="none" stroke="#E71E24" opacity="0.6" stroke-width="1" class="oakland_gardens"/>
<path d="M 5152.5623 2395.1132 5314.2404 2661.9574 5117.0275 2612.6965 5152.5623 2395.1132 Z" fill="none" stroke="#E71E24" opacity="0.6" stroke-width="1" class="oakland_gardens"/>
<path d="M 5549.8031 2529.4926 5008.0097 2681.1692 5010.3693 2506.046 5010.3408 2494.0655 5491.8305 2317.7146 5619.896 2456.4787 5549.8031 2529.4926 Z" fill="none" stroke="#E71E24" opacity="0.6" stroke-width="1" class="oakland_gardens"/>
<path d="M 5422.8291 2449.6816 5448.8208 2480.9408 5483.1537 2516.7843 5321.3484 2553.1792 5270.0691 2404.9451 5338.4473 2377.1169 5386.487 2354.8699 5504.78 2317.6771 5531.7821 2378.4131 5504.0768 2394.1589 5520.862 2440.1853 5505.1356 2440.231 5492.2057 2447.6407 5422.8291 2449.6816 Z" fill="none" stroke="#E71E24" opacity="0.6" stroke-width="1" class="oakland_gardens"/>
<path d="M 5422.8291 2449.6816 5526.3721 2426.3464 5568.2819 2521.1434 5408.3604 2568.6075 5300.153 2584.5724 5273.1233 2509.9927 5422.8291 2449.6816 Z" fill="none" stroke="#E71E24" opacity="0.6" stroke-width="1" class="oakland_gardens"/>
<path d="M 5392.5357 2534.0905 5321.816 2555.0212 5268.6803 2404.488 5337.9936 2380.3433 5386.0207 2353.489 5505.2478 2319.5185 5524.3509 2367.8381 5496.1767 2381.2812 5517.163 2440.6568 5506.5366 2444.8346 5458.4215 2441.287 5425.1458 2451.0574 5446.9731 2481.8676 5458.5543 2487.8248 5470.6166 2500.2316 5475.73 2508.972 5478.9799 2513.1099 5392.5357 2534.0905 Z" fill="none" stroke="#E71E24" opacity="0.6" stroke-width="1" class="oakland_gardens"/>
<path d="M 5410.0956 2197.2505 5499.955 2248.588 5568.0959 2458.4769 5298.1345 2521.9067 5192.847 2232.8438 5410.0956 2197.2505 Z" fill="none" stroke="#E71E24" opacity="0.6" stroke-width="1" class="oakland_gardens"/>
<path d="M 5240.5231 2426.2175 5219.0933 2367.2986 5423.2976 2287.5041 5481.0914 2443.0651 5375.7335 2480.2241 5403.7189 2563.0906 5302.0159 2589.1757 5240.5231 2426.2175 Z" fill="none" stroke="#E71E24" opacity="0.6" stroke-width="1" class="oakland_gardens"/>
<path d="M 5280.7059 2404.4561 5385.5748 2359.4796 5420.9932 2454.7552 5444.2069 2485.1009 5459.9459 2489.2032 5498.9628 2544.8478 5313.1099 2585.92 5299.636 2564.2973 5321.8147 2554.5603 5326.8695 2542.1047 5323.1151 2522.3001 5280.7059 2404.4561 Z" fill="none" stroke="#E71E24" opacity="0.6" stroke-width="1" class="oakland_gardens"/>
<path d="M 5199.4756 2292.7146 5464.7299 2221.0496 5517.8879 2372.0035 5254.4283 2437.2392 5200.4124 2297.3191 5199.4756 2292.7146 Z" fill="none" stroke="#E71E24" opacity="0.6" stroke-width="1" class="oakland_gardens"/>
<path d="M 5179.4921 2435.5907 5512.1341 2301.9919 5610.4811 2402.1377 5615.2121 2437.1406 5549.8004 2528.571 5239.1389 2604.0893 5179.4921 2435.5907 Z" fill="none" stroke="#E71E24" opacity="0.6" stroke-width="1" class="oakland_gardens"/>
<path d="M 5337.57 2394.6273 5484.5343 2353.6711 5481.7513 2350.9148 5486.3869 2354.5872 5600.6183 2506.3013 5477.6452 2531.5458 5389.7999 2548.3832 5337.57 2394.6273 Z" fill="none" stroke="#E71E24" opacity="0.6" stroke-width="1" class="oakland_gardens"/>
<path d="M 5261.4722 2512.2354 5417.4703 2452.0926 5507.3748 2574.2238 5383.9849 2653.4709 5261.4722 2512.2354 Z" fill="none" stroke="#E71E24" opacity="0.6" stroke-width="1" class="oakland_gardens"/>
<path d="M 5638.412 2461.0302 5357.0217 2741.1138 5176.1521 2214.4603 5369.3134 2165.1193 5638.412 2461.0302 Z" fill="none" stroke="#E71E24" opacity="0.6" stroke-width="1" class="oakland_gardens"/>
<path d="M 5168.7861 2227.3774 5379.5247 2178.91 5639.4521 2498.8112 5299.2451 2591.0265 5168.7861 2227.3774 Z" fill="none" stroke="#E71E24" opacity="0.6" stroke-width="1" class="oakland_gardens"/>
<path d="M 5324.567 2375.3117 5595.1144 2521.985 5310.333 2585.4666 5498.2892 2312.1675 5324.567 2375.3117 Z" fill="none" stroke="#E71E24" opacity="0.6" stroke-width="1" class="oakland_gardens"/>
<path d="M 5207.7905 2289.0076 5248.3931 2252.9686 5285.2932 2216.9392 5330.5489 2193.7848 5392.5004 2189.008 5452.6856 2213.7135 5487.8782 2230.1963 5501.8635 2268.8522 5513.9491 2290.0086 5484.444 2322.3429 5412.356 2343.7405 5364.3175 2365.9885 5326.4346 2381.7569 5287.6253 2397.5265 5250.648 2406.8394 5234.9173 2405.0377 5215.3621 2355.3295 5203.2539 2323.1109 5193.9307 2294.5716 5207.7905 2289.0076 Z" fill="none" stroke="#E71E24" opacity="0.6" stroke-width="1" class="oakland_gardens"/>
<path d="M 5199.889 2453.0473 5197.5335 2436.4659 5385.5646 2355.7939 5486.9102 2536.1272 5245.1228 2592.5526 5199.889 2453.0473 Z" fill="none" stroke="#E71E24" opacity="0.6" stroke-width="1" class="oakland_gardens"/>
<path d="M 5382.5088 2922.1977 5309.6846 2945.9077 5274.1404 2805.8669 5359.3718 2754.4738 5447.835 2948.2916 5382.5088 2922.1977 Z" fill="none" stroke="#E71E24" opacity="0.6" stroke-width="1" class="oakland_gardens"/>
<path d="M 5255.3534 2437.2367 5527.8959 2314.8455 5657.9125 2484.9312 5307.5499 2582.7091 5255.3534 2437.2367 Z" fill="none" stroke="#E71E24" opacity="0.6" stroke-width="1" class="oakland_gardens"/>
<path d="M 5326.9695 2578.97 5297.365 2579.9715 5289.9189 2563.4017 5257.3592 2496.2106 5235.9002 2427.1511 5257.116 2404.0579 5303.3411 2393.7984 5361.5551 2370.6034 5400.4263 2377.8674 5432.0254 2430.3036 5469.1919 2487.3336 5500.8118 2544.3817 5434.2454 2561.1616 5375.0682 2574.23 5326.9695 2578.97 Z" fill="none" stroke="#E71E24" opacity="0.6" stroke-width="1" class="oakland_gardens"/>
<path d="M 5329.7817 2251.8297 5437.8696 2207.3065 5513.0778 2308.4389 5629.0715 2431.5696 5623.7359 2502.5453 5304.7767 2583.6383 5271.9168 2404.0187 5182.265 2434.6621 5134.7854 2314.9926 5329.7817 2251.8297 Z" fill="none" stroke="#E71E24" opacity="0.6" stroke-width="1" class="oakland_gardens"/>
<path d="M 5165.0885 2228.1423 5318.8396 2186.6951 5382.3592 2350.6888 5225.2737 2413.9461 5165.0885 2228.1423 Z" fill="none" stroke="#E71E24" opacity="0.6" stroke-width="1" class="oakland_gardens"/>
<path d="M 5288.9282 2594.3168 5202.1406 2429.3399 5512.8409 2290.6199 5717.5789 2471.5681 5288.9282 2594.3168 Z" fill="none" stroke="#E71E24" opacity="0.6" stroke-width="1" class="oakland_gardens"/>
<path d="M 5265.7172 2508.1691 5217.2433 2367.3034 5367.8524 2306.0863 5425.6278 2457.9675 5265.7172 2508.1691 Z" fill="none" stroke="#E71E24" opacity="0.6" stroke-width="1" class="oakland_gardens"/></svg>