<?xml version="1.0"?><svg xmlns="http://www.w3.org/2000/svg" version="1.2" baseProfile="tiny" width="6000" height="5918" viewBox="0 0 6000 5918" stroke-linecap="round" stroke-linejoin="round"><path d="M 1544.2525 5053.0537 1546.1019 5057.6764 1518.4651 5087.4416 1509.2842 5190.0082 1393.8563 4974.3068 1462.3753 4893.7902 1574.2618 4979.4018 1675.5244 5044.2045 1544.2525 5053.0537 Z" fill="none" stroke="#12852D" opacity="0.6" stroke-width="1" class="oakwood"/>
<path d="M 1508.1653 4984.6292 1342.2723 4889.2288 1430.5486 4772.0304 1735.3902 5013.5477 1689.8169 5119.7642 1549.8706 5012.4036 1508.1653 4984.6292 Z" fill="none" stroke="#12852D" opacity="0.6" stroke-width="1" class="oakwood"/>
<path d="M 1359.4712 4862.0001 1613.814 5062.8435 1526.4677 5175.013 1319.8519 4994.5243 1359.4712 4862.0001 Z" fill="none" stroke="#12852D" opacity="0.6" stroke-width="1" class="oakwood"/>
<path d="M 1422.1223 4828.3706 1450.8789 4823.7918 1541.8722 4741.6967 1640.0909 4808.3307 1464.4968 5037.2388 1178.3555 5294.643 1127.5172 5181.8003 1219.4358 5139.4437 1290.0568 5066.5526 1300.4198 4964.0031 1203.124 4904.7156 1155.839 4894.4735 1159.5552 4890.7842 1172.5742 4870.4807 1322.8501 4853.1683 1367.403 4829.2152 1398.9448 4822.7944 1443.4518 4829.3244 1422.1223 4828.3706 Z" fill="none" stroke="#12852D" opacity="0.6" stroke-width="1" class="oakwood"/>
<path d="M 1396.6317 5070.7122 1369.7907 5047.1949 1362.8628 5027.3179 1364.2727 5014.8457 1360.1554 5001.5436 1354.1467 4987.6747 1356.4911 4970.5846 1377.8541 4950.751 1408.9685 4921.6921 1414.038 4915.4338 1421.2199 4919.8326 1435.1209 4928.1676 1451.7977 4941.588 1505.2975 4985.6229 1612.4214 5063.7658 1574.9866 5075.7028 1584.1918 5133.0085 1559.6551 5175.8183 1512.2103 5213.5712 1396.6317 5070.7122 Z" fill="none" stroke="#12852D" opacity="0.6" stroke-width="1" class="oakwood"/>
<path d="M 1447.1653 4826.5581 1475.0031 4815.5106 1581.5582 4893.2539 1707.6107 4970.0895 1663.0102 5036.5667 1577.7393 4980.0992 1527.5199 5079.8298 1351.4395 4961.3088 1447.1653 4826.5581 Z" fill="none" stroke="#12852D" opacity="0.6" stroke-width="1" class="oakwood"/>
<path d="M 1359.0075 4861.9994 1614.7405 5063.7687 1526.4713 5172.2405 1325.4118 4998.2287 1359.0075 4861.9994 Z" fill="none" stroke="#12852D" opacity="0.6" stroke-width="1" class="oakwood"/>
<path d="M 1389.3046 5074.5566 1392.5451 5078.9506 1382.7894 5089.3324 1308.6683 5028.6955 1410.6328 4918.2011 1562.6348 5004.7969 1520.4497 5165.5324 1508.349 5195.5521 1498.6212 5185.1421 1389.3046 5074.5566 Z" fill="none" stroke="#12852D" opacity="0.6" stroke-width="1" class="oakwood"/>
<path d="M 1434.8907 4981.7571 1567.5056 5004.1101 1597.2194 4979.1994 1632.5202 4934.8924 1642.7526 4909.9587 1641.8964 4849.9054 1632.6473 4828.6459 1539.0339 4785.1101 1537.1084 4839.6128 1553.7644 4869.1977 1565.778 4903.3969 1576.8674 4935.7481 1544.3133 5005.9284 1488.6152 5037.2716 1446.0048 4993.7845 1407.041 4997.4254 1382.9601 4972.443 1381.1577 4936.4061 1405.3743 4866.2245 1496.305 4836.7875 1532.4544 4852.5407 1526.8208 4905.1945 1497.0715 4956.8953 1475.6938 4989.2055 1450.6389 4996.563 1434.8907 4981.7571 Z" fill="none" stroke="#12852D" opacity="0.6" stroke-width="1" class="oakwood"/>
<path d="M 1520.2653 5027.1226 1509.129 5030.804 1523.0712 5009.57 1520.2653 5027.1226 Z" fill="none" stroke="#12852D" opacity="0.6" stroke-width="1" class="oakwood"/>
<path d="M 1421.0746 5107.7631 1656.5374 4787.8546 1812.9433 4902.2818 1512.5399 5210.9242 1421.0746 5107.7631 Z" fill="none" stroke="#12852D" opacity="0.6" stroke-width="1" class="oakwood"/>
<path d="M 1668.3409 5039.345 1504.8732 5193.0059 1328.6724 4988.9938 1443.6065 4884.5253 1668.3409 5039.345 Z" fill="none" stroke="#12852D" opacity="0.6" stroke-width="1" class="oakwood"/>
<path d="M 1375.5776 4946.5613 1468.4023 4894.9534 1633.3206 5041.1519 1517.1694 5190.7118 1377.2308 5084.2418 1363.5209 4945.6195 1375.5776 4946.5613 Z" fill="none" stroke="#12852D" opacity="0.6" stroke-width="1" class="oakwood"/>
<path d="M 1666.5222 5038.9765 1497.479 5181.2874 1396.7809 5068.9387 1319.7356 5015.8469 1419.7958 4909.1677 1666.5222 5038.9765 Z" fill="none" stroke="#12852D" opacity="0.6" stroke-width="1" class="oakwood"/>
<path d="M 1591.5658 5050.3414 1586.7945 5064.0808 1595.3936 5049.3066 1619.3806 5062.2727 1580.44 5138.2316 1500.1125 5110.6351 1473.821 5087.1507 1450.3997 5085.2703 1409.9762 5052.871 1364.5768 5015.6126 1357.8858 4992.6181 1359.1229 4862.346 1507.9352 4983.243 1521.0222 4994.6946 1552.5287 5019.2216 1573.033 5034.3786 1570.4847 5032.2963 1581.9544 5040.0495 1587.8589 5047.3337 1594.3497 5049.5363 1591.5658 5050.3414 Z" fill="none" stroke="#12852D" opacity="0.6" stroke-width="1" class="oakwood"/>
<path d="M 1506.6185 5101.5183 1362.1043 4962.7106 1415.0533 4907.8134 1556.3609 5014.722 1506.6185 5101.5183 Z" fill="none" stroke="#12852D" opacity="0.6" stroke-width="1" class="oakwood"/>
<path d="M 1423.5856 4941.0869 1453.3201 4902.5548 1507.7386 4956.6786 1476.8536 4988.9761 1423.5856 4941.0869 Z" fill="none" stroke="#12852D" opacity="0.6" stroke-width="1" class="oakwood"/>
<path d="M 1348.9961 4724.6774 1422.978 4712.2531 1439.7192 4824.4663 1428.4531 4921.4575 1526.5296 5162.3844 1179.5636 4872.1157 1348.9961 4724.6774 Z" fill="none" stroke="#12852D" opacity="0.6" stroke-width="1" class="oakwood"/>
<path d="M 1403.6974 4903.6396 1553.3394 5020.0312 1459.5895 5064.2604 1312.0947 5062.6594 1298.939 5021.7503 1403.6974 4903.6396 Z" fill="none" stroke="#12852D" opacity="0.6" stroke-width="1" class="oakwood"/>
<path d="M 1512.6648 5089.1666 1332.6114 4991.0787 1286.7437 4960.517 1361.5559 4863.389 1384.4788 4885.1338 1395.8227 4897.3919 1419.4511 4913.3632 1446.3185 4935.1132 1646.9472 5088.5262 1555.704 5165.8092 1512.6648 5089.1666 Z" fill="none" stroke="#12852D" opacity="0.6" stroke-width="1" class="oakwood"/>
<path d="M 1445.7774 4824.2466 1451.2797 4869.061 1416.9031 4911.5117 1383.0033 4942.8764 1355.6073 4965.4728 1342.1431 4975.1544 1272.1738 4935.7785 1212.4043 4901.4972 1236.1181 4862.7327 1221.2751 4865.0182 1411.0157 4812.6497 1432.8066 4814.9902 1438.362 4821.4648 1445.7774 4824.2466 Z" fill="none" stroke="#12852D" opacity="0.6" stroke-width="1" class="oakwood"/>
<path d="M 1506.7745 4984.1654 1645.7896 5086.9077 1519.0049 5205.9633 1307.7485 5023.612 1305.0497 4969.0921 1364.562 4868.9366 1506.7745 4984.1654 Z" fill="none" stroke="#12852D" opacity="0.6" stroke-width="1" class="oakwood"/>
<path d="M 1666.0202 5040.7284 1667.4022 5048.8153 1658.344 5060.5865 1638.8166 5099.8366 1548.7245 5182.4352 1499.5512 5183.526 1381.3965 5090.2544 1363.6482 5016.3042 1460.9869 4891.7096 1666.0202 5040.7284 Z" fill="none" stroke="#12852D" opacity="0.6" stroke-width="1" class="oakwood"/>
<path d="M 1396.1346 4815.8053 1432.2551 4816.0971 1580.6355 4978.3953 1528.2573 5078.5066 1462.4578 5031.2917 1399.4648 4972.0668 1354.0294 4961.8366 1352.2088 4938.7351 1348.5733 4888.8382 1359.7415 4862.9862 1371.9961 4833.3228 1396.1346 4815.8053 Z" fill="none" stroke="#12852D" opacity="0.6" stroke-width="1" class="oakwood"/>
<path d="M 1436.8626 4898.6052 1561.9377 5005.951 1662.9575 5081.8454 1661.1021 5081.8432 1580.7938 5133.4959 1544.1077 5165.3322 1543.1698 5173.1864 1513.4668 5184.2376 1499.5539 5181.4466 1494.006 5167.5767 1475.4899 5138.903 1466.238 5120.4079 1450.4836 5108.3727 1422.6566 5105.5614 1391.1593 5075.0213 1375.4283 5048.2007 1330.9675 5004.7052 1436.8626 4898.6052 Z" fill="none" stroke="#12852D" opacity="0.6" stroke-width="1" class="oakwood"/>
<path d="M 1477.2284 5224.8537 1318.6377 5182.1116 1533.294 4919.9856 1673.2759 4982.9862 1737.2143 5042.1944 1477.2284 5224.8537 Z" fill="none" stroke="#12852D" opacity="0.6" stroke-width="1" class="oakwood"/>
<path d="M 1536.0382 4949.5551 1662.0783 5040.2618 1501.3934 5193.4634 1467.2911 5028.9263 1536.0382 4949.5551 Z" fill="none" stroke="#12852D" opacity="0.6" stroke-width="1" class="oakwood"/>
<path d="M 1350.6846 4845.8195 1505.3924 4977.2337 1431.9401 5100.954 1380.9942 5048.2088 1368.9908 5010.3061 1353.2698 4977.943 1344.9785 4940.0482 1350.6846 4845.8195 Z" fill="none" stroke="#12852D" opacity="0.6" stroke-width="1" class="oakwood"/></svg>