<?xml version="1.0"?><svg xmlns="http://www.w3.org/2000/svg" version="1.2" baseProfile="tiny" width="6000" height="5918" viewBox="0 0 6000 5918" stroke-linecap="round" stroke-linejoin="round"><path d="M 3649.9736 3237.8297 3806.1097 3353.8865 3808.0143 3401.6661 3636.4218 3502.2076 3601.0454 3503.9002 3611.2378 3354.2654 3669.0238 3359.3774 3663.2016 3322.7641 3649.9736 3237.8297 Z" fill="none" stroke="#E71E24" opacity="0.6" stroke-width="1" class="ocean_hill"/>
<path d="M 3784.0046 3339.1605 3762.2727 3365.9334 3757.6688 3390.8438 3523.0572 3375.6291 3527.3271 3249.9804 3648.0808 3238.9701 3784.0046 3339.1605 Z" fill="none" stroke="#E71E24" opacity="0.6" stroke-width="1" class="ocean_hill"/>
<path d="M 3577.8975 3186.8931 3767.8293 3318.6004 3741.9553 3369.3592 3519.6993 3347.4249 3577.8975 3186.8931 Z" fill="none" stroke="#E71E24" opacity="0.6" stroke-width="1" class="ocean_hill"/>
<path d="M 3307.6433 3332.8121 3292.7518 3196.3177 3542.6946 3160.1781 3832.7037 3370.1835 3307.6433 3332.8121 Z" fill="none" stroke="#E71E24" opacity="0.6" stroke-width="1" class="ocean_hill"/>
<path d="M 3734.0778 3362.9104 3699.8099 3356.488 3725.667 3287.2842 3814.1623 3350.8337 3819.2732 3366.9701 3770.6582 3366.5619 3734.0778 3362.9104 Z" fill="none" stroke="#E71E24" opacity="0.6" stroke-width="1" class="ocean_hill"/>
<path d="M 3784.9802 3337.9521 3758.6179 3364.2686 3756.7944 3391.4821 3609.0856 3381.0175 3609.9881 3354.7278 3581.5988 3184.5843 3784.9802 3337.9521 Z" fill="none" stroke="#E71E24" opacity="0.6" stroke-width="1" class="ocean_hill"/>
<path d="M 3840.1253 3382.1666 3565.2319 3536.4977 3569.7041 3350.1509 3542.2313 3159.7174 3840.1253 3382.1666 Z" fill="none" stroke="#E71E24" opacity="0.6" stroke-width="1" class="ocean_hill"/>
<path d="M 3762.2445 3290.9357 3747.183 3276.1941 3774.9874 3301.7597 3767.8063 3296.925 3762.2445 3290.9357 Z" fill="none" stroke="#E71E24" opacity="0.6" stroke-width="1" class="ocean_hill"/>
<path d="M 3868.8121 3365.53 3599.932 3501.6409 3581.6006 3186.6594 3836.883 3381.0173 3868.8121 3365.53 Z" fill="none" stroke="#E71E24" opacity="0.6" stroke-width="1" class="ocean_hill"/>
<path d="M 3649.6952 3237.0922 3842.4398 3381.7028 3659.6519 3485.6725 3670.1794 3357.4393 3649.6952 3237.0922 Z" fill="none" stroke="#E71E24" opacity="0.6" stroke-width="1" class="ocean_hill"/>
<path d="M 3609.3206 3384.9376 3753.7868 3393.3301 3750.5583 3405.3253 3723.0367 3432.797 3601.0885 3500.2561 3609.3206 3384.9376 Z" fill="none" stroke="#E71E24" opacity="0.6" stroke-width="1" class="ocean_hill"/>
<path d="M 3748.4807 3320.3023 3753.1244 3333.6719 3749.5536 3329.8035 3751.2925 3332.4535 3756.8742 3356.8746 3755.4484 3358.6921 3757.5403 3366.761 3758.4713 3371.4874 3769.2042 3371.1731 3776.4924 3367.4756 3778.8035 3363.7835 3748.7282 3312.4502 3747.5701 3311.7597 3750.3479 3311.7568 3768.2901 3313.8132 3768.3022 3325.2275 3770.9748 3335.025 3768.6681 3342.7525 3779.5566 3362.6574 3771.2005 3335.013 3809.1454 3367.7614 3778.93 3363.1822 3767.889 3341.6473 3783.0907 3371.9662 3748.4807 3320.3023 Z" fill="none" stroke="#E71E24" opacity="0.6" stroke-width="1" class="ocean_hill"/>
<path d="M 3660.5649 3471.8338 3648.7686 3236.4013 3651.0852 3238.4743 3868.3502 3366.4529 3660.5649 3471.8338 Z" fill="none" stroke="#E71E24" opacity="0.6" stroke-width="1" class="ocean_hill"/>
<path d="M 3724.4288 3435.7936 3629.0927 3488.2379 3637.1011 3385.143 3756.7971 3394.0188 3754.0299 3404.3992 3743.6233 3415.2489 3724.4288 3435.7936 Z" fill="none" stroke="#E71E24" opacity="0.6" stroke-width="1" class="ocean_hill"/>
<path d="M 3717.8024 3292.8262 3743.7013 3266.9744 3872.516 3365.5256 3854.0132 3380.3059 3724.3521 3360.1531 3717.8024 3292.8262 Z" fill="none" stroke="#E71E24" opacity="0.6" stroke-width="1" class="ocean_hill"/>
<path d="M 3761.8972 3400.7012 3622.6239 3503.6963 3586.0324 3492.6583 3594.2647 3375.496 3761.8972 3400.7012 Z" fill="none" stroke="#E71E24" opacity="0.6" stroke-width="1" class="ocean_hill"/>
<path d="M 3625.4044 3506.0002 3500.3679 3494.1126 3516.9445 3376.4831 3530.8117 3348.3384 3506.1022 3130.0054 3844.5259 3384.0065 3833.6505 3388.631 3625.4044 3506.0002 Z" fill="none" stroke="#E71E24" opacity="0.6" stroke-width="1" class="ocean_hill"/>
<path d="M 3582.5346 3196.1116 3577.9023 3192.4266 3841.9657 3372.0178 3824.3977 3395.0985 3610.4758 3382.3999 3582.5346 3196.1116 Z" fill="none" stroke="#E71E24" opacity="0.6" stroke-width="1" class="ocean_hill"/>
<path d="M 3601.3381 3520.7827 3600.9035 3291.0921 3656.2184 3281.8182 3651.5469 3237.0904 3842.6726 3382.8556 3601.3381 3520.7827 Z" fill="none" stroke="#E71E24" opacity="0.6" stroke-width="1" class="ocean_hill"/>
<path d="M 3836.4202 3381.2484 3654.0961 3486.6003 3667.8644 3357.4415 3651.0827 3235.7074 3651.0783 3231.096 3836.4202 3381.2484 Z" fill="none" stroke="#E71E24" opacity="0.6" stroke-width="1" class="ocean_hill"/>
<path d="M 3614.7347 3484.5608 3587.634 3470.7469 3580.3358 3464.6415 3550.6833 3443.3338 3542.0647 3379.4607 3668.9379 3390.6477 3662.1923 3478.9818 3614.7347 3484.5608 Z" fill="none" stroke="#E71E24" opacity="0.6" stroke-width="1" class="ocean_hill"/>
<path d="M 3669.584 3219.0889 3873.2809 3228.0948 3973.6128 3493.6262 3810.7655 3628.5206 3645.811 3540.1164 3562.3554 3420.2621 3669.584 3219.0889 Z" fill="none" stroke="#E71E24" opacity="0.6" stroke-width="1" class="ocean_hill"/>
<path d="M 3634.6283 3465.4004 3636.7462 3418.1163 3639.8149 3359.7739 3631.4379 3312.7399 3624.6 3255.838 3619.008 3215.2624 3676.4485 3254.8671 3710.7347 3283.4254 3763.5485 3318.4205 3783.1639 3336.6525 3760.5075 3364.8099 3755.4192 3404.6284 3724.4274 3434.4099 3661.9953 3469.2547 3629.1022 3487.5105 3631.3968 3464.9066 3634.6283 3465.4004 Z" fill="none" stroke="#E71E24" opacity="0.6" stroke-width="1" class="ocean_hill"/>
<path d="M 3801.0548 3350.0774 3803.6757 3353.1961 3800.6159 3353.8509 3767.1538 3357.5012 3759.2272 3365.5956 3729.2218 3363.9655 3725.9757 3358.8956 3727.825 3356.2418 3724.7779 3346.7409 3723.1108 3335.6037 3722.2103 3325.9995 3719.9998 3314.7027 3746.1421 3308.69 3749.671 3311.2766 3773.2072 3329.2145 3794.4616 3344.8887 3803.9516 3352.9568 3801.0548 3350.0774 Z" fill="none" stroke="#E71E24" opacity="0.6" stroke-width="1" class="ocean_hill"/>
<path d="M 3649.9264 3236.8614 3750.2282 3310.7788 3759.5434 3363.8064 3758.4171 3393.5559 3667.4305 3387.8818 3668.5602 3358.8244 3649.9264 3236.8614 Z" fill="none" stroke="#E71E24" opacity="0.6" stroke-width="1" class="ocean_hill"/>
<path d="M 3717.7996 3290.0592 3811.3956 3360.9832 3807.6998 3368.3666 3724.354 3361.9979 3717.7996 3290.0592 Z" fill="none" stroke="#E71E24" opacity="0.6" stroke-width="1" class="ocean_hill"/>
<path d="M 3630.9396 3482.4704 3636.8445 3357.9318 3614.4908 3213.1452 3840.5878 3381.7049 3630.9396 3482.4704 Z" fill="none" stroke="#E71E24" opacity="0.6" stroke-width="1" class="ocean_hill"/>
<path d="M 3649.4643 3237.7841 3843.3666 3382.3936 3633.2739 3503.2253 3599.9324 3502.1022 3610.2196 3354.7276 3669.2545 3358.5932 3649.4643 3237.7841 Z" fill="none" stroke="#E71E24" opacity="0.6" stroke-width="1" class="ocean_hill"/>
<path d="M 3682.362 3268.1888 3531.9216 3289.767 3687.4515 3265.1864 3784.2842 3336.5692 3757.4597 3363.578 3534.2831 3347.1826 3531.2253 3287.4617 3682.362 3268.1888 Z" fill="none" stroke="#E71E24" opacity="0.6" stroke-width="1" class="ocean_hill"/>
<path d="M 3627.2541 3503.2309 3655.7458 3271.673 3686.2955 3266.571 3803.5172 3354.0738 3830.4973 3466.5837 3627.2541 3503.2309 Z" fill="none" stroke="#E71E24" opacity="0.6" stroke-width="1" class="ocean_hill"/>
<path d="M 3725.3736 3454.2425 3716.8699 3286.3707 3844.7585 3384.9287 3725.3736 3454.2425 Z" fill="none" stroke="#E71E24" opacity="0.6" stroke-width="1" class="ocean_hill"/>
<path d="M 3866.0287 3360.9211 3582.6933 3379.657 3733.5175 3267.9072 3866.0287 3360.9211 Z" fill="none" stroke="#E71E24" opacity="0.6" stroke-width="1" class="ocean_hill"/>
<path d="M 3772.345 3211.6068 4028.9404 3314.598 3793.9956 3539.0442 3560.4568 3364.9172 3772.345 3211.6068 Z" fill="none" stroke="#E71E24" opacity="0.6" stroke-width="1" class="ocean_hill"/>
<path d="M 3662.5074 3465.5653 3662.1274 3462.0304 3665.6261 3424.9858 3669.1462 3384.0871 3669.9646 3357.7621 3663.1423 3319.8729 3656.9392 3278.6975 3650.3323 3240.971 3666.8985 3252.7077 3685.8451 3266.3998 3716.1918 3289.8892 3714.3455 3295.4251 3721.0908 3330.4214 3726.4649 3364.5944 3726.7257 3393.42 3754.7654 3393.3724 3753.8483 3401.906 3721.4861 3433.7847 3672.8736 3460.203 3662.5074 3465.5653 Z" fill="none" stroke="#E71E24" opacity="0.6" stroke-width="1" class="ocean_hill"/>
<path d="M 3569.7292 3379.6681 3572.4773 3344.6142 3556.6586 3252.3926 3648.3042 3234.7877 3814.1726 3360.0577 3841.0534 3384.0104 3816.0614 3393.2629 3569.7292 3379.6681 Z" fill="none" stroke="#E71E24" opacity="0.6" stroke-width="1" class="ocean_hill"/>
<path d="M 3614.9516 3210.8391 3838.2722 3381.2463 3629.1114 3508.7645 3614.9516 3210.8391 Z" fill="none" stroke="#E71E24" opacity="0.6" stroke-width="1" class="ocean_hill"/>
<path d="M 3779.7498 3342.5881 3808.9898 3356.728 3797.0065 3406.5524 3771.0776 3406.5804 3512.1783 3397.5525 3523.2876 3393.8539 3513.9381 3348.8187 3494.3916 3217.8624 3593.0799 3194.2201 3726.9143 3288.2237 3779.7498 3342.5881 Z" fill="none" stroke="#E71E24" opacity="0.6" stroke-width="1" class="ocean_hill"/>
<path d="M 3718.7208 3285.4465 3843.8251 3378.4727 3881.3581 3403.7962 3895.8197 3494.1837 3631.4593 3544.2813 3632.2412 3386.9923 3614.4933 3215.912 3718.7208 3285.4465 Z" fill="none" stroke="#E71E24" opacity="0.6" stroke-width="1" class="ocean_hill"/>
<path d="M 3718.5198 3289.2235 3779.1971 3332.9792 3724.7227 3432.2081 3700.9493 3359.7333 3718.5198 3289.2235 Z" fill="none" stroke="#E71E24" opacity="0.6" stroke-width="1" class="ocean_hill"/>
<path d="M 3373.5447 3579.08 3099.3716 3527.5513 3367.9616 3538.4892 3373.5447 3579.08 Z" fill="none" stroke="#E71E24" opacity="0.6" stroke-width="1" class="ocean_hill"/>
<path d="M 3806.7566 3352.6866 3808.6217 3364.6759 3471.5474 3345.6173 3508.415 3127.9287 3806.7566 3352.6866 Z" fill="none" stroke="#E71E24" opacity="0.6" stroke-width="1" class="ocean_hill"/></svg>