<?xml version="1.0"?><svg xmlns="http://www.w3.org/2000/svg" version="1.2" baseProfile="tiny" width="6000" height="5918" viewBox="0 0 6000 5918" stroke-linecap="round" stroke-linejoin="round"><path d="M 1181.7582 4155.265 1264.4872 3911.2788 1374.6788 3887.4818 1349.8246 4099.938 1283.1989 4126.3201 1195.1223 4120.2465 1181.7582 4155.265 Z" fill="none" stroke="#A9159C" opacity="0.6" stroke-width="1" class="port_richmond"/>
<path d="M 1230.235 4059.0671 1258.6749 4093.7292 1246.1318 4114.0181 1214.181 4101.0423 1230.235 4059.0671 Z" fill="none" stroke="#A9159C" opacity="0.6" stroke-width="1" class="port_richmond"/>
<path d="M 1221.3397 4115.3626 1231.5411 4110.7635 1243.3728 4100.859 1245.0019 4096.246 1255.6771 4084.9549 1266.1244 4071.1249 1278.6585 4055.9136 1284.9344 4042.5389 1295.8491 4025.4792 1316.9669 4001.5126 1327.8904 3977.9923 1341.5913 3955.6303 1352.5064 3936.9564 1363.8839 3918.5141 1318.1047 4014.8984 1333.1421 4028.3056 1350.9712 4034.1016 1273.3021 4073.6748 1291.7998 4096.7816 1294.1026 4105.7857 1288.0663 4113.8537 1282.0321 4120.5371 1272.7707 4116.8299 1263.2948 4102.2755 1254.5139 4087.9531 1274.7118 4061.2152 1221.3397 4115.3626 Z" fill="none" stroke="#A9159C" opacity="0.6" stroke-width="1" class="port_richmond"/>
<path d="M 1347.3994 4098.7128 1325.1598 4097.7561 1320.0601 4099.5946 1311.2468 4105.8122 1295.4711 4119.6349 1283.6438 4127.0017 1272.7528 4128.1385 1236.619 4122.5418 1210.2163 4116.9599 1186.1164 4119.9202 1159.2472 4116.4131 1122.8841 4110.1195 1142.1631 3946.3099 1148.6509 3945.1673 1202.1787 3933.7201 1217.7138 3924.2853 1250.8627 3908.6489 1269.16 3909.6009 1290.2514 3901.3276 1349.551 3899.5724 1363.2003 3910.8987 1369.439 3921.2912 1375.8933 3942.7596 1374.03 3949.6792 1373.2854 3983.3675 1367.7088 3994.897 1355.1501 4028.1079 1360.4508 4046.5771 1347.3994 4098.7128 Z" fill="none" stroke="#A9159C" opacity="0.6" stroke-width="1" class="port_richmond"/>
<path d="M 1213.232 4114.657 1263.1424 3906.5918 1350.713 3897.0361 1384.4625 3943.6951 1369.5423 4008.2837 1365.7811 4045.2004 1353.6823 4080.2599 1332.353 4090.3821 1304.5321 4103.2632 1289.6859 4115.241 1276.7045 4119.8363 1265.5823 4120.7419 1251.6843 4118.8735 1235.0047 4117.9235 1213.232 4114.657 Z" fill="none" stroke="#A9159C" opacity="0.6" stroke-width="1" class="port_richmond"/>
<path d="M 1505.6865 4060.1664 1339.7499 4101.4707 1309.3731 3968.5032 1362.1485 3995.3503 1496.5139 3990.002 1505.6865 4060.1664 Z" fill="none" stroke="#A9159C" opacity="0.6" stroke-width="1" class="port_richmond"/>
<path d="M 1352.9589 3944.1101 1325.6312 3940.377 1327.0266 3936.6872 1340.4929 3915.941 1343.7461 3909.0238 1337.7112 3917.3212 1334.4565 3925.1614 1331.2115 3926.541 1330.2786 3930.6929 1326.1071 3932.071 1324.2484 3935.76 1322.3847 3942.6794 1321.913 3948.2166 1315.8818 3953.7453 1318.1905 3958.8252 1323.2831 3961.1405 1323.7541 3956.0648 1326.0769 3951.9149 1326.5528 3943.6088 1333.0485 3937.1578 1333.9806 3933.4674 1336.7644 3930.7027 1338.1605 3926.5515 1338.6301 3922.3989 1340.4887 3918.7099 1341.8854 3914.0972 1345.1324 3911.3333 1346.5257 3909.028 1346.9959 3904.414 1348.8524 3902.1094 1350.2359 3906.2647 1350.2249 3913.6483 1352.5405 3914.1132 1352.9975 3918.2671 1353.4505 3925.19 1352.981 3929.3426 1352.0476 3933.956 1351.1155 3937.6465 1349.716 3944.1052 1352.9589 3944.1101 Z" fill="none" stroke="#A9159C" opacity="0.6" stroke-width="1" class="port_richmond"/>
<path d="M 1382.6121 3941.8465 1361.13 4057.1936 1171.1369 4072.5849 1173.2055 3944.7475 1382.6121 3941.8465 Z" fill="none" stroke="#A9159C" opacity="0.6" stroke-width="1" class="port_richmond"/>
<path d="M 1354.2133 4105.0363 1328.7823 4097.1376 1303.727 4119.2545 1248.113 4125.6289 1150.8185 4118.0826 1175.9813 4034.1227 1201.1809 3925.2494 1253.1084 3899.4914 1313.3544 3884.819 1379.5174 3912.1586 1354.2133 4105.0363 Z" fill="none" stroke="#A9159C" opacity="0.6" stroke-width="1" class="port_richmond"/>
<path d="M 1369.3461 3993.8015 1347.6195 4098.8746 1326.0469 4097.5557 1290.8099 4123.4399 1256.1644 4124.732 1159.5964 4115.5038 1202.9072 3926.558 1221.7029 3912.8729 1285.568 3887.6851 1340.5384 3887.0439 1377.4281 3904.5122 1376.7654 3942.1672 1347.6571 4098.7745 1369.3461 3993.8015 Z" fill="none" stroke="#A9159C" opacity="0.6" stroke-width="1" class="port_richmond"/>
<path d="M 1176.2652 4157.5407 1141.8618 3946.7967 1391.2989 3904.5477 1347.7512 4098.2871 1266.6504 4139.2137 1237.4986 4158.709 1176.2652 4157.5407 Z" fill="none" stroke="#A9159C" opacity="0.6" stroke-width="1" class="port_richmond"/>
<path d="M 1211.2451 3913.8915 1385.416 3925.2372 1348.0668 4117.1765 1168.2757 4120.5826 1155.6147 4117.356 1211.2451 3913.8915 Z" fill="none" stroke="#A9159C" opacity="0.6" stroke-width="1" class="port_richmond"/>
<path d="M 1379.3679 3942.5337 1348.0939 4098.9444 1285.111 4127.0037 1282.27 4165.7725 1205.9086 4153.4946 1184.7296 4117.9945 1160.8734 4113.8002 1200.5552 3934.9478 1204.2915 3916.7255 1389.1543 3903.1685 1379.3679 3942.5337 Z" fill="none" stroke="#A9159C" opacity="0.6" stroke-width="1" class="port_richmond"/>
<path d="M 1349.0281 4094.0997 1292.2356 4125.2186 1241.2682 4123.2915 1163.4368 4114.8546 1210.0584 3941.3975 1214.6957 3938.6362 1255.5052 3912.8594 1293.5029 3906.4587 1350.0261 3902.8532 1378.6831 3947.1977 1372.1156 4002.5684 1349.0281 4094.0997 Z" fill="none" stroke="#A9159C" opacity="0.6" stroke-width="1" class="port_richmond"/>
<path d="M 1187.7102 3997.8445 1204.7351 3928.6481 1488.3178 3883.8496 1509.3907 4062.0175 1162.2645 4113.1873 1205.1885 3934.6481 1187.7102 3997.8445 Z" fill="none" stroke="#A9159C" opacity="0.6" stroke-width="1" class="port_richmond"/>
<path d="M 1266.5373 3911.6069 1376.6073 3942.2209 1283.3982 4129.2434 1216.9771 4038.8501 1266.6244 3914.5603 1266.5373 3911.6069 Z" fill="none" stroke="#A9159C" opacity="0.6" stroke-width="1" class="port_richmond"/>
<path d="M 1254.4645 4118.8779 1344.6803 3903.949 1512.1829 4052.7904 1487.3814 3891.2317 1254.4645 4118.8779 Z" fill="none" stroke="#A9159C" opacity="0.6" stroke-width="1" class="port_richmond"/>
<path d="M 1230.9832 4118.2133 1236.5832 4106.8862 1251.8365 4048.3905 1290.3713 3998.1449 1315.7921 3955.7646 1362.5427 3983.5252 1359.6655 4049.0572 1350.7946 4097.6388 1281.4264 4123.8742 1230.9832 4118.2133 Z" fill="none" stroke="#A9159C" opacity="0.6" stroke-width="1" class="port_richmond"/>
<path d="M 1302.9799 3908.5002 1315.971 3895.5991 1359.5018 3905.8171 1369.6663 3924.2911 1386.2322 4000.9239 1399.0781 4088.6346 1311.0446 4086.6571 1317.629 4022.9744 1263.9385 3988.7383 1302.9799 3908.5002 Z" fill="none" stroke="#A9159C" opacity="0.6" stroke-width="1" class="port_richmond"/>
<path d="M 1396.3898 3945.2123 1396.9692 3944.9824 1409.3612 3945.4617 1414.9239 3943.1623 1431.264 3936.3785 1436.8664 3988.1895 1405.8201 3991.722 1402.1408 3972.9103 1396.3898 3945.2123 Z" fill="none" stroke="#A9159C" opacity="0.6" stroke-width="1" class="port_richmond"/>
<path d="M 1218.4099 3923.5943 1219.1097 3920.5958 1222.3729 3908.1413 1223.534 3906.2973 1276.1362 3892.3069 1303.946 3882.8904 1307.653 3882.2039 1343.0891 3883.873 1385.444 3906.086 1388.2235 3906.0901 1375.6626 3942.067 1372.8198 3984.9821 1356.0784 4026.9555 1354.685 4029.261 1346.704 4098.9426 1322.1466 4098.6746 1320.2915 4099.8257 1276.926 4126.2987 1271.134 4126.2896 1235.9225 4123.4639 1190.2879 4119.2348 1196.8094 4098.4751 1194.5858 4042.3931 1198.849 3986.0944 1218.4099 3923.5943 Z" fill="none" stroke="#A9159C" opacity="0.6" stroke-width="1" class="port_richmond"/>
<path d="M 1460.2516 4080.413 1327.1901 4094.2283 1285.4278 4132.9357 1163.9522 4113.6822 1205.0311 3930.0634 1344.0569 3900.7483 1399.5374 3940.6408 1460.2516 4080.413 Z" fill="none" stroke="#A9159C" opacity="0.6" stroke-width="1" class="port_richmond"/>
<path d="M 1155.3173 4111.3292 1201.9371 3939.719 1244.2497 3910.0245 1262.7787 3910.9771 1291.5124 3903.6388 1348.9578 3902.8037 1368.4038 3910.2161 1375.7739 3938.8386 1375.7101 3982.2192 1355.2604 4025.5715 1359.8606 4047.732 1347.7352 4100.3307 1321.793 4096.5989 1281.8969 4127.0008 1212.9003 4121.3234 1155.3173 4111.3292 Z" fill="none" stroke="#A9159C" opacity="0.6" stroke-width="1" class="port_richmond"/>
<path d="M 1264.063 3910.2851 1271.9392 3909.8361 1288.1671 3901.0936 1322.4481 3901.1466 1352.0959 3901.6528 1365.0527 3911.363 1370.1288 3924.7533 1375.6643 3940.9133 1374.2562 3953.3715 1372.8201 3984.7514 1366.7843 3993.5111 1360.7387 4008.7322 1354.2214 4029.4911 1361.1472 4045.6551 1348.0958 4097.7908 1322.6121 4097.2907 1284.5694 4127.6955 1275.764 4128.6048 1207.2037 4117.4165 1195.6143 4120.6284 1197.0135 4115.0918 1230.0501 4030.2207 1235.6555 4002.0769 1240.3005 3994.7001 1264.063 3910.2851 Z" fill="none" stroke="#A9159C" opacity="0.6" stroke-width="1" class="port_richmond"/>
<path d="M 1222.255 3980.3641 1364.9201 4000.8926 1361.9279 4143.9688 1196.9645 4144.6328 1222.255 3980.3641 Z" fill="none" stroke="#A9159C" opacity="0.6" stroke-width="1" class="port_richmond"/>
<path d="M 1376.8201 3942.5302 1345.7611 4109.788 1160.4205 4107.6453 1201.0186 3934.8719 1250.6321 3907.9563 1290.4815 3902.2509 1346.7715 3899.5682 1369.2081 3920.8293 1356.9563 3904.1981 1356.7209 3906.7359 1376.8201 3942.5302 Z" fill="none" stroke="#A9159C" opacity="0.6" stroke-width="1" class="port_richmond"/></svg>