<?xml version="1.0"?><svg xmlns="http://www.w3.org/2000/svg" version="1.2" baseProfile="tiny" width="6000" height="5918" viewBox="0 0 6000 5918" stroke-linecap="round" stroke-linejoin="round"><path d="M 2682.1664 3249.0309 2895.1278 3322.8126 2809.0207 3452.8839 2601.0949 3578.8 2543.2254 3502.675 2552.0638 3324.6421 2682.1664 3249.0309 Z" fill="none" stroke="#012394" opacity="0.6" stroke-width="1" class="red_hook"/>
<path d="M 2562.1577 3345.5705 2558.6081 3354.2367 2554.3258 3352.6216 2560.3462 3345.4743 2560.8094 3344.3214 2578.7332 3329.5081 2600.7158 3307.7511 2635.7836 3281.044 2662.7432 3259.3768 2680.6922 3234.1801 2707.0996 3183.7392 2773.2093 3207.8296 2766.7969 3224.8526 2754.7574 3260.285 2738.3849 3306.7584 2730.026 3326.7052 2721.2283 3352.647 2722.8765 3354.437 2778.8076 3458.4198 2775.7386 3464.1966 2730.9409 3519.2475 2660.2938 3495.9487 2621.4011 3468.2678 2576.9548 3437.8175 2550.1111 3385.2316 2562.1577 3345.5705 Z" fill="none" stroke="#012394" opacity="0.6" stroke-width="1" class="red_hook"/>
<path d="M 2702.0693 3299.7603 2802.9996 3413.2176 2619.6197 3573.7286 2607.5799 3569.1136 2559.9295 3347.2423 2686.7957 3249.9536 2645.5967 3230.5811 2702.0693 3299.7603 Z" fill="none" stroke="#012394" opacity="0.6" stroke-width="1" class="red_hook"/>
<path d="M 2672.4446 3249.9523 2699.2931 3277.624 2693.7367 3290.5363 2708.5499 3314.5185 2720.5856 3345.88 2758.5497 3432.5901 2789.1105 3468.5672 2763.1798 3513.7718 2697.4245 3510.0791 2640.0086 3478.7069 2560.3834 3389.2124 2557.6173 3334.7895 2627.0719 3282.2278 2672.4446 3249.9523 Z" fill="none" stroke="#012394" opacity="0.6" stroke-width="1" class="red_hook"/>
<path d="M 2676.1482 3249.4915 2776.6081 3454.7298 2756.697 3495.782 2733.5432 3523.4581 2627.9578 3557.5843 2574.703 3555.2685 2540.9486 3340.7813 2676.1487 3243.9577 2676.1482 3249.4915 Z" fill="none" stroke="#012394" opacity="0.6" stroke-width="1" class="red_hook"/>
<path d="M 2784.9426 3447.811 2735.8588 3514.2326 2632.5896 3550.6654 2586.2833 3539.1254 2565.9264 3451.0188 2558.5346 3374.4531 2565.4865 3341.7092 2625.683 3282.6888 2669.2039 3251.7965 2681.7037 3245.8028 2784.9426 3447.811 Z" fill="none" stroke="#012394" opacity="0.6" stroke-width="1" class="red_hook"/>
<path d="M 2774.7087 3457.8111 2760.8173 3497.4796 2733.9592 3518.6978 2664.5526 3499.7667 2641.1417 3544.8368 2641.1406 3553.1401 2574.4556 3555.8968 2555.0281 3456.2572 2577.5671 3423.2204 2553.504 3360.4894 2611.8515 3295.9342 2669.4059 3249.9041 2777.0673 3442.5235 2774.7087 3457.8111 Z" fill="none" stroke="#012394" opacity="0.6" stroke-width="1" class="red_hook"/>
<path d="M 2773.8298 3447.5805 2755.5394 3492.7838 2743.2686 3486.5564 2738.8692 3498.088 2717.5689 3490.2456 2729.8412 3454.7292 2676.5937 3434.6616 2666.6363 3456.3391 2646.495 3449.4181 2600.4303 3407.2079 2580.5164 3428.6515 2571.0279 3411.8146 2592.331 3387.8351 2571.0368 3368.2294 2615.0276 3329.4967 2638.637 3347.948 2693.0425 3286.8469 2774.7559 3447.8111 2773.8298 3447.5805 Z" fill="none" stroke="#012394" opacity="0.6" stroke-width="1" class="red_hook"/>
<path d="M 2686.3116 3501.7753 2667.7907 3487.0129 2658.5236 3540.5203 2571.4603 3560.8034 2578.8934 3440.8741 2558.5398 3350.4704 2671.5183 3254.5637 2769.6625 3457.4974 2734.4696 3514.6938 2686.3116 3501.7753 Z" fill="none" stroke="#012394" opacity="0.6" stroke-width="1" class="red_hook"/>
<path d="M 2677.9995 3253.642 2778.9232 3447.3498 2765.0321 3496.2433 2741.8789 3506.391 2653.8972 3502.6946 2579.8204 3436.2618 2564.0961 3348.6268 2677.9995 3253.642 Z" fill="none" stroke="#012394" opacity="0.6" stroke-width="1" class="red_hook"/>
<path d="M 2760.4033 3173.4088 2771.5131 3208.4541 2757.6252 3246.2676 2744.6622 3282.2377 2727.0685 3319.1312 2718.7331 3356.9487 2732.6218 3387.3892 2753.9195 3428.9002 2779.8499 3487.9404 2727.0611 3501.7778 2685.386 3496.2399 2650.1945 3487.9335 2584.4516 3431.6503 2559.4648 3355.0826 2760.4033 3173.4088 Z" fill="none" stroke="#012394" opacity="0.6" stroke-width="1" class="red_hook"/>
<path d="M 2555.7611 3354.1594 2559.468 3340.3243 2654.8511 3265.6296 2679.8521 3244.4192 2679.853 3235.1962 2690.0385 3222.2852 2709.4832 3190.0074 2722.4464 3151.2747 2728.0015 3141.1307 2774.2904 3185.3978 2779.8453 3186.32 2779.8454 3193.698 2777.068 3201.076 2722.4373 3350.4921 2777.0712 3462.1099 2763.1799 3494.3983 2736.3217 3522.0744 2687.238 3499.0077 2661.3064 3500.8503 2641.8514 3550.6667 2577.945 3553.424 2554.8277 3387.3663 2555.7611 3354.1594 Z" fill="none" stroke="#012394" opacity="0.6" stroke-width="1" class="red_hook"/>
<path d="M 2777.7657 3458.1892 2763.6429 3496.0127 2742.5739 3488.4015 2745.3524 3480.5601 2706.2255 3466.9513 2694.1846 3489.5522 2664.3182 3483.5531 2656.444 3503.6174 2648.3408 3500.1569 2611.2984 3484.9297 2596.484 3466.4768 2562.6854 3449.6344 2561.3053 3407.8921 2551.3554 3386.2125 2551.3569 3379.5248 2559.691 3379.5267 2558.9987 3369.3799 2553.4445 3361.5381 2557.152 3345.1663 2574.0541 3329.9505 2577.7578 3330.4124 2601.6045 3310.8165 2617.1118 3324.424 2656.0063 3284.0763 2679.6154 3302.5256 2693.5055 3286.3857 2700.4493 3294.2261 2693.0414 3302.0656 2699.5219 3315.9014 2711.3264 3336.6556 2724.752 3357.8714 2736.7891 3376.7814 2747.9008 3395.4609 2764.8006 3428.9003 2777.7657 3458.1892 Z" fill="none" stroke="#012394" opacity="0.6" stroke-width="1" class="red_hook"/>
<path d="M 2716.8867 3249.4944 2756.6992 3263.7914 2726.6043 3349.5699 2781.2385 3457.4973 2763.6429 3507.7752 2727.5231 3527.1482 2619.1689 3494.3869 2541.3955 3408.5794 2540.4864 3337.5528 2682.167 3241.6525 2716.8867 3249.4944 Z" fill="none" stroke="#012394" opacity="0.6" stroke-width="1" class="red_hook"/>
<path d="M 2672.4446 3249.9523 2714.1046 3332.0439 2656.6762 3497.1596 2558.517 3454.7072 2548.3554 3344.9337 2672.4446 3249.9523 Z" fill="none" stroke="#012394" opacity="0.6" stroke-width="1" class="red_hook"/>
<path d="M 2729.0036 3369.1674 2725.1248 3368.091 2723.2533 3373.7982 2726.3185 3377.6986 2726.126 3378.1482 2727.1675 3383.9134 2728.8378 3397.0723 2749.2406 3402.9014 2745.4386 3418.0751 2736.9121 3416.4383 2750.8025 3433.0431 2755.8895 3435.8268 2763.1437 3439.363 2753.6513 3457.3516 2747.6432 3465.4336 2734.7452 3460.3777 2730.7803 3449.4034 2726.7269 3465.4865 2726.0579 3457.5992 2724.7845 3458.7523 2737.0055 3500.5746 2735.2689 3503.1115 2731.3327 3508.762 2729.133 3510.8377 2725.8479 3516.9543 2726.0559 3521.4735 2713.2063 3509.3643 2701.8353 3502.9926 2703.7692 3485.0971 2706.5913 3476.227 2695.9526 3500.5684 2690.1931 3504.8877 2677.5745 3506.1551 2671.5711 3488.9763 2673.0774 3474.9079 2670.2534 3481.9938 2672.8012 3471.6157 2666.6646 3483.1466 2658.8616 3508.1 2657.5471 3529.062 2645.6492 3554.2278 2638.043 3539.6474 2641.9152 3542.9089 2647.0206 3513.5277 2654.8575 3492.0965 2658.3802 3492.9742 2649.5828 3487.092 2640.9416 3479.0203 2649.2789 3459.1873 2654.5437 3453.3309 2649.0238 3455.1266 2643.3526 3447.1693 2639.5265 3445.902 2631.3972 3461.9677 2620.075 3473.2744 2616.8949 3454.2536 2607.2247 3448.9576 2604.5037 3450.1188 2592.2336 3448.5023 2594.9946 3434.7514 2605.8849 3419.8015 2605.6411 3417.1527 2605.1777 3419.4588 2600.6638 3416.3447 2599.2743 3418.5353 2594.528 3420.7253 2596.3288 3421.0359 2579.2882 3447.4003 2567.9558 3455.8022 2572.5896 3438.9677 2572.9539 3440.5499 2579.9429 3429.0926 2582.3743 3426.3256 2578.6698 3427.7086 2570.4519 3424.0171 2577.1655 3425.2868 2573.8099 3418.8289 2571.4362 3418.9081 2568.7768 3404.6094 2565.8823 3407.4915 2572.1462 3388.8914 2571.6835 3387.2771 2571.0582 3386.0585 2568.511 3388.9406 2558.4409 3387.9007 2550.3382 3388.1295 2559.4837 3382.9429 2560.2955 3376.0248 2558.3741 3372.6022 2566.0843 3369.915 2566.6634 3368.1856 2566.6645 3362.997 2566.2377 3360.8681 2567.5118 3356.487 2566.1234 3353.8348 2563.3456 3353.2577 2561.2774 3353.3604 2559.3095 3354.2824 2556.6475 3353.3594 2549.6959 3359.11 2558.9641 3345.8654 2561.8586 3342.0612 2565.4477 3337.45 2576.3288 3332.0332 2577.1501 3332.1314 2581.0862 3328.0968 2586.064 3323.947 2587.9445 3323.8425 2593.7326 3319.1164 2605.3086 3308.9724 2604.0045 3311.0438 2614.1876 3324.881 2622.5202 3331.3389 2635.4839 3328.5737 2640.1136 3329.4967 2659.5579 3335.9557 2654.9284 3333.1881 2663.2617 3335.9561 2671.5955 3335.0346 2680.8546 3340.5698 2691.0399 3343.3379 2706.7803 3360.8646 2729.0036 3369.1674 Z" fill="none" stroke="#012394" opacity="0.6" stroke-width="1" class="red_hook"/>
<path d="M 2730.7744 3260.1016 2777.0715 3487.0179 2617.7656 3584.7998 2545.5766 3348.6227 2699.2948 3252.7214 2730.7744 3260.1016 Z" fill="none" stroke="#012394" opacity="0.6" stroke-width="1" class="red_hook"/>
<path d="M 2675.2223 3249.0302 2747.4377 3402.1487 2776.145 3454.7299 2754.8448 3495.3207 2717.7991 3516.5382 2672.4201 3499.0064 2639.9993 3548.8213 2583.5028 3549.7347 2562.2191 3464.8556 2558.5418 3341.2465 2675.2223 3249.0302 Z" fill="none" stroke="#012394" opacity="0.6" stroke-width="1" class="red_hook"/>
<path d="M 2646.518 3266.3204 2648.8327 3267.0124 2675.6846 3256.4087 2724.2896 3342.6518 2785.4059 3460.2647 2736.7848 3520.6905 2652.5013 3558.9714 2575.6296 3553.4235 2571.4856 3437.6439 2555.7594 3361.5387 2615.0326 3297.9058 2633.2057 3284.8804 2643.392 3275.082 2649.0639 3268.6265 2646.518 3266.3204 Z" fill="none" stroke="#012394" opacity="0.6" stroke-width="1" class="red_hook"/>
<path d="M 2776.6081 3458.4199 2761.7907 3499.011 2733.0803 3519.3066 2701.5921 3510.0794 2639.0725 3553.4341 2578.8697 3560.8049 2536.3198 3336.6294 2676.1485 3245.3411 2776.6081 3458.4199 Z" fill="none" stroke="#012394" opacity="0.6" stroke-width="1" class="red_hook"/>
<path d="M 2744.6614 3320.0542 2780.7743 3383.6999 2790.9628 3474.1023 2677.9711 3560.8193 2597.3902 3578.338 2563.146 3461.1658 2571.5031 3352.318 2714.1074 3279.4696 2744.6614 3320.0542 Z" fill="none" stroke="#012394" opacity="0.6" stroke-width="1" class="red_hook"/>
<path d="M 2573.316 3544.1971 2558.5161 3458.8585 2561.2968 3447.3279 2575.6544 3429.8037 2568.2489 3415.9651 2570.5694 3389.6758 2549.7347 3386.9039 2550.6626 3378.6023 2557.6079 3377.6814 2558.0726 3369.8409 2564.5546 3369.3811 2566.4094 3356.0065 2553.4464 3352.7753 2557.6152 3344.4746 2675.2222 3249.9525 2697.9014 3317.746 2753.9198 3406.761 2777.5342 3458.4198 2764.106 3501.3173 2754.3817 3496.7045 2751.1402 3504.0849 2741.416 3501.317 2734.0064 3519.3066 2658.9911 3501.3113 2637.6832 3553.4339 2585.8172 3554.8094 2573.316 3544.1971 Z" fill="none" stroke="#012394" opacity="0.6" stroke-width="1" class="red_hook"/>
<path d="M 2677.0742 3248.1081 2778.9234 3464.8774 2778.9235 3469.4899 2730.7649 3520.2291 2724.2817 3524.8416 2665.0104 3505.4634 2662.2316 3509.1533 2639.9983 3556.202 2632.5887 3557.1236 2577.0181 3557.1142 2571.4618 3553.4227 2539.0941 3351.3884 2543.7253 3345.8551 2671.5188 3249.0299 2677.0742 3248.1081 Z" fill="none" stroke="#012394" opacity="0.6" stroke-width="1" class="red_hook"/>
<path d="M 2780.7754 3455.6523 2765.0321 3495.3208 2735.3955 3521.1518 2703.9075 3509.157 2664.0844 3504.5408 2646.4819 3553.4351 2584.4268 3560.806 2561.2912 3473.158 2580.741 3463.9369 2591.8413 3533.1297 2631.6657 3534.9814 2641.8575 3503.6156 2637.2313 3471.3264 2601.1152 3462.0956 2580.7446 3445.4869 2567.7891 3400.2833 2560.3884 3366.1517 2583.5452 3329.2606 2620.5875 3302.5184 2672.4437 3259.1753 2715.0347 3253.6447 2754.8475 3258.2575 2728.9198 3333.8893 2780.7754 3455.6523 Z" fill="none" stroke="#012394" opacity="0.6" stroke-width="1" class="red_hook"/>
<path d="M 2740.032 3309.908 2732.6232 3346.3417 2780.3124 3454.2685 2741.4159 3505.9298 2676.356 3499.468 2642.7786 3542.5942 2658.0663 3489.3182 2633.9909 3464.6377 2581.6734 3431.4192 2563.8569 3384.3703 2564.5596 3346.0903 2604.8446 3314.9677 2617.805 3332.2643 2671.9769 3298.3743 2694.8943 3287.3082 2703.9213 3297.9158 2740.032 3309.908 Z" fill="none" stroke="#012394" opacity="0.6" stroke-width="1" class="red_hook"/>
<path d="M 2704.8467 3305.2946 2774.2928 3450.1174 2735.3957 3517.4615 2561.2944 3458.3979 2561.3191 3344.0142 2673.37 3254.5639 2704.8467 3305.2946 Z" fill="none" stroke="#012394" opacity="0.6" stroke-width="1" class="red_hook"/>
<path d="M 2672.4447 3249.03 2711.3262 3340.3452 2702.0656 3355.103 2661.3094 3474.0969 2646.4824 3548.8221 2597.3938 3558.0406 2571.4622 3551.5775 2566.854 3443.6391 2570.5596 3437.1825 2561.3044 3412.2738 2560.3814 3398.4368 2565.0134 3389.2134 2552.0507 3382.7535 2557.611 3363.3839 2559.4656 3351.393 2552.0597 3343.0898 2672.4447 3249.03 Z" fill="none" stroke="#012394" opacity="0.6" stroke-width="1" class="red_hook"/>
<path d="M 2677.0699 3293.9936 2774.2929 3456.5749 2659.455 3493.4698 2571.5052 3342.1716 2677.0699 3293.9936 Z" fill="none" stroke="#012394" opacity="0.6" stroke-width="1" class="red_hook"/>
<path d="M 2629.3865 3283.6117 2705.3067 3351.4136 2808.5547 3388.3112 2770.5888 3497.6271 2738.1739 3523.9196 2700.666 3509.618 2695.5729 3501.3147 2658.528 3501.3113 2641.8512 3552.0506 2589.0581 3558.9617 2571.0008 3543.2741 2549.7349 3385.9815 2556.2263 3344.0131 2629.3865 3283.6117 Z" fill="none" stroke="#012394" opacity="0.6" stroke-width="1" class="red_hook"/>
<path d="M 2692.5599 3302.0563 2779.6595 3454.882 2778.0898 3459.1809 2767.1066 3501.7924 2657.2209 3552.606 2581.4771 3559.6291 2559.8988 3530.6969 2580.3227 3448.222 2554.4436 3344.6353 2685.4955 3295.8022 2692.5599 3302.0563 Z" fill="none" stroke="#012394" opacity="0.6" stroke-width="1" class="red_hook"/>
<path d="M 2671.5177 3260.0975 2735.3995 3398.4586 2647.4163 3487.0106 2565.9437 3368.9202 2671.5177 3260.0975 Z" fill="none" stroke="#012394" opacity="0.6" stroke-width="1" class="red_hook"/>
<path d="M 2525.2216 3284.0521 2686.3317 3261.9435 2803.0022 3477.792 2723.3558 3518.3836 2589.9822 3570.0331 2525.2216 3284.0521 Z" fill="none" stroke="#012394" opacity="0.6" stroke-width="1" class="red_hook"/>
<path d="M 2551.1335 3344.012 2679.8525 3240.73 2715.0346 3256.4116 2699.2917 3297.9154 2781.7016 3458.4198 2757.6231 3501.7786 2727.0603 3521.1515 2583.5006 3560.8058 2570.5375 3544.1965 2551.1335 3344.012 Z" fill="none" stroke="#012394" opacity="0.6" stroke-width="1" class="red_hook"/>
<path d="M 2699.2909 3308.9837 2813.1914 3520.2285 2778.925 3573.7398 2465.8789 3550.6273 2539.1043 3308.9589 2704.8516 3229.6645 2699.2909 3308.9837 Z" fill="none" stroke="#012394" opacity="0.6" stroke-width="1" class="red_hook"/>
<path d="M 2693.5051 3291.4586 2701.838 3296.7627 2710.6334 3312.2127 2719.1975 3329.277 2727.5305 3342.6519 2738.1786 3362.0227 2758.087 3401.6876 2766.4212 3433.5126 2763.643 3463.4937 2736.3221 3506.3909 2715.9468 3516.5381 2592.7637 3553.8881 2550.1809 3460.7017 2553.9089 3355.0814 2622.4416 3287.7611 2668.2778 3253.1799 2687.7182 3290.5358 2684.477 3296.0696 2681.699 3299.7587 2684.9389 3308.9826 2693.5051 3291.4586 Z" fill="none" stroke="#012394" opacity="0.6" stroke-width="1" class="red_hook"/>
<path d="M 2683.5548 3253.6425 2768.7363 3403.0713 2857.6403 3460.2604 2833.5658 3510.0791 2787.2607 3574.6623 2666.8609 3522.9922 2520.5665 3382.7459 2683.5548 3253.6425 Z" fill="none" stroke="#012394" opacity="0.6" stroke-width="1" class="red_hook"/>
<path d="M 2729.8456 3338.5013 2776.145 3447.3499 2729.8389 3516.5388 2552.052 3377.2189 2686.3333 3243.4974 2736.33 3250.8787 2758.5515 3190.9313 2783.5488 3201.9982 2729.8456 3338.5013 Z" fill="none" stroke="#012394" opacity="0.6" stroke-width="1" class="red_hook"/>
<path d="M 2676.611 3250.4138 2673.3694 3260.5589 2738.6411 3380.0099 2776.1451 3458.8811 2733.0804 3516.0776 2644.6297 3552.0509 2577.0199 3547.8882 2567.7788 3449.6355 2556.2176 3383.2156 2562.2455 3342.1697 2676.611 3250.4138 Z" fill="none" stroke="#012394" opacity="0.6" stroke-width="1" class="red_hook"/>
<path d="M 2695.1246 3303.4492 2779.8494 3457.0361 2759.9384 3499.0109 2731.6911 3517.4614 2634.9053 3548.8206 2586.2804 3554.3482 2560.3687 3456.5527 2553.9106 3347.7022 2674.2964 3249.9524 2695.1246 3303.4492 Z" fill="none" stroke="#012394" opacity="0.6" stroke-width="1" class="red_hook"/>
<path d="M 2778.9233 3459.3423 2761.3276 3499.011 2732.6171 3521.1517 2642.7775 3550.6668 2575.1663 3554.346 2559.4415 3462.0875 2555.7615 3352.3146 2673.3701 3253.6416 2778.9233 3459.3423 Z" fill="none" stroke="#012394" opacity="0.6" stroke-width="1" class="red_hook"/>
<path d="M 2677.5366 3253.642 2696.0501 3308.9835 2734.0111 3376.7813 2772.4408 3460.2649 2714.0942 3522.0734 2589.986 3549.2746 2572.8783 3419.6559 2565.0231 3343.5538 2677.5366 3253.642 Z" fill="none" stroke="#012394" opacity="0.6" stroke-width="1" class="red_hook"/>
<path d="M 2693.5054 3288.461 2721.7426 3355.1041 2776.1451 3459.8036 2733.5434 3517.0002 2660.3807 3497.16 2584.4509 3435.3403 2555.5301 3351.8533 2604.6138 3310.817 2625.2125 3333.649 2660.1716 3296.0672 2693.5054 3288.461 Z" fill="none" stroke="#012394" opacity="0.6" stroke-width="1" class="red_hook"/>
<path d="M 2554.8355 3352.3144 2709.4803 3238.8876 2780.771 3178.0199 2922.4298 3241.6431 2877.0803 3394.7627 2827.0754 3394.7673 2804.8523 3427.977 2735.3958 3512.8487 2577.5057 3433.9552 2554.8355 3352.3144 Z" fill="none" stroke="#012394" opacity="0.6" stroke-width="1" class="red_hook"/>
<path d="M 2773.3669 3469.49 2721.5032 3526.6866 2657.6016 3503.6175 2611.2861 3560.8108 2553.8823 3474.0789 2549.2742 3376.2959 2559.4694 3333.8676 2647.4432 3272.085 2674.2958 3255.4863 2738.1784 3368.9408 2773.3667 3438.125 2779.8494 3457.4973 2773.3669 3469.49 Z" fill="none" stroke="#012394" opacity="0.6" stroke-width="1" class="red_hook"/>
<path d="M 2748.9812 3408.9131 2773.0584 3457.8046 2761.0192 3502.0858 2725.8247 3546.3682 2633.5158 3557.431 2565.9037 3562.9547 2558.5177 3455.9369 2555.7542 3389.5185 2560.0892 3328.0253 2669.3592 3253.3331 2721.2037 3356.6408 2748.9812 3408.9131 Z" fill="none" stroke="#012394" opacity="0.6" stroke-width="1" class="red_hook"/>
<path d="M 2758.5492 3503.6237 2748.3619 3499.9333 2741.8791 3499.9332 2733.5432 3522.9968 2701.1289 3512.847 2692.7917 3538.6784 2696.4985 3509.1565 2690.942 3504.5433 2684.4577 3522.0713 2678.9011 3519.3032 2686.3116 3501.7753 2660.3802 3501.7727 2639.0726 3552.5115 2584.4273 3558.0382 2573.3158 3545.1197 2560.3685 3457.4752 2571.4802 3463.935 2587.2071 3551.5806 2631.6649 3540.5168 2644.6364 3499.9258 2649.2683 3488.8559 2639.0828 3475.9392 2626.1169 3479.6275 2617.7813 3484.2388 2610.3727 3482.3926 2608.5228 3468.5545 2596.4851 3460.2498 2590.9285 3461.1713 2590.0045 3450.1011 2578.892 3448.254 2571.4826 3451.9425 2564.0754 3445.4835 2569.6337 3436.2598 2568.7096 3427.0348 2567.7851 3419.6549 2559.4541 3403.9713 2556.6777 3396.5911 2554.8293 3379.9868 2556.683 3372.6078 2558.5388 3355.0824 2556.6885 3347.7028 2681.7039 3244.4193 2681.7034 3249.0308 2701.1433 3300.6826 2740.956 3381.8549 2780.7755 3456.5748 2758.5492 3503.6237 Z" fill="none" stroke="#012394" opacity="0.6" stroke-width="1" class="red_hook"/>
<path d="M 2644.6299 3550.6671 2590.9099 3561.7298 2559.4419 3460.2425 2561.3189 3344.9366 2660.4085 3247.1841 2670.5933 3245.3406 2780.7755 3460.2648 2738.174 3520.2293 2644.6299 3550.6671 Z" fill="none" stroke="#012394" opacity="0.6" stroke-width="1" class="red_hook"/>
<path d="M 2684.4805 3255.4872 2787.2577 3442.7372 2740.9524 3520.2294 2597.3945 3554.3502 2549.2794 3353.2355 2684.4805 3255.4872 Z" fill="none" stroke="#012394" opacity="0.6" stroke-width="1" class="red_hook"/>
<path d="M 2690.4964 3284.7714 2779.3863 3452.8848 2750.677 3511.9265 2600.6337 3567.9592 2550.1646 3532.1986 2544.6515 3344.9329 2666.8895 3248.1071 2690.4964 3284.7714 Z" fill="none" stroke="#012394" opacity="0.6" stroke-width="1" class="red_hook"/>
<path d="M 2672.4443 3252.7192 2776.1451 3455.6524 2734.4695 3519.3066 2641.8512 3551.5893 2591.8361 3561.73 2574.242 3545.1199 2550.1985 3383.6755 2557.6145 3347.703 2672.4443 3252.7192 Z" fill="none" stroke="#012394" opacity="0.6" stroke-width="1" class="red_hook"/>
<path d="M 2716.8868 3247.1887 2759.4769 3261.0245 2721.5114 3350.4921 2779.8495 3463.0323 2733.5434 3517.4615 2501.1255 3364.2922 2676.1484 3247.1857 2716.8868 3247.1887 Z" fill="none" stroke="#012394" opacity="0.6" stroke-width="1" class="red_hook"/>
<path d="M 2644.6299 3550.6671 2577.9465 3546.0432 2551.1059 3465.7757 2551.1322 3349.5464 2668.7405 3255.4857 2780.7755 3462.1098 2734.4697 3512.8487 2673.3459 3501.7741 2644.6299 3550.6671 Z" fill="none" stroke="#012394" opacity="0.6" stroke-width="1" class="red_hook"/>
<path d="M 2781.7015 3455.6523 2733.5433 3520.2292 2660.38 3503.6178 2638.1459 3556.2018 2572.3885 3550.6551 2558.5384 3356.9272 2559.469 3335.7123 2682.6297 3244.4194 2781.7015 3455.6523 Z" fill="none" stroke="#012394" opacity="0.6" stroke-width="1" class="red_hook"/>
<path d="M 2775.5932 3201.2383 2720.5431 3343.2332 2748.0167 3387.0778 2783.2903 3460.3252 2770.3253 3498.6101 2750.8766 3513.8321 2716.7114 3532.7421 2692.1673 3546.118 2650.7172 3561.7302 2586.3437 3582.0177 2551.5915 3521.3328 2530.5175 3443.4209 2549.9253 3328.8846 2618.6106 3275.9104 2674.676 3220.6016 2712.6393 3156.5086 2761.243 3174.0323 2775.5932 3201.2383 Z" fill="none" stroke="#012394" opacity="0.6" stroke-width="1" class="red_hook"/>
<path d="M 2989.1787 3606.9282 2599.2726 3407.6689 2783.5483 3176.1754 3252.0967 3354.0574 2989.1787 3606.9282 Z" fill="none" stroke="#012394" opacity="0.6" stroke-width="1" class="red_hook"/>
<path d="M 2672.4443 3252.7192 2775.219 3455.6524 2758.5493 3496.2433 2656.6758 3500.8498 2574.2653 3429.8034 2551.1329 3346.7792 2672.4443 3252.7192 Z" fill="none" stroke="#012394" opacity="0.6" stroke-width="1" class="red_hook"/>
<path d="M 2573.316 3544.1971 2555.7615 3352.3146 2677.9996 3252.7197 2782.6276 3455.6523 2753.9186 3503.6236 2639.9988 3552.5116 2573.316 3544.1971 Z" fill="none" stroke="#012394" opacity="0.6" stroke-width="1" class="red_hook"/>
<path d="M 2667.8151 3250.8741 2693.7387 3263.7888 2792.8139 3438.1247 2777.0713 3469.49 2786.3317 3447.3497 2773.3669 3463.9549 2571.4561 3581.1009 2548.3526 3356.9249 2667.8151 3250.8741 Z" fill="none" stroke="#012394" opacity="0.6" stroke-width="1" class="red_hook"/>
<path d="M 2669.6669 3250.8743 2779.8494 3461.1873 2728.9123 3527.6095 2585.3542 3554.348 2549.2769 3364.3044 2669.6669 3250.8743 Z" fill="none" stroke="#012394" opacity="0.6" stroke-width="1" class="red_hook"/>
<path d="M 2578.9129 3342.1731 2570.5762 3356.9298 2581.6932 3329.7214 2642.3494 3282.6911 2662.7207 3269.781 2682.6297 3244.8806 2710.4057 3247.6495 2759.4769 3263.7915 2728.4568 3333.4281 2756.2349 3400.7651 2779.3863 3456.1136 2765.9582 3496.7046 2747.4357 3504.5461 2723.356 3514.2321 2691.8683 3503.1595 2657.6019 3501.3112 2613.1541 3463.4814 2566.39 3448.2515 2554.3661 3380.9092 2569.1867 3359.2355 2578.9129 3342.1731 Z" fill="none" stroke="#012394" opacity="0.6" stroke-width="1" class="red_hook"/>
<path d="M 2754.8474 3263.215 2753.4585 3270.2476 2730.3074 3369.863 2778.9233 3457.0361 2769.1996 3486.5567 2735.3956 3520.6905 2640.9251 3551.1279 2586.2795 3558.9612 2571.9253 3551.5776 2555.2981 3354.1593 2556.6898 3341.7073 2677.0752 3237.0406 2754.8474 3263.215 Z" fill="none" stroke="#012394" opacity="0.6" stroke-width="1" class="red_hook"/>
<path d="M 2687.2547 3296.9922 2773.3668 3458.4199 2736.3217 3519.3067 2654.8241 3496.2369 2581.6729 3434.4172 2558.5396 3351.3928 2646.5173 3272.0849 2687.2547 3296.9922 Z" fill="none" stroke="#012394" opacity="0.6" stroke-width="1" class="red_hook"/>
<path d="M 2670.5928 3250.4132 2778.4603 3462.5711 2728.9127 3518.3839 2589.0585 3556.6552 2550.6698 3347.2403 2670.5928 3250.4132 Z" fill="none" stroke="#012394" opacity="0.6" stroke-width="1" class="red_hook"/>
<path d="M 2753.9229 3151.2756 2933.5399 3239.7966 2848.3735 3391.0759 2769.6627 3494.3982 2581.6463 3570.9542 2509.4607 3359.6824 2753.9229 3151.2756 Z" fill="none" stroke="#012394" opacity="0.6" stroke-width="1" class="red_hook"/>
<path d="M 2680.7777 3248.1084 2784.4799 3461.1872 2731.6911 3517.4614 2584.4277 3556.193 2567.7781 3452.8642 2552.0505 3383.6759 2557.6142 3348.6254 2680.7777 3248.1084 Z" fill="none" stroke="#012394" opacity="0.6" stroke-width="1" class="red_hook"/>
<path d="M 2677.0739 3250.875 2781.7014 3450.1173 2738.1741 3518.3842 2642.7778 3548.8216 2593.6895 3556.1947 2565.9235 3464.8564 2552.9856 3343.09 2677.0739 3250.875 Z" fill="none" stroke="#012394" opacity="0.6" stroke-width="1" class="red_hook"/>
<path d="M 2781.7016 3462.1098 2764.106 3500.856 2744.6572 3510.0813 2738.1738 3525.7647 2698.3505 3511.9243 2688.1637 3503.6205 2652.0444 3507.3071 2637.2201 3553.4339 2577.9432 3562.65 2548.3287 3461.1625 2576.1163 3435.3386 2556.6789 3391.0564 2549.2805 3348.6235 2671.5185 3252.7191 2781.7016 3462.1098 Z" fill="none" stroke="#012394" opacity="0.6" stroke-width="1" class="red_hook"/>
<path d="M 2758.5492 3503.6237 2702.0547 3516.5373 2583.5005 3561.7284 2556.6875 3352.3148 2662.2606 3244.4174 2712.2621 3164.1851 2768.7355 3181.7089 2781.6973 3210.2985 2726.1412 3350.4923 2783.5537 3457.4972 2758.5492 3503.6237 Z" fill="none" stroke="#012394" opacity="0.6" stroke-width="1" class="red_hook"/>
<path d="M 2602.0215 3576.4936 2559.4191 3564.4913 2531.6404 3536.8071 2508.5149 3432.5552 2527.0611 3332.9376 2612.2628 3249.0221 2677.0747 3242.5743 2693.7368 3288.6916 2723.3637 3342.1906 2781.7016 3457.4973 2776.1453 3475.9476 2755.7708 3509.1589 2714.0936 3533.1443 2602.0215 3576.4936 Z" fill="none" stroke="#012394" opacity="0.6" stroke-width="1" class="red_hook"/>
<path d="M 2777.994 3212.1431 2774.2933 3500.856 2567.7558 3559.8801 2533.5403 3343.0854 2777.994 3212.1431 Z" fill="none" stroke="#012394" opacity="0.6" stroke-width="1" class="red_hook"/>
<path d="M 2752.7642 3263.3302 2725.2158 3337.1175 2715.4942 3319.3613 2664.5525 3457.0308 2669.4143 3458.1844 2557.592 3449.8639 2555.2985 3352.0839 2558.077 3349.7785 2606.234 3311.7397 2625.6755 3333.6491 2718.044 3249.7251 2752.7642 3263.3302 Z" fill="none" stroke="#012394" opacity="0.6" stroke-width="1" class="red_hook"/>
<path d="M 2770.5871 3185.3979 2777.531 3207.9929 2634.9219 3428.8912 2567.7798 3445.023 2548.3457 3386.9036 2556.689 3345.3968 2669.2042 3248.5685 2713.6508 3165.1074 2770.5871 3185.3979 Z" fill="none" stroke="#012394" opacity="0.6" stroke-width="1" class="red_hook"/>
<path d="M 2777.9972 3455.6523 2732.6173 3515.6163 2584.4279 3555.2704 2544.6495 3353.2345 2672.4449 3247.1854 2777.9972 3455.6523 Z" fill="none" stroke="#012394" opacity="0.6" stroke-width="1" class="red_hook"/>
<path d="M 2775.219 3456.5749 2732.6172 3518.384 2552.0503 3384.5984 2666.8888 3255.4855 2775.219 3456.5749 Z" fill="none" stroke="#012394" opacity="0.6" stroke-width="1" class="red_hook"/>
<path d="M 2693.2727 3304.3715 2774.7559 3451.0399 2758.5493 3495.3208 2634.4569 3443.1896 2558.0698 3382.2936 2648.8316 3275.7744 2693.2727 3304.3715 Z" fill="none" stroke="#012394" opacity="0.6" stroke-width="1" class="red_hook"/>
<path d="M 2740.0359 3164.1863 2781.6968 3180.7866 2772.439 3220.4436 2731.6976 3334.8118 2736.3265 3366.1735 2776.1452 3469.49 2758.5492 3510.0815 2678.899 3541.4449 2568.6933 3505.4483 2512.223 3417.7967 2548.3611 3320.0294 2740.0359 3164.1863 Z" fill="none" stroke="#012394" opacity="0.6" stroke-width="1" class="red_hook"/>
<path d="M 2789.1091 3412.2955 2767.8104 3492.5532 2733.5435 3513.7712 2695.5723 3510.079 2656.6764 3496.2371 2566.8612 3409.5076 2546.5054 3336.6318 2645.5909 3275.774 2687.2547 3297.9145 2730.7723 3319.1314 2752.9939 3398.459 2789.1091 3412.2955 Z" fill="none" stroke="#012394" opacity="0.6" stroke-width="1" class="red_hook"/>
<path d="M 2769.6612 3167.8755 2789.1033 3180.7864 2726.1419 3335.734 2721.5111 3356.0265 2752.0678 3403.0712 2778.9232 3451.0398 2782.6277 3462.1098 2774.2931 3475.9476 2770.5888 3499.0109 2752.0662 3511.9266 2717.7983 3531.2993 2699.2745 3543.2917 2589.9803 3580.1819 2460.335 3510.0323 2472.4262 3343.9909 2569.6662 3279.4507 2665.9681 3205.6821 2683.5627 3162.3386 2769.6612 3167.8755 Z" fill="none" stroke="#012394" opacity="0.6" stroke-width="1" class="red_hook"/>
<path d="M 2680.7777 3248.1084 2784.4799 3462.1098 2723.3545 3547.9061 2550.1573 3564.4893 2541.8808 3314.4937 2680.7777 3248.1084 Z" fill="none" stroke="#012394" opacity="0.6" stroke-width="1" class="red_hook"/>
<path d="M 2622.7556 3392.2887 2610.9625 3380.2075 2616.8066 3373.6189 2634.1128 3378.7824 2633.3393 3388.6662 2627.0554 3395.1443 2622.7556 3392.2887 Z" fill="none" stroke="#012394" opacity="0.6" stroke-width="1" class="red_hook"/>
<path d="M 2771.5146 3448.2724 2731.6909 3522.0742 2539.0875 3379.0608 2671.5187 3249.9522 2771.5146 3448.2724 Z" fill="none" stroke="#012394" opacity="0.6" stroke-width="1" class="red_hook"/>
<path d="M 2593.7215 3379.9947 2671.5131 3306.2143 2814.1116 3403.9925 2790.039 3563.5909 2550.1548 3575.5606 2593.7215 3379.9947 Z" fill="none" stroke="#012394" opacity="0.6" stroke-width="1" class="red_hook"/>
<path d="M 2732.6172 3519.3066 2572.3887 3549.7325 2552.0584 3348.6242 2772.4387 3175.2533 2845.5791 3198.3059 2732.6172 3519.3066 Z" fill="none" stroke="#012394" opacity="0.6" stroke-width="1" class="red_hook"/>
<path d="M 2644.6299 3550.6671 2579.7961 3559.8825 2545.5528 3451.0143 2548.3562 3341.2442 2666.8891 3252.7186 2776.145 3453.8074 2736.3218 3518.3841 2644.6299 3550.6671 Z" fill="none" stroke="#012394" opacity="0.6" stroke-width="1" class="red_hook"/>
<path d="M 2781.2413 3458.429 2752.8202 3508.681 2717.6261 3530.8214 2679.6527 3543.7349 2617.595 3574.173 2572.2143 3560.3257 2547.9255 3474.6514 2546.9403 3317.8154 2678.4333 3219.1484 2718.0649 3148.2136 2769.9085 3170.3479 2773.0758 3201.0964 2721.0513 3347.7341 2781.2413 3458.429 Z" fill="none" stroke="#012394" opacity="0.6" stroke-width="1" class="red_hook"/>
<path d="M 2699.5234 3293.7649 2687.7167 3308.7522 2703.9196 3323.7419 2693.9673 3301.3739 2773.5983 3447.1193 2756.234 3492.7838 2741.4163 3489.5546 2738.4062 3497.3961 2716.8743 3490.015 2730.9988 3454.4987 2675.4362 3433.9696 2640.9258 3545.5923 2633.5173 3540.0558 2663.6268 3454.2632 2645.569 3448.4954 2601.3563 3407.2081 2578.8957 3429.3431 2568.0169 3418.0406 2563.6345 3341.7088 2602.9928 3314.2756 2632.8504 3342.4128 2674.0604 3296.0686 2680.0783 3302.9868 2692.811 3287.7692 2699.5234 3293.7649 Z" fill="none" stroke="#012394" opacity="0.6" stroke-width="1" class="red_hook"/>
<path d="M 2780.7755 3460.2648 2682.6289 3253.6424 2686.332 3259.1766 2780.7755 3460.2648 Z" fill="none" stroke="#012394" opacity="0.6" stroke-width="1" class="red_hook"/>
<path d="M 2676.1478 3253.6418 2780.7755 3458.4198 2761.3276 3502.7011 2577.017 3562.6498 2543.7238 3352.3119 2676.1478 3253.6418 Z" fill="none" stroke="#012394" opacity="0.6" stroke-width="1" class="red_hook"/>
<path d="M 2738.1746 3498.088 2731.6911 3518.384 2701.1292 3507.3117 2659.4542 3500.8501 2638.1465 3551.5888 2583.5022 3552.5025 2569.6123 3539.5834 2560.3669 3464.8552 2575.1838 3467.6258 2581.6558 3522.0569 2594.6175 3546.0464 2640.9288 3522.9892 2648.3411 3498.0812 2641.86 3484.2423 2632.6 3476.8608 2612.2247 3484.238 2627.0448 3467.6349 2615.9324 3463.0206 2604.8188 3466.7088 2615.008 3452.8729 2589.0749 3468.5511 2623.3456 3433.5019 2598.3389 3451.0251 2590.9326 3439.0314 2602.9745 3420.584 2566.8525 3451.019 2563.1501 3441.7933 2579.8227 3424.2696 2567.7861 3415.0425 2567.7884 3403.9731 2571.4957 3388.2923 2550.1983 3384.5979 2557.6094 3370.7632 2567.7978 3358.774 2555.7611 3354.1594 2555.7633 3344.013 2677.9998 3250.8751 2777.0712 3460.2649 2761.3276 3495.3208 2753.9187 3492.5531 2750.2141 3502.701 2738.1746 3498.088 Z" fill="none" stroke="#012394" opacity="0.6" stroke-width="1" class="red_hook"/>
<path d="M 2665.7395 3270.8382 2680.3507 3265.0364 2777.8333 3459.7293 2760.2376 3499.8592 2726.4326 3537.2222 2683.427 3526.3233 2656.5707 3509.2532 2637.6979 3551.227 2587.0003 3560.3041 2567.1023 3454.341 2551.9779 3354.3495 2665.7395 3270.8382 Z" fill="none" stroke="#012394" opacity="0.6" stroke-width="1" class="red_hook"/>
<path d="M 2677.9995 3253.642 2780.7755 3457.4973 2766.8843 3485.1729 2731.6912 3515.6163 2665.0111 3499.0056 2556.6879 3350.47 2677.9995 3253.642 Z" fill="none" stroke="#012394" opacity="0.6" stroke-width="1" class="red_hook"/>
<path d="M 2678 3248.1082 2780.7754 3454.7298 2756.697 3500.856 2727.0603 3519.3063 2698.3508 3508.2341 2689.0902 3499.0079 2657.6019 3500.8499 2626.1187 3467.6347 2585.3767 3436.2629 2567.7783 3451.9417 2561.2964 3449.1729 2578.8965 3425.1919 2565.0074 3417.8093 2549.2735 3379.0631 2556.6897 3342.1684 2678 3248.1082 Z" fill="none" stroke="#012394" opacity="0.6" stroke-width="1" class="red_hook"/>
<path d="M 2667.8151 3250.8741 2778.9233 3458.8811 2762.7168 3499.9335 2730.7651 3515.155 2656.2124 3503.6174 2643.2405 3551.5895 2576.5568 3548.3494 2562.2294 3416.8863 2554.8359 3350.4696 2669.6663 3256.4081 2667.8151 3250.8741 Z" fill="none" stroke="#012394" opacity="0.6" stroke-width="1" class="red_hook"/>
<path d="M 2784.9429 3459.8035 2784.9429 3463.2629 2759.2438 3503.8543 2741.8784 3525.7648 2694.6439 3539.6011 2577.9437 3559.8822 2499.7329 3377.2057 2692.351 3249.0317 2784.9429 3459.8035 Z" fill="none" stroke="#012394" opacity="0.6" stroke-width="1" class="red_hook"/>
<path d="M 2542.8009 3339.3981 2677.074 3249.9527 2783.5538 3460.2648 2805.7827 3529.4545 2779.8512 3573.7398 2712.2413 3534.0668 2549.2294 3571.8699 2542.8009 3339.3981 Z" fill="none" stroke="#012394" opacity="0.6" stroke-width="1" class="red_hook"/>
<path d="M 2607.6065 3410.4377 2658.5335 3452.8789 2747.4365 3464.8773 2602.9858 3355.0911 2651.141 3320.0475 2688.1817 3284.0795 2714.1038 3345.8797 2724.2881 3377.2421 2742.8077 3396.6139 2759.4758 3425.2103 2762.2539 3456.5749 2607.6065 3410.4377 Z" fill="none" stroke="#012394" opacity="0.6" stroke-width="1" class="red_hook"/>
<path d="M 2676.1481 3249.9526 2694.6615 3305.2939 2724.2889 3358.7938 2778.9234 3460.2648 2762.2537 3497.1659 2728.9127 3517.4613 2701.1291 3509.1568 2690.9393 3539.6008 2677.0485 3522.0707 2641.8505 3557.1249 2564.9778 3557.1117 2552.9595 3459.3185 2558.5273 3407.6609 2538.1611 3380.9054 2552.0613 3335.7107 2676.1481 3249.9526 Z" fill="none" stroke="#012394" opacity="0.6" stroke-width="1" class="red_hook"/>
<path d="M 2676.1478 3253.6418 2746.5118 3394.7691 2778.9234 3463.0324 2765.0321 3493.4757 2748.3619 3500.8559 2728.9127 3518.3839 2639.0727 3551.5889 2579.7968 3556.1921 2559.4411 3463.9325 2561.2968 3447.3279 2576.1184 3425.1914 2552.0509 3381.8311 2554.8367 3346.78 2676.1478 3253.6418 Z" fill="none" stroke="#012394" opacity="0.6" stroke-width="1" class="red_hook"/>
<path d="M 2739.5704 3257.3349 2768.7355 3172.9477 2780.3084 3199.6926 2725.6783 3350.031 2777.5342 3456.5748 2762.2537 3496.2433 2732.6173 3517.4614 2659.4542 3500.3888 2578.8961 3427.4981 2556.2247 3351.3923 2675.685 3251.336 2714.1091 3248.572 2739.5704 3257.3349 Z" fill="none" stroke="#012394" opacity="0.6" stroke-width="1" class="red_hook"/>
<path d="M 2681.7035 3248.1085 2783.5539 3464.8773 2658.5216 3558.0495 2498.2917 3561.7082 2551.1362 3332.021 2681.7035 3248.1085 Z" fill="none" stroke="#012394" opacity="0.6" stroke-width="1" class="red_hook"/>
<path d="M 2667.8135 3266.5534 2684.4781 3284.0792 2707.6232 3327.4316 2736.3263 3372.6305 2763.1801 3420.598 2773.3668 3454.7299 2759.4754 3487.9405 2736.3223 3502.7007 2720.5777 3512.8481 2693.7183 3532.2204 2651.1152 3533.1388 2635.3689 3545.1303 2582.5787 3538.6634 2564.9954 3474.0814 2565.9404 3384.6014 2556.6911 3335.7117 2644.6662 3266.5507 2667.8135 3266.5534 Z" fill="none" stroke="#012394" opacity="0.6" stroke-width="1" class="red_hook"/>
<path d="M 2674.2962 3251.797 2777.9973 3462.1099 2730.7649 3518.3839 2676.1242 3502.6969 2658.5276 3504.5402 2636.2943 3550.666 2581.6497 3553.4247 2558.5158 3460.2423 2553.9112 3344.935 2672.445 3246.2631 2674.2962 3251.797 Z" fill="none" stroke="#012394" opacity="0.6" stroke-width="1" class="red_hook"/>
<path d="M 2664.1107 3259.1745 2675.222 3252.7194 2777.9973 3463.9549 2735.3956 3519.3067 2640.0051 3504.5379 2535.3887 3357.8443 2664.1107 3259.1745 Z" fill="none" stroke="#012394" opacity="0.6" stroke-width="1" class="red_hook"/>
<path d="M 2783.5537 3454.2685 2759.4754 3499.9335 2695.5693 3550.6722 2580.7199 3571.8766 2563.1489 3447.7895 2559.9303 3343.5527 2651.6095 3273.9301 2701.6104 3239.3483 2754.3844 3267.0195 2727.5306 3341.2684 2783.5537 3454.2685 Z" fill="none" stroke="#012394" opacity="0.6" stroke-width="1" class="red_hook"/>
<path d="M 2670.1291 3257.7916 2749.5213 3400.0732 2711.3263 3338.9616 2670.1291 3257.7916 Z" fill="none" stroke="#012394" opacity="0.6" stroke-width="1" class="red_hook"/>
<path d="M 2678.9272 3234.2739 2824.2911 3294.2265 2773.3671 3493.4757 2714.0933 3539.6023 2571.4591 3566.3391 2494.6452 3358.7559 2678.9272 3234.2739 Z" fill="none" stroke="#012394" opacity="0.6" stroke-width="1" class="red_hook"/>
<path d="M 2705.773 3299.7606 2776.145 3448.2724 2769.6627 3487.9405 2737.2481 3512.8488 2690.016 3503.6207 2663.1582 3505.4632 2645.5563 3548.822 2593.6901 3552.5044 2581.651 3546.9665 2563.1452 3464.8558 2565.9464 3356.0064 2573.3577 3339.4048 2647.4423 3279.4636 2686.3325 3252.7204 2705.773 3299.7606 Z" fill="none" stroke="#012394" opacity="0.6" stroke-width="1" class="red_hook"/>
<path d="M 2745.5886 3261.0243 2908.5539 3321.8883 2810.4104 3465.7989 2634.4637 3393.8377 2745.5886 3261.0243 Z" fill="none" stroke="#012394" opacity="0.6" stroke-width="1" class="red_hook"/>
<path d="M 2690.0374 3236.1194 2757.6251 3262.8691 2726.1415 3344.9579 2782.6277 3461.1873 2748.3616 3515.6167 2562.1955 3574.6406 2546.5064 3332.0199 2684.4823 3234.2744 2690.0374 3236.1194 Z" fill="none" stroke="#012394" opacity="0.6" stroke-width="1" class="red_hook"/>
<path d="M 2753.2271 3262.1773 2720.5854 3350.2614 2750.4473 3399.8426 2727.9891 3454.4985 2675.4361 3434.8921 2676.1295 3446.6538 2666.868 3454.7248 2602.275 3449.4115 2553.2073 3386.9047 2565.2548 3342.6315 2578.2211 3328.7984 2695.3603 3246.265 2753.2271 3262.1773 Z" fill="none" stroke="#012394" opacity="0.6" stroke-width="1" class="red_hook"/>
<path d="M 2556.6877 3351.3924 2676.148 3251.3361 2790.963 3481.9437 2734.9326 3517.9228 2581.6457 3574.1833 2539.5563 3354.6169 2556.6877 3351.3924 Z" fill="none" stroke="#012394" opacity="0.6" stroke-width="1" class="red_hook"/>
<path d="M 2598.3468 3406.7463 2692.8099 3301.6044 2773.3667 3446.4274 2765.0321 3465.8 2676.1306 3435.3534 2666.8679 3455.6473 2645.5688 3450.1098 2598.3468 3406.7463 Z" fill="none" stroke="#012394" opacity="0.6" stroke-width="1" class="red_hook"/>
<path d="M 2778.9233 3459.3423 2763.1799 3499.4722 2730.3017 3521.6129 2592.2983 3566.3431 2552.9842 3349.5468 2671.5197 3239.8069 2693.5043 3302.2962 2778.9233 3459.3423 Z" fill="none" stroke="#012394" opacity="0.6" stroke-width="1" class="red_hook"/>
<path d="M 2672.9028 3298.8356 2715.493 3341.729 2777.9972 3457.9586 2734.0063 3521.1517 2589.5214 3557.5779 2572.3912 3537.7388 2553.4477 3347.2409 2672.9028 3298.8356 Z" fill="none" stroke="#012394" opacity="0.6" stroke-width="1" class="red_hook"/>
<path d="M 2680.7781 3243.497 2765.0322 3265.6361 2740.9571 3341.2688 2789.1101 3454.7296 2733.5428 3535.9129 2584.4235 3578.3356 2549.26 3438.1003 2533.5435 3330.172 2680.7781 3243.497 Z" fill="none" stroke="#012394" opacity="0.6" stroke-width="1" class="red_hook"/>
<path d="M 2781.7017 3464.8773 2735.3954 3524.842 2555.7396 3451.0166 2555.7621 3349.5474 2675.2221 3251.7971 2780.7755 3461.1873 2781.7017 3464.8773 Z" fill="none" stroke="#012394" opacity="0.6" stroke-width="1" class="red_hook"/>
<path d="M 2672.4442 3253.6415 2777.0711 3455.6523 2726.1339 3526.6868 2594.6328 3461.172 2554.8365 3347.7024 2672.4442 3253.6415 Z" fill="none" stroke="#012394" opacity="0.6" stroke-width="1" class="red_hook"/>
<path d="M 2776.1451 3463.0324 2725.2077 3527.6094 2576.0914 3559.8818 2546.506 3333.8647 2678.0001 3247.1859 2776.1451 3463.0324 Z" fill="none" stroke="#012394" opacity="0.6" stroke-width="1" class="red_hook"/>
<path d="M 2725.2154 3346.8026 2781.7017 3464.8773 2730.7647 3524.8419 2579.7955 3562.6503 2552.9622 3447.326 2552.0511 3380.9086 2556.6883 3348.6252 2671.5186 3250.8745 2704.8549 3178.0181 2771.5131 3207.5319 2725.2154 3346.8026 Z" fill="none" stroke="#012394" opacity="0.6" stroke-width="1" class="red_hook"/>
<path d="M 2669.6669 3250.8743 2690.0331 3289.1525 2777.9972 3452.4236 2773.8299 3461.1874 2739.5635 3511.0037 2705.2969 3505.4669 2642.3226 3488.3937 2579.3562 3442.2579 2561.3101 3385.9841 2590.0217 3357.3948 2558.5342 3376.2979 2545.5787 3339.3988 2669.6669 3250.8743 Z" fill="none" stroke="#012394" opacity="0.6" stroke-width="1" class="red_hook"/></svg>