<?xml version="1.0"?><svg xmlns="http://www.w3.org/2000/svg" version="1.2" baseProfile="tiny" width="6000" height="5918" viewBox="0 0 6000 5918" stroke-linecap="round" stroke-linejoin="round"><path d="M 1262.7782 5011.5294 1181.1879 4988.2964 1227.3298 4848.8605 1348.3791 4837.0395 1362.5071 5003.8284 1262.7782 5011.5294 Z" fill="none" stroke="#865327" opacity="0.6" stroke-width="1" class="richmondtown"/>
<path d="M 1586.4281 4706.6514 1542.4572 4289.1681 1746.3442 4317.1094 1835.247 4400.3049 1749.7664 4583.0712 1558.5666 4739.8706 1427.4231 4359.1865 1520.2166 4285.4459 1586.4281 4706.6514 Z" fill="none" stroke="#865327" opacity="0.6" stroke-width="1" class="richmondtown"/>
<path d="M 1194.2842 4883.9105 1362.7257 4999.0562 1150.1008 5156.3561 1092.5693 4988.3832 1098.2488 4966.8627 1089.6069 4952.065 1177.7906 4876.8531 1194.2842 4883.9105 Z" fill="none" stroke="#865327" opacity="0.6" stroke-width="1" class="richmondtown"/>
<path d="M 1173.9397 4885.7271 1179.7906 4853.4013 1358.3895 4809.8015 1393.1153 4845.651 1336.2887 4859.4247 1338.4349 4973.7628 1308.3157 4956.3926 1271.1245 5012.9287 1222.4611 4990.9056 1266.6072 4936.6936 1173.9397 4885.7271 Z" fill="none" stroke="#865327" opacity="0.6" stroke-width="1" class="richmondtown"/>
<path d="M 1345.7805 4869.1396 1338.4377 4971.9149 1166.9809 4887.3322 1178.1409 4869.3353 1289.4771 4843.4164 1353.2371 4844.4375 1345.7805 4869.1396 Z" fill="none" stroke="#865327" opacity="0.6" stroke-width="1" class="richmondtown"/>
<path d="M 1181.838 4876.9634 1358.1082 4843.059 1351.4257 4970.5484 1343.9996 4974.2332 1295.7877 4960.3001 1192.9323 4898.2314 1166.0554 4886.1757 1181.838 4876.9634 Z" fill="none" stroke="#865327" opacity="0.6" stroke-width="1" class="richmondtown"/>
<path d="M 1166.0444 4892.643 1076.8608 4973.7944 1178.1374 4871.414 1345.1269 4841.1919 1363.5127 4951.1632 1325.4033 5003.7727 1102.706 5045.9128 1078.6978 4983.9614 1154.8957 4903.7109 1166.0382 4896.3386 1166.0444 4892.643 Z" fill="none" stroke="#865327" opacity="0.6" stroke-width="1" class="richmondtown"/>
<path d="M 1177.7803 4872.0903 1182.244 4872.7986 1198.1305 4871.5662 1330.8088 4848.8318 1335.9547 4977.4247 1255.56 5031.9534 1206.2459 4994.3038 1168.8848 4884.3226 1177.7803 4872.0903 Z" fill="none" stroke="#865327" opacity="0.6" stroke-width="1" class="richmondtown"/>
<path d="M 1395.1838 4807.7559 1423.7352 4905.8133 1357.9653 4939.1437 1341.5861 4968.2337 1278.8651 4947.2126 1225.1493 4907.183 1214.3053 4980.2874 1171.6771 4984.6323 1121.0256 4930.6283 1119.7528 4919.9968 1117.0523 4872.8732 1212.8428 4769.9292 1325.6729 4728.4166 1395.1838 4807.7559 Z" fill="none" stroke="#865327" opacity="0.6" stroke-width="1" class="richmondtown"/>
<path d="M 1145.5797 4927.7169 1183.6975 4874.1949 1380.3789 4834.7772 1340.2977 4968.6838 1255.8013 5023.9926 1145.5797 4927.7169 Z" fill="none" stroke="#865327" opacity="0.6" stroke-width="1" class="richmondtown"/>
<path d="M 1168.0288 4884.6778 1177.9652 4835.8452 1395.0685 4777.7533 1387.1219 4821.6225 1369.4877 4830.604 1333.7992 4972.3699 1168.0288 4884.6778 Z" fill="none" stroke="#865327" opacity="0.6" stroke-width="1" class="richmondtown"/>
<path d="M 1304.686 4740.9578 1269.4287 4785.4501 1270.6043 4809.1646 1301.084 4776.304 1306.9264 4746.2906 1330.4114 4835.7103 1333.6656 4846.6799 1340.5169 4974.6424 1167.1372 4883.2283 1217.1975 4803.464 1304.686 4740.9578 Z" fill="none" stroke="#865327" opacity="0.6" stroke-width="1" class="richmondtown"/>
<path d="M 1112.502 4748.4341 1189.6731 4627.5614 1264.774 4630.4544 1325.8798 4690.5879 1398.9608 4811.7086 1320.0522 4863.3265 1179.9861 4875.1126 1112.502 4748.4341 Z" fill="none" stroke="#865327" opacity="0.6" stroke-width="1" class="richmondtown"/>
<path d="M 1448.094 4825.6356 1457.3121 4866.2977 1349.554 4981.6333 1167.9212 4879.7117 1212.5658 4803.1068 1356.4418 4716.4979 1448.094 4825.6356 Z" fill="none" stroke="#865327" opacity="0.6" stroke-width="1" class="richmondtown"/>
<path d="M 1179.9598 4890.8186 1197.5728 4896.3913 1227.2225 4914.9181 1263.3615 4936.2265 1293.9369 4957.5253 1333.802 4970.5219 1342.1459 4973.3064 1174.4244 4873.2555 1199.4813 4864.0585 1235.6551 4862.27 1263.4935 4853.0759 1281.1034 4860.4946 1304.304 4851.2921 1328.4204 4849.4813 1328.3923 4867.9585 1335.7855 4885.5234 1335.7283 4923.4035 1337.5471 4947.4286 1179.9598 4890.8186 Z" fill="none" stroke="#865327" opacity="0.6" stroke-width="1" class="richmondtown"/>
<path d="M 1337.5178 4966.8317 1176.2468 4892.6602 1109.7329 4741.0393 1430.9251 4505.0964 1463.8564 4828.4289 1337.5178 4966.8317 Z" fill="none" stroke="#865327" opacity="0.6" stroke-width="1" class="richmondtown"/>
<path d="M 1127.0389 4922.1414 1344.3978 4709.0901 1492.5779 4849.7163 1342.1501 4970.5345 1127.0389 4922.1414 Z" fill="none" stroke="#865327" opacity="0.6" stroke-width="1" class="richmondtown"/>
<path d="M 1274.7043 4801.3591 1327.6459 4748.7855 1504.6654 4826.6365 1452.4428 5033.526 1237.3967 4932.4892 1274.7043 4801.3591 Z" fill="none" stroke="#865327" opacity="0.6" stroke-width="1" class="richmondtown"/>
<path d="M 1433.1381 4826.5385 1338.8944 4899.733 1338.9953 4909.6652 1338.5335 4908.3941 1339.2951 4941.5411 1311.5842 4942.0764 1297.5837 4923.6916 1238.5897 4911.7028 1208.2325 4900.3355 1279.8549 4917.312 1292.3849 4911.7881 1265.021 4913.3619 1215.887 4898.7312 1238.1583 4891.6072 1213.3549 4887.4093 1209.9065 4869.388 1374.5899 4829.6877 1391.0715 4816.0853 1393.1662 4810.5454 1406.3834 4809.4097 1421.9105 4814.2819 1435.5878 4815.687 1443.0052 4817.0831 1450.8811 4822.1751 1447.4039 4821.7083 1433.1381 4826.5385 Z" fill="none" stroke="#865327" opacity="0.6" stroke-width="1" class="richmondtown"/></svg>