<?xml version="1.0"?><svg xmlns="http://www.w3.org/2000/svg" version="1.2" baseProfile="tiny" width="6000" height="5918" viewBox="0 0 6000 5918" stroke-linecap="round" stroke-linejoin="round"><path d="M 4472.1743 4692.9151 4676.055 4631.563 4770.5464 4590.7281 4822.3807 4549.9791 4922.6434 4607.0186 4961.7918 4695.6003 4487.2967 4849.9301 4472.1743 4692.9151 Z" fill="none" stroke="#865327" opacity="0.6" stroke-width="1" class="rockaway_beach"/>
<path d="M 4589.4821 4695.5829 4589.3657 4695.3522 4880.8587 4528.2621 4925.6914 4672.9374 4622.8854 4765.1448 4589.4821 4695.5829 Z" fill="none" stroke="#865327" opacity="0.6" stroke-width="1" class="rockaway_beach"/>
<path d="M 4785.098 4620.8302 4785.6746 4619.4435 4875.0489 4573.4143 4904.2439 4568.5 4874.912 4511.998 4893.0905 4504.8 4939.3975 4483.6848 4950.3519 4610.5341 4834.7568 4644.7377 4793.1764 4658.6827 4788.6487 4655.2286 4785.8698 4656.6201 4785.0427 4649.2325 4784.5786 4649.0026 4785.3739 4641.4962 4785.0245 4640.6887 4785.9369 4633.7594 4785.8141 4630.5269 4784.8815 4627.9889 4787.1862 4621.7494 4785.098 4620.8302 Z" fill="none" stroke="#865327" opacity="0.6" stroke-width="1" class="rockaway_beach"/>
<path d="M 4509.3391 4732.5674 4961.2999 4483.6342 4973.0278 4642.6934 4553.023 4785.1406 4509.3391 4732.5674 Z" fill="none" stroke="#865327" opacity="0.6" stroke-width="1" class="rockaway_beach"/>
<path d="M 4698.5217 4735.8949 4696.6539 4729.4325 4682.7178 4716.5286 4663.2035 4696.2462 4646.4626 4671.3398 4640.8825 4663.0378 4825.1923 4563.8266 4936.6935 4668.8711 4698.5217 4735.8949 Z" fill="none" stroke="#865327" opacity="0.6" stroke-width="1" class="rockaway_beach"/>
<path d="M 4214.7271 4915.0587 4226.789 4917.8119 4200.7374 4864.2659 4339.6579 4744.8736 4476.891 4737.2454 4706.6953 4651.8211 4831.7187 4580.4369 4915.2153 4602.4174 4919.0397 4653.209 4245.3377 4916.8591 4245.3565 4928.8701 4377.8882 4867.6762 4214.7271 4915.0587 Z" fill="none" stroke="#865327" opacity="0.6" stroke-width="1" class="rockaway_beach"/>
<path d="M 4592.2673 4697.3095 4920.5281 4492.5013 4927.8823 4667.9676 4605.1352 4757.7893 4592.2673 4697.3095 Z" fill="none" stroke="#865327" opacity="0.6" stroke-width="1" class="rockaway_beach"/>
<path d="M 4918.1124 4653.2111 4688.2929 4722.0597 4911.4855 4593.1898 4918.1124 4653.2111 Z" fill="none" stroke="#865327" opacity="0.6" stroke-width="1" class="rockaway_beach"/>
<path d="M 4760.496 4623.9212 4876.5793 4502.7877 5047.6975 4438.7703 5085.7544 4631.5108 4975.9529 4658.6397 4218.3738 4947.5132 4179.3101 4865.6456 4302.9059 4778.5837 4562.081 4713.9466 4573.9186 4709.3054 4637.1059 4689.121 4676.3089 4680.825 4694.3748 4672.937 4728.0109 4653.9819 4760.496 4623.9212 Z" fill="none" stroke="#865327" opacity="0.6" stroke-width="1" class="rockaway_beach"/>
<path d="M 4700.9281 4722.2648 4692.3236 4709.1193 4686.463 4694.2423 4676.1156 4671.4445 4667.7484 4649.2704 4786.2929 4595.7329 4818.6635 4559.6184 4861.1175 4583.6238 4866.9085 4586.5616 4870.9621 4637.352 4873.8441 4686.3017 4804.2173 4699.7828 4751.6856 4714.6382 4744.5234 4712.6199 4700.9281 4722.2648 Z" fill="none" stroke="#865327" opacity="0.6" stroke-width="1" class="rockaway_beach"/>
<path d="M 3695.3825 4976.6917 5063.1166 4416.4409 5137.769 4612.0455 4874.5728 4671.7826 4396.4071 4850.0911 4066.3893 4961.4711 3398.7633 5280.0486 3469.119 5061.8964 3695.3825 4976.6917 Z" fill="none" stroke="#865327" opacity="0.6" stroke-width="1" class="rockaway_beach"/>
<path d="M 4883.8227 4661.6015 4694.786 4722.9702 4680.822 4696.2107 4908.773 4623.6755 4881.8938 4628.3542 4883.8227 4661.6015 Z" fill="none" stroke="#865327" opacity="0.6" stroke-width="1" class="rockaway_beach"/>
<path d="M 4922.7797 4666.8247 4902.4096 4680.0334 4794.89 4701.0533 4698.0675 4740.5146 4671.5147 4679.141 4633.428 4644.5792 4681.1352 4621.8546 4743.1904 4588.9384 4790.4227 4563.4398 4852.023 4537.9079 4877.5482 4550.7811 4895.2129 4572.4456 4914.2723 4595.4925 4916.6793 4634.6258 4919.958 4649.2813 4920.2029 4655.0537 4919.9806 4659.2107 4922.7797 4666.8247 Z" fill="none" stroke="#865327" opacity="0.6" stroke-width="1" class="rockaway_beach"/>
<path d="M 4524.2073 4749.1674 4494.4361 4696.5695 4859.4054 4522.1913 4891.948 4563.6789 4916.3209 4680.9256 4548.4157 4800.8539 4524.2073 4749.1674 Z" fill="none" stroke="#865327" opacity="0.6" stroke-width="1" class="rockaway_beach"/>
<path d="M 4880.1178 4663.4572 4905.8389 4658.781 4858.4017 4697.2202 4658.6575 4741.518 4880.1178 4663.4572 Z" fill="none" stroke="#865327" opacity="0.6" stroke-width="1" class="rockaway_beach"/>
<path d="M 4698.4161 4684.1668 4696.5691 4687.8654 4690.9471 4659.2426 4906.7973 4570.1105 4945.9576 4665.1551 4713.3286 4721.0847 4698.4161 4684.1668 Z" fill="none" stroke="#865327" opacity="0.6" stroke-width="1" class="rockaway_beach"/>
<path d="M 4310.0222 4768.9403 4410.0989 4723.5077 4497.4326 4813.882 4368.6198 4871.3874 4310.0222 4768.9403 Z" fill="none" stroke="#865327" opacity="0.6" stroke-width="1" class="rockaway_beach"/>
<path d="M 4820.5996 4583.6937 4831.5132 4698.6648 4546.5566 4798.5479 4512.1152 4729.3292 4504.1531 4685.9292 4820.5996 4583.6937 Z" fill="none" stroke="#865327" opacity="0.6" stroke-width="1" class="rockaway_beach"/>
<path d="M 4908.8519 4658.5432 4909.0837 4658.5427 4600.5105 4764.0337 4578.1362 4702.648 4898.6944 4574.5158 4908.8519 4658.5432 Z" fill="none" stroke="#865327" opacity="0.6" stroke-width="1" class="rockaway_beach"/>
<path d="M 4729.6227 4641.1517 4772.793 4611.7356 4782.0526 4605.8278 4800.9454 4606.2491 4802.8438 4626.6804 4804.2759 4645.843 4784.6975 4650.3878 4776.8235 4653.9838 4791.25 4679.2387 4792.7741 4687.3178 4759.9943 4698.2409 4732.8923 4708.574 4701.3894 4721.1092 4689.8048 4724.4814 4678.0472 4699.6802 4675.5955 4691.0254 4667.9131 4674.9917 4700.5705 4660.7239 4729.6227 4641.1517 Z" fill="none" stroke="#865327" opacity="0.6" stroke-width="1" class="rockaway_beach"/>
<path d="M 4419.4433 4840.8927 4372.1948 4733.0876 4415.9994 4728.5512 4438.9603 4733.9378 4481.2157 4731.1981 4512.7277 4728.8982 4553.0634 4712.3677 4591.4942 4697.5655 4606.5618 4697.0745 4660.3295 4675.426 4700.7516 4659.8436 4721.5329 4645.3838 4757.826 4620.3078 4782.6456 4604.5755 4816.1367 4604.568 4826.4168 4603.0274 4840.1307 4599.1764 4854.9702 4601.1064 4873.0611 4605.7449 4890.2675 4577.7673 4909.0894 4576.0443 4911.3438 4599.1293 4919.634 4658.2834 4896.0957 4659.7747 4881.4901 4661.5594 4859.5659 4663.4566 4843.3102 4666.589 4824.2853 4677.0605 4803.8913 4684.1206 4777.3812 4692.67 4760.886 4699.2639 4759.5839 4703.5891 4739.7701 4707.0945 4718.7176 4714.6702 4693.5283 4724.3684 4669.2057 4731.7263 4645.0453 4741.4232 4622.8915 4749.7957 4604.0247 4755.1182 4535.3781 4785.1471 4517.6107 4794.3814 4494.2218 4804.7166 4468.9543 4818.8948 4456.6082 4825.1351 4419.7314 4842.6208 4418.9183 4841.6983 4419.032 4840.4278 4419.4433 4840.8927 Z" fill="none" stroke="#865327" opacity="0.6" stroke-width="1" class="rockaway_beach"/>
<path d="M 4915.3474 4660.6068 4920.9468 4676.2966 4612.3682 4781.3315 4590.0844 4767.518 4553.8178 4714.9335 4827.0446 4562.8989 4904.0638 4591.3594 4915.3474 4660.6068 Z" fill="none" stroke="#865327" opacity="0.6" stroke-width="1" class="rockaway_beach"/>
<path d="M 4727.9837 4633.3041 4858.5038 4533.7376 4907.7328 4573.8027 4921.6264 4669.3674 4760.5985 4709.9016 4727.9837 4633.3041 Z" fill="none" stroke="#865327" opacity="0.6" stroke-width="1" class="rockaway_beach"/>
<path d="M 4698.5217 4735.8949 4624.621 4763.5248 4547.9533 4801.5476 4544.2355 4797.1665 4509.5556 4724.2534 4510.4779 4721.4805 4820.1275 4579.7694 4841.7039 4694.2549 4763.6117 4709.6643 4698.5217 4735.8949 Z" fill="none" stroke="#865327" opacity="0.6" stroke-width="1" class="rockaway_beach"/>
<path d="M 4755.4779 4700.2133 4717.3644 4654.5701 4735.5525 4705.7973 4760.5722 4697.4315 4734.4936 4642.5271 4787.2654 4604.5467 4911.9732 4603.8102 4919.9774 4657.8252 4755.4779 4700.2133 Z" fill="none" stroke="#865327" opacity="0.6" stroke-width="1" class="rockaway_beach"/>
<path d="M 4924.6116 4656.891 4609.9993 4755.4704 4586.2328 4693.6263 4651.9986 4657.4737 4589.0129 4692.6972 4723.3409 4630.0809 4828.4233 4557.3545 4913.8066 4594.5699 4924.6116 4656.891 Z" fill="none" stroke="#865327" opacity="0.6" stroke-width="1" class="rockaway_beach"/>
<path d="M 4729.4789 4638.8798 4787.269 4606.2461 4813.9757 4607.6665 4820.7431 4649.7699 4821.5346 4672.6753 4758.5487 4705.3242 4729.4789 4638.8798 Z" fill="none" stroke="#865327" opacity="0.6" stroke-width="1" class="rockaway_beach"/>
<path d="M 5233.7845 4452.9493 5271.3167 4622.7849 3417.4021 5398.3496 3320.6969 5065.6913 5233.7845 4452.9493 Z" fill="none" stroke="#865327" opacity="0.6" stroke-width="1" class="rockaway_beach"/>
<path d="M 5021.9029 4627.107 4614.1742 4756.386 4581.6052 4698.2537 4727.0546 4632.3824 4886.2319 4495.3493 5028.9495 4471.9311 5021.9029 4627.107 Z" fill="none" stroke="#865327" opacity="0.6" stroke-width="1" class="rockaway_beach"/>
<path d="M 4740.4401 4715.0243 4711.1045 4654.1212 4833.0944 4573.5069 4880.5804 4662.9943 4740.4401 4715.0243 Z" fill="none" stroke="#865327" opacity="0.6" stroke-width="1" class="rockaway_beach"/>
<path d="M 4739.9797 4638.7979 4760.1347 4698.841 4755.504 4701.6219 4753.1861 4701.8115 4748.9908 4691.1053 4742.6588 4678.464 4722.9326 4645.6222 4740.9844 4631.499 4809.7755 4584.0635 4818.619 4643.0641 4822.951 4673.7206 4823.1409 4675.7523 4760.4106 4697.7782 4739.9797 4638.7979 Z" fill="none" stroke="#865327" opacity="0.6" stroke-width="1" class="rockaway_beach"/>
<path d="M 4400.8416 4732.7611 4830.7593 4565.6616 4923.6991 4663.3588 4444.6178 4840.7683 4400.8416 4732.7611 Z" fill="none" stroke="#865327" opacity="0.6" stroke-width="1" class="rockaway_beach"/>
<path d="M 4712.2303 4637.9548 4744.8304 4708.0872 4103.5189 4980.8227 4064.4721 4916.2007 4305.3853 4768.9478 4371.1358 4714.3373 4469.3925 4692.9201 4550.0458 4681.6871 4629.7518 4661.2125 4684.4188 4640.7826 4712.2303 4637.9548 Z" fill="none" stroke="#865327" opacity="0.6" stroke-width="1" class="rockaway_beach"/>
<path d="M 4736.222 4693.3258 4524.6856 4757.0185 4908.6705 4578.4185 4736.222 4693.3258 Z" fill="none" stroke="#865327" opacity="0.6" stroke-width="1" class="rockaway_beach"/>
<path d="M 4691.1859 4725.4536 4668.5976 4675.388 4781.8184 4605.9075 4823.295 4579.8011 4816.1834 4613.9902 4802.5349 4626.9505 4805.818 4644.4928 4820.1221 4644.3463 4822.3191 4676.1912 4753.2877 4704.3361 4691.1859 4725.4536 Z" fill="none" stroke="#865327" opacity="0.6" stroke-width="1" class="rockaway_beach"/>
<path d="M 4736.3341 4635.8267 4780.772 4603.1751 4911.3819 4598.6162 4918.8163 4656.9042 4761.7342 4698.8146 4736.3341 4635.8267 Z" fill="none" stroke="#865327" opacity="0.6" stroke-width="1" class="rockaway_beach"/>
<path d="M 4576.0503 4702.8829 4822.4068 4561.9855 4866.0449 4589.5973 4912.4274 4599.6529 4917.1915 4655.9842 4602.1186 4756.4095 4576.0503 4702.8829 Z" fill="none" stroke="#865327" opacity="0.6" stroke-width="1" class="rockaway_beach"/>
<path d="M 4763.1873 4618.4522 4800.4151 4683.0293 4612.3105 4751.7708 4590.8817 4700.0833 4763.1873 4618.4522 Z" fill="none" stroke="#865327" opacity="0.6" stroke-width="1" class="rockaway_beach"/>
<path d="M 4065.345 4876.4719 4057.0041 4881.1027 4425.7256 4644.9664 4485.0792 4650.4024 4701.0203 4597.3381 4768.1088 4753.3015 4684.7691 4813.5206 4140.7426 5063.9312 4065.345 4876.4719 Z" fill="none" stroke="#865327" opacity="0.6" stroke-width="1" class="rockaway_beach"/>
<path d="M 4712.2693 4656.8898 4818.0083 4671.4452 4794.362 4671.0343 4764.9154 4668.3259 4712.9438 4646.7281 4801.8425 4592.2776 4910.9816 4575.4116 4921.3699 4658.5148 4737.4144 4709.2574 4712.2693 4656.8898 Z" fill="none" stroke="#865327" opacity="0.6" stroke-width="1" class="rockaway_beach"/>
<path d="M 4836.3758 4590.1245 4842.0393 4635.8316 4853.7388 4685.2224 4860.2676 4702.2965 4835.7143 4711.5877 4787.9787 4721.39 4749.0701 4739.9472 4697.1854 4762.6866 4667.0537 4766.4427 4639.7194 4778.0445 4614.2446 4792.4134 4586.8973 4798.0092 4547.9685 4809.631 4534.9313 4781.0176 4507.4913 4736.2658 4496.3126 4708.5744 4544.0393 4692.7828 4581.5768 4683.4745 4607.0375 4663.1043 4642.6958 4642.2518 4692.275 4628.2974 4743.2203 4603.2543 4791.846 4578.6759 4826.583 4563.8235 4836.3758 4590.1245 Z" fill="none" stroke="#865327" opacity="0.6" stroke-width="1" class="rockaway_beach"/>
<path d="M 4605.1471 4756.968 4598.4918 4739.5446 4593.6009 4728.0073 4582.7399 4702.5382 4670.8608 4672.3983 4709.8952 4656.6511 4735.5139 4709.0784 4662.0607 4735.5297 4605.1471 4756.968 Z" fill="none" stroke="#865327" opacity="0.6" stroke-width="1" class="rockaway_beach"/>
<path d="M 4876.0631 4612.4345 4879.6057 4641.7522 4876.8729 4663.6953 4861.8387 4678.9695 4855.3839 4695.3794 4807.1911 4707.7238 4767.3263 4712.1967 4748.7705 4707.6171 4739.9408 4697.9366 4700.1852 4642.3669 4675.132 4633.6431 4630.1094 4607.4094 4590.4174 4579.5476 4562.56 4557.435 4540.478 4524.4595 4564.3102 4502.7116 4584.2266 4494.131 4622.227 4488.747 4580.7291 4483.2865 4552.1175 4428.3943 4532.8256 4398.419 4541.5614 4360.7741 4547.2932 4327.9839 4546.3189 4302.8248 4530.0597 4282.3115 4514.5092 4268.7217 4517.0136 4244.7118 4531.7411 4189.9823 4534.9098 4149.8174 4548.7459 4115.1729 4552.1622 4084.0109 4552.3368 4053.779 4539.9654 4004.1879 4526.4959 3986.214 4537.3087 3946.2741 4547.2009 3910.0293 4578.4312 3889.2039 4597.2269 3906.7034 4625.0679 3929.7229 4649.0945 3897.8336 4663.4499 3895.0361 4682.7414 3927.7618 4688.1562 3970.6695 4690.5361 4001.8165 4694.5208 4024.6538 4708.9254 4044.9317 4721.7199 4070.5211 4731.2985 4109.0414 4742.0174 4138.56 4749.7725 4190.7041 4753.5665 4232.011 4765.4379 4257.6067 4780.5152 4264.961 4770.8388 4291.2956 4772.2776 4314.1449 4785.5478 4342.9714 4771.016 4374.8589 4753.91 4395.4408 4737.7299 4415.79 4736.8649 4445.5731 4737.1689 4480.203 4735.1497 4512.2993 4733.834 4548.3203 4754.2618 4562.8238 4785.7888 4564.3733 4821.436 4541.9 4864.2548 4514.0996 4874.3659 4578.9574 4876.0631 4612.4345 Z" fill="none" stroke="#865327" opacity="0.6" stroke-width="1" class="rockaway_beach"/>
<path d="M 4799.4131 4594.3609 4804.9746 4647.3424 4819.2275 4645.6952 4821.9643 4678.3642 4689.1081 4723.9055 4667.102 4675.1088 4712.2624 4653.5415 4799.4131 4594.3609 Z" fill="none" stroke="#865327" opacity="0.6" stroke-width="1" class="rockaway_beach"/>
<path d="M 4757.4 4622.1589 4794.8811 4696.8967 4526.172 4808.286 4491.7064 4725.2098 4757.4 4622.1589 Z" fill="none" stroke="#865327" opacity="0.6" stroke-width="1" class="rockaway_beach"/>
<path d="M 4792.6196 4615.1569 4804.3585 4684.1754 4802.7482 4689.952 4701.0473 4723.8811 4671.9513 4665.7468 4791.9019 4604.7677 4804.5928 4685.3295 4792.6196 4615.1569 Z" fill="none" stroke="#865327" opacity="0.6" stroke-width="1" class="rockaway_beach"/>
<path d="M 4505.6179 4726.1081 4820.5585 4564.7602 4898.4611 4573.8237 4927.4313 4673.5107 4550.2757 4803.6218 4505.6179 4726.1081 Z" fill="none" stroke="#865327" opacity="0.6" stroke-width="1" class="rockaway_beach"/>
<path d="M 4817.1672 4604.2514 4866.3085 4603.9127 4871.3068 4662.5531 4723.0531 4715.0604 4689.9214 4724.8275 4666.1726 4674.0715 4721.7531 4646.9408 4746.0532 4627.7246 4781.6972 4602.2495 4827.5223 4569.363 4869.7577 4591.4363 4864.6766 4599.76 4817.1672 4604.2514 Z" fill="none" stroke="#865327" opacity="0.6" stroke-width="1" class="rockaway_beach"/>
<path d="M 5606.7515 4548.8725 5076.6295 4635.2878 4710.5941 4744.1839 4535.4235 4796.2593 4088.7113 5004.8673 4056.127 4918.0599 5010.3971 4467.3579 5070.1388 4635.3036 5606.7515 4548.8725 Z" fill="none" stroke="#865327" opacity="0.6" stroke-width="1" class="rockaway_beach"/>
<path d="M 4708.9046 4655.2803 4912.1966 4600.1152 4918.1166 4655.0584 4735.3272 4708.9153 4708.9046 4655.2803 Z" fill="none" stroke="#865327" opacity="0.6" stroke-width="1" class="rockaway_beach"/>
<path d="M 4918.1124 4653.2111 4758.7234 4700.2065 4733.5596 4639.2962 4828.9251 4574.9014 4910.5772 4601.5043 4918.1124 4653.2111 Z" fill="none" stroke="#865327" opacity="0.6" stroke-width="1" class="rockaway_beach"/>
<path d="M 4598.318 4709.306 4594.5945 4701.9235 4592.7024 4682.5294 4818.6961 4561.0699 4911.4478 4576.5651 4924.6306 4665.204 4616.0289 4756.3824 4598.318 4709.306 Z" fill="none" stroke="#865327" opacity="0.6" stroke-width="1" class="rockaway_beach"/>
<path d="M 4732.6218 4634.2181 4893.7982 4561.8276 4932.055 4667.9581 4760.6082 4714.5201 4732.6218 4634.2181 Z" fill="none" stroke="#865327" opacity="0.6" stroke-width="1" class="rockaway_beach"/>
<path d="M 5436.2943 4598.3194 3429.4328 5351.1989 3359.8261 5332.7586 3406.1738 5261.5584 3575.8954 5174.5527 3735.3919 5097.7 3797.5258 5078.2286 3916.2425 5057.7623 4061.8123 5005.8285 4073.8327 4978.0923 4103.4901 4960.4954 4144.3024 4960.4369 4287.9868 4906.6285 4537.2679 4790.713 4687.3562 4717.4429 4850.4495 4665.3703 4988.5488 4638.2697 5252.6606 4580.3477 5383.3597 4567.9885 5426.9184 4561.4019 5436.2943 4598.3194 Z" fill="none" stroke="#865327" opacity="0.6" stroke-width="1" class="rockaway_beach"/>
<path d="M 4383.2019 4720.7829 4765.2984 4585.4174 4820.5236 4738.2705 4461.3613 4868.4542 4383.2019 4720.7829 Z" fill="none" stroke="#865327" opacity="0.6" stroke-width="1" class="rockaway_beach"/>
<path d="M 4905.914 4589.508 4923.7117 4668.9008 4607.6953 4762.865 4584.3676 4688.0876 4802.9722 4578.652 4824.245 4554.5929 4905.914 4589.508 Z" fill="none" stroke="#865327" opacity="0.6" stroke-width="1" class="rockaway_beach"/>
<path d="M 4751.3099 4702.5314 4536.3406 4790.7147 4502.5901 4592.1815 4504.4445 4592.1781 4508.1379 4583.8589 4597.3299 4677.902 4560.2774 4698.2944 4616.8171 4685.2536 4751.3099 4702.5314 Z" fill="none" stroke="#865327" opacity="0.6" stroke-width="1" class="rockaway_beach"/>
<path d="M 4676.1362 4671.7422 4779.3891 4606.8725 4791.9044 4605.9222 4794.5443 4647.9421 4819.3381 4643.2704 4822.887 4676.2839 4701.9718 4722.4936 4676.1362 4671.7422 Z" fill="none" stroke="#865327" opacity="0.6" stroke-width="1" class="rockaway_beach"/>
<path d="M 4672.1971 4672.6739 4798.5988 4592.9772 4807.2884 4645.3747 4776.9374 4653.0599 4791.8244 4676.8128 4794.3961 4686.9679 4695.0202 4724.1244 4672.1971 4672.6739 Z" fill="none" stroke="#865327" opacity="0.6" stroke-width="1" class="rockaway_beach"/>
<path d="M 4511.1919 4723.4679 4831.855 4569.8005 4891.8793 4679.1426 4855.746 4689.6923 4762.131 4709.2923 4678.8323 4746.2975 4550.0344 4801.0522 4511.1919 4723.4679 Z" fill="none" stroke="#865327" opacity="0.6" stroke-width="1" class="rockaway_beach"/>
<path d="M 4919.5149 4658.2881 4609.0729 4755.9341 4587.6317 4697.7802 4619.5908 4681.0916 4620.4928 4668.1582 4680.2603 4647.7185 4824.2571 4560.1343 4908.6642 4575.6478 4919.5149 4658.2881 Z" fill="none" stroke="#865327" opacity="0.6" stroke-width="1" class="rockaway_beach"/>
<path d="M 4208.8527 4864.2536 4212.89 4850.9669 4235.9417 4839.0368 4235.9205 4825.4102 4360.9587 4728.2105 4550.119 4720.4828 4702.0628 4653.6779 4811.3627 4599.8768 4850.4719 4675.5308 4813.433 4699.6278 4238.8768 4937.1956 4208.8527 4864.2536 Z" fill="none" stroke="#865327" opacity="0.6" stroke-width="1" class="rockaway_beach"/>
<path d="M 4823.8216 4573.0654 4838.9448 4598.8932 4845.701 4614.349 4847.3826 4641.1309 4855.0853 4665.1292 4861.6263 4687.7451 4718.6731 4727.078 4693.9574 4657.62 4823.8216 4573.0654 Z" fill="none" stroke="#865327" opacity="0.6" stroke-width="1" class="rockaway_beach"/>
<path d="M 4732.6336 4639.8754 4905.4796 4602.4395 4912.0842 4652.763 4764.2706 4692.3433 4732.6336 4639.8754 Z" fill="none" stroke="#865327" opacity="0.6" stroke-width="1" class="rockaway_beach"/>
<path d="M 4667.7972 4674.9919 4669.4794 4655.2163 4811.1994 4585.648 4822.5786 4702.0041 4693.7367 4728.1397 4667.7972 4674.9919 Z" fill="none" stroke="#865327" opacity="0.6" stroke-width="1" class="rockaway_beach"/></svg>