<?xml version="1.0"?><svg xmlns="http://www.w3.org/2000/svg" version="1.2" baseProfile="tiny" width="6000" height="5918" viewBox="0 0 6000 5918" stroke-linecap="round" stroke-linejoin="round"><path d="M 409.6659 5083.2527 543.3137 5056.7778 707.744 5375.0779 570.2605 5437.6281 383.6007 5488.0218 266.9323 5386.0343 162.3843 5272.0611 247.3503 5072.67 409.6659 5083.2527 Z" fill="none" stroke="#012394" opacity="0.6" stroke-width="1" class="rossville"/>
<path d="M 519.557 5295.1582 416.0789 5302.7636 373.7124 5177.4237 456.7121 5096.9989 519.557 5295.1582 Z" fill="none" stroke="#012394" opacity="0.6" stroke-width="1" class="rossville"/>
<path d="M 400.6216 5268.7579 374.3814 5188.0534 467.9888 5133.0668 501.3568 5242.663 400.6216 5268.7579 Z" fill="none" stroke="#012394" opacity="0.6" stroke-width="1" class="rossville"/>
<path d="M 488.4492 5112.0924 546.472 5292.4488 318.9535 5364.9097 200.2587 5334.0923 111.2356 5313.512 131.9527 5204.5078 222.1272 5138.2141 284.3744 5104.1868 490.3201 5105.6282 488.4492 5112.0924 Z" fill="none" stroke="#012394" opacity="0.6" stroke-width="1" class="rossville"/>
<path d="M 372.3184 5178.3443 455.0813 5099.9982 516.7624 5299.773 411.9046 5302.2911 372.3184 5178.3443 Z" fill="none" stroke="#012394" opacity="0.6" stroke-width="1" class="rossville"/>
<path d="M 386.8257 5220.2007 511.4575 5189.5449 575.5425 5360.6849 420.7406 5481.1809 386.8257 5220.2007 Z" fill="none" stroke="#012394" opacity="0.6" stroke-width="1" class="rossville"/>
<path d="M 380.6753 5175.5929 486.5871 5114.8603 538.1103 5297.0506 410.9698 5305.0617 380.6753 5175.5929 Z" fill="none" stroke="#012394" opacity="0.6" stroke-width="1" class="rossville"/>
<path d="M 450.4978 5099.5111 517.7078 5292.381 411.2015 5295.8526 367.112 5177.5165 450.4978 5099.5111 Z" fill="none" stroke="#012394" opacity="0.6" stroke-width="1" class="rossville"/>
<path d="M 519.5833 5284.0669 412.8279 5304.142 368.6144 5175.5624 450.4541 5095.3664 519.5833 5284.0669 Z" fill="none" stroke="#012394" opacity="0.6" stroke-width="1" class="rossville"/>
<path d="M 468.9495 5119.4382 564.5808 5086.3977 647.6045 5295.4532 538.9034 5354.3602 514.933 5288.6772 468.9495 5119.4382 Z" fill="none" stroke="#012394" opacity="0.6" stroke-width="1" class="rossville"/>
<path d="M 387.9532 5199.4367 471.7183 5114.2782 558.4302 5078.4779 675.0124 5391.693 420.4459 5484.7505 366.6907 5455.9577 351.9363 5418.9431 346.2595 5339.8247 353.5137 5299.8843 363.8166 5262.0152 387.9532 5199.4367 Z" fill="none" stroke="#012394" opacity="0.6" stroke-width="1" class="rossville"/>
<path d="M 569.2128 5089.1807 635.6044 5267.6981 415.6161 5302.3003 406.6296 5184.8997 390.9201 5159.9078 569.2128 5089.1807 Z" fill="none" stroke="#012394" opacity="0.6" stroke-width="1" class="rossville"/>
<path d="M 413.0656 5301.8318 404.9552 5298.3456 402.9359 5177.9591 482.1939 5109.305 519.2981 5208.7406 469.1529 5226.8735 474.5476 5298.0543 413.0656 5301.8318 Z" fill="none" stroke="#012394" opacity="0.6" stroke-width="1" class="rossville"/>
<path d="M 490.8428 5081.141 549.2449 5297.0767 412.7911 5318.9308 374.8164 5107.6538 490.8428 5081.141 Z" fill="none" stroke="#012394" opacity="0.6" stroke-width="1" class="rossville"/>
<path d="M 474.3168 5201.7013 472.6937 5201.4663 470.6079 5200.7681 466.4463 5195.2129 444.535 5097.4312 471.1153 5087.0999 483.3468 5112.0801 524.1562 5263.1662 488.5397 5267.3559 488.3039 5268.9728 474.3168 5201.7013 Z" fill="none" stroke="#012394" opacity="0.6" stroke-width="1" class="rossville"/>
<path d="M 392.9118 5290.6901 385.2165 5214.4204 466.3944 5121.0493 514.0062 5288.2129 392.9118 5290.6901 Z" fill="none" stroke="#012394" opacity="0.6" stroke-width="1" class="rossville"/>
<path d="M 556.9934 5356.4823 536.3538 5353.4298 544.2781 5337.7347 560.5264 5333.6132 556.9934 5356.4823 Z" fill="none" stroke="#012394" opacity="0.6" stroke-width="1" class="rossville"/>
<path d="M 542.5913 5364.5367 531.4254 5377.4515 510.0361 5396.8127 546.3248 5355.3019 546.8591 5325.2624 542.2771 5300.7576 535.3245 5297.9683 536.2708 5290.1141 531.6729 5272.5421 535.387 5271.3955 534.8082 5270.932 547.46 5266.8025 568.9345 5259.112 578.6804 5257.6326 631.0006 5251.9754 645.7653 5288.0549 651.2025 5346.2985 665.992 5372.2131 548.0205 5423.71 542.5913 5364.5367 Z" fill="none" stroke="#012394" opacity="0.6" stroke-width="1" class="rossville"/></svg>