<?xml version="1.0"?><svg xmlns="http://www.w3.org/2000/svg" version="1.2" baseProfile="tiny" width="6000" height="5918" viewBox="0 0 6000 5918" stroke-linecap="round" stroke-linejoin="round"><path d="M 3929.9844 4917.2996 3962.4473 4917.2591 3993.0551 4917.2199 4002.3652 4944.0018 3908.7287 4981.078 3895.6941 4940.4394 3929.9844 4917.2996 Z" fill="none" stroke="#865327" opacity="0.6" stroke-width="1" class="roxbury"/>
<path d="M 3985.641 4921.8491 4003.2915 4943.0767 3905.4772 4976.924 3901.7569 4968.6127 3892.4593 4950.1447 3903.1044 4932.1151 3913.7659 4927.9445 3921.6419 4921.4675 3939.2584 4916.3642 3959.6653 4917.7246 3985.641 4921.8491 Z" fill="none" stroke="#865327" opacity="0.6" stroke-width="1" class="roxbury"/>
<path d="M 3896.6327 4949.6777 3890.1224 4934.9024 3920.7014 4910.8436 3989.3415 4914.453 3996.794 4939.3894 3904.0886 4979.2356 3888.2629 4931.2089 3896.6327 4949.6777 Z" fill="none" stroke="#865327" opacity="0.6" stroke-width="1" class="roxbury"/>
<path d="M 3900.7156 4946.4677 3889.9014 4940.6066 3930.5624 4915.9223 3986.6833 4920.9331 4000.1605 4942.628 3909.3034 4976.9286 3900.7156 4946.4677 Z" fill="none" stroke="#865327" opacity="0.6" stroke-width="1" class="roxbury"/>
<path d="M 3611.466 5008.6481 3721.3432 4965.5782 3773.4261 5096.7362 3676.9895 5141.1914 3611.466 5008.6481 Z" fill="none" stroke="#865327" opacity="0.6" stroke-width="1" class="roxbury"/>
<path d="M 3494.2118 5121.9431 3554.3382 4912.1437 4019.4757 5257.2478 3503.543 5191.247 3494.2118 5121.9431 Z" fill="none" stroke="#865327" opacity="0.6" stroke-width="1" class="roxbury"/>
<path d="M 3929.9844 4917.2996 3964.7672 4918.1801 3990.2756 4919.5333 4002.364 4943.0779 3906.9071 4976.8453 3894.9616 4941.9417 3929.9844 4917.2996 Z" fill="none" stroke="#865327" opacity="0.6" stroke-width="1" class="roxbury"/>
<path d="M 4021.8275 4931.9693 3875.3372 4982.0461 3927.203 4918.2313 4021.8275 4931.9693 Z" fill="none" stroke="#865327" opacity="0.6" stroke-width="1" class="roxbury"/>
<path d="M 3889.2146 4951.5345 3927.1996 4915.4552 4004.1876 4919.0533 4025.5413 4934.7318 3903.1644 4982.0087 3889.2146 4951.5345 Z" fill="none" stroke="#865327" opacity="0.6" stroke-width="1" class="roxbury"/></svg>