<?xml version="1.0"?><svg xmlns="http://www.w3.org/2000/svg" version="1.2" baseProfile="tiny" width="6000" height="5918" viewBox="0 0 6000 5918" stroke-linecap="round" stroke-linejoin="round"><path d="M 2086.4566 4250.706 2088.31 4251.169 2091.7805 4258.4422 2096.1812 4261.2152 2104.0503 4274.3776 2106.1332 4278.0722 2109.2533 4289.8465 2110.4081 4295.3872 2117.0062 4304.1633 2123.7236 4308.2074 2126.7308 4315.9423 2144.5553 4344.4626 2143.0484 4345.5004 2132.269 4350.8026 2125.5456 4355.2995 2120.7925 4358.7589 2110.0157 4360.0212 2106.1913 4360.9419 2102.9454 4363.1326 2106.4171 4369.5988 2103.2922 4364.4025 2098.2002 4355.396 2093.5709 4347.6595 2089.6377 4338.7694 2082.9256 4327.3381 2077.9496 4318.6782 2071.1218 4307.4778 2066.4938 4298.5874 2060.0134 4287.9645 2055.5007 4280.113 2052.2614 4273.6475 2056.0871 4270.6497 2061.9987 4266.8455 2069.7649 4261.8886 2074.5172 4259.1222 2081.5894 4252.3182 2086.4566 4250.706 Z" fill="none" stroke="#012394" opacity="0.6" stroke-width="1" class="shore_acres"/>
<path d="M 2131.9227 4348.8402 2021.5718 4404.1635 1940.0443 4347.7689 2101.4033 4249.1009 2131.9227 4348.8402 Z" fill="none" stroke="#012394" opacity="0.6" stroke-width="1" class="shore_acres"/>
<path d="M 2137.0231 4345.6118 2104.5618 4371.4442 2060.5109 4397.7294 2028.9814 4412.4801 1992.3771 4396.7527 1940.9471 4375.471 1946.9972 4346.8516 1974.3616 4323.791 2005.4308 4302.5798 2028.6146 4288.2868 2054.5794 4272.6105 2072.1999 4259.236 2082.8639 4252.3191 2096.7576 4265.255 2103.2334 4282.8021 2103.6972 4282.3408 2126.386 4311.9025 2137.0231 4345.6118 Z" fill="none" stroke="#012394" opacity="0.6" stroke-width="1" class="shore_acres"/>
<path d="M 2098.3155 4356.2041 2037.1477 4341.1542 2057.5824 4285.0773 2109.2447 4302.1959 2127.5276 4337.0644 2109.1941 4375.141 2098.3117 4361.5135 2098.3155 4356.2041 Z" fill="none" stroke="#012394" opacity="0.6" stroke-width="1" class="shore_acres"/>
<path d="M 2027.2369 4272.1279 2078.2353 4244.468 2147.6864 4340.5404 1939.8888 4525.995 1827.8401 4391.0635 2027.2369 4272.1279 Z" fill="none" stroke="#012394" opacity="0.6" stroke-width="1" class="shore_acres"/>
<path d="M 2148.6079 4348.8512 2105.9532 4370.0601 2089.9831 4341.7705 2127.3066 4321.2519 2148.6079 4348.8512 Z" fill="none" stroke="#012394" opacity="0.6" stroke-width="1" class="shore_acres"/>
<path d="M 2035.4683 4415.2554 2015.5429 4408.3141 1985.4288 4391.6683 1940.0205 4375.0085 1942.8231 4350.0797 1977.6066 4322.8703 2033.2516 4285.0588 2085.1797 4254.1674 2098.1414 4274.4889 2117.1285 4294.8148 2125.4544 4318.8269 2142.1235 4342.3834 2105.951 4373.292 2080.9123 4387.5869 2057.2664 4397.727 2035.4683 4415.2554 Z" fill="none" stroke="#012394" opacity="0.6" stroke-width="1" class="shore_acres"/>
<path d="M 2146.7552 4347.0033 2105.0269 4369.1361 2050.4095 4271.2224 2085.6415 4256.4759 2146.7552 4347.0033 Z" fill="none" stroke="#012394" opacity="0.6" stroke-width="1" class="shore_acres"/>
<path d="M 2128.4659 4320.2139 2145.1336 4346.0789 2107.344 4369.5994 2089.2883 4341.1929 2128.4659 4320.2139 Z" fill="none" stroke="#012394" opacity="0.6" stroke-width="1" class="shore_acres"/></svg>