<?xml version="1.0"?><svg xmlns="http://www.w3.org/2000/svg" version="1.2" baseProfile="tiny" width="6000" height="5918" viewBox="0 0 6000 5918" stroke-linecap="round" stroke-linejoin="round"><path d="M 2796.495 2732.6854 2789.0921 2731.7638 2716.9149 2701.344 2751.1536 2622.0761 2759.481 2623.9196 2814.0731 2655.2565 2805.7467 2685.6744 2796.495 2732.6854 Z" fill="none" stroke="#012394" opacity="0.49019607843137253" stroke-width="1" class="soho"/>
<path d="M 2738.6616 2658.0226 2805.7471 2694.4311 2759.2487 2760.3403 2712.5179 2729.919 2738.6616 2658.0226 Z" fill="none" stroke="#012394" opacity="0.49019607843137253" stroke-width="1" class="soho"/>
<path d="M 2868.6558 2567.6922 2855.7062 2601.7949 2799.2698 2694.8922 2732.6473 2653.4138 2793.7127 2524.3813 2877.9077 2565.8479 2788.1628 2569.5409 2868.6563 2572.3004 2868.6558 2567.6922 Z" fill="none" stroke="#012394" opacity="0.49019607843137253" stroke-width="1" class="soho"/>
<path d="M 2736.3485 2653.8747 2800.1952 2695.814 2844.6126 2712.8641 2807.6036 2825.3305 2775.2123 2810.5813 2648.4415 2687.5115 2653.9984 2646.034 2653.0734 2643.7296 2736.3485 2653.8747 Z" fill="none" stroke="#012394" opacity="0.49019607843137253" stroke-width="1" class="soho"/>
<path d="M 2875.1331 2575.0646 2762.2562 2776.9334 2665.0967 2693.9657 2783.0767 2709.1801 2669.7256 2671.8441 2686.3981 2470.0056 2875.1331 2575.0646 Z" fill="none" stroke="#012394" opacity="0.49019607843137253" stroke-width="1" class="soho"/>
<path d="M 2705.8081 2743.7457 2734.0352 2654.566 2799.5012 2696.5053 2744.6733 2781.3119 2705.8081 2743.7457 Z" fill="none" stroke="#012394" opacity="0.49019607843137253" stroke-width="1" class="soho"/>
<path d="M 2737.7364 2654.7965 2801.5831 2694.2008 2815.2321 2701.3439 2807.5986 2713.0969 2789.0925 2749.5087 2774.2865 2767.4845 2713.212 2728.5364 2737.7364 2654.7965 Z" fill="none" stroke="#012394" opacity="0.49019607843137253" stroke-width="1" class="soho"/>
<path d="M 2734.9605 2654.7964 2815.4633 2699.0395 2801.5842 2723.4673 2793.2568 2752.9654 2766.4206 2801.8235 2706.2708 2744.6676 2734.9605 2654.7964 Z" fill="none" stroke="#012394" opacity="0.49019607843137253" stroke-width="1" class="soho"/>
<path d="M 2734.6135 2654.7964 2814.8851 2701.5744 2759.5956 2793.5267 2709.0468 2746.6266 2734.7292 2654.2203 2734.6135 2654.7964 Z" fill="none" stroke="#012394" opacity="0.49019607843137253" stroke-width="1" class="soho"/>
<path d="M 2735.4231 2654.7964 2801.5832 2695.8139 2816.8514 2699.9612 2791.8688 2754.3481 2765.0324 2800.9017 2708.1215 2745.1286 2735.4231 2654.7964 Z" fill="none" stroke="#012394" opacity="0.49019607843137253" stroke-width="1" class="soho"/>
<path d="M 2645.6657 2686.5894 2653.0806 2583.3592 2660.4811 2594.42 2663.2719 2455.2587 2858.4788 2570.4582 2857.5578 2613.7765 2740.0463 2776.9331 2645.6657 2686.5894 Z" fill="none" stroke="#012394" opacity="0.49019607843137253" stroke-width="1" class="soho"/>
<path d="M 2693.3137 2767.2513 2761.3307 2801.3626 2691.4719 2652.0289 2814.5379 2696.2742 2693.3137 2767.2513 Z" fill="none" stroke="#012394" opacity="0.49019607843137253" stroke-width="1" class="soho"/>
<path d="M 2800.1952 2695.814 2746.0614 2780.6206 2678.9744 2718.855 2647.5162 2687.9723 2650.7602 2643.2685 2732.1847 2653.8746 2800.1952 2695.814 Z" fill="none" stroke="#012394" opacity="0.49019607843137253" stroke-width="1" class="soho"/>
<path d="M 2738.199 2654.3357 2817.0828 2702.2656 2760.4053 2793.0658 2710.4348 2747.4333 2738.199 2654.3357 Z" fill="none" stroke="#012394" opacity="0.49019607843137253" stroke-width="1" class="soho"/>
<path d="M 2735.1918 2654.1051 2735.5388 2655.4877 2781.2257 2684.9838 2798.8072 2696.0445 2815.2321 2701.2287 2800.5432 2723.9282 2790.4809 2760.6857 2765.4952 2800.3255 2709.7408 2748.0093 2648.4413 2689.4702 2652.3795 2643.2686 2735.1918 2654.1051 Z" fill="none" stroke="#012394" opacity="0.49019607843137253" stroke-width="1" class="soho"/>
<path d="M 2734.9605 2653.8747 2795.5684 2692.5879 2815.0007 2699.5004 2835.8181 2664.0116 2801.5842 2723.0064 2791.8688 2754.3481 2767.346 2800.9017 2708.1214 2746.9722 2706.7338 2740.0585 2714.1378 2720.7012 2734.9605 2653.8747 Z" fill="none" stroke="#012394" opacity="0.49019607843137253" stroke-width="1" class="soho"/>
<path d="M 2732.6473 2652.492 2800.6578 2695.3531 2815.4634 2699.5003 2844.6127 2713.7859 2808.0663 2824.4086 2776.1378 2808.2766 2647.9789 2687.5114 2647.0594 2640.9637 2732.6473 2652.492 Z" fill="none" stroke="#012394" opacity="0.49019607843137253" stroke-width="1" class="soho"/>
<path d="M 2735.4231 2655.7182 2845.0753 2713.325 2810.3799 2823.0257 2705.808 2745.5893 2735.4231 2655.7182 Z" fill="none" stroke="#012394" opacity="0.49019607843137253" stroke-width="1" class="soho"/>
<path d="M 2736.8111 2653.4139 2813.6127 2700.4222 2775.6747 2772.3241 2696.5555 2727.6135 2709.0525 2651.5692 2736.8111 2653.4139 Z" fill="none" stroke="#012394" opacity="0.49019607843137253" stroke-width="1" class="soho"/>
<path d="M 2706.7337 2741.4413 2713.2124 2721.8534 2735.4232 2654.566 2797.6504 2694.201 2809.4486 2698.8093 2752.3079 2787.765 2709.5094 2747.4332 2706.7337 2741.4413 Z" fill="none" stroke="#012394" opacity="0.49019607843137253" stroke-width="1" class="soho"/>
<path d="M 2651.6855 2643.2686 2734.4979 2654.3356 2916.332 2742.8138 2850.1763 2842.3828 2773.3614 2809.6594 2646.1285 2685.6677 2651.6855 2643.2686 Z" fill="none" stroke="#012394" opacity="0.49019607843137253" stroke-width="1" class="soho"/>
<path d="M 2712.2872 2719.3184 2748.1457 2664.7054 2818.7023 2704.3395 2799.0408 2760.3398 2798.5781 2759.8789 2712.2872 2719.3184 Z" fill="none" stroke="#012394" opacity="0.49019607843137253" stroke-width="1" class="soho"/>
<path d="M 2814.7694 2701.1135 2776.8314 2769.5586 2748.6063 2783.3862 2716.4496 2752.0427 2734.0329 2724.6197 2767.1145 2675.3055 2768.0398 2674.8447 2814.7694 2701.1135 Z" fill="none" stroke="#012394" opacity="0.49019607843137253" stroke-width="1" class="soho"/>
<path d="M 2848.3142 2715.1682 2821.4836 2792.6032 2767.8087 2767.715 2810.3739 2696.7353 2848.3142 2715.1682 Z" fill="none" stroke="#012394" opacity="0.49019607843137253" stroke-width="1" class="soho"/>
<path d="M 2734.4979 2654.7964 2809.4487 2699.7311 2751.6138 2786.9584 2704.8828 2742.8238 2734.4979 2654.7964 Z" fill="none" stroke="#012394" opacity="0.49019607843137253" stroke-width="1" class="soho"/>
<path d="M 2740.9749 2656.1792 2797.419 2690.7444 2746.9869 2777.3941 2706.271 2741.9021 2740.9749 2656.1792 Z" fill="none" stroke="#012394" opacity="0.49019607843137253" stroke-width="1" class="soho"/>
<path d="M 2796.0326 2739.8294 2759.4799 2794.2181 2697.2489 2736.1402 2707.6646 2650.417 2735.6545 2654.1052 2798.8072 2695.5836 2815.0007 2699.7308 2801.3528 2722.5455 2796.0326 2739.8294 Z" fill="none" stroke="#012394" opacity="0.49019607843137253" stroke-width="1" class="soho"/>
<path d="M 2818.2393 2698.5784 2806.2109 2721.1626 2795.1075 2750.1998 2764.5697 2806.8938 2710.4331 2776.4709 2704.8827 2744.2066 2714.6005 2719.7794 2740.5124 2651.1097 2818.2393 2698.5784 Z" fill="none" stroke="#012394" opacity="0.49019607843137253" stroke-width="1" class="soho"/>
<path d="M 2736.3483 2657.7921 2815.6947 2699.0395 2765.4952 2799.9798 2707.89 2747.2026 2736.3483 2657.7921 Z" fill="none" stroke="#012394" opacity="0.49019607843137253" stroke-width="1" class="soho"/>
<path d="M 2809.4487 2699.7311 2814.3068 2701.1135 2801.3528 2722.5455 2791.1749 2759.8791 2765.9579 2800.9017 2715.9868 2753.4254 2732.6448 2725.7719 2765.9578 2673.4621 2809.4487 2699.7311 Z" fill="none" stroke="#012394" opacity="0.49019607843137253" stroke-width="1" class="soho"/>
<path d="M 2708.1214 2746.9722 2736.1171 2656.4095 2813.3814 2700.8831 2759.0172 2792.8353 2708.1214 2746.9722 Z" fill="none" stroke="#012394" opacity="0.49019607843137253" stroke-width="1" class="soho"/>
<path d="M 2691.0104 2638.2031 2739.5869 2656.1792 2821.0154 2699.9609 2791.8687 2751.5827 2767.8088 2800.9016 2678.5118 2717.9332 2691.0104 2638.2031 Z" fill="none" stroke="#012394" opacity="0.49019607843137253" stroke-width="1" class="soho"/>
<path d="M 2767.346 2801.3626 2650.0603 2691.89 2654.6923 2646.2645 2670.4222 2645.8054 2737.505 2657.5617 2805.5159 2697.6573 2817.5456 2702.9569 2767.346 2801.3626 Z" fill="none" stroke="#012394" opacity="0.49019607843137253" stroke-width="1" class="soho"/>
<path d="M 2799.2698 2696.2749 2766.4206 2746.974 2715.7576 2713.0965 2733.8039 2655.4877 2735.4231 2655.4877 2799.2698 2696.2749 Z" fill="none" stroke="#012394" opacity="0.49019607843137253" stroke-width="1" class="soho"/>
<path d="M 2843.6871 2711.4815 2812.6936 2823.9474 2765.0324 2803.6673 2733.1052 2793.0653 2797.8819 2697.6576 2843.6871 2711.4815 Z" fill="none" stroke="#012394" opacity="0.49019607843137253" stroke-width="1" class="soho"/>
<path d="M 2766.8833 2797.6751 2705.8082 2743.2848 2734.9604 2657.1007 2812.6874 2701.344 2800.196 2717.9366 2792.3313 2748.3563 2766.8833 2797.6751 Z" fill="none" stroke="#012394" opacity="0.49019607843137253" stroke-width="1" class="soho"/>
<path d="M 2737.2738 2653.4139 2800.1952 2695.814 2754.8531 2763.1058 2719.6892 2736.372 2702.1049 2769.5566 2685.4483 2761.2588 2680.8226 2746.5092 2641.9579 2736.3651 2650.2976 2643.2684 2737.2738 2653.4139 Z" fill="none" stroke="#012394" opacity="0.49019607843137253" stroke-width="1" class="soho"/>
<path d="M 2801.1205 2695.8139 2799.2699 2696.7358 2803.4338 2694.8921 2813.6128 2701.8049 2789.5552 2748.3564 2754.8527 2799.0579 2711.3586 2775.5491 2706.7334 2746.0503 2733.5726 2653.8747 2801.1205 2695.8139 Z" fill="none" stroke="#012394" opacity="0.49019607843137253" stroke-width="1" class="soho"/>
<path d="M 2728.0186 2711.484 2820.5551 2740.0588 2775.2124 2816.5735 2701.1783 2787.0716 2728.0186 2711.484 Z" fill="none" stroke="#012394" opacity="0.49019607843137253" stroke-width="1" class="soho"/>
<path d="M 2759.4799 2794.4486 2697.7117 2735.2185 2706.7393 2650.1865 2815.6947 2700.4221 2759.4799 2794.4486 Z" fill="none" stroke="#012394" opacity="0.49019607843137253" stroke-width="1" class="soho"/>
<path d="M 2731.7221 2651.5703 2801.1204 2693.9704 2741.897 2781.5423 2709.5096 2744.6678 2731.7221 2651.5703 Z" fill="none" stroke="#012394" opacity="0.49019607843137253" stroke-width="1" class="soho"/>
<path d="M 2740.9716 2782.4642 2680.8254 2716.0899 2770.5839 2579.6792 2841.8287 2615.6213 2864.0361 2628.523 2764.107 2797.2142 2740.9716 2782.4642 Z" fill="none" stroke="#012394" opacity="0.49019607843137253" stroke-width="1" class="soho"/>
<path d="M 2735.6545 2654.1052 2736.3484 2655.603 2738.0833 2656.7552 2815.8104 2700.9982 2775.4433 2772.5546 2709.7419 2729.1123 2735.6545 2654.1052 Z" fill="none" stroke="#012394" opacity="0.49019607843137253" stroke-width="1" class="soho"/>
<path d="M 2737.2736 2658.9443 2845.5387 2722.0819 2809.4544 2822.1038 2709.5097 2743.285 2737.2736 2658.9443 Z" fill="none" stroke="#012394" opacity="0.49019607843137253" stroke-width="1" class="soho"/>
<path d="M 2799.2639 2528.9891 2806.6652 2528.9888 2898.2653 2587.9648 2798.3468 2763.1053 2796.9584 2752.0434 2719.6905 2709.1792 2734.0343 2680.6051 2799.2639 2528.9891 Z" fill="none" stroke="#012394" opacity="0.49019607843137253" stroke-width="1" class="soho"/>
<path d="M 2815.9261 2700.1916 2801.8156 2723.5825 2791.1749 2760.34 2766.3049 2800.6712 2708.3528 2746.6265 2707.0807 2741.4413 2736.0015 2654.7965 2815.9261 2700.1916 Z" fill="none" stroke="#012394" opacity="0.49019607843137253" stroke-width="1" class="soho"/>
<path d="M 2735.1918 2656.6399 2812.2248 2702.7267 2842.5307 2714.2469 2831.1978 2753.1939 2821.4835 2792.1423 2710.4359 2728.7667 2736.5796 2661.2486 2735.1918 2656.6399 Z" fill="none" stroke="#012394" opacity="0.49019607843137253" stroke-width="1" class="soho"/>
<path d="M 2740.0497 2650.6488 2819.6272 2696.7348 2785.3922 2806.4327 2713.2117 2734.5281 2740.0497 2650.6488 Z" fill="none" stroke="#012394" opacity="0.49019607843137253" stroke-width="1" class="soho"/>
<path d="M 2808.5291 2826.2524 2779.6082 2812.8859 2745.3673 2781.312 2767.8086 2747.6653 2785.8538 2757.8051 2787.0104 2749.5087 2830.0422 2769.0956 2822.6405 2794.6773 2808.5291 2826.2524 Z" fill="none" stroke="#012394" opacity="0.49019607843137253" stroke-width="1" class="soho"/>
<path d="M 2736.3483 2658.4834 2840.9113 2714.708 2806.6781 2823.4868 2763.6443 2800.9017 2677.1234 2721.6202 2691.4721 2650.6463 2736.3483 2658.4834 Z" fill="none" stroke="#012394" opacity="0.49019607843137253" stroke-width="1" class="soho"/>
<path d="M 2735.4231 2655.2573 2815.0008 2702.2657 2765.0324 2801.8235 2705.8081 2743.7457 2735.4231 2655.2573 Z" fill="none" stroke="#012394" opacity="0.49019607843137253" stroke-width="1" class="soho"/>
<path d="M 2708.3586 2650.8779 2734.3822 2653.2986 2815.8104 2699.6155 2796.6109 2739.0228 2759.5955 2795.2552 2697.4803 2735.6793 2708.3586 2650.8779 Z" fill="none" stroke="#012394" opacity="0.49019607843137253" stroke-width="1" class="soho"/>
<path d="M 2759.0172 2793.5267 2715.2928 2753.6558 2765.4952 2675.536 2808.986 2700.4224 2786.7787 2734.0684 2795.8012 2738.9076 2759.0172 2793.5267 Z" fill="none" stroke="#012394" opacity="0.49019607843137253" stroke-width="1" class="soho"/>
<path d="M 2735.4231 2656.179 2739.5869 2657.5618 2799.7325 2696.2749 2814.0754 2700.8831 2800.1961 2720.2411 2795.1072 2738.2163 2759.0172 2792.6049 2752.0765 2786.6127 2709.5096 2745.1287 2707.1964 2740.5195 2735.4231 2656.179 Z" fill="none" stroke="#012394" opacity="0.49019607843137253" stroke-width="1" class="soho"/>
<path d="M 2708.5899 2649.9562 2816.3887 2699.7307 2760.4053 2795.8314 2694.9356 2734.7573 2708.5899 2649.9562 Z" fill="none" stroke="#012394" opacity="0.49019607843137253" stroke-width="1" class="soho"/>
<path d="M 2707.8901 2746.2808 2706.965 2741.9022 2723.1614 2691.6657 2735.1918 2655.2573 2800.1952 2696.0444 2744.4419 2781.3119 2707.8901 2746.2808 Z" fill="none" stroke="#012394" opacity="0.49019607843137253" stroke-width="1" class="soho"/>
<path d="M 2844.8441 2714.9381 2826.688 2775.7791 2821.8307 2793.6403 2807.9507 2825.7914 2793.0274 2819.5692 2778.1044 2811.5031 2745.483 2780.6206 2756.3569 2762.7601 2799.7325 2695.9292 2813.9597 2700.1918 2844.8441 2714.9381 Z" fill="none" stroke="#012394" opacity="0.49019607843137253" stroke-width="1" class="soho"/>
<path d="M 2734.7292 2653.6443 2817.0828 2701.1134 2766.4206 2801.5931 2706.7333 2747.2026 2734.7292 2653.6443 Z" fill="none" stroke="#012394" opacity="0.49019607843137253" stroke-width="1" class="soho"/>
<path d="M 2750.9216 2666.4337 2751.9626 2667.5859 2766.3048 2676.3425 2783.4233 2686.712 2800.3109 2696.8509 2814.7694 2701.2287 2796.9579 2738.7924 2784.6971 2756.5376 2774.8649 2772.6698 2766.8833 2783.0406 2759.2486 2777.74 2750.1103 2772.5545 2741.666 2768.1756 2738.3113 2773.0152 2724.3151 2758.3806 2734.0322 2744.208 2725.01 2737.8702 2734.9582 2724.6197 2719.112 2713.6728 2750.9216 2666.4337 Z" fill="none" stroke="#012394" opacity="0.49019607843137253" stroke-width="1" class="soho"/>
<path d="M 2800.1952 2696.2748 2815.0008 2701.4591 2795.3385 2739.3685 2784.1187 2757.5747 2767.9244 2782.8102 2749.9946 2772.5545 2742.1287 2768.1756 2736.5762 2772.5542 2724.3151 2758.7263 2735.0733 2743.6319 2725.8197 2738.4464 2732.7605 2726.1176 2727.5556 2719.5496 2735.9999 2703.8796 2729.6384 2697.6575 2748.8397 2665.051 2750.2277 2665.3967 2751.6156 2665.3967 2764.9168 2676.5729 2782.151 2687.4034 2800.1952 2696.2748 Z" fill="none" stroke="#012394" opacity="0.49019607843137253" stroke-width="1" class="soho"/>
<path d="M 2734.9605 2653.6443 2800.7735 2694.777 2815.8104 2700.4221 2801.4685 2722.8912 2790.7122 2760.2248 2766.652 2800.3255 2696.0923 2734.7574 2647.7474 2688.894 2652.9577 2643.8448 2734.9605 2653.6443 Z" fill="none" stroke="#012394" opacity="0.49019607843137253" stroke-width="1" class="soho"/>
<path d="M 2706.2768 2648.8039 2733.11 2651.1095 2771.5091 2580.1401 2848.7684 2619.3075 2743.2852 2777.855 2697.0177 2734.527 2706.2768 2648.8039 Z" fill="none" stroke="#012394" opacity="0.49019607843137253" stroke-width="1" class="soho"/>
<path d="M 2736.5797 2655.2573 2815.0008 2701.1135 2759.2485 2794.9095 2704.8828 2743.7457 2736.5797 2655.2573 Z" fill="none" stroke="#012394" opacity="0.49019607843137253" stroke-width="1" class="soho"/>
<path d="M 2815.2321 2701.5743 2843.2248 2715.6296 2829.348 2767.0215 2793.0255 2751.3522 2815.2321 2701.5743 Z" fill="none" stroke="#012394" opacity="0.49019607843137253" stroke-width="1" class="soho"/>
<path d="M 2702.1116 2669.0817 2711.8293 2634.9785 2826.1025 2664.934 2821.4773 2686.1345 2816.3893 2710.1007 2810.3755 2729.9195 2797.8837 2750.1998 2786.3165 2757.5747 2778.9135 2765.4103 2765.4952 2776.9334 2751.614 2777.3942 2735.8819 2777.3939 2728.9418 2766.3316 2715.9874 2742.3636 2702.5703 2729.4575 2697.4817 2716.0912 2703.9609 2690.282 2703.9642 2638.6649 2702.1116 2669.0817 Z" fill="none" stroke="#012394" opacity="0.49019607843137253" stroke-width="1" class="soho"/>
<path d="M 2734.4979 2653.8747 2815.0007 2699.9613 2794.6448 2747.4344 2767.346 2801.3626 2706.7335 2744.2067 2734.4979 2653.8747 Z" fill="none" stroke="#012394" opacity="0.49019607843137253" stroke-width="1" class="soho"/>
<path d="M 2735.4232 2653.8747 2799.9638 2694.4313 2815.926 2699.2699 2800.8902 2722.776 2790.0182 2760.5705 2766.1892 2799.7493 2708.5841 2747.2027 2706.9649 2743.2849 2713.4438 2721.6229 2735.4232 2653.8747 Z" fill="none" stroke="#012394" opacity="0.49019607843137253" stroke-width="1" class="soho"/>
<path d="M 2734.4977 2658.0225 2845.0754 2714.2467 2828.8861 2779.2359 2711.3615 2724.3882 2734.4977 2658.0225 Z" fill="none" stroke="#012394" opacity="0.49019607843137253" stroke-width="1" class="soho"/>
<path d="M 2845.538 2713.3249 2827.0344 2765.8693 2803.9018 2825.7916 2702.1068 2740.98 2741.9001 2657.1009 2806.6724 2693.0484 2845.538 2713.3249 Z" fill="none" stroke="#012394" opacity="0.49019607843137253" stroke-width="1" class="soho"/>
<path d="M 2734.4979 2653.8747 2813.8441 2701.5744 2765.7265 2799.9798 2707.8901 2746.7417 2734.4979 2653.8747 Z" fill="none" stroke="#012394" opacity="0.49019607843137253" stroke-width="1" class="soho"/>
<path d="M 2736.3485 2653.4139 2834.4334 2708.7169 2760.405 2854.3714 2681.7411 2824.8668 2736.3485 2653.4139 Z" fill="none" stroke="#012394" opacity="0.49019607843137253" stroke-width="1" class="soho"/>
<path d="M 2796.4937 2693.0488 2738.1951 2788.9171 2675.2691 2759.4142 2687.3086 2646.9591 2796.4937 2693.0488 Z" fill="none" stroke="#012394" opacity="0.49019607843137253" stroke-width="1" class="soho"/>
<path d="M 2650.7603 2642.3467 2735.8858 2654.3356 2798.8071 2694.8922 2743.7479 2781.5424 2645.6658 2685.6676 2650.7603 2642.3467 Z" fill="none" stroke="#012394" opacity="0.49019607843137253" stroke-width="1" class="soho"/>
<path d="M 2735.423 2659.866 2840.9115 2716.5515 2804.827 2819.7993 2779.8395 2808.7374 2710.4351 2742.3633 2735.423 2659.866 Z" fill="none" stroke="#012394" opacity="0.49019607843137253" stroke-width="1" class="soho"/>
<path d="M 2814.7694 2701.1135 2800.4275 2722.776 2790.9436 2760.1096 2714.6009 2712.4051 2735.1919 2652.7226 2814.7694 2701.1135 Z" fill="none" stroke="#012394" opacity="0.49019607843137253" stroke-width="1" class="soho"/>
<path d="M 2737.7363 2656.64 2817.3142 2703.1873 2762.7188 2805.9719 2706.7317 2772.3224 2706.7336 2741.9022 2732.1844 2659.8658 2737.7363 2656.64 Z" fill="none" stroke="#012394" opacity="0.49019607843137253" stroke-width="1" class="soho"/>
<path d="M 2736.3483 2658.4834 2809.9113 2699.5006 2841.8362 2708.2554 2829.8104 2762.6427 2822.4088 2789.3767 2804.3643 2821.1821 2756.2408 2802.2844 2715.9856 2776.9321 2736.3483 2658.4834 Z" fill="none" stroke="#012394" opacity="0.49019607843137253" stroke-width="1" class="soho"/>
<path d="M 2887.6437 2730.8344 2843.9293 2841.4614 2707.196 2746.5112 2736.5797 2656.1791 2887.6437 2730.8344 Z" fill="none" stroke="#012394" opacity="0.49019607843137253" stroke-width="1" class="soho"/>
<path d="M 2745.5987 2779.2378 2705.8081 2744.2066 2693.7788 2736.3704 2705.3513 2652.0298 2729.4087 2654.7962 2796.4938 2695.8141 2745.5987 2779.2378 Z" fill="none" stroke="#012394" opacity="0.49019607843137253" stroke-width="1" class="soho"/>
<path d="M 2732.6472 2657.1007 2846.4634 2713.7857 2809.4544 2823.4866 2703.9574 2743.7456 2732.6472 2657.1007 Z" fill="none" stroke="#012394" opacity="0.49019607843137253" stroke-width="1" class="soho"/>
<path d="M 2707.1961 2745.5894 2765.9578 2675.3055 2814.5382 2703.6484 2768.7342 2792.6049 2707.1961 2745.5894 Z" fill="none" stroke="#012394" opacity="0.49019607843137253" stroke-width="1" class="soho"/>
<path d="M 2744.6733 2779.6987 2700.2566 2733.6055 2737.2736 2660.7877 2794.6434 2702.2665 2744.6733 2779.6987 Z" fill="none" stroke="#012394" opacity="0.49019607843137253" stroke-width="1" class="soho"/>
<path d="M 2735.4232 2654.566 2815.232 2698.5786 2759.9426 2793.5267 2758.7858 2793.2963 2705.808 2745.8198 2735.4232 2654.566 Z" fill="none" stroke="#012394" opacity="0.49019607843137253" stroke-width="1" class="soho"/>
<path d="M 2768.5028 2798.1361 2706.5023 2741.6717 2737.0424 2655.9487 2812.6873 2699.27 2805.9796 2720.4713 2795.8016 2751.5826 2768.5028 2798.1361 Z" fill="none" stroke="#012394" opacity="0.49019607843137253" stroke-width="1" class="soho"/>
<path d="M 2705.808 2745.5893 2734.4979 2653.4138 2799.7325 2694.8922 2815.0006 2697.6568 2803.4347 2716.5538 2797.4206 2737.7553 2794.6448 2749.739 2765.4952 2800.9017 2705.808 2745.5893 Z" fill="none" stroke="#012394" opacity="0.49019607843137253" stroke-width="1" class="soho"/>
<path d="M 2735.6545 2654.3356 2815.2321 2700.1917 2801.1215 2722.7759 2795.3385 2738.6772 2785.1598 2756.8833 2715.7576 2713.7879 2735.6545 2654.3356 Z" fill="none" stroke="#012394" opacity="0.49019607843137253" stroke-width="1" class="soho"/>
<path d="M 2737.2737 2656.1791 2801.1205 2695.8139 2742.8224 2781.5424 2693.779 2732.6832 2707.6648 2647.8822 2737.2737 2656.1791 Z" fill="none" stroke="#012394" opacity="0.49019607843137253" stroke-width="1" class="soho"/>
<path d="M 2814.0755 2702.7266 2767.346 2799.9798 2709.9723 2744.6678 2765.0325 2676.2273 2814.0755 2702.7266 Z" fill="none" stroke="#012394" opacity="0.49019607843137253" stroke-width="1" class="soho"/>
<path d="M 2798.3445 2694.8923 2814.7695 2702.0353 2798.3455 2724.3892 2789.0926 2753.8873 2767.346 2800.4407 2647.0534 2688.894 2645.6708 2646.4938 2658.1625 2642.8085 2739.1243 2657.1009 2798.3445 2694.8923 Z" fill="none" stroke="#012394" opacity="0.49019607843137253" stroke-width="1" class="soho"/>
<path d="M 2760.4053 2794.4486 2703.9574 2742.8238 2734.4979 2653.4138 2816.8513 2698.5785 2760.4053 2794.4486 Z" fill="none" stroke="#012394" opacity="0.49019607843137253" stroke-width="1" class="soho"/>
<path d="M 2735.3075 2654.6812 2808.292 2699.6159 2759.5956 2779.238 2749.9946 2773.3611 2746.2928 2780.9663 2680.247 2716.4355 2689.3903 2648.3418 2735.3075 2654.6812 Z" fill="none" stroke="#012394" opacity="0.49019607843137253" stroke-width="1" class="soho"/>
<path d="M 2734.4977 2658.0225 2803.8964 2693.0485 2847.3886 2712.403 2828.4226 2767.7129 2820.0955 2793.0642 2808.0663 2824.8695 2777.0632 2811.0422 2706.7337 2741.4413 2734.4977 2658.0225 Z" fill="none" stroke="#012394" opacity="0.49019607843137253" stroke-width="1" class="soho"/>
<path d="M 2735.1918 2655.0269 2814.5379 2696.7351 2765.9579 2798.597 2706.7334 2745.5894 2735.1918 2655.0269 Z" fill="none" stroke="#012394" opacity="0.49019607843137253" stroke-width="1" class="soho"/>
<path d="M 2798.3444 2692.127 2827.9559 2706.4129 2847.3897 2725.308 2833.0492 2761.2598 2820.5579 2788.4549 2815.9318 2807.3534 2768.7341 2765.8713 2736.8084 2742.3645 2714.1376 2724.8493 2736.811 2658.4834 2718.7681 2650.648 2766.4205 2666.7794 2798.3444 2692.127 Z" fill="none" stroke="#012394" opacity="0.49019607843137253" stroke-width="1" class="soho"/>
<path d="M 2737.2737 2654.3356 2795.5684 2692.1271 2770.5848 2747.4348 2712.2872 2719.7793 2737.2737 2654.3356 Z" fill="none" stroke="#012394" opacity="0.49019607843137253" stroke-width="1" class="soho"/>
<path d="M 2816.3887 2699.9612 2793.7195 2750.6608 2766.4206 2799.0579 2678.9742 2720.6986 2688.6963 2648.8026 2734.4979 2653.4138 2816.3887 2699.9612 Z" fill="none" stroke="#012394" opacity="0.49019607843137253" stroke-width="1" class="soho"/>
<path d="M 2775.6747 2772.3241 2766.8833 2784.0777 2759.8269 2795.0248 2745.483 2781.7729 2730.6768 2768.4057 2715.9869 2751.8122 2724.3159 2739.9442 2732.9918 2726.1176 2744.6749 2708.7192 2756.2419 2692.2427 2756.1262 2692.1275 2765.2638 2675.0751 2800.0795 2696.6205 2815.3478 2701.6896 2804.0132 2720.7018 2796.4953 2739.9446 2785.3911 2757.3442 2775.6747 2772.3241 Z" fill="none" stroke="#012394" opacity="0.49019607843137253" stroke-width="1" class="soho"/>
<path d="M 2793.0254 2750.1999 2814.0747 2686.1349 2850.3949 2700.6501 2832.3555 2766.0994 2793.0254 2750.1999 Z" fill="none" stroke="#012394" opacity="0.49019607843137253" stroke-width="1" class="soho"/>
<path d="M 2840.9114 2715.1689 2821.0208 2791.6814 2714.5999 2731.7628 2715.526 2717.475 2737.7362 2661.2486 2840.9114 2715.1689 Z" fill="none" stroke="#012394" opacity="0.49019607843137253" stroke-width="1" class="soho"/>
<path d="M 2716.7966 2751.8122 2719.1102 2749.2774 2737.2737 2655.9487 2819.3962 2702.8415 2780.3023 2810.8117 2716.7966 2751.8122 Z" fill="none" stroke="#012394" opacity="0.49019607843137253" stroke-width="1" class="soho"/>
<path d="M 2651.6856 2642.8077 2737.7364 2654.3357 2798.3444 2693.5096 2846.0007 2713.3249 2808.0664 2826.2524 2773.3614 2808.7375 2642.4274 2684.2846 2651.6856 2642.8077 Z" fill="none" stroke="#012394" opacity="0.49019607843137253" stroke-width="1" class="soho"/>
<path d="M 2835.2628 2709.2706 2818.8416 2774.0288 2721.0445 2714.0882 2733.6239 2656.4341 2835.2628 2709.2706 Z" fill="none" stroke="#012394" opacity="0.49019607843137253" stroke-width="1" class="soho"/>
<path d="M 2748.375 2778.7769 2703.2636 2740.2888 2736.1171 2656.1791 2798.1131 2694.8923 2748.375 2778.7769 Z" fill="none" stroke="#012394" opacity="0.49019607843137253" stroke-width="1" class="soho"/>
<path d="M 2807.6036 2825.3305 2780.3024 2814.7296 2706.2708 2744.2067 2710.8985 2730.8407 2734.4979 2653.4138 2800.1951 2694.8922 2814.0754 2699.5004 2845.0753 2713.325 2807.6036 2825.3305 Z" fill="none" stroke="#012394" opacity="0.49019607843137253" stroke-width="1" class="soho"/>
<path d="M 2735.4231 2656.179 2798.8072 2696.7358 2744.6734 2776.9332 2707.1961 2745.5894 2733.1099 2654.7964 2735.4231 2656.179 Z" fill="none" stroke="#012394" opacity="0.49019607843137253" stroke-width="1" class="soho"/>
<path d="M 2734.0351 2657.1007 2813.6128 2700.8831 2763.1816 2808.2766 2705.3433 2777.8533 2734.0351 2657.1007 Z" fill="none" stroke="#012394" opacity="0.49019607843137253" stroke-width="1" class="soho"/>
<path d="M 2699.7986 2665.8554 2711.827 2675.9953 2714.1404 2673.6911 2709.5129 2688.8997 2702.1096 2699.0387 2696.5588 2682.4466 2697.0221 2673.2291 2699.7986 2665.8554 Z" fill="none" stroke="#012394" opacity="0.49019607843137253" stroke-width="1" class="soho"/>
<path d="M 2814.7695 2701.5744 2806.4421 2716.3232 2814.0764 2720.2404 2811.3006 2724.8495 2804.1289 2720.9322 2794.6445 2740.5208 2790.2493 2751.3523 2788.6298 2750.2 2784.4657 2756.8833 2794.4139 2763.3359 2771.5105 2807.5852 2708.1215 2746.0504 2719.2281 2703.8789 2720.385 2699.9615 2726.3995 2703.8793 2723.8547 2706.6445 2735.4213 2713.7887 2761.3313 2672.3099 2814.7695 2701.5744 Z" fill="none" stroke="#012394" opacity="0.49019607843137253" stroke-width="1" class="soho"/>
<path d="M 2801.1206 2697.6575 2815.9262 2702.7265 2796.9583 2750.6607 2777.0627 2770.0195 2762.7189 2793.9877 2719.2255 2756.191 2711.3605 2741.9024 2731.2589 2666.3179 2740.9749 2655.7183 2801.1206 2697.6575 Z" fill="none" stroke="#012394" opacity="0.49019607843137253" stroke-width="1" class="soho"/>
<path d="M 2707.6588 2746.0504 2736.8112 2651.8009 2816.6201 2700.1916 2767.1147 2797.4447 2707.6588 2746.0504 Z" fill="none" stroke="#012394" opacity="0.49019607843137253" stroke-width="1" class="soho"/>
<path d="M 2811.3569 2704.1214 2758.0445 2802.4771 2697.8933 2770.2098 2639.5943 2758.2201 2652.5633 2645.7656 2737.925 2658.5738 2811.3569 2704.1214 Z" fill="none" stroke="#012394" opacity="0.49019607843137253" stroke-width="1" class="soho"/>
<path d="M 2737.2737 2654.7965 2800.1952 2696.2748 2745.136 2781.5424 2706.271 2740.9803 2734.4979 2653.8747 2737.2737 2654.7965 Z" fill="none" stroke="#012394" opacity="0.49019607843137253" stroke-width="1" class="soho"/>
<path d="M 2735.8858 2652.953 2817.314 2699.0394 2768.7342 2803.2063 2705.3455 2743.7457 2735.8858 2652.953 Z" fill="none" stroke="#012394" opacity="0.49019607843137253" stroke-width="1" class="soho"/>
<path d="M 2815.0008 2701.3439 2801.3529 2722.7759 2791.1749 2761.2618 2765.7265 2800.2103 2715.2928 2753.4253 2758.0926 2685.9056 2765.3795 2674.8447 2799.1542 2696.851 2815.0008 2701.3439 Z" fill="none" stroke="#012394" opacity="0.49019607843137253" stroke-width="1" class="soho"/>
<path d="M 2745.5987 2780.6206 2717.3749 2752.9645 2765.7265 2676.4577 2808.9859 2698.3485 2759.48 2779.238 2750.6886 2773.4764 2745.5987 2780.6206 Z" fill="none" stroke="#012394" opacity="0.49019607843137253" stroke-width="1" class="soho"/>
<path d="M 2800.6578 2695.5835 2831.8844 2646.7295 2942.4626 2682.2021 2960.5228 2761.9334 2800.6578 2695.5835 Z" fill="none" stroke="#012394" opacity="0.49019607843137253" stroke-width="1" class="soho"/>
<path d="M 2734.4979 2654.7964 2799.2699 2698.1184 2742.8225 2780.1596 2706.7336 2741.9022 2734.4979 2654.7964 Z" fill="none" stroke="#012394" opacity="0.49019607843137253" stroke-width="1" class="soho"/>
<path d="M 2737.9653 2656.6575 2802.7376 2697.6749 2751.4653 2784.5326 2699.074 2733.5671 2711.2459 2651.7398 2737.9653 2656.6575 Z" fill="none" stroke="#012394" opacity="0.49019607843137253" stroke-width="1" class="soho"/>
<path d="M 2736.3485 2654.3356 2800.6578 2694.8922 2745.136 2781.5424 2647.516 2688.894 2652.1482 2642.8078 2733.1099 2653.8746 2736.3485 2654.3356 Z" fill="none" stroke="#012394" opacity="0.49019607843137253" stroke-width="1" class="soho"/>
<path d="M 2734.9605 2655.7182 2734.9605 2654.566 2767.577 2615.394 2912.8537 2690.7334 2885.3305 2732.6783 2734.9605 2655.7182 Z" fill="none" stroke="#012394" opacity="0.49019607843137253" stroke-width="1" class="soho"/>
<path d="M 2735.1918 2654.1051 2801.1205 2695.353 2813.844 2698.5787 2845.0753 2713.0945 2829.8108 2768.8651 2807.3722 2825.1 2778.4514 2811.964 2708.1214 2746.9722 2706.965 2741.4413 2735.1918 2654.1051 Z" fill="none" stroke="#012394" opacity="0.49019607843137253" stroke-width="1" class="soho"/>
<path d="M 2808.529 2823.0257 2765.9579 2808.2766 2758.5544 2799.9798 2694.7021 2763.1032 2707.6647 2649.7257 2733.5726 2654.3355 2793.7177 2691.2054 2842.762 2714.2469 2808.529 2823.0257 Z" fill="none" stroke="#012394" opacity="0.49019607843137253" stroke-width="1" class="soho"/>
<path d="M 2744.6734 2776.9332 2681.2879 2717.4726 2690.5473 2643.7333 2735.4232 2652.4921 2797.8818 2695.814 2744.6734 2776.9332 Z" fill="none" stroke="#012394" opacity="0.49019607843137253" stroke-width="1" class="soho"/>
<path d="M 2801.1206 2697.6575 2743.7479 2780.6205 2707.1962 2744.2067 2734.498 2651.1095 2743.288 2662.1705 2801.1206 2697.6575 Z" fill="none" stroke="#012394" opacity="0.49019607843137253" stroke-width="1" class="soho"/>
<path d="M 2735.4232 2653.8747 2814.538 2699.5004 2775.6746 2770.0195 2721.5401 2733.6067 2696.0923 2734.527 2679.437 2719.7769 2690.5469 2648.3419 2735.4232 2653.8747 Z" fill="none" stroke="#012394" opacity="0.49019607843137253" stroke-width="1" class="soho"/>
<path d="M 2734.9606 2652.953 2814.0754 2699.5004 2766.4206 2798.597 2704.8827 2744.6675 2734.9606 2652.953 Z" fill="none" stroke="#012394" opacity="0.49019607843137253" stroke-width="1" class="soho"/>
<path d="M 2734.498 2650.6487 2840.4484 2711.9427 2793.7215 2817.9559 2773.8242 2807.8156 2746.5241 2782.4643 2706.2708 2743.7457 2734.498 2650.6487 Z" fill="none" stroke="#012394" opacity="0.49019607843137253" stroke-width="1" class="soho"/>
<path d="M 2733.5726 2654.3355 2793.7179 2697.6577 2890.8821 2728.0686 2848.3253 2842.3829 2779.8396 2814.7297 2711.3603 2746.5115 2733.5726 2654.3355 Z" fill="none" stroke="#012394" opacity="0.49019607843137253" stroke-width="1" class="soho"/>
<path d="M 2844.6126 2713.5554 2831.6609 2758.7248 2820.5582 2794.2165 2808.2978 2826.4828 2780.071 2813.8078 2707.6587 2746.5113 2708.3533 2737.9846 2734.4978 2655.0268 2779.6063 2682.449 2804.5906 2697.1964 2844.6126 2713.5554 Z" fill="none" stroke="#012394" opacity="0.49019607843137253" stroke-width="1" class="soho"/>
<path d="M 2735.4232 2654.3356 2845.3066 2713.3249 2807.3722 2825.1 2778.4514 2812.1945 2707.6588 2746.0504 2707.6592 2739.5977 2735.4232 2654.3356 Z" fill="none" stroke="#012394" opacity="0.49019607843137253" stroke-width="1" class="soho"/>
<path d="M 2815.6948 2700.6525 2800.8902 2723.6977 2796.2639 2740.0599 2790.0182 2760.801 2765.2638 2800.2103 2707.6588 2745.8199 2712.2871 2720.7011 2728.4818 2697.8878 2739.5863 2679.2226 2754.8539 2690.7448 2765.9578 2674.8447 2815.6948 2700.6525 Z" fill="none" stroke="#012394" opacity="0.49019607843137253" stroke-width="1" class="soho"/>
<path d="M 2816.3887 2699.5003 2802.9722 2722.5454 2794.6449 2751.1217 2788.1671 2749.7391 2759.0172 2793.5267 2647.5162 2687.5114 2652.1482 2642.8078 2734.9605 2655.2573 2797.8818 2693.9705 2816.3887 2699.5003 Z" fill="none" stroke="#012394" opacity="0.49019607843137253" stroke-width="1" class="soho"/>
<path d="M 2701.1858 2676.4555 2791.8674 2704.1102 2738.1951 2791.6826 2689.1511 2746.51 2701.1858 2676.4555 Z" fill="none" stroke="#012394" opacity="0.49019607843137253" stroke-width="1" class="soho"/>
<path d="M 2734.4979 2654.3356 2802.9712 2695.8139 2742.8224 2782.4642 2681.2875 2721.6206 2664.1767 2644.6526 2734.4979 2654.3356 Z" fill="none" stroke="#012394" opacity="0.49019607843137253" stroke-width="1" class="soho"/>
<path d="M 2845.7694 2714.0162 2808.5291 2825.5609 2776.6005 2810.1203 2664.6331 2702.9529 2673.4297 2642.8101 2736.8111 2653.4139 2797.8819 2696.7358 2817.7767 2699.9611 2845.7694 2714.0162 Z" fill="none" stroke="#012394" opacity="0.49019607843137253" stroke-width="1" class="soho"/>
<path d="M 2807.5935 2598.1115 2845.5301 2620.2295 2864.4922 2566.3102 2876.5205 2570.9171 2888.5525 2604.0953 2869.1272 2647.4175 2851.5519 2703.6457 2825.1799 2708.2566 2772.4351 2682.4491 2743.2882 2652.9532 2769.1961 2581.5226 2807.5935 2598.1115 Z" fill="none" stroke="#012394" opacity="0.49019607843137253" stroke-width="1" class="soho"/>
<path d="M 2816.6201 2700.6525 2799.7335 2723.4673 2798.1147 2740.2903 2790.4806 2749.2782 2783.5404 2757.8052 2760.174 2793.5267 2744.6733 2780.3901 2730.0985 2765.8707 2714.5989 2750.4294 2707.4274 2745.8199 2708.5852 2728.0752 2712.5184 2720.9316 2714.601 2711.2529 2722.2359 2694.6614 2726.8634 2674.8439 2735.1918 2654.1051 2816.6201 2700.6525 Z" fill="none" stroke="#012394" opacity="0.49019607843137253" stroke-width="1" class="soho"/>
<path d="M 2735.1919 2653.8747 2816.1574 2699.9612 2802.5095 2721.3932 2791.1749 2759.8791 2765.7265 2800.6712 2707.1961 2745.359 2735.1919 2653.8747 Z" fill="none" stroke="#012394" opacity="0.49019607843137253" stroke-width="1" class="soho"/>
<path d="M 2650.2977 2642.3467 2733.1099 2654.7964 2793.7178 2694.8924 2996.8477 2774.1395 3018.5981 2786.5789 3031.5544 2787.9581 3018.1505 2842.8137 3009.8274 2866.7858 2782.1526 2775.0896 2724.7787 2738.2159 2711.8225 2753.8861 2645.2032 2685.2067 2650.2977 2642.3467 Z" fill="none" stroke="#012394" opacity="0.49019607843137253" stroke-width="1" class="soho"/>
<path d="M 2759.9426 2795.14 2706.2708 2744.898 2737.9677 2655.9487 2816.6202 2702.496 2759.9426 2795.14 Z" fill="none" stroke="#012394" opacity="0.49019607843137253" stroke-width="1" class="soho"/>
<path d="M 2737.2737 2656.1791 2810.374 2699.5006 2753.0018 2801.8234 2708.5825 2773.2443 2706.7337 2740.9803 2737.2737 2656.1791 Z" fill="none" stroke="#012394" opacity="0.49019607843137253" stroke-width="1" class="soho"/>
<path d="M 2736.3482 2664.0138 2771.047 2674.6142 2799.7326 2698.1184 2769.6594 2744.2085 2715.0632 2721.1621 2736.3482 2664.0138 Z" fill="none" stroke="#012394" opacity="0.49019607843137253" stroke-width="1" class="soho"/>
<path d="M 2735.6544 2656.6399 2818.0082 2702.2655 2805.517 2722.7758 2795.1079 2762.8749 2775.2122 2800.9016 2708.1218 2740.75 2735.6544 2656.6399 Z" fill="none" stroke="#012394" opacity="0.49019607843137253" stroke-width="1" class="soho"/>
<path d="M 2802.5019 2526.2242 2837.6596 2545.1151 2803.4299 2599.0334 2768.2708 2579.2184 2799.2638 2526.6851 2802.5019 2526.2242 Z" fill="none" stroke="#012394" opacity="0.49019607843137253" stroke-width="1" class="soho"/>
<path d="M 2871.9265 2855.2874 2870.075 2850.678 2807.6036 2824.8696 2765.0324 2801.3626 2814.5381 2701.8048 2967.6942 2759.8578 2945.9583 2817.0172 2929.3054 2847.4429 2871.9265 2855.2874 Z" fill="none" stroke="#012394" opacity="0.49019607843137253" stroke-width="1" class="soho"/>
<path d="M 2791.4063 2760.1096 2765.7265 2801.3626 2707.6586 2748.5854 2706.5023 2742.363 2730.3338 2661.4788 2734.4978 2655.2573 2797.1878 2695.1227 2815.6948 2700.883 2802.7409 2722.5454 2791.4063 2760.1096 Z" fill="none" stroke="#012394" opacity="0.49019607843137253" stroke-width="1" class="soho"/>
<path d="M 2801.1206 2697.1966 2815.6948 2701.8048 2799.5023 2726.2327 2793.4882 2752.5044 2790.2495 2761.2619 2785.1598 2757.8051 2760.1739 2794.4486 2707.6588 2745.1286 2707.4278 2740.289 2731.0278 2661.4788 2735.1918 2655.7182 2801.1206 2697.1966 Z" fill="none" stroke="#012394" opacity="0.49019607843137253" stroke-width="1" class="soho"/>
<path d="M 2801.5842 2723.0064 2796.0326 2741.4426 2796.033 2752.0435 2787.7048 2763.5665 2775.6748 2784.7691 2765.9579 2796.7533 2678.5117 2719.3159 2648.9043 2687.0507 2655.3866 2643.269 2687.7712 2646.9591 2737.2737 2654.7965 2808.5235 2703.1878 2801.5842 2723.0064 Z" fill="none" stroke="#012394" opacity="0.49019607843137253" stroke-width="1" class="soho"/>
<path d="M 2848.3138 2710.5593 2716.9174 2652.4914 2746.5298 2497.6555 2906.592 2585.1986 2848.3138 2710.5593 Z" fill="none" stroke="#012394" opacity="0.49019607843137253" stroke-width="1" class="soho"/>
<path d="M 2735.8858 2654.7965 2813.15 2699.0396 2792.3315 2756.1918 2791.4062 2758.4964 2789.5554 2758.0355 2713.6751 2721.1621 2735.8858 2654.7965 Z" fill="none" stroke="#012394" opacity="0.49019607843137253" stroke-width="1" class="soho"/>
<path d="M 2813.902 2702.2081 2815.3478 2701.0558 2814.7695 2701.92 2765.9 2801.5931 2707.1961 2745.1285 2734.3821 2656.4094 2813.902 2702.2081 Z" fill="none" stroke="#012394" opacity="0.49019607843137253" stroke-width="1" class="soho"/>
<path d="M 2736.3483 2658.253 2741.9001 2660.327 2750.9216 2665.3967 2757.1674 2670.0055 2764.1072 2676.9186 2773.1291 2681.7578 2780.763 2686.136 2789.5537 2691.8968 2798.8072 2696.9662 2807.5979 2698.1181 2813.6128 2701.5744 2809.2178 2708.4879 2801.1214 2718.8583 2799.2712 2733.8376 2789.5555 2759.8791 2767.346 2798.1361 2710.435 2745.1287 2736.3483 2658.253 Z" fill="none" stroke="#012394" opacity="0.49019607843137253" stroke-width="1" class="soho"/>
<path d="M 2649.1411 2642.577 2734.2666 2653.4138 2816.8515 2701.5743 2765.9579 2800.4407 2646.822 2689.1244 2649.1411 2642.577 Z" fill="none" stroke="#012394" opacity="0.49019607843137253" stroke-width="1" class="soho"/>
<path d="M 2695.6295 2736.3706 2686.3838 2640.507 2745.6013 2656.1793 2815.0002 2689.361 2779.8387 2753.8875 2762.2563 2761.2622 2717.8385 2736.3719 2695.6295 2736.3706 Z" fill="none" stroke="#012394" opacity="0.49019607843137253" stroke-width="1" class="soho"/>
<path d="M 2799.7325 2696.7357 2744.9046 2781.5424 2744.9047 2780.3901 2715.0615 2752.9644 2765.7265 2674.1534 2799.7325 2696.7357 Z" fill="none" stroke="#012394" opacity="0.49019607843137253" stroke-width="1" class="soho"/>
<path d="M 2737.7364 2654.3357 2817.3141 2700.8829 2802.5095 2722.5454 2789.5552 2750.6609 2760.4053 2793.9877 2708.1215 2745.1286 2708.585 2732.2233 2737.7364 2654.3357 Z" fill="none" stroke="#012394" opacity="0.49019607843137253" stroke-width="1" class="soho"/>
<path d="M 2689.1596 2640.5072 2759.4818 2498.5772 2860.3292 2570.458 2815.9249 2679.2216 2755.7788 2732.6859 2705.8101 2713.3264 2689.1596 2640.5072 Z" fill="none" stroke="#012394" opacity="0.49019607843137253" stroke-width="1" class="soho"/>
<path d="M 2708.931 2745.4475 2734.8446 2654.1935 2798.6912 2694.7502 2744.0947 2779.5566 2708.931 2745.4475 Z" fill="none" stroke="#012394" opacity="0.49019607843137253" stroke-width="1" class="soho"/>
<path d="M 2678.2832 2688.6669 2651.3507 2686.2956 2651.094 2645.2686 2663.1227 2645.7309 2690.8881 2648.7662 2736.6075 2656.4816 2798.9813 2694.3254 2777.9305 2729.3536 2651.666 2686.291 2678.2832 2688.6669 Z" fill="none" stroke="#012394" opacity="0.49019607843137253" stroke-width="1" class="soho"/>
<path d="M 2810.8366 2698.8093 2752.3079 2788.4564 2714.8301 2752.734 2766.1892 2674.1534 2808.9859 2698.118 2810.8366 2698.8093 Z" fill="none" stroke="#012394" opacity="0.49019607843137253" stroke-width="1" class="soho"/>
<path d="M 2888.5688 2728.9907 2845.549 2843.3051 2692.8511 2766.3295 2707.6647 2649.2648 2734.4979 2654.7964 2810.3739 2698.118 2888.5688 2728.9907 Z" fill="none" stroke="#012394" opacity="0.49019607843137253" stroke-width="1" class="soho"/>
<path d="M 2802.9711 2693.9703 2693.7863 2637.7424 2782.6088 2416.5605 2888.9944 2445.1194 2874.2062 2560.3185 2815.9259 2697.6568 2876.0601 2589.811 2881.6082 2563.0825 2802.9711 2693.9703 Z" fill="none" stroke="#012394" opacity="0.49019607843137253" stroke-width="1" class="soho"/>
<path d="M 2735.4232 2653.4139 2818.702 2699.5002 2765.0325 2797.2142 2707.6591 2740.9804 2735.4232 2653.4139 Z" fill="none" stroke="#012394" opacity="0.49019607843137253" stroke-width="1" class="soho"/>
<path d="M 2735.8857 2656.1791 2810.8368 2702.2659 2811.7621 2700.4223 2760.868 2793.9877 2707.659 2742.824 2735.8857 2656.1791 Z" fill="none" stroke="#012394" opacity="0.49019607843137253" stroke-width="1" class="soho"/>
<path d="M 2846.9262 2716.0901 2808.2976 2824.1781 2709.508 2772.0921 2708.584 2748.5854 2729.4087 2655.718 2846.9262 2716.0901 Z" fill="none" stroke="#012394" opacity="0.49019607843137253" stroke-width="1" class="soho"/>
<path d="M 2797.4191 2693.5097 2744.6733 2779.2378 2715.7556 2751.1208 2765.7265 2672.5403 2797.4191 2693.5097 Z" fill="none" stroke="#012394" opacity="0.49019607843137253" stroke-width="1" class="soho"/>
<path d="M 2713.3008 2780.2091 2742.3876 2663.0018 2811.391 2700.0121 2747.5409 2794.0382 2713.3008 2780.2091 Z" fill="none" stroke="#012394" opacity="0.49019607843137253" stroke-width="1" class="soho"/>
<path d="M 2735.4232 2654.3356 2798.3444 2693.9705 2740.0458 2794.4483 2672.4936 2752.9612 2691.9353 2642.3508 2739.1244 2653.414 2735.4232 2654.3356 Z" fill="none" stroke="#012394" opacity="0.49019607843137253" stroke-width="1" class="soho"/>
<path d="M 2735.0761 2656.2942 2814.7695 2701.8048 2765.7265 2799.6341 2708.3528 2746.2809 2708.1217 2741.4413 2731.7216 2664.3593 2735.0761 2656.2942 Z" fill="none" stroke="#012394" opacity="0.49019607843137253" stroke-width="1" class="soho"/>
<path d="M 2661.3902 2740.9764 2669.7285 2643.2706 2675.2802 2643.2711 2724.3202 2641.4311 2797.419 2691.2052 2753.0023 2763.1058 2702.1043 2777.8531 2670.6411 2769.5539 2661.3902 2740.9764 Z" fill="none" stroke="#012394" opacity="0.49019607843137253" stroke-width="1" class="soho"/>
<path d="M 2820.0955 2793.0642 2713.2125 2719.7794 2733.5725 2655.7181 2735.8858 2655.7182 2843.9185 2712.1728 2820.0955 2793.0642 Z" fill="none" stroke="#012394" opacity="0.49019607843137253" stroke-width="1" class="soho"/>
<path d="M 2815.0008 2700.883 2802.5095 2721.8541 2796.7266 2739.138 2759.4799 2794.9095 2707.4274 2746.7417 2713.2125 2720.9316 2735.1918 2654.566 2753.6975 2666.5489 2800.4265 2696.7357 2815.0008 2700.883 Z" fill="none" stroke="#012394" opacity="0.49019607843137253" stroke-width="1" class="soho"/>
<path d="M 2734.4979 2653.8747 2800.4265 2695.814 2747.6809 2779.0074 2705.577 2739.828 2732.4159 2656.4094 2734.4979 2653.8747 Z" fill="none" stroke="#012394" opacity="0.49019607843137253" stroke-width="1" class="soho"/>
<path d="M 2651.2229 2642.8077 2734.9605 2653.8747 2800.6578 2695.8139 2745.136 2781.0815 2647.5159 2689.8158 2651.2229 2642.8077 Z" fill="none" stroke="#012394" opacity="0.49019607843137253" stroke-width="1" class="soho"/>
<path d="M 2735.4231 2656.6399 2799.0385 2696.9662 2745.136 2780.3901 2708.1214 2746.5113 2735.4231 2656.6399 Z" fill="none" stroke="#012394" opacity="0.49019607843137253" stroke-width="1" class="soho"/>
<path d="M 2815.232 2699.7308 2761.0994 2794.9095 2707.8903 2742.3631 2736.3483 2658.0225 2815.232 2699.7308 Z" fill="none" stroke="#012394" opacity="0.49019607843137253" stroke-width="1" class="soho"/>
<path d="M 2758.5545 2793.5267 2709.9722 2746.0505 2709.0473 2738.2151 2734.9605 2655.9486 2798.3445 2697.1967 2813.1501 2700.6527 2799.0395 2724.3892 2794.4132 2739.3686 2779.6075 2761.9535 2758.5545 2793.5267 Z" fill="none" stroke="#012394" opacity="0.49019607843137253" stroke-width="1" class="soho"/>
<path d="M 2735.4232 2654.3356 2815.0007 2699.5004 2796.0325 2737.7554 2761.3307 2794.4486 2705.808 2746.5112 2735.4232 2654.3356 Z" fill="none" stroke="#012394" opacity="0.49019607843137253" stroke-width="1" class="soho"/>
<path d="M 2735.4231 2655.7182 2799.2698 2694.8922 2845.538 2713.7858 2806.6782 2825.7915 2706.7334 2745.1285 2735.4231 2655.7182 Z" fill="none" stroke="#012394" opacity="0.49019607843137253" stroke-width="1" class="soho"/>
<path d="M 2799.7324 2693.5096 2747.4495 2781.0815 2704.42 2745.1283 2733.5725 2655.2572 2844.6129 2717.0121 2799.7324 2693.5096 Z" fill="none" stroke="#012394" opacity="0.49019607843137253" stroke-width="1" class="soho"/>
<path d="M 2844.6127 2714.2468 2808.0663 2824.8695 2702.3362 2769.787 2733.3388 2725.311 2765.2638 2674.8447 2844.6127 2714.2468 Z" fill="none" stroke="#012394" opacity="0.49019607843137253" stroke-width="1" class="soho"/>
<path d="M 2735.4232 2653.8747 2799.5011 2695.1227 2816.1574 2700.1916 2800.6589 2723.4673 2796.0326 2739.3685 2757.629 2792.6049 2708.5842 2745.5895 2707.6592 2738.215 2735.4232 2653.8747 Z" fill="none" stroke="#012394" opacity="0.49019607843137253" stroke-width="1" class="soho"/>
<path d="M 2734.7292 2655.0269 2817.0831 2706.4136 2805.7485 2727.3847 2795.802 2764.7186 2778.4513 2805.5109 2707.8903 2743.0545 2734.7292 2655.0269 Z" fill="none" stroke="#012394" opacity="0.49019607843137253" stroke-width="1" class="soho"/>
<path d="M 2815.9261 2701.1134 2789.7868 2760.3401 2716.2202 2714.0184 2734.7291 2656.6399 2815.9261 2701.1134 Z" fill="none" stroke="#012394" opacity="0.49019607843137253" stroke-width="1" class="soho"/>
<path d="M 2844.8439 2713.0945 2821.9463 2793.5251 2784.9289 2777.8551 2711.1299 2729.4581 2735.4231 2655.0269 2799.9638 2695.3531 2844.8439 2713.0945 Z" fill="none" stroke="#012394" opacity="0.49019607843137253" stroke-width="1" class="soho"/>
<path d="M 2676.7137 2640.6656 2691.5185 2636.98 2876.5695 2601.9521 2863.644 2871.1205 2654.4793 2876.6507 2676.7137 2640.6656 Z" fill="none" stroke="#012394" opacity="0.49019607843137253" stroke-width="1" class="soho"/>
<path d="M 2864.0461 2724.3846 2828.8891 2823.9465 2775.2123 2808.2766 2712.2858 2743.7461 2739.1243 2654.3357 2864.0461 2724.3846 Z" fill="none" stroke="#012394" opacity="0.49019607843137253" stroke-width="1" class="soho"/>
<path d="M 2707.202 2650.1865 2816.8514 2700.422 2790.4809 2761.7228 2697.0192 2713.7867 2707.202 2650.1865 Z" fill="none" stroke="#012394" opacity="0.49019607843137253" stroke-width="1" class="soho"/>
<path d="M 2799.2699 2697.1966 2801.1206 2697.1966 2744.9047 2779.4683 2709.2781 2748.1245 2714.3695 2714.0183 2733.5726 2654.566 2799.2699 2697.1966 Z" fill="none" stroke="#012394" opacity="0.49019607843137253" stroke-width="1" class="soho"/>
<path d="M 2650.2974 2645.1118 2708.4743 2649.9562 2734.8449 2654.2203 2799.3855 2695.2379 2815.4634 2700.7678 2843.6873 2713.6707 2829.2325 2769.4413 2820.6739 2793.9861 2809.1074 2824.2933 2778.9142 2812.425 2745.5987 2781.4272 2715.1772 2751.8122 2679.784 2719.5465 2648.7884 2689.0094 2650.2974 2645.1118 Z" fill="none" stroke="#012394" opacity="0.49019607843137253" stroke-width="1" class="soho"/>
<path d="M 2735.4232 2654.3356 2800.6578 2695.3531 2745.136 2781.5424 2705.3453 2745.5893 2713.2123 2723.9274 2735.4232 2654.3356 Z" fill="none" stroke="#012394" opacity="0.49019607843137253" stroke-width="1" class="soho"/>
<path d="M 2651.2231 2641.4251 2737.2738 2653.4139 2817.7768 2700.422 2797.4204 2731.7636 2793.7195 2751.1217 2787.2418 2751.1219 2784.4658 2758.4965 2733.5702 2725.311 2698.4069 2718.8566 2642.8885 2695.8066 2651.2231 2641.4251 Z" fill="none" stroke="#012394" opacity="0.49019607843137253" stroke-width="1" class="soho"/>
<path d="M 2734.4979 2653.4138 2845.5378 2711.4813 2807.6036 2824.4086 2703.0302 2771.4003 2734.4979 2653.4138 Z" fill="none" stroke="#012394" opacity="0.49019607843137253" stroke-width="1" class="soho"/>
<path d="M 2737.2738 2653.8748 2815.9261 2701.8047 2799.2708 2723.9283 2766.8833 2800.4407 2647.5159 2689.8158 2650.2973 2645.5727 2737.2738 2653.8748 Z" fill="none" stroke="#012394" opacity="0.49019607843137253" stroke-width="1" class="soho"/>
<path d="M 2735.4231 2655.2573 2815.0007 2700.1917 2793.9511 2761.4922 2786.5483 2778.5464 2712.5179 2730.8408 2735.4231 2655.2573 Z" fill="none" stroke="#012394" opacity="0.49019607843137253" stroke-width="1" class="soho"/>
<path d="M 2743.9793 2777.1636 2776.5996 2730.6118 2746.2927 2784.7689 2740.5091 2775.5503 2731.7179 2768.8667 2649.3667 2688.6638 2650.5287 2644.651 2735.8858 2655.2573 2797.8819 2697.4271 2776.1369 2732.6859 2743.9793 2777.1636 Z" fill="none" stroke="#012394" opacity="0.49019607843137253" stroke-width="1" class="soho"/>
<path d="M 2815.0007 2699.5004 2811.3002 2717.9361 2796.4951 2733.6072 2786.3166 2761.262 2775.212 2781.5426 2757.629 2799.0579 2705.8063 2772.3223 2713.2115 2737.2935 2733.5724 2659.8659 2815.0007 2699.5004 Z" fill="none" stroke="#012394" opacity="0.49019607843137253" stroke-width="1" class="soho"/>
<path d="M 2809.5643 2699.0398 2798.2296 2717.3605 2803.3191 2720.1257 2801.2372 2722.8912 2790.3652 2760.6857 2765.9579 2800.556 2701.6442 2740.4039 2648.5569 2689.9311 2640.6926 2682.5561 2643.8207 2642.6915 2735.6545 2653.5291 2800.8891 2694.2008 2809.5643 2699.0398 Z" fill="none" stroke="#012394" opacity="0.49019607843137253" stroke-width="1" class="soho"/>
<path d="M 2734.4977 2658.0225 2802.9711 2693.9703 2743.7479 2778.7768 2706.7333 2747.2026 2734.4977 2658.0225 Z" fill="none" stroke="#012394" opacity="0.49019607843137253" stroke-width="1" class="soho"/>
<path d="M 2735.1918 2655.0269 2799.0385 2695.5836 2814.7693 2699.2699 2799.9649 2724.1587 2792.1003 2758.2659 2780.7644 2774.8591 2711.1299 2729.919 2735.1918 2655.0269 Z" fill="none" stroke="#012394" opacity="0.49019607843137253" stroke-width="1" class="soho"/>
<path d="M 2736.3483 2659.4051 2798.3445 2696.5054 2767.1146 2745.8217 2717.1456 2713.5575 2735.6544 2657.5616 2736.3483 2659.4051 Z" fill="none" stroke="#012394" opacity="0.49019607843137253" stroke-width="1" class="soho"/>
<path d="M 2706.271 2740.9803 2721.5419 2693.97 2735.8858 2654.3356 2798.3445 2695.5836 2815.2321 2701.5743 2801.1215 2722.3151 2790.9436 2760.1096 2767.5774 2801.5931 2707.4274 2746.7417 2706.271 2740.9803 Z" fill="none" stroke="#012394" opacity="0.49019607843137253" stroke-width="1" class="soho"/>
<path d="M 2765.3795 2675.6512 2795.4817 2695.4973 2757.4558 2759.8794 2724.3449 2738.4175 2765.3795 2675.6512 Z" fill="none" stroke="#012394" opacity="0.49019607843137253" stroke-width="1" class="soho"/>
<path d="M 2814.0754 2701.344 2765.4952 2799.0579 2647.7474 2688.6636 2651.6855 2643.0381 2734.4979 2654.566 2814.0754 2701.344 Z" fill="none" stroke="#012394" opacity="0.49019607843137253" stroke-width="1" class="soho"/></svg>