<?xml version="1.0"?><svg xmlns="http://www.w3.org/2000/svg" version="1.2" baseProfile="tiny" width="6000" height="5918" viewBox="0 0 6000 5918" stroke-linecap="round" stroke-linejoin="round"><path d="M 4129.4335 1094.1474 4271.7372 1121.5377 4168.6013 1342.5807 3978.135 1248.963 4129.4335 1094.1474 Z" fill="none" stroke="#12852D" opacity="0.6" stroke-width="1" class="soundview"/>
<path d="M 4240.8521 1161.1578 4241.7868 1168.0584 4284.4819 1291.3172 4307.7825 1414.622 4195.9977 1433.6692 4083.2103 1399.7739 4058.6779 1367.1303 4031.8439 1339.5527 4025.3242 1300.9032 4018.3443 1263.1762 4030.2819 1208.3992 4060.6946 1153.6001 4091.6032 1125.4892 4187.2395 1140.9942 4240.8521 1161.1578 Z" fill="none" stroke="#12852D" opacity="0.6" stroke-width="1" class="soundview"/>
<path d="M 4028.4724 1236.9322 4033.5526 1236.005 4245.9527 1173.5736 4310.5533 1413.6969 4377.1922 1475.2627 4399.0473 1554.8591 4298.3056 1553.6472 4173.785 1410.6892 4140.4318 1351.3666 4060.5253 1366.6675 4035.543 1341.8489 4028.4724 1236.9322 Z" fill="none" stroke="#12852D" opacity="0.6" stroke-width="1" class="soundview"/>
<path d="M 4311.2846 1578.0238 4199.3398 1504.5487 4132.6904 1429.1603 4050.3885 1386.9322 4009.6356 1315.1906 4457.6255 1236.2597 4498.465 1338.3504 4469.0283 1411.1227 4440.5193 1488.5009 4424.0125 1561.2602 4364.906 1587.1413 4311.2846 1578.0238 Z" fill="none" stroke="#12852D" opacity="0.6" stroke-width="1" class="soundview"/>
<path d="M 4193.1516 1308.6026 4176.0656 1313.6907 4145.9304 1320.2934 4133.1115 1321.2325 4112.9057 1325.7487 4093.9686 1329.1122 4080.1114 1331.0875 4064.7544 1334.3304 4053.3232 1336.7623 4033.9227 1339.4349 4027.5728 1341.3993 4022.5929 1331.3961 4017.3777 1318.0567 4012.8356 1289.5297 4012.4722 1276.7596 4017.1752 1252.4784 4019.1229 1240.7412 4021.8729 1224.4013 4022.3235 1215.8876 4016.652 1206.3467 4019.297 1197.9453 4020.3293 1192.6521 4032.5718 1193.6711 4041.9306 1197.1096 4048.6335 1200.6667 4056.8334 1201.1157 4054.0606 1200.1992 4058.793 1198.4671 4066.8762 1197.9958 4072.4173 1196.4926 4078.8828 1195.3333 4085.2332 1194.5191 4090.1966 1192.7866 4096.547 1191.9724 4102.7837 1192.4237 4104.7434 1190.0051 4109.9387 1188.9624 4116.9824 1188.4921 4123.2158 1186.6426 4193.1516 1308.6026 Z" fill="none" stroke="#12852D" opacity="0.6" stroke-width="1" class="soundview"/>
<path d="M 4106.3891 1129.1493 4085.1224 1115.3756 4240.3902 1161.1585 4106.3839 1125.4683 4086.0527 1119.9755 4240.4032 1169.441 4279.3639 1268.7757 4324.2224 1577.0819 4195.6194 1488.904 3980.0729 1318.9108 4086.0591 1124.5767 4106.3891 1129.1493 Z" fill="none" stroke="#12852D" opacity="0.6" stroke-width="1" class="soundview"/>
<path d="M 4285.8537 1282.5712 4295.0761 1271.9717 4312.1727 1274.2448 4318.2238 1301.847 4324.2676 1324.8478 4373.4682 1459.1589 4396.2683 1551.1812 4366.7217 1567.8039 4330.6615 1558.6577 4284.3927 1522.828 4283.4137 1488.7668 4262.1378 1475.9125 4222.3672 1454.8016 4193.6917 1436.4343 4181.6134 1393.1878 4164.9053 1342.5862 4164.8656 1315.8934 4187.9388 1298.3709 4224.8803 1287.2695 4260.8984 1277.0887 4285.8537 1282.5712 Z" fill="none" stroke="#12852D" opacity="0.6" stroke-width="1" class="soundview"/>
<path d="M 4242.2537 1171.2787 4285.4107 1294.307 4302.1908 1385.635 4127.1303 1418.3521 4029.9989 1341.8563 4018.8038 1261.3348 4032.1077 1192.0611 4049.6686 1197.5593 4201.4874 1170.0763 4203.5904 1186.0633 4242.2537 1171.2787 Z" fill="none" stroke="#12852D" opacity="0.6" stroke-width="1" class="soundview"/>
<path d="M 4150.0401 1287.3824 4286.7792 1283.4901 4279.3964 1289.0244 4290.5047 1301.8922 4297.9683 1346.0612 4161.216 1347.194 4130.733 1353.6819 4069.7643 1365.7343 4058.6356 1336.2948 4059.5406 1322.4869 4010.5693 1322.5528 4279.361 1266.935 4150.0401 1287.3824 Z" fill="none" stroke="#12852D" opacity="0.6" stroke-width="1" class="soundview"/>
<path d="M 4406.4459 1557.6082 4320.5315 1580.7707 4277.0317 1543.094 4272.3342 1495.2288 4192.8386 1483.3847 4161.3291 1423.5952 4079.0508 1398.8592 4027.2405 1351.9851 4005.8767 1267.3344 4046.3935 1166.9637 4123.9638 1144.7685 4141.6815 1257.9422 4305.5422 1457.4311 4316.6559 1472.1421 4322.2554 1505.2745 4406.4459 1557.6082 Z" fill="none" stroke="#12852D" opacity="0.6" stroke-width="1" class="soundview"/>
<path d="M 4240.8521 1161.1578 4284.9535 1297.2991 4306.3972 1415.0845 4195.9956 1432.2884 4160.422 1435.1033 4081.8268 1401.6169 4031.4053 1357.0421 4018.3394 1259.4947 4033.5044 1200.112 4063.9216 1148.9943 4092.5263 1125.0278 4164.5959 1134.1261 4240.8521 1161.1578 Z" fill="none" stroke="#12852D" opacity="0.6" stroke-width="1" class="soundview"/>
<path d="M 4239.4837 1172.2033 4293.3199 1328.5802 4064.2227 1367.5829 4049.4582 1382.3309 4010.5608 1316.1098 4016.0021 1238.7895 4239.4837 1172.2033 Z" fill="none" stroke="#12852D" opacity="0.6" stroke-width="1" class="soundview"/>
<path d="M 4397.1973 1553.9416 4052.1512 1324.3379 4303.4043 1279.7815 4397.1973 1553.9416 Z" fill="none" stroke="#12852D" opacity="0.6" stroke-width="1" class="soundview"/>
<path d="M 4241.3299 1171.2802 4272.8905 1265.1046 4015.1721 1309.6607 4012.3138 1244.3166 4050.0638 1148.5532 4134.0403 1085.8588 4222.6668 1050.7587 4241.3299 1171.2802 Z" fill="none" stroke="#12852D" opacity="0.6" stroke-width="1" class="soundview"/>
<path d="M 4070.5419 1259.8841 4060.3016 1203.7569 4069.4945 1170.6132 4097.1927 1158.6108 4167.3844 1145.6252 4229.2814 1146.4514 4256.9857 1139.9661 4289.3294 1146.3563 4312.5984 1252.155 4330.2598 1316.5539 4254.5151 1330.4831 4192.6213 1339.7833 4145.4297 1293.832 4135.222 1263.4738 4070.5419 1259.8841 Z" fill="none" stroke="#12852D" opacity="0.6" stroke-width="1" class="soundview"/>
<path d="M 4012.416 1321.6299 4016.0766 1294.9328 4018.8142 1269.158 4039.0426 1196.4233 4065.8029 1173.3792 4115.6653 1155.8237 4183.1142 1162.1666 4219.1507 1166.7132 4251.5139 1185.0686 4247.8561 1209.0026 4269.1698 1249.4641 4286.8044 1299.137 4291.5136 1354.3559 4303.6324 1419.6917 4318.4632 1447.2837 4330.5301 1479.4839 4309.308 1499.7721 4276.0264 1492.4611 4250.1574 1497.1052 4193.7642 1484.3039 4160.4282 1439.2457 4116.0383 1416.2969 4070.7253 1392.4272 4030.9588 1368.5486 4012.416 1321.6299 Z" fill="none" stroke="#12852D" opacity="0.6" stroke-width="1" class="soundview"/>
<path d="M 4307.5525 1415.1977 4216.671 1431.4513 4196.8051 1432.8625 4170.0867 1409.314 4135.1475 1212.1641 4213.7472 1182.3665 4224.0015 1241.827 4265.2199 1234.8597 4285.4114 1294.7672 4307.5525 1415.1977 Z" fill="none" stroke="#12852D" opacity="0.6" stroke-width="1" class="soundview"/>
<path d="M 4037.1961 1197.3461 4039.4865 1183.0782 4051.9327 1164.1953 4067.1544 1148.5297 4078.2261 1138.3915 4088.3802 1132.8557 4100.862 1140.2002 4101.7766 1133.7571 4112.4037 1136.0426 4126.7193 1133.7214 4140.5784 1135.0817 4153.0518 1136.4438 4171.5306 1138.2569 4188.628 1142.8326 4206.65 1147.8667 4224.2168 1157.0424 4234.3911 1164.849 4242.2617 1176.3403 4244.5922 1189.6811 4251.5501 1208.0765 4257.1218 1226.0142 4264.0795 1243.9501 4269.1948 1265.1105 4271.0691 1281.6745 4279.3883 1283.9622 4281.2584 1297.7653 4287.7596 1318.4643 4291.0307 1341.4702 4295.2201 1360.7932 4295.25 1379.2028 4303.5874 1392.0762 4303.1471 1405.4243 4300.3922 1416.0148 4286.5287 1414.6565 4272.2121 1418.8219 4252.813 1422.9951 4229.2488 1423.0319 4214.0098 1428.5787 4199.223 1427.6807 4188.5987 1429.5379 4177.5179 1435.0778 4170.1182 1430.4862 4157.1748 1426.3629 4139.145 1419.4853 4113.2588 1411.2379 4091.9974 1405.745 4075.8102 1394.2612 4059.6196 1380.0158 4045.7389 1365.307 4037.4022 1350.1305 4032.7654 1337.7106 4031.8074 1312.3998 4028.5599 1302.2795 4019.3239 1305.0531 4023.4548 1284.7985 4016.0418 1268.7015 4021.564 1252.5876 4028.4767 1240.1534 4033.9904 1218.0577 4037.1961 1197.3461 Z" fill="none" stroke="#12852D" opacity="0.6" stroke-width="1" class="soundview"/>
<path d="M 4254.5076 1421.1595 4209.2472 1434.1175 4202.7462 1412.9551 4224.9112 1404.6364 4254.5076 1421.1595 Z" fill="none" stroke="#12852D" opacity="0.6" stroke-width="1" class="soundview"/>
<path d="M 4217.483 1283.5993 4319.0886 1265.95 4369.1249 1350.5452 4390.5026 1423.2281 4395.3902 1577.8823 4306.6123 1546.7287 4229.6515 1384.8299 4217.483 1283.5993 Z" fill="none" stroke="#12852D" opacity="0.6" stroke-width="1" class="soundview"/>
<path d="M 4285.2487 1480.4785 4067.8425 1312.3507 4061.4544 1370.3482 4070.6985 1373.0969 4218.3615 1254.1456 4207.3054 1274.411 4413.8399 1293.401 4402.4227 1236.5873 4405.8846 1234.9706 4448.3914 1239.0373 4447.4692 1239.9593 4506.6689 1277.5873 4507.5911 1276.6652 4495.6829 1332.8328 4486.4698 1347.577 4475.6253 1481.9937 4471.8754 1452.542 4320.3691 1482.2625 4324.0657 1482.2564 4285.2487 1480.4785 Z" fill="none" stroke="#12852D" opacity="0.6" stroke-width="1" class="soundview"/>
<path d="M 4255.1176 1170.0073 4284.3845 1273.0387 4306.3212 1410.1511 4335.1383 1561.0629 4313.5951 1573.7462 4189.1501 1484.1801 4082.6406 1402.03 4028.518 1353.7783 4014.651 1269.8598 4053.2583 1124.8581 4160.9658 1132.8482 4249.5903 1165.0511 4255.1176 1170.0073 Z" fill="none" stroke="#12852D" opacity="0.6" stroke-width="1" class="soundview"/>
<path d="M 4060.706 1161.8826 4107.8154 1157.6754 4130.6404 1289.7117 4026.7212 1309.1851 4027.0884 1238.3146 4060.706 1161.8826 Z" fill="none" stroke="#12852D" opacity="0.6" stroke-width="1" class="soundview"/>
<path d="M 4097.441 1334.3999 4292.1992 1207.0912 4405.2383 1394.6665 4257.5419 1491.5699 4097.441 1334.3999 Z" fill="none" stroke="#12852D" opacity="0.6" stroke-width="1" class="soundview"/>
<path d="M 3685.9404 1006.3481 4347.6455 1215.2828 4299.9181 1408.6514 3697.2374 1221.6718 3512.6054 1405.9217 3685.9404 1006.3481 Z" fill="none" stroke="#12852D" opacity="0.6" stroke-width="1" class="soundview"/>
<path d="M 4150.8707 1223.8754 4240.4262 1184.1657 4281.2547 1295.4642 4161.1929 1331.5463 4150.8707 1223.8754 Z" fill="none" stroke="#12852D" opacity="0.6" stroke-width="1" class="soundview"/>
<path d="M 4015.1807 1316.1037 4277.5234 1273.3806 4311.9794 1438.0889 4320.4025 1502.5157 4465.6688 1598.0135 4291.8696 1574.3727 4209.5141 1510.0569 4144.7184 1439.2688 4038.3535 1370.3796 4015.1807 1316.1037 Z" fill="none" stroke="#12852D" opacity="0.6" stroke-width="1" class="soundview"/>
<path d="M 4306.626 1272.4131 4403.2351 1571.4239 4322.833 1575.2428 4018.4171 1317.9402 4306.626 1272.4131 Z" fill="none" stroke="#12852D" opacity="0.6" stroke-width="1" class="soundview"/>
<path d="M 4241.3299 1171.2802 4298.9536 1383.7992 4166.8476 1406.097 4014.2604 1318.8662 4016.0058 1241.5506 4225.6346 1177.7467 4140.7294 1238.6159 4241.3299 1171.2802 Z" fill="none" stroke="#12852D" opacity="0.6" stroke-width="1" class="soundview"/>
<path d="M 4401.9309 1405.7322 4404.3623 1422.2836 4388.7431 1474.7826 4386.0261 1507.0083 4401.8296 1560.3783 4386.1384 1572.3741 4355.6558 1582.5535 4307.5861 1577.1092 4276.078 1524.6826 4239.0674 1497.1226 4209.1146 1493.0069 4169.3143 1451.6407 4146.1149 1417.5862 4123.933 1414.8569 4083.2555 1402.0273 4049.9522 1374.9185 4030.8588 1339.4638 4026.6706 1316.9186 4026.6687 1293.4175 4039.5183 1229.8942 4095.8644 1221.5332 4171.5834 1194.7339 4250.0683 1167.0046 4350.7539 1159.4784 4401.9309 1405.7322 Z" fill="none" stroke="#12852D" opacity="0.6" stroke-width="1" class="soundview"/>
<path d="M 4234.2562 1300.716 4235.8822 1306.466 4235.1906 1307.3875 4234.2562 1300.716 Z" fill="none" stroke="#12852D" opacity="0.6" stroke-width="1" class="soundview"/>
<path d="M 4076.6971 1367.5657 4080.8662 1375.384 4016.0949 1308.739 4050.0913 1168.7992 4183.5498 1144.6808 4202.5665 1196.1882 4317.0536 1433.0175 4371.1939 1480.3361 4397.1893 1549.3383 4341.7783 1574.2906 4076.6971 1367.5657 Z" fill="none" stroke="#12852D" opacity="0.6" stroke-width="1" class="soundview"/>
<path d="M 4035.3335 1186.3049 4092.5283 1126.4082 4242.235 1159.315 4306.3927 1412.323 4228.7803 1418.8903 4216.78 1427.1936 4234.375 1451.1007 4284.329 1483.2418 4190.9861 1480.6257 4077.1963 1394.2593 4021.64 1309.6521 4023.4228 1260.8685 4035.3335 1186.3049 Z" fill="none" stroke="#12852D" opacity="0.6" stroke-width="1" class="soundview"/>
<path d="M 4397.2021 1556.7036 4331.5781 1554.0529 4267.6841 1476.8243 4223.27 1440.9918 4179.7156 1360.053 4108.5002 1314.1345 4026.1688 1241.5371 4179.3885 1141.9262 4212.6753 1161.2014 4246.9264 1205.3228 4251.556 1211.7578 4299.6546 1246.6539 4392.0824 1267.6676 4406.0695 1341.2771 4396.1298 1471.0875 4397.2021 1556.7036 Z" fill="none" stroke="#12852D" opacity="0.6" stroke-width="1" class="soundview"/>
<path d="M 4307.3182 1413.242 4202.0128 1439.1833 4000.391 1311.521 4084.2051 1119.9781 4238.5368 1157.4803 4307.3182 1413.242 Z" fill="none" stroke="#12852D" opacity="0.6" stroke-width="1" class="soundview"/>
<path d="M 4055.55 1107.1345 4087.8886 1111.6908 4112.8386 1117.1769 4141.48 1119.8963 4178.4481 1130.8846 4213.5582 1134.5123 4231.129 1146.4485 4254.2346 1152.8542 4251.4805 1163.9019 4256.1302 1183.2207 4269.0964 1203.447 4271.8931 1219.0882 4276.5538 1244.8505 4284.9001 1264.1649 4302.4608 1267.818 4330.1712 1263.1705 4363.4046 1246.5481 4394.816 1245.5739 4433.6138 1241.8247 4477.0091 1226.1009 4479.826 1250.9454 4490.9837 1289.5814 4501.2608 1351.2317 4468.99 1389.9509 4463.5153 1428.6227 4455.2612 1463.6188 4408.1981 1502.3668 4397.0667 1478.4505 4388.7146 1458.2122 4362.8361 1456.4153 4355.228 1465.864 4344.6094 1471.1752 4334.9087 1472.8024 4321.7405 1473.2845 4310.6562 1476.5247 4299.7983 1477.0028 4290.3281 1478.399 4285.2513 1482.0896 4280.398 1481.1768 4269.0824 1484.417 4247.6174 1498.0298 4207.6489 1499.0124 4161.37 1451.2116 4126.2005 1414.4412 4067.0342 1396.1144 4052.6792 1372.6614 4031.8717 1360.2631 4029.0651 1334.4939 4011.9352 1307.3639 4009.139 1288.9593 4007.7264 1268.7125 4013.6997 1244.3147 4022.9185 1229.1167 4018.285 1218.5389 4014.5742 1207.0397 4024.2436 1183.5588 4039.461 1164.2122 4049.595 1143.4923 4045.8835 1131.534 4055.55 1107.1345 Z" fill="none" stroke="#12852D" opacity="0.6" stroke-width="1" class="soundview"/>
<path d="M 4129.6052 1212.8624 4146.4318 1347.2158 4134.4224 1349.0742 4110.4046 1353.7111 4037.4258 1367.6194 4018.9023 1335.428 4009.5931 1282.9761 4016.9273 1239.7087 4129.6052 1212.8624 Z" fill="none" stroke="#12852D" opacity="0.6" stroke-width="1" class="soundview"/>
<path d="M 4065.7699 1149.4519 4176.0525 1382.1501 4154.4059 1428.6683 4082.2908 1402.997 4064.712 1387.3728 4033.708 1351.5162 4026.7255 1312.4066 4018.805 1262.2552 4024.3161 1237.8581 4034.8902 1200.1101 4065.7699 1149.4519 Z" fill="none" stroke="#12852D" opacity="0.6" stroke-width="1" class="soundview"/>
<path d="M 4307.7837 1415.3124 4312.9148 1444.9915 4320.0755 1444.2893 4336.26 1451.8571 4340.9129 1471.1813 4267.2308 1482.3486 4196.2287 1433.6688 4210.9663 1402.3483 4170.087 1409.5441 4154.2422 1317.5199 4133.2286 1322.3829 4138.5851 1352.2898 4059.6016 1366.8989 4054.0153 1336.071 4032.7688 1340.2418 4028.1149 1314.9359 4024.1588 1293.0812 4018.5722 1260.8749 4023.3995 1243.3815 4032.8161 1203.5641 4045.49 1181.9197 4065.3074 1148.9924 4083.0639 1129.6423 4091.6028 1125.2592 4129.4841 1129.1162 4175.9128 1134.3393 4202.0268 1145.1129 4241.5432 1160.0063 4243.1754 1169.8968 4285.1786 1293.6171 4307.7837 1415.3124 Z" fill="none" stroke="#12852D" opacity="0.6" stroke-width="1" class="soundview"/>
<path d="M 3963.4342 1313.4095 3910.6512 1217.7554 3909.9831 1428.5364 4193.4631 1285.4768 3951.6367 1483.7189 3822.2686 1494.9199 3801.8067 1376.1921 3963.4342 1313.4095 Z" fill="none" stroke="#12852D" opacity="0.6" stroke-width="1" class="soundview"/>
<path d="M 4242.8916 1283.5599 4248.6626 1281.2498 4251.6733 1286.1922 4246.9541 1296.4392 4239.7946 1297.2558 4234.352 1288.0602 4242.8916 1283.5599 Z" fill="none" stroke="#12852D" opacity="0.6" stroke-width="1" class="soundview"/>
<path d="M 4425.31 1248.2819 4457.6437 1246.3837 4461.3476 1250.9788 4490.0985 1310.7526 4494.7808 1344.8004 4479.1178 1369.6817 4456.0945 1412.987 4435.9621 1524.413 4402.7873 1579.7108 4335.3286 1586.2703 4215.0804 1523.8577 4008.714 1317.0326 4425.31 1248.2819 Z" fill="none" stroke="#12852D" opacity="0.6" stroke-width="1" class="soundview"/>
<path d="M 4245.0123 1162.9918 4315.6833 1442.6855 4400.8926 1553.0146 4077.163 1370.3264 4030.8847 1313.3214 4024.3406 1256.2654 4091.6083 1129.1702 4245.0123 1162.9918 Z" fill="none" stroke="#12852D" opacity="0.6" stroke-width="1" class="soundview"/>
<path d="M 4065.3159 1155.2042 4126.801 1190.3186 4137.2805 1249.4351 4187.6283 1245.6791 4179.8337 1284.807 4246.3734 1294.3692 4265.0081 1392.1383 4173.0882 1408.1589 4129.8502 1382.2181 4075.1053 1385.7475 4039.4856 1353.3493 4026.9457 1304.3526 4026.4238 1259.4839 4037.4382 1205.6286 4065.3159 1155.2042 Z" fill="none" stroke="#12852D" opacity="0.6" stroke-width="1" class="soundview"/>
<path d="M 4142.5644 1229.8699 4178.3482 1218.3126 4188.8322 1278.1206 4168.5143 1284.1337 4159.7382 1285.0671 4150.7303 1285.5406 4142.5644 1229.8699 Z" fill="none" stroke="#12852D" opacity="0.6" stroke-width="1" class="soundview"/>
<path d="M 4037.1961 1197.3461 4034.2016 1203.3322 4032.9447 1213.3424 4027.3015 1224.9692 4025.9297 1235.44 4041.9211 1190.0922 4045.2621 1184.2208 4050.5628 1175.8158 4053.7872 1169.1393 4058.6282 1162.4606 4062.0851 1157.0492 4063.941 1163.0285 4067.5196 1162.1033 4073.9841 1160.4838 4079.1791 1159.3263 4082.7576 1158.401 4088.4164 1158.6231 4097.1896 1156.4251 4101.4599 1154.6936 4063.6988 1154.8613 4066.0015 1149.9117 4072.3566 1152.6637 4111.8506 1153.0683 4118.0866 1153.1744 4129.1698 1151.3179 4136.3258 1148.8918 4144.2924 1147.9599 4152.0275 1146.6832 4159.5305 1144.6016 4164.1489 1144.1346 4168.5637 1162.0734 4170.5404 1171.1582 4171.7106 1181.5098 4174.262 1188.7534 4174.2728 1196.0008 4176.249 1204.6259 4179.2664 1214.5149 4179.6221 1220.7266 4181.2566 1232.4586 4183.6953 1241.4283 4183.8241 1250.2867 4189.4071 1276.394 4192.2144 1299.8601 4197.2057 1316.3051 4200.6876 1327.4601 4210.6362 1337.6849 4217.3499 1347.2243 4230.191 1360.3211 4234.8226 1367.6777 4243.2724 1379.1706 4251.1445 1390.4343 4258.5513 1399.5127 4265.3809 1408.707 4277.4173 1423.3011 4296.3979 1445.939 4309.1364 1465.4803 4319.3352 1485.7164 4322.7059 1498.254 4325.6146 1510.7926 4327.7165 1524.3684 4329.1139 1531.0407 4329.8244 1541.5118 4332.7345 1554.7414 4317.1446 1558.5649 4311.0218 1558.6901 4296.2299 1555.9522 4292.625 1541.4577 4293.4998 1510.9603 4290.9243 1489.9055 4286.2876 1480.0166 4255.8935 1471.8949 4241.2031 1459.2601 4231.9551 1454.9018 4037.1961 1197.3461 Z" fill="none" stroke="#12852D" opacity="0.6" stroke-width="1" class="soundview"/>
<path d="M 4076.3948 1385.4659 4022.05 1308.1429 4027.5015 1239.1064 4052.3653 1179.2516 4089.2584 1135.9475 4119.7334 1128.5422 4162.2308 1130.3207 4214.9185 1150.4869 4229.1051 1170.9578 4462.9612 1260.4355 4464.6718 1256.565 4480.4622 1302.5562 4484.2503 1353.1737 4453.3529 1422.8646 4409.0625 1460.6855 4405.5389 1560.1186 4336.7508 1568.4232 4273.6793 1490.3079 4206.2035 1482.128 4179.9275 1447.7751 4076.3948 1385.4659 Z" fill="none" stroke="#12852D" opacity="0.6" stroke-width="1" class="soundview"/>
<path d="M 4124.0619 1212.8704 4116.5351 1118.0919 4214.3703 1061.8137 4236.7193 1176.8091 4234.8616 1170.37 4124.0619 1212.8704 Z" fill="none" stroke="#12852D" opacity="0.6" stroke-width="1" class="soundview"/></svg>