<?xml version="1.0"?><svg xmlns="http://www.w3.org/2000/svg" version="1.2" baseProfile="tiny" width="6000" height="5918" viewBox="0 0 6000 5918" stroke-linecap="round" stroke-linejoin="round"><path d="M 4611.6156 3446.4694 4597.2471 3200.2228 5103.7132 3214.7838 5091.2826 3430.651 4945.1619 3515.8714 4982.6011 3683.7059 5229.2689 3787.3691 4707.4687 3674.1611 4611.6156 3446.4694 Z" fill="none" stroke="#A9159C" opacity="0.6" stroke-width="1" class="south_ozone_park"/>
<path d="M 4442.8713 3334.2462 4985.29 3251.0388 5044.9844 3432.6087 5033.2599 3563.6387 4817.5392 3601.0368 4486.7542 3533.4236 4442.8713 3334.2462 Z" fill="none" stroke="#A9159C" opacity="0.6" stroke-width="1" class="south_ozone_park"/>
<path d="M 4720.0578 3043.2059 5375.3145 2998.2849 5339.0988 3635.7446 4521.2583 3660.6847 4387.2029 3269.7785 4720.0578 3043.2059 Z" fill="none" stroke="#A9159C" opacity="0.6" stroke-width="1" class="south_ozone_park"/>
<path d="M 4642.9502 2904.1345 5388.2639 3328.4057 4419.8708 3419.1501 4642.9502 2904.1345 Z" fill="none" stroke="#A9159C" opacity="0.6" stroke-width="1" class="south_ozone_park"/>
<path d="M 4656.8582 3379.0402 4742.9031 3343.8123 4714.6565 3566.1946 4615.5329 3555.3225 4500.6092 3513.1018 4556.8044 3355.2522 4656.8582 3379.0402 Z" fill="none" stroke="#A9159C" opacity="0.6" stroke-width="1" class="south_ozone_park"/>
<path d="M 4701.7183 3354.044 4852.5335 3299.7637 4895.389 3416.3531 4893.5411 3418.2022 4896.0725 3514.1382 4690.0393 3530.2638 4713.8377 3393.6834 4701.7183 3354.044 Z" fill="none" stroke="#A9159C" opacity="0.6" stroke-width="1" class="south_ozone_park"/>
<path d="M 4646.5019 3526.1999 4547.8468 3515.5509 4549.1222 3516.5864 4546.9248 3517.7437 4552.6537 3486.2509 4479.4208 3383.7602 4494.2513 3391.5739 4493.6308 3368.7448 4526.371 3359.6908 4833.6392 3233.8592 4865.5537 3221.3379 4870.2025 3230.0893 4935.2066 3415.3401 4704.4046 3535.078 4548.3138 3517.6258 4646.5019 3526.1999 Z" fill="none" stroke="#A9159C" opacity="0.6" stroke-width="1" class="south_ozone_park"/>
<path d="M 4709.1183 3575.4322 4558.9627 3516.6831 4508.9002 3489.1002 4556.7992 3352.485 4664.2495 3370.7235 4865.9727 3305.7292 4918.0434 3401.5424 4896.1224 3536.2798 4827.6512 3565.9548 4772.1113 3580.8363 4709.1183 3575.4322 Z" fill="none" stroke="#A9159C" opacity="0.6" stroke-width="1" class="south_ozone_park"/>
<path d="M 4562.1368 3355.052 5197.5128 3327.0711 5177.0029 3998.8551 4464.9146 3749.3712 4562.1368 3355.052 Z" fill="none" stroke="#A9159C" opacity="0.6" stroke-width="1" class="south_ozone_park"/>
<path d="M 4460.481 3343.4387 4541.9246 3321.1518 4547.6629 3417.9953 4454.1855 3447.6863 4460.481 3343.4387 Z" fill="none" stroke="#A9159C" opacity="0.6" stroke-width="1" class="south_ozone_park"/>
<path d="M 4804.5627 3167.5197 4856.6849 3292.8369 4855.763 3294.6836 4701.7116 3350.8156 4658.4506 3249.4443 4804.5627 3167.5197 Z" fill="none" stroke="#A9159C" opacity="0.6" stroke-width="1" class="south_ozone_park"/>
<path d="M 4818.2971 3523.536 4899.7957 3522.4329 4682.2044 3548.7315 4710.5948 3392.7677 4899.5562 3416.3437 4907.2153 3527.029 4904.4244 3521.4999 4818.2971 3523.536 Z" fill="none" stroke="#A9159C" opacity="0.6" stroke-width="1" class="south_ozone_park"/>
<path d="M 4911.8796 3541.7797 4661.8065 3537.7016 4659.028 3537.7071 4488.5409 3497.4404 4496.5346 3311.09 4798.0981 3174.9115 4911.8796 3541.7797 Z" fill="none" stroke="#A9159C" opacity="0.6" stroke-width="1" class="south_ozone_park"/>
<path d="M 4877.9038 3207.3094 4843.291 3161.2925 4896.9034 3210.3914 4949.4854 3214.2629 4979.1533 3231.7172 5010.718 3267.6127 4996.9407 3314.685 4996.0561 3345.1729 4976.6518 3362.7442 4945.2405 3394.1799 5014.8441 3446.3098 5008.7837 3381.4758 5047.9053 3476.3977 5028.5478 3514.2686 4931.3698 3513.45 4920.4651 3503.563 4724.5016 3497.6866 4664.3131 3502.4222 4580.9251 3444.3085 4618.7419 3366.7488 4633.4538 3314.1434 4701.2248 3234.3094 4719.5627 3147.5803 4795.5181 3154.3727 4800.1034 3134.0744 4844.5217 3125.6779 4892.4701 3112.7769 4909.024 3113.0152 4942.272 3078.8194 4960.7498 3063.1004 4971.9615 3107.3373 4971.152 3157.1376 4974.894 3173.7289 4976.8233 3206.9254 4980.2046 3216.4796 4974.6545 3218.6055 4973.7437 3225.0636 4877.9038 3207.3094 Z" fill="none" stroke="#A9159C" opacity="0.6" stroke-width="1" class="south_ozone_park"/>
<path d="M 4685.8615 3548.9778 4660.6456 3248.4337 4815.1975 3165.8856 4895.6754 3513.0339 4916.9555 3503.7601 4912.2064 3532.3704 4809.7973 3570.83 4789.0121 3577.5286 4685.8615 3548.9778 Z" fill="none" stroke="#A9159C" opacity="0.6" stroke-width="1" class="south_ozone_park"/>
<path d="M 4804.5627 3167.5197 4890.5156 3514.1507 4494.1195 3509.4234 4551.245 3353.4179 4804.5627 3167.5197 Z" fill="none" stroke="#A9159C" opacity="0.6" stroke-width="1" class="south_ozone_park"/>
<path d="M 4815.7103 3185.0181 4911.8377 3523.3282 4482.1033 3522.3612 4453.0288 3318.5476 4815.7103 3185.0181 Z" fill="none" stroke="#A9159C" opacity="0.6" stroke-width="1" class="south_ozone_park"/>
<path d="M 4479.3951 3561.1148 4458.7613 3417.2362 4991.7994 3263.0135 5025.7843 3535.9787 4661.008 3601.3636 4522.4178 3786.1784 4479.3951 3561.1148 Z" fill="none" stroke="#A9159C" opacity="0.6" stroke-width="1" class="south_ozone_park"/>
<path d="M 4662.4234 3383.6412 4652.2226 3376.2821 4668.8999 3380.8608 4866.8761 3295.5813 4906.2808 3523.3408 4627.5441 3540.5374 4656.8766 3388.2645 4662.4234 3383.6412 Z" fill="none" stroke="#A9159C" opacity="0.6" stroke-width="1" class="south_ozone_park"/>
<path d="M 4862.4532 3388.7531 4696.8271 3452.7567 4715.3067 3432.4239 4721.7413 3409.3488 4638.9678 3229.6537 4779.6213 3193.3959 4862.4532 3388.7531 Z" fill="none" stroke="#A9159C" opacity="0.6" stroke-width="1" class="south_ozone_park"/>
<path d="M 4391.6673 3173.8539 4752.6173 3119.6758 4905.2837 3491.9761 4481.1571 3511.2921 4391.6673 3173.8539 Z" fill="none" stroke="#A9159C" opacity="0.6" stroke-width="1" class="south_ozone_park"/>
<path d="M 4799.8306 3168.6117 4902.3449 3529.5641 4555.6001 3518.7588 4479.1792 3194.8795 4799.8306 3168.6117 Z" fill="none" stroke="#A9159C" opacity="0.6" stroke-width="1" class="south_ozone_park"/>
<path d="M 4714.2798 3383.5357 4472.7134 3333.0969 4660.5457 3245.9182 4815.6763 3169.3401 4844.0082 3156.3445 4922.9379 3260.3837 4714.2798 3383.5357 Z" fill="none" stroke="#A9159C" opacity="0.6" stroke-width="1" class="south_ozone_park"/>
<path d="M 4591.9987 3358.8745 4908.8229 3419.0902 4864.6289 3534.5051 4358.8143 3456.1544 4416.9235 3322.3009 4591.9987 3358.8745 Z" fill="none" stroke="#A9159C" opacity="0.6" stroke-width="1" class="south_ozone_park"/>
<path d="M 4688.6407 3525.6538 4631.2141 3523.0012 4667.0386 3376.2524 4816.0025 3319.6745 4636.3984 3334.8052 4580.8444 3336.7584 4798.3123 3274.5175 4814.0426 3269.8719 4864.9546 3264.2262 4857.8313 3392.4532 4855.247 3480.0951 4889.5688 3504.9272 4907.9219 3430.1619 4858.011 3473.6313 4688.6407 3525.6538 Z" fill="none" stroke="#A9159C" opacity="0.6" stroke-width="1" class="south_ozone_park"/>
<path d="M 4848.6449 3271.1082 4901.8811 3415.1333 4911.3079 3488.4508 4821.9969 3477.2455 4645.0676 3431.0779 4651.2437 3405.9305 4646.6271 3377.4712 4613.5959 3370.1861 4608.2536 3362.8172 4848.6449 3271.1082 Z" fill="none" stroke="#A9159C" opacity="0.6" stroke-width="1" class="south_ozone_park"/>
<path d="M 4851.2952 3415.3888 4511.1819 3507.5479 4499.465 3283.7111 4795.159 3238.0348 4851.2952 3415.3888 Z" fill="none" stroke="#A9159C" opacity="0.6" stroke-width="1" class="south_ozone_park"/>
<path d="M 4640.1883 3378.1509 4488.2533 3339.6989 4821.4036 3248.6426 4852.9893 3296.5345 4903.2687 3420.0252 4848.133 3613.887 4470.0069 3491.0163 4443.7874 3328.7102 4640.1883 3378.1509 Z" fill="none" stroke="#A9159C" opacity="0.6" stroke-width="1" class="south_ozone_park"/>
<path d="M 4900.6885 3507.6699 4685.911 3549.6466 4614.5616 3532.2597 4654.0857 3381.813 4572.1616 3154.1594 4750.7019 3089.2484 4768.2827 3085.5227 4918.1463 3446.7435 4900.6885 3507.6699 Z" fill="none" stroke="#A9159C" opacity="0.6" stroke-width="1" class="south_ozone_park"/>
<path d="M 4652.9267 3323.1273 4653.5093 3325.0862 4652.582 3324.3963 4652.9267 3323.1273 Z" fill="none" stroke="#A9159C" opacity="0.6" stroke-width="1" class="south_ozone_park"/>
<path d="M 4621.0465 3533.1695 4648.5241 3379.0568 4559.5736 3350.6349 4828.7925 3240.3258 4903.2562 3414.4904 4903.4857 3515.9666 4788.7672 3573.4198 4621.0465 3533.1695 Z" fill="none" stroke="#A9159C" opacity="0.6" stroke-width="1" class="south_ozone_park"/>
<path d="M 4879.4119 3104.6459 4926.966 3253.9409 4936.1613 3226.2509 4976.8729 3215.0892 4937.8773 3167.2226 4922.9466 3115.6135 4878.8997 3289.5593 4991.3071 3250.5635 5011.7915 3298.9374 5023.5617 3381.0024 5055.1497 3423.8206 4978.8146 3451.2159 4847.8555 3487.953 4787.2289 3503.7679 4681.1698 3495.2246 4704.1581 3414.9198 4692.9177 3352.2172 4680.6968 3261.8506 4744.4826 3213.7599 4778.6778 3185.0977 4820.2772 3156.419 4860.0287 3130.5101 4879.4119 3104.6459 Z" fill="none" stroke="#A9159C" opacity="0.6" stroke-width="1" class="south_ozone_park"/>
<path d="M 4853.0179 3309.4474 4905.0164 3373.8988 4921.0907 3519.6169 4501.5286 3509.4098 4448.4139 3326.8573 4816.6001 3168.4159 4853.0179 3309.4474 Z" fill="none" stroke="#A9159C" opacity="0.6" stroke-width="1" class="south_ozone_park"/>
<path d="M 4667.7641 3276.634 4807.4856 3234.8383 4899.2792 3293.664 4975.6251 3473.3636 4912.9127 3588.8306 4727.7686 3636.2886 4589.6427 3577.5155 4564.2438 3371.8416 4667.7641 3276.634 Z" fill="none" stroke="#A9159C" opacity="0.6" stroke-width="1" class="south_ozone_park"/>
<path d="M 4860.6979 3536.8203 4619.6545 3531.7884 4654.9896 3370.7421 4657.0726 3370.5073 4854.8447 3298.1445 4905.1336 3527.9563 4904.6799 3532.1089 4674.3702 3567.6607 4681.0163 3533.7418 4739.8315 3535.6966 4860.6979 3536.8203 Z" fill="none" stroke="#A9159C" opacity="0.6" stroke-width="1" class="south_ozone_park"/>
<path d="M 5038.8613 3004.6869 5050.4261 3002.3538 5209.1508 2993.658 5323.3996 3139.9745 5177.3671 3233.9666 5038.8613 3004.6869 Z" fill="none" stroke="#A9159C" opacity="0.6" stroke-width="1" class="south_ozone_park"/>
<path d="M 4655.9358 3380.8869 5049.6124 3431.6751 5037.811 3530.4143 4621.9926 3543.3161 4655.9358 3380.8869 Z" fill="none" stroke="#A9159C" opacity="0.6" stroke-width="1" class="south_ozone_park"/>
<path d="M 4919.9627 3431.057 4898.83 3504.9064 4867.7918 3290.9675 4984.3728 3254.7302 5059.8057 3434.4178 5042.4195 3521.1775 4915.5863 3542.6939 4786.0044 3580.8067 4683.1456 3556.1104 4686.7303 3497.0584 4677.1873 3357.7836 4869.6498 3293.7305 4919.9627 3431.057 Z" fill="none" stroke="#A9159C" opacity="0.6" stroke-width="1" class="south_ozone_park"/>
<path d="M 4764.3196 3578.8479 4563.9867 3529.6855 4488.5884 3321.3465 4801.2291 3172.2884 4910.8115 3424.9591 4893.0487 3573.0312 4764.3196 3578.8479 Z" fill="none" stroke="#A9159C" opacity="0.6" stroke-width="1" class="south_ozone_park"/>
<path d="M 4844.6073 3274.4168 4907.0899 3471.6764 4496.8861 3502.9605 4550.3173 3352.4973 4612.3686 3357.9125 4844.6073 3274.4168 Z" fill="none" stroke="#A9159C" opacity="0.6" stroke-width="1" class="south_ozone_park"/>
<path d="M 4806.7004 3514.3354 4713.9081 3540.1327 4621.7375 3531.323 4658.7092 3378.5752 4830.7786 3407.7331 4811.1065 3517.5549 4806.7004 3514.3354 Z" fill="none" stroke="#A9159C" opacity="0.6" stroke-width="1" class="south_ozone_park"/></svg>