<?xml version="1.0"?><svg xmlns="http://www.w3.org/2000/svg" version="1.2" baseProfile="tiny" width="6000" height="5918" viewBox="0 0 6000 5918" stroke-linecap="round" stroke-linejoin="round"><path d="M 5210.7852 3446.4929 5312.135 3425.9305 5314.4191 3414.3934 5198.4245 3321.5345 5250.1732 3281.7384 5344.7744 3339.5941 5343.5867 3243.673 5482.3929 3217.46 5396.785 3395.7185 5386.9391 3518.4397 5346.3854 3590.5144 5356.68 3629.2378 5202.8895 3616.7295 5134.096 3516.3394 5210.7852 3446.4929 Z" fill="none" stroke="#A9159C" opacity="0.6" stroke-width="1" class="springfield_gardens"/>
<path d="M 5339.3015 3370.0486 5396.0739 3502.227 5350.0856 3618.6027 5273.1516 3597.5889 5247.1884 3586.5857 5229.5785 3582.0186 5227.6828 3565.4164 5223.0135 3550.6668 5224.8635 3549.7394 5216.4968 3537.7674 5215.4918 3507.3251 5211.7514 3493.4966 5225.6071 3479.6225 5339.3015 3370.0486 Z" fill="none" stroke="#A9159C" opacity="0.6" stroke-width="1" class="springfield_gardens"/>
<path d="M 5239.9027 3602.7935 5385.7246 3414.429 5386.7638 3413.5037 5379.8262 3416.2903 5386.8767 3412.4656 5395.9744 3395.6055 5393.3047 3392.9608 5382.6393 3387.1099 5370.264 3390.8338 5370.8596 3396.9434 5374.4683 3404.3131 5383.3855 3405.7874 5368.2453 3414.362 5362.8321 3424.2935 5348.2431 3422.9498 5349.6548 3431.2482 5312.64 3441.4961 5312.1593 3434.9247 5307.4669 3454.8863 5309.918 3462.3751 5300.0016 3476.9315 5293.768 3483.5212 5293.0839 3487.4438 5244.15 3500.6043 5242.886 3504.1825 5241.5074 3508.2223 5239.2108 3515.3782 5244.2287 3530.5875 5239.8147 3524.9483 5239.947 3531.2907 5240.8738 3531.5189 5239.9633 3537.5181 5240.8998 3541.4366 5240.45 3546.5121 5239.5353 3550.8968 5238.8636 3559.6633 5234.0198 3566.8262 5184.2526 3572.9519 5184.9366 3568.7983 5194.1843 3563.2389 5163.5108 3520.1861 5136.2007 3524.6372 5116.2903 3525.3789 5103.0955 3526.5648 5081.566 3528.0017 5076.2091 3515.0988 5066.4785 3512.5855 5078.3613 3448.4406 5080.1937 3440.3643 5099.7831 3404.109 5113.4133 3392.5446 5118.2611 3386.9979 5131.8886 3374.511 5144.827 3364.3318 5170.1594 3403.2407 5172.9762 3418.4542 5212.4703 3471.3963 5209.6246 3445.3428 5247.3419 3437.6339 5273.3758 3389.5969 5281.1334 3346.9142 5321.0549 3385.5488 5321.9566 3376.5526 5347.4735 3310.7623 5351.3431 3286.7704 5354.8203 3288.6056 5361.9892 3286.0495 5372.1545 3278.8734 5388.7926 3268.6817 5420.4488 3248.7634 5442.4148 3240.4007 5458.9015 3258.8001 5376.0725 3440.2852 5393.6786 3444.157 5405.9876 3457.9603 5448.1839 3478.8288 5448.9917 3518.7268 5381.1533 3519.3783 5278.3627 3523.8087 5274.2342 3538.581 5267.1163 3561.2035 5272.8986 3646.0721 5263.9162 3576.8965 5239.9027 3602.7935 Z" fill="none" stroke="#A9159C" opacity="0.6" stroke-width="1" class="springfield_gardens"/>
<path d="M 5154.5459 3179.6109 5680.1139 3084.0719 5721.3357 3240.7223 5371.6629 3352.4339 5154.5459 3179.6109 Z" fill="none" stroke="#A9159C" opacity="0.6" stroke-width="1" class="springfield_gardens"/>
<path d="M 5213.1139 3630.5431 5285.6543 3521.7126 5509.6985 3541.7287 5364.2469 3737.8776 5213.1139 3630.5431 Z" fill="none" stroke="#A9159C" opacity="0.6" stroke-width="1" class="springfield_gardens"/>
<path d="M 5427.1709 3334.2924 5393.8332 3499.7387 5376.7923 3533.229 5281.5944 3520.1098 5318.761 3393.3958 5338.2945 3340.3035 5427.1709 3334.2924 Z" fill="none" stroke="#A9159C" opacity="0.6" stroke-width="1" class="springfield_gardens"/>
<path d="M 5139.6668 3521.8608 5612.9531 3529.7793 5817.418 3749.6639 5614.5516 4060.4065 5139.6668 3521.8608 Z" fill="none" stroke="#A9159C" opacity="0.6" stroke-width="1" class="springfield_gardens"/>
<path d="M 5082.0514 3442.666 5098.6181 3401.1139 5147.5765 3353.0253 5169.7554 3335.4436 5210.4666 3323.3481 5319.9877 3418.9907 5319.139 3447.5901 5289.6673 3508.5562 5229.4785 3512.4053 5135.9367 3511.722 5082.0514 3442.666 Z" fill="none" stroke="#A9159C" opacity="0.6" stroke-width="1" class="springfield_gardens"/>
<path d="M 5172.2086 3571.5987 5181.4045 3545.7422 5175.7793 3519.0017 5161.803 3485.8254 5101.776 3367.4371 5104.5654 3372.0423 5110.5615 3362.8033 5119.8075 3357.2458 5141.582 3362.7258 5162.8879 3365.9004 5186.0814 3382.9062 5191.635 3381.9696 5219.7967 3350.5345 5253.6094 3355.9806 5227.2658 3374.0367 5233.3992 3417.8371 5230.7161 3454.2824 5221.4757 3462.1478 5172.2086 3571.5987 Z" fill="none" stroke="#A9159C" opacity="0.6" stroke-width="1" class="springfield_gardens"/></svg>