<?xml version="1.0"?><svg xmlns="http://www.w3.org/2000/svg" version="1.2" baseProfile="tiny" width="6000" height="5918" viewBox="0 0 6000 5918" stroke-linecap="round" stroke-linejoin="round"><path d="M 1957.3115 3937.8974 1861.6207 3963.4235 1845.8786 3953.4862 1825.509 3938.4678 1821.8171 3924.1582 1826.2418 3900.3968 1830.8939 3880.5586 1831.3848 3852.6413 1803.6356 3808.5467 1845.5807 3783.4412 1876.8421 3788.316 1905.0977 3788.1114 1947.9207 3814.9117 1991.424 3862.4762 1957.3115 3937.8974 Z" fill="none" stroke="#A9159C" opacity="0.6" stroke-width="1" class="st__george"/>
<path d="M 5221.4421 3310.9373 5182.0358 3257.6883 5156.4468 3207.4885 5142.2965 3167.3037 5112.0443 3106.967 5065.4126 3090.521 5142.9468 3056.1722 5192.3662 3082.4389 5250.5668 3134.9459 5276.5862 3171.7657 5311.4276 3216.9875 5348.1745 3235.3971 5358.934 3294.2529 5348.7016 3349.3244 5345.5602 3385.7687 5295.5112 3369.3002 5254.2377 3344.0434 5228.7027 3316.9 5221.4421 3310.9373 Z" fill="none" stroke="#A9159C" opacity="0.6" stroke-width="1" class="st__george"/>
<path d="M 1824.9528 3799.109 1845.2305 3786.3247 1853.3339 3789.101 1894.5472 3801.8288 1924.638 3821.8126 1952.3886 3871.211 1949.1331 3886.0902 1941.385 3873.0473 1925.3935 3883.8774 1922.1572 3876.6066 1869.8025 3884.9801 1867.7238 3878.7484 1858.7107 3857.7438 1824.9528 3799.109 Z" fill="none" stroke="#A9159C" opacity="0.6" stroke-width="1" class="st__george"/>
<path d="M 1944.1098 3936.0401 1913.5411 3927.7064 1856.9894 3961.8039 1847.7272 3958.103 1820.8797 3935.0021 1831.1484 3857.4863 1806.1776 3814.0863 1841.4108 3784.5907 1842.3426 3779.0547 1907.1852 3784.6527 1975.7049 3825.3174 2003.4788 3849.3349 2021.0024 3949.9484 1944.1098 3936.0401 Z" fill="none" stroke="#A9159C" opacity="0.6" stroke-width="1" class="st__george"/>
<path d="M 1991.4431 3839.1734 1935.7668 3940.6477 1867.1808 3962.7366 1843.1331 3918.4108 1839.4812 3863.0318 1809.8824 3815.0129 1839.5535 3789.203 1887.7248 3791.0946 1991.4431 3839.1734 Z" fill="none" stroke="#A9159C" opacity="0.6" stroke-width="1" class="st__george"/>
<path d="M 1804.7913 3810.855 1840.9463 3785.9745 1899.2939 3803.1021 1952.0402 3872.3644 1946.4249 3937.4266 1914.466 3929.5532 1859.7651 3965.96 1819.0322 3929.4624 1832.5376 3857.9491 1804.7913 3810.855 Z" fill="none" stroke="#A9159C" opacity="0.6" stroke-width="1" class="st__george"/>
<path d="M 1915.3926 3929.554 1907.0491 3934.6227 1893.1453 3940.6093 1887.577 3950.2954 1887.3486 3946.834 1881.6671 3953.6357 1875.7563 3957.7836 1871.9311 3961.0105 1865.7895 3964.2351 1862.4299 3965.0395 1856.0619 3962.726 1851.4357 3955.7991 1842.1768 3948.8677 1841.0213 3946.0976 1835.4667 3941.2466 1830.8385 3936.6272 1825.1698 3930.1608 1824.7138 3922.892 1824.1408 3916.7769 1825.7737 3905.2417 1827.2895 3894.9756 1829.9627 3885.403 1830.7811 3877.559 1831.4785 3875.0217 1833.9213 3864.0646 1832.7709 3856.2189 1831.505 3848.1424 1829.656 3844.2183 1827.001 3835.5637 1824.8024 3833.8312 1820.9835 3831.1741 1814.6255 3819.8627 1813.5844 3818.7081 1805.7191 3809.4716 1806.9941 3808.3194 1808.8483 3807.0523 1815.1149 3793.7929 1821.1381 3792.2993 1824.26 3797.032 1882.1716 3785.5525 1927.5472 3805.8961 1956.2426 3833.6067 1965.4852 3859.4552 1964.5267 3897.2938 1948.7481 3929.5834 1947.8144 3937.8893 1929.2858 3935.1042 1924.6531 3935.1 1915.3926 3929.554 Z" fill="none" stroke="#A9159C" opacity="0.6" stroke-width="1" class="st__george"/>
<path d="M 1950.6181 3909.9723 1947.9541 3910.2007 1949.452 3919.0854 1946.6705 3921.275 1946.8971 3927.159 1944.8118 3927.8494 1951.1784 3931.7775 1943.7664 3931.3096 1942.4913 3932.5776 1936.5854 3931.6495 1931.2579 3931.5294 1929.2869 3933.8351 1921.4168 3927.5981 1918.9826 3929.9033 1915.6275 3925.8624 1925.7182 3909.489 1916.4461 3917.095 1917.3726 3917.0959 1910.7648 3924.1274 1912.6171 3924.9367 1905.199 3931.2753 1906.241 3931.7377 1899.1715 3936.6922 1899.0535 3939.1149 1893.0286 3941.6476 1889.7826 3944.875 1885.4971 3945.1017 1885.6128 3945.2172 1879.8166 3950.7497 1881.7805 3956.174 1873.6705 3958.82 1871.6991 3961.4718 1865.3293 3961.0042 1865.5562 3965.9655 1857.1082 3958.6889 1856.4143 3957.6498 1854.9085 3957.7638 1847.2684 3953.4876 1846.3432 3952.1022 1842.1679 3957.9822 1839.164 3950.3646 1838.2368 3951.0559 1840.2148 3941.8281 1842.8815 3938.831 1842.0745 3935.023 1840.2258 3930.5218 1840.6834 3936.2907 1838.6108 3923.9441 1840.9278 3923.2541 1840.0081 3916.3311 1838.505 3913.7915 1836.7771 3904.2143 1835.8487 3906.1746 1836.2082 3893.8308 1835.5103 3896.945 1836.6788 3886.4479 1834.7112 3885.1769 1834.9453 3882.6391 1835.1807 3878.8323 1836.4579 3875.488 1835.1858 3873.641 1835.3038 3871.4492 1835.655 3867.5272 1837.626 3865.3372 1838.902 3863.1466 1840.9898 3859.9185 1837.7513 3855.647 1835.9013 3852.6458 1839.3696 3858.7633 1837.5181 3857.2618 1831.9679 3848.4889 1832.6642 3846.9899 1831.9704 3845.951 1826.6513 3837.8706 1826.3027 3839.0238 1821.9096 3831.5211 1821.6784 3831.0594 1819.7147 3826.0971 1817.4022 3822.5187 1812.6577 3819.0532 1809.9972 3816.0513 1812.1971 3816.3996 1809.3054 3813.0513 1894.7625 3819.4785 1895.5749 3817.6335 1892.1058 3812.2086 1892.8025 3810.1328 1893.9636 3806.7886 1838.2425 3827.1537 1843.6862 3826.2361 1851.9069 3827.7438 1858.0442 3828.2111 1857.4669 3826.3648 1862.2179 3823.2547 1868.5891 3821.1844 1874.2587 3826.3808 1882.942 3828.5807 1888.6125 3832.8543 1890.2339 3832.7404 1899.963 3831.2497 1898.342 3830.9021 1905.1822 3822.4873 1903.4469 3820.5246 1901.7109 3819.3695 1901.4901 3807.4876 1893.7356 3802.8663 1893.9687 3801.2515 1899.9897 3802.0645 1925.2229 3815.2378 1931.2407 3819.7421 1933.4381 3822.974 1934.941 3825.8593 1939.8016 3829.555 1935.2836 3831.3967 1938.7554 3834.1684 1933.6613 3832.5489 1933.0824 3832.433 1933.6543 3840.5087 1935.3885 3843.8556 1933.8797 3847.5458 1941.8641 3854.8205 1944.7544 3860.4757 1947.4184 3860.132 1949.0377 3862.4406 1947.0627 3869.5914 1947.172 3877.2054 1944.9657 3883.8946 1945.1951 3886.5482 1945.6567 3888.3945 1950.6288 3897.5127 1948.8856 3904.4331 1950.6181 3909.9723 Z" fill="none" stroke="#A9159C" opacity="0.6" stroke-width="1" class="st__george"/>
<path d="M 1809.8806 3816.8586 1837.717 3772.5905 1901.6353 3775.4195 1968.2171 3915.7557 1864.3976 3966.4259 1809.8806 3816.8586 Z" fill="none" stroke="#A9159C" opacity="0.6" stroke-width="1" class="st__george"/>
<path d="M 1809.4192 3815.0125 1805.7158 3812.7016 1820.0893 3798.8735 1845.5783 3785.979 1874.2863 3797.0804 1895.5899 3801.253 1921.0511 3818.3487 1937.7039 3844.6652 1952.7329 3874.9029 1946.7029 3883.8961 1951.0801 3911.3571 1945.963 3935.811 1934.6124 3936.2626 1914.4658 3929.7839 1861.6196 3964.5773 1847.729 3956.257 1824.6995 3937.3133 1821.119 3927.3879 1832.5413 3854.2575 1832.0794 3852.8727 1809.4192 3815.0125 Z" fill="none" stroke="#A9159C" opacity="0.6" stroke-width="1" class="st__george"/>
<path d="M 1945.0351 3937.4254 1925.5825 3931.8705 1913.5852 3878.7909 1895.5173 3880.1588 1878.4149 3839.997 1831.654 3814.5733 1822.8699 3797.492 1845.1155 3785.5171 1909.0129 3812.3394 1953.4307 3871.4426 1945.0351 3937.4254 Z" fill="none" stroke="#A9159C" opacity="0.6" stroke-width="1" class="st__george"/>
<path d="M 1976.5397 3935.1448 1850.4935 3971.9506 1822.7604 3907.3154 1824.6594 3861.1714 1863.625 3804.9144 1905.3249 3792.9564 1988.6614 3841.9398 1976.5397 3935.1448 Z" fill="none" stroke="#A9159C" opacity="0.6" stroke-width="1" class="st__george"/>
<path d="M 1954.3065 3930.5111 1911.6872 3928.6277 1883.8721 3948.9075 1882.0715 3892.6057 1862.6572 3848.288 1924.7524 3823.4277 1948.8039 3864.9784 1954.3065 3930.5111 Z" fill="none" stroke="#A9159C" opacity="0.6" stroke-width="1" class="st__george"/>
<path d="M 1926.5062 3935.1017 1916.3199 3928.6319 1891.2897 3943.3765 1863.4736 3963.6561 1856.0584 3966.4179 1836.6138 3952.5542 1823.6594 3935.0048 1820.8871 3927.6184 1827.4159 3884.2468 1830.2146 3864.8685 1826.5279 3845.4842 1806.1805 3811.3178 1838.6325 3783.6652 1870.1222 3792.0009 1903.4619 3804.0288 1920.1235 3819.7322 1933.9997 3842.8161 1953.4283 3874.2114 1949.7128 3885.2831 1949.689 3912.971 1945.0363 3936.0409 1926.5062 3935.1017 Z" fill="none" stroke="#A9159C" opacity="0.6" stroke-width="1" class="st__george"/>
<path d="M 1805.7177 3810.8559 1843.2632 3785.0539 1896.5159 3801.7153 1925.2164 3822.5053 1954.8149 3877.9042 1946.9313 3887.588 1950.1534 3911.587 1943.6453 3937.4242 1915.3926 3929.554 1860.6908 3966.8839 1823.1956 3935.4659 1820.4229 3928.5409 1831.1475 3858.4091 1805.7177 3810.8559 Z" fill="none" stroke="#A9159C" opacity="0.6" stroke-width="1" class="st__george"/>
<path d="M 1797.8464 3807.6179 1834.4701 3777.2014 1895.6061 3783.7193 1948.3757 3824.3713 1990.503 3855.7845 1989.5205 3924.08 1961.7091 3942.0545 1947.3519 3936.9659 1919.0975 3930.9417 1851.4304 3961.337 1813.0092 3929.9179 1836.2363 3865.3359 1797.8464 3807.6179 Z" fill="none" stroke="#A9159C" opacity="0.6" stroke-width="1" class="st__george"/>
<path d="M 1817.5475 3793.1032 1852.9962 3779.0651 1890.9734 3784.4071 1926.8608 3796.4364 1955.0966 3819.5321 1992.6087 3829.9457 2003.9366 3856.0261 2009.0012 3894.7924 1976.5632 3906.9947 1940.4233 3913.4245 1909.6244 3904.3984 1882.0558 3909.4492 1879.2832 3902.0631 1872.345 3890.7507 1865.4087 3877.5926 1858.0125 3861.204 1850.6152 3846.1999 1840.6718 3829.8093 1833.5046 3816.8822 1825.6409 3805.8003 1817.5475 3793.1032 Z" fill="none" stroke="#A9159C" opacity="0.6" stroke-width="1" class="st__george"/>
<path d="M 1859.7673 3963.6525 1820.4234 3928.0794 1830.1973 3882.4037 1806.1809 3810.8564 1846.0401 3787.3637 1915.4946 3816.0366 1947.3974 3884.3582 1938.0896 3933.266 1911.2235 3929.0887 1859.7673 3963.6525 Z" fill="none" stroke="#A9159C" opacity="0.6" stroke-width="1" class="st__george"/>
<path d="M 1861.6319 3951.6554 1835.4602 3947.9381 1809.8859 3811.5523 1850.6717 3787.8296 1908.3294 3799.8804 1990.7456 3842.4029 1976.3106 3932.1449 1945.9632 3935.5802 1926.0466 3930.9479 1898.4707 3943.1524 1873.216 3949.5897 1865.1081 3950.0435 1861.6319 3951.6554 Z" fill="none" stroke="#A9159C" opacity="0.6" stroke-width="1" class="st__george"/>
<path d="M 1950.6181 3909.9723 1944.8037 3937.1944 1934.38 3937.1853 1920.5362 3876.2591 1871.4204 3888.6733 1822.1742 3798.4141 1844.4194 3786.9007 1873.5912 3797.3105 1898.1353 3803.7932 1924.5214 3822.7354 1926.833 3827.8132 1952.7327 3875.1337 1946.4721 3882.973 1950.6181 3909.9723 Z" fill="none" stroke="#A9159C" opacity="0.6" stroke-width="1" class="st__george"/>
<path d="M 1944.8037 3937.1944 1934.3804 3936.7238 1925.3498 3933.024 1917.2454 3929.7864 1914.2342 3929.7837 1882.4781 3953.2904 1880.8584 3951.4429 1880.1699 3944.5199 1881.5701 3933.4456 1883.8966 3922.603 1879.7477 3900.6792 1867.9493 3885.209 1865.6456 3872.0554 1822.1733 3799.337 1815.0091 3783.8724 1824.5079 3780.6521 1862.2654 3773.5371 1918.9983 3783.0484 1984.9785 3814.2508 2012.743 3849.8037 2017.0793 3931.2551 1969.8217 3935.8314 1944.8037 3937.1944 Z" fill="none" stroke="#A9159C" opacity="0.6" stroke-width="1" class="st__george"/>
<path d="M 1822.4053 3798.8758 1843.725 3786.4386 1873.8226 3797.5414 1896.9791 3801.7157 1922.9019 3820.6575 1952.5027 3873.2877 1946.9333 3885.2807 1948.7648 3910.2014 1944.1077 3938.3475 1936.2325 3937.8792 1916.7828 3929.0938 1883.869 3952.1379 1878.7755 3949.3642 1884.3577 3924.9108 1879.2877 3897.2177 1866.3284 3884.746 1867.2637 3875.5178 1822.4053 3798.8758 Z" fill="none" stroke="#A9159C" opacity="0.6" stroke-width="1" class="st__george"/>
<path d="M 1806.1814 3810.395 1823.8009 3792.8788 1844.1882 3786.4391 1887.7188 3797.5544 1923.8276 3821.5812 1952.5011 3875.1335 1944.1611 3876.9721 1924.6998 3882.4925 1921.9269 3875.1067 1895.0571 3876.9282 1880.2626 3845.536 1831.1365 3869.4839 1831.1538 3851.9489 1806.1814 3810.395 Z" fill="none" stroke="#A9159C" opacity="0.6" stroke-width="1" class="st__george"/>
<path d="M 1836.7607 3803.0427 1933.5702 3804.5171 2003.9498 3839.645 1989.0458 3937.924 1948.2772 3938.3511 1920.9506 3930.9434 1895.0282 3908.3076 1836.7607 3803.0427 Z" fill="none" stroke="#A9159C" opacity="0.6" stroke-width="1" class="st__george"/>
<path d="M 1797.1564 3803.7791 1842.5783 3775.7881 1946.3286 3782.3434 2009.2882 3826.6922 2024.9589 3927.3018 1941.5575 3942.0002 1908.2149 3927.2031 1857.2171 3966.8436 1807.218 3931.1497 1827.6816 3850.8758 1797.1564 3803.7791 Z" fill="none" stroke="#A9159C" opacity="0.6" stroke-width="1" class="st__george"/>
<path d="M 1848.6466 3965.4878 1820.8862 3928.5413 1803.3984 3814.0835 1836.7697 3793.8144 1882.1543 3804.0091 1934.9172 3852.9687 1932.9904 3936.9534 1848.6466 3965.4878 Z" fill="none" stroke="#A9159C" opacity="0.6" stroke-width="1" class="st__george"/>
<path d="M 1943.402 3950.8071 1801.3226 3805.5451 1802.487 3799.3171 1806.2057 3786.4013 1827.5258 3773.5033 1871.989 3777.2376 1915.5212 3786.5059 1992.3635 3846.5572 1943.402 3950.8071 Z" fill="none" stroke="#A9159C" opacity="0.6" stroke-width="1" class="st__george"/>
<path d="M 1641.5619 3571.2265 1813.5928 3810.4024 1840.4808 3788.2811 1885.8608 3803.0897 1909.0088 3816.9536 1931.2301 3831.7392 1949.7319 3863.1334 1955.271 3886.2108 1956.162 3927.7438 1943.1792 3940.6542 1917.2448 3930.4786 1892.2111 3948.9152 1869.0401 3956.2774 1853.2875 3957.1853 1832.9139 3946.0897 1821.8155 3925.7734 1835.7635 3875.0259 1837.6509 3839.9579 1820.9931 3821.4841 1641.5619 3571.2265 Z" fill="none" stroke="#A9159C" opacity="0.6" stroke-width="1" class="st__george"/>
<path d="M 1842.3327 3789.2057 1896.0514 3803.0991 1954.358 3870.5205 1944.1073 3938.809 1845.8741 3958.1012 1783.9357 3821.4463 1842.3327 3789.2057 Z" fill="none" stroke="#A9159C" opacity="0.6" stroke-width="1" class="st__george"/>
<path d="M 1805.7172 3811.3173 1799.7073 3799.7757 1807.5874 3794.2467 1826.5902 3782.7305 1848.8274 3779.061 1863.6457 3783.2279 1881.7092 3784.6292 1894.2139 3786.4865 1909.9627 3786.5009 1944.6828 3809.6025 1975.2432 3823.4713 1993.3024 3831.3305 2001.6285 3846.1033 2005.781 3866.6409 2011.0915 3887.6414 2016.3846 3931.0238 1972.8314 3937.6798 1967.042 3935.829 1952.2159 3937.4316 1944.3408 3936.7325 1934.8437 3936.7242 1929.9813 3934.4125 1923.4977 3931.8686 1917.9403 3929.787 1915.1607 3929.7845 1880.8728 3935.9831 1880.4044 3941.5205 1869.2844 3942.8944 1851.6765 3946.3387 1835.4579 3950.2456 1828.9786 3943.5476 1823.4261 3936.6198 1820.1915 3928.3099 1821.3578 3920.2352 1827.8732 3890.2462 1831.1402 3865.7923 1829.3037 3849.1784 1805.7172 3811.3173 Z" fill="none" stroke="#A9159C" opacity="0.6" stroke-width="1" class="st__george"/>
<path d="M 1881.3197 3953.52 1821.4801 3797.7213 1843.4952 3784.5927 1964.5798 3834.5367 1971.8894 3956.1386 1881.3197 3953.52 Z" fill="none" stroke="#A9159C" opacity="0.6" stroke-width="1" class="st__george"/>
<path d="M 1933.0805 3834.5095 1947.8774 3864.9776 1964.1162 3834.9977 1985.8657 3861.7795 1954.3525 3876.9809 1944.1098 3936.0401 1913.5399 3929.0908 1856.0588 3965.9564 1821.3453 3932.6951 1830.2128 3866.7143 1831.1575 3848.2574 1811.7372 3813.1691 1806.6455 3809.4726 1840.019 3786.8964 1869.1945 3793.3843 1911.7939 3810.4962 1933.0805 3834.5095 Z" fill="none" stroke="#A9159C" opacity="0.6" stroke-width="1" class="st__george"/>
<path d="M 1975.6417 3900.9949 1920.9873 3889.8725 1905.2501 3875.0917 1888.599 3847.3895 1892.3219 3828.9355 1906.2395 3805.877 1916.4451 3789.2752 1955.324 3824.3773 1984.9503 3848.3969 2003.4676 3863.1782 1975.6417 3900.9949 Z" fill="none" stroke="#A9159C" opacity="0.6" stroke-width="1" class="st__george"/>
<path d="M 1893.2739 3801.2509 2017.3034 3940.7157 1844.02 3959.0223 1893.2739 3801.2509 Z" fill="none" stroke="#A9159C" opacity="0.6" stroke-width="1" class="st__george"/>
<path d="M 1806.1776 3814.0863 1819.1634 3798.4111 1802.486 3800.2399 1922.9085 3813.2747 1799.7124 3794.7001 1801.5709 3789.165 1817.3318 3777.1843 1836.7888 3774.4352 1856.2439 3773.5313 1871.0661 3773.5454 1892.3739 3772.6426 1910.8992 3775.4279 1934.9821 3779.1406 1952.5772 3786.5385 1984.9792 3813.328 1991.4506 3829.9447 2010.8625 3884.411 1977.4801 3918.5323 1940.4052 3934.191 1820.8871 3927.6184 1833.0004 3858.411 1831.1548 3851.026 1806.1776 3814.0863 Z" fill="none" stroke="#A9159C" opacity="0.6" stroke-width="1" class="st__george"/>
<path d="M 1984.9579 3839.1681 1981.1916 3912.0748 1920.9427 3939.7116 1861.6258 3958.1163 1831.9892 3944.2428 1837.631 3860.2613 1806.1851 3806.7036 1884.0218 3788.3227 1984.9579 3839.1681 Z" fill="none" stroke="#A9159C" opacity="0.6" stroke-width="1" class="st__george"/>
<path d="M 1805.254 3811.3169 1844.1891 3785.5162 1892.3475 3801.25 1921.0507 3818.8102 1953.4268 3876.0572 1946.9357 3882.512 1948.7736 3900.0491 1945.0355 3936.9639 1926.507 3934.1787 1914.466 3929.5532 1856.0584 3966.4179 1847.7245 3960.8719 1820.8816 3933.1561 1831.1283 3877.7901 1833.0004 3858.411 1805.254 3811.3169 Z" fill="none" stroke="#A9159C" opacity="0.6" stroke-width="1" class="st__george"/>
<path d="M 1861.3868 3965.7308 1831.986 3947.4732 1819.7296 3926.925 1833.3756 3947.7053 1821.3513 3926.6959 1831.1308 3875.2521 1807.8031 3809.9352 1821.7119 3797.4908 1844.4239 3782.2866 1903.4729 3792.0319 1913.8939 3793.1949 1963.4194 3837.3043 1954.1268 3870.0589 1951.313 3909.9729 1948.0472 3936.505 1935.77 3936.9558 1917.0148 3928.6325 1861.3868 3965.7308 Z" fill="none" stroke="#A9159C" opacity="0.6" stroke-width="1" class="st__george"/>
<path d="M 1973.9923 3934.4504 1953.1426 3937.2016 1945.7304 3936.9645 1934.1492 3936.2622 1922.3402 3931.1754 1915.3926 3929.554 1881.1042 3936.214 1880.4057 3940.136 1834.9957 3949.0914 1825.0446 3939.6211 1820.8816 3933.1561 1820.1927 3927.1562 1821.591 3918.6203 1823.9193 3906.6243 1828.109 3886.0933 1832.0682 3864.1781 1830.692 3850.5641 1827.456 3843.87 1805.254 3811.3169 1799.2459 3797.9296 1807.5939 3787.7869 1845.5899 3773.9824 1911.3569 3781.4266 1959.4973 3819.3052 1992.8403 3829.9459 2007.6482 3848.8768 2019.3973 3929.1803 1973.9923 3934.4504 Z" fill="none" stroke="#A9159C" opacity="0.6" stroke-width="1" class="st__george"/>
<path d="M 1933.0805 3834.5095 1953.4299 3872.3656 1946.0036 3888.9716 1949.6953 3905.5875 1945.0371 3935.118 1936.703 3929.5729 1924.6621 3924.9475 1914.471 3924.0154 1899.6405 3930.4627 1895.0562 3877.8511 1890.4314 3869.5406 1883.9615 3852.9225 1874.7099 3839.0706 1843.2195 3829.8118 1819.1643 3797.4883 1838.6289 3787.3565 1852.5249 3787.37 1893.2739 3801.2509 1933.0805 3834.5095 Z" fill="none" stroke="#A9159C" opacity="0.6" stroke-width="1" class="st__george"/>
<path d="M 1944.341 3936.5018 1913.7734 3927.0144 1881.7836 3952.8282 1847.6094 3840.8905 1907.1827 3787.4212 1989.1269 3839.1715 1995.1288 3863.8636 1975.6662 3871.6922 1977.0051 3932.607 1944.341 3936.5018 Z" fill="none" stroke="#A9159C" opacity="0.6" stroke-width="1" class="st__george"/>
<path d="M 1795.0728 3802.078 1908.1409 3752.3554 1986.8534 3787.4901 2050.6468 3957.3551 1986.6831 3994.2248 1917.1769 4006.1644 1830.1087 3971.9306 1795.0728 3802.078 Z" fill="none" stroke="#A9159C" opacity="0.6" stroke-width="1" class="st__george"/>
<path d="M 1937.7144 3832.6678 1959.8941 3897.2899 1944.109 3936.9631 1914.4635 3932.322 1877.3731 3962.7462 1854.2159 3955.3403 1834.767 3946.0915 1825.5446 3902.7034 1832.0666 3865.7932 1833.946 3839.0314 1810.7986 3825.1653 1825.6391 3807.646 1820.9977 3816.8698 1854.3777 3787.3718 1892.3517 3796.6359 1924.7589 3816.0449 1937.7144 3832.6678 Z" fill="none" stroke="#A9159C" opacity="0.6" stroke-width="1" class="st__george"/>
<path d="M 1821.9362 3804.8737 1852.5258 3786.4472 1882.1569 3801.2406 1950.6409 3883.4381 1920.9526 3928.636 1859.7647 3966.4215 1821.8072 3934.08 1821.9362 3804.8737 Z" fill="none" stroke="#A9159C" opacity="0.6" stroke-width="1" class="st__george"/>
<path d="M 1940.3404 3809.919 1971.9571 3953.8497 1806.6251 4055.2948 1726.7226 4001.1221 1889.0637 3802.8555 1940.3404 3809.919 Z" fill="none" stroke="#A9159C" opacity="0.6" stroke-width="1" class="st__george"/>
<path d="M 1926.6013 3827.813 1927.5274 3828.2752 1853.3924 3848.5098 1822.1751 3797.4913 1843.7241 3787.3614 1873.5906 3798.0026 1894.8943 3802.1752 1924.523 3820.8897 1926.6013 3827.813 Z" fill="none" stroke="#A9159C" opacity="0.6" stroke-width="1" class="st__george"/>
<path d="M 1818.2423 3793.1039 1858.5789 3753.6933 1857.1915 3751.385 2019.2359 3840.1186 1973.6437 3935.8346 1913.7703 3930.4755 1881.6662 3954.5587 1881.3575 3913.1404 1881.8242 3909.449 1818.0095 3794.2572 1818.2423 3793.1039 Z" fill="none" stroke="#A9159C" opacity="0.6" stroke-width="1" class="st__george"/>
<path d="M 1889.2126 3796.1383 1982.8673 3849.8007 1961.4449 3983.6103 1802.9333 4046.2292 1706.5497 3995.8301 1889.2126 3796.1383 Z" fill="none" stroke="#A9159C" opacity="0.6" stroke-width="1" class="st__george"/>
<path d="M 1823.7998 3794.0323 1824.2605 3796.5705 1825.0737 3793.9182 1833.9953 3788.9668 1839.7874 3786.8962 1839.9037 3786.3195 1848.1228 3789.096 1856.1124 3789.7958 1854.9554 3788.7566 1866.1867 3790.1515 1871.9771 3789.811 1880.4301 3790.2803 1881.4728 3789.8199 1884.3677 3789.938 1902.0811 3794.4531 1899.5336 3794.22 1908.3303 3798.9576 1913.7714 3800.6928 1921.0636 3804.3907 1923.496 3803.8161 1926.9692 3804.742 1934.8373 3812.1317 1941.4336 3817.3285 1942.5918 3817.0988 1949.536 3821.8345 1952.4295 3823.6827 1957.0578 3828.1856 1961.8028 3831.7657 1966.5499 3832.9233 1963.8807 3839.6119 1964.4562 3843.7653 1961.5544 3851.492 1961.203 3856.2215 1957.3806 3857.0258 1954.5997 3858.7538 1954.0155 3864.7521 1954.1274 3869.3667 1950.3035 3871.786 1949.1395 3878.7069 1946.1209 3887.3566 1947.9655 3897.0489 1947.8467 3900.5098 1949.8099 3906.972 1951.1979 3909.0498 1947.6039 3913.4307 1949.7944 3924.9695 1945.0449 3926.1191 1943.8816 3932.0019 1942.2576 3935.0002 1934.2703 3930.1476 1929.2889 3931.643 1925.6995 3930.4862 1921.3015 3927.0211 1918.4069 3926.0956 1908.4429 3930.2399 1903.5756 3933.4659 1896.7385 3937.613 1893.6092 3939.9175 1888.2774 3944.4121 1884.6833 3948.3314 1883.2922 3949.7146 1879.6993 3952.3648 1880.7398 3954.3271 1879.2319 3956.7485 1873.21 3955.9352 1874.018 3958.8203 1873.4371 3960.6658 1865.3302 3960.0812 1863.1306 3959.0408 1859.7719 3958.9222 1855.1434 3954.3028 1853.7504 3957.6473 1845.0712 3950.0243 1843.9142 3948.754 1842.7543 3950.4835 1834.651 3946.3221 1830.364 3948.0485 1828.1756 3935.7016 1825.0469 3937.3136 1825.0565 3927.6225 1821.0011 3929.4644 1825.6416 3921.6239 1827.1511 3917.7029 1833.7607 3909.5182 1833.7605 3909.749 1835.3929 3898.56 1836.551 3898.5611 1838.6453 3888.7571 1837.721 3886.5642 1837.0283 3884.2563 1836.4516 3881.9484 1835.9903 3879.8714 1836.3427 3874.9111 1836.4618 3871.5657 1835.7689 3869.4885 1841.565 3863.8414 1842.6094 3861.6505 1838.1011 3853.2247 1837.0612 3850.8011 1832.3209 3842.8366 1830.238 3841.2195 1827.2344 3833.7182 1825.7311 3831.5249 1821.7996 3825.6377 1819.2546 3822.982 1814.5083 3821.2469 1812.0783 3819.3987 1812.7758 3816.7462 1810.5787 3813.6294 1813.8282 3806.5959 1815.103 3805.6744 1817.5411 3799.4477 1821.7132 3796.2219 1823.7998 3794.0323 Z" fill="none" stroke="#A9159C" opacity="0.6" stroke-width="1" class="st__george"/>
<path d="M 1805.2538 3811.5476 1797.8535 3800.6966 1842.8058 3779.0552 1891.4407 3780.0242 1998.3963 3833.1804 2018.2391 3929.1794 1945.0351 3937.4254 1940.8656 3937.4217 1916.3183 3930.4778 1859.3014 3966.4211 1823.6571 3937.3123 1819.9601 3928.0789 1831.3693 3868.3305 1831.382 3855.41 1829.7667 3849.4096 1805.2538 3811.5476 Z" fill="none" stroke="#A9159C" opacity="0.6" stroke-width="1" class="st__george"/>
<path d="M 1807.5687 3812.7035 1840.488 3780.8985 1908.1099 3786.4992 1995.6095 3842.4069 2002.4894 3927.3209 1942.2538 3939.2689 1910.2928 3933.7027 1859.7629 3968.2675 1822.2834 3921.1591 1835.317 3857.9518 1807.5687 3812.7035 Z" fill="none" stroke="#A9159C" opacity="0.6" stroke-width="1" class="st__george"/>
<path d="M 1871.0059 3837.2214 1850.515 3949.7988 1841.2439 3955.3277 1830.1379 3942.395 1824.6061 3914.7007 1832.0767 3855.6414 1806.1823 3809.4721 1843.2609 3787.361 1924.7548 3820.6592 1948.7863 3885.2823 1939.4891 3922.1917 1856.0601 3964.5719 1871.0059 3837.2214 Z" fill="none" stroke="#A9159C" opacity="0.6" stroke-width="1" class="st__george"/>
<path d="M 1901.6041 3809.5641 1953.4331 3868.6739 1946.899 3924.967 1938.5488 3937.8812 1910.7565 3933.2417 1870.8906 3959.0481 1856.0637 3960.88 1826.4491 3924.855 1832.9877 3871.3315 1829.311 3841.7954 1808.9523 3818.7034 1829.3566 3795.6528 1856.227 3791.0648 1901.6041 3809.5641 Z" fill="none" stroke="#A9159C" opacity="0.6" stroke-width="1" class="st__george"/>
<path d="M 1695.9023 3840.731 1840.4853 3783.667 1904.3926 3799.4154 1952.5082 3866.8273 1951.5507 3902.8203 1790.2418 3994.9657 1695.9023 3840.731 Z" fill="none" stroke="#A9159C" opacity="0.6" stroke-width="1" class="st__george"/>
<path d="M 1842.1669 3959.0205 1812.6673 3809.4787 1888.6461 3796.6324 1954.3572 3871.4434 1942.2559 3936.9615 1842.1669 3959.0205 Z" fill="none" stroke="#A9159C" opacity="0.6" stroke-width="1" class="st__george"/>
<path d="M 1968.6629 3936.5226 1936.7055 3926.804 1906.1456 3909.2407 1896.9397 3844.6286 1937.7346 3809.5964 2010.8883 3852.1094 1968.6629 3936.5226 Z" fill="none" stroke="#A9159C" opacity="0.6" stroke-width="1" class="st__george"/>
<path d="M 1955.2829 3872.3671 1947.8439 3903.74 1920.9782 3900.0247 1899.6904 3876.0095 1909.9001 3855.715 1935.8639 3829.8976 1955.2829 3872.3671 Z" fill="none" stroke="#A9159C" opacity="0.6" stroke-width="1" class="st__george"/>
<path d="M 1821.2473 3798.8746 1843.2625 3785.746 1893.5055 3801.2511 1924.7552 3820.1978 1953.1963 3874.6726 1941.3848 3873.278 1925.1625 3883.1851 1921.9263 3875.7989 1882.3103 3884.9918 1877.2026 3897.6773 1821.2473 3798.8746 Z" fill="none" stroke="#A9159C" opacity="0.6" stroke-width="1" class="st__george"/></svg>