<?xml version="1.0"?><svg xmlns="http://www.w3.org/2000/svg" version="1.2" baseProfile="tiny" width="6000" height="5918" viewBox="0 0 6000 5918" stroke-linecap="round" stroke-linejoin="round"><path d="M 2997.2516 2534.4909 3039.8155 2554.7551 3053.7111 2612.8154 3022.2629 2650.6143 2954.7107 2620.2139 2959.3337 2604.5443 2997.2516 2534.4909 Z" fill="none" stroke="#012394" opacity="0.6" stroke-width="1" class="stuyvesant_town"/>
<path d="M 3026.4267 2650.6131 2953.3208 2610.306 2996.5574 2533.3391 3032.4134 2552.914 3045.8477 2616.7349 3035.4445 2637.4761 3026.4267 2650.6131 Z" fill="none" stroke="#012394" opacity="0.6" stroke-width="1" class="stuyvesant_town"/>
<path d="M 2966.8338 2604.4903 3021.3054 2531.7199 3025.5541 2647.2611 2966.8338 2604.4903 Z" fill="none" stroke="#012394" opacity="0.6" stroke-width="1" class="stuyvesant_town"/>
<path d="M 3031.4877 2551.071 3055.5614 2611.8931 3028.7373 2641.3953 3025.9627 2646.0047 3023.1884 2651.5357 2942.6792 2603.6259 2989.8495 2531.7279 3031.4877 2551.071 Z" fill="none" stroke="#012394" opacity="0.6" stroke-width="1" class="stuyvesant_town"/>
<path d="M 3026.8898 2652.4564 2953.7836 2611.2276 2983.1486 2560.5301 3040.9832 2593.2335 3045.154 2617.6568 3026.8898 2652.4564 Z" fill="none" stroke="#012394" opacity="0.6" stroke-width="1" class="stuyvesant_town"/>
<path d="M 3027.8164 2657.0648 2949.1573 2610.9981 2896.4144 2584.2785 2856.628 2565.8502 2950.9698 2417.464 3010.1804 2443.2527 2997.2531 2540.9422 3045.3667 2554.7535 3065.7359 2601.7514 3027.8164 2657.0648 Z" fill="none" stroke="#012394" opacity="0.6" stroke-width="1" class="stuyvesant_town"/>
<path d="M 3045.385 2616.5046 3028.7405 2652.6864 2954.558 2611.9406 2983.1687 2560.3731 3040.5204 2592.5424 3045.385 2616.5046 Z" fill="none" stroke="#012394" opacity="0.6" stroke-width="1" class="stuyvesant_town"/>
<path d="M 3040.2891 2592.5425 3045.3848 2615.8133 3026.8896 2651.5347 2954.2462 2610.9971 2982.2235 2560.9911 3040.2891 2592.5425 Z" fill="none" stroke="#012394" opacity="0.6" stroke-width="1" class="stuyvesant_town"/>
<path d="M 3044.9223 2616.5047 3026.8896 2651.5347 2956.7908 2611.6879 2954.4774 2610.5362 2982.4546 2560.0694 2984.7684 2563.525 3040.2894 2593.6946 3044.9223 2616.5047 Z" fill="none" stroke="#012394" opacity="0.6" stroke-width="1" class="stuyvesant_town"/>
<path d="M 3042.5997 2584.2469 3038.4426 2606.3681 3024.5757 2649.2311 3007.9289 2681.9571 2977.3921 2676.434 2948.2381 2642.336 2925.1009 2611.4633 2926.0187 2567.6842 2944.9785 2531.2766 3015.2923 2534.0255 3042.5997 2584.2469 Z" fill="none" stroke="#012394" opacity="0.6" stroke-width="1" class="stuyvesant_town"/>
<path d="M 2998.1763 2532.6474 3033.3376 2549.2272 3047.2358 2617.4257 3026.8898 2652.4564 2952.8581 2610.0757 2998.1763 2532.6474 Z" fill="none" stroke="#012394" opacity="0.6" stroke-width="1" class="stuyvesant_town"/>
<path d="M 2954.4773 2609.845 2994.707 2533.1091 3034.2634 2551.531 3042.3711 2593.2331 3045.8482 2618.5783 3025.9639 2650.3828 2954.4773 2609.845 Z" fill="none" stroke="#012394" opacity="0.6" stroke-width="1" class="stuyvesant_town"/>
<path d="M 3026.8882 2646.4653 2953.3201 2606.8497 2994.4758 2533.57 3037.0383 2549.2261 3050.4721 2610.5121 3026.8882 2646.4653 Z" fill="none" stroke="#012394" opacity="0.6" stroke-width="1" class="stuyvesant_town"/>
<path d="M 2957.7156 2609.3835 2959.1035 2609.6136 2982.6862 2561.3366 2997.02 2533.5693 3032.5292 2553.49 3038.2071 2591.6214 3044.5754 2616.7353 3027.0049 2650.3825 2957.7156 2609.3835 Z" fill="none" stroke="#012394" opacity="0.6" stroke-width="1" class="stuyvesant_town"/>
<path d="M 2957.4846 2610.9964 2995.4003 2530.8049 3030.563 2552.9145 3051.8606 2612.8159 3025.9635 2648.7698 2957.4846 2610.9964 Z" fill="none" stroke="#012394" opacity="0.6" stroke-width="1" class="stuyvesant_town"/>
<path d="M 3027.3522 2651.5346 2953.3207 2609.6148 2997.2512 2533.1085 3032.4134 2552.914 3037.2763 2572.4974 3045.6166 2617.4262 3027.3522 2651.5346 Z" fill="none" stroke="#012394" opacity="0.6" stroke-width="1" class="stuyvesant_town"/>
<path d="M 3033.8013 2553.3744 3045.8477 2616.9653 3025.9644 2651.9958 2954.246 2610.0754 2997.7141 2534.4908 3033.8013 2553.3744 Z" fill="none" stroke="#012394" opacity="0.6" stroke-width="1" class="stuyvesant_town"/>
<path d="M 2953.7836 2611.2276 2983.8431 2562.834 3040.9841 2596.229 3042.3774 2614.8925 3026.1946 2647.848 2953.7836 2611.2276 Z" fill="none" stroke="#012394" opacity="0.6" stroke-width="1" class="stuyvesant_town"/>
<path d="M 2952.3958 2611.4583 2981.0669 2560.3001 3039.3637 2592.0819 3045.8481 2618.3478 3027.815 2651.9953 2952.3958 2611.4583 Z" fill="none" stroke="#012394" opacity="0.6" stroke-width="1" class="stuyvesant_town"/>
<path d="M 3040.7512 2590.699 3047.2347 2613.9694 3041.4558 2627.4509 3028.2775 2651.4191 3003.6385 2638.9825 2978.9998 2625.0476 2954.362 2611.8036 2983.8424 2560.0691 3005.3565 2572.506 3013.685 2578.4946 3029.3001 2585.8636 3040.7512 2590.699 Z" fill="none" stroke="#012394" opacity="0.6" stroke-width="1" class="stuyvesant_town"/>
<path d="M 3026.8898 2652.4564 2954.4776 2611.2275 2982.2234 2560.2999 3040.0579 2593.0034 3044.9228 2617.8873 3026.8898 2652.4564 Z" fill="none" stroke="#012394" opacity="0.6" stroke-width="1" class="stuyvesant_town"/>
<path d="M 3033.8017 2554.7568 3046.3094 2613.7393 3026.5424 2650.7283 2954.2462 2610.9971 2997.5984 2534.03 3033.8017 2554.7568 Z" fill="none" stroke="#012394" opacity="0.6" stroke-width="1" class="stuyvesant_town"/>
<path d="M 3029.665 2650.1514 2956.0967 2610.9967 2983.3805 2563.0645 3039.3635 2591.1603 3047.2356 2616.9649 3029.665 2650.1514 Z" fill="none" stroke="#012394" opacity="0.6" stroke-width="1" class="stuyvesant_town"/>
<path d="M 3044.9223 2616.5047 3026.4269 2651.5348 2953.3208 2610.0756 2982.4549 2561.2214 3038.901 2591.6212 3044.9223 2616.5047 Z" fill="none" stroke="#012394" opacity="0.6" stroke-width="1" class="stuyvesant_town"/>
<path d="M 2970.8806 2518.5994 2996.2103 2532.8783 3033.1074 2553.3746 3047.8076 2595.7661 3074.1931 2645.7597 3064.7321 2718.9268 2907.0619 2633.9325 2970.8806 2518.5994 Z" fill="none" stroke="#012394" opacity="0.6" stroke-width="1" class="stuyvesant_town"/>
<path d="M 2952.858 2609.154 2984.3042 2556.6129 3041.6756 2587.9338 3050.0121 2619.2683 3025.0402 2656.1439 2952.858 2609.154 Z" fill="none" stroke="#012394" opacity="0.6" stroke-width="1" class="stuyvesant_town"/>
<path d="M 3031.9508 2552.9141 3046.7731 2617.4259 3028.7405 2652.9168 2953.3207 2609.6148 2997.7138 2533.1084 3031.9508 2552.9141 Z" fill="none" stroke="#012394" opacity="0.6" stroke-width="1" class="stuyvesant_town"/>
<path d="M 3026.8897 2651.9956 2952.8582 2610.5365 2996.7882 2531.2654 3033.339 2554.2961 3045.3855 2618.348 3026.8897 2651.9956 Z" fill="none" stroke="#012394" opacity="0.6" stroke-width="1" class="stuyvesant_town"/>
<path d="M 3032.6447 2552.9139 3045.385 2616.735 3026.6578 2649.9218 2927.8742 2597.4073 2971.1118 2518.3689 3032.6447 2552.9139 Z" fill="none" stroke="#012394" opacity="0.6" stroke-width="1" class="stuyvesant_town"/>
<path d="M 2981.5295 2560.3 3037.05 2589.7784 3044.4597 2616.5049 3025.9648 2653.3784 2951.9331 2610.9976 2981.5295 2560.3 Z" fill="none" stroke="#012394" opacity="0.6" stroke-width="1" class="stuyvesant_town"/>
<path d="M 2953.7845 2615.6056 2958.407 2597.1711 2988.0054 2558.4553 3051.8578 2603.5991 3030.5923 2657.064 2953.7845 2615.6056 Z" fill="none" stroke="#012394" opacity="0.6" stroke-width="1" class="stuyvesant_town"/>
<path d="M 3048.394 2622.9555 3029.2043 2656.834 2948.0008 2611.2288 2996.0933 2527.3487 3033.3372 2548.0752 3048.394 2622.9555 Z" fill="none" stroke="#012394" opacity="0.6" stroke-width="1" class="stuyvesant_town"/>
<path d="M 3025.9641 2651.0741 2955.1717 2612.3794 2996.7891 2534.9518 3032.8759 2552.453 3043.5342 2615.5835 3025.9641 2651.0741 Z" fill="none" stroke="#012394" opacity="0.6" stroke-width="1" class="stuyvesant_town"/>
<path d="M 3046.3105 2617.426 3027.8143 2649.691 2959.3355 2612.8394 2994.4763 2535.4132 3033.3386 2552.9137 3046.3105 2617.426 Z" fill="none" stroke="#012394" opacity="0.6" stroke-width="1" class="stuyvesant_town"/>
<path d="M 3035.1885 2551.0699 3050.0113 2616.5032 3022.2629 2650.6143 2950.0828 2611.9196 2998.176 2531.7258 3035.1885 2551.0699 Z" fill="none" stroke="#012394" opacity="0.6" stroke-width="1" class="stuyvesant_town"/>
<path d="M 2994.9386 2534.4915 3030.5615 2547.3847 3048.1614 2618.808 3027.3516 2649.2303 2957.0215 2608.6923 2994.9386 2534.4915 Z" fill="none" stroke="#012394" opacity="0.6" stroke-width="1" class="stuyvesant_town"/>
<path d="M 2997.2513 2533.5693 3032.6446 2552.4531 3045.8475 2616.0436 3026.8896 2651.7651 2952.8583 2610.767 2997.2513 2533.5693 Z" fill="none" stroke="#012394" opacity="0.6" stroke-width="1" class="stuyvesant_town"/>
<path d="M 3025.9641 2651.0741 2954.2463 2611.4579 2996.7891 2534.9518 3030.5633 2553.8361 3047.2359 2617.8866 3025.9641 2651.0741 Z" fill="none" stroke="#012394" opacity="0.6" stroke-width="1" class="stuyvesant_town"/>
<path d="M 3045.3842 2613.7395 3028.7404 2652.4559 2951.9333 2611.9192 2999.1014 2532.6472 3035.1882 2550.1483 3045.3842 2613.7395 Z" fill="none" stroke="#012394" opacity="0.6" stroke-width="1" class="stuyvesant_town"/>
<path d="M 3017.6087 2546.9275 3033.8037 2561.6691 3043.9959 2612.3574 3028.7394 2648.769 2956.5584 2606.3882 2984.3055 2562.1427 3003.7255 2525.2732 3014.8266 2522.0448 3025.006 2531.7188 3030.5602 2542.7766 3017.6087 2546.9275 Z" fill="none" stroke="#012394" opacity="0.6" stroke-width="1" class="stuyvesant_town"/>
<path d="M 3035.652 2554.2955 3051.8632 2621.1111 3027.3513 2648.3086 2957.0218 2610.0749 2998.6393 2534.4905 2997.2537 2543.2462 3004.1904 2534.4892 3035.652 2554.2955 Z" fill="none" stroke="#012394" opacity="0.6" stroke-width="1" class="stuyvesant_town"/>
<path d="M 3044.4594 2615.5832 3009.3188 2689.3308 2883.4655 2618.3821 2943.5869 2510.541 3028.7111 2547.3853 3044.4594 2615.5832 Z" fill="none" stroke="#012394" opacity="0.6" stroke-width="1" class="stuyvesant_town"/>
<path d="M 2954.7086 2610.0753 2981.5305 2564.9082 3036.1261 2594.387 3044.4604 2618.8091 3025.0391 2651.9961 2954.7086 2610.0753 Z" fill="none" stroke="#012394" opacity="0.6" stroke-width="1" class="stuyvesant_town"/>
<path d="M 3033.35 2593.0053 3040.0584 2594.6163 3040.5221 2598.3029 3043.0678 2602.9105 3044.2259 2607.9794 3046.0784 2614.8914 3045.8487 2620.1912 3038.6813 2631.7146 3029.4324 2645.5428 3024.8077 2651.7657 3012.5459 2645.0865 2994.2681 2630.8047 2984.5512 2624.3551 2966.2755 2615.8335 2957.2531 2610.3052 2960.9526 2603.1615 2968.1213 2594.1737 2973.4387 2581.9605 2979.4507 2573.2035 2984.5374 2564.6771 2986.8501 2563.2941 3030.5727 2587.2457 3037.5125 2589.5479 3040.9835 2594.1552 3033.35 2593.0053 Z" fill="none" stroke="#012394" opacity="0.6" stroke-width="1" class="stuyvesant_town"/>
<path d="M 3044.4603 2618.3483 3022.2631 2651.536 2950.082 2608.2329 2977.8295 2563.9874 3040.7514 2591.6207 3044.4603 2618.3483 Z" fill="none" stroke="#012394" opacity="0.6" stroke-width="1" class="stuyvesant_town"/>
<path d="M 3033.8017 2554.7568 3040.1732 2591.8513 3046.1947 2617.0804 3026.6581 2651.1891 2954.2463 2611.4579 2983.1482 2558.802 2997.0198 2532.6477 2998.8789 2568.1298 2998.6405 2539.0986 3003.2658 2536.7934 3033.8017 2554.7568 Z" fill="none" stroke="#012394" opacity="0.6" stroke-width="1" class="stuyvesant_town"/>
<path d="M 2953.3696 2612.3144 2983.2425 2561.3696 3040.1903 2593.1517 3045.9805 2618.4962 3026.0968 2652.3746 2953.3696 2612.3144 Z" fill="none" stroke="#012394" opacity="0.6" stroke-width="1" class="stuyvesant_town"/>
<path d="M 3041.2147 2593.9247 3044.4605 2619.2699 3027.8152 2652.917 2955.1713 2610.0752 2980.6048 2562.6043 3041.2147 2593.9247 Z" fill="none" stroke="#012394" opacity="0.6" stroke-width="1" class="stuyvesant_town"/>
<path d="M 3036.1137 2551.0697 3046.3113 2620.1911 3030.592 2656.1423 2951.9336 2613.7626 2994.4756 2532.6484 3036.1137 2551.0697 Z" fill="none" stroke="#012394" opacity="0.6" stroke-width="1" class="stuyvesant_town"/>
<path d="M 2953.321 2611.4581 2981.9921 2560.2999 3041.2141 2591.6206 3046.3108 2618.3477 3026.4273 2652.9174 2953.321 2611.4581 Z" fill="none" stroke="#012394" opacity="0.6" stroke-width="1" class="stuyvesant_town"/>
<path d="M 2953.7838 2611.9189 2952.3962 2613.3017 2996.7886 2533.1086 3031.9508 2552.9141 3046.3102 2616.5043 3026.427 2651.9957 2953.7838 2611.9189 Z" fill="none" stroke="#012394" opacity="0.6" stroke-width="1" class="stuyvesant_town"/>
<path d="M 2954.7087 2610.5362 2997.7131 2530.3435 3034.7263 2552.4525 3046.3109 2618.8086 3023.1889 2653.3792 2954.7087 2610.5362 Z" fill="none" stroke="#012394" opacity="0.6" stroke-width="1" class="stuyvesant_town"/>
<path d="M 2953.7835 2610.5364 2996.7889 2534.0302 3032.8764 2554.2963 3046.7726 2615.5825 3025.9643 2651.535 2953.7835 2610.5364 Z" fill="none" stroke="#012394" opacity="0.6" stroke-width="1" class="stuyvesant_town"/>
<path d="M 2953.7836 2610.9972 2983.3792 2557.5347 3042.6024 2593.4635 3048.1616 2619.2688 3025.0395 2653.3787 2953.7836 2610.9972 Z" fill="none" stroke="#012394" opacity="0.6" stroke-width="1" class="stuyvesant_town"/>
<path d="M 3040.289 2592.0817 3045.3851 2616.9654 3027.3517 2649.6911 2957.4844 2610.0748 2983.3804 2562.6037 3040.289 2592.0817 Z" fill="none" stroke="#012394" opacity="0.6" stroke-width="1" class="stuyvesant_town"/>
<path d="M 2982.9174 2560.7605 3034.7363 2587.475 3038.4406 2599.4555 3043.5334 2612.8184 3026.8882 2646.4653 2951.0076 2609.6152 2982.9174 2560.7605 Z" fill="none" stroke="#012394" opacity="0.6" stroke-width="1" class="stuyvesant_town"/>
<path d="M 2985.4632 2567.2114 3038.9019 2594.9623 3043.3026 2614.7771 3026.8882 2646.8109 2960.1442 2608.9221 2985.4632 2567.2114 Z" fill="none" stroke="#012394" opacity="0.6" stroke-width="1" class="stuyvesant_town"/>
<path d="M 2958.4096 2610.0746 2984.5372 2563.9859 3000.2587 2535.8726 3032.4137 2554.066 3039.1323 2591.6212 3045.6167 2617.8871 3027.1204 2649.9216 2958.4096 2610.0746 Z" fill="none" stroke="#012394" opacity="0.6" stroke-width="1" class="stuyvesant_town"/>
<path d="M 3024.1134 2650.6138 2955.6334 2607.7709 2998.6391 2533.5689 3013.9062 2540.0163 3033.8015 2553.8352 3045.8471 2614.6611 3024.1134 2650.6138 Z" fill="none" stroke="#012394" opacity="0.6" stroke-width="1" class="stuyvesant_town"/>
<path d="M 2955.6337 2609.1535 2983.8424 2559.8387 2985.2305 2561.2208 3040.7512 2590.699 3048.1603 2615.1212 3027.8148 2651.5345 2955.6337 2609.1535 Z" fill="none" stroke="#012394" opacity="0.6" stroke-width="1" class="stuyvesant_town"/>
<path d="M 2951.4694 2605.9284 2996.7869 2526.1966 3047.6801 2556.1352 3056.027 2621.5707 3036.1442 2657.5233 2951.4694 2605.9284 Z" fill="none" stroke="#012394" opacity="0.6" stroke-width="1" class="stuyvesant_town"/>
<path d="M 3027.8133 2646.0041 2961.185 2608.2306 2982.4547 2560.2998 3050.9268 2584.2444 3027.8133 2646.0041 Z" fill="none" stroke="#012394" opacity="0.6" stroke-width="1" class="stuyvesant_town"/>
<path d="M 3045.385 2616.5046 3027.3518 2650.152 2953.7836 2610.9972 2981.0671 2561.2218 2984.7682 2562.6034 3040.7509 2589.7774 3045.385 2616.5046 Z" fill="none" stroke="#012394" opacity="0.6" stroke-width="1" class="stuyvesant_town"/>
<path d="M 2955.5185 2611.4577 2983.1492 2562.8342 3042.14 2594.1549 3047.0044 2617.4258 3026.6579 2650.2674 2955.5185 2611.4577 Z" fill="none" stroke="#012394" opacity="0.6" stroke-width="1" class="stuyvesant_town"/>
<path d="M 2961.648 2610.0739 2963.4965 2600.3959 2972.2833 2586.7994 2985.925 2563.9856 3017.8488 2579.8759 3034.5052 2588.3967 3046.773 2616.965 3035.2135 2638.6283 3028.5084 2650.1517 2961.648 2610.0739 Z" fill="none" stroke="#012394" opacity="0.6" stroke-width="1" class="stuyvesant_town"/>
<path d="M 2982.4547 2560.2998 3038.9004 2589.7779 3045.3852 2617.4263 3025.9643 2651.535 2953.7832 2609.1538 2982.4547 2560.2998 Z" fill="none" stroke="#012394" opacity="0.6" stroke-width="1" class="stuyvesant_town"/>
<path d="M 3028.7126 2552.915 3031.4867 2547.3845 3042.6084 2613.7404 3033.3674 2654.2981 2951.9329 2610.0759 2995.401 2533.5697 3028.7126 2552.915 Z" fill="none" stroke="#012394" opacity="0.6" stroke-width="1" class="stuyvesant_town"/>
<path d="M 3027.1211 2652.2259 2952.627 2610.9974 2981.5294 2559.8392 3040.0575 2591.6209 3046.5414 2616.0434 3027.1211 2652.2259 Z" fill="none" stroke="#012394" opacity="0.6" stroke-width="1" class="stuyvesant_town"/>
<path d="M 3032.4129 2551.0707 3043.5339 2614.6618 3026.8906 2655.2216 2922.3231 2599.0211 2959.3192 2533.5778 2972.2688 2520.6727 2966.7184 2523.4386 3032.4129 2551.0707 Z" fill="none" stroke="#012394" opacity="0.6" stroke-width="1" class="stuyvesant_town"/>
<path d="M 2981.5297 2561.2217 3040.7514 2591.6207 3047.2352 2615.5824 3024.1134 2650.6138 2953.7832 2609.1538 2981.5297 2561.2217 Z" fill="none" stroke="#012394" opacity="0.6" stroke-width="1" class="stuyvesant_town"/>
<path d="M 2955.1716 2611.9186 2984.3052 2560.7602 3041.4458 2593.003 3047.9294 2616.2734 3028.277 2649.9213 2955.1716 2611.9186 Z" fill="none" stroke="#012394" opacity="0.6" stroke-width="1" class="stuyvesant_town"/>
<path d="M 2982.9174 2560.7605 3039.942 2591.9666 3046.8883 2615.9281 3026.8896 2651.5347 2954.8246 2611.573 2982.9174 2560.7605 Z" fill="none" stroke="#012394" opacity="0.6" stroke-width="1" class="stuyvesant_town"/>
<path d="M 3045.8476 2616.5045 3027.3525 2652.4563 2955.1714 2610.5361 2998.1763 2532.6474 3031.0256 2552.9144 3045.8476 2616.5045 Z" fill="none" stroke="#012394" opacity="0.6" stroke-width="1" class="stuyvesant_town"/>
<path d="M 3025.9645 2652.4567 2953.7834 2610.0755 2997.2511 2532.6477 3033.3386 2552.9137 3047.2355 2616.5041 3025.9645 2652.4567 Z" fill="none" stroke="#012394" opacity="0.6" stroke-width="1" class="stuyvesant_town"/>
<path d="M 3035.1885 2551.0699 3043.5241 2581.4816 3042.6111 2622.9573 3024.1129 2648.7703 2959.3364 2617.4479 2967.6588 2594.4042 3001.876 2528.9601 3035.1885 2551.0699 Z" fill="none" stroke="#012394" opacity="0.6" stroke-width="1" class="stuyvesant_town"/>
<path d="M 2997.2511 2532.6477 3028.7116 2549.2285 3045.3847 2615.5829 3026.8893 2650.613 2953.783 2608.2321 2997.2511 2532.6477 Z" fill="none" stroke="#012394" opacity="0.6" stroke-width="1" class="stuyvesant_town"/>
<path d="M 3046.3104 2616.9652 3026.4274 2653.3783 2953.321 2611.4581 2981.992 2559.8391 3040.289 2592.0817 3046.3104 2616.9652 Z" fill="none" stroke="#012394" opacity="0.6" stroke-width="1" class="stuyvesant_town"/>
<path d="M 2977.3807 2625.2784 3071.3115 2676.4082 3064.1535 2718.1205 3050.9903 2794.6359 2993.377 2772.5272 2912.1673 2739.8185 2977.3807 2625.2784 Z" fill="none" stroke="#012394" opacity="0.6" stroke-width="1" class="stuyvesant_town"/>
<path d="M 3028.2775 2651.5343 2869.8117 2561.7014 2956.5593 2610.7662 2982.6868 2563.7559 3039.1326 2592.5428 3046.3104 2617.1956 3028.2775 2651.5343 Z" fill="none" stroke="#012394" opacity="0.6" stroke-width="1" class="stuyvesant_town"/>
<path d="M 3037.9647 2553.3732 3046.7745 2622.0343 3063.4452 2672.7237 2946.3821 2613.7637 2993.0868 2528.5015 3037.9647 2553.3732 Z" fill="none" stroke="#012394" opacity="0.6" stroke-width="1" class="stuyvesant_town"/>
<path d="M 2956.5593 2610.9966 2993.55 2530.8054 3034.2643 2554.7567 3044.4603 2618.3483 3025.039 2651.5352 2956.5593 2610.9966 Z" fill="none" stroke="#012394" opacity="0.6" stroke-width="1" class="stuyvesant_town"/>
<path d="M 3024.1131 2649.2312 2956.0966 2610.5359 2961.6468 2604.083 2987.0817 2564.4461 3050.468 2597.1478 3024.1131 2649.2312 Z" fill="none" stroke="#012394" opacity="0.6" stroke-width="1" class="stuyvesant_town"/>
<path d="M 3032.1823 2553.3748 3045.1533 2615.3526 3026.8891 2649.9217 2956.0967 2610.7663 2997.4827 2534.03 3032.1823 2553.3748 Z" fill="none" stroke="#012394" opacity="0.6" stroke-width="1" class="stuyvesant_town"/>
<path d="M 3047.0653 2622.8831 3026.7179 2653.3054 2954.5371 2612.7676 2997.0792 2533.4965 3036.8668 2550.9966 3047.0653 2622.8831 Z" fill="none" stroke="#012394" opacity="0.6" stroke-width="1" class="stuyvesant_town"/>
<path d="M 3031.4882 2552.9142 3034.2654 2558.4432 3036.1179 2565.8158 3037.9718 2577.7966 3040.7517 2592.5424 3047.2308 2600.8355 3045.3844 2614.6612 3042.6108 2622.0356 3039.8375 2630.3317 3035.2124 2634.9415 3030.5881 2642.3165 3027.8143 2649.691 3020.4115 2647.8496 3009.3074 2645.0874 2998.2017 2635.8731 2989.8729 2630.3449 2979.6937 2624.817 2971.3655 2621.1321 2961.186 2612.8391 2956.5593 2610.9966 2961.1846 2606.3873 2963.0332 2597.1702 2969.5074 2586.1088 2973.2059 2575.0482 2980.6062 2568.595 2987.0813 2563.0636 2988.9291 2552.0036 2992.6279 2543.7082 2998.1772 2536.3339 3006.5148 2579.6485 3006.5047 2540.0182 3014.8321 2542.7809 3022.2348 2547.387 3031.4882 2552.9142 Z" fill="none" stroke="#012394" opacity="0.6" stroke-width="1" class="stuyvesant_town"/>
<path d="M 2997.2511 2532.6477 3027.7862 2548.3071 3045.3852 2617.4263 3025.0387 2650.6135 2951.9329 2610.0759 2997.2511 2532.6477 Z" fill="none" stroke="#012394" opacity="0.6" stroke-width="1" class="stuyvesant_town"/>
<path d="M 3028.7409 2654.2994 3027.8161 2656.1431 2951.9322 2606.3892 3002.8005 2526.1951 2953.7827 2606.3888 3028.7409 2654.2994 Z" fill="none" stroke="#012394" opacity="0.6" stroke-width="1" class="stuyvesant_town"/>
<path d="M 2954.709 2611.9187 2982.9173 2560.2997 3040.2894 2593.4642 3046.3104 2616.9652 3025.9646 2652.9176 2954.709 2611.9187 Z" fill="none" stroke="#012394" opacity="0.6" stroke-width="1" class="stuyvesant_town"/>
<path d="M 3044.9225 2616.9656 3027.3523 2651.9954 2953.3211 2611.919 2998.1763 2532.6474 3030.0999 2551.0714 3044.9225 2616.9656 Z" fill="none" stroke="#012394" opacity="0.6" stroke-width="1" class="stuyvesant_town"/>
<path d="M 2954.7086 2610.0753 3049.032 2436.7912 3060.1353 2444.1599 3036.1092 2535.4022 3029.6654 2651.5339 2954.7086 2610.0753 Z" fill="none" stroke="#012394" opacity="0.6" stroke-width="1" class="stuyvesant_town"/>
<path d="M 3042.6024 2593.4635 3047.2338 2610.9739 3028.7401 2651.5342 2952.8581 2610.0757 2982.4545 2559.3782 3042.6024 2593.4635 Z" fill="none" stroke="#012394" opacity="0.6" stroke-width="1" class="stuyvesant_town"/>
<path d="M 3026.1954 2650.8436 2954.2461 2610.5363 2997.2512 2533.1085 3032.8762 2553.6051 3045.8476 2616.5045 3026.1954 2650.8436 Z" fill="none" stroke="#012394" opacity="0.6" stroke-width="1" class="stuyvesant_town"/>
<path d="M 3045.8477 2616.9653 3026.8896 2651.5347 2952.6272 2612.1495 2981.7607 2559.8392 3035.1994 2589.3181 3040.0577 2592.0817 3045.8477 2616.9653 Z" fill="none" stroke="#012394" opacity="0.6" stroke-width="1" class="stuyvesant_town"/>
<path d="M 3031.4882 2552.9142 3045.3847 2615.5829 3046.3106 2617.8869 3028.2783 2654.2995 2954.7086 2610.0753 2998.6394 2534.9514 3031.4882 2552.9142 Z" fill="none" stroke="#012394" opacity="0.6" stroke-width="1" class="stuyvesant_town"/>
<path d="M 2996.3259 2532.6479 3031.4877 2551.071 3043.535 2618.3485 3027.8151 2652.4562 2952.8585 2611.9191 2996.3259 2532.6479 Z" fill="none" stroke="#012394" opacity="0.6" stroke-width="1" class="stuyvesant_town"/>
<path d="M 2997.4827 2534.03 3029.6376 2552.2235 3043.9972 2616.7354 3025.039 2651.7657 2954.0152 2612.3797 2997.4827 2534.03 Z" fill="none" stroke="#012394" opacity="0.6" stroke-width="1" class="stuyvesant_town"/>
<path d="M 2992.6279 2543.7082 3036.0946 2484.715 3062.9297 2504.9815 3053.7134 2620.1889 3033.3671 2653.3763 2948.2331 2616.5284 2992.6279 2543.7082 Z" fill="none" stroke="#012394" opacity="0.6" stroke-width="1" class="stuyvesant_town"/>
<path d="M 3040.2892 2593.0033 3045.8477 2616.7349 3026.8896 2651.7651 2902.6595 2583.1255 2932.72 2531.0485 3040.2892 2593.0033 Z" fill="none" stroke="#012394" opacity="0.6" stroke-width="1" class="stuyvesant_town"/>
<path d="M 3026.8898 2652.4564 2953.3209 2610.9973 2982.4546 2559.839 3040.2892 2593.0033 3046.7729 2616.5042 3026.8898 2652.4564 Z" fill="none" stroke="#012394" opacity="0.6" stroke-width="1" class="stuyvesant_town"/>
<path d="M 2981.5293 2559.3784 3040.9828 2591.851 3046.0793 2617.8869 3026.1958 2652.4566 2953.5524 2611.4581 2981.5293 2559.3784 Z" fill="none" stroke="#012394" opacity="0.6" stroke-width="1" class="stuyvesant_town"/>
<path d="M 3044.6912 2617.1961 3027.1211 2652.2259 2952.8584 2611.4582 2993.0898 2540.9432 2996.3262 2533.5695 3033.3387 2553.3745 3044.6912 2617.1961 Z" fill="none" stroke="#012394" opacity="0.6" stroke-width="1" class="stuyvesant_town"/>
<path d="M 2997.2511 2532.6477 3032.8759 2552.453 3047.2358 2617.6562 3027.815 2651.9953 2955.4029 2611.6881 2997.2511 2532.6477 Z" fill="none" stroke="#012394" opacity="0.6" stroke-width="1" class="stuyvesant_town"/>
<path d="M 3028.7404 2652.4559 2951.9323 2607.3108 3049.0306 2432.1836 3071.2363 2444.1564 3048.1613 2618.3472 3028.7404 2652.4559 Z" fill="none" stroke="#012394" opacity="0.6" stroke-width="1" class="stuyvesant_town"/>
<path d="M 3045.3842 2613.7395 3028.7399 2650.6125 2950.0826 2610.9979 2997.252 2536.3341 3033.3389 2553.8353 3045.3842 2613.7395 Z" fill="none" stroke="#012394" opacity="0.6" stroke-width="1" class="stuyvesant_town"/>
<path d="M 2982.1845 2560.3183 3043.1073 2592.5601 3051.1287 2615.5996 3028.4705 2653.3961 2955.8271 2613.7803 2982.1845 2560.3183 Z" fill="none" stroke="#012394" opacity="0.6" stroke-width="1" class="stuyvesant_town"/>
<path d="M 3028.7404 2652.4559 2952.858 2609.154 2997.2509 2531.7261 3037.9646 2552.9124 3052.7865 2614.659 3028.7404 2652.4559 Z" fill="none" stroke="#012394" opacity="0.6" stroke-width="1" class="stuyvesant_town"/>
<path d="M 2954.5932 2611.1122 2982.4548 2560.7606 3040.4046 2591.9664 3046.3103 2616.7348 3027.1208 2651.3042 2954.5932 2611.1122 Z" fill="none" stroke="#012394" opacity="0.6" stroke-width="1" class="stuyvesant_town"/>
<path d="M 3027.121 2651.8803 2952.974 2610.8821 2981.645 2559.724 3040.1731 2591.2752 3048.1607 2616.3886 3027.121 2651.8803 Z" fill="none" stroke="#012394" opacity="0.6" stroke-width="1" class="stuyvesant_town"/>
<path d="M 2948.6948 2611.459 2976.9039 2562.1443 3038.4378 2589.778 3045.8469 2614.2002 3024.1127 2647.8486 2948.6948 2611.459 Z" fill="none" stroke="#012394" opacity="0.6" stroke-width="1" class="stuyvesant_town"/>
<path d="M 2956.5588 2608.2316 3006.5026 2531.7238 3030.5625 2551.0712 3047.2344 2612.8173 3029.6641 2646.9253 2956.5588 2608.2316 Z" fill="none" stroke="#012394" opacity="0.6" stroke-width="1" class="stuyvesant_town"/>
<path d="M 3000.0262 2530.8038 3044.439 2546.4591 3057.4122 2612.8142 3030.5899 2648.7685 2962.1099 2606.3871 3000.0262 2530.8038 Z" fill="none" stroke="#012394" opacity="0.6" stroke-width="1" class="stuyvesant_town"/>
<path d="M 3036.5772 2554.2952 3047.6971 2613.278 3027.3523 2651.9954 2953.7837 2611.458 2998.1764 2533.1083 3036.5772 2554.2952 Z" fill="none" stroke="#012394" opacity="0.6" stroke-width="1" class="stuyvesant_town"/>
<path d="M 3034.2638 2552.9134 3048.1596 2612.817 3028.7401 2651.5342 2951.9331 2610.9976 2997.2518 2535.4125 3034.2638 2552.9134 Z" fill="none" stroke="#012394" opacity="0.6" stroke-width="1" class="stuyvesant_town"/>
<path d="M 3035.4212 2555.9084 3051.1658 2609.8207 3022.9599 2661.9052 2922.3242 2605.9337 2971.3431 2518.3689 3035.4212 2555.9084 Z" fill="none" stroke="#012394" opacity="0.6" stroke-width="1" class="stuyvesant_town"/>
<path d="M 2959.7973 2608.9222 2984.3053 2561.221 2986.8506 2565.5982 3042.3713 2594.1548 3045.1535 2616.0438 3027.5825 2647.8476 2959.7973 2608.9222 Z" fill="none" stroke="#012394" opacity="0.6" stroke-width="1" class="stuyvesant_town"/>
<path d="M 2953.9249 2612.2691 2945.275 2606.4596 2994.5352 2530.5148 2999.5643 2533.9189 3036.7783 2553.7445 3041.6171 2593.4131 3056.9127 2620.8584 3071.6022 2645.2997 3066.9849 2673.9554 2953.9249 2612.2691 Z" fill="none" stroke="#012394" opacity="0.6" stroke-width="1" class="stuyvesant_town"/>
<path d="M 3032.4134 2552.914 3049.0849 2612.8168 3025.039 2651.5352 2953.7834 2610.0755 2995.401 2533.5697 3032.4134 2552.914 Z" fill="none" stroke="#012394" opacity="0.6" stroke-width="1" class="stuyvesant_town"/>
<path d="M 2996.7887 2533.5694 3035.1887 2551.9916 3045.8472 2615.1219 3026.4274 2653.3783 2952.8581 2610.0757 2996.7887 2533.5694 Z" fill="none" stroke="#012394" opacity="0.6" stroke-width="1" class="stuyvesant_town"/>
<path d="M 3026.8893 2650.613 2953.3213 2612.8407 2981.5299 2562.1433 3041.6773 2593.9246 3050.0092 2609.5906 3026.8893 2650.613 Z" fill="none" stroke="#012394" opacity="0.6" stroke-width="1" class="stuyvesant_town"/>
<path d="M 2955.6342 2611.4577 2982.9175 2561.4518 3040.2893 2593.2337 3047.2354 2616.2736 3028.2774 2651.3039 2955.6342 2611.4577 Z" fill="none" stroke="#012394" opacity="0.6" stroke-width="1" class="stuyvesant_town"/>
<path d="M 3027.121 2651.8803 2953.321 2611.2277 2997.1357 2533.4541 3032.9916 2552.7986 3046.6571 2616.0434 3027.121 2651.8803 Z" fill="none" stroke="#012394" opacity="0.6" stroke-width="1" class="stuyvesant_town"/>
<path d="M 2951.0078 2610.9977 2996.7885 2532.6478 3031.9506 2551.9925 3036.3504 2569.9631 3046.0786 2615.5827 3026.6582 2651.3043 2951.0078 2610.9977 Z" fill="none" stroke="#012394" opacity="0.6" stroke-width="1" class="stuyvesant_town"/>
<path d="M 3027.3515 2648.9999 2954.0147 2610.0755 2981.9916 2558.2262 3041.9078 2590.9291 3045.3852 2617.1959 3027.3515 2648.9999 Z" fill="none" stroke="#012394" opacity="0.6" stroke-width="1" class="stuyvesant_town"/>
<path d="M 2954.7086 2610.0753 2984.074 2561.2211 3041.4462 2594.6159 3046.0801 2620.4216 3027.5832 2650.3824 2954.7086 2610.0753 Z" fill="none" stroke="#012394" opacity="0.6" stroke-width="1" class="stuyvesant_town"/>
<path d="M 3050.0132 2622.9551 3031.5161 2651.9943 2955.6336 2608.6926 2995.4028 2540.9426 2998.1766 2534.0299 3033.8012 2552.9136 3050.0132 2622.9551 Z" fill="none" stroke="#012394" opacity="0.6" stroke-width="1" class="stuyvesant_town"/>
<path d="M 2982.4547 2560.2998 3039.8265 2592.5426 3046.31 2615.5826 3025.9638 2649.6915 2953.7836 2610.9972 2982.4547 2560.2998 Z" fill="none" stroke="#012394" opacity="0.6" stroke-width="1" class="stuyvesant_town"/>
<path d="M 3046.7723 2614.6608 3028.2775 2651.5343 2956.0961 2608.2317 2984.6631 2559.9445 2986.6182 2560.7597 3039.8259 2590.6993 3046.7723 2614.6608 Z" fill="none" stroke="#012394" opacity="0.6" stroke-width="1" class="stuyvesant_town"/>
<path d="M 2953.3213 2612.8407 2996.7887 2533.5694 3031.95 2550.1492 3046.7719 2613.2783 3025.5019 2652.4568 2953.3213 2612.8407 Z" fill="none" stroke="#012394" opacity="0.6" stroke-width="1" class="stuyvesant_town"/>
<path d="M 2958.4091 2607.3095 2984.5364 2560.5297 3042.1387 2589.5465 3046.5412 2615.3522 3028.0462 2651.7648 2959.5665 2611.4569 2958.4091 2607.3095 Z" fill="none" stroke="#012394" opacity="0.6" stroke-width="1" class="stuyvesant_town"/>
<path d="M 2982.4546 2559.839 3040.173 2591.16 3045.6158 2615.0068 3045.2699 2618.348 3026.6584 2652.2261 2953.5524 2611.6885 2982.4546 2559.839 Z" fill="none" stroke="#012394" opacity="0.6" stroke-width="1" class="stuyvesant_town"/>
<path d="M 3040.2891 2592.5425 3045.6159 2615.3524 3028.0458 2650.3822 2956.0965 2609.8446 2982.9172 2560.0693 3040.2891 2592.5425 Z" fill="none" stroke="#012394" opacity="0.6" stroke-width="1" class="stuyvesant_town"/>
<path d="M 2955.1713 2610.3057 2981.5291 2558.4568 3039.5948 2591.1602 3046.0791 2616.9652 3025.9643 2651.7654 2955.1713 2610.3057 Z" fill="none" stroke="#012394" opacity="0.6" stroke-width="1" class="stuyvesant_town"/>
<path d="M 2946.8238 2505.0109 3033.3385 2552.4529 3044.9213 2612.818 3025.9636 2649.2307 2905.6663 2581.973 2946.8238 2505.0109 Z" fill="none" stroke="#012394" opacity="0.6" stroke-width="1" class="stuyvesant_town"/>
<path d="M 3048.1596 2612.817 3026.4263 2649.2305 2955.1714 2610.5361 2981.5295 2560.3 3041.6759 2588.8554 3048.1596 2612.817 Z" fill="none" stroke="#012394" opacity="0.6" stroke-width="1" class="stuyvesant_town"/>
<path d="M 2997.7138 2532.9932 3033.1076 2553.9506 3046.4258 2616.2739 3027.4676 2650.6128 2954.0148 2610.7667 2997.7138 2532.9932 Z" fill="none" stroke="#012394" opacity="0.6" stroke-width="1" class="stuyvesant_town"/>
<path d="M 2954.7085 2609.1536 2982.4547 2560.2998 3041.6778 2595.3071 3044.4594 2615.5832 3022.2634 2652.4577 2954.7085 2609.1536 Z" fill="none" stroke="#012394" opacity="0.6" stroke-width="1" class="stuyvesant_town"/>
<path d="M 2968.6201 2762.1622 2888.1059 2727.1472 2998.1767 2534.4907 3036.1139 2551.9913 3045.3861 2620.1914 2968.6201 2762.1622 Z" fill="none" stroke="#012394" opacity="0.6" stroke-width="1" class="stuyvesant_town"/>
<path d="M 3022.4973 2661.9054 2923.0183 2606.8553 2960.7077 2537.0336 3039.1285 2578.718 3046.0788 2616.274 3022.4973 2661.9054 Z" fill="none" stroke="#012394" opacity="0.6" stroke-width="1" class="stuyvesant_town"/>
<path d="M 3031.9502 2550.61 3047.2336 2610.0523 3030.5889 2645.0816 2963.4987 2610.9952 2957.9471 2610.5355 2984.7668 2556.6128 2995.4032 2542.7859 2995.407 2558.4535 3000.4889 2531.2645 3031.9502 2550.61 Z" fill="none" stroke="#012394" opacity="0.6" stroke-width="1" class="stuyvesant_town"/>
<path d="M 2996.3259 2532.6479 3028.7114 2548.3069 3044.4594 2615.5832 3026.889 2649.6913 2952.8587 2612.8407 2996.3259 2532.6479 Z" fill="none" stroke="#012394" opacity="0.6" stroke-width="1" class="stuyvesant_town"/>
<path d="M 3026.8901 2653.3782 2957.4846 2610.9964 3000.9536 2540.0196 3036.1137 2551.0697 3051.8606 2612.8159 3026.8901 2653.3782 Z" fill="none" stroke="#012394" opacity="0.6" stroke-width="1" class="stuyvesant_town"/>
<path d="M 3000.9518 2532.6468 3033.3378 2550.1488 3046.3102 2616.5043 3033.3666 2651.5329 2955.6339 2610.0751 3000.9518 2532.6468 Z" fill="none" stroke="#012394" opacity="0.6" stroke-width="1" class="stuyvesant_town"/>
<path d="M 3046.3105 2617.426 3027.5836 2651.765 2954.2461 2610.5363 2982.4549 2561.2214 3040.752 2593.6944 3046.3105 2617.426 Z" fill="none" stroke="#012394" opacity="0.6" stroke-width="1" class="stuyvesant_town"/>
<path d="M 2952.8581 2610.0757 2996.3255 2530.8047 3035.1895 2554.7564 3046.31 2615.5826 3025.9643 2651.535 2952.8581 2610.0757 Z" fill="none" stroke="#012394" opacity="0.6" stroke-width="1" class="stuyvesant_town"/>
<path d="M 2953.5524 2611.4581 2981.992 2560.0695 2981.8763 2559.8391 3040.2889 2591.9665 3046.1949 2617.7717 3027.3524 2652.3411 2953.5524 2611.4581 Z" fill="none" stroke="#012394" opacity="0.6" stroke-width="1" class="stuyvesant_town"/>
<path d="M 3030.5894 2646.9251 2955.6331 2606.3884 3003.7264 2528.9596 3038.8868 2542.7743 3056.4846 2605.441 3030.5894 2646.9251 Z" fill="none" stroke="#012394" opacity="0.6" stroke-width="1" class="stuyvesant_town"/>
<path d="M 3008.4127 2763.9964 2826.1045 2695.8127 2834.427 2620.2303 2910.2739 2461.7039 2971.3288 2452.4772 3062.006 2509.5897 3040.7496 2585.1691 3080.5539 2644.1446 3067.6206 2708.6711 3025.0676 2755.6956 3013.0365 2752.0115 3008.4127 2763.9964 Z" fill="none" stroke="#012394" opacity="0.6" stroke-width="1" class="stuyvesant_town"/>
<path d="M 3027.1211 2652.2259 2954.94 2610.5361 2982.4548 2560.991 3041.6771 2593.0029 3046.3106 2617.6564 3027.1211 2652.2259 Z" fill="none" stroke="#012394" opacity="0.6" stroke-width="1" class="stuyvesant_town"/>
<path d="M 2957.4842 2609.1531 2998.639 2533.1081 3032.876 2552.9138 3044.9226 2617.4264 3027.8155 2653.8388 2957.4842 2609.1531 Z" fill="none" stroke="#012394" opacity="0.6" stroke-width="1" class="stuyvesant_town"/>
<path d="M 3071.2151 2378.7306 3079.768 2368.0159 3074.3356 2374.1223 3072.7182 2378.4998 3071.2151 2378.7306 Z" fill="none" stroke="#012394" opacity="0.6" stroke-width="1" class="stuyvesant_town"/>
<path d="M 3035.6517 2553.3739 3048.624 2618.5774 3025.7336 2653.8393 2953.0895 2610.5365 2997.02 2533.3389 3035.6517 2553.3739 Z" fill="none" stroke="#012394" opacity="0.6" stroke-width="1" class="stuyvesant_town"/>
<path d="M 3044.6912 2617.1961 3026.1954 2650.8436 2993.5743 2631.7265 2958.4101 2612.1484 2960.2596 2607.5396 2985.9252 2564.6768 3040.0578 2592.5426 3044.6912 2617.1961 Z" fill="none" stroke="#012394" opacity="0.6" stroke-width="1" class="stuyvesant_town"/>
<path d="M 3030.5633 2553.8361 3044.4584 2611.8964 3027.8138 2647.8476 2954.709 2611.9187 2995.401 2533.5697 3018.5348 2550.1529 3030.5633 2553.8361 Z" fill="none" stroke="#012394" opacity="0.6" stroke-width="1" class="stuyvesant_town"/>
<path d="M 3044.9225 2616.9656 3027.3521 2651.3042 2954.2461 2610.3058 2982.4547 2560.5302 3039.5951 2592.3123 3044.9225 2616.9656 Z" fill="none" stroke="#012394" opacity="0.6" stroke-width="1" class="stuyvesant_town"/>
<path d="M 2997.2674 2599.0057 2998.1775 2537.7163 3033.8028 2558.4434 3045.3857 2618.8088 3025.9631 2647.3872 2957.0216 2609.1532 2975.5184 2572.7435 2997.7165 2544.1677 2997.2674 2599.0057 Z" fill="none" stroke="#012394" opacity="0.6" stroke-width="1" class="stuyvesant_town"/>
<path d="M 2956.5422 2526.2056 3072.2051 2578.7078 3025.9663 2658.9088 2918.6202 2587.0401 2956.5422 2526.2056 Z" fill="none" stroke="#012394" opacity="0.6" stroke-width="1" class="stuyvesant_town"/>
<path d="M 2981.5297 2561.2217 3050.9301 2595.3043 3025.0387 2650.6135 2951.9327 2609.1542 2981.5297 2561.2217 Z" fill="none" stroke="#012394" opacity="0.6" stroke-width="1" class="stuyvesant_town"/>
<path d="M 2954.9402 2611.2274 2965.4076 2591.2388 2972.2561 2577.0694 2997.5844 2532.5476 3032.7059 2554.2437 3038.8206 2583.2083 3039.1152 2590.6944 3045.3836 2616.0765 3039.836 2629.7883 3033.1628 2643.5755 3026.4568 2651.6425 3010.956 2643.4664 2995.0514 2634.8995 2977.876 2623.855 2956.0704 2612.0115 2954.9402 2611.2274 Z" fill="none" stroke="#012394" opacity="0.6" stroke-width="1" class="stuyvesant_town"/>
<path d="M 3029.6368 2549.2282 3052.7851 2610.0506 3023.1879 2649.6923 2950.0833 2614.6847 2987.9994 2532.6499 3029.6368 2549.2282 Z" fill="none" stroke="#012394" opacity="0.6" stroke-width="1" class="stuyvesant_town"/>
<path d="M 3036.1145 2553.8345 3048.1602 2614.6604 3028.7407 2653.3776 2951.0078 2610.9977 2998.1765 2533.5691 3036.1145 2553.8345 Z" fill="none" stroke="#012394" opacity="0.6" stroke-width="1" class="stuyvesant_town"/>
<path d="M 2994.4756 2532.6484 3038.8908 2556.5986 3048.1596 2612.817 3028.7407 2653.3776 2951.0085 2614.6845 2994.4756 2532.6484 Z" fill="none" stroke="#012394" opacity="0.6" stroke-width="1" class="stuyvesant_town"/>
<path d="M 2953.5523 2611.3429 2996.6731 2533.4542 3032.9918 2553.2594 3045.732 2616.6197 3044.2297 2620.883 3026.6583 2651.65 2953.5523 2611.3429 Z" fill="none" stroke="#012394" opacity="0.6" stroke-width="1" class="stuyvesant_town"/>
<path d="M 2954.7087 2610.5362 2981.9924 2561.6824 2979.6802 2565.3694 2981.5293 2559.3784 2977.8299 2565.8307 3051.394 2599.4517 3043.0718 2616.5053 3025.039 2651.5352 3024.1123 2646.466 2954.7087 2610.5362 Z" fill="none" stroke="#012394" opacity="0.6" stroke-width="1" class="stuyvesant_town"/></svg>