<?xml version="1.0"?><svg xmlns="http://www.w3.org/2000/svg" version="1.2" baseProfile="tiny" width="6000" height="5918" viewBox="0 0 6000 5918" stroke-linecap="round" stroke-linejoin="round"><path d="M 3211.2858 2229.871 3168.069 2279.6427 3117.6501 2251.5617 3147.9188 2198.114 3211.2858 2229.871 Z" fill="none" stroke="#865327" opacity="0.6" stroke-width="1" class="sutton_place"/>
<path d="M 3152.5355 2179.6866 3205.2717 2224.8066 3104.5116 2366.7404 3101.7346 2361.2127 3102.6643 2374.1126 3067.5062 2351.0885 3152.5355 2179.6866 Z" fill="none" stroke="#865327" opacity="0.6" stroke-width="1" class="sutton_place"/>
<path d="M 3173.8454 2269.5053 3097.0646 2233.1426 3138.6547 2158.5033 3227.4569 2200.8423 3173.8454 2269.5053 Z" fill="none" stroke="#865327" opacity="0.6" stroke-width="1" class="sutton_place"/>
<path d="M 3210.8218 2226.6466 3158.132 2293.9281 3133.1507 2273.6681 3171.9692 2208.2381 3210.8218 2226.6466 Z" fill="none" stroke="#865327" opacity="0.6" stroke-width="1" class="sutton_place"/>
<path d="M 3150.3463 2197.5372 3200.6455 2220.8932 3169.8026 2278.1447 3119.0374 2251.446 3124.4678 2242.6913 3150.3463 2197.5372 Z" fill="none" stroke="#865327" opacity="0.6" stroke-width="1" class="sutton_place"/>
<path d="M 3212.8992 2219.0448 3185.172 2261.4385 3169.9186 2278.9509 3119.2683 2250.6398 3153.4634 2187.0564 3212.8992 2219.0448 Z" fill="none" stroke="#865327" opacity="0.6" stroke-width="1" class="sutton_place"/>
<path d="M 3146.5371 2211.9339 3190.4781 2234.4872 3176.6185 2265.8187 3128.0509 2240.5018 3146.5371 2211.9339 Z" fill="none" stroke="#865327" opacity="0.6" stroke-width="1" class="sutton_place"/>
<path d="M 3104.4809 2281.0497 3155.3187 2200.8748 3159.012 2186.1328 3147.9662 2315.1242 3192.3243 2226.6552 3104.4809 2281.0497 Z" fill="none" stroke="#865327" opacity="0.6" stroke-width="1" class="sutton_place"/>
<path d="M 3149.0742 2196.5013 3210.5916 2228.7197 3147.0408 2313.9728 3098.2401 2287.9622 3149.0742 2196.5013 Z" fill="none" stroke="#865327" opacity="0.6" stroke-width="1" class="sutton_place"/>
<path d="M 3253.3384 2173.191 3217.2897 2213.7453 3059.1156 2140.1067 3250.3665 1789.105 3411.2552 1840.5797 3248.7162 2176.8785 3092.3876 2081.139 3253.3384 2173.191 Z" fill="none" stroke="#865327" opacity="0.6" stroke-width="1" class="sutton_place"/>
<path d="M 3188.6323 2243.2406 3139.6442 2321.5773 3121.1414 2312.3705 3101.7123 2298.5568 3086.9098 2288.4268 3096.1607 2293.0305 3138.6773 2215.6222 3146.0777 2219.3045 3188.6323 2243.2406 Z" fill="none" stroke="#865327" opacity="0.6" stroke-width="1" class="sutton_place"/>
<path d="M 3187.9446 2242.2428 3158.521 2294.7136 3108.1026 2269.3957 3139.4781 2212.9209 3187.9446 2242.2428 Z" fill="none" stroke="#865327" opacity="0.6" stroke-width="1" class="sutton_place"/>
<path d="M 3208.0476 2227.5692 3178.9328 2270.4244 3147.9418 2254.7746 3175.6684 2207.7759 3208.0476 2227.5692 Z" fill="none" stroke="#865327" opacity="0.6" stroke-width="1" class="sutton_place"/>
<path d="M 3250.563 2171.35 3172.9191 2266.2809 3025.8397 2199.9981 3087.7652 2084.8253 3250.563 2171.35 Z" fill="none" stroke="#865327" opacity="0.6" stroke-width="1" class="sutton_place"/>
<path d="M 3160.8327 2117.0392 3257.9577 2163.9761 3188.6467 2275.4876 3102.6126 2229.4554 3159.9056 2111.5123 3160.8327 2117.0392 Z" fill="none" stroke="#865327" opacity="0.6" stroke-width="1" class="sutton_place"/>
<path d="M 3166.603 2277.9738 3120.1358 2253.0073 3150.6686 2197.9251 3208.0817 2229.7177 3166.603 2277.9738 Z" fill="none" stroke="#865327" opacity="0.6" stroke-width="1" class="sutton_place"/>
<path d="M 3200.7609 2220.3173 3209.6655 2226.1865 3176.1633 2282.4033 3144.94 2265.1409 3176.4774 2207.0845 3200.7609 2220.3173 Z" fill="none" stroke="#865327" opacity="0.6" stroke-width="1" class="sutton_place"/>
<path d="M 3145.158 2232.2032 3177.0558 2208.1207 3201.8009 2219.3955 3168.2997 2278.4909 3131.4105 2258.121 3145.158 2232.2032 Z" fill="none" stroke="#865327" opacity="0.6" stroke-width="1" class="sutton_place"/>
<path d="M 3174.0762 2268.5838 3151.1804 2258.2283 3186.0669 2193.952 3208.0385 2208.2219 3174.0762 2268.5838 Z" fill="none" stroke="#865327" opacity="0.6" stroke-width="1" class="sutton_place"/>
<path d="M 3200.6516 2234.0219 3153.9755 2307.7506 3100.7795 2276.4442 3146.5312 2197.1933 3200.6516 2234.0219 Z" fill="none" stroke="#865327" opacity="0.6" stroke-width="1" class="sutton_place"/>
<path d="M 3144.4777 2265.3714 3178.9052 2207.3138 3211.7472 2227.7978 3173.1566 2280.7922 3144.4777 2265.3714 Z" fill="none" stroke="#865327" opacity="0.6" stroke-width="1" class="sutton_place"/>
<path d="M 3211.9744 2219.2756 3173.8504 2281.0222 3118.8059 2250.8703 3153.4636 2187.517 3211.9744 2219.2756 Z" fill="none" stroke="#865327" opacity="0.6" stroke-width="1" class="sutton_place"/>
<path d="M 3199.8146 2224.0721 3169.5018 2277.7072 3144.7085 2264.45 3175.7621 2210.6318 3199.8146 2224.0721 Z" fill="none" stroke="#865327" opacity="0.6" stroke-width="1" class="sutton_place"/>
<path d="M 3169.2261 2281.9456 3147.0217 2266.7524 3122.507 2254.7846 3169.1753 2163.097 3235.3172 2198.9958 3169.2261 2281.9456 Z" fill="none" stroke="#865327" opacity="0.6" stroke-width="1" class="sutton_place"/>
<path d="M 3146.6739 2264.334 3175.6693 2209.8488 3201.1071 2219.0504 3168.6461 2277.339 3146.6739 2264.334 Z" fill="none" stroke="#865327" opacity="0.6" stroke-width="1" class="sutton_place"/>
<path d="M 3168.2992 2277.3392 3142.3968 2265.8329 3174.2825 2211.001 3202.0351 2225.7294 3168.2992 2277.3392 Z" fill="none" stroke="#865327" opacity="0.6" stroke-width="1" class="sutton_place"/>
<path d="M 3208.9728 2228.2598 3175.9322 2282.6337 3175.2374 2280.1003 3145.056 2265.947 3176.8256 2210.3089 3208.9728 2228.2598 Z" fill="none" stroke="#865327" opacity="0.6" stroke-width="1" class="sutton_place"/>
<path d="M 3207.124 2230.3336 3174.7741 2278.2578 3143.3215 2265.3719 3173.8201 2211.0012 3207.124 2230.3336 Z" fill="none" stroke="#865327" opacity="0.6" stroke-width="1" class="sutton_place"/>
<path d="M 3138.7257 2338.1631 3067.4847 2283.8264 3105.3776 2202.7367 3194.1862 2253.3727 3138.7257 2338.1631 Z" fill="none" stroke="#865327" opacity="0.6" stroke-width="1" class="sutton_place"/>
<path d="M 3208.0476 2227.5692 3181.0146 2272.0359 3168.9934 2278.4906 3145.4025 2265.1407 3175.9003 2209.388 3208.0476 2227.5692 Z" fill="none" stroke="#865327" opacity="0.6" stroke-width="1" class="sutton_place"/>
<path d="M 3176.5947 2211 3207.5851 2227.3391 3169.6869 2278.0296 3176.5947 2211 Z" fill="none" stroke="#865327" opacity="0.6" stroke-width="1" class="sutton_place"/>
<path d="M 3174.5392 2269.7353 3059.1388 2214.729 3113.212 2129.9549 3218.6655 2189.7911 3174.5392 2269.7353 Z" fill="none" stroke="#865327" opacity="0.6" stroke-width="1" class="sutton_place"/>
<path d="M 3100.3532 2378.26 3100.8141 2373.6526 3063.3431 2349.2469 3151.6129 2185.2146 3210.8205 2223.8827 3100.3532 2378.26 Z" fill="none" stroke="#865327" opacity="0.6" stroke-width="1" class="sutton_place"/>
<path d="M 3144.1305 2264.5654 3178.4422 2205.9321 3202.2628 2218.1285 3168.8779 2278.6058 3144.1305 2264.5654 Z" fill="none" stroke="#865327" opacity="0.6" stroke-width="1" class="sutton_place"/>
<path d="M 3213.5947 2222.9601 3175.701 2282.8642 3134.9944 2258.0044 3168.2643 2195.3417 3213.5947 2222.9601 Z" fill="none" stroke="#865327" opacity="0.6" stroke-width="1" class="sutton_place"/>
<path d="M 3206.7761 2228.0305 3159.6362 2296.8068 3134.5419 2283.3418 3174.9761 2210.8855 3206.7761 2228.0305 Z" fill="none" stroke="#865327" opacity="0.6" stroke-width="1" class="sutton_place"/>
<path d="M 3170.1495 2278.2597 3119.2697 2254.3251 3150.693 2197.1916 3207.1232 2228.491 3170.1495 2278.2597 Z" fill="none" stroke="#865327" opacity="0.6" stroke-width="1" class="sutton_place"/>
<path d="M 3159.5113 2274.5788 3139.6009 2212.3973 3193.2254 2174.1415 3200.1853 2225.7303 3159.5113 2274.5788 Z" fill="none" stroke="#865327" opacity="0.6" stroke-width="1" class="sutton_place"/>
<path d="M 3147.4833 2264.4489 3176.134 2215.146 3198.3354 2225.2705 3171.0746 2278.72 3147.4833 2264.4489 Z" fill="none" stroke="#865327" opacity="0.6" stroke-width="1" class="sutton_place"/>
<path d="M 3096.6503 2370.429 3063.8048 2346.4825 3054.5515 2335.4283 3082.3092 2360.298 3060.1016 2336.348 3164.5431 2143.7529 3257.0415 2180.5592 3096.6503 2370.429 Z" fill="none" stroke="#865327" opacity="0.6" stroke-width="1" class="sutton_place"/>
<path d="M 3141.6792 2205.7171 3203.8901 2237.0147 3168.0678 2276.8786 3116.9561 2250.6406 3141.6792 2205.7171 Z" fill="none" stroke="#865327" opacity="0.6" stroke-width="1" class="sutton_place"/>
<path d="M 3244.0958 2184.251 3157.2151 2313.2776 3042.5037 2257.1148 3131.2359 2105.9967 3244.0958 2184.251 Z" fill="none" stroke="#865327" opacity="0.6" stroke-width="1" class="sutton_place"/>
<path d="M 3209.4356 2228.9505 3160.907 2294.3876 3083.1995 2257.1019 3129.8765 2177.8531 3209.4356 2228.9505 Z" fill="none" stroke="#865327" opacity="0.6" stroke-width="1" class="sutton_place"/>
<path d="M 3150.1147 2196.5008 3209.0886 2228.6052 3176.0466 2279.8696 3119.1529 2251.1005 3150.2299 2195.5795 3150.1147 2196.5008 Z" fill="none" stroke="#865327" opacity="0.6" stroke-width="1" class="sutton_place"/>
<path d="M 3201.5829 2247.8413 3177.5469 2273.6498 3147.9491 2272.7409 3130.3667 2249.7142 3140.5234 2206.4085 3168.2505 2163.0974 3185.8256 2171.381 3220.0541 2192.5543 3233.0156 2220.1867 3201.5829 2247.8413 Z" fill="none" stroke="#865327" opacity="0.6" stroke-width="1" class="sutton_place"/>
<path d="M 3174.5388 2268.814 3124.8144 2242.1154 3152.0802 2196.9607 3200.4157 2223.8875 3174.5388 2268.814 Z" fill="none" stroke="#865327" opacity="0.6" stroke-width="1" class="sutton_place"/>
<path d="M 3163.2162 2287.0157 3118.8088 2258.4713 3163.6292 2169.5481 3212.6558 2193.4791 3218.6726 2204.5317 3224.2211 2203.1471 3163.2162 2287.0157 Z" fill="none" stroke="#865327" opacity="0.6" stroke-width="1" class="sutton_place"/>
<path d="M 3096.3723 2236.8281 3125.2558 2186.8372 3126.8735 2184.7638 3204.811 2228.4921 3168.9928 2277.1085 3165.7553 2276.4189 3135.2263 2259.6167 3119.7308 2250.6396 3109.7863 2245.5759 3096.3723 2236.8281 Z" fill="none" stroke="#865327" opacity="0.6" stroke-width="1" class="sutton_place"/>
<path d="M 3169.2248 2278.7208 3142.8591 2265.3721 3175.67 2211.461 3199.2592 2222.9668 3169.2248 2278.7208 Z" fill="none" stroke="#865327" opacity="0.6" stroke-width="1" class="sutton_place"/>
<path d="M 3149.0742 2196.5013 3174.7444 2209.6188 3184.9097 2191.419 3216.8257 2210.2906 3201.809 2236.7853 3168.2996 2278.2605 3118.5751 2251.7917 3149.0742 2196.5013 Z" fill="none" stroke="#865327" opacity="0.6" stroke-width="1" class="sutton_place"/>
<path d="M 3140.1076 2323.8806 3117.905 2315.1359 3199.2372 2175.06 3238.0906 2196.6912 3140.1076 2323.8806 Z" fill="none" stroke="#865327" opacity="0.6" stroke-width="1" class="sutton_place"/>
<path d="M 3145.171 2264.4498 3174.0512 2210.7708 3206.1979 2227.5701 3202.3869 2236.5547 3189.9116 2260.0544 3180.3208 2271.6907 3168.4147 2276.9936 3145.171 2264.4498 Z" fill="none" stroke="#865327" opacity="0.6" stroke-width="1" class="sutton_place"/>
<path d="M 3174.7741 2278.2578 3116.4948 2253.8655 3157.1677 2199.0315 3216.8335 2226.6438 3198.8154 2263.5054 3174.7741 2278.2578 Z" fill="none" stroke="#865327" opacity="0.6" stroke-width="1" class="sutton_place"/>
<path d="M 3154.6469 2253.8505 3175.9009 2210.77 3200.1834 2221.5844 3174.7688 2266.0498 3152.3368 2258.9188 3154.6469 2253.8505 Z" fill="none" stroke="#865327" opacity="0.6" stroke-width="1" class="sutton_place"/>
<path d="M 3168.762 2278.03 3144.4775 2264.9108 3175.4384 2210.5398 3207.9326 2228.7209 3172.925 2279.9861 3168.762 2278.03 Z" fill="none" stroke="#865327" opacity="0.6" stroke-width="1" class="sutton_place"/>
<path d="M 3211.7454 2223.8822 3155.3617 2304.9858 3083.2007 2260.7873 3127.5634 2175.0902 3211.7454 2223.8822 Z" fill="none" stroke="#865327" opacity="0.6" stroke-width="1" class="sutton_place"/>
<path d="M 3168.0691 2279.873 3121.91 2251.6983 3149.8664 2198.2514 3209.1297 2229.4146 3168.0691 2279.873 Z" fill="none" stroke="#865327" opacity="0.6" stroke-width="1" class="sutton_place"/>
<path d="M 3206.4293 2228.0306 3155.3573 2294.1596 3106.7894 2270.6836 3146.0697 2199.4967 3206.4293 2228.0306 Z" fill="none" stroke="#865327" opacity="0.6" stroke-width="1" class="sutton_place"/>
<path d="M 3213.5951 2223.8814 3169.2202 2268.1252 3089.7048 2347.3954 3023.1044 2343.7302 3023.0833 2266.3337 3071.1465 2166.8188 3213.5951 2223.8814 Z" fill="none" stroke="#865327" opacity="0.6" stroke-width="1" class="sutton_place"/>
<path d="M 3095.8531 2074.92 3265.3506 2153.3779 3219.6006 2210.9803 3057.0367 2146.0953 3095.8531 2074.92 Z" fill="none" stroke="#865327" opacity="0.6" stroke-width="1" class="sutton_place"/>
<path d="M 3144.4777 2265.3714 3175.2073 2210.7703 3209.8982 2229.411 3180.5525 2272.7271 3170.843 2277.7988 3144.4777 2265.3714 Z" fill="none" stroke="#865327" opacity="0.6" stroke-width="1" class="sutton_place"/>
<path d="M 3174.745 2211.0008 3200.1847 2224.3483 3166.9128 2279.6432 3146.0959 2264.4494 3175.2062 2208.2367 3174.745 2211.0008 Z" fill="none" stroke="#865327" opacity="0.6" stroke-width="1" class="sutton_place"/>
<path d="M 3196.9567 2244.1581 3045.2509 2164.0631 3086.8392 2081.1409 3249.6367 2168.5867 3196.9567 2244.1581 Z" fill="none" stroke="#865327" opacity="0.6" stroke-width="1" class="sutton_place"/>
<path d="M 3174.9758 2210.0794 3199.7222 2224.1182 3168.9932 2278.0299 3144.7089 2265.3713 3174.9758 2210.0794 Z" fill="none" stroke="#865327" opacity="0.6" stroke-width="1" class="sutton_place"/>
<path d="M 3207.5756 2207.0705 3148.1957 2310.7474 3101.0135 2284.2757 3156.47 2189.3583 3207.5756 2207.0705 Z" fill="none" stroke="#865327" opacity="0.6" stroke-width="1" class="sutton_place"/>
<path d="M 3205.273 2227.5705 3110.7172 2262.1597 3162.2908 2285.8643 3158.0895 2191.6608 3205.273 2227.5705 Z" fill="none" stroke="#865327" opacity="0.6" stroke-width="1" class="sutton_place"/>
<path d="M 3116.494 2251.7925 3147.9176 2195.1198 3211.7495 2232.6347 3172.9264 2283.3261 3116.494 2251.7925 Z" fill="none" stroke="#865327" opacity="0.6" stroke-width="1" class="sutton_place"/></svg>