<?xml version="1.0"?><svg xmlns="http://www.w3.org/2000/svg" version="1.2" baseProfile="tiny" width="6000" height="5918" viewBox="0 0 6000 5918" stroke-linecap="round" stroke-linejoin="round"><path d="M 4541.9539 1219.4528 4539.4503 1228.8726 4644.6185 1150.4425 4650.1578 1148.5909 4659.4144 1157.7751 4668.321 1152.2355 4767.6652 1122.5787 4758.4896 1152.0465 4786.3502 1220.0899 4819.6161 1222.7791 4790.3456 1251.7471 4794.0789 1269.2263 4856.8779 1256.2038 4881.4322 1345.1185 4969.501 1397.7463 4955.7106 1428.1558 4922.4939 1450.3257 4870.7292 1443.9987 4894.8121 1468.8 4935.4992 1479.7543 4980.664 1498.5732 5029.7041 1523.3136 5047.3393 1554.5732 5028.9523 1595.1277 4968.1416 1578.9265 4941.3118 1551.3252 4897.8447 1538.5353 4858.9915 1522.0508 4809.8514 1477.6553 4739.5821 1461.2346 4663.8429 1480.7223 4629.0164 1483.9632 4593.9274 1498.7615 4589.3814 1537.4367 4592.2681 1596.3543 4550.6557 1585.3856 4509.948 1563.3654 4477.4314 1470.4417 4479.4742 1409.1771 4489.5633 1367.7361 4499.6362 1318.0129 4463.4633 1241.6858 4477.3169 1238.8996 4541.9539 1219.4528 Z" fill="none" stroke="#A9159C" opacity="0.6" stroke-width="1" class="throgs_neck"/>
<path d="M 4628.0836 1468.8168 4613.2163 1427.4208 4607.6682 1425.5906 4666.7542 1397.8575 4630.5811 1329.8143 4616.7356 1337.2052 4598.218 1317.9121 4619.4551 1310.5071 4555.5348 1223.1941 4654.2417 1148.4567 4685.7246 1184.2843 4744.8009 1160.2345 4900.4833 1371.5834 4943.9853 1402.781 4889.5981 1461.82 5037.6553 1543.4097 5018.3393 1582.1243 4880.4993 1525.3623 4756.4775 1440.0169 4628.0836 1468.8168 Z" fill="none" stroke="#A9159C" opacity="0.6" stroke-width="1" class="throgs_neck"/>
<path d="M 4738.2176 1104.5729 4987.8112 1570.2278 4501.6081 1539.9454 4474.2074 1209.5399 4731.7502 1104.1263 4738.2176 1104.5729 Z" fill="none" stroke="#A9159C" opacity="0.6" stroke-width="1" class="throgs_neck"/>
<path d="M 4570.421 1277.4674 4520.0733 1529.7841 4460.6868 1397.33 4486.5403 1386.2371 4490.1288 1327.3203 4467.9197 1308.952 4526.9578 1257.3012 4626.3274 1047.2878 4725.3795 1150.152 4770.6211 1138.0934 4757.7559 1170.3304 4784.5571 1174.8748 4835.5301 1248.3909 4869.8587 1312.7428 4915.2994 1385.3571 4933.8502 1415.6917 4933.8968 1435.9435 4987.7656 1550.8938 4916.5299 1519.757 4868.4417 1506.056 4817.5544 1479.4706 4780.5396 1456.5359 4737.9974 1440.9763 4701.0106 1430.0063 4664.9913 1440.2056 4629.9428 1474.3366 4641.9327 1462.3453 4607.7581 1471.6184 4594.8131 1467.9613 4578.1947 1476.2786 4574.4963 1475.3652 4566.1791 1475.3811 4546.767 1472.6562 4535.6601 1463.4713 4570.421 1277.4674 Z" fill="none" stroke="#A9159C" opacity="0.6" stroke-width="1" class="throgs_neck"/>
<path d="M 4573.7469 1566.5091 4516.4312 1559.2518 4474.2958 1258.3184 4724.3658 1106.9023 5022.0231 1576.5913 4573.7469 1566.5091 Z" fill="none" stroke="#A9159C" opacity="0.6" stroke-width="1" class="throgs_neck"/>
<path d="M 4658.5097 1433.7748 4606.7711 1439.4005 4585.4458 924.0726 4735.0839 931.1322 4797.1281 1435.3275 4658.5097 1433.7748 Z" fill="none" stroke="#A9159C" opacity="0.6" stroke-width="1" class="throgs_neck"/>
<path d="M 4523.2055 1226.9363 4644.0687 1142.9554 4653.3234 1151.2193 4741.0362 1127.1128 4778.2139 1232.8689 4807.7727 1230.0442 4817.0337 1240.148 4768.0999 1255.8995 4784.8015 1288.9979 4837.4204 1267.7147 4859.8012 1360.6288 4905.1286 1382.6188 4946.7468 1398.172 4893.3569 1489.4292 4906.2866 1485.7175 4936.8153 1499.4568 5004.3664 1536.1241 5005.2688 1526.9155 5019.1184 1521.3587 5027.5597 1572.8953 4997.9951 1577.5692 4926.7465 1541.829 4917.4583 1521.5961 4909.1386 1520.6944 4907.2651 1509.6512 4887.843 1503.2507 4883.2532 1517.0704 4861.9787 1508.8323 4861.946 1494.1026 4838.834 1490.4712 4819.3526 1456.4522 4772.1951 1443.6658 4751.8725 1447.3911 4748.1509 1435.4317 4641.9474 1469.7099 4595.7569 1478.0859 4570.8897 1522.3232 4587.6139 1568.3237 4517.3503 1556.4881 4480.1975 1455.2886 4493.0441 1405.5559 4484.6889 1384.3994 4497.5765 1357.6818 4496.5697 1312.5816 4460.4039 1239.9362 4523.2055 1226.9363 Z" fill="none" stroke="#A9159C" opacity="0.6" stroke-width="1" class="throgs_neck"/>
<path d="M 4532.2372 1239.5742 4538.9143 1228.2874 4657.682 1136.4863 4740.4815 1303.3582 4716.0206 1315.1446 4532.7699 1277.3087 4532.2372 1239.5742 Z" fill="none" stroke="#A9159C" opacity="0.6" stroke-width="1" class="throgs_neck"/>
<path d="M 4613.6389 1171.5442 4619.1747 1167.8522 4625.6306 1162.3177 4708.7299 1140.0636 4723.5051 1137.2722 4774.536 1241.1599 4816.2139 1288.0097 4827.2913 1283.3836 4919.0544 1411.1229 5018.2888 1560.9487 4722.3277 1460.3408 4696.4222 1445.6651 4676.0452 1422.6929 4597.1975 1268.2119 4575.9222 1255.3677 4564.8211 1248.026 4556.4902 1239.7586 4555.547 1229.6365 4557.3808 1222.2702 4561.9827 1213.0581 4569.365 1208.4423 4573.9773 1204.7522 4580.4338 1199.2179 4589.6564 1190.9172 4597.0384 1186.3014 4600.7248 1181.6927 4607.1792 1175.238 4613.6389 1171.5442 Z" fill="none" stroke="#A9159C" opacity="0.6" stroke-width="1" class="throgs_neck"/>
<path d="M 4560.1245 1207.5396 4581.3488 1194.6145 4611.784 1167.8667 4637.6167 1150.3304 4674.5676 1149.336 4718.8879 1138.202 4741.0632 1139.9964 4752.1896 1159.2987 4760.5819 1196.0929 4777.2724 1224.5877 4810.5724 1242.9232 4771.8093 1262.3342 4819.8736 1271.4346 4851.4076 1325.67 4945.8398 1405.5383 4894.173 1441.5573 4843.2621 1403.0083 4909.0486 1481.1083 4939.5814 1496.6886 5018.2096 1527.8053 5010.0014 1573.858 4916.5488 1528.0426 4845.2909 1484.9334 4778.6737 1448.2548 4702.8947 1447.4929 4631.8001 1478.9359 4567.2422 1548.1082 4540.3275 1488.3184 4519.8387 1403.6654 4529.8966 1346.5763 4532.579 1298.7084 4523.2535 1252.7062 4537.9895 1227.8289 4560.1245 1207.5396 Z" fill="none" stroke="#A9159C" opacity="0.6" stroke-width="1" class="throgs_neck"/>
<path d="M 4848.778 1390.1089 4683.4435 1425.4395 4584.2393 1256.272 4523.2501 1250.8655 4648.7007 1149.388 4743.8153 1130.788 4781.9489 1251.2681 4734.8887 1279.8995 4848.778 1390.1089 Z" fill="none" stroke="#A9159C" opacity="0.6" stroke-width="1" class="throgs_neck"/>
<path d="M 4735.0084 1116.0825 4991.4885 1561.933 4619.7664 1468.8332 4532.0377 1256.3713 4735.0084 1116.0825 Z" fill="none" stroke="#A9159C" opacity="0.6" stroke-width="1" class="throgs_neck"/>
<path d="M 4778.0961 1177.6496 5098.7666 1589.2943 4483.2431 1605.3473 4462.2964 1264.7828 4778.0961 1177.6496 Z" fill="none" stroke="#A9159C" opacity="0.6" stroke-width="1" class="throgs_neck"/>
<path d="M 4621.0939 1467.6522 4566.7672 1570.868 4510.3329 1540.5922 4476.8962 1449.5135 4482.3236 1385.0665 4498.7681 1345.8856 4486.6551 1290.6818 4471.7653 1226.75 4529.5548 1206.838 4644.187 991.8569 4751.0464 942.4542 4980.5595 1530.8166 4966.8062 1577.8027 4714.8485 1453.9187 4652.9695 1472.4561 4627.1101 1480.7928 4621.0939 1467.6522 Z" fill="none" stroke="#A9159C" opacity="0.6" stroke-width="1" class="throgs_neck"/>
<path d="M 4483.5166 1248.1776 4652.3812 1142.0185 4723.5184 1143.714 4746.635 1153.7887 5061.6689 1536.907 4991.5602 1592.3155 4617.9742 1497.3751 4595.9409 1572.911 4519.2312 1573.9774 4481.6939 1261.9865 4483.5166 1248.1776 Z" fill="none" stroke="#A9159C" opacity="0.6" stroke-width="1" class="throgs_neck"/>
<path d="M 5042.2318 1524.9857 5045.1824 1598.6324 4959.2242 1597.9155 4626.2462 1474.3439 4516.7229 1218.6652 4661.586 1125.4355 4752.9834 1097.6402 5042.2318 1524.9857 Z" fill="none" stroke="#A9159C" opacity="0.6" stroke-width="1" class="throgs_neck"/>
<path d="M 4685.9608 1300.2494 4782.8452 1238.3811 4965.2259 1397.2086 5043.2783 1575.6196 4956.4515 1597.922 4759.3413 1483.2778 4527.5494 1573.9619 4475.5552 1443.3298 4486.5941 1415.6934 4675.8102 1306.7129 4685.9608 1300.2494 Z" fill="none" stroke="#A9159C" opacity="0.6" stroke-width="1" class="throgs_neck"/>
<path d="M 4694.8143 1111.5644 4689.7468 1344.4227 4725.9439 1421.67 4759.2576 1443.6932 4728.0647 1108.7351 4835.916 1424.1966 4806.391 1445.4335 4778.6678 1445.4931 4762.028 1442.7668 4694.8143 1111.5644 Z" fill="none" stroke="#A9159C" opacity="0.6" stroke-width="1" class="throgs_neck"/>
<path d="M 4787.8003 1394.8442 4769.323 1396.7247 4750.7992 1376.5128 4760.0162 1365.4475 4787.8003 1394.8442 Z" fill="none" stroke="#A9159C" opacity="0.6" stroke-width="1" class="throgs_neck"/>
<path d="M 4409.151 988.8023 4659.0378 776.7306 4765.2388 778.351 4782.9675 863.8689 4751.7378 944.8983 4755.7334 1087.512 4789.4232 1289.9084 4848.4913 1260.3272 4933.8819 1429.4997 4900.7313 1481.1271 5045.0934 1561.805 5008.142 1569.259 4867.5278 1510.6612 4557.1109 1566.5408 4509.0034 1540.8524 4479.342 1493.0342 4409.151 988.8023 Z" fill="none" stroke="#A9159C" opacity="0.6" stroke-width="1" class="throgs_neck"/>
<path d="M 4733.6516 1129.889 4774.5379 1242.0803 4772.8273 1306.5114 4889.7204 1516.1352 4917.1811 1400.081 4824.5215 1284.31 4787.5674 1286.2308 4553.4052 1561.9445 4488.5297 1463.5586 4503.0732 1331.8988 4472.4247 1245.4366 4559.2321 1224.1074 4658.8423 1139.2448 4733.6516 1129.889 Z" fill="none" stroke="#A9159C" opacity="0.6" stroke-width="1" class="throgs_neck"/>
<path d="M 4576.8328 1257.0815 4556.0612 1225.9909 4658.186 1126.6036 4747.7122 1120.8264 5039.3144 1543.0797 4629.5699 1473.1672 4590.5098 1269.5355 4576.8328 1257.0815 Z" fill="none" stroke="#A9159C" opacity="0.6" stroke-width="1" class="throgs_neck"/>
<path d="M 4700.833 1343.4796 4714.7083 1350.8147 4744.2923 1358.1168 4726.7588 1369.1992 4770.2471 1396.7227 4708.3578 1407.8984 4669.5766 1422.706 4813.7379 1424.245 4879.5379 1508.7931 4898.8622 1471.9255 4858.9262 1382.7225 4949.5382 1406.4502 4836.5328 1284.2837 4640.7414 1327.9533 4650.9771 1363.8309 4651.9379 1382.2387 4633.5554 1431.9834 4624.0115 1278.2837 4548.128 1214.925 4606.2607 1178.0007 4675.3963 1102.4017 4731.7445 1101.3656 4753.9946 1139.0489 4789.1901 1181.307 4804.0931 1237.415 4827.2289 1254.8517 4889.1275 1252.8736 4700.833 1343.4796 Z" fill="none" stroke="#A9159C" opacity="0.6" stroke-width="1" class="throgs_neck"/>
<path d="M 4614.1089 1175.6846 4732.1261 1136.6409 4773.6975 1245.1494 4743.0102 1260.8606 4765.8975 1306.5257 4834.745 1276.6173 4853.1108 1329.9614 4838.2826 1414.8325 4760.4572 1428.3481 4614.1089 1175.6846 Z" fill="none" stroke="#A9159C" opacity="0.6" stroke-width="1" class="throgs_neck"/>
<path d="M 4403.3375 1364.2935 4462.9188 1097.2868 4706.7382 1070.1303 4842.0117 1254.8192 4972.9157 1524.2299 4570.7875 1468.9282 4550.4618 1471.7286 4403.3375 1364.2935 Z" fill="none" stroke="#A9159C" opacity="0.6" stroke-width="1" class="throgs_neck"/>
<path d="M 4742.3076 1127.6853 4782.795 1214.9124 4807.2929 1221.7622 4821.6563 1241.5185 4797.1945 1251.6956 4798.6181 1269.1797 4846.6465 1261.7119 4882.4491 1364.7204 4947.639 1384.3624 4954.6388 1414.2629 4915.9367 1462.2206 5029.7509 1523.1745 5039.5414 1559.0564 5009.5755 1589.0504 4958.6658 1556.4859 4889.277 1524.4219 4848.5681 1504.2589 4815.6771 1466.1262 4769.4502 1456.5595 4724.6161 1449.7495 4684.4509 1466.4023 4649.8246 1480.7412 4602.7274 1498.3255 4591.293 1559.1099 4574.695 1578.9364 4515.5215 1567.0792 4502.9834 1533.9587 4478.3585 1460.3551 4488.4851 1439.1637 4489.2755 1365.9813 4492.4076 1310.2881 4465.0259 1241.3084 4519.1622 1226.2535 4536.1299 1221.5051 4563.3543 1205.5778 4575.9224 1195.3152 4603.0165 1172.4852 4627.466 1156.1022 4656.1737 1132.9234 4674.6802 1147.9554 4742.3076 1127.6853 Z" fill="none" stroke="#A9159C" opacity="0.6" stroke-width="1" class="throgs_neck"/>
<path d="M 4766.6209 1302.5686 4701.317 1447.8193 4714.1677 1405.7711 4734.4165 1367.068 4745.4353 1333.9081 4766.6209 1302.5686 Z" fill="none" stroke="#A9159C" opacity="0.6" stroke-width="1" class="throgs_neck"/>
<path d="M 4523.2055 1226.9363 4652.3702 1136.497 4520.4304 1225.1007 4720.7203 1130.8362 5025.7156 1574.7411 4573.754 1570.1917 4486.6798 1462.6414 4471.4758 1231.633 4523.2055 1226.9363 Z" fill="none" stroke="#A9159C" opacity="0.6" stroke-width="1" class="throgs_neck"/>
<path d="M 5028.5016 1580.2586 4960.0221 1543.5935 4911.9216 1525.2913 4882.2733 1492.2159 4836.0009 1462.8598 4784.1908 1435.3552 4702.889 1444.7313 4623.443 1458.6996 4579.1294 1481.8004 4544.1248 1541.7075 4512.6286 1502.1792 4497.7422 1447.8921 4500.4468 1411.0654 4509.5156 1318.0803 4517.8451 1325.4283 4523.2913 1272.9545 4524.1397 1232.4566 4534.2629 1211.2698 4559.1673 1190.0554 4583.1646 1178.0455 4601.1832 1179.8512 4615.0309 1174.7625 4635.7804 1156.0857 4643.1623 1151.6998 4650.0809 1146.6245 4653.3119 1145.4677 4653.775 1146.0419 4662.2895 1130.7255 4662.865 1129.8041 4663.3193 1126.0071 4664.9241 1120.1373 4671.6223 1120.4689 4678.7826 1120.9145 4682.4782 1121.1371 4684.9027 1120.9021 4689.5268 1123.4233 4697.4928 1122.6018 4708.5736 1120.2784 4699.6743 1116.5007 4703.4644 1106.4854 4711.3215 1108.8848 4722.8515 1100.5789 5028.5016 1580.2586 Z" fill="none" stroke="#A9159C" opacity="0.6" stroke-width="1" class="throgs_neck"/>
<path d="M 4477.6222 1054.931 4674.3384 1036.1499 4735.4453 1104.1186 4739.231 1147.3623 4741.1249 1169.4451 4749.4994 1197.957 4808.7146 1238.3254 4779.1496 1238.389 4767.1799 1257.7422 4777.3804 1275.2078 4770.9539 1294.5499 4790.3491 1290.8269 4833.7388 1274.1655 4841.1607 1287.9552 4852.3337 1326.5883 4853.2984 1344.9953 4873.6904 1373.4846 4940.2975 1406.4716 4899.7405 1451.6709 4879.4141 1453.5578 4884.9381 1444.3397 4844.178 1399.3242 4854.3998 1425.0764 4875.7465 1466.454 4886.8775 1484.8408 4906.3033 1493.0823 5016.3788 1535.1748 5023.8363 1561.8561 5001.6921 1577.5604 4874.9274 1513.4065 4861.9603 1500.5468 4831.3762 1461.0288 4750.931 1439.108 4641.0306 1473.394 4578.2354 1497.4523 4577.3996 1543.4854 4566.3478 1563.7612 4520.1332 1562.0069 4503.4022 1510.4818 4483.8957 1456.2025 4489.3781 1422.1321 4493.9209 1379.7801 4496.5951 1326.388 4481.7291 1281.3146 4462.1937 1207.721 4498.1369 1159.7998 4477.6222 1054.931 Z" fill="none" stroke="#A9159C" opacity="0.6" stroke-width="1" class="throgs_neck"/>
<path d="M 4757.1473 1428.9689 4629.9287 1467.2021 4613.2136 1426.04 4669.9931 1400.1523 4645.1762 1350.9559 4628.7222 1324.2954 4612.5803 1338.594 4601.9184 1320.206 4618.0656 1308.669 4627.7536 1301.7467 4577.8037 1272.8513 4528.7463 1225.5454 4614.0972 1169.7027 4646.8512 1148.4715 4651.9451 1154.9032 4666.2513 1148.4325 4677.7981 1147.9491 4745.4638 1255.9473 4768.7056 1323.5482 4853.8236 1373.5288 4939.3565 1399.1096 4943.5456 1412.4475 4939.3851 1411.5366 4934.3133 1416.1509 4929.6855 1412.9397 4901.571 1443.8419 4900.2036 1452.1301 4881.2686 1456.3153 4846.0617 1415.4292 4863.2626 1462.7995 4879.904 1465.9844 4891.5096 1489.8937 4905.3656 1487.1005 4975.6904 1525.144 5018.6904 1535.6296 5006.3111 1576.6288 4988.2874 1576.2111 4966.0552 1554.6274 4927.6549 1534.9221 4910.0607 1519.7717 4864.7451 1506.0643 4822.131 1459.2078 4749.5506 1441.8726 4761.0961 1439.0866 4769.8496 1427.1009 4755.5117 1420.2272 4743.9432 1411.9668 4724.046 1397.7403 4757.1473 1428.9689 Z" fill="none" stroke="#A9159C" opacity="0.6" stroke-width="1" class="throgs_neck"/>
<path d="M 5070.9536 1554.3768 4497.9603 1566.6513 4519.5664 1257.3149 4829.5775 1061.5876 5070.9536 1554.3768 Z" fill="none" stroke="#A9159C" opacity="0.6" stroke-width="1" class="throgs_neck"/>
<path d="M 4885.4769 1511.7736 4663.325 1410.2767 4561.109 1112.274 4719.8162 1023.6199 4885.4769 1511.7736 Z" fill="none" stroke="#A9159C" opacity="0.6" stroke-width="1" class="throgs_neck"/>
<path d="M 4681.0343 1149.3229 4745.6455 1122.5019 5110.3538 1417.1104 5031.4114 1637.3361 4931.5642 1627.4425 4766.9298 1575.3257 4533.1827 1620.9073 4486.0327 1614.5494 4470.8465 1394.5501 4494.7336 1319.0279 4458.5247 1222.4529 4590.5785 1189.9951 4640.3826 1147.5641 4651.4482 1137.4191 4681.0343 1149.3229 Z" fill="none" stroke="#A9159C" opacity="0.6" stroke-width="1" class="throgs_neck"/>
<path d="M 5023.6667 1539.6621 5000.3795 1578.6601 4630.4708 1467.9863 4532.3351 1243.515 4640.072 1150.2528 4756.2345 1077.6951 4837.0714 1274.1489 4938.3051 1394.411 5023.6667 1539.6621 Z" fill="none" stroke="#A9159C" opacity="0.6" stroke-width="1" class="throgs_neck"/>
<path d="M 4860.9052 1441.6318 4806.4169 1457.4008 4739.8283 1432.6875 4677.9643 1457.67 4646.5717 1471.5418 4619.6723 1420.9644 4649.1216 1360.1527 4630.5592 1318.7691 4640.6773 1295.7384 4660.0657 1288.3364 4693.2866 1268.0203 4712.6436 1245.8916 4747.6981 1220.0486 4768.008 1212.643 4806.0285 1277.9074 4837.4365 1275.0777 4876.4543 1369.7965 4931.9619 1398.2061 4888.6449 1448.9342 4937.5444 1414.7627 4896.0357 1447.997 4860.9052 1441.6318 Z" fill="none" stroke="#A9159C" opacity="0.6" stroke-width="1" class="throgs_neck"/>
<path d="M 4522.5669 1132.1465 4529.0283 1129.3737 4537.1055 1126.1377 4550.9485 1118.7496 4568.9527 1113.6541 4585.0994 1103.5005 4606.099 1095.1777 4618.3321 1091.7029 4635.6499 1090.2884 4637.7229 1087.5237 4650.8892 1088.8778 4671.2231 1094.3582 4688.8041 1108.816 4695.2772 1112.0236 4738.922 1110.0928 4749.9163 1176.5589 4759.9032 1202.7667 4778.7004 1244.3723 4767.637 1255.4403 4769.9727 1267.6304 4767.2214 1277.3003 4775.3211 1284.4162 4764.7108 1291.5719 4781.7108 1355.9665 4846.6786 1380.9086 4843.0483 1410.8332 4737.2865 1432.4627 4632.9325 1467.4263 4610.44 1425.355 4665.5991 1397.8599 4630.3473 1328.4341 4613.9654 1338.1311 4601.4515 1317.6757 4535.0357 1376.9424 4519.3805 1405.7374 4490.7234 1399.8069 4498.4177 1312.5782 4469.6479 1242.6806 4519.06 1233.3864 4502.0289 1141.1571 4520.0303 1134.2218 4534.3372 1127.7533 4522.5669 1132.1465 Z" fill="none" stroke="#A9159C" opacity="0.6" stroke-width="1" class="throgs_neck"/>
<path d="M 4743.4725 1407.8254 4657.4194 1350.9314 4667.6021 1360.1156 4650.9366 1343.5806 4639.8887 1363.853 4669.4985 1384.0444 4669.439 1354.5891 4636.1123 1323.3603 4602.7626 1279.2458 4556.4674 1227.794 4565.6818 1214.8917 4561.9722 1207.5361 4573.0517 1203.8336 4595.1817 1181.7035 4621.0169 1165.0877 4639.4533 1144.8051 4661.5841 1124.5152 4681.9413 1141.0387 4693.0195 1137.335 4713.347 1139.1338 4737.3121 1113.317 4750.2838 1131.6947 4765.1544 1173.9959 4781.8662 1212.6135 4805.9269 1230.9686 4804.1587 1267.7872 4837.4082 1262.1924 4861.4958 1291.5918 4867.1298 1332.0782 4872.752 1367.0433 4909.7174 1368.801 4869.1174 1394.6663 4826.6148 1396.6012 4789.6761 1407.7274 4743.4725 1407.8254 Z" fill="none" stroke="#A9159C" opacity="0.6" stroke-width="1" class="throgs_neck"/>
<path d="M 4558.2846 1211.6846 4726.6838 1111.0386 4915.3183 1393.6416 4880.9097 1502.3457 4641.9346 1463.2659 4618.7618 1427.8702 4666.2922 1397.8585 4564.2872 1210.2927 4558.2846 1211.6846 Z" fill="none" stroke="#A9159C" opacity="0.6" stroke-width="1" class="throgs_neck"/>
<path d="M 4626.2317 1466.9793 4698.0636 1438.0856 4634.702 1322.762 4728.8683 1283.913 4828.6186 1267.1329 4934.7124 1388.795 5020.1059 1547.8553 4992.534 1613.2898 4626.2317 1466.9793 Z" fill="none" stroke="#A9159C" opacity="0.6" stroke-width="1" class="throgs_neck"/>
<path d="M 5019.213 1560.9465 4634.5653 1475.248 4532.4427 1225.9986 4733.6477 1128.0485 5019.213 1560.9465 Z" fill="none" stroke="#A9159C" opacity="0.6" stroke-width="1" class="throgs_neck"/>
<path d="M 4569.3483 1199.6993 4563.3563 1206.6132 4555.9714 1209.8484 4549.0476 1212.6225 4578.1117 1192.7801 4588.2644 1187.6988 4596.5666 1181.2406 4606.7146 1173.8585 4612.7096 1168.7851 4625.1742 1165.0795 4621.4716 1161.4056 4629.3178 1158.1692 4638.0768 1149.4092 4719.408 1166.2693 4723.1072 1168.1022 4735.1161 1167.6171 4746.2205 1176.3366 4755.9675 1198.4035 4766.6222 1212.646 4771.7329 1226.4402 4777.3087 1241.6142 4762.5564 1255.9112 4766.2774 1267.8683 4770.0123 1286.2683 4771.9131 1311.1155 4769.1842 1331.3709 4757.2189 1353.4873 4751.7077 1369.147 4750.8341 1393.0817 4747.1901 1417.9434 4713.039 1437.3459 4667.8045 1460.4523 4631.7856 1471.5712 4600.3668 1472.5534 4568.0591 1491.9482 4537.5689 1495.6884 4523.6104 1444.162 4523.5075 1388.9304 4526.1611 1325.4129 4527.0077 1283.9923 4527.8697 1250.8568 4533.377 1231.519 4541.6713 1220.4593 4569.3483 1199.6993 Z" fill="none" stroke="#A9159C" opacity="0.6" stroke-width="1" class="throgs_neck"/>
<path d="M 4558.2942 1216.7464 4723.4898 1129.9102 4729.0441 1135.4202 4831.8768 1267.7268 4838.409 1297.1653 4879.2615 1385.4386 5024.7561 1560.0126 5013.7028 1575.6905 4908.1998 1514.2522 4828.6059 1461.9554 4746.2911 1429.9123 4632.7206 1477.0929 4558.2942 1216.7464 Z" fill="none" stroke="#A9159C" opacity="0.6" stroke-width="1" class="throgs_neck"/>
<path d="M 4621.5839 1453.1798 4603.9611 1420.0746 4663.9857 1399.7041 4535.6117 1437.6956 4526.8805 1215.8853 4654.2104 1132.8123 4669.9559 1153.0264 4746.5693 1122.5 4973.5791 1412.8379 5045.1579 1588.5047 4974.9086 1585.9098 4621.5839 1453.1798 Z" fill="none" stroke="#A9159C" opacity="0.6" stroke-width="1" class="throgs_neck"/>
<path d="M 4784.6838 1341.9231 4817.0601 1358.4216 4811.0834 1372.0117 4765.5321 1352.089 4733.2218 1366.6544 4692.3707 1271.9339 4670.8436 1249.4283 4617.3369 1172.9174 4666.9136 1133.2469 4675.49 1148.6439 4732.7273 1129.6609 4741.5776 1165.0728 4772.927 1244.8448 4784.6838 1341.9231 Z" fill="none" stroke="#A9159C" opacity="0.6" stroke-width="1" class="throgs_neck"/>
<path d="M 4540.4661 1561.9689 4506.2308 1540.8575 4482.0675 1467.2527 4491.137 1373.3417 4466.8646 1236.2431 4592.4244 1189.0712 4654.1975 1126.3705 4671.798 1150.2619 4743.8056 1126.1868 4780.0657 1234.7056 4813.3161 1230.0322 4962.4838 1410.1023 5036.7555 1553.5391 5035.9177 1589.4477 4540.4661 1561.9689 Z" fill="none" stroke="#A9159C" opacity="0.6" stroke-width="1" class="throgs_neck"/>
<path d="M 5033.9046 1557.1494 5008.7657 1605.3009 4608.5988 1473.3788 4560.0708 1224.947 4646.7881 1160.356 4757.5853 1130.6799 4837.2707 1239.1043 4948.4803 1386.1223 5033.9046 1557.1494 Z" fill="none" stroke="#A9159C" opacity="0.6" stroke-width="1" class="throgs_neck"/>
<path d="M 4647.911 1216.5718 4742.9586 1162.7692 4781.1253 1298.2099 4822.6575 1276.9509 4858.7955 1323.8127 4893.118 1383.5664 4940.2784 1398.187 4897.8736 1443.39 5020.135 1560.0236 4985.0255 1564.7103 4879.5297 1505.1106 4750.003 1437.2689 4647.911 1216.5718 Z" fill="none" stroke="#A9159C" opacity="0.6" stroke-width="1" class="throgs_neck"/>
<path d="M 5014.6226 1573.847 4523.861 1578.5722 4456.3633 1047.608 4600.2627 944.2852 4650.5097 1130.0589 4739.4988 1275.2879 5014.6226 1573.847 Z" fill="none" stroke="#A9159C" opacity="0.6" stroke-width="1" class="throgs_neck"/>
<path d="M 4719.432 1133.5012 5061.7107 1557.1042 4844.595 1274.9626 5039.3194 1563.5609 4571.8244 1527.8452 4532.8394 1437.7008 4528.8229 1266.5015 4547.1868 1205.7235 4594.0152 1182.0798 4626.309 1161.3101 4643.8288 1144.7104 4658.6265 1152.9632 4671.8823 1146.4822 4702.353 1139.058 4719.432 1133.5012 Z" fill="none" stroke="#A9159C" opacity="0.6" stroke-width="1" class="throgs_neck"/>
<path d="M 5025.6803 1560.0104 5004.4626 1576.6332 4935.9759 1536.2839 4854.0835 1490.8979 4788.834 1445.9317 4633.1645 1467.8861 4545.1671 1359.4341 4557.1398 1216.9787 4730.8759 1127.8243 5025.6803 1560.0104 Z" fill="none" stroke="#A9159C" opacity="0.6" stroke-width="1" class="throgs_neck"/>
<path d="M 4556.4535 1220.4313 4619.1837 1172.4536 4689.313 1131.821 4740.1509 1145.5199 4755.8849 1159.2909 4795.7482 1223.6278 4830.9629 1272.3308 4853.1823 1292.5307 4855.1444 1344.0707 4849.7 1389.1864 4832.2136 1421.4431 4755.5593 1442.7805 4641.9565 1474.3128 4556.4535 1220.4313 Z" fill="none" stroke="#A9159C" opacity="0.6" stroke-width="1" class="throgs_neck"/>
<path d="M 4556.9075 1216.2889 4645.9246 1147.0929 4652.8717 1156.2818 4661.635 1149.8222 4741.0371 1127.573 4815.6479 1240.1511 4939.8249 1401.8701 4893.7566 1461.8106 5028.3889 1533.3048 5032.2151 1587.1549 4937.43 1565.7417 4631.3208 1470.1912 4614.1359 1425.1176 4532.7756 1403.6412 4554.6039 1219.5145 4556.9075 1216.2889 Z" fill="none" stroke="#A9159C" opacity="0.6" stroke-width="1" class="throgs_neck"/>
<path d="M 4624.4416 1472.6057 4621.8306 1481.8062 4546.2289 1576.3174 4481.9468 1524.8433 4467.5904 1448.5048 4467.7208 1273.4734 4530.3678 1176.7221 4756.354 1094.4527 4827.668 1271.4396 4871.2773 1364.1977 4935.5222 1466.8329 5013.2894 1525.5697 5002.3433 1586.3598 4920.2511 1521.9497 4624.4416 1472.6057 Z" fill="none" stroke="#A9159C" opacity="0.6" stroke-width="1" class="throgs_neck"/>
<path d="M 4628.0836 1468.8168 4620.6 1422.8036 4670.4616 1403.3732 4644.4758 1347.2754 4719.2903 1332.3961 4808.0837 1373.629 4846.014 1393.7971 4870.175 1454.499 4897.0098 1470.0885 5025.5436 1502.9308 5035.8379 1556.3033 5023.9245 1598.6835 4959.1579 1569.3742 4899.9468 1542.8107 4855.5217 1514.3704 4814.758 1468.4296 4780.5337 1453.7742 4628.0836 1468.8168 Z" fill="none" stroke="#A9159C" opacity="0.6" stroke-width="1" class="throgs_neck"/>
<path d="M 4556.607 1223.9223 4569.8935 1247.4785 4566.6533 1244.0334 4558.793 1240.3669 4551.1621 1235.7796 4544.9157 1230.4994 4553.6849 1226.3412 4562.3562 1217.4331 4567.5765 1213.0152 4572.4234 1211.1653 4579.106 1203.0996 4584.859 1198.9132 4591.7773 1193.3779 4597.5389 1186.9246 4604.2358 1183.1942 4610.6911 1177.1996 4616.9207 1173.9664 4623.4475 1171.1568 4625.979 1166.5503 4635.8969 1159.8587 4643.2902 1156.9978 4646.0553 1153.7713 4651.3562 1148.2391 4653.8783 1139.0313 4656.8885 1142.9364 4658.5121 1146.3842 4660.8286 1149.8305 4649.7722 1164.5772 4659.6844 1155.1244 4666.6061 1151.6594 4673.7643 1150.9548 4680.1603 1149.1779 4689.6238 1146.3978 4698.8586 1144.7684 4709.9344 1139.9143 4722.1663 1135.7478 4732.09 1132.2762 4741.1007 1129.9059 4742.2646 1134.2747 4740.431 1140.9504 4740.7339 1149.7156 4741.6837 1162.1373 4744.0145 1172.2556 4741.2719 1186.0659 4752.2735 1200.0186 4762.4614 1211.9614 4773.1242 1229.8854 4778.2351 1243.6798 4769.4746 1251.5216 4764.0912 1265.6056 4765.9596 1275.2657 4826.4838 1277.8966 4833.8814 1280.6415 4841.2902 1288.4487 4841.7785 1300.413 4841.3337 1308.2375 4845.5089 1316.052 4847.3792 1326.1727 4850.1715 1335.371 4850.6549 1345.0347 4855.7624 1356.5293 4869.6556 1371.226 4873.8364 1381.3421 4857.1964 1378.1574 4837.7825 1374.0581 4817.9016 1367.6582 4798.9401 1358.9547 4784.881 1354.4189 4768.696 1347.5499 4751.1223 1339.3029 4735.8522 1327.8293 4722.9643 1319.1341 4708.6264 1311.3401 4693.8221 1301.2458 4676.2462 1291.157 4659.7438 1284.9256 4643.5636 1279.4355 4625.072 1273.0294 4610.2773 1267.076 4594.0915 1258.3639 4577.9051 1249.1914 4564.0227 1236.7931 4556.607 1223.9223 Z" fill="none" stroke="#A9159C" opacity="0.6" stroke-width="1" class="throgs_neck"/>
<path d="M 4371.7292 1252.0561 4731.7963 1126.2119 5032.1499 1559.9948 4998.9128 1574.805 4717.6519 1433.6542 4568.191 1560.9957 4484.7963 1443.313 4453.011 1239.0291 4568.1734 1551.789 4371.7292 1252.0561 Z" fill="none" stroke="#A9159C" opacity="0.6" stroke-width="1" class="throgs_neck"/>
<path d="M 4742.1299 1127.8727 4899.9718 1339.5061 4990.7414 1431.3464 4988.0683 1431.5018 5029.9753 1565.8114 5028.1224 1563.9745 4995.0048 1629.4235 4991.3011 1626.67 4597.4491 1569.9831 4585.7807 1569.5324 4533.0755 1556.7433 4521.0317 1548.1953 4487.5753 1446.9901 4483.8705 1442.3941 4503.9955 1330.9766 4487.5232 1418.4533 4503.8525 1329.1098 4501.7141 1327.7068 4482.6239 1246.286 4479.3129 1239.5785 4531.0318 1228.899 4531.9439 1225.2762 4579.4621 1197.7028 4579.1611 1197.4456 4633.2994 1156.4979 4633.7668 1156.3428 4655.9194 1131.9582 4655.9223 1131.9329 4666.6942 1148.1308 4667.8503 1148.8187 4674.0488 1147.0754 4674.3068 1147.5007 4742.1299 1127.8727 Z" fill="none" stroke="#A9159C" opacity="0.6" stroke-width="1" class="throgs_neck"/>
<path d="M 4670.8835 1154.8651 4742.8838 1127.109 5047.826 1545.2264 4998.0518 1601.5072 4622.5406 1469.7483 4552.7527 1217.6773 4656.9892 1136.4877 4670.8835 1154.8651 Z" fill="none" stroke="#A9159C" opacity="0.6" stroke-width="1" class="throgs_neck"/>
<path d="M 4742.417 1124.8093 4738.5005 1129.4188 4739.4306 1132.4076 4746.8998 1169.8931 4770.2609 1294.5514 4792.4345 1293.8137 4833.2722 1272.0956 4850.2669 1332.1156 4867.4444 1369.5865 4939.8164 1398.188 5016.6944 1570.6196 4894.091 1507.6096 4870.9693 1499.8363 4842.9668 1478.7245 4818.879 1451.1599 4791.1497 1448.4582 4747.2278 1435.8939 4726.4413 1438.699 4701.724 1439.9008 4675.8659 1448.2385 4633.154 1462.5928 4615.98 1423.0428 4668.8189 1390.7194 4653.7468 1362.6747 4643.9992 1339.9127 4606.5415 1321.8077 4674.1532 1286.9274 4653.119 1279.8366 4631.1589 1271.5968 4595.0981 1257.6316 4574.52 1246.8569 4548.6187 1230.1098 4584.8257 1201.05 4619.6434 1171.3023 4636.9407 1158.8443 4659.0599 1132.5725 4671.797 1149.8018 4742.417 1124.8093 Z" fill="none" stroke="#A9159C" opacity="0.6" stroke-width="1" class="throgs_neck"/>
<path d="M 4752.1198 1126.1693 4844.4709 1113.0868 4993.076 1451.455 5000.8442 1609.7871 4871.3191 1553.0023 4750.9426 1444.6313 4743.4648 1404.1434 4721.1421 1334.2331 4671.1569 1290.1549 4556.4849 1236.9975 4545.3077 1189.1614 4633.874 1126.411 4752.1198 1126.1693 Z" fill="none" stroke="#A9159C" opacity="0.6" stroke-width="1" class="throgs_neck"/>
<path d="M 4578.3698 1567.4209 4531.8757 1416.5302 4539.9412 1283.0477 4526.8667 1208.5227 4498.9778 1114.7055 4523.7106 1002.3974 4536.4381 893.8047 4589.9266 853.2225 4627.7622 838.4289 4720.0525 808.8034 4759.6474 754.4454 4812.4988 853.6854 4914.7958 1164.4637 5133.7817 1546.8558 5037.9214 1653.894 4578.3698 1567.4209 Z" fill="none" stroke="#A9159C" opacity="0.6" stroke-width="1" class="throgs_neck"/>
<path d="M 4769.415 1439.9895 4584.6968 1253.9702 4522.595 1023.3327 4742.2794 949.0585 4937.9699 1398.8827 5025.7484 1540.216 5026.5993 1557.8216 4923.5863 1523.8837 4875.8518 1513.5195 4788.0377 1451.6869 4769.415 1439.9895 Z" fill="none" stroke="#A9159C" opacity="0.6" stroke-width="1" class="throgs_neck"/>
<path d="M 4640.4072 1473.1265 4590.1038 1266.4935 4550.674 1229.4607 4657.6632 1138.1419 4732.4877 1136.1483 4821.4572 1402.3841 5015.8822 1557.5204 4640.4072 1473.1265 Z" fill="none" stroke="#A9159C" opacity="0.6" stroke-width="1" class="throgs_neck"/>
<path d="M 4476.9607 1199.4114 4534.0022 1072.3105 4587.3499 953.511 4771.2219 986.2613 4785.5834 1222.7293 4935.6433 1391.7541 4913.5813 1442.4338 5027.4625 1532.3864 4992.4606 1582.1857 4890.6508 1518.895 4770.3391 1439.9875 4645.6476 1471.5437 4586.5848 1514.0073 4594.9952 1561.8647 4562.6773 1577.5784 4517.3417 1551.8848 4477.4368 1461.7376 4488.4002 1392.6772 4497.5038 1318.1024 4473.3736 1259.2405 4476.9607 1199.4114 Z" fill="none" stroke="#A9159C" opacity="0.6" stroke-width="1" class="throgs_neck"/>
<path d="M 4719.111 1245.8782 4885.8043 1418.5625 4923.0961 1562.0919 4715.8265 1444.7046 4560.8498 1588.6301 4460.8059 1463.6088 4486.4664 1345.7361 4441.9503 1253.7746 4537.9203 1191.0159 4678.2423 1139.2056 4719.111 1245.8782 Z" fill="none" stroke="#A9159C" opacity="0.6" stroke-width="1" class="throgs_neck"/>
<path d="M 4551.8366 1221.8206 4702.2282 1123.0522 4731.7694 1113.3286 5063.5958 1569.1255 4986.1122 1633.7608 4573.6905 1537.048 4536.2074 1262.8061 4551.8366 1221.8206 Z" fill="none" stroke="#A9159C" opacity="0.6" stroke-width="1" class="throgs_neck"/>
<path d="M 4572.1507 1215.7997 4626.5853 1177.9608 4658.8497 1142.9258 4691.1606 1131.8173 4704.177 1172.2827 4725.5038 1209.9714 4738.492 1235.7139 4763.4881 1259.5908 4787.597 1300.0369 4834.697 1289.8102 4935.6835 1409.2438 5030.3213 1568.2853 4534.9346 1569.3447 4493.7573 1290.4967 4556.4762 1232.3957 4572.1507 1215.7997 Z" fill="none" stroke="#A9159C" opacity="0.6" stroke-width="1" class="throgs_neck"/>
<path d="M 4772.2167 1453.7919 4693.6705 1455.7969 4667.6801 1398.7762 4732.2954 1365.5058 4645.1246 1209.2147 4746.6466 1159.3104 4955.9939 1400.9121 4886.0444 1525.3498 4772.2167 1453.7919 Z" fill="none" stroke="#A9159C" opacity="0.6" stroke-width="1" class="throgs_neck"/>
<path d="M 5005.8377 1560.2327 4463.3819 1033.32 4406.2723 1125.4414 4450.7371 1210.5191 4666.5516 839.2714 5005.8377 1560.2327 Z" fill="none" stroke="#A9159C" opacity="0.6" stroke-width="1" class="throgs_neck"/>
<path d="M 4741.0285 1123.4319 5026.5119 1521.341 5025.6164 1533.3115 5027.5023 1548.958 5024.776 1568.2986 5003.5405 1577.5561 4881.3987 1514.3127 4855.4891 1499.6405 4816.5862 1459.2199 4776.8215 1446.4176 4725.0676 1444.6855 4633.632 1470.647 4527.2415 1409.1747 4486.5555 1394.5216 4500.2961 1329.1426 4466.8779 1243.6059 4741.0285 1123.4319 Z" fill="none" stroke="#A9159C" opacity="0.6" stroke-width="1" class="throgs_neck"/>
<path d="M 4626.2153 1458.6941 4606.5069 1304.0895 4652.6906 1296.6349 4701.7211 1325.9892 4821.0764 1399.3748 4761.0377 1411.4705 4686.2232 1429.116 4612.0651 1311.442 4661.1987 1392.3457 4599.3353 1417.322 4626.2153 1458.6941 Z" fill="none" stroke="#A9159C" opacity="0.6" stroke-width="1" class="throgs_neck"/>
<path d="M 4733.6516 1129.889 4893.3693 1494.9528 5016.37 1531.4923 5002.6119 1575.7169 4869.3659 1506.054 4639.1567 1460.5097 4593.4714 1252.5727 4733.6516 1129.889 Z" fill="none" stroke="#A9159C" opacity="0.6" stroke-width="1" class="throgs_neck"/>
<path d="M 4544.4273 1212.171 4739.1809 1123.4357 5038.6793 1584.8376 4529.2084 1472.6892 4544.4273 1212.171 Z" fill="none" stroke="#A9159C" opacity="0.6" stroke-width="1" class="throgs_neck"/>
<path d="M 4521.8233 1561.3409 4483.7323 1452.7783 4499.9561 1368.3301 4462.7017 1246.0108 4518.3683 1234.078 4582.6256 1257.8858 4633.7565 1277.8689 4665.8968 1293.2804 4863.2615 1389.5135 4901.0511 1448.8031 5017.7883 1533.3926 5026.871 1563.2922 5006.3409 1577.6118 4963.7643 1551.2426 4929.9983 1537.2807 4873.7998 1513.4714 4841.7301 1491.7728 4800.0302 1454.3696 4746.8293 1447.0249 4681.9714 1459.1222 4631.7554 1475.498 4612.0224 1426.9771 4646.1771 1408.499 4667.6436 1399.4809 4521.8233 1561.3409 Z" fill="none" stroke="#A9159C" opacity="0.6" stroke-width="1" class="throgs_neck"/>
<path d="M 4500.4267 1105.899 4853.8706 1497.4659 4901.9748 1518.5324 4940.7819 1514.7612 4922.1091 1409.4102 4775.4941 1439.7289 4553.8613 1520.2667 4530.608 1352.4861 4733.7717 1258.7264 4634.5742 1088.6737 4500.4267 1105.899 Z" fill="none" stroke="#A9159C" opacity="0.6" stroke-width="1" class="throgs_neck"/>
<path d="M 5037.6908 1558.1402 4566.3672 1573.8886 4493.6628 1238.9554 4746.5964 1135.3834 4740.988 1104.107 5037.6908 1558.1402 Z" fill="none" stroke="#A9159C" opacity="0.6" stroke-width="1" class="throgs_neck"/>
<path d="M 4545.8409 1226.8938 4567.0615 1211.6679 4591.5077 1192.7543 4608.1084 1177.9971 4626.1016 1166.9182 4638.5496 1154.9299 4649.6208 1147.5457 4667.1733 1147.5104 4690.7175 1141.0208 4718.4108 1130.841 4736.4133 1125.282 4740.5685 1124.3531 4752.5662 1118.8064 4778.9511 1145.4378 4822.0068 1190.4391 4835.4492 1211.5771 4855.3779 1240.9842 4875.3531 1290.6405 4918.8999 1343.4671 4943.9141 1371.9443 4970.3115 1398.5775 5004.1457 1443.1438 5028.7317 1483.5905 5041.7364 1511.1775 5051.5942 1574.6788 4960.6053 1595.6105 4851.4709 1563.1737 4704.367 1489.3763 4630.5304 1537.858 4585.3264 1580.297 4530.8126 1589.1472 4475.6662 1504.5485 4516.1945 1431.7483 4513.8007 1386.6472 4510.4524 1324.9818 4530.226 1275.7027 4545.8409 1226.8938 Z" fill="none" stroke="#A9159C" opacity="0.6" stroke-width="1" class="throgs_neck"/>
<path d="M 4482.6296 1268.4275 4465.939 1235.3244 4525.0602 1230.6142 4569.3632 1207.522 4622.8718 1168.7652 4653.3069 1142.9369 4653.2221 1100.6059 4647.7703 1030.4523 4691.0102 1058.2001 4728.645 1054.6718 4763.0571 1056.2098 4772.5657 1183.6433 4821.1472 1219.8914 4845.7297 1264.9352 5031.0089 1469.7762 5051.5273 1547.0588 5022.0517 1588.5603 4938.8163 1565.7386 4803.756 1508.9599 4739.9728 1501.7307 4668.7528 1472.4179 4621.6563 1490.003 4594.0389 1545.2946 4567.2826 1569.2835 4536.7675 1561.0552 4509.0085 1543.6143 4503.4277 1524.2911 4486.6882 1467.2442 4487.5131 1412.9302 4492.9766 1368.736 4502.1627 1339.2641 4498.4295 1319.0212 4488.2304 1299.7109 4479.8812 1281.318 4468.7224 1241.7619 4482.6296 1268.4275 Z" fill="none" stroke="#A9159C" opacity="0.6" stroke-width="1" class="throgs_neck"/>
<path d="M 4940.2742 1396.346 4875.4111 1523.0721 4808.6046 1400.7827 4888.9008 1357.3421 4940.2742 1396.346 Z" fill="none" stroke="#A9159C" opacity="0.6" stroke-width="1" class="throgs_neck"/>
<path d="M 4650.2198 1216.107 4686.836 1276.317 4641.5225 1256.1598 4598.9988 1244.2787 4563.302 1238.7102 4559.7079 1231.3542 4574.8009 1212.6885 4599.5884 1191.128 4613.8879 1180.7467 4630.7335 1173.3511 4641.6836 1162.9761 4654.8269 1152.3667 4647.4311 1091.8754 4657.4638 1085.2988 4657.6229 1107.0386 4661.1303 1128.5422 4688.5607 1159.3156 4690.5654 1179.6729 4720.6835 1224.4767 4735.1986 1262.4114 4741.8682 1303.7005 4770.2838 1359.6728 4789.2441 1367.9166 4800.3452 1373.7608 4789.7229 1375.7397 4784.7508 1373.219 4772.8634 1377.7318 4755.6628 1382.3707 4748.3862 1382.5011 4741.2106 1375.7275 4733.9026 1360.785 4724.8553 1342.5095 4717.534 1320.8942 4711.3872 1308.5961 4709.5148 1296.7495 4702.6835 1288.4799 4698.9573 1273.6461 4690.6268 1266.3001 4682.0575 1255.0429 4677.3091 1248.4949 4669.3241 1240.4578 4661.2198 1230.4653 4655.3131 1222.079 4650.2198 1216.107 Z" fill="none" stroke="#A9159C" opacity="0.6" stroke-width="1" class="throgs_neck"/></svg>