<?xml version="1.0"?><svg xmlns="http://www.w3.org/2000/svg" version="1.2" baseProfile="tiny" width="6000" height="5918" viewBox="0 0 6000 5918" stroke-linecap="round" stroke-linejoin="round"><path d="M 3886.3183 955.5253 4060.9814 1026.1504 4077.7065 1096.9814 4035.2629 1133.849 3984.4692 1145.8794 3922.5747 1146.8777 3852.3265 1113.8323 3838.3933 1046.6735 3886.3183 955.5253 Z" fill="none" stroke="#12852D" opacity="0.6" stroke-width="1" class="tremont___east_tremont"/>
<path d="M 3995.5108 1160.5288 3999.4872 1150.4612 3990.1586 1169.7993 3999.9465 1148.5051 4012.2459 1120.935 4050.9722 1140.9772 4017.778 1188.4165 4010.3914 1191.6474 4005.3089 1190.7338 3993.7643 1193.5098 3989.1372 1187.5338 3986.8306 1189.8376 3985.4329 1180.6364 3995.5108 1160.5288 Z" fill="none" stroke="#12852D" opacity="0.6" stroke-width="1" class="tremont___east_tremont"/>
<path d="M 3975.9788 1008.7807 3999.9957 1009.6697 3996.337 1037.2789 3965.8839 1060.3224 3936.2902 1032.7546 3955.652 1004.2059 3975.9788 1008.7807 Z" fill="none" stroke="#12852D" opacity="0.6" stroke-width="1" class="tremont___east_tremont"/>
<path d="M 3832.7958 997.9121 3879.7768 891.1296 4017.0361 973.7627 3988.9802 1062.5932 3954.2984 1029.5115 3872.526 1008.4478 3847.5925 1013.5375 3851.2862 1012.6131 3832.7958 997.9121 Z" fill="none" stroke="#12852D" opacity="0.6" stroke-width="1" class="tremont___east_tremont"/>
<path d="M 3879.9226 1014.4199 3854.0466 1003.4086 3810.6002 973.094 3783.7668 928.9597 3792.8965 831.429 3855.6375 781.6819 3914.7208 766.8932 3951.6748 779.7261 4014.5161 814.6022 4053.3705 864.2282 4088.5141 899.1399 4108.8956 943.2734 4145.8941 980.0235 4199.5947 1064.5968 4231.0303 1082.9524 4231.0704 1108.7184 4219.0684 1113.3382 4209.8559 1129.9167 4184.0186 1149.2814 4185.4016 1147.4388 4150.7466 1139.438 4121.6229 1122.9158 4089.7969 1154.9401 4019.5839 1153.1955 3989.0309 1101.7018 3934.5261 1099.9305 3879.9226 1014.4199 Z" fill="none" stroke="#12852D" opacity="0.6" stroke-width="1" class="tremont___east_tremont"/>
<path d="M 3994.48 1029.92 3731.1224 929.9352 3738.5169 935.4479 3781.8382 853.5203 3876.0999 905.8544 3854.003 965.6842 3879.5636 906.0803 4005.9684 985.9687 3994.48 1029.92 Z" fill="none" stroke="#12852D" opacity="0.6" stroke-width="1" class="tremont___east_tremont"/>
<path d="M 3865.354 1293.8551 3867.2034 1295.1185 3864.5507 1298.228 3865.354 1293.8551 Z" fill="none" stroke="#12852D" opacity="0.6" stroke-width="1" class="tremont___east_tremont"/>
<path d="M 4219.8985 1052.6033 4230.0494 1046.1464 4233.7478 1048.4411 4237.0074 1065.4593 4223.1535 1066.8611 4212.5235 1062.2766 4221.7566 1059.5018 4228.6831 1058.5709 4219.8985 1052.6033 Z" fill="none" stroke="#12852D" opacity="0.6" stroke-width="1" class="tremont___east_tremont"/>
<path d="M 3984.1474 1178.4937 3988.7339 1168.6416 3987.4416 1171.1887 4057.8343 1017.3572 3984.1474 1178.4937 Z" fill="none" stroke="#12852D" opacity="0.6" stroke-width="1" class="tremont___east_tremont"/>
<path d="M 3831.8357 965.7095 3829.9864 963.8714 3737.5668 909.6875 3856.9585 825.9522 3849.114 830.5611 3838.8531 842.0724 3835.5071 843.5711 3831.0334 868.7608 3829.1829 865.7729 3832.666 883.249 3823.431 883.7194 3814.5616 901.5547 3765.3546 876.5377 3803.4892 806.3488 3892.4134 838.9049 3891.4904 839.366 3831.8357 965.7095 Z" fill="none" stroke="#12852D" opacity="0.6" stroke-width="1" class="tremont___east_tremont"/>
<path d="M 3863.5933 972.1137 3952.4041 992.2484 3864.6764 1009.8372 3839.8248 1086.9301 3815.368 1107.4325 3855.804 1025.4899 3863.5933 972.1137 Z" fill="none" stroke="#12852D" opacity="0.6" stroke-width="1" class="tremont___east_tremont"/>
<path d="M 3853.9914 955.5632 3937.3492 770.085 4132.3057 845.2574 3924.6045 1295.0497 3732.3791 1254.7692 3850.2683 930.7257 3817.0267 938.1238 3853.9914 955.5632 Z" fill="none" stroke="#12852D" opacity="0.6" stroke-width="1" class="tremont___east_tremont"/></svg>