<?xml version="1.0"?><svg xmlns="http://www.w3.org/2000/svg" version="1.2" baseProfile="tiny" width="6000" height="5918" viewBox="0 0 6000 5918" stroke-linecap="round" stroke-linejoin="round"><path d="M 2897.3391 2580.5917 2892.7138 2586.5831 2881.1484 2586.5846 2867.2705 2590.2728 2856.6301 2588.4306 2844.1396 2588.4317 2833.0366 2585.6676 2826.5596 2578.2948 2826.559 2569.5391 2817.3066 2563.549 2813.1426 2552.4897 2812.6792 2536.3614 2813.6038 2525.7629 2817.304 2516.5467 2820.0788 2505.4875 2901.4931 2515.1559 2903.3451 2526.6756 2906.5851 2539.5777 2907.9748 2552.0193 2907.9774 2569.0696 2904.7397 2573.2174 2897.3391 2580.5917 Z" fill="none" stroke="#12852D" opacity="0.6" stroke-width="1" class="union_square"/>
<path d="M 2828.8669 2493.9673 2841.8167 2467.2412 2863.0957 2481.984 2848.2957 2504.1031 2828.8669 2493.9673 Z" fill="none" stroke="#12852D" opacity="0.6" stroke-width="1" class="union_square"/>
<path d="M 2904.7393 2570.4525 2889.942 2616.5379 2860.3324 2601.7944 2830.7236 2586.1286 2801.1159 2573.227 2800.1902 2559.4025 2808.5152 2521.6159 2827.016 2483.8302 2852.9192 2480.1419 2875.1235 2492.1199 2915.8329 2514.2322 2911.211 2539.1161 2904.7393 2570.4525 Z" fill="none" stroke="#12852D" opacity="0.6" stroke-width="1" class="union_square"/>
<path d="M 2876.0587 2577.8295 2848.3012 2566.7726 2870.5019 2528.9839 2882.5302 2537.2769 2871.4303 2557.5539 2876.0587 2577.8295 Z" fill="none" stroke="#12852D" opacity="0.6" stroke-width="1" class="union_square"/>
<path d="M 2874.2071 2567.6916 2834.4215 2545.1154 2866.7964 2483.8267 2899.1782 2500.8717 2874.2071 2567.6916 Z" fill="none" stroke="#12852D" opacity="0.6" stroke-width="1" class="union_square"/>
<path d="M 2901.9655 2582.8952 2833.9588 2543.2722 2878.3582 2464.4729 2947.2867 2506.3932 2901.9655 2582.8952 Z" fill="none" stroke="#12852D" opacity="0.6" stroke-width="1" class="union_square"/>
<path d="M 2870.1552 2531.0575 2882.7616 2538.0833 2873.6273 2554.4431 2872.7022 2555.4801 2871.5458 2556.2866 2870.7364 2557.4388 2869.6957 2558.4757 2869.0018 2558.7062 2868.4236 2559.1671 2867.1516 2560.4345 2865.9951 2561.0106 2865.3013 2561.5867 2856.1644 2556.0578 2870.1552 2531.0575 Z" fill="none" stroke="#12852D" opacity="0.6" stroke-width="1" class="union_square"/>
<path d="M 2853.3845 2510.0929 2907.5101 2538.1951 2886.0042 2573.6808 2903.5846 2582.8949 2897.8034 2593.034 2828.6397 2554.5624 2853.3845 2510.0929 Z" fill="none" stroke="#12852D" opacity="0.6" stroke-width="1" class="union_square"/>
<path d="M 2931.7949 2531.7399 2892.7157 2601.0994 2825.1708 2563.0878 2863.097 2494.1947 2931.7949 2531.7399 Z" fill="none" stroke="#12852D" opacity="0.6" stroke-width="1" class="union_square"/>
<path d="M 2849.4588 2579.6755 2823.3206 2566.7744 2865.4098 2493.5033 2931.5638 2532.6615 2895.0293 2604.5553 2849.4588 2579.6755 Z" fill="none" stroke="#12852D" opacity="0.6" stroke-width="1" class="union_square"/>
<path d="M 2875.1324 2568.6131 2873.2843 2589.3505 2858.9428 2584.7437 2863.104 2562.163 2834.4214 2543.733 2859.3971 2500.4157 2907.9714 2529.4397 2887.6233 2573.2198 2875.1324 2568.6131 Z" fill="none" stroke="#12852D" opacity="0.6" stroke-width="1" class="union_square"/>
<path d="M 2798.8012 2526.6851 2828.403 2473.9234 2897.7922 2512.6221 2874.2055 2554.3279 2865.417 2561.7019 2798.8012 2526.6851 Z" fill="none" stroke="#12852D" opacity="0.6" stroke-width="1" class="union_square"/>
<path d="M 2839.9694 2505.0254 2879.7507 2505.0214 2926.94 2544.6433 2915.8441 2584.2756 2870.5081 2584.2817 2815.9183 2553.872 2839.9694 2505.0254 Z" fill="none" stroke="#12852D" opacity="0.6" stroke-width="1" class="union_square"/>
<path d="M 2783.5369 2577.8358 2862.1851 2623.9147 2798.3398 2560.3242 2935.2612 2514.2289 2870.5117 2616.5402 2783.5369 2577.8358 Z" fill="none" stroke="#12852D" opacity="0.6" stroke-width="1" class="union_square"/>
<path d="M 2833.4963 2545.1154 2851.9977 2519.7697 2901.4978 2547.4122 2884.3853 2575.0635 2833.4963 2545.1154 Z" fill="none" stroke="#12852D" opacity="0.6" stroke-width="1" class="union_square"/>
<path d="M 2816.8957 2595.3276 2862.3142 2510.6773 2902.0986 2530.9474 2855.8466 2599.1543 2816.8957 2595.3276 Z" fill="none" stroke="#12852D" opacity="0.6" stroke-width="1" class="union_square"/>
<path d="M 2876.9707 2466.3161 2909.3528 2487.5075 2873.2804 2554.7888 2868.6629 2632.2093 2802.9673 2598.1117 2876.9707 2466.3161 Z" fill="none" stroke="#12852D" opacity="0.6" stroke-width="1" class="union_square"/>
<path d="M 2840.8976 2542.35 2861.2476 2502.7195 2899.1815 2524.3722 2917.6867 2535.8895 2900.5776 2582.4346 2893.6415 2605.0163 2826.5588 2566.7742 2840.8976 2542.35 Z" fill="none" stroke="#12852D" opacity="0.6" stroke-width="1" class="union_square"/>
<path d="M 2922.546 2548.3305 2898.4975 2593.9556 2828.8711 2555.2536 2862.8656 2493.5036 2897.0983 2512.8526 2888.5427 2528.7513 2922.546 2548.3305 Z" fill="none" stroke="#12852D" opacity="0.6" stroke-width="1" class="union_square"/>
<path d="M 2855.7016 2553.4082 2870.5022 2531.5183 2899.8786 2546.7212 2887.3917 2571.1461 2855.7016 2553.4082 Z" fill="none" stroke="#12852D" opacity="0.6" stroke-width="1" class="union_square"/>
<path d="M 2854.0784 2510.3232 2923.4713 2549.252 2899.4227 2593.9555 2828.6398 2555.2537 2854.0784 2510.3232 Z" fill="none" stroke="#12852D" opacity="0.6" stroke-width="1" class="union_square"/>
<path d="M 2879.7458 2464.4727 2977.8177 2511.4555 2939.9004 2587.0364 2919.5487 2607.3167 2902.8963 2621.1445 2851.0819 2622.994 2810.3691 2595.3464 2879.7458 2464.4727 Z" fill="none" stroke="#12852D" opacity="0.6" stroke-width="1" class="union_square"/>
<path d="M 2872.3563 2564.9269 2908.4289 2495.8017 2843.6728 2538.2025 2876.0522 2522.532 2886.2212 2461.7073 2917.6703 2434.057 2991.6998 2531.7274 2947.3072 2612.8418 2872.3563 2564.9269 Z" fill="none" stroke="#12852D" opacity="0.6" stroke-width="1" class="union_square"/>
<path d="M 2858.4719 2500.4158 2895.4803 2519.7648 2884.3805 2537.2767 2921.3879 2539.1145 2893.6408 2599.9471 2825.1707 2561.2445 2851.0725 2518.8482 2858.4719 2500.4158 Z" fill="none" stroke="#12852D" opacity="0.6" stroke-width="1" class="union_square"/>
<path d="M 2823.3155 2483.3696 2951.4592 2553.855 2919.0874 2615.1511 2789.55 2544.6568 2823.3155 2483.3696 Z" fill="none" stroke="#12852D" opacity="0.6" stroke-width="1" class="union_square"/>
<path d="M 2835.1154 2544.6545 2855.3505 2509.8623 2906.5851 2539.4625 2886.0043 2574.2569 2835.1154 2544.6545 Z" fill="none" stroke="#12852D" opacity="0.6" stroke-width="1" class="union_square"/>
<path d="M 2830.1611 2556.8222 2860.6871 2501.9841 2894.7706 2521.1111 2911.1937 2530.7855 2880.6696 2584.0139 2830.1611 2556.8222 Z" fill="none" stroke="#12852D" opacity="0.6" stroke-width="1" class="union_square"/>
<path d="M 2932.4886 2530.8181 2890.866 2606.3992 2817.307 2571.383 2863.0971 2494.8859 2932.4886 2530.8181 Z" fill="none" stroke="#12852D" opacity="0.6" stroke-width="1" class="union_square"/>
<path d="M 2855.0036 2510.3232 2922.5459 2548.1001 2883.2344 2620.2255 2813.6067 2581.2909 2855.0036 2510.3232 Z" fill="none" stroke="#12852D" opacity="0.6" stroke-width="1" class="union_square"/>
<path d="M 2855.6968 2503.6416 2945.907 2548.3263 2907.9858 2625.2914 2812.6811 2573.6873 2855.6968 2503.6416 Z" fill="none" stroke="#12852D" opacity="0.6" stroke-width="1" class="union_square"/>
<path d="M 2835.3466 2544.6545 2839.9726 2544.6541 2853.8478 2517.0048 2946.3733 2567.6805 2916.7742 2614.6906 2824.2457 2565.8527 2835.3466 2544.6545 Z" fill="none" stroke="#12852D" opacity="0.6" stroke-width="1" class="union_square"/>
<path d="M 2869.1084 2475.9933 2994.0157 2543.7078 2942.6847 2633.12 2824.2455 2562.627 2869.1084 2475.9933 Z" fill="none" stroke="#12852D" opacity="0.6" stroke-width="1" class="union_square"/>
<path d="M 2836.272 2546.4977 2853.8472 2510.5537 2923.2397 2547.4088 2904.7414 2584.2773 2836.272 2546.4977 Z" fill="none" stroke="#12852D" opacity="0.6" stroke-width="1" class="union_square"/>
<path d="M 2794.1757 2536.3621 2822.3903 2481.9873 2927.8641 2538.6526 2898.7288 2593.7252 2794.1757 2536.3621 Z" fill="none" stroke="#12852D" opacity="0.6" stroke-width="1" class="union_square"/>
<path d="M 2833.9588 2544.1938 2854.3098 2511.2448 2906.1225 2539.1169 2885.0792 2574.833 2833.9588 2544.1938 Z" fill="none" stroke="#12852D" opacity="0.6" stroke-width="1" class="union_square"/>
<path d="M 2860.7854 2506.2907 2855.9287 2510.3231 2905.891 2537.9649 2886.4671 2575.2937 2874.4385 2569.074 2876.0592 2582.4377 2829.7963 2555.484 2858.8191 2502.7197 2860.7854 2506.2907 Z" fill="none" stroke="#12852D" opacity="0.6" stroke-width="1" class="union_square"/>
<path d="M 2838.2391 2560.5523 2870.3836 2504.4465 2932.6055 2537.615 2898.2672 2600.9834 2834.6542 2564.8152 2838.2391 2560.5523 Z" fill="none" stroke="#12852D" opacity="0.6" stroke-width="1" class="union_square"/>
<path d="M 2828.6404 2564.2396 2855.929 2513.3182 2908.8981 2539.3469 2875.5976 2590.9631 2828.6404 2564.2396 Z" fill="none" stroke="#12852D" opacity="0.6" stroke-width="1" class="union_square"/>
<path d="M 2846.4632 2711.4813 2764.1072 2653.4143 2732.6475 2648.8052 2830.7153 2466.3204 2937.1145 2530.8173 2846.4632 2711.4813 Z" fill="none" stroke="#12852D" opacity="0.6" stroke-width="1" class="union_square"/>
<path d="M 2836.2785 2633.134 2797.4163 2611.9371 2803.8866 2451.5773 2907.506 2510.5471 2836.2785 2633.134 Z" fill="none" stroke="#12852D" opacity="0.6" stroke-width="1" class="union_square"/>
<path d="M 2834.4155 2462.634 2941.7402 2529.8948 2889.0215 2652.4845 2768.7334 2578.7576 2834.4155 2462.634 Z" fill="none" stroke="#12852D" opacity="0.6" stroke-width="1" class="union_square"/>
<path d="M 2834.4215 2545.5762 2862.6343 2493.2732 2932.2574 2531.0486 2903.1222 2583.8167 2834.4215 2545.5762 Z" fill="none" stroke="#12852D" opacity="0.6" stroke-width="1" class="union_square"/>
<path d="M 2887.1608 2573.6807 2835.8093 2544.8849 2853.1534 2511.2449 2906.3536 2538.1953 2887.1608 2573.6807 Z" fill="none" stroke="#12852D" opacity="0.6" stroke-width="1" class="union_square"/>
<path d="M 2886.2355 2573.22 2800.6515 2525.533 2819.1529 2490.9728 2904.9657 2537.0435 2886.2355 2573.22 Z" fill="none" stroke="#12852D" opacity="0.6" stroke-width="1" class="union_square"/>
<path d="M 2903.8162 2584.2774 2834.4216 2546.037 2866.7965 2484.7483 2901.4917 2505.4793 2888.5427 2528.5209 2924.6279 2549.7126 2903.8162 2584.2774 Z" fill="none" stroke="#12852D" opacity="0.6" stroke-width="1" class="union_square"/>
<path d="M 2881.605 2537.277 2873.2807 2557.5537 2876.0591 2581.5161 2849.2264 2566.7725 2866.8015 2530.8275 2866.8009 2525.2979 2881.605 2537.277 Z" fill="none" stroke="#12852D" opacity="0.6" stroke-width="1" class="union_square"/>
<path d="M 2856.6268 2553.8689 2871.8899 2530.8269 2887.1562 2538.1979 2871.1998 2564.6966 2856.6268 2553.8689 Z" fill="none" stroke="#12852D" opacity="0.6" stroke-width="1" class="union_square"/>
<path d="M 2950.0822 2609.1546 2772.4338 2513.3225 2807.5864 2439.5974 2980.5982 2533.5732 2978.7462 2526.2008 2950.0822 2609.1546 Z" fill="none" stroke="#12852D" opacity="0.6" stroke-width="1" class="union_square"/>
<path d="M 2799.2637 2525.3027 2816.8401 2492.1249 2907.5087 2528.979 2888.0859 2573.2197 2803.8892 2515.165 2799.2637 2525.3027 Z" fill="none" stroke="#12852D" opacity="0.6" stroke-width="1" class="union_square"/>
<path d="M 2834.8841 2544.6545 2855.6975 2510.5535 2908.6666 2537.9645 2885.7727 2572.068 2834.8841 2544.6545 Z" fill="none" stroke="#12852D" opacity="0.6" stroke-width="1" class="union_square"/>
<path d="M 2859.3976 2505.9452 2919.5374 2538.1932 2880.6879 2603.6355 2814.9938 2567.6965 2858.472 2501.3374 2859.3976 2505.9452 Z" fill="none" stroke="#12852D" opacity="0.6" stroke-width="1" class="union_square"/>
<path d="M 2834.4215 2545.461 2849.2221 2518.1572 2901.6134 2547.4121 2886.8139 2574.2568 2834.4215 2545.461 Z" fill="none" stroke="#12852D" opacity="0.6" stroke-width="1" class="union_square"/>
<path d="M 2925.0997 2604.5507 2790.9376 2538.2054 2834.4159 2469.0848 2964.8702 2533.5767 2925.0997 2604.5507 Z" fill="none" stroke="#12852D" opacity="0.6" stroke-width="1" class="union_square"/>
<path d="M 2891.7799 2521.6084 2893.6305 2523.9122 2910.2846 2531.2826 2886.6983 2575.0632 2871.4354 2602.7149 2838.1253 2584.2847 2816.8445 2574.148 2863.0968 2492.582 2899.1801 2514.2347 2891.7799 2521.6084 Z" fill="none" stroke="#12852D" opacity="0.6" stroke-width="1" class="union_square"/>
<path d="M 2906.5913 2580.5904 2877.9094 2580.1334 2852.4645 2565.8506 2832.1091 2553.4102 2852.9225 2516.0833 2904.2731 2546.0293 2906.5913 2580.5904 Z" fill="none" stroke="#12852D" opacity="0.6" stroke-width="1" class="union_square"/>
<path d="M 2873.7432 2556.1712 2891.5544 2565.1549 2886.6983 2574.6024 2873.0505 2566.7701 2873.0533 2591.6547 2822.8579 2564.9312 2832.8024 2544.6547 2799.9577 2527.6067 2823.5467 2481.5265 2888.7726 2517.9225 2891.7801 2523.2212 2873.7432 2556.1712 Z" fill="none" stroke="#12852D" opacity="0.6" stroke-width="1" class="union_square"/>
<path d="M 2840.8936 2492.1232 2902.8824 2525.7541 2869.5831 2586.5859 2808.9794 2556.1764 2840.8936 2492.1232 Z" fill="none" stroke="#12852D" opacity="0.6" stroke-width="1" class="union_square"/>
<path d="M 2859.0548 2547.5325 2854.4296 2555.7124 2835.1154 2545.2305 2839.625 2536.7052 2859.0548 2547.5325 Z" fill="none" stroke="#12852D" opacity="0.6" stroke-width="1" class="union_square"/>
<path d="M 2833.9533 2467.2418 2985.6904 2549.7003 2947.309 2622.0587 2793.2505 2535.9013 2833.9533 2467.2418 Z" fill="none" stroke="#12852D" opacity="0.6" stroke-width="1" class="union_square"/>
<path d="M 2886.2357 2574.6025 2903.7005 2584.1622 2898.0348 2593.6101 2794.06 2535.7861 2796.7197 2531.178 2796.7197 2531.754 2818.9216 2490.7424 2906.2381 2539.0017 2886.2357 2574.6025 Z" fill="none" stroke="#12852D" opacity="0.6" stroke-width="1" class="union_square"/>
<path d="M 2902.8909 2584.2775 2892.4845 2602.0211 2823.783 2563.7791 2854.0784 2510.5536 2906.8165 2540.0384 2886.9297 2575.2936 2902.8909 2584.2775 Z" fill="none" stroke="#12852D" opacity="0.6" stroke-width="1" class="union_square"/>
<path d="M 2849.4541 2526.4516 2851.9992 2536.3586 2850.1489 2536.3588 2849.4541 2526.4516 Z" fill="none" stroke="#12852D" opacity="0.6" stroke-width="1" class="union_square"/>
<path d="M 2898.4974 2593.4948 2795.1008 2536.1317 2824.2405 2481.2961 2927.633 2539.5743 2898.4974 2593.4948 Z" fill="none" stroke="#12852D" opacity="0.6" stroke-width="1" class="union_square"/>
<path d="M 2923.2397 2547.4088 2926.9477 2589.8037 2882.5381 2600.8703 2824.2454 2560.3229 2871.4246 2506.8655 2913.9867 2540.0373 2923.2397 2547.4088 Z" fill="none" stroke="#12852D" opacity="0.6" stroke-width="1" class="union_square"/>
<path d="M 2864.9544 2562.1628 2812.2164 2531.7534 2835.3426 2489.359 2891.7795 2518.8437 2864.9544 2562.1628 Z" fill="none" stroke="#12852D" opacity="0.6" stroke-width="1" class="union_square"/>
<path d="M 2819.3841 2490.7424 2923.2399 2548.4456 2918.6153 2556.8562 2951.0008 2575.0528 2941.8675 2592.3356 2933.0769 2587.3833 2927.8743 2597.5225 2903.9318 2584.2774 2875.595 2568.3827 2864.9617 2631.7488 2821.01 2607.558 2842.7506 2574.8374 2788.8561 2545.348 2819.3841 2490.7424 Z" fill="none" stroke="#12852D" opacity="0.6" stroke-width="1" class="union_square"/>
<path d="M 2843.6653 2447.8888 2947.2866 2505.9324 2900.1158 2587.9646 2802.0397 2536.3618 2843.6653 2447.8888 Z" fill="none" stroke="#12852D" opacity="0.6" stroke-width="1" class="union_square"/>
<path d="M 2843.6683 2483.8289 2931.562 2522.5239 2888.0903 2607.3213 2799.265 2559.4025 2843.6683 2483.8289 Z" fill="none" stroke="#12852D" opacity="0.6" stroke-width="1" class="union_square"/>
<path d="M 2862.1718 2493.9644 2915.8342 2522.2961 2888.0861 2574.3718 2875.3638 2569.3043 2874.6713 2581.7467 2828.6398 2555.7145 2862.1718 2493.9644 Z" fill="none" stroke="#12852D" opacity="0.6" stroke-width="1" class="union_square"/>
<path d="M 2854.0826 2555.2516 2869.3457 2531.288 2898.4908 2546.7214 2884.6162 2572.0681 2856.3956 2555.2514 2854.0826 2555.2516 Z" fill="none" stroke="#12852D" opacity="0.6" stroke-width="1" class="union_square"/>
<path d="M 2869.8082 2530.0207 2883.5711 2537.8528 2874.2056 2555.1343 2865.8797 2562.5083 2854.4298 2557.21 2869.8082 2530.0207 Z" fill="none" stroke="#12852D" opacity="0.6" stroke-width="1" class="union_square"/>
<path d="M 2823.5467 2482.9088 2927.8644 2540.2654 2883.0031 2619.9951 2778.9106 2562.8591 2823.5467 2482.9088 Z" fill="none" stroke="#12852D" opacity="0.6" stroke-width="1" class="union_square"/>
<path d="M 2889.9305 2528.9815 2905.6603 2541.8818 2872.3598 2595.3414 2839.9751 2576.9114 2872.3513 2520.6892 2889.9305 2528.9815 Z" fill="none" stroke="#12852D" opacity="0.6" stroke-width="1" class="union_square"/>
<path d="M 2910.7471 2531.0521 2875.3665 2593.0369 2823.5517 2564.2399 2858.2408 2501.7982 2910.7471 2531.0521 Z" fill="none" stroke="#12852D" opacity="0.6" stroke-width="1" class="union_square"/>
<path d="M 2810.3679 2571.3833 2863.0969 2493.0428 2911.21 2532.6649 2879.7617 2595.3406 2810.3679 2571.3833 Z" fill="none" stroke="#12852D" opacity="0.6" stroke-width="1" class="union_square"/>
<path d="M 2811.0626 2587.9731 2878.5898 2467.0071 2946.1406 2560.5379 2911.2242 2624.5996 2811.0626 2587.9731 Z" fill="none" stroke="#12852D" opacity="0.6" stroke-width="1" class="union_square"/>
<path d="M 2876.0575 2568.1522 2870.9699 2577.3692 2837.6607 2559.4003 2858.4743 2524.3771 2890.3946 2540.0407 2876.0575 2568.1522 Z" fill="none" stroke="#12852D" opacity="0.6" stroke-width="1" class="union_square"/>
<path d="M 2836.0405 2544.7697 2862.6345 2495.1164 2956.4304 2545.2138 2927.9897 2596.3704 2836.0405 2544.7697 Z" fill="none" stroke="#12852D" opacity="0.6" stroke-width="1" class="union_square"/>
<path d="M 2854.541 2510.0928 2858.472 2500.8766 2927.1704 2539.344 2892.9471 2601.7906 2824.7081 2562.1662 2854.541 2510.0928 Z" fill="none" stroke="#12852D" opacity="0.6" stroke-width="1" class="union_square"/>
<path d="M 2863.7908 2494.3099 2931.3323 2531.7399 2897.5723 2594.071 2828.8711 2556.1753 2862.9813 2493.9644 2863.7908 2494.3099 Z" fill="none" stroke="#12852D" opacity="0.6" stroke-width="1" class="union_square"/>
<path d="M 2850.1473 2518.8483 2901.6134 2547.5273 2886.0043 2574.2569 2903.2378 2583.5862 2892.8316 2602.9427 2823.783 2563.7791 2850.1473 2518.8483 Z" fill="none" stroke="#12852D" opacity="0.6" stroke-width="1" class="union_square"/>
<path d="M 2865.4147 2540.2741 2870.5022 2531.2879 2882.646 2539.0049 2865.07 2561.7019 2854.8923 2556.058 2865.4147 2540.2741 Z" fill="none" stroke="#12852D" opacity="0.6" stroke-width="1" class="union_square"/>
<path d="M 2799.2642 2538.2052 2825.1659 2485.2126 2923.2379 2536.8102 2894.565 2592.1128 2799.2642 2538.2052 Z" fill="none" stroke="#12852D" opacity="0.6" stroke-width="1" class="union_square"/>
<path d="M 2887.1608 2573.6807 2857.3212 2558.9378 2832.5713 2546.9588 2851.3029 2509.6323 2905.4286 2538.8866 2887.1608 2573.6807 Z" fill="none" stroke="#12852D" opacity="0.6" stroke-width="1" class="union_square"/>
<path d="M 2946.8849 2341.4444 3078.2576 2415.8638 3030.5624 2550.7947 2876.6007 2466.7769 2946.8849 2341.4444 Z" fill="none" stroke="#12852D" opacity="0.6" stroke-width="1" class="union_square"/>
<path d="M 2872.3512 2519.7677 2923.2397 2547.6392 2892.7159 2602.2514 2825.4021 2564.0094 2872.3512 2519.7677 Z" fill="none" stroke="#12852D" opacity="0.6" stroke-width="1" class="union_square"/>
<path d="M 2823.6674 2564.8159 2854.4254 2510.4384 2905.7756 2539.693 2886.4669 2574.4872 2874.2071 2567.8068 2872.7064 2592.0004 2823.6674 2564.8159 Z" fill="none" stroke="#12852D" opacity="0.6" stroke-width="1" class="union_square"/>
<path d="M 2851.9976 2518.8481 2846.9081 2505.4856 2848.6426 2504.2183 2855.1194 2511.8207 2858.7046 2514.3547 2862.0586 2517.6952 2867.9568 2520.8049 2873.7393 2522.9931 2877.6715 2524.7206 2883.8012 2528.1759 2887.7335 2530.825 2894.5571 2534.5105 2902.5371 2537.2742 2907.1634 2539.5776 2904.6201 2546.3749 2899.8798 2555.3614 2898.261 2557.4353 2894.2159 2576.5599 2890.2839 2577.9429 2889.8212 2577.1365 2885.5418 2574.7177 2881.3781 2573.1054 2875.5951 2569.3043 2869.928 2567.4617 2865.9955 2564.3515 2859.7501 2561.2417 2856.1647 2558.5923 2848.5317 2557.9018 2845.062 2555.4828 2836.6193 2551.5666 2834.653 2548.5714 2837.6595 2543.2719 2839.8565 2539.8157 2842.2848 2535.7834 2844.3661 2531.5208 2846.7944 2527.8342 2848.0663 2525.4149 2850.0319 2521.9587 2851.9976 2518.8481 Z" fill="none" stroke="#12852D" opacity="0.6" stroke-width="1" class="union_square"/>
<path d="M 2883.4598 2573.2203 2850.1506 2555.7128 2869.5761 2522.5328 2869.5757 2518.8464 2905.6598 2538.1954 2883.4598 2573.2203 Z" fill="none" stroke="#12852D" opacity="0.6" stroke-width="1" class="union_square"/>
<path d="M 2923.2397 2547.6392 2883.4657 2620.4559 2815.2259 2582.4429 2853.8472 2510.7841 2923.2397 2547.6392 Z" fill="none" stroke="#12852D" opacity="0.6" stroke-width="1" class="union_square"/>
<path d="M 2854.7722 2509.8624 2906.585 2538.656 2881.1482 2584.9717 2828.1771 2554.7929 2854.7722 2509.8624 Z" fill="none" stroke="#12852D" opacity="0.6" stroke-width="1" class="union_square"/>
<path d="M 2919.5462 2592.1091 2906.596 2612.388 2822.8578 2564.0095 2856.6219 2502.9503 2893.8617 2523.221 2942.6686 2547.4053 2919.5462 2592.1091 Z" fill="none" stroke="#12852D" opacity="0.6" stroke-width="1" class="union_square"/>
<path d="M 2856.6223 2506.8671 2881.6015 2508.7075 2917.6877 2541.88 2929.7194 2566.7619 2916.7702 2589.8054 2876.9877 2610.0877 2845.5297 2615.621 2806.6684 2600.8766 2793.7137 2558.481 2804.8145 2519.7729 2827.9426 2505.9478 2851.9965 2506.8675 2856.6223 2506.8671 Z" fill="none" stroke="#12852D" opacity="0.6" stroke-width="1" class="union_square"/>
<path d="M 2768.7332 2508.945 2797.4111 2457.1068 2897.0983 2512.3918 2888.5428 2529.4425 2923.4711 2547.8695 2904.7413 2584.0468 2768.7332 2508.945 Z" fill="none" stroke="#12852D" opacity="0.6" stroke-width="1" class="union_square"/>
<path d="M 2839.9694 2505.0254 2851.0696 2487.5145 2867.7204 2473.6895 2885.2982 2478.2952 2908.4292 2497.6449 2934.335 2508.6995 2942.6662 2534.5027 2924.1686 2569.5278 2892.7107 2564.0027 2861.2519 2545.5739 2838.1216 2537.2814 2839.9694 2505.0254 Z" fill="none" stroke="#12852D" opacity="0.6" stroke-width="1" class="union_square"/></svg>