<?xml version="1.0"?><svg xmlns="http://www.w3.org/2000/svg" version="1.2" baseProfile="tiny" width="6000" height="5918" viewBox="0 0 6000 5918" stroke-linecap="round" stroke-linejoin="round"><path d="M 3746.5814 697.1736 3752.1216 697.1678 3762.2797 698.0769 3767.8209 698.9909 3772.4427 703.5851 3778.9104 707.2575 3785.3771 710.0101 3794.6149 713.6794 3801.0837 718.2716 3808.477 723.7826 3816.7927 728.3726 3820.4925 733.8877 3825.1117 735.7222 3832.5094 744.9126 3838.9891 758.7035 3843.6199 770.6568 3848.2498 781.6904 3853.7959 786.2836 3852.8968 807.443 3850.137 816.6456 3841.8382 827.6945 3837.2332 838.7393 3828.0146 853.4694 3823.4053 860.8344 3820.6408 866.3575 3816.9528 871.8816 3816.0385 880.1626 3813.274 885.6858 3809.5838 889.3699 3804.9721 894.8951 3802.2085 901.3384 3797.5966 906.8636 3786.5246 916.9961 3785.61 925.2775 3794.8329 913.3069 3781.0019 934.4831 3777.3164 942.7676 3764.3994 955.6624 3769.9334 948.2959 3733.9528 987.8976 3759.7852 959.3476 3723.7916 986.9878 3554.7566 980.7038 3746.5814 697.1736 Z" fill="none" stroke="#12852D" opacity="0.6" stroke-width="1" class="university_heights"/>
<path d="M 3517.9937 1210.3277 3599.4919 910.7399 3746.6451 758.3442 3804.3876 783.5796 3595.4836 1078.665 3517.9937 1210.3277 Z" fill="none" stroke="#12852D" opacity="0.6" stroke-width="1" class="university_heights"/>
<path d="M 3718.6082 765.2584 3800.1228 801.8172 3754.5294 953.7995 3616.8817 923.5718 3718.6082 765.2584 Z" fill="none" stroke="#12852D" opacity="0.6" stroke-width="1" class="university_heights"/>
<path d="M 3661.5546 859.8522 3657.1609 852.4965 3654.8408 840.539 3657.14 830.4172 3659.667 817.0755 3664.5094 810.8613 3672.3468 798.2047 3681.3411 788.3068 3690.794 775.4188 3702.7901 766.6679 3713.1768 764.5877 3728.4072 758.363 3740.1744 751.9117 3754.0238 750.0575 3770.4139 749.3503 3784.0382 752.7852 3780.3512 758.9984 3778.9705 763.1394 3775.0488 765.9033 3772.2809 768.206 3771.3565 767.2871 3770.2103 774.8775 3763.2924 782.4741 3760.0659 787.7671 3754.5333 795.5922 3751.3077 801.8051 3748.0794 805.4882 3744.8541 812.1611 3738.6272 818.6072 3736.7883 826.4287 3735.4101 833.3298 3734.4949 841.3805 3730.1143 847.3648 3725.9627 851.5089 3722.9671 857.2619 3718.8165 862.556 3713.9744 869.0008 3709.8245 874.985 3703.5935 877.9812 3697.1284 877.7576 3689.0462 876.6156 3683.0409 874.3215 3676.1109 870.8782 3671.0283 867.6631 3667.5624 864.9064 3663.8648 861.23 3661.5546 859.8522 Z" fill="none" stroke="#12852D" opacity="0.6" stroke-width="1" class="university_heights"/>
<path d="M 3738.8626 822.9767 3699.3537 793.3487 3735.1128 768.7049 3743.1626 739.4903 3753.5154 705.4448 3766.4095 674.1572 3788.3214 657.8072 3801.704 652.5038 3816.0302 665.595 3868.4475 680.482 3866.8375 685.5429 3781.6004 847.0807 3737.7142 828.7276 3738.8626 822.9767 Z" fill="none" stroke="#12852D" opacity="0.6" stroke-width="1" class="university_heights"/>
<path d="M 3596.3364 998.1502 3566.7633 979.7735 3645.1509 848.1379 3658.0585 825.1266 3675.589 808.5508 3700.5084 793.8075 3732.845 808.4938 3729.1896 846.2158 3658.1639 936.4475 3596.3364 998.1502 Z" fill="none" stroke="#12852D" opacity="0.6" stroke-width="1" class="university_heights"/>
<path d="M 3568.0772 976.0028 3746.102 745.8371 3859.699 759.5103 3727.8843 991.495 3568.0772 976.0028 Z" fill="none" stroke="#12852D" opacity="0.6" stroke-width="1" class="university_heights"/>
<path d="M 3771.4644 652.0767 3941.4215 703.3894 3911.2395 941.6943 3671.1218 964.9575 3627.6225 868.3938 3771.4644 652.0767 Z" fill="none" stroke="#12852D" opacity="0.6" stroke-width="1" class="university_heights"/>
<path d="M 3706.0167 761.1453 3828.3566 747.217 3741.7167 903.703 3718.165 903.2671 3711.2493 914.3145 3703.4107 926.2829 3690.0216 929.5164 3674.3129 921.7112 3668.7638 913.8962 3667.831 904.2367 3651.6627 898.2718 3645.6479 885.8572 3706.0167 761.1453 Z" fill="none" stroke="#12852D" opacity="0.6" stroke-width="1" class="university_heights"/>
<path d="M 3761.2951 640.1303 3805.6307 654.799 3823.1709 652.0201 3837.0198 651.0846 3865.6731 676.806 3862.903 676.8092 3836.2083 749.5078 3794.7054 796.4691 3755.1052 900.469 3650.7232 881.2524 3637.7951 883.1045 3622.0812 868.3988 3766.8604 664.0389 3761.2951 640.1303 Z" fill="none" stroke="#12852D" opacity="0.6" stroke-width="1" class="university_heights"/>
<path d="M 3796.3842 642.8519 3861.9893 685.0886 3779.9823 845.2425 3701.4292 791.0468 3793.6093 638.2561 3796.3842 642.8519 Z" fill="none" stroke="#12852D" opacity="0.6" stroke-width="1" class="university_heights"/>
<path d="M 3639.6405 881.2627 3626.6964 865.6346 3625.7821 875.7555 3626.6948 863.7947 3731.8489 737.6622 3872.223 750.3861 3778.2232 927.1256 3756.9843 930.8284 3639.6405 881.2627 Z" fill="none" stroke="#12852D" opacity="0.6" stroke-width="1" class="university_heights"/>
<path d="M 3637.6476 723.7262 3659.1282 735.8942 3651.7489 744.41 3633.5023 734.5384 3637.6476 723.7262 Z" fill="none" stroke="#12852D" opacity="0.6" stroke-width="1" class="university_heights"/>
<path d="M 3794.8058 888.4662 3722.739 860.022 3673.8484 918.9515 3646.108 884.0168 3672.815 804.8737 3745.7173 754.2057 3763.171 667.722 3789.933 653.8964 3811.1768 660.3116 3864.7583 684.1656 3893.4057 703.4481 3794.8058 888.4662 Z" fill="none" stroke="#12852D" opacity="0.6" stroke-width="1" class="university_heights"/>
<path d="M 3724.4803 756.0673 3833.4349 746.7513 3690.548 995.3021 3560.3024 985.2996 3724.4803 756.0673 Z" fill="none" stroke="#12852D" opacity="0.6" stroke-width="1" class="university_heights"/>
<path d="M 3762.9305 876.7703 3727.3099 927.2939 3716.0186 949.962 3701.6134 976.5439 3688.935 998.7541 3668.9606 998.7735 3642.7522 999.6033 3612.2739 1002.8516 3595.1873 1004.362 3589.5297 1004.252 3582.5986 1000.2325 3574.628 995.6387 3566.4257 990.1251 3558.9167 985.0708 3551.9871 982.4313 3549.2122 977.7181 3573.5394 937.9039 3584.4851 912.3631 3597.6242 887.5109 3607.7687 871.0567 3610.5402 871.9742 3611.576 868.4083 3609.8427 866.5699 3622.0628 848.0441 3631.2858 834.8112 3644.3121 815.1351 3650.1904 805.5852 3657.1107 799.4841 3666.6789 786.0211 3674.5171 774.3997 3682.5841 760.8234 3687.5402 753.2295 3691.2353 754.7207 3699.7813 758.9668 3707.2872 761.9489 3715.2534 763.4358 3726.2202 764.3445 3734.6384 756.4019 3740.0589 751.9118 3748.2517 749.3736 3759.6781 748.4418 3789.1124 748.5252 3817.2774 748.9542 3826.7414 747.9087 3830.2054 748.9397 3814.8868 778.9684 3801.1817 807.3862 3794.2729 823.2629 3786.7875 839.9453 3781.6022 848.6906 3772.3806 861.4653 3762.9305 876.7703 Z" fill="none" stroke="#12852D" opacity="0.6" stroke-width="1" class="university_heights"/>
<path d="M 3688.2424 998.9848 3601.4174 999.0658 3569.5358 981.6114 3694.9322 757.9367 3746.6407 754.2047 3832.5167 751.3517 3875.0041 759.5817 3802.2044 897.6583 3721.0281 994.3516 3688.2424 998.9848 Z" fill="none" stroke="#12852D" opacity="0.6" stroke-width="1" class="university_heights"/>
<path d="M 3725.8434 861.9118 3669.6103 826.7623 3671.2434 828.1669 3672.8546 829.6709 3691.7556 795.0314 3719.4388 774.3057 3774.8182 748.491 3801.8878 802.4785 3725.8434 861.9118 Z" fill="none" stroke="#12852D" opacity="0.6" stroke-width="1" class="university_heights"/>
<path d="M 3644.2643 887.6985 3629.4814 881.2721 3730.9179 730.3042 3878.6924 754.9779 3776.3898 940.0084 3757.9389 960.2697 3623.9501 892.3173 3644.2643 887.6985 Z" fill="none" stroke="#12852D" opacity="0.6" stroke-width="1" class="university_heights"/>
<path d="M 3744.5148 707.7538 3750.7462 706.3676 3759.7523 709.3476 3768.7563 710.2579 3775.2242 714.1603 3775.2262 716 3770.8482 723.5935 3765.7756 729.348 3762.7791 733.7205 3761.8579 735.7912 3761.8569 734.8713 3760.9345 735.7922 3764.1667 736.0187 3768.5573 740.1535 3771.5606 742.22 3775.9481 743.3651 3777.5628 742.2136 3781.4851 740.1396 3784.2549 739.6767 3781.7185 742.4391 3785.8726 741.2847 3785.8773 745.6541 3785.8781 746.344 3785.7684 751.6335 3785.8829 750.8285 3786.2312 752.6678 3783.35 756.8105 3781.7355 758.192 3780.6998 761.1828 3776.3184 765.787 3773.4384 771.1945 3769.9813 776.6026 3766.1765 780.8612 3762.2567 785.465 3758.6836 790.5283 3757.1845 791.9097 3757.8785 793.2889 3757.7632 793.404 3754.0746 798.4675 3750.0408 804.5662 3745.659 809.1705 3743.9309 812.3921 3742.5482 814.9234 3739.552 819.8712 3736.8998 822.6338 3735.1713 825.6254 3734.3669 829.1911 3733.91 833.9063 3733.2183 834.827 3730.3374 839.7748 3728.7259 844.2613 3728.0352 846.2169 3726.9992 849.0929 3724.8103 853.465 3724.9261 853.8099 3722.6193 855.8822 3721.9288 857.9529 3718.2386 861.8666 3714.2043 867.9656 3710.8613 872.799 3707.4004 875.2174 3701.8593 875.4529 3697.4706 873.6173 3693.8913 873.0458 3690.0831 874.4296 3686.3869 872.4782 3680.7291 871.3337 3675.7625 868.6935 3672.5287 867.2016 3669.4098 865.2496 3664.0965 862.1498 3662.7107 861.5761 3658.437 859.1652 3660.3945 853.8734 3660.5084 852.2633 3659.1207 849.7347 3655.7688 845.368 3654.6111 841.8042 3653.4527 837.5504 3654.6025 832.7195 3655.8692 829.3835 3657.5977 826.162 3658.6339 823.2862 3660.5923 819.0295 3662.2079 818.453 3663.129 815.9223 3664.8574 812.7008 3666.5855 809.0194 3668.3137 805.568 3669.9271 802.8067 3673.155 798.3189 3678.5776 795.4389 3679.0384 794.5185 3681.1138 791.9867 3683.8814 789.1093 3686.0724 786.8073 3688.725 784.39 3691.3774 781.8576 3693.3379 779.9009 3696.2208 777.0233 3698.5271 774.6063 3701.1788 771.384 3703.0235 769.1974 3706.0228 767.2396 3708.3289 764.8226 3712.5962 761.1387 3714.2096 758.6074 3716.6297 754.6954 3719.974 751.5874 3722.5105 748.7102 3723.8933 746.4091 3726.1999 744.452 3727.6984 742.4958 3728.6203 741 3730.3487 738.0087 3731.9609 734.3276 3733.6884 730.5313 3734.4938 728.0009 3736.6845 725.699 3736.4502 722.3647 3738.0627 719.0286 3739.9054 715.1174 3742.0952 711.8956 3743.131 709.02 3744.5148 707.7538 Z" fill="none" stroke="#12852D" opacity="0.6" stroke-width="1" class="university_heights"/>
<path d="M 3597.6252 888.6609 3639.5842 820.5442 3685.2304 751.9669 3722.1806 764.8086 3742.0222 752.8297 3789.1146 750.48 3830.6688 750.4339 3798.8806 814.4033 3768.9216 865.494 3745.4148 907.3793 3688.2415 998.0647 3639.7506 999.9512 3592.6453 1002.294 3546.9113 987.6111 3597.6252 888.6609 Z" fill="none" stroke="#12852D" opacity="0.6" stroke-width="1" class="university_heights"/>
<path d="M 3744.563 747.0594 3762.1119 750.7205 3793.5065 748.847 3820.3627 746.5434 3823.5937 773.6444 3808.8511 803.0982 3790.6999 832.6255 3779.6405 853.7968 3763.0375 873.1343 3744.5713 877.7537 3721.1453 859.4082 3706.3809 871.6185 3681.4407 867.0431 3663.7438 861.2771 3670.1865 838.2714 3673.8566 813.4291 3685.8476 798.6985 3711.6827 776.5949 3724.2809 760.6605 3744.563 747.0594 Z" fill="none" stroke="#12852D" opacity="0.6" stroke-width="1" class="university_heights"/>
<path d="M 3812.1185 676.867 3823.1957 674.0952 3848.1346 681.4254 3817.7542 762.407 3747.7137 897.7166 3661.8032 878.4819 3705.1056 773.5648 3766.8634 666.7983 3812.1185 676.867 Z" fill="none" stroke="#12852D" opacity="0.6" stroke-width="1" class="university_heights"/>
<path d="M 3672.583 803.724 3843.0798 702.1272 3837.4431 820.3399 3675.8298 818.8999 3672.583 803.724 Z" fill="none" stroke="#12852D" opacity="0.6" stroke-width="1" class="university_heights"/>
<path d="M 3597.6252 888.6609 3781.5516 587.683 3886.8665 639.9893 3813.2446 755.3979 3723.276 934.0834 3597.6252 888.6609 Z" fill="none" stroke="#12852D" opacity="0.6" stroke-width="1" class="university_heights"/></svg>