<?xml version="1.0"?><svg xmlns="http://www.w3.org/2000/svg" version="1.2" baseProfile="tiny" width="6000" height="5918" viewBox="0 0 6000 5918" stroke-linecap="round" stroke-linejoin="round"><path d="M 4111.8176 1049.0832 4149.4456 882.4921 4203.0652 917.3729 4270.5475 954.9902 4269.1657 957.2926 4279.3611 979.3585 4299.5142 1018.4312 4343.6488 1035.3812 4223.8264 1053.9775 4169.3619 1077.7551 4111.8176 1049.0832 Z" fill="none" stroke="#012394" opacity="0.6" stroke-width="1" class="van_nest"/>
<path d="M 4213.7477 910.3145 4234.4796 910.9141 4252.6228 987.0003 4208.774 1003.4006 4193.2993 951.0353 4187.421 926.6261 4188.7717 903.623 4213.7477 910.3145 Z" fill="none" stroke="#012394" opacity="0.6" stroke-width="1" class="van_nest"/>
<path d="M 4205.2651 997.1868 4221.748 1053.9808 4160.1221 1076.1584 4125.7082 1073.2181 4152.8906 1026.9398 4180.568 1004.5852 4205.2651 997.1868 Z" fill="none" stroke="#012394" opacity="0.6" stroke-width="1" class="van_nest"/>
<path d="M 4133.0765 1058.2544 4181.8046 905.4446 4269.6224 954.0716 4296.5047 1013.8354 4340.88 1036.7661 4215.2827 1054.4508 4165.4329 1075.6905 4133.0818 1061.9351 4133.0765 1058.2544 Z" fill="none" stroke="#012394" opacity="0.6" stroke-width="1" class="van_nest"/>
<path d="M 4169.7898 899.9424 4270.5446 953.15 4295.587 1017.5175 4347.346 1036.7552 4167.29 1082.1291 4128.4871 1078.5052 4169.7898 899.9424 Z" fill="none" stroke="#012394" opacity="0.6" stroke-width="1" class="van_nest"/>
<path d="M 4174.2861 973.0807 4258.9905 947.6479 4266.8512 953.846 4286.0832 995.2197 4299.0523 1018.432 4269.9671 1025.38 4271.6023 1037.1093 4226.3535 1045.462 4219.6594 1047.3127 4161.274 1074.3163 4137.487 1073.8912 4141.8365 1047.6596 4152.6576 1025.5599 4183.5658 1001.8203 4174.2861 973.0807 Z" fill="none" stroke="#012394" opacity="0.6" stroke-width="1" class="van_nest"/>
<path d="M 4120.1284 1047.2309 4191.9751 912.7895 4266.8545 955.9162 4316.8485 1027.6044 4226.3617 1050.753 4165.4357 1077.5309 4120.1284 1047.2309 Z" fill="none" stroke="#012394" opacity="0.6" stroke-width="1" class="van_nest"/>
<path d="M 4223.6104 1063.6398 4137.746 1093.2151 4179.9947 930.2885 4223.6104 1063.6398 Z" fill="none" stroke="#012394" opacity="0.6" stroke-width="1" class="van_nest"/>
<path d="M 4310.9838 830.9592 4405.6201 995.3321 4130.0891 1076.7554 4138.1204 842.8588 4310.9838 830.9592 Z" fill="none" stroke="#012394" opacity="0.6" stroke-width="1" class="van_nest"/></svg>