<?xml version="1.0"?><svg xmlns="http://www.w3.org/2000/svg" version="1.2" baseProfile="tiny" width="6000" height="5918" viewBox="0 0 6000 5918" stroke-linecap="round" stroke-linejoin="round"><path d="M 4444.3435 1041.1883 4458.2553 1072.4496 4442.5795 1088.1211 4416.7498 1108.4115 4397.3839 1127.7703 4379.8475 1137.003 4366.9345 1148.9885 4359.5253 1137.9578 4347.4834 1118.6529 4344.6596 1087.37 4340.007 1067.1333 4340.9046 1051.4887 4346.4099 1029.3956 4359.348 1033.0544 4391.6617 1023.7977 4422.1437 1023.7446 4433.2426 1032.0064 4444.3435 1041.1883 Z" fill="none" stroke="#865327" opacity="0.6" stroke-width="1" class="westchester_square"/>
<path d="M 4440.7009 1070.6405 4408.2722 1014.5674 4459.9804 1004.3544 4485.971 1074.2398 4448.1467 1101.9144 4444.4025 1074.3147 4440.7009 1070.6405 Z" fill="none" stroke="#865327" opacity="0.6" stroke-width="1" class="westchester_square"/>
<path d="M 4348.6897 1040.4336 4403.641 1007.2144 4439.915 977.9047 4488.876 981.9569 4504.1147 1036.3913 4401.9131 1132.7322 4354.2636 1089.1027 4348.6897 1040.4336 Z" fill="none" stroke="#865327" opacity="0.6" stroke-width="1" class="westchester_square"/>
<path d="M 4348.0716 1056.3076 4409.2159 1026.0676 4467.9318 1059.7795 4362.0915 1153.1379 4348.0716 1056.3076 Z" fill="none" stroke="#865327" opacity="0.6" stroke-width="1" class="westchester_square"/>
<path d="M 4201.1493 872.2947 4677.6618 853.0486 4681.9525 1146.5602 4179.3429 1111.5581 4201.1493 872.2947 Z" fill="none" stroke="#865327" opacity="0.6" stroke-width="1" class="westchester_square"/>
<path d="M 2667.4347 2456.6415 2796.9509 2526.4548 2794.638 2529.45 2771.7403 2570.2323 2744.9081 2621.6152 2706.2773 2640.5084 2654.0002 2631.0562 2667.4347 2456.6415 Z" fill="none" stroke="#865327" opacity="0.6" stroke-width="1" class="westchester_square"/>
<path d="M 4344.7643 1037.8803 4416.1077 987.5986 4496.3044 1072.4412 4505.7099 1211.0386 4440.1554 1234.1658 4372.7736 1212.6799 4344.7643 1037.8803 Z" fill="none" stroke="#865327" opacity="0.6" stroke-width="1" class="westchester_square"/>
<path d="M 4267.1871 1164.7973 4221.7402 1048.9198 4451.7332 1041.1751 4439.1377 1230.7706 4267.1871 1164.7973 Z" fill="none" stroke="#865327" opacity="0.6" stroke-width="1" class="westchester_square"/>
<path d="M 4223.5919 1051.6775 4417.5123 1016.3916 4463.6337 981.3449 4552.3288 994.0625 4587.5455 1054.725 4587.7127 1141.2255 4606.462 1281.0794 4632.4856 1358.3448 4170.6002 1443.8334 4157.5186 1346.279 4022.6351 1363.0369 4022.375 1167.9163 4138.7623 1156.7106 4123.8617 1073.9109 4223.5919 1051.6775 Z" fill="none" stroke="#865327" opacity="0.6" stroke-width="1" class="westchester_square"/>
<path d="M 4495.8687 1056.508 4494.2547 1057.8913 4479.5248 1085.294 4417.229 1118.3032 4328.1657 1028.7359 4425.0675 979.3433 4495.8687 1056.508 Z" fill="none" stroke="#865327" opacity="0.6" stroke-width="1" class="westchester_square"/>
<path d="M 3886.3599 990.489 4523.6866 989.5158 4509.9679 1063.1534 4534.3682 1267.4115 4538.1764 1327.2312 4529.9362 1367.747 3886.3599 990.489 Z" fill="none" stroke="#865327" opacity="0.6" stroke-width="1" class="westchester_square"/></svg>