<?xml version="1.0"?><svg xmlns="http://www.w3.org/2000/svg" version="1.2" baseProfile="tiny" width="6000" height="5918" viewBox="0 0 6000 5918" stroke-linecap="round" stroke-linejoin="round"><path d="M 1209.2978 4182.3885 1200.1161 4200.2607 1198.0362 4197.0259 1195.9578 4192.868 1200.2589 4183.9892 1205.0121 4181.9198 1207.5593 4182.8472 1211.3833 4182.2765 1209.2978 4182.3885 Z" fill="none" stroke="#FBC20F" opacity="0.6" stroke-width="1" class="westerleigh"/>
<path d="M 1212.7072 4152.0441 1328.799 4142.3035 1281.0453 4158.8469 1287.0707 4157.9332 1297.7332 4154.9494 1306.7752 4151.0399 1314.8762 4156.3607 1334.5922 4141.6199 1335.5117 4146.4679 1334.0842 4171.1609 1337.0781 4183.1671 1336.6157 4182.474 1345.1255 4224.4937 1348.5585 4252.8891 1350.8236 4287.7468 1314.0309 4254.2217 1284.383 4246.7895 1248.2513 4237.038 1201.4609 4227.7292 1205.4845 4176.4968 1209.6915 4154.3471 1215.9441 4156.2037 1206.8705 4179.0379 1206.8667 4181.3459 1339.4664 4135.8575 1349.0177 4101.0231 1339.0566 4100.3158 1327.2393 4101.4518 1314.9523 4106.741 1305.6719 4115.2658 1304.2608 4128.88 1284.0974 4133.2337 1285.0339 4127.0038 1273.4493 4127.2164 1241.0207 4122.7797 1210.9114 4116.9611 1206.9157 4151.573 1212.7072 4152.0441 Z" fill="none" stroke="#FBC20F" opacity="0.6" stroke-width="1" class="westerleigh"/>
<path d="M 1346.6961 4104.2506 1352.2053 4293.5196 1119.4333 4362.3943 1071.427 4252.895 1120.2095 4182.5839 1206.9123 4153.6502 1210.445 4118.8066 1346.6961 4104.2506 Z" fill="none" stroke="#FBC20F" opacity="0.6" stroke-width="1" class="westerleigh"/>
<path d="M 1281.328 4126.3057 1320.2975 4095.9024 1348.0945 4098.7139 1336.8973 4149.4703 1358.9267 4292.6063 1337.622 4283.3412 1314.4979 4251.9142 1194.9624 4234.1812 1209.9831 4117.8827 1281.328 4126.3057 Z" fill="none" stroke="#FBC20F" opacity="0.6" stroke-width="1" class="westerleigh"/>
<path d="M 1340.5973 4154.0918 1352.4618 4276.9004 1263.5339 4243.5252 1201.4701 4222.1897 1183.8511 4227.6999 1196.9814 4134.478 1198.8517 4124.3263 1200.7174 4116.9442 1344.3862 4099.6314 1340.5973 4154.0918 Z" fill="none" stroke="#FBC20F" opacity="0.6" stroke-width="1" class="westerleigh"/>
<path d="M 1414.2484 4089.616 1437.4076 4287.1318 1218.6519 4313.5977 1239.5128 4124.0799 1411.73 4092.0617 1414.2484 4089.616 Z" fill="none" stroke="#FBC20F" opacity="0.6" stroke-width="1" class="westerleigh"/>
<path d="M 1203.4869 4123.4109 1410.1879 4096.0355 1441.427 4288.1088 1146.6007 4331.0467 1203.4869 4123.4109 Z" fill="none" stroke="#FBC20F" opacity="0.6" stroke-width="1" class="westerleigh"/>
<path d="M 1210.6785 4117.653 1274.3742 4128.3718 1284.3392 4126.772 1322.8438 4097.291 1349.4852 4098.2544 1414.6016 4087.7338 1418.7066 4133.4349 1432.9762 4200.8482 1429.4743 4219.5387 1430.6074 4237.5437 1440.5347 4263.4093 1442.1261 4285.3398 1438.8807 4286.2586 1351.9729 4293.9809 1296.8163 4297.8209 1177.4268 4327.8672 1188.712 4230.7086 1210.6785 4117.653 Z" fill="none" stroke="#FBC20F" opacity="0.6" stroke-width="1" class="westerleigh"/>
<path d="M 1197.7551 4226.7998 1217.3984 4116.9717 1356.439 4095.957 1360.7901 4286.1459 1197.7551 4226.7998 Z" fill="none" stroke="#FBC20F" opacity="0.6" stroke-width="1" class="westerleigh"/>
<path d="M 1174.5672 4236.9169 1218.3206 4119.7426 1285.9675 4122.6203 1416.6682 4100.6604 1443.2963 4277.0317 1167.9421 4318.1562 1174.5672 4236.9169 Z" fill="none" stroke="#FBC20F" opacity="0.6" stroke-width="1" class="westerleigh"/>
<path d="M 1344.802 4107.8618 1352.875 4286.9789 1173.9454 4323.9353 1216.5148 4117.8149 1344.802 4107.8618 Z" fill="none" stroke="#FBC20F" opacity="0.6" stroke-width="1" class="westerleigh"/>
<path d="M 1306.5691 4134.4226 1326.9697 4126.3762 1340.3959 4134.0125 1347.795 4143.9477 1348.2359 4158.95 1346.1316 4171.6407 1352.3763 4179.0357 1352.3653 4186.4213 1347.2593 4192.1837 1330.8033 4195.621 1314.8209 4192.3653 1294.1867 4200.6425 1278.6627 4200.6182 1266.1574 4196.4439 1262.4535 4194.3608 1260.3942 4177.9706 1258.5513 4171.2744 1264.1409 4153.0503 1270.1777 4144.9821 1293.5979 4132.3253 1306.5691 4134.4226 Z" fill="none" stroke="#FBC20F" opacity="0.6" stroke-width="1" class="westerleigh"/>
<path d="M 1157.487 4470.5016 1686.1111 4302.2694 1665.2575 4699.3567 1157.487 4470.5016 Z" fill="none" stroke="#FBC20F" opacity="0.6" stroke-width="1" class="westerleigh"/>
<path d="M 1296.0023 4225.1111 1267.4862 4088.8969 1375.5307 4031.8303 1453.8313 4032.4037 1455.0972 4121.9466 1429.0464 4194.3801 1412.3025 4237.2869 1363.1525 4255.6807 1296.0023 4225.1111 Z" fill="none" stroke="#FBC20F" opacity="0.6" stroke-width="1" class="westerleigh"/>
<path d="M 1354.0574 4294.6765 1178.1212 4328.3301 1199.8676 4210.4158 1346.9999 4210.6479 1354.0574 4294.6765 Z" fill="none" stroke="#FBC20F" opacity="0.6" stroke-width="1" class="westerleigh"/>
<path d="M 1354.6264 4293.5232 1181.9299 4321.7447 1213.7862 4114.068 1417.6054 4093.2768 1447 4279.8068 1354.6264 4293.5232 Z" fill="none" stroke="#FBC20F" opacity="0.6" stroke-width="1" class="westerleigh"/>
<path d="M 1336.6755 4296.2662 1308.8621 4300.3787 1306.0935 4292.5262 1299.5902 4302.211 1251.8294 4317.8324 1173.9648 4319.5513 1165.6685 4292.2992 1170.0568 4163.5129 1397.4397 4260.3473 1398.8226 4265.4274 1405.3353 4248.3561 1409.0626 4234.5125 1405.4249 4186.0375 1398.0679 4146.3296 1406.4664 4106.1846 1380.5252 4101.5313 1344.371 4109.7859 1288.7419 4126.3173 1240.5547 4124.3945 1185.879 4123.3816 1176.6086 4125.2124 1402.9962 4263.5868 1407.5988 4285.7526 1336.6755 4296.2662 Z" fill="none" stroke="#FBC20F" opacity="0.6" stroke-width="1" class="westerleigh"/>
<path d="M 1195.1524 4119.7045 1720.7188 4019.8134 1805.0197 4042.0562 1647.2542 4240.3636 1706.4855 4317.989 1785.2443 4346.6978 1520.9419 4438.728 1464.3822 4446.0396 1354.0001 4488.3616 1171.5347 4386.4918 1109.6429 4262.6572 1195.1524 4119.7045 Z" fill="none" stroke="#FBC20F" opacity="0.6" stroke-width="1" class="westerleigh"/>
<path d="M 1127.6699 4222.8727 1188.3815 4150.9653 1191.4465 4119.1213 1295.7009 4120.9046 1348.558 4098.5992 1343.0002 4173.944 1354.2917 4292.9456 1270.8524 4304.4744 1200.6104 4321.6733 1151.6936 4334.1717 1130.313 4302.3952 1118.2076 4267.7502 1128.1318 4223.7967 1127.6699 4222.8727 Z" fill="none" stroke="#FBC20F" opacity="0.6" stroke-width="1" class="westerleigh"/>
<path d="M 1344.0935 4294.4307 1200.5188 4236.9602 1212.7542 4123.4261 1347.1608 4103.3281 1344.0935 4294.4307 Z" fill="none" stroke="#FBC20F" opacity="0.6" stroke-width="1" class="westerleigh"/>
<path d="M 1419.8787 4286.6934 1302.3788 4297.1371 1242.3399 4310.6614 1202.0313 4303.209 1181.6451 4299.7126 1187.5511 4232.0916 1196.8225 4230.2605 1204.3157 4182.7265 1205.0611 4152.2623 1236.7959 4156.4685 1241.4825 4123.7036 1282.4832 4128.3846 1311.9433 4104.8901 1347.629 4100.0979 1340.4056 4127.5505 1339.6786 4148.7821 1342.2032 4164.7108 1370.4728 4162.6758 1372.5326 4179.9888 1382.0315 4180.4643 1393.1536 4180.0189 1401.9557 4181.6472 1409.3724 4180.0423 1413.2696 4209.1293 1416.6916 4246.7566 1419.8787 4286.6934 Z" fill="none" stroke="#FBC20F" opacity="0.6" stroke-width="1" class="westerleigh"/>
<path d="M 1173.4865 4328.3223 1240.7867 4124.1641 1346.0059 4101.0186 1352.906 4289.8274 1173.4865 4328.3223 Z" fill="none" stroke="#FBC20F" opacity="0.6" stroke-width="1" class="westerleigh"/>
<path d="M 1213.6825 4122.5045 1415.7613 4086.8123 1441.4309 4285.3389 1464.3645 4458.9681 1351.2175 4489.2809 1248.4111 4426.3254 1148.4546 4331.0499 1207.206 4116.0318 1213.6825 4122.5045 Z" fill="none" stroke="#FBC20F" opacity="0.6" stroke-width="1" class="westerleigh"/>
<path d="M 1333.8455 4175.7766 1341.2573 4177.4034 1343.3315 4184.7921 1347.4716 4205.1092 1350.0013 4217.8075 1351.1226 4242.737 1354.0605 4292.599 1291.2552 4297.5815 1191.5698 4323.505 1199.3736 4228.8798 1210.1556 4153.8863 1331.3007 4173.2339 1333.8455 4175.7766 Z" fill="none" stroke="#FBC20F" opacity="0.6" stroke-width="1" class="westerleigh"/>
<path d="M 1283.1801 4127.2317 1324.0029 4096.8312 1349.9506 4096.8704 1417.6107 4089.5843 1441.4374 4280.7223 1443.2847 4285.3415 1354.2922 4292.5994 1337.622 4283.3412 1315.4233 4252.8389 1202.3786 4233.2703 1212.7648 4116.9641 1283.1801 4127.2317 Z" fill="none" stroke="#FBC20F" opacity="0.6" stroke-width="1" class="westerleigh"/>
<path d="M 1228.3467 4231.4965 1238.4545 4123.6397 1282.2951 4128.9659 1324.7288 4161.8705 1340.6999 4172.2806 1341.4275 4165.0344 1391.8687 4160.6442 1414.7925 4156.5236 1423.7829 4157.4266 1432.991 4199.6762 1437.9718 4281.3232 1331.2776 4296.1948 1446.549 4323.3868 1352.2063 4343.5839 1305.5311 4345.3475 1255.6062 4350.3172 1197.1673 4330.6368 1178.7038 4322.3752 1197.2558 4334.4187 1189.6713 4334.1619 1183.6531 4329.9968 1176.8867 4323.8015 1175.2325 4319.0371 1177.3343 4316.6856 1217.2017 4310.7501 1223.9944 4284.7203 1226.0467 4227.6722 1228.3467 4231.4965 Z" fill="none" stroke="#FBC20F" opacity="0.6" stroke-width="1" class="westerleigh"/>
<path d="M 1174.8824 4325.0929 1211.8335 4119.732 1344.3835 4101.4777 1354.7625 4287.9835 1174.8824 4325.0929 Z" fill="none" stroke="#FBC20F" opacity="0.6" stroke-width="1" class="westerleigh"/>
<path d="M 1350.597 4284.2841 1177.202 4323.7118 1206.2701 4121.5691 1370.3627 4080.2847 1350.597 4284.2841 Z" fill="none" stroke="#FBC20F" opacity="0.6" stroke-width="1" class="westerleigh"/>
<path d="M 1215.4429 4118.7622 1276.5953 4126.2456 1321.1166 4101.3898 1351.7008 4099.5898 1400.8111 4103.3544 1419.0786 4290.7945 1384.7848 4289.8218 1345.8496 4293.4574 1286.5166 4300.753 1180.8246 4315.3552 1199.4914 4237.8291 1215.4429 4118.7622 Z" fill="none" stroke="#FBC20F" opacity="0.6" stroke-width="1" class="westerleigh"/>
<path d="M 1416.6781 4093.737 1417.5929 4102.0464 1419.4523 4097.895 1420.3652 4107.5892 1418.4855 4126.0494 1427.2483 4155.1416 1431.379 4183.3048 1434.5838 4211.006 1432.6873 4241.4705 1441.4658 4260.41 1442.8284 4280.2626 1420.5713 4288.541 1404.3487 4289.9028 1384.4177 4291.7205 1361.2425 4293.533 1345.0232 4292.5855 1318.1333 4299.0079 1281.971 4307.2618 1253.2264 4313.6796 1240.7152 4312.2746 1209.6521 4319.149 1190.6417 4324.1959 1179.0659 4317.7132 1186.9972 4286.3335 1187.0257 4269.2525 1187.5222 4249.4027 1193.1041 4236.9479 1199.1438 4227.7254 1199.1974 4195.4122 1205.2627 4170.4956 1204.8412 4145.1074 1209.5068 4125.7287 1215.0778 4119.2758 1262.7933 4126.2764 1300.7966 4121.7203 1348.5488 4104.7149 1342.5314 4100.5518 1380.996 4096.4548 1396.7466 4098.7855 1416.6781 4093.737 Z" fill="none" stroke="#FBC20F" opacity="0.6" stroke-width="1" class="westerleigh"/>
<path d="M 1217.3924 4120.6643 1350.843 4102.4982 1348.0538 4281.6858 1200.531 4229.5742 1217.3924 4120.6643 Z" fill="none" stroke="#FBC20F" opacity="0.6" stroke-width="1" class="westerleigh"/>
<path d="M 1425.0125 4097.9029 1506.7896 4275.7334 1153.5457 4335.2137 1192.8272 4124.7779 1425.0125 4097.9029 Z" fill="none" stroke="#FBC20F" opacity="0.6" stroke-width="1" class="westerleigh"/>
<path d="M 1353.3653 4292.598 1294.4994 4297.5865 1176.7308 4328.3277 1188.9425 4231.4015 1198.2132 4230.032 1209.0518 4120.6506 1344.3876 4098.7083 1418.5387 4088.6625 1444.2129 4284.4194 1353.3653 4292.598 Z" fill="none" stroke="#FBC20F" opacity="0.6" stroke-width="1" class="westerleigh"/>
<path d="M 1349.0018 4111.6391 1352.448 4286.1334 1309.865 4250.9838 1202.374 4236.04 1212.7603 4119.7335 1292.4604 4118.9379 1327.7097 4096.8369 1349.0018 4111.6391 Z" fill="none" stroke="#FBC20F" opacity="0.6" stroke-width="1" class="westerleigh"/>
<path d="M 1200.0354 4231.9665 1214.5868 4118.8983 1283.9049 4125.1068 1323.7924 4100.2437 1345.1081 4099.3528 1418.4151 4092.4979 1443.4253 4290.2375 1356.3033 4285.9568 1347.538 4287.5817 1339.1202 4283.3938 1315.9912 4255.1983 1200.0354 4231.9665 Z" fill="none" stroke="#FBC20F" opacity="0.6" stroke-width="1" class="westerleigh"/>
<path d="M 1414.8316 4088.888 1442.3559 4286.7251 1220.086 4315.4728 1240.0928 4123.4706 1414.8316 4088.888 Z" fill="none" stroke="#FBC20F" opacity="0.6" stroke-width="1" class="westerleigh"/>
<path d="M 1067.1877 4161.949 1082.928 4170.2859 1288.6987 4154.0122 1355.0387 4413.5623 1107.5044 4425.1655 1067.1877 4161.949 Z" fill="none" stroke="#FBC20F" opacity="0.6" stroke-width="1" class="westerleigh"/>
<path d="M 1291.9869 4125.3992 1450.04 4093.3224 1507.2598 4270.6559 1354.7543 4293.5234 1231.1061 4236.0871 1291.9869 4125.3992 Z" fill="none" stroke="#FBC20F" opacity="0.6" stroke-width="1" class="westerleigh"/>
<path d="M 1262.388 4162.6256 1343.8091 4175.33 1352.9591 4254.2806 1314.2637 4253.5296 1288.5545 4246.3344 1246.8577 4239.1131 1255.6168 4195.2732 1258.7665 4181.6608 1262.388 4162.6256 Z" fill="none" stroke="#FBC20F" opacity="0.6" stroke-width="1" class="westerleigh"/>
<path d="M 1211.832 4120.6551 1342.5231 4106.0906 1354.2963 4289.8294 1197.7551 4226.7998 1211.832 4120.6551 Z" fill="none" stroke="#FBC20F" opacity="0.6" stroke-width="1" class="westerleigh"/>
<path d="M 1283.1801 4127.2317 1322.1523 4094.9822 1413.9052 4088.6559 1456.5461 4079.4848 1648.1799 4241.288 1442.3552 4287.1868 1353.3612 4295.3679 1177.2005 4324.6351 1142.8883 4333.8104 1128.241 4227.6053 1193.2898 4125.2403 1283.1801 4127.2317 Z" fill="none" stroke="#FBC20F" opacity="0.6" stroke-width="1" class="westerleigh"/>
<path d="M 1353.3653 4292.598 1337.6261 4280.5713 1314.5007 4250.0677 1197.749 4230.4928 1208.1373 4113.2639 1261.8681 4125.3518 1284.1097 4125.3869 1320.296 4096.8256 1348.0986 4095.9445 1336.9084 4142.085 1353.3653 4292.598 Z" fill="none" stroke="#FBC20F" opacity="0.6" stroke-width="1" class="westerleigh"/>
<path d="M 1055.2176 4196.2121 949.4779 4176.8242 1249.0678 4048.608 1213.6759 4119.4272 1193.5664 4230.6396 1113.8493 4242.3524 1078.634 4239.5205 1055.2176 4196.2121 Z" fill="none" stroke="#FBC20F" opacity="0.6" stroke-width="1" class="westerleigh"/>
<path d="M 1283.1801 4127.2317 1344.3814 4102.8624 1353.8308 4291.2137 1337.1564 4284.7255 1353.3694 4289.828 1314.4951 4253.7608 1196.8206 4231.4145 1210.9061 4120.1921 1283.1801 4127.2317 Z" fill="none" stroke="#FBC20F" opacity="0.6" stroke-width="1" class="westerleigh"/>
<path d="M 1179.0493 4327.6391 1210.6751 4119.7301 1412.9775 4089.3469 1442.3594 4284.186 1179.0493 4327.6391 Z" fill="none" stroke="#FBC20F" opacity="0.6" stroke-width="1" class="westerleigh"/>
<path d="M 1447.9172 4286.7329 1352.9053 4290.289 1195.8923 4232.3363 1205.8136 4117.4142 1414.3666 4090.0412 1447.9172 4286.7329 Z" fill="none" stroke="#FBC20F" opacity="0.6" stroke-width="1" class="westerleigh"/>
<path d="M 1305.2379 4290.1483 1263.5964 4298.693 1176.427 4322.6736 1179.9139 4245.8908 1206.0167 4137.015 1232.8893 4138.9053 1260.7005 4133.4109 1320.3039 4152.8904 1335.614 4139.4576 1364.2926 4173.6582 1440.0943 4173.5579 1470.6814 4251.6959 1470.7431 4281.8431 1305.2379 4290.1483 Z" fill="none" stroke="#FBC20F" opacity="0.6" stroke-width="1" class="westerleigh"/>
<path d="M 1214.6137 4119.7366 1341.5394 4143.9383 1455.3407 4280.7417 1174.4259 4320.9371 1214.6137 4119.7366 Z" fill="none" stroke="#FBC20F" opacity="0.6" stroke-width="1" class="westerleigh"/>
<path d="M 1355.2521 4270.4415 1364.5469 4252.9129 1347.9077 4223.3438 1348.7847 4256.5826 1347.003 4208.5706 1348.8953 4182.7233 1346.1371 4167.9479 1347.0861 4153.1784 1354.5277 4134.7261 1346.2161 4115.3275 1346.2494 4093.1724 1372.2011 4090.4416 1400.0034 4089.559 1409.2664 4092.3417 1420.379 4097.8963 1426.828 4124.6765 1429.5574 4160.6839 1435.9994 4193.005 1435.9384 4236.3972 1441.4645 4261.3332 1435.8774 4279.7912 1430.303 4289.0165 1396.0119 4286.1975 1368.2066 4285.2335 1349.6618 4289.8225 1355.2521 4270.4415 Z" fill="none" stroke="#FBC20F" opacity="0.6" stroke-width="1" class="westerleigh"/>
<path d="M 1233.8247 4131.3073 1240.7871 4123.9333 1292.3053 4119.8541 1345.0149 4099.7312 1353.469 4294.683 1239.6358 4310.2865 1179.8645 4301.4166 1210.5808 4119.3161 1233.8247 4131.3073 Z" fill="none" stroke="#FBC20F" opacity="0.6" stroke-width="1" class="westerleigh"/>
<path d="M 1413.2128 4086.8087 1417.1401 4094.6608 1429.295 4182.3787 1440.9665 4286.0307 1352.2036 4294.6737 1221.2492 4312.7047 1240.7882 4123.2409 1413.2128 4086.8087 Z" fill="none" stroke="#FBC20F" opacity="0.6" stroke-width="1" class="westerleigh"/>
<path d="M 1461.1719 4085.0298 1645.3972 4243.1312 1309.7386 4333.1585 1346.4713 4099.6346 1461.1719 4085.0298 Z" fill="none" stroke="#FBC20F" opacity="0.6" stroke-width="1" class="westerleigh"/>
<path d="M 1191.9096 4119.2375 1454.6908 4080.8668 1662.9196 4318.4009 1135.0276 4323.1784 1191.9096 4119.2375 Z" fill="none" stroke="#FBC20F" opacity="0.6" stroke-width="1" class="westerleigh"/>
<path d="M 1356.1749 4273.2128 1340.2272 4092.2402 1352.739 4091.3359 1368.4984 4087.6668 1417.6094 4090.5074 1434.1782 4169.9223 1447.9294 4277.9615 1470.9575 4383.2552 1358.7564 4407.1038 1193.7517 4404.9972 1160.5674 4294.1372 1195.157 4116.935 1338.8385 4091.315 1356.1749 4273.2128 Z" fill="none" stroke="#FBC20F" opacity="0.6" stroke-width="1" class="westerleigh"/>
<path d="M 1251.1478 4309.2905 1221.2541 4309.7038 1229.2472 4239.3155 1229.7695 4203.0789 1242.1731 4126.4742 1284.3331 4130.6954 1348.0886 4102.6372 1413.9013 4091.4252 1454.3479 4328.2916 1255.012 4356.3877 1251.1478 4309.2905 Z" fill="none" stroke="#FBC20F" opacity="0.6" stroke-width="1" class="westerleigh"/>
<path d="M 1209.0245 4137.2673 1439.337 4126.0788 1154.9479 4328.2909 1209.0245 4137.2673 Z" fill="none" stroke="#FBC20F" opacity="0.6" stroke-width="1" class="westerleigh"/>
<path d="M 1354.057 4294.9073 1181.6003 4326.4892 1210.1571 4152.9631 1343.5812 4172.7909 1354.057 4294.9073 Z" fill="none" stroke="#FBC20F" opacity="0.6" stroke-width="1" class="westerleigh"/>
<path d="M 1442.82 4286.2641 1354.2908 4293.5227 1293.5725 4297.5851 1217.9967 4317.7777 1236.3307 4157.6217 1341.9583 4173.4808 1340.134 4154.0911 1339.6929 4139.3197 1418.9403 4132.0505 1430.9098 4187.4586 1442.82 4286.2641 Z" fill="none" stroke="#FBC20F" opacity="0.6" stroke-width="1" class="westerleigh"/>
<path d="M 1180.9082 4324.6414 1163.2895 4328.7667 1145.2396 4313.9625 1124.921 4271.455 1144.4907 4210.0917 1190.7493 4120.3895 1211.1366 4120.8848 1286.1887 4129.3135 1326.3112 4102.3735 1410.8905 4090.7286 1440.2743 4283.9523 1180.9082 4324.6414 Z" fill="none" stroke="#FBC20F" opacity="0.6" stroke-width="1" class="westerleigh"/>
<path d="M 1354.5883 4094.108 1415.7652 4084.043 1424.0583 4117.2874 1435.092 4179.1556 1442.4405 4226.2505 1446.9897 4287.1932 1453.4293 4322.2886 1341.2461 4338.7466 1246.695 4340.4463 1180.8958 4332.0281 1192.1772 4236.9464 1218.3237 4117.8964 1354.5883 4094.108 Z" fill="none" stroke="#FBC20F" opacity="0.6" stroke-width="1" class="westerleigh"/>
<path d="M 1393.6884 4290.5799 1221.0122 4315.9359 1235.3919 4165.0057 1379.9611 4170.3061 1393.6884 4290.5799 Z" fill="none" stroke="#FBC20F" opacity="0.6" stroke-width="1" class="westerleigh"/>
<path d="M 1361.7087 4291.6871 1183.6905 4323.7227 1154.9392 4333.3693 1131.481 4229.9191 1200.996 4228.6517 1209.4613 4153.4236 1342.8816 4175.7902 1361.7087 4291.6871 Z" fill="none" stroke="#FBC20F" opacity="0.6" stroke-width="1" class="westerleigh"/>
<path d="M 1211.832 4120.6551 1347.165 4100.5587 1348.7405 4286.1279 1204.2323 4233.2733 1215.5193 4132.6622 1215.5178 4133.5854 1218.3025 4130.8204 1211.832 4120.6551 Z" fill="none" stroke="#FBC20F" opacity="0.6" stroke-width="1" class="westerleigh"/>
<path d="M 1209.974 4123.4215 1430.4151 4209.6152 1426.602 4284.3947 1352.4343 4295.3665 1251.3858 4305.3667 1195.8861 4236.0293 1209.974 4123.4215 Z" fill="none" stroke="#FBC20F" opacity="0.6" stroke-width="1" class="westerleigh"/>
<path d="M 1210.6784 4117.7684 1243.4524 4123.3606 1290.4851 4122.7428 1324.465 4097.6397 1347.2834 4098.8281 1414.0232 4087.156 1417.8984 4131.5875 1426.0776 4163.7948 1430.6833 4183.7654 1433.086 4205.1183 1430.1764 4214.5773 1431.1888 4236.0442 1438.1142 4254.5193 1441.0822 4286.1463 1354.2905 4293.7535 1274.3307 4302.9794 1241.4126 4310.8907 1150.8799 4335.6708 1137.5794 4321.5669 1131.8098 4307.8224 1121.7714 4283.7987 1116.9438 4261.6312 1119.3933 4252.1719 1129.7547 4223.2225 1198.2111 4231.3014 1210.6784 4117.7684 Z" fill="none" stroke="#FBC20F" opacity="0.6" stroke-width="1" class="westerleigh"/>
<path d="M 1172.572 4320.934 1206.2793 4116.0303 1295.2448 4116.1728 1409.2519 4102.4961 1433.0967 4279.7873 1172.572 4320.934 Z" fill="none" stroke="#FBC20F" opacity="0.6" stroke-width="1" class="westerleigh"/>
<path d="M 1274.7725 4169.6845 1218.298 4133.5899 1270.1897 4137.366 1315.6144 4128.2051 1415.673 4148.6629 1370.1162 4247.3815 1170.8925 4217.5225 1192.3584 4128.0082 1274.7725 4169.6845 Z" fill="none" stroke="#FBC20F" opacity="0.6" stroke-width="1" class="westerleigh"/>
<path d="M 1212.8864 4119.0954 1346.5766 4097.7091 1353.3775 4286.5642 1202.9781 4226.6317 1212.8864 4119.0954 Z" fill="none" stroke="#FBC20F" opacity="0.6" stroke-width="1" class="westerleigh"/>
<path d="M 1205.3266 4131.7223 1396.2859 4096.9386 1453.5036 4268.7363 1180.919 4318.178 1205.3266 4131.7223 Z" fill="none" stroke="#FBC20F" opacity="0.6" stroke-width="1" class="westerleigh"/>
<path d="M 1334.595 4139.7736 1338.9992 4138.3955 1342.9337 4141.1709 1353.8306 4136.1098 1358.4578 4140.5017 1372.3576 4141.4455 1375.8177 4151.8363 1368.1487 4167.5191 1367.8908 4185.2904 1366.2402 4204.6755 1355.343 4209.5063 1341.4359 4212.7168 1322.1952 4218.6887 1303.6519 4223.0456 1282.1093 4219.0883 1279.5783 4207.7747 1273.8115 4191.3783 1275.9215 4175.6871 1281.5021 4163.002 1290.3273 4149.6296 1310.7387 4134.8906 1327.193 4131.9155 1334.595 4139.7736 Z" fill="none" stroke="#FBC20F" opacity="0.6" stroke-width="1" class="westerleigh"/>
<path d="M 1353.6652 4298.4208 1315.7736 4255.3212 1193.152 4235.4135 1209.5542 4124.5018 1282.4403 4128.5303 1342.1042 4103.6445 1408.8214 4095.0864 1440.2707 4284.4638 1353.6652 4298.4208 Z" fill="none" stroke="#FBC20F" opacity="0.6" stroke-width="1" class="westerleigh"/>
<path d="M 1204.3427 4124.8468 1305.5743 4140.1003 1411.1906 4163.3369 1405.5702 4204.8732 1386.6671 4262.6029 1362.4781 4323.5061 1312.3489 4372.3689 1232.6451 4388.0277 1192.852 4347.3334 1190.2756 4224.5291 1204.3427 4124.8468 Z" fill="none" stroke="#FBC20F" opacity="0.6" stroke-width="1" class="westerleigh"/>
<path d="M 1388.0026 4137.3141 1392.6358 4137.6671 1393.2082 4142.3991 1388.8016 4145.5084 1384.517 4144.3482 1382.9041 4138.2299 1388.0026 4137.3141 Z" fill="none" stroke="#FBC20F" opacity="0.6" stroke-width="1" class="westerleigh"/>
<path d="M 1176.9694 4322.5545 1209.3859 4117.5512 1286.7625 4126.2625 1323.8783 4095.8562 1352.487 4103.1026 1397.9052 4096.7074 1411.7054 4166.8873 1424.5075 4288.7747 1352.2042 4292.3627 1280.8201 4300.5632 1176.9694 4322.5545 Z" fill="none" stroke="#FBC20F" opacity="0.6" stroke-width="1" class="westerleigh"/>
<path d="M 1215.1477 4122.4349 1333.4991 4106.448 1341.5588 4292.9514 1180.2275 4323.1647 1215.1477 4122.4349 Z" fill="none" stroke="#FBC20F" opacity="0.6" stroke-width="1" class="westerleigh"/>
<path d="M 1418.255 4287.8452 1222.8664 4315.7081 1240.0962 4121.3935 1406.9527 4090.2614 1414.3719 4086.3488 1441.661 4286.4933 1418.255 4287.8452 Z" fill="none" stroke="#FBC20F" opacity="0.6" stroke-width="1" class="westerleigh"/>
<path d="M 1428.6319 4159.7594 1436.8509 4246.5543 1211.5833 4272.063 1236.8328 4133.62 1428.6319 4159.7594 Z" fill="none" stroke="#FBC20F" opacity="0.6" stroke-width="1" class="westerleigh"/>
<path d="M 1234.6221 4211.1651 1231.3813 4209.3134 1238.1827 4158.5479 1342.6524 4174.1743 1355.2153 4295.1399 1222.6302 4318.4778 1224.9512 4316.1732 1230.1714 4240.9327 1232.0255 4240.7049 1234.6221 4211.1651 Z" fill="none" stroke="#FBC20F" opacity="0.6" stroke-width="1" class="westerleigh"/>
<path d="M 1201.6411 4118.7921 1213.397 4155.2764 1237.025 4158.0844 1246.9855 4159.4852 1341.4939 4174.1725 1351.9829 4287.2869 1274.5877 4286.9372 1193.2763 4272.7252 1194.4568 4259.5703 1199.6409 4207.4149 1209.9729 4124.1139 1211.366 4122.2699 1201.6411 4118.7921 Z" fill="none" stroke="#FBC20F" opacity="0.6" stroke-width="1" class="westerleigh"/>
<path d="M 1199.1469 4225.8789 1212.7557 4122.503 1350.7462 4184.5725 1348.8262 4228.8847 1349.7144 4254.7374 1350.5984 4283.3607 1199.1469 4225.8789 Z" fill="none" stroke="#FBC20F" opacity="0.6" stroke-width="1" class="westerleigh"/>
<path d="M 1321.1082 4171.8336 1425.381 4164.8324 1453.4216 4327.8286 1247.1284 4359.1452 1243.1914 4357.523 1241.3725 4335.8209 1241.6436 4311.3527 1246.095 4281.1212 1256.8187 4240.7447 1231.601 4216.6996 1236.3262 4160.3912 1242.4029 4127.6285 1312.396 4111.8144 1339.9305 4135.3966 1323.8903 4170.6839 1321.1082 4171.8336 Z" fill="none" stroke="#FBC20F" opacity="0.6" stroke-width="1" class="westerleigh"/>
<path d="M 1239.6261 4125.5469 1283.6402 4129.3095 1353.1308 4294.4443 1221.2394 4318.7063 1239.6261 4125.5469 Z" fill="none" stroke="#FBC20F" opacity="0.6" stroke-width="1" class="westerleigh"/></svg>