<?xml version="1.0"?><svg xmlns="http://www.w3.org/2000/svg" version="1.2" baseProfile="tiny" width="6000" height="5918" viewBox="0 0 6000 5918" stroke-linecap="round" stroke-linejoin="round"><path d="M 3250.2042 1473.2931 3278.8589 1485.2456 3186.3904 1364.7013 3247.3124 1239.4956 3341.584 1293.7453 3309.3107 1406.9813 3275.1594 1479.7241 3250.2042 1473.2931 Z" fill="none" stroke="#865327" opacity="0.45248868778280543" stroke-width="1" class="west_harlem"/>
<path d="M 3216.0847 1627.0596 3434.8549 1224.6556 3249.366 1640.8542 3243.8207 1641.7777 3216.0847 1627.0596 Z" fill="none" stroke="#865327" opacity="0.45248868778280543" stroke-width="1" class="west_harlem"/>
<path d="M 3259.4682 1516.5566 3260.3948 1521.1593 3282.5969 1560.7352 3243.7708 1543.2632 3259.4682 1516.5566 Z" fill="none" stroke="#865327" opacity="0.45248868778280543" stroke-width="1" class="west_harlem"/>
<path d="M 3201.2936 1621.7724 3197.054 1446.1622 3329.0606 1210.2295 3389.3661 1244.2442 3215.3924 1629.1316 3201.2936 1621.7724 Z" fill="none" stroke="#865327" opacity="0.45248868778280543" stroke-width="1" class="west_harlem"/>
<path d="M 3274.2379 1484.7878 3351.8937 1528.9322 3276.6443 1662.0171 3200.369 1621.0822 3272.3981 1500.439 3274.2379 1484.7878 Z" fill="none" stroke="#865327" opacity="0.45248868778280543" stroke-width="1" class="west_harlem"/>
<path d="M 3314.5525 1680.8717 3217.9343 1629.3605 3218.8391 1588.8487 3216.0519 1558.4677 3249.754 1496.3082 3193.3651 1462.734 3191.9777 1459.9729 3280.1444 1300.6839 3404.9189 1358.1352 3388.3105 1394.5056 3279.879 1661.0946 3314.5525 1680.8717 Z" fill="none" stroke="#865327" opacity="0.45248868778280543" stroke-width="1" class="west_harlem"/>
<path d="M 3082.963 1554.3789 3337.6641 924.7358 3417.1126 952.2861 3215.1626 1631.6637 3078.3425 1556.2217 3082.963 1554.3789 Z" fill="none" stroke="#865327" opacity="0.45248868778280543" stroke-width="1" class="west_harlem"/>
<path d="M 3186.9223 1521.195 3136.0883 1511.0895 3155.4817 1476.5591 3172.7824 1414.4143 3216.6422 1343.5166 3282.6603 1255.1231 3421.9953 1332.3506 3276.376 1593.1926 3132.6231 1512.2416 3186.9223 1521.195 Z" fill="none" stroke="#865327" opacity="0.45248868778280543" stroke-width="1" class="west_harlem"/>
<path d="M 3421.9941 1330.5097 3248.4431 1643.6169 3180.0314 1613.2653 3233.5762 1486.1897 3146.6888 1442.9619 3262.0953 1240.4083 3421.9941 1330.5097 Z" fill="none" stroke="#865327" opacity="0.45248868778280543" stroke-width="1" class="west_harlem"/>
<path d="M 3454.0433 1407.0018 3473.4556 1416.0776 3468.3722 1414.8157 3456.1241 1409.3016 3454.0441 1408.1525 3454.0433 1407.0018 Z" fill="none" stroke="#865327" opacity="0.45248868778280543" stroke-width="1" class="west_harlem"/>
<path d="M 3214.2374 1629.8227 3193.8976 1617.8627 3214.2186 1590.232 3212.3535 1555.2471 3259.447 1476.0501 3386.0994 1545.0216 3308.5456 1683.1771 3214.2374 1629.8227 Z" fill="none" stroke="#865327" opacity="0.45248868778280543" stroke-width="1" class="west_harlem"/>
<path d="M 3216.9763 1558.9275 3263.147 1482.4922 3272.3607 1430.9357 3306.0508 1362.3392 3343.8913 1289.602 3417.8345 1328.2115 3426.6163 1333.7281 3317.2377 1530.7944 3254.4454 1632.5649 3242.4347 1642.6992 3204.0629 1614.1751 3216.5316 1595.2947 3216.9763 1558.9275 Z" fill="none" stroke="#865327" opacity="0.45248868778280543" stroke-width="1" class="west_harlem"/>
<path d="M 3199.4441 1619.7016 3370.6199 1186.5056 3440.4012 1228.7932 3451.4889 1230.1657 3467.2068 1245.8002 3302.0705 1674.8938 3199.4441 1619.7016 Z" fill="none" stroke="#865327" opacity="0.45248868778280543" stroke-width="1" class="west_harlem"/>
<path d="M 3387.0248 1546.8623 3309.4689 1681.335 3245.6707 1644.539 3281.6848 1582.8319 3275.2136 1580.0734 3271.4702 1493.535 3325.0111 1392.244 3374.8554 1307.5306 3468.213 1356.2492 3472.8573 1388.4627 3387.0248 1546.8623 Z" fill="none" stroke="#865327" opacity="0.45248868778280543" stroke-width="1" class="west_harlem"/>
<path d="M 3268.5664 1247.3076 3417.837 1331.8933 3316.7557 1496.7317 3180.3889 1375.2895 3268.5664 1247.3076 Z" fill="none" stroke="#865327" opacity="0.45248868778280543" stroke-width="1" class="west_harlem"/>
<path d="M 3118.7512 1487.3905 3306.8554 1154.3343 3399.2702 1202.5923 3344.8447 1337.4636 3276.0872 1486.628 3118.7512 1487.3905 Z" fill="none" stroke="#865327" opacity="0.45248868778280543" stroke-width="1" class="west_harlem"/>
<path d="M 3312.8589 1152.0302 3379.3992 1190.6413 3395.1109 1199.8341 3375.7514 1264.2712 3360.0626 1292.8134 3346.2213 1322.2755 3342.5344 1337.0048 3320.3952 1399.6108 3276.085 1482.4853 3255.7476 1470.5285 3191.0176 1380.3475 3312.8589 1152.0302 Z" fill="none" stroke="#865327" opacity="0.45248868778280543" stroke-width="1" class="west_harlem"/>
<path d="M 3200.3701 1623.384 3215.1428 1590.2315 3212.3548 1558.0091 3260.3736 1480.6525 3285.298 1430.9286 3304.7056 1433.6793 3349.0098 1348.9668 3374.8542 1305.6897 3472.8373 1361.7686 3383.3249 1542.2614 3322.3134 1518.3629 3253.0642 1642.6937 3200.3701 1623.384 Z" fill="none" stroke="#865327" opacity="0.45248868778280543" stroke-width="1" class="west_harlem"/>
<path d="M 3278.0303 1661.0956 3277.8005 1663.3976 3199.9076 1622.6937 3359.8348 1297.8758 3452.0373 1348.8974 3278.0303 1661.0956 Z" fill="none" stroke="#865327" opacity="0.45248868778280543" stroke-width="1" class="west_harlem"/>
<path d="M 3135.6075 1463.2187 3143.0005 1463.2158 3292.5802 1233.029 3294.4331 1242.2315 3366.5532 1328.7058 3355.4687 1334.2355 3366.5567 1334.2285 3117.195 1651.0409 3107.9465 1636.3124 3063.5629 1581.0847 3074.6526 1577.3984 3131.9153 1474.2671 3135.6075 1463.2187 Z" fill="none" stroke="#865327" opacity="0.45248868778280543" stroke-width="1" class="west_harlem"/>
<path d="M 3356.0486 1153.6146 3352.5821 1150.1657 3341.0338 1149.2526 3387.7001 1169.6991 3379.6296 1189.7209 3332.9817 1201.254 3340.3439 1154.0844 3356.0486 1153.6146 Z" fill="none" stroke="#865327" opacity="0.45248868778280543" stroke-width="1" class="west_harlem"/>
<path d="M 3200.7067 1351.348 3302.9256 1148.1247 3372.0064 1187.6551 3440.6294 1224.8816 3423.5584 1255.0353 3331.035 1421.4668 3200.7067 1351.348 Z" fill="none" stroke="#865327" opacity="0.45248868778280543" stroke-width="1" class="west_harlem"/>
<path d="M 3320.9228 1510.9987 3147.1449 1428.233 3312.1661 1152.0306 3396.7288 1201.4436 3320.9228 1510.9987 Z" fill="none" stroke="#865327" opacity="0.45248868778280543" stroke-width="1" class="west_harlem"/>
<path d="M 3082.0409 1560.8238 3244.0999 1281.3744 3370.2621 1348.9534 3220.7074 1629.8196 3082.0409 1560.8238 Z" fill="none" stroke="#865327" opacity="0.45248868778280543" stroke-width="1" class="west_harlem"/>
<path d="M 3276.1832 1663.8589 3080.1894 1551.6178 3312.86 1153.8707 3464.4296 1238.4394 3469.1048 1312.9875 3276.1832 1663.8589 Z" fill="none" stroke="#865327" opacity="0.45248868778280543" stroke-width="1" class="west_harlem"/>
<path d="M 3201.2929 1620.1611 3348.0739 1329.6379 3468.2391 1391.2276 3311.7781 1678.5713 3309.4673 1678.5727 3201.2929 1620.1611 Z" fill="none" stroke="#865327" opacity="0.45248868778280543" stroke-width="1" class="west_harlem"/>
<path d="M 3321.3209 1402.3717 3443.1666 1220.048 3484.8609 1376.4872 3382.4001 1541.3414 3272.3934 1491.6933 3321.3209 1402.3717 Z" fill="none" stroke="#865327" opacity="0.45248868778280543" stroke-width="1" class="west_harlem"/>
<path d="M 3246.5955 1645.4593 3081.1139 1552.5382 3305.9273 1146.7426 3467.6636 1238.8971 3246.5955 1645.4593 Z" fill="none" stroke="#865327" opacity="0.45248868778280543" stroke-width="1" class="west_harlem"/>
<path d="M 3190.094 1381.2684 3312.8627 1158.4721 3389.572 1206.28 3390.5221 1245.8541 3359.1409 1296.4956 3391.4906 1313.0422 3295.4988 1494.4424 3260.3745 1482.4937 3190.094 1381.2684 Z" fill="none" stroke="#865327" opacity="0.45248868778280543" stroke-width="1" class="west_harlem"/>
<path d="M 3247.517 1639.9344 3207.757 1607.7284 3474.5954 1242.1132 3452.4966 1345.2152 3321.4343 1594.7784 3286.3431 1650.042 3247.517 1639.9344 Z" fill="none" stroke="#865327" opacity="0.45248868778280543" stroke-width="1" class="west_harlem"/>
<path d="M 3236.2819 1352.4815 3214.0992 1339.3758 3265.7956 1249.1498 3362.8452 1309.8393 3304.242 1430.918 3297.771 1426.7792 3259.1808 1408.8499 3243.6967 1397.2364 3228.2152 1390.2253 3199.443 1366.1912 3216.9881 1342.1358 3236.2819 1352.4815 Z" fill="none" stroke="#865327" opacity="0.45248868778280543" stroke-width="1" class="west_harlem"/>
<path d="M 3258.521 1472.3682 3213.1916 1373.8938 3274.1106 1248.6852 3423.8401 1327.7471 3326.0047 1509.1545 3258.521 1472.3682 Z" fill="none" stroke="#865327" opacity="0.45248868778280543" stroke-width="1" class="west_harlem"/>
<path d="M 3205.9192 1630.7473 3196.6671 1610.4957 3213.2961 1593.9152 3211.4323 1561.6922 3239.1271 1498.1548 3247.4337 1476.9769 3235.3993 1435.5575 3190.094 1381.2684 3238.0959 1284.5988 3395.2172 1359.0622 3253.9856 1637.1688 3251.2175 1646.3777 3205.9192 1630.7473 Z" fill="none" stroke="#865327" opacity="0.45248868778280543" stroke-width="1" class="west_harlem"/>
<path d="M 3186.3957 1376.6676 3303.6186 1148.3544 3396.0323 1196.1522 3272.3676 1443.8233 3259.447 1476.0501 3253.9017 1475.1324 3186.3957 1376.6676 Z" fill="none" stroke="#865327" opacity="0.45248868778280543" stroke-width="1" class="west_harlem"/>
<path d="M 3199.4456 1622.9241 3083.8863 1551.6166 3312.1457 1116.8309 3419.8015 1166.9165 3408.0518 1209.7188 3425.8416 1217.0692 3396.3199 1280.8246 3339.552 1370.8338 3309.5568 1433.2163 3283.4742 1475.3467 3270.5478 1496.7576 3272.4143 1530.5894 3215.8552 1630.5124 3199.4456 1622.9241 Z" fill="none" stroke="#865327" opacity="0.45248868778280543" stroke-width="1" class="west_harlem"/>
<path d="M 3249.3684 1645.4579 3199.4448 1621.0827 3214.6816 1592.0731 3214.666 1559.389 3250.6777 1495.3871 3186.8964 1463.1972 3195.2047 1443.8616 3183.1638 1381.7317 3210.4045 1342.1389 3239.0362 1317.273 3280.1188 1253.7439 3419.6825 1328.2102 3249.3684 1645.4579 Z" fill="none" stroke="#865327" opacity="0.45248868778280543" stroke-width="1" class="west_harlem"/>
<path d="M 3277.8718 1369.2585 3301.937 1440.1248 3273.3264 1508.2637 3143.9154 1440.2014 3213.1724 1333.3933 3277.8718 1369.2585 Z" fill="none" stroke="#865327" opacity="0.45248868778280543" stroke-width="1" class="west_harlem"/>
<path d="M 3377.5515 1190.6425 3436.7059 1229.256 3217.9262 1612.3271 3162.461 1591.1759 3377.5515 1190.6425 Z" fill="none" stroke="#865327" opacity="0.45248868778280543" stroke-width="1" class="west_harlem"/>
<path d="M 3245.6707 1644.539 3201.293 1620.3913 3287.6289 1468.21 3331.9999 1489.3578 3245.6707 1644.539 Z" fill="none" stroke="#865327" opacity="0.45248868778280543" stroke-width="1" class="west_harlem"/>
<path d="M 3473.583 1124.3154 3281.6314 1485.2441 3154.9924 1410.7398 3360.8337 1050.7767 3473.583 1124.3154 Z" fill="none" stroke="#865327" opacity="0.45248868778280543" stroke-width="1" class="west_harlem"/>
<path d="M 3234.896 1352.7123 3235.8237 1360.0756 3230.2816 1364.2205 3225.1958 1356.8592 3229.8091 1343.05 3248.7418 1324.6316 3257.0422 1294.7135 3264.4236 1275.3813 3292.602 1272.1446 3309.7121 1302.0479 3304.6493 1335.1864 3289.8863 1372.9338 3270.4995 1406.5426 3250.6376 1417.5993 3228.9217 1417.6103 3209.9729 1406.5731 3198.4163 1394.1516 3193.3321 1390.0117 3197.0237 1379.8845 3205.3341 1366.9939 3210.8748 1359.6275 3216.4167 1355.0225 3234.896 1352.7123 Z" fill="none" stroke="#865327" opacity="0.45248868778280543" stroke-width="1" class="west_harlem"/>
<path d="M 3315.2459 1121.2651 3402.6627 1171.1913 3360.3496 1298.1352 3282.8204 1256.0061 3315.2459 1121.2651 Z" fill="none" stroke="#865327" opacity="0.45248868778280543" stroke-width="1" class="west_harlem"/>
<path d="M 3362.9977 1550.5604 3321.3974 1532.1729 3284.4241 1522.067 3265.9277 1498.1409 3260.3697 1473.2878 3255.7366 1449.3554 3252.0283 1426.3437 3255.7108 1399.6466 3261.243 1376.6312 3281.5588 1352.6879 3320.3519 1325.9728 3348.9916 1319.5125 3354.5338 1316.7477 3370.2397 1313.9765 3387.805 1328.692 3403.5216 1341.5678 3442.3557 1377.4391 3471.9408 1398.5889 3459.9721 1458.4328 3444.2925 1500.7913 3421.2109 1533.0294 3410.1325 1550.5294 3396.2767 1561.5867 3362.9977 1550.5604 Z" fill="none" stroke="#865327" opacity="0.45248868778280543" stroke-width="1" class="west_harlem"/>
<path d="M 3244.7459 1643.6188 3246.1317 1642.2369 3245.6707 1644.539 3201.7544 1618.7798 3233.5632 1459.9532 3317.2261 1511.0009 3244.7459 1643.6188 Z" fill="none" stroke="#865327" opacity="0.45248868778280543" stroke-width="1" class="west_harlem"/>
<path d="M 3130.1061 1575.5372 3281.5054 1255.1237 3462.6989 1396.7548 3320.5528 1667.5169 3311.3159 1678.5716 3130.1061 1575.5372 Z" fill="none" stroke="#865327" opacity="0.45248868778280543" stroke-width="1" class="west_harlem"/>
<path d="M 3200.6002 1621.3123 3216.7618 1593.4532 3216.7463 1560.9992 3276.8381 1593.1924 3246.3642 1644.9991 3200.6002 1621.3123 Z" fill="none" stroke="#865327" opacity="0.45248868778280543" stroke-width="1" class="west_harlem"/>
<path d="M 3215.1639 1634.4259 3076.4901 1544.2538 3306.3896 1147.4325 3475.5207 1243.9532 3255.8385 1645.4545 3215.1639 1634.4259 Z" fill="none" stroke="#865327" opacity="0.45248868778280543" stroke-width="1" class="west_harlem"/>
<path d="M 3243.8216 1643.6192 3104.2242 1566.3401 3323.0955 1278.1096 3418.2987 1331.4327 3243.8216 1643.6192 Z" fill="none" stroke="#865327" opacity="0.45248868778280543" stroke-width="1" class="west_harlem"/>
<path d="M 3201.2918 1617.8593 3323.1886 1435.5097 3438.7475 1500.7952 3333.5056 1687.7663 3201.2918 1617.8593 Z" fill="none" stroke="#865327" opacity="0.45248868778280543" stroke-width="1" class="west_harlem"/>
<path d="M 3245.6726 1648.222 3219.7858 1635.3444 3155.9931 1595.7821 3192.0091 1529.4784 3240.0276 1451.2046 3270.4879 1384.9108 3317.575 1317.6905 3320.3405 1306.6438 3338.7919 1260.6129 3412.6227 1139.0833 3440.3593 1170.3531 3458.3813 1180.0031 3460.7123 1208.9912 3458.8903 1243.9656 3457.0613 1269.7373 3429.3705 1308.4142 3409.9941 1348.0066 3354.6177 1451.14 3294.6102 1557.9665 3245.6726 1648.222 Z" fill="none" stroke="#865327" opacity="0.45248868778280543" stroke-width="1" class="west_harlem"/>
<path d="M 3198.5211 1622.4642 3247.3293 1272.629 3473.7779 1383.8595 3311.3186 1683.1755 3198.5211 1622.4642 Z" fill="none" stroke="#865327" opacity="0.45248868778280543" stroke-width="1" class="west_harlem"/>
<path d="M 3197.5062 1424.5292 3166.0751 1396.0069 3294.4181 1215.5415 3433.989 1306.5701 3333.4019 1515.5944 3197.5062 1424.5292 Z" fill="none" stroke="#865327" opacity="0.45248868778280543" stroke-width="1" class="west_harlem"/>
<path d="M 3215.1235 1549.7218 3265.0538 1592.9685 3207.7497 1592.0764 3209.5982 1592.0755 3215.1235 1549.7218 Z" fill="none" stroke="#865327" opacity="0.45248868778280543" stroke-width="1" class="west_harlem"/>
<path d="M 3387.0254 1547.7829 3288.1055 1494.4465 3358.2181 1298.337 3461.7089 1307.4704 3462.7029 1402.2778 3387.0254 1547.7829 Z" fill="none" stroke="#865327" opacity="0.45248868778280543" stroke-width="1" class="west_harlem"/>
<path d="M 3259.4473 1476.5104 3189.1985 1444.7849 3151.3063 1435.5957 3168.8504 1403.3698 3191.9229 1338.9259 3267.6456 1253.2905 3318.4089 1163.9905 3358.1389 1172.2489 3393.4961 1202.8262 3414.2949 1219.8382 3371.1558 1301.7803 3388.9498 1313.274 3420.1448 1328.6701 3399.8429 1367.3434 3337.0986 1515.5922 3197.5167 1447.5428 3259.4473 1476.5104 Z" fill="none" stroke="#865327" opacity="0.45248868778280543" stroke-width="1" class="west_harlem"/>
<path d="M 3215.152 1609.5663 3225.2939 1558.0029 3269.6106 1472.3624 3235.3511 1338.9052 3314.7693 1259.7068 3434.0093 1335.1035 3266.0039 1641.7662 3215.152 1609.5663 Z" fill="none" stroke="#865327" opacity="0.45248868778280543" stroke-width="1" class="west_harlem"/>
<path d="M 3464.8127 1132.1441 3475.1037 1303.7788 3283.577 1662.4737 3219.7827 1628.8993 3215.6177 1616.9318 3274.6963 1477.8831 3345.3047 1334.2418 3362.3725 1292.8119 3413.5914 1204.4232 3464.8127 1132.1441 Z" fill="none" stroke="#865327" opacity="0.45248868778280543" stroke-width="1" class="west_harlem"/>
<path d="M 3202.2171 1619.9305 3202.9085 1616.0171 3262.453 1480.8816 3349.5843 1530.5447 3277.5668 1658.5638 3202.2171 1619.9305 Z" fill="none" stroke="#865327" opacity="0.45248868778280543" stroke-width="1" class="west_harlem"/>
<path d="M 3271.3403 1251.4478 3384.0927 1303.8429 3340.7246 1399.5986 3298.2728 1497.2026 3238.4109 1452.126 3228.9265 1427.2758 3228.0047 1431.879 3227.5422 1430.9587 3127.2418 1336.6518 3408.0921 1268.8516 3410.857 1258.7255 3316.5897 1212.7678 3298.1251 1235.7869 3271.3403 1251.4478 Z" fill="none" stroke="#865327" opacity="0.45248868778280543" stroke-width="1" class="west_harlem"/>
<path d="M 3274.2516 1510.1044 3270.5544 1509.1858 3171.6436 1452.1571 3274.1116 1250.5259 3356.3679 1294.6565 3274.2516 1510.1044 Z" fill="none" stroke="#865327" opacity="0.45248868778280543" stroke-width="1" class="west_harlem"/>
<path d="M 3217.0089 1627.0591 3271.0244 1523.9155 3274.296 1592.5032 3270.084 1493.5357 3276.087 1486.1677 3300.0953 1451.6327 3326.857 1388.5609 3356.3962 1339.7576 3377.6276 1307.989 3452.4987 1347.9766 3470.5241 1357.6282 3470.0724 1371.4357 3473.3186 1387.5418 3468.2418 1394.9096 3379.6371 1556.0737 3399.0512 1564.3468 3397.6678 1568.721 3379.4357 1601.6477 3378.2796 1600.4975 3360.9447 1592.4525 3312.705 1682.9445 3244.5156 1645 3217.0089 1627.0591 Z" fill="none" stroke="#865327" opacity="0.45248868778280543" stroke-width="1" class="west_harlem"/>
<path d="M 3261.1741 1245.4708 3418.7588 1328.6711 3248.9072 1647.2996 3202.6821 1626.1452 3261.7595 1480.1915 3187.7816 1376.2067 3261.1741 1245.4708 Z" fill="none" stroke="#865327" opacity="0.45248868778280543" stroke-width="1" class="west_harlem"/>
<path d="M 3308.2727 1209.0913 3322.8277 1215.7552 3406.4705 1261.9499 3383.4037 1309.8261 3340.2659 1405.1219 3281.4151 1512.1719 3251.6017 1495.1565 3221.3268 1476.9898 3236.3294 1447.7544 3189.1677 1376.2061 3191.7079 1374.364 3243.1925 1314.0494 3308.2727 1209.0913 Z" fill="none" stroke="#865327" opacity="0.45248868778280543" stroke-width="1" class="west_harlem"/>
<path d="M 3215.1441 1592.9936 3214.6658 1558.9287 3249.7537 1495.8479 3265.449 1466.8411 3187.7824 1378.0477 3314.2448 1152.2594 3462.1188 1237.0605 3242.9011 1650.9857 3203.6034 1619.6997 3215.1441 1592.9936 Z" fill="none" stroke="#865327" opacity="0.45248868778280543" stroke-width="1" class="west_harlem"/>
<path d="M 3192.9737 1618.7838 3384.1042 1321.331 3472.8373 1361.7686 3472.8577 1388.9229 3380.5604 1554.6921 3366.6931 1548.2564 3345.4575 1582.7949 3362.1006 1593.3725 3309.4702 1683.637 3192.9737 1618.7838 Z" fill="none" stroke="#865327" opacity="0.45248868778280543" stroke-width="1" class="west_harlem"/>
<path d="M 3103.8052 1686.4955 3211.8104 1628.3276 3217.3556 1627.1741 3220.1258 1621.6484 3249.8265 1637.6313 3250.6348 1636.7102 3214.0388 1698.1896 3187.5725 1683.3541 3161.8231 1722.8447 3103.8052 1686.4955 Z" fill="none" stroke="#865327" opacity="0.45248868778280543" stroke-width="1" class="west_harlem"/>
<path d="M 3212.3879 1627.9821 3125.4881 1583.8252 3089.4312 1550.694 3144.8383 1437.4394 3203.0208 1360.0914 3256.5648 1265.2612 3304.5482 1158.4769 3363.6008 1044.3338 3404.1694 933.8936 3524.2842 990.85 3456.9689 1143.6531 3471.8243 1243.0356 3429.386 1330.5046 3327.8475 1499.9473 3436.7773 1329.5789 3394.327 1409.69 3366.6277 1445.6091 3351.8643 1481.5207 3307.5525 1563.4832 3248.4384 1634.4094 3212.3879 1627.9821 Z" fill="none" stroke="#865327" opacity="0.45248868778280543" stroke-width="1" class="west_harlem"/>
<path d="M 3312.2403 1678.5711 3200.8314 1621.5424 3215.6078 1596.2158 3215.1285 1560.3094 3250.6781 1496.3077 3218.7863 1478.8322 3236.33 1448.905 3330.0268 1280.8666 3472.8366 1360.8481 3472.8587 1390.3037 3312.2403 1678.5711 Z" fill="none" stroke="#865327" opacity="0.45248868778280543" stroke-width="1" class="west_harlem"/>
<path d="M 3183.7277 1611.4222 3197.5673 1558.016 3218.8075 1523.0214 3226.6507 1497.7007 3216.4799 1487.1187 3230.0978 1460.185 3198.2077 1442.9397 3213.6728 1414.1657 3200.4964 1396.2218 3173.9234 1381.7358 3183.6214 1371.6062 3177.6119 1364.245 3197.4707 1347.2074 3217.3222 1316.3632 3198.3743 1302.5658 3225.1449 1252.3918 3228.8412 1253.7705 3235.7644 1241.3422 3248.7039 1250.5393 3256.0899 1240.4115 3327.7161 1279.4874 3310.1824 1316.3142 3305.1065 1326.9021 3325.4406 1337.4754 3329.6072 1351.74 3320.3781 1370.6151 3307.4461 1378.4468 3304.6779 1385.3521 3300.9906 1401.0027 3307.0034 1412.0455 3289.4644 1445.1948 3278.3846 1462.6916 3286.7053 1469.131 3275.1623 1485.2476 3270.5465 1494.4561 3274.2888 1579.1532 3282.1469 1582.8317 3246.1343 1647.301 3183.7277 1611.4222 Z" fill="none" stroke="#865327" opacity="0.45248868778280543" stroke-width="1" class="west_harlem"/>
<path d="M 3204.0642 1616.9373 3110.6948 1569.0998 3193.7897 1380.3462 3269.6204 1490.7742 3204.0642 1616.9373 Z" fill="none" stroke="#865327" opacity="0.45248868778280543" stroke-width="1" class="west_harlem"/>
<path d="M 3332.4434 1458.5181 3418.8803 1504.0313 3416.1345 1542.6997 3403.6773 1571.7091 3377.372 1626.048 3340.8871 1666.1236 3258.1476 1642.2307 3287.6867 1572.7011 3319.9954 1505.4756 3424.4201 1496.6626 3380.0224 1438.236 3340.3063 1471.4013 3342.6144 1467.7176 3332.4434 1458.5181 Z" fill="none" stroke="#865327" opacity="0.45248868778280543" stroke-width="1" class="west_harlem"/>
<path d="M 3105.1501 1570.9432 3277.8095 1254.6655 3388.719 1313.5043 3212.8516 1631.2044 3105.1501 1570.9432 Z" fill="none" stroke="#865327" opacity="0.45248868778280543" stroke-width="1" class="west_harlem"/>
<path d="M 3198.5203 1620.6227 3404.6242 1264.2521 3462.419 1330.7108 3275.9519 1663.3986 3198.5203 1620.6227 Z" fill="none" stroke="#865327" opacity="0.45248868778280543" stroke-width="1" class="west_harlem"/>
<path d="M 3402.7214 1524.7564 3362.0677 1541.3545 3277.9468 1507.3406 3234.4976 1480.6657 3201.2042 1428.2096 3187.3243 1386.7926 3222.4119 1332.4684 3254.7256 1281.8291 3303.6817 1258.7928 3346.189 1269.8121 3392.4036 1296.4741 3437.6961 1322.2147 3468.2165 1360.8516 3462.7356 1446.4635 3402.7214 1524.7564 Z" fill="none" stroke="#865327" opacity="0.45248868778280543" stroke-width="1" class="west_harlem"/>
<path d="M 3312.2413 1680.4126 3277.569 1662.7072 3216.5475 1628.4405 3192.9931 1661.5984 3089.4519 1610.9989 3111.1568 1568.6393 3202.0951 1356.4099 3353.0592 1174.5529 3343.8177 1169.497 3313.7753 1139.1459 3346.0669 1071.49 3362.6421 989.126 3452.5491 783.4418 3543.088 831.6682 3353.52 1172.712 3413.5984 1214.5467 3363.7634 1300.6345 3393.8018 1314.8815 3296.4203 1489.8388 3328.3156 1510.0737 3387.0239 1545.4813 3383.1035 1556.9921 3364.6138 1548.4879 3346.6134 1583.7149 3361.408 1594.2936 3312.2413 1680.4126 Z" fill="none" stroke="#865327" opacity="0.45248868778280543" stroke-width="1" class="west_harlem"/>
<path d="M 3226.2549 1633.4998 3205.9132 1617.8571 3245.6037 1512.8813 3260.3799 1492.6202 3381.4807 1548.7072 3422.1645 1575.3791 3343.679 1696.9681 3230.8714 1623.3695 3226.2549 1633.4998 Z" fill="none" stroke="#865327" opacity="0.45248868778280543" stroke-width="1" class="west_harlem"/>
<path d="M 3199.4452 1622.0034 3215.1437 1592.0729 3215.127 1557.0871 3248.8289 1494.4674 3218.3244 1479.2928 3279.2586 1370.6384 3372.6193 1422.1314 3246.1338 1646.3803 3199.4452 1622.0034 Z" fill="none" stroke="#865327" opacity="0.45248868778280543" stroke-width="1" class="west_harlem"/>
<path d="M 3281.0435 1255.124 3452.4993 1348.8971 3275.7218 1665.2403 3199.4448 1621.0827 3216.5281 1587.9291 3212.8171 1558.4692 3247.9042 1493.5473 3158.701 1440.1953 3142.5263 1432.8376 3263.0243 1250.0716 3281.0435 1255.124 Z" fill="none" stroke="#865327" opacity="0.45248868778280543" stroke-width="1" class="west_harlem"/>
<path d="M 3240.0901 1575.4883 3183.6959 1539.6091 3248.3362 1434.6304 3306.5696 1461.295 3240.0901 1575.4883 Z" fill="none" stroke="#865327" opacity="0.45248868778280543" stroke-width="1" class="west_harlem"/>
<path d="M 3421.9941 1330.5097 3249.3675 1643.6164 3201.2927 1619.7007 3264.9958 1483.4119 3189.1703 1382.1893 3280.5795 1251.4427 3421.9941 1330.5097 Z" fill="none" stroke="#865327" opacity="0.45248868778280543" stroke-width="1" class="west_harlem"/>
<path d="M 3247.5188 1643.6173 3160.6144 1595.7801 3329.5664 1283.6281 3382.2532 1316.73 3412.7535 1329.5957 3247.5188 1643.6173 Z" fill="none" stroke="#865327" opacity="0.45248868778280543" stroke-width="1" class="west_harlem"/>
<path d="M 3387.4399 2176.7973 3521.6029 2255.9313 3444.901 2346.2852 3323.6858 2276.3387 3387.4399 2176.7973 Z" fill="none" stroke="#865327" opacity="0.45248868778280543" stroke-width="1" class="west_harlem"/>
<path d="M 3185.4721 1377.5885 3218.7173 1335.2316 3305.5611 1314.0158 3410.9326 1369.1768 3399.8491 1376.5482 3254.9061 1629.8024 3267.8192 1579.1567 3254.823 1469.6084 3185.4721 1377.5885 Z" fill="none" stroke="#865327" opacity="0.45248868778280543" stroke-width="1" class="west_harlem"/>
<path d="M 3217.9359 1632.5831 3201.2922 1618.78 3217.9173 1593.913 3216.0517 1558.0073 3256.6813 1488.9398 3341.7381 1545.9704 3278.9561 1663.8574 3217.9359 1632.5831 Z" fill="none" stroke="#865327" opacity="0.45248868778280543" stroke-width="1" class="west_harlem"/>
<path d="M 3107.1136 1569.5614 3105.7274 1570.0223 3079.6137 1557.257 3256.2061 1241.7919 3343.1984 1289.6025 3184.4222 1614.4142 3107.1136 1569.5614 Z" fill="none" stroke="#865327" opacity="0.45248868778280543" stroke-width="1" class="west_harlem"/>
<path d="M 3196.6709 1618.7821 3214.2133 1579.1837 3215.1239 1550.6425 3259.4451 1472.3677 3362.0584 1526.6242 3279.8765 1656.4908 3196.6709 1618.7821 Z" fill="none" stroke="#865327" opacity="0.45248868778280543" stroke-width="1" class="west_harlem"/>
<path d="M 3315.1693 1153.4092 3375.7043 1191.564 3294.509 1377.5336 3222.6465 1339.8319 3315.1693 1153.4092 Z" fill="none" stroke="#865327" opacity="0.45248868778280543" stroke-width="1" class="west_harlem"/>
<path d="M 3182.698 1372.9873 3178.9957 1359.1818 3171.6119 1378.5151 3313.7844 1154.7904 3447.8073 1249.4958 3320.4602 1510.0784 3237.264 1468.6968 3182.698 1372.9873 Z" fill="none" stroke="#865327" opacity="0.45248868778280543" stroke-width="1" class="west_harlem"/>
<path d="M 3311.3181 1682.2547 3214.6996 1630.0526 3211.231 1624.5299 3200.2855 1439.947 3215.9482 1341.3309 3247.0235 1352.246 3433.6572 1164.261 3449.0038 1147.57 3474.0146 1391.4534 3311.3181 1682.2547 Z" fill="none" stroke="#865327" opacity="0.45248868778280543" stroke-width="1" class="west_harlem"/>
<path d="M 3469.9758 1242.1166 3245.6721 1647.3013 3056.1738 1596.7388 3308.2364 1146.0511 3469.9758 1242.1166 Z" fill="none" stroke="#865327" opacity="0.45248868778280543" stroke-width="1" class="west_harlem"/>
<path d="M 3253.0613 1637.1693 3333.388 1492.5791 3442.4614 1524.7287 3354.7672 1690.5157 3253.0613 1637.1693 Z" fill="none" stroke="#865327" opacity="0.45248868778280543" stroke-width="1" class="west_harlem"/>
<path d="M 3200.1377 1620.622 3214.9127 1592.3032 3213.9738 1561.4608 3260.1411 1477.8909 3351.1999 1527.7818 3275.9528 1665.2402 3200.1377 1620.622 Z" fill="none" stroke="#865327" opacity="0.45248868778280543" stroke-width="1" class="west_harlem"/>
<path d="M 3250.2918 1643.6159 3347.1289 1295.5827 3424.7718 1338.7918 3423.8555 1349.838 3256.6866 1499.0664 3193.8993 1621.5456 3250.2918 1643.6159 Z" fill="none" stroke="#865327" opacity="0.45248868778280543" stroke-width="1" class="west_harlem"/>
<path d="M 3215.3933 1630.8579 3103.7621 1566.3403 3281.2742 1254.6637 3389.8744 1314.1938 3215.3933 1630.8579 Z" fill="none" stroke="#865327" opacity="0.45248868778280543" stroke-width="1" class="west_harlem"/>
<path d="M 3225.1862 1337.0693 3360.1531 1436.4077 3278.9561 1663.8574 3088.5102 1559.901 3225.1862 1337.0693 Z" fill="none" stroke="#865327" opacity="0.45248868778280543" stroke-width="1" class="west_harlem"/>
<path d="M 3303.6197 1150.1949 3470.8997 1242.116 3473.7834 1391.2235 3382.4055 1549.6273 3250.2047 1474.2137 3189.1695 1380.3483 3303.6197 1150.1949 Z" fill="none" stroke="#865327" opacity="0.45248868778280543" stroke-width="1" class="west_harlem"/>
<path d="M 3190.0931 1379.4274 3266.7232 1256.0521 3421.0739 1336.0331 3313.0679 1511.9239 3190.0931 1379.4274 Z" fill="none" stroke="#865327" opacity="0.45248868778280543" stroke-width="1" class="west_harlem"/>
<path d="M 3244.6318 1418.9832 3268.6855 1470.5217 3398.7953 1183.2661 3266.8318 1460.3964 3183.6338 1399.6813 3320.2354 1128.0991 3404.3247 1163.0159 3405.2554 1173.1384 3244.6318 1418.9832 Z" fill="none" stroke="#865327" opacity="0.45248868778280543" stroke-width="1" class="west_harlem"/>
<path d="M 3216.0858 1629.3614 3080.1897 1552.5385 3342.2883 934.8536 3521.5272 1008.3346 3447.8353 1288.1519 3216.0858 1629.3614 Z" fill="none" stroke="#865327" opacity="0.45248868778280543" stroke-width="1" class="west_harlem"/>
<path d="M 3311.3175 1682.8689 3217.0057 1622.1489 3274.2321 1475.7357 3383.3256 1544.7168 3311.3175 1682.8689 Z" fill="none" stroke="#865327" opacity="0.45248868778280543" stroke-width="1" class="west_harlem"/>
<path d="M 3408.882 1207.8316 3358.4478 1296.312 3328.2003 1394.2672 3261.7307 1513.2412 3245.1378 1505.4015 3183.4807 1471.1847 3207.3935 1423.581 3189.7389 1413.5554 3181.5945 1385.2073 3302.7876 1148.9991 3408.882 1207.8316 Z" fill="none" stroke="#865327" opacity="0.45248868778280543" stroke-width="1" class="west_harlem"/>
<path d="M 3212.374 1626.8952 3131.0108 1577.596 3110.7507 1566.3898 3089.8191 1545.7279 3322.4215 1098.1723 3337.7918 1103.8006 3363.2215 1144.7357 3396.6649 1166.8179 3419.1543 1175.0827 3466.4977 1192.0689 3379.2445 1266.7316 3361.2983 1300.7394 3327.0676 1398.4865 3287.7708 1383.1488 3216.3384 1631.0032 3212.374 1626.8952 Z" fill="none" stroke="#865327" opacity="0.45248868778280543" stroke-width="1" class="west_harlem"/>
<path d="M 3248.4453 1647.7602 3157.1484 1595.7816 3159.8454 1414.4198 3231.6091 1245.946 3278.7327 1253.2845 3286.1251 1255.1212 3467.7531 1359.011 3248.4453 1647.7602 Z" fill="none" stroke="#865327" opacity="0.45248868778280543" stroke-width="1" class="west_harlem"/>
<path d="M 3331.5502 1510.0718 3253.9029 1477.4338 3220.6008 1408.8693 3259.3781 1344.4157 3302.7661 1273.5194 3342.495 1272.5756 3428.4575 1324.0621 3331.5502 1510.0718 Z" fill="none" stroke="#865327" opacity="0.45248868778280543" stroke-width="1" class="west_harlem"/>
<path d="M 3250.2913 1642.6952 3122.715 1582.9055 3344.7514 1185.6016 3466.7452 1246.2607 3250.2913 1642.6952 Z" fill="none" stroke="#865327" opacity="0.45248868778280543" stroke-width="1" class="west_harlem"/>
<path d="M 3469.0498 1239.3563 3285.3817 1582.8299 3189.2324 1520.2733 3352.6004 1179.6148 3469.0498 1239.3563 Z" fill="none" stroke="#865327" opacity="0.45248868778280543" stroke-width="1" class="west_harlem"/>
<path d="M 3201.2927 1619.7007 3097.7579 1575.5492 3308.2478 1165.837 3396.0342 1198.9132 3201.2927 1619.7007 Z" fill="none" stroke="#865327" opacity="0.45248868778280543" stroke-width="1" class="west_harlem"/>
<path d="M 3255.8318 1632.5642 3248.4436 1644.5376 3151.3737 1600.3875 3231.7115 1453.0499 3321.3843 1510.0778 3255.8318 1632.5642 Z" fill="none" stroke="#865327" opacity="0.45248868778280543" stroke-width="1" class="west_harlem"/>
<path d="M 3468.3043 1478.6793 3474.8009 1515.4987 3506.2736 1579.9202 3517.3857 1606.6117 3523.883 1640.6734 3515.6067 1694.0847 3456.4941 1756.746 3392.7739 1853.4853 3282.8468 2016.5741 3157.0683 1959.5277 3207.8788 1867.4045 3312.2419 1681.3334 3247.0581 1646.3798 3421.534 1333.2714 3462.59 1249.485 3471.8595 1289.9751 3467.2904 1358.0908 3474.7013 1382.9383 3475.6537 1420.6786 3475.6717 1444.6127 3468.3043 1478.6793 Z" fill="none" stroke="#865327" opacity="0.45248868778280543" stroke-width="1" class="west_harlem"/>
<path d="M 3310.3937 1682.2553 3074.6463 1558.0643 3299.0006 1150.1976 3474.5919 1237.5114 3477.4734 1382.9362 3310.3937 1682.2553 Z" fill="none" stroke="#865327" opacity="0.45248868778280543" stroke-width="1" class="west_harlem"/>
<path d="M 3321.6393 1158.9271 3401.35 1204.2014 3404.1207 1202.8191 3404.8072 1193.3854 3408.0314 1179.8087 3416.1068 1167.8394 3423.2611 1160.012 3426.9551 1158.1689 3415.6471 1171.0607 3407.5755 1188.5519 3406.6632 1205.5783 3467.4334 1239.8177 3469.5176 1247.179 3433.07 1313.4739 3461.9565 1330.0209 3307.3482 1610.2084 3277.3002 1593.1921 3203.3405 1551.1084 3152.96 1524.4317 3106.9734 1501.434 3155.4545 1410.7396 3185.9326 1374.1365 3243.1755 1280.4544 3303.1579 1150.4253 3313.0891 1150.6496 3321.6393 1158.9271 Z" fill="none" stroke="#865327" opacity="0.45248868778280543" stroke-width="1" class="west_harlem"/>
<path d="M 3189.2064 1462.5057 3174.39 1392.3213 3241.7926 1286.4377 3344.6133 1336.7734 3334.6975 1365.3138 3321.0919 1405.8238 3300.7886 1452.0926 3281.8579 1476.9587 3266.6238 1503.6642 3248.829 1494.6976 3189.2064 1462.5057 Z" fill="none" stroke="#865327" opacity="0.45248868778280543" stroke-width="1" class="west_harlem"/>
<path d="M 3214.1336 1411.634 3248.2952 1354.5465 3370.3058 1417.0699 3244.7455 1642.698 3195.7457 1616.9411 3247.4431 1495.3887 3214.1336 1411.634 Z" fill="none" stroke="#865327" opacity="0.45248868778280543" stroke-width="1" class="west_harlem"/>
<path d="M 3453.6537 1347.9758 3379.0777 1406.4783 3442.7542 1289.076 3473.7565 1355.3246 3462.2623 1431.2748 3381.3891 1408.3178 3453.6537 1347.9758 Z" fill="none" stroke="#865327" opacity="0.45248868778280543" stroke-width="1" class="west_harlem"/>
<path d="M 3200.3675 1617.8597 3314.8095 1328.7374 3392.4544 1372.8712 3252.1404 1643.615 3200.3675 1617.8597 Z" fill="none" stroke="#865327" opacity="0.45248868778280543" stroke-width="1" class="west_harlem"/>
<path d="M 3200.2619 1388.6277 3213.4605 1369.9863 3215.277 1303.713 3235.6015 1298.1806 3278.9847 1219.0059 3298.3842 1215.3138 3370.4748 1258.5269 3370.2434 1279.3986 3358.2518 1310.7001 3342.5661 1346.607 3332.423 1381.5913 3358.8299 1426.2918 3314.5234 1511.9323 3275.7027 1501.8274 3234.1048 1480.6752 3169.403 1453.0878 3200.2619 1388.6277 Z" fill="none" stroke="#865327" opacity="0.45248868778280543" stroke-width="1" class="west_harlem"/>
<path d="M 3465.3337 1211.7488 3446.8462 1197.9575 3438.5268 1191.5213 3426.5076 1178.6455 3423.7315 1172.2054 3465.3337 1211.7488 Z" fill="none" stroke="#865327" opacity="0.45248868778280543" stroke-width="1" class="west_harlem"/>
<path d="M 3286.3034 1578.226 3156.8818 1510.1604 3299.0662 1266.1585 3418.2994 1332.3532 3286.3034 1578.226 Z" fill="none" stroke="#865327" opacity="0.45248868778280543" stroke-width="1" class="west_harlem"/>
<path d="M 3252.0835 1533.362 3249.7829 1552.6968 3234.2943 1536.5932 3248.1565 1534.9751 3250.2358 1534.7439 3252.0835 1533.362 Z" fill="none" stroke="#865327" opacity="0.45248868778280543" stroke-width="1" class="west_harlem"/>
<path d="M 3197.5935 1615.0988 3217.5114 1587.7676 3213.7961 1549.101 3260.1133 1472.3729 3269.1435 1487.2936 3306.0863 1446.7678 3325.9319 1386.7204 3354.5217 1297.4189 3420.0672 1336.7075 3250.2936 1647.2989 3197.5935 1615.0988 Z" fill="none" stroke="#865327" opacity="0.45248868778280543" stroke-width="1" class="west_harlem"/>
<path d="M 3312.2383 1675.0721 3314.4541 1670.6511 3303.3676 1680.2335 3244.272 1802.5531 3023.8483 1682.5614 3306.7682 1163.261 3476.0768 1246.3457 3318.8891 1667.702 3391.9645 1470.2638 3312.2383 1675.0721 Z" fill="none" stroke="#865327" opacity="0.45248868778280543" stroke-width="1" class="west_harlem"/>
<path d="M 3341.4837 1628.5632 3129.4018 1511.3418 3322.0353 1102.8516 3459.9639 1165.9788 3341.4837 1628.5632 Z" fill="none" stroke="#865327" opacity="0.45248868778280543" stroke-width="1" class="west_harlem"/>
<path d="M 3276.087 1486.1677 3251.1274 1471.4515 3181.7743 1373.9082 3307.3139 1148.3523 3414.5191 1209.9445 3276.087 1486.1677 Z" fill="none" stroke="#865327" opacity="0.45248868778280543" stroke-width="1" class="west_harlem"/>
<path d="M 3222.4497 1410.3643 3236.0848 1420.4834 3247.1798 1432.2146 3247.9901 1435.5512 3237.5948 1437.2824 3233.787 1445.4542 3231.1315 1448.1021 3224.4325 1449.8315 3221.6619 1453.4 3214.8411 1441.8963 3205.4848 1442.5911 3204.6738 1437.2983 3206.9814 1431.6589 3210.5584 1423.3724 3220.95 1414.5074 3222.4497 1410.3643 Z" fill="none" stroke="#865327" opacity="0.45248868778280543" stroke-width="1" class="west_harlem"/>
<path d="M 3214.237 1628.9019 3103.3008 1568.6421 3074.6447 1553.461 3141.1434 1441.1231 3189.2065 1462.7359 3220.6343 1478.3711 3248.8286 1494.0071 3265.0065 1503.6651 3281.1841 1512.4022 3214.237 1628.9019 Z" fill="none" stroke="#865327" opacity="0.45248868778280543" stroke-width="1" class="west_harlem"/>
<path d="M 3321.1767 1157.777 3334.2301 1164.9014 3348.5548 1173.5203 3379.2845 1191.7918 3369.3643 1209.5143 3359.9057 1227.2368 3343.0635 1257.9642 3333.3723 1274.5369 3320.1038 1296.9796 3310.1829 1317.2346 3305.5676 1325.2911 3301.5286 1331.3913 3293.2211 1346.5834 3285.6061 1361.2001 3281.5734 1379.3818 3276.8363 1376.738 3274.0632 1374.8985 3270.0179 1369.9531 3261.1194 1361.2132 3246.099 1351.441 3231.5416 1342.9341 3216.2885 1328.3294 3221.9425 1317.1664 3227.1358 1308.765 3237.0597 1291.0421 3251.6012 1270.0957 3270.2969 1243.8553 3280.4518 1229.1242 3290.8324 1205.3048 3296.4825 1190.0014 3302.929 1154.1065 3313.0912 1154.3307 3321.1767 1157.777 Z" fill="none" stroke="#865327" opacity="0.45248868778280543" stroke-width="1" class="west_harlem"/>
<path d="M 3452.037 1348.4372 3278.2628 1663.6276 3085.9679 1557.8303 3246.388 1238.5758 3452.037 1348.4372 Z" fill="none" stroke="#865327" opacity="0.45248868778280543" stroke-width="1" class="west_harlem"/>
<path d="M 3290.8785 1495.3656 3252.0525 1473.2922 3187.3218 1381.2696 3315.6342 1158.4705 3396.0354 1200.7538 3290.8785 1495.3656 Z" fill="none" stroke="#865327" opacity="0.45248868778280543" stroke-width="1" class="west_harlem"/>
<path d="M 3312.2429 1683.175 3200.3692 1621.5426 3345.3075 1338.844 3463.6263 1401.3566 3312.2429 1683.175 Z" fill="none" stroke="#865327" opacity="0.45248868778280543" stroke-width="1" class="west_harlem"/>
<path d="M 3176.5407 1556.6444 3153.8648 1477.4803 3282.429 1254.4329 3392.184 1313.7321 3214.4679 1628.6716 3176.5407 1556.6444 Z" fill="none" stroke="#865327" opacity="0.45248868778280543" stroke-width="1" class="west_harlem"/>
<path d="M 3344.5604 1626.9895 3133.7804 1517.5347 3223.3384 1337.5305 3435.4803 1454.7682 3344.5604 1626.9895 Z" fill="none" stroke="#865327" opacity="0.45248868778280543" stroke-width="1" class="west_harlem"/>
<path d="M 3203.1442 1626.1449 3214.2045 1560.7702 3243.7591 1520.2472 3315.8662 1556.113 3259.5372 1648.2149 3203.1442 1626.1449 Z" fill="none" stroke="#865327" opacity="0.45248868778280543" stroke-width="1" class="west_harlem"/>
<path d="M 3226.254 1631.6583 3444.0978 1230.171 3422.2844 1747.5619 3226.254 1631.6583 Z" fill="none" stroke="#865327" opacity="0.45248868778280543" stroke-width="1" class="west_harlem"/>
<path d="M 3344.3818 1336.0833 3354.5487 1340.6792 3379.4753 1307.5276 3451.574 1347.0568 3293.7298 1636.2267 3213.2961 1593.9152 3212.3552 1558.9297 3267.755 1458.5547 3270.5096 1425.4134 3289.9221 1437.3699 3306.5416 1412.506 3344.3818 1336.0833 Z" fill="none" stroke="#865327" opacity="0.45248868778280543" stroke-width="1" class="west_harlem"/>
<path d="M 3217.0094 1627.9799 3077.4168 1551.6187 3313.3211 1152.49 3459.7386 1141.3504 3509.0514 1586.3629 3462.9643 1755.8204 3217.0094 1627.9799 Z" fill="none" stroke="#865327" opacity="0.45248868778280543" stroke-width="1" class="west_harlem"/>
<path d="M 3199.4456 1622.9241 3341.3904 1354.9545 3397.3097 1379.0812 3277.0708 1596.1845 3275.2575 1661.3273 3263.6988 1652.3561 3199.4456 1622.9241 Z" fill="none" stroke="#865327" opacity="0.45248868778280543" stroke-width="1" class="west_harlem"/>
<path d="M 3202.0127 1617.6932 3249.189 1493.8965 3165.9963 1449.9502 3196.7727 1396.7482 3174.1815 1380.4009 3274.7201 1231.0324 3430.8236 1325.0269 3249.2677 1647.3455 3202.0127 1617.6932 Z" fill="none" stroke="#865327" opacity="0.45248868778280543" stroke-width="1" class="west_harlem"/>
<path d="M 3392.5664 1541.3347 3294.5761 1497.2047 3380.4065 1318.5721 3468.2172 1361.772 3392.5664 1541.3347 Z" fill="none" stroke="#865327" opacity="0.45248868778280543" stroke-width="1" class="west_harlem"/>
<path d="M 3312.3904 1682.4889 3313.5475 1685.3519 3199.2379 1623.4674 3216.0277 1595.0003 3216.0117 1561.5243 3234.3263 1521.9643 3363.965 1593.0352 3312.3904 1682.4889 Z" fill="none" stroke="#865327" opacity="0.45248868778280543" stroke-width="1" class="west_harlem"/>
<path d="M 3253.9017 1475.1324 3191.0184 1382.1885 3220.5666 1337.992 3344.4248 1406.0399 3289.9543 1495.3661 3253.9017 1475.1324 Z" fill="none" stroke="#865327" opacity="0.45248868778280543" stroke-width="1" class="west_harlem"/>
<path d="M 3183.7283 1612.8033 3271.4517 1459.0131 3362.0485 1510.9736 3277.5687 1662.0166 3183.7283 1612.8033 Z" fill="none" stroke="#865327" opacity="0.45248868778280543" stroke-width="1" class="west_harlem"/>
<path d="M 3217.0111 1631.6628 3195.7487 1623.3862 3345.2764 1288.2206 3462.6492 1329.5601 3279.8795 1662.0154 3217.0111 1631.6628 Z" fill="none" stroke="#865327" opacity="0.45248868778280543" stroke-width="1" class="west_harlem"/>
<path d="M 3215.1612 1628.9015 3228.9396 1453.9718 3171.6313 1423.6201 3242.7142 1281.8353 3347.1516 1332.3998 3215.1612 1628.9015 Z" fill="none" stroke="#865327" opacity="0.45248868778280543" stroke-width="1" class="west_harlem"/>
<path d="M 3294.4403 1255.1166 3309.2242 1256.9489 3326.7869 1270.7443 3342.4989 1279.0183 3357.289 1290.0539 3377.625 1303.8471 3396.1074 1308.437 3407.2032 1320.3951 3430.3126 1334.1857 3458.0393 1343.3703 3205.9171 1626.1437 3131.9575 1582.902 3294.4403 1255.1166 Z" fill="none" stroke="#865327" opacity="0.45248868778280543" stroke-width="1" class="west_harlem"/>
<path d="M 3316.7705 1522.0486 3255.8309 1630.7227 3076.9544 1550.6982 3307.3292 1175.0404 3316.5591 1160.3105 3323.0253 1159.3864 3353.5386 1202.6219 3318.4043 1156.1681 3463.5037 1235.679 3316.7705 1522.0486 Z" fill="none" stroke="#865327" opacity="0.45248868778280543" stroke-width="1" class="west_harlem"/>
<path d="M 3245.6716 1646.3805 3085.7338 1548.854 3267.6383 1239.485 3425.6907 1331.4276 3245.6716 1646.3805 Z" fill="none" stroke="#865327" opacity="0.45248868778280543" stroke-width="1" class="west_harlem"/>
<path d="M 3214.237 1628.9019 3217.9346 1629.8209 3105.1494 1569.1018 3218.7177 1336.152 3307.4493 1383.9697 3277.9188 1455.7876 3286.2394 1462.227 3274.2362 1481.5657 3322.3134 1518.3629 3246.5969 1648.2216 3214.237 1628.9019 Z" fill="none" stroke="#865327" opacity="0.45248868778280543" stroke-width="1" class="west_harlem"/>
<path d="M 3276.1832 1663.8589 3200.3697 1622.4633 3216.0688 1593.9139 3210.5055 1556.1686 3258.5234 1476.9711 3353.7418 1528.4707 3276.1832 1663.8589 Z" fill="none" stroke="#865327" opacity="0.45248868778280543" stroke-width="1" class="west_harlem"/>
<path d="M 3205.9154 1622.4607 3241.8926 1484.3444 3327.7218 1289.1516 3394.2687 1322.2447 3252.138 1639.0112 3205.9154 1622.4607 Z" fill="none" stroke="#865327" opacity="0.45248868778280543" stroke-width="1" class="west_harlem"/>
<path d="M 3217.0103 1629.8213 3200.3692 1621.5426 3216.0671 1590.2311 3214.6656 1558.4683 3249.9845 1495.3874 3256.9091 1482.7257 3236.7924 1449.5952 3190.5563 1381.9586 3276.4221 1251.9052 3420.6093 1332.3516 3248.9062 1645.4581 3217.0103 1629.8213 Z" fill="none" stroke="#865327" opacity="0.45248868778280543" stroke-width="1" class="west_harlem"/>
<path d="M 3135.8584 1513.8514 3222.3994 1306.6963 3275.4776 1213.7112 3301.3473 1215.5376 3326.9886 1221.5048 3356.101 1237.363 3384.0589 1252.3009 3400.9279 1263.3342 3419.414 1274.136 3441.365 1284.475 3471.1744 1300.5603 3465.4246 1334.1603 3446.9637 1360.637 3382.1223 1469.7639 3354.4322 1524.0973 3335.737 1556.3314 3309.6567 1606.294 3302.7248 1606.5282 3278.9186 1594.8025 3259.2724 1583.7646 3242.8633 1576.4076 3219.0568 1560.998 3195.7146 1548.5801 3179.9993 1540.0711 3161.51 1527.6504 3146.9515 1521.212 3135.8584 1513.8514 Z" fill="none" stroke="#865327" opacity="0.45248868778280543" stroke-width="1" class="west_harlem"/>
<path d="M 3246.5955 1645.4593 3086.1957 1548.3935 3190.0921 1377.1262 3252.9769 1473.752 3321.8486 1513.76 3250.753 1641.7742 3246.5955 1645.4593 Z" fill="none" stroke="#865327" opacity="0.45248868778280543" stroke-width="1" class="west_harlem"/>
<path d="M 3254.04 1296.0957 3252.6535 1294.9459 3368.6522 1360 3289.9547 1496.0565 3164.4712 1427.3053 3254.04 1296.0957 Z" fill="none" stroke="#865327" opacity="0.45248868778280543" stroke-width="1" class="west_harlem"/>
<path d="M 3190.508 1461.1034 3234.9925 1377.8162 3265.6625 1394.1183 3330.7856 1425.8813 3273.2935 1525.086 3190.508 1461.1034 Z" fill="none" stroke="#865327" opacity="0.45248868778280543" stroke-width="1" class="west_harlem"/>
<path d="M 3319.3835 1250.5004 3379.4501 1268.8707 3409.0311 1290.9404 3437.6974 1324.0556 3458.0759 1393.0761 3473.8242 1445.5346 3430.4333 1505.4042 3409.202 1541.3235 3351.9095 1554.25 3310.3172 1549.6717 3288.1325 1543.2396 3250.226 1515.6408 3210.4694 1479.7568 3244.6094 1374.7989 3259.3554 1301.1552 3319.3835 1250.5004 Z" fill="none" stroke="#865327" opacity="0.45248868778280543" stroke-width="1" class="west_harlem"/>
<path d="M 3260.3721 1477.8908 3189.172 1385.8713 3314.705 1149.2683 3396.0366 1202.5944 3273.315 1487.0898 3260.3721 1477.8908 Z" fill="none" stroke="#865327" opacity="0.45248868778280543" stroke-width="1" class="west_harlem"/>
<path d="M 3250.2033 1471.452 3188.2459 1381.2692 3311.0108 1151.111 3473.6694 1239.3528 3387.9429 1537.6552 3250.2033 1471.452 Z" fill="none" stroke="#865327" opacity="0.45248868778280543" stroke-width="1" class="west_harlem"/>
<path d="M 3318.4019 1152.0269 3446.8595 1216.364 3293.6504 1494.4434 3277.0111 1486.1672 3195.6345 1372.9815 3200.2547 1372.9794 3318.4019 1152.0269 Z" fill="none" stroke="#865327" opacity="0.45248868778280543" stroke-width="1" class="west_harlem"/>
<path d="M 3112.5324 1539.638 3196.5669 1391.3909 3233.4921 1316.8156 3302.7315 1212.7758 3413.6363 1269.7682 3228.0819 1589.3046 3112.5324 1539.638 Z" fill="none" stroke="#865327" opacity="0.45248868778280543" stroke-width="1" class="west_harlem"/>
<path d="M 3217.0089 1627.0591 3099.6041 1569.1038 3195.6349 1373.902 3226.1088 1334.3075 3261.1937 1282.7461 3288.8963 1254.1993 3392.4146 1313.0416 3217.0089 1627.0591 Z" fill="none" stroke="#865327" opacity="0.45248868778280543" stroke-width="1" class="west_harlem"/>
<path d="M 3319.536 1510.0789 3245.6712 1645.4598 3197.5951 1618.7817 3217.9138 1586.5474 3213.2821 1564.4533 3259.4475 1476.9707 3319.536 1510.0789 Z" fill="none" stroke="#865327" opacity="0.45248868778280543" stroke-width="1" class="west_harlem"/>
<path d="M 3235.868 1448.9053 3213.6733 1415.3163 3185.4708 1374.5969 3266.2572 1248.4593 3344.1222 1289.3718 3318.9705 1333.7974 3326.134 1338.1653 3330.5319 1352.89 3320.3784 1371.0754 3306.0635 1384.4308 3303.0695 1400.5413 3307.9272 1411.5847 3301.2359 1426.0869 3280.4643 1463.3809 3269.3725 1459.2443 3260.3719 1477.4305 3217.8985 1554.554 3214.4359 1561.4606 3215.3754 1593.4539 3200.1386 1622.4634 3154.8379 1596.0127 3235.868 1448.9053 Z" fill="none" stroke="#865327" opacity="0.45248868778280543" stroke-width="1" class="west_harlem"/>
<path d="M 3222.5524 1622.4528 3217.8608 1476.0709 3264.9655 1426.3369 3415.6346 1487.923 3312.2365 1672.1256 3222.5524 1622.4528 Z" fill="none" stroke="#865327" opacity="0.45248868778280543" stroke-width="1" class="west_harlem"/>
<path d="M 3293.6489 1491.6816 3252.0511 1470.5304 3178.0745 1365.6255 3263.9475 1248.6906 3390.5672 1313.9633 3293.6489 1491.6816 Z" fill="none" stroke="#865327" opacity="0.45248868778280543" stroke-width="1" class="west_harlem"/>
<path d="M 3301.0432 1493.5186 3326.2735 1184.2323 3459.8291 1264.213 3301.0432 1493.5186 Z" fill="none" stroke="#865327" opacity="0.45248868778280543" stroke-width="1" class="west_harlem"/>
<path d="M 3278.8594 1486.1662 3217.0111 1631.6628 3103.7639 1571.404 3084.3502 1557.1404 3265.7954 1248.6896 3281.5054 1255.1237 3293.0573 1260.1794 3293.5226 1266.1616 3305.5358 1269.8363 3358.2199 1301.0982 3278.8594 1486.1662 Z" fill="none" stroke="#865327" opacity="0.45248868778280543" stroke-width="1" class="west_harlem"/>
<path d="M 3287.191 1511.9386 3452.39 1198.8738 3383.328 1546.8647 3282.5697 1511.0205 3303.7852 1440.1237 3449.6151 1194.2742 3287.191 1511.9386 Z" fill="none" stroke="#865327" opacity="0.45248868778280543" stroke-width="1" class="west_harlem"/>
<path d="M 3323.9876 1224.2676 3346.861 1235.7581 3351.2514 1238.7465 3347.0978 1245.1916 3318.6788 1230.4831 3323.9876 1224.2676 Z" fill="none" stroke="#865327" opacity="0.45248868778280543" stroke-width="1" class="west_harlem"/>
<path d="M 3217.9328 1626.138 3203.1442 1626.1449 3216.9909 1589.31 3218.827 1563.53 3252.0682 1503.6718 3242.8032 1457.6471 3285.2716 1383.0617 3335.1819 1402.3635 3372.1599 1426.2741 3253.9904 1646.3763 3217.9328 1626.138 Z" fill="none" stroke="#865327" opacity="0.45248868778280543" stroke-width="1" class="west_harlem"/>
<path d="M 3200.2674 1400.5943 3312.5043 1139.5074 3412.3248 1211.227 3258.7562 1462.7683 3200.2674 1400.5943 Z" fill="none" stroke="#865327" opacity="0.45248868778280543" stroke-width="1" class="west_harlem"/>
<path d="M 3198.5207 1621.5434 3219.7601 1581.9431 3212.3578 1564.4538 3260.3716 1476.9702 3324.1585 1512.838 3245.6702 1643.6183 3198.5207 1621.5434 Z" fill="none" stroke="#865327" opacity="0.45248868778280543" stroke-width="1" class="west_harlem"/>
<path d="M 3177.1899 1455.8369 3254.7499 1328.7705 3384.1477 1387.6045 3310.3039 1526.6555 3177.1899 1455.8369 Z" fill="none" stroke="#865327" opacity="0.45248868778280543" stroke-width="1" class="west_harlem"/>
<path d="M 3314.0132 1151.1092 3471.1304 1241.6556 3315.4768 1680.8711 3103.7629 1568.642 3314.0132 1151.1092 Z" fill="none" stroke="#865327" opacity="0.45248868778280543" stroke-width="1" class="west_harlem"/>
<path d="M 3135.6378 1540.5499 3233.499 1330.6221 3390.563 1307.5203 3461.7823 1406.8811 3411.9809 1550.5281 3337.1817 1652.7748 3130.0919 1538.7107 3124.546 1536.8716 3140.2614 1546.9926 3123.6284 1554.3643 3135.6378 1540.5499 Z" fill="none" stroke="#865327" opacity="0.45248868778280543" stroke-width="1" class="west_harlem"/>
<path d="M 3315.6315 1153.8691 3408.9746 1208.1076 3359.1409 1296.4956 3345.7676 1335.6222 3313.0192 1428.1513 3276.087 1486.1677 3260.3714 1476.5099 3251.1276 1471.9118 3201.1898 1396.9118 3179.0066 1384.0348 3300.8467 1147.4357 3315.6315 1153.8691 Z" fill="none" stroke="#865327" opacity="0.45248868778280543" stroke-width="1" class="west_harlem"/>
<path d="M 3267.6456 1253.2905 3293.4876 1203.5777 3311.0134 1155.7123 3344.2773 1165.8155 3377.5509 1189.7222 3420.9888 1213.6213 3451.4863 1226.4843 3469.9799 1247.6388 3446.9213 1301.9587 3432.1476 1315.7756 3403.5328 1358.1361 3387.8439 1387.6021 3354.62 1454.8222 3301.9909 1534.946 3275.2131 1579.1527 3268.7518 1594.8079 3247.5156 1637.1721 3093.1306 1558.058 3126.3641 1457.6989 3182.7024 1383.1127 3222.4124 1333.3889 3267.6456 1253.2905 Z" fill="none" stroke="#865327" opacity="0.45248868778280543" stroke-width="1" class="west_harlem"/>
<path d="M 3199.4441 1619.7016 3214.7986 1595.1804 3216.0517 1558.0073 3259.4473 1476.5104 3268.6783 1457.1734 3268.6604 1423.5733 3341.2268 1465.417 3274.2968 1593.8843 3247.5203 1646.3796 3199.4441 1619.7016 Z" fill="none" stroke="#865327" opacity="0.45248868778280543" stroke-width="1" class="west_harlem"/>
<path d="M 3198.9824 1620.6225 3258.9854 1476.9709 3387.9496 1547.7823 3387.4887 1549.6239 3381.9486 1557.4532 3366.6934 1548.7167 3346.3829 1584.6357 3361.1763 1593.3731 3312.7041 1681.3331 3198.9824 1620.6225 Z" fill="none" stroke="#865327" opacity="0.45248868778280543" stroke-width="1" class="west_harlem"/>
<path d="M 3397.0795 1380.232 3329.7041 1513.7554 3233.5625 1458.5723 3306.4989 1337.9466 3397.0795 1380.232 Z" fill="none" stroke="#865327" opacity="0.45248868778280543" stroke-width="1" class="west_harlem"/>
<path d="M 3277.3463 1252.3649 3280.3494 1253.0535 3286.1249 1254.8911 3290.2842 1257.7649 3303.567 1260.1734 3303.3384 1264.4303 3305.9965 1267.5351 3311.0799 1270.5234 3318.4736 1274.3157 3325.0593 1278.7987 3338.1138 1285.0035 3353.5958 1294.3131 3365.7269 1300.7483 3371.8501 1303.8508 3380.2856 1310.2883 3386.7551 1312.9303 3391.9548 1316.3785 3384.6868 1329.1543 3382.4954 1333.758 3374.9949 1344.5782 3369.457 1354.2466 3363.3433 1366.6768 3354.4583 1380.8349 3349.9592 1389.9276 3340.9616 1409.3789 3330.2306 1428.4864 3320.7674 1443.3358 3306.8043 1467.6238 3301.9579 1476.9474 3291.4566 1496.2858 3273.5448 1484.7882 3247.3108 1462.5929 3237.9478 1450.0549 3233.0921 1441.8874 3223.96 1428.3139 3216.099 1415.2001 3210.434 1404.6168 3204.4234 1395.6446 3195.9871 1386.3284 3188.2434 1375.6312 3186.5084 1370.2242 3195.3979 1360.7853 3203.7077 1346.8594 3210.5168 1335.3505 3217.7894 1327.1781 3224.0203 1314.7493 3233.7153 1301.0532 3244.216 1282.5248 3254.6038 1269.749 3270.0711 1253.6343 3275.7299 1253.1711 3277.3463 1252.3649 Z" fill="none" stroke="#865327" opacity="0.45248868778280543" stroke-width="1" class="west_harlem"/>
<path d="M 3333.2561 1273.5016 3418.2981 1330.5123 3300.1655 1575.4562 3198.4691 1509.2216 3333.2561 1273.5016 Z" fill="none" stroke="#865327" opacity="0.45248868778280543" stroke-width="1" class="west_harlem"/>
<path d="M 3338.5514 1625.1517 3131.9296 1511.3212 3314.9371 1151.3387 3468.3586 1241.6577 3474.2406 1384.7796 3338.5514 1625.1517 Z" fill="none" stroke="#865327" opacity="0.45248868778280543" stroke-width="1" class="west_harlem"/>
<path d="M 3246.5945 1643.6178 3206.8431 1629.8262 3175.4029 1596.6945 3118.0849 1558.9697 3133.7725 1497.2812 3227.0319 1332.4662 3357.3802 1435.4889 3257.6785 1628.8803 3246.5945 1643.6178 Z" fill="none" stroke="#865327" opacity="0.45248868778280543" stroke-width="1" class="west_harlem"/>
<path d="M 3242.9011 1650.9857 3199.4458 1623.3845 3216.5296 1591.1516 3213.7433 1562.6118 3248.8293 1495.388 3218.3249 1480.2133 3330.4887 1280.8664 3423.8427 1331.4289 3242.9011 1650.9857 Z" fill="none" stroke="#865327" opacity="0.45248868778280543" stroke-width="1" class="west_harlem"/>
<path d="M 3372.9417 1205.3705 3314.7079 1154.3298 3387.7182 1197.078 3437.6275 1226.0341 3288.1045 1492.6053 3250.2023 1469.6108 3190.5527 1373.9043 3305.9398 1168.5992 3372.9417 1205.3705 Z" fill="none" stroke="#865327" opacity="0.45248868778280543" stroke-width="1" class="west_harlem"/>
<path d="M 3311.2286 1527.5756 3174.3976 1409.811 3307.3208 1160.3158 3401.5811 1204.4313 3311.2286 1527.5756 Z" fill="none" stroke="#865327" opacity="0.45248868778280543" stroke-width="1" class="west_harlem"/>
<path d="M 3225.3298 1631.6588 3302.8768 1467.7411 3413.5965 1211.7858 3468.1225 1234.7552 3464.6009 1469.4762 3321.4847 1680.4072 3225.3298 1631.6588 Z" fill="none" stroke="#865327" opacity="0.45248868778280543" stroke-width="1" class="west_harlem"/>
<path d="M 3237.2548 1450.2854 3326.3329 1284.0902 3379.9394 1310.7488 3271.0089 1494.9161 3275.2208 1593.4234 3249.3682 1644.9975 3215.1617 1629.8222 3201.7552 1620.6212 3216.9779 1562.1499 3258.5255 1481.1138 3237.2548 1450.2854 Z" fill="none" stroke="#865327" opacity="0.45248868778280543" stroke-width="1" class="west_harlem"/>
<path d="M 3214.2374 1629.8227 3217.935 1630.7416 3197.596 1620.6231 3215.1437 1592.0729 3211.4284 1553.4062 3252.9766 1473.2917 3384.2534 1548.7054 3314.0916 1683.1739 3214.2374 1629.8227 Z" fill="none" stroke="#865327" opacity="0.45248868778280543" stroke-width="1" class="west_harlem"/>
<path d="M 3199.9078 1623.1541 3323.8586 1396.6171 3400.3533 1439.1431 3277.5703 1665.0091 3199.9078 1623.1541 Z" fill="none" stroke="#865327" opacity="0.45248868778280543" stroke-width="1" class="west_harlem"/>
<path d="M 3251.1269 1470.5309 3325.0832 1513.7581 3245.6712 1645.4598 3247.517 1639.9344 3194.8231 1620.6244 3251.1269 1470.5309 Z" fill="none" stroke="#865327" opacity="0.45248868778280543" stroke-width="1" class="west_harlem"/>
<path d="M 3320.4737 1533.0941 3248.4455 1648.2206 3195.7466 1618.7825 3272.3721 1452.1083 3336.982 1323.2016 3367.5389 1425.3565 3283.5378 1591.1171 3320.4737 1533.0941 Z" fill="none" stroke="#865327" opacity="0.45248868778280543" stroke-width="1" class="west_harlem"/>
<path d="M 3216.9772 1560.7689 3218.381 1597.1352 3201.7535 1616.9383 3189.735 1610.4988 3222.9447 1478.3699 3269.162 1497.6789 3259.0037 1511.9538 3253.4692 1532.2105 3242.3868 1547.8671 3233.618 1570.4278 3216.9772 1560.7689 Z" fill="none" stroke="#865327" opacity="0.45248868778280543" stroke-width="1" class="west_harlem"/>
<path d="M 3261.7581 1477.4297 3250.6784 1496.768 3217.3996 1477.9123 3226.6318 1459.036 3197.0532 1444.3211 3209.9811 1424.0631 3188.7217 1412.106 3251.0331 1288.2738 3254.2669 1288.2721 3310.1826 1316.7744 3369.3387 1349.8744 3292.2657 1497.206 3261.7581 1477.4297 Z" fill="none" stroke="#865327" opacity="0.45248868778280543" stroke-width="1" class="west_harlem"/>
<path d="M 3217.0098 1628.9006 3265.0001 1491.6972 3148.5325 1431.9146 3288.8641 1196.2178 3399.7426 1218.2375 3274.3385 1671.2261 3217.0098 1628.9006 Z" fill="none" stroke="#865327" opacity="0.45248868778280543" stroke-width="1" class="west_harlem"/>
<path d="M 3347.3787 1700.649 3112.5433 1569.0991 3120.8631 1573.6994 3348.8999 1171.3344 3588.2683 1278.8359 3347.3787 1700.649 Z" fill="none" stroke="#865327" opacity="0.45248868778280543" stroke-width="1" class="west_harlem"/>
<path d="M 3244.7459 1643.6188 3202.2152 1616.0174 3208.6847 1615.0937 3309.3595 1491.6727 3289.953 1493.0646 3390.1043 1312.5829 3440.8572 1220.5098 3470.9011 1243.9567 3244.7459 1643.6188 Z" fill="none" stroke="#865327" opacity="0.45248868778280543" stroke-width="1" class="west_harlem"/>
<path d="M 3111.6197 1570.9408 3283.3548 1257.8838 3420.1403 1322.2271 3344.4095 1381.1863 3353.65 1381.1806 3419.2208 1328.6708 3249.3632 1635.3297 3246.5927 1639.9348 3111.6197 1570.9408 Z" fill="none" stroke="#865327" opacity="0.45248868778280543" stroke-width="1" class="west_harlem"/>
<path d="M 3358.217 1296.4962 3248.3658 1492.6265 3182.733 1452.1522 3220.5937 1394.1412 3298.1381 1258.796 3358.217 1296.4962 Z" fill="none" stroke="#865327" opacity="0.45248868778280543" stroke-width="1" class="west_harlem"/>
<path d="M 3214.4359 1561.4606 3249.754 1496.3082 3219.0171 1478.3718 3189.6686 1462.7357 3213.9053 1417.3874 3182.2348 1370.4562 3196.5482 1350.4295 3209.2451 1332.7048 3305.6012 1383.9708 3325.0121 1393.8549 3345.3063 1336.773 3359.3726 1297.646 3380.1693 1309.1379 3420.6085 1331.201 3247.2893 1646.6099 3199.9074 1622.2334 3215.6067 1593.9141 3214.4359 1561.4606 Z" fill="none" stroke="#865327" opacity="0.45248868778280543" stroke-width="1" class="west_harlem"/>
<path d="M 3223.3583 1378.4914 3423.0201 1476.8708 3289.1656 1739.3576 3096.8644 1663.0182 3208.6648 1572.7416 3181.8999 1658.3806 3245.6046 1514.7225 3146.7033 1478.8641 3118.0766 1536.874 3137.5011 1578.2964 3210.4933 1530.3905 3223.3583 1378.4914 Z" fill="none" stroke="#865327" opacity="0.45248868778280543" stroke-width="1" class="west_harlem"/>
<path d="M 3303.9176 1672.1304 3305.1397 1384.8916 3307.9105 1382.5887 3303.9176 1672.1304 Z" fill="none" stroke="#865327" opacity="0.45248868778280543" stroke-width="1" class="west_harlem"/>
<path d="M 3252.0513 1470.9907 3263.6071 1478.8096 3274.7018 1488.0096 3285.7796 1466.3698 3300.0937 1448.8711 3308.4028 1435.058 3193.7916 1384.4885 3185.0095 1376.208 3191.4742 1368.381 3203.9348 1338.4601 3275.497 1249.6048 3382.7134 1313.9684 3342.0932 1371.0624 3326.8669 1405.13 3310.7103 1430.454 3308.8688 1441.9619 3201.1919 1401.5144 3205.8165 1410.7174 3218.7617 1427.7411 3203.0449 1412.0995 3232.6304 1442.463 3242.3424 1460.1789 3242.1114 1460.179 3252.0513 1470.9907 Z" fill="none" stroke="#865327" opacity="0.45248868778280543" stroke-width="1" class="west_harlem"/>
<path d="M 3239.9034 1663.6476 3143.0602 1612.3601 3255.7177 1412.9941 3346.5394 1463.5726 3239.9034 1663.6476 Z" fill="none" stroke="#865327" opacity="0.45248868778280543" stroke-width="1" class="west_harlem"/>
<path d="M 3188.248 1385.8717 3239.4624 1245.9421 3382.7104 1309.3663 3276.5493 1486.6277 3188.248 1385.8717 Z" fill="none" stroke="#865327" opacity="0.45248868778280543" stroke-width="1" class="west_harlem"/>
<path d="M 3198.5211 1622.4642 3195.7499 1626.1484 3251.1322 1480.6573 3350.9664 1523.8693 3277.1075 1663.8584 3198.5211 1622.4642 Z" fill="none" stroke="#865327" opacity="0.45248868778280543" stroke-width="1" class="west_harlem"/>
<path d="M 3218.5104 1626.0226 3231.2082 1603.4588 3215.4912 1594.0292 3215.7056 1559.0432 3258.0644 1482.9552 3237.6001 1447.7537 3185.586 1374.0216 3222.981 1315.21 3308.2372 1147.4315 3468.1335 1249.4809 3253.9861 1638.0896 3218.5104 1626.0226 Z" fill="none" stroke="#865327" opacity="0.45248868778280543" stroke-width="1" class="west_harlem"/>
<path d="M 3204.9906 1621.5405 3266.8269 1451.1907 3271.4258 1410.6845 3317.5847 1334.2584 3304.6435 1325.0615 3326.7918 1279.0278 3419.2208 1328.6708 3247.5198 1645.4588 3204.9906 1621.5405 Z" fill="none" stroke="#865327" opacity="0.45248868778280543" stroke-width="1" class="west_harlem"/>
<path d="M 3321.6393 1158.9271 3468.1265 1240.0472 3475.3964 1385.6993 3312.012 1683.4053 3214.9312 1630.9732 3271.7206 1529.6691 3269.3918 1495.3773 3276.5491 1486.1674 3252.5153 1474.6728 3214.8285 1415.5459 3177.6209 1384.7258 3311.7052 1153.8714 3321.6393 1158.9271 Z" fill="none" stroke="#865327" opacity="0.45248868778280543" stroke-width="1" class="west_harlem"/>
<path d="M 3217.9173 1593.913 3221.1451 1579.1804 3222.0584 1556.6234 3254.8268 1476.9731 3281.167 1481.1017 3315.7886 1423.0868 3387.4338 1466.3083 3376.8194 1486.5681 3348.201 1535.379 3275.7185 1659.2553 3200.369 1621.0822 3217.9173 1593.913 Z" fill="none" stroke="#865327" opacity="0.45248868778280543" stroke-width="1" class="west_harlem"/>
<path d="M 3301.0667 1534.9466 3185.0526 1473.0942 3213.673 1414.6259 3279.9132 1300.2238 3360.6635 1146.9397 3486.8116 1208.7415 3457.5159 1259.6128 3301.0667 1534.9466 Z" fill="none" stroke="#865327" opacity="0.45248868778280543" stroke-width="1" class="west_harlem"/>
<path d="M 3309.1621 1149.2715 3391.4161 1200.7569 3357.293 1296.4968 3309.3197 1422.6302 3280.7097 1489.8476 3317.6844 1504.5563 3248.4441 1645.4584 3214.2405 1636.2678 3102.3748 1563.5788 3212.2366 1308.5421 3199.2929 1291.0602 3234.3795 1243.1836 3247.3171 1248.6992 3309.1621 1149.2715 Z" fill="none" stroke="#865327" opacity="0.45248868778280543" stroke-width="1" class="west_harlem"/>
<path d="M 3204.0655 1619.6994 3253.9503 1569.0365 3297.4109 1607.6821 3282.6514 1660.1723 3204.0655 1619.6994 Z" fill="none" stroke="#865327" opacity="0.45248868778280543" stroke-width="1" class="west_harlem"/>
<path d="M 3056.1434 1498.2289 3300.848 1149.7364 3396.0373 1203.5147 3241.0162 1579.1706 3056.1434 1498.2289 Z" fill="none" stroke="#865327" opacity="0.45248868778280543" stroke-width="1" class="west_harlem"/>
<path d="M 3205.9128 1616.9364 3269.6135 1477.8859 3332.4755 1511.9125 3260.4567 1639.0069 3261.3824 1641.7687 3205.9128 1616.9364 Z" fill="none" stroke="#865327" opacity="0.45248868778280543" stroke-width="1" class="west_harlem"/>
<path d="M 3290.8785 1495.3656 3178.0842 1387.7172 3277.8088 1253.285 3392.417 1316.7233 3290.8785 1495.3656 Z" fill="none" stroke="#865327" opacity="0.45248868778280543" stroke-width="1" class="west_harlem"/>
<path d="M 3258.5248 1479.7329 3187.7826 1378.508 3310.084 1146.05 3397.4212 1200.7529 3258.5248 1479.7329 Z" fill="none" stroke="#865327" opacity="0.45248868778280543" stroke-width="1" class="west_harlem"/>
<path d="M 3358.1879 1250.2467 3395.0733 1489.548 3371.2912 1512.5788 3374.0493 1490.2523 3378.1979 1474.5995 3383.4907 1442.6064 3362.9451 1467.4748 3354.8535 1458.7345 3338.673 1444.936 3316.948 1430.4504 3292.6925 1433.9163 3303.5423 1419.4117 3278.1199 1400.7853 3244.8564 1406.3259 3258.0147 1387.6788 3273.944 1368.11 3284.7849 1338.189 3297.4975 1351.5285 3309.0523 1359.576 3327.2937 1345.9885 3328.2008 1317.6843 3338.3702 1326.8825 3348.993 1321.8136 3365.1562 1311.4486 3374.8475 1295.3351 3381.5354 1278.7635 3383.839 1269.0979 3385.2169 1256.902 3390.5164 1237.3408 3387.5054 1224.688 3380.8048 1221.0111 3379.882 1222.6223 3378.9633 1230.6758 3374.807 1232.5192 3372.4926 1225.3881 3361.6354 1223.0941 3358.6402 1234.8304 3362.7967 1233.2172 3369.4979 1237.8147 3382.4326 1237.8063 3375.7484 1259.6693 3362.814 1260.598 3356.5625 1236.6724 3358.1879 1250.2467 Z" fill="none" stroke="#865327" opacity="0.45248868778280543" stroke-width="1" class="west_harlem"/>
<path d="M 3468.1266 1240.2773 3471.9395 1396.7479 3385.6397 1548.7045 3396.2432 1511.4117 3278.8574 1482.4838 3424.6824 1210.8577 3468.1266 1240.2773 Z" fill="none" stroke="#865327" opacity="0.45248868778280543" stroke-width="1" class="west_harlem"/>
<path d="M 3212.3906 1633.5065 3079.2655 1552.5388 3284.2392 1186.097 3305.0041 1147.8935 3440.8602 1224.6513 3212.3906 1633.5065 Z" fill="none" stroke="#865327" opacity="0.45248868778280543" stroke-width="1" class="west_harlem"/>
<path d="M 3103.3007 1568.1818 3311.9338 1149.73 3323.2557 1158.466 3466.5088 1238.898 3472.8578 1389.153 3310.857 1684.0966 3103.3007 1568.1818 Z" fill="none" stroke="#865327" opacity="0.45248868778280543" stroke-width="1" class="west_harlem"/></svg>