<?xml version="1.0"?><svg xmlns="http://www.w3.org/2000/svg" version="1.2" baseProfile="tiny" width="6000" height="5918" viewBox="0 0 6000 5918" stroke-linecap="round" stroke-linejoin="round"><path d="M 3731.6094 2308.2575 3732.2996 2304.8016 3744.9978 2285.6699 3751.9199 2271.3816 3762.5144 2231.5227 3775.8987 2206.8635 3796.0198 2211.9089 3827.6942 2210.0312 3830.9605 2236.0545 3839.7637 2250.7858 3859.9296 2293.3753 3871.0524 2313.4025 3870.1385 2322.8479 3871.0761 2333.6734 3875.9488 2347.7194 3883.136 2363.3753 3893.3397 2387.3211 3900.5309 2405.742 3901.922 2408.7352 3901.2385 2417.2598 3896.1678 2431.5492 3887.8561 2443.3084 3859.904 2470.7569 3842.5786 2488.7472 3813.9203 2507.4414 3797.5095 2517.1361 3770.4648 2532.3717 3743.64 2537.4687 3751.2494 2515.112 3761.6042 2464.6453 3704.0067 2455.0282 3708.3747 2428.7605 3712.7457 2405.7187 3708.5818 2404.571 3718.024 2365.3993 3733.5207 2368.1479 3737.8951 2349.2538 3740.6575 2337.0421 3739.958 2331.5143 3731.6094 2308.2575 Z" fill="none" stroke="#12852D" opacity="0.4608294930875576" stroke-width="1" class="woodside"/>
<path d="M 3672.3912 2443.918 3685.9678 2361.606 3756.5968 2366.1135 3806.364 2347.9484 3892.5959 2397.694 3906.0052 2483.9993 3672.3912 2443.918 Z" fill="none" stroke="#12852D" opacity="0.4608294930875576" stroke-width="1" class="woodside"/>
<path d="M 3773.4615 2522.9221 3877.03 2480.4132 3942.6206 2405.6905 3924.9598 2336.6034 3911.9351 2274.8862 3917.3958 2202.095 3762.3314 2496.2079 3742.8281 2423.4268 3750.1489 2346.9376 3771.3255 2254.7769 3737.9892 2216.1163 3771.189 2126.7195 3780.4318 2122.1035 3799.7279 2008.7804 3912.7435 2179.0687 3773.4615 2522.9221 Z" fill="none" stroke="#12852D" opacity="0.4608294930875576" stroke-width="1" class="woodside"/>
<path d="M 3844.3906 2252.8535 3938.7349 2256.4263 3994.2638 2283.0749 3980.5606 2415.7788 3947.3808 2513.5045 3928.0274 2574.3554 3821.6268 2573.5587 3726.2285 2474.1278 3736.3375 2408.6896 3755.7017 2349.696 3831.4409 2251.9469 3777.8759 2325.7156 3844.3906 2252.8535 Z" fill="none" stroke="#12852D" opacity="0.4608294930875576" stroke-width="1" class="woodside"/>
<path d="M 3809.4726 2459.2947 4088.7654 2396.2821 4127.7686 2501.2808 3900.3275 2621.3943 3809.4726 2459.2947 Z" fill="none" stroke="#12852D" opacity="0.4608294930875576" stroke-width="1" class="woodside"/>
<path d="M 3774.4606 2592.0434 3729.805 2579.1869 3760.6793 2464.8767 3695.6797 2453.8845 3696.3465 2426.4687 3709.9919 2427.1462 3719.6416 2364.2458 3733.2862 2364.923 3758.9162 2327.8089 3815.3031 2295.0384 3852.9875 2289.0068 3874.7998 2353.9404 3895.8929 2395.1505 3902.1577 2412.4208 3896.6231 2425.5588 3892.0085 2434.5491 3883.4608 2442.3921 3879.0745 2449.0784 3855.9739 2472.1438 3827.7864 2497.5189 3798.4271 2510.2232 3778.1514 2582.5925 3774.4606 2592.0434 Z" fill="none" stroke="#12852D" opacity="0.4608294930875576" stroke-width="1" class="woodside"/>
<path d="M 3657.8711 2528.6574 3671.531 2332.7128 3679.3819 2347.0265 3718.6969 2349.7519 3708.0187 2430.3502 3627.086 2467.7423 3619.4761 2524.0421 3657.8711 2528.6574 Z" fill="none" stroke="#12852D" opacity="0.4608294930875576" stroke-width="1" class="woodside"/>
<path d="M 3739.2799 2570.8823 3645.8207 2557.1495 3802.6952 2184.7237 3890.1354 2609.4246 3739.2799 2570.8823 Z" fill="none" stroke="#12852D" opacity="0.4608294930875576" stroke-width="1" class="woodside"/>
<path d="M 3764.1504 2466.7161 3742.4862 2540.0044 3675.4239 2553.8957 3623.9606 2554.6351 3584.6341 2548.1035 3590.1588 2517.8008 3593.9581 2498.4442 3593.6107 2497.8685 3594.6457 2491.3014 3706.6274 2299.9903 3767.6733 2299.4667 3804.2355 2323.8442 3776.1216 2415.0983 3764.1504 2466.7161 Z" fill="none" stroke="#12852D" opacity="0.4608294930875576" stroke-width="1" class="woodside"/>
<path d="M 3673.0046 2443.309 3662.3666 2443.7799 3685.3483 2294.483 3732.5311 2305.0317 3852.2952 2290.1593 3878.2786 2362.4596 3934.7411 2392.3388 3890.8612 2442.153 3852.9667 2471.6865 3673.0046 2443.309 Z" fill="none" stroke="#12852D" opacity="0.4608294930875576" stroke-width="1" class="woodside"/>
<path d="M 3871.2595 2363.904 3880.891 2439.2837 3862.8813 2464.6468 3790.27 2518.2665 3747.1503 2535.3311 3759.5664 2465.2783 3689.7104 2454.7515 3713.6453 2346.7722 3782.0022 2306.365 3852.2874 2296.6122 3871.2595 2363.904 Z" fill="none" stroke="#12852D" opacity="0.4608294930875576" stroke-width="1" class="woodside"/>
<path d="M 3730.6816 2305.4943 3763.9029 2232.6728 3792.507 2170.9159 3888.1928 2532.0087 3880.6205 2387.3362 3861.1018 2307.1947 3823.0694 2209.5757 3835.4559 2530.2267 3830.8279 2528.3887 3803.0739 2529.3412 3758.6696 2533.0754 3762.3041 2470.4042 3730.6816 2305.4943 Z" fill="none" stroke="#12852D" opacity="0.4608294930875576" stroke-width="1" class="woodside"/>
<path d="M 3666.0661 2442.8549 3676.1433 2340.5619 3739.9312 2305.4848 3789.7455 2182.8953 3848.1261 2284.1752 3900.055 2394.6848 3862.2259 2478.5874 3669.7655 2441.9298 3666.0661 2442.8549 Z" fill="none" stroke="#12852D" opacity="0.4608294930875576" stroke-width="1" class="woodside"/>
<path d="M 3737.1904 2338.6582 3718.6917 2339.5985 3675.2157 2337.7985 3685.3492 2295.4043 3711.2226 2270.5019 3725.98 2229.9482 3750.9623 2240.057 3794.3536 2168.1501 3808.1872 2133.1278 3883.3694 2365.218 3900.0805 2415.8789 3854.8175 2472.1451 3670.6924 2443.772 3753.9057 2401.2995 3735.3727 2369.9888 3737.1904 2338.6582 Z" fill="none" stroke="#12852D" opacity="0.4608294930875576" stroke-width="1" class="woodside"/>
<path d="M 3753.1243 2538.6109 3694.7546 2453.8854 3775.0773 2303.6051 3800.8465 2185.647 3920.1376 2175.3747 3920.2751 2287.7752 3970.5438 2540.2017 3894.7307 2583.6123 3830.8841 2578.1566 3753.1243 2538.6109 Z" fill="none" stroke="#12852D" opacity="0.4608294930875576" stroke-width="1" class="woodside"/>
<path d="M 3920.7048 2449.9499 3926.0637 2482.1973 3894.3799 2483.6181 3803.6973 2465.2911 3763.6781 2457.5012 3735.6884 2452.2316 3741.1964 2410.9883 3735.4129 2409.1513 3739.3251 2390.4873 3733.7513 2367.4565 3742.0426 2334.7371 3731.3751 2305.2632 3746.385 2285.4381 3756.0666 2256.6357 3763.2078 2231.2916 3775.4375 2208.0156 3768.0335 2203.1868 3781.4191 2180.1405 3783.4997 2179.9079 3803.1133 2144.4185 3875.748 2177.0401 3891.1353 2284.1249 3899.0592 2335.7134 3888.8858 2336.8774 3900.6967 2351.3757 3901.6392 2365.8872 3908.3438 2364.497 3912.7738 2394.2087 3920.7048 2449.9499 Z" fill="none" stroke="#12852D" opacity="0.4608294930875576" stroke-width="1" class="woodside"/>
<path d="M 3791.9007 2463.9217 3812.0794 2307.2503 3969.3248 2309.8271 3982.5212 2501.4792 3791.9007 2463.9217 Z" fill="none" stroke="#12852D" opacity="0.4608294930875576" stroke-width="1" class="woodside"/>
<path d="M 3607.3558 2454.594 3626.5096 2393.4285 3750.4819 2409.894 3771.1722 2525.9787 3594.6618 2524.4028 3613.1312 2486.6016 3607.3558 2454.594 Z" fill="none" stroke="#12852D" opacity="0.4608294930875576" stroke-width="1" class="woodside"/>
<path d="M 3710.8893 2399.5006 3710.4506 2423.2294 3707.0006 2442.3542 3710.4803 2452.9483 3734.3039 2455.228 3751.4244 2461.2002 3762.5286 2463.9532 3719.1796 2364.707 3719.1633 2348.5819 3731.1437 2305.0331 3752.6329 2289.8081 3783.8599 2299.4494 3798.1927 2295.9787 3832.4119 2292.7158 3855.9928 2288.3123 3888.3636 2286.662 3921.4209 2279.2511 3926.0786 2306.1957 3927.7202 2324.852 3927.7398 2340.7464 3933.093 2368.6132 3934.0382 2384.9679 3936.3602 2392.5672 3938.4716 2416.7535 3944.2711 2431.0296 3942.6737 2448.3101 3946.6287 2466.9662 3950.5763 2479.6326 3955.4547 2496.6754 3958.0174 2511.4175 3941.5994 2514.2029 3924.9455 2513.3019 3897.88 2509.418 3886.5486 2510.8139 3851.1581 2507.8601 3847.9227 2510.1678 3847.6576 2480.6777 3841.6383 2475.3857 3825.9043 2469.183 3804.6245 2467.1332 3786.119 2464.1584 3771.3146 2461.64 3763.6842 2463.2608 3710.8893 2399.5006 Z" fill="none" stroke="#12852D" opacity="0.4608294930875576" stroke-width="1" class="woodside"/>
<path d="M 3850.9062 2288.7789 3862.0182 2299.8226 3872.2186 2321.9241 3897.3197 2427.8618 3800.2832 2515.5203 3613.4438 2562.7089 3552.3604 2538.7995 3579.1525 2494.5404 3685.5539 2505.5016 3726.055 2303.6562 3850.9062 2288.7789 Z" fill="none" stroke="#12852D" opacity="0.4608294930875576" stroke-width="1" class="woodside"/>
<path d="M 3739.5761 2409.6077 3740.4717 2381.0411 3733.5212 2368.6086 3743.2062 2341.8769 3738.5627 2323.9141 3759.3803 2329.4209 3769.5266 2302.6896 3858.7686 2289.2305 3884.3316 2396.5465 3894.1398 2476.2459 3889.5208 2481.7808 3735.4607 2455.6875 3711.8675 2452.4861 3702.6165 2452.4953 3706.7547 2427.6102 3742.3618 2419.7413 3739.5761 2409.6077 Z" fill="none" stroke="#12852D" opacity="0.4608294930875576" stroke-width="1" class="woodside"/>
<path d="M 3816.5892 2204.0552 3856.4547 2287.8511 3899.1588 2418.6445 3859.4559 2483.1984 3611.4835 2440.1408 3747.2091 2188.4681 3785.1482 2207.7749 3816.5892 2204.0552 Z" fill="none" stroke="#12852D" opacity="0.4608294930875576" stroke-width="1" class="woodside"/>
<path d="M 3831.8054 2574.6994 3791.9946 2550.3201 3776.0822 2594.3459 3729.1125 2580.5701 3631.9402 2554.3974 3657.2864 2452.0785 3689.0489 2295.4007 3860.163 2295.2178 3831.8054 2574.6994 Z" fill="none" stroke="#12852D" opacity="0.4608294930875576" stroke-width="1" class="woodside"/>
<path d="M 3753.1089 2523.8652 3757.281 2463.5772 3659.2006 2443.4014 3678.5338 2346.6281 3737.7352 2348.4118 3735.9278 2306.18 3854.295 2283.0164 3864.8167 2320.0899 3877.8009 2349.5601 3896.3505 2391.0034 3925.0899 2442.5723 3939.952 2491.3958 3882.5753 2475.7989 3888.2202 2555.0491 3853.988 2555.0892 3833.6524 2571.7019 3753.1089 2523.8652 Z" fill="none" stroke="#12852D" opacity="0.4608294930875576" stroke-width="1" class="woodside"/>
<path d="M 3608.7684 2507.4165 3627.273 2509.2429 3611.0936 2521.2383 3581.0159 2509.7448 3657.2882 2453.9215 3639.2471 2452.0954 3640.6322 2449.3295 3659.5931 2445.6256 3679.0132 2438.6956 3736.8142 2422.5115 3732.6524 2423.4373 3608.7684 2507.4165 Z" fill="none" stroke="#12852D" opacity="0.4608294930875576" stroke-width="1" class="woodside"/>
<path d="M 4076.9242 2529.0006 3679.9459 2446.5276 3876.7067 2205.8289 4076.9242 2529.0006 Z" fill="none" stroke="#12852D" opacity="0.4608294930875576" stroke-width="1" class="woodside"/>
<path d="M 3726.0222 2271.4083 3902.6193 2219.6176 3860.997 2216.9029 3834.1426 2187.4524 3792.523 2185.6561 3767.5731 2205.0298 3729.6974 2247.4496 3719.5347 2258.516 3739.8494 2226.2488 3747.2349 2213.3429 3844.438 2294.3145 3822.195 2254.7213 3823.1705 2299.8669 3870.3907 2340.8152 3868.5531 2351.4138 3871.3637 2381.8183 3876.0084 2398.3993 3864.9218 2410.3916 3876.9736 2432.4935 3850.1538 2438.9753 3839.9894 2449.1237 3803.921 2458.3793 3784.5048 2468.5374 3748.4399 2482.399 3728.0101 2406.8551 3725.2266 2398.5646 3726.0222 2271.4083 Z" fill="none" stroke="#12852D" opacity="0.4608294930875576" stroke-width="1" class="woodside"/>
<path d="M 3788.9426 2295.2977 3725.9828 2232.7122 3788.8047 2168.1561 3958.9895 2182.6965 3996.1533 2313.4781 3961.0959 2385.3948 3974.084 2414.8656 3887.1592 2440.7751 3807.5634 2405.8492 3705.797 2394.8983 3626.2286 2378.3878 3665.0145 2310.1661 3720.4708 2269.5712 3713.0419 2240.0958 3788.9426 2295.2977 Z" fill="none" stroke="#12852D" opacity="0.4608294930875576" stroke-width="1" class="woodside"/>
<path d="M 3637.1808 2218.0574 3731.3671 2071.4897 3905.2715 2118.2762 3870.3201 2280.464 3904.6947 2406.6585 3876.9909 2447.2378 3761.3119 2406.8206 3637.1808 2218.0574 Z" fill="none" stroke="#12852D" opacity="0.4608294930875576" stroke-width="1" class="woodside"/>
<path d="M 3763.1912 2434.4636 3777.0546 2422.4693 3776.0733 2369.9462 3934.3396 2441.6394 3910.3422 2486.8243 3855.8128 2532.9682 3766.9698 2508.1835 3763.1912 2434.4636 Z" fill="none" stroke="#12852D" opacity="0.4608294930875576" stroke-width="1" class="woodside"/>
<path d="M 3730.2182 2304.5734 3769.8741 2303.2651 3877.0063 2362.1156 3882.7183 2401.271 3893.9926 2449.867 3892.2608 2452.1729 3891.2307 2461.0439 3890.3117 2466.2286 3893.8302 2507.4645 3885.6125 2501.5992 3859.9174 2482.2763 3856.4479 2482.05 3826.1477 2480.011 3826.149 2481.1629 3812.7565 2500.7612 3807.6707 2503.0708 3775.3099 2521.0769 3764.2109 2523.8535 3707.785 2533.1275 3598.1663 2549.5893 3529.4423 2514.1655 3487.0673 2449.9201 3491.4411 2423.4232 3484.9602 2416.2865 3454.1738 2377.6075 3447.2294 2368.398 3435.6611 2360.3436 3441.2118 2361.3763 3460.1555 2335.6777 3468.4793 2334.1742 3509.1677 2320.6675 3513.2136 2319.6277 3560.268 2315.7885 3560.0371 2316.2494 3619.1041 2299.7279 3624.6537 2299.6077 3675.1765 2297.1418 3679.9131 2293.3365 3730.2182 2304.5734 Z" fill="none" stroke="#12852D" opacity="0.4608294930875576" stroke-width="1" class="woodside"/>
<path d="M 3933.3211 2366.0789 4002.9094 2528.1789 3726.1741 2420.6794 3762.9946 2248.3363 3872.9933 2193.8566 3933.3211 2366.0789 Z" fill="none" stroke="#12852D" opacity="0.4608294930875576" stroke-width="1" class="woodside"/>
<path d="M 3705.6199 2449.267 3735.0931 2322.9963 3728.8306 2304.3444 3919.8011 2278.3317 3935.8963 2391.4159 4008.5688 2434.8635 4029.2039 2473.7709 3966.7914 2499.6562 3705.6199 2449.267 Z" fill="none" stroke="#12852D" opacity="0.4608294930875576" stroke-width="1" class="woodside"/>
<path d="M 3697.3434 2264.9876 3713.6725 2407.5608 3699.8435 2454.8019 3798.8193 2445.9443 3828.0949 2566.1783 3748.5234 2562.578 3711.41 2457.555 3697.3434 2264.9876 Z" fill="none" stroke="#12852D" opacity="0.4608294930875576" stroke-width="1" class="woodside"/>
<path d="M 3742.5982 2201.3709 3746.761 2202.2878 3738.4388 2203.6784 3743.0607 2201.3704 3742.5982 2201.3709 Z" fill="none" stroke="#12852D" opacity="0.4608294930875576" stroke-width="1" class="woodside"/>
<path d="M 3771.838 2301.7658 3880.5911 2362.4569 3888.0027 2372.1233 3899.608 2407.5861 3896.861 2431.0876 3851.5833 2475.3743 3745.6377 2456.5986 3753.9053 2400.8387 3733.5259 2373.2158 3739.5034 2339.1165 3732.0912 2327.1457 3771.838 2301.7658 Z" fill="none" stroke="#12852D" opacity="0.4608294930875576" stroke-width="1" class="woodside"/>
<path d="M 3831.8057 2574.9298 3778.8359 2573.836 3768.8974 2580.9894 3655.0686 2552.7631 3667.9484 2476.4892 3690.8218 2452.7374 3698.8672 2402.9681 3731.1446 2305.9545 3758.6008 2247.8803 3830.0375 2237.6678 3868.0457 2312.9453 3897.5123 2395.6093 4003.0157 2432.7974 3971.1891 2502.1849 3967.5812 2574.9971 3831.8057 2574.9298 Z" fill="none" stroke="#12852D" opacity="0.4608294930875576" stroke-width="1" class="woodside"/>
<path d="M 3748.3967 2440.9297 4155.5582 2525.2017 4022.6042 2728.1621 3556.18 2680.7355 3463.4574 2422.7532 3748.3967 2440.9297 Z" fill="none" stroke="#12852D" opacity="0.4608294930875576" stroke-width="1" class="woodside"/>
<path d="M 3637.4982 2561.7654 3703.9167 2364.492 4071.1068 2336.4126 4098.3098 2604.5453 3644.0775 2672.3621 3636.5679 2556.2364 3637.4982 2561.7654 Z" fill="none" stroke="#12852D" opacity="0.4608294930875576" stroke-width="1" class="woodside"/>
<path d="M 3731.9439 2306.5107 3775.3101 2206.9605 3793.8122 2211.547 3848.0015 2285.6537 3871.7965 2354.4378 3893.0567 2395.927 3784.1334 2408.9189 3755.953 2399.6451 3740.6712 2381.6924 3735.5694 2367.8758 3731.9439 2306.5107 Z" fill="none" stroke="#12852D" opacity="0.4608294930875576" stroke-width="1" class="woodside"/>
<path d="M 3924.0337 2335.6831 3933.2812 2333.8289 3952.722 2346.7045 4002.7608 2414.8285 4006.5798 2505.1342 4011.3356 2603.7424 3966.076 2664.6337 3811.574 2686.0176 3672.7232 2631.7791 3609.7149 2531.3771 3797.3305 2353.3372 3924.0337 2335.6831 Z" fill="none" stroke="#12852D" opacity="0.4608294930875576" stroke-width="1" class="woodside"/>
<path d="M 3903.7563 2395.6018 3969.6903 2596.423 3697.6955 2621.6161 3668.844 2445.6168 3777.8472 2298.9952 3839.7273 2218.7699 3903.7563 2395.6018 Z" fill="none" stroke="#12852D" opacity="0.4608294930875576" stroke-width="1" class="woodside"/>
<path d="M 3806.3498 2144.1846 3842.5481 2259.305 3902.8501 2411.2681 3847.4229 2477.6829 3706.7836 2456.6381 3717.7667 2339.5994 3806.3498 2144.1846 Z" fill="none" stroke="#12852D" opacity="0.4608294930875576" stroke-width="1" class="woodside"/>
<path d="M 3774.37 2507.2541 4037.5242 2812.9513 3693.6198 3182.1753 3441.517 2787.7537 3774.37 2507.2541 Z" fill="none" stroke="#12852D" opacity="0.4608294930875576" stroke-width="1" class="woodside"/>
<path d="M 3812.6553 2409.5295 3783.5176 2410.9436 3732.1398 2374.5994 3741.8168 2340.0355 3812.6553 2409.5295 Z" fill="none" stroke="#12852D" opacity="0.4608294930875576" stroke-width="1" class="woodside"/>
<path d="M 3756.0719 2261.7031 3744.962 2251.1192 3782.8351 2206.8561 3802.3254 2269.0242 3815.3264 2316 3838.9632 2398.432 3878.9973 2421.269 3804.98 2410.2955 3766.5659 2387.3 3750.8476 2394.2276 3756.0719 2261.7031 Z" fill="none" stroke="#12852D" opacity="0.4608294930875576" stroke-width="1" class="woodside"/>
<path d="M 3725.2861 2229.7186 3884.1792 2268.0094 3906.2854 2574.8427 3549.503 2440.1943 3646.8815 2206.9928 3725.2861 2229.7186 Z" fill="none" stroke="#12852D" opacity="0.4608294930875576" stroke-width="1" class="woodside"/>
<path d="M 3834.9766 2107.304 3961.6274 2074.9107 4011.0985 2424.0325 3857.5949 2473.985 3738.0832 2307.3295 3834.9766 2107.304 Z" fill="none" stroke="#12852D" opacity="0.4608294930875576" stroke-width="1" class="woodside"/>
<path d="M 3813.4593 2508.8243 3820.3943 2505.591 3831.0275 2500.28 3839.1196 2497.7365 3845.9322 2488.7434 3852.75 2484.3581 3735.5639 2556.1399 3735.3324 2555.9097 3708.607 2545.5685 3709.7602 2542.3417 3701.6424 2519.6552 3697.4785 2518.9681 3690.0576 2498.931 3684.7385 2499.3969 3679.9787 2480.3943 3673.62 2482.0131 3682.3912 2463.9192 3680.8874 2463.4599 3685.724 2442.7208 3683.8754 2444.3352 3686.404 2428.5518 3685.5952 2429.2437 3688.6984 2409.8892 3688.3539 2412.3085 3693.982 2373.8315 3693.6366 2375.3292 3698.2418 2355.168 3696.0452 2355.4005 3708.0622 2347.4412 3716.042 2349.1609 3726.6792 2348.9198 3738.4784 2354.3211 3735.6827 2334.1678 3733.2374 2317.3546 3736.1286 2318.0427 3730.1047 2306.6466 3738.6525 2298.8061 3749.6393 2301.7892 3759.3533 2303.7369 3767.4579 2314.3244 3780.3032 2325.022 3790.3791 2340.5599 3795.1429 2361.8629 3813.1045 2397.5497 3844.5949 2431.6095 3861.2901 2469.373 3884.431 2480.4045 3854.8316 2484.3557 3856.4504 2484.2387 3813.4593 2508.8243 Z" fill="none" stroke="#12852D" opacity="0.4608294930875576" stroke-width="1" class="woodside"/>
<path d="M 3880.4981 2283.6768 4003.4761 2431.1842 3982.9541 2478.4395 3657.2347 2397.2491 3775.7747 2091.0181 3906.8895 2118.0439 3866.9756 2188.5663 3880.4981 2283.6768 Z" fill="none" stroke="#12852D" opacity="0.4608294930875576" stroke-width="1" class="woodside"/>
<path d="M 3768.5992 2300.3871 3727.6749 2304.8063 3684.653 2292.8712 3678.4063 2289.4221 3696.1795 2257.1573 3780.9076 2134.5394 3795.2995 2187.4956 3805.0068 2184.2605 3793.9379 2210.9899 3833.2756 2238.5855 3853.6773 2285.5509 3768.5992 2300.3871 Z" fill="none" stroke="#12852D" opacity="0.4608294930875576" stroke-width="1" class="woodside"/>
<path d="M 3732.5311 2305.0317 3852.7497 2283.2485 3858.5126 2467.5331 3730.368 2451.0851 3732.5311 2305.0317 Z" fill="none" stroke="#12852D" opacity="0.4608294930875576" stroke-width="1" class="woodside"/>
<path d="M 3833.7671 2673.0883 3891.1364 2673.0216 3976.1917 2615.77 4038.9947 2530.8957 3962.9226 2366.9633 3859.4729 2497.9435 3840.8379 2381.8535 3865.1096 2571.6658 3855.9065 2614.0731 3842.7069 2398.4379 3765.3078 2686.0677 3648.5515 2509.2233 3740.918 2365.3759 3929.9676 2647.1661 3976.291 2693.1949 3930.0495 2713.5321 3833.7671 2673.0883 Z" fill="none" stroke="#12852D" opacity="0.4608294930875576" stroke-width="1" class="woodside"/>
<path d="M 3855.8975 2205.8532 3884.9901 2366.8286 3907.5735 2492.3571 3834.5808 2574.4658 3633.8796 2651.1716 3669.7849 2462.2035 3572.5072 2296.4289 3669.0271 2153.7687 3855.8975 2205.8532 Z" fill="none" stroke="#12852D" opacity="0.4608294930875576" stroke-width="1" class="woodside"/>
<path d="M 3755.5877 2240.9735 3776.3572 2203.1779 3797.1779 2213.7502 3815.6736 2212.3479 3818.9779 2272.6912 3823.1881 2315.5305 3799.2612 2427.0527 3666.0432 2418.8957 3663.1927 2339.6529 3750.0979 2298.1032 3755.5877 2240.9735 Z" fill="none" stroke="#12852D" opacity="0.4608294930875576" stroke-width="1" class="woodside"/>
<path d="M 3857.385 2292.4569 3889.9685 2469.3393 3670.6871 2438.2429 3691.8265 2298.1621 3857.385 2292.4569 Z" fill="none" stroke="#12852D" opacity="0.4608294930875576" stroke-width="1" class="woodside"/>
<path d="M 3683.4161 2447.6762 3662.1373 2445.8536 3684.6555 2295.405 3732.9936 2305.0312 3858.0725 2287.1582 3870.3589 2313.6337 3873.3961 2340.1206 3886.8426 2368.8996 3898.6705 2397.2205 3901.2429 2420.9458 3890.3959 2439.8497 3856.2097 2476.0601 3683.4161 2447.6762 Z" fill="none" stroke="#12852D" opacity="0.4608294930875576" stroke-width="1" class="woodside"/>
<path d="M 3730.6779 2301.8087 3771.3726 2299.0021 3791.5762 2165.3893 3840.6742 2238.1164 3859.2317 2289.6906 3901.9351 2419.5627 3853.8902 2470.3031 3763.2146 2456.5802 3777.9628 2406.8029 3735.3708 2368.146 3730.6779 2301.8087 Z" fill="none" stroke="#12852D" opacity="0.4608294930875576" stroke-width="1" class="woodside"/>
<path d="M 3873.0332 2227.9445 4048.901 2331.8359 4069.4986 2511.5005 4001.1459 2594.539 3694.018 2645.5841 3654.0443 2447.4739 3804.6098 2243.6848 3834.1906 2229.8319 3854.5379 2229.8087 3864.7104 2228.8756 3873.0332 2227.9445 Z" fill="none" stroke="#12852D" opacity="0.4608294930875576" stroke-width="1" class="woodside"/>
<path d="M 3636.3795 2299.8494 3825.9298 2286.0431 3922.2356 2378.0715 3885.3222 2451.8356 3842.3531 2493.8161 3841.9547 2507.8927 3725.4609 2581.7479 3681.036 2567.0457 3581.0881 2537.6452 3555.1461 2493.4309 3636.3795 2299.8494 Z" fill="none" stroke="#12852D" opacity="0.4608294930875576" stroke-width="1" class="woodside"/>
<path d="M 3731.6078 2306.6451 3853.6812 2289.006 3899.1505 2411.7333 3879.3026 2446.3135 3851.8164 2476.9867 3745.4909 2537.9276 3762.067 2464.8752 3744.7126 2456.5995 3756.2186 2401.5274 3734.2145 2368.1471 3741.3514 2337.2717 3731.6078 2306.6451 Z" fill="none" stroke="#12852D" opacity="0.4608294930875576" stroke-width="1" class="woodside"/>
<path d="M 3671.1185 2446.3565 3681.7045 2296.8392 3728.666 2305.776 3851.0865 2287.9577 3895.9489 2397.4629 3897.1653 2424.4284 3851.899 2478.3911 3671.1185 2446.3565 Z" fill="none" stroke="#12852D" opacity="0.4608294930875576" stroke-width="1" class="woodside"/>
<path d="M 4020.5501 2575.1586 3631.9123 2523.9842 3729.6654 2216.1249 4033.0477 2236.0351 4020.5501 2575.1586 Z" fill="none" stroke="#12852D" opacity="0.4608294930875576" stroke-width="1" class="woodside"/>
<path d="M 3730.6798 2303.6515 3864.777 2285.9987 3986.8453 2268.3428 4000.8673 2381.6577 4033.2345 2375.1646 4001.8539 2428.6522 4007.4079 2431.4094 3927.872 2448.098 3948.2829 2495.0717 3662.1342 2442.6283 3684.4231 2294.2535 3730.6798 2303.6515 Z" fill="none" stroke="#12852D" opacity="0.4608294930875576" stroke-width="1" class="woodside"/>
<path d="M 3673.0046 2443.309 3708.1434 2428.7607 3712.5137 2405.0278 3709.2746 2403.6488 3716.6377 2366.5525 3715.0175 2365.1719 3717.3119 2347.2016 3737.8953 2349.4842 3740.6608 2340.2671 3731.1439 2305.2635 3769.5232 2299.4648 3884.2939 2364.7561 3895.1986 2394.6906 3902.3901 2413.342 3889.2407 2440.7726 3856.6693 2473.5253 3673.0046 2443.309 Z" fill="none" stroke="#12852D" opacity="0.4608294930875576" stroke-width="1" class="woodside"/>
<path d="M 3764.1524 2468.5592 3665.916 2447.0014 3682.7297 2296.7885 3684.2799 2305.8474 3725.9055 2308.5702 3742.092 2309.1681 3858.617 2292.4555 3879.0374 2353.2444 3889.2639 2396.5407 3894.8748 2447.2165 3892.1435 2484.0816 3889.4571 2558.1194 3825.3266 2572.6329 3748.4946 2534.9293 3764.1524 2468.5592 Z" fill="none" stroke="#12852D" opacity="0.4608294930875576" stroke-width="1" class="woodside"/>
<path d="M 3861.0869 2294.2954 4122.7878 2254.3369 3997.3247 2502.3816 3852.0347 2465.6975 3861.0869 2294.2954 Z" fill="none" stroke="#12852D" opacity="0.4608294930875576" stroke-width="1" class="woodside"/>
<path d="M 3675.3196 2445.6106 3731.1429 2304.3421 4130.6408 2248.3369 4227.3334 2573.4786 3675.3196 2445.6106 Z" fill="none" stroke="#12852D" opacity="0.4608294930875576" stroke-width="1" class="woodside"/>
<path d="M 3625.4597 2549.7952 3655.8927 2445.6291 3687.2827 2381.0945 3711.2152 2263.1311 3782.2913 2131.3137 3950.6464 2167.0455 3924.0834 2376.2263 3947.3312 2473.877 3973.3075 2530.982 3829.9422 2563.4113 3625.4597 2549.7952 Z" fill="none" stroke="#12852D" opacity="0.4608294930875576" stroke-width="1" class="woodside"/>
<path d="M 3665.1985 2503.2173 3692.7478 2294.4757 3870.3287 2287.835 3893.7769 2559.6507 3629.6639 2594.4912 3637.0322 2558.0793 3665.1985 2503.2173 Z" fill="none" stroke="#12852D" opacity="0.4608294930875576" stroke-width="1" class="woodside"/>
<path d="M 3666.0661 2442.8549 3836.3131 2470.3232 3942.724 2488.6277 4043.6018 2517.0655 4016.8846 2601.8917 3925.3695 2670.215 3820.8942 2745.9234 3744.1428 2799.4728 3707.0831 2757.1055 3677.4269 2711.9662 3631.1282 2677.9045 3558.0028 2647.5515 3557.9618 2598.7016 3550.5208 2551.7037 3551.4176 2517.6034 3605.997 2512.0269 3659.6446 2499.997 3725.3268 2497.1678 3555.1074 2504.6981 3666.0661 2442.8549 Z" fill="none" stroke="#12852D" opacity="0.4608294930875576" stroke-width="1" class="woodside"/>
<path d="M 3734.5063 2427.1583 3934.1836 2315.6208 4186.7628 2604.2688 3997.4028 2704.0813 3642.0285 2658.0218 3509.4169 2519.5175 3574.4073 2355.0657 3734.8495 2400.9875 3734.5063 2427.1583 Z" fill="none" stroke="#12852D" opacity="0.4608294930875576" stroke-width="1" class="woodside"/>
<path d="M 3709.5301 2427.8378 3711.3701 2417.6995 3711.8271 2412.1701 3711.476 2408.0237 3712.8621 2406.5249 3712.5136 2404.9126 3709.6208 2402.9574 3706.6133 2401.8085 3707.6509 2398.6975 3709.8437 2394.5487 3711.1114 2390.2856 3707.2861 2380.7292 3707.6298 2377.6189 3710.1706 2374.6217 3710.8604 2370.5896 3712.3604 2367.4782 3716.969 2351.118 3721.2467 2350.7682 3733.0375 2347.8767 3749.2287 2351.5457 3757.0868 2347.391 3771.4197 2343.2294 3783.9051 2341.3732 3792.2385 2349.1963 3798.0288 2357.4829 3793.6448 2366.4718 3793.8861 2375.686 3798.054 2380.5191 3802.462 2393.4148 3809.413 2405.3864 3811.7358 2414.5987 3812.2157 2430.2637 3808.0702 2445.9341 3802.0662 2454.2345 3799.7656 2465.2954 3793.78 2490.6448 3782.6854 2497.1078 3759.5821 2521.0936 3743.862 2528.4828 3712.324 2446.4957 3707.7216 2469.5387 3692.9297 2479.6905 3674.4371 2489.8456 3652.2504 2507.3766 3642.0883 2523.0532 3640.2559 2542.4087 3677.2543 2533.1575 3713.3342 2531.2788 3726.281 2525.7361 3744.3247 2528.5975 3709.5301 2427.8378 Z" fill="none" stroke="#12852D" opacity="0.4608294930875576" stroke-width="1" class="woodside"/>
<path d="M 3720.5491 2346.968 3759.296 2249.2616 3792.515 2178.2859 3860.1566 2289.6896 3894.4751 2369.812 3909.3244 2410.3388 3888.0986 2452.7538 3847.4377 2490.5848 3811.382 2512.7433 3773.4674 2528.4517 3750.344 2534.0057 3695.6751 2449.2769 3687.343 2442.8344 3708.5795 2402.2673 3720.5491 2346.968 Z" fill="none" stroke="#12852D" opacity="0.4608294930875576" stroke-width="1" class="woodside"/>
<path d="M 3836.9038 2583.2189 3797.0824 2549.6233 3769.828 2586.0576 3733.7244 2566.7406 3756.7534 2470.4101 3673.4734 2449.7592 3696.4617 2308.7535 3742.2373 2299.4934 3871.809 2367.0745 3939.4814 2484.9454 3962.2113 2535.6042 3836.9038 2583.2189 Z" fill="none" stroke="#12852D" opacity="0.4608294930875576" stroke-width="1" class="woodside"/>
<path d="M 3885.4928 2400.6918 3888.8247 2479.9385 3856.9003 2473.2947 3747.3379 2534.7001 3626.158 2554.6331 3642.0177 2447.0244 3669.7679 2444.464 3685.1193 2296.7866 3732.0679 2304.3411 3843.0466 2290.861 3870.3276 2286.9136 3885.4928 2400.6918 Z" fill="none" stroke="#12852D" opacity="0.4608294930875576" stroke-width="1" class="woodside"/>
<path d="M 4014.7988 2424.0276 4033.2432 2381.6148 4164.5722 2364.8431 4194.298 2447.7324 4133.2447 2449.6659 4088.8842 2481.0616 4014.7988 2424.0276 Z" fill="none" stroke="#12852D" opacity="0.4608294930875576" stroke-width="1" class="woodside"/>
<path d="M 3791.2071 2464.1528 3679.7427 2475.5563 3682.9522 2446.2943 3690.0844 2408.2753 3696.749 2365.6509 3712.2406 2363.3318 3736.7488 2358.9301 3728.1366 2304.1148 3731.6045 2303.4202 3744.5344 2284.749 3755.3615 2245.8107 3766.9224 2245.5682 3784.7254 2244.3975 3797.6955 2264.1922 3816.6505 2259.1038 3843.2434 2260.6862 3859.0023 2291.3033 3869.1925 2304.8818 3873.1692 2343.8066 3881.0781 2383.189 3888.297 2425.108 3888.5647 2455.7482 3888.597 2482.9338 3872.6367 2481.3399 3835.6227 2473.319 3803.4709 2469.6687 3791.2071 2464.1528 Z" fill="none" stroke="#12852D" opacity="0.4608294930875576" stroke-width="1" class="woodside"/>
<path d="M 3667.9171 2443.7747 3676.1798 2378.3409 3740.9275 2374.5904 3751.145 2415.1247 3667.9171 2443.7747 Z" fill="none" stroke="#12852D" opacity="0.4608294930875576" stroke-width="1" class="woodside"/>
<path d="M 3712.7445 2404.5669 3669.03 2398.3897 3684.1923 2294.7144 3685.5795 2294.4827 3736.1584 2234.5444 3760.2191 2247.6483 3832.3502 2238.1259 3868.7418 2315.0177 3875.9642 2360.8498 3889.2511 2449.5271 3888.3671 2484.0861 3853.8971 2476.2932 3705.6219 2451.3404 3712.7445 2404.5669 Z" fill="none" stroke="#12852D" opacity="0.4608294930875576" stroke-width="1" class="woodside"/>
<path d="M 3765.9909 2457.4987 3777.3872 2301.2991 3860.1641 2296.1392 4080.6351 2536.3683 3765.9909 2457.4987 Z" fill="none" stroke="#12852D" opacity="0.4608294930875576" stroke-width="1" class="woodside"/>
<path d="M 3696.2665 2345.3797 3773.6892 2302.9155 3880.824 2363.8388 3854.126 2474.2194 3680.8703 2445.8356 3696.2665 2345.3797 Z" fill="none" stroke="#12852D" opacity="0.4608294930875576" stroke-width="1" class="woodside"/>
<path d="M 3730.6807 2304.5729 3852.7645 2296.1477 3896.3527 2392.8463 3929.729 2453.6249 3920.5242 2491.4198 3886.3687 2554.1297 3784.6988 2648.2557 3719.9092 2628.9675 3644.0072 2596.7822 3664.2194 2446.5427 3730.6807 2304.5729 Z" fill="none" stroke="#12852D" opacity="0.4608294930875576" stroke-width="1" class="woodside"/>
<path d="M 3718.2553 2365.399 3733.6875 2305.2609 3852.0618 2288.3168 3947.1264 2495.0731 3853.8918 2471.6854 3763.2195 2461.1878 3706.0859 2452.7223 3718.2553 2365.399 Z" fill="none" stroke="#12852D" opacity="0.4608294930875576" stroke-width="1" class="woodside"/>
<path d="M 3836.1166 2297.0881 3846.3047 2309.0546 3855.493 2326.4695 3869.4031 2356.8603 3863.4833 2386.4698 3889.4203 2416.8482 3903.3229 2438.9477 3917.2328 2466.5768 3933.3187 2525.6806 3912.0667 2547.8253 3851.9581 2572.7805 3808.5301 2624.4432 3783.5937 2666.8694 3736.9236 2646.6608 3681.3842 2623.6737 3642.5069 2606.1985 3629.5332 2584.0904 3617.482 2558.2953 3599.8208 2553.9554 3599.7591 2507.2605 3608.06 2478.6845 3620.049 2437.2046 3622.0788 2418.0234 3633.1355 2370.0967 3678.9697 2349.6749 3746.4665 2322.886 3783.4384 2297.9693 3836.1166 2297.0881 Z" fill="none" stroke="#12852D" opacity="0.4608294930875576" stroke-width="1" class="woodside"/>
<path d="M 3590.1785 2407.9071 3874.6253 2008.6953 3973.5804 2021.4693 3824.2629 2449.1414 3590.1785 2407.9071 Z" fill="none" stroke="#12852D" opacity="0.4608294930875576" stroke-width="1" class="woodside"/>
<path d="M 3730.6779 2301.8087 3798.0347 2151.5636 3851.829 2286.9351 3899.1311 2395.6074 3864.9959 2473.9764 3678.0948 2445.6079 3673.4694 2445.6124 3683.502 2298.1703 3730.6779 2301.8087 Z" fill="none" stroke="#12852D" opacity="0.4608294930875576" stroke-width="1" class="woodside"/>
<path d="M 3853.324 2438.1669 3854.3278 2402.992 3896.6604 2397.697 3853.324 2438.1669 Z" fill="none" stroke="#12852D" opacity="0.4608294930875576" stroke-width="1" class="woodside"/>
<path d="M 3717.7921 2364.7084 3717.8934 2350.5412 3717.7751 2347.8922 3716.8575 2355.2646 3716.052 2359.0663 3715.2469 2363.3288 3717.2166 2367.3582 3715.3709 2371.6217 3713.7568 2376.3458 3712.7215 2381.6452 3717.1953 2346.2803 3719.0356 2336.6035 3718.9075 2324.2797 3720.7356 2302.7402 3728.714 2303.4232 3731.4708 2285.799 3734.0059 2277.5041 3758.405 2281.5097 3768.4639 2281.8446 3838.7627 2285.568 3856.337 2286.0085 3863.6406 2303.0455 3865.1529 2310.9907 3870.1575 2339.0878 3870.1779 2356.595 3872.0775 2398.8647 3867.5967 2423.5198 3862.7618 2442.186 3855.5118 2472.6051 3843.5722 2548.6498 3842.1976 2560.2869 3830.9935 2572.6266 3804.03 2557.4495 3787.9429 2546.638 3778.1413 2573.2607 3771.1054 2590.8949 3729.4593 2580.4545 3698.3876 2385.6909 3717.7921 2364.7084 Z" fill="none" stroke="#12852D" opacity="0.4608294930875576" stroke-width="1" class="woodside"/>
<path d="M 3863.8553 2288.7639 3948.2886 2499.6796 3560.5931 2427.2839 3637.1782 2215.2935 3929.3211 2122.8529 3939.5818 2193.7761 3872.076 2200.3066 3863.8553 2288.7639 Z" fill="none" stroke="#12852D" opacity="0.4608294930875576" stroke-width="1" class="woodside"/>
<path d="M 3754.6927 2269.536 3752.841 2267.6952 4054.7012 2515.2072 3675.3187 2444.6891 3754.6927 2269.536 Z" fill="none" stroke="#12852D" opacity="0.4608294930875576" stroke-width="1" class="woodside"/>
<path d="M 3820.3761 2282.3639 3901.955 2436.1498 3817.012 2583.7021 3708.6292 2452.0286 3820.3761 2282.3639 Z" fill="none" stroke="#12852D" opacity="0.4608294930875576" stroke-width="1" class="woodside"/>
<path d="M 3860.1555 2288.7682 3882.4172 2342.1832 3897.2667 2383.6305 3896.3968 2429.7059 3858.5115 2466.6116 3842.8005 2480.4529 3767.8509 2466.7122 3771.4914 2410.4958 3734.4212 2344.1896 3739.0091 2308.2499 3860.1555 2288.7682 Z" fill="none" stroke="#12852D" opacity="0.4608294930875576" stroke-width="1" class="woodside"/>
<path d="M 3754.6966 2273.2214 3751.9247 2275.9884 3753.7707 2272.301 4036.1944 2512.4675 4040.8264 2517.0692 3757.664 2456.586 3754.6966 2273.2214 Z" fill="none" stroke="#12852D" opacity="0.4608294930875576" stroke-width="1" class="woodside"/>
<path d="M 3844.4348 2291.5504 3870.456 2396.5629 3887.1833 2461.0487 3710.4618 2434.5179 3751.9613 2311.0006 3743.6357 2310.0879 3844.4348 2291.5504 Z" fill="none" stroke="#12852D" opacity="0.4608294930875576" stroke-width="1" class="woodside"/>
<path d="M 3593.0013 2462.2739 3581.9534 2524.0287 3564.1718 2283.5368 3818.5283 2284.2087 3851.0715 2432.5236 3667.0967 2553.4429 3582.8897 2536.9304 3593.0013 2462.2739 Z" fill="none" stroke="#12852D" opacity="0.4608294930875576" stroke-width="1" class="woodside"/>
<path d="M 3920.7048 2449.9499 3883.4401 2522.5679 3878.3664 2535.0155 3858.2657 2553.9322 3831.5708 2571.8195 3821.3882 2567.1075 3822.7769 2567.9124 3818.9583 2565.9581 3797.0885 2555.1531 3728.1433 2537.4847 3700.3058 2454.5711 3704.4532 2438.901 3713.6376 2372.7753 3730.214 2300.4271 3800.7366 2296.2062 3907.7855 2285.2566 3918.9688 2354.1178 3920.7048 2449.9499 Z" fill="none" stroke="#12852D" opacity="0.4608294930875576" stroke-width="1" class="woodside"/>
<path d="M 3818.319 2307.1918 3895.8237 2332.6647 3869.1135 2430.3713 3759.1968 2378.2056 3818.319 2307.1918 Z" fill="none" stroke="#12852D" opacity="0.4608294930875576" stroke-width="1" class="woodside"/>
<path d="M 3854.608 2290.6173 3889.0549 2479.0167 3658.0014 2474.4252 3687.2081 2304.6164 3854.608 2290.6173 Z" fill="none" stroke="#12852D" opacity="0.4608294930875576" stroke-width="1" class="woodside"/>
<path d="M 3685.0237 2362.4596 3698.8788 2299.4431 3882.2038 2284.2046 3906.2833 2486.3789 3653.8459 2553.4555 3685.0237 2362.4596 Z" fill="none" stroke="#12852D" opacity="0.4608294930875576" stroke-width="1" class="woodside"/>
<path d="M 3769.5247 2300.8468 3988.6939 2267.419 4006.4163 2380.729 4011.214 2511.5792 3671.6219 2448.3787 3683.4948 2290.7993 3702.8874 2259.454 3769.5247 2300.8468 Z" fill="none" stroke="#12852D" opacity="0.4608294930875576" stroke-width="1" class="woodside"/>
<path d="M 3762.2934 2460.2673 3753.2053 2616.0295 3741.0199 2463.9757 3759.4677 2412.3515 4005.5663 2437.8624 3990.9707 2596.3956 3755.0606 2620.636 3762.2934 2460.2673 Z" fill="none" stroke="#12852D" opacity="0.4608294930875576" stroke-width="1" class="woodside"/>
<path d="M 3559.2446 2473.8222 3568.4194 2383.9675 3740.9665 2412.3708 3679.5788 2545.1363 3547.7353 2539.725 3559.2446 2473.8222 Z" fill="none" stroke="#12852D" opacity="0.4608294930875576" stroke-width="1" class="woodside"/>
<path d="M 3660.5182 2445.6247 3676.1389 2335.9548 3863.8863 2315.484 3963.1353 2534.6814 3832.7241 2568.938 3660.5182 2445.6247 Z" fill="none" stroke="#12852D" opacity="0.4608294930875576" stroke-width="1" class="woodside"/>
<path d="M 2757.6312 2537.2841 2893.5985 2288.4728 2984.2547 2342.8186 2846.4518 2578.7541 2757.6312 2537.2841 Z" fill="none" stroke="#12852D" opacity="0.4608294930875576" stroke-width="1" class="woodside"/>
<path d="M 3823.8661 2095.3411 3872.1656 2276.7764 3840.9702 2497.9648 3679.8549 2352.5369 3652.8117 2120.3897 3823.8661 2095.3411 Z" fill="none" stroke="#12852D" opacity="0.4608294930875576" stroke-width="1" class="woodside"/>
<path d="M 3704.2332 2450.1899 3731.8388 2306.4145 4000.9496 2267.8638 4028.644 2400.9719 4003.7983 2500.53 3704.2332 2450.1899 Z" fill="none" stroke="#12852D" opacity="0.4608294930875576" stroke-width="1" class="woodside"/>
<path d="M 3548.6352 2509.3114 3560.5939 2428.2054 3747.4851 2453.832 3788.0226 2299.9056 3915.6437 2282.2526 3939.8214 2386.3429 3878.777 2392.8672 3879.0117 2591.9259 3867.9079 2591.0173 3548.6352 2509.3114 Z" fill="none" stroke="#12852D" opacity="0.4608294930875576" stroke-width="1" class="woodside"/>
<path d="M 3652.9728 2291.7498 3710.3244 2297.2224 3739.9549 2328.5197 3794.5464 2345.0474 3789.0265 2372.6966 3817.7492 2415.0528 3777.9678 2411.4103 3716.004 2426.2187 3663.2926 2444.7006 3629.0567 2436.4388 3583.7215 2429.1071 3599.3972 2371.9617 3652.9728 2291.7498 Z" fill="none" stroke="#12852D" opacity="0.4608294930875576" stroke-width="1" class="woodside"/>
<path d="M 3700.1555 2302.7608 3818.3598 2133.1165 3984.8633 2166.0807 4035.1032 2388.984 3805.7397 2429.8101 3700.1555 2302.7608 Z" fill="none" stroke="#12852D" opacity="0.4608294930875576" stroke-width="1" class="woodside"/>
<path d="M 3805.826 2508.1415 3658.7639 2546.9994 3708.4764 2299.067 3853.6815 2289.2364 3805.826 2508.1415 Z" fill="none" stroke="#12852D" opacity="0.4608294930875576" stroke-width="1" class="woodside"/>
<path d="M 3775.8484 2592.042 3814.2445 2591.0784 3805.238 2604.2222 3773.5378 2594.3486 3805.2402 2606.296 3713.8928 2626.8997 3639.1599 2607.8468 3600.5178 2593.1349 3595.6593 2591.9871 3606.9573 2551.4247 3610.6306 2520.7779 3617.7759 2493.3543 3618.6767 2466.398 3626.263 2416.1683 3629.9436 2394.7404 3663.5002 2419.8196 3676.3799 2346.0902 3677.2998 2340.7911 3696.2195 2297.6971 3712.6093 2269.8095 3751.4594 2273.2248 3775.5031 2269.2836 3833.5339 2262.5399 3849.0587 2290.8541 3869.4692 2343.8109 3883.61 2373.05 3911.1555 2394.6714 3913.9564 2415.8622 3924.4032 2448.3327 3931.6122 2480.3474 3931.8739 2504.9991 3935.3758 2531.2602 3935.6233 2544.3929 3936.8038 2563.7456 3926.6436 2577.5829 3775.8484 2592.042 Z" fill="none" stroke="#12852D" opacity="0.4608294930875576" stroke-width="1" class="woodside"/>
<path d="M 3758.5998 2466.722 3774.2666 2410.4928 3742.7613 2358.9239 3735.3253 2323.9175 3770.4702 2320.1951 3812.062 2291.5869 3858.3238 2304.4338 3878.7346 2356.9305 3895.4221 2388.2401 3890.842 2426.0265 3870.5207 2451.853 3855.7405 2470.301 3758.5998 2466.722 Z" fill="none" stroke="#12852D" opacity="0.4608294930875576" stroke-width="1" class="woodside"/>
<path d="M 3625.612 2463.1663 3663.291 2443.0879 3672.2694 2400.2296 3678.9216 2344.0145 3739.5138 2349.2522 3708.2063 2260.1397 3729.6788 2229.2535 3760.4506 2247.8784 3757.7028 2273.4486 3792.4121 2296.2153 3845.8219 2291.3185 3861.1107 2314.7962 3880.1254 2359.6931 3928.0346 2392.3471 3926.0722 2489.1091 3868.9481 2491.4815 3748.2626 2534.2383 3665.6617 2503.908 3582.6158 2487.6256 3630.7071 2470.7644 3625.612 2463.1663 Z" fill="none" stroke="#12852D" opacity="0.4608294930875576" stroke-width="1" class="woodside"/>
<path d="M 3890.7717 2367.0521 4059.0351 2470.9659 3978.361 2503.7885 3887.6779 2488.0035 3887.7606 2557.5841 3846.5885 2556.941 3832.7306 2574.6983 3766.0763 2538.1364 3652.2967 2556.6826 3667.2543 2476.2595 3687.8416 2479.6954 3695.2126 2449.2773 3705.6203 2449.7278 3712.745 2405.0276 3709.0441 2404.3402 3717.5627 2366.5515 3733.7525 2368.6083 3741.1176 2334.7381 3730.4516 2306.6463 3861.0786 2287.1547 3890.7717 2367.0521 Z" fill="none" stroke="#12852D" opacity="0.4608294930875576" stroke-width="1" class="woodside"/>
<path d="M 3714.4591 2268.8552 3770.2787 2249.8283 3879.0933 2336.173 3891.5332 2358.5045 3901.3709 2380.8531 3908.1969 2406.4907 3904.5217 2427.2288 3907.8593 2452.3783 3886.8164 2449.6912 3857.8857 2440.2162 3838.6537 2433.522 3815.6895 2422.8537 3793.8635 2416.1598 3773.6587 2407.3251 3754.8032 2400.3971 3735.4778 2375.0869 3740.5376 2348.1295 3791.7381 2325.4203 3736.2605 2236.0258 3728.6005 2304.5439 3714.4591 2268.8552 Z" fill="none" stroke="#12852D" opacity="0.4608294930875576" stroke-width="1" class="woodside"/>
<path d="M 3701.7198 2481.0641 3764.356 2442.4105 3663.8674 2441.2443 3759.2402 2415.9225 3759.0119 2418.8024 3760.8703 2426.6332 3780.6546 2436.7488 3775.5734 2443.0897 3701.7198 2481.0641 Z" fill="none" stroke="#12852D" opacity="0.4608294930875576" stroke-width="1" class="woodside"/>
<path d="M 3718.0568 2627.126 3725.2013 2373.6851 3741.8106 2334.0463 3776.9321 2308.21 3878.7433 2364.302 3892.6657 2403.9084 3893.6888 2485.9228 3900.4128 2692.3674 3718.0568 2627.126 Z" fill="none" stroke="#12852D" opacity="0.4608294930875576" stroke-width="1" class="woodside"/>
<path d="M 3770.4506 2301.7672 4087.9501 2474.612 3971.7044 2724.5413 3748.6846 2717.4255 3648.661 2626.2717 3592.1899 2592.2206 3770.4506 2301.7672 Z" fill="none" stroke="#12852D" opacity="0.4608294930875576" stroke-width="1" class="woodside"/>
<path d="M 3775.8994 2207.5545 3916.2289 2382.9165 3840.7355 2494.9699 3659.3646 2448.6208 3775.8994 2207.5545 Z" fill="none" stroke="#12852D" opacity="0.4608294930875576" stroke-width="1" class="woodside"/>
<path d="M 3828.6569 2243.658 3948.3071 2514.4249 3610.6376 2528.6115 3668.8413 2442.8522 3731.6009 2299.965 3828.6569 2243.658 Z" fill="none" stroke="#12852D" opacity="0.4608294930875576" stroke-width="1" class="woodside"/>
<path d="M 3759.0577 2242.5822 3744.7644 2283.5971 3705.6639 2261.2939 3726.9047 2229.717 3759.0577 2242.5822 Z" fill="none" stroke="#12852D" opacity="0.4608294930875576" stroke-width="1" class="woodside"/>
<path d="M 3595.1789 2550.6011 3604.7208 2476.1559 3661.6194 2445.9785 3685.6661 2293.2065 3705.8656 2259.5155 3768.0878 2299.9984 3881.5526 2283.747 3887.7198 2338.4221 3900.5449 2353.9997 3891.4739 2354.72 3892.91 2366.4114 3943.9426 2492.1719 3941.6554 2512.7329 3907.1391 2511.8905 3906.0967 2531.5633 3783.33 2528.6899 3765.5487 2537.925 3741.8885 2541.3183 3631.5953 2559.1487 3595.1789 2550.6011 Z" fill="none" stroke="#12852D" opacity="0.4608294930875576" stroke-width="1" class="woodside"/>
<path d="M 3757.513 2312.8376 3893.4377 2275.8299 3877.726 2285.9835 3981.2899 2263.7432 4031.2449 2271.0484 4015.6299 2353.0734 4012.8488 2348.4699 3988.9112 2435.1196 3987.1374 2494.1007 3940.8955 2506.1399 3893.7097 2503.4327 3827.0744 2481.3923 3793.7519 2464.8412 3738.7152 2471.8112 3741.9264 2446.0048 3742.8133 2409.1436 3745.5574 2379.1929 3755.7029 2350.8478 3754.9853 2328.0434 3758.4423 2316.9829 3757.9803 2317.4441 3757.513 2312.8376 Z" fill="none" stroke="#12852D" opacity="0.4608294930875576" stroke-width="1" class="woodside"/>
<path d="M 3859.4281 2459.2382 3748.4313 2474.105 3631.8599 2466.8468 3589.2984 2459.5125 3616.9102 2302.8396 3677.9603 2306.4681 3755.6698 2319.2893 3829.6711 2322.8944 3866.7236 2368.9233 3859.4281 2459.2382 Z" fill="none" stroke="#12852D" opacity="0.4608294930875576" stroke-width="1" class="woodside"/>
<path d="M 3670.6919 2443.3112 3687.2463 2343.7761 3737.6382 2324.3758 3816.3545 2408.6039 3889.0039 2436.1653 3887.2118 2485.009 3670.6919 2443.3112 Z" fill="none" stroke="#12852D" opacity="0.4608294930875576" stroke-width="1" class="woodside"/>
<path d="M 3922.7088 2009.5587 3954.1635 2022.4151 4000.1122 2511.5938 3557.821 2430.9722 3579.9178 2309.322 3869.8953 1917.5162 3936.5295 1969.9351 3922.7088 2009.5587 Z" fill="none" stroke="#12852D" opacity="0.4608294930875576" stroke-width="1" class="woodside"/>
<path d="M 3653.3086 2501.3854 3677.903 2342.8177 3685.7181 2294.2983 3851.0886 2286.5674 4090.4365 2532.4838 3653.3086 2501.3854 Z" fill="none" stroke="#12852D" opacity="0.4608294930875576" stroke-width="1" class="woodside"/>
<path d="M 3894.3901 2685.6918 3829.1572 2687.8415 3762.4977 2653.8098 3715.7413 2624.8241 3759.9858 2465.1078 3888.3707 2487.0811 4080.4032 2535.9078 3894.3901 2685.6918 Z" fill="none" stroke="#12852D" opacity="0.4608294930875576" stroke-width="1" class="woodside"/>
<path d="M 3712.3074 2429.9084 3739.01 2309.1713 3864.7748 2284.156 3946.194 2304.328 3922.3813 2496.9469 3797.6568 2651.9285 3649.5724 2611.5238 3668.8501 2452.0675 3712.3074 2429.9084 Z" fill="none" stroke="#12852D" opacity="0.4608294930875576" stroke-width="1" class="woodside"/>
<path d="M 3722.1302 2081.632 3794.2703 2091.689 3852.7529 2286.0126 3924.1671 2444.4165 3970.5355 2533.7504 3887.295 2555.0502 3734.6453 2562.5923 3756.7467 2463.9593 3557.821 2430.9722 3575.3002 2317.6185 3722.1302 2081.632 Z" fill="none" stroke="#12852D" opacity="0.4608294930875576" stroke-width="1" class="woodside"/>
<path d="M 3684.8865 2295.1744 3731.6057 2304.572 3790.332 2297.139 3785.9059 2266.969 3782.6453 2245.321 3832.5794 2236.283 3877.8175 2363.612 3890.4099 2451.5991 3888.6014 2486.6201 3856.2139 2479.7463 3854.8632 2511.7725 3805.364 2508.6028 3743.4126 2541.1554 3761.603 2463.4934 3679.4865 2449.7534 3697.6515 2342.8444 3673.1416 2345.1719 3684.8865 2295.1744 Z" fill="none" stroke="#12852D" opacity="0.4608294930875576" stroke-width="1" class="woodside"/>
<path d="M 3672.5399 2441.0057 3757.45 2252.9489 4070.0634 2250.7259 3981.672 2560.4632 3648.5704 2529.4984 3672.5399 2441.0057 Z" fill="none" stroke="#12852D" opacity="0.4608294930875576" stroke-width="1" class="woodside"/>
<path d="M 3729.7558 2304.5738 3861.0794 2287.8457 3871.9824 2317.7781 3882.0217 2398.8529 3934.9721 2392.1081 3953.838 2498.5206 3938.8472 2532.8687 3887.0361 2531.7796 3782.7191 2528.4418 3655.5305 2552.0714 3683.64 2440.0734 3696.9587 2343.7665 3717.7749 2347.6618 3742.0476 2339.5746 3729.7558 2304.5738 Z" fill="none" stroke="#12852D" opacity="0.4608294930875576" stroke-width="1" class="woodside"/>
<path d="M 3892.2268 2036.3079 3918.0855 2009.5643 3955.0881 2022.4139 4012.934 2412.9721 3898.2691 2448.134 3765.0131 2407.7382 3737.2274 2374.5942 3709.3608 2258.5262 3726.4432 2230.6388 3750.9123 2192.1494 3797.0722 2117.0188 3892.2268 2036.3079 Z" fill="none" stroke="#12852D" opacity="0.4608294930875576" stroke-width="1" class="woodside"/>
<path d="M 3731.6066 2305.4933 3801.7764 2190.2523 3867.1167 2309.4912 3881.9683 2353.7016 3901.4747 2421.4062 3854.8228 2476.7529 3817.3904 2508.1287 3743.8716 2537.6989 3760.4481 2464.8769 3737.3982 2540.4704 3653.2171 2551.6128 3684.4861 2358.9824 3731.6066 2305.4933 Z" fill="none" stroke="#12852D" opacity="0.4608294930875576" stroke-width="1" class="woodside"/>
<path d="M 3851.3671 2287.3963 3886.0482 2284.131 3886.0471 2283.2096 3889.0692 2490.997 3889.5312 2490.5356 3891.8495 2495.1407 3876.223 2580.8693 3881.7754 2581.7844 3763.3364 2571.7788 3764.2625 2572.6995 3651.2694 2447.9373 3664.1343 2357.1591 3662.2843 2357.1609 3732.037 2274.1662 3729.7233 2272.7865 3849.9797 2287.3979 3851.3671 2287.3963 Z" fill="none" stroke="#12852D" opacity="0.4608294930875576" stroke-width="1" class="woodside"/>
<path d="M 3679.486 2449.2927 3932.8888 2390.4981 4185.7259 2591.5144 3931.4159 2696.0167 3797.6906 2682.8068 3724.5402 2633.5713 3641.7009 2604.1577 3679.486 2449.2927 Z" fill="none" stroke="#12852D" opacity="0.4608294930875576" stroke-width="1" class="woodside"/>
<path d="M 3876.1095 2544.9182 3640.8649 2583.5758 3651.3107 2239.5053 3861.0249 2306.1453 3876.1095 2544.9182 Z" fill="none" stroke="#12852D" opacity="0.4608294930875576" stroke-width="1" class="woodside"/>
<path d="M 3717.7744 2347.2011 3736.278 2350.868 3742.0445 2336.58 3730.4495 2304.5731 3768.3685 2300.8481 3875.9637 2360.3891 3888.5507 2443.9987 3853.8974 2476.5236 3704.0046 2452.9547 3717.7744 2347.2011 Z" fill="none" stroke="#12852D" opacity="0.4608294930875576" stroke-width="1" class="woodside"/>
<path d="M 3776.9213 2298.0748 3859.2306 2288.7693 3902.8557 2415.8756 3861.2922 2471.2161 3744.7958 2536.7763 3761.3712 2463.0329 3671.6166 2442.8496 3690.0118 2334.0985 3776.9213 2298.0748 Z" fill="none" stroke="#12852D" opacity="0.4608294930875576" stroke-width="1" class="woodside"/>
<path d="M 3853.6757 2284.1688 3869.5015 2289.7715 3880.1775 2338.6538 3895.433 2367.5349 3897.0499 2397.2766 3891.094 2447.4523 3839.549 2436.0174 3803.7618 2418.3099 3751.3723 2414.869 3720.6228 2423.4244 3676.199 2441.4355 3672.8202 2443.7036 3686.3388 2361.7449 3717.4779 2267.175 3698.5477 2298.0597 3759.761 2197.5305 3803.6924 2129.6591 3864.9543 2180.7758 3845.2997 2239.0325 3853.6757 2284.1688 Z" fill="none" stroke="#12852D" opacity="0.4608294930875576" stroke-width="1" class="woodside"/>
<path d="M 3733.2886 2367.2266 3737.2082 2355.9349 3739.9606 2334.0482 3731.378 2308.0274 3733.6863 2304.1091 3857.3796 2287.85 3867.3461 2307.8785 3869.2049 2315.4778 3872.4692 2338.5092 3883.1374 2364.5272 3892.4147 2387.3222 3898.4456 2402.5193 3900.0777 2413.5752 3898.7037 2424.8652 3889.7002 2438.2379 3878.6131 2450.0004 3860.5941 2467.5307 3844.8878 2485.5191 3831.4849 2495.6716 3814.8444 2506.5188 3799.356 2513.6781 3779.0143 2524.5289 3760.9837 2534.225 3745.4887 2535.854 3753.3252 2509.5803 3761.6032 2463.7238 3693.1339 2452.0439 3698.4044 2402.7382 3709.0432 2403.4187 3714.7955 2374.3867 3717.7925 2365.1691 3733.2886 2367.2266 Z" fill="none" stroke="#12852D" opacity="0.4608294930875576" stroke-width="1" class="woodside"/>
<path d="M 3655.785 2331.3671 3665.9527 2323.9862 3779.6724 2275.959 3977.7701 2403.803 3804.9435 2546.8498 3655.785 2331.3671 Z" fill="none" stroke="#12852D" opacity="0.4608294930875576" stroke-width="1" class="woodside"/>
<path d="M 3853.218 2288.3155 3882.5333 2440.3198 3842.8883 2557.406 3777.6999 2592.9616 3723.6018 2620.6685 3644.9337 2598.1638 3667.0048 2457.1377 3674.3927 2443.7684 3736.699 2310.5558 3853.218 2288.3155 Z" fill="none" stroke="#12852D" opacity="0.4608294930875576" stroke-width="1" class="woodside"/>
<path d="M 3718.225 2353.7088 3809.2701 2322.955 3804.5105 2322.3797 3886.8884 2369.2783 4052.323 2465.2274 4074.1919 2530.172 3891.4187 2690.9217 3773.0145 2671.047 3530.6739 2531.6049 3718.225 2353.7088 Z" fill="none" stroke="#12852D" opacity="0.4608294930875576" stroke-width="1" class="woodside"/>
<path d="M 3732.9931 2304.5705 3855.0652 2286.01 3895.4282 2393.3081 3899.6263 2422.7907 3872.1453 2456.6891 3858.0554 2472.1414 3760.4379 2455.2008 3732.9931 2304.5705 Z" fill="none" stroke="#12852D" opacity="0.4608294930875576" stroke-width="1" class="woodside"/>
<path d="M 3735.2222 2223.4896 3779.5952 2204.0957 3830.4994 2237.2067 3889.4829 2449.9876 3733.0993 2408.2322 3719.6237 2346.5082 3723.694 2255.7477 3727.3702 2232.7108 3735.2222 2223.4896 Z" fill="none" stroke="#12852D" opacity="0.4608294930875576" stroke-width="1" class="woodside"/>
<path d="M 3937.0497 2389.1108 3886.9863 2295.1863 3973.9095 2278.4944 4073.7757 2259.9342 4157.0282 2267.1859 4183.0309 2337.1726 4209.0318 2403.4777 4192.4506 2449.5783 4109.2815 2512.3663 3892.7824 2501.5906 3889.0467 2472.105 3922.2943 2425.9885 3937.0497 2389.1108 Z" fill="none" stroke="#12852D" opacity="0.4608294930875576" stroke-width="1" class="woodside"/>
<path d="M 3687.3439 2443.7559 4286.6288 2337.0113 4357.2428 2523.9616 4212.0907 2588.7094 3687.3439 2443.7559 Z" fill="none" stroke="#12852D" opacity="0.4608294930875576" stroke-width="1" class="woodside"/>
<path d="M 3633.4479 2181.6701 4012.5907 2153.147 4084.9879 2341.0004 4090.7189 2470.0004 3966.8337 2532.8335 3766.9903 2527.537 3626.3008 2457.6364 3566.9771 2319.4684 3633.4479 2181.6701 Z" fill="none" stroke="#12852D" opacity="0.4608294930875576" stroke-width="1" class="woodside"/>
<path d="M 3895.3559 2487.5059 3727.4944 2321.8818 4000.7952 2279.8564 4082.5562 2543.2925 3895.3559 2487.5059 Z" fill="none" stroke="#12852D" opacity="0.4608294930875576" stroke-width="1" class="woodside"/>
<path d="M 3662.282 2439.4047 3680.5101 2296.582 3722.1506 2234.1054 3832.3544 2241.8112 3869.4533 2330.22 3889.9345 2440.7718 3850.1983 2477.6798 3662.282 2439.4047 Z" fill="none" stroke="#12852D" opacity="0.4608294930875576" stroke-width="1" class="woodside"/>
<path d="M 3697.6089 2345.82 3798.4958 2345.5381 3884.2019 2367.8836 3897.4593 2394.7989 3932.9711 2392.1862 3968.2697 2410.2377 4005.4824 2435.133 4029.7802 2445.9286 4048.5812 2462.8516 4079.3433 2495.2776 4090.75 2514.6817 4084.3601 2534.1754 3854.8653 2473.8668 3814.8589 2469.5709 3682.4192 2444.9149 3697.6089 2345.82 Z" fill="none" stroke="#12852D" opacity="0.4608294930875576" stroke-width="1" class="woodside"/>
<path d="M 3744.3351 2538.62 3772.876 2407.7298 3756.6804 2400.8358 3741.4015 2385.6474 3733.5217 2369.0693 3740.4255 2336.3513 3731.6061 2305.0327 3746.3852 2285.6685 3769.9852 2299.0036 3777.8462 2298.0738 3789.383 2275.0271 3799.9272 2190.715 3792.0361 2163.0857 3834.6624 2238.1233 3857.377 2285.5466 3870.8203 2312.7117 3873.626 2338.9686 3887.0678 2363.8314 3901.4492 2400.212 3900.0877 2421.8687 3889.0094 2440.7729 3889.946 2450.4478 3889.0604 2483.6244 3854.3608 2477.2142 3830.3316 2498.4376 3783.1763 2523.3725 3744.3351 2538.62 Z" fill="none" stroke="#12852D" opacity="0.4608294930875576" stroke-width="1" class="woodside"/>
<path d="M 3739.9331 2307.3276 3799.9762 2235.398 3824.0262 2238.1353 3835.2147 2317.3597 3872.3536 2437.1065 3830.7531 2462.0356 3706.7404 2413.327 3739.9331 2307.3276 Z" fill="none" stroke="#12852D" opacity="0.4608294930875576" stroke-width="1" class="woodside"/>
<path d="M 3732.5325 2306.4138 3799.8773 2145.1129 3812.8213 2142.335 3891.8352 2483.1604 3672.5478 2449.2994 3732.5325 2306.4138 Z" fill="none" stroke="#12852D" opacity="0.4608294930875576" stroke-width="1" class="woodside"/>
<path d="M 3774.8891 2127.6367 3836.159 2130.5632 3948.1087 2540.6908 3670.8567 2615.1904 3774.8891 2127.6367 Z" fill="none" stroke="#12852D" opacity="0.4608294930875576" stroke-width="1" class="woodside"/>
<path d="M 3731.6038 2302.7292 3805.427 2146.0281 3946.4326 2495.074 3733.5264 2373.6766 3731.6038 2302.7292 Z" fill="none" stroke="#12852D" opacity="0.4608294930875576" stroke-width="1" class="woodside"/>
<path d="M 3655.9948 2553.9142 3680.8723 2447.909 3698.8091 2344.2254 3728.8336 2307.339 3708.4359 2258.5271 3797.9929 2113.333 3839.3073 2256.084 3870.3611 2315.4765 3905.1505 2401.129 3952.9224 2506.1248 3976.5959 2570.1469 3962.2481 2564.6354 3933.1053 2565.5935 3886.372 2556.8946 3854.9137 2555.5489 3843.8171 2560.6307 3830.8778 2572.6267 3787.9308 2642.2611 3781.0016 2651.9466 3751.3716 2632.1611 3715.7464 2629.8934 3638.9218 2600.4736 3655.9948 2553.9142 Z" fill="none" stroke="#12852D" opacity="0.4608294930875576" stroke-width="1" class="woodside"/>
<path d="M 3749.6215 2284.7437 3807.0396 2140.7292 3900.3528 2449.9746 3738.3927 2383.3469 3807.9578 2344.1112 3762.6119 2323.889 3759.1496 2329.8819 3740.7024 2380.5801 3806.5703 2344.1127 3749.6215 2284.7437 Z" fill="none" stroke="#12852D" opacity="0.4608294930875576" stroke-width="1" class="woodside"/>
<path d="M 3843.442 2434.6058 3834.9317 2475.8541 3611.485 2441.7535 3624.1286 2357.8874 3869.0229 2357.6329 3843.442 2434.6058 Z" fill="none" stroke="#12852D" opacity="0.4608294930875576" stroke-width="1" class="woodside"/>
<path d="M 3824.0035 2217.8664 3820.3864 2291.5776 3788.1973 2461.1611 3656.8135 2441.0206 3653.0109 2332.2911 3751.9382 2288.8875 3799.8803 2147.8766 3824.0035 2217.8664 Z" fill="none" stroke="#12852D" opacity="0.4608294930875576" stroke-width="1" class="woodside"/>
<path d="M 3793.7641 2214.4394 3978.8252 2267.5165 3943.823 2341.8855 3761.4055 2310.5104 3758.654 2247.414 3793.7641 2214.4394 Z" fill="none" stroke="#12852D" opacity="0.4608294930875576" stroke-width="1" class="woodside"/>
<path d="M 3692.6675 2448.1279 3704.8403 2363.1089 3715.7103 2364.2498 3718.0047 2346.2795 3721.1979 2302.5094 3890.6712 2282.7434 3898.1348 2336.1752 3888.4241 2337.569 3899.5394 2350.4556 3902.5634 2365.195 3888.4586 2366.5941 3905.1605 2409.4224 3910.5296 2450.6534 3914.5067 2487.9712 3692.6675 2448.1279 Z" fill="none" stroke="#12852D" opacity="0.4608294930875576" stroke-width="1" class="woodside"/>
<path d="M 3771.3795 2305.4518 3870.4118 2358.7831 3890.8596 2440.7707 3888.1347 2483.1648 3886.3687 2554.1297 3838.2827 2575.3833 3768.9865 2664.8637 3701.5006 2726.6913 3667.2375 2700.9147 3648.7213 2690.7928 3630.2046 2679.7488 3606.1365 2668.7096 3569.1148 2657.681 3545.9634 2634.6575 3589.3909 2565.4951 3567.1688 2545.2384 3553.2825 2535.1123 3519.0459 2528.689 3534.6934 2430.0699 3547.5986 2374.7703 3619.7276 2349.8289 3743.6596 2333.123 3771.3795 2305.4518 Z" fill="none" stroke="#12852D" opacity="0.4608294930875576" stroke-width="1" class="woodside"/>
<path d="M 3861.074 2283.2389 3988.7011 2272.9472 4019.5465 2516.1761 3742.954 2545.0728 3643.7303 2299.1295 3861.074 2283.2389 Z" fill="none" stroke="#12852D" opacity="0.4608294930875576" stroke-width="1" class="woodside"/>
<path d="M 3761.2604 2357.9831 3860.2875 2402.5643 3842.7884 2469.8551 3742.3927 2449.6904 3761.2604 2357.9831 Z" fill="none" stroke="#12852D" opacity="0.4608294930875576" stroke-width="1" class="woodside"/>
<path d="M 3768.5997 2300.8478 3876.8868 2358.7755 3880.6325 2397.4724 3888.0734 2431.5588 3887.2633 2528.3233 3773.4704 2531.2165 3704.0962 2545.1122 3642.1199 2557.1529 3677.9906 2337.7958 3693.7117 2334.0948 3734.3985 2322.0756 3752.8872 2311.9211 3772.3025 2303.608 3768.5997 2300.8478 Z" fill="none" stroke="#12852D" opacity="0.4608294930875576" stroke-width="1" class="woodside"/>
<path d="M 3683.9636 2297.2484 3919.8036 2280.4048 3935.667 2393.0288 3906.6924 2528.7609 3654.6027 2549.3074 3683.9636 2297.2484 Z" fill="none" stroke="#12852D" opacity="0.4608294930875576" stroke-width="1" class="woodside"/>
<path d="M 3892.2803 2371.6575 3892.0483 2370.9667 3892.5122 2372.118 3992.7218 2430.9679 3889.3626 2446.0712 3905.5241 2423.2444 3892.2803 2371.6575 Z" fill="none" stroke="#12852D" opacity="0.4608294930875576" stroke-width="1" class="woodside"/>
<path d="M 3750.9729 2250.1916 3893.4878 2317.7526 3894.4448 2344.4725 3898.1453 2344.9287 3898.1828 2376.2577 3902.8612 2420.4831 3901.9672 2446.2865 3907.5512 2473.9259 3935.3686 2525.5002 3951.2145 2619.4884 3924.4137 2645.3294 3859.6662 2664.763 3837.4527 2659.258 3713.4656 2662.1558 3704.1686 2617.9229 3739.2352 2527.566 3720.6964 2492.5647 3735.4115 2407.769 3722.3113 2260.3559 3733.4726 2321.1552 3893.4884 2318.2133 3886.069 2301.6371 3871.2126 2252.8225 3867.455 2203.0759 3849.1905 2204.2487 3840.8684 2205.6401 3846.6506 2207.2458 3833.2391 2206.3398 3836.9349 2203.1111 3811.9558 2195.7688 3798.0992 2210.5247 3789.7885 2222.5107 3780.5448 2227.1272 3768.5312 2236.3532 3750.9729 2250.1916 Z" fill="none" stroke="#12852D" opacity="0.4608294930875576" stroke-width="1" class="woodside"/>
<path d="M 3675.3196 2445.6106 3768.5341 2239.1172 3767.6151 2244.6461 3818.478 2239.0628 3881.5172 2363.3773 3896.3902 2424.1769 3851.116 2471.2278 3675.3196 2445.6106 Z" fill="none" stroke="#12852D" opacity="0.4608294930875576" stroke-width="1" class="woodside"/>
<path d="M 3796.1218 2093.5294 3906.1929 2115.5114 3846.2256 2239.9528 3883.3422 2342.1821 3900.0429 2384.5486 3902.8546 2414.9541 3825.2459 2500.7473 3791.9969 2552.3937 3772.6052 2587.4371 3741.1484 2588.3918 3730.0429 2585.6382 3765.0736 2464.872 3692.9035 2452.9657 3703.9561 2404.1149 3717.7918 2364.4781 3751.0777 2350.6223 3747.3317 2306.3985 3686.2741 2295.4034 3796.1218 2093.5294 Z" fill="none" stroke="#12852D" opacity="0.4608294930875576" stroke-width="1" class="woodside"/>
<path d="M 3777.7375 2196.7274 3933.0453 2143.1151 3970.9805 2157.8073 3981.1641 2166.0855 4009.8637 2189.0797 4020.9777 2201.0416 4042.3053 2242.4719 4048.807 2262.7325 4052.5607 2302.3461 4060.9434 2344.7194 4048.9411 2361.3216 4040.6247 2367.783 4036.0046 2371.475 4011.9579 2374.2715 4000.8649 2379.8148 3983.2978 2386.2879 3860.2763 2392.8888 3820.5048 2397.5415 3669.6834 2356.2324 3666.809 2252.1184 3674.1781 2220.7864 3679.7148 2207.8829 3681.5582 2201.4321 3684.3229 2191.2953 3685.2361 2179.3178 3687.9889 2157.205 3702.7694 2140.6082 3714.7851 2134.1476 3728.6569 2134.1336 3741.6238 2153.4661 3750.8882 2169.1177 3763.862 2193.9783 3777.7375 2196.7274 Z" fill="none" stroke="#12852D" opacity="0.4608294930875576" stroke-width="1" class="woodside"/>
<path d="M 3916.6664 2362.4136 3885.7208 2397.9271 3847.7957 2399.3535 3781.1995 2405.8779 3743.6768 2349.7086 3803.7396 2293.4388 3916.6664 2362.4136 Z" fill="none" stroke="#12852D" opacity="0.4608294930875576" stroke-width="1" class="woodside"/>
<path d="M 3831.468 2275.9019 3972.9504 2251.7765 4047.1811 2427.6702 3592.9625 2418.0411 3831.468 2275.9019 Z" fill="none" stroke="#12852D" opacity="0.4608294930875576" stroke-width="1" class="woodside"/>
<path d="M 3681.3313 2444.2225 3777.7296 2404.9602 3736.9893 2367.9139 3772.5352 2304.9899 3790.1205 2315.3366 3874.1156 2362.0038 3886.925 2438.2412 3863.5969 2464.3018 3849.2726 2477.22 3754.9621 2526.6281 3765.0609 2452.8921 3681.3313 2444.2225 Z" fill="none" stroke="#12852D" opacity="0.4608294930875576" stroke-width="1" class="woodside"/>
<path d="M 3853.6757 2284.1688 3884.3196 2386.4103 3880.6292 2394.7079 3669.769 2445.6159 3687.1991 2295.4025 3690.8988 2295.3989 3853.6757 2284.1688 Z" fill="none" stroke="#12852D" opacity="0.4608294930875576" stroke-width="1" class="woodside"/>
<path d="M 3882.3485 2284.1353 3917.7488 2491.4232 3740.1718 2538.6243 3655.9714 2529.0306 3701.0344 2256.2311 3755.5084 2165.4279 3791.14 2189.573 3882.8148 2287.3596 3882.3485 2284.1353 Z" fill="none" stroke="#12852D" opacity="0.4608294930875576" stroke-width="1" class="woodside"/>
<path d="M 3865.7019 2285.9976 3901.9328 2417.7197 3864.0718 2474.8991 3559.6727 2432.8137 3581.7701 2312.0845 3633.4813 2218.0608 3728.5939 2072.4137 3783.1654 2084.3317 3910.8167 2115.5058 3856.3504 2197.5611 3865.7019 2285.9976 Z" fill="none" stroke="#12852D" opacity="0.4608294930875576" stroke-width="1" class="woodside"/>
<path d="M 3737.3085 2453.3818 3752.9253 2348.3168 3888.0082 2376.7306 3871.9364 2475.8114 3737.3085 2453.3818 Z" fill="none" stroke="#12852D" opacity="0.4608294930875576" stroke-width="1" class="woodside"/>
<path d="M 3963.0134 2438.6085 3962.5527 2439.9914 3903.1305 2452.0447 3753.9055 2401.0691 3732.8291 2370.2218 3742.0421 2334.2764 3731.1455 2306.8759 3771.1446 2301.9969 3957.655 2407.5146 3961.8571 2438.61 3963.0134 2438.6085 Z" fill="none" stroke="#12852D" opacity="0.4608294930875576" stroke-width="1" class="woodside"/>
<path d="M 4003.7089 2432.3358 4029.1706 2448.8894 4026.8917 2474.2348 4036.6185 2483.8981 4010.2919 2513.8844 3943.6641 2500.6069 3963.1411 2539.2895 3884.5216 2556.8968 3826.2539 2574.4752 3787.3729 2554.242 3770.7655 2597.5774 3729.1139 2581.9525 3760.449 2465.7985 3666.0687 2445.6195 3716.0026 2424.8364 3720.6093 2406.4019 3709.0438 2404.1098 3717.3284 2363.5571 3717.7728 2345.5886 3738.1244 2347.4107 3740.4231 2334.0477 3731.1427 2304.1117 3858.3019 2285.5455 3909.6283 2279.4958 3949.8562 2274.3787 3964.3358 2387.2336 3968.5308 2412.569 4003.7089 2432.3358 Z" fill="none" stroke="#12852D" opacity="0.4608294930875576" stroke-width="1" class="woodside"/>
<path d="M 3681.7943 2444.6828 3708.4787 2301.3705 3860.151 2284.8524 3901.4742 2420.9455 3855.0559 2478.3653 3680.1801 2449.5224 3681.7943 2444.6828 Z" fill="none" stroke="#12852D" opacity="0.4608294930875576" stroke-width="1" class="woodside"/>
<path d="M 3650.2258 2363.9251 3648.7378 2363.8345 3652.207 2364.292 3652.0973 2361.5165 3651.5082 2358.8223 3650.6962 2356.0587 3648.4043 2351.8757 3648.8621 2346.8074 3648.6261 2341.7398 3648.553 2339.6955 3653.1727 2334.1626 3652.246 2332.3207 3659.8775 2332.7742 3667.0438 2330.4638 3672.1305 2329.7679 3676.9833 2326.3079 3679.6208 2318.1245 3683.0867 2315.3569 3679.8425 2308.2192 3684.0417 2295.7746 3693.5221 2295.535 3708.329 2303.3521 3714.0221 2301.5822 3726.9737 2303.8725 3740.4785 2305.6971 3762.144 2302.5081 3766.9987 2301.3512 3800.0575 2321.7664 3840.5399 2345.0055 3867.119 2360.0233 3876.9783 2362.2683 3893.3772 2394.7006 3892.4785 2427.8079 3889.0007 2451.3142 3885.3092 2511.0782 3882.2446 2556.4603 3853.0972 2553.2686 3843.9407 2556.9984 3828.2258 2568.9975 3771.6827 2593.9699 3737.7995 2547.4218 3759.9292 2476.4364 3665.5426 2450.728 3637.1828 2445.6917 3650.2258 2363.9251 Z" fill="none" stroke="#12852D" opacity="0.4608294930875576" stroke-width="1" class="woodside"/>
<path d="M 3684.5642 2439.151 3799.2481 2415.0732 3900.9867 2400.2125 3987.0861 2454.474 3987.1767 2524.5129 3972.4401 2576.143 3842.8982 2566.1615 3748.4792 2520.1836 3684.5642 2439.151 Z" fill="none" stroke="#12852D" opacity="0.4608294930875576" stroke-width="1" class="woodside"/>
<path d="M 3703.0072 2380.1576 3849.9929 2298.9151 4026.6597 2300.5383 4083.4428 2559.405 3768.7809 2471.3189 3703.9964 2444.661 3703.0072 2380.1576 Z" fill="none" stroke="#12852D" opacity="0.4608294930875576" stroke-width="1" class="woodside"/>
<path d="M 3580.0116 2418.0523 3744.403 2158.0695 4107.0409 2237.7755 3958.6666 2659.1127 3491.3248 2572.9487 3580.0116 2418.0523 Z" fill="none" stroke="#12852D" opacity="0.4608294930875576" stroke-width="1" class="woodside"/>
<path d="M 3849.5875 1946.0916 4004.0837 2013.1398 4014.3709 2100.6353 4063.053 2533.6278 3572.6238 2432.8027 3561.5081 2415.3036 3564.27 2399.636 3568.8741 2374.7525 3572.5253 2317.6209 3737.8269 2058.5869 3837.5772 1954.3947 3849.5875 1946.0916 Z" fill="none" stroke="#12852D" opacity="0.4608294930875576" stroke-width="1" class="woodside"/>
<path d="M 3676.5068 2477.6329 3679.7207 2452.7482 3689.8437 2398.5999 3694.4295 2358.512 3717.0955 2361.9448 3728.8329 2306.6479 3756.9811 2246.7303 3829.807 2238.3591 3834.201 2239.0451 3750.8959 2176.4878 3891.4659 2173.5668 3871.7652 2329.7566 3926.0232 2449.2522 3926.5441 2496.7114 3926.6291 2565.8319 3882.6718 2557.3598 3830.8763 2571.2442 3766.9971 2533.9882 3651.8323 2554.8398 3655.9822 2540.5507 3666.0973 2475.5694 3676.5068 2477.6329 Z" fill="none" stroke="#12852D" opacity="0.4608294930875576" stroke-width="1" class="woodside"/>
<path d="M 3659.5983 2451.1548 3750.9959 2272.3039 3833.3022 2262.0795 3884.4987 2537.5427 3567.1461 2518.5118 3659.5983 2451.1548 Z" fill="none" stroke="#12852D" opacity="0.4608294930875576" stroke-width="1" class="woodside"/>
<path d="M 3753.6858 2191.2252 4000.6358 2204.7536 3976.9101 2454.4871 3716.0067 2428.9832 3753.6858 2191.2252 Z" fill="none" stroke="#12852D" opacity="0.4608294930875576" stroke-width="1" class="woodside"/>
<path d="M 3545.8826 2536.9617 3561.5221 2431.8906 3573.4905 2364.6126 3713.1335 2331.3113 3762.0677 2246.4947 3828.6476 2235.3661 3854.6006 2284.1678 3887.9901 2361.5267 3886.2834 2482.2454 3893.9245 2683.1576 3879.1345 2696.0798 3606.0438 2564.5588 3545.8826 2536.9617 Z" fill="none" stroke="#12852D" opacity="0.4608294930875576" stroke-width="1" class="woodside"/>
<path d="M 3856.4664 2297.9862 3898.3045 2477.6233 3679.0226 2448.3716 3687.155 2250.2561 3856.4664 2297.9862 Z" fill="none" stroke="#12852D" opacity="0.4608294930875576" stroke-width="1" class="woodside"/>
<path d="M 3663.0646 2448.1565 3662.1358 2444.2409 3674.0785 2357.6103 3686.5045 2294.4818 3707.5142 2261.7528 3746.847 2284.977 3772.8932 2207.0971 3790.9298 2208.9202 3858.2097 2205.8505 3851.0744 2233.9586 3860.3849 2287.1555 3869.8883 2306.7238 3875.9493 2348.1801 3891.9445 2380.8725 3904.4645 2407.5802 3891.5493 2437.3142 3869.8385 2461.7603 3846.7375 2485.0562 3817.1588 2507.8986 3791.2682 2520.3685 3763.9915 2535.1434 3721.6717 2542.0993 3672.8772 2551.3637 3639.5746 2556.0032 3625.6937 2552.7903 3627.5182 2524.449 3630.7322 2498.1808 3642.9909 2498.8607 3651.0436 2453.697 3663.0646 2448.1565 Z" fill="none" stroke="#12852D" opacity="0.4608294930875576" stroke-width="1" class="woodside"/>
<path d="M 3698.4604 2459.411 3708.6154 2438.2058 3728.9446 2416.0691 3762.1601 2334.025 3785.2498 2301.7514 3896.3284 2372.5741 3964.988 2536.5223 3834.5797 2573.5442 3777.2284 2584.6672 3744.8369 2576.4064 3742.965 2555.6715 3764.1539 2469.9415 3698.4604 2459.411 Z" fill="none" stroke="#12852D" opacity="0.4608294930875576" stroke-width="1" class="woodside"/>
<path d="M 3836.9976 2258.39 3844.8688 2266.6731 3869.4022 2286.454 3894.388 2297.0203 3925.8632 2319.0955 3954.5743 2348.5451 3949.9643 2360.5295 3926.88 2393.7307 3922.3034 2433.3605 3890.402 2444.9181 3844.6001 2436.2171 3783.0466 2403.1115 3775.1404 2362.5756 3791.295 2332.151 3799.6061 2319.7029 3836.9976 2258.39 Z" fill="none" stroke="#12852D" opacity="0.4608294930875576" stroke-width="1" class="woodside"/>
<path d="M 3789.2822 2395.2722 3795.9857 2392.5004 3818.6527 2395.7006 3817.0544 2414.1321 3785.8287 2409.5589 3789.2822 2395.2722 Z" fill="none" stroke="#12852D" opacity="0.4608294930875576" stroke-width="1" class="woodside"/>
<path d="M 3729.7543 2303.1918 3711.9119 2266.1248 3727.4429 2304.1155 3747.7235 2238.4481 3769.1896 2203.1855 3783.5004 2180.5989 3802.6527 2146.0311 3842.8334 2104.0709 3916.1439 2123.5599 3874.3613 2177.5024 3869.5388 2205.607 3863.7925 2234.8652 3867.0546 2256.2823 3871.7145 2286.4513 3875.2125 2311.5548 3881.7196 2338.9591 3891.4638 2365.6691 3903.0634 2396.2938 3929.0281 2447.8662 3946.6647 2495.7649 3964.2982 2539.7488 3906.7188 2550.6492 3885.9089 2556.4343 3889.811 2531.3155 3785.959 2530.0511 3752.6608 2537.6898 3636.1047 2555.5456 3626.1563 2552.7899 3639.2648 2471.2173 3669.1043 2476.0273 3671.6259 2452.5256 3685.1828 2361.9764 3695.5884 2361.2751 3698.8089 2343.9951 3739.2831 2349.7131 3729.7543 2303.1918 Z" fill="none" stroke="#12852D" opacity="0.4608294930875576" stroke-width="1" class="woodside"/>
<path d="M 3912.5422 2393.9786 3915.5778 2417.9335 3930.1441 2415.1512 3933.8799 2443.9437 3929.2579 2446.714 3951.5289 2501.5187 3784.7319 2464.6206 3664.2196 2446.7731 3685.7071 2425.3272 3735.6444 2409.3814 3740.4736 2382.884 3766.5201 2302.2321 3912.5422 2393.9786 Z" fill="none" stroke="#12852D" opacity="0.4608294930875576" stroke-width="1" class="woodside"/>
<path d="M 3675.3222 2448.3752 3686.3074 2329.495 3792.6694 2320.1712 3896.2931 2343.0881 3962.9763 2409.3508 3919.6194 2508.0093 3817.9187 2567.1114 3680.1262 2632.6937 3678.9049 2326.738 3675.3222 2448.3752 Z" fill="none" stroke="#12852D" opacity="0.4608294930875576" stroke-width="1" class="woodside"/>
<path d="M 3859.9342 2478.4537 3841.4475 2492.2984 3818.3459 2516.2855 3775.8064 2532.9208 3734.1783 2537.5725 3708.2908 2555.1095 3674.9829 2554.2205 3649.0792 2556.0884 3644.4429 2545.0332 3648.4384 2530.8035 3659.5143 2503.1452 3665.1862 2490.3153 3672.111 2476.0245 3686.912 2475.0886 3690.1381 2463.1053 3668.3836 2447.9211 3691.4982 2434.9974 3696.3435 2423.4738 3699.3379 2411.261 3699.7899 2400.6635 3703.399 2386.4823 3703.5424 2375.5299 3706.7701 2365.6211 3719.6312 2348.7148 3742.0564 2342.9329 3859.9342 2478.4537 Z" fill="none" stroke="#12852D" opacity="0.4608294930875576" stroke-width="1" class="woodside"/>
<path d="M 3729.7543 2303.1918 3786.1408 2270.4238 3867.2861 2256.5124 3912.4269 2394.2091 3885.4495 2559.1997 3833.6629 2580.9184 3687.0975 2546.7418 3729.7543 2303.1918 Z" fill="none" stroke="#12852D" opacity="0.4608294930875576" stroke-width="1" class="woodside"/>
<path d="M 3696.3431 2423.013 3702.5091 2344.2218 3886.8396 2366.3657 3887.6678 2479.4791 3691.7406 2446.2858 3696.3431 2423.013 Z" fill="none" stroke="#12852D" opacity="0.4608294930875576" stroke-width="1" class="woodside"/>
<path d="M 3804.4393 2509.0646 3743.8701 2536.3165 3661.0804 2550.6837 3697.4216 2344.2268 3706.6283 2300.9116 3849.0563 2288.781 3804.4393 2509.0646 Z" fill="none" stroke="#12852D" opacity="0.4608294930875576" stroke-width="1" class="woodside"/>
<path d="M 3684.4233 2294.4839 3706.8212 2262.4445 3727.5967 2228.104 3758.3681 2246.4986 3760.9121 2246.9565 3786.1127 2244.396 3831.8875 2237.8961 3873.732 2232.32 3880.9652 2287.5921 3887.7301 2337.3394 3885.9143 2366.1364 3895.1906 2388.01 3901.9251 2411.2692 3920.4493 2430.1375 3924.8643 2447.1802 3942.9484 2483.098 3889.062 2485.0068 3855.75 2478.5949 3823.3956 2500.7493 3784.5625 2521.9886 3746.649 2539.5392 3659.2315 2552.2983 3645.3564 2555.3067 3650.1806 2520.0504 3655.2376 2486.6384 3662.8285 2443.0884 3684.4233 2294.4839 Z" fill="none" stroke="#12852D" opacity="0.4608294930875576" stroke-width="1" class="woodside"/>
<path d="M 3655.1604 2551.746 3673.6879 2441.1888 3718.3494 2264.1585 3873.5449 2278.4915 3889.3393 2480.691 3655.1604 2551.746 Z" fill="none" stroke="#12852D" opacity="0.4608294930875576" stroke-width="1" class="woodside"/>
<path d="M 3944.6922 2397.8553 3864.7689 2477.6629 3852.7283 2465.4663 3835.1207 2438.5317 3828.3926 2419.6484 3854.969 2403.0312 3860.0856 2427.9057 3868.2201 2462.223 3887.9056 2485.0082 3902.0019 2475.0846 3921.602 2427.1412 3928.7619 2419.53 3944.6922 2397.8553 Z" fill="none" stroke="#12852D" opacity="0.4608294930875576" stroke-width="1" class="woodside"/>
<path d="M 3770.4516 2302.6886 3877.8074 2355.0887 3887.2074 2481.3227 3693.8322 2456.6509 3643.0785 2593.0964 3507.9446 2529.6194 3654.0477 2451.16 3661.4441 2446.5454 3685.4875 2437.3071 3690.0804 2404.1286 3696.5148 2362.6564 3678.0111 2358.9887 3688.1276 2299.0871 3733.4574 2306.4128 3770.4516 2302.6886 Z" fill="none" stroke="#12852D" opacity="0.4608294930875576" stroke-width="1" class="woodside"/>
<path d="M 3745.7236 2539.3098 3685.351 2297.2471 3898.9029 2398.1417 3806.5179 2506.2976 3745.7236 2539.3098 Z" fill="none" stroke="#12852D" opacity="0.4608294930875576" stroke-width="1" class="woodside"/>
<path d="M 3899.1322 2396.5289 3860.366 2470.2956 3678.0913 2441.9218 3730.6845 2308.2585 3621.5199 2286.2506 3726.7595 2087.1543 3793.3395 2086.163 3846.2826 2289.7055 3899.1322 2396.5289 Z" fill="none" stroke="#12852D" opacity="0.4608294930875576" stroke-width="1" class="woodside"/>
<path d="M 3651.9585 2442.8682 3668.0574 2348.6321 3695.571 2343.5376 3738.3583 2349.9444 3743.6641 2337.4997 3733.2238 2304.1096 3885.8175 2284.5919 3931.5939 2278.3173 3947.2256 2389.5588 3954.4602 2441.6142 3963.2479 2441.1424 3974.4168 2494.117 3970.9575 2501.9548 3904.5607 2487.2921 3829.3792 2474.2476 3779.4088 2461.1706 3717.4199 2454.3236 3651.9585 2442.8682 Z" fill="none" stroke="#12852D" opacity="0.4608294930875576" stroke-width="1" class="woodside"/>
<path d="M 3673.4259 2442.7612 3678.8837 2346.9226 3772.3077 2315.4894 3797.1187 2184.1153 3823.9326 2178.558 3901.8553 2410.1285 3818.9468 2507.6016 3658.0171 2556.6127 3673.4259 2442.7612 Z" fill="none" stroke="#12852D" opacity="0.4608294930875576" stroke-width="1" class="woodside"/>
<path d="M 3733.4556 2304.5701 3905.4695 2282.265 3904.5768 2308.986 3930.7428 2525.5059 3757.6766 2468.566 3733.4556 2304.5701 Z" fill="none" stroke="#12852D" opacity="0.4608294930875576" stroke-width="1" class="woodside"/>
<path d="M 3996.2302 2372.4492 3883.771 2704.3702 3596.7674 2536.9183 3792.2492 2146.5031 3962.6024 2114.5204 3996.2302 2372.4492 Z" fill="none" stroke="#12852D" opacity="0.4608294930875576" stroke-width="1" class="woodside"/>
<path d="M 3885.4901 2203.5153 3942.7392 2500.8385 3746.1814 2534.7013 3673.2386 2446.0734 3728.1505 2317.7053 3712.6088 2269.3488 3880.405 2204.9033 3885.4901 2203.5153 Z" fill="none" stroke="#12852D" opacity="0.4608294930875576" stroke-width="1" class="woodside"/></svg>