<?xml version="1.0"?><svg xmlns="http://www.w3.org/2000/svg" version="1.2" baseProfile="tiny" width="6000" height="5918" viewBox="0 0 6000 5918" stroke-linecap="round" stroke-linejoin="round"><path d="M 1758.9282 4686.5291 1875.9648 4475.1438 2036.3334 4495.598 2022.3356 4611.9563 1851.5754 4770.683 1758.9282 4686.5291 Z" fill="none" stroke="#12852D" opacity="0.6" stroke-width="1" class="arrochar"/>
<path d="M 2060.449 4480.8402 1708.531 4976.5583 1215.7473 4559.2577 1596.2491 4263.3838 2060.449 4480.8402 Z" fill="none" stroke="#12852D" opacity="0.6" stroke-width="1" class="arrochar"/>
<path d="M 2047.6226 4279.53 2185.6396 4424.5937 1929.4766 4767.9837 1784.0003 4652.3794 2047.6226 4279.53 Z" fill="none" stroke="#12852D" opacity="0.6" stroke-width="1" class="arrochar"/>
<path d="M 2082.6856 4499.3266 2074.312 4539.956 2067.7962 4575.0468 1993.6885 4493.7171 1997.4164 4469.7093 1986.3371 4414.2928 2021.5536 4427.2493 2050.2322 4505.7672 2032.5979 4530.6891 2059.475 4543.6392 2071.5231 4550.113 2082.6856 4499.3266 Z" fill="none" stroke="#12852D" opacity="0.6" stroke-width="1" class="arrochar"/>
<path d="M 1933.4882 4424.4056 1936.8357 4439.2991 1936.2747 4418.2903 1944.6039 4434.3423 1938.9201 4440.917 1933.3736 4423.0203 1933.4882 4424.4056 Z" fill="none" stroke="#12852D" opacity="0.6" stroke-width="1" class="arrochar"/>
<path d="M 1994.8593 4194.5487 2007.8575 4165.9399 2204.184 4418.1409 2205.0776 4474.4725 1957.2833 4784.6359 1769.1546 4661.6005 1753.3714 4680.0574 1707.9699 4648.6028 1820.307 4508.3361 1879.7682 4373.569 1994.8593 4194.5487 Z" fill="none" stroke="#12852D" opacity="0.6" stroke-width="1" class="arrochar"/>
<path d="M 2006.6478 4518.6626 1990.2039 4503.4112 1982.8308 4450.5352 1960.8548 4401.8052 2017.1541 4422.3977 2062.3232 4453.8298 2077.3633 4487.548 2006.6478 4518.6626 Z" fill="none" stroke="#12852D" opacity="0.6" stroke-width="1" class="arrochar"/>
<path d="M 2102.1301 4534.4346 2019.5401 4629.5031 1978.8519 4497.399 2058.6024 4470.6805 2102.1301 4534.4346 Z" fill="none" stroke="#12852D" opacity="0.6" stroke-width="1" class="arrochar"/>
<path d="M 1689.4733 4606.0947 1691.3539 4583.0067 1691.3833 4557.1464 1706.2374 4539.6155 1711.8054 4535.004 1745.1793 4537.8112 1756.2941 4547.9822 1757.2016 4566.4546 1689.4733 4606.0947 Z" fill="none" stroke="#12852D" opacity="0.6" stroke-width="1" class="arrochar"/>
<path d="M 1374.7029 4279.7033 1659.2341 4299.4683 1841.7586 4377.2262 1878.7331 4488.9989 1614.345 4626.326 1374.7029 4279.7033 Z" fill="none" stroke="#12852D" opacity="0.6" stroke-width="1" class="arrochar"/>
<path d="M 1916.7247 4510.2745 2071.5089 4569.508 1937.8617 4723.651 1912.0833 4516.735 1916.7247 4510.2745 Z" fill="none" stroke="#12852D" opacity="0.6" stroke-width="1" class="arrochar"/>
<path d="M 1787.06 4383.635 2031.7373 4444.8028 1937.9635 4607.2682 1658.0413 4526.6307 1787.06 4383.635 Z" fill="none" stroke="#12852D" opacity="0.6" stroke-width="1" class="arrochar"/>
<path d="M 2088.2462 4502.1012 2056.6887 4550.102 2035.3479 4571.328 1995.4796 4571.2964 1938.8899 4608.1926 1902.717 4621.0911 1842.5432 4523.1345 1856.4669 4505.6009 1892.6352 4493.6293 1919.5209 4493.6537 1961.2292 4506.6193 1984.4168 4494.633 1983.5263 4450.3049 2005.783 4441.0885 2021.5565 4423.5555 2033.6043 4428.1821 2062.3217 4455.9076 2088.2462 4502.1012 Z" fill="none" stroke="#12852D" opacity="0.6" stroke-width="1" class="arrochar"/>
<path d="M 2005.7819 4442.4737 2009.2641 4435.2042 2017.7216 4437.4042 2018.7594 4443.8692 2016.6661 4453.333 2009.4761 4459.907 1999.0479 4458.398 1996.62 4451.47 1996.2765 4446.3907 1990.8341 4441.4226 1992.6909 4438.1921 1998.8356 4434.3878 2005.9021 4437.0485 2007.7565 4436.7036 2005.7819 4442.4737 Z" fill="none" stroke="#12852D" opacity="0.6" stroke-width="1" class="arrochar"/>
<path d="M 2012.3054 4399.5391 2119.8326 4407.0059 2140.1701 4492.9018 2068.7193 4580.589 1998.2745 4554.6743 1889.8778 4467.7689 1923.3271 4383.7661 1974.3253 4367.189 2012.3054 4399.5391 Z" fill="none" stroke="#12852D" opacity="0.6" stroke-width="1" class="arrochar"/>
<path d="M 2105.1852 4474.4081 2077.3636 4487.2017 2005.8359 4519.4701 1999.7008 4510.8071 1990.7832 4503.6425 1986.2778 4486.323 1983.8724 4452.1522 2002.8858 4441.317 2013.8999 4434.3999 2017.0382 4422.3976 2060.7125 4438.1298 2067.2945 4469.5326 2087.5808 4460.3125 2105.1852 4474.4081 Z" fill="none" stroke="#12852D" opacity="0.6" stroke-width="1" class="arrochar"/>
<path d="M 2096.107 4529.8126 2085.4231 4560.2824 2074.2803 4583.3639 2047.8377 4606.8961 2022.8242 4580.0923 1998.6951 4607.7812 1972.714 4630.8505 1960.9071 4612.8297 1954.8945 4596.1995 1949.5744 4583.0336 1929.4388 4548.3819 1914.6339 4515.5829 1943.618 4502.2175 1957.2909 4504.3071 1973.5163 4503.1665 1983.9593 4487.2446 1978.8865 4455.8419 1988.1654 4445.6915 2008.1013 4440.1669 2012.7509 4422.1634 2037.7749 4429.5705 2059.0911 4436.9742 2061.8544 4460.9864 2071.5723 4483.1572 2091.95 4508.5684 2096.107 4529.8126 Z" fill="none" stroke="#12852D" opacity="0.6" stroke-width="1" class="arrochar"/>
<path d="M 1815.6594 4520.3373 1855.3879 4663.5347 1741.3298 4668.0365 1815.6594 4520.3373 Z" fill="none" stroke="#12852D" opacity="0.6" stroke-width="1" class="arrochar"/>
<path d="M 2050.2664 4460.5159 2056.7517 4466.0617 2059.5398 4456.829 2096.5745 4524.2717 2092.8647 4526.1161 2074.2823 4580.5931 2053.9017 4557.4885 2050.2664 4460.5159 Z" fill="none" stroke="#12852D" opacity="0.6" stroke-width="1" class="arrochar"/>
<path d="M 2095.6807 4477.1719 2097.3024 4478.0965 2075.9728 4487.4316 2061.7138 4494.1165 2005.0259 4517.9687 1998.5419 4510.8061 1990.4359 4503.1805 1986.8475 4498.2136 1987.1986 4493.9427 1988.5918 4490.827 1985.3499 4487.3612 1986.7426 4484.8227 1988.023 4477.8976 1985.9427 4471.0851 1985.2567 4459.7719 1983.5237 4453.4216 1982.4829 4450.8813 1989.3231 4446.9622 1995.5825 4444.7741 1999.9879 4442.469 2002.5377 4441.8939 2006.4774 4442.2434 2009.7236 4440.2836 2012.1604 4436.13 2014.2514 4429.5521 2015.994 4424.0128 2016.575 4422.051 2023.5254 4424.9422 2030.7067 4428.9879 2035.4538 4434.0705 2041.4712 4444.9257 2045.9849 4452.4323 2047.8378 4454.0498 2052.8188 4456.5931 2057.4539 4456.8274 2061.5101 4456.4842 2063.0151 4458.4477 2064.6336 4463.6434 2066.5993 4469.4166 2067.6413 4470.8026 2086.5376 4460.6581 2094.7549 4475.4397 2095.6807 4477.1719 Z" fill="none" stroke="#12852D" opacity="0.6" stroke-width="1" class="arrochar"/>
<path d="M 1509.0486 4319.594 1609.1406 4332.6485 1953.909 4393.9503 1918.3615 4753.1936 1562.4321 4617.0251 1509.0486 4319.594 Z" fill="none" stroke="#12852D" opacity="0.6" stroke-width="1" class="arrochar"/>
<path d="M 1729.6869 4292.1616 2022.5169 4381.079 1985.2396 4621.1627 1657.8381 4700.2717 1729.6869 4292.1616 Z" fill="none" stroke="#12852D" opacity="0.6" stroke-width="1" class="arrochar"/>
<path d="M 1424.4511 4494.0051 1284.8457 4247.2519 1816.9153 4192.5405 1856.5956 4371.7002 1424.4511 4494.0051 Z" fill="none" stroke="#12852D" opacity="0.6" stroke-width="1" class="arrochar"/>
<path d="M 1909.0888 4752.2615 1652.3884 4603.2809 1803.757 4372.5714 2090.0879 4519.6494 1909.0888 4752.2615 Z" fill="none" stroke="#12852D" opacity="0.6" stroke-width="1" class="arrochar"/>
<path d="M 2014.4799 4539.4306 2013.0077 4534.0664 2008.3786 4525.7508 1997.7268 4513.2745 1992.1755 4499.4172 1987.9746 4488.3289 1986.5957 4474.0136 1982.44 4454.6171 1990.6186 4448.269 2004.9945 4439.9695 2015.2059 4422.4322 2021.2366 4415.9729 2027.0907 4418.4629 2042.3791 4428.1709 2058.5956 4436.9559 2064.609 4453.5826 2075.7098 4486.3745 2070.5932 4510.382 2014.4799 4539.4306 Z" fill="none" stroke="#12852D" opacity="0.6" stroke-width="1" class="arrochar"/>
<path d="M 3695.7071 2247.023 3705.1896 2249.317 3699.1814 2253.0083 3688.0884 2259.0079 3647.4051 2272.4064 3578.9714 2284.4455 3581.8606 2282.9458 3576.8903 2284.3321 3580.5945 2289.5117 3563.4748 2279.6216 3544.0388 2264.4354 3540.8012 2263.9774 3552.5364 2195.0995 3554.8578 2206.153 3580.7043 2149.0126 3618.5794 2102.9184 3595.4699 2113.5328 3609.7951 2103.8475 3621.791 2075.2802 3644.4218 2048.546 3640.8391 2049.0099 3647.3061 2042.7862 3651.8087 2037.14 3671.9016 2017.2018 3673.2817 2010.0619 3669.8158 2011.6771 3677.6465 1981.7342 3681.7961 1970.2168 3679.4752 1960.5479 3688.7155 1954.5521 3682.7118 1961.0053 3708.1203 1942.5594 3753.3994 1917.6454 3833.7077 1905.3545 3847.5053 1944.4822 3847.5162 1953.9229 3841.7321 1949.3242 3855.1676 1974.1773 3859.8158 1995.8173 3858.5566 2006.2962 3848.631 2018.9728 3847.0165 2022.1986 3832.471 2038.2196 3815.9591 2053.4369 3812.1475 2055.9743 3811.9178 2057.2411 3810.7644 2059.5453 3790.2395 2105.5113 3791.9692 2101.5943 3789.8934 2106.0874 3788.7393 2107.8159 3785.8586 2116.3401 3782.0488 2120.8351 3779.5105 2125.3287 3777.7776 2126.2518 3777.7787 2127.2882 3771.3184 2139.6164 3759.6587 2154.5988 3756.4254 2157.9418 3752.1559 2165.3162 3752.7388 2170.037 3738.9992 2186.6341 3735.883 2191.5891 3733.6901 2195.0462 3728.3808 2203.4584 3725.4961 2208.8739 3718.2238 2219.7065 3712.2301 2237.563 3708.8765 2236.6451 3703.1019 2242.6394 3698.4822 2247.481 3695.7071 2247.023 Z" fill="none" stroke="#12852D" opacity="0.6" stroke-width="1" class="arrochar"/>
<path d="M 2009.276 4420.3137 2012.5197 4421.4706 2023.6385 4428.4052 2032.6701 4437.4159 2039.1537 4444.8085 2043.5475 4457.5095 2034.4974 4472.0474 2028.0158 4461.8841 2023.8578 4444.3349 2016.6664 4452.8713 2004.8437 4456.3249 1994.6447 4457.9327 1980.7364 4460.9225 1974.0173 4458.3774 1959.4171 4457.2107 1946.676 4450.2738 1943.9091 4433.88 1959.9089 4423.9667 1974.0518 4417.0529 1990.2766 4414.7578 2009.276 4420.3137 Z" fill="none" stroke="#12852D" opacity="0.6" stroke-width="1" class="arrochar"/>
<path d="M 1922.0554 4250.5737 1920.6655 4250.1108 2021.7039 4236.1159 2029.0338 4345.0722 1917.7913 4354.6745 1860.1464 4293.6804 1922.0554 4250.5737 Z" fill="none" stroke="#12852D" opacity="0.6" stroke-width="1" class="arrochar"/>
<path d="M 2045.8525 4427.8692 2120.9291 4540.6695 2019.7616 4679.1381 1890.97 4570.9626 2045.8525 4427.8692 Z" fill="none" stroke="#12852D" opacity="0.6" stroke-width="1" class="arrochar"/>
<path d="M 2016.9226 4422.0513 2059.0888 4440.0909 2076.2052 4486.6237 2004.4467 4517.7373 1981.2111 4447.4172 2016.9226 4422.0513 Z" fill="none" stroke="#12852D" opacity="0.6" stroke-width="1" class="arrochar"/>
<path d="M 2020.628 4425.4016 2098.4287 4524.273 2024.219 4575.0137 1919.4094 4618.3353 1849.0456 4510.2114 1892.6369 4491.7823 1943.6206 4499.216 1977.9156 4508.4804 1986.3082 4449.3838 2020.628 4425.4016 Z" fill="none" stroke="#12852D" opacity="0.6" stroke-width="1" class="arrochar"/>
<path d="M 1945.7865 4519.3313 1965.2591 4515.6539 1990.3086 4494.4338 2032.0637 4448.2928 2031.065 4540.6428 1993.0379 4558.1602 1950.3664 4583.9847 1945.7865 4519.3313 Z" fill="none" stroke="#12852D" opacity="0.6" stroke-width="1" class="arrochar"/>
<path d="M 2029.7781 4580.0977 2028.3909 4575.4787 1992.2318 4574.5263 1936.109 4607.2666 1885.6854 4489.9289 1949.6407 4506.1476 1980.2391 4501.5559 1986.7421 4485.3999 1984.9135 4454.4617 1995.5833 4443.8506 2015.067 4424.0121 2037.3039 4439.2663 2060.0047 4454.9824 2099.3578 4521.5031 2029.7781 4580.0977 Z" fill="none" stroke="#12852D" opacity="0.6" stroke-width="1" class="arrochar"/>
<path d="M 1649.11 4238.5193 1712.0378 4326.3053 1786.1741 4343.9286 1775.8289 4486.1263 1676.5403 4564.518 1675.5493 4619.9331 1570.6371 4727.8773 1532.5819 4754.6172 1566.086 4660.4413 1559.6305 4632.7234 1569.9397 4545.918 1561.6483 4504.3482 1520.0136 4439.6502 1498.8586 4314.9638 1499.83 4281.7256 1574.0019 4265.2026 1649.11 4238.5193 Z" fill="none" stroke="#12852D" opacity="0.6" stroke-width="1" class="arrochar"/>
<path d="M 2075.2917 4467.9223 2076.2127 4476.2344 2087.2787 4558.4366 1987.2224 4465.0836 2052.1164 4466.0582 2075.2917 4467.9223 Z" fill="none" stroke="#12852D" opacity="0.6" stroke-width="1" class="arrochar"/>
<path d="M 1987.1768 4520.4939 1989.0561 4490.0193 2013.1707 4477.1099 2051.1712 4490.0683 2065.9671 4540.8734 2016.7701 4614.7228 1990.8369 4579.6049 1987.1768 4520.4939 Z" fill="none" stroke="#12852D" opacity="0.6" stroke-width="1" class="arrochar"/>
<path d="M 2023.797 4521.9086 2034.4693 4508.5258 2034.573 4524.2258 2038.1661 4523.6514 2023.797 4521.9086 Z" fill="none" stroke="#12852D" opacity="0.6" stroke-width="1" class="arrochar"/>
<path d="M 1842.1076 4494.5049 1972.7662 4568.5069 1822.0563 4613.6251 1842.1076 4494.5049 Z" fill="none" stroke="#12852D" opacity="0.6" stroke-width="1" class="arrochar"/>
<path d="M 1373.918 4183.222 1382.7556 4160.6167 1466.6408 4151.5038 1543.009 4220.8463 1414.1127 4267.7576 1373.918 4183.222 Z" fill="none" stroke="#12852D" opacity="0.6" stroke-width="1" class="arrochar"/>
<path d="M 2024.966 4432.0446 2034.2363 4432.0518 2047.2092 4439.4494 2056.4755 4444.9971 2091.6533 4515.2084 2083.2966 4532.7496 1997.0447 4567.7788 1974.8436 4506.8062 1988.7934 4454.1786 2024.966 4432.0446 Z" fill="none" stroke="#12852D" opacity="0.6" stroke-width="1" class="arrochar"/>
<path d="M 1729.5757 4393.7312 1857.5287 4365.2374 2051.1398 4531.6268 1900.8457 4639.5622 1729.5757 4393.7312 Z" fill="none" stroke="#12852D" opacity="0.6" stroke-width="1" class="arrochar"/>
<path d="M 1728.5657 4469.4528 2093.8023 4511.3403 1851.5611 4785.4635 1728.5657 4469.4528 Z" fill="none" stroke="#12852D" opacity="0.6" stroke-width="1" class="arrochar"/></svg>