<?xml version="1.0"?><svg xmlns="http://www.w3.org/2000/svg" version="1.2" baseProfile="tiny" width="6000" height="5918" viewBox="0 0 6000 5918" stroke-linecap="round" stroke-linejoin="round"><path d="M 5377.6419 2166.9388 5216.8173 2203.3 5125.3377 2235.7789 4995.8498 2234.2511 4990.1941 2189.1207 5004.6505 2045.3777 4978.2514 1828.9966 5059.5008 1785.5198 5157.5195 1796.3271 5243.7572 1896.488 5270.7623 1969.1782 5342.2247 2066.6241 5377.6419 2166.9388 Z" fill="none" stroke="#A9159C" opacity="0.4291845493562232" stroke-width="1" class="bayside"/>
<path d="M 5549.8031 2529.4926 5062.9637 2448.7828 5153.5304 1681.2317 4979.1565 1820.7062 5154.4267 1670.18 5154.4454 1677.5462 5168.3456 1691.3228 5549.8031 2529.4926 Z" fill="none" stroke="#A9159C" opacity="0.4291845493562232" stroke-width="1" class="bayside"/>
<path d="M 5028.9611 1771.7803 5036.1437 1683.3631 5752.5028 2556.5219 5134.9194 2737.0881 4964.0708 1694.5834 5021.5436 1762.5894 5028.9611 1771.7803 Z" fill="none" stroke="#A9159C" opacity="0.4291845493562232" stroke-width="1" class="bayside"/>
<path d="M 4994.9249 2234.2533 5000.1056 2078.5502 5004.6483 2044.4566 4998.3184 2007.1662 5242.8665 1909.3844 5376.7221 2168.7838 5248.2477 2197.6901 5154.913 2227.4126 5133.6617 2235.7581 4994.9249 2234.2533 Z" fill="none" stroke="#A9159C" opacity="0.4291845493562232" stroke-width="1" class="bayside"/>
<path d="M 4836.7973 1825.634 4810.6563 1707.8197 5106.4393 1701.6073 5564.9681 2339.6145 5215.8548 2545.1641 4836.7973 1825.634 Z" fill="none" stroke="#A9159C" opacity="0.4291845493562232" stroke-width="1" class="bayside"/>
<path d="M 5250.2921 1920.417 5714.2934 2468.1687 5125.4376 2645.8569 5001.7826 2005.7763 5250.2921 1920.417 Z" fill="none" stroke="#A9159C" opacity="0.4291845493562232" stroke-width="1" class="bayside"/>
<path d="M 5183.1506 2419.2245 5163.5581 2353.85 5185.2808 2348.0356 5234.6619 2395.8235 5183.1506 2419.2245 Z" fill="none" stroke="#A9159C" opacity="0.4291845493562232" stroke-width="1" class="bayside"/>
<path d="M 5513.9437 2288.1659 5460.4186 2330.7045 5360.6073 2362.3129 5274.687 2402.1684 5190.586 2432.7977 5130.096 2289.2054 5090.8263 2211.6801 5075.9152 2165.4224 5049.0388 2141.9961 5022.1053 2094.1579 5005.1681 2068.6356 4999.2447 2007.8548 5082.1526 1974.9563 5145.4273 1950.1604 5178.6842 1938.7932 5184.8951 1927.0341 5223.1914 1898.614 5234.5015 1892.598 5262.819 1937.423 5270.7513 1965.0335 5284.4626 1992.399 5296.0805 2014.7047 5320.4216 2039.97 5336.8976 2062.954 5356.4234 2101.8203 5362.0435 2127.8291 5368.0882 2140.0187 5389.227 2175.889 5414.9361 2191.9395 5451.2918 2211.4142 5483.5076 2238.0402 5513.9437 2288.1659 Z" fill="none" stroke="#A9159C" opacity="0.4291845493562232" stroke-width="1" class="bayside"/>
<path d="M 5093.2532 1977.0014 5256.7885 1929.6101 5369.2448 2140.2458 5149.2078 2165.7008 5093.2532 1977.0014 Z" fill="none" stroke="#A9159C" opacity="0.4291845493562232" stroke-width="1" class="bayside"/>
<path d="M 5009.8104 1784.9486 5144.2847 1680.3343 5235.1807 1798.8897 5193.6609 1830.3087 5265.5793 1932.35 5377.4164 2169.0122 5416.3334 2277.8492 5319.1173 2326.951 5334.281 2375.7461 5226.3834 2413.8142 5184.922 2298.2803 5123.137 2095.2927 5099.8828 2040.5413 5091.3016 2029.2786 5084.0661 1907.0249 5065.6589 1846.7459 5009.8104 1784.9486 Z" fill="none" stroke="#A9159C" opacity="0.4291845493562232" stroke-width="1" class="bayside"/>
<path d="M 5181.3258 2429.1354 5011.0018 1994.2407 4980.563 2026.0908 4853.4665 1838.4904 5134.3181 1760.4712 5493.6511 2307.5739 5181.3258 2429.1354 Z" fill="none" stroke="#A9159C" opacity="0.4291845493562232" stroke-width="1" class="bayside"/>
<path d="M 4973.6312 1829.9284 5115.8435 1766.0426 5399.8554 2173.3259 4989.3756 2234.2664 4973.6312 1829.9284 Z" fill="none" stroke="#A9159C" opacity="0.4291845493562232" stroke-width="1" class="bayside"/>
<path d="M 5068.9441 1866.999 5058.2562 1844.0011 5066.6014 1854.1112 5068.4639 1859.6324 5068.9441 1866.999 Z" fill="none" stroke="#A9159C" opacity="0.4291845493562232" stroke-width="1" class="bayside"/>
<path d="M 5366.5619 2173.4182 5344.3334 2161.5028 4752.3791 2127.0064 4819.8719 1694.9084 5145.2253 1686.7774 5383.1652 2157.7109 5366.5619 2173.4182 Z" fill="none" stroke="#A9159C" opacity="0.4291845493562232" stroke-width="1" class="bayside"/>
<path d="M 5382.2659 2166.926 5544.434 2277.0201 5528.856 2326.821 5533.6051 2369.1932 5525.4443 2425.4276 5570.0693 2499.9414 5502.6328 2534.2385 5501.729 2541.6141 5411.1412 2570.443 5302.9535 2593.7815 5267.565 2507.2426 5245.134 2420.6764 5211.6717 2359.0248 5191.1583 2295.5002 5174.333 2226.442 5259.3264 2190.2906 5382.2659 2166.926 Z" fill="none" stroke="#A9159C" opacity="0.4291845493562232" stroke-width="1" class="bayside"/>
<path d="M 4883.042 1834.7407 5200.5908 1649.8051 5472.2107 2249.5894 5106.1802 2342.7064 4883.042 1834.7407 Z" fill="none" stroke="#A9159C" opacity="0.4291845493562232" stroke-width="1" class="bayside"/>
<path d="M 4966.1966 1813.3691 5106.581 1758.6987 5376.7349 2173.3901 5110.5648 2245.9504 4966.1966 1813.3691 Z" fill="none" stroke="#A9159C" opacity="0.4291845493562232" stroke-width="1" class="bayside"/>
<path d="M 5448.3886 2328.896 5443.0792 2413.6852 5393.5981 2583.3952 5189.7319 2460.4458 5017.2583 2291.3241 4972.5554 2160.6029 5020.3329 2029.6811 5049.6641 1922.766 5118.1424 1946.5447 5184.7655 1966.6394 5255.2843 2060.4093 5312.875 2156.0607 5378.0804 2325.4075 5310.931 2121.0591 5331.4362 2179.9632 5364.7807 2198.2976 5331.3661 2154.1681 5374.0088 2190.9019 5413.0587 2264.4987 5448.3886 2328.896 Z" fill="none" stroke="#A9159C" opacity="0.4291845493562232" stroke-width="1" class="bayside"/>
<path d="M 5226.1055 2041.1418 5115.3616 2036.5881 5180.7651 1939.0181 5204.1703 2051.3313 5237.197 2039.2705 5227.4745 2034.2297 5226.1055 2041.1418 Z" fill="none" stroke="#A9159C" opacity="0.4291845493562232" stroke-width="1" class="bayside"/>
<path d="M 5077.9949 2164.9567 5006.6621 2066.1762 4999.7959 1947.7534 4975.7156 1832.9478 5042.2142 1806.083 5042.0097 1815.952 5146.0274 1704.2706 5238.6856 1788.7507 5246.362 1895.5601 5402.3039 2116.2022 5432.057 2151.0599 5104.0654 2235.8319 5077.9949 2164.9567 Z" fill="none" stroke="#A9159C" opacity="0.4291845493562232" stroke-width="1" class="bayside"/>
<path d="M 5760.8659 2276.3582 5637.4392 2445.367 5026.0284 2477.4399 4677.6813 2230.3427 4646.7012 2000.1033 4995.8014 1822.5088 5492.2561 1824.8884 5738.189 2124.4162 5760.8659 2276.3582 Z" fill="none" stroke="#A9159C" opacity="0.4291845493562232" stroke-width="1" class="bayside"/>
<path d="M 5234.0356 2421.627 5045.6653 1798.4459 5146.1752 1696.9038 5525.976 2290.8949 5234.0356 2421.627 Z" fill="none" stroke="#A9159C" opacity="0.4291845493562232" stroke-width="1" class="bayside"/>
<path d="M 5031.9895 1777.9466 5588.7078 2373.8714 5148.3212 2476.942 5031.9895 1777.9466 Z" fill="none" stroke="#A9159C" opacity="0.4291845493562232" stroke-width="1" class="bayside"/>
<path d="M 5008.6527 2075.7664 5100.8024 2038.4665 5090.9303 1972.4017 5179.837 1937.639 5183.1338 1961.3475 5202.6133 2075.0551 5256.2091 2060.4069 5314.6802 2054.033 5337.5917 2063.1824 5376.9495 2167.4013 5263.7334 2195.5763 5243.1695 2200.9279 5143.8336 2235.0415 5098.7428 2234.0024 5078.0305 2179.4665 5074.0571 2161.9723 5048.1168 2143.1498 5008.6527 2075.7664 Z" fill="none" stroke="#A9159C" opacity="0.4291845493562232" stroke-width="1" class="bayside"/>
<path d="M 5140.4693 2322.3495 5133.722 2305.8964 5125.6965 2286.7978 5115.8315 2271.735 5108.8426 2250.7917 5099.1993 2231.5828 5092.096 2210.8708 5081.7512 2188.2095 5078.5828 2168.9858 5067.3376 2156.0005 5050.08 2142.339 5031.632 2114.1711 5021.0669 2094.9664 5010.2792 2079.2169 5004.1283 2068.8684 5005.5938 2053.2052 5003.939 2037.7801 5002.05 2021.0891 5000.0527 2007.3924 5009.2878 2002.5347 5017.6019 1999.291 5029.2668 1995.5787 5047.8603 1989.3166 5065.0694 1984.2088 5082.7341 1976.4516 5099.8232 1969.7317 5115.1799 1963.5916 5131.8076 1957.448 5146.5863 1951.424 5164.2521 1944.5865 5178.1078 1939.3703 5197.469 1917.9067 5217.8869 1903.1177 5234.6137 1891.3313 5261.1951 1935.2398 5267.3682 1953.1838 5272.2599 1967.3321 5279.2342 1982.1659 5285.8622 1997.1159 5297.4666 2014.3555 5307.5599 2028.2603 5321.2313 2040.1981 5336.3193 2062.8404 5348.0398 2079.6197 5356.767 2100.6679 5362.3817 2124.719 5367.2803 2140.4815 5373.4522 2156.8165 5390.3853 2176.6918 5402.3198 2186.4471 5442.8381 2206.3711 5464.1446 2218.5177 5483.1601 2237.8109 5497.7857 2258.0381 5513.5707 2279.1836 5521.3509 2290.7932 5498.869 2312.7416 5472.4383 2328.9425 5450.7188 2335.1089 5429.8061 2340.4664 5404.044 2348.3709 5383.3626 2353.9571 5365.6977 2363.3356 5347.5756 2374.7883 5330.4797 2381.0548 5313.04 2388.589 5290.8596 2396.2508 5274.2257 2402.6303 5255.2823 2410.2828 5240.8504 2418.7294 5228.73 2426.8243 5212.7881 2432.8556 5182.9721 2439.8438 5173.6557 2414.1805 5167.2491 2395.767 5161.5376 2377.8128 5154.3267 2361.2449 5148.1474 2340.9889 5140.4693 2322.3495 Z" fill="none" stroke="#A9159C" opacity="0.4291845493562232" stroke-width="1" class="bayside"/>
<path d="M 5156.7627 2227.408 5089.0171 1758.7422 5364.6666 2156.8408 5156.7627 2227.408 Z" fill="none" stroke="#A9159C" opacity="0.4291845493562232" stroke-width="1" class="bayside"/>
<path d="M 5110.2695 1755.0061 5124.9035 1692.3532 5183.1305 1689.4434 5226.8486 1794.307 5191.8403 1841.3647 5252.168 1930.5434 5332.9325 2050.0686 5374.8776 2170.6315 5260.2756 2199.5009 5167.8635 2228.3011 5107.3672 2075.5266 5084.764 1908.8652 5058.6793 1827.8836 5025.3008 1787.4441 5063.1761 1776.302 5110.2695 1755.0061 Z" fill="none" stroke="#A9159C" opacity="0.4291845493562232" stroke-width="1" class="bayside"/>
<path d="M 4849.7685 1838.4985 4877.4868 1831.0694 4945.9115 1836.4394 4990.2567 1823.4428 5023.4894 1803.1037 5075.2275 1790.0859 5130.6897 1788.1067 5193.6324 1819.2577 5258.6473 1933.2894 5303.2603 2019.7515 5345.9261 2067.5351 5366.407 2117.223 5372.0319 2144.8443 5386.9105 2174.2832 5412.8675 2196.3214 5459.1518 2210.9312 5490.6767 2238.4802 5505.5551 2266.0774 5516.7615 2302.8998 5465.0329 2327.0057 5433.6099 2336.3092 5404.0414 2347.4495 5387.4069 2353.0244 5367.1027 2369.6667 5267.2989 2406.7954 5184.1341 2442.0295 5178.527 2419.9275 5115.2603 2274.5005 5078.0017 2167.7205 4972.2323 2022.4259 4849.7685 1838.4985 Z" fill="none" stroke="#A9159C" opacity="0.4291845493562232" stroke-width="1" class="bayside"/>
<path d="M 5484.9284 2169.3995 5253.4349 2060.4142 5296.5924 1947.0039 5347.2589 1878.7117 5482.0259 1803.7367 5526.3352 1781.5066 5629.2049 1865.9254 5555.4312 1929.6955 5447.3702 1970.535 5533.3979 1983.1817 5451.3518 2070.0045 5550.4952 2136.9647 5586.8235 2224.3779 5713.6603 2265.4504 5786.3046 2421.8644 5828.3391 2547.0626 5852.6802 2634.5423 5784.2158 2636.607 5653.1988 2758.6912 5509.9474 2822.727 5342.4848 2839.7931 5129.6256 2840.3498 4895.3577 2786.516 5039.3218 2619.3386 5064.0121 2499.4658 5102.722 2440.3915 5190.0322 2217.1887 5351.8834 2216.759 5484.9284 2169.3995 Z" fill="none" stroke="#A9159C" opacity="0.4291845493562232" stroke-width="1" class="bayside"/>
<path d="M 5035.9067 2065.1078 5034.2801 2061.6574 5043.0543 2057.2607 5044.6814 2060.9414 5035.9067 2065.1078 Z" fill="none" stroke="#A9159C" opacity="0.4291845493562232" stroke-width="1" class="bayside"/>
<path d="M 5103.5724 2036.8476 5271.7139 1979.3075 5519.4772 2282.6215 5217.3605 2412.4554 5103.5724 2036.8476 Z" fill="none" stroke="#A9159C" opacity="0.4291845493562232" stroke-width="1" class="bayside"/>
<path d="M 5036.4363 1804.9145 5010.4944 1781.0333 5059.4717 1773.5484 5136.1114 1738.3662 5198.975 1740.0479 5213.837 1767.6352 5235.1783 1797.9688 5250.3309 1935.1534 5284.7103 1998.6158 5344.9964 2065.6953 5373.7517 2097.8575 5391.368 2114.3903 5421.9733 2145.6263 5414.6267 2164.0719 5405.3966 2170.5466 5401.7076 2174.242 5397.0861 2175.1761 5466.5796 2221.0443 5514.8714 2289.0845 5590.9918 2381.0022 5604.1665 2455.6045 5546.9299 2496.3236 5510.0744 2548.0413 5373.1567 2552.1159 5288.1177 2581.8396 5217.2791 2381.1252 5206.9943 2338.7653 5163.1736 2202.5165 5106.3853 2052.5 5036.4363 1804.9145 Z" fill="none" stroke="#A9159C" opacity="0.4291845493562232" stroke-width="1" class="bayside"/>
<path d="M 5138.3307 1885.7071 5134.4476 1812.0408 5238.2196 1900.1865 5444.2024 2157.5396 5516.7776 2308.4281 5021.8124 2648.8754 5010.3934 2516.1834 5009.0879 1967.0735 5093.7801 1815.8257 5138.3307 1885.7071 Z" fill="none" stroke="#A9159C" opacity="0.4291845493562232" stroke-width="1" class="bayside"/>
<path d="M 4868.0459 2158.0777 4637.2044 1873.9405 4725.806 1800.0856 5075.205 1780.8771 5507.0169 2132.4858 4868.0459 2158.0777 Z" fill="none" stroke="#A9159C" opacity="0.4291845493562232" stroke-width="1" class="bayside"/>
<path d="M 5234.939 2413.3311 5034.5719 1798.4726 5076.1565 1791.9254 5126.0882 1796.4063 5076.1633 1794.6881 5185.3145 1820.1999 5513.0644 2303.832 5234.939 2413.3311 Z" fill="none" stroke="#A9159C" opacity="0.4291845493562232" stroke-width="1" class="bayside"/>
<path d="M 5131.8665 1667.6587 5173.2538 1658.7146 5369.7706 2129.7423 5310.7119 2177.0713 5388.0914 2333.1196 5198.9069 2430.9332 5085.809 2183.5471 4963.6059 1812.4542 5131.8665 1667.6587 Z" fill="none" stroke="#A9159C" opacity="0.4291845493562232" stroke-width="1" class="bayside"/>
<path d="M 5240.1001 1912.1547 5317.4093 2122.8841 5128.0224 2199.8412 5051.6917 1996.4458 5240.1001 1912.1547 Z" fill="none" stroke="#A9159C" opacity="0.4291845493562232" stroke-width="1" class="bayside"/>
<path d="M 5005.256 2300.5665 4990.0333 1924.7506 4949.196 1657.7866 5327.3086 1681.6966 5520.5151 2321.3169 5221.0895 2423.5037 5005.256 2300.5665 Z" fill="none" stroke="#A9159C" opacity="0.4291845493562232" stroke-width="1" class="bayside"/>
<path d="M 5085.8652 1980.7039 5139.6885 1690.4746 5177.006 1824.8258 5266.0733 1944.3222 5397.0501 2162.2786 5436.1971 2269.9616 5193.1219 2339.7226 5186.5146 2288.141 5160.4552 2224.6347 5144.5698 2160.185 5112.9912 2105.9117 5092.5057 2048.8498 5085.8652 1980.7039 Z" fill="none" stroke="#A9159C" opacity="0.4291845493562232" stroke-width="1" class="bayside"/>
<path d="M 4869.8033 1702.1648 4875.2877 1674.5287 5206.2272 1684.78 5445.3143 1897.7791 5473.2623 1971.3821 5614.5279 2210.475 5732.0558 2527.0943 5606.782 2709.976 5301.754 2836.2157 5079.6138 2825.7232 4956.9781 2621.3767 4960.3792 2492.3398 4911.9873 2367.1254 4828.245 2142.5044 4869.8033 1702.1648 Z" fill="none" stroke="#A9159C" opacity="0.4291845493562232" stroke-width="1" class="bayside"/>
<path d="M 5240.9207 1872.5498 5265.5878 1935.5736 5301.3887 2011.4665 5348.2694 2079.0433 5363.1906 2124.6016 5384.1245 2170.1452 5353.6232 2176.6782 5295.8525 2188.3508 5238.078 2199.0987 5198.8255 2219.93 5167.8624 2227.8404 5164.5937 2215.411 5161.2982 2192.387 5153.3776 2168.9147 5146.402 2153.271 5142.1882 2132.5538 5131.5128 2116.4593 5122.6896 2101.2815 5086.673 2121.1767 5053.8917 2141.0631 5051.0984 2133.2394 5038.117 2118.9918 5020.0103 2088.1752 5004.6964 2064.7218 5005.596 2054.1264 5009.2587 2038.9188 5009.1798 2005.7588 4995.2599 1984.6066 4997.9619 1954.205 4987.7045 1917.3879 4988.5249 1873.1782 4981.9775 1840.9601 4984.7207 1828.0605 5000.3911 1808.6842 5003.1229 1791.1805 5030.8188 1775.4594 5056.6872 1768.9508 5086.2937 1779.0081 5115.8871 1783.5392 5140.8215 1773.3471 5169.5374 1796.2966 5183.4302 1806.391 5203.7778 1810.0223 5218.6124 1826.5604 5231.6346 1856.9177 5234.4009 1854.1476 5240.9207 1872.5498 Z" fill="none" stroke="#A9159C" opacity="0.4291845493562232" stroke-width="1" class="bayside"/>
<path d="M 5082.9692 1930.9741 5425.9455 2201.4669 5426.7606 2203.5375 5432.4367 2207.5522 5436.8327 2208.5762 5447.3625 2211.8861 5454.0893 2219.4677 5465.2095 2227.0368 5474.4774 2233.6899 5487.9273 2247.2408 5500.4588 2262.8675 5514.864 2286.5508 5472.4221 2323.2989 5422.1056 2192.6103 5436.2714 2296.2206 5446.0605 2323.3741 5442.8519 2333.5188 5425.2422 2321.1294 5417.402 2328.9835 5415.1038 2334.0578 5432.6797 2334.469 5401.2844 2353.9072 5358.7725 2367.8467 5322.7395 2383.6099 5269.1392 2403.1046 5216.3661 2385.7349 5186.621 2329.6036 5176.3427 2289.0884 5164.1149 2208.9631 5145.745 2167.7824 5148.764 2173.072 5137.1297 2143.6213 5129.6806 2123.373 5112.943 2086.5668 5107.8113 2068.1561 5101.9981 2054.5835 5095.4718 2032.9528 5098.038 2042.3881 5090.595 2023.9839 5084.0567 1997.2879 5082.6358 1983.4751 5086.7355 1958.5961 5082.5532 1949.8564 5082.9692 1930.9741 Z" fill="none" stroke="#A9159C" opacity="0.4291845493562232" stroke-width="1" class="bayside"/>
<path d="M 5227.5553 2419.8009 5177.6326 2431.9094 5085.4296 2179.6787 5010.2841 2081.2895 4969.4561 2021.5112 5084.9225 1973.3376 5067.276 1941.1439 5025.72 1962.4285 5004.137 1828.9356 4974.5557 1829.9262 5002.1941 1789.341 5130.3803 1664.716 5229.4007 1709.5815 5262.9265 1803.4212 5438.6405 2152.9492 5377.6546 2171.545 5521.3647 2295.5153 5227.5553 2419.8009 Z" fill="none" stroke="#A9159C" opacity="0.4291845493562232" stroke-width="1" class="bayside"/>
<path d="M 5124.4939 2638.4855 5018.1596 2669.1623 5001.9572 2079.4669 4857.1563 1834.7984 4775.3617 1628.709 5196.8841 1646.1316 5384.8103 2084.0091 5535.2037 2283.4968 5708.7514 2470.9506 5124.4939 2638.4855 Z" fill="none" stroke="#A9159C" opacity="0.4291845493562232" stroke-width="1" class="bayside"/>
<path d="M 4985.0973 1791.6836 4988.7962 1792.1353 5161.1601 1773.7561 5493.2073 2314.025 5010.7804 2484.388 4985.0973 1791.6836 Z" fill="none" stroke="#A9159C" opacity="0.4291845493562232" stroke-width="1" class="bayside"/>
<path d="M 5233.1226 2426.2369 5002.1614 1775.5278 5189.6387 1704.1596 5522.3004 2299.1981 5233.1226 2426.2369 Z" fill="none" stroke="#A9159C" opacity="0.4291845493562232" stroke-width="1" class="bayside"/>
<path d="M 4998.0752 2002.1007 5247.5378 1927.7925 5487.1578 2301.1429 5210.0126 2432.7476 4998.0752 2002.1007 Z" fill="none" stroke="#A9159C" opacity="0.4291845493562232" stroke-width="1" class="bayside"/>
<path d="M 5143.6365 1789.9159 5495.4131 2277.1632 5518.5899 2295.5234 5470.5907 2329.754 5221.0511 2408.7598 5169.7438 2240.2735 5084.961 1988.9958 5067.0872 1863.7801 5016.1025 1806.805 5044.7097 1785.5556 5143.6365 1789.9159 Z" fill="none" stroke="#A9159C" opacity="0.4291845493562232" stroke-width="1" class="bayside"/>
<path d="M 5077.4352 1936.5138 5069.8248 1849.0381 5209.4725 1867.1059 5310.7148 2040.9174 5511.6703 2142.6058 5566.5337 2243.7861 5490.9082 2318.6386 5226.5967 2406.9024 5077.4352 1936.5138 Z" fill="none" stroke="#A9159C" opacity="0.4291845493562232" stroke-width="1" class="bayside"/>
<path d="M 5194.6375 2209.8064 5092.3354 1979.7669 5256.7495 1914.8739 5370.2179 2157.7467 5194.6375 2209.8064 Z" fill="none" stroke="#A9159C" opacity="0.4291845493562232" stroke-width="1" class="bayside"/>
<path d="M 5373.9324 2163.264 5161.3754 2222.7897 5016.0498 1784.7036 5169.2582 1686.7165 5373.9324 2163.264 Z" fill="none" stroke="#A9159C" opacity="0.4291845493562232" stroke-width="1" class="bayside"/>
<path d="M 5167.3861 1677.5134 5167.3626 1668.3056 5564.8588 2302.7584 5039.9984 2516.1126 4761.6093 2118.6959 5167.3861 1677.5134 Z" fill="none" stroke="#A9159C" opacity="0.4291845493562232" stroke-width="1" class="bayside"/>
<path d="M 5143.6365 1789.9159 5586.3198 2365.3513 5266.6594 2514.6178 5008.6784 1794.8509 5078.9231 1789.1559 5143.6365 1789.9159 Z" fill="none" stroke="#A9159C" opacity="0.4291845493562232" stroke-width="1" class="bayside"/>
<path d="M 5077.9949 2164.9567 5052.9892 2150.2776 5005.6386 2072.0888 4971.8145 1843.7467 4964.3842 1829.029 5141.7737 1784.3953 5527.8177 2288.1254 5178.5694 2436.5146 5077.9949 2164.9567 Z" fill="none" stroke="#A9159C" opacity="0.4291845493562232" stroke-width="1" class="bayside"/>
<path d="M 4618.3485 1687.9594 4712.5101 1628.8408 4973.3445 1707.453 4988.3296 1790.2946 5104.7322 1758.7033 5110.1413 1703.4397 5158.1334 1673.8537 5237.9444 1795.1989 5197.3683 1833.9829 5327.3768 2047.3203 5509.3512 2299.2358 5047.2972 2473.7025 4861.5784 2160.8559 4618.3485 1687.9594 Z" fill="none" stroke="#A9159C" opacity="0.4291845493562232" stroke-width="1" class="bayside"/>
<path d="M 4910.8814 1880.7257 5232.5463 2382.698 5181.2604 2403.5639 4910.8814 1880.7257 Z" fill="none" stroke="#A9159C" opacity="0.4291845493562232" stroke-width="1" class="bayside"/>
<path d="M 5361.4816 2343.8817 5177.5831 2412.5579 4969.4473 2017.7117 5240.0056 1920.2138 5361.4816 2343.8817 Z" fill="none" stroke="#A9159C" opacity="0.4291845493562232" stroke-width="1" class="bayside"/>
<path d="M 5012.3543 1785.6333 5140.5943 1683.1059 5178.0513 1691.298 5237.9637 1802.5661 5336.6539 2058.3488 5372.1171 2175.706 5452.7328 2230.297 5489.9606 2310.8094 5384.6166 2347.5036 5191.53 2440.1674 5050.6274 2320.7285 5131.9551 2292.8863 5181.9254 2301.9735 5161.3988 2232.0028 5086.9099 2029.5197 5071.7098 1863.7688 5012.3543 1785.6333 Z" fill="none" stroke="#A9159C" opacity="0.4291845493562232" stroke-width="1" class="bayside"/>
<path d="M 5088.6164 1971.4864 5182.8502 1940.8549 5188.4923 1977.6827 5265.1926 1960.9034 5388.7345 2165.0655 5168.8072 2235.6693 5103.136 2233.9915 4967.6047 2020.5944 5088.6164 1971.4864 Z" fill="none" stroke="#A9159C" opacity="0.4291845493562232" stroke-width="1" class="bayside"/>
<path d="M 4969.9655 1843.751 5148.918 1684.9265 5525.9733 2289.9735 5065.8265 2484.7162 4969.9655 1843.751 Z" fill="none" stroke="#A9159C" opacity="0.4291845493562232" stroke-width="1" class="bayside"/>
<path d="M 4894.0881 1813.5346 5044.683 1774.5051 5077.4307 1934.6718 5252.1413 1920.4121 5368.3124 2137.4847 4855.1312 2172.8465 4894.0881 1813.5346 Z" fill="none" stroke="#A9159C" opacity="0.4291845493562232" stroke-width="1" class="bayside"/>
<path d="M 4805.1778 1739.1397 5601.6962 2249.2092 5047.6759 2630.3789 4333.0064 2414.3379 4805.1778 1739.1397 Z" fill="none" stroke="#A9159C" opacity="0.4291845493562232" stroke-width="1" class="bayside"/>
<path d="M 5268.7824 2268.5777 5269.8662 2328.465 5258.8846 2373.1838 5164.0645 2371.1258 5079.8463 2354.2893 5073.7211 2308.2334 5070.7888 2243.745 5110.495 2217.8503 5153.0166 2208.9913 5194.6162 2201.5148 5250.6338 2225.7835 5268.7824 2268.5777 Z" fill="none" stroke="#A9159C" opacity="0.4291845493562232" stroke-width="1" class="bayside"/>
<path d="M 5194.8651 2298.2548 5104.5314 2050.6623 5120.2237 2039.5696 5204.2848 2006.1958 5277.2886 1989.4246 5370.2637 2174.3293 5312.9695 2191.0686 5335.4515 2296.0397 5208.8347 2335.0749 5194.8651 2298.2548 Z" fill="none" stroke="#A9159C" opacity="0.4291845493562232" stroke-width="1" class="bayside"/>
<path d="M 5225.2542 1891.9314 5420.1834 2166.8201 5231.6294 2208.7892 5133.9345 1975.9791 5225.2542 1891.9314 Z" fill="none" stroke="#A9159C" opacity="0.4291845493562232" stroke-width="1" class="bayside"/>
<path d="M 5593.0791 2460.2455 5593.5472 2462.0872 5148.0697 2447.6503 4532.408 2441.631 4505.9942 2164.3423 5423.7101 2105.5483 5593.0791 2460.2455 Z" fill="none" stroke="#A9159C" opacity="0.4291845493562232" stroke-width="1" class="bayside"/>
<path d="M 5376.7196 2167.8626 4994.9401 2240.7026 4982.7851 1791.2286 4986.4786 1789.3781 5089.9665 1768.8694 5176.0462 1811.0145 5325.5299 2048.2464 5376.7196 2167.8626 Z" fill="none" stroke="#A9159C" opacity="0.4291845493562232" stroke-width="1" class="bayside"/>
<path d="M 5430.8272 2333.5528 5177.303 2302.9068 5188.3503 2282.6081 5102.6455 2035.9288 5294.9037 2006.8784 5376.7527 2179.839 5430.8272 2333.5528 Z" fill="none" stroke="#A9159C" opacity="0.4291845493562232" stroke-width="1" class="bayside"/>
<path d="M 5436.7961 2154.7969 5532.1663 2351.6899 5539.9846 2494.04 5322.5005 2551.5632 5312.4186 2501.1324 5265.6593 2398.9671 5229.1399 2406.6654 5162.6668 2185.0133 5093.7973 2010.1593 5093.0061 1970.5545 5089.6769 1932.7996 5019.2411 1959.6808 5014.1647 1769.5135 5081.632 1762.9042 5077.7865 1702.5987 5174.2727 1659.5407 5249.9538 1791.9442 5195.9472 1820.6331 5311.6084 2029.4008 5351.0171 2069.3635 5365.8964 2099.7216 5396.4516 2113.4549 5421.9267 2129.0442 5436.7961 2154.7969 Z" fill="none" stroke="#A9159C" opacity="0.4291845493562232" stroke-width="1" class="bayside"/>
<path d="M 5136.8197 1864.9807 5100.0984 1838.0395 5059.3535 1810.5116 5094.751 1805.0495 5134.5028 1804.9506 5175.2402 1828.7913 5204.9713 1885.8144 5227.2299 1912.4656 5248.6557 1933.4364 5273.7394 1978.5018 5294.2319 2034.6344 5317.225 2054.717 5364.3792 2119.6551 5376.5261 2164.7622 5367.4202 2169.757 5359.2202 2173.7892 5342.8203 2179.592 5333.7951 2176.6225 5365.2696 2187.5916 5359.6079 2197.0073 5339.972 2203.2798 5329.2258 2204.4607 5324.8985 2229.9118 5325.1803 2248.568 5304.0759 2254.0777 5294.3202 2252.2566 5269.678 2257.5191 5218.849 2273.3156 5192.0052 2218.0229 5157.7634 2129.2358 5133.3057 2039.3342 5110.0371 1971.4205 5108.9089 1889.4517 5092.1877 1857.2589 5071.0882 1827.6738 5136.8197 1864.9807 Z" fill="none" stroke="#A9159C" opacity="0.4291845493562232" stroke-width="1" class="bayside"/>
<path d="M 5261.117 2517.858 5148.032 2157.8731 5343.2476 2102.5473 5516.2312 2438.3557 5261.117 2517.858 Z" fill="none" stroke="#A9159C" opacity="0.4291845493562232" stroke-width="1" class="bayside"/>
<path d="M 5040.1519 1812.2728 5046.6042 1804.4295 5059.9999 1800.7134 5122.3846 1794.1133 5481.1695 2309.4527 5250.6298 2399.9283 5040.1519 1812.2728 Z" fill="none" stroke="#A9159C" opacity="0.4291845493562232" stroke-width="1" class="bayside"/>
<path d="M 4977.2946 1815.185 5147.9448 1665.5925 5470.5775 2325.147 5502.4756 2320.448 5514.8516 2441.1243 5367.3807 2470.5708 5310.5534 2495.6079 5225.8039 2280.2078 5269.1245 2397.5757 5127.6993 2440.3293 4977.2946 1815.185 Z" fill="none" stroke="#A9159C" opacity="0.4291845493562232" stroke-width="1" class="bayside"/>
<path d="M 5298.1177 2170.8405 5309.2651 2189.236 5253.9255 2246.5047 5202.0459 2213.4725 5293.0177 2338.539 5124.1135 2116.0172 5236.7901 2060.4579 5295.9074 2036.3515 5336.6187 2045.4528 5390.4765 2126.3686 5381.3207 2159.5585 5398.2448 2259.012 5464.8379 2258.8239 5503.6732 2255.0267 5409.1423 2187.119 5298.1177 2170.8405 Z" fill="none" stroke="#A9159C" opacity="0.4291845493562232" stroke-width="1" class="bayside"/>
<path d="M 5155.124 1945.5307 5463.8475 1912.4624 5354.1095 2354.0378 5099.5481 2279.1464 5155.124 1945.5307 Z" fill="none" stroke="#A9159C" opacity="0.4291845493562232" stroke-width="1" class="bayside"/>
<path d="M 5371.186 2173.4054 5151.2135 2227.422 5005.8788 1783.8069 5142.6796 1777.0259 5241.0029 1903.8632 5345.906 2060.1659 5371.186 2173.4054 Z" fill="none" stroke="#A9159C" opacity="0.4291845493562232" stroke-width="1" class="bayside"/>
<path d="M 5022.5496 1796.6597 5064.1207 1784.5877 5156.5928 1795.4086 5254.9223 1923.1679 5331.0906 2052.8371 5378.5794 2171.5425 5152.164 2237.5542 4994 2234.2555 5000.9256 2034.3329 4974.5621 1832.689 5022.5496 1796.6597 Z" fill="none" stroke="#A9159C" opacity="0.4291845493562232" stroke-width="1" class="bayside"/>
<path d="M 5070.1773 2182.7102 5018.3024 2050.6418 5001.6144 2032.3739 5048.8426 2013.1476 5053.4729 2016.0149 5063.8866 2020.5951 5068.3773 2013.5607 5096.92 2010.9576 5104.8681 1999.9998 5122.2792 1983.2617 5136.4868 1979.7721 5182.9018 1961.0027 5258.0643 1931.3337 5261.8956 1937.8859 5293.5217 2008.7243 5341.2887 2062.4814 5366.0043 2138.8729 5311.4642 2147.3127 5320.352 2185.0603 5332.5201 2238.4629 5328.8568 2251.8322 5253.0565 2267.698 5200.8559 2289.9469 5176.3674 2298.7629 5141.6681 2293.3226 5080.0788 2307.6419 5078.2556 2271.3672 5070.1773 2182.7102 Z" fill="none" stroke="#A9159C" opacity="0.4291845493562232" stroke-width="1" class="bayside"/>
<path d="M 5377.647 2168.7813 5448.0168 2198.0647 5524.1018 2282.608 5226.6447 2425.3323 5086.8827 2018.4663 5086.6788 1935.5701 5066.1178 1845.3634 5001.2282 1771.8465 5047.3516 1731.2184 5113.6508 1627.9276 5252.4541 1688.3424 5226.9375 1828.3806 5338.4782 2049.1324 5377.647 2168.7813 Z" fill="none" stroke="#A9159C" opacity="0.4291845493562232" stroke-width="1" class="bayside"/>
<path d="M 5244.735 1916.7476 5512.9973 2280.7976 4997.4107 2503.3119 4974.0946 2027.9482 5244.735 1916.7476 Z" fill="none" stroke="#A9159C" opacity="0.4291845493562232" stroke-width="1" class="bayside"/>
<path d="M 5048.2026 2083.0409 5295.8531 2016.0869 5403.0958 2340.0807 5201.6346 2412.4961 5048.2026 2083.0409 Z" fill="none" stroke="#A9159C" opacity="0.4291845493562232" stroke-width="1" class="bayside"/>
<path d="M 5049.4501 1834.3526 5047.4746 1845.1102 5025.1609 1792.6714 5180.0283 1680.3907 5490.7517 2311.1996 5230.275 2423.3084 5178.7321 2309.445 5098.4937 2044.5664 5092.3217 1974.2405 5049.4501 1834.3526 Z" fill="none" stroke="#A9159C" opacity="0.4291845493562232" stroke-width="1" class="bayside"/>
<path d="M 5090.7008 1973.0931 5254.2568 1933.7615 5330.9391 2252.2872 5194.6209 2293.1878 5090.7008 1973.0931 Z" fill="none" stroke="#A9159C" opacity="0.4291845493562232" stroke-width="1" class="bayside"/>
<path d="M 5000.3149 1972.8841 5157.4047 1689.0578 5485.8386 2302.3361 5188.2407 2420.8075 5000.3149 1972.8841 Z" fill="none" stroke="#A9159C" opacity="0.4291845493562232" stroke-width="1" class="bayside"/>
<path d="M 3833.7796 2684.1493 3815.2117 2628.8664 3848.4231 2543.1145 4041.906 2631.3523 4182.6881 2725.17 3998.7084 2853.5664 3762.6359 2784.7037 3833.7796 2684.1493 Z" fill="none" stroke="#A9159C" opacity="0.4291845493562232" stroke-width="1" class="bayside"/>
<path d="M 5097.0268 2007.388 5226.2172 1906.6649 5332.2307 2132.0561 5149.1241 2132.5363 5097.0268 2007.388 Z" fill="none" stroke="#A9159C" opacity="0.4291845493562232" stroke-width="1" class="bayside"/>
<path d="M 5610.4632 2445.305 5065.9245 2651.0366 4894.7816 2257.0206 4975.864 2077.4946 5122.4669 1952.9077 5281.4008 1915.656 5610.4632 2445.305 Z" fill="none" stroke="#A9159C" opacity="0.4291845493562232" stroke-width="1" class="bayside"/>
<path d="M 5379.5043 2171.5399 5172.4832 2226.4467 5081.2285 1975.1888 5247.5039 1914.8983 5379.5043 2171.5399 Z" fill="none" stroke="#A9159C" opacity="0.4291845493562232" stroke-width="1" class="bayside"/>
<path d="M 5096.0248 1976.0735 5260.477 1925.9163 5386.8593 2155.8581 5172.4503 2213.5484 5096.0248 1976.0735 Z" fill="none" stroke="#A9159C" opacity="0.4291845493562232" stroke-width="1" class="bayside"/>
<path d="M 5385.5544 2352.1082 5422.8369 2452.4462 5207.509 2537.8128 5103.0757 2583.2375 4990.2918 2623.1422 4996.466 2495.02 5005.2954 2317.1515 4992.1503 2234.2599 5160.4622 2227.3986 5317.5762 2184.6072 5328.8844 2261.967 5345.6007 2286.7982 5385.5544 2352.1082 Z" fill="none" stroke="#A9159C" opacity="0.4291845493562232" stroke-width="1" class="bayside"/>
<path d="M 5014.1922 1781.0244 5125.0186 1738.394 5119.3712 1697.8919 5158.1614 1684.9031 5232.3833 1789.6881 5201.0567 1830.2897 5383.1448 2150.341 5529.6838 2293.6482 5226.6639 2432.7043 4995.5604 2503.3163 5014.1922 1781.0244 Z" fill="none" stroke="#A9159C" opacity="0.4291845493562232" stroke-width="1" class="bayside"/>
<path d="M 5373.9019 2152.2091 4983.9693 2295.0884 4952.2737 2188.288 4931.4706 1989.3606 4938.5113 1834.6146 4990.1785 1790.2903 5088.1607 1786.3706 5175.1523 1822.9887 5258.6571 1936.9735 5373.9019 2152.2091 Z" fill="none" stroke="#A9159C" opacity="0.4291845493562232" stroke-width="1" class="bayside"/>
<path d="M 5377.6419 2166.9388 5585.6536 2451.9739 5280.6963 2574.4861 5152.136 2226.4984 5253.8624 2222.5504 5377.6419 2166.9388 Z" fill="none" stroke="#A9159C" opacity="0.4291845493562232" stroke-width="1" class="bayside"/>
<path d="M 5104.5267 2235.3701 4958.8544 1836.4094 5117.2772 1784.9171 5385.034 2164.6151 5104.5267 2235.3701 Z" fill="none" stroke="#A9159C" opacity="0.4291845493562232" stroke-width="1" class="bayside"/>
<path d="M 5394.2731 2161.365 5425.1559 1962.3083 5516.6433 2262.3598 5230.345 2425.3226 5120.4007 2110.4993 5308.8332 2028.9477 5394.2731 2161.365 Z" fill="none" stroke="#A9159C" opacity="0.4291845493562232" stroke-width="1" class="bayside"/>
<path d="M 5205.3857 2074.3571 5270.0699 2056.6856 5290.6279 2136.7745 5235.1842 2153.5035 5252.8792 2200.4417 5271.5449 2263.9636 5330.7066 2251.8272 5357.6729 2304.2715 5327.2021 2323.7041 5274.3564 2277.7766 5183.7587 2295.5191 5129.1895 2296.5787 5177.6514 2439.2815 5205.361 2422.623 5178.2114 2296.4547 5205.3857 2074.3571 Z" fill="none" stroke="#A9159C" opacity="0.4291845493562232" stroke-width="1" class="bayside"/>
<path d="M 5162.7691 1679.3667 5353.5259 2141.2103 4991.0864 2175.2995 4913.2042 1682.7302 5162.7691 1679.3667 Z" fill="none" stroke="#A9159C" opacity="0.4291845493562232" stroke-width="1" class="bayside"/>
<path d="M 5030.8807 1801.2442 5423.4312 2006.5251 5724.4899 2474.5877 5291.8531 2594.733 5030.8807 1801.2442 Z" fill="none" stroke="#A9159C" opacity="0.4291845493562232" stroke-width="1" class="bayside"/>
<path d="M 4879.5607 1931.4517 4909.5864 1717.7291 5059.5209 1793.8078 5226.2268 1910.3489 5375.8075 2172.4714 5166.934 2226.4608 5134.5657 2227.4639 4856.9339 2151.6537 4879.5607 1931.4517 Z" fill="none" stroke="#A9159C" opacity="0.4291845493562232" stroke-width="1" class="bayside"/>
<path d="M 5713.7477 1997.3729 5825.5047 1958.3318 5815.6555 2057.8434 5715.8302 2071.9782 5713.7477 1997.3729 Z" fill="none" stroke="#A9159C" opacity="0.4291845493562232" stroke-width="1" class="bayside"/>
<path d="M 5026.7277 1810.3841 5162.6818 1685.7388 5329.9139 2042.4553 5513.8469 2303.8242 5227.4057 2417.0313 5149.693 2148.3672 5026.7277 1810.3841 Z" fill="none" stroke="#A9159C" opacity="0.4291845493562232" stroke-width="1" class="bayside"/>
<path d="M 5088.6436 1982.5392 5455.8094 2336.2462 5409.6223 2358.4911 5341.2827 2399.2246 5330.1772 2397.4118 5343.5324 2376.1816 5224.2792 2405.0655 5185.1652 1942.2305 5098.8169 1983.4352 5088.6436 1982.5392 Z" fill="none" stroke="#A9159C" opacity="0.4291845493562232" stroke-width="1" class="bayside"/>
<path d="M 5381.3513 2170.6135 5464.7194 2217.3644 5519.5148 2295.5207 5222.906 2410.598 5192.1614 2325.9037 5149.2776 2193.3388 5085.9422 2012.0209 5085.7407 1930.0462 5069.8383 1854.5638 5020.7161 1803.1104 5088.1516 1782.687 5151.0507 1797.2644 5198.3094 1840.4271 5253.9953 1922.2493 5288.4212 2003.2113 5332.9425 2053.7532 5381.3513 2170.6135 Z" fill="none" stroke="#A9159C" opacity="0.4291845493562232" stroke-width="1" class="bayside"/>
<path d="M 5308.714 1984.735 5356.9873 2054.6086 5479.292 2139.0146 5624.1503 2333.9086 5465.5072 2492.8736 5084.5327 2567.6151 4958.7045 2567.9157 4987.4261 2191.8911 5079.6932 2103.2303 5038.2231 1779.1251 5086.1487 1720.0737 5148.8296 1649.9373 5278.6154 1793.2496 5308.714 1984.735 Z" fill="none" stroke="#A9159C" opacity="0.4291845493562232" stroke-width="1" class="bayside"/>
<path d="M 5090.036 1976.8454 5175.2113 1930.7909 5106.4311 1785.4524 5224.9516 1858.8249 5288.1287 1974.7063 5345.7073 2066.6625 5372.7314 2194.1004 5325.5128 2209.2583 5330.9322 2249.7536 5222.5853 2279.3879 5197.8798 2215.4585 5165.1565 2225.4045 5090.036 1976.8454 Z" fill="none" stroke="#A9159C" opacity="0.4291845493562232" stroke-width="1" class="bayside"/>
<path d="M 5048.7484 1926.4524 5221.5273 1880.8893 5493.6644 2312.1808 5231.2315 2410.5763 5048.7484 1926.4524 Z" fill="none" stroke="#A9159C" opacity="0.4291845493562232" stroke-width="1" class="bayside"/>
<path d="M 5256.6002 2091.5792 5316.9599 2184.4624 5172.5897 2147.07 5213.1875 2111.0379 5256.6002 2091.5792 Z" fill="none" stroke="#A9159C" opacity="0.4291845493562232" stroke-width="1" class="bayside"/>
<path d="M 5123.2987 1789.967 5561.0881 2278.8137 5228.5093 2430.8565 5213.4691 2338.7486 5183.5581 2217.2053 5157.3724 2103.0367 5086.8465 2003.7287 5045.9569 1919.0909 4942.2433 1849.3411 5034.4988 1768.0835 5123.2987 1789.967 Z" fill="none" stroke="#A9159C" opacity="0.4291845493562232" stroke-width="1" class="bayside"/>
<path d="M 5403.2066 2127.1815 5442.1569 2165.764 5506.1857 2240.2052 5518.6659 2291.1503 5637.2418 2474.1374 5634.5645 2506.4006 5536.5664 2529.7333 5464.7916 2548.6806 5420.4006 2555.2579 5411.3503 2559.8647 5347.9652 2387.709 5265.5509 2217.6412 5339.8912 2375.0572 5240.9988 2407.5734 5200.0518 2312.7709 5179.6583 2227.4759 5127.4918 2078.3661 5096.7304 1974.2305 5085.6962 1872.8595 5042.0923 1810.3416 5166.9068 1814.6367 5279.8023 1990.3252 5403.2066 2127.1815 Z" fill="none" stroke="#A9159C" opacity="0.4291845493562232" stroke-width="1" class="bayside"/>
<path d="M 5150.7294 1670.1894 5520.386 2277.0906 5232.1518 2408.7309 5159.549 2232.0075 5163.2205 2220.9424 5029.0273 1799.4068 5150.7294 1670.1894 Z" fill="none" stroke="#A9159C" opacity="0.4291845493562232" stroke-width="1" class="bayside"/>
<path d="M 4992.4512 1969.8761 5231.7332 1894.6775 5514.8794 2291.8487 5227.5121 2403.2141 4992.4512 1969.8761 Z" fill="none" stroke="#A9159C" opacity="0.4291845493562232" stroke-width="1" class="bayside"/>
<path d="M 5025.4133 1834.4104 5134.4522 1813.8826 5452.0361 2310.4574 5136.0158 2436.6224 5025.4133 1834.4104 Z" fill="none" stroke="#A9159C" opacity="0.4291845493562232" stroke-width="1" class="bayside"/>
<path d="M 5164.555 2018.2721 5133.1624 2036.7738 5207.1231 2031.0586 5207.0707 2010.7942 5282.8144 1981.1201 5525.9786 2291.8163 5230.3402 2423.4796 5112.8743 2058.932 5113.8872 2466.1668 5228.5525 2447.4438 5164.555 2018.2721 Z" fill="none" stroke="#A9159C" opacity="0.4291845493562232" stroke-width="1" class="bayside"/>
<path d="M 5260.1906 2517.3997 5234.0501 2427.156 5178.5647 2434.6715 5081.7009 2167.7114 4957.4333 2020.6181 5084.9247 1974.2587 5060.5753 1847.2188 4988.2645 1762.6684 5176.5635 1651.7083 5646.6142 2420.458 5497.1164 2546.2356 5422.8214 2446.917 5260.1906 2517.3997 Z" fill="none" stroke="#A9159C" opacity="0.4291845493562232" stroke-width="1" class="bayside"/>
<path d="M 5249.3875 2422.1101 5128.2634 2291.6701 5007.8557 2226.8521 5013.982 2057.5221 4997.85 2008.4974 4969.7531 1855.6724 5011.851 1800.2049 5061.4937 1685.9003 5270.4442 1703.7847 5217.8791 1831.1081 5397.1692 2161.2022 5530.2239 2290.4844 5249.3875 2422.1101 Z" fill="none" stroke="#A9159C" opacity="0.4291845493562232" stroke-width="1" class="bayside"/>
<path d="M 5169.2817 1695.9244 5408.8121 2069.2034 5523.6226 2118.6191 5575.9088 2286.1407 5628.1799 2442.6306 5539.6858 2549.798 5297.4144 2598.4048 5179.9859 2266.9663 5142.7295 2163.8746 5030.8232 1777.3011 5169.2817 1695.9244 Z" fill="none" stroke="#A9159C" opacity="0.4291845493562232" stroke-width="1" class="bayside"/>
<path d="M 5421.6544 2032.3214 5433.0318 2131.7766 5456.2695 2173.1667 5509.1771 2239.3479 5529.6352 2277.0636 5540.84 2312.9647 5600.2033 2368.0741 5630.8825 2418.6629 5585.7582 2486.9926 5548.8834 2531.3385 5485.0943 2548.1136 5343.6562 2590.9063 5296.4373 2579.0524 5227.106 2602.2774 4983.0737 2701.5069 4993.5296 2426.8327 5004.3179 2295.0404 4988.3987 2212.1572 4991.6678 2029.7492 4978.4156 1898.9896 4966.231 1828.1038 4981.8563 1789.389 5045.5607 1755.1647 5135.9355 1668.3851 5219.1489 1677.3801 5315.7501 1851.1683 5384.5751 1999.265 5414.2053 2013.92 5421.6544 2032.3214 Z" fill="none" stroke="#A9159C" opacity="0.4291845493562232" stroke-width="1" class="bayside"/>
<path d="M 5238.167 2409.6366 5226.6399 2423.4893 5219.1484 2388.4921 5189.3652 2317.6182 5091.5129 2021.2183 5091.1603 1971.9406 5179.1435 1937.6407 5182.6697 1960.6579 5257.4861 1931.2201 5269.8237 1963.8846 5277.7368 1984.1272 5304.4372 2027.5779 5341.3076 2069.3901 5351.775 2092.8514 5379.9577 2168.3142 5318.9647 2185.0641 5331.624 2249.0607 5328.4157 2259.6649 5354.9056 2307.0433 5383.6903 2347.0454 5333.816 2374.8259 5238.167 2409.6366 Z" fill="none" stroke="#A9159C" opacity="0.4291845493562232" stroke-width="1" class="bayside"/>
<path d="M 5270.3462 2160.7808 5327.0076 2166.8472 5327.4713 2167.3066 5346.8911 2166.793 5327.7012 2166.8453 5324.9187 2163.8588 5326.7758 2166.6175 5287.0814 2193.902 5285.2391 2196.6707 5270.3462 2160.7808 Z" fill="none" stroke="#A9159C" opacity="0.4291845493562232" stroke-width="1" class="bayside"/>
<path d="M 5018.4176 2002.0524 5273.4065 1920.3559 5585.7692 2490.6789 5005.2009 2667.3496 5018.4176 2002.0524 Z" fill="none" stroke="#A9159C" opacity="0.4291845493562232" stroke-width="1" class="bayside"/>
<path d="M 5256.034 1994.0864 5385.516 2338.2868 5193.3517 2429.1045 5054.6444 2070.1289 5256.034 1994.0864 Z" fill="none" stroke="#A9159C" opacity="0.4291845493562232" stroke-width="1" class="bayside"/>
<path d="M 5375.7922 2166.9439 5178.0183 2220.9047 5027.1828 1801.2531 5093.7165 1790.0404 5210.2968 1828.4239 5375.7922 2166.9439 Z" fill="none" stroke="#A9159C" opacity="0.4291845493562232" stroke-width="1" class="bayside"/>
<path d="M 5392.5357 2534.0905 5322.2733 2553.0614 5286.8096 2568.3639 5265.4391 2577.8677 5236.4364 2587.8519 5213.8726 2538.9483 5198.6882 2480.6969 5171.6739 2407.8503 5138.1424 2316.5966 5104.5544 2246.5411 5079.4115 2176.9296 5078.931 2169.5607 5072.8929 2158.6356 5067.4516 2155.3093 5060.1567 2150.3754 5049.2689 2141.5349 5044.1703 2136.4804 5032.4429 2114.8601 5022.8074 2097.7258 5013.5251 2083.1242 5005.8641 2069.6703 5003.4277 2065.8762 5003.1296 2037.6668 5000.7723 2018.444 4996.2077 1994.3909 4993.7316 1973.6725 4988.3407 1942.139 4985.7487 1921.1917 4981.7622 1896.9095 4978.2428 1874.5838 4974.4808 1847.3091 4972.9532 1836.4916 4975.0071 1825.3205 4976.5977 1813.6901 4973.1072 1803.5683 4975.7505 1797.346 4981.2853 1792.2681 4984.8605 1789.2668 4999.4328 1794.4124 5013.6193 1783.0978 5023.6539 1775.2463 5026.9967 1771.785 5034.7338 1769.6945 5042.3655 1771.8632 5059.93 1771.9357 5083.1503 1769.4617 5094.2374 1767.0171 5102.8868 1760.0892 5101.3786 1757.6757 5087.2736 1754.6026 5087.3841 1752.5304 5107.9636 1757.0838 5128.7116 1736.5431 5125.8877 1716.2919 5102.751 1705.2997 5143.3673 1683.0989 5189.6222 1697.714 5211.0017 1743.7001 5236.0955 1795.2037 5310.6502 2016.9683 5393.3252 2153.0764 5522.2332 2276.1638 5635.519 2422.3349 5567.2556 2487.0477 5534.5633 2498.7791 5522.3176 2503.0772 5505.908 2507.1569 5485.454 2512.4 5460.377 2518.6927 5433.7949 2524.5283 5413.5721 2529.9996 5392.5357 2534.0905 Z" fill="none" stroke="#A9159C" opacity="0.4291845493562232" stroke-width="1" class="bayside"/>
<path d="M 5151.7427 2161.6326 5116.3662 2087.952 5289.8295 2008.7241 5326.9334 2051.9171 5359.9969 2140.2713 5215.2608 2156.2611 5169.0276 2159.1437 5151.7427 2161.6326 Z" fill="none" stroke="#A9159C" opacity="0.4291845493562232" stroke-width="1" class="bayside"/>
<path d="M 5053.2172 2053.5516 4867.8653 2077.0117 4867.0285 1908.9147 5109.2809 1915.2517 5123.4348 2029.4292 5053.2172 2053.5516 Z" fill="none" stroke="#A9159C" opacity="0.4291845493562232" stroke-width="1" class="bayside"/>
<path d="M 5381.3667 2176.1411 5524.4034 2385.8065 5532.3383 2568.2524 5392.1476 2727.1897 5257.025 2720.1814 5084.8315 2689.2795 5060.1817 2446.025 4989.3496 2223.2107 5103.5359 2022.1097 5381.3667 2176.1411 Z" fill="none" stroke="#A9159C" opacity="0.4291845493562232" stroke-width="1" class="bayside"/>
<path d="M 5043.8297 1803.9757 5234.572 1919.5373 5304.9037 2286.9086 5209.7477 2330.4654 5043.8297 1803.9757 Z" fill="none" stroke="#A9159C" opacity="0.4291845493562232" stroke-width="1" class="bayside"/>
<path d="M 5294.8395 1982.9301 5443.769 2330.7519 5070.4139 2469.0385 5009.3638 2083.1341 5294.8395 1982.9301 Z" fill="none" stroke="#A9159C" opacity="0.4291845493562232" stroke-width="1" class="bayside"/>
<path d="M 5081.111 1927.2945 5079.2708 1930.9831 5061.5312 1860.1098 5189.081 1846.8974 5261.5843 1994.9928 5472.6336 2074.5495 5570.2278 2241.9325 5480.7203 2314.061 5233.0913 2414.2574 5081.111 1927.2945 Z" fill="none" stroke="#A9159C" opacity="0.4291845493562232" stroke-width="1" class="bayside"/>
<path d="M 4849.9882 1937.9647 4797.7668 1731.789 4779.3969 1787.0802 4923.4752 1727.8265 5227 1852.325 5479.1331 2083.7426 5754.0673 2466.2005 5547.1145 2558.9925 5218.1456 2714.7524 4891.857 2464.8498 4849.9882 1937.9647 Z" fill="none" stroke="#A9159C" opacity="0.4291845493562232" stroke-width="1" class="bayside"/>
<path d="M 5186.2839 1837.6952 5359.883 2098.8169 5388.7678 2177.0418 5175.239 2219.0692 5073.8315 1975.2069 5054.9858 1829.7345 4966.1902 1810.6064 4988.3383 1793.9782 5122.3145 1766.0265 5116.6463 1717.2358 5163.7051 1683.9682 5239.704 1761.1216 5235.2217 1814.5451 5202.9128 1833.0477 5186.2839 1837.6952 Z" fill="none" stroke="#A9159C" opacity="0.4291845493562232" stroke-width="1" class="bayside"/>
<path d="M 5120.6857 2224.7347 4982.9171 1847.4045 5182.2179 1694.0498 5396.0817 2146.62 5259.3678 2205.9524 5120.6857 2224.7347 Z" fill="none" stroke="#A9159C" opacity="0.4291845493562232" stroke-width="1" class="bayside"/>
<path d="M 5137.0001 2092.0338 5104.2048 2105.4729 5062.6536 2131.3689 5042.2485 2106.5456 5027.3608 2068.3524 5012.4808 2032.9238 5011.9341 1997.4623 4998.917 1967.0976 4986.8482 1946.4024 5014.9991 1925.6124 5087.9864 1903.3312 5079.1365 1876.1838 5048.0165 1815.0166 5065.5736 1811.7507 5098.3785 1806.1447 5097.8651 1785.4257 5118.127 1754.9866 5127.2766 1717.2092 5142.0515 1711.1868 5178.998 1700.0432 5203.666 1766.7406 5199.1484 1807.2715 5195.5585 1849.1831 5217.3429 1871.6904 5252.1619 1928.2408 5260.0294 1931.4436 5262.3067 1918.5433 5271.6234 1945.2285 5275.3756 1965.4817 5280.0343 1978.8249 5288.4176 2001.8297 5290.2632 2000.4431 5306.0715 2033.5608 5301.4617 2038.6394 5269.6088 2057.1474 5238.1965 2067.8235 5208.142 2067.4412 5185.0547 2079.4759 5137.0001 2092.0338 Z" fill="none" stroke="#A9159C" opacity="0.4291845493562232" stroke-width="1" class="bayside"/>
<path d="M 5145.5989 2094.7158 5326.3397 2049.6223 5368.4327 2173.2081 5197.0643 2200.7277 5145.5989 2094.7158 Z" fill="none" stroke="#A9159C" opacity="0.4291845493562232" stroke-width="1" class="bayside"/>
<path d="M 5110.2695 1755.0061 5198.8705 1699.5318 5251.1682 1901.9945 5357.1391 2109.8789 5383.2265 2179.821 5180 2272.4944 4950.3899 2173.5521 4996.2172 1998.4207 4949.5967 1830.9053 5110.2695 1755.0061 Z" fill="none" stroke="#A9159C" opacity="0.4291845493562232" stroke-width="1" class="bayside"/>
<path d="M 5558.3968 2619.7895 5336.3095 2611.2033 5588.0877 2647.3526 5143.8574 2611.7076 4869.638 2457.5273 5227.1922 1926.0037 5333.1906 2144.9508 5446.2561 2229.3941 5558.3968 2619.7895 Z" fill="none" stroke="#A9159C" opacity="0.4291845493562232" stroke-width="1" class="bayside"/>
<path d="M 5088.655 1987.1446 5260.5306 1946.1789 5444.5842 2292.0508 5239.5667 2414.2405 5088.655 1987.1446 Z" fill="none" stroke="#A9159C" opacity="0.4291845493562232" stroke-width="1" class="bayside"/>
<path d="M 5436.8013 2156.6394 5374.9184 2185.3717 5286.1664 2197.5896 5181.6872 2208.9183 5142.9267 2242.1841 4895.8711 2193.9447 4935.7464 1838.3047 5153.2725 1944.6143 5240.1411 1927.8119 5251.241 1929.6248 5436.8013 2156.6394 Z" fill="none" stroke="#A9159C" opacity="0.4291845493562232" stroke-width="1" class="bayside"/>
<path d="M 5275.0462 2189.3276 5336.9701 2174.4206 5352.7956 2212.15 5289.9175 2216.9268 5275.0462 2189.3276 Z" fill="none" stroke="#A9159C" opacity="0.4291845493562232" stroke-width="1" class="bayside"/>
<path d="M 5522.2897 2295.5126 5248.7882 2403.1583 5038.2364 1784.6504 5158.1754 1690.4278 5522.2897 2295.5126 Z" fill="none" stroke="#A9159C" opacity="0.4291845493562232" stroke-width="1" class="bayside"/>
<path d="M 5475.1531 2310.9018 5005.1214 2471.9345 4980.5572 1828.6301 5135.8678 1799.6436 5475.1531 2310.9018 Z" fill="none" stroke="#A9159C" opacity="0.4291845493562232" stroke-width="1" class="bayside"/>
<path d="M 5489.9619 2311.2701 5501.9917 2313.0781 5572.4145 2355.2568 5635.5414 2429.7069 5547.0358 2532.2656 5294.614 2589.1955 5221.9738 2407.8359 5135.183 2104.935 5204.4753 2079.8865 5332.955 2058.3589 5373.0534 2179.8492 5401.8543 2226.7552 5455.4839 2221.9973 5489.9619 2311.2701 Z" fill="none" stroke="#A9159C" opacity="0.4291845493562232" stroke-width="1" class="bayside"/>
<path d="M 5520.9622 2303.4035 5198.6836 2480.7337 5062.0653 2155.6541 4898.2045 1916.9313 4959.0114 1840.369 5063.1519 1789.176 5196.946 1806.4668 5432.0476 2176.2388 5520.9622 2303.4035 Z" fill="none" stroke="#A9159C" opacity="0.4291845493562232" stroke-width="1" class="bayside"/>
<path d="M 4980.0096 1790.3142 5026.1911 1773.1683 5113.5221 1761.9045 5117.0786 1705.2641 5158.6253 1685.5925 5236.5698 1799.807 5193.8689 1821.3291 5383.2061 2172.4509 5100.5931 2234.2282 5001.2364 2067.954 4980.0096 1790.3142 Z" fill="none" stroke="#A9159C" opacity="0.4291845493562232" stroke-width="1" class="bayside"/>
<path d="M 5246.9817 2419.75 5034.6051 1812.2862 5184.3452 1802.705 5531.5283 2291.8 5246.9817 2419.75 Z" fill="none" stroke="#A9159C" opacity="0.4291845493562232" stroke-width="1" class="bayside"/>
<path d="M 5375.2091 2162.0591 5490.2472 2287.0331 5348.2108 2434.8641 5113.4152 2505.5152 4959.6609 2428.4749 4972.1725 2240.476 5055.095 2109.4587 5375.2091 2162.0591 Z" fill="none" stroke="#A9159C" opacity="0.4291845493562232" stroke-width="1" class="bayside"/>
<path d="M 5328.2171 2356.8728 5337.4621 2355.0047 5276.5101 2392.0272 5080.9189 1849.011 5151.0926 1813.8407 5483.4474 2297.468 5328.2171 2356.8728 Z" fill="none" stroke="#A9159C" opacity="0.4291845493562232" stroke-width="1" class="bayside"/>
<path d="M 5410.0956 2197.2505 5508.3459 2271.5975 5511.2011 2299.2304 5207.1849 2412.4818 5067.5689 2440.4778 4994.951 2245.3092 5013.0189 2064.702 4977.3269 1828.9988 5027.174 1797.5695 5115.8343 1762.3592 5128.6147 1697.8688 5171.0834 1677.5039 5228.6807 1787.856 5204.7547 1830.2801 5334.8345 2069.4077 5368.2057 2098.794 5360.8229 2104.3415 5370.2561 2171.5655 5410.0956 2197.2505 Z" fill="none" stroke="#A9159C" opacity="0.4291845493562232" stroke-width="1" class="bayside"/>
<path d="M 4961.1277 2018.7673 5084.9338 1977.9429 5077.3066 1884.0166 5014.2361 1799.4422 5023.1721 1670.5033 5206.1224 1644.2662 5388.5041 2082.1565 5513.0295 2291.854 5182.2839 2442.0342 5074.2799 2158.517 4961.1277 2018.7673 Z" fill="none" stroke="#A9159C" opacity="0.4291845493562232" stroke-width="1" class="bayside"/>
<path d="M 5156.3081 1683.0662 5450.2569 2335.3406 5552.5841 2531.3276 5228.036 2604.1183 5154.3246 2177.6643 5083.9978 1973.3399 4996.2412 2008.5527 4973.5881 1811.51 5156.3081 1683.0662 Z" fill="none" stroke="#A9159C" opacity="0.4291845493562232" stroke-width="1" class="bayside"/>
<path d="M 5122.3743 1789.9693 5177.9116 1817.4561 5208.4884 1844.0845 5240.0783 1903.8656 5273.5117 1959.9603 5304.2048 2027.1179 5342.2675 2082.2838 5366.4375 2128.2776 5378.5335 2154.96 5422.1237 2199.0593 5495.3465 2254.1294 5524.1045 2283.5293 5552.002 2334.1243 5626.246 2414.991 5552.6222 2544.2301 5449.2267 2623.7928 5367.956 2679.3241 5232.8742 2685.2172 5114.324 2269.8961 4905.4616 1936.9195 4850.6767 1831.1291 5019.7894 1802.1917 5081.7032 1791.9118 5122.3743 1789.9693 Z" fill="none" stroke="#A9159C" opacity="0.4291845493562232" stroke-width="1" class="bayside"/>
<path d="M 5545.8807 2532.7298 5312.1865 2586.6137 5152.4511 2168.2261 5022.0967 1800.5746 5079.3729 1784.0899 5183.0128 1823.8895 5278.1893 1980.4417 5381.8029 2166.6969 5672.5557 2433.2797 5545.8807 2532.7298 Z" fill="none" stroke="#A9159C" opacity="0.4291845493562232" stroke-width="1" class="bayside"/>
<path d="M 5457.1076 2142.763 5536.9372 2243.8735 5243.1895 2384.7435 5032.557 1729.4124 5206.1129 1640.5833 5457.1076 2142.763 Z" fill="none" stroke="#A9159C" opacity="0.4291845493562232" stroke-width="1" class="bayside"/>
<path d="M 5114.7792 1709.8739 5106.4439 1703.4489 5167.372 1671.9887 5541.7161 2296.377 5222.0218 2426.2658 5008.7025 1804.9808 5114.7792 1709.8739 Z" fill="none" stroke="#A9159C" opacity="0.4291845493562232" stroke-width="1" class="bayside"/>
<path d="M 4985.0973 1791.6836 5007.2819 1790.7102 5022.9743 1781.0035 5034.5098 1772.6879 5062.2483 1774.923 5083.9656 1772.1072 5101.9829 1768.3793 5103.3456 1758.7068 5119.9862 1759.1258 5130.5823 1745.2865 5131.9216 1726.4058 5128.6528 1713.0621 5123.5492 1705.2479 5126.7603 1695.5714 5143.8399 1687.2413 5166.4817 1685.3424 5178.0489 1690.3772 5189.1754 1703.7004 5202.6345 1725.305 5215.6213 1742.7673 5215.2093 1762.1064 5260.1264 1793.2987 5249.2172 1863.3183 5267.8639 1922.2126 5312.4523 1999.4624 5345.9312 2069.3774 5394.1192 2106.0918 5401.7025 2172.3994 5461.0173 2216.4537 5544.3906 2262.2785 5535.2118 2286.2609 5511.2976 2332.4008 5441.015 2338.1311 5378.2436 2384.3793 5320.9168 2393.751 5291.3896 2421.4753 5254.3773 2417.8875 5184.1671 2454.9308 5172.0328 2412.572 5158.9325 2353.6314 5150.5447 2328.774 5138.4204 2289.1845 5105.9449 2247.8045 5106.8446 2237.6677 5088.2427 2195.3335 5070.5806 2158.5261 5054.8053 2136.4547 5039.0285 2113.4624 5035.294 2098.7322 5012.149 2087.7333 5012.1183 2074.8369 5030.1404 2070.6486 5045.385 2065.0849 5067.1012 2059.0447 5079.1134 2055.3307 5094.8152 2047.9229 5095.2446 2034.5654 5094.2619 2011.0793 5090.0317 1982.9963 5091.8549 1972.3995 5090.4158 1951.2186 5089.9353 1943.8514 5073.2971 1945.7344 5063.1343 1948.9828 5060.3628 1949.9106 5064.7406 1944.1434 5046.9633 1952.9365 5044.6534 1953.6329 5036.5842 1962.4024 5029.4184 1962.4196 5021.781 1958.5234 5018.8811 1954.1553 5019.3324 1949.549 5024.2702 1936.1821 5017.7541 1917.7771 5011.2229 1892.9256 5013.9735 1883.2486 5013.0249 1873.1201 5010.6818 1859.7717 5009.7069 1838.5922 5008.7682 1832.6083 4999.0436 1825.2639 4998.1191 1825.2661 4980.1155 1835.4388 4979.6155 1819.3237 4976.8032 1802.7538 4985.0973 1791.6836 Z" fill="none" stroke="#A9159C" opacity="0.4291845493562232" stroke-width="1" class="bayside"/>
<path d="M 5180.0622 1935.3358 5244.7229 1912.1425 5314.4011 2036.3017 5352.4421 2083.1772 5371.1148 2147.6105 5393.3894 2176.1077 5436.0069 2202.7053 5499.971 2254.1161 5520.4344 2293.6752 5494.5947 2314.0209 5525.2692 2365.5318 5496.6339 2379.4369 5513.4533 2437.4423 5547.9012 2511.9877 5449.2896 2645.9138 5362.3484 2659.0611 5289.0701 2591.9754 5232.1903 2423.4748 5181.3423 2435.586 5130.1145 2296.5764 5101.2976 2238.6027 5051.1195 2141.991 5097.2771 2108.7143 5120.3731 2099.4449 5084.0046 1976.1031 5180.0622 1935.3358 Z" fill="none" stroke="#A9159C" opacity="0.4291845493562232" stroke-width="1" class="bayside"/>
<path d="M 5029.9628 1804.0091 5153.5094 1672.9447 5244.4277 1799.7864 5184.3806 1816.5187 5511.177 2290.9381 5226.5991 2407.8239 5095.2139 2022.1303 5081.9134 1877.5584 5029.9628 1804.0091 Z" fill="none" stroke="#A9159C" opacity="0.4291845493562232" stroke-width="1" class="bayside"/>
<path d="M 4999.3771 2161.461 4998.6353 2238.8512 5197.9784 2070.6915 5193.196 2008.9877 5283.7267 1976.5123 5378.5845 2173.385 5009.7427 2242.5102 4999.3771 2161.461 Z" fill="none" stroke="#A9159C" opacity="0.4291845493562232" stroke-width="1" class="bayside"/>
<path d="M 5225.636 2038.3796 5484.9841 2188.7461 5521.0153 2492.7132 5178.9133 2571.0652 4867.6852 2411.4558 4824.598 2166.4648 5045.9925 1933.8273 5225.636 2038.3796 Z" fill="none" stroke="#A9159C" opacity="0.4291845493562232" stroke-width="1" class="bayside"/>
<path d="M 4995.2839 1994.7385 5242.8593 1906.6214 5489.9965 2323.2483 5406.4223 2537.2774 5012.6034 2667.332 4995.2839 1994.7385 Z" fill="none" stroke="#A9159C" opacity="0.4291845493562232" stroke-width="1" class="bayside"/>
<path d="M 5184.3948 1822.0442 5270.7868 1978.3889 5371.1961 2177.0905 5490.8816 2309.4247 4993.6666 2484.8893 4984.7382 2228.7494 4771.9463 2196.0589 4761.2918 1968.5512 4751.1307 1973.1779 5093.7074 1786.3569 5184.3948 1822.0442 Z" fill="none" stroke="#A9159C" opacity="0.4291845493562232" stroke-width="1" class="bayside"/>
<path d="M 5178.5623 2433.75 5074.2866 2161.2808 5002.8645 2072.0954 4974.5643 1833.6099 5023.496 1805.8664 5072.4452 1786.4091 5115.8986 1788.1437 5163.092 1806.4429 5255.8614 1928.6916 5346.871 2074.9019 5451.1845 2336.2594 5178.5623 2433.75 Z" fill="none" stroke="#A9159C" opacity="0.4291845493562232" stroke-width="1" class="bayside"/>
<path d="M 5368.4394 2183.547 5000.4742 2234.2402 5003.2423 2231.4697 4976.4327 1841.894 4975.5082 1841.8962 5158.1941 1697.7942 5165.5843 1695.9338 5368.4394 2183.547 Z" fill="none" stroke="#A9159C" opacity="0.4291845493562232" stroke-width="1" class="bayside"/>
<path d="M 4994.9206 2232.4107 4978.9728 1742.4314 4978.9512 1733.223 5154.4221 1668.3385 5516.7293 2291.8433 5232.1951 2425.3178 4994.9206 2232.4107 Z" fill="none" stroke="#A9159C" opacity="0.4291845493562232" stroke-width="1" class="bayside"/>
<path d="M 5210.5128 1911.7713 5240.094 1909.8521 5374.405 2166.9477 5095.7335 2232.6279 5003.7968 2075.3173 5235.4363 1896.5098 5210.5128 1911.7713 Z" fill="none" stroke="#A9159C" opacity="0.4291845493562232" stroke-width="1" class="bayside"/>
<path d="M 5183.1924 2435.5812 4995.5125 2483.0418 5001.9223 2064.7284 5165.5561 1684.8843 5522.2735 2289.9843 5183.1924 2435.5812 Z" fill="none" stroke="#A9159C" opacity="0.4291845493562232" stroke-width="1" class="bayside"/>
<path d="M 5093.3713 2024.8982 5135.7098 1946.5007 5213.5147 1999.7242 5455.0664 2075.5209 5571.2896 2287.9972 5228.4492 2407.8191 5093.3713 2024.8982 Z" fill="none" stroke="#A9159C" opacity="0.4291845493562232" stroke-width="1" class="bayside"/>
<path d="M 5269.735 1930.4969 5383.0196 2105.2014 5375.619 2104.3007 5399.3776 2167.7996 5003.251 2235.1549 4999.9485 2012.2284 5156.9755 1946.4471 5240.0759 1902.9446 5269.735 1930.4969 Z" fill="none" stroke="#A9159C" opacity="0.4291845493562232" stroke-width="1" class="bayside"/>
<path d="M 5025.8133 1808.3934 4975.2839 1746.1234 5034.2685 1672.3182 5182.1424 1664.5848 5249.0379 1795.1698 5184.3357 1799.0215 5602.1502 2400.3198 5293.5852 2550.489 5025.8133 1808.3934 Z" fill="none" stroke="#A9159C" opacity="0.4291845493562232" stroke-width="1" class="bayside"/>
<path d="M 5294.5827 2025.1173 5466.8353 2245.7351 5282.0297 2311.1102 4872.6957 1838.4476 5126.991 1787.7476 5183.3178 1834.7558 5222.3367 2049.8103 5281.7376 2132.1921 5294.5827 2025.1173 Z" fill="none" stroke="#A9159C" opacity="0.4291845493562232" stroke-width="1" class="bayside"/>
<path d="M 5374.8572 2163.2614 5104.9857 2233.987 4918.4584 1959.9161 4836.7771 1816.4249 4838.3468 1689.3432 4958.5333 1698.2795 5121.3808 1762.3454 5262.3116 1920.3853 5374.8572 2163.2614 Z" fill="none" stroke="#A9159C" opacity="0.4291845493562232" stroke-width="1" class="bayside"/>
<path d="M 4851.3528 1718.7804 4902.1468 1902.1586 4902.1463 1901.9283 4917.0546 1952.5509 4917.5127 1950.7077 4907.2459 1908.3638 4903.5352 1902.8462 4855.3624 1859.668 4848.8908 1859.6823 4851.3528 1718.7804 Z" fill="none" stroke="#A9159C" opacity="0.4291845493562232" stroke-width="1" class="bayside"/>
<path d="M 4781.0176 1680.2595 4766.1969 1665.5586 5104.3578 1607.6947 5480.4737 1906.8886 5716.1009 2158.5713 5082.4471 2471.7738 4781.0176 1680.2595 Z" fill="none" stroke="#A9159C" opacity="0.4291845493562232" stroke-width="1" class="bayside"/>
<path d="M 5040.9937 1835.5002 5213.0249 1772.4479 5411.5256 2212.481 5184.2319 2299.6973 5040.9937 1835.5002 Z" fill="none" stroke="#A9159C" opacity="0.4291845493562232" stroke-width="1" class="bayside"/>
<path d="M 5150.9187 2248.0375 5151.3806 2247.806 5162.0049 2243.0572 5164.3347 2249.9613 5152.8967 2252.9847 5150.9187 2248.0375 Z" fill="none" stroke="#A9159C" opacity="0.4291845493562232" stroke-width="1" class="bayside"/>
<path d="M 5058.4334 2141.45 5067.7856 2140.2177 5046.4754 2123.6874 5015.8524 2079.5435 5014.8816 2060.2014 4991.1105 1824.0624 5124.0072 1761.2853 5393.8896 2165.4399 5713.5536 2466.1611 5359.0737 2724.4318 5058.4334 2141.45 Z" fill="none" stroke="#A9159C" opacity="0.4291845493562232" stroke-width="1" class="bayside"/>
<path d="M 5031.552 2081.2378 5055.5921 2079.9509 5069.998 2077.7679 5083.5481 2072.5531 5088.7366 2067.2437 5100.1302 2062.7249 5123.1974 2057.8317 5118.8413 2041.4153 5119.7269 2025.7539 5138.6608 2016.9559 5157.5896 2006.3153 5174.2287 2004.4308 5181.9213 1999.498 5208.2262 1981.0085 5237.3292 1972.1825 5276.2827 1959.0314 5309.6022 1971.3765 5323.5265 1991.6027 5361.4053 2036.1732 5368.4002 2057.8008 5385.6211 2098.7454 5385.6479 2108.4179 5406.5942 2158.1058 5412.227 2188.0312 5413.175 2196.3201 5412.7669 2215.6685 5394.3351 2239.2136 5366.159 2251.269 5334.7238 2255.5012 5310.2151 2256.0282 5282.8318 2276.8317 5249.991 2274.6153 5195.0222 2299.6355 5166.5104 2302.6261 5137.3502 2293.0252 5133.7725 2280.2884 5101.6744 2204.3585 5090.4797 2165.2319 5055.7154 2130.7704 5031.552 2081.2378 Z" fill="none" stroke="#A9159C" opacity="0.4291845493562232" stroke-width="1" class="bayside"/>
<path d="M 5143.5847 2136.2352 5109.1869 2063.5469 5186.7092 2003.4778 5234.2835 2162.7183 5150.1466 2171.226 5143.5847 2136.2352 Z" fill="none" stroke="#A9159C" opacity="0.4291845493562232" stroke-width="1" class="bayside"/>
<path d="M 5011.9549 2006.2127 5016.5716 2003.4384 5014.4873 2001.8315 5097.3925 1874.7574 5116.3041 1858.133 5183.0523 1839.3151 5226.1986 1899.5272 5260.8758 2076.7452 5324.458 2249.7711 5218.855 2275.619 5142.5878 2291.2471 5123.718 2235.3223 5101.5117 2231.6923 5047.8633 2133.9381 5007.2416 2065.6369 5011.9549 2006.2127 Z" fill="none" stroke="#A9159C" opacity="0.4291845493562232" stroke-width="1" class="bayside"/>
<path d="M 5134.8638 1977.8189 5067.841 1793.7875 5256.7204 1903.8218 5409.0288 2146.5839 5605.5953 2315.5363 5569.3521 2569.9865 5255.1694 2718.3427 5080.6421 2490.2094 5028.0219 2151.2591 5031.2964 1974.389 5053.1391 1830.6599 5134.8638 1977.8189 Z" fill="none" stroke="#A9159C" opacity="0.4291845493562232" stroke-width="1" class="bayside"/>
<path d="M 4996.1345 1963.4199 5085.7463 1932.3488 5087.6918 1971.4887 5180.9998 1940.3991 5248.8774 1909.8291 5389.1905 2162.7611 5102.1974 2228.4659 4996.1345 1963.4199 Z" fill="none" stroke="#A9159C" opacity="0.4291845493562232" stroke-width="1" class="bayside"/>
<path d="M 5034.5829 1803.0771 5215.8198 1819.2003 5654.1105 2451.7669 5491.552 2541.6436 5249.313 2602.6801 5103.1371 2234.4522 5083.5845 2181.5258 5035.3339 2115.3137 5007.9285 2062.8718 4989.1315 1934.4235 4981.0195 1826.6878 5034.5829 1803.0771 Z" fill="none" stroke="#A9159C" opacity="0.4291845493562232" stroke-width="1" class="bayside"/>
<path d="M 4966.2133 2018.7555 5236.3584 1895.5864 5382.7322 2168.3066 5100.3648 2235.3804 4966.2133 2018.7555 Z" fill="none" stroke="#A9159C" opacity="0.4291845493562232" stroke-width="1" class="bayside"/>
<path d="M 5115.7104 2083.7964 5318.5292 2046.9878 5365.6016 2169.6299 5416.966 2347.3073 5219.2213 2426.1672 5115.7104 2083.7964 Z" fill="none" stroke="#A9159C" opacity="0.4291845493562232" stroke-width="1" class="bayside"/>
<path d="M 5268.808 1929.5783 5102.3046 2271.7686 5046.8169 1892.3797 5020.7643 2210.2378 5268.808 1929.5783 Z" fill="none" stroke="#A9159C" opacity="0.4291845493562232" stroke-width="1" class="bayside"/>
<path d="M 5445.6163 2329.8253 5180.4149 2434.6668 5098.5093 2233.0817 5157.6853 2226.4843 5120.3754 2100.3661 5318.1198 2043.6608 5339.4129 2052.8144 5445.6163 2329.8253 Z" fill="none" stroke="#A9159C" opacity="0.4291845493562232" stroke-width="1" class="bayside"/>
<path d="M 5224.4569 1940.7474 5292.8546 1932.2773 5508.1666 2209.8687 5453.6053 2211.8683 5399.1362 2247.032 5155.9592 2275.3197 5114.499 1968.6591 5246.6277 1933.321 5224.4569 1940.7474 Z" fill="none" stroke="#A9159C" opacity="0.4291845493562232" stroke-width="1" class="bayside"/>
<path d="M 5185.9275 2419.9085 5013.0232 2066.5443 4979.2062 1841.8875 5101.0801 1777.1298 5403.4697 2142.9145 5529.7863 2328.6611 5476.5718 2479.9399 5289.8105 2522.8506 5185.9275 2419.9085 Z" fill="none" stroke="#A9159C" opacity="0.4291845493562232" stroke-width="1" class="bayside"/>
<path d="M 5045.5619 2138.3195 5119.4529 2101.2896 5083.1185 1991.7636 5071.7188 1867.4527 5024.4205 1805.8642 5006.8032 1783.8047 5031.7366 1772.6945 5104.7436 1763.3076 5131.4386 1718.1196 5115.6738 1697.9011 5164.6224 1681.2035 5234.2611 1800.7339 5194.5782 1827.5436 5341.3025 2067.5477 5372.9771 2152.2116 5404.5233 2188.9745 5455.4471 2209.0991 5490.69 2243.0868 5520.4317 2292.7539 5645.7256 2432.4404 5404.0305 2674.6152 5381.846 2682.9727 5281.8892 2674.9486 5221.4395 2558.0525 5170.1545 2401.5189 5124.5349 2284.6125 5073.3506 2156.6768 5045.5619 2138.3195 Z" fill="none" stroke="#A9159C" opacity="0.4291845493562232" stroke-width="1" class="bayside"/>
<path d="M 5095.2616 2041.4738 5084.9813 1997.2856 5092.3195 1973.3194 5178.2201 1938.1036 5227.1081 1893.7686 5240.0131 1878.999 5273.4211 1925.882 5305.0725 2005.93 5370.0171 2084.9712 5411.953 2200.0091 5451.7608 2213.7162 5508.3888 2286.3393 5481.6479 2314.9797 5180.4031 2430.0593 5130.1052 2292.8909 5108.7516 2260.6964 5078.9604 2181.5371 5075.2114 2161.2785 5045.5686 2141.0832 5006.5699 2074.8501 5095.2616 2041.4738 Z" fill="none" stroke="#A9159C" opacity="0.4291845493562232" stroke-width="1" class="bayside"/>
<path d="M 5086.6494 1923.5968 5193.7201 1853.3322 5432.0576 2114.2762 5525.0726 2298.2686 5229.3886 2413.3456 5086.6494 1923.5968 Z" fill="none" stroke="#A9159C" opacity="0.4291845493562232" stroke-width="1" class="bayside"/>
<path d="M 5087.7785 1974.41 5245.7371 1915.9822 5522.2916 2288.5551 5224.3985 2422.0879 5087.7785 1974.41 Z" fill="none" stroke="#A9159C" opacity="0.4291845493562232" stroke-width="1" class="bayside"/>
<path d="M 5216.0566 1910.3754 5241.9395 1908.4658 5338.4756 2048.2112 5399.8863 2184.381 5521.3405 2287.2229 5495.5063 2309.4113 5175.7801 2430.9926 5133.8188 2298.4099 5078.0152 2173.248 5047.3981 2132.7877 5003.7804 2068.4086 4998.0709 2000.2585 4985.6495 1829.9002 5114.052 1789.0691 5216.0566 1910.3754 Z" fill="none" stroke="#A9159C" opacity="0.4291845493562232" stroke-width="1" class="bayside"/>
<path d="M 5093.7755 1813.9838 5156.6768 1828.5613 5165.9404 1835.9053 5250.2412 1901.0759 5377.2849 2037.9721 5434.8866 2133.6138 5478.6903 2251.4134 5478.0169 2338.9469 5476.3971 2419.1191 5425.6771 2475.4769 5362.9136 2528.1819 5289.8401 2533.9098 5210.1247 2476.0596 5181.2904 2415.3129 5120.1469 2379.5296 5080.1495 2289.3292 5030.9444 2212.9774 4991.8743 2117.2596 4970.4798 2063.8812 4960.9862 1957.976 4970.114 1907.298 5012.4815 1839.046 5031.8416 1816.4369 5082.6853 1815.3925 5093.7755 1813.9838 Z" fill="none" stroke="#A9159C" opacity="0.4291845493562232" stroke-width="1" class="bayside"/>
<path d="M 5236.4211 1919.5324 5450.0368 2257.9448 5475.1388 2303.0202 5225.6548 2400.4544 5096.0202 1974.2313 5236.4211 1919.5324 Z" fill="none" stroke="#A9159C" opacity="0.4291845493562232" stroke-width="1" class="bayside"/>
<path d="M 5018.8451 1793.9058 5065.9382 1771.6909 5125.0509 1751.2858 5136.0211 1702.4542 5165.5538 1683.9635 5198.8919 1707.819 5226.7742 1765.7598 5240.7371 1802.5588 5214.9766 1850.5144 5250.2921 1920.417 5306.9168 2004.0828 5329.2412 2052.8421 5366.3791 2107.0898 5375.8381 2183.5266 5502.8499 2290.0409 5455.7937 2330.7177 5359.6545 2352.1797 5307.8795 2361.535 5267.2598 2392.0518 5250.5655 2375.5094 5220.9026 2351.6293 5142.0946 2279.0402 5095.6391 2194.394 5036.2874 2127.2872 5038.0704 2099.6467 5008.2377 1998.3922 4995.1598 1942.2381 5006.1347 1891.5562 5018.8451 1793.9058 Z" fill="none" stroke="#A9159C" opacity="0.4291845493562232" stroke-width="1" class="bayside"/>
<path d="M 5180.9939 2299.4421 5090.5496 2005.5618 5088.4691 1911.6191 5072.6051 1851.7942 5017.8877 1780.0947 5084.4222 1769.8039 5115.8183 1755.9132 5121.2061 1692.3625 5146.1333 1680.3296 5182.2061 1689.4458 5194.3103 1723.4848 5213.806 1755.664 5231.4372 1781.4025 5226.8895 1809.9623 5187.1753 1824.7998 5210.3803 1860.6568 5266.0367 1930.5067 5310.6751 2026.1794 5361.6869 2082.2306 5374.9464 2195.5057 5327.3545 2209.4555 5332.5596 2252.9738 5180.9939 2299.4421 Z" fill="none" stroke="#A9159C" opacity="0.4291845493562232" stroke-width="1" class="bayside"/>
<path d="M 5237.3888 2112.5031 5242.4569 2105.5808 5300.1662 2072.7255 5301.5446 2069.4978 5433.537 2310.5099 5272.7415 2366.2362 5125.7178 2387.8089 5119.8597 2264.3541 5162.1342 2157.3768 5096.5753 2198.9981 5092.7397 2143.7318 5168.3545 2057.8712 5245.1634 2079.7804 5270.1286 2078.7933 5237.3888 2112.5031 Z" fill="none" stroke="#A9159C" opacity="0.4291845493562232" stroke-width="1" class="bayside"/>
<path d="M 5099.639 1941.9854 5232.6963 1909.411 5287.5754 2032.6893 5501.5804 2171.1939 5413.1233 2287.5326 5221.8491 2359.9198 5099.639 1941.9854 Z" fill="none" stroke="#A9159C" opacity="0.4291845493562232" stroke-width="1" class="bayside"/>
<path d="M 5145.9401 1786.9172 5326.1453 2189.8813 5326.0734 2248.6151 5373.2752 2343.8492 5396.5078 2382.4857 5277.7535 2424.7369 5214.4826 2461.9946 5156.6519 2457.5351 5004.2843 2085.9097 5018.124 2072.75 5015.0611 1951.6315 5077.8247 1906.81 5084.7642 1814.9269 5101.0784 1776.4392 5145.9401 1786.9172 Z" fill="none" stroke="#A9159C" opacity="0.4291845493562232" stroke-width="1" class="bayside"/>
<path d="M 4974.1401 1838.0277 5126.6287 1791.3262 5374.6634 2162.9133 5101.6781 2223.4267 5034.0619 2111.8825 5002.8532 2023.2961 4991.5532 1938.0425 4968.7739 1843.6064 4974.1401 1838.0277 Z" fill="none" stroke="#A9159C" opacity="0.4291845493562232" stroke-width="1" class="bayside"/>
<path d="M 4714.9009 1891.2818 4743.5251 1873.7236 4956.2028 1888.9105 5691.579 2004.8107 5390.2716 2385.2675 4593.5192 2231.4308 4714.9009 1891.2818 Z" fill="none" stroke="#A9159C" opacity="0.4291845493562232" stroke-width="1" class="bayside"/>
<path d="M 5424.6871 2452.441 5218.604 2535.0192 5183.5864 2228.2609 5101.7048 2029.4832 5066.1223 1847.2053 5021.6185 1793.8992 5201.014 1813.7131 5403.3256 2091.327 5600.2669 2389.2676 5424.6871 2452.441 Z" fill="none" stroke="#A9159C" opacity="0.4291845493562232" stroke-width="1" class="bayside"/>
<path d="M 5390.1047 2658.0626 5359.4763 2624.0436 5312.1437 2570.7152 5237.7117 2412.4023 5208.8514 2341.5248 5151.9776 2163.8513 5108.1776 2029.4672 5100.6365 1971.4567 5108.013 1963.1488 5108.0221 1966.8331 5232.653 1892.8331 5257.7009 1925.0026 5345.9135 2062.9293 5380.4469 2177.9862 5468.4478 2227.4882 5518.7807 2360.9434 5502.192 2382.1852 5509.6753 2410.7295 5548.8481 2519.3577 5520.2864 2559.9928 5390.1047 2658.0626 Z" fill="none" stroke="#A9159C" opacity="0.4291845493562232" stroke-width="1" class="bayside"/>
<path d="M 5240.4652 2404.1017 5143.4593 2086.4904 5318.06 2021.5538 5495.485 2302.0402 5451.1557 2326.1238 5434.5297 2334.4638 5415.1206 2340.047 5372.6222 2358.5941 5345.8299 2370.6465 5314.4167 2384.5538 5274.6846 2401.2469 5240.4652 2404.1017 Z" fill="none" stroke="#A9159C" opacity="0.4291845493562232" stroke-width="1" class="bayside"/>
<path d="M 5034.5386 1784.6593 5151.0554 1799.1062 5518.563 2286.3096 5230.3113 2412.4217 5107.2118 2012.8894 5084.6893 1878.4726 5034.5386 1784.6593 Z" fill="none" stroke="#A9159C" opacity="0.4291845493562232" stroke-width="1" class="bayside"/>
<path d="M 5000.6965 1937.6198 5424.276 1650.1219 5906.3493 1801.4987 5847.0701 2333.2072 5370.2819 2516.1808 4788.7909 2288.1559 5000.6965 1937.6198 Z" fill="none" stroke="#A9159C" opacity="0.4291845493562232" stroke-width="1" class="bayside"/>
<path d="M 5448.3886 2328.896 5385.6183 2375.1442 5326.4071 2371.6209 5259.8985 2406.815 5228.4996 2427.1705 5160.0959 2447.6199 5097.2307 2464.365 5063.9807 2486.5639 5014.0194 2484.841 4995.5386 2494.1006 4988.1072 2481.2161 4978.7177 2422.26 4982.1973 2328.2629 4945.0792 2276.7516 4935.6775 2210.4373 4881.887 2144.2282 4883.5546 2063.1591 4900.0494 1996.8009 4909.2373 1970.9899 4896.1221 1895.495 4899.6911 1838.3869 4901.3566 1757.3439 4897.5716 1718.6771 4911.3849 1695.6255 4947.4623 1707.5132 4970.6016 1720.3509 4981.7092 1726.7707 4997.5741 1790.2728 5022.5297 1788.3716 5052.0963 1781.8542 5043.8364 1806.7384 5073.3696 1786.4069 5115.8389 1764.2009 5134.2117 1718.1126 5139.6653 1681.2667 5197.093 1727.161 5224.9109 1760.2394 5250.9207 1808.0575 5193.6561 1828.4669 5217.798 1868.9263 5254.9393 1929.615 5295.8382 2010.5603 5323.6979 2054.6994 5373.8459 2131.942 5388.7755 2179.8056 5431.4008 2209.1674 5474.0341 2240.3708 5505.5872 2277.1337 5505.721 2323.2028 5448.3886 2328.896 Z" fill="none" stroke="#A9159C" opacity="0.4291845493562232" stroke-width="1" class="bayside"/>
<path d="M 5524.1234 2289.9789 5219.1867 2403.2357 5135.1575 2094.802 5325.5249 2046.4041 5524.1234 2289.9789 Z" fill="none" stroke="#A9159C" opacity="0.4291845493562232" stroke-width="1" class="bayside"/>
<path d="M 4991.8468 2497.7956 4650.5194 2059.9687 4863.1843 2051.2296 4992.5534 2013.167 5077.5345 1977.04 5227.1009 1891.0056 5329.2362 2050.9998 5518.606 2301.0517 5442.8754 2341.8115 4991.8468 2497.7956 Z" fill="none" stroke="#A9159C" opacity="0.4291845493562232" stroke-width="1" class="bayside"/>
<path d="M 4976.3701 1815.1872 5191.4614 1694.026 5442.4834 2203.6082 4995.1251 2319.0184 5000.2648 2145.7978 4976.3701 1815.1872 Z" fill="none" stroke="#A9159C" opacity="0.4291845493562232" stroke-width="1" class="bayside"/>
<path d="M 4792.4927 2289.0693 5189.3178 2299.1904 5195.6145 2589.4555 4736.7045 2592.3683 4569.5921 2294.1286 4792.4927 2289.0693 Z" fill="none" stroke="#A9159C" opacity="0.4291845493562232" stroke-width="1" class="bayside"/>
<path d="M 4999.9398 2008.544 5247.4942 1911.2142 5381.3513 2170.6135 5522.2897 2295.5126 4993.7014 2499.6344 5006.2269 2319.9135 4989.2628 2186.3591 5003.7455 2053.6702 4999.9398 2008.544 Z" fill="none" stroke="#A9159C" opacity="0.4291845493562232" stroke-width="1" class="bayside"/>
<path d="M 5116.5823 2062.6074 5027.121 1775.4682 5176.5965 1664.599 5423.8515 2155.7547 5189.1357 2228.2467 5116.5823 2062.6074 Z" fill="none" stroke="#A9159C" opacity="0.4291845493562232" stroke-width="1" class="bayside"/>
<path d="M 5098.9399 2033.1746 5275.4026 1975.6134 5635.5386 2428.7854 5536.8481 2528.6091 5290.9328 2596.5788 5098.9399 2033.1746 Z" fill="none" stroke="#A9159C" opacity="0.4291845493562232" stroke-width="1" class="bayside"/>
<path d="M 5171.5231 2212.6295 5203.8718 2204.2548 5203.1349 2277.0418 5126.3962 2289.2147 5166.8801 2205.2709 5171.5231 2212.6295 Z" fill="none" stroke="#A9159C" opacity="0.4291845493562232" stroke-width="1" class="bayside"/>
<path d="M 5294.6381 2252.8459 5222.5799 2285.2837 5169.2438 2225.5336 5161.487 2084.6025 5194.6565 2037.5387 5309.3092 2034.0126 5364.0799 2111.7022 5362.8981 2186.3261 5332.5239 2239.8449 5294.6381 2252.8459 Z" fill="none" stroke="#A9159C" opacity="0.4291845493562232" stroke-width="1" class="bayside"/>
<path d="M 4995.3034 2003.0284 4968.9657 1811.5208 5166.4641 1678.4365 5243.7959 1911.2239 5317.2126 2050.1112 5369.3363 2173.4106 5258.4137 2194.8994 5141.9902 2237.5798 4994.0044 2236.0981 4995.3034 2003.0284 Z" fill="none" stroke="#A9159C" opacity="0.4291845493562232" stroke-width="1" class="bayside"/>
<path d="M 5634.6191 2430.6312 5404.0254 2672.7717 5280.0533 2680.484 5133.8466 2309.4665 5004.7226 2075.7757 4970.8792 1839.1442 5016.1113 1810.4886 5183.121 1685.7603 5327.3568 2039.9512 5395.0594 2111.6164 5634.6191 2430.6312 Z" fill="none" stroke="#A9159C" opacity="0.4291845493562232" stroke-width="1" class="bayside"/>
<path d="M 5382.2659 2166.926 5166.9293 2224.6182 5059.6105 1830.6442 5164.0329 1812.8869 5382.2659 2166.926 Z" fill="none" stroke="#A9159C" opacity="0.4291845493562232" stroke-width="1" class="bayside"/>
<path d="M 5289.9977 2592.8946 5142.8826 2224.6791 5386.8337 2146.6458 5602.1004 2383.7333 5519.2295 2514.8365 5289.9977 2592.8946 Z" fill="none" stroke="#A9159C" opacity="0.4291845493562232" stroke-width="1" class="bayside"/>
<path d="M 5229.8842 1894.6823 5303.2851 2028.9627 5315.3731 2053.8008 5394.4579 2227.6972 5131.9713 2299.3359 4962.0523 2018.7652 5175.4511 1939.9528 5229.8842 1894.6823 Z" fill="none" stroke="#A9159C" opacity="0.4291845493562232" stroke-width="1" class="bayside"/>
<path d="M 5131.6664 2177.7214 5189.5684 2036.6306 5452.2975 2077.3711 5573.9986 2265.8763 5250.7838 2458.444 5131.6664 2177.7214 Z" fill="none" stroke="#A9159C" opacity="0.4291845493562232" stroke-width="1" class="bayside"/>
<path d="M 5423.2431 2268.1555 5212.5752 2350.7295 5092.3785 1997.2674 5267.059 1967.3459 5423.2431 2268.1555 Z" fill="none" stroke="#A9159C" opacity="0.4291845493562232" stroke-width="1" class="bayside"/>
<path d="M 5088.7413 2116.105 5216.8129 2112.5568 5224.0533 2229.5384 5107.0279 2218.3195 5088.5123 2117.0267 5088.7413 2116.105 Z" fill="none" stroke="#A9159C" opacity="0.4291845493562232" stroke-width="1" class="bayside"/>
<path d="M 5013.753 1790.6948 5038.2763 1801.2264 5165.7248 1751.1832 5519.0389 2290.9152 5219.2394 2423.5085 5013.753 1790.6948 Z" fill="none" stroke="#A9159C" opacity="0.4291845493562232" stroke-width="1" class="bayside"/>
<path d="M 5219.8866 1961.0224 5503.9352 2345.3221 5130.6038 2491.9288 5053.608 2024.0743 5219.8866 1961.0224 Z" fill="none" stroke="#A9159C" opacity="0.4291845493562232" stroke-width="1" class="bayside"/>
<path d="M 5178.0372 2228.2751 5311.0924 2180.9396 5304.7252 2220.5723 5328.8418 2246.3042 5378.9978 2322.6407 5367.0494 2350.3165 5329.1471 2358.7131 5299.6101 2382.29 5277.4058 2380.9672 5237.6611 2393.0512 5213.5599 2373.7632 5215.3143 2336.9009 5196.6913 2289.0363 5178.0372 2228.2751 Z" fill="none" stroke="#A9159C" opacity="0.4291845493562232" stroke-width="1" class="bayside"/>
<path d="M 5041.0608 1805.8242 5128.8477 1790.874 5496.41 2302.0375 5231.2243 2407.8118 5084.025 1984.3927 5070.7741 1859.1663 5039.2208 1809.5123 5041.0608 1805.8242 Z" fill="none" stroke="#A9159C" opacity="0.4291845493562232" stroke-width="1" class="bayside"/>
<path d="M 5272.7706 2029.0442 5389.7003 2179.803 5322.6296 2343.0663 5111.7255 2340.8498 4933.978 2275.8558 4905.0256 2152.4671 4995.4993 2085.9305 5123.9938 2068.1158 5227.495 2042.0593 5272.7706 2029.0442 Z" fill="none" stroke="#A9159C" opacity="0.4291845493562232" stroke-width="1" class="bayside"/>
<path d="M 5376.7196 2167.8626 5407.2978 2188.9667 5425.8569 2211.0256 5472.1394 2224.7137 5504.6088 2258.7093 5508.453 2308.4524 5471.5394 2338.0441 5433.6568 2352.8949 5380.0325 2362.2593 5343.9773 2369.7301 5318.1068 2380.858 5282.0923 2403.9916 5267.3062 2409.5599 5235.905 2428.9941 5220.1141 2404.1548 5205.2324 2372.8633 5195.8992 2340.6368 5190.2783 2313.0089 5179.0798 2274.3395 5168.7884 2228.2987 5156.688 2197.9264 5151.0598 2166.6174 5129.7244 2140.8762 5122.2571 2113.2582 5095.3185 2064.5024 5091.5015 2016.6127 5087.6827 1967.8044 5099.6527 1947.5116 5085.6999 1913.468 5074.5194 1878.4975 5061.5065 1849.9793 5039.2674 1828.8516 5017.027 1806.8028 5026.2429 1794.809 5047.4608 1776.3402 5024.3566 1779.1584 5084.3634 1745.8616 5136.0558 1716.2664 5108.3795 1738.4355 5140.6151 1691.393 5165.5632 1687.6467 5182.2273 1697.7329 5203.5565 1724.3818 5224.0009 1765.767 5237.9251 1787.8318 5230.6042 1816.399 5209.3723 1828.4263 5205.6935 1835.8033 5220.5524 1861.5514 5235.4242 1891.9048 5255.8323 1917.6394 5272.5357 1940.6209 5255.9052 1945.2701 5259.6937 1979.3394 5287.472 1994.0029 5288.4902 2029.0023 5313.4963 2043.6733 5341.3227 2074.917 5350.633 2097.9211 5370.1747 2142.0857 5376.7196 2167.8626 Z" fill="none" stroke="#A9159C" opacity="0.4291845493562232" stroke-width="1" class="bayside"/>
<path d="M 5003.7936 2073.9356 5188.5798 2011.7629 5294.7097 2279.565 5002.5008 2308.8655 5003.7936 2073.9356 Z" fill="none" stroke="#A9159C" opacity="0.4291845493562232" stroke-width="1" class="bayside"/>
<path d="M 4992.4099 1952.3761 5262.3359 1929.5955 5364.7959 2203.8253 5015.2635 2230.5198 4992.4099 1952.3761 Z" fill="none" stroke="#A9159C" opacity="0.4291845493562232" stroke-width="1" class="bayside"/></svg>