<?xml version="1.0"?><svg xmlns="http://www.w3.org/2000/svg" version="1.2" baseProfile="tiny" width="6000" height="5918" viewBox="0 0 6000 5918" stroke-linecap="round" stroke-linejoin="round"><path d="M 5220.6469 4302.4692 5243.5062 4271.2478 5294.9546 4273.6507 5298.2741 4301.8029 5342.5522 4308.3774 5379.907 4325.1259 5427.6439 4324.9928 5409.2975 4393.8363 5402.8613 4412.7845 5361.687 4441.2945 5325.4299 4489.1837 5303.6884 4506.0964 5269.4847 4456.0876 5254.0054 4386.6394 5254.5707 4337.2368 5220.6469 4302.4692 Z" fill="none" stroke="#012394" opacity="0.6" stroke-width="1" class="bayswater"/>
<path d="M 5284.2808 4268.1394 5298.6782 4279.6422 5303.8281 4299.018 5359.0245 4315.4883 5385.9339 4325.8018 5371.2595 4382.6301 5381.0024 4386.066 5378.5699 4428.3196 5369.0888 4435.9642 5354.2523 4434.6198 5350.5656 4442.4793 5342.9226 4444.347 5284.1467 4478.905 5238.9618 4482.9491 5239.8188 4456.1657 5242.945 4410.9082 5249.7752 4364.2581 5261.2843 4334.6799 5240.3956 4322.2695 5208.8228 4300.1915 5227.2937 4274.2908 5284.2808 4268.1394 Z" fill="none" stroke="#012394" opacity="0.6" stroke-width="1" class="bayswater"/>
<path d="M 5226.8314 4274.7537 5363.1715 4306.7052 5348.5452 4381.5381 5357.0929 4456.3135 5269.125 4495.3372 5234.7381 4463.1051 5226.8314 4274.7537 Z" fill="none" stroke="#012394" opacity="0.6" stroke-width="1" class="bayswater"/>
<path d="M 5289.4891 4483.2774 5238.4753 4474.1772 5212.0897 4308.9547 5219.414 4273.8497 5281.5026 4269.0701 5425.3421 4330.5394 5404.2595 4415.551 5289.4891 4483.2774 Z" fill="none" stroke="#012394" opacity="0.6" stroke-width="1" class="bayswater"/>
<path d="M 5221.6994 4261.6101 5302.34 4262.5514 5352.9616 4301.6549 5426.4748 4321.3027 5422.5976 4343.4742 5394.0726 4419.2731 5276.554 4499.9351 5210.6535 4470.5555 5205.4727 4259.113 5221.6994 4261.6101 Z" fill="none" stroke="#012394" opacity="0.6" stroke-width="1" class="bayswater"/>
<path d="M 5417.9137 4325.9435 5402.4081 4416.4796 5271.0232 4511.9555 5221.3396 4301.5441 5275.9463 4270.9314 5417.9137 4325.9435 Z" fill="none" stroke="#012394" opacity="0.6" stroke-width="1" class="bayswater"/>
<path d="M 5284.2808 4268.1394 5318.6698 4303.133 5423.4856 4329.6213 5409.7545 4391.5265 5397.8012 4426.6503 5357.1081 4461.8543 5295.0343 4476.7981 5253.2502 4451.9748 5241.1067 4416.9154 5263.1431 4336.5217 5235.277 4314.4344 5207.4456 4305.2733 5221.2701 4274.7681 5284.2808 4268.1394 Z" fill="none" stroke="#012394" opacity="0.6" stroke-width="1" class="bayswater"/>
<path d="M 5362.0598 4323.7901 5348.3014 4377.1526 5360.596 4381.5051 5357.9624 4435.3022 5355.2141 4447.3147 5348.9591 4448.2553 5334.3919 4460.7619 5281.1742 4494.1508 5276.8311 4517.0196 5275.9114 4519.7926 5269.372 4501.1085 5239.1923 4482.4868 5206.2685 4298.1206 5212.9348 4277.3288 5274.0821 4267.0124 5305.6193 4275.6995 5363.6616 4316.3989 5362.0598 4323.7901 Z" fill="none" stroke="#012394" opacity="0.6" stroke-width="1" class="bayswater"/>
<path d="M 5354.9759 4360.2825 5441.946 4301.869 5660.727 4311.3813 5664.8336 4441.5684 5345.7969 4393.55 5354.9759 4360.2825 Z" fill="none" stroke="#012394" opacity="0.6" stroke-width="1" class="bayswater"/>
<path d="M 5201.9198 4319.1376 5210.138 4271.1038 5256.4575 4261.75 5304.667 4266.2383 5337.2004 4300.3129 5363.8902 4315.2441 5425.5771 4331.6929 5403.7838 4411.166 5335.0759 4456.6044 5272.1295 4492.0969 5240.5836 4482.714 5201.9198 4319.1376 Z" fill="none" stroke="#012394" opacity="0.6" stroke-width="1" class="bayswater"/>
<path d="M 5394.535 4335.4731 5384.0113 4384.6725 5380.1832 4425.0831 5354.9723 4443.6215 5293.4329 4484.6522 5271.2183 4498.1022 5235.7146 4482.0341 5233.4865 4427.5549 5250.8459 4330.7831 5202.5519 4294.6677 5233.5031 4256.2705 5298.8586 4260.4833 5340.4295 4294.7641 5394.535 4335.4731 Z" fill="none" stroke="#012394" opacity="0.6" stroke-width="1" class="bayswater"/>
<path d="M 5276.5565 4500.8586 5235.7206 4484.3428 5242.8253 4365.1997 5258.5181 4340.2273 5203.7308 4302.5129 5208.2843 4271.1086 5293.5347 4262.5749 5302.8455 4278.2461 5304.7711 4305.0171 5334.4298 4304.0137 5360.4161 4315.9461 5426.282 4335.1535 5408.8198 4388.7589 5402.3926 4410.939 5283.9585 4495.2978 5276.5565 4500.8586 Z" fill="none" stroke="#012394" opacity="0.6" stroke-width="1" class="bayswater"/>
<path d="M 4850.2084 1828.3673 4880.7721 1853.1647 4883.0792 1851.3176 5222.4458 1878.5844 5471.2066 2221.9524 5426.067 2449.6725 5215.8333 2536.8696 5012.1259 2078.061 4850.2084 1828.3673 Z" fill="none" stroke="#012394" opacity="0.6" stroke-width="1" class="bayswater"/>
<path d="M 5391.9724 4330.6326 5382.956 4422.0742 5268.204 4497.6484 5290.8742 4481.1959 5278.8337 4485.6146 5238.526 4493.5706 5229.1516 4453.8848 5232.607 4356.916 5244.1414 4336.8025 5235.07 4323.8993 5234.7792 4301.2782 5227.29 4272.9059 5228.9019 4268.9777 5282.4332 4270.4525 5352.0663 4313.199 5391.9724 4330.6326 Z" fill="none" stroke="#012394" opacity="0.6" stroke-width="1" class="bayswater"/>
<path d="M 5357.6494 4350.0088 5353.4266 4435.2197 5353.7809 4423.5216 5349.067 4394.6773 5350.312 4378.6539 5351.2106 4368.2632 5354.1936 4357.4053 5354.4057 4350.2485 5357.6494 4350.0088 Z" fill="none" stroke="#012394" opacity="0.6" stroke-width="1" class="bayswater"/>
<path d="M 5272.8352 4496.02 5241.5155 4484.5586 5214.5574 4277.5555 5278.9482 4266.9994 5362.2852 4321.4811 5347.3763 4377.8477 5354.0162 4433.0044 5350.8125 4448.0194 5272.8352 4496.02 Z" fill="none" stroke="#012394" opacity="0.6" stroke-width="1" class="bayswater"/>
<path d="M 5362.2776 4318.7111 5349.0389 4392.6177 5255.0302 4423.8047 5215.0412 4285.4023 5287.0719 4272.056 5362.2776 4318.7111 Z" fill="none" stroke="#012394" opacity="0.6" stroke-width="1" class="bayswater"/>
<path d="M 4920.9068 4658.7468 4903.8363 4490.6921 5137.2643 4410.7173 5396.9307 4446.9688 5410.3224 4594.6978 4920.9068 4658.7468 Z" fill="none" stroke="#012394" opacity="0.6" stroke-width="1" class="bayswater"/>
<path d="M 5415.1148 4319.4879 5424.3918 4322.2319 5423.4882 4330.5446 5421.6603 4339.7833 5421.6836 4348.0936 5420.78 4356.4065 5418.939 4361.0286 5416.2125 4380.4275 5411.593 4385.9809 5407.9057 4393.3785 5404.2158 4399.8528 5404.2261 4403.5464 5403.3094 4407.2427 5399.6142 4411.8702 5394.0675 4417.4262 5389.4401 4420.2094 5382.9713 4427.6149 5377.4168 4430.4006 5368.1617 4435.9668 5365.3933 4440.5917 5358.9116 4443.3799 5355.2186 4448.9308 5345.9506 4449.8796 5341.3279 4454.5096 5336.7001 4457.2926 5330.2132 4458.2337 5333.0069 4462.8435 5327.4545 4466.5525 5322.8367 4473.0294 5315.4226 4473.9729 5309.8651 4475.8349 5301.5263 4477.7042 5295.9762 4482.3366 5289.5014 4487.8949 5286.7324 4492.5199 5281.1772 4495.3052 5274.6998 4499.94 5267.2708 4495.3421 5252.4203 4488.9166 5246.8432 4483.3902 5240.3439 4479.7133 5234.7742 4476.9573 5231.0491 4470.5026 5226.3849 4459.4329 5228.1957 4442.8057 5224.4443 4426.1933 5224.4155 4415.112 5224.3795 4401.2607 5226.1807 4380.9409 5227.0909 4374.4747 5226.1399 4365.2433 5226.1063 4352.316 5226.0678 4337.5422 5223.2726 4332.0093 5222.3265 4324.6249 5214.8872 4315.4108 5209.3089 4308.9619 5200.0089 4296.9826 5193.4827 4282.2263 5192.5345 4273.919 5192.5203 4268.3793 5197.138 4261.9044 5200.8312 4256.3551 5200.8193 4251.7388 5206.371 4248.0314 5215.661 4256.3169 5230.5077 4262.7413 5240.7032 4262.7147 5255.5404 4265.4456 5268.5068 4261.7182 5274.0705 4262.6268 5280.5586 4262.6095 5295.3934 4264.4166 5305.6113 4272.6988 5317.6806 4280.0528 5332.5559 4296.6322 5344.6157 4300.2927 5356.668 4301.1831 5363.1639 4303.9352 5374.2945 4306.6746 5386.3725 4316.7979 5391.9366 4317.7058 5397.5109 4322.3071 5401.2109 4319.5267 5405.843 4318.5905 5415.1148 4319.4879 Z" fill="none" stroke="#012394" opacity="0.6" stroke-width="1" class="bayswater"/>
<path d="M 5254.8395 4351.3175 5217.1494 4294.1683 5239.8186 4278.8747 5267.608 4272.3385 5288.0129 4277.3624 5304.2903 4298.5551 5327.037 4312.3437 5307.661 4345.6368 5293.7975 4360.9096 5265.5544 4372.0654 5249.8249 4383.1876 5251.6388 4367.9468 5254.8395 4351.3175 Z" fill="none" stroke="#012394" opacity="0.6" stroke-width="1" class="bayswater"/>
<path d="M 5359.3473 4433.2206 5356.5965 4444.3097 5341.8052 4459.5874 5291.8524 4500.3561 5274.701 4500.4017 5268.1954 4494.4161 5252.419 4488.4549 5239.4301 4484.7949 5240.793 4474.1711 5238.9002 4459.4003 5240.7193 4446.0051 5242.5432 4434.4571 5245.2662 4412.2873 5247.0633 4390.5821 5248.8627 4369.8008 5255.7895 4360.0871 5234.3561 4316.7452 5212.5508 4308.0301 5206.9678 4299.7346 5213.8563 4275.249 5256.4733 4267.7514 5285.6662 4266.2891 5297.2657 4271.3363 5308.9249 4298.5427 5331.6578 4307.2529 5337.6689 4302.1582 5347.4153 4307.21 5351.1419 4314.1248 5341.0551 4354.3185 5335.992 4367.2596 5342.9568 4371.8577 5346.2075 4374.1573 5348.5376 4378.7679 5356.4157 4378.2847 5359.6829 4386.5864 5362.0473 4403.6631 5360.2388 4420.2899 5359.3473 4433.2206 Z" fill="none" stroke="#012394" opacity="0.6" stroke-width="1" class="bayswater"/>
<path d="M 5417.4386 4338.0177 5415.2371 4357.2069 5399.5919 4397.8803 5371.8735 4431.2008 5331.1516 4456.2456 5296.9073 4477.5781 5268.2093 4493.354 5237.5235 4458.3419 5244.7876 4400.1455 5255.7633 4343.7895 5251.0898 4329.0281 5208.365 4295.8992 5227.7746 4274.6127 5265.7499 4264.3569 5296.3563 4271.6618 5346.5085 4308.459 5401.2272 4319.3882 5417.4386 4338.0177 Z" fill="none" stroke="#012394" opacity="0.6" stroke-width="1" class="bayswater"/></svg>