<?xml version="1.0"?><svg xmlns="http://www.w3.org/2000/svg" version="1.2" baseProfile="tiny" width="6000" height="5918" viewBox="0 0 6000 5918" stroke-linecap="round" stroke-linejoin="round"><path d="M 4036.2564 826.0415 4017.1348 874.167 4004.2244 866.3777 3955.0282 882.6144 3948.3139 867.9028 3993.9543 803.8199 4036.2564 826.0415 Z" fill="none" stroke="#E71E24" opacity="0.6" stroke-width="1" class="belmont"/>
<path d="M 3924.7554 666.6173 4034.6768 698.6693 4061.6381 832.0177 4000.0258 1032.6733 3772.7023 946.4528 3924.7554 666.6173 Z" fill="none" stroke="#E71E24" opacity="0.6" stroke-width="1" class="belmont"/>
<path d="M 3964.8874 912.4158 3959.2244 907.5928 3925.9607 895.674 3947.0483 772.3727 4046.8457 820.0785 4031.8471 912.0982 4027.7538 959.0269 3967.0824 913.5631 3964.8874 912.4158 Z" fill="none" stroke="#E71E24" opacity="0.6" stroke-width="1" class="belmont"/>
<path d="M 3628.605 932.7948 4137.5974 991.0769 4170.1202 1121.6945 3900.2082 984.9518 3878.9619 983.1369 4216.9119 912.7515 4178.0151 1458.5513 3389.6073 1259.6602 3628.605 932.7948 Z" fill="none" stroke="#E71E24" opacity="0.6" stroke-width="1" class="belmont"/>
<path d="M 3954.4776 883.4602 3953.5768 875.8595 3945.0167 862.0703 3940.611 846.8961 3976.5734 792.9803 3977.8861 793.8777 3983.8795 786.7405 4013.804 804.8311 4010.8146 813.8044 4014.2765 812.8799 4038.2607 820.2474 4035.5538 825.0038 4018.3714 873.8075 4002.7271 868.1414 3954.4776 883.4602 Z" fill="none" stroke="#E71E24" opacity="0.6" stroke-width="1" class="belmont"/>
<path d="M 3723.5372 736.7508 4032.0748 823.7782 3889.2285 1072.3794 3579.7024 988.9635 3723.5372 736.7508 Z" fill="none" stroke="#E71E24" opacity="0.6" stroke-width="1" class="belmont"/>
<path d="M 3903.8953 978.7366 3945.1003 876.0999 3992.8003 804.0514 4029.7416 805.6125 4037.6949 882.4196 3903.8953 978.7366 Z" fill="none" stroke="#E71E24" opacity="0.6" stroke-width="1" class="belmont"/>
<path d="M 3964.9884 810.2968 3966.4849 807.0751 3998.836 829.3421 3990.7731 843.0371 4006.0245 853.1369 3998.8831 865.3361 3998.31 868.4418 3953.4208 882.8745 3945.432 864.3695 3939.8694 847.2418 3964.9884 810.2968 Z" fill="none" stroke="#E71E24" opacity="0.6" stroke-width="1" class="belmont"/>
<path d="M 3942.431 772.3784 4045.936 830.1992 4025.7296 913.0265 3998.0256 915.8232 3986.0118 910.3186 3976.783 915.8508 3890.8266 863.5163 3942.431 772.3784 Z" fill="none" stroke="#E71E24" opacity="0.6" stroke-width="1" class="belmont"/>
<path d="M 4021.1631 951.675 3889.9141 872.7174 3944.2791 773.296 4045 821.0009 4021.1631 951.675 Z" fill="none" stroke="#E71E24" opacity="0.6" stroke-width="1" class="belmont"/>
<path d="M 3942.0579 769.4352 4049.2648 833.3226 4022.9213 954.1109 3949.8794 894.2182 3934.3654 784.1173 3942.0579 769.4352 Z" fill="none" stroke="#E71E24" opacity="0.6" stroke-width="1" class="belmont"/>
<path d="M 3944.294 785.2549 3959.9742 770.5166 4039.4528 816.4087 4032.0686 819.1785 4004.4738 902.9343 3906.5134 852.4576 3944.294 785.2549 Z" fill="none" stroke="#E71E24" opacity="0.6" stroke-width="1" class="belmont"/>
<path d="M 3972.8412 722.6665 4019.0148 725.3657 4051.3992 773.156 4049.62 822.8346 4037.1099 824.5233 4005.4079 903.9339 3997.341 914.9849 3987.965 912.3763 3978.5022 915.4937 3951.5836 901.5826 3949.4183 890.4771 3954.8753 878.6714 3950.0014 868.4017 3945.5602 861.5159 3944.4112 853.9162 3941.0068 844.7233 3938.4241 835.2949 3937.1408 824.4869 3936.3598 786.8495 3954.6029 762.0587 3963.6786 754.3069 3972.8412 722.6665 Z" fill="none" stroke="#E71E24" opacity="0.6" stroke-width="1" class="belmont"/>
<path d="M 3916.133 788.9693 3941.0404 768.0106 4016.794 791.3708 4035.5236 813.1942 4022.6454 851.1599 3996.6336 910.7648 3958.9923 906.6731 3949.2826 897.025 3951.5574 869.8818 3940.6687 840.226 3916.133 788.9693 Z" fill="none" stroke="#E71E24" opacity="0.6" stroke-width="1" class="belmont"/>
<path d="M 4045.9472 838.4789 4031.7338 913.7085 4008.1714 905.4595 3999.6401 914.4411 3985.5539 913.3093 3972.3942 914.4763 3962.6893 908.7385 3972.3642 891.0156 3956.8843 882.9852 3948.073 853.0964 3975.0351 813.2738 3985.4047 798.0815 4045.9472 838.4789 Z" fill="none" stroke="#E71E24" opacity="0.6" stroke-width="1" class="belmont"/>
<path d="M 3970.6544 817.8791 3994.6485 804.9689 4018.218 820.5769 4027.9658 858.7427 3961.5993 959.5732 3901.9817 923.7643 3970.6544 817.8791 Z" fill="none" stroke="#E71E24" opacity="0.6" stroke-width="1" class="belmont"/>
<path d="M 3936.8327 960.0644 3956.172 914.957 4011.2351 881.1513 3989.212 990.6675 3990.1751 1021.0306 3962.4351 998.0629 3907.8895 957.646 3923.563 934.6251 3948.453 896.8724 3961.3293 854.536 3955.7603 832.4637 3948.6548 811.8556 3999.4682 828.3496 4009.6924 878.0152 4029.3349 833.5234 4012.7105 832.6256 3936.8327 960.0644 Z" fill="none" stroke="#E71E24" opacity="0.6" stroke-width="1" class="belmont"/>
<path d="M 4084.0526 1010.936 4084.9788 1012.775 4077.1563 1033.4893 4089.6315 1037.1524 4075.3664 1074.8997 4054.1587 1102.9954 4040.3475 1136.6029 3977.4974 1112.2993 3983.9502 1101.7084 3971.4651 1090.6818 3868.8394 1015.3531 3901.0554 921.4653 3911.6694 915.4722 3937.9706 898.4192 3957.3795 909.4352 3995.7346 929.627 4084.0526 1010.936 Z" fill="none" stroke="#E71E24" opacity="0.6" stroke-width="1" class="belmont"/>
<path d="M 3940.5818 770.5409 4045.01 828.3606 4027.6248 948.9062 3881.6141 882.8473 3940.5818 770.5409 Z" fill="none" stroke="#E71E24" opacity="0.6" stroke-width="1" class="belmont"/>
<path d="M 3954.2749 827.7894 3965.8108 821.5651 4036.9582 849.7607 4003.7684 893.2749 3987.4034 915.147 3969.6452 931.5008 3941.4724 929.2362 3907.5033 907.1969 3890.8675 897.7866 3954.2749 827.7894 Z" fill="none" stroke="#E71E24" opacity="0.6" stroke-width="1" class="belmont"/>
<path d="M 4049.7666 930.475 4056.247 941.5069 4019.3991 1014.2447 4017.5493 1012.4069 4006.4505 1001.38 3979.1708 977.0325 3974.5366 964.6172 3966.6561 941.3953 3964.8024 936.3373 3961.659 915.6401 3957.9637 914.9547 4049.7666 930.475 Z" fill="none" stroke="#E71E24" opacity="0.6" stroke-width="1" class="belmont"/>
<path d="M 4028.3906 831.1429 3997.0984 913.0643 3970.3532 943.4607 3926.4384 908.5538 3951.3079 855.1623 3955.3854 793.0602 4028.3906 831.1429 Z" fill="none" stroke="#E71E24" opacity="0.6" stroke-width="1" class="belmont"/>
<path d="M 3723.0727 733.9917 4078.5634 717.4659 4132.9797 991.5437 3550.1697 1018.4326 3552.0102 1010.1499 3723.0727 733.9917 Z" fill="none" stroke="#E71E24" opacity="0.6" stroke-width="1" class="belmont"/>
<path d="M 3994.0578 706.0818 4046.7832 774.0822 4047.7742 823.757 4017.5004 975.6022 3870.5541 902.1807 3938.7338 769.6233 3994.0578 706.0818 Z" fill="none" stroke="#E71E24" opacity="0.6" stroke-width="1" class="belmont"/>
<path d="M 3967.5642 929.2033 4017.7172 965.0209 3979.0077 1029.71 3935.5441 989.7392 3913.5925 977.8047 3897.419 969.7734 3952.5336 911.7414 3935.4342 901.1824 3878.6916 949.7839 3894.4177 970.2371 3950.9194 913.3535 3967.5642 929.2033 Z" fill="none" stroke="#E71E24" opacity="0.6" stroke-width="1" class="belmont"/>
<path d="M 3967.1814 810.064 3966.2558 808.4553 3971.8029 813.2779 3982.4052 799.4652 4015.2136 818.2811 4035.0805 826.9941 3998.7222 918.8125 3928.7167 883.7104 3966.0232 807.0757 3967.1814 810.064 Z" fill="none" stroke="#E71E24" opacity="0.6" stroke-width="1" class="belmont"/>
<path d="M 4048.2679 847.2155 3970.9027 1012.0077 3904.3508 973.4455 3981.712 799.0062 4048.2679 847.2155 Z" fill="none" stroke="#E71E24" opacity="0.6" stroke-width="1" class="belmont"/>
<path d="M 3998.6819 711.5948 4052.7976 782.8131 4049.1745 834.7946 3999.3483 867.9805 3953.6516 882.7592 3936.5103 838.1612 3935.5234 787.1056 3946.5854 771.4533 3939.6532 766.4025 3998.6819 711.5948 Z" fill="none" stroke="#E71E24" opacity="0.6" stroke-width="1" class="belmont"/>
<path d="M 4017.1803 734.5668 4050.4833 778.6767 4034.9233 881.7333 3971.2486 921.3781 3866.8824 921.5059 3866.848 892.0648 3865.7923 778.9104 4009.6897 656.3912 4017.1803 734.5668 Z" fill="none" stroke="#E71E24" opacity="0.6" stroke-width="1" class="belmont"/>
<path d="M 4033.9218 823.7758 4021.9653 860.5906 3999.8571 903.8604 3970.3508 941.6206 3931.6273 996.8749 3882.6522 979.4521 3845.6924 967.5339 3839.206 949.1396 3825.3216 922.4736 3802.2095 902.2584 3830.7644 835.0668 3864.8646 775.2318 3880.5371 753.1359 3934.1086 763.1898 4033.9218 823.7758 Z" fill="none" stroke="#E71E24" opacity="0.6" stroke-width="1" class="belmont"/>
<path d="M 3925.3342 761.8208 4046.3949 828.1287 4028.5191 927.0535 3879.7409 860.7695 3925.3342 761.8208 Z" fill="none" stroke="#E71E24" opacity="0.6" stroke-width="1" class="belmont"/>
<path d="M 3875.9406 770.6193 4007.1476 829.3312 3962.9526 934.2695 3839.1117 866.3366 3875.9406 770.6193 Z" fill="none" stroke="#E71E24" opacity="0.6" stroke-width="1" class="belmont"/>
<path d="M 3942.4264 768.6988 4051.4808 832.9516 4027.6346 956.2668 3983.2624 926.883 3946.2839 899.3288 3909.3644 918.6951 3873.3292 905.8576 3942.4264 768.6988 Z" fill="none" stroke="#E71E24" opacity="0.6" stroke-width="1" class="belmont"/>
<path d="M 4000.0404 867.5196 3988.0702 895.1355 3954.3416 880.6884 3943.677 845.742 3976.6249 792.8032 4026.5298 820.7958 4000.0404 867.5196 Z" fill="none" stroke="#E71E24" opacity="0.6" stroke-width="1" class="belmont"/>
<path d="M 4049.4051 834.5643 3999.1033 1033.5946 3880.3349 972.5541 3939.7776 866.2166 3934.1377 786.6474 3946.5871 772.8332 3979.628 794.1792 4049.4051 834.5643 Z" fill="none" stroke="#E71E24" opacity="0.6" stroke-width="1" class="belmont"/>
<path d="M 3831.8357 965.7095 3937.8012 762.2653 4050.5661 839.3926 4032.2392 946.1398 3995.4193 1041.8809 3946.4014 993.1761 3831.8357 965.7095 Z" fill="none" stroke="#E71E24" opacity="0.6" stroke-width="1" class="belmont"/>
<path d="M 4036.7363 856.4309 4026.1185 858.5151 4027.7599 877.3729 4001.6563 867.2875 3954.1125 882.0687 3934.4552 856.5633 3976.1629 792.5738 4035.5404 825.6135 4036.7363 856.4309 Z" fill="none" stroke="#E71E24" opacity="0.6" stroke-width="1" class="belmont"/>
<path d="M 3912.1234 909.0313 3894.561 897.0922 3868.2252 885.1631 3914.7399 782.5316 3988.5127 702.4096 4016.8831 684.6657 4026.8327 702.1292 4016.2251 710.6518 4012.5486 723.5346 4047.7067 774.0809 4046.842 817.3186 4023.474 953.0521 3975.3977 915.8525 3968.0066 914.0219 3953.2153 903.0002 3949.0459 892.4252 3918.593 912.7036 3912.1234 909.0313 Z" fill="none" stroke="#E71E24" opacity="0.6" stroke-width="1" class="belmont"/>
<path d="M 4018.0584 700.5312 4018.1037 734.5656 4049.5561 775.9182 4046.8557 827.4381 4037.6915 879.8895 3999.8101 867.9799 3953.6492 880.9192 3936.0377 829.4222 3939.6309 748.4647 4018.0584 700.5312 Z" fill="none" stroke="#E71E24" opacity="0.6" stroke-width="1" class="belmont"/>
<path d="M 4033.9242 825.6157 4030.4006 952.5828 3877.0094 893.8929 3949.8175 771.4493 4033.9242 825.6157 Z" fill="none" stroke="#E71E24" opacity="0.6" stroke-width="1" class="belmont"/>
<path d="M 3945.2094 778.8143 3964.5481 736.475 4004.2319 718.9463 4039.3732 757.534 4055.166 826.5068 4035.8407 877.132 4005.355 870.7326 3959.1952 884.5923 3941.6006 846.8946 3945.2094 778.8143 Z" fill="none" stroke="#E71E24" opacity="0.6" stroke-width="1" class="belmont"/>
<path d="M 3941.4984 765.0204 4015.2798 694.096 4013.4732 724.4532 4053.2474 774.0733 4039.4789 835.7277 4030.345 911.1802 4020.2358 948.9161 4006.4263 982.9777 3904.7409 914.1005 3948.0906 867.1262 3932.3483 833.1066 3941.4984 765.0204 Z" fill="none" stroke="#E71E24" opacity="0.6" stroke-width="1" class="belmont"/>
<path d="M 4099.2714 669.1459 4090.9536 663.6388 4100.1753 655.3476 4084.4747 652.6104 4126.8523 586.3276 4158.2202 570.6466 4150.0758 682.8697 4152.0389 761.9745 4138.3414 867.7883 4144.9341 955.1824 4129.3669 1048.1378 4071.1599 1039.0185 4084.9846 1016.9156 4019.3306 962.7185 4047.7555 809.9578 4037.5313 761.2161 4019.9529 736.4029 4018.9892 706.0489 4065.1051 667.354 4085.4096 660.8872 4099.2714 669.1459 Z" fill="none" stroke="#E71E24" opacity="0.6" stroke-width="1" class="belmont"/>
<path d="M 4017.0605 644.4242 4370.7136 655.8454 4390.7444 1027.4799 3817.1037 1007.131 4017.0605 644.4242 Z" fill="none" stroke="#E71E24" opacity="0.6" stroke-width="1" class="belmont"/>
<path d="M 3944.9714 773.0652 4035.3095 825.6138 4005.8598 903.3925 3953.8827 882.989 3945.5474 864.3694 3936.5066 835.1713 3936.4472 787.3344 3944.9714 773.0652 Z" fill="none" stroke="#E71E24" opacity="0.6" stroke-width="1" class="belmont"/>
<path d="M 3942.4333 774.2182 4029.3215 836.6614 3989.8077 988.5201 3862.2869 940.8324 3942.4333 774.2182 Z" fill="none" stroke="#E71E24" opacity="0.6" stroke-width="1" class="belmont"/>
<path d="M 3960.6828 783.1644 4019.3696 818.5055 4018.9118 821.496 4010.1593 837.1469 3983.6538 872.3709 3969.3459 877.9093 3950.63 866.893 3939.264 824.5884 3960.6828 783.1644 Z" fill="none" stroke="#E71E24" opacity="0.6" stroke-width="1" class="belmont"/>
<path d="M 3959.1672 838.6077 3944.7803 856.883 3983.4803 798.3305 4033.5851 825.8114 4007.0699 902.6939 3956.6052 883.1718 3945.3184 858.6535 3959.1672 838.6077 Z" fill="none" stroke="#E71E24" opacity="0.6" stroke-width="1" class="belmont"/>
<path d="M 3960.2211 783.165 4046.6308 831.8082 4030.2328 913.5955 3939.8975 869.7814 3960.2211 783.165 Z" fill="none" stroke="#E71E24" opacity="0.6" stroke-width="1" class="belmont"/></svg>