<?xml version="1.0"?><svg xmlns="http://www.w3.org/2000/svg" version="1.2" baseProfile="tiny" width="6000" height="5918" viewBox="0 0 6000 5918" stroke-linecap="round" stroke-linejoin="round"><path d="M 3843.1443 4203.2502 3864.2576 4227.6917 3854.7647 4233.9346 3862.4227 4243.8508 3836.78 4312.2044 3748.6115 4205.1996 3726.8533 4226.6873 3707.8311 4204.5487 3782.1303 4132.4627 3843.1443 4203.2502 Z" fill="none" stroke="#012394" opacity="0.6" stroke-width="1" class="bergen_beach"/>
<path d="M 3668.3769 4025.1905 3656.6671 4010.539 3954.4261 4317.9722 3864.5972 4389.1805 3753.4185 4221.7085 3700.5601 4192.2189 3681.016 4108.2291 3664.293 4063.9357 3668.3769 4025.1905 Z" fill="none" stroke="#012394" opacity="0.6" stroke-width="1" class="bergen_beach"/>
<path d="M 3777.9758 4147.2378 3893.0255 4257.8948 3882.8453 4270.8328 3856.9119 4287.4825 3843.9449 4295.8072 3735.4814 4280.2284 3681.6192 4174.1084 3733.467 4123.2822 3777.9758 4147.2378 Z" fill="none" stroke="#012394" opacity="0.6" stroke-width="1" class="bergen_beach"/>
<path d="M 3859.6573 4257.0107 3826.3244 4287.5173 3759.5232 4225.7302 3718.7872 4270.0891 3714.1556 4272.8636 3662.1953 4214.7486 3645.3613 4052.2885 3776.1006 4126.9302 3860.5489 4226.5419 3859.6573 4257.0107 Z" fill="none" stroke="#012394" opacity="0.6" stroke-width="1" class="bergen_beach"/>
<path d="M 3648.1439 4055.0551 3770.5215 4109.3965 3757.5543 4115.8721 3863.3348 4231.155 3818.9052 4283.8324 3746.5485 4226.667 3654.7616 4194.4446 3648.1439 4055.0551 Z" fill="none" stroke="#012394" opacity="0.6" stroke-width="1" class="bergen_beach"/>
<path d="M 3753.8474 4115.876 3790.5325 4189.2295 3758.9487 4120.0248 3777.9585 4131.0825 3863.7955 4228.8463 3859.164 4231.1598 3862.8901 4247.3126 3831.9014 4301.3608 3719.1706 4190.689 3665.4163 4190.7417 3753.8474 4115.876 Z" fill="none" stroke="#012394" opacity="0.6" stroke-width="1" class="bergen_beach"/>
<path d="M 3755.2394 4117.7208 3821.107 4180.4254 3731.2939 4264.0751 3674.4546 4192.8103 3755.2394 4117.7208 Z" fill="none" stroke="#012394" opacity="0.6" stroke-width="1" class="bergen_beach"/>
<path d="M 3827.2565 4292.1328 3743.5191 4210.0518 3727.7806 4227.1479 3670.4792 4154.7322 3732.9776 4097.8965 3808.5699 4157.3595 3868.8969 4232.0717 3827.2565 4292.1328 Z" fill="none" stroke="#012394" opacity="0.6" stroke-width="1" class="bergen_beach"/>
<path d="M 3766.4479 4229.5526 3795.1296 4183.3603 3827.65 4270.287 3742.4292 4276.4763 3710.6092 4239.2507 3725.3806 4181.9953 3766.4479 4229.5526 Z" fill="none" stroke="#012394" opacity="0.6" stroke-width="1" class="bergen_beach"/>
<path d="M 3823.5458 4289.3671 3666.7739 4156.5821 3726.9526 4096.5179 3777.0283 4127.8524 3870.7689 4247.765 3823.5458 4289.3671 Z" fill="none" stroke="#012394" opacity="0.6" stroke-width="1" class="bergen_beach"/>
<path d="M 3848.498 4224.7093 3866.1282 4242.2308 3863.3884 4277.3187 3810.5611 4281.995 3652.066 4284.9268 3566.6771 4149.2867 3650.0007 4058.7458 3848.498 4224.7093 Z" fill="none" stroke="#012394" opacity="0.6" stroke-width="1" class="bergen_beach"/>
<path d="M 3725.8215 4190.6652 3722.3451 4189.7455 3728.4995 4182.2963 3745.402 4171.2006 3750.3087 4166.1922 3780.3334 4132.0945 3781.954 4130.9388 3862.437 4227.1881 3823.5072 4290.8618 3829.1811 4287.8547 3725.8215 4190.6652 Z" fill="none" stroke="#012394" opacity="0.6" stroke-width="1" class="bergen_beach"/>
<path d="M 3719.6614 4217.9237 3704.356 4205.0138 3720.5598 4189.7644 3773.3415 4146.7812 3779.3486 4131.081 3865.6492 4228.8441 3834.2333 4314.2847 3719.6614 4217.9237 Z" fill="none" stroke="#012394" opacity="0.6" stroke-width="1" class="bergen_beach"/>
<path d="M 3823.1537 4288.4862 3709.0464 4156.5104 3670.4114 4112.4419 3687.0767 4096.271 3701.4242 4079.6408 3774.9857 4125.6095 3807.7963 4158.3721 3865.3341 4225.7017 3863.9787 4255.7094 3823.1537 4288.4862 Z" fill="none" stroke="#012394" opacity="0.6" stroke-width="1" class="bergen_beach"/>
<path d="M 3728.8079 4098.3623 3778.4164 4126.0046 3806.7189 4159.6695 3853.0626 4164.2333 3874.3762 4162.3622 3868.8441 4186.8334 3871.6542 4212.2188 3861.9477 4233.9263 3867.5486 4268.0809 3846.7493 4316.5788 3830.988 4313.3651 3760.4534 4228.9606 3749.3309 4228.5106 3711.8051 4239.628 3695.6003 4254.878 3659.8725 4208.7498 3657.5141 4164.8995 3728.8079 4098.3623 Z" fill="none" stroke="#012394" opacity="0.6" stroke-width="1" class="bergen_beach"/>
<path d="M 3848.4246 4222.9995 3832.7331 4280.2603 3774.2733 4218.4653 3793.6604 4148.2807 3848.4246 4222.9995 Z" fill="none" stroke="#012394" opacity="0.6" stroke-width="1" class="bergen_beach"/>
<path d="M 3703.8509 4163.0083 3701.9709 4136.2381 3722.3182 4095.5995 3789.9726 4100.1443 3828.0268 4152.722 3876.2791 4204.3659 3873.5776 4271.767 3840.2541 4310.5846 3756.7572 4239.582 3725.2088 4204.5312 3703.8509 4163.0083 Z" fill="none" stroke="#012394" opacity="0.6" stroke-width="1" class="bergen_beach"/>
<path d="M 3859.6573 4257.0107 3824.4738 4290.2893 3691.5455 4136.71 3729.2722 4099.285 3778.4169 4126.4662 3861.9386 4226.0787 3859.6573 4257.0107 Z" fill="none" stroke="#012394" opacity="0.6" stroke-width="1" class="bergen_beach"/>
<path d="M 3662.0719 4084.5811 3673.1895 4081.8012 3707.4762 4080.8446 3870.7344 4218.2209 3834.6675 4288.4312 3830.0341 4289.3598 3819.8475 4297.681 3776.2091 4228.4823 3754.8909 4227.5816 3677.855 4115.0292 3662.0719 4084.5811 Z" fill="none" stroke="#012394" opacity="0.6" stroke-width="1" class="bergen_beach"/>
<path d="M 3751.1701 4214.6601 3812.2872 4166.5873 3870.757 4237.6091 3828.1813 4290.2852 3829.1062 4288.4375 3751.1701 4214.6601 Z" fill="none" stroke="#012394" opacity="0.6" stroke-width="1" class="bergen_beach"/>
<path d="M 3827.2565 4292.1328 3730.3204 4218.3745 3710.3651 4189.7746 3781.6729 4138.0022 3870.7711 4249.6116 3827.2565 4292.1328 Z" fill="none" stroke="#012394" opacity="0.6" stroke-width="1" class="bergen_beach"/>
<path d="M 3753.0267 4217.4279 3726.1206 4189.7588 3736.305 4179.5931 3754.8291 4168.4955 3770.5618 4147.2457 3789.0869 4137.9942 3803.0124 4160.1352 3817.8581 4175.813 3829.9271 4194.2637 3841.0728 4215.4854 3865.1906 4232.9993 3868.9227 4254.2301 3843.9238 4277.3411 3839.324 4307.8156 3812.42 4286.6095 3790.1456 4259.8584 3774.3663 4238.6401 3753.0267 4217.4279 Z" fill="none" stroke="#012394" opacity="0.6" stroke-width="1" class="bergen_beach"/>
<path d="M 3715.0862 4276.5559 3661.2684 4214.7495 3647.2164 4054.1329 3777.956 4128.7746 3861.4736 4224.6944 3857.8036 4257.0128 3821.6941 4291.2157 3762.3007 4222.9576 3715.0862 4276.5559 Z" fill="none" stroke="#012394" opacity="0.6" stroke-width="1" class="bergen_beach"/>
<path d="M 3723.9048 4226.4954 3798.9016 4156.2522 3858.2945 4225.4265 3860.1834 4255.892 3823.1451 4288.2494 3830.58 4305.7841 3821.3078 4303.0245 3809.2447 4291.0347 3723.9048 4226.4954 Z" fill="none" stroke="#012394" opacity="0.6" stroke-width="1" class="bergen_beach"/>
<path d="M 3825.9 4289.2236 3724.2745 4197.1464 3774.2589 4138.0101 3859.6178 4222.85 3878.1827 4246.8331 3825.9 4289.2236 Z" fill="none" stroke="#012394" opacity="0.6" stroke-width="1" class="bergen_beach"/>
<path d="M 3756.1651 4116.7967 3822.4975 4180.6547 3712.2683 4239.3967 3673.2958 4192.5806 3756.1651 4116.7967 Z" fill="none" stroke="#012394" opacity="0.6" stroke-width="1" class="bergen_beach"/>
<path d="M 3740.0525 4218.8262 3723.8064 4192.5308 3783.5244 4136.1539 3868.899 4233.9183 3827.7127 4285.6691 3740.0525 4218.8262 Z" fill="none" stroke="#012394" opacity="0.6" stroke-width="1" class="bergen_beach"/>
<path d="M 3742.8497 4234.9801 3657.5098 4160.2836 3647.2112 4048.5945 3771.464 4124.1657 3861.4768 4227.4641 3864.2809 4247.7726 3835.6184 4309.6665 3752.1066 4223.8915 3742.8497 4234.9801 Z" fill="none" stroke="#012394" opacity="0.6" stroke-width="1" class="bergen_beach"/>
<path d="M 3762.255 4179.5661 3862.8992 4255.1604 3833.2777 4288.8945 3815.6442 4268.6016 3782.7019 4233.0916 3709.3683 4119.614 3731.6376 4146.8247 3741.8533 4167.5858 3745.5652 4172.1979 3762.255 4179.5661 Z" fill="none" stroke="#012394" opacity="0.6" stroke-width="1" class="bergen_beach"/>
<path d="M 3490.7007 4172.4277 3487.9168 4167.8138 3715.7366 4001.4524 3862.3052 4142.5279 3783.6357 4239.5534 3591.8375 4307.1409 3490.7007 4172.4277 Z" fill="none" stroke="#012394" opacity="0.6" stroke-width="1" class="bergen_beach"/>
<path d="M 3825.3996 4289.365 3727.0878 4229.4568 3679.7486 4156.5696 3714.0019 4119.6094 3731.6305 4139.9009 3757.5552 4116.7953 3784.4432 4128.7676 3867.9625 4225.6101 3854.0685 4233.0122 3865.2024 4243.1552 3859.6584 4257.934 3825.3996 4289.365 Z" fill="none" stroke="#012394" opacity="0.6" stroke-width="1" class="bergen_beach"/>
<path d="M 3722.3723 4149.142 3752.2112 4113.6695 3867.3847 4164.5772 3868.9493 4214.046 3835.1789 4315.6366 3700.9393 4167.9671 3752.8383 4115.0991 3722.3723 4149.142 Z" fill="none" stroke="#012394" opacity="0.6" stroke-width="1" class="bergen_beach"/>
<path d="M 3803.9462 4166.5965 3861.4726 4223.7711 3859.6306 4233.929 3861.4886 4237.6199 3868.0002 4257.9243 3823.5572 4299.5235 3744.6862 4218.3598 3803.9462 4166.5965 Z" fill="none" stroke="#012394" opacity="0.6" stroke-width="1" class="bergen_beach"/>
<path d="M 3781.8986 4132.463 3863.33 4227.0003 3853.6062 4233.936 3862.8842 4242.2346 3859.1966 4259.3194 3821.2301 4290.7546 3730.748 4183.2916 3781.8986 4132.463 Z" fill="none" stroke="#012394" opacity="0.6" stroke-width="1" class="bergen_beach"/>
<path d="M 3660.3237 4195.8242 3672.1389 4194.1973 3746.2155 4129.0388 3756.1632 4114.9504 3766.5713 4098.3231 3882.0261 4165.8151 3893.4053 4187.7277 3884.6436 4223.9748 3891.1721 4258.1278 3831.2044 4299.7457 3748.843 4204.9686 3734.9245 4189.0574 3673.0657 4194.1964 3660.3237 4195.8242 Z" fill="none" stroke="#012394" opacity="0.6" stroke-width="1" class="bergen_beach"/>
<path d="M 3814.2769 4289.3774 3664.0314 4196.2823 3643.4823 4024.5982 3658.2997 4015.3539 3880.0222 4234.8285 3814.2769 4289.3774 Z" fill="none" stroke="#012394" opacity="0.6" stroke-width="1" class="bergen_beach"/>
<path d="M 3751.8544 4204.273 3805.7909 4158.5166 3864.7226 4229.076 3862.9006 4256.3145 3824.7055 4290.2891 3751.8544 4204.273 Z" fill="none" stroke="#012394" opacity="0.6" stroke-width="1" class="bergen_beach"/></svg>