<?xml version="1.0"?><svg xmlns="http://www.w3.org/2000/svg" version="1.2" baseProfile="tiny" width="6000" height="5918" viewBox="0 0 6000 5918" stroke-linecap="round" stroke-linejoin="round"><path d="M 3622.3664 4989.8553 3687.1075 5159.0832 3400.655 5333.6564 3348.723 5074.2739 3622.3664 4989.8553 Z" fill="none" stroke="#A9159C" opacity="0.6" stroke-width="1" class="breezy_point"/>
<path d="M 3418.1281 5105.3646 3615.639 5007.2584 3659.3713 5150.4496 3409.9028 5287.4352 3418.1281 5105.3646 Z" fill="none" stroke="#A9159C" opacity="0.6" stroke-width="1" class="breezy_point"/>
<path d="M 3617.5607 5081.1799 3616.6497 5099.6624 3629.2106 5140.312 3633.4044 5161.1014 3475.2914 5252.2666 3360.6044 5094.7755 3547.0089 5022.1017 3586.8835 5007.2837 3622.1284 5003.0945 3617.564 5084.8762 3617.5607 5081.1799 Z" fill="none" stroke="#A9159C" opacity="0.6" stroke-width="1" class="breezy_point"/>
<path d="M 3556.4186 5181.9626 3504.3784 5072.9583 3623.0698 5018.3398 3644.5249 5147.691 3556.4186 5181.9626 Z" fill="none" stroke="#A9159C" opacity="0.6" stroke-width="1" class="breezy_point"/>
<path d="M 3996.7784 4927.3782 3995.8953 4961.5653 3871.642 4994.9819 3916.083 4926.5558 3521.1914 5217.1106 3428.4563 5281.8768 3439.4657 5106.2738 3406.0837 5128.4756 3593.3629 4991.5702 3996.7784 4927.3782 Z" fill="none" stroke="#A9159C" opacity="0.6" stroke-width="1" class="breezy_point"/>
<path d="M 3472.831 5063.7418 3500.6362 5032.3031 3721.3451 4967.4262 3879.0279 4965.4059 3951.4838 5050.3264 3480.3862 5241.172 3472.831 5063.7418 Z" fill="none" stroke="#A9159C" opacity="0.6" stroke-width="1" class="breezy_point"/>
<path d="M 3408.0445 5283.7394 3408.8618 5121.0808 3719.4918 4969.276 3739.9638 5033.011 3732.6287 5117.109 3408.0445 5283.7394 Z" fill="none" stroke="#A9159C" opacity="0.6" stroke-width="1" class="breezy_point"/>
<path d="M 3487.2667 5138.5826 3483.0576 5093.3044 3496.9557 5071.116 3571.1182 5011.9173 3712.9961 4966.5106 3756.7384 5106.9189 3534.6415 5213.4029 3487.2667 5138.5826 Z" fill="none" stroke="#A9159C" opacity="0.6" stroke-width="1" class="breezy_point"/>
<path d="M 3557.2104 5019.3212 3763.9942 4949.8269 3864.321 5080.9256 3409.9002 5283.7381 3410.7752 5206.1018 3394.9487 5124.7866 3467.2747 5076.6828 3496.96 5076.6604 3557.2104 5019.3212 Z" fill="none" stroke="#A9159C" opacity="0.6" stroke-width="1" class="breezy_point"/>
<path d="M 3406.1919 5288.362 3402.3399 5079.501 3732.4644 4956.3273 3756.7461 5114.3117 3406.1919 5288.362 Z" fill="none" stroke="#A9159C" opacity="0.6" stroke-width="1" class="breezy_point"/>
<path d="M 3537.9085 5237.4299 3487.6861 5080.3638 3545.1598 5029.4954 3603.5778 5004.4971 3724.1315 4971.1192 3766.0231 5114.302 3537.9085 5237.4299 Z" fill="none" stroke="#A9159C" opacity="0.6" stroke-width="1" class="breezy_point"/>
<path d="M 3720.8794 4965.5787 3736.6531 4970.6445 3759.5234 5108.7642 3405.2621 5285.5898 3409.8361 5189.4671 3400.5199 5132.1759 3405.1491 5118.311 3432.0325 5089.6454 3463.5626 5074.8374 3498.8117 5072.0386 3517.3488 5051.6948 3556.2797 5015.6259 3599.869 5006.3484 3622.1297 5004.4805 3667.5739 4996.1223 3720.8794 4965.5787 Z" fill="none" stroke="#A9159C" opacity="0.6" stroke-width="1" class="breezy_point"/>
<path d="M 3856.7516 4952.4964 3952.218 4896.0221 3968.9175 4899.6966 4000.4667 4910.7429 4031.1114 4938.4202 4056.2152 4982.7364 4137.1029 5112.913 4173.4866 5249.6374 4139.2975 5346.7379 4036.3592 5393.0994 3821.1037 5424.7932 3603.0171 5419.4647 3375.653 5414.0921 3304.1405 5314.3057 3305.0637 5305.9865 3281.7923 5170.1379 3278.9619 5083.2722 3316.9465 4997.3155 3439.3513 4945.494 3505.2028 4940.8251 3654.5226 4926.8376 3744.4958 4930.4446 3796.4492 4941.4766 3837.2742 4953.4426 3856.7516 4952.4964 Z" fill="none" stroke="#A9159C" opacity="0.6" stroke-width="1" class="breezy_point"/>
<path d="M 3816.9124 4993.1962 3835.5685 5085.579 3404.3343 5285.5905 3404.2189 5114.6152 3453.3523 5066.5283 3692.5771 4953.5954 3764.9276 4955.3697 3816.9124 4993.1962 Z" fill="none" stroke="#A9159C" opacity="0.6" stroke-width="1" class="breezy_point"/>
<path d="M 3665.4095 5036.781 3665.7554 5034.7016 3665.7527 5031.814 3667.2557 5027.1924 3665.4095 5036.781 Z" fill="none" stroke="#A9159C" opacity="0.6" stroke-width="1" class="breezy_point"/>
<path d="M 3789.0339 4946.1044 3799.4659 5155.8518 3376.5292 5333.6723 3359.6695 5083.225 3789.0339 4946.1044 Z" fill="none" stroke="#A9159C" opacity="0.6" stroke-width="1" class="breezy_point"/>
<path d="M 3728.7693 4971.1145 3748.3929 5110.624 3395.9853 5288.3689 3403.2856 5106.2989 3728.7693 4971.1145 Z" fill="none" stroke="#A9159C" opacity="0.6" stroke-width="1" class="breezy_point"/>
<path d="M 3722.7373 4968.3487 3746.4514 5027.4602 3739.0884 5083.8349 3604.5827 5091.8184 3601.8164 5110.7648 3531.7968 5137.6235 3508.096 5081.7341 3555.3871 5057.6701 3561.8531 5024.8614 3586.8911 5016.0618 3603.1254 5017.4336 3616.1177 5023.8902 3621.6751 5014.645 3635.5896 5015.0943 3677.3109 4993.341 3722.7373 4968.3487 Z" fill="none" stroke="#A9159C" opacity="0.6" stroke-width="1" class="breezy_point"/>
<path d="M 3698.0641 4874.1333 3831.0216 5166.9067 3409.0031 5329.0292 3311.4214 5067.5449 3698.0641 4874.1333 Z" fill="none" stroke="#A9159C" opacity="0.6" stroke-width="1" class="breezy_point"/>
<path d="M 3744.5531 4985.8819 3736.2258 5006.2184 3765.9626 5057.009 3750.2359 5098.6088 3667.7069 5135.6555 3580.5406 5181.9421 3530.4679 5215.2547 3529.5379 5212.4829 3501.2142 5179.2345 3474.2799 5140.4407 3469.1437 5095.1631 3535.8968 5045.6736 3571.5808 5010.5309 3644.8472 4995.2197 3717.6357 4968.3539 3734.3318 4968.3369 3744.5531 4985.8819 Z" fill="none" stroke="#A9159C" opacity="0.6" stroke-width="1" class="breezy_point"/>
<path d="M 3502.0683 5084.511 3535.507 5136.6964 3559.1121 5074.7622 3560.4609 5023.9385 3706.5096 4972.9848 3728.3093 4974.8109 3739.949 5018.6887 3733.5195 5081.0684 3576.761 5102.0077 3553.5788 5114.0406 3537.8221 5131.6118 3531.2627 5050.7596 3534.956 5029.5037 3546.0897 5032.2667 3541.4736 5059.0677 3539.6455 5092.3358 3502.0683 5084.511 Z" fill="none" stroke="#A9159C" opacity="0.6" stroke-width="1" class="breezy_point"/>
<path d="M 3723.2011 4968.3482 3741.8762 5088.4525 3542.4892 5166.2633 3511.8012 5074.8006 3571.1214 5015.6134 3723.2011 4968.3482 Z" fill="none" stroke="#A9159C" opacity="0.6" stroke-width="1" class="breezy_point"/>
<path d="M 3497.8884 5077.5837 3559.7617 5019.781 3628.6252 5007.0156 3656.4466 5000.0598 3680.085 4984.3294 3721.8084 4966.9637 3748.2594 4981.9512 3744.4543 5114.5555 3557.3626 5201.3696 3497.8884 5077.5837 Z" fill="none" stroke="#A9159C" opacity="0.6" stroke-width="1" class="breezy_point"/>
<path d="M 3501.599 5077.5808 3725.0515 4963.7265 3743.722 5079.2098 3684.3629 5091.2823 3681.6263 5139.3386 3610.2094 5159.7362 3585.1266 5120.9446 3535.0559 5152.4071 3501.599 5077.5808 Z" fill="none" stroke="#A9159C" opacity="0.6" stroke-width="1" class="breezy_point"/>
<path d="M 3746.3882 4966.4766 3810.8928 5001.9809 3836.7393 5095.5116 3494.5432 5251.0967 3401.1007 5306.389 3371.3857 5271.286 3367.1358 5153.9149 3401.4104 5076.7294 3484.8789 5048.4858 3567.3929 4994.3645 3663.8421 4973.4883 3733.3986 4962.7941 3738.9691 4967.8702 3746.3882 4966.4766 Z" fill="none" stroke="#A9159C" opacity="0.6" stroke-width="1" class="breezy_point"/>
<path d="M 3410.8256 5280.0404 3400.5081 5114.6177 3578.5375 5010.063 3723.1974 4964.6524 3728.7918 4993.29 3406.0768 5118.3103 3731.5803 4998.8311 3772.4994 5097.6613 3410.8256 5280.0404 Z" fill="none" stroke="#A9159C" opacity="0.6" stroke-width="1" class="breezy_point"/>
<path d="M 3727.7976 4927.6899 3772.5456 5141.0946 3716.918 5177.194 3396.9347 5320.7185 3359.6898 5115.5683 3727.7976 4927.6899 Z" fill="none" stroke="#A9159C" opacity="0.6" stroke-width="1" class="breezy_point"/>
<path d="M 3509.9513 5081.7326 3555.8533 5060.4419 3562.3184 5026.709 3592.9185 5013.7465 3639.2996 5014.6289 3721.8102 4968.8116 3741.8109 5025.1549 3743.2749 5095.3817 3613.4148 5113.0648 3532.2652 5143.1679 3509.9513 5081.7326 Z" fill="none" stroke="#A9159C" opacity="0.6" stroke-width="1" class="breezy_point"/>
<path d="M 3979.5932 4907.0742 4035.8545 5016.9519 3416.3871 5271.7182 3412.5651 5109.989 3597.9976 4987.8701 3979.5932 4907.0742 Z" fill="none" stroke="#A9159C" opacity="0.6" stroke-width="1" class="breezy_point"/>
<path d="M 3750.6257 5027.4558 3749.234 5027.2263 3750.394 5027.6871 3752.4816 5028.1469 3792.4336 5087.4749 3556.6745 5210.6122 3509.0236 5081.7334 3560.6953 5026.9414 3717.6383 4970.8948 3750.6257 5027.4558 Z" fill="none" stroke="#A9159C" opacity="0.6" stroke-width="1" class="breezy_point"/>
<path d="M 4047.8573 4928.3351 4078.5745 5006.8302 3401.2908 5304.8666 3385.7748 5133.7733 3438.683 5059.662 3696.8424 4953.1015 4000.3179 4892.5893 4047.8573 4928.3351 Z" fill="none" stroke="#A9159C" opacity="0.6" stroke-width="1" class="breezy_point"/>
<path d="M 3546.1187 5067.3804 3566.488 5021.1614 3719.4918 4969.276 3767.858 5094.8939 3676.9966 5148.5845 3498.8876 5169.9947 3480.2962 5121.9537 3509.0429 5106.2217 3499.7473 5082.2027 3546.1187 5067.3804 Z" fill="none" stroke="#A9159C" opacity="0.6" stroke-width="1" class="breezy_point"/>
<path d="M 3788.1353 4972.9002 3803.0978 5083.767 3428.4615 5289.271 3413.4296 5017.5825 3788.1353 4972.9002 Z" fill="none" stroke="#A9159C" opacity="0.6" stroke-width="1" class="breezy_point"/>
<path d="M 3665.7864 5067.2742 3670.3947 5035.8522 3702.8671 5041.3648 3685.2636 5063.5592 3719.5952 5071.8418 3731.6661 5082.9185 3726.1272 5109.7227 3707.611 5147.6304 3614.8672 5180.9878 3599.0846 5168.9876 3540.704 5252.2154 3498.022 5250.4008 3471.1065 5239.3305 3469.2138 5189.4248 3494.2054 5113.6261 3560.0389 5073.8373 3665.7864 5067.2742 Z" fill="none" stroke="#A9159C" opacity="0.6" stroke-width="1" class="breezy_point"/>
<path d="M 3396.9144 5290.2168 3397.7879 5208.8832 3405.1803 5164.5177 3401.4358 5114.617 3462.6288 5066.5215 3500.6599 5062.7965 3536.818 5037.8185 3559.9932 5019.3188 3604.5045 5003.5723 3663.8592 4991.5059 3712.0713 4969.2834 3747.3244 4974.7913 3744.5713 5003.4378 3745.5333 5036.7014 3737.2691 5118.9525 3396.9144 5290.2168 Z" fill="none" stroke="#A9159C" opacity="0.6" stroke-width="1" class="breezy_point"/>
<path d="M 3985.641 4921.8491 4014.8741 4934.284 3973.1496 4945.4254 3969.453 4956.0556 3770.1836 5100.8981 3711.3048 5130.5302 3658.4466 5153.685 3566.1801 5205.5211 3556.8995 5202.2942 3542.9743 5192.1397 3529.5096 5177.3638 3511.4065 5162.5916 3495.168 5158.9077 3487.2748 5149.2102 3502.5314 5083.5866 3545.6251 5031.3431 3939.7239 4917.7495 3985.641 4921.8491 Z" fill="none" stroke="#A9159C" opacity="0.6" stroke-width="1" class="breezy_point"/>
<path d="M 3409.4313 5276.3443 3406.5457 5125.703 3449.1865 5078.5442 3504.8386 5068.3376 3563.2355 5014.234 3687.0357 4978.0858 3647.3232 5163.861 3409.4313 5276.3443 Z" fill="none" stroke="#A9159C" opacity="0.6" stroke-width="1" class="breezy_point"/>
<path d="M 3812.2744 4993.2014 3818.8744 5089.294 3803.1009 5086.5392 3404.3336 5284.6662 3409.8399 5195.0122 3405.1585 5132.1727 3412.5613 5104.4444 3465.4146 5070.2157 3496.0287 5072.0407 3559.0656 5019.3196 3649.023 4997.0638 3689.8162 4975.7732 3708.3537 4961.8954 3727.8286 4958.18 3751.0404 4980.3313 3757.5334 4980.3245 3771.4676 4999.7136 3802.9986 4993.2116 3812.2744 4993.2014 Z" fill="none" stroke="#A9159C" opacity="0.6" stroke-width="1" class="breezy_point"/>
<path d="M 3753.8704 5025.6044 3746.5481 5120.7911 3511.8915 5189.3921 3466.3477 5077.6076 3737.1173 4971.106 3753.8704 5025.6044 Z" fill="none" stroke="#A9159C" opacity="0.6" stroke-width="1" class="breezy_point"/>
<path d="M 4008.8398 4930.1371 4035.8483 5012.3346 3549.9196 5176.4257 3508.0855 5068.3379 3564.6312 5019.3177 3630.4797 5006.3237 3716.7054 4965.5857 3777.0312 4997.8625 3840.102 4993.173 3901.0302 4942.7436 4008.8398 4930.1371 Z" fill="none" stroke="#A9159C" opacity="0.6" stroke-width="1" class="breezy_point"/>
<path d="M 3410.7116 5112.7625 3451.5023 5073.9222 3498.8096 5069.2664 3561.843 5012.8492 3653.661 4997.0595 3723.1974 4964.6524 3753.825 4982.1764 3810.5213 5085.6069 3402.4804 5288.3645 3409.8499 5209.7993 3404.2476 5157.1251 3410.7116 5112.7625 Z" fill="none" stroke="#A9159C" opacity="0.6" stroke-width="1" class="breezy_point"/>
<path d="M 3719.957 4970.6614 3725.527 4975.2757 3741.8071 5021.4588 3742.3095 5058.8818 3754.4215 5109.2316 3728.4559 5118.9615 3680.7035 5144.4223 3649.6409 5162.0106 3555.0512 5211.0756 3483.1816 5256.8819 3410.3629 5281.8893 3404.2457 5154.3526 3436.2244 5114.131 3476.5475 5071.5935 3513.1759 5053.5462 3583.6428 5014.2166 3656.4459 4999.3668 3719.957 4970.6614 Z" fill="none" stroke="#A9159C" opacity="0.6" stroke-width="1" class="breezy_point"/>
<path d="M 4003.306 4954.164 4059.08 5042.7932 3421.027 5272.6393 3409.7895 5121.0802 3947.6302 4935.7563 3624.9175 5010.022 3428.3256 5095.1925 4003.306 4954.164 Z" fill="none" stroke="#A9159C" opacity="0.6" stroke-width="1" class="breezy_point"/>
<path d="M 3532.2292 5098.8104 3608.3753 5183.7661 3552.6998 5172.724 3508.1804 5189.395 3465.4371 5100.7104 3548.8634 5021.1761 3730.6357 4982.2003 3749.3274 5117.0918 3623.2079 5170.8144 3547.1165 5152.3972 3532.2292 5098.8104 Z" fill="none" stroke="#A9159C" opacity="0.6" stroke-width="1" class="breezy_point"/>
<path d="M 3986.5667 4920.462 3737.1795 5031.6279 3742.3562 5104.1615 3560.1436 5198.5947 3504.8498 5082.6607 3586.8915 5016.5238 3718.0981 4966.9674 3734.8576 5028.8582 3892.4505 4942.7531 3923.0281 4917.3081 3982.8567 4920.4668 3922.5683 4920.5424 3896.1601 4942.2867 3906.868 4976.4604 3999.5814 4943.0815 3986.5667 4920.462 Z" fill="none" stroke="#A9159C" opacity="0.6" stroke-width="1" class="breezy_point"/>
<path d="M 3409.8996 5282.8139 3404.2196 5115.5393 3995.8532 4929.2273 4029.3661 5020.6566 3409.8996 5282.8139 Z" fill="none" stroke="#A9159C" opacity="0.6" stroke-width="1" class="breezy_point"/>
<path d="M 3410.8256 5280.0404 3414.4401 5138.6353 3415.3507 5113.6835 3720.4175 4967.4271 3733.4562 5019.1574 3734.3886 5023.7765 3905.9382 4974.6135 3916.1043 4944.1106 3911.4991 4970.9109 4003.2819 4935.6851 3981.02 4934.7901 3917.0274 4940.4137 3968.0335 4933.8827 3937.4228 4932.0732 3915.2138 4974.6023 3906.8724 4980.1563 3744.6707 5099.5387 3410.8256 5280.0404 Z" fill="none" stroke="#A9159C" opacity="0.6" stroke-width="1" class="breezy_point"/>
<path d="M 3756.4705 4941.39 3788.2601 5176.0661 3480.1013 5305.0729 3433.4832 4988.1271 3756.4705 4941.39 Z" fill="none" stroke="#A9159C" opacity="0.6" stroke-width="1" class="breezy_point"/>
<path d="M 3725.996 4980.3571 3729.7091 4983.1252 3744.6812 5109.7037 3404.3324 5282.8176 3402.371 5125.7058 3433.8839 5084.0996 3581.3218 5011.9086 3712.9952 4965.5866 3731.5463 4965.5679 3730.6272 4973.8845 3725.996 4980.3571 Z" fill="none" stroke="#A9159C" opacity="0.6" stroke-width="1" class="breezy_point"/>
<path d="M 3436.6859 5110.8963 3685.7934 5131.4795 3679.2932 5125.0169 3659.6999 5007.2178 3545.1686 5040.1218 3603.732 5178.6873 3519.345 5228.6647 3407.8125 5283.7396 3436.6859 5110.8963 Z" fill="none" stroke="#A9159C" opacity="0.6" stroke-width="1" class="breezy_point"/>
<path d="M 3593.4049 5039.6188 3515.4928 5050.7722 3567.4109 5015.6165 3645.3178 5002.6112 3721.3525 4974.8179 3784.4529 4998.7757 3936.4907 4928.3787 3997.7119 4931.9967 3758.5172 5033.9158 3760.4618 5118.9284 3597.2664 5211.5016 3435.8897 5296.66 3419.1394 5226.4286 3463.5804 5098.8635 3593.4049 5039.6188 Z" fill="none" stroke="#A9159C" opacity="0.6" stroke-width="1" class="breezy_point"/>
<path d="M 3908.7242 4977.3821 3828.1315 5071.7262 3581.4676 5181.0171 3496.0623 5115.4729 3483.9734 5077.5944 3585.0315 5010.9814 3703.7233 4969.2917 3888.2892 4953.3835 3940.187 4917.287 4009.777 4937.5245 3908.7242 4977.3821 Z" fill="none" stroke="#A9159C" opacity="0.6" stroke-width="1" class="breezy_point"/>
<path d="M 3764.0712 5022.8216 3767.7856 5026.5138 3833.8654 5220.5063 3462.8112 5314.2021 3240.0738 5231.1564 3344.7685 4988.059 3690.5568 4784.5289 3764.0712 5022.8216 Z" fill="none" stroke="#A9159C" opacity="0.6" stroke-width="1" class="breezy_point"/>
<path d="M 3740.5025 5105.7806 3740.9761 5115.2522 3739.1312 5125.4194 3400.6305 5297.1464 3392.5859 5059.178 3740.3679 4975.0295 3740.5025 5105.7806 Z" fill="none" stroke="#A9159C" opacity="0.6" stroke-width="1" class="breezy_point"/>
<path d="M 3753.7797 4938.7503 3849.5587 5151.1751 3423.851 5330.8676 3351.3221 5086.0024 3753.7797 4938.7503 Z" fill="none" stroke="#A9159C" opacity="0.6" stroke-width="1" class="breezy_point"/>
<path d="M 3739.9133 4984.0388 3747.4451 5091.219 3617.6264 5154.1846 3604.5971 5107.99 3550.8152 5137.6079 3517.4479 5176.4493 3476.6027 5145.0596 3519.2166 5067.4022 3597.096 5017.4389 3606.3655 5010.0387 3712.0732 4971.1313 3739.9133 4984.0388 Z" fill="none" stroke="#A9159C" opacity="0.6" stroke-width="1" class="breezy_point"/>
<path d="M 3500.6656 5070.189 3530.3291 5043.368 3562.7752 5018.3925 3591.5247 5010.9757 3610.0726 5006.3393 3633.2625 5006.3184 3659.2265 4997.0542 3697.234 4972.994 3724.1287 4968.3473 3737.1202 4973.8779 3751.0635 5002.507 3755.7256 5025.6025 3747.3867 5034.8514 3747.4087 5056.1044 3751.1462 5081.9743 3754.883 5106.9208 3738.1968 5118.9515 3678.8494 5145.8103 3529.5439 5219.8765 3494.2566 5180.1641 3486.8099 5147.8243 3478.4394 5120.1069 3480.2752 5094.2306 3500.6656 5070.189 Z" fill="none" stroke="#A9159C" opacity="0.6" stroke-width="1" class="breezy_point"/></svg>