<?xml version="1.0"?><svg xmlns="http://www.w3.org/2000/svg" version="1.2" baseProfile="tiny" width="6000" height="5918" viewBox="0 0 6000 5918" stroke-linecap="round" stroke-linejoin="round"><path d="M 4701.8341 4541.9214 4634.1382 4534.6691 4622.9582 4506.985 4645.1574 4481.0829 4660.9381 4491.2099 4669.1872 4444.0956 4691.2164 4336.0121 4637.3241 4270.5641 4737.3228 4220.5043 4769.0989 4345.0839 4755.2976 4394.0528 4730.2706 4395.0285 4719.3697 4503.0967 4705.4992 4520.6723 4701.8341 4541.9214 Z" fill="none" stroke="#A9159C" opacity="0.6" stroke-width="1" class="broad_channel"/>
<path d="M 4551.4117 3931.9415 4691.2917 3917.8226 4765.7445 4512.2351 4639.6681 4518.0344 4551.4117 3931.9415 Z" fill="none" stroke="#A9159C" opacity="0.6" stroke-width="1" class="broad_channel"/>
<path d="M 4719.0341 4340.5718 4698.9735 4503.1386 4703.9978 4466.65 4705.9471 4287.0452 4707.5847 4407.5415 4708.0435 4405.232 4711.723 4391.3732 4720.9663 4378.4264 4718.1396 4356.271 4715.2921 4323.9592 4719.0341 4340.5718 Z" fill="none" stroke="#A9159C" opacity="0.6" stroke-width="1" class="broad_channel"/>
<path d="M 4544.5614 3929.3424 4598.317 3937.5465 4707.5587 3933.9993 4821.5539 4292.8912 4752.1447 4564.414 4650.2063 4589.5595 4429.7124 4618.9469 4403.3891 4375.5529 4415.537 4124.1209 4479.6386 4061.3408 4520.9227 3995.8838 4544.5614 3929.3424 Z" fill="none" stroke="#A9159C" opacity="0.6" stroke-width="1" class="broad_channel"/>
<path d="M 4721.8016 4334.1026 4764.4993 4361.7144 4712.8648 4495.722 4663.6953 4479.1989 4676.4879 4386.8279 4721.8016 4334.1026 Z" fill="none" stroke="#A9159C" opacity="0.6" stroke-width="1" class="broad_channel"/>
<path d="M 4729.5257 4482.7585 4763.0041 4531.6352 4698.2029 4579.7954 4596.2311 4589.2342 4536.7527 4515.462 4605.2767 4472.8498 4664.5427 4439.4876 4658.8807 4389.6336 4630.958 4332.4394 4592.3849 4278.0383 4531.6594 4270.3056 4517.7032 4241.7099 4534.7437 4184.899 4565.2242 4130.3737 4569.3408 4102.2099 4570.1865 4059.7452 4576.1506 4028.8108 4543.1526 3974.4145 4530.1563 3961.5168 4531.0363 3936.5946 4541.1538 3896.8888 4561.4809 3867.317 4592.103 3892.1771 4560.6263 3905.1584 4556.0881 3955.0071 4595.8572 3917.0892 4642.1855 3917.9213 4668.7244 3868.7223 4680.44 3935.1502 4697.0511 4015.8796 4708.5104 4068.4713 4725.6984 4089.8981 4730.6173 4115.7356 4733.434 4133.2697 4746.4451 4150.7827 4751.6276 4191.3926 4747.1578 4214.4827 4745.434 4221.1798 4751.262 4238.017 4754.2782 4239.8572 4759.6221 4246.7705 4772.1474 4252.7453 4778.6816 4274.4286 4761.6504 4274.5801 4759.3492 4282.2022 4757.8345 4278.166 4756.6898 4284.7469 4754.4831 4282.2125 4758.1003 4294.3233 4759.1426 4294.0903 4762.9853 4303.2 4764.8398 4303.5423 4764.8657 4315.7764 4767.185 4316.6949 4769.05 4322.0001 4769.5274 4328.578 4766.4012 4329.6234 4761.6553 4331.8264 4765.6038 4336.0885 4767.5755 4337.0077 4765.3848 4342.0909 4764.01 4349.4807 4767.0441 4359.6314 4765.4516 4373.7165 4764.0934 4388.9555 4761.7905 4395.8859 4748.828 4403.3005 4738.7099 4441.1828 4732.2667 4463.3595 4729.5257 4482.7585 Z" fill="none" stroke="#A9159C" opacity="0.6" stroke-width="1" class="broad_channel"/>
<path d="M 4715.6632 4504.0279 4684.2428 4553.9635 4660.8937 4469.0461 4675.5535 4383.1362 4694.926 4336.9279 4674.3414 4241.8684 4682.67 4235.3887 4709.5692 4245.4898 4741.2403 4321.1353 4750.5425 4336.8128 4762.6532 4365.4118 4748.8086 4394.0664 4731.1899 4391.3329 4715.6632 4504.0279 Z" fill="none" stroke="#A9159C" opacity="0.6" stroke-width="1" class="broad_channel"/>
<path d="M 4687.0086 4318.0153 4757.0097 4326.6423 4723.1087 4517.8654 4647.9689 4496.3151 4687.3895 4277.3884 4759.2365 4283.7029 4757.9298 4323.4087 4687.0086 4318.0153 Z" fill="none" stroke="#A9159C" opacity="0.6" stroke-width="1" class="broad_channel"/>
<path d="M 4544.2252 4545.0015 4539.8133 4170.1183 4791.8474 4146.5323 4834.3791 4525.017 4544.2252 4545.0015 Z" fill="none" stroke="#A9159C" opacity="0.6" stroke-width="1" class="broad_channel"/>
<path d="M 4678.2094 4321.2648 4751.3919 4299.8774 4769.0891 4340.4671 4752.4934 4382.9777 4727.4877 4394.1108 4716.5827 4500.3319 4659.0766 4487.5196 4671.8474 4384.0671 4695.9001 4360.0101 4678.2094 4321.2648 Z" fill="none" stroke="#A9159C" opacity="0.6" stroke-width="1" class="broad_channel"/>
<path d="M 4706.4995 4330.4407 4751.4869 4345.1211 4757.1458 4391.2786 4739.5753 4411.6307 4728.951 4429.1982 4728.0709 4451.8248 4728.5852 4476.296 4721.6732 4496.1656 4716.6379 4527.1142 4696.2619 4537.315 4662.8997 4544.7709 4643.4279 4543.8862 4622.0709 4527.3045 4632.2147 4499.5786 4649.7928 4481.0736 4657.1873 4469.977 4660.8382 4441.342 4666.3597 4421.015 4670.9502 4398.8435 4675.5348 4373.9023 4686.6342 4361.8757 4693.0872 4344.3185 4706.4995 4330.4407 Z" fill="none" stroke="#A9159C" opacity="0.6" stroke-width="1" class="broad_channel"/>
<path d="M 4687.3248 4245.5352 4742.0862 4282.3539 4761.6853 4346.023 4758.9686 4376.5003 4738.6406 4407.939 4716.6132 4515.1083 4686.0821 4546.5713 4628.5881 4541.1449 4634.9996 4501.4202 4661.8171 4467.1972 4688.5313 4383.1099 4691.2032 4329.5486 4652.1652 4276.0744 4687.3248 4245.5352 Z" fill="none" stroke="#A9159C" opacity="0.6" stroke-width="1" class="broad_channel"/>
<path d="M 4723.1297 4528.0243 4619.3076 4536.5453 4691.8556 4194.7475 4791.2824 4315.4894 4723.1297 4528.0243 Z" fill="none" stroke="#A9159C" opacity="0.6" stroke-width="1" class="broad_channel"/>
<path d="M 4439.3609 4649.7907 4448.6214 4653.5049 4430.94 4648.9835 4427.6366 4592.7078 4403.3969 4516.0939 4368.0279 4395.4584 4450.1104 4218.6433 4445.3464 4064.1189 4526.757 3907.4806 4659.144 3854.6184 4779.1492 4185.3935 4863.9412 4476.7913 4745.1086 4565.3819 4439.3609 4649.7907 Z" fill="none" stroke="#A9159C" opacity="0.6" stroke-width="1" class="broad_channel"/>
<path d="M 4567.1471 3923.605 4595.4395 3940.6256 4616.7981 3965.0431 4635.8011 3969.1592 4659.4123 3960.8052 4660.7106 3915.1155 4673.7109 3929.3952 4690.5699 4018.4312 4705.9597 4067.3227 4720.9554 4148.9894 4742.4426 4231.111 4756.4607 4286.017 4761.6911 4348.7931 4751.1281 4394.9849 4717.9858 4506.3319 4698.5939 4544.2369 4635.9906 4533.7419 4623.409 4500.5195 4641.4774 4495.4045 4665.0869 4479.6578 4670.5871 4448.7101 4684.8355 4389.1196 4693.1568 4378.4835 4701.4562 4357.2286 4717.637 4337.3429 4700.4679 4327.2213 4686.5498 4320.3246 4646.1258 4268.7 4564.5678 4272.5518 4527.9183 4252.3085 4547.6814 4165.0259 4585.6195 4134.0273 4576.2558 4083.7343 4578.3929 3990.0388 4567.1471 3923.605 Z" fill="none" stroke="#A9159C" opacity="0.6" stroke-width="1" class="broad_channel"/>
<path d="M 4595.4092 4643.7299 4588.9132 4640.9714 4407.1383 4086.3507 4687.4392 3845.8428 4886.1615 4463.9506 4595.4092 4643.7299 Z" fill="none" stroke="#A9159C" opacity="0.6" stroke-width="1" class="broad_channel"/>
<path d="M 4698.1237 4541.0054 4632.273 4529.1315 4621.0732 4491.2889 4645.1647 4484.7768 4657.2279 4490.2938 4680.1865 4382.2034 4706.0436 4334.135 4660.4683 4256.6687 4676.1839 4236.3251 4725.4711 4315.6281 4761.6989 4352.4865 4747.8816 4394.0683 4732.1227 4394.1012 4725.672 4412.5831 4727.5528 4425.5073 4715.667 4505.8749 4700.8957 4536.382 4698.1237 4541.0054 Z" fill="none" stroke="#A9159C" opacity="0.6" stroke-width="1" class="broad_channel"/>
<path d="M 4597.0858 4073.0784 4734.6058 4250.9776 4551.0933 4254.1116 4597.0858 4073.0784 Z" fill="none" stroke="#A9159C" opacity="0.6" stroke-width="1" class="broad_channel"/>
<path d="M 4659.4361 4204.0452 4662.222 4206.8093 4762.6025 4341.4042 4712.9427 4533.5866 4636.9159 4532.8165 4659.4361 4204.0452 Z" fill="none" stroke="#A9159C" opacity="0.6" stroke-width="1" class="broad_channel"/>
<path d="M 4688.3061 4272.3084 4625.8103 4542.9975 4685.4336 4227.0738 4764.8818 4542.7138 4691.6788 4563.1842 4646.2607 4569.7406 4624.9122 4557.7763 4688.3061 4272.3084 Z" fill="none" stroke="#A9159C" opacity="0.6" stroke-width="1" class="broad_channel"/>
<path d="M 4732.9268 4335.0029 4746.856 4346.9775 4768.2287 4371.8638 4745.1103 4398.6912 4733.0708 4404.2569 4724.7526 4416.2787 4723.0056 4467.9961 4707.3534 4520.6685 4701.8455 4547.4627 4639.6973 4532.811 4629.4552 4510.6663 4641.4545 4483.8607 4685.7166 4366.4945 4705.1262 4338.7537 4732.9268 4335.0029 Z" fill="none" stroke="#A9159C" opacity="0.6" stroke-width="1" class="broad_channel"/>
<path d="M 4593.4102 4568.9206 4774.2273 4141.0308 4828.8244 4528.7233 4593.4102 4568.9206 Z" fill="none" stroke="#A9159C" opacity="0.6" stroke-width="1" class="broad_channel"/></svg>