<?xml version="1.0"?><svg xmlns="http://www.w3.org/2000/svg" version="1.2" baseProfile="tiny" width="6000" height="5918" viewBox="0 0 6000 5918" stroke-linecap="round" stroke-linejoin="round"><path d="M 5203.83 3622.2631 5125.7585 3515.4377 5220.1932 3503.2039 5280.4208 3514.1163 5518.475 3526.3689 5544.2362 3468.1729 5591.533 3490.1734 5698.5482 3654.9969 5519.7882 3659.2255 5501.4256 3715.5655 5508.0946 3779.2188 5526.8085 3842.8412 5541.732 3876.9449 5538.1046 3903.7205 5490.658 3836.486 5203.83 3622.2631 Z" fill="none" stroke="#12852D" opacity="0.6" stroke-width="1" class="brookville"/>
<path d="M 5370.472 3592.2936 5375.0989 3590.7815 5382.2821 3592.607 5390.652 3604.8088 5381.5228 3611.0621 5389.6446 3617.2675 5418.6991 3614.9951 5426.6246 3633.6569 5414.1913 3659.0659 5411.4887 3686.2937 5373.4059 3648.5682 5370.472 3592.2936 Z" fill="none" stroke="#12852D" opacity="0.6" stroke-width="1" class="brookville"/>
<path d="M 5270.4973 3613.7848 5232.2714 3517.9334 5481.4715 3541.2373 5538.2651 3642.5629 5634.2887 3846.2128 5625.0576 3857.3155 5532.5184 3894.5075 5510.143 3846.5813 5282.7128 3679.2635 5270.4973 3613.7848 Z" fill="none" stroke="#12852D" opacity="0.6" stroke-width="1" class="brookville"/>
<path d="M 5247.9249 3483.2968 5290.7739 3489.4104 5287.3237 3497.9531 5318.3693 3505.4808 5315.6232 3517.4816 5277.9033 3525.1938 5239.9181 3520.2198 5227.8259 3500.1857 5222.0083 3488.8997 5249.1073 3492.7497 5247.9249 3483.2968 Z" fill="none" stroke="#12852D" opacity="0.6" stroke-width="1" class="brookville"/>
<path d="M 5336.8899 3504.7387 5344.4348 3554.5375 5169.2071 3483.9615 5167.2119 3427.6936 5117.9338 3348.4876 5177.9101 3265.3237 5312.9982 3230.8438 5378.7366 3231.5866 5457.6001 3289.4713 5654.8058 3284.2772 5791.3752 3427.7464 5887.7301 3441.2703 5498.6924 3411.1111 5392.9732 3356.987 5390.9726 3303.4941 5317.7993 3294.471 5310.5832 3365.5142 5234.7292 3395.2334 5195.0717 3458.0647 5336.8899 3504.7387 Z" fill="none" stroke="#12852D" opacity="0.6" stroke-width="1" class="brookville"/>
<path d="M 5337.3667 3339.6143 5343.5968 3247.3622 5493.3726 3172.2378 5428.0981 3334.751 5374.4256 3346.8919 5357.7682 3350.6273 5337.3667 3339.6143 Z" fill="none" stroke="#12852D" opacity="0.6" stroke-width="1" class="brookville"/>
<path d="M 5344.7693 3337.7493 5355.9087 3347.8652 5427.1618 3331.0641 5628.3512 3415.3396 5797.973 3463.7028 5918.5518 3519.5835 5916.5699 3758.5666 5609.3575 3873.9751 5189.9293 3619.5308 5144.8404 3369.6357 5344.7693 3337.7493 Z" fill="none" stroke="#12852D" opacity="0.6" stroke-width="1" class="brookville"/>
<path d="M 5198.4455 4049.5684 4720.4044 3658.4484 5714.418 3397.5481 5965.3878 3949.4424 5474.0625 4188.2149 5538.2723 3960.9442 5859.9583 3727.3787 5198.4455 4049.5684 Z" fill="none" stroke="#12852D" opacity="0.6" stroke-width="1" class="brookville"/>
<path d="M 5091.1123 3737.8876 5311.5937 3396.8743 5784.0846 3464.6697 5965.9988 3856.2229 5606.1949 4054.8931 5091.1123 3737.8876 Z" fill="none" stroke="#12852D" opacity="0.6" stroke-width="1" class="brookville"/>
<path d="M 2367.4784 4088.6148 3103.1503 3735.151 3408.2367 4201.1068 2367.4784 4088.6148 Z" fill="none" stroke="#12852D" opacity="0.6" stroke-width="1" class="brookville"/>
<path d="M 5412.4782 3378.1483 5778.1048 3622.4527 5607.2714 4104.738 4965.2719 3800.0171 5105.1003 3401.0979 5403.2337 3383.7088 5412.4782 3378.1483 Z" fill="none" stroke="#12852D" opacity="0.6" stroke-width="1" class="brookville"/></svg>