<?xml version="1.0"?><svg xmlns="http://www.w3.org/2000/svg" version="1.2" baseProfile="tiny" width="6000" height="5918" viewBox="0 0 6000 5918" stroke-linecap="round" stroke-linejoin="round"><path d="M 3790.047 3313.9648 4003.3777 3592.3045 3712.648 3693.213 3684.5823 3409.0816 3790.047 3313.9648 Z" fill="none" stroke="#865327" opacity="0.6" stroke-width="1" class="brownsville"/>
<path d="M 3526.3749 3588.1956 3814.8913 3504.5319 3847.4514 3631.8155 3678.9996 3762.0991 3513.9611 3581.3928 3526.3749 3588.1956 Z" fill="none" stroke="#865327" opacity="0.6" stroke-width="1" class="brownsville"/>
<path d="M 3682.8757 3558.9943 3777.3208 3535.3719 3735.7233 3612.9153 3682.8757 3558.9943 Z" fill="none" stroke="#865327" opacity="0.6" stroke-width="1" class="brownsville"/>
<path d="M 3592.1913 3651.804 3842.9937 3461.4958 4094.3189 3714.8994 3749.98 3961.7278 3592.1913 3651.804 Z" fill="none" stroke="#865327" opacity="0.6" stroke-width="1" class="brownsville"/>
<path d="M 3560.5413 3465.4656 3567.0263 3468.2277 3861.7476 3661.6795 3564.4547 3712.7275 3560.5413 3465.4656 Z" fill="none" stroke="#865327" opacity="0.6" stroke-width="1" class="brownsville"/>
<path d="M 3573.2022 3538.4468 3697.614 3388.0047 3793.9292 3397.1293 3847.0172 3657.0387 3834.5376 3678.4302 3703.0054 3680.4152 3573.2022 3538.4468 Z" fill="none" stroke="#865327" opacity="0.6" stroke-width="1" class="brownsville"/>
<path d="M 3730.3596 3691.0147 3626.8192 3699.782 3632.7818 3623.9498 3678.0599 3512.2713 3878.7643 3564.9552 3794.606 3679.4609 3794.2658 3682.6428 3730.3596 3691.0147 Z" fill="none" stroke="#865327" opacity="0.6" stroke-width="1" class="brownsville"/>
<path d="M 3764.5015 3674.3361 3730.2113 3475.8243 4113.8891 3407.4596 4126.6053 3492.3112 3764.5015 3674.3361 Z" fill="none" stroke="#865327" opacity="0.6" stroke-width="1" class="brownsville"/>
<path d="M 3630.0198 3489.3902 3648.5511 3499.0597 3664.3158 3520.7249 3677.3098 3549.7737 3684.2977 3592.6685 3686.1843 3627.7274 3675.0845 3643.4237 3654.2629 3663.9734 3617.9211 3680.385 3590.3854 3705.3232 3545.9311 3716.4339 3510.7043 3683.2438 3531.0126 3596.4956 3585.6065 3535.5576 3618.9398 3526.3024 3615.2095 3497.7065 3630.0198 3489.3902 Z" fill="none" stroke="#865327" opacity="0.6" stroke-width="1" class="brownsville"/>
<path d="M 3590.1769 3466.3627 3893.6651 3240.9827 4260.542 3388.0521 3946.0805 3694.7958 3579.299 3739.4749 3590.1769 3466.3627 Z" fill="none" stroke="#865327" opacity="0.6" stroke-width="1" class="brownsville"/>
<path d="M 3506.8493 3492.2624 3506.761 3379.7196 3756.8051 3401.629 3873.4345 3359.0677 3908.9119 3598.882 3777.4759 3680.2277 3653.423 3756.0184 3495.8043 3580.8387 3506.8493 3492.2624 Z" fill="none" stroke="#865327" opacity="0.6" stroke-width="1" class="brownsville"/>
<path d="M 3580.0472 3532.7947 3804.9594 3402.4997 3851.5309 3637.7013 3854.349 3671.8378 3845.1072 3690.3028 3770.1469 3756.8243 3580.0472 3532.7947 Z" fill="none" stroke="#865327" opacity="0.6" stroke-width="1" class="brownsville"/>
<path d="M 3834.635 3440.2878 3835.5725 3450.4342 3972.6772 3486.2471 3951.6256 3684.6388 3834.0384 3731.8392 3736.6989 3660.8935 3701.3806 3540.063 3834.635 3440.2878 Z" fill="none" stroke="#865327" opacity="0.6" stroke-width="1" class="brownsville"/>
<path d="M 3634.5528 3383.3005 3803.1023 3397.8895 3847.8449 3654.3139 3849.7017 3658.0026 3729.3319 3703.3463 3634.5528 3383.3005 Z" fill="none" stroke="#865327" opacity="0.6" stroke-width="1" class="brownsville"/>
<path d="M 3506.9158 3577.1396 3801.2563 3403.4262 3846.9229 3658.0058 3801.5778 3696.8107 3742.3014 3704.2557 3608.9078 3700.6932 3506.9158 3577.1396 Z" fill="none" stroke="#865327" opacity="0.6" stroke-width="1" class="brownsville"/>
<path d="M 3636.2405 3501.7101 3640.0483 3501.9686 3767.1724 3478.3447 3802.5544 3663.9229 3707.3028 3688.1719 3642.6318 3605.0924 3636.2405 3501.7101 Z" fill="none" stroke="#865327" opacity="0.6" stroke-width="1" class="brownsville"/>
<path d="M 3873.4582 3379.3609 3957.1172 3632.0381 3607.0584 3704.3858 3510.6061 3558.6845 3873.4582 3379.3609 Z" fill="none" stroke="#865327" opacity="0.6" stroke-width="1" class="brownsville"/>
<path d="M 3807.7314 3396.9619 3824.8689 3402.4776 3828.123 3414.0046 3833.7053 3437.0602 3843.0085 3474.4109 3849.9912 3506.6917 3856.5098 3537.5902 3863.4935 3569.873 3864.4433 3590.1696 3870.0194 3606.3094 3873.279 3621.5294 3862.1786 3633.9983 3851.5389 3644.6215 3844.6077 3658.4698 3839.059 3666.3191 3833.0402 3668.1713 3779.3384 3689.4529 3738.5923 3700.5686 3692.2818 3706.1515 3702.4618 3696.4527 3695.5035 3685.3869 3675.1009 3660.4935 3663.5075 3644.8188 3653.3065 3631.9109 3638.0046 3611.6266 3633.809 3581.6447 3639.7995 3549.3479 3636.5302 3519.3671 3630.0287 3499.0769 3633.7196 3484.3129 3653.6205 3473.2241 3681.3913 3460.7437 3709.6207 3444.5722 3731.8298 3428.4062 3745.2451 3416.4003 3754.4963 3407.6273 3757.7253 3396.0933 3775.3182 3394.691 3807.7314 3396.9619 Z" fill="none" stroke="#865327" opacity="0.6" stroke-width="1" class="brownsville"/>
<path d="M 3581.6676 3532.332 3807.9761 3408.9535 3819.3822 3464.7512 3829.8656 3522.3981 3840.1043 3567.3627 3854.3126 3640.2355 3861.5374 3680.134 3729.5661 3705.8836 3581.6676 3532.332 Z" fill="none" stroke="#865327" opacity="0.6" stroke-width="1" class="brownsville"/>
<path d="M 3717.6918 3642.6897 3720.2406 3644.3018 3715.1634 3661.3768 3712.6131 3658.3806 3709.1237 3642.4676 3717.6918 3642.6897 Z" fill="none" stroke="#865327" opacity="0.6" stroke-width="1" class="brownsville"/>
<path d="M 3637.9367 3538.0479 3798.7168 3409.8862 3856.8782 3656.1489 3730.2549 3700.1157 3712.1737 3682.1408 3635.206 3589.947 3637.9367 3538.0479 Z" fill="none" stroke="#865327" opacity="0.6" stroke-width="1" class="brownsville"/>
<path d="M 3724.441 3447.786 3745.7339 3441.3067 3771.6539 3432.0546 3793.8752 3428.3408 3813.3192 3425.552 3826.2745 3417.2353 3799.2166 3443.5559 3800.6146 3451.6262 3805.2558 3461.538 3812.09 3465.4512 3814.0625 3469.485 3814.7645 3476.1725 3814.7692 3480.4391 3815.8195 3488.0488 3817.7926 3492.6593 3817.5661 3497.157 3819.0781 3503.4978 3820.5887 3508.5701 3820.8258 3513.5286 3823.0327 3520.0994 3824.1965 3525.5182 3824.5501 3531.1685 3826.5248 3537.0477 3827.6881 3542.0053 3828.8529 3548.3468 3828.6272 3553.5367 3831.417 3563.5668 3832.6963 3568.6397 3832.5882 3575.4441 3833.5213 3581.5554 3834.9162 3586.513 3836.5446 3593.2002 3837.8254 3599.5419 3838.991 3606.4604 3842.9374 3615.2211 3845.7192 3617.8706 3846.4212 3624.3285 3846.8933 3632.1706 3846.9018 3639.552 3846.9123 3648.7788 3843.6846 3661.2389 3839.0663 3672.778 3832.1353 3687.088 3821.0294 3695.8664 3793.254 3708.8154 3771.9535 3713.4521 3737.6916 3725.4838 3672.845 3722.78 3638.5632 3714.9688 3627.4371 3703.906 3619.0923 3695.1476 3614.916 3686.3854 3614.44 3672.0837 3615.8195 3661.01 3616.7254 3638.4033 3615.3265 3627.7938 3618.0711 3589.9626 3614.3431 3564.1327 3613.3995 3544.759 3627.2743 3525.3722 3643.0102 3516.1321 3653.1917 3509.6647 3674.4652 3481.0457 3689.2729 3470.8836 3707.7874 3463.4852 3724.441 3447.786 Z" fill="none" stroke="#865327" opacity="0.6" stroke-width="1" class="brownsville"/>
<path d="M 3735.6154 3507.7386 3895.8103 3486.3421 3932.0571 3590.5499 3762.66 3684.857 3735.6154 3507.7386 Z" fill="none" stroke="#865327" opacity="0.6" stroke-width="1" class="brownsville"/>
<path d="M 3464.6033 3098.8345 3833.3641 3382.5562 3502.6239 3578.3276 3464.6033 3098.8345 Z" fill="none" stroke="#865327" opacity="0.6" stroke-width="1" class="brownsville"/>
<path d="M 3518.1374 3711.8427 3536.8522 3942.5431 3504.1358 3575.2965 3607.9815 3700.694 3535.0321 3983.1562 3503.1981 3560.5355 3518.1374 3711.8427 Z" fill="none" stroke="#865327" opacity="0.6" stroke-width="1" class="brownsville"/>
<path d="M 3802.3431 3408.1636 3845.224 3656.2887 3710.9539 3696.1093 3580.3294 3534.6544 3802.3431 3408.1636 Z" fill="none" stroke="#865327" opacity="0.6" stroke-width="1" class="brownsville"/>
<path d="M 3273.3957 3356.8134 3789.208 3394.2148 3874.407 3398.7309 4103.0417 3332.9435 4147.7736 3528.4447 3918.2439 3656.0761 3845.9913 3653.3934 3808.9771 3686.6525 3607.9798 3698.8485 3598.7419 3727.462 3279.1677 3754.4502 3205.9852 3756.3327 3147.4485 3322.7443 3156.7088 3324.5853 3273.3957 3356.8134 Z" fill="none" stroke="#865327" opacity="0.6" stroke-width="1" class="brownsville"/>
<path d="M 3545.6036 3319.7324 4082.7259 3372.6354 4062.0808 3848.7529 3470.0997 3888.1413 3331.7253 3344.7891 3545.6036 3319.7324 Z" fill="none" stroke="#865327" opacity="0.6" stroke-width="1" class="brownsville"/>
<path d="M 3787.3021 3344.4063 3800.2949 3371.142 3812.4166 3446.7701 3829.1866 3536.2375 3844.0683 3591.5771 3846.9113 3647.8562 3826.5645 3675.5603 3797.8655 3690.3556 3771.0114 3698.6892 3728.4047 3702.4245 3672.8202 3696.943 3649.6597 3694.1968 3619.0898 3692.3794 3615.3812 3688.6918 3639.3193 3530.8966 3636.5179 3505.99 3681.8606 3467.2008 3729.0544 3431.1765 3762.3525 3393.3211 3766.9464 3359.1865 3787.3021 3344.4063 Z" fill="none" stroke="#865327" opacity="0.6" stroke-width="1" class="brownsville"/>
<path d="M 3494.8746 3576.2264 3808.6676 3406.1854 3855.2817 3677.373 3707.2142 3817.7955 3655.2871 3768.013 3576.474 3685.9578 3494.8746 3576.2264 Z" fill="none" stroke="#865327" opacity="0.6" stroke-width="1" class="brownsville"/>
<path d="M 3611.434 3418.3745 4064.2072 3373.5834 3916.6497 3868.3219 3456.9903 3698.971 3611.434 3418.3745 Z" fill="none" stroke="#865327" opacity="0.6" stroke-width="1" class="brownsville"/>
<path d="M 3816.0645 3396.0303 3726.552 3702.4264 3608.9102 3703.4614 3609.8308 3697.0014 3630.9595 3504.15 3816.0645 3396.0303 Z" fill="none" stroke="#865327" opacity="0.6" stroke-width="1" class="brownsville"/>
<path d="M 3630.0333 3504.1509 3871.6829 3444.8576 3635.5909 3505.0683 3630.0333 3504.1509 Z" fill="none" stroke="#865327" opacity="0.6" stroke-width="1" class="brownsville"/>
<path d="M 3675.2332 3316.8494 4111.9306 3072.854 4378.6148 3120.3884 4323.7176 3513.4099 3896.0486 3685.6297 3675.2332 3316.8494 Z" fill="none" stroke="#865327" opacity="0.6" stroke-width="1" class="brownsville"/>
<path d="M 3626.3288 3504.1542 3623.5345 3486.6285 3799.3972 3396.9711 3942.3098 3642.2061 3618.1735 3703.4531 3626.3288 3504.1542 Z" fill="none" stroke="#865327" opacity="0.6" stroke-width="1" class="brownsville"/>
<path d="M 3727.018 3705.1941 3633.3567 3593.4086 3580.7404 3531.1796 3570.2949 3500.2828 3599.7021 3503.4862 3723.0412 3437.1788 3743.1839 3438.0806 3813.7518 3398.1083 3878.1103 3398.0348 3938.9861 3389.8897 3972.3161 3566.0499 3997.6145 3611.9182 3917.0877 3657.4616 3887.2099 3652.884 3845.9998 3660.7749 3810.6005 3688.7268 3727.018 3705.1941 Z" fill="none" stroke="#865327" opacity="0.6" stroke-width="1" class="brownsville"/>
<path d="M 3723.5187 3451.4769 3947.5719 3406.0219 3995.9981 3615.3803 3845.0777 3664.4668 3709.8829 3707.0569 3579.1219 3533.7181 3723.5187 3451.4769 Z" fill="none" stroke="#865327" opacity="0.6" stroke-width="1" class="brownsville"/>
<path d="M 3821.6433 3416.318 3857.0757 3626.6229 3745.9894 3687.6427 3632.9633 3669.2988 3642.0772 3508.7525 3653.1613 3477.3759 3745.7368 3444.0741 3821.6433 3416.318 Z" fill="none" stroke="#865327" opacity="0.6" stroke-width="1" class="brownsville"/>
<path d="M 3871.5954 3370.1388 3916.3194 3597.0277 3848.7786 3660.7718 3739.5157 3697.7994 3726.5173 3668.2856 3687.4927 3544.6896 3568.0198 3547.5663 3570.7778 3523.5769 3674.4616 3477.3556 3785.4531 3347.1755 3871.5954 3370.1388 Z" fill="none" stroke="#865327" opacity="0.6" stroke-width="1" class="brownsville"/>
<path d="M 3806.1184 3403.8821 3858.9637 3657.2999 3815.002 3690.1061 3722.853 3708.6586 3682.2869 3668.0988 3648.2108 3630.5317 3637.7735 3612.0881 3586.761 3531.8663 3598.789 3518.2479 3610.9139 3354.4963 3704.2133 3361.5569 3770.4264 3366.3315 3808.8545 3365.8287 3806.1184 3403.8821 Z" fill="none" stroke="#865327" opacity="0.6" stroke-width="1" class="brownsville"/>
<path d="M 3601.323 3503.7154 3722.1142 3436.2572 3756.3426 3402.0907 3757.6924 3364.7307 3808.1638 3369.2885 3807.2745 3402.4971 3857.5761 3658.9162 3839.9795 3661.2431 3814.9991 3687.5686 3771.01 3697.3051 3712.6618 3707.0541 3568.0111 3537.4179 3567.0549 3501.9 3601.323 3503.7154 Z" fill="none" stroke="#865327" opacity="0.6" stroke-width="1" class="brownsville"/>
<path d="M 3083.5988 3443.6064 3166.4888 3460.1799 3186.9128 3572.7233 3167.0022 3578.729 3177.2402 3693.1365 3063.7834 3744.8534 3043.3753 3648.8952 2982.233 3611.0817 3083.5988 3443.6064 Z" fill="none" stroke="#865327" opacity="0.6" stroke-width="1" class="brownsville"/>
<path d="M 3807.2785 3406.1869 3857.4575 3656.4943 3715.187 3684.9059 3708.4925 3706.1355 3570.7904 3538.3381 3610.3629 3515.0087 3628.6433 3503.2296 3628.8643 3491.6976 3664.2774 3480.3636 3739.4804 3438.7763 3781.5896 3414.0558 3802.4118 3401.58 3807.2785 3406.1869 Z" fill="none" stroke="#865327" opacity="0.6" stroke-width="1" class="brownsville"/>
<path d="M 3842.8728 3660.0865 3710.788 3685.8331 3581.6662 3530.7175 3628.8753 3503.6906 3639.4148 3383.7572 3627.0561 3285.9957 3656.1014 3280.5501 3650.8537 3238.3592 3803.2852 3353.6129 3807.4688 3368.828 3804.027 3396.7354 3797.3241 3406.5438 3842.8728 3660.0865 Z" fill="none" stroke="#865327" opacity="0.6" stroke-width="1" class="brownsville"/>
<path d="M 3857.0687 3631.012 3711.9044 3697.6171 3574.9864 3534.5598 3813.4955 3404.1211 3814.6615 3410.9165 3857.0687 3631.012 Z" fill="none" stroke="#865327" opacity="0.6" stroke-width="1" class="brownsville"/>
<path d="M 3853.2805 3813.9344 3536.5888 3619.5573 3549.3555 3536.3025 3542.0785 3461.5972 3536.4776 3407.1754 3549.3529 3361.1446 3616.9531 3364.7757 3700.8734 3363.5554 3786.176 3372.6332 3861.2074 3394.6876 3903.9232 3550.35 3909.6423 3636.8005 3880.6963 3723.5284 3853.2805 3813.9344 Z" fill="none" stroke="#865327" opacity="0.6" stroke-width="1" class="brownsville"/>
<path d="M 3741.8972 3313.0934 3750.4636 3314.4681 3754.8673 3319.7671 3761.3531 3323.6803 3769.2298 3329.4369 3777.5693 3334.9623 3782.4358 3339.7996 3787.3018 3344.1757 3793.0934 3348.0896 3796.8018 3352.2364 3798.8923 3358.6909 3802.1386 3363.53 3804.4591 3368.6008 3806.32 3376.6699 3804.7081 3384.5123 3802.1707 3392.817 3801.9485 3401.3499 3803.3449 3408.0362 3804.0483 3416.1069 3806.6038 3424.1757 3809.1629 3435.4732 3811.719 3444.0034 3813.5837 3455.3019 3815.2138 3463.8333 3817.7708 3473.0556 3820.332 3485.9681 3823.354 3496.8045 3825.4442 3502.5681 3826.3874 3517.7892 3828.7168 3530.2413 3835.2233 3550.9921 3839.8725 3567.1324 3842.2263 3600.8056 3842.7236 3630.7914 3850.6163 3647.8519 3828.4088 3668.1765 3803.4223 3689.4268 3767.314 3706.075 3737.6811 3715.3334 3700.6351 3722.7529 3663.5833 3724.6343 3634.4002 3720.9705 3623.7351 3707.6004 3617.9408 3702.2998 3612.8384 3693.7691 3608.6663 3689.6206 3603.3352 3684.0889 3591.7471 3673.4879 3579.2315 3661.0422 3572.7345 3645.8233 3564.3919 3638.449 3548.6337 3624.1607 3538.4299 3605.716 3530.0868 3596.9577 3522.6686 3586.3534 3526.822 3568.3589 3541.1753 3565.1181 3549.9702 3560.4978 3571.724 3547.1019 3577.2759 3541.1003 3619.8593 3518.921 3641.1511 3508.7534 3683.7316 3486.5719 3692.9764 3469.9575 3725.3512 3432.1028 3728.0936 3397.0464 3727.1376 3367.5296 3735.4355 3332.4699 3741.8972 3313.0934 Z" fill="none" stroke="#865327" opacity="0.6" stroke-width="1" class="brownsville"/>
<path d="M 3667.1223 3550.2448 3630.5692 3583.7235 3624.7769 3579.8077 3667.1223 3550.2448 Z" fill="none" stroke="#865327" opacity="0.6" stroke-width="1" class="brownsville"/>
<path d="M 3629.2042 3610.2507 3845.9186 3589.7297 3858.0766 3691.2107 3753.4789 3763.3015 3629.2042 3610.2507 Z" fill="none" stroke="#865327" opacity="0.6" stroke-width="1" class="brownsville"/>
<path d="M 3507.8399 3574.371 3513.2467 3384.3267 3617.7275 3208.9921 3870.6382 3343.3901 3940.4584 3643.1311 3808.9792 3688.498 3608.9053 3697.9249 3507.8399 3574.371 Z" fill="none" stroke="#865327" opacity="0.6" stroke-width="1" class="brownsville"/>
<path d="M 3509.6944 3577.1374 3725.3652 3445.94 3762.6717 3695.9298 3621.862 3684.9951 3509.6944 3577.1374 Z" fill="none" stroke="#865327" opacity="0.6" stroke-width="1" class="brownsville"/>
<path d="M 3851.5278 3634.9333 3845.0893 3674.6166 3697.9389 3806.7305 3607.979 3697.9258 3630.1278 3607.4819 3626.391 3572.4253 3630.0781 3553.0472 3626.3272 3502.3091 3803.1114 3406.1915 3851.5278 3634.9333 Z" fill="none" stroke="#865327" opacity="0.6" stroke-width="1" class="brownsville"/>
<path d="M 3571.9735 3568.0908 3842.0141 3414.4501 3966.3867 3637.5624 3655.2219 3698.8052 3571.9735 3568.0908 Z" fill="none" stroke="#865327" opacity="0.6" stroke-width="1" class="brownsville"/></svg>