<?xml version="1.0"?><svg xmlns="http://www.w3.org/2000/svg" version="1.2" baseProfile="tiny" width="6000" height="5918" viewBox="0 0 6000 5918" stroke-linecap="round" stroke-linejoin="round"><path d="M 3304.5197 1917.0876 3300.8206 1915.7081 3228.1057 1873.6113 3277.6399 1793.2346 3329.4286 1825.8972 3349.7734 1836.0151 3339.6194 1861.3473 3304.5197 1917.0876 Z" fill="none" stroke="#A9159C" opacity="0.6" stroke-width="1" class="carnegie_hill"/>
<path d="M 3242.5208 1813.0523 3274.8879 1832.8352 3226.3993 1929.1022 3191.2561 1908.8564 3242.5208 1813.0523 Z" fill="none" stroke="#A9159C" opacity="0.6" stroke-width="1" class="carnegie_hill"/>
<path d="M 3210.6727 1910.6894 3247.6181 1837.9147 3267.9614 1846.1925 3324.3756 1879.3153 3283.7356 1951.1772 3210.6727 1910.6894 Z" fill="none" stroke="#A9159C" opacity="0.6" stroke-width="1" class="carnegie_hill"/>
<path d="M 3242.2883 1810.2897 3311.8762 1848.01 3255.5337 1948.4292 3186.6337 1909.7795 3242.2883 1810.2897 Z" fill="none" stroke="#A9159C" opacity="0.6" stroke-width="1" class="carnegie_hill"/>
<path d="M 3284.5938 1830.5276 3370.4953 1712.605 3409.3641 1778.8801 3324.4307 1972.3383 3284.5938 1830.5276 Z" fill="none" stroke="#A9159C" opacity="0.6" stroke-width="1" class="carnegie_hill"/>
<path d="M 3233.2831 1827.101 3301.0715 1864.9124 3283.1262 1902.1502 3209.2386 1870.5264 3233.2831 1827.101 Z" fill="none" stroke="#A9159C" opacity="0.6" stroke-width="1" class="carnegie_hill"/>
<path d="M 3241.3639 1810.2902 3311.8764 1848.2402 3258.7684 1945.6644 3186.6337 1909.7795 3241.3639 1810.2902 Z" fill="none" stroke="#A9159C" opacity="0.6" stroke-width="1" class="carnegie_hill"/>
<path d="M 3367.5978 1879.7492 3368.0721 1898.6291 3371.3188 1915.4353 3385.6781 1958.7144 3377.1535 2002.0104 3190.7902 1900.7979 3240.6701 1809.3696 3367.5978 1879.7492 Z" fill="none" stroke="#A9159C" opacity="0.6" stroke-width="1" class="carnegie_hill"/>
<path d="M 3186.1728 1913.0032 3249.4489 1802.4584 3277.1927 1820.8619 3215.7677 1931.4099 3186.1728 1913.0032 Z" fill="none" stroke="#A9159C" opacity="0.6" stroke-width="1" class="carnegie_hill"/>
<path d="M 3241.5952 1810.7505 3311.8768 1848.9309 3254.6089 1947.9691 3186.6335 1909.319 3241.5952 1810.7505 Z" fill="none" stroke="#A9159C" opacity="0.6" stroke-width="1" class="carnegie_hill"/>
<path d="M 3531.3125 1683.9434 3241.3171 2175.961 3087.7642 2082.0618 3302.0857 1701.5967 3457.2328 1503.5437 3531.3125 1683.9434 Z" fill="none" stroke="#A9159C" opacity="0.6" stroke-width="1" class="carnegie_hill"/>
<path d="M 3293.3813 1839.2716 3259.4382 1900.5342 3207.3033 1872.355 3242.1725 1809.7142 3293.3813 1839.2716 Z" fill="none" stroke="#A9159C" opacity="0.6" stroke-width="1" class="carnegie_hill"/>
<path d="M 3370.5839 1850.737 3311.4843 1969.5827 3201.4301 1917.1408 3276.244 1776.199 3370.5839 1850.737 Z" fill="none" stroke="#A9159C" opacity="0.6" stroke-width="1" class="carnegie_hill"/>
<path d="M 3308.7394 1853.7348 3261.173 1938.981 3191.5718 1901.1092 3240.9304 1816.9689 3308.7394 1853.7348 Z" fill="none" stroke="#A9159C" opacity="0.6" stroke-width="1" class="carnegie_hill"/>
<path d="M 3276.0413 1828.6904 3293.6118 1838.1203 3243.7352 1929.0935 3191.483 1899.416 3251.523 1790.9461 3286.2003 1810.0363 3276.0413 1828.6904 Z" fill="none" stroke="#A9159C" opacity="0.6" stroke-width="1" class="carnegie_hill"/>
<path d="M 3211.6051 1927.2672 3263.3102 1791.8609 3396.9243 1838.7475 3376.1405 1865.4687 3327.2133 1987.0738 3211.6051 1927.2672 Z" fill="none" stroke="#A9159C" opacity="0.6" stroke-width="1" class="carnegie_hill"/>
<path d="M 3312.1084 1849.8517 3262.2311 1937.143 3195.1812 1899.4144 3243.6756 1811.4402 3312.1084 1849.8517 Z" fill="none" stroke="#A9159C" opacity="0.6" stroke-width="1" class="carnegie_hill"/>
<path d="M 3244.1378 1811.4399 3310.2587 1848.7016 3261.7685 1936.4524 3195.1806 1898.2631 3244.1378 1811.4399 Z" fill="none" stroke="#A9159C" opacity="0.6" stroke-width="1" class="carnegie_hill"/>
<path d="M 3247.8299 1800.157 3316.7245 1838.7978 3296.1752 1875.6477 3287.6312 1889.9276 3272.1602 1918.0265 3260.845 1938.5252 3241.8857 1928.4037 3258.2827 1900.9953 3264.2877 1892.2427 3244.4048 1882.1222 3229.6076 1872.6896 3244.3854 1843.9024 3252.9292 1828.7026 3237.4395 1819.5013 3247.8299 1800.157 Z" fill="none" stroke="#A9159C" opacity="0.6" stroke-width="1" class="carnegie_hill"/>
<path d="M 3184.785 1910.7013 3253.147 1802.9169 3304.0064 1827.7539 3239.3463 1934.6219 3184.785 1910.7013 Z" fill="none" stroke="#A9159C" opacity="0.6" stroke-width="1" class="carnegie_hill"/>
<path d="M 3247.599 1800.3873 3260.068 1779.2004 3380.515 1839.449 3356.9675 1882.7491 3329.4536 1867.8001 3297.5475 1849.8601 3276.9721 1840.4318 3259.4019 1831.2318 3245.7611 1822.0296 3239.9815 1818.8093 3243.6799 1819.9586 3240.6731 1815.3555 3247.599 1800.3873 Z" fill="none" stroke="#A9159C" opacity="0.6" stroke-width="1" class="carnegie_hill"/>
<path d="M 3271.9456 1948.881 3265.005 1937.3718 3270.3208 1936.2176 3276.3365 1947.0366 3286.7308 1933.6759 3281.4121 1929.304 3278.8694 1929.0751 3286.7277 1927.9195 3294.1237 1926.7641 3288.1167 1931.8331 3286.7298 1931.8338 3271.9456 1948.881 Z" fill="none" stroke="#A9159C" opacity="0.6" stroke-width="1" class="carnegie_hill"/>
<path d="M 3370.6028 1880.2077 3277.1979 1830.5316 3392.3924 1975.0588 3220.8558 1937.3941 3249.0249 1877.0545 3268.891 1855.8619 3283.6744 1839.7374 3370.6028 1880.2077 Z" fill="none" stroke="#A9159C" opacity="0.6" stroke-width="1" class="carnegie_hill"/>
<path d="M 3241.8261 1810.29 3277.1975 1829.8409 3252.7225 1875.9014 3267.9812 1883.4914 3252.5091 1910.4385 3234.7067 1901.2375 3225.7011 1919.2016 3192.1769 1900.567 3241.8261 1810.29 Z" fill="none" stroke="#A9159C" opacity="0.6" stroke-width="1" class="carnegie_hill"/>
<path d="M 3224.6604 1918.0508 3192.7545 1900.1062 3251.4081 1792.2124 3269.3237 1800.4911 3258.9339 1820.181 3274.3077 1828.346 3224.6604 1918.0508 Z" fill="none" stroke="#A9159C" opacity="0.6" stroke-width="1" class="carnegie_hill"/>
<path d="M 3251.291 1789.1045 3290.1499 1847.1014 3235.6452 1929.0976 3186.6329 1907.9375 3251.291 1789.1045 Z" fill="none" stroke="#A9159C" opacity="0.6" stroke-width="1" class="carnegie_hill"/>
<path d="M 3185.7087 1908.8589 3220.8107 1843.9141 3241.1323 1809.3694 3311.8764 1848.2402 3281.3972 1902.1342 3255.3022 1947.7385 3185.7087 1908.8589 Z" fill="none" stroke="#A9159C" opacity="0.6" stroke-width="1" class="carnegie_hill"/>
<path d="M 3262.265 1937.3868 3259.2099 1936.2272 3253.3925 1933.3539 3245.5314 1929.2133 3237.0377 1924.7601 3228.3668 1918.6626 3221.3835 1916.6823 3218.8393 1913.2297 3204.2743 1906.6744 3192.7142 1899.7723 3196.5248 1892.8631 3203.7065 1880.8415 3208.6714 1871.2841 3213.4054 1862.4176 3218.9864 1853.7436 3221.8722 1846.9502 3228.4542 1836.4714 3232.6648 1827.9579 3236.2438 1821.0493 3241.0057 1813.1444 3247.5923 1812.7957 3252.7938 1815.4407 3256.3769 1816.9353 3259.9523 1818.628 3263.1896 1821.7344 3274.9798 1827.4839 3277.6948 1827.9833 3280.1164 1830.5782 3283.8153 1832.3029 3289.0173 1835.4082 3292.0384 1837.0327 3299.5523 1841.2878 3304.9857 1844.7383 3311.6904 1848.4182 3309.5641 1852.9957 3303.2386 1864.4075 3291.6554 1883.9406 3283.1242 1901.353 3274.5048 1917.0027 3270.2322 1923.5672 3265.3829 1932.5497 3262.265 1937.3868 Z" fill="none" stroke="#A9159C" opacity="0.6" stroke-width="1" class="carnegie_hill"/>
<path d="M 3361.3549 1876.0692 3331.5709 1929.7357 3212.0374 1863.7187 3241.826 1810.0597 3361.3549 1876.0692 Z" fill="none" stroke="#A9159C" opacity="0.6" stroke-width="1" class="carnegie_hill"/>
<path d="M 3209.448 1877.8374 3212.0378 1864.6396 3215.8129 1855.5059 3220.0042 1848.8645 3226.3551 1838.616 3227.1633 1837.004 3231.7477 1829.2514 3232.5613 1828.368 3241.1059 1814.7802 3240.8747 1814.5501 3241.0174 1811.0946 3244.6 1811.6683 3251.3045 1815.9241 3255.5817 1818.6846 3259.3816 1821.1226 3266.6635 1824.2269 3272.5343 1827.6378 3279.4597 1831.9817 3285.8172 1834.8561 3289.916 1838.1854 3294.1928 1840.0249 3300.4354 1843.9354 3304.4816 1846.5808 3309.3031 1848.5352 3305.1481 1857.7471 3299.0277 1865.809 3260.3395 1936.8929 3228.6705 1920.9005 3211.0231 1909.6054 3192.6518 1900.5034 3210.4332 1865.9585 3209.448 1877.8374 Z" fill="none" stroke="#A9159C" opacity="0.6" stroke-width="1" class="carnegie_hill"/>
<path d="M 3110.6389 2047.971 3211.8068 1864.87 3263.5938 1891.3221 3162.8961 2075.8153 3110.6389 2047.971 Z" fill="none" stroke="#A9159C" opacity="0.6" stroke-width="1" class="carnegie_hill"/>
<path d="M 2959.6909 2091.7692 3021.8892 2126.7598 2998.5496 2170.9852 2934.962 2136.2219 2959.6909 2091.7692 Z" fill="none" stroke="#A9159C" opacity="0.6" stroke-width="1" class="carnegie_hill"/>
<path d="M 3252.2392 1835.1495 3288.2489 1753.1708 3310.4352 1754.0791 3320.6113 1766.9652 3345.5662 1759.5833 3335.4121 1783.5321 3320.6287 1796.4334 3318.796 1824.0617 3308.6378 1843.4071 3303.0998 1859.0664 3287.3968 1883.9413 3273.5421 1908.8157 3263.3894 1941.9778 3246.7439 1936.4602 3228.2476 1927.2592 3205.1292 1918.9811 3208.8167 1895.9543 3221.7515 1877.5285 3252.2392 1835.1495 Z" fill="none" stroke="#A9159C" opacity="0.6" stroke-width="1" class="carnegie_hill"/>
<path d="M 3281.7765 1750.4118 3314.1425 1770.6525 3275.3509 1834.2163 3238.3621 1815.8172 3276.227 1744.8897 3281.7765 1750.4118 Z" fill="none" stroke="#A9159C" opacity="0.6" stroke-width="1" class="carnegie_hill"/>
<path d="M 3247.3678 1800.3874 3316.9555 1838.5674 3260.8451 1938.7555 3192.1767 1900.1065 3247.3678 1800.3874 Z" fill="none" stroke="#A9159C" opacity="0.6" stroke-width="1" class="carnegie_hill"/>
<path d="M 3247.5979 1798.3153 3299.3855 1830.5193 3235.6493 1937.3868 3187.5578 1908.8581 3247.5979 1798.3153 Z" fill="none" stroke="#A9159C" opacity="0.6" stroke-width="1" class="carnegie_hill"/>
<path d="M 3194.9568 1914.3807 3352.9707 1774.3126 3352.044 1770.6297 3355.744 1774.3108 3329.8076 1686.8478 3263.3889 1941.0568 3194.9568 1914.3807 Z" fill="none" stroke="#A9159C" opacity="0.6" stroke-width="1" class="carnegie_hill"/>
<path d="M 3308.6402 1847.5514 3256.9194 1946.1258 3186.1704 1907.4772 3240.2094 1812.593 3241.1316 1807.988 3308.6402 1847.5514 Z" fill="none" stroke="#A9159C" opacity="0.6" stroke-width="1" class="carnegie_hill"/>
<path d="M 3241.8255 1809.1388 3311.4136 1847.3195 3259.4578 1938.0655 3189.8654 1900.3378 3241.8255 1809.1388 Z" fill="none" stroke="#A9159C" opacity="0.6" stroke-width="1" class="carnegie_hill"/>
<path d="M 3247.368 1800.6177 3317.5336 1839.1426 3271.2369 1920.3295 3201.6447 1881.3371 3247.368 1800.6177 Z" fill="none" stroke="#A9159C" opacity="0.6" stroke-width="1" class="carnegie_hill"/>
<path d="M 3310.9045 1966.2441 3227.5508 1920.3519 3277.4286 1829.8408 3359.7368 1875.84 3310.9045 1966.2441 Z" fill="none" stroke="#A9159C" opacity="0.6" stroke-width="1" class="carnegie_hill"/>
<path d="M 3253.1479 1804.7587 3342.8482 1849.8334 3285.5909 1962.2288 3182.0153 1919.9126 3253.1479 1804.7587 Z" fill="none" stroke="#A9159C" opacity="0.6" stroke-width="1" class="carnegie_hill"/>
<path d="M 3183.8635 1917.6093 3248.5252 1803.8402 3368.7508 1875.6041 3307.3322 1984.7827 3183.8635 1917.6093 Z" fill="none" stroke="#A9159C" opacity="0.6" stroke-width="1" class="carnegie_hill"/>
<path d="M 3251.2922 1791.4067 3320.1861 1829.8166 3346.0793 1842.2337 3305.2122 1915.4754 3213.1934 1864.6391 3251.2922 1791.4067 Z" fill="none" stroke="#A9159C" opacity="0.6" stroke-width="1" class="carnegie_hill"/>
<path d="M 3375.6675 1848.8918 3300.859 1983.4048 3183.8626 1915.7672 3243.9115 1820.8794 3258.6923 1800.1514 3292.9069 1817.6301 3375.6675 1848.8918 Z" fill="none" stroke="#A9159C" opacity="0.6" stroke-width="1" class="carnegie_hill"/>
<path d="M 3220.8194 1861.8726 3259.6225 1811.2017 3302.1464 1808.4158 3281.8324 1852.6316 3220.8194 1861.8726 Z" fill="none" stroke="#A9159C" opacity="0.6" stroke-width="1" class="carnegie_hill"/>
<path d="M 3206.0405 1890.4297 3293.8082 1776.1893 3272.5433 1770.6757 3264.2225 1768.8384 3216.1973 1862.7958 3300.2813 1779.8692 3235.6341 1906.9933 3206.0405 1890.4297 Z" fill="none" stroke="#A9159C" opacity="0.6" stroke-width="1" class="carnegie_hill"/>
<path d="M 3309.4705 1684.0974 3453.7222 1758.5897 3333.6852 1986.1488 3184.7833 1907.0173 3258.6793 1775.2874 3309.4705 1684.0974 Z" fill="none" stroke="#A9159C" opacity="0.6" stroke-width="1" class="carnegie_hill"/>
<path d="M 3136.7377 1987.1679 3199.5513 1852.6731 3282.7781 1891.3118 3215.3417 2007.3977 3136.7377 1987.1679 Z" fill="none" stroke="#A9159C" opacity="0.6" stroke-width="1" class="carnegie_hill"/>
<path d="M 3241.826 1810.0597 3311.6452 1848.2403 3261.0761 1938.5251 3191.7143 1899.8764 3241.826 1810.0597 Z" fill="none" stroke="#A9159C" opacity="0.6" stroke-width="1" class="carnegie_hill"/>
<path d="M 3364.1509 1911.5256 3378.0505 1959.4102 3327.2555 2057.9995 3273.6071 2029.4747 3208.9331 2143.7331 3158.0588 2117.9615 3248.6034 1956.7222 3273.5738 1967.7617 3320.6839 1890.3692 3364.1509 1911.5256 Z" fill="none" stroke="#A9159C" opacity="0.6" stroke-width="1" class="carnegie_hill"/>
<path d="M 3242.5201 1811.671 3293.8425 1837.4294 3231.9548 1945.2175 3182.4768 1918.0704 3242.5201 1811.671 Z" fill="none" stroke="#A9159C" opacity="0.6" stroke-width="1" class="carnegie_hill"/>
<path d="M 3186.6494 1909.8887 3248.4922 1800.5937 3344.0993 1845.8055 3283.0529 1963.6977 3186.6494 1909.8887 Z" fill="none" stroke="#A9159C" opacity="0.6" stroke-width="1" class="carnegie_hill"/>
<path d="M 3289.216 1830.0646 3247.6073 1816.7334 3282.7191 1783.5625 3377.0441 1833.235 3303.1496 1946.5612 3219.0208 1966.8684 3188.5051 1959.5142 3190.3415 1930.9611 3246.6866 1824.1012 3289.216 1830.0646 Z" fill="none" stroke="#A9159C" opacity="0.6" stroke-width="1" class="carnegie_hill"/>
<path d="M 3241.5944 1809.1389 3303.0906 1842.9498 3253.4453 1932.7727 3191.7147 1900.7974 3241.5944 1809.1389 Z" fill="none" stroke="#A9159C" opacity="0.6" stroke-width="1" class="carnegie_hill"/>
<path d="M 3242.5194 1810.2896 3310.9519 1848.2407 3260.8456 1939.6765 3192.4079 1900.3366 3242.5194 1810.2896 Z" fill="none" stroke="#A9159C" opacity="0.6" stroke-width="1" class="carnegie_hill"/>
<path d="M 3240.2081 1809.8303 3310.9507 1846.1686 3255.0716 1948.8899 3189.4063 1907.4757 3240.2081 1809.8303 Z" fill="none" stroke="#A9159C" opacity="0.6" stroke-width="1" class="carnegie_hill"/>
<path d="M 3192.9896 1899.0196 3194.599 1898.0314 3198.702 1891.7004 3201.4728 1885.4825 3205.0529 1880.0701 3207.4775 1875.3489 3211.2455 1868.2519 3214.0168 1863.5307 3215.5962 1860.7969 3216.9816 1858.0333 3219.0593 1852.852 3223.2169 1847.3243 3225.9303 1842.048 3232.0506 1833.0658 3235.8308 1826.6718 3236.6681 1823.0485 3238.7083 1819.8354 3242.9802 1812.3508 3244.3675 1810.8129 3243.9041 1808.5109 3250.2547 1798.6079 3253.3534 1792.1853 3257.7457 1794.4852 3263.294 1797.4752 3268.3803 1800.9259 3270.8366 1801.4792 3277.7721 1805.3893 3282.5119 1808.8401 3285.6333 1811.2558 3282.5167 1817.5888 3279.9777 1823.8063 3280.6519 1824.6362 3277.765 1828.4366 3279.7314 1832.0041 3283.4308 1834.5346 3285.1361 1834.7968 3287.3576 1835.5462 3296.8367 1840.9514 3302.7322 1844.0562 3309.0905 1848.3119 3310.9416 1851.8795 3305.6296 1858.6746 3303.0903 1864.2018 3300.8721 1868.0399 3294.5228 1880.0161 3289.4422 1887.9624 3285.6328 1895.6777 3282.5544 1901.3812 3277.9357 1908.982 3273.5485 1917.2734 3271.3261 1922.0145 3267.7467 1928.3484 3263.2431 1935.3736 3261.2067 1937.8971 3257.16 1934.7908 3252.5355 1931.6847 3247.9907 1929.6667 3240.8236 1926.4467 3240.1631 1925.3659 3234.6141 1922.2602 3224.5569 1917.1996 3223.4739 1916.1526 3212.0296 1910.2867 3210.8317 1908 3206.6707 1907.081 3202.5091 1904.6653 3198.8099 1902.7099 3196.6134 1901.0991 3195.6883 1899.9483 3192.9896 1899.0196 Z" fill="none" stroke="#A9159C" opacity="0.6" stroke-width="1" class="carnegie_hill"/>
<path d="M 3242.7507 1810.5197 3294.7683 1839.7313 3250.8961 1920.11 3198.6451 1892.5054 3242.7507 1810.5197 Z" fill="none" stroke="#A9159C" opacity="0.6" stroke-width="1" class="carnegie_hill"/>
<path d="M 3241.5948 1809.8296 3311.1829 1848.0104 3261.076 1938.2949 3192.1767 1900.1065 3241.5948 1809.8296 Z" fill="none" stroke="#A9159C" opacity="0.6" stroke-width="1" class="carnegie_hill"/>
<path d="M 3256.8415 1796.4687 3315.9376 1678.5689 3369.5686 1708.9223 3304.0022 1820.3866 3256.8415 1796.4687 Z" fill="none" stroke="#A9159C" opacity="0.6" stroke-width="1" class="carnegie_hill"/>
<path d="M 3293.1499 1838.8112 3278.1413 1865.2968 3273.1768 1874.2789 3268.0966 1883.0308 3249.2541 1873.2553 3234.9371 1899.7408 3201.8763 1882.3731 3252.6779 1789.6793 3268.6305 1800.7217 3259.9731 1818.5688 3275.0006 1827.5398 3293.1499 1838.8112 Z" fill="none" stroke="#A9159C" opacity="0.6" stroke-width="1" class="carnegie_hill"/>
<path d="M 3192.1766 1899.8762 3241.8253 1808.6784 3294.5372 1839.7314 3242.1166 1927.9431 3192.1766 1899.8762 Z" fill="none" stroke="#A9159C" opacity="0.6" stroke-width="1" class="carnegie_hill"/>
<path d="M 3256.9211 1949.3495 3187.0957 1909.3188 3272.5369 1758.7045 3286.8706 1768.3658 3267.0131 1801.5283 3321.1099 1828.6649 3256.9211 1949.3495 Z" fill="none" stroke="#A9159C" opacity="0.6" stroke-width="1" class="carnegie_hill"/>
<path d="M 3306.2508 1711.2628 3363.5731 1729.1842 3368.2279 1780.7491 3354.8509 1824.5003 3310.9461 1838.3406 3269.8101 1845.731 3262.3947 1808.898 3252.2147 1787.7227 3283.6154 1732.4544 3306.2508 1711.2628 Z" fill="none" stroke="#A9159C" opacity="0.6" stroke-width="1" class="carnegie_hill"/>
<path d="M 3262.3876 1795.3147 3379.8314 1854.4148 3341.0464 1927.1972 3203.266 1888.589 3262.3876 1795.3147 Z" fill="none" stroke="#A9159C" opacity="0.6" stroke-width="1" class="carnegie_hill"/>
<path d="M 3077.5946 2089.4346 3183.8637 1918.0698 3243.0535 1952.1197 3142.3385 2119.8103 3077.5946 2089.4346 Z" fill="none" stroke="#A9159C" opacity="0.6" stroke-width="1" class="carnegie_hill"/>
<path d="M 3245.3118 1847.5857 3313.2154 1766.0487 3295.2546 1882.5555 3245.3118 1847.5857 Z" fill="none" stroke="#A9159C" opacity="0.6" stroke-width="1" class="carnegie_hill"/>
<path d="M 3310.3943 1683.176 3325.1908 1695.1377 3203.2797 1918.061 3187.5582 1909.7791 3310.3943 1683.176 Z" fill="none" stroke="#A9159C" opacity="0.6" stroke-width="1" class="carnegie_hill"/>
<path d="M 3242.5201 1811.671 3316.959 1844.5535 3309.7973 1850.0833 3261.0765 1939.2159 3192.8714 1903.0994 3242.5201 1811.671 Z" fill="none" stroke="#A9159C" opacity="0.6" stroke-width="1" class="carnegie_hill"/>
<path d="M 3091.9262 2083.9027 3180.6279 1918.5317 3231.0302 1945.2179 3144.1842 2110.137 3091.9262 2083.9027 Z" fill="none" stroke="#A9159C" opacity="0.6" stroke-width="1" class="carnegie_hill"/>
<path d="M 3178.4137 2140.753 3157.8322 2129.0162 3160.8354 2123.4876 3178.4137 2140.753 Z" fill="none" stroke="#A9159C" opacity="0.6" stroke-width="1" class="carnegie_hill"/>
<path d="M 3221.7773 1930.9465 3321.5249 1748.5475 3432.486 1794.5191 3364.1293 1877.449 3378.0511 1960.3312 3356.8116 2002.7142 3221.7773 1930.9465 Z" fill="none" stroke="#A9159C" opacity="0.6" stroke-width="1" class="carnegie_hill"/>
<path d="M 3182.9387 1917.1492 3272.5339 1753.1794 3422.3472 1837.8092 3341.0969 2010.0927 3182.9387 1917.1492 Z" fill="none" stroke="#A9159C" opacity="0.6" stroke-width="1" class="carnegie_hill"/>
<path d="M 3243.9064 1810.7494 3310.2584 1848.0109 3260.845 1938.5252 3192.8709 1901.9482 3206.0369 1882.8316 3243.9064 1810.7494 Z" fill="none" stroke="#A9159C" opacity="0.6" stroke-width="1" class="carnegie_hill"/>
<path d="M 3280.8893 1818.5576 3294.3055 1838.8106 3241.6547 1928.6341 3186.6335 1909.319 3251.2926 1792.3276 3280.8893 1818.5576 Z" fill="none" stroke="#A9159C" opacity="0.6" stroke-width="1" class="carnegie_hill"/>
<path d="M 3293.6116 1837.7749 3310.9517 1847.8954 3296.7527 1874.9566 3281.9747 1901.4431 3258.3924 1889.598 3245.0982 1882.1218 3230.6473 1871.8833 3237.4594 1859.2166 3244.1553 1845.7444 3249.1201 1837.2232 3254.8933 1827.7807 3259.7423 1819.1445 3264.3661 1821.9048 3274.0756 1826.6194 3280.434 1831.3357 3288.0634 1835.5908 3293.6116 1837.7749 Z" fill="none" stroke="#A9159C" opacity="0.6" stroke-width="1" class="carnegie_hill"/>
<path d="M 3253.1419 1793.0173 3305.618 1816.9322 3245.8147 1927.4807 3193.7938 1898.2638 3253.1419 1793.0173 Z" fill="none" stroke="#A9159C" opacity="0.6" stroke-width="1" class="carnegie_hill"/>
<path d="M 3247.599 1800.3873 3299.8473 1829.5981 3249.1623 1919.6503 3197.373 1890.664 3198.4129 1890.203 3247.599 1800.3873 Z" fill="none" stroke="#A9159C" opacity="0.6" stroke-width="1" class="carnegie_hill"/>
<path d="M 3185.7093 1910.2404 3271.611 1755.9424 3287.3316 1766.0633 3260.0894 1819.9501 3294.767 1837.4289 3238.424 1939.2275 3185.7093 1910.2404 Z" fill="none" stroke="#A9159C" opacity="0.6" stroke-width="1" class="carnegie_hill"/>
<path d="M 3235.8621 1900.5462 3200.9513 1881.4525 3251.7544 1791.4065 3286.6627 1810.2663 3235.8621 1900.5462 Z" fill="none" stroke="#A9159C" opacity="0.6" stroke-width="1" class="carnegie_hill"/>
<path d="M 3193.286 1899.8297 3242.4264 1809.1846 3312.7086 1848.562 3262.8339 1940.6886 3193.286 1899.8297 Z" fill="none" stroke="#A9159C" opacity="0.6" stroke-width="1" class="carnegie_hill"/>
<path d="M 3236.9768 1818.5806 3280.8458 1738.9018 3313.2093 1755.4588 3269.8057 1837.4426 3236.9768 1818.5806 Z" fill="none" stroke="#A9159C" opacity="0.6" stroke-width="1" class="carnegie_hill"/>
<path d="M 3243.5876 1811.471 3274.4444 1828.1585 3225.6082 1915.4275 3195.0602 1899.6815 3195.8621 1901.9484 3243.5876 1811.471 Z" fill="none" stroke="#A9159C" opacity="0.6" stroke-width="1" class="carnegie_hill"/>
<path d="M 3241.1341 1813.053 3307.7128 1842.4867 3247.6737 1946.5911 3183.8641 1918.9908 3241.1341 1813.053 Z" fill="none" stroke="#A9159C" opacity="0.6" stroke-width="1" class="carnegie_hill"/>
<path d="M 3207.8807 1871.5488 3291.0036 1720.0192 3362.2037 1756.3499 3275.8545 1910.6564 3207.8807 1871.5488 Z" fill="none" stroke="#A9159C" opacity="0.6" stroke-width="1" class="carnegie_hill"/>
<path d="M 3352.0285 1745.7665 3272.6047 1884.8704 3207.8775 1864.6416 3303.9412 1713.5661 3414.8898 1748.4879 3283.6951 1877.4966 3336.3432 1794.5822 3352.0285 1745.7665 Z" fill="none" stroke="#A9159C" opacity="0.6" stroke-width="1" class="carnegie_hill"/>
<path d="M 3241.8258 1809.5993 3275.8103 1828.9208 3235.6308 1900.3161 3202.1073 1882.1427 3241.8258 1809.5993 Z" fill="none" stroke="#A9159C" opacity="0.6" stroke-width="1" class="carnegie_hill"/>
<path d="M 3270.9405 1798.5333 3306.7736 1816.9315 3245.3528 1928.1717 3193.7941 1898.9545 3203.7245 1880.5302 3254.2961 1790.4843 3270.9405 1798.5333 Z" fill="none" stroke="#A9159C" opacity="0.6" stroke-width="1" class="carnegie_hill"/>
<path d="M 3350.2361 1836.7055 3375.4359 1848.2013 3391.1581 1856.7097 3369.4519 1887.5763 3370.3968 1919.3502 3380.128 1955.0338 3358.6554 1993.9626 3259.6907 1941.289 3245.5849 1930.0136 3308.6191 1810.9446 3350.2361 1836.7055 Z" fill="none" stroke="#A9159C" opacity="0.6" stroke-width="1" class="carnegie_hill"/>
<path d="M 3252.6789 1791.6362 3285.2756 1809.5763 3274.4233 1828.461 3294.9993 1839.5009 3258.7455 1901.916 3206.2631 1872.2403 3252.6789 1791.6362 Z" fill="none" stroke="#A9159C" opacity="0.6" stroke-width="1" class="carnegie_hill"/>
<path d="M 3243.4639 1849.6588 3238.7176 1833.3145 3257.9116 1854.141 3253.7506 1852.8768 3252.4785 1851.0356 3243.4639 1849.6588 Z" fill="none" stroke="#A9159C" opacity="0.6" stroke-width="1" class="carnegie_hill"/>
<path d="M 3262.3761 1773.4438 3314.1614 1803.1137 3279.5252 1860.0005 3234.0362 1947.2888 3217.4066 1974.9285 3165.8463 1945.9386 3215.5006 1855.8889 3261.2206 1773.6746 3262.3761 1773.4438 Z" fill="none" stroke="#A9159C" opacity="0.6" stroke-width="1" class="carnegie_hill"/>
<path d="M 3251.2962 1799.2343 3320.6514 1835.1117 3256.9163 1940.1391 3189.4061 1907.0152 3251.2962 1799.2343 Z" fill="none" stroke="#A9159C" opacity="0.6" stroke-width="1" class="carnegie_hill"/>
<path d="M 3281.2421 1829.8387 3275.7003 1839.2813 3287.8367 1843.534 3288.9964 1850.9009 3264.2894 1895.351 3211.6917 1865.9061 3244.5981 1807.5258 3281.2421 1829.8387 Z" fill="none" stroke="#A9159C" opacity="0.6" stroke-width="1" class="carnegie_hill"/>
<path d="M 3208.8076 1876.6137 3304.983 1918.9293 3215.3706 2068.1921 3125.6536 2017.5683 3208.8076 1876.6137 Z" fill="none" stroke="#A9159C" opacity="0.6" stroke-width="1" class="carnegie_hill"/>
<path d="M 3260.5267 1772.5239 3304.3929 1695.1498 3447.2633 1775.17 3367.8483 1910.1417 3222.1973 1843.4529 3260.5267 1772.5239 Z" fill="none" stroke="#A9159C" opacity="0.6" stroke-width="1" class="carnegie_hill"/>
<path d="M 3185.0192 1917.6088 3239.2875 1817.6585 3289.4579 1849.6343 3232.1859 1945.2174 3185.0192 1917.6088 Z" fill="none" stroke="#A9159C" opacity="0.6" stroke-width="1" class="carnegie_hill"/>
<path d="M 3249.4487 1801.9979 3315.567 1835.5752 3259.6886 1937.3746 3191.7142 1899.6462 3249.4487 1801.9979 Z" fill="none" stroke="#A9159C" opacity="0.6" stroke-width="1" class="carnegie_hill"/>
<path d="M 3240.2467 1886.7292 3294.7481 1803.8154 3336.3599 1822.2094 3285.5614 1908.8091 3240.2467 1886.7292 Z" fill="none" stroke="#A9159C" opacity="0.6" stroke-width="1" class="carnegie_hill"/>
<path d="M 3247.5992 1800.8478 3339.1517 1852.3683 3304.7499 1915.4757 3211.3443 1864.4097 3247.5992 1800.8478 Z" fill="none" stroke="#A9159C" opacity="0.6" stroke-width="1" class="carnegie_hill"/>
<path d="M 3191.7143 1899.8764 3251.9853 1790.9459 3269.7863 1801.0664 3259.1648 1819.7204 3278.1223 1830.3009 3272.8114 1839.5131 3288.7639 1848.4835 3279.066 1865.7567 3244.1978 1929.5538 3191.7143 1899.8764 Z" fill="none" stroke="#A9159C" opacity="0.6" stroke-width="1" class="carnegie_hill"/>
<path d="M 3089.6131 2080.2188 3196.8018 1905.1699 3262.3775 1776.2064 3409.3566 1767.8297 3426.022 1804.6536 3393.7039 1861.7733 3388.237 1983.3512 3411.3876 2033.9961 3340.2581 2151.0322 3234.852 2193.4683 3194.1502 2174.141 3209.8596 2147.4176 3089.6131 2080.2188 Z" fill="none" stroke="#A9159C" opacity="0.6" stroke-width="1" class="carnegie_hill"/>
<path d="M 3192.6393 1900.797 3241.3643 1811.2111 3293.8432 1838.6957 3244.3136 1930.0143 3192.6393 1900.797 Z" fill="none" stroke="#A9159C" opacity="0.6" stroke-width="1" class="carnegie_hill"/>
<path d="M 3311.646 1849.6218 3261.5373 1936.4526 3192.1783 1903.7905 3242.0576 1810.9805 3258.934 1820.4112 3311.646 1849.6218 Z" fill="none" stroke="#A9159C" opacity="0.6" stroke-width="1" class="carnegie_hill"/>
<path d="M 3263.7639 1775.7452 3379.3583 1837.8381 3338.7246 1910.1598 3217.1178 1854.5067 3263.7639 1775.7452 Z" fill="none" stroke="#A9159C" opacity="0.6" stroke-width="1" class="carnegie_hill"/>
<path d="M 3310.7206 1848.0106 3258.765 1939.2171 3192.1765 1899.646 3241.1319 1808.6787 3310.7206 1848.0106 Z" fill="none" stroke="#A9159C" opacity="0.6" stroke-width="1" class="carnegie_hill"/>
<path d="M 3355.6179 1942.1549 3212.0376 1864.1792 3242.2875 1808.6781 3362.0484 1876.2991 3366.6999 1921.6551 3355.6179 1942.1549 Z" fill="none" stroke="#A9159C" opacity="0.6" stroke-width="1" class="carnegie_hill"/>
<path d="M 3190.0958 1898.7259 3240.2071 1807.9885 3296.3851 1837.8885 3243.2719 1927.0215 3190.0958 1898.7259 Z" fill="none" stroke="#A9159C" opacity="0.6" stroke-width="1" class="carnegie_hill"/>
<path d="M 3232.4221 1826.4646 3302.5505 1857.2022 3276.762 1910.384 3208.6376 1870.9116 3232.4221 1826.4646 Z" fill="none" stroke="#A9159C" opacity="0.6" stroke-width="1" class="carnegie_hill"/>
<path d="M 3191.483 1899.416 3273.4604 1757.0925 3304.9006 1774.8017 3278.1224 1830.5311 3310.952 1848.471 3295.2307 1839.9612 3243.5037 1928.4029 3191.483 1899.416 Z" fill="none" stroke="#A9159C" opacity="0.6" stroke-width="1" class="carnegie_hill"/>
<path d="M 3253.3736 1794.1683 3373.8192 1850.0442 3324.4086 1935.0359 3200.0303 1889.051 3253.3736 1794.1683 Z" fill="none" stroke="#A9159C" opacity="0.6" stroke-width="1" class="carnegie_hill"/>
<path d="M 3348.3571 1788.1286 3304.0337 1875.6432 3280.9039 1845.2646 3328.9251 1756.8308 3377.0214 1798.2403 3376.1143 1824.9473 3353.9451 1854.4313 3326.2361 1898.6548 3309.5809 1875.64 3348.3571 1788.1286 Z" fill="none" stroke="#A9159C" opacity="0.6" stroke-width="1" class="carnegie_hill"/>
<path d="M 3341.2327 1853.7484 3304.9812 1915.7058 3302.9002 1914.5557 3210.42 1864.8707 3248.5244 1802.2286 3341.2327 1853.7484 Z" fill="none" stroke="#A9159C" opacity="0.6" stroke-width="1" class="carnegie_hill"/>
<path d="M 3252.4481 1792.0968 3287.588 1811.8773 3282.7398 1821.3194 3316.7248 1839.2582 3292.0201 1885.09 3221.7366 1846.6764 3252.4481 1792.0968 Z" fill="none" stroke="#A9159C" opacity="0.6" stroke-width="1" class="carnegie_hill"/>
<path d="M 3242.9812 1809.3685 3312.3395 1849.8516 3262.4624 1937.3731 3189.4036 1901.4892 3242.9812 1809.3685 Z" fill="none" stroke="#A9159C" opacity="0.6" stroke-width="1" class="carnegie_hill"/>
<path d="M 3289.274 1934.5955 3200.2591 1883.9855 3276.4598 1747.8824 3374.2421 1789.0332 3289.274 1934.5955 Z" fill="none" stroke="#A9159C" opacity="0.6" stroke-width="1" class="carnegie_hill"/>
<path d="M 3311.6454 1848.4706 3280.4731 1902.8254 3229.608 1873.3803 3259.1645 1819.2599 3311.6454 1848.4706 Z" fill="none" stroke="#A9159C" opacity="0.6" stroke-width="1" class="carnegie_hill"/>
<path d="M 3244.1369 1809.5981 3291.7628 1838.1213 3274.2175 1875.4295 3257.3581 1900.7655 3243.0409 1927.2518 3208.5925 1910.6904 3192.4077 1899.8761 3212.7298 1861.6462 3221.7365 1846.4462 3227.97 1832.3989 3233.0506 1824.3383 3238.8234 1813.9751 3244.1369 1809.5981 Z" fill="none" stroke="#A9159C" opacity="0.6" stroke-width="1" class="carnegie_hill"/>
<path d="M 3248.5431 1838.8351 3424.1531 1776.1073 3364.1375 1890.3427 3248.5431 1838.8351 Z" fill="none" stroke="#A9159C" opacity="0.6" stroke-width="1" class="carnegie_hill"/>
<path d="M 3258.6827 1781.7336 3326.1896 1820.3736 3255.9946 1945.6658 3187.5586 1910.7001 3258.6827 1781.7336 Z" fill="none" stroke="#A9159C" opacity="0.6" stroke-width="1" class="carnegie_hill"/>
<path d="M 3241.133 1810.7508 3312.3383 1847.6644 3245.1224 1929.6685 3192.408 1900.4518 3241.133 1810.7508 Z" fill="none" stroke="#A9159C" opacity="0.6" stroke-width="1" class="carnegie_hill"/>
<path d="M 3194.9512 1901.9472 3215.0386 1856.5799 3245.9813 1800.6184 3287.8294 1830.2956 3233.5621 1923.5725 3194.9512 1901.9472 Z" fill="none" stroke="#A9159C" opacity="0.6" stroke-width="1" class="carnegie_hill"/>
<path d="M 3247.5991 1800.6175 3298.9228 1829.5987 3267.5195 1884.4126 3250.411 1875.6723 3200.0663 1967.3379 3165.3847 1947.5506 3247.5991 1800.6175 Z" fill="none" stroke="#A9159C" opacity="0.6" stroke-width="1" class="carnegie_hill"/>
<path d="M 3276.812 1971.4442 3253.6893 1957.6406 3261.4647 1798.3081 3325.273 1833.7276 3195.4258 1929.1168 3276.812 1971.4442 Z" fill="none" stroke="#A9159C" opacity="0.6" stroke-width="1" class="carnegie_hill"/>
<path d="M 3246.9055 1800.1574 3282.0456 1819.9384 3276.9662 1829.3806 3294.9991 1839.2707 3264.0569 1892.9336 3246.2545 1883.2725 3241.8674 1892.024 3207.188 1872.9306 3246.9055 1800.1574 Z" fill="none" stroke="#A9159C" opacity="0.6" stroke-width="1" class="carnegie_hill"/></svg>