<?xml version="1.0"?><svg xmlns="http://www.w3.org/2000/svg" version="1.2" baseProfile="tiny" width="6000" height="5918" viewBox="0 0 6000 5918" stroke-linecap="round" stroke-linejoin="round"><path d="M 5095.7715 1125.3825 5096.718 1134.5827 5052.2281 1073.9566 5032.7189 1027.9948 5005.8026 973.7715 5010.3792 956.2789 4998.1061 844.0642 5010.9762 819.1946 5032.1967 810.8642 5041.4915 835.6807 5048.9442 862.3421 5060.0446 869.6751 5075.835 906.4374 5093.3944 910.9944 5095.2734 923.8704 5106.4 941.324 5112.8745 944.9882 5117.5178 955.0975 5123.0941 968.885 5110.2135 989.1595 5100.0988 1007.5871 5104.7628 1025.9785 5108.4988 1042.5321 5118.7078 1061.8304 5120.6404 1095.8732 5095.7715 1125.3825 Z" fill="none" stroke="#FBC20F" opacity="0.6" stroke-width="1" class="city_island"/>
<path d="M 5030.3055 792.47 5198.2058 1083.7134 5027.4835 1155.9176 4989.7684 833.0442 5030.3055 792.47 Z" fill="none" stroke="#FBC20F" opacity="0.6" stroke-width="1" class="city_island"/>
<path d="M 4981.7878 973.8283 4977.2106 991.3212 4994.3228 806.3548 5039.5268 786.9283 5160.3576 1093.9327 5086.5902 1148.4117 4981.7878 973.8283 Z" fill="none" stroke="#FBC20F" opacity="0.6" stroke-width="1" class="city_island"/>
<path d="M 5080.488 920.6866 5084.6413 919.5264 5083.7259 922.8638 5078.3046 924.8322 5075.9891 922.1928 5080.488 920.6866 Z" fill="none" stroke="#FBC20F" opacity="0.6" stroke-width="1" class="city_island"/>
<path d="M 5071.6515 1084.0315 5031.804 1031.6776 5011.3313 968.2378 5020.4709 927.7325 5000.0295 876.2594 4995.3182 836.711 5014.6548 812.7461 5035.864 799.8161 5120.2289 931.1689 5120.3071 962.4513 5129.8296 1076.5257 5096.6998 1127.2207 5071.6515 1084.0315 Z" fill="none" stroke="#FBC20F" opacity="0.6" stroke-width="1" class="city_island"/>
<path d="M 4989.8683 875.3634 4984.3313 877.2165 5001.7216 810.937 5079.1906 768.4335 5132.9422 844.6551 5141.4602 926.5153 5139.0369 1064.5401 5097.676 1148.3844 5026.4361 1104.3859 4989.8683 875.3634 Z" fill="none" stroke="#FBC20F" opacity="0.6" stroke-width="1" class="city_island"/>
<path d="M 5030.332 803.5092 5045.1722 830.152 5058.2109 875.1996 5081.3743 905.5037 5107.303 933.0412 5123.9832 955.0814 5104.6715 989.1733 5103.8437 1027.8211 5111.3065 1057.248 5123.4117 1095.8663 5108.7046 1125.3505 5080.0444 1116.2188 5061.4745 1077.6149 5042.9329 1050.0542 5035.4767 1022.4673 5020.5963 980.177 5012.2133 950.754 5016.6864 890.02 5008.3502 879.9196 5001.7456 821.0564 5030.332 803.5092 Z" fill="none" stroke="#FBC20F" opacity="0.6" stroke-width="1" class="city_island"/>
<path d="M 4995.3573 853.2705 4979.653 851.4676 4904.7096 790.9236 4974.9685 822.9595 4995.2115 791.6338 5094.7232 701.2446 5156.7389 759.9608 5165.3005 858.3731 5176.6864 977.0304 5212.9978 1088.2762 5170.7749 1194.2154 5053.4757 1207.3919 4948.6495 1022.6723 4995.3573 853.2705 Z" fill="none" stroke="#FBC20F" opacity="0.6" stroke-width="1" class="city_island"/>
<path d="M 5033.1224 811.7819 5069.3362 892.6528 5096.1583 908.2274 5124.9437 969.8005 5111.2127 1019.5214 5129.8434 1082.0469 5105.9218 1120.7562 5072.6158 1100.5931 5057.7527 1066.5816 5013.1676 963.6329 5026.4257 907.4772 5010.6416 872.5541 5015.5904 817.8036 5003.621 833.0114 5033.1224 811.7819 Z" fill="none" stroke="#FBC20F" opacity="0.6" stroke-width="1" class="city_island"/>
<path d="M 5036.8074 808.0933 5042.515 877.0777 5083.1988 896.2989 5120.3002 959.691 5101.0475 1017.7063 5118.7469 1077.4737 5099.453 1119.852 5066.109 1084.045 5023.4069 996.7324 5010.3726 953.5186 5023.2791 943.3669 5014.837 889.1044 5009.219 856.9176 5009.1796 840.358 5014.6856 825.6254 5036.8074 808.0933 Z" fill="none" stroke="#FBC20F" opacity="0.6" stroke-width="1" class="city_island"/>
<path d="M 5009.2015 849.5577 5007.3063 829.3228 5016.5238 821.9412 5022.9684 813.6462 5027.566 805.3557 5034.0237 802.5804 5046.1914 869.7088 5077.6844 907.3529 5102.6896 934.8928 5090.6123 906.401 5120.2956 957.8509 5088.3675 1119.8793 5014.0869 961.7906 5009.2015 849.5577 Z" fill="none" stroke="#FBC20F" opacity="0.6" stroke-width="1" class="city_island"/>
<path d="M 5032.1856 806.2645 5122.1474 959.6864 5109.5872 1108.7839 5094.8636 1131.8266 5004.8287 952.6117 4998.0909 837.6244 5032.1856 806.2645 Z" fill="none" stroke="#FBC20F" opacity="0.6" stroke-width="1" class="city_island"/>
<path d="M 5008.5779 975.6052 5030.6459 934.1486 5004.6472 876.2484 5020.2244 824.6922 5051.5854 808.9775 5093.349 892.5938 5124.142 1018.569 5118.8388 1114.2823 5112.4112 1129.9425 5106.8296 1114.3122 5096.6702 1115.2576 5074.4814 1107.9503 5027.8928 941.5157 5008.5779 975.6052 Z" fill="none" stroke="#FBC20F" opacity="0.6" stroke-width="1" class="city_island"/>
<path d="M 5006.3719 824.7252 5027.5682 806.2756 5032.1613 796.1453 5045.1099 804.3935 5154.3416 907.1617 5181.557 1075.4744 5113.3809 1148.3454 4946.7829 1014.3953 5010.2609 906.5958 5009.2869 885.4375 5007.4179 876.2418 5000.9443 872.5772 5009.2256 859.6775 4998.1039 843.1442 5006.3719 824.7252 Z" fill="none" stroke="#FBC20F" opacity="0.6" stroke-width="1" class="city_island"/>
<path d="M 5103.0551 1120.3151 5053.7861 1080.0629 5010.1358 1021.0681 4997.4514 833.5353 5036.6695 808.5366 5118.3766 948.0117 5103.0551 1120.3151 Z" fill="none" stroke="#FBC20F" opacity="0.6" stroke-width="1" class="city_island"/>
<path d="M 4892.7315 802.9098 4888.1141 802.9203 5115.237 781.2231 5163.171 1110.4897 4963.6753 1128.4605 4892.7315 802.9098 Z" fill="none" stroke="#FBC20F" opacity="0.6" stroke-width="1" class="city_island"/>
<path d="M 5034.037 808.1 5047.1306 876.1465 5080.4575 908.2661 5093.3717 901.794 5098.9906 933.0618 5121.2146 956.0084 5097.355 1018.6356 5122.4419 1077.4645 5105.9195 1119.8359 5094.8227 1115.2622 5076.3131 1101.5042 5071.6515 1084.0315 5054.0689 1071.1915 5036.407 1025.2255 5029.0174 1025.2432 5027.1568 1019.7268 5033.616 1016.9508 5008.5735 973.765 5008.5188 950.7628 5026.0323 935.9998 5024.1278 912.0829 5022.241 895.5268 5013.0053 895.5489 5009.2891 886.3575 5015.743 881.7421 5008.3217 867.9596 5003.6429 842.2111 5006.3719 824.7252 5022.0273 806.2889 5026.6469 807.1978 5034.037 808.1 Z" fill="none" stroke="#FBC20F" opacity="0.6" stroke-width="1" class="city_island"/>
<path d="M 5009.3014 503.7071 5280.9314 583.0338 5346.6907 995.9026 5091.1934 1141.9585 4839.4106 912.5074 5009.3014 503.7071 Z" fill="none" stroke="#FBC20F" opacity="0.6" stroke-width="1" class="city_island"/>
<path d="M 5015.9682 807.0016 5182.9907 1065.4001 5034.3733 1109.0195 5015.9682 807.0016 Z" fill="none" stroke="#FBC20F" opacity="0.6" stroke-width="1" class="city_island"/>
<path d="M 5034.037 808.1 5044.3377 866.9532 5069.3542 900.013 5091.5245 901.7986 5118.4506 958.7756 5099.166 1003.9089 5115.9871 1082.0816 5100.3677 1116.1687 5077.2369 1101.502 5055.9186 1072.1072 5006.7218 971.9292 5025.1087 936.002 5014.8546 896.4645 5001.7609 827.4961 5034.037 808.1 Z" fill="none" stroke="#FBC20F" opacity="0.6" stroke-width="1" class="city_island"/>
<path d="M 5109.0061 875.0747 5165.1099 1146.3746 4979.3582 1119.2214 5109.0061 875.0747 Z" fill="none" stroke="#FBC20F" opacity="0.6" stroke-width="1" class="city_island"/>
<path d="M 5032.1945 809.9443 5047.1194 871.5465 5070.2756 899.0907 5073.9811 903.6818 5091.5336 905.4787 5098.9632 922.0212 5111.9348 938.5501 5118.4414 955.0952 5118.4713 967.0563 5103.8551 1032.4218 5115.0267 1067.3608 5120.6128 1084.8307 5116.9591 1101.4037 5104.982 1114.3168 5092.9774 1116.187 5071.6853 1097.8347 5070.7345 1086.7944 5070.7143 1078.5126 5067.9295 1072.9982 5054.0555 1065.6704 5047.5582 1052.8035 5041.9647 1031.6532 5039.1692 1021.5382 5030.8272 1009.5964 5026.1824 998.566 5024.3152 990.2894 5021.5222 981.0949 5013.1588 959.9526 5030.6548 937.8288 5027.8398 919.4344 5023.1469 888.1645 5012.9636 878.0686 5007.3982 867.9618 5005.5402 863.3663 5003.6341 838.5312 5003.6123 829.3316 5032.1945 809.9443 Z" fill="none" stroke="#FBC20F" opacity="0.6" stroke-width="1" class="city_island"/>
<path d="M 4991.5481 804.5215 5068.0755 754.6623 5192.732 1110.414 5095.8738 1166.7944 4987.5465 1065.8295 4991.5481 804.5215 Z" fill="none" stroke="#FBC20F" opacity="0.6" stroke-width="1" class="city_island"/>
<path d="M 5008.6304 997.6878 4999.2825 950.7847 5015.8441 924.0634 4993.4907 844.9951 5003.5708 811.8526 5038.6123 790.6102 5060.9861 877.0329 5106.3132 906.3622 5131.4092 969.7843 5102.8903 1015.8615 5134.4552 1079.2747 5105.9424 1129.0384 5059.6853 1101.5448 5020.7284 1035.3848 5008.6304 997.6878 Z" fill="none" stroke="#FBC20F" opacity="0.6" stroke-width="1" class="city_island"/>
<path d="M 5006.6431 938.8063 5001.454 826.989 5019.8558 798.4268 5038.332 801.1422 5050.3796 818.592 5081.0153 883.8362 5139.1736 953.0163 5118.0818 1013.7966 5137.2853 1095.6493 5099.4883 1127.0316 5071.7519 1117.8974 5015.1747 1023.2539 4990.1047 968.1059 5006.6431 938.8063 Z" fill="none" stroke="#FBC20F" opacity="0.6" stroke-width="1" class="city_island"/>
<path d="M 4999.0198 839.9221 5004.0456 817.3711 5026.626 798.4584 5040.4792 798.8851 5075.3484 896.3182 5100.2905 898.5568 5101.7466 927.0746 5130.4301 947.7046 5113.5368 1025.4966 5127.9994 1083.4319 5105.4862 1131.3401 5065.2436 1107.9729 4995.1632 966.436 4999.0198 839.9221 Z" fill="none" stroke="#FBC20F" opacity="0.6" stroke-width="1" class="city_island"/>
<path d="M 4999.0296 844.062 5003.5817 816.4523 5019.2613 808.1354 5027.5549 800.756 5038.6367 800.7294 5048.0251 864.1843 5057.2583 863.2419 5060.9749 872.4329 5052.6741 877.0531 5075.8192 899.9972 5095.2006 894.4293 5095.2188 901.7895 5098.0488 925.7037 5101.7614 933.0549 5113.7774 936.7053 5122.1244 950.4856 5124.0016 962.4421 5113.8783 977.1889 5107.4516 992.8468 5101.0247 1008.505 5101.9803 1021.3846 5105.6979 1030.5769 5116.7961 1036.0703 5119.6155 1055.3869 5122.4396 1076.5443 5105.9127 1117.0752 5102.2403 1126.2868 5094.8363 1120.7836 5087.4437 1119.8816 5080.0331 1111.6177 5070.766 1099.6774 5065.1628 1074.8453 5048.5309 1073.0453 5034.5618 1026.1501 5026.2419 1023.4096 5028.9865 1012.3613 5016.9303 992.1473 5009.5059 977.4432 5005.7916 969.1711 5007.6039 954.4453 5009.4249 943.4 5020.4929 936.9331 5024.1675 928.6438 5023.2108 914.8453 5026.8875 907.4761 5020.396 896.4513 5013.0118 898.309 5009.3022 891.8776 5012.9746 882.6687 5009.2606 874.3974 5002.787 870.7328 5009.2343 863.3575 5001.8242 854.1752 4999.0296 844.062 Z" fill="none" stroke="#FBC20F" opacity="0.6" stroke-width="1" class="city_island"/>
<path d="M 5103.1253 1110.6405 4906.916 949.1589 4875.3934 895.867 4871.5552 831.4759 4860.3259 765.2658 4904.5092 702.6154 4928.4073 654.7304 4952.3285 617.8841 4977.9865 535.0497 5012.959 488.9841 5062.8192 492.5424 5090.7096 571.566 5089.0445 645.1501 5029.9474 643.4544 4996.7862 676.6462 5030.3497 810.8687 5030.4116 836.6273 5061.9051 875.1906 5091.4996 891.6784 5098.9655 922.9412 5119.3673 956.013 5106.5005 981.8078 5108.4805 1035.1708 5115.9114 1051.7154 5103.1253 1110.6405 Z" fill="none" stroke="#FBC20F" opacity="0.6" stroke-width="1" class="city_island"/>
<path d="M 4769.7426 724.988 4798.2034 648.5817 5029.5739 488.0247 5085.9711 521.9145 5098.2254 623.9726 5175.2248 1127.9436 5057.0593 1161.3679 4769.7426 724.988 Z" fill="none" stroke="#FBC20F" opacity="0.6" stroke-width="1" class="city_island"/>
<path d="M 5025.7411 814.5595 5102.8111 1030.4691 5081.7912 1028.2206 5119.2883 1063.0943 5119.8717 1065.5083 5095.5326 1075.4609 5108.2287 1073.2439 5100.3637 1114.5583 5104.7645 1119.7238 5104.0705 1119.2654 5102.8097 1123.0645 5095.2911 1117.9067 5092.5376 1125.1605 5090.9057 1118.9528 5091.7069 1116.0751 5087.5351 1110.1038 5083.9504 1108.0421 5074.5763 1099.553 5103.0304 1118.9228 5068.9803 1077.7116 5067.8259 1077.8295 5066.0922 1077.1435 5054.8945 1078.3211 5053.3901 1076.9444 5050.8498 1076.9506 5033.0737 1079.524 5034.2218 1076.7607 5030.5273 1076.9996 5026.365 1074.7091 5021.7479 1075.4103 5014.3579 1075.428 5019.4407 1076.336 5008.8297 1081.4225 4979.0471 986.7163 5021.4627 956.2524 5099.4029 1099.6069 5025.7411 814.5595 Z" fill="none" stroke="#FBC20F" opacity="0.6" stroke-width="1" class="city_island"/>
<path d="M 5074.4787 729.8099 5293.4692 782.6017 5370.4671 909.3493 5260.0827 1078.0305 5149.44 1160.2185 5034.8298 1137.4945 4999.4613 1026.2339 4983.4013 874.4586 4994.325 807.2748 5074.4787 729.8099 Z" fill="none" stroke="#FBC20F" opacity="0.6" stroke-width="1" class="city_island"/></svg>