<?xml version="1.0"?><svg xmlns="http://www.w3.org/2000/svg" version="1.2" baseProfile="tiny" width="6000" height="5918" viewBox="0 0 6000 5918" stroke-linecap="round" stroke-linejoin="round"><path d="M 1992.1084 4158.5416 2033.75 4239.8183 1895.6703 4217.5434 1992.1084 4158.5416 Z" fill="none" stroke="#12852D" opacity="0.6" stroke-width="1" class="clifton"/>
<path d="M 1950.5622 3974.8111 1740.2681 3936.764 1904.2488 3957.2331 1951.4904 3972.9659 1997.651 4180.7028 1888.1016 4383.7341 1797.2966 4344.8635 1950.5622 3974.8111 Z" fill="none" stroke="#12852D" opacity="0.6" stroke-width="1" class="clifton"/>
<path d="M 1980.2954 4154.6084 1995.8025 4174.4697 1856.1667 4335.6883 1813.3701 4261.7807 1837.52 4209.4098 1861.1567 4206.4322 1980.2954 4154.6084 Z" fill="none" stroke="#12852D" opacity="0.6" stroke-width="1" class="clifton"/>
<path d="M 1980.5272 4154.3796 1992.1178 4147.0037 2006.0006 4170.0946 1992.5397 4197.7799 1961.9253 4232.8374 1932.3071 4186.6502 1977.2832 4154.8385 1980.5272 4154.3796 Z" fill="none" stroke="#12852D" opacity="0.6" stroke-width="1" class="clifton"/>
<path d="M 1481.583 4067.5188 1989.4356 4027.4565 2026.4204 4130.874 2207.9111 4385.8234 2211.5672 4474.4763 1959.135 4788.3327 1451.1137 4654.7466 1255.0552 4329.3794 1481.583 4067.5188 Z" fill="none" stroke="#12852D" opacity="0.6" stroke-width="1" class="clifton"/>
<path d="M 1870.125 4278.4553 1904.8718 4290.9522 1916.4298 4322.3557 1870.125 4278.4553 Z" fill="none" stroke="#12852D" opacity="0.6" stroke-width="1" class="clifton"/>
<path d="M 1938.5537 3932.3434 2145.8101 4374.704 1850.1201 4357.8432 1721.5843 4075.1989 1938.5537 3932.3434 Z" fill="none" stroke="#12852D" opacity="0.6" stroke-width="1" class="clifton"/>
<path d="M 1725.3225 4046.5873 1739.2534 4017.9876 1783.6856 4062.3421 1727.984 4154.5961 1666.8681 4111.1386 1725.3225 4046.5873 Z" fill="none" stroke="#12852D" opacity="0.6" stroke-width="1" class="clifton"/></svg>