<?xml version="1.0"?><svg xmlns="http://www.w3.org/2000/svg" version="1.2" baseProfile="tiny" width="6000" height="5918" viewBox="0 0 6000 5918" stroke-linecap="round" stroke-linejoin="round"><path d="M 4753.3907 415.0802 4748.7714 413.2508 4715.3266 756.378 4633.2176 795.1805 4557.1694 625.1567 4551.572 594.8156 4560.7329 557.0898 4557.9177 533.1834 4576.3131 497.2816 4597.5051 476.0892 4646.359 439.2088 4683.2596 427.1799 4742.2943 405.908 4756.1503 410.4766 4753.3907 415.0802 Z" fill="none" stroke="#A9159C" opacity="0.6" stroke-width="1" class="co_op_city"/>
<path d="M 4255.0569 504.2817 4551.2356 417.3242 4640.351 667.3049 4324.6945 745.1467 4255.0569 504.2817 Z" fill="none" stroke="#A9159C" opacity="0.6" stroke-width="1" class="co_op_city"/>
<path d="M 4237.1787 288.2178 4466.2489 383.4583 4619.4691 378.5716 4662.8956 399.6344 4745.3379 536.4869 4810.2685 677.0694 4770.758 768.2203 4530.7037 790.7784 4207.3805 719.5772 4127.741 562.4138 4083.307 477.8683 4144.9621 343.5251 4237.1787 288.2178 Z" fill="none" stroke="#A9159C" opacity="0.6" stroke-width="1" class="co_op_city"/>
<path d="M 4584.6146 493.587 4566.137 486.2655 4592.0036 495.412 4791.7302 643.9967 4799.5972 866.5932 4557.5734 837.645 4444.5148 618.9258 4584.6146 493.587 Z" fill="none" stroke="#A9159C" opacity="0.6" stroke-width="1" class="co_op_city"/>
<path d="M 4635.2406 651.2186 4673.113 658.9609 4693.9107 669.9562 4699.4734 680.9826 4701.9113 743.9872 4720.3988 753.1478 4629.5255 796.1077 4582.7101 702.8309 4552.5363 616.4278 4554.2746 559.4014 4556.5548 544.682 4568.4837 506.493 4591.141 526.6819 4612.3721 525.261 4660.3353 503.5539 4670.9538 504.4521 4674.212 517.7805 4654.4425 557.3665 4654.5513 611.63 4636.1411 639.7195 4635.2406 651.2186 Z" fill="none" stroke="#A9159C" opacity="0.6" stroke-width="1" class="co_op_city"/>
<path d="M 4608.9151 776.1198 4551.4065 641.9332 4543.8707 562.8497 4547.1532 345.8185 4752.1202 371.1547 4808.1335 661.6471 4608.9151 776.1198 Z" fill="none" stroke="#A9159C" opacity="0.6" stroke-width="1" class="co_op_city"/>
<path d="M 4545.0535 565.3969 4677.7788 455.6982 4747.9257 450.0357 4615.5633 740.0212 4545.0535 565.3969 Z" fill="none" stroke="#A9159C" opacity="0.6" stroke-width="1" class="co_op_city"/>
<path d="M 4631.7593 758.272 4631.8736 757.6968 4630.7172 756.6642 4637.5086 747.1069 4638.2032 748.1404 4646.5567 769.5113 4637.9065 773.0931 4635.9346 768.2676 4631.7593 758.272 Z" fill="none" stroke="#A9159C" opacity="0.6" stroke-width="1" class="co_op_city"/>
<path d="M 4638.9887 446.5802 4697.1062 427.1517 4659.5545 574.3708 4661.5361 641.5083 4686.507 661.6931 4616.5409 767.6159 4601.7407 754.7663 4547.8963 604.0199 4559.7239 512.0277 4638.9887 446.5802 Z" fill="none" stroke="#A9159C" opacity="0.6" stroke-width="1" class="co_op_city"/>
<path d="M 4599.8616 738.2121 4566.4851 668.3688 4557.1607 620.5579 4547.8163 561.7129 4556.9368 502.8365 4593.7893 464.1414 4647.273 434.6091 4691.6014 443.7154 4686.1564 489.707 4665.9431 537.5701 4647.5706 583.592 4647.6698 633.2582 4686.5276 671.8109 4688.5432 754.5932 4638.7365 784.1304 4590.542 694.0774 4599.8616 738.2121 Z" fill="none" stroke="#A9159C" opacity="0.6" stroke-width="1" class="co_op_city"/>
<path d="M 4638.9065 637.4146 4647.1962 627.2806 4653.8708 617.6098 4655.6966 607.2589 4656.8253 594.6102 4656.1034 579.896 4655.6039 561.043 4661.358 552.984 4665.9463 539.1795 4668.2428 533.4269 4670.3126 529.744 4675.6112 524.905 4638.9065 637.4146 Z" fill="none" stroke="#A9159C" opacity="0.6" stroke-width="1" class="co_op_city"/>
<path d="M 4635.2406 651.2186 4632.0117 652.6047 4602.925 651.7421 4577.0947 663.7494 4571.5406 656.4017 4559.4785 625.6122 4553.4073 588.8339 4551.4953 554.3483 4564.3618 523.5146 4574.9486 507.8601 4584.6688 521.6363 4603.6034 526.1978 4630.3582 516.9486 4655.2597 504.4837 4669.1065 503.996 4673.2702 508.5858 4674.2213 522.3788 4664.561 538.9524 4655.3648 556.9048 4653.5801 587.7187 4653.1654 611.1729 4648.5774 625.4383 4638.4458 637.8754 4635.2406 651.2186 Z" fill="none" stroke="#A9159C" opacity="0.6" stroke-width="1" class="co_op_city"/>
<path d="M 4637.291 753.7765 4589.2512 742.8321 4568.015 502.8154 4676.4873 501.6819 4698.0799 676.8463 4637.291 753.7765 Z" fill="none" stroke="#A9159C" opacity="0.6" stroke-width="1" class="co_op_city"/>
<path d="M 4584.272 495.427 4597.1025 506.4378 4666.7487 479.2856 4693.036 468.0818 4661.2146 596.4409 4663.3901 645.1837 4699.4772 682.8222 4707.941 757.3131 4660.8866 777.6467 4655.2979 753.7406 4641.4373 749.1688 4642.335 736.2888 4606.3453 748.3182 4552.5476 622.4062 4542.2942 570.9204 4545.0171 546.0834 4584.272 495.427 Z" fill="none" stroke="#A9159C" opacity="0.6" stroke-width="1" class="co_op_city"/>
<path d="M 4745.7854 417.3482 4707.9964 756.4308 4626.0864 793.2737 4543.9063 570.016 4576.9984 494.5397 4745.7854 417.3482 Z" fill="none" stroke="#A9159C" opacity="0.6" stroke-width="1" class="co_op_city"/>
<path d="M 4400.5531 292.5456 4522.9455 97.4238 5144.8549 76.7538 5253.5273 694.3999 4473.1904 648.307 4400.5531 292.5456 Z" fill="none" stroke="#A9159C" opacity="0.6" stroke-width="1" class="co_op_city"/>
<path d="M 4579.7079 500.3209 4672.028 501.0583 4645.5236 635.3889 4565.2216 649.3424 4547.5235 567.5186 4579.7079 500.3209 Z" fill="none" stroke="#A9159C" opacity="0.6" stroke-width="1" class="co_op_city"/>
<path d="M 4691.6273 426.3716 4656.1915 612.1956 4693.2692 676.5252 4697.7837 758.2272 4626.1296 798.7466 4586.2602 690.3523 4550.2629 602.0336 4553.4197 548.1717 4579.1745 498.4606 4604.9382 471.4782 4640.2829 449.6955 4691.6273 426.3716 Z" fill="none" stroke="#A9159C" opacity="0.6" stroke-width="1" class="co_op_city"/>
<path d="M 4576.7902 505.3276 4689.175 498.6673 4689.4072 499.3565 4705.8694 760.307 4704.7189 762.1492 4621.4451 796.1236 4549.0191 587.4626 4575.1741 505.1007 4576.7902 505.3276 Z" fill="none" stroke="#A9159C" opacity="0.6" stroke-width="1" class="co_op_city"/>
<path d="M 4204.2522 485.0483 4307.6438 483.0455 4386.8968 401.989 4428.7181 561.9306 4259.8712 629.3541 4185.8457 522.7817 4204.2522 485.0483 Z" fill="none" stroke="#A9159C" opacity="0.6" stroke-width="1" class="co_op_city"/>
<path d="M 4572.0265 510.1649 4672.9608 506.2873 4674.2011 512.4189 4618.6849 759.0291 4543.821 562.9528 4572.0265 510.1649 Z" fill="none" stroke="#A9159C" opacity="0.6" stroke-width="1" class="co_op_city"/>
<path d="M 4677.8646 498.0006 4708.8568 753.6317 4624.001 804.398 4549.7656 615.9731 4548.6873 534.1206 4574.4826 505.5619 4592.0588 523.9211 4677.8646 498.0006 Z" fill="none" stroke="#A9159C" opacity="0.6" stroke-width="1" class="co_op_city"/>
<path d="M 4610.9876 761.1875 4566.1634 500.06 4735.8153 397.6456 4706.9474 723.2798 4610.9876 761.1875 Z" fill="none" stroke="#A9159C" opacity="0.6" stroke-width="1" class="co_op_city"/>
<path d="M 4631.3725 796.104 4584.0837 696.8493 4562.6899 615.0288 4558.8322 528.5833 4618.7034 458.5751 4695.2619 428.075 4686.2089 515.4569 4666.9461 577.1151 4672.6159 641.486 4706.8754 688.3259 4718.0969 756.3722 4631.3725 796.104 Z" fill="none" stroke="#A9159C" opacity="0.6" stroke-width="1" class="co_op_city"/>
<path d="M 4706.0932 756.857 4675.6562 774.8572 4669.1577 757.8522 4653.4704 763.4031 4638.2044 748.7153 4672.7137 689.7754 4646.7905 655.3347 4618.6243 653.091 4594.1649 657.7378 4578.9405 663.286 4558.9941 613.6562 4554.293 569.0582 4556.0836 539.6246 4562.9682 518.9189 4574.4853 506.9414 4585.5955 523.4738 4594.832 525.7551 4611.448 524.803 4637.2767 514.1759 4661.721 504.0109 4674.654 508.1232 4672.8374 522.8414 4659.4972 545.8602 4653.5524 573.923 4655.9104 598.7509 4649.967 627.7349 4642.5998 637.4072 4660.5897 630.0131 4664.3172 647.0214 4689.75 667.2053 4699.9549 690.6397 4701.3929 716.3923 4705.6267 754.5582 4706.0932 756.857 Z" fill="none" stroke="#A9159C" opacity="0.6" stroke-width="1" class="co_op_city"/>
<path d="M 4566.4833 667.449 4549.6785 569.9867 4555.1778 548.8232 4565.2455 502.8206 4674.1738 498.9277 4665.969 550.4456 4655.8559 571.6191 4660.5129 591.8436 4656.9121 637.8385 4702.2416 680.0571 4671.9736 780.3841 4609.2109 797.0676 4566.4833 667.449 Z" fill="none" stroke="#A9159C" opacity="0.6" stroke-width="1" class="co_op_city"/>
<path d="M 4663.5637 502.1679 4680.4174 504.8927 4656.6448 619.6737 4698.9782 664.657 4700.0951 758.9391 4625.1404 796.8063 4575.0137 661.9138 4558.3209 623.7748 4551.3478 598.265 4552.8771 552.7362 4567.5724 512.7024 4574.9478 507.4003 4601.5275 526.8916 4663.5637 502.1679 Z" fill="none" stroke="#A9159C" opacity="0.6" stroke-width="1" class="co_op_city"/>
<path d="M 4545.9142 532.2865 4518.2315 539.6958 4497.9308 545.2514 4453.4051 427.6198 4471.834 409.1953 4468.0984 385.294 4414.5185 361.4818 4399.6509 304.5 4349.8218 311.9408 4346.0928 289.8803 4370.015 245.7078 4571.1049 188.343 4580.3868 215.9058 4560.104 226.9771 4582.4384 322.5544 4578.8277 364.8579 4610.233 375.8311 4687.7738 377.5152 4695.2939 443.7078 4628.8543 456.7159 4579.0791 495.437 4545.9142 532.2865 Z" fill="none" stroke="#A9159C" opacity="0.6" stroke-width="1" class="co_op_city"/>
<path d="M 4595.9267 614.0451 4522.1216 645.4577 4507.2804 608.6946 4503.5007 561.7956 4509.9208 538.7915 4521.8387 493.7062 4525.4627 456.9147 4544.8173 440.3257 4561.4073 426.5005 4603.8649 423.6599 4649.0916 420.8119 4682.3215 419.8253 4709.1162 431.7248 4725.7935 461.1172 4727.7336 506.1748 4731.4973 540.1946 4722.3912 600.9145 4717.872 647.8318 4683.7894 687.4534 4648.7328 703.1612 4612.7462 716.1103 4571.1617 699.6337 4538.8383 696.9356 4507.4062 676.7581 4492.5887 652.8705 4495.3485 647.3468 4595.9267 614.0451 Z" fill="none" stroke="#A9159C" opacity="0.6" stroke-width="1" class="co_op_city"/>
<path d="M 4576.5005 534.7573 4575.2269 532.5755 4577.6495 532.111 4578.2293 533.6044 4576.5005 534.7573 Z" fill="none" stroke="#A9159C" opacity="0.6" stroke-width="1" class="co_op_city"/>
<path d="M 4574.6801 509.5721 4583.5622 517.3808 4589.7667 524.5806 4599.9282 527.7797 4610.5437 527.0692 4620.9217 522.9103 4629.9041 517.9113 4642.5009 513.4953 4650.6578 509.3261 4663.1139 505.8524 4672.1155 506.0642 4674.4458 517.0953 4672.3919 528.5953 4665.9258 539.2943 4659.0331 554.9429 4654.7107 567.8274 4654.4466 585.0659 4655.8661 602.308 4653.5419 618.4302 4646.1849 633.1611 4641.849 637.7983 4637.487 649.7641 4653.4945 654.3539 4671.2766 658.2272 4683.9879 665.7898 4695.0907 676.8048 4702.4589 692.5692 4702.0365 711.6567 4701.3907 734.4246 4707.6498 747.06 4708.8964 754.3486 4698.522 761.2692 4683.7648 770.0384 4671.0762 774.4337 4662.8374 780.0896 4642.7688 788.409 4630.3129 793.9533 4624.8032 787.6107 4624.0893 776.8031 4626.1116 766.1411 4631.4226 748.8677 4638.3263 737.8154 4648.9148 722.3866 4650.458 717.2985 4645.3605 707.8803 4628.9518 698.4845 4611.1534 686.5618 4606.3948 685.7568 4591.6259 688.3151 4583.5323 680.9721 4578.772 669.0465 4570.187 646.0681 4560.5945 628.3394 4554.5524 606.9666 4551.7012 589.5478 4554.1848 560.3421 4557.3827 547.5923 4565.4205 526.4244 4570.2445 514.4596 4574.6801 509.5721 Z" fill="none" stroke="#A9159C" opacity="0.6" stroke-width="1" class="co_op_city"/>
<path d="M 4599.4713 537.7018 4693.2609 690.8834 4705.3925 752.9489 4630.1958 784.8373 4586.8187 678.6775 4567.0839 619.3893 4558.6863 573.1886 4572.6601 517.9807 4666.8097 509.5185 4692.1077 691.3457 4646.6959 607.9667 4646.7005 610.2661 4617.4011 735.4182 4599.4713 537.7018 Z" fill="none" stroke="#A9159C" opacity="0.6" stroke-width="1" class="co_op_city"/></svg>