<?xml version="1.0"?><svg xmlns="http://www.w3.org/2000/svg" version="1.2" baseProfile="tiny" width="6000" height="5918" viewBox="0 0 6000 5918" stroke-linecap="round" stroke-linejoin="round"><path d="M 4627.6211 1702.6739 4677.8351 1849.914 4633.6814 1962.365 4554.3007 2034.3641 4425.0035 2124.8751 4337.8721 2003.4317 4285.8184 1834.0502 4339.2421 1716.0904 4464.8972 1682.7235 4568.4444 1693.5808 4627.6211 1702.6739 Z" fill="none" stroke="#E71E24" opacity="0.6" stroke-width="1" class="college_point"/>
<path d="M 4503.5702 2103.546 4445.3534 2127.6028 4392.1034 2083.9392 4376.0873 1910.8014 4319.657 1891.5551 4288.5621 1815.6273 4336.0789 1759.3752 4398.8259 1693.8898 4480.1287 1671.6466 4540.7572 1716.6536 4613.4639 1789.722 4602.9619 1856.049 4578.7394 2000.2363 4503.5702 2103.546 Z" fill="none" stroke="#E71E24" opacity="0.6" stroke-width="1" class="college_point"/>
<path d="M 4582.5087 1796.9191 4589.7863 1855.3838 4651.2611 1852.7304 4643.4872 1895.1106 4613.1136 1964.9384 4589.8565 2011.2681 4558.471 2039.1921 4527.5381 2062.9698 4494.5754 2115.3078 4442.8107 2127.8376 4413.4317 2117.9863 4400.9226 2103.7294 4392.787 2078.1807 4384.6138 2030.5254 4391.0033 1982.1566 4387.3772 1889.8294 4322.4322 1892.4715 4320.3285 1878.1998 4293.501 1868.3431 4289.7705 1848.3184 4283.2986 1848.0986 4283.5172 1840.2702 4293.426 1822.0658 4324.3736 1808.4317 4333.0956 1772.0421 4352.2619 1762.8013 4341.1401 1745.5539 4340.4072 1721.8436 4353.1081 1716.2974 4392.1927 1733.4963 4392.8331 1702.8779 4422.6235 1691.3161 4442.533 1711.5386 4459.1696 1710.3579 4459.8493 1702.76 4468.1627 1699.5222 4479.2253 1683.158 4501.864 1678.9731 4527.8822 1752.13 4519.1157 1760.434 4520.0816 1782.7634 4552.2281 1794.4444 4556.1719 1802.2646 4582.5087 1796.9191 Z" fill="none" stroke="#E71E24" opacity="0.6" stroke-width="1" class="college_point"/>
<path d="M 4353.5691 1715.606 4389.1884 1733.5015 4395.4232 1730.7283 4393.2961 1703.3375 4421.4709 1692.9295 4442.9911 1709.2357 4456.1584 1706.4498 4467.7042 1701.5948 4479.5717 1683.0423 4499.0853 1675.8706 4519.9322 1702.4199 4531.1133 1749.8218 4521.4653 1781.1493 4532.1515 1810.598 4549.7216 1813.3277 4546.5268 1834.9755 4538.2263 1845.5819 4531.7565 1846.515 4501.3445 1899.0668 4500.0813 1966.3043 4442.2992 1970.093 4430.9966 1983.6988 4430.1008 2000.0497 4416.9249 2000.3031 4392.4168 1997.5824 4382.5956 1931.9737 4386.4479 1887.068 4323.5799 1887.6344 4295.3497 1868.1099 4283.7576 1846.0257 4292.2701 1821.8375 4304.2939 1825.2714 4318.3729 1813.5066 4351.1807 1807.0057 4331.5248 1800.362 4334.4868 1774.8024 4352.723 1762.1099 4341.6023 1745.5532 4339.2525 1722.306 4353.5691 1715.606 Z" fill="none" stroke="#E71E24" opacity="0.6" stroke-width="1" class="college_point"/>
<path d="M 4291.3981 1854.3019 4501.8403 1666.0822 4668.4341 1772.5764 4524.8962 2133.9064 4339.9212 2123.1784 4291.3981 1854.3019 Z" fill="none" stroke="#E71E24" opacity="0.6" stroke-width="1" class="college_point"/>
<path d="M 4583.4447 1802.9031 4590.4779 1854.4616 4618.6741 1853.7159 4620.7927 1873.2822 4621.5318 1896.5356 4641.1799 1897.1874 4606.9215 1990.0497 4582.481 2022.5659 4524.3192 2072.4177 4419.1256 2068.9232 4393.6763 2057.6833 4383.4722 2038.8175 4388.6489 1957.2919 4281.2344 1858.0021 4280.2759 1836.8219 4343.8594 1713.3203 4448.2459 1675.3871 4486.1133 1658.7449 4583.4447 1802.9031 Z" fill="none" stroke="#E71E24" opacity="0.6" stroke-width="1" class="college_point"/>
<path d="M 4293.7347 1869.9545 4290.4885 1863.513 4295.1066 1860.7426 4289.0772 1848.3195 4280.7559 1847.8724 4283.5109 1836.3562 4289.0549 1834.5054 4286.2725 1828.9843 4292.7297 1820.2251 4304.7554 1824.8102 4316.757 1814.6604 4317.2124 1810.5156 4341.247 1809.5548 4352.3297 1803.0899 4335.6895 1803.1177 4329.6705 1797.1419 4331.9457 1775.4973 4351.3364 1762.1123 4339.7542 1746.0167 4339.7143 1722.075 4352.1833 1716.0688 4391.96 1732.5759 4397.0505 1736.2505 4391.474 1718.7643 4395.1659 1715.5351 4391.9108 1704.0305 4408.534 1695.2541 4424.2432 1692.4642 4439.989 1710.3921 4457.0848 1707.5992 4455.6892 1702.5372 4466.3135 1699.2953 4474.1856 1707.5683 4476.0168 1697.8966 4472.7715 1692.3776 4480.1488 1682.6959 4499.0868 1676.6762 4506.4916 1682.1873 4526.9328 1738.7794 4526.0402 1755.8168 4517.7291 1760.4366 4521.0087 1784.143 4536.9561 1784.5736 4538.8145 1789.635 4552.686 1792.1413 4550.6426 1811.4841 4556.1972 1815.6177 4557.6417 1846.0057 4571.9873 1854.2669 4590.9415 1855.1514 4631.1568 1854.6122 4656.5586 1843.5103 4648.341 1895.1009 4607.3865 1991.4305 4596.3229 2008.0317 4556.1693 2044.493 4528.4714 2067.5739 4498.9414 2100.7909 4486.4816 2114.1711 4445.815 2127.1413 4438.4168 2127.1545 4423.6074 2119.8109 4404.1697 2109.7116 4393.496 2087.1609 4392.0843 2072.8852 4396.696 2065.9685 4394.8378 2060.9054 4386.0617 2065.9868 4381.8808 2054.4796 4386.9627 2052.168 4392.5197 2057.2248 4397.1392 2054.9139 4393.4309 2049.3934 4384.157 2033.7501 4393.3665 2012.088 4390.1096 2000.1193 4391.4704 1984.9191 4388.6877 1979.8579 4389.5561 1947.1589 4382.1443 1938.4217 4381.6552 1922.7651 4383.0326 1917.2366 4380.7015 1905.728 4380.6865 1896.9786 4388.0694 1889.1375 4381.1314 1886.8469 4347.848 1886.9033 4345.082 1891.5129 4321.5084 1892.9335 4321.0218 1878.1986 4293.7347 1869.9545 Z" fill="none" stroke="#E71E24" opacity="0.6" stroke-width="1" class="college_point"/>
<path d="M 4316.143 1837.6588 4416.7307 1704.4625 4519.2317 1768.1193 4528.9826 1897.7307 4504.2839 1973.4071 4552.9117 2050.8716 4491.051 2102.5722 4423.5392 2099.9296 4316.143 1837.6588 Z" fill="none" stroke="#E71E24" opacity="0.6" stroke-width="1" class="college_point"/>
<path d="M 4292.1348 1738.2678 4376.1667 1686.5624 4505.5121 1652.264 4578.6477 1711.9774 4581.6955 1854.7087 4620.6716 1929.2331 4583.9261 2052.7302 4586.8051 2107.0738 4503.6092 2124.7336 4433.3899 2160.7884 4362.1079 2118.5351 4322.3429 2118.6015 4257.1156 1806.4684 4292.1348 1738.2678 Z" fill="none" stroke="#E71E24" opacity="0.6" stroke-width="1" class="college_point"/>
<path d="M 4402.0771 1703.0921 4519.4983 1717.6142 4504.5001 2106.3078 4473.9248 2074.1223 4421.2026 2066.847 4384.1475 2028.2234 4387.5992 1884.5334 4314.5486 1877.2883 4311.6739 1815.5897 4402.0771 1703.0921 Z" fill="none" stroke="#E71E24" opacity="0.6" stroke-width="1" class="college_point"/>
<path d="M 4542.5256 1844.2993 4546.1888 1825.8737 4550.0341 1799.6885 4543.7352 1856.2832 4545.6885 1911.5384 4553.2438 1995.3396 4571.5393 2043.363 4529.0912 2090.4224 4490.2959 2114.4451 4423.7274 2122.8553 4391.2716 2071.3253 4391.151 2001.3196 4380.8473 1923.9685 4381.5841 1894.2224 4351.0818 1898.8791 4326.1036 1889.7109 4296.4645 1856.6044 4290.8727 1828.9853 4342.6115 1809.5609 4343.2617 1758.878 4354.2694 1708.2135 4418.9411 1688.7656 4491.4966 1685.5279 4534.2839 1684.2038 4565.7695 1714.5307 4542.5256 1844.2993 Z" fill="none" stroke="#E71E24" opacity="0.6" stroke-width="1" class="college_point"/>
<path d="M 4349.4419 1734.9503 4500.0289 1686.3428 4647.9709 1825.4541 4467.9799 1982.4814 4390.3062 1980.0854 4328.4273 1883.7122 4285.8106 1829.2153 4346.2092 1736.5672 4347.3644 1736.3351 4349.4419 1734.9503 Z" fill="none" stroke="#E71E24" opacity="0.6" stroke-width="1" class="college_point"/>
<path d="M 4551.1039 1811.0228 4653.7611 1831.5437 4650.3796 1989.9639 4385.1204 2056.3163 4381.3025 1986.7787 4358.1368 1957.3439 4311.9003 1953.7366 4272.8638 1826.7035 4306.9711 1766.3297 4362.2813 1674.6158 4523.116 1674.7902 4551.1039 1811.0228 Z" fill="none" stroke="#E71E24" opacity="0.6" stroke-width="1" class="college_point"/>
<path d="M 4658.3485 1814.0369 4655.6143 1833.6121 4649.4172 1855.2667 4645.9796 1870.0089 4637.7293 1905.4833 4618.1556 1942.8233 4607.5731 1968.6335 4590.5393 2005.7401 4567.234 2027.8916 4543.9188 2045.4373 4526.8429 2062.05 4514.1486 2073.1275 4497.4993 2070.8553 4472.9925 2069.9788 4452.8758 2067.7121 4422.1261 2066.1545 4401.5404 2059.9726 4389.4898 2042.9523 4383.4572 2030.0668 4391.9759 2010.0179 4391.4668 1982.8466 4390.2507 1947.8484 4384.8896 1921.8385 4388.5317 1889.1367 4348.5444 1888.7441 4321.5073 1892.2428 4297.2036 1871.1 4280.983 1845.3394 4292.9642 1822.2968 4315.8314 1813.9712 4350.2508 1803.7841 4328.5203 1800.3669 4329.1747 1776.8832 4350.6458 1763.7249 4339.9408 1719.3121 4356.3368 1712.3785 4391.0241 1725.9015 4390.9939 1708.406 4417.3065 1690.1744 4438.5857 1700.9563 4455.931 1708.522 4473.7122 1701.3537 4482.455 1680.1596 4507.1734 1675.9708 4530.8486 1731.8658 4532.0545 1758.7984 4532.3218 1778.1361 4550.1333 1786.6208 4573.958 1797.1657 4587.1297 1796.2195 4622.0218 1793.1585 4633.5761 1792.4451 4648.5961 1791.2641 4658.3485 1814.0369 Z" fill="none" stroke="#E71E24" opacity="0.6" stroke-width="1" class="college_point"/>
<path d="M 4514.6246 2080.496 4507.2573 2097.0908 4403.4411 1956.3453 4275.6844 1856.1691 4366.0396 1710.5205 4444.5944 1701.1758 4507.4219 1685.4083 4576.0442 1800.3849 4604.0847 1957.8178 4604.1242 1978.0812 4514.6246 2080.496 Z" fill="none" stroke="#E71E24" opacity="0.6" stroke-width="1" class="college_point"/>
<path d="M 4476.0327 1706.6442 4484.2815 1667.9559 4631.2675 1676.8845 4676.7539 1772.5596 4626.279 1959.6164 4502.6506 2106.3113 4437.0337 2129.46 4387.0355 2094.5415 4279.3514 1836.8234 4340.1619 1713.3264 4476.0327 1706.6442 Z" fill="none" stroke="#E71E24" opacity="0.6" stroke-width="1" class="college_point"/>
<path d="M 4289.0537 1833.8147 4286.3875 1828.6388 4291.3475 1822.9901 4318.1664 1828.4719 4318.1452 1815.579 4342.0245 1721.6107 4413.1566 1695.7064 4488.93 1682.6799 4525.5514 1741.5445 4521.7016 1783.9115 4538.8046 1784.3399 4539.0452 1789.4044 4552.9167 1791.9107 4527.8248 1845.1409 4642.7956 1896.033 4503.6538 1897.9113 4499.8548 1968.8376 4469.6007 1983.9753 4401.9809 1980.7561 4389.6132 1980.3169 4390.7142 1948.5384 4386.3178 1945.898 4385.6139 1939.7973 4383.1853 1938.8804 4382.4812 1932.6647 4385.1384 1932.0845 4383.632 1929.7845 4370.4623 1933.1457 4369.3029 1930.9603 4382.01 1927.4847 4382.2352 1924.0305 4384.0806 1921.8399 4384.4125 1913.2048 4382.7926 1912.0564 4381.0476 1905.3821 4382.1903 1897.7819 4384.2695 1897.2027 4387.6064 1888.6778 4347.1561 1887.8255 4345.5449 1891.8575 4322.2024 1893.2778 4321.1389 1879.1194 4308.4215 1876.032 4293.9655 1869.7238 4292.5696 1864.0852 4294.7586 1859.9373 4288.9618 1848.4348 4283.299 1848.3288 4281.4385 1841.1945 4285.4747 1835.8926 4289.0537 1833.8147 Z" fill="none" stroke="#E71E24" opacity="0.6" stroke-width="1" class="college_point"/>
<path d="M 4492.5018 2119.2267 4447.2095 2131.2843 4409.2727 2119.3754 4393.4976 2088.0821 4385.1196 2055.8558 4387.8557 2033.7438 4393.3657 2011.6275 4388.7218 1999.6612 4388.6363 1949.9236 4360.8359 1913.1299 4354.3546 1907.6148 4360.8141 1900.2359 4373.8049 1927.8441 4382.0915 1907.5676 4384.8319 1888.222 4360.7892 1885.5001 4349.7071 1892.8866 4324.7504 1896.6122 4323.7939 1877.2731 4294.194 1868.1118 4289.5521 1856.1468 4281.2241 1851.5555 4284.888 1830.3679 4291.3385 1817.4646 4309.837 1822.96 4314.4413 1811.9015 4332.9306 1811.8709 4348.6342 1804.4775 4329.2098 1798.0635 4325.4785 1777.8102 4350.4027 1756.5887 4338.3531 1737.271 4342.026 1722.5315 4349.4071 1714.2318 4390.1064 1729.8166 4390.0826 1716.0043 4393.7499 1698.5025 4422.3937 1692.0071 4435.3655 1709.4795 4452.0008 1707.6083 4451.06 1698.4019 4463.9977 1696.5371 4471.4092 1705.7317 4473.2379 1694.6788 4483.3689 1674.403 4507.4066 1677.1213 4530.6356 1741.535 4522.3537 1761.8093 4517.7812 1788.5232 4537.1859 1783.8825 4556.6236 1796.7383 4574.19 1797.6257 4577.9462 1828.0087 4653.7482 1825.0972 4639.0974 1896.0403 4592.1539 2003.8948 4561.6929 2031.5867 4533.999 2056.5097 4492.5018 2119.2267 Z" fill="none" stroke="#E71E24" opacity="0.6" stroke-width="1" class="college_point"/>
<path d="M 4500.801 2106.3147 4413.9158 2130.4218 4371.1252 1983.1117 4293.2561 1859.8246 4307.8556 1741.9256 4337.3719 1703.2022 4398.3829 1704.9402 4387.1006 1594.469 4389.2756 1784.1487 4391.0007 1712.3194 4455.6801 1697.4728 4524.0584 1684.4567 4516.8106 1763.6613 4563.0492 1772.7831 4614.6836 1704.541 4640.4926 1667.6584 4675.7325 1724.6773 4674.0738 1818.6099 4611.6023 2019.5158 4500.801 2106.3147 Z" fill="none" stroke="#E71E24" opacity="0.6" stroke-width="1" class="college_point"/>
<path d="M 4590.7128 1855.2278 4426.4398 2017.4788 4290.5391 1841.9465 4499.1769 1680.4375 4515.0898 1789.0646 4582.2929 1802.4449 4589.785 1853.5419 4590.7128 1855.2278 Z" fill="none" stroke="#E71E24" opacity="0.6" stroke-width="1" class="college_point"/>
<path d="M 4526.9844 1766.405 4561.1267 1734.1108 4616.5034 1689.8046 4649.8793 1739.4627 4649.9749 1787.3476 4646.4056 1851.8191 4624.3336 1910.8056 4561.5579 1960.6629 4552.3536 1982.786 4508.9264 1999.4468 4483.0429 2003.1786 4415.5303 1995.9303 4475.7692 2071.3555 4492.5086 2122.9116 4437.0353 2130.3812 4397.2157 2099.1299 4385.9194 1983.0865 4387.6737 1927.8204 4371.9323 1914.0321 4344.1675 1897.5009 4308.0754 1876.3779 4284.0183 1864.4443 4281.1767 1822.0856 4294.1358 1832.1949 4314.4382 1810.0597 4333.8719 1821.9995 4323.6753 1805.4399 4331.0251 1777.801 4332.8434 1759.3806 4330.9564 1736.3625 4346.6479 1722.5238 4361.4318 1718.8156 4380.8704 1734.4366 4387.3111 1716.9298 4390.9737 1696.6657 4423.3245 1695.6886 4434.4395 1708.5603 4462.1688 1707.59 4477.8513 1690.0664 4495.4088 1687.272 4505.5851 1691.8573 4521.3522 1720.3732 4526.9844 1766.405 Z" fill="none" stroke="#E71E24" opacity="0.6" stroke-width="1" class="college_point"/>
<path d="M 4616.4501 1713.9712 4634.2698 1687.66 4650.0849 1738.2735 4650.8604 1806.7233 4625.1352 1887.8177 4611.395 1953.237 4575.1655 2019.4832 4537.9904 2048.8226 4493.7044 2103.2536 4470.0575 2120.185 4388.6903 2091.5254 4378.2041 1966.2708 4349.8407 1876.6697 4296.1866 1857.418 4290.5859 1824.2732 4357.6724 1728.1545 4434.3393 1695.7935 4514.741 1686.4399 4616.4501 1713.9712 Z" fill="none" stroke="#E71E24" opacity="0.6" stroke-width="1" class="college_point"/>
<path d="M 4690.5052 1792.2256 4455.1579 2152.3958 4447.8327 2142.6124 4396.4466 2037.2246 4252.2746 1822.0275 4384.3173 1662.6561 4541.98 1652.2817 4675.9088 1791.6586 4690.5052 1792.2256 Z" fill="none" stroke="#E71E24" opacity="0.6" stroke-width="1" class="college_point"/>
<path d="M 4582.7536 1804.0556 4590.9395 1854.1153 4528.5405 1857.1119 4528.6128 1895.7928 4505.9733 1902.2818 4502.3496 1942.8133 4553.8183 2023.7721 4432.6794 2020.3094 4395.6471 1994.1227 4383.9145 1892.3681 4292.8005 1863.9697 4295.9631 1818.8385 4333.7877 1771.3503 4357.2612 1712.3769 4420.0844 1692.9319 4499.0851 1675.7555 4582.7536 1804.0556 Z" fill="none" stroke="#E71E24" opacity="0.6" stroke-width="1" class="college_point"/>
<path d="M 4546.479 1809.6502 4548.4115 1853.8513 4563.3352 1922.8969 4570.9309 2026.9634 4503.5872 2112.7579 4423.1491 2122.1147 4374.951 2057.7155 4371.926 1910.348 4366.3614 1900.2265 4271.0442 1845.1251 4330.032 1736.364 4330.0381 1740.0473 4375.2408 1685.6432 4478.7372 1668.8868 4530.5202 1679.8407 4546.479 1809.6502 Z" fill="none" stroke="#E71E24" opacity="0.6" stroke-width="1" class="college_point"/>
<path d="M 4503.7296 1688.1775 4532.6769 1735.7096 4516.1232 1781.7835 4564.208 1789.0602 4586.3414 1761.3914 4623.7574 1704.6631 4654.2079 1752.6719 4651.8348 1792.8692 4637.1642 1853.6794 4618.8405 1938.447 4580.1316 2002.9969 4515.5186 2063.9133 4454.5863 2119.2954 4406.492 2115.6954 4380.4315 2018.0975 4343.3153 1940.79 4285.8689 1865.3623 4283.8746 1775.1154 4503.7296 1688.1775 Z" fill="none" stroke="#E71E24" opacity="0.6" stroke-width="1" class="college_point"/>
<path d="M 4658.3004 1790.0936 4660.5118 1970.6011 4629.2929 2081.1976 4497.124 2118.2971 4386.1646 2125.8638 4255.2492 1795.4205 4379.8295 1666.2989 4544.3453 1658.6369 4586.2185 1803.128 4658.3004 1790.0936 Z" fill="none" stroke="#E71E24" opacity="0.6" stroke-width="1" class="college_point"/>
<path d="M 4161.6888 1666.647 4418.6963 1692.0136 4474.1973 1714.014 4529.7939 1785.7382 4524.3468 1839.1613 4517.0363 1885.2229 4513.4132 1925.7538 4506.1321 1988.3989 4506.2069 2028.9273 4448.857 2017.9779 4411.8349 1997.779 4382.1704 1953.6189 4400.5731 1902.0098 4369.0975 1878.1181 4332.1101 1874.4964 4295.0842 1846.9283 4306.103 1800.8643 4333.8459 1806.344 4324.513 1752.9484 4344.7945 1719.7644 4154.3213 1685.0735 4161.6888 1666.647 Z" fill="none" stroke="#E71E24" opacity="0.6" stroke-width="1" class="college_point"/>
<path d="M 4295.0618 1833.1143 4401.1544 1704.0146 4554.8044 1812.3972 4473.9031 2062.1473 4295.0618 1833.1143 Z" fill="none" stroke="#E71E24" opacity="0.6" stroke-width="1" class="college_point"/>
<path d="M 4493.5517 1682.6715 4630.3505 1680.5694 4679.5272 1772.5539 4650.1901 1895.0973 4589.4102 2019.5589 4535.8588 2062.0331 4482.3562 2133.9847 4397.222 2102.8146 4393.2243 1929.6529 4290.4974 1869.0387 4325.4846 1781.4937 4493.5517 1682.6715 Z" fill="none" stroke="#E71E24" opacity="0.6" stroke-width="1" class="college_point"/>
<path d="M 4317.2783 1850.5759 4350.3392 1718.8343 4580.6771 1805.9014 4568.0812 1987.3615 4389.648 2000.5807 4317.2783 1850.5759 Z" fill="none" stroke="#E71E24" opacity="0.6" stroke-width="1" class="college_point"/>
<path d="M 4583.2158 1804.0547 4583.0992 1803.4793 4592.3621 1872.6469 4651.4867 1849.9671 4498.0133 2098.9502 4441.6535 2127.1487 4252.2893 1970.4115 4379.7816 1908.4926 4286.3066 1850.1659 4338.7915 1722.9974 4391.3938 1672.2641 4457.8861 1638.9998 4493.5635 1689.117 4546.6717 1666.9194 4601.7829 1725.2846 4583.2158 1804.0547 Z" fill="none" stroke="#E71E24" opacity="0.6" stroke-width="1" class="college_point"/>
<path d="M 4293.7347 1869.9545 4292.3412 1865.8124 4294.1821 1860.7441 4290.4654 1849.2382 4282.6042 1847.409 4279.3595 1841.8885 4288.1281 1833.1255 4285.8073 1827.1432 4294.1149 1819.302 4307.9798 1817.898 4313.976 1810.0604 4350.48 1802.6326 4327.3701 1803.592 4331.9419 1773.1951 4350.4127 1762.5742 4337.9024 1744.1781 4337.8609 1719.3156 4352.181 1714.6875 4394.7315 1731.6503 4390.5488 1718.3055 4392.8526 1714.1578 4394.6751 1698.9613 4422.8558 1692.0063 4436.7513 1709.0166 4457.0824 1706.2179 4456.1522 1702.9968 4467.6934 1695.6096 4473.2571 1705.268 4472.311 1693.2993 4475.0732 1687.3091 4486.1511 1679.4623 4483.8218 1669.3379 4479.6573 1666.5832 4481.9681 1666.579 4637.2757 1676.8726 4735.0688 1808.8149 4773.0218 1832.2184 4699.6763 2131.7219 4573.0511 2168.3619 4555.4822 2169.7773 4583.4547 2288.113 4577.5638 2351.2405 4569.245 2354.4815 4430.1222 2143.2906 4486.4858 2116.4741 4425.9355 2129.0189 4391.6989 2117.5634 4352.1965 1998.8022 4355.2575 1894.7193 4381.5976 1889.1486 4346.4627 1887.8266 4346.4696 1891.9711 4321.5092 1893.394 4321.9509 1880.96 4293.7347 1869.9545 Z" fill="none" stroke="#E71E24" opacity="0.6" stroke-width="1" class="college_point"/>
<path d="M 4577.8896 1798.5395 4653.7409 1821.4135 4637.2391 1891.4391 4572.7679 2020.5121 4503.5617 2098.94 4438.8849 2130.3779 4383.2908 2067.8339 4381.2883 1978.489 4378.3665 1891.9171 4323.8198 1892.9297 4298.8181 1869.0252 4274.7422 1845.1192 4287.651 1823.917 4322.7569 1809.1251 4349.5586 1804.4759 4325.4968 1788.8607 4338.416 1775.0261 4357.8104 1763.9431 4341.1416 1746.4748 4339.2498 1720.6945 4370.6802 1721.5624 4399.3264 1715.9883 4406.6909 1698.4801 4440.8856 1694.7368 4500.9414 1679.8956 4577.8896 1798.5395 Z" fill="none" stroke="#E71E24" opacity="0.6" stroke-width="1" class="college_point"/>
<path d="M 4716.9383 1669.4812 4462.1586 2183.2343 4143.6518 1660.5412 4716.9383 1669.4812 Z" fill="none" stroke="#E71E24" opacity="0.6" stroke-width="1" class="college_point"/>
<path d="M 4293.2397 1849.6942 4323.689 1813.7281 4349.4489 1739.0941 4380.8342 1713.2577 4430.7664 1722.3791 4462.1804 1714.0357 4499.1519 1712.1269 4521.4053 1748.919 4555.7184 1806.87 4580.7001 1817.8732 4630.5944 1803.9622 4597.2763 1784.6887 4594.4423 1753.3846 4634.1135 1713.7108 4624.8371 1697.1546 4670.1026 1683.2523 4662.0241 1802.9787 4660.2658 1848.1076 4651.0852 1880.3597 4644.7327 1940.2379 4604.1978 2015.8458 4572.8791 2078.5439 4495.2593 2110.0096 4391.6354 2080.7159 4293.2397 1849.6942 Z" fill="none" stroke="#E71E24" opacity="0.6" stroke-width="1" class="college_point"/>
<path d="M 4488.7876 2110.9427 4450.9169 2135.8838 4412.0775 2136.8736 4375.937 2093.6393 4369.1601 1914.9578 4314.5879 1901.2339 4278.4801 1869.979 4304.209 1773.2407 4329.9984 1716.1058 4378.9933 1717.8649 4418.6575 1669.9148 4520.3216 1663.2857 4577.8843 1795.7768 4676.7688 1779.9266 4655.719 1885.8763 4608.7761 1992.8094 4570.9626 2043.5437 4566.4481 2100.6645 4506.3802 2122.8861 4488.7876 2110.9427 Z" fill="none" stroke="#E71E24" opacity="0.6" stroke-width="1" class="college_point"/>
<path d="M 4297.8175 1849.5025 4280.0148 1855.0118 4264.3817 1794.7163 4294.8727 1763.235 4388.369 1682.7616 4464.4164 1671.3647 4491.2219 1671.316 4509.7681 1703.5096 4524.6025 1727.4234 4508.8744 1720.086 4534.845 1767.0008 4564.3932 1749.4486 4591.1332 1714.4055 4608.6575 1653.3553 4623.4864 1673.5831 4643.9042 1714.9786 4664.3312 1760.059 4661.4054 1813.8807 4654.0815 1849.8117 4628.37 1938.2781 4615.1718 1976.7028 4598.575 2000.6833 4569.046 2032.058 4545.0598 2061.58 4513.6708 2089.2737 4496.1717 2127.9964 4466.7488 2134.0765 4424.7949 2134.0443 4394.2325 2108.3036 4362.6863 2046.6392 4379.2631 2007.0028 4375.9587 1967.0575 4370.3608 1937.5935 4375.8455 1900.7435 4296.9107 1879.7576 4297.8175 1849.5025 Z" fill="none" stroke="#E71E24" opacity="0.6" stroke-width="1" class="college_point"/>
<path d="M 4402.0771 1703.0921 4629.6408 1789.2297 4506.3972 2132.0982 4280.3217 1865.3713 4307.8164 1717.984 4402.0771 1703.0921 Z" fill="none" stroke="#E71E24" opacity="0.6" stroke-width="1" class="college_point"/>
<path d="M 4627.6211 1702.6739 4609.1339 1702.7102 4653.5179 1709.9889 4664.6325 1721.0165 4690.6091 1767.0062 4705.4718 1801.9694 4687.0389 1829.6346 4676.0383 1875.7046 4653.9639 1932.8512 4641.1222 1984.4559 4609.7818 2034.2573 4580.3017 2091.4261 4526.7802 2152.3275 4469.4159 2137.6931 4406.5176 2130.4347 4386.008 2034.6681 4361.829 1953.6535 4282.2389 1907.7334 4272.8903 1843.2803 4328.2656 1786.0935 4322.6399 1738.2179 4355.8653 1706.8544 4383.5962 1706.8073 4413.1276 1679.1322 4431.6534 1701.1988 4466.7492 1684.5618 4494.4423 1664.2543 4516.6944 1701.0447 4520.4706 1743.3957 4557.5306 1787.5277 4598.1524 1759.8234 4627.6211 1702.6739 Z" fill="none" stroke="#E71E24" opacity="0.6" stroke-width="1" class="college_point"/>
<path d="M 4398.2933 1897.8232 4301.6101 1889.4609 4307.0791 1841.5618 4354.9606 1727.2926 4427.0268 1706.9104 4632.2102 1693.6355 4673.0939 1798.5305 4607.4072 1982.1735 4491.1189 2100.2986 4398.6439 2100.4631 4398.2933 1897.8232 Z" fill="none" stroke="#E71E24" opacity="0.6" stroke-width="1" class="college_point"/>
<path d="M 4356.872 1755.6569 4343.8963 1735.4201 4347.5615 1716.0765 4370.6724 1716.9583 4387.338 1732.5839 4391.0181 1722.4484 4392.8304 1701.2665 4422.3888 1689.2447 4439.9825 1706.7089 4464.927 1699.2978 4485.2209 1676.2412 4510.1762 1675.2746 4524.1339 1724.9721 4528.8126 1755.3512 4518.6612 1764.5788 4521.467 1782.0702 4559.4005 1798.5748 4581.5838 1796.6906 4589.9662 1828.9064 4653.7427 1822.3344 4646.4405 1869.3173 4628.0573 1923.6924 4597.675 1990.0677 4570.0027 2025.1229 4508.9605 2017.8688 4437.7593 2017.0765 4394.2967 2015.3103 4388.6347 1949.0025 4381.1637 1905.7272 4387.604 1887.2963 4358.0156 1885.5047 4332.1392 1891.995 4322.8907 1890.1683 4319.1713 1877.2807 4290.49 1864.4339 4285.8065 1826.6828 4308.9095 1821.1197 4315.3612 1809.1372 4345.8639 1806.3239 4331.0572 1797.1396 4329.1702 1774.1206 4356.872 1755.6569 Z" fill="none" stroke="#E71E24" opacity="0.6" stroke-width="1" class="college_point"/>
<path d="M 4630.3413 1675.9655 4673.0525 1770.7253 4622.5787 1958.7027 4503.5889 2113.6791 4421.3416 2146.0697 4351.8751 2082.6259 4352.5303 1922.354 4265.5514 1879.2094 4271.8114 1746.588 4394.5646 1634.9679 4630.3413 1675.9655 Z" fill="none" stroke="#E71E24" opacity="0.6" stroke-width="1" class="college_point"/>
<path d="M 4473.3079 1733.353 4600.0872 1804.022 4659.2286 1791.9335 4650.9159 1795.6337 4637.3031 1923.6741 4575.5773 2038.9292 4495.1107 2028.9477 4442.3925 2022.595 4415.6285 2052.1183 4393.3705 2014.3908 4398.7479 1915.828 4351.519 1870.7801 4319.1288 1851.4938 4315.3839 1822.9509 4342.1153 1775.9408 4395.6703 1739.9362 4417.8203 1719.6394 4455.7016 1709.4433 4473.3079 1733.353 Z" fill="none" stroke="#E71E24" opacity="0.6" stroke-width="1" class="college_point"/>
<path d="M 4475.9525 1662.4465 4633.1125 1675.0392 4677.7194 1792.8171 4591.2382 2008.5021 4508.1923 2102.6163 4443.5514 2154.3217 4369.5515 2145.2379 4348.9062 1966.57 4258.1216 1858.039 4294.8364 1694.0641 4475.9525 1662.4465 Z" fill="none" stroke="#E71E24" opacity="0.6" stroke-width="1" class="college_point"/>
<path d="M 4364.2064 1719.7317 4383.631 1727.0652 4420.5627 1702.1391 4400.2188 1697.5705 4439.9743 1702.1048 4460.3234 1709.435 4488.9317 1683.6007 4521.3111 1698.2737 4521.3796 1735.1064 4519.6027 1773.7857 4535.3474 1789.4113 4561.2494 1798.5713 4582.503 1793.9262 4581.536 1771.8268 4608.3084 1753.3576 4627.7083 1746.8735 4651.8035 1777.2142 4660.203 1816.796 4657.5016 1852.7179 4640.0622 1916.3005 4622.5824 1960.5448 4609.6882 1986.36 4594.9529 2016.7849 4570.0679 2059.2048 4527.5932 2092.4472 4491.5737 2117.386 4467.4583 2077.8187 4420.2132 2030.0031 4393.3181 1983.9948 4370.1379 1946.271 4391.3323 1904.7888 4365.4088 1883.6503 4331.2024 1884.6286 4305.2928 1870.8566 4292.2958 1837.7235 4327.3579 1796.2248 4331.8792 1735.4401 4348.4859 1716.075 4364.2064 1719.7317 Z" fill="none" stroke="#E71E24" opacity="0.6" stroke-width="1" class="college_point"/>
<path d="M 4551.4493 1810.3315 4551.4279 1860.062 4530.0487 1860.2174 4559.8532 2036.6564 4379.0616 2028.117 4262.7106 1836.8499 4320.7228 1696.7841 4524.8934 1636.5753 4551.4493 1810.3315 Z" fill="none" stroke="#E71E24" opacity="0.6" stroke-width="1" class="college_point"/>
<path d="M 4498.049 2118.4474 4493.8919 2118.303 4470.4691 2121.7218 4417.4489 2122.7373 4391.4881 2083.7882 4386.6704 1970.8027 4382.2193 1893.14 4320.5849 1893.5475 4293.426 1870.5674 4281.6592 1834.6693 4351.8698 1711.0048 4478.7727 1685.9212 4504.6453 1680.9615 4518.5714 1713.7807 4522.3964 1782.2204 4581.9051 1802.6759 4583.8096 1831.5245 4660.8356 1823.3931 4648.3509 1897.7073 4619.4972 1959.7818 4602.6232 1997.8874 4577.4087 2029.5624 4544.7796 2053.2654 4524.474 2073.5689 4498.049 2118.4474 Z" fill="none" stroke="#E71E24" opacity="0.6" stroke-width="1" class="college_point"/>
<path d="M 4499.8678 2101.7104 4453.6731 2125.7455 4409.247 2104.6362 4286.7711 1851.5465 4348.5276 1740.9373 4479.6699 1673.489 4625.7415 1687.024 4659.3229 1838.9 4499.8678 2101.7104 Z" fill="none" stroke="#E71E24" opacity="0.6" stroke-width="1" class="college_point"/>
<path d="M 4289.0537 1833.8147 4286.0399 1828.0638 4294.3472 1819.9923 4305.6814 1825.7296 4314.2211 1818.5785 4313.5228 1815.5866 4317.2128 1810.7458 4321.8362 1811.4289 4342.4018 1809.0924 4351.178 1805.3941 4352.0978 1802.6298 4345.3974 1803.7922 4333.609 1802.891 4329.2118 1799.2147 4329.4295 1791.1565 4331.4919 1780.5628 4332.6372 1774.345 4351.7993 1762.5719 4339.9857 1746.2465 4340.8936 1736.3459 4339.9596 1730.5922 4339.4859 1723.6868 4342.2529 1719.9989 4353.5691 1715.606 4365.3674 1722.9527 4392.6548 1733.4955 4394.2698 1731.8813 4391.2445 1719.6855 4393.5498 1716.4587 4392.608 1706.3314 4394.2181 1701.9547 4402.2982 1697.3367 4421.9307 1691.5475 4425.399 1692.6924 4440.9125 1709.93 4456.3936 1708.7514 4458.0059 1705.7559 4456.3817 1702.0756 4468.1618 1699.0618 4472.8003 1708.2615 4474.4133 1705.7263 4473.0014 1691.6866 4481.7647 1681.7722 4486.1536 1680.8434 4481.974 1669.8017 4485.4377 1668.4142 4489.8472 1678.7649 4497.4713 1677.8302 4506.4899 1681.2665 4526.2395 1738.7807 4526.5007 1754.8951 4518.4228 1760.6655 4521.47 1783.6817 4536.7241 1784.1136 4538.8145 1789.635 4552.2225 1791.4515 4554.5523 1801.3468 4569.1134 1801.7795 4579.9709 1799.2262 4582.2683 1792.0848 4579.0261 1788.6377 4585.0346 1788.3959 4587.1381 1800.5937 4648.8258 1790.573 4656.9645 1815.4211 4649.635 1848.5893 4641.4115 1897.4172 4605.5093 1977.1574 4586.6158 2008.9716 4546.6998 2049.1166 4535.3904 2058.8099 4524.3175 2071.4966 4510.2508 2090.637 4495.5061 2118.5303 4486.482 2114.4014 4446.0474 2127.8318 4436.8001 2128.0785 4404.1705 2110.1722 4380.2681 2057.7064 4383.2288 2031.6792 4393.3641 2010.7064 4390.5671 1997.3553 4391.7019 1985.1489 4389.3824 1980.5475 4391.1761 1948.3074 4386.3176 1945.7829 4362.7154 1931.0866 4384.197 1922.3002 4384.4127 1913.32 4381.8686 1912.4033 4380.4723 1906.8797 4381.8434 1897.6673 4384.3839 1896.5117 4387.3756 1888.9084 4382.7498 1887.0744 4347.618 1887.5944 4345.7762 1891.9722 4321.9722 1893.8538 4321.0234 1879.1196 4307.3816 1876.1488 4293.7344 1869.7242 4292.1068 1863.7406 4294.8751 1860.5127 4288.616 1849.0109 4283.0679 1848.3292 4281.9004 1840.9635 4285.3595 1836.123 4289.0537 1833.8147 Z" fill="none" stroke="#E71E24" opacity="0.6" stroke-width="1" class="college_point"/>
<path d="M 4353.5908 1747.1519 4357.0965 1716.1498 4381.1413 1722.5547 4393.7764 1727.7587 4395.0283 1701.8274 4423.2063 1693.2609 4440.6623 1710.7099 4469.9899 1697.116 4502.3936 1677.195 4524.9242 1739.0778 4521.59 1784.4612 4582.8204 1803.3611 4589.4006 1895.6959 4502.7551 1940.6794 4519.4489 2023.0412 4471.7526 2070.6919 4384.1877 2065.2234 4367.5291 1889.1624 4322.159 1893.4397 4283.4234 1846.3242 4294.9054 1818.9014 4333.2032 1773.6875 4353.9594 1716.5374 4340.7951 1721.3938 4353.5908 1747.1519 Z" fill="none" stroke="#E71E24" opacity="0.6" stroke-width="1" class="college_point"/>
<path d="M 4504.4746 2092.49 4429.6273 2124.867 4289.5669 1865.3564 4337.375 1705.0438 4630.3723 1691.6189 4661.0571 1781.8 4633.5647 1903.4193 4565.367 2018.684 4504.4746 2092.49 Z" fill="none" stroke="#E71E24" opacity="0.6" stroke-width="1" class="college_point"/>
<path d="M 4372.4882 1697.6182 4653.4331 1667.6326 4675.8295 1772.5614 4657.7103 1956.7908 4539.5681 2067.5531 4502.6946 2130.2626 4436.1366 2145.1224 4362.097 2112.0867 4284.091 1909.5725 4328.293 1802.6696 4257.9468 1747.5309 4272.8667 1828.5454 4372.4882 1697.6182 Z" fill="none" stroke="#E71E24" opacity="0.6" stroke-width="1" class="college_point"/>
<path d="M 4487.7837 1684.7953 4523.4846 1745.7336 4519.7887 1785.313 4557.9572 1805.1862 4526.6956 1853.3508 4604.6839 1800.0253 4633.6586 1850.8254 4637.1262 1895.0245 4615.3688 1951.4007 4537.3784 2050.9863 4499.4504 2102.8806 4485.0751 2114.857 4427.1045 2120.7858 4399.556 2099.6463 4394.1557 2074.8865 4383.6807 2032.9924 4391.081 1989.8238 4392.1886 1952.4632 4387.2628 1910.7952 4384.8486 1885.2912 4326.7008 1887.5736 4299.8476 1862.0606 4293.3849 1829.0576 4320.4044 1815.8903 4357.0745 1804.0571 4335.5467 1783.6033 4353.4655 1768.9242 4349.4825 1736.701 4353.0444 1722.6585 4376.8692 1735.5098 4391.965 1736.0014 4399.6519 1707.3659 4424.3861 1696.4733 4437.1014 1715.5515 4464.4123 1713.7695 4482.1717 1694.6306 4485.8628 1691.1708 4491.6918 1719.4751 4494.0589 1750.0886 4496.4362 1786.2284 4487.7837 1684.7953 Z" fill="none" stroke="#E71E24" opacity="0.6" stroke-width="1" class="college_point"/>
<path d="M 4641.871 1896.0348 4494.3311 2108.1689 4412.9879 2128.581 4379.5698 2054.9441 4277.5083 1840.5101 4338.3208 1717.9336 4484.2848 1669.7975 4637.2464 1895.123 4641.871 1896.0348 Z" fill="none" stroke="#E71E24" opacity="0.6" stroke-width="1" class="college_point"/>
<path d="M 4640.5218 1682.3908 4671.1813 1759.6787 4664.8402 1824.154 4644.6428 1895.1083 4609.6882 1986.36 4566.3233 2035.2623 4535.8571 2061.1119 4497.0919 2100.7943 4432.4098 2129.4681 4399.0604 2096.3631 4374.9259 2042.9772 4369.1288 1896.5378 4317.3586 1899.3873 4274.7407 1844.1983 4318.1012 1788.8729 4348.4889 1717.9166 4415.92 1690.1768 4503.6923 1667.9204 4540.8716 1777.4294 4601.8322 1750.6076 4608.1861 1690.7417 4640.5218 1682.3908 Z" fill="none" stroke="#E71E24" opacity="0.6" stroke-width="1" class="college_point"/>
<path d="M 4509.5004 1809.7193 4506.7763 1836.4311 4678.7055 1823.2051 4512.8297 2109.9773 4406.4856 2112.0106 4377.4325 1886.3927 4321.0431 1891.0923 4281.2152 1846.0298 4479.6448 1659.6775 4625.7215 1676.8954 4509.5004 1809.7193 Z" fill="none" stroke="#E71E24" opacity="0.6" stroke-width="1" class="college_point"/>
<path d="M 4552.4299 2023.0839 4397.5267 2011.6203 4390.6076 2020.8433 4334.214 1888.7681 4288.8349 1841.4128 4332.8901 1787.4672 4344.5758 1727.1314 4395.6189 1710.2396 4501.1835 1685.8802 4520.3616 1809.0084 4526.762 1894.8752 4639.5624 1897.4209 4394.5331 2018.3035 4552.4299 2023.0839 Z" fill="none" stroke="#E71E24" opacity="0.6" stroke-width="1" class="college_point"/>
<path d="M 4387.6309 1902.9531 4319.1955 1892.0164 4282.116 1831.2933 4346.6433 1719.7613 4505.5681 1682.6494 4568.6538 1803.1617 4548.5002 1900.8209 4387.6309 1902.9531 Z" fill="none" stroke="#E71E24" opacity="0.6" stroke-width="1" class="college_point"/>
<path d="M 4399.7152 1673.6309 4502.2872 1657.7945 4554.6961 1755.3025 4550.4123 1811.945 4546.0772 1841.6531 4568.7612 1859.3383 4570.682 1896.8645 4643.7192 1895.5707 4593.0835 2006.426 4517.3855 2073.3518 4494.348 2117.3809 4430.3323 2131.3142 4373.0812 2045.7438 4368.6658 1896.0781 4321.0613 1902.1442 4281.2226 1850.6345 4304.2316 1787.0539 4399.7152 1673.6309 Z" fill="none" stroke="#E71E24" opacity="0.6" stroke-width="1" class="college_point"/>
<path d="M 4431.7591 1761.0528 4403.2892 1868.8497 4393.0845 1848.6063 4386.5861 1832.9615 4388.3812 1801.6472 4387.4203 1780.4684 4383.6815 1756.5322 4400.246 1713.2242 4421.5226 1722.3953 4432.6331 1732.5049 4675.6393 1678.6372 4681.2676 1719.1412 4643.4836 1777.2308 4613.1036 1841.7545 4568.8615 1911.8342 4516.257 1963.5112 4472.8167 1972.8014 4452.4536 1960.8643 4441.3026 1929.5687 4411.6838 1911.2005 4412.5618 1884.4901 4426.3731 1852.2321 4426.3115 1817.2367 4429.0248 1783.1586 4431.7591 1761.0528 Z" fill="none" stroke="#E71E24" opacity="0.6" stroke-width="1" class="college_point"/>
<path d="M 4618.3485 1687.9594 4646.3965 1847.2144 4587.5004 1988.2453 4499.8712 2103.5528 4438.8735 2123.9294 4387.0466 2100.9898 4289.5283 1841.4117 4348.4967 1722.5207 4618.3485 1687.9594 Z" fill="none" stroke="#E71E24" opacity="0.6" stroke-width="1" class="college_point"/>
<path d="M 4583.2049 1805.2038 4587.6939 1833.6041 4654.9082 1825.8793 4642.1201 1896.6774 4599.9804 1991.5895 4501.2485 2103.2343 4464.3014 2122.3198 4447.9291 2127.0448 4435.9086 2127.9873 4413.9267 2117.432 4406.0518 2109.1549 4397.0478 2089.8902 4400.2784 2086.4302 4394.0249 2079.7625 4393.3214 2074.0064 4399.091 2068.2392 4396.0292 2061.9018 4386.7888 2065.8327 4380.1329 2055.333 4388.6911 2051.941 4391.4767 2058.6145 4398.6388 2056.069 4396.1637 2049.611 4391.0692 2044.5535 4387.7442 2037.5738 4385.9929 2029.639 4393.3645 2014.6582 4393.2339 1984.0947 4392.1075 1947.4105 4386.7838 1938.7594 4383.5974 1927.9748 4371.3546 1932.6008 4383.1312 1925.673 4385.6524 1913.235 4382.3918 1897.7491 4388.3867 1889.2196 4323.6318 1893.1465 4321.4027 1878.7428 4294.2864 1869.5207 4295.9685 1860.9231 4289.9391 1848.5 4284.8532 1847.8175 4282.7021 1841.1731 4287.0849 1835.8707 4291.0091 1832.8713 4287.7653 1827.8114 4294.5189 1820.8508 4307.4687 1825.2041 4316.2407 1818.7432 4315.5341 1810.6864 4352.4714 1805.1626 4353.1108 1801.9271 4336.2398 1802.1856 4331.1496 1798.7406 4332.2782 1775.4355 4350.4506 1765.2569 4339.9963 1744.8104 4341.3598 1730.9955 4344.579 1721.3215 4354.2756 1715.7802 4393.5885 1731.3673 4396.915 1715.1108 4396.8943 1703.1403 4422.2956 1692.5068 4440.2496 1710.8589 4456.8865 1709.9085 4457.3339 1701.6204 4468.8859 1700.2184 4473.0571 1706.6565 4475.5804 1690.7068 4485.7289 1680.0993 4484.3172 1669.8094 4494.5042 1680.3797 4508.3769 1684.4977 4526.8745 1737.7127 4528.012 1755.3154 4518.7765 1759.9369 4519.9086 1783.8858 4536.4078 1784.0217 4553.8927 1792.2804 4555.9132 1803.3273 4583.2049 1805.2038 Z" fill="none" stroke="#E71E24" opacity="0.6" stroke-width="1" class="college_point"/>
<path d="M 4611.5691 1766.2433 4610.3585 2092.7496 4383.8179 2105.6013 4278.3767 1805.5136 4514.3161 1664.678 4611.5691 1766.2433 Z" fill="none" stroke="#E71E24" opacity="0.6" stroke-width="1" class="college_point"/>
<path d="M 4342.9489 1721.6092 4390.0636 1704.9545 4499.1096 1689.1068 4501.9708 1736.984 4502.2606 1894.4601 4507.8912 1939.5795 4421.9025 1938.8133 4379.3745 1940.729 4386.6842 1890.0608 4333.999 1898.4388 4316.4128 1886.495 4290.5019 1871.8016 4290.4334 1829.4381 4334.7734 1808.1842 4323.6434 1786.1011 4339.3205 1763.0532 4342.9489 1721.6092 Z" fill="none" stroke="#E71E24" opacity="0.6" stroke-width="1" class="college_point"/>
<path d="M 4551.564 1809.8708 4551.8879 1858.9099 4529.2369 1858.7223 4527.2337 1899.9398 4559.8501 2035.0444 4379.0598 2027.0807 4269.8838 1842.1339 4348.159 1658.9865 4522.8554 1658.9074 4551.564 1809.8708 Z" fill="none" stroke="#E71E24" opacity="0.6" stroke-width="1" class="college_point"/>
<path d="M 4363.3164 1739.9916 4502.6421 2101.7053 4453.6616 2119.297 4420.0582 1941.5796 4359.8942 1903.0004 4333.9622 1876.3352 4358.867 1842.2181 4356.8083 1717.9026 4397.4697 1711.3874 4423.3455 1707.6591 4510.2171 1697.3735 4685.0906 1780.8306 4497.0885 2098.9519 4363.3164 1739.9916 Z" fill="none" stroke="#E71E24" opacity="0.6" stroke-width="1" class="college_point"/>
<path d="M 4348.4889 1717.9166 4392.8939 1738.0993 4398.3733 1699.4153 4422.4001 1695.6902 4446.4661 1714.0638 4477.858 1693.7496 4503.7127 1678.9697 4522.292 1728.6589 4522.4017 1787.5937 4585.2177 1763.5319 4620.3203 1750.5715 4612.8169 1695.3366 4625.7397 1686.1032 4661.0053 1756.0157 4651.4444 1828.7855 4637.2592 1901.57 4582.4646 2014.0457 4519.6815 2064.8268 4486.0134 2110.9477 4478.6337 2121.0944 4434.2577 2128.5437 4413.8837 2111.9977 4287.6763 1839.5728 4335.6519 1780.5559 4348.5631 1762.1169 4348.4889 1717.9166 Z" fill="none" stroke="#E71E24" opacity="0.6" stroke-width="1" class="college_point"/>
<path d="M 4503.9297 2164.1748 4477.9681 2127.3728 4370.5217 2026.2331 4364.7489 1893.6109 4270.3363 1825.6153 4510.7051 1693.3432 4577.4387 1787.1434 4622.1128 1939.9364 4503.9297 2164.1748 Z" fill="none" stroke="#E71E24" opacity="0.6" stroke-width="1" class="college_point"/>
<path d="M 4446.6253 1803.387 4441.1243 1829.1825 4413.4316 1853.1757 4419.0884 1915.7926 4435.9051 2014.3165 4475.841 2110.9662 4423.1669 2132.2481 4401.7723 2060.4328 4388.7535 2018.0832 4381.1874 1919.5423 4335.8328 1889.2259 4275.649 1834.0665 4335.5538 1721.6215 4350.316 1705.0221 4401.14 1695.7273 4435.3574 1704.8754 4500.0323 1688.1843 4523.2456 1744.3114 4530.7476 1801.3916 4509.4953 1806.9565 4446.6253 1803.387 Z" fill="none" stroke="#E71E24" opacity="0.6" stroke-width="1" class="college_point"/>
<path d="M 4292.114 1725.3761 4285.5988 1697.7622 4485.1991 1664.2712 4527.7523 1682.6082 4637.4639 2004.7271 4265.6407 1935.3905 4292.114 1725.3761 Z" fill="none" stroke="#E71E24" opacity="0.6" stroke-width="1" class="college_point"/></svg>