<?xml version="1.0"?><svg xmlns="http://www.w3.org/2000/svg" version="1.2" baseProfile="tiny" width="6000" height="5918" viewBox="0 0 6000 5918" stroke-linecap="round" stroke-linejoin="round"><path d="M 3561.5622 1349.254 3612.6361 1264.0787 3642.445 1277.1669 3627.119 1317.9933 3616.1104 1332.5257 3584.0296 1365.0004 3561.5622 1349.254 Z" fill="none" stroke="#E71E24" opacity="0.6" stroke-width="1" class="concourse_village"/>
<path d="M 3567.1016 1377.8016 3564.3089 1375.5688 3562.924 1376.9507 3554.1399 1370.0544 3547.2077 1367.759 3530.4182 1361.4284 3527.8671 1349.072 3532.0612 1328.6206 3529.3412 1301.5378 3523.0799 1270.9395 3529.2104 1238.691 3540.4701 1227.2465 3546.2818 1211.8511 3565.1128 1188.9199 3573.6472 1175.7983 3580.8576 1162.7148 3582.9343 1148.7442 3591.4723 1140.4544 3609.0226 1147.1303 3611.5612 1145.0574 3618.4863 1141.1401 3639.918 1148.8631 3653.2234 1153.0809 3659.462 1156.0659 3669.1641 1158.1273 3677.3127 1166.8621 3671.9814 1187.0327 3665.9926 1204.0643 3648.2264 1256.9088 3632.4688 1287.5617 3622.2705 1303.3813 3610.354 1320.0589 3598.125 1335.7173 3585.4352 1353.2171 3574.2562 1369.9713 3567.1016 1377.8016 Z" fill="none" stroke="#E71E24" opacity="0.6" stroke-width="1" class="concourse_village"/>
<path d="M 3565.4493 1336.2668 3611.5419 1216.4607 3647.9729 1149.7054 3689.5606 1165.8855 3672.392 1205.2451 3611.5479 1351.8743 3575.8498 1342.586 3565.4493 1336.2668 Z" fill="none" stroke="#E71E24" opacity="0.6" stroke-width="1" class="concourse_village"/>
<path d="M 3519.85 1220.9101 3603.0293 1253.9726 3688.0651 1289.7883 3624.3415 1322.0632 3574.5062 1392.063 3531.1167 1442.7282 3505.2612 1467.6041 3519.85 1220.9101 Z" fill="none" stroke="#E71E24" opacity="0.6" stroke-width="1" class="concourse_village"/>
<path d="M 3610.4339 1268.692 3596.5546 1245.695 3600.2298 1222.683 3603.891 1184.0263 3633.4035 1128.7831 3666.6567 1125.0709 3744.3089 1176.5286 3678.8318 1296.2402 3610.4339 1268.692 Z" fill="none" stroke="#E71E24" opacity="0.6" stroke-width="1" class="concourse_village"/>
<path d="M 3562.3682 1243.8838 3595.6379 1253.9791 3664.9618 1285.2086 3593.8677 1342.3403 3568.0284 1381.0225 3515.3418 1360.8153 3532.8548 1307.4152 3562.3682 1243.8838 Z" fill="none" stroke="#E71E24" opacity="0.6" stroke-width="1" class="concourse_village"/>
<path d="M 3607.658 1264.0926 3655.7301 1293.501 3577.2665 1378.2531 3560.6267 1369.9829 3607.658 1264.0926 Z" fill="none" stroke="#E71E24" opacity="0.6" stroke-width="1" class="concourse_village"/>
<path d="M 3658.5883 1384.6231 3523.6476 1347.9221 3589.1046 1178.5175 3712.0381 1240.064 3658.5883 1384.6231 Z" fill="none" stroke="#E71E24" opacity="0.6" stroke-width="1" class="concourse_village"/>
<path d="M 3935.3209 995.9502 3997.2559 1033.597 4054.5734 1068.487 4025.0641 1106.2555 4031.5664 1132.9337 3982.7106 1214.9042 3981.9126 1312.4654 3947.76 1340.1221 3851.6625 1339.3172 3847.9517 1326.4352 3732.415 1289.7439 3704.7101 1303.5781 3551.2798 1242.0524 3528.1672 1223.6644 3500.4598 1235.6509 3488.4505 1237.5009 3483.7994 1196.0894 3485.6443 1192.4068 3512.3524 1086.5563 3558.4481 977.0203 3616.5641 895.0841 3647.0367 889.536 3674.78 927.231 3707.1115 932.7196 3719.0802 894.986 3736.6403 906.9284 3781.0099 941.8436 3826.2898 962.0354 3880.8027 977.6141 3935.3209 995.9502 Z" fill="none" stroke="#E71E24" opacity="0.6" stroke-width="1" class="concourse_village"/>
<path d="M 3641.4613 1280.1686 3651.1351 1279.0939 3670.0851 1288.51 3674.0123 1288.9665 3671.2411 1289.6594 3673.553 1291.7281 3675.1704 1292.1868 3672.8631 1294.9502 3671.7135 1300.4738 3667.1027 1309.9125 3663.1867 1321.4216 3658.5781 1333.3917 3652.9243 1334.2427 3655.2916 1333.7515 3643.9739 1335.1428 3629.2039 1331.3094 3627.808 1320.4955 3628.0338 1314.7426 3631.9562 1309.9068 3634.4866 1298.3992 3644.1777 1287.1153 3642.2727 1287.5846 3646.1905 1277.9168 3641.4613 1280.1686 Z" fill="none" stroke="#E71E24" opacity="0.6" stroke-width="1" class="concourse_village"/>
<path d="M 3561.9059 1243.424 3612.1586 1131.5632 3689.3302 1166.4609 3664.4402 1222.624 3642.7772 1274.645 3611.8949 1352.4493 3575.848 1340.515 3566.144 1338.2222 3559.6841 1347.8924 3532.854 1306.4948 3561.9059 1243.424 Z" fill="none" stroke="#E71E24" opacity="0.6" stroke-width="1" class="concourse_village"/>
<path d="M 3515.3439 1363.5767 3521.3487 1361.7309 3529.666 1363.1049 3622.3396 1152.72 3694.4312 1186.7024 3605 1392.0363 3515.3439 1363.5767 Z" fill="none" stroke="#E71E24" opacity="0.6" stroke-width="1" class="concourse_village"/></svg>