<?xml version="1.0"?><svg xmlns="http://www.w3.org/2000/svg" version="1.2" baseProfile="tiny" width="6000" height="5918" viewBox="0 0 6000 5918" stroke-linecap="round" stroke-linejoin="round"><path d="M 4717.4696 1178.2372 4718.7399 1178.2345 4724.6395 1183.0539 4727.0517 1176.8368 4728.6559 1170.8516 4730.9639 1170.0415 4738.4537 1162.2034 4738.5752 1165.0791 4747.7256 1178.174 4745.8888 1183.3546 4754.8032 1193.9194 4746.2584 1194.3975 4738.6378 1194.9887 4728.6066 1202.6023 4726.4121 1202.4918 4717.8837 1210.9075 4715.3347 1206.8863 4704.3682 1209.0947 4707.0142 1204.1425 4717.4696 1178.2372 Z" fill="none" stroke="#865327" opacity="0.6" stroke-width="1" class="country_club"/>
<path d="M 4643.4356 987.4446 4744.0275 945.8346 4743.1197 1129.5011 4665.1938 1150.8274 4642.884 988.7339 4643.4356 987.4446 Z" fill="none" stroke="#865327" opacity="0.6" stroke-width="1" class="country_club"/>
<path d="M 4744.8252 951.8134 4741.5106 1133.0935 4679.1913 1151.6273 4647.9209 990.196 4744.8252 951.8134 Z" fill="none" stroke="#865327" opacity="0.6" stroke-width="1" class="country_club"/>
<path d="M 4641.9116 987.4476 4693.5763 957.9002 4742.975 950.4372 4738.7354 1131.2588 4665.3377 1153.4959 4634.515 983.7819 4641.9116 987.4476 Z" fill="none" stroke="#865327" opacity="0.6" stroke-width="1" class="country_club"/>
<path d="M 4575.3232 1009.2868 4519.9067 1002.2654 4690.4274 955.3909 4687.4342 1038.0357 4575.6101 1039.6465 4575.3232 1009.2868 Z" fill="none" stroke="#865327" opacity="0.6" stroke-width="1" class="country_club"/>
<path d="M 4645.0515 987.2114 4737.9207 918.5216 4742.9794 1128.6732 4663.0204 1149.6354 4643.8507 987.1677 4645.0515 987.2114 Z" fill="none" stroke="#865327" opacity="0.6" stroke-width="1" class="country_club"/>
<path d="M 4653.3231 1035.7321 4698.8161 1035.8699 4741.365 1063.617 4749.7159 1081.3133 4721.4146 1131.5249 4664.5258 1094.3717 4653.3231 1035.7321 Z" fill="none" stroke="#865327" opacity="0.6" stroke-width="1" class="country_club"/>
<path d="M 4697.7137 948.6909 4754.0469 944.8934 4791.5177 974.7165 4775.446 1017.9967 4754.8983 1020.1106 4741.2623 1014.6184 4744.9855 1028.1828 4759.4046 1076.2317 4752.9582 1085.6774 4741.6514 1090.0722 4739.8231 1099.2782 4742.4214 1126.8799 4670.6399 1148.6538 4656.7412 1127.9759 4651.8245 1094.6272 4646.674 1059.6699 4647.4967 1009.0594 4643.757 986.5238 4697.7137 948.6909 Z" fill="none" stroke="#865327" opacity="0.6" stroke-width="1" class="country_club"/>
<path d="M 4636.1596 881.6518 4802.6104 978.8331 4740.1162 1128.9553 4669.9448 1147.5048 4626.0441 903.7524 4636.1596 881.6518 Z" fill="none" stroke="#865327" opacity="0.6" stroke-width="1" class="country_club"/>
<path d="M 4682.0936 971.4858 4745.0658 947.9748 4738.5852 1095.371 4653.9437 1085.4558 4644.7779 980.625 4682.0936 971.4858 Z" fill="none" stroke="#865327" opacity="0.6" stroke-width="1" class="country_club"/>
<path d="M 4643.812 1014.1275 4642.7436 941.4414 4706.4559 933.0317 4784.9723 937.4671 4807.3143 1018.3883 4787.2141 1121.4935 4817.9376 1230.9425 4777.4039 1286.2525 4748.6937 1254.0997 4712.579 1214.5998 4656.1761 1191.7065 4648.629 1113.4983 4652.2026 1052.7575 4643.812 1014.1275 Z" fill="none" stroke="#865327" opacity="0.6" stroke-width="1" class="country_club"/>
<path d="M 4655.5166 977.9893 4666.1238 970.6072 4682.036 960.4539 4698.4074 949.1495 4702.1156 955.8125 4742.9721 949.0571 4758.5041 978.0072 4752.3099 1051.9767 4702.4385 1056.7964 4647.6544 1030.2225 4644.4512 987.2126 4656.7857 977.5267 4655.5166 977.9893 Z" fill="none" stroke="#865327" opacity="0.6" stroke-width="1" class="country_club"/>
<path d="M 4740.6698 952.2822 4729.7178 1126.2162 4674.0935 1143.3552 4654.8446 988.3419 4740.6698 952.2822 Z" fill="none" stroke="#865327" opacity="0.6" stroke-width="1" class="country_club"/>
<path d="M 4644.2198 986.983 4685.6242 908.2331 4737.7835 897.085 4806.3159 983.8857 4754.5613 1188.7431 4709.8055 1213.6852 4641.6603 1093.2672 4644.2198 986.983 Z" fill="none" stroke="#865327" opacity="0.6" stroke-width="1" class="country_club"/>
<path d="M 4219.7636 965.1908 4475.1288 698.893 4696.1794 876.0107 4551.6387 1117.368 4201.588 1160.2981 4219.7636 965.1908 Z" fill="none" stroke="#865327" opacity="0.6" stroke-width="1" class="country_club"/>
<path d="M 4719.4589 967.9679 4720.4379 994.649 4701.8946 960.6434 4739.752 955.0443 4773.0594 981.6568 4798.8919 967.7999 4774.0732 1023.9806 4774.1556 1062.6275 4764.0355 1081.9732 4732.6778 1105.9648 4711.3569 1070.1208 4701.1334 1039.7759 4702.9014 1001.1261 4705.6213 976.2774 4719.4589 967.9679 Z" fill="none" stroke="#865327" opacity="0.6" stroke-width="1" class="country_club"/>
<path d="M 4640.0661 988.3714 4698.1774 949.61 4748.0492 947.6663 4767.5448 994.5501 4745.4213 1015.7599 4758.4813 1076.4637 4740.1239 1132.6363 4663.4984 1157.6408 4650.5299 1140.1817 4640.0661 988.3714 Z" fill="none" stroke="#865327" opacity="0.6" stroke-width="1" class="country_club"/>
<path d="M 4647.7754 1032.9827 4651.7034 1034.125 4657.0184 1035.9547 4665.8075 1042.8383 4673.0946 1049.1497 4684.4258 1056.8332 4690.779 1058.0855 4701.9811 1058.9828 4703.4803 1058.0595 4715.7123 1054.4686 4719.1751 1053.8863 4730.1434 1053.4034 4729.5627 1051.7943 4728.6375 1051.1061 4736.1437 1051.5505 4747.1371 1063.0298 4750.963 1070.3833 4752.9432 1078.5459 4750.0696 1084.7633 4749.261 1084.65 4745.2235 1086.4989 4738.1911 1091.9199 4736.9311 1096.7537 4736.8324 1104.8058 4737.7779 1115.1565 4740.6888 1126.6534 4726.1483 1131.17 4710.9177 1137.0682 4692.1065 1142.6284 4676.4126 1148.0669 4665.5379 1138.196 4660.7719 1122.5613 4655.2072 1111.6446 4650.0828 1089.7996 4648.4285 1070.9387 4647.7056 1055.8721 4646.2801 1035.8612 4646.2728 1032.1806 4647.7754 1032.9827 Z" fill="none" stroke="#865327" opacity="0.6" stroke-width="1" class="country_club"/>
<path d="M 4677.326 1142.8885 4652.9936 986.5054 4746.2193 955.9509 4747.5027 1127.0993 4677.326 1142.8885 Z" fill="none" stroke="#865327" opacity="0.6" stroke-width="1" class="country_club"/>
<path d="M 4618.1937 903.7678 4748.9844 953.1848 4744.741 1131.7063 4675.7163 1146.3428 4618.1937 903.7678 Z" fill="none" stroke="#865327" opacity="0.6" stroke-width="1" class="country_club"/>
<path d="M 4738.8168 949.5258 4734.5148 1100.8997 4646.2663 1086.8165 4640.5096 979.1694 4738.8168 949.5258 Z" fill="none" stroke="#865327" opacity="0.6" stroke-width="1" class="country_club"/>
<path d="M 4656.6846 984.6578 4680.6604 965.2872 4716.6537 951.4121 4751.7378 944.8983 4780.4211 968.7596 4792.4957 1000.0176 4764.8987 1053.4454 4768.6601 1084.724 4756.6941 1104.9941 4734.5792 1131.7276 4693.0157 1135.4945 4664.3481 1120.8287 4659.6755 1094.1514 4654.9848 1058.273 4644.7394 1015.966 4652.3094 1106.1291 4656.6846 984.6578 Z" fill="none" stroke="#865327" opacity="0.6" stroke-width="1" class="country_club"/>
<path d="M 4644.6789 985.6019 4697.2515 948.4618 4701.887 956.9631 4739.2777 949.0648 4740.5165 989.3165 4749.5411 998.2687 4708.462 1010.0859 4743.8353 1030.2556 4711.6501 1100.257 4649.5896 1074.1571 4641.008 997.5707 4644.6789 985.6019 Z" fill="none" stroke="#865327" opacity="0.6" stroke-width="1" class="country_club"/>
<path d="M 4643.2989 988.365 4696.792 949.6129 4701.4262 957.424 4742.0466 948.1389 4771.2493 999.1429 4774.9763 1014.3171 4753.7481 1022.1834 4752.347 1014.8252 4748.1779 1008.8531 4737.1129 1018.0777 4749.6215 1036.4545 4754.7601 1064.0489 4759.4119 1079.6824 4741.8857 1091.6821 4740.5781 1128.9543 4669.9438 1147.0447 4654.1938 1124.53 4651.8171 1090.9464 4645.7227 1045.8691 4647.965 1012.279 4647.4811 1001.2384 4643.2989 988.365 Z" fill="none" stroke="#865327" opacity="0.6" stroke-width="1" class="country_club"/>
<path d="M 4649.6484 1032.9534 4645.9359 985.5227 4742.3291 948.2661 4711.8515 1098.365 4649.6484 1032.9534 Z" fill="none" stroke="#865327" opacity="0.6" stroke-width="1" class="country_club"/>
<path d="M 4656.6846 984.6578 4754.5242 952.253 4792.2603 1320.2763 4764.5662 1332.3012 4698.6378 1174.1346 4654.1956 1125.4503 4649.4148 1044.4815 4646.5703 1007.6811 4642.8279 983.7654 4673.2676 963.462 4684.3549 965.2797 4713.879 949.5777 4742.5113 949.5181 4729.5902 954.1455 4656.6846 984.6578 Z" fill="none" stroke="#865327" opacity="0.6" stroke-width="1" class="country_club"/>
<path d="M 4646.7487 990.6373 4695.6161 948.214 4703.959 962.9182 4740.8697 946.2801 4769.974 1005.7963 4740.4915 1041.7444 4660.1452 1050.1908 4646.293 1052.0589 4646.7487 990.6373 Z" fill="none" stroke="#865327" opacity="0.6" stroke-width="1" class="country_club"/>
<path d="M 4676.2035 1044.8876 4681.801 1072.0217 4653.6296 1073.4588 4658.168 1033.422 4676.2035 1044.8876 Z" fill="none" stroke="#865327" opacity="0.6" stroke-width="1" class="country_club"/>
<path d="M 4684.2606 1145.8653 4662.2992 1135.5568 4664.6041 1133.2515 4664.3611 1127.2704 4648.7836 1075.3089 4647.1239 1053.6878 4648.0114 1035.5127 4648.6605 1013.6578 4649.0639 984.443 4651.8354 984.6675 4675.7214 1148.8735 4677.1011 1145.8799 4741.7319 1128.4917 4696.956 1142.3884 4687.4916 1144.7084 4684.2606 1145.8653 Z" fill="none" stroke="#865327" opacity="0.6" stroke-width="1" class="country_club"/>
<path d="M 4645.9188 1028.3856 4745.9368 1041.2931 4757.1083 1082.4479 4713.2752 1104.3947 4643.1463 1027.701 4645.9188 1028.3856 Z" fill="none" stroke="#865327" opacity="0.6" stroke-width="1" class="country_club"/>
<path d="M 4703.863 1019.5268 4699.3315 949.3776 4743.4364 950.2062 4744.4994 1126.6454 4652.0441 1088.9905 4645.7155 984.3347 4698.869 949.0335 4703.863 1019.5268 Z" fill="none" stroke="#865327" opacity="0.6" stroke-width="1" class="country_club"/>
<path d="M 4648.1901 1009.4031 4658.0042 1009.3835 4677.5466 1023.9513 4697.8889 1034.1465 4708.7522 1038.84 4712.8293 1056.1999 4731.2966 1052.7109 4737.6547 1056.2633 4740.4403 1063.1589 4740.6751 1064.9987 4749.9241 1070.5005 4751.3324 1081.3099 4731.7013 1080.6609 4732.1828 1090.092 4725.4961 1095.1671 4711.6444 1097.4964 4717.2165 1111.7484 4729.4753 1120.6953 4734.1144 1130.3482 4674.3338 1147.9561 4667.6385 1149.12 4655.1231 1127.2889 4651.83 1097.3879 4646.1538 1030.4555 4648.1901 1009.4031 Z" fill="none" stroke="#865327" opacity="0.6" stroke-width="1" class="country_club"/>
<path d="M 4640.9769 981.9288 4688.9224 940.4282 4744.3392 940.3135 4769.5741 1080.121 4747.5105 1130.7802 4700.3419 1104.1912 4645.8062 1087.7376 4640.9769 981.9288 Z" fill="none" stroke="#865327" opacity="0.6" stroke-width="1" class="country_club"/>
<path d="M 4643.7598 987.904 4686.6469 843.6005 4751.6453 900.966 4793.585 969.6515 4806.1024 991.9371 4764.8504 1030.6713 4753.9276 1107.3006 4753.9257 1106.3803 4654.1661 1110.7265 4645.0382 1050.0112 4643.993 989.0537 4643.7598 987.904 Z" fill="none" stroke="#865327" opacity="0.6" stroke-width="1" class="country_club"/>
<path d="M 4688.1667 1135.9645 4675.0234 1146.3442 4670.3955 1141.9823 4668.4338 1142.6765 4664.1371 1130.7218 4661.7107 1130.0365 4658.2183 1116.0097 4658.2229 1118.3103 4655.0821 1106.8137 4652.8828 1104.1724 4651.1275 1092.5581 4651.594 1094.8577 4650.6495 1084.5072 4650.3047 1085.3131 4648.8927 1072.088 4649.5912 1074.9622 4648.5313 1064.6122 4646.4536 1064.9614 4646.0879 1055.3002 4644.8194 1056.1079 4645.6061 1045.2942 4644.6858 1047.0214 4645.3573 1036.3231 4644.8989 1038.0493 4646.6106 1027.9242 4647.4235 1030.2229 4647.1668 1017.3414 4647.2862 1019.2964 4647.7313 1010.8992 4644.7302 1011.3653 4644.6006 1004.2345 4641.3627 1001.7106 4643.1949 994.1159 4640.7636 990.7853 4644.4477 985.4873 4643.6345 982.9587 4648.9377 979.0376 4657.8191 974.6493 4658.8485 969.8167 4671.5337 962.4304 4675.2259 961.2728 4684.5655 955.2733 4687.5621 952.737 4695.6288 945.3599 4701.6429 950.523 4702.1087 952.4772 4706.3755 950.0532 4706.8381 950.3973 4720.3427 948.7592 4725.1931 949.4392 4735.5738 944.5872 4749.9903 937.4264 4747.9306 946.1714 4748.5119 948.1254 4743.3496 963.8926 4743.4607 961.8222 4741.9801 971.4863 4755.0419 978.7046 4756.6544 976.861 4762.7918 985.4741 4767.0571 982.3596 4770.7442 978.7864 4770.0781 991.3243 4772.726 987.7532 4766.3942 996.3928 4765.8235 999.4995 4767.4589 1008.4673 4774.9705 1011.5567 4779.6007 1017.0677 4767.0162 1017.4396 4764.7016 1014.9141 4754.5272 1008.3796 4754.165 1000.9043 4742.3981 1005.6447 4735.9403 1009.4538 4738.0395 1019.4559 4740.9321 1022.3254 4744.6421 1029.5638 4747.8869 1035.1929 4747.5465 1038.0691 4749.5389 1052.0976 4750.7064 1058.1913 4756.609 1064.7352 4757.2068 1074.3959 4754.5716 1084.1787 4743.1397 1083.9727 4737.1637 1097.5584 4730.952 1108.9591 4740.2356 1130.7955 4732.8435 1130.0057 4704.9191 1140.0714 4699.8384 1140.1969 4676.0804 1155.0847 4676.1807 1147.6072 4675.4839 1145.6531 4676.4091 1146.3414 4688.1667 1135.9645 Z" fill="none" stroke="#865327" opacity="0.6" stroke-width="1" class="country_club"/>
<path d="M 4669.9652 1043.29 4654.1291 1034.5803 4731.2952 1052.0207 4748.8834 1069.8125 4750.1763 1080.6221 4712.3398 1098.7602 4652.0358 1084.8495 4651.8203 1034.8149 4669.9652 1043.29 Z" fill="none" stroke="#865327" opacity="0.6" stroke-width="1" class="country_club"/>
<path d="M 4647.459 990.1969 4678.8225 969.8914 4715.7586 965.2153 4717.6669 994.6547 4719.5714 1022.2549 4723.3235 1049.8519 4722.459 1078.3796 4730.8265 1104.1282 4727.1811 1128.062 4710.5775 1140.0597 4693.9414 1136.4129 4676.3816 1132.7676 4668.0711 1134.6249 4653.2589 1119.0105 4655.951 1079.4355 4648.5187 1058.2859 4654.9239 1027.9075 4660.3903 990.171 4652.0755 989.2676 4647.459 990.1969 Z" fill="none" stroke="#865327" opacity="0.6" stroke-width="1" class="country_club"/>
<path d="M 4744.36 950.2043 4761.9736 980.7602 4782.8237 1012.4601 4750.0446 1018.0505 4755.256 1080.1513 4743.5781 1127.7977 4675.4872 1147.2635 4656.0317 1119.6951 4648.5449 1071.3986 4645.6934 1031.1465 4646.9853 984.2171 4697.4852 949.8415 4744.36 950.2043 Z" fill="none" stroke="#865327" opacity="0.6" stroke-width="1" class="country_club"/>
<path d="M 4743.4253 944.9158 4743.5752 1126.4173 4663.4743 1145.6773 4635.4459 987.4605 4685.2411 946.8762 4743.4253 944.9158 Z" fill="none" stroke="#865327" opacity="0.6" stroke-width="1" class="country_club"/>
<path d="M 4646.9972 990.1978 4744.8223 950.4333 4734.5734 1128.9669 4673.1781 1147.4983 4650.9265 1107.5122 4646.9972 990.1978 Z" fill="none" stroke="#865327" opacity="0.6" stroke-width="1" class="country_club"/>
<path d="M 4675.2562 1147.264 4646.9674 1090.9561 4647.0367 1009.9805 4707.3112 1011.9286 4745.4479 1028.4119 4760.0945 1074.8499 4741.4986 1127.3419 4675.2562 1147.264 Z" fill="none" stroke="#865327" opacity="0.6" stroke-width="1" class="country_club"/>
<path d="M 4742.6811 1030.488 4741.0342 1126.1926 4667.1715 1146.5902 4647.4994 1010.4396 4742.6811 1030.488 Z" fill="none" stroke="#865327" opacity="0.6" stroke-width="1" class="country_club"/>
<path d="M 4661.3232 994.7697 4751.7882 968.8204 4786.2351 1095.729 4755.1164 1232.9179 4686.5359 1129.066 4659.6552 1084.0291 4657.7338 1047.2253 4661.3232 994.7697 Z" fill="none" stroke="#865327" opacity="0.6" stroke-width="1" class="country_club"/>
<path d="M 4644.6844 988.3622 4749.9042 951.3427 4675.4877 1147.4936 4741.501 1128.4922 4644.6844 988.3622 Z" fill="none" stroke="#865327" opacity="0.6" stroke-width="1" class="country_club"/>
<path d="M 4643.7598 987.904 4697.4842 949.3814 4742.0485 949.059 4787.3662 977.0257 4757.1044 1080.6075 4739.42 1127.3463 4671.3333 1148.8824 4643.7598 987.904 Z" fill="none" stroke="#865327" opacity="0.6" stroke-width="1" class="country_club"/>
<path d="M 4646.7766 995.374 4643.4118 987.0996 4697.0196 948.0023 4742.9712 948.597 4742.4248 1128.4903 4672.2524 1146.5799 4646.7766 995.374 Z" fill="none" stroke="#865327" opacity="0.6" stroke-width="1" class="country_club"/>
<path d="M 4647.9154 987.4357 4701.4092 949.1433 4707.4326 958.7918 4747.1294 949.5084 4757.1151 1085.6686 4746.1132 1125.2617 4672.2534 1147.04 4657.8908 1125.4429 4646.1763 1041.7274 4653.212 1095.5447 4647.9154 987.4357 Z" fill="none" stroke="#865327" opacity="0.6" stroke-width="1" class="country_club"/>
<path d="M 4733.4197 1129.4294 4672.2543 1147.5002 4651.7771 1070.932 4650.6803 984.4398 4697.4847 949.6114 4740.1965 946.7627 4750.4667 999.1869 4752.9461 1079.9262 4733.4197 1129.4294 Z" fill="none" stroke="#865327" opacity="0.6" stroke-width="1" class="country_club"/>
<path d="M 4643.3026 990.2052 4692.1767 951.0024 4703.7324 956.0392 4742.0524 950.8992 4737.9663 984.4912 4754.1226 980.7768 4770.3432 1007.426 4739.427 1020.3732 4752.9495 1081.5365 4741.9648 1129.4115 4668.5535 1144.7468 4654.6548 1124.069 4636.8433 993.4385 4643.3026 990.2052 Z" fill="none" stroke="#865327" opacity="0.6" stroke-width="1" class="country_club"/>
<path d="M 4646.5354 990.1988 4693.5593 949.6195 4742.5074 947.6779 4745.3923 1001.9579 4737.341 1127.1206 4650.5575 1153.9857 4646.5354 990.1988 Z" fill="none" stroke="#865327" opacity="0.6" stroke-width="1" class="country_club"/>
<path d="M 4649.3925 1033.3245 4656.2074 1034.5761 4658.6342 1035.6064 4662.1007 1036.8647 4667.0751 1041.5705 4669.2796 1046.857 4672.8683 1051.4506 4677.03 1053.8577 4678.5333 1055.0048 4685.4685 1058.5565 4689.2787 1058.4337 4695.0541 1059.4571 4697.0152 1058.5329 4704.7519 1058.747 4707.1764 1058.627 4717.4462 1055.3852 4733.7183 1051.2105 4734.4132 1052.2443 4738.6987 1058.5616 4742.8704 1065.6843 4748.7655 1068.6625 4756.3017 1083.2548 4740.2592 1086.9694 4738.4399 1100.4314 4739.8629 1118.2579 4741.2637 1125.5019 4742.0754 1127.1107 4726.2664 1132.4351 4711.0289 1134.9974 4702.2599 1138.4664 4686.219 1143.5607 4678.4873 1146.1071 4675.3726 1147.7239 4670.6295 1143.4773 4667.618 1138.9971 4666.3397 1134.9735 4662.7398 1124.973 4660.8703 1114.0489 4661.1954 1103.4656 4661.7663 1100.2436 4660.9469 1094.724 4659.664 1088.4001 4653.0799 1087.263 4650.7668 1085.4272 4649.9438 1078.0672 4647.5052 1071.1706 4647.3808 1066.6849 4647.2493 1058.6335 4647.3615 1057.023 4647.7742 1032.4076 4649.3925 1033.3245 Z" fill="none" stroke="#865327" opacity="0.6" stroke-width="1" class="country_club"/>
<path d="M 4646.5299 987.4384 4702.7993 951.4407 4774.8106 936.5688 4816.5612 1022.969 4796.4659 1127.9153 4685.6478 1146.5527 4653.2534 1116.2497 4646.5299 987.4384 Z" fill="none" stroke="#865327" opacity="0.6" stroke-width="1" class="country_club"/></svg>