<?xml version="1.0"?><svg xmlns="http://www.w3.org/2000/svg" version="1.2" baseProfile="tiny" width="6000" height="5918" viewBox="0 0 6000 5918" stroke-linecap="round" stroke-linejoin="round"><path d="M 3885.4701 3357.2087 4039.0623 3267.5448 4196.3944 3221.2048 4212.2383 3289.4315 3891.9915 3390.4082 3885.4701 3357.2087 Z" fill="none" stroke="#12852D" opacity="0.6" stroke-width="1" class="cypress_hills"/>
<path d="M 4059.684 3258.8111 4087.278 3199.7928 4111.3666 3211.7482 4192.793 3180.2722 4262.8694 3285.3811 4082.1763 3453.4078 4059.684 3258.8111 Z" fill="none" stroke="#12852D" opacity="0.6" stroke-width="1" class="cypress_hills"/>
<path d="M 4228.7205 3170.4314 4242.7776 3279.2386 3984.5715 3373.6895 3970.5427 3264.8678 4019.6149 3264.8039 4228.7205 3170.4314 Z" fill="none" stroke="#12852D" opacity="0.6" stroke-width="1" class="cypress_hills"/>
<path d="M 4208.5396 3292.6654 4091.9334 3335.2651 3995.2192 3372.7533 3934.5881 3390.3564 3897.0923 3396.8592 3877.6486 3399.1884 3866.4681 3340.6278 3882.1893 3323.5453 3880.7824 3308.3279 3884.9328 3294.4877 3902.4931 3267.719 3918.7277 3293.5247 3951.1019 3267.1981 4079.2188 3181.2568 4106.5793 3215.8029 4132.0193 3201.4713 4160.2366 3187.5963 4189.3859 3178.3305 4208.5396 3292.6654 Z" fill="none" stroke="#12852D" opacity="0.6" stroke-width="1" class="cypress_hills"/>
<path d="M 3912.2272 3277.8529 3968.597 3191.0876 4360.9773 3091.8312 4400.0681 3213.4962 4288.1187 3261.6424 4105.7973 3317.2592 4034.4378 3271.2404 3928.0266 3325.7959 3912.2272 3277.8529 Z" fill="none" stroke="#12852D" opacity="0.6" stroke-width="1" class="cypress_hills"/>
<path d="M 4191.7432 3184.0153 4207.3309 3290.2977 3986.9524 3377.4407 3922.8934 3320.6988 3918.4757 3304.7934 3987.3736 3254.1621 4191.7432 3184.0153 Z" fill="none" stroke="#12852D" opacity="0.6" stroke-width="1" class="cypress_hills"/>
<path d="M 3815.1405 3397.8762 3839.2014 3384.0125 3838.2272 3341.5827 3870.6295 3336.011 3879.8576 3309.2513 3896.4836 3275.1048 3918.7232 3289.8353 3963.1391 3267.6441 4016.8055 3240.8277 4041.8288 3259.2403 4126.0007 3201.0189 4209.2816 3172.3058 4234.2739 3169.5006 4251.8553 3163.9397 4269.6083 3266.2837 4147.4593 3313.5097 3946.6229 3387.5741 3872.556 3399.6556 3827.1809 3399.7076 3815.1405 3397.8762 Z" fill="none" stroke="#12852D" opacity="0.6" stroke-width="1" class="cypress_hills"/>
<path d="M 3811.213 3372.5228 3860.9693 3337.0507 3885.6777 3332.3886 3884.719 3304.7186 3908.035 3252.8105 3957.9557 3191.8786 4020.8795 3167.819 4084.753 3163.1208 4118.6966 3105.1721 4174.2049 3081.115 4187.0913 3032.2235 4223.1765 3022.0255 4321.5928 3008.338 4362.1394 3089.8319 4398.4719 3222.5686 4372.9453 3231.8417 4293.3751 3265.1766 4183.567 3313.317 4099.9251 3335.0445 3981.4604 3380.4024 3870.8736 3407.6875 3813.709 3396.2598 3811.213 3372.5228 Z" fill="none" stroke="#12852D" opacity="0.6" stroke-width="1" class="cypress_hills"/>
<path d="M 4169.3519 3247.1847 4167.3656 3234.5061 4173.845 3233.4589 4175.7143 3245.2153 4175.4822 3244.7545 4172.1233 3243.0302 4169.3519 3247.1847 Z" fill="none" stroke="#12852D" opacity="0.6" stroke-width="1" class="cypress_hills"/>
<path d="M 3919.6931 3325.8062 4020.5151 3245.4342 4072.4659 3319.1506 3941.9836 3380.2005 3919.6931 3325.8062 Z" fill="none" stroke="#12852D" opacity="0.6" stroke-width="1" class="cypress_hills"/>
<path d="M 3900.8835 3276.7136 3886.3564 3323.7709 3918.7437 3306.6682 4037.2053 3263.6275 4205.9483 3263.1548 4206.642 3262.6925 4292.8816 3344.1856 4316.5514 3520.3409 4329.2085 3613.5038 4200.6905 3611.6317 4114.2203 3379.9704 4096.095 3331.5697 3900.8835 3276.7136 Z" fill="none" stroke="#12852D" opacity="0.6" stroke-width="1" class="cypress_hills"/>
<path d="M 3855.1073 3378.689 3844.8846 3383.5687 3846.861 3384.6172 3853.6836 3378.8442 3853.7809 3378.7927 3881.7745 3357.8096 3895.328 3349.717 3922.1337 3337.8941 3944.8618 3320.3423 3972.8676 3303.0539 3999.2471 3286.3871 4025.9994 3269.6783 4030.2658 3270.9374 4035.5703 3263.4111 4046.3187 3257.227 4057.9438 3249.2483 4068.4306 3246.7203 4074.8624 3237.0656 4074.9972 3238.9053 4092.8025 3227.6987 4109.6316 3215.8481 4140.9944 3196.6305 4187.3809 3180.9649 4194.1833 3217.5734 4199.3108 3240.8533 4226.6887 3251.4976 4219.7503 3255.1976 4144.3534 3286.3367 4095.599 3300.5314 4036.5425 3323.2936 3951.8549 3362.8914 3855.1073 3378.689 Z" fill="none" stroke="#12852D" opacity="0.6" stroke-width="1" class="cypress_hills"/>
<path d="M 4020.6143 3320.1433 4068.7329 3297.9415 4090.0104 3284.5379 4110.8276 3273.4405 4114.9672 3254.5271 4115.9168 3271.1274 4127.0129 3260.966 4156.6386 3259.0782 4145.5495 3273.8516 4134.428 3266.4892 4102.9816 3290.5148 4067.84 3321.9241 3980.801 3322.04 4040.0169 3288.7572 4043.733 3297.9756 4075.1735 3268.4178 4102.9085 3238.8651 4143.5982 3205.6047 4204.6863 3194.4465 4263.9769 3218.3332 4134.4681 3294.1591 4173.3018 3257.2089 4197.3524 3242.4159 4236.2015 3218.3768 4141.7868 3233.2756 4020.6143 3320.1433 Z" fill="none" stroke="#12852D" opacity="0.6" stroke-width="1" class="cypress_hills"/>
<path d="M 4239.8243 3166.7253 4310.4772 3345.5406 4358.836 3469.0695 4144.0502 3515.5342 4201.6164 3611.3997 3992.4248 3716.8827 3914.458 3589.6489 3869.7391 3366.4513 4032.5576 3250.0297 4239.8243 3166.7253 Z" fill="none" stroke="#12852D" opacity="0.6" stroke-width="1" class="cypress_hills"/>
<path d="M 3878.4948 3331.3899 4208.8187 3172.3065 4237.683 3277.863 3886.9072 3397.7937 3878.5013 3336.9242 3878.4948 3331.3899 Z" fill="none" stroke="#12852D" opacity="0.6" stroke-width="1" class="cypress_hills"/>
<path d="M 4056.2247 2953.0621 3901.2095 3355.3451 4188.002 3181.5604 4202.4362 3236.8744 4218.7169 3287.5769 4091.4704 3335.2658 4005.8621 3368.1273 3955.4153 3383.8734 3890.6041 3391.7935 3879.4577 3362.7502 3902.5863 3345.197 4056.2247 2953.0621 Z" fill="none" stroke="#12852D" opacity="0.6" stroke-width="1" class="cypress_hills"/>
<path d="M 4014.6088 3279.3021 4157.6825 3191.4925 4172.1892 3296.613 4044.9398 3344.7572 4014.6088 3279.3021 Z" fill="none" stroke="#12852D" opacity="0.6" stroke-width="1" class="cypress_hills"/>
<path d="M 4040.9017 3258.3192 4121.3835 3209.3259 4148.2071 3191.7641 4188.9251 3179.7145 4198.0482 3243.3372 4202.4755 3262.6989 4205.7653 3294.9755 4120.6269 3327.3841 4016.045 3365.8078 3933.665 3392.6637 3879.9686 3403.3366 3870.1994 3364.1447 3840.0844 3346.1925 3874.3366 3338.7738 3879.3941 3308.7907 3901.107 3270.0265 3913.1772 3297.682 3950.6401 3268.121 3963.1677 3290.2412 3984.4495 3279.146 3998.8095 3285.5837 4034.8853 3259.7108 4040.9017 3258.3192 Z" fill="none" stroke="#12852D" opacity="0.6" stroke-width="1" class="cypress_hills"/>
<path d="M 4039.0574 3263.8556 4056.6316 3250.9194 4074.2118 3242.5945 4093.6317 3225.9662 4111.2137 3219.4854 4126.0153 3211.1637 4143.5914 3200.9934 4157.468 3193.595 4176.9102 3193.5662 4184.3099 3188.9439 4199.1635 3215.6669 4199.1887 3232.2679 4194.5789 3245.187 4193.6726 3258.1007 4194.6055 3262.7108 4196.474 3273.7759 4199.2587 3278.3833 4200.1902 3282.0712 4210.3935 3294.0461 4187.2552 3300.5376 4165.9617 3302.4141 4150.2263 3306.1268 4128.0119 3311.6932 4115.0515 3313.5565 4104.8805 3323.7171 4100.2573 3328.3355 4091.4698 3334.8046 4082.2147 3338.0459 4071.5719 3342.2114 4063.7081 3347.2954 4054.4453 3345.0021 4047.4705 3322.8743 4052.0826 3309.9549 4040.0218 3292.4465 4044.6252 3273.0713 4039.0574 3263.8556 Z" fill="none" stroke="#12852D" opacity="0.6" stroke-width="1" class="cypress_hills"/>
<path d="M 4179.6698 3181.5729 4196.7397 3296.3727 3880.4269 3399.4157 3870.6616 3363.4524 4176.8913 3180.8854 4179.6698 3181.5729 Z" fill="none" stroke="#12852D" opacity="0.6" stroke-width="1" class="cypress_hills"/>
<path d="M 3951.9253 3185.5753 4194.5427 3221.2076 4271.4704 3272.737 3882.7434 3400.566 3874.3637 3361.8338 3951.9253 3185.5753 Z" fill="none" stroke="#12852D" opacity="0.6" stroke-width="1" class="cypress_hills"/>
<path d="M 4138.0512 3211.1463 3869.7348 3362.7616 3878.9143 3294.4948 4226.8119 3133.546 4406.3264 3085.2985 4513.8834 3179.1691 4519.5512 3240.0282 4327.0471 3286.4818 4064.1667 3344.0664 3940.135 3382.9701 3890.1131 3368.2721 3849.3737 3372.0094 3851.2257 3372.0073 4138.0512 3211.1463 Z" fill="none" stroke="#12852D" opacity="0.6" stroke-width="1" class="cypress_hills"/>
<path d="M 3878.1154 3402.4164 3881.7345 3330.4637 4251.851 3161.1731 4265.9121 3270.9012 3878.1154 3402.4164 Z" fill="none" stroke="#12852D" opacity="0.6" stroke-width="1" class="cypress_hills"/>
<path d="M 3977.4024 3560.0465 3871.9151 3643.2138 3857.0395 3595.2527 3869.9116 3514.0491 3932.7726 3419.8772 4041.911 3320.1147 4319.9129 3452.5292 3977.4024 3560.0465 Z" fill="none" stroke="#12852D" opacity="0.6" stroke-width="1" class="cypress_hills"/>
<path d="M 4394.529 3222.7285 3879.5017 3400.1086 3875.2539 3331.3937 4016.3462 3243.5952 4037.6648 3261.0905 4175.0442 3183.8854 4358.2864 3143.0166 4356.9016 3145.3244 4359.2161 3145.3205 4394.529 3222.7285 Z" fill="none" stroke="#12852D" opacity="0.6" stroke-width="1" class="cypress_hills"/>
<path d="M 4189.8537 3181.5576 4208.5332 3288.5149 4220.5658 3285.7294 4096.5574 3331.1079 3880.8924 3401.4907 3874.3669 3364.601 3982.622 3298.0563 4052.9294 3251.8467 4101.0307 3220.4221 4145.4337 3194.5349 4189.8537 3181.5576 Z" fill="none" stroke="#12852D" opacity="0.6" stroke-width="1" class="cypress_hills"/>
<path d="M 3873.4366 3360.9125 4014.9379 3228.8404 4086.3422 3309.9076 3872.515 3364.6032 3873.4366 3360.9125 Z" fill="none" stroke="#12852D" opacity="0.6" stroke-width="1" class="cypress_hills"/>
<path d="M 3483.3972 3098.4386 3469.4893 3068.9405 3787.9206 3060.3505 3924.9511 3083.2455 3798.2806 3222.6461 3752.0835 3314.0052 3483.3972 3098.4386 Z" fill="none" stroke="#12852D" opacity="0.6" stroke-width="1" class="cypress_hills"/>
<path d="M 3880.8908 3400.107 3878.5323 3363.2125 4168.5744 3191.273 4190.0254 3295.4605 3880.8908 3400.107 Z" fill="none" stroke="#12852D" opacity="0.6" stroke-width="1" class="cypress_hills"/>
<path d="M 3877.1438 3363.6754 4189.8411 3173.2575 4268.6927 3272.7414 4099.3326 3329.2592 3877.1905 3403.3399 3877.1438 3363.6754 Z" fill="none" stroke="#12852D" opacity="0.6" stroke-width="1" class="cypress_hills"/>
<path d="M 4033.9681 3266.1682 4191.7707 3224.9009 4198.2671 3235.0362 4198.3013 3257.6325 4234.433 3271.873 4233.5286 3285.7093 4216.8664 3288.5021 4197.4418 3301.4446 4184.4913 3309.7654 4152.5513 3313.0411 4140.9811 3315.8251 4125.2507 3323.2268 4115.0739 3329.2368 4100.2645 3333.4086 4086.3841 3339.8848 4072.9666 3346.3602 4056.3016 3348.2279 4049.3412 3336.7075 4047.0081 3323.3361 4042.8226 3309.5063 4040.0268 3296.1359 4034.4515 3281.386 4033.9681 3266.1682 Z" fill="none" stroke="#12852D" opacity="0.6" stroke-width="1" class="cypress_hills"/>
<path d="M 4137.3557 3369.7904 3944.7939 3406.0253 3928.0311 3329.4855 4097.3312 3223.1941 4137.3557 3369.7904 Z" fill="none" stroke="#12852D" opacity="0.6" stroke-width="1" class="cypress_hills"/>
<path d="M 3871.1276 3365.9885 3878.0258 3326.3173 3890.0209 3290.7923 3900.6507 3275.561 3934.8485 3226.6372 3952.4328 3221.0816 3970.5386 3261.6396 4016.8073 3242.2111 4035.8137 3261.5542 4105.6547 3216.7265 4188.4615 3179.2541 4233.8095 3168.5791 4252.9488 3270.4605 4115.9965 3326.9296 3997.5318 3370.9054 3929.9638 3394.9743 3881.8162 3399.6447 3856.8168 3402.4412 3813.2926 3401.568 3871.1276 3365.9885 Z" fill="none" stroke="#12852D" opacity="0.6" stroke-width="1" class="cypress_hills"/>
<path d="M 3831.8048 3394.1677 3822.0847 3396.946 3854.4725 3377.0769 3923.8683 3332.7189 3973.3717 3304.9858 4064.0412 3252.7538 4111.6681 3213.49 4183.382 3187.5619 4196.4 3224.8939 4205.695 3248.8593 4260.8204 3271.3704 4178.0008 3303.7798 4101.6593 3337.5574 4076.6704 3346.3551 4017.4389 3369.4956 3958.6587 3385.7142 3916.5399 3397.7581 3856.8163 3401.98 3821.6222 3397.4077 3831.8048 3394.1677 Z" fill="none" stroke="#12852D" opacity="0.6" stroke-width="1" class="cypress_hills"/>
<path d="M 4187.5378 3180.6388 4219.6435 3288.0367 4136.8184 3318.5982 3876.7204 3397.3446 3755.4035 3389.6387 3736.7562 3266.0593 3996.8825 3227.9418 4154.9968 3087.0848 4187.5378 3180.6388 Z" fill="none" stroke="#12852D" opacity="0.6" stroke-width="1" class="cypress_hills"/>
<path d="M 3879.0289 3334.4465 3947.5022 3201.4776 4189.1633 3180.2115 4293.5411 3476.5185 3945.0295 3637.9261 3879.0289 3334.4465 Z" fill="none" stroke="#12852D" opacity="0.6" stroke-width="1" class="cypress_hills"/>
<path d="M 4188.2335 3181.56 4237.6232 3388.0881 4236.9262 3386.4749 4171.1898 3393.4933 4090.8875 3414.8257 4056.3986 3249.7668 4146.3571 3192.9196 4188.2335 3181.56 Z" fill="none" stroke="#12852D" opacity="0.6" stroke-width="1" class="cypress_hills"/>
<path d="M 3888.2392 3349.8262 3827.0255 3261.3506 3810.2514 3163.609 3712.0879 3134.2019 3610.2095 3084.5015 3567.5577 3003.3936 3658.2177 2947.99 3763.7533 2966.3248 3861.8924 2988.3449 3952.6703 3041.7156 3978.6247 3069.3461 4021.2412 3095.1103 4097.1649 3105.1501 4102.671 3071.0229 4100.7648 3032.2969 4185.8704 2995.2898 4256.2587 3020.9993 4271.1985 3102.1223 4290.8085 3207.223 4283.4878 3260.7276 4225.2609 3328.1507 3948.9962 3434.1554 3928.1633 3436.9487 3915.1542 3400.5271 3911.4054 3363.6344 3888.2392 3349.8262 Z" fill="none" stroke="#12852D" opacity="0.6" stroke-width="1" class="cypress_hills"/>
<path d="M 3818.8451 3398.3333 4144.9701 3194.0745 4187.0748 3180.6395 4208.5367 3290.8207 3981.7976 3376.9216 3876.2612 3400.5737 3818.8451 3398.3333 Z" fill="none" stroke="#12852D" opacity="0.6" stroke-width="1" class="cypress_hills"/>
<path d="M 3904.9779 3408.8416 4384.3778 3242.114 4430.9216 3384.0775 3914.328 3482.6297 3904.9779 3408.8416 Z" fill="none" stroke="#12852D" opacity="0.6" stroke-width="1" class="cypress_hills"/>
<path d="M 3759.7252 3366.7828 3825.2942 3318.4658 3798.3803 3262.2327 3840.8851 3186.5585 3897.6197 3145.386 3970.657 3067.8338 4085.5988 3028.3698 4194.4783 3022.6061 4393.9545 2931.9233 4577.3719 2992.964 4665.0864 3252.2615 4450.463 3323.7378 4367.0983 3336.0656 4148.8062 3366.4041 4006.2412 3395.1974 3928.3485 3399.2961 3843.1618 3405.8543 3756.9782 3396.3035 3759.7252 3366.7828 Z" fill="none" stroke="#12852D" opacity="0.6" stroke-width="1" class="cypress_hills"/>
<path d="M 3458.3788 3066.1823 3613.7351 2887.1803 3969.1538 2901.5456 4071.4062 3222.3081 3838.2303 3344.3499 3458.3788 3066.1823 Z" fill="none" stroke="#12852D" opacity="0.6" stroke-width="1" class="cypress_hills"/>
<path d="M 3972.431 3293.4576 4163.9242 3176.9852 4188.1784 3298.6915 3893.8545 3399.6304 3804.0253 3395.1211 3851.1971 3347.1022 3890.9205 3268.6552 3950.1685 3261.2042 3972.431 3293.4576 Z" fill="none" stroke="#12852D" opacity="0.6" stroke-width="1" class="cypress_hills"/>
<path d="M 3901.4923 3282.5144 3922.2724 3314.9559 3952.6071 3286.1409 3956.3182 3292.0392 3964.4794 3302.3592 4195.3965 3173.6549 4194.667 3181.0339 4205.9454 3291.6917 3878.6663 3398.3938 3880.7781 3304.6753 3896.3055 3281.0449 3901.4923 3282.5144 Z" fill="none" stroke="#12852D" opacity="0.6" stroke-width="1" class="cypress_hills"/></svg>