<?xml version="1.0"?><svg xmlns="http://www.w3.org/2000/svg" version="1.2" baseProfile="tiny" width="6000" height="5918" viewBox="0 0 6000 5918" stroke-linecap="round" stroke-linejoin="round"><path d="M 1693.0874 4689.6897 1659.2992 4640.2343 1738.2368 4527.6447 1786.8656 4571.5654 1858.6657 4629.8244 1877.6257 4681.1058 1856.2384 4743.4365 1863.6316 4770.2327 1840.4299 4788.2241 1820.958 4784.9716 1765.3494 4752.5824 1693.0874 4689.6897 Z" fill="none" stroke="#A9159C" opacity="0.6" stroke-width="1" class="dongan_hills"/>
<path d="M 1645.5606 4533.4363 1704.3521 4387.8839 1886.8236 4516.203 1768.6937 4749.6252 1605.9821 4593.2566 1645.5606 4533.4363 Z" fill="none" stroke="#A9159C" opacity="0.6" stroke-width="1" class="dongan_hills"/>
<path d="M 1790.6212 4526.0839 1793.1713 4525.6248 1826.9669 4570.4515 1797.2413 4625.3763 1816.4138 4692.5925 1818.4195 4773.1908 1761.4251 4736.6435 1665.0574 4672.1075 1693.3749 4640.5044 1705.2109 4628.2795 1790.6212 4526.0839 Z" fill="none" stroke="#A9159C" opacity="0.6" stroke-width="1" class="dongan_hills"/>
<path d="M 1715.391 4645.8401 1767.3761 4589.5551 1844.2869 4636.7379 1809.9316 4683.8109 1804.3614 4690.2711 1875.7208 4734.6794 1822.7801 4817.7685 1700.4537 4735.8841 1669.8854 4706.7517 1715.391 4645.8401 Z" fill="none" stroke="#A9159C" opacity="0.6" stroke-width="1" class="dongan_hills"/>
<path d="M 1674.1843 4597.5337 1671.4323 4571.9008 1636.2406 4537.6874 1653.9381 4467.9829 1682.0142 4439.8496 1776.9907 4483.357 1833.2717 4523.3563 1880.266 4584.5876 1846.6085 4633.0455 1811.3218 4684.5051 1803.8916 4696.2747 1769.9925 4746.5828 1674.0919 4677.66 1674.1843 4597.5337 Z" fill="none" stroke="#A9159C" opacity="0.6" stroke-width="1" class="dongan_hills"/>
<path d="M 1656.1318 4560.7116 1707.5569 4454.7244 1846.7437 4510.7628 1700.2732 4739.3504 1626.0716 4671.7738 1656.1318 4560.7116 Z" fill="none" stroke="#A9159C" opacity="0.6" stroke-width="1" class="dongan_hills"/>
<path d="M 1663.2496 4631.9261 1773.5156 4481.9682 2012.2178 4655.1286 1900.0092 4793.8232 1663.2496 4631.9261 Z" fill="none" stroke="#A9159C" opacity="0.6" stroke-width="1" class="dongan_hills"/>
<path d="M 1754.9288 4524.1994 1775.7546 4557.2384 1731.9487 4555.1136 1733.3724 4524.8688 1754.9288 4524.1994 Z" fill="none" stroke="#A9159C" opacity="0.6" stroke-width="1" class="dongan_hills"/>
<path d="M 1630.9824 4670.2199 1716.2037 4540.0884 1849.6267 4628.1994 1927.3919 4765.9034 1838.2935 4839.0319 1630.9824 4670.2199 Z" fill="none" stroke="#A9159C" opacity="0.6" stroke-width="1" class="dongan_hills"/>
<path d="M 1686.1039 4649.9137 1775.0943 4698.267 1732.8202 4773.5068 1680.7786 4733.5805 1644.5573 4694.6042 1632.3724 4678.7631 1624.7329 4669.9789 1669.0651 4607.5975 1676.3588 4616.469 1687.2275 4639.3415 1688.2886 4646.9841 1686.1039 4649.9137 Z" fill="none" stroke="#A9159C" opacity="0.6" stroke-width="1" class="dongan_hills"/>
<path d="M 1687.2192 4753.4203 1710.6621 4728.9674 1775.9818 4783.309 1760.8898 4804.0786 1687.2192 4753.4203 Z" fill="none" stroke="#A9159C" opacity="0.6" stroke-width="1" class="dongan_hills"/>
<path d="M 1730.7965 4548.8782 1816.0386 4604.3829 1701.3795 4737.2707 1632.3744 4669.2979 1730.7965 4548.8782 Z" fill="none" stroke="#A9159C" opacity="0.6" stroke-width="1" class="dongan_hills"/>
<path d="M 1667.424 4430.5983 1685.9889 4409.3806 1723.9944 4411.2701 1771.2741 4409.4741 1803.7167 4412.2779 1818.5249 4436.3023 1823.1325 4464.0109 1829.5891 4497.2631 1815.6585 4521.2608 1790.5729 4572.9546 1615.1352 4739.0173 1591.9278 4758.3877 1548.3956 4716.7642 1581.8771 4638.2933 1566.1925 4576.3912 1667.424 4430.5983 Z" fill="none" stroke="#A9159C" opacity="0.6" stroke-width="1" class="dongan_hills"/>
<path d="M 1747.9786 4521.1904 1932.682 4550.4628 1835.8329 4747.5736 1667.6652 4622.233 1747.9786 4521.1904 Z" fill="none" stroke="#A9159C" opacity="0.6" stroke-width="1" class="dongan_hills"/>
<path d="M 1638.5712 4526.954 1636.8316 4527.9909 1646.0022 4515.1878 1655.0738 4487.7239 1669.1074 4477.9281 1718.3587 4477.753 1758.2349 4466.7144 1793.4844 4446.4349 1834.2845 4436.3179 1866.723 4444.6604 1894.514 4466.8497 1892.6002 4531.4938 1895.3332 4584.1398 1864.6922 4630.292 1839.6164 4671.8325 1819.2155 4672.736 1762.6736 4652.357 1726.5372 4628.3031 1676.5158 4585.7605 1648.7493 4544.1672 1638.5712 4526.954 Z" fill="none" stroke="#A9159C" opacity="0.6" stroke-width="1" class="dongan_hills"/>
<path d="M 1662.1031 4594.9862 1682.1249 4576.3989 1752.5714 4594.0253 1770.1327 4646.6908 1749.9581 4697.3536 1555.9313 4921.1752 1511.4204 4913.726 1467.8552 4882.0403 1471.7907 4840.4672 1584.0608 4721.4344 1662.1031 4594.9862 Z" fill="none" stroke="#A9159C" opacity="0.6" stroke-width="1" class="dongan_hills"/>
<path d="M 1767.5002 4691.6185 1752.8952 4691.8339 1859.2344 4762.1455 1892.1245 4795.8945 1733.0969 4989.9832 1470.6001 4813.8879 1661.6275 4631.4624 1722.5496 4670.787 1752.8964 4690.6793 1767.5002 4691.6185 Z" fill="none" stroke="#A9159C" opacity="0.6" stroke-width="1" class="dongan_hills"/>
<path d="M 1540.0127 4745.3892 1536.2865 4758.317 1530.7441 4741.6822 1540.0223 4737.9993 1499.7979 4305.7317 1790.8441 4309.7697 1872.2644 4466.829 1540.0127 4745.3892 Z" fill="none" stroke="#A9159C" opacity="0.6" stroke-width="1" class="dongan_hills"/>
<path d="M 1633.9316 4530.2963 1630.2336 4521.5183 1629.3126 4516.4377 1701.2514 4438.948 1734.6098 4452.8369 1819.825 4526.8062 1727.0241 4607.0602 1633.9316 4530.2963 Z" fill="none" stroke="#A9159C" opacity="0.6" stroke-width="1" class="dongan_hills"/>
<path d="M 1672.0923 4401.9773 1765.7149 4406.698 1757.0805 4680.0613 1568.8631 4664.1395 1560.8493 4403.689 1672.0923 4401.9773 Z" fill="none" stroke="#A9159C" opacity="0.6" stroke-width="1" class="dongan_hills"/>
<path d="M 1640.7355 4656.1455 1673.9357 4612.0804 1687.6718 4559.682 1716.4401 4535.9327 1756.5631 4513.1187 1821.9083 4529.5789 1836.0454 4531.2091 1818.8413 4583.3737 1789.8199 4628.8323 1763.3543 4666.2128 1739.6781 4694.8217 1699.2938 4736.5756 1659.6916 4701.1976 1629.3528 4675.9909 1640.7355 4656.1455 Z" fill="none" stroke="#A9159C" opacity="0.6" stroke-width="1" class="dongan_hills"/>
<path d="M 1756.2183 4619.0989 1772.9343 4594.1789 1780.8107 4598.8052 1800.2578 4622.3776 1748.261 4689.7506 1711.2014 4661.0759 1744.1565 4626.475 1750.1864 4623.7106 1766.3709 4663.4449 1756.2183 4619.0989 Z" fill="none" stroke="#A9159C" opacity="0.6" stroke-width="1" class="dongan_hills"/>
<path d="M 1700.9673 4691.546 1712.3384 4680.9363 1717.2117 4676.3232 1720.9256 4671.9399 1716.9939 4663.6224 1735.2 4655.7912 1748.0768 4645.414 1759.908 4637.1138 1776.3594 4643.8276 1786.7797 4654.6914 1788.3876 4669.01 1784.4371 4678.2427 1777.9378 4686.3182 1768.8848 4697.6241 1760.1753 4712.8561 1754.2496 4726.0129 1736.8457 4741.2358 1724.0895 4746.0716 1710.8841 4737.7432 1693.5079 4727.7935 1685.1759 4715.5446 1678.0009 4705.3755 1675.8075 4697.6369 1681.9676 4682.9803 1689.0469 4675.2525 1698.3276 4668.2199 1709.8167 4655.5323 1716.545 4650.3442 1724.306 4654.6247 1700.9673 4691.546 Z" fill="none" stroke="#A9159C" opacity="0.6" stroke-width="1" class="dongan_hills"/>
<path d="M 1591.232 4571.8046 1690.8747 4422.1333 1886.2967 4587.3641 1832.0852 4786.3683 1591.232 4571.8046 Z" fill="none" stroke="#A9159C" opacity="0.6" stroke-width="1" class="dongan_hills"/>
<path d="M 1755.436 4483.3343 1753.803 4276.4915 1989.1417 4385.6692 1755.436 4483.3343 Z" fill="none" stroke="#A9159C" opacity="0.6" stroke-width="1" class="dongan_hills"/>
<path d="M 1709.6719 4785.3159 1698.5642 4766.8278 1671.6803 4758.4832 1705.1887 4648.1379 1727.9351 4621.8392 1703.3928 4595.9507 1702.9639 4565.0098 1724.3212 4535.4796 1755.8675 4513.3489 1780.889 4523.5341 1818.4292 4531.8843 1838.8266 4531.4427 1867.5615 4537.9352 1868.4773 4549.9423 1867.5317 4569.3364 1879.5724 4582.7398 1870.7639 4582.9624 1862.635 4599.8104 1859.6013 4621.0508 1848.9213 4638.5897 1841.4871 4655.2082 1838.472 4656.8217 1830.5768 4670.4381 1830.8027 4676.4423 1819.6625 4689.3629 1821.9683 4701.8351 1828.2294 4699.994 1831.9329 4705.7708 1842.8172 4717.5589 1850.2272 4726.3415 1861.3467 4735.1277 1858.5632 4736.7416 1864.8223 4737.2094 1849.7448 4745.7396 1841.392 4752.6597 1828.3913 4770.6603 1825.8419 4769.734 1816.0965 4777.8074 1814.4637 4787.621 1813.1836 4792.5851 1810.8595 4798.1255 1806.332 4804.4721 1800.7583 4813.5891 1791.7123 4817.2751 1781.5156 4812.6455 1771.7856 4805.2448 1767.3804 4805.2402 1761.3543 4803.3862 1754.5196 4798.7599 1748.3801 4794.5962 1739.3476 4785.8104 1742.5974 4782.1188 1723.1352 4770.5503 1738.4182 4787.657 1734.9355 4792.2722 1721.3705 4793.9894 1713.3742 4791.7866 1706.1935 4786.0048 1718.4691 4796.9886 1721.0172 4799.0699 1712.3278 4794.5568 1705.1395 4795.4726 1704.4474 4792.4694 1690.7742 4787.3731 1690.6639 4782.4076 1685.8041 4774.5499 1688.7023 4774.4378 1683.4892 4771.4296 1677.8147 4766.5732 1674.8028 4764.8377 1663.9186 4754.2018 1670.1762 4755.9411 1668.9088 4749.3579 1673.077 4753.5196 1709.6719 4785.3159 Z" fill="none" stroke="#A9159C" opacity="0.6" stroke-width="1" class="dongan_hills"/>
<path d="M 1747.9786 4521.1904 1750.753 4527.6582 1795.2315 4550.7936 1669.0534 4624.5437 1707.972 4646.7555 1802.6487 4550.8012 1669.0587 4619.9256 1681.1814 4559.9055 1747.9786 4521.1904 Z" fill="none" stroke="#A9159C" opacity="0.6" stroke-width="1" class="dongan_hills"/>
<path d="M 1673.6048 4697.9808 1655.099 4663.7827 1680.1801 4624.5566 1710.834 4574.7163 1756.3109 4532.2818 1827.204 4565.1412 1810.9339 4609.4576 1712.9799 4729.4319 1673.6048 4697.9808 Z" fill="none" stroke="#A9159C" opacity="0.6" stroke-width="1" class="dongan_hills"/>
<path d="M 1627.7353 4671.6015 1666.2693 4626.6187 1681.6415 4562.9076 1754.0093 4517.041 1876.322 4588.2783 1840.1093 4641.8139 1746.543 4778.1969 1702.3063 4737.7336 1627.7353 4671.6015 Z" fill="none" stroke="#A9159C" opacity="0.6" stroke-width="1" class="dongan_hills"/>
<path d="M 1746.9063 4656.0348 1762.6638 4661.5937 1641.0216 4805.5604 1565.0732 4727.8702 1657.0341 4594.9739 1746.9063 4656.0348 Z" fill="none" stroke="#A9159C" opacity="0.6" stroke-width="1" class="dongan_hills"/>
<path d="M 1763.3778 4425.1641 1757.8088 4431.6223 1755.8668 4514.0415 1835.5789 4534.2102 1808.6222 4603.2209 1660.5205 4785.4907 1577.8277 4724.8842 1674.6732 4575.5989 1631.6215 4523.8288 1679.4903 4417.6841 1728.6467 4395.5771 1763.3778 4425.1641 Z" fill="none" stroke="#A9159C" opacity="0.6" stroke-width="1" class="dongan_hills"/>
<path d="M 1814.4703 4550.3514 1656.6311 4543.2529 1816.094 4549.1986 1814.4703 4550.3514 Z" fill="none" stroke="#A9159C" opacity="0.6" stroke-width="1" class="dongan_hills"/>
<path d="M 1762.8194 4514.7416 1823.9224 4601.8508 1792.8918 4572.0334 1777.8399 4557.9333 1756.0727 4538.2846 1951.9944 4734.0553 1924.6076 4768.4413 1901.633 4792.9009 1892.1187 4802.1302 1875.647 4813.2006 1852.9072 4832.1174 1839.2229 4836.9542 1800.301 4807.3529 1790.3393 4799.7213 1769.2481 4793.0018 1760.9107 4784.4479 1752.5719 4777.2796 1736.5873 4765.7152 1723.8889 4717.6664 1722.2231 4756.6927 1708.0898 4748.8251 1722.499 4716.7411 1713.4461 4727.1231 1696.7381 4741.4223 1680.9848 4731.4742 1686.8374 4681.6003 1696.8161 4672.3748 1707.26 4661.5333 1695.213 4655.0541 1683.1671 4647.6511 1666.73 4629.1592 1676.5116 4589.4549 1681.165 4574.2209 1701.1265 4549.9998 1710.407 4541.929 1753.5245 4536.8966 1762.8194 4514.7416 Z" fill="none" stroke="#A9159C" opacity="0.6" stroke-width="1" class="dongan_hills"/>
<path d="M 1623.751 4515.5075 1735.933 4514.7127 1670.1495 4478.6219 1684.8879 4561.7569 1623.751 4515.5075 Z" fill="none" stroke="#A9159C" opacity="0.6" stroke-width="1" class="dongan_hills"/>
<path d="M 1757.0249 4514.7354 1759.5737 4515.4308 1849.4888 4531.2222 1709.2654 4734.0464 1628.1984 4672.0639 1757.0249 4514.7354 Z" fill="none" stroke="#A9159C" opacity="0.6" stroke-width="1" class="dongan_hills"/>
<path d="M 1781.4554 4647.5275 1707.4154 4729.8876 1645.6049 4654.9967 1695.751 4589.2459 1781.4554 4647.5275 Z" fill="none" stroke="#A9159C" opacity="0.6" stroke-width="1" class="dongan_hills"/>
<path d="M 1767.5689 4406.6999 1772.204 4406.7048 1796.24 4471.3716 1643.0594 4651.299 1542.2268 4467.3833 1606.3666 4327.105 1767.5689 4406.6999 Z" fill="none" stroke="#A9159C" opacity="0.6" stroke-width="1" class="dongan_hills"/>
<path d="M 1808.7674 4688.8901 1710.0872 4828.7355 1683.6752 4811.6149 1672.5655 4794.9736 1573.4243 4723.724 1614.2714 4686.8261 1663.0205 4629.6167 1676.9502 4611.1602 1675.1367 4575.5994 1684.1925 4561.7561 1715.2791 4537.7785 1811.5193 4603.5702 1849.3937 4629.4691 1808.7674 4688.8901 Z" fill="none" stroke="#A9159C" opacity="0.6" stroke-width="1" class="dongan_hills"/>
<path d="M 1823.9231 4601.1581 1740.0576 4772.4163 1707.4046 4739.5868 1667.5768 4698.4357 1789.1769 4578.0329 1830.883 4595.1616 1823.9231 4601.1581 Z" fill="none" stroke="#A9159C" opacity="0.6" stroke-width="1" class="dongan_hills"/>
<path d="M 1580.8423 4724.1952 1669.9827 4622.6975 1757.0766 4683.7561 1658.666 4785.2576 1576.2011 4727.8843 1580.8423 4724.1952 Z" fill="none" stroke="#A9159C" opacity="0.6" stroke-width="1" class="dongan_hills"/>
<path d="M 1686.6801 4616.2513 1818.4861 4475.088 1868.5219 4502.8419 1867.5799 4518.5409 1848.0666 4563.7763 1822.0682 4601.6181 1758.9292 4685.6054 1713.6289 4562.7128 1686.6801 4616.2513 Z" fill="none" stroke="#A9159C" opacity="0.6" stroke-width="1" class="dongan_hills"/>
<path d="M 1627.7345 4672.2942 1629.8247 4669.0639 1671.8404 4619.9288 1678.855 4567.2914 1755.4022 4514.9646 1866.1109 4600.9683 1809.6951 4688.4291 1749.7881 4778.8933 1701.3779 4738.6563 1627.7345 4672.2942 Z" fill="none" stroke="#A9159C" opacity="0.6" stroke-width="1" class="dongan_hills"/>
<path d="M 1629.1254 4672.2959 1715.7427 4537.779 1810.4773 4602.5301 1725.9807 4712.8192 1701.6105 4737.9638 1629.1254 4672.2959 Z" fill="none" stroke="#A9159C" opacity="0.6" stroke-width="1" class="dongan_hills"/>
<path d="M 1671.9605 4516.0262 1660.392 4498.4659 1696.6204 4435.249 1761.4811 4465.3327 1776.2901 4488.4356 1706.2255 4550.2364 1671.9605 4516.0262 Z" fill="none" stroke="#A9159C" opacity="0.6" stroke-width="1" class="dongan_hills"/>
<path d="M 1702.3073 4736.8099 1629.124 4673.4505 1638.5562 4539.5373 1690.308 4483.4934 1812.0987 4603.6862 1702.3073 4736.8099 Z" fill="none" stroke="#A9159C" opacity="0.6" stroke-width="1" class="dongan_hills"/>
<path d="M 1765.9272 4425.1668 1764.489 4470.1841 1771.6575 4485.6602 1749.3725 4518.1905 1742.6227 4544.2733 1744.4545 4565.0555 1723.0865 4604.2851 1690.589 4644.1959 1667.8325 4677.8837 1651.1236 4693.1051 1626.9846 4717.5548 1610.0439 4731.6212 1584.3279 4717.7334 1640.0362 4659.3775 1675.5663 4605.1551 1675.3709 4573.5216 1637.8628 4537.9203 1626.0715 4513.2015 1644.1842 4484.5942 1668.7916 4450.4542 1686.9023 4421.3863 1695.2434 4423.2426 1723.2849 4424.1974 1765.9272 4425.1668 Z" fill="none" stroke="#A9159C" opacity="0.6" stroke-width="1" class="dongan_hills"/>
<path d="M 1958.7256 4724.5928 1847.8028 4835.8078 1869.1547 4813.6564 1714.4673 4642.6063 1777.1178 4583.5619 1843.8206 4639.5084 1864.1978 4662.6195 1948.0702 4714.4226 1958.7256 4724.5928 Z" fill="none" stroke="#A9159C" opacity="0.6" stroke-width="1" class="dongan_hills"/></svg>