<?xml version="1.0"?><svg xmlns="http://www.w3.org/2000/svg" version="1.2" baseProfile="tiny" width="6000" height="5918" viewBox="0 0 6000 5918" stroke-linecap="round" stroke-linejoin="round"><path d="M 5305.7021 1896.3232 5447.0482 1857.251 5595.6882 2096.2969 5649.5993 2186.4149 5690.5261 2261.837 5692.5873 2330.0132 5605.8531 2401.2301 5305.7021 1896.3232 Z" fill="none" stroke="#865327" opacity="0.6" stroke-width="1" class="douglaston"/>
<path d="M 5449.8951 1883.0302 5419.4994 1923.6404 5425.8987 1897.834 5449.8951 1883.0302 Z" fill="none" stroke="#865327" opacity="0.6" stroke-width="1" class="douglaston"/>
<path d="M 5492.5329 1920.6691 5473.035 1892.1739 5450.8013 1876.5807 5430.4825 1884.0062 5416.6713 1904.307 5404.7087 1924.6029 5693.6781 2383.4537 5682.629 2400.0745 5658.6343 2418.5783 5629.9546 2417.7442 5608.6422 2405.8292 5599.3197 2381.8987 5513.7104 2208.01 5498.83 2179.4933 5485.8027 2151.8932 5466.3687 2147.3428 5450.6027 2131.7268 5440.3805 2114.2527 5429.2625 2106.9145 5419.989 2097.7286 5408.8508 2083.0209 5403.2509 2064.6132 5396.724 2045.2872 5402.2181 2025.9281 5386.4628 2013.0763 5401.9942 1945.7943 5399.2847 1968.8283 5408.5799 1986.3028 5421.5663 2001.0038 5693.6723 2381.6107 5698.3175 2388.0466 5701.9746 2374.2132 5697.2637 2346.5844 5698.9877 2306.0367 5683.198 2284.8938 5661.8907 2273.9029 5648.8574 2246.3023 5636.7301 2212.2503 5625.5536 2186.4881 5603.2939 2165.366 5585.6839 2152.5213 5574.504 2124.9176 5558.6684 2086.2741 5545.6162 2050.3872 5535.3607 2021.8622 5521.3642 1978.6115 5505.5251 1937.21 5492.5329 1920.6691 Z" fill="none" stroke="#865327" opacity="0.6" stroke-width="1" class="douglaston"/>
<path d="M 5432.8224 1894.1305 5445.7321 1882.121 5460.5457 1889.4467 5468.9378 1914.2898 5476.3728 1927.6233 5505.111 1953.79 5512.5842 1980.0187 5520.9691 2001.6399 5509.4484 2014.5689 5516.4519 2038.0372 5529.957 2071.1592 5543.9377 2108.4262 5537.0439 2122.7253 5509.2954 2120.9639 5494.9069 2102.1209 5474.9692 2082.8334 5457.4124 2087.4895 5438.4566 2088.004 5422.1946 2059.9542 5411.5075 2041.1007 5428.1194 2029.5398 5435.4843 2018.005 5422.0234 1999.1603 5414.5784 1982.1411 5409.3858 1943.9315 5423.6457 1918.5631 5432.8224 1894.1305 Z" fill="none" stroke="#865327" opacity="0.6" stroke-width="1" class="douglaston"/>
<path d="M 5619.7288 2401.1883 5453.377 2131.7189 5697.1527 2013.0834 5868.175 2281.5398 5619.7288 2401.1883 Z" fill="none" stroke="#865327" opacity="0.6" stroke-width="1" class="douglaston"/>
<path d="M 5426.57 2135.9404 5488.1426 1921.1422 5564.0628 2112.2819 5580.1987 2096.3432 5655.173 2194.4591 5645.7095 2427.1418 5527.1766 2306.0943 5426.57 2135.9404 Z" fill="none" stroke="#865327" opacity="0.6" stroke-width="1" class="douglaston"/>
<path d="M 5422.7866 2106.0115 5389.3802 2064.6518 5397.3995 1955.9387 5436.8812 1858.2008 5501.7627 1915.1162 5523.3803 2035.7142 5552.2415 2101.9533 5629.3172 2207.6663 5562.8724 2256.6958 5547.1246 2248.4502 5422.7866 2106.0115 Z" fill="none" stroke="#865327" opacity="0.6" stroke-width="1" class="douglaston"/>
<path d="M 5451.2754 1880.7238 5486.5192 1919.3049 5522.8373 2008.0821 5542.7079 2004.8 5580.2863 2048.2118 5592.4081 2081.798 5611.4908 2123.4249 5624.9823 2150.5605 5655.1652 2191.9256 5692.3959 2268.2807 5690.7802 2343.8402 5655.9043 2433.3308 5516.7185 2288.1578 5418.2094 2122.6062 5393.955 2047.1372 5402.9703 1964.2127 5415.6873 1883.1269 5451.2754 1880.7238 Z" fill="none" stroke="#865327" opacity="0.6" stroke-width="1" class="douglaston"/>
<path d="M 5444.3557 1885.8089 5486.0609 1920.6877 5528.8664 2014.5123 5478.1872 2076.3759 5430.3173 2152.9727 5385.6276 2045.3181 5418.8467 2020.3547 5400.2067 1967.9046 5417.6347 1918.1195 5444.3557 1885.8089 Z" fill="none" stroke="#865327" opacity="0.6" stroke-width="1" class="douglaston"/>
<path d="M 5429.3119 2124.4173 5403.2535 2065.5343 5412.3947 2027.7418 5424.2884 1982.5743 5420.5017 1951.2687 5420.4291 1925.4798 5452.6766 1885.7852 5487.9154 1922.5244 5528.656 1942.6688 5569.3766 1955.4433 5583.6087 2076.9882 5626.2104 2098.0472 5658.8166 2176.2526 5584.0626 2228.9927 5568.3042 2217.0625 5558.1388 2219.8566 5528.446 2186.7773 5484.9204 2166.6358 5429.3119 2124.4173 Z" fill="none" stroke="#865327" opacity="0.6" stroke-width="1" class="douglaston"/>
<path d="M 5521.5337 2036.6407 5605.2793 2210.5029 5528.651 2256.7966 5418.212 2123.5274 5399.606 2083.9679 5397.5407 2006.5977 5406.5708 1929.2028 5446.1656 1871.989 5490.6652 1914.2273 5521.5337 2036.6407 Z" fill="none" stroke="#865327" opacity="0.6" stroke-width="1" class="douglaston"/>
<path d="M 5448.0434 1882.1144 5533.4681 2007.1299 5541.1092 2090.0106 5558.7338 2108.3826 5567.0867 2118.4911 5626.5343 2204.9109 5551.798 2265.0207 5426.5584 2131.7949 5400.415 2042.5135 5402.9754 1966.0548 5414.8662 1919.9693 5441.5743 1883.0538 5448.0434 1882.1144 Z" fill="none" stroke="#865327" opacity="0.6" stroke-width="1" class="douglaston"/>
<path d="M 5390.3331 2074.782 5399.1021 1903.4352 5434.1259 1864.6554 5469.2814 1872.844 5498.0644 1915.1269 5544.5369 1997.8864 5600.2566 2077.8595 5652.3794 2188.2489 5698.8531 2262.7325 5704.678 2351.1685 5657.5088 2353.1571 5579.864 2371.8208 5527.7234 2255.8779 5469.1088 2135.3589 5390.3331 2074.782 Z" fill="none" stroke="#865327" opacity="0.6" stroke-width="1" class="douglaston"/>
<path d="M 5411.6999 2109.7275 5394.8617 2040.6867 5396.5596 1986.3364 5388.0484 1918.2022 5430.4148 1860.061 5472.0761 1880.2038 5528.8098 1995.1693 5575.2615 2068.7225 5590.0956 2081.5747 5535.6635 2125.0324 5434.0269 2156.6472 5411.6999 2109.7275 Z" fill="none" stroke="#865327" opacity="0.6" stroke-width="1" class="douglaston"/>
<path d="M 5450.4291 2151.9945 5421.0071 2130.8893 5579.5884 1969.2289 5791.2731 2240.3285 5642.9251 2424.1553 5450.4291 2151.9945 Z" fill="none" stroke="#865327" opacity="0.6" stroke-width="1" class="douglaston"/>
<path d="M 5097.1065 2039.627 5073.8682 1612.3734 5759.4141 1527.5851 5963.6 1781.9674 5905.4411 2084.2629 5582.2294 2234.5261 5217.3629 2413.3769 5097.1065 2039.627 Z" fill="none" stroke="#865327" opacity="0.6" stroke-width="1" class="douglaston"/>
<path d="M 5684.4449 2389.0111 5633.6521 2416.8115 5394.8746 2045.2923 5401.1236 1965.1389 5447.1346 1887.6429 5502.6685 1908.6665 5723.9527 2303.1946 5684.4449 2389.0111 Z" fill="none" stroke="#865327" opacity="0.6" stroke-width="1" class="douglaston"/>
<path d="M 5451.2754 1880.7238 5486.5299 1922.9889 5510.1896 1951.4726 5518.7394 2029.7404 5556.9061 2115.7576 5592.8726 2082.4875 5650.5284 2187.794 5691.9377 2269.6641 5692.1191 2328.1718 5685.7897 2375.1849 5642.4528 2420.9315 5546.7992 2294.98 5555.922 2252.1096 5497.7758 2134.8157 5465.9024 2145.9622 5398.5579 2039.7552 5423.9233 2017.1165 5403.9052 1967.8943 5413.0752 1940.6975 5426.3649 1899.2142 5451.2754 1880.7238 Z" fill="none" stroke="#865327" opacity="0.6" stroke-width="1" class="douglaston"/>
<path d="M 5356.6484 1931.1833 5430.4356 1867.4287 5500.7954 1900.3829 5520.5256 2008.0889 5562.4792 2124.0321 5501.0272 2139.873 5409.7833 2085.7818 5356.6484 1931.1833 Z" fill="none" stroke="#865327" opacity="0.6" stroke-width="1" class="douglaston"/>
<path d="M 5670.6204 2405.6405 5545.4973 2324.0079 5402.3777 2083.039 5399.4878 2041.5949 5417.891 2009.304 5407.5985 1966.0418 5410.3156 1945.771 5424.0937 1913.4962 5450.8931 1908.8153 5499.9162 1916.0426 5717.4954 2308.7432 5670.6204 2405.6405 Z" fill="none" stroke="#865327" opacity="0.6" stroke-width="1" class="douglaston"/>
<path d="M 5556.3733 2113.2323 5445.3206 2140.2917 5410.0314 2087.8823 5401.165 2013.7142 5398.188 1940.9575 5419.3008 1886.5584 5463.6656 1881.8277 5497.9721 1915.806 5516.23 1983.4686 5556.3733 2113.2323 Z" fill="none" stroke="#865327" opacity="0.6" stroke-width="1" class="douglaston"/>
<path d="M 5451.1293 1888.2173 5757.1705 2263.1428 5436.2527 2339.2862 5407.1077 2164.9912 5413.0574 1950.5113 5451.1293 1888.2173 Z" fill="none" stroke="#865327" opacity="0.6" stroke-width="1" class="douglaston"/>
<path d="M 5438.8189 1889.5085 5443.4417 1889.4954 5482.3308 1909.6463 5706.3902 2306.9351 5640.1135 2412.1843 5539.8527 2291.7756 5573.0682 2264.0363 5505.1968 2142.6247 5467.2883 2145.4977 5400.4176 2043.4346 5427.1662 2019.4102 5401.1082 1959.6126 5438.8189 1889.5085 Z" fill="none" stroke="#865327" opacity="0.6" stroke-width="1" class="douglaston"/>
<path d="M 5447.1189 1882.1171 5656.1211 2202.0568 5408.0112 2113.4226 5447.1189 1882.1171 Z" fill="none" stroke="#865327" opacity="0.6" stroke-width="1" class="douglaston"/>
<path d="M 5446.876 1877.9733 5461.4446 1880.4645 5592.6469 2084.3306 5652.3935 2192.8553 5690.5411 2266.674 5692.8514 2340.6088 5667.6289 2410.4875 5629.1113 2444.7012 5603.2463 2380.2743 5564.2983 2347.679 5521.1274 2293.4429 5538.7965 2247.0927 5520.4035 2203.8447 5491.7687 2136.2149 5405.1184 2071.0561 5393.2313 2036.3158 5419.0675 2016.6696 5399.5222 1971.1303 5400.3929 1951.7856 5409.1463 1940.9388 5409.5628 1924.5893 5418.9931 1907.9845 5429.1015 1886.0823 5446.876 1877.9733 Z" fill="none" stroke="#865327" opacity="0.6" stroke-width="1" class="douglaston"/>
<path d="M 5451.7416 1882.1039 5484.2091 1919.7721 5512.0509 1955.6119 5520.5095 2002.5623 5518.7381 2029.2798 5477.2545 2073.6151 5445.9081 2106.8673 5406.9884 2078.4202 5401.3346 2040.6686 5401.0927 1954.0863 5422.2213 1905.2124 5435.1182 1888.598 5451.7416 1882.1039 Z" fill="none" stroke="#865327" opacity="0.6" stroke-width="1" class="douglaston"/>
<path d="M 5384.9279 2126.384 5367.6469 1896.1544 5434.1728 1881.2328 5480.4207 1888.4688 5598.7013 1867.8594 5704.1713 1891.4824 5806.2927 2021.9492 5819.9774 2250.3708 5709.5702 2436.8511 5555.8435 2382.0282 5474.1769 2290.1236 5409.1785 2200.0169 5384.9279 2126.384 Z" fill="none" stroke="#865327" opacity="0.6" stroke-width="1" class="douglaston"/>
<path d="M 5641.986 2419.5507 5505.1834 2138.0185 5591.9533 2084.3326 5733.5999 2135.4854 5744.1591 2257.9838 5641.986 2419.5507 Z" fill="none" stroke="#865327" opacity="0.6" stroke-width="1" class="douglaston"/>
<path d="M 5441.5299 1867.3973 5445.2306 1868.3078 5522.3265 1991.5038 5524.305 2035.7115 5562.4547 2115.7412 5593.8221 2090.7753 5657.0657 2208.503 5685.0023 2270.1463 5689.8895 2354.9002 5633.6101 2402.9892 5530.4954 2254.9485 5413.5985 2127.2252 5390.0564 1975.3015 5441.5299 1867.3973 Z" fill="none" stroke="#865327" opacity="0.6" stroke-width="1" class="douglaston"/>
<path d="M 5441.6736 1918.0516 5673.5031 2140.2786 5658.5186 2380.7977 5424.958 2220.2412 5441.6736 1918.0516 Z" fill="none" stroke="#865327" opacity="0.6" stroke-width="1" class="douglaston"/>
<path d="M 5423.0001 1868.249 5481.3912 1890.948 5531.4894 1949.7479 5589.1151 2049.9771 5639.4378 2143.5216 5747.3371 2309.2207 5705.9897 2397.8089 5658.071 2421.9158 5626.5351 2394.3671 5572.7267 2342.0056 5531.7956 2305.3704 5548.2953 2254.6465 5427.7203 2135.2268 5366.1315 2032.3545 5364.9075 1923.6707 5423.0001 1868.249 Z" fill="none" stroke="#865327" opacity="0.6" stroke-width="1" class="douglaston"/>
<path d="M 5176.0815 2186.8217 5176.7616 2091.0119 5359.6019 1996.5707 5578.7407 1995.0217 5647.654 2155.0978 5757.0669 2245.0442 5849.5681 2248.4319 5858.3781 2396.7506 5784.5252 2443.9866 5634.5855 2419.5732 5510.3003 2307.5256 5224.7562 2410.5932 5164.0727 2192.38 5176.0815 2186.8217 Z" fill="none" stroke="#865327" opacity="0.6" stroke-width="1" class="douglaston"/>
<path d="M 5413.0584 1934.7108 5419.4398 1902.4572 5446.2074 1886.7246 5500.8274 1911.4349 5556.5737 2003.3774 5514.1201 2031.1355 5541.9689 2067.8999 5529.182 2122.2877 5571.6914 2112.0289 5598.4348 2087.0768 5656.0844 2190.0802 5540.6855 2260.4467 5503.6385 2243.0493 5464.6904 2207.2302 5414.6603 2176.0482 5423.8074 2140.0937 5414.4612 2105.1137 5411.6017 2074.7226 5399.4852 2040.6738 5421.5767 2004.6882 5404.8427 1972.497 5413.0584 1934.7108 Z" fill="none" stroke="#865327" opacity="0.6" stroke-width="1" class="douglaston"/>
<path d="M 5451.7311 1878.42 5527.7503 1949.1187 5537.1073 1986.8551 5576.1259 2048.4545 5695.185 2272.8788 5684.4534 2391.7755 5639.1996 2415.8731 5510.2494 2290.0194 5499.0327 2249.5121 5440.6233 2199.9283 5393.4048 2181.6353 5399.4749 2036.9893 5404.8118 1961.4443 5422.2057 1899.6864 5451.7311 1878.42 Z" fill="none" stroke="#865327" opacity="0.6" stroke-width="1" class="douglaston"/>
<path d="M 5448.0408 1881.1935 5515.7875 1968.7262 5530.4957 2018.3071 5547.9275 2011.0021 5578.7816 2047.5255 5582.415 2064.3257 5592.8719 2082.2572 5621.4938 2143.7769 5657.4936 2197.2158 5678.5635 2244.2532 5692.5137 2268.9713 5691.6852 2337.3874 5628.8654 2363.6107 5627.7961 2392.2945 5620.3923 2391.1651 5506.6379 2320.4359 5448.9796 2211.4208 5395.2063 2164.3565 5397.8606 2038.3755 5400.8976 1966.9817 5431.6284 1880.5492 5448.0408 1881.1935 Z" fill="none" stroke="#865327" opacity="0.6" stroke-width="1" class="douglaston"/>
<path d="M 5522.7248 2127.8339 5524.5595 2122.7619 5550.6774 2198.6887 5552.0681 2121.5295 5410.34 2036.9589 5449.4263 1880.729 5500.2474 1950.5804 5497.7034 1950.1273 5522.7248 2127.8339 Z" fill="none" stroke="#865327" opacity="0.6" stroke-width="1" class="douglaston"/>
<path d="M 5525.9679 2288.1308 5397.9775 2163.1972 5381.0143 2049.0154 5443.3502 1857.2615 5510.0811 1914.171 5647.7778 2195.6333 5712.8044 2287.5659 5642.6892 2346.7523 5525.9679 2288.1308 Z" fill="none" stroke="#865327" opacity="0.6" stroke-width="1" class="douglaston"/>
<path d="M 5441.5612 1878.4489 5481.393 1905.0439 5504.6513 1954.7124 5529.8019 2018.194 5514.1388 2037.5834 5415.3006 2074.7122 5405.757 1968.8102 5441.5612 1878.4489 Z" fill="none" stroke="#865327" opacity="0.6" stroke-width="1" class="douglaston"/>
<path d="M 5434.0061 2149.2773 5371.6427 2003.9063 5434.1103 1859.1296 5477.6392 1885.7138 5544.5695 2008.9395 5701.6651 2274.7014 5684.4477 2389.9326 5656.7701 2413.9765 5616.0509 2408.5713 5433.0683 2144.6737 5434.0061 2149.2773 Z" fill="none" stroke="#865327" opacity="0.6" stroke-width="1" class="douglaston"/>
<path d="M 5426.3314 2133.2925 5424.9371 2130.7631 5422.8427 2125.9325 5420.521 2122.4845 5417.8516 2118.692 5415.4148 2115.3594 5411.4706 2110.419 5410.4154 2105.1251 5406.3487 2097.6517 5407.0294 2093.0439 5405.1609 2086.2553 5407.2293 2081.874 5407.5622 2076.9217 5407.5448 2070.7039 5406.9443 2062.6454 5404.6164 2056.8946 5402.6327 2050.2218 5400.0802 2046.7747 5398.9044 2039.6391 5400.1623 2034.7997 5404.4403 2035.2483 5406.5176 2034.091 5410.0914 2030.7419 5414.4713 2026.3543 5420.8136 2021.04 5422.4201 2016.8905 5421.8211 2009.4081 5418.6777 2001.3573 5416.0051 1996.2988 5414.8432 1994.1145 5412.8512 1984.4486 5409.83 1978.7003 5407.1575 1973.6419 5404.1389 1968.8147 5403.4387 1966.3989 5406.4321 1962.2457 5405.4972 1958.5641 5406.6384 1953.38 5405.8146 1948.0862 5410.1984 1945.1957 5412.7249 1939.4321 5411.9133 1938.5133 5413.1613 1930.2205 5412.9043 1921.011 5416.0135 1916.9728 5415.443 1919.6223 5422.6965 1909.8161 5427.0706 1903.587 5427.8702 1900.2461 5431.5499 1893.6736 5434.8857 1888.1382 5439.9586 1883.8642 5444.1132 1881.7802 5449.6558 1880.1528 5455.2066 1881.4033 5458.4527 1884.9629 5460.5408 1887.7199 5463.6693 1890.589 5468.5387 1895.9859 5472.4793 1899.8889 5477.5808 1905.6305 5482.1 1909.7621 5484.8999 1918.849 5486.5309 1923.3343 5488.7214 1921.486 5489.5111 1914.8063 5493.3187 1912.6079 5498.1653 1910.0611 5501.1501 1903.1449 5501.8288 1898.0774 5502.6234 1893.1247 5426.3314 2133.2925 Z" fill="none" stroke="#865327" opacity="0.6" stroke-width="1" class="douglaston"/>
<path d="M 5637.918 2420.3002 5412.0579 2105.4889 5352.6076 1873.7237 5471.6699 1867.4955 5517.8119 1965.3584 5606.9935 2349.809 5586.2648 2346.9226 5637.918 2420.3002 Z" fill="none" stroke="#865327" opacity="0.6" stroke-width="1" class="douglaston"/>
<path d="M 5436.0271 1883.0695 5444.3061 1868.3104 5482.238 1877.4117 5518.6494 1998.8833 5515.0313 2026.5272 5555.0593 2116.6843 5591.9506 2083.4115 5642.1501 2169.8547 5690.5489 2269.2077 5698.1858 2345.6601 5642.0113 2427.8442 5535.3064 2318.5094 5483.1716 2201.6493 5401.5275 2109.7559 5378.9328 1965.2006 5436.0271 1883.0695 Z" fill="none" stroke="#865327" opacity="0.6" stroke-width="1" class="douglaston"/>
<path d="M 5442.3188 2145.5688 5393.1508 2090.4342 5386.409 1993.7333 5408.3039 1887.7525 5456.3406 1873.802 5534.255 1960.1523 5591.9451 2081.5691 5656.1098 2198.3717 5723.0797 2319.7826 5692.7359 2377.9278 5643.9148 2445.3473 5526.9171 2296.4204 5442.3188 2145.5688 Z" fill="none" stroke="#865327" opacity="0.6" stroke-width="1" class="douglaston"/>
<path d="M 5385.8066 2109.7997 5587.8742 1957.2303 5838.2954 2195.0323 5764.4982 2255.1554 5648.4784 2425.0599 5385.8066 2109.7997 Z" fill="none" stroke="#865327" opacity="0.6" stroke-width="1" class="douglaston"/>
<path d="M 5450.8197 1883.0275 5474.9237 1905.9835 5496.2419 1924.3424 5514.822 1954.6828 5516.7464 1980.4671 5520.5202 2006.2467 5529.7911 2014.5096 5527.9795 2027.4105 5519.7031 2043.094 5527.1573 2062.4164 5534.5955 2076.2121 5541.1119 2090.9318 5553.1716 2103.793 5562.4519 2114.82 5571.7297 2124.9258 5575.459 2135.0482 5577.3579 2151.6249 5588.5217 2173.7017 5601.5301 2193.9308 5607.1179 2206.8121 5599.7661 2222.4965 5579.463 2237.2984 5552.6794 2250.2765 5538.806 2250.3174 5528.5512 2222.7076 5519.2595 2207.9938 5515.5225 2195.1066 5490.5172 2183.2025 5429.3743 2146.5267 5420.9941 2126.2832 5414.4767 2110.6409 5406.1127 2095.9251 5402.3957 2089.4872 5402.3442 2071.0638 5401.3603 2049.88 5397.6358 2040.6789 5395.7607 2031.4728 5397.5433 2007.5188 5397.5125 1996.4657 5399.3181 1980.8022 5400.2119 1969.7468 5402.0405 1962.3731 5402.9394 1953.16 5406.5966 1938.4131 5412.1054 1924.5822 5420.3903 1911.6646 5427.7426 1895.9868 5441.5926 1889.5007 5450.8197 1883.0275 Z" fill="none" stroke="#865327" opacity="0.6" stroke-width="1" class="douglaston"/>
<path d="M 5416.3702 2126.2962 5398.6993 2090.4187 5405.8704 2009.3378 5403.8176 1936.5788 5442.5223 1891.34 5525.0008 1957.4163 5594.7524 2092.6149 5697.0462 2276.5585 5685.2787 2359.5217 5658.671 2430.5578 5544.472 2289.9192 5453.4426 2154.7496 5416.3702 2126.2962 Z" fill="none" stroke="#865327" opacity="0.6" stroke-width="1" class="douglaston"/>
<path d="M 5519.9424 2125.0784 5435.8713 2154.7995 5425.6544 2139.1673 5404.2271 2083.0338 5399.4672 2034.2259 5420.6805 2014.8229 5395.5836 1967.9175 5448.9706 1883.0328 5981.1071 2307.8821 5730.9454 2468.1165 5735.6406 2490.2193 5708.7485 2470.0291 5638.5045 2491.4415 5629.0268 2416.8255 5715.2358 2473.6951 5627.1571 2410.3807 5546.33 2292.6779 5556.3872 2253.0296 5522.9185 2194.1637 5505.17 2133.4124 5519.9424 2125.0784 Z" fill="none" stroke="#865327" opacity="0.6" stroke-width="1" class="douglaston"/>
<path d="M 5407.0503 2100.5285 5402.3648 2078.4331 5401.3217 2036.063 5414.1975 2011.1566 5397.9003 1969.7532 5440.1757 1878.9133 5453.5841 1879.7962 5464.7075 1889.8953 5477.2365 1906.4374 5485.5761 1912.8605 5491.5937 1915.6062 5500.4092 1926.6329 5505.5425 1943.1967 5510.6626 1955.1555 5513.0237 1972.1883 5517.2289 1987.3738 5521.9005 2003.9399 5529.7843 2012.2068 5534.4158 2014.9566 5526.1544 2035.7061 5532.6502 2043.5167 5537.782 2059.1612 5542.9058 2072.0424 5548.9722 2090.9087 5556.4205 2107.9288 5559.203 2110.6842 5562.9471 2125.8731 5572.2304 2137.8215 5582.9315 2159.8995 5596.8865 2187.4958 5607.1221 2208.1941 5410.8474 2135.5239 5409.2301 2218.4428 5427.8209 2251.5583 5459.4357 2310.4363 5529.646 2280.749 5601.5854 2212.3566 5407.0503 2100.5285 Z" fill="none" stroke="#865327" opacity="0.6" stroke-width="1" class="douglaston"/>
<path d="M 5458.9157 2047.1843 5441.5253 2028.8111 5414.687 2020.827 5390.4828 1962.4054 5416.3807 1883.1249 5478.5438 1878.8038 5499.3142 1947.5897 5509.3514 1981.1794 5511.9397 1996.8304 5509.9838 2039.668 5458.9157 2047.1843 Z" fill="none" stroke="#865327" opacity="0.6" stroke-width="1" class="douglaston"/>
<path d="M 5468.4439 1903.2391 5518.6118 1985.9882 5546.7038 2105.6545 5613.6142 2214.163 5552.7093 2260.4112 5420.0434 2117.0737 5401.3397 2042.5109 5419.4372 1901.5362 5448.9654 1881.1908 5468.4439 1903.2391 Z" fill="none" stroke="#865327" opacity="0.6" stroke-width="1" class="douglaston"/></svg>