<?xml version="1.0"?><svg xmlns="http://www.w3.org/2000/svg" version="1.2" baseProfile="tiny" width="6000" height="5918" viewBox="0 0 6000 5918" stroke-linecap="round" stroke-linejoin="round"><path d="M 2889.313 3111.6135 2931.4346 3113.9124 2968.9484 3212.5824 2886.08 3167.4067 2889.313 3111.6135 Z" fill="none" stroke="#865327" opacity="0.5128205128205128" stroke-width="1" class="downtown_brooklyn"/>
<path d="M 2724.2954 3211.22 2808.537 2999.1227 2968.6655 2973.2846 3100.0779 2906.863 3160.2704 2984.2884 3141.7973 3082.9599 3098.3282 3194.5617 3004.8346 3251.7711 2838.1761 3245.3426 2724.2954 3211.22 Z" fill="none" stroke="#865327" opacity="0.5128205128205128" stroke-width="1" class="downtown_brooklyn"/>
<path d="M 2931.2029 3112.5292 2986.3149 3242.5527 2972.8943 3262.8464 2847.8939 3201.5336 2859.9137 3041.0736 2905.2723 3046.1396 2931.2029 3112.5292 Z" fill="none" stroke="#865327" opacity="0.5128205128205128" stroke-width="1" class="downtown_brooklyn"/>
<path d="M 2881.6694 3060.8965 3077.0376 3204.7138 3040.0303 3294.1885 2882.6134 3208.4469 2881.6694 3060.8965 Z" fill="none" stroke="#865327" opacity="0.5128205128205128" stroke-width="1" class="downtown_brooklyn"/>
<path d="M 2873.3375 3055.3648 2888.6098 3043.8366 2906.1982 3047.5226 2913.1424 3057.6647 2923.7909 3076.5666 2933.9758 3088.0916 2981.659 3126.3517 2972.4145 3185.8364 2997.8882 3242.0887 2974.745 3258.2344 2937.707 3243.4851 2911.317 3226.4272 2852.9863 3205.2222 2860.8537 3183.5486 2872.4232 3155.4195 2877.0495 3133.7473 2852.9745 3077.4979 2881.6713 3076.5727 2873.3375 3055.3648 Z" fill="none" stroke="#865327" opacity="0.5128205128205128" stroke-width="1" class="downtown_brooklyn"/>
<path d="M 2999.7485 3276.6749 2847.431 3201.5337 2869.1818 3145.5062 2859.689 3108.3893 2857.8342 3074.7311 2862.9226 3046.3754 2947.6245 3059.2724 2944.6317 3141.5755 3002.2926 3268.3734 2999.7485 3276.6749 Z" fill="none" stroke="#865327" opacity="0.5128205128205128" stroke-width="1" class="downtown_brooklyn"/>
<path d="M 2987.2414 3245.3193 2877.5192 3190.9247 2888.1483 3053.9799 2910.365 3055.3599 2987.2414 3245.3193 Z" fill="none" stroke="#865327" opacity="0.5128205128205128" stroke-width="1" class="downtown_brooklyn"/>
<path d="M 2868.4879 3149.1951 2883.2954 3109.5394 2958.9756 3114.8294 2967.3251 3198.2878 3022.192 3241.1602 3010.6293 3282.2062 2849.0511 3199.9196 2868.4879 3149.1951 Z" fill="none" stroke="#865327" opacity="0.5128205128205128" stroke-width="1" class="downtown_brooklyn"/>
<path d="M 2905.7442 3107.0003 2855.7541 3103.3178 2840.4761 3060.9007 2841.8598 3000.5037 2841.8596 2998.6596 2924.2412 3001.8766 2971.4505 3011.0881 2983.0299 3049.3522 2971.4698 3099.611 2905.7442 3107.0003 Z" fill="none" stroke="#865327" opacity="0.5128205128205128" stroke-width="1" class="downtown_brooklyn"/>
<path d="M 2868.4873 3143.8924 2858.9945 3107.0061 2863.3862 3053.7522 2948.5502 3059.0417 2945.0949 3143.6504 3008.7774 3282.2066 2846.7367 3201.7643 2868.4873 3143.8924 Z" fill="none" stroke="#865327" opacity="0.5128205128205128" stroke-width="1" class="downtown_brooklyn"/>
<path d="M 2927.9629 3112.9909 2968.9482 3211.4296 2882.3765 3165.1016 2886.3044 3112.3055 2915.9281 3112.3012 2927.9629 3112.9909 Z" fill="none" stroke="#865327" opacity="0.5128205128205128" stroke-width="1" class="downtown_brooklyn"/>
<path d="M 3113.1016 3086.6594 3150.2241 3317.209 2877.9846 3212.1365 2939.9915 3080.2523 3113.1016 3086.6594 Z" fill="none" stroke="#865327" opacity="0.5128205128205128" stroke-width="1" class="downtown_brooklyn"/>
<path d="M 2933.5173 3112.5288 3002.5239 3267.451 2874.2801 3201.9921 2880.7589 3185.852 2887.6929 3111.6137 2933.5173 3112.5288 Z" fill="none" stroke="#865327" opacity="0.5128205128205128" stroke-width="1" class="downtown_brooklyn"/>
<path d="M 2848.3568 3201.5336 2848.3566 3199.2279 2868.256 3145.2757 2862.2348 3109.3112 2932.1283 3110.6847 3008.5455 3280.362 2848.3568 3201.5336 Z" fill="none" stroke="#865327" opacity="0.5128205128205128" stroke-width="1" class="downtown_brooklyn"/>
<path d="M 2987.9356 3244.1663 2983.5379 3245.0896 2854.6044 3183.0881 2868.4871 3141.5869 2859.2262 3109.7726 2930.9714 3112.0682 2987.9356 3244.1663 Z" fill="none" stroke="#865327" opacity="0.5128205128205128" stroke-width="1" class="downtown_brooklyn"/>
<path d="M 3080.7015 3086.6708 3083.4872 3112.0292 3113.6475 3312.1501 3009.0088 3281.7454 2867.3372 3210.0626 2880.9898 3181.0102 2883.2952 3108.1561 2905.7443 3107.692 2906.6621 3054.4383 2920.551 3077.0282 3080.7015 3086.6708 Z" fill="none" stroke="#865327" opacity="0.5128205128205128" stroke-width="1" class="downtown_brooklyn"/>
<path d="M 2990.4586 3147.3295 2999.5047 3226.8706 2973.3469 3215.8094 2960.8519 3234.9494 2880.7598 3192.9994 2890.9328 3109.7689 2976.3329 3112.9813 2990.4586 3147.3295 Z" fill="none" stroke="#865327" opacity="0.5128205128205128" stroke-width="1" class="downtown_brooklyn"/>
<path d="M 2885.3886 3190.4626 2889.0882 3162.7952 2889.5442 3109.7691 2889.0747 3059.5124 2906.1959 3031.8469 3007.1576 3284.0517 2860.3932 3207.066 2885.3886 3190.4626 Z" fill="none" stroke="#865327" opacity="0.5128205128205128" stroke-width="1" class="downtown_brooklyn"/>
<path d="M 2978.4153 3110.6754 2978.883 3131.8854 2991.3848 3148.9431 2996.0262 3200.1257 2966.8618 3196.4434 2970.5683 3211.1987 2987.7038 3243.0135 2979.3714 3244.86 2875.6674 3190.0027 2883.0711 3166.4849 2885.8406 3105.1588 2935.3686 3111.6063 2968.6937 3104.6835 2978.4153 3110.6754 Z" fill="none" stroke="#865327" opacity="0.5128205128205128" stroke-width="1" class="downtown_brooklyn"/>
<path d="M 2973.3412 3189.9862 3015.0078 3208.4212 2951.1282 3223.6534 2973.3412 3189.9862 Z" fill="none" stroke="#865327" opacity="0.5128205128205128" stroke-width="1" class="downtown_brooklyn"/>
<path d="M 2844.6535 3201.0728 2867.3302 3144.8147 2855.2904 3095.0184 2863.6167 3044.3006 2876.5748 3032.7729 2902.4944 3040.1463 2946.9471 3147.1083 2934.9118 3145.7272 2933.5271 3167.8606 2901.5869 3166.4824 2903.9026 3174.3209 2882.6144 3217.2084 2844.6535 3201.0728 Z" fill="none" stroke="#865327" opacity="0.5128205128205128" stroke-width="1" class="downtown_brooklyn"/>
<path d="M 2884.4661 3216.7471 2851.1341 3199.2277 2868.2454 3047.0664 2885.8364 3071.9615 2944.157 3079.3294 2955.731 3092.2371 2953.8844 3116.6747 2949.7238 3143.419 2989.9959 3148.0213 2996.4886 3198.2811 2964.0846 3197.3662 3001.1378 3278.5193 2884.4661 3216.7471 Z" fill="none" stroke="#865327" opacity="0.5128205128205128" stroke-width="1" class="downtown_brooklyn"/>
<path d="M 2844.6535 3201.0728 2865.9417 3146.6593 2858.0689 3107.9284 2905.7443 3107.9225 2907.1333 3110.2277 2973.324 3112.0598 2997.4141 3196.8975 3017.3374 3264.6802 2998.8221 3274.8305 2844.6535 3201.0728 Z" fill="none" stroke="#865327" opacity="0.5128205128205128" stroke-width="1" class="downtown_brooklyn"/>
<path d="M 2868.7253 3203.8372 2887.2204 3036.9211 2967.7523 3031.3747 2969.6088 3055.3489 2973.3136 3064.5693 2987.2449 3260.0762 2957.6145 3249.9373 2868.7253 3203.8372 Z" fill="none" stroke="#865327" opacity="0.5128205128205128" stroke-width="1" class="downtown_brooklyn"/>
<path d="M 2865.9481 3206.6043 2906.6618 3052.5941 2987.2408 3242.5524 2865.9481 3206.6043 Z" fill="none" stroke="#865327" opacity="0.5128205128205128" stroke-width="1" class="downtown_brooklyn"/>
<path d="M 2891.3886 3057.2068 2911.291 3057.665 2989.0927 3243.4743 3221.5326 3339.7755 3207.663 3382.213 2990.9597 3307.1144 2844.6559 3229.6631 2891.3886 3057.2068 Z" fill="none" stroke="#865327" opacity="0.5128205128205128" stroke-width="1" class="downtown_brooklyn"/>
<path d="M 2908.9764 3055.3601 2974.2489 3107.9099 2931.6654 3110.2237 2999.7471 3271.141 2971.9691 3266.0747 2920.5775 3238.4154 2871.0404 3208.4483 2881.221 3179.3963 2884.9166 3118.5303 2888.6152 3085.3321 2888.1505 3070.578 2908.9764 3055.3601 Z" fill="none" stroke="#865327" opacity="0.5128205128205128" stroke-width="1" class="downtown_brooklyn"/>
<path d="M 2900.8916 3159.7964 2955.2822 3162.3231 2985.8518 3241.861 2945.3501 3268.1554 2900.8916 3159.7964 Z" fill="none" stroke="#865327" opacity="0.5128205128205128" stroke-width="1" class="downtown_brooklyn"/>
<path d="M 3002.7159 3110.2086 3009.8909 3112.5121 3030.7567 3242.7718 2961.3123 3222.729 2860.6212 3173.1735 2858.9894 3054.9053 2856.9067 3055.8276 2856.2123 3054.9056 2858.5263 3053.0611 3002.7159 3110.2086 Z" fill="none" stroke="#865327" opacity="0.5128205128205128" stroke-width="1" class="downtown_brooklyn"/>
<path d="M 2982.6108 3239.7866 2972.4315 3263.7688 2825.2103 3188.1627 2859.4574 3107.0061 2933.5176 3114.3732 2987.2401 3239.7856 2982.6108 3239.7866 Z" fill="none" stroke="#865327" opacity="0.5128205128205128" stroke-width="1" class="downtown_brooklyn"/>
<path d="M 2931.2027 3111.146 2955.1569 3114.7149 2952.8517 3160.9403 2971.6105 3214.0805 2979.3692 3235.2912 2979.9481 3235.9828 2979.4849 3234.83 2982.4934 3232.6389 2986.6628 3245.6653 2998.1251 3264.224 2978.3321 3254.8903 2958.6548 3243.7116 2934.6958 3231.8417 2909.9271 3218.5881 2887.4738 3206.8323 2888.631 3206.4863 2852.2908 3192.426 2869.2975 3144.9298 2861.8874 3106.5448 2862.9291 3108.6195 2931.2027 3111.146 Z" fill="none" stroke="#865327" opacity="0.5128205128205128" stroke-width="1" class="downtown_brooklyn"/>
<path d="M 2971.4953 3216.5015 2961.0831 3233.3353 2948.8146 3229.1875 2912.4721 3211.6706 2882.8433 3196.227 2853.2158 3184.0105 2866.8675 3146.6592 2863.1625 3127.9852 2859.9204 3108.1587 2876.8148 3105.621 2886.9941 3076.3415 2891.6212 3065.7364 2896.0172 3057.8978 2902.7284 3058.1274 2909.2082 3057.6654 2931.8955 3103.0769 2946.0201 3140.4225 2961.9987 3183.9941 2971.2629 3211.8902 2971.4953 3216.5015 Z" fill="none" stroke="#865327" opacity="0.5128205128205128" stroke-width="1" class="downtown_brooklyn"/>
<path d="M 2862.7031 3161.5302 2868.6031 3144.4688 2860.2676 3109.3114 2932.7074 3113.5664 2968.8323 3210.9685 2862.7031 3161.5302 Z" fill="none" stroke="#865327" opacity="0.5128205128205128" stroke-width="1" class="downtown_brooklyn"/>
<path d="M 2897.3976 3000.0366 3054.8696 3374.4315 2860.4037 3311.7483 2897.3976 3000.0366 Z" fill="none" stroke="#865327" opacity="0.5128205128205128" stroke-width="1" class="downtown_brooklyn"/>
<path d="M 2996.4891 3200.1256 2966.8626 3200.1324 3011.3244 3284.973 3115.0373 3314.4555 3089.1451 3414.0853 3015.9569 3296.0399 2999.2853 3275.7527 2848.3569 3201.9947 2865.9408 3137.4373 2859.4561 3094.0959 2865.0053 3045.2226 2910.3644 3051.6714 2935.3596 3061.8105 2975.174 3105.1432 2993.6898 3109.7497 2995.5505 3147.5588 2996.4891 3200.1256 Z" fill="none" stroke="#865327" opacity="0.5128205128205128" stroke-width="1" class="downtown_brooklyn"/>
<path d="M 2971.4946 3213.043 3012.2496 3282.2057 2868.7253 3203.8372 2916.8458 3061.8137 2971.4946 3213.043 Z" fill="none" stroke="#865327" opacity="0.5128205128205128" stroke-width="1" class="downtown_brooklyn"/>
<path d="M 2903.4202 3040.6072 2936.2942 3111.1451 2954.5887 3166.4732 2974.966 3210.7366 2989.5562 3245.5494 2981.9184 3248.318 2920.1112 3217.6642 2877.5199 3197.1499 2871.2699 3190.6949 2877.518 3181.2412 2879.1367 3169.0214 2862.7032 3163.2594 2866.636 3146.1981 2858.0692 3111.617 2856.2146 3078.4198 2861.766 3050.7555 2845.1021 3030.9319 2865.0038 3030.9301 2903.4202 3040.6072 Z" fill="none" stroke="#865327" opacity="0.5128205128205128" stroke-width="1" class="downtown_brooklyn"/>
<path d="M 2867.7811 3034.1571 2960.3647 3117.1345 3027.969 3206.5732 3056.6986 3299.7176 2998.3619 3285.8986 2974.2809 3252.7007 2878.9101 3209.3696 2862.2388 3148.5041 2867.7811 3034.1571 Z" fill="none" stroke="#865327" opacity="0.5128205128205128" stroke-width="1" class="downtown_brooklyn"/>
<path d="M 2862.2282 3044.7618 2887.9158 3045.6809 2887.9167 3052.8273 2975.1638 3059.0362 2977.0262 3108.3703 2998.7817 3111.1317 3024.2882 3288.8895 2882.6144 3216.5167 2826.5994 3194.3878 2837.9381 3160.495 2849.9705 3128.217 2857.3748 3110.4644 2860.8462 3109.0808 2858.0678 3097.093 2857.8344 3076.5753 2862.2282 3044.7618 Z" fill="none" stroke="#865327" opacity="0.5128205128205128" stroke-width="1" class="downtown_brooklyn"/>
<path d="M 2999.2641 3189.9802 2967.7883 3199.2099 2983.532 3219.4962 2965.9489 3257.314 2859.4677 3211.2163 2880.7494 3107.9259 2927.9606 3099.6195 2953.8889 3139.2682 2990.9209 3144.7933 2999.2641 3189.9802 Z" fill="none" stroke="#865327" opacity="0.5128205128205128" stroke-width="1" class="downtown_brooklyn"/>
<path d="M 3128.9278 3318.1398 3132.6452 3353.189 3090.9997 3421.4644 2972.4455 3327.4107 2886.3196 3231.5033 2835.3884 3109.7747 2852.0513 3105.1625 2877.0497 3135.5917 2919.6346 3133.7413 2880.7486 3101.4708 2869.6355 3061.8201 2914.0628 3024.008 2975.1668 3072.868 3022.3897 3117.1197 2972.3998 3118.9763 3002.0311 3148.4794 3030.7447 3200.1166 3102.0344 3202.8607 3102.0439 3229.6065 3128.9278 3318.1398 Z" fill="none" stroke="#865327" opacity="0.5128205128205128" stroke-width="1" class="downtown_brooklyn"/>
<path d="M 2848.8196 3200.1502 2859.9204 3108.3893 2933.0542 3111.6067 2970.1059 3213.5045 2952.0595 3251.3219 2848.8196 3200.1502 Z" fill="none" stroke="#865327" opacity="0.5128205128205128" stroke-width="1" class="downtown_brooklyn"/>
<path d="M 2859.2263 3110.6948 2930.0455 3111.3767 2967.7907 3210.7382 3000.6722 3268.1432 2993.7317 3283.3633 2843.2655 3209.8344 2867.0988 3145.5064 2859.2263 3110.6948 Z" fill="none" stroke="#865327" opacity="0.5128205128205128" stroke-width="1" class="downtown_brooklyn"/>
<path d="M 2869.6519 3210.2929 2883.521 3062.7406 2886.2956 3043.3759 2977.9448 3076.556 2918.7247 3231.4986 2869.6519 3210.2929 Z" fill="none" stroke="#865327" opacity="0.5128205128205128" stroke-width="1" class="downtown_brooklyn"/>
<path d="M 2968.7155 3205.6655 2862.2398 3157.7262 2865.0155 3142.0484 2865.0131 3118.9937 2859.456 3093.1737 2856.6763 3067.3541 2876.1146 3055.3645 2909.4391 3054.4379 2935.3681 3108.8398 2968.7155 3205.6655 Z" fill="none" stroke="#865327" opacity="0.5128205128205128" stroke-width="1" class="downtown_brooklyn"/>
<path d="M 2863.5011 3045.1075 2869.9807 3044.6457 2888.2652 3062.6247 2886.1883 3109.3085 2932.9387 3112.8747 2965.2421 3198.7493 2975.542 3198.8624 3002.97 3200.4698 3007.1443 3232.0565 3008.8826 3241.0484 3013.634 3265.1424 3032.3826 3262.7162 3035.3973 3282.3147 3046.2777 3285.4244 3048.5956 3295.8001 3042.8153 3318.7454 3025.6839 3313.4467 3008.083 3282.0915 2844.8848 3199.5741 2863.8584 3143.3165 2864.3201 3132.2502 2860.4991 3109.6572 2858.0668 3086.9494 2859.8006 3068.0454 2863.9648 3054.098 2864.3113 3048.1042 2863.5011 3045.1075 Z" fill="none" stroke="#865327" opacity="0.5128205128205128" stroke-width="1" class="downtown_brooklyn"/>
<path d="M 2975.1554 3021.2301 3009.4283 3113.4344 2865.9369 3101.4725 2854.8239 3056.2889 2892.7721 3019.4007 2975.1554 3021.2301 Z" fill="none" stroke="#865327" opacity="0.5128205128205128" stroke-width="1" class="downtown_brooklyn"/>
<path d="M 2930.7304 3057.2008 2976.1005 3108.8316 2958.5125 3113.4462 2952.9673 3160.4791 2882.6081 3166.0238 2884.4458 3055.3635 2930.7304 3057.2008 Z" fill="none" stroke="#865327" opacity="0.5128205128205128" stroke-width="1" class="downtown_brooklyn"/>
<path d="M 2658.547 3333.884 2479.859 3260.9814 2916.8713 3221.3538 3157.6523 3367.015 3086.4237 3581.0664 2864.1415 3638.32 2714.0976 3460.2635 2658.547 3333.884 Z" fill="none" stroke="#865327" opacity="0.5128205128205128" stroke-width="1" class="downtown_brooklyn"/>
<path d="M 2890.0017 3069.1946 2929.8138 3109.763 3036.3142 3250.8403 3236.3409 3325.4713 3217.8559 3396.5059 2856.6933 3242.5741 2886.3094 3151.2679 2890.0017 3069.1946 Z" fill="none" stroke="#865327" opacity="0.5128205128205128" stroke-width="1" class="downtown_brooklyn"/>
<path d="M 2883.9971 3168.7903 2888.1484 3054.4409 2907.5878 3054.8993 2970.5692 3215.3489 2988.6302 3245.319 2983.5382 3246.2425 2973.8204 3263.7685 2866.4115 3210.7544 2883.9971 3168.7903 Z" fill="none" stroke="#865327" opacity="0.5128205128205128" stroke-width="1" class="downtown_brooklyn"/>
<path d="M 2911.1644 3068.3476 2956.4978 3082.348 2954.7039 3093.2537 2947.1753 3130.0477 2908.1584 3127.9799 2909.5873 3105.6687 2911.1644 3068.3476 Z" fill="none" stroke="#865327" opacity="0.5128205128205128" stroke-width="1" class="downtown_brooklyn"/>
<path d="M 2869.4131 3144.1229 2861.309 3108.1586 2885.1468 3108.8475 2883.5199 3054.211 2948.3186 3058.3502 2943.9379 3144.3423 2970.3378 3215.5795 2966.6366 3225.7253 2880.7585 3182.6241 2879.1383 3182.3938 2879.8326 3181.2409 2857.6126 3175.2488 2862.703 3160.9539 2869.4131 3144.1229 Z" fill="none" stroke="#865327" opacity="0.5128205128205128" stroke-width="1" class="downtown_brooklyn"/>
<path d="M 2998.3598 3277.5976 3281.7311 3359.5761 3756.7944 3391.4821 3604.101 3503.2517 3503.2074 3572.5294 3170.7052 3574.5757 2910.4245 3443.6489 2649.2949 3273.0075 2723.3723 3149.4303 2846.5048 3197.3836 2998.3598 3277.5976 Z" fill="none" stroke="#865327" opacity="0.5128205128205128" stroke-width="1" class="downtown_brooklyn"/>
<path d="M 2954.3548 3154.4845 2959.9093 3153.5612 2964.5414 3168.3156 2991.3897 3169.2318 2995.0999 3198.2814 3002.0439 3199.6631 3015.0226 3264.2197 3002.0605 3265.6065 2981.6884 3255.0048 2886.7796 3207.9852 2882.1515 3217.2085 2866.4113 3208.9099 2879.8328 3183.5465 2884.4597 3166.0236 2882.8324 3108.3867 2874.0379 3108.3878 2878.4285 3052.8284 2946.0083 3078.8679 2947.8659 3110.6818 2952.9579 3112.9862 2954.3548 3154.4845 Z" fill="none" stroke="#865327" opacity="0.5128205128205128" stroke-width="1" class="downtown_brooklyn"/>
<path d="M 3002.0616 3270.2181 2880.7625 3214.903 2903.8931 3109.7671 2978.8786 3112.5197 2991.8597 3199.2045 3002.0616 3270.2181 Z" fill="none" stroke="#865327" opacity="0.5128205128205128" stroke-width="1" class="downtown_brooklyn"/>
<path d="M 2862.2307 3069.1978 2976.0907 3064.5687 2969.6411 3204.7431 2862.2434 3192.7709 2862.2307 3069.1978 Z" fill="none" stroke="#865327" opacity="0.5128205128205128" stroke-width="1" class="downtown_brooklyn"/>
<path d="M 2883.9966 3164.8709 2887.23 3111.1527 2930.9715 3112.9903 2972.4212 3216.7319 2952.2913 3252.9359 2865.4855 3209.3711 2880.0641 3181.9326 2883.9966 3164.8709 Z" fill="none" stroke="#865327" opacity="0.5128205128205128" stroke-width="1" class="downtown_brooklyn"/>
<path d="M 2863.3973 3160.4927 2863.166 3161.6455 2884.2281 3165.1014 2883.7583 3109.7698 2932.823 3112.7595 2953.2004 3168.7791 2988.63 3244.1661 2982.8439 3246.7038 2974.5148 3263.9989 2849.0512 3201.7641 2863.3973 3160.4927 Z" fill="none" stroke="#865327" opacity="0.5128205128205128" stroke-width="1" class="downtown_brooklyn"/>
<path d="M 2977.9523 3110.2144 3005.764 3265.6056 2869.1888 3208.9096 2890.4666 3084.4098 2894.1665 3062.7392 2919.1599 3060.8912 2977.9523 3110.2144 Z" fill="none" stroke="#865327" opacity="0.5128205128205128" stroke-width="1" class="downtown_brooklyn"/>
<path d="M 2908.0562 3091.7844 2921.4786 3088.0937 2983.0736 3239.3254 2854.3728 3180.7825 2864.549 3107.4666 2908.0562 3091.7844 Z" fill="none" stroke="#865327" opacity="0.5128205128205128" stroke-width="1" class="downtown_brooklyn"/>
<path d="M 2968.717 3212.5825 2861.7771 3159.5706 2851.1229 3075.6538 2865.9294 3030.4689 2906.1963 3035.0742 2940.9143 3064.5759 2953.8785 3087.1657 2968.717 3212.5825 Z" fill="none" stroke="#865327" opacity="0.5128205128205128" stroke-width="1" class="downtown_brooklyn"/>
<path d="M 2847.431 3201.5337 2865.006 3051.6773 2908.9766 3056.2822 2984.9263 3243.4753 2970.3482 3263.5387 2847.431 3201.5337 Z" fill="none" stroke="#865327" opacity="0.5128205128205128" stroke-width="1" class="downtown_brooklyn"/>
<path d="M 2863.3853 3044.9922 2888.1455 3032.541 2970.5308 3038.0593 2974.9369 3079.5536 2976.3316 3107.2178 2925.6617 3190.4566 2879.8327 3182.1631 2864.3194 3124.9879 2855.0569 3073.1176 2863.3853 3044.9922 Z" fill="none" stroke="#865327" opacity="0.5128205128205128" stroke-width="1" class="downtown_brooklyn"/>
<path d="M 2890.0069 3108.3858 2916.3907 3110.2263 2859.9202 3106.545 2982.1481 3240.709 2972.4312 3262.3853 2866.404 3141.126 2846.9671 3189.5445 2890.0069 3108.3858 Z" fill="none" stroke="#865327" opacity="0.5128205128205128" stroke-width="1" class="downtown_brooklyn"/>
<path d="M 2860.1517 3107.2366 2861.5353 3058.1325 2864.0808 3056.288 2915.4599 3078.4122 2958.0653 3190.4506 2859.0013 3175.2487 2860.1517 3107.2366 Z" fill="none" stroke="#865327" opacity="0.5128205128205128" stroke-width="1" class="downtown_brooklyn"/>
<path d="M 2865.0215 3053.6308 2894.4512 3055.0427 2920.7766 3059.3782 2936.4711 3066.6722 2973.1526 3105.6898 2981.8547 3131.1855 2988.8022 3149.1667 2991.8163 3171.2991 2988.5734 3197.7984 2946.9117 3200.1129 2910.8762 3180.4087 2883.7946 3166.3485 2883.7174 3160.2416 2882.7893 3141.7976 2884.6371 3111.8264 2876.1195 3110.8532 2862.696 3108.3187 2858.76 3092.6424 2861.1534 3059.3234 2865.0215 3053.6308 Z" fill="none" stroke="#865327" opacity="0.5128205128205128" stroke-width="1" class="downtown_brooklyn"/>
<path d="M 3008.546 3282.2067 2846.505 3199.2281 2866.8668 3140.2038 2861.3089 3107.9281 2932.5909 3108.8403 3008.546 3282.2067 Z" fill="none" stroke="#865327" opacity="0.5128205128205128" stroke-width="1" class="downtown_brooklyn"/>
<path d="M 2847.8939 3201.7642 2868.9503 3144.584 2866.4034 3135.1318 2859.9201 3105.8533 2857.8358 3091.0991 2858.2969 3073.3478 2863.8492 3054.6743 2910.365 3055.8209 2986.5462 3241.6303 2938.6332 3245.3295 2847.8939 3201.7642 Z" fill="none" stroke="#865327" opacity="0.5128205128205128" stroke-width="1" class="downtown_brooklyn"/>
<path d="M 2940.0034 3144.8041 2935.391 3236.5683 3008.5348 3238.858 2868.7328 3272.0867 2940.0034 3144.8041 Z" fill="none" stroke="#865327" opacity="0.5128205128205128" stroke-width="1" class="downtown_brooklyn"/>
<path d="M 2888.3802 3057.4378 2907.5884 3059.0488 2961.0752 3195.0612 2972.8852 3221.5737 3005.3048 3280.3629 2848.3566 3198.3057 2888.3802 3057.4378 Z" fill="none" stroke="#865327" opacity="0.5128205128205128" stroke-width="1" class="downtown_brooklyn"/>
<path d="M 3056.026 3121.1039 3088.4418 3163.5145 3106.0527 3221.6098 2917.1785 3214.2809 2939.3822 3124.8213 2993.9939 3092.5339 3056.026 3121.1039 Z" fill="none" stroke="#865327" opacity="0.5128205128205128" stroke-width="1" class="downtown_brooklyn"/>
<path d="M 2848.3545 3200.8396 2868.7188 3144.4296 2860.0729 3106.3144 2931.5103 3110.1454 2971.803 3215.8859 2966.2504 3227.4155 2952.3675 3252.3179 2961.0045 3234.1792 2873.9688 3192.2301 2865.1754 3210.0606 2848.3545 3200.8396 Z" fill="none" stroke="#865327" opacity="0.5128205128205128" stroke-width="1" class="downtown_brooklyn"/>
<path d="M 2862.6978 3110.2333 2994.6165 3113.8992 2993.7107 3196.4373 2850.6711 3197.8444 2861.7717 3107.0059 2865.0119 3108.3888 2862.6978 3110.2333 Z" fill="none" stroke="#865327" opacity="0.5128205128205128" stroke-width="1" class="downtown_brooklyn"/>
<path d="M 2948.3298 3116.2147 2960.3622 3105.1463 3042.7499 3095.9042 3112.1844 3109.7136 3248.2694 3112.4204 3338.0702 3118.8255 3461.1831 3103.066 3482.4518 3072.6193 3613.8983 3068.8219 3633.4226 3161.0213 3627.001 3225.5846 3580.7123 3230.237 3461.2775 3231.2548 3287.2157 3230.4447 3132.6069 3254.4971 3134.4918 3339.3523 3078.0241 3388.2605 3016.9145 3415.0298 2911.336 3349.5594 2948.3298 3116.2147 Z" fill="none" stroke="#865327" opacity="0.5128205128205128" stroke-width="1" class="downtown_brooklyn"/>
<path d="M 2961.3011 3168.3163 2962.4582 3167.855 2972.6526 3216.2707 2965.4792 3225.495 2943.0252 3213.9711 2916.4052 3201.2946 2880.064 3181.4714 2882.1453 3166.8308 2866.059 3161.2993 2864.3228 3157.9565 2869.2973 3143.2007 2865.9396 3126.371 2861.3091 3109.3113 2857.1422 3098.2458 2858.9906 3067.3539 2865.004 3032.7742 2899.0231 3039.9163 2910.1322 3046.8304 2936.2831 3049.3618 2934.8962 3058.5832 2948.4345 3059.3875 2975.3956 3060.7651 2974.8238 3091.5415 2956.6568 3092.698 2956.1988 3116.6743 2953.8915 3152.1791 2961.7613 3155.4052 2961.3011 3168.3163 Z" fill="none" stroke="#865327" opacity="0.5128205128205128" stroke-width="1" class="downtown_brooklyn"/>
<path d="M 2944.6327 3147.1087 2953.8905 3147.1069 2952.9641 3144.3405 2954.8167 3149.4123 2954.8204 3167.8565 2971.4956 3217.6544 2963.6297 3235.6405 2892.7963 3199.223 2904.8193 3112.5335 2932.1289 3113.9123 2944.6327 3147.1087 Z" fill="none" stroke="#865327" opacity="0.5128205128205128" stroke-width="1" class="downtown_brooklyn"/>
<path d="M 2857.6125 3174.3266 2881.6747 3104.2371 2906.6652 3075.6472 2969.6136 3077.4799 2990.9124 3108.8282 2995.5725 3237.939 2857.6125 3174.3266 Z" fill="none" stroke="#865327" opacity="0.5128205128205128" stroke-width="1" class="downtown_brooklyn"/>
<path d="M 2869.1816 3142.9701 2857.1417 3093.174 2869.1709 3045.6832 2905.2725 3047.5227 2924.7191 3091.3207 2969.6423 3210.2766 2869.1832 3158.1865 2869.1816 3142.9701 Z" fill="none" stroke="#865327" opacity="0.5128205128205128" stroke-width="1" class="downtown_brooklyn"/>
<path d="M 2820.5741 3066.4348 2849.2714 3074.7319 2828.909 3120.8412 2861.3114 3131.9046 2840.0235 3190.0062 2794.6577 3167.875 2820.5741 3066.4348 Z" fill="none" stroke="#865327" opacity="0.5128205128205128" stroke-width="1" class="downtown_brooklyn"/>
<path d="M 2919.3941 3077.9505 2975.1684 3080.0146 2976.5637 3110.2148 2996.258 3201.509 3003.219 3270.4484 2865.7169 3208.91 2888.614 3075.6497 2919.3941 3077.9505 Z" fill="none" stroke="#865327" opacity="0.5128205128205128" stroke-width="1" class="downtown_brooklyn"/>
<path d="M 2864.5433 3053.0605 2866.8573 3051.6771 2909.903 3061.3537 2884.0034 3219.0528 2826.1365 3195.0795 2864.5433 3053.0605 Z" fill="none" stroke="#865327" opacity="0.5128205128205128" stroke-width="1" class="downtown_brooklyn"/>
<path d="M 2869.4131 3144.1229 2859.9204 3108.6198 2932.5916 3113.2206 2970.337 3211.8904 2862.2402 3161.6456 2869.4131 3144.1229 Z" fill="none" stroke="#865327" opacity="0.5128205128205128" stroke-width="1" class="downtown_brooklyn"/>
<path d="M 3214.1133 3315.3361 2964.0888 3217.656 2913.1436 3065.5028 3173.2744 3089.4018 3214.1133 3315.3361 Z" fill="none" stroke="#865327" opacity="0.5128205128205128" stroke-width="1" class="downtown_brooklyn"/>
<path d="M 3010.8605 3281.2838 2865.9481 3206.6043 2888.1509 3073.8055 2913.1437 3066.4249 2932.3602 3113.4512 2946.2523 3144.3418 3010.8605 3281.2838 Z" fill="none" stroke="#865327" opacity="0.5128205128205128" stroke-width="1" class="downtown_brooklyn"/>
<path d="M 2889.2458 3111.6319 2890.5507 3055.78 2909.7264 3056.4366 2932.6795 3112.7365 2965.7581 3198.1429 3009.1962 3281.5678 2867.4345 3210.224 2885.726 3168.2829 2889.2458 3111.6319 Z" fill="none" stroke="#865327" opacity="0.5128205128205128" stroke-width="1" class="downtown_brooklyn"/>
<path d="M 2826.125 3014.7969 2886.298 3061.8181 2865.9482 3207.5266 2771.5128 3166.031 2826.125 3014.7969 Z" fill="none" stroke="#865327" opacity="0.5128205128205128" stroke-width="1" class="downtown_brooklyn"/>
<path d="M 2877.2878 3191.847 2854.1414 3182.1659 2869.6446 3144.3534 2863.392 3109.5416 2857.6049 3096.1709 2860.6113 3074.9613 2863.3863 3054.6743 2867.3194 3044.7613 2906.4295 3046.831 2911.7538 3057.2039 2934.6644 3056.739 2948.5538 3077.4842 2976.5629 3106.5261 2980.2713 3130.5018 2982.8186 3136.9566 2988.3741 3140.644 2989.3016 3148.252 2997.8848 3228.2544 2999.2769 3241.8578 2989.7872 3243.9353 2981.4545 3244.1678 2960.852 3235.4105 2892.5648 3198.5313 2877.2878 3191.847 Z" fill="none" stroke="#865327" opacity="0.5128205128205128" stroke-width="1" class="downtown_brooklyn"/>
<path d="M 2881.9161 3184.9296 2890 3056.5154 2911.7536 3056.0513 3001.3666 3267.9125 2999.0541 3276.9057 2941.6211 3132.1236 2997.202 3275.5227 2868.4945 3210.0625 2881.9161 3184.9296 Z" fill="none" stroke="#865327" opacity="0.5128205128205128" stroke-width="1" class="downtown_brooklyn"/>
<path d="M 2931.6654 3110.2237 2970.1056 3212.1211 2988.3933 3222.0313 2991.1761 3244.1655 3001.3604 3243.0102 3003.2181 3266.5285 3021.9667 3264.2178 3027.9919 3289.119 3010.8607 3282.2061 2868.263 3209.3708 2826.3679 3193.6961 2852.9771 3105.1624 2931.6654 3110.2237 Z" fill="none" stroke="#865327" opacity="0.5128205128205128" stroke-width="1" class="downtown_brooklyn"/>
<path d="M 2904.8857 3111.0672 2965.9851 3113.8227 2970.6363 3217.1104 2960.4596 3254.0041 2869.7183 3207.9043 2880.8159 3106.4596 2904.8857 3111.0672 Z" fill="none" stroke="#865327" opacity="0.5128205128205128" stroke-width="1" class="downtown_brooklyn"/>
<path d="M 2863.6176 3053.0606 2907.8194 3055.8213 2965.2418 3197.366 3097.8687 3204.4761 3110.1652 3284.4809 3115.0378 3315.8391 3105.0995 3359.1949 3043.517 3343.3036 3038.6535 3335.9259 3024.9892 3312.8704 2990.7253 3294.8933 2998.5911 3276.6752 2847.8939 3200.8419 2868.7187 3143.6618 2857.1421 3096.8626 2863.6176 3053.0606 Z" fill="none" stroke="#865327" opacity="0.5128205128205128" stroke-width="1" class="downtown_brooklyn"/>
<path d="M 2873.3375 3055.3648 2969.6395 3197.365 2847.4309 3200.1503 2869.6347 3054.4431 2873.3375 3055.3648 Z" fill="none" stroke="#865327" opacity="0.5128205128205128" stroke-width="1" class="downtown_brooklyn"/>
<path d="M 2858.5241 3030.4697 2864.0782 3031.3912 2976.0999 3106.0651 2971.4928 3204.7427 2850.2045 3156.8051 2845.5795 3202.9172 2858.5241 3030.4697 Z" fill="none" stroke="#865327" opacity="0.5128205128205128" stroke-width="1" class="downtown_brooklyn"/>
<path d="M 2868.4875 3145.5063 2860.1522 3112.3085 2931.4344 3112.9903 2963.6214 3196.2135 2999.2837 3269.2965 2993.9641 3287.2832 2845.8116 3210.2953 2868.4875 3145.5063 Z" fill="none" stroke="#865327" opacity="0.5128205128205128" stroke-width="1" class="downtown_brooklyn"/>
<path d="M 2894.6361 3112.5349 2933.5182 3117.6008 2977.5209 3250.3942 2875.2058 3201.0697 2894.6361 3112.5349 Z" fill="none" stroke="#865327" opacity="0.5128205128205128" stroke-width="1" class="downtown_brooklyn"/>
<path d="M 3005.5818 3156.01 2953.2196 3250.1605 2884.9499 3146.059 2952.5523 3251.1848 2870.5301 3209.2336 2889.4382 3111.7474 2956.9695 3113.3697 3005.5818 3156.01 Z" fill="none" stroke="#865327" opacity="0.5128205128205128" stroke-width="1" class="downtown_brooklyn"/>
<path d="M 3085.3387 3112.0285 3101.581 3229.6066 2987.2416 3246.2416 2927.033 3089.0149 2975.634 3092.2329 2986.7469 3110.2124 3085.3387 3112.0285 Z" fill="none" stroke="#865327" opacity="0.5128205128205128" stroke-width="1" class="downtown_brooklyn"/>
<path d="M 2952.0594 3250.8607 2868.263 3208.9097 2885.3855 3166.4846 2893.2412 3065.9667 2890.9254 3054.4406 2978.4029 3055.8081 2977.0194 3077.9394 2991.3844 3147.0987 2955.7416 3145.2622 2955.7449 3161.4008 2972.8829 3211.1982 2952.0594 3250.8607 Z" fill="none" stroke="#865327" opacity="0.5128205128205128" stroke-width="1" class="downtown_brooklyn"/>
<path d="M 2933.9804 3113.912 2988.6299 3243.9356 2983.3065 3245.3202 2876.362 3192.0776 2883.9969 3166.9458 2887.3457 3110.8068 2933.9804 3113.912 Z" fill="none" stroke="#865327" opacity="0.5128205128205128" stroke-width="1" class="downtown_brooklyn"/>
<path d="M 2847.894 3201.9948 2868.7191 3146.659 2860.8462 3109.3114 2931.6661 3114.3735 2988.6303 3245.7802 2893.2592 3199.2229 2890.0186 3197.84 2883.5403 3217.2083 2847.894 3201.9948 Z" fill="none" stroke="#865327" opacity="0.5128205128205128" stroke-width="1" class="downtown_brooklyn"/>
<path d="M 2972.3972 3106.9881 2994.6254 3150.3257 3028.9177 3288.6576 3009.4719 3282.2065 2983.5382 3246.2425 2852.9844 3184.4716 2866.8676 3147.5814 2857.6059 3107.0063 2858.5277 3067.354 2866.857 3048.9108 2931.6564 3059.0448 2972.3972 3106.9881 Z" fill="none" stroke="#865327" opacity="0.5128205128205128" stroke-width="1" class="downtown_brooklyn"/>
<path d="M 2921.4948 3186.3073 2888.1547 3103.3141 2910.3729 3106.9996 2928.8895 3118.0627 2886.3075 3136.5127 2875.2041 3186.3138 2891.8739 3225.0466 2938.1517 3143.8822 3014.0636 3138.3321 3099.2497 3182.5722 3101.1282 3258.198 3053.0002 3317.2435 2943.7342 3291.4445 2921.4948 3186.3073 Z" fill="none" stroke="#865327" opacity="0.5128205128205128" stroke-width="1" class="downtown_brooklyn"/>
<path d="M 2971.0325 3216.7322 2951.1342 3254.089 2865.0228 3211.6768 2884.4622 3186.3126 2883.0736 3186.7739 2885.3784 3110.2307 2927.4999 3112.0688 2971.0325 3216.7322 Z" fill="none" stroke="#865327" opacity="0.5128205128205128" stroke-width="1" class="downtown_brooklyn"/>
<path d="M 2847.431 3201.9948 2853.4371 3074.2704 2980.2597 3079.3218 2989.9953 3145.2546 3008.546 3282.2067 2847.431 3201.9948 Z" fill="none" stroke="#865327" opacity="0.5128205128205128" stroke-width="1" class="downtown_brooklyn"/>
<path d="M 2988.6299 3243.9356 2984.4636 3244.3977 2890.9447 3199.6844 2888.1684 3208.9073 2850.6705 3191.8497 2867.7929 3142.5092 2860.3832 3107.4671 2931.2023 3108.8406 2988.6299 3243.9356 Z" fill="none" stroke="#865327" opacity="0.5128205128205128" stroke-width="1" class="downtown_brooklyn"/>
<path d="M 2858.5372 3163.2598 2854.8328 3150.3492 2857.6084 3132.8272 2856.6808 3113.4615 2871.4932 3118.0708 2863.1598 3101.4727 2865.0091 3081.1853 2865.007 3061.8206 2886.2975 3058.1296 2886.2983 3064.5845 2894.6288 3059.0506 2911.2922 3065.503 2912.2183 3068.2693 2912.2196 3076.5685 2923.3298 3086.7102 2924.2571 3095.9315 2927.9615 3105.1525 2931.665 3107.9183 2942.7738 3107.9163 2945.5559 3133.7367 2952.0381 3142.9574 2935.3769 3157.7158 2924.2677 3159.5622 2914.0845 3162.3305 2897.4208 3166.0218 2886.3112 3165.1011 2867.7955 3166.9477 2858.5372 3163.2598 Z" fill="none" stroke="#865327" opacity="0.5128205128205128" stroke-width="1" class="downtown_brooklyn"/>
<path d="M 2876.1332 3213.9813 2846.5051 3201.0726 2851.1329 3186.3162 2861.314 3157.7262 2870.5703 3143.8922 2864.0882 3127.2934 2859.4578 3111.6169 2857.6042 3089.4853 2857.602 3066.4319 2865.9314 3048.9109 2885.3712 3053.5192 2927.9531 3056.2791 2946.4713 3079.3289 2973.3225 3105.1436 2978.8834 3133.7298 2988.144 3146.6384 2994.6372 3199.2038 2963.1585 3196.4442 2970.5695 3216.7323 2954.8372 3251.7825 2876.1332 3213.9813 Z" fill="none" stroke="#865327" opacity="0.5128205128205128" stroke-width="1" class="downtown_brooklyn"/>
<path d="M 3009.9346 3281.284 2865.948 3205.2209 2887.2252 3074.2667 2948.4382 3078.4064 2945.0945 3141.2296 2971.9576 3213.5041 3009.9346 3281.284 Z" fill="none" stroke="#865327" opacity="0.5128205128205128" stroke-width="1" class="downtown_brooklyn"/>
<path d="M 2861.0778 3110.464 2896.9502 3110.6903 2955.9669 3114.5994 2955.0413 3115.0607 2952.9684 3165.7819 2971.2634 3214.1959 2987.9354 3243.4746 2982.6119 3244.6287 2949.0461 3229.1874 2875.6677 3192.3083 2855.0673 3182.8575 2868.2559 3144.123 2861.0778 3110.464 Z" fill="none" stroke="#865327" opacity="0.5128205128205128" stroke-width="1" class="downtown_brooklyn"/>
<path d="M 2991.8476 3148.4819 3001.1284 3240.7045 2989.0925 3242.552 3007.6184 3275.7506 2846.5052 3201.9949 2864.0914 3157.726 2867.7916 3130.9818 2854.827 3088.5634 2867.7812 3035.0792 2871.4838 3034.1567 2921.4717 3046.137 2976.1001 3106.9873 2977.9541 3118.0529 2980.7347 3132.8072 2991.8476 3148.4819 Z" fill="none" stroke="#865327" opacity="0.5128205128205128" stroke-width="1" class="downtown_brooklyn"/>
<path d="M 2954.5845 3145.7235 2990.5745 3147.6753 3005.0399 3148.4787 3009.5622 3183.7525 3011.5339 3200.3524 2986.4206 3199.5516 2989.2034 3221.9159 2999.1575 3227.1013 3008.5332 3232.402 3012.2429 3256.7266 3013.287 3265.9495 3032.3828 3263.2926 3035.166 3282.7759 3046.9723 3286.2313 3048.4797 3295.5695 3042.6992 3317.5925 3027.0726 3312.9851 3008.6616 3281.7455 2989.0994 3271.6047 2993.3794 3262.3805 2977.8691 3254.7751 2983.3063 3244.7438 2960.6205 3235.0647 2925.7818 3216.3951 2893.6066 3200.6063 2888.9771 3198.186 2854.8359 3183.3186 2857.7283 3175.0182 2852.6362 3172.9437 2857.6111 3160.7238 2854.9494 3160.0324 2858.4204 3152.1933 2862.8168 3142.3944 2855.7575 3139.398 2858.7654 3130.4063 2850.4333 3127.2948 2857.9532 3108.2742 2887.2298 3109.4236 2889.5393 3072.4221 2906.6649 3073.5724 2906.434 3076.9151 2946.124 3078.5221 2955.0361 3089.2403 2957.0042 3094.1964 2954.5845 3145.7235 Z" fill="none" stroke="#865327" opacity="0.5128205128205128" stroke-width="1" class="downtown_brooklyn"/>
<path d="M 2927.0364 3108.8413 2965.2418 3197.1354 2928.6791 3239.7975 2865.9484 3209.6016 2883.3026 3166.9459 2886.3041 3109.539 2927.0364 3108.8413 Z" fill="none" stroke="#865327" opacity="0.5128205128205128" stroke-width="1" class="downtown_brooklyn"/>
<path d="M 2869.1816 3143.6618 2861.0774 3107.2365 2871.9547 3106.3131 2876.5772 3053.0592 2879.1228 3053.0589 2911.9853 3057.6649 2970.337 3211.6599 2882.8394 3164.6404 2863.8603 3161.6454 2869.1816 3143.6618 Z" fill="none" stroke="#865327" opacity="0.5128205128205128" stroke-width="1" class="downtown_brooklyn"/>
<path d="M 2952.9644 3145.7238 2953.4303 3160.7096 2958.7572 3178.6919 2964.5476 3198.0578 2951.8175 3197.8298 2949.5035 3201.0582 2881.9138 3166.2544 2862.4716 3161.415 2868.2559 3144.3535 2860.3833 3109.3114 2857.3736 3097.5542 2864.3112 3046.3753 2887.2215 3045.22 2887.6854 3053.2883 2905.9676 3053.2858 2905.971 3076.1083 2947.6281 3077.715 2944.6321 3144.1116 2952.9644 3145.7238 Z" fill="none" stroke="#865327" opacity="0.5128205128205128" stroke-width="1" class="downtown_brooklyn"/>
<path d="M 2931.2031 3113.9125 2980.0631 3232.87 2880.2957 3183.0853 2886.0796 3164.1789 2889.0816 3111.844 2931.2031 3113.9125 Z" fill="none" stroke="#865327" opacity="0.5128205128205128" stroke-width="1" class="downtown_brooklyn"/>
<path d="M 2891.176 3198.7621 2887.4725 3196.9181 2879.6028 3195.3051 2874.742 3193.6918 2869.1866 3189.0812 2865.4831 3187.0065 2856.4561 3183.3185 2852.5213 3182.166 2846.9663 3180.5526 2839.3282 3178.0171 2832.6159 3175.0204 2834.8144 3172.1382 2837.9383 3162.9158 2840.0209 3157.6129 2841.7563 3152.0795 2843.6075 3147.5836 2846.9625 3136.8628 2849.2763 3130.0614 2852.5156 3120.1477 2856.912 3110.695 2859.226 3107.4672 2860.9599 3089.1392 2875.1923 3084.4116 2886.9926 3065.0454 2892.7778 3062.163 2895.0917 3059.3964 2901.2243 3059.0497 2905.0432 3061.7002 2907.3576 3062.9678 2908.5157 3069.192 2907.8226 3076.9149 2912.9139 3076.9141 2918.0061 3081.6393 2917.313 3088.9013 2922.0582 3094.3181 2926.1083 3094.8938 2930.3924 3109.6476 2935.0222 3116.102 2939.8847 3128.8963 2943.2427 3140.1925 2949.4946 3155.2924 2953.8939 3164.2831 2955.9782 3170.7382 2965.3568 3193.5617 2972.7683 3216.1554 2969.066 3221.2287 2966.2901 3228.9534 2961.5464 3235.1798 2949.0461 3229.418 2933.0737 3221.5816 2923.3514 3216.0497 2915.0182 3212.1314 2912.9346 3209.3649 2908.5365 3207.0599 2903.2126 3204.5245 2896.4998 3200.8364 2891.176 3198.7621 Z" fill="none" stroke="#865327" opacity="0.5128205128205128" stroke-width="1" class="downtown_brooklyn"/>
<path d="M 2946.0211 3145.7252 2951.5789 3161.8627 2987.2412 3244.397 2983.0752 3246.2426 2974.283 3262.3849 2867.7999 3207.5264 2879.3707 3189.5411 2884.4608 3175.2458 2888.1554 3108.8471 2892.7772 3057.2066 2909.4398 3058.5874 2922.4022 3075.1836 2946.9335 3076.1014 2947.3975 3082.0952 2946.0144 3110.6822 2946.0211 3145.7252 Z" fill="none" stroke="#865327" opacity="0.5128205128205128" stroke-width="1" class="downtown_brooklyn"/>
<path d="M 2860.8464 3110.6946 2863.153 3036.4628 2975.1598 3041.0551 2981.1926 3111.1359 3010.8599 3278.9779 2823.359 3194.6186 2860.8464 3110.6946 Z" fill="none" stroke="#865327" opacity="0.5128205128205128" stroke-width="1" class="downtown_brooklyn"/>
<path d="M 2859.4579 3112.5391 2902.9681 3114.3781 2906.6888 3233.345 2818.7299 3194.6188 2859.4579 3112.5391 Z" fill="none" stroke="#865327" opacity="0.5128205128205128" stroke-width="1" class="downtown_brooklyn"/>
<path d="M 2903.8899 3087.6354 2949.0394 3194.7178 2952.9772 3210.2801 2949.5053 3210.2808 2946.0331 3208.4369 2939.5504 3198.2933 2935.6155 3197.6023 2927.0511 3194.6065 2901.359 3190.9216 2874.9727 3186.3138 2889.771 3074.9579 2890.9276 3071.0387 2898.7975 3080.7201 2971.4664 3083.9345 2973.7815 3087.6226 2978.4171 3118.5139 2970.5749 3241.6339 2903.8899 3087.6354 Z" fill="none" stroke="#865327" opacity="0.5128205128205128" stroke-width="1" class="downtown_brooklyn"/>
<path d="M 2931.6661 3114.3735 2987.2422 3248.5474 2970.5806 3267.9197 2870.1146 3208.9095 2869.6345 3052.5989 2902.0312 3037.3801 2931.6661 3114.3735 Z" fill="none" stroke="#865327" opacity="0.5128205128205128" stroke-width="1" class="downtown_brooklyn"/>
<path d="M 2971.7264 3214.6569 2952.7542 3252.9358 2867.1057 3208.9098 2880.7585 3182.163 2883.9968 3166.4847 2887.6928 3110.2304 2932.5915 3112.2984 2971.7264 3214.6569 Z" fill="none" stroke="#865327" opacity="0.5128205128205128" stroke-width="1" class="downtown_brooklyn"/>
<path d="M 3020.2149 3284.6801 3120.1872 3319.1014 3078.5973 3427.3512 3020.2149 3284.6801 Z" fill="none" stroke="#865327" opacity="0.5128205128205128" stroke-width="1" class="downtown_brooklyn"/>
<path d="M 2848.8197 3201.303 2870.1076 3145.2755 2861.0777 3109.7724 2887.9245 3112.7664 2932.1288 3113.2207 2951.8115 3167.6266 2987.2406 3241.8607 2984.2323 3245.0895 2973.1259 3263.7687 2848.8197 3201.303 Z" fill="none" stroke="#865327" opacity="0.5128205128205128" stroke-width="1" class="downtown_brooklyn"/>
<path d="M 3305.8098 3365.0971 3002.0653 3284.9754 2927.0347 3098.6975 3277.9011 3127.1596 3305.8098 3365.0971 Z" fill="none" stroke="#865327" opacity="0.5128205128205128" stroke-width="1" class="downtown_brooklyn"/>
<path d="M 2901.116 3110.6897 2929.814 3110.6851 2984.464 3246.2423 2965.9505 3264.6925 2887.2432 3213.9799 2867.7996 3204.7596 2901.116 3110.6897 Z" fill="none" stroke="#865327" opacity="0.5128205128205128" stroke-width="1" class="downtown_brooklyn"/>
<path d="M 2868.8836 3059.2917 2916.4541 3066.6798 2952.3487 3168.9526 2871.8032 3157.8985 2868.8836 3059.2917 Z" fill="none" stroke="#865327" opacity="0.5128205128205128" stroke-width="1" class="downtown_brooklyn"/>
<path d="M 2739.1104 3153.1197 2949.2276 2972.3665 3091.8324 3151.2193 3007.6196 3280.3623 2739.1104 3153.1197 Z" fill="none" stroke="#865327" opacity="0.5128205128205128" stroke-width="1" class="downtown_brooklyn"/>
<path d="M 2905.7367 3056.2827 2954.8069 3100.5367 3069.6016 3113.417 3089.0567 3155.8313 3099.266 3228.6852 2799.2866 3166.0305 2905.7367 3056.2827 Z" fill="none" stroke="#865327" opacity="0.5128205128205128" stroke-width="1" class="downtown_brooklyn"/>
<path d="M 2909.4391 3054.4379 2968.7171 3213.0436 2990.019 3245.3187 2980.7595 3241.6316 2891.8706 3200.1454 2876.131 3195.5361 2886.2969 3053.519 2909.4391 3054.4379 Z" fill="none" stroke="#865327" opacity="0.5128205128205128" stroke-width="1" class="downtown_brooklyn"/>
<path d="M 2962.9272 3196.9053 2942.7937 3213.9711 2880.7587 3184.0075 2885.8482 3164.4095 2890.9329 3110.6911 2931.8972 3112.5291 2962.9272 3196.9053 Z" fill="none" stroke="#865327" opacity="0.5128205128205128" stroke-width="1" class="downtown_brooklyn"/>
<path d="M 2938.1372 3064.5764 2973.3544 3249.934 2949.2839 3261.929 2864.0956 3198.3042 2813.1726 3146.6634 2858.5256 3045.2232 2938.1372 3064.5764 Z" fill="none" stroke="#865327" opacity="0.5128205128205128" stroke-width="1" class="downtown_brooklyn"/>
<path d="M 2984.197 3112.4613 2999.0191 3153.9562 3015.6968 3205.5971 2949.0401 3222.2132 2883.3033 3210.2341 2844.4162 3187.1819 2851.819 3146.6035 2851.8171 3125.3931 2852.7401 3095.8836 2984.197 3112.4613 Z" fill="none" stroke="#865327" opacity="0.5128205128205128" stroke-width="1" class="downtown_brooklyn"/>
<path d="M 3008.3143 3281.2844 2867.8001 3209.832 2882.8404 3172.9405 2886.3041 3110.1153 2932.3599 3111.6069 2936.2961 3121.7501 2971.0315 3212.3514 3008.3143 3281.2844 Z" fill="none" stroke="#865327" opacity="0.5128205128205128" stroke-width="1" class="downtown_brooklyn"/>
<path d="M 2970.1056 3212.1211 3009.4719 3282.2065 2974.7463 3263.9989 2847.8939 3201.5336 2868.4874 3144.8146 2864.5509 3126.1407 2857.3734 3095.7099 2858.0659 3077.728 2865.0057 3049.372 2889.3054 3053.9797 2909.4392 3054.6684 2918.0054 3077.0286 2948.091 3077.9454 2946.7087 3110.682 2955.9663 3111.3718 2954.1218 3146.6458 2953.892 3154.7151 2961.9926 3154.944 2962.6906 3172.2355 2958.0634 3181.2282 2970.1056 3212.1211 Z" fill="none" stroke="#865327" opacity="0.5128205128205128" stroke-width="1" class="downtown_brooklyn"/>
<path d="M 2793.2694 3180.7863 2796.9726 3180.7862 2857.6031 3077.9586 2996.9225 3079.779 3031.2333 3291.424 3012.7129 3283.5891 2793.2694 3180.7863 Z" fill="none" stroke="#865327" opacity="0.5128205128205128" stroke-width="1" class="downtown_brooklyn"/>
<path d="M 2891.8516 3058.1289 2974.7007 3058.1142 2977.9517 3107.448 2992.3104 3148.0207 3000.1989 3226.4093 2876.5934 3191.3859 2883.534 3166.9459 2891.8516 3058.1289 Z" fill="none" stroke="#865327" opacity="0.5128205128205128" stroke-width="1" class="downtown_brooklyn"/>
<path d="M 2999.2855 3276.4445 2981.2283 3267.4561 2962.7084 3257.5453 2943.9577 3249.2483 2929.1422 3240.7197 2914.0955 3232.4216 2881.9201 3217.4391 2849.977 3201.0723 2868.4875 3145.0452 2861.5415 3118.7635 2860.6147 3108.8503 2860.3826 3101.9341 2858.5305 3095.4792 2857.1417 3092.7129 2857.3725 3087.18 2858.529 3080.4943 2857.3712 3072.8868 2858.9905 3066.8929 2860.1469 3059.2852 2865.2374 3052.1383 2908.2822 3055.5907 2906.2024 3075.6472 2976.5569 3079.5532 2977.7208 3109.7534 2978.6486 3118.9749 2981.1968 3129.3489 2983.2811 3135.3426 2991.6159 3147.3292 2944.6327 3147.1087 2971.7264 3214.6569 3010.3977 3281.9756 2999.2855 3276.4445 Z" fill="none" stroke="#865327" opacity="0.5128205128205128" stroke-width="1" class="downtown_brooklyn"/>
<path d="M 2847.4309 3200.6114 2869.4132 3144.8145 2857.3733 3095.2488 2863.1549 3054.9049 2864.775 3055.5963 2911.0601 3060.8925 2984.9257 3240.939 2972.1997 3262.1548 2847.4309 3200.6114 Z" fill="none" stroke="#865327" opacity="0.5128205128205128" stroke-width="1" class="downtown_brooklyn"/>
<path d="M 2891.8503 3048.4467 2961.7416 3060.8833 2998.8213 3271.6024 2840.9497 3194.6173 2891.8503 3048.4467 Z" fill="none" stroke="#865327" opacity="0.5128205128205128" stroke-width="1" class="downtown_brooklyn"/>
<path d="M 2932.5909 3108.8403 3002.9891 3276.6741 2985.4028 3301.5816 2851.1371 3232.4294 2880.758 3178.013 2889.0812 3108.847 2932.5909 3108.8403 Z" fill="none" stroke="#865327" opacity="0.5128205128205128" stroke-width="1" class="downtown_brooklyn"/>
<path d="M 2787.0182 3093.1782 2793.9608 3080.4985 2805.5324 3086.492 2800.21 3099.4023 2787.0182 3093.1782 Z" fill="none" stroke="#865327" opacity="0.5128205128205128" stroke-width="1" class="downtown_brooklyn"/>
<path d="M 2982.6108 3239.7866 2873.3527 3188.1585 2881.6825 3167.8684 2893.7027 3056.2844 2912.2178 3064.5808 2982.6108 3239.7866 Z" fill="none" stroke="#865327" opacity="0.5128205128205128" stroke-width="1" class="downtown_brooklyn"/>
<path d="M 2908.9764 3055.3601 2971.9582 3216.2709 2952.0594 3250.8607 2842.339 3202.4563 2867.7927 3140.6648 2854.3636 3083.0306 2863.6172 3049.3722 2908.9764 3055.3601 Z" fill="none" stroke="#865327" opacity="0.5128205128205128" stroke-width="1" class="downtown_brooklyn"/>
<path d="M 2857.1421 3096.8626 2863.154 3045.9143 2862.9209 3029.7777 2949.9343 3036.4498 2944.4052 3167.8586 2862.9345 3161.4149 2868.0244 3143.8925 2857.1421 3096.8626 Z" fill="none" stroke="#865327" opacity="0.5128205128205128" stroke-width="1" class="downtown_brooklyn"/>
<path d="M 2867.8002 3210.2931 2886.7677 3115.3025 2937.2216 3120.3666 2991.8687 3236.5564 2976.1332 3255.4672 2971.5056 3263.769 2867.8002 3210.2931 Z" fill="none" stroke="#865327" opacity="0.5128205128205128" stroke-width="1" class="downtown_brooklyn"/>
<path d="M 2861.7658 3048.9113 2876.1137 3047.5266 2913.142 3055.3595 2934.8963 3059.0443 2955.2675 3089.0097 2968.6934 3102.8392 2977.0271 3112.5201 2999.7358 3225.4871 3003.4435 3242.5485 2984.9266 3244.8587 2971.9683 3262.3854 2875.6706 3216.7481 2865.4852 3206.1432 2882.6095 3177.5516 2884.453 3112.5363 2860.8461 3107.9281 2861.7658 3048.9113 Z" fill="none" stroke="#865327" opacity="0.5128205128205128" stroke-width="1" class="downtown_brooklyn"/>
<path d="M 2881.9161 3184.9296 2885.6173 3168.5595 2905.7354 3047.9837 2853.4471 3182.166 2875.6678 3193.2305 2878.9071 3184.4688 2871.5004 3182.1641 2875.2021 3169.2525 2909.4407 3065.0423 2922.6356 3087.4019 2983.5354 3234.2527 2881.9161 3184.9296 Z" fill="none" stroke="#865327" opacity="0.5128205128205128" stroke-width="1" class="downtown_brooklyn"/>
<path d="M 2907.5965 3112.5331 2990.0236 3264.6871 2889.0949 3213.9797 2907.5965 3112.5331 Z" fill="none" stroke="#865327" opacity="0.5128205128205128" stroke-width="1" class="downtown_brooklyn"/>
<path d="M 2846.0422 3201.0727 2868.2562 3146.659 2859.9205 3109.7725 2912.2255 3114.3767 2927.5001 3113.452 2989.0921 3240.7074 2982.6132 3250.3931 2888.168 3205.2183 2878.9112 3218.1311 2846.0422 3201.0727 Z" fill="none" stroke="#865327" opacity="0.5128205128205128" stroke-width="1" class="downtown_brooklyn"/>
<path d="M 2869.6466 3162.3364 2864.0915 3159.5704 2868.7188 3143.8924 2862.2347 3107.928 2859.4559 3092.2516 2859.4543 3075.653 2859.4527 3059.9769 2872.4104 3042.4554 2850.1928 3026.7821 2830.7547 3036.0046 2811.3163 3049.8372 2787.2483 3036.0066 2801.1325 3013.8761 2826.1238 2997.2777 2832.6028 2990.8228 2878.8833 2986.2082 2908.5132 3052.5938 2948.3182 3056.2754 2947.403 3110.6819 2947.4135 3165.0913 2884.4596 3165.1013 2869.6466 3162.3364 Z" fill="none" stroke="#865327" opacity="0.5128205128205128" stroke-width="1" class="downtown_brooklyn"/>
<path d="M 2778.9159 2935.5037 2660.4329 3027.7021 2591.9318 3040.6013 2578.9808 2998.1833 2580.8335 2990.8072 2679.0128 2299.5341 2734.5131 2190.8207 3104.5186 2386.091 3032.409 2537.2464 3069.4541 2655.2089 3036.1705 2749.2397 3034.3333 2797.1759 2993.6397 2902.2849 2778.9159 2935.5037 Z" fill="none" stroke="#865327" opacity="0.5128205128205128" stroke-width="1" class="downtown_brooklyn"/>
<path d="M 2903.8872 3069.1927 2951.0969 3064.5739 2996.4947 3223.1822 2899.2766 3195.5331 2903.8872 3069.1927 Z" fill="none" stroke="#865327" opacity="0.5128205128205128" stroke-width="1" class="downtown_brooklyn"/>
<path d="M 2889.151 3058.5742 2909.7476 3059.0323 2973.2491 3214.2805 2984.3659 3243.3299 2975.0536 3263.7749 2850.0874 3200.8948 2871.7349 3145.1822 2859.3333 3099.798 2863.0315 3053.9215 2889.151 3058.5742 Z" fill="none" stroke="#865327" opacity="0.5128205128205128" stroke-width="1" class="downtown_brooklyn"/>
<path d="M 2939.0719 3113.45 2975.193 3190.9081 3025.2131 3284.9693 3026.1611 3365.2156 2937.2599 3331.1073 2987.2468 3268.377 2852.9853 3194.6163 2862.2294 3056.2882 2973.312 3057.1924 2967.7701 3114.3664 2939.0719 3113.45 Z" fill="none" stroke="#865327" opacity="0.5128205128205128" stroke-width="1" class="downtown_brooklyn"/>
<path d="M 2865.0056 3047.7583 2868.9396 3047.2969 2881.6686 3054.2112 2888.8424 3052.5966 2908.0507 3055.3602 2932.8226 3110.4541 2943.4743 3140.6536 2955.053 3173.3898 2969.6414 3206.357 2986.3134 3236.0966 3009.4715 3280.823 2984.9322 3268.6082 2947.6614 3250.4004 2847.4308 3199.4586 2855.53 3180.3213 2868.7189 3145.0451 2862.2353 3113.461 2859.2247 3094.0959 2859.4548 3080.7248 2860.1475 3065.279 2865.0056 3047.7583 Z" fill="none" stroke="#865327" opacity="0.5128205128205128" stroke-width="1" class="downtown_brooklyn"/>
<path d="M 2866.8603 3079.3408 2937.2154 3085.7856 2887.2446 3224.1249 2817.804 3191.8521 2866.8603 3079.3408 Z" fill="none" stroke="#865327" opacity="0.5128205128205128" stroke-width="1" class="downtown_brooklyn"/>
<path d="M 2795.5812 3095.9444 2816.8719 3076.5784 2871.4871 3063.6641 3000.2084 3264.6846 2780.7732 3314.5201 2795.5812 3095.9444 Z" fill="none" stroke="#865327" opacity="0.5128205128205128" stroke-width="1" class="downtown_brooklyn"/>
<path d="M 2868.719 3145.7368 2858.0655 3073.5784 2860.2629 3062.0516 2864.5428 3048.3347 2862.2281 3043.2634 2887.4539 3052.5968 2905.1577 3053.4012 2955.3993 3169.0092 2971.2628 3211.775 3008.8931 3281.7455 2905.878 3228.9643 2848.0097 3201.7642 2868.719 3145.7368 Z" fill="none" stroke="#865327" opacity="0.5128205128205128" stroke-width="1" class="downtown_brooklyn"/>
<path d="M 2892.3216 3111.3825 2904.1248 3111.1503 2908.5186 3088.5568 2922.8674 3089.7072 2970.5694 3216.2712 2954.1421 3248.324 2851.8284 3198.5359 2865.7066 3111.3857 2892.3216 3111.3825 Z" fill="none" stroke="#865327" opacity="0.5128205128205128" stroke-width="1" class="downtown_brooklyn"/>
<path d="M 2869.1818 3145.2756 2857.8366 3099.8595 2857.8342 3074.7311 2863.8484 3047.2974 2873.105 3045.6827 2886.5284 3054.4411 2911.5221 3055.8208 2971.0318 3213.5043 3009.0089 3282.2066 2884.466 3216.2859 2846.9681 3201.0726 2869.1818 3145.2756 Z" fill="none" stroke="#865327" opacity="0.5128205128205128" stroke-width="1" class="downtown_brooklyn"/>
<path d="M 2967.3278 3210.7383 2901.1255 3176.6269 2881.2195 3166.7156 2884.4524 3108.3865 2928.4254 3110.9159 2967.3278 3210.7383 Z" fill="none" stroke="#865327" opacity="0.5128205128205128" stroke-width="1" class="downtown_brooklyn"/>
<path d="M 2864.5427 3047.5279 2921.9411 3086.2493 2933.9805 3114.3731 2969.6415 3206.5876 3007.1565 3279.9012 2848.357 3203.3781 2868.7189 3144.8146 2856.2146 3078.8808 2864.5427 3047.5279 Z" fill="none" stroke="#865327" opacity="0.5128205128205128" stroke-width="1" class="downtown_brooklyn"/>
<path d="M 3004.8421 3281.2853 2760.4033 3166.031 2819.6453 3012.0311 2975.1642 3060.8804 2973.3213 3099.6106 2939.998 3115.2942 3004.8421 3281.2853 Z" fill="none" stroke="#865327" opacity="0.5128205128205128" stroke-width="1" class="downtown_brooklyn"/>
<path d="M 2850.1935 3034.1588 2902.032 3043.3737 2914.9921 3047.0602 2970.5459 3107.9107 2977.9537 3116.2086 2978.8832 3132.8076 2988.1427 3141.1052 2997.4152 3201.0476 2967.7881 3198.2877 2990.0195 3247.1633 2878.9084 3194.6135 2870.5776 3209.3706 2846.5053 3202.9171 2869.6445 3143.8923 2856.6787 3091.3297 2858.5275 3064.5876 2863.1551 3056.2881 2850.1935 3034.1588 Z" fill="none" stroke="#865327" opacity="0.5128205128205128" stroke-width="1" class="downtown_brooklyn"/>
<path d="M 2888.1555 3109.0777 2932.0128 3111.6069 2972.1889 3212.697 3008.3141 3280.708 2866.7584 3208.3334 2882.0316 3183.3157 2885.154 3166.0235 2888.1555 3109.0777 Z" fill="none" stroke="#865327" opacity="0.5128205128205128" stroke-width="1" class="downtown_brooklyn"/>
<path d="M 2971.9577 3213.9652 2952.9851 3249.9382 2866.4112 3207.9876 2880.2957 3183.5464 2886.7611 3064.1233 2912.68 3060.4312 2971.9577 3213.9652 Z" fill="none" stroke="#865327" opacity="0.5128205128205128" stroke-width="1" class="downtown_brooklyn"/>
<path d="M 2985.3893 3243.4752 2976.5963 3255.9282 2886.3166 3207.5242 2850.2077 3192.3109 2831.6907 3184.0122 2856.6805 3110.2339 2979.8035 3108.8308 2988.1439 3146.1773 2997.884 3225.0264 3001.5914 3241.1655 2985.3893 3243.4752 Z" fill="none" stroke="#865327" opacity="0.5128205128205128" stroke-width="1" class="downtown_brooklyn"/>
<path d="M 2877.9612 3015.7142 2967.7529 3034.141 2980.7374 3144.7957 2882.6042 3134.6688 2877.9612 3015.7142 Z" fill="none" stroke="#865327" opacity="0.5128205128205128" stroke-width="1" class="downtown_brooklyn"/>
<path d="M 2950.1869 3144.8022 2976.1306 3243.4773 2838.1714 3184.4729 2854.8276 3095.0185 2884.4491 3082.1052 2950.1869 3144.8022 Z" fill="none" stroke="#865327" opacity="0.5128205128205128" stroke-width="1" class="downtown_brooklyn"/>
<path d="M 2891.4478 3056.5708 2975.0327 3060.2512 2973.3349 3262.9242 2867.4961 3209.5463 2891.4478 3056.5708 Z" fill="none" stroke="#865327" opacity="0.5128205128205128" stroke-width="1" class="downtown_brooklyn"/>
<path d="M 2865.0224 3207.5267 2907.5882 3057.2045 3119.5913 3112.4774 3133.5191 3219.4497 2970.5789 3260.08 2865.0224 3207.5267 Z" fill="none" stroke="#865327" opacity="0.5128205128205128" stroke-width="1" class="downtown_brooklyn"/>
<path d="M 2880.7628 3217.6698 2848.3569 3202.6864 2880.2798 3052.1366 2944.6193 3076.5629 2880.7628 3217.6698 Z" fill="none" stroke="#865327" opacity="0.5128205128205128" stroke-width="1" class="downtown_brooklyn"/>
<path d="M 2972.4209 3215.3485 2952.5227 3252.9358 2848.1254 3201.5336 2868.9502 3143.6618 2860.1516 3106.0839 2887.4613 3109.9999 2932.36 3111.8374 2972.4209 3215.3485 Z" fill="none" stroke="#865327" opacity="0.5128205128205128" stroke-width="1" class="downtown_brooklyn"/>
<path d="M 2870.524 3048.2541 2888.8806 3064.6648 2967.572 3099.2315 2963.8687 3097.388 3120.5787 3131.0723 3136.307 3196.1809 3131.0109 3284.9467 3032.5161 3240.3176 2967.2323 3192.8369 2947.3062 3167.9097 2904.2591 3168.3002 2878.8031 3177.3981 2884.4571 3145.2738 2883.9539 3107.9608 2886.9602 3089.9784 2888.8088 3067.8468 2870.524 3048.2541 Z" fill="none" stroke="#865327" opacity="0.5128205128205128" stroke-width="1" class="downtown_brooklyn"/>
<path d="M 2936.2948 3114.3727 2981.6826 3229.6417 2863.1674 3175.2483 2874.2698 3112.5375 2936.2948 3114.3727 Z" fill="none" stroke="#865327" opacity="0.5128205128205128" stroke-width="1" class="downtown_brooklyn"/>
<path d="M 2875.8992 3192.7694 2883.5344 3170.4042 2888.3871 3110.922 2932.1286 3112.5291 2969.4111 3211.4295 2989.0928 3243.7049 2982.8436 3245.5509 2875.8992 3192.7694 Z" fill="none" stroke="#865327" opacity="0.5128205128205128" stroke-width="1" class="downtown_brooklyn"/>
<path d="M 2888.8627 3208.2155 2873.5857 3201.531 2853.9109 3191.8495 2857.1503 3182.1656 2861.5467 3169.7151 2865.7114 3157.2647 2869.6445 3143.2006 2866.6341 3128.2153 2865.2448 3121.5297 2864.0868 3114.1524 2859.9193 3097.5539 2858.9922 3083.2607 2858.9909 3070.5814 2860.61 3061.36 2863.3864 3055.1354 2863.8485 3047.7585 2864.5411 3032.5438 2883.7488 3033.6942 2901.5686 3038.9938 2907.1248 3053.9772 2921.9398 3078.1806 2921.0141 3078.4113 2931.665 3108.3794 2944.4009 3145.0338 2949.96 3167.8575 2964.7793 3198.98 2970.3373 3213.2738 2983.0718 3231.2554 2988.6296 3242.5521 2998.3564 3263.7628 2978.4479 3255.2361 2957.8445 3242.7895 2934.0012 3230.8042 2912.0106 3221.124 2888.8627 3208.2155 Z" fill="none" stroke="#865327" opacity="0.5128205128205128" stroke-width="1" class="downtown_brooklyn"/>
<path d="M 2969.6535 3261.9248 2892.7995 3223.2019 2880.7624 3213.9807 2903.9037 3181.6988 2903.8984 3145.7323 2900.1899 3107.9233 2939.0712 3109.7613 2989.0934 3246.2412 2969.6535 3261.9248 Z" fill="none" stroke="#865327" opacity="0.5128205128205128" stroke-width="1" class="downtown_brooklyn"/>
<path d="M 2847.431 3201.0725 2864.551 3126.8323 2939.5381 3131.8935 2975.6718 3262.3846 2847.431 3201.0725 Z" fill="none" stroke="#865327" opacity="0.5128205128205128" stroke-width="1" class="downtown_brooklyn"/>
<path d="M 2985.4038 3306.1933 2998.8228 3277.5975 2846.9683 3203.3782 2869.6445 3143.4312 2858.994 3101.9342 2865.9311 3046.1446 2906.6608 3045.6783 2934.9075 3121.7503 3063.1686 3263.2834 3040.5045 3332.9276 2985.4038 3306.1933 Z" fill="none" stroke="#865327" opacity="0.5128205128205128" stroke-width="1" class="downtown_brooklyn"/>
<path d="M 2935.3687 3112.5285 2971.4994 3235.1777 2846.504 3188.1611 2864.0862 3107.9278 2935.3687 3112.5285 Z" fill="none" stroke="#865327" opacity="0.5128205128205128" stroke-width="1" class="downtown_brooklyn"/>
<path d="M 2860.3827 3103.3173 2930.7391 3106.9963 2960.3788 3185.3778 2924.2817 3242.5651 2836.3206 3195.5399 2866.8672 3143.8926 2860.3827 3103.3173 Z" fill="none" stroke="#865327" opacity="0.5128205128205128" stroke-width="1" class="downtown_brooklyn"/>
<path d="M 2868.7187 3143.4313 2858.5307 3097.554 2932.5916 3113.2206 2965.4731 3196.6742 3023.1169 3237.7013 2998.8226 3276.6752 2996.0472 3286.1298 2924.5143 3249.2517 2862.4775 3219.0553 2864.5602 3214.2131 2862.7087 3216.7495 2846.2744 3209.373 2868.7187 3143.4313 Z" fill="none" stroke="#865327" opacity="0.5128205128205128" stroke-width="1" class="downtown_brooklyn"/>
<path d="M 2882.8458 3216.7473 2848.0097 3201.8795 2868.8346 3145.0451 2861.4248 3109.6571 2862.3507 3111.0403 2904.2407 3112.9947 2901.8198 3176.0504 2882.8458 3216.7473 Z" fill="none" stroke="#865327" opacity="0.5128205128205128" stroke-width="1" class="downtown_brooklyn"/>
<path d="M 2883.9971 3168.7903 2865.9482 3207.296 2848.8196 3199.4585 2864.092 3163.7204 2883.9971 3168.7903 Z" fill="none" stroke="#865327" opacity="0.5128205128205128" stroke-width="1" class="downtown_brooklyn"/>
<path d="M 2957.1193 3090.8536 2955.2783 3142.9568 2954.3639 3199.6738 2949.2775 3228.9568 2879.3699 3183.316 2861.7723 3112.9999 2957.1193 3090.8536 Z" fill="none" stroke="#865327" opacity="0.5128205128205128" stroke-width="1" class="downtown_brooklyn"/>
<path d="M 2820.571 3013.8752 2944.616 3059.0425 2979.793 3062.7236 2983.5267 3196.4397 2985.3955 3270.2221 2773.3645 3170.6421 2820.571 3013.8752 Z" fill="none" stroke="#865327" opacity="0.5128205128205128" stroke-width="1" class="downtown_brooklyn"/>
<path d="M 2886.5396 3141.8153 2885.3825 3142.7377 2887.22 3033.4632 2975.1593 3038.7498 2976.0938 3078.4006 2951.0996 3078.1753 3048.3014 3086.4505 3053.1811 3151.2318 2886.5396 3141.8153 Z" fill="none" stroke="#865327" opacity="0.5128205128205128" stroke-width="1" class="downtown_brooklyn"/>
<path d="M 3010.8604 3280.8226 2846.968 3200.6115 2867.7932 3145.2758 2862.2361 3121.7605 2857.6051 3098.2458 2856.2152 3085.3358 2858.065 3068.2761 2863.6176 3053.0606 2862.6911 3045.6839 2850.6563 3033.6977 2898.7908 3033.2311 2969.6428 3212.5823 3010.8604 3280.8226 Z" fill="none" stroke="#865327" opacity="0.5128205128205128" stroke-width="1" class="downtown_brooklyn"/>
<path d="M 2884.4467 3062.7404 2909.4404 3062.737 2980.7591 3239.7871 2877.0565 3192.7692 2884.4467 3062.7404 Z" fill="none" stroke="#865327" opacity="0.5128205128205128" stroke-width="1" class="downtown_brooklyn"/>
<path d="M 2892.565 3200.03 2877.0566 3193.6915 2886.3111 3164.4094 2952.1587 3167.5112 2972.5368 3215.9249 2961.7779 3235.5256 2892.565 3200.03 Z" fill="none" stroke="#865327" opacity="0.5128205128205128" stroke-width="1" class="downtown_brooklyn"/>
<path d="M 2843.7274 3198.3061 2859.9149 3053.061 2974.2385 3060.8806 2984.4677 3261.9215 2843.7274 3198.3061 Z" fill="none" stroke="#865327" opacity="0.5128205128205128" stroke-width="1" class="downtown_brooklyn"/>
<path d="M 2989.9954 3145.7157 3011.3237 3282.206 2848.3568 3201.0725 2869.6448 3146.6589 2853.9009 3084.875 2869.6327 3036.0011 2916.8427 3042.4494 2975.1734 3102.3767 2989.9954 3145.7157 Z" fill="none" stroke="#865327" opacity="0.5128205128205128" stroke-width="1" class="downtown_brooklyn"/></svg>