<?xml version="1.0"?><svg xmlns="http://www.w3.org/2000/svg" version="1.2" baseProfile="tiny" width="6000" height="5918" viewBox="0 0 6000 5918" stroke-linecap="round" stroke-linejoin="round"><path d="M 2499.9275 4333.318 2478.6398 4228.0555 2551.8815 4132.0618 2601.9312 4098.8387 2678.854 4033.3093 2870.688 4202.2425 2762.2507 4388.758 2569.4394 4373.9633 2499.9275 4333.318 Z" fill="none" stroke="#A9159C" opacity="0.6" stroke-width="1" class="dyker_heights"/>
<path d="M 2567.1722 4129.9059 2551.5287 4216.4886 2586.0722 4114.7493 2598.583 4114.7516 2587.4616 4118.4421 2716.1174 4213.6998 2650.9432 4310.7976 2575.8395 4428.0556 2648.9006 4304.5667 2574.9239 4426.8332 2496.1328 4404.19 2513.7644 4334.9409 2512.4386 4343.0167 2567.1722 4129.9059 Z" fill="none" stroke="#A9159C" opacity="0.6" stroke-width="1" class="dyker_heights"/>
<path d="M 2498.0736 4333.3175 2603.8034 3988.9936 2772.4457 4125.6238 2571.2934 4373.9637 2498.0736 4333.3175 Z" fill="none" stroke="#A9159C" opacity="0.6" stroke-width="1" class="dyker_heights"/>
<path d="M 2536.1076 4211.4529 2569.4978 4092.3707 2782.6422 4259.4899 2713.1222 4350.8977 2536.1076 4211.4529 Z" fill="none" stroke="#A9159C" opacity="0.6" stroke-width="1" class="dyker_heights"/>
<path d="M 2597.295 4113.608 2807.6686 4282.5714 2734.4416 4368.4428 2525.9161 4197.6019 2567.644 4094.2166 2802.1072 4281.6483 2597.295 4113.608 Z" fill="none" stroke="#A9159C" opacity="0.6" stroke-width="1" class="dyker_heights"/>
<path d="M 2570.4037 4192.9961 2552.7891 4216.9962 2620.4601 4132.998 2652.892 4167.1598 2722.3977 4220.7121 2755.7632 4242.8711 2745.5674 4264.1062 2725.1751 4292.7278 2703.8548 4317.6564 2692.7308 4329.6591 2631.5591 4288.1026 2652.8723 4332.4252 2619.5002 4348.1177 2584.271 4373.9662 2538.8485 4376.7266 2513.8242 4361.0227 2509.1924 4349.941 2527.7491 4279.7725 2550.0055 4230.8442 2570.4037 4192.9961 Z" fill="none" stroke="#A9159C" opacity="0.6" stroke-width="1" class="dyker_heights"/>
<path d="M 2597.3142 4005.6069 2619.5535 4002.8415 2676.073 4044.3859 2755.7647 4102.5453 2820.6379 4161.6258 2803.0303 4186.553 2781.7146 4217.9432 2754.8363 4251.1805 2720.5406 4292.7276 2692.7308 4330.5824 2660.2841 4365.6673 2610.2258 4377.6644 2563.8701 4409.0516 2486.0021 4405.3381 2404.4448 4354.5237 2455.4523 4278.8283 2509.2304 4209.5995 2551.8781 4146.8324 2571.35 4097.9098 2582.4819 4038.834 2597.3142 4005.6069 Z" fill="none" stroke="#A9159C" opacity="0.6" stroke-width="1" class="dyker_heights"/>
<path d="M 2552.809 4128.3694 2637.15 4070.2277 2844.7397 4229.9422 2785.4239 4314.8882 2686.2499 4238.2515 2475.8059 4402.5648 2539.8131 4218.8397 2577.8252 4156.9929 2576.8944 4177.3029 2553.7349 4132.0622 2537.0344 4211.4531 2612.116 4154.2295 2552.809 4128.3694 Z" fill="none" stroke="#A9159C" opacity="0.6" stroke-width="1" class="dyker_heights"/>
<path d="M 2539.8148 4211.9154 2589.8821 4108.991 2733.983 4222.7898 2666.0834 4311.6515 2539.8148 4211.9154 Z" fill="none" stroke="#A9159C" opacity="0.6" stroke-width="1" class="dyker_heights"/>
<path d="M 2519.6642 4182.1365 2702.703 4214.0175 2640.1321 4293.8745 2546.9959 4219.5338 2615.5953 4129.5354 2573.4176 4183.9954 2546.7764 4166.6796 2519.6642 4182.1365 Z" fill="none" stroke="#A9159C" opacity="0.6" stroke-width="1" class="dyker_heights"/>
<path d="M 2626.9151 4352.7357 2627.8419 4354.2363 2627.9574 4356.6602 2633.4044 4348.5815 2636.9971 4342.9264 2636.1864 4340.5024 2642.7922 4329.8847 2642.4447 4329.423 2648.4711 4318.4591 2648.2393 4319.3824 2655.8877 4307.6108 2656.1194 4308.4188 2663.3044 4295.4931 2662.3772 4297.8013 2671.4151 4291.339 2671.4142 4301.0338 2671.8777 4300.3414 2626.9151 4352.7357 Z" fill="none" stroke="#A9159C" opacity="0.6" stroke-width="1" class="dyker_heights"/>
<path d="M 2382.1888 4376.6761 2681.632 4054.5402 2800.2486 4149.6254 2577.7677 4446.9156 2382.1888 4376.6761 Z" fill="none" stroke="#A9159C" opacity="0.6" stroke-width="1" class="dyker_heights"/>
<path d="M 2518.0289 4233.6062 2494.8591 4229.4452 2635.2856 4150.5403 2734.9086 4259.4895 2534.2048 4412.7385 2493.0041 4234.0609 2518.0289 4233.6062 Z" fill="none" stroke="#A9159C" opacity="0.6" stroke-width="1" class="dyker_heights"/>
<path d="M 2541.6681 4213.3007 2573.2044 4093.2946 2691.815 4186.5508 2619.5119 4272.4048 2541.6681 4213.3007 Z" fill="none" stroke="#A9159C" opacity="0.6" stroke-width="1" class="dyker_heights"/>
<path d="M 2488.7143 4244.7926 2520.4534 4266.1521 2512.4532 4288.1937 2483.4977 4254.8316 2474.2242 4270.8708 2489.8648 4272.2605 2489.6299 4283.1091 2499.2464 4283.2273 2488.3606 4265.5662 2488.7143 4244.7926 Z" fill="none" stroke="#A9159C" opacity="0.6" stroke-width="1" class="dyker_heights"/>
<path d="M 2553.731 4149.6024 2593.6128 3977.9157 2590.8347 3968.6851 2593.6153 3964.0706 2591.763 3959.4553 2651.0611 3979.7704 2792.8329 4095.16 2634.3392 4291.7963 2582.4189 4364.732 2562.0246 4369.3448 2494.3656 4334.2398 2520.3383 4263.1514 2484.1962 4243.7526 2553.731 4149.6024 Z" fill="none" stroke="#A9159C" opacity="0.6" stroke-width="1" class="dyker_heights"/>
<path d="M 2456.3786 4280.6752 2669.5845 4062.8468 2765.9585 4157.0115 2573.1394 4412.7472 2456.3786 4280.6752 Z" fill="none" stroke="#A9159C" opacity="0.6" stroke-width="1" class="dyker_heights"/>
<path d="M 2546.7291 4371.1881 2495.2924 4334.7017 2562.0761 4129.7562 2664.4904 4038.8463 2772.4456 4121.4697 2582.8826 4363.347 2575.9287 4371.6561 2564.8044 4374.424 2546.7291 4371.1881 Z" fill="none" stroke="#A9159C" opacity="0.6" stroke-width="1" class="dyker_heights"/>
<path d="M 2472.7644 4246.8264 2674.7375 4036.7944 2867.3528 4197.0184 2737.5951 4368.7577 2672.5487 4423.6366 2448.248 4305.3951 2472.7644 4246.8264 Z" fill="none" stroke="#A9159C" opacity="0.6" stroke-width="1" class="dyker_heights"/>
<path d="M 2732.5927 4222.559 2573.6014 4420.1348 2479.527 4359.1662 2613.0472 4126.9963 2732.5927 4222.559 Z" fill="none" stroke="#A9159C" opacity="0.6" stroke-width="1" class="dyker_heights"/>
<path d="M 2567.6455 4086.8316 2729.8124 4217.0194 2602.8096 4379.51 2493.4376 4337.9329 2567.6455 4086.8316 Z" fill="none" stroke="#A9159C" opacity="0.6" stroke-width="1" class="dyker_heights"/>
<path d="M 2520.7303 4191.6099 2557.8165 4126.9959 2602.7669 3997.5517 2869.8779 4201.781 2734.5426 4369.5352 2520.7303 4191.6099 Z" fill="none" stroke="#A9159C" opacity="0.6" stroke-width="1" class="dyker_heights"/>
<path d="M 2514.7734 4276.9993 2590.8433 3922.5363 2829.8969 4033.3111 2643.6066 4303.8006 2514.7734 4276.9993 Z" fill="none" stroke="#A9159C" opacity="0.6" stroke-width="1" class="dyker_heights"/>
<path d="M 2542.3162 4412.7405 2442.2034 4398.3985 2625.3498 3969.1524 2792.3697 4100.0064 2542.3162 4412.7405 Z" fill="none" stroke="#A9159C" opacity="0.6" stroke-width="1" class="dyker_heights"/>
<path d="M 2848.4124 4118.3403 2853.1869 4120.6579 2685.6987 4334.8768 2618.6895 4443.8833 2517.3156 4405.2323 2496.9954 4338.8776 2606.645 3990.7857 2668.78 4037.9085 2705.7282 4008.3891 2848.4124 4118.3403 Z" fill="none" stroke="#A9159C" opacity="0.6" stroke-width="1" class="dyker_heights"/>
<path d="M 2733.5145 4371.2129 2543.5224 4210.5314 2607.5093 3991.7633 2875.3222 4203.1652 2733.5145 4371.2129 Z" fill="none" stroke="#A9159C" opacity="0.6" stroke-width="1" class="dyker_heights"/>
<path d="M 2486.0024 4404.4147 2487.8675 4366.5558 2509.1979 4329.6271 2553.7153 4219.7661 2775.2286 4393.3749 2741.8559 4426.618 2716.8227 4494.0307 2722.3871 4453.3975 2701.0626 4485.7182 2644.5153 4446.9265 2573.1355 4432.1394 2486.0024 4404.4147 Z" fill="none" stroke="#A9159C" opacity="0.6" stroke-width="1" class="dyker_heights"/>
<path d="M 2539.8148 4211.9154 2572.2771 4096.0638 2733.5196 4220.2509 2664.4616 4308.8814 2539.8148 4211.9154 Z" fill="none" stroke="#A9159C" opacity="0.6" stroke-width="1" class="dyker_heights"/>
<path d="M 2584.7855 4107.1438 2705.7161 4200.4001 2613.951 4269.634 2512.9426 4191.136 2584.7855 4107.1438 Z" fill="none" stroke="#A9159C" opacity="0.6" stroke-width="1" class="dyker_heights"/>
<path d="M 2606.5824 3993.6092 2773.3724 4121.9312 2579.6376 4366.5782 2550.8998 4373.9593 2499.0003 4334.2411 2606.5824 3993.6092 Z" fill="none" stroke="#A9159C" opacity="0.6" stroke-width="1" class="dyker_heights"/>
<path d="M 2685.3152 4331.0435 2682.071 4330.3507 2535.8755 4213.2993 2592.9074 4035.3744 2795.8479 4193.9389 2685.3152 4331.0435 Z" fill="none" stroke="#A9159C" opacity="0.6" stroke-width="1" class="dyker_heights"/>
<path d="M 2542.5958 4209.608 2604.2654 3996.8394 2749.741 4106.6993 2616.2687 4266.8645 2542.5958 4209.608 Z" fill="none" stroke="#A9159C" opacity="0.6" stroke-width="1" class="dyker_heights"/>
<path d="M 2439.6578 4387.7784 2444.2937 4385.0098 2601.9425 4033.2992 2603.7952 4036.9917 2774.2996 4177.3216 2561.0838 4433.0603 2439.6578 4387.7784 Z" fill="none" stroke="#A9159C" opacity="0.6" stroke-width="1" class="dyker_heights"/>
<path d="M 2588.0514 3988.0678 2600.0957 3996.3771 2613.9948 3996.3795 2638.0828 4024.9972 2639.9376 4012.9979 2655.6884 4028.6916 2664.0255 4053.6154 2672.3645 4062.8471 2679.7783 4059.1555 2685.3377 4066.5407 2683.948 4061.9251 2695.5313 4063.5414 2708.5038 4079.9273 2702.9436 4079.4654 2719.1598 4097.9286 2726.1103 4093.7749 2748.3508 4110.3918 2745.5705 4120.5463 2723.7907 4157.0106 2714.0596 4157.9333 2704.3278 4169.9341 2697.3767 4173.6264 2685.7911 4183.3191 2675.1309 4206.3986 2683.7052 4191.6278 2686.949 4190.7049 2648.5956 4248.4035 2645.4681 4243.7868 2617.6574 4277.0209 2612.0911 4307.4893 2595.4009 4339.8035 2570.3647 4382.274 2587.9829 4352.7292 2572.2192 4379.7351 2588.0514 3988.0678 Z" fill="none" stroke="#A9159C" opacity="0.6" stroke-width="1" class="dyker_heights"/>
<path d="M 2686.9375 4329.4278 2683.4613 4332.1975 2650.318 4375.3617 2537.4609 4364.7222 2498.0734 4334.2408 2563.235 4127.4485 2664.954 4036.5387 2794.8052 4194.1698 2686.9375 4329.4278 Z" fill="none" stroke="#A9159C" opacity="0.6" stroke-width="1" class="dyker_heights"/>
<path d="M 2646.389 4290.8746 2519.4309 4188.3681 2587.1021 4108.0673 2713.1299 4212.4025 2646.389 4290.8746 Z" fill="none" stroke="#A9159C" opacity="0.6" stroke-width="1" class="dyker_heights"/>
<path d="M 2547.2299 4209.609 2679.7788 4053.617 2770.5922 4122.8544 2638.9723 4301.9534 2547.2299 4209.609 Z" fill="none" stroke="#A9159C" opacity="0.6" stroke-width="1" class="dyker_heights"/>
<path d="M 2570.4241 4094.2171 2793.765 4275.1855 2683.4527 4431.232 2508.2727 4323.1635 2570.4241 4094.2171 Z" fill="none" stroke="#A9159C" opacity="0.6" stroke-width="1" class="dyker_heights"/>
<path d="M 2793.7612 4145.933 2860.4932 4203.1669 2762.2508 4352.7458 2682.5264 4422.9209 2491.5923 4308.3855 2549.0976 4147.755 2597.3041 4062.8368 2604.7275 4003.7622 2665.881 4033.3081 2727.0371 4090.544 2793.7612 4145.933 Z" fill="none" stroke="#A9159C" opacity="0.6" stroke-width="1" class="dyker_heights"/>
<path d="M 2545.1428 4216.9944 2536.4554 4210.5297 2572.7404 4096.2946 2809.0589 4283.2638 2737.2224 4370.2896 2545.1428 4216.9944 Z" fill="none" stroke="#A9159C" opacity="0.6" stroke-width="1" class="dyker_heights"/>
<path d="M 2605.6316 4136.6882 2613.51 4130.2274 2637.9504 4147.6557 2660.1904 4166.6991 2684.0533 4185.1654 2708.3804 4203.6315 2694.0136 4220.8258 2676.981 4244.0211 2657.2826 4268.7167 2637.9311 4290.8735 2634.803 4289.4881 2601.7868 4263.746 2588.1174 4253.4721 2572.2481 4237.8889 2566.456 4234.7717 2556.4937 4229.23 2548.3858 4220.8035 2545.3743 4217.9177 2543.5208 4217.4557 2545.3747 4216.3021 2547.6924 4213.5329 2551.1698 4205.34 2563.8009 4189.7634 2564.9599 4187.5711 2567.0459 4184.1095 2573.7663 4178.3408 2574.8095 4175.456 2575.9688 4171.7635 2583.6158 4165.7642 2588.7142 4159.9953 2594.2757 4155.1496 2605.6316 4136.6882 Z" fill="none" stroke="#A9159C" opacity="0.6" stroke-width="1" class="dyker_heights"/>
<path d="M 2607.5087 3995.4554 2770.5922 4123.7775 2559.2435 4370.2676 2491.5875 4325.0055 2607.5087 3995.4554 Z" fill="none" stroke="#A9159C" opacity="0.6" stroke-width="1" class="dyker_heights"/>
<path d="M 2646.4114 4112.6923 2560.2189 4146.8343 2577.8276 4144.9916 2572.2705 4128.3736 2628.8057 4098.843 2731.6676 4174.5515 2708.496 4208.7093 2640.8274 4292.7205 2579.6371 4369.3484 2496.2447 4245.6026 2541.6795 4165.2937 2646.4114 4112.6923 Z" fill="none" stroke="#A9159C" opacity="0.6" stroke-width="1" class="dyker_heights"/>
<path d="M 2601.9488 3997.3005 2769.6655 4125.6238 2638.9744 4286.2571 2543.5228 4208.6849 2601.9488 3997.3005 Z" fill="none" stroke="#A9159C" opacity="0.6" stroke-width="1" class="dyker_heights"/>
<path d="M 2669.5869 4039.7699 2774.2991 4122.8544 2634.3393 4290.873 2499.0435 4180.9769 2669.5869 4039.7699 Z" fill="none" stroke="#A9159C" opacity="0.6" stroke-width="1" class="dyker_heights"/>
<path d="M 2638.0464 4294.5667 2576.8563 4368.4245 2497.1456 4337.0106 2560.2225 4130.2173 2660.3205 4038.8458 2869.7609 4199.473 2733.5146 4368.4427 2638.0464 4294.5667 Z" fill="none" stroke="#A9159C" opacity="0.6" stroke-width="1" class="dyker_heights"/>
<path d="M 2604.7293 3993.1473 2652.9084 4029.6144 2672.8336 4004.4636 2696.4609 4023.3879 2792.3697 4098.8525 2773.3724 4122.3928 2639.2055 4291.3353 2601.1943 4339.8045 2648.9274 4376.7466 2631.7751 4398.906 2598.8706 4376.0465 2558.5377 4418.2847 2516.1304 4403.4997 2435.4815 4401.6282 2399.8148 4342.0565 2496.2192 4335.1636 2604.7293 3993.1473 Z" fill="none" stroke="#A9159C" opacity="0.6" stroke-width="1" class="dyker_heights"/>
<path d="M 2536.3392 4212.1453 2524.7599 4188.6003 2558.8306 4138.7563 2665.6308 4208.7057 2616.0358 4274.2508 2536.3392 4212.1453 Z" fill="none" stroke="#A9159C" opacity="0.6" stroke-width="1" class="dyker_heights"/>
<path d="M 2539.3517 4210.5304 2519.8938 4190.2147 2566.2479 4122.8334 2607.046 3991.7632 2803.9552 4139.4704 2666.3154 4308.4199 2663.4185 4311.0742 2639.4369 4293.6436 2582.187 4365.4245 2575.2334 4372.1177 2566.4264 4375.5786 2554.608 4373.0367 2541.6318 4366.8009 2533.5225 4359.8735 2522.8642 4352.7147 2511.0478 4344.4013 2501.0847 4338.6276 2497.1469 4332.6247 2539.3517 4210.5304 Z" fill="none" stroke="#A9159C" opacity="0.6" stroke-width="1" class="dyker_heights"/>
<path d="M 2496.22 4332.3936 2603.8029 3991.7627 2771.5189 4123.7775 2569.4394 4373.9633 2496.22 4332.3936 Z" fill="none" stroke="#A9159C" opacity="0.6" stroke-width="1" class="dyker_heights"/>
<path d="M 2596.384 4025.9137 2598.4715 4011.1454 2603.5706 3995.4547 2618.6273 4000.0723 2639.7052 4018.9976 2648.5069 4029.3831 2664.9539 4037.231 2677.4627 4046.9245 2683.4857 4050.1558 2697.1532 4060.5415 2714.7592 4074.1583 2724.2574 4082.4667 2729.8172 4090.5441 2755.3013 4108.3149 2743.0224 4100.6989 2773.604 4119.8541 2769.4338 4131.1628 2752.7522 4150.0876 2740.9358 4160.4731 2727.4969 4179.1673 2714.7527 4195.5537 2704.7887 4209.4015 2688.336 4229.7116 2679.53 4241.4823 2665.3936 4260.6388 2657.9777 4268.4859 2644.9994 4285.1037 2637.1195 4294.5666 2624.8357 4310.723 2616.7235 4321.5709 2611.6245 4327.1102 2603.9758 4336.1115 2598.413 4342.8049 2591.6912 4350.1906 2585.8961 4358.7307 2582.4194 4362.1927 2587.9795 4370.9659 2593.0777 4371.8903 2597.0168 4375.1228 2594.9303 4379.5086 2575.4606 4394.741 2567.1152 4406.282 2547.1841 4408.1245 2543.9395 4408.1237 2545.3299 4408.5858 2495.7393 4392.8748 2498.9847 4389.6438 2499.9114 4390.7983 2495.2795 4379.9471 2490.6463 4373.9437 2482.3071 4361.9372 2480.92 4350.8563 2487.8751 4340.7014 2494.3654 4334.9323 2499.2359 4320.391 2503.8737 4308.8506 2508.2791 4299.6186 2510.5996 4287.6161 2518.9505 4253.4566 2527.2961 4238.2248 2534.4835 4220.454 2541.9038 4196.221 2546.543 4174.0651 2554.4246 4156.0647 2559.9884 4141.2952 2565.089 4124.9103 2566.0189 4110.1402 2575.985 4090.5258 2580.1587 4072.7568 2586.4165 4058.2193 2590.8216 4039.9894 2596.384 4025.9137 Z" fill="none" stroke="#A9159C" opacity="0.6" stroke-width="1" class="dyker_heights"/>
<path d="M 2546.766 4211.4554 2615.3633 4131.6124 2681.1688 4053.1556 2675.1459 4048.5396 2773.3724 4121.0081 2642.2179 4291.3357 2546.766 4211.4554 Z" fill="none" stroke="#A9159C" opacity="0.6" stroke-width="1" class="dyker_heights"/>
<path d="M 2607.5087 3995.4554 2893.8602 4217.0114 2761.3237 4384.1409 2538.8885 4209.6071 2607.5087 3995.4554 Z" fill="none" stroke="#A9159C" opacity="0.6" stroke-width="1" class="dyker_heights"/>
<path d="M 2814.128 3723.2141 2617.7284 3822.8671 2810.4247 3765.6622 3017.9356 3771.1664 3108.7336 3804.3594 3145.8111 3856.0256 2582.5173 3856.0844 2526.9044 3953.9033 2517.6204 4024.0503 2532.4452 4029.5924 2546.3332 4079.4421 2548.6435 4107.5977 2555.5927 4112.6765 2518.5169 4139.439 2459.2008 4152.346 2531.4676 4235.4561 2664.9306 4256.7148 2697.3695 4273.3369 2710.3454 4281.6474 2513.8188 4381.3373 2461.9142 4361.0075 2456.3807 4274.2121 2458.2411 4253.9005 2457.3308 4203.1214 2461.0475 4173.5799 2456.4148 4169.8856 2814.128 3723.2141 Z" fill="none" stroke="#A9159C" opacity="0.6" stroke-width="1" class="dyker_heights"/>
<path d="M 2711.2836 4084.0814 2693.66 4300.1125 2680.6819 4315.808 2667.7044 4322.2701 2646.3871 4305.6476 2641.754 4294.5672 2619.5099 4285.3309 2605.6082 4275.1724 2586.1471 4257.6265 2564.8343 4233.6173 2560.2051 4210.5352 2572.2545 4206.8448 2580.5992 4189.3053 2593.5799 4158.8422 2612.1168 4149.6136 2629.7289 4123.7678 2644.5592 4103.4608 2662.1685 4086.8467 2664.9498 4075.7697 2679.7774 4068.3864 2692.7502 4077.6185 2703.8569 4285.3402 2708.4928 4262.2581 2730.7381 4247.4868 2741.8609 4228.0987 2748.3489 4217.9432 2752.9832 4205.018 2760.3978 4190.2465 2768.7389 4178.2449 2776.1531 4167.1665 2781.7136 4158.8577 2778.9329 4135.7785 2762.2516 4121.0081 2740.937 4113.6227 2715.9166 4093.3128 2711.2836 4084.0814 Z" fill="none" stroke="#A9159C" opacity="0.6" stroke-width="1" class="dyker_heights"/>
<path d="M 2638.0476 4286.2569 2538.889 4207.7606 2560.2229 4128.371 2670.514 4035.1547 2778.006 4121.9312 2638.0476 4286.2569 Z" fill="none" stroke="#A9159C" opacity="0.6" stroke-width="1" class="dyker_heights"/>
<path d="M 2715.3346 4145.7012 2713.7127 4147.6629 2611.7496 4270.5569 2503.2138 4181.7859 2626.9561 4073.111 2715.3346 4145.7012 Z" fill="none" stroke="#A9159C" opacity="0.6" stroke-width="1" class="dyker_heights"/>
<path d="M 2663.5344 4311.1896 2663.5343 4311.8821 2591.8248 4253.9344 2661.8123 4166.4684 2733.0562 4221.6357 2664.2295 4312.113 2663.5344 4311.1896 Z" fill="none" stroke="#A9159C" opacity="0.6" stroke-width="1" class="dyker_heights"/>
<path d="M 2641.7542 4293.6439 2631.5587 4290.8726 2622.7555 4275.1751 2598.1958 4260.3985 2575.4912 4242.3904 2546.3017 4215.6098 2553.7194 4201.3015 2569.9435 4177.763 2595.4363 4143.1486 2626.4881 4104.3814 2661.2467 4042.5382 2689.0447 4062.8486 2740.9374 4099.7757 2769.6655 4128.3933 2722.3991 4190.2456 2684.396 4241.0211 2641.7542 4293.6439 Z" fill="none" stroke="#A9159C" opacity="0.6" stroke-width="1" class="dyker_heights"/>
<path d="M 2666.8069 4039.7696 2668.8918 4041.039 2671.5556 4044.0393 2676.1886 4046.9243 2678.9683 4049.2323 2683.0221 4053.6173 2686.2653 4055.4637 2692.0566 4059.6181 2695.4155 4063.1953 2701.207 4066.7727 2705.7243 4070.6961 2711.0524 4074.8504 2716.1491 4077.7354 2720.3189 4082.4665 2723.9097 4085.3514 2728.1956 4088.3517 2732.5973 4089.6211 2736.8831 4096.3139 2742.0958 4098.7372 2745.8025 4102.4298 2748.4668 4104.5069 2751.7103 4106.6994 2754.3745 4109.238 2759.3556 4111.1997 2764.1051 4116.854 2770.1288 4120.7773 2774.1833 4124.9315 2778.9328 4128.8548 2785.9993 4133.4704 2797.5839 4142.1248 2790.8652 4150.7797 2782.2928 4158.5115 2777.3115 4166.5894 2770.8241 4173.0519 2765.4952 4182.6301 2758.4283 4189.4387 2752.404 4197.7476 2745.8004 4205.7103 2739.66 4213.2114 2733.5196 4222.3282 2726.9155 4231.6758 2719.6163 4238.7153 2714.6341 4246.6782 2707.3346 4254.7564 2701.1936 4263.2964 2694.9366 4271.2593 2688.6796 4278.7606 2682.5384 4285.454 2676.0494 4294.1094 2669.6761 4302.1878 2662.8392 4310.9587 2653.3391 4304.2635 2641.7537 4296.8755 2631.5592 4287.1793 2623.2181 4281.1766 2616.2679 4271.9426 2607.4634 4266.4014 2596.8057 4259.475 2587.5388 4249.7789 2577.8079 4244.2374 2569.0044 4236.8495 2557.8838 4229.9227 2550.9345 4221.1503 2539.3504 4216.0698 2533.3283 4206.836 2527.7693 4199.4488 2522.6721 4198.5243 2527.771 4192.5247 2531.0173 4182.3702 2537.9706 4172.6783 2541.6797 4164.3705 2546.3156 4155.6013 2555.5845 4149.6028 2559.2936 4140.3719 2564.3913 4137.6035 2567.1728 4131.6036 2571.8078 4125.1424 2580.1497 4118.6821 2589.4184 4110.8372 2591.2717 4111.7607 2597.2972 4101.1457 2601.005 4096.0692 2612.5897 4090.5324 2619.0775 4084.5332 2626.492 4078.0726 2636.2232 4070.6892 2645.0278 4062.3825 2652.4419 4055.9218 2658.0029 4047.1532 2665.4166 4043.0002 2666.8069 4039.7696 Z" fill="none" stroke="#A9159C" opacity="0.6" stroke-width="1" class="dyker_heights"/>
<path d="M 2635.2959 4075.7661 2741.8625 4161.6271 2762.2514 4186.5537 2576.8482 4409.0543 2576.8561 4369.3478 2532.3635 4361.0275 2502.7063 4340.7056 2494.3701 4318.5429 2558.369 4130.2169 2623.249 4075.7644 2635.2959 4075.7661 Z" fill="none" stroke="#A9159C" opacity="0.6" stroke-width="1" class="dyker_heights"/>
<path d="M 2739.0765 4367.5195 2499.9298 4325.0079 2568.5678 4108.0637 2702.0088 4201.323 2800.2533 4279.8018 2739.0765 4367.5195 Z" fill="none" stroke="#A9159C" opacity="0.6" stroke-width="1" class="dyker_heights"/>
<path d="M 2557.4431 4126.5241 2797.7824 4284.0269 2726.0989 4366.6659 2537.9624 4206.8372 2557.4431 4126.5241 Z" fill="none" stroke="#A9159C" opacity="0.6" stroke-width="1" class="dyker_heights"/>
<path d="M 2553.6708 4418.7454 2460.9751 4407.2206 2397.9624 4345.3309 2606.583 3989.9171 2793.1439 4097.7346 2553.6708 4418.7454 Z" fill="none" stroke="#A9159C" opacity="0.6" stroke-width="1" class="dyker_heights"/>
<path d="M 2602.876 3993.6085 2968.0174 4269.6245 2757.6144 4542.979 2415.5512 4400.6976 2602.876 3993.6085 Z" fill="none" stroke="#A9159C" opacity="0.6" stroke-width="1" class="dyker_heights"/>
<path d="M 2591.2154 4417.3679 2585.4197 4426.832 2500.3907 4334.2415 2607.5092 3992.4555 2666.1117 4041.6157 2796.773 4142.2402 2591.2154 4417.3679 Z" fill="none" stroke="#A9159C" opacity="0.6" stroke-width="1" class="dyker_heights"/>
<path d="M 2598.6387 4376.7391 2582.6503 4366.1171 2575.6966 4373.272 2564.5722 4376.5016 2551.1321 4371.8817 2537.4611 4363.7989 2520.7786 4352.7142 2507.5723 4342.092 2498.0729 4335.8567 2538.4252 4209.1453 2518.5028 4193.4456 2563.4674 4124.2175 2610.7518 3995.9174 2648.7437 3987.1542 2797.9301 4102.5448 2792.8346 4152.3952 2598.6387 4376.7391 Z" fill="none" stroke="#A9159C" opacity="0.6" stroke-width="1" class="dyker_heights"/>
<path d="M 2604.7295 3991.7628 2792.8342 4139.4708 2744.6382 4372.1366 2638.9735 4293.6435 2581.4924 4361.9617 2492.5115 4335.1626 2516.6311 4262.2271 2488.8302 4244.6772 2604.7295 3991.7628 Z" fill="none" stroke="#A9159C" opacity="0.6" stroke-width="1" class="dyker_heights"/>
<path d="M 2637.15 4070.2277 2714.0634 4088.6972 2789.1278 4161.6271 2818.7875 4216.0954 2715.9047 4320.4271 2655.6499 4360.1265 2625.0581 4373.9732 2540.7033 4373.0335 2556.4613 4375.8073 2498.5265 4370.7141 2455.4236 4366.5457 2445.2297 4358.2319 2446.6239 4347.1519 2472.1186 4335.849 2433.6462 4348.3016 2419.2759 4355.2218 2419.5113 4345.0648 2432.4944 4328.6799 2450.8069 4311.8352 2442.3442 4325.4516 2447.0971 4318.1819 2470.7324 4322.2292 2516.6452 4208.6783 2522.2032 4219.7585 2509.2231 4236.3736 2500.881 4238.2178 2491.6086 4252.0642 2503.198 4238.6801 2492.999 4251.6029 2502.2698 4243.7578 2492.5334 4258.989 2491.6062 4260.1428 2484.4207 4267.9886 2472.8299 4283.6812 2467.2648 4295.6824 2460.3127 4296.8344 2461.8174 4301.5668 2554.6117 4356.4158 2580.577 4302.8671 2589.8521 4270.5531 2595.4182 4243.7791 2583.3718 4229.928 2586.1583 4198.5385 2600.9907 4178.2306 2616.7511 4145.9217 2588.9468 4155.1486 2578.754 4146.8381 2704.7939 4127.4682 2647.3365 4125.6165 2637.15 4070.2277 Z" fill="none" stroke="#A9159C" opacity="0.6" stroke-width="1" class="dyker_heights"/>
<path d="M 2420.1916 4385.9247 2620.4706 4064.6868 2754.8379 4108.0841 2604.6539 4436.7626 2420.1916 4385.9247 Z" fill="none" stroke="#A9159C" opacity="0.6" stroke-width="1" class="dyker_heights"/>
<path d="M 2571.0388 4376.8141 2499.6738 4332.4748 2666.4382 4039.3911 2788.6716 4133.196 2571.0388 4376.8141 Z" fill="none" stroke="#A9159C" opacity="0.6" stroke-width="1" class="dyker_heights"/>
<path d="M 2632.0012 4438.8446 2475.8292 4326.6166 2666.8069 4040.2311 2830.8317 4151.7009 2635.4783 4434.2278 2632.0012 4438.8446 Z" fill="none" stroke="#A9159C" opacity="0.6" stroke-width="1" class="dyker_heights"/>
<path d="M 2512.8881 4395.1881 2536.9976 4363.7988 2448.9543 4308.3721 2551.8806 4135.7544 2671.4404 4037.0009 2790.9806 4136.7014 2765.0317 4248.4107 2746.4924 4358.2859 2666.7628 4462.6281 2512.8881 4395.1881 Z" fill="none" stroke="#A9159C" opacity="0.6" stroke-width="1" class="dyker_heights"/>
<path d="M 2669.5864 4044.3852 2774.2991 4126.547 2593.5425 4364.7341 2489.7285 4342.5486 2524.9867 4207.7572 2514.7984 4182.8277 2507.3858 4176.3632 2669.5864 4044.3852 Z" fill="none" stroke="#A9159C" opacity="0.6" stroke-width="1" class="dyker_heights"/>
<path d="M 2573.1986 4121.9117 2709.4351 4001.9281 2757.6186 4044.3901 2764.1052 4047.1593 2527.7301 4355.4861 2461.939 4283.4469 2564.8578 4122.8331 2568.5649 4121.9108 2573.1986 4121.9117 Z" fill="none" stroke="#A9159C" opacity="0.6" stroke-width="1" class="dyker_heights"/>
<path d="M 2623.2592 4007.4573 2773.3724 4128.8549 2633.4116 4297.336 2566.6464 4431.2146 2481.8431 4363.7838 2530.0838 4209.6049 2575.0529 4117.2964 2575.0558 4102.9878 2623.2592 4007.4573 Z" fill="none" stroke="#A9159C" opacity="0.6" stroke-width="1" class="dyker_heights"/>
<path d="M 2593.5888 4109.9148 2597.2951 4113.1464 2754.1413 4242.1786 2631.7755 4396.4821 2492.5386 4240.9852 2593.5888 4109.9148 Z" fill="none" stroke="#A9159C" opacity="0.6" stroke-width="1" class="dyker_heights"/>
<path d="M 2556.7579 4212.0587 2587.352 4164.058 2642.9675 4092.984 2641.786 4049.9205 2723.3303 4090.5439 2801.1753 4149.6254 2738.1518 4286.2651 2645.4538 4356.4317 2593.5393 4382.2785 2508.2687 4337.9371 2556.7579 4212.0587 Z" fill="none" stroke="#A9159C" opacity="0.6" stroke-width="1" class="dyker_heights"/>
<path d="M 2579.8417 4108.8888 2722.863 4214.235 2719.1494 4343.4966 2517.8601 4280.4926 2579.8417 4108.8888 Z" fill="none" stroke="#A9159C" opacity="0.6" stroke-width="1" class="dyker_heights"/>
<path d="M 2746.9605 4125.1621 2670.9745 4063.3085 2623.2421 4120.9974 2763.1783 4139.4712 2693.6672 4205.9386 2646.3891 4289.9512 2651.0128 4379.517 2624.1242 4420.1437 2472.1007 4393.3295 2403.5412 4293.5827 2618.6072 4129.3051 2746.9605 4125.1621 Z" fill="none" stroke="#A9159C" opacity="0.6" stroke-width="1" class="dyker_heights"/>
<path d="M 2540.7413 4213.3004 2491.5853 4332.3923 2454.523 4286.2144 2654.7599 4044.3836 2768.7387 4131.1628 2647.3162 4288.1047 2540.7413 4213.3004 Z" fill="none" stroke="#A9159C" opacity="0.6" stroke-width="1" class="dyker_heights"/>
<path d="M 2617.6424 4373.0486 2573.1405 4407.2067 2503.6199 4388.7217 2472.1216 4325.923 2497.1747 4234.5237 2543.5397 4136.6757 2592.6643 4097.914 2657.5382 4059.1532 2692.7542 4025.9261 2744.6466 3989.9302 2858.6284 4089.6171 2873.461 4136.6956 2824.3476 4203.1698 2724.2484 4289.0345 2682.5337 4338.8918 2647.3066 4365.6657 2619.4935 4391.5169 2589.8283 4398.8992 2658.4356 4317.6524 2617.6424 4373.0486 Z" fill="none" stroke="#A9159C" opacity="0.6" stroke-width="1" class="dyker_heights"/>
<path d="M 2536.9976 4363.7988 2486.024 4331.4673 2488.818 4286.225 2610.2722 4095.1476 2839.1749 4181.9348 2666.7726 4368.4381 2561.1002 4357.3406 2568.514 4366.576 2536.9976 4363.7988 Z" fill="none" stroke="#A9159C" opacity="0.6" stroke-width="1" class="dyker_heights"/>
<path d="M 2601.9496 3992.6854 2870.6879 4201.3193 2659.346 4465.3977 2451.7016 4409.021 2390.5401 4355.4416 2547.2424 4155.1399 2601.9496 3992.6854 Z" fill="none" stroke="#A9159C" opacity="0.6" stroke-width="1" class="dyker_heights"/>
<path d="M 2489.7123 4397.9519 2540.7516 4169.9094 2584.3223 4106.2205 2618.6161 4072.0712 2647.3462 4048.075 2674.2186 4055.4626 2732.598 4071.159 2770.592 4095.1604 2828.9774 4140.3922 2843.8075 4165.3169 2825.2755 4219.7879 2786.3502 4284.4187 2731.662 4331.508 2692.7289 4354.5898 2628.7652 4379.5141 2594.4641 4394.2829 2559.2344 4411.8209 2489.7123 4397.9519 Z" fill="none" stroke="#A9159C" opacity="0.6" stroke-width="1" class="dyker_heights"/>
<path d="M 2785.4281 4512.502 2736.2903 4539.2844 2461.899 4408.1009 2499.928 4331.4713 2544.4578 4173.603 2865.1492 4411.8381 2785.4281 4512.502 Z" fill="none" stroke="#A9159C" opacity="0.6" stroke-width="1" class="dyker_heights"/>
<path d="M 2617.6424 4373.0486 2536.0666 4380.4195 2493.4424 4321.3127 2562.0484 4258.5449 2670.5103 4071.6163 2661.7065 4075.077 2650.1236 4069.7679 2652.9031 4073.9221 2638.0762 4073.9203 2610.2725 4093.3014 2589.8818 4110.8373 2544.4604 4162.5247 2529.6247 4192.0636 2596.3586 4168.0746 2586.1591 4193.9224 2562.0573 4216.9982 2652.4348 4115.0009 2671.4363 4078.5397 2694.6036 4077.6186 2776.1521 4085.9292 2783.5662 4109.9303 2791.9072 4130.2392 2752.9826 4247.4874 2701.076 4289.0332 2678.3652 4309.3444 2669.5579 4325.0403 2617.6424 4373.0486 Z" fill="none" stroke="#A9159C" opacity="0.6" stroke-width="1" class="dyker_heights"/>
<path d="M 2537.0347 4210.5299 2572.6246 4096.1792 2766.422 4250.3727 2765.9586 4250.7189 2744.1746 4376.7535 2537.0347 4210.5299 Z" fill="none" stroke="#A9159C" opacity="0.6" stroke-width="1" class="dyker_heights"/>
<path d="M 2579.6675 4214.2321 2682.5557 4088.6949 2726.1098 4104.3908 2756.6911 4136.7017 2774.2998 4197.6322 2800.2514 4227.1751 2766.8855 4278.8791 2745.5664 4315.8115 2702.9287 4304.7297 2673.2718 4262.2554 2646.3917 4269.6387 2625.0777 4241.9374 2599.13 4218.8519 2579.6675 4214.2321 Z" fill="none" stroke="#A9159C" opacity="0.6" stroke-width="1" class="dyker_heights"/>
<path d="M 2558.3688 4131.1401 2668.6602 4039.7698 2673.2928 4047.1548 2749.2777 4103.4684 2618.5851 4271.4813 2539.814 4215.1467 2558.3688 4131.1401 Z" fill="none" stroke="#A9159C" opacity="0.6" stroke-width="1" class="dyker_heights"/>
<path d="M 2518.4841 4264.9975 2487.9041 4241.9071 2515.722 4194.8296 2541.6821 4154.2155 2551.876 4156.0642 2563.9299 4128.3718 2690.9019 4013.0032 2796.5396 4090.5443 2638.0466 4293.6434 2535.1819 4206.8365 2518.4841 4264.9975 Z" fill="none" stroke="#A9159C" opacity="0.6" stroke-width="1" class="dyker_heights"/>
<path d="M 2493.4424 4321.3127 2508.2898 4260.3783 2558.3644 4151.4497 2588.0339 4081.297 2595.457 4027.7597 2619.5519 4012.9949 2832.6868 4173.6265 2858.6421 4229.0177 2810.4505 4310.2707 2734.4416 4369.3661 2645.4482 4400.7547 2578.7053 4393.3566 2493.4424 4321.3127 Z" fill="none" stroke="#A9159C" opacity="0.6" stroke-width="1" class="dyker_heights"/>
<path d="M 2582.4183 4367.5022 2499.9275 4333.318 2673.2943 4031.4627 2570.4174 4126.5269 2537.9628 4204.9907 2821.1015 4164.3953 2686.2427 4324.1185 2644.5352 4290.8743 2582.4183 4367.5022 Z" fill="none" stroke="#A9159C" opacity="0.6" stroke-width="1" class="dyker_heights"/>
<path d="M 2639.6688 4292.4895 2535.1803 4213.2991 2581.0835 4082.2188 2746.0331 4155.8573 2639.6688 4292.4895 Z" fill="none" stroke="#A9159C" opacity="0.6" stroke-width="1" class="dyker_heights"/>
<path d="M 2539.8149 4211.4538 2622.3446 3928.0794 2771.5185 4056.3901 2629.7055 4286.2558 2539.8149 4211.4538 Z" fill="none" stroke="#A9159C" opacity="0.6" stroke-width="1" class="dyker_heights"/>
<path d="M 2661.247 4039.769 2855.8572 4182.8566 2706.6338 4345.8188 2637.583 4294.105 2545.3729 4223.9188 2512.9402 4199.9066 2521.2854 4184.6758 2524.0677 4177.2908 2550.9513 4147.2938 2584.7842 4114.0673 2602.8584 4096.0695 2627.8826 4073.9188 2641.7841 4064.6898 2661.247 4039.769 Z" fill="none" stroke="#A9159C" opacity="0.6" stroke-width="1" class="dyker_heights"/>
<path d="M 2605.6549 3999.1472 2614.9211 3998.6872 2802.1018 4141.7784 2665.3885 4308.4198 2540.7406 4216.0702 2535.645 4208.2214 2542.1307 4216.5321 2605.6549 3999.1472 Z" fill="none" stroke="#A9159C" opacity="0.6" stroke-width="1" class="dyker_heights"/>
<path d="M 2602.8028 4418.986 2566.6484 4421.9802 2438.7528 4324.0654 2555.5827 4157.9114 2708.4934 4251.1788 2602.8028 4418.986 Z" fill="none" stroke="#A9159C" opacity="0.6" stroke-width="1" class="dyker_heights"/>
<path d="M 2580.5644 4367.5018 2406.2991 4353.601 2613.9954 3992.6874 2778.0059 4114.546 2580.5644 4367.5018 Z" fill="none" stroke="#A9159C" opacity="0.6" stroke-width="1" class="dyker_heights"/>
<path d="M 2871.6147 4201.3192 2661.2005 4461.704 2448.0326 4292.6754 2543.5362 4151.4464 2601.0231 3991.7622 2416.6402 3961.7144 2603.8036 3987.6091 2871.6147 4201.3192 Z" fill="none" stroke="#A9159C" opacity="0.6" stroke-width="1" class="dyker_heights"/>
<path d="M 2618.6086 4120.0736 2623.2425 4118.6896 2628.8023 4122.8445 2633.434 4136.6925 2639.2266 4133.4622 2618.6086 4120.0736 Z" fill="none" stroke="#A9159C" opacity="0.6" stroke-width="1" class="dyker_heights"/>
<path d="M 2536.1076 4211.4529 2561.6131 4127.9098 2633.4438 4066.5349 2780.3238 4181.476 2737.2225 4368.4428 2536.1076 4211.4529 Z" fill="none" stroke="#A9159C" opacity="0.6" stroke-width="1" class="dyker_heights"/>
<path d="M 2606.5827 3991.7631 2793.761 4140.3939 2739.0764 4369.3663 2639.9007 4290.8737 2561.089 4409.051 2495.2928 4333.3167 2489.7573 4243.7542 2606.5827 3991.7631 Z" fill="none" stroke="#A9159C" opacity="0.6" stroke-width="1" class="dyker_heights"/>
<path d="M 2625.0705 4289.9483 2619.5089 4291.3324 2615.3383 4288.5619 2603.2905 4277.9419 2600.9739 4274.71 2596.8037 4270.5544 2589.39 4263.6284 2577.8068 4249.777 2550.4691 4229.9211 2537.9603 4215.6079 2544.4496 4208.6852 2566.6979 4186.5328 2580.6058 4155.6086 2615.8284 4120.5347 2638.0747 4084.536 2664.0248 4059.6155 2685.3391 4049.9251 2708.9679 4066.0808 2735.8405 4098.3908 2771.0555 4117.7771 2770.1288 4117.3155 2758.0812 4139.9328 2735.8382 4172.2436 2714.5211 4193.0148 2761.7882 4126.0854 2676.5178 4241.4821 2656.5879 4264.1002 2652.8796 4271.486 2641.7543 4292.7206 2628.7766 4300.1053 2607.4614 4278.8659 2625.0705 4289.9483 Z" fill="none" stroke="#A9159C" opacity="0.6" stroke-width="1" class="dyker_heights"/>
<path d="M 2663.1004 4038.8461 2866.9803 4197.6268 2658.4195 4459.8567 2378.4911 4351.7433 2551.8804 4136.6776 2663.1004 4038.8461 Z" fill="none" stroke="#A9159C" opacity="0.6" stroke-width="1" class="dyker_heights"/>
<path d="M 2637.1189 4299.1832 2519.4292 4194.8306 2609.3613 3999.1478 2773.3724 4129.3164 2637.1189 4299.1832 Z" fill="none" stroke="#A9159C" opacity="0.6" stroke-width="1" class="dyker_heights"/>
<path d="M 2545.3756 4212.3783 2666.8065 4043.4619 2872.5421 4206.8585 2740.0032 4377.6768 2545.3756 4212.3783 Z" fill="none" stroke="#A9159C" opacity="0.6" stroke-width="1" class="dyker_heights"/>
<path d="M 2781.9436 4063.7747 2781.712 4066.6593 2618.2376 4271.2505 2522.2086 4198.755 2686.9658 3988.8888 2720.5524 4043.5813 2781.9436 4063.7747 Z" fill="none" stroke="#A9159C" opacity="0.6" stroke-width="1" class="dyker_heights"/>
<path d="M 2605.6563 3990.84 2790.9807 4137.163 2744.1749 4361.5177 2736.2955 4367.9811 2520.8192 4195.7542 2561.6131 4127.9098 2605.6563 3990.84 Z" fill="none" stroke="#A9159C" opacity="0.6" stroke-width="1" class="dyker_heights"/>
<path d="M 2571.3504 4096.0636 2603.8026 3993.6087 2772.4456 4121.0081 2569.4386 4377.6568 2496.219 4336.087 2571.3504 4096.0636 Z" fill="none" stroke="#A9159C" opacity="0.6" stroke-width="1" class="dyker_heights"/>
<path d="M 2780.7868 4159.7809 2575.8028 4421.6358 2409.0716 4375.7632 2653.8322 4053.6143 2780.7868 4159.7809 Z" fill="none" stroke="#A9159C" opacity="0.6" stroke-width="1" class="dyker_heights"/>
<path d="M 2492.5127 4331.0075 2579.116 4073.5643 2648.8597 3985.7697 2816.4651 4117.3142 2661.6808 4308.8811 2637.8154 4289.7193 2581.1444 4363.9238 2575.6972 4370.3864 2570.4822 4373.9635 2566.4266 4374.6552 2560.1697 4373.615 2555.5352 4371.6518 2539.778 4366.1079 2492.5127 4331.0075 Z" fill="none" stroke="#A9159C" opacity="0.6" stroke-width="1" class="dyker_heights"/>
<path d="M 2601.8845 4368.8908 2433.1797 4356.8426 2607.9556 4093.7626 2724.2529 4184.7064 2601.8845 4368.8908 Z" fill="none" stroke="#A9159C" opacity="0.6" stroke-width="1" class="dyker_heights"/>
<path d="M 2677.926 4048.0783 2651.5122 4081.5376 2654.292 4083.1534 2780.0921 4181.9376 2769.2026 4247.9491 2752.2867 4302.8851 2714.281 4349.5127 2542.8255 4218.1479 2677.926 4048.0783 Z" fill="none" stroke="#A9159C" opacity="0.6" stroke-width="1" class="dyker_heights"/>
<path d="M 2515.7227 4192.06 2664.9532 4043.4617 2765.0318 4118.2387 2756.6911 4129.3164 2665.8521 4307.4965 2637.1212 4282.5636 2515.7227 4192.06 Z" fill="none" stroke="#A9159C" opacity="0.6" stroke-width="1" class="dyker_heights"/>
<path d="M 2644.5354 4289.0277 2546.6126 4205.6085 2606.8898 4000.6861 2778.3147 4127.1627 2644.5354 4289.0277 Z" fill="none" stroke="#A9159C" opacity="0.6" stroke-width="1" class="dyker_heights"/>
<path d="M 2538.8865 4217.9162 2609.3394 4132.073 2732.5926 4226.252 2655.6553 4313.9587 2538.8865 4217.9162 Z" fill="none" stroke="#A9159C" opacity="0.6" stroke-width="1" class="dyker_heights"/>
<path d="M 2606.9867 4135.9084 2733.9472 4237.4742 2580.9723 4428.9921 2442.8698 4355.0824 2606.9867 4135.9084 Z" fill="none" stroke="#A9159C" opacity="0.6" stroke-width="1" class="dyker_heights"/>
<path d="M 2601.9499 3990.8393 2627.899 3961.3073 2892.9277 4174.5435 2648.2232 4448.7739 2523.0832 4402.5781 2454.4851 4401.6346 2397.0334 4343.4404 2452.664 4301.9101 2557.4401 4140.3715 2601.9499 3990.8393 Z" fill="none" stroke="#A9159C" opacity="0.6" stroke-width="1" class="dyker_heights"/>
<path d="M 2638.0476 4286.2569 2549.0846 4204.9933 2671.4401 4040.6931 2772.4456 4117.3155 2646.3897 4285.3347 2638.0476 4286.2569 Z" fill="none" stroke="#A9159C" opacity="0.6" stroke-width="1" class="dyker_heights"/>
<path d="M 2496.2184 4337.9337 2542.5947 4214.2241 2563.9305 4125.6024 2702.9339 4226.2505 2575.0009 4375.8112 2496.2184 4337.9337 Z" fill="none" stroke="#A9159C" opacity="0.6" stroke-width="1" class="dyker_heights"/>
<path d="M 2528.6919 4216.0672 2588.0285 4109.9138 2609.3399 4129.0728 2708.9595 4206.4012 2639.2054 4291.7969 2528.6919 4216.0672 Z" fill="none" stroke="#A9159C" opacity="0.6" stroke-width="1" class="dyker_heights"/>
<path d="M 2537.9473 4269.6188 2537.0329 4217.9157 2563.9232 4159.7595 2585.2411 4147.7625 2637.141 4136.693 2719.6181 4202.2473 2600.9602 4353.6549 2574.0752 4369.3473 2500.8555 4329.6249 2503.6516 4274.2264 2532.3926 4242.8424 2537.9473 4269.6188 Z" fill="none" stroke="#A9159C" opacity="0.6" stroke-width="1" class="dyker_heights"/>
<path d="M 2641.7558 4280.7176 2521.2735 4230.8372 2608.4333 4007.4549 2801.1748 4134.8547 2641.7558 4280.7176 Z" fill="none" stroke="#A9159C" opacity="0.6" stroke-width="1" class="dyker_heights"/>
<path d="M 2546.7291 4371.1881 2496.2191 4335.6253 2561.1497 4128.3712 2664.9539 4037.4617 2772.4456 4123.316 2571.7568 4373.9638 2546.7291 4371.1881 Z" fill="none" stroke="#A9159C" opacity="0.6" stroke-width="1" class="dyker_heights"/>
<path d="M 2606.5823 3994.5322 2794.2244 4142.7018 2662.7234 4310.7278 2533.3269 4212.3754 2606.5823 3994.5322 Z" fill="none" stroke="#A9159C" opacity="0.6" stroke-width="1" class="dyker_heights"/>
<path d="M 2637.1204 4288.1034 2650.0978 4281.1803 2679.2978 4247.0219 2695.5193 4225.7883 2700.1532 4229.9433 2730.2758 4217.9427 2762.2511 4253.9504 2781.7156 4279.3406 2766.4221 4314.8884 2750.6639 4347.2055 2737.2227 4360.1324 2739.0767 4358.7474 2670.4888 4286.2607 2677.9012 4314.8844 2732.5881 4356.4388 2740.0033 4373.9832 2717.754 4409.9953 2673.255 4434.0014 2600.9518 4401.6714 2583.3435 4376.7362 2600.0361 4337.0342 2637.1204 4288.1034 Z" fill="none" stroke="#A9159C" opacity="0.6" stroke-width="1" class="dyker_heights"/>
<path d="M 2774.2992 4130.2396 2583.3455 4366.579 2562.9411 4418.2857 2427.6026 4399.7785 2384.0584 4337.8951 2673.2932 4042.5395 2774.2992 4130.2396 Z" fill="none" stroke="#A9159C" opacity="0.6" stroke-width="1" class="dyker_heights"/>
<path d="M 2562.8682 4194.8979 2569.165 4184.5452 2589.2109 4161.6894 2608.4294 4138.5475 2621.8434 4121.1388 2633.9001 4104.9899 2647.321 4088.782 2660.0527 4074.8901 2677.76 4049.9623 2701.1475 4068.4396 2725.0512 4088.6128 2748.4465 4106.6135 2770.5162 4124.206 2740.6982 4163.268 2721.2513 4186.9137 2709.65 4203.5015 2702.155 4213.0482 2687.757 4227.8901 2671.2625 4250.3159 2658.0084 4266.4486 2637.7037 4292.2599 2614.617 4272.5496 2591.3739 4252.9305 2567.8977 4234.2 2544.8464 4217.9227 2551.955 4208.9809 2558.0377 4201.1605 2562.8682 4194.8979 Z" fill="none" stroke="#A9159C" opacity="0.6" stroke-width="1" class="dyker_heights"/>
<path d="M 2667.7336 4039.7697 2802.1021 4149.6254 2665.8515 4313.0365 2548.1594 4197.6073 2667.7336 4039.7697 Z" fill="none" stroke="#A9159C" opacity="0.6" stroke-width="1" class="dyker_heights"/>
<path d="M 2622.1977 3974.617 2772.8755 4106.1926 2633.3725 4291.3548 2575.8911 4360.5958 2590.7189 4379.9898 2557.3394 4416.9196 2506.1958 4389.5452 2525.6694 4362.7719 2489.5237 4342.4479 2468.2062 4335.0546 2475.0149 4297.6663 2457.4098 4279.1945 2542.471 4145.3726 2622.1977 3974.617 Z" fill="none" stroke="#A9159C" opacity="0.6" stroke-width="1" class="dyker_heights"/>
<path d="M 2763.1777 4387.8346 2524.0632 4194.8318 2671.4405 4036.0778 2898.4946 4218.8572 2763.1777 4387.8346 Z" fill="none" stroke="#A9159C" opacity="0.6" stroke-width="1" class="dyker_heights"/>
<path d="M 2496.2174 4341.6271 2665.8796 4046.231 2975.434 4277.0092 2788.2098 4529.1256 2496.2174 4341.6271 Z" fill="none" stroke="#A9159C" opacity="0.6" stroke-width="1" class="dyker_heights"/>
<path d="M 2840.1062 4239.6368 2843.8141 4245.6377 2856.3273 4253.0227 2937.4403 4323.1828 2827.1444 4454.32 2704.7795 4352.7439 2654.7292 4306.572 2758.544 4216.0968 2840.1062 4239.6368 Z" fill="none" stroke="#A9159C" opacity="0.6" stroke-width="1" class="dyker_heights"/>
<path d="M 2536.3392 4212.1453 2562.0764 4128.6022 2580.3823 4113.6049 2665.6486 4039.5387 2772.4456 4123.316 2639.4371 4292.0278 2536.3392 4212.1453 Z" fill="none" stroke="#A9159C" opacity="0.6" stroke-width="1" class="dyker_heights"/>
<path d="M 2687.1934 4037.9254 2901.2747 4216.0871 2706.6255 4479.2541 2410.0093 4347.1388 2687.1934 4037.9254 Z" fill="none" stroke="#A9159C" opacity="0.6" stroke-width="1" class="dyker_heights"/>
<path d="M 2664.9539 4037.0002 2872.5415 4201.3191 2660.2735 4460.7804 2537.9151 4403.5052 2417.4117 4383.1535 2409.0848 4340.675 2490.6839 4244.6777 2664.9539 4037.0002 Z" fill="none" stroke="#A9159C" opacity="0.6" stroke-width="1" class="dyker_heights"/>
<path d="M 2416.516 4298.2042 2695.5344 4022.2341 2786.578 4107.6224 2558.3061 4417.823 2416.516 4298.2042 Z" fill="none" stroke="#A9159C" opacity="0.6" stroke-width="1" class="dyker_heights"/>
<path d="M 2674.2072 4173.6245 2653.8102 4240.0948 2645.4684 4241.017 2641.7618 4235.477 2674.2072 4173.6245 Z" fill="none" stroke="#A9159C" opacity="0.6" stroke-width="1" class="dyker_heights"/>
<path d="M 2545.3749 4215.148 2604.7283 3999.147 2802.102 4148.7022 2661.217 4312.1127 2545.3749 4215.148 Z" fill="none" stroke="#A9159C" opacity="0.6" stroke-width="1" class="dyker_heights"/>
<path d="M 2649.1704 4285.3351 2523.1352 4199.4477 2611.2157 3991.7639 2775.2258 4121.9312 2649.1704 4285.3351 Z" fill="none" stroke="#A9159C" opacity="0.6" stroke-width="1" class="dyker_heights"/>
<path d="M 2493.0033 4236.8307 2580.6081 4144.069 2721.0075 4219.3272 2667.2401 4330.1184 2493.0033 4236.8307 Z" fill="none" stroke="#A9159C" opacity="0.6" stroke-width="1" class="dyker_heights"/>
<path d="M 2597.1458 4363.9351 2552.0621 4427.9341 2562.2624 4414.0848 2556.6991 4419.6242 2393.5701 4351.2424 2512.5757 4200.9968 2527.5662 4184.9183 2608.1239 3990.5431 2801.1649 4144.367 2597.1458 4363.9351 Z" fill="none" stroke="#A9159C" opacity="0.6" stroke-width="1" class="dyker_heights"/>
<path d="M 2538.889 4207.7606 2576.4428 4118.6814 2576.4424 4120.2969 2587.5645 4113.1447 2588.0277 4114.0679 2635.2957 4076.6892 2628.81 4069.3035 2667.7333 4042.5389 2664.49 4042.077 2675.1463 4044.3858 2676.0728 4046.232 2747.8876 4103.4683 2749.046 4105.5454 2750.6676 4110.8534 2747.8875 4112.2381 2714.987 4146.8552 2719.6206 4151.4713 2647.3354 4134.848 2630.6551 4127.4605 2588.01 4208.6943 2630.191 4132.5378 2628.8007 4133.9224 2634.3615 4131.1537 2634.3611 4133.9231 2708.4996 4149.6243 2708.4996 4149.1628 2706.9932 4155.3941 2700.8527 4165.5487 2692.9743 4176.3957 2692.2792 4176.1648 2667.2534 4202.2433 2667.2535 4201.3201 2636.6627 4246.3246 2636.4311 4245.4013 2613.4875 4270.5572 2612.0975 4268.2488 2616.733 4261.3249 2616.7333 4259.4783 2541.2059 4208.2228 2538.889 4207.7606 Z" fill="none" stroke="#A9159C" opacity="0.6" stroke-width="1" class="dyker_heights"/>
<path d="M 2539.3517 4210.5304 2566.7099 4129.2956 2629.7363 4071.6114 2777.0801 4187.0152 2753.4454 4297.8068 2722.8557 4339.3561 2715.9034 4345.3576 2539.3517 4210.5304 Z" fill="none" stroke="#A9159C" opacity="0.6" stroke-width="1" class="dyker_heights"/>
<path d="M 2664.9537 4038.8463 2793.761 4141.3171 2728.8858 4212.4032 2583.3949 4109.9129 2664.9537 4038.8463 Z" fill="none" stroke="#A9159C" opacity="0.6" stroke-width="1" class="dyker_heights"/>
<path d="M 2605.6563 3990.84 2773.3724 4123.7775 2568.512 4375.8099 2495.2936 4330.5466 2605.6563 3990.84 Z" fill="none" stroke="#A9159C" opacity="0.6" stroke-width="1" class="dyker_heights"/>
<path d="M 2772.4456 4121.9312 2582.4094 4413.6725 2415.5686 4353.6045 2610.2879 3999.1479 2772.4456 4121.9312 Z" fill="none" stroke="#A9159C" opacity="0.6" stroke-width="1" class="dyker_heights"/>
<path d="M 2521.2821 4197.6008 2709.434 4019.4658 2749.273 4373.9835 2521.2821 4197.6008 Z" fill="none" stroke="#A9159C" opacity="0.6" stroke-width="1" class="dyker_heights"/>
<path d="M 2521.2829 4194.3695 2574.5942 4094.218 2714.984 4203.1703 2642.6815 4289.9508 2521.2829 4194.3695 Z" fill="none" stroke="#A9159C" opacity="0.6" stroke-width="1" class="dyker_heights"/>
<path d="M 2813.2115 3918.8594 2821.5503 3918.859 3031.0289 4212.3666 2747.4174 4461.7096 2412.7891 4349.91 2541.6838 4146.8301 2813.2115 3918.8594 Z" fill="none" stroke="#A9159C" opacity="0.6" stroke-width="1" class="dyker_heights"/>
<path d="M 2606.1194 3991.763 2847.9794 4182.3957 2712.1953 4350.4359 2500.897 4180.9775 2606.1194 3991.763 Z" fill="none" stroke="#A9159C" opacity="0.6" stroke-width="1" class="dyker_heights"/>
<path d="M 2435.9807 4299.1345 2452.6741 4271.441 2474.9285 4240.98 2499.0333 4216.9826 2512.0168 4187.443 2522.2172 4165.2888 2532.4192 4134.8267 2541.6926 4109.9039 2554.6693 4097.9063 2568.5689 4102.5249 2583.394 4114.5286 2586.1719 4126.53 2607.4848 4138.5348 2621.3843 4149.6151 2637.6007 4163.4651 2653.3549 4171.3142 2673.2791 4187.4724 2689.4969 4200.8605 2708.496 4209.1709 2697.8367 4221.1723 2692.2749 4232.2508 2685.7864 4239.1747 2677.9074 4247.945 2665.8571 4259.4848 2657.9771 4274.2565 2644.5353 4289.951 2637.5822 4300.1066 2628.3117 4310.2618 2613.9419 4326.8797 2603.0482 4339.574 2594.2404 4349.9602 2586.3593 4360.5776 2579.8688 4369.5793 2578.4765 4378.8129 2576.3892 4386.6614 2574.5333 4395.8951 2568.507 4399.8184 2561.3212 4407.2042 2547.1846 4405.8159 2542.0875 4399.8125 2542.3208 4392.887 2535.6012 4388.2683 2528.8824 4380.8795 2522.1629 4376.4916 2513.5888 4374.8734 2506.1738 4371.6396 2491.3453 4361.0165 2486.2491 4353.8588 2492.0448 4346.2428 2497.8401 4339.7809 2501.3195 4327.5475 2507.348 4314.8532 2483.2366 4353.6271 2464.6977 4352.698 2444.3115 4332.3774 2435.9807 4299.1345 Z" fill="none" stroke="#A9159C" opacity="0.6" stroke-width="1" class="dyker_heights"/>
<path d="M 2779.8563 3911.477 3041.1569 3982.5061 3306.9556 3748.898 3398.3234 4622.1965 2619.4909 4408.1384 2463.8756 4024.0346 2779.8563 3911.477 Z" fill="none" stroke="#A9159C" opacity="0.6" stroke-width="1" class="dyker_heights"/>
<path d="M 2668.6603 4038.8467 2770.5922 4118.2387 2637.1195 4294.5666 2543.5202 4219.7638 2563.0029 4129.2948 2668.6603 4038.8467 Z" fill="none" stroke="#A9159C" opacity="0.6" stroke-width="1" class="dyker_heights"/>
<path d="M 2774.2991 4123.7775 2637.1199 4291.7967 2535.181 4210.5294 2605.6566 3988.9939 2774.2991 4123.7775 Z" fill="none" stroke="#A9159C" opacity="0.6" stroke-width="1" class="dyker_heights"/></svg>