<?xml version="1.0"?><svg xmlns="http://www.w3.org/2000/svg" version="1.2" baseProfile="tiny" width="6000" height="5918" viewBox="0 0 6000 5918" stroke-linecap="round" stroke-linejoin="round"><path d="M 3616.3391 3723.7553 3627.5351 3811.4115 3482.2386 4012.7346 3217.1471 3851.3798 3211.543 3755.4073 3616.3391 3723.7553 Z" fill="none" stroke="#A9159C" opacity="0.6" stroke-width="1" class="east_flatbush"/>
<path d="M 3626.0514 3708.0596 3671.9062 3709.8623 3703.4087 3717.2136 3714.0717 3727.3533 3738.6412 3748.0908 3750.2337 3760.5365 3690.5231 3802.1236 3613.6822 3859.8747 3559.4865 3863.6134 3529.3604 3844.2575 3518.6271 3745.0619 3517.2162 3718.3027 3584.3711 3713.1718 3626.0514 3708.0596 Z" fill="none" stroke="#A9159C" opacity="0.6" stroke-width="1" class="east_flatbush"/>
<path d="M 3492.5853 3582.6735 3498.4117 3594.1927 3509.527 3595.1067 3606.6532 3708.0993 3659.5236 4232.8163 3572.4692 4313.2211 3492.5853 3582.6735 Z" fill="none" stroke="#A9159C" opacity="0.6" stroke-width="1" class="east_flatbush"/>
<path d="M 3660.3726 3757.8574 3688.1854 3779.978 3700.7127 3801.1907 3689.1492 3818.2747 3629.4276 3854.7846 3565.0181 3831.3078 3588.0989 3739.0059 3618.6458 3713.6029 3641.8203 3731.1141 3660.3726 3757.8574 Z" fill="none" stroke="#A9159C" opacity="0.6" stroke-width="1" class="east_flatbush"/>
<path d="M 3290.3241 3826.4245 3284.6286 3577.2878 3334.6088 3520.0584 3429.0713 3514.4614 3473.5064 3488.5979 3516.0577 3425.8348 3562.3896 3460.8515 3688.4792 3606.504 3883.7664 3744.0859 3887.5682 3825.2897 3735.7116 3902.9811 3643.1319 3980.6013 3544.4611 4178.8491 3377.6647 4217.7471 3288.6722 4186.4108 3227.4767 4131.0518 3229.256 3979.6654 3290.3241 3826.4245 Z" fill="none" stroke="#A9159C" opacity="0.6" stroke-width="1" class="east_flatbush"/>
<path d="M 3643.4746 4016.2908 3536.9802 4099.4614 3463.82 4166.9087 3328.4169 4009.1465 3317.165 3782.1129 3517.2515 3762.596 3622.8528 3756.0466 3643.4746 4016.2908 Z" fill="none" stroke="#A9159C" opacity="0.6" stroke-width="1" class="east_flatbush"/>
<path d="M 3359.9365 4032.2034 3540.6144 4010.8425 3541.5471 4018.226 3543.4679 4100.3792 3414.6635 4112.4771 3359.9365 4032.2034 Z" fill="none" stroke="#A9159C" opacity="0.6" stroke-width="1" class="east_flatbush"/>
<path d="M 3206.9017 3735.1083 3618.1743 3704.3758 3633.1758 3900.9267 3552.6167 3958.2207 3272.7846 3943.6446 3217.1537 3865.2232 3206.9017 3735.1083 Z" fill="none" stroke="#A9159C" opacity="0.6" stroke-width="1" class="east_flatbush"/>
<path d="M 3374.654 3863.289 3401.5224 3864.1943 3432.1541 3946.3146 3370.0676 3935.2806 3374.654 3863.289 Z" fill="none" stroke="#A9159C" opacity="0.6" stroke-width="1" class="east_flatbush"/>
<path d="M 3304.4443 3568.6115 3300.8454 3592.0408 3296.808 3565.5655 3300.1498 3564.9994 3314.2581 3562.1633 3326.4161 3565.27 3348.6429 3562.604 3355.5827 3563.0357 3371.5837 3560.8444 3378.622 3563.7129 3400.2597 3566.2115 3410.577 3566.1135 3417.1629 3566.7766 3438.2249 3569.4462 3437.1835 3570.1389 3445.0562 3570.2486 3466.7066 3571.2707 3476.1094 3572.4095 3484.7682 3572.2951 3505.0291 3572.8561 3515.9346 3571.1101 3513.2483 3571.927 3515.879 3572.4846 3505.9849 3574.2438 3515.0242 3585.4234 3512.5933 3585.8867 3524.9922 3599.4857 3531.2468 3608.1184 3547.0135 3628.07 3552.5707 3632.8974 3560.8045 3643.5906 3561.1528 3644.7437 3566.6009 3652.1206 3585.2661 3670.1057 3592.5566 3680.1515 3610.1869 3700.0723 3617.7083 3708.8492 3626.9954 3720.9343 3636.6034 3731.7856 3655.1619 3751.7058 3664.203 3761.1559 3671.7748 3773.4777 3678.1529 3783.0457 3699.174 3803.9707 3705.8128 3812.8112 3712.2043 3821.7688 3719.7405 3830.5284 3737.325 3849.0419 3744.0667 3859.3493 3744.3103 3861.1882 3747.4445 3860.883 3748.8374 3863.9963 3753.3604 3870.1058 3757.7661 3874.7157 3760.9868 3881.4323 3758.3276 3885.7036 3750.6907 3892.172 3745.3659 3894.7156 3741.319 3901.0649 3736.8041 3902.9154 3732.752 3906.005 3729.4616 3909.1731 3714.535 3922.6863 3707.8242 3929.2691 3703.7736 3932.3881 3702.2683 3932.7357 3697.7331 3936.1075 3694.6094 3939.5717 3691.2708 3941.6285 3686.6418 3945.4403 3681.6507 3950.536 3677.2516 3952.7323 3674.4761 3957.0038 3663.5859 3964.718 3654.9087 3972.4564 3628.9791 3988.6331 3647.095 3977.6946 3627.6454 3995.0261 3616.6999 4003.5981 3616.1172 3999.9748 3599.2166 4009.6154 3584.2601 4003.4485 3583.6404 4002.9119 3569.1989 4003.2306 3563.7551 4003.3506 3551.3746 4004.8085 3546.6152 4006.3647 3532.2557 4010.184 3527.5045 4007.3034 3517.1477 4006.4223 3508.4049 4007.6123 3508.6051 4009.1039 3488.9168 4012.2344 3482.3474 4012.363 3481.2718 4011.7787 3477.5657 4012.3584 3473.1643 4012.3617 3457.9911 4012.7191 3448.1785 4012.9652 3432.9731 4014.0063 3426.2882 4014.596 3426.14 4015.0495 3406.7977 4016.5627 3400.8915 4018.0667 3393.637 4018.4294 3392.5043 4018.6366 3382.1168 4018.5948 3369.6092 4021.6027 3359.9948 4020.5704 3353.8415 4021.7273 3348.6295 4022.192 3342.681 4022.9214 3330.521 4026.3902 3332.4861 4019.5815 3329.6932 3997.8918 3330.8472 3990.7377 3329.1833 3972.7357 3330.1062 3966.5049 3326.9169 3957.5195 3324.7557 3920.9556 3322.3198 3894.9057 3321.1988 3891.1456 3322.8163 3884.5689 3320.048 3875.3909 3320.5075 3868.9303 3319.1983 3857.0439 3317.4256 3839.8709 3316.511 3833.7737 3316.6603 3824.8727 3315.7272 3813.4529 3316.069 3803.8782 3313.829 3790.5647 3313.7277 3778.8012 3310.1042 3749.8557 3311.1333 3752.3927 3307.148 3723.3357 3307.1516 3709.3661 3306.5044 3700.9258 3303.3981 3678.889 3304.2649 3662.5611 3303.7946 3659.1814 3301.1388 3629.9885 3300.4985 3627.022 3296.2129 3594.5296 3295.9561 3576.521 3295.9556 3571.9061 3296.4161 3567.1775 3296.5312 3566.0242 3304.4443 3568.6115 Z" fill="none" stroke="#A9159C" opacity="0.6" stroke-width="1" class="east_flatbush"/>
<path d="M 3350.4893 4178.8256 3208.1287 3878.6608 3209.2847 3878.1476 3350.4893 4178.8256 Z" fill="none" stroke="#A9159C" opacity="0.6" stroke-width="1" class="east_flatbush"/>
<path d="M 3211.5444 3758.1757 3597.8147 3726.54 3561.8591 3930.5237 3533.1497 3947.1609 3492.4131 3988.728 3432.2068 4021.0786 3358.0884 4040.5122 3221.7857 3864.2981 3211.5444 3758.1757 Z" fill="none" stroke="#A9159C" opacity="0.6" stroke-width="1" class="east_flatbush"/>
<path d="M 3620.0469 3726.5202 3531.3063 3959.1612 3216.2198 3849.5345 3213.3962 3756.3292 3620.0469 3726.5202 Z" fill="none" stroke="#A9159C" opacity="0.6" stroke-width="1" class="east_flatbush"/>
<path d="M 3577.4898 3790.2306 3353.1895 3613.2305 3537.5579 3672.1496 3592.2211 3685.9442 3604.2852 3710.8475 3569.0032 3614.917 3544.9264 3621.3958 3534.7363 3619.5588 3521.7682 3618.6466 3507.8768 3621.4256 3508.79 3604.8171 3517.1091 3583.5899 3512.481 3587.2841 3320.727 3537.5955 3504.0889 3515.3283 3480.0561 3577.1603 3480.9788 3572.5465 3458.7367 3554.111 3577.4898 3790.2306 Z" fill="none" stroke="#A9159C" opacity="0.6" stroke-width="1" class="east_flatbush"/>
<path d="M 3448.9829 4154.9182 3220.861 3867.9901 3203.1737 3686.2043 3588.5079 3676.7202 3607.9839 3703.4622 3547.9961 3972.9925 3488.7547 4051.4982 3493.4228 4096.7265 3448.9829 4154.9182 Z" fill="none" stroke="#A9159C" opacity="0.6" stroke-width="1" class="east_flatbush"/>
<path d="M 3315.2961 3754.4299 3728.4084 3706.1154 3497.0353 3974.8793 3329.1001 3989.301 3333.2986 4037.2966 3315.2961 3754.4299 Z" fill="none" stroke="#A9159C" opacity="0.6" stroke-width="1" class="east_flatbush"/>
<path d="M 3724.5065 3512.3627 3736.0813 3510.5058 3788.1767 3724.9691 3759.5057 3768.3706 3705.3893 3845.9447 3583.1819 3944.8116 3542.4358 3972.0741 3522.7998 3750.1339 3518.1338 3707.229 3502.2845 3576.6819 3507.7754 3492.2617 3516.9529 3387.091 3564.1775 3384.7462 3610.4812 3388.3957 3661.8714 3384.6586 3721.6096 3395.2081 3705.4447 3435.8127 3699.4745 3485.634 3735.6173 3509.5837 3724.5065 3512.3627 Z" fill="none" stroke="#A9159C" opacity="0.6" stroke-width="1" class="east_flatbush"/>
<path d="M 3225.4283 3734.1767 3486.6972 3783.8444 3529.5084 4027.4664 3297.8665 4059.0095 3225.4283 3734.1767 Z" fill="none" stroke="#A9159C" opacity="0.6" stroke-width="1" class="east_flatbush"/>
<path d="M 3368.0116 3616.9118 3527.3174 3608.493 3771.2185 3893.4065 3396.0125 3937.5711 3372.6451 3620.5995 3372.6481 3625.2128 3368.0116 3616.9118 Z" fill="none" stroke="#A9159C" opacity="0.6" stroke-width="1" class="east_flatbush"/>
<path d="M 3183.6719 3574.57 3499.4984 3566.9966 3614.4673 3702.5337 3625.6848 3814.1817 3664.0691 4235.9815 3581.6422 4308.0731 3543.6077 4270.2494 3219.008 3867.991 3183.6719 3574.57 Z" fill="none" stroke="#A9159C" opacity="0.6" stroke-width="1" class="east_flatbush"/>
<path d="M 3335.3221 3561.7853 3415.7206 3567.1297 3418.693 3676.653 3311.2012 3753.0434 3337.6932 3701.2692 3415.0661 3567.5502 3335.3221 3561.7853 Z" fill="none" stroke="#A9159C" opacity="0.6" stroke-width="1" class="east_flatbush"/>
<path d="M 3127.2429 3754.5205 3251.2931 3592.0676 3245.7414 3603.1421 3264.3954 3848.5874 3255.1336 3854.1296 3086.4832 3756.3808 3129.1013 3769.2846 3127.2429 3754.5205 Z" fill="none" stroke="#A9159C" opacity="0.6" stroke-width="1" class="east_flatbush"/>
<path d="M 3508.9075 3754.2975 3452.409 3768.1822 3450.5128 3708.2031 3454.1831 3660.2189 3390.2772 3671.3357 3340.2806 3709.1993 3336.6026 3754.4172 3246.7743 3812.6048 3247.6711 3754.4668 3236.5261 3697.2611 3508.9075 3754.2975 Z" fill="none" stroke="#A9159C" opacity="0.6" stroke-width="1" class="east_flatbush"/>
<path d="M 3523.7768 3813.3461 3601.5992 3816.049 3611.0014 3970.1693 3338.6103 4010.0634 3330.1572 3819.9415 3523.7768 3813.3461 Z" fill="none" stroke="#A9159C" opacity="0.6" stroke-width="1" class="east_flatbush"/>
<path d="M 3263.3212 3568.0731 3292.0315 3565.2897 3502.2798 3570.6849 3697.0089 3803.04 3289.4232 3872.5691 3263.3212 3568.0731 Z" fill="none" stroke="#A9159C" opacity="0.6" stroke-width="1" class="east_flatbush"/>
<path d="M 3504.1365 3576.2192 3580.0456 3530.9496 3634.516 3595.0222 3632.2159 3611.8625 3712.6572 3702.4404 3614.4698 3705.3019 3504.1365 3576.2192 Z" fill="none" stroke="#A9159C" opacity="0.6" stroke-width="1" class="east_flatbush"/>
<path d="M 3482.6733 3915.0492 3485.7721 3718.7674 3589.4799 3670.7005 3768.5685 3686.2128 3828.9131 3806.1087 3764.7758 3955.0105 3583.338 4013.8479 3482.6733 3915.0492 Z" fill="none" stroke="#A9159C" opacity="0.6" stroke-width="1" class="east_flatbush"/>
<path d="M 3560.9888 3542.8978 3777.2617 3793.6962 3626.3263 4034.0519 3369.441 4051.2671 3262.5807 3918.3101 3231.4673 3595.471 3560.9888 3542.8978 Z" fill="none" stroke="#A9159C" opacity="0.6" stroke-width="1" class="east_flatbush"/>
<path d="M 3523.1892 3734.355 3770.7178 3752.7016 3783.5032 3900.4021 3646.1082 4065.2314 3409.1165 4085.7435 3523.1892 3734.355 Z" fill="none" stroke="#A9159C" opacity="0.6" stroke-width="1" class="east_flatbush"/>
<path d="M 3211.5439 3757.2529 3632.0903 3727.432 3674.9612 3996.8773 3336.7537 4004.5263 3221.7861 3865.221 3211.5439 3757.2529 Z" fill="none" stroke="#A9159C" opacity="0.6" stroke-width="1" class="east_flatbush"/>
<path d="M 3185.9614 3776.5281 3186.4253 3778.0275 3185.1499 3774.3368 3185.9614 3776.5281 Z" fill="none" stroke="#A9159C" opacity="0.6" stroke-width="1" class="east_flatbush"/>
<path d="M 3187.3775 3576.4136 3219.9203 3838.4582 3176.2627 3575.4959 3353.1586 3563.4085 3504.1344 3573.4513 3701.6419 3803.9583 3220.849 3843.0721 3187.3775 3576.4136 Z" fill="none" stroke="#A9159C" opacity="0.6" stroke-width="1" class="east_flatbush"/>
<path d="M 3542.4912 4039.4556 3511.2186 4041.7884 3368.7529 4052.9669 3330.4984 4003.3763 3296.1899 3961.1684 3289.8802 3861.2633 3280.0937 3753.7576 3275.6795 3727.9222 3608.2145 3702.3086 3619.2179 3834.2598 3607.8709 3836.5771 3611.6021 3864.9525 3591.9173 3868.2001 3593.5647 3897.9627 3569.0135 3899.599 3539.2045 3986.3834 3542.4912 4039.4556 Z" fill="none" stroke="#A9159C" opacity="0.6" stroke-width="1" class="east_flatbush"/>
<path d="M 3273.0987 3665.8697 3575.5271 3661.9681 3559.9816 3901.4525 3330.2374 3954.2263 3273.0987 3665.8697 Z" fill="none" stroke="#A9159C" opacity="0.6" stroke-width="1" class="east_flatbush"/>
<path d="M 3376.4318 3747.01 3623.7515 3725.5941 3781.416 3898.9332 3549.0259 4097.6052 3418.373 4116.1671 3397.001 4030.3333 3376.4318 3747.01 Z" fill="none" stroke="#A9159C" opacity="0.6" stroke-width="1" class="east_flatbush"/>
<path d="M 3238.9199 3579.2918 3394.5176 3573.6653 3428.0843 3892.921 3276.1533 3922.5493 3238.9199 3579.2918 Z" fill="none" stroke="#A9159C" opacity="0.6" stroke-width="1" class="east_flatbush"/>
<path d="M 3305.0549 3664.9293 3549.5752 3642.6134 3603.3491 3699.7754 3576.5714 3799.4597 3571.0679 3864.065 3560.0037 3927.7564 3535.9219 3937.929 3516.287 3714.6124 3537.8134 3985 3529.4875 4001.6212 3403.4893 4033.0981 3330.2707 4010.0684 3319.0518 3840.2511 3305.0549 3664.9293 Z" fill="none" stroke="#A9159C" opacity="0.6" stroke-width="1" class="east_flatbush"/>
<path d="M 3644.4038 4019.0591 3461.9746 4177.9884 3327.4903 4009.147 3304.1644 3727.6757 3611.6884 3702.5361 3644.4038 4019.0591 Z" fill="none" stroke="#A9159C" opacity="0.6" stroke-width="1" class="east_flatbush"/>
<path d="M 3175.3385 3580.1094 3364.2728 3563.4015 3493.9434 3569.7688 3499.512 3584.5264 3542.4146 3946.2304 3230.2142 4047.9682 3175.3385 3580.1094 Z" fill="none" stroke="#A9159C" opacity="0.6" stroke-width="1" class="east_flatbush"/>
<path d="M 3223.5488 3678.8129 3582.9422 3667.4979 3549.8454 3968.376 3260.7591 3981.4936 3223.5488 3678.8129 Z" fill="none" stroke="#A9159C" opacity="0.6" stroke-width="1" class="east_flatbush"/>
<path d="M 3632.2973 3591.2969 3534.9231 3980.0984 3518.5244 3707.4824 3496.7895 3583.3909 3580.9622 3532.9517 3632.2973 3591.2969 Z" fill="none" stroke="#A9159C" opacity="0.6" stroke-width="1" class="east_flatbush"/>
<path d="M 3641.7267 4008.9903 3586.5164 4349.2575 3490.1559 4426.8542 3548.0322 4251.9361 3583.5098 4296.1246 3661.3826 4238.4445 3460.82 4171.9571 3641.7267 4008.9903 Z" fill="none" stroke="#A9159C" opacity="0.6" stroke-width="1" class="east_flatbush"/>
<path d="M 3461.0417 4169.6804 3210.664 3855.9973 3192.0838 3743.4201 3243.9637 3750.7775 3705.2558 3711.6752 3820.2915 3864.7427 3461.0417 4169.6804 Z" fill="none" stroke="#A9159C" opacity="0.6" stroke-width="1" class="east_flatbush"/>
<path d="M 3280.2518 4044.25 3241.1883 3758.1612 3307.8836 3751.6658 3512.5992 3736.7617 3503.2125 3578.9877 3585.6265 3558.6224 3747.8861 3730.0871 3569.2275 3878.8331 3431.2782 4018.3101 3280.2518 4044.25 Z" fill="none" stroke="#A9159C" opacity="0.6" stroke-width="1" class="east_flatbush"/>
<path d="M 3212.0075 3758.1755 3219.9256 3849.5327 3218.7674 3849.3026 3211.0812 3758.1759 3196.9144 3671.4437 3508.8221 3645.6451 3527.9537 3823.2634 3219.9254 3849.0713 3212.0075 3758.1755 Z" fill="none" stroke="#A9159C" opacity="0.6" stroke-width="1" class="east_flatbush"/>
<path d="M 3390.5432 4073.7223 3281.0274 3767.3683 3475.5291 3715.5667 3690.4418 3719.0719 3735.1084 3916.5176 3390.5432 4073.7223 Z" fill="none" stroke="#A9159C" opacity="0.6" stroke-width="1" class="east_flatbush"/>
<path d="M 3634.1042 3903.0024 3529.4124 3908.6304 3415.457 3918.6373 3356.1629 3924.9061 3339.6105 3749.8015 3338.4129 3684.2866 3335.4018 3683.3657 3509.999 3669.865 3576.4564 3665.4274 3619.8035 3713.3711 3622.8766 3782.3465 3627.789 3835.867 3634.7966 3900.233 3634.1042 3903.0024 Z" fill="none" stroke="#A9159C" opacity="0.6" stroke-width="1" class="east_flatbush"/>
<path d="M 3505.0837 3602.9747 3561.6322 3661.0572 3583.898 3701.6379 3545.1265 3864.0868 3520.1632 3928.712 3539.6553 3971.1534 3455.4453 4120.7565 3432.2778 4121.6962 3404.4415 4070.9437 3468.3935 4085.668 3459.1076 4059.8281 3446.1109 4027.5301 3347.8828 4020.2112 3333.0251 3967.608 3328.3175 3842.0914 3330.1296 3773.7999 3317.0939 3660.3088 3317.9938 3615.0971 3327.2441 3594.7934 3370.772 3588.3081 3384.6687 3593.8349 3486.5571 3600.2211 3505.0837 3602.9747 Z" fill="none" stroke="#A9159C" opacity="0.6" stroke-width="1" class="east_flatbush"/>
<path d="M 3512.4803 3586.3615 3689.5849 3790.1277 3325.549 3860.5507 3306.8758 3609.5676 3512.4803 3586.3615 Z" fill="none" stroke="#A9159C" opacity="0.6" stroke-width="1" class="east_flatbush"/>
<path d="M 3339.3116 4020.4472 3306.5824 3979.2336 3291.6541 3960.5644 3269.2312 3932.9101 3253.8169 3911.8304 3236.7595 3890.0929 3223.161 3870.0071 3219.2346 3837.6778 3216.6586 3791.4218 3210.2338 3751.7872 3202.8622 3713.21 3196.9361 3676.2763 3192.5822 3654.9631 3189.5622 3613.5052 3169.5335 3578.0162 3184.8815 3576.7113 3199.5795 3574.559 3226.3407 3572.0915 3262.4475 3569.3061 3294.2878 3567.1347 3318.1195 3566.0021 3333.2008 3564.8783 3354.8852 3562.1323 3365.5374 3562.8054 3380.7477 3564.9981 3401.8338 3566.5447 3437.46 3569.0666 3455.2072 3569.239 3474.9451 3572.1418 3496.7801 3571.1881 3502.1065 3572.1066 3503.8121 3577.0322 3516.3282 3592.707 3533.4404 3612.1071 3554.3026 3638.3859 3560.7939 3647.3766 3546.584 3667.152 3564.1816 3665.0612 3581.0988 3669.5876 3606.5221 3700.7836 3629.302 3723.6579 3618.5047 3730.3114 3615.2845 3754.768 3619.7212 3753.3262 3625.5714 3806.9816 3629.198 3840.3544 3632.3758 3902.3116 3635.7684 3940.9144 3597.1187 3969.5569 3537.9406 3974.1873 3532.6052 3973.4925 3472.5311 3978.3758 3461.3359 3979.6971 3442.8057 3982.0181 3444.9127 4012.938 3429.2837 4015.3312 3413.0696 4018.1116 3377.9159 4020.7839 3362.6271 4021.7168 3351.0455 4023.8009 3307.2705 3979.2157 3315.6668 3993.4625 3324.9398 4005.2257 3331.1994 4013.5293 3339.3116 4020.4472 Z" fill="none" stroke="#A9159C" opacity="0.6" stroke-width="1" class="east_flatbush"/>
<path d="M 3877.6702 3811.1504 3674.0284 3990.417 3420.1204 3962.9367 3392.1543 3708.2436 3495.8186 3599.2914 3679.2366 3626.8115 3766.3525 3672.8578 3877.6702 3811.1504 Z" fill="none" stroke="#A9159C" opacity="0.6" stroke-width="1" class="east_flatbush"/>
<path d="M 3250.5728 3993.4981 3206.0202 3831.4279 3229.6422 3826.4562 3344.3055 3852.9256 3355.6105 3967.7095 3450.0208 4148.3398 3419.8066 4179.1726 3277.9448 4062.0206 3233.9189 4044.0433 3229.2694 4010.8156 3245.4786 3997.6543 3248.0267 3997.653 3250.5728 3993.4981 Z" fill="none" stroke="#A9159C" opacity="0.6" stroke-width="1" class="east_flatbush"/>
<path d="M 3282.9903 3968.5597 3316.2246 3758.1205 3438.393 3599.334 3534.7047 3580.8079 3608.8567 3643.4851 3786.8066 3742.9647 3864.6637 3779.7893 3917.9843 3950.7686 3918.0878 4035.6866 3849.0437 4163.7763 3718.0686 4174.9956 3500.5785 4170.2671 3317.6603 4110.0794 3295.3611 4006.7066 3282.9903 3968.5597 Z" fill="none" stroke="#A9159C" opacity="0.6" stroke-width="1" class="east_flatbush"/>
<path d="M 3501.3551 3572.5309 3535.4676 3949.005 3445.1735 4012.5312 3343.2516 4023.4447 3330.2675 4004.761 3306.6218 3975.0074 3221.7877 3868.4511 3188.7829 3612.3958 3170.2443 3579.6503 3353.1597 3565.2537 3362.4221 3566.1705 3501.3551 3572.5309 Z" fill="none" stroke="#A9159C" opacity="0.6" stroke-width="1" class="east_flatbush"/>
<path d="M 3628.3824 3724.6671 3649.0343 4016.2856 3448.0522 4149.3798 3187.3796 3581.0267 3628.3824 3724.6671 Z" fill="none" stroke="#A9159C" opacity="0.6" stroke-width="1" class="east_flatbush"/>
<path d="M 3624.8061 3866.7864 3400.7038 4024.7925 3329.3446 4010.992 3298.5731 3668.6238 3566.2682 3666.5895 3624.8061 3866.7864 Z" fill="none" stroke="#A9159C" opacity="0.6" stroke-width="1" class="east_flatbush"/>
<path d="M 3179.0665 3632.9293 3222.3651 3625.528 3226.5407 3640.7501 3186.9477 3651.1488 3179.0665 3632.9293 Z" fill="none" stroke="#A9159C" opacity="0.6" stroke-width="1" class="east_flatbush"/>
<path d="M 3349.2767 4026.6717 3246.3548 3898.6644 3527.9949 3874.2527 3539.2056 3987.7679 3349.2767 4026.6717 Z" fill="none" stroke="#A9159C" opacity="0.6" stroke-width="1" class="east_flatbush"/>
<path d="M 3200.7463 3695.3174 3219.8512 3694.6164 3450.2571 3674.985 3457.1543 3764.8335 3216.5357 3783.4351 3200.7463 3695.3174 Z" fill="none" stroke="#A9159C" opacity="0.6" stroke-width="1" class="east_flatbush"/>
<path d="M 3308.8136 3758.1248 3521.8597 3733.0632 3540.659 4065.3033 3334.906 4013.7578 3336.7604 4015.6028 3308.8136 3758.1248 Z" fill="none" stroke="#A9159C" opacity="0.6" stroke-width="1" class="east_flatbush"/>
<path d="M 3537.5783 3742.4813 3551.6815 3739.4217 3572.0637 3742.1729 3620.8488 3743.5114 3727.0398 3830.474 3765.1796 3873.3265 3776.3468 3919.4611 3656.5634 4163.0439 3442.6485 4173.092 3390.7246 4018.7771 3384.1615 3901.5617 3411.9864 3788.8254 3537.5783 3742.4813 Z" fill="none" stroke="#A9159C" opacity="0.6" stroke-width="1" class="east_flatbush"/>
<path d="M 3505.9889 3576.2177 3569.8611 3534.6486 3782.2245 3789.1098 3393.2883 4021.1052 3405.9535 3567.0646 3505.9889 3576.2177 Z" fill="none" stroke="#A9159C" opacity="0.6" stroke-width="1" class="east_flatbush"/>
<path d="M 3608.9004 3692.3885 3545.2255 3984.0709 3329.338 3999.9156 3306.8732 3604.9543 3508.7762 3587.287 3608.9004 3692.3885 Z" fill="none" stroke="#A9159C" opacity="0.6" stroke-width="1" class="east_flatbush"/>
<path d="M 3292.0279 3558.8315 3620.818 3554.9008 3663.7236 3872.2876 3317.2269 3888.2428 3292.0279 3558.8315 Z" fill="none" stroke="#A9159C" opacity="0.6" stroke-width="1" class="east_flatbush"/>
<path d="M 3324.448 3565.2711 3502.2834 3575.298 3579.1203 3531.8729 3771.0703 3754.055 3706.2841 3814.105 3703.5341 3843.6393 3555.3972 3959.1414 3539.6704 3989.6136 3331.1968 4009.1448 3220.8628 3871.6817 3198.5468 3696.3565 3334.7093 3687.057 3324.448 3565.2711 Z" fill="none" stroke="#A9159C" opacity="0.6" stroke-width="1" class="east_flatbush"/>
<path d="M 3240.2508 3736.0149 3603.3441 3694.2389 3722.9813 3835.314 3402.5608 4030.3296 3283.0337 4047.9408 3240.2508 3736.0149 Z" fill="none" stroke="#A9159C" opacity="0.6" stroke-width="1" class="east_flatbush"/>
<path d="M 3394.0235 3733.1569 3401.4355 3734.9974 3410.6978 3733.1456 3425.4305 3605.8016 3510.6475 3611.2742 3622.8067 3705.2944 3741.7037 4022.6559 3581.5355 4184.3553 3438.6827 4006.3053 3394.0235 3733.1569 Z" fill="none" stroke="#A9159C" opacity="0.6" stroke-width="1" class="east_flatbush"/>
<path d="M 3600.1878 4316.3669 3341.669 4467.9987 3193.8613 3577.3333 3507.8355 3568.8353 3796.5059 4142.6019 3600.1878 4316.3669 Z" fill="none" stroke="#A9159C" opacity="0.6" stroke-width="1" class="east_flatbush"/>
<path d="M 3271.5867 3437.0671 3764.2074 3396.0865 3986.7476 3624.6189 3338.5986 3990.6798 3271.5867 3437.0671 Z" fill="none" stroke="#A9159C" opacity="0.6" stroke-width="1" class="east_flatbush"/>
<path d="M 3246.7353 3736.0116 3512.5795 3711.8471 3531.2959 3946.2395 3327.4673 3970.3803 3268.164 3966.7217 3246.7353 3736.0116 Z" fill="none" stroke="#A9159C" opacity="0.6" stroke-width="1" class="east_flatbush"/>
<path d="M 3513.4795 3678.628 3521.1133 3958.2464 3331.1896 3997.1454 3234.6739 3698.1847 3513.4795 3678.628 Z" fill="none" stroke="#A9159C" opacity="0.6" stroke-width="1" class="east_flatbush"/>
<path d="M 3307.7756 3563.4356 3600.421 3530.9318 3745.9971 3695.0245 3616.3142 3696.0728 3325.4649 3718.4357 3315.2752 3718.4417 3304.1087 3629.8677 3307.7862 3581.8879 3307.7756 3563.4356 Z" fill="none" stroke="#A9159C" opacity="0.6" stroke-width="1" class="east_flatbush"/>
<path d="M 3331.1946 4005.4527 3311.5938 3759.9688 3515.3833 3743.2189 3545.2407 4002.5313 3331.1946 4005.4527 Z" fill="none" stroke="#A9159C" opacity="0.6" stroke-width="1" class="east_flatbush"/>
<path d="M 3313.8878 3722.1336 3610.7575 3697.4619 3687.62 3675.2447 3659.3923 3700.8775 3624.2209 3732.5144 3627.5316 3807.6048 3632.1867 3832.633 3322.7718 3864.2439 3303.2444 3738.7495 3299.5311 3724.9101 3313.8878 3722.1336 Z" fill="none" stroke="#A9159C" opacity="0.6" stroke-width="1" class="east_flatbush"/>
<path d="M 3605.2009 3698.851 3540.597 3989.6128 3334.9016 4006.3735 3305.9369 3587.4247 3507.8515 3589.133 3605.2009 3698.851 Z" fill="none" stroke="#A9159C" opacity="0.6" stroke-width="1" class="east_flatbush"/>
<path d="M 3520.9201 3716.4543 3655.5172 4012.5874 3603.8996 4320.9803 3213.4649 3901.2187 3520.9201 3716.4543 Z" fill="none" stroke="#A9159C" opacity="0.6" stroke-width="1" class="east_flatbush"/>
<path d="M 3310.0841 3752.472 3518.6245 3741.8322 3547.411 4105.9147 3331.5424 4006.0294 3310.0841 3752.472 Z" fill="none" stroke="#A9159C" opacity="0.6" stroke-width="1" class="east_flatbush"/>
<path d="M 3362.6855 3983.2808 3412.704 3957.4039 3390.506 4017.4149 3362.6855 3983.2808 Z" fill="none" stroke="#A9159C" opacity="0.6" stroke-width="1" class="east_flatbush"/>
<path d="M 3394.1376 3904.8075 3375.6055 3902.0509 3375.5805 3863.2885 3374.6153 3803.3027 3373.6462 3736.8613 3404.2065 3722.9996 3442.1811 3715.5911 3488.4921 3708.1749 3543.14 3701.6723 3602.4325 3710.8491 3624.7047 3755.1221 3624.7399 3793.8801 3628.502 3855.7083 3607.24 3908.3336 3576.7123 3963.7383 3525.7892 4011.7775 3454.4446 4019.2166 3395.1151 3981.4137 3394.1376 3904.8075 Z" fill="none" stroke="#A9159C" opacity="0.6" stroke-width="1" class="east_flatbush"/>
<path d="M 3268.8317 3480.4263 3507.7819 3500.5646 3520.01 3736.7558 3281.0219 3757.2176 3268.8317 3480.4263 Z" fill="none" stroke="#A9159C" opacity="0.6" stroke-width="1" class="east_flatbush"/>
<path d="M 3504.4327 3567.6137 3544.2449 4001.8113 3344.8729 4020.0321 3301.02 3563.5224 3294.3385 3563.4238 3504.4327 3567.6137 Z" fill="none" stroke="#A9159C" opacity="0.6" stroke-width="1" class="east_flatbush"/>
<path d="M 3253.1403 3581.9177 3815.2707 3515.0339 3835.7167 3577.7471 3842.2726 3641.4027 3847.9231 3722.5957 3800.7707 3805.7006 3788.7832 3857.3942 3677.6244 3875.966 3661.8916 3894.4394 3597.0872 3952.6448 3583.2494 4022.8061 3533.2591 4081.9252 3498.057 4097.6461 3452.6524 4103.2189 3443.3754 4089.3788 3405.3251 4007.2515 3346.9476 4006.3662 3309.8808 4002.6961 3294.116 3980.5526 3279.2554 3915.9522 3276.4499 3867.9617 3269.012 3819.0532 3264.3506 3763.6861 3259.6845 3698.172 3257.8083 3652.96 3258.7114 3608.6713 3253.1403 3581.9177 Z" fill="none" stroke="#A9159C" opacity="0.6" stroke-width="1" class="east_flatbush"/>
<path d="M 3495.8008 3576.2256 3768.2951 3757.7491 3555.3602 3914.839 3555.3741 3931.4521 3329.3215 3972.2252 3217.9336 3558.8699 3223.4951 3568.0933 3495.8008 3576.2256 Z" fill="none" stroke="#A9159C" opacity="0.6" stroke-width="1" class="east_flatbush"/>
<path d="M 3234.8219 3996.2751 3209.6574 3685.2786 3712.6147 3659.9953 3787.0419 3960.7655 3239.454 3994.4268 3238.5292 3998.1193 3234.8219 3996.2751 Z" fill="none" stroke="#A9159C" opacity="0.6" stroke-width="1" class="east_flatbush"/>
<path d="M 3594.8972 3568.763 3762.7174 3739.2993 3794.3681 3881.3836 3815.0706 4169.3538 3331.3912 4334.1094 3190.2004 3675.1376 3594.8972 3568.763 Z" fill="none" stroke="#A9159C" opacity="0.6" stroke-width="1" class="east_flatbush"/>
<path d="M 3284.2774 3781.2087 3278.4886 3783.4036 3281.3826 3781.6717 3281.7297 3780.9794 3281.7296 3780.8641 3279.2987 3782.4803 3275.9399 3781.444 3284.2774 3781.2087 Z" fill="none" stroke="#A9159C" opacity="0.6" stroke-width="1" class="east_flatbush"/>
<path d="M 3273.5063 3562.5321 3508.7711 3580.8286 3633.009 3719.1263 3646.0516 3798.4747 3542.3084 3817.0225 3377.4047 3818.9893 3292.1667 3807.9664 3179.1439 3809.8683 3195.7607 3680.6714 3190.1573 3579.1802 3273.5063 3562.5321 Z" fill="none" stroke="#A9159C" opacity="0.6" stroke-width="1" class="east_flatbush"/>
<path d="M 3336.0974 3684.7494 3577.6128 3663.8117 3609.6035 3701.846 3619.1081 3712.6797 3635.49 3898.6172 3354.7718 3922.8303 3336.0974 3684.7494 Z" fill="none" stroke="#A9159C" opacity="0.6" stroke-width="1" class="east_flatbush"/>
<path d="M 3328.2356 3704.5928 3353.0357 3738.3738 3346.5515 3738.7239 3331.045 3755.3434 3325.0238 3755.8084 3322.712 3762.7307 3324.5418 3723.9728 3328.2356 3704.5928 Z" fill="none" stroke="#A9159C" opacity="0.6" stroke-width="1" class="east_flatbush"/>
<path d="M 3620.0469 3726.5202 3620.1103 3796.6528 3601.6645 3889.8799 3476.6289 3946.2822 3357.1052 3950.0564 3294.9961 3897.4848 3281.0637 3833.8125 3273.5946 3726.7699 3296.7521 3724.9116 3310.6345 3702.7577 3353.2389 3692.5821 3392.139 3685.1753 3478.2663 3660.201 3515.3014 3639.8732 3575.5508 3689.6495 3620.0469 3726.5202 Z" fill="none" stroke="#A9159C" opacity="0.6" stroke-width="1" class="east_flatbush"/>
<path d="M 3297.8469 3818.4606 3285.7061 3852.2675 3284.7815 3855.7288 3286.862 3848.3446 3287.2066 3843.2686 3285.6987 3838.8857 3284.7712 3837.0405 3306.9868 3803.3438 3308.7416 3834.3738 3300.7475 3828.149 3302.7167 3829.0707 3297.2708 3823.652 3298.544 3822.4977 3299.2371 3819.3827 3297.8469 3818.4606 Z" fill="none" stroke="#A9159C" opacity="0.6" stroke-width="1" class="east_flatbush"/>
<path d="M 3445.374 3721.7662 3381.1749 3564.9052 3385.6907 3565.9402 3400.0467 3566.1613 3408.4986 3566.8476 3421.3503 3567.992 3433.5071 3568.9061 3453.0345 3570.6909 3472.4471 3571.2785 3480.4363 3572.4258 3493.8652 3571.147 3504.0396 3571.8595 3506.2836 3579.1928 3510.9512 3584.184 3517.9833 3593.3566 3527.0991 3604.6383 3541.0621 3619.6872 3555.3454 3636.6574 3569.6724 3653.5696 3584.4282 3670.3299 3595.5231 3682.8945 3603.7514 3691.3072 3607.9248 3696.8398 3599.9533 3725.4125 3589.9696 3760.907 3585.2351 3776.1374 3581.7957 3796.6236 3579.3719 3817.0916 3578.9156 3825.0517 3574.8259 3850.0304 3570.7412 3869.9436 3570.8648 3879.0572 3569.4865 3892.556 3566.7487 3920.1306 3554.2839 3933.8261 3531.011 3942.0366 3504.2802 3943.7891 3479.2294 3946.2246 3454.4395 3947.6203 3420.2 3950.9905 3392.6171 3953.5858 3383.4671 3953.3611 3358.2004 3955.6655 3358.2011 3945.3659 3354.677 3915.8991 3353.0687 3889.0167 3350.3736 3857.9141 3348.7583 3828.8788 3345.4982 3797.0622 3342.3208 3770.8305 3342.6624 3761.3715 3341.145 3742.9969 3340.6122 3738.0304 3339.8986 3717.989 3338.3893 3711.2927 3337.0198 3697.3338 3337.7089 3687.9907 3335.0852 3673.4006 3334.6375 3667.0964 3333.9317 3655.2131 3333.4619 3644.2565 3331.4984 3629.2342 3330.143 3615.6593 3329.8357 3604.1012 3328.6755 3594.7891 3328.3238 3587.4082 3327.5076 3577.7211 3325.0436 3568.7159 3325.2897 3566.3202 3340.2654 3563.3825 3380.7131 3564.3136 3347.6938 3565.1884 3445.374 3721.7662 Z" fill="none" stroke="#A9159C" opacity="0.6" stroke-width="1" class="east_flatbush"/></svg>