<?xml version="1.0"?><svg xmlns="http://www.w3.org/2000/svg" version="1.2" baseProfile="tiny" width="6000" height="5918" viewBox="0 0 6000 5918" stroke-linecap="round" stroke-linejoin="round"><path d="M 3844.3684 2233.5056 3909.8998 2121.9554 3969.0616 2103.4578 3965.2631 2025.1644 3998.5165 1998.4095 4009.52 1928.3947 4067.7165 1890.555 4084.3519 1885.9269 4161.0206 1839.7686 4201.8371 1930.8846 4338.8521 2036.5901 4258.5354 2119.6259 4283.5738 2162.8837 4273.5098 2231.0749 4139.424 2246.0208 4086.7257 2260.8375 3959.1072 2275.7491 3860.1523 2286.0041 3844.3684 2233.5056 Z" fill="none" stroke="#12852D" opacity="0.6" stroke-width="1" class="east_elmhurst"/>
<path d="M 3982.8383 2271.0042 3773.3507 2299.4754 3747.4376 2285.4518 3761.7304 2248.451 3916.1436 2120.2173 3970.0154 2131.85 3982.8383 2271.0042 Z" fill="none" stroke="#12852D" opacity="0.6" stroke-width="1" class="east_elmhurst"/>
<path d="M 3851.5979 2086.0977 3918.09 2013.2488 3955.0858 2020.5717 3977.3939 2110.8167 4124.3193 2033.2389 4123.7101 2252.4929 3857.3754 2284.1646 3805.3702 2094.4404 3851.5979 2086.0977 Z" fill="none" stroke="#12852D" opacity="0.6" stroke-width="1" class="east_elmhurst"/>
<path d="M 3856.4526 2286.0084 3844.8362 2238.1117 3854.5124 2207.6974 3884.5112 2157.9137 3902.0545 2134.6316 3912.9044 2121.2608 3919.1461 2120.7926 3916.587 2107.6686 3837.045 2096.4777 3919.2407 2009.1024 3924.2978 1985.8387 3930.0509 1964.8773 3947.1341 1947.1258 4015.2459 1888.5537 4062.3593 1860.6307 4138.611 1846.2481 4149.4505 1830.3461 4178.3697 1849.6429 4192.9943 1891.7552 4337.4478 2026.2298 4323.4464 2226.8479 4323.4487 2228.2299 3856.4526 2286.0084 Z" fill="none" stroke="#12852D" opacity="0.6" stroke-width="1" class="east_elmhurst"/>
<path d="M 3897.8877 2130.2608 4110.6617 2182.4925 4144.004 2215.6107 3992.3601 2241.6168 3848.1451 2300.76 3829.5132 2182.8513 3897.8877 2130.2608 Z" fill="none" stroke="#12852D" opacity="0.6" stroke-width="1" class="east_elmhurst"/>
<path d="M 3850.8394 2230.7343 3856.378 2221.5148 3949.6418 2103.4823 3983.3513 2069.3559 3986.0641 2021.9138 4040.9763 1943.5497 4115.3622 1912.592 4195.409 1959.9072 4237.0618 1988.8568 4242.6839 2036.285 4234.0391 2126.1128 4242.9946 2234.8085 4214.3247 2235.7742 4126.017 2248.8042 3997.4812 2267.8683 3929.5137 2279.0108 3864.3129 2284.6172 3850.8394 2230.7343 Z" fill="none" stroke="#12852D" opacity="0.6" stroke-width="1" class="east_elmhurst"/>
<path d="M 3925.8123 2277.6334 3884.661 2284.2478 3905.2884 2132.3247 4088.2219 2090.9774 4110.9909 2251.2443 3930.2074 2279.01 3883.5055 2284.825 3925.8123 2277.6334 Z" fill="none" stroke="#12852D" opacity="0.6" stroke-width="1" class="east_elmhurst"/>
<path d="M 4369.6752 2218.018 4334.5655 2239.2673 4286.4744 2241.1887 4205.1068 2256.0576 4160.6897 2241.383 4136.6533 2248.7889 4084.8695 2256.2334 4051.5855 2265.4928 4066.374 2258.1017 4064.4988 2239.6776 4062.6161 2215.726 4064.4329 2191.77 4064.4024 2169.6596 4062.5174 2143.8673 4051.4173 2142.0401 4051.3947 2125.4581 4051.3872 2119.9308 4051.3596 2099.6645 4043.0157 2084.0157 4043.9267 2073.8816 4022.5832 2017.7209 4017.9366 2000.2261 4020.7014 1993.3143 4020.2225 1980.8803 4019.2924 1976.7367 4021.8308 1973.5096 4019.0465 1965.6843 4016.495 1959.01 4012.7749 1942.6664 4015.9933 1929.3072 4021.9927 1921.4705 4047.8714 1914.5281 4050.1815 1913.604 4062.1987 1911.9757 4066.1259 1910.3586 4069.124 1905.5192 4068.4185 1896.7707 4068.646 1894.1225 4068.7592 1892.3955 4069.3345 1890.5527 4073.3714 1884.791 4073.7154 1882.8334 4080.1847 1881.0976 4087.1236 1884.5416 4094.8742 1889.9415 4103.8967 1895.6849 4127.7933 1877.5764 4172.1365 1854.4872 4191.6862 1943.7945 4212.9688 1954.8146 4261.0995 1986.9769 4297.2053 2014.5518 4330.5268 2034.7617 4369.6752 2218.018 Z" fill="none" stroke="#12852D" opacity="0.6" stroke-width="1" class="east_elmhurst"/>
<path d="M 4128.3226 2244.1943 4100.3557 2088.5422 4092.9111 2055.3909 4173.3921 2076.4608 4243.7608 2133.4674 4266.0332 2182.2583 4265.1918 2234.7735 4128.3226 2244.1943 Z" fill="none" stroke="#12852D" opacity="0.6" stroke-width="1" class="east_elmhurst"/>
<path d="M 4008.7046 2011.2915 4204.7836 2044.1732 4315.9861 2189.5477 4284.6602 2263.3037 3996.1485 2309.7925 4008.7046 2011.2915 Z" fill="none" stroke="#12852D" opacity="0.6" stroke-width="1" class="east_elmhurst"/>
<path d="M 4110.6276 2158.5398 4122.7785 2247.8876 3999.7929 2267.4046 3982.94 2108.9671 4096.6216 2063.676 4125.5585 2251.5689 4110.6276 2158.5398 Z" fill="none" stroke="#12852D" opacity="0.6" stroke-width="1" class="east_elmhurst"/>
<path d="M 3912.6808 2127.4793 3975.4451 2033.4415 4006.7342 1919.1882 4169.352 1847.1238 4332.364 2027.3897 4291.7854 2093.7791 4204.7949 2051.5423 4106.7843 2057.2135 4134.8062 2250.6342 3879.5715 2282.2959 3853.6311 2245.4722 3872.0727 2197.5428 3912.6808 2127.4793 Z" fill="none" stroke="#12852D" opacity="0.6" stroke-width="1" class="east_elmhurst"/>
<path d="M 3982.0188 2111.7319 4113.2323 2039.7027 4185.3872 2058.9408 4222.451 2107.7066 4241.1204 2219.1491 4164.3933 2244.1415 3999.7857 2261.8765 3994.1487 2194.6279 3982.0188 2111.7319 Z" fill="none" stroke="#12852D" opacity="0.6" stroke-width="1" class="east_elmhurst"/>
<path d="M 3923.6312 2007.7154 4011.4604 1997.4714 4004.8886 1921.9537 4081.5693 1879.484 4113.9529 1896.9369 4151.7743 1838.8613 4174.9127 1856.325 4136.1622 1910.72 4329.5945 2030.1576 4252.0504 2112.2664 4329.877 2200.5802 4323.4274 2215.3316 3833.1146 2096.2518 3923.6312 2007.7154 Z" fill="none" stroke="#12852D" opacity="0.6" stroke-width="1" class="east_elmhurst"/>
<path d="M 4327.1329 2219.0107 3995.9947 2191.8617 3990.374 2136.5939 3983.8589 2104.36 4019.9047 2089.5738 4046.7033 2075.7202 4115.0856 2042.4634 4188.1725 2066.3059 4278.0619 2185.9242 4327.1329 2219.0107 Z" fill="none" stroke="#12852D" opacity="0.6" stroke-width="1" class="east_elmhurst"/>
<path d="M 3847.1441 2234.4238 3903.4308 2125.6481 4150.2361 2050.7028 4274.3522 2179.4812 3847.1441 2234.4238 Z" fill="none" stroke="#12852D" opacity="0.6" stroke-width="1" class="east_elmhurst"/>
<path d="M 3998.7031 2141.1892 3971.8747 2133.854 3979.2386 2107.1295 4000.4863 2090.5206 4022.6666 2080.3583 4058.7033 2060.0441 4090.1189 2042.4988 4115.0751 2035.0944 4111.3921 2046.1533 4141.899 2040.5824 4165.9465 2044.2316 4192.8002 2069.0624 4228.9043 2094.7999 4248.3774 2128.854 4275.2756 2178.5585 4299.375 2211.6858 4261.4324 2197.006 4227.1989 2187.8469 4198.5192 2181.4419 4165.2076 2169.5155 4122.6606 2165.8926 4091.2027 2155.8036 4065.3082 2155.8396 4033.855 2148.5125 3998.7031 2141.1892 Z" fill="none" stroke="#12852D" opacity="0.6" stroke-width="1" class="east_elmhurst"/>
<path d="M 4071.7627 2142.0121 4077.4817 2115.7734 4108.4541 2110.6632 4155.1463 2105.0685 4203.3974 2140.9041 4201.6578 2213.2261 4168.3663 2215.5794 4098.6929 2220.743 4077.3793 2190.8308 4071.7627 2142.0121 Z" fill="none" stroke="#12852D" opacity="0.6" stroke-width="1" class="east_elmhurst"/>
<path d="M 4058.8763 2186.25 3755.4108 2072.386 4165.6758 1861.8645 4740.1395 2465.1793 4185.3908 2676.312 3840.9974 2521.926 3677.9194 2264.0852 3677.8054 2146.1601 3725.8272 2079.7859 4058.8763 2186.25 Z" fill="none" stroke="#12852D" opacity="0.6" stroke-width="1" class="east_elmhurst"/>
<path d="M 4058.3116 2111.6305 4052.3013 2112.0993 4051.8421 2114.403 4045.5755 2096.4482 4051.7981 2082.1614 4063.8122 2076.7331 4075.0132 2068.5423 4087.4893 2063.1131 4083.1975 2052.4107 4083.9828 2035.3686 4093.3296 2024.1869 4105.1032 2012.8867 4114.1137 2009.4197 4127.2883 2008.1343 4137.456 2005.7017 4148.9012 2007.412 4155.7299 2013.7346 4159.0864 2016.8383 4178.2856 2025.0998 4181.0724 2033.616 4188.5881 2035.3318 4194.6108 2043.3826 4194.1601 2051.0979 4197.8911 2072.2787 4195.1692 2106.8271 4267.8784 2179.4915 4266.9683 2188.7057 4034.7699 2141.1414 4261.4229 2191.0177 4255.935 2229.7209 4079.3136 2251.6344 4002.558 2260.0302 3980.1764 2117.2615 4021.7468 2084.0442 4058.3116 2111.6305 Z" fill="none" stroke="#12852D" opacity="0.6" stroke-width="1" class="east_elmhurst"/>
<path d="M 4283.1148 2206.3796 4264.1999 2234.5097 3920.3987 2278.3231 3904.8841 2130.2586 3930.3539 2118.7824 3849.8567 2086.6391 3919.9903 2010.3636 3958.0223 2016.8548 4014.9956 2004.8339 4088.194 1900.9162 4131.0581 1902.0405 4298.1656 2029.6943 4291.4952 2184.8265 4286.3673 2260.782 4283.1148 2206.3796 Z" fill="none" stroke="#12852D" opacity="0.6" stroke-width="1" class="east_elmhurst"/>
<path d="M 4073.3325 2190.3758 4071.6096 2198.4394 4071.8368 2195.5601 4073.3356 2192.5638 4074.7436 2207.5328 4069.1782 2195.7941 4073.334 2191.4122 4082.6201 2218.4623 4042.2727 2218.4025 4073.3325 2190.3758 Z" fill="none" stroke="#12852D" opacity="0.6" stroke-width="1" class="east_elmhurst"/>
<path d="M 4324.3705 2226.3857 4079.3175 2254.3984 4070.9246 2204.659 3996.0224 2213.0513 3976.4514 2097 3981.9998 2096.9928 4049.4612 2063.7413 4099.3502 2031.4323 4157.6093 2034.1115 4211.2988 2071.7977 4260.4156 2138.9685 4278.9631 2171.1825 4311.3876 2205.2171 4324.3705 2226.3857 Z" fill="none" stroke="#12852D" opacity="0.6" stroke-width="1" class="east_elmhurst"/>
<path d="M 3859.2466 2302.5899 3886.8287 2162.5172 3921.9218 2121.9407 4125.2307 2024.0264 4138.2271 2059.0106 4119.7752 2088.5146 4119.9047 2178.7942 4175.6338 2339.0265 4225.982 2596.9831 3892.7582 2481.3161 3859.2487 2304.4327 4029.3827 2261.8373 4010.667 2096.9555 3859.1313 2203.0856 3851.7516 2219.6775 3859.2466 2302.5899 Z" fill="none" stroke="#12852D" opacity="0.6" stroke-width="1" class="east_elmhurst"/>
<path d="M 4169.5466 1977.9068 4247.6725 2268.8906 3850.0204 2322.8713 3838.64 2075.9797 4169.5466 1977.9068 Z" fill="none" stroke="#12852D" opacity="0.6" stroke-width="1" class="east_elmhurst"/>
<path d="M 3884.6436 2288.3258 3868.5571 2279.6433 3849.102 2252.0253 3860.1666 2222.5302 3910.9237 2131.2649 3982.1068 2111.8304 3999.8821 2268.4244 3873.1926 2288.8516 3873.2034 2298.0653 3884.6436 2288.3258 Z" fill="none" stroke="#12852D" opacity="0.6" stroke-width="1" class="east_elmhurst"/>
<path d="M 3865.6901 2275.8626 3908.9873 2132.0899 4112.393 2099.5793 4121.8325 2233.1477 3865.6901 2275.8626 Z" fill="none" stroke="#12852D" opacity="0.6" stroke-width="1" class="east_elmhurst"/>
<path d="M 4319.7492 2228.236 3865.6998 2284.1549 3843.4415 2231.664 3907.1333 2128.4072 4081.8082 2050.8007 4165.0272 2047.9175 4319.7492 2228.236 Z" fill="none" stroke="#12852D" opacity="0.6" stroke-width="1" class="east_elmhurst"/>
<path d="M 4283.3097 2201.3445 3953.9056 2116.8773 4158.5676 2039.3288 4283.3097 2201.3445 Z" fill="none" stroke="#12852D" opacity="0.6" stroke-width="1" class="east_elmhurst"/>
<path d="M 4329.0254 2244.8045 4345.7906 2314.8003 4003.6448 2383.497 3896.3372 2379.9458 3846.2404 2252.8514 3918.2182 2118.2604 4117.8597 2042.4595 4164.0889 2038.7076 4212.2574 2093.9044 4264.1162 2139.8838 4329.0254 2244.8045 Z" fill="none" stroke="#12852D" opacity="0.6" stroke-width="1" class="east_elmhurst"/>
<path d="M 4043.0219 2088.6216 4095.6774 2049.8601 4137.2903 2050.7217 4187.2686 2080.1247 4305.846 2209.8327 4229.1028 2222.853 4073.7591 2247.9568 4043.0219 2088.6216 Z" fill="none" stroke="#12852D" opacity="0.6" stroke-width="1" class="east_elmhurst"/>
<path d="M 4246.6941 2234.8027 4007.1898 2265.5522 4001.6355 2261.8741 4001.6282 2256.346 3985.7774 2157.7883 3977.382 2101.6047 3994.9439 2095.1337 4069.3298 2054.5026 4093.3475 2036.9675 4126.172 2035.539 4160.8525 2038.7123 4181.2288 2060.7894 4222.8877 2091.1245 4253.0231 2142.6651 4287.3043 2182.2242 4319.709 2203.8215 4330.8423 2224.9931 4293.3939 2230.5823 4277.6762 2233.8322 4268.423 2231.0831 4255.9393 2232.4848 4260.1049 2234.7815 4246.6941 2234.8027 Z" fill="none" stroke="#12852D" opacity="0.6" stroke-width="1" class="east_elmhurst"/>
<path d="M 3866.6225 2282.3111 3860.1502 2284.1613 3846.2224 2237.1888 3908.0603 2130.2486 4153.0034 2046.093 4317.8933 2224.5538 3866.6225 2282.3111 Z" fill="none" stroke="#12852D" opacity="0.6" stroke-width="1" class="east_elmhurst"/>
<path d="M 3991.9344 2269.9486 3991.4703 2268.6823 3993.4356 2268.5646 3999.562 2267.6352 4070.5352 2257.5201 4160.3481 2244.9536 3991.9344 2269.9486 Z" fill="none" stroke="#12852D" opacity="0.6" stroke-width="1" class="east_elmhurst"/>
<path d="M 4083.8558 2192.6643 3982.0438 2131.0773 3990.1923 1996.5782 3999.4412 1998.4083 4099.2955 1992.7459 4274.1637 2061.5666 4262.2447 2126.0685 4279.9248 2194.2127 4227.2203 2201.6661 4148.5487 2161.2488 4093.1081 2195.4152 3989.4492 2136.5951 4083.8558 2192.6643 Z" fill="none" stroke="#12852D" opacity="0.6" stroke-width="1" class="east_elmhurst"/>
<path d="M 3866.3933 2204.6618 3828.3561 2214.7106 3794.4031 2094.7196 3839.3203 2096.7791 3913.1899 2006.153 3951.7798 2016.6335 3973.5426 2100.3016 4026.3823 2092.8629 4057.1464 2179.1493 3866.3933 2204.6618 Z" fill="none" stroke="#12852D" opacity="0.6" stroke-width="1" class="east_elmhurst"/>
<path d="M 4316.0466 2226.3994 3953.5577 2275.7561 3934.8697 2122.846 3979.2481 2114.4991 4068.8828 2065.557 4136.3602 2047.0385 4176.1594 2071.8509 4316.0466 2226.3994 Z" fill="none" stroke="#12852D" opacity="0.6" stroke-width="1" class="east_elmhurst"/>
<path d="M 4104.9166 2044.3202 3922.0956 2263.8176 3931.2423 2180.8886 3975.5278 2097.9224 4149.2236 1990.8319 4199.1991 2020.2324 4258.483 2086.463 4342.0323 2279.7941 4257.0265 2335.2157 3975.8562 2354.0466 3931.347 2265.6489 4104.9166 2044.3202 Z" fill="none" stroke="#12852D" opacity="0.6" stroke-width="1" class="east_elmhurst"/>
<path d="M 3918.0855 2009.5643 3961.5597 2021.4846 3976.4667 2108.9755 4097.5047 2034.1982 4219.6256 2074.5484 4251.1764 2144.5104 4317.8721 2211.6556 3846.9795 2090.7089 3918.0855 2009.5643 Z" fill="none" stroke="#12852D" opacity="0.6" stroke-width="1" class="east_elmhurst"/>
<path d="M 4049.5101 2099.667 4148.4978 2063.3932 4217.9533 2189.7037 4081.1827 2265.452 4049.5101 2099.667 Z" fill="none" stroke="#12852D" opacity="0.6" stroke-width="1" class="east_elmhurst"/>
<path d="M 4096.6099 2055.3856 4164.5586 2355.6287 3789.9935 2411.3973 3725.1273 2300.893 3831.2786 2108.2294 3944.9179 2023.3478 4096.6099 2055.3856 Z" fill="none" stroke="#12852D" opacity="0.6" stroke-width="1" class="east_elmhurst"/>
<path d="M 4092.9176 2059.9966 4151.1757 2060.834 4143.7645 2051.6334 4182.6311 2070.92 4290.3198 2331.4769 4116.4744 2366.7561 3966.3225 2131.0975 4092.9176 2059.9966 Z" fill="none" stroke="#12852D" opacity="0.6" stroke-width="1" class="east_elmhurst"/>
<path d="M 3909.969 2179.0721 4106.8825 2126.3021 4126.4688 2241.4329 3923.0262 2268.4232 3909.969 2179.0721 Z" fill="none" stroke="#12852D" opacity="0.6" stroke-width="1" class="east_elmhurst"/>
<path d="M 3859.2252 2284.1624 3841.5949 2234.4301 3906.2051 2125.6447 4154.5491 1839.7782 4327.7513 2033.8452 4331.7695 2226.3735 3859.2252 2284.1624 Z" fill="none" stroke="#12852D" opacity="0.6" stroke-width="1" class="east_elmhurst"/>
<path d="M 4080.2207 2264.0307 4001.4477 2145.2906 3974.5803 2107.5556 3961.2352 2009.8515 3989.773 1912.183 4087.8 1856.5847 4202.4436 1859.1799 4258.0207 1926.3259 4347.2819 2026.3221 4338.0649 2170.7339 4337.2337 2226.9338 4080.2207 2264.0307 Z" fill="none" stroke="#12852D" opacity="0.6" stroke-width="1" class="east_elmhurst"/>
<path d="M 3862.4662 2287.3834 3799.3634 2098.1318 4107.3953 2161.7688 4126.019 2250.1862 3862.4662 2287.3834 Z" fill="none" stroke="#12852D" opacity="0.6" stroke-width="1" class="east_elmhurst"/>
<path d="M 4257.7403 2201.6183 4263.3449 2236.619 4124.6257 2246.0423 3999.7935 2267.8653 3979.2694 2131.0809 3969.9923 2108.0626 4079.0316 2048.9623 4134.5002 2039.6721 4206.7174 2099.44 4267.8872 2185.0191 4257.7403 2201.6183 Z" fill="none" stroke="#12852D" opacity="0.6" stroke-width="1" class="east_elmhurst"/>
<path d="M 3968.9524 2017.7908 4017.8351 1923.7786 3969.642 1833.5857 3949.2743 1810.5885 3921.4501 1736.9531 3925.9962 1675.2534 3998.1038 1682.5282 4069.3289 1719.2645 4135.9348 1754.162 4164.7459 1858.182 4245.3648 1976.8698 4310.2501 2075.3256 4240.0444 2122.4186 4335.4674 2225.446 3863.8574 2290.6066 3848.8237 2086.1009 3927.3264 2004.9475 3968.9524 2017.7908 Z" fill="none" stroke="#12852D" opacity="0.6" stroke-width="1" class="east_elmhurst"/>
<path d="M 3852.6924 2233.4961 3882.2133 2169.8927 3951.5191 2125.5889 4032.8485 2087.7141 4121.5704 2050.7444 4191.8741 2068.1426 4248.3934 2138.9874 4314.1848 2219.032 3868.4724 2282.3089 3852.6924 2233.4961 Z" fill="none" stroke="#12852D" opacity="0.6" stroke-width="1" class="east_elmhurst"/>
<path d="M 3861.5429 2288.7666 3829.0913 2218.782 3796.5816 2091.2259 3834.9693 2100.8557 3919.9325 2007.7199 3963.3915 2007.6657 3985.7036 2100.6728 4103.0607 2039.7172 4164.0957 2043.3132 4251.1619 2135.2982 4299.354 2198.7877 4323.4471 2227.3086 3861.5429 2288.7666 Z" fill="none" stroke="#12852D" opacity="0.6" stroke-width="1" class="east_elmhurst"/>
<path d="M 4324.3705 2226.3857 4255.0181 2234.7896 4243.9224 2236.6497 3868.481 2289.6799 3902.4961 2117.3583 3836.8063 2089.7994 4158.2498 1841.6146 4324.3705 2226.3857 Z" fill="none" stroke="#12852D" opacity="0.6" stroke-width="1" class="east_elmhurst"/>
<path d="M 4012.7441 2269.2303 3825.7249 2103.6297 3903.2931 2011.4245 3945.8483 2027.9522 4147.4337 2031.3631 4284.4942 2160.1185 4258.722 2237.5477 4012.7441 2269.2303 Z" fill="none" stroke="#12852D" opacity="0.6" stroke-width="1" class="east_elmhurst"/>
<path d="M 4234.6635 2230.2149 4057.1262 2259.0358 3999.5773 2102.4972 4185.3775 2052.4928 4234.6635 2230.2149 Z" fill="none" stroke="#12852D" opacity="0.6" stroke-width="1" class="east_elmhurst"/>
<path d="M 3945.7573 1955.1867 4132.7122 2082.0477 4033.0527 2239.7204 3853.408 2052.0128 3945.7573 1955.1867 Z" fill="none" stroke="#12852D" opacity="0.6" stroke-width="1" class="east_elmhurst"/>
<path d="M 4117.658 2224.4012 4126.2486 2249.0342 3860.614 2285.3125 3847.5939 2223.3675 3904.8185 2126.107 3978.3151 2108.0519 4064.7184 2063.2599 4100.3146 2059.5256 4101.2504 2067.3541 4097.1048 2078.4139 4109.2476 2163.6087 4117.658 2224.4012 Z" fill="none" stroke="#12852D" opacity="0.6" stroke-width="1" class="east_elmhurst"/>
<path d="M 4129.2608 2253.4062 4084.6197 2077.5103 4109.5637 2060.8942 4154.8583 2049.7748 4336.38 2218.074 4129.2608 2253.4062 Z" fill="none" stroke="#12852D" opacity="0.6" stroke-width="1" class="east_elmhurst"/>
<path d="M 3993.252 2216.2795 3953.2069 1997.086 4258.3205 1983.7575 4283.5938 2175.3207 4187.8947 2188.8282 3993.252 2216.2795 Z" fill="none" stroke="#12852D" opacity="0.6" stroke-width="1" class="east_elmhurst"/>
<path d="M 4127.6483 2197.1228 4113.3436 2187.4604 4109.1167 2164.4228 4106.9863 2144.4183 4102.5805 2118.3741 4098.3039 2090.1536 4100.8406 2058.968 4181.0986 2066.2868 4245.0369 2144.9339 4281.2353 2202.8253 4320.7996 2227.4195 4125.8948 2250.411 4114.2191 2197.8351 4127.6483 2197.1228 Z" fill="none" stroke="#12852D" opacity="0.6" stroke-width="1" class="east_elmhurst"/>
<path d="M 3971.5866 2270.2051 3950.1354 2128.3543 3978.0913 2113.8097 4116.1858 2003.5447 4263.114 2091.0615 4315.1112 2219.9518 3971.5866 2270.2051 Z" fill="none" stroke="#12852D" opacity="0.6" stroke-width="1" class="east_elmhurst"/>
<path d="M 3919.241 2009.3327 3956.3586 2021.6064 3964.7505 2076.6339 3976.9248 2105.6355 4007.5411 2093.2748 4065.8635 2055.4285 4099.3616 2039.4921 4124.207 2035.5419 4172.6531 2045.9488 4227.0583 2097.1058 4276.894 2178.5559 4282.2554 2205.725 4209.3919 2185.3408 4113.8062 2198.7255 3851.1925 2236.1466 3851.1908 2234.6495 3853.9424 2214.7229 3874.1298 2177.2724 3896.6342 2145.3474 3903.7679 2117.5871 3835.3166 2101.3159 3919.241 2009.3327 Z" fill="none" stroke="#12852D" opacity="0.6" stroke-width="1" class="east_elmhurst"/>
<path d="M 3934.7556 2030.7294 3939.3836 2034.4082 3944.0047 2032.5602 4148.3638 2035.0462 4271.5807 2181.3282 3971.9831 2218.6101 3942.1634 2039.0104 3934.7556 2030.7294 Z" fill="none" stroke="#12852D" opacity="0.6" stroke-width="1" class="east_elmhurst"/>
<path d="M 4117.461 2084.9474 4160.9276 2087.6477 4221.0938 2125.3259 4227.6171 2157.5589 4222.1337 2199.9456 4151.4219 2228.4981 4079.279 2226.7587 4007.168 2248.9681 3933.1763 2249.0625 3944.1945 2184.5576 3986.6558 2121.8592 4075.3801 2083.0502 4117.461 2084.9474 Z" fill="none" stroke="#12852D" opacity="0.6" stroke-width="1" class="east_elmhurst"/>
<path d="M 4124.6191 2241.4356 3858.3003 2284.1635 3844.3632 2228.899 3887.76 2168.0436 3918.2081 2109.9696 4107.7156 2061.818 4124.6191 2241.4356 Z" fill="none" stroke="#12852D" opacity="0.6" stroke-width="1" class="east_elmhurst"/>
<path d="M 3912.6797 2126.5581 4026.3261 2050.8764 4199.2243 2036.8126 4208.5571 2092.9889 4265.1932 2235.6948 3860.147 2281.3972 3912.6797 2126.5581 Z" fill="none" stroke="#12852D" opacity="0.6" stroke-width="1" class="east_elmhurst"/>
<path d="M 3951.0101 2272.5346 3970.562 2192.1248 4140.519 2045.4204 4263.3457 2237.0797 4102.2098 2255.0573 3951.0101 2272.5346 Z" fill="none" stroke="#12852D" opacity="0.6" stroke-width="1" class="east_elmhurst"/>
<path d="M 4151.7716 1837.0194 4334.2133 2027.3866 4277.3924 2201.0112 3847.4373 2086.7934 3952.2979 2009.5219 4014.2441 2004.8365 4002.2199 2002.089 4003.1204 1983.6661 4005.8156 1923.7945 4072.3711 1913.5735 4061.2523 1896.0898 4074.1692 1876.7313 4108.407 1897.8659 4151.7716 1837.0194 Z" fill="none" stroke="#12852D" opacity="0.6" stroke-width="1" class="east_elmhurst"/>
<path d="M 3866.8298 2261.8107 3870.993 2262.7271 3885.5685 2269.6201 3874.0187 2279.5383 3866.8368 2267.7994 3865.4637 2280.009 3866.8298 2261.8107 Z" fill="none" stroke="#12852D" opacity="0.6" stroke-width="1" class="east_elmhurst"/>
<path d="M 3836.8031 2087.0358 3838.639 2075.0585 3848.8406 2100.8398 3886.6809 2038.1568 3928.2079 1969.9454 3946.6612 1938.6068 3971.5733 1898.0507 3993.7338 1875.9185 4325.5745 1835.8271 4161.011 1833.3221 4080.6435 1878.5643 4052.0395 1920.0485 4457.0139 1925.8566 4379.7668 2170.0942 4350.2345 2206.9953 4324.3431 2209.8023 4296.6019 2212.6116 4266.0991 2223.7162 4229.9962 2202.583 4206.8834 2208.1464 4159.7076 2202.6895 4097.7102 2179.7471 3803.5694 2138.6603 3836.8031 2087.0358 Z" fill="none" stroke="#12852D" opacity="0.6" stroke-width="1" class="east_elmhurst"/>
<path d="M 4167.2702 1849.7921 4336.0741 2023.08 4365.9948 2218.3265 4037.5957 2315.9168 3947.4158 1991.9297 4073.0014 1872.0305 4167.2702 1849.7921 Z" fill="none" stroke="#12852D" opacity="0.6" stroke-width="1" class="east_elmhurst"/>
<path d="M 4318.3558 2224.553 3860.6153 2286.4642 3845.7468 2225.6729 3903.8949 2127.0293 4146.536 2049.787 4318.3558 2224.553 Z" fill="none" stroke="#12852D" opacity="0.6" stroke-width="1" class="east_elmhurst"/>
<path d="M 3982.0212 2113.5743 4100.7783 2060.4461 4123.243 2249.2689 4003.0253 2263.715 3982.0212 2113.5743 Z" fill="none" stroke="#12852D" opacity="0.6" stroke-width="1" class="east_elmhurst"/>
<path d="M 3878.0537 1975.5322 4102.8048 1859.1928 4149.9104 1828.7338 4209.0689 1823.1196 4310.0466 1950.9765 4346.2727 2050.3948 4256.5289 2166.6119 4228.8184 2188.5353 4208.2359 2185.3425 3836.9746 2238.1207 3796.3489 2089.8444 3767.9005 2077.8998 3878.0537 1975.5322 Z" fill="none" stroke="#12852D" opacity="0.6" stroke-width="1" class="east_elmhurst"/>
<path d="M 3869.2993 2198.4673 3891.4516 2161.5905 3927.475 2125.6188 3971.8441 2109.9026 3970.8841 2082.2682 4034.7116 2097.8446 4077.6612 2060.9391 4120.1734 2043.8378 4170.5823 2052.515 4188.178 2069.9905 4233.5051 2080.0539 4255.7495 2112.2606 4265.063 2153.7009 4265.1332 2197.9214 4221.7039 2222.8645 4203.2275 2236.7125 4166.2458 2245.9814 4119.9999 2245.1276 4046.9485 2256.2856 3986.8405 2264.6574 3897.154 2289.6459 3847.1885 2273.1199 3869.2993 2198.4673 Z" fill="none" stroke="#12852D" opacity="0.6" stroke-width="1" class="east_elmhurst"/>
<path d="M 3975.5408 2108.0555 4070.2666 2063.2522 4146.0736 2049.7877 4217.362 2105.872 4250.7213 2149.1173 4283.1788 2204.8023 4107.3953 2161.7688 4116.2654 2220.718 4126.9426 2249.2636 4000.7196 2268.7854 3981.1232 2134.3028 3975.5408 2108.0555 Z" fill="none" stroke="#12852D" opacity="0.6" stroke-width="1" class="east_elmhurst"/>
<path d="M 4053.4958 2110.5538 4017.9684 2024.1748 4186.2315 2005.5143 4236.5161 2232.0546 4086.727 2261.7588 4040.2377 2081.2559 4053.4958 2110.5538 Z" fill="none" stroke="#12852D" opacity="0.6" stroke-width="1" class="east_elmhurst"/>
<path d="M 4264.2654 2233.8536 4111.689 2254.3528 4010.6615 2092.8101 4009.1603 2006.2249 4006.2749 1921.4913 4142.6355 1911.6315 4333.2917 2029.2304 4252.0403 2105.8181 4268.7886 2170.2775 4264.2654 2233.8536 Z" fill="none" stroke="#12852D" opacity="0.6" stroke-width="1" class="east_elmhurst"/>
<path d="M 4153.6314 1844.3842 4393.1576 1890.9707 4264.4249 2334.2826 4322.0694 1952.7989 4255.9488 2238.4734 3995.1743 2272.0174 3796.1409 2111.032 4153.6314 1844.3842 Z" fill="none" stroke="#12852D" opacity="0.6" stroke-width="1" class="east_elmhurst"/>
<path d="M 4079.3547 2281.1176 3982.0295 2120.0228 4002.5483 2252.6595 4006.0578 2108.0158 4087.3538 2048.9506 4220.5347 2064.4142 4273.5186 2236.6028 4079.3547 2281.1176 Z" fill="none" stroke="#12852D" opacity="0.6" stroke-width="1" class="east_elmhurst"/>
<path d="M 4128.3279 2247.8796 3873.0938 2279.5394 4074.1794 1884.0991 4324.9863 2039.3765 4128.3279 2247.8796 Z" fill="none" stroke="#12852D" opacity="0.6" stroke-width="1" class="east_elmhurst"/>
<path d="M 3899.2242 2142.7612 3915.7134 2122.3426 4110.8926 2158.9337 4124.0997 2247.4904 3854.0752 2286.5372 3899.2242 2142.7612 Z" fill="none" stroke="#12852D" opacity="0.6" stroke-width="1" class="east_elmhurst"/>
<path d="M 3878.2197 1920.2695 3963.4125 2024.2456 3978.3092 2103.4459 3842.3673 2100.8473 3735.0603 2065.959 3772.9353 2029.9949 3808.0356 1995.8759 3816.3399 1980.2083 3878.2197 1920.2695 Z" fill="none" stroke="#12852D" opacity="0.6" stroke-width="1" class="east_elmhurst"/>
<path d="M 3862.9196 2279.5513 4119.5373 1922.7171 4328.9918 2224.5355 3862.9196 2279.5513 Z" fill="none" stroke="#12852D" opacity="0.6" stroke-width="1" class="east_elmhurst"/>
<path d="M 3980.9331 2106.6501 4208.1013 2022.8928 4262.9815 2227.3171 4000.5615 2266.005 3980.9331 2106.6501 Z" fill="none" stroke="#12852D" opacity="0.6" stroke-width="1" class="east_elmhurst"/>
<path d="M 3855.5266 2285.0924 3899.7339 2127.4993 4144.381 1840.7184 4322.2077 2036.622 4270.744 2236.6116 3855.5266 2285.0924 Z" fill="none" stroke="#12852D" opacity="0.6" stroke-width="1" class="east_elmhurst"/>
<path d="M 3977.3927 2109.8955 4148.8464 2048.8625 4275.7653 2195.6013 4259.6388 2232.479 4003.0234 2262.3329 3977.3927 2109.8955 Z" fill="none" stroke="#12852D" opacity="0.6" stroke-width="1" class="east_elmhurst"/>
<path d="M 4118.0392 2167.7417 4199.7197 2362.9475 3877.9041 2437.1 3918.27 2160.6369 4118.0392 2167.7417 Z" fill="none" stroke="#12852D" opacity="0.6" stroke-width="1" class="east_elmhurst"/>
<path d="M 3952.5427 2020.3446 4039.1048 2098.2993 4041.9164 2125.9315 3944.3711 2140.798 3966.5191 2103.9216 3937.1671 2111.0978 3921.0915 2010.2515 3952.5427 2020.3446 Z" fill="none" stroke="#12852D" opacity="0.6" stroke-width="1" class="east_elmhurst"/>
<path d="M 3936.5181 1960.7245 3935.3615 1960.0351 4158.0047 1832.1754 4346.9635 2048.7816 4239.0984 2108.8322 4311.3966 2210.7449 4211.7047 2185.7979 3850.6132 2235.1108 3850.1347 2221.0613 3894.9028 2147.5374 3903.6523 2117.5872 3835.1982 2098.7827 3919.4727 2009.7929 3936.5181 1960.7245 Z" fill="none" stroke="#12852D" opacity="0.6" stroke-width="1" class="east_elmhurst"/>
<path d="M 3846.8232 1954.3842 4362.2965 2230.0076 3896.4454 2470.2531 3846.8232 1954.3842 Z" fill="none" stroke="#12852D" opacity="0.6" stroke-width="1" class="east_elmhurst"/>
<path d="M 4076.9428 1876.7275 4334.2149 2028.3077 4327.1741 2243.8862 4137.6197 2277.3492 4127.407 2250.6449 3855.533 2290.6163 3843.4446 2234.428 3860.9789 2201.2409 3906.2007 2121.9599 3975.5337 2102.5283 4003.9689 1925.6389 4076.9428 1876.7275 Z" fill="none" stroke="#12852D" opacity="0.6" stroke-width="1" class="east_elmhurst"/>
<path d="M 3988.2158 2137.5511 4254.6516 2198.8925 4281.6971 2338.8953 4023.6843 2382.5822 3988.2158 2137.5511 Z" fill="none" stroke="#12852D" opacity="0.6" stroke-width="1" class="east_elmhurst"/>
<path d="M 3948.1524 2390.9399 3787.1585 2356.1126 3718.6359 2284.3148 3725.9528 2203.2305 3733.278 2131.3652 3733.1967 2052.1437 4284.4556 2136.1664 4277.019 2112.2268 4264.008 2071.7155 4273.1787 2023.8016 3792.2213 1908.3939 3759.0089 1976.5861 4241.9602 2164.7923 4260.4667 2171.2119 4249.4326 2211.7656 4253.2307 2274.41 4195.9164 2294.7687 4155.3004 2350.1138 4088.7473 2383.3815 3948.1524 2390.9399 Z" fill="none" stroke="#12852D" opacity="0.6" stroke-width="1" class="east_elmhurst"/>
<path d="M 4000.2767 2271.7104 3990.2791 2120.4598 4109.2311 2066.9531 4149.1547 2248.4703 4000.2767 2271.7104 Z" fill="none" stroke="#12852D" opacity="0.6" stroke-width="1" class="east_elmhurst"/>
<path d="M 3931.1752 2126.5354 4232.5717 2074.5284 4132.1222 2313.291 4005.4235 2329.1298 3931.1752 2126.5354 Z" fill="none" stroke="#12852D" opacity="0.6" stroke-width="1" class="east_elmhurst"/>
<path d="M 3863.8574 2290.611 3842.5145 2229.8268 3910.8279 2124.7222 4140.9367 2014.7968 4318.8137 2221.7927 3863.8574 2290.611 Z" fill="none" stroke="#12852D" opacity="0.6" stroke-width="1" class="east_elmhurst"/></svg>