<?xml version="1.0"?><svg xmlns="http://www.w3.org/2000/svg" version="1.2" baseProfile="tiny" width="6000" height="5918" viewBox="0 0 6000 5918" stroke-linecap="round" stroke-linejoin="round"><path d="M 5284.4423 4589.9615 5138.7095 4617.354 5130.1615 4536.0993 5141.7484 4535.1467 5139.6038 4511.8326 5165.5085 4490.2955 5170.3405 4476.4307 5181.4018 4451.4684 5187.8793 4446.8345 5197.1403 4443.1169 5210.0208 4494.7991 5269.8276 4498.1058 5284.4423 4589.9615 Z" fill="none" stroke="#FBC20F" opacity="0.6" stroke-width="1" class="edgemere"/>
<path d="M 5214.7281 4612.0804 5206.1062 4504.737 5224.153 4492.4537 5246.1678 4491.0109 5262.3999 4493.9697 5269.1305 4497.4151 5277.5682 4532.7179 5290.0506 4519.9859 5299.0727 4513.497 5312.7203 4503.3016 5319.4312 4499.3585 5330.5326 4490.5551 5335.4977 4526.5592 5338.8506 4566.2634 5344.52 4605.2702 5214.7281 4612.0804 Z" fill="none" stroke="#FBC20F" opacity="0.6" stroke-width="1" class="edgemere"/>
<path d="M 5276.5589 4501.7821 5303.6827 4590.3718 5045.1413 4651.0663 5038.3777 4537.4786 5073.4242 4461.6653 5103.8758 4404.3365 5168.5716 4327.5331 5205.6799 4339.4417 5196.6762 4442.8872 5220.9184 4496.387 5276.5589 4501.7821 Z" fill="none" stroke="#FBC20F" opacity="0.6" stroke-width="1" class="edgemere"/>
<path d="M 4966.2328 4611.5364 4944.9431 4627.2874 5132.5992 4398.7245 5892.9687 4465.7757 4966.2328 4611.5364 Z" fill="none" stroke="#FBC20F" opacity="0.6" stroke-width="1" class="edgemere"/>
<path d="M 5289.6492 4543.3066 5303.6555 4580.2123 5277.486 4501.7796 5317.6254 4603.2649 5070.1321 4632.5327 5044.8899 4546.6985 5149.1154 4331.2757 5211.2654 4348.661 5196.7165 4458.5861 5265.4312 4500.888 5289.6492 4543.3066 Z" fill="none" stroke="#FBC20F" opacity="0.6" stroke-width="1" class="edgemere"/>
<path d="M 5306.4544 4586.67 5273.5503 4590.914 5178.9745 4590.2363 5136.3388 4596.3476 5099.7385 4606.1365 5022.8521 4636.3412 5017.5941 4569.8533 5019.4429 4567.5399 5065.2782 4542.955 5195.0462 4530.1627 5223.3225 4529.6279 5269.1983 4523.0428 5287.7482 4525.7642 5307.6975 4531.7138 5315.7076 4579.7181 5306.4544 4586.67 Z" fill="none" stroke="#FBC20F" opacity="0.6" stroke-width="1" class="edgemere"/>
<path d="M 5193.1484 4332.5488 5204.3037 4344.9855 5202.4927 4361.6109 5194.2649 4406.4173 5161.9693 4465.6009 5141.0929 4458.7274 5120.7654 4486.0212 5142.1464 4509.0557 5182.3247 4449.85 5195.2868 4443.3525 5211.645 4495.4875 5239.4543 4494.0299 5256.142 4493.9862 5271.9185 4499.9473 5285.1438 4592.2686 5046.0475 4642.2894 5042.0885 4538.3933 5042.9201 4498.6792 5084.056 4449.6342 5101.6472 4440.3562 5109.4676 4416.3272 5100.6222 4400.6508 5149.1293 4336.8158 5165.8014 4331.6952 5193.1484 4332.5488 Z" fill="none" stroke="#FBC20F" opacity="0.6" stroke-width="1" class="edgemere"/></svg>