<?xml version="1.0"?><svg xmlns="http://www.w3.org/2000/svg" version="1.2" baseProfile="tiny" width="6000" height="5918" viewBox="0 0 6000 5918" stroke-linecap="round" stroke-linejoin="round"><path d="M 1347.1705 4096.8663 1337.8435 4136.5474 1344.242 4195.6413 1354.2936 4291.676 1332.0662 4279.6396 1312.6456 4250.9881 1273.7278 4244.4646 1199.5996 4232.3424 1129.1742 4223.9139 1109.6672 4248.808 1070.7608 4236.7366 1045.741 4233.9217 947.6308 4163.5732 968.1742 4082.3752 942.2393 4075.8638 904.2361 4080.4053 859.7103 4102.4715 836.552 4097.8089 754.2046 4036.7129 797.8646 3985.1144 820.2187 3928.8582 823.0704 3893.7921 864.7836 3883.7247 904.5976 3896.7248 937.0379 3890.3276 975.0053 3900.5525 1049.0377 3949.6066 1137.0642 3947.9163 1195.4605 3934.1705 1251.0976 3906.5726 1279.8212 3905.6952 1350.2463 3899.3427 1378.9073 3940.9181 1365.859 3992.5868 1355.6223 4022.1087 1361.1479 4045.1935 1347.1705 4096.8663 Z" fill="none" stroke="#E71E24" opacity="0.6" stroke-width="1" class="elm_park"/>
<path d="M 1159.0222 4112.4894 1156.4686 4115.4853 1123.8128 4108.9672 1124.2833 4104.8139 1128.5251 4063.5119 1133.7273 4002.368 1183.5239 4007.7601 1180.9606 4016.7555 1168.5912 4070.9652 1159.0222 4112.4894 Z" fill="none" stroke="#E71E24" opacity="0.6" stroke-width="1" class="elm_park"/>
<path d="M 1161.7996 4114.1096 961.6873 4082.3628 963.8801 3904.2231 1202.8744 3933.2598 1161.7996 4114.1096 Z" fill="none" stroke="#E71E24" opacity="0.6" stroke-width="1" class="elm_park"/>
<path d="M 1173.5238 4306.1622 1196.2507 4016.3194 1496.4693 4023.2313 1548.9265 4303.9495 1377.8783 4642.6344 1070.0212 4649.5222 968.545 4375.0472 1173.5238 4306.1622 Z" fill="none" stroke="#E71E24" opacity="0.6" stroke-width="1" class="elm_park"/>
<path d="M 1198.867 4115.0949 1159.0273 4109.4892 1183.2532 4031.0666 1201.8608 3985.8687 1289.8473 4011.8549 1198.867 4115.0949 Z" fill="none" stroke="#E71E24" opacity="0.6" stroke-width="1" class="elm_park"/>
<path d="M 1217.2491 3925.2075 1247.8511 3908.8748 1269.6255 3908.2173 1290.7143 3901.5591 1343.9916 3899.7948 1292.6505 3996.8599 1247.6237 4050.5566 1230.8405 4042.7988 1179.0851 4030.0212 1201.9474 3933.489 1217.2491 3925.2075 Z" fill="none" stroke="#E71E24" opacity="0.6" stroke-width="1" class="elm_park"/>
<path d="M 1218.6332 3928.6709 1250.1726 3905.6482 1348.3946 3898.417 1293.5796 3995.2461 1246.2337 4050.5544 1229.5223 4069.9123 1222.0486 4106.8248 1191.4517 4116.0057 1193.3696 4077.2377 1190.6833 4020.9254 1196.2982 3987.7055 1218.6332 3928.6709 Z" fill="none" stroke="#E71E24" opacity="0.6" stroke-width="1" class="elm_park"/>
<path d="M 1127.3309 3950.4377 1265.9194 3908.2114 1224.781 3993.9827 1212.4261 4041.038 1199.5628 4114.6345 1158.5506 4117.3351 1108.7564 4107.3254 1114.6233 4064.4109 1118.6377 4020.8027 1127.3309 3950.4377 Z" fill="none" stroke="#E71E24" opacity="0.6" stroke-width="1" class="elm_park"/>
<path d="M 1177.0983 4109.5197 1155.887 4116.869 1160.8676 4117.2237 1162.2635 4113.7642 1172.8101 4110.7818 1165.2666 4118.962 1172.5774 4111.3584 1173.5069 4109.7445 1172.9267 4110.3205 1167.6462 4081.8101 1169.8461 4082.3908 1175.6265 4089.2085 1177.3608 4091.173 1176.7816 4091.172 1177.8171 4095.3278 1182.3279 4099.4894 1183.1374 4100.2985 1182.442 4100.5282 1194.7274 4096.6254 1184.0548 4105.8389 1177.0983 4109.5197 Z" fill="none" stroke="#E71E24" opacity="0.6" stroke-width="1" class="elm_park"/>
<path d="M 1240.7988 3973.0101 1158.1021 4108.5645 977.4655 4069.4693 977.7535 3917.1707 1240.7988 3973.0101 Z" fill="none" stroke="#E71E24" opacity="0.6" stroke-width="1" class="elm_park"/>
<path d="M 1159.0167 4115.7204 1112.4625 4107.7935 1125.8703 3991.2781 1191.4497 3978.0058 1159.0167 4115.7204 Z" fill="none" stroke="#E71E24" opacity="0.6" stroke-width="1" class="elm_park"/>
<path d="M 1162.5243 4099.8221 1167.4092 4100.2967 1166.4691 4113.4219 1160.1817 4115.8395 1150.5646 4110.9859 1140.5818 4099.8369 1133.4023 4090.8891 1141.6574 4081.1017 1140.3251 4067.0691 1144.3432 4053.622 1158.6772 4055.4941 1164.965 4057.9469 1176.036 4059.1292 1176.9474 4068.9437 1178.1776 4079.8842 1176.5744 4089.5028 1172.8577 4095.3815 1165.4653 4099.4473 1162.5243 4099.8221 Z" fill="none" stroke="#E71E24" opacity="0.6" stroke-width="1" class="elm_park"/></svg>