<?xml version="1.0"?><svg xmlns="http://www.w3.org/2000/svg" version="1.2" baseProfile="tiny" width="6000" height="5918" viewBox="0 0 6000 5918" stroke-linecap="round" stroke-linejoin="round"><path d="M 997.4432 5281.3826 1143.2782 5188.2967 1195.9745 5301.1423 1095.577 5406.3456 997.4432 5281.3826 Z" fill="none" stroke="#012394" opacity="0.6" stroke-width="1" class="eltingville"/>
<path d="M 1142.7655 5352.1211 1051.1752 5456.1849 887.0014 5060.2942 1029.4533 5029.1487 1142.7655 5352.1211 Z" fill="none" stroke="#012394" opacity="0.6" stroke-width="1" class="eltingville"/>
<path d="M 884.6198 5091.708 892.0742 5075.0894 898.577 5070.4818 939.4778 5027.1314 1011.8182 5034.6604 1049.5143 5220.4783 976.1284 5267.4785 918.5565 5290.4748 819.3935 5232.0482 831.5023 5208.9676 884.6198 5091.708 Z" fill="none" stroke="#012394" opacity="0.6" stroke-width="1" class="eltingville"/>
<path d="M 937.9973 5313.6198 865.7418 5253.3997 922.7645 5035.4153 941.1336 5130.6312 990.962 5273.9763 1103.0058 5403.5855 1029.5644 5474.6345 937.9973 5313.6198 Z" fill="none" stroke="#012394" opacity="0.6" stroke-width="1" class="eltingville"/>
<path d="M 1016.4581 5033.7449 1043.0162 5222.3149 852.6531 5302.3597 848.6311 4997.3834 1016.4581 5033.7449 Z" fill="none" stroke="#012394" opacity="0.6" stroke-width="1" class="eltingville"/>
<path d="M 939.8531 5313.6234 819.8688 5226.5038 815.686 5230.1921 928.8012 5031.7309 1165.1013 4901.8804 1341.0028 5116.5313 1162.5706 5301.0864 939.8531 5313.6234 Z" fill="none" stroke="#012394" opacity="0.6" stroke-width="1" class="eltingville"/>
<path d="M 909.823 5012.2894 940.4339 5012.3489 1011.3749 5274.0143 1131.8132 5380.5262 1129.9477 5386.0692 838.8532 5244.103 909.823 5012.2894 Z" fill="none" stroke="#012394" opacity="0.6" stroke-width="1" class="eltingville"/>
<path d="M 974.776 5246.6804 946.6892 5136.1866 959.4432 5137.3662 962.696 5134.369 973.6151 5124.6864 931.6051 5020.879 1008.1172 5029.5714 1040.4862 5210.5267 990.8497 5272.012 974.776 5246.6804 Z" fill="none" stroke="#012394" opacity="0.6" stroke-width="1" class="eltingville"/>
<path d="M 936.6913 5028.9741 1079.6402 4975.6473 1197.8517 5288.2055 1024.9411 5465.3815 936.6913 5028.9741 Z" fill="none" stroke="#012394" opacity="0.6" stroke-width="1" class="eltingville"/>
<path d="M 1089.9257 5453.4809 896.7289 5066.7819 1049.8877 5014.4016 1067.5288 5005.1933 1179.2509 5314.0546 1089.9257 5453.4809 Z" fill="none" stroke="#012394" opacity="0.6" stroke-width="1" class="eltingville"/>
<path d="M 1050.944 5455.7222 952.1482 5313.4159 1062.8948 5260.9377 1188.1782 5385.9369 1062.058 5468.2223 1050.944 5455.7222 Z" fill="none" stroke="#012394" opacity="0.6" stroke-width="1" class="eltingville"/>
<path d="M 942.2444 5317.2905 868.2238 5119.6646 1009.3361 5027.4223 1048.7547 5231.0615 942.2444 5317.2905 Z" fill="none" stroke="#012394" opacity="0.6" stroke-width="1" class="eltingville"/>
<path d="M 1128.1978 5190.5812 1197.0364 5360.3006 1102.0867 5398.4998 973.898 5220.3382 1128.1978 5190.5812 Z" fill="none" stroke="#012394" opacity="0.6" stroke-width="1" class="eltingville"/>
<path d="M 1143.4579 5354.2021 1177.0526 5379.9099 1169.3894 5384.4033 1133.5028 5409.7627 1106.7846 5431.6709 1062.525 5466.6054 1062.7377 5477.3526 1034.5122 5496.8309 1017.0515 5466.0603 990.1126 5417.7088 969.3065 5378.7298 949.3075 5343.1042 938.2152 5320.8991 938.1229 5308.6519 929.4373 5301.7029 884.6036 5275.0419 865.2581 5263.2189 883.0607 5234.3719 888.1795 5226.4106 887.1799 5204.1121 904.7385 5180.4645 900.16 5149.8427 894.6545 5118.989 889.9595 5088.9464 887.3112 5079.4693 908.7042 5050.6345 919.5135 5037.6035 930.7659 5035.0843 929.8625 5022.6082 970.4241 5034.0053 982.9401 5037.7251 1006.9613 5027.6056 1013.7503 5055.8015 1038.8613 5211.2168 1048.4472 5233.2999 1064.4071 5258.3987 1094.6068 5298.7737 1124.81 5338.6873 1143.4579 5354.2021 Z" fill="none" stroke="#012394" opacity="0.6" stroke-width="1" class="eltingville"/>
<path d="M 938.51 5047.9203 1017.7165 5105.8245 1007.547 5086.8618 1010.4397 5027.7276 1063.3546 5005.1858 1051.254 5028.2644 1087.0288 4993.6781 1094.3752 5035.7337 1106.865 5054.6986 1125.8161 5092.6185 1131.3367 5118.965 1144.2519 5161.4974 1132.1536 5183.1945 1087.5773 5207.6076 1050.8817 5233.882 985.407 5267.496 976.1966 5231.4332 962.34 5199.5217 957.7964 5149.6079 1002.0833 5031.8702 975.6348 5037.8268 935.7459 5038.2126 943.5107 5100.6021 942.6381 5071.9538 938.51 5047.9203 Z" fill="none" stroke="#012394" opacity="0.6" stroke-width="1" class="eltingville"/>
<path d="M 870.6898 5099.073 906.0944 5021.5223 1082.395 4991.3599 1135.9101 5156.8623 966.8552 5264.6882 919.4808 5292.3251 818.4695 5230.1978 879.074 5081.5321 870.6898 5099.073 Z" fill="none" stroke="#012394" opacity="0.6" stroke-width="1" class="eltingville"/>
<path d="M 1016.587 5466.2905 814.763 5227.8796 934.862 5015.5722 1007.8861 5029.1089 1176.3621 5376.6734 1019.3652 5469.5313 1016.587 5466.2905 Z" fill="none" stroke="#012394" opacity="0.6" stroke-width="1" class="eltingville"/>
<path d="M 1099.2922 5404.5034 1086.2086 5456.2476 961.7072 5531.826 885.6681 5498.3961 798.8586 5291.158 641.6463 5056.0794 792.1176 4964.0039 925.5635 5027.1044 973.3659 5256.3823 1099.2922 5404.5034 Z" fill="none" stroke="#012394" opacity="0.6" stroke-width="1" class="eltingville"/>
<path d="M 1009.4022 4836.9332 956.8448 5162.0821 673.2351 4195.3182 1009.4022 4836.9332 Z" fill="none" stroke="#012394" opacity="0.6" stroke-width="1" class="eltingville"/>
<path d="M 805.4554 4794.037 1224.2263 5046.1185 815.2521 5440.9375 384.8262 5369.6994 400.8278 4907.6709 653.479 4741.9786 805.4554 4794.037 Z" fill="none" stroke="#012394" opacity="0.6" stroke-width="1" class="eltingville"/>
<path d="M 930.7885 5023.4185 1080.7811 4986.0441 1144.851 5353.5112 1101.1482 5404.5067 930.7885 5023.4185 Z" fill="none" stroke="#012394" opacity="0.6" stroke-width="1" class="eltingville"/>
<path d="M 1186.728 5281.717 1220.1237 5286.3935 1067.6876 5434.0283 945.0545 5504.059 786.2277 5119.2306 801.4085 4956.6315 854.2079 4991.8507 983.9895 5034.6084 1081.4723 4988.5863 1187.6497 5285.4157 1186.728 5281.717 Z" fill="none" stroke="#012394" opacity="0.6" stroke-width="1" class="eltingville"/>
<path d="M 1081.4192 5279.2249 1065.2214 5257.0138 1107.2718 5314.2759 1143.0831 5353.7298 1176.9808 5378.8922 1135.7095 5409.9368 1105.6518 5431.7203 1078.2632 5429.5591 1022.7272 5470.5687 996.813 5432.3876 979.7495 5395.853 960.78 5362.3335 937.5256 5318.7049 1047.4593 5237.7672 1081.4192 5279.2249 Z" fill="none" stroke="#012394" opacity="0.6" stroke-width="1" class="eltingville"/>
<path d="M 4155.5175 2497.5541 4403.9312 2771.8249 4361.3624 2771.8978 4315.1374 2799.6304 4217.0441 2801.63 4117.0415 2763.0606 4015.0671 2626.7797 4014.8793 2484.8487 4129.4485 2383.3236 4284.8085 2355.4428 4355.3102 2475.1212 4420.5626 2757.0465 4155.5175 2497.5541 Z" fill="none" stroke="#012394" opacity="0.6" stroke-width="1" class="eltingville"/>
<path d="M 974.2774 5387.6363 930.8843 5033.814 1007.1917 5028.4146 1176.821 5379.6784 1034.629 5496.3688 974.2774 5387.6363 Z" fill="none" stroke="#012394" opacity="0.6" stroke-width="1" class="eltingville"/>
<path d="M 1066.6892 5473.3151 952.1451 5315.0334 941.0027 5318.9404 859.9362 5256.6229 867.3989 5121.014 909.347 5018.5256 984.9136 5036.4582 1018.8928 5222.5018 1063.1961 5222.3514 1039.944 5253.5021 1156.3772 5396.5137 1066.6892 5473.3151 Z" fill="none" stroke="#012394" opacity="0.6" stroke-width="1" class="eltingville"/>
<path d="M 916.3 5020.6182 984.9102 5038.3063 1022.7837 5250.929 1104.8666 5400.8156 1019.3601 5472.3046 937.5235 5318.7026 858.3172 5254.309 866.0106 5119.394 897.7605 5014.1137 916.3 5020.6182 Z" fill="none" stroke="#012394" opacity="0.6" stroke-width="1" class="eltingville"/>
<path d="M 930.8816 5035.2 930.0948 5022.3776 982.4767 5037.4932 1006.3822 5027.2581 1017.0926 5066.8964 1024.8075 5096.3656 1031.5959 5125.4874 1033.8573 5157.1433 1033.1082 5186.2531 1040.2547 5210.2952 975.0154 5242.7528 983.785 5266.5687 929.9015 5301.5883 915.5355 5293.2417 857.1513 5257.3105 874.6384 5212.2895 877.4641 5191.0386 864.6209 5118.4671 888.8269 5075.3139 930.8816 5035.2 Z" fill="none" stroke="#012394" opacity="0.6" stroke-width="1" class="eltingville"/>
<path d="M 868.3299 5119.3986 881.7927 5113.8808 1085.1761 4992.2888 1198.7903 5281.7371 1029.5881 5461.6922 947.2443 5330.2752 868.3299 5119.3986 Z" fill="none" stroke="#012394" opacity="0.6" stroke-width="1" class="eltingville"/>
<path d="M 907.4728 5264.5735 1080.0266 5279.6846 1112.2857 5403.6018 950.5982 5517.0126 832.8505 5457.6134 801.5752 5323.5141 924.2226 5239.6516 1009.5946 5233.3442 1058.7473 5245.4491 1062.4188 5267.6377 1070.7628 5271.3497 1024.37 5271.2655 1047.5681 5270.3836 907.4728 5264.5735 Z" fill="none" stroke="#012394" opacity="0.6" stroke-width="1" class="eltingville"/>
<path d="M 815.5871 5278.2527 1025.1212 5367.3951 898.5774 5540.9488 679.6141 5507.2096 618.7878 5318.4958 798.9047 5268.9756 815.5871 5278.2527 Z" fill="none" stroke="#012394" opacity="0.6" stroke-width="1" class="eltingville"/>
<path d="M 919.0864 5018.7756 933.9138 5026.1966 946.8969 5028.0697 982.1308 5036.453 1008.1249 5025.4132 1024.7031 5090.1278 1036.6616 5145.5966 1032.8873 5180.2456 1037.4848 5202.8965 1051.7986 5239.8911 1082.3454 5280.1509 1113.358 5320.8743 1140.2189 5349.1126 1175.4314 5378.2895 1183.3098 5383.8489 1146.1548 5405.0469 1145.6687 5417.9876 1098.2739 5455.8067 1041.1138 5502.8521 1020.753 5471.845 943.5273 5333.041 938.9377 5307.1515 880.5485 5272.8387 857.38 5258.9284 863.8991 5246.9263 873.2125 5229.3846 875.1124 5207.2073 876.0881 5183.1803 869.6456 5157.2908 865.0829 5119.3921 887.456 5064.9155 919.0864 5018.7756 Z" fill="none" stroke="#012394" opacity="0.6" stroke-width="1" class="eltingville"/>
<path d="M 928.9428 5024.154 1006.1107 5027.0471 1048.3369 5231.9905 989.9303 5275.1907 928.9428 5024.154 Z" fill="none" stroke="#012394" opacity="0.6" stroke-width="1" class="eltingville"/>
<path d="M 1188.5668 5291.8872 1236.7149 5354.8194 1234.8531 5358.5137 1041.582 5500.5417 1041.5787 5502.3907 947.6985 5335.3599 947.6967 5336.2842 870.3532 5267.2727 873.1368 5267.2783 875.0441 5241.4032 873.1848 5243.248 869.7325 5113.8568 873.447 5112.016 933.9228 5021.5765 934.8504 5021.5783 1078.6879 4989.5053 1072.2015 4985.7978 1083.3324 4985.8176 1098.1622 4992.3118 1100.0109 4996.011 1146.9861 5190.1514 1143.2861 5183.6758 1188.5668 5291.8872 Z" fill="none" stroke="#012394" opacity="0.6" stroke-width="1" class="eltingville"/>
<path d="M 1177.0526 5379.9099 1033.933 5496.3676 938.9136 5319.6296 989.571 5273.5115 977.0737 5258.2378 968.1049 5217.3236 959.5456 5205.2926 929.2811 5023.4156 983.5196 5037.8417 1006.7296 5027.4897 1037.8243 5143.9814 1032.1991 5176.0855 1038.1722 5207.5188 1048.3281 5235.0326 1082.8036 5283.3866 1140.4445 5352.8104 1177.0526 5379.9099 Z" fill="none" stroke="#012394" opacity="0.6" stroke-width="1" class="eltingville"/>
<path d="M 1143.4579 5354.2021 1184.4675 5385.2374 1136.3728 5427.2158 1040.6527 5501.2334 1034.165 5496.368 993.468 5422.3371 938.4461 5321.4773 918.5475 5295.0962 978.6914 5261.4757 968.3373 5217.093 960.4655 5209.4533 930.883 5034.507 929.98 5021.7999 983.52 5037.6107 1007.1939 5027.2596 1036.6722 5139.8207 1031.9671 5176.0851 1037.481 5204.976 1046.7237 5224.4012 1048.331 5233.4152 1124.2288 5339.3796 1143.4579 5354.2021 Z" fill="none" stroke="#012394" opacity="0.6" stroke-width="1" class="eltingville"/>
<path d="M 919.0864 5018.7756 1092.6033 4988.606 1200.6491 5279.8916 1083.5247 5399.8536 1003.0173 5277.6959 968.7284 5255.4492 919.0864 5018.7756 Z" fill="none" stroke="#012394" opacity="0.6" stroke-width="1" class="eltingville"/>
<path d="M 511.1819 5305.3055 789.1869 5200.2242 842.4694 5460.9924 548.8445 5615.6706 511.1819 5305.3055 Z" fill="none" stroke="#012394" opacity="0.6" stroke-width="1" class="eltingville"/>
<path d="M 1009.0405 5031.8831 1050.4571 5212.1621 856.4447 5262.6235 848.6105 5007.5474 847.7447 4977.0539 1009.0405 5031.8831 Z" fill="none" stroke="#012394" opacity="0.6" stroke-width="1" class="eltingville"/>
<path d="M 1124.7867 5419.1072 1034.8623 5495.6759 983.9881 5405.2179 939.1429 5321.0165 939.6345 5306.6907 858.5417 5258.0065 873.9139 5226.6133 878.64 5182.9543 871.708 5169.7711 866.4717 5120.7811 877.6636 5091.0011 919.2809 5037.9496 930.8825 5034.738 948.5403 5138.5005 969.8788 5138.0792 989.1522 5249.4802 977.0663 5262.1658 990.9624 5273.7452 1062.6903 5374.6271 1124.7867 5419.1072 Z" fill="none" stroke="#012394" opacity="0.6" stroke-width="1" class="eltingville"/>
<path d="M 881.2957 5130.514 913.6511 5189.2617 886.2789 5190.594 881.2957 5130.514 Z" fill="none" stroke="#012394" opacity="0.6" stroke-width="1" class="eltingville"/>
<path d="M 880.6754 5092.6243 883.9227 5092.3997 1010.2039 5029.8062 1037.2145 5223.9217 865.6453 5301.4615 880.6754 5092.6243 Z" fill="none" stroke="#012394" opacity="0.6" stroke-width="1" class="eltingville"/>
<path d="M 865.3913 5428.0975 877.3643 5008.5292 1023.8842 5030.9865 1190.4441 5278.9504 1229.2375 5388.0842 1019.3422 5482.0114 865.3913 5428.0975 Z" fill="none" stroke="#012394" opacity="0.6" stroke-width="1" class="eltingville"/>
<path d="M 943.0299 5109.3801 952.2998 5113.0944 1015.2503 5185.2961 1026.1188 5329.499 723.4396 5412.0871 943.0299 5109.3801 Z" fill="none" stroke="#012394" opacity="0.6" stroke-width="1" class="eltingville"/>
<path d="M 1221.0078 5313.1994 1035.0943 5495.6763 815.2392 5221.8732 928.3984 5000.3135 1066.6343 4986.7118 1221.0078 5313.1994 Z" fill="none" stroke="#012394" opacity="0.6" stroke-width="1" class="eltingville"/>
<path d="M 990.2665 5273.7439 1049.0269 5233.4165 1124.9248 5339.3808 1148.0929 5356.983 1179.1425 5378.7579 1134.0607 5422.5897 1130.3447 5424.8944 1099.0619 5403.5786 1060.8328 5375.5482 1027.2833 5326.9593 989.7965 5276.978 990.2665 5273.7439 Z" fill="none" stroke="#012394" opacity="0.6" stroke-width="1" class="eltingville"/></svg>