<?xml version="1.0"?><svg xmlns="http://www.w3.org/2000/svg" version="1.2" baseProfile="tiny" width="6000" height="5918" viewBox="0 0 6000 5918" stroke-linecap="round" stroke-linejoin="round"><path d="M 1678.7776 4231.1678 1452.9693 4319.7487 1456.4188 4338.913 1465.0566 4461.2778 1441.6192 4482.0237 1412.1598 4499.0669 1354.4582 4492.0563 1340.0525 4361.9445 1678.7776 4231.1678 Z" fill="none" stroke="#E71E24" opacity="0.6" stroke-width="1" class="emerson_hill"/>
<path d="M 1413.447 4409.2613 1442.1851 4408.8402 1432.151 4457.5381 1413.447 4409.2613 Z" fill="none" stroke="#E71E24" opacity="0.6" stroke-width="1" class="emerson_hill"/>
<path d="M 1572.3018 4327.0627 1673.3417 4323.4913 1736.1408 4323.7926 1772.0442 4338.1429 1780.3732 4351.0787 1764.1188 4381.995 1767.095 4416.6263 1746.9303 4418.4517 1722.524 4483.7603 1613.4325 4423.8391 1613.9272 4398.2146 1572.4826 4367.4602 1572.3018 4327.0627 Z" fill="none" stroke="#E71E24" opacity="0.6" stroke-width="1" class="emerson_hill"/>
<path d="M 1762.9541 4387.6496 1750.3208 4390.4064 1749.1428 4408.4117 1743.4679 4405.5199 1741.9715 4396.2841 1726.1068 4387.0327 1716.0134 4398.2179 1707.7972 4388.3976 1722.2085 4349.5159 1710.7495 4338.6537 1712.0372 4326.8824 1737.6423 4328.1801 1758.1441 4334.3194 1774.4727 4342.6468 1780.0278 4349.0008 1771.0888 4365.2659 1765.7508 4372.7628 1762.9541 4387.6496 Z" fill="none" stroke="#E71E24" opacity="0.6" stroke-width="1" class="emerson_hill"/>
<path d="M 1587.1031 4350.8577 1587.1097 4345.5484 1604.0399 4334.7198 1627.4468 4333.3632 1668.0051 4329.2561 1692.803 4327.207 1720.3792 4327.2379 1738.6851 4328.1813 1758.3772 4333.05 1781.0745 4345.3084 1771.5504 4366.9977 1761.1107 4377.6057 1750.4227 4403.4497 1739.0794 4391.8948 1731.2179 4375.4959 1715.9066 4390.0225 1720.9918 4402.0325 1705.2211 4412.4035 1692.9488 4402.9246 1667.2153 4410.7442 1664.644 4429.6716 1621.3175 4419.4624 1587.1031 4350.8577 Z" fill="none" stroke="#E71E24" opacity="0.6" stroke-width="1" class="emerson_hill"/>
<path d="M 1588.7342 4343.7037 1714.3562 4325.3845 1784.7832 4344.3889 1766.2016 4384.7674 1722.3841 4400.4181 1624.7967 4417.158 1588.7342 4343.7037 Z" fill="none" stroke="#E71E24" opacity="0.6" stroke-width="1" class="emerson_hill"/>
<path d="M 1665.919 4329.7153 1730.5757 4327.0182 1761.1566 4334.438 1781.7656 4349.2334 1763.8787 4389.8437 1740.4694 4392.358 1718.4581 4387.9477 1742.7762 4402.2872 1741.6107 4408.519 1703.5996 4411.7091 1660.0293 4412.1209 1664.4133 4428.7479 1621.7811 4419.4629 1621.5753 4397.993 1587.3274 4356.8599 1588.2699 4344.3956 1606.1252 4334.9532 1626.9847 4332.2085 1665.919 4329.7153 Z" fill="none" stroke="#E71E24" opacity="0.6" stroke-width="1" class="emerson_hill"/>
<path d="M 1557.6546 4727.8608 1788.0147 4356.8577 1773.0273 4505.5171 1557.6546 4727.8608 Z" fill="none" stroke="#E71E24" opacity="0.6" stroke-width="1" class="emerson_hill"/>
<path d="M 1422.8053 4347.1762 1436.2539 4341.655 1460.3487 4345.8436 1486.7653 4347.0339 1506.9237 4349.1385 1531.7155 4352.403 1534.0311 4353.7911 1553.4877 4361.2032 1564.6043 4366.7577 1566.4284 4390.3066 1568.7438 4391.9255 1569.4335 4396.3126 1568.2631 4405.5453 1571.4965 4414.3219 1568.2409 4423.0904 1556.163 4443.8527 1545.0164 4460.9226 1512.5765 4455.3393 1491.2828 4434.0713 1478.3206 4422.0489 1455.1744 4400.7783 1440.3902 4366.5918 1422.8053 4347.1762 Z" fill="none" stroke="#E71E24" opacity="0.6" stroke-width="1" class="emerson_hill"/></svg>