<?xml version="1.0"?><svg xmlns="http://www.w3.org/2000/svg" version="1.2" baseProfile="tiny" width="6000" height="5918" viewBox="0 0 6000 5918" stroke-linecap="round" stroke-linejoin="round"><path d="M 5527.0496 4322.1686 5587.7871 4407.6338 5608.431 4490.6844 5495.4697 4540.888 5284.0421 4526.6976 5411.6654 4411.8365 5424.4152 4330.542 5527.0496 4322.1686 Z" fill="none" stroke="#865327" opacity="0.6" stroke-width="1" class="far_rockaway"/>
<path d="M 5507.7938 4314.6071 5366.1756 4387.9537 5377.3046 4389.7698 5393.9238 4365.7154 5419.1203 4425.6673 5362.4753 4390.7341 5421.6007 4318.5464 5421.891 4421.9657 5595.5595 4526.7407 5018.2467 4649.2834 5003.8792 4455.3681 5187.997 4311.7867 5239.4072 4476.0217 5259.4767 4352.2286 5211.1174 4291.414 5262.0456 4271.8915 5358.6003 4329.8013 5426.2145 4311.1467 5507.7938 4314.6071 Z" fill="none" stroke="#865327" opacity="0.6" stroke-width="1" class="far_rockaway"/>
<path d="M 5140.32 4520.1427 5187.011 4288.7061 5307.4824 4279.1569 5350.3764 4373.2225 5525.5654 4528.3328 5474.7148 4577.8908 5150.7546 4613.8601 5140.32 4520.1427 Z" fill="none" stroke="#865327" opacity="0.6" stroke-width="1" class="far_rockaway"/>
<path d="M 5430.6634 4574.3215 5256.3693 4580.338 5239.4482 4491.7212 5274.3643 4373.4271 5348.4519 4347.373 5472.7532 4378.4206 5541.7129 4501.9648 5430.6634 4574.3215 Z" fill="none" stroke="#865327" opacity="0.6" stroke-width="1" class="far_rockaway"/>
<path d="M 5143.0816 4512.2857 5550.5707 4361.5736 5595.6175 4546.1352 5155.358 4600.9178 5143.0816 4512.2857 Z" fill="none" stroke="#865327" opacity="0.6" stroke-width="1" class="far_rockaway"/>
<path d="M 5437.4757 4360.053 5807.6196 4159.5048 5711.3738 4204.1237 5554.8418 3923.9762 5888.1265 3841.717 5948.538 4173.8122 5756.5146 4410.8092 5437.4757 4360.053 Z" fill="none" stroke="#865327" opacity="0.6" stroke-width="1" class="far_rockaway"/>
<path d="M 5999 4018.4875 5999 4039.181 5999 4143.7367 5999 4459.2969 5999 4695.6104 4866.5742 4410.4338 5999 4018.4875 Z" fill="none" stroke="#865327" opacity="0.6" stroke-width="1" class="far_rockaway"/>
<path d="M 5183.2519 4631.3268 5403.1626 4354.609 5432.3876 4528.1382 5183.2519 4631.3268 Z" fill="none" stroke="#865327" opacity="0.6" stroke-width="1" class="far_rockaway"/>
<path d="M 5110.8112 4584.4043 5171.6812 4456.8032 5259.4864 4355.9221 5313.3346 4387.174 5316.1032 4382.5495 5339.2904 4387.1038 5350.4319 4393.5373 5398.664 4403.5619 5411.6499 4406.296 5430.1744 4400.7034 5420.9303 4409.9637 5475.7034 4437.5118 5494.3081 4459.6216 5497.26 4518.7177 5495.4404 4530.729 5291.4493 4522.9837 5122.8669 4585.298 5018.9914 4572.6207 5110.8112 4584.4043 Z" fill="none" stroke="#865327" opacity="0.6" stroke-width="1" class="far_rockaway"/>
<path d="M 5218.5254 4288.6249 5365.2436 4386.1094 5415.3476 4402.5919 5465.506 4437.5409 5487.8187 4459.6403 5499.0021 4479.9248 5515.7916 4514.9699 5514.0071 4538.9873 5454.7595 4570.559 5441.8522 4596.4564 5425.1783 4602.0451 5399.2012 4596.5761 5367.6715 4594.8161 5332.4331 4593.0651 5280.5054 4591.3573 5239.7139 4593.3121 5191.5235 4602.673 5145.1913 4613.8741 5109.9664 4617.6566 5087.7313 4625.1005 5052.5147 4632.5754 5021.0065 4640.0402 4987.6389 4645.6611 4954.2068 4623.5715 4954.147 4597.7101 4942.9612 4571.8751 4935.4591 4534.9496 4922.4034 4501.7322 4913.0904 4483.2831 5218.5254 4288.6249 Z" fill="none" stroke="#865327" opacity="0.6" stroke-width="1" class="far_rockaway"/>
<path d="M 5246.5623 4376.2706 5498.1032 4168.7584 5808.5791 4169.6569 5697.8895 4338.9674 5299.9913 4596.847 5246.5623 4376.2706 Z" fill="none" stroke="#865327" opacity="0.6" stroke-width="1" class="far_rockaway"/>
<path d="M 5537.4931 4327.4474 5583.152 4407.6476 5614.0075 4495.2852 5601.1804 4546.1185 5506.5954 4540.8559 5432.4944 4566.0041 5438.9558 4555.8265 5428.6531 4518.9133 5415.4096 4424.7542 5407.0225 4409.0792 5410.6764 4389.6771 5419.8479 4354.5624 5437.4679 4357.2829 5468.0919 4369.2 5497.675 4341.4136 5537.4931 4327.4474 Z" fill="none" stroke="#865327" opacity="0.6" stroke-width="1" class="far_rockaway"/>
<path d="M 4759.5096 4633.2382 5496.0231 4090.2957 5617.8467 4538.6799 4778.2035 4703.3983 4759.5096 4633.2382 Z" fill="none" stroke="#865327" opacity="0.6" stroke-width="1" class="far_rockaway"/>
<path d="M 5474.0672 4432.6683 5504.0134 4369.5584 5555.6313 4427.3523 5523.336 4479.1616 5474.0672 4432.6683 Z" fill="none" stroke="#865327" opacity="0.6" stroke-width="1" class="far_rockaway"/>
<path d="M 5500.9636 4196.4465 5606.5574 4484.2255 5378.973 4532.3278 5409.4217 4438.2765 5491.7275 4207.552 5500.9636 4196.4465 Z" fill="none" stroke="#865327" opacity="0.6" stroke-width="1" class="far_rockaway"/>
<path d="M 5369.7184 4327.9241 5510.3173 4545.4629 4594.6587 4735.1776 4947.4266 4497.9807 5369.7184 4327.9241 Z" fill="none" stroke="#865327" opacity="0.6" stroke-width="1" class="far_rockaway"/>
<path d="M 5617.8467 4538.6799 5613.2249 4543.3117 5424.1577 4568.7983 5419.1048 4420.1266 5451.3933 4364.6306 5520.7384 4303.4894 5553.3543 4362.4888 5567.3026 4377.2219 5577.5543 4395.6597 5599.0771 4463.0075 5614.0659 4514.6791 5617.8467 4538.6799 Z" fill="none" stroke="#865327" opacity="0.6" stroke-width="1" class="far_rockaway"/>
<path d="M 4763.3784 4708.972 4715.0063 4635.1782 5162.9913 4320.1604 5366.5897 4201.4417 5427.0379 4603.8871 4778.2232 4712.6354 4763.3784 4708.972 Z" fill="none" stroke="#865327" opacity="0.6" stroke-width="1" class="far_rockaway"/>
<path d="M 5279.4016 4524.8628 5272.0017 4531.3473 5205.5537 4290.5051 5512.5857 4049.6311 5599.3095 4540.5828 5312.9571 4591.2705 5279.4016 4524.8628 Z" fill="none" stroke="#865327" opacity="0.6" stroke-width="1" class="far_rockaway"/>
<path d="M 5334.7136 4493.8915 5332.2775 4492.9746 5333.0846 4491.4717 5334.7136 4493.8915 Z" fill="none" stroke="#865327" opacity="0.6" stroke-width="1" class="far_rockaway"/>
<path d="M 5316.9405 4349.3053 5567.6445 4492.6531 5306.3088 4569.7705 4996.0615 4641.5273 4790.8082 4672.5494 4909.21 4544.8287 4968.4355 4496.6687 5060.9705 4424.4173 4786.965 4609.7492 4770.3026 4622.7154 4755.5214 4648.6088 5316.9405 4349.3053 Z" fill="none" stroke="#865327" opacity="0.6" stroke-width="1" class="far_rockaway"/>
<path d="M 5340.9071 4470.2099 5335.7825 4460.7581 5353.672 4434.2751 5346.4484 4377.5039 5361.5881 4320.7905 5429.0174 4318.9872 5516.4196 4292.5375 5597.2211 4423.6504 5605.5819 4545.2972 5379.6807 4578.7354 5361.7992 4524.4094 5361.5421 4515.1748 5365.9338 4510.7759 5340.9071 4470.2099 Z" fill="none" stroke="#865327" opacity="0.6" stroke-width="1" class="far_rockaway"/>
<path d="M 5522.0951 4291.9439 5595.6888 4414.9977 5604.8806 4543.3367 5382.2256 4576.9966 5316.2739 4359.9259 5522.0951 4291.9439 Z" fill="none" stroke="#865327" opacity="0.6" stroke-width="1" class="far_rockaway"/>
<path d="M 4920.9047 4657.8274 4884.388 4499.9754 5448.1751 4210.4505 5616.9224 4539.6106 4920.9047 4657.8274 Z" fill="none" stroke="#865327" opacity="0.6" stroke-width="1" class="far_rockaway"/>
<path d="M 4879.7773 4511.0636 5406.9362 4046.2398 5600.2338 4539.6564 4920.9531 4679.0676 4879.7773 4511.0636 Z" fill="none" stroke="#865327" opacity="0.6" stroke-width="1" class="far_rockaway"/>
<path d="M 5262.83 4341.8873 5427.9372 4401.9278 5425.8221 4336.4374 5301.4338 4270.2993 5214.3807 4298.8143 5421.4179 4417.2178 5534.9778 4317.7707 5622.1102 4545.5901 5286.8005 4602.641 5272.513 4497.9233 5241.8704 4479.5338 5262.83 4341.8873 Z" fill="none" stroke="#865327" opacity="0.6" stroke-width="1" class="far_rockaway"/>
<path d="M 5251.1608 4362.4077 5437.5748 4395.142 5549.9291 4458.5361 5545.5461 4544.4365 4765.2213 4703.4258 4742.831 4638.8151 5251.1608 4362.4077 Z" fill="none" stroke="#865327" opacity="0.6" stroke-width="1" class="far_rockaway"/>
<path d="M 5597.3142 4493.4883 5547.4086 4547.2017 5418.6827 4600.2161 5294.438 4600.5563 5297.1528 4575.6117 5295.2294 4549.7566 5285.9037 4529.4633 5269.169 4511.9604 5261.6936 4489.8157 5223.6421 4474.2158 5245.8943 4475.0812 5247.6007 4418.7452 5257.5985 4342.9998 5211.1317 4296.9539 5276.8731 4270.929 5346.3637 4261.509 5383.3055 4213.3977 5425.9366 4212.3555 5465.7398 4194.7013 5502.8332 4201.9805 5560.2899 4199.966 5542.7701 4230.4847 5533.6071 4266.5193 5522.5653 4294.2508 5542.1251 4326.5104 5564.4725 4360.6092 5580.2803 4377.1834 5593.3712 4415.0046 5607.3458 4438.049 5607.4485 4472.2173 5597.3142 4493.4883 Z" fill="none" stroke="#865327" opacity="0.6" stroke-width="1" class="far_rockaway"/>
<path d="M 5121.627 4087.61 5357.5544 4286.4075 5606.4826 4459.2914 5601.1416 4533.1888 5430.7571 4607.5712 4898.7151 4686.5076 4789.3509 4712.6117 4713.1518 4635.182 4876.0565 4505.5308 4951.964 4455.4895 5048.3066 4425.7112 5094.4898 4357.2661 5125.9097 4318.407 5196.2989 4296.0688 5224.0004 4255.3719 5277.7338 4245.998 5121.627 4087.61 Z" fill="none" stroke="#865327" opacity="0.6" stroke-width="1" class="far_rockaway"/>
<path d="M 5420.1986 4314.3952 5421.5851 4313.0063 5526.2837 4297.9333 5603.026 4388.6581 5605.3844 4556.727 5276.1726 4530.8745 5420.1986 4314.3952 Z" fill="none" stroke="#865327" opacity="0.6" stroke-width="1" class="far_rockaway"/>
<path d="M 5542.7241 4530.5914 5023.7573 4627.1026 4989.2416 4538.5189 5226.1735 4378.1707 5353.0437 4331.6633 5542.7241 4530.5914 Z" fill="none" stroke="#865327" opacity="0.6" stroke-width="1" class="far_rockaway"/>
<path d="M 5601.9179 4544.7125 5263.0492 4581.872 5245.7275 4482.1742 5235.5535 4278.3134 5470.364 4191.2537 5601.9179 4544.7125 Z" fill="none" stroke="#865327" opacity="0.6" stroke-width="1" class="far_rockaway"/>
<path d="M 5011.7228 4244.8205 5107.241 4265.8243 5000.6289 4256.8494 5011.7228 4244.8205 Z" fill="none" stroke="#865327" opacity="0.6" stroke-width="1" class="far_rockaway"/>
<path d="M 5313.367 4399.1784 5375.9322 4564.3146 5196.0219 4549.0931 5193.8477 4424.4254 5313.367 4399.1784 Z" fill="none" stroke="#865327" opacity="0.6" stroke-width="1" class="far_rockaway"/>
<path d="M 5516.7219 4197.324 5588.9786 4496.2838 5338.4714 4426.8135 5516.7219 4197.324 Z" fill="none" stroke="#865327" opacity="0.6" stroke-width="1" class="far_rockaway"/>
<path d="M 5254.8395 4351.3175 5206.5044 4299.7358 5284.2562 4258.9065 5416.0883 4336.1055 5457.974 4396.931 5502.4326 4383.8757 5523.7076 4368.1161 5582.269 4422.4253 5588.0185 4485.2045 5576.1282 4539.7283 5462.7802 4456.9416 5573.3632 4545.2779 5331.5159 4596.7621 5237.4879 4451.0927 5254.8395 4351.3175 Z" fill="none" stroke="#865327" opacity="0.6" stroke-width="1" class="far_rockaway"/>
<path d="M 5629.6635 4154.5213 5638.9704 4167.4177 5644.5985 4189.5577 5655.7313 4193.2166 5659.4893 4209.8233 5668.8255 4231.9527 5685.5884 4257.7528 5700.5099 4287.2522 5715.4611 4325.9858 5689.5641 4344.5334 5672.9018 4351.9718 5654.4247 4372.3429 5641.447 4372.3824 5626.6377 4379.8146 5619.2887 4401.9987 5615.7087 4444.4881 5610.2186 4468.515 5610.2797 4488.8319 5619.6286 4514.6624 5610.3907 4525.7727 5573.3769 4549.8957 5514.0662 4559.3056 5465.875 4566.833 5434.2992 4548.4511 5400.8755 4531.9207 5337.7803 4513.6235 5261.6887 4487.9687 5252.413 4486.1461 5230.0907 4458.4998 5229.9704 4412.3273 5226.1855 4382.7877 5222.3721 4342.1686 5200.0303 4305.2925 5198.1005 4275.7513 5198.0435 4253.5925 5214.6648 4229.5446 5238.7095 4209.1706 5270.1185 4170.3128 5305.2816 4149.9088 5336.7361 4129.5141 5362.6239 4107.2878 5395.8984 4075.8096 5414.3856 4059.1422 5429.1967 4053.562 5455.0698 4027.6427 5501.375 4018.2793 5527.3152 4016.3578 5553.2499 4012.5895 5568.0704 4010.6996 5582.8908 4008.8094 5629.6635 4154.5213 Z" fill="none" stroke="#865327" opacity="0.6" stroke-width="1" class="far_rockaway"/>
<path d="M 5252.4543 4590.0461 5239.7223 4507.882 5248.2768 4499.7788 5260.098 4499.9786 5271.2348 4504.3359 5292.2802 4486.964 5268.5057 4436.4666 5318.063 4421.7898 5382.7696 4438.466 5380.2521 4450.0163 5443.5581 4462.0753 5445.8469 4451.9106 5452.8018 4452.5834 5459.0811 4460.1843 5455.6151 4463.8881 5468.629 4476.0872 5458.4555 4484.6586 5452.0747 4523.003 5452.6392 4558.5584 5422.3202 4574.8068 5443.6935 4591.8332 5442.5541 4598.7635 5418.6937 4604.1415 5336.3693 4591.4381 5306.6886 4587.593 5271.7069 4595.0751 5251.2959 4590.28 5252.4543 4590.0461 Z" fill="none" stroke="#865327" opacity="0.6" stroke-width="1" class="far_rockaway"/>
<path d="M 5514.1648 4433.707 5526.8954 4507.5493 5528.363 4533.8659 5434.3383 4562.3046 5411.597 4553.1327 5407.8406 4536.0572 5376.7637 4529.6787 5360.0551 4522.3363 5367.8671 4497.3795 5428.4712 4454.2683 5514.1648 4433.707 Z" fill="none" stroke="#865327" opacity="0.6" stroke-width="1" class="far_rockaway"/>
<path d="M 5586.2965 4529.539 5421.5109 4616.8334 5286.0932 4600.5786 4789.3746 4723.6964 4746.4858 4612.9455 5185.1478 4285.0176 5455.264 4095.9512 5586.2965 4529.539 Z" fill="none" stroke="#865327" opacity="0.6" stroke-width="1" class="far_rockaway"/>
<path d="M 5606.7515 4548.8725 5596.5363 4543.3617 5546.3729 4510.2628 5456.5875 4561.318 5268.4568 4593.2365 5244.2893 4570.2102 5256.2259 4525.8477 5284.0102 4514.6917 5289.2419 4477.5062 5272.9703 4459.5415 5278.1703 4410.3536 5233.4039 4307.0526 5283.3687 4273.6816 5359.5348 4332.5688 5415.2131 4354.5754 5448.704 4396.9574 5503.2307 4339.32 5530.5344 4325.1593 5537.5384 4342.9135 5548.7053 4357.6547 5555.6677 4361.0969 5577.7613 4387.3484 5596.6503 4426.5378 5594.5467 4498.1142 5606.7515 4548.8725 Z" fill="none" stroke="#865327" opacity="0.6" stroke-width="1" class="far_rockaway"/></svg>