<?xml version="1.0"?><svg xmlns="http://www.w3.org/2000/svg" version="1.2" baseProfile="tiny" width="6000" height="5918" viewBox="0 0 6000 5918" stroke-linecap="round" stroke-linejoin="round"><path d="M 3750.8289 344.0198 3759.0275 241.0341 3794.9775 200.5432 3861.4351 208.7424 3876.2209 225.2737 3871.6895 296.0735 3877.2447 310.7781 3853.3127 367.8141 3808.0902 374.3018 3750.8289 344.0198 Z" fill="none" stroke="#FBC20F" opacity="0.6" stroke-width="1" class="fieldston"/>
<path d="M 3870.2139 218.3855 3879.5544 312.6143 3859.7772 370.5651 3844.5416 365.9852 3830.2478 377.9551 3818.2475 377.5088 3807.1651 372.4638 3814.986 349.9273 3809.4427 345.3359 3796.0714 356.8444 3784.5393 362.3739 3772.5254 349.0541 3756.3714 348.1517 3753.5357 284.7119 3762.709 231.3767 3801.9082 208.8098 3835.1299 206.4743 3870.2139 218.3855 Z" fill="none" stroke="#FBC20F" opacity="0.6" stroke-width="1" class="fieldston"/>
<path d="M 3824.6774 349.4567 3806.2116 344.8798 3786.8419 357.7739 3771.1355 343.9984 3757.2901 344.0131 3762.727 248.3853 3779.3111 221.7055 3795.9145 213.4132 3827.2941 214.2977 3857.7595 222.5372 3824.6774 349.4567 Z" fill="none" stroke="#FBC20F" opacity="0.6" stroke-width="1" class="fieldston"/>
<path d="M 3752.2226 352.7536 3752.1551 288.391 3754.8912 257.1279 3768.2401 225.3949 3788.0643 208.3653 3806.0557 203.7488 3824.5115 201.8895 3850.8212 208.2951 3869.7471 213.7892 3872.9929 227.1163 3872.5547 246.8836 3879.0494 275.8373 3880.9307 305.7168 3880.4883 321.8078 3864.831 350.7899 3856.0818 367.8109 3844.5463 370.1229 3833.479 378.4112 3816.8629 377.5104 3807.6236 369.7048 3807.6145 361.4292 3817.7531 348.0852 3805.7542 348.5583 3797.4574 358.2221 3784.0783 362.8342 3778.0676 352.7261 3764.6787 348.143 3752.2226 352.7536 Z" fill="none" stroke="#FBC20F" opacity="0.6" stroke-width="1" class="fieldston"/>
<path d="M 3867.9169 227.1222 3870.3277 315.3836 3862.0383 330.5645 3853.7731 366.894 3848.6942 365.0609 3839.4653 366.4507 3832.0924 376.5738 3824.7048 373.8235 3815.9347 372.9138 3809.9328 371.0815 3812.2297 361.4241 3817.2941 350.3844 3812.2123 345.7926 3805.7511 345.7998 3801.142 351.3218 3792.8432 359.1466 3784.0743 359.1562 3776.6816 351.3484 3766.9843 346.3015 3754.5282 350.9122 3758.584 258.0434 3764.0997 237.3512 3777.4604 217.1107 3807.4436 206.965 3840.2084 208.7669 3866.9827 217.4699 3867.9169 227.1222 Z" fill="none" stroke="#FBC20F" opacity="0.6" stroke-width="1" class="fieldston"/>
<path d="M 3863.3314 351.1365 3843.425 398.5147 3810.8598 374.6436 3828.5927 342.7859 3863.3314 351.1365 Z" fill="none" stroke="#FBC20F" opacity="0.6" stroke-width="1" class="fieldston"/>
<path d="M 3871.7502 249.5278 3873.4788 247.9168 3873.4812 249.9854 3871.2994 258.6074 3874.5411 268.2574 3874.334 288.3701 3875.859 309.7454 3871.265 327.5654 3863.4463 350.6766 3854.5897 374.594 3847.8084 397.4751 3838.372 419.5552 3832.0271 420.8268 3812.5188 413.952 3796.357 406.9582 3790.0068 403.4019 3781.3467 397.6641 3774.9952 392.7284 3767.2604 388.9436 3766.4389 375.9562 3767.002 362.9674 3771.8242 340.6645 3773.0814 329.5145 3772.4822 308.5973 3777.09 301.9263 3783.4236 290.8862 3789.879 285.8223 3795.9885 281.1036 3808.0975 276.6081 3811.209 273.5016 3823.2056 271.7642 3834.3979 273.0158 3841.316 269.4452 3848.8064 261.9664 3856.6476 258.6245 3871.7502 249.5278 Z" fill="none" stroke="#FBC20F" opacity="0.6" stroke-width="1" class="fieldston"/>
<path d="M 3868.8419 228.9599 3855.1652 373.329 3813.6245 370.6176 3811.7559 350.3906 3786.8429 358.6934 3760.065 349.5271 3758.0939 230.9219 3808.8269 206.0441 3873.4543 227.1157 3868.8419 228.9599 Z" fill="none" stroke="#FBC20F" opacity="0.6" stroke-width="1" class="fieldston"/></svg>