<?xml version="1.0"?><svg xmlns="http://www.w3.org/2000/svg" version="1.2" baseProfile="tiny" width="6000" height="5918" viewBox="0 0 6000 5918" stroke-linecap="round" stroke-linejoin="round"><path d="M 2884.3723 2471.8445 2875.1251 2505.9435 2852.9212 2502.2595 2823.3159 2490.2814 2845.5157 2450.6532 2884.3723 2471.8445 Z" fill="none" stroke="#FBC20F" opacity="0.6" stroke-width="1" class="flatiron"/>
<path d="M 2879.7546 2536.8164 2815.9151 2493.968 2882.9747 2392.1341 2949.5826 2419.3072 2879.7546 2536.8164 Z" fill="none" stroke="#FBC20F" opacity="0.6" stroke-width="1" class="flatiron"/>
<path d="M 2811.2834 2371.4074 2880.6655 2420.2396 2824.2433 2527.1447 2737.2793 2468.1654 2811.2834 2371.4074 Z" fill="none" stroke="#FBC20F" opacity="0.6" stroke-width="1" class="flatiron"/>
<path d="M 2833.9537 2473.6926 2801.1112 2448.8129 2855.6833 2362.1897 2882.5106 2379.2336 2955.1325 2417.0024 2903.8051 2508.7045 2833.9537 2473.6926 Z" fill="none" stroke="#FBC20F" opacity="0.6" stroke-width="1" class="flatiron"/>
<path d="M 2969.4929 2518.8301 2962.0972 2545.5582 2824.24 2472.7717 2839.0397 2446.0461 2969.4929 2518.8301 Z" fill="none" stroke="#FBC20F" opacity="0.6" stroke-width="1" class="flatiron"/>
<path d="M 2922.2897 2398.1179 2936.167 2407.3303 2899.1745 2474.6072 2879.7459 2465.3942 2889.9113 2383.3792 2922.2897 2398.1179 Z" fill="none" stroke="#FBC20F" opacity="0.6" stroke-width="1" class="flatiron"/>
<path d="M 2913.0524 2481.9775 2866.8047 2561.2409 2830.7207 2544.6548 2836.2716 2540.968 2840.8971 2536.3595 2772.4337 2499.4988 2837.1851 2387.0706 2888.065 2411.9453 2881.5922 2433.1406 2911.1966 2446.0377 2893.6233 2470.9217 2913.0524 2481.9775 Z" fill="none" stroke="#FBC20F" opacity="0.6" stroke-width="1" class="flatiron"/>
<path d="M 2886.2107 2379.2331 2904.7124 2387.9845 2926.9154 2400.8816 2945.4182 2411.0146 2954.2072 2416.0811 2939.4093 2432.671 2932.0121 2451.5634 2920.4518 2472.3 2902.8791 2503.1751 2885.7629 2494.8833 2868.647 2486.5912 2853.3813 2475.5341 2838.1161 2465.8591 2835.8031 2462.1731 2855.2267 2424.8499 2871.4119 2393.0569 2881.1229 2378.3123 2886.2107 2379.2331 Z" fill="none" stroke="#FBC20F" opacity="0.6" stroke-width="1" class="flatiron"/>
<path d="M 2828.403 2473.9234 2857.3077 2420.7029 2928.0819 2459.8579 2897.3295 2512.3918 2828.403 2473.9234 Z" fill="none" stroke="#FBC20F" opacity="0.6" stroke-width="1" class="flatiron"/>
<path d="M 2891.7795 2518.8437 2817.7651 2490.2817 2867.7126 2400.8899 2868.6372 2397.2038 2941.7209 2426.6807 2891.7795 2518.8437 Z" fill="none" stroke="#FBC20F" opacity="0.6" stroke-width="1" class="flatiron"/>
<path d="M 2806.6652 2528.9888 2773.359 2512.4009 2809.4362 2432.2252 2879.7368 2389.8308 2928.7679 2414.7036 2941.7199 2421.1517 2873.2814 2564.0051 2806.6652 2528.9888 Z" fill="none" stroke="#FBC20F" opacity="0.6" stroke-width="1" class="flatiron"/>
<path d="M 2839.5015 2435.9094 2838.5766 2438.2132 2867.2517 2416.5552 2898.2496 2475.9896 2849.6891 2568.1549 2780.7606 2534.0584 2839.5015 2435.9094 Z" fill="none" stroke="#FBC20F" opacity="0.6" stroke-width="1" class="flatiron"/>
<path d="M 2862.8656 2493.0428 2828.8655 2473.0018 2877.4238 2386.1452 2945.652 2424.1458 2897.5609 2512.8525 2862.8656 2493.0428 Z" fill="none" stroke="#FBC20F" opacity="0.6" stroke-width="1" class="flatiron"/>
<path d="M 2841.4444 2439.0424 2908.9819 2482.3468 2863.1041 2562.7159 2808.3304 2525.8553 2808.3302 2521.4316 2866.0595 2514.0545 2835.7129 2494.1511 2823.8713 2496.3637 2820.9114 2505.211 2807.5898 2516.2707 2829.7932 2509.634 2835.7141 2509.6336 2841.4444 2439.0424 Z" fill="none" stroke="#FBC20F" opacity="0.6" stroke-width="1" class="flatiron"/>
<path d="M 2860.317 2449.0392 2894.0827 2447.6529 2915.5961 2479.4428 2897.0986 2514.6958 2838.8111 2479.9127 2860.317 2449.0392 Z" fill="none" stroke="#FBC20F" opacity="0.6" stroke-width="1" class="flatiron"/>
<path d="M 2843.6651 2446.0457 2882.5215 2467.237 2871.4271 2528.9838 2848.297 2518.8485 2833.4961 2542.8114 2795.5631 2527.146 2843.6651 2446.0457 Z" fill="none" stroke="#FBC20F" opacity="0.6" stroke-width="1" class="flatiron"/>
<path d="M 2830.7207 2544.6548 2709.526 2469.0857 2781.6823 2335.4724 2886.2124 2392.5944 2880.67 2457.1003 2830.7207 2544.6548 Z" fill="none" stroke="#FBC20F" opacity="0.6" stroke-width="1" class="flatiron"/>
<path d="M 2864.9388 2413.791 2932.0119 2450.6419 2913.0527 2484.051 2844.1278 2447.8887 2864.2449 2412.6392 2864.9388 2413.791 Z" fill="none" stroke="#FBC20F" opacity="0.6" stroke-width="1" class="flatiron"/>
<path d="M 2857.0766 2422.0852 2944.0417 2469.3008 2902.1917 2547.4121 2815.2215 2499.4975 2857.0766 2422.0852 Z" fill="none" stroke="#FBC20F" opacity="0.6" stroke-width="1" class="flatiron"/>
<path d="M 2866.7879 2404.5759 3037.0153 2469.0483 2996.3259 2532.6479 3024.0859 2550.1514 2977.8208 2525.2794 2841.8154 2451.575 2866.7879 2404.5759 Z" fill="none" stroke="#FBC20F" opacity="0.6" stroke-width="1" class="flatiron"/>
<path d="M 2842.2776 2447.6585 2912.1369 2486.1118 2874.2299 2567.3994 2799.9107 2526.1584 2842.2776 2447.6585 Z" fill="none" stroke="#FBC20F" opacity="0.6" stroke-width="1" class="flatiron"/>
<path d="M 2916.7538 2487.5063 2834.4143 2446.0465 2886.2071 2351.1291 2962.9917 2399.0318 2916.7538 2487.5063 Z" fill="none" stroke="#FBC20F" opacity="0.6" stroke-width="1" class="flatiron"/>
<path d="M 2892.011 2520.6868 2793.2484 2466.0919 2811.7488 2430.1517 2831.4041 2394.6731 2885.5227 2424.8465 2892.011 2520.6868 Z" fill="none" stroke="#FBC20F" opacity="0.6" stroke-width="1" class="flatiron"/>
<path d="M 2835.3467 2545.5761 2799.7263 2525.5331 2863.0885 2412.4089 2896.393 2430.1437 2835.3467 2545.5761 Z" fill="none" stroke="#FBC20F" opacity="0.6" stroke-width="1" class="flatiron"/>
<path d="M 2829.3277 2467.2421 2858.9259 2413.7916 2914.4337 2441.4296 2898.7164 2506.4013 2829.3277 2467.2421 Z" fill="none" stroke="#FBC20F" opacity="0.6" stroke-width="1" class="flatiron"/>
<path d="M 2858.4639 2419.3206 2908.4215 2446.9597 2911.1956 2439.5871 2950.0527 2458.0108 2902.8853 2545.5687 2814.9901 2496.7328 2858.4639 2419.3206 Z" fill="none" stroke="#FBC20F" opacity="0.6" stroke-width="1" class="flatiron"/>
<path d="M 2913.5155 2485.6637 2882.9928 2537.9681 2868.4204 2529.6753 2854.5454 2556.634 2798.8012 2526.2243 2842.7402 2448.1192 2913.5155 2485.6637 Z" fill="none" stroke="#FBC20F" opacity="0.6" stroke-width="1" class="flatiron"/>
<path d="M 2802.0393 2528.0674 2843.8965 2446.9672 2877.1926 2386.8363 2889.3344 2392.4788 2948.1959 2423.915 2870.2745 2563.3142 2802.0393 2528.0674 Z" fill="none" stroke="#FBC20F" opacity="0.6" stroke-width="1" class="flatiron"/>
<path d="M 2868.638 2404.3453 2937.0984 2442.3473 2892.7051 2522.2995 2824.0093 2483.1392 2868.638 2404.3453 Z" fill="none" stroke="#FBC20F" opacity="0.6" stroke-width="1" class="flatiron"/>
<path d="M 2883.4554 2537.2768 2846.4465 2517.0054 2891.7686 2437.7468 2928.7757 2459.8578 2883.4554 2537.2768 Z" fill="none" stroke="#FBC20F" opacity="0.6" stroke-width="1" class="flatiron"/>
<path d="M 2913.5155 2485.6637 2865.8798 2563.5451 2738.2038 2491.2043 2795.5587 2387.5335 2910.7346 2449.7239 2895.0114 2474.147 2913.5155 2485.6637 Z" fill="none" stroke="#FBC20F" opacity="0.6" stroke-width="1" class="flatiron"/>
<path d="M 2899.641 2502.254 2867.4903 2483.8267 2843.4339 2446.7369 2895.0056 2431.7566 2932.2436 2452.9457 2903.1098 2499.028 2899.641 2502.254 Z" fill="none" stroke="#FBC20F" opacity="0.6" stroke-width="1" class="flatiron"/>
<path d="M 2842.2778 2449.2712 2893.1615 2476.6815 2865.4145 2537.9701 2810.5962 2508.7135 2842.2778 2449.2712 Z" fill="none" stroke="#FBC20F" opacity="0.6" stroke-width="1" class="flatiron"/>
<path d="M 2812.2114 2430.382 2914.9035 2487.5066 2867.7303 2564.9274 2765.9577 2507.793 2812.2114 2430.382 Z" fill="none" stroke="#FBC20F" opacity="0.6" stroke-width="1" class="flatiron"/>
<path d="M 2912.8219 2486.8158 2902.8794 2505.0183 2832.5655 2466.0899 2861.9323 2413.1001 2932.7058 2450.8722 2912.8219 2486.8158 Z" fill="none" stroke="#FBC20F" opacity="0.6" stroke-width="1" class="flatiron"/>
<path d="M 2883.4469 2470.0015 2918.6041 2487.9668 2874.2068 2564.9267 2841.3608 2549.723 2883.4469 2470.0015 Z" fill="none" stroke="#FBC20F" opacity="0.6" stroke-width="1" class="flatiron"/>
<path d="M 2859.3893 2422.085 2927.6193 2459.858 2893.8612 2519.3042 2823.5467 2482.6784 2859.3893 2422.085 Z" fill="none" stroke="#FBC20F" opacity="0.6" stroke-width="1" class="flatiron"/>
<path d="M 2886.4508 2448.5754 2887.3761 2450.4183 2911.8966 2485.8943 2883.224 2536.5856 2814.2964 2499.728 2853.1458 2429.9184 2886.4508 2448.5754 Z" fill="none" stroke="#FBC20F" opacity="0.6" stroke-width="1" class="flatiron"/>
<path d="M 2866.3423 2562.6234 2814.5295 2534.5181 2875.5788 2429.916 2892.6938 2438.6682 2890.3812 2439.1293 2926.4627 2458.4759 2866.3423 2562.6234 Z" fill="none" stroke="#FBC20F" opacity="0.6" stroke-width="1" class="flatiron"/>
<path d="M 2929.2445 2496.0287 2911.8967 2486.5855 2893.1675 2520.9171 2823.0842 2482.9089 2858.0016 2420.9333 2944.5041 2468.84 2929.2445 2496.0287 Z" fill="none" stroke="#FBC20F" opacity="0.6" stroke-width="1" class="flatiron"/>
<path d="M 2769.6583 2508.7146 2813.1364 2429.4605 2884.3719 2469.0798 2867.7266 2530.8274 2854.7765 2554.7907 2769.6583 2508.7146 Z" fill="none" stroke="#FBC20F" opacity="0.6" stroke-width="1" class="flatiron"/>
<path d="M 2877.6646 2467.0072 2913.2842 2485.4333 2884.8432 2538.1982 2848.9907 2517.466 2877.6646 2467.0072 Z" fill="none" stroke="#FBC20F" opacity="0.6" stroke-width="1" class="flatiron"/>
<path d="M 2882.279 2376.93 2934.0855 2406.4092 2888.537 2484.7457 2837.653 2457.5653 2882.279 2376.93 Z" fill="none" stroke="#FBC20F" opacity="0.6" stroke-width="1" class="flatiron"/>
<path d="M 2883.6867 2537.968 2845.7524 2514.2407 2875.1195 2457.5617 2915.5962 2479.9036 2883.6867 2537.968 Z" fill="none" stroke="#FBC20F" opacity="0.6" stroke-width="1" class="flatiron"/>
<path d="M 2883.9095 2469.7711 2930.6323 2496.2589 2919.9961 2514.4619 2878.13 2490.7372 2883.9095 2469.7711 Z" fill="none" stroke="#FBC20F" opacity="0.6" stroke-width="1" class="flatiron"/>
<path d="M 2830.7159 2475.5359 2864.939 2415.6339 2928.7738 2448.7994 2898.2544 2510.5485 2830.7159 2475.5359 Z" fill="none" stroke="#FBC20F" opacity="0.6" stroke-width="1" class="flatiron"/>
<path d="M 2824.2406 2483.1392 2857.5391 2421.8548 2927.6192 2459.1668 2892.2424 2521.6084 2824.2406 2483.1392 Z" fill="none" stroke="#FBC20F" opacity="0.6" stroke-width="1" class="flatiron"/>
<path d="M 2799.2638 2526.4547 2858.0015 2420.2421 2927.1566 2458.7062 2876.0575 2567.9218 2799.2638 2526.4547 Z" fill="none" stroke="#FBC20F" opacity="0.6" stroke-width="1" class="flatiron"/>
<path d="M 2848.7525 2438.6731 2900.5612 2467.9257 2911.6657 2488.1983 2898.2548 2513.0828 2835.573 2478.0698 2848.7523 2436.5997 2848.7525 2438.6731 Z" fill="none" stroke="#FBC20F" opacity="0.6" stroke-width="1" class="flatiron"/>
<path d="M 2876.036 2384.3024 2891.7631 2396.2796 2884.3721 2470.0014 2841.3524 2446.0459 2876.036 2384.3024 Z" fill="none" stroke="#FBC20F" opacity="0.6" stroke-width="1" class="flatiron"/>
<path d="M 2900.7894 2446.2697 2943.5837 2493.4918 2875.1374 2611.9313 2780.2971 2481.7586 2900.7894 2446.2697 Z" fill="none" stroke="#FBC20F" opacity="0.6" stroke-width="1" class="flatiron"/>
<path d="M 2884.3806 2537.7375 2814.5277 2499.9583 2871.8744 2393.5176 2942.1846 2432.6704 2884.3806 2537.7375 Z" fill="none" stroke="#FBC20F" opacity="0.6" stroke-width="1" class="flatiron"/>
<path d="M 2857.0765 2420.4726 2928.3132 2460.0883 2893.3988 2520.917 2823.778 2482.2177 2857.0765 2420.4726 Z" fill="none" stroke="#FBC20F" opacity="0.6" stroke-width="1" class="flatiron"/>
<path d="M 2866.3177 2332.2422 2958.8257 2382.9069 2874.6654 2530.8266 2866.3177 2332.2422 Z" fill="none" stroke="#FBC20F" opacity="0.6" stroke-width="1" class="flatiron"/>
<path d="M 2813.8339 2501.3407 2812.2148 2500.6496 2866.7871 2396.9737 2876.4983 2382.2291 2950.9705 2421.1499 2885.0751 2542.3455 2813.8339 2501.3407 Z" fill="none" stroke="#FBC20F" opacity="0.6" stroke-width="1" class="flatiron"/>
<path d="M 2757.6298 2702.2669 2752.0777 2708.7193 2738.1981 2687.5184 2710.459 2332.7067 2730.8098 2296.7732 2746.5321 2384.3087 2757.6298 2702.2669 Z" fill="none" stroke="#FBC20F" opacity="0.6" stroke-width="1" class="flatiron"/>
<path d="M 2833.9532 2466.0898 2874.6486 2385.2241 2975.9531 2447.4078 2938.2696 2523.2139 2935.0315 2523.2145 2833.9532 2466.0898 Z" fill="none" stroke="#FBC20F" opacity="0.6" stroke-width="1" class="flatiron"/>
<path d="M 2818.6906 2495.811 2858.4622 2401.8123 2943.5752 2448.7967 2895.4819 2531.7456 2818.6906 2495.811 Z" fill="none" stroke="#FBC20F" opacity="0.6" stroke-width="1" class="flatiron"/>
<path d="M 2891.7799 2521.6084 2805.7377 2473.6942 2840.887 2410.1072 2842.7375 2414.7145 2925.0751 2458.9369 2891.7799 2521.6084 Z" fill="none" stroke="#FBC20F" opacity="0.6" stroke-width="1" class="flatiron"/>
<path d="M 2939.8727 2436.8177 2890.8547 2521.6086 2822.3906 2486.5951 2867.7122 2397.2039 2939.8727 2436.8177 Z" fill="none" stroke="#FBC20F" opacity="0.6" stroke-width="1" class="flatiron"/>
<path d="M 2800.1889 2525.7634 2857.7704 2421.8548 2909.3469 2449.2633 2855.7019 2557.3251 2800.1889 2525.7634 Z" fill="none" stroke="#FBC20F" opacity="0.6" stroke-width="1" class="flatiron"/>
<path d="M 2921.6003 2424.6109 2920.6871 2496.491 2855.0009 2481.9848 2870.9534 2429.2254 2921.6003 2424.6109 Z" fill="none" stroke="#FBC20F" opacity="0.6" stroke-width="1" class="flatiron"/>
<path d="M 2911.8967 2486.3551 2878.5897 2466.5463 2903.5611 2422.0796 2936.4046 2442.117 2911.8967 2486.3551 Z" fill="none" stroke="#FBC20F" opacity="0.6" stroke-width="1" class="flatiron"/>
<path d="M 2842.9716 2448.8104 2911.6655 2487.2767 2864.7232 2562.854 2800.8829 2527.6066 2842.9716 2448.8104 Z" fill="none" stroke="#FBC20F" opacity="0.6" stroke-width="1" class="flatiron"/>
<path d="M 2864.029 2560.3196 2789.0867 2517.0086 2830.7137 2443.2821 2918.604 2487.506 2871.43 2554.789 2864.029 2560.3196 Z" fill="none" stroke="#FBC20F" opacity="0.6" stroke-width="1" class="flatiron"/>
<path d="M 2857.7703 2420.7029 2926.0004 2460.0887 2891.5483 2519.7653 2823.778 2482.9088 2857.7703 2420.7029 Z" fill="none" stroke="#FBC20F" opacity="0.6" stroke-width="1" class="flatiron"/>
<path d="M 2871.4272 2529.9054 2814.065 2498.576 2841.3527 2449.2713 2887.61 2470.001 2871.4272 2529.9054 Z" fill="none" stroke="#FBC20F" opacity="0.6" stroke-width="1" class="flatiron"/>
<path d="M 2858.2328 2420.9332 2929.7006 2458.7057 2891.3184 2530.1333 2819.3841 2490.7424 2858.2328 2420.9332 Z" fill="none" stroke="#FBC20F" opacity="0.6" stroke-width="1" class="flatiron"/>
<path d="M 2843.2019 2437.2913 2901.4834 2447.8822 2967.1801 2519.2914 2904.2832 2614.6925 2851.5411 2585.6661 2837.1957 2527.6046 2777.0592 2481.0674 2843.2019 2437.2913 Z" fill="none" stroke="#FBC20F" opacity="0.6" stroke-width="1" class="flatiron"/>
<path d="M 2871.8845 2482.9046 2839.041 2463.0944 2867.252 2418.8589 2915.8222 2446.9585 2884.8372 2490.7364 2871.8845 2482.9046 Z" fill="none" stroke="#FBC20F" opacity="0.6" stroke-width="1" class="flatiron"/>
<path d="M 2895.097 2476.366 2812.3209 2431.0247 2845.667 2368.9439 2929.413 2415.0066 2895.097 2476.366 Z" fill="none" stroke="#FBC20F" opacity="0.6" stroke-width="1" class="flatiron"/>
<path d="M 2821.9213 2375.0926 2835.7967 2376.4739 2831.6357 2399.0501 2810.8218 2390.2973 2821.9213 2375.0926 Z" fill="none" stroke="#FBC20F" opacity="0.6" stroke-width="1" class="flatiron"/>
<path d="M 2927.6192 2459.3972 2897.3295 2512.1614 2898.4859 2511.47 2862.8657 2494.1948 2892.4626 2439.129 2927.6192 2459.3972 Z" fill="none" stroke="#FBC20F" opacity="0.6" stroke-width="1" class="flatiron"/>
<path d="M 2862.1881 2652.4877 2876.9828 2568.1521 2905.2039 2583.3555 2862.6509 2654.3311 2862.1881 2652.4877 Z" fill="none" stroke="#FBC20F" opacity="0.6" stroke-width="1" class="flatiron"/>
<path d="M 2859.3893 2422.085 2909.3467 2447.8811 2871.4263 2521.6109 2814.0649 2495.8113 2859.3893 2422.085 Z" fill="none" stroke="#FBC20F" opacity="0.6" stroke-width="1" class="flatiron"/>
<path d="M 2767.808 2509.6362 2817.7619 2431.3033 2926.9321 2498.5635 2889.011 2572.298 2777.0596 2509.6361 2767.808 2509.6362 Z" fill="none" stroke="#FBC20F" opacity="0.6" stroke-width="1" class="flatiron"/>
<path d="M 2872.3512 2519.7677 2784.9227 2476.4595 2813.1366 2433.6073 2882.2905 2469.5409 2872.3512 2519.7677 Z" fill="none" stroke="#FBC20F" opacity="0.6" stroke-width="1" class="flatiron"/>
<path d="M 2815.9397 2499.1701 2866.8121 2402.8905 2937.6583 2441.9228 2883.3824 2537.968 2815.9397 2499.1701 Z" fill="none" stroke="#FBC20F" opacity="0.6" stroke-width="1" class="flatiron"/>
<path d="M 2849.2158 2446.9668 2903.7827 2355.7338 2975.0132 2380.5998 2914.9021 2478.291 2849.2158 2446.9668 Z" fill="none" stroke="#FBC20F" opacity="0.6" stroke-width="1" class="flatiron"/>
<path d="M 2824.2406 2483.1392 2867.4816 2403.8847 2873.262 2393.9782 2941.7223 2434.0528 2883.4556 2538.8896 2848.7595 2518.618 2858.9346 2501.107 2824.2406 2483.1392 Z" fill="none" stroke="#FBC20F" opacity="0.6" stroke-width="1" class="flatiron"/>
<path d="M 2887.6176 2529.2122 2872.12 2520.2285 2788.1605 2473.9252 2836.9537 2385.9188 2937.5608 2441.6561 2887.6176 2529.2122 Z" fill="none" stroke="#FBC20F" opacity="0.6" stroke-width="1" class="flatiron"/>
<path d="M 2875.1109 2383.3811 2952.8194 2414.6991 2893.6294 2516.0786 2820.5399 2479.2228 2872.3362 2387.0672 2875.1109 2383.3811 Z" fill="none" stroke="#FBC20F" opacity="0.6" stroke-width="1" class="flatiron"/>
<path d="M 2912.5905 2485.8942 2907.5038 2496.0322 2902.1854 2504.3272 2832.5655 2465.8595 2857.539 2420.7029 2909.8095 2449.724 2895.0117 2476.4508 2912.5905 2485.8942 Z" fill="none" stroke="#FBC20F" opacity="0.6" stroke-width="1" class="flatiron"/>
<path d="M 2851.9976 2518.8481 2829.3304 2506.4085 2881.1281 2420.7003 2929.2363 2448.7993 2912.5898 2481.9776 2886.2224 2470.9227 2873.7381 2512.3948 2861.7104 2505.4842 2851.9976 2518.8481 Z" fill="none" stroke="#FBC20F" opacity="0.6" stroke-width="1" class="flatiron"/>
<path d="M 2877.6646 2466.316 2901.9424 2422.7709 2953.983 2451.0985 2929.2443 2494.6464 2877.6646 2466.316 Z" fill="none" stroke="#FBC20F" opacity="0.6" stroke-width="1" class="flatiron"/>
<path d="M 2911.8966 2486.1247 2882.7613 2535.6641 2815.684 2498.3455 2841.8152 2449.2712 2911.8966 2486.1247 Z" fill="none" stroke="#FBC20F" opacity="0.6" stroke-width="1" class="flatiron"/>
<path d="M 2888.532 2446.5017 2918.6006 2466.3103 2898.7162 2504.5581 2863.559 2488.4349 2888.532 2446.5017 Z" fill="none" stroke="#FBC20F" opacity="0.6" stroke-width="1" class="flatiron"/>
<path d="M 2858.0015 2420.2421 2884.8301 2434.0617 2925.5374 2457.5545 2918.6016 2472.3003 2907.0412 2495.8019 2893.6298 2518.8434 2884.3804 2535.8943 2813.6025 2500.4192 2858.0015 2420.2421 Z" fill="none" stroke="#FBC20F" opacity="0.6" stroke-width="1" class="flatiron"/>
<path d="M 2858.0015 2420.2421 2909.8095 2449.2633 2880.6757 2503.6389 2829.3282 2474.1537 2858.0015 2420.2421 Z" fill="none" stroke="#FBC20F" opacity="0.6" stroke-width="1" class="flatiron"/>
<path d="M 2881.5969 2471.3841 2887.1365 2385.2225 2971.7857 2426.6746 2929.7072 2496.7198 2881.5969 2471.3841 Z" fill="none" stroke="#FBC20F" opacity="0.6" stroke-width="1" class="flatiron"/>
<path d="M 2878.8206 2463.5513 2892.2316 2441.2025 2926.2315 2458.9367 2888.5427 2528.9817 2854.0784 2509.8625 2862.4032 2494.6556 2869.5716 2482.4441 2874.8897 2470.6937 2882.7517 2458.252 2878.8206 2463.5513 Z" fill="none" stroke="#FBC20F" opacity="0.6" stroke-width="1" class="flatiron"/>
<path d="M 2862.6296 2446.9655 2917.2146 2476.4475 2870.506 2565.8487 2814.5295 2534.9789 2862.6296 2446.9655 Z" fill="none" stroke="#FBC20F" opacity="0.6" stroke-width="1" class="flatiron"/>
<path d="M 2803.4216 2390.7584 2796.0212 2386.6121 2874.6324 2245.1718 2904.2313 2261.2913 2937.5312 2279.2522 2910.7163 2330.3936 2978.2482 2369.0809 2929.2379 2458.0146 2803.4216 2390.7584 Z" fill="none" stroke="#FBC20F" opacity="0.6" stroke-width="1" class="flatiron"/>
<path d="M 2857.7703 2420.9333 2927.8503 2458.4757 2867.7303 2564.9274 2799.2638 2526.2243 2857.7703 2420.9333 Z" fill="none" stroke="#FBC20F" opacity="0.6" stroke-width="1" class="flatiron"/>
<path d="M 2945.883 2422.9939 2870.0429 2560.7798 2801.1141 2526.2242 2876.4988 2386.606 2945.883 2422.9939 Z" fill="none" stroke="#FBC20F" opacity="0.6" stroke-width="1" class="flatiron"/>
<path d="M 2767.808 2508.7146 2851.5206 2359.8865 2950.5071 2416.5425 2870.0435 2566.3096 2767.808 2508.7146 Z" fill="none" stroke="#FBC20F" opacity="0.6" stroke-width="1" class="flatiron"/>
<path d="M 2910.2775 2485.2034 2883.9179 2537.2767 2868.1891 2529.4449 2854.7766 2555.7124 2800.1889 2525.3026 2857.5389 2419.7814 2882.0563 2445.581 2883.908 2458.0214 2882.0593 2470.0017 2910.2775 2485.2034 Z" fill="none" stroke="#FBC20F" opacity="0.6" stroke-width="1" class="flatiron"/>
<path d="M 2850.1363 2395.8235 2721.5589 2329.0217 2728.9639 2194.5056 2854.7381 2148.4392 2974.9645 2161.3176 3004.6018 2332.6781 2969.4698 2411.9312 2891.7689 2439.5899 2850.1363 2395.8235 Z" fill="none" stroke="#FBC20F" opacity="0.6" stroke-width="1" class="flatiron"/>
<path d="M 2799.2638 2526.2243 2886.2105 2377.851 2951.8949 2417.4638 2869.5807 2564.9272 2799.2638 2526.2243 Z" fill="none" stroke="#FBC20F" opacity="0.6" stroke-width="1" class="flatiron"/>
<path d="M 2850.3642 2359.3107 2916.6234 2395.2392 2858.3564 2501.2222 2791.9764 2466.3223 2848.3986 2359.3109 2850.3642 2359.3107 Z" fill="none" stroke="#FBC20F" opacity="0.6" stroke-width="1" class="flatiron"/>
<path d="M 2768.9645 2509.1754 2849.7863 2360.8081 2849.208 2359.8867 2949.5819 2416.082 2864.2605 2562.1628 2768.9645 2509.1754 Z" fill="none" stroke="#FBC20F" opacity="0.6" stroke-width="1" class="flatiron"/>
<path d="M 2883.9033 2420.7 2948.6645 2455.4769 2927.625 2493.2643 2883.6821 2501.1042 2845.0557 2481.0642 2883.9033 2420.7 Z" fill="none" stroke="#FBC20F" opacity="0.6" stroke-width="1" class="flatiron"/>
<path d="M 2881.5851 2375.0872 2890.8359 2379.6933 2881.5967 2470.0017 2840.8897 2443.2814 2881.5851 2375.0872 Z" fill="none" stroke="#FBC20F" opacity="0.6" stroke-width="1" class="flatiron"/>
<path d="M 2877.4334 2467.0072 2884.1391 2456.6391 2881.826 2454.1052 2883.674 2436.3656 2927.619 2458.2453 2884.1492 2537.0463 2849.6847 2519.0788 2877.4334 2467.0072 Z" fill="none" stroke="#FBC20F" opacity="0.6" stroke-width="1" class="flatiron"/>
<path d="M 2844.5902 2445.5849 2881.5853 2377.3908 2932.0044 2407.7918 2896.3988 2472.3037 2844.5902 2445.5849 Z" fill="none" stroke="#FBC20F" opacity="0.6" stroke-width="1" class="flatiron"/>
<path d="M 2768.2706 2510.097 2812.6739 2430.8428 2851.983 2359.4257 2949.5817 2414.6997 2869.118 2563.5448 2768.2706 2510.097 Z" fill="none" stroke="#FBC20F" opacity="0.6" stroke-width="1" class="flatiron"/>
<path d="M 2768.7332 2508.945 2846.4338 2368.4103 2911.4215 2404.8004 2892.9253 2440.0505 2909.5782 2449.2633 2895.0117 2475.9901 2912.1277 2484.7424 2867.9616 2564.4665 2768.7332 2508.945 Z" fill="none" stroke="#FBC20F" opacity="0.6" stroke-width="1" class="flatiron"/>
<path d="M 2911.2027 2485.6641 2842.8559 2448.004 2842.2777 2448.2345 2869.2161 2403.8845 2936.6358 2441.7714 2911.2027 2485.6641 Z" fill="none" stroke="#FBC20F" opacity="0.6" stroke-width="1" class="flatiron"/>
<path d="M 2891.7796 2519.7653 2823.3154 2482.4481 2857.0765 2420.703 2926.4628 2458.9367 2891.7796 2519.7653 Z" fill="none" stroke="#FBC20F" opacity="0.6" stroke-width="1" class="flatiron"/>
<path d="M 2914.2089 2482.5533 2883.2241 2537.392 2847.4873 2516.4294 2875.6981 2461.1326 2914.2089 2482.5533 Z" fill="none" stroke="#FBC20F" opacity="0.6" stroke-width="1" class="flatiron"/>
<path d="M 2842.3933 2448.1193 2912.5904 2485.6638 2897.7921 2512.5069 2827.2466 2473.8082 2842.3933 2448.1193 Z" fill="none" stroke="#FBC20F" opacity="0.6" stroke-width="1" class="flatiron"/>
<path d="M 2878.8214 2470.4629 2836.2718 2544.6544 2803.8895 2523.4593 2846.4407 2448.8101 2849.6788 2452.4959 2858.4677 2458.0243 2857.0816 2473.6906 2849.6783 2447.4275 2878.8214 2470.4629 Z" fill="none" stroke="#FBC20F" opacity="0.6" stroke-width="1" class="flatiron"/>
<path d="M 2947.2699 2419.3077 2885.3047 2528.9821 2873.277 2525.2971 2888.0623 2391.6727 2894.5373 2389.8289 2947.2699 2419.3077 Z" fill="none" stroke="#FBC20F" opacity="0.6" stroke-width="1" class="flatiron"/>
<path d="M 2872.8067 2457.1012 2922.7667 2484.971 2887.1573 2546.4925 2860.094 2531.289 2872.8067 2457.1012 Z" fill="none" stroke="#FBC20F" opacity="0.6" stroke-width="1" class="flatiron"/>
<path d="M 2870.0395 2529.9055 2870.0392 2527.6015 2888.5278 2414.2489 2937.0982 2440.965 2884.8431 2537.2766 2870.0395 2529.9055 Z" fill="none" stroke="#FBC20F" opacity="0.6" stroke-width="1" class="flatiron"/>
<path d="M 2928.5509 2443.9486 2875.0791 2492.1125 2766.3657 2453.012 2796.8913 2376.5276 2928.5509 2443.9486 Z" fill="none" stroke="#FBC20F" opacity="0.6" stroke-width="1" class="flatiron"/>
<path d="M 2825.1665 2494.8891 2820.5405 2489.8207 2842.74 2445.585 2914.4406 2485.2028 2892.2439 2532.2068 2863.5615 2512.8567 2825.1665 2494.8891 Z" fill="none" stroke="#FBC20F" opacity="0.6" stroke-width="1" class="flatiron"/>
<path d="M 2878.8214 2470.4629 2835.8087 2537.2815 2802.9643 2522.9985 2841.8151 2447.4282 2878.8214 2470.4629 Z" fill="none" stroke="#FBC20F" opacity="0.6" stroke-width="1" class="flatiron"/>
<path d="M 2998.6394 2534.9514 2842.7402 2447.4281 2858.9267 2421.6243 3014.8225 2506.3778 2998.6394 2534.9514 Z" fill="none" stroke="#FBC20F" opacity="0.6" stroke-width="1" class="flatiron"/>
<path d="M 2881.605 2537.277 2864.9517 2536.8181 2779.1409 2490.283 2812.6739 2429.4605 2910.9715 2486.1249 2881.605 2537.277 Z" fill="none" stroke="#FBC20F" opacity="0.6" stroke-width="1" class="flatiron"/>
<path d="M 2877.4334 2467.0072 2911.6654 2486.1248 2884.1493 2537.5071 2849.222 2517.6964 2877.4334 2467.0072 Z" fill="none" stroke="#FBC20F" opacity="0.6" stroke-width="1" class="flatiron"/>
<path d="M 2846.6784 2449.1722 2913.7537 2488.3297 2899.8804 2514.136 2830.0287 2477.7412 2846.6784 2449.1722 Z" fill="none" stroke="#FBC20F" opacity="0.6" stroke-width="1" class="flatiron"/>
<path d="M 2876.0455 2465.3947 2841.8148 2444.2028 2873.262 2393.5174 2914.8919 2413.7844 2876.0455 2465.3947 Z" fill="none" stroke="#FBC20F" opacity="0.6" stroke-width="1" class="flatiron"/>
<path d="M 2876.0374 2396.2815 2947.2731 2435.8948 2896.4061 2524.3726 2865.873 2499.4935 2843.6655 2450.6534 2876.0374 2396.2815 Z" fill="none" stroke="#FBC20F" opacity="0.6" stroke-width="1" class="flatiron"/>
<path d="M 2798.8012 2525.7635 2851.0644 2429.4578 2888.0702 2452.4917 2869.5772 2532.6704 2855.7018 2555.7123 2798.8012 2525.7635 Z" fill="none" stroke="#FBC20F" opacity="0.6" stroke-width="1" class="flatiron"/>
<path d="M 2814.9772 2251.6261 2942.6334 2359.4131 2889.9323 2542.8057 2725.253 2466.3218 2814.9772 2251.6261 Z" fill="none" stroke="#FBC20F" opacity="0.6" stroke-width="1" class="flatiron"/>
<path d="M 2865.8628 2404.3456 2999.5476 2466.5241 2947.0662 2562.6114 2819.1528 2490.7424 2865.8628 2404.3456 Z" fill="none" stroke="#FBC20F" opacity="0.6" stroke-width="1" class="flatiron"/>
<path d="M 2784.6564 2417.1115 2815.9445 2361.303 2922.5558 2421.268 2895.9435 2474.5344 2784.6564 2417.1115 Z" fill="none" stroke="#FBC20F" opacity="0.6" stroke-width="1" class="flatiron"/>
<path d="M 2877.8957 2464.9337 2894.5426 2428.5314 2913.9711 2440.9689 2895.4742 2475.99 2911.2027 2485.2033 2890.8545 2520.2262 2820.5401 2482.909 2839.5023 2446.0461 2877.8957 2464.9337 Z" fill="none" stroke="#FBC20F" opacity="0.6" stroke-width="1" class="flatiron"/>
<path d="M 2827.7092 2473.9234 2863.0886 2412.6393 2932.012 2450.8723 2898.0236 2513.7741 2827.7092 2473.9234 Z" fill="none" stroke="#FBC20F" opacity="0.6" stroke-width="1" class="flatiron"/>
<path d="M 2824.7032 2484.2911 2846.4405 2446.967 2898.712 2475.068 2875.1259 2512.8554 2824.7032 2484.2911 Z" fill="none" stroke="#FBC20F" opacity="0.6" stroke-width="1" class="flatiron"/>
<path d="M 2817.7657 2501.3405 2859.8516 2420.2419 2933.4014 2460.7785 2903.348 2546.4903 2817.7657 2501.3405 Z" fill="none" stroke="#FBC20F" opacity="0.6" stroke-width="1" class="flatiron"/>
<path d="M 2881.5965 2468.1586 2913.0533 2487.5069 2884.3805 2537.2767 2848.2967 2515.1621 2876.9705 2464.473 2881.5965 2468.1586 Z" fill="none" stroke="#FBC20F" opacity="0.6" stroke-width="1" class="flatiron"/>
<path d="M 2800.1889 2526.2242 2842.2775 2446.0458 2911.6652 2485.2032 2865.8797 2563.0843 2800.1889 2526.2242 Z" fill="none" stroke="#FBC20F" opacity="0.6" stroke-width="1" class="flatiron"/></svg>