<?xml version="1.0"?><svg xmlns="http://www.w3.org/2000/svg" version="1.2" baseProfile="tiny" width="6000" height="5918" viewBox="0 0 6000 5918" stroke-linecap="round" stroke-linejoin="round"><path d="M 4673.9806 1772.5652 4785.9243 1824.5398 4922.7851 1840.8136 5022.5866 1822.1615 5109.1389 2044.2029 5254.3919 2423.4165 5269.5546 2559.7694 5347.5839 2673.8495 5255.0527 2674.098 4640.8941 2800.8835 4495.2559 2108.1672 4673.9806 1772.5652 Z" fill="none" stroke="#A9159C" opacity="0.4672897196261682" stroke-width="1" class="flushing"/>
<path d="M 4637.2398 2824.8597 4582.5916 2800.9974 4549.2132 2767.8743 4520.3921 2696.0276 4464.7178 2610.4088 4426.5458 2475.9202 4368.9678 2346.0893 4512.2237 2282.2586 4505.6813 2245.4167 4524.9941 2186.4174 4508.2161 2115.513 4523.859 2073.57 4588.0161 2015.8772 4614.4956 1962.4028 4658.652 1965.3087 4729.3976 1971.151 4756.9207 1978.4619 4782.3569 1982.5527 4853.3374 1989.0762 4940.7356 1997.3989 4952.7757 2005.8912 4992.6512 2054.6176 5077.0656 2163.1165 5131.9574 2293.8077 5183.183 2431.8952 5082.429 2464.4014 4947.4742 2512.6446 4873.4516 2508.2048 4808.7091 2516.6414 4804.4256 2675.1784 4826.8403 2770.0747 4733.4453 2804.3827 4637.2398 2824.8597 Z" fill="none" stroke="#A9159C" opacity="0.4672897196261682" stroke-width="1" class="flushing"/>
<path d="M 4508.3284 2176.3144 4847.8688 2234.5892 4786.314 2427.299 4640.0308 2832.2293 4508.3284 2176.3144 Z" fill="none" stroke="#A9159C" opacity="0.4672897196261682" stroke-width="1" class="flushing"/>
<path d="M 4641.8744 2828.5381 4573.0884 2671.0408 4517.1851 2463.7762 4486.0637 2138.5841 4507.2301 2082.352 4588.4873 2020.4818 4643.7183 1895.1102 4987.6676 1901.7308 5026.7522 2779.7575 4890.8115 2822.4793 4641.8744 2828.5381 Z" fill="none" stroke="#A9159C" opacity="0.4672897196261682" stroke-width="1" class="flushing"/>
<path d="M 4731.1939 1970.7885 4759.198 1979.9437 4804.6688 1984.6267 4848.1748 1988.8451 4908.0548 1995.1493 4938.0656 1999.0819 4966.9831 2001.774 4962.4745 2051.0645 4954.4414 2170.286 4951.8032 2184.8343 4948.6105 2203.9584 4968.0335 2204.3739 4967.0634 2231.5803 4961.2254 2290.5547 5003.8478 2300.864 5002.1778 2391.6414 4999.0018 2469.4207 4994.1062 2590.4017 4999.5416 2653.495 5009.4343 2688.02 4935.3298 2718.8888 4872.8858 2749.492 4824.3459 2771.878 4757.9723 2794.9021 4714.3965 2813.4619 4698.7477 2779.6385 4731.1939 1970.7885 Z" fill="none" stroke="#A9159C" opacity="0.4672897196261682" stroke-width="1" class="flushing"/>
<path d="M 4479.6003 2144.1232 4276.5647 1828.5395 4368.8127 1710.5157 4468.5513 1658.7768 4624.1413 1813.184 4926.1814 2910.9049 4748.6317 2985.0555 4440.9475 2771.7599 4277.3731 2333.3405 4360.453 2233.696 4479.6003 2144.1232 Z" fill="none" stroke="#A9159C" opacity="0.4672897196261682" stroke-width="1" class="flushing"/>
<path d="M 4537.7428 2080.4528 4554.3635 2067.5251 5267.903 1936.949 5665.2569 2466.4775 4755.6947 2822.7737 4537.7428 2080.4528 Z" fill="none" stroke="#A9159C" opacity="0.4672897196261682" stroke-width="1" class="flushing"/>
<path d="M 4364.8682 2240.6648 4511.5079 2115.8367 5010.3777 2076.6899 5001.9034 2495.1868 4648.3687 2457.448 4438.4266 2489.1761 4364.8682 2240.6648 Z" fill="none" stroke="#A9159C" opacity="0.4672897196261682" stroke-width="1" class="flushing"/>
<path d="M 4977.6715 1778.8086 4979.8069 2097.9428 5288.7168 2113.7491 5362.6775 2106.1788 5001.2981 1801.3148 4988.8157 1996.596 4964.8779 2040.8656 4972.3443 2070.325 4646.7692 2034.1843 4643.0411 2019.4538 4668.7015 1905.1911 4311.7735 1876.3719 4298.8211 1870.8672 4291.3772 1841.4087 4317.1874 1795.3207 4326.3832 1765.8373 4322.6429 1740.0596 4348.492 1719.7582 4383.6247 1723.3819 4420.5547 1697.5351 4435.3704 1712.2419 4459.3875 1702.991 4475.9692 1671.6541 4501.8606 1677.1315 4533.3674 1719.4299 4524.1957 1758.1224 4513.1403 1778.4021 4553.8468 1794.9018 4611.0546 1739.5395 4669.9892 1627.0861 4983.0677 1714.7967 4977.6715 1778.8086 Z" fill="none" stroke="#A9159C" opacity="0.4672897196261682" stroke-width="1" class="flushing"/>
<path d="M 4695.2814 2066.4128 4749.1395 2173.1617 4754.9991 2320.5629 4646.0073 2398.1875 4553.4752 2383.6237 4531.0678 2273.0964 4527.0173 2085.1653 4695.2814 2066.4128 Z" fill="none" stroke="#A9159C" opacity="0.4672897196261682" stroke-width="1" class="flushing"/>
<path d="M 4507.2998 2120.1207 4509.1324 2110.9053 4651.2398 1957.7248 4751.2256 2018.3112 4819.1213 2199.6425 4535.4229 2322.7564 4501.1517 2297.021 4528.6917 2185.4893 4507.2998 2120.1207 Z" fill="none" stroke="#A9159C" opacity="0.4672897196261682" stroke-width="1" class="flushing"/>
<path d="M 4512.8809 2137.6136 4523.9903 2144.0416 4641.3199 2083.9373 4754.1064 2068.9677 4992.7621 2101.5971 4999.5515 2235.1637 5004.3005 2287.6694 4986.3025 2500.5734 4754.9936 2490.0302 4649.4679 2459.8353 4434.0217 2518.2995 4371.6738 2305.5427 4512.8809 2137.6136 Z" fill="none" stroke="#A9159C" opacity="0.4672897196261682" stroke-width="1" class="flushing"/>
<path d="M 4971.8016 1838.2211 5010.7988 2686.6931 4646.4595 2807.3255 4581.3905 2657.6597 4971.8016 1838.2211 Z" fill="none" stroke="#A9159C" opacity="0.4672897196261682" stroke-width="1" class="flushing"/>
<path d="M 4775.5009 2779.8647 4679.6839 2762.0879 4545.4673 2253.6345 4767.2713 2172.1157 4775.5009 2779.8647 Z" fill="none" stroke="#A9159C" opacity="0.4672897196261682" stroke-width="1" class="flushing"/>
<path d="M 4778.6206 2290.0204 4819.4902 2369.1741 4780.6986 2396.9017 4762.3109 2450.3881 4756.8653 2500.1636 4501.4312 2449.0607 4530.9066 2380.8153 4499.2189 2251.8779 4506.4889 2181.8454 4519.4023 2163.3962 4574.9086 2172.504 4659.9256 2139.1724 4698.9252 2216.4798 4730.4165 2238.5263 4778.6206 2290.0204 Z" fill="none" stroke="#A9159C" opacity="0.4672897196261682" stroke-width="1" class="flushing"/>
<path d="M 4198.2137 2589.6523 4131.1199 2259.853 4106.7869 2059.0558 4154.5654 1850.8295 5052.9962 1771.7224 5145.4575 1778.8607 5240.0349 1887.2878 5357.043 2074.874 5542.6167 2288.0819 5008.4949 2495.913 4758.7194 2502.0028 4573.9908 2659.0565 4394.5944 2723.9065 4198.2137 2589.6523 Z" fill="none" stroke="#A9159C" opacity="0.4672897196261682" stroke-width="1" class="flushing"/>
<path d="M 4996.7573 2226.8784 5011.7132 2682.0821 4620.6014 2835.0334 4360.4623 2239.2239 4369.7034 2234.6016 4494.429 2161.5998 4754.2228 2124.2388 4996.7573 2226.8784 Z" fill="none" stroke="#A9159C" opacity="0.4672897196261682" stroke-width="1" class="flushing"/>
<path d="M 4547.1884 2185.4545 4724.0756 1857.1868 4834.9604 1831.1637 4953.7901 2044.5759 5035.3848 2136.5016 5087.4447 2246.9289 5154.3728 2379.4436 5176.6581 2412.5602 5025.0548 2457.1681 4932.6463 2501.6197 4803.0786 2479.7904 4703.12 2457.8837 4606.809 2406.4717 4580.8721 2388.0923 4543.6418 2266.5368 4547.1884 2185.4545 Z" fill="none" stroke="#A9159C" opacity="0.4672897196261682" stroke-width="1" class="flushing"/>
<path d="M 4353.0756 2246.607 4688.5615 1952.5432 4890.767 2455.7309 4414.5209 2476.8628 4353.0756 2246.607 Z" fill="none" stroke="#A9159C" opacity="0.4672897196261682" stroke-width="1" class="flushing"/>
<path d="M 4641.0876 2195.0787 4840.5943 2076.7441 4771.9648 1982.9378 4759.2729 2102.7125 4776.2403 2253.7645 4698.5901 2274.1964 4641.0876 2195.0787 Z" fill="none" stroke="#A9159C" opacity="0.4672897196261682" stroke-width="1" class="flushing"/>
<path d="M 4345.1585 2213.4529 4515.6091 2112.7357 5078.0242 2176.933 5246.5288 2599.4615 4666.8471 2821.113 4345.1585 2213.4529 Z" fill="none" stroke="#A9159C" opacity="0.4672897196261682" stroke-width="1" class="flushing"/>
<path d="M 4669.1716 2138.2325 4744.9712 2122.4158 4996.5961 2158.7039 5038.7537 2383.4149 4762.1822 2389.5692 4599.9844 2226.8116 4574.8786 2156.8428 4669.1716 2138.2325 Z" fill="none" stroke="#A9159C" opacity="0.4672897196261682" stroke-width="1" class="flushing"/>
<path d="M 4637.7348 2451.8726 4563.6622 2094.531 4933.5216 2077.1726 4915.3846 2504.7317 4637.7348 2451.8726 Z" fill="none" stroke="#A9159C" opacity="0.4672897196261682" stroke-width="1" class="flushing"/>
<path d="M 4631.7053 2834.0896 4226.4771 1721.7967 5259.693 1629.3942 5767.3294 2563.848 5110.4431 2569.3944 4631.7053 2834.0896 Z" fill="none" stroke="#A9159C" opacity="0.4672897196261682" stroke-width="1" class="flushing"/>
<path d="M 4510.0963 2132.0914 4543.3485 2110.8415 4601.5707 2091.3849 4645.0079 2078.403 4698.6232 2069.083 4751.3167 2061.6043 4791.9961 2057.8332 4845.6556 2069.6915 4873.4054 2073.3146 4868.8701 2112.9358 4860.6229 2147.0393 4870.8182 2157.1503 4903.2594 2189.3216 4939.3939 2217.7992 4970.8543 2224.1754 4996.7616 2228.7211 5001.4296 2247.1366 5010.8123 2303.3174 5011.8753 2361.3643 5009.212 2408.3655 5005.7151 2494.0765 4984.4565 2502.4209 4936.3893 2520.0429 4849.4119 2514.7093 4776.307 2506.5735 4701.3133 2479.083 4616.1353 2445.1567 4545.8217 2441.6058 4520.853 2446.2602 4523.5922 2426.9033 4545.7296 2392.7666 4548.4073 2341.1603 4526.1303 2299.7389 4508.49 2263.8383 4517.6724 2227.8893 4524.1053 2205.7661 4529.5804 2166.141 4510.0963 2132.0914 Z" fill="none" stroke="#A9159C" opacity="0.4672897196261682" stroke-width="1" class="flushing"/>
<path d="M 4602.3915 2037.9562 4775.9503 1904.9687 4914.9991 2064.9303 4982.8041 2192.8232 4899.7705 2282.3833 4827.8717 2394.9568 4591.9975 2400.9715 4464.2916 2373.5659 4449.9757 2126.6733 4595.9276 2042.5744 4602.3915 2037.9562 Z" fill="none" stroke="#A9159C" opacity="0.4672897196261682" stroke-width="1" class="flushing"/>
<path d="M 4532.8567 2434.2581 4545.6567 2354.0656 4504.7785 2257.3957 4508.211 2112.7494 5083.0777 1975.1843 5218.2928 2415.2175 4960.4092 2505.2419 4767.0438 2501.0636 4644.8222 2449.7077 4532.8567 2434.2581 Z" fill="none" stroke="#A9159C" opacity="0.4672897196261682" stroke-width="1" class="flushing"/>
<path d="M 4554.0288 2378.9289 4537.7178 2067.096 4588.0383 2027.3911 4609.7206 2002.9396 4654.358 1898.7729 4735.2621 1901.3705 4732.8042 2052.8922 4972.3486 2072.1673 4979.5758 2393.6918 4554.0288 2378.9289 Z" fill="none" stroke="#A9159C" opacity="0.4672897196261682" stroke-width="1" class="flushing"/>
<path d="M 4512.2237 2282.2586 4491.6765 2173.5812 4508.2297 2122.8827 4539.5715 2069.3954 4597.7412 2024.1484 4641.9699 1945.7696 4656.673 1900.6103 4841.5879 1902.0635 4893.8611 1917.8345 4946.7516 1999.918 4986.6081 2040.8147 5021.8873 2099.6855 5074.7535 2163.1221 5105.914 2235.3666 5163.5762 2360.9911 5177.6467 2437.4384 5002.0364 2503.301 4757.7787 2494.6322 4640.2023 2452.4815 4525.4527 2432.4289 4547.5414 2372.4909 4512.2237 2282.2586 Z" fill="none" stroke="#A9159C" opacity="0.4672897196261682" stroke-width="1" class="flushing"/>
<path d="M 5016.1685 1834.4325 5022.2924 2075.7338 4889.219 2114.7326 4657.9762 2089.4312 4635.5379 1966.0456 4699.8911 1785.4048 5016.1685 1834.4325 Z" fill="none" stroke="#A9159C" opacity="0.4672897196261682" stroke-width="1" class="flushing"/>
<path d="M 4526.3126 1901.7835 4717.2247 1897.2635 4716.303 1898.6469 4526.3126 1901.7835 Z" fill="none" stroke="#A9159C" opacity="0.4672897196261682" stroke-width="1" class="flushing"/>
<path d="M 4539.7516 2165.2007 4698.7459 2128.9602 4744.0561 2127.0238 4841.1941 2143.3973 4864.3589 2163.6134 4915.318 2204.9561 4908.1158 2291.5781 4871.1244 2294.4255 4893.4621 2356.11 4876.021 2416.0447 4870.5652 2458.4467 4869.7387 2502.6835 4762.4122 2498.3087 4643.899 2450.6311 4528.2279 2432.4237 4551.245 2374.3268 4543.7563 2327.3478 4514.0753 2283.1765 4507.5294 2244.4919 4534.1993 2163.3686 4539.7516 2165.2007 Z" fill="none" stroke="#A9159C" opacity="0.4672897196261682" stroke-width="1" class="flushing"/>
<path d="M 5803.786 2679.866 5745.5433 2696.6434 5506.5823 2619.9413 4882.5237 2840.936 4670.5731 2833.0901 4569.5897 2777.054 4586.112 2706.9645 4562.0426 2701.4799 4563.8125 2659.0759 4536.0242 2643.4591 4526.7284 2620.4338 4509.1213 2605.7195 4504.4458 2578.9997 4500.6416 2522.7874 4517.2313 2488.6581 4497.7427 2455.5182 4515.1949 2388.2163 4524.4057 2367.0056 4505.88 2353.2183 4487.2742 2295.2037 4505.6796 2244.4953 4531.4541 2179.0352 4506.387 2126.5709 4482.3277 2118.3241 4432.4244 2137.7591 4368.5172 2080.7554 4350.7105 1939.8566 4251.6544 1860.812 4329.0526 1703.216 4683.816 1608.6436 4839.1659 1641.4613 5145.1509 1657.3127 5423.9225 1852.7117 5978.3417 2310.6557 5991.0177 2501.362 5803.786 2679.866 Z" fill="none" stroke="#A9159C" opacity="0.4672897196261682" stroke-width="1" class="flushing"/>
<path d="M 4646.6742 2450.6256 4532.855 2433.3365 4554.8909 2345.7552 4501.045 2238.9759 4510.0997 2133.9338 4528.4577 2060.2046 4602.3054 1993.7431 4637.4511 1998.2795 4655.9404 1996.4004 4652.3597 2055.3593 4665.4706 2137.3188 4697.0811 2219.2474 4774.9111 2285.4214 4870.1954 2292.5848 4868.715 2458.4509 4868.8197 2505.4503 4757.7807 2495.5538 4646.6742 2450.6256 Z" fill="none" stroke="#A9159C" opacity="0.4672897196261682" stroke-width="1" class="flushing"/>
<path d="M 4253.164 2232.0285 4746.8285 2126.0968 4763.5187 2584.017 4324.9838 2597.7464 4171.0116 2340.8762 4254.0801 2226.4992 4253.164 2232.0285 Z" fill="none" stroke="#A9159C" opacity="0.4672897196261682" stroke-width="1" class="flushing"/>
<path d="M 4518.0384 2425.0706 4542.4799 2386.3224 4547.065 2365.1202 4542.8617 2343.4743 4508.0496 2275.8168 4504.7555 2244.9577 4523.6111 2188.7232 4523.1067 2166.1531 4512.4227 2139.9175 4496.2102 2124.2866 4521.5609 2080.9437 4543.7032 2053.728 4585.259 2024.6331 4614.2924 1976.6797 4639.2611 1978.4726 4656.3418 1966.0041 4685.9258 1964.1022 4729.8585 1970.4592 4767.3253 1979.5912 4941.6618 1998.0875 4970.8464 2022.8897 5002.3934 2068.4119 4990.1822 2184.0537 4995.3863 2233.7916 5003.4236 2307.9419 5005.7906 2330.9715 4998.3228 2497.7803 4953.492 2514.4738 4871.6023 2508.6697 4820.7161 2507.3994 4759.6436 2501.5401 4645.2921 2453.3929 4531.9403 2438.8674 4513.4472 2443.5094 4518.0384 2425.0706 Z" fill="none" stroke="#A9159C" opacity="0.4672897196261682" stroke-width="1" class="flushing"/>
<path d="M 4508.2331 2124.7251 4818.8327 2066.9868 5068.0947 2656.1375 4645.5634 2822.0775 4508.2331 2124.7251 Z" fill="none" stroke="#A9159C" opacity="0.4672897196261682" stroke-width="1" class="flushing"/>
<path d="M 4628.3773 2085.8053 4685.6884 2074.6364 4776.2604 2050.4977 4900.2161 2070.4909 4952.0432 2088.7957 4967.0109 2162.4583 4961.6549 2245.3873 4961.8436 2326.4677 4973.1975 2435.1741 4966.0589 2547.6226 4955.1105 2614.0075 4851.474 2610.5554 4792.258 2610.6843 4723.8086 2620.0457 4677.5942 2644.1048 4683.0448 2594.3222 4679.1907 2518.756 4671.6183 2433.9881 4667.7397 2345.5345 4645.3565 2253.4409 4630.3906 2168.711 4604.406 2122.7002 4628.3773 2085.8053 Z" fill="none" stroke="#A9159C" opacity="0.4672897196261682" stroke-width="1" class="flushing"/>
<path d="M 4606.3184 2154.9395 4576.73 2157.7605 4635.8993 2148.4326 4746.8517 2137.1514 4863.4157 2155.3243 4891.525 2317.4146 4889.8575 2398.5053 4873.5359 2545.9904 4829.2116 2584.7974 4833.0053 2627.1865 4810.8149 2634.6085 4727.5671 2647.6891 4692.4551 2671.7265 4653.6179 2684.7095 4620.2267 2644.2192 4571.9533 2561.3617 4555.1634 2489.5086 4553.0723 2362.3445 4549.2121 2277.5826 4532.4359 2209.4357 4606.3184 2154.9395 Z" fill="none" stroke="#A9159C" opacity="0.4672897196261682" stroke-width="1" class="flushing"/>
<path d="M 5244.8968 2330.3738 5328.122 2321.8588 5294.0759 2388.2944 5222.8341 2382.9537 5250.4539 2333.1234 5244.8968 2330.3738 Z" fill="none" stroke="#A9159C" opacity="0.4672897196261682" stroke-width="1" class="flushing"/>
<path d="M 4428.4915 2005.1185 4401.6653 1998.7177 4389.6576 2006.1073 4571.8679 2033.4095 4752.1309 2009.0982 4867.7606 2030.0334 4991.8547 2108.9688 5070.7359 2222.0941 5084.8896 2336.309 5110.0769 2421.9429 5123.2695 2518.6731 5089.4128 2670.8331 5068.2116 2704.0685 4943.3734 2740.3147 4829.5641 2746.1012 4699.1512 2778.6414 4606.5936 2770.5297 4465.8604 2731.1552 4341.7704 2676.9857 4255.607 2607.9969 4145.3638 2513.2359 4088.7034 2352.0523 4053.409 2246.1421 4066.1746 2113.4621 4213.0762 2024.8168 4384.1033 2002.4324 4428.4915 2005.1185 Z" fill="none" stroke="#A9159C" opacity="0.4672897196261682" stroke-width="1" class="flushing"/>
<path d="M 4588.792 2657.1845 4514.8025 2675.7593 4355.8705 2258.5797 4512.8365 2113.6621 5001.0281 2077.6268 5103.0779 2584.1591 4768.1663 2594.1455 4588.792 2657.1845 Z" fill="none" stroke="#A9159C" opacity="0.4672897196261682" stroke-width="1" class="flushing"/>
<path d="M 4513.4352 2437.0588 4234.8424 1751.2506 4932.3933 1586.0084 5117.5693 2458.7852 4513.4352 2437.0588 Z" fill="none" stroke="#A9159C" opacity="0.4672897196261682" stroke-width="1" class="flushing"/>
<path d="M 4605.6469 2125.4686 4889.3182 1734.8582 5318.7939 1940.0842 5483.8136 2735.7354 4623.4964 2233.178 4605.6469 2125.4686 Z" fill="none" stroke="#A9159C" opacity="0.4672897196261682" stroke-width="1" class="flushing"/>
<path d="M 4891.5508 2302.6058 4959.3693 2280.7208 5043.1112 2266.3114 5098.6879 2299.3451 5161.6871 2339.7291 5191.5044 2424.428 5194.559 2482.6502 5220.6541 2556.3108 5250.3768 2600.4726 5324.5759 2666.6377 5272.8469 2699.9598 5219.2903 2725.0699 5152.7295 2751.0512 4738.3406 2840.5069 4522.6301 2468.5544 4503.6121 2188.4802 4403.4867 2048.6354 5010.9754 2054.6294 5115.1018 2279.163 4891.5508 2302.6058 Z" fill="none" stroke="#A9159C" opacity="0.4672897196261682" stroke-width="1" class="flushing"/>
<path d="M 4534.7138 2437.9406 4545.6358 2343.0084 4490.7416 2168.0553 4542.5313 2167.9592 4579.5186 2165.1251 4670.1057 2142.8368 4733.8951 2132.5724 4771.7955 2125.1228 4886.5689 2170.0126 4876.6741 2294.4131 4902.7372 2367.1464 4879.7522 2429.8589 4874.3726 2506.3595 4755.9459 2502.9303 4655.9362 2456.1363 4534.7138 2437.9406 Z" fill="none" stroke="#A9159C" opacity="0.4672897196261682" stroke-width="1" class="flushing"/>
<path d="M 4502.7014 2133.9475 4698.1591 1842.505 4791.1386 2089.1547 5073.1779 2464.4241 4581.418 2671.9466 4418.4989 2635.3767 4314.4811 2399.6247 4273.6614 2325.9751 4262.3046 2163.839 4502.7014 2133.9475 Z" fill="none" stroke="#A9159C" opacity="0.4672897196261682" stroke-width="1" class="flushing"/>
<path d="M 4478.647 2128.4641 4354.0166 1706.8575 4512.9867 1695.5268 4720.141 1743.0031 4975.3615 1779.2744 5082.8312 1874.7932 5179.5759 2106.6649 5268.7824 2268.5777 5146.9261 2361.0333 5012.1165 2462.7282 5010.687 2639.6847 4951.6314 2709.8762 4803.739 2785.7963 4664.8775 2762.1178 4625.8873 2699.5128 4568.2947 2583.4882 4538.563 2517.1873 4543.8813 2393.6915 4523.3177 2279.4739 4484.293 2181.8861 4491.6276 2146.865 4238.0497 2029.3838 4478.647 2128.4641 Z" fill="none" stroke="#A9159C" opacity="0.4672897196261682" stroke-width="1" class="flushing"/>
<path d="M 4885.0834 1920.387 4985.877 1926.6024 4993.6275 2468.3013 4417.2044 2424.3309 4354.9208 2243.8399 4504.4899 2100.7807 4433.8473 1896.4256 4429.2343 1901.9597 4428.2968 1894.5934 4885.0834 1920.387 Z" fill="none" stroke="#A9159C" opacity="0.4672897196261682" stroke-width="1" class="flushing"/>
<path d="M 4324.4085 2249.4188 4504.5086 2110.9138 4999.0217 2011.3095 5001.12 2506.9895 4357.2335 2518.432 4324.4085 2249.4188 Z" fill="none" stroke="#A9159C" opacity="0.4672897196261682" stroke-width="1" class="flushing"/>
<path d="M 4514.4743 1999.4365 4872.1887 1942.5206 4806.291 2254.028 4504.5612 2139.4714 4514.4743 1999.4365 Z" fill="none" stroke="#A9159C" opacity="0.4672897196261682" stroke-width="1" class="flushing"/>
<path d="M 5016.1685 1834.4325 5202.3884 2346.1487 4440.9017 2745.9488 4406.2549 1979.367 4557.5796 1813.3128 5016.1685 1834.4325 Z" fill="none" stroke="#A9159C" opacity="0.4672897196261682" stroke-width="1" class="flushing"/>
<path d="M 5229.8576 2593.0534 5241.9074 2601.317 4735.2885 2800.6913 4551.4517 1994.7618 4988.019 2050.9439 5229.8576 2593.0534 Z" fill="none" stroke="#A9159C" opacity="0.4672897196261682" stroke-width="1" class="flushing"/>
<path d="M 4612.5486 2030.5674 4725.3368 2019.2864 4725.4994 2097.584 4653.3175 2071.9382 4612.5486 2030.5674 Z" fill="none" stroke="#A9159C" opacity="0.4672897196261682" stroke-width="1" class="flushing"/>
<path d="M 4524.2615 2289.6072 4491.5299 2093.435 4600.4311 1980.8516 4892.4488 1906.5553 4692.4473 2214.6504 4524.2615 2289.6072 Z" fill="none" stroke="#A9159C" opacity="0.4672897196261682" stroke-width="1" class="flushing"/>
<path d="M 4859.7287 2160.86 4718.1681 2129.8414 4495.3471 2157.9131 4671.239 1788.2257 4899.6828 1834.7032 4859.7287 2160.86 Z" fill="none" stroke="#A9159C" opacity="0.4672897196261682" stroke-width="1" class="flushing"/>
<path d="M 3988.6441 2023.4506 5017.8474 1806.5686 5491.8578 2550.1474 5505.5176 2552.7364 4604.2135 2837.0678 3988.6441 2023.4506 Z" fill="none" stroke="#A9159C" opacity="0.4672897196261682" stroke-width="1" class="flushing"/>
<path d="M 4082.8525 2136.4693 5147.2234 2112.2744 5233.6694 2635.4413 4139.9833 2630.2929 4082.8525 2136.4693 Z" fill="none" stroke="#A9159C" opacity="0.4672897196261682" stroke-width="1" class="flushing"/>
<path d="M 4647.5653 1969.7059 4657.725 1964.1592 4891.574 1928.6616 5010.2688 2074.8413 5018.1767 2288.5578 4977.6156 2346.7021 4890.6664 2346.9019 4859.5662 2504.5493 4756.8555 2495.5557 4658.7042 2452.4446 4538.4176 2439.7767 4554.9451 2374.3198 4519.5444 2239.863 4519.3013 2109.0441 4567.2357 2028.8127 4618.9092 1973.4469 4647.5653 1969.7059 Z" fill="none" stroke="#A9159C" opacity="0.4672897196261682" stroke-width="1" class="flushing"/>
<path d="M 4766.8258 1962.092 4872.9764 2295.3427 4636.2681 2334.5403 4766.8258 1962.092 Z" fill="none" stroke="#A9159C" opacity="0.4672897196261682" stroke-width="1" class="flushing"/>
<path d="M 4251.8045 2543.4873 4937.7556 2169.8962 4524.1483 3067.577 4251.8045 2543.4873 Z" fill="none" stroke="#A9159C" opacity="0.4672897196261682" stroke-width="1" class="flushing"/>
<path d="M 4994.9206 2232.4107 4994.5983 2487.6518 4761.4988 2503.8401 4511.5715 2429.6901 4424.6924 2474.0803 4359.5219 2230.0123 4580.4204 2153.1471 4774.5816 2130.6442 4915.3117 2202.1922 4994.9206 2232.4107 Z" fill="none" stroke="#A9159C" opacity="0.4672897196261682" stroke-width="1" class="flushing"/>
<path d="M 4494.5789 2168.6987 4514.4945 2165.9922 4558.672 2053.5228 4614.0352 1992.6222 4745.3114 1981.3029 4920.9454 1960.6546 5084.5318 1909.1845 5090.9386 2032.8149 5122.3611 2082.3245 5162.7047 2221.8024 5235.8285 2428.7401 5097.1542 2464.1109 4958.5039 2514.2079 4762.8916 2506.2591 4670.3248 2480.6463 4659.4525 2594.9486 4548.4766 2622.8152 4536.8564 2547.4765 4516.4293 2438.2862 4554.5397 2353.6968 4522.9834 2296.6286 4494.5789 2168.6987 Z" fill="none" stroke="#A9159C" opacity="0.4672897196261682" stroke-width="1" class="flushing"/>
<path d="M 4367.8567 2236.4474 4471.3254 2170.8544 4744.9712 2122.4158 4853.2571 2161.7956 4990.294 2231.5003 4999.2043 2479.3468 5004.7678 2679.7942 4726.9768 2809.0055 4600.1802 2803.7291 4354.0564 2279.7739 4367.8567 2236.4474 Z" fill="none" stroke="#A9159C" opacity="0.4672897196261682" stroke-width="1" class="flushing"/>
<path d="M 4466.1186 1847.5565 4324.6758 1851.4847 4465.8746 1712.1874 4466.1186 1847.5565 Z" fill="none" stroke="#A9159C" opacity="0.4672897196261682" stroke-width="1" class="flushing"/>
<path d="M 4326.3619 2312.0684 4645.3968 2273.7105 4763.3588 2508.4441 4355.29 2463.1411 4326.3619 2312.0684 Z" fill="none" stroke="#A9159C" opacity="0.4672897196261682" stroke-width="1" class="flushing"/>
<path d="M 4581.7623 2170.9634 4563.4153 2112.4911 4633.0519 2072.7421 4813.0142 2060.1276 4975.2194 2069.2138 4722.2421 2605.783 4581.7623 2170.9634 Z" fill="none" stroke="#A9159C" opacity="0.4672897196261682" stroke-width="1" class="flushing"/>
<path d="M 4738.3624 2500.2024 4516.2224 2443.5042 4527.3304 2447.1697 4564.19 2371.5379 4527.0587 2301.5799 4514.0002 2242.6373 4532.3566 2167.0571 4573.0308 2157.7676 4602.6425 2166.9229 4676.5755 2140.9813 4689.6089 2183.3324 4711.8998 2229.3514 4780.4469 2278.9601 4806.528 2363.6735 4791.8189 2406.0927 4738.3624 2500.2024 Z" fill="none" stroke="#A9159C" opacity="0.4672897196261682" stroke-width="1" class="flushing"/>
<path d="M 4549.05 2067.2197 4648.5267 1988.1255 4666.986 1971.5091 4679.9382 1975.1672 4776.0877 1969.4408 4874.0276 1937.9113 4915.6887 1961.7645 4956.1688 2006.4876 5011.8149 2076.3631 5002.1275 2151.3208 5013.4269 2236.0521 5087.9796 2464.3878 5003.8758 2498.6887 4791.6497 2501.3871 4449.9764 2482.6539 4355.1885 2230.3439 4501.6305 2169.8825 4549.05 2067.2197 Z" fill="none" stroke="#A9159C" opacity="0.4672897196261682" stroke-width="1" class="flushing"/>
<path d="M 4532.329 2152.3172 5086.987 2060.8383 5232.1614 2412.4168 4622.0084 2609.191 4532.329 2152.3172 Z" fill="none" stroke="#A9159C" opacity="0.4672897196261682" stroke-width="1" class="flushing"/>
<path d="M 4314.1908 2222.7172 4343.1336 1832.1142 4710.2667 1717.0854 5050.5255 1753.1562 5295.083 1944.09 5495.7337 2267.7937 5377.9362 2481.9062 5060.1663 2677.2978 4682.8173 2766.6316 4482.8632 2730.1436 4314.1908 2222.7172 Z" fill="none" stroke="#A9159C" opacity="0.4672897196261682" stroke-width="1" class="flushing"/>
<path d="M 4437.6035 1916.6017 4474.2067 1923.4162 4507.9166 1918.2981 4537.496 1914.559 4608.8323 1920.7138 4911.7126 2179.4501 5195.0534 2216.3574 5124.8658 2241.6863 5047.1193 2615.3171 4371.5985 2487.4794 4437.6035 1916.6017 Z" fill="none" stroke="#A9159C" opacity="0.4672897196261682" stroke-width="1" class="flushing"/>
<path d="M 4997.4151 2505.1551 4666.4556 2626.6147 4562.889 2659.9994 4556.1763 2048.1775 4751.3846 2093.8452 4994.9271 2235.1746 4997.4151 2505.1551 Z" fill="none" stroke="#A9159C" opacity="0.4672897196261682" stroke-width="1" class="flushing"/>
<path d="M 4032.5455 1862.0527 4606.6221 2310.642 4602.9294 2314.3348 4582.9351 2498.6712 4588.5144 2513.4058 4032.5455 1862.0527 Z" fill="none" stroke="#A9159C" opacity="0.4672897196261682" stroke-width="1" class="flushing"/>
<path d="M 4656.6897 1908.8993 4654.8507 1913.9685 4662.4404 1895.0727 4661.747 1895.0741 4711.0261 1805.6416 4709.1886 1811.1708 4881.2302 1851.3218 4880.3036 1850.4029 4984.0517 1936.738 4985.9052 1938.5757 4983.5968 2136.6247 4972.5253 2147.7055 4632.069 2082.1133 4582.0164 2021.4154 4656.6897 1908.8993 Z" fill="none" stroke="#A9159C" opacity="0.4672897196261682" stroke-width="1" class="flushing"/>
<path d="M 4393.2895 1967.4156 5057.2128 1985.3793 4977.5281 2704.2853 4410.3452 2204.1286 4379.4406 1979.4133 4393.2895 1967.4156 Z" fill="none" stroke="#A9159C" opacity="0.4672897196261682" stroke-width="1" class="flushing"/>
<path d="M 4661.2833 2815.5928 4357.8193 2865.9362 4095.7008 2066.4408 5130.7358 1806.5246 5500.8012 2540.6952 5334.3588 2574.3417 4661.2833 2815.5928 Z" fill="none" stroke="#A9159C" opacity="0.4672897196261682" stroke-width="1" class="flushing"/>
<path d="M 4342.3801 2211.1543 4339.14 2209.3171 4917.8437 1893.1432 5005.0145 2003.9265 5235.8701 2415.6324 4968.7377 2506.144 4431.2194 2503.0982 4342.3801 2211.1543 Z" fill="none" stroke="#A9159C" opacity="0.4672897196261682" stroke-width="1" class="flushing"/>
<path d="M 4536.0299 2153.2315 4426.6633 2017.0961 4955.4279 1953.3837 5004.3398 2304.2542 4573.3431 2320.8418 4536.0299 2153.2315 Z" fill="none" stroke="#A9159C" opacity="0.4672897196261682" stroke-width="1" class="flushing"/>
<path d="M 4426.4525 1897.3596 5032.9885 1908.991 5084.0054 2352.8969 4444.8384 2357.936 4426.4525 1897.3596 Z" fill="none" stroke="#A9159C" opacity="0.4672897196261682" stroke-width="1" class="flushing"/>
<path d="M 4580.2506 2657.1948 4511.3277 2108.3628 4880.7681 2173.9124 4866.6372 2604.09 4580.2506 2657.1948 Z" fill="none" stroke="#A9159C" opacity="0.4672897196261682" stroke-width="1" class="flushing"/>
<path d="M 4367.9052 2265.0088 4347.5325 2250.3016 4256.1096 1754.9006 4653.3262 1614.2295 5021.5568 1768.1146 5165.0374 2208.0395 5240.0449 2596.7135 5021.4268 2681.1372 4605.7796 2827.6872 4444.2689 2557.9108 4373.5802 2338.71 4367.9772 2307.3917 4367.9052 2265.0088 Z" fill="none" stroke="#A9159C" opacity="0.4672897196261682" stroke-width="1" class="flushing"/>
<path d="M 4418.8786 2323.8892 4367.9349 2282.5146 4429.7979 2221.5992 4515.5903 2102.6026 4638.5092 2065.5196 4803.9875 2043.9902 5076.6031 1974.2791 5008.4062 2069.3188 5230.8238 2608.7195 4643.6887 2810.0967 4373.5222 2304.6181 4418.8786 2323.8892 Z" fill="none" stroke="#A9159C" opacity="0.4672897196261682" stroke-width="1" class="flushing"/>
<path d="M 4745.0928 2400.8933 4770.4305 2407.751 4772.6572 2421.6839 4740.497 2414.9556 4745.0928 2400.8933 Z" fill="none" stroke="#A9159C" opacity="0.4672897196261682" stroke-width="1" class="flushing"/>
<path d="M 4543.5029 2192.8317 5098.4433 2206.3638 5143.3189 2397.9009 4595.7798 2443.3534 4543.5029 2192.8317 Z" fill="none" stroke="#A9159C" opacity="0.4672897196261682" stroke-width="1" class="flushing"/>
<path d="M 4353.0323 2220.8101 4513.751 2108.1332 4630.2268 2085.8017 4748.5155 2048.7141 4874.3075 2063.1798 4870.8306 2162.6778 4806.1894 2207.0409 4884.0839 2299.0034 4865.626 2317.4726 4880.6566 2420.6418 4869.7613 2512.8209 4870.1515 2687.9388 4851.8039 2759.8797 4768.5769 2787.7152 4692.7787 2830.2794 4640.9453 2826.6961 4629.6833 2747.4387 4561.0647 2673.829 4542.4197 2600.1273 4508.9 2485.9088 4538.2722 2362.3724 4484.4339 2259.2757 4366.1273 2307.3949 4353.0323 2220.8101 Z" fill="none" stroke="#A9159C" opacity="0.4672897196261682" stroke-width="1" class="flushing"/>
<path d="M 4478.647 2128.4641 4421.2688 2104.6151 4413.6423 1973.8277 4396.8653 1896.4902 4300.6072 1832.1844 4363.3257 1745.5166 4424.2326 1686.4791 4496.3112 1675.3002 4526.1236 1800.4793 4598.1632 1765.3485 4646.0715 1684.2213 4662.6727 1665.7725 4706.9455 1619.645 4799.4845 1671.0121 4977.0334 1703.7611 4992.0274 1790.2859 4969.9311 1829.0161 4994.3636 1996.5829 5002.289 2219.4948 5002.8917 2473.8087 4984.4717 2508.872 4692.0602 2478.1804 4556.9367 2448.957 4512.5392 2452.7264 4425.645 2489.7452 4285.1318 2556.337 4218.5517 2578.5613 4192.4729 2464.3228 4121.855 2248.8102 4247.6234 2237.5652 4295.6516 2196.9512 4393.7264 2220.7408 4478.647 2128.4641 Z" fill="none" stroke="#A9159C" opacity="0.4672897196261682" stroke-width="1" class="flushing"/>
<path d="M 4625.3671 1966.0657 4656.8373 1982.5824 4977.3701 1847.4175 5031.3749 2777.9028 4637.2179 2813.7971 4512.1792 2133.2391 4519.2786 2096.8383 4625.3671 1966.0657 Z" fill="none" stroke="#A9159C" opacity="0.4672897196261682" stroke-width="1" class="flushing"/>
<path d="M 4710.8953 2808.1169 4536.0403 2158.7589 4584.0663 2125.5032 4585.9741 2155.6699 4591.077 2164.1816 4643.5969 2298.8215 4657.7522 2323.6709 4653.2651 2392.5577 4672.6681 2495.7295 4670.9498 2561.1671 4729.5691 2720.5039 4758.4103 2793.9593 4781.958 2824.3313 4730.7146 2826.2831 4710.8953 2808.1169 Z" fill="none" stroke="#A9159C" opacity="0.4672897196261682" stroke-width="1" class="flushing"/>
<path d="M 4597.8628 2086.7862 4584.9112 2084.0478 4978.2989 1849.2572 5145.3014 2450.4219 4597.8628 2086.7862 Z" fill="none" stroke="#A9159C" opacity="0.4672897196261682" stroke-width="1" class="flushing"/>
<path d="M 4523.0243 2121.934 4612.5739 2043.4631 4801.2055 2040.3117 4835.8049 2216.1895 4781.5469 2360.9628 4562.2575 2328.2342 4516.5663 2130.237 4523.0243 2121.934 Z" fill="none" stroke="#A9159C" opacity="0.4672897196261682" stroke-width="1" class="flushing"/>
<path d="M 4708.1017 2181.452 4544.4972 2229.6818 4532.1772 2071.2516 4733.6972 2037.6915 4776.3605 2097.477 4757.9842 2153.7102 4708.1017 2181.452 Z" fill="none" stroke="#A9159C" opacity="0.4672897196261682" stroke-width="1" class="flushing"/>
<path d="M 5274.8294 1760.108 5767.5287 2626.5214 4653.9239 2837.7331 4136.0833 1856.3822 4667.9772 1546.0691 5274.8294 1760.108 Z" fill="none" stroke="#A9159C" opacity="0.4672897196261682" stroke-width="1" class="flushing"/>
<path d="M 4560.496 2374.77 4561.8871 2376.6103 4556.7907 2372.0127 4507.7461 2111.3685 4625.1396 1967.9082 4686.3905 1965.2526 4986.3339 1924.2988 4991.7718 2466.0018 4560.496 2374.77 Z" fill="none" stroke="#A9159C" opacity="0.4672897196261682" stroke-width="1" class="flushing"/>
<path d="M 4522.8905 2050.0824 4719.8422 2045.0894 4697.9909 2211.8752 4496.4425 2250.9617 4521.0497 2054.6915 4522.8905 2050.0824 Z" fill="none" stroke="#A9159C" opacity="0.4672897196261682" stroke-width="1" class="flushing"/>
<path d="M 4499.0158 2141.3241 4694.9018 2058.0367 5068.7265 2156.6881 5027.4127 2669.1402 4499.0158 2141.3241 Z" fill="none" stroke="#A9159C" opacity="0.4672897196261682" stroke-width="1" class="flushing"/>
<path d="M 4537.7653 2092.4281 4566.4323 2092.3738 4561.7455 2059.2207 4576.5232 2049.981 4641.1515 1999.1932 4695.6117 1953.0298 4752.1503 2018.3093 4768.7044 1975.904 4782.7097 2039.4303 4663.5432 2098.6318 4669.127 2116.1234 4670.7793 2132.9322 4679.8003 2135.1019 4537.7653 2092.4281 Z" fill="none" stroke="#A9159C" opacity="0.4672897196261682" stroke-width="1" class="flushing"/>
<path d="M 4484.4104 2246.377 4654.9475 1962.3226 4996.2455 2010.3949 4998.7727 2296.8963 4528.9705 2334.7469 4484.4104 2246.377 Z" fill="none" stroke="#A9159C" opacity="0.4672897196261682" stroke-width="1" class="flushing"/>
<path d="M 4481.5185 2181.8911 4639.24 1967.8803 4854.395 1840.3302 5100.3317 2222.0213 5271.6839 2664.8365 4641.8726 2827.6162 4481.5185 2181.8911 Z" fill="none" stroke="#A9159C" opacity="0.4672897196261682" stroke-width="1" class="flushing"/>
<path d="M 5161.3427 2209.8915 5168.6102 2158.2816 5109.2212 2077.3643 4990.7432 2029.7514 4779.7586 1956.5381 4561.5369 1949.6103 4487.9385 2152.3992 5142.9105 2235.7348 5236.0545 2486.1293 5158.8764 2696.4689 5003.6736 2803.781 4744.597 2826.4846 4552.1359 2845.3064 4418.5699 2675.9327 4292.4052 2477.0682 4306.9122 2296.4368 4395.6048 2237.3212 5161.3427 2209.8915 Z" fill="none" stroke="#A9159C" opacity="0.4672897196261682" stroke-width="1" class="flushing"/>
<path d="M 4508.2212 2118.2766 4510.0622 2113.6672 4661.4272 1965.9939 4874.256 2040.1513 4857.8771 2159.9428 4872.5223 2506.3637 4538.4072 2434.2476 4508.2212 2118.2766 Z" fill="none" stroke="#A9159C" opacity="0.4672897196261682" stroke-width="1" class="flushing"/>
<path d="M 4507.2828 2110.9087 4996.4001 2075.7954 4997.3824 2491.3315 4433.9647 2486.0442 4354.0734 2289.909 4376.1775 2234.5906 4507.2828 2110.9087 Z" fill="none" stroke="#A9159C" opacity="0.4672897196261682" stroke-width="1" class="flushing"/>
<path d="M 4518.457 2152.343 4505.4265 2107.2273 4744.8321 2056.091 4997.3379 2081.3202 4985.3947 2507.9482 4529.165 2438.8725 4518.457 2152.343 Z" fill="none" stroke="#A9159C" opacity="0.4672897196261682" stroke-width="1" class="flushing"/>
<path d="M 4358.5955 2229.0925 4498.1384 2167.1205 4640.5123 2142.8961 4732.9588 2127.047 4776.4331 2131.5615 4815.2919 2139.769 4902.3325 2188.4024 4997.6952 2232.4041 5001.0742 2487.6365 4989.3383 2611.1624 4860.7142 2605.0048 4761.6994 2598.7675 4663.6816 2627.542 4565.6332 2643.4031 4484.1967 2637.1028 4454.5598 2621.4873 4358.5955 2229.0925 Z" fill="none" stroke="#A9159C" opacity="0.4672897196261682" stroke-width="1" class="flushing"/>
<path d="M 5124.4916 2637.5638 4748.2214 2789.6019 4659.6348 2455.2073 5067.6543 2475.4962 5124.4916 2637.5638 Z" fill="none" stroke="#A9159C" opacity="0.4672897196261682" stroke-width="1" class="flushing"/>
<path d="M 4599.2816 2817.559 4551.064 2767.8708 4512.03 2677.6079 4484.1816 2628.8075 4438.7112 2554.2341 4432.1226 2490.6553 4372.66 2341.4759 4512.2305 2285.9441 4501.9699 2238.9742 4501.8834 2191.9879 4490.7011 2145.9455 4505.4316 2109.9909 4532.1565 2060.1977 4578.3266 2026.0281 4614.2699 1965.1664 4658.6533 1965.9995 4732.6343 1971.3745 4863.8448 1932.4078 4892.4654 1913.9233 4950.9243 2004.9744 5004.7183 2073.9334 5046.4845 2137.3961 5074.2934 2164.0445 5131.0463 2299.3382 5173.9299 2430.9973 4963.1997 2511.6865 4809.6223 2511.1099 4801.6675 2683.4801 4825.9129 2769.1549 4748.2408 2798.8205 4639.0944 2826.6998 4599.2816 2817.559 Z" fill="none" stroke="#A9159C" opacity="0.4672897196261682" stroke-width="1" class="flushing"/>
<path d="M 4500.801 2106.3147 4626.2536 1946.7218 4941.5588 1953.4157 4956.2103 2290.5464 4469.702 2296.1569 4500.801 2106.3147 Z" fill="none" stroke="#A9159C" opacity="0.4672897196261682" stroke-width="1" class="flushing"/>
<path d="M 4522.669 2303.6613 4521.2812 2303.4335 4504.0487 2112.2965 4550.1823 2056.9398 4610.6182 1989.1214 4762.2773 1997.3328 4999.9458 2011.077 5001.485 2075.3228 5002.503 2309.7869 4996.9307 2495.9404 4988.1766 2510.7064 4757.7923 2501.0832 4676.7729 2466.9224 4633.7261 2452.2639 4524.3114 2440.4943 4523.367 2430.129 4548.0022 2371.5686 4522.669 2303.6613 Z" fill="none" stroke="#A9159C" opacity="0.4672897196261682" stroke-width="1" class="flushing"/>
<path d="M 4604.8567 1879.53 4611.5266 1980.8299 4983.3565 2034.3744 4989.8272 2033.438 5006.1722 2296.8788 5005.232 2290.4313 4872.1091 2735.8673 4861.9566 2747.8735 4647.4088 2819.3081 4604.8567 1879.53 Z" fill="none" stroke="#A9159C" opacity="0.4672897196261682" stroke-width="1" class="flushing"/>
<path d="M 4358.6343 2252.1257 5038.791 2014.899 5165.9416 2563.725 4570.4904 2764.1465 4358.6343 2252.1257 Z" fill="none" stroke="#A9159C" opacity="0.4672897196261682" stroke-width="1" class="flushing"/>
<path d="M 4529.9188 2099.8123 4586.6451 2024.1699 4878.0228 2070.5408 4861.8331 2275.5581 4776.5762 2415.801 4503.8273 2243.1168 4529.9188 2099.8123 Z" fill="none" stroke="#A9159C" opacity="0.4672897196261682" stroke-width="1" class="flushing"/>
<path d="M 4507.3321 2137.6239 4526.2516 2116.8614 4556.2392 2081.3391 4572.3779 2058.2793 4499.1825 2232.0694 4562.5288 2227.805 4586.5071 2192.2891 4584.108 2147.152 4579.8995 2122.7476 4638.5622 2092.2334 4646.9813 2140.5801 4643.3646 2182.0436 4627.2246 2204.647 4507.3321 2137.6239 Z" fill="none" stroke="#A9159C" opacity="0.4672897196261682" stroke-width="1" class="flushing"/>
<path d="M 4490.6702 2635.2476 4459.1498 2601.202 4443.3519 2562.5206 4431.2381 2513.6964 4411.7697 2490.691 4383.07 2478.7603 4337.5412 2359.9637 4369.896 2347.9306 4512.2271 2284.1013 4501.9749 2241.7382 4521.3205 2200.2435 4522.1853 2167.9973 4517.5133 2142.2112 4496.2043 2121.0624 4508.1761 2093.865 4546.4687 2049.117 4595.8552 2005.2693 4614.2654 1962.8638 4660.0403 1965.9967 4684.538 1963.6445 4728.4745 1971.8437 4768.7161 1981.4304 4938.4266 1998.5555 4968.0605 2017.83 5003.7979 2075.7779 5040.9158 2129.1185 5072.4032 2147.4667 5094.7575 2211.9007 5185.9653 2434.6526 4999.2305 2490.4056 4965.973 2510.7584 4806.8348 2505.5864 4803.4605 2656.7457 4803.552 2699.1461 4838.9859 2822.5945 4640.938 2823.0085 4602.9781 2814.7862 4567.7547 2785.3542 4537.1466 2748.5386 4514.811 2680.368 4490.6702 2635.2476 Z" fill="none" stroke="#A9159C" opacity="0.4672897196261682" stroke-width="1" class="flushing"/>
<path d="M 5002.5248 2319.0009 4998.7334 2280.3116 4994.5461 2465.5345 5000.1665 2495.0112 4863.2729 2507.3058 4650.3581 2442.3245 4546.7329 2434.232 4561.2344 2276.6384 4536.9754 2164.2847 4802.321 2128.7423 4996.779 2236.0916 4998.7116 2271.098 5003.3624 2282.1434 5002.5248 2319.0009 Z" fill="none" stroke="#A9159C" opacity="0.4672897196261682" stroke-width="1" class="flushing"/>
<path d="M 4948.3884 2007.9738 5096.6254 2219.2666 5180.4019 2422.3628 5245.1708 2603.8099 4640.3614 2810.3928 4374.1682 2526.3236 4259.8772 2204.2112 4948.3884 2007.9738 Z" fill="none" stroke="#A9159C" opacity="0.4672897196261682" stroke-width="1" class="flushing"/>
<path d="M 4542.5275 2183.1795 4665.0556 2146.6305 4758.6274 2443.5268 4635.6374 2392.5006 4565.906 2374.7307 4567.9895 2297.1809 4552.8333 2236.1153 4548.1689 2214.9339 4543.6373 2186.8933 4543.3717 2184.5404 4540.6834 2168.884 4542.5275 2183.1795 Z" fill="none" stroke="#A9159C" opacity="0.4672897196261682" stroke-width="1" class="flushing"/>
<path d="M 4537.9037 2166.1254 4740.359 2127.9528 4994.9249 2234.2533 4993.6971 2497.7912 4690.2212 2483.7135 4519.9296 2447.1835 4537.9037 2166.1254 Z" fill="none" stroke="#A9159C" opacity="0.4672897196261682" stroke-width="1" class="flushing"/>
<path d="M 4734.6585 2055.1912 4750.3784 2055.1582 4868.7695 2067.798 4860.6495 2159.0154 4912.5434 2204.9624 4816.3208 2187.672 4803.5799 2283.5172 4874.8221 2293.4959 5000.6465 2307.0271 4992.748 2487.6562 4941.9041 2504.3631 4762.4064 2495.544 4765.9897 2440.2435 4589.1601 2368.7256 4555.8596 2368.7894 4516.8449 2280.4073 4511.2204 2239.8785 4534.2234 2176.2662 4509.1494 2120.1173 4734.6585 2055.1912 Z" fill="none" stroke="#A9159C" opacity="0.4672897196261682" stroke-width="1" class="flushing"/>
<path d="M 4711.2351 2131.2376 4720.0945 2166.9173 4735.2059 2206.7311 4755.9145 2268.6468 4777.2253 2286.3379 4797.2254 2339.2755 4816.2361 2361.5792 4767.9881 2401.0754 4774.0136 2407.0522 4767.616 2443.6958 4758.4911 2503.3857 4646.9179 2456.8454 4532.6371 2440.4787 4534.2223 2422.5063 4548.2548 2382.856 4534.734 2325.2916 4510.3713 2280.88 4503.6024 2246.5722 4537.9007 2164.5132 4509.1366 2113.2083 4632.752 2076.8152 4699.3073 2064.4758 4711.2351 2131.2376 Z" fill="none" stroke="#A9159C" opacity="0.4672897196261682" stroke-width="1" class="flushing"/>
<path d="M 4494.8341 2170.6569 4831.1719 2107.4144 4865.4631 2556.9906 4532.351 2450.6916 4494.8341 2170.6569 Z" fill="none" stroke="#A9159C" opacity="0.4672897196261682" stroke-width="1" class="flushing"/>
<path d="M 4508.1855 2098.9315 4557.0905 2042.649 4627.2163 1966.062 4646.5378 1918.1297 4727.0023 1930.8601 4731.8517 2039.5376 4681.9746 2067.2746 4662.6684 2123.5061 4680.3569 2181.5087 4697.083 2220.1688 4773.0553 2282.6613 4766.1245 2503.8303 4506.9954 2456.4227 4491.6512 2159.7624 4508.1855 2098.9315 Z" fill="none" stroke="#A9159C" opacity="0.4672897196261682" stroke-width="1" class="flushing"/>
<path d="M 5036.4363 1804.9145 5397.5559 2675.555 4716.9855 2900.2966 4166.7504 2586.0128 4353.0168 2211.5971 5036.4363 1804.9145 Z" fill="none" stroke="#A9159C" opacity="0.4672897196261682" stroke-width="1" class="flushing"/>
<path d="M 4507.2828 2110.9087 4549.7034 2048.1898 4593.0982 2014.0251 4624.4461 1967.9096 4725.2335 1969.5478 4893.3962 1916.6843 4947.2214 2003.1407 4969.4432 2015.9846 5050.1992 2143.8357 5077.0611 2161.274 5097.5821 2232.1626 5156.1762 2361.0099 5183.1877 2433.7382 4996.4638 2494.0984 4756.8691 2502.0067 4756.2452 2644.8639 4807.2154 2681.6246 4824.0741 2774.69 4709.3991 2811.8075 4631.6652 2813.808 4636.1847 2759.4095 4582.3646 2683.0058 4535.9067 2580.7845 4520.9301 2487.7297 4518.0555 2434.2856 4507.2828 2110.9087 Z" fill="none" stroke="#A9159C" opacity="0.4672897196261682" stroke-width="1" class="flushing"/>
<path d="M 4642.7981 2827.6143 4725.1145 2803.4781 4644.1227 2563.0641 4653.2052 2478.2589 4640.1419 2422.0715 3912.6741 2121.952 4117.8346 2024.9581 4124.3113 2027.7122 4362.2887 2225.401 4509.1358 2112.7477 4496.2905 2168.0452 4813.4003 2120.4274 5008.7828 2227.7713 5005.2468 2686.7063 4731.5983 2806.2303 4642.7981 2827.6143 Z" fill="none" stroke="#A9159C" opacity="0.4672897196261682" stroke-width="1" class="flushing"/>
<path d="M 4345.6834 2217.6898 4926.0173 2006.5053 5267.8637 2599.0364 4602.0643 2792.294 4345.6834 2217.6898 Z" fill="none" stroke="#A9159C" opacity="0.4672897196261682" stroke-width="1" class="flushing"/>
<path d="M 4511.9152 2115.5062 4704.1318 2049.7275 4787.6015 2164.7023 4889.646 2304.5193 4891.8425 2458.3991 4720.7275 2472.5921 4558.7571 2433.2877 4511.922 2119.191 4511.9152 2115.5062 Z" fill="none" stroke="#A9159C" opacity="0.4672897196261682" stroke-width="1" class="flushing"/>
<path d="M 4528.5321 2101.0401 4659.8355 2095.2585 4697.0629 2211.2598 4778.8591 2402.7386 4773.3872 2439.6104 4755.0176 2502.3148 4727.1867 2465.5104 4614.2839 2445.4645 4514.3675 2441.9687 4538.264 2358.9907 4508.5074 2274.2772 4506.4944 2185.8345 4528.5321 2101.0401 Z" fill="none" stroke="#A9159C" opacity="0.4672897196261682" stroke-width="1" class="flushing"/>
<path d="M 4481.0625 2439.8827 4462.3886 2344.0831 4491.7894 2235.3076 4499.0429 2156.0639 4532.2186 2093.3597 4595.0654 2074.8164 4704.1526 2059.8601 4837.2462 2030.1008 4952.1285 2125.6435 5031.898 2224.9521 5065.3775 2300.4219 5074.938 2427.5586 5086.3786 2565.7672 5064.5147 2705.9211 4942.5436 2781.7991 4763.036 2793.2581 4561.2259 2758.6332 4396.356 2672.2843 4423.743 2460.2588 4481.0625 2439.8827 Z" fill="none" stroke="#A9159C" opacity="0.4672897196261682" stroke-width="1" class="flushing"/>
<path d="M 4380.8382 2255.7733 4419.5969 2205.955 4517.4808 2124.708 4622.7999 2071.0776 4750.3959 2063.4486 5094.2074 1988.9731 5163.286 2246.7393 5241.6681 2510.0757 4997.7244 2636.0286 4809.108 2700.9776 4626.1125 2813.819 4434.9061 2495.2583 4380.8382 2255.7733 Z" fill="none" stroke="#A9159C" opacity="0.4672897196261682" stroke-width="1" class="flushing"/>
<path d="M 4727.6741 1809.2908 5119.5917 1786.2927 5698.6868 2506.9233 5737.9897 3236.9808 5598.0324 3495.6892 4945.9092 3438.3774 4574.1991 2767.8268 4447.3064 2185.6378 4727.6741 1809.2908 Z" fill="none" stroke="#A9159C" opacity="0.4672897196261682" stroke-width="1" class="flushing"/>
<path d="M 4626.0624 1966.9853 4686.6202 1964.5613 4730.5525 1970.6881 4782.5861 1981.6311 4997.8484 2003.9434 5004.8888 2048.3709 4990.1876 2186.3569 5005.5528 2328.2078 4997.63 2498.2427 4949.5574 2513.3309 4761.2645 2502.4583 4647.1441 2454.3108 4515.9869 2441.2009 4523.337 2414.0027 4544.0982 2386.089 4546.1157 2352.2218 4511.0607 2278.5753 4500.7905 2226.3082 4495.3336 2150.5432 4518.3167 2076.8044 4626.0624 1966.9853 Z" fill="none" stroke="#A9159C" opacity="0.4672897196261682" stroke-width="1" class="flushing"/>
<path d="M 4360.5744 2305.5615 5173.8675 2044.0399 5486.0407 2555.4839 4652.0766 2839.5806 4360.5744 2305.5615 Z" fill="none" stroke="#A9159C" opacity="0.4672897196261682" stroke-width="1" class="flushing"/>
<path d="M 4998.8586 2008.8229 4996.075 2497.9238 4956.7353 2508.7985 4762.833 2500.3998 4522.5605 2434.2127 4552.9582 2375.3372 4508.4531 2253.8786 4499.4971 2201.9514 4508.207 2120.5889 4560.2113 2049.9293 4637.9328 2054.6787 4693.9969 2049.6654 4820.8793 2038.6202 4881.8757 2044.3623 4931.002 2014.8577 4998.8586 2008.8229 Z" fill="none" stroke="#A9159C" opacity="0.4672897196261682" stroke-width="1" class="flushing"/>
<path d="M 4640.0888 2395.3484 4560.0467 2381.6818 4563.2623 2370.1575 4576.1127 2318.0722 4539.2883 2164.741 4576.7406 2163.2879 4668.711 2139.1547 4702.6331 2220.618 4775.8321 2283.5767 4774.2253 2397.8369 4765.9976 2443.9296 4640.0888 2395.3484 Z" fill="none" stroke="#A9159C" opacity="0.4672897196261682" stroke-width="1" class="flushing"/>
<path d="M 4590.7429 1752.4709 4664.588 1698.917 4675.7847 1750.4608 4805.2256 1761.2401 4910.7264 1812.576 5010.6259 1836.2876 4959.3169 2035.3517 5118.7303 2182.3601 5085.7218 2298.5293 4973.2966 2477.5646 4864.4889 2638.1775 4725.8122 2693.78 4646.443 2799.0287 4555.7225 2784.4552 4462.9419 2651.8888 4475.6923 2539.4219 4368.3776 2543.2966 4292.3844 2464.1665 4266.2617 2325.9869 4356.7535 2233.7022 4489.7747 2145.0259 4393.5802 2135.9845 4384.1017 2001.5113 4335.8297 1887.3839 4318.9696 1754.7992 4391.0165 1721.5276 4492.651 1695.5642 4590.7429 1752.4709 Z" fill="none" stroke="#A9159C" opacity="0.4672897196261682" stroke-width="1" class="flushing"/>
<path d="M 4665.4224 2113.3672 4770.8453 2113.1491 5003.763 2061.0394 5214.6497 2080.7813 5214.4156 2347.039 4960.2014 2415.8527 4695.4856 2343.6354 4676.6799 2192.5714 4665.4224 2113.3672 Z" fill="none" stroke="#A9159C" opacity="0.4672897196261682" stroke-width="1" class="flushing"/>
<path d="M 4520.2261 2109.0423 4722.6315 2052.4527 4998.2583 2079.4757 4993.7514 2520.8308 4992.151 2626.8246 4620.3389 2701.3672 4520.2261 2109.0423 Z" fill="none" stroke="#A9159C" opacity="0.4672897196261682" stroke-width="1" class="flushing"/>
<path d="M 4511.8981 2106.2942 4628.1773 1984.4815 4688.8503 1811.2125 4860.9115 1860.5767 4957.506 2051.9364 4988.9849 2068.4436 5007.6938 2158.6776 4980.1744 2254.5574 4995.1425 2326.3896 4988.0031 2436.9824 4976.9884 2473.8698 4977.0402 2495.9872 4893.7696 2492.4923 4769.7781 2481.7048 4701.319 2481.8477 4608.7274 2441.4851 4551.3478 2428.6942 4514.0309 2259.2213 4506.5229 2200.2709 4511.8981 2106.2942 Z" fill="none" stroke="#A9159C" opacity="0.4672897196261682" stroke-width="1" class="flushing"/>
<path d="M 4665.3593 2082.0469 4871.4902 2043.842 5064.9779 2136.43 5055.8267 2557.5471 4627.4526 2554.8024 4665.3593 2082.0469 Z" fill="none" stroke="#A9159C" opacity="0.4672897196261682" stroke-width="1" class="flushing"/>
<path d="M 4390.7176 2245.887 4438.4201 2024.7096 4693.3821 1902.6433 5045.1138 2067.6539 5235.054 2409.2321 4643.9072 2856.7004 4269.6152 2610.3269 4390.7176 2245.887 Z" fill="none" stroke="#A9159C" opacity="0.4672897196261682" stroke-width="1" class="flushing"/>
<path d="M 4657.7883 2457.0541 5075.951 2463.4957 5158.9768 2736.1056 4747.3714 2825.5569 4657.7883 2457.0541 Z" fill="none" stroke="#A9159C" opacity="0.4672897196261682" stroke-width="1" class="flushing"/>
<path d="M 4652.0889 1919.9606 4659.467 1910.7357 4672.1653 1789.1447 4905.2381 1838.3744 5045.623 1780.949 5156.5881 1793.5668 5321.8585 2058.389 5100.0696 2116.077 5193.328 2419.8895 4989.9922 2495.9568 4555.0411 2425.0012 4504.5476 2132.1016 4652.0889 1919.9606 Z" fill="none" stroke="#A9159C" opacity="0.4672897196261682" stroke-width="1" class="flushing"/>
<path d="M 4905.6496 2019.8159 4688.1833 2391.5657 4170.1634 2392.4786 4103.0646 2042.4806 4058.4925 1906.2246 4494.5739 1736.0768 4905.6496 2019.8159 Z" fill="none" stroke="#A9159C" opacity="0.4672897196261682" stroke-width="1" class="flushing"/>
<path d="M 4510.6958 2456.4159 4484.2225 2143.1936 4685.1187 1794.6438 4981.0638 1845.5669 5003.8241 2086.8319 4991.8555 2501.4819 4982.63 2512.5627 4771.6636 2498.2891 4629.0902 2446.9743 4510.6958 2456.4159 Z" fill="none" stroke="#A9159C" opacity="0.4672897196261682" stroke-width="1" class="flushing"/>
<path d="M 4490.718 2155.1579 4996.3762 2065.6626 5001.0262 2467.3623 4390.6994 2611.4608 4267.9136 2201.6022 4490.718 2155.1579 Z" fill="none" stroke="#A9159C" opacity="0.4672897196261682" stroke-width="1" class="flushing"/>
<path d="M 5002.4833 2301.4944 5009.166 2389.0145 4900.8392 2345.9575 4838.8568 2342.4099 4771.4482 2396.9214 4761.3741 2444.8609 4634.5331 2392.595 4560.5109 2382.6024 4512.014 2168.9375 4535.3452 2281.2942 4676.9001 2301.2884 4629.7169 2295.8545 4576.0314 2275.6888 4515.7116 2168.0094 4579.5133 2162.3614 4655.3071 2141.9453 4744.0581 2127.9451 4776.4488 2138.9313 4881.0344 2176.4739 4994.938 2239.7813 5002.4833 2301.4944 Z" fill="none" stroke="#A9159C" opacity="0.4672897196261682" stroke-width="1" class="flushing"/>
<path d="M 4549.1233 2230.5944 4541.5995 2164.276 4561.9436 2163.3162 4625.7211 2145.689 4701.5202 2128.9545 4790.3048 2131.5319 4868.0664 2167.2902 4906.9943 2204.975 4993.0795 2236.1003 4999.6976 2296.8941 5008.0637 2314.3807 4997.3846 2492.2531 4957.638 2507.0915 4868.8279 2509.1367 4757.7865 2498.3185 4645.7473 2449.7059 4637.3082 2392.5895 4586.3886 2370.5739 4562.3399 2371.5414 4571.4861 2317.1597 4549.1233 2230.5944 Z" fill="none" stroke="#A9159C" opacity="0.4672897196261682" stroke-width="1" class="flushing"/>
<path d="M 4394.0964 1899.258 4808.272 1887.4003 5009.4186 2106.1636 5059.3282 2475.5164 4532.8481 2429.6505 4331.7496 2214.3965 4394.0964 1899.258 Z" fill="none" stroke="#A9159C" opacity="0.4672897196261682" stroke-width="1" class="flushing"/>
<path d="M 4514.6707 2105.3679 4624.4588 1974.357 4907.363 1959.9414 5073.8608 1987.1809 5179.1152 2288.16 5340.4126 2758.6739 4631.6798 2821.1831 4414.4855 2456.5888 4439.8718 2165.3832 4443.5874 2174.5892 4514.6707 2105.3679 Z" fill="none" stroke="#A9159C" opacity="0.4672897196261682" stroke-width="1" class="flushing"/>
<path d="M 4533.164 2104.4122 5000.1143 2082.2348 4921.915 2663.8565 4655.6789 2789.7916 4533.164 2104.4122 Z" fill="none" stroke="#A9159C" opacity="0.4672897196261682" stroke-width="1" class="flushing"/>
<path d="M 4555.0551 2432.3732 4499.0226 2145.009 4541.4522 2085.9729 4659.7518 2052.581 4820.6621 2057.7712 4909.6852 2168.1178 4972.8743 2296.9572 4811.9063 2284.4206 4764.2352 2485.4029 4555.0551 2432.3732 Z" fill="none" stroke="#A9159C" opacity="0.4672897196261682" stroke-width="1" class="flushing"/>
<path d="M 4589.6808 2159.578 4671.0193 2137.3076 4765.3396 2133.4275 4819.2055 2238.3373 4906.2993 2306.3244 4895.5284 2451.94 4890.0732 2494.3438 4769.8172 2500.1362 4651.296 2448.7733 4582.8074 2432.3202 4529.1392 2425.0499 4527.069 2307.1083 4497.2812 2203.9731 4491.6681 2168.9749 4589.6808 2159.578 Z" fill="none" stroke="#A9159C" opacity="0.4672897196261682" stroke-width="1" class="flushing"/>
<path d="M 4662.013 1797.4533 5018.8759 1806.7984 5291.8359 2588.2813 4647.3978 2813.7768 4508.8609 2464.7132 4414.5451 2490.6862 4328.5703 2528.6175 4227.2088 2194.2958 4471.3188 2167.1694 4828.0356 2046.7014 4662.013 1797.4533 Z" fill="none" stroke="#A9159C" opacity="0.4672897196261682" stroke-width="1" class="flushing"/>
<path d="M 4380.7657 2213.3926 4399.2151 2185.7222 4294.8812 1721.6883 5180.2231 1636.9669 5529.6622 2286.2772 4442.2843 2482.3433 4380.7657 2213.3926 Z" fill="none" stroke="#A9159C" opacity="0.4672897196261682" stroke-width="1" class="flushing"/>
<path d="M 4595.3226 2207.4733 4684.0524 2179.6586 4693.3779 2217.4124 4774.8954 2278.0505 4879.4344 2287.9573 4868.8258 2508.2151 4759.6563 2507.5304 4650.3893 2457.9904 4595.3226 2207.4733 Z" fill="none" stroke="#A9159C" opacity="0.4672897196261682" stroke-width="1" class="flushing"/>
<path d="M 4611.2945 2808.3168 4332.7035 2231.8998 4670.5541 2135.9267 4993.0838 2237.943 4865.9335 2455.6924 4753.3762 2600.6285 4611.2945 2808.3168 Z" fill="none" stroke="#A9159C" opacity="0.4672897196261682" stroke-width="1" class="flushing"/>
<path d="M 4711.7118 2138.1458 4710.2589 2330.7051 4928.553 2330.2302 4558.6679 2386.2918 4482.5405 2235.3244 4500.8891 2154.218 4604.2767 2056.3754 4822.4954 2050.3981 4915.125 2120.2012 4972.7192 2230.6202 4941.4432 2304.4013 4932.291 2346.8073 4711.7118 2138.1458 Z" fill="none" stroke="#A9159C" opacity="0.4672897196261682" stroke-width="1" class="flushing"/>
<path d="M 4560.974 2087.2515 4607.1644 2027.3208 4657.3326 2031.2948 5014.957 2078.6033 5005.8893 2241.5796 5012.0394 2494.0431 4925.4301 2514.52 4771.2055 2499.5029 4528.0613 2424.4272 4554.1451 2387.6163 4520.6007 2256.8395 4514.8635 2155.5077 4560.974 2087.2515 Z" fill="none" stroke="#A9159C" opacity="0.4672897196261682" stroke-width="1" class="flushing"/>
<path d="M 4974.5359 2665.6614 4703.2132 2798.1949 4632.7563 2735.6519 4558.499 2615.9684 4523.6318 2440.2118 4556.8159 2377.4881 4528.0749 2291.0689 4509.3856 2187.915 4566.4617 2049.6263 4610.9192 2006.1671 4603.8059 2049.6459 4632.7087 2052.5829 4620.2937 1983.1065 4639.9349 1979.3833 4671.682 1966.0128 4705.4939 1966.1507 4728.2791 1971.4909 4759.9126 1979.4213 4817.1072 1987.2552 4878.2967 1993.2756 4937.3255 2000.1341 4964.6893 2019.7755 4990.8146 2054.6567 5022.5958 2104.6622 5046.6402 2144.544 5076.4679 2183.6826 5095.057 2233.6782 5111.4671 2269.8841 5134.923 2310.2908 5169.3575 2406.9336 5177.9745 2436.0296 5129.9269 2445.0325 5090.5504 2459.3231 5063.882 2471.181 5006.2799 2491.5289 4973.8177 2507.9 4932.058 2511.6993 4931.4472 2511.8067 4977.6318 2561.0148 4979.3539 2581.7518 4979.9956 2648.4573 4974.5359 2665.6614 Z" fill="none" stroke="#A9159C" opacity="0.4672897196261682" stroke-width="1" class="flushing"/>
<path d="M 4509.1783 2135.778 4520.2723 2133.915 4560.9294 2116.3354 4691.3947 2152.006 4932.8521 2188.3328 5005.2647 2304.252 5026.9646 2482.0454 5016.1992 2623.0808 5035.9332 2749.3149 4883.3479 2795.7616 4719.4569 2752.7881 4596.2908 2706.9448 4496.3216 2689.6197 4376.9449 2684.3004 4477.4557 2491.4958 4509.1783 2135.778 Z" fill="none" stroke="#A9159C" opacity="0.4672897196261682" stroke-width="1" class="flushing"/>
<path d="M 4630.9184 1967.8968 4757.5914 1967.6379 4835.2922 2826.2902 4644.6251 2815.6261 4525.4767 2445.3301 4504.5187 2116.441 4630.9184 1967.8968 Z" fill="none" stroke="#A9159C" opacity="0.4672897196261682" stroke-width="1" class="flushing"/>
<path d="M 5236.3536 2600.4099 5040.3914 2679.2482 4637.2489 2829.4691 4517.1681 2454.5608 4550.3095 2368.7999 4511.292 2278.5749 4488.8347 2136.7366 4596.7879 2009.4125 4648.3484 1898.7849 4674.9367 1788.2183 4851.6032 1832.0479 5023.2678 2096.9187 5236.3536 2600.4099 Z" fill="none" stroke="#A9159C" opacity="0.4672897196261682" stroke-width="1" class="flushing"/>
<path d="M 4512.8792 2136.6924 4577.5345 2095.1161 4583.2711 2192.7559 4500.0879 2221.4726 4472.2786 2186.5142 4470.359 2147.8249 4512.8792 2136.6924 Z" fill="none" stroke="#A9159C" opacity="0.4672897196261682" stroke-width="1" class="flushing"/>
<path d="M 4476.5332 2145.9151 4568.2523 2045.9531 4638.1209 1945.8326 4640.838 1917.2753 4667.8574 1902.4574 4716.9065 1925.3826 4780.6838 1974.9961 4812.1611 2001.4464 4856.571 2013.3234 4867 2103.7279 4878.2249 2160.8187 4908.8421 2231.8085 4573.985 2413.5605 4476.5332 2145.9151 Z" fill="none" stroke="#A9159C" opacity="0.4672897196261682" stroke-width="1" class="flushing"/>
<path d="M 4582.7528 2163.737 4612.3269 2153.5459 4576.7477 2166.973 4582.7528 2163.737 Z" fill="none" stroke="#A9159C" opacity="0.4672897196261682" stroke-width="1" class="flushing"/>
<path d="M 5048.9335 2385.2333 4529.3045 2513.5183 4114.6665 2396.2454 3929.2268 2046.3955 3943.7045 1792.1774 4328.0063 1629.5561 4224.691 1762.3166 4295.2574 1953.7638 4446.9912 2008.7701 4635.578 1986.3091 4913.07 2029.9313 4998.4719 2169.7545 5035.828 2320.7642 5048.9335 2385.2333 Z" fill="none" stroke="#A9159C" opacity="0.4672897196261682" stroke-width="1" class="flushing"/>
<path d="M 4527.6688 2132.98 4708.9241 2131.7029 4820.3504 2764.5578 4651.0831 2805.4726 4536.6988 2509.8181 4527.6688 2132.98 Z" fill="none" stroke="#A9159C" opacity="0.4672897196261682" stroke-width="1" class="flushing"/>
<path d="M 4406.2293 1964.63 4414.5219 1948.0366 4469.9996 1948.8591 4594.8047 1940.336 4705.7047 1915.2468 4979.6556 2033.462 5023.4243 2162.3251 5008.8091 2238.8271 4752.4218 2147.2733 4526.8025 2164.3037 4471.3471 2182.8308 4408.3159 2100.953 4406.2293 1964.63 Z" fill="none" stroke="#A9159C" opacity="0.4672897196261682" stroke-width="1" class="flushing"/>
<path d="M 4625.4107 1988.1713 4807.0345 2170.188 4536.3168 2306.1696 4478.7006 2157.9435 4625.4107 1988.1713 Z" fill="none" stroke="#A9159C" opacity="0.4672897196261682" stroke-width="1" class="flushing"/>
<path d="M 4993.9524 2610.7238 4655.0261 2346.7229 4861.6408 2500.1782 4771.8981 2498.53 4650.2234 2456.0039 4443.0699 2490.7999 4369.5291 2232.7823 4511.441 2119.1927 5011.4634 2077.905 4993.9524 2610.7238 Z" fill="none" stroke="#A9159C" opacity="0.4672897196261682" stroke-width="1" class="flushing"/>
<path d="M 4540.1846 2395.5415 4495.391 2181.8658 4602.3341 2008.4806 4672.3328 1872.0282 4720.2021 1772.4706 4897.8421 1838.3911 5042.0453 1830.6867 5127.808 2114.1656 5194.8556 2294.5693 5232.1229 2397.6731 5291.7693 2563.3968 5084.7319 2648.7229 4896.148 2726.5953 4751.8378 2749.0333 4659.2845 2741.8489 4566.2685 2491.3306 4573.8602 2590.8509 4599.8526 2635.0418 4540.1846 2395.5415 Z" fill="none" stroke="#A9159C" opacity="0.4672897196261682" stroke-width="1" class="flushing"/>
<path d="M 4361.3748 2231.8518 4761.6639 2144.4901 4996.7355 2217.6654 5248.3599 2592.0833 4632.5852 2811.0406 4361.3748 2231.8518 Z" fill="none" stroke="#A9159C" opacity="0.4672897196261682" stroke-width="1" class="flushing"/>
<path d="M 4631.885 2805.153 4461.0809 2514.2073 4360.753 2271.1129 4525.6152 2110.8231 4802.9874 2084.4718 4976.9324 2124.6129 5077.7415 2239.7295 5099.7806 2524.3644 5077.9106 2660.8255 4878.7915 2757.9392 4671.6147 2813.6915 4627.2441 2839.593 4631.885 2805.153 Z" fill="none" stroke="#A9159C" opacity="0.4672897196261682" stroke-width="1" class="flushing"/>
<path d="M 4500.9332 2178.1705 4517.4022 2082.3332 4598.5997 1990.0659 4955.4257 1952.4626 4979.5865 2003.9865 5003.8984 2118.1524 5017.1177 2232.358 5009.8676 2295.0272 4997.0273 2341.1279 4967.4923 2368.8404 4906.3829 2343.1807 4893.4248 2339.5242 4863.8457 2348.8047 4795.424 2361.8545 4730.6889 2369.3631 4641.7777 2314.2584 4551.0585 2275.7364 4500.9332 2178.1705 Z" fill="none" stroke="#A9159C" opacity="0.4672897196261682" stroke-width="1" class="flushing"/>
<path d="M 4180.4681 1861.8424 5445.1207 1829.6281 5359.4876 2965.1348 4345.0689 2989.5047 4180.4681 1861.8424 Z" fill="none" stroke="#A9159C" opacity="0.4672897196261682" stroke-width="1" class="flushing"/>
<path d="M 4568.9196 1942.2279 4748.3568 1973.1838 4798.6378 2136.1201 4601.7374 2177.0585 4568.9196 1942.2279 Z" fill="none" stroke="#A9159C" opacity="0.4672897196261682" stroke-width="1" class="flushing"/>
<path d="M 4529.0207 2414.0916 4504.5041 2161.6808 4774.4504 2115.0833 5002.1912 2219.5945 5159.0859 2209.1528 5224.6948 2423.2621 4967.0684 2494.936 4699.8743 2477.5433 4529.0207 2414.0916 Z" fill="none" stroke="#A9159C" opacity="0.4672897196261682" stroke-width="1" class="flushing"/>
<path d="M 4736.2188 2802.9941 3942.2325 2661.3639 3844.1384 2109.8288 4574.2285 2164.0924 4736.2188 2802.9941 Z" fill="none" stroke="#A9159C" opacity="0.4672897196261682" stroke-width="1" class="flushing"/>
<path d="M 4564.711 2159.6259 4573.9503 2155.0021 4542.4567 2128.3461 4600.5725 2053.6191 4732.7802 2041.3779 4761.5528 2091.9813 4770.9529 2163.8165 4765.6129 2262.4072 4729.6297 2304.8658 4583.5159 2319.9008 4564.711 2159.6259 Z" fill="none" stroke="#A9159C" opacity="0.4672897196261682" stroke-width="1" class="flushing"/>
<path d="M 4583.8835 2030.623 4683.3447 1831.484 4861.1488 1967.4136 5065.1934 2224.8716 4769.0622 2144.4744 4583.8835 2030.623 Z" fill="none" stroke="#A9159C" opacity="0.4672897196261682" stroke-width="1" class="flushing"/>
<path d="M 4756.8186 2478.046 4538.4107 2436.0907 4513.8773 2176.3041 4672.746 2076.505 4900.5579 2221.5731 4838.0511 2396.7775 4756.8186 2478.046 Z" fill="none" stroke="#A9159C" opacity="0.4672897196261682" stroke-width="1" class="flushing"/>
<path d="M 4505.4299 2109.0697 4733.7318 2054.2719 5002.8688 2073.9378 4993.0621 2228.7298 5003.4105 2302.4136 4994.6135 2494.1028 4948.3951 2510.7992 4765.1915 2500.146 4653.1573 2454.2987 4523.5991 2430.5893 4549.3688 2360.5086 4513.1572 2286.8637 4507.526 2242.6493 4536.0454 2161.5227 4505.4299 2109.0697 Z" fill="none" stroke="#A9159C" opacity="0.4672897196261682" stroke-width="1" class="flushing"/>
<path d="M 4714.8148 2745.4232 4629.8325 2823.0305 4332.7555 2263.2251 4683.2773 1798.3312 4853.5154 1860.5931 5266.0881 2648.2601 4966.6733 2811.2429 4766.7924 2819.0627 4714.8148 2745.4232 Z" fill="none" stroke="#A9159C" opacity="0.4672897196261682" stroke-width="1" class="flushing"/>
<path d="M 4869.6952 2068.2565 4975.0384 2233.6091 4979.1095 2293.4874 4978.05 2334.7226 4949.4183 2353.2178 4932.282 2342.8912 4888.1009 2337.2327 4889.9752 2348.0552 4839.5515 2342.8691 4768.6809 2400.6132 4643.0474 2255.0578 4627.3027 2244.2633 4611.1289 2250.2837 4564.0144 2279.3972 4501.2863 2118.75 4629.7462 2076.5909 4736.0494 2057.0306 4779.9779 2059.2407 4869.6952 2068.2565 Z" fill="none" stroke="#A9159C" opacity="0.4672897196261682" stroke-width="1" class="flushing"/>
<path d="M 5001.4997 2667.3584 4620.6177 2843.3305 4574.3615 2852.6394 4334.5533 2231.8968 4353.0447 2228.1806 4500.862 2139.4782 4826.3189 2107.5024 5004.1257 2213.9626 5001.072 2486.7149 5001.4997 2667.3584 Z" fill="none" stroke="#A9159C" opacity="0.4672897196261682" stroke-width="1" class="flushing"/>
<path d="M 4546.0567 2075.8313 4865.0849 2074.2543 5004.6982 2455.3735 4573.4437 2373.3631 4546.0567 2075.8313 Z" fill="none" stroke="#A9159C" opacity="0.4672897196261682" stroke-width="1" class="flushing"/>
<path d="M 4323.4395 2222.702 4364.1463 2230.0045 4486.0587 2135.8204 4537.6944 2054.6604 4591.2596 2019.5554 4652.17 1960.4861 4728.0035 1967.6999 4877.6971 1925.0087 4888.7671 1913.9316 4953.7175 2013.2578 5050.2126 2149.3631 5076.152 2167.725 5105.9198 2237.6699 5184.1246 2438.3434 5217.6908 2539.6296 5014.3355 2617.5551 4766.3276 2599.6794 4583.2225 2647.978 4323.4395 2222.702 Z" fill="none" stroke="#A9159C" opacity="0.4672897196261682" stroke-width="1" class="flushing"/>
<path d="M 4471.6199 2264.7321 4582.2851 2365.7138 4585.0139 2341.7512 4585.4143 2337.3478 4581.4456 2364.9847 4473.2396 2376.2441 4579.3708 2247.9719 4471.6199 2264.7321 Z" fill="none" stroke="#A9159C" opacity="0.4672897196261682" stroke-width="1" class="flushing"/>
<path d="M 4421.4304 2196.7389 4629.163 2649.7983 4488.0461 2211.3603 4661.8455 2174.1759 4843.9949 2575.5484 4885.085 2745.0564 4663.1638 2830.3393 4573.7472 2531.8663 4499.2595 2273.9902 4406.8059 2296.2684 4421.4304 2196.7389 Z" fill="none" stroke="#A9159C" opacity="0.4672897196261682" stroke-width="1" class="flushing"/>
<path d="M 4506.4617 2167.1052 4507.2692 2103.5392 5011.1979 2076.6815 5260.5121 2639.0577 5282.8244 2678.6331 4649.2395 2809.1637 4506.4617 2167.1052 Z" fill="none" stroke="#A9159C" opacity="0.4672897196261682" stroke-width="1" class="flushing"/>
<path d="M 4655.0111 1994.0996 4727.5968 1994.412 4613.4084 1997.4058 4655.0111 1994.0996 Z" fill="none" stroke="#A9159C" opacity="0.4672897196261682" stroke-width="1" class="flushing"/>
<path d="M 4514.7902 2169.8536 5004.165 2230.5462 5004.8009 2498.6865 4533.7766 2431.4918 4433.9338 2468.5347 4366.9318 2236.449 4514.7902 2169.8536 Z" fill="none" stroke="#A9159C" opacity="0.4672897196261682" stroke-width="1" class="flushing"/>
<path d="M 4363.2245 2231.8487 5370.2535 2170.6442 5506.3576 2542.5223 4604.8882 2845.2051 4363.2245 2231.8487 Z" fill="none" stroke="#A9159C" opacity="0.4672897196261682" stroke-width="1" class="flushing"/>
<path d="M 4430.2626 2485.1292 4329.935 2235.5897 4373.7547 1898.3719 4765.7782 1904.0693 4757.0069 2128.839 4757.9336 2129.7583 4430.2626 2485.1292 Z" fill="none" stroke="#A9159C" opacity="0.4672897196261682" stroke-width="1" class="flushing"/>
<path d="M 4966.6714 2016.9122 4998.2605 2080.3969 4989.2606 2185.4378 5004.3485 2307.9398 5058.383 2467.2247 4956.7001 2501.5641 4758.6961 2490.944 4644.8094 2443.257 4536.5501 2430.5651 4496.2719 2157.9114 4511.9083 2111.8214 4614.3222 1991.8774 4641.1387 1992.7456 4943.5313 2006.8337 4966.6714 2016.9122 Z" fill="none" stroke="#A9159C" opacity="0.4672897196261682" stroke-width="1" class="flushing"/>
<path d="M 5516.7185 2288.1578 5648.4868 2427.8244 5388.3232 2682.9548 5293.901 2668.4643 5131.278 2761.0646 5003.6343 2787.1874 4883.4203 2828.0273 4637.2325 2821.1721 4442.6968 2714.6044 4360.945 2524.877 4269.9204 2300.182 4258.6608 2198.853 4273.423 2176.7189 4386.3148 2213.3831 4480.4698 2113.7214 4387.984 2108.3577 4382.0599 1889.1478 4328.4486 1896.606 4285.8303 1841.4176 4352.1895 1719.752 4522.2097 1684.4601 4514.9755 1771.0317 4590.8391 1802.1982 4609.1015 1686.1359 4718.0559 1628.8293 4993.6893 1711.0884 5030.8099 1771.7759 5126.8951 1749.4395 5123.0778 1701.5658 5160.0101 1684.8984 5193.3149 1695.8629 5225.0117 1798.9163 5193.6277 1817.4158 5381.3258 2161.401 5516.7185 2288.1578 Z" fill="none" stroke="#A9159C" opacity="0.4672897196261682" stroke-width="1" class="flushing"/>
<path d="M 4515.5937 2104.4449 4597.6983 2002.0419 4744.6873 1987.0076 4859.4099 2017.1563 4991.8569 2109.89 5001.7155 2367.8385 4967.7738 2489.5579 4838.3991 2555.2845 4787.5035 2550.7867 4744.9814 2568.3879 4658.9777 2588.8407 4590.5464 2607.409 4522.8902 2546.7082 4407.168 2504.5227 4392.1926 2404.1014 4368.0069 2324.8983 4357.7063 2250.2845 4515.5937 2104.4449 Z" fill="none" stroke="#A9159C" opacity="0.4672897196261682" stroke-width="1" class="flushing"/>
<path d="M 4765.0744 2444.853 4535.3573 2287.7437 4399.0484 2089.4543 4392.5511 1941.3972 4394.0921 1896.7253 4425.0633 1895.9806 4680.0096 1896.4187 4658.1712 1956.0991 4653.8618 1997.3257 4654.8998 2053.9725 4662.8686 2108.0755 4666.627 2137.5467 4703.7982 2224.9919 4653.7064 2266.3231 4670.8535 2284.2552 4772.8544 2405.6725 4765.0744 2444.853 Z" fill="none" stroke="#A9159C" opacity="0.4672897196261682" stroke-width="1" class="flushing"/>
<path d="M 4502.7387 2154.2146 4506.3462 2104.4621 5081.2624 1989.0049 5239.6681 2452.9439 4575.8308 2653.5226 4502.7387 2154.2146 Z" fill="none" stroke="#A9159C" opacity="0.4672897196261682" stroke-width="1" class="flushing"/>
<path d="M 4520.3318 2165.928 4919.5413 2130.5548 4659.3626 2319.5214 4520.3318 2165.928 Z" fill="none" stroke="#A9159C" opacity="0.4672897196261682" stroke-width="1" class="flushing"/>
<path d="M 5001.4997 2667.3584 4840.695 2758.0605 4737.1202 2791.4688 4664.8553 2751.0559 4596.1014 2609.2416 4556.9192 2439.7418 4576.9209 2257.26 4580.4647 2176.1784 4552.7095 2170.7038 4565.4953 2085.9274 4635.6328 2013.9418 4674.2303 1895.9699 4724.1903 1912.4456 4820.3732 1925.1353 4923.9934 1954.3771 4999.8635 1976.3061 4994.9119 2228.7254 5008.3373 2429.5622 5010.5073 2564.1074 5001.4997 2667.3584 Z" fill="none" stroke="#A9159C" opacity="0.4672897196261682" stroke-width="1" class="flushing"/>
<path d="M 4718.1436 2117.9808 4726.579 2116.4664 4727.0533 2122.2229 4724.049 2122.8049 4724.519 2126.4888 4720.0127 2127.4194 4718.1436 2117.9808 Z" fill="none" stroke="#A9159C" opacity="0.4672897196261682" stroke-width="1" class="flushing"/>
<path d="M 4702.8043 1853.5469 4896.9301 1843.9188 4916.5147 1918.4739 4663.269 1962.3059 4702.8043 1853.5469 Z" fill="none" stroke="#A9159C" opacity="0.4672897196261682" stroke-width="1" class="flushing"/>
<path d="M 4358.0249 1891.0306 4382.0978 1911.2517 4659.4633 1908.8937 4888.7962 1926.8258 4859.7369 2164.545 4537.9124 2170.7317 4395.3916 2113.8722 4358.0249 1891.0306 Z" fill="none" stroke="#A9159C" opacity="0.4672897196261682" stroke-width="1" class="flushing"/>
<path d="M 4557.2142 2427.0059 4501.0213 2226.0775 4519.4091 2167.0812 4705.6282 2128.0889 4750.24 2130.9343 4788.1609 2133.1569 4815.1489 2144.8513 4849.0782 2160.6769 4838.6513 2150.3359 4848.3498 2157.4883 4875.5497 2162.6769 4914.7189 2156.8325 4945.8258 2178.452 4948.5127 2219.6396 4944.7288 2260.5759 4944.4286 2289.2906 4977.4243 2290.5229 4980.6442 2329.0578 4952.4413 2349.5783 4870.3756 2474.6738 4649.4385 2445.0909 4560.2567 2431.3266 4557.2142 2427.0059 Z" fill="none" stroke="#A9159C" opacity="0.4672897196261682" stroke-width="1" class="flushing"/>
<path d="M 4536.331 2082.0952 4655.7725 1940.3079 4847.516 1944.749 4918.6107 1965.9211 4983.1699 2100.5419 4997.163 2257.6131 5005.1347 2335.1839 4995.6078 2425.4179 4992.87 2500.1155 4913.0317 2509.0372 4764.0341 2508.3874 4649.1929 2544.52 4576.1588 2549.5106 4536.2003 2535.034 4479.9921 2151.0503 4531.4578 2082.1135 4536.331 2082.0952 Z" fill="none" stroke="#A9159C" opacity="0.4672897196261682" stroke-width="1" class="flushing"/>
<path d="M 4650.2453 1922.7274 4960.5543 2169.8434 4568.97 2452.6202 4492.6165 2181.8709 4514.4931 2009.5686 4650.2453 1922.7274 Z" fill="none" stroke="#A9159C" opacity="0.4672897196261682" stroke-width="1" class="flushing"/>
<path d="M 5049.7324 2141.9944 5080.3115 2166.7935 5098.5138 2234.9243 4978.276 2233.8318 4912.081 2204.9635 4880.0993 2171.8696 4737.5615 2116.9041 4539.7378 2157.8307 4541.1336 2162.4344 4498.8362 2169.4224 4497.8463 2133.9564 4526.1936 2085.7712 4570.7848 2071.4088 4596.4453 2071.1291 4636.4172 2059.7665 4686.5653 2051.1451 4736.0157 2040.9106 4752.427 2039.9551 4815.0663 2035.9063 4841.4351 2042.7572 4875.1895 2044.064 4904.9947 2036.8581 4947.2299 2006.8251 4962.0309 2009.5541 4988.9318 2045.8755 5015.3636 2078.5139 5049.7324 2141.9944 Z" fill="none" stroke="#A9159C" opacity="0.4672897196261682" stroke-width="1" class="flushing"/>
<path d="M 4865.8862 2065.321 5138.9561 2134.4044 5239.7357 2478.7471 5343.933 2692.2947 5070.4852 2877.3731 4700.2957 2885.5796 4478.0641 2827.0055 4403.2852 2399.4748 4571.5656 2122.8151 4865.8862 2065.321 Z" fill="none" stroke="#A9159C" opacity="0.4672897196261682" stroke-width="1" class="flushing"/>
<path d="M 4562.7855 2605.6188 4502.5726 2063.9373 5123.911 2034.9547 5201.1231 2572.8514 4562.7855 2605.6188 Z" fill="none" stroke="#A9159C" opacity="0.4672897196261682" stroke-width="1" class="flushing"/>
<path d="M 3956.9224 2010.4372 4005.921 2003.9264 3993.7889 1918.2841 4073.2931 1911.7302 4063.0976 1893.3243 4076.9428 1876.7275 4109.3315 1897.8645 4148.9981 1837.0235 4148.9957 1835.4119 4150.3801 1833.7982 4168.6576 1846.4341 4167.0428 1848.5087 4171.9263 1868.5322 4157.3956 1889.2757 4149.0757 1889.9787 4137.5481 1910.0272 4277.5329 2000.0762 4378.1702 2047.5774 4388.6233 2076.8061 4407.6487 2116.154 4442.12 2129.4509 4485.0982 2116.2463 4494.8138 2119.2225 4509.5688 2096.8563 4528.0224 2074.7137 4544.6314 2055.5685 4570.9481 2035.9443 4593.3321 2015.4063 4606.2432 1997.8803 4619.1341 1970.2227 4635.7029 1932.6573 4640.0951 1932.8788 4663.4599 1942.2727 4680.7979 1943.1588 4770.7315 1950.8008 4838.2412 1956.872 4919.1634 1964.9803 4929.8329 1980.8444 4950.6969 2006.5868 4967.1353 2017.6019 4981.5142 2037.3724 5002.1638 2069.1033 5000.5657 2077.6279 4995.8328 2129.2261 4990.4199 2186.817 4995.618 2234.0214 5001.2813 2282.1483 5002.9551 2305.4092 5006.2416 2326.133 5003.3365 2368.7562 5001.3791 2421.0547 4980.7969 2421.3336 4976.8886 2431.249 4953.8258 2458.9486 4948.9643 2456.8864 4910.3346 2453.9799 4873.3328 2454.9848 4871.7663 2478.4878 4868.4685 2555.4484 4867.3771 2584.7132 4865.8394 2621.3534 4844.0979 2622.3232 4823.9729 2622.1369 4822.161 2639.8837 4823.1024 2647.2554 4827.0716 2664.0683 4805.3349 2667.8025 4801.1711 2667.8115 4787.5248 2668.7625 4767.1846 2676.6407 4623.8606 2727.6313 4637.1019 2755.2595 4593.3508 2741.7483 4585.99 2763.6559 4565.4376 2783.5149 4535.7417 2739.5536 4502.9806 2662.6463 4492.5339 2642.3875 4455.4472 2600.287 4442.4103 2553.3059 4432.1388 2499.871 4424.6681 2460.2572 4405.1225 2392.0998 4367.085 2326.7427 4349.4379 2283.4671 4359.5748 2261.3375 4353.0354 2222.6527 4324.3309 2202.432 4281.7582 2184.0757 4263.2134 2153.7038 4225.2138 2100.3328 4187.2339 2057.0958 4164.0889 2038.7076 4135.4155 2033.2228 4095.6619 2038.8065 3979.2363 2105.2871 3956.9224 2010.4372 Z" fill="none" stroke="#A9159C" opacity="0.4672897196261682" stroke-width="1" class="flushing"/>
<path d="M 4912.5702 2501.4176 4908.47 2507.585 4905.3291 2533.0757 4887.4613 2644.5137 4871.0871 2722.0084 4821.7285 2767.1996 4746.7114 2758.8615 4502.0253 2749.0067 4474.8104 2539.8262 4456.9919 2040.47 4735.0554 2000.3909 4919.9735 2479.649 4912.5702 2501.4176 Z" fill="none" stroke="#A9159C" opacity="0.4672897196261682" stroke-width="1" class="flushing"/>
<path d="M 4996.7573 2226.8784 5002.9397 2494.0831 4808.7171 2520.3278 4827.7637 2769.1508 4611.3666 2845.1925 4490.725 2665.2035 4360.9014 2499.0725 4361.3997 2246.593 4475.018 2167.1627 4486.1359 2178.1976 4630.3578 2152.1286 4776.4606 2144.4587 4996.7573 2226.8784 Z" fill="none" stroke="#A9159C" opacity="0.4672897196261682" stroke-width="1" class="flushing"/>
<path d="M 4511.8947 2104.4518 4600.6137 2074.8057 4667.1754 2065.4622 4742.9673 2048.7258 4798.4611 2054.1347 4863.2232 2068.7315 4922.4052 2068.5981 4989.0414 2092.394 5000.2692 2147.6402 4992.9838 2195.5631 4985.7801 2278.4994 4993.3143 2335.6081 4991.6252 2403.7997 4991.7642 2462.7764 5008.6 2540.1495 4995.839 2621.2857 4927.412 2639.879 4866.3805 2656.6078 4816.4266 2662.248 4751.6866 2677.1343 4683.247 2693.8674 4618.4702 2692.1532 4561.0121 2646.1771 4538.6426 2559.5815 4525.5386 2478.5055 4540.195 2401.0703 4530.7929 2320.0009 4541.7815 2261.0122 4491.695 2183.7151 4511.8947 2104.4518 Z" fill="none" stroke="#A9159C" opacity="0.4672897196261682" stroke-width="1" class="flushing"/></svg>