<?xml version="1.0"?><svg xmlns="http://www.w3.org/2000/svg" version="1.2" baseProfile="tiny" width="6000" height="5918" viewBox="0 0 6000 5918" stroke-linecap="round" stroke-linejoin="round"><path d="M 3864.191 791.5611 3865.5687 785.1201 3874.3456 788.5595 3869.9775 804.2033 3860.9682 799.6142 3864.191 791.5611 Z" fill="none" stroke="#FBC20F" opacity="0.6" stroke-width="1" class="fordham"/>
<path d="M 4045.0037 823.7608 3832.5104 745.8325 3910.8392 612.3676 4031.9017 694.9937 4053.2712 791.5517 4045.0037 823.7608 Z" fill="none" stroke="#FBC20F" opacity="0.6" stroke-width="1" class="fordham"/>
<path d="M 3830.6719 753.1936 3983.9053 709.7743 4052.3277 776.8343 3949.0072 861.6051 3830.6719 753.1936 Z" fill="none" stroke="#FBC20F" opacity="0.6" stroke-width="1" class="fordham"/>
<path d="M 3829.8033 748.6278 3933.0077 766.0378 3841.5879 941.3996 3761.6302 879.845 3829.8033 748.6278 Z" fill="none" stroke="#FBC20F" opacity="0.6" stroke-width="1" class="fordham"/>
<path d="M 4043.2568 216.7876 4285.1348 264.2367 4191.4419 560.4802 3910.6738 476.2547 4043.2568 216.7876 Z" fill="none" stroke="#FBC20F" opacity="0.6" stroke-width="1" class="fordham"/>
<path d="M 3832.4439 755.1845 3876.8422 752.3738 3898.6652 758.1355 3915.9077 762.2924 3933.7647 765.2984 3899.8949 820.7652 3884.6535 850.0306 3842.6803 824.0137 3820.6988 815.1074 3811.8061 811.4375 3820.7766 781.3766 3822.7595 765.5442 3832.4439 755.1845 Z" fill="none" stroke="#FBC20F" opacity="0.6" stroke-width="1" class="fordham"/>
<path d="M 3809.431 751.3776 3826.9461 724.6818 3883.2943 742.0941 3938.7223 760.4244 4048.6764 808.1167 4045.951 841.2388 4017.3244 843.1172 3934.1485 795.3866 3809.431 751.3776 Z" fill="none" stroke="#FBC20F" opacity="0.6" stroke-width="1" class="fordham"/>
<path d="M 3976.1802 446.7455 4197.8767 542.0766 4122.0765 1117.1637 3742.1828 907.8427 3976.1802 446.7455 Z" fill="none" stroke="#FBC20F" opacity="0.6" stroke-width="1" class="fordham"/>
<path d="M 3802.6473 898.4849 3849.1571 809.0047 3871.5035 754.629 3933.7053 764.9174 3849.7748 920.5127 3802.6473 898.4849 Z" fill="none" stroke="#FBC20F" opacity="0.6" stroke-width="1" class="fordham"/>
<path d="M 3920.6155 679.0398 4011.1519 714.7979 4042.232 822.8446 3957.4354 953.5979 3804.0495 895.8162 3920.6155 679.0398 Z" fill="none" stroke="#FBC20F" opacity="0.6" stroke-width="1" class="fordham"/>
<path d="M 3798.3393 741.8231 3720.0379 746.321 3777.5204 616.751 3798.3393 741.8231 Z" fill="none" stroke="#FBC20F" opacity="0.6" stroke-width="1" class="fordham"/>
<path d="M 4018.0413 687.6536 4034.6854 705.1081 4013.4805 729.9724 4047.7154 780.5203 4043.1468 816.4037 4014.5124 811.8424 3975.752 832.1319 3957.2562 811.9165 3961.8655 805.4711 3977.5516 795.3318 3940.5704 761.342 4018.0413 687.6536 Z" fill="none" stroke="#FBC20F" opacity="0.6" stroke-width="1" class="fordham"/>
<path d="M 4049.6225 824.6745 3995.4049 1030.839 3829.0544 956.5118 3808.6654 893.971 3758.7704 872.8647 3720.8975 865.5439 3673.8511 921.7116 3637.8011 889.5446 3890.305 426.6212 3982.673 470.6468 4054.006 653.5723 4150.1002 699.4266 4135.524 835.593 4051.4971 844.9111 4049.6225 824.6745 Z" fill="none" stroke="#FBC20F" opacity="0.6" stroke-width="1" class="fordham"/>
<path d="M 4051.2348 652.6563 4062.3527 680.2351 4012.562 733.6531 4055.0917 772.231 4047.8018 843.9962 3999.9812 998.6281 4018.5378 1061.1741 3820.8118 1019.0887 3820.7892 998.8458 3890.786 829.4773 3927.6513 768.7172 4051.2348 652.6563 Z" fill="none" stroke="#FBC20F" opacity="0.6" stroke-width="1" class="fordham"/>
<path d="M 4012.5352 713.4163 4054.1784 779.5915 4010.8744 854.1655 3926.7664 799.9954 3871.3212 768.7849 3928.4612 676.7306 4012.5352 713.4163 Z" fill="none" stroke="#FBC20F" opacity="0.6" stroke-width="1" class="fordham"/>
<path d="M 3994.0359 838.0089 3958.3364 799.9781 3919.5301 783.4678 3890.9084 788.102 3792.0777 769.8166 3817.852 696.1989 3856.6188 683.2773 3899.1078 695.1849 3947.1267 697.8854 3982.7387 669.3809 4001.2539 706.1497 4039.2145 781.529 4029.1034 816.5 4006.9553 828.4888 3994.0359 838.0089 Z" fill="none" stroke="#FBC20F" opacity="0.6" stroke-width="1" class="fordham"/>
<path d="M 3978.101 504.6789 4339.2357 605.3113 4000.0595 1058.4379 3744.1226 997.0882 3978.101 504.6789 Z" fill="none" stroke="#FBC20F" opacity="0.6" stroke-width="1" class="fordham"/>
<path d="M 3815.0935 860.8437 3879.9323 1022.7012 3815.2615 1011.7338 3726.6404 1063.3573 3737.4975 842.5273 3739.2628 763.4113 3935.0001 737.432 4125.2924 785.0111 4092.3249 981.9406 3909.4816 1015.3047 3815.0935 860.8437 Z" fill="none" stroke="#FBC20F" opacity="0.6" stroke-width="1" class="fordham"/>
<path d="M 3741.7865 748.2305 3809.5788 676.4099 3862.2306 694.0566 4039.9173 818.478 4004.6351 850.0338 3787.7486 768.1894 3742.4817 750.7595 3741.7865 748.2305 Z" fill="none" stroke="#FBC20F" opacity="0.6" stroke-width="1" class="fordham"/>
<path d="M 3832.5146 749.512 3884.1096 651.0299 3913.6248 625.2408 3968.1526 666.5629 3993.1308 703.3235 4016.1873 682.1371 4026.3725 703.2796 4012.5425 718.9353 4045.8535 769.4839 4051.4369 800.7535 4044.089 830.2017 3945.1979 769.6153 3936.9063 785.2641 3936.0469 836.7818 3947.1636 864.3674 3937.0115 869.9 3892.6451 839.5946 3890.7893 832.2371 3887.0756 815.6824 3852.8841 796.4038 3874.9965 753.1425 3832.5146 749.512 Z" fill="none" stroke="#FBC20F" opacity="0.6" stroke-width="1" class="fordham"/>
<path d="M 3898.6402 833.1477 3905.1048 833.1399 3877.8415 816.3833 3864.664 801.2198 3823.3154 780.7988 3810.333 732.0592 3855.5364 694.2943 3887.8413 683.2185 3951.1037 692.7992 3979.2896 710.7001 4014.4685 778.7251 4025.6029 818.2672 3998.3977 847.282 3956.8666 868.9551 3898.6402 833.1477 Z" fill="none" stroke="#FBC20F" opacity="0.6" stroke-width="1" class="fordham"/>
<path d="M 3690.3223 765.3003 3725.3681 721.1113 4056.7849 660.007 4033.0032 827.4568 3690.3223 765.3003 Z" fill="none" stroke="#FBC20F" opacity="0.6" stroke-width="1" class="fordham"/>
<path d="M 3934.5686 761.8094 4033.4551 820.0966 4006.7185 854.1709 3871.3028 753.1468 4013.4525 708.8158 4049.5536 774.0784 4034.8403 820.0947 3934.5686 761.8094 Z" fill="none" stroke="#FBC20F" opacity="0.6" stroke-width="1" class="fordham"/>
<path d="M 3848.2953 821.2474 3717.0352 699.0435 3711.2817 486.5918 3785.0436 401.913 3933.6045 356.6839 4054.5204 354.6872 4189.3189 377.4809 4262.3547 449.0931 4296.8095 632.9739 4307.2909 831.6478 4228.0749 964.2579 4028.5028 914.8628 3848.2953 821.2474 Z" fill="none" stroke="#FBC20F" opacity="0.6" stroke-width="1" class="fordham"/>
<path d="M 3840.9623 824.0636 3698.9377 756.5556 3804.0742 634.1084 3930.617 673.5114 3840.9623 824.0636 Z" fill="none" stroke="#FBC20F" opacity="0.6" stroke-width="1" class="fordham"/>
<path d="M 3815.1681 720.5556 3860.9073 747.1797 3932.2611 762.7321 3899.7772 818.657 3803.4543 774.6115 3815.1681 720.5556 Z" fill="none" stroke="#FBC20F" opacity="0.6" stroke-width="1" class="fordham"/>
<path d="M 4051.5059 851.351 3935.064 788.946 3917.5226 792.6473 3869.4775 771.5468 3850.1126 795.4871 3815.0013 778.0484 3781.751 772.5654 3768.8442 792.8173 3739.2828 782.7292 3721.738 783.6671 3673.7048 769.916 3682.9186 748.7496 3705.9832 727.5698 3714.2808 714.6836 3774.3171 729.3389 3793.6825 705.4019 3840.8107 736.6243 3873.1302 736.5869 3895.2811 727.3619 3934.0709 732.8338 3952.5577 747.5287 3990.3738 713.4453 4030.9549 677.5183 4069.7205 666.4278 4104.8155 671.8974 4137.1702 697.6058 4141.912 783.1471 4115.216 842.0621 4051.5059 851.351 Z" fill="none" stroke="#FBC20F" opacity="0.6" stroke-width="1" class="fordham"/>
<path d="M 4042.8855 623.6948 4140.404 698.9809 4138.2986 838.3489 4087.5273 854.0611 4047.3244 832.4972 4036.7952 900.1311 3882.4935 845.5866 3900.8614 760.4708 4042.8855 623.6948 Z" fill="none" stroke="#FBC20F" opacity="0.6" stroke-width="1" class="fordham"/>
<path d="M 4000.4432 888.7289 3966.2749 891.5331 3923.801 899.8664 3881.2731 863.1173 3837.8208 822.689 3834.0454 750.9397 3864.4627 703.072 3906.9182 686.4647 3961.399 688.2367 4019.5564 677.1233 4056.5486 719.3857 4076 762.5929 4087.1716 826.9721 4066.0034 879.4406 4021.6961 896.981 4000.4432 888.7289 Z" fill="none" stroke="#FBC20F" opacity="0.6" stroke-width="1" class="fordham"/>
<path d="M 3857.397 706.25 3806.8336 698.9486 3792.0183 661.0225 3750.6772 640.3714 3752.4927 610.7072 3740.9088 569.3316 3705.7638 507.749 3739.8971 483.8038 3831.3019 493.8207 3869.0907 441.3595 3930.0578 474.3917 4050.9412 437.4506 4130.3615 459.4091 4171.0758 523.7235 4183.1425 566.9306 4305.0982 620.0837 4351.3545 674.2742 4447.5359 759.6536 4495.7183 848.8002 4433.8488 852.5917 4207.6507 896.2051 4145.7729 897.2178 4079.2758 897.3128 3881.5869 859.8473 3721.7081 754.2303 3857.397 706.25 Z" fill="none" stroke="#FBC20F" opacity="0.6" stroke-width="1" class="fordham"/>
<path d="M 4061.4218 674.7175 4010.6933 717.0981 4050.4808 776.8368 4044.9775 804.442 4003.5502 902.9355 3944.5575 995.9387 3774.5406 938.1702 3870.3783 752.228 3929.4937 765.0353 4049.3881 652.6588 4061.4218 674.7175 Z" fill="none" stroke="#FBC20F" opacity="0.6" stroke-width="1" class="fordham"/>
<path d="M 3691.77 1298.9888 3604.8894 1267.7766 3977.321 615.9634 4121.3736 628.6438 3691.77 1298.9888 Z" fill="none" stroke="#FBC20F" opacity="0.6" stroke-width="1" class="fordham"/>
<path d="M 3687.7797 998.0652 3714.7475 948.8131 4007.1233 986.1972 3730.9921 1028.1564 3687.7797 998.0652 Z" fill="none" stroke="#FBC20F" opacity="0.6" stroke-width="1" class="fordham"/>
<path d="M 3951.6759 780.646 4037.6033 814.5713 3998.1579 1017.0332 3857.6848 954.6389 3951.6759 780.646 Z" fill="none" stroke="#FBC20F" opacity="0.6" stroke-width="1" class="fordham"/>
<path d="M 3872.2241 751.3059 4054.0186 662.7702 4151.2156 830.0503 3953.6539 884.5993 3872.2241 751.3059 Z" fill="none" stroke="#FBC20F" opacity="0.6" stroke-width="1" class="fordham"/></svg>