<?xml version="1.0"?><svg xmlns="http://www.w3.org/2000/svg" version="1.2" baseProfile="tiny" width="6000" height="5918" viewBox="0 0 6000 5918" stroke-linecap="round" stroke-linejoin="round"><path d="M 3555.5052 771.8623 3534.2952 807.7567 3475.1881 802.2835 3467.7674 758.1333 3499.0925 666.125 3555.5052 771.8623 Z" fill="none" stroke="#012394" opacity="0.6" stroke-width="1" class="fort_george"/>
<path d="M 3573.969 765.8673 3592.4673 799.4281 3579.0754 797.5999 3597.1225 842.2017 3536.2742 969.2178 3455.4245 926.9571 3500.5816 799.5042 3573.969 765.8673 Z" fill="none" stroke="#012394" opacity="0.6" stroke-width="1" class="fort_george"/>
<path d="M 3478.7028 870.5882 3503.5823 798.8119 3560.6177 811.6446 3569.1618 813.7072 3599.202 844.0398 3563.016 917.4417 3478.7028 870.5882 Z" fill="none" stroke="#012394" opacity="0.6" stroke-width="1" class="fort_george"/>
<path d="M 3499.1126 691.8797 3623.8127 741.4463 3593.8667 815.5257 3544.765 905.2665 3431.3596 854.293 3405.9597 850.1707 3499.1126 691.8797 Z" fill="none" stroke="#012394" opacity="0.6" stroke-width="1" class="fort_george"/>
<path d="M 3467.8722 898.8867 3494.5961 821.5874 3532.4542 815.1177 3574.4647 805.4233 3585.1055 829.3327 3562.0619 881.3315 3546.8621 928.2658 3525.6467 962.3258 3521.4926 965.0894 3455.4252 927.8772 3467.8722 898.8867 Z" fill="none" stroke="#012394" opacity="0.6" stroke-width="1" class="fort_george"/>
<path d="M 3504.7379 800.4209 3455.888 929.2569 3343.1843 889.7712 3492.6227 657.8518 3544.3683 704.7211 3577.6648 768.1639 3504.7379 800.4209 Z" fill="none" stroke="#012394" opacity="0.6" stroke-width="1" class="fort_george"/>
<path d="M 3595.0105 803.5655 3592.056 856.9258 3573.6134 889.6018 3562.5516 914.452 3525.3618 895.392 3480.319 870.587 3491.6066 836.999 3502.6596 799.7326 3574.1995 765.4071 3595.0105 803.5655 Z" fill="none" stroke="#012394" opacity="0.6" stroke-width="1" class="fort_george"/>
<path d="M 3584.4206 791.36 3623.1936 822.1691 3600.1416 862.2086 3586.0773 884.7609 3567.8572 926.1461 3542.5688 976.0096 3457.5564 928.5166 3478.864 870.3015 3483.6111 854.1974 3489.3322 835.9773 3503.3182 801.0363 3509.534 796.7665 3536.4511 784.8749 3568.8097 769.4648 3575.3626 765.8813 3585.5134 791.6627 3584.4206 791.36 Z" fill="none" stroke="#012394" opacity="0.6" stroke-width="1" class="fort_george"/>
<path d="M 3443.8918 943.9866 3544.8327 707.9401 3612.8123 831.1481 3523.8231 991.7705 3443.8918 943.9866 Z" fill="none" stroke="#012394" opacity="0.6" stroke-width="1" class="fort_george"/>
<path d="M 3520.5616 955.8893 3405.9998 909.0511 3388.4493 905.3827 3511.5548 662.436 3600.3185 801.261 3516.8758 966.9333 3520.5616 955.8893 Z" fill="none" stroke="#012394" opacity="0.6" stroke-width="1" class="fort_george"/>
<path d="M 3546.6819 710.9281 3596.6299 807.2438 3534.8346 902.9746 3478.4704 868.5184 3545.2944 707.9397 3546.6819 710.9281 Z" fill="none" stroke="#012394" opacity="0.6" stroke-width="1" class="fort_george"/>
<path d="M 3549.914 711.1553 3560.0751 715.7461 3560.0798 721.2652 3565.6272 729.5392 3567.4811 737.8164 3571.181 745.1722 3578.5835 762.6437 3579.5149 771.8419 3577.6838 790.2417 3573.0759 801.2847 3579.5371 797.5995 3584.1641 808.6347 3584.1768 823.3538 3586.0391 840.8314 3588.8257 859.2285 3570.3715 878.5644 3554.7011 914.4586 3546.3988 926.4261 3538.0999 942.994 3529.7949 952.2015 3503.9283 945.7816 3470.6664 930.166 3463.2721 922.8111 3532.3823 726.8072 3549.914 711.1553 Z" fill="none" stroke="#012394" opacity="0.6" stroke-width="1" class="fort_george"/>
<path d="M 3504.2738 797.4315 3455.8838 923.5066 3387.7554 903.5431 3479.2986 742.7166 3495.4629 748.4535 3504.2738 797.4315 Z" fill="none" stroke="#012394" opacity="0.6" stroke-width="1" class="fort_george"/>
<path d="M 3593.392 800.8072 3541.2955 897.9091 3476.1584 864.3802 3549.9155 712.995 3593.392 800.8072 Z" fill="none" stroke="#012394" opacity="0.6" stroke-width="1" class="fort_george"/>
<path d="M 3574.8925 765.8665 3593.3959 805.1768 3560.2415 913.0739 3550.0794 909.8622 3469.0027 866.6855 3495.2673 793.9888 3506.1215 798.35 3574.8925 765.8665 Z" fill="none" stroke="#012394" opacity="0.6" stroke-width="1" class="fort_george"/>
<path d="M 3499.2132 821.1239 3651.4418 663.2347 3527.2991 721.2922 3494.595 820.2075 3683.2702 635.6107 3589.2826 853.7082 3499.2132 821.1239 Z" fill="none" stroke="#012394" opacity="0.6" stroke-width="1" class="fort_george"/>
<path d="M 3509.7093 956.3579 3498.6399 974.5384 3454.7485 949.7292 3499.0206 870.3426 3491.3977 865.5186 3500.3884 847.8019 3509.166 853.0849 3520.4647 834.9064 3535.0092 833.9747 3540.5508 834.6601 3551.8694 841.3205 3537.3464 868.702 3553.2844 876.9688 3509.7093 956.3579 Z" fill="none" stroke="#012394" opacity="0.6" stroke-width="1" class="fort_george"/>
<path d="M 3509.7093 956.3579 3456.348 926.7264 3389.373 905.6121 3443.7822 791.7274 3496.1911 794.448 3505.8915 799.5001 3529.9112 810.9801 3543.5254 802.2295 3549.5189 791.1854 3564.0553 781.5141 3574.4306 765.6369 3572.1682 819.6843 3575.6448 835.3206 3543.6018 894.6871 3552.8436 902.0397 3522.641 957.4977 3512.4763 951.5253 3509.7093 956.3579 Z" fill="none" stroke="#012394" opacity="0.6" stroke-width="1" class="fort_george"/>
<path d="M 3617.2681 652.2287 3646.8612 701.8713 3598.0082 799.4232 3542.7302 957.7114 3464.1977 925.5706 3516.7079 756.2558 3521.3015 726.8162 3562.8134 678.0307 3617.2681 652.2287 Z" fill="none" stroke="#012394" opacity="0.6" stroke-width="1" class="fort_george"/>
<path d="M 3548.9883 708.3966 3455.8995 944.8979 3397.6943 919.1772 3381.066 913.6679 3394.8996 883.298 3429.0258 818.876 3505.5603 671.6388 3548.9883 708.3966 Z" fill="none" stroke="#012394" opacity="0.6" stroke-width="1" class="fort_george"/>
<path d="M 3548.9891 709.3164 3596.1629 801.2647 3605.4403 849.0941 3534.4257 967.8392 3527.0455 978.8864 3368.1246 896.1957 3498.1606 655.0882 3548.9891 709.3164 Z" fill="none" stroke="#012394" opacity="0.6" stroke-width="1" class="fort_george"/>
<path d="M 3491.8351 834.009 3479.1353 831.9488 3479.596 830.5685 3482.8258 827.3462 3483.0523 821.5963 3485.3585 818.1447 3486.9709 813.3138 3488.352 808.0231 3490.8881 803.4214 3492.9615 797.6703 3495.7292 794.2184 3499.4199 790.0759 3502.8822 789.1533 3509.8085 789.6078 3513.5046 792.3646 3509.3564 801.7972 3507.9772 809.3877 3510.0592 814.6757 3510.2935 819.0453 3506.1432 825.9482 3506.8396 830.7774 3500.841 836.0719 3494.6089 838.1467 3491.8351 834.009 Z" fill="none" stroke="#012394" opacity="0.6" stroke-width="1" class="fort_george"/>
<path d="M 3549.4515 710.2359 3593.3949 804.0269 3592.9751 851.865 3537.0863 833.053 3535.2344 827.0748 3526.6894 823.8619 3514.9163 825.7113 3507.992 828.2466 3501.5316 833.5415 3491.836 835.1589 3489.9867 832.1705 3503.5811 797.202 3457.1534 765.7303 3503.4739 660.3728 3511.0978 668.4151 3549.4515 710.2359 Z" fill="none" stroke="#012394" opacity="0.6" stroke-width="1" class="fort_george"/>
<path d="M 3547.6047 710.2374 3592.2403 803.7979 3551.0028 909.6315 3450.9878 858.6489 3465.2832 832.6491 3493.1904 795.1403 3514.1555 739.93 3523.3728 718.9958 3542.0663 712.5416 3516.4637 739.4682 3547.6047 710.2374 Z" fill="none" stroke="#012394" opacity="0.6" stroke-width="1" class="fort_george"/>
<path d="M 3488.1415 834.4718 3444.2618 816.5653 3428.5544 805.0772 3468.2178 742.9549 3497.264 689.5816 3534.6739 706.1088 3488.1415 834.4718 Z" fill="none" stroke="#012394" opacity="0.6" stroke-width="1" class="fort_george"/>
<path d="M 3548.5283 710.4666 3575.5855 766.3259 3577.2587 832.7893 3538.9918 904.3512 3478.7063 875.1882 3480.09 873.1172 3478.2409 870.3586 3470.3873 865.7645 3496.4215 793.7579 3505.4264 795.1308 3520.4052 760.6223 3519.2343 739.9259 3548.5283 710.4666 Z" fill="none" stroke="#012394" opacity="0.6" stroke-width="1" class="fort_george"/>
<path d="M 3538.1233 971.5165 3459.5818 928.3341 3515.7808 751.6571 3657.0192 702.7815 3538.1233 971.5165 Z" fill="none" stroke="#012394" opacity="0.6" stroke-width="1" class="fort_george"/>
<path d="M 3594.7795 803.3357 3534.8891 969.679 3453.8082 926.9583 3504.7365 798.581 3520.8523 742.4543 3547.836 710.6971 3594.7795 803.3357 Z" fill="none" stroke="#012394" opacity="0.6" stroke-width="1" class="fort_george"/>
<path d="M 3498.1885 690.9606 3547.6036 708.8576 3595.2406 802.6454 3580.531 879.0157 3550.2884 883.6414 3421.655 843.4901 3498.1885 690.9606 Z" fill="none" stroke="#012394" opacity="0.6" stroke-width="1" class="fort_george"/>
<path d="M 3564.8203 849.9956 3552.3442 839.8864 3538.9446 829.3179 3522.3182 825.1916 3502.9157 813.7076 3492.2927 810.0361 3495.9756 795.7743 3513.0456 777.8225 3519.3865 735.7179 3543.2452 699.885 3594.8934 799.5483 3581.8433 831.008 3564.8203 849.9956 Z" fill="none" stroke="#012394" opacity="0.6" stroke-width="1" class="fort_george"/>
<path d="M 3575.8195 770.0052 3574.9699 856.0206 3552.3688 886.3997 3531.6002 900.6771 3506.6522 885.9767 3484.4783 874.9538 3492.3036 842.7483 3502.9007 812.8415 3507.0387 790.2999 3529.6602 786.1422 3555.9719 777.8413 3575.8195 770.0052 Z" fill="none" stroke="#012394" opacity="0.6" stroke-width="1" class="fort_george"/>
<path d="M 3515.9493 963.2536 3454.0388 926.4981 3544.3729 710.2401 3599.8649 810.4608 3527.9655 974.2851 3515.9493 963.2536 Z" fill="none" stroke="#012394" opacity="0.6" stroke-width="1" class="fort_george"/>
<path d="M 3591.5471 803.1086 3594.3556 846.344 3536.2708 965.0774 3455.886 926.4967 3429.0945 916.3955 3392.1472 910.9005 3398.595 885.1355 3494.4929 688.204 3545.2955 709.3195 3591.5471 803.1086 Z" fill="none" stroke="#012394" opacity="0.6" stroke-width="1" class="fort_george"/>
<path d="M 3488.14 832.6319 3574.0176 822.4426 3514.0947 954.0543 3457.7359 930.1756 3488.14 832.6319 Z" fill="none" stroke="#012394" opacity="0.6" stroke-width="1" class="fort_george"/>
<path d="M 3434.5744 911.5025 3486.2121 802.9062 3511.1431 799.2071 3458.5991 927.1259 3434.5744 911.5025 Z" fill="none" stroke="#012394" opacity="0.6" stroke-width="1" class="fort_george"/>
<path d="M 3479.2163 938.9001 3476.6771 939.8221 3466.9725 930.8588 3500.4054 869.6515 3536.1626 832.8238 3568.7008 814.6276 3551.4557 899.0507 3534.6602 972.2095 3508.7864 957.2788 3479.2163 938.9001 Z" fill="none" stroke="#012394" opacity="0.6" stroke-width="1" class="fort_george"/>
<path d="M 3546.2166 706.5592 3592.006 799.8884 3596.1977 840.8225 3537.1967 967.8369 3419.8554 911.8017 3380.1328 898.948 3503.7042 659.6828 3546.2166 706.5592 Z" fill="none" stroke="#012394" opacity="0.6" stroke-width="1" class="fort_george"/>
<path d="M 3547.1438 711.1576 3577.6664 770.0037 3507.5055 796.739 3517.6196 741.537 3538.8363 714.8439 3547.1438 711.1576 Z" fill="none" stroke="#012394" opacity="0.6" stroke-width="1" class="fort_george"/>
<path d="M 3550.9999 906.1813 3503.0292 977.0652 3451.2814 944.9013 3489.0918 869.4303 3509.3814 833.5353 3518.6099 825.2483 3538.0049 827.0726 3567.5429 810.4888 3574.0278 834.402 3543.5991 891.4671 3550.9999 906.1813 Z" fill="none" stroke="#012394" opacity="0.6" stroke-width="1" class="fort_george"/>
<path d="M 3548.067 710.9269 3593.856 803.3366 3591.5947 857.3862 3532.5792 968.7608 3457.7319 924.6553 3518.5518 752.5748 3523.1512 730.4941 3548.067 710.9269 Z" fill="none" stroke="#012394" opacity="0.6" stroke-width="1" class="fort_george"/>
<path d="M 3592.4698 802.1879 3590.6655 850.9471 3471.9507 795.3864 3508.3289 669.797 3511.1004 671.6344 3592.4698 802.1879 Z" fill="none" stroke="#012394" opacity="0.6" stroke-width="1" class="fort_george"/>
<path d="M 3572.1225 766.3288 3534.374 904.355 3477.0843 867.5995 3543.4518 713.0004 3548.9929 713.9156 3572.1225 766.3288 Z" fill="none" stroke="#012394" opacity="0.6" stroke-width="1" class="fort_george"/>
<path d="M 3493.7102 870.3467 3486.2973 838.1531 3504.7589 827.0992 3514.8984 803.1727 3542.6012 801.3104 3563.8513 813.2518 3559.2571 840.8543 3538.9677 874.9107 3516.8289 908.0493 3489.113 897.0306 3493.7102 870.3467 Z" fill="none" stroke="#012394" opacity="0.6" stroke-width="1" class="fort_george"/>
<path d="M 3547.1438 711.1576 3592.9311 801.7275 3594.3495 839.4442 3589.2874 859.2281 3534.4257 967.8392 3455.4249 927.4171 3414.3139 911.8055 3396.3031 910.4377 3388.9104 904.4624 3530.0678 719.4503 3547.1438 711.1576 Z" fill="none" stroke="#012394" opacity="0.6" stroke-width="1" class="fort_george"/>
<path d="M 3548.9921 712.9958 3575.8203 770.9251 3572.6 784.7265 3551.8467 814.1818 3544.4694 827.0672 3553.7006 822.4598 3567.5464 814.6286 3577.7227 835.3188 3537.6035 900.6722 3480.3195 871.277 3454.9109 856.1161 3451.2074 843.2391 3434.1096 825.3121 3439.6434 815.1887 3477.9095 737.4284 3505.1145 691.875 3548.9921 712.9958 Z" fill="none" stroke="#012394" opacity="0.6" stroke-width="1" class="fort_george"/>
<path d="M 3457.2724 927.8758 3486.2944 834.4732 3597.0839 798.5041 3533.2729 969.9103 3457.2724 927.8758 Z" fill="none" stroke="#012394" opacity="0.6" stroke-width="1" class="fort_george"/>
<path d="M 3510.289 813.2956 3492.9977 844.5877 3488.2681 849.0762 3489.3068 848.7304 3486.7682 850.1123 3492.3102 851.2581 3495.074 842.5162 3489.7671 846.8901 3490.4578 844.3597 3491.8383 838.1488 3497.6033 829.1747 3498.292 824.1144 3496.6852 836.0751 3499.4507 829.6333 3504.2937 822.7298 3496.2136 823.4261 3501.5223 821.582 3503.3637 814.451 3502.4339 806.4023 3506.817 802.0291 3504.519 815.6 3507.5161 810.308 3509.5885 803.4069 3513.5097 798.8041 3519.0472 794.66 3523.8938 792.5863 3530.3597 794.6509 3530.8263 800.6301 3546.7647 810.7363 3535.0047 828.455 3536.1564 825.2342 3538.6936 822.2422 3537.3019 814.4238 3535.4467 804.306 3530.8293 804.3098 3525.7546 809.8335 3529.9135 813.7399 3531.5384 824.548 3528.313 833.0602 3514.4677 842.271 3508.2448 856.0755 3500.6372 870.8014 3492.5601 875.8676 3485.1655 867.8233 3510.289 813.2956 Z" fill="none" stroke="#012394" opacity="0.6" stroke-width="1" class="fort_george"/>
<path d="M 3456.3485 927.4164 3447.1095 923.2829 3456.3262 897.0552 3463.7018 879.5695 3469.6936 864.385 3472.916 851.0428 3478.9057 833.5589 3486.74 813.3139 3492.7292 795.8306 3495.0368 794.4489 3503.3498 796.7423 3518.0953 759.0144 3518.5394 736.9369 3526.8397 724.0522 3547.6047 710.2374 3574.4304 765.4069 3568.4472 787.9498 3557.8366 798.9979 3550.4577 809.5833 3544.0039 822.4679 3536.6204 827.9937 3527.8442 824.321 3511.6851 827.0938 3501.5316 833.5415 3490.4506 834.93 3478.01 870.3587 3465.1053 903.9489 3456.3485 927.4164 Z" fill="none" stroke="#012394" opacity="0.6" stroke-width="1" class="fort_george"/>
<path d="M 3426.7869 902.5091 3438.3102 948.9341 3419.0747 1011.3022 3367.6765 982.5634 3386.1102 922.7464 3426.7869 902.5091 Z" fill="none" stroke="#012394" opacity="0.6" stroke-width="1" class="fort_george"/>
<path d="M 3547.6038 709.0876 3594.5472 801.7261 3561.3966 913.7629 3468.3092 865.536 3518.9968 731.6473 3547.6049 710.4674 3547.6038 709.0876 Z" fill="none" stroke="#012394" opacity="0.6" stroke-width="1" class="fort_george"/>
<path d="M 3449.3951 891.0801 3493.6504 792.8401 3507.9648 793.7489 3505.2007 801.8004 3466.7191 900.7276 3449.3951 891.0801 Z" fill="none" stroke="#012394" opacity="0.6" stroke-width="1" class="fort_george"/>
<path d="M 3445.7364 940.305 3360.75 918.2812 3445.6155 772.8679 3505.6563 793.9807 3445.7364 940.305 Z" fill="none" stroke="#012394" opacity="0.6" stroke-width="1" class="fort_george"/>
<path d="M 3573.3813 888.222 3559.0938 921.1252 3534.1965 969.9096 3455.8872 928.1068 3484.2295 851.4943 3499.8985 811.6939 3507.2757 798.1191 3528.2949 810.7514 3549.9861 797.8545 3563.5947 782.8944 3572.5876 770.238 3581.1339 775.2901 3595.2416 803.7953 3595.5025 837.8332 3573.3813 888.222 Z" fill="none" stroke="#012394" opacity="0.6" stroke-width="1" class="fort_george"/>
<path d="M 3504.6319 665.2009 3567.4881 746.0953 3598.0155 807.7026 3559.3199 915.3747 3410.5742 845.5677 3503.7049 660.6026 3504.6319 665.2009 Z" fill="none" stroke="#012394" opacity="0.6" stroke-width="1" class="fort_george"/>
<path d="M 3538.9299 828.9117 3511.2234 827.0941 3489.9878 833.5504 3479.8585 872.1973 3457.7339 927.4154 3382.906 902.6263 3439.1692 797.7103 3538.9299 828.9117 Z" fill="none" stroke="#012394" opacity="0.6" stroke-width="1" class="fort_george"/>
<path d="M 3456.5789 926.7262 3483.5376 852.4148 3505.1988 799.2706 3528.9877 810.9808 3539.3734 806.6026 3549.5189 791.1854 3563.1332 783.1247 3570.9712 769.7794 3619.0327 816.4232 3602.6672 846.3366 3534.6591 970.8293 3507.8617 955.8994 3456.5789 926.7262 Z" fill="none" stroke="#012394" opacity="0.6" stroke-width="1" class="fort_george"/>
<path d="M 3578.589 769.083 3594.3434 832.5445 3510.2788 800.4165 3526.8664 757.1675 3565.635 738.7378 3578.589 769.083 Z" fill="none" stroke="#012394" opacity="0.6" stroke-width="1" class="fort_george"/>
<path d="M 3509.2515 668.8764 3591.5431 798.509 3508.5522 953.1386 3390.2976 907.2216 3509.2515 668.8764 Z" fill="none" stroke="#012394" opacity="0.6" stroke-width="1" class="fort_george"/>
<path d="M 3573.2739 762.8782 3506.3473 791.9103 3548.2977 710.6968 3573.2739 762.8782 Z" fill="none" stroke="#012394" opacity="0.6" stroke-width="1" class="fort_george"/>
<path d="M 3535.2945 900.6741 3446.5982 854.7421 3603.428 663.2786 3652.4266 728.5416 3535.2945 900.6741 Z" fill="none" stroke="#012394" opacity="0.6" stroke-width="1" class="fort_george"/>
<path d="M 3548.5278 709.7767 3593.8566 804.0265 3573.1071 837.6227 3501.0419 797.664 3533.2881 705.1901 3548.5278 709.7767 Z" fill="none" stroke="#012394" opacity="0.6" stroke-width="1" class="fort_george"/></svg>