<?xml version="1.0"?><svg xmlns="http://www.w3.org/2000/svg" version="1.2" baseProfile="tiny" width="6000" height="5918" viewBox="0 0 6000 5918" stroke-linecap="round" stroke-linejoin="round"><path d="M 2466.6129 4158.8106 2529.6204 4209.6048 2509.2011 4317.6237 2507.3254 4397.9568 2374.7947 4324.0411 2321.0819 4219.6854 2309.0621 4159.6709 2313.7056 4139.3633 2306.297 4128.2818 2309.0812 4119.9748 2306.3073 4107.0496 2466.6129 4158.8106 Z" fill="none" stroke="#012394" opacity="0.6" stroke-width="1" class="fort_hamilton"/>
<path d="M 2514.7923 4205.9081 2403.5295 4324.0525 2387.7787 4306.503 2354.4316 4256.6309 2333.1407 4197.5335 2322.0567 4117.2116 2362.8272 4130.1539 2461.9782 4161.5787 2514.7923 4205.9081 Z" fill="none" stroke="#012394" opacity="0.6" stroke-width="1" class="fort_hamilton"/>
<path d="M 2327.6208 4109.1367 2459.8965 4150.4999 2510.3943 4189.7505 2477.2464 4238.6725 2389.8548 4330.2798 2344.4818 4225.2356 2327.8196 4180.2208 2330.6121 4153.9112 2324.3646 4136.3681 2326.4622 4109.5977 2326.2311 4108.4437 2327.6208 4109.1367 Z" fill="none" stroke="#012394" opacity="0.6" stroke-width="1" class="fort_hamilton"/>
<path d="M 2389.6318 4308.3504 2325.9925 4183.1474 2336.245 4055.7582 2505.1669 4103.0293 2389.6318 4308.3504 Z" fill="none" stroke="#012394" opacity="0.6" stroke-width="1" class="fort_hamilton"/>
<path d="M 2323.005 4071.2868 2468.943 4116.5767 2377.5749 4325.4273 2323.4074 4201.6835 2321.1526 4069.209 2323.005 4071.2868 Z" fill="none" stroke="#012394" opacity="0.6" stroke-width="1" class="fort_hamilton"/>
<path d="M 2516.8835 4398.4082 2451.0643 4404.8525 2392.6803 4360.5081 2371.377 4319.8717 2328.7717 4247.8353 2325.0905 4191.5159 2314.9801 4103.8606 2315.9126 4091.8605 2395.5435 4258.9939 2439.0979 4283.0155 2474.333 4239.6328 2516.9623 4260.8801 2498.4057 4329.2003 2528.2458 4365.1161 2537.318 4349.8808 2516.8835 4398.4082 Z" fill="none" stroke="#012394" opacity="0.6" stroke-width="1" class="fort_hamilton"/>
<path d="M 2532.1827 4154.5594 2331.6909 4074.9832 2554.3642 4426.8256 2490.286 4417.5748 2317.6751 4074.3998 2324.7407 4075.2108 2329.6056 4075.5592 2532.1827 4154.5594 Z" fill="none" stroke="#012394" opacity="0.6" stroke-width="1" class="fort_hamilton"/>
<path d="M 2372.0066 4341.5836 2310.9059 4179.982 2414.7006 4194.7976 2525.8993 4264.0761 2531.4272 4398.8865 2453.555 4410.8685 2372.0066 4341.5836 Z" fill="none" stroke="#012394" opacity="0.6" stroke-width="1" class="fort_hamilton"/>
<path d="M 2393.3246 4346.2091 2339.3669 4263.5488 2323.6436 4191.9898 2320.4392 4108.2102 2326.6946 4108.2131 2458.7384 4149.3455 2509.6994 4189.0579 2393.3246 4346.2091 Z" fill="none" stroke="#012394" opacity="0.6" stroke-width="1" class="fort_hamilton"/>
<path d="M 2358.1203 4300.0275 2324.7789 4241.8452 2316.503 4103.3619 2461.9823 4148.6542 2538.8879 4212.3768 2518.4843 4264.0742 2493.4628 4250.2182 2478.6214 4288.9919 2438.771 4271.4363 2389.6149 4350.8244 2358.1203 4300.0275 Z" fill="none" stroke="#012394" opacity="0.6" stroke-width="1" class="fort_hamilton"/>
<path d="M 2386.8363 4345.2831 2334.0381 4262.1615 2322.023 4189.2194 2314.6487 4105.2073 2454.5679 4149.5749 2534.2538 4212.3756 2485.0727 4413.6487 2386.8363 4345.2831 Z" fill="none" stroke="#012394" opacity="0.6" stroke-width="1" class="fort_hamilton"/>
<path d="M 2482.3428 4242.8287 2459.159 4281.5994 2422.999 4312.9798 2383.1315 4337.8948 2342.3753 4272.3214 2324.8012 4193.8367 2322.055 4120.9042 2327.6227 4105.2134 2459.2041 4142.1911 2515.7254 4181.9047 2482.3428 4242.8287 Z" fill="none" stroke="#012394" opacity="0.6" stroke-width="1" class="fort_hamilton"/>
<path d="M 2516.649 4193.9067 2495.2923 4335.1634 2481.3677 4403.4899 2458.1922 4404.4061 2427.6056 4391.4678 2411.8515 4378.5345 2398.8845 4350.8281 2410.9425 4330.5188 2516.649 4193.9067 Z" fill="none" stroke="#012394" opacity="0.6" stroke-width="1" class="fort_hamilton"/>
<path d="M 3246.1902 1303.6932 3283.8145 1253.7419 3358.4485 1297.4165 3344.6117 1334.2422 3323.8148 1322.5191 3314.3547 1341.1637 3246.1902 1303.6932 Z" fill="none" stroke="#012394" opacity="0.6" stroke-width="1" class="fort_hamilton"/>
<path d="M 2437.8575 4232.6585 2775.2269 4224.406 2684.3715 4526.3518 2753.9093 4260.4132 2437.8575 4232.6585 Z" fill="none" stroke="#012394" opacity="0.6" stroke-width="1" class="fort_hamilton"/>
<path d="M 2560.1596 4420.132 2382.3586 3957.5477 2558.3076 4410.8972 2560.1596 4420.132 Z" fill="none" stroke="#012394" opacity="0.6" stroke-width="1" class="fort_hamilton"/>
<path d="M 2501.8228 4184.6705 2469.3345 4346.2359 2380.3627 4308.3467 2325.7654 4113.5208 2501.8228 4184.6705 Z" fill="none" stroke="#012394" opacity="0.6" stroke-width="1" class="fort_hamilton"/>
<path d="M 2387.5931 3998.4695 2475.6143 4020.6535 2499.7028 4034.5064 2553.442 4062.2122 2340.3298 4012.295 2331.0203 4106.4455 2322.6522 4165.5239 2340.2398 4212.6158 2347.6429 4238.47 2349.4824 4270.7854 2379.7564 4281.262 2402.001 4283.1174 2397.3766 4257.2635 2410.3651 4224.031 2415.9391 4188.9504 2415.0335 4131.7127 2415.9824 4071.7098 2411.3573 4049.5539 2430.8208 4039.4072 2464.1757 4053.2646 2486.4137 4059.733 2521.6258 4065.2812 2546.643 4078.2107 2567.0311 4073.5997 2552.1973 4104.0593 2527.1677 4137.2865 2503.9901 4169.5916 2480.8109 4201.8972 2473.3936 4211.1272 2465.9694 4241.5921 2447.4225 4271.1309 2432.5915 4273.8957 2427.0415 4242.5022 2414.9904 4248.0374 2418.7063 4224.9574 2429.8708 4104.9469 2387.5931 3998.4695 Z" fill="none" stroke="#012394" opacity="0.6" stroke-width="1" class="fort_hamilton"/>
<path d="M 2497.1464 4334.2406 2526.3386 4359.6409 2569.4396 4373.0399 2580.565 4364.27 2598.639 4374.8923 2566.6493 4417.363 2519.3758 4400.2686 2431.7775 4390.0842 2355.8061 4293.1016 2331.2708 4233.0772 2345.1751 4229.3905 2373.4481 4218.3237 2402.6387 4229.8759 2429.5102 4248.8127 2429.046 4251.1207 2448.0428 4262.2066 2469.8325 4235.9005 2517.557 4265.9205 2497.1464 4334.2406 Z" fill="none" stroke="#012394" opacity="0.6" stroke-width="1" class="fort_hamilton"/>
<path d="M 2525.8991 4264.9994 2521.2282 4406.2713 2384.9835 4342.5123 2323.8848 4171.6794 2414.7009 4193.8744 2525.8991 4264.9994 Z" fill="none" stroke="#012394" opacity="0.6" stroke-width="1" class="fort_hamilton"/>
<path d="M 2497.8414 4334.9333 2471.4258 4328.0003 2425.2912 4382.6947 2383.6013 4322.198 2389.1672 4311.3511 2374.1109 4296.5718 2344.4795 4230.3135 2371.5945 4218.3229 2402.8704 4229.876 2429.0481 4245.1195 2428.5835 4248.3507 2447.3478 4261.9755 2468.4431 4232.8995 2518.7159 4264.7667 2497.8414 4334.9333 Z" fill="none" stroke="#012394" opacity="0.6" stroke-width="1" class="fort_hamilton"/>
<path d="M 2326.1159 4107.9569 2460.8344 4149.9552 2510.8463 4190.9324 2478.5417 4239.9313 2409.5188 4322.1215 2374.8618 4337.448 2333.0614 4265.9126 2319.8496 4202.3473 2316.5937 4108.6931 2317.3722 4104.8899 2326.1159 4107.9569 Z" fill="none" stroke="#012394" opacity="0.6" stroke-width="1" class="fort_hamilton"/>
<path d="M 2488.7859 4396.1048 2471.1726 4397.0229 2446.1458 4390.5509 2423.9009 4382.2325 2400.738 4351.7522 2386.8455 4322.1993 2378.5119 4300.9594 2379.4414 4294.4965 2384.0808 4282.4954 2389.6538 4252.9524 2404.4959 4220.6442 2410.9916 4199.4123 2420.2587 4202.1854 2436.9381 4211.4236 2443.4258 4211.4258 2455.4705 4223.432 2467.5167 4231.7451 2474.93 4236.3637 2491.6115 4241.9082 2515.7057 4256.6872 2516.6294 4268.6901 2511.9915 4281.615 2507.3526 4298.2333 2500.8578 4321.3148 2499.9262 4337.9348 2494.3603 4352.707 2490.6477 4369.3267 2489.7161 4385.0241 2488.7859 4396.1048 Z" fill="none" stroke="#012394" opacity="0.6" stroke-width="1" class="fort_hamilton"/>
<path d="M 2315.5433 4172.5986 2515.7318 4157.9017 2625.0718 4281.6386 2552.7436 4419.2069 2402.5824 4376.6842 2320.1633 4202.1436 2315.5433 4172.5986 Z" fill="none" stroke="#012394" opacity="0.6" stroke-width="1" class="fort_hamilton"/>
<path d="M 2374.8027 4304.6511 2322.9748 4135.675 2465.6797 4179.1205 2424.8595 4294.514 2374.8027 4304.6511 Z" fill="none" stroke="#012394" opacity="0.6" stroke-width="1" class="fort_hamilton"/>
<path d="M 2428.583 4249.7356 2509.2066 4297.3105 2497.6096 4335.164 2531.4365 4361.0273 2513.8131 4402.5757 2453.0937 4404.4044 2416.4844 4384.0766 2378.5028 4323.1193 2428.583 4249.7356 Z" fill="none" stroke="#012394" opacity="0.6" stroke-width="1" class="fort_hamilton"/>
<path d="M 2537.0347 4210.5299 2595.3949 4373.0449 2560.161 4413.6679 2385.9116 4339.7426 2332.1869 4256.6209 2326.2312 4108.2129 2459.4334 4149.5765 2510.1625 4189.9813 2537.0347 4210.5299 Z" fill="none" stroke="#012394" opacity="0.6" stroke-width="1" class="fort_hamilton"/></svg>