<?xml version="1.0"?><svg xmlns="http://www.w3.org/2000/svg" version="1.2" baseProfile="tiny" width="6000" height="5918" viewBox="0 0 6000 5918" stroke-linecap="round" stroke-linejoin="round"><path d="M 4809.6123 2506.5019 4869.7551 2510.0562 4871.4821 2454.7585 4907.5588 2453.7558 4953.8242 2458.2574 4977.8077 2428.7127 4977.7019 2383.5599 5002.6886 2388.1084 5136.9571 2443.0707 5223.8575 2420.732 5290.9205 2591.9704 5242.8351 2602.2363 5121.7181 2638.4925 5008.9503 2687.6193 5024.7691 2724.4528 5024.8904 2775.1527 4888.0352 2822.4856 4873.9866 2747.8467 4822.2133 2770.0848 4807.2892 2715.7301 4805.3568 2677.9416 4801.6079 2655.8279 4809.6123 2506.5019 Z" fill="none" stroke="#012394" opacity="0.6" stroke-width="1" class="fresh_meadows"/>
<path d="M 5008.3699 2500.5212 5065.4372 2476.4259 5106.4188 2587.8403 4998.2631 2628.6564 5004.4799 2518.965 5008.3699 2500.5212 Z" fill="none" stroke="#012394" opacity="0.6" stroke-width="1" class="fresh_meadows"/>
<path d="M 4873.4701 2516.499 5167.4966 2447.6011 5182.3028 2449.4064 5245.5963 2596.6989 4871.2084 2746.9311 4873.4701 2516.499 Z" fill="none" stroke="#012394" opacity="0.6" stroke-width="1" class="fresh_meadows"/>
<path d="M 4980.5743 2425.0202 5156.1622 2355.4813 5244.6759 2598.5447 5010.8098 2691.3019 4988.3979 2604.7129 4954.7472 2457.3337 4980.5743 2425.0202 Z" fill="none" stroke="#012394" opacity="0.6" stroke-width="1" class="fresh_meadows"/>
<path d="M 5005.2515 2493.6168 5185.9724 2437.4171 5244.6856 2602.2314 5011.2658 2688.5355 4995.087 2498.7095 5005.2515 2493.6168 Z" fill="none" stroke="#012394" opacity="0.6" stroke-width="1" class="fresh_meadows"/>
<path d="M 4753.2736 2499.1574 4785.5689 2401.6405 4800.3617 2397.9228 4887.1706 2333.2302 5023.9792 2296.0568 5155.5185 2345.3101 5218.8967 2529.4518 5115.6479 2578.8652 4995.5087 2638.1444 4804.9773 2673.6009 4753.2736 2499.1574 Z" fill="none" stroke="#012394" opacity="0.6" stroke-width="1" class="fresh_meadows"/>
<path d="M 4887.4144 2340.4592 5122.7609 2315.0227 5216.9163 2597.6955 5006.1219 2665.5039 4986.7858 2607.7121 5099.3679 2580.4817 4866.0313 2603.6105 4887.4144 2340.4592 Z" fill="none" stroke="#012394" opacity="0.6" stroke-width="1" class="fresh_meadows"/>
<path d="M 5122.6411 2637.5684 4873.0612 2747.8487 4863.5555 2634.4928 4875.1845 2455.6718 5153.4035 2361.9383 5222.0529 2438.2455 5281.6559 2587.3868 5122.6411 2637.5684 Z" fill="none" stroke="#012394" opacity="0.6" stroke-width="1" class="fresh_meadows"/>
<path d="M 5180.4066 2431.4415 5213.5263 2539.1796 5047.162 2609.1811 4906.1609 2653.2924 4865.4614 2659.375 4865.3404 2604.9945 4870.2105 2506.8296 4809.1467 2505.1206 4812.2729 2453.5064 4765.534 2443.4698 4772.8681 2412.1229 4769.1425 2400.1514 4838.3963 2343.3324 4889.2789 2346.905 4886.0063 2331.2481 4876.7235 2316.5264 4873.4347 2293.499 4977.955 2294.1812 4977.7009 2383.0992 5136.4957 2443.5326 5180.4066 2431.4415 Z" fill="none" stroke="#012394" opacity="0.6" stroke-width="1" class="fresh_meadows"/>
<path d="M 4891.5523 2740.4328 4886 2740.4452 4867.312 2659.3709 4990.2962 2624.9856 5008.946 2685.7758 4891.5523 2740.4328 Z" fill="none" stroke="#012394" opacity="0.6" stroke-width="1" class="fresh_meadows"/>
<path d="M 4883.9486 2301.3569 4886.6721 2257.8983 5257.4612 2220.1391 5272.4058 2275.3798 5389.7245 2555.1971 5217.2266 2612.4177 4874.2607 2738.7827 4879.5075 2602.3527 4892.0042 2399.5767 4883.9486 2301.3569 Z" fill="none" stroke="#012394" opacity="0.6" stroke-width="1" class="fresh_meadows"/>
<path d="M 4923.4476 2524.6806 5000.8407 2389.0343 5007.2963 2380.7257 5013.4423 2242.5014 5027.3046 2237.8616 5035.6285 2237.8416 5080.8665 2204.5645 5099.4251 2229.3941 5110.5854 2254.2424 5143.1658 2337.0854 5169.1262 2360.977 5172.014 2405.2001 5202.7904 2501.8825 5017.2871 2691.2865 4842.5519 2760.8219 4808.8846 2597.7449 4777.4993 2197.8896 4719.3008 2230.2575 4635.1607 2242.4051 4665.669 2235.8949 4711.8922 2225.6662 4781.1869 2192.354 4834.8296 2193.1592 4865.3452 2191.2493 4894.9546 2197.6319 4915.2928 2193.9007 4925.5251 2219.6736 4966.2643 2238.9272 5003.2488 2234.2336 5003.2532 2236.0763 4969.2637 2533.33 4923.4476 2524.6806 Z" fill="none" stroke="#012394" opacity="0.6" stroke-width="1" class="fresh_meadows"/>
<path d="M 4998.7442 2683.4347 4996.008 2502.4509 5005.231 2490.4485 5008.7914 2431.4613 5037.3889 2398.219 5191.0257 2347.9647 5218.516 2414.2614 5231.6622 2586.4533 4998.7442 2683.4347 Z" fill="none" stroke="#012394" opacity="0.6" stroke-width="1" class="fresh_meadows"/>
<path d="M 4995.0848 2497.788 5131.8933 2452.7594 5180.9776 2473.8307 5206.5934 2541.5016 5230.8105 2603.6502 5124.0221 2634.7999 5013.1022 2682.5397 4987.9418 2607.479 4995.0848 2497.788 Z" fill="none" stroke="#012394" opacity="0.6" stroke-width="1" class="fresh_meadows"/>
<path d="M 4999.5637 2499.4878 5179.7217 2436.7438 5243.5827 2590.2506 4946.93 2722.8235 4937.761 2509.8321 4999.5637 2499.4878 Z" fill="none" stroke="#012394" opacity="0.6" stroke-width="1" class="fresh_meadows"/>
<path d="M 5236.3536 2600.4099 5013.5814 2689.4518 4998.763 2683.9564 4999.9833 2417.6024 5158.0308 2362.8481 5236.3536 2600.4099 Z" fill="none" stroke="#012394" opacity="0.6" stroke-width="1" class="fresh_meadows"/>
<path d="M 5178.5553 2430.9855 5070.4026 2464.4308 4944.686 2507.1214 4800.3449 2499.1493 4706.8564 2475.3854 4751.0218 2361.0275 4814.6331 2262.302 4975.5024 2234.299 5097.5935 2236.7692 5127.3212 2289.2124 5178.5553 2430.9855 Z" fill="none" stroke="#012394" opacity="0.6" stroke-width="1" class="fresh_meadows"/>
<path d="M 4873.4866 2523.8718 5185.9819 2441.1032 5244.6783 2599.4664 4868.4507 2755.2336 4873.4866 2523.8718 Z" fill="none" stroke="#012394" opacity="0.6" stroke-width="1" class="fresh_meadows"/>
<path d="M 5007.3882 2419.4279 5314.2077 2307.154 5407.4378 2569.5318 5009.8779 2688.5388 5002.7497 2413.9099 5007.3882 2419.4279 Z" fill="none" stroke="#012394" opacity="0.6" stroke-width="1" class="fresh_meadows"/>
<path d="M 4762.4375 2510.2893 5177.6585 2442.046 5267.1013 2681.4402 4834.3526 2819.839 4762.4375 2510.2893 Z" fill="none" stroke="#012394" opacity="0.6" stroke-width="1" class="fresh_meadows"/>
<path d="M 5289.9977 2592.8946 5118.0285 2643.1102 4996.0045 2691.337 4872.1585 2757.9908 4866.4461 2686.1035 4869.9009 2575.491 4873.3055 2442.7746 4898.9955 2348.726 4878.3115 2199.5119 4976.3798 2214.028 5068.8974 2226.7052 5137.3797 2243.1194 5174.4505 2272.5086 5219.1388 2384.8063 5289.9977 2592.8946 Z" fill="none" stroke="#012394" opacity="0.6" stroke-width="1" class="fresh_meadows"/>
<path d="M 4968.8576 2557.5236 5004.2589 2562.7398 4999.2564 2599.1571 4967.3336 2598.3104 4968.8576 2557.5236 Z" fill="none" stroke="#012394" opacity="0.6" stroke-width="1" class="fresh_meadows"/>
<path d="M 5045.0798 2321.6633 5173.9146 2425.0075 5006.1963 2307.014 5357.0445 2749.4102 5111.1756 2864.3658 5002.0932 2527.2624 5045.0798 2321.6633 Z" fill="none" stroke="#012394" opacity="0.6" stroke-width="1" class="fresh_meadows"/>
<path d="M 5037.8173 2763.1378 5006.9659 2241.5954 5167.8823 2235.6716 5261.4788 2654.7244 5037.8173 2763.1378 Z" fill="none" stroke="#012394" opacity="0.6" stroke-width="1" class="fresh_meadows"/>
<path d="M 5174.4905 2288.1718 5255.7447 2585.6122 5002.4447 2675.6519 4989.3687 2624.0661 5017.2759 2298.6951 5174.4905 2288.1718 Z" fill="none" stroke="#012394" opacity="0.6" stroke-width="1" class="fresh_meadows"/>
<path d="M 5021.0285 2320.7997 5004.2087 2248.9726 5148.4691 2239.4061 5269.6182 2583.7322 5034.7974 2661.7485 5026.4786 2665.4554 5021.0285 2320.7997 Z" fill="none" stroke="#012394" opacity="0.6" stroke-width="1" class="fresh_meadows"/>
<path d="M 5282.8268 2679.5549 4814.802 2766.4135 4819.4862 2367.3312 4782.3144 2287.2484 5126.4101 2294.7429 5282.8268 2679.5549 Z" fill="none" stroke="#012394" opacity="0.6" stroke-width="1" class="fresh_meadows"/>
<path d="M 4778.4875 2505.2897 5216.632 2416.2963 5337.5675 2664.8124 4838.3809 2824.4415 4778.4875 2505.2897 Z" fill="none" stroke="#012394" opacity="0.6" stroke-width="1" class="fresh_meadows"/>
<path d="M 4871.4821 2454.7585 4922.3603 2453.7221 4953.8242 2458.2574 4979.6449 2423.1793 4978.668 2401.0657 5011.9828 2406.516 5182.3712 2476.131 5229.8841 2603.1918 5126.3399 2636.6375 4824.0681 2771.9244 4806.3439 2706.5143 4809.0561 2677.0119 4799.7752 2664.1275 4810.5354 2505.5784 4871.6013 2508.2089 4871.4821 2454.7585 Z" fill="none" stroke="#012394" opacity="0.6" stroke-width="1" class="fresh_meadows"/>
<path d="M 4808.6971 2511.1119 5127.9598 2544.4665 5186.9164 2444.7869 5219.5364 2537.7816 4989.334 2609.3191 4804.2564 2596.8333 4808.6971 2511.1119 Z" fill="none" stroke="#012394" opacity="0.6" stroke-width="1" class="fresh_meadows"/>
<path d="M 5041.7999 2495.8333 5164.7846 2472.4897 5246.7395 2679.6504 5055.3485 2741.8935 5027.0352 2511.5357 5041.7999 2495.8333 Z" fill="none" stroke="#012394" opacity="0.6" stroke-width="1" class="fresh_meadows"/>
<path d="M 5011.9171 2767.8089 5017.3882 2733.6884 4996.0154 2695.9458 5015.4606 2701.4303 5003.3525 2668.2757 4994.0016 2626.8203 4991.141 2590.8813 5040.6312 2778.8024 5111.879 2774.9406 5155.336 2760.0822 5190.4063 2723.1202 5239.3997 2703.6356 5263.3879 2676.8412 5329.1002 2682.1956 5019.6758 2529.0638 4999.1738 2466.4451 5078.6879 2447.8229 5180.3866 2423.6087 5287.6303 2399.3694 5409.5656 2338.2197 5418.8983 2367.6796 5444.9712 2428.4239 5476.6512 2507.587 5480.479 2551.8134 5488.0187 2599.7178 5404.8811 2647.8824 5011.9171 2767.8089 Z" fill="none" stroke="#012394" opacity="0.6" stroke-width="1" class="fresh_meadows"/>
<path d="M 5327.604 2386.5914 5396.2441 2536.845 4761.0196 2605.4512 4759.649 2504.0744 5327.604 2386.5914 Z" fill="none" stroke="#012394" opacity="0.6" stroke-width="1" class="fresh_meadows"/>
<path d="M 5324.9817 2528.2855 5029.3031 2685.7272 4992.8742 2688.2334 4981.1919 2688.2609 4972.8718 2691.6218 4962.347 2691.992 4953.2163 2695.0089 4943.2716 2696.1841 4934.1374 2697.703 4925.6956 2698.5289 4914.8263 2700.0516 4905.2311 2702.3778 4895.2845 2702.746 4870.4288 2708.5628 4825.1005 2714.8848 4819.3658 2684.1331 4816.1828 2656.4877 4814.0823 2594.623 4815.2892 2564.5514 4816.1404 2530.4493 4811.4047 2479.7724 4820.6318 2468.6937 4865.0166 2459.3806 4917.7558 2462.9481 4982.5348 2472.0137 4998.2923 2484.8784 5007.4691 2453.5239 5007.3291 2394.5477 5020.2576 2385.3022 5064.668 2388.881 5098.001 2401.6999 5135.9857 2424.6428 5159.1381 2434.721 5202.6191 2435.5313 5243.2693 2415.1523 5284.865 2403.0627 5310.7663 2402.9933 5326.5121 2410.3226 5323.8418 2449.0335 5323.0016 2480.3684 5325.8594 2510.7727 5050.5654 2677.3802 5079.2321 2669.9364 5118.0767 2662.4664 5152.2872 2652.2415 5180.9618 2648.4817 5208.6846 2634.5846 5238.262 2622.5254 5268.7858 2618.7582 5296.5238 2611.3107 5324.2588 2602.9408 5345.4764 2579.8413 5333.3834 2555.9114 5324.9817 2528.2855 Z" fill="none" stroke="#012394" opacity="0.6" stroke-width="1" class="fresh_meadows"/>
<path d="M 4872.0883 2743.7608 4689.5022 2492.6939 4734.7004 2433.9877 4793.593 2334.5537 4868.5727 2292.4272 4872.0883 2743.7608 Z" fill="none" stroke="#012394" opacity="0.6" stroke-width="1" class="fresh_meadows"/>
<path d="M 4772.1656 2299.248 4778.5833 2272.5145 4816.4829 2262.298 4929.2964 2250.99 5088.3878 2254.2973 5129.1803 2292.8932 5150.7821 2422.7625 5213.8443 2483.4224 5215.9241 2571.8915 5175.3465 2623.6098 5069.0807 2681.0222 4888.7907 2746.8917 4761.0001 2705.6894 4667.3864 2629.378 4668.0219 2485.6016 4685.2939 2335.3633 4772.1656 2299.248 Z" fill="none" stroke="#012394" opacity="0.6" stroke-width="1" class="fresh_meadows"/>
<path d="M 5000.5467 2301.951 5130.9991 2296.7097 5277.4022 2678.3295 5012.9854 2773.0194 5000.5467 2301.951 Z" fill="none" stroke="#012394" opacity="0.6" stroke-width="1" class="fresh_meadows"/>
<path d="M 5005.9994 2613.8881 4998.759 2503.8741 5170.4631 2452.762 5198.8105 2532.2733 5005.9994 2613.8881 Z" fill="none" stroke="#012394" opacity="0.6" stroke-width="1" class="fresh_meadows"/>
<path d="M 4864.2185 2516.5197 4871.8393 2511.2035 5000.173 2497.7759 5179.9665 2440.1971 5245.6096 2601.7681 5014.9474 2680.2309 4875.8363 2747.3816 4864.2185 2516.5197 Z" fill="none" stroke="#012394" opacity="0.6" stroke-width="1" class="fresh_meadows"/>
<path d="M 4127.8497 2557.4987 5272.487 2270.4106 5336.2443 2587.2398 4963.1259 2877.629 4127.8497 2557.4987 Z" fill="none" stroke="#012394" opacity="0.6" stroke-width="1" class="fresh_meadows"/>
<path d="M 4969.5608 2514.7313 5180.4667 2454.9403 5399.3551 2657.1151 5190.3519 2701.9192 4739.8508 2798.8533 4656.1784 2462.7133 4969.5608 2514.7313 Z" fill="none" stroke="#012394" opacity="0.6" stroke-width="1" class="fresh_meadows"/>
<path d="M 4992.785 2503.3229 4997.4151 2505.1551 4995.0989 2503.7782 4989.8346 2625.4475 4865.922 2658.4523 4868.3787 2515.128 4992.785 2503.3229 Z" fill="none" stroke="#012394" opacity="0.6" stroke-width="1" class="fresh_meadows"/>
<path d="M 5146.8564 2333.3904 5193.5413 2502.828 4997.6024 2584.4143 4855.1831 2614.2339 4788.6162 2638.3431 4762.5019 2540.7021 4758.5249 2409.8495 4743.4962 2301.1512 5146.8564 2333.3904 Z" fill="none" stroke="#012394" opacity="0.6" stroke-width="1" class="fresh_meadows"/>
<path d="M 4902.6157 2517.8159 4909.5544 2517.8002 5177.6608 2442.9676 5240.0521 2599.4785 4945.1614 2713.1175 4902.6157 2517.8159 Z" fill="none" stroke="#012394" opacity="0.6" stroke-width="1" class="fresh_meadows"/>
<path d="M 5009.9202 2317.1405 5172.6618 2296.4689 5241.8977 2597.6303 5008.9262 2677.48 5009.9202 2317.1405 Z" fill="none" stroke="#012394" opacity="0.6" stroke-width="1" class="fresh_meadows"/>
<path d="M 4965.0478 2510.7606 4974.2993 2510.739 5179.4945 2436.5122 5243.7652 2604.0772 5009.8691 2684.8518 4965.0478 2510.7606 Z" fill="none" stroke="#012394" opacity="0.6" stroke-width="1" class="fresh_meadows"/>
<path d="M 4824.058 2767.3152 4810.9866 2713.8785 5180.4243 2438.3529 5240.0835 2611.4603 4824.058 2767.3152 Z" fill="none" stroke="#012394" opacity="0.6" stroke-width="1" class="fresh_meadows"/>
<path d="M 5178.5623 2433.75 4997.3911 2495.0178 4941.9084 2506.2063 4871.591 2503.601 4874.8139 2289.8104 5132.8962 2299.3336 5178.5623 2433.75 Z" fill="none" stroke="#012394" opacity="0.6" stroke-width="1" class="fresh_meadows"/>
<path d="M 5209.7219 2473.39 5110.778 2250.6008 5251.5237 2600.3332 4878.0484 2745.0353 4880.3717 2295.9086 4902.3617 2203.7252 5115.1554 2234.544 5209.7219 2473.39 Z" fill="none" stroke="#012394" opacity="0.6" stroke-width="1" class="fresh_meadows"/>
<path d="M 5011.3076 2511.5733 5176.7522 2449.4206 5273.5663 2676.8142 5166.3329 2717.6509 5127.2675 2637.5569 5015.3991 2675.6211 5011.3076 2511.5733 Z" fill="none" stroke="#012394" opacity="0.6" stroke-width="1" class="fresh_meadows"/>
<path d="M 4870.67 2505.4462 4886.0187 2336.7766 5155.2488 2360.0908 5180.4219 2437.4313 4997.3933 2495.9393 4942.8357 2507.1257 4870.67 2505.4462 Z" fill="none" stroke="#012394" opacity="0.6" stroke-width="1" class="fresh_meadows"/>
<path d="M 4778.7346 2343.4615 4849.3347 2479.6895 4827.1639 2494.4832 4778.7346 2343.4615 Z" fill="none" stroke="#012394" opacity="0.6" stroke-width="1" class="fresh_meadows"/>
<path d="M 4806.8388 2507.4295 5524.1288 2291.8217 5655.8986 2431.4878 5576.4849 2479.6477 5561.7758 2511.0251 5421.5777 2662.5833 5371.6675 2683.0009 5253.2167 2679.6333 5133.1149 2755.529 5018.4103 2774.2464 4835.2881 2824.4464 4801.6973 2697.3065 4806.8388 2507.4295 Z" fill="none" stroke="#012394" opacity="0.6" stroke-width="1" class="fresh_meadows"/>
<path d="M 4999.4868 2501.0031 5035.0699 2486.4034 5067.4196 2474.1144 5186.9164 2444.7869 5241.2093 2599.7059 5124.262 2638.2557 5012.4143 2685.0762 4990.2679 2613.0036 4999.4868 2501.0031 Z" fill="none" stroke="#012394" opacity="0.6" stroke-width="1" class="fresh_meadows"/>
<path d="M 5151.5442 2358.2573 5203.8059 2536.9007 4988.4478 2625.9117 5001.8225 2412.9906 5151.5442 2358.2573 Z" fill="none" stroke="#012394" opacity="0.6" stroke-width="1" class="fresh_meadows"/>
<path d="M 5230.8214 2607.7978 4921.9655 2685.9784 4869.8598 2557.0582 4976.8201 2401.9916 5232.1325 2401.359 5230.8214 2607.7978 Z" fill="none" stroke="#012394" opacity="0.6" stroke-width="1" class="fresh_meadows"/>
<path d="M 5012.6253 2676.5494 5018.1772 2676.5362 4874.9037 2744.1574 4859.0538 2690.7288 4866.0545 2510.0644 4972.4663 2518.116 5005.7108 2492.2333 5182.2792 2440.1912 5237.2643 2594.8774 5194.7344 2606.9696 5012.6253 2676.5494 Z" fill="none" stroke="#012394" opacity="0.6" stroke-width="1" class="fresh_meadows"/>
<path d="M 5999 2072.4184 5999 2080.6574 5999 2181.587 5927.0988 2200.2668 5790.2981 2224.6691 5648.4755 2424.1384 5545.2099 2540.5655 5388.2976 2673.7373 5105.376 2764.8165 4848.2486 2826.2617 4646.465 2810.0912 4579.6169 2697.7593 4519.9022 2432.4392 4930.8256 2514.5261 5518.5953 2297.3661 5878.5509 2062.2438 5999 2072.4184 Z" fill="none" stroke="#012394" opacity="0.6" stroke-width="1" class="fresh_meadows"/>
<path d="M 4824.0741 2774.69 4797.9999 2699.158 4790.4431 2627.2787 4781.0802 2575.6848 4786.6217 2571.0647 4758.5054 2400.6347 4700.8316 2244.1154 4735.7966 2157.4418 4902.3158 2181.0323 5098.5207 2237.6883 5183.5911 2230.1036 5245.1654 2432.6559 5286.1738 2546.8223 5284.6431 2666.6455 5186.7309 2733.2695 5027.7306 2801.8799 4868.539 2794.8728 4824.0741 2774.69 Z" fill="none" stroke="#012394" opacity="0.6" stroke-width="1" class="fresh_meadows"/>
<path d="M 4868.1285 2610.5184 4803.9039 2005.3034 5181.3995 2096.5271 5254.7587 2562.5734 4868.1285 2610.5184 Z" fill="none" stroke="#012394" opacity="0.6" stroke-width="1" class="fresh_meadows"/>
<path d="M 4992.785 2503.3229 5007.0909 2683.9366 4877.6923 2749.682 4869.3474 2742.3261 4871.6198 2516.5032 4992.785 2503.3229 Z" fill="none" stroke="#012394" opacity="0.6" stroke-width="1" class="fresh_meadows"/>
<path d="M 4875.3245 2518.3381 5215.5821 2440.1053 5219.2561 2429.9591 5284.4341 2588.3011 4870.2686 2740.4804 4875.3245 2518.3381 Z" fill="none" stroke="#012394" opacity="0.6" stroke-width="1" class="fresh_meadows"/>
<path d="M 5238.2016 2599.4834 5121.725 2641.2576 5104.9284 2584.1545 4988.463 2632.3636 5002.7476 2412.9884 5156.1808 2362.8528 5238.2016 2599.4834 Z" fill="none" stroke="#012394" opacity="0.6" stroke-width="1" class="fresh_meadows"/>
<path d="M 4996.4725 2497.7847 5519.5202 2297.3634 5652.204 2433.3422 5380.9105 2679.2883 5026.7456 2776.992 4996.4725 2497.7847 Z" fill="none" stroke="#012394" opacity="0.6" stroke-width="1" class="fresh_meadows"/>
<path d="M 5125.3276 2637.5705 5071.8535 2663.5523 5080.656 2684.5444 5043.6021 2731.5959 5019.4221 2770.3451 4987.8004 2782.1956 4943.4138 2803.7236 4926.5225 2748.46 4920.8198 2727.3685 4915.9237 2705.7209 4913.0925 2681.2452 4909.0214 2662.685 4907.8028 2652.3567 4907.4512 2607.6453 4910.0577 2556.5182 4912.6678 2514.2716 4974.8523 2510.8051 5017.6635 2494.5853 5043.5797 2484.464 5004.3065 2607.9754 5125.3276 2637.5705 Z" fill="none" stroke="#012394" opacity="0.6" stroke-width="1" class="fresh_meadows"/>
<path d="M 5125.4656 2518.2068 5108.2555 2480.1193 5131.3622 2471.5373 5147.5343 2510.433 5125.4656 2518.2068 Z" fill="none" stroke="#012394" opacity="0.6" stroke-width="1" class="fresh_meadows"/>
<path d="M 5463.2146 2338.0679 5318.0537 2703.4263 4711.2614 2817.335 4566.0998 2402.8642 4591.5162 2152.2045 5440.9784 2325.2313 5463.2146 2338.0679 Z" fill="none" stroke="#012394" opacity="0.6" stroke-width="1" class="fresh_meadows"/>
<path d="M 5010.7966 2685.7714 4989.99 2495.0352 4766.1128 2498.3009 4772.3674 2394.155 4844.3762 2328.5765 4982.234 2343.927 5042.2538 2300.478 5161.5368 2286.362 5178.1667 2278.9487 5272.3963 2584.6465 5246.5191 2595.7748 5237.2595 2593.0341 5239.122 2597.6376 5010.7966 2685.7714 Z" fill="none" stroke="#012394" opacity="0.6" stroke-width="1" class="fresh_meadows"/>
<path d="M 5243.7579 2601.3121 5182.2718 2618.0619 5067.6467 2662.1299 4874.4514 2748.7675 4863.5903 2650.1619 4866.2667 2605.4533 4870.6844 2511.8973 4957.1616 2501.1023 4951.5595 2478.9976 4953.8274 2459.6397 4980.5711 2423.6379 4979.5963 2402.4458 5030.0091 2401.4047 5055.8477 2375.5412 5087.2531 2357.0354 5145.0204 2338.9236 5197.6522 2482.5427 5213.0637 2539.1808 5243.7579 2601.3121 Z" fill="none" stroke="#012394" opacity="0.6" stroke-width="1" class="fresh_meadows"/>
<path d="M 4998.6092 2227.7954 5038.3954 2234.6103 5083.6999 2228.5115 5109.5873 2224.7623 5106.8355 2233.9824 5147.6907 2297.4536 5159.8458 2349.0218 5180.4007 2429.1378 5218.5346 2508.2929 5245.6011 2598.5423 5210.4373 2596.7906 5148.5325 2631.0515 5087.4851 2639.499 5010.7835 2680.2408 4878.6011 2742.3055 4875.3287 2520.1813 4891.4524 2285.1662 4920.1526 2297.079 4942.3278 2286.893 5008.0265 2298.7171 4998.6092 2227.7954 Z" fill="none" stroke="#012394" opacity="0.6" stroke-width="1" class="fresh_meadows"/>
<path d="M 4738.9787 2795.1524 4676.6521 2635.8112 5063.9583 2477.3483 5122.6296 2632.9599 4738.9787 2795.1524 Z" fill="none" stroke="#012394" opacity="0.6" stroke-width="1" class="fresh_meadows"/>
<path d="M 5012.6494 2686.6887 4994.0037 2627.742 5215.3796 2540.3269 5245.6084 2601.3073 5012.6494 2686.6887 Z" fill="none" stroke="#012394" opacity="0.6" stroke-width="1" class="fresh_meadows"/>
<path d="M 5201.4705 2348.9154 5201.48 2352.6011 5289.0503 2584.6021 5002.4752 2688.5564 5008.2891 2409.2892 5201.4705 2348.9154 Z" fill="none" stroke="#012394" opacity="0.6" stroke-width="1" class="fresh_meadows"/>
<path d="M 5194.4475 2495.453 5229.7253 2542.3632 5201.0589 2547.9673 5144.6921 2575.7603 5106.8108 2597.0532 5081.8272 2596.1932 5079.0041 2576.8451 5064.1266 2546.4673 5057.5764 2516.0701 5047.3418 2492.1336 5054.7272 2485.6648 5059.3416 2481.0458 5072.2776 2474.5633 5079.6898 2479.153 5101.8608 2466.1966 5127.7316 2453.2306 5148.079 2451.3364 5166.5645 2444.8389 5187.8391 2443.863 5203.706 2498.1938 5194.4475 2495.453 Z" fill="none" stroke="#012394" opacity="0.6" stroke-width="1" class="fresh_meadows"/>
<path d="M 5178.6707 2476.1405 5229.8937 2606.8785 5121.7158 2637.5708 5003.3984 2687.6324 4872.1297 2745.0854 4867.3161 2661.2144 4868.1593 2624.3438 4874.3994 2518.3402 4961.3643 2518.1419 5100.0038 2463.4366 5175.813 2443.8938 5178.6707 2476.1405 Z" fill="none" stroke="#012394" opacity="0.6" stroke-width="1" class="fresh_meadows"/>
<path d="M 4875.306 2510.0438 4998.3119 2493.1724 5001.7941 2401.0112 5180.5044 2469.6849 5237.2691 2596.7208 4873.9825 2746.003 4875.306 2510.0438 Z" fill="none" stroke="#012394" opacity="0.6" stroke-width="1" class="fresh_meadows"/>
<path d="M 4764.2664 2500.1479 4828.2812 2159.0867 5109.7062 2272.6716 5240.0545 2600.4002 5005.1703 2654.4454 4995.5604 2503.3163 4764.2664 2500.1479 Z" fill="none" stroke="#012394" opacity="0.6" stroke-width="1" class="fresh_meadows"/>
<path d="M 4872.5429 2515.5795 5184.1482 2447.5586 5273.5712 2678.6577 4888.0435 2826.1731 4872.5429 2515.5795 Z" fill="none" stroke="#012394" opacity="0.6" stroke-width="1" class="fresh_meadows"/>
<path d="M 5282.7679 2657.4331 5303.1962 2684.1091 5252.3666 2708.2104 5188.584 2734.1865 5025.8202 2776.9942 5002.4228 2666.4344 4982.8248 2595.5092 4997.3127 2461.8418 5001.7723 2391.7965 5005.2626 2303.3306 4960.8157 2282.2433 4907.4505 2202.2101 4885.6234 2160.8022 4968.8304 2149.5566 5055.748 2143.8223 5105.9106 2233.9847 5152.4528 2351.8049 5193.5034 2488.0828 5232.5852 2574.6131 5282.7679 2657.4331 Z" fill="none" stroke="#012394" opacity="0.6" stroke-width="1" class="fresh_meadows"/>
<path d="M 4873.3364 2456.5975 5161.794 2387.718 5239.1245 2598.5593 4872.1399 2749.6944 4873.3364 2456.5975 Z" fill="none" stroke="#012394" opacity="0.6" stroke-width="1" class="fresh_meadows"/>
<path d="M 5047.3329 2488.4474 5044.5497 2485.2286 5113.8735 2460.6375 5120.8117 2460.6202 5130.1031 2476.7242 5150.4395 2470.2221 5155.5731 2488.1796 5169.4406 2484.4581 5173.6272 2493.6632 5169.4664 2494.5953 5188.5654 2546.617 5075.812 2595.7471 5044.1438 2508.7298 5053.3875 2505.4819 5047.3329 2488.4474 Z" fill="none" stroke="#012394" opacity="0.6" stroke-width="1" class="fresh_meadows"/>
<path d="M 5264.6819 2672.7968 5137.1139 2766.3597 5037.2148 2785.0423 4908.9456 2831.7144 4842.308 2830.0195 4827.3677 2769.2088 4793.8749 2686.3193 4757.5702 2647.7291 4758.7569 2600.3793 4763.019 2503.0655 4764.2557 2444.4217 4750.6028 2381.7611 4798.1474 2337.8914 4807.2807 2283.9699 4871.8939 2297.6938 5043.2232 2318.9036 5174.8432 2426.3874 5183.2752 2444.0442 5264.6819 2672.7968 Z" fill="none" stroke="#012394" opacity="0.6" stroke-width="1" class="fresh_meadows"/>
<path d="M 5164.1687 2230.1531 5252.8647 2194.914 5396.3276 2566.7978 5297.412 2597.4831 5164.1687 2230.1531 Z" fill="none" stroke="#012394" opacity="0.6" stroke-width="1" class="fresh_meadows"/>
<path d="M 4874.3891 2513.7322 5179.5086 2442.0413 5240.9701 2596.7111 4877.6964 2751.5257 4871.2207 2752.462 4874.3891 2513.7322 Z" fill="none" stroke="#012394" opacity="0.6" stroke-width="1" class="fresh_meadows"/>
<path d="M 5128.2669 2297.5024 5234.5007 2599.493 5233.5851 2603.1822 4816.6628 2771.0187 4868.8156 2503.6072 4724.1698 2348.1834 5128.2669 2297.5024 Z" fill="none" stroke="#012394" opacity="0.6" stroke-width="1" class="fresh_meadows"/>
<path d="M 4868.8402 2514.6662 4960.4306 2514.4577 5063.0175 2470.8997 5176.7075 2431.9117 5214.9105 2537.7936 5242.8206 2596.7062 5122.6365 2635.725 4872.1338 2746.929 4861.7213 2641.8705 4868.8402 2514.6662 Z" fill="none" stroke="#012394" opacity="0.6" stroke-width="1" class="fresh_meadows"/>
<path d="M 5093.6621 2517.825 5056.6222 2504.0917 5084.3381 2488.3572 5158.3788 2500.153 5173.3009 2547.1169 5113.2623 2586.8989 5043.8303 2570.4791 4992.8306 2522.6762 5021.4028 2477.4509 5050.8906 2429.4601 5125.8445 2438.4909 5173.9793 2450.3492 5200.9805 2517.5543 5186.393 2601.461 5106.8908 2629.3122 5029.1617 2626.7366 4909.3357 2421.4986 5003.5394 2356.7769 4947.9243 2307.1505 5093.6621 2517.825 Z" fill="none" stroke="#012394" opacity="0.6" stroke-width="1" class="fresh_meadows"/>
<path d="M 5386.4317 2668.212 5183.02 2729.5917 5014.7306 2783.4737 4886.4265 2518.3132 4999.2174 2484.8762 5015.5095 2333.7126 4996.7398 2219.508 5159.507 2215.424 5251.9204 2187.5463 5350.4676 2375.2411 5365.5166 2465.5074 5391.6605 2552.0646 5386.4317 2668.212 Z" fill="none" stroke="#012394" opacity="0.6" stroke-width="1" class="fresh_meadows"/>
<path d="M 4823.1387 2770.0828 4795.7252 2501.924 5178.5553 2430.9855 5246.5215 2596.6965 4823.1387 2770.0828 Z" fill="none" stroke="#012394" opacity="0.6" stroke-width="1" class="fresh_meadows"/>
<path d="M 5038.5928 2659.3355 5208.7139 2607.2949 4862.5537 2725.8962 4864.2201 2642.9342 5188.7395 2538.0234 5190.7176 2587.787 5137.084 2610.0269 5038.5928 2659.3355 Z" fill="none" stroke="#012394" opacity="0.6" stroke-width="1" class="fresh_meadows"/>
<path d="M 5010.801 2687.6149 4987.49 2612.0885 4993.2185 2589.033 5003.1577 2390.8717 5038.8053 2404.8392 5155.0252 2363.0861 5213.5287 2540.1012 5240.9882 2603.6236 5194.7498 2612.9606 5121.2601 2640.337 5010.801 2687.6149 Z" fill="none" stroke="#012394" opacity="0.6" stroke-width="1" class="fresh_meadows"/>
<path d="M 5014.5023 2687.6061 4871.0155 2245.5938 5242.7107 2202.3111 5364.1229 2631.4045 5014.5023 2687.6061 Z" fill="none" stroke="#012394" opacity="0.6" stroke-width="1" class="fresh_meadows"/>
<path d="M 4997.4042 2500.5472 5178.5671 2435.5931 5239.1365 2603.1676 5008.9481 2686.6975 4997.4042 2500.5472 Z" fill="none" stroke="#012394" opacity="0.6" stroke-width="1" class="fresh_meadows"/>
<path d="M 4872.5285 2509.1284 4953.0358 2517.2397 4995.5539 2500.5516 5064.8857 2478.2676 5181.347 2437.429 5213.0553 2535.9552 5243.7531 2599.4688 5123.5664 2637.5661 4872.1461 2752.4599 4861.7418 2651.0877 4872.5285 2509.1284 Z" fill="none" stroke="#012394" opacity="0.6" stroke-width="1" class="fresh_meadows"/>
<path d="M 4817.9767 2523.9941 4921.4773 2472.1551 5010.1655 2420.3428 5165.5574 2412.5885 5254.5571 2486.0807 5291.8581 2596.5763 5292.1343 2699.8088 5233.0668 2758.9605 5092.4431 2774.0669 4944.3264 2752.2961 4892.322 2671.2975 4855.228 2634.5112 4825.4906 2575.5889 4817.9767 2523.9941 Z" fill="none" stroke="#012394" opacity="0.6" stroke-width="1" class="fresh_meadows"/>
<path d="M 5021.4402 2493.1175 4999.2762 2509.7586 5003.8802 2500.5319 5021.4402 2493.1175 Z" fill="none" stroke="#012394" opacity="0.6" stroke-width="1" class="fresh_meadows"/>
<path d="M 4809.6123 2506.5019 4873.4557 2510.0479 4872.4072 2454.7565 4929.7547 2450.9406 4998.2574 2470.1335 5004.543 2389.947 5040.6549 2404.6043 5111.8148 2376.7859 5181.3281 2430.0569 5224.7586 2411.5147 5292.771 2591.9655 5126.3399 2636.6375 4822.2072 2767.3193 4803.5559 2700.9896 4808.1248 2674.2487 4796.9774 2653.9944 4804.2584 2597.7549 4809.6123 2506.5019 Z" fill="none" stroke="#012394" opacity="0.6" stroke-width="1" class="fresh_meadows"/>
<path d="M 5242.8423 2605.0013 5208.6417 2617.994 5149.4601 2631.9708 5106.0135 2648.6704 5046.853 2672.7804 5019.1113 2680.221 4995.8129 2610.2255 4997.5218 2550.3136 4992.7871 2504.2444 4911.3911 2511.8057 4886.4037 2508.1758 4886.1925 2414.1789 4910.0954 2348.7008 4897.9414 2291.6012 5044.1171 2306.0018 5115.3268 2301.2203 5140.2888 2296.5509 5242.8423 2605.0013 Z" fill="none" stroke="#012394" opacity="0.6" stroke-width="1" class="fresh_meadows"/>
<path d="M 4873.9255 2513.2724 4956.7236 2511.7015 5184.1163 2435.1181 5246.5324 2600.844 5186.8875 2613.9025 4872.5944 2746.0061 4867.6464 2601.7635 4873.9255 2513.2724 Z" fill="none" stroke="#012394" opacity="0.6" stroke-width="1" class="fresh_meadows"/>
<path d="M 5339.3975 2386.329 5401.4085 2564.0187 4874.4544 2750.1502 4873.4598 2511.8911 5339.3975 2386.329 Z" fill="none" stroke="#012394" opacity="0.6" stroke-width="1" class="fresh_meadows"/>
<path d="M 5081.548 2482.3739 5100.537 2492.0036 5151.5625 2548.5545 5158.2187 2619.5057 5109.2658 2654.1927 4991.2551 2639.2698 4968.0361 2601.9955 4974.4244 2564.1925 4989.1104 2514.3906 5024.6771 2492.6489 5055.6523 2485.6625 5081.548 2482.3739 Z" fill="none" stroke="#012394" opacity="0.6" stroke-width="1" class="fresh_meadows"/>
<path d="M 4866.7314 2606.3739 5023.1232 2616.6124 5105.3864 2582.3101 5124.96 2639.8669 4872.6026 2749.6934 4865.9179 2656.6088 4866.7314 2606.3739 Z" fill="none" stroke="#012394" opacity="0.6" stroke-width="1" class="fresh_meadows"/>
<path d="M 4510.6958 2456.4159 4715.8049 2328.8509 4682.1953 2175.9773 4902.0906 2081.5407 5072.1376 2038.7672 5146.2103 2077.2717 5166.5871 2090.1166 5199.9015 2099.2432 5646.6873 2444.4173 5640.0104 2682.2222 5219.0123 3048.4966 4865.3988 3047.5046 4678.0384 2863.4983 4562.8065 2616.679 4510.6958 2456.4159 Z" fill="none" stroke="#012394" opacity="0.6" stroke-width="1" class="fresh_meadows"/>
<path d="M 4874.4483 2747.3847 4862.663 2649.2422 4882.4159 2380.0926 5040.646 2400.9184 5152.4785 2361.9407 5180.4196 2436.5098 5243.7567 2600.8513 5179.0299 2616.6876 4874.4483 2747.3847 Z" fill="none" stroke="#012394" opacity="0.6" stroke-width="1" class="fresh_meadows"/>
<path d="M 5004.1825 2237.9167 5109.6239 2239.5034 5290.2047 2670.3176 5034.171 2786.1927 5004.1825 2237.9167 Z" fill="none" stroke="#012394" opacity="0.6" stroke-width="1" class="fresh_meadows"/></svg>