<?xml version="1.0"?><svg xmlns="http://www.w3.org/2000/svg" version="1.2" baseProfile="tiny" width="6000" height="5918" viewBox="0 0 6000 5918" stroke-linecap="round" stroke-linejoin="round"><path d="M 2808.5051 2298.6157 2848.2715 2228.5907 2931.981 2275.107 2897.3066 2347.9026 2808.5051 2298.6157 Z" fill="none" stroke="#FBC20F" opacity="0.6" stroke-width="1" class="garment_district"/>
<path d="M 2831.6286 2297.6929 2850.1245 2264.5224 2873.2495 2283.8685 2873.2441 2236.88 2976.8368 2262.6598 2923.2049 2339.1451 2831.6286 2297.6929 Z" fill="none" stroke="#FBC20F" opacity="0.6" stroke-width="1" class="garment_district"/>
<path d="M 2835.5558 2246.5575 2900.9956 2271.4266 2872.7915 2323.7185 2810.3546 2290.0928 2835.5558 2246.5575 Z" fill="none" stroke="#FBC20F" opacity="0.6" stroke-width="1" class="garment_district"/>
<path d="M 2849.2082 2361.2689 2885.2748 2294.0021 2917.6517 2318.875 2905.6294 2333.6193 2921.3593 2365.8669 2905.6386 2395.3561 2849.2082 2361.2689 Z" fill="none" stroke="#FBC20F" opacity="0.6" stroke-width="1" class="garment_district"/>
<path d="M 2961.2401 2316.3331 2892.5784 2440.1657 2765.9577 2369.6808 2834.5153 2246.0969 2961.2401 2316.3331 Z" fill="none" stroke="#FBC20F" opacity="0.6" stroke-width="1" class="garment_district"/>
<path d="M 2817.7536 2282.0305 2839.9478 2230.434 2909.3203 2274.6501 2876.0281 2317.038 2817.7536 2282.0305 Z" fill="none" stroke="#FBC20F" opacity="0.6" stroke-width="1" class="garment_district"/>
<path d="M 2841.8045 2316.1199 2877.8701 2249.778 2973.1453 2299.5152 2933.3838 2362.1791 2841.8045 2316.1199 Z" fill="none" stroke="#FBC20F" opacity="0.6" stroke-width="1" class="garment_district"/>
<path d="M 2937.0684 2277.4095 2895.9188 2345.5992 2719.2504 2249.3229 2716.9382 2248.4015 2752.0851 2182.9903 2754.3972 2183.451 2751.1603 2180.2265 2937.0684 2277.4095 Z" fill="none" stroke="#FBC20F" opacity="0.6" stroke-width="1" class="garment_district"/>
<path d="M 2935.2178 2272.8031 2908.4031 2325.3262 2900.079 2329.9345 2810.354 2279.2668 2841.7972 2225.8273 2935.2178 2272.8031 Z" fill="none" stroke="#FBC20F" opacity="0.6" stroke-width="1" class="garment_district"/>
<path d="M 2816.3662 2281.1092 2839.0232 2234.1193 2931.5207 2287.5455 2907.0165 2331.3156 2901.9305 2340.9912 2811.2795 2289.8625 2816.3662 2281.1092 Z" fill="none" stroke="#FBC20F" opacity="0.6" stroke-width="1" class="garment_district"/>
<path d="M 2763.1831 2196.3489 2834.402 2278.344 2727.1064 2387.0725 2763.1831 2196.3489 Z" fill="none" stroke="#FBC20F" opacity="0.6" stroke-width="1" class="garment_district"/>
<path d="M 2863.5356 2263.1391 2965.7477 2308.7306 2942.6314 2348.8166 2845.5033 2303.6809 2863.5356 2263.1391 Z" fill="none" stroke="#FBC20F" opacity="0.6" stroke-width="1" class="garment_district"/>
<path d="M 2863.9983 2266.3637 2958.3507 2321.6317 2918.589 2394.4326 2821.4569 2342.8423 2863.9983 2266.3637 Z" fill="none" stroke="#FBC20F" opacity="0.6" stroke-width="1" class="garment_district"/>
<path d="M 2970.8326 2298.1336 2913.5008 2391.669 2760.4079 2307.8305 2814.9749 2208.3243 2970.8326 2298.1336 Z" fill="none" stroke="#FBC20F" opacity="0.6" stroke-width="1" class="garment_district"/>
<path d="M 2851.5206 2359.8865 2876.953 2316.1165 2939.3942 2350.1993 2916.7387 2393.5115 2851.5206 2359.8865 Z" fill="none" stroke="#FBC20F" opacity="0.6" stroke-width="1" class="garment_district"/>
<path d="M 2902.8555 2340.5304 2809.6608 2289.4018 2844.8032 2227.9 2936.6061 2278.1006 2902.8555 2340.5304 Z" fill="none" stroke="#FBC20F" opacity="0.6" stroke-width="1" class="garment_district"/>
<path d="M 2834.8621 2245.6362 2923.1974 2294.4573 2919.0361 2299.9862 2947.25 2316.1055 2924.5949 2353.8877 2810.3545 2289.8625 2834.8621 2245.6362 Z" fill="none" stroke="#FBC20F" opacity="0.6" stroke-width="1" class="garment_district"/>
<path d="M 2804.8053 2298.6158 2840.4107 2235.9618 2901.2268 2271.4265 2905.1563 2262.2125 2936.6063 2279.022 2926.4352 2296.9905 2961.5869 2315.8723 2931.3037 2368.8599 2804.8053 2298.6158 Z" fill="none" stroke="#FBC20F" opacity="0.6" stroke-width="1" class="garment_district"/>
<path d="M 2754.8597 2177.9234 2872.3197 2241.4867 2838.1042 2310.5919 2721.5628 2245.177 2754.8597 2177.9234 Z" fill="none" stroke="#FBC20F" opacity="0.6" stroke-width="1" class="garment_district"/>
<path d="M 2714.626 2247.9407 2748.3859 2175.6201 2937.9934 2277.87 2897.7694 2350.2061 2714.626 2247.9407 Z" fill="none" stroke="#FBC20F" opacity="0.6" stroke-width="1" class="garment_district"/>
<path d="M 2888.0609 2380.6151 2845.5132 2421.1648 2814.0597 2395.3653 2808.507 2341.9215 2854.7578 2356.6612 2749.3082 2323.4941 2888.0609 2380.6151 Z" fill="none" stroke="#FBC20F" opacity="0.6" stroke-width="1" class="garment_district"/>
<path d="M 2803.8804 2298.6159 2846.4215 2225.8269 2851.971 2228.5903 2913.9429 2261.7505 2903.7816 2348.3624 2803.8804 2298.6159 Z" fill="none" stroke="#FBC20F" opacity="0.6" stroke-width="1" class="garment_district"/>
<path d="M 2787.2322 2335.4723 2845.0342 2224.9057 2974.0702 2299.0543 2911.1901 2404.1093 2787.2322 2335.4723 Z" fill="none" stroke="#FBC20F" opacity="0.6" stroke-width="1" class="garment_district"/>
<path d="M 2808.5051 2298.6157 2849.1964 2228.5906 2940.7692 2282.937 2903.7819 2350.2052 2808.5051 2298.6157 Z" fill="none" stroke="#FBC20F" opacity="0.6" stroke-width="1" class="garment_district"/>
<path d="M 2839.9471 2222.1422 2901.9187 2258.9882 2878.8019 2307.8237 2807.5791 2274.6601 2839.9471 2222.1422 Z" fill="none" stroke="#FBC20F" opacity="0.6" stroke-width="1" class="garment_district"/>
<path d="M 2897.3068 2349.7454 2886.2062 2344.2184 2804.3428 2298.6158 2828.3887 2258.0747 2915.3367 2302.2903 2917.1855 2295.3796 2915.7994 2303.6723 2919.0377 2309.6608 2913.0258 2311.5045 2910.7127 2306.8979 2897.3068 2349.7454 Z" fill="none" stroke="#FBC20F" opacity="0.6" stroke-width="1" class="garment_district"/>
<path d="M 2930.6101 2369.5512 2805.2678 2299.5372 2845.0343 2226.7483 2970.8324 2297.2122 2930.6101 2369.5512 Z" fill="none" stroke="#FBC20F" opacity="0.6" stroke-width="1" class="garment_district"/>
<path d="M 2913.0399 2401.8053 2869.5622 2397.2037 2851.0603 2384.305 2824.2338 2373.2496 2815.9077 2356.2033 2791.3944 2327.1795 2812.205 2302.301 2851.0487 2257.1515 2885.2684 2243.3278 2926.8923 2265.8944 2944.4724 2301.3638 2913.0399 2401.8053 Z" fill="none" stroke="#FBC20F" opacity="0.6" stroke-width="1" class="garment_district"/>
<path d="M 2817.7528 2267.2888 2841.797 2223.0633 2956.4931 2283.8553 2932.4541 2335.4578 2817.7528 2267.2888 Z" fill="none" stroke="#FBC20F" opacity="0.6" stroke-width="1" class="garment_district"/></svg>