<?xml version="1.0"?><svg xmlns="http://www.w3.org/2000/svg" version="1.2" baseProfile="tiny" width="6000" height="5918" viewBox="0 0 6000 5918" stroke-linecap="round" stroke-linejoin="round"><path d="M 2898.25 2479.2151 2981.5202 2519.749 2948.2271 2585.1915 2875.1289 2538.1994 2898.25 2479.2151 Z" fill="none" stroke="#865327" opacity="0.32051282051282054" stroke-width="1" class="gramercy"/>
<path d="M 2889.2282 2464.4715 3012.9791 2532.8741 2969.9766 2616.5239 2837.891 2546.4976 2889.2282 2464.4715 Z" fill="none" stroke="#865327" opacity="0.32051282051282054" stroke-width="1" class="gramercy"/>
<path d="M 2875.3624 2557.5534 2911.8972 2489.5806 2972.0375 2520.6727 2926.0235 2595.7947 2875.3624 2557.5534 Z" fill="none" stroke="#865327" opacity="0.32051282051282054" stroke-width="1" class="gramercy"/>
<path d="M 2909.5854 2496.4927 2941.9685 2513.9973 2915.6097 2564.921 2882.0686 2545.5715 2909.5854 2496.4927 Z" fill="none" stroke="#865327" opacity="0.32051282051282054" stroke-width="1" class="gramercy"/>
<path d="M 2926.949 2597.177 2852.926 2553.8693 2891.7738 2476.4513 2982.4405 2498.5523 2926.949 2597.177 Z" fill="none" stroke="#865327" opacity="0.32051282051282054" stroke-width="1" class="gramercy"/>
<path d="M 2952.8583 2610.9974 2869.1172 2556.1717 2912.1281 2487.0463 3002.34 2534.4896 2952.8583 2610.9974 Z" fill="none" stroke="#865327" opacity="0.32051282051282054" stroke-width="1" class="gramercy"/>
<path d="M 2968.5678 2518.8303 2975.9694 2520.6718 2935.2744 2587.9589 2874.2053 2552.0238 2911.2027 2485.6641 2968.5678 2518.8303 Z" fill="none" stroke="#865327" opacity="0.32051282051282054" stroke-width="1" class="gramercy"/>
<path d="M 3010.199 2515.134 2951.9331 2610.9976 2867.7314 2575.0655 2925.0767 2468.1523 3010.199 2515.134 Z" fill="none" stroke="#865327" opacity="0.32051282051282054" stroke-width="1" class="gramercy"/>
<path d="M 2883.4555 2538.1984 2926.9258 2461.7012 2960.2331 2479.2043 2940.8123 2515.1495 2954.6909 2521.5979 2931.5695 2564.9183 2883.4555 2538.1984 Z" fill="none" stroke="#865327" opacity="0.32051282051282054" stroke-width="1" class="gramercy"/>
<path d="M 2908.8909 2492.1154 2907.966 2493.4979 2926.81 2460.8949 2933.5151 2450.4113 2938.4859 2441.6559 2972.14 2460.6557 2923.4712 2548.7912 2890.9712 2528.4054 2890.8557 2528.8662 2908.8909 2492.1154 Z" fill="none" stroke="#865327" opacity="0.32051282051282054" stroke-width="1" class="gramercy"/>
<path d="M 2975.7384 2521.5935 2950.7675 2565.1452 2887.1551 2529.9035 2912.3592 2485.8943 2975.7384 2521.5935 Z" fill="none" stroke="#865327" opacity="0.32051282051282054" stroke-width="1" class="gramercy"/>
<path d="M 2915.3671 2493.9575 2911.2033 2489.5807 2912.5906 2487.0462 2995.4007 2532.4177 2951.7016 2610.0759 2869.3494 2564.4664 2910.9723 2491.1935 2915.3671 2493.9575 Z" fill="none" stroke="#865327" opacity="0.32051282051282054" stroke-width="1" class="gramercy"/>
<path d="M 2833.4964 2546.0371 2895.0069 2440.9717 3043.5069 2522.9584 3028.277 2649.6909 2833.4964 2546.0371 Z" fill="none" stroke="#865327" opacity="0.32051282051282054" stroke-width="1" class="gramercy"/>
<path d="M 2895.9444 2531.2847 2938.4864 2444.1901 2970.4064 2464.9182 2920.9276 2552.9389 2895.9444 2531.2847 Z" fill="none" stroke="#865327" opacity="0.32051282051282054" stroke-width="1" class="gramercy"/>
<path d="M 2953.5524 2611.5733 2855.3549 2556.9795 2869.6926 2530.3664 2877.7831 2490.7372 2880.7862 2461.3624 2892.694 2439.7049 3012.047 2506.2633 2953.5524 2611.5733 Z" fill="none" stroke="#865327" opacity="0.32051282051282054" stroke-width="1" class="gramercy"/>
<path d="M 2917.9083 2475.9866 2925.3211 2546.026 2953.0666 2494.8723 2890.1618 2529.2119 2917.9083 2475.9866 Z" fill="none" stroke="#865327" opacity="0.32051282051282054" stroke-width="1" class="gramercy"/>
<path d="M 2903.8157 2581.5124 2856.6271 2556.6338 2916.7483 2453.4091 2970.4095 2479.2022 2903.8157 2581.5124 Z" fill="none" stroke="#865327" opacity="0.32051282051282054" stroke-width="1" class="gramercy"/>
<path d="M 2996.7886 2533.1086 2955.4029 2611.9186 2887.8545 2572.759 2901.0352 2547.4122 2883.4555 2538.4288 2912.1279 2485.8943 2996.7886 2533.1086 Z" fill="none" stroke="#865327" opacity="0.32051282051282054" stroke-width="1" class="gramercy"/>
<path d="M 2996.7885 2532.6478 2951.0076 2610.0761 2937.5904 2603.6268 2834.884 2543.7329 2877.896 2467.6983 2996.7885 2532.6478 Z" fill="none" stroke="#865327" opacity="0.32051282051282054" stroke-width="1" class="gramercy"/>
<path d="M 2947.286 2502.7068 2924.1648 2546.9478 2852.9218 2507.789 2875.5832 2467.6986 2947.286 2502.7068 Z" fill="none" stroke="#865327" opacity="0.32051282051282054" stroke-width="1" class="gramercy"/>
<path d="M 2957.4713 2545.5592 2896.4044 2512.3919 2927.8514 2464.4657 2987.0642 2490.2571 2957.4713 2545.5592 Z" fill="none" stroke="#865327" opacity="0.32051282051282054" stroke-width="1" class="gramercy"/>
<path d="M 2809.9104 2680.1437 2848.7687 2622.0726 2802.9674 2600.8768 2878.3584 2466.7767 2971.343 2517.9081 2866.3582 2711.4794 2809.9104 2680.1437 Z" fill="none" stroke="#865327" opacity="0.32051282051282054" stroke-width="1" class="gramercy"/>
<path d="M 2961.172 2545.5584 2915.8454 2592.5705 2884.3831 2557.5524 2813.1418 2536.3613 2798.3372 2484.7532 2961.172 2545.5584 Z" fill="none" stroke="#865327" opacity="0.32051282051282054" stroke-width="1" class="gramercy"/>
<path d="M 2895.4684 2433.5995 2966.7065 2467.6836 2931.5644 2536.3479 2868.6479 2495.3461 2868.1808 2453.8764 2895.4684 2433.5995 Z" fill="none" stroke="#865327" opacity="0.32051282051282054" stroke-width="1" class="gramercy"/>
<path d="M 3025.9648 2653.3784 2902.8901 2578.7476 2946.3544 2469.07 2986.1393 2491.1789 3041.6567 2523.4197 3025.9648 2653.3784 Z" fill="none" stroke="#865327" opacity="0.32051282051282054" stroke-width="1" class="gramercy"/>
<path d="M 3021.3381 2652.458 2839.0475 2545.5758 2879.7462 2467.2373 3033.3397 2556.6002 3042.6106 2621.1139 3021.3381 2652.458 Z" fill="none" stroke="#865327" opacity="0.32051282051282054" stroke-width="1" class="gramercy"/>
<path d="M 3018.5165 2481.9552 2944.5324 2617.9116 2821.9313 2542.3514 2888.5295 2427.6107 3018.5165 2481.9552 Z" fill="none" stroke="#865327" opacity="0.32051282051282054" stroke-width="1" class="gramercy"/>
<path d="M 2940.8215 2564.6862 2943.5981 2570.2156 2945.2187 2577.8188 2940.5929 2579.2022 2934.8093 2573.9038 2936.8892 2563.9957 2951.2296 2562.6106 2950.0738 2566.2973 2949.3815 2574.1314 2951.4634 2575.0527 2949.8452 2580.1221 2944.9877 2579.4318 2940.8215 2564.6862 Z" fill="none" stroke="#865327" opacity="0.32051282051282054" stroke-width="1" class="gramercy"/>
<path d="M 2892.4738 2521.8388 2932.9368 2449.2595 2990.5318 2483.3446 2967.1822 2528.9682 2950.7652 2553.1639 2892.4738 2521.8388 Z" fill="none" stroke="#865327" opacity="0.32051282051282054" stroke-width="1" class="gramercy"/>
<path d="M 2874.8994 2553.6366 2926.9255 2459.8581 2928.5443 2459.1667 2943.3478 2469.301 2963.2396 2478.2821 3010.6591 2505.4573 2999.5638 2531.7255 2954.477 2608.4624 2875.826 2566.3089 2874.8994 2553.6366 Z" fill="none" stroke="#865327" opacity="0.32051282051282054" stroke-width="1" class="gramercy"/>
<path d="M 2934.8119 2588.4198 2950.071 2551.5512 2968.1096 2539.5665 2968.1078 2531.272 2975.0456 2526.6624 2992.6235 2525.276 3003.2651 2534.0286 2988.0078 2568.5933 2963.9603 2605.9259 2948.6972 2623.9018 2918.6233 2606.3951 2934.8119 2588.4198 Z" fill="none" stroke="#865327" opacity="0.32051282051282054" stroke-width="1" class="gramercy"/>
<path d="M 2985.2146 2493.0223 3012.7408 2505.9175 2933.4345 2646.9474 2833.4996 2590.7367 2937.3297 2442.5776 2995.3867 2474.819 2985.2146 2493.0223 Z" fill="none" stroke="#865327" opacity="0.32051282051282054" stroke-width="1" class="gramercy"/>
<path d="M 2883.2254 2547.8754 2880.5653 2546.3781 2917.6775 2478.6362 3006.2672 2515.4806 2968.3501 2582.5376 2944.2921 2570.4458 2933.9983 2565.8395 2929.0268 2574.2504 2912.2555 2563.1934 2883.2254 2547.8754 Z" fill="none" stroke="#865327" opacity="0.32051282051282054" stroke-width="1" class="gramercy"/>
<path d="M 2904.7405 2578.2865 2946.825 2511.0012 2975.5073 2522.5151 2935.739 2598.558 2904.7405 2578.2865 Z" fill="none" stroke="#865327" opacity="0.32051282051282054" stroke-width="1" class="gramercy"/>
<path d="M 2995.8637 2534.0304 2971.8182 2575.5093 2892.7062 2530.3635 2913.522 2526.6741 2892.7056 2525.7555 2912.5916 2493.0364 2890.8555 2527.599 2913.5158 2487.046 2995.8637 2534.0304 Z" fill="none" stroke="#865327" opacity="0.32051282051282054" stroke-width="1" class="gramercy"/>
<path d="M 2956.5585 2606.8491 2872.8184 2560.3186 2913.0535 2488.8892 3000.0265 2532.1862 2956.5585 2606.8491 Z" fill="none" stroke="#865327" opacity="0.32051282051282054" stroke-width="1" class="gramercy"/>
<path d="M 2880.4415 2479.9086 2943.1251 2514.9186 2918.1527 2556.8563 2869.1142 2529.2144 2880.4415 2479.9086 Z" fill="none" stroke="#865327" opacity="0.32051282051282054" stroke-width="1" class="gramercy"/>
<path d="M 2967.657 2586.1092 2872.3555 2557.5538 2927.8504 2458.9364 2941.7283 2466.3063 3038.8802 2519.7341 3029.6371 2550.1499 3037.0505 2591.6218 2985.2305 2561.2208 2967.657 2586.1092 Z" fill="none" stroke="#865327" opacity="0.32051282051282054" stroke-width="1" class="gramercy"/>
<path d="M 3025.9643 2651.535 2878.8332 2568.6127 2874.2057 2555.7103 2912.1273 2481.9777 3036.115 2555.6778 3050.9362 2615.5813 3025.9643 2651.535 Z" fill="none" stroke="#865327" opacity="0.32051282051282054" stroke-width="1" class="gramercy"/>
<path d="M 2949.1559 2603.6247 2930.6483 2587.9597 2899.1874 2565.8451 2839.0466 2534.5165 2850.1472 2517.9267 2866.7971 2490.2777 2898.2459 2449.7257 2901.9448 2439.5885 2915.8172 2415.6272 2925.9908 2403.6462 2959.33 2586.111 2977.8314 2572.2822 2985.2292 2555.691 2988.9267 2541.8658 2995.401 2533.5697 3000.9493 2522.5091 3004.6481 2515.1355 3012.0455 2500.3882 3015.7441 2493.0147 3025.9185 2485.6394 3037.9353 2451.5388 3042.557 2438.6362 2932.4603 2370.4723 2932.464 2391.6659 2930.6151 2398.1165 3010.1961 2504.075 3003.721 2507.763 2970.4245 2548.3213 2990.769 2507.7662 2974.1132 2493.9463 2967.6337 2477.3596 2945.4249 2446.0318 2941.7233 2439.5819 2932.4691 2420.2319 2936.1687 2416.5452 2998.1674 2496.7054 2955.6313 2597.1717 2949.1559 2603.6247 Z" fill="none" stroke="#865327" opacity="0.32051282051282054" stroke-width="1" class="gramercy"/>
<path d="M 2910.5086 2483.5907 2970.6493 2518.369 2943.1353 2569.0636 2882.7617 2539.3505 2910.5086 2483.5907 Z" fill="none" stroke="#865327" opacity="0.32051282051282054" stroke-width="1" class="gramercy"/>
<path d="M 2939.5709 2513.5537 2917.0366 2556.1198 2882.6671 2536.5085 2907.7605 2496.4903 2939.5709 2513.5537 Z" fill="none" stroke="#865327" opacity="0.32051282051282054" stroke-width="1" class="gramercy"/>
<path d="M 2953.7845 2615.6056 2838.1228 2552.9489 2870.4962 2477.3754 2881.5972 2473.6879 2998.1774 2537.2555 2968.5796 2574.1275 2953.7845 2615.6056 Z" fill="none" stroke="#865327" opacity="0.32051282051282054" stroke-width="1" class="gramercy"/>
<path d="M 2871.4301 2555.7106 2910.2777 2486.5858 2975.0435 2516.9857 2913.0752 2627.5949 2870.5097 2599.0283 2871.4301 2555.7106 Z" fill="none" stroke="#865327" opacity="0.32051282051282054" stroke-width="1" class="gramercy"/>
<path d="M 2946.8238 2505.0109 2952.1417 2496.0245 2976.1984 2510.3039 2970.4179 2518.1387 2946.8238 2505.0109 Z" fill="none" stroke="#865327" opacity="0.32051282051282054" stroke-width="1" class="gramercy"/>
<path d="M 2923.0086 2548.676 2887.6176 2528.8666 2912.8218 2486.1246 2947.171 2506.0476 2923.0086 2548.676 Z" fill="none" stroke="#865327" opacity="0.32051282051282054" stroke-width="1" class="gramercy"/>
<path d="M 2887.1551 2530.1339 2911.6654 2486.3552 2946.5926 2505.0109 2924.1653 2549.9431 2887.1551 2530.1339 Z" fill="none" stroke="#865327" opacity="0.32051282051282054" stroke-width="1" class="gramercy"/>
<path d="M 2887.6176 2529.2122 2898.7171 2511.0092 2927.3878 2458.7061 2987.0647 2492.1003 2956.546 2545.329 2922.7771 2547.1784 2887.6176 2529.2122 Z" fill="none" stroke="#865327" opacity="0.32051282051282054" stroke-width="1" class="gramercy"/>
<path d="M 2833.4962 2543.2722 2917.2019 2397.658 3034.7012 2464.4412 2951.4704 2610.5368 2833.4962 2543.2722 Z" fill="none" stroke="#865327" opacity="0.32051282051282054" stroke-width="1" class="gramercy"/>
<path d="M 3061.1296 2665.3506 2871.4308 2562.1621 2921.9545 2468.3832 3036.9176 2531.6003 3061.1296 2665.3506 Z" fill="none" stroke="#865327" opacity="0.32051282051282054" stroke-width="1" class="gramercy"/>
<path d="M 2997.2516 2534.4909 2953.7825 2605.4671 2882.5331 2561.2391 2917.6783 2483.8199 2997.2516 2534.4909 Z" fill="none" stroke="#865327" opacity="0.32051282051282054" stroke-width="1" class="gramercy"/>
<path d="M 3041.6627 2543.6951 2925.0787 2480.1325 2962.069 2410.0898 3063.8414 2462.5894 3041.6627 2543.6951 Z" fill="none" stroke="#865327" opacity="0.32051282051282054" stroke-width="1" class="gramercy"/>
<path d="M 2914.441 2487.9675 2973.6568 2522.0547 2947.2973 2561.6897 2889.4682 2531.2856 2914.441 2487.9675 Z" fill="none" stroke="#865327" opacity="0.32051282051282054" stroke-width="1" class="gramercy"/>
<path d="M 2953.783 2608.2321 2866.8048 2562.1626 2899.1758 2483.8227 2993.5511 2535.4134 2953.783 2608.2321 Z" fill="none" stroke="#865327" opacity="0.32051282051282054" stroke-width="1" class="gramercy"/>
<path d="M 2872.818 2556.6321 2875.3623 2556.4014 2915.1348 2487.5066 2996.0948 2533.3392 2953.7838 2611.9189 2874.4383 2567.0003 2872.818 2556.6321 Z" fill="none" stroke="#865327" opacity="0.32051282051282054" stroke-width="1" class="gramercy"/>
<path d="M 2913.2844 2486.5853 2972.9624 2519.5205 2944.5234 2570.6762 2883.6866 2537.0464 2913.2844 2486.5853 Z" fill="none" stroke="#865327" opacity="0.32051282051282054" stroke-width="1" class="gramercy"/>
<path d="M 2863.5666 2561.7021 2908.8897 2484.2821 2976.8949 2522.054 2933.4261 2599.9409 2931.1128 2598.5588 2863.5666 2561.7021 Z" fill="none" stroke="#865327" opacity="0.32051282051282054" stroke-width="1" class="gramercy"/>
<path d="M 2909.3523 2484.7428 2998.1765 2533.5691 2951.9329 2610.0759 2869.5803 2561.2406 2909.3523 2484.7428 Z" fill="none" stroke="#865327" opacity="0.32051282051282054" stroke-width="1" class="gramercy"/>
<path d="M 2892.4736 2520.3412 2930.6244 2451.1029 2989.1441 2483.1145 2950.9963 2552.127 2892.4736 2520.3412 Z" fill="none" stroke="#865327" opacity="0.32051282051282054" stroke-width="1" class="gramercy"/>
<path d="M 2943.1166 2469.5314 3012.0469 2505.9177 2960.7209 2601.3182 2890.6291 2564.4638 2943.1166 2469.5314 Z" fill="none" stroke="#865327" opacity="0.32051282051282054" stroke-width="1" class="gramercy"/>
<path d="M 2840.8897 2443.2814 2971.3422 2514.2217 2919.0853 2602.7084 2791.8626 2531.7541 2840.8897 2443.2814 Z" fill="none" stroke="#865327" opacity="0.32051282051282054" stroke-width="1" class="gramercy"/>
<path d="M 2883.6867 2537.968 2941.0281 2431.9795 3000.01 2465.8328 2942.9042 2569.9853 2883.6867 2537.968 Z" fill="none" stroke="#865327" opacity="0.32051282051282054" stroke-width="1" class="gramercy"/>
<path d="M 2997.7139 2533.5692 2971.5889 2584.7259 2904.2734 2547.6422 2932.4828 2497.6409 2997.7139 2533.5692 Z" fill="none" stroke="#865327" opacity="0.32051282051282054" stroke-width="1" class="gramercy"/>
<path d="M 2893.6299 2519.765 2926.9254 2459.167 2986.602 2491.6396 2957.4713 2545.5592 2951.9213 2551.5509 2893.6299 2519.765 Z" fill="none" stroke="#865327" opacity="0.32051282051282054" stroke-width="1" class="gramercy"/>
<path d="M 3037.0118 2457.0683 3036.0873 2458.9116 2970.4305 2575.9704 2845.5214 2517.4663 2915.8141 2395.8153 3037.0118 2457.0683 Z" fill="none" stroke="#865327" opacity="0.32051282051282054" stroke-width="1" class="gramercy"/>
<path d="M 2972.2693 2522.9766 2929.2614 2593.4899 2874.6693 2564.4658 2913.5152 2483.3598 2972.2693 2522.9766 Z" fill="none" stroke="#865327" opacity="0.32051282051282054" stroke-width="1" class="gramercy"/>
<path d="M 2996.7884 2532.187 2955.6341 2610.9968 2833.9589 2545.5762 2907.029 2414.7071 2908.417 2417.0106 3055.0631 2495.7681 3035.6515 2552.4522 2996.7884 2532.187 Z" fill="none" stroke="#865327" opacity="0.32051282051282054" stroke-width="1" class="gramercy"/>
<path d="M 2910.7402 2486.1249 2999.1008 2529.8824 2951.4695 2606.3892 2868.1924 2559.8583 2910.7402 2486.1249 Z" fill="none" stroke="#865327" opacity="0.32051282051282054" stroke-width="1" class="gramercy"/>
<path d="M 2913.5155 2485.6637 2917.2161 2486.1239 2996.3259 2532.6479 2951.4702 2609.6151 2866.3424 2563.5451 2913.5155 2485.6637 Z" fill="none" stroke="#865327" opacity="0.32051282051282054" stroke-width="1" class="gramercy"/>
<path d="M 2959.333 2600.8576 2890.8604 2564.9246 2912.1336 2522.5271 2951.8992 2439.5799 3024.0657 2476.4243 2959.333 2600.8576 Z" fill="none" stroke="#865327" opacity="0.32051282051282054" stroke-width="1" class="gramercy"/>
<path d="M 2912.5903 2484.7423 2944.5107 2503.629 2900.5785 2588.4253 2872.8182 2558.4754 2912.5903 2484.7423 Z" fill="none" stroke="#865327" opacity="0.32051282051282054" stroke-width="1" class="gramercy"/>
<path d="M 2884.3806 2537.7375 2915.3661 2487.5065 2915.3659 2486.1242 2971.343 2517.9081 2944.9859 2569.9849 2884.3806 2537.7375 Z" fill="none" stroke="#865327" opacity="0.32051282051282054" stroke-width="1" class="gramercy"/>
<path d="M 2894.5492 2476.4509 2946.8238 2504.7805 2923.2398 2548.1 2888.5426 2528.0601 2894.5492 2476.4509 Z" fill="none" stroke="#865327" opacity="0.32051282051282054" stroke-width="1" class="gramercy"/>
<path d="M 2941.7242 2444.1895 3024.9911 2477.3456 2957.4836 2606.388 2877.9058 2550.1801 2941.7242 2444.1895 Z" fill="none" stroke="#865327" opacity="0.32051282051282054" stroke-width="1" class="gramercy"/>
<path d="M 2911.6654 2486.5855 2970.8807 2519.0602 2943.3668 2570.2156 2883.6866 2537.2768 2911.6653 2485.5488 2911.6654 2486.5855 Z" fill="none" stroke="#865327" opacity="0.32051282051282054" stroke-width="1" class="gramercy"/>
<path d="M 2945.8988 2505.7022 2912.834 2564.2302 2877.9054 2546.9544 2912.3594 2487.507 2945.8988 2505.7022 Z" fill="none" stroke="#865327" opacity="0.32051282051282054" stroke-width="1" class="gramercy"/>
<path d="M 2913.0528 2484.2814 2989.3872 2533.1104 2952.3951 2607.7716 2876.0573 2566.3089 2883.9183 2540.5024 2913.0528 2484.2814 Z" fill="none" stroke="#865327" opacity="0.32051282051282054" stroke-width="1" class="gramercy"/>
<path d="M 2903.816 2583.3557 2820.5434 2540.0474 2865.4061 2458.9451 2946.8239 2505.4717 2903.816 2583.3557 Z" fill="none" stroke="#865327" opacity="0.32051282051282054" stroke-width="1" class="gramercy"/>
<path d="M 2942.4416 2570.2158 2883.9179 2536.5855 2911.2027 2485.4337 2972.0372 2519.2903 2942.4416 2570.2158 Z" fill="none" stroke="#865327" opacity="0.32051282051282054" stroke-width="1" class="gramercy"/>
<path d="M 2938.7169 2439.8128 2995.6176 2473.2063 2949.61 2560.0764 2889.2364 2527.5992 2938.7169 2439.8128 Z" fill="none" stroke="#865327" opacity="0.32051282051282054" stroke-width="1" class="gramercy"/>
<path d="M 2874.6696 2567.2307 2874.2058 2556.632 2913.2844 2486.8157 2947.0552 2505.2412 2904.2788 2584.2773 2874.6696 2567.2307 Z" fill="none" stroke="#865327" opacity="0.32051282051282054" stroke-width="1" class="gramercy"/>
<path d="M 2927.8528 2472.7596 2980.5903 2499.0135 2940.3597 2569.0641 2884.8432 2537.7374 2921.3763 2468.6137 2927.8528 2472.7596 Z" fill="none" stroke="#865327" opacity="0.32051282051282054" stroke-width="1" class="gramercy"/>
<path d="M 2900.1044 2508.3594 2903.3413 2500.4103 2939.5408 2518.3753 2930.7549 2536.1177 2895.0175 2518.152 2900.1044 2508.3594 Z" fill="none" stroke="#865327" opacity="0.32051282051282054" stroke-width="1" class="gramercy"/>
<path d="M 2912.8219 2486.8158 2996.0949 2533.8 2952.627 2610.767 2872.8187 2563.0835 2912.8219 2486.8158 Z" fill="none" stroke="#865327" opacity="0.32051282051282054" stroke-width="1" class="gramercy"/>
<path d="M 2911.6654 2486.1248 2929.4759 2496.7199 2929.7072 2496.9502 2940.1116 2478.5171 3008.3487 2515.3649 2955.8656 2611.9185 2874.6698 2569.074 2874.6686 2558.0143 2911.6654 2486.1248 Z" fill="none" stroke="#865327" opacity="0.32051282051282054" stroke-width="1" class="gramercy"/>
<path d="M 2997.4826 2533.5692 2953.0897 2611.4582 2874.6697 2567.6915 2874.6681 2553.867 2913.2844 2486.3549 2997.4826 2533.5692 Z" fill="none" stroke="#865327" opacity="0.32051282051282054" stroke-width="1" class="gramercy"/>
<path d="M 2952.8578 2608.2323 2867.7299 2561.2408 2911.2026 2484.7425 2996.3259 2532.6479 2952.8578 2608.2323 Z" fill="none" stroke="#865327" opacity="0.32051282051282054" stroke-width="1" class="gramercy"/>
<path d="M 2888.0463 2574.6216 2854.276 2550.202 2905.147 2452.5087 2967.5923 2469.5458 2888.0463 2574.6216 Z" fill="none" stroke="#865327" opacity="0.32051282051282054" stroke-width="1" class="gramercy"/>
<path d="M 2989.3641 2435.6553 2905.8981 2585.89 2873.9746 2557.0928 2949.1197 2417.6947 2952.5882 2415.1599 2985.6632 2433.1221 2989.3641 2435.6553 Z" fill="none" stroke="#865327" opacity="0.32051282051282054" stroke-width="1" class="gramercy"/>
<path d="M 2911.6655 2487.0463 2944.9736 2505.0112 2913.528 2564.9213 2882.5313 2546.0323 2880.2182 2545.1109 2911.6655 2487.0463 Z" fill="none" stroke="#865327" opacity="0.32051282051282054" stroke-width="1" class="gramercy"/>
<path d="M 2912.1223 2449.7237 2987.9892 2489.3353 2938.9713 2565.8386 2863.0998 2521.6118 2911.1962 2443.2732 2912.1223 2449.7237 Z" fill="none" stroke="#865327" opacity="0.32051282051282054" stroke-width="1" class="gramercy"/>
<path d="M 2874.1944 2458.0226 2839.5097 2540.5069 2805.7393 2511.4785 2845.0529 2447.4279 2874.1944 2458.0226 Z" fill="none" stroke="#865327" opacity="0.32051282051282054" stroke-width="1" class="gramercy"/>
<path d="M 3000.952 2533.5684 2956.328 2610.9967 2955.4029 2611.4577 2873.7448 2570.2262 2883.6868 2538.4288 2913.053 2485.8942 3000.952 2533.5684 Z" fill="none" stroke="#865327" opacity="0.32051282051282054" stroke-width="1" class="gramercy"/>
<path d="M 2893.2832 2521.1474 2916.8676 2476.2172 2976.5451 2509.0366 2952.3844 2553.97 2926.8235 2539.5744 2893.2832 2521.1474 Z" fill="none" stroke="#865327" opacity="0.32051282051282054" stroke-width="1" class="gramercy"/>
<path d="M 2904.0474 2584.0469 2873.9759 2568.3828 2912.3593 2487.0462 2946.5929 2506.6237 2904.0474 2584.0469 Z" fill="none" stroke="#865327" opacity="0.32051282051282054" stroke-width="1" class="gramercy"/>
<path d="M 2910.7404 2487.5073 2970.1867 2518.3691 2932.7303 2589.5723 2875.3623 2556.6318 2910.7404 2487.5073 Z" fill="none" stroke="#865327" opacity="0.32051282051282054" stroke-width="1" class="gramercy"/>
<path d="M 2908.8909 2492.1154 2942.6626 2515.1491 2922.7771 2547.4088 2889.468 2529.4424 2908.8909 2492.1154 Z" fill="none" stroke="#865327" opacity="0.32051282051282054" stroke-width="1" class="gramercy"/>
<path d="M 2933.4127 2524.3668 2943.5879 2516.0705 2902.8901 2578.7476 2870.505 2556.6324 2905.6537 2497.6453 2933.4127 2524.3668 Z" fill="none" stroke="#865327" opacity="0.32051282051282054" stroke-width="1" class="gramercy"/>
<path d="M 2856.6138 2419.5511 2925.7689 2458.476 2897.3294 2511.7006 2827.0153 2473.4627 2856.6138 2419.5511 Z" fill="none" stroke="#865327" opacity="0.32051282051282054" stroke-width="1" class="gramercy"/>
<path d="M 2953.7836 2610.9972 2875.1321 2565.8482 2881.5965 2468.1586 2997.2513 2533.5693 2953.7836 2610.9972 Z" fill="none" stroke="#865327" opacity="0.32051282051282054" stroke-width="1" class="gramercy"/>
<path d="M 2952.8596 2617.4492 2874.9012 2569.5348 2913.2848 2489.35 2993.5509 2534.4918 2952.8596 2617.4492 Z" fill="none" stroke="#865327" opacity="0.32051282051282054" stroke-width="1" class="gramercy"/>
<path d="M 2875.1197 2458.944 2899.1699 2442.3534 2932.0101 2440.5052 2971.3287 2452.0165 2985.2155 2496.7085 2986.1473 2525.2775 2973.199 2543.7126 2957.4767 2572.2865 2933.4292 2617.4528 2913.0762 2634.0468 2861.2616 2640.5054 2829.8006 2618.3873 2822.3967 2587.9724 2804.8164 2564.9321 2815.9154 2500.4191 2875.1197 2458.944 Z" fill="none" stroke="#865327" opacity="0.32051282051282054" stroke-width="1" class="gramercy"/>
<path d="M 2907.3524 2572.4378 2838.815 2536.1726 2891.3264 2440.722 2958.085 2479.4153 2907.3524 2572.4378 Z" fill="none" stroke="#865327" opacity="0.32051282051282054" stroke-width="1" class="gramercy"/>
<path d="M 2978.2829 2523.2057 2954.6998 2566.1812 2924.1652 2549.3671 2889.121 2528.8664 2913.7472 2487.7372 2978.2829 2523.2057 Z" fill="none" stroke="#865327" opacity="0.32051282051282054" stroke-width="1" class="gramercy"/>
<path d="M 2970.8806 2518.5994 2948.2228 2563.072 2888.5428 2529.6729 2913.747 2486.5852 2970.8806 2518.5994 Z" fill="none" stroke="#865327" opacity="0.32051282051282054" stroke-width="1" class="gramercy"/>
<path d="M 2871.4299 2553.8674 2917.6779 2481.0552 2977.8169 2507.7692 2930.6481 2587.0381 2871.4299 2553.8674 Z" fill="none" stroke="#865327" opacity="0.32051282051282054" stroke-width="1" class="gramercy"/>
<path d="M 2953.3209 2610.5364 2864.0292 2562.1629 2879.2836 2467.2374 2997.2511 2532.6477 2882.0592 2469.0801 2995.8637 2534.0304 2994.4755 2532.1875 2953.3209 2610.5364 Z" fill="none" stroke="#865327" opacity="0.32051282051282054" stroke-width="1" class="gramercy"/>
<path d="M 2961.1787 2577.8157 2909.8251 2551.5582 2882.0672 2534.5121 2912.5909 2488.8893 2938.0234 2441.8864 3016.2059 2490.2498 2969.0429 2577.3532 2968.1183 2580.1183 2961.1787 2577.8157 Z" fill="none" stroke="#865327" opacity="0.32051282051282054" stroke-width="1" class="gramercy"/>
<path d="M 3073.1513 2643.2253 3069.461 2676.8697 2873.2817 2566.3092 2871.4271 2528.9838 2884.3701 2454.3352 2902.4051 2423.9227 3055.0664 2506.3663 3033.3384 2551.9921 3049.0857 2615.5818 3073.1513 2643.2253 Z" fill="none" stroke="#865327" opacity="0.32051282051282054" stroke-width="1" class="gramercy"/>
<path d="M 2878.8209 2465.8551 2914.6721 2486.3547 2885.5367 2534.7421 2852.4601 2517.4657 2878.8209 2465.8551 Z" fill="none" stroke="#865327" opacity="0.32051282051282054" stroke-width="1" class="gramercy"/>
<path d="M 2928.7993 2596.255 2875.1325 2569.5348 2872.3551 2553.8673 2905.6511 2480.1355 2972.2672 2513.2999 2928.7993 2596.255 Z" fill="none" stroke="#865327" opacity="0.32051282051282054" stroke-width="1" class="gramercy"/>
<path d="M 2891.7795 2518.8437 2911.6655 2487.0463 2970.6495 2519.521 2951.6902 2552.4725 2890.8545 2519.7654 2891.7795 2518.8437 Z" fill="none" stroke="#865327" opacity="0.32051282051282054" stroke-width="1" class="gramercy"/>
<path d="M 2876.0574 2567.2305 2874.6683 2556.1711 2894.0923 2517.9218 2913.978 2484.7421 2971.8061 2520.212 2927.4119 2599.0203 2876.0574 2567.2305 Z" fill="none" stroke="#865327" opacity="0.32051282051282054" stroke-width="1" class="gramercy"/>
<path d="M 2997.2509 2531.7261 2952.3959 2611.9192 2884.3849 2571.8378 2874.2068 2565.3875 2873.7432 2556.1712 2912.1277 2484.7424 2959.7773 2511.9202 2997.2509 2531.7261 Z" fill="none" stroke="#865327" opacity="0.32051282051282054" stroke-width="1" class="gramercy"/>
<path d="M 2945.4359 2504.0896 2919.5395 2551.0959 2883.455 2534.512 2911.2033 2489.3503 2945.4359 2504.0896 Z" fill="none" stroke="#865327" opacity="0.32051282051282054" stroke-width="1" class="gramercy"/>
<path d="M 2876.0587 2577.8295 2923.2286 2481.0543 3006.5002 2522.5077 2956.5619 2623.9003 2876.0587 2577.8295 Z" fill="none" stroke="#865327" opacity="0.32051282051282054" stroke-width="1" class="gramercy"/>
<path d="M 2912.1279 2485.6639 2971.3433 2519.2905 2943.1354 2569.5244 2883.9178 2536.3551 2912.1279 2485.6639 Z" fill="none" stroke="#865327" opacity="0.32051282051282054" stroke-width="1" class="gramercy"/>
<path d="M 2937.0939 2417.4666 2943.5693 2417.4654 3046.2647 2463.5163 2988.013 2590.7129 2879.7536 2528.9828 2937.0939 2417.4666 Z" fill="none" stroke="#865327" opacity="0.32051282051282054" stroke-width="1" class="gramercy"/>
<path d="M 2882.973 2378.3121 3068.6587 2339.3399 3011.8155 2505.6874 2876.5121 2499.9531 2882.973 2378.3121 Z" fill="none" stroke="#865327" opacity="0.32051282051282054" stroke-width="1" class="gramercy"/>
<path d="M 2910.278 2488.4289 2970.4178 2517.4475 2943.1351 2568.142 2881.6047 2534.973 2910.278 2488.4289 Z" fill="none" stroke="#865327" opacity="0.32051282051282054" stroke-width="1" class="gramercy"/>
<path d="M 2893.6198 2445.1188 3016.6717 2502.2302 2972.2815 2578.735 2886.2297 2528.0604 2893.6198 2445.1188 Z" fill="none" stroke="#865327" opacity="0.32051282051282054" stroke-width="1" class="gramercy"/>
<path d="M 2902.8718 2452.4897 3030.5581 2535.4037 2966.7296 2575.9712 2867.7248 2514.2386 2902.8718 2452.4897 Z" fill="none" stroke="#865327" opacity="0.32051282051282054" stroke-width="1" class="gramercy"/>
<path d="M 2957.228 2486.8078 2918.7309 2556.741 2883.571 2537.6224 2922.5325 2467.5768 2957.228 2486.8078 Z" fill="none" stroke="#865327" opacity="0.32051282051282054" stroke-width="1" class="gramercy"/>
<path d="M 2876.0458 2467.6985 2971.8062 2520.6728 2928.799 2594.4117 2834.8841 2545.5762 2876.0458 2467.6985 Z" fill="none" stroke="#865327" opacity="0.32051282051282054" stroke-width="1" class="gramercy"/>
<path d="M 2913.053 2485.6638 2996.3253 2529.8831 2955.1716 2611.9186 2880.2215 2572.2991 2876.5187 2556.1709 2913.053 2485.6638 Z" fill="none" stroke="#865327" opacity="0.32051282051282054" stroke-width="1" class="gramercy"/>
<path d="M 2912.1279 2485.8943 2947.0556 2507.3148 2922.3148 2549.2522 2889.4679 2529.212 2917.4458 2475.9867 2912.1279 2485.8943 Z" fill="none" stroke="#865327" opacity="0.32051282051282054" stroke-width="1" class="gramercy"/>
<path d="M 2886.6835 2459.4034 3003.2635 2527.5774 2958.8712 2605.0052 2838.5844 2539.5854 2886.6835 2459.4034 Z" fill="none" stroke="#865327" opacity="0.32051282051282054" stroke-width="1" class="gramercy"/>
<path d="M 2870.1552 2530.3663 2885.758 2456.1781 2989.1408 2469.2912 2934.3452 2565.4938 2870.1552 2530.3663 Z" fill="none" stroke="#865327" opacity="0.32051282051282054" stroke-width="1" class="gramercy"/>
<path d="M 2952.2411 2610.6906 2834.4213 2541.8897 2930.3023 2371.0873 3025.5928 2421.747 3055.2014 2442.9331 2952.2411 2610.6906 Z" fill="none" stroke="#865327" opacity="0.32051282051282054" stroke-width="1" class="gramercy"/>
<path d="M 2885.541 2537.7482 2906.1442 2503.083 2910.3061 2495.0186 2992.043 2545.7223 2960.6389 2603.9655 2877.0224 2555.439 2885.541 2537.7482 Z" fill="none" stroke="#865327" opacity="0.32051282051282054" stroke-width="1" class="gramercy"/>
<path d="M 2829.0969 2474.3841 2832.3353 2481.0651 2829.5595 2475.3056 2957.2397 2544.1768 2939.6656 2567.9122 2814.759 2500.1887 2829.0969 2474.3841 Z" fill="none" stroke="#865327" opacity="0.32051282051282054" stroke-width="1" class="gramercy"/>
<path d="M 2872.9041 2520.2883 2871.8978 2518.4844 2881.9482 2469.6008 2996.5965 2532.687 2973.8794 2576.571 2872.9041 2520.2883 Z" fill="none" stroke="#865327" opacity="0.32051282051282054" stroke-width="1" class="gramercy"/>
<path d="M 2968.5678 2518.8303 2935.2738 2584.2723 2866.8038 2552.9463 2891.7737 2475.5297 2968.5678 2518.8303 Z" fill="none" stroke="#865327" opacity="0.32051282051282054" stroke-width="1" class="gramercy"/>
<path d="M 2893.6354 2560.316 2849.2226 2524.378 2889.9185 2437.7471 2938.027 2461.6992 2893.6354 2560.316 Z" fill="none" stroke="#865327" opacity="0.32051282051282054" stroke-width="1" class="gramercy"/>
<path d="M 2996.7887 2533.5694 2958.6395 2602.9315 2874.4368 2554.3279 2912.3593 2486.8158 2996.7887 2533.5694 Z" fill="none" stroke="#865327" opacity="0.32051282051282054" stroke-width="1" class="gramercy"/>
<path d="M 2889.0054 2529.4424 2912.5903 2485.2031 2998.1766 2533.7995 2972.975 2576.6611 2889.0054 2529.4424 Z" fill="none" stroke="#865327" opacity="0.32051282051282054" stroke-width="1" class="gramercy"/>
<path d="M 2911.2027 2485.6641 3029.1743 2549.6892 3038.9015 2593.4646 2982.4545 2559.3782 2972.281 2576.4308 2888.5428 2529.4425 2911.2027 2485.6641 Z" fill="none" stroke="#865327" opacity="0.32051282051282054" stroke-width="1" class="gramercy"/>
<path d="M 2951.9323 2607.3108 2874.2069 2565.8483 2876.0568 2562.1615 2890.8606 2565.8462 2876.0565 2559.3966 2913.0538 2491.1932 3000.0275 2536.3334 2951.9323 2607.3108 Z" fill="none" stroke="#865327" opacity="0.32051282051282054" stroke-width="1" class="gramercy"/>
<path d="M 2892.2427 2523.2212 2909.1234 2499.9487 2998.8708 2535.4121 2952.1642 2610.3063 2873.7444 2567.4612 2892.2427 2523.2212 Z" fill="none" stroke="#865327" opacity="0.32051282051282054" stroke-width="1" class="gramercy"/>
<path d="M 2876.0576 2568.613 2876.0561 2555.7101 2913.0524 2481.9775 2997.2516 2534.4909 2951.9333 2611.9192 2876.0576 2568.613 Z" fill="none" stroke="#865327" opacity="0.32051282051282054" stroke-width="1" class="gramercy"/>
<path d="M 2912.8218 2486.5854 2997.4826 2533.5692 2958.4079 2601.7795 2874.2056 2554.5583 2912.8218 2486.5854 Z" fill="none" stroke="#865327" opacity="0.32051282051282054" stroke-width="1" class="gramercy"/>
<path d="M 2927.3883 2461.7011 2985.6772 2493.0222 2947.7601 2562.6112 2887.6179 2531.2858 2927.3883 2461.7011 Z" fill="none" stroke="#865327" opacity="0.32051282051282054" stroke-width="1" class="gramercy"/>
<path d="M 2911.8966 2486.1247 2996.326 2532.8783 2968.5819 2584.4961 2883.9181 2538.4288 2911.8966 2486.1247 Z" fill="none" stroke="#865327" opacity="0.32051282051282054" stroke-width="1" class="gramercy"/>
<path d="M 2888.5427 2528.5209 2916.752 2476.2172 2952.8352 2494.642 2922.0833 2547.8698 2888.5427 2528.5209 Z" fill="none" stroke="#865327" opacity="0.32051282051282054" stroke-width="1" class="gramercy"/>
<path d="M 2953.7836 2610.9972 2871.4309 2563.0837 2910.278 2488.4289 2997.2516 2534.4909 2953.7836 2610.9972 Z" fill="none" stroke="#865327" opacity="0.32051282051282054" stroke-width="1" class="gramercy"/>
<path d="M 2942.2101 2568.8334 2933.1885 2564.4572 2879.986 2537.738 2925.0749 2457.5546 2985.4451 2489.5663 2942.2101 2568.8334 Z" fill="none" stroke="#865327" opacity="0.32051282051282054" stroke-width="1" class="gramercy"/>
<path d="M 2913.2844 2486.5853 2995.6323 2533.8001 2972.2808 2575.5092 2888.7739 2527.8296 2913.2844 2486.5853 Z" fill="none" stroke="#865327" opacity="0.32051282051282054" stroke-width="1" class="gramercy"/>
<path d="M 2950.082 2608.2329 2870.0433 2564.4663 2912.5911 2489.8109 2994.9383 2533.109 2950.082 2608.2329 Z" fill="none" stroke="#865327" opacity="0.32051282051282054" stroke-width="1" class="gramercy"/>
<path d="M 2912.3592 2486.3551 2971.1119 2518.5993 2943.3669 2570.446 2883.2241 2537.7376 2912.3592 2486.3551 Z" fill="none" stroke="#865327" opacity="0.32051282051282054" stroke-width="1" class="gramercy"/>
<path d="M 2944.4975 2434.0523 3001.8604 2466.5235 2970.4182 2519.5211 2912.8217 2485.4334 2944.4975 2434.0523 Z" fill="none" stroke="#865327" opacity="0.32051282051282054" stroke-width="1" class="gramercy"/>
<path d="M 2997.2512 2532.8781 2952.6273 2612.6104 2869.581 2567.0009 2911.897 2488.4286 2997.2512 2532.8781 Z" fill="none" stroke="#865327" opacity="0.32051282051282054" stroke-width="1" class="gramercy"/>
<path d="M 2888.774 2528.7512 2910.9714 2485.4337 2946.5925 2504.5501 2923.9338 2548.5607 2888.774 2528.7512 Z" fill="none" stroke="#865327" opacity="0.32051282051282054" stroke-width="1" class="gramercy"/>
<path d="M 3010.199 2515.134 2973.2067 2578.7348 2884.3805 2537.2767 2915.8279 2482.8987 2922.3017 2469.9959 3010.199 2515.134 Z" fill="none" stroke="#865327" opacity="0.32051282051282054" stroke-width="1" class="gramercy"/>
<path d="M 2913.9783 2486.5852 3000.9516 2531.7252 2920.4846 2671.8363 2861.2542 2567.693 2913.9783 2486.5852 Z" fill="none" stroke="#865327" opacity="0.32051282051282054" stroke-width="1" class="gramercy"/>
<path d="M 2953.7839 2612.8406 2890.8615 2573.2194 2915.835 2527.1345 2890.8565 2535.4326 2884.382 2549.2577 2851.9981 2524.3777 2873.2719 2480.1398 2976.9093 2586.1072 2967.6568 2585.1875 2953.7839 2612.8406 Z" fill="none" stroke="#865327" opacity="0.32051282051282054" stroke-width="1" class="gramercy"/>
<path d="M 2843.6745 2559.3999 2901.0107 2376.9275 3010.1699 2402.7066 2978.7612 2592.5584 2843.6745 2559.3999 Z" fill="none" stroke="#865327" opacity="0.32051282051282054" stroke-width="1" class="gramercy"/>
<path d="M 2880.6717 2470.9234 2975.0443 2520.672 2930.6541 2621.1401 2820.5449 2565.853 2880.6717 2470.9234 Z" fill="none" stroke="#865327" opacity="0.32051282051282054" stroke-width="1" class="gramercy"/>
<path d="M 2912.3466 2405.261 3030.0769 2469.0503 2953.5523 2611.2277 2834.6528 2545.5762 2912.5781 2406.4128 2912.3466 2405.261 Z" fill="none" stroke="#865327" opacity="0.32051282051282054" stroke-width="1" class="gramercy"/>
<path d="M 2938.0364 2512.846 2941.2743 2512.3846 2918.1524 2554.7826 2882.0677 2538.1986 2909.3544 2498.5663 2938.0364 2512.846 Z" fill="none" stroke="#865327" opacity="0.32051282051282054" stroke-width="1" class="gramercy"/>
<path d="M 2912.1277 2484.7424 2998.1765 2533.5691 2951.9333 2611.9192 2887.1607 2573.2199 2904.7349 2540.0387 2888.0797 2525.2953 2912.1277 2484.7424 Z" fill="none" stroke="#865327" opacity="0.32051282051282054" stroke-width="1" class="gramercy"/>
<path d="M 2876.0561 2555.7101 2925.9993 2453.4075 2996.3147 2486.5687 2935.7368 2586.5763 2876.0561 2555.7101 Z" fill="none" stroke="#865327" opacity="0.32051282051282054" stroke-width="1" class="gramercy"/>
<path d="M 2941.9788 2568.8334 2883.4554 2537.968 2913.5158 2487.5068 2969.493 2519.2909 2941.9788 2568.8334 Z" fill="none" stroke="#865327" opacity="0.32051282051282054" stroke-width="1" class="gramercy"/>
<path d="M 2901.9654 2582.4344 2870.506 2565.8487 2890.8452 2449.7267 2954.6846 2490.2642 2901.9654 2582.4344 Z" fill="none" stroke="#865327" opacity="0.32051282051282054" stroke-width="1" class="gramercy"/>
<path d="M 2974.1201 2525.2802 2929.7239 2592.5682 2836.2715 2540.0464 2841.8218 2530.8298 2876.9708 2467.2377 2974.1201 2525.2802 Z" fill="none" stroke="#865327" opacity="0.32051282051282054" stroke-width="1" class="gramercy"/>
<path d="M 2902.8899 2576.9043 2950.0552 2470.9124 2993.5457 2513.295 2942.679 2602.7042 2902.8899 2576.9043 Z" fill="none" stroke="#865327" opacity="0.32051282051282054" stroke-width="1" class="gramercy"/>
<path d="M 2883.4466 2467.2369 2915.8184 2422.9992 2963.0021 2448.7929 2942.6612 2507.7764 2933.4086 2501.3271 2883.4466 2467.2369 Z" fill="none" stroke="#865327" opacity="0.32051282051282054" stroke-width="1" class="gramercy"/>
<path d="M 3006.8452 2514.7893 2969.2754 2582.8831 2883.9178 2535.8943 2922.5328 2469.3047 3006.8452 2514.7893 Z" fill="none" stroke="#865327" opacity="0.32051282051282054" stroke-width="1" class="gramercy"/>
<path d="M 2954.7092 2612.8404 2874.2072 2568.6132 2873.5118 2555.7104 2912.5907 2487.507 2996.789 2534.491 2954.7092 2612.8404 Z" fill="none" stroke="#865327" opacity="0.32051282051282054" stroke-width="1" class="gramercy"/>
<path d="M 2876.52 2567.2305 2883.4465 2466.3153 2976.8942 2518.8284 2929.7245 2596.2549 2876.52 2567.2305 Z" fill="none" stroke="#865327" opacity="0.32051282051282054" stroke-width="1" class="gramercy"/>
<path d="M 2946.3536 2464.9231 2999.0634 2378.7512 2921.385 2521.1432 2896.8694 2529.9022 2860.3247 2525.2985 2873.2722 2482.9045 2900.5589 2452.0292 2925.0747 2456.1723 2946.3536 2464.9231 Z" fill="none" stroke="#865327" opacity="0.32051282051282054" stroke-width="1" class="gramercy"/>
<path d="M 2876.0559 2553.8668 2913.9784 2487.5068 3001.8756 2527.1169 2955.6318 2599.9367 2876.0559 2553.8668 Z" fill="none" stroke="#865327" opacity="0.32051282051282054" stroke-width="1" class="gramercy"/>
<path d="M 2918.3711 2477.3689 2951.9106 2497.4069 2923.0087 2549.2521 2891.7808 2528.5204 2918.3711 2477.3689 Z" fill="none" stroke="#865327" opacity="0.32051282051282054" stroke-width="1" class="gramercy"/>
<path d="M 2912.1278 2485.2031 2970.4182 2519.2907 2996.3259 2532.6479 2945.9137 2583.3486 2942.2143 2591.6443 2928.3367 2596.2551 2906.1289 2582.4337 2909.3659 2573.6776 2891.7856 2564.4637 2879.2931 2545.5718 2912.1278 2485.2031 Z" fill="none" stroke="#865327" opacity="0.32051282051282054" stroke-width="1" class="gramercy"/>
<path d="M 2907.5055 2507.552 2924.1579 2505.9365 2931.7931 2521.1414 2901.2667 2548.7946 2907.5055 2507.552 Z" fill="none" stroke="#865327" opacity="0.32051282051282054" stroke-width="1" class="gramercy"/>
<path d="M 2913.053 2485.6638 2922.3009 2465.3881 2984.2897 2493.944 2927.8748 2600.8635 2873.2818 2566.77 2913.053 2485.6638 Z" fill="none" stroke="#865327" opacity="0.32051282051282054" stroke-width="1" class="gramercy"/>
<path d="M 2913.0531 2486.5853 2947.749 2505.0107 2917.69 2556.1651 2882.5299 2534.9729 2913.0531 2486.5853 Z" fill="none" stroke="#865327" opacity="0.32051282051282054" stroke-width="1" class="gramercy"/>
<path d="M 2951.9327 2609.1542 2830.7207 2544.6548 2887.1445 2447.8842 3009.2729 2511.4479 2951.9327 2609.1542 Z" fill="none" stroke="#865327" opacity="0.32051282051282054" stroke-width="1" class="gramercy"/>
<path d="M 2928.7995 2597.6375 2901.5028 2582.4344 2887.1607 2573.2199 2910.2844 2529.9002 2894.5555 2522.5297 2934.3247 2451.1023 2992.151 2484.2658 2928.7995 2597.6375 Z" fill="none" stroke="#865327" opacity="0.32051282051282054" stroke-width="1" class="gramercy"/>
<path d="M 2913.0532 2487.0461 2946.3612 2504.7806 2914.6845 2565.382 2879.7557 2546.263 2913.0532 2487.0461 Z" fill="none" stroke="#865327" opacity="0.32051282051282054" stroke-width="1" class="gramercy"/>
<path d="M 2903.5847 2583.5862 2886.9293 2572.7591 2868.6555 2564.4665 2884.1493 2537.7375 2898.9487 2513.3131 2913.5157 2486.8157 2996.5567 2530.3438 2977.5998 2570.8998 2960.2583 2601.0878 2952.6269 2610.3062 2903.5847 2583.5862 Z" fill="none" stroke="#865327" opacity="0.32051282051282054" stroke-width="1" class="gramercy"/>
<path d="M 2999.6688 2544.6345 2959.1108 2627.2004 2880.4573 2579.2861 2911.9024 2499.1013 2999.6688 2544.6345 Z" fill="none" stroke="#865327" opacity="0.32051282051282054" stroke-width="1" class="gramercy"/>
<path d="M 2911.6654 2486.3552 2946.1301 2505.7022 2950.9877 2508.466 2926.9408 2549.7122 2887.8489 2528.9818 2911.6654 2486.3552 Z" fill="none" stroke="#865327" opacity="0.32051282051282054" stroke-width="1" class="gramercy"/>
<path d="M 2912.1279 2485.6639 2997.7138 2533.1084 2953.7838 2611.9189 2872.3565 2565.8485 2872.3555 2557.093 2912.1279 2485.6639 Z" fill="none" stroke="#865327" opacity="0.32051282051282054" stroke-width="1" class="gramercy"/>
<path d="M 2995.4005 2531.7265 2807.5859 2428.5392 2904.6941 2263.5946 3093.409 2359.3728 2995.4005 2531.7265 Z" fill="none" stroke="#865327" opacity="0.32051282051282054" stroke-width="1" class="gramercy"/>
<path d="M 2911.8967 2486.5855 2971.3428 2516.9865 2948.6841 2556.39 2898.4881 2527.1371 2911.8967 2486.5855 Z" fill="none" stroke="#865327" opacity="0.32051282051282054" stroke-width="1" class="gramercy"/>
<path d="M 2926.9488 2596.2553 2886.2355 2573.22 2891.7854 2563.0812 2873.2802 2552.9455 2910.2776 2485.6642 2969.4927 2517.9085 2926.9488 2596.2553 Z" fill="none" stroke="#865327" opacity="0.32051282051282054" stroke-width="1" class="gramercy"/>
<path d="M 2996.7478 2536.3204 2969.9292 2589.7815 2900.5317 2552.9282 2882.9515 2540.0279 2908.8483 2485.6506 2996.7478 2536.3204 Z" fill="none" stroke="#865327" opacity="0.32051282051282054" stroke-width="1" class="gramercy"/>
<path d="M 2904.9585 2488.4297 2968.3373 2522.7471 2929.2609 2590.4945 2889.7044 2568.6113 2898.7226 2550.1774 2889.9326 2545.1097 2893.6325 2538.6579 2880.2166 2532.4387 2904.9585 2488.4297 Z" fill="none" stroke="#865327" opacity="0.32051282051282054" stroke-width="1" class="gramercy"/>
<path d="M 2942.4416 2570.2158 2883.9179 2537.0463 2907.5035 2494.1891 2965.7943 2528.5076 2942.4416 2570.2158 Z" fill="none" stroke="#865327" opacity="0.32051282051282054" stroke-width="1" class="gramercy"/>
<path d="M 2918.1524 2555.2434 2887.1547 2526.6778 2925.537 2455.2507 2986.8324 2487.9533 2943.3666 2568.8331 2918.1524 2555.2434 Z" fill="none" stroke="#865327" opacity="0.32051282051282054" stroke-width="1" class="gramercy"/>
<path d="M 2876.9706 2465.3946 2949.1363 2502.7065 2901.041 2587.9644 2838.1221 2542.8111 2876.9706 2465.3946 Z" fill="none" stroke="#865327" opacity="0.32051282051282054" stroke-width="1" class="gramercy"/>
<path d="M 2923.2472 2592.5693 2858.4769 2551.1039 2901.0076 2355.2735 3025.4384 2422.0539 2923.2472 2592.5693 Z" fill="none" stroke="#865327" opacity="0.32051282051282054" stroke-width="1" class="gramercy"/>
<path d="M 2876.9822 2563.0831 2917.9101 2486.815 2969.7237 2516.526 2937.1252 2589.8019 2876.9822 2563.0831 Z" fill="none" stroke="#865327" opacity="0.32051282051282054" stroke-width="1" class="gramercy"/>
<path d="M 2912.128 2486.3551 2955.3826 2510.5387 2922.3198 2579.2054 2876.5185 2554.3276 2912.128 2486.3551 Z" fill="none" stroke="#865327" opacity="0.32051282051282054" stroke-width="1" class="gramercy"/>
<path d="M 2970.4181 2518.8299 2951.9213 2551.5509 2893.6297 2518.3826 2896.405 2516.539 2911.6656 2487.5071 2970.4181 2518.8299 Z" fill="none" stroke="#865327" opacity="0.32051282051282054" stroke-width="1" class="gramercy"/>
<path d="M 2946.361 2503.6286 2962.5566 2530.3515 2940.3588 2564.4559 2900.1109 2553.8637 2886.2298 2528.5212 2908.8903 2487.9683 2946.361 2503.6286 Z" fill="none" stroke="#865327" opacity="0.32051282051282054" stroke-width="1" class="gramercy"/>
<path d="M 2953.321 2611.4581 2868.1928 2563.5449 2921.8385 2466.3098 3006.9613 2516.5172 2953.321 2611.4581 Z" fill="none" stroke="#865327" opacity="0.32051282051282054" stroke-width="1" class="gramercy"/>
<path d="M 2911.2031 2487.968 2969.0303 2518.8302 2949.1475 2560.3069 2889.0053 2528.9816 2911.2031 2487.968 Z" fill="none" stroke="#865327" opacity="0.32051282051282054" stroke-width="1" class="gramercy"/>
<path d="M 2951.9219 2554.3157 2891.7799 2522.0692 2922.2992 2455.2512 2984.2889 2490.2578 2951.9219 2554.3157 Z" fill="none" stroke="#865327" opacity="0.32051282051282054" stroke-width="1" class="gramercy"/>
<path d="M 2909.8176 2502.7133 2933.1797 2514.6901 2922.3122 2533.3543 2899.6437 2521.1466 2909.8176 2502.7133 Z" fill="none" stroke="#865327" opacity="0.32051282051282054" stroke-width="1" class="gramercy"/>
<path d="M 2865.4171 2563.0844 2911.6654 2486.5855 3032.645 2553.8355 3038.2067 2590.2389 2983.3798 2560.0692 2953.5519 2609.1539 2865.4171 2563.0844 Z" fill="none" stroke="#865327" opacity="0.32051282051282054" stroke-width="1" class="gramercy"/>
<path d="M 2944.7546 2569.7545 2884.6119 2537.7375 2924.3827 2467.4613 2984.2911 2500.1647 2944.7546 2569.7545 Z" fill="none" stroke="#865327" opacity="0.32051282051282054" stroke-width="1" class="gramercy"/>
<path d="M 2970.4182 2519.2907 2943.3667 2569.7548 2882.9929 2538.4289 2911.8968 2487.2767 2970.4182 2519.2907 Z" fill="none" stroke="#865327" opacity="0.32051282051282054" stroke-width="1" class="gramercy"/>
<path d="M 2911.6656 2487.5071 2912.1286 2490.7325 2994.9386 2534.4915 2960.2585 2602.2399 2873.2807 2557.5537 2911.6656 2487.5071 Z" fill="none" stroke="#865327" opacity="0.32051282051282054" stroke-width="1" class="gramercy"/>
<path d="M 2894.5492 2476.7965 2946.7083 2505.7021 2942.1999 2514.458 2966.0256 2528.2772 2951.6904 2553.6246 2927.5174 2539.9199 2922.199 2548.3306 2889.121 2528.9816 2897.5608 2512.0461 2880.5599 2502.2565 2894.5492 2476.7965 Z" fill="none" stroke="#865327" opacity="0.32051282051282054" stroke-width="1" class="gramercy"/>
<path d="M 2872.3561 2563.0836 2915.8284 2485.6633 3040.7418 2558.4414 3059.2635 2615.5787 3032.4434 2658.907 2872.3561 2563.0836 Z" fill="none" stroke="#865327" opacity="0.32051282051282054" stroke-width="1" class="gramercy"/>
<path d="M 3072.1665 2459.8221 3050.0024 2587.0096 2852.9214 2504.1027 2922.2882 2388.9032 3072.1665 2459.8221 Z" fill="none" stroke="#865327" opacity="0.32051282051282054" stroke-width="1" class="gramercy"/>
<path d="M 2907.2724 2495.5715 2942.8939 2515.1491 2908.9034 2574.5993 2875.3621 2554.5582 2907.2724 2495.5715 Z" fill="none" stroke="#865327" opacity="0.32051282051282054" stroke-width="1" class="gramercy"/>
<path d="M 2955.6344 2612.8402 2914.904 2490.2713 2878.3701 2564.0045 2992.6267 2538.6393 2955.6344 2612.8402 Z" fill="none" stroke="#865327" opacity="0.32051282051282054" stroke-width="1" class="gramercy"/>
<path d="M 2997.2516 2534.4909 2953.7838 2611.9189 2831.6459 2544.6548 2878.8212 2468.159 2997.2516 2534.4909 Z" fill="none" stroke="#865327" opacity="0.32051282051282054" stroke-width="1" class="gramercy"/>
<path d="M 2938.5115 2581.0459 2937.5855 2576.8986 2924.1653 2550.1735 2906.1223 2538.1953 2870.9647 2530.3662 2882.5227 2476.9133 2951.9101 2494.4118 2973.6559 2517.9076 2938.5115 2581.0459 Z" fill="none" stroke="#865327" opacity="0.32051282051282054" stroke-width="1" class="gramercy"/>
<path d="M 2877.8962 2469.0806 2876.0466 2474.6102 3037.9648 2553.834 3057.4133 2616.501 3031.5168 2654.2986 2825.17 2550.1849 2877.8962 2469.0806 Z" fill="none" stroke="#865327" opacity="0.32051282051282054" stroke-width="1" class="gramercy"/>
<path d="M 2910.7407 2488.8896 2966.2551 2520.2132 2945.9092 2559.8467 2884.8424 2531.2862 2894.5559 2525.7553 2908.8907 2491.1938 2910.7407 2488.8896 Z" fill="none" stroke="#865327" opacity="0.32051282051282054" stroke-width="1" class="gramercy"/>
<path d="M 2932.9449 2495.3369 3026.3981 2547.3859 2992.1865 2632.1877 2886.2352 2570.9159 2932.9449 2495.3369 Z" fill="none" stroke="#865327" opacity="0.32051282051282054" stroke-width="1" class="gramercy"/>
<path d="M 2876.9768 2517.9239 2887.1465 2463.0895 2901.4871 2473.2245 2918.1401 2479.2121 3002.7976 2514.6751 2974.5937 2575.0478 2876.9768 2517.9239 Z" fill="none" stroke="#865327" opacity="0.32051282051282054" stroke-width="1" class="gramercy"/>
<path d="M 2875.1321 2566.309 2927.3877 2458.015 3012.0461 2502.6922 2950.0823 2609.6154 2879.2958 2568.6126 2927.4104 2590.2644 2875.1321 2566.309 Z" fill="none" stroke="#865327" opacity="0.32051282051282054" stroke-width="1" class="gramercy"/>
<path d="M 2935.2496 2449.7198 2998.1629 2478.2742 2995.3886 2482.8826 2991.6899 2490.256 2943.5978 2568.6027 2883.4549 2533.5904 2935.2496 2449.7198 Z" fill="none" stroke="#865327" opacity="0.32051282051282054" stroke-width="1" class="gramercy"/>
<path d="M 2898.0234 2512.3917 2921.6073 2467.001 2957.6903 2485.195 2933.8767 2532.6611 2898.0234 2512.3917 Z" fill="none" stroke="#865327" opacity="0.32051282051282054" stroke-width="1" class="gramercy"/>
<path d="M 2895.474 2474.6077 2983.3705 2519.7486 2946.3765 2584.2702 2874.2048 2548.3373 2895.474 2474.6077 Z" fill="none" stroke="#865327" opacity="0.32051282051282054" stroke-width="1" class="gramercy"/>
<path d="M 2998.1765 2533.5691 2956.5589 2609.1533 2886.2352 2571.3767 2956.5373 2502.2442 2935.2574 2493.0326 2931.5567 2492.1117 2998.1765 2533.5691 Z" fill="none" stroke="#865327" opacity="0.32051282051282054" stroke-width="1" class="gramercy"/>
<path d="M 2913.0528 2484.7422 2996.7886 2533.1086 2953.7837 2611.458 2885.7727 2571.8376 2903.8095 2538.6565 2887.1549 2528.5211 2913.0528 2484.7422 Z" fill="none" stroke="#865327" opacity="0.32051282051282054" stroke-width="1" class="gramercy"/>
<path d="M 2892.7048 2519.9955 2922.7639 2467.9223 2986.1417 2501.3162 2953.7718 2552.0113 2892.7048 2519.9955 Z" fill="none" stroke="#865327" opacity="0.32051282051282054" stroke-width="1" class="gramercy"/>
<path d="M 2915.8287 2487.5065 2983.3695 2515.1406 2925.0983 2596.2557 2870.5054 2560.3189 2879.7541 2532.6692 2915.8287 2487.5065 Z" fill="none" stroke="#865327" opacity="0.32051282051282054" stroke-width="1" class="gramercy"/>
<path d="M 3019.433 2449.7009 2962.098 2549.2447 2882.5272 2513.3153 2924.1395 2396.2747 3019.433 2449.7009 Z" fill="none" stroke="#865327" opacity="0.32051282051282054" stroke-width="1" class="gramercy"/>
<path d="M 2951.9333 2611.9192 2876.9831 2571.3778 2876.9816 2558.4749 2885.3057 2537.2766 2871.4272 2529.9054 2885.2975 2472.7659 2915.8289 2489.3496 2994.476 2534.4916 2951.9333 2611.9192 Z" fill="none" stroke="#865327" opacity="0.32051282051282054" stroke-width="1" class="gramercy"/>
<path d="M 2910.7403 2486.5857 2969.2617 2519.0605 2951.9215 2552.4725 2891.7797 2520.2261 2910.7403 2486.5857 Z" fill="none" stroke="#865327" opacity="0.32051282051282054" stroke-width="1" class="gramercy"/>
<path d="M 2906.5702 2439.5878 2993.5399 2489.334 2943.5963 2560.3079 2866.7996 2513.3171 2906.5702 2439.5878 Z" fill="none" stroke="#865327" opacity="0.32051282051282054" stroke-width="1" class="gramercy"/>
<path d="M 2922.5327 2468.8439 3006.7294 2513.9829 2972.9749 2576.2003 2888.0803 2529.6729 2922.5327 2468.8439 Z" fill="none" stroke="#865327" opacity="0.32051282051282054" stroke-width="1" class="gramercy"/>
<path d="M 2913.0532 2487.0461 2996.0949 2533.8 2969.0444 2584.0352 2884.1493 2537.5071 2913.0532 2487.0461 Z" fill="none" stroke="#865327" opacity="0.32051282051282054" stroke-width="1" class="gramercy"/>
<path d="M 2839.0468 2537.2813 2874.1956 2468.1595 2970.4167 2512.3787 2936.1998 2588.8804 2930.6491 2592.568 2839.0468 2537.2813 Z" fill="none" stroke="#865327" opacity="0.32051282051282054" stroke-width="1" class="gramercy"/>
<path d="M 2873.2817 2565.8484 2933.3996 2450.6417 2990.7626 2481.0406 2927.874 2596.2552 2873.2817 2565.8484 Z" fill="none" stroke="#865327" opacity="0.32051282051282054" stroke-width="1" class="gramercy"/>
<path d="M 2952.8581 2610.0757 2867.7304 2565.849 2950.0435 2411.0137 3036.0875 2459.8331 2952.8581 2610.0757 Z" fill="none" stroke="#865327" opacity="0.32051282051282054" stroke-width="1" class="gramercy"/>
<path d="M 2997.7136 2532.4172 2929.2441 2493.9552 2962.3072 2443.2639 3026.1486 2481.2619 2997.7136 2532.4172 Z" fill="none" stroke="#865327" opacity="0.32051282051282054" stroke-width="1" class="gramercy"/>
<path d="M 2912.1278 2485.2031 2913.9783 2487.046 2996.7885 2532.6478 2953.7833 2609.6147 2875.5949 2568.1522 2874.2056 2554.7887 2912.1278 2485.2031 Z" fill="none" stroke="#865327" opacity="0.32051282051282054" stroke-width="1" class="gramercy"/>
<path d="M 2971.8058 2518.8296 2929.0309 2598.0983 2868.8868 2564.9273 2914.6716 2483.59 2971.8058 2518.8296 Z" fill="none" stroke="#865327" opacity="0.32051282051282054" stroke-width="1" class="gramercy"/>
<path d="M 2925.0762 2465.1573 3011.3501 2494.6286 2976.2089 2557.3059 2879.9861 2538.6596 2925.0762 2465.1573 Z" fill="none" stroke="#865327" opacity="0.32051282051282054" stroke-width="1" class="gramercy"/>
<path d="M 2919.0648 2476.2169 2953.1822 2494.9875 2914.2221 2566.1885 2888.6613 2550.9852 2919.0648 2476.2169 Z" fill="none" stroke="#865327" opacity="0.32051282051282054" stroke-width="1" class="gramercy"/>
<path d="M 2890.3976 2562.851 2875.5931 2552.4845 2946.8084 2424.6064 2980.8088 2442.7991 2910.7532 2570.2212 2890.3976 2562.851 Z" fill="none" stroke="#865327" opacity="0.32051282051282054" stroke-width="1" class="gramercy"/>
<path d="M 2899.3187 2577.9223 2934.469 2533.6785 2899.3098 2515.2521 2914.1077 2485.7595 2929.8369 2497.7372 2899.3187 2577.9223 Z" fill="none" stroke="#865327" opacity="0.32051282051282054" stroke-width="1" class="gramercy"/>
<path d="M 2999.1026 2537.2553 2963.9602 2605.465 2915.8417 2569.5292 2933.4158 2541.8773 2899.1808 2518.8426 2917.6785 2484.7415 2999.1026 2537.2553 Z" fill="none" stroke="#865327" opacity="0.32051282051282054" stroke-width="1" class="gramercy"/>
<path d="M 2874.2071 2567.6916 2882.5301 2536.3553 2913.0525 2482.8991 2996.3264 2534.4911 2951.0073 2608.2327 2874.2071 2567.6916 Z" fill="none" stroke="#865327" opacity="0.32051282051282054" stroke-width="1" class="gramercy"/>
<path d="M 2907.3882 2496.2627 2991.9338 2542.9019 2968.1193 2584.7266 2882.9928 2537.2769 2907.3882 2496.2627 Z" fill="none" stroke="#865327" opacity="0.32051282051282054" stroke-width="1" class="gramercy"/>
<path d="M 2947.7489 2504.5499 2914.9156 2563.5386 2878.8304 2545.1111 2912.5906 2486.5854 2947.7489 2504.5499 Z" fill="none" stroke="#865327" opacity="0.32051282051282054" stroke-width="1" class="gramercy"/>
<path d="M 2951.0078 2610.9977 2868.6551 2561.2407 2912.1277 2484.7424 2996.3257 2531.7263 2951.0078 2610.9977 Z" fill="none" stroke="#865327" opacity="0.32051282051282054" stroke-width="1" class="gramercy"/>
<path d="M 2944.9603 2435.4345 2992.1488 2475.0502 2929.7243 2595.3332 2889.0112 2573.6804 2944.9603 2435.4345 Z" fill="none" stroke="#865327" opacity="0.32051282051282054" stroke-width="1" class="gramercy"/>
<path d="M 2912.5905 2486.1246 2947.2865 2505.4716 2900.1114 2557.5502 2889.9335 2552.0219 2912.5905 2486.1246 Z" fill="none" stroke="#865327" opacity="0.32051282051282054" stroke-width="1" class="gramercy"/>
<path d="M 2834.4215 2544.885 2878.1272 2467.2375 2996.5572 2532.6478 2953.0896 2610.7669 2834.4215 2544.885 Z" fill="none" stroke="#865327" opacity="0.32051282051282054" stroke-width="1" class="gramercy"/>
<path d="M 2953.3209 2610.9973 2907.0547 2586.1202 2874.4385 2568.8436 2873.743 2555.2496 2922.3013 2468.1528 3007.0765 2514.674 2953.3209 2610.9973 Z" fill="none" stroke="#865327" opacity="0.32051282051282054" stroke-width="1" class="gramercy"/>
<path d="M 2913.0528 2484.2814 2971.112 2519.2905 2943.1355 2570.2156 2884.6119 2537.5071 2913.0528 2484.2814 Z" fill="none" stroke="#865327" opacity="0.32051282051282054" stroke-width="1" class="gramercy"/>
<path d="M 2883.4555 2538.1984 2927.6191 2458.9365 2986.6024 2493.2523 2919.3088 2554.3216 2883.4555 2538.1984 Z" fill="none" stroke="#865327" opacity="0.32051282051282054" stroke-width="1" class="gramercy"/>
<path d="M 2953.3207 2609.6148 2960.2577 2598.0924 2979.6811 2569.056 2968.1189 2582.8833 2914.4564 2585.6583 2892.2496 2574.6017 2876.0571 2564.4656 2874.668 2553.4062 2881.6065 2549.2581 2885.7681 2535.4333 2895.018 2522.0688 2903.8046 2505.479 2915.8286 2487.0457 2926.469 2495.338 2936.646 2498.101 2949.136 2501.3241 2964.866 2513.7623 2989.8481 2525.7374 2993.5515 2537.2566 2985.6911 2552.4652 2918.6206 2589.8051 2939.4402 2599.9398 2953.3207 2609.6148 Z" fill="none" stroke="#865327" opacity="0.32051282051282054" stroke-width="1" class="gramercy"/>
<path d="M 2922.546 2548.3305 2886.9238 2529.4427 2892.4736 2520.9172 2906.3474 2496.2628 2941.2747 2514.2278 2922.546 2548.3305 Z" fill="none" stroke="#865327" opacity="0.32051282051282054" stroke-width="1" class="gramercy"/>
<path d="M 2905.8875 2514.2337 2908.1996 2509.395 2910.5122 2507.3211 2912.5933 2504.0953 2918.1448 2508.0111 2926.2409 2514.2305 2925.084 2511.6963 2930.6359 2516.9945 2929.248 2516.3035 2935.9562 2520.6799 2932.025 2524.5974 2928.0939 2529.6669 2924.1624 2532.4324 2920.6924 2528.7465 2916.0663 2527.1345 2911.6714 2525.292 2908.6641 2521.606 2904.9635 2521.837 2902.8815 2519.7637 2905.8875 2514.2337 Z" fill="none" stroke="#865327" opacity="0.32051282051282054" stroke-width="1" class="gramercy"/>
<path d="M 2953.7836 2610.9972 2863.1041 2563.0846 2882.5217 2468.6193 2996.3259 2532.6479 2953.7836 2610.9972 Z" fill="none" stroke="#865327" opacity="0.32051282051282054" stroke-width="1" class="gramercy"/>
<path d="M 2908.4289 2496.2625 2968.107 2527.1248 2945.4469 2561.69 2889.9303 2527.5991 2908.4289 2496.2625 Z" fill="none" stroke="#865327" opacity="0.32051282051282054" stroke-width="1" class="gramercy"/>
<path d="M 2866.8051 2564.9275 2913.5159 2487.9676 2972.2685 2519.2903 2928.7995 2597.6375 2871.8942 2569.0743 2866.8051 2564.9275 Z" fill="none" stroke="#865327" opacity="0.32051282051282054" stroke-width="1" class="gramercy"/>
<path d="M 2884.3807 2538.6591 2883.2243 2539.12 2930.8556 2451.1029 2990.9942 2482.4229 2944.986 2570.4457 2884.3807 2538.6591 Z" fill="none" stroke="#865327" opacity="0.32051282051282054" stroke-width="1" class="gramercy"/>
<path d="M 2970.8807 2518.8298 2947.7599 2561.4592 2888.3114 2528.2905 2889.6991 2528.2903 2912.1277 2484.9727 2970.8807 2518.8298 Z" fill="none" stroke="#865327" opacity="0.32051282051282054" stroke-width="1" class="gramercy"/>
<path d="M 2911.2027 2485.2033 2968.1058 2521.5952 2945.9109 2569.0631 2880.6799 2538.1988 2911.2027 2485.2033 Z" fill="none" stroke="#865327" opacity="0.32051282051282054" stroke-width="1" class="gramercy"/>
<path d="M 2953.3209 2610.5364 2868.1929 2564.4665 2910.2772 2483.3603 2996.7884 2532.187 2953.3209 2610.5364 Z" fill="none" stroke="#865327" opacity="0.32051282051282054" stroke-width="1" class="gramercy"/>
<path d="M 3026.6584 2651.9956 2874.2068 2565.6179 2873.9743 2554.5583 2912.3593 2486.5854 3033.3388 2553.6049 3045.3849 2616.2742 3026.6584 2651.9956 Z" fill="none" stroke="#865327" opacity="0.32051282051282054" stroke-width="1" class="gramercy"/>
<path d="M 2927.4115 2596.7161 2866.3428 2567.6925 2965.3021 2388.4344 3023.5879 2420.6721 2927.4115 2596.7161 Z" fill="none" stroke="#865327" opacity="0.32051282051282054" stroke-width="1" class="gramercy"/>
<path d="M 2951.9329 2610.0759 2887.1602 2569.5333 2931.5568 2493.0332 2999.101 2530.804 2951.9329 2610.0759 Z" fill="none" stroke="#865327" opacity="0.32051282051282054" stroke-width="1" class="gramercy"/>
<path d="M 2996.3259 2532.6479 2968.5816 2583.344 2883.4554 2537.2768 2912.1278 2485.2031 2996.3259 2532.6479 Z" fill="none" stroke="#865327" opacity="0.32051282051282054" stroke-width="1" class="gramercy"/>
<path d="M 2867.2677 2564.4666 2912.3589 2484.2815 2915.3658 2485.433 2959.3153 2514.685 2957.0027 2516.0679 2914.4572 2590.7274 2867.2677 2564.4666 Z" fill="none" stroke="#865327" opacity="0.32051282051282054" stroke-width="1" class="gramercy"/>
<path d="M 2910.7406 2488.4288 2917.2141 2473.6829 2923.6905 2476.9073 2923.2281 2478.2897 3002.3362 2519.2832 2997.2521 2536.7949 2997.7143 2534.9516 2991.2384 2536.3356 2960.719 2592.1015 2879.7554 2543.7286 2910.7406 2488.4288 Z" fill="none" stroke="#865327" opacity="0.32051282051282054" stroke-width="1" class="gramercy"/>
<path d="M 2911.6653 2485.664 2970.4181 2518.8299 2948.685 2561.2286 2889.4678 2528.06 2911.6653 2485.664 Z" fill="none" stroke="#865327" opacity="0.32051282051282054" stroke-width="1" class="gramercy"/>
<path d="M 2994.4763 2535.4132 2944.5298 2604.5472 2867.7305 2566.7707 2878.8221 2475.5314 2994.4763 2535.4132 Z" fill="none" stroke="#865327" opacity="0.32051282051282054" stroke-width="1" class="gramercy"/>
<path d="M 2971.1118 2518.3689 2951.4591 2553.6246 2892.9362 2521.1475 2912.128 2486.3551 2971.1118 2518.3689 Z" fill="none" stroke="#865327" opacity="0.32051282051282054" stroke-width="1" class="gramercy"/>
<path d="M 2901.9648 2577.8261 2930.6323 2496.7197 2904.7347 2539.1171 2967.6108 2370.4654 2969.4617 2374.1508 2901.9648 2577.8261 Z" fill="none" stroke="#865327" opacity="0.32051282051282054" stroke-width="1" class="gramercy"/>
<path d="M 2892.7107 2564.0027 2905.6599 2538.8866 2887.155 2528.9819 2921.3763 2468.3833 3005.1105 2514.6745 2957.945 2600.3971 2892.7107 2564.0027 Z" fill="none" stroke="#865327" opacity="0.32051282051282054" stroke-width="1" class="gramercy"/>
<path d="M 2971.3432 2518.8297 2927.6426 2595.7944 2874.901 2568.1523 2873.7431 2555.7104 2912.128 2486.8159 2971.3432 2518.8297 Z" fill="none" stroke="#865327" opacity="0.32051282051282054" stroke-width="1" class="gramercy"/>
<path d="M 2876.9711 2469.0808 2971.8055 2517.4472 2932.4998 2593.9502 2892.2492 2572.2975 2887.6184 2535.433 2869.1143 2530.3664 2876.9711 2469.0808 Z" fill="none" stroke="#865327" opacity="0.32051282051282054" stroke-width="1" class="gramercy"/>
<path d="M 2913.5157 2486.5853 2928.3127 2457.0933 2989.8402 2492.5604 2949.6102 2561.2284 2888.0805 2531.7466 2913.5157 2486.5853 Z" fill="none" stroke="#865327" opacity="0.32051282051282054" stroke-width="1" class="gramercy"/>
<path d="M 2909.8239 2543.7244 2890.3939 2535.4327 2931.0888 2462.1612 2950.9807 2472.7553 2909.8239 2543.7244 Z" fill="none" stroke="#865327" opacity="0.32051282051282054" stroke-width="1" class="gramercy"/>
<path d="M 2843.3261 2541.0826 2910.278 2488.0833 2914.7883 2489.9257 2918.027 2494.8786 2925.8909 2496.3749 2934.7962 2500.866 2929.5932 2505.9356 2929.9409 2510.6587 2914.2148 2520.1076 2909.475 2530.8219 2906.8161 2537.1584 2901.1503 2543.4953 2889.9326 2545.2249 2882.5308 2542.5762 2871.4289 2544.7663 2862.755 2541.772 2918.3754 2503.7487 2909.9315 2490.8481 2889.3449 2472.8806 2885.5297 2479.6775 2876.8575 2487.0511 2880.5591 2496.0359 2871.7715 2506.1743 2859.6299 2516.4282 2854.6579 2523.1103 2849.4545 2531.0596 2843.3261 2541.0826 Z" fill="none" stroke="#865327" opacity="0.32051282051282054" stroke-width="1" class="gramercy"/>
<path d="M 2912.8218 2486.5854 2995.6319 2532.1873 2950.3141 2611.9196 2864.9545 2562.6236 2910.7402 2486.1249 2912.359 2484.7423 2912.8218 2486.5854 Z" fill="none" stroke="#865327" opacity="0.32051282051282054" stroke-width="1" class="gramercy"/>
<path d="M 2954.2462 2611.2275 2886.6982 2574.372 2929.4758 2496.0287 2997.0199 2532.8781 2954.2462 2611.2275 Z" fill="none" stroke="#865327" opacity="0.32051282051282054" stroke-width="1" class="gramercy"/>
<path d="M 2876.9707 2466.3161 2998.1765 2533.5691 2952.8583 2610.9974 2833.4961 2542.8114 2876.9707 2466.3161 Z" fill="none" stroke="#865327" opacity="0.32051282051282054" stroke-width="1" class="gramercy"/>
<path d="M 2996.7889 2534.0302 2968.3506 2584.7266 2883.4554 2537.7376 2913.5156 2485.8941 2996.7889 2534.0302 Z" fill="none" stroke="#865327" opacity="0.32051282051282054" stroke-width="1" class="gramercy"/>
<path d="M 2953.5524 2611.6885 2875.0166 2567.4611 2874.8995 2554.7886 2912.5907 2487.2766 2997.4827 2534.03 2953.5524 2611.6885 Z" fill="none" stroke="#865327" opacity="0.32051282051282054" stroke-width="1" class="gramercy"/>
<path d="M 2917.446 2477.1387 2976.8919 2508.691 2947.9912 2561.4591 2886.9237 2528.7515 2917.446 2477.1387 Z" fill="none" stroke="#865327" opacity="0.32051282051282054" stroke-width="1" class="gramercy"/>
<path d="M 2975.9636 2544.1092 2984.6215 2550.3335 2962.5584 2539.1068 2975.9636 2544.1092 Z" fill="none" stroke="#865327" opacity="0.32051282051282054" stroke-width="1" class="gramercy"/>
<path d="M 3063.9078 2672.7236 2829.7954 2542.8117 2876.9705 2464.473 3037.0397 2553.8343 3063.9078 2672.7236 Z" fill="none" stroke="#865327" opacity="0.32051282051282054" stroke-width="1" class="gramercy"/>
<path d="M 2930.6388 2533.5833 2896.4046 2514.2351 2909.353 2489.3506 2943.586 2505.9331 2930.6388 2533.5833 Z" fill="none" stroke="#865327" opacity="0.32051282051282054" stroke-width="1" class="gramercy"/>
<path d="M 2874.6697 2567.6915 2873.9743 2555.0191 2946.3458 2424.3761 3006.0207 2455.9248 2928.5682 2597.4072 2874.6697 2567.6915 Z" fill="none" stroke="#865327" opacity="0.32051282051282054" stroke-width="1" class="gramercy"/>
<path d="M 2926.9605 2664.4613 2940.8415 2672.7545 2932.5175 2693.9563 2915.8605 2687.5068 2926.9605 2664.4613 Z" fill="none" stroke="#865327" opacity="0.32051282051282054" stroke-width="1" class="gramercy"/>
<path d="M 2927.4107 2592.1078 2873.7441 2564.4659 2935.9425 2444.6513 2992.1499 2479.4276 2992.8437 2479.197 2927.4107 2592.1078 Z" fill="none" stroke="#865327" opacity="0.32051282051282054" stroke-width="1" class="gramercy"/>
<path d="M 2912.5905 2486.1246 2997.4827 2533.7996 2953.4368 2611.9189 2887.0452 2574.4871 2864.9543 2560.7803 2912.5905 2486.1246 Z" fill="none" stroke="#865327" opacity="0.32051282051282054" stroke-width="1" class="gramercy"/>
<path d="M 3023.0583 2424.003 3015.1999 2441.5139 2989.3076 2483.9112 2971.2755 2519.8568 2960.9709 2537.3243 2946.1735 2565.4368 2922.5787 2552.999 2905.9233 2540.5597 2887.4189 2534.5718 2894.8159 2501.8543 2904.064 2479.2746 2920.7112 2448.8611 2939.207 2416.1443 2958.1667 2396.7894 2966.9536 2392.1802 3023.0583 2424.003 Z" fill="none" stroke="#865327" opacity="0.32051282051282054" stroke-width="1" class="gramercy"/>
<path d="M 2918.1485 2530.8206 2871.8935 2562.6228 2904.2656 2494.8808 2919.999 2532.2027 2974.9296 2525.1649 2918.1485 2530.8206 Z" fill="none" stroke="#865327" opacity="0.32051282051282054" stroke-width="1" class="gramercy"/>
<path d="M 2896.3983 2468.1567 2972.268 2516.9863 2933.4248 2592.5675 2843.6718 2526.2216 2896.3983 2468.1567 Z" fill="none" stroke="#865327" opacity="0.32051282051282054" stroke-width="1" class="gramercy"/>
<path d="M 2905.6477 2457.0969 3005.5807 2544.6266 2978.7697 2630.3474 2827.9518 2645.1168 2795.5647 2575.9922 2800.1867 2465.4005 2905.6477 2457.0969 Z" fill="none" stroke="#865327" opacity="0.32051282051282054" stroke-width="1" class="gramercy"/>
<path d="M 2876.0571 2564.0048 2934.3251 2453.4061 2987.0623 2481.9631 2943.6008 2584.2707 2933.425 2593.4892 2876.0571 2564.0048 Z" fill="none" stroke="#865327" opacity="0.32051282051282054" stroke-width="1" class="gramercy"/>
<path d="M 2889.0054 2529.4424 2908.8917 2497.184 2930.6246 2452.4852 3015.2822 2495.7795 2974.5939 2575.9695 2889.0054 2529.4424 Z" fill="none" stroke="#865327" opacity="0.32051282051282054" stroke-width="1" class="gramercy"/>
<path d="M 2912.128 2486.5855 2925.3083 2469.9954 2926.4648 2470.9167 2981.2845 2500.3957 2954.9283 2551.7807 2895.7114 2518.6127 2924.6142 2468.8435 2912.128 2486.5855 Z" fill="none" stroke="#865327" opacity="0.32051282051282054" stroke-width="1" class="gramercy"/>
<path d="M 2948.2226 2562.1503 2888.5427 2528.5209 2912.1279 2485.6639 2895.7054 2475.5292 2900.5612 2467.6954 2976.4293 2508.4607 2970.8809 2519.9818 2948.2226 2562.1503 Z" fill="none" stroke="#865327" opacity="0.32051282051282054" stroke-width="1" class="gramercy"/>
<path d="M 2910.292 2579.6682 2891.7885 2586.1224 2891.7869 2574.1409 2889.936 2570.4546 2901.9612 2552.9418 2913.9845 2526.2132 2910.2833 2522.9882 2902.4188 2518.3814 2907.5058 2509.6255 2912.5945 2511.9287 2917.4517 2512.6191 2932.0196 2494.4155 2998.1764 2533.1083 2958.8715 2606.3878 2910.292 2579.6682 Z" fill="none" stroke="#865327" opacity="0.32051282051282054" stroke-width="1" class="gramercy"/>
<path d="M 3025.9643 2651.535 2832.571 2543.7331 2931.7663 2369.3206 3071.2366 2445.0779 3061.0871 2529.4042 3047.6976 2614.6605 3025.9643 2651.535 Z" fill="none" stroke="#865327" opacity="0.32051282051282054" stroke-width="1" class="gramercy"/>
<path d="M 2911.6656 2487.5071 2995.8636 2533.5696 2955.1717 2612.3794 2874.6698 2568.6132 2872.818 2556.6321 2911.6656 2487.5071 Z" fill="none" stroke="#865327" opacity="0.32051282051282054" stroke-width="1" class="gramercy"/>
<path d="M 2864.9543 2561.2411 2839.0475 2545.5758 2846.4466 2517.927 2858.4709 2490.2785 2880.6714 2468.1588 2906.5764 2481.057 2940.8085 2494.8747 2968.567 2515.1439 2989.8484 2527.1198 2986.1507 2540.0232 2986.157 2566.7504 2963.9569 2589.7966 2949.1546 2597.173 2940.8309 2615.6081 2921.3969 2593.4913 2895.4881 2576.9053 2864.9543 2561.2411 Z" fill="none" stroke="#865327" opacity="0.32051282051282054" stroke-width="1" class="gramercy"/>
<path d="M 2902.8908 2583.3559 2867.7298 2560.3192 2912.1276 2483.8208 2949.1356 2499.481 2902.8908 2583.3559 Z" fill="none" stroke="#865327" opacity="0.32051282051282054" stroke-width="1" class="gramercy"/>
<path d="M 2904.7274 2489.3513 3027.7895 2560.2883 3029.6665 2655.2208 3006.532 2646.9315 2867.7296 2558.4759 2904.7274 2489.3513 Z" fill="none" stroke="#865327" opacity="0.32051282051282054" stroke-width="1" class="gramercy"/>
<path d="M 2902.8909 2584.2775 2868.6552 2562.1624 2912.1281 2487.507 2944.5117 2508.6977 2902.8909 2584.2775 Z" fill="none" stroke="#865327" opacity="0.32051282051282054" stroke-width="1" class="gramercy"/>
<path d="M 2883.4497 2492.1189 2938.9628 2519.7578 2917.6933 2576.902 2874.2053 2552.0238 2883.4497 2492.1189 Z" fill="none" stroke="#865327" opacity="0.32051282051282054" stroke-width="1" class="gramercy"/>
<path d="M 2948.2226 2562.1503 2887.6177 2529.9034 2916.2895 2476.9085 2974.5791 2509.1523 2948.2226 2562.1503 Z" fill="none" stroke="#865327" opacity="0.32051282051282054" stroke-width="1" class="gramercy"/>
<path d="M 2954.4777 2611.9187 2834.1902 2545.1154 2913.5028 2404.5697 3033.3152 2470.4317 2954.4777 2611.9187 Z" fill="none" stroke="#865327" opacity="0.32051282051282054" stroke-width="1" class="gramercy"/>
<path d="M 2907.2756 2516.5375 2899.8737 2512.161 2912.8222 2488.6589 2944.9738 2506.1632 2931.5633 2529.6663 2916.7595 2523.448 2890.8612 2570.6849 2886.0036 2569.0726 2912.3646 2520.6839 2907.2756 2516.5375 Z" fill="none" stroke="#865327" opacity="0.32051282051282054" stroke-width="1" class="gramercy"/>
<path d="M 2998.6394 2534.9514 2951.9328 2609.615 2875.5947 2566.309 2875.1309 2555.7102 2914.903 2484.2811 2915.3659 2486.585 2998.6394 2534.9514 Z" fill="none" stroke="#865327" opacity="0.32051282051282054" stroke-width="1" class="gramercy"/>
<path d="M 2922.5251 2422.7677 3001.86 2464.9108 2966.4881 2527.8163 2941.0535 2568.8336 2916.071 2556.6262 2900.5726 2547.4123 2882.7616 2537.9681 2870.2709 2530.8271 2882.2908 2471.6144 2895.0118 2476.9116 2922.5251 2422.7677 Z" fill="none" stroke="#865327" opacity="0.32051282051282054" stroke-width="1" class="gramercy"/>
<path d="M 2952.3954 2609.6149 2883.9224 2573.2203 2914.9089 2521.6051 2896.4043 2511.9311 2902.4166 2503.636 2988.4663 2551.0821 2952.3954 2609.6149 Z" fill="none" stroke="#865327" opacity="0.32051282051282054" stroke-width="1" class="gramercy"/>
<path d="M 2981.9919 2559.3783 2862.6343 2493.0428 2900.0931 2428.5306 3018.0557 2488.4062 2981.9919 2559.3783 Z" fill="none" stroke="#865327" opacity="0.32051282051282054" stroke-width="1" class="gramercy"/></svg>