<?xml version="1.0"?><svg xmlns="http://www.w3.org/2000/svg" version="1.2" baseProfile="tiny" width="6000" height="5918" viewBox="0 0 6000 5918" stroke-linecap="round" stroke-linejoin="round"><path d="M 1515.8628 4774.9182 1659.7833 4622.6857 1789.5038 4710.5775 1689.1655 4876.7524 1515.8628 4774.9182 Z" fill="none" stroke="#012394" opacity="0.6" stroke-width="1" class="grant_city"/>
<path d="M 1578.9784 4731.5827 1663.3061 4782.4917 1641.0205 4806.4842 1552.0835 4733.3961 1578.9784 4731.5827 Z" fill="none" stroke="#012394" opacity="0.6" stroke-width="1" class="grant_city"/>
<path d="M 1672.7527 4632.8608 1753.3694 4681.9047 1622.429 4842.4912 1552.9422 4786.9756 1533.4864 4772.17 1527.007 4762.9238 1672.7527 4632.8608 Z" fill="none" stroke="#012394" opacity="0.6" stroke-width="1" class="grant_city"/>
<path d="M 1627.7328 4673.6798 1700.4498 4739.3481 1619.8877 4834.8665 1523.9855 4768.6934 1627.7328 4673.6798 Z" fill="none" stroke="#012394" opacity="0.6" stroke-width="1" class="grant_city"/>
<path d="M 1623.8313 4833.2545 1525.8432 4766.3864 1627.044 4668.1369 1702.7687 4738.8888 1623.8313 4833.2545 Z" fill="none" stroke="#012394" opacity="0.6" stroke-width="1" class="grant_city"/>
<path d="M 1622.6933 4678.3281 1665.7885 4728.7626 1605.4344 4807.806 1547.5787 4745.0311 1622.6933 4678.3281 Z" fill="none" stroke="#012394" opacity="0.6" stroke-width="1" class="grant_city"/>
<path d="M 1838.5256 4838.8012 1761.9186 4927.185 1524.22 4766.6152 1624.0279 4670.2115 1838.5256 4838.8012 Z" fill="none" stroke="#012394" opacity="0.6" stroke-width="1" class="grant_city"/>
<path d="M 1629.6374 4825.178 1534.6634 4758.5459 1604.9779 4703.6723 1631.6118 4725.412 1682.574 4760.8051 1629.6374 4825.178 Z" fill="none" stroke="#012394" opacity="0.6" stroke-width="1" class="grant_city"/>
<path d="M 1627.7373 4669.9851 1700.449 4740.0409 1620.1193 4835.0977 1522.3605 4770.3079 1627.7373 4669.9851 Z" fill="none" stroke="#012394" opacity="0.6" stroke-width="1" class="grant_city"/>
<path d="M 1585.8421 4804.8004 1566.6205 4787.455 1666.8886 4692.1999 1710.1995 4728.0432 1624.0623 4833.9477 1564.2974 4791.1472 1585.8421 4804.8004 Z" fill="none" stroke="#012394" opacity="0.6" stroke-width="1" class="grant_city"/>
<path d="M 1603.9993 4745.4699 1659.5928 4785.7206 1579.2435 4890.0174 1506.9668 4839.5732 1603.9993 4745.4699 Z" fill="none" stroke="#012394" opacity="0.6" stroke-width="1" class="grant_city"/>
<path d="M 1572.4662 4748.202 1551.1479 4739.8611 1651.3937 4660.5455 1743.0955 4750.2492 1689.2149 4833.3311 1572.4662 4748.202 Z" fill="none" stroke="#012394" opacity="0.6" stroke-width="1" class="grant_city"/>
<path d="M 1495.3714 4841.4054 1595.6041 4785.1818 1594.6779 4784.2568 1641.9402 4812.952 1463.6023 5013.2129 1413.5789 4966.0194 1444.2657 4910.6264 1495.3714 4841.4054 Z" fill="none" stroke="#012394" opacity="0.6" stroke-width="1" class="grant_city"/>
<path d="M 1555.3221 4738.9427 1629.0105 4671.4876 1679.1465 4717.1542 1640.3317 4800.8251 1556.5976 4738.5979 1555.3221 4738.9427 Z" fill="none" stroke="#012394" opacity="0.6" stroke-width="1" class="grant_city"/>
<path d="M 1471.2947 4814.5817 1469.9023 4815.5036 1627.5038 4671.3703 1702.075 4737.2715 1579.9383 4890.7111 1471.2947 4814.5817 Z" fill="none" stroke="#012394" opacity="0.6" stroke-width="1" class="grant_city"/>
<path d="M 1598.9484 4705.2814 1600.455 4705.5142 1605.5539 4706.5596 1613.1989 4710.8411 1617.5989 4714.7723 1624.6639 4719.5149 1635.3176 4728.3031 1641.2253 4731.6587 1647.9439 4735.4771 1655.1247 4740.6816 1661.7264 4745.4236 1664.969 4748.0831 1670.5294 4751.3227 1678.9862 4755.8358 1682.8093 4757.8032 1677.5842 4765.4183 1672.246 4770.4929 1664.8175 4778.6828 1661.2171 4784.5677 1657.8482 4790.6839 1650.0718 4798.758 1646.1226 4805.3355 1642.0579 4811.4509 1635.5585 4817.7945 1630.4469 4826.7957 1622.9024 4834.4082 1613.1725 4827.8141 1597.7677 4816.7093 1583.9826 4808.6088 1571.2432 4798.7773 1558.3882 4788.8302 1548.8892 4783.6217 1536.2645 4775.2913 1527.5832 4765.4649 1533.5063 4756.9278 1537.5699 4751.9678 1544.1851 4745.8565 1550.6845 4739.6296 1562.2868 4731.3307 1570.4068 4726.7223 1578.7569 4723.3843 1581.7734 4721.1942 1582.4669 4722.8116 1592.4476 4713.1249 1598.9484 4705.2814 Z" fill="none" stroke="#012394" opacity="0.6" stroke-width="1" class="grant_city"/>
<path d="M 1558.5654 4740.7943 1676.4648 4630.0941 1724.5659 4734.5253 1653.9976 4812.0424 1558.5654 4740.7943 Z" fill="none" stroke="#012394" opacity="0.6" stroke-width="1" class="grant_city"/>
<path d="M 1589.2011 4713.8137 1669.1132 4773.0296 1610.8273 4849.637 1504.9604 4779.2917 1589.2011 4713.8137 Z" fill="none" stroke="#012394" opacity="0.6" stroke-width="1" class="grant_city"/>
<path d="M 1628.7781 4671.9491 1702.0745 4737.7334 1622.2074 4833.9454 1526.0745 4766.8486 1625.1837 4672.9839 1628.7781 4671.9491 Z" fill="none" stroke="#012394" opacity="0.6" stroke-width="1" class="grant_city"/>
<path d="M 1631.9039 4675.0703 1701.6105 4737.9638 1579.012 4889.7861 1471.7578 4815.0442 1631.9039 4675.0703 Z" fill="none" stroke="#012394" opacity="0.6" stroke-width="1" class="grant_city"/>
<path d="M 1658.8984 4784.796 1603.3958 4859.3284 1501.4812 4780.4418 1574.3514 4723.9561 1658.8984 4784.796 Z" fill="none" stroke="#012394" opacity="0.6" stroke-width="1" class="grant_city"/>
<path d="M 1657.7429 4781.5614 1576.2057 4724.1894 1666.2749 4621.7696 1753.3704 4680.981 1657.7429 4781.5614 Z" fill="none" stroke="#012394" opacity="0.6" stroke-width="1" class="grant_city"/>
<path d="M 1628.1978 4672.5257 1702.5368 4738.8886 1621.511 4834.6375 1522.5959 4767.5368 1628.1978 4672.5257 Z" fill="none" stroke="#012394" opacity="0.6" stroke-width="1" class="grant_city"/>
<path d="M 1472.4537 4814.8142 1574.5829 4724.1873 1659.5936 4785.0277 1579.4748 4890.4796 1472.4537 4814.8142 Z" fill="none" stroke="#012394" opacity="0.6" stroke-width="1" class="grant_city"/>
<path d="M 1189.5798 4127.0804 1237.5508 4262.8724 1254.0795 4359.8489 1242.7033 4516.818 1108.0772 4627.422 907.4084 4824.7286 679.7601 4598.8661 795.0962 4424.5665 987.6087 4096.2587 1189.5798 4127.0804 Z" fill="none" stroke="#012394" opacity="0.6" stroke-width="1" class="grant_city"/>
<path d="M 1628.1978 4672.5257 1699.523 4738.8852 1580.1719 4889.3256 1474.7709 4815.7412 1468.0481 4815.0392 1628.1978 4672.5257 Z" fill="none" stroke="#012394" opacity="0.6" stroke-width="1" class="grant_city"/>
<path d="M 1669.7496 4623.8518 1754.7618 4680.5207 1615.0078 4843.868 1554.317 4799.6796 1518.6458 4774.229 1535.8298 4753.0048 1574.5826 4724.4183 1584.3273 4718.1953 1616.1276 4685.4428 1669.7496 4623.8518 Z" fill="none" stroke="#012394" opacity="0.6" stroke-width="1" class="grant_city"/></svg>