<?xml version="1.0"?><svg xmlns="http://www.w3.org/2000/svg" version="1.2" baseProfile="tiny" width="6000" height="5918" viewBox="0 0 6000 5918" stroke-linecap="round" stroke-linejoin="round"><path d="M 1103.2798 4191.5556 1066.1199 4240.4214 946.6952 4168.1874 959.7124 4146.0559 1103.2798 4191.5556 Z" fill="none" stroke="#A9159C" opacity="0.6" stroke-width="1" class="graniteville"/>
<path d="M 1155.0734 4114.0982 1057.8232 4254.575 986.573 4191.6628 1031.2303 4098.5053 1155.0734 4114.0982 Z" fill="none" stroke="#A9159C" opacity="0.6" stroke-width="1" class="graniteville"/>
<path d="M 1067.0202 4255.1953 945.7755 4164.4928 965.3924 4083.293 1179.4011 4117.8319 1163.5811 4156.5781 1118.9952 4214.6638 1100.3304 4287.5698 1067.0202 4255.1953 Z" fill="none" stroke="#A9159C" opacity="0.6" stroke-width="1" class="graniteville"/>
<path d="M 1104.0882 4258.9543 941.5013 4155.3109 959.2456 4084.2626 1169.8057 4120.6092 1104.0882 4258.9543 Z" fill="none" stroke="#A9159C" opacity="0.6" stroke-width="1" class="graniteville"/>
<path d="M 933.4432 4311.2677 957.0539 4082.354 1200.7082 4122.4831 1154.9652 4318.1341 933.4432 4311.2677 Z" fill="none" stroke="#A9159C" opacity="0.6" stroke-width="1" class="graniteville"/>
<path d="M 970.4077 4370.4338 1025.6087 4093.56 1154.3842 4115.0202 1013.0639 4362.2033 970.4077 4370.4338 Z" fill="none" stroke="#A9159C" opacity="0.6" stroke-width="1" class="graniteville"/>
<path d="M 1107.0825 4137.0941 1095.9713 4131.5356 1121.9537 4112.1949 1133.0648 4117.753 1131.189 4130.6739 1129.3356 4130.6707 1119.1189 4143.5773 1108.8745 4172.1781 1091.2118 4202.613 1087.5291 4188.7582 1075.4329 4215.5102 1088.4772 4176.7582 1076.3828 4202.5867 1058.7468 4217.3268 1021.7062 4199.7178 977.2683 4173.7848 947.645 4156.1877 951.384 4139.5778 962.5419 4120.2128 968.1479 4096.2219 988.5354 4096.2604 1090.4305 4120.4479 1111.7469 4119.5623 1063.5869 4102.8604 1008.9298 4092.606 1107.0825 4137.0941 Z" fill="none" stroke="#A9159C" opacity="0.6" stroke-width="1" class="graniteville"/>
<path d="M 861.7537 4109.8515 895.7751 4088.9948 935.3078 4073.3746 971.4257 4085.4442 1012.1866 4092.9056 1064.9953 4100.3871 1138.9503 4109.7983 1177.8523 4121.8653 1162.04 4155.9957 1132.3516 4174.4088 1107.2751 4204.8312 1085.8962 4239.8769 1080.2989 4260.1789 861.7537 4109.8515 Z" fill="none" stroke="#A9159C" opacity="0.6" stroke-width="1" class="graniteville"/>
<path d="M 836.6103 4069.1925 898.6687 4084.0868 897.2786 4084.084 963.0721 4085.1348 960.2894 4086.5142 950.4306 4153.4235 945.7915 4156.1842 856.879 4127.8523 856.878 4128.3138 836.6103 4069.1925 Z" fill="none" stroke="#A9159C" opacity="0.6" stroke-width="1" class="graniteville"/>
<path d="M 1025.61 4102.4164 1173.8101 4124.4885 982.442 4368.8138 1025.61 4102.4164 Z" fill="none" stroke="#A9159C" opacity="0.6" stroke-width="1" class="graniteville"/></svg>