<?xml version="1.0"?><svg xmlns="http://www.w3.org/2000/svg" version="1.2" baseProfile="tiny" width="6000" height="5918" viewBox="0 0 6000 5918" stroke-linecap="round" stroke-linejoin="round"><path d="M 1784.9075 4671.7774 1759.1168 4509.1965 1827.7523 4479.7147 1890.7767 4498.2451 2076.1226 4599.99 1925.7639 4771.6755 1784.9075 4671.7774 Z" fill="none" stroke="#A9159C" opacity="0.6" stroke-width="1" class="grasmere"/>
<path d="M 1881.8406 4387.8836 1975.6863 4402.5103 1985.3486 4488.8619 1967.7201 4505.2395 1955.8991 4505.6912 1935.2795 4495.9765 1917.203 4493.8825 1886.1466 4492.4689 1860.4846 4424.5694 1881.8406 4387.8836 Z" fill="none" stroke="#A9159C" opacity="0.6" stroke-width="1" class="grasmere"/>
<path d="M 1800.4589 4425.2027 1804.1802 4412.2784 1853.7813 4406.3252 1888.099 4386.5043 1940.4748 4385.628 1960.3932 4399.4963 1956.2004 4424.4253 1936.7187 4440.5688 1943.1919 4459.0437 1934.3727 4472.8882 1918.5963 4490.8824 1908.3954 4494.1055 1881.5092 4494.5425 1851.8283 4508.8288 1846.2746 4499.5882 1819.4178 4470.4715 1813.8688 4457.0755 1798.5709 4458.4452 1800.4589 4425.2027 Z" fill="none" stroke="#A9159C" opacity="0.6" stroke-width="1" class="grasmere"/>
<path d="M 1992.0087 4280.4095 2103.1361 4421.7693 2051.167 4495.6093 2009.3598 4605.4807 1902.6951 4645.1058 1836.9025 4602.5564 1769.2674 4554.4609 1759.1846 4445.4756 1992.0087 4280.4095 Z" fill="none" stroke="#A9159C" opacity="0.6" stroke-width="1" class="grasmere"/>
<path d="M 1972.4334 4412.4344 1986.274 4490.9405 1966.7957 4502.0064 1933.4273 4493.6661 1878.7279 4494.5399 1840.7034 4508.3562 1830.4815 4532.358 1823.0359 4560.981 1769.281 4541.5311 1754.4586 4530.4328 1740.5636 4519.3354 1732.2347 4505.4734 1718.3454 4489.7585 1717.4409 4469.4406 1725.817 4439.8988 1724.9113 4420.5054 1744.3937 4406.6752 1746.2636 4391.9026 1741.6466 4375.2763 1737.0268 4361.4205 1729.6262 4347.5619 1725.0047 4335.5531 1736.134 4330.0252 1745.4043 4329.1119 1972.4334 4412.4344 Z" fill="none" stroke="#A9159C" opacity="0.6" stroke-width="1" class="grasmere"/>
<path d="M 1771.2876 4396.5462 1829.5562 4530.51 1853.8885 4295.0594 2018.7587 4444.7926 1984.413 4499.2506 1950.1079 4501.9922 1838.8302 4527.7485 1844.3885 4532.3717 1771.2876 4396.5462 Z" fill="none" stroke="#A9159C" opacity="0.6" stroke-width="1" class="grasmere"/>
<path d="M 1661.0383 4341.9441 1625.7176 4422.238 1633.0243 4513.6716 1657.0157 4610.6753 1658.1537 4430.5875 1594.2159 4408.348 1511.7669 4366.6891 1557.4184 4186.7054 1738.1423 4187.8422 2045.5594 4554.7115 1668.1347 4617.1536 1661.0383 4341.9441 Z" fill="none" stroke="#A9159C" opacity="0.6" stroke-width="1" class="grasmere"/>
<path d="M 1880.0036 4533.1768 1879.5399 4535.7138 1843.7608 4462.8768 1837.5907 4451.556 1839.7866 4419.6991 1866.8555 4385.7133 1880.4517 4386.1878 1901.152 4388.0538 1972.6756 4399.9661 1970.1955 4408.7388 1968.8078 4405.3533 1971.7473 4401.5074 1967.4182 4404.274 1972.0471 4411.6653 1982.6926 4429.9906 1990.4024 4447.8496 1983.4466 4451.383 1980.3617 4445.9944 1983.9056 4456.9242 1987.132 4479.0905 1985.735 4486.939 1982.1764 4493.5553 1974.2881 4503.0909 1959.9123 4507.0799 1962.3843 4508.3126 1946.4766 4501.2202 1880.0036 4533.1768 Z" fill="none" stroke="#A9159C" opacity="0.6" stroke-width="1" class="grasmere"/>
<path d="M 1831.5189 4420.6167 1818.5443 4416.91 2068.7961 4476.229 1988.8916 4690.4406 1755.2841 4625.5634 1831.5189 4420.6167 Z" fill="none" stroke="#A9159C" opacity="0.6" stroke-width="1" class="grasmere"/>
<path d="M 1945.0749 4425.8009 1918.1323 4491.3437 1833.2979 4496.805 1845.8649 4444.1786 1867.6947 4397.5661 1911.2596 4402.2235 1945.0749 4425.8009 Z" fill="none" stroke="#A9159C" opacity="0.6" stroke-width="1" class="grasmere"/>
<path d="M 1262.6936 4189.0527 1421.2637 4127.438 1347.8662 4251.0415 1345.0024 4306.4353 1283.9376 4235.248 1262.6936 4189.0527 Z" fill="none" stroke="#A9159C" opacity="0.6" stroke-width="1" class="grasmere"/>
<path d="M 1815.3042 4367.2421 1779.1494 4369.9753 1820.0985 4377.9271 1819.6341 4378.85 1823.7901 4394.3212 1811.0387 4399.3872 1793.1968 4396.5988 1819.2842 4379.4252 1788.6878 4385.1654 1815.3042 4367.2421 Z" fill="none" stroke="#A9159C" opacity="0.6" stroke-width="1" class="grasmere"/>
<path d="M 1798.4361 4363.5629 1799.3638 4362.8713 1970.1246 4402.0439 1986.9756 4483.3222 1861.7693 4535.39 1792.5574 4446.434 1786.366 4382.48 1794.6049 4370.8306 1791.4784 4368.8652 1798.6667 4364.7174 1798.4361 4363.5629 Z" fill="none" stroke="#A9159C" opacity="0.6" stroke-width="1" class="grasmere"/>
<path d="M 1813.0026 4396.5892 1801.8937 4381.8034 1915.9145 4380.0659 1805.5295 4452.9115 1879.6999 4446.5196 1908.4359 4449.3164 1927.8991 4454.8747 1952.9209 4465.0547 1891.7089 4492.705 1886.1481 4490.8528 1865.7529 4489.9101 1869.4525 4499.1487 1813.0026 4396.5892 Z" fill="none" stroke="#A9159C" opacity="0.6" stroke-width="1" class="grasmere"/>
<path d="M 1802.8451 4357.7963 2017.8477 4424.476 1985.382 4448.4596 1988.1365 4480.7836 1969.5739 4505.7028 1913.96 4491.8017 1856.4696 4502.8304 1773.0593 4475.0415 1783.3482 4387.3247 1802.8451 4357.7963 Z" fill="none" stroke="#A9159C" opacity="0.6" stroke-width="1" class="grasmere"/>
<path d="M 1829.5854 4500.9571 1782.7879 4480.5926 1798.5761 4453.3661 1804.6564 4399.8127 1826.4647 4375.826 1870.4858 4386.9495 1922.855 4393.4614 1941.856 4396.2484 1934.8735 4430.4092 1940.8811 4451.1922 1933.4326 4487.6633 1855.9949 4514.3739 1829.5854 4500.9571 Z" fill="none" stroke="#A9159C" opacity="0.6" stroke-width="1" class="grasmere"/>
<path d="M 1774.4444 4480.353 1761.4934 4453.7893 1767.0984 4413.3943 1764.5877 4376.9168 1782.2291 4349.2339 1843.8395 4382.076 1894.1221 4389.0492 1936.7575 4396.2439 1989.5866 4408.2932 2015.7624 4423.7818 1985.3504 4486.784 1968.1829 4506.1634 1939.9124 4498.9819 1878.4983 4492.2309 1854.1498 4504.9061 1774.4444 4480.353 Z" fill="none" stroke="#A9159C" opacity="0.6" stroke-width="1" class="grasmere"/>
<path d="M 1882.536 4387.6534 1977.2354 4490.2404 1986.0449 4487.7081 1985.832 4464.8515 1975.8826 4444.9887 1928.8556 4421.6312 1978.8527 4496.4755 1960.5341 4506.2724 1917.2032 4493.6517 1872.7186 4476.6414 1894.0934 4420.2147 1926.7732 4417.7047 1924.0197 4386.7678 1882.536 4387.6534 Z" fill="none" stroke="#A9159C" opacity="0.6" stroke-width="1" class="grasmere"/>
<path d="M 1924.0488 4401.9099 1990.9314 4464.1631 1970.2598 4513.6734 1884.0495 4490.4306 1796.4754 4455.1703 1848.1533 4374.9175 1924.0488 4401.9099 Z" fill="none" stroke="#A9159C" opacity="0.6" stroke-width="1" class="grasmere"/>
<path d="M 1959.3049 4588.8145 1818.4611 4500.0226 1911.3647 4285.8799 2020.5808 4485.4272 2039.1112 4500.2177 1959.3049 4588.8145 Z" fill="none" stroke="#A9159C" opacity="0.6" stroke-width="1" class="grasmere"/>
<path d="M 1779.6662 4362.3893 1822.3325 4336.5785 1845.4988 4343.9882 1899.244 4363.4297 1900.1448 4392.0558 1897.3477 4409.5982 1889.9103 4432.6773 1879.6783 4469.6064 1869.4578 4493.6077 1855.5176 4528.6883 1784.1172 4539.6995 1752.632 4504.572 1732.3113 4435.2886 1779.6662 4362.3893 Z" fill="none" stroke="#A9159C" opacity="0.6" stroke-width="1" class="grasmere"/>
<path d="M 1882.5311 4392.963 1990.0452 4414.2958 1996.5231 4428.1527 2004.8522 4445.705 1988.1411 4475.2426 1967.701 4527.866 1929.6578 4562.9283 1893.4865 4575.8258 1847.1071 4597.0247 1820.2267 4588.6858 1792.4481 4552.6379 1794.3413 4514.7744 1798.0838 4481.5318 1825.9403 4437.2332 1834.3254 4394.7636 1869.5522 4393.8742 1882.5311 4392.963 Z" fill="none" stroke="#A9159C" opacity="0.6" stroke-width="1" class="grasmere"/>
<path d="M 1861.8009 4502.3737 1840.5197 4459.1798 1881.3775 4387.4214 1922.623 4393.6921 1940.6447 4456.5019 1918.3616 4494.1145 1884.9892 4490.8517 1861.8009 4502.3737 Z" fill="none" stroke="#A9159C" opacity="0.6" stroke-width="1" class="grasmere"/>
<path d="M 1909.6781 4485.2179 1915.0031 4491.6872 1876.8468 4523.1673 1825.9073 4470.478 1753.6944 4378.0595 1787.1249 4320.8458 1852.0311 4298.7508 1928.0422 4293.2813 2009.5827 4326.5898 2028.0522 4415.2497 1974.2156 4498.3186 1924.1638 4485.3463 1909.6781 4485.2179 Z" fill="none" stroke="#A9159C" opacity="0.6" stroke-width="1" class="grasmere"/></svg>