<?xml version="1.0"?><svg xmlns="http://www.w3.org/2000/svg" version="1.2" baseProfile="tiny" width="6000" height="5918" viewBox="0 0 6000 5918" stroke-linecap="round" stroke-linejoin="round"><path d="M 953.6962 4868.2393 976.364 4652.1208 967.1301 4631.7829 1126.3321 4794.6471 953.6962 4868.2393 Z" fill="none" stroke="#FBC20F" opacity="0.6" stroke-width="1" class="heartland_village"/>
<path d="M 1016.4799 4520.121 1198.2608 4610.906 1188.8903 4670.0041 1117.776 4748.8636 931.1237 4880.6267 933.2004 4766.0758 946.393 4657.1022 956.6511 4626.6413 1014.2518 4565.7915 1016.4799 4520.121 Z" fill="none" stroke="#FBC20F" opacity="0.6" stroke-width="1" class="heartland_village"/>
<path d="M 940.6993 4874.6815 908.3394 4822.8827 1032.268 4505.3736 1206.3844 4614.6582 940.6993 4874.6815 Z" fill="none" stroke="#FBC20F" opacity="0.6" stroke-width="1" class="heartland_village"/>
<path d="M 1036.8765 4520.1585 1198.9667 4614.646 1183.1022 4675.5809 1100.4302 4757.6506 932.3467 4877.437 946.7523 4620.6603 1036.8765 4520.1585 Z" fill="none" stroke="#FBC20F" opacity="0.6" stroke-width="1" class="heartland_village"/>
<path d="M 965.9212 4758.9434 940.2827 4740.5826 933.9004 4684.2233 961.8227 4629.7805 1027.8391 4530.1559 1179.4238 4610.7943 1184.0181 4635.7401 1102.6631 4753.0348 1013.5042 4824.93 936.6623 4755.4999 965.9212 4758.9434 Z" fill="none" stroke="#FBC20F" opacity="0.6" stroke-width="1" class="heartland_village"/>
<path d="M 1112.5068 4745.6629 922.1157 4892.1994 922.1319 4883.8844 920.2986 4872.7942 923.2806 4770.2552 981.6733 4786.9952 1020.8175 4681.7614 1112.5068 4745.6629 Z" fill="none" stroke="#FBC20F" opacity="0.6" stroke-width="1" class="heartland_village"/>
<path d="M 1039.6596 4519.2401 1190.6249 4612.7849 1187.7555 4665.4282 1118.0709 4745.6726 940.6957 4876.5293 942.7802 4757.3601 960.6448 4628.9996 1039.6596 4519.2401 Z" fill="none" stroke="#FBC20F" opacity="0.6" stroke-width="1" class="heartland_village"/>
<path d="M 1166.0187 4633.5254 1190.1282 4632.6422 1184.041 4668.6548 1116.2162 4745.6694 929.5482 4885.7466 953.2393 4622.52 1016.9084 4539.0545 1033.1376 4536.7755 1166.0187 4633.5254 Z" fill="none" stroke="#FBC20F" opacity="0.6" stroke-width="1" class="heartland_village"/>
<path d="M 941.1175 4873.7677 1007.3819 4536.6412 1192.639 4639.4869 941.1175 4873.7677 Z" fill="none" stroke="#FBC20F" opacity="0.6" stroke-width="1" class="heartland_village"/>
<path d="M 1017.8262 4538.8392 1192.8066 4615.8587 996.2828 4835.2816 933.7214 4799.1111 1017.8262 4538.8392 Z" fill="none" stroke="#FBC20F" opacity="0.6" stroke-width="1" class="heartland_village"/>
<path d="M 946.7044 4645.5986 1098.5967 4745.6385 937.924 4870.9806 946.7044 4645.5986 Z" fill="none" stroke="#FBC20F" opacity="0.6" stroke-width="1" class="heartland_village"/>
<path d="M 1128.6291 4673.0636 1127.6974 4675.6021 1127.931 4674.5633 1128.6291 4673.0636 Z" fill="none" stroke="#FBC20F" opacity="0.6" stroke-width="1" class="heartland_village"/>
<path d="M 962.9673 4870.1048 930.4846 4881.1289 953.5453 4462.7451 1223.0607 4622.9982 962.9673 4870.1048 Z" fill="none" stroke="#FBC20F" opacity="0.6" stroke-width="1" class="heartland_village"/>
<path d="M 990.316 4629.0557 1009.8358 4603.2305 1029.346 4582.0236 1059.9663 4569.1491 1104.4072 4605.2485 1109.9817 4598.793 1139.5997 4629.324 1167.3713 4656.1573 1150.2368 4644.5824 1164.1142 4663.0793 1143.9344 4669.9725 1146.4804 4672.286 1120.938 4696.7199 1113.5124 4700.8637 1104.2272 4707.7752 1103.2999 4707.7736 1100.7454 4710.3094 1105.6421 4694.153 1096.6014 4693.9062 1097.8776 4693.2157 1095.7957 4690.6718 1099.8581 4687.5615 1095.3451 4683.2814 1091.5256 4680.1572 1093.2685 4677.7356 1089.0856 4683.5013 1093.254 4685.9334 1080.6153 4688.4511 1086.5517 4674.3754 1093.8634 4669.0771 1096.7647 4667.004 1100.0181 4662.5068 1102.1083 4660.3168 1093.9836 4666.6527 1101.533 4657.8911 1103.3885 4657.3171 1103.2777 4654.4304 1102.3561 4651.196 1106.5247 4653.5125 1115.1233 4641.1736 1115.8222 4639.212 1122.087 4635.7592 1120.5713 4640.9521 1115.3533 4642.2131 1118.9526 4638.6402 990.316 4629.0557 Z" fill="none" stroke="#FBC20F" opacity="0.6" stroke-width="1" class="heartland_village"/></svg>