<?xml version="1.0"?><svg xmlns="http://www.w3.org/2000/svg" version="1.2" baseProfile="tiny" width="6000" height="5918" viewBox="0 0 6000 5918" stroke-linecap="round" stroke-linejoin="round"><path d="M 5357.985 2754.9385 5422.1507 2866.3082 5502.4462 3108.5795 5519.2439 3154.6404 5427.167 3332.9089 5374.4358 3350.5815 5337.3742 3342.3814 5351.1148 3287.924 5330.4267 3170.8497 5337.6775 3113.6533 5321.8076 3064.8222 5275.3612 3004.0882 5187.362 2979.4223 5186.3844 2959.14 5220.5905 2943.3774 5238.0727 2903.6862 5209.2069 2836.4596 5357.985 2754.9385 Z" fill="none" stroke="#E71E24" opacity="0.6" stroke-width="1" class="hollis"/>
<path d="M 5399.8205 2823.9625 5471.0676 2819.1516 5529.8973 2998.7673 5470.7599 3034.8998 5340.3818 3086.9032 5318.0375 3039.9353 5247.5025 2970.0458 5246.3468 2882.4593 5399.8205 2823.9625 Z" fill="none" stroke="#E71E24" opacity="0.6" stroke-width="1" class="hollis"/>
<path d="M 5345.027 2754.0522 5454.381 2971.7847 5334.5579 2987.793 5322.1942 2865.6621 5212.5332 2870.1013 5196.2752 2846.1731 5345.027 2754.0522 Z" fill="none" stroke="#E71E24" opacity="0.6" stroke-width="1" class="hollis"/>
<path d="M 5201.7746 2825.416 5360.7359 2745.7127 5388.61 2786.1967 5398.0235 2843.3275 5382.367 2871.0289 5335.259 2905.2707 5300.1331 2921.9613 5258.4953 2926.6821 5223.2257 2888.9735 5201.7746 2825.416 Z" fill="none" stroke="#E71E24" opacity="0.6" stroke-width="1" class="hollis"/>
<path d="M 5359.8307 2753.0898 5450.1568 2951.051 5333.5533 2958.7514 5279.4544 2803.0872 5359.8307 2753.0898 Z" fill="none" stroke="#E71E24" opacity="0.6" stroke-width="1" class="hollis"/>
<path d="M 5207.3607 2838.3082 5359.3699 2753.7824 5362.1639 2760.2276 5395.404 2816.5997 5418.1863 2855.2561 5448.7606 2948.2889 5386.0979 2964.8308 5361.5607 2961.6714 5303.4432 2948.2295 5270.7321 2916.5078 5234.15 2907.8453 5207.3607 2838.3082 Z" fill="none" stroke="#E71E24" opacity="0.6" stroke-width="1" class="hollis"/>
<path d="M 5519.2278 3149.1072 5429.0267 3335.6708 5247.3882 3278.9787 5057.0276 3434.4246 4717.9877 3385.3729 4702.1756 3351.2759 4654.7314 3241.6121 4576.6084 3059.1677 4575.6333 3033.3506 4617.2556 3016.6723 4744.9505 2995.2058 4770.8935 3007.1379 5618.1312 2791.0625 5519.2278 3149.1072 Z" fill="none" stroke="#E71E24" opacity="0.6" stroke-width="1" class="hollis"/>
<path d="M 5236.3272 2870.822 5221.9724 2844.7919 5325.0384 2798.4236 5348.0467 2920.9778 5266.5606 2937.4786 5236.3272 2870.822 Z" fill="none" stroke="#E71E24" opacity="0.6" stroke-width="1" class="hollis"/>
<path d="M 5463.2493 2998.0379 5176.5064 3078.1141 5105.3805 2766.6602 5386.5084 2695.8645 5463.2493 2998.0379 Z" fill="none" stroke="#E71E24" opacity="0.6" stroke-width="1" class="hollis"/>
<path d="M 4861.4431 2516.5258 5799.3058 2437.4885 5831.2844 2884.4297 4835.5386 2516.583 4861.4431 2516.5258 Z" fill="none" stroke="#E71E24" opacity="0.6" stroke-width="1" class="hollis"/>
<path d="M 5328.7715 2902.0614 5242.1234 2860.1133 5393.5589 2818.6791 5441.9386 2827.3012 5568.7765 2999.5748 5585.5842 3669.1813 4994.6387 3681.8321 4036.807 3655.9241 4172.972 3035.8805 5233.3462 2865.8984 5328.7715 2902.0614 Z" fill="none" stroke="#E71E24" opacity="0.6" stroke-width="1" class="hollis"/>
<path d="M 5319.9368 2715.4044 5383.0472 2782.5247 5417.5103 2861.7115 5242.7294 2914.7377 5201.7865 2830.0255 5327.4846 2768.8493 5319.9368 2715.4044 Z" fill="none" stroke="#E71E24" opacity="0.6" stroke-width="1" class="hollis"/>
<path d="M 5229.3233 2831.5674 5227.3536 2830.4201 5305.0947 2787.923 5362.2264 2909.2306 5271.3695 2938.7493 5229.3233 2831.5674 Z" fill="none" stroke="#E71E24" opacity="0.6" stroke-width="1" class="hollis"/>
<path d="M 5465.0096 2966.2222 5434.5751 2923.435 5427.3891 2918.8453 5413.2647 2915.4276 5388.2666 2912.5008 5397.5535 2923.7694 5415.3685 2923.0281 5427.1843 2928.2963 5446.6676 2944.6068 5438.8112 2948.5477 5427.9428 2951.1139 5421.7023 2953.667 5413.3843 2958.07 5401.1318 2962.2534 5381.6962 2962.9989 5373.3608 2961.1779 5360.8595 2959.1378 5330.0742 2955.7643 5320.8196 2956.2504 5310.3937 2951.4379 5293.0273 2947.1049 5284.2146 2939.7524 5274.7067 2931.9407 5269.1179 2918.5866 5276.7512 2917.6443 5280.6873 2918.5558 5286.699 2916.9263 5294.8161 2923.8196 5302.937 2932.0957 5307.1275 2941.535 5314.0705 2941.9773 5324.9404 2939.8734 5336.2718 2937.3071 5341.8214 2935.909 5338.1028 2929.9261 5335.5393 2923.2486 5332.7345 2912.8839 5326.6853 2900.6841 5332.2272 2896.5202 5337.7741 2894.2002 5344.2491 2892.7996 5373.1476 2883.9617 5376.1491 2881.6485 5381.9291 2880.0191 5388.8673 2878.8474 5397.4193 2875.5968 5403.8895 2872.5824 5418.2193 2867.0107 5426.3291 2871.1366 5429.6152 2887.7224 5433.5728 2896.2394 5437.7689 2907.2912 5441.0645 2927.1046 5444.3216 2933.3189 5448.7514 2945.0619 5455.924 2944.811 5463.7802 2940.87 5471.6363 2936.929 5482.7273 2931.3652 5491.9616 2923.9626 5498.1951 2919.1041 5507.672 2915.6192 5528.2459 2908.8749 5542.8137 2905.6052 5607.7558 2879.8275 5599.9021 2884.2304 5589.7365 2889.3317 5578.8699 2892.13 5562.9305 2900.936 5549.7566 2906.0458 5527.8013 2915.0996 5510.4661 2921.604 5512.8068 2930.8172 5516.3112 2942.3321 5519.1154 2951.7746 5501.54 2955.5137 5491.1385 2959.4624 5477.964 2964.802 5469.8697 2966.4388 5465.0096 2966.2222 Z" fill="none" stroke="#E71E24" opacity="0.6" stroke-width="1" class="hollis"/>
<path d="M 5198.1119 2840.6369 5274.3742 2806.7882 5357.9838 2754.4776 5416.5667 2855.2607 5448.2965 2947.8293 5380.3148 2965.5384 5357.6238 2960.5297 5303.4444 2948.6905 5285.7969 2925.6876 5258.46 2913.3133 5226.9746 2906.9421 5222.7653 2889.8966 5198.1119 2840.6369 Z" fill="none" stroke="#E71E24" opacity="0.6" stroke-width="1" class="hollis"/>
<path d="M 5474.4494 3030.2787 5329.2557 3080.4784 5272.5794 3002.2514 5183.6572 2978.5098 5201.1819 2954.4919 5265.8754 2917.4427 5238.0654 2900.9203 5207.3512 2834.6206 5356.1342 2754.9436 5417.4922 2855.2581 5511.8063 2825.4873 5612.7954 2862.9869 5562.3052 3002.3602 5474.4494 3030.2787 Z" fill="none" stroke="#E71E24" opacity="0.6" stroke-width="1" class="hollis"/>
<path d="M 5121.3642 2867.5672 5125.5255 2866.1739 5210.133 2836.6877 5260.7715 2912.3853 5285.561 3010.7461 5155.6464 2974.2013 5121.3642 2867.5672 Z" fill="none" stroke="#E71E24" opacity="0.6" stroke-width="1" class="hollis"/>
<path d="M 4956.7265 2911.7565 5502.1964 2702.9106 5550.0165 2915.7258 5021.8845 3066.5083 4956.7265 2911.7565 Z" fill="none" stroke="#E71E24" opacity="0.6" stroke-width="1" class="hollis"/>
<path d="M 5165.923 2920.4679 5290.7174 2862.059 5418.4177 2855.2555 5469.7999 3022.9153 5256.1683 3097.2726 5165.923 2920.4679 Z" fill="none" stroke="#E71E24" opacity="0.6" stroke-width="1" class="hollis"/>
<path d="M 5207.13 2838.5393 5518.6423 2630.7362 5553.6042 3033.7368 5253.396 3099.1243 5149.1007 2856.204 5207.13 2838.5393 Z" fill="none" stroke="#E71E24" opacity="0.6" stroke-width="1" class="hollis"/>
<path d="M 5181.0839 2728.0591 5286.5044 2678.3136 5631.0955 3251.5256 5288.2441 3019.904 5181.0839 2728.0591 Z" fill="none" stroke="#E71E24" opacity="0.6" stroke-width="1" class="hollis"/>
<path d="M 5368.1491 2749.3796 5502.334 3069.8493 5332.2708 3168.078 5172.4559 2941.6573 5222.1539 2832.7384 5164.5314 2737.0134 5306.8553 2668.4295 5368.1491 2749.3796 Z" fill="none" stroke="#E71E24" opacity="0.6" stroke-width="1" class="hollis"/>
<path d="M 5326.0757 2718.4988 5339.5729 2728.4098 5347.9236 2736.5681 5353.6114 2743.8118 5359.4619 2753.6525 5417.9903 2855.0168 5448.7496 2948.1954 5401.0221 2962.374 5390.0313 2964.5689 5375.3918 2964.9268 5357.2225 2960.9327 5346.4355 2959.5324 5331.8474 2958.5627 5311.8366 2953.8608 5303.7086 2948.5162 5285.2017 2926.1669 5275.9871 2919.5047 5268.9197 2915.7203 5264.2537 2916.8704 5257.9956 2912.8532 5227.1652 2905.9171 5234.0995 2903.1331 5238.7154 2898.6264 5207.3679 2837.8563 5274.9618 2806.7496 5304.9683 2784.5114 5326.9662 2771.4545 5333.3358 2767.3249 5322.5169 2744.5758 5314.4928 2732.4793 5308.1051 2723.5294 5308.0602 2706.8221 5326.0757 2718.4988 Z" fill="none" stroke="#E71E24" opacity="0.6" stroke-width="1" class="hollis"/>
<path d="M 5236.6838 2903.4593 5193.9017 2822.9011 5259.2902 2789.5431 5348.837 2793.6812 5376.1237 2872.4291 5236.6838 2903.4593 Z" fill="none" stroke="#E71E24" opacity="0.6" stroke-width="1" class="hollis"/></svg>