<?xml version="1.0"?><svg xmlns="http://www.w3.org/2000/svg" version="1.2" baseProfile="tiny" width="6000" height="5918" viewBox="0 0 6000 5918" stroke-linecap="round" stroke-linejoin="round"><path d="M 4332.2699 3644.4083 4430.2945 3553.8217 4504.3324 3523.2431 4578.4735 3548.9361 4654.8877 3783.1545 4372.4254 3836.279 4332.2699 3644.4083 Z" fill="none" stroke="#FBC20F" opacity="0.6" stroke-width="1" class="howard_beach"/>
<path d="M 4646.5079 3761.9465 4649.3017 3769.3234 4361.2909 3826.1463 4281.0932 3499.6409 4552.3663 3456.7308 4646.5079 3761.9465 Z" fill="none" stroke="#FBC20F" opacity="0.6" stroke-width="1" class="howard_beach"/>
<path d="M 4368.2361 3824.2889 4366.8433 3822.4455 4368.2369 3824.7503 4321.1305 3629.6638 4408.0992 3572.774 4581.6566 3518.4849 4655.7966 3774.3859 4368.2361 3824.2889 Z" fill="none" stroke="#FBC20F" opacity="0.6" stroke-width="1" class="howard_beach"/>
<path d="M 4657.6881 3793.7614 4498.4616 3857.2827 4354.1548 3852.2296 4348.2176 3764.5692 4330.8958 3653.6375 4300.282 3624.8539 4292.8225 3594.1877 4307.3972 3586.091 4311.245 3531.8818 4308.8915 3508.5908 4321.838 3496.8071 4326.8985 3476.7336 4331.3001 3478.3408 4377.1244 3467.8854 4411.6369 3476.8205 4457.0483 3494.9603 4496.9136 3517.952 4566.638 3534.8893 4586.4108 3582.5962 4657.6881 3793.7614 Z" fill="none" stroke="#FBC20F" opacity="0.6" stroke-width="1" class="howard_beach"/>
<path d="M 4328.4154 3553.9957 4317.3134 3561.3948 4296.912 3545.7439 4294.0873 3517.1486 4298.6701 3487.6196 4318.1032 3478.3625 4351.4397 3476.4621 4386.595 3455.1847 4428.2685 3455.1123 4480.1221 3451.3296 4524.5908 3460.473 4561.713 3501.917 4595.132 3542.4459 4634.1804 3618.0248 4622.2354 3666.9507 4585.2746 3714.0819 4530.7399 3777.8575 4487.2146 3786.2432 4411.1741 3743.0068 4382.4049 3712.6051 4342.3773 3595.4903 4342.3803 3597.3356 4328.4154 3553.9957 Z" fill="none" stroke="#FBC20F" opacity="0.6" stroke-width="1" class="howard_beach"/>
<path d="M 4585.4114 3785.1364 4563.1935 3793.4844 4528.9939 3835.0771 4492.8539 3830.5295 4431.715 3834.3307 4392.7931 3827.9384 4378.8445 3797.5082 4377.8866 3779.0534 4395.4197 3739.343 4400.0179 3719.9569 4379.6511 3727.374 4345.3856 3732.9685 4319.4251 3719.17 4302.7218 3701.2037 4292.5152 3690.6088 4309.0742 3620.4569 4331.2184 3568.7527 4312.6342 3531.8795 4323.6811 3491.2688 4347.7353 3476.4683 4371.7888 3461.6675 4431.0549 3459.7199 4462.545 3461.5089 4479.2479 3479.9291 4457.0496 3495.6522 4472.8252 3513.1523 4455.5387 3686.6405 4446.2068 3647.9033 4472.1056 3627.558 4496.2387 3655.1946 4476.0009 3732.7412 4451.9652 3760.4679 4457.5069 3751.2301 4323.9397 3648.1128 4460.8368 3541.7737 4514.52 3523.2243 4591.4523 3555.3693 4634.3738 3715.8316 4646.5171 3766.5605 4585.4114 3785.1364 Z" fill="none" stroke="#FBC20F" opacity="0.6" stroke-width="1" class="howard_beach"/>
<path d="M 4409.461 3823.2952 4318.4669 3699.7939 4295.9814 3542.9776 4377.3862 3485.6435 4523.7969 3531.5103 4627.5804 3558.9893 4676.1781 3774.8063 4409.461 3823.2952 Z" fill="none" stroke="#FBC20F" opacity="0.6" stroke-width="1" class="howard_beach"/>
<path d="M 4308.1533 3481.8383 4594.2309 3555.364 4661.3114 3752.689 4387.2043 3810.4137 4308.1533 3481.8383 Z" fill="none" stroke="#FBC20F" opacity="0.6" stroke-width="1" class="howard_beach"/>
<path d="M 4335.9955 3500.6528 4316.2692 3489.4359 4483.0227 3518.6693 4557.1349 3529.6025 4614.6392 3571.9312 4621.4133 3631.3419 4651.2926 3751.2381 4662.5273 3842.5117 4510.711 3909.2537 4317.1344 3825.9153 4287.1852 3637.7186 4288.9039 3554.6783 4335.9955 3500.6528 Z" fill="none" stroke="#FBC20F" opacity="0.6" stroke-width="1" class="howard_beach"/>
<path d="M 4284.1784 3690.6222 4450.6605 3548.25 4578.4629 3543.4006 4638.176 3764.7315 4358.4758 3804.9255 4284.1784 3690.6222 Z" fill="none" stroke="#FBC20F" opacity="0.6" stroke-width="1" class="howard_beach"/>
<path d="M 4411.097 3698.7144 4347.1889 3703.4372 4361.8652 3617.6012 4565.5264 3559.1095 4577.0154 3754.6998 4419.5888 3787.2867 4411.097 3698.7144 Z" fill="none" stroke="#FBC20F" opacity="0.6" stroke-width="1" class="howard_beach"/>
<path d="M 4504.346 3530.6237 4577.5579 3554.4735 4599.0425 3648.5419 4560.141 3649.5393 4584.4885 3786.9838 4545.5796 3787.0579 4504.4411 3582.2892 4484.0696 3585.0944 4485.8331 3536.193 4504.346 3530.6237 Z" fill="none" stroke="#FBC20F" opacity="0.6" stroke-width="1" class="howard_beach"/>
<path d="M 4523.3288 3777.8713 4433.5516 3825.0988 4422.3664 3786.359 4353.6654 3698.8126 4348.8206 3571.4912 4444.0511 3477.2247 4555.2546 3514.845 4479.4085 3568.4956 4523.3288 3777.8713 Z" fill="none" stroke="#FBC20F" opacity="0.6" stroke-width="1" class="howard_beach"/>
<path d="M 4683.593 3776.6369 4203.9265 3912.2289 4146.3633 3831.099 4235.1529 3734.9918 4125.4558 3465.7441 4240.2446 3436.052 4351.4552 3485.6874 4503.4249 3533.3931 4690.6057 3581.0058 4683.593 3776.6369 Z" fill="none" stroke="#FBC20F" opacity="0.6" stroke-width="1" class="howard_beach"/>
<path d="M 4341.5156 3634.2434 4471.0445 3552.8265 4494.1499 3526.0295 4568.2927 3552.646 4585.1343 3641.1873 4565.7004 3650.4514 4578.8717 3756.5419 4414.9794 3800.2144 4397.1991 3696.893 4341.6279 3701.601 4341.5156 3634.2434 Z" fill="none" stroke="#FBC20F" opacity="0.6" stroke-width="1" class="howard_beach"/>
<path d="M 4629.8167 3753.6744 4335.9696 3641.1727 4400.8274 3585.4727 4429.3436 3539.7539 4497.981 3531.9039 4465.4012 3569.2129 4570.3708 3549.6436 4614.1408 3672.2721 4632.3745 3758.8601 4419.4864 3794.9002 4349.861 3708.7385 4336.4326 3641.0566 4629.8167 3753.6744 Z" fill="none" stroke="#FBC20F" opacity="0.6" stroke-width="1" class="howard_beach"/>
<path d="M 4582.9227 3686.2095 4588.3619 3770.2125 4420.3097 3807.4734 4348.8191 3714.3931 4328.3147 3638.7643 4391.2082 3585.1443 4462.8794 3537.4173 4580.5387 3556.5731 4618.5505 3669.7113 4582.9227 3686.2095 Z" fill="none" stroke="#FBC20F" opacity="0.6" stroke-width="1" class="howard_beach"/>
<path d="M 4422.188 3784.9401 4248.3259 3686.6524 4160.5617 3527.007 4177.2048 3508.531 4362.3652 3469.4898 4493.9781 3528.3012 4573.6728 3552.1394 4638.8998 3751.3144 4422.188 3784.9401 Z" fill="none" stroke="#FBC20F" opacity="0.6" stroke-width="1" class="howard_beach"/>
<path d="M 4630.4081 3583.8944 4673.4492 3799.7281 4349.3167 3867.6962 4277.7282 3711.8556 4470.0535 3516.8476 4630.4081 3583.8944 Z" fill="none" stroke="#FBC20F" opacity="0.6" stroke-width="1" class="howard_beach"/>
<path d="M 4342.4542 3641.6233 4370.1856 3608.3606 4419.2208 3576.9064 4505.2722 3530.622 4577.5526 3551.7057 4592.4498 3592.2722 4619.4746 3676.1832 4638.1504 3751.8123 4588.139 3758.3696 4524.2586 3779.7152 4422.3875 3798.3558 4406.467 3699.6452 4349.2832 3709.4316 4337.5871 3639.094 4342.4542 3641.6233 Z" fill="none" stroke="#FBC20F" opacity="0.6" stroke-width="1" class="howard_beach"/>
<path d="M 4265.2812 3508.8077 4253.7586 3490.7662 4369.4772 3455.0977 4589.5176 3566.9371 4626.7685 3757.701 4594.1022 3791.4872 4519.1026 3812.8546 4393.1243 3822.3084 4374.3489 3772.6616 4285.2954 3698.0642 4265.2812 3508.8077 Z" fill="none" stroke="#FBC20F" opacity="0.6" stroke-width="1" class="howard_beach"/>
<path d="M 4315.396 3521.7267 4306.2984 3480.2269 4330.6048 3477.8807 4404.6987 3481.2145 4498.0991 3533.1723 4574.5333 3546.8678 4641.854 3750.8822 4403.9168 3831.6106 4302.012 3620.6991 4315.396 3521.7267 Z" fill="none" stroke="#FBC20F" opacity="0.6" stroke-width="1" class="howard_beach"/>
<path d="M 4410.9155 3594.4509 4366.3651 3540.0933 4294.991 3503.3087 4375.5937 3520.7035 4426.4455 3471.7207 4442.1809 3467.0803 4494.1044 3501.1205 4512.6882 3534.2986 4538.6534 3551.7795 4531.6942 3544.873 4549.307 3553.1433 4558.145 3573.8853 4561.406 3584.028 4596.244 3638.3978 4646.4785 3747.1819 4631.7733 3806.2712 4539.1173 3799.0668 4433.5419 3819.5616 4381.6332 3803.0405 4375.9709 3742.1446 4338.8091 3677.6147 4329.4942 3646.2582 4305.3813 3627.8442 4296.065 3594.6438 4290.4542 3561.4385 4303.3652 3527.2818 4294.0664 3504.2328 4372.8702 3552.9985 4351.5496 3541.9634 4410.9155 3594.4509 Z" fill="none" stroke="#FBC20F" opacity="0.6" stroke-width="1" class="howard_beach"/>
<path d="M 4607.707 3816.9312 4422.9615 3861.5711 4318.8558 3654.58 4383.1212 3589.8857 4433.541 3556.5838 4474.0291 3538.7516 4500.6308 3524.8644 4548.5715 3531.4639 4567.3441 3540.8847 4588.7463 3592.9713 4604.1118 3635.6145 4616.4457 3666.7314 4586.3667 3679.9385 4575.2852 3697.7223 4580.6695 3727.9322 4595.5991 3783.7325 4607.707 3816.9312 Z" fill="none" stroke="#FBC20F" opacity="0.6" stroke-width="1" class="howard_beach"/>
<path d="M 4277.3371 3467.3584 4585.8284 3761.1425 4574.4855 3763.9327 4549.9465 3769.2854 4506.1319 3746.0665 4514.0205 3753.8956 4472.7766 3742.6669 4515.4152 3756.6614 4524.2346 3766.7959 4505.6976 3761.7548 4494.1195 3762.6988 4504.7738 3763.1407 4474.2266 3776.1157 4480.6812 3759.4935 4456.6549 3792.7581 4423.3058 3793.74 4433.493 3791.8764 4428.8204 3768.8142 4441.7783 3762.3317 4470.4245 3722.6008 4420.3085 3669.1711 4409.1866 3665.4997 4393.3175 3594.4813 4393.4287 3659.068 4388.6706 3585.263 4615.0056 3759.2403 4277.3371 3467.3584 Z" fill="none" stroke="#FBC20F" opacity="0.6" stroke-width="1" class="howard_beach"/>
<path d="M 4468.2959 3569.4383 4500.655 3538.0111 4565.5229 3557.2643 4574.0156 3639.3633 4563.8443 3648.6096 4576.1067 3763.9296 4512.2138 3778.8147 4420.5282 3794.6677 4394.4329 3704.2797 4339.7861 3708.0633 4335.038 3637.9449 4395.1779 3599.0913 4447.928 3574.0879 4468.2959 3569.4383 Z" fill="none" stroke="#FBC20F" opacity="0.6" stroke-width="1" class="howard_beach"/>
<path d="M 4534.9381 3793.5377 4425.6372 3802.5028 4416.8258 3796.5198 4414.0312 3787.7578 4406.5904 3770.6986 4400.0602 3744.4103 4369.0029 3730.1604 4336.9986 3702.9928 4323.0491 3669.7977 4329.0372 3649.9498 4342.4242 3623.6312 4390.0749 3594.0256 4425.2281 3569.5149 4443.2765 3562.5635 4471.969 3551.9022 4501.1028 3529.7071 4521.9609 3540.2782 4584.042 3554.9223 4602.1589 3583.9497 4609.2287 3647.1381 4573.1176 3654.128 4594.6638 3779.1202 4418.7004 3808.9749 4534.9381 3793.5377 Z" fill="none" stroke="#FBC20F" opacity="0.6" stroke-width="1" class="howard_beach"/>
<path d="M 4336.8982 3642.5552 4405.3166 3570.4723 4469.1772 3544.5265 4502.4903 3528.7819 4571.0571 3545.26 4637.2478 3763.8105 4368.6727 3808.5996 4336.8982 3642.5552 Z" fill="none" stroke="#FBC20F" opacity="0.6" stroke-width="1" class="howard_beach"/>
<path d="M 4304.2222 3484.8429 4369.0168 3465.3623 4587.7245 3543.3828 4653.0036 3767.4704 4579.8175 3766.6909 4429.7971 3797.4199 4414.0514 3799.2932 4402.7698 3704.2653 4355.5413 3712.6507 4349.057 3712.6616 4343.3728 3637.0083 4342.4234 3623.1698 4339.6339 3616.7158 4301.6733 3626.0049 4304.2222 3484.8429 Z" fill="none" stroke="#FBC20F" opacity="0.6" stroke-width="1" class="howard_beach"/>
<path d="M 4417.7812 3813.1293 4309.142 3661.9775 4296.0336 3575.2687 4277.3843 3496.8792 4406.9992 3472.6772 4592.3749 3553.5224 4615.0652 3789.693 4417.7812 3813.1293 Z" fill="none" stroke="#FBC20F" opacity="0.6" stroke-width="1" class="howard_beach"/>
<path d="M 4581.6579 3760.2277 4520.5188 3761.266 4514.9827 3773.2727 4417.7441 3791.9041 4397.2007 3697.8158 4352.7329 3695.1233 4347.0685 3631.4661 4322.9298 3597.3679 4478.4723 3562.9617 4551.6564 3571.1297 4561.0655 3648.6148 4581.6579 3760.2277 Z" fill="none" stroke="#FBC20F" opacity="0.6" stroke-width="1" class="howard_beach"/>
<path d="M 4635.3895 3761.0458 4536.2896 3773.2331 4518.6951 3776.9571 4419.6115 3800.2063 4391.646 3699.6708 4340.7201 3712.6755 4318.3366 3620.4417 4309.913 3566.9425 4195.1175 3601.2604 4158.8806 3523.8155 4365.3078 3462.601 4468.1729 3501.1675 4583.0955 3544.3143 4635.3895 3761.0458 Z" fill="none" stroke="#FBC20F" opacity="0.6" stroke-width="1" class="howard_beach"/>
<path d="M 4334.1255 3646.2506 4310.9025 3605.6914 4317.221 3505.1176 4369.9883 3492.1139 4468.1979 3515.0058 4533.9742 3525.9558 4601.6438 3557.1948 4641.8723 3760.1101 4639.1444 3785.9543 4445.5773 3814.926 4439.9664 3785.4052 4396.3237 3726.4226 4357.3893 3709.8793 4334.1255 3646.2506 Z" fill="none" stroke="#FBC20F" opacity="0.6" stroke-width="1" class="howard_beach"/>
<path d="M 4643.7434 3769.3345 4424.2338 3794.6612 4353.6964 3717.2676 4323.0164 3649.9597 4306.291 3617.6934 4310.889 3597.3876 4323.8134 3571.5328 4324.6803 3535.55 4288.4769 3483.9459 4360.6618 3453.3838 4472.8102 3504.8494 4591.4452 3551.679 4643.7434 3769.3345 Z" fill="none" stroke="#FBC20F" opacity="0.6" stroke-width="1" class="howard_beach"/>
<path d="M 4305.3262 3478.6424 4466.2069 3503.6862 4524.4655 3772.2949 4419.566 3793.9613 4352.2183 3709.4255 4321.239 3614.9559 4305.3262 3478.6424 Z" fill="none" stroke="#FBC20F" opacity="0.6" stroke-width="1" class="howard_beach"/>
<path d="M 4989.3414 3792.5781 4988.4144 3792.3495 5031.1941 3764.4481 5032.5895 3766.8671 5040.4099 3792.5719 5024.6852 3802.7608 5006.7465 3807.3024 5002.5771 3807.0816 4989.3414 3792.5781 Z" fill="none" stroke="#FBC20F" opacity="0.6" stroke-width="1" class="howard_beach"/>
<path d="M 4577.5491 3549.8605 4657.7205 3809.911 4435.3752 3808.4842 4364.8484 3738.4724 4299.8597 3649.9976 4281.0651 3482.1128 4382.8828 3450.5785 4577.5491 3549.8605 Z" fill="none" stroke="#FBC20F" opacity="0.6" stroke-width="1" class="howard_beach"/>
<path d="M 4647.3792 3734.2611 4603.0273 3792.485 4540.9788 3803.6775 4501.1207 3791.7547 4414.053 3800.216 4404.7056 3752.2459 4330.5106 3700.6967 4299.8283 3630.6213 4298.8287 3585.413 4288.5691 3541.1444 4281.077 3489.493 4332.9147 3474.648 4383.8437 3470.8721 4435.7293 3484.6197 4486.6987 3502.9791 4540.4503 3522.2534 4586.8339 3561.8365 4605.4473 3607.9319 4630.5865 3674.3159 4647.3792 3734.2611 Z" fill="none" stroke="#FBC20F" opacity="0.6" stroke-width="1" class="howard_beach"/>
<path d="M 4285.8811 3482.2895 4335.5056 3473.3522 4393.2952 3473.9924 4460.0191 3498.9681 4460.0839 3535.1325 4472.6876 3539.5382 4503.0426 3526.9358 4541.5898 3537.197 4590.9897 3795.4613 4530.2723 3825.1077 4485.8139 3831.096 4432.4702 3842.266 4375.3803 3830.5522 4359.7438 3787.7586 4386.3648 3753.0158 4387.0907 3744.1557 4361.1688 3753.7969 4318.9105 3744.2702 4318.8814 3726.553 4298.123 3721.4194 4278.809 3692.6608 4337.2672 3641.6319 4340.209 3628.3405 4337.2217 3614.3209 4304.6315 3622.494 4285.8811 3482.2895 Z" fill="none" stroke="#FBC20F" opacity="0.6" stroke-width="1" class="howard_beach"/>
<path d="M 4507.2027 3573.0579 4469.1839 3548.2168 4488.6267 3544.4912 4505.2806 3535.2349 4543.286 3552.6934 4573.9115 3584.9268 4630.7121 3737.9853 4578.877 3759.3103 4498.3348 3788.0685 4411.2319 3776.2274 4331.4308 3697.0043 4361.8324 3598.2256 4459.0043 3552.8481 4516.5056 3595.1838 4507.2027 3573.0579 Z" fill="none" stroke="#FBC20F" opacity="0.6" stroke-width="1" class="howard_beach"/>
<path d="M 4312.4275 3480.8594 4315.94 3479.4328 4318.021 3477.8149 4333.064 3474.1 4354.4073 3468.6644 4375.0061 3464.7089 4415.1005 3481.2968 4442.5314 3490.2448 4462.2303 3500.8189 4473.9836 3507.6827 4507.8362 3524.951 4548.0731 3536.6661 4569.3153 3547.7633 4576.7503 3561.1268 4583.4162 3590.675 4591.2154 3639.1138 4571.2338 3648.4481 4589.7681 3762.5191 4421.0379 3793.9595 4403.2969 3705.3606 4352.1682 3708.8537 4329.2759 3588.7736 4312.4275 3480.8594 Z" fill="none" stroke="#FBC20F" opacity="0.6" stroke-width="1" class="howard_beach"/>
<path d="M 4630.7831 3773.9742 4330.7031 3816.9689 4288.468 3478.4108 4371.7841 3458.9 4468.1846 3507.6254 4572.9147 3548.0242 4630.7831 3773.9742 Z" fill="none" stroke="#FBC20F" opacity="0.6" stroke-width="1" class="howard_beach"/>
<path d="M 4434.4602 3814.9457 4434.4691 3820.0214 4400.584 3779.4758 4371.3281 3735.6931 4354.6142 3712.1909 4291.4667 3614.9495 4280.7795 3592.8232 4321.0098 3556.3144 4316.3168 3518.4962 4296.8298 3495.0029 4236.1448 3479.4161 4373.6362 3458.8968 4459.3491 3486.884 4468.1962 3514.0833 4488.6401 3551.872 4497.8883 3544.4743 4516.3996 3537.9821 4546.975 3544.3831 4568.3015 3557.259 4593.3457 3576.5857 4648.1199 3641.064 4663.0234 3682.5559 4662.1878 3727.7721 4664.1369 3775.7534 4628.9485 3783.206 4612.295 3794.3126 4434.4602 3814.9457 Z" fill="none" stroke="#FBC20F" opacity="0.6" stroke-width="1" class="howard_beach"/>
<path d="M 4518.6848 3771.4202 4421.4514 3792.8204 4396.2744 3697.8174 4353.6685 3700.6581 4335.0288 3632.4088 4305.3527 3610.3137 4326.6225 3589.9807 4378.4855 3587.1257 4424.7764 3575.9741 4479.3985 3562.96 4508.1237 3570.2884 4535.9215 3576.695 4569.2435 3565.5606 4578.8522 3746.3912 4587.2179 3761.1398 4518.6848 3771.4202 Z" fill="none" stroke="#FBC20F" opacity="0.6" stroke-width="1" class="howard_beach"/>
<path d="M 4492.8235 3813.9181 4379.8118 3821.5006 4318.4048 3661.9624 4382.1966 3590.8099 4443.2626 3554.7214 4484.0025 3548.19 4503.4114 3526.0125 4576.6247 3550.7849 4604.5947 3645.7631 4562.9181 3648.6113 4584.4636 3774.0644 4492.8235 3813.9181 Z" fill="none" stroke="#FBC20F" opacity="0.6" stroke-width="1" class="howard_beach"/>
<path d="M 4169.0586 3517.3425 4369.023 3469.0523 4462.6328 3510.403 4258.2257 3680.5135 4169.0586 3517.3425 Z" fill="none" stroke="#FBC20F" opacity="0.6" stroke-width="1" class="howard_beach"/>
<path d="M 4467.3415 3553.7557 4478.4455 3548.2001 4500.6397 3529.7079 4567.363 3550.8026 4637.2204 3749.9686 4422.3842 3796.5101 4350.902 3708.0447 4323.9305 3642.5767 4467.3415 3553.7557 Z" fill="none" stroke="#FBC20F" opacity="0.6" stroke-width="1" class="howard_beach"/>
<path d="M 4334.1255 3646.2506 4340.5894 3634.245 4363.7114 3613.9075 4395.1604 3588.9424 4413.6652 3577.8387 4485.8801 3562.0256 4547.4929 3573.4441 4594.6397 3766.6623 4520.5565 3781.5677 4417.7538 3797.441 4402.773 3706.1108 4352.7686 3716.3464 4334.1255 3646.2506 Z" fill="none" stroke="#FBC20F" opacity="0.6" stroke-width="1" class="howard_beach"/>
<path d="M 4169.9985 3526.5668 4373.6472 3465.3544 4682.2549 3573.6418 4659.4883 3767.4574 4390.9656 3842.7075 4189.0882 3903.022 4000.6268 3613.5289 4169.9985 3526.5668 Z" fill="none" stroke="#FBC20F" opacity="0.6" stroke-width="1" class="howard_beach"/>
<path d="M 4508.6035 3830.5006 4503.9712 3830.5091 4384.4772 3840.8728 4359.4022 3804.9239 4383.3865 3744.9003 4315.7712 3750.5503 4278.6279 3695.2448 4467.3132 3538.0717 4499.7102 3527.8645 4648.9101 3572.7862 4669.7138 3784.9704 4508.6035 3830.5006 Z" fill="none" stroke="#FBC20F" opacity="0.6" stroke-width="1" class="howard_beach"/>
<path d="M 4667.8517 3780.36 4617.8299 3782.305 4602.0328 3757.42 4584.2506 3663.3337 4587.9202 3644.8727 4565.7144 3657.833 4593.699 3759.2817 4586.3484 3790.6716 4549.2835 3786.1281 4496.1508 3607.2157 4515.5828 3597.0308 4510.9228 3581.3547 4485.0076 3591.5511 4516.9261 3822.1794 4426.1758 3845.4149 4382.6148 3835.3388 4354.7608 3799.3947 4368.6242 3779.9919 4398.2274 3755.9483 4383.3897 3746.7459 4350.0576 3756.953 4316.6855 3743.1666 4300.9044 3722.8913 4289.7243 3683.2315 4448.8377 3564.8601 4478.4589 3555.5809 4512.678 3528.7632 4808.2192 3574.3006 4799.9589 3609.3786 4721.2009 3595.7051 4671.2318 3618.8735 4647.2745 3681.6646 4667.8517 3780.36 Z" fill="none" stroke="#FBC20F" opacity="0.6" stroke-width="1" class="howard_beach"/>
<path d="M 4585.4114 3785.1364 4561.3372 3791.6422 4527.1134 3820.3148 4453.0135 3828.7557 4395.566 3824.2422 4369.5396 3773.5307 4391.7269 3746.7316 4372.2686 3743.9965 4345.4057 3744.9646 4332.3953 3720.0714 4334.1117 3637.9464 4414.5673 3563.9979 4461.7844 3553.7657 4484.0126 3553.7256 4498.7806 3526.021 4538.6188 3533.3278 4580.3258 3548.9326 4602.7189 3633.7718 4587.9219 3645.7954 4568.4739 3647.678 4587.2144 3759.2942 4585.4114 3785.1364 Z" fill="none" stroke="#FBC20F" opacity="0.6" stroke-width="1" class="howard_beach"/>
<path d="M 4564.5801 3548.5014 4568.3587 3587.2439 4579.1074 3637.9695 4568.0125 3648.6016 4586.7485 3757.9109 4538.6056 3773.2287 4421.4538 3794.2047 4351.3597 3704.8143 4337.3598 3641.6318 4374.3529 3607.8922 4419.2176 3575.0612 4496.4763 3532.022 4564.5801 3548.5014 Z" fill="none" stroke="#FBC20F" opacity="0.6" stroke-width="1" class="howard_beach"/>
<path d="M 4360.8103 3471.1686 4375.8426 3465.1117 4388.8221 3473.3922 4484.2686 3505.5122 4588.0244 3553.373 4601.0584 3588.6037 4629.9255 3666.9743 4638.624 3771.564 4575.2568 3779.2249 4522.4764 3792.244 4415.9959 3824.7355 4402.4783 3714.059 4355.2602 3728.9037 4322.7287 3662.5209 4339.3818 3650.4982 4356.4449 3617.1084 4333.2997 3623.6057 4307.3725 3628.2617 4297.1299 3595.0628 4317.5097 3596.8748 4325.8091 3574.7181 4321.1356 3548.8928 4306.2056 3480.6477 4326.5722 3476.0017 4360.8103 3471.1686 Z" fill="none" stroke="#FBC20F" opacity="0.6" stroke-width="1" class="howard_beach"/>
<path d="M 4502.4988 3533.3948 4568.2909 3551.7234 4629.8185 3754.5972 4426.0785 3790.0438 4339.6754 3641.6279 4502.4988 3533.3948 Z" fill="none" stroke="#FBC20F" opacity="0.6" stroke-width="1" class="howard_beach"/>
<path d="M 4515.5943 3537.692 4596.3934 3616.0292 4564.3279 3780.0883 4515.5943 3537.692 Z" fill="none" stroke="#FBC20F" opacity="0.6" stroke-width="1" class="howard_beach"/>
<path d="M 4379.2226 3476.4151 4748.9447 3575.3494 4674.3346 3779.4241 4371.5037 3839.0492 4177.409 3527.4783 4379.2226 3476.4151 Z" fill="none" stroke="#FBC20F" opacity="0.6" stroke-width="1" class="howard_beach"/>
<path d="M 4581.6579 3760.2277 4419.6018 3794.6693 4336.9963 3701.6087 4325.7831 3642.5736 4422.0042 3579.6694 4497.8782 3538.9388 4577.5668 3559.0865 4637.2295 3754.5825 4581.6579 3760.2277 Z" fill="none" stroke="#FBC20F" opacity="0.6" stroke-width="1" class="howard_beach"/>
<path d="M 4154.6201 3523.6372 4176.8156 3502.201 4370.1237 3462.7773 4468.7322 3503.1961 4449.5399 3543.0855 4474.7461 3551.1591 4525.6383 3824.1935 4398.1961 3845.0945 4360.3542 3820.057 4358.8233 3791.2669 4391.3592 3748.3933 4384.6755 3740.2842 4341.7135 3752.9067 4315.0159 3741.8774 4323.1484 3730.0525 4296.4553 3721.2376 4200.6947 3614.3536 4154.6201 3523.6372 Z" fill="none" stroke="#FBC20F" opacity="0.6" stroke-width="1" class="howard_beach"/>
<path d="M 4575.6985 3550.7866 4597.1578 3631.9373 4573.0876 3638.4424 4585.3634 3760.2206 4538.1217 3762.1559 4515.5811 3596.1082 4484.0327 3564.7968 4513.1265 3771.4305 4424.2257 3790.0471 4407.3966 3701.4891 4354.6011 3704.3475 4341.5156 3634.2434 4348.8948 3615.7777 4417.3587 3571.374 4508.9836 3534.3055 4575.6985 3550.7866 Z" fill="none" stroke="#FBC20F" opacity="0.6" stroke-width="1" class="howard_beach"/>
<path d="M 4323.0012 3640.7329 4339.6608 3632.8625 4389.6063 3590.7972 4444.188 3554.2584 4491.8531 3536.1821 4520.1009 3536.1301 4559.4756 3542.9755 4573.4157 3567.8592 4593.3903 3599.6515 4591.1068 3616.2636 4592.083 3642.0966 4571.2554 3649.0568 4576.8899 3689.1839 4580.2391 3745.0044 4578.0037 3786.9963 4477.101 3828.7124 4375.9819 3748.6041 4323.0012 3640.7329 Z" fill="none" stroke="#FBC20F" opacity="0.6" stroke-width="1" class="howard_beach"/>
<path d="M 4465.7783 3561.0757 4501.145 3539.5934 4569.2263 3555.5882 4586.052 3635.8257 4568.4867 3653.3904 4577.3374 3758.8776 4508.8112 3772.8486 4419.9183 3796.0788 4349.3657 3709.4573 4344.6277 3645.7976 4465.7783 3561.0757 Z" fill="none" stroke="#FBC20F" opacity="0.6" stroke-width="1" class="howard_beach"/>
<path d="M 4279.2188 3485.8058 4614.5923 3547.9436 4665.1764 3832.0447 4329.8789 3878.8035 4279.2188 3485.8058 Z" fill="none" stroke="#FBC20F" opacity="0.6" stroke-width="1" class="howard_beach"/>
<path d="M 4408.6351 3481.4383 4468.6381 3502.3199 4475.1789 3534.3672 4552.5351 3545.9871 4543.5505 3570.2224 4581.4307 3762.5351 4518.4601 3775.1119 4419.3706 3794.9004 4401.6019 3698.5002 4349.746 3709.2001 4309.9187 3499.5943 4320.2188 3497.7323 4408.6351 3481.4383 Z" fill="none" stroke="#FBC20F" opacity="0.6" stroke-width="1" class="howard_beach"/>
<path d="M 4302.0883 3681.9067 4330.7701 3661.6199 4318.7042 3646.8767 4332.5798 3635.7816 4341.827 3626.5395 4342.7286 3611.7754 4359.4039 3613.5927 4373.0499 3604.2074 4401.7245 3582.015 4431.3255 3560.7431 4460.0123 3546.8531 4481.2957 3536.6662 4510.0168 3542.1492 4535.0318 3546.7156 4553.8742 3552.2932 4572.3994 3553.1806 4585.4227 3582.6793 4591.0227 3604.8118 4590.1356 3625.112 4590.173 3644.4882 4566.1007 3650.0705 4562.4255 3665.7634 4572.6516 3685.1209 4583.8116 3708.168 4588.5002 3737.6874 4585.7691 3762.608 4585.8118 3784.7554 4317.0314 3709.5662 4289.0443 3704.3834 4286.243 3690.5469 4302.0883 3681.9067 Z" fill="none" stroke="#FBC20F" opacity="0.6" stroke-width="1" class="howard_beach"/>
<path d="M 4399.6911 3798.8567 4332.8623 3722.3775 4330.5411 3719.1517 4328.1262 3659.1782 4327.2014 3660.1025 4330.6513 3645.795 4330.4193 3645.5647 4385.7886 3592.5337 4386.3624 3589.5341 4411.9228 3574.4973 4414.9269 3571.0322 4459.6939 3550.0791 4459.2304 3549.8493 4490.4592 3533.6475 4490.1119 3533.6481 4492.3077 3531.5683 4546.0324 3535.6203 4585.8873 3551.2284 4584.9584 3549.8463 4586.3435 3547.6524 4590.0074 3586.5104 4593.9723 3601.265 4596.5286 3605.9886 4602.0295 3636.5412 4601.3353 3636.7732 4565.0004 3647.6847 4569.5162 3647.7914 4568.512 3667.6314 4570.2593 3673.1643 4572.1503 3693.23 4574.3688 3702.9145 4576.8282 3717.4431 4579.855 3725.8575 4581.9614 3737.3881 4582.6701 3744.6536 4588.3859 3766.3283 4590.3712 3774.9758 4582.8715 3789.1787 4570.9529 3793.8156 4558.3321 3794.6471 4543.8526 3792.3674 4531.6849 3787.7761 4503.9212 3803.285 4475.2089 3807.0287 4444.6386 3808.0063 4399.6911 3798.8567 Z" fill="none" stroke="#FBC20F" opacity="0.6" stroke-width="1" class="howard_beach"/>
<path d="M 4307.2971 3477.4575 4480.3723 3504.2208 4591.6119 3558.1364 4581.1593 3661.4938 4585.7355 3793.2871 4544.1829 3783.5229 4431.663 3804.7993 4340.7108 3707.139 4331.307 3622.2656 4303.5258 3626.0019 4307.2971 3477.4575 Z" fill="none" stroke="#FBC20F" opacity="0.6" stroke-width="1" class="howard_beach"/>
<path d="M 4364.8936 3765.2333 4350.036 3744.034 4322.1996 3716.3972 4307.321 3681.3575 4320.2194 3638.8921 4310.9176 3614.9179 4305.2851 3568.7953 4331.1878 3550.3007 4312.607 3515.2733 4340.3911 3515.2274 4362.5965 3502.2744 4386.6662 3496.6981 4408.8834 3491.1245 4436.6799 3498.4561 4449.7146 3537.1807 4457.1503 3551.9288 4475.6737 3551.8955 4496.0495 3551.8584 4512.7069 3544.447 4518.2742 3549.9723 4533.0895 3548.0995 4546.0489 3544.3848 4547.9186 3553.6072 4583.1097 3551.695 4594.263 3571.9709 4590.576 3581.2042 4603.568 3594.0959 4618.4018 3601.4481 4635.0921 3610.6417 4649.9596 3634.6015 4651.8489 3653.0515 4648.1659 3664.1313 4650.0515 3680.7364 4651.9594 3708.4147 4646.4859 3750.873 4652.0883 3773.0091 4622.4728 3787.8328 4583.5639 3787.9084 4555.7892 3797.1897 4520.5959 3802.7928 4528.0691 3836.0017 4520.6918 3854.4731 4505.8887 3865.5752 4470.6458 3845.3358 4422.4441 3830.6555 4392.7502 3803.0214 4383.426 3767.9701 4364.8936 3765.2333 Z" fill="none" stroke="#FBC20F" opacity="0.6" stroke-width="1" class="howard_beach"/>
<path d="M 4554.7004 3711.372 4535.3719 3777.8488 4519.6198 3776.0326 4428.8642 3793.7302 4356.4537 3704.3444 4346.1531 3637.9264 4373.8937 3610.1996 4419.224 3578.7517 4496.0664 3561.0844 4510.841 3537.0698 4571.0641 3548.9503 4587.9077 3638.4139 4585.3705 3763.9118 4539.074 3775.9963 4554.7004 3711.372 Z" fill="none" stroke="#FBC20F" opacity="0.6" stroke-width="1" class="howard_beach"/>
<path d="M 4333.894 3646.251 4334.1186 3642.0985 4429.855 3567.2003 4499.2479 3528.3266 4574.3057 3548.9441 4641.4156 3763.3408 4669.2014 3760.5169 4417.7747 3809.4379 4399.998 3708.4225 4398.6013 3704.2725 4347.2067 3714.0488 4333.894 3646.251 Z" fill="none" stroke="#FBC20F" opacity="0.6" stroke-width="1" class="howard_beach"/>
<path d="M 4319.966 3484.8172 4551.5082 3492.7108 4580.7138 3751.0016 4420.5266 3793.7449 4319.966 3484.8172 Z" fill="none" stroke="#FBC20F" opacity="0.6" stroke-width="1" class="howard_beach"/>
<path d="M 4101.3514 3447.3284 4284.5797 3364.0307 4529.0371 3361.7613 4638.3143 3367.0856 4753.207 3400.0586 4799.7504 3512.5053 4842.5999 3624.9711 4857.5668 3691.3727 4816.9974 3778.2025 4679.8687 3767.4164 4516.9551 3837.8681 4390.818 3756.8839 4275.8298 3683.2538 4186.744 3576.3619 4101.3514 3447.3284 Z" fill="none" stroke="#FBC20F" opacity="0.6" stroke-width="1" class="howard_beach"/>
<path d="M 4603.568 3594.0959 4640.4846 3761.0357 4392.7486 3802.0986 4353.7034 3721.42 4293.7458 3592.341 4275.9841 3489.9624 4448.258 3499.3581 4574.3048 3548.4828 4603.568 3594.0959 Z" fill="none" stroke="#FBC20F" opacity="0.6" stroke-width="1" class="howard_beach"/>
<path d="M 4308.3758 3476.3028 4314.3829 3468.6822 4375.4758 3451.5137 4570.1204 3539.7262 4640.0159 3758.2682 4424.2322 3793.7384 4350.9159 3716.3495 4303.7476 3620.0042 4298.3877 3599.0226 4323.5731 3566.2282 4308.3758 3476.3028 Z" fill="none" stroke="#FBC20F" opacity="0.6" stroke-width="1" class="howard_beach"/>
<path d="M 4330.8809 3539.4443 4419.1344 3527.5476 4396.0118 3545.5781 4330.8809 3539.4443 Z" fill="none" stroke="#FBC20F" opacity="0.6" stroke-width="1" class="howard_beach"/>
<path d="M 4642.4648 3753.3578 4407.2534 3803.6276 4156.721 3532.7529 4390.6807 3474.3973 4487.0887 3525.8893 4622.3822 3564.382 4642.4648 3753.3578 Z" fill="none" stroke="#FBC20F" opacity="0.6" stroke-width="1" class="howard_beach"/>
<path d="M 4534.5439 3830.4524 4134.7875 3514.6251 5007.94 3431.7749 5279.8014 3629.4454 5094.6323 4038.7528 5089.9991 4038.7642 4534.5439 3830.4524 Z" fill="none" stroke="#FBC20F" opacity="0.6" stroke-width="1" class="howard_beach"/>
<path d="M 4628.8831 3749.9851 4361.2457 3799.3838 4333.8392 3473.7239 4579.389 3543.3988 4628.8831 3749.9851 Z" fill="none" stroke="#FBC20F" opacity="0.6" stroke-width="1" class="howard_beach"/>
<path d="M 4314.6481 3528.2145 4315.8957 3528.3933 4570.4822 3550.229 4628.835 3756.8784 4424.7921 3792.8939 4314.6481 3528.2145 Z" fill="none" stroke="#FBC20F" opacity="0.6" stroke-width="1" class="howard_beach"/>
<path d="M 4644.1022 3763.4278 4646.3343 3767.8528 4137.364 3886.1165 4116.5312 3830.7729 3996.9214 3613.1647 4170.8862 3500.7338 4362.7138 3462.0519 4469.4784 3506.147 4578.4618 3542.8471 4644.1022 3763.4278 Z" fill="none" stroke="#FBC20F" opacity="0.6" stroke-width="1" class="howard_beach"/>
<path d="M 4297.732 3480.2408 4360.6789 3463.5313 4451.4682 3481.8242 4603.4639 3540.5846 4638.8628 3643.8504 4648.3496 3756.4061 4550.2517 3808.2743 4500.2248 3808.3674 4400.1679 3806.7 4337.0332 3723.7547 4307.2458 3635.2226 4297.732 3480.2408 Z" fill="none" stroke="#FBC20F" opacity="0.6" stroke-width="1" class="howard_beach"/>
<path d="M 4325.7785 3639.8056 4406.246 3572.3159 4446.9607 3551.0244 4492.3044 3529.7232 4521.0287 3537.0509 4566.421 3542.501 4574.8006 3565.55 4582.2615 3592.2918 4598.0751 3627.3221 4593.5063 3659.625 4564.8198 3674.4434 4576.0148 3715.9452 4605.7688 3773.1004 4562.2548 3787.0263 4515.945 3792.6502 4472.4255 3804.7266 4420.5492 3806.6646 4391.765 3768.8786 4349.0509 3708.9706 4325.7785 3639.8056 Z" fill="none" stroke="#FBC20F" opacity="0.6" stroke-width="1" class="howard_beach"/>
<path d="M 4338.743 3637.9387 4375.7053 3586.2078 4435.8548 3555.6571 4509.8893 3523.2329 4574.7353 3531.4142 4597.0523 3577.5012 4598.1019 3641.1623 4566.6161 3644.9135 4582.6144 3775.9136 4505.7783 3805.5887 4409.4369 3809.4525 4388.9051 3721.8215 4346.295 3722.8165 4338.743 3637.9387 Z" fill="none" stroke="#FBC20F" opacity="0.6" stroke-width="1" class="howard_beach"/>
<path d="M 4635.3895 3761.0458 4590.9288 3763.9011 4327.9146 3811.4364 4299.8208 3626.0079 4295.1463 3599.2585 4309.9477 3588.1628 4325.6597 3567.8393 4304.2132 3479.3078 4370.869 3465.3591 4567.3612 3549.88 4585.0242 3583.9828 4635.3895 3761.0458 Z" fill="none" stroke="#FBC20F" opacity="0.6" stroke-width="1" class="howard_beach"/>
<path d="M 4573.3293 3764.8577 4301.4694 3500.5306 4412.7117 3562.1559 4462.9359 3679.2454 4572.3712 3748.2492 4559.3898 3741.8144 4573.3293 3764.8577 Z" fill="none" stroke="#FBC20F" opacity="0.6" stroke-width="1" class="howard_beach"/>
<path d="M 4483.0814 3550.9595 4523.2962 3760.338 4427.0082 3791.8878 4347.9762 3620.3926 4483.0814 3550.9595 Z" fill="none" stroke="#FBC20F" opacity="0.6" stroke-width="1" class="howard_beach"/>
<path d="M 4586.7895 3538.7717 4642.7914 3756.4171 4388.1371 3814.1035 4289.4313 3501.4726 4586.7895 3538.7717 Z" fill="none" stroke="#FBC20F" opacity="0.6" stroke-width="1" class="howard_beach"/>
<path d="M 4401.4619 3809.7755 4378.1485 3813.6915 4383.6834 3799.8394 4295.1653 3486.819 4576.453 3524.0404 4608.6084 3780.8207 4401.4619 3809.7755 Z" fill="none" stroke="#FBC20F" opacity="0.6" stroke-width="1" class="howard_beach"/>
<path d="M 4283.8508 3486.721 4324.5783 3473.7393 4408.877 3487.4344 4571.9744 3540.6453 4655.7661 3759.1596 4413.1877 3835.286 4283.8508 3486.721 Z" fill="none" stroke="#FBC20F" opacity="0.6" stroke-width="1" class="howard_beach"/>
<path d="M 4573.3769 3547.562 4576.1678 3554.0148 4578.4938 3559.546 4615.3045 3675.2687 4627.0376 3753.6799 4583.5142 3762.0697 4519.6189 3775.5712 4419.1353 3792.8245 4400.9107 3700.5776 4352.7546 3708.0416 4340.1278 3635.1684 4400.7024 3580.1678 4446.964 3552.8696 4479.3675 3545.892 4500.638 3528.7854 4573.3769 3547.562 Z" fill="none" stroke="#FBC20F" opacity="0.6" stroke-width="1" class="howard_beach"/>
<path d="M 4575.6985 3550.7866 4645.6329 3787.787 4362.2516 3846.4479 4297.9698 3626.9336 4283.8464 3483.9534 4373.6315 3456.1293 4575.6985 3550.7866 Z" fill="none" stroke="#FBC20F" opacity="0.6" stroke-width="1" class="howard_beach"/>
<path d="M 4423.4095 3814.31 4291.7015 3647.9089 4567.4684 3510.8751 4643.9465 3780.1513 4423.4095 3814.31 Z" fill="none" stroke="#FBC20F" opacity="0.6" stroke-width="1" class="howard_beach"/>
<path d="M 4344.3992 3696.9827 4294.2902 3642.6251 4236.582 3462.8101 4243.9185 3416.6743 4318.0486 3445.1523 4592.3785 3555.3676 4684.6317 3832.0054 4365.9778 3858.4392 4344.3992 3696.9827 Z" fill="none" stroke="#FBC20F" opacity="0.6" stroke-width="1" class="howard_beach"/>
<path d="M 4493.2126 3773.3128 4398.28 3786.4009 4253.372 3539.3553 4442.1908 3472.6154 4588.1318 3754.6785 4544.1479 3518.5562 4494.0841 3490.05 4472.7635 3479.0184 4493.2126 3773.3128 Z" fill="none" stroke="#FBC20F" opacity="0.6" stroke-width="1" class="howard_beach"/>
<path d="M 4577.5491 3549.8605 4590.5484 3566.9037 4602.1993 3604.709 4612.9103 3635.136 4627.7931 3666.9397 4625.5173 3687.2441 4637.6232 3719.5162 4629.8358 3763.3637 4606.2356 3774.9451 4568.7317 3782.8613 4532.6169 3790.7735 4496.9536 3792.6852 4465.4781 3805.2006 4435.8376 3808.0219 4404.3016 3786.3905 4399.1338 3744.4119 4376.405 3725.0726 4345.3587 3716.8201 4327.2662 3699.318 4311.9601 3685.9635 4307.294 3664.7487 4302.679 3674.906 4270.2456 3666.6538 4247.0812 3662.0768 4219.2418 3628.9033 4191.3778 3578.2002 4167.2214 3527.4935 4194.9765 3508.0781 4221.362 3502.0412 4245.4289 3494.1622 4289.409 3487.6345 4315.7917 3480.6727 4342.6395 3475.0931 4374.1393 3482.4202 4403.326 3490.6729 4438.5403 3503.0656 4468.2112 3522.3863 4488.5947 3526.9622 4512.6788 3529.2245 4548.8187 3539.7666 4577.5491 3549.8605 Z" fill="none" stroke="#FBC20F" opacity="0.6" stroke-width="1" class="howard_beach"/></svg>