<?xml version="1.0"?><svg xmlns="http://www.w3.org/2000/svg" version="1.2" baseProfile="tiny" width="6000" height="5918" viewBox="0 0 6000 5918" stroke-linecap="round" stroke-linejoin="round"><path d="M 3401.8424 907.2139 3465.4888 798.611 3472.4166 800.9057 3430.0152 912.2546 3401.8424 907.2139 Z" fill="none" stroke="#FBC20F" opacity="0.4291845493562232" stroke-width="1" class="hudson_heights"/>
<path d="M 3502.6596 799.7326 3499.2023 807.0947 3494.1343 821.5878 3489.5288 837.2306 3487.9199 846.6615 3482.154 854.7158 3482.1617 864.8356 3477.7824 874.7289 3474.3227 879.5615 3465.1077 907.169 3454.0402 928.3382 3446.6613 942.1445 3431.8841 943.0751 3414.3348 942.1673 3403.2452 932.9742 3424.468 904.2082 3412.2423 921.2374 3399.3214 935.277 3379.9196 926.0893 3395.8317 896.1776 3405.7454 874.5506 3421.6545 842.8001 3448.1772 803.4533 3456.946 797.6974 3465.2578 798.3812 3474.4941 800.4441 3491.3458 798.1315 3500.1161 794.675 3502.6596 799.7326 Z" fill="none" stroke="#FBC20F" opacity="0.4291845493562232" stroke-width="1" class="hudson_heights"/>
<path d="M 3521.3273 759.0118 3493.2154 827.5682 3472.4791 884.163 3464.1817 903.9496 3457.2744 930.636 3423.0921 917.7797 3398.6123 910.8962 3418.4292 852.9221 3473.3228 777.907 3498.196 700.6188 3503.7291 691.4162 3523.1316 706.1181 3543.9123 711.6202 3522.6918 733.2541 3521.3273 759.0118 Z" fill="none" stroke="#FBC20F" opacity="0.4291845493562232" stroke-width="1" class="hudson_heights"/>
<path d="M 3429.9015 914.7848 3418.5848 910.7676 3390.8736 905.3811 3396.9732 876.7415 3421.5278 826.5859 3443.5465 784.9432 3452.9974 765.0434 3460.7187 748.0198 3473.9732 721.7937 3490.2304 698.6703 3516.5615 717.3915 3491.5664 784.9074 3475.4157 797.9136 3445.5623 858.9978 3429.9015 914.7848 Z" fill="none" stroke="#FBC20F" opacity="0.4291845493562232" stroke-width="1" class="hudson_heights"/>
<path d="M 3547.1415 708.3981 3543.451 712.0805 3528.2229 721.7514 3518.0776 736.9373 3517.1696 756.2554 3504.7304 790.7617 3494.1126 793.5297 3489.0438 806.8726 3471.9542 799.9861 3457.1995 828.5153 3444.7478 850.1436 3437.843 880.5083 3428.633 916.8558 3422.6448 938.4812 3395.3952 933.8995 3358.9063 923.8026 3335.8122 916.9165 3339.5052 914.6142 3346.891 910.0095 3354.7386 905.4044 3371.3586 898.4937 3488.0293 688.209 3492.1852 689.1256 3502.3433 690.4975 3506.4988 690.9541 3513.8916 698.3069 3525.4397 705.6563 3534.2138 707.9488 3547.1415 708.3981 Z" fill="none" stroke="#FBC20F" opacity="0.4291845493562232" stroke-width="1" class="hudson_heights"/>
<path d="M 3395.8397 908.1379 3457.6413 801.3766 3471.4893 795.8467 3445.6693 847.383 3430.9397 913.634 3395.8397 908.1379 Z" fill="none" stroke="#FBC20F" opacity="0.4291845493562232" stroke-width="1" class="hudson_heights"/>
<path d="M 3388.4608 922.8635 3389.3759 909.9823 3417.9637 847.4026 3457.6305 786.6578 3513.047 797.6546 3436.4963 934.7912 3388.4608 922.8635 Z" fill="none" stroke="#FBC20F" opacity="0.4291845493562232" stroke-width="1" class="hudson_heights"/>
<path d="M 3392.0773 905.6784 3397.393 896.8507 3404.7697 879.3654 3409.3774 864.6423 3415.8346 853.598 3436.3491 819.7427 3457.3388 792.8194 3473.6404 798.7052 3494.8775 795.0093 3503.4003 798.3834 3490.5009 834.5898 3483.8195 852.9944 3478.6207 870.7486 3467.5608 901.1173 3456.5129 927.4844 3445.1955 922.8924 3436.8812 920.1382 3423.0237 915.0877 3411.7077 912.1054 3399.2393 912.1139 3392.0773 905.6784 Z" fill="none" stroke="#FBC20F" opacity="0.4291845493562232" stroke-width="1" class="hudson_heights"/>
<path d="M 3445.5402 828.4088 3457.2989 806.6665 3464.5647 797.6918 3469.2968 796.7683 3472.5294 797.3408 3472.9903 796.3056 3473.913 795.27 3475.2993 796.6488 3470.691 808.8414 3478.4278 812.2853 3476.2384 817.3467 3477.6246 818.7256 3475.5513 824.7068 3480.6321 826.7729 3484.6673 820.1001 3491.9255 801.4658 3494.9217 794.909 3503.6965 797.202 3481.8067 853.3361 3476.2807 873.465 3467.063 897.3923 3456.925 926.381 3449.072 923.1665 3440.2952 919.4927 3429.3247 915.3602 3413.7355 910.1959 3408.4248 909.9695 3401.8446 910.549 3396.9947 908.8272 3392.4893 904.46 3397.5637 896.5214 3405.5175 878.9208 3408.5143 872.0187 3412.316 860.4012 3417.6204 851.8877 3435.609 823.4711 3445.5402 828.4088 Z" fill="none" stroke="#FBC20F" opacity="0.4291845493562232" stroke-width="1" class="hudson_heights"/>
<path d="M 3404.1956 911.5484 3394.291 909.6267 3460.6869 797.2653 3472.529 797.7045 3477.7227 871.4993 3455.4833 927.6897 3404.1956 911.5484 Z" fill="none" stroke="#FBC20F" opacity="0.4291845493562232" stroke-width="1" class="hudson_heights"/>
<path d="M 3372.7579 920.1136 3441.9402 798.6282 3465.0223 792.1719 3513.9698 796.7339 3447.5876 945.8241 3372.7579 920.1136 Z" fill="none" stroke="#FBC20F" opacity="0.4291845493562232" stroke-width="1" class="hudson_heights"/>
<path d="M 3463.2013 827.1309 3447.5476 890.6214 3465.1002 897.0487 3442.0439 943.0679 3379.2195 914.5892 3490.8122 704.7638 3508.3629 713.0287 3489.0247 782.0347 3472.4121 794.9261 3463.2013 827.1309 Z" fill="none" stroke="#FBC20F" opacity="0.4291845493562232" stroke-width="1" class="hudson_heights"/>
<path d="M 3401.3977 932.5154 3364.4488 925.1792 3500.0334 688.6596 3537.9096 710.7053 3516.2422 751.1968 3444.3533 943.5262 3401.3977 932.5154 Z" fill="none" stroke="#FBC20F" opacity="0.4291845493562232" stroke-width="1" class="hudson_heights"/>
<path d="M 3429.326 917.3153 3408.0783 909.7397 3418.8956 859.5917 3444.2602 814.2654 3462.4843 794.2436 3473.3366 796.3053 3438.5629 918.6889 3439.0265 921.2186 3430.9428 918.0042 3429.326 917.3153 Z" fill="none" stroke="#FBC20F" opacity="0.4291845493562232" stroke-width="1" class="hudson_heights"/>
<path d="M 3381.0666 914.588 3442.8571 789.4283 3500.1277 809.6238 3434.6582 947.6735 3390.3117 928.3826 3381.0666 914.588 Z" fill="none" stroke="#FBC20F" opacity="0.4291845493562232" stroke-width="1" class="hudson_heights"/>
<path d="M 3454.0402 928.3382 3435.5845 951.3531 3428.2117 974.3605 3392.1815 962.424 3404.1289 874.0917 3448.4066 801.3833 3501.0376 792.1445 3454.0402 928.3382 Z" fill="none" stroke="#FBC20F" opacity="0.4291845493562232" stroke-width="1" class="hudson_heights"/>
<path d="M 3496.1911 794.448 3504.043 797.4317 3495.0569 820.4371 3484.2297 851.7242 3478.9332 869.898 3457.0414 927.646 3442.9688 944.9073 3379.9226 930.6896 3382.9131 913.4367 3396.0606 893.1873 3410.1227 860.5177 3434.5697 823.0119 3445.1941 828.754 3457.8739 803.6762 3467.8044 807.8086 3478.6574 810.5603 3474.5126 825.0526 3480.9787 827.1176 3496.1911 794.448 Z" fill="none" stroke="#FBC20F" opacity="0.4291845493562232" stroke-width="1" class="hudson_heights"/>
<path d="M 3385.2315 927.9259 3476.1046 793.0835 3470.1251 823.9059 3439.2734 943.5299 3385.2315 927.9259 Z" fill="none" stroke="#FBC20F" opacity="0.4291845493562232" stroke-width="1" class="hudson_heights"/>
<path d="M 3391.913 905.8405 3417.0425 850.8531 3451.4057 798.3914 3479.5823 812.3995 3444.079 883.2638 3445.2382 889.9331 3445.7052 897.0629 3444.0934 903.2743 3440.1802 920.0678 3438.5639 920.0689 3410.3883 911.3482 3403.231 912.0431 3391.913 905.8405 Z" fill="none" stroke="#FBC20F" opacity="0.4291845493562232" stroke-width="1" class="hudson_heights"/>
<path d="M 3411.7045 978.7425 3388.2615 970.7074 3346.3565 979.3601 3339.2972 952.3367 3335.3565 927.0373 3347.125 914.9545 3375.513 895.8459 3394.89 869.0379 3406.5357 848.3304 3417.5996 821.7588 3422.9045 814.2806 3488.3789 692.5779 3506.267 689.6896 3516.4327 700.6045 3521.7464 705.8893 3521.2955 719.3424 3516.452 724.8654 3516.3426 732.3393 3518.0812 741.4216 3519.8203 750.964 3517.6377 764.1891 3509.5745 785.5833 3505.1957 795.3609 3500.9346 808.1283 3496.9031 819.4008 3490.105 835.8502 3484.0006 854.0244 3479.7411 869.6674 3473.0571 885.3126 3467.2954 899.4622 3461.6524 918.2121 3457.8499 928.2204 3443.3154 945.2521 3435.5855 952.7332 3430.9818 973.2084 3427.2941 982.9871 3411.7045 978.7425 Z" fill="none" stroke="#FBC20F" opacity="0.4291845493562232" stroke-width="1" class="hudson_heights"/>
<path d="M 3397.2565 955.0599 3435.7441 851.07 3441.0787 885.106 3438.0716 877.2881 3413.8432 898.9254 3426.7873 918.9272 3415.9605 955.7372 3397.2565 955.0599 Z" fill="none" stroke="#FBC20F" opacity="0.4291845493562232" stroke-width="1" class="hudson_heights"/>
<path d="M 3404.5999 887.6615 3404.9297 863.3962 3416.6881 839.1237 3436.1775 811.2814 3448.9741 788.159 3467.5454 770.0921 3480.5722 747.775 3488.3069 749.1489 3493.735 752.9393 3506.564 773.8568 3505.6564 794.0957 3494.7091 818.4825 3489.2959 834.5859 3481.3438 851.9564 3476.74 870.2447 3472.1337 885.4283 3465.2211 904.4089 3458.7692 922.3544 3441.4486 917.8817 3424.4727 910.8785 3411.1944 908.2425 3401.1525 911.3545 3394.6857 908.8287 3391.4524 907.6808 3404.5999 887.6615 Z" fill="none" stroke="#FBC20F" opacity="0.4291845493562232" stroke-width="1" class="hudson_heights"/>
<path d="M 3456.8106 927.8761 3455.4249 927.4171 3414.0827 911.3457 3398.6125 911.1262 3391.4503 904.4607 3415.1964 852.2343 3435.0313 822.7816 3445.4242 827.6039 3460.4104 799.5347 3468.0268 796.5393 3475.1858 799.2937 3490.8904 806.4112 3493.6521 795.1399 3496.8834 793.9875 3504.043 797.4317 3456.8106 927.8761 Z" fill="none" stroke="#FBC20F" opacity="0.4291845493562232" stroke-width="1" class="hudson_heights"/>
<path d="M 3431.1711 914.3239 3429.7873 916.625 3431.4027 915.2438 3432.3284 918.2333 3429.5577 918.4652 3427.2481 917.5468 3427.0166 916.6269 3428.1694 914.326 3431.1711 914.3239 Z" fill="none" stroke="#FBC20F" opacity="0.4291845493562232" stroke-width="1" class="hudson_heights"/>
<path d="M 3466.0244 897.9681 3442.0446 943.9879 3397.7023 931.1378 3397.6875 909.0567 3422.5819 848.3193 3500.0352 690.9592 3520.3582 701.9811 3517.6262 749.8159 3466.0244 897.9681 Z" fill="none" stroke="#FBC20F" opacity="0.4291845493562232" stroke-width="1" class="hudson_heights"/>
<path d="M 3439.2796 952.2706 3355.6766 928.4049 3439.171 800.2401 3449.088 785.9741 3475.4158 798.1436 3503.5879 805.9414 3439.2796 952.2706 Z" fill="none" stroke="#FBC20F" opacity="0.4291845493562232" stroke-width="1" class="hudson_heights"/>
<path d="M 3392.0278 904.9204 3499.3429 691.1897 3533.0601 708.6396 3444.7857 902.6987 3439.9499 920.873 3425.3992 915.133 3410.5038 911.3481 3399.3054 911.4707 3392.0278 904.9204 Z" fill="none" stroke="#FBC20F" opacity="0.4291845493562232" stroke-width="1" class="hudson_heights"/>
<path d="M 3434.6239 899.3709 3422.6457 939.8613 3363.061 921.4999 3429.4869 817.9557 3459.2777 828.9737 3446.5942 849.2223 3434.6239 899.3709 Z" fill="none" stroke="#FBC20F" opacity="0.4291845493562232" stroke-width="1" class="hudson_heights"/>
<path d="M 3449.7911 800.4624 3459.4827 793.7858 3469.4163 802.2878 3441.1203 943.0685 3461.4096 902.1116 3481.9198 850.346 3486.9862 833.3227 3478.9027 829.649 3468.7424 827.3568 3495.0373 795.1389 3500.1275 809.3939 3437.3912 894.5388 3420.7977 938.7125 3380.1523 928.8493 3399.5207 888.3549 3413.3546 859.8255 3419.8117 848.7812 3423.7325 842.7987 3435.0277 817.7218 3449.7911 800.4624 Z" fill="none" stroke="#FBC20F" opacity="0.4291845493562232" stroke-width="1" class="hudson_heights"/>
<path d="M 3475.186 799.5237 3504.7314 792.1416 3490.9063 827.11 3478.4655 862.0785 3466.4835 894.2876 3458.1879 916.8345 3454.9614 925.1173 3430.94 914.0941 3403.6889 906.2926 3392.1414 902.1602 3416.1204 852.9237 3456.2497 792.6383 3477.9516 793.0821 3475.186 799.5237 Z" fill="none" stroke="#FBC20F" opacity="0.4291845493562232" stroke-width="1" class="hudson_heights"/>
<path d="M 3390.7577 904.6912 3397.6789 896.1763 3403.4529 898.7025 3405.5289 895.711 3407.833 888.5793 3409.2152 883.9783 3410.3632 874.5475 3411.7445 868.7965 3417.9715 858.6723 3425.8126 846.0171 3432.742 850.1521 3444.7332 829.9043 3447.5002 825.0725 3450.9585 818.4003 3453.9541 810.5786 3459.72 802.525 3463.4107 798.1526 3467.103 796.08 3470.1048 796.7677 3473.338 798.1452 3469.1899 808.2675 3458.1227 828.0546 3445.9024 850.3727 3433.9313 899.3714 3422.8757 938.4811 3421.9529 939.6318 3413.4074 936.6475 3404.6317 934.5834 3400.9365 933.4358 3400.9348 930.9056 3401.6264 929.2951 3401.393 925.615 3400.0059 923.0858 3398.8497 920.5565 3394.46 916.6492 3397.9198 911.1267 3395.8416 910.898 3393.7624 909.2894 3390.297 906.3016 3390.7577 904.6912 Z" fill="none" stroke="#FBC20F" opacity="0.4291845493562232" stroke-width="1" class="hudson_heights"/>
<path d="M 3435.5845 951.3531 3374.151 932.0734 3506.9406 665.659 3547.6055 711.1573 3519.9201 731.4166 3516.7123 761.7751 3479.8522 863.9174 3462.341 912.6913 3455.4262 929.2572 3435.5845 951.3531 Z" fill="none" stroke="#FBC20F" opacity="0.4291845493562232" stroke-width="1" class="hudson_heights"/>
<path d="M 3445.6547 827.1437 3465.9765 833.5686 3437.4107 921.9098 3392.1423 903.5402 3439.183 817.0289 3445.6547 827.1437 Z" fill="none" stroke="#FBC20F" opacity="0.4291845493562232" stroke-width="1" class="hudson_heights"/>
<path d="M 3490.4269 804.1117 3448.0337 924.2023 3384.2928 904.9255 3441.0082 786.6699 3490.4269 804.1117 Z" fill="none" stroke="#FBC20F" opacity="0.4291845493562232" stroke-width="1" class="hudson_heights"/>
<path d="M 3392.7625 905.7847 3388.4494 905.7784 3454.865 793.504 3496.1211 799.5997 3451.8837 922.3042 3392.7625 905.7847 Z" fill="none" stroke="#FBC20F" opacity="0.4291845493562232" stroke-width="1" class="hudson_heights"/>
<path d="M 3456.8106 927.8761 3375.5123 894.8109 3492.6483 690.9649 3496.3417 690.9621 3538.3728 712.5446 3456.8106 927.8761 Z" fill="none" stroke="#FBC20F" opacity="0.4291845493562232" stroke-width="1" class="hudson_heights"/>
<path d="M 3364.4523 930.6995 3494.3953 694.0045 3515.6373 699.5068 3535.0323 704.5503 3538.2732 715.5857 3521.2015 729.3974 3517.9876 751.9368 3515.252 771.7305 3504.1897 796.117 3498.205 819.1201 3488.9898 844.8861 3481.2378 864.3763 3478.018 880.9388 3467.8743 901.6468 3460.4986 919.133 3453.1223 936.1594 3443.4316 946.2871 3430.5006 945.8363 3417.1066 943.5455 3398.6318 939.8778 3379.2305 931.6101 3364.4523 930.6995 Z" fill="none" stroke="#FBC20F" opacity="0.4291845493562232" stroke-width="1" class="hudson_heights"/>
<path d="M 3502.657 796.5128 3456.1167 926.2666 3456.1166 926.0365 3395.6068 905.148 3456.4755 785.7387 3502.657 796.5128 Z" fill="none" stroke="#FBC20F" opacity="0.4291845493562232" stroke-width="1" class="hudson_heights"/>
<path d="M 3428.169 913.636 3382.9072 904.4664 3477.9043 730.5294 3495.4547 737.8749 3428.169 913.636 Z" fill="none" stroke="#FBC20F" opacity="0.4291845493562232" stroke-width="1" class="hudson_heights"/>
<path d="M 3343.1973 910.9318 3350.5871 912.7673 3361.6637 902.64 3429.0194 809.6766 3469.6699 832.6458 3423.5671 936.6405 3343.1973 910.9318 Z" fill="none" stroke="#FBC20F" opacity="0.4291845493562232" stroke-width="1" class="hudson_heights"/>
<path d="M 3395.1457 906.0683 3445.4537 868.5428 3433.6844 876.8312 3418.9151 887.6517 3404.376 898.0119 3397.6829 902.1565 3391.6801 902.8505 3447.2565 807.3637 3455.5628 800.4582 3501.9657 798.1232 3457.2694 923.7356 3395.1457 906.0683 Z" fill="none" stroke="#FBC20F" opacity="0.4291845493562232" stroke-width="1" class="hudson_heights"/>
<path d="M 3480.6864 746.1651 3512.0842 747.9805 3441.5818 942.6082 3386.1448 912.2845 3480.6864 746.1651 Z" fill="none" stroke="#FBC20F" opacity="0.4291845493562232" stroke-width="1" class="hudson_heights"/>
<path d="M 3456.3495 928.7965 3379.6693 896.1882 3408.2635 842.8094 3441.2372 784.1399 3472.8759 797.6856 3486.7231 791.2356 3504.0426 796.9717 3485.3797 845.9735 3474.5564 883.2414 3456.3495 928.7965 Z" fill="none" stroke="#FBC20F" opacity="0.4291845493562232" stroke-width="1" class="hudson_heights"/>
<path d="M 3455.791 796.7783 3472.4142 797.6859 3490.8879 803.1914 3488.1316 821.5924 3468.734 816.0874 3463.1944 817.9314 3446.5742 821.6233 3455.791 796.7783 Z" fill="none" stroke="#FBC20F" opacity="0.4291845493562232" stroke-width="1" class="hudson_heights"/>
<path d="M 3469.4126 797.2282 3477.2673 804.1218 3443.6387 913.165 3442.944 910.4053 3443.4091 915.0052 3437.8686 916.3892 3429.7826 909.9547 3412.2303 903.7567 3415.6975 909.2745 3408.9994 906.059 3408.3021 899.3892 3411.7553 884.4366 3417.9764 865.8022 3420.2811 859.8207 3421.8875 845.7899 3431.5833 844.1731 3442.4301 837.7256 3447.036 821.623 3450.9572 816.5605 3462.7196 800.2229 3469.4126 797.2282 Z" fill="none" stroke="#FBC20F" opacity="0.4291845493562232" stroke-width="1" class="hudson_heights"/>
<path d="M 3474.0298 796.9947 3429.0948 916.8555 3389.8337 904.0018 3425.8046 834.5175 3447.0225 802.9942 3459.9424 791.0257 3465.4859 794.7013 3474.0298 796.9947 Z" fill="none" stroke="#FBC20F" opacity="0.4291845493562232" stroke-width="1" class="hudson_heights"/>
<path d="M 3475.416 798.3736 3476.1719 799.82 3447.1476 847.986 3435.262 899.5097 3419.5948 940.2422 3377.0365 930.9214 3377.5432 910.7199 3401.9995 883.103 3455.8379 792.7437 3464.7949 796.7717 3475.416 798.3736 Z" fill="none" stroke="#FBC20F" opacity="0.4291845493562232" stroke-width="1" class="hudson_heights"/>
<path d="M 3442.7368 943.2974 3375.3036 929.0825 3378.9871 912.2892 3393.7522 893.8789 3411.966 854.9965 3417.2794 859.5928 3439.6506 825.3081 3445.1928 826.9141 3457.8732 802.7563 3467.5634 794.2398 3474.7217 796.0743 3495.7289 793.7584 3504.2729 796.2816 3456.1183 928.3367 3442.7368 943.2974 Z" fill="none" stroke="#FBC20F" opacity="0.4291845493562232" stroke-width="1" class="hudson_heights"/>
<path d="M 3543.4503 711.1607 3425.4446 979.8831 3373.7082 961.516 3500.0338 689.1195 3543.4503 711.1607 Z" fill="none" stroke="#FBC20F" opacity="0.4291845493562232" stroke-width="1" class="hudson_heights"/>
<path d="M 3540.6831 714.8424 3405.1305 989.0982 3353.3842 955.0883 3498.1806 680.8426 3540.6831 714.8424 Z" fill="none" stroke="#FBC20F" opacity="0.4291845493562232" stroke-width="1" class="hudson_heights"/>
<path d="M 3498.1878 690.0408 3519.4583 731.417 3443.8792 926.5055 3381.983 903.5469 3498.1878 690.0408 Z" fill="none" stroke="#FBC20F" opacity="0.4291845493562232" stroke-width="1" class="hudson_heights"/>
<path d="M 3506.5842 799.4995 3445.743 949.5057 3394.0097 933.9005 3412.4408 874.086 3429.0479 850.1547 3468.7162 792.1691 3506.5842 799.4995 Z" fill="none" stroke="#FBC20F" opacity="0.4291845493562232" stroke-width="1" class="hudson_heights"/>
<path d="M 3519.0161 755.794 3489.5311 840.2205 3457.5035 928.1056 3430.9439 919.6143 3401.847 914.1141 3379.6708 898.4883 3441.9277 781.1497 3488.0298 688.8989 3504.1902 690.726 3521.5146 704.7397 3549.9117 708.3958 3523.3828 731.4138 3519.0161 755.794 Z" fill="none" stroke="#FBC20F" opacity="0.4291845493562232" stroke-width="1" class="hudson_heights"/>
<path d="M 3394.2216 905.3789 3447.9383 792.4144 3499.8906 801.5746 3456.8083 924.656 3394.2216 905.3789 Z" fill="none" stroke="#FBC20F" opacity="0.4291845493562232" stroke-width="1" class="hudson_heights"/>
<path d="M 3455.7634 759.0621 3505.647 782.0218 3451.274 934.7806 3388.4529 910.903 3455.7634 759.0621 Z" fill="none" stroke="#FBC20F" opacity="0.4291845493562232" stroke-width="1" class="hudson_heights"/>
<path d="M 3457.7346 928.3355 3392.1454 908.1404 3456.7158 798.6175 3480.731 805.0391 3466.0265 900.7281 3457.7346 928.3355 Z" fill="none" stroke="#FBC20F" opacity="0.4291845493562232" stroke-width="1" class="hudson_heights"/>
<path d="M 3504.0435 798.1216 3457.2723 927.6458 3408.7713 910.1993 3426.287 863.9565 3418.4334 858.902 3424.427 845.5581 3464.7947 796.5417 3474.7232 798.1441 3495.4992 795.3685 3504.0435 798.1216 Z" fill="none" stroke="#FBC20F" opacity="0.4291845493562232" stroke-width="1" class="hudson_heights"/>
<path d="M 3475.1836 796.3039 3422.6335 922.3803 3387.5266 906.7634 3384.2947 907.6856 3446.0906 791.2658 3475.1836 796.3039 Z" fill="none" stroke="#FBC20F" opacity="0.4291845493562232" stroke-width="1" class="hudson_heights"/>
<path d="M 3422.6255 910.8797 3401.845 911.124 3389.3715 903.3121 3415.8927 857.5238 3423.5048 847.3987 3432.741 848.7722 3462.2555 797.0035 3477.0323 798.6024 3422.6255 910.8797 Z" fill="none" stroke="#FBC20F" opacity="0.4291845493562232" stroke-width="1" class="hudson_heights"/>
<path d="M 3500.9586 690.9585 3542.5254 709.3218 3536.0759 726.8042 3460.5026 924.6532 3391.2182 902.6208 3500.9586 690.9585 Z" fill="none" stroke="#FBC20F" opacity="0.4291845493562232" stroke-width="1" class="hudson_heights"/>
<path d="M 3410.2708 908.3582 3416.2605 888.5735 3413.3746 888.9205 3414.4066 878.7997 3419.3682 875.1162 3423.9804 867.178 3422.2444 860.9693 3419.2408 857.9814 3421.5457 852.3449 3424.4293 848.778 3427.0822 845.6712 3430.4321 848.6588 3431.4726 850.843 3434.7025 847.3908 3437.008 842.7893 3439.314 838.8778 3441.2748 836.4615 3442.3112 833.0109 3446.464 828.8681 3449.117 825.9913 3452.3437 818.3993 3454.7647 814.0278 3451.6477 813.6851 3454.7607 808.5082 3457.5276 803.6765 3464.9113 798.1515 3468.9492 795.0437 3474.0287 795.6149 3473.8005 799.1797 3471.9557 802.0559 3468.8443 809.1877 3467.3467 813.3286 3463.657 819.081 3461.2368 824.3725 3459.3929 828.6286 3463.6584 820.9209 3456.2811 835.5306 3448.2077 845.5412 3446.4787 849.2223 3444.6371 856.8135 3465.056 837.5941 3460.4456 847.2572 3457.6753 847.6042 3454.4473 853.5864 3448.5653 861.1806 3448.2313 878.2008 3445.5839 889.0128 3439.5881 899.2524 3434.3932 899.6011 3432.2043 906.0428 3431.2874 915.4739 3442.7166 915.2357 3436.1393 919.8406 3433.2521 918.4626 3424.9384 916.5134 3416.1602 910.5392 3408.6558 910.1994 3410.2708 908.3582 Z" fill="none" stroke="#FBC20F" opacity="0.4291845493562232" stroke-width="1" class="hudson_heights"/>
<path d="M 3377.3016 932.398 3443.8974 791.3852 3475.2974 794.1218 3424.6146 948.7184 3377.3016 932.398 Z" fill="none" stroke="#FBC20F" opacity="0.4291845493562232" stroke-width="1" class="hudson_heights"/>
<path d="M 3418.4311 855.682 3427.1963 843.7162 3431.3472 836.8135 3436.422 830.3702 3444.7305 826.2244 3458.1068 806.4359 3466.8734 797.69 3476.5702 798.1427 3495.0364 793.989 3506.1184 794.4403 3457.2721 927.4158 3410.6199 912.2681 3397.2263 909.9771 3418.4311 855.682 Z" fill="none" stroke="#FBC20F" opacity="0.4291845493562232" stroke-width="1" class="hudson_heights"/>
<path d="M 3378.2857 898.9492 3447.4704 783.9055 3497.3551 806.8662 3459.5831 930.1742 3400.4595 910.8949 3378.2857 898.9492 Z" fill="none" stroke="#FBC20F" opacity="0.4291845493562232" stroke-width="1" class="hudson_heights"/>
<path d="M 3456.1169 926.4966 3390.9894 905.8411 3508.79 669.1067 3548.7578 708.8567 3530.0701 722.2098 3518.5408 738.7766 3519.4782 756.2536 3512.1086 778.797 3503.1206 798.8123 3476.8566 871.7396 3456.1169 926.4966 Z" fill="none" stroke="#FBC20F" opacity="0.4291845493562232" stroke-width="1" class="hudson_heights"/>
<path d="M 3383.8483 931.147 3456.7124 794.0178 3482.5682 792.1587 3501.9646 796.7433 3459.575 919.1336 3443.8911 943.0665 3383.8483 931.147 Z" fill="none" stroke="#FBC20F" opacity="0.4291845493562232" stroke-width="1" class="hudson_heights"/>
<path d="M 3512.0201 667.0346 3549.9109 707.476 3518.5327 728.6581 3518.5548 756.2543 3454.9792 949.499 3370.9143 925.6351 3512.0201 667.0346 Z" fill="none" stroke="#FBC20F" opacity="0.4291845493562232" stroke-width="1" class="hudson_heights"/>
<path d="M 3391.4504 904.6907 3454.3994 788.0401 3480.723 794.4599 3479.5746 802.2802 3469.668 830.116 3453.5359 870.1469 3450.0876 890.8496 3457.249 895.9045 3447.8025 923.7425 3412.6973 911.3466 3397.6887 910.8968 3391.4504 904.6907 Z" fill="none" stroke="#FBC20F" opacity="0.4291845493562232" stroke-width="1" class="hudson_heights"/>
<path d="M 3502.3436 690.9574 3546.2193 709.7786 3519.4572 730.0372 3518.0938 757.1746 3457.7346 928.3355 3389.3734 906.3022 3502.3436 690.9574 Z" fill="none" stroke="#FBC20F" opacity="0.4291845493562232" stroke-width="1" class="hudson_heights"/>
<path d="M 3363.5897 1026.8508 3453.9447 797.6996 3538.0102 833.5123 3405.1923 1080.1936 3358.0475 1026.8543 3363.5897 1026.8508 Z" fill="none" stroke="#FBC20F" opacity="0.4291845493562232" stroke-width="1" class="hudson_heights"/>
<path d="M 3473.7991 797.2249 3504.73 790.3017 3457.2728 928.3358 3437.433 953.192 3384.7767 938.5069 3409.6545 851.0882 3452.0911 788.5017 3473.7991 797.2249 Z" fill="none" stroke="#FBC20F" opacity="0.4291845493562232" stroke-width="1" class="hudson_heights"/>
<path d="M 3429.788 917.545 3413.6207 911.116 3409.2332 910.429 3402.5379 911.3536 3396.0715 909.5178 3391.9114 903.5404 3404.3626 878.2316 3411.2763 859.3669 3426.9593 834.9767 3442.1797 810.5872 3449.3285 799.3128 3459.0189 791.0264 3463.8598 781.1337 3465.697 768.0237 3479.7567 737.887 3484.8214 719.4859 3494.962 697.8618 3508.8177 704.2898 3514.8249 710.724 3509.294 722.6864 3500.5303 733.7316 3492.6905 745.696 3489.9231 749.3776 3492.2419 762.7142 3490.4103 782.4936 3482.1068 792.619 3475.646 797.2235 3466.4229 812.8693 3452.587 835.4183 3445.672 851.0629 3439.2237 874.0673 3429.788 917.545 Z" fill="none" stroke="#FBC20F" opacity="0.4291845493562232" stroke-width="1" class="hudson_heights"/>
<path d="M 3474.9529 796.5341 3503.9278 797.7767 3458.4254 925.8048 3456.8091 925.806 3384.5183 896.6451 3386.4803 895.7238 3474.9529 796.5341 Z" fill="none" stroke="#FBC20F" opacity="0.4291845493562232" stroke-width="1" class="hudson_heights"/>
<path d="M 3379.2326 934.8303 3436.5104 954.5727 3416.722 1055.3406 3371.4491 1039.2679 3379.2326 934.8303 Z" fill="none" stroke="#FBC20F" opacity="0.4291845493562232" stroke-width="1" class="hudson_heights"/>
<path d="M 3402.3042 907.2136 3391.6604 873.1801 3497.2583 682.2231 3544.8342 709.7798 3459.1142 920.514 3402.3042 907.2136 Z" fill="none" stroke="#FBC20F" opacity="0.4291845493562232" stroke-width="1" class="hudson_heights"/>
<path d="M 3476.5684 795.8429 3474.6078 798.1442 3474.3774 798.8343 3473.454 798.835 3475.7608 796.4185 3445.0974 854.7432 3416.5411 960.5673 3412.9672 968.1605 3412.2743 967.9309 3350.7309 958.5402 3347.3821 957.3922 3347.1454 948.0766 3358.2172 929.4384 3417.2776 856.9478 3458.6732 791.8316 3476.5684 795.8429 Z" fill="none" stroke="#FBC20F" opacity="0.4291845493562232" stroke-width="1" class="hudson_heights"/>
<path d="M 3477.0305 796.3025 3472.6516 806.4251 3470.3488 814.2463 3459.9683 826.2133 3452.8224 841.6279 3445.9045 853.3627 3438.0762 883.7281 3441.9955 875.6753 3444.0646 863.2538 3447.7638 870.2661 3440.2737 889.3617 3440.0445 891.7769 3434.2813 904.5463 3431.4044 917.7739 3427.9395 915.7062 3424.0135 914.5589 3413.8515 910.8858 3410.1564 909.8533 3410.8469 906.6327 3405.3029 902.9564 3415.4543 891.3341 3415.4506 886.044 3421.9077 874.7695 3423.5191 867.8684 3425.8245 863.0368 3420.0496 858.9009 3428.3533 847.3953 3433.6647 849.0015 3434.1284 851.7611 3437.3561 845.319 3441.5064 837.4963 3442.7743 834.8505 3442.8801 821.396 3445.1935 827.834 3449.1153 823.6914 3452.8046 817.2491 3455.5697 809.8875 3459.9504 801.8349 3464.3353 799.7618 3467.796 796.5394 3473.3363 795.8454 3477.0305 796.3025 Z" fill="none" stroke="#FBC20F" opacity="0.4291845493562232" stroke-width="1" class="hudson_heights"/>
<path d="M 3458.6568 926.4947 3395.8391 907.2179 3481.6126 749.8439 3522.2529 761.7707 3458.6568 926.4947 Z" fill="none" stroke="#FBC20F" opacity="0.4291845493562232" stroke-width="1" class="hudson_heights"/>
<path d="M 3401.8607 934.3552 3415.447 880.754 3454.8771 809.888 3474.2611 797.6845 3444.287 851.5239 3429.0951 917.3155 3419.8742 938.9432 3401.8607 934.3552 Z" fill="none" stroke="#FBC20F" opacity="0.4291845493562232" stroke-width="1" class="hudson_heights"/>
<path d="M 3475.1839 796.7639 3430.0174 915.4748 3390.2952 903.5415 3455.3272 794.0189 3475.1839 796.7639 Z" fill="none" stroke="#FBC20F" opacity="0.4291845493562232" stroke-width="1" class="hudson_heights"/>
<path d="M 3379.4587 927.4697 3377.6118 927.9309 3431.8012 825.7737 3446.8068 823.9231 3479.3671 833.0985 3440.8879 940.9985 3379.4587 927.4697 Z" fill="none" stroke="#FBC20F" opacity="0.4291845493562232" stroke-width="1" class="hudson_heights"/>
<path d="M 3442.8587 791.7281 3473.337 796.7653 3424.2625 940.5503 3361.4437 919.8908 3442.8587 791.7281 Z" fill="none" stroke="#FBC20F" opacity="0.4291845493562232" stroke-width="1" class="hudson_heights"/>
<path d="M 3504.6412 677.1583 3543.4556 717.5996 3442.0459 945.8281 3384.7652 921.0258 3504.6412 677.1583 Z" fill="none" stroke="#FBC20F" opacity="0.4291845493562232" stroke-width="1" class="hudson_heights"/>
<path d="M 3395.377 906.7582 3444.0247 807.826 3456.7131 794.9378 3463.4119 799.7625 3450.9613 822.3101 3438.0466 842.3286 3431.1305 856.8231 3425.8283 868.3268 3419.1409 880.2914 3414.9945 894.3245 3412.4623 905.3666 3408.5423 912.9595 3399.0746 911.5859 3395.377 906.7582 Z" fill="none" stroke="#FBC20F" opacity="0.4291845493562232" stroke-width="1" class="hudson_heights"/>
<path d="M 3397.6881 909.9768 3447.4691 782.0656 3501.9617 793.0637 3457.7346 928.3355 3397.6881 909.9768 Z" fill="none" stroke="#FBC20F" opacity="0.4291845493562232" stroke-width="1" class="hudson_heights"/>
<path d="M 3405.4321 923.1972 3395.6145 916.6484 3396.0686 905.1477 3417.9702 856.8323 3426.5045 844.8667 3456.0236 799.0779 3477.2708 808.7214 3437.1866 931.3405 3425.5244 928.9336 3405.4321 923.1972 Z" fill="none" stroke="#FBC20F" opacity="0.4291845493562232" stroke-width="1" class="hudson_heights"/>
<path d="M 3400.4651 919.1753 3384.7616 915.5056 3443.7905 803.2265 3461.3278 791.2547 3483.4938 794.9178 3426.3179 908.1171 3400.4651 919.1753 Z" fill="none" stroke="#FBC20F" opacity="0.4291845493562232" stroke-width="1" class="hudson_heights"/>
<path d="M 3502.657 796.5128 3477.7784 869.4389 3457.9646 927.1852 3389.6019 902.6219 3387.9859 903.083 3493.8101 700.8522 3514.3553 700.8361 3502.657 796.5128 Z" fill="none" stroke="#FBC20F" opacity="0.4291845493562232" stroke-width="1" class="hudson_heights"/>
<path d="M 3497.2615 686.3622 3534.2156 710.2484 3459.5797 925.574 3379.2135 905.3888 3497.2615 686.3622 Z" fill="none" stroke="#FBC20F" opacity="0.4291845493562232" stroke-width="1" class="hudson_heights"/>
<path d="M 3495.417 689.1231 3533.2975 716.6881 3403.2875 995.5402 3333.0689 962.4614 3495.417 689.1231 Z" fill="none" stroke="#FBC20F" opacity="0.4291845493562232" stroke-width="1" class="hudson_heights"/>
<path d="M 3418.4311 855.682 3442.874 812.8865 3461.3301 794.4744 3478.3764 744.3271 3488.9777 720.8625 3498.6537 695.5594 3510.1959 695.5503 3530.5183 705.6522 3526.3765 722.2128 3517.6244 747.5162 3515.7966 771.4348 3493.2172 829.8681 3468.3347 899.8064 3442.5047 941.6874 3400.4768 936.6563 3401.3849 913.6544 3396.2947 898.0173 3418.4311 855.682 Z" fill="none" stroke="#FBC20F" opacity="0.4291845493562232" stroke-width="1" class="hudson_heights"/>
<path d="M 3411.5362 901.6871 3396.7535 893.4169 3405.9785 877.7705 3464.0934 784.8132 3517.6526 782.9322 3466.0381 916.3687 3411.5362 901.6871 Z" fill="none" stroke="#FBC20F" opacity="0.4291845493562232" stroke-width="1" class="hudson_heights"/>
<path d="M 3503.3495 796.2823 3424.0771 1005.6473 3383.4208 983.592 3448.857 785.7443 3462.2488 788.0343 3503.3495 796.2823 Z" fill="none" stroke="#FBC20F" opacity="0.4291845493562232" stroke-width="1" class="hudson_heights"/>
<path d="M 3500.0309 685.4403 3547.1514 720.3561 3443.8805 928.3456 3389.3753 909.0623 3500.0309 685.4403 Z" fill="none" stroke="#FBC20F" opacity="0.4291845493562232" stroke-width="1" class="hudson_heights"/>
<path d="M 3376.457 927.4716 3456.6983 774.6997 3472.4156 799.5258 3421.7192 935.7217 3376.457 927.4716 Z" fill="none" stroke="#FBC20F" opacity="0.4291845493562232" stroke-width="1" class="hudson_heights"/>
<path d="M 3445.7277 928.3442 3342.2827 925.653 3419.8816 949.524 3368.1211 890.6756 3469.5606 686.3833 3532.3778 721.2881 3445.7277 928.3442 Z" fill="none" stroke="#FBC20F" opacity="0.4291845493562232" stroke-width="1" class="hudson_heights"/>
<path d="M 3396.0552 912.738 3454.9294 780.3584 3476.9585 798.7404 3465.6234 830.5973 3435.1362 918.3693 3396.0552 912.738 Z" fill="none" stroke="#FBC20F" opacity="0.4291845493562232" stroke-width="1" class="hudson_heights"/>
<path d="M 3394.6854 908.3687 3394.2179 899.8587 3418.1961 849.7023 3446.096 798.8552 3496.804 691.6516 3546.6825 711.6179 3456.3483 927.1864 3394.6854 908.3687 Z" fill="none" stroke="#FBC20F" opacity="0.4291845493562232" stroke-width="1" class="hudson_heights"/>
<path d="M 3460.3989 783.896 3466.8686 791.2506 3472.4149 798.6058 3469.6548 812.4069 3464.1282 831.73 3466.9055 840.9276 3456.7516 847.3749 3460.4572 863.0119 3467.8503 869.4464 3464.1664 883.2492 3459.556 893.3727 3456.7907 900.735 3445.7244 923.744 3418.9305 909.9623 3401.3818 909.0542 3387.5214 898.9432 3460.3989 783.896 Z" fill="none" stroke="#FBC20F" opacity="0.4291845493562232" stroke-width="1" class="hudson_heights"/>
<path d="M 3456.3484 927.3014 3429.6719 916.6251 3421.8368 938.8268 3401.1675 933.5506 3407.5022 911.4652 3387.7582 907.9133 3459.3647 790.3362 3474.3757 796.5345 3503.9257 795.1319 3459.116 922.9292 3456.3484 927.3014 Z" fill="none" stroke="#FBC20F" opacity="0.4291845493562232" stroke-width="1" class="hudson_heights"/>
<path d="M 3376.4388 899.4104 3488.9615 699.7061 3529.14 713.9319 3444.3374 921.4448 3376.4388 899.4104 Z" fill="none" stroke="#FBC20F" opacity="0.4291845493562232" stroke-width="1" class="hudson_heights"/>
<path d="M 3402.0915 934.2401 3400.2293 911.9301 3391.566 904.9207 3421.7705 843.605 3446.3638 849.9124 3429.672 916.7401 3422.7611 939.7463 3402.0915 934.2401 Z" fill="none" stroke="#FBC20F" opacity="0.4291845493562232" stroke-width="1" class="hudson_heights"/>
<path d="M 3394.0048 926.54 3386.1345 896.644 3500.4998 694.6381 3526.8404 724.972 3446.2008 943.9849 3394.0048 926.54 Z" fill="none" stroke="#FBC20F" opacity="0.4291845493562232" stroke-width="1" class="hudson_heights"/>
<path d="M 3456.5789 926.7262 3442.7369 943.5274 3380.2687 930.2293 3375.7654 929.0822 3393.8667 892.4988 3446.7783 784.5959 3484.0013 703.6192 3499.2371 703.6075 3511.8275 715.3256 3492.5829 755.8148 3503.2356 798.2372 3495.6144 795.0234 3486.1663 817.9141 3457.367 899.4695 3446.9938 922.938 3456.5789 926.7262 Z" fill="none" stroke="#FBC20F" opacity="0.4291845493562232" stroke-width="1" class="hudson_heights"/>
<path d="M 3401.3843 912.7344 3392.1332 889.7399 3402.2812 873.1729 3425.348 841.8776 3444.7186 809.6654 3466.8699 793.0904 3490.8787 791.2324 3476.131 828.0412 3454.9254 875.8959 3430.0155 912.7146 3412.4812 932.9679 3390.3092 924.7024 3401.3843 912.7344 Z" fill="none" stroke="#FBC20F" opacity="0.4291845493562232" stroke-width="1" class="hudson_heights"/>
<path d="M 3473.961 795.8302 3465.7151 898.7154 3456.4986 924.9432 3429.698 913.6915 3418.613 910.9391 3409.3763 909.5654 3395.9846 910.0345 3392.7576 918.317 3382.2544 918.9151 3388.7095 903.7302 3395.4836 892.8726 3413.4666 854.2204 3435.6543 820.2365 3447.2013 824.828 3463.3407 795.3781 3473.961 795.8302 Z" fill="none" stroke="#FBC20F" opacity="0.4291845493562232" stroke-width="1" class="hudson_heights"/>
<path d="M 3347.169 1173.5212 3320.2509 1154.3265 3307.3121 1145.1314 3355.7233 1002.9322 3357.7551 929.0936 3364.2152 921.0391 3416.3411 838.204 3492.1866 690.9653 3507.4215 690.0336 3520.1297 704.9707 3544.8352 710.9296 3523.8412 727.2741 3517.8495 740.387 3518.3271 760.164 3510.7203 774.8885 3485.726 845.9732 3478.9337 870.588 3457.3881 928.2207 3435.5846 951.5831 3424.3027 998.0561 3419.0245 1045.4472 3411.6406 1053.9639 3388.9232 1098.3787 3347.6305 1172.7156 3347.169 1173.5212 Z" fill="none" stroke="#FBC20F" opacity="0.4291845493562232" stroke-width="1" class="hudson_heights"/>
<path d="M 3430.0181 916.3948 3403.2284 908.133 3390.294 901.7014 3452.0924 790.3415 3476.1081 797.6831 3444.7484 851.0635 3430.0181 916.3948 Z" fill="none" stroke="#FBC20F" opacity="0.4291845493562232" stroke-width="1" class="hudson_heights"/>
<path d="M 3375.3992 898.3761 3482.6143 701.0907 3526.6091 724.3973 3457.3872 926.9557 3375.3992 898.3761 Z" fill="none" stroke="#FBC20F" opacity="0.4291845493562232" stroke-width="1" class="hudson_heights"/>
<path d="M 3443.4267 939.3866 3382.4588 924.9376 3473.9903 744.5604 3515.3275 762.2362 3481.6956 859.086 3443.4267 939.3866 Z" fill="none" stroke="#FBC20F" opacity="0.4291845493562232" stroke-width="1" class="hudson_heights"/>
<path d="M 3407.848 910.6599 3395.6104 910.4382 3387.9855 902.393 3433.4141 821.1728 3446.1151 825.3035 3464.1026 797.2321 3473.5666 795.1552 3468.4966 807.3481 3478.4279 812.4003 3453.527 857.957 3447.5496 893.3815 3456.7884 897.5149 3445.9553 923.7438 3426.5543 915.9372 3407.848 910.6599 Z" fill="none" stroke="#FBC20F" opacity="0.4291845493562232" stroke-width="1" class="hudson_heights"/>
<path d="M 3502.3534 703.3751 3501.4315 705.3305 3489.9031 723.3914 3494.9868 729.8265 3485.7577 736.3876 3494.9883 731.7812 3503.5066 702.1094 3516.2078 708.0783 3533.9898 716.4576 3516.9295 744.6421 3518.0876 749.3556 3511.1815 774.1982 3502.543 798.2378 3487.9129 837.4618 3477.5496 872.1991 3466.7203 902.2227 3453.3504 932.3639 3437.1987 948.3617 3430.748 969.1832 3423.1521 1003.8077 3384.4599 983.5913 3365.2874 973.1375 3370.0104 956.4579 3375.8864 937.7076 3379.1068 918.8444 3381.4109 911.3676 3386.1378 901.5892 3392.7134 894.2246 3400.4361 876.1642 3404.471 867.8815 3407.121 860.2897 3414.3848 847.06 3422.1111 835.3251 3428.914 824.0508 3437.3341 814.3854 3443.5565 798.857 3448.0502 787.4697 3455.3074 766.8815 3462.104 748.2488 3465.3274 736.633 3473.3939 718.8047 3479.8429 699.3681 3481.3403 695.3427 3491.3834 697.1747 3493.5745 694.6435 3496.113 693.6067 3500.7299 693.7181 3501.0772 695.0976 3502.3534 703.3751 Z" fill="none" stroke="#FBC20F" opacity="0.4291845493562232" stroke-width="1" class="hudson_heights"/>
<path d="M 3392.1431 904.6903 3409.6101 786.2319 3507.2058 709.3502 3497.5753 793.0671 3448.0331 923.2823 3392.1431 904.6903 Z" fill="none" stroke="#FBC20F" opacity="0.4291845493562232" stroke-width="1" class="hudson_heights"/>
<path d="M 3501.9639 795.8234 3457.7319 924.6553 3401.3806 907.2142 3420.7361 850.1606 3457.6359 794.0172 3501.9639 795.8234 Z" fill="none" stroke="#FBC20F" opacity="0.4291845493562232" stroke-width="1" class="hudson_heights"/>
<path d="M 3445.7244 923.744 3391.9113 903.3104 3452.0924 790.3415 3490.8886 804.1114 3445.7244 923.744 Z" fill="none" stroke="#FBC20F" opacity="0.4291845493562232" stroke-width="1" class="hudson_heights"/>
<path d="M 3393.0763 919.1803 3389.3655 894.3418 3500.9392 666.1236 3531.4171 675.2973 3545.3069 723.1172 3541.6376 752.5561 3528.2739 784.7635 3528.2828 795.8025 3526.8991 797.6435 3525.0566 803.1645 3513.9815 811.4528 3504.7552 822.4995 3508.4674 845.4956 3500.1621 853.7819 3495.5637 878.6253 3489.1052 886.9104 3478.0517 925.5602 3464.2011 930.1708 3449.4282 936.6221 3437.4173 931.1104 3416.17 924.6849 3405.093 933.893 3393.0763 919.1803 Z" fill="none" stroke="#FBC20F" opacity="0.4291845493562232" stroke-width="1" class="hudson_heights"/>
<path d="M 3413.7201 1055.5728 3367.9799 1030.9887 3383.8301 903.5457 3498.1892 691.8804 3545.7591 711.6187 3519.4617 735.5564 3520.8637 756.7124 3457.2734 929.2559 3434.6625 953.654 3413.7201 1055.5728 Z" fill="none" stroke="#FBC20F" opacity="0.4291845493562232" stroke-width="1" class="hudson_heights"/>
<path d="M 3491.7175 681.3075 3492.1724 672.569 3491.9306 658.3123 3501.8624 665.8929 3505.3244 665.2003 3507.8665 668.8775 3547.6044 709.7775 3536.0673 716.2259 3523.1494 728.1945 3517.1564 739.6976 3519.0169 756.7139 3511.6421 772.8179 3502.8915 801.1123 3488.8359 836.7712 3483.7662 849.4247 3480.7719 858.8567 3477.7798 871.2789 3456.5796 927.6463 3443.1994 944.4471 3436.5012 941.6917 3427.7249 938.9377 3410.6359 935.7294 3394.4715 933.9002 3371.8393 927.9346 3359.3687 924.7224 3338.1231 920.1353 3341.1223 915.9933 3344.8151 913.4609 3351.7401 910.4665 3360.971 902.6404 3371.3588 898.7237 3380.8194 889.5173 3388.4316 878.7022 3393.9653 867.1985 3400.6513 852.9342 3404.8005 843.0417 3410.5641 830.8482 3423.0169 809.9108 3430.394 794.7267 3439.8509 782.5311 3460.8306 743.1904 3487.5699 691.1988 3491.7175 681.3075 Z" fill="none" stroke="#FBC20F" opacity="0.4291845493562232" stroke-width="1" class="hudson_heights"/>
<path d="M 3477.0295 794.9227 3507.5033 793.9792 3458.6561 925.5746 3416.1611 911.8043 3376.4421 904.4706 3443.7845 794.9472 3477.0295 794.9227 Z" fill="none" stroke="#FBC20F" opacity="0.4291845493562232" stroke-width="1" class="hudson_heights"/>
<path d="M 3418.2309 937.2436 3399.2935 932.1962 3394.6555 902.2979 3498.1764 690.3966 3509.31 716.9928 3422.4952 939.1899 3418.2309 937.2436 Z" fill="none" stroke="#FBC20F" opacity="0.4291845493562232" stroke-width="1" class="hudson_heights"/>
<path d="M 3496.8013 688.2022 3545.2959 709.7794 3453.5763 925.5784 3393.9898 903.999 3496.8013 688.2022 Z" fill="none" stroke="#FBC20F" opacity="0.4291845493562232" stroke-width="1" class="hudson_heights"/>
<path d="M 3500.9579 690.0386 3512.966 695.5482 3522.2072 704.7391 3531.4432 707.4912 3540.674 703.8043 3548.9921 712.9958 3557.3189 732.3058 3562.8733 748.8588 3573.0428 762.6485 3567.5218 785.6508 3552.761 803.1418 3542.6194 823.389 3538.0087 831.6724 3549.087 827.0634 3556.4673 817.8577 3566.6233 815.0893 3574.0184 823.3625 3566.6546 851.8878 3509.4795 957.7382 3459.5818 928.3341 3429.0945 916.3955 3443.8262 852.9042 3458.5851 828.9742 3472.4149 798.6058 3479.7629 746.1658 3500.9579 690.0386 Z" fill="none" stroke="#FBC20F" opacity="0.4291845493562232" stroke-width="1" class="hudson_heights"/>
<path d="M 3467.7852 782.0507 3425.4079 927.4386 3368.1423 923.7968 3425.4156 938.4793 3443.8918 943.9866 3456.8143 932.9364 3446.6218 887.4021 3436.9375 905.8095 3443.379 873.1443 3445.6773 858.4227 3298.7408 691.0946 3471.468 767.3295 3484.4088 783.878 3467.7852 782.0507 Z" fill="none" stroke="#FBC20F" opacity="0.4291845493562232" stroke-width="1" class="hudson_heights"/>
<path d="M 3517.1718 759.0151 3445.2766 943.0655 3377.3809 927.931 3470.5167 730.0751 3517.1718 759.0151 Z" fill="none" stroke="#FBC20F" opacity="0.4291845493562232" stroke-width="1" class="hudson_heights"/>
<path d="M 3397.4871 954.5997 3403.7224 955.7456 3413.1913 958.2694 3419.8894 960.795 3427.0489 962.6301 3433.9603 940.3134 3421.716 931.1214 3412.2425 921.4674 3418.9297 908.8122 3426.5456 903.5167 3430.9292 898.6835 3447.3006 868.3115 3447.5412 881.6513 3443.1695 902.8149 3440.4052 911.7872 3437.4091 919.6097 3434.4146 929.7324 3433.8358 927.5477 3397.4871 954.5997 Z" fill="none" stroke="#FBC20F" opacity="0.4291845493562232" stroke-width="1" class="hudson_heights"/>
<path d="M 3398.6123 910.8962 3395.8367 903.5378 3424.429 848.318 3464.1016 795.8522 3473.3356 794.9254 3442.9027 852.9048 3428.1741 920.9963 3398.6123 910.8962 Z" fill="none" stroke="#FBC20F" opacity="0.4291845493562232" stroke-width="1" class="hudson_heights"/>
<path d="M 3461.4704 984.4577 3388.4857 960.5862 3453.94 791.2601 3528.7297 777.4038 3461.4704 984.4577 Z" fill="none" stroke="#FBC20F" opacity="0.4291845493562232" stroke-width="1" class="hudson_heights"/>
<path d="M 3429.9031 917.0849 3390.4115 904.8064 3399.4043 886.86 3407.2442 871.5596 3409.893 862.2428 3414.3902 854.8799 3435.6087 823.0111 3445.7711 828.5236 3450.382 819.3207 3457.413 804.8265 3465.3719 796.5413 3473.6843 798.1449 3468.4996 811.2579 3446.8247 848.7621 3429.9031 917.0849 Z" fill="none" stroke="#FBC20F" opacity="0.4291845493562232" stroke-width="1" class="hudson_heights"/>
<path d="M 3437.4311 950.4317 3333.0439 921.0584 3405.0418 858.4512 3464.9875 745.257 3510.2592 775.5788 3437.4311 950.4317 Z" fill="none" stroke="#FBC20F" opacity="0.4291845493562232" stroke-width="1" class="hudson_heights"/>
<path d="M 3444.1221 943.1814 3441.3512 943.0684 3398.3972 934.3576 3358.2132 923.113 3392.4708 876.6295 3413.1037 830.7315 3439.9656 781.4961 3473.7931 789.2906 3504.0431 797.5467 3488.8359 836.8862 3478.5871 870.2433 3457.1564 927.0708 3444.1221 943.1814 Z" fill="none" stroke="#FBC20F" opacity="0.4291845493562232" stroke-width="1" class="hudson_heights"/>
<path d="M 3434.1069 899.5277 3388.9498 880.1371 3447.3659 779.9223 3474.0592 799.3221 3434.1069 899.5277 Z" fill="none" stroke="#FBC20F" opacity="0.4291845493562232" stroke-width="1" class="hudson_heights"/>
<path d="M 3391.2194 904.4609 3436.3914 787.3631 3474.9529 796.5341 3440.6428 921.2175 3416.392 911.8041 3399.7673 911.5854 3391.2194 904.4609 Z" fill="none" stroke="#FBC20F" opacity="0.4291845493562232" stroke-width="1" class="hudson_heights"/>
<path d="M 3457.0412 927.4159 3429.788 917.545 3422.4151 940.3215 3376.2272 929.0819 3459.9395 787.1161 3502.6581 797.8927 3457.0412 927.4159 Z" fill="none" stroke="#FBC20F" opacity="0.4291845493562232" stroke-width="1" class="hudson_heights"/>
<path d="M 3497.2687 695.5605 3526.8701 761.767 3253.8355 1347.1799 3222.4128 1334.3093 3497.2687 695.5605 Z" fill="none" stroke="#FBC20F" opacity="0.4291845493562232" stroke-width="1" class="hudson_heights"/>
<path d="M 3393.0662 903.9996 3420.964 845.7905 3444.983 856.1233 3430.2488 916.1646 3393.0662 903.9996 Z" fill="none" stroke="#FBC20F" opacity="0.4291845493562232" stroke-width="1" class="hudson_heights"/>
<path d="M 3473.5691 798.375 3479.1367 833.7887 3446.8788 923.5131 3408.5405 910.4294 3415.6772 879.8338 3424.9008 862.8074 3418.6647 859.5918 3425.5814 845.5573 3432.9728 850.152 3453.7239 811.4987 3456.9521 805.9768 3461.5649 799.7638 3465.7176 795.851 3468.4884 796.309 3473.5691 798.375 Z" fill="none" stroke="#FBC20F" opacity="0.4291845493562232" stroke-width="1" class="hudson_heights"/>
<path d="M 3526.83 712.0941 3455.9002 945.818 3380.1472 921.0289 3488.9597 697.4065 3526.83 712.0941 Z" fill="none" stroke="#FBC20F" opacity="0.4291845493562232" stroke-width="1" class="hudson_heights"/>
<path d="M 3492.7084 768.9232 3442.4476 862.105 3429.4416 917.4303 3407.964 911.4649 3397.5731 910.6669 3391.6812 904.5756 3404.4796 880.5315 3412.3143 857.8712 3435.3778 823.0113 3445.7715 828.9836 3456.7206 805.172 3465.6026 796.4261 3462.9395 785.389 3469.3861 761.8117 3492.5926 768.3483 3476.6857 798.2576 3492.7084 768.9232 Z" fill="none" stroke="#FBC20F" opacity="0.4291845493562232" stroke-width="1" class="hudson_heights"/>
<path d="M 3382.0501 911.5687 3504.3336 679.4067 3537.3324 712.9383 3447.0623 937.2348 3382.0501 911.5687 Z" fill="none" stroke="#FBC20F" opacity="0.4291845493562232" stroke-width="1" class="hudson_heights"/>
<path d="M 3455.4249 927.4171 3453.5773 926.9584 3441.5814 942.1481 3364.9091 922.8788 3510.1745 668.4158 3542.5231 706.5623 3455.4249 927.4171 Z" fill="none" stroke="#FBC20F" opacity="0.4291845493562232" stroke-width="1" class="hudson_heights"/>
<path d="M 3393.7568 900.7791 3444.2466 795.4068 3473.5697 799.2949 3445.954 921.9037 3393.7568 900.7791 Z" fill="none" stroke="#FBC20F" opacity="0.4291845493562232" stroke-width="1" class="hudson_heights"/>
<path d="M 3499.1942 796.7455 3440.1954 941.229 3371.8408 930.2348 3442.8531 783.9088 3499.1942 796.7455 Z" fill="none" stroke="#FBC20F" opacity="0.4291845493562232" stroke-width="1" class="hudson_heights"/>
<path d="M 3503.3498 796.7423 3457.0422 928.796 3436.9702 951.8122 3434.4334 956.1843 3431.208 966.5376 3422.0003 1007.719 3417.6395 1046.3683 3397.111 1082.4996 3361.0687 1057.2178 3367.5236 1039.7305 3368.6622 1014.6557 3370.7282 995.5617 3379.9219 929.5395 3380.3756 917.1185 3394.2166 897.7887 3404.8233 876.6212 3423.2684 839.5791 3444.0242 807.1361 3457.6423 802.7565 3465.7228 802.7505 3497.1143 793.9874 3503.3498 796.7423 Z" fill="none" stroke="#FBC20F" opacity="0.4291845493562232" stroke-width="1" class="hudson_heights"/>
<path d="M 3519.0139 753.0344 3459.1193 927.4144 3393.0681 906.7597 3496.8059 694.1811 3495.4191 691.8826 3507.8846 691.8729 3520.3608 705.2005 3547.1408 707.4783 3519 735.5567 3519.0139 753.0344 Z" fill="none" stroke="#FBC20F" opacity="0.4291845493562232" stroke-width="1" class="hudson_heights"/>
<path d="M 3423.6141 1004.0374 3382.4927 976.6918 3393.9843 895.7188 3451.1716 794.0219 3498.7314 795.366 3501.9635 795.3635 3503.8105 795.362 3479.8473 857.4775 3457.7315 924.1953 3436.0483 954.113 3423.1509 1001.9674 3423.6141 1004.0374 Z" fill="none" stroke="#FBC20F" opacity="0.4291845493562232" stroke-width="1" class="hudson_heights"/>
<path d="M 3495.4134 684.524 3540.6824 713.9225 3439.2757 946.7501 3354.286 920.1253 3495.4134 684.524 Z" fill="none" stroke="#FBC20F" opacity="0.4291845493562232" stroke-width="1" class="hudson_heights"/>
<path d="M 3538.8356 713.924 3441.1216 944.9087 3359.827 919.2018 3490.8001 689.1267 3538.8356 713.924 Z" fill="none" stroke="#FBC20F" opacity="0.4291845493562232" stroke-width="1" class="hudson_heights"/>
<path d="M 3399.5353 909.9755 3500.9586 690.9585 3530.528 717.6102 3454.9624 926.4974 3445.7251 924.664 3437.412 923.7499 3399.5353 909.9755 Z" fill="none" stroke="#FBC20F" opacity="0.4291845493562232" stroke-width="1" class="hudson_heights"/>
<path d="M 3374.4467 1032.3648 3373.0632 1035.5862 3363.0727 939.901 3448.6293 790.1141 3563.6218 814.8619 3544.7188 849.3762 3443.9784 1064.2932 3374.4467 1032.3648 Z" fill="none" stroke="#FBC20F" opacity="0.4291845493562232" stroke-width="1" class="hudson_heights"/>
<path d="M 3375.5364 932.0725 3472.3783 749.8509 3480.6815 739.726 3519.4797 758.0934 3449.4208 926.5014 3375.5364 932.0725 Z" fill="none" stroke="#FBC20F" opacity="0.4291845493562232" stroke-width="1" class="hudson_heights"/>
<path d="M 3390.7588 906.3013 3399.2991 902.1554 3389.6042 906.072 3461.7956 799.5337 3463.8724 798.1522 3466.642 797.0003 3494.8063 794.9091 3503.8128 798.3518 3456.2327 926.9565 3402.307 911.3537 3395.84 908.598 3390.7588 906.3013 Z" fill="none" stroke="#FBC20F" opacity="0.4291845493562232" stroke-width="1" class="hudson_heights"/>
<path d="M 3492.6469 689.1253 3540.6884 721.2813 3458.4274 928.565 3437.6643 953.6518 3419.7182 1046.827 3399.4198 1081.5778 3348.3654 1054.0051 3358.4468 927.4831 3492.6469 689.1253 Z" fill="none" stroke="#FBC20F" opacity="0.4291845493562232" stroke-width="1" class="hudson_heights"/>
<path d="M 3377.8448 931.1509 3382.9069 904.0063 3453.4726 783.4412 3475.6457 796.7635 3480.2763 814.2388 3468.285 833.1069 3463.6661 831.2704 3450.7527 852.8992 3445.6886 874.0626 3440.1628 895.6869 3449.8646 901.66 3442.4905 921.9062 3422.1839 939.8617 3377.8448 931.1509 Z" fill="none" stroke="#FBC20F" opacity="0.4291845493562232" stroke-width="1" class="hudson_heights"/>
<path d="M 3392.6054 905.38 3425.5821 846.4773 3465.718 796.311 3474.2617 798.3745 3461.3811 863.4712 3422.6159 897.0793 3419.6253 912.9519 3392.6054 905.38 Z" fill="none" stroke="#FBC20F" opacity="0.4291845493562232" stroke-width="1" class="hudson_heights"/>
<path d="M 3456.8091 925.806 3396.3026 909.7477 3451.855 781.3725 3503.5794 795.1322 3456.8091 925.806 Z" fill="none" stroke="#FBC20F" opacity="0.4291845493562232" stroke-width="1" class="hudson_heights"/>
<path d="M 3455.7854 775.3139 3500.043 687.8934 3543.4609 711.7742 3462.3625 928.0257 3392.1529 904.1539 3455.7854 775.3139 Z" fill="none" stroke="#FBC20F" opacity="0.4291845493562232" stroke-width="1" class="hudson_heights"/>
<path d="M 3457.1565 927.1858 3410.3881 911.0032 3392.0279 905.0354 3498.5348 690.9604 3537.3379 717.3747 3457.1565 927.1858 Z" fill="none" stroke="#FBC20F" opacity="0.4291845493562232" stroke-width="1" class="hudson_heights"/>
<path d="M 3503.5811 797.202 3501.5088 804.3331 3456.8103 927.4161 3442.9525 922.1359 3425.6307 915.9379 3404.6161 911.5822 3390.9886 904.691 3444.2435 791.0372 3503.5811 797.202 Z" fill="none" stroke="#FBC20F" opacity="0.4291845493562232" stroke-width="1" class="hudson_heights"/>
<path d="M 3500.9579 690.0386 3534.2156 710.2484 3521.3044 730.4956 3513.9289 745.2194 3491.3702 829.8695 3480.3141 864.147 3471.0979 889.6841 3457.2721 927.4158 3465.3572 932.2401 3454.286 948.8094 3444.8161 944.906 3402.3224 934.1249 3401.3905 921.9348 3390.2964 905.3815 3500.9579 690.0386 Z" fill="none" stroke="#FBC20F" opacity="0.4291845493562232" stroke-width="1" class="hudson_heights"/>
<path d="M 3456.8106 927.8761 3382.4499 911.3669 3458.1004 797.6965 3498.2804 809.1653 3456.8106 927.8761 Z" fill="none" stroke="#FBC20F" opacity="0.4291845493562232" stroke-width="1" class="hudson_heights"/>
<path d="M 3393.0635 899.8595 3507.4106 676.2363 3553.6098 713.9118 3594.3232 809.5457 3542.7377 966.9123 3393.0635 899.8595 Z" fill="none" stroke="#FBC20F" opacity="0.4291845493562232" stroke-width="1" class="hudson_heights"/>
<path d="M 3414.2759 856.6049 3432.4946 826.9231 3454.8658 794.4792 3469.8444 757.2119 3485.7467 722.0148 3500.0372 693.4887 3511.3481 693.0199 3522.8997 704.7386 3529.1335 705.8833 3539.0638 710.7044 3538.144 715.0744 3527.0681 721.0624 3519.9232 735.326 3517.6304 755.1052 3510.4895 774.8886 3500.8207 810.0833 3488.8348 835.3912 3480.5492 869.6668 3457.7335 926.9554 3399.9971 909.9752 3390.9874 902.851 3399.9828 888.8146 3414.2759 856.6049 Z" fill="none" stroke="#FBC20F" opacity="0.4291845493562232" stroke-width="1" class="hudson_heights"/>
<path d="M 3426.2749 846.7068 3446.8074 824.843 3458.797 803.2156 3468.0268 796.5393 3473.7998 798.1448 3446.1329 849.9126 3434.6251 900.981 3412.7371 969.3107 3387.3333 963.8073 3379.9216 929.0795 3383.3748 913.4364 3396.2932 895.7172 3419.126 858.9015 3426.2749 846.7068 Z" fill="none" stroke="#FBC20F" opacity="0.4291845493562232" stroke-width="1" class="hudson_heights"/>
<path d="M 3456.5796 927.6463 3413.1593 911.5763 3408.0789 910.6598 3415.2162 880.9842 3425.1319 863.0373 3419.1265 859.5915 3426.5046 845.0967 3433.4338 849.0017 3458.1054 804.596 3464.7945 796.3117 3473.3359 795.3854 3517.8642 758.7846 3456.5796 927.6463 Z" fill="none" stroke="#FBC20F" opacity="0.4291845493562232" stroke-width="1" class="hudson_heights"/>
<path d="M 3387.7974 967.3033 3402.5067 933.5037 3432.6506 851.5092 3458.7742 803.5606 3470.1359 807.5079 3458.3315 829.5034 3430.7772 912.3231 3413.4759 969.1262 3406.289 994.8941 3383.3749 984.0521 3387.7974 967.3033 Z" fill="none" stroke="#FBC20F" opacity="0.4291845493562232" stroke-width="1" class="hudson_heights"/>
<path d="M 3493.5986 725.9181 3404.1526 909.0524 3388.4474 902.6227 3389.3625 889.7417 3398.5888 875.9354 3402.2737 862.133 3417.9592 840.9627 3421.6462 830.8406 3426.2592 824.3977 3431.7879 806.9148 3441.9336 789.429 3452.0716 761.8244 3470.5232 738.8138 3427.2505 920.997 3493.5986 725.9181 Z" fill="none" stroke="#FBC20F" opacity="0.4291845493562232" stroke-width="1" class="hudson_heights"/>
<path d="M 3401.4979 1081.1163 3363.6054 1051.6951 3352.4423 925.6468 3429.0362 833.5953 3493.6875 840.9073 3441.1256 950.4291 3401.4979 1081.1163 Z" fill="none" stroke="#FBC20F" opacity="0.4291845493562232" stroke-width="1" class="hudson_heights"/>
<path d="M 3504.735 796.7412 3461.4161 910.8519 3437.4278 945.8314 3361.673 917.3606 3493.566 683.6056 3539.7597 714.8431 3518.5364 733.2574 3521.3243 755.3322 3504.735 796.7412 Z" fill="none" stroke="#FBC20F" opacity="0.4291845493562232" stroke-width="1" class="hudson_heights"/>
<path d="M 3390.6544 922.9771 3336.7358 916.916 3369.7455 903.3249 3453.7196 805.5192 3496.1915 794.908 3500.8106 797.2042 3476.3939 870.59 3454.7323 927.6476 3442.5054 942.6075 3336.9684 919.676 3390.6544 922.9771 Z" fill="none" stroke="#FBC20F" opacity="0.4291845493562232" stroke-width="1" class="hudson_heights"/>
<path d="M 3385.2315 927.9259 3493.5866 710.2807 3518.5511 751.6549 3443.431 945.367 3385.2315 927.9259 Z" fill="none" stroke="#FBC20F" opacity="0.4291845493562232" stroke-width="1" class="hudson_heights"/>
<path d="M 3507.4779 761.7825 3493.6562 800.4295 3454.0274 910.8573 3441.119 941.2284 3381.072 922.8684 3493.5823 704.7617 3513.8982 706.5854 3507.4779 761.7825 Z" fill="none" stroke="#FBC20F" opacity="0.4291845493562232" stroke-width="1" class="hudson_heights"/>
<path d="M 3374.5979 909.0719 3368.1329 909.0761 3488.035 695.5676 3519.4414 710.2604 3374.5979 909.0719 Z" fill="none" stroke="#FBC20F" opacity="0.4291845493562232" stroke-width="1" class="hudson_heights"/>
<path d="M 3504.8384 693.163 3513.7057 696.8353 3527.7494 707.1262 3524.0807 738.0363 3516.7151 765.2707 3506.3968 796.1879 3497.5493 819.0093 3489.4474 851.3983 3465.8412 899.9923 3456.9927 924.2878 3448.8667 926.5018 3411.9151 915.4873 3384.5682 902.2572 3504.8384 693.163 Z" fill="none" stroke="#FBC20F" opacity="0.4291845493562232" stroke-width="1" class="hudson_heights"/>
<path d="M 3474.491 796.3045 3476.2225 796.3031 3475.7601 795.3836 3443.2614 870.1544 3428.7558 927.2063 3415.1623 970.2292 3348.6494 953.021 3436.6221 787.248 3474.491 796.3045 Z" fill="none" stroke="#FBC20F" opacity="0.4291845493562232" stroke-width="1" class="hudson_heights"/>
<path d="M 3452.197 933.8599 3427.2518 922.8371 3382.8993 892.506 3458.5736 813.3351 3479.8201 821.5987 3489.9567 793.073 3510.273 793.0571 3452.197 933.8599 Z" fill="none" stroke="#FBC20F" opacity="0.4291845493562232" stroke-width="1" class="hudson_heights"/>
<path d="M 3456.8096 926.4961 3398.6092 906.296 3498.1878 690.0408 3530.5213 709.3316 3505.6491 784.7815 3456.8096 926.4961 Z" fill="none" stroke="#FBC20F" opacity="0.4291845493562232" stroke-width="1" class="hudson_heights"/>
<path d="M 3399.5173 883.2949 3412.4295 857.5262 3425.3441 836.3578 3442.867 803.2272 3454.4044 794.9395 3473.337 796.7653 3471.4904 797.2266 3471.4942 802.2862 3465.0394 815.1702 3458.5831 826.2144 3451.6655 838.1789 3445.6706 849.2229 3443.8325 861.644 3439.6881 877.7469 3435.5436 893.8501 3432.3192 905.3527 3430.4766 911.7943 3429.5553 915.0151 3416.6241 913.644 3402.7685 910.8934 3392.1442 906.3003 3399.5173 883.2949 Z" fill="none" stroke="#FBC20F" opacity="0.4291845493562232" stroke-width="1" class="hudson_heights"/>
<path d="M 3501.965 797.2033 3480.1913 854.3723 3455.538 924.1969 3398.4899 900.5459 3422.0033 846.2498 3461.3312 795.8543 3495.4877 780.4198 3501.965 797.2033 Z" fill="none" stroke="#FBC20F" opacity="0.4291845493562232" stroke-width="1" class="hudson_heights"/>
<path d="M 3548.0664 710.237 3526.3776 723.5926 3517.6148 735.5578 3517.1645 749.8163 3456.8096 926.4961 3436.9679 948.5919 3339.0479 921.9748 3493.5638 680.8462 3496.7974 683.1432 3548.0664 710.237 Z" fill="none" stroke="#FBC20F" opacity="0.4291845493562232" stroke-width="1" class="hudson_heights"/>
<path d="M 3503.7316 694.6356 3500.9579 690.0386 3512.9405 663.3547 3542.5163 698.2837 3444.8181 947.6662 3382.0004 930.2282 3503.7316 694.6356 Z" fill="none" stroke="#FBC20F" opacity="0.4291845493562232" stroke-width="1" class="hudson_heights"/>
<path d="M 3407.1555 910.8904 3409.6961 912.0387 3401.5012 914.9194 3391.9149 908.7156 3393.7569 901.0091 3401.7188 895.1386 3408.1715 877.194 3416.0088 858.4437 3425.8106 843.1422 3435.2664 828.6461 3442.1879 821.9715 3450.1447 810.4664 3453.4862 802.0696 3467.5614 791.595 3477.7202 792.3923 3483.6099 795.8376 3481.5428 809.9831 3471.6316 831.6094 3462.6433 853.1204 3457.3441 868.1891 3455.9732 887.8553 3449.5223 907.2955 3444.5675 920.4096 3439.6063 924.7834 3431.0594 919.6142 3407.1555 910.8904 Z" fill="none" stroke="#FBC20F" opacity="0.4291845493562232" stroke-width="1" class="hudson_heights"/>
<path d="M 3453.1172 929.2589 3444.8154 943.9859 3421.7288 949.5227 3412.5059 968.8509 3405.1336 993.6987 3382.0353 983.5929 3349.704 978.0928 3347.8311 936.6903 3365.3627 909.9979 3396.7307 859.3768 3495.4155 687.2835 3538.8326 710.2447 3517.6196 741.537 3517.6336 759.0147 3498.2807 809.6253 3475.2407 872.2008 3453.1172 929.2589 Z" fill="none" stroke="#FBC20F" opacity="0.4291845493562232" stroke-width="1" class="hudson_heights"/>
<path d="M 3381.0666 914.588 3400.4425 885.5943 3410.1257 864.8876 3420.2718 846.481 3429.4973 832.675 3438.2614 819.7894 3452.5599 798.1606 3459.9439 793.0955 3467.331 792.1702 3475.1832 795.844 3475.1936 809.6429 3477.5107 820.6805 3474.7471 829.8822 3466.8987 831.728 3462.7449 834.4909 3454.9015 843.2364 3454.9039 846.4563 3451.6769 853.8185 3449.8369 863.4797 3448.921 874.0603 3444.3085 881.4237 3441.5474 894.7659 3439.2441 902.5877 3436.0175 910.8703 3434.1768 920.072 3432.3365 929.7339 3428.644 932.4967 3392.1537 920.5609 3381.0666 914.588 Z" fill="none" stroke="#FBC20F" opacity="0.4291845493562232" stroke-width="1" class="hudson_heights"/>
<path d="M 3536.0673 716.2259 3526.3928 742.4498 3508.4217 787.5391 3493.6857 838.6074 3473.8768 900.7223 3445.7447 951.8059 3359.3635 916.442 3517.5899 704.2829 3536.0673 716.2259 Z" fill="none" stroke="#FBC20F" opacity="0.4291845493562232" stroke-width="1" class="hudson_heights"/>
<path d="M 3383.841 920.1064 3434.5564 804.1531 3495.5146 815.1471 3446.6593 939.3843 3383.841 920.1064 Z" fill="none" stroke="#FBC20F" opacity="0.4291845493562232" stroke-width="1" class="hudson_heights"/>
<path d="M 3503.7309 693.7158 3516.6713 710.2626 3510.2395 750.7416 3455.8739 909.9359 3434.6504 936.6327 3418.0605 987.2491 3420.8679 1039.6949 3356.286 1163.9675 3338.7326 1163.0581 3319.323 1147.425 3317.4646 1129.021 3331.3094 1108.7675 3327.5929 1072.8815 3337.7384 1047.1103 3341.3945 983.6186 3338.5972 940.3762 3341.3512 912.773 3365.3551 898.0375 3381.9704 884.2265 3423.4746 804.1609 3466.8179 723.1789 3479.7246 695.5739 3494.4979 694.6428 3503.7309 693.7158 Z" fill="none" stroke="#FBC20F" opacity="0.4291845493562232" stroke-width="1" class="hudson_heights"/>
<path d="M 3457.6766 893.3649 3407.7614 905.5142 3499.3852 689.2415 3541.3562 711.3827 3455.04 924.6292 3410.2797 909.1853 3457.6766 893.3649 Z" fill="none" stroke="#FBC20F" opacity="0.4291845493562232" stroke-width="1" class="hudson_heights"/>
<path d="M 3392.3738 904.4601 3453.9325 780.9111 3505.8784 782.7115 3457.0405 926.4959 3392.3738 904.4601 Z" fill="none" stroke="#FBC20F" opacity="0.4291845493562232" stroke-width="1" class="hudson_heights"/>
<path d="M 3445.6545 826.9137 3463.179 797.0028 3475.6443 794.9237 3465.2714 816.7799 3446.3631 848.9924 3430.2482 915.2446 3430.7113 917.0843 3411.5422 910.4274 3396.9959 910.6673 3392.374 904.6901 3415.678 880.9838 3425.8252 863.9568 3417.5103 859.5926 3424.6579 845.5579 3432.9733 850.842 3445.6545 826.9137 Z" fill="none" stroke="#FBC20F" opacity="0.4291845493562232" stroke-width="1" class="hudson_heights"/>
<path d="M 3394.4513 903.5387 3441.0098 788.9697 3504.2722 795.3617 3457.7329 926.0354 3394.4513 903.5387 Z" fill="none" stroke="#FBC20F" opacity="0.4291845493562232" stroke-width="1" class="hudson_heights"/>
<path d="M 3425.4027 920.0782 3424.4753 914.5586 3412.4674 912.7269 3398.6074 903.5359 3487.1151 700.1675 3516.6698 708.4229 3425.4027 920.0782 Z" fill="none" stroke="#FBC20F" opacity="0.4291845493562232" stroke-width="1" class="hudson_heights"/>
<path d="M 3366.3182 960.1406 3406.8902 860.2899 3364.4689 956.9215 3412.6635 862.1259 3445.2202 864.863 3403.5186 995.7701 3366.3182 960.1406 Z" fill="none" stroke="#FBC20F" opacity="0.4291845493562232" stroke-width="1" class="hudson_heights"/>
<path d="M 3507.4225 691.4133 3517.5902 704.7428 3512.0649 723.6041 3497.7722 749.3716 3496.8663 771.9096 3505.1953 794.901 3497.3608 814.2257 3457.2701 924.6556 3441.5824 943.5282 3422.1833 938.9416 3397.2439 936.1985 3392.1439 905.8403 3409.1984 859.3683 3459.9405 788.4959 3498.1913 694.6399 3507.4225 691.4133 Z" fill="none" stroke="#FBC20F" opacity="0.4291845493562232" stroke-width="1" class="hudson_heights"/>
<path d="M 3404.2106 994.6195 3355.2407 969.8085 3491.7199 684.5269 3530.5176 704.7324 3404.2106 994.6195 Z" fill="none" stroke="#FBC20F" opacity="0.4291845493562232" stroke-width="1" class="hudson_heights"/>
<path d="M 3398.6123 910.8962 3381.9998 929.3081 3378.3054 929.3105 3373.675 909.9926 3387.5172 892.503 3437.3196 794.0319 3500.9586 690.9585 3538.8333 711.1645 3457.7325 925.5753 3436.5061 948.5922 3382.9228 928.3875 3398.6123 910.8962 Z" fill="none" stroke="#FBC20F" opacity="0.4291845493562232" stroke-width="1" class="hudson_heights"/>
<path d="M 3456.8096 926.4961 3406.9227 908.1305 3441.0121 792.1894 3501.9632 794.9035 3456.8096 926.4961 Z" fill="none" stroke="#FBC20F" opacity="0.4291845493562232" stroke-width="1" class="hudson_heights"/>
<path d="M 3431.6339 915.7036 3390.0658 905.8417 3391.4483 901.4706 3405.7426 870.4106 3427.6472 828.3065 3456.7111 792.178 3495.1977 704.0705 3512.9835 717.6243 3491.3054 745.6971 3493.6388 777.8915 3474.9524 795.8441 3459.2776 828.7437 3445.4446 855.8929 3438.3056 881.658 3434.1638 901.6713 3392.3768 908.8303 3406.9252 911.8106 3418.0084 912.033 3431.6339 915.7036 Z" fill="none" stroke="#FBC20F" opacity="0.4291845493562232" stroke-width="1" class="hudson_heights"/>
<path d="M 3379.6899 933.5401 3502.9427 680.023 3542.1157 713.1487 3530.2302 754.5717 3446.2022 950.9756 3379.6899 933.5401 Z" fill="none" stroke="#FBC20F" opacity="0.4291845493562232" stroke-width="1" class="hudson_heights"/>
<path d="M 3504.1886 688.6564 3516.6632 700.1444 3527.7486 706.1144 3547.604 709.3176 3530.9931 721.7492 3518.5353 731.8776 3518.092 754.8749 3503.3495 796.2823 3458.6555 924.6546 3445.7384 943.0652 3426.3395 938.9387 3339.0465 919.6747 3352.4277 902.1858 3382.4333 886.0662 3397.6474 849.2564 3421.6331 811.9816 3490.3338 683.1482 3504.1886 688.6564 Z" fill="none" stroke="#FBC20F" opacity="0.4291845493562232" stroke-width="1" class="hudson_heights"/>
<path d="M 3473.5691 798.375 3446.1312 847.6126 3429.5555 915.2451 3393.9903 904.689 3391.2163 899.8607 3404.1252 868.5717 3465.3719 796.6562 3473.5691 798.375 Z" fill="none" stroke="#FBC20F" opacity="0.4291845493562232" stroke-width="1" class="hudson_heights"/>
<path d="M 3397.6881 909.9768 3386.5978 898.9438 3471.4852 790.3272 3463.2006 826.2109 3449.3961 892.4601 3456.7873 896.1348 3450.3424 923.7406 3397.6881 909.9768 Z" fill="none" stroke="#FBC20F" opacity="0.4291845493562232" stroke-width="1" class="hudson_heights"/>
<path d="M 3407.8485 911.35 3419.3604 863.9613 3415.6599 854.764 3427.1931 839.1164 3462.7157 794.9334 3474.2608 797.2246 3465.5148 833.5689 3451.2248 867.1586 3447.5437 885.1014 3439.2546 917.3083 3438.333 920.0691 3407.8485 911.35 Z" fill="none" stroke="#FBC20F" opacity="0.4291845493562232" stroke-width="1" class="hudson_heights"/>
<path d="M 3505.1961 795.8209 3490.6832 837.2297 3484.0007 854.2544 3480.3181 869.437 3468.3364 902.1065 3458.8887 927.8746 3429.5569 917.3152 3409.9262 910.8885 3410.1571 910.8884 3396.7645 909.9774 3390.5261 903.5413 3437.3347 815.1903 3465.9497 797.4607 3470.7973 796.5372 3498.0411 798.3563 3505.1961 795.8209 Z" fill="none" stroke="#FBC20F" opacity="0.4291845493562232" stroke-width="1" class="hudson_heights"/>
<path d="M 3430.1337 916.6247 3408.8869 910.4292 3425.4786 863.612 3418.6645 859.2468 3426.5051 845.7866 3433.55 850.0366 3446.9236 825.8779 3466.2951 796.1956 3473.5694 798.8349 3444.0603 857.2739 3430.1337 916.6247 Z" fill="none" stroke="#FBC20F" opacity="0.4291845493562232" stroke-width="1" class="hudson_heights"/>
<path d="M 3423.6871 1004.7021 3382.5799 985.7541 3431.0369 776.545 3501.2265 785.692 3423.6871 1004.7021 Z" fill="none" stroke="#FBC20F" opacity="0.4291845493562232" stroke-width="1" class="hudson_heights"/>
<path d="M 3508.4318 800.418 3449.4375 949.503 3370.916 928.3952 3440.088 791.2701 3508.4318 800.418 Z" fill="none" stroke="#FBC20F" opacity="0.4291845493562232" stroke-width="1" class="hudson_heights"/>
<path d="M 3368.8314 918.276 3386.8316 903.3137 3389.0236 901.0122 3386.9442 898.9435 3388.4419 894.2274 3381.6301 893.5419 3397.5476 872.6011 3393.9682 871.5685 3402.1563 859.2581 3397.7678 856.6161 3417.2645 837.9733 3416.571 836.7089 3435.1456 821.1716 3434.6801 815.8822 3428.2166 817.1517 3453.9498 804.5991 3450.2554 804.0268 3463.9884 798.8421 3468.8365 798.7235 3468.6056 798.7237 3481.0663 790.55 3482.5646 787.4441 3491.102 781.3431 3493.4059 775.247 3495.0132 763.9769 3499.6443 781.7965 3501.9441 770.5258 3506.3378 779.8364 3508.1849 780.0649 3509.3367 776.8444 3504.9618 791.4514 3505.0767 790.8764 3499.3188 808.4746 3497.9352 810.5455 3499.6658 809.3942 3500.359 810.1986 3493.329 825.1532 3493.6767 826.9929 3486.991 839.6475 3483.3019 846.0901 3483.1894 850.0001 3483.9994 852.5294 3483.3053 850.575 3481.9265 859.0859 3479.6223 865.2975 3477.0887 873.3494 3472.4763 880.4829 3468.7881 888.5358 3465.5602 894.7483 3463.9503 903.2598 3460.4932 911.7726 3457.7266 917.5249 3454.2697 926.4979 3450.5818 935.4712 3448.7389 941.4529 3434.8846 941.2328 3422.4129 937.1013 3409.942 933.8897 3400.9335 929.0655 3391.2316 922.8617 3377.3738 916.8905 3368.8314 918.276 Z" fill="none" stroke="#FBC20F" opacity="0.4291845493562232" stroke-width="1" class="hudson_heights"/>
<path d="M 3445.6545 826.9137 3466.8725 796.5401 3494.8059 794.4491 3504.5047 797.4313 3457.2726 928.1058 3443.6599 942.6067 3400.7048 932.2859 3383.6053 912.7462 3414.7394 859.1345 3440.5738 824.8475 3445.6545 826.9137 Z" fill="none" stroke="#FBC20F" opacity="0.4291845493562232" stroke-width="1" class="hudson_heights"/>
<path d="M 3390.2955 904.0015 3461.783 782.5151 3464.0913 782.0535 3494.5758 795.3692 3445.7248 924.204 3390.2955 904.0015 Z" fill="none" stroke="#FBC20F" opacity="0.4291845493562232" stroke-width="1" class="hudson_heights"/>
<path d="M 3390.7588 906.3013 3394.9088 897.0982 3416.1179 849.2438 3435.2589 818.1816 3463.1677 781.8242 3474.9453 786.415 3496.191 794.218 3503.8126 798.1218 3487.6836 839.532 3482.3874 857.9355 3456.8101 927.1861 3403.2309 911.8131 3407.8488 911.81 3390.7588 906.3013 Z" fill="none" stroke="#FBC20F" opacity="0.4291845493562232" stroke-width="1" class="hudson_heights"/>
<path d="M 3456.3485 927.4164 3390.2958 904.4615 3453.9269 773.3218 3506.5744 787.0806 3456.3485 927.4164 Z" fill="none" stroke="#FBC20F" opacity="0.4291845493562232" stroke-width="1" class="hudson_heights"/>
<path d="M 3427.1808 821.6372 3433.6472 824.3925 3438.2654 825.3091 3446.5775 826.2231 3453.0447 829.8982 3449.3587 840.9405 3447.5157 846.4617 3441.0596 858.4261 3438.2969 869.4679 3436.4551 876.8292 3434.6158 887.8707 3431.8555 902.593 3428.1709 916.3961 3424.4817 923.7591 3420.7918 930.202 3415.2521 932.966 3406.9359 927.4514 3402.316 924.6943 3395.8496 922.8586 3375.5257 915.5116 3379.2117 902.6287 3381.9788 897.1068 3386.5942 893.4236 3391.2023 878.7004 3395.8145 870.4173 3407.808 852.0094 3410.5742 845.5677 3414.2632 838.2054 3418.8757 830.8425 3420.7201 827.1614 3412.4017 817.0477 3420.7163 821.6417 3427.1808 821.6372 Z" fill="none" stroke="#FBC20F" opacity="0.4291845493562232" stroke-width="1" class="hudson_heights"/>
<path d="M 3471.2592 796.7668 3429.3243 914.7852 3389.8314 900.5517 3421.2 853.1502 3389.5984 897.3317 3448.3984 790.1142 3471.2592 796.7668 Z" fill="none" stroke="#FBC20F" opacity="0.4291845493562232" stroke-width="1" class="hudson_heights"/>
<path d="M 3399.5353 909.9755 3393.069 908.1398 3499.109 687.2806 3525.9044 709.3353 3458.6548 923.7345 3399.5353 909.9755 Z" fill="none" stroke="#FBC20F" opacity="0.4291845493562232" stroke-width="1" class="hudson_heights"/>
<path d="M 3488.0223 679.0108 3527.7482 705.6545 3404.2106 994.6195 3382.9578 981.7521 3346.0082 976.2549 3488.0223 679.0108 Z" fill="none" stroke="#FBC20F" opacity="0.4291845493562232" stroke-width="1" class="hudson_heights"/>
<path d="M 3393.9901 904.459 3456.7084 788.4983 3474.2549 789.4052 3490.8872 802.2715 3462.3485 922.8118 3449.4161 920.0611 3393.9901 904.459 Z" fill="none" stroke="#FBC20F" opacity="0.4291845493562232" stroke-width="1" class="hudson_heights"/>
<path d="M 3540.6831 714.8424 3509.3074 739.7038 3515.7977 772.8146 3464.1063 802.2917 3430.9449 920.9944 3401.38 906.2941 3439.1922 829.9082 3455.7883 793.0986 3504.6542 693.7151 3540.6831 714.8424 Z" fill="none" stroke="#FBC20F" opacity="0.4291845493562232" stroke-width="1" class="hudson_heights"/>
<path d="M 3498.6523 693.7197 3513.8967 704.7457 3510.2195 725.4452 3491.3387 788.9322 3465.052 832.1893 3445.6962 884.6427 3441.5669 921.9069 3439.2737 943.9899 3395.3955 934.3596 3396.304 911.8178 3381.5152 894.347 3498.6523 693.7197 Z" fill="none" stroke="#FBC20F" opacity="0.4291845493562232" stroke-width="1" class="hudson_heights"/>
<path d="M 3435.4681 787.5937 3502.4321 804.1024 3445.2776 944.4456 3355.6726 921.9646 3435.4681 787.5937 Z" fill="none" stroke="#FBC20F" opacity="0.4291845493562232" stroke-width="1" class="hudson_heights"/>
<path d="M 3453.5745 923.0482 3452.1889 922.8192 3407.8458 907.4398 3426.0556 863.2666 3464.5635 796.0819 3502.6576 797.2028 3492.2848 818.3694 3457.0366 921.2056 3453.5745 923.0482 Z" fill="none" stroke="#FBC20F" opacity="0.4291845493562232" stroke-width="1" class="hudson_heights"/>
<path d="M 3443.4267 939.3866 3362.5992 921.5002 3466.3778 752.1551 3506.5726 784.7808 3444.8139 941.9158 3443.4267 939.3866 Z" fill="none" stroke="#FBC20F" opacity="0.4291845493562232" stroke-width="1" class="hudson_heights"/>
<path d="M 3385.5002 930.5957 3433.9069 831.1254 3499.8966 763.0781 3446.466 941.5944 3385.5002 930.5957 Z" fill="none" stroke="#FBC20F" opacity="0.4291845493562232" stroke-width="1" class="hudson_heights"/>
<path d="M 3391.2194 904.4609 3434.3152 789.6644 3474.0298 796.9947 3430.0182 916.6248 3391.2194 904.4609 Z" fill="none" stroke="#FBC20F" opacity="0.4291845493562232" stroke-width="1" class="hudson_heights"/>
<path d="M 3442.9688 944.9073 3390.3135 931.1428 3453.0233 800.46 3493.6704 818.8283 3442.9688 944.9073 Z" fill="none" stroke="#FBC20F" opacity="0.4291845493562232" stroke-width="1" class="hudson_heights"/>
<path d="M 3378.3069 931.6107 3500.4951 688.6593 3522.6688 704.7387 3546.6787 707.0187 3517.6174 738.7774 3518.5544 755.7944 3459.1173 924.6543 3442.508 946.2878 3378.3069 931.6107 Z" fill="none" stroke="#FBC20F" opacity="0.4291845493562232" stroke-width="1" class="hudson_heights"/>
<path d="M 3436.8801 825.3101 3454.1744 796.0895 3475.1834 796.074 3495.2682 795.1387 3501.9662 798.8132 3455.1921 924.8872 3395.146 906.5283 3411.7415 864.4265 3436.8801 825.3101 Z" fill="none" stroke="#FBC20F" opacity="0.4291845493562232" stroke-width="1" class="hudson_heights"/>
<path d="M 3403.2405 926.0738 3401.8396 903.0737 3419.3521 852.0015 3429.962 836.8145 3448.8726 807.3626 3458.5651 801.8359 3499.1183 699.2384 3524.061 713.4761 3509.7731 744.7628 3494.1076 787.0903 3492.7388 808.2497 3485.3674 829.8741 3475.2338 863.0009 3463.945 896.1296 3452.6542 927.6492 3445.9653 937.5446 3403.2405 926.0738 Z" fill="none" stroke="#FBC20F" opacity="0.4291845493562232" stroke-width="1" class="hudson_heights"/>
<path d="M 3457.0412 927.4159 3408.0786 910.1998 3415.6774 880.0638 3447.9613 824.1522 3462.7181 798.1531 3474.492 797.6843 3504.043 797.4317 3482.6153 854.0254 3478.7028 870.5882 3457.0412 927.4159 Z" fill="none" stroke="#FBC20F" opacity="0.4291845493562232" stroke-width="1" class="hudson_heights"/>
<path d="M 3388.5406 1043.6275 3384.6153 1044.3202 3375.1421 1036.505 3374.9048 1026.6135 3381.3357 973.0122 3382.6918 928.1576 3384.7639 918.9557 3389.6059 908.6021 3403.6805 893.8722 3430.8855 836.8139 3454.6395 800.6888 3465.4851 793.5514 3501.5032 797.2037 3495.9703 807.3272 3481.6912 853.3361 3460.0293 909.0129 3451.7315 928.7999 3433.949 924.4424 3431.8848 943.9952 3429.1249 959.6384 3407.4545 1010.9495 3396.3834 1030.51 3392.0004 1037.4141 3388.5406 1043.6275 Z" fill="none" stroke="#FBC20F" opacity="0.4291845493562232" stroke-width="1" class="hudson_heights"/>
<path d="M 3503.3504 797.4322 3431.2125 972.9783 3389.4107 962.6558 3414.7304 846.0248 3454.6188 772.4014 3483.9027 725.6956 3499.4247 796.2854 3503.3504 797.4322 Z" fill="none" stroke="#FBC20F" opacity="0.4291845493562232" stroke-width="1" class="hudson_heights"/>
<path d="M 3521.2823 702.9002 3504.7329 793.9814 3442.9669 942.1471 3394.9266 923.7793 3397.7011 929.2977 3367.2187 923.7974 3492.6454 687.2856 3521.2823 702.9002 Z" fill="none" stroke="#FBC20F" opacity="0.4291845493562232" stroke-width="1" class="hudson_heights"/>
<path d="M 3498.1885 690.9606 3533.2967 715.7683 3521.3258 757.172 3451.2747 935.7007 3393.9926 908.1392 3498.1885 690.9606 Z" fill="none" stroke="#FBC20F" opacity="0.4291845493562232" stroke-width="1" class="hudson_heights"/>
<path d="M 3507.4779 761.7825 3511.1819 774.6581 3505.6484 783.8616 3498.2714 797.6662 3494.5889 812.388 3487.2081 821.5931 3477.067 844.5999 3466.9309 874.9671 3458.6338 895.2135 3461.4093 901.6516 3443.8719 916.3849 3446.6487 924.6634 3453.1125 922.8186 3436.4917 928.3508 3423.5639 932.0402 3435.5734 935.712 3412.4819 933.888 3398.6241 928.377 3389.3728 905.3821 3397.6708 884.2161 3410.59 868.5673 3417.0408 848.3232 3432.725 826.233 3441.9475 808.7475 3452.0944 793.1013 3461.3203 781.1356 3464.0743 759.056 3475.1493 750.7687 3485.3056 748.9212 3505.6253 754.4248 3507.4779 761.7825 Z" fill="none" stroke="#FBC20F" opacity="0.4291845493562232" stroke-width="1" class="hudson_heights"/></svg>