<?xml version="1.0"?><svg xmlns="http://www.w3.org/2000/svg" version="1.2" baseProfile="tiny" width="6000" height="5918" viewBox="0 0 6000 5918" stroke-linecap="round" stroke-linejoin="round"><path d="M 2929.0121 3827.0174 3073.2928 3788.2221 3104.6042 3914.6466 2990.4151 3937.2931 2990.1665 3865.7658 2957.7429 3881.4624 2929.0121 3827.0174 Z" fill="none" stroke="#12852D" opacity="0.29850746268656714" stroke-width="1" class="kensington"/>
<path d="M 3067.9534 3749.0046 3168.1124 4011.0744 3005.0373 4066.5101 2975.3222 3789.6295 3067.9534 3749.0046 Z" fill="none" stroke="#12852D" opacity="0.29850746268656714" stroke-width="1" class="kensington"/>
<path d="M 2884.9902 3847.5597 3066.9052 3748.8887 3067.8352 3760.4233 3114.8865 3972.679 3009.2273 4037.9203 2994.7219 3930.5304 2884.9902 3847.5597 Z" fill="none" stroke="#12852D" opacity="0.29850746268656714" stroke-width="1" class="kensington"/>
<path d="M 2983.6678 3808.0879 3190.0117 3733.419 3212.7616 3916.7844 3014.6987 4030.8713 2983.6678 3808.0879 Z" fill="none" stroke="#12852D" opacity="0.29850746268656714" stroke-width="1" class="kensington"/>
<path d="M 2977.1799 3795.1697 3067.0259 3745.3138 3134.7843 4088.6265 3021.7304 4100.6644 2977.1799 3795.1697 Z" fill="none" stroke="#12852D" opacity="0.29850746268656714" stroke-width="1" class="kensington"/>
<path d="M 3069.8061 3749.004 3072.5912 3767.459 3074.9143 3789.1444 3081.8702 3812.6744 3090.2223 3854.2006 3104.6069 3922.0302 3116.2077 3973.7127 3093.9748 3988.4889 3065.2553 4004.6514 3038.8521 4023.1202 3010.5928 4034.6661 3008.732 4005.5906 3005.9425 3967.7477 3000.3753 3936.3677 2993.8781 3889.2991 2982.7473 3833.9281 2982.7382 3794.2456 3014.2317 3777.6271 3042.9448 3760.0858 3069.8061 3749.004 Z" fill="none" stroke="#12852D" opacity="0.29850746268656714" stroke-width="1" class="kensington"/>
<path d="M 3129.2142 4062.7818 3023.5795 4084.9709 2982.7373 3790.5543 3061.4674 3744.3928 3139.4061 4059.0854 3129.2142 4062.7818 Z" fill="none" stroke="#12852D" opacity="0.29850746268656714" stroke-width="1" class="kensington"/>
<path d="M 3025.1157 3773.2408 3032.7645 3794.9249 3054.7682 3799.5326 3073.0618 3790.0678 3080.4818 3816.597 3090.6893 3865.0444 3102.5216 3920.5311 3025.9698 3931.1693 2995.8581 3935.2151 2987.6191 3867.6122 2981.9353 3827.8143 2977.0647 3797.8229 3025.1157 3773.2408 Z" fill="none" stroke="#12852D" opacity="0.29850746268656714" stroke-width="1" class="kensington"/>
<path d="M 2979.1503 3803.0133 2980.0767 3802.8978 3032.7646 3795.271 3037.4054 3825.6082 3055.1545 3926.6614 2997.7111 3935.0993 2992.3752 3900.6053 2988.4294 3866.1123 2984.2526 3833.2356 2981.0051 3811.6646 2980.1944 3810.9726 2979.1503 3803.0133 Z" fill="none" stroke="#12852D" opacity="0.29850746268656714" stroke-width="1" class="kensington"/>
<path d="M 2991.1179 3970.5203 2984.8536 3927.834 2882.9241 3846.866 3031.83 3766.0872 3042.2683 3822.6075 3064.5462 3959.8855 2991.1179 3970.5203 Z" fill="none" stroke="#12852D" opacity="0.29850746268656714" stroke-width="1" class="kensington"/>
<path d="M 3116.2058 3968.6362 3012.4462 4035.1272 2982.5339 3913.2981 2891.4931 3841.0969 2976.9486 3796.554 3030.9043 3768.6251 3062.3946 3747.1608 3116.2058 3968.6362 Z" fill="none" stroke="#12852D" opacity="0.29850746268656714" stroke-width="1" class="kensington"/>
<path d="M 3066.0998 3746.2369 3115.2823 3976.9436 3011.5203 4037.8966 2978.107 3797.938 3066.0998 3746.2369 Z" fill="none" stroke="#12852D" opacity="0.29850746268656714" stroke-width="1" class="kensington"/>
<path d="M 2979.0336 3798.8606 3197.6158 3686.2069 3241.258 3896.5904 3012.4462 4035.1272 2979.0336 3798.8606 Z" fill="none" stroke="#12852D" opacity="0.29850746268656714" stroke-width="1" class="kensington"/>
<path d="M 2906.8816 3841.6171 2904.4763 3838.7505 2903.5494 3835.7513 2967.9687 3805.436 3032.9042 3795.9884 3073.5038 3788.9884 3110.175 3954.1163 3012.7805 3969.5947 2906.8816 3841.6171 Z" fill="none" stroke="#12852D" opacity="0.29850746268656714" stroke-width="1" class="kensington"/>
<path d="M 3057.7919 3841.2908 3049.4449 3811.7618 2935.0312 3811.3279 2966.9865 3781.3296 3022.5666 3767.9353 3052.681 3790.5356 3057.3089 3777.1533 3060.085 3767.463 3061.704 3760.5415 3057.7919 3841.2908 Z" fill="none" stroke="#12852D" opacity="0.29850746268656714" stroke-width="1" class="kensington"/>
<path d="M 2866.9442 3861.634 3064.2481 3749.4672 3082.3396 3831.1314 3084.1946 3837.5908 3086.5156 3851.6639 3102.9844 3919.0312 3070.5573 3923.8877 2986.2451 3934.9866 2987.4034 3935.6786 2986.9414 3940.9858 2853.0485 3876.4018 2866.9442 3861.634 Z" fill="none" stroke="#12852D" opacity="0.29850746268656714" stroke-width="1" class="kensington"/>
<path d="M 3071.6717 3788.684 3122.7104 4017.5539 3013.3837 4076.6657 2976.2546 3799.7841 3037.3966 3795.1543 3055.9265 3800.6858 3071.6717 3788.684 Z" fill="none" stroke="#12852D" opacity="0.29850746268656714" stroke-width="1" class="kensington"/>
<path d="M 3029.9858 3797.0021 3075.4775 4094.1865 2768.7386 4098.8529 2727.0368 4097.0058 2706.6644 3854.2545 2706.6647 3849.6401 3029.9858 3797.0021 Z" fill="none" stroke="#12852D" opacity="0.29850746268656714" stroke-width="1" class="kensington"/>
<path d="M 3037.3966 3795.1543 3052.22 3797.9184 3072.5978 3787.7609 3125.4889 4013.8607 3008.7543 4092.3597 2989.2558 3932.6785 2882.6926 3847.7889 2965.1386 3804.4007 3037.3966 3795.1543 Z" fill="none" stroke="#12852D" opacity="0.29850746268656714" stroke-width="1" class="kensington"/>
<path d="M 3067.9564 3758.2325 3116.2024 3959.4063 2975.3873 4066.5208 2929.0273 3915.1547 3067.9564 3758.2325 Z" fill="none" stroke="#12852D" opacity="0.29850746268656714" stroke-width="1" class="kensington"/>
<path d="M 3063.3219 3749.9289 3173.5359 3695.4449 3218.1372 3984.284 2997.6285 4070.208 2911.4227 3911.4658 2878.9861 3842.2521 3063.3219 3749.9289 Z" fill="none" stroke="#12852D" opacity="0.29850746268656714" stroke-width="1" class="kensington"/>
<path d="M 2990.6546 3970.5204 2860.6911 3866.9413 2890.7983 3841.7891 3030.4412 3769.0867 3060.8401 3960.3482 2990.6546 3970.5204 Z" fill="none" stroke="#12852D" opacity="0.29850746268656714" stroke-width="1" class="kensington"/>
<path d="M 2861.3538 3860.7219 2966.0378 3807.2322 3073.7566 3790.2983 3115.1019 3974.9668 3001.3102 4044.3692 2861.3538 3860.7219 Z" fill="none" stroke="#12852D" opacity="0.29850746268656714" stroke-width="1" class="kensington"/>
<path d="M 3064.2488 3751.7742 3082.7982 3817.2883 3121.7643 3965.8651 3020.7835 4025.8944 2963.3017 3880.9998 2929.0117 3824.7103 3064.2488 3751.7742 Z" fill="none" stroke="#12852D" opacity="0.29850746268656714" stroke-width="1" class="kensington"/>
<path d="M 2983.2039 3805.3195 3034.6176 3796.0779 3054.0738 3801.1478 3076.3051 3792.8352 3093.4649 3854.1995 3105.5339 3923.4143 3057.356 3929.8911 2999.912 3936.3678 2996.1954 3893.9132 2985.5267 3833.9274 2983.2039 3805.3195 Z" fill="none" stroke="#12852D" opacity="0.29850746268656714" stroke-width="1" class="kensington"/>
<path d="M 3032.3012 3794.6943 3054.5368 3800.2248 3075.8407 3789.1441 3114.8168 3970.9442 2999.9385 4043.438 2966.065 3804.4005 3032.3012 3794.6943 Z" fill="none" stroke="#12852D" opacity="0.29850746268656714" stroke-width="1" class="kensington"/>
<path d="M 3204.1154 3719.4226 3217.1171 3788.6257 3219.0071 3866.1452 3264.4348 3923.3438 3018.9453 4082.2028 2986.4602 3864.3823 3079.0915 3814.521 3070.7447 3786.8387 3204.1154 3719.4226 Z" fill="none" stroke="#12852D" opacity="0.29850746268656714" stroke-width="1" class="kensington"/>
<path d="M 3072.5987 3790.5294 3071.6711 3786.8384 3112.0379 3973.2528 3012.4469 4037.8964 2979.9602 3799.7832 3075.3755 3783.1459 3113.6596 3973.7137 3072.5987 3790.5294 Z" fill="none" stroke="#12852D" opacity="0.29850746268656714" stroke-width="1" class="kensington"/>
<path d="M 2974.4009 3796.0931 3064.2479 3749.0058 3139.4302 4120.0111 2867.8974 4108.0786 2913.2625 3826.5586 2974.4009 3796.0931 Z" fill="none" stroke="#12852D" opacity="0.29850746268656714" stroke-width="1" class="kensington"/>
<path d="M 3114.3554 3976.0209 3010.5948 4042.5122 2985.5346 3868.0742 2944.7731 3887.4639 2881.766 3846.8661 3059.6161 3749.0073 3072.5843 3746.2348 3067.9561 3757.3097 3114.3554 3976.0209 Z" fill="none" stroke="#12852D" opacity="0.29850746268656714" stroke-width="1" class="kensington"/>
<path d="M 2980.8856 3795.1689 3067.0373 3781.303 3110.6288 3920.6436 2998.5201 3928.0615 2980.8856 3795.1689 Z" fill="none" stroke="#12852D" opacity="0.29850746268656714" stroke-width="1" class="kensington"/>
<path d="M 3099.4974 3883.7302 3110.1771 3952.2554 3085.856 3955.7251 3061.5348 3959.6557 2992.2762 3970.5201 2981.8382 3909.8372 2968.1494 3804.1693 2977.1801 3795.8618 3030.2093 3767.9332 3037.1604 3779.2357 3068.8842 3762.8462 3076.3038 3788.9132 3085.5803 3825.5931 3099.4974 3883.7302 Z" fill="none" stroke="#12852D" opacity="0.29850746268656714" stroke-width="1" class="kensington"/>
<path d="M 3013.9919 4042.3682 2973.9858 3799.8953 3077.7394 3785.1015 3117.7515 3973.8774 3013.9919 4042.3682 Z" fill="none" stroke="#12852D" opacity="0.29850746268656714" stroke-width="1" class="kensington"/>
<path d="M 3004.1071 4037.8985 2983.6703 3819.1621 3079.0832 3789.6044 3118.9856 3968.6352 3004.1071 4037.8985 Z" fill="none" stroke="#12852D" opacity="0.29850746268656714" stroke-width="1" class="kensington"/>
<path d="M 3069.8061 3749.004 3061.4752 3769.3082 3087.435 3831.1296 3114.351 3964.0219 3014.298 4029.5883 3008.7275 3988.0531 2995.7331 3897.605 2969.7697 3799.7855 2984.6008 3836.6963 3014.2313 3775.7814 2992.0087 3821.0059 2986.4475 3809.933 2980.8843 3789.6319 3069.8061 3749.004 Z" fill="none" stroke="#12852D" opacity="0.29850746268656714" stroke-width="1" class="kensington"/>
<path d="M 2987.3869 3865.305 2976.2544 3798.8612 3037.3961 3793.3086 3057.7788 3798.8395 3072.5975 3786.8381 3123.404 4014.0923 3018.9445 4079.2027 2995.7417 3933.1385 2987.3869 3865.305 Z" fill="none" stroke="#12852D" opacity="0.29850746268656714" stroke-width="1" class="kensington"/>
<path d="M 2977.1806 3797.9382 3067.0267 3748.0821 3111.5753 3975.0989 3012.4455 4032.358 2977.1806 3797.9382 Z" fill="none" stroke="#12852D" opacity="0.29850746268656714" stroke-width="1" class="kensington"/>
<path d="M 3162.5291 3954.773 3011.5207 4039.7428 2976.2558 3805.3211 3093.9022 3779.4484 3162.5291 3954.773 Z" fill="none" stroke="#12852D" opacity="0.29850746268656714" stroke-width="1" class="kensington"/>
<path d="M 3033.6911 3795.6168 3068.9621 4005.5732 3019.3962 4035.5869 3012.4473 4039.281 2980.4237 3801.1674 3033.6911 3795.6168 Z" fill="none" stroke="#12852D" opacity="0.29850746268656714" stroke-width="1" class="kensington"/>
<path d="M 2976.2541 3797.9384 3067.0288 3754.5416 3104.1319 3889.2661 3003.1626 3966.8254 2866.0184 3868.0944 2878.0602 3846.8666 2976.2541 3797.9384 Z" fill="none" stroke="#12852D" opacity="0.29850746268656714" stroke-width="1" class="kensington"/>
<path d="M 3067.9546 3752.6958 3154.2795 4172.6258 2987.4645 4195.7598 2868.7964 3854.2507 3067.9546 3752.6958 Z" fill="none" stroke="#12852D" opacity="0.29850746268656714" stroke-width="1" class="kensington"/>
<path d="M 2884.5473 3861.632 3047.5965 3826.528 3247.7492 3907.6623 3016.1454 4007.4347 2884.5473 3861.632 Z" fill="none" stroke="#12852D" opacity="0.29850746268656714" stroke-width="1" class="kensington"/>
<path d="M 3066.1008 3749.4666 3096.0238 3885.808 2981.6052 3903.8381 2980.912 3910.9911 2886.3971 3837.6368 3066.1008 3749.4666 Z" fill="none" stroke="#12852D" opacity="0.29850746268656714" stroke-width="1" class="kensington"/>
<path d="M 3102.7513 3914.878 3104.142 3917.4156 3064.7662 3923.1973 2990.4149 3936.6009 2980.6721 3874.7663 2976.4946 3837.621 2970.4653 3803.4767 3019.5588 3778.7792 3066.1032 3757.0796 3078.3975 3816.8284 3102.7513 3914.878 Z" fill="none" stroke="#12852D" opacity="0.29850746268656714" stroke-width="1" class="kensington"/>
<path d="M 2958.7773 3842.8159 2968.6201 3839.2377 2971.0535 3845.6973 2960.0527 3850.4294 2958.7773 3842.8159 Z" fill="none" stroke="#12852D" opacity="0.29850746268656714" stroke-width="1" class="kensington"/>
<path d="M 3064.2471 3746.2374 3112.4365 3796.9754 3078.1651 3814.5213 3109.7198 3968.6386 3070.8126 3997.2653 3012.4472 4038.8194 2938.2928 3916.076 2878.0606 3850.5581 3064.2471 3746.2374 Z" fill="none" stroke="#12852D" opacity="0.29850746268656714" stroke-width="1" class="kensington"/>
<path d="M 3126.6465 4012.245 3021.9559 4077.8173 2989.7032 3865.7659 3081.4067 3811.7517 3126.6465 4012.245 Z" fill="none" stroke="#12852D" opacity="0.29850746268656714" stroke-width="1" class="kensington"/>
<path d="M 3216.2766 3968.8246 3241.028 3899.8208 3265.3461 3894.5014 3278.3295 3917.1064 3284.1355 3944.7921 3286.6927 3961.4044 3274.6513 3969.0257 3272.0977 3958.6434 3216.2766 3968.8246 Z" fill="none" stroke="#12852D" opacity="0.29850746268656714" stroke-width="1" class="kensington"/>
<path d="M 3035.5955 3976.0467 3036.5104 3935.4351 3065.2199 3892.9709 3121.7316 3879.1075 3154.1786 3927.0874 3177.3686 3987.9947 3146.8061 4025.852 3113.457 4052.6338 3068.0559 4069.265 3044.875 4022.1954 3035.6015 3997.276 3035.5955 3976.0467 Z" fill="none" stroke="#12852D" opacity="0.29850746268656714" stroke-width="1" class="kensington"/>
<path d="M 2980.8856 3795.1689 3071.658 3746.2351 3160.6771 3957.5428 3022.6421 4045.2782 2980.8856 3795.1689 Z" fill="none" stroke="#12852D" opacity="0.29850746268656714" stroke-width="1" class="kensington"/>
<path d="M 2966.9918 3806.2459 3070.7483 3797.9126 3104.1606 3969.5636 3002.2526 4033.2837 2966.9918 3806.2459 Z" fill="none" stroke="#12852D" opacity="0.29850746268656714" stroke-width="1" class="kensington"/>
<path d="M 3067.9575 3761.9237 3113.4278 3973.2522 3012.4462 4035.1272 2979.0351 3805.3205 3067.9575 3761.9237 Z" fill="none" stroke="#12852D" opacity="0.29850746268656714" stroke-width="1" class="kensington"/>
<path d="M 3029.0527 3773.009 3067.1074 4000.9586 3001.3262 4034.207 2843.7839 3881.0172 2866.9437 3857.0196 3029.0527 3773.009 Z" fill="none" stroke="#12852D" opacity="0.29850746268656714" stroke-width="1" class="kensington"/>
<path d="M 3065.2921 3755.465 3073.8721 3789.1447 3114.8176 3973.1364 2999.8228 4043.8995 2982.5336 3911.9136 2891.6089 3841.3276 2962.2435 3804.5166 3061.5858 3752.5824 3065.2921 3755.465 Z" fill="none" stroke="#12852D" opacity="0.29850746268656714" stroke-width="1" class="kensington"/>
<path d="M 3074.2193 3788.5678 3114.8178 3973.5979 3001.0969 4043.5531 2967.1072 3804.4002 3032.5329 3794.925 3055.1152 3798.3789 3074.2193 3788.5678 Z" fill="none" stroke="#12852D" opacity="0.29850746268656714" stroke-width="1" class="kensington"/>
<path d="M 3125.4875 4010.1686 3029.1358 4071.1228 3018.0162 4072.972 2996.6535 3872.686 3010.5477 3860.6848 3084.6498 3813.5963 3125.4875 4010.1686 Z" fill="none" stroke="#12852D" opacity="0.29850746268656714" stroke-width="1" class="kensington"/>
<path d="M 2881.7659 3845.9432 3065.1743 3749.0055 3112.4992 3967.7146 3108.7899 3959.409 3134.78 4077.5492 3021.7302 4099.7413 2983.6946 3924.3732 2881.7659 3845.9432 Z" fill="none" stroke="#12852D" opacity="0.29850746268656714" stroke-width="1" class="kensington"/>
<path d="M 2882.6926 3847.7889 3029.9789 3772.0859 3077.3013 4004.6475 3075.4502 4011.1093 2938.3306 4122.8386 2786.3426 3941.0115 2882.6926 3847.7889 Z" fill="none" stroke="#12852D" opacity="0.29850746268656714" stroke-width="1" class="kensington"/>
<path d="M 3147.6361 3786.8107 3185.6075 3761.8787 3176.361 3801.564 3220.9517 4056.2804 3018.0201 4087.7417 2983.6818 3868.9975 3147.6361 3786.8107 Z" fill="none" stroke="#12852D" opacity="0.29850746268656714" stroke-width="1" class="kensington"/>
<path d="M 2970.6957 3797.9396 3080.0054 3776.6847 3139.4189 4091.394 3025.4398 4109.8947 2970.6957 3797.9396 Z" fill="none" stroke="#12852D" opacity="0.29850746268656714" stroke-width="1" class="kensington"/>
<path d="M 3004.5523 3966.3635 3108.3231 3949.7178 3156.4922 3920.6257 3156.0269 3915.5497 3178.7696 4013.3774 3023.1102 4062.8166 3004.5523 3966.3635 Z" fill="none" stroke="#12852D" opacity="0.29850746268656714" stroke-width="1" class="kensington"/>
<path d="M 2979.0323 3793.3236 3028.1258 3771.1636 3054.9854 3752.6998 3069.8076 3753.618 3075.3731 3775.7634 3093.002 3855.1225 3099.5134 3928.9542 3101.3697 3938.1831 3113.4244 3964.0223 3102.3111 3979.7173 3019.8544 4016.6642 2985.5767 4048.9799 2970.7532 4062.8294 2883.6194 3850.5574 2979.0323 3793.3236 Z" fill="none" stroke="#12852D" opacity="0.29850746268656714" stroke-width="1" class="kensington"/>
<path d="M 3019.64 4080.818 3013.1415 4036.2808 3002.0228 4040.6682 2968.4969 3804.6307 3031.6062 3794.0024 3054.5365 3799.302 3078.1558 3786.3748 3124.5619 4012.938 3019.64 4080.818 Z" fill="none" stroke="#12852D" opacity="0.29850746268656714" stroke-width="1" class="kensington"/>
<path d="M 3027.199 3769.3183 3198.5396 3680.6701 3216.2259 3862.4549 3352.5251 4034.9772 3022.6526 4084.048 2864.1647 3860.7114 3027.199 3769.3183 Z" fill="none" stroke="#12852D" opacity="0.29850746268656714" stroke-width="1" class="kensington"/>
<path d="M 3077.23 3788.3131 3124.8872 4015.5224 3019.2696 4082.0181 2978.4322 3802.183 3032.9036 3795.5247 3055.1384 3798.4712 3077.23 3788.3131 Z" fill="none" stroke="#12852D" opacity="0.29850746268656714" stroke-width="1" class="kensington"/>
<path d="M 2978.1064 3795.1695 3066.1007 3749.0052 3115.281 3973.2516 3141.2844 4121.8566 3029.1544 4137.5881 2977.1808 3798.861 2978.1064 3795.1695 Z" fill="none" stroke="#12852D" opacity="0.29850746268656714" stroke-width="1" class="kensington"/>
<path d="M 2980.8864 3798.8602 3067.4911 3751.7731 3096.2558 3886.9616 2983.2264 3902.9148 2980.8864 3798.8602 Z" fill="none" stroke="#12852D" opacity="0.29850746268656714" stroke-width="1" class="kensington"/>
<path d="M 3086.8601 3872.979 3093.5822 3852.959 3114.9352 3972.9342 3022.2921 4029.2687 2989.8235 3876.9847 3047.2605 3858.5113 3084.3181 3854.808 3086.8601 3872.979 Z" fill="none" stroke="#12852D" opacity="0.29850746268656714" stroke-width="1" class="kensington"/>
<path d="M 2964.2104 3796.0953 3061.47 3752.6978 3078.1639 3810.8299 3117.1345 3974.1739 3013.3733 4036.9731 2964.2104 3796.0953 Z" fill="none" stroke="#12852D" opacity="0.29850746268656714" stroke-width="1" class="kensington"/>
<path d="M 3065.1764 3755.465 3072.1968 3789.4692 3035.8374 3796.6322 3075.7069 4082.7269 3019.0918 4089.8033 2976.2545 3799.3226 3065.1764 3755.465 Z" fill="none" stroke="#12852D" opacity="0.29850746268656714" stroke-width="1" class="kensington"/>
<path d="M 3080.0184 3815.905 3070.2822 3788.9152 3113.8889 3967.2526 3103.2352 3972.7944 3084.2447 3986.1847 3049.0393 4003.7333 3010.1296 4035.1278 2973.9396 3804.8602 3080.0184 3815.905 Z" fill="none" stroke="#12852D" opacity="0.29850746268656714" stroke-width="1" class="kensington"/>
<path d="M 2979.0342 3801.6291 3076.3037 3788.6825 3114.5861 3973.4826 3064.3283 4003.2671 3061.7775 3994.9606 2995.2959 4004.9017 2981.607 3911.4524 2892.6512 3841.0967 2956.8012 3806.2481 2979.0342 3801.6291 Z" fill="none" stroke="#12852D" opacity="0.29850746268656714" stroke-width="1" class="kensington"/>
<path d="M 3014.0941 4032.8828 3116.6715 3975.0971 3118.0642 3982.4806 3132.227 4066.8427 3022.5074 4088.5833 2979.5028 4046.1742 2957.231 3888.3466 2983.1537 3804.3589 3063.7391 3762.8101 3116.0033 3974.6995 3014.0941 4032.8828 Z" fill="none" stroke="#12852D" opacity="0.29850746268656714" stroke-width="1" class="kensington"/>
<path d="M 3067.9531 3748.0818 3114.354 3972.3289 3000.4019 4043.4379 2820.6228 3901.3232 3067.9531 3748.0818 Z" fill="none" stroke="#12852D" opacity="0.29850746268656714" stroke-width="1" class="kensington"/>
<path d="M 3113.4278 3973.2522 3011.5188 4032.3583 2978.3398 3803.2442 3076.304 3789.3746 3113.4278 3973.2522 Z" fill="none" stroke="#12852D" opacity="0.29850746268656714" stroke-width="1" class="kensington"/>
<path d="M 3064.2485 3750.8514 3136.1739 4087.472 3021.7313 4104.1261 2986.4598 3862.5366 2959.5978 3891.1526 2892.8828 3841.3274 3064.2485 3750.8514 Z" fill="none" stroke="#12852D" opacity="0.29850746268656714" stroke-width="1" class="kensington"/>
<path d="M 2978.1074 3799.7836 3071.6604 3753.6174 3211.5474 3764.6353 3201.3177 3678.8234 2984.6094 3873.6118 2978.1074 3799.7836 Z" fill="none" stroke="#12852D" opacity="0.29850746268656714" stroke-width="1" class="kensington"/>
<path d="M 3192.0584 3687.1322 3217.1176 3789.5486 3218.9916 3833.8443 3198.6115 3837.5453 3231.1427 4051.6601 3132.923 4068.3189 3063.323 3753.62 3192.0584 3687.1322 Z" fill="none" stroke="#12852D" opacity="0.29850746268656714" stroke-width="1" class="kensington"/>
<path d="M 2871.5762 3857.942 2977.1799 3795.1697 3031.8301 3766.5486 3068.0331 3998.1893 3012.4452 4031.4349 2985.5342 3866.2284 2936.4394 3914.2305 2871.5762 3857.942 Z" fill="none" stroke="#12852D" opacity="0.29850746268656714" stroke-width="1" class="kensington"/>
<path d="M 3012.4455 4032.358 2981.8722 4058.2115 2939.22 3919.7676 2865.0911 3859.7884 2969.7695 3798.8627 3033.6915 3797.001 3050.3669 3796.9961 3076.3031 3786.8369 3142.2144 4130.1646 3031.0169 4169.8988 3012.4455 4032.358 Z" fill="none" stroke="#12852D" opacity="0.29850746268656714" stroke-width="1" class="kensington"/>
<path d="M 3067.0288 3754.5416 3008.6803 3804.3905 3006.8258 3797.9311 3067.0288 3754.5416 Z" fill="none" stroke="#12852D" opacity="0.29850746268656714" stroke-width="1" class="kensington"/>
<path d="M 2915.3728 3843.3129 3068.2082 3749.1476 3129.4325 3967.8513 3008.994 4033.425 2915.3728 3843.3129 Z" fill="none" stroke="#12852D" opacity="0.29850746268656714" stroke-width="1" class="kensington"/>
<path d="M 2867.8705 3859.7881 3023.4919 3763.7825 3060.6168 3987.1153 2977.2378 4053.5972 2869.7601 4192.0872 2673.2948 4025.9244 2867.8705 3859.7881 Z" fill="none" stroke="#12852D" opacity="0.29850746268656714" stroke-width="1" class="kensington"/>
<path d="M 3129.2142 4062.7818 3010.6056 4084.0512 2979.9598 3797.9376 3032.7567 3767.4711 3033.685 3773.9305 3062.3964 3752.6975 3129.2142 4062.7818 Z" fill="none" stroke="#12852D" opacity="0.29850746268656714" stroke-width="1" class="kensington"/>
<path d="M 2978.107 3797.938 3017.0107 3776.7035 3019.3321 3797.005 3037.3965 3794.6929 3051.6804 3928.0469 2995.0473 3934.9845 2977.6432 3795.631 2978.107 3797.938 Z" fill="none" stroke="#12852D" opacity="0.29850746268656714" stroke-width="1" class="kensington"/>
<path d="M 2988.3136 3866.2277 2990.6296 3865.3043 3039.9567 3838.0661 3065.7185 4004.1897 3008.7396 4035.1282 2988.3136 3866.2277 Z" fill="none" stroke="#12852D" opacity="0.29850746268656714" stroke-width="1" class="kensington"/>
<path d="M 3066.1015 3751.7736 3112.5012 3973.2526 2996.6953 4043.4388 2976.2539 3797.0156 3066.1015 3751.7736 Z" fill="none" stroke="#12852D" opacity="0.29850746268656714" stroke-width="1" class="kensington"/>
<path d="M 2976.2552 3802.5526 3037.3958 3792.3858 3054.9995 3798.8404 3057.7774 3794.2254 3070.7444 3785.9159 3114.3544 3973.2519 3136.6381 4089.5489 3019.8785 4106.2037 2976.2552 3802.5526 Z" fill="none" stroke="#12852D" opacity="0.29850746268656714" stroke-width="1" class="kensington"/>
<path d="M 3019.8718 4081.2795 2871.5762 3857.942 3027.201 3776.7007 3068.5128 4049.1877 3019.8718 4081.2795 Z" fill="none" stroke="#12852D" opacity="0.29850746268656714" stroke-width="1" class="kensington"/>
<path d="M 3074.2193 3788.5678 3100.432 3906.5723 3114.3542 3972.7904 3001.3286 4043.8992 2986.4788 3943.7548 2967.9178 3804.4001 3033.2277 3794.9248 3053.1465 3798.1488 3072.8297 3788.6837 3074.2193 3788.5678 Z" fill="none" stroke="#12852D" opacity="0.29850746268656714" stroke-width="1" class="kensington"/>
<path d="M 3175.3962 3712.9762 3210.6171 3756.3305 3250.5278 3905.815 3018.0051 4031.4335 2974.403 3805.3215 2989.2172 3769.328 3175.3962 3712.9762 Z" fill="none" stroke="#12852D" opacity="0.29850746268656714" stroke-width="1" class="kensington"/>
<path d="M 3050.3675 3798.8418 3060.1451 3960.1177 2993.4345 3970.9813 2978.587 3872.6903 2963.7495 3806.9388 2974.4021 3801.6301 3050.3675 3798.8418 Z" fill="none" stroke="#12852D" opacity="0.29850746268656714" stroke-width="1" class="kensington"/>
<path d="M 2976.2541 3797.9384 3067.9528 3747.1591 3114.3544 3973.2519 3012.4464 4036.0503 2868.7971 3860.7109 2976.2541 3797.9384 Z" fill="none" stroke="#12852D" opacity="0.29850746268656714" stroke-width="1" class="kensington"/>
<path d="M 3066.5634 3747.6209 3114.3535 3970.9444 3109.258 3972.7923 3012.9093 4034.204 2973.0116 3797.4777 3066.5634 3747.6209 Z" fill="none" stroke="#12852D" opacity="0.29850746268656714" stroke-width="1" class="kensington"/>
<path d="M 2982.7412 3807.1653 3076.2901 3747.1563 3136.5888 3964.0135 3016.6165 4036.5107 2982.7412 3807.1653 Z" fill="none" stroke="#12852D" opacity="0.29850746268656714" stroke-width="1" class="kensington"/>
<path d="M 3088.3523 3804.3666 3136.6109 4020.3177 3014.3116 4081.2809 2882.7106 3992.6922 2951.2626 3907.7671 3088.3523 3804.3666 Z" fill="none" stroke="#12852D" opacity="0.29850746268656714" stroke-width="1" class="kensington"/>
<path d="M 3060.0809 3754.0824 3067.0289 3754.7723 3095.7925 3886.731 2981.6051 3903.3767 2967.2231 3804.8616 2958.8857 3806.7091 3017.9369 3776.2419 3027.4312 3771.6252 3060.0809 3754.0824 Z" fill="none" stroke="#12852D" opacity="0.29850746268656714" stroke-width="1" class="kensington"/>
<path d="M 3066.101 3749.928 3123.636 4014.7845 3016.1648 4080.3574 2984.6511 4053.5955 3012.4464 4036.0503 2978.1066 3796.0923 3066.101 3749.928 Z" fill="none" stroke="#12852D" opacity="0.29850746268656714" stroke-width="1" class="kensington"/>
<path d="M 3053.1465 3798.1488 3056.8521 3797.917 3074.2192 3788.4525 3114.5865 3974.4056 3000.6336 4043.8993 2982.5338 3912.8366 2891.0299 3841.097 2965.3699 3803.2471 2967.4546 3804.1695 3033.2276 3794.4634 3053.1465 3798.1488 Z" fill="none" stroke="#12852D" opacity="0.29850746268656714" stroke-width="1" class="kensington"/>
<path d="M 2877.1352 3859.7871 3067.9693 3798.8363 3153.3213 4096.004 2967.9961 4169.9144 2877.1352 3859.7871 Z" fill="none" stroke="#12852D" opacity="0.29850746268656714" stroke-width="1" class="kensington"/>
<path d="M 2987.8504 3866.4585 3143.4651 3781.2755 3182.9231 3976.4546 3018.4814 4079.8952 2987.8504 3866.4585 Z" fill="none" stroke="#12852D" opacity="0.29850746268656714" stroke-width="1" class="kensington"/>
<path d="M 3019.64 4080.818 2970.6957 3797.9396 3074.4503 3786.8375 3126.1839 4014.0912 3019.64 4080.818 Z" fill="none" stroke="#12852D" opacity="0.29850746268656714" stroke-width="1" class="kensington"/>
<path d="M 3116.2082 3975.0972 3010.5982 4055.4353 2988.316 3876.3796 3092.0752 3854.2 3116.2082 3975.0972 Z" fill="none" stroke="#12852D" opacity="0.29850746268656714" stroke-width="1" class="kensington"/>
<path d="M 2987.3871 3866.2279 3216.2112 3831.5385 3240.3301 3893.8221 3011.9836 4037.8965 2986.9244 3868.5353 2987.3871 3866.2279 Z" fill="none" stroke="#12852D" opacity="0.29850746268656714" stroke-width="1" class="kensington"/>
<path d="M 2956.3324 3779.0247 3031.3673 3767.9329 3063.8653 4004.1903 2982.7985 4056.8267 2956.3324 3779.0247 Z" fill="none" stroke="#12852D" opacity="0.29850746268656714" stroke-width="1" class="kensington"/>
<path d="M 2882.6925 3846.866 2972.5501 3805.3219 3034.6169 3793.3094 3053.1462 3796.9953 3202.7275 3722.8836 3223.6203 3826.4591 3222.7046 3848.6085 3106.9217 3917.8761 2994.8128 3923.4476 2992.0361 3935.4468 2977.1973 3872.6906 2962.3774 3891.1521 2882.6925 3846.866 Z" fill="none" stroke="#12852D" opacity="0.29850746268656714" stroke-width="1" class="kensington"/>
<path d="M 2880.8401 3851.4807 2972.5475 3793.3251 3201.3381 3723.1149 3239.4054 3897.5143 3007.8132 4036.0515 2880.8401 3851.4807 Z" fill="none" stroke="#12852D" opacity="0.29850746268656714" stroke-width="1" class="kensington"/>
<path d="M 3148.7143 4161.5498 3143.1401 4127.3948 3146.8537 4144.0102 3148.7143 4161.5498 Z" fill="none" stroke="#12852D" opacity="0.29850746268656714" stroke-width="1" class="kensington"/>
<path d="M 2978.2009 3803.5211 3036.748 3794.8776 3067.0153 4002.897 3001.0508 4044.6377 2989.1689 3956.7682 2866.6663 3861.8648 2978.2009 3803.5211 Z" fill="none" stroke="#12852D" opacity="0.29850746268656714" stroke-width="1" class="kensington"/>
<path d="M 3075.3776 3789.6056 3109.7218 3974.1766 3014.3012 4041.5882 2986.4615 3869.9197 2952.1865 3894.8458 2877.1338 3847.7896 2979.9596 3797.0147 3075.3776 3789.6056 Z" fill="none" stroke="#12852D" opacity="0.29850746268656714" stroke-width="1" class="kensington"/>
<path d="M 3102.2665 3854.5425 2910.6032 3854.1299 2925.5434 3859.4341 3091.7017 3778.6417 3102.2665 3854.5425 Z" fill="none" stroke="#12852D" opacity="0.29850746268656714" stroke-width="1" class="kensington"/>
<path d="M 3030.9042 3768.3944 3066.1817 4003.728 2997.6221 4044.3616 2986.4766 3934.5251 2883.6191 3847.7888 2890.1031 3838.5592 3030.9042 3768.3944 Z" fill="none" stroke="#12852D" opacity="0.29850746268656714" stroke-width="1" class="kensington"/>
<path d="M 3061.2378 3750.8523 3059.8482 3750.6221 3064.711 3748.775 3114.8176 3973.021 3001.3286 4043.6684 2990.8863 3970.5204 2989.2615 3956.6759 2937.1346 3915.8455 2868.7972 3861.4031 2883.1558 3847.7888 2890.335 3841.0971 2952.4013 3809.4789 3061.2378 3750.8523 Z" fill="none" stroke="#12852D" opacity="0.29850746268656714" stroke-width="1" class="kensington"/>
<path d="M 3122.1278 4008.3238 3000.9875 4069.284 2992.723 3901.9897 3094.8656 3885.5777 3122.1278 4008.3238 Z" fill="none" stroke="#12852D" opacity="0.29850746268656714" stroke-width="1" class="kensington"/>
<path d="M 2890.7982 3840.6356 3059.3855 3752.0064 3066.7977 3756.1566 3114.5857 3972.3288 3001.3283 4042.7453 2984.6218 3926.9111 2884.5455 3847.3272 2890.7982 3840.6356 Z" fill="none" stroke="#12852D" opacity="0.29850746268656714" stroke-width="1" class="kensington"/>
<path d="M 3028.1258 3771.1636 3051.3179 3878.2085 3049.4702 3895.7445 3086.617 4150.4947 3072.6847 4055.4171 2874.3815 4083.1536 2787.2695 3953.9331 2698.3149 4013.0038 3028.1258 3771.1636 Z" fill="none" stroke="#12852D" opacity="0.29850746268656714" stroke-width="1" class="kensington"/>
<path d="M 3067.9525 3746.2363 3114.3557 3976.9439 3011.5198 4036.0505 2988.3132 3864.3819 2948.4789 3886.5402 2894.7357 3841.3272 3067.9525 3746.2363 Z" fill="none" stroke="#12852D" opacity="0.29850746268656714" stroke-width="1" class="kensington"/>
<path d="M 3205.0657 3771.0979 3225.4489 3776.6251 3284.8212 3927.9476 3257.1411 4151.3446 3170.0328 4168.0032 3042.1383 4169.8956 3016.1513 4029.5879 2999.4339 3876.377 3205.0657 3771.0979 Z" fill="none" stroke="#12852D" opacity="0.29850746268656714" stroke-width="1" class="kensington"/>
<path d="M 3012.4467 4036.9733 2969.6413 3741.7641 3053.6952 3698.8339 3114.3546 3973.7134 3012.4467 4036.9733 Z" fill="none" stroke="#12852D" opacity="0.29850746268656714" stroke-width="1" class="kensington"/>
<path d="M 2926.8113 3824.2492 2932.3692 3819.7493 2948.6959 3811.3253 2964.0963 3804.2855 2985.0538 3792.3994 3005.664 3782.9355 3020.2528 3775.7798 3034.6088 3764.8175 3042.5973 3759.8552 3047.5761 3758.2388 3065.3042 3793.4156 3059.0521 3797.3395 3071.3344 3819.9453 3070.9947 3843.8246 3073.3174 3863.8966 3077.2635 3889.7368 3081.9072 3923.3071 3086.4355 3956.994 3075.549 3958.959 3060.9561 3960.925 3046.0157 3962.8909 3025.5158 3965.0889 3014.8607 3967.2839 3003.5105 3968.5559 2991.6971 3970.8663 2988.7976 3954.2531 2986.3614 3936.9479 2982.3 3903.3765 2977.1973 3872.8059 2974.6452 3853.6564 2972.2093 3835.3148 2965.2543 3804.1699 2926.8113 3824.2492 Z" fill="none" stroke="#12852D" opacity="0.29850746268656714" stroke-width="1" class="kensington"/>
<path d="M 2980.8805 3773.0212 3061.9377 3767.001 3068.4148 3743.4678 3074.4416 3760.076 3070.7379 3765.614 3147.6764 3886.4807 3265.4429 4077.4891 2955.9401 4131.1436 2749.2803 3949.3183 2949.3919 3817.3237 2980.8805 3773.0212 Z" fill="none" stroke="#12852D" opacity="0.29850746268656714" stroke-width="1" class="kensington"/>
<path d="M 3114.8172 3971.8672 3003.6449 4042.514 2987.8664 3934.5248 2893.8091 3840.4044 3064.7129 3754.5424 3114.8172 3971.8672 Z" fill="none" stroke="#12852D" opacity="0.29850746268656714" stroke-width="1" class="kensington"/>
<path d="M 3064.2491 3752.6969 3067.7242 3756.6177 3115.513 3974.4052 3013.6053 4038.1268 2980.8875 3803.4744 3064.2491 3752.6969 Z" fill="none" stroke="#12852D" opacity="0.29850746268656714" stroke-width="1" class="kensington"/>
<path d="M 2986.4604 3865.3052 3052.2253 3815.4524 3073.5338 3817.2914 3091.1424 3835.7427 3093.9336 3869.8885 3118.0662 3988.0187 3048.5811 4020.8097 3010.1299 4036.5124 2997.1562 4033.7465 2986.9456 3958.9839 2980.4435 3887.9179 2986.4604 3865.3052 Z" fill="none" stroke="#12852D" opacity="0.29850746268656714" stroke-width="1" class="kensington"/>
<path d="M 3180.0367 3733.2749 3160.5899 3748.9704 3146.6963 3753.5901 3137.5546 4063.7016 3021.7254 4082.2021 2963.2844 3797.9412 3180.0367 3733.2749 Z" fill="none" stroke="#12852D" opacity="0.29850746268656714" stroke-width="1" class="kensington"/>
<path d="M 2973.4755 3800.7075 3065.1892 3796.0687 3137.5502 4052.6246 3021.7244 4078.5097 2973.4755 3800.7075 Z" fill="none" stroke="#12852D" opacity="0.29850746268656714" stroke-width="1" class="kensington"/>
<path d="M 2975.329 3803.4756 3034.6171 3794.2323 3065.2554 4004.8821 3002.9502 4043.668 2821.5493 3901.3231 2891.0293 3836.7133 2975.329 3803.4756 Z" fill="none" stroke="#12852D" opacity="0.29850746268656714" stroke-width="1" class="kensington"/>
<path d="M 3081.872 3818.2115 3116.2082 3975.0972 2977.2382 4055.4433 2935.5111 3904.0783 3081.872 3818.2115 Z" fill="none" stroke="#12852D" opacity="0.29850746268656714" stroke-width="1" class="kensington"/>
<path d="M 3122.941 4014.7847 3018.7133 4080.8182 3003.163 3968.6714 2997.3638 3935.4455 2994.1125 3901.0664 2989.4719 3866.9196 2948.2472 3886.0788 2893.1145 3841.5581 2972.0857 3799.785 3060.0809 3754.0824 3065.6403 3758.0026 3084.1956 3840.3594 3122.941 4014.7847 Z" fill="none" stroke="#12852D" opacity="0.29850746268656714" stroke-width="1" class="kensington"/>
<path d="M 2952.1849 3886.5395 3042.0408 3836.6812 3065.2553 4004.6514 3001.3277 4040.2069 2952.1849 3886.5395 Z" fill="none" stroke="#12852D" opacity="0.29850746268656714" stroke-width="1" class="kensington"/>
<path d="M 3064.2479 3749.0058 3186.0711 3762.8013 3197.2213 3836.3924 3007.1098 4003.2834 2976.2537 3796.0927 3064.2479 3749.0058 Z" fill="none" stroke="#12852D" opacity="0.29850746268656714" stroke-width="1" class="kensington"/>
<path d="M 3099.7405 3916.2635 2994.584 3934.7539 2989.935 3866.458 3079.7861 3813.8286 3099.7405 3916.2635 Z" fill="none" stroke="#12852D" opacity="0.29850746268656714" stroke-width="1" class="kensington"/>
<path d="M 3078.1568 3789.6047 3012.9101 4037.4347 3011.0569 4037.8967 3018.9447 4079.8951 3124.5636 4017.5532 3113.8916 3974.6366 3009.2038 4038.3588 2963.2857 3804.401 3078.1568 3789.6047 Z" fill="none" stroke="#12852D" opacity="0.29850746268656714" stroke-width="1" class="kensington"/>
<path d="M 3006.3209 3914.6038 3067.7041 4047.5659 3069.7976 4048.5565 3074.6635 4051.4395 3079.1057 4052.9137 3081.6187 4055.4105 3039.9236 4072.0392 3026.947 4060.9657 3026.0114 4028.6585 3027.6587 4014.2815 3016.5346 3996.7469 3011.8919 3959.8278 3006.3209 3914.6038 Z" fill="none" stroke="#12852D" opacity="0.29850746268656714" stroke-width="1" class="kensington"/>
<path d="M 2980.8862 3797.9374 3074.4361 3743.4658 3120.8408 3974.1725 3016.154 4039.7415 2980.8862 3797.9374 Z" fill="none" stroke="#12852D" opacity="0.29850746268656714" stroke-width="1" class="kensington"/>
<path d="M 3065.1755 3752.6967 3113.8908 3972.3291 3000.8651 4042.9762 2975.3444 3873.1524 2965.6177 3879.6149 2955.8918 3891.1534 2890.1033 3840.4049 3065.1755 3752.6967 Z" fill="none" stroke="#12852D" opacity="0.29850746268656714" stroke-width="1" class="kensington"/>
<path d="M 2868.5654 3860.0188 3030.4413 3769.3174 3057.3656 3961.0415 2991.3492 3969.1358 2868.5654 3860.0188 Z" fill="none" stroke="#12852D" opacity="0.29850746268656714" stroke-width="1" class="kensington"/>
<path d="M 2982.7382 3794.2456 3215.2525 3763.7107 3250.6007 4047.958 3019.8715 4080.3564 2970.7594 4091.4456 2932.7163 3818.2496 2982.7382 3794.2456 Z" fill="none" stroke="#12852D" opacity="0.29850746268656714" stroke-width="1" class="kensington"/>
<path d="M 3024.4231 3781.3156 3081.9783 4135.7256 2857.7113 4188.3956 2828.0348 3899.9383 3024.4231 3781.3156 Z" fill="none" stroke="#12852D" opacity="0.29850746268656714" stroke-width="1" class="kensington"/>
<path d="M 3110.4348 4023.7891 2982.8031 4076.6732 2888.2511 3845.481 3049.4413 3799.7649 3088.3689 3852.8169 3110.4348 4023.7891 Z" fill="none" stroke="#12852D" opacity="0.29850746268656714" stroke-width="1" class="kensington"/>
<path d="M 2988.3136 3866.2277 3079.5553 3816.3666 3116.6758 3986.6347 3132.2226 4054.2421 3075.4675 4063.9548 3078.0218 4081.7236 3019.6424 4089.8183 3017.5534 4075.2799 3012.4466 4036.5118 2988.3136 3866.2277 Z" fill="none" stroke="#12852D" opacity="0.29850746268656714" stroke-width="1" class="kensington"/>
<path d="M 2975.3925 3793.5616 3058.3906 3749.2752 3067.0952 3756.6244 3118.1276 3976.2567 3014.3658 4037.21 2975.3925 3793.5616 Z" fill="none" stroke="#12852D" opacity="0.29850746268656714" stroke-width="1" class="kensington"/>
<path d="M 3064.2487 3751.3128 3070.2747 3765.6142 3073.9861 3783.6078 3074.9144 3789.6058 3119.8354 3763.7513 3127.7193 3789.1256 3126.7977 3801.5842 3127.7278 3811.2737 3128.1951 3821.8863 3133.7629 3845.4172 3090.6854 3853.739 3102.7522 3917.6468 3109.9457 3952.9477 3114.5862 3973.7133 3068.0343 4001.8814 3066.1815 4003.2665 3061.3033 3960.1173 3056.4292 3928.9684 3052.249 3893.4364 3048.3014 3860.2128 3006.1482 3865.7619 2995.4934 3864.6109 2993.4083 3862.3042 3041.5775 3836.4506 3031.8314 3771.1626 3061.933 3752.2363 3064.2487 3751.3128 Z" fill="none" stroke="#12852D" opacity="0.29850746268656714" stroke-width="1" class="kensington"/>
<path d="M 3064.2474 3747.1602 3114.3544 3973.2519 3009.6663 4035.1279 2974.4007 3795.1703 3064.2474 3747.1602 Z" fill="none" stroke="#12852D" opacity="0.29850746268656714" stroke-width="1" class="kensington"/>
<path d="M 3073.988 3789.6061 3114.8172 3971.8672 3067.1077 4001.8817 2984.1878 4053.5956 2948.0578 4104.8356 2893.3754 4058.2276 2870.1866 3858.865 2959.1173 3806.709 3034.1543 3795.6166 3054.5362 3798.3791 3073.988 3789.6061 Z" fill="none" stroke="#12852D" opacity="0.29850746268656714" stroke-width="1" class="kensington"/>
<path d="M 3073.7562 3788.9141 3079.7865 3814.9822 3089.295 3851.663 3082.5788 3853.7417 3086.2962 3887.8879 3096.048 3955.2601 3063.1564 3959.886 2989.7282 3970.9822 2986.9419 3943.2932 2966.7858 3926.6843 2935.974 3902.2323 2875.1659 3854.3653 2889.9876 3841.4432 2975.7905 3796.0928 2968.5993 3742.341 3007.2698 3722.7231 3005.4146 3712.8039 3031.136 3769.0865 3058.4598 3754.3136 3065.6397 3755.9263 3073.7562 3788.9141 Z" fill="none" stroke="#12852D" opacity="0.29850746268656714" stroke-width="1" class="kensington"/>
<path d="M 2973.4763 3804.3989 3066.1142 3791.4543 3111.576 3976.9449 3007.8118 4030.5131 2973.4763 3804.3989 Z" fill="none" stroke="#12852D" opacity="0.29850746268656714" stroke-width="1" class="kensington"/>
<path d="M 2970.6985 3810.8594 2928.9562 3503.6096 3382.7253 3454.5284 3479.3131 3819.8407 3475.1324 4421.735 2924.449 4238.2415 2970.6985 3810.8594 Z" fill="none" stroke="#12852D" opacity="0.29850746268656714" stroke-width="1" class="kensington"/>
<path d="M 3063.3224 3751.7745 3115.2799 3970.4826 2999.4748 4041.592 2982.7672 3920.6816 2884.5449 3843.1743 3063.3224 3751.7745 Z" fill="none" stroke="#12852D" opacity="0.29850746268656714" stroke-width="1" class="kensington"/>
<path d="M 3068.1484 3747.6314 3144.4742 4126.3973 3028.6369 4143.0535 3019.7099 4041.1695 2989.028 3917.7027 2953.8158 3897.4057 2888.9543 3853.1168 3068.1484 3747.6314 Z" fill="none" stroke="#12852D" opacity="0.29850746268656714" stroke-width="1" class="kensington"/>
<path d="M 2986.0777 4055.5184 3003.541 4041.7899 2968.9707 3806.5256 2983.678 3798.0396 3032.3082 3774.9566 3067.5062 3759.7198 3127.6756 4014.86 3018.8149 4081.3568 2986.0777 4055.5184 Z" fill="none" stroke="#12852D" opacity="0.29850746268656714" stroke-width="1" class="kensington"/>
<path d="M 3208.7657 3759.0998 3249.606 3915.0449 3112.5022 3976.0216 3078.1654 3815.4442 3208.7657 3759.0998 Z" fill="none" stroke="#12852D" opacity="0.29850746268656714" stroke-width="1" class="kensington"/>
<path d="M 3056.1285 3799.8335 3060.6593 3800.5911 3065.7529 3795.0525 3075.4792 3792.0502 3082.3559 3787.2047 3088.6077 3783.0499 3096.0178 3780.0482 3098.108 3796.4275 3102.9852 3834.2627 3105.0328 3850.3952 3047.5947 3859.4122 3023.815 3862.2253 3013.8391 3800.1653 3033.7564 3797.8528 3056.1285 3799.8335 Z" fill="none" stroke="#12852D" opacity="0.29850746268656714" stroke-width="1" class="kensington"/>
<path d="M 2893.925 3841.0966 2924.0321 3824.8265 2966.0651 3805.0926 3039.7129 3796.0765 3058.9374 3800.6849 3084.6409 3787.2955 3135.3502 3758.4393 3144.6123 3754.5137 3151.3494 3805.7273 3162.4979 3880.4757 3171.7834 3928.4644 3176.4199 3937.2305 3125.2402 3969.0943 3074.2885 4000.4948 3023.1012 4029.8168 3003.1818 4043.2064 2999.8186 4026.8229 2992.6241 3972.366 2981.0278 3910.991 2956.7026 3891.4993 2949.2896 3886.4247 2899.8316 3843.6337 2893.925 3841.0966 Z" fill="none" stroke="#12852D" opacity="0.29850746268656714" stroke-width="1" class="kensington"/>
<path d="M 3114.5858 3972.5596 3001.0968 4043.2069 2975.8075 3872.4602 2967.0069 3877.3073 2956.5868 3891.8454 2891.4931 3840.8662 2960.5066 3805.0938 2967.6862 3804.4001 3031.3748 3794.4639 3050.5989 3798.1496 3056.6201 3796.7635 3073.5245 3788.6834 3114.5858 3972.5596 Z" fill="none" stroke="#12852D" opacity="0.29850746268656714" stroke-width="1" class="kensington"/>
<path d="M 2893.8096 3844.0959 3067.4887 3744.3909 3113.4064 3915.1049 2991.1093 3934.524 2893.8096 3844.0959 Z" fill="none" stroke="#12852D" opacity="0.29850746268656714" stroke-width="1" class="kensington"/>
<path d="M 3017.5486 4057.0488 2988.0817 3865.0741 3078.6288 3815.9054 3118.532 3994.7104 3017.5486 4057.0488 Z" fill="none" stroke="#12852D" opacity="0.29850746268656714" stroke-width="1" class="kensington"/>
<path d="M 2888.2506 3842.2509 3068.8792 3747.1588 3114.3476 3954.792 2991.3498 3971.4433 2989.2401 3866.2275 2957.7439 3886.5384 2888.2506 3842.2509 Z" fill="none" stroke="#12852D" opacity="0.29850746268656714" stroke-width="1" class="kensington"/>
<path d="M 2961.4285 3783.1764 3066.0986 3742.5457 3116.2055 3967.7132 3167.1603 3951.0791 3023.5662 4036.0473 2961.4285 3783.1764 Z" fill="none" stroke="#12852D" opacity="0.29850746268656714" stroke-width="1" class="kensington"/>
<path d="M 2979.9623 3809.0116 3188.3953 3781.2565 3291.5179 4307.3555 3040.3343 4340.7022 2979.9623 3809.0116 Z" fill="none" stroke="#12852D" opacity="0.29850746268656714" stroke-width="1" class="kensington"/>
<path d="M 2976.255 3801.6297 3075.377 3787.76 3115.2806 3972.3286 3010.5941 4039.743 2976.255 3801.6297 Z" fill="none" stroke="#12852D" opacity="0.29850746268656714" stroke-width="1" class="kensington"/>
<path d="M 3025.4114 4006.5092 3044.8921 4080.3493 3011.502 3967.7463 2996.6679 3931.7538 2989.2434 3880.0711 2976.2679 3859.7702 2974.4023 3802.553 2991.0759 3794.2437 3076.3077 3800.6793 3069.8367 3844.0557 3100.4233 3881.8841 3084.2165 3902.4247 3097.1948 3922.4943 3104.3751 3921.5688 3111.11 3969.5611 3088.8786 3988.7214 3064.3281 4002.8056 3034.9125 4018.2753 3025.4114 4006.5092 Z" fill="none" stroke="#12852D" opacity="0.29850746268656714" stroke-width="1" class="kensington"/>
<path d="M 3017.0919 4082.2033 2985.07 3862.0754 3042.2711 3832.0668 3073.2614 4047.8016 3017.0919 4082.2033 Z" fill="none" stroke="#12852D" opacity="0.29850746268656714" stroke-width="1" class="kensington"/>
<path d="M 3064.2485 3750.8514 3131.0686 4065.5503 3019.8733 4086.8181 3001.3096 3967.7488 2870.6497 3857.9421 3031.8306 3768.3942 3064.2485 3750.8514 Z" fill="none" stroke="#12852D" opacity="0.29850746268656714" stroke-width="1" class="kensington"/>
<path d="M 3074.4514 3790.0674 3054.538 3804.3776 3050.4849 3804.2634 3074.6825 3788.683 3089.9915 3856.5079 3098.8085 3900.5738 3095.7979 3902.4207 3118.7601 3985.2494 3010.8252 4037.666 2977.4135 3803.7059 3052.6849 3803.4553 3074.4514 3790.0674 Z" fill="none" stroke="#12852D" opacity="0.29850746268656714" stroke-width="1" class="kensington"/>
<path d="M 2975.3283 3800.7071 3071.6705 3784.9927 3112.5009 3972.3296 3013.3733 4036.9731 3000.4014 4041.5917 2980.9121 3911.4525 2892.8829 3842.2503 2975.3283 3800.7071 Z" fill="none" stroke="#12852D" opacity="0.29850746268656714" stroke-width="1" class="kensington"/>
<path d="M 3063.3227 3752.6972 3114.1227 3973.252 3002.4861 4040.4374 2966.7596 3803.4775 3063.3227 3752.6972 Z" fill="none" stroke="#12852D" opacity="0.29850746268656714" stroke-width="1" class="kensington"/>
<path d="M 2869.8752 3857.7068 3064.3244 3750.4905 3099.5726 3881.5235 2964.9807 3925.4941 2869.8752 3857.7068 Z" fill="none" stroke="#12852D" opacity="0.29850746268656714" stroke-width="1" class="kensington"/>
<path d="M 3080.2499 3815.6742 3115.2811 3973.4823 3011.0568 4037.2044 2986.6923 3866.4588 3080.2499 3815.6742 Z" fill="none" stroke="#12852D" opacity="0.29850746268656714" stroke-width="1" class="kensington"/>
<path d="M 3075.377 3787.76 3196.9556 4269.5478 2872.5414 4200.3959 2899.3715 3866.2445 3075.377 3787.76 Z" fill="none" stroke="#12852D" opacity="0.29850746268656714" stroke-width="1" class="kensington"/>
<path d="M 2995.7232 3856.997 3141.2602 4060.9309 3023.5823 4095.1252 3040.2571 4074.812 3041.1857 4081.2735 3087.4316 3820.9782 2995.7232 3856.997 Z" fill="none" stroke="#12852D" opacity="0.29850746268656714" stroke-width="1" class="kensington"/>
<path d="M 3059.6167 3750.8528 3068.8832 3759.6164 3073.0614 3788.9143 3120.7625 3765.8272 3126.1002 3794.6632 3132.8324 3835.0353 3136.5529 3872.4107 3141.1968 3901.4809 3146.0713 3926.8599 3149.7883 3953.6246 3155.1337 3996.5421 3082.8735 4041.7984 3036.7808 4070.6591 3019.4086 4081.7411 3011.0566 4036.5121 3005.9522 4005.5913 2987.3872 3866.6894 2937.3661 3915.1532 2865.0911 3860.2499 2973.0118 3798.4005 3037.1553 3761.241 3059.6167 3750.8528 Z" fill="none" stroke="#12852D" opacity="0.29850746268656714" stroke-width="1" class="kensington"/>
<path d="M 3066.101 3749.928 3114.5863 3973.9441 3001.3285 4043.4376 2980.8866 3799.783 3066.101 3749.928 Z" fill="none" stroke="#12852D" opacity="0.29850746268656714" stroke-width="1" class="kensington"/>
<path d="M 3069.8055 3747.1585 3095.793 3888.3461 2990.1749 3901.2981 2972.5485 3797.9392 3069.8055 3747.1585 Z" fill="none" stroke="#12852D" opacity="0.29850746268656714" stroke-width="1" class="kensington"/>
<path d="M 3073.5246 3788.9141 3080.2497 3814.9821 3101.8263 3919.2623 2985.5507 3937.0635 2982.302 3912.1444 2948.0157 3886.7711 2892.6512 3841.3275 3027.4311 3771.1638 3028.1254 3769.5487 3034.1541 3794.9245 3053.1466 3798.6103 3073.5246 3788.9141 Z" fill="none" stroke="#12852D" opacity="0.29850746268656714" stroke-width="1" class="kensington"/>
<path d="M 3065.7516 3743.584 3112.4949 3955.9464 3004.0899 3969.5941 2998.0585 3934.7531 2994.3444 3902.22 2989.2405 3867.8426 2978.5699 3796.7843 3065.7516 3743.584 Z" fill="none" stroke="#12852D" opacity="0.29850746268656714" stroke-width="1" class="kensington"/>
<path d="M 3062.3972 3755.4659 3114.353 3969.5599 3000.4007 4038.8225 2978.1236 3871.7675 2946.6261 3887.4635 2878.9866 3846.8665 3062.3972 3755.4659 Z" fill="none" stroke="#12852D" opacity="0.29850746268656714" stroke-width="1" class="kensington"/>
<path d="M 3041.1133 3832.99 3063.3966 3987.1145 2990.2089 4044.3634 2933.6583 3905.9245 3041.1133 3832.99 Z" fill="none" stroke="#12852D" opacity="0.29850746268656714" stroke-width="1" class="kensington"/>
<path d="M 2974.4011 3797.016 3067.0285 3753.6189 3115.2813 3974.1746 3010.5931 4036.0507 2974.4011 3797.016 Z" fill="none" stroke="#12852D" opacity="0.29850746268656714" stroke-width="1" class="kensington"/>
<path d="M 3012.4292 3970.0535 3123.8874 4066.9377 3124.3452 4052.3989 3125.2644 4032.7834 3122.2432 4007.4007 3120.1492 3982.9413 3115.5069 3957.7913 3103.2252 3944.6433 3081.4497 3940.4974 3071.026 3940.7316 3056.6657 3944.6588 3044.6212 3947.2006 3035.126 3954.3564 3024.9351 3959.4357 3123.8883 4069.4762 3111.6114 4073.6347 3097.4811 4078.4861 3081.7277 4079.1838 3063.8899 4082.4205 3048.5999 4083.8099 3033.0775 4082.6605 3027.2917 4104.5862 3022.1884 4081.0481 3017.0837 4051.0489 3011.9778 4015.5124 3007.2237 3995.5531 3008.6091 3978.0154 3017.7561 3966.3601 3012.4292 3970.0535 Z" fill="none" stroke="#12852D" opacity="0.29850746268656714" stroke-width="1" class="kensington"/>
<path d="M 3018.9461 4084.9722 3013.8364 4036.0499 3002.7178 4040.6681 2998.5415 4014.8236 2985.5662 4003.7502 2935.9854 3965.4554 2961.46 3935.4536 2939.2193 3916.0758 2868.7971 3860.7109 2887.7875 3843.1739 2976.717 3796.554 3056.8383 3753.1607 3065.1723 3742.546 3074.9158 3793.7585 3106.4649 3935.8739 3134.3121 4066.0106 3018.9461 4084.9722 Z" fill="none" stroke="#12852D" opacity="0.29850746268656714" stroke-width="1" class="kensington"/>
<path d="M 3054.5359 3797.4563 3074.4506 3787.7603 3113.4271 3971.4062 3124.3307 4014.0919 3018.0186 4081.9723 3011.519 4033.0505 2997.1328 3938.2144 2975.7919 3802.0913 3031.3744 3793.3103 3054.5359 3797.4563 Z" fill="none" stroke="#12852D" opacity="0.29850746268656714" stroke-width="1" class="kensington"/>
<path d="M 3021.7249 4080.3559 2983.6646 3794.2454 3067.0235 3737.9316 3130.1227 4015.705 3021.7249 4080.3559 Z" fill="none" stroke="#12852D" opacity="0.29850746268656714" stroke-width="1" class="kensington"/>
<path d="M 3033.6836 3769.3165 3055.0388 3927.1229 2985.5516 3940.9861 2877.1345 3853.3269 3033.6836 3769.3165 Z" fill="none" stroke="#12852D" opacity="0.29850746268656714" stroke-width="1" class="kensington"/>
<path d="M 3235.6315 3760.9324 3311.8951 4281.4912 3011.6048 4362.871 2940.1455 3914.2298 3235.6315 3760.9324 Z" fill="none" stroke="#12852D" opacity="0.29850746268656714" stroke-width="1" class="kensington"/>
<path d="M 3177.7061 3699.5954 3236.7353 4117.1981 2986.0566 4120.0593 2948.4854 3920.2274 2867.4076 3862.5569 3177.7061 3699.5954 Z" fill="none" stroke="#12852D" opacity="0.29850746268656714" stroke-width="1" class="kensington"/>
<path d="M 3092.0389 3748.9966 3162.1312 3956.2223 2986.1005 4030.1215 2914.1907 3837.6328 3092.0389 3748.9966 Z" fill="none" stroke="#12852D" opacity="0.29850746268656714" stroke-width="1" class="kensington"/>
<path d="M 3073.5248 3789.6063 3121.7831 4015.7082 2982.7982 4055.4421 2958.6719 3893.9216 2889.177 3841.3279 2979.0334 3797.9378 3073.5248 3789.6063 Z" fill="none" stroke="#12852D" opacity="0.29850746268656714" stroke-width="1" class="kensington"/>
<path d="M 3065.174 3748.0827 3124.3306 4013.8612 3019.1771 4082.4335 2882.6924 3846.4046 3065.174 3748.0827 Z" fill="none" stroke="#12852D" opacity="0.29850746268656714" stroke-width="1" class="kensington"/>
<path d="M 2986.4606 3866.2281 3076.3128 3816.3676 3118.7643 3996.3256 3016.6225 4059.126 2986.4606 3866.2281 Z" fill="none" stroke="#12852D" opacity="0.29850746268656714" stroke-width="1" class="kensington"/>
<path d="M 3073.5245 3788.6834 3117.6014 3983.8653 3012.9133 4049.6654 2978.1078 3801.6293 3073.5245 3788.6834 Z" fill="none" stroke="#12852D" opacity="0.29850746268656714" stroke-width="1" class="kensington"/>
<path d="M 3061.3033 3960.1173 3002.0048 3968.4409 2987.8502 3865.3049 2967.7016 3876.3843 2950.1028 3899.4609 2882.2293 3847.0968 3029.9779 3768.6254 3060.1441 3957.1179 3030.44 3764.7034 3061.3033 3960.1173 Z" fill="none" stroke="#12852D" opacity="0.29850746268656714" stroke-width="1" class="kensington"/>
<path d="M 2892.8845 3853.7863 2887.3277 3869.4763 2909.566 3887.0084 2939.6814 3909.6152 2926.2445 3896.235 2922.5373 3888.8522 2897.0566 3875.4738 2885.474 3863.9391 2897.5197 3874.0894 2898.4449 3865.3217 2901.6855 3850.555 2905.3894 3837.6342 2922.9912 3832.5556 2923.4582 3855.166 2944.301 3840.8577 2938.2796 3843.6274 2939.203 3827.477 2945.6863 3817.7858 2960.0441 3808.5545 2974.8664 3806.2442 2969.7717 3809.4753 2981.8148 3807.6269 2992.9319 3807.6243 3016.0903 3799.3129 3029.9868 3800.232 3061.9469 3796.5312 3073.9891 3792.836 3091.1249 3784.9862 3093.4436 3792.8294 3092.0563 3799.2897 3099.9336 3807.1311 3098.5451 3810.3616 3100.4012 3819.5894 3103.1863 3835.7385 3111.069 3857.4233 3110.1481 3872.6515 3121.7359 3890.644 3130.5424 3902.6387 3131.4723 3911.4063 3137.0354 3921.5565 3145.3824 3941.8584 3158.3597 3955.2363 3119.9151 3976.4804 3102.7764 3985.2552 3076.8336 3991.2637 3047.1839 3996.3496 3041.1629 4003.2741 3007.3416 4003.7449 2972.1327 4014.8297 2930.4346 4015.2994 2893.834 4023.6125 2834.5269 3989.0049 2771.0545 3948.3955 2794.218 3929.4742 2823.4024 3902.7074 2864.1653 3866.2488 2892.8845 3853.7863 Z" fill="none" stroke="#12852D" opacity="0.29850746268656714" stroke-width="1" class="kensington"/>
<path d="M 3063.3219 3749.9289 3115.2803 3971.4056 3001.3283 4042.5146 2967.9174 3802.5544 3056.8382 3752.6993 3063.3219 3749.9289 Z" fill="none" stroke="#12852D" opacity="0.29850746268656714" stroke-width="1" class="kensington"/>
<path d="M 2669.5868 4040.693 3064.2506 3757.3109 3060.5459 3760.0805 3137.5644 4088.6254 2935.5693 4228.0837 2669.5868 4040.693 Z" fill="none" stroke="#12852D" opacity="0.29850746268656714" stroke-width="1" class="kensington"/>
<path d="M 3073.5246 3788.9141 3115.2807 3972.5593 3012.9099 4036.5117 3001.0966 4042.5146 2966.9915 3804.8617 3073.5246 3788.9141 Z" fill="none" stroke="#12852D" opacity="0.29850746268656714" stroke-width="1" class="kensington"/>
<path d="M 3113.8916 3974.6366 3011.5193 4034.2044 2974.4001 3792.4018 3067.0267 3748.0821 3113.8916 3974.6366 Z" fill="none" stroke="#12852D" opacity="0.29850746268656714" stroke-width="1" class="kensington"/>
<path d="M 2980.8864 3798.8602 3153.9976 4050.5411 3117.3003 3797.2043 3019.1768 4081.5104 2980.8864 3798.8602 Z" fill="none" stroke="#12852D" opacity="0.29850746268656714" stroke-width="1" class="kensington"/>
<path d="M 2664.9542 4034.231 2898.4401 3831.1751 3195.7624 3684.3623 3335.0811 4304.5603 3045.8919 4326.8503 2664.9542 4034.231 Z" fill="none" stroke="#12852D" opacity="0.29850746268656714" stroke-width="1" class="kensington"/>
<path d="M 3119.4586 3994.4793 3065.0311 4028.1891 3063.4022 4005.1135 3012.215 4036.7426 2965.1189 3711.1985 2968.8253 3716.2728 3048.9433 3683.495 3078.6289 3816.3669 3119.4586 3994.4793 Z" fill="none" stroke="#12852D" opacity="0.29850746268656714" stroke-width="1" class="kensington"/>
<path d="M 2976.2556 3804.3982 3085.5684 3790.5251 3118.9859 3969.5582 3003.1786 4030.5143 2976.2556 3804.3982 Z" fill="none" stroke="#12852D" opacity="0.29850746268656714" stroke-width="1" class="kensington"/>
<path d="M 3032.7644 3794.6942 3054.7678 3798.3791 3074.4508 3788.4524 3124.0995 4015.2458 3018.7136 4081.9721 2978.3397 3803.0135 3032.7644 3794.6942 Z" fill="none" stroke="#12852D" opacity="0.29850746268656714" stroke-width="1" class="kensington"/>
<path d="M 3000.4007 4038.8225 2969.793 3907.7632 2889.1775 3845.0194 3076.3043 3790.5282 3127.3255 3970.478 3000.4007 4038.8225 Z" fill="none" stroke="#12852D" opacity="0.29850746268656714" stroke-width="1" class="kensington"/>
<path d="M 3034.6171 3794.2323 3056.3892 3798.84 3074.4514 3790.0674 3102.29 3920.6466 3115.0499 3974.8669 3124.5639 4018.2455 3016.8606 4083.588 2982.103 4054.7499 2999.9371 4037.6688 2984.622 3927.8341 2884.0823 3848.2502 2894.2724 3840.4044 2963.7486 3803.0167 3034.6171 3794.2323 Z" fill="none" stroke="#12852D" opacity="0.29850746268656714" stroke-width="1" class="kensington"/>
<path d="M 3089.295 3851.663 3114.1222 3971.8675 3011.9829 4035.3581 2990.8613 3865.7657 3079.7878 3818.9043 3089.295 3851.663 Z" fill="none" stroke="#12852D" opacity="0.29850746268656714" stroke-width="1" class="kensington"/>
<path d="M 3064.7113 3749.467 3124.331 4015.015 3018.0185 4081.7415 2973.9378 3796.5547 3064.7113 3749.467 Z" fill="none" stroke="#12852D" opacity="0.29850746268656714" stroke-width="1" class="kensington"/>
<path d="M 2802.0841 3685.3822 3257.7103 3464.7493 3289.211 3489.6405 3327.2095 3536.6691 3342.0753 3614.16 3327.323 3727.6622 3337.5865 3849.4689 3338.5834 3965.7586 3309.9106 4054.3873 3249.7015 4101.4983 3105.1462 4133.8713 2941.1084 4109.9141 2885.4932 4014.8447 2828.9618 3907.7832 2803.9407 3784.1187 2798.3794 3698.3006 2802.0841 3685.3822 Z" fill="none" stroke="#12852D" opacity="0.29850746268656714" stroke-width="1" class="kensington"/>
<path d="M 3005.9125 3849.6114 3022.5861 3839.4553 3032.7758 3834.8381 3040.1863 3831.1445 3039.7237 3833.4518 3053.1577 3834.8322 3064.2713 3822.8315 3082.7989 3819.5955 3082.3394 3830.6699 3089.2938 3848.2022 3091.618 3871.7351 3099.0403 3901.2659 3108.3199 3940.9496 3112.5007 3971.8681 3063.4017 4003.2674 3004.1085 4043.4369 2992.5272 4051.2859 2997.6037 3969.1343 2984.6176 3909.1443 2978.5861 3868.5372 3005.9125 3849.6114 Z" fill="none" stroke="#12852D" opacity="0.29850746268656714" stroke-width="1" class="kensington"/>
<path d="M 3070.7531 3812.678 3158.0199 4252.9457 3049.5838 4274.22 2990.1666 3866.2273 3070.7531 3812.678 Z" fill="none" stroke="#12852D" opacity="0.29850746268656714" stroke-width="1" class="kensington"/>
<path d="M 2979.9606 3801.6289 3035.5443 3797.0005 3063.3364 3796.0693 3074.4506 3787.7603 3115.282 3976.0206 3012.4464 4036.0503 2979.9606 3801.6289 Z" fill="none" stroke="#12852D" opacity="0.29850746268656714" stroke-width="1" class="kensington"/>
<path d="M 2953.1116 3887.693 2890.335 3840.8663 3071.6614 3756.8471 3116.6713 3974.4048 3014.3001 4037.4344 2953.1116 3887.693 Z" fill="none" stroke="#12852D" opacity="0.29850746268656714" stroke-width="1" class="kensington"/>
<path d="M 2969.7691 3797.017 2990.1482 3788.7069 3024.4213 3774.8559 3060.5448 3756.3893 3082.7895 3791.4488 3078.1724 3836.67 3088.3697 3855.1241 3067.0635 3863.4372 3032.7865 3872.6765 2994.8014 3876.3781 2975.3476 3887.4576 2945.7015 3897.6159 2933.6605 3917.9227 2904.008 3893.9312 2881.7691 3871.7842 2863.2379 3857.9429 2969.7691 3797.017 Z" fill="none" stroke="#12852D" opacity="0.29850746268656714" stroke-width="1" class="kensington"/>
<path d="M 2978.1082 3803.475 3033.228 3796.0783 3072.599 3791.4522 3079.5457 3787.2972 3085.8071 3811.5195 3079.5554 3816.5973 3088.1369 3851.6634 3094.1694 3881.8862 3101.5942 3918.1087 3108.788 3954.3326 3058.0606 3961.0413 3043.2355 3961.5073 3032.3488 3963.1256 3001.7729 3967.518 2988.1064 3969.8288 2949.4183 3952.9925 2947.5554 3901.9994 2931.7994 3872.2382 2893.8094 3842.0195 2956.8019 3809.9394 2978.1082 3803.475 Z" fill="none" stroke="#12852D" opacity="0.29850746268656714" stroke-width="1" class="kensington"/>
<path d="M 2935.9063 3840.4052 2930.3453 3827.486 2973.8824 3801.6376 3064.6564 3754.5498 3083.7238 3814.9809 3042.0412 3838.0655 2988.5189 3866.5424 2956.5588 3883.6232 2935.9063 3840.4052 Z" fill="none" stroke="#12852D" opacity="0.29850746268656714" stroke-width="1" class="kensington"/>
<path d="M 3114.5858 3972.5596 3112.9652 3975.0984 3011.9831 4036.0504 2886.3981 3845.0198 3065.6379 3750.3895 3114.5858 3972.5596 Z" fill="none" stroke="#12852D" opacity="0.29850746268656714" stroke-width="1" class="kensington"/>
<path d="M 2988.7774 3868.5348 3080.4818 3816.3663 3114.8173 3972.3287 3012.4467 4036.9733 2988.7774 3868.5348 Z" fill="none" stroke="#12852D" opacity="0.29850746268656714" stroke-width="1" class="kensington"/>
<path d="M 3074.4506 3787.7603 3132.9234 4069.242 3018.9466 4086.8184 2975.3288 3802.5528 3074.4506 3787.7603 Z" fill="none" stroke="#12852D" opacity="0.29850746268656714" stroke-width="1" class="kensington"/>
<path d="M 2913.2694 3870.8569 2920.6816 3872.2401 2880.6083 3849.981 2906.0838 3834.2887 2931.7902 3819.8648 2946.8436 3813.7481 2970.4665 3809.3598 2970.4655 3804.6302 2994.5513 3799.7798 3020.7216 3796.6585 3034.8492 3795.7318 3074.1044 3791.4517 3081.5237 3815.5584 3088.0211 3851.8941 3102.054 3908.3023 3109.1303 3940.0263 3115.8604 3974.1744 3139.0695 4086.6632 3050.1107 4099.964 3020.3353 4081.9717 3004.3372 4031.7832 2998.197 4026.9387 2961.6956 3954.6053 2960.7692 3955.2977 2928.0963 3888.8513 2929.0232 3891.1584 2913.2694 3870.8569 Z" fill="none" stroke="#12852D" opacity="0.29850746268656714" stroke-width="1" class="kensington"/>
<path d="M 3018.9422 4070.664 2993.8813 3902.6816 3088.832 3852.3553 3124.5624 4014.2072 3018.9422 4070.664 Z" fill="none" stroke="#12852D" opacity="0.29850746268656714" stroke-width="1" class="kensington"/>
<path d="M 3123.636 4014.7845 3008.7522 4084.0517 2976.2546 3799.7841 3066.0995 3745.3141 3123.636 4014.7845 Z" fill="none" stroke="#12852D" opacity="0.29850746268656714" stroke-width="1" class="kensington"/>
<path d="M 2971.6217 3796.0938 3069.8064 3749.9268 3124.5627 4015.0149 3073.1454 4047.1093 3080.113 4100.416 3032.6404 4175.6683 2971.6217 3796.0938 Z" fill="none" stroke="#12852D" opacity="0.29850746268656714" stroke-width="1" class="kensington"/>
<path d="M 3074.4511 3789.1445 3080.9434 3811.7519 3115.7417 3966.3289 2997.1493 4005.5935 2978.5972 3917.9137 2948.4811 3898.0768 2887.3238 3839.4824 2964.6756 3805.785 2972.094 3837.622 3000.3474 3824.2338 3074.4511 3789.1445 Z" fill="none" stroke="#12852D" opacity="0.29850746268656714" stroke-width="1" class="kensington"/>
<path d="M 3101.5938 3916.955 3114.5863 3973.9441 3011.9835 4037.6657 3001.7732 3968.6717 2995.5112 3937.5226 2987.1553 3865.5358 2978.8029 3803.0134 3073.0615 3789.3757 3079.5558 3817.7508 3087.6739 3852.3557 3086.7482 3854.6632 3101.5938 3916.955 Z" fill="none" stroke="#12852D" opacity="0.29850746268656714" stroke-width="1" class="kensington"/>
<path d="M 2975.4738 3879.9819 3092.7396 3867.7007 3075.1334 3858.4777 3069.5778 3868.6314 3135.435 4065.1489 3003.9384 4085.4995 2993.1149 4036.8859 2985.6899 3986.1204 2975.4738 3879.9819 Z" fill="none" stroke="#12852D" opacity="0.29850746268656714" stroke-width="1" class="kensington"/>
<path d="M 3116.2058 3968.6362 3008.7396 4035.1282 2987.3872 3866.6894 2966.5439 3878.2303 2937.366 3914.6918 2865.5546 3862.0956 3064.2476 3748.083 3116.2058 3968.6362 Z" fill="none" stroke="#12852D" opacity="0.29850746268656714" stroke-width="1" class="kensington"/>
<path d="M 3017.0794 4035.126 2988.2958 3790.553 3072.587 3754.5399 3112.5022 3976.0216 3025.4164 4024.9701 2993.8745 3874.5325 3017.0794 4035.126 Z" fill="none" stroke="#12852D" opacity="0.29850746268656714" stroke-width="1" class="kensington"/>
<path d="M 2985.534 3865.3055 2953.1116 3887.4623 2893.809 3839.4816 2959.5798 3803.479 3029.0582 3792.3882 3058.7046 3796.9936 3075.3764 3785.9144 3131.7591 4054.0115 3075.2353 4062.1087 3019.8713 4079.4333 2985.534 3865.3055 Z" fill="none" stroke="#12852D" opacity="0.29850746268656714" stroke-width="1" class="kensington"/>
<path d="M 3074.072 4047.109 3037.0128 4071.8129 3019.8716 4080.5871 3012.4464 4035.8195 3008.4998 4003.2831 3004.0896 3968.6712 2996.9008 3936.5993 2993.1862 3901.9896 2988.3137 3866.4584 2983.2105 3833.928 2979.9606 3801.6289 3035.7759 3797.0004 3056.1576 3798.84 3074.9144 3789.6058 3080.0182 3815.2128 3088.1375 3853.5091 3095.3281 3883.5009 3105.3006 3918.7996 3115.513 3974.1745 3124.563 4015.9379 3095.3807 4034.4096 3074.072 4047.109 Z" fill="none" stroke="#12852D" opacity="0.29850746268656714" stroke-width="1" class="kensington"/>
<path d="M 3075.3776 3789.6056 3078.1617 3804.37 3112.5039 3980.6366 3005.9608 4039.7442 2980.8871 3801.6287 3075.3776 3789.6056 Z" fill="none" stroke="#12852D" opacity="0.29850746268656714" stroke-width="1" class="kensington"/>
<path d="M 3072.5864 3752.6943 3110.4086 3951.7938 2988.8008 3967.7519 2980.6779 3900.1466 2893.8095 3842.7116 3072.5864 3752.6943 Z" fill="none" stroke="#12852D" opacity="0.29850746268656714" stroke-width="1" class="kensington"/>
<path d="M 3064.2481 3749.4672 3110.1777 3953.8706 2991.1179 3970.2896 2966.7593 3802.0932 3064.2481 3749.4672 Z" fill="none" stroke="#12852D" opacity="0.29850746268656714" stroke-width="1" class="kensington"/>
<path d="M 3199.4676 3684.3606 3229.2894 4051.661 3016.167 4088.6653 2967.0921 4277.011 2669.5874 4034.2315 2972.5483 3797.0164 3199.4676 3684.3606 Z" fill="none" stroke="#12852D" opacity="0.29850746268656714" stroke-width="1" class="kensington"/>
<path d="M 3064.7113 3749.467 3135.2368 4060.9333 3021.2623 4083.1253 2983.7241 4052.2111 3004.1079 4041.1293 2967.4544 3803.4773 2977.6428 3793.7853 3064.7113 3749.467 Z" fill="none" stroke="#12852D" opacity="0.29850746268656714" stroke-width="1" class="kensington"/>
<path d="M 2978.109 3807.1664 3036.4694 3792.3861 3055.9648 3925.2767 2996.6707 3942.8294 2978.109 3807.1664 Z" fill="none" stroke="#12852D" opacity="0.29850746268656714" stroke-width="1" class="kensington"/>
<path d="M 3075.3891 3824.6736 3140.3167 4018.4702 3021.7282 4092.3563 2765.9584 3950.2415 3023.4914 3761.9369 3045.7496 3846.8317 3075.3891 3824.6736 Z" fill="none" stroke="#12852D" opacity="0.29850746268656714" stroke-width="1" class="kensington"/>
<path d="M 3062.3955 3749.9292 3115.2817 3975.0976 3003.1814 4041.591 2984.6182 3911.4517 2891.9565 3842.2504 3062.3955 3749.9292 Z" fill="none" stroke="#12852D" opacity="0.29850746268656714" stroke-width="1" class="kensington"/>
<path d="M 3198.5413 3684.361 3359.9417 4040.511 3019.8748 4092.3568 2978.1072 3798.8608 3198.5413 3684.361 Z" fill="none" stroke="#12852D" opacity="0.29850746268656714" stroke-width="1" class="kensington"/>
<path d="M 2977.1799 3795.1697 2976.2346 3710.2733 3036.426 3641.0544 3009.574 3677.9697 3054.1097 3918.8166 2987.9826 3935.9092 2889.1777 3846.8652 2932.718 3827.4782 2977.1799 3795.1697 Z" fill="none" stroke="#12852D" opacity="0.29850746268656714" stroke-width="1" class="kensington"/>
<path d="M 3123.8675 4014.5536 3018.2502 4081.7415 2977.1813 3801.1681 3073.9883 3790.5289 3123.8675 4014.5536 Z" fill="none" stroke="#12852D" opacity="0.29850746268656714" stroke-width="1" class="kensington"/>
<path d="M 3046.6799 3859.7519 3082.901 4123.7243 2929.0674 4146.8424 2900.2998 3879.165 3046.6799 3859.7519 Z" fill="none" stroke="#12852D" opacity="0.29850746268656714" stroke-width="1" class="kensington"/>
<path d="M 3065.1761 3754.5422 3115.9498 3972.7289 3017.7474 4030.9111 2987.8133 3870.1031 2946.1302 3915.3353 2946.0415 3912.0754 2869.1348 3865.018 2903.4107 3839.1729 3065.1761 3754.5422 Z" fill="none" stroke="#12852D" opacity="0.29850746268656714" stroke-width="1" class="kensington"/>
<path d="M 2932.7573 4049.9138 2860.4865 4136.697 2662.1923 3869.017 2843.7738 3758.2777 3092.074 3850.5084 2932.7573 4049.9138 Z" fill="none" stroke="#12852D" opacity="0.29850746268656714" stroke-width="1" class="kensington"/>
<path d="M 2983.6667 3803.4737 3075.6095 3790.2977 3117.598 3974.866 3011.9839 4039.0503 2983.6667 3803.4737 Z" fill="none" stroke="#12852D" opacity="0.29850746268656714" stroke-width="1" class="kensington"/>
<path d="M 3066.0998 3746.2369 3134.7735 4060.9334 3015.2393 4084.9731 2978.5697 3795.6308 3066.0998 3746.2369 Z" fill="none" stroke="#12852D" opacity="0.29850746268656714" stroke-width="1" class="kensington"/>
<path d="M 3067.0273 3749.9277 3114.8155 3967.2522 3004.1071 4037.8985 2982.7634 3904.0686 2956.8181 3890.2303 2889.1776 3845.9423 2980.8852 3793.3232 3067.0273 3749.9277 Z" fill="none" stroke="#12852D" opacity="0.29850746268656714" stroke-width="1" class="kensington"/>
<path d="M 3062.3952 3749.0064 3100.4357 3916.9554 3102.0581 3919.7237 2985.5505 3936.3713 2976.5022 3871.7678 2954.269 3884.0011 2924.8425 3823.3267 3062.3952 3749.0064 Z" fill="none" stroke="#12852D" opacity="0.29850746268656714" stroke-width="1" class="kensington"/>
<path d="M 2974.9581 3793.9253 3071.5487 3789.3079 3125.3714 4004.623 3026.2444 4080.3472 2974.9581 3793.9253 Z" fill="none" stroke="#12852D" opacity="0.29850746268656714" stroke-width="1" class="kensington"/>
<path d="M 2990.176 3905.9127 2983.6814 3867.1517 3088.3681 3850.5097 3142.1887 4065.546 2822.4883 4109.0056 2990.176 3905.9127 Z" fill="none" stroke="#12852D" opacity="0.29850746268656714" stroke-width="1" class="kensington"/>
<path d="M 2985.9822 3801.1661 3073.0621 3790.9906 3119.9449 4055.8621 3020.3324 4071.1252 2985.9822 3801.1661 Z" fill="none" stroke="#12852D" opacity="0.29850746268656714" stroke-width="1" class="kensington"/>
<path d="M 3080.0192 3818.2121 2942.9197 3885.6184 2887.324 3840.4053 2977.1801 3796.0925 2966.9717 3712.1208 3048.4771 3673.3452 3080.0192 3818.2121 Z" fill="none" stroke="#12852D" opacity="0.29850746268656714" stroke-width="1" class="kensington"/>
<path d="M 2969.7691 3797.017 3042.9426 3752.7034 3061.4686 3748.0839 3092.5471 3879.1181 3112.0259 3940.4867 3118.9808 3955.7133 3007.8049 4003.7448 2969.7691 3797.017 Z" fill="none" stroke="#12852D" opacity="0.29850746268656714" stroke-width="1" class="kensington"/>
<path d="M 2959.5812 3809.9389 3078.1602 3799.7559 3129.2163 4068.3203 3015.241 4091.4349 2959.5812 3809.9389 Z" fill="none" stroke="#12852D" opacity="0.29850746268656714" stroke-width="1" class="kensington"/>
<path d="M 3108.1166 3954.1413 3114.2682 3973.8812 2999.6199 4041.2981 2986.0925 3940.1389 2982.1287 3912.8263 2890.8037 3842.039 2977.6494 3799.1509 2973.4744 3771.4672 3012.4944 3753.3486 3016.9012 3777.8017 3029.0646 3794.0631 3041.8694 3859.3564 3086.8949 3855.6278 3105.5483 3953.6567 3108.1166 3954.1413 Z" fill="none" stroke="#12852D" opacity="0.29850746268656714" stroke-width="1" class="kensington"/>
<path d="M 3080.0192 3818.2121 3131.9946 4063.7038 2976.3206 4096.06 2944.7736 3890.2326 3080.0192 3818.2121 Z" fill="none" stroke="#12852D" opacity="0.29850746268656714" stroke-width="1" class="kensington"/>
<path d="M 2952.1896 3910.5357 3022.5725 3789.6215 2987.3698 3792.3989 2917.8938 3821.0207 2918.8225 3834.8635 2953.1141 3900.3832 3026.2779 3788.6976 3070.7492 3800.6811 3119.8655 3844.0382 3128.2032 3843.1122 3142.1284 3914.1709 3156.0461 3962.1596 3165.3466 4044.3056 3157.0121 4057.2322 3024.5067 4086.8169 3000.4145 4094.2081 2977.2411 4068.3666 2954.9786 3957.6064 2962.3812 3909.6107 2952.1896 3910.5357 Z" fill="none" stroke="#12852D" opacity="0.29850746268656714" stroke-width="1" class="kensington"/>
<path d="M 3064.2491 3752.6969 3123.6377 4019.3997 3021.7249 4080.3559 2987.4003 3922.5264 2878.9865 3845.9436 3064.2491 3752.6969 Z" fill="none" stroke="#12852D" opacity="0.29850746268656714" stroke-width="1" class="kensington"/>
<path d="M 3197.6188 3692.666 3267.2002 3896.577 3066.1834 4009.2662 3016.9876 3689.9631 3044.7733 3677.9599 3067.9499 3737.9313 3197.6188 3692.666 Z" fill="none" stroke="#12852D" opacity="0.29850746268656714" stroke-width="1" class="kensington"/>
<path d="M 3066.1018 3752.6964 3131.9963 4068.3193 3075.4711 4074.8012 3031.9455 4176.3609 2976.255 3801.6297 3066.1018 3752.6964 Z" fill="none" stroke="#12852D" opacity="0.29850746268656714" stroke-width="1" class="kensington"/>
<path d="M 3046.1619 3675.1914 3067.6079 3755.0029 3114.7016 3972.4441 3012.7939 4035.8194 3007.8006 3986.6688 2980.4225 3795.6304 2971.604 3714.8881 3046.1619 3675.1914 Z" fill="none" stroke="#12852D" opacity="0.29850746268656714" stroke-width="1" class="kensington"/>
<path d="M 3075.6864 3787.4517 3115.7431 3970.0209 3125.9524 4014.9375 3073.5318 4048.5708 3019.7943 4080.8184 2952.1495 4098.9886 2952.1435 4068.9875 2979.0818 4012.2132 2993.594 3991.5184 2980.2121 3889.1487 2978.2008 3872.1521 2968.5354 3805.0921 3030.7577 3796.6172 3075.6864 3787.4517 Z" fill="none" stroke="#12852D" opacity="0.29850746268656714" stroke-width="1" class="kensington"/>
<path d="M 2893.3459 3840.4045 3031.5999 3771.3934 3057.5966 3958.734 2945.005 3888.8482 2893.3459 3840.4045 Z" fill="none" stroke="#12852D" opacity="0.29850746268656714" stroke-width="1" class="kensington"/>
<path d="M 3061.4697 3751.775 3114.3542 3972.7904 3000.4018 4042.9763 2976.5021 3871.3064 2948.2473 3886.5403 2892.4195 3841.0968 2975.0961 3797.9387 3061.4697 3751.775 Z" fill="none" stroke="#12852D" opacity="0.29850746268656714" stroke-width="1" class="kensington"/>
<path d="M 2979.0328 3795.1693 3037.3966 3795.1543 3049.4424 3803.4563 3080.9361 3789.6038 3114.354 3972.3289 3071.7393 3997.265 3021.7126 4035.1247 2992.9469 3869.9182 2939.2193 3916.0758 2873.4287 3854.2502 2979.0328 3795.1693 Z" fill="none" stroke="#12852D" opacity="0.29850746268656714" stroke-width="1" class="kensington"/>
<path d="M 2976.7171 3797.0155 2982.7384 3795.1684 3137.4344 3758.2077 3189.3908 3935.3789 3018.0029 4023.126 2862.3116 3858.8658 2976.7171 3797.0155 Z" fill="none" stroke="#12852D" opacity="0.29850746268656714" stroke-width="1" class="kensington"/>
<path d="M 3313.4268 3725.8249 3318.059 3726.7449 3404.4515 4085.7134 2961.501 4132.9888 2984.5908 3793.3223 3313.4268 3725.8249 Z" fill="none" stroke="#12852D" opacity="0.29850746268656714" stroke-width="1" class="kensington"/>
<path d="M 3031.6063 3794.2331 3051.7569 3798.1493 3056.8521 3797.917 3074.4508 3788.2217 3114.1229 3973.7135 3000.1703 4043.8995 2982.7654 3912.6058 2891.4931 3841.0969 2963.5172 3803.7089 3031.6063 3794.2331 Z" fill="none" stroke="#12852D" opacity="0.29850746268656714" stroke-width="1" class="kensington"/>
<path d="M 3070.7337 3752.6949 3111.5729 3968.6379 2999.9384 4042.9764 2953.5738 3882.3861 2923.4535 3827.0184 3070.7337 3752.6949 Z" fill="none" stroke="#12852D" opacity="0.29850746268656714" stroke-width="1" class="kensington"/>
<path d="M 3068.8798 3749.0043 3118.9849 3966.7892 2985.5765 4048.0568 2956.8019 3809.9394 3068.8798 3749.0043 Z" fill="none" stroke="#12852D" opacity="0.29850746268656714" stroke-width="1" class="kensington"/>
<path d="M 2979.9596 3797.0147 3075.1455 3787.9908 3117.1335 3971.4049 3012.9095 4035.1271 2979.9596 3797.0147 Z" fill="none" stroke="#12852D" opacity="0.29850746268656714" stroke-width="1" class="kensington"/>
<path d="M 3018.7135 4081.5106 3011.5201 4037.4351 3001.0969 4043.6685 2982.9971 3913.0672 2890.5667 3841.3277 3060.312 3752.4675 3065.8705 3753.6192 3123.6358 4014.3229 3018.7135 4081.5106 Z" fill="none" stroke="#12852D" opacity="0.29850746268656714" stroke-width="1" class="kensington"/>
<path d="M 3032.7644 3794.6942 3052.6834 3798.3797 3073.9879 3789.1447 3115.2811 3973.7131 3000.865 4042.5147 2967.4546 3804.4002 3032.7644 3794.6942 Z" fill="none" stroke="#12852D" opacity="0.29850746268656714" stroke-width="1" class="kensington"/>
<path d="M 3018.9461 4084.9722 2982.7562 3872.6893 2981.816 3812.7026 3073.5254 3791.4519 2978.108 3802.5522 3077.2304 3789.605 3080.9459 3819.1347 3136.6297 4068.3174 3018.9461 4084.9722 Z" fill="none" stroke="#12852D" opacity="0.29850746268656714" stroke-width="1" class="kensington"/>
<path d="M 2882.6925 3846.866 3175.3878 3693.5986 3211.6192 3916.9095 2986.5059 4060.0566 2864.165 3863.4801 2882.6925 3846.866 Z" fill="none" stroke="#12852D" opacity="0.29850746268656714" stroke-width="1" class="kensington"/>
<path d="M 3075.6092 3789.6056 3112.5013 3973.4833 3066.8763 4002.8048 3001.7916 4042.5144 2979.498 3803.9361 3035.7754 3795.1548 3053.3782 3798.3795 3075.6092 3789.6056 Z" fill="none" stroke="#12852D" opacity="0.29850746268656714" stroke-width="1" class="kensington"/>
<path d="M 2974.4009 3796.0931 3071.666 3771.1505 3110.648 3973.2533 3010.5936 4037.8969 2974.4009 3796.0931 Z" fill="none" stroke="#12852D" opacity="0.29850746268656714" stroke-width="1" class="kensington"/>
<path d="M 3040.1954 3862.5225 3089.3869 4120.0295 2958.7519 4285.3225 2829.8902 3934.5487 3042.9594 3809.9181 3040.1954 3862.5225 Z" fill="none" stroke="#12852D" opacity="0.29850746268656714" stroke-width="1" class="kensington"/>
<path d="M 3065.4061 3749.6975 3115.0495 3973.5978 3001.2127 4043.3223 2966.7593 3802.2086 3065.4061 3749.6975 Z" fill="none" stroke="#12852D" opacity="0.29850746268656714" stroke-width="1" class="kensington"/>
<path d="M 2976.2541 3797.9384 3071.6693 3781.3015 3114.3534 3970.4829 3011.521 4040.6658 2976.2541 3797.9384 Z" fill="none" stroke="#12852D" opacity="0.29850746268656714" stroke-width="1" class="kensington"/>
<path d="M 3067.0273 3749.9277 3116.2079 3974.1742 3013.3736 4037.8961 2992.0304 3911.4499 2885.4714 3843.1742 3067.0273 3749.9277 Z" fill="none" stroke="#12852D" opacity="0.29850746268656714" stroke-width="1" class="kensington"/>
<path d="M 2977.1816 3802.5524 3035.5427 3791.4635 3051.2936 3797.9187 3074.45 3785.9147 3104.1441 3923.4148 2995.7446 3944.6756 2977.1816 3802.5524 Z" fill="none" stroke="#12852D" opacity="0.29850746268656714" stroke-width="1" class="kensington"/>
<path d="M 2982.7409 3806.2425 3032.3003 3791.4644 3056.3882 3795.6101 3075.3775 3789.1442 3126.4146 4011.5528 3020.7988 4082.6639 2982.7409 3806.2425 Z" fill="none" stroke="#12852D" opacity="0.29850746268656714" stroke-width="1" class="kensington"/>
<path d="M 2923.4549 3835.7856 3128.1611 3733.2962 3144.8958 3883.7131 2951.2751 3971.452 2923.4549 3835.7856 Z" fill="none" stroke="#12852D" opacity="0.29850746268656714" stroke-width="1" class="kensington"/>
<path d="M 2978.1066 3796.0923 3056.8387 3754.5448 3065.1766 3756.3878 3095.5606 3886.0389 2992.7228 3901.2975 2978.1066 3796.0923 Z" fill="none" stroke="#12852D" opacity="0.29850746268656714" stroke-width="1" class="kensington"/>
<path d="M 3073.9878 3788.914 3102.9845 3919.2619 2986.4773 3937.294 2966.7598 3804.4003 3073.9878 3788.914 Z" fill="none" stroke="#12852D" opacity="0.29850746268656714" stroke-width="1" class="kensington"/>
<path d="M 3073.9879 3789.3754 3102.7529 3919.4927 2995.9738 3934.7536 2978.5711 3802.0906 3073.9879 3789.3754 Z" fill="none" stroke="#12852D" opacity="0.29850746268656714" stroke-width="1" class="kensington"/>
<path d="M 3071.2109 3755.8968 3129.6711 4012.4468 3013.8986 4082.3592 2884.1348 3867.3244 2884.7819 3863.0772 2874.4779 3857.8345 2880.9618 3846.7591 3071.2109 3755.8968 Z" fill="none" stroke="#12852D" opacity="0.29850746268656714" stroke-width="1" class="kensington"/>
<path d="M 2966.2795 3724.1168 3041.5779 3837.8349 2982.0705 3912.8367 2966.2795 3724.1168 Z" fill="none" stroke="#12852D" opacity="0.29850746268656714" stroke-width="1" class="kensington"/>
<path d="M 3065.1749 3750.8511 3115.2806 3972.3286 3011.52 4036.9736 2987.3876 3868.0737 2948.4785 3884.6944 2892.8827 3840.4046 3068.8795 3748.0815 3065.1749 3750.8511 Z" fill="none" stroke="#12852D" opacity="0.29850746268656714" stroke-width="1" class="kensington"/>
<path d="M 3040.1764 3796.9992 2934.5324 3612.4754 3158.5845 3381.7734 3210.6067 3734.1838 3040.1764 3796.9992 Z" fill="none" stroke="#12852D" opacity="0.29850746268656714" stroke-width="1" class="kensington"/>
<path d="M 3065.1755 3752.6967 3067.0262 3746.2366 3115.2817 3975.0976 3013.3738 4038.8192 2976.2541 3797.9384 3065.1755 3752.6967 Z" fill="none" stroke="#12852D" opacity="0.29850746268656714" stroke-width="1" class="kensington"/>
<path d="M 3059.1548 3755.0055 3066.7979 3756.8487 3103.9107 3918.3386 2996.6686 3934.5227 2994.8131 3924.3706 2890.567 3844.0964 3059.1548 3755.0055 Z" fill="none" stroke="#12852D" opacity="0.29850746268656714" stroke-width="1" class="kensington"/>
<path d="M 3074.4509 3788.6831 3114.5861 3973.4826 3011.7516 4036.512 2978.1081 3802.7829 3074.4509 3788.6831 Z" fill="none" stroke="#12852D" opacity="0.29850746268656714" stroke-width="1" class="kensington"/>
<path d="M 2977.1804 3797.0154 3064.7114 3749.9284 3123.4045 4015.2461 3018.945 4080.8182 3011.52 4036.9736 3001.0967 4042.7454 2975.3441 3871.7681 2948.4791 3887.4632 2891.9561 3839.4818 2977.1804 3797.0154 Z" fill="none" stroke="#12852D" opacity="0.29850746268656714" stroke-width="1" class="kensington"/>
<path d="M 3034.6171 3794.2323 3052.22 3797.9184 3072.5978 3787.7609 3109.9459 3953.4092 2990.8863 3970.7511 2882.4658 3886.5507 2908.4031 3855.3992 2893.346 3841.3274 2959.1172 3806.2476 3034.6171 3794.2323 Z" fill="none" stroke="#12852D" opacity="0.29850746268656714" stroke-width="1" class="kensington"/>
<path d="M 3063.3219 3749.9289 3113.4271 3971.4062 3009.666 4034.2049 2985.534 3865.3055 2948.4785 3884.6944 2893.8089 3838.5587 3063.3219 3749.9289 Z" fill="none" stroke="#12852D" opacity="0.29850746268656714" stroke-width="1" class="kensington"/>
<path d="M 3386.6175 3740.5439 3381.987 3742.3925 3488.7095 3992.423 3018.0147 4067.4335 2969.7455 3688.129 3386.6175 3740.5439 Z" fill="none" stroke="#12852D" opacity="0.29850746268656714" stroke-width="1" class="kensington"/>
<path d="M 2950.3323 3888.3857 2984.607 3863.4599 3010.5487 3864.3764 3208.8037 3840.3092 3200.4699 3849.5419 3224.6579 4055.3556 3019.8745 4091.4337 2898.4783 4102.536 2896.5945 3883.7801 2938.293 3916.999 2950.3323 3888.3857 Z" fill="none" stroke="#12852D" opacity="0.29850746268656714" stroke-width="1" class="kensington"/>
<path d="M 2866.9446 3865.3256 2972.5339 3731.4976 3048.4843 3697.3361 3209.6981 3772.0186 3141.2253 3973.2416 2866.9446 3865.3256 Z" fill="none" stroke="#12852D" opacity="0.29850746268656714" stroke-width="1" class="kensington"/>
<path d="M 3075.3628 3744.3883 3096.9498 3884.4233 2982.764 3906.3759 2904.0006 3843.6331 3075.3628 3744.3883 Z" fill="none" stroke="#12852D" opacity="0.29850746268656714" stroke-width="1" class="kensington"/>
<path d="M 3069.0379 3999.9581 3042.5495 3834.4009 3080.1848 3814.2244 3115.0064 3973.1411 3069.0379 3999.9581 Z" fill="none" stroke="#12852D" opacity="0.29850746268656714" stroke-width="1" class="kensington"/>
<path d="M 2890.7982 3840.6356 2960.275 3805.0938 3031.8378 3794.0023 3052.9151 3798.841 3073.9876 3788.4526 3114.3544 3973.2519 3001.3285 4043.2069 2984.8534 3927.1418 2883.3874 3847.5581 2890.7982 3840.6356 Z" fill="none" stroke="#12852D" opacity="0.29850746268656714" stroke-width="1" class="kensington"/>
<path d="M 3073.988 3789.6061 3101.8255 3916.9549 3098.5826 3916.9561 2985.7814 3933.3716 2978.1239 3873.3825 2954.0376 3885.1548 2924.1481 3825.634 2935.7326 3848.2423 2925.7692 3824.9415 3073.988 3789.6061 Z" fill="none" stroke="#12852D" opacity="0.29850746268656714" stroke-width="1" class="kensington"/>
<path d="M 3069.8073 3752.6952 3115.744 3972.5591 3002.487 4043.8989 2892.651 3840.1739 3069.8073 3752.6952 Z" fill="none" stroke="#12852D" opacity="0.29850746268656714" stroke-width="1" class="kensington"/>
<path d="M 3175.8517 3695.4439 3211.629 3937.6761 3120.3853 3994.9405 3066.564 3749.4665 3175.8517 3695.4439 Z" fill="none" stroke="#12852D" opacity="0.29850746268656714" stroke-width="1" class="kensington"/>
<path d="M 3074.4511 3789.1445 3116.2079 3974.1742 3012.4467 4036.9733 2978.1081 3803.0136 3032.301 3793.7715 3053.1466 3798.3795 3074.4511 3789.1445 Z" fill="none" stroke="#12852D" opacity="0.29850746268656714" stroke-width="1" class="kensington"/>
<path d="M 2979.0343 3802.0905 3074.914 3788.2216 3119.9146 3975.0958 3012.4469 4037.8964 2979.0343 3802.0905 Z" fill="none" stroke="#12852D" opacity="0.29850746268656714" stroke-width="1" class="kensington"/>
<path d="M 2978.1078 3801.6293 3083.2522 3790.0644 3121.7672 3973.7106 3016.1524 4033.7416 2978.1078 3801.6293 Z" fill="none" stroke="#12852D" opacity="0.29850746268656714" stroke-width="1" class="kensington"/>
<path d="M 3052.6834 3798.3797 3074.9144 3789.3751 3080.2502 3816.3663 3087.9056 3852.8171 3096.9512 3888.3457 3110.4087 3952.2553 3115.2818 3975.5591 3068.0337 4000.0353 3024.9543 4029.3547 3001.3286 4043.8992 2997.6146 4013.67 2990.4229 3970.2897 2986.4771 3936.8325 2981.8366 3902.9152 2980.4454 3896.4549 2960.7542 3882.6154 2949.6372 3887.2322 2935.5061 3876.3906 2927.8613 3869.4702 2892.8829 3841.7889 2963.5173 3804.1703 3033.9224 3794.4632 3052.6834 3798.3797 Z" fill="none" stroke="#12852D" opacity="0.29850746268656714" stroke-width="1" class="kensington"/>
<path d="M 2979.0342 3801.6291 3188.3706 3725.8891 3220.893 3934.4413 3017.0779 4029.5876 2979.0342 3801.6291 Z" fill="none" stroke="#12852D" opacity="0.29850746268656714" stroke-width="1" class="kensington"/>
<path d="M 3066.101 3749.928 3113.4268 3970.4832 3012.4464 4036.0503 2978.1064 3795.1695 3066.101 3749.928 Z" fill="none" stroke="#12852D" opacity="0.29850746268656714" stroke-width="1" class="kensington"/>
<path d="M 3064.104 3747.8837 3115.7688 3973.2177 2980.4481 4054.8292 2941.0537 3815.4796 3064.104 3747.8837 Z" fill="none" stroke="#12852D" opacity="0.29850746268656714" stroke-width="1" class="kensington"/>
<path d="M 3054.4609 3931.0457 3057.5927 3946.1583 3059.9101 3949.388 3057.8242 3945.8121 3057.3611 3946.2738 3059.1014 3955.9645 3057.9455 3963.4642 3058.7539 3955.9646 3057.4774 3947.7736 3054.3491 3944.198 3058.171 3943.7353 3056.0846 3938.1981 3055.1575 3936.4679 3054.4609 3931.0457 Z" fill="none" stroke="#12852D" opacity="0.29850746268656714" stroke-width="1" class="kensington"/>
<path d="M 3065.7191 4006.0358 3034.2205 4028.6598 3012.9077 4028.2041 3005.0238 3998.6688 3004.5536 3971.44 3001.3024 3938.6749 2993.8844 3915.6028 2988.7774 3868.5348 2985.989 3830.2359 2977.6443 3800.2452 2994.7804 3789.6286 3023.9576 3773.0104 3042.4819 3761.0087 3064.2487 3751.3128 3087.4433 3855.3551 3093.9325 3866.6584 3104.5986 3898.9566 3109.7082 3936.7957 3112.9648 3974.1754 3089.8059 3990.7979 3065.7191 4006.0358 Z" fill="none" stroke="#12852D" opacity="0.29850746268656714" stroke-width="1" class="kensington"/>
<path d="M 3075.6789 4044.6162 3032.5611 3770.2719 3066.8324 3754.574 3176.8629 3701.1192 3217.9988 3958.3986 3075.6789 4044.6162 Z" fill="none" stroke="#12852D" opacity="0.29850746268656714" stroke-width="1" class="kensington"/>
<path d="M 3012.4464 4036.0503 2984.6081 3868.0744 3087.4404 3846.8185 3106.9404 3969.5626 3012.4464 4036.0503 Z" fill="none" stroke="#12852D" opacity="0.29850746268656714" stroke-width="1" class="kensington"/>
<path d="M 2988.3138 3867.1506 3080.0182 3815.4436 3172.8843 4333.2676 3057.9474 4344.3903 2988.3138 3867.1506 Z" fill="none" stroke="#12852D" opacity="0.29850746268656714" stroke-width="1" class="kensington"/>
<path d="M 2894.273 3845.0188 2898.9054 3845.4795 2953.1129 3893.9227 2894.273 3845.0188 Z" fill="none" stroke="#12852D" opacity="0.29850746268656714" stroke-width="1" class="kensington"/>
<path d="M 3063.3224 3751.7745 3089.2958 3854.2009 3125.478 3985.2468 3018.9305 4026.818 3005.9526 4007.4374 3010.5762 3970.5155 2978.123 3868.9988 2933.6603 3916.9998 2867.8709 3863.4797 2966.0626 3793.3265 3063.3224 3751.7745 Z" fill="none" stroke="#12852D" opacity="0.29850746268656714" stroke-width="1" class="kensington"/>
<path d="M 3038.5313 3840.2198 3080.3737 3815.2153 3115.5775 3973.3105 3003.1855 4040.647 2977.7396 3871.0703 3038.5313 3840.2198 Z" fill="none" stroke="#12852D" opacity="0.29850746268656714" stroke-width="1" class="kensington"/>
<path d="M 3145.78 3778.5061 3210.7075 3948.2907 3014.2985 4031.4345 2984.6092 3872.6889 3145.78 3778.5061 Z" fill="none" stroke="#12852D" opacity="0.29850746268656714" stroke-width="1" class="kensington"/>
<path d="M 2985.5343 3866.6898 3184.2177 3761.418 3226.5103 4053.5085 3012.4703 4127.4379 2985.5343 3866.6898 Z" fill="none" stroke="#12852D" opacity="0.29850746268656714" stroke-width="1" class="kensington"/>
<path d="M 3063.3227 3752.6972 3068.4173 3751.3114 3125.958 4029.0909 3131.0695 4067.8581 3016.6301 4087.7421 2979.9594 3796.0919 3063.3227 3752.6972 Z" fill="none" stroke="#12852D" opacity="0.29850746268656714" stroke-width="1" class="kensington"/>
<path d="M 3065.1755 3752.6967 3114.3549 3974.6364 3010.1301 4036.9739 2986.9237 3865.3051 2941.9937 3888.3873 2947.0922 3902.2303 2936.4398 3916.5378 2866.4807 3858.8654 2890.5665 3839.9434 3065.1755 3752.6967 Z" fill="none" stroke="#12852D" opacity="0.29850746268656714" stroke-width="1" class="kensington"/>
<path d="M 2989.7034 3866.6888 2994.3358 3866.6877 2997.5783 3865.764 3192.1271 3839.394 3226.5114 4055.8162 3017.5564 4086.3572 2989.7034 3866.6888 Z" fill="none" stroke="#12852D" opacity="0.29850746268656714" stroke-width="1" class="kensington"/>
<path d="M 2967.918 3805.0922 2970.9284 3803.2459 3038.5546 3795.154 3052.6838 3799.7639 3052.6845 3802.071 3073.525 3790.2984 3132.459 4066.4729 3020.8003 4087.9718 3020.3347 4079.6639 3011.2885 4037.6659 3001.3282 4042.053 2967.918 3805.0922 Z" fill="none" stroke="#12852D" opacity="0.29850746268656714" stroke-width="1" class="kensington"/>
<path d="M 3073.7562 3788.9141 3118.0607 3973.2505 3016.152 4032.357 2994.3457 3907.2962 2898.9048 3841.3266 2980.4239 3802.0902 3073.7562 3788.9141 Z" fill="none" stroke="#12852D" opacity="0.29850746268656714" stroke-width="1" class="kensington"/>
<path d="M 2979.0332 3797.0149 3243.0276 3731.3996 3288.6233 4101.4776 3023.5942 4138.5128 2979.0332 3797.0149 Z" fill="none" stroke="#12852D" opacity="0.29850746268656714" stroke-width="1" class="kensington"/>
<path d="M 2959.5957 3880.5391 2927.6223 3826.0948 2963.7493 3806.2466 3004.974 3802.0843 3079.5472 3791.9113 3101.3494 3880.9608 3053.6396 3896.2047 2982.3005 3905.4531 2922.9905 3828.4027 2959.5957 3880.5391 Z" fill="none" stroke="#12852D" opacity="0.29850746268656714" stroke-width="1" class="kensington"/>
<path d="M 2976.2536 3795.6313 2973.4691 3771.6386 3060.0723 3726.3991 3067.9541 3751.3116 3176.7786 3696.8276 3198.6212 3858.7716 3101.8256 3917.4164 2986.2455 3936.8326 2980.4461 3899.4545 2892.8831 3843.1732 2976.2536 3795.6313 Z" fill="none" stroke="#12852D" opacity="0.29850746268656714" stroke-width="1" class="kensington"/>
<path d="M 3013.3736 4037.8961 3069.8884 4004.6499 3010.1297 4035.5893 3007.3456 4019.4366 3005.0253 4004.6685 3001.3137 3983.9014 2988.8001 3964.5214 3012.889 3956.67 3117.598 3974.6352 3013.3736 4037.8961 Z" fill="none" stroke="#12852D" opacity="0.29850746268656714" stroke-width="1" class="kensington"/>
<path d="M 3080.7129 3814.9819 3121.0833 4003.0167 3016.1624 4071.3571 2986.9236 3864.8437 3080.7129 3814.9819 Z" fill="none" stroke="#12852D" opacity="0.29850746268656714" stroke-width="1" class="kensington"/>
<path d="M 3180.9639 3735.12 3233.9213 4048.8895 2983.7334 4092.3659 2923.4532 3825.6341 3073.5206 3776.6868 2992.0016 3791.4749 2985.5172 3793.3221 3180.9639 3735.12 Z" fill="none" stroke="#12852D" opacity="0.29850746268656714" stroke-width="1" class="kensington"/>
<path d="M 2891.9561 3839.4818 2960.5061 3802.5559 3032.764 3793.31 3051.2933 3796.9959 3072.5966 3784.0696 3114.354 3972.3289 3012.4472 4038.8194 2986.4598 3862.5366 2946.6261 3887.4635 2891.9561 3839.4818 Z" fill="none" stroke="#12852D" opacity="0.29850746268656714" stroke-width="1" class="kensington"/>
<path d="M 2722.4193 3747.2064 2721.4934 3736.1331 3068.0328 3997.2662 2872.5416 4202.2423 2560.2624 3946.5273 2722.4193 3747.2064 Z" fill="none" stroke="#12852D" opacity="0.29850746268656714" stroke-width="1" class="kensington"/>
<path d="M 3074.4506 3787.7603 3116.2074 3972.7897 3001.097 4043.8992 2983.2288 3913.2979 2892.4197 3842.2504 2891.4929 3839.9433 3032.9962 3795.3863 3067.2616 3758.4634 3074.4506 3787.7603 Z" fill="none" stroke="#12852D" opacity="0.29850746268656714" stroke-width="1" class="kensington"/></svg>