<?xml version="1.0"?><svg xmlns="http://www.w3.org/2000/svg" version="1.2" baseProfile="tiny" width="6000" height="5918" viewBox="0 0 6000 5918" stroke-linecap="round" stroke-linejoin="round"><path d="M 4642.4709 2817.1349 4642.056 2772.7203 4635.5471 2757.062 4623.4589 2727.5878 4600.2783 2703.6666 4575.5632 2669.8442 4555.1051 2616.4236 4568.0499 2611.7905 4588.3983 2608.0647 4606.887 2599.7337 4618.9097 2596.9452 4633.708 2594.151 4642.9549 2591.3677 4653.1232 2586.7391 4649.2423 2573.9975 4656.5776 2540.804 4689.9315 2543.1043 4689.0383 2558.7738 4762.1485 2567.8384 4761.7093 2602.115 4767.3604 2649.1098 4788.6657 2660.1252 4806.2702 2671.1482 4808.1887 2702.4839 4830.554 2774.3365 4743.6253 2803.1003 4702.0014 2813.3272 4642.4709 2817.1349 Z" fill="none" stroke="#E71E24" opacity="0.6" stroke-width="1" class="kew_gardens_hills"/>
<path d="M 4657.8769 2501.2888 4650.3875 2457.0689 4764.2859 2509.3638 4769.1033 2599.6735 4676.6391 2629.3593 4654.3294 2577.7901 4657.8769 2501.2888 Z" fill="none" stroke="#E71E24" opacity="0.6" stroke-width="1" class="kew_gardens_hills"/>
<path d="M 4870.2871 2748.7767 4570.2773 2652.6115 4514.362 2437.9786 4869.7592 2511.8994 4870.2871 2748.7767 Z" fill="none" stroke="#E71E24" opacity="0.6" stroke-width="1" class="kew_gardens_hills"/>
<path d="M 4647.6159 2458.9175 4763.3549 2506.601 4760.8794 2648.5411 4806.2284 2653.0528 4824.054 2765.4716 4630.7689 2828.5601 4487.5767 2461.066 4576.3636 2448.92 4590.3789 2520.775 4621.8526 2529.9297 4646.7073 2467.2132 4647.6159 2458.9175 Z" fill="none" stroke="#E71E24" opacity="0.6" stroke-width="1" class="kew_gardens_hills"/>
<path d="M 4593.0197 2451.1917 4756.875 2504.7715 4757.6389 2647.6262 4784.9772 2667.3854 4674.0272 2710.4781 4661.944 2683.7711 4622.1833 2698.1374 4554.0157 2616.2349 4519.9142 2438.8898 4593.0153 2448.8879 4593.0197 2451.1917 Z" fill="none" stroke="#E71E24" opacity="0.6" stroke-width="1" class="kew_gardens_hills"/>
<path d="M 4645.5873 2834.0621 4625.0455 2741.9169 4555.4219 2625.91 4758.8887 2582.1835 4757.9965 2597.8537 4760.8696 2643.9325 4806.2622 2668.7222 4869.1626 2659.3668 4875.8477 2752.4516 4645.5873 2834.0621 Z" fill="none" stroke="#E71E24" opacity="0.6" stroke-width="1" class="kew_gardens_hills"/>
<path d="M 4824.058 2767.3152 4652.0214 2811.9238 4605.5586 2714.3011 4533.1086 2568.8083 4518.0863 2450.873 4636.5055 2454.3319 4760.5892 2511.2148 4759.0268 2647.6232 4796.0977 2675.1963 4824.058 2767.3152 Z" fill="none" stroke="#E71E24" opacity="0.6" stroke-width="1" class="kew_gardens_hills"/>
<path d="M 4657.6013 2825.5105 4657.1335 2822.9763 4517.6118 2444.4232 4870.6833 2511.4365 4872.833 2749.232 4657.6013 2825.5105 Z" fill="none" stroke="#E71E24" opacity="0.6" stroke-width="1" class="kew_gardens_hills"/>
<path d="M 4728.2347 2635.0141 4755.9891 2633.1126 4753.4523 2636.8048 4763.4356 2654.066 4737.0855 2664.03 4728.2347 2635.0141 Z" fill="none" stroke="#E71E24" opacity="0.6" stroke-width="1" class="kew_gardens_hills"/>
<path d="M 4646.6742 2450.6256 4758.7194 2502.0028 4810.5374 2506.4999 4798.8399 2659.5208 4822.2153 2771.0066 4707.5463 2810.8894 4620.5634 2815.6737 4635.2666 2763.0987 4614.823 2719.8137 4570.3319 2681.1853 4530.3054 2554.0674 4515.2905 2439.8199 4533.7835 2435.1778 4646.6742 2450.6256 Z" fill="none" stroke="#E71E24" opacity="0.6" stroke-width="1" class="kew_gardens_hills"/>
<path d="M 5050.2014 2144.757 5279.128 2680.4865 4634.478 2832.2403 4536.2649 2278.5283 5050.2014 2144.757 Z" fill="none" stroke="#E71E24" opacity="0.6" stroke-width="1" class="kew_gardens_hills"/>
<path d="M 4642.2914 2805.4901 4643.2104 2802.2617 4641.2909 2767.6959 4619.9106 2718.882 4580.9757 2682.5476 4555.4141 2621.7624 4642.3364 2595.3256 4655.0822 2491.6178 4743.9278 2507.1027 4760.1198 2507.9902 4759.5685 2575.5 4750.9194 2642.3404 4784.0588 2670.6134 4822.2123 2769.6239 4642.2914 2805.4901 Z" fill="none" stroke="#E71E24" opacity="0.6" stroke-width="1" class="kew_gardens_hills"/>
<path d="M 4517.8405 2443.0405 4532.4067 2440.9399 4570.3413 2444.0935 4605.0424 2449.3253 4625.3985 2451.3589 4647.1478 2456.1538 4748.7722 2501.1022 4758.4925 2504.0769 4808.2295 2508.8089 4802.0447 2643.8446 4801.1527 2659.2854 4806.0419 2673.7923 4805.8782 2705.1326 4825.2218 2770.5391 4704.083 2814.3536 4638.1388 2811.4905 4639.1918 2759.1731 4612.4916 2710.6004 4574.4874 2676.799 4546.5863 2601.7324 4529.3901 2559.3685 4526.2848 2506.612 4515.5577 2459.1715 4517.8405 2443.0405 Z" fill="none" stroke="#E71E24" opacity="0.6" stroke-width="1" class="kew_gardens_hills"/>
<path d="M 4635.3725 2816.5664 4636.1829 2758.4877 4561.0331 2657.2377 4521.9255 2525.5128 4531.9455 2441.6319 4645.7547 2453.392 4761.4871 2498.3107 4756.2432 2643.9422 4805.3608 2679.7851 4821.2758 2764.5558 4715.8715 2809.0285 4635.3725 2816.5664 Z" fill="none" stroke="#E71E24" opacity="0.6" stroke-width="1" class="kew_gardens_hills"/>
<path d="M 4612.6838 2572.3426 4573.7684 2542.9256 4599.6198 2515.2275 4636.6553 2529.9005 4627.3382 2496.7416 4649.4532 2452.4631 4614.3176 2461.7479 4697.4638 2406.2905 4693.9632 2503.9805 4695.6213 2409.9802 4612.6838 2572.3426 Z" fill="none" stroke="#E71E24" opacity="0.6" stroke-width="1" class="kew_gardens_hills"/>
<path d="M 4642.7669 2811.9423 4569.3643 2659.0653 4852.3789 2601.3365 4877.717 2760.7439 4642.7669 2811.9423 Z" fill="none" stroke="#E71E24" opacity="0.6" stroke-width="1" class="kew_gardens_hills"/>
<path d="M 4753.7751 2507.5584 4768.4191 2529.7067 4758.4874 2645.8575 4806.6838 2683.5458 4828.1382 2769.4727 4736.1356 2809.2603 4645.4402 2808.5232 4643.4903 2758.747 4626.7133 2697.9414 4579.4415 2656.5546 4557.5508 2616.5489 4639.6244 2592.9651 4659.7725 2489.7035 4753.7751 2507.5584 Z" fill="none" stroke="#E71E24" opacity="0.6" stroke-width="1" class="kew_gardens_hills"/>
<path d="M 4758.9315 2602.4601 4819.409 2757.1852 4654.7867 2806.387 4585.0908 2657.1917 4758.9315 2602.4601 Z" fill="none" stroke="#E71E24" opacity="0.6" stroke-width="1" class="kew_gardens_hills"/>
<path d="M 4758.9315 2602.4601 4759.9502 2646.6996 4788.6834 2669.6818 4807.2174 2682.5464 4824.0701 2772.8463 4838.0645 2824.4403 4750.1691 2835.6919 4731.583 2798.8553 4649.234 2806.3981 4622.1769 2694.9112 4582.3007 2649.8232 4671.0837 2627.5271 4645.8262 2489.3324 4752.2648 2512.1539 4758.9315 2602.4601 Z" fill="none" stroke="#E71E24" opacity="0.6" stroke-width="1" class="kew_gardens_hills"/>
<path d="M 4710.6196 2505.7895 4965.8806 2471.1311 4973.0049 2748.5422 4728.0019 2856.9423 4710.6196 2505.7895 Z" fill="none" stroke="#E71E24" opacity="0.6" stroke-width="1" class="kew_gardens_hills"/>
<path d="M 4824.058 2767.3152 4645.5818 2831.2964 4640.0015 2817.4791 4521.7901 2452.7092 4531.9368 2437.0243 4751.3067 2496.489 4824.058 2767.3152 Z" fill="none" stroke="#E71E24" opacity="0.6" stroke-width="1" class="kew_gardens_hills"/>
<path d="M 4650.1926 2822.9901 4577.6814 2653.519 4805.1876 2599.5963 4833.308 2765.4514 4650.1926 2822.9901 Z" fill="none" stroke="#E71E24" opacity="0.6" stroke-width="1" class="kew_gardens_hills"/>
<path d="M 4516.243 2454.5626 4580.9856 2447.068 4655.0259 2463.5104 4873.4907 2525.715 4890.4299 2652.8671 4805.315 2658.5851 4814.788 2759.9607 4644.5811 2793.5012 4573.9767 2651.6827 4516.243 2454.5626 Z" fill="none" stroke="#E71E24" opacity="0.6" stroke-width="1" class="kew_gardens_hills"/>
<path d="M 4657.0829 2566.7248 4681.5958 2621.1692 4701.4924 2622.8568 4721.4919 2618.3223 4725.062 2610.9414 4724.4517 2595.5045 4730.9446 2603.3252 4743.8944 2601.57 4763.2037 2599.11 4792.9574 2613.2174 4798.7516 2618.5047 4785.8217 2629.5929 4766.4145 2640.6947 4743.7403 2638.4382 4712.2856 2640.8079 4697.9325 2635.3071 4676.1569 2619.6824 4668.2448 2596.1955 4652.0173 2578.2556 4657.0829 2566.7248 Z" fill="none" stroke="#E71E24" opacity="0.6" stroke-width="1" class="kew_gardens_hills"/>
<path d="M 4726.9692 2805.318 4652.9302 2803.6251 4524.5843 2462.8409 4535.6544 2446.2326 4648.5483 2462.6018 4758.735 2509.3755 4759.0385 2653.1536 4801.6655 2682.5584 4819.431 2767.3253 4726.9692 2805.318 Z" fill="none" stroke="#E71E24" opacity="0.6" stroke-width="1" class="kew_gardens_hills"/>
<path d="M 4726.9692 2805.318 4671.0633 2617.3885 4857.0214 2608.6997 4876.7731 2752.4496 4726.9692 2805.318 Z" fill="none" stroke="#E71E24" opacity="0.6" stroke-width="1" class="kew_gardens_hills"/>
<path d="M 4518.8539 2366.0945 4964.8074 2407.5485 5024.9984 2820.3241 4662.1698 2796.2317 4517.0125 2370.7052 4518.8539 2366.0945 Z" fill="none" stroke="#E71E24" opacity="0.6" stroke-width="1" class="kew_gardens_hills"/>
<path d="M 4740.8411 2800.6797 4659.7365 2505.8929 5069.563 2499.4523 5124.5262 2651.3896 5067.0841 2621.1148 5078.2707 2655.1909 5101.3848 2647.7602 4740.8411 2800.6797 Z" fill="none" stroke="#E71E24" opacity="0.6" stroke-width="1" class="kew_gardens_hills"/>
<path d="M 4648.5345 2455.6903 4667.5158 2463.9461 4722.1438 2486.4126 4759.1801 2501.0803 4809.1557 2509.2677 4804.718 2596.3714 4802.4825 2632.3222 4800.6806 2654.9082 4804.8773 2670.1078 4808.2016 2709.7365 4824.9905 2770.5397 4782.916 2785.3801 4754.7149 2796.9631 4719.5704 2807.638 4680.7018 2807.7177 4642.7678 2812.4032 4638.5823 2801.8099 4633.8539 2750.6568 4612.4979 2713.8266 4582.3681 2684.8493 4564.2717 2657.2316 4554.4836 2618.9991 4642.8017 2596.7072 4647.851 2576.8814 4653.6963 2492.5421 4648.5345 2455.6903 Z" fill="none" stroke="#E71E24" opacity="0.6" stroke-width="1" class="kew_gardens_hills"/>
<path d="M 4640.2846 2493.9512 4858.1108 2523.2535 4869.3474 2742.3261 4741.8697 2785.4023 4644.5031 2470.6144 4640.2846 2493.9512 Z" fill="none" stroke="#E71E24" opacity="0.6" stroke-width="1" class="kew_gardens_hills"/>
<path d="M 4563.737 2619.4424 4654.357 2591.615 4644.1392 2571.3589 4648.734 2555.6818 4684.8091 2551.9227 4679.286 2565.7584 4763.4914 2571.1139 4757.1879 2653.1575 4807.2194 2683.4682 4806.3499 2709.2796 4826.8463 2772.8402 4717.7262 2810.8684 4649.2414 2810.0856 4648.2424 2773.2131 4624.9638 2700.4364 4592.5413 2682.0644 4558.1925 2623.1397 4563.737 2619.4424 Z" fill="none" stroke="#E71E24" opacity="0.6" stroke-width="1" class="kew_gardens_hills"/>
<path d="M 4654.6133 2719.735 4839.6826 2718.4248 4840.047 2884.361 4671.6139 2890.2477 4654.6133 2719.735 Z" fill="none" stroke="#E71E24" opacity="0.6" stroke-width="1" class="kew_gardens_hills"/>
<path d="M 4655.2503 2806.847 4638.9133 2735.4368 4588.3356 2660.4115 4868.586 2608.2132 4871.2104 2747.8529 4732.0572 2804.3856 4721.8764 2803.9458 4655.2503 2806.847 Z" fill="none" stroke="#E71E24" opacity="0.6" stroke-width="1" class="kew_gardens_hills"/>
<path d="M 4727.0899 2640.662 4755.6467 2635.3024 4764.0166 2655.3322 4739.2847 2664.832 4727.0899 2640.662 Z" fill="none" stroke="#E71E24" opacity="0.6" stroke-width="1" class="kew_gardens_hills"/>
<path d="M 4557.7622 2884.0169 4601.3637 2936.4858 4647.7652 2998.1706 4582.1714 3063.7677 4486.8938 3101.7539 4377.409 2956.2567 4557.7622 2884.0169 Z" fill="none" stroke="#E71E24" opacity="0.6" stroke-width="1" class="kew_gardens_hills"/>
<path d="M 4639.9814 2807.3384 4803.6753 2756.2974 4826.9389 2815.2458 4639.9814 2807.3384 Z" fill="none" stroke="#E71E24" opacity="0.6" stroke-width="1" class="kew_gardens_hills"/>
<path d="M 4640.029 2831.3074 4640.8099 2758.4785 4609.2493 2708.7632 4572.1666 2672.8861 4556.3367 2620.3781 4526.5961 2549.4661 4531.1445 2507.9853 4649.6684 2560.2882 4759.7945 2572.965 4804.2086 2574.7135 4796.0997 2676.1181 4819.433 2768.2472 4640.029 2831.3074 Z" fill="none" stroke="#E71E24" opacity="0.6" stroke-width="1" class="kew_gardens_hills"/>
<path d="M 4556.8037 2622.6815 4652.5121 2594.3837 4649.461 2572.2699 4648.3092 2458.6857 4760.5736 2503.8421 4871.6121 2513.0472 4871.2146 2749.6965 4647.4281 2828.988 4556.8037 2622.6815 Z" fill="none" stroke="#E71E24" opacity="0.6" stroke-width="1" class="kew_gardens_hills"/>
<path d="M 4514.4303 2474.8399 4543.982 2447.1385 4655.0296 2465.3535 4725.4143 2502.0726 4725.4831 2535.2499 4736.7084 2594.2117 4740.5443 2658.7228 4790.6249 2712.0788 4805.5659 2774.7301 4735.2962 2804.3788 4644.6215 2813.7824 4564.7483 2664.6045 4514.4303 2474.8399 Z" fill="none" stroke="#E71E24" opacity="0.6" stroke-width="1" class="kew_gardens_hills"/>
<path d="M 4834.8294 2826.2912 4658.0405 2813.7556 4525.0185 2447.6348 4809.6203 2510.1883 4834.8294 2826.2912 Z" fill="none" stroke="#E71E24" opacity="0.6" stroke-width="1" class="kew_gardens_hills"/>
<path d="M 4651.0812 2804.5507 4531.0583 2461.9073 4558.7974 2454.4827 4867.9438 2527.5706 4875.8271 2743.2335 4720.0284 2805.3324 4651.0812 2804.5507 Z" fill="none" stroke="#E71E24" opacity="0.6" stroke-width="1" class="kew_gardens_hills"/>
<path d="M 4648.3086 2806.4 4642.7632 2810.0985 4555.4115 2620.3799 4656.213 2594.3763 4663.6798 2626.6203 4756.1499 2599.7009 4752.5382 2642.1066 4802.5809 2677.9476 4819.435 2769.169 4648.3086 2806.4 Z" fill="none" stroke="#E71E24" opacity="0.6" stroke-width="1" class="kew_gardens_hills"/>
<path d="M 4829.6195 2771.4514 4649.7291 2590.7026 4568.3792 2627.7288 4594.3509 2660.8607 4740.8296 2795.1486 4642.0818 2467.2224 4760.5931 2513.0579 4829.6195 2771.4514 Z" fill="none" stroke="#E71E24" opacity="0.6" stroke-width="1" class="kew_gardens_hills"/>
<path d="M 4528.2503 2444.4034 4870.6761 2508.2109 4870.2851 2747.8549 4642.7596 2808.2548 4505.1248 2445.3678 4528.2503 2444.4034 Z" fill="none" stroke="#E71E24" opacity="0.6" stroke-width="1" class="kew_gardens_hills"/></svg>