<?xml version="1.0"?><svg xmlns="http://www.w3.org/2000/svg" version="1.2" baseProfile="tiny" width="6000" height="5918" viewBox="0 0 6000 5918" stroke-linecap="round" stroke-linejoin="round"><path d="M 4669.9933 3004.5805 4652.3768 2989.8629 4637.565 2988.9703 4622.7388 2980.7011 4606.9944 2976.1217 4594.0234 2969.6927 4581.9817 2965.1057 4565.3034 2955.9174 4547.7068 2950.4187 4538.444 2946.748 4528.2558 2943.0791 4518.9932 2939.4083 4506.9471 2932.0546 4493.9808 2927.4684 4499.5189 2919.1604 4523.5661 2909.8961 4542.0527 2896.9539 4559.622 2888.6231 4577.1875 2878.4481 4587.3539 2871.053 4591.0327 2859.0608 4608.6387 2870.0898 4633.6583 2885.7137 4649.4105 2894.902 4678.1392 2913.2837 4695.7679 2934.4536 4705.0615 2952.8747 4727.3349 2981.4117 4734.7648 2993.383 4720.8842 2995.2559 4696.7878 2980.5526 4709.7046 2960.2414 4712.5479 2992.5069 4687.5635 2996.2463 4669.9933 3004.5805 Z" fill="none" stroke="#A9159C" opacity="0.6" stroke-width="1" class="kew_gardens"/>
<path d="M 4724.5676 2986.0277 4708.8454 2992.5146 4683.8517 2991.6436 4678.3166 3000.8754 4666.7397 2997.6716 4657.937 2993.079 4648.332 2992.2913 4638.6134 2992.5412 4624.3924 2997.8711 4614.6783 3000.4258 4605.0822 3004.2481 4599.7632 3005.9873 4586.8134 3010.738 4577.3297 3012.9462 4565.7671 3017.1176 4557.7919 3021.6279 4547.1487 3022.5701 4541.2509 3024.3102 4534.3 3019.828 4516.9287 3011.5617 4506.9691 3006.7392 4523.9543 2994.1447 4521.0408 2982.8549 4514.5457 2974.3381 4511.7537 2966.1602 4514.7395 2954.0531 4521.5402 2940.3256 4502.7819 2931.947 4494.908 2928.3887 4498.6991 2913.7452 4512.6884 2908.5333 4522.8539 2900.2167 4534.7503 2889.592 4547.4613 2881.6162 4559.9373 2871.9122 4585.3543 2854.0012 4595.1995 2860.0899 4615.9241 2868.5774 4636.8858 2879.7146 4656.3428 2890.2783 4677.6524 2901.4142 4693.5227 2911.4084 4699.4554 2927.1853 4708.6294 2943.7625 4713.7441 2955.3924 4726.9918 2983.3718 4724.5676 2986.0277 Z" fill="none" stroke="#A9159C" opacity="0.6" stroke-width="1" class="kew_gardens"/>
<path d="M 4484.1978 2928.0699 4581.2381 2853.2098 4648.3044 2884.1874 4621.8016 2902.4986 4641.5534 2944.8711 4686.5815 2980.7941 4702.7551 2968.7745 4707.4173 2985.3617 4717.1205 2977.7348 4725.6695 2971.4933 4742.0918 3017.8041 4586.1504 3053.9878 4473.8316 3040.7636 4523.427 2995.9121 4515.5385 2972.4094 4521.2653 2941.0501 4484.1978 2928.0699 Z" fill="none" stroke="#A9159C" opacity="0.6" stroke-width="1" class="kew_gardens"/>
<path d="M 4600.899 2855.9689 4612.03 2868.8045 4641.7468 2919.4538 4660.3152 2947.9987 4698.3168 2973.7384 4721.4952 2992.1316 4687.2771 3006.9549 4629.9166 3021.8231 4588.2712 3026.5148 4565.0665 2993.3646 4541.0366 3012.7735 4506.7657 3000.8504 4511.3325 2967.6482 4524.2326 2936.2757 4558.4279 2909.4738 4543.5862 2891.9845 4559.2711 2866.1403 4600.899 2855.9689 Z" fill="none" stroke="#A9159C" opacity="0.6" stroke-width="1" class="kew_gardens"/>
<path d="M 4474.5657 2939.4897 4579.9321 2861.848 4711.5976 2980.5222 4667.222 3007.3523 4474.5657 2939.4897 Z" fill="none" stroke="#A9159C" opacity="0.6" stroke-width="1" class="kew_gardens"/>
<path d="M 4735.6942 2995.2251 4684.8016 3003.6285 4629.2399 2991.7529 4601.4676 2989.9632 4572.7857 2996.4729 4528.3831 3011.3099 4509.7987 2972.618 4457.9005 2936.7537 4531.8753 2898.817 4591.0185 2851.6854 4633.569 2840.5393 4642.8274 2842.3647 4679.9642 2900.3724 4713.3575 2936.2615 4735.6942 2995.2251 Z" fill="none" stroke="#A9159C" opacity="0.6" stroke-width="1" class="kew_gardens"/>
<path d="M 4632.519 2910.526 4397.4664 3109.4523 4271.962 2801.9976 4408.4039 2501.2876 4638.2301 2494.5875 4790.1897 2539.3823 4836.9743 2778.9318 4632.519 2910.526 Z" fill="none" stroke="#A9159C" opacity="0.6" stroke-width="1" class="kew_gardens"/>
<path d="M 4515.5441 2951.1703 4477.7806 2925.8844 4567.6975 2876.6224 4606.5676 2875.856 4627.8552 2876.2752 4697.1191 2916.2415 4732.2241 2995.6934 4595.5118 3021.3251 4575.1682 3032.1988 4569.6261 3038.4336 4559.2062 3035.2261 4552.7222 3032.9331 4547.3927 3029.2548 4535.8129 3024.4356 4527.4695 3017.7661 4526.0802 3017.3077 4524.6904 3016.6187 4507.0831 3005.817 4523.2547 2991.2645 4507.6978 2962.7101 4513.4606 2950.7132 4515.5441 2951.1703 Z" fill="none" stroke="#A9159C" opacity="0.6" stroke-width="1" class="kew_gardens"/>
<path d="M 4703.0327 2864.03 4684.0853 2876.5148 4683.576 2870.5924 4680.3176 2861.1492 4648.8354 2884.8561 4622.8972 2897.2218 4598.4951 2912.7614 4604.7574 2920.3556 4588.5 2927.0932 4584.0929 2921.5697 4575.2746 2908.218 4586.9394 2895.6187 4580.9089 2888.0242 4573.1795 2879.5416 4564.3429 2870.1473 4637.1334 2836.7568 4637.8497 2831.8711 4648.7092 2824.4743 4738.4269 2869.3572 4744.8224 2829.7013 4739.212 2872.5941 4736.9256 2874.2948 4703.0327 2864.03 Z" fill="none" stroke="#A9159C" opacity="0.6" stroke-width="1" class="kew_gardens"/>
<path d="M 4633.5598 2835.9297 4731.1026 3012.754 4485.6306 2916.4198 4633.5598 2835.9297 Z" fill="none" stroke="#A9159C" opacity="0.6" stroke-width="1" class="kew_gardens"/>
<path d="M 4683.818 2975.0468 4547.8494 3026.0266 4370.0043 2956.2693 4589.1657 2850.7671 4683.818 2975.0468 Z" fill="none" stroke="#A9159C" opacity="0.6" stroke-width="1" class="kew_gardens"/>
<path d="M 4583.6093 2848.934 4593.7967 2852.602 4626.2215 2869.1334 4671.6213 2893.9355 4696.6652 2920.6219 4718.9472 2953.7681 4691.2285 2977.7979 4653.3098 2993.5492 4598.6621 2975.2159 4549.5579 2950.4152 4493.0434 2921.0162 4292.5334 2556.3251 4583.6093 2848.934 Z" fill="none" stroke="#A9159C" opacity="0.6" stroke-width="1" class="kew_gardens"/>
<path d="M 4586.6349 2858.1474 4626.236 2876.5089 4644.9968 2886.1522 4659.3627 2896.265 4688.309 2907.7312 4700.596 2919.2308 4703.1782 2937.2044 4702.9728 2949.8825 4700.4562 2963.9485 4687.2904 2975.7313 4685.0101 2992.3328 4669.0422 2991.9041 4651.678 2987.5591 4639.6358 2982.9729 4627.1327 2979.3094 4614.8571 2973.5708 4595.1853 2972.226 4572.0117 2954.7521 4557.4363 2956.1629 4544.6952 2948.5803 4529.1805 2942.6163 4533.3279 2933.1581 4540.9482 2924.8458 4549.0407 2921.6036 4556.8918 2913.0604 4548.3092 2901.7825 4540.6544 2891.6553 4546.8865 2883.5765 4556.133 2878.9492 4569.5274 2865.5556 4576.696 2863.4676 4586.6349 2858.1474 Z" fill="none" stroke="#A9159C" opacity="0.6" stroke-width="1" class="kew_gardens"/>
<path d="M 4591.4096 3054.0676 4585.8075 2909.0867 4824.768 2880.7066 4836.8887 3026.8202 4591.4096 3054.0676 Z" fill="none" stroke="#A9159C" opacity="0.6" stroke-width="1" class="kew_gardens"/>
<path d="M 4590.006 2851.8047 4695.2266 2911.9688 4734.4858 2996.5238 4680.8774 3003.5189 4544.9078 2955.8131 4521.5105 2941.7962 4476.5906 2928.7422 4590.006 2851.8047 Z" fill="none" stroke="#A9159C" opacity="0.6" stroke-width="1" class="kew_gardens"/>
<path d="M 4594.0281 2852.6015 4652.1696 2886.1379 4626.0491 2899.0971 4649.0498 2946.073 4614.5932 2956.9747 4566.6667 2942.7761 4547.6259 2907.5461 4533.4764 2888.9029 4584.0711 2848.4721 4594.0281 2852.6015 Z" fill="none" stroke="#A9159C" opacity="0.6" stroke-width="1" class="kew_gardens"/>
<path d="M 4519.8477 2901.1443 4528.162 2892.8311 4546.1776 2875.7412 4555.4196 2868.8092 4568.8306 2864.1741 4585.9345 2854.922 4605.8505 2864.1027 4634.1001 2875.1104 4662.367 2894.4151 4691.1044 2916.9453 4599.483 2921.2765 4599.5287 2944.7874 4602.787 2954.4622 4593.0817 2961.3962 4568.0555 2943.004 4544.4421 2937.0557 4534.2452 2928.7769 4524.0495 2920.959 4631.8574 2911.0713 4544.8684 2917.693 4519.8477 2901.1443 Z" fill="none" stroke="#A9159C" opacity="0.6" stroke-width="1" class="kew_gardens"/>
<path d="M 4590.0859 2847.9996 4580.8275 2846.1736 4693.6928 2824.7461 4792.0823 2960.0682 4473.8302 3044.6053 4405.0246 2868.6213 4590.0859 2847.9996 Z" fill="none" stroke="#A9159C" opacity="0.6" stroke-width="1" class="kew_gardens"/>
<path d="M 4652.9524 2814.6876 4673.3653 2840.9207 4670.6493 2870.8887 4656.3575 2897.654 4629.128 2935.0484 4613.4538 2965.9667 4573.2441 2994.1669 4546.4462 3018.1916 4489.5263 3022.4465 4385.8247 3006.0327 4322.784 2947.1282 4317.0973 2866.004 4356.8084 2815.233 4366.9789 2809.6845 4378.0748 2804.1344 4390.096 2798.5826 4411.3617 2787.4834 4438.1745 2773.6085 4456.6678 2765.2791 4477.4702 2754.6405 4524.6419 2742.1093 4555.1768 2740.6692 4592.2409 2765.9484 4628.3816 2791.2287 4652.9524 2814.6876 Z" fill="none" stroke="#A9159C" opacity="0.6" stroke-width="1" class="kew_gardens"/>
<path d="M 4561.4573 2880.322 4640.0546 2844.2141 4732.0129 3005.3755 4572.8139 3011.2259 4480.1426 2952.3878 4561.4573 2880.322 Z" fill="none" stroke="#A9159C" opacity="0.6" stroke-width="1" class="kew_gardens"/>
<path d="M 4545.0394 3008.5124 4581.5437 2978.0151 4586.1704 2977.3146 4597.0419 2974.9885 4662.206 2929.4506 4667.0851 2939.3523 4666.6794 2967.7052 4706.7582 2877.7297 4727.1008 2868.6988 4731.0639 2882.9807 4718.6152 2905.1336 4715.8714 2921.0434 4708.2835 2944.3395 4699.0593 2959.8022 4684.0414 2971.1277 4545.0394 3008.5124 Z" fill="none" stroke="#A9159C" opacity="0.6" stroke-width="1" class="kew_gardens"/>
<path d="M 4584.549 2856.3075 4732.9116 2992.4648 4552.5074 3041.6935 4360.8465 3014.3739 4366.3988 3013.4424 4584.549 2856.3075 Z" fill="none" stroke="#A9159C" opacity="0.6" stroke-width="1" class="kew_gardens"/>
<path d="M 4611.0675 2692.1677 4816.3545 2629.0662 4985.0262 2744.8268 4835.4255 2887.137 4626.2396 2878.3528 4611.0675 2692.1677 Z" fill="none" stroke="#A9159C" opacity="0.6" stroke-width="1" class="kew_gardens"/>
<path d="M 4576.744 3024.9093 4322.3244 2985.6738 4507.4651 2776.5093 4644.8255 2855.6083 4687.7264 2977.3841 4642.7027 3002.33 4576.744 3024.9093 Z" fill="none" stroke="#A9159C" opacity="0.6" stroke-width="1" class="kew_gardens"/>
<path d="M 4730.1405 2995.2367 4721.806 2993.4099 4719.0463 3001.7141 4509.7 2919.1416 4634.4908 2838.6936 4738.4557 2987.8429 4730.1405 2995.2367 Z" fill="none" stroke="#A9159C" opacity="0.6" stroke-width="1" class="kew_gardens"/>
<path d="M 4644.7636 2885.2307 4603.9853 2975.6666 4495.1449 2931.3848 4589.8572 2849.3829 4644.7636 2885.2307 Z" fill="none" stroke="#A9159C" opacity="0.6" stroke-width="1" class="kew_gardens"/>
<path d="M 4323.7994 3001.5267 4638.1835 2834.0768 4641.8836 2833.1475 4744.0693 3016.4152 4592.3309 3051.7605 4363.8449 3145.3127 4323.7994 3001.5267 Z" fill="none" stroke="#A9159C" opacity="0.6" stroke-width="1" class="kew_gardens"/>
<path d="M 4605.048 2927.2586 4731.986 2992.4667 4584.8934 3035.177 4506.0844 2966.1707 4605.048 2927.2586 Z" fill="none" stroke="#A9159C" opacity="0.6" stroke-width="1" class="kew_gardens"/>
<path d="M 4528.359 2998.401 4452.1594 2831.6616 4624.2689 2817.5102 4641.2712 2990.8071 4528.359 2998.401 Z" fill="none" stroke="#A9159C" opacity="0.6" stroke-width="1" class="kew_gardens"/>
<path d="M 4697.5663 2908.6343 4736.668 3018.2749 4575.681 3058.2474 4456.9914 2945.9754 4555.9217 2889.5521 4555.9112 2884.0204 4586.3964 2854.4601 4697.5663 2908.6343 Z" fill="none" stroke="#A9159C" opacity="0.6" stroke-width="1" class="kew_gardens"/>
<path d="M 4517.26 3003.0319 4509.6966 2917.2976 4641.8946 2838.6789 4743.1398 3014.573 4573.7925 3038.8867 4517.26 3003.0319 Z" fill="none" stroke="#A9159C" opacity="0.6" stroke-width="1" class="kew_gardens"/>
<path d="M 4422.7337 2939.5821 4587.3343 2860.9118 4692.9104 2894.8142 4733.7335 2942.6733 4761.5689 2974.8857 4763.463 2995.1668 4758.8874 3020.0724 4593.2512 3048.9924 4462.708 3036.7875 4422.7337 2939.5821 Z" fill="none" stroke="#A9159C" opacity="0.6" stroke-width="1" class="kew_gardens"/>
<path d="M 4622.5901 2905.0967 4662.5994 3010.1278 4577.4793 3030.5807 4544.9213 2945.8139 4587.5371 2966.0171 4553.2585 2949.4862 4622.5901 2905.0967 Z" fill="none" stroke="#A9159C" opacity="0.6" stroke-width="1" class="kew_gardens"/>
<path d="M 4736.6045 2987.8468 4665.3707 3007.356 4490.2769 2926.5532 4625.2451 2843.3214 4711.476 2921.5134 4736.6045 2987.8468 Z" fill="none" stroke="#A9159C" opacity="0.6" stroke-width="1" class="kew_gardens"/>
<path d="M 4590.1001 2855.3749 4703.2973 2995.2921 4698.673 2997.1457 4705.1561 2998.9766 4673.6922 3002.7289 4486.5713 2924.716 4590.1001 2855.3749 Z" fill="none" stroke="#A9159C" opacity="0.6" stroke-width="1" class="kew_gardens"/>
<path d="M 4587.7828 2853.5355 4637.7245 2835.9215 4702.6728 2916.4606 4717.5664 2957.4591 4657.9388 2994.001 4479.6329 2926.5726 4587.7828 2853.5355 Z" fill="none" stroke="#A9159C" opacity="0.6" stroke-width="1" class="kew_gardens"/>
<path d="M 4360.9913 3100.1306 4296.811 2912.1349 4429.0519 2848.2969 4567.8831 2852.6518 4677.2006 2906.8317 4749.7394 3071.7297 4758.2671 3164.8518 4403.7395 3195.0446 4360.9913 3100.1306 Z" fill="none" stroke="#A9159C" opacity="0.6" stroke-width="1" class="kew_gardens"/>
<path d="M 4632.6289 2833.1659 4715.2182 2940.8677 4580.1358 2967.8754 4480.0873 2921.9618 4632.6289 2833.1659 Z" fill="none" stroke="#A9159C" opacity="0.6" stroke-width="1" class="kew_gardens"/>
<path d="M 4487.2258 2923.258 4588.8981 2851.1548 4652.8321 2888.8287 4591.8225 2927.6715 4564.1856 2995.9545 4523.47 3002.4856 4487.2258 2923.258 Z" fill="none" stroke="#A9159C" opacity="0.6" stroke-width="1" class="kew_gardens"/>
<path d="M 4585.4638 2850.7742 4690.1544 2904.9615 4742.1736 2995.2116 4580.2952 3050.8616 4500.5935 3000.2965 4465.2685 2916.4567 4585.4638 2850.7742 Z" fill="none" stroke="#A9159C" opacity="0.6" stroke-width="1" class="kew_gardens"/>
<path d="M 4587.3165 2851.6926 4692.948 2913.2536 4734.8109 3015.5125 4585.8529 3052.6951 4576.437 2969.7265 4468.0601 2924.7495 4587.3165 2851.6926 Z" fill="none" stroke="#A9159C" opacity="0.6" stroke-width="1" class="kew_gardens"/>
<path d="M 4705.9151 2917.8369 4722.7202 2987.8757 4359.2052 3138.8651 4295.0495 2967.458 4589.164 2849.8452 4705.9151 2917.8369 Z" fill="none" stroke="#A9159C" opacity="0.6" stroke-width="1" class="kew_gardens"/>
<path d="M 4612.5516 2977.955 4483.7988 2927.026 4583.0632 2805.6059 4781.4232 2953.1759 4591.3571 3026.8657 4316.3958 3002.461 4364.4788 2972.8752 4380.1731 2948.8759 4425.5282 2949.7193 4433.8357 2936.7965 4481.9468 2926.5684 4612.5516 2977.955 Z" fill="none" stroke="#A9159C" opacity="0.6" stroke-width="1" class="kew_gardens"/>
<path d="M 4567.6742 2872.6793 4578.5292 2870.1006 4586.3773 2860.4052 4617.8586 2867.7194 4601.4341 2872.2506 4610.2517 2885.1406 4622.7616 2892.9527 4626.5954 2905.3032 4633.8265 2915.2721 4631.5114 2930.626 4645.8769 2940.2785 4653.7637 2949.9439 4630.2824 2961.8555 4613.6478 2975.2577 4593.7437 2973.4524 4563.5756 2960.6931 4535.2917 2948.0835 4525.1 2942.5705 4567.6742 2872.6793 Z" fill="none" stroke="#A9159C" opacity="0.6" stroke-width="1" class="kew_gardens"/>
<path d="M 4293.2087 2973.9152 4146.4292 2609.0846 4183.4142 2592.4396 4200.0586 2585.9628 4706.8558 2925.2109 4741.2962 3018.2652 4588.6281 3051.7677 4293.2087 2973.9152 Z" fill="none" stroke="#A9159C" opacity="0.6" stroke-width="1" class="kew_gardens"/>
<path d="M 4590.1037 2857.2187 4701.9449 2916.2648 4736.3557 2995.4875 4678.0487 2999.2956 4677.9911 3001.5031 4648.3286 2980.3554 4580.7288 2964.8131 4523.2903 2937.2613 4486.2507 2928.1095 4590.1037 2857.2187 Z" fill="none" stroke="#A9159C" opacity="0.6" stroke-width="1" class="kew_gardens"/>
<path d="M 4713.2953 2906.0665 4654.6554 2972.109 4645.6284 2970.9744 4618.7253 2940.1399 4590.4793 2931.8969 4584.2566 2944.8169 4571.4943 2926.1709 4556.4299 2913.5223 4534.165 2885.9052 4560.5125 2870.1825 4586.8596 2854.6897 4594.4873 2850.7568 4640.9632 2835.6846 4691.6082 2823.598 4744.3782 2832.4774 4741.2007 2861.9854 4713.2953 2906.0665 Z" fill="none" stroke="#A9159C" opacity="0.6" stroke-width="1" class="kew_gardens"/>
<path d="M 4586.6264 2853.7682 4637.2599 2835.0005 4687.3623 2897.3609 4717.3441 2961.8392 4670.6769 2999.2773 4546.5572 2954.3394 4479.1706 2926.8039 4533.2472 2890.0558 4586.6264 2853.7682 Z" fill="none" stroke="#A9159C" opacity="0.6" stroke-width="1" class="kew_gardens"/>
<path d="M 4587.3272 2857.2241 4640.9709 2839.6027 4659.5507 2874.5988 4617.9534 2900.496 4691.2491 2987.9403 4721.7678 2974.969 4731.986 2992.4667 4661.6534 2999.987 4604.2104 2972.439 4520.0078 2987.3518 4511.6397 2967.0824 4522.6903 2936.6354 4484.7185 2923.7973 4587.3272 2857.2241 Z" fill="none" stroke="#A9159C" opacity="0.6" stroke-width="1" class="kew_gardens"/>
<path d="M 4586.5976 2861.3631 4713.4974 2934.5159 4638.538 2969.422 4717.1522 2939.2778 4571.5507 2996.3655 4451.3056 2943.9387 4484.5631 2927.9245 4586.5976 2861.3631 Z" fill="none" stroke="#A9159C" opacity="0.6" stroke-width="1" class="kew_gardens"/>
<path d="M 4587.3397 2863.6776 4570.1004 3044.4264 4331.2197 3010.7352 4587.3397 2863.6776 Z" fill="none" stroke="#A9159C" opacity="0.6" stroke-width="1" class="kew_gardens"/>
<path d="M 4277.3347 2887.2732 4414.0479 2735.8561 4661.4442 2895.7999 4658.6769 2900.4153 4392.6789 3223.654 4277.3347 2887.2732 Z" fill="none" stroke="#A9159C" opacity="0.6" stroke-width="1" class="kew_gardens"/>
<path d="M 4637.3622 2886.6283 4739.443 3017.347 4425.4699 2916.5274 4491.855 2777.1993 4637.3622 2886.6283 Z" fill="none" stroke="#A9159C" opacity="0.6" stroke-width="1" class="kew_gardens"/>
<path d="M 4663.0082 2752.9032 4770.2125 2686.3127 4837.2321 2866.8503 4670.7163 2904.0789 4663.0082 2752.9032 Z" fill="none" stroke="#A9159C" opacity="0.6" stroke-width="1" class="kew_gardens"/>
<path d="M 4556.8262 2878.4869 4590.109 2859.9845 4654.0124 2881.9854 4609.6614 2919.8737 4581.0596 2966.9516 4567.2073 2983.5748 4518.2027 3012.2509 4491.3827 3025.2094 4425.7291 3064.0555 4366.5207 3085.3668 4321.0376 3010.752 4310.7907 2971.1205 4505.0468 2905.3205 4556.8262 2878.4869 Z" fill="none" stroke="#A9159C" opacity="0.6" stroke-width="1" class="kew_gardens"/>
<path d="M 4585.4762 2857.2277 4530.4905 2900.6635 4638.8891 2839.8373 4665.6643 2923.2202 4647.0623 2993.7922 4577.4461 3013.2917 4530.057 2916.3379 4585.4762 2857.2277 Z" fill="none" stroke="#A9159C" opacity="0.6" stroke-width="1" class="kew_gardens"/>
<path d="M 4493.1093 2925.13 4615.1998 2826.686 4649.7034 2883.9707 4585.0024 2928.3522 4565.6904 2993.853 4517.5647 2997.6318 4518.9376 2998.4715 4514.6404 2999.2761 4493.1093 2925.13 Z" fill="none" stroke="#A9159C" opacity="0.6" stroke-width="1" class="kew_gardens"/>
<path d="M 4640.0272 2830.3855 4741.2846 3012.7327 4362.9238 3148.0809 4296.9142 2975.7533 4640.0272 2830.3855 Z" fill="none" stroke="#A9159C" opacity="0.6" stroke-width="1" class="kew_gardens"/>
<path d="M 4534.5077 2945.3724 4555.073 2930.1206 4554.808 2912.3729 4538.7991 2889.3539 4591.0172 2850.994 4645.9228 2886.3808 4647.5439 2887.0691 4646.8474 2885.918 4648.9317 2886.8358 4655.6169 2990.0869 4604.449 2976.1267 4538.3143 3000.918 4594.0604 2988.825 4540.8619 3002.0658 4534.5077 2945.3724 Z" fill="none" stroke="#A9159C" opacity="0.6" stroke-width="1" class="kew_gardens"/>
<path d="M 4586.2737 3030.9096 4574.2593 3040.9605 4539.0505 3023.2769 4508.9352 3006.2746 4523.4926 2994.7218 4516.9816 2977.676 4513.0179 2961.5477 4522.6967 2940.0929 4543.2513 2919.0791 4574.4617 2904.9596 4617.1338 2954.5495 4661.318 3005.8658 4586.2737 3030.9096 Z" fill="none" stroke="#A9159C" opacity="0.6" stroke-width="1" class="kew_gardens"/>
<path d="M 4522.2342 2940.209 4574.6889 2902.7695 4629.3051 2966.1661 4606.2991 2975.5468 4522.2342 2940.209 Z" fill="none" stroke="#A9159C" opacity="0.6" stroke-width="1" class="kew_gardens"/>
<path d="M 4636.81 2841.4548 4690.1638 2909.5713 4728.7492 2993.8565 4670.9106 3000.4294 4647.7478 2989.4111 4543.2194 3025.1133 4532.5675 3021.4449 4510.2471 2964.7799 4522.231 2938.4803 4481.4799 2924.2642 4636.81 2841.4548 Z" fill="none" stroke="#A9159C" opacity="0.6" stroke-width="1" class="kew_gardens"/>
<path d="M 4592.3344 3053.6047 4504.3079 3006.7441 4524.1877 2995.1815 4511.6355 2964.7774 4519.9187 2939.4066 4495.8378 2930.692 4500.8971 2913.6259 4521.2403 2903.4466 4528.1783 2901.5898 4533.2481 2890.5167 4585.9372 2856.3049 4588.7083 2853.5337 4694.3316 2910.9458 4711.533 2949.1734 4741.76 3018.7253 4712.6058 3020.63 4682.0715 3026.686 4657.561 3036.4174 4592.3344 3053.6047 Z" fill="none" stroke="#A9159C" opacity="0.6" stroke-width="1" class="kew_gardens"/>
<path d="M 4234.0187 3005.3588 4388.1042 2716.5433 4732.7926 2935.2992 4675.769 3114.3013 4234.0187 3005.3588 Z" fill="none" stroke="#A9159C" opacity="0.6" stroke-width="1" class="kew_gardens"/>
<path d="M 4583.0377 3032.8753 4413.0602 2965.4155 4405.155 2943.7618 4460.2127 2935.8276 4477.3207 2927.4987 4487.0206 2917.3392 4522.1598 2900.218 4590.5522 2849.8425 4638.6499 2835.9197 4664.1773 2874.1285 4695.2581 2911.4049 4732.4555 2995.6929 4707.4683 2998.0498 4676.4681 3002.2623 4583.0377 3032.8753 Z" fill="none" stroke="#A9159C" opacity="0.6" stroke-width="1" class="kew_gardens"/>
<path d="M 4493.9825 2928.3904 4649.2745 2826.6795 4733.8468 2997.0731 4663.5102 3002.7494 4470.8601 2937.6524 4493.9825 2928.3904 Z" fill="none" stroke="#A9159C" opacity="0.6" stroke-width="1" class="kew_gardens"/>
<path d="M 4642.7981 2827.6143 4747.7371 2999.8102 4681.0954 3001.7919 4600.5151 2976.1343 4477.3157 2924.7328 4526.3238 2899.7493 4642.7981 2827.6143 Z" fill="none" stroke="#A9159C" opacity="0.6" stroke-width="1" class="kew_gardens"/>
<path d="M 4535.4768 2845.1073 4576.5833 2804.6965 4611.9944 2811.3115 4644.3631 2800.1852 4656.6726 2823.8991 4652.779 2843.7278 4664.1731 2872.0542 4713.7604 2907.218 4751.4406 3000.2635 4670.4831 3017.9496 4580.7412 3042.1007 4507.5442 3004.894 4456.0254 2923.3881 4542.4773 2876.6702 4535.0758 2878.067 4535.4768 2845.1073 Z" fill="none" stroke="#A9159C" opacity="0.6" stroke-width="1" class="kew_gardens"/>
<path d="M 4582.6944 2854.4672 4586.3955 2853.9992 4711.0094 2919.6704 4757.4416 2992.8744 4665.3689 3006.434 4583.0403 3034.2584 4589.5592 3054.5322 4473.8177 3037.6896 4507.0857 3007.2001 4502.3219 2933.4461 4475.006 2927.0419 4582.6944 2854.4672 Z" fill="none" stroke="#A9159C" opacity="0.6" stroke-width="1" class="kew_gardens"/>
<path d="M 4582.6944 2854.4672 4698.5126 2918.7741 4726.4897 3020.1402 4480.0857 2921.0398 4582.6944 2854.4672 Z" fill="none" stroke="#A9159C" opacity="0.6" stroke-width="1" class="kew_gardens"/>
<path d="M 4589.1693 2852.6109 4671.6381 2902.2331 4648.5916 2948.3789 4658.882 3002.7587 4579.3394 3035.1876 4571.9623 3049.9555 4472.8895 3036.3081 4481.9452 2925.6464 4589.1693 2852.6109 Z" fill="none" stroke="#A9159C" opacity="0.6" stroke-width="1" class="kew_gardens"/>
<path d="M 4535.7907 2889.129 4586.3893 2850.7725 4698.4994 2912.3203 4711.5254 2945.4853 4741.2654 3003.5121 4742.2238 3019.1853 4590.4777 3050.842 4514.5002 3012.2578 4507.0865 3007.6611 4523.955 2994.4904 4514.6611 2974.2226 4510.7099 2964.7791 4526.153 2932.2495 4547.3823 2901.0927 4535.7907 2889.129 Z" fill="none" stroke="#A9159C" opacity="0.6" stroke-width="1" class="kew_gardens"/>
<path d="M 4406.5073 2908.083 4479.7594 2904.4674 4595.1675 2845.5176 4662.0746 2876.9451 4636.7628 2939.1404 4590.1611 3024.945 4384.8044 3084.1987 4317.464 2945.582 4406.5073 2908.083 Z" fill="none" stroke="#A9159C" opacity="0.6" stroke-width="1" class="kew_gardens"/>
<path d="M 4479.1718 2927.4954 4585.47 2854.0009 4693.8688 2910.9468 4739.9087 3018.7291 4683.9256 3028.0653 4590.4848 3054.5304 4476.131 3037.2244 4523.262 2995.1833 4510.2454 2963.8579 4520.846 2940.3269 4479.1718 2927.4954 Z" fill="none" stroke="#A9159C" opacity="0.6" stroke-width="1" class="kew_gardens"/>
<path d="M 4731.5286 2883.9017 4648.4634 2884.0709 4629.7012 2873.7362 4595.8733 2849.6017 4598.6399 2844.5258 4612.5013 2833.8969 4623.8025 2815.6673 4640.2187 2810.334 4665.6615 2806.8262 4688.7995 2807.7012 4700.0762 2778.409 4726.199 2768.6758 4746.2098 2823.2546 4746.7121 2842.1525 4731.5286 2883.9017 Z" fill="none" stroke="#A9159C" opacity="0.6" stroke-width="1" class="kew_gardens"/>
<path d="M 4585.478 2858.1496 4591.0274 2856.295 4691.0875 2908.6475 4713.4108 2962.0778 4659.8003 2999.0686 4418.1252 2950.6543 4585.478 2858.1496 Z" fill="none" stroke="#A9159C" opacity="0.6" stroke-width="1" class="kew_gardens"/>
<path d="M 4549.6528 3000.6662 4451.4026 2926.1624 4550.2353 2819.0358 4690.1563 2905.8835 4549.6528 3000.6662 Z" fill="none" stroke="#A9159C" opacity="0.6" stroke-width="1" class="kew_gardens"/>
<path d="M 4590.1001 2855.3749 4633.6729 2893.0893 4634.582 2884.7899 4630.8599 2874.6559 4632.7164 2877.418 4643.8574 2894.9131 4623.5773 2936.4423 4642.1602 2972.3644 4679.1825 2971.3681 4648.6008 2952.989 4630.9855 2938.2718 4714.3573 2972.2182 4719.9491 2990.6476 4711.6337 2998.0412 4682.9504 3003.6322 4667.2183 3005.5082 4667.2164 3004.5861 4654.2833 3017.5211 4702.4095 3013.7353 4678.3633 3023.9272 4646.9112 3034.1334 4637.6546 3034.1518 4634.8794 3035.0794 4632.567 3036.006 4607.2182 3090.9222 4596.7435 3059.8205 4590.9196 3040.0064 4583.7523 3043.4781 4586.7501 3037.9397 4622.6028 2911.5505 4635.5568 2909.681 4491.1704 2909.0339 4590.1001 2855.3749 Z" fill="none" stroke="#A9159C" opacity="0.6" stroke-width="1" class="kew_gardens"/>
<path d="M 4586.8574 2853.5373 4693.8716 2912.3297 4731.0661 2995.2348 4676.9253 2999.4951 4479.6313 2925.6506 4586.8574 2853.5373 Z" fill="none" stroke="#A9159C" opacity="0.6" stroke-width="1" class="kew_gardens"/>
<path d="M 4587.313 2849.8488 4699.8877 2912.3174 4744.0751 3019.1815 4590.4813 3052.6862 4495.0431 3002.1508 4478.7074 2926.5742 4587.313 2849.8488 Z" fill="none" stroke="#A9159C" opacity="0.6" stroke-width="1" class="kew_gardens"/>
<path d="M 4356.3828 3112.1265 4116.331 2913.3322 4604.7302 2764.0805 4878.1087 2935.9074 4356.3828 3112.1265 Z" fill="none" stroke="#A9159C" opacity="0.6" stroke-width="1" class="kew_gardens"/>
<path d="M 4476.3651 2926.516 4588.4584 2852.4122 4696.6149 2911.061 4737.9885 3017.9969 4476.3651 2926.516 Z" fill="none" stroke="#A9159C" opacity="0.6" stroke-width="1" class="kew_gardens"/>
<path d="M 4650.7109 2882.474 4711.7773 2914.6189 4712.7872 2996.3414 4565.7801 3018.4274 4515.3546 2939.7294 4525.7616 2891.4946 4650.7109 2882.474 Z" fill="none" stroke="#A9159C" opacity="0.6" stroke-width="1" class="kew_gardens"/>
<path d="M 4693.8679 2910.4858 4722.6934 2974.9671 4673.6903 3001.8068 4481.4849 2927.0302 4586.8565 2853.0764 4693.8679 2910.4858 Z" fill="none" stroke="#A9159C" opacity="0.6" stroke-width="1" class="kew_gardens"/>
<path d="M 4554.5185 2881.7181 4661.6654 3005.9804 4587.706 3053.6137 4435.4481 3063.5773 4554.5185 2881.7181 Z" fill="none" stroke="#A9159C" opacity="0.6" stroke-width="1" class="kew_gardens"/>
<path d="M 4566.3872 3038.9008 4430.1919 2969.9956 4391.2991 2959.921 4374.6165 2947.0413 4584.5507 2857.2294 4635.5787 2920.7448 4662.492 2956.6493 4681.9724 2977.8167 4693.106 2990.7027 4566.3872 3038.9008 Z" fill="none" stroke="#A9159C" opacity="0.6" stroke-width="1" class="kew_gardens"/>
<path d="M 4661.4099 2993.994 4459.2603 2920.8469 4598.4197 2850.2882 4694.3391 2914.6337 4661.4099 2993.994 Z" fill="none" stroke="#A9159C" opacity="0.6" stroke-width="1" class="kew_gardens"/>
<path d="M 4704.0602 2915.9968 4725.5047 2991.5581 4659.804 3000.9127 4550.3441 2876.6553 4586.3875 2849.8505 4704.0602 2915.9968 Z" fill="none" stroke="#A9159C" opacity="0.6" stroke-width="1" class="kew_gardens"/>
<path d="M 4656.0295 2964.9605 4809.4531 2860.4573 4625.6445 3046.1628 4656.0295 2964.9605 Z" fill="none" stroke="#A9159C" opacity="0.6" stroke-width="1" class="kew_gardens"/>
<path d="M 4426.316 2871.3499 4496.5851 2833.425 4919.6479 2886.9487 4374.8851 3104.7179 4249.6459 2936.1819 4426.316 2871.3499 Z" fill="none" stroke="#A9159C" opacity="0.6" stroke-width="1" class="kew_gardens"/>
<path d="M 4589.1907 2863.674 4721.8194 2999.8643 4518.3516 3092.4745 4448.6596 2945.0683 4589.1907 2863.674 Z" fill="none" stroke="#A9159C" opacity="0.6" stroke-width="1" class="kew_gardens"/>
<path d="M 4659.4471 2822.9716 5284.4759 2603.9695 5726.6943 3177.991 5145.6688 3330.8926 4659.4471 2822.9716 Z" fill="none" stroke="#A9159C" opacity="0.6" stroke-width="1" class="kew_gardens"/>
<path d="M 4229.542 3103.1099 3873.8075 2887.8329 3876.5776 2882.2979 4667.5516 2711.4129 4894.8833 2986.5812 4229.542 3103.1099 Z" fill="none" stroke="#A9159C" opacity="0.6" stroke-width="1" class="kew_gardens"/>
<path d="M 4591.136 2852.6071 4637.0336 2837.5362 4642.0029 2834.9911 4674.0329 2885.0568 4697.6827 2908.9798 4723.2686 2973.3523 4693.681 2988.9727 4687.8034 3000.3951 4677.394 3002.3756 4643.5841 2990.2262 4577.3324 3014.3293 4541.2539 3025.9238 4505.928 3006.8564 4523.7238 2994.6061 4469.1172 2933.5065 4509.6776 2907.0407 4566.4014 2864.2939 4591.136 2852.6071 Z" fill="none" stroke="#A9159C" opacity="0.6" stroke-width="1" class="kew_gardens"/>
<path d="M 4629.8507 2832.2495 4396.8559 2961.7555 3974.6811 2881.2555 3878.2016 2689.6285 4166.7723 2600.7595 4370.488 2696.2943 4629.8507 2832.2495 Z" fill="none" stroke="#A9159C" opacity="0.6" stroke-width="1" class="kew_gardens"/>
<path d="M 4590.1037 2857.2187 4697.7454 2996.2256 4588.6459 3060.9888 4455.32 3046.4828 4374.6416 2961.7936 4590.1037 2857.2187 Z" fill="none" stroke="#A9159C" opacity="0.6" stroke-width="1" class="kew_gardens"/>
<path d="M 4777.89 2815.3516 4423.4617 3354.5731 4313.6219 3004.3097 4735.3231 2817.2851 4766.7534 2800.6252 4777.89 2815.3516 Z" fill="none" stroke="#A9159C" opacity="0.6" stroke-width="1" class="kew_gardens"/>
<path d="M 4589.1871 2861.8301 4687.3947 2913.2649 4715.2943 2977.7485 4533.9318 3008.5333 4512.5397 2953.2504 4533.8023 2939.3807 4505.0773 2921.9161 4589.1871 2861.8301 Z" fill="none" stroke="#A9159C" opacity="0.6" stroke-width="1" class="kew_gardens"/>
<path d="M 4680.0554 3002.4855 4602.017 2974.9789 4545.7462 2953.7647 4509.7294 2935.0459 4475.4685 2926.9259 4491.9919 2915.371 4520.4272 2901.7194 4525.2852 2901.1342 4534.2867 2889.1319 4585.2371 2853.1947 4589.9807 2853.416 4652.6363 2888.0961 4692.4774 2909.4514 4715.1389 2958.5014 4729.0788 2985.4421 4733.0364 2996.8443 4680.9808 3002.3684 4680.0554 3002.4855 Z" fill="none" stroke="#A9159C" opacity="0.6" stroke-width="1" class="kew_gardens"/>
<path d="M 4528.9903 2840.7403 4585.2347 2731.8546 4650.8714 2699.4632 4765.7498 2763.7532 4888.0062 2809.5792 4937.1141 2835.2806 4919.6605 2892.4804 4846.6882 2958.1055 4842.1818 3013.4384 4668.0938 2980.6109 4582.0438 2997.3772 4528.9903 2840.7403 Z" fill="none" stroke="#A9159C" opacity="0.6" stroke-width="1" class="kew_gardens"/>
<path d="M 4586.3928 2852.6163 4692.9442 2911.4096 4730.1443 2997.0808 4664.4395 3004.5917 4652.3842 2993.5511 4494.9064 2927.4667 4586.3928 2852.6163 Z" fill="none" stroke="#A9159C" opacity="0.6" stroke-width="1" class="kew_gardens"/>
<path d="M 4595.6477 2852.5984 4707.0112 3000.8169 4676.4504 2993.5027 4578.2793 2965.1129 4475.4496 2916.4383 4595.6477 2852.5984 Z" fill="none" stroke="#A9159C" opacity="0.6" stroke-width="1" class="kew_gardens"/>
<path d="M 4595.6549 2856.2861 4600.2841 2857.199 4603.9861 2857.1918 4610.4771 2863.6327 4619.7448 2870.0681 4626.2324 2874.665 4636.4148 2875.5668 4641.0533 2881.0893 4646.6137 2884.766 4642.9227 2890.3051 4636.4513 2894.0058 4623.5084 2901.4071 4617.9715 2909.7157 4614.2783 2914.3328 4597.6382 2924.5071 4590.2729 2944.8053 4582.9144 2968.7921 4576.4281 2965.1164 4558.8365 2962.3839 4527.3268 2941.2368 4512.5073 2935.7323 4486.5797 2929.3259 4472.6762 2918.2873 4481.0029 2916.4282 4492.1111 2917.33 4505.9757 2907.1628 4519.8468 2900.6833 4524.4522 2888.6892 4533.697 2883.1403 4543.8673 2877.5895 4554.9595 2870.193 4566.0427 2858.1868 4576.2213 2857.2455 4591.0167 2850.7635 4585.4674 2852.6181 4595.6549 2856.2861 Z" fill="none" stroke="#A9159C" opacity="0.6" stroke-width="1" class="kew_gardens"/>
<path d="M 4729.1056 2942.6829 4765.3418 2789.5658 4776.9037 2786.7757 4804.1828 2777.0377 4824.059 2767.7762 4867.0749 2760.7677 4904.0303 2733.9519 4920.2369 2739.4459 4922.136 2760.6435 4938.8823 2799.3229 4952.8321 2828.791 4964.0278 2867.4856 4957.5964 2887.7833 4955.352 2917.7526 4933.627 2928.8666 4908.196 2938.6056 4874.4394 2950.6677 4851.7759 2956.7112 4832.8205 2965.5121 4796.7539 2980.343 4770.8632 2992.846 4764.3682 2985.4833 4747.1862 2957.8584 4772.2805 2788.6292 4744.5352 2796.9845 4744.626 2840.3131 4753.0037 2863.3435 4725.2885 2887.3719 4721.6495 2917.8045 4729.1056 2942.6829 Z" fill="none" stroke="#A9159C" opacity="0.6" stroke-width="1" class="kew_gardens"/>
<path d="M 4568.2708 2660.1209 4801.2969 2590.5197 4822.5182 2774.9782 4627.3673 2831.6173 4568.2708 2660.1209 Z" fill="none" stroke="#A9159C" opacity="0.6" stroke-width="1" class="kew_gardens"/>
<path d="M 4546.5608 2883.6389 4587.4861 2856.4862 4694.8368 2911.9068 4732.5076 2994.9026 4677.3308 3004.2074 4476.9651 2927.2838 4546.5608 2883.6389 Z" fill="none" stroke="#A9159C" opacity="0.6" stroke-width="1" class="kew_gardens"/>
<path d="M 4563.2083 2827.7692 4641.9862 2884.7752 4556.0527 2958.7011 4470.8301 2921.0566 4563.2083 2827.7692 Z" fill="none" stroke="#A9159C" opacity="0.6" stroke-width="1" class="kew_gardens"/>
<path d="M 4523.5798 2917.2719 4729.8701 2865.2358 4719.012 2985.1172 4523.5798 2917.2719 Z" fill="none" stroke="#A9159C" opacity="0.6" stroke-width="1" class="kew_gardens"/>
<path d="M 4280.6339 2924.6077 4384.8489 2706.8702 4657.7301 2889.8146 4562.2427 3049.974 4280.6339 2924.6077 Z" fill="none" stroke="#A9159C" opacity="0.6" stroke-width="1" class="kew_gardens"/>
<path d="M 4600.4686 2952.1617 4341.0649 2808.8062 4792.4123 2682.5783 4913.2908 2940.4381 4570.9203 2989.1 4600.4686 2952.1617 Z" fill="none" stroke="#A9159C" opacity="0.6" stroke-width="1" class="kew_gardens"/>
<path d="M 4572.6425 3042.5773 4506.1545 3004.205 4523.2616 2994.9527 4510.478 2964.549 4521.7725 2940.7861 4478.0132 2926.5755 4585.2386 2854.0014 4644.7632 2885.0002 4701.0541 2916.9249 4731.5318 2996.6169 4664.2104 3005.7447 4582.5753 3033.1067 4572.6425 3042.5773 Z" fill="none" stroke="#A9159C" opacity="0.6" stroke-width="1" class="kew_gardens"/>
<path d="M 4480.0966 2927.0327 4589.6294 2851.2272 4723.5244 2929.3255 4758.3692 2993.7945 4677.8556 3001.7984 4480.0966 2927.0327 Z" fill="none" stroke="#A9159C" opacity="0.6" stroke-width="1" class="kew_gardens"/>
<path d="M 4457.4113 2922.0027 4580.8346 2849.8612 4623.0556 2906.4788 4572.9911 2982.8722 4519.3072 2983.8955 4458.3368 2922.001 4457.4113 2922.0027 Z" fill="none" stroke="#A9159C" opacity="0.6" stroke-width="1" class="kew_gardens"/>
<path d="M 4552.6536 2874.3461 4664.9079 3007.357 4350.8044 3097.8424 4301.9922 2967.9077 4550.3415 2875.2724 4552.6536 2874.3461 Z" fill="none" stroke="#A9159C" opacity="0.6" stroke-width="1" class="kew_gardens"/>
<path d="M 4504.3198 3013.1986 4502.3007 2921.9212 4591.9582 2859.059 4643.9619 2947.4661 4690.3461 2999.0069 4657.0381 3006.4507 4585.8138 3032.4089 4568.235 3037.0531 4517.2993 3024.2396 4504.3198 3013.1986 Z" fill="none" stroke="#A9159C" opacity="0.6" stroke-width="1" class="kew_gardens"/>
<path d="M 4481.4757 2921.9593 4586.8556 2852.6154 4697.5729 2911.8612 4731.5213 2991.5456 4650.5311 2992.6327 4509.8592 3005.3508 4481.4757 2921.9593 Z" fill="none" stroke="#A9159C" opacity="0.6" stroke-width="1" class="kew_gardens"/>
<path d="M 4638.1726 2828.5454 4745.0007 3019.1795 4462.4968 2919.2276 4638.1726 2828.5454 Z" fill="none" stroke="#A9159C" opacity="0.6" stroke-width="1" class="kew_gardens"/>
<path d="M 4615.3671 2903.1748 4624.9978 2905.7374 4635.7976 2937.8012 4640.2517 2943.5088 4661.7461 2953.9769 4669.2419 2999.1418 4660.1637 2995.6563 4646.9863 2978.9013 4633.0573 2956.2469 4604.4835 2922.5576 4596.692 2913.9061 4615.3671 2903.1748 Z" fill="none" stroke="#A9159C" opacity="0.6" stroke-width="1" class="kew_gardens"/>
<path d="M 4518.7502 2808.4931 4875.9836 2813.2937 4915.8765 3263.1894 4439.8286 3184.8367 4509.4957 2808.5102 4853.7729 2813.3431 4518.7502 2808.4931 Z" fill="none" stroke="#A9159C" opacity="0.6" stroke-width="1" class="kew_gardens"/>
<path d="M 4478.7757 2927.2721 4645.591 2835.9059 4659.3282 2994.4593 4478.7757 2927.2721 Z" fill="none" stroke="#A9159C" opacity="0.6" stroke-width="1" class="kew_gardens"/>
<path d="M 4491.2058 2928.3955 4591.96 2859.9809 4696.8217 2997.1495 4585.8671 3060.072 4493.2087 3011.3749 4491.2058 2928.3955 Z" fill="none" stroke="#A9159C" opacity="0.6" stroke-width="1" class="kew_gardens"/>
<path d="M 4371.4353 2709.1975 4602.2122 2896.8389 4567.1264 2941.1617 4416.3965 3020.733 4262.6564 2969.3539 4257.7779 2810.7852 4371.4353 2709.1975 Z" fill="none" stroke="#A9159C" opacity="0.6" stroke-width="1" class="kew_gardens"/>
<path d="M 4612.4146 2907.8826 4692.2011 3000.8472 4520.0437 3006.715 4612.4146 2907.8826 Z" fill="none" stroke="#A9159C" opacity="0.6" stroke-width="1" class="kew_gardens"/>
<path d="M 4684.7108 2731.1968 4790.7717 2780.5235 4833.1536 2694.9338 4836.8459 2690.7777 4791.6966 2780.2911 4783.3817 2786.7618 4684.7108 2731.1968 Z" fill="none" stroke="#A9159C" opacity="0.6" stroke-width="1" class="kew_gardens"/>
<path d="M 4605.8047 2840.5938 4740.1393 2907.6242 4737.5551 2999.8316 4541.4444 3065.6893 4599.3318 2843.3721 4536.809 3062.0095 4565.082 2839.7503 4605.8047 2840.5938 Z" fill="none" stroke="#A9159C" opacity="0.6" stroke-width="1" class="kew_gardens"/>
<path d="M 4535.7907 2889.129 4551.2688 2876.1926 4584.3083 2851.4679 4584.0729 2849.394 4583.8433 2850.3164 4695.2529 2908.8695 4734.2669 2976.5566 4738.9368 2996.6015 4687.5795 3004.0839 4654.9315 2994.4681 4606.7652 2977.2747 4577.5873 2966.2667 4521.0787 2941.0179 4539.5542 2921.852 4554.5762 2912.1428 4535.7907 2889.129 Z" fill="none" stroke="#A9159C" opacity="0.6" stroke-width="1" class="kew_gardens"/>
<path d="M 4594.7258 2854.444 4693.6421 2913.2522 4659.5522 2990.7706 4510.6307 2921.9059 4594.7258 2854.444 Z" fill="none" stroke="#A9159C" opacity="0.6" stroke-width="1" class="kew_gardens"/>
<path d="M 4681.7947 2890.2271 4769.1928 3078.1436 4621.2027 3141.1535 4588.6442 3060.0667 4575.6103 3021.3634 4567.2196 2990.0291 4582.9002 2961.4159 4591.1717 2930.9735 4615.1949 2909.7211 4645.6992 2890.2996 4681.7947 2890.2271 Z" fill="none" stroke="#A9159C" opacity="0.6" stroke-width="1" class="kew_gardens"/>
<path d="M 4479.1584 2920.1195 4586.3946 2853.5382 4616.9719 2871.9174 4692.0243 2914.1774 4723.6248 2977.7313 4657.9545 3001.8385 4604.3037 3020.3859 4570.0846 3036.1275 4508.9395 3008.5797 4478.3533 2986.5062 4384.7994 2947.9459 4479.1584 2920.1195 Z" fill="none" stroke="#A9159C" opacity="0.6" stroke-width="1" class="kew_gardens"/>
<path d="M 4489.3404 2920.562 4499.5232 2921.4653 4506.9437 2930.2106 4506.7111 2929.5195 4513.7794 2935.3842 4516.1055 2941.9492 4518.8865 2944.249 4514.6099 2946.562 4517.8634 2954.0473 4513.9256 2951.8648 4517.0522 2953.3573 4489.3404 2920.562 Z" fill="none" stroke="#A9159C" opacity="0.6" stroke-width="1" class="kew_gardens"/>
<path d="M 4476.3918 2925.6564 4586.1579 2850.7729 4692.7124 2911.1796 4731.9951 2996.8464 4572.4146 3044.4219 4508.2431 3007.4284 4524.1894 2996.1036 4510.9489 2968.9278 4521.5436 2942.1696 4476.3918 2925.6564 Z" fill="none" stroke="#A9159C" opacity="0.6" stroke-width="1" class="kew_gardens"/>
<path d="M 4583.6128 2850.7778 4693.8679 2910.4858 4733.8142 2981.3983 4732.6802 2992.4652 4738.9701 3012.5071 4734.3466 3014.8219 4692.2067 3003.6134 4680.863 3001.3313 4651.4539 2991.2478 4601.8986 2973.596 4580.1314 2965.5703 4566.7546 2988.8775 4527.9074 3004.3952 4512.8052 2971.6905 4520.1531 2941.0196 4479.6271 2923.3456 4535.0896 2885.4425 4583.6128 2850.7778 Z" fill="none" stroke="#A9159C" opacity="0.6" stroke-width="1" class="kew_gardens"/>
<path d="M 4504.1501 2920.9958 4582.6998 2857.233 4622.572 2895.8771 4694.0486 2998.9993 4504.1501 2920.9958 Z" fill="none" stroke="#A9159C" opacity="0.6" stroke-width="1" class="kew_gardens"/>
<path d="M 4164.9027 2587.8589 4740.9163 2836.6332 4591.4123 3055.4507 4305.3047 3012.6219 4164.9027 2587.8589 Z" fill="none" stroke="#A9159C" opacity="0.6" stroke-width="1" class="kew_gardens"/>
<path d="M 4591.6648 2946.6467 4581.057 2965.5685 4278.2994 2911.7037 4276.8307 2861.4597 4410.3376 2730.7927 4593.7896 2848.9143 4718.4034 2914.5843 4738.4653 2992.4532 4591.6648 2946.6467 Z" fill="none" stroke="#A9159C" opacity="0.6" stroke-width="1" class="kew_gardens"/>
<path d="M 4560.988 2874.4594 4589.71 2854.6473 4712.2251 2995.3383 4526.4756 3050.7052 4505.7194 2913.7553 4560.988 2874.4594 Z" fill="none" stroke="#A9159C" opacity="0.6" stroke-width="1" class="kew_gardens"/>
<path d="M 4767.9446 2926.0054 4804.5906 3180.4309 4350.9305 3173.0009 4318.9983 2896.4252 4767.9446 2926.0054 Z" fill="none" stroke="#A9159C" opacity="0.6" stroke-width="1" class="kew_gardens"/>
<path d="M 4588.008 2850.3084 4638.8822 2836.3802 4671.3621 2880.1067 4729.6681 2990.6274 4740.602 3018.2666 4735.3952 3018.2775 4733.7679 3014.7078 4685.0305 3002.3602 4655.7384 2992.9681 4581.5211 2966.2592 4525.9405 2942.3919 4511.1139 2932.9689 4461.8083 2922.3405 4479.607 2912.2818 4496.2579 2907.4111 4516.3739 2899.5373 4532.7834 2889.4804 4559.3539 2869.2627 4588.008 2850.3084 Z" fill="none" stroke="#A9159C" opacity="0.6" stroke-width="1" class="kew_gardens"/>
<path d="M 4591.4052 3051.7623 4479.1601 2921.0415 4641.8909 2836.8351 4739.4391 3015.5028 4591.4052 3051.7623 Z" fill="none" stroke="#A9159C" opacity="0.6" stroke-width="1" class="kew_gardens"/>
<path d="M 4587.3201 2853.5364 4693.4051 2910.4867 4732.4565 2996.1539 4681.0926 3000.4088 4582.1094 3031.4939 4569.6534 3052.7262 4470.5787 3038.1565 4523.7231 2994.2603 4508.8595 2965.2435 4522.2378 2942.1683 4476.3968 2928.4224 4515.6862 2902.9959 4587.3201 2853.5364 Z" fill="none" stroke="#A9159C" opacity="0.6" stroke-width="1" class="kew_gardens"/>
<path d="M 4715.5488 2966.4963 4655.7299 2994.2608 4478.3119 2926.6736 4587.7589 2851.9411 4630.6082 2843.5252 4715.5488 2966.4963 Z" fill="none" stroke="#A9159C" opacity="0.6" stroke-width="1" class="kew_gardens"/>
<path d="M 4512.6062 2989.2097 4526.1734 2943.1982 4526.63 2939.8551 4536.9538 2954.127 4544.6954 2948.6956 4555.3738 2966.7701 4573.5211 2957.5153 4564.8849 2979.1995 4567.4295 2978.7336 4559.1447 3002.8381 4564.8246 3008.2444 4560.2145 3017.8197 4561.967 3026.6915 4548.8997 3030.7504 4548.3349 3038.013 4535.7054 3028.8158 4532.3623 3035.5072 4520.9908 3018.2392 4517.7551 3020.4352 4508.2361 3003.6249 4504.3032 3004.2085 4509.387 3000.2803 4489.4783 2996.1676 4470.4714 2978.6831 4512.6062 2989.2097 Z" fill="none" stroke="#A9159C" opacity="0.6" stroke-width="1" class="kew_gardens"/>
<path d="M 4585.4656 2851.6962 4697.5663 2908.6343 4548.7403 3007.5834 4404.2494 2955.2885 4585.4656 2851.6962 Z" fill="none" stroke="#A9159C" opacity="0.6" stroke-width="1" class="kew_gardens"/>
<path d="M 4652.9524 2814.6876 4658.5087 2816.5203 4671.4707 2819.2599 4695.5362 2821.0548 4679.8016 2820.1649 4684.4645 2837.6715 4690.1901 2922.479 4712.5251 2981.4424 4677.5515 3080.1778 4566.5383 3118.2045 4473.9386 3104.5439 4629.8216 2817.4992 4652.9524 2814.6876 Z" fill="none" stroke="#A9159C" opacity="0.6" stroke-width="1" class="kew_gardens"/>
<path d="M 4573.3522 2808.8511 4643.9655 2949.3101 4513.0418 2974.4561 4388.9067 2914.286 4429.4643 2819.7172 4573.3522 2808.8511 Z" fill="none" stroke="#A9159C" opacity="0.6" stroke-width="1" class="kew_gardens"/></svg>