<?xml version="1.0"?><svg xmlns="http://www.w3.org/2000/svg" version="1.2" baseProfile="tiny" width="6000" height="5918" viewBox="0 0 6000 5918" stroke-linecap="round" stroke-linejoin="round"><path d="M 3798.9393 446.9566 3790.1611 439.1497 3802.3872 434.3086 3798.9393 446.9566 Z" fill="none" stroke="#12852D" opacity="0.6" stroke-width="1" class="kingsbridge"/>
<path d="M 3923.5867 467.0428 3874.6874 490.5519 3856.742 539.3146 3838.3289 584.401 3806.5896 686.9911 3783.0726 713.692 3753.9795 707.7439 3724.8863 701.3351 3739.1307 635.5546 3775.5489 586.3098 3769.5094 550.4478 3729.2967 499.4484 3815.9649 400.0399 3905.5391 428.9018 3923.5867 467.0428 Z" fill="none" stroke="#12852D" opacity="0.6" stroke-width="1" class="kingsbridge"/>
<path d="M 3915.5477 687.7842 3877.7636 750.3795 3837.1349 752.2664 3789.1246 759.6789 3763.2333 726.5911 3757.6193 656.6903 3774.1861 607.0053 3809.1936 537.0692 3836.8232 478.1808 3875.5634 450.5478 3916.179 448.6599 3932.8136 463.353 3978.9922 479.8477 4017.7968 503.7073 3988.3373 567.2036 3963.4856 627.0182 3915.5477 687.7842 Z" fill="none" stroke="#12852D" opacity="0.6" stroke-width="1" class="kingsbridge"/>
<path d="M 3843.2085 411.0437 3897.6855 422.9341 3857.1008 450.5694 3799.0604 557.3135 3777.8091 541.7019 3769.5099 550.9076 3724.2182 498.5339 3814.5803 400.0415 3843.2085 411.0437 Z" fill="none" stroke="#12852D" opacity="0.6" stroke-width="1" class="kingsbridge"/>
<path d="M 3728.1399 496.6907 3815.9647 399.81 3899.9971 426.1498 3797.2139 557.3155 3778.3333 599.8729 3737.4601 582.4411 3750.5962 562.8836 3743.8821 543.1172 3754.0221 528.3919 3728.1399 496.6907 Z" fill="none" stroke="#12852D" opacity="0.6" stroke-width="1" class="kingsbridge"/>
<path d="M 3815.852 402.224 3856.5993 416.0859 3879.6844 422.4958 3882.2349 432.608 3848.1266 473.5698 3824.6373 519.1185 3805.0655 560.9857 3783.1368 559.4001 3735.3171 518.6399 3743.0174 488.2837 3815.852 402.224 Z" fill="none" stroke="#12852D" opacity="0.6" stroke-width="1" class="kingsbridge"/>
<path d="M 3810.9084 418.4366 3814.1254 406.019 3868.6044 420.2099 3798.5877 547.1974 3737.1413 497.1413 3810.9084 418.4366 Z" fill="none" stroke="#12852D" opacity="0.6" stroke-width="1" class="kingsbridge"/>
<path d="M 3858.6245 371.486 3848.7463 410.3477 3851.952 388.5049 3846.9001 410.3498 3878.5278 420.1983 3911.5558 442.4583 3920.3546 466.1272 3912.2949 480.8508 3871.0295 520.2148 3840.3892 569.4533 3800.4463 558.2317 3769.2798 551.5976 3727.6809 499.2201 3743.3606 485.4095 3768.468 439.403 3793.3068 360.9852 3858.6245 371.486 Z" fill="none" stroke="#12852D" opacity="0.6" stroke-width="1" class="kingsbridge"/>
<path d="M 3724.2215 501.7527 3814.1167 398.2029 3900.0004 428.9085 3805.5307 564.2041 3788.4407 555.0258 3766.7378 548.6113 3724.2215 501.7527 Z" fill="none" stroke="#12852D" opacity="0.6" stroke-width="1" class="kingsbridge"/>
<path d="M 3741.052 484.7222 3739.8987 485.4131 3764.2669 395.0387 3981.4832 442.8304 3850.2818 541.3913 3741.052 484.7222 Z" fill="none" stroke="#12852D" opacity="0.6" stroke-width="1" class="kingsbridge"/>
<path d="M 3721.8139 529.1268 3806.7536 400.9899 3893.5665 436.7528 3830.9503 574.7726 3721.8139 529.1268 Z" fill="none" stroke="#12852D" opacity="0.6" stroke-width="1" class="kingsbridge"/>
<path d="M 3841.3623 411.0458 3869.0633 417.9105 3794.4402 553.6398 3769.9681 547.6882 3726.5285 500.8307 3766.5995 418.4847 3851.4671 368.276 3841.3623 411.0458 Z" fill="none" stroke="#12852D" opacity="0.6" stroke-width="1" class="kingsbridge"/>
<path d="M 3782.2694 397.3183 3919.8873 461.5297 3844.2938 552.6643 3763.0415 545.3964 3721.4589 508.6528 3782.2694 397.3183 Z" fill="none" stroke="#12852D" opacity="0.6" stroke-width="1" class="kingsbridge"/>
<path d="M 3887.0305 482.234 3839.2626 569.2495 3769.9943 546.3335 3735.5625 491.5552 3812.9874 382.0425 3780.2118 205.3408 3817.8826 40.2493 3876.9569 56.7271 3867.9565 216.8004 3845.4048 409.6352 3924.827 438.967 3887.0305 482.234 Z" fill="none" stroke="#12852D" opacity="0.6" stroke-width="1" class="kingsbridge"/>
<path d="M 3852.3886 366.8956 3863.6409 517.6944 3800.8553 510.4082 3852.3886 366.8956 Z" fill="none" stroke="#12852D" opacity="0.6" stroke-width="1" class="kingsbridge"/>
<path d="M 3860.7067 376.0812 3876.4551 423.879 3812.8967 546.2619 3775.0434 545.3836 3733.4481 496.6852 3860.7067 376.0812 Z" fill="none" stroke="#12852D" opacity="0.6" stroke-width="1" class="kingsbridge"/>
<path d="M 3801.8766 599.6173 3714.0781 513.2585 3731.599 493.9282 3808.1432 422.1179 3865.4197 459.7557 3799.1209 612.4967 3801.8766 599.6173 Z" fill="none" stroke="#12852D" opacity="0.6" stroke-width="1" class="kingsbridge"/>
<path d="M 3638.4178 558.3957 3648.0968 542.2921 3665.6288 532.619 3682.7073 531.6828 3705.3095 515.1066 3743.585 479.2018 3757.8673 453.8977 3760.6202 438.2618 3802.5736 394.0778 3813.1671 374.2962 3821.9346 372.9071 3829.3242 377.4964 3845.0041 366.9041 3854.6972 367.8125 3858.3943 371.946 3844.1295 409.2036 3875.9892 420.2013 3806.3975 513.1611 3792.1286 550.4234 3773.7171 600.1077 3754.3861 655.314 3749.279 627.7261 3742.3275 601.9803 3728.9249 587.2784 3694.2869 571.678 3666.5797 561.5881 3638.4178 558.3957 Z" fill="none" stroke="#12852D" opacity="0.6" stroke-width="1" class="kingsbridge"/>
<path d="M 3843.2106 412.8828 3995.6572 516.6116 3857.4503 752.2431 3735.5539 748.6969 3753.0373 689.8082 3772.2737 545.3865 3843.2106 412.8828 Z" fill="none" stroke="#12852D" opacity="0.6" stroke-width="1" class="kingsbridge"/>
<path d="M 3795.8265 555.0178 3819.0809 503.7206 3838.8985 476.5691 3871.8525 434.9192 3904.6088 422.9258 3977.1004 444.4454 4005.8148 518.4376 3975.0056 610.4479 3944.5682 635.32 3766.3607 628.168 3795.8265 555.0178 Z" fill="none" stroke="#12852D" opacity="0.6" stroke-width="1" class="kingsbridge"/>
<path d="M 3811.8131 401.8836 3871.8385 422.9648 3894.0804 425.7413 3868.257 446.0026 3847.9672 462.5788 3840.6177 493.8543 3827.7182 515.9404 3814.819 538.9465 3806.5242 551.8313 3782.5172 549.0984 3770.5133 547.2719 3759.4122 526.1312 3735.3908 508.6827 3730.7589 493.0536 3761.1887 459.9157 3763.9425 445.1993 3775.9294 432.3124 3792.5254 413.9032 3800.8201 401.9399 3811.8131 401.8836 Z" fill="none" stroke="#12852D" opacity="0.6" stroke-width="1" class="kingsbridge"/>
<path d="M 3726.9868 497.6115 3813.6552 398.2034 3896.7657 425.6939 3797.2119 555.4761 3768.5847 549.0692 3726.9868 497.6115 Z" fill="none" stroke="#12852D" opacity="0.6" stroke-width="1" class="kingsbridge"/>
<path d="M 3802.7402 545.3535 3730.2161 495.7689 3815.737 402.5689 3886.3774 422.9476 3807.8169 544.4282 3802.7402 545.3535 Z" fill="none" stroke="#12852D" opacity="0.6" stroke-width="1" class="kingsbridge"/>
<path d="M 3730.4843 583.6503 3766.4554 549.5837 3725.7798 497.2053 3807.706 369.1042 3966.4106 466.1918 3843.8598 666.3435 3730.4843 583.6503 Z" fill="none" stroke="#12852D" opacity="0.6" stroke-width="1" class="kingsbridge"/>
<path d="M 3726.9873 498.0713 3815.2749 402.1097 3894.9175 424.0869 3888.51 469.6142 3871.2538 514.6966 3828.853 573.3751 3726.9873 498.0713 Z" fill="none" stroke="#12852D" opacity="0.6" stroke-width="1" class="kingsbridge"/>
<path d="M 3918.5961 466.774 3918.9999 468.6246 3894.6505 473.5085 3865.3203 476.963 3849.1681 479.7406 3840.7023 486.253 3822.4958 509.4944 3801.631 526.3666 3789.6209 518.5627 3771.2327 508.3564 3757.8351 497.5648 3746.2141 484.2529 3751.9704 471.3722 3758.9817 461.6904 3761.5422 459.6928 3770.3011 449.3381 3785.391 429.6403 3795.7649 419.5138 3804.4683 408.0957 3814.1449 393.8321 3819.3796 379.7689 3838.1364 369.7241 3850.5513 367.1672 3856.8105 369.3684 3853.5852 373.9697 3850.1414 389.3757 3845.991 402.5915 3844.9391 413.4229 3851.6347 416.1739 3856.6881 417.65 3870.0757 419.9333 3885.08 423.134 3901.2488 435.0691 3902.8656 436.2166 3909.1067 444.4853 3916.2747 455.7416 3918.5961 466.774 Z" fill="none" stroke="#12852D" opacity="0.6" stroke-width="1" class="kingsbridge"/>
<path d="M 3693.8194 565.7003 3726.0618 495.7732 3813.6572 400.0425 3868.1385 416.5322 3899.5361 426.6102 3929.1358 475.3125 3877.4629 495.6066 3868.2699 528.7249 3843.3832 563.7017 3833.2838 613.3784 3812.1073 666.7491 3687.3513 560.1885 3693.8194 565.7003 Z" fill="none" stroke="#12852D" opacity="0.6" stroke-width="1" class="kingsbridge"/>
<path d="M 3786.0753 502.1475 3805.4368 479.1356 3807.276 472.6963 3813.7022 440.5032 3833.9859 418.4107 3858.9139 422.0603 3842.3317 451.506 3826.6726 481.8708 3807.3227 514.9994 3777.821 552.7381 3727.9861 572.104 3757.4934 537.1251 3809.1253 475.453 3786.0753 502.1475 Z" fill="none" stroke="#12852D" opacity="0.6" stroke-width="1" class="kingsbridge"/>
<path d="M 3972.9344 615.2792 3982.6463 628.6032 4020.1134 683.5116 3983.4377 705.1757 3957.1672 741.5436 3913.5534 756.0859 3908.4644 747.8131 3904.0548 728.5012 3909.3432 711.0176 3869.7333 595.8613 3893.8525 691.0299 3868.4461 679.3322 3848.5892 675.2161 3822.953 663.5177 3792.2208 635.0384 3784.1028 598.9469 3808.7656 567.4195 3839.7098 580.9505 3863.0447 600.2379 3972.9344 615.2792 Z" fill="none" stroke="#12852D" opacity="0.6" stroke-width="1" class="kingsbridge"/>
<path d="M 3879.5588 706.684 3861.5554 709.0047 3847.6978 703.0418 3826.9057 688.8081 3801.4949 672.2797 3790.3897 649.2969 3787.1261 619.8678 3767.2502 596.4357 3775.9755 553.6598 3795.8336 561.4557 3814.3061 568.3331 3831.3966 577.511 3866.5325 622.0778 3885.9618 655.6267 3954.3517 705.6728 3927.1357 725.0235 3879.5588 706.684 Z" fill="none" stroke="#12852D" opacity="0.6" stroke-width="1" class="kingsbridge"/>
<path d="M 3754.5297 352.2914 3851.9313 370.5742 3771.7954 529.7526 3756.0336 465.8544 3754.5297 352.2914 Z" fill="none" stroke="#12852D" opacity="0.6" stroke-width="1" class="kingsbridge"/>
<path d="M 3650.3521 405.5875 3797.0013 242.582 3877.9947 251.7591 3906.0342 456.5715 3778.0171 621.0182 3650.3521 405.5875 Z" fill="none" stroke="#12852D" opacity="0.6" stroke-width="1" class="kingsbridge"/>
<path d="M 3863.0674 421.5957 3867.684 422.5099 3791.6715 554.5625 3763.04 544.0168 3730.6833 501.2863 3762.9285 438.7192 3809.4825 381.1967 3819.1988 402.795 3850.5986 415.633 3863.0674 421.5957 Z" fill="none" stroke="#12852D" opacity="0.6" stroke-width="1" class="kingsbridge"/>
<path d="M 3815.3888 400.7302 3800.9842 417.6429 3791.5375 431.5617 3786.3538 439.7286 3770.9045 451.9297 3780.0294 460.1963 3788.8071 467.4287 3797.2419 477.5353 3828.1305 444.3953 3821.9139 457.3915 3829.2857 445.5435 3836.897 441.6266 3809.3068 430.9675 3808.6037 421.1978 3820.6089 425.5524 3815.6212 402.2242 3830.6322 411.7477 3869.6565 431.8182 3806.2237 564.7782 3727.4586 507.6121 3743.7039 482.6503 3815.3888 400.7302 Z" fill="none" stroke="#12852D" opacity="0.6" stroke-width="1" class="kingsbridge"/>
<path d="M 3829.7668 667.1893 3732.8518 590.2635 3732.8476 586.1247 3864.1111 525.0511 3862.725 523.9031 3860.7571 518.7323 3829.1544 533.7131 3825.6896 531.3029 3820.8398 528.6643 3829.7031 508.6517 3808.9271 504.8814 3800.2691 502.0171 3785.0766 539.05 3829.7668 667.1893 Z" fill="none" stroke="#12852D" opacity="0.6" stroke-width="1" class="kingsbridge"/>
<path d="M 3766.5423 364.692 3845.0257 385.7543 3838.602 418.8652 3894.0013 429.8353 3922.2082 472.1023 3831.3852 567.3942 3863.761 620.7014 3833.3463 668.5649 3764.9991 650.244 3798.1402 560.0736 3737.1484 504.0385 3773.9577 393.6491 3766.5423 364.692 Z" fill="none" stroke="#12852D" opacity="0.6" stroke-width="1" class="kingsbridge"/>
<path d="M 3782.4322 548.1347 3844.1285 408.284 3907.8474 429.3588 3934.6291 438.5217 3919.9088 479.0023 3882.0624 481.8068 3845.236 569.2178 3837.85 569.2263 3782.4322 548.1347 Z" fill="none" stroke="#12852D" opacity="0.6" stroke-width="1" class="kingsbridge"/>
<path d="M 3781.507 546.2963 3869.8869 203.9363 4063.6072 261.214 3941.1133 639.1644 3781.507 546.2963 Z" fill="none" stroke="#12852D" opacity="0.6" stroke-width="1" class="kingsbridge"/>
<path d="M 3915.5477 687.7842 3826.8808 666.7326 3797.3005 636.4125 3783.4051 594.1191 3877.388 432.154 3968.7764 432.0417 4012.2772 518.4291 3946.873 632.5578 3915.5477 687.7842 Z" fill="none" stroke="#12852D" opacity="0.6" stroke-width="1" class="kingsbridge"/>
<path d="M 3813.6598 402.3414 3888.2245 423.6351 3823.0274 524.1784 3801.5988 556.8509 3762.11 537.5801 3729.9876 498.0682 3813.6598 402.3414 Z" fill="none" stroke="#12852D" opacity="0.6" stroke-width="1" class="kingsbridge"/>
<path d="M 3732.1988 583.718 3841.8977 412.5883 3967.8105 466.1418 3852.1126 651.9255 3732.1988 583.718 Z" fill="none" stroke="#12852D" opacity="0.6" stroke-width="1" class="kingsbridge"/>
<path d="M 3815.967 401.879 3901.8456 427.9867 3933.2889 474.3877 3885.299 486.401 3839.239 572.9035 3771.8187 551.5949 3727.683 501.2893 3815.967 401.879 Z" fill="none" stroke="#12852D" opacity="0.6" stroke-width="1" class="kingsbridge"/>
<path d="M 3433.1993 192.5951 3860.804 459.761 3964.4019 621.4985 3827.9773 820.3506 3433.1993 192.5951 Z" fill="none" stroke="#12852D" opacity="0.6" stroke-width="1" class="kingsbridge"/>
<path d="M 3765.815 549.0722 3751.9772 559.2034 3731.6414 535.3126 3726.985 495.7722 3819.169 376.1285 3905.0792 430.2818 3882.0668 485.4853 3832.3199 577.5099 3845.2549 585.7727 3863.7524 613.3434 3839.8108 669.4774 3794.5406 645.6133 3779.7169 598.7217 3790.7492 555.4832 3765.815 549.0722 Z" fill="none" stroke="#12852D" opacity="0.6" stroke-width="1" class="kingsbridge"/>
<path d="M 3843.2085 411.0437 3877.3728 419.2801 3774.2275 645.6353 3756.6804 641.9748 3770.4302 548.1476 3714.9864 498.5433 3755.4556 355.0489 3877.2556 319.9727 3843.2085 411.0437 Z" fill="none" stroke="#12852D" opacity="0.6" stroke-width="1" class="kingsbridge"/>
<path d="M 3808.3157 550.4718 3740.8094 495.6495 3746.3408 488.2867 3752.3951 476.0402 3818.7658 389.5283 3873.2866 440.0414 3808.3157 550.4718 Z" fill="none" stroke="#12852D" opacity="0.6" stroke-width="1" class="kingsbridge"/>
<path d="M 3769.5087 549.758 3760.4902 533.6732 3751.4783 523.5663 3740.1588 513.6917 3729.5275 499.4482 3736.4373 485.8765 3742.663 480.3523 3758.7975 460.5638 3762.0095 442.6284 3772.6132 431.1224 3782.0674 423.9855 3791.5162 412.021 3801.8892 401.2049 3805.5668 387.8676 3811.556 378.2059 3820.551 373.8282 3827.2471 377.2689 3836.705 374.2697 3843.6259 372.4228 3851.2395 371.0348 3854.9344 373.3293 3844.8139 402.3062 3841.1313 410.8162 3878.5275 419.9684 3897.4575 425.2333 3868.3973 440.4408 3855.2577 453.3303 3847.6579 467.363 3836.8337 487.377 3820.943 517.7432 3808.5027 538.4495 3796.7523 557.316 3773.4853 599.1883 3736.3039 580.3729 3769.5087 549.758 Z" fill="none" stroke="#12852D" opacity="0.6" stroke-width="1" class="kingsbridge"/>
<path d="M 3733.6794 497.1448 3776.039 397.6698 3781.7702 362.3769 3853.5445 368.7333 3868.3801 425.7276 3787.0493 549.0494 3733.6794 497.1448 Z" fill="none" stroke="#12852D" opacity="0.6" stroke-width="1" class="kingsbridge"/>
<path d="M 3840.439 410.817 3873.9104 418.5945 3891.2248 423.8614 3894.2288 427.0763 3889.8465 429.1506 3881.0788 430.7703 3874.62 433.3067 3867.7063 441.591 3855.7225 456.0885 3842.8256 479.7833 3837.0705 492.6646 3828.0916 512.2172 3813.118 537.7546 3799.292 558.003 3786.1752 594.346 3779.259 602.1712 3750.6301 595.3036 3737.6921 583.5905 3729.1522 583.8292 3702.8291 573.7389 3695.2045 565.9289 3683.6424 543.8676 3684.5558 533.7503 3736.9015 488.405 3759.0227 455.2759 3786.6867 427.4289 3812.2762 403.2624 3815.5049 401.4198 3840.439 410.817 Z" fill="none" stroke="#12852D" opacity="0.6" stroke-width="1" class="kingsbridge"/>
<path d="M 3834.0016 432.2042 3852.9342 439.7691 3861.9435 447.3452 3865.8713 451.2489 3862.8891 466.6556 3850.4448 482.5334 3847.7004 504.3779 3843.7951 520.2463 3826.2669 531.5321 3822.4665 538.5489 3789.3259 520.0772 3741.1687 485.9866 3805.7101 413.1549 3814.9293 402.5698 3840.6702 411.1616 3834.0016 432.2042 Z" fill="none" stroke="#12852D" opacity="0.6" stroke-width="1" class="kingsbridge"/>
<path d="M 3729.843 582.219 3690.1129 551.9085 3678.564 543.1828 3670.9326 527.7856 3685.9388 531.9096 3698.1682 528.6787 3711.5453 519.2388 3723.5364 508.8806 3735.2966 498.7525 3747.9769 485.8645 3764.5783 471.1332 3777.0231 454.567 3787.3955 442.6012 3797.0767 432.0155 3803.0671 423.0431 3812.2869 412.9177 3820.3565 406.242 3833.0516 408.5265 3844.5992 416.3296 3859.141 418.8416 3870.2236 423.4265 3886.8431 426.3955 3889.8525 434.2082 3899.5558 442.9326 3904.4138 452.5825 3904.1931 460.8591 3904.2028 468.9056 3896.1379 479.4909 3884.1447 486.1725 3875.3928 501.5867 3844.5225 550.8247 3824.0173 583.4975 3819.4197 600.2877 3815.5222 623.9755 3810.2282 637.548 3800.7731 645.6065 3791.7787 652.9746 3778.1677 660.5776 3765.9456 672.0881 3756.7233 682.6757 3756.949 677.8465 3747.9408 672.567 3744.24 665.4424 3742.6179 659.4654 3742.612 653.7167 3749.2872 635.5441 3751.1121 614.8476 3744.8718 607.0362 3736.7764 590.9492 3732.6165 585.895 3729.843 582.219 Z" fill="none" stroke="#12852D" opacity="0.6" stroke-width="1" class="kingsbridge"/>
<path d="M 3839.6556 533.3563 3890.9676 594.9165 3910.8342 608.2287 3942.2547 631.1839 3950.5905 651.8684 3945.5583 688.667 3945.1352 719.4821 3920.2085 723.6523 3902.6584 719.0743 3879.5789 723.7012 3862.4831 712.683 3838.9293 706.2712 3818.6067 698.9355 3789.983 699.8869 3748.4291 698.0915 3729.9474 684.3132 3747.4472 641.9844 3762.1708 595.0615 3781.504 543.5373 3839.6556 533.3563 Z" fill="none" stroke="#12852D" opacity="0.6" stroke-width="1" class="kingsbridge"/>
<path d="M 3815.2767 403.7189 3876.2216 421.5803 3901.3834 427.5275 3923.8217 470.491 3831.2045 611.7712 3816.2577 662.6054 3802.1626 649.744 3791.2697 609.5161 3782.7223 603.0872 3770.2526 598.042 3748.3159 589.5577 3739.7635 577.8401 3765.3624 557.5798 3771.8177 550.6752 3748.0378 544.2625 3755.2119 562.4189 3733.7673 582.6748 3754.0576 562.1902 3747.5772 545.1827 3739.9527 537.6032 3728.868 531.6368 3717.3341 537.8563 3713.6366 533.2616 3731.1633 519.2189 3738.3067 508.1758 3734.3815 506.5704 3730.912 499.2168 3730.445 493.9294 3742.4355 483.5712 3771.9461 454.8024 3782.3136 438.2386 3815.2767 403.7189 Z" fill="none" stroke="#12852D" opacity="0.6" stroke-width="1" class="kingsbridge"/>
<path d="M 3814.2352 400.9614 3927.5852 434.3923 3881.2605 486.7507 3822.9813 585.9129 3829.9909 559.1184 3763.8393 535.9688 3728.9519 500.8282 3757.0741 467.6926 3801.7924 418.1018 3814.2352 400.9614 Z" fill="none" stroke="#12852D" opacity="0.6" stroke-width="1" class="kingsbridge"/>
<path d="M 3738.0697 502.1983 3837.6689 410.1305 4007.6321 496.3637 3856.4385 675.8969 3738.0697 502.1983 Z" fill="none" stroke="#12852D" opacity="0.6" stroke-width="1" class="kingsbridge"/>
<path d="M 3735.2973 499.4422 3728.8294 493.9311 3735.0749 283.3519 3872.6427 321.8171 3776.8968 551.8194 3735.2973 499.4422 Z" fill="none" stroke="#12852D" opacity="0.6" stroke-width="1" class="kingsbridge"/>
<path d="M 3729.9879 498.2982 3882.9027 411.917 3945.5672 327.2454 3711.2937 498.547 3884.7358 400.8803 3794.9025 554.329 3729.9879 498.2982 Z" fill="none" stroke="#12852D" opacity="0.6" stroke-width="1" class="kingsbridge"/>
<path d="M 3771.1226 548.1468 3770.662 549.067 3728.1427 499.4496 3766.4105 457.797 3793.3762 424.6629 3809.7515 415.6792 3831.9259 433.356 3771.1226 548.1468 Z" fill="none" stroke="#12852D" opacity="0.6" stroke-width="1" class="kingsbridge"/>
<path d="M 3815.6207 401.7645 3899.3053 426.6104 3862.6353 446.8846 3824.058 517.0499 3799.0599 556.8536 3775.0436 545.6135 3768.8168 550.2186 3760.2604 534.5931 3727.9117 499.2199 3815.6207 401.7645 Z" fill="none" stroke="#12852D" opacity="0.6" stroke-width="1" class="kingsbridge"/>
<path d="M 3809.0388 397.289 3905.0748 426.6035 3894.9228 428.4548 3876.4703 436.753 3861.7218 455.162 3846.0506 474.4918 3831.3217 511.2939 3800.9099 560.0706 3777.8141 546.3003 3772.2816 552.744 3756.5624 529.7687 3745.4734 519.664 3728.8369 501.2882 3741.7377 478.2841 3755.5619 456.1991 3809.0388 397.289 Z" fill="none" stroke="#12852D" opacity="0.6" stroke-width="1" class="kingsbridge"/>
<path d="M 3663.5792 561.591 3813.89 401.8813 3812.9376 375.4458 3902.0214 382.4689 3778.1116 608.3807 3663.5792 561.591 Z" fill="none" stroke="#12852D" opacity="0.6" stroke-width="1" class="kingsbridge"/>
<path d="M 3840.2777 674.0759 3803.3238 656.1812 3793.1426 633.6577 3789.884 608.8278 3755.2452 594.1491 3737.2262 579.4522 3841.8218 409.2062 3904.1539 428.4437 3987.7468 467.8814 4005.8015 508.3214 3940.3972 622.4485 3842.5871 674.993 3840.2777 674.0759 Z" fill="none" stroke="#12852D" opacity="0.6" stroke-width="1" class="kingsbridge"/>
<path d="M 3810.6378 590.6403 3779.6026 492.4983 3828.925 432.6697 3851.0893 440.9207 3839.3409 459.7858 3879.0562 476.7524 3877.4688 500.6646 3844.0601 550.1354 3754.654 470.6838 3727.2207 500.6001 3763.7278 539.6476 3810.6378 590.6403 Z" fill="none" stroke="#12852D" opacity="0.6" stroke-width="1" class="kingsbridge"/>
<path d="M 3708.5306 504.9873 3709.4483 499.4685 3839.5057 401.8525 3966.9665 460.5512 3939.4223 581.0615 3812.0971 657.5512 3725.222 577.6251 3708.5306 504.9873 Z" fill="none" stroke="#12852D" opacity="0.6" stroke-width="1" class="kingsbridge"/>
<path d="M 3845.0547 411.0416 4041.7461 464.1313 4010.4162 507.3957 3964.3948 615.98 3927.5039 649.1378 3874.9889 746.7033 3858.378 755.9215 3830.6667 748.5942 3742.9403 747.7694 3751.2146 712.806 3751.18 679.6921 3789.824 553.6448 3776.8889 544.4619 3845.0547 411.0416 Z" fill="none" stroke="#12852D" opacity="0.6" stroke-width="1" class="kingsbridge"/>
<path d="M 3786.1251 548.1307 3728.8379 502.2078 3803.4982 395.456 3858.9289 434.9343 3786.1251 548.1307 Z" fill="none" stroke="#12852D" opacity="0.6" stroke-width="1" class="kingsbridge"/>
<path d="M 3771.325 521.4761 3757.1964 474.2447 3763.5452 476.1921 3768.0363 467.4511 3768.7303 469.0596 3785.5823 473.1798 3785.1262 478.2382 3777.1762 489.6271 3769.4473 492.1643 3748.9054 490.9215 3751.4464 493.103 3750.5334 502.8751 3750.9955 503.3344 3759.7738 510.9123 3760.6974 511.3711 3771.325 521.4761 Z" fill="none" stroke="#12852D" opacity="0.6" stroke-width="1" class="kingsbridge"/>
<path d="M 3650.2705 399.2906 3750.1707 376.6629 3816.0557 481.4229 3766.2713 544.0134 3707.1506 509.8168 3650.2705 399.2906 Z" fill="none" stroke="#12852D" opacity="0.6" stroke-width="1" class="kingsbridge"/></svg>