<?xml version="1.0"?><svg xmlns="http://www.w3.org/2000/svg" version="1.2" baseProfile="tiny" width="6000" height="5918" viewBox="0 0 6000 5918" stroke-linecap="round" stroke-linejoin="round"><path d="M 3765.9096 420.7844 3762.188 393.2018 3783.1955 400.0759 3793.9993 361.2143 3810.6297 375.2185 3797.5068 403.2787 3743.8179 481.2707 3765.9096 420.7844 Z" fill="none" stroke="#012394" opacity="0.6" stroke-width="1" class="kingsbridge_heights"/>
<path d="M 3729.7526 493.9301 3856.0041 300.689 4082.263 391.4295 3918.292 666.6252 3729.7526 493.9301 Z" fill="none" stroke="#012394" opacity="0.6" stroke-width="1" class="kingsbridge_heights"/>
<path d="M 3915.0709 675.3673 3871.0711 752.4572 3829.7422 747.6753 3837.5762 734.3283 3852.7809 706.9452 3820.2123 689.7354 3843.9385 645.5581 3813.2298 638.2345 3818.0458 610.1764 3864.4564 623.2299 3943.4844 507.0219 3968.1257 464.688 4005.1136 511.771 4005.5982 529.2439 3984.4322 581.6941 3970.8585 616.4316 3958.4071 626.7947 3938.5758 642.6857 3939.7027 620.8398 3920.5882 656.7346 3915.0709 675.3673 Z" fill="none" stroke="#012394" opacity="0.6" stroke-width="1" class="kingsbridge_heights"/>
<path d="M 3782.8315 603.2701 3779.2074 587.6662 3785.6583 576.6226 3793.9395 550.8619 3800.8726 524.4652 3813.0864 503.4872 3827.8345 483.2388 3840.741 467.5907 3862.8495 427.1033 3880.3799 419.7262 3897.9255 425.2226 3915.4701 429.7992 3936.7063 433.4513 3987.3594 444.6381 4015.7119 458.2072 4029.5541 454.5103 4042.4979 469.2065 4028.6692 483.0194 4009.3045 499.5986 3996.3992 514.3299 3984.9361 530.1951 3972.0229 539.4085 3965.5862 559.6499 3954.5572 599.2117 3942.5789 618.7198 3930.5783 620.5742 3911.1957 626.1165 3895.5172 640.8518 3885.3782 655.5804 3866.9405 680.4368 3813.3652 662.1018 3796.729 647.4035 3793.943 632.6902 3793.0016 616.1355 3782.8315 603.2701 Z" fill="none" stroke="#012394" opacity="0.6" stroke-width="1" class="kingsbridge_heights"/>
<path d="M 3906.019 444.0743 3863.8317 681.4072 3784.3572 620.7906 3992.8433 482.5886 3906.019 444.0743 Z" fill="none" stroke="#012394" opacity="0.6" stroke-width="1" class="kingsbridge_heights"/>
<path d="M 3750.3066 727.5246 3798.1402 560.0736 3890.3017 423.8625 3973.4038 441.2316 3959.5884 466.0782 3886.6859 488.2387 3842.4578 561.8634 3866.5073 600.4638 3883.1787 644.5925 3827.884 737.5588 3750.3066 727.5246 Z" fill="none" stroke="#012394" opacity="0.6" stroke-width="1" class="kingsbridge_heights"/>
<path d="M 3781.2855 447.8954 3785.7916 453.2931 3774.1419 457.9037 3781.2855 447.8954 Z" fill="none" stroke="#012394" opacity="0.6" stroke-width="1" class="kingsbridge_heights"/>
<path d="M 3815.2767 403.7189 4044.5155 464.1276 4000.2756 518.4449 3913.6349 633.5186 3866.6008 680.4842 3778.1042 601.4826 3815.2767 403.7189 Z" fill="none" stroke="#012394" opacity="0.6" stroke-width="1" class="kingsbridge_heights"/>
<path d="M 3977.0986 443.066 3984.5146 466.9659 3928.207 470.7155 3906.9856 479.9377 3878.3752 486.4093 3874.7204 518.601 3871.0503 537.9184 3847.0603 549.9021 3835.9993 565.5495 3836.9372 578.4244 3819.3912 574.7653 3788.9078 560.0837 3791.6685 551.8034 3811.0074 507.6381 3869.9891 420.2083 3977.0986 443.066 Z" fill="none" stroke="#012394" opacity="0.6" stroke-width="1" class="kingsbridge_heights"/>
<path d="M 3954.3055 438.5385 3941.1059 469.8949 3872.0088 485.4661 3841.9857 467.835 3881.1647 421.4469 3954.3055 438.5385 Z" fill="none" stroke="#012394" opacity="0.6" stroke-width="1" class="kingsbridge_heights"/>
<path d="M 3954.9773 469.7625 3920.8376 483.5993 3898.6849 486.385 3882.0755 492.8423 3875.6252 502.9659 3871.0244 515.8464 3873.8069 526.8791 3860.9034 545.2877 3851.6796 552.6558 3841.5346 561.8644 3834.1632 574.7487 3848.0163 578.4117 3857.2702 596.7956 3860.9825 613.3466 3876.7067 637.242 3867.4994 659.3276 3867.5177 674.9642 3860.1426 685.0908 3852.762 690.6182 3846.308 698.9041 3840.7761 706.2691 3838.0154 714.5509 3836.1811 725.5912 3832.5146 749.512 3831.5985 755.9522 3811.2799 753.2153 3806.6607 751.3807 3774.3387 749.576 3761.4088 747.75 3748.4761 743.1642 3738.3109 735.8158 3738.3023 727.537 3745.6752 713.7316 3748.4329 701.7708 3747.4961 688.8942 3752.1033 679.6912 3756.7133 673.2477 3763.1554 653.0053 3772.372 637.3592 3783.422 609.7546 3776.9471 598.7247 3775.0946 593.2083 3774.1576 580.3331 3771.3809 573.8981 3774.1211 546.3042 3779.6516 538.0212 3784.2578 528.8195 3787.9406 519.6189 3805.4439 485.5729 3807.2841 480.0532 3809.1223 472.6942 3821.1068 457.9672 3822.0248 453.3681 3829.4047 448.7619 3834.9341 440.4793 3840.4497 420.2425 3849.6797 419.3123 3864.4569 425.7322 3886.6137 427.5452 3904.1583 432.122 3940.169 439.4344 3953.102 446.7749 3961.416 451.3623 3960.5033 459.6399 3954.9773 469.7625 Z" fill="none" stroke="#012394" opacity="0.6" stroke-width="1" class="kingsbridge_heights"/>
<path d="M 3896.3245 442.7066 3979.4224 455.4775 3864.2961 683.7062 3777.903 629.0754 3896.3245 442.7066 Z" fill="none" stroke="#012394" opacity="0.6" stroke-width="1" class="kingsbridge_heights"/>
<path d="M 3830.8565 508.0757 3861.8876 597.7099 3866.0719 622.9981 3856.9039 679.1157 3761.3097 653.9271 3830.8565 508.0757 Z" fill="none" stroke="#012394" opacity="0.6" stroke-width="1" class="kingsbridge_heights"/>
<path d="M 3906.9522 452.3495 3968.8222 467.9057 3844.4433 683.2692 3789.934 654.8162 3811.0543 549.9427 3906.9522 452.3495 Z" fill="none" stroke="#012394" opacity="0.6" stroke-width="1" class="kingsbridge_heights"/>
<path d="M 3870.2985 684.1591 3780.6521 609.7576 3865.4165 456.9969 3962.3695 475.2708 3963.2927 475.2697 3870.2985 684.1591 Z" fill="none" stroke="#012394" opacity="0.6" stroke-width="1" class="kingsbridge_heights"/>
<path d="M 3858.2127 613.3498 3827.6839 560.0408 3784.2707 540.7752 3851.5408 432.1841 3867.2144 415.6138 3922.6161 428.4212 3982.6445 448.5764 3882.2281 621.5995 3858.2127 613.3498 Z" fill="none" stroke="#012394" opacity="0.6" stroke-width="1" class="kingsbridge_heights"/>
<path d="M 3790.8593 656.6547 3831.3768 560.0366 3908.0181 570.0635 3958.8294 595.7527 3982.6448 627.4535 3923.8919 715.3691 3790.8593 656.6547 Z" fill="none" stroke="#012394" opacity="0.6" stroke-width="1" class="kingsbridge_heights"/>
<path d="M 3794.4352 549.0413 3840.4403 411.9665 4020.5002 454.0443 3875.8159 664.8366 3855.4885 652.903 3810.1403 558.221 3794.4352 549.0413 Z" fill="none" stroke="#012394" opacity="0.6" stroke-width="1" class="kingsbridge_heights"/>
<path d="M 3843.6753 415.641 3976.1779 444.9063 3958.2089 470.2182 3877.4542 488.2496 3877.458 491.4683 3839.6912 564.6256 3832.7883 583.4876 3843.4089 586.2346 3873.4573 622.0697 3833.3541 675.4635 3739.9969 580.3691 3778.7363 545.3796 3843.6753 415.641 Z" fill="none" stroke="#012394" opacity="0.6" stroke-width="1" class="kingsbridge_heights"/>
<path d="M 3971.5599 443.0731 3801.111 743.1079 3796.4939 743.1129 3790.9524 742.1991 3743.8619 745.9287 3776.9511 602.4036 3876.4595 427.5572 3877.3761 422.0387 3971.5599 443.0731 Z" fill="none" stroke="#012394" opacity="0.6" stroke-width="1" class="kingsbridge_heights"/>
<path d="M 4035.9056 468.431 3908.7864 695.7646 3773.8104 543.2393 3838.2874 412.5823 3944.7478 410.0026 4035.9056 468.431 Z" fill="none" stroke="#012394" opacity="0.6" stroke-width="1" class="kingsbridge_heights"/>
<path d="M 3790.7803 583.9941 3861.7143 448.7248 3966.9782 469.7473 3907.165 628.0079 3790.7803 583.9941 Z" fill="none" stroke="#012394" opacity="0.6" stroke-width="1" class="kingsbridge_heights"/>
<path d="M 3769.5089 549.9879 3726.0627 496.6928 3789.6111 357.7709 3840.434 406.4492 3869.066 420.2094 3790.7442 550.8847 3769.5089 549.9879 Z" fill="none" stroke="#012394" opacity="0.6" stroke-width="1" class="kingsbridge_heights"/>
<path d="M 3798.8331 560.5327 3842.5175 412.194 3973.175 442.8411 3844.6552 666.7124 3798.8331 560.5327 Z" fill="none" stroke="#012394" opacity="0.6" stroke-width="1" class="kingsbridge_heights"/>
<path d="M 3752.1142 690.0391 3882.46 622.5189 3861.8979 606.5624 3843.9984 597.0408 3833.1435 591.4198 3826.3338 590.9676 3810.0544 584.8926 3803.7071 585.0146 3759.1197 656.6887 3880.6146 623.5558 3881.433 632.4076 3877.6332 639.8852 3869.1124 656.9113 3857.2515 680.2651 3841.2504 717.3067 3830.8739 727.6669 3814.4735 718.7167 3789.2925 701.7273 3752.1142 690.0391 Z" fill="none" stroke="#012394" opacity="0.6" stroke-width="1" class="kingsbridge_heights"/>
<path d="M 3897.6544 430.0829 3904.1339 444.7883 3908.771 462.4445 3909.7131 478.0767 3890.3372 486.8208 3883.3082 493.8561 3865.8033 524.2251 3846.4413 546.3197 3839.1322 573.919 3824.3725 584.9723 3802.2091 580.3983 3787.424 568.4582 3804.7773 536.5572 3876.6895 452.7884 3875.5735 446.5374 3873.2722 441.1624 3849.3017 467.8585 3840.0912 486.2615 3897.6544 430.0829 Z" fill="none" stroke="#012394" opacity="0.6" stroke-width="1" class="kingsbridge_heights"/>
<path d="M 3841.6627 674.0743 3803.3233 655.7213 3781.1088 605.1584 3858.4833 448.7286 3858.0196 446.89 3895.8431 426.1548 3971.5581 441.6937 3964.2123 472.5097 3883.4526 486.4032 3838.7764 571.9843 3838.3231 579.3426 3856.7958 585.7594 3872.5302 618.8516 3841.6627 674.0743 Z" fill="none" stroke="#012394" opacity="0.6" stroke-width="1" class="kingsbridge_heights"/>
<path d="M 3841.3592 408.2872 4038.0547 465.0559 3863.8232 674.0487 3779.3524 545.6852 3841.3592 408.2872 Z" fill="none" stroke="#012394" opacity="0.6" stroke-width="1" class="kingsbridge_heights"/>
<path d="M 3777.4053 595.5051 3751.538 470.3423 3815.0426 400.7306 3945.8192 436.3238 3923.4792 473.4802 3882.0653 484.2208 3874.5987 513.1982 3862.6093 523.6734 3858.9294 534.8286 3845.3302 550.7088 3837.6359 583.9419 3777.4053 595.5051 Z" fill="none" stroke="#012394" opacity="0.6" stroke-width="1" class="kingsbridge_heights"/>
<path d="M 3878.6066 682.3097 3803.7769 648.3625 3789.869 595.0318 3821.1614 506.7071 3891.2062 408.229 3957.7386 463.3218 3878.6066 682.3097 Z" fill="none" stroke="#012394" opacity="0.6" stroke-width="1" class="kingsbridge_heights"/>
<path d="M 3935.5945 472.5456 3836.0223 585.7832 3732.5278 499.4451 3805.3434 394.5345 3935.5945 472.5456 Z" fill="none" stroke="#012394" opacity="0.6" stroke-width="1" class="kingsbridge_heights"/>
<path d="M 3850.5975 414.7135 3961.3891 430.212 3959.5849 463.3194 3884.0856 630.7949 3835.2786 743.9896 3730.9198 732.1439 3850.5975 414.7135 Z" fill="none" stroke="#012394" opacity="0.6" stroke-width="1" class="kingsbridge_heights"/>
<path d="M 3785.2281 605.6055 3795.1004 560.4963 3814.4362 513.5715 3871.5707 425.2236 3956.5153 439.8332 4004.8538 517.0511 3874.8733 679.0865 3812.0789 673.6394 3785.2281 605.6055 Z" fill="none" stroke="#012394" opacity="0.6" stroke-width="1" class="kingsbridge_heights"/>
<path d="M 3772.3612 627.2418 3871.6544 659.3227 3823.2741 744.0031 3757.2215 717.3989 3739.2077 710.0589 3772.3612 627.2418 Z" fill="none" stroke="#012394" opacity="0.6" stroke-width="1" class="kingsbridge_heights"/>
<path d="M 3732.2592 687.5302 3840.5148 477.257 3881.148 489.1649 3864.1224 534.7076 3844.7607 557.2623 3871.6074 619.3126 3849.9433 648.3105 3878.5794 659.3146 3844.4896 723.742 3732.2592 687.5302 Z" fill="none" stroke="#012394" opacity="0.6" stroke-width="1" class="kingsbridge_heights"/>
<path d="M 3749.4034 746.8428 3729.0504 710.0694 3750.4586 652.0989 3729.1573 588.8877 3776.2014 549.0611 3799.9241 503.0521 3814.9309 507.6337 3832.2511 516.8108 3851.6436 521.3869 3868.2666 525.9659 3847.0719 560.0187 3873.9195 622.529 3854.562 650.1447 3885.0472 662.9861 3831.5891 747.6733 3749.4034 746.8428 Z" fill="none" stroke="#012394" opacity="0.6" stroke-width="1" class="kingsbridge_heights"/>
<path d="M 3735.3986 597.8486 3690.1318 571.2222 3644.8779 555.6306 3727.91 497.6105 3756.485 456.1981 3813.6306 376.1347 3834.8589 374.2718 3855.1641 372.4095 3847.8198 407.3602 3898.6152 428.4504 3977.0998 443.9856 3964.2088 469.7508 3862.8591 639.0978 3833.3494 671.3243 3800.0907 654.8051 3790.8053 606.9874 3735.3986 597.8486 Z" fill="none" stroke="#012394" opacity="0.6" stroke-width="1" class="kingsbridge_heights"/>
<path d="M 3870.7569 681.3991 3794.9968 640.554 3781.221 602.1691 3733.0777 585.4347 3836.3101 432.8913 3866.5629 450.5584 3879.7502 478.131 3845.9118 554.7318 3839.0205 583.7104 3866.0778 628.0568 3855.4821 647.3843 3878.1243 664.8339 3873.5232 678.1765 3870.7569 681.3991 Z" fill="none" stroke="#012394" opacity="0.6" stroke-width="1" class="kingsbridge_heights"/>
<path d="M 3842.8343 487.3702 3842.8316 485.0711 3964.2146 474.3489 3821.8003 664.8987 3805.5149 549.9489 3842.8343 487.3702 Z" fill="none" stroke="#012394" opacity="0.6" stroke-width="1" class="kingsbridge_heights"/>
<path d="M 3879.0487 665.7526 3853.87 650.6054 3840.1135 732.4857 3728.0042 589.8086 3842.7475 411.504 3921.0455 464.9768 3879.0487 665.7526 Z" fill="none" stroke="#012394" opacity="0.6" stroke-width="1" class="kingsbridge_heights"/>
<path d="M 3870.2985 684.1591 3910.9376 693.3088 3797.3086 643.7707 3791.6935 574.7959 3848.8137 468.971 3892.2095 475.3574 3957.7514 473.4375 3842.3012 424.8382 3870.2985 684.1591 Z" fill="none" stroke="#012394" opacity="0.6" stroke-width="1" class="kingsbridge_heights"/>
<path d="M 3761.3165 660.3656 3780.6491 606.9984 3869.3719 681.4007 3761.3165 660.3656 Z" fill="none" stroke="#012394" opacity="0.6" stroke-width="1" class="kingsbridge_heights"/>
<path d="M 3747.5488 739.4857 3775.0848 584.011 3779.708 590.4441 3886.8588 633.5509 3829.7402 745.8356 3747.5488 739.4857 Z" fill="none" stroke="#012394" opacity="0.6" stroke-width="1" class="kingsbridge_heights"/></svg>