<?xml version="1.0"?><svg xmlns="http://www.w3.org/2000/svg" version="1.2" baseProfile="tiny" width="6000" height="5918" viewBox="0 0 6000 5918" stroke-linecap="round" stroke-linejoin="round"><path d="M 5446.6947 3525.1913 5567.7716 3285.0005 5682.739 3334.6911 5557.141 3526.0248 5446.6947 3525.1913 Z" fill="none" stroke="#E71E24" opacity="0.6" stroke-width="1" class="laurelton"/>
<path d="M 5481.5696 3575.3735 5375.884 3539.6896 5391.6108 3533.1879 5406.9738 3396.6125 5464.9178 3258.0911 5491.8004 3269.0818 5560.4012 3297.474 5608.613 3318.5447 5644.5365 3256.6386 5718.6964 3285.002 5682.8052 3356.1367 5643.2015 3426.3642 5584.1929 3513.2592 5481.5696 3575.3735 Z" fill="none" stroke="#E71E24" opacity="0.6" stroke-width="1" class="laurelton"/>
<path d="M 5527.4489 3106.7186 5710.0783 3190.9239 5577.2437 3478.5561 5373.1794 3351.6365 5527.4489 3106.7186 Z" fill="none" stroke="#E71E24" opacity="0.6" stroke-width="1" class="laurelton"/>
<path d="M 5708.431 3259.2088 5707.6185 3295.6436 5675.8092 3339.555 5659.6938 3368.6605 5603.8942 3443.0878 5590.5876 3483.7185 5549.5172 3531.8134 5453.5555 3495.1886 5396.0541 3465.8294 5431.3689 3345.3494 5460.7487 3257.1807 5492.9922 3200.8286 5506.8101 3176.8101 5579.1244 3210.7209 5708.431 3259.2088 Z" fill="none" stroke="#E71E24" opacity="0.6" stroke-width="1" class="laurelton"/>
<path d="M 5380.474 3524.9156 5395.1306 3466.7544 5390.4335 3442.7823 5370.0245 3429.9239 5363.4686 3403.1903 5393.0219 3374.5129 5501.7128 3174.9804 5714.9122 3259.1886 5703.9564 3309.0293 5642.1884 3397.7708 5572.1861 3524.3658 5387.8908 3527.6628 5380.474 3524.9156 Z" fill="none" stroke="#E71E24" opacity="0.6" stroke-width="1" class="laurelton"/>
<path d="M 5464.8941 3249.7904 5641.0603 3331.3598 5433.0488 3776.6651 5360.6484 3725.1901 5356.9658 3733.5052 5357.5834 3620.9313 5344.533 3590.5194 5406.004 3380.9337 5464.8941 3249.7904 Z" fill="none" stroke="#E71E24" opacity="0.6" stroke-width="1" class="laurelton"/>
<path d="M 5460.2857 3257.1821 5679.0756 3347.8466 5565.7604 3543.7591 5388.6608 3471.385 5460.2857 3257.1821 Z" fill="none" stroke="#E71E24" opacity="0.6" stroke-width="1" class="laurelton"/>
<path d="M 5460.3042 3263.6382 5467.6757 3251.1659 5566.3718 3281.3153 5619.2307 3308.3666 5616.927 3312.063 5674.4373 3345.0936 5627.4419 3420.8771 5576.4326 3395.2013 5540.98 3463.1086 5463.1112 3436.1202 5492.5255 3359.9334 5429.0319 3337.5156 5460.3042 3263.6382 Z" fill="none" stroke="#E71E24" opacity="0.6" stroke-width="1" class="laurelton"/>
<path d="M 5006.7033 3300.7942 4989.8933 3239.9603 5194.2964 3156.4538 5494.3197 3179.6129 5720.4473 3252.715 5600.0091 3537.1989 5055.4012 3527.6042 5006.7033 3300.7942 Z" fill="none" stroke="#E71E24" opacity="0.6" stroke-width="1" class="laurelton"/>
<path d="M 5634.8194 3410.7076 5559.2527 3535.475 5285.0514 3514.1039 5356.7284 3309.1228 5634.8194 3410.7076 Z" fill="none" stroke="#E71E24" opacity="0.6" stroke-width="1" class="laurelton"/>
<path d="M 5421.6294 3339.3812 5434.3054 3319.5142 5450.4019 3281.6519 5460.5146 3256.2591 5494.8035 3266.9979 5507.3158 3271.3428 5545.3237 3286.9115 5578.006 3301.5724 5610.225 3315.7727 5652.1774 3333.1707 5674.6681 3344.8623 5658.5356 3368.4334 5645.3915 3385.308 5629.0373 3412.5701 5617.5161 3430.5932 5605.9966 3449.3084 5594.5022 3476.5571 5580.6794 3499.6619 5561.5279 3521.8603 5534.6819 3526.0909 5480.4924 3522.7884 5432.3459 3527.5384 5385.0894 3519.3674 5397.0624 3495.3476 5393.2861 3469.5271 5397.8369 3440.9167 5407.0357 3418.7515 5406.0452 3395.6927 5416.146 3365.224 5421.6294 3339.3812 Z" fill="none" stroke="#E71E24" opacity="0.6" stroke-width="1" class="laurelton"/>
<path d="M 5441.0642 3335.6368 5625.5814 3418.1154 5592.4343 3481.8679 5586.9989 3522.4765 5580.4664 3505.8898 5517.5139 3514.3782 5457.3467 3525.6224 5403.6096 3518.3933 5402.5959 3487.0293 5405.2815 3453.811 5441.0642 3335.6368 Z" fill="none" stroke="#E71E24" opacity="0.6" stroke-width="1" class="laurelton"/>
<path d="M 5426.7066 3333.8326 5493.9127 3198.9814 5705.738 3286.426 5626.9635 3415.805 5426.7066 3333.8326 Z" fill="none" stroke="#E71E24" opacity="0.6" stroke-width="1" class="laurelton"/>
<path d="M 5467.6902 3256.2386 5681.8308 3340.4588 5571.2544 3522.5234 5382.3263 3524.9105 5467.6902 3256.2386 Z" fill="none" stroke="#E71E24" opacity="0.6" stroke-width="1" class="laurelton"/>
<path d="M 5456.389 3514.5542 5437.8037 3492.4656 5717.9146 3331.1229 5708.3437 3528.5645 5456.389 3514.5542 Z" fill="none" stroke="#E71E24" opacity="0.6" stroke-width="1" class="laurelton"/>
<path d="M 5434.5746 3332.888 5468.6161 3256.2359 5521.4371 3271.7629 5606.7056 3300.103 5689.2899 3357.0391 5643.1481 3408.8373 5599.8044 3468.9304 5559.2418 3531.7847 5510.1584 3532.8511 5427.736 3534.932 5381.3771 3516.6099 5389.5459 3456.6223 5398.6602 3404.0154 5405.0599 3374.4793 5434.5746 3332.888 Z" fill="none" stroke="#E71E24" opacity="0.6" stroke-width="1" class="laurelton"/>
<path d="M 5492.0571 3197.6033 5714.9942 3285.4748 5590.6152 3492.9438 5560.6529 3539.1613 5374.9502 3536.9244 5393.771 3477.3673 5397.7046 3393.4098 5422.5385 3333.3831 5458.893 3255.8025 5492.0571 3197.6033 Z" fill="none" stroke="#E71E24" opacity="0.6" stroke-width="1" class="laurelton"/>
<path d="M 5230.9385 3362.0357 5460.1122 3196.3116 5690.8677 3268.4865 5230.9385 3362.0357 Z" fill="none" stroke="#E71E24" opacity="0.6" stroke-width="1" class="laurelton"/></svg>