<?xml version="1.0"?><svg xmlns="http://www.w3.org/2000/svg" version="1.2" baseProfile="tiny" width="6000" height="5918" viewBox="0 0 6000 5918" stroke-linecap="round" stroke-linejoin="round"><path d="M 2889.6305 2006.8059 2878.0718 2002.2019 2906.726 1935.4211 2926.1423 1934.9575 2958.2753 1952.4511 2956.8894 1957.5172 2957.5965 2024.2955 2945.3493 2049.1684 2889.6305 2006.8059 Z" fill="none" stroke="#A9159C" opacity="0.6" stroke-width="1" class="lincoln_square"/>
<path d="M 2950.9097 2111.5765 2857.504 2061.8468 2896.3315 1986.3108 2989.7313 2034.1905 2950.9097 2111.5765 Z" fill="none" stroke="#A9159C" opacity="0.6" stroke-width="1" class="lincoln_square"/>
<path d="M 2871.366 1984.4718 3061.8793 2106.021 2936.1512 2319.7932 2767.8073 2190.8212 2871.366 1984.4718 Z" fill="none" stroke="#A9159C" opacity="0.6" stroke-width="1" class="lincoln_square"/>
<path d="M 2924.0643 1949.0036 2912.9712 1962.3606 2918.9791 1949.2347 2921.7521 1944.8593 2927.9933 1945.3188 2942.0952 1955.2175 2955.2723 1962.1228 2959.6668 1974.7865 2958.2854 2001.7284 2954.5924 2030.0531 2933.7941 2069.2055 2907.2055 2049.6355 2875.3014 2033.0593 2876.2254 2027.0719 2888.4749 2008.6483 2896.1015 1995.2914 2890.5508 1973.4166 2894.9415 1964.6659 2900.2552 1944.1718 2905.5705 1936.8028 2915.2792 1940.0249 2921.5208 1943.9383 2907.6555 1968.118 2922.6791 1958.9051 2924.0648 1951.7667 2924.0643 1949.0036 Z" fill="none" stroke="#A9159C" opacity="0.6" stroke-width="1" class="lincoln_square"/>
<path d="M 2987.5328 2037.9181 2987.2397 2041.1488 2967.3658 2073.6237 2957.8861 2067.4079 2956.0385 2076.6199 2933.381 2066.7217 2929.221 2073.8614 2868.1055 2039.7247 2899.5319 1988.1477 2987.5328 2037.9181 Z" fill="none" stroke="#A9159C" opacity="0.6" stroke-width="1" class="lincoln_square"/>
<path d="M 2977.7168 2062.7486 2845.0158 2007.5015 2890.7765 1932.43 2953.6541 1961.4323 2977.7168 2062.7486 Z" fill="none" stroke="#A9159C" opacity="0.6" stroke-width="1" class="lincoln_square"/>
<path d="M 2835.7703 2021.3189 2892.1594 1902.9574 3023.4663 1975.6923 2962.0026 2091.3081 2835.7703 2021.3189 Z" fill="none" stroke="#A9159C" opacity="0.6" stroke-width="1" class="lincoln_square"/>
<path d="M 2959.2132 2017.1566 2869.0525 1966.9717 2942.9986 1842.1654 2986.9182 1867.9427 2959.2132 2017.1566 Z" fill="none" stroke="#A9159C" opacity="0.6" stroke-width="1" class="lincoln_square"/>
<path d="M 2930.5326 1926.4372 2996.1852 1956.8176 2956.4402 2022.2233 2900.0297 1984.4681 2930.5326 1926.4372 Z" fill="none" stroke="#A9159C" opacity="0.6" stroke-width="1" class="lincoln_square"/>
<path d="M 2957.3785 2089.4667 2831.6096 2026.8459 2901.8674 1904.3376 3025.7777 1975.2311 2961.0773 2088.5448 2957.3785 2089.4667 Z" fill="none" stroke="#A9159C" opacity="0.6" stroke-width="1" class="lincoln_square"/>
<path d="M 2903.255 1909.1726 3024.8533 1975.807 2965.2374 2082.5563 2844.323 2015.1007 2903.255 1909.1726 Z" fill="none" stroke="#A9159C" opacity="0.6" stroke-width="1" class="lincoln_square"/>
<path d="M 2922.2142 1943.7079 2956.8901 1960.9711 2957.8263 2017.6174 2897.9498 1988.1527 2902.5716 1978.0202 2916.899 1951.0771 2922.2142 1943.7079 Z" fill="none" stroke="#A9159C" opacity="0.6" stroke-width="1" class="lincoln_square"/>
<path d="M 2834.3835 2025.0034 2902.7929 1910.7845 3023.0036 1974.3108 2963.8531 2095.9136 2834.3835 2025.0034 Z" fill="none" stroke="#A9159C" opacity="0.6" stroke-width="1" class="lincoln_square"/>
<path d="M 2957.3789 2091.3091 2837.6199 2025.0032 2887.7715 1931.7396 3001.7462 2010.2386 2957.3789 2091.3091 Z" fill="none" stroke="#A9159C" opacity="0.6" stroke-width="1" class="lincoln_square"/>
<path d="M 2924.0607 1927.3594 3003.5816 1954.9737 2962.9156 2035.1176 2882.4631 1996.4445 2924.0607 1927.3594 Z" fill="none" stroke="#A9159C" opacity="0.6" stroke-width="1" class="lincoln_square"/>
<path d="M 2924.0695 1979.859 2971.2322 2009.3247 2949.0493 2055.3854 2895.412 2024.0759 2924.0695 1979.859 Z" fill="none" stroke="#A9159C" opacity="0.6" stroke-width="1" class="lincoln_square"/>
<path d="M 2879.9236 2022.9265 2876.4562 2024.5389 2951.3277 1886.3698 3044.7212 1936.7719 2970.0901 2072.883 2879.9236 2022.9265 Z" fill="none" stroke="#A9159C" opacity="0.6" stroke-width="1" class="lincoln_square"/>
<path d="M 3023.8129 1975.3468 2959.9219 2091.0783 2835.0769 2022.9309 2908.3404 1911.4744 3023.8129 1975.3468 Z" fill="none" stroke="#A9159C" opacity="0.6" stroke-width="1" class="lincoln_square"/>
<path d="M 2965.7018 2092.2285 2900.9648 2057.2358 2937.0172 1995.5151 2994.3525 2024.9782 2965.7018 2092.2285 Z" fill="none" stroke="#A9159C" opacity="0.6" stroke-width="1" class="lincoln_square"/>
<path d="M 2962.9277 2093.1503 2893.5679 2062.7637 2954.5737 1936.564 3024.6219 1975.0011 2962.9277 2093.1503 Z" fill="none" stroke="#A9159C" opacity="0.6" stroke-width="1" class="lincoln_square"/>
<path d="M 2957.348 1939.0963 3023.9285 1975.2316 3009.1413 2001.7166 2970.0904 2074.0344 2939.5712 2056.5386 2934.9495 2066.4418 2847.5596 2019.0151 2903.7172 1908.9423 2957.348 1939.0963 Z" fill="none" stroke="#A9159C" opacity="0.6" stroke-width="1" class="lincoln_square"/>
<path d="M 2949.9851 2112.4979 2888.9463 2077.5029 2934.2429 1993.6734 2996.2036 2032.3467 2949.9851 2112.4979 Z" fill="none" stroke="#A9159C" opacity="0.6" stroke-width="1" class="lincoln_square"/>
<path d="M 2836.2337 2036.0567 2912.0516 1994.5982 2930.5452 1998.2795 2903.7296 1993.6784 2950.8909 2015.7766 2960.1431 2042.4872 2966.6236 2078.4107 2936.1112 2098.6826 2896.3449 2083.0289 2856.5794 2062.768 2836.2337 2036.0567 Z" fill="none" stroke="#A9159C" opacity="0.6" stroke-width="1" class="lincoln_square"/>
<path d="M 2952.7552 2091.31 2949.9801 2086.7047 2863.976 2052.6347 2898.1766 1956.8365 3005.4416 1997.3424 2952.7552 2091.31 Z" fill="none" stroke="#A9159C" opacity="0.6" stroke-width="1" class="lincoln_square"/>
<path d="M 2903.2552 1910.3239 3023.6976 1976.1527 2960.8463 2089.2357 2839.4691 2023.6214 2903.2552 1910.3239 Z" fill="none" stroke="#A9159C" opacity="0.6" stroke-width="1" class="lincoln_square"/>
<path d="M 2959.2285 2091.7693 2868.1358 2039.7383 2932.3817 1925.9764 3024.3908 1975.2315 2959.2285 2091.7693 Z" fill="none" stroke="#A9159C" opacity="0.6" stroke-width="1" class="lincoln_square"/>
<path d="M 2964.3133 2085.7806 2867.4424 2040.6595 2932.6126 1924.8251 3024.391 1976.1525 2964.3133 2085.7806 Z" fill="none" stroke="#A9159C" opacity="0.6" stroke-width="1" class="lincoln_square"/>
<path d="M 2960.1531 2091.3085 2836.2326 2021.3188 2913.8842 1888.6789 3002.6526 1937.4742 2931.4824 2070.1271 2960.1531 2091.3085 Z" fill="none" stroke="#A9159C" opacity="0.6" stroke-width="1" class="lincoln_square"/>
<path d="M 2832.5334 2013.9502 2999.8564 1847.2181 2986.0422 2075.6429 2832.5334 2013.9502 Z" fill="none" stroke="#A9159C" opacity="0.6" stroke-width="1" class="lincoln_square"/>
<path d="M 2838.5445 2024.082 2938.8388 1844.4685 2977.6729 1867.4843 2955.5154 2021.7629 2931.9455 2074.2722 2838.5445 2024.082 Z" fill="none" stroke="#A9159C" opacity="0.6" stroke-width="1" class="lincoln_square"/>
<path d="M 2908.3409 1914.4677 2994.3364 1958.6602 2942.5758 2052.6232 2849.1764 2002.8957 2908.3409 1914.4677 Z" fill="none" stroke="#A9159C" opacity="0.6" stroke-width="1" class="lincoln_square"/>
<path d="M 2876.9191 2028.6838 2911.1224 1965.1241 2975.8538 2001.9549 2932.405 2058.1519 2876.9191 2028.6838 Z" fill="none" stroke="#A9159C" opacity="0.6" stroke-width="1" class="lincoln_square"/>
<path d="M 3005.4523 2039.7134 2957.383 2111.5752 2823.288 2035.1365 2865.8143 1947.63 3005.4523 2039.7134 Z" fill="none" stroke="#A9159C" opacity="0.6" stroke-width="1" class="lincoln_square"/>
<path d="M 2960.383 2084.8602 2934.4866 2063.6784 2840.3929 2012.3377 2901.6371 1909.6334 3026.9338 1976.1518 2960.383 2084.8602 Z" fill="none" stroke="#A9159C" opacity="0.6" stroke-width="1" class="lincoln_square"/>
<path d="M 2997.1292 2036.031 2945.8234 2111.1169 2819.5898 2043.4269 2867.6655 1966.0508 2997.1292 2036.031 Z" fill="none" stroke="#A9159C" opacity="0.6" stroke-width="1" class="lincoln_square"/>
<path d="M 2959.2295 2096.8358 2892.6427 2059.0793 2928.6979 2010.2541 2993.4325 2044.322 2959.2295 2096.8358 Z" fill="none" stroke="#A9159C" opacity="0.6" stroke-width="1" class="lincoln_square"/>
<path d="M 2918.5164 1946.7019 2987.8687 1978.004 2932.4041 2052.625 2872.296 2031.4477 2918.5164 1946.7019 Z" fill="none" stroke="#A9159C" opacity="0.6" stroke-width="1" class="lincoln_square"/>
<path d="M 2977.4833 2052.3857 2947.6596 2042.0291 2913.6753 2030.2907 2875.0695 2026.6115 2853.3367 1996.4477 2893.0877 1930.3574 2906.723 1914.9284 3028.321 1977.3028 2988.346 2041.7901 2975.402 2049.3925 2977.4833 2052.3857 Z" fill="none" stroke="#A9159C" opacity="0.6" stroke-width="1" class="lincoln_square"/>
<path d="M 3035.2094 1814.9762 3037.6362 1815.3208 3063.8727 1830.0476 3047.5884 1862.631 3038.9237 1871.8432 3017.9018 1913.2935 3013.8585 1919.6265 2985.8845 1895.2269 2965.4265 1884.0645 2959.9942 1881.1876 2936.9969 1883.6096 2956.4114 1880.0371 2999.2662 1797.3735 3007.0092 1799.904 3025.1537 1807.7269 3028.2745 1810.3736 3032.4354 1812.9049 3033.7068 1814.0557 3035.2094 1814.9762 Z" fill="none" stroke="#A9159C" opacity="0.6" stroke-width="1" class="lincoln_square"/>
<path d="M 2837.6198 2024.0821 2902.0993 1909.4031 2906.9534 1910.3233 3024.3904 1973.6196 2962.9267 2088.0838 2954.1411 2085.3221 2837.6198 2024.0821 Z" fill="none" stroke="#A9159C" opacity="0.6" stroke-width="1" class="lincoln_square"/>
<path d="M 2902.7921 1905.2584 3027.627 1975.2306 2959.2265 2082.0969 2835.3075 2014.8711 2902.7921 1905.2584 Z" fill="none" stroke="#A9159C" opacity="0.6" stroke-width="1" class="lincoln_square"/>
<path d="M 2902.135 1908.2493 3025.6773 1976.5575 2931.002 2147.1307 2808.7263 2079.5826 2902.135 1908.2493 Z" fill="none" stroke="#A9159C" opacity="0.6" stroke-width="1" class="lincoln_square"/>
<path d="M 2957.3624 2010.2487 2870.9009 1959.1426 2901.4054 1906.1796 2957.8106 1940.708 2957.3624 2010.2487 Z" fill="none" stroke="#A9159C" opacity="0.6" stroke-width="1" class="lincoln_square"/>
<path d="M 2877.8458 2046.1851 2937.0323 2078.4166 2888.9434 2055.3952 2877.8458 2046.1851 Z" fill="none" stroke="#A9159C" opacity="0.6" stroke-width="1" class="lincoln_square"/>
<path d="M 2984.1839 2037.4157 2901.4173 1988.6128 2856.1086 1974.8021 2941.1468 1827.4308 3063.199 1892.3276 3075.2188 1894.6262 2991.5818 2038.7957 2984.1839 2037.4157 Z" fill="none" stroke="#A9159C" opacity="0.6" stroke-width="1" class="lincoln_square"/>
<path d="M 2857.9661 2059.3136 2932.3816 1925.2856 3023.9286 1975.6921 2951.1406 2110.1947 2857.9661 2059.3136 Z" fill="none" stroke="#A9159C" opacity="0.6" stroke-width="1" class="lincoln_square"/>
<path d="M 2958.3005 2075.649 2944.4294 2074.7305 2919.459 2057.233 2906.5121 2050.787 2882.4676 2032.3676 2875.9948 2032.3684 2863.0484 2024.0798 2858.4247 2020.3958 2871.3702 2021.3155 2870.4448 2014.8679 2873.2178 2006.5777 2877.8401 1998.2873 2879.6891 1995.5238 2893.5574 1985.3901 2898.1779 1966.047 2912.0456 1955.9134 2922.212 1930.1227 2922.2085 1908.9394 3030.1666 1964.062 3028.6641 1964.0624 3014.105 1977.9974 3010.7539 1980.4161 3008.2121 1984.1011 3006.7112 1990.549 3005.4407 1994.1186 3004.864 1998.8393 3002.9004 2003.7906 2995.9668 2009.319 2987.6476 2020.7196 2988.4577 2024.9796 2986.6092 2028.6645 2985.5696 2031.6584 2988.6913 2035.227 2989.2706 2041.0991 2984.5306 2037.0702 2982.5656 2036.9555 2983.4912 2040.8701 2981.8731 2041.2159 2981.1801 2043.6341 2979.2153 2044.2102 2980.7177 2043.4039 2977.7119 2041.1017 2971.2411 2050.3145 2965.6938 2054.4609 2961.0702 2054.4618 2957.3742 2068.2799 2958.3005 2075.649 Z" fill="none" stroke="#A9159C" opacity="0.6" stroke-width="1" class="lincoln_square"/>
<path d="M 2929.6339 2075.1938 2838.5445 2024.082 2903.2546 1906.6399 3024.3908 1975.2315 2957.3792 2092.6908 2954.6068 2101.9033 2924.087 2083.9458 2929.6339 2075.1938 Z" fill="none" stroke="#A9159C" opacity="0.6" stroke-width="1" class="lincoln_square"/>
<path d="M 2964.7772 2093.1499 2840.8568 2031.4508 2836.2325 2020.3977 2888.0034 1937.496 3015.6122 1995.4975 2964.7772 2093.1499 Z" fill="none" stroke="#A9159C" opacity="0.6" stroke-width="1" class="lincoln_square"/>
<path d="M 2874.3766 2032.3686 2891.0083 1937.4956 3007.9853 2001.2563 2962.6943 2082.0962 2874.3766 2032.3686 Z" fill="none" stroke="#A9159C" opacity="0.6" stroke-width="1" class="lincoln_square"/>
<path d="M 2901.8681 1908.9426 3024.3912 1976.8433 2964.0823 2086.5866 2836.9257 2016.0224 2901.8681 1908.9426 Z" fill="none" stroke="#A9159C" opacity="0.6" stroke-width="1" class="lincoln_square"/>
<path d="M 2947.4179 1987.4537 2948.1129 1995.3979 2971.1167 2009.6701 2975.3954 2019.5711 2973.0889 2043.1753 2962.9161 2037.6507 2941.1841 2027.7529 2925.9252 2017.6234 2901.4217 2019.2392 2888.4742 2003.1217 2895.8676 1975.258 2914.3578 1960.5183 2919.9056 1961.2082 2947.4179 1987.4537 Z" fill="none" stroke="#A9159C" opacity="0.6" stroke-width="1" class="lincoln_square"/>
<path d="M 2955.5311 2099.6001 2831.6101 2033.2937 2892.6245 1923.68 3013.7617 1990.8926 2955.5311 2099.6001 Z" fill="none" stroke="#A9159C" opacity="0.6" stroke-width="1" class="lincoln_square"/>
<path d="M 2974.0029 1994.5866 2944.1932 2048.2475 2913.4442 2030.7513 2943.0241 1977.7832 2974.0029 1994.5866 Z" fill="none" stroke="#A9159C" opacity="0.6" stroke-width="1" class="lincoln_square"/>
<path d="M 2903.5064 2048.024 2934.706 1997.588 2995.9715 2028.432 2966.1615 2079.5623 2903.5064 2048.024 Z" fill="none" stroke="#A9159C" opacity="0.6" stroke-width="1" class="lincoln_square"/>
<path d="M 2963.8378 2023.1429 2989.27 2038.7962 2966.1593 2069.1992 2954.1368 2063.6747 2963.8378 2023.1429 Z" fill="none" stroke="#A9159C" opacity="0.6" stroke-width="1" class="lincoln_square"/>
<path d="M 2826.9875 2046.1898 2899.0959 1919.0741 2924.0618 1933.8065 3006.3634 1986.2891 3014.6854 1987.208 2948.1344 2106.0499 2826.9875 2046.1898 Z" fill="none" stroke="#A9159C" opacity="0.6" stroke-width="1" class="lincoln_square"/>
<path d="M 2957.6111 2096.3755 2950.6783 2110.4251 2888.4838 2076.5818 2898.8844 2058.1572 2868.5983 2040.8897 2916.8994 1953.61 2947.4146 1970.1836 2942.793 1978.0135 2973.7719 1995.2774 2958.5204 2020.8412 2957.1468 2086.9335 2957.6111 2096.3755 Z" fill="none" stroke="#A9159C" opacity="0.6" stroke-width="1" class="lincoln_square"/>
<path d="M 2923.8324 1944.3984 3015.8432 1994.8067 2977.7173 2064.8212 2884.3148 2014.8662 2923.8324 1944.3984 Z" fill="none" stroke="#A9159C" opacity="0.6" stroke-width="1" class="lincoln_square"/>
<path d="M 2966.3909 2071.2717 2971.0195 2094.5303 2963.8541 2100.9802 2950.6758 2097.7587 2941.1956 2089.2396 2939.5748 2075.6526 2948.8204 2067.3604 2966.3909 2071.2717 Z" fill="none" stroke="#A9159C" opacity="0.6" stroke-width="1" class="lincoln_square"/>
<path d="M 2972.6864 2064.9812 2913.8321 2029.222 2927.231 2005.3322 2897.4085 1988.7573 2902.162 1978.3275 2890.372 1971.1908 2904.6983 1935.0378 2951.1604 1959.4093 3013.2073 1993.1391 2972.6864 2064.9812 Z" fill="none" stroke="#A9159C" opacity="0.6" stroke-width="1" class="lincoln_square"/>
<path d="M 2963.8521 2091.3077 2834.3837 2027.7668 2898.1693 1905.2591 3024.8536 1977.0735 2963.8521 2091.3077 Z" fill="none" stroke="#A9159C" opacity="0.6" stroke-width="1" class="lincoln_square"/>
<path d="M 2949.9859 2116.1827 2832.5349 2035.5964 2908.3405 1912.1651 3021.1547 1975.6929 2949.9859 2116.1827 Z" fill="none" stroke="#A9159C" opacity="0.6" stroke-width="1" class="lincoln_square"/>
<path d="M 2959.2281 2089.9269 2866.7485 2036.9751 2931.9187 1921.8319 2958.273 1941.1684 3022.5414 1974.7714 2959.2281 2089.9269 Z" fill="none" stroke="#A9159C" opacity="0.6" stroke-width="1" class="lincoln_square"/>
<path d="M 3023.929 1977.0737 2974.0186 2065.5129 2848.2513 1998.2903 2900.9437 1909.8637 3023.929 1977.0737 Z" fill="none" stroke="#A9159C" opacity="0.6" stroke-width="1" class="lincoln_square"/>
<path d="M 2961.5404 2092.2294 2840.8563 2025.924 2892.6253 1930.1272 2956.4369 2006.1039 2998.5136 2025.4377 2961.5404 2092.2294 Z" fill="none" stroke="#A9159C" opacity="0.6" stroke-width="1" class="lincoln_square"/>
<path d="M 2972.6306 2061.368 2849.6382 1997.5994 2901.6365 1905.9494 3023.9285 1975.2316 2972.6306 2061.368 Z" fill="none" stroke="#A9159C" opacity="0.6" stroke-width="1" class="lincoln_square"/>
<path d="M 2952.7548 2089.4676 2831.6096 2025.9247 2888.9263 1924.6016 3012.8392 1999.1826 2956.4544 2092.2304 2952.7548 2089.4676 Z" fill="none" stroke="#A9159C" opacity="0.6" stroke-width="1" class="lincoln_square"/>
<path d="M 2988.8088 2043.402 2963.8515 2088.5442 2954.6072 2103.7456 2949.5209 2102.8255 2839.0085 2045.7284 2876.451 1980.3263 2988.8088 2043.402 Z" fill="none" stroke="#A9159C" opacity="0.6" stroke-width="1" class="lincoln_square"/>
<path d="M 2832.5339 2021.3191 2910.1875 1897.8894 3032.246 1960.4923 2962.0027 2091.7687 2832.5339 2021.3191 Z" fill="none" stroke="#A9159C" opacity="0.6" stroke-width="1" class="lincoln_square"/>
<path d="M 2960.1532 2091.7691 2833.9209 2021.319 2896.32 1903.4174 3025.3153 1974.7707 2960.1532 2091.7691 Z" fill="none" stroke="#A9159C" opacity="0.6" stroke-width="1" class="lincoln_square"/>
<path d="M 2943.9488 1978.0133 2998.511 2014.8449 3000.8224 2013.9233 2950.4465 2107.4312 2888.946 2075.6606 2940.7122 1976.1718 3006.1389 2012.5403 2943.9488 1978.0133 Z" fill="none" stroke="#A9159C" opacity="0.6" stroke-width="1" class="lincoln_square"/>
<path d="M 2962.927 2089.4656 2833.4585 2019.4768 2903.2547 1907.5609 3024.6225 1977.0735 2962.927 2089.4656 Z" fill="none" stroke="#A9159C" opacity="0.6" stroke-width="1" class="lincoln_square"/>
<path d="M 2965.9197 2086.2141 2880.6179 2029.6045 2888.6761 2003.643 2921.0516 1943.6821 2987.2988 1980.7116 3014.8104 1994.9815 3008.4385 2012.513 2965.9197 2086.2141 Z" fill="none" stroke="#A9159C" opacity="0.6" stroke-width="1" class="lincoln_square"/>
<path d="M 2956.4545 2093.1516 2836.2332 2029.6089 2899.094 1906.18 3029.4757 1973.3879 2956.4545 2093.1516 Z" fill="none" stroke="#A9159C" opacity="0.6" stroke-width="1" class="lincoln_square"/>
<path d="M 3013.0689 1993.4258 2974.7119 2064.8218 2912.2886 2032.1332 2952.4979 1959.5904 3013.0689 1993.4258 Z" fill="none" stroke="#A9159C" opacity="0.6" stroke-width="1" class="lincoln_square"/>
<path d="M 2870.9019 1968.3531 2994.8166 2032.347 2945.8241 2114.3411 2817.2782 2046.651 2870.9019 1968.3531 Z" fill="none" stroke="#A9159C" opacity="0.6" stroke-width="1" class="lincoln_square"/>
<path d="M 2905.2474 1910.4461 3024.6992 1975.7687 2950.5628 2110.8857 2828.2202 2043.2025 2905.2474 1910.4461 Z" fill="none" stroke="#A9159C" opacity="0.6" stroke-width="1" class="lincoln_square"/>
<path d="M 2956.4417 2029.5922 2918.0779 2094.0798 2826.5248 2040.6631 2890.3133 1925.5224 2957.8145 1960.0499 2956.4417 2029.5922 Z" fill="none" stroke="#A9159C" opacity="0.6" stroke-width="1" class="lincoln_square"/>
<path d="M 1468.8081 2573.259 2094.2918 2518.6135 2168.013 2979.5717 1479.4087 2942.0043 1468.8081 2573.259 Z" fill="none" stroke="#A9159C" opacity="0.6" stroke-width="1" class="lincoln_square"/>
<path d="M 2958.7658 2090.3876 2837.1577 2026.8454 2869.5154 1972.4981 2992.5067 2039.7166 2958.7658 2090.3876 Z" fill="none" stroke="#A9159C" opacity="0.6" stroke-width="1" class="lincoln_square"/>
<path d="M 2966.6244 2082.0954 2843.6295 2015.7916 2909.2638 1903.4155 3033.1716 1964.1763 2966.6244 2082.0954 Z" fill="none" stroke="#A9159C" opacity="0.6" stroke-width="1" class="lincoln_square"/>
<path d="M 2844.0283 2030.3452 2956.2194 1826.4508 3075.94 1892.0278 2971.2556 2087.4262 2844.0283 2030.3452 Z" fill="none" stroke="#A9159C" opacity="0.6" stroke-width="1" class="lincoln_square"/>
<path d="M 2946.285 2106.9714 2854.7297 2060.0048 2899.1051 1984.4682 2986.9574 2035.1123 2946.285 2106.9714 Z" fill="none" stroke="#A9159C" opacity="0.6" stroke-width="1" class="lincoln_square"/>
<path d="M 2871.8297 1996.9063 2896.3239 1931.5082 3015.6124 1996.4186 2982.8012 2056.2994 2871.8297 1996.9063 Z" fill="none" stroke="#A9159C" opacity="0.6" stroke-width="1" class="lincoln_square"/>
<path d="M 2921.2894 1942.3265 2957.5839 1962.8131 2956.4464 2053.0811 2882.9277 2014.4059 2921.2894 1942.3265 Z" fill="none" stroke="#A9159C" opacity="0.6" stroke-width="1" class="lincoln_square"/>
<path d="M 2976.7937 2070.118 2900.9603 2025.9173 2924.9959 1989.9907 3002.6743 2024.055 2976.7937 2070.118 Z" fill="none" stroke="#A9159C" opacity="0.6" stroke-width="1" class="lincoln_square"/>
<path d="M 2873.2212 2036.5138 2935.1562 1930.581 2957.3487 1942.5502 2957.8278 2024.9863 2931.482 2067.3636 2873.2212 2036.5138 Z" fill="none" stroke="#A9159C" opacity="0.6" stroke-width="1" class="lincoln_square"/>
<path d="M 2963.8508 2085.3201 2944.8976 2105.5899 2928.2502 2094.9993 2900.0434 2080.2649 2870.9126 2064.1483 2866.749 2042.0413 2881.0785 2015.7877 2900.0299 1985.3892 2908.812 1972.9534 2918.0544 1949.0046 2920.8245 1926.4389 2934.6899 1908.0163 2955.4937 1913.9988 2972.6 1922.2844 2982.3111 1935.1765 3003.1171 1946.2239 3025.3138 1969.2443 3017.4604 1991.3522 3002.2097 2014.844 2979.5626 2046.6281 2963.8508 2085.3201 Z" fill="none" stroke="#A9159C" opacity="0.6" stroke-width="1" class="lincoln_square"/>
<path d="M 2830.6861 2043.4262 2902.7925 1908.0214 3022.0795 1976.1532 2949.9846 2109.7343 2830.6861 2043.4262 Z" fill="none" stroke="#A9159C" opacity="0.6" stroke-width="1" class="lincoln_square"/>
<path d="M 2966.6244 2082.0954 2880.6191 2039.7369 2937.0067 1937.4884 2970.2935 1944.85 3008.215 1995.4995 2966.6244 2082.0954 Z" fill="none" stroke="#A9159C" opacity="0.6" stroke-width="1" class="lincoln_square"/>
<path d="M 2829.76 2022.2404 2897.2434 1895.1283 3027.6262 1972.4674 2960.1537 2094.072 2829.76 2022.2404 Z" fill="none" stroke="#A9159C" opacity="0.6" stroke-width="1" class="lincoln_square"/>
<path d="M 2957.6086 2083.9396 2955.9892 2078.1826 2948.4749 2073.6934 2933.5623 2065.8664 2852.4144 2021.778 2836.6944 2014.4105 2901.1746 1908.0217 2932.4969 1924.1343 2957.9259 1939.4415 2957.2349 1951.4152 2956.4398 2020.1508 2956.2196 2074.3828 2956.5668 2076.5705 2957.6086 2083.9396 Z" fill="none" stroke="#A9159C" opacity="0.6" stroke-width="1" class="lincoln_square"/>
<path d="M 2962.003 2093.1505 2831.6102 2034.2148 2891.6988 1915.391 3018.3822 1980.7595 2895.3979 1921.8376 3018.3834 1985.3649 2962.003 2093.1505 Z" fill="none" stroke="#A9159C" opacity="0.6" stroke-width="1" class="lincoln_square"/>
<path d="M 2961.0781 2092.2295 2830.6846 2022.2403 2901.8678 1907.1006 3025.7782 1977.0732 2961.0781 2092.2295 Z" fill="none" stroke="#A9159C" opacity="0.6" stroke-width="1" class="lincoln_square"/>
<path d="M 2949.5084 2039.0351 2918.2974 2021.9999 2933.3187 1995.746 2963.3731 2012.0897 2949.5084 2039.0351 Z" fill="none" stroke="#A9159C" opacity="0.6" stroke-width="1" class="lincoln_square"/>
<path d="M 2853.1684 2035.5644 2895.3984 1925.0612 2988.5411 1971.1364 2930.0829 2070.1591 2853.1684 2035.5644 Z" fill="none" stroke="#A9159C" opacity="0.6" stroke-width="1" class="lincoln_square"/>
<path d="M 2822.3576 2047.4161 2895.3906 1915.6954 2906.4857 1917.5358 3022.0736 1978.3002 2955.5243 2098.0626 2822.3576 2047.4161 Z" fill="none" stroke="#A9159C" opacity="0.6" stroke-width="1" class="lincoln_square"/>
<path d="M 3024.391 1975.9223 2961.5404 2091.9991 2834.6146 2023.852 2900.481 1907.1008 3024.391 1975.9223 Z" fill="none" stroke="#A9159C" opacity="0.6" stroke-width="1" class="lincoln_square"/>
<path d="M 2993.1974 2028.2024 2952.9745 2031.2049 2993.3136 2030.6203 2972.2841 2062.5195 2943.2682 2046.6357 2914.4845 2030.8663 2928.1191 2004.7276 2933.0875 1995.5158 2963.2575 2011.7443 2993.1974 2028.2024 Z" fill="none" stroke="#A9159C" opacity="0.6" stroke-width="1" class="lincoln_square"/>
<path d="M 2938.8871 2107.4334 2822.826 2039.7422 2900.4808 1905.7193 3010.0587 1973.8537 3010.0598 1977.9985 3008.2116 1982.1438 2938.8871 2107.4334 Z" fill="none" stroke="#A9159C" opacity="0.6" stroke-width="1" class="lincoln_square"/>
<path d="M 3012.8383 1995.4983 2960.1518 2084.8603 2930.5695 2137.3742 2821.4411 2076.5882 2834.3853 2048.9527 2892.6238 1919.075 3012.8383 1995.4983 Z" fill="none" stroke="#A9159C" opacity="0.6" stroke-width="1" class="lincoln_square"/>
<path d="M 2949.0593 2106.9709 2931.4873 2097.7623 2905.5927 2086.7123 2892.6442 2070.1331 2865.8274 2071.0575 2863.0519 2058.1616 2868.5996 2052.6342 2835.3094 2040.6624 2851.9507 2006.5798 2869.5137 1956.8401 2903.7148 1892.3644 2905.5677 1918.1521 2925.9084 1919.0699 2954.5748 1942.0902 2985.0899 1956.8203 3010.9813 1966.0244 3030.4022 1979.8352 2949.0593 2106.9709 Z" fill="none" stroke="#A9159C" opacity="0.6" stroke-width="1" class="lincoln_square"/>
<path d="M 2928.2464 2072.6608 2853.1089 2032.1405 2903.4896 1933.119 2961.0516 1964.6545 2972.1563 2007.0217 2928.2464 2072.6608 Z" fill="none" stroke="#A9159C" opacity="0.6" stroke-width="1" class="lincoln_square"/>
<path d="M 2839.9305 2011.1864 2887.7706 1925.0622 3014.2249 1994.2314 2964.7753 2084.1684 2839.9305 2011.1864 Z" fill="none" stroke="#A9159C" opacity="0.6" stroke-width="1" class="lincoln_square"/>
<path d="M 2963.8519 2090.3866 2840.8561 2023.1607 2935.1399 1839.8645 3061.8162 1905.2219 2963.8519 2090.3866 Z" fill="none" stroke="#A9159C" opacity="0.6" stroke-width="1" class="lincoln_square"/>
<path d="M 2957.3763 2078.4169 2962.9096 2006.5674 2992.5044 2030.5096 2957.3763 2078.4169 Z" fill="none" stroke="#A9159C" opacity="0.6" stroke-width="1" class="lincoln_square"/>
<path d="M 2878.7711 2050.7907 2886.1666 2034.2094 2883.3922 2031.4464 2886.166 2029.6038 2888.0153 2029.6036 2892.637 2016.7074 2897.2589 2006.5746 2902.8051 1994.5996 2912.9771 2000.1246 2910.2037 2003.8094 2889.8643 2026.84 2903.7322 2011.1792 2906.5058 2008.4155 2937.0189 2004.726 2949.0412 2013.9348 2959.2148 2024.9861 2961.9909 2035.1178 2957.3697 2046.1723 2942.5786 2067.3616 2928.7116 2089.4721 2902.8167 2073.8163 2878.7711 2050.7907 Z" fill="none" stroke="#A9159C" opacity="0.6" stroke-width="1" class="lincoln_square"/>
<path d="M 2960.2662 2078.9878 2872.0648 2031.5629 2921.0585 1943.9384 2982.6674 1977.0841 2960.2662 2078.9878 Z" fill="none" stroke="#A9159C" opacity="0.6" stroke-width="1" class="lincoln_square"/>
<path d="M 2870.9038 1985.3929 2880.8414 1967.2006 2894.247 1956.6068 2943.7175 1977.3226 3002.9015 2008.1659 2988.8047 2026.3612 2983.0293 2042.9428 2969.1651 2071.5014 2941.4206 2056.308 2908.822 2038.8119 2859.8097 2000.3617 2870.9038 1985.3929 Z" fill="none" stroke="#A9159C" opacity="0.6" stroke-width="1" class="lincoln_square"/>
<path d="M 2974.9433 2065.5126 2941.187 2043.4121 2932.8686 2065.0605 2908.8234 2047.5627 2901.6565 2044.57 2878.0749 2028.6837 2871.6017 2025 2845.7105 2021.7786 2855.5349 2018.7841 2894.3587 1928.4 2984.401 1976.8535 2974.9433 2065.5126 Z" fill="none" stroke="#A9159C" opacity="0.6" stroke-width="1" class="lincoln_square"/>
<path d="M 2958.3033 2089.4665 2953.6812 2097.7581 2925.0116 2083.0245 2889.8692 2063.6854 2860.2763 2043.4237 2832.5346 2030.5303 2889.8506 1922.7594 2902.796 1931.9678 2923.1386 1942.096 2961.0512 1962.3519 2957.3652 2024.0653 2959.2218 2059.0679 2958.3033 2089.4665 Z" fill="none" stroke="#A9159C" opacity="0.6" stroke-width="1" class="lincoln_square"/>
<path d="M 2964.7765 2089.4652 2963.6204 2088.7745 2835.7704 2022.4703 2900.2499 1907.3311 3024.6221 1975.6919 2964.7765 2089.4652 Z" fill="none" stroke="#A9159C" opacity="0.6" stroke-width="1" class="lincoln_square"/>
<path d="M 2965.2369 2080.2533 2935.0649 2065.5207 2964.9913 2012.3196 2993.7755 2029.0082 2965.2369 2080.2533 Z" fill="none" stroke="#A9159C" opacity="0.6" stroke-width="1" class="lincoln_square"/>
<path d="M 2993.4288 2029.1234 2977.7165 2061.5971 2965.8157 2084.2833 2962.5795 2085.8961 2958.8803 2084.6302 2959.3419 2081.1757 2959.6886 2080.7151 2960.2667 2081.521 2956.2203 2078.1826 2954.1397 2078.0679 2949.5154 2074.6144 2943.7349 2069.6643 2938.6485 2067.132 2929.0539 2063.334 2927.8977 2061.8373 2916.9159 2056.3122 2919.1125 2058.7299 2914.3727 2055.0461 2912.0608 2053.895 2911.8295 2053.089 2909.0553 2052.744 2904.6625 2049.0601 2897.033 2044.3404 2892.178 2041.4625 2877.3822 2035.7073 2873.5675 2032.1384 2878.3054 2022.6964 2926.9514 1935.4178 2932.8437 1924.7099 2962.2023 1940.3617 2980.5813 1952.1009 3023.5819 1975.9225 3011.2219 2002.4069 2993.4288 2029.1234 Z" fill="none" stroke="#A9159C" opacity="0.6" stroke-width="1" class="lincoln_square"/>
<path d="M 3019.5392 1985.3646 2962.4633 2083.0174 2845.0161 2010.2648 2894.4739 1925.5218 3016.0716 1984.4444 3019.5392 1985.3646 Z" fill="none" stroke="#A9159C" opacity="0.6" stroke-width="1" class="lincoln_square"/></svg>