<?xml version="1.0"?><svg xmlns="http://www.w3.org/2000/svg" version="1.2" baseProfile="tiny" width="6000" height="5918" viewBox="0 0 6000 5918" stroke-linecap="round" stroke-linejoin="round"><path d="M 4470.0734 3527.9184 4339.6355 3617.6385 4303.2751 3471.9291 4367.1568 3460.7529 4465.4045 3506.7078 4470.0734 3527.9184 Z" fill="none" stroke="#865327" opacity="0.6" stroke-width="1" class="lindenwood"/>
<path d="M 4319.966 3484.8172 4344.9632 3480.1631 4395.8956 3478.2315 4443.2102 3525.1987 4329.4209 3601.9704 4305.1724 3499.602 4336.7226 3536.914 4273.5017 3385.2642 4319.966 3484.8172 Z" fill="none" stroke="#865327" opacity="0.6" stroke-width="1" class="lindenwood"/>
<path d="M 4307.4523 3477.9187 4365.3054 3461.2172 4393.5629 3468.0878 4470.953 3502.0851 4475.1756 3532.5221 4397.9246 3580.6339 4355.3792 3616.2282 4327.19 3653.1822 4306.2985 3622.3067 4304.4009 3594.6303 4316.4152 3578.4646 4326.1213 3566.9159 4307.4523 3477.9187 Z" fill="none" stroke="#865327" opacity="0.6" stroke-width="1" class="lindenwood"/>
<path d="M 4457.9955 3506.7211 4345.1883 3614.8613 4213.4779 3494.2117 4457.9955 3506.7211 Z" fill="none" stroke="#865327" opacity="0.6" stroke-width="1" class="lindenwood"/>
<path d="M 4462.1432 3495.6431 4471.0087 3532.9909 4403.0092 3575.0894 4349.0152 3618.5455 4298.0796 3623.2428 4296.6443 3594.8735 4313.3928 3570.9733 4318.7017 3560.8159 4312.8533 3524.2679 4318.6081 3503.8468 4326.436 3477.0803 4363.2539 3480.2477 4371.0147 3483.0021 4403.7674 3478.2179 4462.1432 3495.6431 Z" fill="none" stroke="#865327" opacity="0.6" stroke-width="1" class="lindenwood"/>
<path d="M 4240.6318 3684.2321 4147.7723 3527.5221 4174.5907 3500.7283 4254.2125 3484.923 4369.9397 3463.5157 4466.319 3500.2483 4470.9746 3514.0783 4458.055 3539.9335 4361.8356 3600.0709 4302.661 3663.8335 4267.5224 3701.7217 4240.6318 3684.2321 Z" fill="none" stroke="#865327" opacity="0.6" stroke-width="1" class="lindenwood"/>
<path d="M 4487.587 3609.3073 4337.8175 3638.4016 4297.032 3619.7845 4296.7533 3590.7215 4315.7334 3586.3081 4315.4732 3568.7787 4313.7753 3521.7293 4303.5089 3473.3125 4365.0719 3460.0645 4466.0887 3500.9407 4488.2796 3608.1527 4487.587 3609.3073 Z" fill="none" stroke="#865327" opacity="0.6" stroke-width="1" class="lindenwood"/>
<path d="M 4305.832 3478.152 4372.4896 3465.3564 4466.0933 3503.4777 4471.471 3532.5288 4378.2563 3588.51 4307.0503 3657.3674 4290.9329 3571.1251 4322.8808 3567.6132 4310.0368 3500.9779 4305.832 3478.152 Z" fill="none" stroke="#865327" opacity="0.6" stroke-width="1" class="lindenwood"/></svg>