<?xml version="1.0"?><svg xmlns="http://www.w3.org/2000/svg" version="1.2" baseProfile="tiny" width="6000" height="5918" viewBox="0 0 6000 5918" stroke-linecap="round" stroke-linejoin="round"><path d="M 2820.7896 2793.9861 2811.9978 2789.8382 2800.8936 2815.19 2774.2868 2802.9758 2782.8468 2786.8431 2785.3916 2778.0855 2794.1825 2762.414 2821.9454 2777.3926 2825.4158 2779.9275 2820.7896 2793.9861 Z" fill="none" stroke="#FBC20F" opacity="0.6" stroke-width="1" class="little_italy"/>
<path d="M 2813.6127 2700.4222 2835.1276 2710.5604 2799.9684 2819.7995 2779.1455 2812.6554 2813.6127 2700.4222 Z" fill="none" stroke="#FBC20F" opacity="0.6" stroke-width="1" class="little_italy"/>
<path d="M 2816.831 2827.6251 2764.0797 2805.5013 2813.9056 2700.3153 2844.6451 2714.6579 2816.831 2827.6251 Z" fill="none" stroke="#FBC20F" opacity="0.6" stroke-width="1" class="little_italy"/>
<path d="M 2849.2394 2713.3246 2811.3054 2824.8694 2764.5697 2803.6673 2820.0899 2697.6566 2828.8808 2699.73 2833.2752 2686.825 2842.2975 2691.4331 2839.5227 2707.5643 2849.2394 2713.3246 Z" fill="none" stroke="#FBC20F" opacity="0.6" stroke-width="1" class="little_italy"/>
<path d="M 2793.0263 2779.929 2788.8618 2775.5504 2797.6519 2738.2162 2803.2043 2741.9032 2819.3989 2750.1988 2807.6019 2786.3814 2793.0263 2779.929 Z" fill="none" stroke="#FBC20F" opacity="0.6" stroke-width="1" class="little_italy"/>
<path d="M 2781.4591 2812.8859 2797.6528 2764.7185 2824.0277 2779.2362 2808.2977 2825.3305 2784.004 2807.3546 2781.4591 2812.8859 Z" fill="none" stroke="#FBC20F" opacity="0.6" stroke-width="1" class="little_italy"/>
<path d="M 2763.1816 2802.7454 2815.0007 2700.4221 2861.2695 2718.8542 2823.3369 2833.1658 2763.1816 2802.7454 Z" fill="none" stroke="#FBC20F" opacity="0.6" stroke-width="1" class="little_italy"/>
<path d="M 2772.436 2806.8938 2793.7199 2764.4882 2806.213 2769.5578 2789.3255 2815.4209 2772.436 2806.8938 Z" fill="none" stroke="#FBC20F" opacity="0.6" stroke-width="1" class="little_italy"/>
<path d="M 2808.5291 2825.7914 2779.8384 2729.9204 2802.971 2692.1268 2843.6871 2711.4815 2808.5291 2825.7914 Z" fill="none" stroke="#FBC20F" opacity="0.6" stroke-width="1" class="little_italy"/>
<path d="M 2779.6081 2803.8976 2798.9249 2754.1175 2807.0222 2757.4587 2801.1236 2777.2784 2805.2881 2780.159 2803.0904 2785.4598 2797.6537 2788.8017 2787.4745 2809.083 2779.6081 2803.8976 Z" fill="none" stroke="#FBC20F" opacity="0.6" stroke-width="1" class="little_italy"/>
<path d="M 2818.7021 2701.3437 2851.0901 2713.3244 2814.0819 2826.713 2766.8833 2802.7454 2826.1054 2710.561 2818.7021 2701.3437 Z" fill="none" stroke="#FBC20F" opacity="0.6" stroke-width="1" class="little_italy"/>
<path d="M 2731.7178 2772.0931 2749.5322 2754.1179 2822.6404 2794.2164 2806.2157 2831.5534 2780.5345 2863.5906 2708.1171 2817.2632 2731.7178 2772.0931 Z" fill="none" stroke="#FBC20F" opacity="0.6" stroke-width="1" class="little_italy"/>
<path d="M 2801.8173 2768.1752 2807.8325 2770.71 2790.9451 2817.7255 2778.6828 2814.7297 2801.8173 2768.1752 Z" fill="none" stroke="#FBC20F" opacity="0.6" stroke-width="1" class="little_italy"/>
<path d="M 2796.9601 2803.8972 2787.2429 2798.8272 2820.7843 2703.648 2828.6499 2706.8737 2796.9601 2803.8972 Z" fill="none" stroke="#FBC20F" opacity="0.6" stroke-width="1" class="little_italy"/>
<path d="M 2802.9722 2722.5454 2821.2486 2731.9929 2798.3482 2801.1315 2781.9215 2794.218 2802.9722 2722.5454 Z" fill="none" stroke="#FBC20F" opacity="0.6" stroke-width="1" class="little_italy"/>
<path d="M 2794.1842 2819.1083 2777.873 2811.6183 2796.7274 2762.7596 2813.1537 2771.8621 2794.1842 2819.1083 Z" fill="none" stroke="#FBC20F" opacity="0.6" stroke-width="1" class="little_italy"/>
<path d="M 2773.0144 2807.3547 2778.6825 2794.9094 2786.2013 2778.7769 2794.1825 2762.6445 2808.1795 2769.5577 2801.0085 2792.7194 2789.5569 2817.7256 2780.9964 2813.8078 2773.0144 2807.3547 Z" fill="none" stroke="#FBC20F" opacity="0.6" stroke-width="1" class="little_italy"/>
<path d="M 2814.7695 2701.3439 2844.497 2714.362 2830.7357 2760.799 2828.4226 2767.0215 2828.6542 2771.6307 2816.5101 2806.3163 2807.835 2825.4457 2788.8628 2816.5732 2777.2946 2811.1574 2759.9426 2794.1029 2789.4395 2749.0477 2796.0326 2738.9076 2801.9312 2721.5085 2814.7695 2701.3439 Z" fill="none" stroke="#FBC20F" opacity="0.6" stroke-width="1" class="little_italy"/>
<path d="M 2790.7122 2761.0314 2825.8785 2779.2361 2807.6036 2826.2524 2765.0324 2800.6712 2790.7122 2761.0314 Z" fill="none" stroke="#FBC20F" opacity="0.6" stroke-width="1" class="little_italy"/>
<path d="M 2815.4635 2702.0352 2843.9188 2715.1686 2819.6328 2794.2166 2807.1408 2823.7172 2778.2201 2811.0422 2766.4206 2798.8275 2790.7122 2759.6487 2803.4347 2718.6278 2815.4635 2702.0352 Z" fill="none" stroke="#FBC20F" opacity="0.6" stroke-width="1" class="little_italy"/>
<path d="M 2764.3383 2826.0229 2753.2329 2821.4133 2764.107 2804.1282 2769.4282 2794.4486 2772.4359 2791.4525 2777.9885 2795.1399 2786.317 2777.855 2799.5043 2783.6162 2803.2061 2785.4598 2796.7287 2803.4363 2793.0272 2811.2723 2790.4823 2815.4208 2764.3383 2826.0229 Z" fill="none" stroke="#FBC20F" opacity="0.6" stroke-width="1" class="little_italy"/>
<path d="M 2807.4879 2825.6762 2771.3949 2810.3508 2762.2561 2806.4329 2765.8422 2800.556 2790.3652 2760.9162 2801.0059 2723.3521 2803.5505 2720.2409 2798.1139 2717.4758 2818.2386 2685.0977 2825.1788 2689.706 2849.238 2697.6544 2845.7692 2711.7118 2830.042 2767.0214 2821.5993 2793.8708 2814.8908 2810.9257 2807.4879 2825.6762 Z" fill="none" stroke="#FBC20F" opacity="0.6" stroke-width="1" class="little_italy"/>
<path d="M 2765.9579 2801.5931 2764.107 2800.2103 2795.8012 2739.8294 2822.1752 2752.2727 2798.1175 2821.1824 2765.9579 2801.5931 Z" fill="none" stroke="#FBC20F" opacity="0.6" stroke-width="1" class="little_italy"/>
<path d="M 2808.0662 2823.0258 2715.9853 2782.9241 2743.749 2733.6075 2753.4654 2730.8423 2826.1093 2771.4004 2808.0662 2823.0258 Z" fill="none" stroke="#FBC20F" opacity="0.6" stroke-width="1" class="little_italy"/>
<path d="M 2814.7694 2700.4222 2835.8216 2710.2147 2816.1614 2774.1665 2797.6548 2822.1043 2761.0993 2805.7415 2795.5699 2740.5208 2814.3066 2697.196 2818.9334 2699.5002 2796.6109 2739.8294 2814.7694 2700.4222 Z" fill="none" stroke="#FBC20F" opacity="0.6" stroke-width="1" class="little_italy"/>
<path d="M 2816.6201 2700.6525 2836.0529 2710.2147 2798.8116 2822.1042 2770.3538 2809.6594 2815.8105 2702.3809 2816.6201 2700.6525 Z" fill="none" stroke="#FBC20F" opacity="0.6" stroke-width="1" class="little_italy"/>
<path d="M 2789.2319 2817.2658 2773.366 2805.9615 2793.972 2762.081 2797.7176 2764.495 2800.5814 2754.3985 2804.5462 2744.1927 2808.4017 2746.4971 2807.5208 2758.4589 2808.8435 2770.6397 2791.881 2817.6817 2789.2319 2817.2658 Z" fill="none" stroke="#FBC20F" opacity="0.6" stroke-width="1" class="little_italy"/>
<path d="M 2777.1003 2811.3326 2797.7982 2753.3524 2806.3212 2756.0207 2799.9923 2779.0668 2805.1053 2780.7652 2802.1836 2789.4998 2796.8253 2786.8312 2785.3808 2815.4578 2777.1003 2811.3326 Z" fill="none" stroke="#FBC20F" opacity="0.6" stroke-width="1" class="little_italy"/>
<path d="M 2779.8396 2811.0421 2800.4287 2754.5783 2805.7498 2757.8045 2783.0787 2814.4991 2779.8396 2813.5773 2779.8396 2811.964 2779.8396 2811.0421 Z" fill="none" stroke="#FBC20F" opacity="0.6" stroke-width="1" class="little_italy"/>
<path d="M 2798.3386 2525.3027 2864.9542 2560.3195 2842.7545 2622.9948 2798.3444 2693.0487 2732.6473 2652.492 2798.3386 2525.3027 Z" fill="none" stroke="#FBC20F" opacity="0.6" stroke-width="1" class="little_italy"/>
<path d="M 2573.5449 2418.3841 3088.8508 2554.7396 2988.0626 2800.8754 2522.649 2486.5656 2573.5449 2418.3841 Z" fill="none" stroke="#FBC20F" opacity="0.6" stroke-width="1" class="little_italy"/>
<path d="M 2831.6609 2758.7248 2807.6035 2823.4867 2767.8088 2801.3626 2766.652 2800.4407 2796.0326 2739.599 2831.6609 2758.7248 Z" fill="none" stroke="#FBC20F" opacity="0.6" stroke-width="1" class="little_italy"/>
<path d="M 2745.0204 2779.6987 2761.6778 2796.4076 2777.7573 2811.5031 2736.1129 2790.8759 2745.0204 2779.6987 Z" fill="none" stroke="#FBC20F" opacity="0.6" stroke-width="1" class="little_italy"/>
<path d="M 2814.4217 2686.1348 2834.1993 2669.7726 2852.5908 2681.0625 2848.4284 2698.0002 2814.4217 2686.1348 Z" fill="none" stroke="#FBC20F" opacity="0.6" stroke-width="1" class="little_italy"/>
<path d="M 2780.9964 2813.3468 2780.418 2813.2316 2773.0144 2806.7785 2794.2982 2762.2988 2808.9892 2769.9034 2789.2099 2817.3799 2780.9964 2813.3468 Z" fill="none" stroke="#FBC20F" opacity="0.6" stroke-width="1" class="little_italy"/>
<path d="M 2781.6905 2812.8859 2798.5784 2768.6363 2820.7841 2700.8827 2836.5153 2706.1818 2825.1822 2744.4371 2797.8861 2820.9519 2781.6905 2812.8859 Z" fill="none" stroke="#FBC20F" opacity="0.6" stroke-width="1" class="little_italy"/>
<path d="M 2843.2246 2713.786 2822.8715 2789.8376 2819.1699 2790.2987 2781.6899 2776.0114 2815.4636 2704.5701 2845.5416 2756.1888 2850.6287 2727.6122 2852.4797 2730.3774 2909.8526 2731.7531 2843.2246 2713.786 Z" fill="none" stroke="#FBC20F" opacity="0.6" stroke-width="1" class="little_italy"/>
<path d="M 2847.389 2717.0119 2833.5125 2769.5562 2790.9434 2753.8872 2802.9719 2714.2493 2822.4038 2705.9524 2847.389 2717.0119 Z" fill="none" stroke="#FBC20F" opacity="0.6" stroke-width="1" class="little_italy"/>
<path d="M 2793.2571 2762.875 2825.8785 2779.4666 2807.3722 2823.9477 2771.9733 2809.1985 2793.2571 2762.875 Z" fill="none" stroke="#FBC20F" opacity="0.6" stroke-width="1" class="little_italy"/>
<path d="M 2772.8987 2806.8938 2799.2714 2740.2902 2804.5924 2741.9032 2813.6138 2721.1623 2831.428 2736.1404 2814.7739 2787.5334 2805.5196 2785.2292 2797.6535 2782.6944 2782.616 2813.5773 2774.2869 2810.3508 2772.8987 2806.8938 Z" fill="none" stroke="#FBC20F" opacity="0.6" stroke-width="1" class="little_italy"/>
<path d="M 2752.0764 2799.0578 2881.6113 2588.8887 2864.0438 2702.2618 2752.0764 2799.0578 Z" fill="none" stroke="#FBC20F" opacity="0.6" stroke-width="1" class="little_italy"/>
<path d="M 2826.5726 2779.236 2808.9918 2825.9066 2767.4617 2798.7122 2791.9846 2759.9943 2794.7606 2752.5044 2790.2492 2749.0477 2823.5594 2688.6692 2824.369 2687.2865 2826.104 2688.7842 2820.09 2699.3849 2830.0377 2703.9931 2833.8538 2690.3968 2842.2977 2694.7745 2837.0939 2710.5602 2844.844 2713.5554 2826.5726 2779.236 Z" fill="none" stroke="#FBC20F" opacity="0.6" stroke-width="1" class="little_italy"/>
<path d="M 2780.8807 2813.1163 2787.7056 2798.4815 2794.5302 2782.1183 2799.1566 2765.4098 2808.0638 2769.5577 2801.7025 2791.2214 2789.5569 2817.1494 2780.8807 2813.1163 Z" fill="none" stroke="#FBC20F" opacity="0.6" stroke-width="1" class="little_italy"/>
<path d="M 2775.2117 2747.4348 2765.9578 2717.0154 2805.7476 2705.9532 2814.078 2750.1991 2804.8242 2752.0431 2788.1672 2754.8091 2775.2117 2747.4348 Z" fill="none" stroke="#FBC20F" opacity="0.6" stroke-width="1" class="little_italy"/>
<path d="M 2796.2647 2764.2576 2803.8994 2767.0229 2785.8551 2814.7295 2777.2946 2811.5031 2796.2647 2764.2576 Z" fill="none" stroke="#FBC20F" opacity="0.6" stroke-width="1" class="little_italy"/>
<path d="M 2782.9629 2809.0831 2780.9964 2811.8488 2780.418 2811.3878 2784.1197 2805.7413 2788.1682 2796.5225 2793.2578 2785.4601 2796.1495 2777.1634 2799.1567 2766.2164 2800.6604 2765.8707 2795.5713 2783.0402 2788.5153 2799.0576 2781.3434 2811.7335 2782.9629 2809.0831 Z" fill="none" stroke="#FBC20F" opacity="0.6" stroke-width="1" class="little_italy"/>
<path d="M 2797.8838 2753.6566 2810.8396 2760.1088 2802.2808 2790.0691 2795.5719 2802.284 2778.4512 2794.4485 2784.4662 2780.1597 2797.8838 2753.6566 Z" fill="none" stroke="#FBC20F" opacity="0.6" stroke-width="1" class="little_italy"/>
<path d="M 2821.0208 2792.1423 2758.3233 2761.7231 2799.7325 2696.7357 2842.9934 2714.7078 2821.0208 2792.1423 Z" fill="none" stroke="#FBC20F" opacity="0.6" stroke-width="1" class="little_italy"/>
<path d="M 2777.4774 2810.9338 2798.4206 2753.9239 2808.6486 2758.5326 2784.5409 2815.0568 2777.4774 2810.9338 Z" fill="none" stroke="#FBC20F" opacity="0.6" stroke-width="1" class="little_italy"/>
<path d="M 2781.8055 2775.6657 2820.5582 2794.447 2797.0773 2848.7242 2780.4188 2863.821 2742.2426 2840.4272 2781.4585 2776.1267 2741.5485 2841.0034 2781.8055 2775.6657 Z" fill="none" stroke="#FBC20F" opacity="0.6" stroke-width="1" class="little_italy"/>
<path d="M 2801.6629 2697.098 2843.6774 2714.1332 2807.5052 2824.5892 2747.6884 2780.7884 2801.4531 2698.2801 2801.6629 2697.098 Z" fill="none" stroke="#FBC20F" opacity="0.6" stroke-width="1" class="little_italy"/>
<path d="M 2801.8156 2723.9282 2818.0098 2730.38 2802.9747 2785.2293 2787.7051 2778.5464 2801.8156 2723.9282 Z" fill="none" stroke="#FBC20F" opacity="0.6" stroke-width="1" class="little_italy"/>
<path d="M 2794.9449 2782.4927 2800.1922 2766.9209 2816.6241 2775.5493 2798.8707 2820.8552 2781.5748 2813.3468 2794.9449 2782.4927 Z" fill="none" stroke="#FBC20F" opacity="0.6" stroke-width="1" class="little_italy"/>
<path d="M 2802.973 2742.3641 2809.5703 2827.2894 2774.9813 2846.5351 2802.973 2742.3641 Z" fill="none" stroke="#FBC20F" opacity="0.6" stroke-width="1" class="little_italy"/>
<path d="M 2772.2643 2806.3042 2788.7085 2777.3876 2796.8053 2761.2552 2801.432 2755.2632 2810.4366 2760.9021 2804.1914 2789.7099 2787.9971 2818.2884 2779.4366 2814.8315 2772.2643 2806.3042 Z" fill="none" stroke="#FBC20F" opacity="0.6" stroke-width="1" class="little_italy"/>
<path d="M 2773.0144 2806.4328 2793.8355 2761.9531 2790.4809 2759.7639 2793.6038 2751.4674 2830.1578 2767.9433 2807.0252 2826.2524 2777.526 2811.964 2773.0144 2806.4328 Z" fill="none" stroke="#FBC20F" opacity="0.6" stroke-width="1" class="little_italy"/>
<path d="M 2794.1825 2762.1836 2799.9664 2765.1793 2802.2795 2755.7305 2811.3023 2759.8783 2803.4374 2785.4597 2796.4973 2802.2839 2789.5569 2817.0342 2778.6828 2811.964 2772.2046 2806.6633 2782.8468 2785.6908 2785.3915 2777.1637 2787.011 2777.855 2794.1825 2762.1836 Z" fill="none" stroke="#FBC20F" opacity="0.6" stroke-width="1" class="little_italy"/>
<path d="M 2789.3239 2749.9696 2829.1167 2767.7129 2807.1408 2823.9477 2753.0018 2801.132 2789.3239 2749.9696 Z" fill="none" stroke="#FBC20F" opacity="0.6" stroke-width="1" class="little_italy"/></svg>