<?xml version="1.0"?><svg xmlns="http://www.w3.org/2000/svg" version="1.2" baseProfile="tiny" width="6000" height="5918" viewBox="0 0 6000 5918" stroke-linecap="round" stroke-linejoin="round"><path d="M 1495.3834 3901.7214 1607.5832 3827.1106 1615.7484 3969.252 1504.5488 3976.4943 1497.2698 3876.805 1495.3834 3901.7214 Z" fill="none" stroke="#865327" opacity="0.6" stroke-width="1" class="livingston"/>
<path d="M 1601.4164 3830.4678 1608.3478 3844.3194 1614.3698 3844.3268 1625.8599 3919.5583 1652.2731 3913.5906 1655.4959 3930.6691 1653.6233 3947.2803 1687.8897 3961.6263 1696.6191 4026.2479 1679.0109 4028.0739 1511.2422 4063.4046 1500.2314 3981.6999 1490.6154 3897.6965 1601.4164 3830.4678 Z" fill="none" stroke="#865327" opacity="0.6" stroke-width="1" class="livingston"/>
<path d="M 1557.6216 3846.3325 1611.8398 3829.7885 1627.2497 3919.56 1570.7102 3936.1035 1557.6216 3846.3325 Z" fill="none" stroke="#865327" opacity="0.6" stroke-width="1" class="livingston"/>
<path d="M 1570.9875 3838.7357 1604.3502 3830.5483 1608.5014 3845.0886 1615.6809 3845.5588 1628.3298 3920.3303 1583.9164 3933.8127 1570.9875 3838.7357 Z" fill="none" stroke="#865327" opacity="0.6" stroke-width="1" class="livingston"/>
<path d="M 1592.1494 3832.5328 1690.1154 3837.7251 1693.9794 3902.5635 1606.6273 3925.3034 1592.1494 3832.5328 Z" fill="none" stroke="#865327" opacity="0.6" stroke-width="1" class="livingston"/>
<path d="M 1702.8522 3839.4699 1708.5738 3900.9648 1693.6311 3903.2553 1686.7975 3903.709 1633.8501 3920.4909 1611.1458 3923.9245 1605.3512 3927.0324 1591.7961 3930.5921 1583.2214 3933.9272 1569.8982 3937.1408 1554.8499 3840.3302 1579.6522 3824.6729 1608.2566 3824.2469 1644.5075 3820.9452 1678.3135 3828.7137 1702.8522 3839.4699 Z" fill="none" stroke="#865327" opacity="0.6" stroke-width="1" class="livingston"/>
<path d="M 1574.0392 3867.8105 1614.8302 3846.6346 1627.0169 3920.4827 1569.3181 3937.9477 1574.0392 3867.8105 Z" fill="none" stroke="#865327" opacity="0.6" stroke-width="1" class="livingston"/></svg>