<?xml version="1.0"?><svg xmlns="http://www.w3.org/2000/svg" version="1.2" baseProfile="tiny" width="6000" height="5918" viewBox="0 0 6000 5918" stroke-linecap="round" stroke-linejoin="round"><path d="M 4633.1362 1687.0094 4659.7537 1823.2433 4551.1431 1831.7435 4633.1362 1687.0094 Z" fill="none" stroke="#012394" opacity="0.6" stroke-width="1" class="malba"/>
<path d="M 4560.268 1768.6444 4591.9993 1685.2484 4622.4655 1666.3129 4633.1226 1680.1035 4675.3505 1764.2746 4676.8164 1803.4093 4652.4002 1844.4395 4637.1798 1861.5075 4588.6373 1858.8397 4554.8621 1842.7877 4560.268 1768.6444 Z" fill="none" stroke="#012394" opacity="0.6" stroke-width="1" class="malba"/>
<path d="M 4658.3004 1790.0936 4624.1322 1808.5795 4575.1462 1814.2002 4575.1109 1795.7821 4563.0632 1780.1501 4591.678 1757.9942 4614.7378 1732.1655 4599.8616 1687.9955 4630.3596 1685.1733 4652.6138 1720.1197 4669.3473 1767.0493 4658.3004 1790.0936 Z" fill="none" stroke="#012394" opacity="0.6" stroke-width="1" class="malba"/>
<path d="M 4587.3719 1801.9746 4565.1204 1768.1747 4612.4457 1741.8388 4605.1694 1684.302 4632.4316 1681.2559 4664.4566 1748.4117 4662.4151 1767.5237 4664.7651 1786.8574 4587.3719 1801.9746 Z" fill="none" stroke="#012394" opacity="0.6" stroke-width="1" class="malba"/>
<path d="M 4582.5633 1825.237 4617.4206 1686.1196 4666.6743 1816.783 4582.5633 1825.237 Z" fill="none" stroke="#012394" opacity="0.6" stroke-width="1" class="malba"/>
<path d="M 4656.5203 1824.401 4586.7341 1830.7545 4581.826 1802.4458 4566.5501 1790.7336 4601.9324 1683.3875 4632.8942 1681.4852 4658.1827 1731.3888 4664.9253 1751.6338 4665.6779 1781.1001 4656.5203 1824.401 Z" fill="none" stroke="#012394" opacity="0.6" stroke-width="1" class="malba"/></svg>