<?xml version="1.0"?><svg xmlns="http://www.w3.org/2000/svg" version="1.2" baseProfile="tiny" width="6000" height="5918" viewBox="0 0 6000 5918" stroke-linecap="round" stroke-linejoin="round"><path d="M 3263.9319 4727.5766 3505.9576 4720.0283 3532.0018 4817.9276 3279.7596 4843.9656 3263.9319 4727.5766 Z" fill="none" stroke="#E71E24" opacity="0.6" stroke-width="1" class="manhattan_beach"/>
<path d="M 3270.4823 4838.4276 3265.7826 4720.1858 3497.6196 4730.1959 3520.8677 4811.4698 3270.4823 4838.4276 Z" fill="none" stroke="#E71E24" opacity="0.6" stroke-width="1" class="manhattan_beach"/>
<path d="M 3492.5289 4742.6703 3505.5676 4814.2534 3277.901 4837.0378 3259.7608 4731.2737 3492.5289 4742.6703 Z" fill="none" stroke="#E71E24" opacity="0.6" stroke-width="1" class="manhattan_beach"/>
<path d="M 3493.9167 4738.5124 3513.9136 4813.323 3202.7814 4842.1566 3196.2376 4728.5335 3493.9167 4738.5124 Z" fill="none" stroke="#E71E24" opacity="0.6" stroke-width="1" class="manhattan_beach"/>
<path d="M 3269.4978 4731.2686 3495.7742 4742.2059 3514.4073 4851.1998 3298.3151 4855.9654 3225.9695 4846.7649 3152.6991 4840.3307 3107.2504 4828.3384 3078.4872 4788.6244 3065.4892 4742.4401 3043.2203 4699.0318 3032.0881 4682.4084 3036.7163 4653.7732 3036.7089 4627.911 3033.902 4539.2468 3046.8578 4457.974 3208.1762 4479.1524 3314.8028 4500.3371 3289.8457 4635.1937 3269.4978 4731.2686 Z" fill="none" stroke="#E71E24" opacity="0.6" stroke-width="1" class="manhattan_beach"/>
<path d="M 3267.6431 4731.2696 3494.8441 4738.5117 3506.9609 4817.0237 3280.6795 4830.1075 2885.6028 4879.2045 2873.5328 4766.4992 2985.7228 4676.8782 3267.6431 4731.2696 Z" fill="none" stroke="#E71E24" opacity="0.6" stroke-width="1" class="manhattan_beach"/>
<path d="M 2827.0846 3536.834 3168.3097 4474.5527 3012.613 4674.1005 2663.9724 4548.515 2315.4348 4400.6552 2278.5296 4060.8802 2760.4015 3499.9335 2827.0846 3536.834 Z" fill="none" stroke="#E71E24" opacity="0.6" stroke-width="1" class="manhattan_beach"/>
<path d="M 3281.6097 4835.1881 3267.6451 4734.9645 3498.5563 4742.2038 3513.4521 4816.0948 3281.6097 4835.1881 Z" fill="none" stroke="#E71E24" opacity="0.6" stroke-width="1" class="manhattan_beach"/>
<path d="M 3264.8626 4734.0422 3265.7875 4729.4231 3261.1494 4726.6543 3506.9023 4742.1973 3521.8054 4824.4026 3280.6855 4841.1936 3264.8626 4734.0422 Z" fill="none" stroke="#E71E24" opacity="0.6" stroke-width="1" class="manhattan_beach"/>
<path d="M 3264.6292 4731.0402 3308.674 4725.4736 3385.8866 4745.2865 3496.0054 4741.282 3509.9706 4811.4785 3506.2664 4818.41 3385.009 4821.2686 3365.0671 4817.3552 3362.2876 4821.7451 3350.4625 4820.8287 3344.9018 4827.0679 3289.493 4835.4147 3279.2906 4834.2655 3264.6292 4731.0402 Z" fill="none" stroke="#E71E24" opacity="0.6" stroke-width="1" class="manhattan_beach"/>
<path d="M 3509.7424 4816.0977 3104.4807 4863.4456 3093.3129 4752.5922 3274.1279 4719.2576 3489.2808 4739.4397 3509.7424 4816.0977 Z" fill="none" stroke="#E71E24" opacity="0.6" stroke-width="1" class="manhattan_beach"/>
<path d="M 3494.8455 4740.3592 3511.5958 4814.2486 3279.7551 4835.651 3261.1479 4723.8831 3494.8455 4740.3592 Z" fill="none" stroke="#E71E24" opacity="0.6" stroke-width="1" class="manhattan_beach"/>
<path d="M 3512.5261 4817.9432 3289.0263 4830.1029 3285.3217 4839.3434 3262.0787 4730.3488 3492.9894 4738.5131 3512.5261 4817.9432 Z" fill="none" stroke="#E71E24" opacity="0.6" stroke-width="1" class="manhattan_beach"/>
<path d="M 3280.6833 4837.0363 3264.63 4732.6568 3265.7841 4722.9569 3491.1305 4732.9721 3510.2058 4815.6355 3280.6833 4837.0363 Z" fill="none" stroke="#E71E24" opacity="0.6" stroke-width="1" class="manhattan_beach"/>
<path d="M 3257.4444 4734.9699 3271.3465 4720.1828 3316.7823 4715.5388 3385.4089 4723.8099 3492.0514 4724.6577 3513.4659 4833.6475 3276.9848 4857.8249 3257.4444 4734.9699 Z" fill="none" stroke="#E71E24" opacity="0.6" stroke-width="1" class="manhattan_beach"/>
<path d="M 3263.934 4731.7334 3264.3965 4729.4238 3493.9185 4740.8217 3506.495 4814.2527 3278.3639 4835.6518 3263.934 4731.7334 Z" fill="none" stroke="#E71E24" opacity="0.6" stroke-width="1" class="manhattan_beach"/>
<path d="M 3500.4389 4778.2292 3270.9181 4786.2317 3277.8557 4753.434 3296.3954 4740.4913 3476.3112 4757.0008 3476.2946 4734.8308 3500.4389 4778.2292 Z" fill="none" stroke="#E71E24" opacity="0.6" stroke-width="1" class="manhattan_beach"/>
<path d="M 3498.5548 4740.3563 3188.8897 4886.5085 2738.1319 4975.3001 2602.7256 4868.1116 2784.5053 4725.8602 3188.8037 4694.3593 3498.5548 4740.3563 Z" fill="none" stroke="#E71E24" opacity="0.6" stroke-width="1" class="manhattan_beach"/>
<path d="M 3492.0649 4742.2088 3504.1729 4809.6354 3279.7526 4831.0319 3263.9323 4728.5003 3492.0649 4742.2088 Z" fill="none" stroke="#E71E24" opacity="0.6" stroke-width="1" class="manhattan_beach"/>
<path d="M 3496.7009 4741.2815 3510.6698 4816.097 3086.8566 4856.0608 3113.7115 4744.2711 3262.9953 4710.0263 3496.7009 4741.2815 Z" fill="none" stroke="#E71E24" opacity="0.6" stroke-width="1" class="manhattan_beach"/>
<path d="M 3257.4459 4737.7411 3275.9906 4734.0363 3311.2248 4726.6268 3492.0642 4741.285 3510.6706 4817.0208 3280.682 4834.7267 3257.4459 4737.7411 Z" fill="none" stroke="#E71E24" opacity="0.6" stroke-width="1" class="manhattan_beach"/>
<path d="M 3267.699 4836.5814 3253.5009 4730.3532 3248.3985 4726.199 3492.2955 4740.5921 3505.8 4814.9461 3267.699 4836.5814 Z" fill="none" stroke="#E71E24" opacity="0.6" stroke-width="1" class="manhattan_beach"/>
<path d="M 3266.7168 4733.1175 3493.9196 4742.2074 3510.6706 4817.0208 3270.4798 4833.8084 3263.9304 4724.8054 3341.8259 4725.6849 3496.6987 4738.5102 3262.0724 4718.3403 3266.7168 4733.1175 Z" fill="none" stroke="#E71E24" opacity="0.6" stroke-width="1" class="manhattan_beach"/>
<path d="M 3267.6441 4733.117 3493.921 4744.0549 3508.8092 4808.7079 3282.5338 4829.1827 3267.6441 4733.117 Z" fill="none" stroke="#E71E24" opacity="0.6" stroke-width="1" class="manhattan_beach"/>
<path d="M 3494.8455 4740.3592 3509.7424 4816.0977 2740.9166 4898.6135 2732.5702 4869.9728 2684.344 4847.7972 2637.0461 4835.782 2624.9962 4790.5133 2634.2746 4758.1824 2695.4826 4722.1629 2771.5228 4742.4877 2791.9257 4792.371 2921.7558 4767.4163 2921.7508 4736.9323 2945.8569 4712.911 2980.1763 4752.6246 3009.8517 4753.5412 3039.517 4719.3546 3140.5857 4697.1508 3172.1121 4693.443 3208.2877 4717.4432 3263.9328 4729.424 3313.0784 4724.7782 3386.3459 4738.5891 3494.8455 4740.3592 Z" fill="none" stroke="#E71E24" opacity="0.6" stroke-width="1" class="manhattan_beach"/>
<path d="M 3506.9566 4811.4808 3202.7793 4837.5374 3199.0196 4728.5323 3492.9922 4742.2081 3506.9566 4811.4808 Z" fill="none" stroke="#E71E24" opacity="0.6" stroke-width="1" class="manhattan_beach"/>
<path d="M 3264.6291 4730.8093 3493.9199 4742.6692 3505.5682 4814.9462 3281.84 4832.4165 3264.6291 4730.8093 Z" fill="none" stroke="#E71E24" opacity="0.6" stroke-width="1" class="manhattan_beach"/>
<path d="M 3280.6833 4837.0363 3264.8616 4732.1948 3304.2694 4725.707 3384.9594 4745.5181 3491.6016 4742.671 3509.2769 4813.7886 3280.6833 4837.0363 Z" fill="none" stroke="#E71E24" opacity="0.6" stroke-width="1" class="manhattan_beach"/>
<path d="M 3279.7556 4836.5749 3266.7163 4732.1938 3309.3691 4724.7804 3492.0628 4739.4375 3506.9587 4814.2523 3279.7556 4836.5749 Z" fill="none" stroke="#E71E24" opacity="0.6" stroke-width="1" class="manhattan_beach"/>
<path d="M 3263.936 4735.4283 3305.6564 4718.7783 3493.9071 4726.0419 3511.1328 4815.1728 3278.3649 4837.4995 3263.936 4735.4283 Z" fill="none" stroke="#E71E24" opacity="0.6" stroke-width="1" class="manhattan_beach"/>
<path d="M 3279.7506 4827.3365 3267.6465 4737.7357 3275.0627 4733.1131 3498.5606 4747.7463 3519.0202 4820.7095 3279.7506 4827.3365 Z" fill="none" stroke="#E71E24" opacity="0.6" stroke-width="1" class="manhattan_beach"/>
<path d="M 2701.9739 4721.2396 2750.1942 4734.1739 2791.924 4730.4787 2794.7063 4743.411 2855.9126 4762.806 2868.8951 4758.1859 2889.2988 4772.9637 2898.5714 4764.6485 2905.0622 4760.0287 2906.9155 4750.7909 2914.3318 4735.086 2925.4576 4722.1519 2942.1475 4711.988 2950.494 4715.6813 2957.9151 4728.612 2970.9007 4742.4654 2983.8864 4755.395 2995.0146 4755.3924 3012.6323 4747.9979 3039.5176 4721.202 3085.8784 4706.408 3175.8217 4694.3651 3211.0683 4714.6708 3227.7608 4716.5102 3269.4884 4713.7177 3276.9109 4721.1035 3292.6743 4719.2474 3323.279 4724.7723 3387.2665 4728.4273 3449.4 4732.0794 3498.5498 4733.8901 3507.8644 4786.5375 3517.1632 4817.9395 3495.8355 4821.6515 3468.0131 4821.6726 3399.3849 4822.6448 3350.2346 4827.2956 3314.0668 4830.0888 3259.356 4843.9765 3172.1792 4849.561 3064.6021 4869.9261 2962.5831 4879.1916 2833.6656 4895.8396 2769.6688 4896.766 2740.9165 4901.3852 2737.2068 4892.1461 2732.57 4874.5921 2706.6021 4856.1136 2651.8834 4848.7177 2631.4826 4828.3906 2619.4332 4782.1984 2642.6229 4741.5559 2701.9739 4721.2396 Z" fill="none" stroke="#E71E24" opacity="0.6" stroke-width="1" class="manhattan_beach"/>
<path d="M 3264.8614 4731.7329 3265.788 4730.3468 3493.4534 4738.9746 3511.5969 4815.6344 3279.7548 4835.1891 3264.8614 4731.7329 Z" fill="none" stroke="#E71E24" opacity="0.6" stroke-width="1" class="manhattan_beach"/>
<path d="M 3275.0602 4728.4944 3498.5505 4734.8138 3505.0909 4797.6252 3477.2719 4801.3417 3346.5142 4809.7453 3290.8791 4826.4066 3275.0602 4728.4944 Z" fill="none" stroke="#E71E24" opacity="0.6" stroke-width="1" class="manhattan_beach"/>
<path d="M 3493.9167 4738.5124 3510.4318 4808.2448 3505.5693 4816.332 3283.697 4836.3418 3281.3786 4836.574 3266.0182 4727.3445 3300.3268 4723.169 3304.0366 4724.0906 3310.2958 4723.6252 3493.9167 4738.5124 Z" fill="none" stroke="#E71E24" opacity="0.6" stroke-width="1" class="manhattan_beach"/>
<path d="M 3274.9067 4730.9581 3281.8619 4731.4162 3294.3801 4730.0237 3330.545 4728.6171 3356.4393 4738.6082 3376.1476 4742.2907 3400.7225 4742.9673 3425.6836 4743.1043 3445.7767 4744.3218 3445.3372 4778.0396 3393.9495 4784.6186 3354.5374 4787.0305 3331.5105 4792.5873 3296.1946 4796.5339 3289.01 4801.3879 3276.4895 4800.24 3272.5364 4778.533 3270.2113 4766.0632 3266.0219 4735.1196 3271.8168 4733.5 3274.9067 4730.9581 Z" fill="none" stroke="#E71E24" opacity="0.6" stroke-width="1" class="manhattan_beach"/>
<path d="M 2626.855 4762.8002 3842.9265 4215.4832 3175.8481 4755.3313 2945.8819 4844.0881 2730.7162 4844.1047 2626.855 4762.8002 Z" fill="none" stroke="#E71E24" opacity="0.6" stroke-width="1" class="manhattan_beach"/>
<path d="M 3595.1047 4862.2189 2537.0206 4975.2987 2525.9599 4698.1443 3156.5039 4657.4517 3490.3299 4675.7284 3595.1047 4862.2189 Z" fill="none" stroke="#E71E24" opacity="0.6" stroke-width="1" class="manhattan_beach"/></svg>