<?xml version="1.0"?><svg xmlns="http://www.w3.org/2000/svg" version="1.2" baseProfile="tiny" width="6000" height="5918" viewBox="0 0 6000 5918" stroke-linecap="round" stroke-linejoin="round"><path d="M 3702.8083 552.8157 3724.0239 534.4007 3748.6204 549.5501 3749.444 564.7242 3729.0366 583.7143 3707.0984 573.0448 3702.8083 552.8157 Z" fill="none" stroke="#E71E24" opacity="0.6" stroke-width="1" class="marble_hill"/>
<path d="M 3631.4881 552.4241 3666.9885 506.4074 3721.4533 503.135 3776.3789 499.3991 3800.4003 516.3865 3803.6629 544.8926 3788.012 585.3767 3776.4939 606.5429 3757.5839 623.1186 3746.4957 614.8524 3731.241 595.0937 3717.8415 583.1509 3631.4881 552.4241 Z" fill="none" stroke="#E71E24" opacity="0.6" stroke-width="1" class="marble_hill"/>
<path d="M 3683.203 566.6305 3735.3115 513.2369 3771.3603 554.5844 3772.7678 575.736 3767.2556 601.4942 3747.4338 629.1076 3727.0783 587.2803 3683.203 566.6305 Z" fill="none" stroke="#E71E24" opacity="0.6" stroke-width="1" class="marble_hill"/>
<path d="M 3674.2299 365.6269 3747.1595 373.8294 3684.4526 436.4219 3641.9779 424.5079 3674.2299 365.6269 Z" fill="none" stroke="#E71E24" opacity="0.6" stroke-width="1" class="marble_hill"/>
<path d="M 3726.3873 588.6606 3663.8113 562.9703 3726.2956 498.7617 3769.7397 549.9877 3726.3873 588.6606 Z" fill="none" stroke="#E71E24" opacity="0.6" stroke-width="1" class="marble_hill"/>
<path d="M 3727.9598 546.3525 3759.5648 531.6049 3769.2747 546.7693 3758.6416 531.6058 3770.9198 574.3585 3767.6899 575.7415 3743.6604 551.8545 3735.3513 551.8631 3727.9598 546.3525 Z" fill="none" stroke="#E71E24" opacity="0.6" stroke-width="1" class="marble_hill"/>
<path d="M 3678.8635 566.4351 3721.2107 533.3128 3734.2379 530.3474 3741.5108 546.1785 3749.6622 554.4335 3743.6358 575.2903 3728.5523 592.2462 3678.8635 566.4351 Z" fill="none" stroke="#E71E24" opacity="0.6" stroke-width="1" class="marble_hill"/>
<path d="M 3729.8467 585.8979 3688.2808 566.6255 3711.3297 534.4135 3737.1541 509.5564 3765.8141 548.1525 3729.8467 585.8979 Z" fill="none" stroke="#E71E24" opacity="0.6" stroke-width="1" class="marble_hill"/>
<path d="M 3685.0427 559.7309 3715.4856 535.7889 3696.0898 527.5312 3731.1416 498.0671 3743.5907 484.7196 3775.4882 529.7486 3753.4262 620.3637 3685.0427 559.7309 Z" fill="none" stroke="#E71E24" opacity="0.6" stroke-width="1" class="marble_hill"/>
<path d="M 3682.0502 567.8962 3726.0947 528.0759 3738.563 532.8913 3744.2209 535.9894 3752.1881 540.2346 3759.4689 550.1135 3762.824 558.0423 3767.9206 575.6263 3766.659 583.1003 3768.8666 597.0088 3765.0703 608.5096 3751.8168 626.4587 3748.8159 626.3469 3743.3723 607.8425 3731.1228 592.3346 3719.9194 583.7236 3704.5633 576.8412 3694.6349 573.4021 3682.0502 567.8962 Z" fill="none" stroke="#E71E24" opacity="0.6" stroke-width="1" class="marble_hill"/>
<path d="M 3698.6676 566.8452 3725.6386 533.4794 3755.2073 558.0503 3726.6152 585.7862 3698.6676 566.8452 Z" fill="none" stroke="#E71E24" opacity="0.6" stroke-width="1" class="marble_hill"/>
<path d="M 3597.5259 479.1254 3656.5523 460.7557 3707.2731 482.91 3742.4971 494.6465 3762.5867 504.5116 3776.1389 524.567 3779.6441 539.2287 3780.5929 562.9097 3775.9881 573.6051 3775.3215 584.9569 3767.7307 609.5679 3766.9819 619.7327 3766.9385 624.7433 3758.4065 637.2412 3756.7744 642.6436 3755.6021 645.1535 3754.2188 646.7646 3597.5259 479.1254 Z" fill="none" stroke="#E71E24" opacity="0.6" stroke-width="1" class="marble_hill"/>
<path d="M 3686.9842 569.5511 3739.2262 514.3204 3775.9005 546.1623 3749.5043 625.5109 3686.9842 569.5511 Z" fill="none" stroke="#E71E24" opacity="0.6" stroke-width="1" class="marble_hill"/>
<path d="M 3720.5311 504.0555 3770.4312 549.0672 3728.9282 590.4974 3645.8046 559.3085 3720.5311 504.0555 Z" fill="none" stroke="#E71E24" opacity="0.6" stroke-width="1" class="marble_hill"/>
<path d="M 3782.4322 548.1347 3724.3146 593.2613 3662.4229 559.2929 3628.2639 560.2445 3590.3643 506.9374 3627.1682 371.7261 3735.1639 369.7821 3821.1078 458.8868 3782.4322 548.1347 Z" fill="none" stroke="#E71E24" opacity="0.6" stroke-width="1" class="marble_hill"/>
<path d="M 3660.5529 534.4631 3655.929 526.1905 3655.9116 507.7974 3755.1873 538.9669 3762.5711 537.1197 3729.7634 504.506 3736.2338 512.3163 3729.3249 527.038 3764.8952 552.292 3770.6816 567.4609 3754.7558 567.7077 3748.991 573.002 3743.9189 578.5256 3746.919 578.0626 3740.9226 582.6674 3734.9256 586.8124 3734.4668 589.572 3676.5924 533.0683 3668.2843 533.9959 3660.9028 538.3714 3660.7881 539.1763 3655.4824 542.1702 3644.0638 548.8487 3649.0201 542.4062 3646.823 537.6949 3651.7839 536.1958 3655.2402 530.0997 3655.4687 527.5704 3660.5529 534.4631 Z" fill="none" stroke="#E71E24" opacity="0.6" stroke-width="1" class="marble_hill"/>
<path d="M 3729.3237 525.8884 3757.5055 548.6211 3762.8367 569.9984 3743.9554 613.7053 3735.8624 599.9176 3724.0789 588.433 3712.9925 581.3163 3669.5831 564.5743 3729.3237 525.8884 Z" fill="none" stroke="#E71E24" opacity="0.6" stroke-width="1" class="marble_hill"/>
<path d="M 3829.4088 452.4402 3765.8961 625.4092 3724.3127 591.4219 3679.0475 565.7148 3631.0209 546.4466 3605.1493 522.5585 3588.4995 485.7874 3604.1524 439.7935 3628.0989 380.001 3829.4088 452.4402 Z" fill="none" stroke="#E71E24" opacity="0.6" stroke-width="1" class="marble_hill"/>
<path d="M 3697.5176 570.985 3697.743 565.4665 3696.3538 561.0993 3697.7343 556.7294 3701.654 552.5869 3707.881 547.7523 3713.4143 541.7689 3718.9481 536.2452 3726.5597 531.4092 3732.1013 533.7027 3737.4108 534.6169 3740.416 539.2122 3743.8807 541.7377 3747.3459 544.7231 3751.5064 550.4668 3751.512 555.755 3751.0595 564.4926 3754.2947 568.168 3757.9959 575.9817 3758.4614 579.66 3755.2365 585.8715 3752.4711 590.0132 3749.4772 596.4544 3744.4046 601.7482 3697.5176 570.985 Z" fill="none" stroke="#E71E24" opacity="0.6" stroke-width="1" class="marble_hill"/>
<path d="M 3752.5123 629.3323 3724.5391 587.0529 3653.4213 559.3014 3725.3752 501.5216 3783.5996 560.5493 3752.5123 629.3323 Z" fill="none" stroke="#E71E24" opacity="0.6" stroke-width="1" class="marble_hill"/>
<path d="M 3695.2056 567.0785 3701.6419 540.4011 3726.5576 529.3399 3747.3389 538.0554 3760.2892 561.9537 3745.5379 581.7429 3728.0039 589.5786 3700.2876 571.2122 3695.2056 567.0785 Z" fill="none" stroke="#E71E24" opacity="0.6" stroke-width="1" class="marble_hill"/>
<path d="M 3642.08 525.2838 3649.4855 546.4294 3666.0913 533.5382 3665.1944 561.1296 3624.5609 549.2115 3631.9264 527.1325 3655.9081 504.1188 3642.08 525.2838 Z" fill="none" stroke="#E71E24" opacity="0.6" stroke-width="1" class="marble_hill"/>
<path d="M 3724.7655 582.684 3710.9062 572.3512 3704.4402 569.1387 3703.9667 557.1831 3706.7313 552.122 3711.1118 547.2893 3716.1824 540.1566 3724.9502 537.3887 3730.952 538.3023 3737.8759 538.0652 3740.4179 541.0515 3744.1151 545.1863 3746.4284 550.2421 3747.5839 551.6205 3750.5899 556.9056 3748.9817 564.0349 3742.524 568.8701 3737.4504 573.014 3734.9152 576.6955 3731.6878 580.6076 3729.6114 581.5294 3725.6885 582.4531 3723.8429 583.3747 3723.813 553.9442 3724.7655 582.684 Z" fill="none" stroke="#E71E24" opacity="0.6" stroke-width="1" class="marble_hill"/>
<path d="M 3758.048 625.4175 3687.1293 569.1558 3738.546 516.4524 3805.9903 562.3642 3758.048 625.4175 Z" fill="none" stroke="#E71E24" opacity="0.6" stroke-width="1" class="marble_hill"/>
<path d="M 3692.8989 568.4604 3694.7363 559.2615 3691.0434 559.2652 3638.417 557.476 3592.2083 504.1769 3616.143 428.7478 3724.1902 470.9452 3695.655 554.6622 3692.8989 568.4604 Z" fill="none" stroke="#E71E24" opacity="0.6" stroke-width="1" class="marble_hill"/>
<path d="M 3639.8031 558.8543 3646.0253 548.5019 3665.8607 533.7683 3693.7823 527.9933 3724.6803 498.9933 3741.3166 517.3692 3768.815 548.6091 3724.7699 587.0527 3639.8031 558.8543 Z" fill="none" stroke="#E71E24" opacity="0.6" stroke-width="1" class="marble_hill"/>
<path d="M 3728.8085 586.3588 3705.4847 575.0008 3690.3547 563.0596 3713.872 537.8598 3723.7908 532.1018 3754.7148 528.6211 3769.162 549.2985 3728.8085 586.3588 Z" fill="none" stroke="#E71E24" opacity="0.6" stroke-width="1" class="marble_hill"/>
<path d="M 3726.6122 582.9121 3706.2904 572.8157 3702.1165 553.5061 3718.9472 535.3255 3731.1777 533.2438 3738.1084 539.6744 3749.4287 550.0091 3749.6712 561.2751 3728.2291 584.0601 3726.6122 582.9121 Z" fill="none" stroke="#E71E24" opacity="0.6" stroke-width="1" class="marble_hill"/>
<path d="M 3731.1407 497.1474 3739.927 512.7723 3759.3306 528.3863 3771.3544 549.0663 3791.675 557.7814 3757.6178 655.3106 3736.3669 641.536 3731.7164 608.4294 3712.77 589.5941 3676.7492 575.8338 3661.0516 573.5496 3657.7945 546.4216 3691.4797 533.5136 3731.1407 497.1474 Z" fill="none" stroke="#E71E24" opacity="0.6" stroke-width="1" class="marble_hill"/>
<path d="M 3695.431 561.5601 3744.3184 518.7455 3767.4302 548.6106 3726.8492 588.89 3694.0462 561.5615 3695.431 561.5601 Z" fill="none" stroke="#E71E24" opacity="0.6" stroke-width="1" class="marble_hill"/>
<path d="M 3766.9671 547.2316 3728.2308 585.6696 3724.7671 584.2935 3721.0731 583.3776 3716.4538 580.3931 3712.2952 576.4885 3703.7528 574.1978 3693.1322 570.9893 3691.5129 567.3121 3698.8847 553.0495 3702.338 544.0791 3710.6403 537.4032 3714.7929 535.5597 3720.0937 527.967 3729.779 519.6802 3736.0032 512.5465 3752.6368 527.9335 3766.9671 547.2316 Z" fill="none" stroke="#E71E24" opacity="0.6" stroke-width="1" class="marble_hill"/>
<path d="M 3688.9531 559.1799 3724.4434 533.8724 3744.7716 550.632 3745.7227 567.6151 3726.3579 590.6279 3679.2452 564.003 3688.9531 559.1799 Z" fill="none" stroke="#E71E24" opacity="0.6" stroke-width="1" class="marble_hill"/>
<path d="M 3817.4717 509.4702 3873.6674 408.2497 3928.1684 439.4493 4027.963 511.9706 3960.6783 597.5898 3929.3051 612.345 3797.1686 515.9302 3817.4717 509.4702 Z" fill="none" stroke="#E71E24" opacity="0.6" stroke-width="1" class="marble_hill"/>
<path d="M 3682.0505 568.2411 3682.2513 537.4312 3724.4518 501.2926 3765.3522 547.923 3725.4612 585.9023 3682.0505 568.2411 Z" fill="none" stroke="#E71E24" opacity="0.6" stroke-width="1" class="marble_hill"/>
<path d="M 3696.5846 561.0991 3701.1956 555.8063 3707.8828 549.5917 3713.4157 543.1484 3718.4886 538.3149 3724.0223 532.7913 3730.0243 533.9348 3720.3413 544.5209 3725.424 549.3441 3727.2714 550.2619 3728.6574 551.4101 3726.5713 542.7902 3723.5706 542.5633 3732.3324 533.9324 3734.642 535.4245 3737.8749 537.0306 3745.4932 538.7471 3744.8039 541.7368 3746.6527 544.034 3746.4267 548.6327 3748.1621 552.7695 3748.0453 551.3901 3748.2745 549.8953 3748.735 548.8602 3750.3559 553.8018 3751.1666 556.5601 3751.516 559.6637 3751.9804 562.3073 3753.1352 562.9959 3750.3681 565.528 3744.6025 570.0175 3739.5289 574.1615 3735.8395 577.7292 3733.8809 580.9502 3729.7291 583.7136 3727.3062 584.4059 3710.6778 574.7657 3707.7913 573.504 3698.3233 568.7999 3696.5846 561.0991 Z" fill="none" stroke="#E71E24" opacity="0.6" stroke-width="1" class="marble_hill"/>
<path d="M 3680.4286 561.8047 3738.5508 521.0507 3759.8121 547.2391 3761.2035 553.4456 3733.5351 581.2955 3727.7675 584.0605 3722.4594 584.7557 3715.0728 584.3033 3693.3659 573.9782 3682.7443 569.6199 3677.4318 565.7164 3680.4286 561.8047 Z" fill="none" stroke="#E71E24" opacity="0.6" stroke-width="1" class="marble_hill"/>
<path d="M 3729.2678 584.059 3726.7279 583.1419 3696.9383 568.6863 3703.386 553.5049 3720.6778 534.9789 3734.0648 535.3101 3748.3894 549.4354 3750.5965 563.2285 3729.2678 584.059 Z" fill="none" stroke="#E71E24" opacity="0.6" stroke-width="1" class="marble_hill"/>
<path d="M 3726.0655 499.4517 3779.7328 613.4376 3767.7417 624.4875 3685.4976 552.8328 3712.2326 514.18 3781.5714 606.0776 3786.1351 557.3276 3770.4331 550.9066 3751.0135 520.5779 3726.0655 499.4517 Z" fill="none" stroke="#E71E24" opacity="0.6" stroke-width="1" class="marble_hill"/>
<path d="M 3333.0323 901.7376 3536.0113 647.6997 3547.1064 666.0864 3532.3539 691.8533 3432.768 886.952 3333.0323 901.7376 Z" fill="none" stroke="#E71E24" opacity="0.6" stroke-width="1" class="marble_hill"/>
<path d="M 3724.7692 586.3629 3650.4269 565.7421 3643.0383 562.9899 3636.111 559.7774 3631.0302 556.5631 3625.9487 552.4292 3625.4841 549.2107 3649.9428 541.8306 3682.2448 530.7636 3726.9882 498.9909 3766.7373 548.1515 3724.7692 586.3629 Z" fill="none" stroke="#E71E24" opacity="0.6" stroke-width="1" class="marble_hill"/>
<path d="M 3757.1082 609.7827 3657.8085 561.1366 3659.6432 548.719 3674.402 535.3696 3699.7767 521.5497 3719.6107 506.8154 3733.922 508.6401 3745.9359 520.5832 3758.8719 531.1458 3771.3632 557.3435 3772.7724 580.1047 3768.4087 600.5733 3752.2718 620.1349 3757.1082 609.7827 Z" fill="none" stroke="#E71E24" opacity="0.6" stroke-width="1" class="marble_hill"/>
<path d="M 3677.5347 565.2947 3681.1097 562.6471 3685.9545 560.3431 3692.6447 557.0026 3695.7588 555.1602 3700.9482 551.3613 3704.6378 548.0238 3709.4786 541.8111 3713.9759 538.4727 3719.2779 532.0297 3724.5999 529.227 3731.7535 527.9551 3737.5256 529.9035 3742.4921 534.0369 3747.9194 537.2501 3752.0782 541.3843 3757.739 547.1264 3759.4765 553.2175 3766.9055 556.7659 3773.8325 559.2877 3775.2745 576.6968 3771.4784 588.1973 3768.6043 598.6623 3766.1046 611.4647 3761.2687 622.2769 3759.4297 629.407 3756.5545 639.0676 3744.4873 636.2059 3677.5347 565.2947 Z" fill="none" stroke="#E71E24" opacity="0.6" stroke-width="1" class="marble_hill"/>
<path d="M 3731.6954 587.9653 3681.4729 567.6668 3686.8924 562.948 3691.7376 561.1039 3701.0757 551.3229 3707.8774 544.1886 3714.5642 537.6291 3725.0595 531.4107 3752.4052 527.129 3761.0694 535.7418 3769.5102 551.1375 3763.0511 554.4783 3753.5963 562.5356 3731.6954 587.9653 Z" fill="none" stroke="#E71E24" opacity="0.6" stroke-width="1" class="marble_hill"/>
<path d="M 3743.0257 607.498 3739.3271 602.2133 3733.0914 598.7707 3727.3108 588.8895 3710.4535 581.3189 3676.9717 567.3263 3693.1075 545.9276 3706.7109 531.6592 3723.542 514.3985 3744.1031 533.6903 3752.4203 541.4989 3763.0514 554.8231 3765.1426 567.9266 3759.1585 584.028 3743.0257 607.498 Z" fill="none" stroke="#E71E24" opacity="0.6" stroke-width="1" class="marble_hill"/>
<path d="M 3689.8925 562.4853 3679.2549 541.5727 3726.0667 500.6013 3769.2764 548.3787 3775.5398 577.8024 3754.1367 637.6085 3689.8925 562.4853 Z" fill="none" stroke="#E71E24" opacity="0.6" stroke-width="1" class="marble_hill"/>
<path d="M 3683.6297 530.7623 3725.6025 498.0727 3751.478 523.3364 3769.973 552.2866 3778.3093 577.5695 3772.8012 607.0068 3767.7495 631.8456 3748.8226 632.7853 3745.1055 609.7952 3725.692 585.9021 3654.5771 561.1397 3683.6297 530.7623 Z" fill="none" stroke="#E71E24" opacity="0.6" stroke-width="1" class="marble_hill"/>
<path d="M 3685.041 557.8915 3734.3822 507.2602 3783.828 558.2498 3749.7137 601.9726 3685.041 557.8915 Z" fill="none" stroke="#E71E24" opacity="0.6" stroke-width="1" class="marble_hill"/>
<path d="M 3696.5692 545.4644 3664.244 532.6203 3715.9356 524.2926 3733.4963 543.5878 3751.0539 559.2043 3732.6146 584.0556 3650.4096 547.3482 3678.1109 551.9202 3679.0225 539.9635 3696.5692 545.4644 Z" fill="none" stroke="#E71E24" opacity="0.6" stroke-width="1" class="marble_hill"/>
<path d="M 3670.7383 565.7228 3727.9147 502.2087 3741.7796 518.7482 3760.265 538.9615 3772.3042 573.8971 3755.7339 619.9014 3670.7383 565.7228 Z" fill="none" stroke="#E71E24" opacity="0.6" stroke-width="1" class="marble_hill"/>
<path d="M 3684.1294 569.8485 3702.3462 552.3563 3716.1805 538.3173 3723.3308 533.7117 3728.4083 533.4766 3732.1023 534.6224 3735.1049 536.6886 3740.4184 541.5114 3744.1141 544.2666 3748.505 549.5502 3748.5117 555.988 3750.3649 562.424 3725.0012 587.5123 3684.1294 569.8485 Z" fill="none" stroke="#E71E24" opacity="0.6" stroke-width="1" class="marble_hill"/>
<path d="M 3741.5495 519.4382 3767.2006 549.7604 3723.6163 587.5137 3682.9755 570.0796 3741.5495 519.4382 Z" fill="none" stroke="#E71E24" opacity="0.6" stroke-width="1" class="marble_hill"/>
<path d="M 3674.4463 581.3543 3664.7525 581.8235 3667.7379 565.9556 3680.1888 552.608 3704.4035 532.3512 3728.8555 519.4512 3743.1642 518.5168 3754.2525 527.9318 3762.8046 539.6486 3767.6608 548.3804 3774.1285 553.2019 3774.8466 577.1134 3769.098 597.5834 3750.651 615.3079 3728.2627 616.9406 3717.6274 599.7062 3701.46 589.6054 3674.4463 581.3543 Z" fill="none" stroke="#E71E24" opacity="0.6" stroke-width="1" class="marble_hill"/>
<path d="M 3702.5736 548.9072 3718.4839 533.7166 3721.2531 533.2539 3702.5736 548.9072 Z" fill="none" stroke="#E71E24" opacity="0.6" stroke-width="1" class="marble_hill"/></svg>