<?xml version="1.0"?><svg xmlns="http://www.w3.org/2000/svg" version="1.2" baseProfile="tiny" width="6000" height="5918" viewBox="0 0 6000 5918" stroke-linecap="round" stroke-linejoin="round"><path d="M 3507.1692 4491.2016 3485.8312 4471.5938 3468.2272 4485.6903 3426.9764 4492.1846 3394.2788 4465.8873 3342.1348 4471.6923 3325.1383 4340.8074 3503.4785 4216.7322 3619.2264 4356.9775 3522.2252 4479.646 3507.1692 4491.2016 Z" fill="none" stroke="#444" opacity="0.6" stroke-width="1" class="mariners_harbor"/>
<path d="M 959.2599 3897.7538 1200.0924 3934.6397 1095.5438 4111.2255 956.9109 4157.1287 916.9286 3987.2006 913.8645 3895.8201 959.2599 3897.7538 Z" fill="none" stroke="#444" opacity="0.6" stroke-width="1" class="mariners_harbor"/>
<path d="M 664.4839 3962.6753 672.8844 3935.0044 702.1149 3914.7635 772.672 3848.0033 890.817 3837.6318 1019.4831 3897.8669 1117.6354 3931.2692 1201.9555 3928.6435 1151.6167 4107.6303 1021.4522 4086.1674 857.8653 4098.3137 670.9628 3965.9201 664.4839 3962.6753 Z" fill="none" stroke="#444" opacity="0.6" stroke-width="1" class="mariners_harbor"/>
<path d="M 967.4831 4080.2969 915.0258 3894.2072 1175.9952 3938.7528 1120.7993 4109.8851 971.651 4081.4587 967.4831 4080.2969 Z" fill="none" stroke="#444" opacity="0.6" stroke-width="1" class="mariners_harbor"/>
<path d="M 993.1949 4082.4224 999.5716 4017.3572 1005.7181 4075.5225 1006.6362 4080.1397 1004.782 4080.5978 993.1949 4082.4224 Z" fill="none" stroke="#444" opacity="0.6" stroke-width="1" class="mariners_harbor"/>
<path d="M 965.3941 4082.3699 962.7794 3995.5964 795.0617 3996.1848 823.995 3894.7169 970.3693 3902.3896 1201.9509 3931.4123 1178.6247 4028.2897 1158.0927 4114.1033 965.3941 4082.3699 Z" fill="none" stroke="#444" opacity="0.6" stroke-width="1" class="mariners_harbor"/>
<path d="M 1084.536 3961.1773 1069.2241 4103.1502 964.5408 4084.4942 967.4932 3953.147 1084.536 3961.1773 Z" fill="none" stroke="#444" opacity="0.6" stroke-width="1" class="mariners_harbor"/>
<path d="M 958.641 3996.65 822.7754 3880.4405 950.6351 3878.8487 1069.1268 3934.4452 1209.9376 3949.4549 1155.9269 4108.1306 870.5277 4092.8318 833.8594 3897.0758 958.641 3996.65 Z" fill="none" stroke="#444" opacity="0.6" stroke-width="1" class="mariners_harbor"/>
<path d="M 1111.3029 4108.4838 968.1724 4083.2983 978.01 3904.0192 1132.4322 3947.4469 1111.3029 4108.4838 Z" fill="none" stroke="#444" opacity="0.6" stroke-width="1" class="mariners_harbor"/>
<path d="M 974.3091 3901.2434 988.4268 3907.4999 1013.1672 3931.3121 1036.3067 3944.507 1049.2693 3949.607 1099.9994 3949.2363 1137.5295 3946.7634 1160.238 3942.1874 1194.3004 3935.3223 1201.0217 3933.026 1158.0904 4115.488 1077.2563 4102.6541 1030.703 4094.954 967.7095 4083.0666 973.151 3901.2412 974.3091 3901.2434 Z" fill="none" stroke="#444" opacity="0.6" stroke-width="1" class="mariners_harbor"/>
<path d="M 963.8854 3901.4543 1199.1407 3949.8672 1146.9784 4110.3918 972.8269 4072.2298 963.8854 3901.4543 Z" fill="none" stroke="#444" opacity="0.6" stroke-width="1" class="mariners_harbor"/>
<path d="M 762.9119 3863.2104 1200.1299 3912.0273 1185.2376 3952.613 1170.07 4155.6659 984.627 4203.3416 788.3979 4081.0933 751.8021 3859.4952 1188.9931 3923.0842 762.9119 3863.2104 Z" fill="none" stroke="#444" opacity="0.6" stroke-width="1" class="mariners_harbor"/>
<path d="M 964.7944 3910.6855 952.0555 3910.1996 962.2568 3905.2583 966.4469 3894.3065 967.9523 3894.4247 976.505 3903.6703 980.212 3903.2158 993.8604 3912.7016 996.0822 3901.2844 1009.6894 3933.0362 1022.9992 3938.1372 1024.0445 3936.5239 1034.1078 3943.58 1038.1577 3945.6641 1045.4464 3950.0616 1047.8794 3949.6045 1052.1684 3947.651 1064.2093 3950.0955 1069.8863 3949.0674 1072.6654 3949.4185 1088.2987 3950.8308 1092.0055 3950.4912 1091.7759 3949.3371 1107.8757 3948.904 1113.4349 3949.0291 1127.7998 3947.2081 1128.9572 3947.6716 1140.0775 3946.7678 1143.3183 3948.0425 1153.4017 3943.9063 1156.9945 3942.528 1166.3817 3939.0827 1169.2811 3936.7802 1182.0238 3935.1864 1185.1552 3932.6535 1194.5391 3931.0539 1195.931 3929.7872 1200.6734 3933.4869 1201.9457 3934.5273 1201.3581 3939.7181 1198.216 3948.7119 1198.5623 3949.4047 1197.0542 3950.9021 1195.2954 3963.821 1195.4095 3964.8596 1190.3986 3983.196 1190.5143 3983.3115 1184.5625 4010.0694 1183.8621 4013.2989 1183.7476 4012.491 1183.4011 4011.9136 1180.4835 4024.9467 1180.9432 4027.1398 1180.5976 4025.9854 1176.8671 4040.2866 1175.0097 4042.7065 1173.1389 4053.088 1172.2076 4055.8557 1169.99 4065.7752 1168.3646 4067.9648 1170.3375 4065.7757 1167.2989 4081.6941 1164.0326 4095.1892 1161.3533 4104.0698 1161.465 4106.4932 1158.9024 4114.7971 1159.7064 4118.8372 1157.8524 4119.1802 1150.1017 4112.9358 1147.2031 4114.4309 1145.0024 4114.3118 1136.3209 4110.4889 1132.9621 4110.1369 1127.0551 4109.6652 1125.8951 4110.5863 1123.4628 4110.3513 1113.6207 4107.9109 1103.6646 4104.4317 1109.1011 4108.9415 1105.5105 4108.7045 1096.9398 4107.8816 1092.8874 4106.7206 1084.6669 4104.3981 1080.7307 4103.1218 1078.4157 4102.0792 1068.5676 4103.1001 1064.5126 4103.439 1060.5828 4098.5855 1053.7498 4097.7654 1047.7228 4099.6007 1043.3191 4100.6312 1038.9263 4095.6614 1030.2399 4094.8378 1026.4109 4098.2925 1020.2814 4092.8578 1013.795 4092.6151 1013.5575 4095.7302 1003.3683 4093.288 999.7767 4093.6275 991.0968 4089.3418 986.1071 4093.9481 982.1726 4091.8636 978.0144 4085.5093 977.6627 4087.7011 969.7928 4083.9937 964.9193 4088.3692 967.9511 4077.8746 962.9838 4070.7111 962.7618 4065.6336 967.647 4055.0274 967.9969 4053.7588 967.3124 4048.219 965.7018 4042.4467 967.7924 4039.4507 967.3458 4030.6808 966.9044 4019.1417 963.2296 4002.52 965.576 3986.833 974.8795 3967.0059 973.9966 3943.9295 964.7944 3910.6855 Z" fill="none" stroke="#444" opacity="0.6" stroke-width="1" class="mariners_harbor"/>
<path d="M 965.3941 4082.3699 896.808 4087.7755 864.3402 4104.3271 764.4036 4033.9654 817.5057 3896.5494 1130.5735 3950.6741 1100.6489 4106.6189 965.3941 4082.3699 Z" fill="none" stroke="#444" opacity="0.6" stroke-width="1" class="mariners_harbor"/>
<path d="M 974.0775 3901.2429 1141.2341 3947.6928 1122.6532 4109.6575 1075.8658 4102.8824 968.4032 4083.7603 968.4813 4042.6828 972.5653 3965.8478 974.0775 3901.2429 Z" fill="none" stroke="#444" opacity="0.6" stroke-width="1" class="mariners_harbor"/>
<path d="M 824.0159 3884.5648 1195.4697 3928.6327 1162.7545 4097.4948 1162.7373 4107.6492 844.8623 4112.596 744.9322 4039.4624 824.0159 3884.5648 Z" fill="none" stroke="#444" opacity="0.6" stroke-width="1" class="mariners_harbor"/>
<path d="M 786.1763 3814.3469 1242.8377 3857.6448 1083.8925 4149.0543 676.5008 3975.6239 786.1763 3814.3469 Z" fill="none" stroke="#444" opacity="0.6" stroke-width="1" class="mariners_harbor"/>
<path d="M 968.511 3905.1549 1201.9402 3937.8731 1153.4497 4119.6343 965.3888 4085.1392 968.511 3905.1549 Z" fill="none" stroke="#444" opacity="0.6" stroke-width="1" class="mariners_harbor"/>
<path d="M 967.0283 3904.8004 1200.4574 3937.519 1164.014 4119.3005 965.761 4083.8651 967.0283 3904.8004 Z" fill="none" stroke="#444" opacity="0.6" stroke-width="1" class="mariners_harbor"/>
<path d="M 784.2673 3841.106 1210.3004 3924.9654 1071.6777 4242.2779 654.2772 3969.1135 784.2673 3841.106 Z" fill="none" stroke="#444" opacity="0.6" stroke-width="1" class="mariners_harbor"/>
<path d="M 965.9149 4080.4463 770.4827 4032.9767 823.6896 3888.7182 977.3204 3900.2321 965.9149 4080.4463 Z" fill="none" stroke="#444" opacity="0.6" stroke-width="1" class="mariners_harbor"/>
<path d="M 1122.5381 4109.1958 967.1286 4083.9886 972.6886 3900.7788 1142.1621 3946.8868 1122.5381 4109.1958 Z" fill="none" stroke="#444" opacity="0.6" stroke-width="1" class="mariners_harbor"/></svg>