<?xml version="1.0"?><svg xmlns="http://www.w3.org/2000/svg" version="1.2" baseProfile="tiny" width="6000" height="5918" viewBox="0 0 6000 5918" stroke-linecap="round" stroke-linejoin="round"><path d="M 1240.2532 4311.3505 1293.571 4298.5084 1504.0022 4280.8078 1523.7212 4440.1168 1464.8451 4446.502 1463.899 4460.3527 1436.0547 4483.4012 1409.613 4497.2162 1350.756 4487.895 1252.0181 4489.5892 1240.2532 4311.3505 Z" fill="none" stroke="#865327" opacity="0.6" stroke-width="1" class="meier_s_corners"/>
<path d="M 1370.0399 4299.0859 1363.4777 4348.9368 1228.1336 4354.2668 1229.1205 4317.3342 1315.3554 4297.1571 1357.0743 4291.6802 1370.0399 4299.0859 Z" fill="none" stroke="#865327" opacity="0.6" stroke-width="1" class="meier_s_corners"/>
<path d="M 1441.7759 4287.186 1453.8833 4329.0989 1338.561 4352.1314 1346.9856 4451.9888 1312.91 4456.0927 1285.147 4424.883 1247.7157 4426.4397 1241.179 4312.0445 1439.1106 4287.5285 1441.7759 4287.186 Z" fill="none" stroke="#865327" opacity="0.6" stroke-width="1" class="meier_s_corners"/>
<path d="M 1196.6415 4339.4412 1426.5771 4301.9376 1438.5013 4391.5209 1243.7582 4437.3993 1196.6415 4339.4412 Z" fill="none" stroke="#865327" opacity="0.6" stroke-width="1" class="meier_s_corners"/>
<path d="M 1246.6446 4371.841 1467.3091 4339.8514 1472.7181 4451.5918 1422.6048 4488.4614 1331.694 4525.2689 1241.7881 4509.4283 1246.6446 4371.841 Z" fill="none" stroke="#865327" opacity="0.6" stroke-width="1" class="meier_s_corners"/>
<path d="M 2630.1876 4155.9632 2606.6619 4136.5022 2615.1198 4127.9644 2638.6457 4146.0403 2630.1876 4155.9632 Z" fill="none" stroke="#865327" opacity="0.6" stroke-width="1" class="meier_s_corners"/>
<path d="M 1367.1292 4387.0319 1312.5846 4290.6896 1332.0578 4285.1794 1358.939 4284.2965 1400.6544 4280.6644 1491.4693 4295.564 1486.6713 4416.5196 1366.9398 4515.1628 1256.75 4429.1091 1308.877 4290.6839 1367.1292 4387.0319 Z" fill="none" stroke="#865327" opacity="0.6" stroke-width="1" class="meier_s_corners"/></svg>