<?xml version="1.0"?><svg xmlns="http://www.w3.org/2000/svg" version="1.2" baseProfile="tiny" width="6000" height="5918" viewBox="0 0 6000 5918" stroke-linecap="round" stroke-linejoin="round"><path d="M 3672.3481 1279.6792 3713.4288 1244.8945 3752.7389 1286.7315 3748.014 1296.7459 3735.9285 1337.0272 3727.9878 1365.3396 3690.7788 1348.2331 3654.7313 1336.532 3624.8059 1324.709 3669.0064 1287.6208 3670.3864 1281.4068 3672.3481 1279.6792 Z" fill="none" stroke="#865327" opacity="0.6" stroke-width="1" class="melrose"/>
<path d="M 3539.7143 1221.8143 3563.7097 1191.4236 3750.8989 1294.3268 3643.8271 1409.9509 3654.1512 1333.7712 3539.7143 1221.8143 Z" fill="none" stroke="#865327" opacity="0.6" stroke-width="1" class="melrose"/>
<path d="M 3596.574 1267.7839 3912.6546 1345.6882 3689.2541 1560.4246 3517.2683 1459.3094 3596.574 1267.7839 Z" fill="none" stroke="#865327" opacity="0.6" stroke-width="1" class="melrose"/>
<path d="M 3741.2014 1264.7959 3757.6759 1267.7617 3771.7716 1273.1268 3771.8041 1303.5001 3758.4147 1311.3379 3742.137 1359.5335 3722.2668 1355.872 3686.2421 1368.3342 3659.0584 1391.2084 3659.0384 1370.0371 3663.8473 1340.2572 3629.0068 1334.2438 3672.8968 1272.2884 3741.2014 1264.7959 Z" fill="none" stroke="#865327" opacity="0.6" stroke-width="1" class="melrose"/>
<path d="M 3603.945 1244.7681 3654.6795 1159.1319 3768.3562 1202.2719 3759.2252 1304.4426 3727.875 1367.9861 3592.9276 1323.9322 3603.945 1244.7681 Z" fill="none" stroke="#865327" opacity="0.6" stroke-width="1" class="melrose"/>
<path d="M 3571.0329 1382.6308 3587.4135 1358.2239 3597.1064 1347.63 3607.0303 1337.2661 3613.7248 1332.1977 3617.1904 1332.8849 3619.9555 1325.2887 3667.9649 1285.4359 3674.6658 1287.7304 3697.053 1268.8405 3751.8188 1290.4141 3714.0571 1410.3432 3702.0698 1436.1301 3650.0646 1409.9451 3571.0329 1382.6308 Z" fill="none" stroke="#865327" opacity="0.6" stroke-width="1" class="melrose"/>
<path d="M 3601.301 1388.8178 3643.7032 1276.9451 3765.6964 1307.6572 3663.2379 1415.4558 3601.301 1388.8178 Z" fill="none" stroke="#865327" opacity="0.6" stroke-width="1" class="melrose"/>
<path d="M 3774.0107 1306.2677 3834.0907 1325.5306 3820.305 1391.8201 3747.2874 1375.33 3774.0107 1306.2677 Z" fill="none" stroke="#865327" opacity="0.6" stroke-width="1" class="melrose"/>
<path d="M 3602.7984 1257.1683 3942.2634 1352.938 3662.1334 1587.3097 3515.1815 1453.3016 3602.7984 1257.1683 Z" fill="none" stroke="#865327" opacity="0.6" stroke-width="1" class="melrose"/>
<path d="M 3629.1418 1519.0525 3599.5526 1501.5873 3603.2509 1503.4253 3569.0364 1479.5195 3573.6303 1448.2161 3602.2369 1402.1644 3618.8301 1357.9659 3628.9631 1323.8999 3664.044 1291.6523 3697.2783 1263.0879 3727.7445 1240.0481 3749.026 1270.3984 3749.9807 1299.8502 3746.3164 1330.2282 3723.2605 1373.5137 3720.9723 1395.1477 3724.6882 1414.4748 3736.2742 1448.523 3740.0154 1491.7863 3723.8637 1512.5166 3689.6819 1525.4395 3667.0376 1523.6201 3629.1418 1519.0525 Z" fill="none" stroke="#865327" opacity="0.6" stroke-width="1" class="melrose"/>
<path d="M 3547.6914 1371.3745 3548.1534 1371.3741 3585.0337 1277.9183 3620.9965 1199.6562 3785.5036 1253.7929 3727.0214 1437.0255 3658.6153 1413.1589 3547.6914 1371.3745 Z" fill="none" stroke="#865327" opacity="0.6" stroke-width="1" class="melrose"/>
<path d="M 3678.8309 1295.3197 3690.8442 1297.1489 3685.313 1310.0401 3678.8309 1295.3197 Z" fill="none" stroke="#865327" opacity="0.6" stroke-width="1" class="melrose"/>
<path d="M 3750.2095 1297.779 3702.5309 1435.2091 3565.9499 1381.7147 3682.5028 1270.6955 3750.2095 1297.779 Z" fill="none" stroke="#865327" opacity="0.6" stroke-width="1" class="melrose"/>
<path d="M 3571.264 1382.6306 3568.029 1381.7129 3602.8729 1337.9602 3681.347 1269.7763 3719.4752 1285.3852 3727.8067 1301.0236 3728.5053 1306.5454 3728.9758 1314.8288 3681.9615 1426.7143 3652.8381 1411.3233 3571.264 1382.6306 Z" fill="none" stroke="#865327" opacity="0.6" stroke-width="1" class="melrose"/>
<path d="M 3570.8037 1384.7021 3616.0206 1316.5482 3675.1377 1298.0846 3724.1237 1313.6832 3719.5634 1372.597 3694.6534 1412.2035 3570.8037 1384.7021 Z" fill="none" stroke="#865327" opacity="0.6" stroke-width="1" class="melrose"/>
<path d="M 3501.4882 1369.5707 3616.2083 1268.4567 3673.7431 1289.1119 3748.3623 1298.4713 3700.9135 1434.9806 3598.0741 1397.1052 3501.4882 1369.5707 Z" fill="none" stroke="#865327" opacity="0.6" stroke-width="1" class="melrose"/>
<path d="M 3579.2559 1542.1128 3499.7229 1475.8936 3514.4652 1420.6486 3482.8825 1205.2933 3541.8558 1017.5194 3685.7248 785.5428 3764.9689 621.7311 3683.6467 548.2361 3809.0326 391.7718 3864.4687 435.8475 4152.6062 520.0722 4136.2455 696.6873 4149.4969 917.4531 4127.6338 1127.2783 4140.8086 1292.9183 3987.4481 1306.0153 3887.8038 1427.6425 3675.4228 1593.5826 3579.2559 1542.1128 Z" fill="none" stroke="#865327" opacity="0.6" stroke-width="1" class="melrose"/>
<path d="M 3652.1442 1410.4034 3547.6941 1374.5962 3596.5635 1255.819 3665.884 1283.3669 3712.0399 1241.9047 3760.1045 1262.1033 3702.9939 1436.1292 3652.1442 1410.4034 Z" fill="none" stroke="#865327" opacity="0.6" stroke-width="1" class="melrose"/></svg>