<?xml version="1.0"?><svg xmlns="http://www.w3.org/2000/svg" version="1.2" baseProfile="tiny" width="6000" height="5918" viewBox="0 0 6000 5918" stroke-linecap="round" stroke-linejoin="round"><path d="M 2928.7601 2369.5515 2713.2386 2247.9406 2832.5348 2033.2936 3058.1931 2147.4768 2928.7601 2369.5515 Z" fill="none" stroke="#A9159C" opacity="0.6" stroke-width="1" class="midtown_east"/>
<path d="M 3005.5221 2314.2497 3100.2707 2145.8507 3217.5196 2210.9813 3107.752 2374.5715 3005.5221 2314.2497 Z" fill="none" stroke="#A9159C" opacity="0.6" stroke-width="1" class="midtown_east"/>
<path d="M 3056.3424 2143.7925 3060.0384 2133.6578 3177.5143 2199.0228 3091.5596 2361.2163 2969.4449 2296.7518 3056.3424 2143.7925 Z" fill="none" stroke="#A9159C" opacity="0.6" stroke-width="1" class="midtown_east"/>
<path d="M 3208.0485 2229.4119 3109.6026 2375.9531 3006.4474 2315.6316 3091.0289 2163.5878 3208.0485 2229.4119 Z" fill="none" stroke="#A9159C" opacity="0.6" stroke-width="1" class="midtown_east"/>
<path d="M 3079.5514 2411.901 2941.7053 2342.8275 3043.4007 2162.2212 3189.5551 2238.6335 3079.5514 2411.901 Z" fill="none" stroke="#A9159C" opacity="0.6" stroke-width="1" class="midtown_east"/>
<path d="M 3043.5678 2157.9686 3195.2779 2250.0406 3077.0874 2446.6242 2932.9195 2357.4992 3043.5678 2157.9686 Z" fill="none" stroke="#A9159C" opacity="0.6" stroke-width="1" class="midtown_east"/>
<path d="M 3154.4208 2266.2887 3039.8067 2524.3418 3015.7538 2529.8781 2960.228 2454.3226 2915.8084 2360.3392 2919.5012 2316.1105 2954.6394 2264.5072 3021.2285 2247.9074 3154.4208 2266.2887 Z" fill="none" stroke="#A9159C" opacity="0.6" stroke-width="1" class="midtown_east"/>
<path d="M 3208.9612 2203.615 3133.1439 2256.1625 3134.0746 2270.9037 3136.8461 2262.6104 3137.7673 2253.3966 3142.3918 2253.3948 3149.788 2246.0212 3138.6882 2243.2616 3130.3674 2251.5569 3129.4475 2264.456 3143.3374 2304.9907 3065.6313 2272.7706 3121.0848 2162.1951 3208.9612 2203.615 Z" fill="none" stroke="#A9159C" opacity="0.6" stroke-width="1" class="midtown_east"/>
<path d="M 2972.2202 2298.594 3061.4264 2136.1908 3178.4404 2201.7863 3092.4855 2363.9803 2972.2202 2298.594 Z" fill="none" stroke="#A9159C" opacity="0.6" stroke-width="1" class="midtown_east"/>
<path d="M 3229.3071 2201.7626 3088.8057 2422.9558 2950.0321 2352.9616 3072.0582 2126.2843 3229.3071 2201.7626 Z" fill="none" stroke="#A9159C" opacity="0.6" stroke-width="1" class="midtown_east"/>
<path d="M 3211.2856 2229.4103 3191.4173 2266.2728 3067.9988 2445.079 2931.9974 2368.6295 3055.8803 2144.7138 3211.2856 2229.4103 Z" fill="none" stroke="#A9159C" opacity="0.6" stroke-width="1" class="midtown_east"/>
<path d="M 3060.9637 2135.5 3181.2151 2202.2457 3089.7107 2364.442 2971.295 2297.6728 3060.9637 2135.5 Z" fill="none" stroke="#A9159C" opacity="0.6" stroke-width="1" class="midtown_east"/>
<path d="M 3110.0632 2370.8849 2973.145 2298.1331 3063.277 2139.6448 3198.3316 2216.9787 3110.0632 2370.8849 Z" fill="none" stroke="#A9159C" opacity="0.6" stroke-width="1" class="midtown_east"/>
<path d="M 3045.2518 2167.2875 3165.6199 2229.6611 3052.2698 2436.7902 2931.0726 2369.5511 3045.2518 2167.2875 Z" fill="none" stroke="#A9159C" opacity="0.6" stroke-width="1" class="midtown_east"/>
<path d="M 2999.4657 2135.9778 3004.0909 2141.0434 3002.703 2138.2801 3009.6396 2141.042 3063.2867 2170.5064 3073.0005 2180.1765 3086.4139 2190.306 3109.0755 2198.5896 3132.2006 2208.715 3147.9291 2223.4496 3152.5546 2226.2116 3173.3652 2228.5062 3188.6325 2243.7012 3195.5704 2246.4621 3196.9594 2250.1468 3184.0152 2259.8267 3178.9312 2266.739 3176.6218 2273.1895 3170.6108 2275.4955 3163.2166 2287.937 3161.3681 2291.1626 3153.9715 2298.076 3154.8957 2296.4632 3155.3568 2293.0079 3150.2684 2290.0155 3143.3298 2286.1025 3137.5473 2281.7283 3133.3842 2279.4265 3129.6838 2277.5852 3124.1326 2273.2109 3119.0443 2269.9881 3114.8814 2267.9166 3119.1592 2267.915 3113.0315 2267.5717 3111.0658 2266.8815 3107.3649 2263.5429 3100.5424 2259.86 3096.4959 2259.6311 3091.7548 2256.8687 3112.911 2254.2123 3096.0325 2256.9824 3095.3393 2258.3646 3094.5294 2256.6374 3095.3394 2258.7101 3096.3795 2257.5581 3095.686 2258.1342 3095.4548 2258.1343 3095.5704 2258.1342 2999.4657 2135.9778 Z" fill="none" stroke="#A9159C" opacity="0.6" stroke-width="1" class="midtown_east"/>
<path d="M 2971.2947 2296.2908 3085.9184 2092.656 3180.2652 2145.128 3063.3444 2353.3934 2971.2947 2296.2908 Z" fill="none" stroke="#A9159C" opacity="0.6" stroke-width="1" class="midtown_east"/>
<path d="M 3082.2499 2183.3979 3188.6315 2241.3979 3144.2697 2323.4183 3061.9846 2441.3948 2966.6895 2387.9733 3082.2499 2183.3979 Z" fill="none" stroke="#A9159C" opacity="0.6" stroke-width="1" class="midtown_east"/>
<path d="M 3204.3451 2221.1218 3107.2903 2376.8753 2998.1227 2315.173 3091.4937 2170.497 3107.2176 2176.019 3161.7927 2200.8721 3204.3451 2221.1218 Z" fill="none" stroke="#A9159C" opacity="0.6" stroke-width="1" class="midtown_east"/>
<path d="M 3056.1116 2145.1744 3174.9762 2211.0007 3076.5374 2389.0954 2958.3512 2324.1656 3056.8056 2146.556 3056.1116 2145.1744 Z" fill="none" stroke="#A9159C" opacity="0.6" stroke-width="1" class="midtown_east"/>
<path d="M 2994.4179 2294.9034 3085.9498 2185.2392 3194.1795 2238.6314 3116.5371 2367.6574 2994.4179 2294.9034 Z" fill="none" stroke="#A9159C" opacity="0.6" stroke-width="1" class="midtown_east"/>
<path d="M 3010.6108 2319.7768 3033.72 2267.2521 3121.14 2308.6849 3092.9496 2368.5874 3082.3098 2362.1409 3010.6108 2319.7768 Z" fill="none" stroke="#A9159C" opacity="0.6" stroke-width="1" class="midtown_east"/>
<path d="M 3172.8944 2209.159 3196.947 2222.9678 3076.7808 2425.7244 2998.1368 2372.3013 3098.8945 2176.9433 3108.1425 2176.0187 3111.8411 2174.1748 3172.8944 2209.159 Z" fill="none" stroke="#A9159C" opacity="0.6" stroke-width="1" class="midtown_east"/>
<path d="M 3098.0366 2366.7427 2992.5711 2307.8032 3057.2737 2164.9807 3168.2804 2233.1149 3098.0366 2366.7427 Z" fill="none" stroke="#A9159C" opacity="0.6" stroke-width="1" class="midtown_east"/>
<path d="M 3215.4479 2230.3297 3218.2128 2210.0596 3115.6152 2375.9508 2990.721 2306.8822 3102.585 2152.0682 3112.7635 2167.7257 3215.4479 2230.3297 Z" fill="none" stroke="#A9159C" opacity="0.6" stroke-width="1" class="midtown_east"/>
<path d="M 2958.3507 2321.6317 2974.0694 2295.8295 2988.8622 2269.1065 2999.9529 2235.9357 3042.4802 2176.9615 3071.131 2118.9149 3098.8581 2073.7674 3113.6428 2044.2853 3128.4266 2014.8039 3145.9859 1991.7696 3155.2248 1973.3444 3168.1585 1947.5495 3180.1694 1927.2816 3190.3323 1910.6988 3201.4314 1919.9038 3218.0759 1924.5011 3231.0263 1937.3891 3247.6722 1943.828 3264.3164 1946.5825 3287.4345 1952.0962 3307.7842 1966.8216 3330.9074 1979.703 3350.3304 1988.9019 3368.8332 2004.5487 3075.8518 2413.7452 3057.3951 2557.5147 3037.0399 2554.7559 3011.1316 2543.7035 2976.895 2522.5148 2920.4554 2493.9567 2875.121 2470.9241 2958.3507 2321.6317 Z" fill="none" stroke="#A9159C" opacity="0.6" stroke-width="1" class="midtown_east"/>
<path d="M 3021.1948 2123.5358 3048.0184 2141.0313 3074.8527 2188.0067 3011.0733 2319.7767 2936.1435 2277.4097 3021.1948 2123.5358 Z" fill="none" stroke="#A9159C" opacity="0.6" stroke-width="1" class="midtown_east"/>
<path d="M 3154.3886 2187.9773 3055.0241 2368.5997 2962.0494 2316.1026 3059.1153 2139.1855 3154.3886 2187.9773 Z" fill="none" stroke="#A9159C" opacity="0.6" stroke-width="1" class="midtown_east"/>
<path d="M 3065.6744 2408.2195 2980.5591 2362.1695 3061.9151 2220.256 3144.2457 2263.5288 3065.6744 2408.2195 Z" fill="none" stroke="#A9159C" opacity="0.6" stroke-width="1" class="midtown_east"/>
<path d="M 3096.1128 2156.2161 3142.3633 2181.9939 3054.555 2346.9461 3003.6734 2318.8572 3096.1128 2156.2161 Z" fill="none" stroke="#A9159C" opacity="0.6" stroke-width="1" class="midtown_east"/>
<path d="M 3083.1424 2087.5904 3247.7923 2178.7215 3109.1407 2377.7961 2967.5952 2297.6736 3083.1424 2087.5904 Z" fill="none" stroke="#A9159C" opacity="0.6" stroke-width="1" class="midtown_east"/>
<path d="M 2990.6739 2109.2649 3177.9791 2204.5503 3092.4857 2364.441 2904.6939 2262.2125 2990.6739 2109.2649 Z" fill="none" stroke="#A9159C" opacity="0.6" stroke-width="1" class="midtown_east"/>
<path d="M 3061.8885 2135.4997 3181.2153 2202.7063 3122.0663 2312.3701 2999.9545 2242.385 3061.8885 2135.4997 Z" fill="none" stroke="#A9159C" opacity="0.6" stroke-width="1" class="midtown_east"/>
<path d="M 2969.9073 2296.2911 3054.4928 2143.793 3198.7974 2224.3489 3107.2895 2374.5717 2969.9073 2296.2911 Z" fill="none" stroke="#A9159C" opacity="0.6" stroke-width="1" class="midtown_east"/>
<path d="M 3055.8801 2144.2532 3202.9615 2228.9536 3112.3758 2370.884 3109.6568 2380.0203 2977.3075 2299.0536 3055.8801 2144.2532 Z" fill="none" stroke="#A9159C" opacity="0.6" stroke-width="1" class="midtown_east"/>
<path d="M 3098.0366 2366.7427 2991.6438 2297.6682 3039.7165 2213.8136 2987.9418 2288.4553 3059.1262 2174.1927 3199.7187 2216.5174 3098.0366 2366.7427 Z" fill="none" stroke="#A9159C" opacity="0.6" stroke-width="1" class="midtown_east"/>
<path d="M 3209.3779 2229.2505 3114.9157 2376.7615 3042.7535 2340.8493 3127.3729 2184.0655 3209.3779 2229.2505 Z" fill="none" stroke="#A9159C" opacity="0.6" stroke-width="1" class="midtown_east"/>
<path d="M 3024.7183 2326.2229 3097.9748 2191.4536 3194.645 2245.3108 3140.8015 2324.341 3121.835 2312.1398 3089.9423 2365.5937 3024.7183 2326.2229 Z" fill="none" stroke="#A9159C" opacity="0.6" stroke-width="1" class="midtown_east"/>
<path d="M 3060.1361 2446.9245 2931.533 2357.5722 3049.8752 2164.983 3196.9529 2235.8662 3060.1361 2446.9245 Z" fill="none" stroke="#A9159C" opacity="0.6" stroke-width="1" class="midtown_east"/>
<path d="M 3091.5605 2363.9806 3004.5983 2318.8569 3119.2162 2111.5285 3131.2398 2116.1299 3207.0883 2153.8676 3091.5605 2363.9806 Z" fill="none" stroke="#A9159C" opacity="0.6" stroke-width="1" class="midtown_east"/>
<path d="M 3024.9487 2322.9979 3060.5388 2255.2666 3081.3366 2217.9464 3147.9425 2256.6173 3087.3991 2367.2071 3024.9487 2322.9979 Z" fill="none" stroke="#A9159C" opacity="0.6" stroke-width="1" class="midtown_east"/>
<path d="M 3214.5235 2231.2514 3118.392 2380.5571 2971.2958 2301.3584 3055.4156 2137.3442 3214.5235 2231.2514 Z" fill="none" stroke="#A9159C" opacity="0.6" stroke-width="1" class="midtown_east"/>
<path d="M 3048.8599 2174.5385 3137.6661 2233.4702 3069.2759 2391.9745 2952.7125 2346.8538 3048.8599 2174.5385 Z" fill="none" stroke="#A9159C" opacity="0.6" stroke-width="1" class="midtown_east"/>
<path d="M 3045.5659 2446.6986 2980.8016 2411.2375 3076.2564 2237.9866 3169.2287 2287.9345 3045.5659 2446.6986 Z" fill="none" stroke="#A9159C" opacity="0.6" stroke-width="1" class="midtown_east"/>
<path d="M 3098.2064 2192.49 3094.2974 2254.3341 3094.1928 2286.0057 3100.4256 2256.5202 3086.8855 2217.0232 3099.8251 2193.1804 3164.4634 2228.7403 3146.9043 2262.2609 3111.3195 2328.2683 3043.7856 2291.3198 3098.2064 2192.49 Z" fill="none" stroke="#A9159C" opacity="0.6" stroke-width="1" class="midtown_east"/>
<path d="M 3063.7378 2134.5779 3202.4933 2216.5161 3064.7499 2410.0628 2939.8534 2332.6922 3063.7378 2134.5779 Z" fill="none" stroke="#A9159C" opacity="0.6" stroke-width="1" class="midtown_east"/>
<path d="M 3208.0472 2226.6479 3095.2693 2388.8586 3076.7659 2380.5717 3010.1546 2343.7337 3111.837 2163.1198 3208.0472 2226.6479 Z" fill="none" stroke="#A9159C" opacity="0.6" stroke-width="1" class="midtown_east"/>
<path d="M 3106.364 2373.1899 2968.5196 2294.9093 3063.7361 2129.0506 3213.5921 2217.4322 3106.364 2373.1899 Z" fill="none" stroke="#A9159C" opacity="0.6" stroke-width="1" class="midtown_east"/>
<path d="M 2985.6302 2291.6806 3166.8621 2160.3342 3160.0455 2169.5496 3159.0076 2175.5382 3168.3644 2159.0669 3144.4337 2155.9676 3143.2754 2150.2103 3139.2305 2152.9756 3128.4754 2141.6947 3121.7642 2124.6547 3118.8739 2123.5043 3111.2519 2143.7739 3109.8632 2139.5138 3102.126 2161.7414 3100.6238 2163.4693 3098.7752 2166.3489 3095.1917 2166.6956 3093.3425 2168.1933 3085.7208 2191.8033 3080.174 2198.4845 3070.0081 2221.2899 3079.4842 2209.8857 3073.1312 2226.5864 3068.0421 2219.4479 3070.3621 2243.7468 3062.9632 2244.325 3065.2814 2262.9814 3059.0407 2270.93 3062.7412 2273.5777 3086.3266 2273.3397 3092.9143 2266.6576 3091.8807 2286.6975 3099.0503 2290.6108 3100.6715 2297.8661 3100.9046 2303.164 3102.0628 2308.8071 3110.2676 2297.1716 3101.2559 2315.6026 3087.8506 2334.9568 3085.5405 2341.8683 3075.3647 2339.1074 3062.8753 2332.2008 3044.3725 2321.1495 3023.0977 2319.3128 2998.1176 2294.4418 2985.6302 2291.6806 Z" fill="none" stroke="#A9159C" opacity="0.6" stroke-width="1" class="midtown_east"/>
<path d="M 3042.4764 2164.0639 3188.6327 2244.1619 3076.7814 2427.5674 2940.7811 2347.4348 3042.4764 2164.0639 Z" fill="none" stroke="#A9159C" opacity="0.6" stroke-width="1" class="midtown_east"/>
<path d="M 2986.0965 2307.8047 3063.7494 2171.4275 3160.8794 2228.5115 3087.8599 2362.139 2986.0965 2307.8047 Z" fill="none" stroke="#A9159C" opacity="0.6" stroke-width="1" class="midtown_east"/>
<path d="M 3075.952 2184.0808 3184.2192 2243.3089 3107.5263 2327.2644 3026.962 2278.0698 3075.952 2184.0808 Z" fill="none" stroke="#A9159C" opacity="0.6" stroke-width="1" class="midtown_east"/>
<path d="M 3211.7423 2217.4331 3108.2134 2371.3463 2972.2188 2292.1444 3063.7381 2135.4991 3211.7423 2217.4331 Z" fill="none" stroke="#A9159C" opacity="0.6" stroke-width="1" class="midtown_east"/>
<path d="M 2999.0511 2328.9938 3070.2259 2179.7168 3147.0033 2221.1467 3155.3298 2227.5925 3158.1075 2234.9618 3094.3324 2354.7652 3085.0852 2363.0614 3077.6885 2373.1998 2999.0511 2328.9938 Z" fill="none" stroke="#A9159C" opacity="0.6" stroke-width="1" class="midtown_east"/>
<path d="M 3063.3724 2441.8551 2930.6099 2368.169 3061.4248 2131.3544 3214.0558 2220.1959 3063.3724 2441.8551 Z" fill="none" stroke="#A9159C" opacity="0.6" stroke-width="1" class="midtown_east"/>
<path d="M 3219.147 2229.4066 3053.9269 2561.8935 2877.4334 2467.6984 3058.4233 2144.2524 3216.1399 2226.8744 3219.147 2229.4066 Z" fill="none" stroke="#A9159C" opacity="0.6" stroke-width="1" class="midtown_east"/>
<path d="M 3059.1795 2345.5625 2999.047 2312.4086 3086.8624 2149.31 3143.2891 2184.2967 3059.1795 2345.5625 Z" fill="none" stroke="#A9159C" opacity="0.6" stroke-width="1" class="midtown_east"/>
<path d="M 3049.9082 2274.6182 3071.188 2294.8816 3016.6158 2292.1336 3089.6548 2201.8209 3153.4834 2235.8851 3120.2167 2313.2922 3049.9082 2274.6182 Z" fill="none" stroke="#A9159C" opacity="0.6" stroke-width="1" class="midtown_east"/>
<path d="M 3060.0401 2139.1852 3221.9225 2231.2479 3238.5574 2205.4432 3116.5378 2369.5003 2971.2948 2296.7514 3060.0401 2139.1852 Z" fill="none" stroke="#A9159C" opacity="0.6" stroke-width="1" class="midtown_east"/>
<path d="M 2977.7912 2393.4997 3004.5794 2244.2265 3027.7015 2243.299 3056.3767 2255.2679 3121.1323 2288.4145 3134.0958 2325.2651 3117.456 2351.0712 3113.7604 2363.0512 3101.7432 2385.1705 3074.9249 2408.2165 3061.0618 2448.7673 3018.4995 2418.3698 3046.2554 2432.1845 2996.2944 2403.6316 2977.7912 2393.4997 Z" fill="none" stroke="#A9159C" opacity="0.6" stroke-width="1" class="midtown_east"/>
<path d="M 3056.3427 2144.7137 3201.5692 2218.3592 3064.7593 2439.5509 2930.1477 2370.012 3056.3427 2144.7137 Z" fill="none" stroke="#A9159C" opacity="0.6" stroke-width="1" class="midtown_east"/>
<path d="M 3107.2171 2174.6372 3206.4284 2226.188 3052.2841 2483.7886 2962.3053 2434.2791 3024.2559 2326.4533 3042.9766 2292.3566 3079.9522 2226.6993 3107.2171 2174.6372 Z" fill="none" stroke="#A9159C" opacity="0.6" stroke-width="1" class="midtown_east"/>
<path d="M 3061.4264 2136.4211 3180.7526 2202.0156 3050.6504 2434.9477 2930.8412 2368.6297 3061.4264 2136.4211 Z" fill="none" stroke="#A9159C" opacity="0.6" stroke-width="1" class="midtown_east"/>
<path d="M 3127.6115 2300.3899 3081.3555 2274.6082 3126.6417 2183.3819 3197.8736 2226.6526 3127.6115 2300.3899 Z" fill="none" stroke="#A9159C" opacity="0.6" stroke-width="1" class="midtown_east"/>
<path d="M 3283.0175 1773.1472 3344.0411 1791.5294 3290.2968 1948.7846 3255.0955 1967.6222 2985.4677 2338.5233 2992.5636 2340.7084 3037.8766 2301.7671 3008.985 2352.2221 2996.9589 2347.618 2993.7208 2344.8545 3283.0175 1773.1472 Z" fill="none" stroke="#A9159C" opacity="0.6" stroke-width="1" class="midtown_east"/>
<path d="M 2844.1278 2447.428 2974.9741 2204.6172 3056.3739 2246.0546 2921.3794 2487.5056 2844.1278 2447.428 Z" fill="none" stroke="#A9159C" opacity="0.6" stroke-width="1" class="midtown_east"/>
<path d="M 3100.7517 2198.1319 3184.9319 2241.3996 3106.3613 2365.8183 3011.0712 2311.4841 3073.9258 2181.5581 3100.7517 2198.1319 Z" fill="none" stroke="#A9159C" opacity="0.6" stroke-width="1" class="midtown_east"/>
<path d="M 3054.9553 2144.0232 3198.5664 2224.8097 3083.7045 2383.3338 2962.0491 2314.4901 3054.9553 2144.0232 Z" fill="none" stroke="#A9159C" opacity="0.6" stroke-width="1" class="midtown_east"/>
<path d="M 3198.7968 2222.967 3205.2726 2226.6492 3106.363 2370.4255 2979.6201 2300.4351 3058.1957 2155.768 3198.7968 2222.967 Z" fill="none" stroke="#A9159C" opacity="0.6" stroke-width="1" class="midtown_east"/>
<path d="M 3109.139 2373.1889 2969.4451 2297.6732 3056.3418 2141.95 3208.045 2222.0414 3109.139 2373.1889 Z" fill="none" stroke="#A9159C" opacity="0.6" stroke-width="1" class="midtown_east"/>
<path d="M 3059.1179 2147.4765 3178.4464 2215.6057 3121.1353 2296.2462 3101.2449 2284.7363 3069.3549 2346.9415 2973.6068 2294.9082 3059.1179 2147.4765 Z" fill="none" stroke="#A9159C" opacity="0.6" stroke-width="1" class="midtown_east"/>
<path d="M 2971.7395 2215.2128 3019.8081 2125.3786 3054.9556 2145.1747 3084.9936 2092.6563 3179.34 2144.2072 3098.9331 2286.1192 2971.7395 2215.2128 Z" fill="none" stroke="#A9159C" opacity="0.6" stroke-width="1" class="midtown_east"/>
<path d="M 3210.8266 2236.7811 3106.3683 2385.1688 2998.1281 2337.2868 3086.8734 2181.5538 3210.8266 2236.7811 Z" fill="none" stroke="#A9159C" opacity="0.6" stroke-width="1" class="midtown_east"/>
<path d="M 3055.4177 2144.2534 3125.2552 2185.225 3131.2625 2174.6281 3213.5938 2221.1175 3110.0639 2372.7278 3005.5231 2317.9353 3055.4177 2144.2534 Z" fill="none" stroke="#A9159C" opacity="0.6" stroke-width="1" class="midtown_east"/>
<path d="M 2971.7395 2215.2128 3020.7333 2126.7602 3087.7914 2161.7464 3040.19 2252.0481 2971.7395 2215.2128 Z" fill="none" stroke="#A9159C" opacity="0.6" stroke-width="1" class="midtown_east"/>
<path d="M 3107.285 2362.1322 2984.2444 2298.5913 3087.7831 2137.3337 3202.492 2213.7522 3107.285 2362.1322 Z" fill="none" stroke="#A9159C" opacity="0.6" stroke-width="1" class="midtown_east"/>
<path d="M 3104.511 2364.8975 2981.469 2295.8278 3063.7404 2142.8689 3200.6499 2230.3366 3104.511 2364.8975 Z" fill="none" stroke="#A9159C" opacity="0.6" stroke-width="1" class="midtown_east"/>
<path d="M 2982.8565 2296.2882 2984.7055 2292.6022 2985.6298 2289.8379 3060.0433 2149.3187 3202.9604 2226.6503 3108.677 2374.5712 2979.6199 2299.5137 2981.0061 2293.9851 2982.8565 2296.2882 Z" fill="none" stroke="#A9159C" opacity="0.6" stroke-width="1" class="midtown_east"/>
<path d="M 3003.695 2404.5513 3066.5603 2285.6694 3138.7196 2322.4991 3070.3112 2444.1567 3003.695 2404.5513 Z" fill="none" stroke="#A9159C" opacity="0.6" stroke-width="1" class="midtown_east"/>
<path d="M 3061.4258 2134.5786 3119.6996 2167.7231 3189.5394 2203.6239 3202.4965 2223.4259 3166.4492 2276.8793 3141.4948 2323.4194 3066.1175 2347.4032 2933.831 2276.4887 3023.0449 2125.8383 3038.3072 2137.8099 3061.4258 2134.5786 Z" fill="none" stroke="#A9159C" opacity="0.6" stroke-width="1" class="midtown_east"/>
<path d="M 3188.6323 2243.2406 3094.3362 2365.8225 2989.7963 2307.8038 3065.5985 2169.5844 3188.6323 2243.2406 Z" fill="none" stroke="#A9159C" opacity="0.6" stroke-width="1" class="midtown_east"/>
<path d="M 3067.5232 2441.7396 2938.9231 2368.9747 3066.5008 2136.7659 3195.0821 2215.9447 3067.5232 2441.7396 Z" fill="none" stroke="#A9159C" opacity="0.6" stroke-width="1" class="midtown_east"/>
<path d="M 3055.8801 2144.2532 3212.2104 2229.4099 3110.0632 2370.8849 2970.3697 2295.8303 3055.8801 2144.2532 Z" fill="none" stroke="#A9159C" opacity="0.6" stroke-width="1" class="midtown_east"/>
<path d="M 3066.5239 2171.4266 3044.3252 2161.2996 3189.5543 2236.7909 3114.6857 2363.9723 2976.843 2290.3006 3066.5239 2171.4266 Z" fill="none" stroke="#A9159C" opacity="0.6" stroke-width="1" class="midtown_east"/>
<path d="M 3039.7061 2178.3442 3059.1176 2146.5553 3052.6468 2155.7697 3150.2319 2200.4162 3140.9898 2216.5426 3064.2671 2346.0216 2968.0583 2300.4377 3009.2008 2232.2481 3019.8313 2211.5159 3026.3019 2199.0767 3032.7741 2193.0866 3035.5479 2190.3219 3039.7061 2178.3442 Z" fill="none" stroke="#A9159C" opacity="0.6" stroke-width="1" class="midtown_east"/>
<path d="M 3075.422 2150.247 3200.0254 2217.9223 3186.0509 2263.9783 3094.516 2353.3895 2990.9045 2304.5852 3075.422 2150.247 Z" fill="none" stroke="#A9159C" opacity="0.6" stroke-width="1" class="midtown_east"/>
<path d="M 3056.3429 2145.6349 3208.9721 2226.6475 3028.7116 2549.2285 2876.0452 2462.6301 3056.3429 2145.6349 Z" fill="none" stroke="#A9159C" opacity="0.6" stroke-width="1" class="midtown_east"/>
<path d="M 3063.7393 2139.184 3207.1223 2226.6484 3108.211 2364.8962 2982.3931 2292.1421 3063.7393 2139.184 Z" fill="none" stroke="#A9159C" opacity="0.6" stroke-width="1" class="midtown_east"/>
<path d="M 3208.9703 2222.9622 3072.1572 2431.2549 3036.1147 2554.7562 2912.1273 2481.9777 3096.1126 2155.7554 3208.9703 2222.9622 Z" fill="none" stroke="#A9159C" opacity="0.6" stroke-width="1" class="midtown_east"/>
<path d="M 3097.9762 2195.369 3162.7292 2228.5107 3160.8844 2240.4886 3061.0494 2409.1425 2998.1363 2370.4584 3097.9762 2195.369 Z" fill="none" stroke="#A9159C" opacity="0.6" stroke-width="1" class="midtown_east"/>
<path d="M 2975.9191 2294.9077 3044.3239 2156.6934 3197.8833 2247.843 3111.9138 2372.2664 2975.9191 2294.9077 Z" fill="none" stroke="#A9159C" opacity="0.6" stroke-width="1" class="midtown_east"/>
<path d="M 3059.1159 2141.0279 3022.1451 2217.5037 3064.6646 2141.0262 3146.9892 2186.1377 3135.9027 2215.6233 3062.8795 2345.5614 3040.6762 2333.5896 2973.1437 2292.1442 3059.1159 2141.0279 Z" fill="none" stroke="#A9159C" opacity="0.6" stroke-width="1" class="midtown_east"/>
<path d="M 3056.3427 2144.7137 3206.1974 2226.6488 3127.6298 2348.303 2986.0879 2270.9498 3056.3427 2144.7137 Z" fill="none" stroke="#A9159C" opacity="0.6" stroke-width="1" class="midtown_east"/>
<path d="M 3111.9124 2368.5806 2989.7952 2303.1969 3129.385 2102.3126 3243.1686 2179.6451 3245.9384 2170.4311 3153.516 2315.1219 3111.9124 2368.5806 Z" fill="none" stroke="#A9159C" opacity="0.6" stroke-width="1" class="midtown_east"/>
<path d="M 3190.4825 2244.1611 3033.3381 2551.0705 2876.0463 2471.8455 3044.3266 2165.9059 3190.4825 2244.1611 Z" fill="none" stroke="#A9159C" opacity="0.6" stroke-width="1" class="midtown_east"/>
<path d="M 2993.5359 2472.746 3049.9768 2502.2207 2920.2138 2431.5224 3062.5939 2172.8097 3193.72 2245.0809 3050.4384 2498.995 2993.5359 2472.746 Z" fill="none" stroke="#A9159C" opacity="0.6" stroke-width="1" class="midtown_east"/>
<path d="M 3011.0856 2366.7693 2942.6275 2328.0847 3038.7719 2145.6402 3159.0239 2214.6927 3011.0856 2366.7693 Z" fill="none" stroke="#A9159C" opacity="0.6" stroke-width="1" class="midtown_east"/>
<path d="M 3088.2496 2149.3095 3101.6503 2124.4318 3175.6496 2164.4761 3101.2508 2301.3211 3002.267 2243.3057 3052.6446 2148.3998 3079.9315 2164.5128 3088.2496 2149.3095 Z" fill="none" stroke="#A9159C" opacity="0.6" stroke-width="1" class="midtown_east"/>
<path d="M 3110.0654 2376.8743 3007.373 2317.9348 3095.1875 2154.8345 3209.8978 2228.4897 3110.0654 2376.8743 Z" fill="none" stroke="#A9159C" opacity="0.6" stroke-width="1" class="midtown_east"/>
<path d="M 3110.0641 2373.1885 2987.0214 2307.8045 3061.9007 2174.1918 3196.0331 2246.9225 3110.0641 2373.1885 Z" fill="none" stroke="#A9159C" opacity="0.6" stroke-width="1" class="midtown_east"/>
<path d="M 3170.1293 2231.2715 3089.7086 2358.4526 2931.5187 2276.4892 3011.955 2153.9387 3170.1293 2231.2715 Z" fill="none" stroke="#A9159C" opacity="0.6" stroke-width="1" class="midtown_east"/>
<path d="M 3085.0958 2394.391 3010.1572 2353.8694 3112.7595 2156.6707 3179.3672 2206.3923 3204.3464 2223.8857 3138.7185 2319.7349 3095.2705 2392.5445 3085.0958 2394.391 Z" fill="none" stroke="#A9159C" opacity="0.6" stroke-width="1" class="midtown_east"/>
<path d="M 3200.6584 2248.7631 3110.9871 2367.6595 3109.1401 2375.9532 2992.5703 2304.1176 3063.7489 2169.585 3178.4565 2238.6384 3200.6584 2248.7631 Z" fill="none" stroke="#A9159C" opacity="0.6" stroke-width="1" class="midtown_east"/>
<path d="M 3211.0913 2225.4801 3113.5578 2373.0426 3043.2461 2337.5906 3130.61 2180.3716 3211.0913 2225.4801 Z" fill="none" stroke="#A9159C" opacity="0.6" stroke-width="1" class="midtown_east"/>
<path d="M 3077.6964 2397.1579 2975.9314 2350.1919 3088.7158 2160.3642 3201.5731 2226.6509 3077.6964 2397.1579 Z" fill="none" stroke="#A9159C" opacity="0.6" stroke-width="1" class="midtown_east"/>
<path d="M 3059.1285 2181.5628 3160.8794 2228.5115 3083.2317 2352.9262 2987.0223 2311.4901 3059.1285 2181.5628 Z" fill="none" stroke="#A9159C" opacity="0.6" stroke-width="1" class="midtown_east"/>
<path d="M 3213.5938 2221.1175 3060.1338 2439.5524 2931.5348 2367.7081 3054.4897 2133.6596 3213.5938 2221.1175 Z" fill="none" stroke="#A9159C" opacity="0.6" stroke-width="1" class="midtown_east"/>
<path d="M 3207.1215 2224.8057 3092.4964 2395.3099 2991.6537 2339.1312 3085.0159 2158.523 3207.1215 2224.8057 Z" fill="none" stroke="#A9159C" opacity="0.6" stroke-width="1" class="midtown_east"/>
<path d="M 2907.4798 2336.3833 3008.2527 2141.9636 3200.6563 2244.1564 3079.5557 2424.8019 2907.4798 2336.3833 Z" fill="none" stroke="#A9159C" opacity="0.6" stroke-width="1" class="midtown_east"/>
<path d="M 3127.0867 2137.78 3218.2023 2188.1791 3146.3477 2315.5855 3059.1542 2264.2502 3127.0867 2137.78 Z" fill="none" stroke="#A9159C" opacity="0.6" stroke-width="1" class="midtown_east"/>
<path d="M 2878.3582 2464.9336 3065.1247 2133.6562 3215.4453 2224.8018 3038.889 2550.1472 2880.6711 2465.3941 3032.8768 2555.6787 2878.3582 2464.9336 Z" fill="none" stroke="#A9159C" opacity="0.6" stroke-width="1" class="midtown_east"/>
<path d="M 3119.7195 2220.6967 3081.7931 2200.4417 3130.7784 2118.4331 3178.8774 2143.7468 3133.595 2227.1405 3119.7195 2220.6967 Z" fill="none" stroke="#A9159C" opacity="0.6" stroke-width="1" class="midtown_east"/>
<path d="M 3055.8803 2144.7138 3209.4342 2225.9563 3065.6858 2444.1582 2932.46 2368.6294 3055.8803 2144.7138 Z" fill="none" stroke="#A9159C" opacity="0.6" stroke-width="1" class="midtown_east"/>
<path d="M 3186.5373 2242.9402 3113.9332 2355.0153 2990.8902 2279.498 3061.1502 2169.8428 3186.5373 2242.9402 Z" fill="none" stroke="#A9159C" opacity="0.6" stroke-width="1" class="midtown_east"/>
<path d="M 3055.8801 2144.2532 3210.3605 2228.9501 3108.215 2375.9536 2970.8324 2297.2122 3055.8801 2144.2532 Z" fill="none" stroke="#A9159C" opacity="0.6" stroke-width="1" class="midtown_east"/>
<path d="M 3108.2137 2372.2677 3026.7987 2323.4581 3097.9739 2188.9201 3097.051 2194.4481 3194.1808 2241.3954 3108.2137 2372.2677 Z" fill="none" stroke="#A9159C" opacity="0.6" stroke-width="1" class="midtown_east"/>
<path d="M 2997.2029 2336.1352 3036.9563 2264.0265 3142.4183 2319.7334 3098.9705 2392.0825 2997.2029 2336.1352 Z" fill="none" stroke="#A9159C" opacity="0.6" stroke-width="1" class="midtown_east"/>
<path d="M 2969.4449 2296.7518 3055.4179 2144.714 3150.2302 2196.2705 3066.1183 2349.7068 2969.4449 2296.7518 Z" fill="none" stroke="#A9159C" opacity="0.6" stroke-width="1" class="midtown_east"/>
<path d="M 2967.5951 2296.7522 3055.4148 2134.5805 3207.1193 2220.1992 3105.439 2373.1902 2967.5951 2296.7522 Z" fill="none" stroke="#A9159C" opacity="0.6" stroke-width="1" class="midtown_east"/>
<path d="M 3067.5059 2350.167 2972.2198 2296.7512 3044.3258 2163.1421 3138.6769 2214.7009 3067.5059 2350.167 Z" fill="none" stroke="#A9159C" opacity="0.6" stroke-width="1" class="midtown_east"/>
<path d="M 3204.3528 2237.7054 3065.5903 2143.7896 3116.5361 2364.8931 2986.0926 2291.2198 3068.3667 2150.2373 3114.6772 2340.9365 3204.3528 2237.7054 Z" fill="none" stroke="#A9159C" opacity="0.6" stroke-width="1" class="midtown_east"/>
<path d="M 3191.6387 2244.3909 3110.9893 2373.8793 2970.6013 2297.673 3046.638 2163.8324 3191.6387 2244.3909 Z" fill="none" stroke="#A9159C" opacity="0.6" stroke-width="1" class="midtown_east"/>
<path d="M 3108.215 2375.9536 2971.2949 2297.2121 3059.114 2135.04 3211.7443 2221.579 3108.215 2375.9536 Z" fill="none" stroke="#A9159C" opacity="0.6" stroke-width="1" class="midtown_east"/>
<path d="M 3014.7292 2153.0167 3187.7037 2234.9491 3106.3613 2365.8183 2912.0925 2258.0654 2983.2829 2140.1272 3014.7292 2153.0167 Z" fill="none" stroke="#A9159C" opacity="0.6" stroke-width="1" class="midtown_east"/>
<path d="M 3054.4922 2141.9506 3212.6724 2228.4884 3109.1384 2371.346 2965.7452 2296.7526 3054.4922 2141.9506 Z" fill="none" stroke="#A9159C" opacity="0.6" stroke-width="1" class="midtown_east"/>
<path d="M 3102.596 2182.9302 3202.041 2238.6278 3064.7601 2442.3155 2981.0295 2396.7241 3023.5622 2326.6839 2988.8706 2304.5792 3010.1358 2271.4046 3042.9753 2287.98 3102.596 2182.9302 Z" fill="none" stroke="#A9159C" opacity="0.6" stroke-width="1" class="midtown_east"/>
<path d="M 3012.9006 2233.1684 3132.2312 2287.4889 3069.3684 2388.8673 2964.8286 2336.373 3012.9006 2233.1684 Z" fill="none" stroke="#A9159C" opacity="0.6" stroke-width="1" class="midtown_east"/>
<path d="M 3056.8052 2145.1742 3208.2796 2229.1814 3208.9733 2229.1811 3107.2897 2375.0324 2970.3701 2297.673 3056.8052 2145.1742 Z" fill="none" stroke="#A9159C" opacity="0.6" stroke-width="1" class="midtown_east"/>
<path d="M 3057.2677 2145.6346 3092.415 2160.363 3215.4488 2232.1723 3066.6121 2447.844 2917.6599 2369.5533 3057.2677 2145.6346 Z" fill="none" stroke="#A9159C" opacity="0.6" stroke-width="1" class="midtown_east"/>
<path d="M 3127.6115 2300.3899 2969.4276 2216.5953 3023.0443 2123.5353 3055.4179 2144.714 3092.3879 2082.0602 3158.0592 2118.8827 3208.0092 2145.576 3127.6115 2300.3899 Z" fill="none" stroke="#A9159C" opacity="0.6" stroke-width="1" class="midtown_east"/>
<path d="M 3050.8003 2165.904 3198.8056 2242.3146 3036.1152 2556.5994 2880.6716 2470.0019 3050.8003 2165.904 Z" fill="none" stroke="#A9159C" opacity="0.6" stroke-width="1" class="midtown_east"/>
<path d="M 3219.5895 2187.9482 3219.5896 2188.1785 3101.2249 2228.5346 3081.3374 2220.2497 3123.6222 2146.7633 3219.5895 2187.9482 Z" fill="none" stroke="#A9159C" opacity="0.6" stroke-width="1" class="midtown_east"/>
<path d="M 3080.8939 2277.0269 3056.38 2265.7482 3068.6288 2246.281 3134.7732 2283.4569 3080.4664 2381.9527 3013.3924 2345.2301 3057.5357 2264.481 3080.8939 2277.0269 Z" fill="none" stroke="#A9159C" opacity="0.6" stroke-width="1" class="midtown_east"/>
<path d="M 3075.8405 2379.6506 2948.3858 2315.8621 3106.2482 2052.5783 3234.631 2109.8826 3075.8405 2379.6506 Z" fill="none" stroke="#A9159C" opacity="0.6" stroke-width="1" class="midtown_east"/>
<path d="M 3074.8421 2155.7627 3159.9445 2204.558 3037.0033 2427.5796 2987.0422 2396.262 3061.0007 2253.4238 3070.219 2158.5279 3074.8421 2155.7627 Z" fill="none" stroke="#A9159C" opacity="0.6" stroke-width="1" class="midtown_east"/>
<path d="M 3059.5763 2134.5792 3204.3432 2216.9759 3111.9151 2375.9522 2972.6819 2295.3691 3059.5763 2134.5792 Z" fill="none" stroke="#A9159C" opacity="0.6" stroke-width="1" class="midtown_east"/>
<path d="M 3198.8069 2245.0786 3075.8554 2424.8032 2991.6645 2384.2818 3096.1249 2190.7633 3198.8069 2245.0786 Z" fill="none" stroke="#A9159C" opacity="0.6" stroke-width="1" class="midtown_east"/>
<path d="M 3238.5454 2181.49 3127.6196 2321.582 3047.1354 2281.0686 3131.2452 2129.9481 3238.5454 2181.49 Z" fill="none" stroke="#A9159C" opacity="0.6" stroke-width="1" class="midtown_east"/>
<path d="M 3210.8209 2224.804 3109.139 2373.1889 2969.4445 2294.9091 3056.3427 2144.7137 3210.8209 2224.804 Z" fill="none" stroke="#A9159C" opacity="0.6" stroke-width="1" class="midtown_east"/></svg>