<?xml version="1.0"?><svg xmlns="http://www.w3.org/2000/svg" version="1.2" baseProfile="tiny" width="6000" height="5918" viewBox="0 0 6000 5918" stroke-linecap="round" stroke-linejoin="round"><path d="M 4187.4943 933.765 4193.3155 945.4005 4213.6064 926.7383 4238.7673 922.099 4254.2292 916.7845 4258.7596 909.9219 4260.9363 866.5334 4270.0645 860.7316 4279.919 850.1137 4300.205 830.7615 4323.3855 830.5952 4348.0831 826.8742 4387.8931 823.2653 4415.596 822.0673 4445.3618 826.3371 4444.7887 848.0671 4451.6496 885.09 4442.3625 902.8998 4431.1319 942.1958 4437.3188 979.4312 4433.6433 992.9836 4401.0655 1025.9624 4320.9849 1038.8566 4221.6375 1054.7536 4192.9842 947.1301 4189.2775 939.0851 4187.4943 933.765 Z" fill="none" stroke="#E71E24" opacity="0.6" stroke-width="1" class="morris_park"/>
<path d="M 4442.1245 832.3376 4431.257 953.7998 4396.2356 998.026 4314.0713 1023.9283 4269.6107 946.711 4252.8127 837.2552 4434.7414 835.1106 4442.1245 832.3376 Z" fill="none" stroke="#E71E24" opacity="0.6" stroke-width="1" class="morris_park"/>
<path d="M 4191.8623 838.2694 4319.3011 834.388 4395.0288 834.2601 4454.1202 826.7964 4456.053 874.632 4439.5305 931.7035 4434.0735 979.5574 4417.5155 1018.2318 4397.2262 1036.6702 4362.1253 1036.7303 4323.3265 1034.9549 4284.5487 1046.0602 4255.013 1060.8301 4230.9874 1055.3467 4205.1315 1060.9076 4160.8278 1084.8993 4151.5497 1057.3072 4169.7227 854.8622 4191.8623 838.2694 Z" fill="none" stroke="#E71E24" opacity="0.6" stroke-width="1" class="morris_park"/>
<path d="M 4194.8756 998.3528 4167.8647 847.5051 4307.2969 835.3277 4436.5688 824.0678 4439.4912 909.6224 4405.5123 1021.0132 4219.9013 1054.4437 4194.8756 998.3528 Z" fill="none" stroke="#E71E24" opacity="0.6" stroke-width="1" class="morris_park"/>
<path d="M 4204.5657 992.8173 4327.9936 785.6168 4439.0229 905.943 4440.8701 905.9398 4204.5657 992.8173 Z" fill="none" stroke="#E71E24" opacity="0.6" stroke-width="1" class="morris_park"/>
<path d="M 4157.7005 843.8403 4323.0012 838.0618 4386.9435 965.8382 4217.0536 1004.7598 4157.7005 843.8403 Z" fill="none" stroke="#E71E24" opacity="0.6" stroke-width="1" class="morris_park"/>
<path d="M 4452.1777 773.4438 4416.479 953.8258 4341.7391 998.1187 4276.0037 901.6182 4262.0406 832.6407 4303.5909 827.9741 4342.2857 772.7142 4452.1777 773.4438 Z" fill="none" stroke="#E71E24" opacity="0.6" stroke-width="1" class="morris_park"/>
<path d="M 4324.0236 897.8599 4342.0332 897.83 4351.7385 902.4138 4363.7746 919.8743 4308.878 954.9282 4248.8792 978.4869 4187.0196 995.1442 4190.1474 925.673 4188.6912 878.7536 4195.5801 853.9033 4298.1052 862.0221 4316.1043 856.0127 4324.0236 897.8599 Z" fill="none" stroke="#E71E24" opacity="0.6" stroke-width="1" class="morris_park"/>
<path d="M 4258.3458 832.1866 4442.556 815.3177 4500.3114 835.4522 4464.3849 885.6571 4434.0051 940.9139 4404.5287 986.5101 4357.0061 1013.7352 4320.0731 1022.5382 4309.4416 1017.0348 4274.7296 971.0851 4261.247 914.5223 4258.3458 832.1866 Z" fill="none" stroke="#E71E24" opacity="0.6" stroke-width="1" class="morris_park"/>
<path d="M 4319.298 832.5481 4413.7628 985.1138 4329.7772 1025.7427 4297.4374 1019.3548 4269.712 1010.198 4221.7246 1038.798 4184.6127 930.2816 4190.0097 834.5923 4201.0947 836.4154 4319.298 832.5481 Z" fill="none" stroke="#E71E24" opacity="0.6" stroke-width="1" class="morris_park"/>
<path d="M 4445.8087 826.8113 4454.2241 884.7554 4438.5701 911.004 4418.8131 968.0831 4316.8455 1025.7641 4218.0262 1036.5033 4164.1699 847.0506 4170.6174 835.5414 4354.8383 823.7492 4445.8087 826.8113 Z" fill="none" stroke="#E71E24" opacity="0.6" stroke-width="1" class="morris_park"/>
<path d="M 4361.9352 924.4776 4352.201 902.8731 4366.5563 926.3099 4401.5284 987.4354 4330.002 1022.0617 4320.5114 1008.2753 4295.2717 965.5314 4278.6015 937.7259 4260.3154 909.4635 4262.9644 832.8693 4312.8365 834.3987 4361.9352 924.4776 Z" fill="none" stroke="#E71E24" opacity="0.6" stroke-width="1" class="morris_park"/>
<path d="M 4318.3654 827.0299 4368.3957 921.7065 4208.7264 995.5713 4170.6394 850.2609 4177.1178 859.4511 4178.9331 838.2888 4318.3654 827.0299 Z" fill="none" stroke="#E71E24" opacity="0.6" stroke-width="1" class="morris_park"/>
<path d="M 4241.8545 916.3929 4414.5207 890.3458 4424.8645 995.2156 4253.09 1012.9848 4241.8545 916.3929 Z" fill="none" stroke="#E71E24" opacity="0.6" stroke-width="1" class="morris_park"/>
<path d="M 4412.8344 982.3551 4414.7557 1024.6777 4116.5285 1113.4907 4133.0725 1055.4938 4181.6982 834.6048 4526.1688 834.9442 4412.8344 982.3551 Z" fill="none" stroke="#E71E24" opacity="0.6" stroke-width="1" class="morris_park"/>
<path d="M 3288.1522 1578.6853 3305.6919 1542.3091 3336.1541 1481.9906 3337.0844 1492.1166 3365.506 1498.1979 3387.2314 1509.8066 3402.2546 1517.852 3418.8953 1525.6659 3448.0218 1545.8994 3485.4627 1559.6815 3489.1808 1587.299 3481.798 1602.0358 3455.0301 1650.8545 3445.8119 1685.3901 3388.0207 1655.5049 3323.7618 1623.3191 3280.7701 1600.3257 3288.1522 1578.6853 Z" fill="none" stroke="#E71E24" opacity="0.6" stroke-width="1" class="morris_park"/>
<path d="M 4302.9761 1017.2754 4260.4284 835.1732 4445.3453 825.8921 4421.5731 961.8676 4421.8287 975.8986 4420.6951 987.862 4315.6924 1026.6861 4302.9761 1017.2754 Z" fill="none" stroke="#E71E24" opacity="0.6" stroke-width="1" class="morris_park"/>
<path d="M 4250.6341 919.8293 4379.5679 838.8866 4418.782 950.3715 4265.7739 1002.3832 4250.6341 919.8293 Z" fill="none" stroke="#E71E24" opacity="0.6" stroke-width="1" class="morris_park"/>
<path d="M 4154.2599 1015.896 4134.6058 839.2742 4152.8771 704.0217 4231.3745 710.3417 4327.387 698.2296 4437.2899 709.9989 4527.775 706.1547 4607.3029 765.7942 4565.9079 849.5887 4524.5484 956.3906 4510.8848 1059.471 4452.6816 1054.976 4355.6625 1038.5816 4225.4607 1065.4773 4135.9159 1105.1806 4154.2599 1015.896 Z" fill="none" stroke="#E71E24" opacity="0.6" stroke-width="1" class="morris_park"/>
<path d="M 4196.6713 964.3061 4208.6236 928.405 4265.8561 908.9947 4375.6477 841.6532 4397.8599 869.2146 4398.8552 910.6137 4433.953 911.4723 4433.9628 916.9925 4435.9225 980.4743 4409.2007 1017.3262 4224.5142 1050.7559 4196.6713 964.3061 Z" fill="none" stroke="#E71E24" opacity="0.6" stroke-width="1" class="morris_park"/>
<path d="M 4189.0904 837.3536 4402.3849 815.8483 4546.5034 844.1057 4506.2695 1061.3199 4413.8224 1019.1585 4220.825 1054.4423 4185.5225 921.0797 4189.0904 837.3536 Z" fill="none" stroke="#E71E24" opacity="0.6" stroke-width="1" class="morris_park"/>
<path d="M 4322.6212 1027.3648 4215.5474 926.3243 4330.442 869.7889 4385.789 831.5162 4385.0813 822.7778 4445.3457 826.1221 4452.379 885.9087 4432.8286 928.4951 4429.3996 948.0526 4403.601 984.2114 4404.2989 987.2006 4358.3897 1012.5827 4355.8445 1009.5966 4322.6212 1027.3648 Z" fill="none" stroke="#E71E24" opacity="0.6" stroke-width="1" class="morris_park"/>
<path d="M 4229.1371 1053.5092 4180.8852 908.2061 4186.3074 829.0781 4441.2141 839.699 4415.681 1025.5962 4229.1371 1053.5092 Z" fill="none" stroke="#E71E24" opacity="0.6" stroke-width="1" class="morris_park"/>
<path d="M 4409.1639 963.8758 4406.1147 980.7493 4218.704 1039.9455 4200.1541 990.2864 4185.447 833.5955 4377.5289 828.6867 4409.1639 963.8758 Z" fill="none" stroke="#E71E24" opacity="0.6" stroke-width="1" class="morris_park"/>
<path d="M 4277.3497 974.9623 4269.7956 953.0687 4251.2676 917.9056 4241.1104 894.9039 4241.4735 831.8839 4394.2705 824.0665 4422.371 959.6925 4403.78 987.5905 4356.1384 1012.7455 4317.3603 1028.353 4277.3497 974.9623 Z" fill="none" stroke="#E71E24" opacity="0.6" stroke-width="1" class="morris_park"/>
<path d="M 4217.0451 999.239 4206.1885 996.9554 4202.7044 983.619 4197.8279 965.6845 4205.6704 960.152 4208.8732 940.5955 4213.6978 924.717 4293.4428 834.4303 4279.5924 835.8326 4314.218 832.0965 4388.5437 822.3119 4444.43 830.4936 4451.9127 883.3795 4438.5783 915.6042 4431.2676 959.7803 4428.5146 969.9062 4410.077 990.1809 4394.8573 1002.1689 4367.63 1014.6374 4334.3949 1025.2749 4290.5395 1037.769 4272.9934 1040.5577 4250.833 1046.1139 4226.8349 1058.1137 4222.6654 1049.8385 4214.313 1024.547 4209.6719 1009.8318 4205.9632 1000.6362 4210.5724 994.6484 4217.0451 999.239 Z" fill="none" stroke="#E71E24" opacity="0.6" stroke-width="1" class="morris_park"/>
<path d="M 4365.6249 921.7112 4259.4844 967.889 4238.0437 841.8782 4313.7555 831.6373 4365.6249 921.7112 Z" fill="none" stroke="#E71E24" opacity="0.6" stroke-width="1" class="morris_park"/>
<path d="M 4364.5907 924.5881 4364.0139 924.8191 4347.2771 995.6941 4277.279 976.9466 4287.0776 895.9652 4364.5907 924.5881 Z" fill="none" stroke="#E71E24" opacity="0.6" stroke-width="1" class="morris_park"/>
<path d="M 4189.548 834.593 4450.4213 824.0432 4402.2778 1020.0987 4224.0623 1057.1978 4226.3645 1052.5933 4189.548 834.593 Z" fill="none" stroke="#E71E24" opacity="0.6" stroke-width="1" class="morris_park"/>
<path d="M 4286.2774 972.4466 4240.9439 924.6748 4226.1663 924.6978 4202.1612 930.255 4183.7085 943.1638 4209.6247 979.0079 4264.0324 923.7183 4347.1005 890.4613 4360.0973 930.0011 4325.953 947.5395 4286.2774 972.4466 Z" fill="none" stroke="#E71E24" opacity="0.6" stroke-width="1" class="morris_park"/>
<path d="M 4211.3986 931.1609 4378.4198 842.5684 4422.946 954.7345 4287.2381 995.4478 4211.3986 931.1609 Z" fill="none" stroke="#E71E24" opacity="0.6" stroke-width="1" class="morris_park"/>
<path d="M 4447.9601 824.8143 4456.2328 888.8918 4434.1431 931.713 4404.5367 991.1107 4323.3151 1028.0538 4303.9039 1019.8043 4289.0907 998.6653 4266.8486 952.2358 4205.8417 921.1639 4188.0378 904.822 4188.0112 836.0521 4447.9601 824.8143 Z" fill="none" stroke="#E71E24" opacity="0.6" stroke-width="1" class="morris_park"/>
<path d="M 4467.1223 867.2521 4439.2677 913.7629 4430.3237 948.281 4405.2258 989.0392 4341.1083 1035.1554 4301.36 1017.5081 4278.1992 974.7599 4265.2348 953.8485 4258.0672 947.8794 4204.9169 920.3602 4187.5735 903.1358 4189.5466 833.673 4528.4854 839.0798 4466.8873 864.9525 4467.1223 867.2521 Z" fill="none" stroke="#E71E24" opacity="0.6" stroke-width="1" class="morris_park"/>
<path d="M 4559.4292 842.2413 4511.7472 1026.3433 4468.3932 1059.5487 4449.8973 1047.6196 4387.8703 967.6768 4321.1769 851.8644 4306.3479 819.69 4448.5644 818.5268 4559.4292 842.2413 Z" fill="none" stroke="#E71E24" opacity="0.6" stroke-width="1" class="morris_park"/>
<path d="M 4277.7405 976.7158 4261.4654 833.9066 4271.1615 833.4312 4307.5222 831.8775 4333.0306 829.7655 4356.2294 827.1967 4386.4686 823.9253 4407.0156 823.4298 4446.389 828.5352 4502.6276 839.4728 4483.3671 849.2828 4464.4678 867.6018 4451.9195 887.1745 4439.7315 914.9122 4432.2538 929.8762 4429.5088 944.4871 4421.6926 964.1676 4405.6864 988.3483 4387.1215 1002.1822 4358.3902 1012.9278 4355.4973 1009.1371 4346.6173 1015.363 4328.155 1022.2948 4317.1936 1026.7987 4305.8694 1021.4114 4300.323 1018.775 4277.7405 976.7158 Z" fill="none" stroke="#E71E24" opacity="0.6" stroke-width="1" class="morris_park"/>
<path d="M 4444.8852 826.8129 4452.3819 887.5187 4436.7238 911.4673 4429.4065 951.9629 4403.6026 985.1315 4314.9996 1026.6872 4298.3596 1018.4331 4277.9734 977.9806 4267.3122 953.3852 4241.8909 939.6243 4239.5513 920.0767 4238.9543 833.5971 4310.9819 829.8019 4372.8442 822.3388 4444.8852 826.8129 Z" fill="none" stroke="#E71E24" opacity="0.6" stroke-width="1" class="morris_park"/>
<path d="M 4373.1261 852.2372 4320.8131 911.2057 4322.661 911.6627 4310.2009 916.7434 4373.1261 852.2372 Z" fill="none" stroke="#E71E24" opacity="0.6" stroke-width="1" class="morris_park"/>
<path d="M 4137.8395 840.1895 4174.2984 826.7962 4307.7354 821.0676 4312.8282 829.3389 4320.7167 852.7852 4365.6296 924.4714 4277.9712 976.6005 4205.0381 999.7175 4180.1086 1006.1961 4154.7421 1029.6975 4141.8338 1045.8192 4153.7459 980.472 4151.3495 921.1306 4137.8395 840.1895 Z" fill="none" stroke="#E71E24" opacity="0.6" stroke-width="1" class="morris_park"/>
<path d="M 4347.1144 898.7415 4402.3994 986.8892 4321.1751 1021.9917 4251.7835 949.4148 4347.1144 898.7415 Z" fill="none" stroke="#E71E24" opacity="0.6" stroke-width="1" class="morris_park"/>
<path d="M 4392.2519 830.5851 4388.6878 906.0311 4389.6828 947.4318 4341.6914 969.5953 4284.476 1000.973 4258.5913 987.2126 4221.6109 965.188 4227.1185 943.0975 4239.9944 908.1155 4252.9013 893.3747 4248.2545 874.9818 4226.0737 864.8964 4227.8865 842.814 4236.1867 835.4413 4392.2519 830.5851 Z" fill="none" stroke="#E71E24" opacity="0.6" stroke-width="1" class="morris_park"/>
<path d="M 4301.582 728.627 4387.4777 739.5215 4436.6716 882.0266 4324.0768 930.0613 4301.582 728.627 Z" fill="none" stroke="#E71E24" opacity="0.6" stroke-width="1" class="morris_park"/>
<path d="M 4222.7837 786.4716 4345.9102 869.0731 4366.4887 911.5313 4309.1469 869.2812 4215.8237 839.99 4222.7837 786.4716 Z" fill="none" stroke="#E71E24" opacity="0.6" stroke-width="1" class="morris_park"/>
<path d="M 4356.0675 847.2366 4299.1043 959.8313 4319.4066 949.1021 4304.2988 959.2478 4298.9956 963.9719 4305.6856 960.0506 4323.366 950.0194 4310.241 937.7376 4303.4867 936.9411 4311.1891 916.9173 4313.1474 914.269 4296.8948 898.5944 4297.3551 897.6736 4307.1671 897.0826 4306.1275 896.7393 4315.2387 891.2042 4319.8599 893.2667 4310.1421 880.8624 4258.3413 857.9018 4320.1937 843.0821 4292.5075 855.0871 4304.5134 855.0676 4355.3743 894.5433 4355.3293 867.8631 4320.1694 828.3627 4365.4679 855.886 4356.0675 847.2366 Z" fill="none" stroke="#E71E24" opacity="0.6" stroke-width="1" class="morris_park"/>
<path d="M 4318.0005 1025.9922 4249.0178 919.8318 4367.12 850.4075 4416.9694 970.1565 4318.0005 1025.9922 Z" fill="none" stroke="#E71E24" opacity="0.6" stroke-width="1" class="morris_park"/>
<path d="M 4193.7127 840.4744 4546.8593 836.9293 4507.3608 1051.932 4204.3752 1049.4985 4193.7127 840.4744 Z" fill="none" stroke="#E71E24" opacity="0.6" stroke-width="1" class="morris_park"/>
<path d="M 4181.7189 848.4044 4189.0723 825.3941 4322.9601 813.223 4412.5659 828.7099 4426.5546 905.9651 4441.4905 995.1862 4407.3501 1015.4892 4350.1109 1033.07 4223.5905 1050.7573 4203.1816 993.7395 4183.6573 909.1219 4181.7189 848.4044 Z" fill="none" stroke="#E71E24" opacity="0.6" stroke-width="1" class="morris_park"/>
<path d="M 4524.0417 834.6483 4515.8997 837.6083 4508.7421 837.3916 4498.5465 839.7322 4493.11 843.1346 4488.8437 845.9024 4484.0757 848.207 4478.6578 852.4718 4475.085 855.6982 4472.5873 857.0415 4475.2493 860.8317 4480.0856 864.7486 4474.9024 871.198 4470.9869 876.4951 4467.3018 881.5618 4464.6293 888.3193 4463.0193 891.7723 4459.1391 899.4671 4454.19 907.8713 4450.8539 914.5476 4448.7851 919.7265 4444.9099 926.7995 4435.739 921.8513 4433.5595 929.7907 4430.0793 934.3479 4429.5161 942.2845 4429.5262 948.0349 4427.2251 952.5243 4424.0013 957.5905 4421.3546 962.5406 4416.7253 970.2761 4409.6518 977.4175 4403.0573 985.3181 4404.479 986.6988 4399.2922 991.7684 4394.4552 994.7491 4385.5507 1000.6612 4376.7196 1005.3163 4367.7246 1008.8104 4358.0762 1012.0504 4355.7633 1009.869 4346.1783 1015.1418 4337.1779 1018.4924 4327.4274 1021.7558 4318.4546 1026.2671 4300.7417 1017.9864 4295.3487 1009.8557 4289.8864 1002.3637 4286.066 996.044 4276.5958 998.5286 4269.9193 1000.7698 4259.8824 1003.3827 4260.3513 1007.8676 4261.9734 1011.4306 4257.359 1013.9682 4246.2338 1020.21 4240.9902 1022.7643 4236.2586 1024.267 4225.4037 1028.6706 4215.9457 1035.1262 4211.2993 1016.9604 4206.3184 996.1026 4197.0919 964.0046 4192.3863 945.6957 4188.3001 929.5288 4188.4811 906.4125 4199.3556 914.6896 4205.8507 921.4624 4215.9088 925.5604 4238.5231 919.7938 4248.8737 917.5914 4253.0786 915.8664 4261.9603 910.9071 4270.639 905.3108 4288.2858 895.8607 4304.8676 885.0024 4322.6423 874.6999 4332.3792 868.7271 4349.9587 857.5381 4358.7608 852.4787 4367.4917 848.0806 4379.0053 838.2967 4385.9654 831.1014 4386.4147 823.856 4401.6379 822.8236 4415.2703 823.559 4428.456 824.874 4440.7093 826.978 4445.8927 827.2284 4454.5532 828.7079 4466.3302 829.9517 4479.5685 832.0872 4494.4623 835.3069 4501.1199 835.685 4513.3543 834.5125 4518.7788 833.9274 4521.4331 833.4625 4524.0417 834.6483 Z" fill="none" stroke="#E71E24" opacity="0.6" stroke-width="1" class="morris_park"/>
<path d="M 4254.7859 917.0626 4495.9357 841.44 4437.1913 914.6867 4320.078 1025.5287 4254.7859 917.0626 Z" fill="none" stroke="#E71E24" opacity="0.6" stroke-width="1" class="morris_park"/>
<path d="M 4318.9238 1025.7606 4269.161 954.3023 4213.2391 926.7879 4258.7046 912.9162 4260.4262 833.7933 4445.347 826.8121 4443.9969 846.5938 4453.7635 885.4462 4433.7514 928.0335 4430.3249 948.971 4402.9099 985.1327 4404.5311 987.8903 4357.6961 1012.1238 4356.5372 1009.5954 4318.9238 1025.7606 Z" fill="none" stroke="#E71E24" opacity="0.6" stroke-width="1" class="morris_park"/>
<path d="M 4377.468 826.0107 4413.6631 928.0688 4249.3765 1001.0289 4225.1074 837.2985 4377.468 826.0107 Z" fill="none" stroke="#E71E24" opacity="0.6" stroke-width="1" class="morris_park"/>
<path d="M 4177.9917 826.3307 4337.3754 597.0367 4772.6225 776.4955 4774.3281 1143.6071 4465.9656 1250.0501 4116.5443 1124.5336 4177.9917 826.3307 Z" fill="none" stroke="#E71E24" opacity="0.6" stroke-width="1" class="morris_park"/>
<path d="M 4187.2378 833.6765 4455.9606 823.1133 4427.6793 1020.0543 4226.3388 1036.0304 4187.2378 833.6765 Z" fill="none" stroke="#E71E24" opacity="0.6" stroke-width="1" class="morris_park"/>
<path d="M 4322.5824 1026.4944 4301.1587 1018.9335 4268.2995 955.9136 4239.6918 936.6642 4241.2385 867.998 4250.0255 867.9989 4251.6158 834.695 4451.9492 831.781 4442.7288 915.0412 4409.0896 995.4452 4322.5824 1026.4944 Z" fill="none" stroke="#E71E24" opacity="0.6" stroke-width="1" class="morris_park"/>
<path d="M 4449.5076 829.5646 4557.5909 846.8447 4377.8095 1025.6618 4351.9583 1033.0669 4305.7431 1014.7405 4277.0291 965.1008 4218.779 925.6293 4270.4652 903.4671 4263.8978 839.0776 4291.5794 824.3137 4386.6824 814.0355 4449.5076 829.5646 Z" fill="none" stroke="#E71E24" opacity="0.6" stroke-width="1" class="morris_park"/>
<path d="M 4214.1596 924.7163 4246.6998 914.0852 4249.8052 833.3501 4380.6947 822.7853 4459.2003 827.2473 4529.402 835.3982 4406.3896 994.3278 4321.9288 1027.596 4266.3941 956.837 4248.3609 942.6043 4214.1596 924.7163 Z" fill="none" stroke="#E71E24" opacity="0.6" stroke-width="1" class="morris_park"/>
<path d="M 4169.9125 982.2883 4168.5264 981.8303 4168.9889 982.2897 4334.6125 878.522 4401.7633 989.7353 4182.0445 1065.0834 4144.1397 1043.5155 4169.9125 982.2883 Z" fill="none" stroke="#E71E24" opacity="0.6" stroke-width="1" class="morris_park"/>
<path d="M 4325.1557 1023.91 4242.003 1011.162 4218.8797 990.9551 4229.9365 973.456 4228.9657 943.0947 4230.7571 907.2098 4233.4863 880.5249 4231.6278 873.1678 4224.2095 853.8594 4234.354 844.6439 4244.5069 840.9481 4321.1344 826.1053 4479.9281 799.1515 4487.4251 858.9352 4469.0559 915.0896 4426.6292 948.2875 4367.5847 987.9538 4330.6704 1007.3384 4325.1557 1023.91 Z" fill="none" stroke="#E71E24" opacity="0.6" stroke-width="1" class="morris_park"/>
<path d="M 4234.1492 774.3056 4308.1051 822.9437 4286.4469 846.2844 4234.1492 774.3056 Z" fill="none" stroke="#E71E24" opacity="0.6" stroke-width="1" class="morris_park"/>
<path d="M 4261.1244 837.242 4444.8787 823.1331 4447.7526 881.0869 4426.7167 997.9727 4281.7731 1043.3041 4253.9672 983.5395 4242.8243 945.8333 4238.1717 923.7591 4261.1244 837.242 Z" fill="none" stroke="#E71E24" opacity="0.6" stroke-width="1" class="morris_park"/>
<path d="M 4316.1854 624.6643 4615.8233 872.4919 4579.2107 1043.699 4218.9478 1035.1216 4098.6005 847.6056 4305.4063 808.6521 4255.3637 698.3462 4316.1854 624.6643 Z" fill="none" stroke="#E71E24" opacity="0.6" stroke-width="1" class="morris_park"/>
<path d="M 4174.0761 832.5463 4387.8534 823.693 4399.002 862.0826 4403.2766 930.3871 4285.3927 996.601 4217.5597 1033.5135 4164.1689 846.3606 4174.0761 832.5463 Z" fill="none" stroke="#E71E24" opacity="0.6" stroke-width="1" class="morris_park"/>
<path d="M 4527.2763 933.3837 4507.6466 1056.7164 4471.6246 1058.6226 4446.1868 1038.8846 4422.6079 1025.124 4405.5156 1022.8535 4359.3464 1032.1342 4295.6251 1040.9813 4223.5912 1051.2174 4166.8172 1074.7682 4135.4085 1073.8942 4140.9087 1044.9004 4152.3218 954.2514 4144.811 870.9988 4161.8556 843.3741 4183.0585 818.0436 4241.6996 817.4936 4325.2711 814.5991 4385.2798 803.9186 4449.0163 813.0063 4564.5085 842.2316 4535.9521 880.9253 4527.2763 933.3837 Z" fill="none" stroke="#E71E24" opacity="0.6" stroke-width="1" class="morris_park"/>
<path d="M 4321.1283 822.4255 4451.3464 824.9615 4549.2635 838.5807 4503.1286 860.7464 4461.6903 927.9836 4414.6945 989.7128 4356.5567 1021.0971 4319.5013 955.8308 4280.5787 874.9304 4262.0435 834.4807 4321.1283 822.4255 Z" fill="none" stroke="#E71E24" opacity="0.6" stroke-width="1" class="morris_park"/>
<path d="M 4146.6156 842.0166 4386.6951 821.3951 4441.3466 914.2193 4204.1123 998.3387 4146.6156 842.0166 Z" fill="none" stroke="#E71E24" opacity="0.6" stroke-width="1" class="morris_park"/>
<path d="M 4184.4742 838.2805 4441.1847 823.1397 4445.0262 905.9324 4216.1228 1000.1606 4191.9876 921.0699 4184.4742 838.2805 Z" fill="none" stroke="#E71E24" opacity="0.6" stroke-width="1" class="morris_park"/>
<path d="M 4260.2198 849.2031 4314.6933 840.3754 4369.313 918.0248 4277.0424 973.3816 4260.2198 849.2031 Z" fill="none" stroke="#E71E24" opacity="0.6" stroke-width="1" class="morris_park"/>
<path d="M 4173.0104 843.0724 4405.8794 924.577 4336.6571 953.217 4252.6652 990.1572 4210.1838 994.8238 4173.0104 843.0724 Z" fill="none" stroke="#E71E24" opacity="0.6" stroke-width="1" class="morris_park"/>
<path d="M 4334.1465 875.4067 4310.4713 823.6188 4445.4165 824.6551 4438.1804 910.2278 4406.3736 985.1267 4313.4571 1030.6934 4285.1806 971.3664 4251.8432 916.6753 4261.7942 833.3845 4311.9031 823.2843 4334.1465 875.4067 Z" fill="none" stroke="#E71E24" opacity="0.6" stroke-width="1" class="morris_park"/>
<path d="M 4522.4902 843.2308 4397.2007 1021.9478 4134.9747 1093.2191 4162.3072 836.4737 4522.4902 843.2308 Z" fill="none" stroke="#E71E24" opacity="0.6" stroke-width="1" class="morris_park"/>
<path d="M 4283.0454 972.9119 4252.9434 920.0557 4330.9114 874.3881 4389.259 969.5146 4316.828 1015.1824 4283.0454 972.9119 Z" fill="none" stroke="#E71E24" opacity="0.6" stroke-width="1" class="morris_park"/>
<path d="M 4262.9655 833.5592 4578.816 838.5243 4501.6306 1050.2863 4218.0468 1049.8457 4183.5479 836.442 4262.9655 833.5592 Z" fill="none" stroke="#E71E24" opacity="0.6" stroke-width="1" class="morris_park"/>
<path d="M 4654.1827 1119.0086 4122.0712 1113.4827 4135.1897 605.63 4347.5268 594.2605 4550.6523 596.6568 4654.1827 1119.0086 Z" fill="none" stroke="#E71E24" opacity="0.6" stroke-width="1" class="morris_park"/>
<path d="M 4348.4971 897.1291 4405.9162 987.6578 4356.7721 1011.8954 4270.3004 944.8697 4348.4971 897.1291 Z" fill="none" stroke="#E71E24" opacity="0.6" stroke-width="1" class="morris_park"/>
<path d="M 4191.1935 1006.6395 4241.271 838.6533 4353.6197 922.6516 4191.1935 1006.6395 Z" fill="none" stroke="#E71E24" opacity="0.6" stroke-width="1" class="morris_park"/>
<path d="M 4310.524 832.1025 4361.4707 922.8683 4278.4297 974.5295 4261.5799 833.3315 4310.524 832.1025 Z" fill="none" stroke="#E71E24" opacity="0.6" stroke-width="1" class="morris_park"/>
<path d="M 4277.9683 974.7603 4213.4693 926.3275 4215.0824 924.2549 4261.8115 833.7911 4445.5795 827.7316 4447.6569 827.4979 4429.8594 946.9017 4277.9683 974.7603 Z" fill="none" stroke="#E71E24" opacity="0.6" stroke-width="1" class="morris_park"/>
<path d="M 4191.8665 841.0293 4317.451 832.5511 4451.3563 830.4812 4456.0794 889.3521 4414.7042 995.2335 4219.8942 1049.8428 4184.61 928.4415 4191.8665 841.0293 Z" fill="none" stroke="#E71E24" opacity="0.6" stroke-width="1" class="morris_park"/>
<path d="M 4200.3196 933.9381 4220.7781 1024.077 4192.7858 838.268 4328.527 828.853 4398.7085 825.9741 4441.147 801.981 4448.6104 844.2856 4429.2929 887.5597 4421.0988 954.7378 4393.4201 972.2677 4350.982 1001.7837 4219.8559 1024.9985 4200.3196 933.9381 Z" fill="none" stroke="#E71E24" opacity="0.6" stroke-width="1" class="morris_park"/>
<path d="M 4445.8087 826.8113 4450.5348 887.522 4448.6959 892.1254 4429.3643 928.0412 4441.484 991.5057 4407.3581 1020.0899 4210.6669 1056.2982 4125.7411 1095.9932 4153.0639 830.9676 4444.877 822.2132 4445.8087 826.8113 Z" fill="none" stroke="#E71E24" opacity="0.6" stroke-width="1" class="morris_park"/>
<path d="M 4259.3111 1004.2337 4286.0465 972.447 4252.4762 916.6062 4331.5953 869.097 4376.282 942.6244 4259.3111 1004.2337 Z" fill="none" stroke="#E71E24" opacity="0.6" stroke-width="1" class="morris_park"/>
<path d="M 4309.9681 915.5937 4280.5451 854.0006 4323.4846 851.1706 4404.7684 991.5703 4273.3559 978.4481 4245.09 918.2279 4278.6969 853.3135 4309.9681 915.5937 Z" fill="none" stroke="#E71E24" opacity="0.6" stroke-width="1" class="morris_park"/>
<path d="M 4540.2597 838.8277 4506.3461 852.6906 4495.2781 860.5308 4481.2185 873.8965 4467.8661 895.5411 4454.9786 919.2552 4432.2002 964.8392 4418.8421 984.6449 4406.3944 997.0882 4385.1729 1010.4668 4349.6321 1022.9491 4327.3599 1030.2324 4300.5529 1018.1995 4286.546 995.794 4268.0053 953.6141 4253.5608 945.4713 4249.2449 917.4164 4250.5388 859.3382 4250.9563 831.2783 4380.6939 822.3253 4413.9398 822.2678 4508.6256 836.8168 4524.7827 834.4869 4540.2597 838.8277 Z" fill="none" stroke="#E71E24" opacity="0.6" stroke-width="1" class="morris_park"/>
<path d="M 4219.8927 993.2106 4182.7179 841.4598 4377.5577 828.2672 4405.4117 913.7792 4219.8927 993.2106 Z" fill="none" stroke="#E71E24" opacity="0.6" stroke-width="1" class="morris_park"/>
<path d="M 4318.0005 1025.9922 4296.5066 1014.9856 4277.7385 975.4507 4267.3124 953.5002 4215.3165 926.3246 4252.9374 916.2605 4258.7053 913.3762 4279.2348 900.693 4259.7869 867.3736 4260.8869 833.1026 4445.8108 827.9612 4444.6916 847.7425 4452.3794 886.1387 4433.5238 929.874 4435.0224 993.8175 4418.1901 1007.8791 4403.8363 986.7413 4318.0005 1025.9922 Z" fill="none" stroke="#E71E24" opacity="0.6" stroke-width="1" class="morris_park"/>
<path d="M 4165.0927 846.5892 4444.8819 824.973 4454.2125 878.3153 4402.7397 1020.0979 4220.8321 1059.0432 4165.0927 846.5892 Z" fill="none" stroke="#E71E24" opacity="0.6" stroke-width="1" class="morris_park"/>
<path d="M 4260.4357 985.3694 4193.6731 814.3477 4464.9335 677.7555 4461.6374 898.5424 4387.8909 979.6381 4260.4357 985.3694 Z" fill="none" stroke="#E71E24" opacity="0.6" stroke-width="1" class="morris_park"/>
<path d="M 4286.2863 977.9672 4290.769 894.2342 4304.5024 820.6129 4382.0618 812.2036 4447.7739 893.0471 4426.707 992.452 4323.2977 1017.4721 4286.2863 977.9672 Z" fill="none" stroke="#E71E24" opacity="0.6" stroke-width="1" class="morris_park"/>
<path d="M 4405.2198 985.5888 4406.3752 986.0468 4317.0749 1024.8435 4278.201 975.91 4270.0651 942.1099 4261.685 899.571 4261.3549 837.0117 4389.6988 822.7698 4528.9497 840.4589 4489.7327 858.241 4429.4041 950.5828 4422.0414 965.5472 4415.5908 974.0694 4410.5216 980.2889 4405.2198 985.5888 Z" fill="none" stroke="#E71E24" opacity="0.6" stroke-width="1" class="morris_park"/>
<path d="M 4266.6771 844.593 4321.1542 838.0648 4367.4627 916.1878 4275.1981 975.2248 4266.6771 844.593 Z" fill="none" stroke="#E71E24" opacity="0.6" stroke-width="1" class="morris_park"/>
<path d="M 4189.089 836.4336 4438.4207 826.8244 4457.9431 898.549 4400.8524 997.0978 4221.7473 1053.5207 4180.8824 906.366 4189.089 836.4336 Z" fill="none" stroke="#E71E24" opacity="0.6" stroke-width="1" class="morris_park"/>
<path d="M 4198.3073 825.3801 4310.0494 824.2837 4403.6074 987.8919 4304.3662 1020.0336 4277.9701 975.9104 4267.0806 952.9255 4204.9151 919.2102 4198.3073 825.3801 Z" fill="none" stroke="#E71E24" opacity="0.6" stroke-width="1" class="morris_park"/>
<path d="M 4318.3468 1025.9916 4259.1638 911.3054 4261.8126 834.481 4373.7693 823.2571 4442.1188 829.1177 4452.1469 885.2191 4418.7863 952.7867 4410.0225 958.8975 4416.2763 969.9277 4402.2179 985.594 4404.0696 988.1211 4357.927 1012.1234 4318.3468 1025.9916 Z" fill="none" stroke="#E71E24" opacity="0.6" stroke-width="1" class="morris_park"/></svg>