<?xml version="1.0"?><svg xmlns="http://www.w3.org/2000/svg" version="1.2" baseProfile="tiny" width="6000" height="5918" viewBox="0 0 6000 5918" stroke-linecap="round" stroke-linejoin="round"><path d="M 3489.4683 1359.915 3812.0682 1463.6312 3829.7481 1571.3246 3794.6575 1598.9843 3768.8272 1645.0484 3714.3423 1693.9057 3659.7803 1667.2563 3551.5866 1610.2667 3534.0075 1588.1843 3489.5835 1509.9637 3489.4683 1359.915 Z" fill="none" stroke="#012394" opacity="0.6" stroke-width="1" class="mott_haven"/>
<path d="M 3521.8852 1454.7029 3596.5716 1265.0228 3760.1453 1300.76 3595.8632 1509.8761 3521.8852 1454.7029 Z" fill="none" stroke="#012394" opacity="0.6" stroke-width="1" class="mott_haven"/>
<path d="M 3790.198 1110.1059 3727.3127 1269.6155 3733.5997 1318.7359 3812.1776 1354.0892 3775.2834 1416.263 3775.7966 1464.016 3741.2536 1460.3701 3737.9595 1514.5736 3719.6384 1560.9698 3693.9436 1629.9329 3708.7435 1641.1972 3656.9546 1611.439 3625.8615 1595.5856 3518.3305 1487.5014 3557.4259 1409.5672 3626.8626 1426.7662 3657.6874 1409.1325 3692.525 1362.1535 3821.8963 956.5198 3790.198 1110.1059 Z" fill="none" stroke="#012394" opacity="0.6" stroke-width="1" class="mott_haven"/>
<path d="M 3702.1941 1561.3325 3638.3598 1493.2668 3611.4833 1408.5997 3655.7023 1264.0484 3765.6491 1263.0179 3869.2024 1325.4902 3702.1941 1561.3325 Z" fill="none" stroke="#012394" opacity="0.6" stroke-width="1" class="mott_haven"/>
<path d="M 3574.8482 1386.7698 3659.5477 1421.903 3716.41 1452.6857 3767.6872 1442.0462 3751.1283 1513.8694 3716.5158 1557.6355 3661.1931 1573.3411 3634.1461 1558.9809 3619.2372 1552.5499 3603.9801 1544.0475 3583.1723 1528.8751 3565.7217 1521.1798 3550.6959 1511.756 3536.713 1505.8987 3525.7235 1487.2653 3543.146 1462.0502 3553.0671 1446.1622 3567.2527 1419.6847 3570.6995 1397.9344 3569.1985 1398.6261 3572.6617 1396.3219 3574.8482 1386.7698 Z" fill="none" stroke="#012394" opacity="0.6" stroke-width="1" class="mott_haven"/>
<path d="M 3495.9379 1361.751 3655.8405 1410.3999 3792.6666 1468.2554 3807.4791 1492.1745 3663.4636 1652.5206 3653.3039 1660.8171 3611.6724 1619.4219 3566.3523 1583.5539 3510.862 1538.4867 3491.429 1506.2798 3495.9379 1361.751 Z" fill="none" stroke="#012394" opacity="0.6" stroke-width="1" class="mott_haven"/>
<path d="M 3535.33 1509.9275 3514.5226 1492.913 3501.1059 1471.7499 3510.8049 1466.2189 3526.9679 1454.6988 3569.4161 1382.8623 3650.759 1411.3252 3663.2401 1417.7571 3792.198 1462.2722 3795.9015 1468.7122 3778.8204 1482.9998 3764.0482 1496.3642 3751.8539 1544.9402 3720.9119 1563.6154 3690.6617 1582.0591 3676.5701 1585.2953 3665.7084 1583.4643 3535.33 1509.9275 Z" fill="none" stroke="#012394" opacity="0.6" stroke-width="1" class="mott_haven"/>
<path d="M 3520.8933 1370.0156 3801.9058 1466.4042 3819.0256 1487.3285 3750.6993 1545.5168 3678.6501 1585.7536 3495.1065 1481.4207 3520.8933 1370.0156 Z" fill="none" stroke="#012394" opacity="0.6" stroke-width="1" class="mott_haven"/>
<path d="M 3726.0963 1436.1059 3775.976 1415.802 3819.4561 1459.0202 3778.8748 1533.6336 3720.7979 1679.1666 3498.8174 1499.8298 3507.9445 1354.3778 3509.7656 1320.3197 3726.0963 1436.1059 Z" fill="none" stroke="#012394" opacity="0.6" stroke-width="1" class="mott_haven"/>
<path d="M 3558.6742 1245.7276 3594.7205 1261.3429 3548.6181 1374.5954 3535.7101 1409.5852 3500.6384 1464.846 3505.215 1408.6891 3558.6742 1245.7276 Z" fill="none" stroke="#012394" opacity="0.6" stroke-width="1" class="mott_haven"/>
<path d="M 3495.9379 1361.751 3512.5719 1363.5789 3653.0674 1409.482 3703.918 1436.1283 3768.6274 1457.2344 3798.2103 1467.3288 3809.3305 1494.9343 3753.0089 1544.7088 3707.7514 1573.2957 3656.0247 1605.5703 3632.0336 1648.867 3613.5226 1621.2617 3591.3214 1600.1049 3541.4083 1596.4645 3540.4697 1578.9721 3531.2243 1575.2969 3491.434 1512.7241 3495.9379 1361.751 Z" fill="none" stroke="#012394" opacity="0.6" stroke-width="1" class="mott_haven"/>
<path d="M 3636.412 1385.5643 3724.1808 1369.8309 3813.8868 1436.933 3774.2706 1549.2896 3675.4165 1587.1378 3566.3202 1545.8064 3530.2232 1480.4723 3560.6547 1403.1208 3636.412 1385.5643 Z" fill="none" stroke="#012394" opacity="0.6" stroke-width="1" class="mott_haven"/>
<path d="M 3608.7448 1446.3442 3591.0876 1333.1382 3674.2315 1316.4939 3753.7306 1351.3909 3761.2335 1456.3217 3767.7659 1516.1535 3741.0105 1560.3725 3684.6698 1598.1772 3567.2491 1551.3296 3518.2431 1522.83 3508.9171 1416.0503 3510.7391 1382.9105 3529.1582 1306.4978 3577.2015 1302.776 3598.4739 1326.6886 3608.7448 1446.3442 Z" fill="none" stroke="#012394" opacity="0.6" stroke-width="1" class="mott_haven"/>
<path d="M 3595.8657 1512.638 3525.5854 1459.3028 3596.5692 1262.2617 3689.9265 1303.5927 3595.8657 1512.638 Z" fill="none" stroke="#012394" opacity="0.6" stroke-width="1" class="mott_haven"/>
<path d="M 3575.5236 1500.6877 3662.3178 1419.599 3574.5157 1403.1091 3555.1257 1421.5359 3617.0352 1416.8794 3708.5734 1471.105 3575.5236 1500.6877 Z" fill="none" stroke="#012394" opacity="0.6" stroke-width="1" class="mott_haven"/>
<path d="M 3553.2583 1398.5245 3576.8809 1467.0849 3575.9597 1470.5379 3562.2162 1474.0017 3554.5925 1474.5835 3547.9944 1458.1337 3546.3731 1453.187 3548.0932 1437.9965 3552.468 1420.3875 3555.0065 1417.1635 3557.6636 1417.6216 3553.2583 1398.5245 Z" fill="none" stroke="#012394" opacity="0.6" stroke-width="1" class="mott_haven"/>
<path d="M 3670.8006 1592.6664 3499.7179 1469.4496 3604.979 1268.7779 3831.4034 1321.9136 3670.8006 1592.6664 Z" fill="none" stroke="#012394" opacity="0.6" stroke-width="1" class="mott_haven"/>
<path d="M 3964.5545 1104.4939 4005.2931 1174.8411 3862.2655 1319.5154 3758.6575 1204.1228 3964.5545 1104.4939 Z" fill="none" stroke="#012394" opacity="0.6" stroke-width="1" class="mott_haven"/>
<path d="M 3534.8589 1498.8805 3605.9274 1395.7175 3706.6967 1442.5693 3728.0235 1513.433 3705.8974 1567.7735 3534.8589 1498.8805 Z" fill="none" stroke="#012394" opacity="0.6" stroke-width="1" class="mott_haven"/>
<path d="M 3578.09 1529.6851 3563.5266 1520.9515 3543.8776 1508.7697 3532.7794 1498.6521 3550.0876 1474.9325 3565.5455 1449.6038 3578.0039 1429.8013 3581.4671 1427.2669 3593.0309 1441.7554 3599.7378 1449.8043 3610.3744 1460.1512 3621.2366 1464.284 3623.5526 1470.4958 3639.2696 1477.846 3653.3671 1482.4358 3625.2455 1553.5801 3578.09 1529.6851 Z" fill="none" stroke="#012394" opacity="0.6" stroke-width="1" class="mott_haven"/>
<path d="M 3516.2709 1367.2579 3754.7642 1455.8682 3693.4294 1576.9926 3608.8938 1612.9793 3541.875 1601.9883 3491.8954 1511.8032 3493.1659 1361.7531 3497.7878 1364.0507 3516.2709 1367.2579 Z" fill="none" stroke="#012394" opacity="0.6" stroke-width="1" class="mott_haven"/>
<path d="M 3798.2103 1467.3288 3808.389 1479.2852 3813.0261 1494.0096 3677.2668 1588.9774 3638.5055 1650.7025 3572.8243 1586.3104 3524.7443 1562.4127 3488.6594 1509.9644 3495.0146 1362.6721 3798.2103 1467.3288 Z" fill="none" stroke="#012394" opacity="0.6" stroke-width="1" class="mott_haven"/>
<path d="M 3486.3021 1448.7471 3496.9291 1448.2787 3513.1025 1450.1071 3699.8931 1571.0018 3661.5616 1596.358 3633.8805 1647.0238 3601.4956 1608.3823 3540.9333 1580.8131 3499.2977 1523.3052 3486.3021 1448.7471 Z" fill="none" stroke="#012394" opacity="0.6" stroke-width="1" class="mott_haven"/>
<path d="M 3818.5658 1489.4004 3762.2456 1539.6355 3734.0746 1556.2366 3706.8239 1570.0743 3549.6325 1483.2182 3518.1862 1451.4839 3492.7631 1438.6161 3494.553 1363.1327 3498.7097 1361.2886 3531.5189 1369.0865 3594.8334 1389.744 3644.749 1407.6488 3659.5407 1414.5388 3702.9957 1437.9703 3756.6105 1454.0252 3794.9719 1463.6501 3807.4613 1476.0642 3818.5658 1489.4004 Z" fill="none" stroke="#012394" opacity="0.6" stroke-width="1" class="mott_haven"/>
<path d="M 3494.5526 1362.6725 3533.8249 1364.022 3827.3318 1477.4229 3872.6952 1545.9569 3719.881 1686.5338 3546.9558 1598.7616 3493.2884 1520.548 3494.5526 1362.6725 Z" fill="none" stroke="#012394" opacity="0.6" stroke-width="1" class="mott_haven"/>
<path d="M 3753.9303 1541.9459 3663.4101 1596.3562 3574.6397 1547.6406 3498.8589 1553.2265 3489.469 1360.8355 3793.5596 1439.717 3753.9264 1538.2633 3753.9303 1541.9459 Z" fill="none" stroke="#012394" opacity="0.6" stroke-width="1" class="mott_haven"/>
<path d="M 3526.436 1368.1702 3617.0203 1400.3101 3733.4948 1441.6217 3806.5336 1472.8431 3887.9265 1530.7482 3839.8989 1557.503 3791.8827 1597.1459 3752.183 1638.6208 3708.776 1673.654 3696.7369 1650.6468 3656.9716 1629.5082 3604.2553 1593.6486 3558.9444 1566.9879 3521.0201 1528.3516 3499.7301 1485.0995 3512.6484 1460.2337 3526.436 1368.1702 Z" fill="none" stroke="#012394" opacity="0.6" stroke-width="1" class="mott_haven"/>
<path d="M 3859.908 1440.9716 3736.1823 1542.3731 3793.5351 1590.1873 3721.5107 1656.5554 3512.5164 1531.529 3508.7761 1476.2953 3523.435 1317.9562 3859.908 1440.9716 Z" fill="none" stroke="#012394" opacity="0.6" stroke-width="1" class="mott_haven"/>
<path d="M 3517.1993 1372.78 3781.5621 1454.4589 3796.3752 1479.2984 3802.0131 1563.9901 3756.7832 1618.3598 3720.7988 1680.0874 3642.2044 1652.5406 3552.4971 1593.6932 3498.8424 1532.0516 3517.1993 1372.78 Z" fill="none" stroke="#012394" opacity="0.6" stroke-width="1" class="mott_haven"/>
<path d="M 3495.9387 1362.6714 3744.5927 1449.8952 3704.9787 1573.2985 3626.4869 1647.9513 3486.8138 1513.6483 3495.9387 1362.6714 Z" fill="none" stroke="#012394" opacity="0.6" stroke-width="1" class="mott_haven"/>
<path d="M 3495.016 1364.5131 3749.1758 1413.9893 3788.9171 1419.4702 3771.4292 1484.8489 3702.2014 1568.6979 3658.7784 1585.3123 3499.7243 1477.7348 3494.0885 1359.9114 3495.016 1364.5131 Z" fill="none" stroke="#012394" opacity="0.6" stroke-width="1" class="mott_haven"/>
<path d="M 3501.6121 1528.3669 3639.208 1411.336 3795.4339 1463.6495 3819.5589 1551.0814 3717.1015 1680.0911 3585.7742 1598.2683 3501.6121 1528.3669 Z" fill="none" stroke="#012394" opacity="0.6" stroke-width="1" class="mott_haven"/>
<path d="M 3511.0778 1519.1532 3553.0921 1476.0807 3588.6531 1455.1073 3653.6075 1492.3319 3616.7063 1564.4057 3511.0778 1519.1532 Z" fill="none" stroke="#012394" opacity="0.6" stroke-width="1" class="mott_haven"/>
<path d="M 3556.0776 1454.6749 3599.5151 1459.2403 3645.7401 1479.451 3685.4926 1494.1426 3729.8822 1523.558 3759.4706 1537.3368 3779.8535 1584.2692 3715.2472 1674.5683 3625.5441 1627.6959 3545.9907 1549.5061 3492.3646 1521.009 3504.3313 1460.2402 3521.8793 1447.3384 3556.0776 1454.6749 Z" fill="none" stroke="#012394" opacity="0.6" stroke-width="1" class="mott_haven"/>
<path d="M 3596.759 1477.6543 3598.5967 1465.6851 3628.1511 1446.3267 3666.9487 1430.6411 3718.6877 1420.4643 3780.6043 1423.1613 3765.858 1459.9991 3778.8303 1492.2057 3761.3064 1525.3666 3725.3015 1563.1506 3669.8719 1588.0638 3627.3153 1542.9907 3596.759 1477.6543 Z" fill="none" stroke="#012394" opacity="0.6" stroke-width="1" class="mott_haven"/>
<path d="M 3625.5559 1640.5862 3516.4233 1558.7367 3494.1809 1479.5803 3514.4199 1363.5774 3662.3134 1414.9964 3797.2771 1459.0447 3812.0978 1490.3282 3764.0984 1543.7765 3670.338 1592.2065 3638.4986 1643.3365 3625.5559 1640.5862 Z" fill="none" stroke="#012394" opacity="0.6" stroke-width="1" class="mott_haven"/>
<path d="M 3538.7012 1236.9705 4165.9466 1356.8381 4052.58 1366.2808 3928.2762 1374.4025 3883.0212 1368.7963 3808.2439 1317.9834 3717.3486 1270.21 3538.7012 1236.9705 Z" fill="none" stroke="#012394" opacity="0.6" stroke-width="1" class="mott_haven"/>
<path d="M 3497.8074 1389.3641 3510.726 1366.3418 3648.447 1409.4864 3794.5118 1465.4917 3836.1195 1484.7777 3817.7454 1582.3863 3743.8996 1672.6975 3579.302 1595.5118 3497.9032 1512.7191 3497.8074 1389.3641 Z" fill="none" stroke="#012394" opacity="0.6" stroke-width="1" class="mott_haven"/>
<path d="M 3704.0743 1569.5451 3529.9072 1458.6261 3573.9557 1382.9498 3792.9921 1468.6859 3709.4555 1567.7776 3704.0743 1569.5451 Z" fill="none" stroke="#012394" opacity="0.6" stroke-width="1" class="mott_haven"/>
<path d="M 3516.2702 1366.3374 3803.7592 1471.005 3807.4872 1499.5393 3673.5681 1587.1395 3510.8191 1484.1702 3516.2702 1366.3374 Z" fill="none" stroke="#012394" opacity="0.6" stroke-width="1" class="mott_haven"/>
<path d="M 3493.9903 1232.8949 3960.7136 1353.9127 3942.2677 1381.5503 3712.4622 1662.6011 3499.763 1527.4477 3493.9903 1232.8949 Z" fill="none" stroke="#012394" opacity="0.6" stroke-width="1" class="mott_haven"/>
<path d="M 3490.398 1367.2781 3550.0069 1377.816 3653.0726 1415.0051 3800.9832 1467.7861 3809.7966 1498.6162 3674.4848 1579.3128 3630.1778 1641.0423 3594.0921 1597.8007 3552.9607 1595.5342 3515.9543 1549.9908 3498.3721 1521.4647 3493.2774 1506.2784 3493.2479 1468.0737 3495.5151 1412.3787 3492.7276 1392.5898 3493.6407 1378.3214 3490.398 1367.2781 Z" fill="none" stroke="#012394" opacity="0.6" stroke-width="1" class="mott_haven"/>
<path d="M 3791.7384 1464.5741 3744.6787 1532.7491 3676.2715 1515.3256 3598.6837 1564.1916 3604.2242 1558.6627 3511.7469 1488.7725 3650.2917 1405.8026 3791.7384 1464.5741 Z" fill="none" stroke="#012394" opacity="0.6" stroke-width="1" class="mott_haven"/>
<path d="M 3496.0599 1519.1649 3563.4705 1454.6686 3721.5561 1515.2808 3659.7262 1610.1703 3496.0599 1519.1649 Z" fill="none" stroke="#012394" opacity="0.6" stroke-width="1" class="mott_haven"/>
<path d="M 3494.0572 1319.4116 3494.0501 1310.2073 3714.0858 1438.8797 3885.9534 1425.8036 3839.8937 1552.8997 3705.0869 1681.9447 3496.0577 1516.4031 3494.0572 1319.4116 Z" fill="none" stroke="#012394" opacity="0.6" stroke-width="1" class="mott_haven"/>
<path d="M 3494.0913 1363.5933 3501.485 1365.4285 3517.1949 1367.2571 3526.439 1371.8521 3538.4537 1374.6038 3549.546 1379.1971 3568.954 1382.8627 3584.666 1386.5312 3617.9435 1399.3887 3632.7293 1400.2958 3649.3728 1411.3265 3653.9975 1415.9248 3667.8649 1422.3553 3680.8084 1428.7866 3696.5243 1435.215 3709.4653 1438.8844 3723.3325 1444.3937 3740.8972 1450.8196 3759.3843 1455.4031 3780.6469 1462.745 3789.8922 1466.4173 3797.2882 1469.171 3802.8391 1474.6884 3803.7744 1484.8138 3802.8563 1490.3384 3802.8654 1498.6238 3800.101 1505.9917 3798.2587 1511.5175 3791.7965 1517.9689 3785.3332 1523.4997 3778.8669 1526.2685 3775.178 1533.6376 3765.941 1538.2506 3760.3997 1541.9391 3746.5424 1547.4775 3739.1544 1553.0091 3732.6868 1554.8571 3725.295 1556.706 3720.6813 1564.076 3710.5195 1568.6896 3698.5163 1580.6704 3689.2784 1585.2829 3680.0405 1589.8954 3669.8817 1598.1914 3660.6478 1607.4073 3656.956 1612.9351 3652.3389 1617.5431 3648.6496 1625.8331 3648.6573 1634.1197 3640.3421 1637.8104 3634.8023 1644.2607 3628.328 1639.6629 3622.778 1635.0643 3616.3021 1628.625 3610.7481 1619.4227 3603.3433 1607.46 3592.248 1602.8662 3582.0812 1602.8751 3570.0665 1603.8061 3553.429 1602.8994 3549.7289 1599.2197 3548.8001 1593.6963 3548.7947 1587.2514 3546.0159 1579.8882 3534.9235 1578.0559 3504.3861 1530.206 3496.0606 1520.0856 3490.4879 1484.1861 3494.1475 1436.3136 3495.046 1403.1739 3494.0913 1363.5933 Z" fill="none" stroke="#012394" opacity="0.6" stroke-width="1" class="mott_haven"/>
<path d="M 3496.0044 1447.589 3498.9931 1428.7154 3674.6706 1532.3588 3687.8471 1539.2509 3644.4603 1593.612 3491.8918 1507.2001 3496.0044 1447.589 Z" fill="none" stroke="#012394" opacity="0.6" stroke-width="1" class="mott_haven"/>
<path d="M 3518.6951 1366.6953 3798.1025 1466.7895 3769.531 1538.628 3692.8123 1560.3346 3656.8277 1623.8974 3520.3152 1540.1713 3509.1957 1503.355 3518.6951 1366.6953 Z" fill="none" stroke="#012394" opacity="0.6" stroke-width="1" class="mott_haven"/>
<path d="M 3494.0757 1343.3431 3836.107 1473.7306 3675.4157 1586.2171 3660.6365 1595.4382 3636.65 1643.3382 3614.4585 1634.1511 3590.4011 1604.7092 3547.8827 1601.9833 3491.4425 1523.7716 3495.9322 1354.3872 3494.0757 1343.3431 Z" fill="none" stroke="#012394" opacity="0.6" stroke-width="1" class="mott_haven"/>
<path d="M 3670.8006 1592.6664 3577.4091 1543.9556 3536.7178 1511.7676 3499.7215 1474.0525 3513.5229 1397.6363 3506.1087 1370.0273 3519.0408 1364.4942 3642.8975 1403.9684 3803.747 1459.9581 3813.9471 1491.2467 3747.4714 1552.0798 3670.8006 1592.6664 Z" fill="none" stroke="#012394" opacity="0.6" stroke-width="1" class="mott_haven"/>
<path d="M 3494.1503 1439.9958 3695.5321 1366.1776 3798.2053 1462.7259 3816.7842 1549.2431 3816.8068 1569.4978 3753.1179 1648.748 3717.108 1686.5366 3694.9146 1677.3509 3632.9579 1648.8661 3594.0958 1601.9439 3547.8834 1602.9041 3496.0684 1530.2125 3494.1574 1449.2014 3501.5475 1445.5134 3494.1503 1439.9958 Z" fill="none" stroke="#012394" opacity="0.6" stroke-width="1" class="mott_haven"/>
<path d="M 3780.6459 1461.8244 3682.8544 1632.2455 3522.85 1505.3345 3686.3538 1429.7018 3780.6459 1461.8244 Z" fill="none" stroke="#012394" opacity="0.6" stroke-width="1" class="mott_haven"/>
<path d="M 3533.0638 1564.2473 3593.0632 1478.5781 3739.1658 1564.0571 3662.5296 1642.3932 3533.0638 1564.2473 Z" fill="none" stroke="#012394" opacity="0.6" stroke-width="1" class="mott_haven"/>
<path d="M 3494.2108 1518.2457 3507.006 1335.9694 3527.331 1332.2714 3599.4142 1345.0967 3658.5683 1363.4519 3738.0612 1389.147 3849.0406 1470.0335 3821.4156 1558.4446 3709.7003 1673.6531 3608.8872 1605.6136 3494.2108 1518.2457 Z" fill="none" stroke="#012394" opacity="0.6" stroke-width="1" class="mott_haven"/>
<path d="M 3497.8467 1439.993 3577.3061 1424.2787 3613.367 1448.1812 3639.278 1486.8217 3684.6106 1537.4127 3668.0261 1590.8276 3615.3646 1613.8942 3515.4779 1532.0385 3488.6657 1518.25 3497.8467 1439.993 Z" fill="none" stroke="#012394" opacity="0.6" stroke-width="1" class="mott_haven"/>
<path d="M 3558.867 1474.9252 3520.9987 1501.6535 3493.2596 1483.2633 3596.5667 1259.5005 3926.4989 1332.7849 3665.2463 1583.4647 3523.7756 1507.175 3550.5589 1485.9792 3558.867 1474.9252 Z" fill="none" stroke="#012394" opacity="0.6" stroke-width="1" class="mott_haven"/>
<path d="M 3527.4121 1432.6052 3541.2606 1416.9448 3574.5188 1406.7911 3612.3966 1396.6322 3664.1624 1415.9152 3704.8467 1440.7301 3711.3652 1490.4346 3676.2857 1530.0557 3681.8845 1585.2901 3650.474 1600.0513 3638.4697 1612.0317 3648.6479 1623.9916 3581.1457 1589.9861 3543.2492 1587.256 3524.7295 1543.9995 3501.6078 1522.8431 3495.0937 1464.8503 3527.4121 1432.6052 Z" fill="none" stroke="#012394" opacity="0.6" stroke-width="1" class="mott_haven"/>
<path d="M 3495.9394 1363.5919 3795.4369 1466.4113 3810.2505 1491.2508 3790.8673 1513.3668 3765.0139 1535.4897 3748.385 1541.9517 3697.5866 1575.1472 3670.7962 1588.0629 3598.6886 1569.7157 3578.3524 1566.0507 3557.0975 1568.8308 3546.934 1572.522 3535.8432 1572.5311 3529.3743 1573.457 3519.1953 1557.8138 3506.2439 1542.1729 3496.9819 1516.4023 3488.6565 1506.282 3495.9394 1363.5919 Z" fill="none" stroke="#012394" opacity="0.6" stroke-width="1" class="mott_haven"/>
<path d="M 3807.4821 1494.9363 3773.3306 1534.5602 3668.4926 1595.4307 3577.4071 1541.654 3526.0827 1503.0304 3501.5723 1477.2731 3505.2428 1444.1297 3516.2691 1364.9567 3548.1576 1376.4368 3658.1563 1416.3811 3790.8158 1465.956 3802.8279 1464.562 3807.4821 1494.9363 Z" fill="none" stroke="#012394" opacity="0.6" stroke-width="1" class="mott_haven"/>
<path d="M 3593.1392 1565.1172 3520.0738 1500.7337 3491.4 1468.5354 3495.9579 1387.5246 3507.0588 1403.1645 3504.2571 1365.4264 3522.7384 1366.3322 3541.2288 1378.2835 3550.4708 1380.1168 3555.091 1380.1129 3566.1835 1384.7061 3585.5957 1392.9739 3605.0033 1395.7183 3653.9923 1410.4017 3678.9593 1427.8679 3698.3725 1435.2132 3738.1229 1448.9813 3783.4223 1465.5037 3804.6863 1473.7658 3814.8764 1495.8487 3791.8035 1524.4133 3751.1596 1543.7901 3716.0695 1573.2874 3672.6571 1600.9509 3655.0892 1593.602 3631.0578 1592.7037 3630.1192 1577.0528 3593.1392 1565.1172 Z" fill="none" stroke="#012394" opacity="0.6" stroke-width="1" class="mott_haven"/>
<path d="M 3492.7024 1359.9125 3647.0592 1407.6466 3725.6455 1447.153 3794.0472 1463.1908 3818.1002 1486.1788 3823.2769 1569.9509 3719.8791 1684.6922 3684.2857 1678.2821 3634.3418 1646.1026 3601.9548 1605.1594 3575.6105 1601.9599 3558.0496 1601.9749 3545.5728 1602.906 3519.192 1553.6708 3493.2855 1516.8655 3490.957 1493.3917 3492.7024 1359.9125 Z" fill="none" stroke="#012394" opacity="0.6" stroke-width="1" class="mott_haven"/>
<path d="M 3559.9329 1378.8441 3597.2559 1391.9817 3633.6498 1404.3843 3662.0444 1415.3879 3704.4653 1436.8209 3735.3455 1448.2823 3755.9748 1451.2925 3775.6977 1458.4066 3798.8083 1465.2859 3766.1937 1497.3037 3751.8566 1547.472 3730.612 1559.4625 3715.6935 1568.9044 3675.1611 1590.121 3651.9727 1625.8721 3592.8249 1596.6712 3554.2009 1570.7015 3530.6192 1553.6886 3523.4541 1550.7022 3516.981 1546.1041 3506.6382 1536.4305 3499.2595 1521.7186 3494.402 1514.5875 3492.5441 1502.1606 3493.4562 1486.5097 3494.1415 1476.3826 3500.6431 1470.8297 3507.1434 1439.3121 3507.1237 1414.2275 3510.066 1398.4599 3517.338 1363.8828 3522.641 1351.2221 3532.7762 1315.5466 3535.0782 1305.8802 3537.1585 1307.4893 3542.4785 1316.2289 3549.0335 1328.4577 3553.4292 1336.508 3559.6747 1346.6277 3556.2157 1353.7642 3555.5304 1362.9695 3562.9245 1365.2645 3561.7753 1372.169 3559.9329 1378.8441 Z" fill="none" stroke="#012394" opacity="0.6" stroke-width="1" class="mott_haven"/>
<path d="M 3493.1662 1362.2133 3656.7637 1409.4785 3568.1812 1560.5354 3523.352 1555.0485 3491.8972 1514.1047 3493.1662 1362.2133 Z" fill="none" stroke="#012394" opacity="0.6" stroke-width="1" class="mott_haven"/>
<path d="M 3725.3804 983.4733 3691.722 984.992 3735.0459 899.3821 3780.3455 940.7365 3725.3804 983.4733 Z" fill="none" stroke="#012394" opacity="0.6" stroke-width="1" class="mott_haven"/>
<path d="M 3548.7068 1481.3777 3550.5513 1476.7733 3660.4547 1403.9519 3675.2407 1404.8583 3772.2777 1413.9649 3771.4008 1458.1521 3800.0566 1465.4856 3806.56 1496.7785 3705.9011 1571.4562 3548.7068 1481.3777 Z" fill="none" stroke="#012394" opacity="0.6" stroke-width="1" class="mott_haven"/>
<path d="M 3508.0177 1447.3494 3595.8665 1513.5586 3537.7 1582.6571 3491.4297 1507.2004 3502.4745 1449.1949 3508.0177 1447.3494 Z" fill="none" stroke="#012394" opacity="0.6" stroke-width="1" class="mott_haven"/>
<path d="M 3404.4893 1406.0011 3630.0888 1543.9088 3489.7143 1680.2931 3190.215 1650.0901 3371.2104 1386.6924 3404.4893 1406.0011 Z" fill="none" stroke="#012394" opacity="0.6" stroke-width="1" class="mott_haven"/>
<path d="M 3509.0006 1521.9167 3553.3298 1484.1357 3588.4273 1461.0912 3655.844 1414.082 3783.4262 1469.186 3752.0809 1541.0272 3634.7947 1635.974 3508.0858 1533.8857 3509.0006 1521.9167 Z" fill="none" stroke="#012394" opacity="0.6" stroke-width="1" class="mott_haven"/>
<path d="M 3576.2428 1531.0676 3537.7021 1585.189 3500.7235 1573.9401 3515.0032 1516.158 3576.2428 1531.0676 Z" fill="none" stroke="#012394" opacity="0.6" stroke-width="1" class="mott_haven"/>
<path d="M 3481.1542 1362.6828 3635.5058 1404.8958 3643.8327 1415.9343 3548.7909 1582.6479 3496.0627 1522.8474 3481.1542 1362.6828 Z" fill="none" stroke="#012394" opacity="0.6" stroke-width="1" class="mott_haven"/>
<path d="M 3604.9992 1391.1158 3811.1573 1475.5998 3786.3222 1583.3415 3713.4115 1687.4611 3486.8223 1524.6958 3493.163 1358.0712 3604.9992 1391.1158 Z" fill="none" stroke="#012394" opacity="0.6" stroke-width="1" class="mott_haven"/>
<path d="M 3498.7916 1466.6886 3500.5717 1379.2365 3559.7112 1380.1091 3667.8499 1406.7064 3766.7499 1429.6198 3861.9742 1466.3363 3890.7067 1537.1894 3807.5584 1563.984 3781.6563 1541.9164 3770.56 1536.4044 3675.4139 1584.3757 3630.109 1566.0047 3547.3534 1520.9651 3513.5972 1491.3026 3498.7916 1466.6886 Z" fill="none" stroke="#012394" opacity="0.6" stroke-width="1" class="mott_haven"/></svg>