<?xml version="1.0"?><svg xmlns="http://www.w3.org/2000/svg" version="1.2" baseProfile="tiny" width="6000" height="5918" viewBox="0 0 6000 5918" stroke-linecap="round" stroke-linejoin="round"><path d="M 4719.0204 2094.8339 4849.446 2111.1364 4862.5912 2200.4683 4702.6341 2221.0787 4659.9366 2144.6997 4719.0204 2094.8339 Z" fill="none" stroke="#12852D" opacity="0.6" stroke-width="1" class="murray_hill__queens_"/>
<path d="M 4667.783 2137.5444 4654.9026 2055.3542 4734.1663 2040.9145 4777.6244 2039.6714 4781.7496 2131.0896 4732.9593 2127.2773 4667.783 2137.5444 Z" fill="none" stroke="#12852D" opacity="0.6" stroke-width="1" class="murray_hill__queens_"/>
<path d="M 4673.7918 2136.3807 4656.8041 1966.0032 4998.06 1995.6531 4989.3366 2217.6828 4673.7918 2136.3807 Z" fill="none" stroke="#12852D" opacity="0.6" stroke-width="1" class="murray_hill__queens_"/>
<path d="M 4824.5309 2146.7097 4809.2828 2290.1978 4784.7572 2283.3403 4700.0552 2216.4093 4673.0815 2140.9202 4766.4599 2128.7509 4824.5309 2146.7097 Z" fill="none" stroke="#12852D" opacity="0.6" stroke-width="1" class="murray_hill__queens_"/>
<path d="M 4778.6206 2290.0204 4695.2314 2219.2512 4674.7706 2163.0947 4656.1083 2080.2231 4651.3926 2034.175 4654.9604 1968.7701 4677.0244 1906.0953 4689.8819 1863.7039 4617.4061 1678.7533 4658.0566 1668.5441 4703.2578 1624.2562 4773.6033 1671.0675 4789.305 1665.5093 4848.5146 1689.3208 4914.1453 1690.0944 4983.519 1710.1916 4964.1889 1745.2285 4987.377 1778.3253 4966.2181 1822.5783 4991.4614 1942.2468 5003.7302 2047.2222 4992.9621 2186.3503 5005.2997 2318.9943 4957.3043 2363.3354 4922.1182 2347.752 4886.9519 2340.4602 4813.9281 2363.6574 4778.6206 2290.0204 Z" fill="none" stroke="#12852D" opacity="0.6" stroke-width="1" class="murray_hill__queens_"/>
<path d="M 4682.5568 1898.716 4987.698 1914.6249 5002.8633 2461.8287 4653.0357 2393.4796 4682.5568 1898.716 Z" fill="none" stroke="#12852D" opacity="0.6" stroke-width="1" class="murray_hill__queens_"/>
<path d="M 4822.5175 2060.5307 4827.0767 2031.0442 4863.1331 2028.2014 4911.2395 2038.2257 4993.5759 2054.6154 4994.5615 2080.4056 4984.5086 2131.0952 4912.3737 2130.3409 4849.4684 2121.2697 4823.5567 2113.0356 4822.5175 2060.5307 Z" fill="none" stroke="#12852D" opacity="0.6" stroke-width="1" class="murray_hill__queens_"/>
<path d="M 4816.8471 2004.3542 4906.5617 2014.2871 4882.0708 2226.2213 4712.7886 2211.8447 4816.8471 2004.3542 Z" fill="none" stroke="#12852D" opacity="0.6" stroke-width="1" class="murray_hill__queens_"/>
<path d="M 4646.8426 2071.03 5017.5039 2006.66 5074.379 2199.0527 4718.3988 2241.3152 4646.8426 2071.03 Z" fill="none" stroke="#12852D" opacity="0.6" stroke-width="1" class="murray_hill__queens_"/>
<path d="M 4696.7304 2220.0709 4667.9822 2138.0795 4657.7607 2072.1087 4735.8921 2056.5634 4850.5235 2065.9872 4838.1245 2190.3884 4818.0504 2185.5212 4799.2045 2184.4235 4786.7301 2189.5173 4696.7304 2220.0709 Z" fill="none" stroke="#12852D" opacity="0.6" stroke-width="1" class="murray_hill__queens_"/>
<path d="M 4220.441 2003.62 4297.4535 2167.4676 4203.1265 2170.3798 4220.441 2003.62 Z" fill="none" stroke="#12852D" opacity="0.6" stroke-width="1" class="murray_hill__queens_"/>
<path d="M 4697.6891 2064.4791 4753.1526 2055.1524 4791.0437 2044.9392 4810.4164 2023.7115 4868.6853 2030.0313 4852.2406 2120.3423 4924.3853 2125.7074 4914.3407 2181.9262 4968.0453 2209.441 4944.9898 2238.0552 4908.9361 2245.5084 4907.9756 2229.8481 4825.6355 2218.0543 4777.5876 2239.3483 4769.2363 2226.4675 4758.9985 2196.0863 4694.3008 2216.4892 4671.9422 2136.3845 4697.6891 2064.4791 Z" fill="none" stroke="#12852D" opacity="0.6" stroke-width="1" class="murray_hill__queens_"/>
<path d="M 4745.3969 2104.912 4765.2908 2110.3973 4775.0106 2114.9827 4780.3988 2148.1352 4787.3703 2164.7028 4754.523 2156.9419 4745.3969 2104.912 Z" fill="none" stroke="#12852D" opacity="0.6" stroke-width="1" class="murray_hill__queens_"/>
<path d="M 5999 2524.5167 5999 2539.5997 5999 2555.3212 5999 2587.9717 5999 2588.8586 5999 2610.1138 5999 2613.5943 5999 2617.5173 5999 2626.5454 5999 2628.0705 5999 2628.3143 5999 2628.7702 5999 2629.4242 5999 2633.76 5999 2633.7959 5999 2633.8528 5999 2634.2103 5999 2634.3295 5999 2637.391 5999 2637.4884 5999 2638.2622 5999 2639.7131 5999 2646.6027 5999 2647.5003 5999 2648.0545 5999 2666.0367 5999 2677.5779 5999 2681.03 5999 2705.5252 4673.0625 3149.35 4563.4943 2978.0496 4550.4905 2954.1015 5853.6655 2370.0434 5999 2524.5167 Z" fill="none" stroke="#12852D" opacity="0.6" stroke-width="1" class="murray_hill__queens_"/>
<path d="M 4854.188 2164.5573 4760.4295 1998.0275 4968.4541 1988.3539 4854.188 2164.5573 Z" fill="none" stroke="#12852D" opacity="0.6" stroke-width="1" class="murray_hill__queens_"/>
<path d="M 4688.2498 2197.1544 4677.1041 2173.6845 4673.3592 2151.1214 4662.6971 2137.785 4657.5628 2113.8436 4657.9919 2097.2612 4661.665 2084.3573 4658.4109 2075.6127 4652.3606 2055.8199 4656.0391 2045.6799 4653.218 2022.1968 4652.7299 2009.3022 4657.283 1974.2918 4659.1175 1966.9196 4698.8799 1968.6811 4716.4448 1967.2633 4728.932 1969.5401 4790.3818 1951.9102 4799.6288 1952.3508 4828.7367 1944.4587 4859.2474 1943.931 4870.7946 1939.3001 4882.383 1953.0898 4889.3186 1953.5348 4913.8626 1971.9004 4923.0962 1966.3529 4963.7719 1963.0353 4985.5122 1968.0503 4995.2392 1975.8565 4995.4965 1986.9088 4996.6749 1996.4623 5000.8735 2012.3414 5002.9813 2023.8503 5001.9784 2039.627 5004.6508 2045.4929 5003.4066 2057.0102 5001.2342 2067.0329 5000.5818 2084.4215 4999.5641 2093.9812 4998.8888 2101.6978 4999.3866 2116.6661 4995.1401 2129.5732 4996.0814 2136.5953 4995.7545 2145.0023 4994.4076 2162.0486 4992.9306 2172.992 4990.2902 2180.829 4983.7018 2181.3051 4977.3442 2181.5504 4970.0595 2180.8765 4965.4338 2180.1963 4960.4757 2185.7355 4955.2682 2183.4444 4945.0937 2182.8922 4938.614 2180.3736 4932.0252 2180.6191 4923.5843 2179.8323 4918.8424 2178.9218 4911.2092 2177.4422 4904.5026 2176.7664 4896.9882 2176.6683 4888.8913 2174.6137 4883.1138 2175.7782 4878.9443 2172.3328 4863.5656 2170.755 4858.5909 2169.0386 4850.7263 2167.4438 4795.0238 2175.7415 4737.7155 2190.6033 4688.2498 2197.1544 Z" fill="none" stroke="#12852D" opacity="0.6" stroke-width="1" class="murray_hill__queens_"/>
<path d="M 4777.3917 2038.9811 4779.0954 2079.0476 4779.8661 2115.2026 4782.9346 2144.6752 4720.3271 2167.6078 4714.5128 2151.0373 4711.2332 2130.3163 4667.5523 2137.7752 4654.6719 2055.585 4684.2508 2049.7681 4733.702 2039.9943 4748.9599 2040.1927 4777.3917 2038.9811 Z" fill="none" stroke="#12852D" opacity="0.6" stroke-width="1" class="murray_hill__queens_"/></svg>