<?xml version="1.0"?><svg xmlns="http://www.w3.org/2000/svg" version="1.2" baseProfile="tiny" width="6000" height="5918" viewBox="0 0 6000 5918" stroke-linecap="round" stroke-linejoin="round"><path d="M 1022.9391 4536.7567 1193.359 4641.4222 1107.8879 4735.4936 918.4274 4881.1055 948.6015 4623.4347 1022.9391 4536.7567 Z" fill="none" stroke="#012394" opacity="0.6" stroke-width="1" class="new_springville"/>
<path d="M 943.0524 4616.035 1029.4511 4524.7626 1192.4379 4637.7261 1109.7119 4753.0481 1021.4741 4828.641 936.9805 4879.2937 940.9041 4768.4417 943.0524 4616.035 Z" fill="none" stroke="#012394" opacity="0.6" stroke-width="1" class="new_springville"/>
<path d="M 898.8483 4418.5769 924.8908 4419.2872 916.5534 4415.363 1023.1375 4370.1417 1138.1236 4346.3387 1175.7586 4382.8763 1256.3239 4434.7202 1251.5236 4501.4139 1196.601 4636.1674 1272.4651 4627.1405 1354.1533 4726.3747 1223.2623 4811.1577 1181.8511 4877.4522 1082.4047 4993.6967 937.431 5020.1427 942.7195 4906.3796 684.943 4614.5643 898.8483 4418.5769 Z" fill="none" stroke="#012394" opacity="0.6" stroke-width="1" class="new_springville"/>
<path d="M 986.4464 4576.4698 1019.9004 4540.0343 1040.3143 4530.8363 1070.8716 4552.1333 1106.0515 4581.7502 1156.9931 4613.2409 1186.6392 4628.069 1198.6549 4651.1802 1188.4029 4682.5682 1151.2034 4711.7648 1131.6836 4738.5195 1096.4042 4761.5519 1062.9595 4794.7486 1020.078 4835.4064 979.2379 4852.8833 949.5011 4883.3146 921.6769 4883.2608 920.8664 4823.2084 929.4049 4724.3804 954.6388 4621.9001 986.4464 4576.4698 Z" fill="none" stroke="#012394" opacity="0.6" stroke-width="1" class="new_springville"/>
<path d="M 948.3591 4870.4233 930.9425 4884.1325 929.9202 4873.2749 928.6704 4860.1073 928.3403 4850.9835 930.3342 4839.0928 929.7817 4825.1187 930.8461 4814.2658 930.8922 4790.4778 932.4202 4779.6262 934.4293 4759.7689 935.9709 4741.874 935.6367 4734.8298 940.4456 4705.6261 946.4473 4658.7603 954.2674 4630.3729 971.9347 4604.0831 1003.5176 4572.9709 1014.4482 4553.3651 1015.5248 4535.2423 1014.3885 4523.0032 1035.9351 4528.0069 1052.7459 4524.3433 1076.9541 4531.6597 1099.8795 4543.7065 1151.3851 4582.9324 1179.9763 4604.2236 1191.2046 4612.6704 1230.6995 4629.707 1185.316 4668.657 1164.0671 4690.9053 1130.8547 4726.6425 1103.6796 4755.5778 1019.2879 4819.7451 981.6756 4847.2746 948.3591 4870.4233 Z" fill="none" stroke="#012394" opacity="0.6" stroke-width="1" class="new_springville"/>
<path d="M 1007.4661 4381.5841 998.787 4561.6482 1010.8332 4565.3649 1013.6541 4544.128 917.2491 4534.7091 891.5216 4417.3749 890.6092 4409.9856 1007.4661 4381.5841 Z" fill="none" stroke="#012394" opacity="0.6" stroke-width="1" class="new_springville"/>
<path d="M 955.0814 4628.989 899.8666 4416.4679 1011.1963 4369.5869 1029.4291 4536.7687 1132.2058 4615.4567 1055.0817 4706.764 955.0814 4628.989 Z" fill="none" stroke="#012394" opacity="0.6" stroke-width="1" class="new_springville"/>
<path d="M 1015.5203 4537.6666 1034.9936 4535.8553 1163.6998 4633.9833 1190.5941 4631.2575 1184.9691 4668.1945 1115.2856 4747.5152 927.6986 4882.9713 955.0867 4626.2181 1015.5203 4537.6666 Z" fill="none" stroke="#012394" opacity="0.6" stroke-width="1" class="new_springville"/>
<path d="M 893.3757 4417.3785 898.9596 4406.3084 1125.2652 4340.2435 1255.0021 4362.6205 1247.4797 4429.0943 1178.4767 4669.1074 1115.3001 4739.2015 931.4192 4877.4352 951.3601 4635.4474 995.9934 4568.108 943.1929 4543.0714 956.3689 4440.5873 893.3757 4417.3785 Z" fill="none" stroke="#012394" opacity="0.6" stroke-width="1" class="new_springville"/>
<path d="M 959.7158 4629.9215 1025.7188 4537.6854 1192.4425 4634.9552 1120.8593 4741.9824 959.7158 4629.9215 Z" fill="none" stroke="#012394" opacity="0.6" stroke-width="1" class="new_springville"/>
<path d="M 953.8059 4810.9612 955.9919 4637.7653 936.8166 4724.0936 935.5839 4882.0627 958.3196 4632.6897 1118.5281 4749.3684 942.1021 4868.679 953.8059 4810.9612 Z" fill="none" stroke="#012394" opacity="0.6" stroke-width="1" class="new_springville"/>
<path d="M 1024.8375 4512.7482 1191.5782 4597.085 1237.8724 4637.8005 1122.7268 4734.5957 1123.6205 4753.996 961.5773 4626.2305 1024.8375 4512.7482 Z" fill="none" stroke="#012394" opacity="0.6" stroke-width="1" class="new_springville"/>
<path d="M 1018.3017 4537.6717 1038.6971 4538.6327 1189.6592 4635.8742 1186.8174 4671.8924 1119.9223 4747.5233 935.1291 4877.4424 938.3592 4645.5825 1018.3017 4537.6717 Z" fill="none" stroke="#012394" opacity="0.6" stroke-width="1" class="new_springville"/>
<path d="M 928.644 4873.7343 836.739 4460.6673 1059.4322 4351.2075 1236.0732 4603.6232 928.644 4873.7343 Z" fill="none" stroke="#012394" opacity="0.6" stroke-width="1" class="new_springville"/>
<path d="M 929.5553 4882.051 1010.2761 4365.8916 1204.498 4634.0515 925.8365 4886.6632 1006.5614 4369.5783 929.5553 4882.051 Z" fill="none" stroke="#012394" opacity="0.6" stroke-width="1" class="new_springville"/>
<path d="M 1020.1543 4538.5987 1166.4815 4633.988 1190.5895 4634.0284 1182.178 4673.732 929.5589 4880.2033 952.3086 4624.3655 943.1964 4541.2243 959.1447 4443.363 974.1068 4375.0577 1006.5648 4367.7315 1020.1543 4538.5987 Z" fill="none" stroke="#012394" opacity="0.6" stroke-width="1" class="new_springville"/>
<path d="M 930.481 4882.9767 948.5642 4642.8312 955.0885 4625.2944 1008.0397 4571.8248 1014.5914 4538.5884 1034.9919 4536.7789 1164.6302 4632.1376 1188.7366 4633.1017 1184.0433 4667.2693 1117.1403 4747.5185 930.481 4882.9767 Z" fill="none" stroke="#012394" opacity="0.6" stroke-width="1" class="new_springville"/>
<path d="M 939.7611 4880.223 1008.5297 4807.3691 927.7147 4874.6564 925.8921 4858.0232 932.5972 4748.1028 948.5624 4643.7548 990.3905 4589.3401 1023.8696 4534.9114 1072.9533 4565.478 1152.6076 4613.6445 1192.4317 4641.4207 1156.1704 4699.5516 1113.4261 4750.2833 1091.1453 4764.1006 1059.5634 4792.6815 1047.5074 4792.6597 1027.0726 4810.1748 987.1473 4835.044 958.3494 4859.9334 939.7611 4880.223 Z" fill="none" stroke="#012394" opacity="0.6" stroke-width="1" class="new_springville"/>
<path d="M 988.874 4470.6654 1195.9554 4623.397 1112.2731 4756.2672 932.17 4857.555 955.2064 4451.1864 988.874 4470.6654 Z" fill="none" stroke="#012394" opacity="0.6" stroke-width="1" class="new_springville"/>
<path d="M 981.6698 4788.8427 904.5035 4415.5536 1016.7427 4377.9077 1099.8118 4582.1503 981.6698 4788.8427 Z" fill="none" stroke="#012394" opacity="0.6" stroke-width="1" class="new_springville"/>
<path d="M 949.7538 4506.1424 1243.4046 4657.2063 1129.1798 4756.777 921.7516 4603.063 949.7538 4506.1424 Z" fill="none" stroke="#012394" opacity="0.6" stroke-width="1" class="new_springville"/>
<path d="M 863.6219 4461.6452 924.9303 4398.9719 1019.5441 4366.8322 1006.1974 4565.3563 1044.2733 4531.2545 1182.2908 4606.3056 1115.3146 4730.8878 972.7022 4627.1752 863.6219 4461.6452 Z" fill="none" stroke="#012394" opacity="0.6" stroke-width="1" class="new_springville"/>
<path d="M 956.9372 4628.2998 1017.8347 4539.518 1032.6728 4537.4673 1035.7134 4522.4652 1040.5829 4521.3197 1090.623 4535.2628 1100.8056 4544.2854 1192.9406 4614.1742 1184.5016 4670.503 1117.6048 4747.0574 956.242 4628.183 956.9372 4628.2998 Z" fill="none" stroke="#012394" opacity="0.6" stroke-width="1" class="new_springville"/>
<path d="M 1028.5002 4537.6905 1194.2923 4637.7292 1118.9998 4744.7505 939.77 4875.6036 961.5738 4628.0777 1028.5002 4537.6905 Z" fill="none" stroke="#012394" opacity="0.6" stroke-width="1" class="new_springville"/>
<path d="M 955.56 4621.139 1019.6941 4536.7508 1039.207 4513.2363 1199.0103 4588.3231 1193.3068 4672.8268 1128.2716 4745.6903 937.9187 4873.7523 955.56 4621.139 Z" fill="none" stroke="#012394" opacity="0.6" stroke-width="1" class="new_springville"/>
<path d="M 1017.3763 4536.7465 1034.0664 4535.8536 1034.0935 4521.077 1100.8154 4538.7441 1196.1805 4617.4123 1185.8948 4669.1198 1118.0676 4747.5201 994.7952 4836.906 932.9647 4797.7567 954.1564 4627.8326 1007.1108 4572.7466 1016.4129 4556.3704 1017.3763 4536.7465 Z" fill="none" stroke="#012394" opacity="0.6" stroke-width="1" class="new_springville"/>
<path d="M 946.1767 4437.7974 1021.2619 4440.7091 1017.3336 4559.8355 933.8803 4564.2955 946.1767 4437.7974 Z" fill="none" stroke="#012394" opacity="0.6" stroke-width="1" class="new_springville"/>
<path d="M 1009.4361 4568.8257 1015.0533 4539.5128 1031.7469 4536.7729 1165.5566 4632.601 1190.1267 4633.5658 1184.0449 4666.3456 1116.6799 4745.6702 932.8015 4882.0573 931.6108 4778.5854 947.6041 4659.9171 954.6204 4627.6026 973.2096 4604.0855 1009.4361 4568.8257 Z" fill="none" stroke="#012394" opacity="0.6" stroke-width="1" class="new_springville"/>
<path d="M 1119.9175 4750.2946 943.0239 4630.8131 1016.5106 4503.4976 1198.9943 4598.0209 1196.084 4675.6025 1119.9175 4750.2946 Z" fill="none" stroke="#012394" opacity="0.6" stroke-width="1" class="new_springville"/>
<path d="M 960.9953 4445.2134 1199.8894 4617.4184 1126.4169 4745.6871 941.6321 4871.9117 960.9953 4445.2134 Z" fill="none" stroke="#012394" opacity="0.6" stroke-width="1" class="new_springville"/>
<path d="M 959.7158 4629.9215 1009.9506 4541.3505 1193.3735 4632.6476 1123.6381 4743.8348 1118.9966 4746.598 937.9312 4867.2852 902.1585 4664.9089 894.7185 4675.9784 959.7158 4629.9215 Z" fill="none" stroke="#012394" opacity="0.6" stroke-width="1" class="new_springville"/></svg>