<?xml version="1.0"?><svg xmlns="http://www.w3.org/2000/svg" version="1.2" baseProfile="tiny" width="6000" height="5918" viewBox="0 0 6000 5918" stroke-linecap="round" stroke-linejoin="round"><path d="M 1667.6435 5040.7303 1644.2386 5025.6873 1615.2038 5064.2313 1576.7032 5066.4938 1552.8451 5043.8243 1544.2573 5049.3575 1490.9719 5009.3231 1510.7177 4983.4776 1524.1533 4994.3522 1554.5745 4960.8975 1576.8172 4975.7091 1613.3001 4913.388 1713.4 4977.2567 1667.6435 5040.7303 Z" fill="none" stroke="#012394" opacity="0.6" stroke-width="1" class="new_dorp_beach"/>
<path d="M 1457.0975 5021.5201 1490.4542 5049.2866 1437.6281 5014.1009 1419.1128 4988.2027 1355.1552 4957.6185 1460.1531 4823.8046 1556.6919 4755.572 1674.3675 4840.7049 1533.0968 5071.5204 1457.0975 5021.5201 Z" fill="none" stroke="#012394" opacity="0.6" stroke-width="1" class="new_dorp_beach"/>
<path d="M 1730.3134 4990.6731 1628.3401 5133.0921 1528.7034 5061.581 1478.6677 5019.2396 1580.6359 4889.0952 1730.3134 4990.6731 Z" fill="none" stroke="#012394" opacity="0.6" stroke-width="1" class="new_dorp_beach"/>
<path d="M 1503.5237 4987.395 1580.0814 4889.72 1705.1506 4976.8941 1665.6172 5039.8279 1660.9834 5036.1264 1637.3499 5018.542 1637.5779 5024.8755 1610.5056 5058.5999 1556.355 5019.342 1539.2062 5010.0799 1528.0907 4998.0534 1521.6024 4994.3489 1516.9699 4990.1848 1510.4818 4986.4803 1512.8251 4997.4793 1508.3352 4992.9195 1503.5237 4987.395 Z" fill="none" stroke="#012394" opacity="0.6" stroke-width="1" class="new_dorp_beach"/>
<path d="M 1506.3126 4982.7788 1580.6342 4890.481 1716.8832 4972.8717 1713.1699 4975.6395 1666.7239 5033.7989 1663.0156 5031.9466 1612.8891 5060.5322 1506.3126 4982.7788 Z" fill="none" stroke="#012394" opacity="0.6" stroke-width="1" class="new_dorp_beach"/>
<path d="M 1509.557 4984.4001 1510.7201 4981.6297 1525.1196 4964.7862 1547.6526 4933.8631 1581.5602 4891.6371 1620.9462 4918.2478 1659.6431 4941.1611 1713.1701 4975.4085 1683.2072 5018.1095 1644.8586 5089.6788 1613.8159 5061.2264 1603.6183 5055.9006 1585.0821 5042.479 1560.5231 5024.1985 1531.7956 5002.2162 1519.5181 4992.2671 1509.557 4984.4001 Z" fill="none" stroke="#012394" opacity="0.6" stroke-width="1" class="new_dorp_beach"/>
<path d="M 1715.0311 4970.0978 1594.2252 5150.147 1472.8392 5041.8704 1581.5721 4882.1672 1715.0311 4970.0978 Z" fill="none" stroke="#012394" opacity="0.6" stroke-width="1" class="new_dorp_beach"/>
<path d="M 1538.822 4948.6348 1575.9968 4890.4752 1708.531 4976.5583 1667.643 5041.1923 1538.822 4948.6348 Z" fill="none" stroke="#012394" opacity="0.6" stroke-width="1" class="new_dorp_beach"/>
<path d="M 1578.664 4982.4103 1615.3856 4914.5454 1614.9208 4915.4688 1611.2068 4918.698 1709.9244 4974.7119 1707.136 4979.7907 1664.3941 5043.0366 1578.664 4982.4103 Z" fill="none" stroke="#012394" opacity="0.6" stroke-width="1" class="new_dorp_beach"/>
<path d="M 1535.1142 4946.7821 1584.3499 4885.8662 1708.5362 4971.9385 1662.9984 5046.7311 1535.1142 4946.7821 Z" fill="none" stroke="#012394" opacity="0.6" stroke-width="1" class="new_dorp_beach"/></svg>