<?xml version="1.0"?><svg xmlns="http://www.w3.org/2000/svg" version="1.2" baseProfile="tiny" width="6000" height="5918" viewBox="0 0 6000 5918" stroke-linecap="round" stroke-linejoin="round"><path d="M 2792.0983 2688.6706 2793.3706 2686.2509 2839.2844 2618.1562 2873.9837 2636.9324 2845.3065 2711.2509 2792.0983 2688.6706 Z" fill="none" stroke="#FBC20F" opacity="0.6" stroke-width="1" class="noho"/>
<path d="M 2815.9261 2699.9612 2863.1138 2656.6353 2914.4712 2679.2112 2885.7926 2728.0693 2815.9261 2699.9612 Z" fill="none" stroke="#FBC20F" opacity="0.6" stroke-width="1" class="noho"/>
<path d="M 2845.5379 2712.864 2734.4978 2656.6399 2753.467 2606.4075 2855.7128 2671.3838 2845.5379 2712.864 Z" fill="none" stroke="#FBC20F" opacity="0.6" stroke-width="1" class="noho"/>
<path d="M 2887.1808 2729.4518 2816.3887 2699.5003 2793.2549 2687.7488 2818.9305 2648.3434 2904.0642 2698.3393 2887.1808 2729.4518 Z" fill="none" stroke="#FBC20F" opacity="0.6" stroke-width="1" class="noho"/>
<path d="M 2800.6578 2694.4313 2767.3458 2671.849 2794.1786 2632.6753 2827.027 2652.0297 2800.6578 2694.4313 Z" fill="none" stroke="#FBC20F" opacity="0.6" stroke-width="1" class="noho"/>
<path d="M 2814.7694 2699.7308 2860.5665 2629.6754 2864.4991 2631.7489 2844.1499 2712.6337 2814.7694 2699.7308 Z" fill="none" stroke="#FBC20F" opacity="0.6" stroke-width="1" class="noho"/>
<path d="M 2874.4971 2637.9518 2844.0105 2711.3769 2800.7433 2693.2314 2848.5461 2623.9754 2874.4971 2637.9518 Z" fill="none" stroke="#FBC20F" opacity="0.6" stroke-width="1" class="noho"/>
<path d="M 2844.6125 2711.9423 2792.0983 2688.4401 2837.8965 2617.2346 2846.9182 2622.3031 2864.7303 2630.5967 2844.6125 2711.9423 Z" fill="none" stroke="#FBC20F" opacity="0.6" stroke-width="1" class="noho"/>
<path d="M 2792.561 2688.4401 2838.359 2616.0824 2874.909 2637.0475 2845.0751 2711.2509 2792.561 2688.4401 Z" fill="none" stroke="#FBC20F" opacity="0.6" stroke-width="1" class="noho"/>
<path d="M 2742.8236 2734.5293 2746.5251 2730.8421 2753.9288 2670.9272 2842.7592 2680.1416 2840.9129 2734.5265 2820.5567 2768.6352 2742.8236 2734.5293 Z" fill="none" stroke="#FBC20F" opacity="0.6" stroke-width="1" class="noho"/>
<path d="M 2808.5176 2574.1484 2895.491 2598.1035 2862.1902 2673.6875 2784.4638 2660.788 2808.5176 2574.1484 Z" fill="none" stroke="#FBC20F" opacity="0.6" stroke-width="1" class="noho"/>
<path d="M 2737.2737 2655.2574 2770.1213 2580.6009 2944.5416 2666.3016 2914.4812 2742.814 2737.2737 2655.2574 Z" fill="none" stroke="#FBC20F" opacity="0.6" stroke-width="1" class="noho"/>
<path d="M 2792.0983 2688.901 2838.3592 2618.3866 2848.6531 2622.6486 2864.8462 2632.4401 2848.0748 2622.7639 2864.4993 2633.1314 2845.3065 2711.4814 2792.0983 2688.901 Z" fill="none" stroke="#FBC20F" opacity="0.6" stroke-width="1" class="noho"/>
<path d="M 2758.5553 2679.2229 2772.4343 2577.8359 2863.1112 2631.2882 2770.5847 2740.9822 2711.3616 2722.5446 2762.2568 2597.1908 2758.5553 2679.2229 Z" fill="none" stroke="#FBC20F" opacity="0.6" stroke-width="1" class="noho"/>
<path d="M 2844.844 2713.325 2814.7694 2700.4222 2799.9638 2696.0444 2847.3808 2622.5335 2866.3497 2632.2095 2844.844 2713.325 Z" fill="none" stroke="#FBC20F" opacity="0.6" stroke-width="1" class="noho"/>
<path d="M 2843.4559 2713.0946 2775.4423 2678.9925 2802.7376 2637.9748 2820.5475 2609.8623 2864.962 2634.5139 2843.4559 2713.0946 Z" fill="none" stroke="#FBC20F" opacity="0.6" stroke-width="1" class="noho"/>
<path d="M 2889.9567 2728.0687 2790.0164 2690.2837 2840.9037 2619.3081 2875.1395 2629.4434 2889.9567 2728.0687 Z" fill="none" stroke="#FBC20F" opacity="0.6" stroke-width="1" class="noho"/>
<path d="M 2799.7325 2695.814 2858.0196 2605.4813 2864.9546 2564.006 2874.6694 2564.9266 2905.2036 2581.9731 2861.726 2658.4789 2845.0752 2711.9423 2799.7325 2695.814 Z" fill="none" stroke="#FBC20F" opacity="0.6" stroke-width="1" class="noho"/>
<path d="M 2843.6872 2712.4033 2797.4191 2693.9705 2841.8299 2631.2901 2863.1135 2654.331 2843.6872 2712.4033 Z" fill="none" stroke="#FBC20F" opacity="0.6" stroke-width="1" class="noho"/>
<path d="M 2821.9355 2611.7055 2922.1028 2665.6143 2887.8747 2728.2995 2788.397 2688.6707 2821.9355 2611.7055 Z" fill="none" stroke="#FBC20F" opacity="0.6" stroke-width="1" class="noho"/>
<path d="M 2865.4244 2631.9792 2846.4633 2712.8639 2791.4043 2689.3619 2801.5823 2673.9222 2812.9165 2656.1783 2821.9384 2661.0169 2827.2584 2652.9515 2847.1495 2622.764 2865.4244 2631.9792 Z" fill="none" stroke="#FBC20F" opacity="0.6" stroke-width="1" class="noho"/>
<path d="M 2800.8891 2693.3943 2847.3809 2623.2248 2865.1929 2630.3662 2844.6124 2710.6749 2800.8891 2693.3943 Z" fill="none" stroke="#FBC20F" opacity="0.6" stroke-width="1" class="noho"/>
<path d="M 2866.3497 2632.2095 2842.9932 2712.6338 2802.5084 2693.5095 2846.2242 2622.5336 2866.3497 2632.2095 Z" fill="none" stroke="#FBC20F" opacity="0.6" stroke-width="1" class="noho"/>
<path d="M 2792.0983 2688.3249 2837.8964 2616.8889 2865.0774 2631.6336 2864.0371 2637.5096 2844.3811 2711.3662 2792.0983 2688.3249 Z" fill="none" stroke="#FBC20F" opacity="0.6" stroke-width="1" class="noho"/>
<path d="M 2800.1951 2694.4313 2826.7958 2654.1036 2839.7505 2661.4765 2855.9441 2671.1534 2846.6945 2711.7117 2800.1951 2694.4313 Z" fill="none" stroke="#FBC20F" opacity="0.6" stroke-width="1" class="noho"/>
<path d="M 2846.4633 2712.8639 2816.3887 2699.0394 2800.1951 2694.4313 2791.867 2688.4401 2838.1278 2617.9258 2865.8871 2632.6704 2846.4633 2712.8639 Z" fill="none" stroke="#FBC20F" opacity="0.6" stroke-width="1" class="noho"/>
<path d="M 2846.6947 2713.3248 2765.9578 2672.7707 2794.6412 2632.6753 2803.2002 2637.2835 2818.6991 2648.1129 2837.8965 2617.0041 2847.3808 2622.7639 2864.9617 2631.288 2846.6947 2713.3248 Z" fill="none" stroke="#FBC20F" opacity="0.6" stroke-width="1" class="noho"/>
<path d="M 2859.8812 2716.3194 2820.3213 2698.8088 2801.5831 2693.2791 2827.0271 2654.3341 2877.4591 2683.8251 2859.8812 2716.3194 Z" fill="none" stroke="#FBC20F" opacity="0.6" stroke-width="1" class="noho"/>
<path d="M 2817.3141 2700.8829 2758.7867 2670.4664 2786.7763 2626.454 2827.4896 2651.3384 2840.4445 2662.1678 2822.6341 2689.591 2819.6271 2695.1217 2817.7768 2700.6524 2805.5159 2696.5051 2783.7703 2685.2142 2817.3141 2700.8829 Z" fill="none" stroke="#FBC20F" opacity="0.6" stroke-width="1" class="noho"/>
<path d="M 2800.4265 2694.8922 2846.9181 2622.0727 2899.4308 2651.1005 2860.8069 2719.776 2800.4265 2694.8922 Z" fill="none" stroke="#FBC20F" opacity="0.6" stroke-width="1" class="noho"/>
<path d="M 2793.7159 2631.5232 2802.0436 2637.0532 2821.1257 2608.2493 2854.8923 2556.7492 2873.6287 2566.8852 2874.9016 2573.3366 2874.6712 2580.5946 2865.1932 2633.477 2856.5225 2671.2685 2845.3068 2715.2837 2800.7734 2694.3161 2766.7675 2673.0012 2793.7159 2631.5232 Z" fill="none" stroke="#FBC20F" opacity="0.6" stroke-width="1" class="noho"/>
<path d="M 2850.1651 2717.0116 2788.1657 2690.2838 2818.6994 2653.4128 2860.3398 2675.5312 2850.1651 2717.0116 Z" fill="none" stroke="#FBC20F" opacity="0.6" stroke-width="1" class="noho"/>
<path d="M 2802.9711 2694.4312 2846.9184 2625.5291 2849.2315 2624.6072 2847.1497 2625.5291 2862.4174 2633.5925 2843.687 2710.0988 2802.9711 2694.4312 Z" fill="none" stroke="#FBC20F" opacity="0.6" stroke-width="1" class="noho"/>
<path d="M 2799.7324 2693.9705 2866.3422 2561.7018 2904.7414 2584.7381 2861.2633 2657.5573 2844.6128 2715.6294 2799.7324 2693.9705 Z" fill="none" stroke="#FBC20F" opacity="0.6" stroke-width="1" class="noho"/>
<path d="M 2733.8039 2652.9529 2754.3923 2603.8729 2855.9441 2670.6925 2845.0752 2711.7118 2733.8039 2652.9529 Z" fill="none" stroke="#FBC20F" opacity="0.6" stroke-width="1" class="noho"/>
<path d="M 2815.2321 2700.883 2840.2129 2658.7113 2858.0261 2671.3836 2844.15 2713.5555 2815.2321 2700.883 Z" fill="none" stroke="#FBC20F" opacity="0.6" stroke-width="1" class="noho"/>
<path d="M 2857.5633 2669.5402 2858.0261 2670.9227 2855.2503 2672.7665 2822.87 2764.0259 2771.9728 2739.5994 2796.4935 2686.5965 2857.5633 2669.5402 Z" fill="none" stroke="#FBC20F" opacity="0.6" stroke-width="1" class="noho"/>
<path d="M 2766.8831 2654.3361 2815 2685.6739 2835.362 2752.0414 2807.6024 2798.1351 2749.2996 2826.7141 2720.6108 2816.5725 2703.9563 2760.3384 2709.5112 2717.9356 2727.0946 2677.3787 2766.8831 2654.3361 Z" fill="none" stroke="#FBC20F" opacity="0.6" stroke-width="1" class="noho"/>
<path d="M 2865.4244 2631.9792 2845.0753 2713.0945 2801.3518 2693.7399 2847.6121 2622.3031 2865.4244 2631.9792 Z" fill="none" stroke="#FBC20F" opacity="0.6" stroke-width="1" class="noho"/>
<path d="M 2792.0983 2688.901 2793.255 2689.3619 2838.1277 2616.3129 2865.4244 2632.2096 2865.1932 2633.1314 2843.9185 2711.7119 2792.0983 2688.901 Z" fill="none" stroke="#FBC20F" opacity="0.6" stroke-width="1" class="noho"/>
<path d="M 2845.3066 2712.6336 2792.3296 2688.4401 2838.3591 2617.465 2846.6869 2622.9944 2864.0365 2631.7489 2845.3066 2712.6336 Z" fill="none" stroke="#FBC20F" opacity="0.6" stroke-width="1" class="noho"/>
<path d="M 2801.1204 2692.5878 2852.0065 2615.6204 2855.7075 2616.0809 2868.6619 2623.4531 2849.7023 2716.0899 2801.1204 2692.5878 Z" fill="none" stroke="#FBC20F" opacity="0.6" stroke-width="1" class="noho"/>
<path d="M 2817.0179 2699.733 2857.6174 2631.8256 2865.2464 2633.5392 2844.5825 2712.2327 2817.0179 2699.733 Z" fill="none" stroke="#FBC20F" opacity="0.6" stroke-width="1" class="noho"/>
<path d="M 2858.4934 2718.8544 2797.419 2692.127 2844.6044 2614.6994 2902.8999 2646.0306 2858.4934 2718.8544 Z" fill="none" stroke="#FBC20F" opacity="0.6" stroke-width="1" class="noho"/>
<path d="M 2854.7856 2651.5667 2900.1264 2662.622 2860.3435 2712.4018 2815.9263 2704.1092 2854.7856 2651.5667 Z" fill="none" stroke="#FBC20F" opacity="0.6" stroke-width="1" class="noho"/>
<path d="M 2860.5753 2717.0107 2859.8811 2715.628 2844.8437 2709.8683 2801.3518 2693.9704 2844.143 2629.677 2864.0367 2633.5923 2860.3375 2652.2574 2864.9641 2654.1004 2887.8668 2667.2324 2860.5753 2717.0107 Z" fill="none" stroke="#FBC20F" opacity="0.6" stroke-width="1" class="noho"/>
<path d="M 2736.5798 2654.3356 2770.5839 2577.6055 2864.7307 2634.7444 2847.8512 2711.2507 2800.4264 2693.9704 2736.5798 2654.3356 Z" fill="none" stroke="#FBC20F" opacity="0.6" stroke-width="1" class="noho"/>
<path d="M 2815.4633 2699.0395 2738.1991 2651.5705 2769.1961 2580.6009 2859.4099 2629.4451 2815.4633 2699.0395 Z" fill="none" stroke="#FBC20F" opacity="0.6" stroke-width="1" class="noho"/>
<path d="M 2844.7282 2711.5966 2816.6201 2701.3438 2823.0967 2688.2083 2858.2536 2632.3256 2865.0776 2633.477 2844.7282 2711.5966 Z" fill="none" stroke="#FBC20F" opacity="0.6" stroke-width="1" class="noho"/>
<path d="M 2845.5377 2709.6378 2802.9709 2690.2833 2853.8566 2611.0118 2867.7369 2625.7575 2845.5377 2709.6378 Z" fill="none" stroke="#FBC20F" opacity="0.6" stroke-width="1" class="noho"/>
<path d="M 2865.6556 2630.827 2844.8439 2712.288 2800.7734 2694.0856 2847.3808 2622.3031 2865.6556 2630.827 Z" fill="none" stroke="#FBC20F" opacity="0.6" stroke-width="1" class="noho"/>
<path d="M 2852.9377 2680.1407 2842.7617 2710.7902 2817.5452 2696.7349 2835.3557 2667.6986 2852.9377 2680.1407 Z" fill="none" stroke="#FBC20F" opacity="0.6" stroke-width="1" class="noho"/>
<path d="M 2799.0385 2695.5836 2857.0944 2605.7119 2868.6607 2612.3929 2866.8112 2621.6099 2878.1465 2628.5214 2858.4879 2662.3966 2844.844 2713.325 2827.2619 2706.6434 2815.4634 2700.6526 2799.0385 2695.5836 Z" fill="none" stroke="#FBC20F" opacity="0.6" stroke-width="1" class="noho"/>
<path d="M 2793.7159 2631.5232 2802.5062 2637.0531 2820.7787 2607.558 2865.6558 2632.6705 2845.0754 2714.0163 2766.4205 2674.3838 2793.7159 2631.5232 Z" fill="none" stroke="#FBC20F" opacity="0.6" stroke-width="1" class="noho"/>
<path d="M 2802.0458 2693.9704 2810.3734 2686.135 2861.2549 2574.6053 2868.1935 2570.4572 2907.5196 2601.5581 2851.5522 2707.5633 2802.0458 2693.9704 Z" fill="none" stroke="#FBC20F" opacity="0.6" stroke-width="1" class="noho"/>
<path d="M 2845.5377 2710.5596 2800.6577 2692.8182 2847.1495 2622.5335 2864.4991 2631.9793 2845.5377 2710.5596 Z" fill="none" stroke="#FBC20F" opacity="0.6" stroke-width="1" class="noho"/>
<path d="M 2844.8439 2712.6336 2801.1205 2694.8922 2847.1494 2621.8423 2865.6557 2631.7488 2844.8439 2712.6336 Z" fill="none" stroke="#FBC20F" opacity="0.6" stroke-width="1" class="noho"/>
<path d="M 2818.7022 2703.1873 2862.1865 2636.8185 2860.3437 2714.2453 2818.7022 2703.1873 Z" fill="none" stroke="#FBC20F" opacity="0.6" stroke-width="1" class="noho"/>
<path d="M 2865.6556 2630.827 2845.5378 2711.2509 2766.8831 2671.3881 2834.8841 2544.8849 2874.9007 2565.3874 2865.6556 2630.827 Z" fill="none" stroke="#FBC20F" opacity="0.6" stroke-width="1" class="noho"/>
<path d="M 2845.5303 2622.9945 2841.8314 2648.8026 2814.0721 2636.8222 2824.2483 2606.4057 2845.5303 2622.9945 Z" fill="none" stroke="#FBC20F" opacity="0.6" stroke-width="1" class="noho"/>
<path d="M 2845.5379 2712.6336 2817.7767 2699.5002 2838.8252 2661.4766 2838.594 2664.0114 2839.7505 2662.1678 2842.9892 2664.011 2857.3321 2671.6141 2845.5379 2712.6336 Z" fill="none" stroke="#FBC20F" opacity="0.6" stroke-width="1" class="noho"/>
<path d="M 2845.3067 2713.5554 2791.173 2690.5141 2838.1277 2616.5433 2867.5062 2631.0573 2845.3067 2713.5554 Z" fill="none" stroke="#FBC20F" opacity="0.6" stroke-width="1" class="noho"/>
<path d="M 2803.4338 2695.8138 2846.4553 2619.3077 2889.025 2679.6758 2863.1205 2722.0802 2803.4338 2695.8138 Z" fill="none" stroke="#FBC20F" opacity="0.6" stroke-width="1" class="noho"/>
<path d="M 2846.4632 2711.9422 2791.4043 2687.9793 2837.2026 2618.3867 2845.9928 2620.6903 2866.8114 2623.9142 2846.4626 2705.0288 2846.4632 2711.9422 Z" fill="none" stroke="#FBC20F" opacity="0.6" stroke-width="1" class="noho"/>
<path d="M 2859.8816 2719.7761 2816.8515 2701.3438 2800.1951 2694.8922 2765.9578 2673.2316 2792.7906 2631.7537 2804.3567 2635.9009 2832.1118 2591.1976 2907.9872 2634.0476 2859.8816 2719.7761 Z" fill="none" stroke="#FBC20F" opacity="0.6" stroke-width="1" class="noho"/>
<path d="M 2807.1331 2649.2657 2814.073 2653.874 2820.5502 2657.0996 2827.4901 2659.8644 2833.5048 2662.6292 2844.1461 2667.237 2850.6237 2671.8452 2854.788 2675.9926 2861.7281 2678.7572 2857.5652 2688.8969 2856.6412 2703.1844 2852.9403 2707.7936 2846.9258 2711.0203 2828.4183 2703.1867 2812.6872 2696.7352 2797.8817 2692.127 2785.8522 2681.988 2776.1363 2675.075 2765.9578 2668.6229 2784.4635 2645.1187 2770.1217 2660.7881 2762.2566 2669.0838 2792.791 2642.3533 2802.0439 2644.6573 2807.1331 2649.2657 Z" fill="none" stroke="#FBC20F" opacity="0.6" stroke-width="1" class="noho"/>
<path d="M 2857.4414 2606.2879 2862.9896 2574.2595 2874.5555 2580.825 2898.3818 2593.61 2893.1786 2602.7122 2888.0909 2611.9297 2883.5814 2620.3407 2884.7394 2631.977 2875.1417 2649.145 2870.8632 2656.9801 2858.029 2700.6493 2855.6005 2706.8716 2852.7097 2716.5505 2845.191 2713.7858 2835.9372 2709.5233 2828.1872 2706.0672 2815.5791 2700.1917 2809.9113 2698.2332 2800.1951 2695.0074 2847.2651 2622.0727 2857.4414 2606.2879 Z" fill="none" stroke="#FBC20F" opacity="0.6" stroke-width="1" class="noho"/>
<path d="M 2843.449 2629.2162 2865.8873 2634.2834 2844.9594 2711.1357 2817.1983 2698.9241 2802.1614 2694.316 2843.449 2629.2162 Z" fill="none" stroke="#FBC20F" opacity="0.6" stroke-width="1" class="noho"/>
<path d="M 2846.4554 2620.6902 2799.7325 2694.8922 2736.3485 2653.4139 2771.0465 2580.1401 2846.4554 2620.6902 Z" fill="none" stroke="#FBC20F" opacity="0.6" stroke-width="1" class="noho"/>
<path d="M 2845.5379 2712.864 2800.6578 2694.6617 2847.1494 2621.8423 2865.887 2631.5183 2845.5379 2712.864 Z" fill="none" stroke="#FBC20F" opacity="0.6" stroke-width="1" class="noho"/>
<path d="M 2813.15 2699.5005 2765.9578 2675.536 2786.3137 2631.293 2839.9813 2655.2549 2813.15 2699.5005 Z" fill="none" stroke="#FBC20F" opacity="0.6" stroke-width="1" class="noho"/>
<path d="M 2815.9261 2700.883 2796.9565 2694.8923 2825.639 2652.0298 2870.9808 2674.6083 2864.9687 2697.6529 2846.9249 2700.4199 2826.5668 2689.8212 2821.0155 2702.2653 2815.9261 2700.883 Z" fill="none" stroke="#FBC20F" opacity="0.6" stroke-width="1" class="noho"/>
<path d="M 2799.7325 2694.8922 2828.1836 2652.4905 2856.6382 2671.6142 2846.926 2713.5552 2799.7325 2694.8922 Z" fill="none" stroke="#FBC20F" opacity="0.6" stroke-width="1" class="noho"/>
<path d="M 2816.1574 2699.9612 2799.2698 2694.8922 2791.6357 2689.8228 2829.1075 2630.8302 2838.1292 2636.1294 2852.2376 2614.0075 2867.7366 2622.5315 2843.6873 2714.0164 2816.1574 2699.9612 Z" fill="none" stroke="#FBC20F" opacity="0.6" stroke-width="1" class="noho"/>
<path d="M 2816.8514 2699.5003 2820.0898 2694.6608 2845.0747 2705.9507 2844.1499 2712.4032 2816.8514 2699.5003 Z" fill="none" stroke="#FBC20F" opacity="0.6" stroke-width="1" class="noho"/>
<path d="M 2844.497 2714.2468 2767.2301 2672.6555 2813.4921 2603.4109 2898.5054 2650.4094 2844.7284 2714.8229 2844.497 2714.2468 Z" fill="none" stroke="#FBC20F" opacity="0.6" stroke-width="1" class="noho"/>
<path d="M 2838.0214 2738.214 2802.5094 2719.4344 2838.9408 2660.6701 2855.7128 2671.6143 2838.0214 2738.214 Z" fill="none" stroke="#FBC20F" opacity="0.6" stroke-width="1" class="noho"/>
<path d="M 3037.1074 2789.3393 2921.4217 2743.2738 2879.3148 2726.2265 2825.1797 2705.0304 2777.0617 2681.5273 2735.4232 2653.4139 2663.2514 2644.6525 2649.3726 2640.964 2657.2517 2517.0027 2658.6411 2501.7967 2672.0598 2460.7888 2678.5356 2459.4071 3068.0722 2674.1049 3041.2563 2736.3329 3035.7112 2761.2235 3037.1074 2789.3393 Z" fill="none" stroke="#FBC20F" opacity="0.6" stroke-width="1" class="noho"/>
<path d="M 2865.887 2631.7487 2846.4633 2712.8639 2801.5831 2693.5095 2845.0676 2621.612 2865.887 2631.7487 Z" fill="none" stroke="#FBC20F" opacity="0.6" stroke-width="1" class="noho"/></svg>