<?xml version="1.0"?><svg xmlns="http://www.w3.org/2000/svg" version="1.2" baseProfile="tiny" width="6000" height="5918" viewBox="0 0 6000 5918" stroke-linecap="round" stroke-linejoin="round"><path d="M 4016.8639 496.3514 4026.1018 500.9373 4031.6798 529.899 4028.0578 582.7863 4013.8338 648.1076 4009.2663 685.3657 3982.916 658.7257 3970.8744 628.8483 3954.706 620.591 3944.5377 610.9464 4016.8639 496.3514 Z" fill="none" stroke="#012394" opacity="0.6" stroke-width="1" class="norwood"/>
<path d="M 4031.6879 535.8768 4045.494 504.8197 4131.8922 560.1086 4089.7528 630.5283 4052.3943 656.5638 4025.0053 543.933 4031.6879 535.8768 Z" fill="none" stroke="#012394" opacity="0.6" stroke-width="1" class="norwood"/>
<path d="M 4078.5912 406.1473 4079.5258 414.422 4075.9076 467.7629 4116.546 481.4997 4114.7234 498.0557 4119.3406 498.9687 4160.8742 492.4706 4111.1804 602.9053 4053.0815 652.6538 4036.33 555.184 3977.1034 446.7443 4015.8931 460.4876 4039.901 465.0534 4078.5912 406.1473 Z" fill="none" stroke="#012394" opacity="0.6" stroke-width="1" class="norwood"/>
<path d="M 3981.7178 445.8188 3983.5676 448.5752 4009.4323 461.4157 4026.969 459.0934 4044.0596 468.2664 4115.6749 517.8267 4149.3872 528.354 4099.6849 635.1131 4056.7962 668.2852 4009.0539 524.4111 3981.7178 445.8188 Z" fill="none" stroke="#012394" opacity="0.6" stroke-width="1" class="norwood"/>
<path d="M 3978.4803 440.7653 4013.5858 460.9504 4026.0409 455.4163 4043.1308 464.1295 4077.6649 403.8497 4077.3013 474.1982 4160.8892 502.5866 4153.5369 525.129 4099.2265 637.4132 4059.1033 667.3622 4053.5437 653.113 3978.4803 440.7653 Z" fill="none" stroke="#012394" opacity="0.6" stroke-width="1" class="norwood"/>
<path d="M 4042.44 465.2799 4076.0517 405.4612 4079.2851 407.2958 4080.2727 453.5029 4075.9156 473.5104 4113.3153 481.7342 4111.2697 503.8084 4142.8841 500.5439 4136.2211 521.2458 4147.7628 522.3785 4142.2589 546.528 4110.4889 603.5961 4091.3651 627.9967 4059.3127 651.7254 4048.6286 603.4524 4040.0637 585.2994 4039.1022 557.0196 4014.5581 497.9639 4042.44 465.2799 Z" fill="none" stroke="#012394" opacity="0.6" stroke-width="1" class="norwood"/>
<path d="M 4080.1294 406.4036 4077.4562 475.376 4107.9348 485.4489 4121.8154 508.42 4150.4275 503.7801 4137.5351 525.8707 4145.8857 554.3686 4131.4684 588.1172 4114.8852 612.974 4096.4596 641.5129 4064.3933 672.1757 4052.391 673.1119 4032.898 596.7974 4018.0497 539.7954 4006.9359 513.1398 3992.1086 469.9365 3982.8402 441.441 4045.6401 461.5889 4080.1294 406.4036 Z" fill="none" stroke="#012394" opacity="0.6" stroke-width="1" class="norwood"/>
<path d="M 3935.9509 759.5079 3882.3851 754.0536 4046.3631 465.0447 4145.2301 526.5207 4089.9798 627.7687 3935.9509 759.5079 Z" fill="none" stroke="#012394" opacity="0.6" stroke-width="1" class="norwood"/>
<path d="M 4257.3546 206.3599 4251.9173 269.8062 4191.261 440.9271 4163.6915 524.6542 4102.9191 636.9481 4036.4937 676.5911 3961.7779 736.4785 3931.3394 764.1131 3874.0655 746.7044 3839.9041 751.3433 3784.4915 744.9657 3737.3951 743.1757 3743.7902 676.9404 3790.7803 583.9941 3794.4352 549.0413 3835.9011 479.1015 3879.219 419.2779 3844.1358 414.7209 3875.4031 314.4581 3875.3153 239.9849 3875.2601 193.0973 3877.095 183.9018 3878.794 59.7978 4041.2778 118.4232 4182.5545 176.1371 4257.3546 206.3599 Z" fill="none" stroke="#012394" opacity="0.6" stroke-width="1" class="norwood"/>
<path d="M 4057.2032 291.6999 4228.8684 285.9322 4052.6286 659.0929 3978.3874 368.5809 4055.3515 287.5649 4057.2032 291.6999 Z" fill="none" stroke="#012394" opacity="0.6" stroke-width="1" class="norwood"/>
<path d="M 4144.7621 522.153 4150.7747 530.1912 4052.1682 660.0134 4006.4911 506.2513 4043.1355 467.578 4144.7621 522.153 Z" fill="none" stroke="#012394" opacity="0.6" stroke-width="1" class="norwood"/>
<path d="M 4146.8631 528.3567 4051.0325 662.7734 4005.4217 502.4647 3985.6259 448.3647 4014.254 456.6035 4029.023 455.6642 4046.5801 468.515 4075.1172 410.5421 4078.8981 473.9882 4114.9157 484.0531 4118.6361 503.3601 4140.7844 497.8102 4146.8631 528.3567 Z" fill="none" stroke="#012394" opacity="0.6" stroke-width="1" class="norwood"/>
<path d="M 3957.1188 503.2094 3976.8136 429.6001 4238.9049 309.5988 4226.1531 359.8158 4210.0694 441.3675 4155.7755 585.729 4156.751 713.0461 4110.4389 732.2427 4067.9176 700.1076 4037.436 668.6914 4009.636 593.3077 3971.2785 539.1842 3983.2994 553.8837 3970.0105 518.6367 3939.3972 495.7237 3957.1188 503.2094 Z" fill="none" stroke="#012394" opacity="0.6" stroke-width="1" class="norwood"/>
<path d="M 4078.5886 404.3082 4077.745 461.3231 4166.431 504.4177 4162.7519 513.6197 4049.4057 665.5359 3978.9413 440.3049 4078.5886 404.3082 Z" fill="none" stroke="#012394" opacity="0.6" stroke-width="1" class="norwood"/>
<path d="M 4058.1557 649.6575 4060.4599 646.6651 4058.6145 647.5874 4049.3233 605.0611 4040.7592 587.5977 4040.7203 558.8568 4016.6355 498.191 4041.2882 466.8908 4111.5205 517.8327 4144.535 524.6824 4134.8801 551.3671 4118.3071 582.891 4096.4296 618.332 4078.6795 635.1426 4054.2344 651.7324 4058.1557 649.6575 Z" fill="none" stroke="#012394" opacity="0.6" stroke-width="1" class="norwood"/>
<path d="M 4056.5315 475.1465 4164.5833 503.5008 4139.7579 572.5131 4120.4304 614.8488 4067.8662 660.9116 4067.8446 645.2752 4051.1808 613.1063 4045.5923 577.2443 4027.0829 544.1601 4014.1102 508.3105 4035.3163 488.0501 4046.3768 475.1604 4056.5315 475.1465 Z" fill="none" stroke="#012394" opacity="0.6" stroke-width="1" class="norwood"/>
<path d="M 4089.8479 533.9575 3991.0292 507.4211 4020.575 510.1412 4052.8967 517.4548 4089.8479 533.9575 Z" fill="none" stroke="#012394" opacity="0.6" stroke-width="1" class="norwood"/>
<path d="M 4059.1052 668.7419 4006.0289 505.7921 4077.4345 404.0799 4164.1613 530.1715 4059.1052 668.7419 Z" fill="none" stroke="#012394" opacity="0.6" stroke-width="1" class="norwood"/>
<path d="M 4076.9755 405.9197 4082.7911 439.0159 4078.4537 473.0471 4112.3934 482.6552 4111.5001 503.5781 4161.8093 500.5161 4141.5856 559.6346 4109.5896 620.3828 4094.3846 641.3291 4074.327 659.063 4057.4893 668.7442 4047.7588 642.7734 4043.7982 615.8756 4035.2249 591.5141 4029.4227 567.8391 4018.3079 540.953 4013.2141 528.774 4007.8787 508.3187 3988.91 475.0068 3978.486 445.1333 4006.4251 456.132 4021.8911 458.6404 4034.5824 457.244 4042.9013 465.0494 4059.2499 437.8991 4076.9755 405.9197 Z" fill="none" stroke="#012394" opacity="0.6" stroke-width="1" class="norwood"/>
<path d="M 4056.3308 665.5264 4003.9575 510.1631 4040.3663 467.8116 4142.9187 524.2249 4056.3308 665.5264 Z" fill="none" stroke="#012394" opacity="0.6" stroke-width="1" class="norwood"/>
<path d="M 4077.7616 473.278 4111.9354 485.1848 4111.9617 503.5775 4166.416 494.3017 4103.8372 633.2677 4054.9483 667.3679 3981.7143 443.06 4012.1969 457.7337 4026.9647 455.8748 4042.6755 468.7281 4076.7412 403.3912 4077.7616 473.278 Z" fill="none" stroke="#012394" opacity="0.6" stroke-width="1" class="norwood"/>
<path d="M 4159.9769 509.9452 4156.3099 527.4241 4137.8899 557.8006 4121.3339 601.0513 4099.2272 637.8731 4078.9475 661.816 4058.6517 674.7213 4055.8212 630.5754 4036.3685 583.6948 4018.7445 522.0991 4021.4859 500.9435 4016.8529 488.0748 4061.1334 465.0245 4057.4345 460.4315 4053.7432 461.3562 4159.9769 509.9452 Z" fill="none" stroke="#012394" opacity="0.6" stroke-width="1" class="norwood"/>
<path d="M 4053.0877 657.2527 4013.1906 511.0706 4038.9978 479.7685 4006.7283 511.0792 3987.2697 455.9271 4071.2396 430.0661 4148.9296 531.1136 4053.0877 657.2527 Z" fill="none" stroke="#012394" opacity="0.6" stroke-width="1" class="norwood"/>
<path d="M 4078.1258 403.3893 4080.0047 426.8354 4077.761 472.8181 4114.7017 482.8818 4113.3458 503.1157 4144.7294 499.8515 4157.1971 503.0519 4147.1088 548.5902 4102.912 631.8894 4058.1819 668.7432 4006.2613 506.9413 4078.1258 403.3893 Z" fill="none" stroke="#012394" opacity="0.6" stroke-width="1" class="norwood"/>
<path d="M 3978.9461 443.9832 4012.1993 459.5729 4026.9647 455.8748 4042.6705 465.0497 4076.7399 402.4717 4080.4977 449.3645 4077.7616 473.278 4111.9302 481.5063 4110.114 502.6605 4142.4201 498.9352 4136.9132 521.0149 4145.2247 522.8421 4155.3406 496.1574 4165.4969 497.062 4104.7553 629.5873 4062.3464 675.636 4044.7577 642.5475 4047.5014 623.2286 4032.6667 577.2618 4028.9441 555.1939 4019.7007 546.929 4012.2906 528.5453 4004.8771 507.403 3995.6344 499.1383 3978.9461 443.9832 Z" fill="none" stroke="#012394" opacity="0.6" stroke-width="1" class="norwood"/>
<path d="M 4074.9052 410.7502 4079.6054 471.4362 4112.852 480.5854 4111.9696 509.0953 4147.9619 500.7664 4164.6079 520.0545 4137.0069 585.3932 4099.2298 639.7126 4063.2533 663.6773 4013.187 508.3117 3999.2633 450.3939 4074.9052 410.7502 Z" fill="none" stroke="#012394" opacity="0.6" stroke-width="1" class="norwood"/>
<path d="M 3973.3118 369.5069 4054.4072 271.936 4139.6787 518.2519 4051.2398 656.3354 3966.3774 722.6747 3973.3118 369.5069 Z" fill="none" stroke="#012394" opacity="0.6" stroke-width="1" class="norwood"/>
<path d="M 4057.2383 654.0278 4009.0314 507.3975 4042.2164 470.568 4117.5266 521.5027 4148.464 528.3553 4141.1582 583.0878 4057.2383 654.0278 Z" fill="none" stroke="#012394" opacity="0.6" stroke-width="1" class="norwood"/>
<path d="M 4052.1644 657.254 4002.1027 503.7281 3981.7143 443.06 4043.5974 467.8072 4077.6617 401.5509 4078.6835 472.3571 4111.9315 482.4259 4113.8081 503.5748 4141.501 501.6955 4147.0738 524.6787 4097.3494 615.8014 4052.1644 657.254 Z" fill="none" stroke="#012394" opacity="0.6" stroke-width="1" class="norwood"/>
<path d="M 3978.9461 443.9832 4078.5848 401.5496 4083.3031 475.1094 4113.7791 483.3429 4157.1964 502.5921 4062.3477 676.5559 4005.7942 502.8036 4054.9407 661.8492 3978.9461 443.9832 Z" fill="none" stroke="#012394" opacity="0.6" stroke-width="1" class="norwood"/>
<path d="M 4053.7736 652.4229 4016.917 536.3564 4053.1052 501.1307 4139.9498 545.8416 4053.7736 652.4229 Z" fill="none" stroke="#012394" opacity="0.6" stroke-width="1" class="norwood"/>
<path d="M 4042.44 465.2799 4076.9755 405.9197 4077.3007 473.7384 4112.3914 481.2757 4111.4988 502.6585 4142.6543 501.234 4154.4211 498.6877 4104.2884 625.9089 4056.3364 669.6656 3982.4078 443.9787 3982.4057 442.3695 4013.8169 461.18 4024.4276 457.0277 4042.44 465.2799 Z" fill="none" stroke="#012394" opacity="0.6" stroke-width="1" class="norwood"/>
<path d="M 4037.1378 469.6552 4137.5538 326.9853 4148.9431 540.3104 4062.3186 655.4005 3990.1252 522.1368 4037.1378 469.6552 Z" fill="none" stroke="#012394" opacity="0.6" stroke-width="1" class="norwood"/>
<path d="M 4044.5205 467.806 4146.1506 524.68 4053.0877 657.2527 4005.7978 505.5625 4044.5205 467.806 Z" fill="none" stroke="#012394" opacity="0.6" stroke-width="1" class="norwood"/>
<path d="M 4060.4864 665.9806 4057.2579 668.2846 4046.5963 636.5665 4044.7309 622.7725 4029.8729 559.3313 4022.01 547.8456 4013.2223 534.9818 4009.4991 511.9952 3997.4825 500.5154 3977.556 439.8469 4011.2768 460.0339 4027.8896 457.253 4116.1391 519.6654 4153.076 525.5895 4144.8102 555.0314 4096.4579 638.3369 4060.4864 665.9806 Z" fill="none" stroke="#012394" opacity="0.6" stroke-width="1" class="norwood"/>
<path d="M 4042.6705 465.0497 4123.0638 520.1153 4146.1465 521.921 4091.829 629.6056 4052.1619 655.4144 4004.8759 506.4833 4042.6705 465.0497 Z" fill="none" stroke="#012394" opacity="0.6" stroke-width="1" class="norwood"/>
<path d="M 4062.3464 675.636 4060.494 671.4995 4058.1806 667.8234 4055.8622 660.4682 4050.3083 650.3581 4047.5239 639.7844 4046.1208 626.4497 4043.331 611.7373 4037.3085 596.1099 4034.0597 583.2381 4030.8048 565.7679 4027.0958 553.8168 4018.7708 541.872 4011.8308 529.9254 4009.0466 518.8932 4007.6485 508.7788 4002.5655 504.6471 4042.6705 465.0497 4076.7418 403.851 4079.9976 421.7778 4080.9445 438.7886 4078.6636 458.1032 4075.4531 472.8214 4112.3924 481.9655 4111.0405 504.9582 4153.4976 498.4592 4142.49 546.7576 4140.6603 558.2564 4137.4471 570.6771 4096.9195 638.3362 4061.411 666.8992 4062.3464 675.636 Z" fill="none" stroke="#012394" opacity="0.6" stroke-width="1" class="norwood"/>
<path d="M 4041.7785 488.0413 4074.0856 485.2381 4068.6127 533.0675 4045.5336 534.0188 4028.8751 503.6925 4041.7785 488.0413 Z" fill="none" stroke="#012394" opacity="0.6" stroke-width="1" class="norwood"/>
<path d="M 4076.7476 407.989 4078.6873 475.1159 4112.8507 479.6658 4110.1167 504.4997 4144.2678 499.8522 4155.365 512.7109 4127.8992 671.8643 4097.4339 675.5871 4053.1016 667.3705 4003.0283 505.5661 4003.0331 509.2447 3975.25 441.2292 4076.7476 407.989 Z" fill="none" stroke="#012394" opacity="0.6" stroke-width="1" class="norwood"/>
<path d="M 4044.5205 467.806 4079.6676 516.0383 4140.6241 533.425 4140.1759 542.6224 4133.734 556.8869 4112.0932 595.5461 4057.2282 646.6695 4016.8834 511.0657 4141.5413 529.2851 4044.5205 467.806 Z" fill="none" stroke="#012394" opacity="0.6" stroke-width="1" class="norwood"/>
<path d="M 4085.0554 407.9774 4162.7328 500.7446 4057.7044 657.2464 4015.0297 505.5503 4085.0554 407.9774 Z" fill="none" stroke="#012394" opacity="0.6" stroke-width="1" class="norwood"/>
<path d="M 3988.8688 265.5875 4023.9385 263.7024 4074.2555 607.556 3817.5539 583.0448 3861.5057 269.4219 3988.8688 265.5875 Z" fill="none" stroke="#012394" opacity="0.6" stroke-width="1" class="norwood"/>
<path d="M 3779.6061 495.7171 3866.2204 354.926 3921.5113 280.3833 4070.9618 229.6208 4259.2353 228.4217 4348.0144 334.9306 4350.0893 471.0201 4287.5244 600.7975 4224.0984 782.1036 4160.6045 933.9977 3954.6332 928.7597 3803.129 898.5773 3704.2298 821.4019 3773.1487 500.3222 3779.6061 495.7171 Z" fill="none" stroke="#012394" opacity="0.6" stroke-width="1" class="norwood"/></svg>