<?xml version="1.0"?><svg xmlns="http://www.w3.org/2000/svg" version="1.2" baseProfile="tiny" width="6000" height="5918" viewBox="0 0 6000 5918" stroke-linecap="round" stroke-linejoin="round"><path d="M 1817.9684 4529.1132 1816.3457 4529.3424 1753.9629 4560.4479 1767.7223 4481.0386 1822.8669 4497.9491 1817.9684 4529.1132 Z" fill="none" stroke="#865327" opacity="0.6" stroke-width="1" class="old_town"/>
<path d="M 1811.9593 4512.0218 1816.5254 4581.2933 1765.4836 4625.5742 1728.3886 4631.0761 1691.335 4599.6315 1682.1054 4562.6773 1686.777 4531.2816 1719.2848 4478.6775 1742.4967 4446.3812 1784.2149 4445.5019 1813.8581 4467.6955 1811.9593 4512.0218 Z" fill="none" stroke="#865327" opacity="0.6" stroke-width="1" class="old_town"/>
<path d="M 1777.4555 4482.2032 1837.9255 4504.8903 1863.3843 4543.2417 1844.5416 4613.1854 1815.3539 4593.7607 1809.3192 4601.6053 1718.5233 4538.4747 1777.4555 4482.2032 Z" fill="none" stroke="#865327" opacity="0.6" stroke-width="1" class="old_town"/>
<path d="M 1883.5962 4493.3901 1829.996 4554.5229 1748.4421 4521.1909 1802.7258 4475.0721 1811.7829 4457.0734 1883.5962 4493.3901 Z" fill="none" stroke="#865327" opacity="0.6" stroke-width="1" class="old_town"/>
<path d="M 1785.7009 4563.7184 1768.538 4519.8658 1812.6593 4493.5568 1878.4484 4530.5617 1839.4393 4601.6398 1785.7009 4563.7184 Z" fill="none" stroke="#865327" opacity="0.6" stroke-width="1" class="old_town"/>
<path d="M 1508.0922 4341.7532 1523.723 4438.7317 1459.7495 4444.1863 1458.959 4345.38 1508.0922 4341.7532 Z" fill="none" stroke="#865327" opacity="0.6" stroke-width="1" class="old_town"/>
<path d="M 1829.3105 4544.5939 1816.9143 4540.1947 1809.8523 4532.7992 1794.3273 4528.3966 1768.3777 4518.9033 1758.4166 4513.8134 1764.6834 4505.5083 1771.6466 4496.0496 1774.9057 4482.4314 1781.1626 4483.3614 1796.6868 4487.764 1812.9052 4493.3215 1825.6461 4500.0297 1823.55 4510.1863 1823.5356 4524.7319 1831.1832 4525.8939 1841.8389 4532.3692 1846.0062 4537.2219 1844.3766 4544.6087 1839.0432 4546.9124 1829.3105 4544.5939 Z" fill="none" stroke="#865327" opacity="0.6" stroke-width="1" class="old_town"/>
<path d="M 1340.2427 4389.5312 1167.8173 4392.0259 1099.4035 4287.5682 1150.5891 4166.7111 1397.2781 4051.7081 1773.5174 4038.3314 2002.3356 4117.9308 2195.8363 4425.5234 2160.5939 4449.5113 2072.5173 4458.6855 1966.8573 4429.0516 1840.8244 4384.6125 1733.3371 4344.7958 1675.8662 4344.7314 1527.5871 4319.6185 1340.2427 4389.5312 Z" fill="none" stroke="#865327" opacity="0.6" stroke-width="1" class="old_town"/>
<path d="M 1878.7737 4445.5953 1878.7789 4440.0545 1884.2956 4489.0041 1846.2661 4508.3616 1841.6296 4509.2806 1831.3648 4576.6901 1745.1903 4527.6522 1739.6295 4525.7991 1771.1964 4483.351 1769.3461 4479.655 1878.7737 4445.5953 Z" fill="none" stroke="#865327" opacity="0.6" stroke-width="1" class="old_town"/>
<path d="M 1881.7437 4491.5413 1810.4764 4603.4537 1711.57 4538.2361 1731.2813 4529.4842 1776.0684 4478.7386 1877.8482 4443.9783 1881.7437 4491.5413 Z" fill="none" stroke="#865327" opacity="0.6" stroke-width="1" class="old_town"/>
<path d="M 1755.6347 4514.2722 1833.2649 4530.2828 1753.7343 4557.446 1745.6658 4516.5703 1755.6347 4514.2722 Z" fill="none" stroke="#865327" opacity="0.6" stroke-width="1" class="old_town"/>
<path d="M 1892.8924 4214.7711 1929.9261 4259.121 1920.627 4293.2747 1887.1943 4362.4953 1851.9304 4403.0915 1864.8909 4421.5725 1884.3266 4455.7586 1884.2947 4489.9276 1847.1905 4511.1331 1804.5977 4457.5279 1773.9806 4480.5834 1761.953 4457.4836 1767.603 4374.3807 1821.4553 4286.7178 1892.8924 4214.7711 Z" fill="none" stroke="#865327" opacity="0.6" stroke-width="1" class="old_town"/>
<path d="M 1832.4383 4545.8669 1740.7895 4524.7614 1778.6156 4480.9346 1882.901 4493.274 1832.4383 4545.8669 Z" fill="none" stroke="#865327" opacity="0.6" stroke-width="1" class="old_town"/>
<path d="M 1859.1377 4621.0504 1731.2803 4530.4077 1803.6669 4461.2208 1889.859 4488.0857 1947.2882 4546.3195 1957.4521 4586.9657 1859.1377 4621.0504 Z" fill="none" stroke="#865327" opacity="0.6" stroke-width="1" class="old_town"/>
<path d="M 1778.284 4576.6362 1718.2961 4534.3185 1775.6003 4483.1247 1812.2432 4460.3061 1843.4847 4508.3589 1808.6264 4599.0646 1778.284 4576.6362 Z" fill="none" stroke="#865327" opacity="0.6" stroke-width="1" class="old_town"/>
<path d="M 1781.0014 4415.4866 1835.3517 4529.5922 1793.5288 4628.8361 1689.5263 4559.4532 1675.6671 4517.6467 1781.0014 4415.4866 Z" fill="none" stroke="#865327" opacity="0.6" stroke-width="1" class="old_town"/></svg>