<?xml version="1.0"?><svg xmlns="http://www.w3.org/2000/svg" version="1.2" baseProfile="tiny" width="6000" height="5918" viewBox="0 0 6000 5918" stroke-linecap="round" stroke-linejoin="round"><path d="M 4250.5668 1170.3454 4229.1485 1060.8706 4345.5078 1042.2793 4365.0838 1147.1511 4250.5668 1170.3454 Z" fill="none" stroke="#FBC20F" opacity="0.6" stroke-width="1" class="parkchester"/>
<path d="M 4145.1085 1074.3401 4252.3209 1110.9857 4150.6523 1075.2522 4229.14 1055.3496 4345.5017 1038.5987 4357.701 1151.7649 4266.723 1163.4176 4238.5181 1145.5168 4138.6959 1111.1581 4145.1085 1074.3401 Z" fill="none" stroke="#FBC20F" opacity="0.6" stroke-width="1" class="parkchester"/>
<path d="M 4343.4187 1035.8417 4344.7201 1123.4888 4324.6326 1126.513 4318.6363 1131.5843 4266.0034 1146.6238 4253.5533 1160.2175 4239.8312 1099.0424 4238.1661 1067.9881 4243.2419 1064.9895 4233.9852 1052.5815 4343.4187 1035.8417 Z" fill="none" stroke="#FBC20F" opacity="0.6" stroke-width="1" class="parkchester"/>
<path d="M 4234.6895 1059.9418 4231.3319 1054.0809 4237.3413 1057.4072 4223.9437 1055.1276 4222.0935 1053.4051 4235.6023 1052.924 4237.4481 1051.886 4238.2566 1051.9997 4239.0612 1049.698 4238.2521 1049.1242 4252.2251 1050.2525 4251.1827 1048.1837 4251.2969 1047.3784 4262.6174 1050.4661 4262.2704 1050.1216 4261.6847 1044.8315 4260.4129 1043.7983 4270.4686 1050.2235 4279.4731 1049.0589 4281.782 1048.8251 4291.9433 1049.0388 4294.5947 1046.389 4295.5156 1044.6622 4306.7107 1041.6534 4307.866 1041.9966 4300.4796 1044.079 4302.4405 1042.8106 4295.7491 1046.2721 4304.638 1045.1074 4310.176 1042.4529 4315.6003 1040.9487 4334.0702 1038.2727 4318.3707 1040.4841 4320.564 1040.1354 4323.2187 1039.5559 4325.4115 1038.9772 4328.2972 1038.3973 4330.4828 1033.4478 4332.9012 1029.6481 4336.9552 1037.3477 4341.3267 1027.6788 4342.592 1024.8012 4336.3819 1039.7641 4336.8478 1042.1788 4337.3147 1045.1685 4338.5938 1050.5724 4335.0333 1061.9656 4335.1482 1061.6203 4335.2646 1062.1952 4335.4973 1063.23 4337.2339 1065.9877 4337.4708 1069.5531 4338.2827 1071.7372 4338.9799 1074.3816 4339.6785 1077.8312 4340.6076 1081.0503 4340.9658 1088.0663 4341.3189 1092.0916 4341.9009 1094.8513 4342.3668 1097.2661 4345.2644 1103.7028 4344.8013 1103.0134 4342.4928 1103.5924 4338.9134 1103.7134 4335.1017 1103.0296 4329.5631 1105.4544 4331.8735 1106.0257 4322.1816 1110.758 4323.4562 1113.4015 4323.9224 1116.0464 4324.1538 1116.2761 4330.6191 1115.5752 4332.1228 1117.0681 4318.2684 1118.5864 4318.8511 1121.8063 4319.5479 1124.2208 4319.7874 1129.3968 4317.7123 1131.4708 4316.0966 1132.0486 4312.865 1133.0892 4308.7114 1135.2816 4322.0126 1148.2585 4318.6622 1147.3437 4301.4271 1129.5419 4297.9619 1128.9724 4297.5017 1130.0084 4296.4645 1131.2755 4295.3114 1132.3126 4294.1604 1134.6151 4292.8933 1136.5727 4290.8187 1138.9918 4289.2042 1140.3748 4287.8198 1141.1822 4285.8591 1142.6808 4279.277 1142.6914 4276.2737 1142.1211 4274.5404 1141.4336 4272.5738 1139.2512 4272.2269 1138.9066 4269.5691 1137.7605 4267.2599 1137.9943 4265.1825 1138.6878 4262.0675 1140.5333 4259.5258 1139.7321 4257.1017 1140.3111 4253.5227 1140.7768 4252.3675 1140.5486 4252.0175 1138.2485 4250.5103 1134.4548 4251.2024 1133.9936 4248.5436 1132.1573 4248.1927 1129.282 4247.7268 1126.7521 4246.9138 1123.7626 4246.2153 1120.1977 4247.0171 1116.0554 4247.5907 1113.6389 4248.8551 1109.9559 4250.0053 1107.0784 4249.0812 1106.8498 4245.4943 1102.2543 4242.3737 1100.4188 4240.6371 1097.5458 4240.4038 1096.0508 4240.744 1092.0243 4240.3934 1089.3793 4240.0448 1087.9995 4240.038 1083.6285 4239.3418 1081.4441 4238.415 1079.4901 4238.2945 1076.2696 4238.7524 1073.7384 4240.1382 1073.8512 4242.3344 1075.3431 4239.7848 1069.3658 4237.4736 1068.2192 4234.6895 1059.9418 Z" fill="none" stroke="#FBC20F" opacity="0.6" stroke-width="1" class="parkchester"/>
<path d="M 4231.9154 1058.1058 4334.4286 1045.5184 4360.4631 1146.2386 4254.6972 1153.3136 4231.9154 1058.1058 Z" fill="none" stroke="#FBC20F" opacity="0.6" stroke-width="1" class="parkchester"/>
<path d="M 3942.3814 1472.6834 4563.9678 800.8347 4650.1579 1416.3013 3936.8378 1473.6109 3926.8061 832.1935 4528.8808 803.6608 4649.2264 1412.621 3942.3814 1472.6834 Z" fill="none" stroke="#FBC20F" opacity="0.6" stroke-width="1" class="parkchester"/>
<path d="M 4295.6004 1025.7988 4586.1565 1292.1636 3986.4979 1285.7675 4295.6004 1025.7988 Z" fill="none" stroke="#FBC20F" opacity="0.6" stroke-width="1" class="parkchester"/>
<path d="M 4375.2442 1146.2135 4205.3255 1187.9012 4173.7494 1077.5185 4350.114 1034.9103 4375.2442 1146.2135 Z" fill="none" stroke="#FBC20F" opacity="0.6" stroke-width="1" class="parkchester"/>
<path d="M 4224.5228 1056.2769 4344.5779 1038.6002 4359.5471 1150.8415 4241.3285 1170.3599 4224.5228 1056.2769 Z" fill="none" stroke="#FBC20F" opacity="0.6" stroke-width="1" class="parkchester"/>
<path d="M 4231.9154 1058.1058 4341.8068 1038.6048 4362.3092 1145.3152 4245.9318 1160.2295 4231.9154 1058.1058 Z" fill="none" stroke="#FBC20F" opacity="0.6" stroke-width="1" class="parkchester"/>
<path d="M 4232.832 1053.5035 4346.4223 1036.7568 4366.0154 1151.7508 4247.7924 1168.5092 4232.832 1053.5035 Z" fill="none" stroke="#FBC20F" opacity="0.6" stroke-width="1" class="parkchester"/>
<path d="M 4205.554 1186.2903 4190.5908 1066.2208 4343.1858 1034.6919 4379.3433 1247.2112 4220.7047 1275.771 4205.554 1186.2903 Z" fill="none" stroke="#FBC20F" opacity="0.6" stroke-width="1" class="parkchester"/>
<path d="M 4217.218 1111.5006 4280.8065 1016.6212 4365.9873 1135.1861 4217.218 1111.5006 Z" fill="none" stroke="#FBC20F" opacity="0.6" stroke-width="1" class="parkchester"/>
<path d="M 4229.1635 1070.5326 4223.1365 1055.819 4343.1878 1035.842 4346.692 1059.8757 4348.2141 1072.4107 4352.422 1102.7706 4321.7133 1106.8477 4324.632 1126.1679 4315.8596 1128.368 4283.4853 1102.769 4318.4053 1131.5847 4301.6725 1138.399 4241.8718 1148.6174 4240.4648 1135.0457 4248.1981 1132.733 4234.9837 1100.5453 4230.3204 1071.9111 4255.5994 1066.5804 4229.1635 1070.5326 Z" fill="none" stroke="#FBC20F" opacity="0.6" stroke-width="1" class="parkchester"/>
<path d="M 4251.6563 1049.7979 4357.2373 1038.0093 4435.8766 1034.8929 4485.797 1056.8872 4500.9187 1075.5697 4503.7985 1134.459 4507.56 1170.3427 4498.4028 1214.5346 4467.5211 1222.7202 4428.7258 1227.3911 4396.4038 1235.7307 4346.5301 1245.9396 4304.0376 1250.6117 4287.4101 1252.4795 4247.2768 1059.7252 4182.6475 1080.989 4161.2904 1085.3587 4141.9063 1095.5096 4136.8524 1113.9215 4133.2066 1147.9761 4141.1081 1181.555 4266.3441 1161.0172 4215.1013 1180.4235 4234.2973 1252.9318 4180.7348 1269.5806 4160.3511 1230.9555 4163.9893 1192.2963 4251.6563 1049.7979 Z" fill="none" stroke="#FBC20F" opacity="0.6" stroke-width="1" class="parkchester"/>
<path d="M 4237.5957 1146.4385 4245.9274 1157.4687 4245.9346 1162.0701 4237.5957 1146.4385 Z" fill="none" stroke="#FBC20F" opacity="0.6" stroke-width="1" class="parkchester"/>
<path d="M 4234.9111 1053.9603 4233.2917 1052.1225 4324.025 1038.4044 4330.9857 1058.1765 4335.378 1060.9298 4339.5721 1083.2375 4329.4146 1085.5549 4332.4481 1104.4144 4320.9044 1106.504 4324.4005 1125.8232 4317.4754 1127.9052 4318.6351 1130.8941 4292.5545 1141.2896 4262.0787 1147.5503 4263.024 1161.1228 4253.3198 1158.6074 4252.6114 1148.7156 4241.5288 1150.8036 4229.1625 1069.8425 4242.547 1063.6103 4234.9111 1053.9603 Z" fill="none" stroke="#FBC20F" opacity="0.6" stroke-width="1" class="parkchester"/>
<path d="M 4229.1371 1053.5092 4232.6007 1053.2738 4332.5739 1041.1507 4340.8823 1038.1463 4342.9626 1039.293 4346.6922 1059.9907 4350.4064 1071.4868 4353.6895 1101.158 4342.8391 1103.4768 4346.5677 1123.4857 4326.0217 1128.5813 4329.5356 1158.4841 4246.8744 1172.1918 4229.1371 1053.5092 Z" fill="none" stroke="#FBC20F" opacity="0.6" stroke-width="1" class="parkchester"/>
<path d="M 4321.6295 1126.0579 4247.7519 1142.7415 4256.9959 1146.408 4247.29 1142.7422 4224.5285 1059.9576 4321.0271 1040.9398 4321.6295 1126.0579 Z" fill="none" stroke="#FBC20F" opacity="0.6" stroke-width="1" class="parkchester"/>
<path d="M 4242.2523 1170.3584 4225.4522 1059.9562 4221.7502 1055.361 4340.8754 1034.0056 4363.2393 1148.9947 4242.2523 1170.3584 Z" fill="none" stroke="#FBC20F" opacity="0.6" stroke-width="1" class="parkchester"/>
<path d="M 4219.8999 1053.5235 4425.8303 1019.1374 4458.5428 1232.5767 4271.9813 1274.3099 4219.8999 1053.5235 Z" fill="none" stroke="#FBC20F" opacity="0.6" stroke-width="1" class="parkchester"/>
<path d="M 4223.5948 1053.5178 4342.729 1037.6831 4359.5487 1151.7618 4260.7276 1169.409 4223.5948 1053.5178 Z" fill="none" stroke="#FBC20F" opacity="0.6" stroke-width="1" class="parkchester"/>
<path d="M 4240.5538 1053.4735 4254.4061 1051.1513 4274.2609 1047.8991 4328.2863 1040.4497 4340.801 1067.1141 4329.7474 1085.9966 4338.5523 1103.466 4327.0112 1107.1661 4300.6993 1116.8718 4315.9637 1130.1904 4265.0289 1144.3725 4263.2039 1158.6396 4252.5901 1165.0984 4247.4577 1132.4369 4246.0416 1113.114 4238.8092 1066.3261 4240.5538 1053.4735 Z" fill="none" stroke="#FBC20F" opacity="0.6" stroke-width="1" class="parkchester"/>
<path d="M 4221.2897 1056.2819 4343.6419 1031.2405 4364.6734 1177.5211 4248.2949 1194.2768 4221.2897 1056.2819 Z" fill="none" stroke="#FBC20F" opacity="0.6" stroke-width="1" class="parkchester"/>
<path d="M 4263.4699 1150.9991 4234.6866 1058.1015 4341.816 1044.1258 4350.2857 1137.0532 4263.4699 1150.9991 Z" fill="none" stroke="#FBC20F" opacity="0.6" stroke-width="1" class="parkchester"/>
<path d="M 4232.832 1053.5035 4358.4289 1035.8164 4385.4093 1148.0366 4133.2954 1209.1758 4232.832 1053.5035 Z" fill="none" stroke="#FBC20F" opacity="0.6" stroke-width="1" class="parkchester"/>
<path d="M 4232.8277 1050.743 4363.9665 1033.0466 4387.2506 1144.3524 4252.4406 1186.9078 4232.8277 1050.743 Z" fill="none" stroke="#FBC20F" opacity="0.6" stroke-width="1" class="parkchester"/>
<path d="M 4033.3398 1077.7178 4580.0919 1021.6135 4593.9764 1513.0724 4085.6906 1521.2858 4033.3398 1077.7178 Z" fill="none" stroke="#FBC20F" opacity="0.6" stroke-width="1" class="parkchester"/>
<path d="M 4229.1343 1051.6689 4344.5795 1039.5204 4350.6911 1103.4636 4322.984 1107.1907 4324.4047 1128.3539 4247.303 1151.0246 4229.1343 1051.6689 Z" fill="none" stroke="#FBC20F" opacity="0.6" stroke-width="1" class="parkchester"/>
<path d="M 4229.1443 1058.1101 4338.1043 1034.0102 4344.5733 1035.8397 4360.4647 1147.1589 4246.8585 1162.0686 4229.1443 1058.1101 Z" fill="none" stroke="#FBC20F" opacity="0.6" stroke-width="1" class="parkchester"/>
<path d="M 4222.671 1053.5192 4437.8481 1024.637 4462.874 1072.4413 4378.9457 1149.8883 4317.9949 1162.8745 4247.7953 1170.3497 4243.1689 1165.7556 4246.8643 1165.7498 4222.671 1053.5192 Z" fill="none" stroke="#FBC20F" opacity="0.6" stroke-width="1" class="parkchester"/>
<path d="M 4227.2875 1052.1318 4347.804 1034.4541 4364.1701 1153.1344 4246.4096 1170.3519 4227.2875 1052.1318 Z" fill="none" stroke="#FBC20F" opacity="0.6" stroke-width="1" class="parkchester"/>
<path d="M 4344.1107 1035.3804 4361.8609 1153.3684 4243.4075 1170.5867 4224.2897 1054.897 4344.1107 1035.3804 Z" fill="none" stroke="#FBC20F" opacity="0.6" stroke-width="1" class="parkchester"/>
<path d="M 4194.2861 1066.4452 4343.6496 1035.8413 4374.4377 1215.0073 4224.1168 1241.7118 4213.1705 1182.8275 4200.5451 1082.0791 4194.2861 1066.4452 Z" fill="none" stroke="#FBC20F" opacity="0.6" stroke-width="1" class="parkchester"/>
<path d="M 4225.9091 1056.7349 4343.1878 1035.842 4361.3971 1152.2188 4267.1879 1165.2575 4242.222 1151.0326 4225.9091 1056.7349 Z" fill="none" stroke="#FBC20F" opacity="0.6" stroke-width="1" class="parkchester"/>
<path d="M 4182.0479 1067.3839 4332.585 1047.8219 4374.5999 1310.0363 4218.4849 1334.2211 4182.0479 1067.3839 Z" fill="none" stroke="#FBC20F" opacity="0.6" stroke-width="1" class="parkchester"/>
<path d="M 4344.5756 1037.22 4327.2043 1145.374 4218.1921 1144.1679 4203.7508 1064.1304 4344.5756 1037.22 Z" fill="none" stroke="#FBC20F" opacity="0.6" stroke-width="1" class="parkchester"/>
<path d="M 4227.2954 1057.1928 4232.3787 1059.0253 4235.6154 1061.3207 4242.0721 1055.3294 4246.6893 1054.402 4251.3065 1053.4745 4255.9229 1052.087 4264.6976 1051.613 4294.2485 1046.5046 4339.0365 1039.0696 4354.8915 1129.2232 4360.0051 1148.5401 4263.9508 1162.9619 4241.7551 1147.8124 4227.2954 1057.1928 Z" fill="none" stroke="#FBC20F" opacity="0.6" stroke-width="1" class="parkchester"/>
<path d="M 4344.1107 1035.3804 4352.0698 1099.3203 4357.2092 1134.0507 4361.8602 1152.9082 4310.368 1159.666 4269.3814 1164.9089 4268.9287 1170.6614 4264.0844 1174.3503 4258.541 1174.129 4255.5321 1170.1075 4255.6405 1165.6209 4253.3197 1158.4924 4247.0773 1154.361 4241.2995 1151.8393 4236.515 1119.8678 4234.1772 1101.6969 4229.3945 1070.5322 4224.521 1055.1267 4236.2935 1051.8878 4247.6062 1050.0297 4280.1592 1044.917 4344.1107 1035.3804 Z" fill="none" stroke="#FBC20F" opacity="0.6" stroke-width="1" class="parkchester"/>
<path d="M 4225.4436 1054.4351 4352.8867 1035.8258 4379.8617 1145.2853 4234.8759 1179.5729 4225.4436 1054.4351 Z" fill="none" stroke="#FBC20F" opacity="0.6" stroke-width="1" class="parkchester"/>
<path d="M 4194.7462 1065.2943 4343.6504 1036.3014 4368.8409 1183.496 4257.0898 1205.7669 4208.0217 1138.6619 4194.7462 1065.2943 Z" fill="none" stroke="#FBC20F" opacity="0.6" stroke-width="1" class="parkchester"/>
<path d="M 4233.8729 1051.0298 4324.5198 1040.2621 4336.8522 1062.5105 4343.4685 1102.9887 4322.9187 1105.5535 4324.9237 1127.021 4316.8432 1128.6447 4318.9274 1132.0923 4263.587 1146.3541 4263.6089 1160.1581 4253.214 1159.0242 4233.8729 1051.0298 Z" fill="none" stroke="#FBC20F" opacity="0.6" stroke-width="1" class="parkchester"/>
<path d="M 4278.3266 1126.1283 4255.5199 1162.4001 4239.8869 1134.7016 4235.4472 1101.5799 4241.6697 1093.2882 4237.3598 1069.2546 4239.7806 1066.7203 4246.4732 1063.8342 4255.3583 1060.1395 4256.2841 1061.4032 4264.2452 1057.5949 4284.1039 1056.6429 4306.7284 1052.4654 4321.5125 1055.2016 4332.1683 1074.968 4331.7454 1098.4341 4335.501 1134.7773 4300.8583 1134.8343 4282.8434 1134.4033 4278.3266 1126.1283 Z" fill="none" stroke="#FBC20F" opacity="0.6" stroke-width="1" class="parkchester"/>
<path d="M 4225.4472 1056.7356 4327.9512 1038.6279 4341.9153 1103.4784 4348.004 1153.6218 4264.871 1160.6597 4225.4472 1056.7356 Z" fill="none" stroke="#FBC20F" opacity="0.6" stroke-width="1" class="parkchester"/>
<path d="M 4209.9532 1193.416 4120.3003 1166.8604 4122.0738 1115.3232 4138.6296 1065.6078 4241.1182 1036.0073 4311.3123 1031.2941 4314.159 1077.2983 4317.9767 1151.8312 4302.3738 1214.4373 4282.1387 1270.612 4124.1786 1293.8628 4057.5136 1191.7966 4209.9532 1193.416 Z" fill="none" stroke="#FBC20F" opacity="0.6" stroke-width="1" class="parkchester"/>
<path d="M 4242.2537 1171.2787 4234.3 1106.4128 4225.2131 1054.6655 4345.0352 1035.839 4264.4109 1161.8108 4272.4025 1104.2822 4346.8772 1032.6153 4342.2756 1042.7448 4360.4686 1149.4596 4242.2537 1171.2787 Z" fill="none" stroke="#FBC20F" opacity="0.6" stroke-width="1" class="parkchester"/>
<path d="M 4347.3259 1024.7933 4373.4013 1148.9775 4231.1534 1162.0932 4207.8675 1037.8991 4347.3259 1024.7933 Z" fill="none" stroke="#FBC20F" opacity="0.6" stroke-width="1" class="parkchester"/></svg>