<?xml version="1.0"?><svg xmlns="http://www.w3.org/2000/svg" version="1.2" baseProfile="tiny" width="6000" height="5918" viewBox="0 0 6000 5918" stroke-linecap="round" stroke-linejoin="round"><path d="M 4189.8283 866.351 4153.7898 825.763 4158.3216 767.8008 4200.146 793.0357 4301.0327 791.4968 4313.7944 830.0043 4189.8283 866.351 Z" fill="none" stroke="#A9159C" opacity="0.6" stroke-width="1" class="pelham_parkway"/>
<path d="M 4189.8361 835.6277 4201.0857 793.9831 4299.4569 790.8384 4314.0684 831.522 4189.8361 835.6277 Z" fill="none" stroke="#A9159C" opacity="0.6" stroke-width="1" class="pelham_parkway"/>
<path d="M 4153.0883 847.527 4141.0006 791.4277 4447.5802 784.491 4536.3102 825.7256 4460.6592 868.1837 4181.7742 885.2041 4153.0883 847.527 Z" fill="none" stroke="#A9159C" opacity="0.6" stroke-width="1" class="pelham_parkway"/>
<path d="M 4170.8452 833.4711 4260.4244 832.6433 4260.5233 894.9727 4228.8907 894.7923 4205.8391 919.4388 4179.9447 896.9371 4170.8452 833.4711 Z" fill="none" stroke="#A9159C" opacity="0.6" stroke-width="1" class="pelham_parkway"/>
<path d="M 4199.1451 769.0332 4297.4935 769.7984 4321.8707 852.5533 4169.9741 868.6617 4199.1451 769.0332 Z" fill="none" stroke="#A9159C" opacity="0.6" stroke-width="1" class="pelham_parkway"/>
<path d="M 4190.0118 835.9722 4190.0084 833.6723 4381.1565 822.7845 4445.8161 830.9511 4452.8412 886.1379 4439.4953 911.9224 4383.6208 913.4001 4362.8603 925.3961 4284.8904 971.5288 4205.4922 994.6561 4187.3822 929.3574 4190.0118 835.9722 Z" fill="none" stroke="#A9159C" opacity="0.6" stroke-width="1" class="pelham_parkway"/>
<path d="M 4180.7802 838.2861 4438.4485 842.4638 4441.3548 918.8195 4193.0241 995.5952 4180.7802 838.2861 Z" fill="none" stroke="#A9159C" opacity="0.6" stroke-width="1" class="pelham_parkway"/>
<path d="M 4190.0209 841.952 4341.0562 589.6727 4464.9269 674.0762 4439.4161 867.3017 4190.0209 841.952 Z" fill="none" stroke="#A9159C" opacity="0.6" stroke-width="1" class="pelham_parkway"/>
<path d="M 4196.6713 964.3061 4158.5112 767.4843 4517.7495 777.0038 4517.8726 843.2394 4196.6713 964.3061 Z" fill="none" stroke="#A9159C" opacity="0.6" stroke-width="1" class="pelham_parkway"/>
<path d="M 4188.3002 925.6758 4191.6229 680.0483 4500.2445 799.1143 4467.1223 867.2521 4188.3002 925.6758 Z" fill="none" stroke="#A9159C" opacity="0.6" stroke-width="1" class="pelham_parkway"/>
<path d="M 4158.9688 764.7239 4553.3068 779.2368 4516.9406 838.6413 4451.7127 771.6049 4452.1893 779.8832 4450.455 842.9024 4386.6998 824.1549 4378.4167 840.7285 4323.4858 851.8606 4263.4814 867.5977 4173.4374 868.6565 4158.9688 764.7239 Z" fill="none" stroke="#A9159C" opacity="0.6" stroke-width="1" class="pelham_parkway"/>
<path d="M 4175.449 669.3624 4224.4092 684.0049 4156.0547 666.6318 4263.2255 706.0199 4286.3843 751.976 4297.5537 806.2326 4305.0227 855.8984 4295.8457 891.7935 4255.2378 910.2591 4246.0324 929.5946 4213.7204 938.8454 4193.3995 937.9564 4139.8368 942.6363 4106.3864 801.9243 4111.809 719.1262 4078.5391 685.4529 4071.2491 755.3719 4090.6877 788.4613 4175.449 669.3624 Z" fill="none" stroke="#A9159C" opacity="0.6" stroke-width="1" class="pelham_parkway"/>
<path d="M 4186.7894 772.1207 4448.6992 778.1692 4443.884 916.962 4209.1874 999.8519 4186.7894 772.1207 Z" fill="none" stroke="#A9159C" opacity="0.6" stroke-width="1" class="pelham_parkway"/>
<path d="M 4184.6003 922.0011 4145.6665 824.5387 4153.8817 759.2121 4452.1596 763.3249 4453.1506 801.0397 4537.2146 815.6045 4184.6003 922.0011 Z" fill="none" stroke="#A9159C" opacity="0.6" stroke-width="1" class="pelham_parkway"/>
<path d="M 4177.3417 1008.9607 4195.8206 708.0968 4369.3114 917.1047 4177.3417 1008.9607 Z" fill="none" stroke="#A9159C" opacity="0.6" stroke-width="1" class="pelham_parkway"/>
<path d="M 4172.4205 806.1002 4171.438 766.5452 4451.2592 776.2052 4441.2484 859.0185 4172.551 893.4981 4172.4205 806.1002 Z" fill="none" stroke="#A9159C" opacity="0.6" stroke-width="1" class="pelham_parkway"/>
<path d="M 4183.4704 784.9254 4423.5621 779.934 4527.0614 818.3833 4519.7419 855.1957 4183.5729 853.0015 4183.476 788.605 4183.4704 784.9254 Z" fill="none" stroke="#A9159C" opacity="0.6" stroke-width="1" class="pelham_parkway"/>
<path d="M 4205.0219 989.1361 4146.4363 719.6685 4446.5714 736.6583 4434.8766 911.4706 4205.0275 992.8166 4205.0219 989.1361 Z" fill="none" stroke="#A9159C" opacity="0.6" stroke-width="1" class="pelham_parkway"/>
<path d="M 4171.5416 836 4313.2926 830.948 4320.9457 851.6348 4275.9665 878.3878 4264.6508 877.0259 4259.5563 867.6039 4187.9784 865.4147 4172.975 868.1972 4169.512 868.4324 4164.6296 845.67 4171.5416 836 Z" fill="none" stroke="#A9159C" opacity="0.6" stroke-width="1" class="pelham_parkway"/>
<path d="M 4373.0262 929.059 4201.3273 989.1418 4192.79 841.0279 4314.6865 836.2355 4444.8967 833.2526 4436.7303 915.1475 4373.0262 929.059 Z" fill="none" stroke="#A9159C" opacity="0.6" stroke-width="1" class="pelham_parkway"/>
<path d="M 4199.6459 809.8576 4408.6839 796.123 4415.1487 863.9386 4204.5889 868.8836 4199.6459 809.8576 Z" fill="none" stroke="#A9159C" opacity="0.6" stroke-width="1" class="pelham_parkway"/>
<path d="M 4166.0204 849.3478 4169.6939 835.5427 4299.9014 830.7399 4186.4641 933.039 4166.0204 849.3478 Z" fill="none" stroke="#A9159C" opacity="0.6" stroke-width="1" class="pelham_parkway"/>
<path d="M 4191.7537 766.5147 4575.0018 775.9757 4573.2502 825.6555 4190.0654 871.3915 4191.7537 766.5147 Z" fill="none" stroke="#A9159C" opacity="0.6" stroke-width="1" class="pelham_parkway"/>
<path d="M 4431.8179 748.6429 4435.598 797.3912 4312.7882 804.9603 4187.2045 811.5977 4196.3263 737.0715 4306.2215 742.4174 4431.8179 748.6429 Z" fill="none" stroke="#A9159C" opacity="0.6" stroke-width="1" class="pelham_parkway"/>
<path d="M 4195.6038 869.5431 4336.8493 835.2789 4331.5054 953.9708 4449.3679 751.3714 4334.2885 961.3268 4409.1927 1012.7255 4226.4358 1098.6031 4205.0556 1011.2191 4300.2354 1035.913 4195.6038 869.5431 Z" fill="none" stroke="#A9159C" opacity="0.6" stroke-width="1" class="pelham_parkway"/>
<path d="M 4151.2007 819.9308 4159.4033 746.3255 4260.0579 747.0912 4291.4602 750.7204 4323.9506 853.6998 4264.9296 907.1561 4209.55 930.2437 4169.7665 884.3021 4151.2007 819.9308 Z" fill="none" stroke="#A9159C" opacity="0.6" stroke-width="1" class="pelham_parkway"/>
<path d="M 4186.3129 832.7579 4447.6442 820.3683 4531.7133 836.7738 4449.6671 918.8047 4193.0283 998.3556 4164.1501 833.7111 4186.3129 832.7579 Z" fill="none" stroke="#A9159C" opacity="0.6" stroke-width="1" class="pelham_parkway"/>
<path d="M 4149.197 713.2255 4581.3472 714.3316 4525.2866 857.0253 4154.9435 853.0441 4149.197 713.2255 Z" fill="none" stroke="#A9159C" opacity="0.6" stroke-width="1" class="pelham_parkway"/>
<path d="M 4164.6303 846.1299 4198.4518 768.5743 4344.3619 771.7908 4596.2466 778.6944 4205.0226 989.5962 4164.6303 846.1299 Z" fill="none" stroke="#A9159C" opacity="0.6" stroke-width="1" class="pelham_parkway"/>
<path d="M 4158.5098 766.5644 4448.4807 771.6106 4443.9552 823.1348 4334.1339 868.4028 4216.011 927.4736 4180.8948 914.6463 4151.2075 824.5306 4158.5098 766.5644 Z" fill="none" stroke="#A9159C" opacity="0.6" stroke-width="1" class="pelham_parkway"/>
<path d="M 4153.0572 826.3678 4151.1168 762.8957 4570.374 770.4652 4588.8803 789.7477 4511.3842 830.3719 4197.5586 940.3827 4192.0169 940.3911 4153.0572 826.3678 Z" fill="none" stroke="#A9159C" opacity="0.6" stroke-width="1" class="pelham_parkway"/>
<path d="M 4188.3002 925.6758 4128.9423 754.6491 4487.2302 752.2228 4464.3368 858.9771 4188.3002 925.6758 Z" fill="none" stroke="#A9159C" opacity="0.6" stroke-width="1" class="pelham_parkway"/>
<path d="M 4152.1323 825.4492 4155.7218 754.6099 4250.8541 766.4234 4257.5454 909.9279 4192.9628 955.1109 4152.1323 825.4492 Z" fill="none" stroke="#A9159C" opacity="0.6" stroke-width="1" class="pelham_parkway"/>
<path d="M 4316.5139 824.273 4362.8463 917.1157 4247.0874 914.54 4190.6345 839.1866 4316.5139 824.273 Z" fill="none" stroke="#A9159C" opacity="0.6" stroke-width="1" class="pelham_parkway"/>
<path d="M 4191.0529 913.711 4190.8261 763.7564 4309.0219 760.8106 4335.961 856.4398 4191.0529 913.711 Z" fill="none" stroke="#A9159C" opacity="0.6" stroke-width="1" class="pelham_parkway"/>
<path d="M 4198.6908 773.8634 4295.6612 778.7704 4274.1397 891.0409 4195.6373 891.6233 4198.6908 773.8634 Z" fill="none" stroke="#A9159C" opacity="0.6" stroke-width="1" class="pelham_parkway"/>
<path d="M 4171.7721 835.7696 4260.8876 833.5625 4261.7022 910.3813 4216.0099 926.7836 4179.7193 900.6176 4164.8612 846.1296 4171.7721 835.7696 Z" fill="none" stroke="#A9159C" opacity="0.6" stroke-width="1" class="pelham_parkway"/>
<path d="M 4350.1744 796.1588 4249.5211 799.5424 4258.1739 723.6375 4335.2334 696.8368 4430.0198 776.2429 4350.1744 796.1588 Z" fill="none" stroke="#A9159C" opacity="0.6" stroke-width="1" class="pelham_parkway"/>
<path d="M 4150.5638 1014.9813 4156.7756 842.9217 4323.9125 830.7005 4443.0497 833.2559 4452.3687 880.1586 4438.5644 907.7839 4374.8546 918.0153 4273.3522 976.1478 4150.5638 1014.9813 Z" fill="none" stroke="#A9159C" opacity="0.6" stroke-width="1" class="pelham_parkway"/>
<path d="M 4168.5814 708.5976 4477.0557 743.0426 4471.745 870.0037 4187.4127 949.5988 4168.5814 708.5976 Z" fill="none" stroke="#A9159C" opacity="0.6" stroke-width="1" class="pelham_parkway"/>
<path d="M 4185.4832 795.6946 4420.7824 777.2187 4417.2369 861.8604 4187.2832 866.8353 4185.4832 795.6946 Z" fill="none" stroke="#A9159C" opacity="0.6" stroke-width="1" class="pelham_parkway"/>
<path d="M 4190.1432 922.9128 4153.0558 825.4478 4157.498 706.7744 4543.7277 841.3511 4190.1432 922.9128 Z" fill="none" stroke="#A9159C" opacity="0.6" stroke-width="1" class="pelham_parkway"/>
<path d="M 4183.4704 784.9254 4523.3228 794.4719 4520.5901 814.7156 4170.5763 807.9429 4532.6576 847.8117 4178.0345 854.8498 4183.4704 784.9254 Z" fill="none" stroke="#A9159C" opacity="0.6" stroke-width="1" class="pelham_parkway"/>
<path d="M 4190.9416 840.1107 4326.68 828.856 4376.7049 919.8522 4285.3656 979.8089 4155.1673 1004.853 4190.9416 840.1107 Z" fill="none" stroke="#A9159C" opacity="0.6" stroke-width="1" class="pelham_parkway"/>
<path d="M 4115.218 843.4421 4111.7846 702.7015 4264.1219 689.5939 4313.2915 830.2581 4115.218 843.4421 Z" fill="none" stroke="#A9159C" opacity="0.6" stroke-width="1" class="pelham_parkway"/>
<path d="M 4145.6921 842.018 4252.7518 798.6174 4298.9883 837.1812 4183.6684 916.4823 4145.6921 842.018 Z" fill="none" stroke="#A9159C" opacity="0.6" stroke-width="1" class="pelham_parkway"/>
<path d="M 4154.8133 764.7301 4583.3093 774.1199 4498.538 875.4748 4330.4168 854.6091 4272.3006 896.104 4184.5684 900.8403 4139.2154 833.7477 4154.8133 764.7301 Z" fill="none" stroke="#A9159C" opacity="0.6" stroke-width="1" class="pelham_parkway"/>
<path d="M 4161.6642 714.127 4273.8437 706.1354 4296.0744 748.8731 4306.3313 809.5706 4331.3625 867.9474 4256.1636 912.2302 4189.2412 937.1751 4151.6814 832.8095 4161.6642 714.127 Z" fill="none" stroke="#A9159C" opacity="0.6" stroke-width="1" class="pelham_parkway"/>
<path d="M 4175.2033 814.3755 4196.3835 774.7868 4240.702 770.119 4321.9576 765.3888 4364.4406 768.0773 4439.2413 768.8674 4584.2328 774.1182 4529.8612 834.0174 4488.347 858.0136 4446.829 881.0885 4379.4268 891.3265 4313.8643 897.8767 4258.4704 910.8465 4216.0053 923.7934 4198.4528 921.0601 4182.7545 922.924 4173.4044 846.5769 4162.3345 854.8732 4154.0173 851.2055 4199.1021 740.7467 4175.2033 814.3755 Z" fill="none" stroke="#A9159C" opacity="0.6" stroke-width="1" class="pelham_parkway"/>
<path d="M 4168.7766 839.684 4261.581 834.0214 4260.3197 912.2236 4182.724 902.6831 4168.7766 839.684 Z" fill="none" stroke="#A9159C" opacity="0.6" stroke-width="1" class="pelham_parkway"/>
<path d="M 4564.0686 842.0793 4562.8118 844.4349 4521.6134 835.3407 4492.786 842.3149 4445.0556 827.7077 4386.636 824.2482 4378.9544 839.5026 4278.9222 900.1511 4259.0129 867.0624 4170.1876 868.3156 4170.1674 833.9905 4152.2376 827.3473 4160.2717 740.1935 4577.3528 751.4037 4609.8229 774.3759 4564.0686 842.0793 Z" fill="none" stroke="#A9159C" opacity="0.6" stroke-width="1" class="pelham_parkway"/>
<path d="M 4160.1899 713.7787 4435.3384 868.217 4187.2666 904.198 4168.6716 828.754 4160.1899 713.7787 Z" fill="none" stroke="#A9159C" opacity="0.6" stroke-width="1" class="pelham_parkway"/>
<path d="M 4200.0547 911.6272 4162.0852 842.4538 4166.4269 501.6588 4526.8413 700.6374 4193.832 919.227 4200.0547 911.6272 Z" fill="none" stroke="#A9159C" opacity="0.6" stroke-width="1" class="pelham_parkway"/>
<path d="M 4190.1794 946.8344 4129.9989 846.6407 4154.793 750.9318 4280.4102 770.056 4307.2518 807.7292 4190.1794 946.8344 Z" fill="none" stroke="#A9159C" opacity="0.6" stroke-width="1" class="pelham_parkway"/>
<path d="M 4252.498 833.2686 4270.8829 779.883 4335.4835 754.9403 4431.5073 747.4163 4467.5624 770.3492 4472.6393 854.3613 4423.7975 914.2494 4315.7514 922.7137 4233.5284 908.1247 4263.8984 839.9966 4252.498 833.2686 Z" fill="none" stroke="#A9159C" opacity="0.6" stroke-width="1" class="pelham_parkway"/>
<path d="M 4190.1502 927.5131 4226.0551 852.9366 4287.9389 857.4386 4317.5586 897.8706 4292.7041 948.514 4234.5547 973.4488 4190.1502 927.5131 Z" fill="none" stroke="#A9159C" opacity="0.6" stroke-width="1" class="pelham_parkway"/>
<path d="M 4190.9416 840.1107 4417.1801 826.8619 4436.5933 837.8672 4498.4737 840.5154 4482.7773 842.3841 4452.3193 852.5588 4440.338 866.38 4430.2229 891.2382 4417.3059 898.6211 4403.4699 908.7656 4373.0152 922.6187 4365.6358 928.1516 4349.0311 940.1404 4325.956 949.3796 4297.3402 959.5474 4270.5754 972.4718 4200.4078 991.9035 4192.0461 959.7127 4189.2141 919.234 4195.6304 887.0232 4200.1725 837.3368 4190.9416 840.1107 Z" fill="none" stroke="#A9159C" opacity="0.6" stroke-width="1" class="pelham_parkway"/>
<path d="M 4147.3718 727.9459 4282.1771 720.3797 4369.3271 926.3052 4138.5612 1018.6794 4140.0892 799.7084 4147.3718 727.9459 Z" fill="none" stroke="#A9159C" opacity="0.6" stroke-width="1" class="pelham_parkway"/>
<path d="M 4168.0098 841.3714 4297.5881 827.677 4290.6611 827.2283 4173.3776 828.3307 4170.1529 833.3953 4296.8283 833.8112 4290.3705 837.9615 4284.3773 843.951 4278.3825 849.0205 4269.623 857.7744 4260.3971 863.769 4251.169 868.3835 4243.3333 877.5959 4239.6463 882.2017 4229.0418 892.7984 4222.5847 897.8685 4218.4407 905.6952 4210.6037 914.4476 4200.9151 920.4427 4196.2964 919.9897 4188.457 927.362 4186.6022 922.3045 4180.1294 917.254 4180.5795 909.4329 4177.7998 903.4569 4176.8658 896.5581 4176.8541 888.7379 4173.1496 881.8433 4172.2171 875.8647 4172.2082 869.8847 4169.8904 863.9082 4168.9566 857.0096 4167.5603 849.6519 4168.0098 841.3714 Z" fill="none" stroke="#A9159C" opacity="0.6" stroke-width="1" class="pelham_parkway"/>
<path d="M 4194.6231 831.8254 4450.4295 828.6429 4440.4017 902.2605 4216.0974 983.5985 4189.1988 909.1136 4194.6231 831.8254 Z" fill="none" stroke="#A9159C" opacity="0.6" stroke-width="1" class="pelham_parkway"/>
<path d="M 4164.6303 846.1299 4176.2295 826.3957 4183.7982 815.8695 4180.0511 814.0233 4176.4805 818.3962 4171.2871 819.2089 4168.8634 819.5575 4155.3675 826.4772 4152.9399 824.1809 4158.6928 767.1375 4191.6148 769.5805 4295.0434 769.9176 4297.2638 770.4887 4313.58 830.9908 4381.1357 822.9635 4415.3826 823.0939 4445.2951 827.2498 4530.3272 836.3164 4502.3449 837.9829 4471.6277 857.8777 4450.2571 888.7442 4438.1496 914.4963 4400.0492 913.1831 4401.0267 873.7136 4397.1541 861.6258 4378.5294 839.1183 4331.7879 846.097 4321.8913 852.4971 4277.9887 877.9246 4265.7559 878.3135 4261.2388 869.0056 4259.2395 913.6208 4215.8138 926.2836 4205.2441 921.2714 4179.2588 900.4666 4164.6303 846.1299 Z" fill="none" stroke="#A9159C" opacity="0.6" stroke-width="1" class="pelham_parkway"/>
<path d="M 4140.1 807.0679 4379.2457 785.5304 4528.8481 786.1823 4537.2596 839.5233 4141.1201 873.3042 4140.1 807.0679 Z" fill="none" stroke="#A9159C" opacity="0.6" stroke-width="1" class="pelham_parkway"/>
<path d="M 4337.6868 783.7608 4436.4987 784.5107 4432.0294 868.2348 4190.0807 881.5115 4189.9361 785.8355 4337.6868 783.7608 Z" fill="none" stroke="#A9159C" opacity="0.6" stroke-width="1" class="pelham_parkway"/></svg>