<?xml version="1.0"?><svg xmlns="http://www.w3.org/2000/svg" version="1.2" baseProfile="tiny" width="6000" height="5918" viewBox="0 0 6000 5918" stroke-linecap="round" stroke-linejoin="round"><path d="M 4272.28 883.2238 4292.6758 931.0328 4241.0015 961.4775 4241.9093 951.3551 4272.28 883.2238 Z" fill="none" stroke="#865327" opacity="0.6" stroke-width="1" class="pelham_gardens"/>
<path d="M 4138.2075 775.7932 4451.7893 814.3812 4459.3851 673.1664 4603.1662 775.4613 4564.9633 838.5509 4138.2075 775.7932 Z" fill="none" stroke="#865327" opacity="0.6" stroke-width="1" class="pelham_gardens"/>
<path d="M 4600.8352 763.967 4601.7945 782.3633 4554.8046 838.5702 4453.1704 812.0789 4318.3321 806.7911 4267.3632 695.5677 4316.196 631.1026 4390.9825 630.0568 4600.8352 763.967 Z" fill="none" stroke="#865327" opacity="0.6" stroke-width="1" class="pelham_gardens"/>
<path d="M 4249.893 742.5078 4449.3548 744.0123 4446.8668 902.2489 4257.5614 920.0484 4238.8105 741.6054 4249.893 742.5078 Z" fill="none" stroke="#865327" opacity="0.6" stroke-width="1" class="pelham_gardens"/>
<path d="M 4467.6903 670.392 4600.828 760.2875 4576.0507 841.2895 4454.1087 820.3568 4467.6903 670.392 Z" fill="none" stroke="#865327" opacity="0.6" stroke-width="1" class="pelham_gardens"/>
<path d="M 4450.2864 748.6101 4548.1695 748.43 4593.4994 790.6587 4526.1517 825.7447 4448.5611 816.6869 4450.2864 748.6101 Z" fill="none" stroke="#865327" opacity="0.6" stroke-width="1" class="pelham_gardens"/>
<path d="M 4523.3829 826.6698 4448.5628 817.6068 4462.1436 666.7228 4582.3398 750.2045 4599.0366 788.8081 4523.3829 826.6698 Z" fill="none" stroke="#865327" opacity="0.6" stroke-width="1" class="pelham_gardens"/>
<path d="M 4587.875 747.4342 4595.3374 786.0555 4518.7551 821.1587 4318.3291 804.9512 4314.6215 796.6779 4277.504 685.4334 4340.1467 597.9518 4587.875 747.4342 Z" fill="none" stroke="#865327" opacity="0.6" stroke-width="1" class="pelham_gardens"/>
<path d="M 4529.8491 827.5777 4455.1262 872.7936 4417.135 801.1035 4474.1487 667.6209 4604.5577 778.6783 4529.8491 827.5777 Z" fill="none" stroke="#865327" opacity="0.6" stroke-width="1" class="pelham_gardens"/>
<path d="M 4319.8195 588.7883 4391.882 616.2589 4459.3686 663.9684 4588.8144 755.7113 4601.7981 784.2031 4525.2282 825.7464 4452.2452 811.1606 4324.8041 811.3801 4319.8195 588.7883 Z" fill="none" stroke="#865327" opacity="0.6" stroke-width="1" class="pelham_gardens"/>
<path d="M 4416.8342 818.1073 4332.4989 818.2366 4328.5163 822.4133 4395.1229 713.4762 4396.9713 714.3929 4530.8717 718.7508 4535.4973 723.3414 4602.3312 785.8018 4606.9468 784.8729 4523.94 841.1481 4536.6885 843.23 4534.8397 842.3135 4416.8342 818.1073 Z" fill="none" stroke="#865327" opacity="0.6" stroke-width="1" class="pelham_gardens"/>
<path d="M 4415.0047 639.2128 4569.4065 747.4697 4595.3178 775.9365 4521.529 822.9934 4455.0091 807.4759 4405.1298 801.1244 4353.4198 803.9728 4315.5647 808.6355 4415.0047 639.2128 Z" fill="none" stroke="#865327" opacity="0.6" stroke-width="1" class="pelham_gardens"/>
<path d="M 4308.2563 806.9957 4278.9096 712.2645 4526.8161 714.3082 4601.664 783.4159 4522.8678 833.5061 4311.6792 823.603 4308.2563 806.9957 Z" fill="none" stroke="#865327" opacity="0.6" stroke-width="1" class="pelham_gardens"/>
<path d="M 4318.975 636.6167 4394.2101 627.7518 4458.9168 669.488 4444.3833 804.2751 4308.6415 810.4867 4268.2777 690.0472 4318.975 636.6167 Z" fill="none" stroke="#865327" opacity="0.6" stroke-width="1" class="pelham_gardens"/>
<path d="M 4307.2578 811.4089 4277.5321 702.9101 4303.3012 650.4391 4428.8755 651.1456 4566.638 748.3949 4598.0935 778.6909 4515.9983 828.5234 4306.3404 815.0902 4307.2578 811.4089 Z" fill="none" stroke="#865327" opacity="0.6" stroke-width="1" class="pelham_gardens"/>
<path d="M 4319.824 591.5474 4391.89 620.8576 4578.6425 748.3719 4607.337 783.2724 4517.8401 825.7601 4386.6698 806.676 4313.7253 813.2382 4319.824 591.5474 Z" fill="none" stroke="#865327" opacity="0.6" stroke-width="1" class="pelham_gardens"/>
<path d="M 4316.2648 813.2341 4329.6173 790.2137 4340.8974 770.8767 4357.2443 744.6323 4357.6497 711.2867 4519.7113 714.6783 4527.7884 713.2835 4528.5489 749.6168 4547.9426 750.5002 4547.0687 776.7189 4568.539 776.6781 4583.7653 771.1294 4575.6449 750.2174 4588.1259 757.7824 4593.2271 769.2713 4599.9556 786.5065 4596.2707 791.1133 4521.0711 825.0642 4522.7022 833.1108 4417.1604 815.5925 4310.5062 821.2931 4316.2648 813.2341 Z" fill="none" stroke="#865327" opacity="0.6" stroke-width="1" class="pelham_gardens"/>
<path d="M 4588.8233 760.3108 4595.3499 792.495 4513.2363 833.1284 4388.5152 805.7529 4315.5798 817.8349 4299.8115 775.544 4279.3685 696.4683 4275.6662 690.9553 4318.975 636.6167 4392.8244 627.2943 4588.8233 760.3108 Z" fill="none" stroke="#865327" opacity="0.6" stroke-width="1" class="pelham_gardens"/>
<path d="M 4049.1425 472.3978 4497.8429 497.4291 4613.013 852.2575 4044.1451 871.6008 3920.0992 634.4305 4049.1425 472.3978 Z" fill="none" stroke="#865327" opacity="0.6" stroke-width="1" class="pelham_gardens"/>
<path d="M 4588.8233 760.3108 4599.0492 795.2476 4524.3012 823.9082 4358.0434 807.6447 4356.097 748.7737 4427.0175 644.7104 4588.8233 760.3108 Z" fill="none" stroke="#865327" opacity="0.6" stroke-width="1" class="pelham_gardens"/>
<path d="M 4522.4576 825.7516 4312.7972 810.4799 4433.4857 647.4583 4584.1884 751.1208 4600.8764 785.1248 4522.4576 825.7516 Z" fill="none" stroke="#865327" opacity="0.6" stroke-width="1" class="pelham_gardens"/>
<path d="M 4457.7928 814.8305 4264.7847 816.0772 4261.7981 679.9395 4552.6924 698.7491 4560.3107 820.1605 4457.7928 814.8305 Z" fill="none" stroke="#865327" opacity="0.6" stroke-width="1" class="pelham_gardens"/>
<path d="M 4451.5641 817.6015 4317.1883 813.2325 4430.4853 647.6935 4611.011 773.1462 4563.5841 841.7734 4451.5641 817.6015 Z" fill="none" stroke="#865327" opacity="0.6" stroke-width="1" class="pelham_gardens"/>
<path d="M 4451.6086 713.4229 4530.3324 715.8083 4588.588 758.0115 4602.4924 785.1217 4522.4589 826.4415 4452.4765 811.3902 4451.6086 713.4229 Z" fill="none" stroke="#865327" opacity="0.6" stroke-width="1" class="pelham_gardens"/>
<path d="M 4450.6848 713.1945 4528.9478 716.0409 4528.7793 749.3864 4548.4051 750.9592 4547.5304 776.718 4557.4589 777.3891 4557.2809 805.2172 4557.2857 807.747 4521.3037 825.9837 4450.8604 811.3931 4454.5354 800.8072 4448.9013 748.6125 4450.6848 713.1945 Z" fill="none" stroke="#865327" opacity="0.6" stroke-width="1" class="pelham_gardens"/>
<path d="M 4351.3236 655.8782 4503.7552 699.7604 4500.2225 787.1553 4362.6327 791.0782 4351.3236 655.8782 Z" fill="none" stroke="#865327" opacity="0.6" stroke-width="1" class="pelham_gardens"/>
<path d="M 4407.6358 649.3433 4601.7783 774.0841 4600.8477 770.4063 4628.6821 836.5871 4309.1214 821.5253 4407.6358 649.3433 Z" fill="none" stroke="#865327" opacity="0.6" stroke-width="1" class="pelham_gardens"/>
<path d="M 4570.3299 747.4679 4589.7397 756.6294 4599.4903 784.6676 4520.6175 829.4348 4520.6158 828.5149 4445.7956 819.4517 4450.2815 745.8504 4570.3299 747.4679 Z" fill="none" stroke="#865327" opacity="0.6" stroke-width="1" class="pelham_gardens"/></svg>