<?xml version="1.0"?><svg xmlns="http://www.w3.org/2000/svg" version="1.2" baseProfile="tiny" width="6000" height="5918" viewBox="0 0 6000 5918" stroke-linecap="round" stroke-linejoin="round"><path d="M 3627.7359 1579.4211 3684.7607 1606.0748 3766.0472 1559.9577 3860.2258 1480.6791 3884.2681 1544.4204 3730.999 1690.0638 3549.761 1611.0471 3507.1519 1493.2373 3627.7359 1579.4211 Z" fill="none" stroke="#E71E24" opacity="0.6" stroke-width="1" class="port_morris"/>
<path d="M 3496.9519 1477.737 3532.0954 1509.9301 3560.7633 1532.0014 3594.0537 1554.0684 3629.1941 1576.133 3664.3335 1595.4346 3692.0629 1597.2492 3714.2312 1583.4167 3743.786 1563.1316 3765.9508 1547.4571 3780.745 1553.8859 3795.5666 1585.1728 3783.5683 1600.8377 3768.8047 1623.8715 3756.8122 1645.9819 3742.9762 1673.6192 3720.8109 1692.0576 3697.7013 1691.1599 3671.8054 1676.4526 3654.2326 1665.42 3627.4087 1645.1882 3617.2189 1620.3376 3585.775 1599.189 3574.6768 1590.9123 3551.5613 1579.8836 3531.2213 1571.6142 3508.0981 1549.5367 3506.2403 1537.5697 3501.6042 1518.24 3493.2816 1511.8021 3496.0378 1490.626 3496.9519 1477.737 Z" fill="none" stroke="#E71E24" opacity="0.6" stroke-width="1" class="port_morris"/>
<path d="M 3685.5761 1579.7624 3765.0085 1530.4262 3765.4691 1529.0447 3760.854 1534.5734 3685.5761 1579.7624 Z" fill="none" stroke="#E71E24" opacity="0.6" stroke-width="1" class="port_morris"/>
<path d="M 3506.2042 1491.5386 3557.9838 1523.7181 3586.648 1540.2651 3629.1873 1568.7675 3692.989 1599.0897 3719.8055 1611.9529 3692.9863 1596.3276 3732.7085 1576.0325 3763.182 1551.1427 3776.1713 1598.0836 3767.896 1638.6042 3743.9054 1678.2221 3701.3978 1690.2355 3629.2531 1640.5828 3548.7932 1585.41 3499.7616 1525.6065 3506.2042 1491.5386 Z" fill="none" stroke="#E71E24" opacity="0.6" stroke-width="1" class="port_morris"/>
<path d="M 3494.1781 1475.8979 3668.9592 1600.0337 3844.4473 1493.9741 3858.3854 1559.3231 3804.7999 1576.8765 3713.406 1681.9364 3487.7331 1507.2033 3494.1781 1475.8979 Z" fill="none" stroke="#E71E24" opacity="0.6" stroke-width="1" class="port_morris"/>
<path d="M 3755.4759 1408.0481 3733.3939 1412.0083 3788.0591 1416.9567 3765.9431 1456.6042 3733.6918 1494.0389 3733.6921 1494.269 3717.5938 1431.66 3704.6787 1424.2785 3712.9821 1410.9226 3755.4759 1408.0481 Z" fill="none" stroke="#E71E24" opacity="0.6" stroke-width="1" class="port_morris"/>
<path d="M 3541.3015 1466.6545 3557.9018 1426.1363 3604.0899 1407.6858 3662.323 1425.1222 3712.2386 1439.8021 3751.9865 1450.8081 3824.0942 1474.6648 3827.8644 1540.0242 3824.2079 1575.9342 3763.2658 1630.3225 3739.2656 1660.7323 3696.7688 1682.8738 3642.2018 1649.7784 3601.4858 1597.3338 3541.3765 1557.7958 3503.4526 1518.2385 3503.4353 1496.1438 3503.4022 1453.797 3531.1197 1446.4104 3541.3015 1466.6545 Z" fill="none" stroke="#E71E24" opacity="0.6" stroke-width="1" class="port_morris"/>
<path d="M 4014.286 1338.1954 4145.6479 1442.9497 4185.5161 1530.3471 4138.5338 1634.4546 4015.5698 1609.7659 3837.1336 1563.9509 4014.286 1338.1954 Z" fill="none" stroke="#E71E24" opacity="0.6" stroke-width="1" class="port_morris"/>
<path d="M 3801.9524 1508.7516 3822.3553 1572.2536 3710.6311 1680.0976 3493.2767 1505.3578 3496.8634 1363.5912 3558.9041 1519.1142 3687.4309 1586.2054 3803.8119 1518.8763 3801.9524 1508.7516 Z" fill="none" stroke="#E71E24" opacity="0.6" stroke-width="1" class="port_morris"/>
<path d="M 3740.159 1630.807 3757.2719 1643.6795 3716.1799 1682.8544 3697.6908 1680.5709 3665.3262 1667.251 3663.4653 1654.3621 3649.5976 1651.1526 3637.1143 1645.6397 3626.4735 1633.2194 3591.3222 1601.0256 3545.5675 1596.461 3491.4106 1482.3442 3533.9494 1516.8333 3740.159 1630.807 Z" fill="none" stroke="#E71E24" opacity="0.6" stroke-width="1" class="port_morris"/>
<path d="M 3813.4162 1013.5761 3942.7389 1018.9443 4040.7571 1097.9524 4033.4239 1140.2933 4002.1134 1215.7992 3956.0261 1300.533 3882.2069 1383.4643 3767.629 1387.275 3634.4791 1293.5208 3695.3914 1223.5143 3813.4162 1013.5761 Z" fill="none" stroke="#E71E24" opacity="0.6" stroke-width="1" class="port_morris"/></svg>