<?xml version="1.0"?><svg xmlns="http://www.w3.org/2000/svg" version="1.2" baseProfile="tiny" width="6000" height="5918" viewBox="0 0 6000 5918" stroke-linecap="round" stroke-linejoin="round"><path d="M 3198.0781 3684.3612 3204.1168 3722.4215 3226.3485 3721.4882 3240.2485 3731.401 3242.577 3756.3149 3211.5446 3758.6371 3186.0714 3763.4934 3173.3353 3767.1902 3079.7866 3815.4436 3067.0289 3755.003 3074.2058 3747.3877 3198.0781 3684.3612 Z" fill="none" stroke="#A9159C" opacity="0.6" stroke-width="1" class="prospect_park_south"/>
<path d="M 3087.4419 3851.4329 3032.2922 3762.8572 3196.6885 3683.9005 3223.16 3832.458 3212.0441 3835.6933 3199.5379 3837.5449 3087.4419 3851.4329 Z" fill="none" stroke="#A9159C" opacity="0.6" stroke-width="1" class="prospect_park_south"/>
<path d="M 3176.3149 3695.4437 3180.9639 3735.12 3072.5978 3787.7609 3066.1013 3750.8508 3176.3149 3695.4437 Z" fill="none" stroke="#A9159C" opacity="0.6" stroke-width="1" class="prospect_park_south"/>
<path d="M 3067.0282 3752.6961 3064.2488 3751.7742 3176.778 3695.4435 3197.6829 3832.9314 3092.0816 3872.6579 3067.0282 3752.6961 Z" fill="none" stroke="#A9159C" opacity="0.6" stroke-width="1" class="prospect_park_south"/>
<path d="M 3174.4622 3695.4445 3198.5409 3683.4383 3210.6193 3760.9445 3078.1666 3819.1356 3061.4677 3745.3155 3174.4622 3695.4445 Z" fill="none" stroke="#A9159C" opacity="0.6" stroke-width="1" class="prospect_park_south"/>
<path d="M 3082.7982 3817.2883 3071.6607 3754.5402 3175.1576 3696.8283 3183.7561 3764.8787 3142.5381 3779.8916 3082.7982 3817.2883 Z" fill="none" stroke="#A9159C" opacity="0.6" stroke-width="1" class="prospect_park_south"/>
<path d="M 3065.1749 3750.8511 3174.4614 3693.599 3188.3862 3760.9547 3080.0189 3817.2893 3036.4702 3795.1546 3032.7565 3766.5483 3065.1749 3750.8511 Z" fill="none" stroke="#A9159C" opacity="0.6" stroke-width="1" class="prospect_park_south"/>
<path d="M 3176.778 3695.4435 3188.3883 3765.5687 3085.5781 3819.1331 3062.3972 3755.4659 3176.778 3695.4435 Z" fill="none" stroke="#A9159C" opacity="0.6" stroke-width="1" class="prospect_park_south"/>
<path d="M 3076.7551 3752.6929 3077.6807 3750.3856 3075.828 3750.3862 3076.7546 3751.3087 3174.9276 3700.5193 3202.7634 3800.6293 3084.6529 3822.8248 3076.7551 3752.6929 Z" fill="none" stroke="#A9159C" opacity="0.6" stroke-width="1" class="prospect_park_south"/>
<path d="M 3069.3448 3754.7716 3177.4722 3694.0591 3185.3764 3763.0323 3080.7126 3814.0591 3075.6094 3790.067 3069.3448 3754.7716 Z" fill="none" stroke="#A9159C" opacity="0.6" stroke-width="1" class="prospect_park_south"/>
<path d="M 3096.4594 3806.9016 3164.3049 3771.5774 3173.8298 3839.6328 3103.6548 3850.7351 3096.4594 3806.9016 Z" fill="none" stroke="#A9159C" opacity="0.6" stroke-width="1" class="prospect_park_south"/>
<path d="M 3073.5122 3750.8484 3176.3159 3697.7505 3187.4609 3763.2621 3081.4073 3813.5974 3073.5122 3750.8484 Z" fill="none" stroke="#A9159C" opacity="0.6" stroke-width="1" class="prospect_park_south"/>
<path d="M 3075.0531 3788.8675 3140.0734 3755.2538 3173.3493 4014.3951 3124.2405 4020.6917 3075.0531 3788.8675 Z" fill="none" stroke="#A9159C" opacity="0.6" stroke-width="1" class="prospect_park_south"/>
<path d="M 3018.0189 4083.1262 3027.3088 4166.2071 2878.9594 3619.865 3631.1326 3693.2912 3040.2863 4175.4354 3018.0189 4083.1262 Z" fill="none" stroke="#A9159C" opacity="0.6" stroke-width="1" class="prospect_park_south"/>
<path d="M 3175.3878 3693.5986 3196.7581 3836.6233 3044.8262 3856.9838 3032.7573 3769.3167 3175.3878 3693.5986 Z" fill="none" stroke="#A9159C" opacity="0.6" stroke-width="1" class="prospect_park_south"/>
<path d="M 3073.9879 3789.1447 3147.6214 3750.36 3129.082 3718.993 3197.1514 3683.4389 3216.6526 3785.8575 3217.6024 3834.7678 3087.4426 3853.2787 3073.9879 3789.1447 Z" fill="none" stroke="#A9159C" opacity="0.6" stroke-width="1" class="prospect_park_south"/>
<path d="M 2979.0346 3803.4748 3202.2512 3694.5093 3598.7411 3726.5392 3349.8073 4135.5981 3033.7978 4171.7444 2979.0346 3803.4748 Z" fill="none" stroke="#A9159C" opacity="0.6" stroke-width="1" class="prospect_park_south"/>
<path d="M 3065.1755 3752.6967 3066.1004 3748.0824 3177.242 3697.2888 3206.9866 3916.9117 3115.2803 3971.4056 3065.1755 3752.6967 Z" fill="none" stroke="#A9159C" opacity="0.6" stroke-width="1" class="prospect_park_south"/>
<path d="M 3065.1755 3752.6967 3195.7616 3682.5169 3215.2845 3831.0775 3088.3681 3850.5097 3065.1755 3752.6967 Z" fill="none" stroke="#A9159C" opacity="0.6" stroke-width="1" class="prospect_park_south"/>
<path d="M 3080.0182 3815.4436 3083.7224 3810.8281 3089.2797 3807.1348 3143.0011 3779.43 3152.2911 3843.1027 3080.957 3852.358 3079.0881 3804.3697 3080.0182 3815.4436 Z" fill="none" stroke="#A9159C" opacity="0.6" stroke-width="1" class="prospect_park_south"/>
<path d="M 3197.6188 3692.666 3219.4531 3830.1526 3091.1481 3852.3545 3067.0292 3755.9258 3197.6188 3692.666 Z" fill="none" stroke="#A9159C" opacity="0.6" stroke-width="1" class="prospect_park_south"/>
<path d="M 3076.177 3403.0202 3086.3786 3448.218 2983.621 3605.0842 2865.055 3517.4568 2997.4353 3283.1318 3012.2503 3284.9728 3076.177 3403.0202 Z" fill="none" stroke="#A9159C" opacity="0.6" stroke-width="1" class="prospect_park_south"/>
<path d="M 3206.9006 3732.8014 3212.8207 3763.5965 3217.7017 3800.1608 3219.6866 3834.19 3181.9363 3839.86 3155.5336 3842.7552 3133.6473 3846.1094 3110.487 3849.2329 3089.6429 3853.0472 3084.0762 3829.8618 3082.1041 3819.7111 3079.3196 3803.7929 3074.9144 3789.6058 3072.2464 3775.303 3068.6521 3761.116 3070.3866 3753.5024 3072.1223 3749.9261 3090.4146 3739.7694 3088.9093 3739.8852 3115.7688 3726.7262 3138.1125 3715.8752 3180.4827 3694.1731 3197.1523 3685.2844 3203.5309 3707.5424 3206.9006 3732.8014 Z" fill="none" stroke="#A9159C" opacity="0.6" stroke-width="1" class="prospect_park_south"/>
<path d="M 3071.6798 3813.6006 3182.8235 3750.8065 3207.8803 3846.7698 3083.7379 3856.9715 3071.6798 3813.6006 Z" fill="none" stroke="#A9159C" opacity="0.6" stroke-width="1" class="prospect_park_south"/>
<path d="M 3103.1917 3850.9659 3096.4596 3807.363 3164.7687 3772.9614 3174.0618 3840.5556 3103.1917 3850.9659 Z" fill="none" stroke="#A9159C" opacity="0.6" stroke-width="1" class="prospect_park_south"/>
<path d="M 3092.0389 3748.9966 3082.7694 3731.467 3169.8311 3696.3692 3191.1666 3763.7219 3090.2064 3808.0573 3092.0389 3748.9966 Z" fill="none" stroke="#A9159C" opacity="0.6" stroke-width="1" class="prospect_park_south"/>
<path d="M 3073.0498 3753.1555 3193.9119 3688.9768 3214.3581 3831.0779 3219.0065 3864.7609 3243.5768 3901.6654 3246.8964 4052.5753 3128.2896 4068.3207 3073.0498 3753.1555 Z" fill="none" stroke="#A9159C" opacity="0.6" stroke-width="1" class="prospect_park_south"/>
<path d="M 3086.5155 3851.4332 3057.7862 3822.8335 3052.2211 3801.6097 3080.9364 3790.5266 3074.4407 3757.3076 3177.238 3688.0614 3208.8007 3833.8491 3086.5155 3851.4332 Z" fill="none" stroke="#A9159C" opacity="0.6" stroke-width="1" class="prospect_park_south"/>
<path d="M 3138.1507 3812.6539 3143.0273 3844.9522 3101.3388 3850.9666 3093.6806 3808.2869 3144.8552 3782.6592 3145.3209 3788.888 3148.5661 3795.8079 3146.7156 3801.3457 3147.8764 3808.2665 3150.8875 3808.9574 3150.8884 3811.0338 3138.1507 3812.6539 Z" fill="none" stroke="#A9159C" opacity="0.6" stroke-width="1" class="prospect_park_south"/>
<path d="M 3136.9558 3718.99 3137.417 3713.9146 3185.1155 3696.8239 3194.9067 3839.8542 3086.9797 3854.2017 3073.0627 3792.8363 3148.0832 3747.13 3124.9173 3729.145 3136.9558 3718.99 Z" fill="none" stroke="#A9159C" opacity="0.6" stroke-width="1" class="prospect_park_south"/>
<path d="M 3177.7057 3698.6727 3196.76 3840.7762 3085.5896 3853.2793 3072.1361 3792.3752 3147.6227 3753.5897 3128.1565 3721.3003 3177.7057 3698.6727 Z" fill="none" stroke="#A9159C" opacity="0.6" stroke-width="1" class="prospect_park_south"/>
<path d="M 3105.0673 3914.1849 3074.4473 3777.6093 3180.0294 3716.6652 3199.5485 3860.617 3105.0673 3914.1849 Z" fill="none" stroke="#A9159C" opacity="0.6" stroke-width="1" class="prospect_park_south"/>
<path d="M 4930.9599 3326.6818 4992.9497 3305.7844 5017.3166 3349.8696 5023.2232 3387.7855 5052.2974 3445.9856 4995.8267 3460.6196 4955.0405 3444.1099 4936.3656 3377.2744 4930.705 3331.6282 4930.9599 3326.6818 Z" fill="none" stroke="#A9159C" opacity="0.6" stroke-width="1" class="prospect_park_south"/>
<path d="M 3175.3878 3693.5986 3199.546 3855.0796 3101.3619 3916.0322 3071.672 3789.6069 3144.8428 3751.7453 3127.2295 3719.4551 3175.3878 3693.5986 Z" fill="none" stroke="#A9159C" opacity="0.6" stroke-width="1" class="prospect_park_south"/>
<path d="M 3074.9144 3789.6058 3166.1453 3742.2779 3187.7381 3865.4675 3101.5938 3916.955 3075.6095 3790.5284 3074.9144 3789.6058 Z" fill="none" stroke="#A9159C" opacity="0.6" stroke-width="1" class="prospect_park_south"/>
<path d="M 3103.4237 3852.1195 3098.7914 3852.1211 3096.4716 3841.7395 3091.8317 3819.8231 3083.0292 3815.6733 3098.081 3807.8239 3145.7822 3784.043 3151.5824 3809.1878 3142.7961 3845.8751 3103.4237 3852.1195 Z" fill="none" stroke="#A9159C" opacity="0.6" stroke-width="1" class="prospect_park_south"/>
<path d="M 3081.8717 3817.2886 3064.2468 3745.3147 3208.7298 3682.5109 3205.0306 3695.4308 3212.4528 3720.3414 3218.958 3763.7089 3081.8717 3817.2886 Z" fill="none" stroke="#A9159C" opacity="0.6" stroke-width="1" class="prospect_park_south"/>
<path d="M 3177.2416 3696.366 3193.0519 3835.7021 3090.2204 3848.6633 3076.3046 3791.451 3067.954 3750.8502 3130.9355 3721.2992 3177.2416 3696.366 Z" fill="none" stroke="#A9159C" opacity="0.6" stroke-width="1" class="prospect_park_south"/>
<path d="M 3193.4458 3682.5179 3216.2117 3832.692 3123.0907 3798.125 3070.7352 3757.3088 3193.4458 3682.5179 Z" fill="none" stroke="#A9159C" opacity="0.6" stroke-width="1" class="prospect_park_south"/>
<path d="M 3062.3967 3753.6203 3197.6158 3686.2069 3214.3598 3834.7694 3082.8093 3850.5116 3062.3967 3753.6203 Z" fill="none" stroke="#A9159C" opacity="0.6" stroke-width="1" class="prospect_park_south"/>
<path d="M 3200.4733 3856.925 3104.1431 3920.6459 3070.7393 3770.228 3180.9549 3714.8193 3200.4733 3856.925 Z" fill="none" stroke="#A9159C" opacity="0.6" stroke-width="1" class="prospect_park_south"/>
<path d="M 3069.807 3751.7724 3173.5403 3705.595 3214.4015 3922.4459 3121.7674 3974.1721 3069.807 3751.7724 Z" fill="none" stroke="#A9159C" opacity="0.6" stroke-width="1" class="prospect_park_south"/>
<path d="M 3191.133 3688.978 3196.6992 3707.4302 3215.274 3808.929 3208.7998 3832.0034 3196.7682 3858.7724 3096.7302 3918.8026 3048.5511 3920.6642 3039.2676 3857.9083 3022.5653 3762.8599 3191.133 3688.978 Z" fill="none" stroke="#A9159C" opacity="0.6" stroke-width="1" class="prospect_park_south"/>
<path d="M 3068.1889 3761.2315 3197.6161 3686.6683 3218.2966 3833.3832 3088.6005 3852.8168 3068.1889 3761.2315 Z" fill="none" stroke="#A9159C" opacity="0.6" stroke-width="1" class="prospect_park_south"/>
<path d="M 3069.3438 3751.7725 3176.7779 3695.0975 3186.1869 3762.8013 3083.9548 3813.2505 3069.3438 3751.7725 Z" fill="none" stroke="#A9159C" opacity="0.6" stroke-width="1" class="prospect_park_south"/>
<path d="M 3066.1018 3752.6964 3169.8311 3696.3692 3174.493 3766.4976 3190.2767 3844.9321 3087.4529 3883.7344 3066.1018 3752.6964 Z" fill="none" stroke="#A9159C" opacity="0.6" stroke-width="1" class="prospect_park_south"/>
<path d="M 3198.5415 3684.8224 3217.5851 3798.5459 3081.4093 3819.5959 3066.7973 3754.7724 3198.5415 3684.8224 Z" fill="none" stroke="#A9159C" opacity="0.6" stroke-width="1" class="prospect_park_south"/>
<path d="M 3098.0845 3817.7445 3138.1492 3808.9625 3143.2586 3844.2599 3088.3686 3851.894 3081.8723 3819.1343 3098.0845 3817.7445 Z" fill="none" stroke="#A9159C" opacity="0.6" stroke-width="1" class="prospect_park_south"/>
<path d="M 3181.889 3732.3513 3209.7649 3914.1416 3115.2799 3970.4826 3070.745 3787.7615 3181.889 3732.3513 Z" fill="none" stroke="#A9159C" opacity="0.6" stroke-width="1" class="prospect_park_south"/>
<path d="M 3063.3227 3752.6972 3176.3153 3696.3664 3208.8388 3915.0649 3113.4278 3973.2522 3068.8824 3757.3094 3063.3227 3752.6972 Z" fill="none" stroke="#A9159C" opacity="0.6" stroke-width="1" class="prospect_park_south"/>
<path d="M 3087.4426 3853.2787 3068.8812 3753.6183 3201.3219 3688.0507 3216.2114 3831.9999 3208.8016 3835.6949 3087.4426 3853.2787 Z" fill="none" stroke="#A9159C" opacity="0.6" stroke-width="1" class="prospect_park_south"/>
<path d="M 2809.951 3543.985 2855.3366 3580.6553 2778.9264 3675.4636 2739.5576 3723.6764 2672.4036 3666.4627 2719.6471 3604.1856 2809.951 3543.985 Z" fill="none" stroke="#A9159C" opacity="0.6" stroke-width="1" class="prospect_park_south"/>
<path d="M 3013.6768 3780.9493 3040.3547 3772.8212 3198.1711 3684.9148 3231.6235 3898.9948 3010.7776 4032.7276 2977.3651 3794.2468 3018.8634 3776.5184 3013.6768 3780.9493 Z" fill="none" stroke="#A9159C" opacity="0.6" stroke-width="1" class="prospect_park_south"/>
<path d="M 2983.6646 3794.2454 3193.9156 3697.2813 3235.6989 3896.5932 3028.1943 4017.5849 2983.6646 3794.2454 Z" fill="none" stroke="#A9159C" opacity="0.6" stroke-width="1" class="prospect_park_south"/>
<path d="M 2979.9592 3795.1691 3186.501 3688.0574 3213.4679 3907.6792 3031.8909 3982.5088 3017.9967 4000.05 3008.7287 3992.6682 2979.9592 3795.1691 Z" fill="none" stroke="#A9159C" opacity="0.6" stroke-width="1" class="prospect_park_south"/>
<path d="M 3129.5451 3718.9929 3175.8513 3694.5212 3192.5741 3803.4024 3079.0926 3817.751 3074.9141 3788.683 3146.6954 3751.2831 3129.5451 3718.9929 Z" fill="none" stroke="#A9159C" opacity="0.6" stroke-width="1" class="prospect_park_south"/>
<path d="M 3150.3988 3746.2063 3131.8587 3712.9941 3204.0987 3683.4357 3217.103 3759.0958 3150.3988 3746.2063 Z" fill="none" stroke="#A9159C" opacity="0.6" stroke-width="1" class="prospect_park_south"/>
<path d="M 3196.6891 3685.2846 3208.7657 3759.0998 3078.166 3817.2899 3067.954 3750.8502 3196.6891 3685.2846 Z" fill="none" stroke="#A9159C" opacity="0.6" stroke-width="1" class="prospect_park_south"/>
<path d="M 3191.4159 3802.9415 3081.1774 3818.9039 3075.1456 3788.4522 3146.9267 3750.5909 3131.3978 3718.9921 3174.9256 3695.9057 3191.4159 3802.9415 Z" fill="none" stroke="#A9159C" opacity="0.6" stroke-width="1" class="prospect_park_south"/>
<path d="M 3177.2404 3693.5978 3188.4065 3806.1728 3036.475 3811.7656 3025.3436 3760.0908 3014.2184 3726.8737 3021.6271 3719.4896 3040.1517 3712.1024 3058.6777 3710.2513 3177.2404 3693.5978 Z" fill="none" stroke="#A9159C" opacity="0.6" stroke-width="1" class="prospect_park_south"/>
<path d="M 3076.2961 3765.6122 3173.5367 3697.2904 3213.4867 3947.3664 3111.5783 3983.406 3076.2961 3765.6122 Z" fill="none" stroke="#A9159C" opacity="0.6" stroke-width="1" class="prospect_park_south"/>
<path d="M 3071.5444 3753.0407 3176.5466 3695.905 3188.3866 3761.8775 3081.4062 3810.3674 3071.5444 3753.0407 Z" fill="none" stroke="#A9159C" opacity="0.6" stroke-width="1" class="prospect_park_south"/>
<path d="M 3082.334 3814.5199 3144.1601 3781.7366 3148.5721 3810.5733 3137.6868 3811.0391 3143.0276 3845.6443 3089.0638 3853.0474 3082.334 3814.5199 Z" fill="none" stroke="#A9159C" opacity="0.6" stroke-width="1" class="prospect_park_south"/>
<path d="M 3177.2408 3694.5206 3195.762 3683.4396 3216.1925 3792.3175 3217.1392 3834.768 3218.0723 3848.6107 3099.5085 3915.1099 3068.8812 3753.6183 3177.2408 3694.5206 Z" fill="none" stroke="#A9159C" opacity="0.6" stroke-width="1" class="prospect_park_south"/>
<path d="M 2888.2035 3478.7073 3014.174 3558.0229 2985.4743 3608.7743 2931.7475 3577.4157 2895.6337 3634.6255 2820.6039 3578.3514 2888.2035 3478.7073 Z" fill="none" stroke="#A9159C" opacity="0.6" stroke-width="1" class="prospect_park_south"/>
<path d="M 3071.6592 3749.9262 3193.9069 3677.9041 3219.8795 3753.5578 3080.0164 3809.9065 3071.6592 3749.9262 Z" fill="none" stroke="#A9159C" opacity="0.6" stroke-width="1" class="prospect_park_south"/>
<path d="M 3074.2184 3785.9147 3067.955 3754.08 3181.4102 3696.8256 3190.24 3763.2609 3081.8706 3814.0587 3074.2184 3785.9147 Z" fill="none" stroke="#A9159C" opacity="0.6" stroke-width="1" class="prospect_park_south"/>
<path d="M 3178.1679 3696.3656 3196.7577 3835.7004 3090.221 3850.509 3067.9549 3753.6186 3178.1679 3696.3656 Z" fill="none" stroke="#A9159C" opacity="0.6" stroke-width="1" class="prospect_park_south"/>
<path d="M 3073.9879 3789.3754 3148.4285 3741.8239 3150.6318 3749.782 3160.3692 3775.0396 3154.5799 3776.6569 3080.4814 3815.2127 3075.7243 3787.2985 3073.9879 3789.3754 Z" fill="none" stroke="#A9159C" opacity="0.6" stroke-width="1" class="prospect_park_south"/>
<path d="M 3074.9144 3789.3751 3071.2023 3769.5358 3068.6518 3760.3086 3123.529 3732.3752 3176.3189 3704.6711 3197.2216 3837.0845 3087.6743 3853.74 3074.9144 3789.3751 Z" fill="none" stroke="#A9159C" opacity="0.6" stroke-width="1" class="prospect_park_south"/>
<path d="M 3080.017 3811.7522 3145.3181 3781.9669 3153.4488 3842.1793 3090.2218 3852.8163 3080.017 3811.7522 Z" fill="none" stroke="#A9159C" opacity="0.6" stroke-width="1" class="prospect_park_south"/>
<path d="M 3074.4507 3787.991 3160.1252 3745.2795 3177.7815 3872.3937 3128.2255 3901.0245 3102.2886 3916.4933 3074.4507 3787.991 Z" fill="none" stroke="#A9159C" opacity="0.6" stroke-width="1" class="prospect_park_south"/>
<path d="M 3102.9432 3803.6694 3092.8604 3780.6023 3092.0481 3775.7578 3127.0134 3760.0574 3133.4983 3760.747 3152.0211 3749.0893 3148.2248 3810.6888 3114.1799 3814.1627 3107.2318 3814.3959 3102.9432 3803.6694 Z" fill="none" stroke="#A9159C" opacity="0.6" stroke-width="1" class="prospect_park_south"/>
<path d="M 2998.4719 3732.4143 3205.0426 3721.2677 3230.1108 3837.5304 3027.2202 3845.9142 2998.4719 3732.4143 Z" fill="none" stroke="#A9159C" opacity="0.6" stroke-width="1" class="prospect_park_south"/>
<path d="M 3067.0279 3751.7733 3174.461 3692.6763 3196.2949 3836.6235 3088.369 3853.0476 3067.0279 3751.7733 Z" fill="none" stroke="#A9159C" opacity="0.6" stroke-width="1" class="prospect_park_south"/>
<path d="M 3067.0412 3793.2996 3057.7645 3752.699 3167.9812 3702.8292 3171.7007 3736.0468 3177.2753 3773.8789 3208.8102 3854.1524 3098.581 3912.3414 3080.0327 3858.8185 3067.0412 3793.2996 Z" fill="none" stroke="#A9159C" opacity="0.6" stroke-width="1" class="prospect_park_south"/>
<path d="M 3066.1013 3750.8508 3129.0814 3717.6089 3148.5483 3751.7438 3151.3379 3777.5811 3185.6071 3760.956 3201.4019 3861.539 3101.3629 3918.801 3066.1013 3750.8508 Z" fill="none" stroke="#A9159C" opacity="0.6" stroke-width="1" class="prospect_park_south"/>
<path d="M 3069.8017 3735.1623 3201.3155 3674.2099 3224.5517 3836.6102 3041.1227 3865.2909 3021.6386 3761.9374 3069.8017 3735.1623 Z" fill="none" stroke="#A9159C" opacity="0.6" stroke-width="1" class="prospect_park_south"/>
<path d="M 2987.3265 3607.8513 2945.6593 3676.1386 2819.6777 3577.4288 2702.0406 3726.9043 2685.368 3708.4479 2867.8268 3455.6469 3014.172 3550.6421 2987.3265 3607.8513 Z" fill="none" stroke="#A9159C" opacity="0.6" stroke-width="1" class="prospect_park_south"/>
<path d="M 3197.6146 3683.4387 3218.0493 3800.6221 3217.1449 3846.7654 3100.4353 3916.0325 3066.103 3756.3875 3128.1558 3719.4548 3197.6146 3683.4387 Z" fill="none" stroke="#A9159C" opacity="0.6" stroke-width="1" class="prospect_park_south"/>
<path d="M 2981.7696 3609.6978 2853.0161 3526.6836 2889.1291 3475.0171 3020.6572 3558.0211 2981.7696 3609.6978 Z" fill="none" stroke="#A9159C" opacity="0.6" stroke-width="1" class="prospect_park_south"/>
<path d="M 3176.5462 3694.9822 3198.0779 3683.8999 3199.7047 3696.356 3188.5908 3700.5133 3208.1063 3834.7723 3089.7587 3853.0471 3066.7972 3754.5417 3076.7527 3745.3106 3176.5462 3694.9822 Z" fill="none" stroke="#A9159C" opacity="0.6" stroke-width="1" class="prospect_park_south"/>
<path d="M 3196.7577 3835.7004 3087.9058 3853.2785 3067.2597 3752.2346 3177.4723 3694.2898 3196.7577 3835.7004 Z" fill="none" stroke="#A9159C" opacity="0.6" stroke-width="1" class="prospect_park_south"/>
<path d="M 3066.1018 3752.6964 3195.7616 3682.5169 3218.067 3837.5362 3084.6619 3849.5881 3066.1018 3752.6964 Z" fill="none" stroke="#A9159C" opacity="0.6" stroke-width="1" class="prospect_park_south"/>
<path d="M 3063.3207 3746.2377 3058.687 3740.2411 3174.9242 3692.6761 3200.0113 3859.6939 3099.5072 3911.4181 3063.3207 3746.2377 Z" fill="none" stroke="#A9159C" opacity="0.6" stroke-width="1" class="prospect_park_south"/>
<path d="M 3195.8317 3836.6237 3088.8316 3851.4324 3066.5643 3750.3892 3174.4628 3696.8286 3195.8317 3836.6237 Z" fill="none" stroke="#A9159C" opacity="0.6" stroke-width="1" class="prospect_park_south"/>
<path d="M 3073.9879 3789.1447 3160.588 3744.3565 3178.2438 3870.3169 3103.2151 3916.493 3073.9879 3789.1447 Z" fill="none" stroke="#A9159C" opacity="0.6" stroke-width="1" class="prospect_park_south"/>
<path d="M 3081.8708 3814.5201 3080.9354 3787.7582 3183.7433 3736.0416 3201.401 3859.6932 3108.7748 3917.8754 3076.3052 3793.2966 3081.8708 3814.5201 Z" fill="none" stroke="#A9159C" opacity="0.6" stroke-width="1" class="prospect_park_south"/>
<path d="M 3041.8387 3677.6129 3012.1888 3645.3266 3001.0693 3627.7986 2982.5414 3614.8857 2984.3844 3574.2893 3017.7153 3529.0739 3085.9307 3432.7185 3220.2846 3590.4204 3222.4673 3714.264 3077.2717 3779.861 3062.4444 3764.178 3041.8387 3677.6129 Z" fill="none" stroke="#A9159C" opacity="0.6" stroke-width="1" class="prospect_park_south"/>
<path d="M 3199.0038 3682.9767 3203.4229 3724.2674 3216.4259 3796.0087 3189.7933 3799.9431 3149.4971 3806.8816 3085.1144 3817.749 3076.3037 3788.6825 3067.0258 3745.0831 3167.0474 3685.2977 3154.9663 3590.2669 3186.4519 3577.7979 3199.0038 3682.9767 Z" fill="none" stroke="#A9159C" opacity="0.6" stroke-width="1" class="prospect_park_south"/>
<path d="M 3067.7282 3769.0755 3134.8881 3761.4385 3138.1407 3787.5066 3147.1952 3842.1818 3091.6115 3852.8158 3083.0294 3816.1347 3076.3046 3791.2203 3069.5813 3769.9977 3067.7282 3769.0755 Z" fill="none" stroke="#A9159C" opacity="0.6" stroke-width="1" class="prospect_park_south"/>
<path d="M 3032.7565 3766.5483 3177.2428 3699.1342 3200.4733 3856.925 3056.8947 3936.352 3029.0517 3769.3178 3032.7565 3766.5483 Z" fill="none" stroke="#A9159C" opacity="0.6" stroke-width="1" class="prospect_park_south"/>
<path d="M 3067.9546 3752.6958 3059.6175 3753.6212 3176.3157 3697.2892 3193.0528 3837.5479 3089.2961 3855.1238 3067.9546 3752.6958 Z" fill="none" stroke="#A9159C" opacity="0.6" stroke-width="1" class="prospect_park_south"/>
<path d="M 3176.3149 3695.4437 3199.4672 3683.4379 3204.1158 3720.3453 3072.5981 3788.6837 3067.0282 3752.6961 3176.3149 3695.4437 Z" fill="none" stroke="#A9159C" opacity="0.6" stroke-width="1" class="prospect_park_south"/>
<path d="M 2949.3618 3662.2972 2937.3242 3684.4446 2916.9495 3709.3619 2896.574 3736.125 2879.9016 3751.8144 2874.346 3774.8851 2855.8159 3750.8943 2830.8022 3725.0586 2806.7161 3696.4548 2772.4424 3683.5375 2748.359 3662.315 2727.9816 3642.9378 2773.368 3596.8055 2808.5621 3551.5964 2820.6013 3533.1441 2832.6423 3547.9046 2871.5428 3559.8948 2903.0411 3616.1712 2949.3618 3662.2972 Z" fill="none" stroke="#A9159C" opacity="0.6" stroke-width="1" class="prospect_park_south"/>
<path d="M 3175.3878 3693.5986 3196.7569 3833.8547 3086.5155 3851.4332 3074.4521 3792.3744 3073.5242 3787.7606 3149.4743 3750.8206 3130.9337 3716.6854 3175.3878 3693.5986 Z" fill="none" stroke="#A9159C" opacity="0.6" stroke-width="1" class="prospect_park_south"/>
<path d="M 3104.1406 3913.7238 3065.1762 3755.0036 3196.2262 3685.7462 3219.9245 3847.2255 3104.1406 3913.7238 Z" fill="none" stroke="#A9159C" opacity="0.6" stroke-width="1" class="prospect_park_south"/>
<path d="M 3182.816 3733.7351 3198.1479 3836.8534 3089.411 3852.2397 3075.4931 3788.6828 3182.816 3733.7351 Z" fill="none" stroke="#A9159C" opacity="0.6" stroke-width="1" class="prospect_park_south"/>
<path d="M 3062.168 3763.079 3060.078 3744.8546 3180.942 3685.2917 3196.7431 3803.6313 3077.2409 3821.2123 3062.168 3763.079 Z" fill="none" stroke="#A9159C" opacity="0.6" stroke-width="1" class="prospect_park_south"/>
<path d="M 3198.5412 3684.1303 3216.4214 3786.6651 3219.2296 3846.9951 3101.1305 3916.7245 3066.5656 3754.5418 3109.8797 3771.5988 3070.7316 3746.2354 3198.5412 3684.1303 Z" fill="none" stroke="#A9159C" opacity="0.6" stroke-width="1" class="prospect_park_south"/>
<path d="M 3128.1866 3799.738 3135.1408 3815.4236 3144.4129 3834.8 3093.0006 3850.9695 3066.5661 3755.926 3174.926 3696.8284 3197.2209 3835.7002 3166.6479 3835.2523 3159.2371 3837.1011 3155.9951 3838.4868 3150.9005 3840.796 3148.1219 3842.6429 3127.7423 3849.1111 3124.0361 3848.1896 3105.5068 3848.0811 3128.1866 3799.738 Z" fill="none" stroke="#A9159C" opacity="0.6" stroke-width="1" class="prospect_park_south"/>
<path d="M 3068.8807 3751.7727 3197.6142 3682.516 3197.6698 3804.323 3081.8708 3814.5201 3080.9447 3815.4432 3068.8807 3751.7727 Z" fill="none" stroke="#A9159C" opacity="0.6" stroke-width="1" class="prospect_park_south"/>
<path d="M 3163.6106 3772.7312 3178.244 3870.7784 3111.5519 3911.183 3097.8524 3816.591 3138.8447 3810.5772 3135.8246 3787.2768 3163.6106 3772.7312 Z" fill="none" stroke="#A9159C" opacity="0.6" stroke-width="1" class="prospect_park_south"/>
<path d="M 3048.4772 3673.8066 3079.0914 3814.0596 2937.3661 3915.1532 2793.2876 3800.73 3048.4772 3673.8066 Z" fill="none" stroke="#A9159C" opacity="0.6" stroke-width="1" class="prospect_park_south"/>
<path d="M 3068.8922 3787.7621 3177.2573 3732.3533 3193.0523 3836.625 3085.5881 3848.6649 3068.8922 3787.7621 Z" fill="none" stroke="#A9159C" opacity="0.6" stroke-width="1" class="prospect_park_south"/>
<path d="M 3072.5843 3746.2348 3175.391 3700.9805 3190.2589 3805.2492 3088.3549 3811.7494 3072.5843 3746.2348 Z" fill="none" stroke="#A9159C" opacity="0.6" stroke-width="1" class="prospect_park_south"/>
<path d="M 3067.9564 3758.2325 3063.3213 3748.0833 3198.5392 3679.7474 3221.771 3833.843 3086.517 3856.0476 3067.9564 3758.2325 Z" fill="none" stroke="#A9159C" opacity="0.6" stroke-width="1" class="prospect_park_south"/>
<path d="M 3062.3967 3753.6203 3179.0926 3692.6743 3179.0999 3709.2836 3273.5737 3688.0146 3280.0925 3751.6813 3078.1648 3813.5985 3059.6161 3749.0073 3067.0273 3749.9277 3062.3967 3753.6203 Z" fill="none" stroke="#A9159C" opacity="0.6" stroke-width="1" class="prospect_park_south"/>
<path d="M 3176.3143 3694.0596 3187.4609 3763.2621 3173.1034 3766.4982 3041.1141 3835.7586 3034.6099 3768.8548 3176.3143 3694.0596 Z" fill="none" stroke="#A9159C" opacity="0.6" stroke-width="1" class="prospect_park_south"/>
<path d="M 3089.2961 3855.1238 3076.3125 3815.4448 3184.2186 3763.2636 3197.6859 3839.3915 3089.2961 3855.1238 Z" fill="none" stroke="#A9159C" opacity="0.6" stroke-width="1" class="prospect_park_south"/>
<path d="M 3174.4606 3691.7536 3195.8306 3834.3166 3089.296 3854.6624 3073.0616 3789.6064 3147.1597 3754.0513 3129.5457 3720.377 3174.4606 3691.7536 Z" fill="none" stroke="#A9159C" opacity="0.6" stroke-width="1" class="prospect_park_south"/>
<path d="M 3065.6375 3749.0054 3197.615 3684.3615 3209.228 3757.254 3081.8703 3813.1358 3065.6375 3749.0054 Z" fill="none" stroke="#A9159C" opacity="0.6" stroke-width="1" class="prospect_park_south"/>
<path d="M 3177.2408 3694.5206 3200.4748 3860.1551 3101.362 3916.4936 3066.5659 3755.4646 3071.1954 3748.0808 3177.2408 3694.5206 Z" fill="none" stroke="#A9159C" opacity="0.6" stroke-width="1" class="prospect_park_south"/>
<path d="M 3074.914 3788.2216 3147.1584 3750.8215 3152.7538 3841.7181 3087.4423 3852.3558 3074.914 3788.2216 Z" fill="none" stroke="#A9159C" opacity="0.6" stroke-width="1" class="prospect_park_south"/>
<path d="M 3197.6146 3683.4387 3204.1167 3722.1909 3227.2742 3720.3343 3239.3212 3729.556 3243.0392 3754.4691 3183.7544 3760.9568 3079.0933 3820.0581 3065.1775 3759.1562 3197.6146 3683.4387 Z" fill="none" stroke="#A9159C" opacity="0.6" stroke-width="1" class="prospect_park_south"/>
<path d="M 3003.9178 3287.7419 3028.92 3296.9587 3048.3697 3314.4778 3064.1246 3358.7475 3053.0196 3380.889 3030.8053 3415.9484 3002.1059 3447.3203 2989.1501 3486.069 2978.0445 3520.2058 2948.4162 3562.6509 2916.9296 3584.7992 2888.2146 3564.5058 2855.7935 3515.6126 2855.7892 3470.4082 2849.3071 3476.8665 2850.2318 3461.1836 2875.247 3556.204 2854.8693 3536.8318 2839.1241 3529.4525 2837.2647 3436.2774 2918.7337 3286.8372 2928.9177 3281.3015 2962.2487 3272.9942 2967.8068 3285.9056 3003.9178 3287.7419 Z" fill="none" stroke="#A9159C" opacity="0.6" stroke-width="1" class="prospect_park_south"/>
<path d="M 3175.8521 3696.3666 3195.8319 3837.0852 3088.6001 3851.6632 3067.9543 3751.773 3175.8521 3696.3666 Z" fill="none" stroke="#A9159C" opacity="0.6" stroke-width="1" class="prospect_park_south"/>
<path d="M 3143.8131 3782.7749 3147.5177 3780.4664 3151.814 3808.957 3146.617 3844.1432 3098.9067 3850.6214 3094.3789 3818.3226 3084.8834 3819.5948 3084.3038 3817.98 3091.9468 3817.6313 3090.786 3809.6721 3143.8131 3782.7749 Z" fill="none" stroke="#A9159C" opacity="0.6" stroke-width="1" class="prospect_park_south"/>
<path d="M 3210.6136 3748.9482 3080.0182 3815.4436 3061.4694 3750.8522 3192.9822 3681.5954 3210.6136 3748.9482 Z" fill="none" stroke="#A9159C" opacity="0.6" stroke-width="1" class="prospect_park_south"/>
<path d="M 3104.813 3850.9654 3098.096 3850.5063 3095.0808 3838.51 3092.2976 3827.4365 3083.7237 3814.7502 3143.6976 3783.5824 3147.4136 3809.4202 3143.2587 3844.4906 3104.813 3850.9654 Z" fill="none" stroke="#A9159C" opacity="0.6" stroke-width="1" class="prospect_park_south"/></svg>