<?xml version="1.0"?><svg xmlns="http://www.w3.org/2000/svg" version="1.2" baseProfile="tiny" width="6000" height="5918" viewBox="0 0 6000 5918" stroke-linecap="round" stroke-linejoin="round"><path d="M 5619.9709 2787.3695 5239.9117 2899.0715 5158.9698 2733.3402 5270.8124 2685.1174 5506.5556 2610.7244 5619.9709 2787.3695 Z" fill="none" stroke="#865327" opacity="0.6" stroke-width="1" class="queens_village"/>
<path d="M 5141.176 2925.1404 5119.9725 2866.1878 5109.7582 2852.6147 5153.9164 2839.1363 5178.4244 2832.3902 5206.1741 2826.7875 5209.8759 2826.7779 5227.646 2809.4463 5261.8613 2799.4463 5318.6827 2764.9553 5437.1117 2674.9831 5507.0389 2617.8661 5553.4929 2604.1352 5603.9727 2621.9578 5746.2446 2698.9456 5816.9206 2735.5917 5898.5843 2804.9238 5989.7462 2941.9873 5861.0763 2937.8076 5798.7058 3115.0522 5591.5984 3202.3833 5436.3927 3320.8918 5141.176 2925.1404 Z" fill="none" stroke="#865327" opacity="0.6" stroke-width="1" class="queens_village"/>
<path d="M 5582.4307 2569.5669 5703.9796 2562.5229 5724.8963 2545.2543 5419.2394 2705.0218 5749.9948 2566.8541 5472.3079 2955.5242 5315.7566 2908.9377 5225.5692 2722.7232 5367.0163 2338.3379 5582.4307 2569.5669 Z" fill="none" stroke="#865327" opacity="0.6" stroke-width="1" class="queens_village"/>
<path d="M 5417.9956 2704.9944 5548.9649 2558.9871 5682.2847 2588.0776 5682.7972 2753.9911 5679.5108 2888.598 5486.8322 2830.1691 5417.9956 2704.9944 Z" fill="none" stroke="#865327" opacity="0.6" stroke-width="1" class="queens_village"/>
<path d="M 5357.0495 2751.2538 5621.2029 2582.7343 5607.0261 2791.096 5649.5394 2772.53 5679.5279 2894.1297 5690.994 3010.2691 5574.3138 2994.026 5470.781 3042.2766 5357.0495 2751.2538 Z" fill="none" stroke="#865327" opacity="0.6" stroke-width="1" class="queens_village"/>
<path d="M 5687.0101 2888.8099 5390.7718 3058.2861 5324.3038 2691.2696 5689.3995 2686.6425 5687.0101 2888.8099 Z" fill="none" stroke="#865327" opacity="0.6" stroke-width="1" class="queens_village"/>
<path d="M 5518.6429 2630.9667 5621.819 2786.4421 5697.2674 2943.8623 5474.3462 2994.3179 5362.6069 2753.0822 5518.6429 2630.9667 Z" fill="none" stroke="#865327" opacity="0.6" stroke-width="1" class="queens_village"/>
<path d="M 5357.9875 2755.8604 5516.3244 2629.13 5600.3696 2731.6575 5619.9598 2783.6821 5613.2679 2866.2123 5564.6234 3003.7364 5556.7514 3002.3766 5476.0693 3030.2741 5421.1993 2857.0915 5357.9875 2755.8604 Z" fill="none" stroke="#865327" opacity="0.6" stroke-width="1" class="queens_village"/>
<path d="M 5357.0242 2742.0356 5565.9786 2524.3759 5707.8335 2473.2574 5747.4288 2561.1461 5732.5496 2684.2404 5726.1532 2710.0702 5716.6243 2770.0182 5691.7604 2809.5053 5683.0335 2830.5053 5683.5596 2851.0163 5681.0423 2860.0129 5673.7008 2880.3183 5682.0695 2892.9694 5700.8336 2974.5087 5572.1599 2970.059 5523.5624 2969.0496 5466.4619 2988.5776 5423.654 2866.0734 5411.4407 2842.4834 5384.0033 2793.5844 5357.0242 2742.0356 Z" fill="none" stroke="#865327" opacity="0.6" stroke-width="1" class="queens_village"/>
<path d="M 5344.876 2743.4664 5224.4368 2538.7642 5281.32 2529.3982 5394.2113 2536.4636 5578.0063 2623.3222 5692.9103 2678.2768 5825.0307 2936.7375 5778.8614 3136.5456 5631.125 3264.2775 5344.876 2743.4664 Z" fill="none" stroke="#865327" opacity="0.6" stroke-width="1" class="queens_village"/>
<path d="M 5474.4494 3030.2787 5413.8316 2870.0193 5355.2063 2754.0243 5268.952 2681.4352 5374.474 2694.0543 5441.9161 2656.0737 5514.6789 2540.6549 5660.7501 2505.1972 5662.1502 2660.0326 5674.3948 2730.0497 5697.4775 2713.3859 5715.2405 2771.4052 5689.4747 2818.5007 5694.688 3007.4914 5547.506 3006.0922 5474.4494 3030.2787 Z" fill="none" stroke="#865327" opacity="0.6" stroke-width="1" class="queens_village"/>
<path d="M 5360.7612 2754.9309 5357.0697 2758.6284 5398.5403 2696.7528 5494.5113 2605.2292 5526.9542 2625.4122 5590.6678 2581.9045 5746.9895 2568.5207 5717.0827 2768.6339 5421.2097 2860.7792 5360.7612 2754.9309 Z" fill="none" stroke="#865327" opacity="0.6" stroke-width="1" class="queens_village"/>
<path d="M 5531.5859 2627.242 5618.7865 2701.6438 5611.9171 2878.6626 5583.4133 2941.4428 5455.5633 2899.4039 5431.2782 2821.1086 5412.5056 2727.1328 5414.1495 2653.3868 5531.5859 2627.242 Z" fill="none" stroke="#865327" opacity="0.6" stroke-width="1" class="queens_village"/>
<path d="M 5242.8302 2600.3929 5620.7466 2508.3142 5644.9818 2491.8825 5668.2997 2478.218 5702.0551 2474.4273 5704.1854 2490.0873 5715.2003 2536.3633 5707.1158 2539.8446 5706.9175 2550.4439 5712.7819 2576.6926 5711.4035 2579.6922 5697.4055 2615.6813 5668.7105 2611.8528 5667.8157 2621.7638 5658.2028 2655.2055 5659.612 2662.1143 5678.6069 2670.582 5714.7227 2679.6875 5736.0384 2690.2209 5735.1601 2705.2026 5727.3063 2708.9144 5672.3312 2736.0478 5685.4189 2778.8727 5719.3933 2767.7049 5712.9529 2779.709 5698.6719 2800.0345 5686.2527 2824.0421 5684.0045 2845.2529 5698.0327 2892.2285 5706.7213 3007.454 5683.5803 3007.5258 5565.7764 3002.3499 5556.2873 3001.9169 5476.2994 3029.8123 5415.649 2858.029 5350.539 2739.288 5296.7634 2700.7182 5242.8302 2600.3929 Z" fill="none" stroke="#865327" opacity="0.6" stroke-width="1" class="queens_village"/>
<path d="M 5249.3045 2599.4542 5637.6074 2500.66 5625.529 2789.1964 5620.8963 2787.3667 5469.251 2831.1415 5531.6756 2973.8666 5573.3279 2973.7437 5619.9932 2794.7444 5629.2307 2789.1852 5249.3045 2599.4542 Z" fill="none" stroke="#865327" opacity="0.6" stroke-width="1" class="queens_village"/>
<path d="M 5620.261 2577.2072 5694.8091 2897.3093 5710.0356 3179.8876 5343.1964 2761.4318 5623.0171 2570.7473 5620.261 2577.2072 Z" fill="none" stroke="#865327" opacity="0.6" stroke-width="1" class="queens_village"/>
<path d="M 5517.7042 2626.3609 5755.7366 2701.2201 5496.0735 2825.5329 5422.5912 2693.9202 5517.7042 2626.3609 Z" fill="none" stroke="#865327" opacity="0.6" stroke-width="1" class="queens_village"/>
<path d="M 5305.1039 2705.3047 5602.3567 2582.3488 5759.9278 2563.8715 5739.8288 2645.0434 5721.6924 2763.0885 5692.4053 2868.2752 5609.1101 2868.5296 5562.9169 2896.3262 5483.438 2937.1257 5443.5941 2921.5655 5411.8876 2836.8354 5376.5336 2769.6368 5305.1039 2705.3047 Z" fill="none" stroke="#865327" opacity="0.6" stroke-width="1" class="queens_village"/>
<path d="M 5612.7259 2839.939 5431.3771 2856.1409 5278.1831 2673.1149 5500.0228 2591.388 5567.3841 2530.3622 5639.9118 2497.8882 5657.9746 2505.2058 5632.223 2555.5122 5735.687 2688.8394 5731.2307 2706.2519 5715.4629 2768.5238 5685.5372 2817.1301 5671.7394 2882.053 5700.6827 3037.6713 5539.699 3026.862 5521.8276 2929.6384 5432.5372 2857.29 5612.7259 2839.939 Z" fill="none" stroke="#865327" opacity="0.6" stroke-width="1" class="queens_village"/>
<path d="M 5370.8946 2654.4289 5371.3611 2655.8102 5344.0892 2580.0755 5419.332 2563.1621 5448.2943 2621.2608 5370.8946 2654.4289 Z" fill="none" stroke="#865327" opacity="0.6" stroke-width="1" class="queens_village"/>
<path d="M 5589.1644 2676.6497 5758.5926 3052.4168 5599.1114 3043.6874 5589.1644 2676.6497 Z" fill="none" stroke="#865327" opacity="0.6" stroke-width="1" class="queens_village"/>
<path d="M 5526.0208 2622.6498 5743.6869 2694.8057 5618.134 2791.9844 5603.6014 2883.2974 5456.6359 2951.0326 5422.1533 2867.2301 5353.3454 2750.3421 5526.0208 2622.6498 Z" fill="none" stroke="#865327" opacity="0.6" stroke-width="1" class="queens_village"/>
<path d="M 5379.2231 2738.2872 5488.1888 2658.7067 5586.083 2595.7433 5654.5448 2593.6929 5658.4829 2671.1047 5662.4386 2754.0537 5647.9418 2855.5048 5551.8431 2907.4226 5488.9223 2913.138 5464.9319 2939.0227 5414.7028 2850.6563 5379.2231 2738.2872 Z" fill="none" stroke="#865327" opacity="0.6" stroke-width="1" class="queens_village"/>
<path d="M 5415.1045 2572.9573 5731.1797 2461.4253 5817.01 2684.1925 5899.264 2932.8319 5719.6351 2911.2829 5495.4401 2838.2017 5415.1045 2572.9573 Z" fill="none" stroke="#865327" opacity="0.6" stroke-width="1" class="queens_village"/>
<path d="M 5999 2295.4929 5999 2295.6235 5999 2298.4338 5999 2298.6703 5999 2316.0631 5999 2323.2836 5999 2327.8605 5999 2329.5211 5999 2329.8283 5999 2333.3938 5999 2334.317 5999 2334.3186 5999 2344.2758 5999 2347.9137 5999 2356.8891 5999 2371.2577 5999 2385.379 5999 2406.9645 5999 2429.0123 5999 2432.7642 5999 2438.1686 5999 2439.9124 5999 2447.8856 5999 2461.5426 5999 2466.2829 5999 2472.5895 5329.1928 2716.3011 5185.9889 2443.8678 5901.6871 2067.6942 5951.1168 2191.8944 5999 2295.4929 Z" fill="none" stroke="#865327" opacity="0.6" stroke-width="1" class="queens_village"/>
<path d="M 5369.0999 2758.5953 5366.2958 2748.4629 5489.8904 2607.0859 5744.5947 2689.2722 5708.1934 2885.7432 5558.6899 3031.8776 5482.8334 3048.6967 5369.0999 2758.5953 Z" fill="none" stroke="#865327" opacity="0.6" stroke-width="1" class="queens_village"/>
<path d="M 5517.758 2644.795 5429.2115 2744.6003 5434.7768 2749.1937 5459.8596 2783.2306 5450.5582 2766.6638 5445.7873 2715.9774 5465.9922 2662.4574 5493.5275 2584.9552 5572.0593 2546.9375 5666.4284 2546.6522 5745.2496 2603.5496 5712.2169 2692.1391 5679.1752 2779.8139 5599.2116 2962.602 5500.917 2900.1956 5458.7764 2727.9238 5517.758 2644.795 Z" fill="none" stroke="#865327" opacity="0.6" stroke-width="1" class="queens_village"/>
<path d="M 5356.1292 2753.1 5397.6715 2717.0345 5443.8268 2677.2684 5496.4365 2631.0311 5552.8589 2624.4143 5626.9581 2650.0008 5696.4377 2676.5182 5752.0003 2690.1706 5714.1194 2708.7252 5650.4479 2766.9962 5602.4183 2797.5629 5503.4932 2831.0429 5419.3432 2855.2529 5385.8874 2805.5635 5356.1292 2753.1 Z" fill="none" stroke="#865327" opacity="0.6" stroke-width="1" class="queens_village"/>
<path d="M 4999.6011 2647.0847 5457.2809 2527.9176 5889.1042 2736.7385 5868.9533 3081.6261 4891.4319 3098.1638 4934.8947 2674.8877 4999.6011 2647.0847 Z" fill="none" stroke="#865327" opacity="0.6" stroke-width="1" class="queens_village"/>
<path d="M 5606.5851 2644.5319 5700.9468 2936.4748 5541.7977 2953.5522 5606.5851 2644.5319 Z" fill="none" stroke="#865327" opacity="0.6" stroke-width="1" class="queens_village"/>
<path d="M 5403.0537 2656.1831 5508.4221 2616.2492 5729.7982 2692.0841 5621.8218 2787.3639 5625.5179 2785.509 5636.892 2873.9772 5633.1759 2869.3788 5495.1587 2829.2232 5390.1226 2664.5148 5403.0537 2656.1831 Z" fill="none" stroke="#865327" opacity="0.6" stroke-width="1" class="queens_village"/>
<path d="M 5767.3353 2565.6913 5738.1842 2710.4933 5483.1542 2838.4769 5283.5334 2597.5202 5726.3257 2469.9741 5767.3353 2565.6913 Z" fill="none" stroke="#865327" opacity="0.6" stroke-width="1" class="queens_village"/>
<path d="M 5745.5492 2698.4869 5688.6348 2846.1605 5708.2242 3192.8047 5498.738 3106.7459 5363.5348 2754.0015 5510.27 2615.3221 5745.5492 2698.4869 Z" fill="none" stroke="#865327" opacity="0.6" stroke-width="1" class="queens_village"/>
<path d="M 5727.2219 2460.7558 5999 2371.2577 5999 2385.379 5999 2406.9645 5999 2429.0123 5999 2432.7642 5999 2438.1686 5999 2439.9124 5999 2447.8856 5999 2461.5426 5999 2466.2829 5999 2472.5895 5999 2475.2199 5999 2490.5411 5999 2490.589 5999 2491.1505 5999 2492.2872 5999 2494.4513 5999 2496.149 5999 2496.3287 5999 2501.9504 5999 2506.7103 5999 2511.4324 5999 2511.4842 5999 2518.3149 5999 2520.0091 5999 2524.5167 5999 2539.5997 5999 2555.3212 5999 2587.9717 5999 2588.8586 5999 2610.1138 5999 2613.5943 5999 2617.5173 5999 2626.5454 5999 2628.0705 5803.7741 2676.179 5677.1709 2730.0411 5617.1974 2788.2998 5491.7329 2604.3155 5498.0203 2538.86 5727.2219 2460.7558 Z" fill="none" stroke="#865327" opacity="0.6" stroke-width="1" class="queens_village"/>
<path d="M 5326.0693 2588.1891 5732.7899 2466.2676 5809.332 2678.0046 5626.4098 2774.444 5326.0693 2588.1891 Z" fill="none" stroke="#865327" opacity="0.6" stroke-width="1" class="queens_village"/>
<path d="M 5414.7131 2854.3439 5284.6726 2677.7064 5763.6169 2560.1732 5793.5957 2676.2117 5685.0412 2881.2052 5455.839 2996.2149 5414.7131 2854.3439 Z" fill="none" stroke="#865327" opacity="0.6" stroke-width="1" class="queens_village"/>
<path d="M 5290.2565 2689.6744 5604.754 2650.9895 5714.7649 2767.2584 5694.3249 2890.3961 5707.9197 3095.0516 5450.1594 2951.973 5363.5298 2752.1578 5290.2565 2689.6744 Z" fill="none" stroke="#865327" opacity="0.6" stroke-width="1" class="queens_village"/>
<path d="M 5419.8722 2714.207 5522.4812 2621.8628 5688.4509 2733.818 5659.7986 3015.3776 5486.615 2985.4641 5419.8722 2714.207 Z" fill="none" stroke="#865327" opacity="0.6" stroke-width="1" class="queens_village"/>
<path d="M 5411.9392 2855.2736 5220.4615 2537.7792 5418.2063 2450.6161 5632.0649 2503.4416 5801.9265 2677.1067 5411.9392 2855.2736 Z" fill="none" stroke="#865327" opacity="0.6" stroke-width="1" class="queens_village"/>
<path d="M 5357.985 2754.9385 5795.1742 2591.4089 5710.3345 3275.8047 5387.9926 3230.6387 5184.9463 2759.085 5357.985 2754.9385 Z" fill="none" stroke="#865327" opacity="0.6" stroke-width="1" class="queens_village"/>
<path d="M 5621.1778 2574.4395 5593.7029 2668.5357 5619.9514 2780.9166 5411.9315 2852.5079 5355.1912 2748.4934 5607.2913 2571.7164 5621.1778 2574.4395 Z" fill="none" stroke="#865327" opacity="0.6" stroke-width="1" class="queens_village"/>
<path d="M 5807.4843 2678.9323 5614.6394 2860.6765 5699.4153 2890.3803 5515.8631 2629.5922 5766.3896 2559.2428 5807.4843 2678.9323 Z" fill="none" stroke="#865327" opacity="0.6" stroke-width="1" class="queens_village"/>
<path d="M 5361.6891 2755.8502 5247.4589 2601.3024 5635.7711 2505.2735 5598.2631 2646.4004 5611.863 2860.6849 5589.8261 2919.2956 5441.288 2924.338 5361.6891 2755.8502 Z" fill="none" stroke="#865327" opacity="0.6" stroke-width="1" class="queens_village"/>
<path d="M 5346.0404 2722.2533 5360.4022 2758.9935 5410.6369 2852.8858 5246.1863 2609.9751 5434.7214 2563.2901 5586.3677 2527.5196 5639.9903 2545.2437 5623.1258 2781.2609 5425.7072 2778.1438 5411.8854 2799.3854 5417.5209 2828.87 5395.2584 2810.4944 5435.2089 2865.697 5346.0404 2722.2533 Z" fill="none" stroke="#865327" opacity="0.6" stroke-width="1" class="queens_village"/>
<path d="M 5421.6581 2691.1575 5526.0235 2623.5715 5748.8009 2702.6247 5721.2499 2769.5428 5502.0863 2824.5936 5421.6801 2698.9925 5421.6581 2691.1575 Z" fill="none" stroke="#865327" opacity="0.6" stroke-width="1" class="queens_village"/>
<path d="M 5878.0246 2500.6445 5956.4117 2900.1902 5623.6937 3058.0039 5381.244 2676.1055 5556.5495 2334.1938 5878.0246 2500.6445 Z" fill="none" stroke="#865327" opacity="0.6" stroke-width="1" class="queens_village"/>
<path d="M 5366.3085 2753.072 5517.723 2632.8128 5620.4336 2787.3681 5366.3085 2753.072 Z" fill="none" stroke="#865327" opacity="0.6" stroke-width="1" class="queens_village"/>
<path d="M 5477.4544 3029.1175 5363.5247 2750.3142 5293.0127 2682.2929 5504.6382 2587.688 5737.7432 2570.3931 5724.304 2710.5369 5691.5398 2887.6388 5700.0448 3018.5398 5477.4544 3029.1175 Z" fill="none" stroke="#865327" opacity="0.6" stroke-width="1" class="queens_village"/>
<path d="M 5328.2875 2723.6779 5276.3496 2679.5721 5368.9118 2690.3826 5496.3512 2601.5371 5619.0427 2786.4505 5417.4818 2851.5704 5328.2875 2723.6779 Z" fill="none" stroke="#865327" opacity="0.6" stroke-width="1" class="queens_village"/>
<path d="M 5530.6444 2621.7145 5753.8684 2695.6953 5490.526 2827.3928 5418.9028 2698.5394 5530.6444 2621.7145 Z" fill="none" stroke="#865327" opacity="0.6" stroke-width="1" class="queens_village"/>
<path d="M 5419.8742 3044.2652 5316.6661 2874.8964 5529.2687 2783.9519 5830.9044 2767.3495 5897.2652 2965.349 5843.3428 3176.696 5535.4715 3321.529 5419.8872 3048.8757 5382.9137 3068.3435 5419.8742 3044.2652 Z" fill="none" stroke="#865327" opacity="0.6" stroke-width="1" class="queens_village"/>
<path d="M 5614.6985 2573.5374 5754.3853 2566.654 5744.6064 2692.9592 5614.1864 2863.9046 5421.6958 2869.0753 5359.363 2751.2474 5350.5718 2751.2715 5348.7084 2746.6675 5612.8287 2567.0915 5355.2038 2753.1025 5614.6985 2573.5374 Z" fill="none" stroke="#865327" opacity="0.6" stroke-width="1" class="queens_village"/>
<path d="M 5355.1937 2749.4152 5373.6607 2734.6153 5501.4634 2609.5871 5549.6316 2549.7687 5611.6006 2543.363 5620.2575 2576.0552 5745.1048 2630.9705 5734.4683 2705.8961 5651.3673 2765.0344 5355.1937 2749.4152 Z" fill="none" stroke="#865327" opacity="0.6" stroke-width="1" class="queens_village"/>
<path d="M 5359.8307 2753.0898 5370.9405 2754.9029 5293.0374 2691.5105 5397.6047 2693.0684 5493.5621 2596.9368 5601.0279 2642.7052 5744.6151 2695.7245 5734.4335 2694.8348 5733.5401 2704.9772 5676.6234 2852.6511 5700.3306 3036.0587 5484.6529 3037.6262 5359.8307 2753.0898 Z" fill="none" stroke="#865327" opacity="0.6" stroke-width="1" class="queens_village"/>
<path d="M 5358.9028 2752.1705 5495.4179 2598.7748 5627.783 2540.5492 5619.5629 2575.8268 5651.9792 2586.7883 5645.3767 2621.3716 5734.1877 2690.2267 5732.3863 2705.9026 5656.2987 2788.8723 5662.5911 2879.2 5506.2883 2917.2367 5470.0157 2855.8006 5452.2557 2794.0841 5435.2219 2742.9701 5407.4193 2728.2993 5358.9028 2752.1705 Z" fill="none" stroke="#865327" opacity="0.6" stroke-width="1" class="queens_village"/>
<path d="M 5518.6429 2630.9667 5610.9389 2861.1486 5412.2389 2962.2223 5306.2524 2788.2656 5297.0006 2789.2123 5518.6429 2630.9667 Z" fill="none" stroke="#865327" opacity="0.6" stroke-width="1" class="queens_village"/>
<path d="M 5710.6102 2473.7095 4856.6828 3291.9145 4780.3308 3091.9521 4631.687 2824.8707 5710.6102 2473.7095 Z" fill="none" stroke="#865327" opacity="0.6" stroke-width="1" class="queens_village"/>
<path d="M 5359.3706 2754.0129 5524.1649 2620.8118 5758.9621 2697.0618 5413.7993 2858.4952 5359.3706 2754.0129 Z" fill="none" stroke="#865327" opacity="0.6" stroke-width="1" class="queens_village"/>
<path d="M 5708.249 2717.9614 5687.3464 2728.8575 5673.0298 2737.5436 5682.0298 2767.7058 5685.3043 2779.2188 5718.8178 2768.6285 5716.8668 2773.5896 5708.5823 2787.7889 5693.27 2811.3443 5688.3371 2824.7271 5685.7163 2837.6418 5685.5166 2847.8988 5686.0004 2854.6965 5689.0596 2871.2819 5697.2315 2894.9969 5701.5572 2909.5046 5703.8087 2926.6696 5707.1855 3007.9136 5568.6731 3003.7244 5565.0838 3002.9282 5557.7921 3002.143 5551.6632 3003.3137 5476.5308 3029.8117 5418.4254 2858.0212 5349.1446 2736.9873 5297.69 2701.1766 5243.9922 2602.4636 5251.6188 2599.909 5404.6531 2566.3138 5497.5737 2544.391 5605.2662 2513.6601 5634.8306 2500.2076 5659.0598 2481.9326 5669.5717 2478.214 5704.5991 2474.4194 5679.0428 2586.9356 5668.1634 2621.9931 5662.9011 2640.9044 5661.1821 2646.0943 5658.3217 2656.2421 5660.3081 2662.8034 5668.7628 2666.4645 5684.7446 2672.9827 5687.9856 2673.7792 5695.8579 2676.0591 5714.6063 2679.4574 5725.2634 2684.4937 5736.7345 2690.9101 5734.5843 2706.0109 5732.5041 2706.5936 5718.9886 2712.2819 5708.249 2717.9614 Z" fill="none" stroke="#865327" opacity="0.6" stroke-width="1" class="queens_village"/>
<path d="M 5414.4786 2851.5788 5355.862 2738.3516 5560.0159 2524.4092 5733.9375 2473.1914 5802.7664 2684.2034 5611.4054 2862.7136 5414.4786 2851.5788 Z" fill="none" stroke="#865327" opacity="0.6" stroke-width="1" class="queens_village"/>
<path d="M 5999 2506.7103 5999 2511.4324 5999 2511.4842 5999 2518.3149 5999 2520.0091 5999 2524.5167 5999 2539.5997 5999 2555.3212 5999 2587.9717 5999 2588.8586 5999 2610.1138 5999 2613.5943 5999 2617.5173 5999 2626.5454 5999 2628.0705 5999 2628.3143 5999 2628.7702 5999 2629.4242 5999 2633.76 5999 2633.7959 5999 2633.8528 5999 2634.2103 5999 2634.3295 5999 2637.391 5999 2637.4884 5999 2638.2622 5999 2639.7131 5999 2646.6027 5999 2647.5003 5999 2648.0545 5999 2666.0367 5999 2677.5779 5999 2681.03 5999 2705.5252 5999 2709.0124 5999 2719.4596 5999 2726.0339 5999 2756.2217 5999 2791.8164 5969.9807 2845.2479 5649.8491 2873.9378 5519.0245 2761.8574 5602.7151 2588.3201 5604.1333 2444.5462 5803.8512 2412.5931 5888.8039 2366.2419 5926.2485 2498.8163 5941.1375 2524.571 5999 2506.7103 Z" fill="none" stroke="#865327" opacity="0.6" stroke-width="1" class="queens_village"/>
<path d="M 5438.9219 2905.905 5344.0186 2723.6351 5746.9167 2545.4799 5843.076 2526.739 5812.0841 2670.6217 5438.9219 2905.905 Z" fill="none" stroke="#865327" opacity="0.6" stroke-width="1" class="queens_village"/>
<path d="M 5433.7577 2716.0114 5516.838 2646.6411 5612.9093 2593.8194 5683.7653 2767.8156 5459.4389 2960.2448 5373.7447 2765.0353 5443.9523 2721.5134 5433.7577 2716.0114 Z" fill="none" stroke="#865327" opacity="0.6" stroke-width="1" class="queens_village"/>
<path d="M 5485.8055 3116.466 5474.8196 2998.0048 5494.423 3055.1182 5485.8055 3116.466 Z" fill="none" stroke="#865327" opacity="0.6" stroke-width="1" class="queens_village"/>
<path d="M 5708.9371 2526.0589 5881.1926 2502.1593 5769.2664 2586.6971 5708.9371 2526.0589 Z" fill="none" stroke="#865327" opacity="0.6" stroke-width="1" class="queens_village"/>
<path d="M 5364.4907 2765.0608 5357.9547 2743.8767 5512.1392 2621.7685 5538.1331 2651.1875 5569.686 2682.4337 5600.3378 2721.0569 5615.3243 2780.9305 5548.7948 2815.2382 5420.2583 2851.5626 5403.5326 2827.6397 5386.7822 2794.4986 5364.4907 2765.0608 Z" fill="none" stroke="#865327" opacity="0.6" stroke-width="1" class="queens_village"/>
<path d="M 5408.7628 2712.3946 5556.2821 2530.395 5725.4034 2470.8986 5771.9672 2567.5198 5756.6503 2697.53 5631.9818 2780.8801 5481.3085 2840.326 5408.7628 2712.3946 Z" fill="none" stroke="#865327" opacity="0.6" stroke-width="1" class="queens_village"/>
<path d="M 5352.3998 2742.9701 5583.4462 2642.297 5617.8258 2843.1503 5430.1371 2908.6957 5352.3998 2742.9701 Z" fill="none" stroke="#865327" opacity="0.6" stroke-width="1" class="queens_village"/>
<path d="M 5314.9653 2587.7583 5497.5764 2545.3127 5493.5688 2599.241 5600.8461 2736.2651 5601.7771 2738.106 5611.8866 2868.5213 5496.9989 2825.5303 5314.9653 2587.7583 Z" fill="none" stroke="#865327" opacity="0.6" stroke-width="1" class="queens_village"/>
<path d="M 5464.0599 2633.8894 5767.4495 2601.6359 5755.9555 2770.3554 5529.5735 2888.1267 5340.488 2786.3291 5277.3681 2714.5968 5420.7483 2696.6907 5381.7592 2651.6337 5468.7443 2654.1539 5464.0599 2633.8894 Z" fill="none" stroke="#865327" opacity="0.6" stroke-width="1" class="queens_village"/>
<path d="M 4637.2471 2828.5472 4689.0393 2811.8492 4881.5611 2824.3439 5020.2611 2774.242 5136.8165 2755.5197 5240.2719 2683.3544 5375.3586 2679.3037 5473.2413 2608.9772 5528.589 2551.6738 5606.0611 2470.3436 5730.084 2488.3936 5700.0155 2934.6337 5709.7654 3093.2015 5515.5623 3162.0289 5321.1513 3164.4192 5128.6095 3174.1427 5416.113 2858.4887 4637.2471 2828.5472 Z" fill="none" stroke="#865327" opacity="0.6" stroke-width="1" class="queens_village"/>
<path d="M 5441.5471 2852.4244 5226.0919 2568.1784 5754.3299 2549.143 5744.8245 2762.094 5441.5471 2852.4244 Z" fill="none" stroke="#865327" opacity="0.6" stroke-width="1" class="queens_village"/>
<path d="M 5804.6639 2665.1151 5769.171 2561.0772 5829.8534 2728.6363 5623.6949 2794.7332 5612.7954 2862.9869 5488.6858 2831.0857 5402.1953 2680.1509 5586.0362 2580.075 5733.094 2563.0346 5754.3649 2560.2025 5804.6639 2665.1151 Z" fill="none" stroke="#865327" opacity="0.6" stroke-width="1" class="queens_village"/>
<path d="M 5429.5443 2862.5996 5362.6145 2755.8476 5419.8463 2704.9892 5500.1589 2638.3941 5605.4492 2574.4869 5746.0614 2567.602 5727.9591 2695.7769 5681.3476 2883.9825 5708.161 3172.5155 5498.7433 3108.5902 5429.5443 2862.5996 Z" fill="none" stroke="#865327" opacity="0.6" stroke-width="1" class="queens_village"/>
<path d="M 5357.98 2753.0949 5524.6249 2619.8887 5784.092 2742.6108 5420.756 2864.0072 5357.98 2753.0949 Z" fill="none" stroke="#865327" opacity="0.6" stroke-width="1" class="queens_village"/>
<path d="M 5439.7587 2874.5559 5258.5934 2613.255 5717.0659 2467.2385 5704.1107 3060.9441 5501.3603 3053.2539 5386.7719 2790.8111 5439.7587 2874.5559 Z" fill="none" stroke="#865327" opacity="0.6" stroke-width="1" class="queens_village"/>
<path d="M 5421.8966 2775.9633 5540.8846 2642.8839 5661.0795 2914.4699 5421.8966 2775.9633 Z" fill="none" stroke="#865327" opacity="0.6" stroke-width="1" class="queens_village"/>
<path d="M 5045.8521 2641.4439 5591.3255 2492.5054 5899.7361 2873.1416 5045.8521 2641.4439 Z" fill="none" stroke="#865327" opacity="0.6" stroke-width="1" class="queens_village"/>
<path d="M 5304.794 2590.0899 5746.9982 2571.2856 5688.766 2888.5694 5506.2669 2830.1129 5304.794 2590.0899 Z" fill="none" stroke="#865327" opacity="0.6" stroke-width="1" class="queens_village"/>
<path d="M 5502.6622 2544.3763 5732.7891 2468.4002 5907.6204 2941.2775 5900.1659 2926.2423 5698.4058 2894.9288 5503.0406 2833.2568 5400.5086 2571.7631 5502.6622 2544.3763 Z" fill="none" stroke="#865327" opacity="0.6" stroke-width="1" class="queens_village"/></svg>