<?xml version="1.0"?><svg xmlns="http://www.w3.org/2000/svg" version="1.2" baseProfile="tiny" width="6000" height="5918" viewBox="0 0 6000 5918" stroke-linecap="round" stroke-linejoin="round"><path d="M 4412.1827 2727.5632 4339.1019 2741.5148 4327.104 2760.893 4236.4654 2793.3031 4198.4542 2748.1914 4159.4792 2674.5071 4146.4426 2618.3014 4161.1909 2580.4911 4361.8717 2525.797 4440.8526 2718.2948 4412.1827 2727.5632 Z" fill="none" stroke="#865327" opacity="0.6" stroke-width="1" class="rego_park"/>
<path d="M 4253.8204 2648.5546 4277.869 2642.9861 4414.9717 2734.9327 4237.4095 2805.286 4198.4291 2731.5989 4253.8204 2648.5546 Z" fill="none" stroke="#865327" opacity="0.6" stroke-width="1" class="rego_park"/>
<path d="M 4283.7615 2854.9951 3752.3321 2665.803 4304.2651 2374.7617 4450.1571 2746.8542 4283.7615 2854.9951 Z" fill="none" stroke="#865327" opacity="0.6" stroke-width="1" class="rego_park"/>
<path d="M 4313.8673 2589.4697 4189.8922 2593.3515 4249.6313 2632.4312 4221.7186 2682.2481 4159.4493 2654.229 4154.7961 2636.0319 4154.5197 2605.386 4185.2615 2590.3631 4313.8673 2589.4697 Z" fill="none" stroke="#865327" opacity="0.6" stroke-width="1" class="rego_park"/>
<path d="M 4324.3278 2760.8976 4280.526 2857.3051 4276.3473 2848.5535 4215.1409 2767.5243 4174.8164 2721.0337 4155.7637 2664.8343 4150.6198 2627.5123 4152.4446 2609.9974 4162.5787 2580.489 4163.7349 2580.2569 4191.278 2591.9669 4280.2749 2556.5752 4319.8002 2540.1522 4353.7928 2535.4875 4409.9499 2508.2042 4416.4239 2507.0409 4424.0924 2527.533 4431.7795 2558.3937 4310.6539 2604.6825 4334.3449 2663.1719 4343.1449 2668.9181 4336.6834 2678.3768 4318.6943 2711.5902 4348.3542 2740.5776 4329.4023 2751.6709 4324.3278 2760.8976 Z" fill="none" stroke="#865327" opacity="0.6" stroke-width="1" class="rego_park"/>
<path d="M 4152.9181 2617.3702 4333.515 2532.8727 4346.5554 2585.3842 4358.6689 2636.0565 4344.8606 2678.4793 4343.1378 2754.9906 4282.8182 2843.9336 4152.9181 2617.3702 Z" fill="none" stroke="#865327" opacity="0.6" stroke-width="1" class="rego_park"/>
<path d="M 4264.278 2824.6032 4157.5851 2645.0145 4353.6289 2575.5788 4264.278 2824.6032 Z" fill="none" stroke="#865327" opacity="0.6" stroke-width="1" class="rego_park"/>
<path d="M 4176.9376 2592.4493 4186.0873 2524.2346 4284.9924 2469.7077 4453.3133 2441.7758 4482.0914 2497.0168 4428.4496 2506.3286 4493.4899 2659.2072 4399.1797 2699.9322 4354.8892 2774.6742 4199.3656 2738.9719 4079.1707 2813.8162 3957.0067 2810.2907 3889.2989 2684.0848 4081.55 2528.9941 4176.9376 2592.4493 Z" fill="none" stroke="#865327" opacity="0.6" stroke-width="1" class="rego_park"/>
<path d="M 4242.0179 2793.2945 4154.7618 2612.7591 4364.6488 2526.7139 4409.2493 2637.2363 4242.0179 2793.2945 Z" fill="none" stroke="#865327" opacity="0.6" stroke-width="1" class="rego_park"/>
<path d="M 4153.3675 2608.3831 4226.8958 2577.5025 4247.0923 2624.0157 4259.8078 2631.4935 4268.8178 2624.336 4310.4237 2605.3742 4383.3907 2578.0416 4401.3641 2625.4982 4369.6176 2634.9029 4358.9835 2638.8382 4330.8586 2653.2691 4319.0691 2658.1277 4361.681 2686.6307 4385.7813 2711.0166 4403.8584 2729.8821 4358.5271 2736.8732 4329.8581 2747.522 4319.7282 2777.4983 4305.4077 2806.3566 4278.2071 2854.0821 4227.6638 2786.8638 4213.2922 2768.9099 4195.7028 2736.8382 4174.9708 2707.4738 4159.9667 2671.2587 4151.6752 2640.8481 4150.1297 2617.2826 4153.3675 2608.3831 Z" fill="none" stroke="#865327" opacity="0.6" stroke-width="1" class="rego_park"/>
<path d="M 4432.5033 2706.3264 4276.3546 2853.1631 4127.6995 2453.36 4292.2726 2395.0535 4300.5965 2394.1185 4432.5033 2706.3264 Z" fill="none" stroke="#865327" opacity="0.6" stroke-width="1" class="rego_park"/>
<path d="M 4303.9507 2749.6386 4282.7138 2778.9412 4294.4587 2888.3981 4278.0285 2887.0416 4277.7455 2854.7742 4192.1898 2736.2173 4148.5555 2639.4975 4152.2042 2603.7764 4192.6602 2588.2782 4194.7483 2592.4225 4256.925 2563.7551 4265.526 2590.6998 4323.0835 2567.5652 4339.0883 2594.4972 4261.654 2628.7254 4246.3881 2629.4408 4195.1994 2737.5955 4225.638 2673.7159 4318.0147 2720.3483 4303.9507 2749.6386 Z" fill="none" stroke="#865327" opacity="0.6" stroke-width="1" class="rego_park"/>
<path d="M 4514.8196 2684.9768 4442.6739 2701.6995 4389.0486 2727.6032 4337.2588 2746.127 4300.3574 2816.2483 4263.4329 2875.31 4229.9573 2773.9544 4177.0657 2678.168 4157.5145 2597.0865 4255.5314 2560.0707 4436.7727 2504.4708 4514.8196 2684.9768 Z" fill="none" stroke="#865327" opacity="0.6" stroke-width="1" class="rego_park"/>
<path d="M 4179.7126 2597.5862 4279.0765 2849.1484 4137.1321 2611.5406 4422.8387 2499.5648 4514.5712 2685.2547 4285.8187 2850.2946 4179.7126 2597.5862 Z" fill="none" stroke="#865327" opacity="0.6" stroke-width="1" class="rego_park"/>
<path d="M 4198.2403 2607.164 4326.7428 2542.4447 4351.0251 2677.892 4279.0912 2828.2672 4131.8292 2750.1338 4198.2403 2607.164 Z" fill="none" stroke="#865327" opacity="0.6" stroke-width="1" class="rego_park"/>
<path d="M 4170.5089 2624.7178 4404.7874 2731.9546 4318.0791 2759.5251 4239.0053 2790.0727 4158.0658 2657.2266 4170.5089 2624.7178 Z" fill="none" stroke="#865327" opacity="0.6" stroke-width="1" class="rego_park"/>
<path d="M 4182.4959 2597.0493 4226.9311 2612.4197 4237.555 2601.8039 4299.9691 2577.2804 4333.1879 2662.9434 4345.4574 2668.4534 4322.8596 2712.2747 4153.4065 2634.8818 4182.4959 2597.0493 Z" fill="none" stroke="#865327" opacity="0.6" stroke-width="1" class="rego_park"/>
<path d="M 4151.0568 2609.9995 4420.1201 2504.5001 4510.2049 2691.4377 4324.3141 2752.6012 4280.0566 2853.1572 4161.3503 2688.3307 4151.0568 2609.9995 Z" fill="none" stroke="#865327" opacity="0.6" stroke-width="1" class="rego_park"/>
<path d="M 4407.5575 2728.493 4357.5955 2733.1876 4328.0126 2750.7514 4278.2056 2853.1601 4217.927 2773.9729 4193.8092 2736.2149 4154.8364 2663.4531 4148.2959 2620.1421 4153.8352 2611.8388 4184.3311 2586.9082 4407.5575 2728.493 Z" fill="none" stroke="#865327" opacity="0.6" stroke-width="1" class="rego_park"/>
<path d="M 4266.6568 2865.6246 4246.2965 2866.1177 4231.0258 2866.1415 4219.9226 2868.0025 4198.6319 2865.2693 4184.7494 2865.2902 4151.4274 2862.5739 4146.8006 2863.0416 4126.9017 2862.6096 4172.31 2591.5345 4401.0799 2728.5042 4266.6568 2865.6246 Z" fill="none" stroke="#865327" opacity="0.6" stroke-width="1" class="rego_park"/>
<path d="M 4277.3347 2887.2732 4147.3922 2634.8906 4158.4152 2580.4952 4183.4073 2587.8313 4282.4984 2644.8221 4300.4772 2890.0017 4277.3347 2887.2732 Z" fill="none" stroke="#865327" opacity="0.6" stroke-width="1" class="rego_park"/>
<path d="M 4155.3782 2610.9738 4196.0585 2590.6362 4227.4963 2577.6848 4365.2663 2525.8502 4439.6113 2712.8253 4419.2778 2726.688 4319.4037 2766.4957 4298.9602 2810.7193 4284.3357 2855.2444 4222.6691 2776.5205 4162.8283 2670.6664 4149.8186 2632.8948 4155.3782 2610.9738 Z" fill="none" stroke="#865327" opacity="0.6" stroke-width="1" class="rego_park"/>
<path d="M 4421.0533 2509.1064 4508.3457 2686.8323 4236.4697 2796.0687 4174.331 2705.825 4146.4238 2605.3978 4421.0533 2509.1064 Z" fill="none" stroke="#865327" opacity="0.6" stroke-width="1" class="rego_park"/>
<path d="M 4153.8261 2605.6174 4292.9878 2551.2554 4305.7787 2593.8608 4249.8517 2625.5181 4354.0335 2678.5782 4334.2046 2718.0171 4229.3317 2668.871 4195.6565 2733.9076 4155.2936 2659.7655 4147.349 2605.3965 4153.8261 2605.6174 Z" fill="none" stroke="#865327" opacity="0.6" stroke-width="1" class="rego_park"/>
<path d="M 4248.2383 2629.2074 4223.3286 2676.2542 4268.7306 2714.8973 4285.4864 2776.6322 4236.4682 2795.1469 4185.4808 2736.2274 4152.0104 2629.3536 4188.9684 2594.2746 4248.2383 2629.2074 Z" fill="none" stroke="#865327" opacity="0.6" stroke-width="1" class="rego_park"/>
<path d="M 4166.8284 2638.5488 4585.1974 2712.497 4586.2827 2795.4591 4550.487 2952.2575 4386.7645 3014.3298 4259.9438 3009.9285 4248.7536 2957.3895 4152.4557 2932.6416 4059.8676 2909.7233 4094.9435 2842.3729 4138.4382 2840.4668 4166.1273 2789.7226 4154.8757 2690.1838 4166.8284 2638.5488 Z" fill="none" stroke="#865327" opacity="0.6" stroke-width="1" class="rego_park"/>
<path d="M 4342.0441 2539.0497 4415.845 2728.5772 4365.9623 2733.8855 4329.2108 2753.3052 4280.483 2856.5883 4270.316 2868.5357 4097.4219 2633.984 4342.0441 2539.0497 Z" fill="none" stroke="#865327" opacity="0.6" stroke-width="1" class="rego_park"/>
<path d="M 4308.2437 2545.24 4335.5267 2539.2045 4348.5186 2562.6843 4353.6437 2584.3345 4380.0961 2633.1389 4388.9273 2657.0884 4394.9839 2681.5042 4406.115 2697.1548 4413.0831 2713.2738 4410.3239 2722.9574 4402.4679 2728.5018 4391.3659 2729.9037 4369.6175 2728.5582 4352.5052 2732.7352 4338.6362 2739.672 4328.47 2747.5243 4319.2321 2757.2187 4311.8463 2767.8319 4298.9026 2775.2277 4285.9521 2778.4751 4285.9632 2785.389 4291.0776 2800.5914 4288.3288 2817.6506 4288.3525 2832.4009 4281.4278 2842.5529 4279.1289 2851.7758 4222.0892 2772.5838 4200.3015 2745.8841 4182.2102 2715.031 4162.2661 2681.877 4162.6974 2660.6763 4149.6723 2612.3057 4209.7727 2585.4872 4264.7885 2563.2818 4308.2437 2545.24 Z" fill="none" stroke="#865327" opacity="0.6" stroke-width="1" class="rego_park"/>
<path d="M 4157.5797 2641.3276 4151.9861 2612.7632 4171.4232 2617.3429 4214.8664 2588.7052 4245.3686 2569.3031 4296.2312 2554.4758 4342.5402 2583.8923 4396.3623 2675.9713 4363.1134 2712.8988 4305.8259 2764.6153 4229.9774 2786.8602 4207.7292 2762.0047 4195.6711 2743.5866 4214.1547 2727.8877 4195.625 2713.1673 4165.9783 2689.2456 4160.3869 2662.5232 4157.5797 2641.3276 Z" fill="none" stroke="#865327" opacity="0.6" stroke-width="1" class="rego_park"/>
<path d="M 4363.1462 2732.2564 4342.805 2742.4305 4323.3933 2755.3682 4307.6903 2772.9088 4279.9398 2780.3285 4235.5428 2795.1483 4229.9831 2790.5476 4220.7047 2774.8905 4207.7137 2751.8646 4191.9543 2733.4523 4178.9646 2710.427 4168.7598 2692.9285 4163.1887 2680.0322 4154.8228 2654.2358 4151.0865 2630.2767 4150.1248 2605.3924 4189.8894 2591.5082 4390.5218 2508.2378 4421.9704 2504.4968 4434.0543 2536.7315 4450.7831 2579.097 4472.1431 2623.2991 4509.254 2677.6131 4489.8426 2688.7098 4451.9371 2707.2136 4414.0221 2721.1074 4395.5341 2732.201 4363.1462 2732.2564 Z" fill="none" stroke="#865327" opacity="0.6" stroke-width="1" class="rego_park"/>
<path d="M 4310.465 2771.9824 4260.5075 2781.2813 4142.7336 2612.7767 4148.2891 2615.5336 4188.0459 2596.1193 4367.6948 2686.1596 4390.8723 2711.9296 4447.381 2746.8591 4527.9908 2801.1009 4583.604 2846.1682 4442.7508 2745.0237 4396.6441 2839.1343 4321.5972 2788.5574 4310.465 2771.9824 Z" fill="none" stroke="#865327" opacity="0.6" stroke-width="1" class="rego_park"/>
<path d="M 4145.5107 2613.6943 4364.655 2530.4003 4431.5991 2718.3112 4442.7721 2757.0073 4576.2089 2850.792 4302.4408 2959.1477 4288.3741 2845.7685 4197.5037 2731.6003 4145.5107 2613.6943 Z" fill="none" stroke="#865327" opacity="0.6" stroke-width="1" class="rego_park"/>
<path d="M 4196.5874 2737.5934 4249.1578 2625.5192 4228.2544 2570.7123 4368.3526 2528.5508 4440.8559 2720.1384 4235.5414 2794.2264 4196.5874 2737.5934 Z" fill="none" stroke="#865327" opacity="0.6" stroke-width="1" class="rego_park"/>
<path d="M 4148.2837 2611.8469 4319.3383 2540.6137 4362.1242 2675.108 4338.0614 2672.3832 4322.4056 2717.5757 4302.9552 2706.5462 4284.4913 2733.308 4282.8301 2851.3089 4191.0317 2735.2973 4148.2837 2611.8469 Z" fill="none" stroke="#865327" opacity="0.6" stroke-width="1" class="rego_park"/>
<path d="M 4153.8325 2609.9954 4192.2143 2599.3389 4189.2073 2599.3434 4334.5942 2534.8284 4427.5046 2495.0409 4429.6207 2514.6209 4458.4649 2606.2725 4498.8184 2663.5757 4382.3105 2710.5616 4374.6881 2717.4881 4362.9187 2734.5613 4334.4873 2748.897 4313.4756 2773.8212 4235.5421 2794.6874 4148.7794 2634.4277 4153.8325 2609.9954 Z" fill="none" stroke="#865327" opacity="0.6" stroke-width="1" class="rego_park"/>
<path d="M 4359.1087 2533.1745 4388.8093 2588.4222 4269.5224 2631.0172 4228.7791 2610.8039 4299.0457 2578.434 4286.0496 2551.7274 4359.1087 2533.1745 Z" fill="none" stroke="#865327" opacity="0.6" stroke-width="1" class="rego_park"/>
<path d="M 4293.2881 2648.7865 4401.5735 2735.1284 4286.0905 2852.398 4256.556 2825.8324 4199.0501 2742.0328 4293.2881 2648.7865 Z" fill="none" stroke="#865327" opacity="0.6" stroke-width="1" class="rego_park"/>
<path d="M 4302.8786 2659.5368 4326.0278 2669.6379 4349.1744 2677.8951 4360.2876 2683.4069 4387.1599 2705.4835 4388.1074 2718.3869 4387.1947 2725.7628 4363.1508 2735.0218 4338.1835 2745.6645 4315.1351 2798.2476 4296.2115 2827.7787 4283.2928 2851.3081 4280.988 2856.8434 4243.4191 2801.5891 4188.7044 2726.0828 4158.5315 2659.2998 4147.3686 2618.7609 4168.594 2581.4018 4193.6085 2603.4843 4228.8034 2626.4726 4254.7123 2627.3538 4278.8046 2649.4366 4302.8786 2659.5368 Z" fill="none" stroke="#865327" opacity="0.6" stroke-width="1" class="rego_park"/>
<path d="M 4425.6612 2498.9609 4581.6732 2804.6867 4311.6258 2915.7987 4052.1254 2661.7551 3926.2393 2625.0496 3911.3903 2588.2006 4425.6612 2498.9609 Z" fill="none" stroke="#865327" opacity="0.6" stroke-width="1" class="rego_park"/>
<path d="M 4338.9591 2655.7904 4346.6114 2805.1095 4207.8179 2820.0817 4153.8705 2635.8028 4338.9591 2655.7904 Z" fill="none" stroke="#865327" opacity="0.6" stroke-width="1" class="rego_park"/>
<path d="M 4247.3145 2630.1306 4364.6566 2531.3219 4431.5779 2706.328 4309.6752 2854.9531 4195.6516 2730.6813 4247.3145 2630.1306 Z" fill="none" stroke="#865327" opacity="0.6" stroke-width="1" class="rego_park"/>
<path d="M 4316.5643 2541.5399 4337.0073 2594.9615 4369.5141 2667.7216 4365.8395 2683.3975 4339.0835 2730.4532 4320.6445 2771.9657 4292.9761 2830.0886 4280.9836 2854.0776 4235.5356 2790.539 4193.8134 2738.9803 4170.6173 2697.5346 4157.6014 2656.0752 4151.9861 2612.7632 4151.05 2605.3911 4188.9628 2590.5879 4278.6555 2556.3474 4316.5643 2541.5399 Z" fill="none" stroke="#865327" opacity="0.6" stroke-width="1" class="rego_park"/>
<path d="M 4190.8105 2588.7418 4290.68 2554.4848 4316.6688 2605.1335 4264.8887 2626.416 4344.5355 2670.5289 4328.8678 2708.3472 4250.3337 2784.9847 4195.6585 2735.2903 4157.5783 2640.4059 4154.7456 2601.6989 4190.8105 2588.7418 Z" fill="none" stroke="#865327" opacity="0.6" stroke-width="1" class="rego_park"/>
<path d="M 4422.9036 2509.1031 4469.344 2610.4005 4399.0697 2636.3322 4370.4128 2652.0506 4300.1267 2674.2891 4262.1655 2659.6022 4238.5431 2642.1265 4176.0137 2593.3723 4138.9789 2575.9154 4039.9037 2518.9137 3889.9817 2480.3979 3902.849 2410.3466 4027.7004 2387.151 4159.0154 2360.2441 4342.1216 2333.2346 4364.3616 2357.1543 4384.7749 2393.9779 4422.9036 2509.1031 Z" fill="none" stroke="#865327" opacity="0.6" stroke-width="1" class="rego_park"/>
<path d="M 4163.7424 2585.326 4169.5268 2586.4695 4180.6361 2590.8308 4197.3087 2603.0179 4207.9613 2611.0664 4215.8316 2614.7411 4332.968 2669.8568 4360.522 2685.25 4370.9487 2695.1413 4382.7767 2712.6349 4408.0233 2730.3358 4393.2214 2732.6659 4366.8496 2733.4024 4358.5224 2734.1078 4329.3992 2749.8273 4324.7879 2759.2836 4313.4707 2770.8252 4306.9973 2773.6013 4290.5754 2776.163 4268.602 2779.4247 4254.7288 2784.5169 4238.3184 2794.683 4196.8163 2735.9799 4226.5655 2675.0971 4152.7193 2639.4914 4150.374 2617.6044 4153.8237 2604.0045 4163.7424 2585.326 Z" fill="none" stroke="#865327" opacity="0.6" stroke-width="1" class="rego_park"/>
<path d="M 4365.5849 2533.1636 4438.0831 2721.9869 4133.7534 2800.8324 4039.1625 2655.3206 4365.5849 2533.1636 Z" fill="none" stroke="#865327" opacity="0.6" stroke-width="1" class="rego_park"/>
<path d="M 4278.7041 2852.9326 4162.2071 2685.2074 4153.8128 2640.7194 4190.528 2593.5054 4296.5521 2546.9788 4308.7682 2567.8837 4346.887 2678.4243 4298.9142 2766.9957 4281.518 2883.1823 4254.6765 2882.303 4278.7041 2852.9326 Z" fill="none" stroke="#865327" opacity="0.6" stroke-width="1" class="rego_park"/>
<path d="M 4148.277 2607.2385 4165.8047 2572.1894 4217.5854 2551.8352 4246.3777 2622.7585 4340.8374 2672.3785 4303.9466 2747.1036 4304.0532 2812.5548 4278.2632 2889.1156 4204.9347 2750.0252 4149.2522 2641.3399 4148.277 2607.2385 Z" fill="none" stroke="#865327" opacity="0.6" stroke-width="1" class="rego_park"/>
<path d="M 4161.6535 2580.4904 4357.9688 2680.1847 4406.1726 2730.339 4359.4462 2733.1844 4322.9458 2764.5872 4235.0815 2796.0709 4189.6415 2733.9167 4145.0575 2620.1468 4161.6535 2580.4904 Z" fill="none" stroke="#865327" opacity="0.6" stroke-width="1" class="rego_park"/>
<path d="M 4244.5201 2742.359 4213.7033 2596.4766 4220.5133 2590.6504 4211.8213 2636.2597 4220.606 2650.8001 4217.6986 2661.4782 4223.5659 2674.0878 4231.3932 2697.3593 4224.4086 2590.6444 4232.2037 2587.7199 4251.6584 2574.1135 4307.1443 2557.5271 4357.7558 2542.8907 4349.0123 2553.5778 4425.2476 2705.7676 4415.4851 2695.1106 4231.1425 2595.3898 4244.0839 2652.8098 4270.4764 2678.0422 4287.0505 2684.8089 4299.7105 2685.7563 4306.5349 2688.6579 4317.4033 2691.6912 4321.2942 2688.7812 4338.8484 2700.3941 4350.5262 2700.3745 4361.2498 2705.205 4372.0679 2711.1045 4369.1712 2721.7745 4366.2569 2727.6052 4354.5842 2736.3452 4339.0134 2738.3163 4322.4635 2747.064 4316.6183 2749.0187 4307.8535 2753.8818 4296.1737 2758.7588 4280.5885 2757.816 4272.7844 2750.0576 4253.2912 2741.3589 4247.4276 2731.6707 4230.8214 2704.5315 4225.936 2692.8971 4220.058 2673.5032 4213.2087 2654.1112 4204.4137 2632.7685 4196.6068 2622.1163 4182.9583 2615.344 4171.2758 2611.4812 4159.5921 2619.2591 4165.4541 2628.9559 4169.4072 2667.7545 4177.2157 2679.3937 4192.8054 2684.2187 4272.8618 2798.5926 4281.6022 2778.1871 4276.7205 2769.465 4270.8534 2757.8317 4265.9658 2751.0548 4260.1158 2750.0962 4254.2705 2746.2246 4244.5201 2742.359 Z" fill="none" stroke="#865327" opacity="0.6" stroke-width="1" class="rego_park"/>
<path d="M 4127.8444 2553.8122 4233.2277 2496.5149 4324.8925 2542.4478 4314.0668 2711.1369 4154.892 2701.2449 4127.8444 2553.8122 Z" fill="none" stroke="#865327" opacity="0.6" stroke-width="1" class="rego_park"/>
<path d="M 4291.0266 2554.2538 4363.1487 2528.6749 4378.8281 2567.9325 4306.3566 2593.6295 4291.0266 2554.2538 Z" fill="none" stroke="#865327" opacity="0.6" stroke-width="1" class="rego_park"/>
<path d="M 4312.5837 2544.4855 4331.9856 2587.4808 4377.6719 2568.1649 4433.4351 2710.0118 4362.4849 2733.5748 4334.0201 2755.6778 4284.7948 2843.1818 4322.0406 2994.1946 4311.22 2998.7231 4260.27 2852.8218 4149.5038 2622.3625 4146.5428 2619.093 4312.5837 2544.4855 Z" fill="none" stroke="#865327" opacity="0.6" stroke-width="1" class="rego_park"/>
<path d="M 4326.9059 2641.0629 4370.3564 2618.8691 4420.4867 2713.7218 4253.0998 2778.5274 4199.2999 2695.6479 4326.9059 2641.0629 Z" fill="none" stroke="#865327" opacity="0.6" stroke-width="1" class="rego_park"/>
<path d="M 4195.6167 2707.6366 4222.1616 2519.5717 4241.4762 2446.7383 4316.2858 2371.9777 4351.4952 2406.9351 4411.7536 2481.4754 4434.9876 2541.3379 4411.8934 2561.6543 4412.9521 2638.1515 4398.2895 2720.2129 4331.7494 2771.9473 4237.385 2789.6143 4195.6167 2707.6366 Z" fill="none" stroke="#865327" opacity="0.6" stroke-width="1" class="rego_park"/>
<path d="M 4161.1637 2562.0582 4569.8352 2421.287 4859.6321 2951.6227 4382.1379 3015.2598 3957.8263 2726.4025 4161.1637 2562.0582 Z" fill="none" stroke="#865327" opacity="0.6" stroke-width="1" class="rego_park"/>
<path d="M 4208.1602 2750.9606 4171.4166 2695.5664 4155.614 2646.7374 4155.557 2608.026 4199.5812 2585.982 4237.5025 2577.6287 4270.7912 2565.5948 4317.0136 2542.4792 4360.4848 2535.0339 4370.6899 2551.6057 4384.6326 2589.3695 4404.136 2631.7333 4364.4336 2681.5748 4316.2822 2660.455 4292.3108 2713.9561 4290.5122 2746.2221 4303.6042 2830.0898 4305.5558 2891.8558 4277.7798 2885.447 4270.2992 2837.5187 4208.1602 2750.9606 Z" fill="none" stroke="#865327" opacity="0.6" stroke-width="1" class="rego_park"/>
<path d="M 4153.865 2632.116 4362.814 2535.9331 4221.4297 2644.9182 4420.1314 2510.9512 4502.8005 2690.5296 4410.3014 2710.0524 4283.76 2854.0731 4153.865 2632.116 Z" fill="none" stroke="#865327" opacity="0.6" stroke-width="1" class="rego_park"/>
<path d="M 4155.6925 2615.8297 4283.2755 2552.6535 4403.8532 2726.3488 4361.3052 2737.4833 4240.156 2785.6155 4219.7821 2776.1207 4181.7379 2707.9644 4155.7549 2658.2283 4155.6925 2615.8297 Z" fill="none" stroke="#865327" opacity="0.6" stroke-width="1" class="rego_park"/>
<path d="M 4376.0432 2698.1284 4288.3919 2856.8315 4143.679 2626.6007 4140.8951 2621.0746 4191.7371 2589.6621 4229.6415 2570.2493 4376.0432 2698.1284 Z" fill="none" stroke="#865327" opacity="0.6" stroke-width="1" class="rego_park"/>
<path d="M 4153.8257 2605.387 4188.0431 2594.276 4248.2426 2631.9725 4307.5021 2657.6858 4356.5863 2683.4131 4406.6369 2731.26 4352.9764 2737.8044 4325.2365 2750.756 4280.9924 2859.6091 4233.6862 2791.4637 4192.8866 2738.0599 4168.7652 2696.6156 4151.1149 2649.6326 4150.1491 2621.9828 4153.8257 2605.387 Z" fill="none" stroke="#865327" opacity="0.6" stroke-width="1" class="rego_park"/>
<path d="M 4043.8139 2673.7491 4152.2419 2786.9775 3979.2518 2836.9972 3994.8624 2742.9475 4069.9111 2810.1415 4088.2986 2723.4634 4119.667 2657.9738 4043.8139 2673.7491 Z" fill="none" stroke="#865327" opacity="0.6" stroke-width="1" class="rego_park"/>
<path d="M 4425.6612 2498.9609 4593.7825 2845.2267 4466.2123 2926.5968 4281.0339 2885.4234 4147.3558 2610.0049 4148.2621 2597.1001 4425.6612 2498.9609 Z" fill="none" stroke="#865327" opacity="0.6" stroke-width="1" class="rego_park"/>
<path d="M 4412.1827 2727.5632 4364.9969 2732.2533 4334.4812 2745.2098 4327.0964 2756.2839 4281.9179 2859.6076 4225.3403 2780.4144 4177.1125 2709.508 4153.903 2657.9241 4149.2171 2617.3757 4156.5648 2580.4979 4162.0984 2568.5083 4426.5815 2496.1945 4434.9909 2543.1812 4452.6566 2591.9969 4485.1052 2627.8841 4514.8213 2685.8986 4506.4968 2687.7575 4412.1827 2727.5632 Z" fill="none" stroke="#865327" opacity="0.6" stroke-width="1" class="rego_park"/>
<path d="M 4280.0607 2855.6924 4191.0296 2733.9146 4149.2027 2607.5828 4185.3826 2593.9343 4184.3408 2593.3599 4311.472 2539.2442 4354.2629 2677.4257 4291.3685 2837.4664 4280.0607 2855.6924 Z" fill="none" stroke="#865327" opacity="0.6" stroke-width="1" class="rego_park"/>
<path d="M 4009.8645 2540.6115 4178.1323 2772.6505 3969.0916 2852.6827 3845.9538 2810.8852 3874.4911 2681.7979 3929.8278 2533.8015 4008.4701 2535.5444 4009.8645 2540.6115 Z" fill="none" stroke="#865327" opacity="0.6" stroke-width="1" class="rego_park"/>
<path d="M 4410.3364 2730.1013 4279.602 2858.2285 4171.0882 2703.0645 4109.6893 2636.3276 4181.3265 2588.5256 4410.3364 2730.1013 Z" fill="none" stroke="#865327" opacity="0.6" stroke-width="1" class="rego_park"/>
<path d="M 4240.0786 2716.5095 4316.1293 2814.7696 4177.0432 2635.2375 4192.7547 2623.2318 4240.877 2628.688 4302.0256 2678.3638 4345.5864 2720.6934 4402.1179 2769.4533 4351.6534 2776.5233 4361.4099 2800.0143 4373.4398 2799.5329 4386.8594 2799.9709 4240.0786 2716.5095 Z" fill="none" stroke="#865327" opacity="0.6" stroke-width="1" class="rego_park"/>
<path d="M 4152.9492 2638.5693 4223.7863 2673.0274 4315.9304 2718.969 4321.0221 2720.3433 4306.7212 2746.1773 4307.6933 2774.7525 4284.5699 2782.1647 4259.5807 2780.3609 4238.3234 2797.9096 4226.26 2776.7256 4209.5673 2753.7054 4202.139 2737.1241 4182.6812 2720.5611 4175.2577 2706.7454 4170.1546 2697.5353 4161.3346 2677.7305 4152.9492 2638.5693 Z" fill="none" stroke="#865327" opacity="0.6" stroke-width="1" class="rego_park"/>
<path d="M 4415.5088 2512.8024 4483.2982 2651.852 4376.9528 2688.9092 4247.3015 2621.8353 4198.2179 2592.4172 4415.5088 2512.8024 Z" fill="none" stroke="#865327" opacity="0.6" stroke-width="1" class="rego_park"/>
<path d="M 4319.1939 3015.3654 4140.8844 2613.7011 4196.394 2609.9319 4581.7229 2830.4994 4319.1939 3015.3654 Z" fill="none" stroke="#865327" opacity="0.6" stroke-width="1" class="rego_park"/>
<path d="M 4327.8373 2644.7482 4258.6742 2792.3464 4232.7722 2798.8401 4223.0239 2778.5743 4212.3548 2761.0758 4204.4731 2750.7173 4197.7441 2737.5916 4199.8168 2731.3663 4206.0475 2721.2171 4214.1133 2700.9255 4245.0197 2641.886 4249.6251 2628.514 4236.4343 2624.8478 4221.613 2613.8105 4210.7339 2608.9883 4201.7064 2604.8545 4190.5924 2597.498 4187.5739 2589.8988 4210.4617 2582.2603 4221.0929 2576.4836 4230.1048 2570.7094 4240.739 2567.0063 4253.6752 2556.3871 4273.0999 2553.5914 4286.0407 2546.1977 4289.7682 2562.781 4302.7556 2583.9579 4315.7329 2598.6833 4325.0127 2615.2583 4327.8373 2644.7482 Z" fill="none" stroke="#865327" opacity="0.6" stroke-width="1" class="rego_park"/>
<path d="M 4238.3205 2796.0658 4191.015 2724.2357 4254.6745 2603.39 4382.4448 2653.8735 4419.5565 2710.958 4414.9588 2727.5583 4326.1832 2763.66 4238.3205 2796.0658 Z" fill="none" stroke="#865327" opacity="0.6" stroke-width="1" class="rego_park"/>
<path d="M 4279.1654 2856.0765 4178.8781 2709.5265 4154.7323 2650.5702 4157.4484 2610.0113 4181.0487 2580.3546 4410.7618 2728.3805 4376.6717 2736.2645 4342.4499 2746.4621 4321.1964 2764.9339 4300.9065 2807.3725 4279.1654 2856.0765 Z" fill="none" stroke="#865327" opacity="0.6" stroke-width="1" class="rego_park"/>
<path d="M 4140.9717 2673.6125 4151.1041 2642.2589 4193.6879 2656.0213 4277.0249 2693.6832 4315.0345 2736.9456 4310.4695 2774.7479 4276.2706 2800.6152 4228.1479 2800.691 4199.4118 2769.392 4169.7413 2730.7202 4140.9717 2673.6125 Z" fill="none" stroke="#865327" opacity="0.6" stroke-width="1" class="rego_park"/>
<path d="M 4276.4048 2884.5088 3960.7984 2881.2731 4246.3849 2627.3669 4585.4638 2850.7742 4395.458 3224.5715 4276.4048 2884.5088 Z" fill="none" stroke="#865327" opacity="0.6" stroke-width="1" class="rego_park"/>
<path d="M 3899.1311 2395.6074 4177.5113 2357.4523 4244.53 2624.6047 4056.2662 2983.4891 3900.9856 2399.2911 3899.1311 2395.6074 Z" fill="none" stroke="#865327" opacity="0.6" stroke-width="1" class="rego_park"/>
<path d="M 4161.2318 2608.1411 4298.0711 2548.0215 4400.1641 2734.0366 4280.0285 2835.6409 4161.2318 2608.1411 Z" fill="none" stroke="#865327" opacity="0.6" stroke-width="1" class="rego_park"/>
<path d="M 4195.6627 2738.0557 4162.2824 2692.9381 4155.7427 2650.5475 4155.7251 2638.5652 4176.9458 2597.9793 4191.7399 2591.5054 4316.5643 2541.5399 4331.4467 2589.4407 4307.3998 2595.0103 4312.9738 2608.8263 4339.7814 2594.0352 4353.7126 2625.3491 4365.7895 2653.9019 4344.534 2669.6071 4325.1604 2704.6662 4303.882 2707.4664 4284.4631 2715.7939 4293.8017 2768.3222 4295.757 2832.8498 4275.4409 2860.5399 4239.246 2796.0644 4195.6627 2738.0557 Z" fill="none" stroke="#865327" opacity="0.6" stroke-width="1" class="rego_park"/>
<path d="M 4185.0313 2591.0547 4266.6297 2557.5187 4290.9061 2551.2587 4335.9718 2667.7779 4363.9916 2685.0137 4344.1645 2725.3748 4319.3982 2717.5806 4304.4141 2750.0988 4310.6978 2772.9039 4284.3307 2777.3254 4260.9728 2782.8938 4234.3878 2796.3024 4176.4237 2712.9657 4155.2896 2657.0003 4149.7033 2633.5047 4149.6763 2615.0708 4152.2072 2605.8502 4185.0313 2591.0547 Z" fill="none" stroke="#865327" opacity="0.6" stroke-width="1" class="rego_park"/>
<path d="M 4149.2063 2610.0022 4360.4964 2533.1722 4437.6139 2718.3005 4417.7381 2729.3971 4411.2621 2730.3302 4274.5037 2853.1661 4149.2063 2610.0022 Z" fill="none" stroke="#865327" opacity="0.6" stroke-width="1" class="rego_park"/>
<path d="M 4278.213 2857.7697 4275.4159 2844.8674 4255.9452 2822.3117 4215.6029 2767.0627 4194.7353 2736.6744 4172.4776 2703.9842 4163.1894 2680.493 4156.2216 2661.6076 4151.1007 2639.9546 4148.7511 2615.0721 4151.518 2609.0771 4151.9746 2604.9289 4314.2551 2543.8477 4331.4452 2588.519 4336.9919 2585.7448 4351.3956 2623.0488 4364.8634 2653.4426 4363.0292 2663.1239 4344.5317 2668.2245 4340.8358 2671.4568 4294.2621 2766.9387 4298.0542 2822.7053 4283.7578 2852.6903 4278.213 2857.7697 Z" fill="none" stroke="#865327" opacity="0.6" stroke-width="1" class="rego_park"/>
<path d="M 4277.2846 2855.9274 4149.1982 2604.4721 4414.5692 2504.5098 4504.6139 2670.2476 4277.2846 2855.9274 Z" fill="none" stroke="#865327" opacity="0.6" stroke-width="1" class="rego_park"/>
<path d="M 4278.2041 2852.2382 4118.681 2615.5765 4286.9793 2554.4908 4410.3416 2733.0972 4278.2041 2852.2382 Z" fill="none" stroke="#865327" opacity="0.6" stroke-width="1" class="rego_park"/>
<path d="M 4333.5634 2749.8204 4322.4922 2770.119 4290.2206 2842.9997 4276.3635 2858.6946 4276.3428 2845.7878 4194.7318 2734.3699 4163.1914 2681.8757 4152.9357 2629.3523 4155.6749 2604.4626 4221.316 2571.1838 4359.0978 2526.7233 4365.5833 2532.242 4441.7845 2721.9803 4402.0149 2734.0334 4357.6017 2736.8748 4333.5634 2749.8204 Z" fill="none" stroke="#865327" opacity="0.6" stroke-width="1" class="rego_park"/>
<path d="M 4442.6837 2707.2301 4159.6643 2799.8727 4085.3512 2600.8768 4368.3369 2519.3349 4442.6837 2707.2301 Z" fill="none" stroke="#865327" opacity="0.6" stroke-width="1" class="rego_park"/>
<path d="M 4198.2137 2589.6523 4360.9528 2529.485 4410.8767 2509.1242 4419.2062 2510.9528 4430.3227 2519.2276 4434.0803 2551.4774 4441.5228 2574.5052 4531.5753 2738.4091 4486.2874 2768.9129 4198.2137 2589.6523 Z" fill="none" stroke="#865327" opacity="0.6" stroke-width="1" class="rego_park"/>
<path d="M 4193.8008 2730.6841 4186.9651 2723.32 4198.1937 2728.949 4194.0337 2731.7208 4188.2403 2725.1617 4193.8008 2730.6841 Z" fill="none" stroke="#865327" opacity="0.6" stroke-width="1" class="rego_park"/>
<path d="M 4151.516 2607.6946 4057.6495 2641.4697 4037.2883 2637.8105 4003.9204 2593.6137 4074.1461 2527.1612 4364.6519 2528.5571 4420.3979 2663.0251 4351.9628 2685.2644 4276.3768 2866.992 4158.8273 2859.7972 4038.2285 2648.8698 4151.516 2607.6946 Z" fill="none" stroke="#865327" opacity="0.6" stroke-width="1" class="rego_park"/>
<path d="M 4172.2963 2582.3179 4372.2791 2661.2647 4381.611 2707.3366 4335.405 2744.2864 4303.9901 2773.8367 4248.48 2783.1439 4218.8609 2779.5026 4179.8858 2707.6603 4148.2945 2619.2204 4172.2963 2582.3179 Z" fill="none" stroke="#865327" opacity="0.6" stroke-width="1" class="rego_park"/>
<path d="M 4275.4336 2855.9303 4272.6336 2841.1842 4214.6867 2773.0561 4180.8353 2723.7901 4164.5951 2692.4738 4150.6475 2646.4073 4147.8292 2617.3777 4148.7423 2609.0812 4156.1416 2607.2269 4175.116 2611.8072 4184.347 2597.5074 4228.2644 2577.1638 4312.401 2541.5467 4337.3702 2535.0542 4364.6535 2529.4787 4412.2563 2504.5138 4425.2505 2528.4525 4429.9121 2548.7199 4434.1121 2569.4493 4272.7638 2632.8554 4270.4668 2642.9979 4342.2276 2673.7588 4303.9458 2746.6427 4292.3912 2754.497 4296.6743 2827.7779 4283.2988 2854.9958 4275.4336 2855.9303 Z" fill="none" stroke="#865327" opacity="0.6" stroke-width="1" class="rego_park"/>
<path d="M 4311.7535 2569.888 4401.1767 2650.8456 4316.1144 2690.1632 4194.3387 2627.4471 4311.7535 2569.888 Z" fill="none" stroke="#865327" opacity="0.6" stroke-width="1" class="rego_park"/>
<path d="M 4195.6502 2729.7595 4183.6003 2716.4116 4175.2378 2693.3798 4166.8872 2678.1832 4155.721 2635.8001 4153.8433 2617.3689 4235.664 2575.7698 4342.9297 2540.1138 4380.5603 2634.0598 4222.0793 2766.1309 4195.6502 2729.7595 Z" fill="none" stroke="#865327" opacity="0.6" stroke-width="1" class="rego_park"/>
<path d="M 4164.4346 2584.1729 4363.254 2522.5691 4440.3867 2716.452 4409.4034 2725.7244 4360.8374 2735.0257 4330.3169 2745.2167 4281.4522 2857.7645 4236.9317 2795.6071 4205.8665 2754.172 4161.7987 2678.6516 4147.84 2624.7512 4151.9577 2593.408 4164.4346 2584.1729 Z" fill="none" stroke="#865327" opacity="0.6" stroke-width="1" class="rego_park"/>
<path d="M 4157.5797 2641.3276 4158.4927 2633.0309 4152.001 2622.9017 4159.3867 2611.8306 4158.4751 2621.0488 4168.6474 2617.347 4174.1894 2610.8869 4182.5097 2606.2661 4188.9795 2601.6479 4191.7663 2609.0172 4205.6521 2613.6045 4212.1359 2618.2031 4228.7963 2621.8642 4234.3579 2628.3074 4234.3665 2633.8376 4233.4512 2640.291 4226.9928 2652.2834 4226.0917 2667.9543 4222.4033 2676.2557 4215.9431 2687.3267 4210.3982 2691.944 4201.1463 2692.8798 4191.8944 2693.8156 4187.2789 2701.1967 4178.0255 2701.2106 4172.4625 2693.8448 4169.6714 2683.7096 4165.0311 2674.4989 4161.3149 2664.3653 4160.3773 2656.0711 4157.5919 2649.6231 4157.5797 2641.3276 Z" fill="none" stroke="#865327" opacity="0.6" stroke-width="1" class="rego_park"/>
<path d="M 4150.1248 2605.3924 4288.823 2550.3405 4330.6421 2662.2563 4289.0891 2715.3256 4311.2083 2943.4592 4282.5191 2945.8107 4273.5627 2843.4874 4240.6435 2802.0544 4155.7631 2664.3735 4150.6354 2638.1119 4150.1248 2605.3924 Z" fill="none" stroke="#865327" opacity="0.6" stroke-width="1" class="rego_park"/>
<path d="M 4320.687 2797.7775 4280.0477 2847.6257 4252.2397 2820.0128 4187.3274 2733.4593 4183.5706 2696.5935 4168.6885 2644.9981 4140.8522 2591.5809 4174.1357 2574.942 4220.4561 2613.5818 4288.9664 2639.2814 4353.7793 2664.9829 4411.2541 2725.7212 4329.8222 2725.8596 4320.687 2797.7775 Z" fill="none" stroke="#865327" opacity="0.6" stroke-width="1" class="rego_park"/>
<path d="M 4222.2449 2573.7167 4292.0628 2551.4871 4331.9056 2587.366 4328.3012 2645.6689 4281.5734 2645.1308 4252.8707 2633.1941 4230.7192 2668.7151 4161.9604 2631.72 4222.2449 2573.7167 Z" fill="none" stroke="#865327" opacity="0.6" stroke-width="1" class="rego_park"/>
<path d="M 4503.7038 2678.545 4349.2672 2733.2016 4315.0875 2769.2093 4235.5428 2795.1483 4184.5402 2726.089 4151.0865 2630.2767 4153.8271 2606.3087 4195.4408 2591.4998 4414.5789 2510.0393 4503.7038 2678.545 Z" fill="none" stroke="#865327" opacity="0.6" stroke-width="1" class="rego_park"/>
<path d="M 4236.6964 2793.0723 4190.1035 2733.4551 4214.8565 2582.2536 4372.969 2523.0134 4437.1251 2703.5529 4236.6964 2793.0723 Z" fill="none" stroke="#865327" opacity="0.6" stroke-width="1" class="rego_park"/>
<path d="M 4152.2191 2613.9149 4153.3685 2609.0744 4184.8051 2594.5113 4223.8707 2577.8618 4335.0561 2534.3668 4378.7089 2633.6021 4319.7615 2657.2048 4300.6321 2700.5584 4293.7178 2716.4703 4311.3923 2773.1332 4320.4211 2776.8057 4280.2935 2856.614 4273.0981 2842.3358 4197.0525 2739.2059 4168.3046 2697.9989 4169.231 2698.6889 4155.0545 2654.4659 4148.2928 2618.0683 4151.5201 2610.4596 4152.2191 2613.9149 Z" fill="none" stroke="#865327" opacity="0.6" stroke-width="1" class="rego_park"/>
<path d="M 4365.588 2535.0068 4360.959 2533.1714 4414.5869 2514.6472 4507.4085 2680.3817 4275.4306 2854.0865 4143.6655 2617.3838 4365.588 2535.0068 Z" fill="none" stroke="#865327" opacity="0.6" stroke-width="1" class="rego_park"/>
<path d="M 4355.2483 2531.2042 4435.1248 2705.2663 4427.7382 2714.4972 4404.5975 2712.694 4262.2558 2815.2539 4141.6558 2615.4097 4355.2483 2531.2042 Z" fill="none" stroke="#865327" opacity="0.6" stroke-width="1" class="rego_park"/>
<path d="M 4230.9337 2782.9252 4220.2207 2761.0637 4203.9939 2739.8867 4175.2316 2689.2318 4160.3664 2648.6973 4159.3854 2610.9089 4188.0653 2609.0228 4215.7987 2593.3121 4242.6117 2581.2889 4268.5003 2570.1882 4293.469 2562.775 4315.9196 2554.0437 4336.2662 2549.402 4354.7654 2546.6061 4358.5019 2567.7974 4368.6964 2577.9183 4382.6141 2600.9362 4381.7504 2636.8837 4393.7822 2638.7065 4400.3038 2664.5035 4409.5793 2677.3918 4406.845 2701.3624 4418.8808 2705.0285 4425.3955 2726.2182 4313.4915 2766.0463 4283.8905 2773.4691 4256.1442 2783.6536 4230.9337 2782.9252 Z" fill="none" stroke="#865327" opacity="0.6" stroke-width="1" class="rego_park"/>
<path d="M 4092.678 2547.4109 4136.2207 2587.901 4122.3621 2601.746 4093.6621 2589.3443 4074.6681 2570.016 4076.0124 2538.6788 4093.5714 2524.8301 4121.3343 2530.3203 4156.9806 2548.7007 4130.666 2585.6048 4092.678 2547.4109 Z" fill="none" stroke="#865327" opacity="0.6" stroke-width="1" class="rego_park"/>
<path d="M 4184.3162 2595.4336 4339.2807 2526.7196 4409.2264 2719.7145 4231.3139 2789.3747 4165.8166 2605.1203 4184.3162 2595.4336 Z" fill="none" stroke="#865327" opacity="0.6" stroke-width="1" class="rego_park"/>
<path d="M 4188.5075 2595.4274 4312.8696 2545.2324 4363.7021 2650.6794 4341.0741 2675.6043 4322.1629 2710.6627 4284.5613 2776.8641 4235.5399 2793.3046 4196.5853 2736.2107 4151.7524 2611.1505 4188.5075 2595.4274 Z" fill="none" stroke="#865327" opacity="0.6" stroke-width="1" class="rego_park"/>
<path d="M 4347.2204 2616.1431 4337.1484 2679.7587 4303.0182 2745.2615 4292.152 2892.7811 4119.6115 2619.262 4255.5343 2561.914 4308.2482 2548.0049 4347.2204 2616.1431 Z" fill="none" stroke="#865327" opacity="0.6" stroke-width="1" class="rego_park"/>
<path d="M 4355.1917 2528.3611 4438.1153 2727.0751 4334.5097 2748.4545 4285.629 2850.8618 4201.922 2731.3815 4151.7708 2607.9431 4355.1917 2528.3611 Z" fill="none" stroke="#865327" opacity="0.6" stroke-width="1" class="rego_park"/>
<path d="M 4242.6016 2574.8373 4370.2374 2548.8232 4455.6418 2709.0506 4255.6274 2620.9005 4242.6016 2574.8373 Z" fill="none" stroke="#865327" opacity="0.6" stroke-width="1" class="rego_park"/>
<path d="M 4219.5578 2631.0954 4378.8459 2713.7938 4299.405 2799.6561 4260.4973 2774.8283 4169.707 2707.6755 4219.5578 2631.0954 Z" fill="none" stroke="#865327" opacity="0.6" stroke-width="1" class="rego_park"/>
<path d="M 4186.657 2595.4301 4351.7245 2681.1169 4279.1378 2857.3073 4081.93 2635.6754 4186.657 2595.4301 Z" fill="none" stroke="#865327" opacity="0.6" stroke-width="1" class="rego_park"/>
<path d="M 4152.2086 2606.7719 4361.6443 2528.1014 4396.7215 2616.0589 4304.7146 2650.5469 4279.5706 2694.3705 4282.9426 2777.3276 4236.0041 2794.2257 4173.1668 2700.757 4152.2086 2606.7719 Z" fill="none" stroke="#865327" opacity="0.6" stroke-width="1" class="rego_park"/>
<path d="M 4234.5977 2784.2737 4208.7409 2762.1313 4207.7873 2743.6963 4186.4689 2720.6835 4166.0755 2696.7477 4158.6266 2665.4191 4151.1795 2635.0132 4161.3344 2619.3293 4183.5184 2604.5493 4202.9303 2592.5382 4225.1216 2583.2875 4259.333 2569.4092 4291.684 2550.0031 4320.3573 2545.3482 4336.0121 2554.5967 4359.1638 2567.4608 4344.3805 2579.4671 4369.3864 2594.1715 4365.7199 2614.4547 4389.7939 2624.5522 4393.549 2655.8841 4409.3335 2687.196 4398.2711 2711.1813 4387.1906 2725.0272 4363.1281 2723.2246 4339.9972 2725.1071 4328.9203 2741.7179 4317.8339 2752.798 4299.3456 2764.812 4271.5851 2765.7785 4253.0887 2773.1826 4234.5977 2784.2737 Z" fill="none" stroke="#865327" opacity="0.6" stroke-width="1" class="rego_park"/>
<path d="M 4313.2412 2771.9779 4249.4083 2784.9862 4234.6145 2793.306 4194.729 2732.5263 4149.2684 2652.4005 4149.1995 2605.3938 4195.4338 2586.8915 4360.9466 2525.7986 4380.4555 2572.7683 4330.523 2590.3639 4299.9874 2588.5707 4256.5497 2619.0557 4253.7826 2624.5902 4343.6241 2678.8261 4305.7898 2742.4916 4313.2412 2771.9779 Z" fill="none" stroke="#865327" opacity="0.6" stroke-width="1" class="rego_park"/>
<path d="M 4359.1087 2533.1745 4360.498 2534.0938 4406.4639 2631.7109 4365.7934 2656.2062 4365.7989 2659.4322 4280.523 2855.4612 4152.9709 2653.3168 4151.0473 2603.5477 4359.1087 2533.1745 Z" fill="none" stroke="#865327" opacity="0.6" stroke-width="1" class="rego_park"/>
<path d="M 4279.14 2858.6902 4188.25 2731.6143 4150.1221 2603.5491 4432.1258 2492.4985 4515.7551 2690.5056 4373.3252 2732.2391 4328.0111 2749.8296 4279.14 2858.6902 Z" fill="none" stroke="#865327" opacity="0.6" stroke-width="1" class="rego_park"/>
<path d="M 4160.2725 2585.1007 4367.4133 2520.258 4409.2638 2645.5317 4341.7519 2665.9248 4304.872 2747.1021 4231.8525 2802.529 4125.1644 2620.1757 4160.2725 2585.1007 Z" fill="none" stroke="#865327" opacity="0.6" stroke-width="1" class="rego_park"/>
<path d="M 4290.0137 2714.8632 4296.542 2746.1939 4294.7211 2764.6333 4304.9666 2805.1783 4281.9105 2854.998 4256.8554 2812.6305 4204.0136 2752.7921 4161.3299 2674.5044 4153.865 2632.116 4178.7811 2587.8382 4233.3953 2604.345 4297.1953 2578.437 4283.3585 2604.266 4300.0818 2646.6371 4337.1361 2672.3847 4322.395 2711.1232 4290.0137 2714.8632 Z" fill="none" stroke="#865327" opacity="0.6" stroke-width="1" class="rego_park"/>
<path d="M 4366.5054 2530.3972 4438.9954 2714.6109 4233.6905 2794.2293 4148.2878 2614.612 4366.5054 2530.3972 Z" fill="none" stroke="#865327" opacity="0.6" stroke-width="1" class="rego_park"/>
<path d="M 4333.742 2718.0178 4305.2231 2749.6366 4272.3247 2720.0766 4222.1835 2683.7452 4212.4966 2702.6563 4165.1613 2684.2924 4151.0965 2637.0743 4177.5322 2603.3933 4187.2332 2594.0468 4247.7735 2627.8256 4305.5334 2656.1912 4320.2323 2662.1583 4352.6449 2678.2349 4333.742 2718.0178 Z" fill="none" stroke="#865327" opacity="0.6" stroke-width="1" class="rego_park"/>
<path d="M 4163.2903 2583.3437 4292.6249 2553.7061 4257.5583 2671.8225 4201.7562 2737.3749 4161.3887 2660.4676 4151.1935 2648.961 4163.2903 2583.3437 Z" fill="none" stroke="#865327" opacity="0.6" stroke-width="1" class="rego_park"/>
<path d="M 4378.0801 2699.9279 4382.0812 2708.8139 4367.7822 2734.6485 4352.5213 2739.2833 4335.8799 2748.5292 4323.2434 2762.9122 4309.8439 2774.4572 4289.0289 2778.6393 4269.7834 2782.1271 4247.1208 2788.6159 4237.4145 2795.4298 4227.8748 2784.2016 4216.7464 2769.0083 4203.7655 2752.4352 4196.1603 2738.7583 4183.0476 2722.4027 4170.9809 2697.5327 4162.1582 2675.8844 4154.0268 2652.1248 4152.1525 2635.9975 4151.2009 2618.0258 4155.3462 2605.5769 4171.9931 2600.483 4184.0163 2597.2392 4192.1004 2596.174 4219.4282 2617.7918 4248.5225 2629.283 4293.8918 2653.8735 4318.4294 2664.4334 4341.127 2675.6871 4363.3509 2685.3282 4378.0801 2699.9279 Z" fill="none" stroke="#865327" opacity="0.6" stroke-width="1" class="rego_park"/>
<path d="M 4317.4955 2545.2249 4362.1226 2674.1863 4280.0596 2855.001 4145.5672 2652.4059 4169.5426 2597.0687 4317.4955 2545.2249 Z" fill="none" stroke="#865327" opacity="0.6" stroke-width="1" class="rego_park"/>
<path d="M 4238.2102 2725.3155 4245.6378 2741.0898 4214.7804 2683.411 4213.52 2766.605 4197.4731 2711.4361 4217.0844 2677.3008 4262.8496 2726.3138 4260.5603 2741.5272 4228.9859 2744.2269 4228.0769 2754.8292 4220.4479 2758.4131 4216.1706 2760.1481 4213.7416 2760.267 4222.9519 2731.907 4222.2406 2720.7313 4217.9592 2719.7009 4215.9009 2735.1442 4219.5557 2704.8347 4217.4576 2694.3528 4216.086 2705.0705 4214.4898 2720.1671 4238.2102 2725.3155 Z" fill="none" stroke="#865327" opacity="0.6" stroke-width="1" class="rego_park"/>
<path d="M 4441.0817 2492.7775 4512.3536 2682.511 4228.7553 2798.5329 4139.6526 2619.233 4144.5719 2604.4789 4428.121 2498.3299 4441.0817 2492.7775 Z" fill="none" stroke="#865327" opacity="0.6" stroke-width="1" class="rego_park"/>
<path d="M 4431.2186 2502.6374 4514.8093 2679.4463 4234.6174 2795.1497 4145.5133 2615.5377 4431.2186 2502.6374 Z" fill="none" stroke="#865327" opacity="0.6" stroke-width="1" class="rego_park"/>
<path d="M 4280.9865 2855.9214 4149.2103 2612.7672 4153.8298 2608.152 4357.2459 2525.8048 4397.1714 2608.6846 4291.7482 2642.9638 4280.7247 2692.7555 4355.751 2736.8779 4328.005 2746.1423 4280.9865 2855.9214 Z" fill="none" stroke="#865327" opacity="0.6" stroke-width="1" class="rego_park"/>
<path d="M 4280.0655 2858.6887 4178.0448 2714.1155 4158.5322 2659.7607 4151.9928 2617.3716 4157.5226 2602.6165 4191.7301 2585.0538 4362.8016 2528.5602 4432.5016 2705.4046 4391.8326 2732.2074 4352.0495 2736.8841 4325.241 2753.5215 4280.0655 2858.6887 Z" fill="none" stroke="#865327" opacity="0.6" stroke-width="1" class="rego_park"/>
<path d="M 4328.0203 2755.3605 4306.7663 2773.8321 4285.4834 2774.7885 4262.3613 2783.122 4237.3965 2796.9891 4227.1968 2784.099 4201.236 2751.8745 4182.6854 2723.3264 4167.8399 2696.617 4158.5458 2668.9781 4150.1734 2638.5734 4151.9739 2604.468 4184.3394 2592.4382 4216.6999 2577.6425 4249.9889 2565.6093 4311.0162 2543.3922 4313.7993 2547.9958 4318.4465 2560.891 4326.7977 2575.6235 4337.9218 2588.5083 4339.7907 2599.5652 4347.2188 2615.2214 4354.6519 2633.6429 4363.023 2659.4369 4361.1957 2673.2661 4376.9764 2702.7356 4368.6593 2709.2022 4361.2689 2716.589 4357.5986 2735.0312 4343.7257 2739.6635 4328.0203 2755.3605 Z" fill="none" stroke="#865327" opacity="0.6" stroke-width="1" class="rego_park"/>
<path d="M 4145.5309 2627.5197 4211.0752 2529.7263 4316.6339 2583.9352 4296.3552 2630.9741 4260.3762 2698.3185 4145.5309 2627.5197 Z" fill="none" stroke="#865327" opacity="0.6" stroke-width="1" class="rego_park"/>
<path d="M 4280.0551 2852.2352 4256.8772 2826.4587 4230.8928 2780.4058 4195.6697 2742.6647 4162.2634 2680.0335 4152.0416 2650.553 4146.4373 2614.6147 4139.0017 2591.5836 4128.7856 2564.8704 4105.6254 2543.7061 4092.6417 2521.6058 4094.4518 2493.0341 4126.7837 2459.8121 4164.7129 2459.7567 4196.1663 2459.7095 4241.479 2448.5814 4294.2003 2442.9683 4341.3781 2441.9692 4362.6504 2439.1689 4381.2119 2474.1557 4401.59 2488.8656 4431.2332 2510.9316 4444.2361 2539.4783 4444.3 2575.4219 4465.6464 2612.2505 4495.327 2651.83 4512.9416 2670.2323 4512.0623 2695.1213 4474.1521 2710.8608 4442.7148 2724.744 4414.0382 2730.3253 4394.6103 2733.1244 4362.2255 2735.0234 4336.3457 2753.5031 4318.8073 2780.2653 4301.2933 2822.7 4289.304 2848.5327 4280.0551 2852.2352 Z" fill="none" stroke="#865327" opacity="0.6" stroke-width="1" class="rego_park"/>
<path d="M 4240.8826 2658.9443 4241.6895 2657.2148 4244.0039 2657.9025 4242.7348 2659.9784 4241.6931 2659.5192 4240.8826 2658.9443 Z" fill="none" stroke="#865327" opacity="0.6" stroke-width="1" class="rego_park"/>
<path d="M 4143.6776 2625.679 4421.9736 2506.34 4505.5392 2670.2459 4244.7754 2781.306 4143.6776 2625.679 Z" fill="none" stroke="#865327" opacity="0.6" stroke-width="1" class="rego_park"/>
<path d="M 4336.1671 2669.1805 4200.039 2744.2547 4139.0581 2621.4114 4312.0178 2545.4159 4336.1671 2669.1805 Z" fill="none" stroke="#865327" opacity="0.6" stroke-width="1" class="rego_park"/>
<path d="M 4165.7119 2575.1342 4354.2806 2691.2869 4332.0422 2672.889 4603.0151 2868.1075 4569.6619 2849.7332 4534.4382 2820.299 4484.3999 2785.3602 4452.9059 2768.8237 4636.4099 2906.764 4585.2472 2961.2896 4281.949 2878.9682 4248.535 2818.1749 4168.7735 2702.1462 4165.7119 2575.1342 Z" fill="none" stroke="#865327" opacity="0.6" stroke-width="1" class="rego_park"/>
<path d="M 4251.0069 2624.5946 4455.7325 2759.7497 4278.2617 2888.1937 4190.1188 2743.5949 4237.1566 2643.0504 4251.0069 2624.5946 Z" fill="none" stroke="#865327" opacity="0.6" stroke-width="1" class="rego_park"/>
<path d="M 4204.7142 2605.3108 4285.1289 2554.4938 4410.3271 2724.801 4239.2474 2796.9863 4150.1369 2613.6876 4204.7142 2605.3108 Z" fill="none" stroke="#865327" opacity="0.6" stroke-width="1" class="rego_park"/>
<path d="M 4334.3479 2665.0154 4411.2541 2725.7212 4234.6159 2794.2279 4142.7215 2604.4816 4148.2797 2609.0818 4291.5963 2548.9536 4334.3479 2665.0154 Z" fill="none" stroke="#865327" opacity="0.6" stroke-width="1" class="rego_park"/>
<path d="M 4290.0137 2714.8632 4277.1001 2740.6943 4284.5624 2777.5555 4233.6962 2797.9168 4188.2514 2732.5361 4165.9879 2695.6979 4149.2414 2633.9662 4150.1288 2608.1575 4188.9628 2590.5879 4287.8926 2547.1163 4336.2154 2675.1515 4311.3149 2725.89 4290.0137 2714.8632 Z" fill="none" stroke="#865327" opacity="0.6" stroke-width="1" class="rego_park"/></svg>