<?xml version="1.0"?><svg xmlns="http://www.w3.org/2000/svg" version="1.2" baseProfile="tiny" width="6000" height="5918" viewBox="0 0 6000 5918" stroke-linecap="round" stroke-linejoin="round"><path d="M 3886.116 3121.1009 3628.5704 2916.6697 3656.2117 2783.8882 3868.9871 2722.8233 4011.799 2954.9658 3886.116 3121.1009 Z" fill="none" stroke="#012394" opacity="0.36363636363636365" stroke-width="1" class="ridgewood"/>
<path d="M 3641.7188 3122.2814 3564.649 2847.58 3816.2508 2731.1796 4018.2916 2965.0995 3683.3642 3108.4092 3641.7188 3122.2814 Z" fill="none" stroke="#012394" opacity="0.36363636363636365" stroke-width="1" class="ridgewood"/>
<path d="M 3841.4006 2875.885 3901.7451 3030.713 3881.3859 3035.3478 3642.4571 2920.3449 3841.4006 2875.885 Z" fill="none" stroke="#012394" opacity="0.36363636363636365" stroke-width="1" class="ridgewood"/>
<path d="M 3673.4829 2864.6834 3837.7571 2876.7007 3947.4476 2936.6083 3938.2031 2983.0076 3902.5977 3043.8286 3865.3103 3048.1382 3841.3709 3047.2609 3813.8812 3047.9587 3785.0838 3052.8052 3777.2156 3052.9289 3635.7412 2944.8557 3608.1374 2922.9412 3629.6487 2892.63 3644.201 2878.2744 3673.4829 2864.6834 Z" fill="none" stroke="#012394" opacity="0.36363636363636365" stroke-width="1" class="ridgewood"/>
<path d="M 3917.5499 3086.9431 3786.9551 3023.4674 3692.4623 2946.113 3650.7741 2906.5074 3733.0499 2811.4685 3848.8047 2875.8766 3959.0324 2948.5798 4067.4066 3007.4473 3917.5499 3086.9431 Z" fill="none" stroke="#012394" opacity="0.36363636363636365" stroke-width="1" class="ridgewood"/>
<path d="M 3836.772 2874.9683 3949.7662 2940.2934 3870.3923 3133.1078 3604.5094 2920.3793 3672.0182 2861.3118 3836.772 2874.9683 Z" fill="none" stroke="#012394" opacity="0.36363636363636365" stroke-width="1" class="ridgewood"/>
<path d="M 3852.7816 3114.6846 3611.9205 2927.7486 3896.7104 2691.45 3982.0781 2875.7143 3966.3479 2878.5003 3919.3191 3019.6267 3902.7173 3069.4405 3887.0538 3131.2438 3852.7816 3114.6846 Z" fill="none" stroke="#012394" opacity="0.36363636363636365" stroke-width="1" class="ridgewood"/>
<path d="M 3903.6108 3042.6981 3848.6083 3108.2343 3824.5727 3138.2324 3728.2178 3064.5627 3692.7844 3038.5485 3669.6235 3018.5156 3675.0298 2865.2271 3796.8533 2763.4646 3831.9862 2734.8492 3877.1944 2816.6107 3839.3198 2877.2703 3858.7777 2896.3785 3926.8517 2935.0204 3938.2457 2979.9548 3903.6108 3042.6981 Z" fill="none" stroke="#012394" opacity="0.36363636363636365" stroke-width="1" class="ridgewood"/>
<path d="M 3906.3889 3043.6168 3913.8647 3101.4715 3859.273 3124.36 3844.4854 3145.818 3638.8252 2996.4149 3687.3613 2935.5149 3632.2521 2894.3086 3816.2795 2756.9903 3847.8824 2878.6434 3841.3996 2874.9631 3951.6179 2940.7521 3906.3889 3043.6168 Z" fill="none" stroke="#012394" opacity="0.36363636363636365" stroke-width="1" class="ridgewood"/>
<path d="M 3965.4224 2878.5014 3905.4599 3040.8516 3803.6422 3046.5016 3616.5308 2908.3829 3674.7956 2862.2311 3878.4221 2876.7641 3965.4224 2878.5014 Z" fill="none" stroke="#012394" opacity="0.36363636363636365" stroke-width="1" class="ridgewood"/>
<path d="M 3605.8982 2920.8391 3637.3325 2883.471 3674.3332 2862.6925 3839.5496 2875.8871 3847.9035 2897.0825 3863.6332 2893.3765 3927.5456 2934.789 3936.4076 2990.5606 3908.7026 3043.153 3728.6778 3061.7959 3726.3646 3062.7204 3748.0852 3030.8854 3605.8982 2920.8391 Z" fill="none" stroke="#012394" opacity="0.36363636363636365" stroke-width="1" class="ridgewood"/>
<path d="M 3702.2682 3034.1592 3723.5052 2981.58 3865.2297 3072.2513 3703.7767 3154.9597 3597.675 3042.095 3719.3404 2982.0453 3702.2682 3034.1592 Z" fill="none" stroke="#012394" opacity="0.36363636363636365" stroke-width="1" class="ridgewood"/>
<path d="M 3586.9432 2942.5226 3682.1293 2789.8554 3800.0705 2743.6419 3827.8174 2730.7058 3947.473 2956.8925 3845.4004 3136.3644 3586.9432 2942.5226 Z" fill="none" stroke="#012394" opacity="0.36363636363636365" stroke-width="1" class="ridgewood"/>
<path d="M 3723.8175 3061.3398 3710.4304 2865.4229 3939.0436 2877.1517 3944.8033 3042.6475 3723.8175 3061.3398 Z" fill="none" stroke="#012394" opacity="0.36363636363636365" stroke-width="1" class="ridgewood"/>
<path d="M 3833.9976 2876.8154 3948.8452 2943.9826 3895.282 3044.5523 3774.0205 3046.5337 3615.6186 2923.1353 3667.3977 2868.6917 3662.7685 2866.8522 3833.9976 2876.8154 Z" fill="none" stroke="#012394" opacity="0.36363636363636365" stroke-width="1" class="ridgewood"/>
<path d="M 3606.3642 2924.5266 3670.6326 2864.0789 3839.09 2878.6535 3924.7695 2935.2534 3937.3224 2981.8 3971.2656 3105.7803 3866.6903 3134.0343 3606.3642 2924.5266 Z" fill="none" stroke="#012394" opacity="0.36363636363636365" stroke-width="1" class="ridgewood"/>
<path d="M 3609.1388 2922.2192 3604.5094 2920.3793 3891.1529 2686.8479 3975.5558 2841.6115 3906.3889 3043.6168 3779.5855 3056.671 3609.1388 2922.2192 Z" fill="none" stroke="#012394" opacity="0.36363636363636365" stroke-width="1" class="ridgewood"/>
<path d="M 3893.5374 3134.0027 3865.7774 3145.1018 3815.8113 3168.214 3684.0592 3067.9178 3633.9759 3029.4591 3730.3611 2897.2098 3847.4475 2891.7006 3857.7781 2895.5568 3932.852 2931.0945 3967.5069 3061.9833 3893.5374 3134.0027 Z" fill="none" stroke="#012394" opacity="0.36363636363636365" stroke-width="1" class="ridgewood"/>
<path d="M 3459.1468 2851.351 3416.4918 2731.5398 3559.8906 2691.7934 3856.934 2702.5581 4143.683 2629.3658 4280.1083 2885.4248 4225.6965 3010.9041 3764.7676 3050.232 3480.6081 3082.7642 3459.1468 2851.351 Z" fill="none" stroke="#012394" opacity="0.36363636363636365" stroke-width="1" class="ridgewood"/>
<path d="M 3622.9401 2831.8565 3730.1737 2713.7574 3952.1977 2665.573 4078.2644 2827.6458 3983.6658 3059.1261 3889.3398 3138.5486 3615.122 2926.7537 3622.9401 2831.8565 Z" fill="none" stroke="#012394" opacity="0.36363636363636365" stroke-width="1" class="ridgewood"/>
<path d="M 3845.3234 2884.4012 3866.1655 2907.6935 3901.3626 2929.7794 3953.2405 2966.5961 3931.0853 3014.5704 3940.445 3097.5492 3944.21 3147.3422 3914.6233 3178.7341 3873.8878 3178.7828 3840.5336 3156.688 3595.8734 2953.4296 3584.7696 2957.1273 3675.3903 2866.6908 3845.3234 2884.4012 Z" fill="none" stroke="#012394" opacity="0.36363636363636365" stroke-width="1" class="ridgewood"/>
<path d="M 3651.6685 2873.3163 3833.9945 2874.0495 3902.6846 3042.2381 3663.8847 3067.3925 3600.9095 3036.0985 3642.0418 2971.5167 3642.97 2974.2819 3651.6685 2873.3163 Z" fill="none" stroke="#012394" opacity="0.36363636363636365" stroke-width="1" class="ridgewood"/>
<path d="M 3724.512 3061.5696 3583.0158 2949.9021 3643.8051 2877.0114 3675.4903 2862.9219 3738.1318 2803.6274 3810.0224 2747.3182 3837.7591 2725.3942 3871.4195 2824.4535 3899.248 2878.3527 3911.7427 2878.5681 3938.9428 2982.259 3960.5356 3039.4004 3724.512 3061.5696 Z" fill="none" stroke="#012394" opacity="0.36363636363636365" stroke-width="1" class="ridgewood"/>
<path d="M 3612.825 2924.9808 3673.8604 2871.4503 3775.6699 2875.0347 3835.8353 2881.422 3950.7415 2939.3692 3943.0507 2995.6227 3905.1678 3051.9163 3772.0042 3058.514 3725.0452 3072.5258 3612.825 2924.9808 Z" fill="none" stroke="#012394" opacity="0.36363636363636365" stroke-width="1" class="ridgewood"/>
<path d="M 3873.8713 2942.2295 3886.0307 3049.1738 3839.8264 3119.3103 3778.818 3204.2218 3702.9895 3294.6857 3632.6568 3335.3369 3475.2616 3359.4506 3360.4223 3331.858 3319.6391 3261.7844 3280.6417 3059.8411 3268.5139 2883.7394 3319.4055 2863.4283 3419.349 2848.6136 3604.4554 2859.5304 3715.522 2866.8006 3834.9241 2877.7363 3895.2886 3050.0849 3889.7104 3029.8054 3873.8713 2942.2295 Z" fill="none" stroke="#012394" opacity="0.36363636363636365" stroke-width="1" class="ridgewood"/>
<path d="M 3607.2869 2921.2988 3672.0182 2861.3118 3839.5465 2873.1213 3937.9557 3119.1937 3810.2453 3158.0757 3727.7517 3061.3358 3730.4836 3017.0722 3607.2869 2921.2988 Z" fill="none" stroke="#012394" opacity="0.36363636363636365" stroke-width="1" class="ridgewood"/>
<path d="M 4049.7393 2948.4609 4185.5418 2776.7877 4298.5888 2866.9562 4314.5037 2977.5687 4256.3868 3102.1458 4149.9101 3090.3198 4049.886 3056.3422 4049.7393 2948.4609 Z" fill="none" stroke="#012394" opacity="0.36363636363636365" stroke-width="1" class="ridgewood"/>
<path d="M 3582.7852 2950.8243 3632.0155 2888.5466 3700.9187 2839.8491 3679.3555 2792.3932 3826.1983 2730.938 3841.0821 2799.3674 3871.8801 2822.6092 3899.7099 2877.6607 3937.7869 2983.1825 3988.2096 2965.1389 4020.8406 2967.8622 4038.9719 3028.6938 3723.1242 3062.2626 3582.7852 2950.8243 Z" fill="none" stroke="#012394" opacity="0.36363636363636365" stroke-width="1" class="ridgewood"/>
<path d="M 3733.9182 2868.6258 3844.2928 2875.8817 3950.3394 2936.1437 3944.603 2974.8756 3936.9936 2996.5532 3918.6327 3026.0821 3855.0991 3117.4485 3677.682 2976.0931 3713.2721 2930.4183 3696.1369 2917.9885 3733.9182 2868.6258 Z" fill="none" stroke="#012394" opacity="0.36363636363636365" stroke-width="1" class="ridgewood"/>
<path d="M 3607.2885 2923.1428 3671.0945 2863.1566 3833.0794 2883.27 3907.3124 3041.7715 3990.7018 3102.5277 3802.836 3155.3172 3746.3344 3127.7116 3750.9094 3076.0659 3607.2885 2923.1428 Z" fill="none" stroke="#012394" opacity="0.36363636363636365" stroke-width="1" class="ridgewood"/>
<path d="M 3585.0785 2950.4713 3675.5267 2865.0658 3964.9472 2882.3632 3962.4712 2975.8361 3840.0634 3149.0194 3585.0785 2950.4713 Z" fill="none" stroke="#012394" opacity="0.36363636363636365" stroke-width="1" class="ridgewood"/>
<path d="M 3482.4043 3009.9165 3570.187 2830.0591 3595.1365 2786.7094 3645.9977 2747.0244 3692.2461 2725.7786 3738.5465 2757.0736 3744.1275 2784.723 3803.4081 2833.5192 3846.0261 2874.0359 3888.6509 2917.3183 3909.9732 2945.8745 3955.3707 2980.8554 3990.6922 3095.1504 3922.2473 3143.1899 3816.7022 3136.8579 3803.705 3103.6738 3852.7221 3063.0445 3775.8304 3007.8041 3727.6662 2977.4266 3701.7272 2955.324 3611.0353 2972.928 3482.4043 3009.9165 Z" fill="none" stroke="#012394" opacity="0.36363636363636365" stroke-width="1" class="ridgewood"/>
<path d="M 3843.7504 3312.9827 3276.8665 2926.1454 3876.3531 2691.4742 3843.7504 3312.9827 Z" fill="none" stroke="#012394" opacity="0.36363636363636365" stroke-width="1" class="ridgewood"/>
<path d="M 3889.1717 3043.8956 3726.5044 3291.231 3392.2682 3042.1429 3818.4636 2723.8765 3947.5746 2964.1579 3889.1717 3043.8956 Z" fill="none" stroke="#012394" opacity="0.36363636363636365" stroke-width="1" class="ridgewood"/>
<path d="M 3728.2221 2955.1821 3856.2615 3121.9428 3729.4957 2956.1028 3755.9835 2949.2756 3868.1807 2824.6878 3958.5608 2941.6654 4023.1841 3163.8107 3860.2142 3137.7306 3728.2221 2955.1821 Z" fill="none" stroke="#012394" opacity="0.36363636363636365" stroke-width="1" class="ridgewood"/>
<path d="M 3688.8717 3060.4525 3590.6455 2942.5194 3678.4663 2829.9606 3763.5594 2782.859 3902.4598 2855.531 4031.1746 2908.8402 4133.8389 2859.8338 4264.3379 2862.4015 4307.9191 2913.0388 4296.0797 3032.0006 4095.2407 3053.5131 3938.9089 3141.325 3881.6158 3229.9295 3688.8717 3060.4525 Z" fill="none" stroke="#012394" opacity="0.36363636363636365" stroke-width="1" class="ridgewood"/>
<path d="M 3833.0408 2849.1586 3949.7673 2941.2154 3950.7195 2962.4206 3892.4576 3004.906 3783.2822 3051.1343 3720.3126 3028.1476 3709.131 2954.3946 3791.4231 2875.9406 3845.0995 2873.115 3833.0408 2849.1586 Z" fill="none" stroke="#012394" opacity="0.36363636363636365" stroke-width="1" class="ridgewood"/>
<path d="M 3964.5004 2881.2684 3856.0233 3116.0642 3775.4184 3055.2923 3721.734 3060.6503 3582.5552 2952.438 3675.0289 2864.3052 3964.5004 2881.2684 Z" fill="none" stroke="#012394" opacity="0.36363636363636365" stroke-width="1" class="ridgewood"/>
<path d="M 3837.6986 2875.8892 3902.6851 3042.6992 3526.8982 3088.2609 3484.2576 3012.6813 3837.6986 2875.8892 Z" fill="none" stroke="#012394" opacity="0.36363636363636365" stroke-width="1" class="ridgewood"/>
<path d="M 3791.5323 2976.4374 3783.1909 2966.304 3803.3155 2959.8279 3791.5323 2976.4374 Z" fill="none" stroke="#012394" opacity="0.36363636363636365" stroke-width="1" class="ridgewood"/>
<path d="M 3782.3695 3063.1228 3791.7776 3202.3633 3803.8043 3194.0498 3818.602 3180.1998 3818.6046 3182.5054 3841.7315 3166.3403 3884.2896 3142.3134 3910.1911 3125.683 3906.4814 3120.1544 3935.1705 3112.7419 3974.0327 3097.9384 3985.1022 3067.4935 4042.4481 3032.3775 4083.1657 3024.0228 4087.7604 3000.0425 4086.8025 2976.9926 4082.6276 2970.0831 4074.7293 2947.9656 4068.6825 2925.8459 4065.8792 2906.4882 4067.2497 2893.5788 4061.6681 2872.8426 4059.3303 2855.3291 4049.1261 2837.8267 4038.9261 2823.0902 3686.172 3139.7607 3608.3811 3110.3234 3562.0537 3062.4121 3560.1992 3058.7252 3541.6453 3009.8697 3549.937 2962.8384 3583.2097 2906.5683 3620.1946 2865.9698 3628.9894 2868.7276 3681.2655 2853.4666 3691.4418 2849.308 3710.4094 2844.4492 3719.8942 2843.0568 3725.677 2841.6681 3748.8084 2836.3433 3798.7838 2836.29 3834.873 2832.5622 3844.1198 2825.6375 3863.5539 2825.1541 3872.1114 2822.6089 3902.1916 2824.8779 3905.0804 2822.224 3902.195 2827.7588 3917.5802 2827.164 3931.8067 2825.1875 3937.2467 2827.4855 3949.7404 2827.47 3968.1256 2820.8783 3994.0342 2817.6183 4019.9474 2818.0452 4037.0764 2824.0146 4035.6897 2825.1688 3782.3695 3063.1228 Z" fill="none" stroke="#012394" opacity="0.36363636363636365" stroke-width="1" class="ridgewood"/>
<path d="M 3949.7662 2940.2934 3934.0919 2989.1804 3833.3785 3147.9056 3514.6796 2855.9182 3520.2296 2852.2261 3526.7117 2856.8305 3532.2646 2856.826 3847.8802 2876.7996 3949.7662 2940.2934 Z" fill="none" stroke="#012394" opacity="0.36363636363636365" stroke-width="1" class="ridgewood"/>
<path d="M 3946.9837 2935.6869 3940.5391 2963.3553 3926.7073 3005.7866 3901.7584 3041.7782 3799.0158 3048.3509 3756.4462 3059.4619 3597.118 2935.1377 3641.4939 2879.7793 3677.5738 2864.0723 3834.921 2874.9704 3946.9837 2935.6869 Z" fill="none" stroke="#012394" opacity="0.36363636363636365" stroke-width="1" class="ridgewood"/>
<path d="M 3838.703 3149.0523 3709.0288 3083.7163 3683.5927 2867.2932 3683.1288 2866.1412 3836.0776 2874.7386 3901.9354 2996.5961 3838.703 3149.0523 Z" fill="none" stroke="#012394" opacity="0.36363636363636365" stroke-width="1" class="ridgewood"/>
<path d="M 3610.6845 2925.2908 3734.592 2810.8521 3841.0896 2873.4266 3969.1308 2883.4144 4101.0432 3010.4745 3848.4994 3147.2741 3836.4706 3152.8211 3587.2675 2960.0406 3610.6845 2925.2908 Z" fill="none" stroke="#012394" opacity="0.36363636363636365" stroke-width="1" class="ridgewood"/>
<path d="M 3778.461 2871.3449 3963.5784 2884.0355 3875.0351 3145.0909 3745.5614 3051.8658 3777.212 3001.3482 3779.5204 2996.0438 3773.0476 3002.2747 3778.461 2871.3449 Z" fill="none" stroke="#012394" opacity="0.36363636363636365" stroke-width="1" class="ridgewood"/>
<path d="M 3947.5703 3104.178 3828.5495 3083.6651 3711.8875 3061.658 3504.8316 2942.4669 3491.2522 2801.1243 3648.4885 2706.9645 3737.8139 2649.5089 3826.5338 2553.5592 4040.9372 2599.0945 4141.1798 2816.4936 4100.7518 3023.076 4003.6986 3078.1088 3947.5703 3104.178 Z" fill="none" stroke="#012394" opacity="0.36363636363636365" stroke-width="1" class="ridgewood"/>
<path d="M 3509.1346 2866.0637 3510.9885 2869.75 3502.6568 2866.9908 4167.6893 2595.2281 4357.1423 3013.4581 3878.7491 3154.3086 3509.1346 2866.0637 Z" fill="none" stroke="#012394" opacity="0.36363636363636365" stroke-width="1" class="ridgewood"/>
<path d="M 3671.0927 2861.3127 3940.4508 2892.3621 4067.2275 2877.4447 4113.6912 3009.2265 3785.1356 3052.9765 3617.4555 2907.4601 3671.0927 2861.3127 Z" fill="none" stroke="#012394" opacity="0.36363636363636365" stroke-width="1" class="ridgewood"/>
<path d="M 3672.9428 2860.389 3808.8652 2746.8585 3836.7647 2868.5148 3672.9428 2860.389 Z" fill="none" stroke="#012394" opacity="0.36363636363636365" stroke-width="1" class="ridgewood"/>
<path d="M 3906.3889 3043.6168 3740.9303 3273.4336 3465.7571 3029.2926 3738.6045 2813.3066 3740.9294 3272.5112 3739.3048 3268.3625 3735.8357 2820.6845 3852.5386 2903.5309 3874.8175 2959.7467 3889.6884 3011.3638 3906.3889 3043.6168 Z" fill="none" stroke="#012394" opacity="0.36363636363636365" stroke-width="1" class="ridgewood"/>
<path d="M 3646.8634 2930.9436 3647.5535 2926.5635 3649.3832 2903.7428 3666.0145 2873.9941 3749.0733 2868.6102 3895.089 2883.1979 3949.7754 2947.6695 3935.0403 3007.6204 3758.2404 3005.0565 3749.926 3020.7405 3646.8634 2930.9436 Z" fill="none" stroke="#012394" opacity="0.36363636363636365" stroke-width="1" class="ridgewood"/>
<path d="M 3843.2506 2874.961 3928.7014 2933.8656 3939.4067 2983.1805 3904.5384 3044.3106 3879.1204 3076.6151 3852.784 3116.7595 3840.3226 3148.5893 3811.4066 3161.7633 3732.4243 3104.4411 3750.9142 3080.6766 3641.6068 3001.4837 3655.2447 2985.335 3691.0681 2940.1213 3661.195 2915.4869 3640.5906 2903.751 3676.6474 2863.1512 3843.2506 2874.961 Z" fill="none" stroke="#012394" opacity="0.36363636363636365" stroke-width="1" class="ridgewood"/>
<path d="M 3699.8989 2978.3765 3792.2243 2761.6259 4038.4633 2823.0908 4094.1983 2970.5279 3782.3526 3047.4469 3699.8989 2978.3765 Z" fill="none" stroke="#012394" opacity="0.36363636363636365" stroke-width="1" class="ridgewood"/>
<path d="M 3841.7105 3147.8961 3843.5767 3160.8049 3816.7904 3216.1697 3838.1351 3260.4157 3812.2593 3304.7168 3796.5034 3290.8989 3781.6748 3278.0023 3779.7963 3253.1017 3791.7967 3219.8863 3827.8539 3174.6561 3781.5248 3138.5102 3797.9333 3116.5905 3725.4375 3061.3381 3737.6884 3047.2634 3673.3053 2996.8434 3684.8613 2982.0794 3607.057 2922.9125 3630.1686 2893.1581 3585.2502 2858.1644 3586.636 2855.3974 3583.8492 2843.4149 3584.0761 2838.3442 3592.1706 2834.4191 3603.7341 2828.8775 3621.5522 2832.0882 3652.5639 2841.2786 3633.3781 2860.6567 3837.4667 2875.4285 3950.6894 2938.4483 3941.4877 2981.7948 3921.1681 3017.7803 3856.4792 3110.0695 3841.7105 3147.8961 Z" fill="none" stroke="#012394" opacity="0.36363636363636365" stroke-width="1" class="ridgewood"/>
<path d="M 3675.2596 2863.6135 3841.8618 2874.5016 3953.0028 2937.9844 3936.4208 3001.1642 3852.7832 3116.0679 3606.8233 2920.3773 3642.8801 2877.4732 3675.2596 2863.6135 Z" fill="none" stroke="#012394" opacity="0.36363636363636365" stroke-width="1" class="ridgewood"/>
<path d="M 3621.1627 2912.9885 3719.2222 2864.9531 4020.9715 2892.2585 4033.9561 2912.5244 4217.3672 3011.8391 4275.0045 3166.6697 4176.8896 3179.7326 4002.9537 3268.5151 3854.7234 3193.0703 3584.1824 2960.9653 3621.1627 2912.9885 Z" fill="none" stroke="#012394" opacity="0.36363636363636365" stroke-width="1" class="ridgewood"/>
<path d="M 3608.2125 2921.298 3674.7956 2862.2311 3836.7699 2873.1245 3986.8165 2961.4526 3986.0743 3103.4558 3873.1771 3139.5599 3608.2125 2921.298 Z" fill="none" stroke="#012394" opacity="0.36363636363636365" stroke-width="1" class="ridgewood"/>
<path d="M 3837.6965 2874.0453 3952.5417 2939.3679 3936.8756 2994.7093 3918.4013 3026.0824 3851.8548 3113.7635 3606.3605 2920.3777 3674.792 2858.5434 3837.6965 2874.0453 Z" fill="none" stroke="#012394" opacity="0.36363636363636365" stroke-width="1" class="ridgewood"/>
<path d="M 3605.899 2921.7611 4177.8614 2591.5262 4583.5986 2843.4025 4030.5898 3163.3397 3978.6602 3097.0103 3860.2121 3135.8863 3605.899 2921.7611 Z" fill="none" stroke="#012394" opacity="0.36363636363636365" stroke-width="1" class="ridgewood"/>
<path d="M 3673.8718 2864.0758 3841.2211 2718.2464 3918.9306 2701.5626 4140.8804 2610.936 4190.1021 2732.5333 4270.7856 2843.0309 4288.5807 2973.9227 4249.7444 2998.8798 3775.8738 3048.3759 3604.5086 2919.4573 3673.8718 2864.0758 Z" fill="none" stroke="#012394" opacity="0.36363636363636365" stroke-width="1" class="ridgewood"/>
<path d="M 3906.3889 3043.6168 3840.6682 3045.5381 3813.8594 3077.8425 3609.138 2921.2972 3673.8709 2863.1539 3838.623 2874.9662 3852.512 2880.482 3952.5429 2940.2899 3906.3889 3043.6168 Z" fill="none" stroke="#012394" opacity="0.36363636363636365" stroke-width="1" class="ridgewood"/>
<path d="M 3684.1664 2981.3886 3639.9359 2946.3936 3602.655 2916.693 3891.1496 2684.0826 3977.4624 2884.9397 3936.9305 3038.9689 3814.7513 3047.4115 3772.176 3052.9904 3725.8984 3059.4934 3684.1664 2981.3886 Z" fill="none" stroke="#012394" opacity="0.36363636363636365" stroke-width="1" class="ridgewood"/>
<path d="M 3776.8044 3052.9855 3775.6481 3053.6783 3677.2183 2975.1715 3735.6843 2898.5873 3841.4132 2886.9484 3902.224 3044.0829 3776.8044 3052.9855 Z" fill="none" stroke="#012394" opacity="0.36363636363636365" stroke-width="1" class="ridgewood"/>
<path d="M 3833.9976 2876.8154 3903.6108 3042.6981 3906.4647 3106.3218 3897.2261 3122.0099 3841.7094 3146.9739 3586.0192 2944.3674 3586.9407 2939.7566 3644.2645 2873.3232 3676.6457 2861.3074 3833.9976 2876.8154 Z" fill="none" stroke="#012394" opacity="0.36363636363636365" stroke-width="1" class="ridgewood"/>
<path d="M 4482.8707 2925.6447 3842.6383 3149.7395 3784.4128 3241.1068 3781.6947 3296.449 3498.2045 3092.8943 3447.2479 3034.8387 3503.5722 2854.0831 3726.628 2866.7894 4008.9239 2880.2891 4154.2052 2863.4918 4318.0683 2893.6608 4464.3513 2921.0682 4482.8707 2925.6447 Z" fill="none" stroke="#012394" opacity="0.36363636363636365" stroke-width="1" class="ridgewood"/>
<path d="M 3839.6477 3150.8723 3582.3246 2950.407 3605.5021 2921.4816 3624.4521 2895.1884 3644.3334 2876.2701 3675.3766 2865.4752 3737.397 2870.6145 3777.7194 2873.651 3842.0888 2875.4825 3862.4028 2888.6353 3903.4622 2912.2458 3951.0493 2935.7673 3948.836 2951.6099 3945.3774 2975.7103 3935.3331 2995.1194 3918.3531 3026.7973 3906.7902 3044.1472 3880.8356 3077.6512 3864.659 3097.7268 3854.2884 3118.6224 3839.6477 3150.8723 Z" fill="none" stroke="#012394" opacity="0.36363636363636365" stroke-width="1" class="ridgewood"/>
<path d="M 3610.9908 2923.1395 3891.1551 2688.6914 4004.5624 3083.1444 3902.7817 3122.9254 3774.9137 3016.1037 3732.3339 3016.1483 3610.9908 2923.1395 Z" fill="none" stroke="#012394" opacity="0.36363636363636365" stroke-width="1" class="ridgewood"/>
<path d="M 3869.4719 3137.7199 3600.8056 2918.5386 3633.1652 2880.709 3670.1743 2868.689 3776.6061 2867.6592 3848.8036 2874.9546 3906.3912 3045.461 3901.8648 3130.3039 3869.4719 3137.7199 Z" fill="none" stroke="#012394" opacity="0.36363636363636365" stroke-width="1" class="ridgewood"/>
<path d="M 3594.8053 2936.5227 3674.7969 2863.614 4174.1089 2867.15 4462.9654 2922.4537 4349.2875 3021.3089 3975.3706 3058.2848 3983.3007 3106.2259 3846.3446 3152.5018 3581.6285 2951.0558 3594.8053 2936.5227 Z" fill="none" stroke="#012394" opacity="0.36363636363636365" stroke-width="1" class="ridgewood"/>
<path d="M 3873.1663 3130.338 3607.7513 2923.1424 3676.6866 2903.7169 4194.0197 2875.4175 4197.9021 2994.3495 3920.6733 3086.2477 3881.2691 3132.4034 3873.1663 3130.338 Z" fill="none" stroke="#012394" opacity="0.36363636363636365" stroke-width="1" class="ridgewood"/>
<path d="M 3839.1667 3149.7434 3724.6283 3062.1458 3748.8952 3030.8845 3608.5605 2922.3349 3674.5658 2863.9599 3837.6979 2875.313 3937.3753 2931.2041 3944.3736 2976.4895 3920.3664 3024.4664 3839.1667 3149.7434 Z" fill="none" stroke="#012394" opacity="0.36363636363636365" stroke-width="1" class="ridgewood"/>
<path d="M 3561.9802 2975.2757 3635.4815 2883.4727 3673.8709 2863.1539 3837.2348 2874.9678 3905.4633 3043.6179 3572.254 3083.1514 3483.798 3016.831 3561.9802 2975.2757 Z" fill="none" stroke="#012394" opacity="0.36363636363636365" stroke-width="1" class="ridgewood"/>
<path d="M 3836.772 2874.9683 3931.2445 2932.0185 3940.1004 2982.7186 3902.9179 3043.8515 3814.2892 3048.1035 3724.0487 3061.109 3782.7504 2987.0504 3711.8842 2930.8807 3755.7861 2871.369 3836.772 2874.9683 Z" fill="none" stroke="#012394" opacity="0.36363636363636365" stroke-width="1" class="ridgewood"/>
<path d="M 3673.8718 2864.0758 3778.461 2871.3449 3838.1592 2874.0448 3901.7595 3042.7003 3775.8778 3052.0644 3723.1235 3061.571 3581.8595 2950.5946 3636.1763 2884.1635 3673.8718 2864.0758 Z" fill="none" stroke="#012394" opacity="0.36363636363636365" stroke-width="1" class="ridgewood"/>
<path d="M 4351.46 2936.9384 4118.2402 2953.8973 4014.5867 2963.2603 3972.9196 2951.3282 3872.8852 2890.5998 3771.951 2841.8504 3732.0924 2780.1262 3639.4416 2662.2272 3556.0287 2500.0895 4073.9954 2418.4184 4399.8147 2532.1833 4140.9381 2650.5692 4477.2773 2903.5273 4351.46 2936.9384 Z" fill="none" stroke="#012394" opacity="0.36363636363636365" stroke-width="1" class="ridgewood"/>
<path d="M 4226.4764 2916.6257 4227.1884 2928.1494 4198.2425 2913.6725 4210.4708 2890.6047 4214.1686 2887.8331 4226.4764 2916.6257 Z" fill="none" stroke="#012394" opacity="0.36363636363636365" stroke-width="1" class="ridgewood"/>
<path d="M 3911.0162 3042.6891 3842.6163 3130.3733 3836.1662 3157.1245 3812.1112 3170.9847 3770.408 3131.3751 3784.2666 3105.5393 3715.9436 3055.815 3728.8869 3039.8956 3705.0326 3021.4778 3716.356 3005.7912 3607.5193 2922.4511 3629.7044 2891.5451 3584.5551 2857.0126 3838.6251 2876.8101 3946.986 2937.5309 3925.7998 3020.5409 3911.0162 3042.6891 Z" fill="none" stroke="#012394" opacity="0.36363636363636365" stroke-width="1" class="ridgewood"/>
<path d="M 3758.5564 2865.3735 3839.9992 2864.3624 3913.313 3028.3938 3867.0607 3054.7288 3710.6329 3067.8079 3634.6862 3025.0029 3593.8668 2921.7717 3669.2448 2864.5412 3758.5564 2865.3735 Z" fill="none" stroke="#012394" opacity="0.36363636363636365" stroke-width="1" class="ridgewood"/>
<path d="M 3635.9409 2879.7845 3682.1968 2859.4581 3748.841 2867.6885 3846.9473 2870.347 3947.9127 2938.4517 3947.9704 2984.5529 3922.0949 3018.7012 3914.7245 3047.2951 3919.4374 3116.4499 3871.3288 3142.3287 3615.6152 2919.4474 3613.7476 2901.0096 3635.9409 2879.7845 Z" fill="none" stroke="#012394" opacity="0.36363636363636365" stroke-width="1" class="ridgewood"/>
<path d="M 3674.7956 2862.2311 3962.6552 2885.8805 3860.1897 3116.5204 3738.127 3248.534 3506.5259 3079.9778 3462.9808 3030.2168 3674.7956 2862.2311 Z" fill="none" stroke="#012394" opacity="0.36363636363636365" stroke-width="1" class="ridgewood"/>
<path d="M 3591.5581 2927.7666 3881.9073 2693.3112 4139.0553 2628.4509 4276.3517 2851.3193 4104.4466 3017.5383 3773.1194 3069.5876 3591.5581 2927.7666 Z" fill="none" stroke="#012394" opacity="0.36363636363636365" stroke-width="1" class="ridgewood"/>
<path d="M 3607.2881 2922.6818 3644.2685 2877.7024 3675.2601 2864.0745 3836.771 2874.0464 3871.5607 2944.9983 3889.2091 2997.5333 3900.831 3040.3961 3909.2606 3121.7648 3962.1057 3182.7957 3894.6362 3278.7964 3877.1015 3327.702 3483.1025 3015.2179 3562.4421 2974.1228 3607.2881 2922.6818 Z" fill="none" stroke="#012394" opacity="0.36363636363636365" stroke-width="1" class="ridgewood"/>
<path d="M 3574.541 2511.1328 3776.4965 2765.3302 3774.6595 2778.238 3759.8354 2761.6606 3717.3136 2807.797 3574.541 2511.1328 Z" fill="none" stroke="#012394" opacity="0.36363636363636365" stroke-width="1" class="ridgewood"/>
<path d="M 3665.538 2859.4742 3843.2506 2874.961 3943.2848 2938.4575 3919.3259 3025.1592 3900.8349 3043.6235 3897.2095 3108.1773 3870.3955 3135.8744 3839.8579 3146.976 3585.1016 2953.5883 3665.538 2859.4742 Z" fill="none" stroke="#012394" opacity="0.36363636363636365" stroke-width="1" class="ridgewood"/>
<path d="M 3823.2938 3155.9816 3814.2494 3162.7642 3790.0458 3144.895 3805.061 3122.3624 3717.4684 3055.5 3728.7652 3039.2116 3705.241 3020.6025 3716.22 3007.5672 3609.3419 2920.5318 3642.3702 2876.835 3612.0562 2858.437 3837.5012 2874.9252 3902.4486 3044.6987 3825.7424 3156.3148 3817.8351 3122.0871 3823.2938 3155.9816 Z" fill="none" stroke="#012394" opacity="0.36363636363636365" stroke-width="1" class="ridgewood"/>
<path d="M 3836.7699 2873.1245 3907.4105 3122.9198 3764.0339 3231.9057 3481.9455 3015.2187 3672.9446 2862.2329 3836.7699 2873.1245 Z" fill="none" stroke="#012394" opacity="0.36363636363636365" stroke-width="1" class="ridgewood"/>
<path d="M 3652.795 2890.1979 3620.1188 2918.1941 3665.4295 2874.8198 3736.6472 2829.5753 3800.4447 2775.1173 3816.8684 2807.0747 3828.9354 2839.3274 3866.5194 2910.3207 3878.6655 3007.1187 3895.5585 3055.182 3865.972 3085.6472 3835.2428 3078.2436 3740.2945 3024.2489 3686.5985 3016.004 3636.5668 2965.3387 3615.2855 2973.6563 3652.795 2890.1979 Z" fill="none" stroke="#012394" opacity="0.36363636363636365" stroke-width="1" class="ridgewood"/>
<path d="M 3606.3614 2921.2997 3598.9569 2921.3062 3808.8652 2746.8585 3836.7699 2873.1245 3892.4609 3007.6722 3943.4056 3035.2725 3969.3653 3067.5137 3980.5199 3103.463 3873.1739 3136.7933 3774.0244 3050.2221 3606.3614 2921.2997 Z" fill="none" stroke="#012394" opacity="0.36363636363636365" stroke-width="1" class="ridgewood"/>
<path d="M 3656.2865 2863.1706 3741.9014 2869.3091 3844.6399 2875.8813 4003.4776 2961.7382 4115.4652 2955.1307 4091.4232 2971.7612 4108.1509 3018.7625 3774.9511 3051.1433 3608.2083 2916.6881 3656.2865 2863.1706 Z" fill="none" stroke="#012394" opacity="0.36363636363636365" stroke-width="1" class="ridgewood"/>
<path d="M 3833.0768 2880.9651 3898.0501 3037.1721 3778.1915 3051.6008 3605.8965 2918.9951 3833.0768 2880.9651 Z" fill="none" stroke="#012394" opacity="0.36363636363636365" stroke-width="1" class="ridgewood"/>
<path d="M 3788.6875 2913.7439 3671.0432 2809.6863 3911.4899 2670.2319 3930.2314 2861.0287 3975.6101 2884.0201 3995.9343 2855.4139 3993.1099 2818.5414 3788.6875 2913.7439 Z" fill="none" stroke="#012394" opacity="0.36363636363636365" stroke-width="1" class="ridgewood"/>
<path d="M 3903.1496 3044.0818 3856.0222 3115.142 3752.0453 3055.778 3596.425 2936.5213 3648.6613 2874.0105 3676.4156 2862.6905 3754.3576 2832.8804 3788.1097 2807.4926 3811.0004 2794.7918 3819.7876 2790.8641 3811.6408 2746.3946 3843.2795 2900.3146 3901.2867 3034.402 3903.1496 3044.0818 Z" fill="none" stroke="#012394" opacity="0.36363636363636365" stroke-width="1" class="ridgewood"/>
<path d="M 3610.066 2924.0623 3815.3521 2755.1477 3980.3551 2975.2914 3853.6967 3105.4619 3785.1346 3052.0544 3610.066 2924.0623 Z" fill="none" stroke="#012394" opacity="0.36363636363636365" stroke-width="1" class="ridgewood"/>
<path d="M 3832.4673 3160.8175 3552.6147 2843.9024 3810.7262 2756.0747 3971.8939 2872.9615 3832.4673 3160.8175 Z" fill="none" stroke="#012394" opacity="0.36363636363636365" stroke-width="1" class="ridgewood"/>
<path d="M 3674.3346 2864.0754 3840.0113 2874.9647 3951.151 2937.5257 3935.0312 3000.2439 3911.014 3040.8449 3777.2668 3052.5239 3724.0489 3061.3395 3656.657 3010.6902 3583.7106 2950.593 3616.3009 2909.9965 3636.1763 2884.1635 3647.7373 2875.6248 3663.001 2868.0044 3674.3346 2864.0754 Z" fill="none" stroke="#012394" opacity="0.36363636363636365" stroke-width="1" class="ridgewood"/>
<path d="M 3904.5376 3043.619 3777.7301 3052.9845 3605.4374 2923.1445 3809.7957 2751.4666 3904.5376 3043.619 Z" fill="none" stroke="#012394" opacity="0.36363636363636365" stroke-width="1" class="ridgewood"/>
<path d="M 3834.1519 3013.2724 3774.8821 2986.5978 3772.9817 2940.4985 3797.0295 2924.7986 3822.8822 2868.5304 3922.7935 2833.3805 3979.2186 2811.1843 4025.4282 2764.1091 4054.1508 2789.882 4090.2657 2806.4257 4119.9036 2822.9775 4152.3556 2864.4164 4149.6507 2913.284 4106.222 2964.0567 4096.0898 2999.1087 4095.2563 3064.5785 4011.0327 3075.7588 3939.7728 3091.5265 3918.4598 3074.0321 3879.5716 3066.7017 3863.824 3057.4989 3834.1519 3013.2724 Z" fill="none" stroke="#012394" opacity="0.36363636363636365" stroke-width="1" class="ridgewood"/>
<path d="M 3647.0418 2874.2425 3733.9706 2806.8582 3836.0787 2875.6606 3860.8593 2895.6846 3925.9264 2935.252 3936.8622 2983.8752 3889.9039 2997.9935 3901.0655 3042.9316 3777.7309 3053.6761 3714.9676 3005.7926 3655.9126 2957.4428 3610.0648 2922.6793 3647.0418 2874.2425 Z" fill="none" stroke="#012394" opacity="0.36363636363636365" stroke-width="1" class="ridgewood"/>
<path d="M 3837.2348 2874.9678 3951.6161 2939.3691 3986.0767 3105.3002 3873.6378 3137.715 3840.3228 3148.8199 3723.5861 3061.34 3685.6372 3065.9883 3561.517 2974.8151 3672.4831 2863.6162 3837.2348 2874.9678 Z" fill="none" stroke="#012394" opacity="0.36363636363636365" stroke-width="1" class="ridgewood"/>
<path d="M 3669.3573 2982.0944 3876.4973 2814.0763 4238.6426 3002.5854 3893.5539 3147.8356 3669.3573 2982.0944 Z" fill="none" stroke="#012394" opacity="0.36363636363636365" stroke-width="1" class="ridgewood"/>
<path d="M 3827.8124 3137.7676 3671.2341 3008.8322 3786.7268 2812.3339 3959.9183 2917.2308 3827.8124 3137.7676 Z" fill="none" stroke="#012394" opacity="0.36363636363636365" stroke-width="1" class="ridgewood"/>
<path d="M 3845.3746 3113.771 3726.7875 3023.5306 3639.7026 2944.3193 3608.1853 2890.873 3724.7845 2874.1668 3900.6377 2879.5035 3946.9018 2870.2273 3982.0876 2883.0898 4022.8287 2896.8658 4064.6044 2989.0099 3954.5402 3056.467 3928.6732 3098.9175 3845.3746 3113.771 Z" fill="none" stroke="#012394" opacity="0.36363636363636365" stroke-width="1" class="ridgewood"/>
<path d="M 3608.0977 2922.3353 3630.5151 2892.4663 3636.6394 2884.624 3643.8066 2878.6248 3650.0504 2874.9312 3674.797 2863.7292 3704.4157 2866.466 3728.8273 2867.9396 3738.8935 2869.3122 3787.1391 2872.7185 3845.1019 2875.1893 3950.5713 2936.4892 3947.8136 2951.7057 3943.9078 2974.0697 3936.6468 2996.7842 3918.6329 3026.1974 3906.1575 3043.6171 3879.8142 3076.1532 3865.9522 3096.4567 3854.174 3118.0259 3838.6479 3100.5225 3608.0977 2922.3353 Z" fill="none" stroke="#012394" opacity="0.36363636363636365" stroke-width="1" class="ridgewood"/>
<path d="M 3846.5637 2870.7199 3866.9958 2931.546 3902.3125 3052.2932 3876.2258 3056.9919 3611.4982 3078.475 3570.0581 2972.1634 3445.2771 2868.8777 3656.4344 2693.2439 3799.7815 2738.2348 3846.5637 2870.7199 Z" fill="none" stroke="#012394" opacity="0.36363636363636365" stroke-width="1" class="ridgewood"/>
<path d="M 4294.8323 2976.2177 3865.5341 3333.711 3780.5097 3055.2868 3610.528 2923.1399 3813.4998 2753.767 3839.0868 2875.8876 4294.8323 2976.2177 Z" fill="none" stroke="#012394" opacity="0.36363636363636365" stroke-width="1" class="ridgewood"/>
<path d="M 3676.4134 3100.347 3643.3072 3088.1599 3640.7192 3042.5171 3643.2297 3004.7094 3673.3037 2995.2298 3742.2577 2990.0898 3783.249 3020.2441 3809.2163 3064.7072 3795.835 3102.5298 3771.0891 3118.9249 3720.1753 3121.2832 3676.4134 3100.347 Z" fill="none" stroke="#012394" opacity="0.36363636363636365" stroke-width="1" class="ridgewood"/>
<path d="M 3674.7973 2864.0749 3992.2635 2879.3889 3854.6315 3113.2993 3610.9904 2922.6785 3674.7973 2864.0749 Z" fill="none" stroke="#012394" opacity="0.36363636363636365" stroke-width="1" class="ridgewood"/>
<path d="M 3672.0182 2861.3118 3843.2601 2883.2584 4082.9573 2874.657 4079.2579 2876.5061 4090.4868 2964.0789 4019.26 2997.3697 3915.6434 3041.7614 3857.4092 3113.7571 3767.5505 3055.7617 3610.0619 2919.4524 3672.0182 2861.3118 Z" fill="none" stroke="#012394" opacity="0.36363636363636365" stroke-width="1" class="ridgewood"/>
<path d="M 3837.6986 2875.8892 3904.5376 3043.619 3853.7084 3115.6057 3775.8778 3052.0644 3840.6671 3044.616 3777.5375 2873.1898 3837.6986 2875.8892 Z" fill="none" stroke="#012394" opacity="0.36363636363636365" stroke-width="1" class="ridgewood"/>
<path d="M 3652.4886 3007.4669 3659.668 3013.4536 3643.9524 3035.3679 3635.7316 3029.3819 3652.4886 3007.4669 Z" fill="none" stroke="#012394" opacity="0.36363636363636365" stroke-width="1" class="ridgewood"/>
<path d="M 3964.5004 2881.2684 3924.6696 3042.4419 3478.7678 3097.5199 3665.5415 2863.1619 3964.5004 2881.2684 Z" fill="none" stroke="#012394" opacity="0.36363636363636365" stroke-width="1" class="ridgewood"/>
<path d="M 3617.458 2910.226 3704.3876 2838.2323 3757.0902 2791.1625 3805.1708 2753.3153 3854.1792 2720.9969 3905.957 2685.9084 3944.8735 2728.2623 3974.5749 2798.284 4004.2226 2824.0582 4006.1316 2868.3075 3983.9481 2890.4631 3974.759 2942.1058 3987.7528 2969.7496 4000.786 3026.9004 3987.8459 3041.6707 3934.1774 3058.3366 3876.7695 3045.4963 3826.7934 3054.7749 3800.8742 3054.8036 3795.3221 3056.6539 3743.4474 3021.6693 3697.1229 2979.3013 3652.659 2942.4632 3617.458 2910.226 Z" fill="none" stroke="#012394" opacity="0.36363636363636365" stroke-width="1" class="ridgewood"/>
<path d="M 3836.7699 2873.1245 3947.9127 2938.4517 3936.8699 2990.099 3918.3957 3021.472 3903.842 3042.4673 3859.943 3103.3798 3838.2414 3150.2056 3818.8065 3155.9912 3814.8791 3162.4511 3708.5664 3084.1779 3722.8913 3060.8797 3674.9535 3026.3481 3688.1279 3009.738 3671.9171 2997.0753 3684.629 2981.1576 3607.2883 2922.9123 3638.4879 2881.8565 3673.8727 2864.9978 3807.9408 2747.7814 3836.7699 2873.1245 Z" fill="none" stroke="#012394" opacity="0.36363636363636365" stroke-width="1" class="ridgewood"/>
<path d="M 3660.9454 2896.3562 3676.6492 2864.9951 3967.2863 2888.6405 3896.2308 3063.9155 3787.9156 3055.7399 3629.5162 2938.7966 3660.9454 2896.3562 Z" fill="none" stroke="#012394" opacity="0.36363636363636365" stroke-width="1" class="ridgewood"/>
<path d="M 3606.3589 2918.5337 3889.2968 2682.2413 3994.1133 2878.4645 3946.057 2934.7661 3850.0075 3117.4544 3606.3589 2918.5337 Z" fill="none" stroke="#012394" opacity="0.36363636363636365" stroke-width="1" class="ridgewood"/>
<path d="M 3857.1439 2884.1645 4002.5093 2929.1619 4028.5187 2999.2015 3956.4776 3124.7036 3895.433 3170.8888 3725.0917 3176.6105 3641.6667 3066.0301 3634.2212 3022.6981 3637.8762 2971.0595 3630.43 2925.8879 3648.9136 2896.3676 3704.4279 2878.7969 3736.855 2911.9547 3782.1819 2888.8579 3857.1439 2884.1645 Z" fill="none" stroke="#012394" opacity="0.36363636363636365" stroke-width="1" class="ridgewood"/>
<path d="M 3607.2873 2921.7598 3621.1468 2895.4712 3647.041 2873.3206 3675.7219 2863.1521 3962.6506 2882.1927 3958.0335 2890.4961 3948.8487 2946.7486 3935.9511 2995.6325 3906.3856 3040.8505 3874.0358 3082.3845 3852.7816 3114.6846 3840.7847 3147.8972 3699.0389 3044.7666 3724.924 3011.5455 3607.2873 2921.7598 Z" fill="none" stroke="#012394" opacity="0.36363636363636365" stroke-width="1" class="ridgewood"/>
<path d="M 3673.8701 2862.232 3838.6241 2875.8882 3950.6917 2940.2923 3856.4835 3113.7582 3739.0614 3256.8338 3507.4559 3085.5099 3491.6628 3012.6756 3673.8701 2862.232 Z" fill="none" stroke="#012394" opacity="0.36363636363636365" stroke-width="1" class="ridgewood"/>
<path d="M 3610.0611 2918.5304 3680.3494 2863.1476 3958.952 2884.9633 3898.9946 3052.8468 3908.3496 3133.9849 3709.1752 2998.6524 3610.0611 2918.5304 Z" fill="none" stroke="#012394" opacity="0.36363636363636365" stroke-width="1" class="ridgewood"/>
<path d="M 3608.3138 2920.8231 3630.3972 2890.0693 3645.8077 2875.7142 3675.1062 2862.8807 3778.9748 2871.4827 3837.5946 2873.9809 3854.0898 2912.3754 3879.8703 2970.7405 3900.5117 3032.697 3902.0723 3044.9913 3866.6445 3094.7222 3854.8397 3117.2782 3840.4758 3149.0595 3726.2112 3062.0889 3736.993 3046.1991 3729.2702 3039.033 3739.0264 3025.1916 3608.3138 2920.8231 Z" fill="none" stroke="#012394" opacity="0.36363636363636365" stroke-width="1" class="ridgewood"/>
<path d="M 3926.127 3048.7787 3859.2773 2875.5179 4257.1727 2882.3489 4220.3849 3033.6178 3926.127 3048.7787 Z" fill="none" stroke="#012394" opacity="0.36363636363636365" stroke-width="1" class="ridgewood"/>
<path d="M 3608.2141 2923.142 3802.3916 2750.5529 3832.0622 2802.1432 3896.929 2873.9763 3958.0241 2883.1205 3976.5628 2905.224 3937.7223 2931.0885 4084.0077 2964.088 4109.9978 3015.6863 4067.4283 3023.1225 3967.5022 3058.2948 3982.3655 3098.8498 3833.3649 3135.917 3716.6378 3055.8143 3731.4356 3042.8898 3720.3191 3034.6022 3735.1175 3022.6 3608.2141 2923.142 Z" fill="none" stroke="#012394" opacity="0.36363636363636365" stroke-width="1" class="ridgewood"/>
<path d="M 3846.9579 2879.5664 3955.2615 2894.1875 3943.4159 3043.5714 3897.2305 3125.6986 3755.4674 3008.7477 3846.9579 2879.5664 Z" fill="none" stroke="#012394" opacity="0.36363636363636365" stroke-width="1" class="ridgewood"/>
<path d="M 3492.6488 3091.0543 3410.1155 2879.9656 3519.3026 2850.383 3838.6262 2877.7321 3907.3169 3045.4599 3492.6488 3091.0543 Z" fill="none" stroke="#012394" opacity="0.36363636363636365" stroke-width="1" class="ridgewood"/>
<path d="M 3906.2732 3043.6169 3910.4755 3073.9265 3899.3691 3075.6689 3906.2732 3043.6169 Z" fill="none" stroke="#012394" opacity="0.36363636363636365" stroke-width="1" class="ridgewood"/>
<path d="M 3905.451 3033.4749 3895.9776 3045.7041 3831.4143 3048.0844 3721.9645 3059.7279 3676.1104 3026.1165 3700.8382 2992.2063 3780.319 2877.7965 3844.1887 2886.0232 3939.5883 2943.0721 3946.0788 2952.2842 3905.451 3033.4749 Z" fill="none" stroke="#012394" opacity="0.36363636363636365" stroke-width="1" class="ridgewood"/>
<path d="M 3605.437 2922.6835 3550.3768 2935.1777 3513.7493 2849.9264 3958.0212 2880.8157 3962.1849 2879.8885 3939.1816 2988.252 3905.461 3041.7737 3856.0249 3117.4474 3779.582 3053.4436 3605.437 2922.6835 Z" fill="none" stroke="#012394" opacity="0.36363636363636365" stroke-width="1" class="ridgewood"/>
<path d="M 3680.378 2892.6498 3627.3593 3618.5563 3608.8732 3661.9389 3564.4196 3671.2046 3481.0619 3682.344 3358.744 3608.6138 3256.8139 3521.9471 3123.3187 3177.03 3313.997 3112.3845 3421.3382 3047.7665 3560.1108 2953.6097 3669.2452 2865.0022 3882.4479 3150.6154 3680.378 2892.6498 Z" fill="none" stroke="#012394" opacity="0.36363636363636365" stroke-width="1" class="ridgewood"/>
<path d="M 3777.7282 3051.1403 3745.3083 3030.8882 3728.6257 3010.6196 3712.8703 2991.2722 3674.9038 2974.7128 3648.9567 2942.4667 3612.8477 2929.5918 3621.1543 2903.7688 3646.1258 2884.3848 3682.2004 2863.1458 3722.9214 2862.1835 3749.7675 2868.6094 3794.2016 2877.7815 3815.4935 2882.3678 3832.1455 2875.8955 3891.3781 2875.8268 3959.8682 2877.5865 3957.1568 2929.2202 3945.2108 2998.3871 3917.497 3043.6033 3888.8669 3098.9656 3836.184 3172.8022 3812.102 3162.6847 3789.862 3143.3427 3771.3161 3114.7749 3754.6267 3089.8942 3775.9005 3073.2731 3777.7282 3051.1403 Z" fill="none" stroke="#012394" opacity="0.36363636363636365" stroke-width="1" class="ridgewood"/>
<path d="M 3849.0373 3078.7249 3716.5441 2962.6854 3722.884 2825.3072 3887.4691 2701.6005 3961.0352 3068.4464 3849.0373 3078.7249 Z" fill="none" stroke="#012394" opacity="0.36363636363636365" stroke-width="1" class="ridgewood"/>
<path d="M 3956.703 2883.5482 3903.8261 3037.7452 3839.1483 3163.7842 3576.965 3073.4862 3640.4631 2868.0228 3956.703 2883.5482 Z" fill="none" stroke="#012394" opacity="0.36363636363636365" stroke-width="1" class="ridgewood"/>
<path d="M 3606.3622 2922.2216 3647.0418 2874.2425 3716.4048 2824.3918 3787.6193 2781.9114 3839.4741 2809.5098 3909.8883 2875.8045 3995.1624 2973.4281 3971.1673 3028.7828 3760.1421 3053.0032 3717.1002 3055.3528 3729.3484 3038.5119 3721.2427 3032.5266 3731.4106 3018.4544 3606.3622 2922.2216 Z" fill="none" stroke="#012394" opacity="0.36363636363636365" stroke-width="1" class="ridgewood"/>
<path d="M 4344.998 2947.0913 3874.0888 3127.5704 3619.3149 2916.6781 3283.304 2850.5418 3721.9931 2859.4187 4026.505 2877.4999 4344.998 2947.0913 Z" fill="none" stroke="#012394" opacity="0.36363636363636365" stroke-width="1" class="ridgewood"/>
<path d="M 3886.8469 2956.9664 3798.1355 3089.8476 3764.7959 3076.9735 3715.7103 3053.971 3612.0006 3017.1858 3673.4122 2867.303 3839.1656 3148.8212 3807.9602 2765.296 3886.8469 2956.9664 Z" fill="none" stroke="#012394" opacity="0.36363636363636365" stroke-width="1" class="ridgewood"/>
<path d="M 3776.804 3052.5244 3610.066 2924.0623 3865.7322 2709.0003 3973.7579 2883.1005 4050.308 3026.3733 3776.804 3052.5244 Z" fill="none" stroke="#012394" opacity="0.36363636363636365" stroke-width="1" class="ridgewood"/>
<path d="M 3841.0172 3148.8191 3582.0889 2948.2894 3611.8211 2816.8858 3834.4588 2875.4319 3997.0064 2967.8935 3841.0172 3148.8191 Z" fill="none" stroke="#012394" opacity="0.36363636363636365" stroke-width="1" class="ridgewood"/>
<path d="M 3853.7073 3114.6836 3781.4329 3052.9805 3604.5111 2922.2233 3672.0208 2864.0776 3781.1285 2769.9344 3847.7968 2803.969 3870.031 2824.2247 3903.4131 2878.5782 3959.8717 2880.3524 3955.3161 2937.5204 3934.0964 2992.8686 3853.7073 3114.6836 Z" fill="none" stroke="#012394" opacity="0.36363636363636365" stroke-width="1" class="ridgewood"/>
<path d="M 3957.9167 2986.8261 3967.2122 3017.7035 3977.8868 3040.7421 3981.6161 3061.4848 3973.5059 3077.5873 3991.5955 3107.0728 3887.7577 3136.6221 3872.4918 3144.4788 3840.1018 3155.1216 3816.7014 3167.3345 3802.3759 3189.484 3651.408 3078.1213 3655.9186 3072.1245 3668.8617 3054.5919 3699.9488 3017.1186 3599.1107 2942.4543 3647.1834 2881.0993 3680.0262 2867.7 3781.9768 2875.0478 3847.7891 2878.0438 3951.6138 2937.5251 3957.9167 2986.8261 Z" fill="none" stroke="#012394" opacity="0.36363636363636365" stroke-width="1" class="ridgewood"/>
<path d="M 3836.3108 2876.3518 3965.4213 2877.5795 3912.8647 3040.3816 3687.4904 3067.8308 3561.5155 2972.971 3675.2579 2861.7697 3836.3108 2876.3518 Z" fill="none" stroke="#012394" opacity="0.36363636363636365" stroke-width="1" class="ridgewood"/>
<path d="M 3837.4654 2874.2761 3852.3178 2912.7509 3850.9239 2907.9121 3868.503 2902.5904 3925.9256 2934.5605 3874.3477 2953.7541 3892.4626 3009.0553 3835.0964 3029.8688 3757.8115 3037.3299 3509.7045 3002.0578 3491.0799 2856.3976 3768.2756 2866.7461 3837.4654 2874.2761 Z" fill="none" stroke="#012394" opacity="0.36363636363636365" stroke-width="1" class="ridgewood"/>
<path d="M 3851.8065 3140.1897 3760.9255 3043.5286 3769.2428 3030.6104 3754.3085 3032.6738 3698.1987 2989.7858 3608.9256 2922.8297 3619.8664 2906.2049 3639.3202 2885.5864 3669.8425 2864.814 3696.519 2866.1682 3724.2439 2868.5749 3751.9206 2870.7231 3776.2072 2875.4596 3827.0708 2875.355 3859.8966 2888.3349 3892.7033 2904.3625 3933.2113 2937.2594 3945.1304 2960.276 3938.8281 2989.3668 3924.5041 3008.2867 3918.9672 3022.1246 3948.0368 3037.5719 3979.6971 3046.6348 3974.2424 3098.2848 3851.8065 3140.1897 Z" fill="none" stroke="#012394" opacity="0.36363636363636365" stroke-width="1" class="ridgewood"/>
<path d="M 3838.621 2873.1224 3953.4661 2938.4448 3906.3923 3046.3831 3836.1568 3148.8246 3814.8773 3160.8372 3762.9932 3123.0833 3782.4102 3100.9305 3717.5663 3058.5797 3709.2277 3051.2112 3723.0943 3032.7552 3593.4149 2934.219 3641.4931 2878.8574 3673.8709 2863.1539 3838.621 2873.1224 Z" fill="none" stroke="#012394" opacity="0.36363636363636365" stroke-width="1" class="ridgewood"/>
<path d="M 3850.6642 2883.25 3909.1649 3042.6913 3712.0112 3057.6632 3714.6039 2874.177 3850.6642 2883.25 Z" fill="none" stroke="#012394" opacity="0.36363636363636365" stroke-width="1" class="ridgewood"/>
<path d="M 3838.623 2874.9662 3928.9277 2929.7163 3948.1444 2938.682 3940.7851 2975.1109 3904.3045 3042.2362 3853.0127 3114.4538 3837.0842 3150.2069 3822.5241 3168.8981 3821.598 3168.6686 3781.988 3138.7402 3797.932 3115.4378 3716.8695 3056.0446 3728.1922 3039.4352 3704.57 3021.7088 3716.1258 3006.944 3607.7507 2922.4509 3635.2518 2885.3168 3646.8118 2875.6256 3673.1781 2864.5375 3736.0519 2805.9342 3762.9257 2840.0161 3794.1763 2854.5027 3811.9983 2860.2452 3838.623 2874.9662 Z" fill="none" stroke="#012394" opacity="0.36363636363636365" stroke-width="1" class="ridgewood"/>
<path d="M 3742.4667 3025.0352 3612.7207 3076.1954 3669.843 2864.6866 4006.299 2881.0183 4012.5929 3030.6677 3742.4667 3025.0352 Z" fill="none" stroke="#012394" opacity="0.36363636363636365" stroke-width="1" class="ridgewood"/>
<path d="M 3768.4743 3053.9165 3601.736 2924.0697 3675.7255 2866.8398 3774.76 2872.2708 4045.0152 2877.475 4093.3336 3013.8657 3906.3934 3047.3052 3781.4378 3057.5911 3768.4743 3053.9165 Z" fill="none" stroke="#012394" opacity="0.36363636363636365" stroke-width="1" class="ridgewood"/>
<path d="M 3825.9785 3153.4471 3796.3233 3125.8141 3770.36 3086.189 3743.4798 3053.0206 3694.3787 3012.4981 3648.9929 2981.1916 3615.6219 2926.8233 3608.1656 2868.7464 3658.9627 2757.1523 3787.5046 2675.9047 3888.389 2696.9906 3950.5136 2798.3145 3987.6455 2886.7705 3965.5021 2941.1956 3983.2056 3032.4557 3980.5282 3109.9181 3880.5789 3135.8624 3825.9785 3153.4471 Z" fill="none" stroke="#012394" opacity="0.36363636363636365" stroke-width="1" class="ridgewood"/>
<path d="M 3837.6986 2875.8892 3963.5761 2882.1916 3907.3124 3041.7715 3604.6486 3077.1293 3506.4651 3002.5214 3602.6649 2927.7569 3671.0936 2862.2346 3837.6986 2875.8892 Z" fill="none" stroke="#012394" opacity="0.36363636363636365" stroke-width="1" class="ridgewood"/>
<path d="M 3842.323 2873.1181 3959.0254 2943.0478 3910.559 3047.3002 3909.7047 3106.3179 3873.1744 3137.2544 3607.7489 2920.3764 3682.2013 2864.0678 3842.323 2873.1181 Z" fill="none" stroke="#012394" opacity="0.36363636363636365" stroke-width="1" class="ridgewood"/>
<path d="M 3718.4924 3057.8231 3729.6872 3040.528 3711.6028 3028.8288 3724.6503 3012.7207 3641.1411 2948.4207 3609.4198 2925.8605 3602.3333 2926.4537 3586.1026 2877.6381 3577.9867 2857.1321 3576.1353 2856.6727 3586.6403 2857.9147 3673.7666 2865.3747 3779.4793 2873.2981 3837.6288 2876.9781 3951.0588 2938.8613 3936.6424 2998.1064 3903.1278 3044.1975 3879.8833 3079.4417 3854.7376 3119.4579 3838.3404 3150.1395 3815.168 3162.9128 3774.7842 3132.5709 3790.0378 3112.7276 3725.2078 3061.9659 3718.4924 3057.8231 Z" fill="none" stroke="#012394" opacity="0.36363636363636365" stroke-width="1" class="ridgewood"/>
<path d="M 3674.3346 2864.0754 3685.2108 2865.6782 3692.1527 2866.3629 3700.0194 2866.3551 3706.4993 2867.7316 3720.6132 2867.7174 3727.7861 2867.9406 3737.506 2870.005 3747.4561 2870.9167 3747.2125 2859.1623 3751.6036 2854.3177 3758.3034 2844.861 3763.3867 2838.4023 3770.3329 2843.235 3778.8988 2848.0658 3790.7029 2851.9712 3801.118 2854.9561 3813.1537 2858.861 3821.7204 2864.1526 3832.6007 2869.2109 3836.5412 2875.4296 3865.3028 2936.2465 3889.2083 2996.8418 3904.537 3043.158 3880.0467 3077.0751 3854.1736 3117.6801 3840.5551 3149.5113 3819.9645 3156.6816 3813.2595 3162.914 3683.7845 3064.607 3674.2901 3058.3918 3669.1935 3052.864 3662.2409 3042.2664 3670.7947 3033.2678 3677.9601 3024.5011 3684.4296 3014.1214 3689.977 3007.431 3699.9148 2994.5123 3689.0288 2984.3805 3676.5225 2973.5587 3661.4703 2961.8172 3649.4302 2953.9914 3639.7031 2944.7803 3628.127 2937.8759 3621.6405 2929.5838 3642.9028 2901.9049 3649.8354 2892.4484 3657.9262 2884.3737 3663.4705 2875.149 3673.1793 2865.6899 3674.3346 2864.0754 Z" fill="none" stroke="#012394" opacity="0.36363636363636365" stroke-width="1" class="ridgewood"/>
<path d="M 3724.9758 3062.4912 3585.3316 2951.9746 3628.091 2898.4612 3646.1202 2878.3921 3672.7172 2866.3818 3688.913 2865.9051 3837.7022 2879.116 3948.8464 2944.9046 3908.2409 3044.0756 3842.1697 3144.6679 3725.4435 3067.3319 3724.9758 3062.4912 Z" fill="none" stroke="#012394" opacity="0.36363636363636365" stroke-width="1" class="ridgewood"/>
<path d="M 3606.8241 2921.2992 3674.7973 2864.0749 3840.2487 2880.2656 3863.4589 2942.4722 3840.4819 2881.8787 3901.2977 3043.6229 3775.878 3052.2949 3606.8241 2921.2992 Z" fill="none" stroke="#012394" opacity="0.36363636363636365" stroke-width="1" class="ridgewood"/>
<path d="M 3835.8423 2871.2816 3907.309 3039.0052 3840.7784 3142.3639 3583.248 2950.8239 3562.8027 2853.113 3835.8423 2871.2816 Z" fill="none" stroke="#012394" opacity="0.36363636363636365" stroke-width="1" class="ridgewood"/>
<path d="M 3605.8982 2920.8391 3633.1459 2859.735 3837.4662 2874.9675 3903.3813 3044.312 3871.7863 3137.7172 3605.8982 2920.8391 Z" fill="none" stroke="#012394" opacity="0.36363636363636365" stroke-width="1" class="ridgewood"/>
<path d="M 3836.3074 2873.3555 3810.7231 2753.3092 3923.6331 2763.3176 3836.3074 2873.3555 Z" fill="none" stroke="#012394" opacity="0.36363636363636365" stroke-width="1" class="ridgewood"/>
<path d="M 3685.4412 2864.7561 3781.4702 2872.4941 3838.8542 2874.7355 3925.9259 2934.791 3938.0186 2983.4127 3902.4562 3044.7742 3844.4428 3108.4696 3823.1818 3136.159 3724.5115 3061.1085 3691.6264 3037.6276 3644.1512 3000.3287 3702.6231 2925.358 3663.0246 2892.8969 3685.4412 2864.7561 Z" fill="none" stroke="#012394" opacity="0.36363636363636365" stroke-width="1" class="ridgewood"/>
<path d="M 3853.7031 3110.9949 3742.5227 3022.5923 3804.4532 2942.3084 3893.2721 2911.7809 3950.6906 2939.3703 3931.3321 3003.0147 3896.2198 3054.6943 3853.7031 3110.9949 Z" fill="none" stroke="#012394" opacity="0.36363636363636365" stroke-width="1" class="ridgewood"/>
<path d="M 3608.2125 2921.298 3671.7914 2866.1522 3841.4019 2877.0374 3861.0904 2895.4538 3928.8334 3041.0537 3874.7972 3139.558 3608.2125 2921.298 Z" fill="none" stroke="#012394" opacity="0.36363636363636365" stroke-width="1" class="ridgewood"/>
<path d="M 3774.1138 3133.9072 3725.7866 3063.2973 3685.2915 3067.4871 3648.1521 3072.0179 3669.3094 3052.9792 3696.4648 3015.9538 3721.6562 2983.7718 3742.5709 2957.3572 3763.2688 2945.8104 3779.7119 2958.9316 3807.3584 2953.8304 3825.6811 2991.6134 3833.8129 3020.4188 3886.2618 3048.943 3774.1138 3133.9072 Z" fill="none" stroke="#012394" opacity="0.36363636363636365" stroke-width="1" class="ridgewood"/>
<path d="M 3703.4562 3065.2792 3706.932 3069.7711 3714.9214 3074.9501 3722.7934 3078.4002 3733.7911 3083.2302 3684.7073 3061.6092 3661.3163 3043.4199 3636.5275 3014.1668 3603.8414 2949.8838 3596.1618 2900.3338 3624.6008 2877.029 3675.9542 2864.0738 3690.98 2850.2304 3704.1572 2839.1545 3724.5049 2826.6884 3750.8349 2782.8724 3764.4909 2788.6196 3788.9977 2772.9219 3812.1117 2753.7686 3833.8388 2736.4602 3845.3983 2729.764 3861.3505 2720.7581 3889.089 2702.0595 3898.6091 2731.5453 3943.1038 2793.2535 3981.591 2856.8153 3987.8595 2873.402 3986.0547 2909.1301 4014.6154 2984.9281 4031.3426 3034.2367 4026.7943 3094.1808 3929.6183 3114.5931 3769.4504 3101.4055 3745.3719 3092.2092 3734.7147 3081.1544 3703.4562 3065.2792 Z" fill="none" stroke="#012394" opacity="0.36363636363636365" stroke-width="1" class="ridgewood"/>
<path d="M 3608.2133 2922.22 3632.2388 2879.7879 3672.9437 2861.3109 3835.8476 2875.8913 3891.5364 3008.5953 3978.6602 3097.0103 3830.6043 3150.6753 3724.5108 3060.4169 3748.0857 3031.3464 3608.2133 2922.22 Z" fill="none" stroke="#012394" opacity="0.36363636363636365" stroke-width="1" class="ridgewood"/>
<path d="M 3632.0412 2916.6665 3654.2282 2888.7564 3685.2103 2865.2173 3835.6154 2875.2001 3903.1474 3042.2376 3808.0747 3078.771 3776.8047 3053.216 3722.8425 3012.7002 3734.8605 2997.7043 3712.8586 2979.5162 3632.0412 2916.6665 Z" fill="none" stroke="#012394" opacity="0.36363636363636365" stroke-width="1" class="ridgewood"/>
<path d="M 3607.0563 2922.221 3608.6771 2923.3721 3674.7956 2862.2311 3680.3548 2868.6792 3962.6587 2888.6464 3969.1339 2885.8723 3870.3998 3139.5632 3872.2503 3138.6388 3634.1475 2942.4804 3607.0563 2922.221 Z" fill="none" stroke="#012394" opacity="0.36363636363636365" stroke-width="1" class="ridgewood"/>
<path d="M 3673.0491 2971.0264 3823.7612 2827.0433 3911.0207 3046.3775 3564.8487 3083.6188 3673.0491 2971.0264 Z" fill="none" stroke="#012394" opacity="0.36363636363636365" stroke-width="1" class="ridgewood"/>
<path d="M 3609.1413 2924.9851 3648.8946 2876.0847 3984.0005 2931.0299 3842.6394 3150.6617 3609.1413 2924.9851 Z" fill="none" stroke="#012394" opacity="0.36363636363636365" stroke-width="1" class="ridgewood"/>
<path d="M 3779.905 3138.7425 3796.7753 3115.9002 3725.2058 3061.1078 3736.762 3046.5727 3712.444 3027.6944 3723.7672 3011.7771 3695.9759 2989.4449 3608.4451 2922.6808 3645.888 2877.4704 3675.2616 2865.6879 3727.5019 2816.0836 3768.8769 2779.3964 3774.9231 2808.4286 3821.185 2799.1593 3842.2373 2797.9832 3837.3534 2775.6338 3872.2753 2764.9924 3872.7199 2749.5513 3841.2618 2753.9663 3837.9917 2726.5462 3852.3224 2715.6987 3859.5035 2723.9866 3886.5566 2712.4325 3896.9903 2732.0081 3921.3438 2783.14 3902.6188 2795.3773 3920.238 2824.856 3944.723 2793.0211 3980.8817 2845.0618 3989.7216 2881.9275 4003.8372 2883.0616 4065.6037 2874.4506 4068.8821 2902.7962 4073.5219 2911.5485 4088.1651 2958.55 4063.8702 2959.9668 4015.2818 2963.9509 3992.1336 2957.5271 3948.5994 2932.4579 3938.9451 2984.1031 3916.78 3024.9318 3878.6562 3075.463 3852.5509 3115.3765 3838.4713 3148.822 3835.008 3156.2036 3827.1567 3172.1207 3779.905 3138.7425 Z" fill="none" stroke="#012394" opacity="0.36363636363636365" stroke-width="1" class="ridgewood"/>
<path d="M 3609.3706 2922.68 3810.6548 2691.5492 3877.3967 2791.9504 3906.1484 2844.4636 3946.065 2941.2201 3972.3786 3071.1983 3920.329 3088.5535 3921.5237 3119.2139 3874.3327 3138.1753 3816.7312 3162.9102 3806.5421 3158.0798 3774.1125 3132.7544 3790.5203 3110.1434 3764.3479 3091.0366 3741.6497 3073.5397 3765.4558 3044.4681 3758.5043 3035.946 3705.9357 2998.8861 3663.554 2962.9677 3609.3706 2922.68 Z" fill="none" stroke="#012394" opacity="0.36363636363636365" stroke-width="1" class="ridgewood"/>
<path d="M 3583.711 2951.054 3948.8521 2949.5147 4060.3464 3090.2163 3840.554 3148.5891 3583.711 2951.054 Z" fill="none" stroke="#012394" opacity="0.36363636363636365" stroke-width="1" class="ridgewood"/>
<path d="M 3946.9837 2935.6869 3948.3818 2943.5222 3940.5488 2971.1926 3929.4819 3003.939 3903.1496 3044.0818 3820.863 3132.2423 3661.0565 3013.4523 3784.9435 2875.0257 3856.6859 2888.3138 3946.9837 2935.6869 Z" fill="none" stroke="#012394" opacity="0.36363636363636365" stroke-width="1" class="ridgewood"/>
<path d="M 3759.2659 3100.033 3733.3181 3073.3177 3707.4039 3078.8767 3675.0095 3084.4413 3654.6446 3085.3828 3636.1303 3085.4001 3589.8494 3090.9745 3577.7746 3043.9565 3582.3392 2970.1872 3665.5784 2901.8836 3771.0619 2875.9625 3874.6908 2851.8763 3951.5837 2913.5534 3944.2818 2995.6221 3891.6199 3078.6751 3905.579 3139.5214 3880.6867 3227.1638 3816.8315 3253.0612 3739.0301 3226.3981 3609.3126 3116.7778 3602.8177 3100.1846 3587.9988 3091.8982 3759.2659 3100.033 Z" fill="none" stroke="#012394" opacity="0.36363636363636365" stroke-width="1" class="ridgewood"/>
<path d="M 3608.2125 2921.298 3630.631 2892.6967 3644.0378 2878.3941 3674.7976 2864.3054 3729.1734 2867.0173 3836.5414 2875.6601 3850.2308 2908.8349 3870.1715 2944.3084 3889.21 2998.2249 3902.6868 3044.0823 3865.4891 3096.2267 3853.4788 3117.2198 3840.7884 3151.1249 3741.6502 3074.0008 3752.2799 3058.7746 3673.3055 2997.0739 3684.3985 2982.0799 3608.2125 2921.298 Z" fill="none" stroke="#012394" opacity="0.36363636363636365" stroke-width="1" class="ridgewood"/>
<path d="M 3823.2207 3170.9724 3557.3572 2981.2729 3729.3434 2806.863 3972.9444 2970.6907 3985.1629 3114.523 3823.2207 3170.9724 Z" fill="none" stroke="#012394" opacity="0.36363636363636365" stroke-width="1" class="ridgewood"/>
<path d="M 3584.172 2948.9791 3593.4198 2939.751 3609.1405 2924.0631 3636.8647 2877.9397 3700.714 2866.8154 3963.5772 2883.1135 3956.2452 2940.2853 4089.5593 2962.6972 4105.3781 3021.6864 3808.3041 3076.9265 3686.0983 3064.1436 3584.172 2948.9791 Z" fill="none" stroke="#012394" opacity="0.36363636363636365" stroke-width="1" class="ridgewood"/>
<path d="M 3682.2004 2863.1458 3840.473 2874.0422 3953.4742 2944.8988 3907.318 3046.382 3678.6936 3065.073 3559.2015 2972.973 3682.2004 2863.1458 Z" fill="none" stroke="#012394" opacity="0.36363636363636365" stroke-width="1" class="ridgewood"/>
<path d="M 3646.1181 2876.0873 3672.9437 2861.3109 3843.0197 2875.4222 3898.7072 2909.6999 3956.2417 2937.5193 3938.7234 2991.9408 3850.9333 3117.4533 3605.4366 2922.2225 3646.1181 2876.0873 Z" fill="none" stroke="#012394" opacity="0.36363636363636365" stroke-width="1" class="ridgewood"/>
<path d="M 3748.1358 3079.5268 3725.9031 3064.104 3637.8149 2904.6756 3721.9305 2797.6518 4233.2034 3076.3619 4091.903 3313.5893 3831.9836 3142.3739 3724.7425 3060.6472 3748.1358 3079.5268 Z" fill="none" stroke="#012394" opacity="0.36363636363636365" stroke-width="1" class="ridgewood"/>
<path d="M 4278.2662 2890.9595 4294.1358 2974.8357 3874.0953 3133.1035 3603.5831 2919.4582 3674.7956 2862.2311 3840.4741 2874.9641 3844.1814 2879.5696 4172.7234 2868.9959 4278.2662 2890.9595 Z" fill="none" stroke="#012394" opacity="0.36363636363636365" stroke-width="1" class="ridgewood"/>
<path d="M 3840.472 2873.1203 3897.0935 3011.3549 3910.1855 3121.0721 3857.4423 3142.3448 3590.6438 2940.6754 3607.2861 2920.3769 3661.8386 2862.2435 3840.472 2873.1203 Z" fill="none" stroke="#012394" opacity="0.36363636363636365" stroke-width="1" class="ridgewood"/>
<path d="M 3609.1479 2932.3611 3617.4597 2912.0699 3721.9548 2821.6206 3753.4174 2818.8225 3834.9116 2866.673 3853.4407 2883.2468 3914.5708 2920.975 3961.8547 2984.5354 3972.0741 3014.0283 3994.3987 3097.9121 3951.8477 3123.7872 3900.9003 3098.0291 3850.8443 3039.9938 3764.7637 3046.5435 3609.1479 2932.3611 Z" fill="none" stroke="#012394" opacity="0.36363636363636365" stroke-width="1" class="ridgewood"/>
<path d="M 3904.5332 3041.5868 3777.9309 3050.3323 3607.4938 2925.1009 3638.9219 2880.818 3679.6249 2860.4969 3839.5475 2875.6991 3904.5332 3041.5868 Z" fill="none" stroke="#012394" opacity="0.36363636363636365" stroke-width="1" class="ridgewood"/>
<path d="M 3495.4295 3095.6629 3408.2683 2885.4985 3488.7687 2859.6261 3809.8049 2759.763 3901.3692 2718.1759 4060.7514 2879.2975 4118.3366 3021.2068 3984.2312 3109.9134 3873.1771 3139.5599 3698.1341 3065.9761 3495.4295 3095.6629 Z" fill="none" stroke="#012394" opacity="0.36363636363636365" stroke-width="1" class="ridgewood"/>
<path d="M 3775.6924 2878.7234 3954.329 2888.6569 3768.5908 3163.6542 3462.9066 2929.7144 3714.3516 2930.1099 3775.6924 2878.7234 Z" fill="none" stroke="#012394" opacity="0.36363636363636365" stroke-width="1" class="ridgewood"/>
<path d="M 3608.6744 2920.3756 3674.3337 2863.1535 3965.8905 2882.6496 3858.7978 3113.7555 3608.6744 2920.3756 Z" fill="none" stroke="#012394" opacity="0.36363636363636365" stroke-width="1" class="ridgewood"/>
<path d="M 3831.3105 2956.1087 3827.4858 2847.321 3835.0003 2945.0404 4032.1063 2913.4489 4051.6168 2967.8208 4049.0204 3100.6059 3902.734 3083.2725 3831.3105 2956.1087 Z" fill="none" stroke="#012394" opacity="0.36363636363636365" stroke-width="1" class="ridgewood"/>
<path d="M 3841.4006 2875.885 3892.4719 3016.8929 3903.6797 3099.8701 3853.7296 3134.0494 3766.6102 3041.9311 3628.6008 2949.8615 3598.9065 2864.1449 3841.4006 2875.885 Z" fill="none" stroke="#012394" opacity="0.36363636363636365" stroke-width="1" class="ridgewood"/>
<path d="M 3843.4452 3045.5349 3906.3622 3021.4866 3910.0581 3015.9497 3846.6811 3143.1641 3843.5565 3143.0524 3842.8608 3141.9005 3843.4452 3045.5349 Z" fill="none" stroke="#012394" opacity="0.36363636363636365" stroke-width="1" class="ridgewood"/>
<path d="M 3905.4605 3041.3127 3905.0015 3044.5406 3811.638 3161.763 3807.003 3156.2349 3824.1114 3139.6162 3699.3777 3036.3521 3611.2257 2927.0577 3617.2254 2908.8432 3640.5706 2882.0851 3677.5774 2867.76 3779.3895 2874.1097 3842.3298 2879.1108 3856.2242 2889.2363 3942.3541 2934.3097 3941.0248 2981.7954 3905.4605 3041.3127 Z" fill="none" stroke="#012394" opacity="0.36363636363636365" stroke-width="1" class="ridgewood"/>
<path d="M 3597.1017 2916.6979 3665.5344 2855.7865 3772.8991 2863.0535 3837.7049 2881.4209 3891.554 3023.3485 3788.0504 3180.2334 3723.1802 3117.5914 3761.9896 3049.3128 3597.1017 2916.6979 Z" fill="none" stroke="#012394" opacity="0.36363636363636365" stroke-width="1" class="ridgewood"/>
<path d="M 3675.7228 2864.074 3968.2007 2879.8808 3882.8911 3134.0153 3839.2823 3149.628 3659.8992 3013.2229 3672.8427 2997.0744 3684.8607 2981.5032 3606.4768 2921.0691 3675.7228 2864.074 Z" fill="none" stroke="#012394" opacity="0.36363636363636365" stroke-width="1" class="ridgewood"/>
<path d="M 3609.1388 2922.2192 3620.2213 2895.472 3721.0312 2823.4653 3751.579 2830.809 3834.9179 2872.2046 3963.5714 2878.5038 3980.2686 2907.9851 3953.4592 2932.9128 3991.4492 2965.1347 3968.4326 3061.9821 3987.9163 3096.0762 3879.6597 3141.3967 3776.8044 3052.9855 3609.1388 2922.2192 Z" fill="none" stroke="#012394" opacity="0.36363636363636365" stroke-width="1" class="ridgewood"/>
<path d="M 3720.1533 2870.4837 3855.2343 2833.4608 3889.5238 2873.0632 3885.9366 2969.8759 3801.7129 2975.5042 3718.3822 2949.7752 3720.1533 2870.4837 Z" fill="none" stroke="#012394" opacity="0.36363636363636365" stroke-width="1" class="ridgewood"/>
<path d="M 3981.264 3037.0761 3925.7386 3049.1333 3893.3323 3042.8497 3847.0518 3045.6701 3781.4309 3051.1363 3730.4854 3018.9164 3685.0945 2983.9233 3654.4082 2958.1265 3609.028 2928.664 3649.7104 2883.4502 3678.8423 2866.5971 3716.4457 2864.9559 3817.3394 2877.756 3878.798 2880.0199 3948.9127 2880.3689 4050.3207 2877.1211 4175.6665 2868.4089 4247.3881 2885.8649 4191.9113 2921.9071 4143.8187 2946.8724 4115.1627 2972.7304 4111.5154 3011.4619 4039.6907 3040.7668 4001.1755 3040.1937 3981.264 3037.0761 Z" fill="none" stroke="#012394" opacity="0.36363636363636365" stroke-width="1" class="ridgewood"/>
<path d="M 3726.8239 3059.2619 3598.9561 2920.3842 3833.0648 2870.3628 3895.2698 3034.4092 3726.8239 3059.2619 Z" fill="none" stroke="#012394" opacity="0.36363636363636365" stroke-width="1" class="ridgewood"/>
<path d="M 3610.0636 2921.2964 3653.5135 2866.861 3675.7202 2861.3083 3777.5306 2866.7362 3845.0984 2872.193 3941.4314 2936.6158 3949.765 2939.3714 3935.0243 2994.7116 3911.005 3033.4681 3878.6557 3075.0019 3852.789 3121.1399 3840.7826 3146.0527 3814.8701 3154.3817 3813.0226 3158.0726 3787.0797 3138.7347 3802.7934 3116.5852 3751.836 3076.9871 3765.705 3061.2964 3734.2088 3039.1985 3739.7505 3027.2056 3610.0636 2921.2964 Z" fill="none" stroke="#012394" opacity="0.36363636363636365" stroke-width="1" class="ridgewood"/>
<path d="M 3445.3926 3029.3075 3673.8709 2863.1539 3843.2527 2876.8048 3893.2677 2908.093 3891.5331 3005.8291 3917.4723 3023.3173 3900.8271 3037.1688 3903.6897 3108.1695 3889.8322 3132.1627 3820.4228 3152.5311 3739.0719 3266.9792 3541.7513 3138.9682 3445.3926 3029.3075 Z" fill="none" stroke="#012394" opacity="0.36363636363636365" stroke-width="1" class="ridgewood"/>
<path d="M 3782.9664 2757.9486 4153.1077 2746.4155 4140.6046 3057.1366 3577.8293 3107.5837 3517.517 2932.4384 3786.669 2758.8665 3782.9664 2757.9486 Z" fill="none" stroke="#012394" opacity="0.36363636363636365" stroke-width="1" class="ridgewood"/>
<path d="M 3835.8486 2876.8133 3950.6883 2937.5263 3921.1794 3027.0011 3989.7821 3107.1397 3844.492 3151.5818 3556.4254 2973.8974 3671.0945 2863.1566 3835.8486 2876.8133 Z" fill="none" stroke="#012394" opacity="0.36363636363636365" stroke-width="1" class="ridgewood"/>
<path d="M 3609.1413 2924.9851 3899.4874 2692.3685 3998.7457 2882.1463 4053.336 2871.0101 4110.93 3020.2953 3771.2513 3053.9135 3609.1413 2924.9851 Z" fill="none" stroke="#012394" opacity="0.36363636363636365" stroke-width="1" class="ridgewood"/>
<path d="M 3673.8709 2863.1539 3859.9097 2874.9418 3949.7604 2935.6834 3939.6422 2986.4074 3913.7764 3028.8543 3878.6557 3075.0019 3861.0951 3098.9982 3840.7742 3138.6752 3828.7724 3168.1995 3816.733 3164.524 3800.0546 3151.6315 3816.694 3129.4804 3769.4441 3095.4115 3783.312 3078.798 3731.4328 3040.1235 3693.454 3013.421 3700.8519 3006.0372 3655.4644 2972.8872 3659.1572 2962.7414 3606.3614 2921.2997 3635.9451 2884.3942 3652.5932 2872.3934 3673.8709 2863.1539 Z" fill="none" stroke="#012394" opacity="0.36363636363636365" stroke-width="1" class="ridgewood"/>
<path d="M 3856.0278 2719.1512 3870.8162 2704.3855 4108.1269 3001.8579 3989.7426 3076.7088 3808.3896 3154.3889 3591.1147 2949.8951 3672.9543 2872.3741 3856.0278 2719.1512 Z" fill="none" stroke="#012394" opacity="0.36363636363636365" stroke-width="1" class="ridgewood"/>
<path d="M 3867.6118 3130.3445 3615.6161 2920.3694 3609.1322 2914.8433 3807.9398 2746.8596 3835.8465 2874.9694 3903.1502 3044.5428 3871.7868 3138.1783 3756.2015 2826.1947 3867.6118 3130.3445 Z" fill="none" stroke="#012394" opacity="0.36363636363636365" stroke-width="1" class="ridgewood"/>
<path d="M 3608.8113 2928.5139 3616.4174 2920.1211 3629.3418 2883.6917 3675.9098 2866.0426 3836.3703 2875.716 3859.3281 2896.5747 3930.5129 2931.3592 3931.6901 2955.2534 3937.383 2983.289 3901.7499 3041.7008 3778.8785 3051.6896 3608.8113 2928.5139 Z" fill="none" stroke="#012394" opacity="0.36363636363636365" stroke-width="1" class="ridgewood"/>
<path d="M 3807.1173 3049.9557 3630.168 2892.4666 3828.9778 2733.9308 3888.4095 2714.2738 3925.0478 2784.9792 3833.5017 2847.5447 3949.2967 2934.9925 3902.9302 3053.9947 3807.1173 3049.9557 Z" fill="none" stroke="#012394" opacity="0.36363636363636365" stroke-width="1" class="ridgewood"/>
<path d="M 3645.1968 2880.6978 3474.8786 2849.4955 3510.8394 2680.7723 4187.326 2732.5375 4072.0591 3024.9603 3805.4976 3050.188 3645.1968 2880.6978 Z" fill="none" stroke="#012394" opacity="0.36363636363636365" stroke-width="1" class="ridgewood"/>
<path d="M 3838.0094 3149.7447 3826.9245 3171.4293 3796.8138 3151.1739 3813.4523 3128.1007 3725.4379 3061.7992 3716.8697 3056.2751 3728.6553 3039.6653 3705.0324 3021.2473 3716.5882 3006.4825 3607.2873 2921.7598 3619.9987 2905.1528 3610.9699 2899.8596 3604.0049 2873.3598 3584.3237 2857.0128 3689.9533 2864.9822 3840.0124 2875.8866 3945.5942 2934.7666 3948.8458 2944.4436 3945.6333 2966.115 3935.9528 2997.0156 3904.0753 3044.0807 3852.7826 3115.6068 3838.0094 3149.7447 Z" fill="none" stroke="#012394" opacity="0.36363636363636365" stroke-width="1" class="ridgewood"/>
<path d="M 3769.1893 2855.682 3946.8926 2862.8519 3995.1444 2959.5977 3891.6018 3063.46 3809.3047 3144.7047 3727.8198 3128.1918 3765.7084 3064.5238 3769.1893 2855.682 Z" fill="none" stroke="#012394" opacity="0.36363636363636365" stroke-width="1" class="ridgewood"/>
<path d="M 3858.0619 2877.7098 3789.8315 3115.2161 3774.5804 3137.3649 3809.7911 3165.9151 3840.3255 3151.1254 3853.711 3117.9112 3960.8007 2883.117 3777.2762 3061.284 3798.1178 3073.7102 3777.7232 3046.5297 3614.6976 2928.2071 3671.0989 2867.7662 3858.0619 2877.7098 Z" fill="none" stroke="#012394" opacity="0.36363636363636365" stroke-width="1" class="ridgewood"/>
<path d="M 3729.5269 2986.6451 3822.9761 2952.43 3917.5375 3076.7996 3799.2024 3218.9559 3729.5269 2986.6451 Z" fill="none" stroke="#012394" opacity="0.36363636363636365" stroke-width="1" class="ridgewood"/>
<path d="M 3580.5835 3080.8389 3506.463 2999.7552 3678.4877 2852.0864 3846.9558 2877.7226 3908.2381 3041.7704 3899.0721 3117.3968 3943.616 3204.0307 3847.4921 3346.1841 3580.5835 3080.8389 Z" fill="none" stroke="#012394" opacity="0.36363636363636365" stroke-width="1" class="ridgewood"/>
<path d="M 3608.2149 2924.064 3713.6331 2829.0041 4416.2144 2916.5437 3910.2224 3151.5044 3608.2149 2924.064 Z" fill="none" stroke="#012394" opacity="0.36363636363636365" stroke-width="1" class="ridgewood"/>
<path d="M 3594.3486 2943.4382 3745.9736 2780.1119 3973.8794 2978.0658 3827.7906 3118.4018 3594.3486 2943.4382 Z" fill="none" stroke="#012394" opacity="0.36363636363636365" stroke-width="1" class="ridgewood"/>
<path d="M 3677.5774 2867.76 3787.7241 2878.7105 3792.3496 2876.8616 3831.1909 2850.0826 3878.5405 2977.2609 3841.597 3048.3034 3800.0152 3115.6661 3619.3524 2958.1681 3618.4002 2928.6648 3677.5774 2867.76 Z" fill="none" stroke="#012394" opacity="0.36363636363636365" stroke-width="1" class="ridgewood"/>
<path d="M 3877.5954 2960.6654 3820.0789 2844.5636 3728.7468 3014.9975 3622.223 2933.0389 3698.9539 2840.7711 3751.6598 2796.467 3838.772 2733.9989 3877.5954 2960.6654 Z" fill="none" stroke="#012394" opacity="0.36363636363636365" stroke-width="1" class="ridgewood"/>
<path d="M 3604.5143 2925.9112 3737.3963 2538.6272 3853.903 2481.3617 4037.1245 2516.1526 4183.41 2589.6746 4301.9353 2648.4776 4591.0203 2852.6074 4309.9073 2996.9392 3786.0613 3052.9755 3604.5143 2925.9112 Z" fill="none" stroke="#012394" opacity="0.36363636363636365" stroke-width="1" class="ridgewood"/>
<path d="M 3750.8892 3056.7013 3738.8505 3052.1032 3733.2747 3030.9006 3736.028 3007.8458 3614.6855 2914.8383 3630.3954 2888.0871 3715.5202 2864.9568 3722.9101 2851.1205 3819.1195 2814.1421 3969.1198 2874.809 3988.6581 2954.074 4015.6234 3047.167 3907.396 3110.9315 3832.3923 3094.4203 3791.6154 3052.9695 3750.8892 3056.7013 Z" fill="none" stroke="#012394" opacity="0.36363636363636365" stroke-width="1" class="ridgewood"/>
<path d="M 3775.8797 3053.9086 3605.4333 2918.5345 3678.4975 2862.2275 3846.9526 2874.9567 3951.6161 2939.3691 3948.963 3038.0318 3775.8797 3053.9086 Z" fill="none" stroke="#012394" opacity="0.36363636363636365" stroke-width="1" class="ridgewood"/>
<path d="M 3680.3494 2863.1476 3994.1133 2878.4645 3927.6318 3004.8634 3748.0844 3030.0785 3609.0226 2921.643 3645.657 2877.9316 3711.4201 2929.4982 3760.4475 3013.3529 3760.334 3015.4276 3723.3547 3061.3402 3983.2924 3099.7708 3781.4319 3052.0584 3680.3494 2863.1476 Z" fill="none" stroke="#012394" opacity="0.36363636363636365" stroke-width="1" class="ridgewood"/>
<path d="M 3835.8465 2874.9694 3959.1395 3033.4085 3892.4994 3039.9451 3486.168 3090.1371 3444.4642 3025.6198 3667.3916 2862.2382 3835.8465 2874.9694 Z" fill="none" stroke="#012394" opacity="0.36363636363636365" stroke-width="1" class="ridgewood"/>
<path d="M 3908.7026 3043.153 3690.2625 3062.7564 3521.1514 2847.6158 3813.0279 2745.4712 3908.7026 3043.153 Z" fill="none" stroke="#012394" opacity="0.36363636363636365" stroke-width="1" class="ridgewood"/>
<path d="M 3855.5567 3112.8371 3773.1047 3055.7558 3747.1845 3054.861 3595.2677 2936.0613 3597.1099 2925.9178 3586.8662 2854.0143 3599.7864 2812.5175 3889.3154 2697.9112 3942.0687 2705.2212 3979.0267 2661.8519 4043.7915 2657.1578 4141.1502 2796.2124 4155.1402 2869.9439 4201.6537 3026.6164 4170.2677 3084.7569 4136.043 3103.2502 4075.9459 3157.7446 3952.8523 3186.4963 3903.763 3169.0343 3872.2935 3175.5273 3877.8049 3138.6323 3855.5567 3112.8371 Z" fill="none" stroke="#012394" opacity="0.36363636363636365" stroke-width="1" class="ridgewood"/>
<path d="M 3900.4183 2696.9762 4095.107 2958.5403 3869.4008 3076.8571 3641.5196 2907.438 3763.5584 2781.9371 3900.4183 2696.9762 Z" fill="none" stroke="#012394" opacity="0.36363636363636365" stroke-width="1" class="ridgewood"/>
<path d="M 4026.5567 2916.2222 4091.0993 2740.9737 4398.3213 2738.6489 4443.0799 2930.3262 4026.5567 2916.2222 Z" fill="none" stroke="#012394" opacity="0.36363636363636365" stroke-width="1" class="ridgewood"/>
<path d="M 3634.1008 2891.7715 3643.3261 2859.4951 3792.3406 2868.5641 4059.8259 2879.2987 4132.2187 3019.3427 3982.3203 3063.8086 3863.868 3095.3064 3812.8969 3044.6472 3634.1008 2891.7715 Z" fill="none" stroke="#012394" opacity="0.36363636363636365" stroke-width="1" class="ridgewood"/>
<path d="M 3610.0627 2920.3744 3823.9058 2956.117 3814.6827 2985.6324 3800.8025 2989.3359 3868.1618 2808.5548 3985.7908 2884.007 3885.8994 2938.5273 3994.1289 2890.4499 3897.6445 2698.8231 4021.5844 2657.1876 4149.2036 2608.1588 4320.1029 3005.2211 3871.3213 3135.8733 3775.8827 3056.6749 3891.4452 2932.0667 3892.3674 2929.2997 3893.2897 2926.5326 3777.7291 3052.0624 3888.3824 2691.46 3679.4328 2872.3679 3610.0627 2920.3744 Z" fill="none" stroke="#012394" opacity="0.36363636363636365" stroke-width="1" class="ridgewood"/>
<path d="M 3841.7136 3150.6627 3687.9244 3038.3228 3618.3752 2901.0054 3672.9437 2861.3109 3836.7731 2875.8903 3890.6053 3003.9861 3986.9977 3101.6103 3841.7136 3150.6627 Z" fill="none" stroke="#012394" opacity="0.36363636363636365" stroke-width="1" class="ridgewood"/>
<path d="M 3671.0945 2863.1566 3837.6944 2872.2015 3943.2803 2934.7695 3915.6176 3020.5533 3848.1423 3105.4683 3609.1364 2919.4532 3671.0945 2863.1566 Z" fill="none" stroke="#012394" opacity="0.36363636363636365" stroke-width="1" class="ridgewood"/>
<path d="M 3662.9542 3062.3217 3623.9603 2936.0357 3712.7594 2880.6325 3819.1874 2874.9881 3921.0418 2914.5133 3960.0058 2986.3818 3975.8003 3032.4653 3662.9542 3062.3217 Z" fill="none" stroke="#012394" opacity="0.36363636363636365" stroke-width="1" class="ridgewood"/>
<path d="M 3724.2719 3053.0403 3775.3373 2979.4514 3875.7469 2962.9727 3901.2947 3041.0872 3890.2917 3129.3956 3804.033 3191.5134 3713.4659 3123.5954 3731.0123 3081.6193 3724.2719 3053.0403 Z" fill="none" stroke="#012394" opacity="0.36363636363636365" stroke-width="1" class="ridgewood"/>
<path d="M 3674.792 2858.5434 3842.3219 2872.1962 3934.0451 2951.3771 3893.4317 3045.4766 3832.4558 3150.6732 3578.6233 2954.516 3661.9803 3011.6073 3579.5322 2935.153 3674.792 2858.5434 Z" fill="none" stroke="#012394" opacity="0.36363636363636365" stroke-width="1" class="ridgewood"/>
<path d="M 3609.1405 2924.0631 3641.4914 2877.0135 3673.8727 2864.9978 3839.5486 2874.9652 3902.6885 3045.4655 3857.4092 3113.7571 3841.7115 3148.8183 3703.6636 3041.0736 3727.7028 3013.3868 3609.1405 2924.0631 Z" fill="none" stroke="#012394" opacity="0.36363636363636365" stroke-width="1" class="ridgewood"/>
<path d="M 3887.6487 2852.783 3934.2002 3076.7791 3776.9535 3192.2345 3632.3699 3022.6998 3686.8288 2864.0633 3887.6487 2852.783 Z" fill="none" stroke="#012394" opacity="0.36363636363636365" stroke-width="1" class="ridgewood"/>
<path d="M 3844.1719 2871.2722 3809.9394 2881.452 3842.3324 2881.4156 3844.1908 2887.8671 3866.4528 2930.2522 3855.2896 2881.4008 3945.3479 3108.1184 3898.1518 3122.0087 3814.8711 3155.304 3783.4323 3190.383 3783.4054 3165.4828 3768.5996 3171.9542 3699.1291 3136.0592 3675.0432 3119.4833 3625.0209 3084.4881 3585.164 3025.5082 3565.7104 3008.0055 3555.4852 2956.3796 3537.8718 2923.2021 3609.0812 2857.6824 3844.1719 2871.2722 Z" fill="none" stroke="#012394" opacity="0.36363636363636365" stroke-width="1" class="ridgewood"/>
<path d="M 3836.7919 2892.4853 3898.9869 3046.392 4066.7802 3012.9806 4141.5451 2867.198 4170.4251 3058.629 3779.3894 3041.3789 3745.915 2896.6554 3705.2128 2917.9021 3700.6398 2973.2271 3714.5591 3008.2512 3740.4969 3027.5885 3768.3019 3060.7551 3836.7919 2892.4853 Z" fill="none" stroke="#012394" opacity="0.36363636363636365" stroke-width="1" class="ridgewood"/>
<path d="M 3828.1913 3063.0724 3636.4355 2914.3575 3645.6925 2915.9624 3684.5175 2866.6008 3906.3884 3043.1558 3831.894 3063.0682 3828.1913 3063.0724 Z" fill="none" stroke="#012394" opacity="0.36363636363636365" stroke-width="1" class="ridgewood"/>
<path d="M 3840.3598 3149.4842 3777.7051 3052.494 3610.2532 2921.2008 3675.9147 2866.2833 3739.0315 2870.1692 3778.401 2872.6846 3837.8075 2875.5573 3859.2223 2895.9844 3926.317 2934.5036 3929.5865 2952.1329 3935.2733 2984.5096 3917.9185 3026.1897 3840.3598 3149.4842 Z" fill="none" stroke="#012394" opacity="0.36363636363636365" stroke-width="1" class="ridgewood"/>
<path d="M 3641.4931 2878.8574 3676.651 2866.8389 3830.2903 2872.2098 3956.2452 2940.2853 3947.1186 3043.5667 3750.8892 3056.7013 3657.7906 2985.7936 3644.3841 3001.9421 3589.7303 2954.5063 3586.0216 2947.1335 3641.4931 2878.8574 Z" fill="none" stroke="#012394" opacity="0.36363636363636365" stroke-width="1" class="ridgewood"/>
<path d="M 3838.621 2873.1224 3902.6885 3045.4655 3559.2921 3080.8571 3569.3729 2960.978 3675.7202 2861.3083 3838.621 2873.1224 Z" fill="none" stroke="#012394" opacity="0.36363636363636365" stroke-width="1" class="ridgewood"/>
<path d="M 3887.4848 3045.1739 3883.4348 3046.8103 3860.6058 3048.9734 3843.1121 3047.1588 3835.058 3046.8602 3822.5774 3048.4591 3811.4696 3048.8173 3808.3383 3042.366 3793.7674 3050.1046 3791.3885 3050.6565 3779.1248 3052.1682 3775.2778 3050.9798 3769.65 3048.6004 3770.2667 3045.9961 3765.403 3042.3128 3747.9478 3029.5447 3737.8264 3022.1576 3727.7309 3013.1869 3708.0707 2996.1472 3699.3875 2990.7388 3697.3258 2990.256 3686.4684 2981.7744 3677.1107 2971.9035 3662.7466 2961.6261 3661.7115 2968.0813 3651.8633 2953.5687 3649.1564 2959.9469 3644.5156 2946.121 3645.7776 2945.7244 3624.7156 2932.2602 3621.5891 2929.2666 3615.9148 2923.5093 3609.8972 2921.786 3610.9377 2920.9783 3613.2497 2918.9018 3616.8526 2913.3961 3628.5699 2894.3409 3629.2643 2894.5707 3633.998 2884.0792 3643.3837 2875.7642 3666.6285 2866.7535 3676.6409 2864.7328 3695.1864 2867.4476 3704.9633 2868.7632 3712.8424 2869.1183 3721.9304 2870.9136 3735.4659 2870.8998 3770.9909 2873.4165 3772.8438 2875.1432 3785.8414 2872.1695 3804.4812 2875.1648 3815.1675 2877.1547 3829.8558 2873.4505 3836.0812 2879.7617 3847.9175 2892.3224 3842.253 2896.1319 3859.2608 2897.1496 3867.6418 2902.6856 3882.1282 2908.5493 3890.4571 2907.7327 3903.6676 2925.5803 3898.3572 2935.2676 3902.4173 2944.137 3905.5331 2937.564 3942.0313 2939.4225 3944.2449 2951.7516 3950.9221 2958.6313 3940.6441 2974.0881 3932.5346 2965.6846 3936.5988 2977.5508 3937.4122 2980.3159 3936.7193 2981.354 3934.981 2979.1663 3923.6584 2972.7117 3924.8253 2980.7781 3924.1364 2985.0434 3916.6198 2988.395 3914.1933 2991.0489 3911.3055 2994.9711 3897.4248 2998.0998 3892.5661 2998.7972 3888.2853 2999.0328 3885.5126 3002.6091 3891.078 3012.2842 3889.6994 3020.5845 3888.7869 3031.6506 3887.4848 3045.1739 Z" fill="none" stroke="#012394" opacity="0.36363636363636365" stroke-width="1" class="ridgewood"/>
<path d="M 4104.4466 3017.5383 3842.2932 3150.668 3724.1413 3062.2745 3842.5213 3149.432 3583.9357 2952.8693 3677.219 2864.6977 4104.4466 3017.5383 Z" fill="none" stroke="#012394" opacity="0.36363636363636365" stroke-width="1" class="ridgewood"/>
<path d="M 3611.9147 2921.2947 3628.5536 2898.2303 3895.7872 2693.2947 3975.6007 2876.6446 3949.8101 2975.3302 3906.3812 3037.1621 3778.6469 3044.6845 3611.9147 2921.2947 Z" fill="none" stroke="#012394" opacity="0.36363636363636365" stroke-width="1" class="ridgewood"/>
<path d="M 3725.4377 3061.5687 3606.5942 2922.9129 3672.9463 2864.0767 3837.6986 2875.8892 3907.0835 3043.8465 3896.908 3049.6219 3901.8242 3096.5295 3900.2046 3096.8772 3893.9535 3094.8099 3883.4283 3098.9721 3861.917 3109.2563 3856.7209 3118.9452 3844.2565 3148.0085 3840.2079 3149.5117 3725.4377 3061.5687 Z" fill="none" stroke="#012394" opacity="0.36363636363636365" stroke-width="1" class="ridgewood"/>
<path d="M 3840.4709 2872.1983 3903.6119 3043.6202 3903.693 3110.936 3877.8005 3134.9435 3838.9289 3144.2105 3838.0079 3148.3614 3583.2484 2951.2849 3674.7929 2859.4653 3840.4709 2872.1983 Z" fill="none" stroke="#012394" opacity="0.36363636363636365" stroke-width="1" class="ridgewood"/>
<path d="M 3839.0848 2874.0438 3950.6848 2934.7603 3937.7989 2992.864 3900.371 3042.702 3721.0393 3060.1899 3658.5111 3013.6852 3731.4622 2887.8509 3702.9809 2866.2139 3839.0848 2874.0438 Z" fill="none" stroke="#012394" opacity="0.36363636363636365" stroke-width="1" class="ridgewood"/>
<path d="M 3507.188 2744.3782 3910.5389 2649.0333 4114.3009 2787.9544 4225.7293 3032.112 3900.041 3153.3611 3627.8595 3151.8043 3507.188 2744.3782 Z" fill="none" stroke="#012394" opacity="0.36363636363636365" stroke-width="1" class="ridgewood"/>
<path d="M 3958.8566 2943.521 3931.6054 2955.407 3943.8548 2983.3677 3932.8541 3002.8765 3921.3901 3027.0882 3903.5087 3047.6321 3887.567 3069.782 3865.1513 3097.7032 3862.9055 3110.4985 3856.7075 3115.3515 3839.1561 3148.5704 3692.7839 3037.6958 3703.5775 3021.2409 3664.5108 2991.8538 3676.3524 2976.3904 3622.6928 2932.0338 3600.8101 2925.4802 3566.8368 2931.7306 3542.0861 2856.4213 3560.742 2856.2242 3654.2735 2857.2805 3649.6547 2866.5041 3842.7208 2879.468 3847.7209 2885.5702 3958.8566 2943.521 Z" fill="none" stroke="#012394" opacity="0.36363636363636365" stroke-width="1" class="ridgewood"/>
<path d="M 3608.2129 2921.759 3640.1067 2880.933 3674.796 2862.692 3684.9792 2865.448 3703.2585 2866.1214 3777.7684 2872.7286 3826.0368 2999.22 3785.3645 3050.671 3776.1094 3052.2947 3608.2129 2921.759 Z" fill="none" stroke="#012394" opacity="0.36363636363636365" stroke-width="1" class="ridgewood"/>
<path d="M 3729.3236 2787.5038 3734.8743 2785.6544 3811.1858 2753.3087 3967.2811 2884.4917 3856.4893 3118.8302 3752.7656 3080.6747 3706.9461 3083.949 3722.2001 3063.8772 3729.3236 2787.5038 Z" fill="none" stroke="#012394" opacity="0.36363636363636365" stroke-width="1" class="ridgewood"/>
<path d="M 4277.3318 2885.4293 4350.6798 3023.6118 3811.3579 3326.8546 3396.3455 3048.7056 3373.1051 2895.6633 3716.3594 2779.2203 3998.8564 2966.9691 4256.9674 2883.6178 4277.3318 2885.4293 Z" fill="none" stroke="#012394" opacity="0.36363636363636365" stroke-width="1" class="ridgewood"/>
<path d="M 3845.1048 2877.7247 3912.881 3053.7521 3818.3153 3130.6313 3721.9652 3060.4195 3575.8489 2957.2844 3612.8369 2917.6059 3718.3022 2870.4856 3845.1048 2877.7247 Z" fill="none" stroke="#012394" opacity="0.36363636363636365" stroke-width="1" class="ridgewood"/>
<path d="M 3839.5486 2874.9652 3902.6863 3043.6213 3892.605 3128.4707 3871.3256 3139.5621 3606.3589 2918.5337 3617.4123 2859.5188 3839.5486 2874.9652 Z" fill="none" stroke="#012394" opacity="0.36363636363636365" stroke-width="1" class="ridgewood"/>
<path d="M 3811.6475 2752.3864 3841.3954 2871.2753 3962.6435 2876.6611 3922.1051 3027 3856.4867 3116.5247 3785.1436 3060.3535 3598.033 2923.151 3811.6475 2752.3864 Z" fill="none" stroke="#012394" opacity="0.36363636363636365" stroke-width="1" class="ridgewood"/>
<path d="M 3748.8682 3050.3022 3620.7866 2963.7617 3568.8592 2853.1706 3605.7179 2672.4597 3752.3226 2582.3931 4000.2821 2582.1014 4222.3865 2614.9651 4425.9747 2633.063 4503.8604 2721.4109 4370.8282 2850.7062 4241.2091 2953.2596 4145.4865 2998.7483 4041.8982 3059.7519 3928.5138 3101.7377 3748.8682 3050.3022 Z" fill="none" stroke="#012394" opacity="0.36363636363636365" stroke-width="1" class="ridgewood"/>
<path d="M 3837.6975 2874.9673 3965.4224 2878.5014 3907.3001 3031.6284 3840.6598 3038.1613 3779.3865 2871.3439 3837.6975 2874.9673 Z" fill="none" stroke="#012394" opacity="0.36363636363636365" stroke-width="1" class="ridgewood"/>
<path d="M 4148.7332 2918.8172 4144.1055 2918.8239 3818.5887 3168.2109 3613.779 2936.0449 3772.9316 2893.4776 3894.1459 2868.448 4004.2045 2810.23 4095.7872 2784.2932 4131.0078 2822.0396 4148.7332 2918.8172 Z" fill="none" stroke="#012394" opacity="0.36363636363636365" stroke-width="1" class="ridgewood"/>
<path d="M 3965.4259 2881.2673 3854.6299 3111.916 3607.2877 2922.2208 3628.7797 2892.4679 3584.786 2856.5514 3965.4259 2881.2673 Z" fill="none" stroke="#012394" opacity="0.36363636363636365" stroke-width="1" class="ridgewood"/>
<path d="M 3842.323 2873.1181 3919.336 3033.458 3776.8044 3052.9855 3530.4114 2854.0617 3842.323 2873.1181 Z" fill="none" stroke="#012394" opacity="0.36363636363636365" stroke-width="1" class="ridgewood"/>
<path d="M 3632.7354 2916.6659 3626.7118 2908.3736 3674.776 2841.9489 3770.0609 2804.9768 3816.3719 2839.9582 3969.2232 2955.943 3962.8399 3031.5597 3866.5893 3047.3525 3800.4 3044.4304 3632.7354 2916.6659 Z" fill="none" stroke="#012394" opacity="0.36363636363636365" stroke-width="1" class="ridgewood"/>
<path d="M 3557.3549 2978.5068 3742.2719 2780.1157 3788.7155 2939.5596 3747.8283 2783.7973 4223.8424 3009.0629 3739.0776 3272.5131 3440.7643 3029.3108 3557.3549 2978.5068 Z" fill="none" stroke="#012394" opacity="0.36363636363636365" stroke-width="1" class="ridgewood"/>
<path d="M 3858.3414 3119.2891 3710.1073 3005.1059 3606.3605 2920.3777 3626.6975 2892.7002 3653.5178 2871.4706 3678.4984 2863.1494 3873.7945 2876.7695 3946.0581 2935.6881 3939.641 2985.4853 3900.8416 3049.1561 3858.3414 3119.2891 Z" fill="none" stroke="#012394" opacity="0.36363636363636365" stroke-width="1" class="ridgewood"/>
<path d="M 3838.621 2873.1224 3935.1785 3119.1971 3842.5584 3079.6545 3634.072 2860.4256 3838.621 2873.1224 Z" fill="none" stroke="#012394" opacity="0.36363636363636365" stroke-width="1" class="ridgewood"/>
<path d="M 3834.9221 2875.8924 3836.8493 3147.21 3597.3725 2961.4148 3710.9568 2929.0377 3739.5891 2870.6943 3834.9221 2875.8924 Z" fill="none" stroke="#012394" opacity="0.36363636363636365" stroke-width="1" class="ridgewood"/>
<path d="M 4272.6336 2841.1842 4309.9013 2993.251 4301.5992 3010.7838 4114.6445 3028.5888 4013.8512 3107.1082 3873.176 3138.6377 3850.929 3113.7646 3746.2301 3027.1989 3771.1983 3004.1208 3612.8038 2880.7274 3622.9401 2831.8565 3604.421 2820.8104 3596.0481 2771.0372 3758.816 2672.2483 3904.123 2699.737 4174.3406 2712.2775 4272.6336 2841.1842 Z" fill="none" stroke="#012394" opacity="0.36363636363636365" stroke-width="1" class="ridgewood"/>
<path d="M 3607.2881 2922.6818 3672.9468 2864.5377 3835.8481 2876.3523 3966.1213 3064.2903 3839.3965 3148.3598 3740.2609 3073.3106 3750.8906 3058.0845 3647.8335 2978.6571 3661.7039 2964.122 3607.2881 2922.6818 Z" fill="none" stroke="#012394" opacity="0.36363636363636365" stroke-width="1" class="ridgewood"/>
<path d="M 3603.6051 2944.352 3593.4165 2936.063 3635.0162 2880.7073 3672.9454 2863.1548 3835.8444 2873.1255 3892.4587 3005.828 3948.0397 3039.8772 3980.5164 3100.6965 3840.7868 3149.7416 3738.8723 3073.312 3749.9644 3057.6244 3603.6051 2944.352 Z" fill="none" stroke="#012394" opacity="0.36363636363636365" stroke-width="1" class="ridgewood"/>
<path d="M 3779.905 3138.7425 3794.9253 3117.2854 3718.0266 3056.0435 3728.8869 3039.8956 3704.1081 3022.6313 3715.4316 3006.9447 3605.8996 2922.4526 3627.6234 2893.1604 3584.0939 2858.8568 3834.9226 2876.3533 3925.2314 2934.5614 3937.5549 2982.7218 3905.6944 3043.3871 3842.1728 3147.4345 3812.7963 3162.684 3779.905 3138.7425 Z" fill="none" stroke="#012394" opacity="0.36363636363636365" stroke-width="1" class="ridgewood"/>
<path d="M 3819.7537 2874.1237 3788.8176 3052.6489 3808.2783 3071.9922 3827.7253 3078.4255 3824.942 3082.024 3826.5434 3086.0713 3857.1048 3097.1023 3899.6263 3045.4129 3780.217 3048.315 3665.5544 2959.322 3638.6944 2939.985 3677.6606 2953.9645 3761.231 2884.6457 3808.53 2874.9041 3819.7537 2874.1237 Z" fill="none" stroke="#012394" opacity="0.36363636363636365" stroke-width="1" class="ridgewood"/>
<path d="M 3838.623 2874.9662 3967.3685 2953.1793 3923.0183 3016.856 3982.3655 3098.8498 3799.1833 3201.4329 3504.6117 2999.7567 3783.9017 2767.1659 3838.623 2874.9662 Z" fill="none" stroke="#012394" opacity="0.36363636363636365" stroke-width="1" class="ridgewood"/>
<path d="M 3534.0909 2826.4016 3539.5922 2763.7105 3595.0514 2689.9197 3665.3658 2678.7942 3711.6649 2711.9326 3811.6536 2757.9173 3933.9858 2903.4337 3902.6263 2993.8291 3806.3735 3005.0047 3660.0828 2962.7405 3534.0909 2826.4016 Z" fill="none" stroke="#012394" opacity="0.36363636363636365" stroke-width="1" class="ridgewood"/>
<path d="M 3836.7731 2875.8903 3873.4113 2944.5351 3886.8797 2984.6274 3901.2972 3043.1619 3779.1196 3053.9051 3719.3674 3008.7849 3631.3644 2935.5679 3601.7336 2921.3038 3643.8077 2879.7772 3684.5137 2862.6826 3731.257 2868.1676 3787.7181 2873.1788 3836.7731 2875.8903 Z" fill="none" stroke="#012394" opacity="0.36363636363636365" stroke-width="1" class="ridgewood"/>
<path d="M 3856.7829 2886.5417 3950.799 2944.6247 3919.4386 3034.1024 3867.6799 3101.4795 3844.2661 3153.2291 3817.8702 3166.5065 3792.3303 3143.1236 3790.9086 3112.693 3750.9738 3080.1115 3724.6835 3062.9665 3700.9173 3044.7837 3684.7317 3032.2849 3674.4007 3000.8289 3659.427 2963.5166 3608.2823 2920.512 3629.2415 2892.6984 3672.3545 2864.2921 3856.7829 2886.5417 Z" fill="none" stroke="#012394" opacity="0.36363636363636365" stroke-width="1" class="ridgewood"/>
<path d="M 3685.9039 2983.4615 3694.2395 2988.5246 3704.4303 2997.6198 3711.4936 3002.9146 3685.9039 2983.4615 Z" fill="none" stroke="#012394" opacity="0.36363636363636365" stroke-width="1" class="ridgewood"/>
<path d="M 3837.6965 2874.0453 3949.7627 2937.5274 3837.0805 3146.9792 3813.0267 3161.7615 3561.0511 2971.1274 3647.9648 2871.4758 3673.8701 2862.232 3837.6965 2874.0453 Z" fill="none" stroke="#012394" opacity="0.36363636363636365" stroke-width="1" class="ridgewood"/>
<path d="M 3609.1471 2931.4391 3602.6109 2866.9075 3615.5132 2806.0504 3676.5674 2780.1814 3732.0603 2748.7839 3772.7576 2730.3052 3850.4926 2733.9063 3900.4493 2722.786 3952.2787 2730.0967 3987.4952 2770.6118 4011.6165 2816.6734 4057.9371 2851.6434 4106.1199 2892.1415 4011.7978 2954.0438 4013.7038 2995.5329 3997.1206 3055.4903 3964.7883 3108.0939 3894.4599 3131.235 3862.0754 3146.0283 3813.93 3141.4719 3769.4921 3140.598 3737.0769 3127.7212 3718.5441 3110.2187 3698.1651 3097.3288 3670.3818 3085.3679 3649.0705 3064.179 3636.0895 3041.1383 3626.8211 3028.2374 3618.4726 3008.8814 3610.1196 2983.9933 3609.1685 2955.4112 3609.1471 2931.4391 Z" fill="none" stroke="#012394" opacity="0.36363636363636365" stroke-width="1" class="ridgewood"/></svg>