<?xml version="1.0"?><svg xmlns="http://www.w3.org/2000/svg" version="1.2" baseProfile="tiny" width="6000" height="5918" viewBox="0 0 6000 5918" stroke-linecap="round" stroke-linejoin="round"><path d="M 4327.7443 4830.8061 4311.981 4832.6797 4334.2071 4813.2427 4340.6667 4793.832 4355.5049 4793.8072 4366.6242 4788.2457 4382.3834 4784.5237 4370.362 4804.8678 4385.6214 4779.8992 4387.4745 4778.9723 4388.1665 4776.8926 4389.7922 4778.5064 4327.7443 4830.8061 Z" fill="none" stroke="#FBC20F" opacity="0.6" stroke-width="1" class="rockaway_park"/>
<path d="M 4710.3663 4633.3404 4747.6239 4713.6237 4437.1918 4837.086 4399.9063 4728.144 4710.3663 4633.3404 Z" fill="none" stroke="#FBC20F" opacity="0.6" stroke-width="1" class="rockaway_park"/>
<path d="M 4725.9447 4712.0524 4655.87 4738.7523 4476.5697 4815.9985 4439.0976 4734.7727 4699.7584 4660.3792 4725.9447 4712.0524 Z" fill="none" stroke="#FBC20F" opacity="0.6" stroke-width="1" class="rockaway_park"/>
<path d="M 4402.9261 4731.6028 4631.8527 4668.5977 4656.7959 4738.0576 4449.9276 4827.8251 4402.9261 4731.6028 Z" fill="none" stroke="#FBC20F" opacity="0.6" stroke-width="1" class="rockaway_park"/>
<path d="M 4535.6221 4778.4758 4448.7671 4827.1343 4405.1237 4728.8278 4511.8812 4728.175 4535.6221 4778.4758 Z" fill="none" stroke="#FBC20F" opacity="0.6" stroke-width="1" class="rockaway_park"/>
<path d="M 4372.0913 4730.9629 4508.8597 4724.0237 4536.097 4784.4796 4420.2711 4839.8873 4372.0913 4730.9629 Z" fill="none" stroke="#FBC20F" opacity="0.6" stroke-width="1" class="rockaway_park"/>
<path d="M 4525.1497 4757.2485 4539.1162 4787.2453 4513.2752 4729.7889 4720.3699 4650.6383 4751.5388 4701.1453 4540.9701 4786.7799 4525.1497 4757.2485 Z" fill="none" stroke="#FBC20F" opacity="0.6" stroke-width="1" class="rockaway_park"/>
<path d="M 4432.4831 4796.4462 4402.6883 4728.1392 4550.1033 4712.1693 4579.8763 4763.8425 4447.3788 4828.7535 4432.4831 4796.4462 Z" fill="none" stroke="#FBC20F" opacity="0.6" stroke-width="1" class="rockaway_park"/>
<path d="M 4536.3388 4789.791 4420.5078 4842.6584 4360.5114 4737.9105 4500.0726 4736.2794 4536.3388 4789.791 Z" fill="none" stroke="#FBC20F" opacity="0.6" stroke-width="1" class="rockaway_park"/>
<path d="M 4381.404 4754.0408 4371.1624 4730.0407 4592.7417 4702.8508 4616.0452 4764.6963 4426.0886 4851.8872 4416.798 4842.6649 4464.0824 4834.2666 4412.1351 4827.8916 4403.7547 4808.5058 4403.7435 4802.0392 4397.239 4794.66 4386.0645 4767.8893 4381.404 4754.0408 Z" fill="none" stroke="#FBC20F" opacity="0.6" stroke-width="1" class="rockaway_park"/>
<path d="M 4372.096 4733.7341 4420.0773 4729.0327 4512.3525 4732.3309 4537.9535 4785.3999 4424.6812 4842.6511 4372.096 4733.7341 Z" fill="none" stroke="#FBC20F" opacity="0.6" stroke-width="1" class="rockaway_park"/>
<path d="M 4418.5206 4766.9094 4397.0877 4706.9032 4707.5998 4640.7353 4739.2704 4709.9463 4514.1021 4800.9179 4391.5255 4707.8365 4418.5206 4766.9094 Z" fill="none" stroke="#FBC20F" opacity="0.6" stroke-width="1" class="rockaway_park"/>
<path d="M 4407.5493 4857.4627 4348.9205 4738.3919 4414.7467 4729.9658 4449.9901 4732.6749 4488.9362 4731.681 4566.7843 4706.5954 4687.2512 4665.7158 4750.2199 4624.9449 4794.6553 4591.6003 4827.0607 4570.2876 4861.3066 4543.4287 4901.4823 4680.0355 4689.2428 4733.1426 4522.4658 4810.1405 4407.5493 4857.4627 Z" fill="none" stroke="#FBC20F" opacity="0.6" stroke-width="1" class="rockaway_park"/>
<path d="M 4404.5442 4728.8288 4439.0956 4733.618 4511.1895 4730.2547 4591.1118 4699.1591 4613.7029 4752.4609 4453.1744 4828.2812 4427.6862 4771.3968 4423.9806 4773.5973 4404.5442 4728.8288 Z" fill="none" stroke="#FBC20F" opacity="0.6" stroke-width="1" class="rockaway_park"/>
<path d="M 4590.1974 4705.8578 4613.7024 4752.23 4428.8364 4832.2506 4383.4487 4729.5579 4590.1974 4705.8578 Z" fill="none" stroke="#FBC20F" opacity="0.6" stroke-width="1" class="rockaway_park"/>
<path d="M 4690.1551 4725.7508 4429.7691 4835.2514 4384.1481 4731.8661 4665.9278 4667.6062 4690.1551 4725.7508 Z" fill="none" stroke="#FBC20F" opacity="0.6" stroke-width="1" class="rockaway_park"/>
<path d="M 4741.8922 4633.2751 4771.6909 4693.2513 4523.352 4787.9676 4500.2934 4730.2747 4741.8922 4633.2751 Z" fill="none" stroke="#FBC20F" opacity="0.6" stroke-width="1" class="rockaway_park"/>
<path d="M 4721.7538 4647.2872 4730.3421 4652.6959 4756.6479 4705.4068 4738.6858 4707.5227 4421.2005 4841.0405 4372.2078 4731.3091 4382.9846 4729.3278 4416.1345 4728.1159 4440.255 4733.7314 4459.6105 4732.3113 4469.6956 4732.5242 4501.3356 4729.6954 4513.1584 4729.3273 4552.6543 4712.6264 4591.6895 4698.2343 4605.249 4697.0534 4676.2495 4670.4719 4700.6852 4660.1464 4721.7538 4647.2872 Z" fill="none" stroke="#FBC20F" opacity="0.6" stroke-width="1" class="rockaway_park"/>
<path d="M 4691.3105 4723.901 4653.7391 4658.3939 4853.7484 4584.5447 4857.8628 4663.1602 4691.4292 4725.2863 4691.3105 4723.901 Z" fill="none" stroke="#FBC20F" opacity="0.6" stroke-width="1" class="rockaway_park"/>
<path d="M 4212.6751 4888.1494 4203.1843 4894.9536 4233.8574 4937.4068 4211.5461 4904.324 4207.7826 4869.222 4204.9875 4860.9114 4198.2614 4838.0646 4281.4763 4783.0363 4341.8548 4739.2997 4412.544 4730.2763 4478.3858 4731.0832 4543.0092 4706.1795 4598.3908 4713.3833 4616.4629 4746.8826 4593.3043 4759.8603 4526.8374 4790.6087 4472.1583 4811.0327 4405.5083 4843.7553 4354.019 4878.2137 4289.148 4910.6567 4250.2233 4930.1209 4229.805 4921.8374 4208.9243 4861.3627 4212.6751 4888.1494 Z" fill="none" stroke="#FBC20F" opacity="0.6" stroke-width="1" class="rockaway_park"/>
<path d="M 4533.1254 4757.485 4282.9168 4878.6426 4521.9903 4753.8106 4533.1254 4757.485 Z" fill="none" stroke="#FBC20F" opacity="0.6" stroke-width="1" class="rockaway_park"/>
<path d="M 4655.4192 4745.2194 4619.2819 4760.0711 4315.367 4918.1329 4246.0918 4805.9942 4297.9111 4734.7809 4604.2297 4649.7166 4655.4192 4745.2194 Z" fill="none" stroke="#FBC20F" opacity="0.6" stroke-width="1" class="rockaway_park"/>
<path d="M 4611.5983 4743.2275 4545.7138 4781.9211 4545.9468 4782.4981 4526.8361 4791.4253 4451.8928 4824.7037 4412.3963 4844.7512 4362.9394 4734.2115 4591.1097 4698.1199 4611.5983 4743.2275 Z" fill="none" stroke="#FBC20F" opacity="0.6" stroke-width="1" class="rockaway_park"/>
<path d="M 4509.5488 4720.5585 4542.1367 4790.7039 4423.9929 4846.8097 4369.5388 4729.5816 4509.5488 4720.5585 Z" fill="none" stroke="#FBC20F" opacity="0.6" stroke-width="1" class="rockaway_park"/>
<path d="M 4511.8833 4729.3296 4533.7704 4780.0959 4420.2715 4840.1183 4372.5573 4732.3477 4416.5978 4727.8841 4438.6319 4733.6188 4511.8833 4729.3296 Z" fill="none" stroke="#FBC20F" opacity="0.6" stroke-width="1" class="rockaway_park"/>
<path d="M 4710.1388 4635.4191 4757.8355 4718.9137 4468.2529 4832.6424 4415.8882 4719.8027 4710.1388 4635.4191 Z" fill="none" stroke="#FBC20F" opacity="0.6" stroke-width="1" class="rockaway_park"/>
<path d="M 4756.8776 4704.3671 4688.3117 4731.297 4664.1271 4694.3969 4687.4088 4743.3075 4477.038 4818.5382 4424.9587 4736.4141 4731.7272 4649.9221 4756.8776 4704.3671 Z" fill="none" stroke="#FBC20F" opacity="0.6" stroke-width="1" class="rockaway_park"/>
<path d="M 4455.0937 4734.5133 4552.6477 4709.1624 4616.3548 4685.9473 4669.4176 4673.8341 4696.1733 4721.1199 4489.5412 4809.2773 4455.0937 4734.5133 Z" fill="none" stroke="#FBC20F" opacity="0.6" stroke-width="1" class="rockaway_park"/>
<path d="M 4359.344 4733.0628 4590.6477 4698.9291 4614.1656 4751.9982 4410.7737 4844.985 4359.344 4733.0628 Z" fill="none" stroke="#FBC20F" opacity="0.6" stroke-width="1" class="rockaway_park"/>
<path d="M 4499.8081 4732.1388 4666.4729 4675.3678 4691.0719 4724.9453 4529.5851 4787.0479 4499.8081 4732.1388 Z" fill="none" stroke="#FBC20F" opacity="0.6" stroke-width="1" class="rockaway_park"/>
<path d="M 4513.2718 4727.9415 4538.6486 4785.1677 4462.2089 4823.8769 4441.6458 4733.6135 4412.4562 4745.9044 4513.2718 4727.9415 Z" fill="none" stroke="#FBC20F" opacity="0.6" stroke-width="1" class="rockaway_park"/>
<path d="M 4520.4551 4726.0807 4700.2253 4661.9947 4727.2403 4721.9797 4558.5978 4790.6728 4570.645 4786.031 4540.9272 4763.9164 4553.0387 4793.4548 4520.4551 4726.0807 Z" fill="none" stroke="#FBC20F" opacity="0.6" stroke-width="1" class="rockaway_park"/>
<path d="M 4591.5758 4699.3891 4613.2387 4752.2309 4447.3747 4826.4439 4404.5446 4729.0597 4591.5758 4699.3891 Z" fill="none" stroke="#FBC20F" opacity="0.6" stroke-width="1" class="rockaway_park"/>
<path d="M 4592.2673 4697.3095 4616.4845 4752.2246 4429.0703 4833.405 4384.8381 4728.6318 4592.2673 4697.3095 Z" fill="none" stroke="#FBC20F" opacity="0.6" stroke-width="1" class="rockaway_park"/>
<path d="M 4581.63 4711.1856 4609.5644 4770.2516 4242.5898 4939.0377 4153.4709 4887.4334 4270.1602 4778.2423 4364.6899 4741.1366 4581.63 4711.1856 Z" fill="none" stroke="#FBC20F" opacity="0.6" stroke-width="1" class="rockaway_park"/>
<path d="M 4662.3817 4748.9005 4655.8903 4748.9135 4515.9757 4811.0764 4463.91 4738.1925 4629.8082 4689.8466 4662.3817 4748.9005 Z" fill="none" stroke="#FBC20F" opacity="0.6" stroke-width="1" class="rockaway_park"/>
<path d="M 4754.0908 4702.0637 4537.1427 4785.7478 4511.8816 4728.4059 4721.06 4648.0969 4730.812 4655.6969 4754.0908 4702.0637 Z" fill="none" stroke="#FBC20F" opacity="0.6" stroke-width="1" class="rockaway_park"/>
<path d="M 4398.066 4736.4609 4695.5702 4652.7675 4738.3219 4699.7874 4605.8298 4757.326 4490.0066 4810.2002 4412.9098 4740.1301 4437.1641 4821.3809 4398.066 4736.4609 Z" fill="none" stroke="#FBC20F" opacity="0.6" stroke-width="1" class="rockaway_park"/>
<path d="M 4786.5147 4687.2157 4789.3134 4695.0612 4693.8719 4729.4382 4591.0171 4770.2875 4515.0132 4792.1401 4494.0407 4733.9811 4519.071 4729.7782 4604.7876 4698.2089 4696.9743 4659.2303 4758.0993 4624.0047 4786.5147 4687.2157 Z" fill="none" stroke="#FBC20F" opacity="0.6" stroke-width="1" class="rockaway_park"/>
<path d="M 4461.6992 4798.2419 4449.1186 4764.0842 4508.4195 4736.726 4526.5377 4755.6294 4455.653 4788.0909 4461.6992 4798.2419 Z" fill="none" stroke="#FBC20F" opacity="0.6" stroke-width="1" class="rockaway_park"/>
<path d="M 4594.1281 4700.5388 4618.1127 4754.9927 4467.0687 4818.7871 4428.8958 4734.0978 4594.1281 4700.5388 Z" fill="none" stroke="#FBC20F" opacity="0.6" stroke-width="1" class="rockaway_park"/>
<path d="M 4480.1871 4730.6831 4508.8551 4796.3885 4403.6978 4847.8173 4353.9498 4737.2214 4418.0577 4727.9502 4441.8678 4732.7965 4462.0372 4732.7605 4480.1871 4730.6831 Z" fill="none" stroke="#FBC20F" opacity="0.6" stroke-width="1" class="rockaway_park"/>
<path d="M 4180.6626 4464.3453 4500.0735 4736.7413 4534.3822 4735.2922 4517.745 4764.8834 4518.6723 4764.8817 4422.2864 4799.12 4420.7679 4792.5406 4419.0192 4786.8854 4418.2017 4783.4226 4411.4571 4771.3097 4414.111 4764.2613 4411.7936 4764.8427 4408.0894 4767.8514 4407.6249 4767.3903 4407.1636 4768.7767 4180.6626 4464.3453 Z" fill="none" stroke="#FBC20F" opacity="0.6" stroke-width="1" class="rockaway_park"/>
<path d="M 4035.9017 4909.1068 4321.9412 4685.7845 4721.2495 4593.9679 4765.1496 4746.2836 4093.565 5021.7515 4035.9017 4909.1068 Z" fill="none" stroke="#FBC20F" opacity="0.6" stroke-width="1" class="rockaway_park"/>
<path d="M 4371.9775 4732.2332 4371.396 4731.0795 4370.353 4731.1968 4701.0324 4659.9148 4727.1043 4712.2809 4421.5509 4842.5411 4371.9775 4732.2332 Z" fill="none" stroke="#FBC20F" opacity="0.6" stroke-width="1" class="rockaway_park"/>
<path d="M 4701.0398 4720.1862 4421.6654 4841.7326 4375.3377 4731.4192 4681.4609 4668.2677 4701.0398 4720.1862 Z" fill="none" stroke="#FBC20F" opacity="0.6" stroke-width="1" class="rockaway_park"/>
<path d="M 4401.53 4728.6031 4585.786 4702.4024 4611.3903 4755.4677 4444.5924 4826.4488 4401.53 4728.6031 Z" fill="none" stroke="#FBC20F" opacity="0.6" stroke-width="1" class="rockaway_park"/>
<path d="M 4391.7207 4821.4601 4430.6641 4816.7732 4425.0721 4801.0782 4525.9228 4674.3428 4554.6839 4682.6021 4429.748 4823.2416 4397.3362 4851.0133 4355.4103 4737.4572 4391.7207 4821.4601 Z" fill="none" stroke="#FBC20F" opacity="0.6" stroke-width="1" class="rockaway_park"/>
<path d="M 4537.7251 4787.2479 4458.5046 4826.886 4413.1199 4727.6593 4425.4122 4730.6399 4438.3993 4733.1573 4511.8782 4726.5584 4537.7251 4787.2479 Z" fill="none" stroke="#FBC20F" opacity="0.6" stroke-width="1" class="rockaway_park"/>
<path d="M 4592.2727 4700.0806 4614.402 4754.3071 4481.9722 4854.5591 4466.3723 4818.3264 4427.7317 4731.3287 4592.2727 4700.0806 Z" fill="none" stroke="#FBC20F" opacity="0.6" stroke-width="1" class="rockaway_park"/>
<path d="M 4291.5076 4789.2936 4289.6321 4776.3635 4271.064 4763.4604 4860.3775 4542.5072 4945.9597 4666.0788 4312.1033 4907.5133 4291.5076 4789.2936 Z" fill="none" stroke="#FBC20F" opacity="0.6" stroke-width="1" class="rockaway_park"/>
<path d="M 4469.6954 4732.4087 4623.7391 4668.6137 4676.0895 4648.6505 4698.3552 4654.3782 4730.2531 4721.5116 4507.4057 4815.7113 4469.6954 4732.4087 Z" fill="none" stroke="#FBC20F" opacity="0.6" stroke-width="1" class="rockaway_park"/>
<path d="M 4756.8776 4704.3671 4465.9098 4819.0201 4424.9473 4729.9479 4726.1618 4649.01 4756.8776 4704.3671 Z" fill="none" stroke="#FBC20F" opacity="0.6" stroke-width="1" class="rockaway_park"/>
<path d="M 4415.6998 4744.744 4478.8995 4822.2301 4392.7228 4864.8792 4312.8194 4778.1735 4415.6998 4744.744 Z" fill="none" stroke="#FBC20F" opacity="0.6" stroke-width="1" class="rockaway_park"/></svg>