<?xml version="1.0"?><svg xmlns="http://www.w3.org/2000/svg" version="1.2" baseProfile="tiny" width="6000" height="5918" viewBox="0 0 6000 5918" stroke-linecap="round" stroke-linejoin="round"><path d="M 3278.3466 2243.1961 3239.528 2296.6549 3202.5474 2333.5286 3180.356 2351.9671 3184.0442 2325.2443 3189.589 2314.185 3391.0354 2020.193 3412.2984 2013.731 3413.2338 2029.3892 3413.2433 2043.2061 3409.5533 2056.1046 3393.8486 2079.1441 3371.6717 2104.9517 3278.3466 2243.1961 Z" fill="none" stroke="#12852D" opacity="0.6" stroke-width="1" class="roosevelt_island"/>
<path d="M 3408.6104 2029.3924 3331.9482 2173.1471 3185.906 2351.9646 3290.3328 2175.935 3408.6104 2029.3924 Z" fill="none" stroke="#12852D" opacity="0.6" stroke-width="1" class="roosevelt_island"/>
<path d="M 3249.2093 2236.7622 3309.7373 2146.9047 3355.012 2082.3933 3360.087 2064.888 3386.8856 2037.2365 3409.53 2022.0228 3409.0913 2056.5655 3394.7737 2079.6041 3359.66 2121.0804 3323.1656 2178.6799 3281.117 2235.3633 3238.6029 2296.1946 3183.5937 2352.4264 3178.0435 2351.7377 3185.6666 2333.5362 3201.6099 2306.3477 3241.5848 2248.2827 3249.9011 2233.3069 3287.5578 2175.0153 3249.2093 2236.7622 Z" fill="none" stroke="#12852D" opacity="0.6" stroke-width="1" class="roosevelt_island"/>
<path d="M 3411.3964 2046.8919 3404.0163 2072.6892 3389.2244 2078.226 3357.8119 2123.3846 3260.7848 2264.3962 3182.206 2351.9662 3177.579 2347.3611 3247.3602 2238.1451 3279.2454 2195.2878 3313.4349 2144.1388 3355.0112 2081.0115 3358.7008 2066.2706 3389.1942 2032.6294 3398.9019 2030.3201 3411.3791 2021.561 3411.3964 2046.8919 Z" fill="none" stroke="#12852D" opacity="0.6" stroke-width="1" class="roosevelt_island"/>
<path d="M 3177.5827 2355.654 3202.5308 2297.5941 3253.3693 2233.0748 3280.1667 2188.8383 3318.9796 2137.2264 3354.087 2081.9333 3354.0784 2068.1158 3380.8802 2045.0701 3391.0433 2032.1676 3412.3034 2021.0998 3401.2415 2071.7699 3287.5833 2221.0794 3279.269 2238.589 3279.2725 2245.0382 3210.8683 2325.232 3185.9056 2351.0432 3177.5827 2355.654 Z" fill="none" stroke="#12852D" opacity="0.6" stroke-width="1" class="roosevelt_island"/>
<path d="M 3412.3181 2042.5159 3407.4697 2051.7306 3404.4738 2065.5499 3395.697 2077.5309 3385.7609 2084.6765 3369.8244 2108.4074 3358.7379 2125.2264 3334.9469 2161.6297 3308.6122 2200.5687 3294.5178 2217.6207 3285.2764 2230.7545 3277.6558 2248.4941 3267.0255 2259.7862 3254.7777 2273.6129 3233.0562 2302.1864 3210.8686 2325.923 3181.5136 2354.9612 3177.349 2350.1255 3191.4427 2322.4767 3206.4595 2292.755 3241.8153 2246.9005 3264.6864 2209.1149 3277.6263 2194.1371 3288.0207 2175.9363 3313.2033 2143.4481 3326.8306 2120.8702 3349.6975 2086.7722 3358.0079 2067.1922 3375.5674 2051.5215 3391.9677 2031.7064 3401.9052 2027.5547 3410.2231 2021.3315 3412.3181 2042.5159 Z" fill="none" stroke="#12852D" opacity="0.6" stroke-width="1" class="roosevelt_island"/>
<path d="M 3290.3363 2182.3838 3293.1031 2168.5634 3306.0416 2152.8948 3321.7526 2134.9217 3341.1511 2098.9831 3358.7052 2073.1793 3373.0247 2051.9837 3385.9606 2036.7765 3395.2004 2026.1775 3403.0558 2019.7244 3414.1537 2022.4802 3410.4689 2042.7475 3410.0201 2062.5523 3399.8553 2073.1525 3369.8219 2104.4923 3341.1843 2153.3347 3318.0858 2190.1988 3294.0555 2217.8513 3282.9705 2242.2722 3250.6181 2278.6825 3231.2063 2302.1873 3219.1908 2320.621 3204.3982 2335.3706 3191.4537 2346.8943 3181.7433 2351.5057 3181.7401 2344.1343 3187.2855 2333.9962 3196.069 2325.6996 3201.6114 2309.5725 3213.6268 2290.6786 3234.5386 2260.7243 3249.2096 2237.4532 3267.2303 2210.0349 3290.3363 2182.3838 Z" fill="none" stroke="#12852D" opacity="0.6" stroke-width="1" class="roosevelt_island"/>
<path d="M 3185.9052 2350.1217 3179.4313 2352.4282 3181.279 2347.3595 3190.5202 2328.0056 3200.6864 2309.573 3206.693 2297.5922 3269.5407 2206.8091 3300.9575 2157.0433 3313.8986 2146.4417 3355.4729 2080.0901 3358.7028 2069.4947 3386.8846 2035.8548 3400.2883 2029.398 3409.9921 2021.562 3406.3074 2042.2897 3410.4752 2051.9588 3398.9297 2071.7714 3380.4449 2086.5223 3338.8715 2151.9542 3280.6545 2235.3636 3280.657 2239.9702 3264.0193 2259.3271 3219.1875 2313.7105 3185.9052 2350.1217 Z" fill="none" stroke="#12852D" opacity="0.6" stroke-width="1" class="roosevelt_island"/>
<path d="M 3404.9123 2030.316 3416.0193 2045.9676 3414.18 2060.7072 3397.5488 2080.984 3370.7499 2109.5583 3327.3246 2174.0712 3269.1051 2257.0211 3219.1926 2324.3066 3181.2778 2344.5952 3209.0041 2294.8269 3254.2904 2225.7038 3296.8013 2166.7188 3328.2198 2124.3239 3360.5514 2068.1118 3404.9123 2030.316 Z" fill="none" stroke="#12852D" opacity="0.6" stroke-width="1" class="roosevelt_island"/>
<path d="M 3408.6047 2021.1024 3401.2322 2057.9526 3234.9047 2299.4213 3177.5803 2350.1254 3201.6088 2304.0442 3383.6491 2037.2386 3408.6047 2021.1024 Z" fill="none" stroke="#12852D" opacity="0.6" stroke-width="1" class="roosevelt_island"/>
<path d="M 3200.7004 2339.9794 3233.0475 2284.6802 3313.4469 2164.8668 3393.8302 2051.5095 3200.7004 2339.9794 Z" fill="none" stroke="#12852D" opacity="0.6" stroke-width="1" class="roosevelt_island"/>
<path d="M 3386.415 2024.8017 3416.9484 2052.415 3200.7009 2340.9008 3179.421 2328.9319 3386.415 2024.8017 Z" fill="none" stroke="#12852D" opacity="0.6" stroke-width="1" class="roosevelt_island"/>
<path d="M 3354.0899 2086.5391 3367.9409 2055.211 3396.5914 2032.1639 3412.3047 2022.9421 3410.4623 2033.0756 3395.6944 2073.6159 3211.7924 2323.3887 3180.3548 2349.2028 3197.9099 2305.8887 3354.0899 2086.5391 Z" fill="none" stroke="#12852D" opacity="0.6" stroke-width="1" class="roosevelt_island"/>
<path d="M 3409.5288 2020.1806 3404.0175 2074.5315 3387.3707 2071.7791 3347.6519 2143.6577 3266.3304 2257.0225 3196.0785 2346.4314 3175.7323 2354.7334 3192.3673 2321.5549 3202.5334 2303.1224 3234.8818 2253.3534 3268.1512 2202.664 3353.1623 2081.9339 3361.4744 2065.3477 3386.4223 2035.8551 3409.5288 2020.1806 Z" fill="none" stroke="#12852D" opacity="0.6" stroke-width="1" class="roosevelt_island"/>
<path d="M 3183.5925 2349.6621 3190.52 2327.5449 3218.7133 2289.2941 3227.4916 2271.7839 3243.204 2249.6638 3259.3769 2225.2405 3294.9533 2169.4836 3319.4461 2144.1353 3345.3136 2100.8229 3368.8703 2062.5795 3391.046 2036.3126 3404.9117 2029.3949 3415.5407 2022.4793 3411.3838 2028.4694 3414.1683 2043.6661 3390.6176 2087.4368 3342.1105 2155.6372 3298.2185 2219.6915 3262.6366 2268.0807 3183.5925 2349.6621 Z" fill="none" stroke="#12852D" opacity="0.6" stroke-width="1" class="roosevelt_island"/>
<path d="M 3409.5288 2020.1806 3406.7829 2061.6334 3344.877 2142.7382 3301.4489 2208.1735 3279.271 2242.2743 3230.2818 2303.1091 3183.1298 2349.2015 3189.5882 2312.3422 3242.2736 2238.6084 3308.8096 2141.8384 3363.3232 2064.4254 3382.723 2034.9364 3409.5288 2020.1806 Z" fill="none" stroke="#12852D" opacity="0.6" stroke-width="1" class="roosevelt_island"/>
<path d="M 3197.8848 2336.0453 3183.5938 2360.8787 3182.6594 2339.6862 3209.4636 2296.3682 3244.5847 2243.8339 3338.8424 2110.1982 3397.0455 2025.4145 3415.5359 2020.7964 3419.2531 2047.5065 3333.8452 2170.5149 3197.8848 2336.0453 Z" fill="none" stroke="#12852D" opacity="0.6" stroke-width="1" class="roosevelt_island"/>
<path d="M 3367.0755 2148.2517 3313.478 2218.3008 3268.1959 2286.5049 3227.5291 2348.2594 3165.5624 2366.7165 3174.7965 2329.8554 3201.5978 2280.0885 3305.101 2125.2586 3389.1818 2013.7465 3428.0086 2000.8247 3419.7327 2067.1514 3367.0755 2148.2517 Z" fill="none" stroke="#12852D" opacity="0.6" stroke-width="1" class="roosevelt_island"/>
<path d="M 3579.3115 1606.5603 3681.9981 1702.2249 3634.9398 1793.4334 3574.9304 1886.5014 3539.8099 1901.2667 3462.1222 1867.251 3500.8824 1777.8924 3516.5846 1761.3044 3556.3392 1766.7971 3541.5242 1737.3421 3548.9025 1717.0778 3549.794 1677.4827 3547.9254 1653.5443 3557.1485 1629.5972 3573.7691 1610.2479 3579.3115 1606.5603 Z" fill="none" stroke="#12852D" opacity="0.6" stroke-width="1" class="roosevelt_island"/>
<path d="M 3190.5283 2345.9732 3405.3768 2033.5396 3323.1591 2167.6248 3320.8481 2169.4687 3322.2354 2169.4679 3190.5283 2345.9732 Z" fill="none" stroke="#12852D" opacity="0.6" stroke-width="1" class="roosevelt_island"/>
<path d="M 3179.4311 2351.9675 3174.7949 2326.1697 3329.1445 2124.3233 3350.3789 2067.197 3412.2946 2008.2043 3415.0908 2040.4415 3237.6791 2298.4985 3194.2268 2342.7466 3179.4311 2351.9675 Z" fill="none" stroke="#12852D" opacity="0.6" stroke-width="1" class="roosevelt_island"/>
<path d="M 3394.7359 2022.9539 3418.7736 2017.4109 3422.4896 2042.2786 3407.7158 2073.6078 3246.9337 2308.6291 3176.6637 2369.4761 3166.4776 2343.6802 3394.7359 2022.9539 Z" fill="none" stroke="#12852D" opacity="0.6" stroke-width="1" class="roosevelt_island"/>
<path d="M 3409.3673 2004.3359 3426.9693 2052.2219 3343.8228 2177.5602 3232.9227 2337.0136 3184.8355 2363.7577 3163.556 2353.631 3195.9003 2286.3545 3244.8866 2217.2308 3307.7282 2131.5195 3409.3673 2004.3359 Z" fill="none" stroke="#12852D" opacity="0.6" stroke-width="1" class="roosevelt_island"/>
<path d="M 3183.1294 2348.2801 3183.1147 2315.1093 3205.2962 2277.3227 3223.7763 2239.5389 3251.5082 2210.9644 3282.9301 2168.569 3329.1341 2106.8205 3354.9996 2062.5883 3404.9067 2022.026 3392.9233 2078.2236 3315.3105 2188.8185 3238.599 2288.363 3183.1294 2348.2801 Z" fill="none" stroke="#12852D" opacity="0.6" stroke-width="1" class="roosevelt_island"/>
<path d="M 3177.5803 2350.1254 3264.4547 2208.1937 3379.029 2042.3079 3407.6807 2022.0241 3409.5508 2052.42 3389.2256 2080.0684 3335.6363 2154.7199 3290.3599 2224.7631 3231.2045 2298.5018 3177.5803 2350.1254 Z" fill="none" stroke="#12852D" opacity="0.6" stroke-width="1" class="roosevelt_island"/>
<path d="M 3177.573 2333.5398 3400.2802 2017.4235 3426.1819 2033.0647 3209.9546 2349.1893 3177.573 2333.5398 Z" fill="none" stroke="#12852D" opacity="0.6" stroke-width="1" class="roosevelt_island"/>
<path d="M 3434.0388 2028.9142 3189.1464 2358.4132 3166.4764 2340.9159 3393.8088 2019.2701 3434.0388 2028.9142 Z" fill="none" stroke="#12852D" opacity="0.6" stroke-width="1" class="roosevelt_island"/>
<path d="M 3408.6047 2021.1024 3413.2401 2038.6005 3369.8287 2115.0861 3321.7773 2176.8382 3270.9524 2252.4134 3225.6593 2307.7183 3183.1266 2341.8301 3287.5542 2168.5665 3391.971 2036.7726 3408.6047 2021.1024 Z" fill="none" stroke="#12852D" opacity="0.6" stroke-width="1" class="roosevelt_island"/>
<path d="M 3181.2863 2363.9454 3172.0343 2359.3422 3177.1168 2347.822 3190.0511 2313.2634 3221.9381 2263.4945 3271.385 2196.674 3357.7715 2058.902 3389.1875 2022.4971 3417.3866 2017.4119 3415.0936 2044.5866 3410.4865 2068.5395 3387.8479 2094.3475 3320.4006 2194.8038 3237.6835 2307.2517 3181.2863 2363.9454 Z" fill="none" stroke="#12852D" opacity="0.6" stroke-width="1" class="roosevelt_island"/>
<path d="M 3411.3964 2046.8919 3182.2056 2351.0448 3176.6541 2347.3615 3359.6261 2067.1912 3411.3788 2021.1005 3411.3964 2046.8919 Z" fill="none" stroke="#12852D" opacity="0.6" stroke-width="1" class="roosevelt_island"/>
<path d="M 3333.7823 2147.3511 3246.914 2269.9315 3282.9559 2215.5542 3333.7823 2147.3511 Z" fill="none" stroke="#12852D" opacity="0.6" stroke-width="1" class="roosevelt_island"/>
<path d="M 3185.9052 2350.1217 3181.7439 2352.8879 3182.6653 2344.5946 3187.2847 2332.1534 3197.4533 2318.7884 3203.4562 2298.515 3211.7772 2291.1401 3244.1264 2244.5961 3269.0768 2204.0455 3284.3277 2187.4542 3291.2555 2172.2494 3310.6611 2145.0617 3315.748 2145.98 3355.0112 2081.0115 3360.5505 2066.73 3369.7912 2056.5915 3377.6447 2046.4539 3386.4232 2037.2368 3393.8167 2031.2446 3399.3639 2029.8592 3401.6759 2030.3182 3411.3778 2019.7188 3412.7677 2023.8628 3409.0743 2031.6949 3409.0784 2037.6822 3410.4714 2046.432 3410.4758 2052.88 3404.9338 2062.0952 3399.8544 2071.7708 3383.6805 2085.1385 3370.2852 2105.8738 3347.1873 2139.9731 3328.7085 2168.5428 3313.464 2194.3473 3280.1918 2234.9032 3275.1132 2250.1078 3263.56 2265.3161 3243.6847 2285.5963 3238.6013 2292.9698 3225.1984 2310.9434 3207.6324 2328.4584 3196.0759 2340.9029 3185.9052 2350.1217 Z" fill="none" stroke="#12852D" opacity="0.6" stroke-width="1" class="roosevelt_island"/>
<path d="M 3409.5319 2024.7862 3404.0094 2062.5564 3190.5281 2345.5125 3184.9765 2341.8293 3381.8019 2040.4638 3409.5319 2024.7862 Z" fill="none" stroke="#12852D" opacity="0.6" stroke-width="1" class="roosevelt_island"/>
<path d="M 3184.9732 2334.458 3397.5013 2010.0566 3430.8027 2029.377 3188.6905 2373.1565 3160.0073 2354.7401 3184.9732 2334.458 Z" fill="none" stroke="#12852D" opacity="0.6" stroke-width="1" class="roosevelt_island"/>
<path d="M 3181.2801 2349.8934 3203.4571 2300.5882 3256.1386 2222.7086 3290.332 2174.5531 3300.0341 2159.5773 3387.1152 2034.9335 3408.3744 2022.2539 3411.842 2022.4818 3408.6283 2055.6447 3394.5409 2077.3013 3324.3191 2174.3033 3280.1927 2236.5155 3270.0291 2255.4082 3228.8944 2303.1098 3181.7438 2352.6575 3181.2801 2349.8934 Z" fill="none" stroke="#12852D" opacity="0.6" stroke-width="1" class="roosevelt_island"/>
<path d="M 3177.579 2347.3611 3205.3048 2295.75 3352.2404 2086.5403 3365.1721 2063.5031 3408.606 2022.9446 3408.6242 2049.6572 3393.848 2078.223 3187.7568 2353.8066 3177.579 2347.3611 Z" fill="none" stroke="#12852D" opacity="0.6" stroke-width="1" class="roosevelt_island"/>
<path d="M 3182.1999 2338.1449 3311.1261 2149.6676 3383.6513 2040.4626 3411.3762 2017.416 3408.6261 2052.4207 3372.5947 2102.1875 3308.3806 2199.8779 3204.8597 2333.0668 3184.0532 2345.5154 3182.1999 2338.1449 Z" fill="none" stroke="#12852D" opacity="0.6" stroke-width="1" class="roosevelt_island"/>
<path d="M 3317.1349 2145.5185 3335.6207 2128.9255 3336.5377 2116.028 3343.933 2111.4175 3346.7062 2109.5734 3347.6218 2094.8338 3350.3935 2090.6867 3351.3167 2088.1529 3352.9337 2086.0793 3354.5508 2084.2359 3353.741 2083.2001 3360.7829 2068.5722 3359.2828 2072.7184 3361.7074 2068.2262 3369.3272 2053.9435 3367.365 2058.4353 3369.0966 2054.8648 3381.2252 2042.4216 3379.1474 2046.568 3381.9187 2042.306 3388.8502 2036.7746 3390.698 2034.3555 3399.9406 2028.0166 3403.5235 2027.6687 3415.0784 2022.4796 3410.5764 2030.8879 3415.666 2036.5263 3409.544 2042.5178 3409.7802 2049.8867 3410.2453 2053.8013 3411.0637 2067.3877 3405.7423 2061.1735 3405.3944 2059.4466 3400.8939 2070.5035 3398.6988 2072.2322 3391.1902 2079.3762 3391.8825 2077.5334 3380.5603 2086.292 3378.8299 2091.5899 3369.7038 2100.5773 3368.7826 2106.1051 3365.4347 2113.0162 3361.7381 2116.8185 3360.0065 2120.6195 3355.2713 2127.3013 3355.1573 2129.9499 3346.9555 2139.052 3346.3793 2141.9312 3343.0299 2146.7697 3339.3323 2149.4205 3335.7526 2155.8714 3329.8619 2164.1662 3327.438 2170.2709 3321.6614 2176.3777 3322.4717 2178.1046 3318.0819 2183.4044 3313.9239 2189.8558 3309.3054 2199.8774 3307.8033 2201.145 3305.4921 2202.7586 3300.4065 2204.7192 3295.3237 2211.6318 3293.0163 2220.1551 3282.5017 2230.5257 3283.4268 2231.101 3272.3351 2243.7752 3274.6485 2245.8469 3268.7598 2259.9005 3267.6037 2260.1314 3261.941 2264.5108 3258.5902 2268.3131 3253.5076 2276.8383 3251.542 2276.609 3250.6178 2277.9915 3244.6086 2283.6379 3242.4144 2288.5914 3234.9035 2296.8875 3235.2519 2300.1122 3236.0615 2300.6876 3225.3119 2306.5668 3222.4239 2311.6358 3213.7568 2320.9691 3214.336 2323.1572 3213.7574 2322.1209 3209.4804 2324.1961 3203.9344 2332.3762 3196.3068 2340.0966 3193.8808 2344.5896 3186.2526 2351.3886 3183.5933 2351.3897 3174.4616 2357.4982 3175.7322 2354.503 3177.0033 2352.7748 3175.1522 2350.3568 3179.7752 2345.7477 3178.1539 2339.8743 3185.7836 2336.646 3195.2584 2322.9357 3195.1428 2322.9358 3203.5763 2308.1895 3202.7674 2309.2265 3203.8047 2302.0852 3211.429 2288.261 3215.5912 2288.259 3216.8617 2285.6095 3218.9396 2279.0438 3222.6377 2275.702 3232.1125 2264.1805 3233.6153 2263.8343 3243.4359 2250.9306 3233.3828 2261.3007 3236.7336 2257.3833 3240.8935 2253.12 3257.4148 2231.4604 3258.1054 2225.5866 3265.6131 2212.5693 3270.0037 2207.8453 3277.8613 2201.0466 3278.6699 2199.8945 3288.8373 2189.2942 3288.8332 2181.8089 3297.6103 2166.2577 3302.3449 2157.2729 3310.4316 2148.171 3311.3558 2147.1341 3322.7929 2134.8059 3324.0648 2135.2658 3318.6365 2143.56 3317.1349 2145.5185 Z" fill="none" stroke="#12852D" opacity="0.6" stroke-width="1" class="roosevelt_island"/>
<path d="M 3326.3883 2154.7255 3378.1121 2054.2833 3272.7943 2237.6711 3198.8462 2330.766 3326.3883 2154.7255 Z" fill="none" stroke="#12852D" opacity="0.6" stroke-width="1" class="roosevelt_island"/>
<path d="M 3317.1263 2130.7789 3369.7756 2032.1814 3419.6912 2007.2781 3406.7929 2076.3719 3174.8209 2386.0631 3168.3268 2341.8366 3317.1263 2130.7789 Z" fill="none" stroke="#12852D" opacity="0.6" stroke-width="1" class="roosevelt_island"/>
<path d="M 3413.2281 2021.0992 3408.148 2029.3927 3410.4739 2050.1166 3401.7035 2071.309 3381.832 2086.5214 3282.0436 2238.5874 3232.5942 2303.108 3175.2704 2356.1157 3202.9941 2299.4366 3267.2278 2205.4284 3311.585 2143.6793 3352.6985 2079.6312 3360.0864 2063.9669 3386.8828 2033.0914 3401.675 2028.9365 3407.2171 2020.1822 3413.2281 2021.0992 Z" fill="none" stroke="#12852D" opacity="0.6" stroke-width="1" class="roosevelt_island"/>
<path d="M 3278.3466 2243.1961 3253.3922 2277.299 3211.7976 2334.4457 3193.3056 2351.0399 3187.7507 2339.9852 3194.2197 2327.0825 3205.3133 2314.1778 3208.0852 2307.7267 3209.929 2294.8265 3216.3992 2285.6097 3233.042 2273.6239 3236.7376 2265.3299 3244.1299 2251.506 3253.3717 2237.6814 3262.6142 2225.6994 3270.9297 2210.0329 3281.0966 2198.0506 3286.6396 2186.9922 3294.0315 2175.0117 3306.0458 2160.2648 3309.7387 2149.2078 3319.9044 2137.2259 3330.9963 2128.0071 3332.8381 2115.109 3339.3053 2104.9719 3347.623 2096.6761 3350.3892 2083.7779 3358.706 2074.5611 3370.718 2059.8149 3387.3561 2049.6715 3404.9142 2033.0794 3414.1673 2042.2844 3406.7823 2060.7122 3392.0004 2080.9877 3364.2801 2115.0896 3337.4876 2157.4825 3308.8414 2197.1138 3278.3466 2243.1961 Z" fill="none" stroke="#12852D" opacity="0.6" stroke-width="1" class="roosevelt_island"/>
<path d="M 3179.4323 2354.7318 3215.4866 2311.4088 3240.4354 2261.6426 3251.5248 2243.2103 3210.8235 2230.3319 3213.5886 2210.0618 3245.9647 2222.0228 3261.6821 2211.8804 3294.0248 2163.0353 3377.1677 2023.8866 3417.8451 2011.8849 3428.0487 2057.9341 3359.6696 2136.2804 3380.0299 2159.2983 3365.2458 2179.5754 3341.1891 2161.1653 3274.6575 2262.5462 3179.4323 2354.7318 Z" fill="none" stroke="#12852D" opacity="0.6" stroke-width="1" class="roosevelt_island"/>
<path d="M 3183.1294 2348.2801 3196.0722 2332.6101 3199.7636 2314.1804 3212.7012 2289.2969 3236.7321 2254.2738 3268.1576 2214.6409 3309.7477 2164.8689 3334.6921 2122.4776 3356.8629 2084.6951 3384.5808 2047.831 3397.5142 2029.3999 3415.0787 2022.9401 3413.249 2051.4964 3353.1909 2127.9935 3331.0173 2163.0139 3296.8242 2207.2548 3272.7982 2245.0417 3253.3941 2280.9845 3211.7902 2318.7817 3183.1294 2348.2801 Z" fill="none" stroke="#12852D" opacity="0.6" stroke-width="1" class="roosevelt_island"/>
<path d="M 3386.4223 2035.8551 3403.062 2028.9356 3410.4538 2020.6405 3409.5382 2033.9974 3410.0119 2050.5774 3402.6267 2069.0055 3385.0655 2081.9135 3369.3595 2104.4926 3311.6157 2196.6515 3304.2193 2200.8016 3281.1162 2233.9814 3281.118 2237.206 3273.2642 2251.4908 3248.7683 2278.6835 3223.3492 2312.3264 3208.5561 2325.6938 3204.3961 2330.7635 3186.3675 2349.6608 3181.7437 2352.4272 3178.5063 2352.4286 3188.6711 2329.8492 3198.8386 2314.1808 3202.0698 2300.8191 3209.0037 2293.9056 3252.9038 2227.0865 3279.7078 2195.2875 3283.3999 2181.927 3312.0482 2145.0609 3354.0873 2082.3939 3361.0123 2065.8086 3386.4223 2035.8551 Z" fill="none" stroke="#12852D" opacity="0.6" stroke-width="1" class="roosevelt_island"/>
<path d="M 3409.5319 2024.7862 3403.0847 2062.5571 3385.5267 2080.0708 3279.267 2234.9037 3226.5856 2310.4821 3180.3569 2353.8099 3204.3845 2305.8857 3379.9531 2041.3861 3409.5319 2024.7862 Z" fill="none" stroke="#12852D" opacity="0.6" stroke-width="1" class="roosevelt_island"/>
<path d="M 3294.9662 2192.5153 3178.5057 2351.0464 3398.442 2034.0049 3294.9662 2192.5153 Z" fill="none" stroke="#12852D" opacity="0.6" stroke-width="1" class="roosevelt_island"/>
<path d="M 3225.6395 2267.1781 3403.0536 2016.5006 3424.3274 2025.6971 3184.9835 2357.4936 3170.1803 2350.1286 3223.7875 2262.5722 3269.0716 2194.372 3225.6395 2267.1781 Z" fill="none" stroke="#12852D" opacity="0.6" stroke-width="1" class="roosevelt_island"/>
<path d="M 4154.5111 1813.9923 4135.128 1835.2019 4097.2239 1835.2561 4072.2793 1847.2632 3963.1542 1820.701 3942.7594 1775.6027 3920.564 1768.2632 3926.012 1688.1443 3970.3465 1661.3862 3978.6607 1657.6925 4027.7135 1705.5089 4069.32 1712.8188 4115.5912 1749.5871 4153.5257 1772.5536 4154.5111 1813.9923 Z" fill="none" stroke="#12852D" opacity="0.6" stroke-width="1" class="roosevelt_island"/>
<path d="M 3151.6846 2360.2722 3388.2565 2012.826 3416.9128 2000.8324 3428.9637 2044.1163 3195.169 2380.5253 3151.6846 2360.2722 Z" fill="none" stroke="#12852D" opacity="0.6" stroke-width="1" class="roosevelt_island"/></svg>