<?xml version="1.0"?><svg xmlns="http://www.w3.org/2000/svg" version="1.2" baseProfile="tiny" width="6000" height="5918" viewBox="0 0 6000 5918" stroke-linecap="round" stroke-linejoin="round"><path d="M 2000.082 4182.8974 2036.4404 4206.4682 2075.4619 4234.6563 2100.2322 4266.8732 2106.942 4281.3043 2092.8008 4289.9504 2077.269 4298.7107 2069.7333 4304.9376 2066.3776 4299.049 2028.0076 4323.8343 1960.8826 4369.1399 1953.2303 4374.6737 1951.3728 4378.712 1944.4223 4376.6283 1925.6533 4373.9571 1905.025 4377.2858 1887.6424 4379.1167 1902.2635 4355.9301 1933.2572 4291.9009 1957.982 4237.7947 1969.4641 4223.0324 1989.1722 4207.3538 2000.082 4182.8974 Z" fill="none" stroke="#A9159C" opacity="0.6" stroke-width="1" class="rosebank"/>
<path d="M 2087.4343 4341.4225 2074.455 4344.1832 2006.7411 4402.3049 1935.3869 4373.6194 2042.0726 4264.7531 2087.4343 4341.4225 Z" fill="none" stroke="#A9159C" opacity="0.6" stroke-width="1" class="rosebank"/>
<path d="M 2106.9265 4303.5792 2041.9905 4372.091 1949.3851 4265.1393 1986.3184 4155.7673 2106.9265 4303.5792 Z" fill="none" stroke="#A9159C" opacity="0.6" stroke-width="1" class="rosebank"/>
<path d="M 2015.2427 4202.4125 2089.7536 4338.654 2034.0824 4409.2521 2027.5905 4412.9407 1893.2043 4379.1218 2015.2427 4202.4125 Z" fill="none" stroke="#A9159C" opacity="0.6" stroke-width="1" class="rosebank"/>
<path d="M 1771.4216 4269.1238 1839.0689 4283.9652 1780.6605 4297.7559 1774.1973 4273.7432 1771.4216 4269.1238 Z" fill="none" stroke="#A9159C" opacity="0.6" stroke-width="1" class="rosebank"/>
<path d="M 2018.2593 4196.8755 2102.086 4266.8745 2057.2636 4401.4206 1908.5028 4375.4422 1960.5345 4233.5268 2018.2593 4196.8755 Z" fill="none" stroke="#A9159C" opacity="0.6" stroke-width="1" class="rosebank"/>
<path d="M 1981.917 4154.8405 2090.2164 4339.5777 2018.7842 4412.4721 1870.4923 4380.024 1929.9212 4264.6607 1887.3255 4221.2287 1981.917 4154.8405 Z" fill="none" stroke="#A9159C" opacity="0.6" stroke-width="1" class="rosebank"/>
<path d="M 2035.4854 4393.0933 1993.7646 4400.4475 1933.5288 4378.2347 1866.7941 4369.8632 1791.7349 4344.8577 1801.9492 4327.3245 1831.6538 4283.958 1822.4227 4246.0941 1845.6892 4148.2556 1949.5193 4109.5784 2054.2503 4093.9698 2182.9239 4318.4024 2105.9616 4358.0562 2035.4854 4393.0933 Z" fill="none" stroke="#A9159C" opacity="0.6" stroke-width="1" class="rosebank"/>
<path d="M 1927.0416 4376.3822 1888.117 4367.113 1918.7657 4301.5829 1955.8981 4236.0618 2018.017 4210.2621 2076.3789 4248.1597 2063.3906 4264.7692 2032.7896 4283.2118 1995.6982 4302.5719 1966.9555 4312.7047 1946.5322 4348.6979 1927.0416 4376.3822 Z" fill="none" stroke="#A9159C" opacity="0.6" stroke-width="1" class="rosebank"/>
<path d="M 2104.1003 4368.6738 2011.8128 4436.0143 1930.8485 4264.1998 2045.3574 4211.2065 2104.1003 4368.6738 Z" fill="none" stroke="#A9159C" opacity="0.6" stroke-width="1" class="rosebank"/>
<path d="M 2097.207 4285.1061 2096.7419 4287.4141 2092.5749 4281.8713 2093.2694 4282.7951 2096.05 4282.7971 2097.207 4285.1061 Z" fill="none" stroke="#A9159C" opacity="0.6" stroke-width="1" class="rosebank"/>
<path d="M 1998.0893 4211.631 2090.0394 4263.0574 2020.2573 4307.6699 1965.1698 4232.1459 1998.0893 4211.631 Z" fill="none" stroke="#A9159C" opacity="0.6" stroke-width="1" class="rosebank"/>
<path d="M 1973.455 4160.0909 1982.6424 4155.3054 1993.0507 4175.1361 2024.3728 4222.4665 2039.2023 4216.8752 2110.706 4301.4875 2041.4234 4373.2488 2021.389 4410.0476 1824.427 4284.8236 1972.6018 4161.241 1973.455 4160.0909 Z" fill="none" stroke="#A9159C" opacity="0.6" stroke-width="1" class="rosebank"/>
<path d="M 1976.7134 4157.6598 2105.4071 4371.9859 2031.2926 4411.6637 1900.9676 4372.667 1944.2172 4267.2215 1921.9862 4251.5061 1959.5087 4227.5788 1936.6055 4186.4753 1976.7134 4157.6598 Z" fill="none" stroke="#A9159C" opacity="0.6" stroke-width="1" class="rosebank"/></svg>