<?xml version="1.0"?><svg xmlns="http://www.w3.org/2000/svg" version="1.2" baseProfile="tiny" width="6000" height="5918" viewBox="0 0 6000 5918" stroke-linecap="round" stroke-linejoin="round"><path d="M 2722.8375 4743.1795 2740.6858 4860.0415 2634.7293 4823.079 2637.9844 4755.1807 2722.6056 4745.7198 2722.8375 4743.1795 Z" fill="none" stroke="#E71E24" opacity="0.6" stroke-width="1" class="sea_gate"/>
<path d="M 2722.6847 4752.3457 2724.6011 4760.3261 2726.5194 4770.9115 2729.4321 4791.3492 2731.3831 4806.5165 2733.0302 4815.9715 2735.2387 4830.1814 2738.3481 4853.1828 2740.6237 4873.2204 2721.8466 4859.9097 2708.2301 4853.5765 2670.8374 4844.3714 2654.144 4840.2123 2642.5651 4833.1214 2633.0958 4810.7978 2627.1053 4786.5821 2632.5072 4769.3466 2637.0779 4757.3998 2655.3363 4744.7129 2673.2715 4735.9027 2693.2122 4727.4821 2698.8052 4755.9239 2722.6847 4752.3457 Z" fill="none" stroke="#E71E24" opacity="0.6" stroke-width="1" class="sea_gate"/>
<path d="M 2742.54 4886.8339 2739.0622 4876.902 2727.4693 4865.5842 2688.7493 4848.4905 2667.1865 4846.4098 2644.9289 4838.7855 2635.1923 4827.6982 2624.997 4785.2015 2634.9702 4757.4897 2641.9264 4749.4077 2660.0106 4740.6343 2695.2502 4730.2455 2699.1892 4760.2677 2723.9961 4756.3431 2742.54 4886.8339 Z" fill="none" stroke="#E71E24" opacity="0.6" stroke-width="1" class="sea_gate"/>
<path d="M 2737.2082 4847.3384 2641.6829 4838.0922 2631.492 4761.8771 2721.9102 4743.4104 2737.2082 4847.3384 Z" fill="none" stroke="#E71E24" opacity="0.6" stroke-width="1" class="sea_gate"/>
<path d="M 2721.4471 4731.8636 2739.526 4877.364 2710.7755 4857.9615 2663.4766 4846.8714 2641.6829 4838.5542 2624.9961 4791.4371 2630.1013 4759.5675 2650.9681 4748.4851 2644.4769 4747.0987 2691.3095 4724.4719 2721.4471 4731.8636 Z" fill="none" stroke="#E71E24" opacity="0.6" stroke-width="1" class="sea_gate"/>
<path d="M 2723.7645 4752.4171 2737.7878 4849.648 2739.5261 4873.2066 2696.6325 4849.4149 2668.114 4845.4861 2637.9744 4828.8534 2629.1695 4790.052 2638.9118 4754.2571 2694.323 4727.7051 2698.0303 4756.3416 2723.7645 4752.4171 Z" fill="none" stroke="#E71E24" opacity="0.6" stroke-width="1" class="sea_gate"/>
<path d="M 2737.9037 4850.5719 2715.8767 4853.3425 2664.1736 4834.3996 2636.3531 4816.6125 2630.3291 4787.2808 2645.635 4755.1817 2696.1764 4745.2564 2721.9102 4742.2557 2737.9037 4850.5719 Z" fill="none" stroke="#E71E24" opacity="0.6" stroke-width="1" class="sea_gate"/>
<path d="M 2714.0243 4807.1508 2743.6996 4875.5163 2726.0778 4872.7442 2701.0361 4875.5144 2673.2132 4863.5018 2636.1147 4864.4213 2624.9911 4824.6943 2617.5779 4785.8932 2643.5502 4741.5561 2703.8282 4726.7821 2655.6058 4739.7101 2719.5928 4724.0118 2736.2845 4725.8599 2723.3007 4754.4955 2732.573 4788.6756 2736.2814 4827.4758 2740.9177 4857.0389 2714.0243 4807.1508 Z" fill="none" stroke="#E71E24" opacity="0.6" stroke-width="1" class="sea_gate"/></svg>