<?xml version="1.0"?><svg xmlns="http://www.w3.org/2000/svg" version="1.2" baseProfile="tiny" width="6000" height="5918" viewBox="0 0 6000 5918" stroke-linecap="round" stroke-linejoin="round"><path d="M 1926.5062 3935.1017 1906.0491 4015.3848 1863.3741 4067.96 1856.8599 4096.5701 1833.5895 4200.8661 1816.8551 4252.5514 1824.2396 4283.0273 1793.5888 4344.8597 1735.2201 4318.0207 1694.4355 4317.9754 1678.7182 4282.8713 1619.4991 4198.7845 1554.6712 4160.8524 1539.8668 4142.3698 1475.0421 4107.2038 1450.9911 4075.7846 1486.2251 4061.0634 1717.0154 4017.0402 1803.1673 4041.1313 1851.4237 3968.2595 1913.5403 3928.6294 1926.5062 3935.1017 Z" fill="none" stroke="#444" opacity="0.6" stroke-width="1" class="silver_lake"/>
<path d="M 1674.3809 4025.2994 1701.2523 4026.2531 1738.3318 4013.3714 1776.3051 4030.9498 1813.3661 4035.6032 1799.4315 4069.743 1779.0099 4102.954 1753.0353 4127.8514 1736.3309 4149.0661 1711.2879 4167.5022 1693.7064 4143.4798 1674.3809 4025.2994 Z" fill="none" stroke="#444" opacity="0.6" stroke-width="1" class="silver_lake"/>
<path d="M 1726.1183 4165.6722 1672.4359 4104.6831 1679.8824 4076.0751 1701.244 4033.6375 1743.8796 4024.454 1780.0116 4030.9537 1785.5227 4078.0366 1777.1497 4109.414 1762.2879 4141.7087 1709.4673 4137.9585 1726.1183 4165.6722 Z" fill="none" stroke="#444" opacity="0.6" stroke-width="1" class="silver_lake"/>
<path d="M 1660.8881 4073.7453 1647.7917 3981.655 1822.1876 4017.1509 1721.0244 4162.6663 1663.3757 4125.9049 1659.268 4072.3588 1654.8878 4054.0072 1657.4361 4054.0102 1658.0156 4053.7801 1660.8881 4073.7453 Z" fill="none" stroke="#444" opacity="0.6" stroke-width="1" class="silver_lake"/>
<path d="M 1649.2092 4154.5064 1626.0824 4119.3986 1615.9692 4052.9222 1663.2709 4016.9791 1708.6994 3995.8011 1760.5943 3991.2426 1807.8193 4022.6748 1827.2163 4085.4638 1826.2392 4136.2353 1767.8085 4179.5651 1649.2092 4154.5064 Z" fill="none" stroke="#444" opacity="0.6" stroke-width="1" class="silver_lake"/>
<path d="M 1800.3827 4045.7438 1689.018 4191.4804 1667.8709 4045.5993 1800.3827 4045.7438 Z" fill="none" stroke="#444" opacity="0.6" stroke-width="1" class="silver_lake"/>
<path d="M 1808.7254 4042.983 1681.5962 4197.9345 1615.038 4056.6134 1808.7254 4042.983 Z" fill="none" stroke="#444" opacity="0.6" stroke-width="1" class="silver_lake"/>
<path d="M 1815.2212 4033.7589 1846.2405 4057.7895 1851.8058 4052.2564 1868.4744 4064.2725 1862.9015 4077.6521 1839.2484 4100.7071 1817.4555 4115.9172 1815.564 4153.7649 1823.9039 4154.6964 1825.7378 4174.5468 1819.6758 4212.3927 1794.1665 4233.6014 1745.9673 4236.7821 1712.1144 4257.5186 1704.1967 4292.595 1691.6815 4294.4275 1646.3284 4239.4393 1619.4958 4201.5542 1563.9289 4168.7113 1543.1056 4146.0666 1508.4658 4060.6317 1716.0887 4017.0392 1805.0202 4041.5947 1815.2212 4033.7589 Z" fill="none" stroke="#444" opacity="0.6" stroke-width="1" class="silver_lake"/>
<path d="M 1672.5735 3985.6068 1757.3847 3959.8569 1834.7262 3987.6263 1838.2679 4155.6338 1625.0967 4168.3254 1672.5735 3985.6068 Z" fill="none" stroke="#444" opacity="0.6" stroke-width="1" class="silver_lake"/></svg>