<?xml version="1.0"?><svg xmlns="http://www.w3.org/2000/svg" version="1.2" baseProfile="tiny" width="6000" height="5918" viewBox="0 0 6000 5918" stroke-linecap="round" stroke-linejoin="round"><path d="M 2067.3213 4470.3727 2112.3357 4553.229 2093.6418 4577.5752 2070.2597 4602.5707 2060.4694 4618.9458 2037.6437 4649.2344 2019.806 4671.8452 1966.7141 4636.0894 1940.4159 4642.2486 1896.9366 4614.2777 1882.0355 4583.6985 1874.0613 4567.4648 1866.1694 4548.0312 1878.8168 4533.6007 1897.1849 4525.1463 1883.7316 4494.6661 1918.9048 4494.7037 1942.2774 4500.2805 1959.4702 4506.3425 1969.3478 4506.5376 1986.8276 4489.3632 1991.9192 4498.487 1995.1862 4502.1524 2017.64 4492.4604 2040.0495 4482.135 2067.3213 4470.3727 Z" fill="none" stroke="#012394" opacity="0.6" stroke-width="1" class="south_beach"/>
<path d="M 2085.8263 4556.2086 2101.7725 4576.7057 2015.1676 4688.2125 1903.4217 4615.7672 1896.8662 4605.9316 1895.552 4598.7789 1887.9123 4588.3813 1884.9081 4578.4498 1881.9002 4572.6746 1878.884 4566.8112 1874.2541 4560.5727 1870.8955 4552.3914 1866.0947 4542.2073 1862.3923 4535.739 1855.9039 4534.1165 1847.5628 4530.8761 1840.8431 4528.7916 1841.5423 4524.8672 1845.7236 4515.4051 1852.3736 4509.0978 1861.4324 4500.1105 1871.634 4496.4262 1882.5311 4492.5115 1887.8906 4491.8174 1899.2474 4491.8279 1913.4991 4493.2261 1923.6038 4493.1296 1934.9599 4494.0632 1944.9222 4498.6894 1956.6652 4505.2659 1966.3991 4506.1977 1973.5847 4505.5111 1981.9354 4497.4373 1986.3436 4485.7335 1989.5818 4493.8168 1990.5029 4501.2056 2005.2453 4518.6336 2064.3601 4493.3395 2078.7349 4486.6547 2087.4335 4498.706 2096.5431 4525.398 2085.8263 4556.2086 Z" fill="none" stroke="#012394" opacity="0.6" stroke-width="1" class="south_beach"/>
<path d="M 1422.6113 4483.8439 1321.1362 4760.7844 1573.1352 4953.2984 1634.6667 4691.0073 1636.1741 4982.0187 1583.3116 4974.5623 1368.2118 4909.5933 1308.1077 4790.3255 1320.4458 4605.6031 1422.6113 4483.8439 Z" fill="none" stroke="#012394" opacity="0.6" stroke-width="1" class="south_beach"/>
<path d="M 1929.4987 4743.0422 1841.479 4663.5212 1918.5417 4551.8356 2008.4614 4569.4597 1929.4987 4743.0422 Z" fill="none" stroke="#012394" opacity="0.6" stroke-width="1" class="south_beach"/>
<path d="M 2026.9349 4659.0658 1946.2771 4643.2972 1885.1351 4583.2068 1867.5869 4511.1527 1918.5946 4492.7294 1975.1381 4503.8605 2077.1465 4467.0002 2116.0238 4553.8389 2026.9349 4659.0658 Z" fill="none" stroke="#012394" opacity="0.6" stroke-width="1" class="south_beach"/>
<path d="M 1854.1149 4541.1548 1861.1055 4502.3731 1888.9191 4501.9375 1918.129 4495.0378 1945.9351 4502.9121 1966.7868 4512.6269 1979.7487 4533.8791 2001.5446 4523.738 2028.8886 4531.6098 2034.4225 4569.0183 2026.5153 4602.7234 2007.9524 4626.2612 1981.051 4640.5557 1950.8962 4663.1599 1895.7675 4616.0048 1852.2352 4567.4746 1854.1149 4541.1548 Z" fill="none" stroke="#012394" opacity="0.6" stroke-width="1" class="south_beach"/>
<path d="M 2078.9852 4488.2419 2098.6605 4524.2732 2110.9328 4541.8291 2117.6397 4563.5375 2065.9044 4625.6131 2062.4213 4633.6923 2070.2984 4639.7018 2021.5843 4683.0773 2015.5484 4693.9259 1995.1602 4678.8995 1974.5675 4632.0066 1961.6176 4595.0508 1954.8929 4598.0467 1933.378 4549.7707 1979.0574 4529.0299 2078.9852 4488.2419 Z" fill="none" stroke="#012394" opacity="0.6" stroke-width="1" class="south_beach"/>
<path d="M 1995.4044 4663.659 1939.7824 4647.9098 1935.1486 4645.1348 1943.5026 4634.982 1891.6211 4587.8308 2001.0776 4527.8935 2050.1582 4603.6652 1995.4044 4663.659 Z" fill="none" stroke="#012394" opacity="0.6" stroke-width="1" class="south_beach"/>
<path d="M 2090.8358 4581.1975 2087.851 4583.3695 2067.437 4604.7726 2011.8496 4668.6361 1952.0175 4624.3374 1908.671 4550.3933 1912.6145 4546.9335 1937.3881 4535.5852 2049.5857 4479.4852 2090.8358 4581.1975 Z" fill="none" stroke="#012394" opacity="0.6" stroke-width="1" class="south_beach"/>
<path d="M 2063.943 4457.294 2100.7251 4554.7518 1819.4968 4855.1807 1739.3035 4826.458 2063.943 4457.294 Z" fill="none" stroke="#012394" opacity="0.6" stroke-width="1" class="south_beach"/>
<path d="M 2046.2134 4609.2039 2001.1037 4639.0712 1988.908 4670.4658 1931.7959 4635.4335 1881.0824 4579.1623 1838.8304 4527.5177 1986.2769 4487.4774 2046.2134 4609.2039 Z" fill="none" stroke="#012394" opacity="0.6" stroke-width="1" class="south_beach"/>
<path d="M 1922.3365 4761.0898 1873.8309 4568.4216 2009.2343 4522.3616 2047.449 4606.0553 1922.3365 4761.0898 Z" fill="none" stroke="#012394" opacity="0.6" stroke-width="1" class="south_beach"/>
<path d="M 1899.0157 4612.7751 1902.7187 4619.2438 1855.9852 4524.5328 2028.962 4437.413 2115.1049 4541.832 2006.5367 4657.2023 2002.8262 4659.0467 1964.8149 4651.626 1906.4192 4628.4835 1903.6425 4622.9392 1860.1418 4540.6988 1899.0157 4612.7751 Z" fill="none" stroke="#012394" opacity="0.6" stroke-width="1" class="south_beach"/>
<path d="M 1816.4124 4693.9781 1885.1213 4597.9844 1951.8993 4574.9542 2001.9876 4549.1359 2013.0921 4575.9285 2036.2715 4575.9466 2076.1616 4546.4222 2088.2178 4541.8131 2103.0514 4542.7472 2121.5861 4554.7663 2135.4873 4564.0113 2126.1976 4590.7891 2083.5169 4632.3223 2072.3678 4662.7948 2049.1541 4705.2674 1979.5382 4787.426 1952.6583 4770.7752 1897.9615 4751.3276 1847.9143 4720.7969 1816.4124 4693.9781 Z" fill="none" stroke="#012394" opacity="0.6" stroke-width="1" class="south_beach"/>
<path d="M 1910.0925 4521.1126 2076.9258 4542.2418 1991.7436 4623.8881 2036.367 4472.4598 1985.1528 4565.5081 1910.0925 4521.1126 Z" fill="none" stroke="#012394" opacity="0.6" stroke-width="1" class="south_beach"/>
<path d="M 2004.9014 4518.0035 2010.1468 4528.4898 2015.9269 4546.7345 2022.3315 4556.9717 2025.3897 4564.0459 2029.3192 4578.1336 2037.8843 4592.9178 2042.7011 4604.9231 2054.3404 4617.2227 2025.31 4639.0262 1996.106 4634.1538 2010.4606 4656.1022 2022.5267 4641.1023 2025.3098 4639.2572 2006.9797 4660.7177 2009.3002 4657.7176 1996.3368 4635.3086 1994.482 4635.7689 1995.8713 4637.6173 1985.2108 4634.3758 1971.8463 4636.336 2004.9014 4518.0035 Z" fill="none" stroke="#012394" opacity="0.6" stroke-width="1" class="south_beach"/>
<path d="M 2062.3162 4463.2954 2101.2134 4519.6573 1999.1104 4667.3567 1903.6459 4619.2447 1883.2747 4589.6702 1898.1334 4563.8235 1912.0733 4527.8174 1932.4815 4514.9061 1991.8351 4492.7921 1993.7179 4457.7011 2024.3289 4434.639 2038.2394 4428.1857 2062.3162 4463.2954 Z" fill="none" stroke="#012394" opacity="0.6" stroke-width="1" class="south_beach"/>
<path d="M 2063.2894 4471.0266 2112.4958 4556.8491 2015.0396 4688.8562 1870.3963 4536.4334 2063.2894 4471.0266 Z" fill="none" stroke="#012394" opacity="0.6" stroke-width="1" class="south_beach"/>
<path d="M 1848.1248 4503.7458 2024.3282 4435.5625 2102.1353 4527.0462 2022.3059 4649.8256 1848.1248 4503.7458 Z" fill="none" stroke="#012394" opacity="0.6" stroke-width="1" class="south_beach"/>
<path d="M 1984.3771 4542.6566 2015.84 4618.4166 1935.1681 4622.9674 1892.573 4561.0477 1984.3771 4542.6566 Z" fill="none" stroke="#012394" opacity="0.6" stroke-width="1" class="south_beach"/>
<path d="M 1943.3887 4766.1484 1776.5842 4650.5243 1838.8112 4547.1431 2085.4058 4584.2955 1943.3887 4766.1484 Z" fill="none" stroke="#012394" opacity="0.6" stroke-width="1" class="south_beach"/>
<path d="M 2053.3037 4425.7149 2091.6349 4542.2773 1999.3303 4679.8839 1910.3734 4611.4572 2053.3037 4425.7149 Z" fill="none" stroke="#012394" opacity="0.6" stroke-width="1" class="south_beach"/>
<path d="M 1923.9264 4752.2748 1782.1276 4669.9272 1883.359 4499.1618 2001.0426 4571.3009 2022.3487 4595.3313 2034.3829 4620.2783 1923.9264 4752.2748 Z" fill="none" stroke="#012394" opacity="0.6" stroke-width="1" class="south_beach"/>
<path d="M 1997.1593 4500.8772 2067.8743 4469.0713 2091.2531 4510.8767 2097.9666 4522.1947 2096.1083 4527.9655 2089.3832 4532.8093 2085.6658 4545.0437 2084.9608 4558.4349 2082.6328 4572.5178 2045.5164 4611.2815 2002.4793 4514.2725 1999.2372 4510.8067 1991.3626 4503.643 1997.1593 4500.8772 Z" fill="none" stroke="#012394" opacity="0.6" stroke-width="1" class="south_beach"/>
<path d="M 2045.0544 4609.203 1955.4772 4727.823 1860.1464 4535.8502 1985.8126 4488.4005 2045.0544 4609.203 Z" fill="none" stroke="#012394" opacity="0.6" stroke-width="1" class="south_beach"/>
<path d="M 1989.8264 4681.2044 1836.0543 4522.2046 2041.0113 4440.1926 2133.6428 4549.233 1989.8264 4681.2044 Z" fill="none" stroke="#012394" opacity="0.6" stroke-width="1" class="south_beach"/>
<path d="M 1922.0668 4757.8157 1859.9146 4535.85 1969.111 4505.0098 2072.8917 4580.3612 1922.0668 4757.8157 Z" fill="none" stroke="#012394" opacity="0.6" stroke-width="1" class="south_beach"/>
<path d="M 2070.2709 4465.1335 2127.3254 4557.1705 1958.4419 4722.3746 1871.1468 4522.2236 2070.2709 4465.1335 Z" fill="none" stroke="#012394" opacity="0.6" stroke-width="1" class="south_beach"/></svg>