<?xml version="1.0"?><svg xmlns="http://www.w3.org/2000/svg" version="1.2" baseProfile="tiny" width="6000" height="5918" viewBox="0 0 6000 5918" stroke-linecap="round" stroke-linejoin="round"><path d="M 2978.0651 3611.544 2932.6907 3673.3728 2828.0169 3629.0964 2873.3954 3562.6624 2978.0651 3611.544 Z" fill="none" stroke="#E71E24" opacity="0.6" stroke-width="1" class="south_slope_"/>
<path d="M 2890.0761 3633.7036 2877.1096 3642.932 2768.7368 3561.746 2732.6167 3534.0677 2782.6283 3495.3206 2784.4802 3478.715 2927.1177 3583.8749 2914.1536 3601.4071 2890.0761 3633.7036 Z" fill="none" stroke="#E71E24" opacity="0.6" stroke-width="1" class="south_slope_"/>
<path d="M 2889.1293 3476.8621 3015.1002 3558.2533 3013.9424 3557.7923 2950.6339 3654.6847 2911.6099 3623.8972 2903.8511 3613.0571 2887.6378 3580.5363 2868.7643 3560.9331 2845.1451 3541.4455 2889.1293 3476.8621 Z" fill="none" stroke="#E71E24" opacity="0.6" stroke-width="1" class="south_slope_"/>
<path d="M 2962.3251 3640.1501 2937.7848 3670.6038 2890.5391 3632.7809 2871.0904 3656.3117 2847.932 3637.8602 2841.912 3646.1649 2764.569 3588.5019 2780.776 3487.4791 2962.3251 3640.1501 Z" fill="none" stroke="#E71E24" opacity="0.6" stroke-width="1" class="south_slope_"/>
<path d="M 2886.8144 3479.1687 3013.341 3560.1949 2981.1355 3609.4706 2959.8296 3596.5582 2929.2716 3637.6222 2905.1862 3619.1727 2890.8248 3583.653 2844.5379 3545.5511 2886.8144 3479.1687 Z" fill="none" stroke="#E71E24" opacity="0.6" stroke-width="1" class="south_slope_"/>
<path d="M 2847.469 3639.2443 2843.7644 3644.7807 2818.7543 3628.1743 2765.0321 3593.115 2807.6303 3424.2869 2966.0061 3526.6664 2872.48 3657.6956 2847.469 3639.2443 Z" fill="none" stroke="#E71E24" opacity="0.6" stroke-width="1" class="south_slope_"/>
<path d="M 2847.4688 3637.8603 2841.912 3646.1649 2818.7542 3626.3289 2811.8078 3635.0947 2755.0753 3591.2697 2748.3603 3588.0404 2769.663 3560.3621 2734.4691 3531.3 2774.2933 3504.0849 2814.5815 3537.7573 2840.5105 3493.934 2865.9804 3510.0762 2942.8586 3559.8841 2872.0168 3657.2343 2847.4688 3637.8603 Z" fill="none" stroke="#E71E24" opacity="0.6" stroke-width="1" class="south_slope_"/>
<path d="M 2916.0045 3592.1804 2942.8669 3604.1701 2929.9019 3616.1669 2912.3018 3606.0206 2916.0045 3592.1804 Z" fill="none" stroke="#E71E24" opacity="0.6" stroke-width="1" class="south_slope_"/>
<path d="M 2841.0936 3547.212 2880.8057 3569.1198 2752.0633 3720.447 2719.0633 3703.4904 2841.0936 3547.212 Z" fill="none" stroke="#E71E24" opacity="0.6" stroke-width="1" class="south_slope_"/>
<path d="M 3013.2473 3556.1779 2938.2477 3669.2196 2888.6866 3633.2424 2871.322 3655.8503 2848.1635 3637.8602 2841.2172 3645.7036 2817.5966 3629.5583 2811.5763 3635.556 2754.1491 3590.5777 2834.4869 3440.89 3013.2473 3556.1779 Z" fill="none" stroke="#E71E24" opacity="0.6" stroke-width="1" class="south_slope_"/>
<path d="M 3015.5629 3556.8692 2980.6119 3610.3901 2962.788 3638.9966 2843.293 3544.2135 2885.8878 3475.4787 3015.5629 3556.8692 Z" fill="none" stroke="#E71E24" opacity="0.6" stroke-width="1" class="south_slope_"/>
<path d="M 2904.4308 3618.4776 2822.9165 3529.9149 2915.045 3381.3821 2926.1632 3417.817 2953.4852 3436.7226 2937.2837 3461.6331 2962.754 3475.9271 2939.1449 3510.9882 2965.0803 3528.5117 2904.4308 3618.4776 Z" fill="none" stroke="#E71E24" opacity="0.6" stroke-width="1" class="south_slope_"/>
<path d="M 2983.8534 3608.7747 2884.7377 3535.214 2944.6883 3440.4143 3084.3195 3521.0985 3031.0872 3595.3843 2983.8534 3608.7747 Z" fill="none" stroke="#E71E24" opacity="0.6" stroke-width="1" class="south_slope_"/>
<path d="M 3015.0999 3557.1 2957.2322 3647.5326 2855.7996 3580.1939 2913.2104 3493.0029 3015.0999 3557.1 Z" fill="none" stroke="#E71E24" opacity="0.6" stroke-width="1" class="south_slope_"/>
<path d="M 2983.6219 3609.2361 2938.0163 3670.373 2890.5391 3633.0115 2871.5536 3656.5423 2847.4689 3638.091 2841.2173 3646.857 2770.8209 3591.7311 2823.842 3519.3053 2983.6219 3609.2361 Z" fill="none" stroke="#E71E24" opacity="0.6" stroke-width="1" class="south_slope_"/>
<path d="M 2983.6217 3608.3134 2937.7847 3670.1424 2889.6129 3633.2423 2869.2375 3652.6211 2848.3951 3638.3215 2841.9119 3645.2422 2793.7451 3607.8769 2856.2577 3527.6059 2983.6217 3608.3134 Z" fill="none" stroke="#E71E24" opacity="0.6" stroke-width="1" class="south_slope_"/>
<path d="M 2841.5984 3547.8947 3006.7817 3625.5246 2964.3451 3687.8165 2887.9178 3633.2333 2878.6565 3643.2271 2853.1832 3630.9305 2840.8279 3643.2308 2788.3451 3607.8678 2841.5984 3547.8947 Z" fill="none" stroke="#E71E24" opacity="0.6" stroke-width="1" class="south_slope_"/>
<path d="M 2848.1636 3638.0909 2841.6804 3646.3956 2817.5965 3627.4823 2805.3244 3642.7071 2735.8583 3530.8388 2831.7095 3452.8826 2907.6549 3501.076 2860.8928 3570.9672 2908.5972 3608.0971 2890.7706 3632.7808 2871.3221 3657.465 2848.1636 3638.0909 Z" fill="none" stroke="#E71E24" opacity="0.6" stroke-width="1" class="south_slope_"/>
<path d="M 2832.6421 3544.2143 3025.3447 3763.782 2814.1357 3872.713 2693.6997 3776.7342 2832.6421 3544.2143 Z" fill="none" stroke="#E71E24" opacity="0.6" stroke-width="1" class="south_slope_"/>
<path d="M 2888.6664 3478.0153 2990.0899 3543.7287 2940.0909 3618.7024 2846.3031 3544.6745 2888.6664 3478.0153 Z" fill="none" stroke="#E71E24" opacity="0.6" stroke-width="1" class="south_slope_"/>
<path d="M 2840.0593 3644.781 2765.0321 3590.3471 2861.3445 3458.4151 3014.1732 3555.2551 2935.4689 3669.6815 2840.0593 3644.781 Z" fill="none" stroke="#E71E24" opacity="0.6" stroke-width="1" class="south_slope_"/>
<path d="M 2963.0195 3638.7659 2843.0613 3542.5989 2886.8139 3475.7092 3016.0261 3557.3304 2963.0195 3638.7659 Z" fill="none" stroke="#E71E24" opacity="0.6" stroke-width="1" class="south_slope_"/>
<path d="M 2841.4488 3645.9343 2817.1333 3626.7904 2793.5135 3607.8769 2840.9778 3546.9814 2871.3124 3570.2742 2902.578 3616.4019 2871.5535 3656.081 2847.7004 3638.0909 2841.4488 3645.9343 Z" fill="none" stroke="#E71E24" opacity="0.6" stroke-width="1" class="south_slope_"/>
<path d="M 2937.3216 3670.1425 2889.1496 3632.3197 2872.0167 3655.8502 2848.3951 3637.8602 2841.9119 3645.2422 2818.7543 3626.7903 2885.4321 3533.1381 2987.7878 3600.0087 2936.858 3667.8358 2937.3216 3670.1425 Z" fill="none" stroke="#E71E24" opacity="0.6" stroke-width="1" class="south_slope_"/>
<path d="M 3013.2476 3557.1005 2947.5085 3658.6068 2840.9776 3545.1362 2886.3508 3475.0174 3013.2476 3557.1005 Z" fill="none" stroke="#E71E24" opacity="0.6" stroke-width="1" class="south_slope_"/>
<path d="M 2981.3054 3605.0847 2932.6934 3688.5977 2770.5893 3594.9603 2792.8176 3563.5908 2832.6398 3512.3855 2981.3054 3605.0847 Z" fill="none" stroke="#E71E24" opacity="0.6" stroke-width="1" class="south_slope_"/>
<path d="M 2841.4488 3646.1649 2769.6631 3589.8858 2821.0641 3528.5312 2915.5431 3602.7908 2871.0903 3655.389 2848.8583 3639.2442 2841.4488 3646.1649 Z" fill="none" stroke="#E71E24" opacity="0.6" stroke-width="1" class="south_slope_"/>
<path d="M 2890.0762 3634.6263 2866.9179 3616.6371 2794.9013 3557.5938 2736.0899 3530.6081 2764.3375 3520.4603 2793.0466 3476.1779 2800.4551 3468.1056 2865.2859 3510.9988 2887.277 3476.1704 2964.1534 3524.8216 2890.0762 3634.6263 Z" fill="none" stroke="#E71E24" opacity="0.6" stroke-width="1" class="south_slope_"/>
<path d="M 2982.2315 3604.6232 2980.6107 3605.0849 2978.99 3606.0079 2978.7592 3609.0065 2980.3806 3611.5435 2963.0195 3638.7659 2956.5374 3647.302 2897.2499 3600.2563 2903.2692 3592.413 2842.3667 3543.0603 2885.4246 3474.5563 3015.0997 3556.4081 2984.5472 3605.3146 2982.2315 3604.6232 Z" fill="none" stroke="#E71E24" opacity="0.6" stroke-width="1" class="south_slope_"/>
<path d="M 2889.5922 3475.9395 3016.4893 3557.5609 2935.9323 3671.0655 2843.2971 3594.0345 2808.5659 3634.6335 2761.3272 3595.8829 2862.7338 3460.2599 2889.5922 3475.9395 Z" fill="none" stroke="#E71E24" opacity="0.6" stroke-width="1" class="south_slope_"/>
<path d="M 2865.5214 3548.363 2897.4661 3490.2376 3012.7845 3557.1006 2960.0073 3629.5398 2865.5214 3548.363 Z" fill="none" stroke="#E71E24" opacity="0.6" stroke-width="1" class="south_slope_"/>
<path d="M 2887.277 3475.9398 3018.8054 3559.8668 2938.2479 3670.6037 2889.1493 3630.013 2873.4061 3655.8501 2847.469 3639.2443 2842.8381 3644.7808 2817.8279 3624.4837 2768.7369 3593.115 2863.1967 3459.3374 2887.277 3475.9398 Z" fill="none" stroke="#E71E24" opacity="0.6" stroke-width="1" class="south_slope_"/>
<path d="M 2815.3551 3577.1218 2881.4108 3473.4811 3028.9929 3561.7101 2962.3271 3653.9913 2815.3551 3577.1218 Z" fill="none" stroke="#E71E24" opacity="0.6" stroke-width="1" class="south_slope_"/>
<path d="M 3014.6371 3558.0227 2939.6375 3671.5261 2817.8251 3574.1998 2888.6663 3476.8622 3014.6371 3558.0227 Z" fill="none" stroke="#E71E24" opacity="0.6" stroke-width="1" class="south_slope_"/>
<path d="M 2992.8792 3588.4745 2937.3217 3670.6039 2840.0554 3594.9574 2890.9879 3524.8342 2992.8792 3588.4745 Z" fill="none" stroke="#E71E24" opacity="0.6" stroke-width="1" class="south_slope_"/>
<path d="M 2987.3244 3599.0861 2937.3218 3671.5266 2890.5391 3633.2422 2869.238 3657.2346 2846.0794 3637.3991 2838.6702 3648.0105 2817.3649 3627.2517 2810.8815 3634.172 2765.9583 3596.8056 2835.4174 3500.8535 2987.3244 3599.0861 Z" fill="none" stroke="#E71E24" opacity="0.6" stroke-width="1" class="south_slope_"/>
<path d="M 2816.8991 3577.429 2849.3121 3534.0645 2982.6958 3609.6976 2937.3217 3670.6039 2888.2237 3634.6265 2871.0904 3656.3117 2847.2374 3639.0137 2841.6804 3645.7036 2793.0504 3608.3382 2816.8991 3577.429 Z" fill="none" stroke="#E71E24" opacity="0.6" stroke-width="1" class="south_slope_"/>
<path d="M 2951.1576 3373.5351 2862.2809 3558.9732 2821.5267 3520.228 2918.7464 3365.2392 2951.1576 3373.5351 Z" fill="none" stroke="#E71E24" opacity="0.6" stroke-width="1" class="south_slope_"/>
<path d="M 3015.5631 3557.5612 2937.3217 3670.6039 2818.2883 3576.5063 2885.8879 3476.4013 3015.5631 3557.5612 Z" fill="none" stroke="#E71E24" opacity="0.6" stroke-width="1" class="south_slope_"/>
<path d="M 2890.988 3525.7568 2993.8059 3590.3196 2934.5426 3669.6816 2840.0551 3591.2668 2890.988 3525.7568 Z" fill="none" stroke="#E71E24" opacity="0.6" stroke-width="1" class="south_slope_"/>
<path d="M 2765.9583 3592.1924 2780.7778 3601.4186 2756.696 3605.1093 2765.9583 3592.1924 Z" fill="none" stroke="#E71E24" opacity="0.6" stroke-width="1" class="south_slope_"/>
<path d="M 2849.3168 3586.1916 2913.2103 3492.0804 2989.6262 3540.961 2920.4126 3644.3099 2849.3168 3586.1916 Z" fill="none" stroke="#E71E24" opacity="0.6" stroke-width="1" class="south_slope_"/>
<path d="M 2790.9654 3570.0491 2860.8814 3458.4151 2963.6902 3524.3605 2884.5194 3640.163 2790.9654 3570.0491 Z" fill="none" stroke="#E71E24" opacity="0.6" stroke-width="1" class="south_slope_"/>
<path d="M 2871.5362 3501.7726 2947.9507 3550.1959 2871.0905 3657.2344 2848.3951 3637.8602 2840.5226 3647.0877 2817.365 3628.1744 2796.5252 3651.7036 2771.5158 3630.9438 2871.5362 3501.7726 Z" fill="none" stroke="#E71E24" opacity="0.6" stroke-width="1" class="south_slope_"/>
<path d="M 2963.7139 3637.3817 2836.8084 3525.3011 2960.0083 3634.6145 2821.5269 3524.3796 2859.9557 3462.1052 2860.8815 3459.3376 3014.1736 3556.639 2963.7124 3630.0003 2964.6393 3633.2295 2963.7139 3637.3817 Z" fill="none" stroke="#E71E24" opacity="0.6" stroke-width="1" class="south_slope_"/>
<path d="M 3012.3214 3557.1007 2963.2591 3677.0578 2877.1109 3654.0043 2772.4418 3603.264 2872.4584 3466.7164 3012.3214 3557.1007 Z" fill="none" stroke="#E71E24" opacity="0.6" stroke-width="1" class="south_slope_"/>
<path d="M 2870.6268 3652.1596 2792.8189 3609.7222 2900.2388 3451.0303 2953.9575 3483.3091 2938.2183 3508.2207 2961.3747 3523.8997 2945.6352 3549.735 2971.5714 3565.4139 2913.2347 3648.4632 2870.6268 3652.1596 Z" fill="none" stroke="#E71E24" opacity="0.6" stroke-width="1" class="south_slope_"/>
<path d="M 2984.5476 3606.9293 2949.3618 3662.2972 2829.8663 3583.8865 2869.6864 3523.9142 2984.5476 3606.9293 Z" fill="none" stroke="#E71E24" opacity="0.6" stroke-width="1" class="south_slope_"/>
<path d="M 2816.6703 3627.4824 2780.4316 3675.4636 2732.6131 3637.9786 2829.8614 3511.4632 2931.7472 3575.5705 2870.6273 3656.3117 2847.4688 3637.6296 2841.6804 3646.1649 2816.6703 3627.4824 Z" fill="none" stroke="#E71E24" opacity="0.6" stroke-width="1" class="south_slope_"/>
<path d="M 3014.6373 3558.9453 2982.2327 3609.6977 2838.6624 3547.9042 2885.425 3477.3238 3014.6373 3558.9453 Z" fill="none" stroke="#E71E24" opacity="0.6" stroke-width="1" class="south_slope_"/>
<path d="M 2847.0057 3637.8603 2840.5226 3646.165 2818.7543 3627.7129 2778.9264 3675.6943 2755.7693 3654.4721 2872.4623 3500.85 2947.4876 3550.196 2869.7011 3657.2345 2847.0057 3637.8603 Z" fill="none" stroke="#E71E24" opacity="0.6" stroke-width="1" class="south_slope_"/>
<path d="M 2847.2373 3638.091 2841.912 3646.1649 2792.8188 3607.6462 2854.8684 3526.4528 2978.7586 3606.4693 2980.6121 3611.3128 2937.7848 3670.8344 2891.0022 3632.5501 2871.3221 3657.0037 2847.2373 3638.091 Z" fill="none" stroke="#E71E24" opacity="0.6" stroke-width="1" class="south_slope_"/>
<path d="M 2938.9427 3670.6036 2867.3809 3614.7917 2842.8384 3647.7795 2817.8279 3624.945 2793.9766 3605.8009 2888.8972 3472.7108 3016.2566 3553.4093 3015.3312 3556.1773 2938.9427 3670.6036 Z" fill="none" stroke="#E71E24" opacity="0.6" stroke-width="1" class="south_slope_"/>
<path d="M 2862.0392 3460.26 3015.0998 3556.8694 2933.6181 3679.8317 2738.1709 3628.6367 2862.0392 3460.26 Z" fill="none" stroke="#E71E24" opacity="0.6" stroke-width="1" class="south_slope_"/>
<path d="M 2889.0132 3481.2183 3008.4816 3557.7531 2978.856 3611.2726 2958.4834 3633.4208 2916.7974 3603.9033 2901.9787 3610.3641 2836.5799 3566.0279 2889.0132 3481.2183 Z" fill="none" stroke="#E71E24" opacity="0.6" stroke-width="1" class="south_slope_"/>
<path d="M 2843.2972 3595.8797 2912.2846 3494.8481 3012.7847 3558.0232 2939.6375 3671.0648 2843.2972 3595.8797 Z" fill="none" stroke="#E71E24" opacity="0.6" stroke-width="1" class="south_slope_"/>
<path d="M 2847.4688 3637.399 2799.3022 3601.4182 2850.2383 3534.0645 2978.0634 3604.1628 2931.7633 3666.914 2866.9218 3652.16 2847.4688 3637.399 Z" fill="none" stroke="#E71E24" opacity="0.6" stroke-width="1" class="south_slope_"/>
<path d="M 2887.7399 3475.0172 2967.3952 3526.2048 2990.0894 3541.4222 2915.0881 3653.999 2816.4358 3573.2772 2888.6654 3470.4045 2887.7399 3475.0172 Z" fill="none" stroke="#E71E24" opacity="0.6" stroke-width="1" class="south_slope_"/>
<path d="M 2773.368 3593.5763 2821.2961 3535.9118 2886.134 3590.5701 2884.2824 3597.0288 2901.4201 3616.1714 2872.4794 3652.3901 2850.0163 3640.6281 2843.7643 3643.3967 2818.5227 3626.0983 2842.6065 3644.5501 2794.4398 3609.2608 2773.368 3593.5763 Z" fill="none" stroke="#E71E24" opacity="0.6" stroke-width="1" class="south_slope_"/>
<path d="M 3015.0999 3557.1 2978.9913 3611.5438 2956.7582 3594.0183 2915.0874 3649.3856 2817.8253 3577.4289 2887.5085 3475.9398 3015.0999 3557.1 Z" fill="none" stroke="#E71E24" opacity="0.6" stroke-width="1" class="south_slope_"/>
<path d="M 2820.3698 3534.0667 2914.3853 3602.3297 2889.3812 3632.089 2799.0692 3561.2841 2820.3698 3534.0667 Z" fill="none" stroke="#E71E24" opacity="0.6" stroke-width="1" class="south_slope_"/>
<path d="M 2888.2045 3487.01 3024.3614 3556.1749 2949.3586 3645.6888 2857.6483 3541.4444 2854.87 3544.2124 2860.4277 3550.67 2888.2045 3487.01 Z" fill="none" stroke="#E71E24" opacity="0.6" stroke-width="1" class="south_slope_"/>
<path d="M 2843.756 3543.7521 2887.0455 3475.8245 3015.0997 3556.1774 2972.0475 3624.9239 2843.756 3543.7521 Z" fill="none" stroke="#E71E24" opacity="0.6" stroke-width="1" class="south_slope_"/>
<path d="M 3015.5629 3556.8692 2943.8138 3551.697 2937.3335 3567.6131 2932.4726 3576.6095 2924.1386 3586.9904 2913.9527 3602.4462 2939.1956 3620.4336 2928.7781 3636.3515 2889.6719 3630.835 2868.4169 3610.6092 2820.7142 3579.0129 2826.271 3573.0155 2852.2819 3539.1629 2856.7595 3530.7894 2862.0839 3521.7938 2872.5009 3502.419 2888.2298 3476.4759 2912.1533 3493.4284 2966.0057 3525.0519 3015.5629 3556.8692 Z" fill="none" stroke="#E71E24" opacity="0.6" stroke-width="1" class="south_slope_"/>
<path d="M 2987.3252 3602.3154 2875.7096 3551.8216 2955.7978 3424.0381 3057.9144 3488.5872 2987.3252 3602.3154 Z" fill="none" stroke="#E71E24" opacity="0.6" stroke-width="1" class="south_slope_"/>
<path d="M 3014.174 3558.0229 2984.5485 3610.6199 2950.2863 3653.0701 2935.4684 3666.9134 2849.3172 3591.266 2722.4193 3747.2064 2698.3353 3726.904 2882.6465 3475.9404 2905.8017 3494.3878 3014.174 3558.0229 Z" fill="none" stroke="#E71E24" opacity="0.6" stroke-width="1" class="south_slope_"/>
<path d="M 2887.2769 3475.0173 3016.9528 3558.9447 2981.7698 3610.6205 2948.4348 3658.6066 2936.3954 3670.604 2889.1498 3633.7037 2867.8487 3658.6188 2848.3951 3637.3989 2842.8384 3647.5488 2790.0403 3611.5676 2843.7562 3546.0586 2887.2769 3475.0173 Z" fill="none" stroke="#E71E24" opacity="0.6" stroke-width="1" class="south_slope_"/>
<path d="M 2842.8299 3544.2135 2915.5427 3600.4842 2870.1641 3655.8504 2847.9321 3639.2443 2841.4489 3646.6263 2818.2912 3627.713 2754.3793 3707.0671 2731.2219 3687.6891 2843.7558 3540.9844 2842.8299 3544.2135 Z" fill="none" stroke="#E71E24" opacity="0.6" stroke-width="1" class="south_slope_"/></svg>