<?xml version="1.0"?><svg xmlns="http://www.w3.org/2000/svg" version="1.2" baseProfile="tiny" width="6000" height="5918" viewBox="0 0 6000 5918" stroke-linecap="round" stroke-linejoin="round"><path d="M 3727.8677 456.2278 3708.537 511.4248 3640.2763 571.2698 3608.861 543.7076 3572.8419 528.1047 3577.4365 503.2701 3595.8159 407.6161 3727.8677 456.2278 Z" fill="none" stroke="#865327" opacity="0.6" stroke-width="1" class="spuyten_duyvil"/>
<path d="M 3572.3722 518.6786 3621.6495 393.34 3693.6606 404.5362 3723.6804 423.5869 3741.2685 470.9277 3639.1122 560.4644 3572.3722 518.6786 Z" fill="none" stroke="#865327" opacity="0.6" stroke-width="1" class="spuyten_duyvil"/>
<path d="M 3654.3038 563.5597 3632.4733 557.5689 3614.911 534.5928 3578.8921 518.9902 3592.5698 481.7164 3618.8246 420.5401 3630.3626 419.61 3684.6851 437.8033 3723.0101 452.9383 3753.4822 461.1832 3743.6223 484.0735 3720.5642 504.7889 3681.9721 533.6434 3654.3038 563.5597 Z" fill="none" stroke="#865327" opacity="0.6" stroke-width="1" class="spuyten_duyvil"/>
<path d="M 3631.7205 554.2633 3633.3377 555.8712 3631.9535 556.5623 3589.6659 500.0407 3608.0617 424.1572 3715.1899 471.4142 3725.6011 496.6933 3659.8875 562.9741 3631.7205 554.2633 Z" fill="none" stroke="#865327" opacity="0.6" stroke-width="1" class="spuyten_duyvil"/>
<path d="M 3641.1884 559.3128 3629.1779 550.127 3610.6984 533.5895 3588.5067 494.0641 3607.8482 443.4685 3623.4978 395.6372 3762.9207 431.3626 3752.7954 458.9608 3736.2091 488.4057 3705.7702 514.1865 3691.934 526.1558 3679.0118 528.9274 3663.3216 533.5408 3647.6321 539.0737 3641.1884 559.3128 Z" fill="none" stroke="#865327" opacity="0.6" stroke-width="1" class="spuyten_duyvil"/>
<path d="M 3664.272 562.0502 3620.8654 546.4558 3599.5856 494.974 3642.849 359.758 3748.9866 347.6997 3812.7055 374.2967 3740.8164 480.1243 3664.272 562.0502 Z" fill="none" stroke="#865327" opacity="0.6" stroke-width="1" class="spuyten_duyvil"/>
<path d="M 3609.769 526.6928 3594.9876 515.2102 3591.273 490.3831 3627.1834 388.2775 3695.5143 412.1207 3609.769 526.6928 Z" fill="none" stroke="#865327" opacity="0.6" stroke-width="1" class="spuyten_duyvil"/>
<path d="M 3716.8959 561.0788 3563.5451 451.7834 3720.4137 388.1876 3735.1961 401.0461 3844.2085 478.1724 3716.8959 561.0788 Z" fill="none" stroke="#865327" opacity="0.6" stroke-width="1" class="spuyten_duyvil"/>
<path d="M 3601.454 519.8028 3595.8978 500.4951 3600.5112 497.7321 3622.6667 496.7925 3634.6663 494.9423 3658.682 508.7144 3659.62 524.3477 3650.4001 537.2318 3650.4044 541.8301 3664.2703 560.2108 3633.7999 556.5606 3601.454 519.8028 Z" fill="none" stroke="#865327" opacity="0.6" stroke-width="1" class="spuyten_duyvil"/>
<path d="M 3648.0968 542.2921 3587.5843 494.9845 3630.8537 364.3667 3746.2439 372.989 3639.3406 557.935 3588.5135 501.881 3648.0968 542.2921 Z" fill="none" stroke="#865327" opacity="0.6" stroke-width="1" class="spuyten_duyvil"/>
<path d="M 3679.739 565.6764 3652.9687 562.9493 3628.9453 549.1698 3595.6644 498.6183 3626.058 420.425 3742.4024 452.4968 3752.5829 477.3155 3679.739 565.6764 Z" fill="none" stroke="#865327" opacity="0.6" stroke-width="1" class="spuyten_duyvil"/>
<path d="M 3658.5011 561.3659 3584.127 500.2755 3621.652 396.0986 3725.2944 422.206 3658.5011 561.3659 Z" fill="none" stroke="#865327" opacity="0.6" stroke-width="1" class="spuyten_duyvil"/>
<path d="M 3729.754 495.3096 3645.7883 541.8345 3599.1269 498.1931 3621.7101 460.0087 3622.6073 431.5007 3635.0278 386.4313 3640.0714 350.5656 3658.7445 331.2389 3708.8191 332.1096 3749.6439 314.1382 3748.5501 371.6073 3726.4767 450.022 3729.754 495.3096 Z" fill="none" stroke="#865327" opacity="0.6" stroke-width="1" class="spuyten_duyvil"/>
<path d="M 3642.452 552.9888 3597.0597 509.4606 3640.5735 394.2422 3661.3441 395.7169 3703.0904 488.4392 3642.452 552.9888 Z" fill="none" stroke="#865327" opacity="0.6" stroke-width="1" class="spuyten_duyvil"/>
<path d="M 3643.0349 559.3111 3589.446 512.4561 3655.7499 336.7586 3813.6051 353.147 3643.0349 559.3111 Z" fill="none" stroke="#865327" opacity="0.6" stroke-width="1" class="spuyten_duyvil"/>
<path d="M 3572.371 517.2991 3587.3535 494.9847 3608.5333 435.4215 3636.1508 353.0979 3658.9166 269.406 3687.1965 166.1799 3689.5041 166.6373 3698.2731 168.4673 3716.2741 173.7354 3721.3491 173.0408 3730.8134 177.8576 3724.3962 219.9243 3719.1181 248.2006 3717.0554 261.9938 3713.6006 268.2033 3714.2998 275.0982 3709.2221 273.7242 3702.2951 268.9042 3680.6001 263.1791 3676.4579 274.6759 3661.0473 326.1796 3654.3706 342.2768 3647.6939 358.6041 3650.0018 358.8318 3653.6946 359.518 3676.7745 363.4038 3699.1609 365.9106 3715.777 367.0433 3723.3924 367.2655 3737.2417 370.6995 3734.2479 376.6794 3724.1027 384.9655 3713.7211 387.9645 3712.1127 394.8626 3707.509 406.5914 3700.8258 415.7936 3707.7511 417.8557 3725.2937 421.5163 3750.9171 428.3866 3757.1488 429.0697 3762.2281 431.1334 3759.9347 444.6996 3758.5597 453.897 3755.5682 462.1765 3747.4979 469.082 3737.8223 486.105 3730.9056 493.0093 3725.3703 496.6935 3713.1495 507.9715 3703.696 517.1775 3693.3182 525.4647 3686.3991 530.5296 3677.169 532.6079 3667.0134 532.3877 3660.324 536.5326 3653.1734 541.1378 3648.0989 544.5913 3644.4114 550.3428 3642.3363 552.644 3637.2559 549.8896 3637.7131 545.0609 3636.3223 538.6244 3631.9281 528.9719 3627.9981 522.078 3625.922 523.2295 3625.6929 525.069 3625.9293 531.2765 3628.0118 537.0226 3625.7065 540.0137 3615.5457 534.045 3611.8489 529.6799 3608.8487 529.9125 3603.7669 525.3187 3599.3786 521.8739 3592.4532 520.2706 3580.9116 518.4413 3574.6818 520.5159 3572.371 517.2991 Z" fill="none" stroke="#865327" opacity="0.6" stroke-width="1" class="spuyten_duyvil"/>
<path d="M 3619.0148 541.8591 3601.4369 500.4902 3600.4998 484.8572 3642.8422 352.402 3749.001 361.4922 3763.8078 397.338 3759.2535 455.2756 3706.6677 488.4357 3670.7312 558.3652 3619.0148 541.8591 Z" fill="none" stroke="#865327" opacity="0.6" stroke-width="1" class="spuyten_duyvil"/>
<path d="M 3640.7244 556.7841 3622.4767 541.626 3600.7592 517.0444 3597.7541 511.7591 3594.9788 505.324 3593.1252 497.0489 3594.0419 489.691 3608.0839 448.9858 3633.0097 450.3426 3654.9443 461.1274 3673.6457 469.1561 3688.8877 479.257 3705.7443 488.2067 3713.3641 491.8776 3712.6738 493.9474 3708.0649 500.8493 3705.53 504.7604 3700.6885 510.0531 3709.4635 514.6427 3703.2374 520.1668 3692.8595 528.454 3682.2502 536.2816 3667.4787 536.2959 3661.0208 541.1304 3640.7244 556.7841 Z" fill="none" stroke="#865327" opacity="0.6" stroke-width="1" class="spuyten_duyvil"/>
<path d="M 3641.1433 562.4748 3586.1175 514.1935 3637.9989 351.7721 3746.2701 372.0235 3759.4797 353.3367 3797.9311 344.8494 3813.0901 354.0147 3809.1231 380.8904 3761.0975 440.072 3727.9234 502.64 3641.1433 562.4748 Z" fill="none" stroke="#865327" opacity="0.6" stroke-width="1" class="spuyten_duyvil"/>
<path d="M 3639.3522 570.351 3567.7552 517.5329 3611.5159 415.8781 3732.2512 454.8439 3705.9983 511.4273 3706.9242 514.1854 3679.2462 532.6059 3639.3522 570.351 Z" fill="none" stroke="#865327" opacity="0.6" stroke-width="1" class="spuyten_duyvil"/>
<path d="M 3585.5635 496.0908 3618.7657 423.731 3728.6502 457.6496 3713.6014 514.7727 3641.9492 573.2925 3585.5635 496.0908 Z" fill="none" stroke="#865327" opacity="0.6" stroke-width="1" class="spuyten_duyvil"/>
<path d="M 3844.1306 410.1231 3723.382 584.065 3581.1452 521.6599 3692.5061 169.3923 3844.1306 410.1231 Z" fill="none" stroke="#865327" opacity="0.6" stroke-width="1" class="spuyten_duyvil"/>
<path d="M 3573.2948 517.988 3649.1895 353.8903 3722.0968 341.291 3745.7796 370.3458 3627.4157 516.1008 3628.3691 549.0931 3573.2948 517.988 Z" fill="none" stroke="#865327" opacity="0.6" stroke-width="1" class="spuyten_duyvil"/>
<path d="M 3715.0013 513.2576 3675.7139 459.958 3694.0975 379.4784 3736.0623 345.8742 3760.9812 343.0897 3830.6745 347.1512 3832.0549 343.4716 3860.2179 352.6343 3871.33 382.9652 3890.7556 417.425 3895.8668 445.9257 3895.9055 478.1118 3876.5576 510.7818 3859.977 542.5297 3824.4618 568.3217 3807.3858 572.0196 3754.7483 560.58 3735.3532 553.7024 3715.0013 513.2576 Z" fill="none" stroke="#865327" opacity="0.6" stroke-width="1" class="spuyten_duyvil"/>
<path d="M 3600.4966 481.1788 3621.6725 418.6276 3669.7056 451.6875 3618.9998 525.305 3602.3592 499.5697 3600.4966 481.1788 Z" fill="none" stroke="#865327" opacity="0.6" stroke-width="1" class="spuyten_duyvil"/>
<path d="M 3639.2379 447.1183 3607.886 485.7703 3653.9507 386.4136 3688.9517 309.1426 3687.0445 246.6236 3734.9916 202.4456 3714.6065 121.5669 3773.6015 60.8355 3812.3918 92.047 3749.804 246.5601 3740.6851 353.2253 3711.1995 404.7486 3670.642 465.4805 3705.7454 489.3562 3729.6895 432.3167 3762.9042 415.73 3781.3166 369.7335 3639.2379 447.1183 Z" fill="none" stroke="#865327" opacity="0.6" stroke-width="1" class="spuyten_duyvil"/>
<path d="M 3751.0921 375.0528 3798.8859 398.2197 3762.0064 439.6397 3753.0257 458.5008 3743.8105 474.1437 3736.4399 488.4055 3726.2947 497.8421 3702.773 517.4083 3680.4018 534.2142 3663.091 533.771 3651.5604 543.8983 3644.6448 553.1017 3628.4998 565.7624 3613.9508 557.0385 3602.856 539.1146 3577.9253 534.7679 3564.2996 525.1231 3573.716 470.8564 3624.8419 351.2693 3672.6216 364.3274 3713.4691 366.8158 3733.5481 369.324 3751.0921 375.0528 Z" fill="none" stroke="#865327" opacity="0.6" stroke-width="1" class="spuyten_duyvil"/>
<path d="M 3712.2095 491.189 3635.6439 553.7998 3597.7482 505.0916 3625.3775 432.4177 3682.6286 450.7554 3712.2095 491.189 Z" fill="none" stroke="#865327" opacity="0.6" stroke-width="1" class="spuyten_duyvil"/>
<path d="M 3728.5579 497.8922 3702.0904 521.6688 3682.4952 533.0791 3661.0113 537.9202 3649.0087 545.7173 3643.8528 559.2497 3624.6988 552.864 3599.9772 524.6061 3572.7062 521.1317 3634.373 353.0694 3674.5546 365.623 3715.4382 367.5442 3741.9792 370.1781 3759.1449 352.3771 3794.9124 353.792 3816.7204 384.636 3735.5935 484.8925 3717.1506 505.1432 3728.5579 497.8922 Z" fill="none" stroke="#865327" opacity="0.6" stroke-width="1" class="spuyten_duyvil"/>
<path d="M 3732.7119 453.9239 3707.6104 507.977 3708.5387 513.0342 3702.3142 520.1677 3692.3979 528.4545 3681.0942 534.2135 3675.3241 534.2191 3671.4004 534.2229 3663.3229 534.9203 3656.6344 539.9849 3628.0415 569.4417 3564.3016 527.4222 3609.2071 414.7307 3720.94 452.0967 3728.5591 455.3075 3729.4799 453.0076 3732.7119 453.9239 Z" fill="none" stroke="#865327" opacity="0.6" stroke-width="1" class="spuyten_duyvil"/>
<path d="M 3708.6599 403.6018 3707.2755 403.833 3667.4167 471.4611 3632.8765 556.3315 3588.0483 497.743 3633.6277 369.6513 3708.6599 403.6018 Z" fill="none" stroke="#865327" opacity="0.6" stroke-width="1" class="spuyten_duyvil"/>
<path d="M 3634.9832 338.1572 3752.3613 375.0515 3680.8956 567.4374 3575.6035 518.7907 3634.4075 339.4221 3634.9832 338.1572 Z" fill="none" stroke="#865327" opacity="0.6" stroke-width="1" class="spuyten_duyvil"/>
<path d="M 3639.6442 387.5764 3659.0307 389.6272 3659.7297 396.7529 3765.44 413.1985 3753.031 463.5586 3726.2933 496.4627 3698.8522 520.1712 3681.5553 533.7532 3666.3225 533.9978 3649.9441 543.2101 3641.8755 553.5641 3632.1877 560.2409 3573.7564 517.9876 3625.3326 383.2218 3639.6442 387.5764 Z" fill="none" stroke="#865327" opacity="0.6" stroke-width="1" class="spuyten_duyvil"/>
<path d="M 3597.0359 482.5612 3621.2101 417.7084 3738.2519 455.0677 3709.9285 518.0909 3686.6326 533.2884 3640.4932 556.3245 3623.1702 542.775 3589.6747 510.1568 3597.0359 482.5612 Z" fill="none" stroke="#865327" opacity="0.6" stroke-width="1" class="spuyten_duyvil"/>
<path d="M 3622.7016 535.1881 3599.8305 510.8376 3599.8221 501.4112 3604.428 490.1416 3622.8693 465.7551 3634.1541 439.9962 3717.729 471.8714 3708.0775 513.4945 3652.712 541.3681 3641.4113 550.8055 3628.6914 522.997 3622.7016 535.1881 Z" fill="none" stroke="#865327" opacity="0.6" stroke-width="1" class="spuyten_duyvil"/>
<path d="M 3679.1459 310.1866 3651.3351 304.3516 3688.0394 320.0621 3691.3867 321.5529 3694.5112 330.9744 3700.1686 334.9916 3708.8206 333.6037 3718.7394 330.0308 3730.1577 326.1114 3746.1873 318.6242 3749.1808 312.6445 3760.4874 312.5177 3774.1016 312.5033 3794.6393 313.4005 3802.8358 317.759 3808.8331 315.7985 3814.9439 312.1138 3821.4018 309.3483 3828.5575 311.5239 3831.9098 317.2668 3837.3361 320.4787 3844.6036 319.436 3856.7283 328.2719 3865.8437 328.836 3873.1163 332.0457 3776.8905 545.9564 3770.6628 549.8717 3768.5858 550.1039 3761.9924 535.5109 3748.4774 523.1096 3736.1181 512.0865 3728.6045 499.679 3724.4495 498.9935 3709.9231 512.6879 3683.2845 531.7972 3667.4771 534.5715 3650.292 545.0491 3643.1439 552.4133 3637.8346 551.7285 3628.0245 550.8178 3598.7955 514.9769 3593.4723 498.0831 3594.9612 485.3219 3651.1053 305.3862 3679.1459 310.1866 Z" fill="none" stroke="#865327" opacity="0.6" stroke-width="1" class="spuyten_duyvil"/>
<path d="M 3608.8478 528.9928 3596.8311 511.9898 3593.5854 495.4391 3594.9523 475.2061 3609.6878 436.1102 3627.1787 383.2201 3640.0709 350.1059 3660.3795 351.9258 3679.7748 363.8607 3715.776 366.1238 3745.7785 369.3114 3743.4833 381.2675 3739.8172 406.5586 3730.6263 445.6497 3726.4952 468.1841 3710.3779 505.9051 3698.3942 523.8503 3677.1716 535.3669 3650.8686 544.5887 3635.1869 558.8585 3629.6407 551.5061 3608.8478 528.9928 Z" fill="none" stroke="#865327" opacity="0.6" stroke-width="1" class="spuyten_duyvil"/>
<path d="M 3614.5365 438.6347 3595.8779 477.9642 3598.4095 469.9153 3607.8496 445.0778 3615.9031 418.6328 3725.0964 454.3914 3724.4497 499.2234 3646.4998 562.2969 3628.2578 553.5767 3591.7481 505.7867 3591.2712 488.314 3610.619 445.0753 3614.5365 438.6347 Z" fill="none" stroke="#865327" opacity="0.6" stroke-width="1" class="spuyten_duyvil"/>
<path d="M 3696.4038 378.0969 3712.9939 353.2536 3756.3912 367.0015 3696.4038 378.0969 Z" fill="none" stroke="#865327" opacity="0.6" stroke-width="1" class="spuyten_duyvil"/>
<path d="M 3665.43 540.0023 3640.5201 558.4195 3630.345 537.2761 3597.9958 495.9208 3626.5841 462.7888 3635.7764 420.4795 3668.0701 404.8167 3686.54 413.0748 3731.7783 419.4664 3761.339 439.6662 3755.8331 470.9383 3704.1842 518.8121 3665.43 540.0023 Z" fill="none" stroke="#865327" opacity="0.6" stroke-width="1" class="spuyten_duyvil"/>
<path d="M 3609.7727 530.8313 3589.8937 496.5919 3627.415 389.1969 3708.4289 403.3721 3702.9073 420.3894 3609.7727 530.8313 Z" fill="none" stroke="#865327" opacity="0.6" stroke-width="1" class="spuyten_duyvil"/>
<path d="M 3739.7475 503.4234 3700.9756 505.3019 3706.7862 538.6412 3669.2411 542.9692 3643.4211 548.9799 3640.4626 551.2053 3615.2565 530.4958 3597.6041 507.3306 3597.3122 487.2589 3599.5063 460.9181 3613.3434 427.7105 3623.5345 413.6871 3738.9893 453.6027 3736.8916 493.5512 3704.4192 504.9596 3739.7475 503.4234 Z" fill="none" stroke="#865327" opacity="0.6" stroke-width="1" class="spuyten_duyvil"/>
<path d="M 3623.2655 394.0282 3784.8285 416.3962 3727.4484 497.611 3631.7233 557.2523 3585.2784 497.2856 3623.2655 394.0282 Z" fill="none" stroke="#865327" opacity="0.6" stroke-width="1" class="spuyten_duyvil"/>
<path d="M 3637.3193 368.9582 3715.8048 394.629 3609.7678 525.3133 3591.2754 493.142 3637.3193 368.9582 Z" fill="none" stroke="#865327" opacity="0.6" stroke-width="1" class="spuyten_duyvil"/>
<path d="M 3576.526 517.9853 3639.6039 344.1296 3733.3244 376.2206 3735.6671 410.2411 3704.3845 513.2682 3650.8855 562.5227 3626.4094 551.5091 3576.526 517.9853 Z" fill="none" stroke="#865327" opacity="0.6" stroke-width="1" class="spuyten_duyvil"/>
<path d="M 3652.269 561.1419 3631.0378 564.8404 3626.404 545.5311 3593.142 516.1315 3593.1145 484.8638 3601.4034 462.7857 3610.6077 432.4311 3624.4334 409.4295 3641.026 384.5867 3653.9282 362.5062 3666.8711 383.6428 3683.4666 363.3974 3754.547 368.8425 3769.3708 420.3209 3749.1287 483.7942 3652.269 561.1419 Z" fill="none" stroke="#865327" opacity="0.6" stroke-width="1" class="spuyten_duyvil"/>
<path d="M 3614.2893 420.4734 3728.7918 457.1465 3674.4304 564.7995 3588.9779 505.0993 3614.2893 420.4734 Z" fill="none" stroke="#865327" opacity="0.6" stroke-width="1" class="spuyten_duyvil"/></svg>