<?xml version="1.0"?><svg xmlns="http://www.w3.org/2000/svg" version="1.2" baseProfile="tiny" width="6000" height="5918" viewBox="0 0 6000 5918" stroke-linecap="round" stroke-linejoin="round"><path d="M 5148.9771 3174.0915 5069.122 3077.4599 5445.5106 2944.6101 5504.279 3102.119 5335.9765 3168.9901 5148.9771 3174.0915 Z" fill="none" stroke="#865327" opacity="0.6" stroke-width="1" class="st__albans"/>
<path d="M 5148.9771 3174.0915 5087.6725 3092.1689 5453.8749 2956.5726 5501.5152 3106.7378 5518.2993 3148.1877 5501.7101 3174.0581 5492.4415 3170.396 5241.8401 3281.7603 5148.9771 3174.0915 Z" fill="none" stroke="#865327" opacity="0.6" stroke-width="1" class="st__albans"/>
<path d="M 5183.5315 3162.3551 5172.9281 3158.246 5152.5072 3137.087 5415.0256 2931.4478 5401.173 2942.5506 5424.3877 2969.2243 5475.751 3061.6268 5458.2732 3100.4069 5477.5753 3154.7462 5489.7913 3217.4239 5488.9505 3246.9397 5502.1077 3314.2325 5481.8378 3349.3417 5456.6189 3362.406 5425.2236 3393.8577 5345.6642 3422.6746 5287.3479 3432.0568 5255.403 3384.4502 5218.2191 3329.2027 5186.5216 3245.3511 5183.5315 3162.3551 Z" fill="none" stroke="#865327" opacity="0.6" stroke-width="1" class="st__albans"/>
<path d="M 5253.8599 3275.2724 5193.1494 2980.3295 5449.4541 2948.0565 5531.1495 3110.3402 5253.8599 3275.2724 Z" fill="none" stroke="#865327" opacity="0.6" stroke-width="1" class="st__albans"/>
<path d="M 5089.4082 3045.1359 5302.2541 3022.4579 5417.4492 3169.6872 5552.447 3112.122 5547.3106 3254.1629 5440.3679 3416.8128 5316.3384 3439.2952 5155.1849 3432.3365 5095.5353 3277.5207 5089.4082 3045.1359 Z" fill="none" stroke="#865327" opacity="0.6" stroke-width="1" class="st__albans"/>
<path d="M 5388.8237 3196.5122 5371.0588 2965.5639 5384.6027 3009.7851 5410.0531 3173.3969 5388.8237 3196.5122 Z" fill="none" stroke="#865327" opacity="0.6" stroke-width="1" class="st__albans"/>
<path d="M 5119.6945 3185.8968 5188.7913 2966.1459 5411.8363 2865.429 5500.5501 3100.5003 5494.0913 3107.8964 5330.7072 3168.4511 5254.16 3280.2522 5216.0583 3305.8197 5119.6945 3185.8968 Z" fill="none" stroke="#865327" opacity="0.6" stroke-width="1" class="st__albans"/>
<path d="M 5328.5676 3168.088 5522.8663 3126.9637 5522.9094 3141.7188 5406.9635 3392.9228 5208.6242 3327.0424 5139.7052 3168.5815 5328.5676 3168.088 Z" fill="none" stroke="#865327" opacity="0.6" stroke-width="1" class="st__albans"/>
<path d="M 5191.758 2979.1805 5270.9607 3002.7168 5335.1473 3119.4238 5192.9162 2979.6386 5253.1676 3100.2776 5297.4034 3155.3762 5147.464 3170.637 5123.1777 3130.697 5207.5129 3076.1902 5194.7787 2984.0135 5191.758 2979.1805 Z" fill="none" stroke="#865327" opacity="0.6" stroke-width="1" class="st__albans"/>
<path d="M 5275.5824 2956.7174 5370.3023 3320.7304 5168.8519 3162.2828 5275.5824 2956.7174 Z" fill="none" stroke="#865327" opacity="0.6" stroke-width="1" class="st__albans"/>
<path d="M 5999 2756.2217 5999 2791.8164 5999 2805.005 5999 2814.3171 5999 2820.7875 5999 2823.1074 5999 2824.919 5999 2825.2293 5999 2918.5582 5999 2932.8508 5999 2940.282 5999 2941.0296 5999 2944.6557 5999 2988.2074 5999 2990.1591 5999 3205.7856 5999 3239.4509 5999 3243.9174 5999 3251.7992 5999 3266.1933 5999 3324.2394 5999 3327.5874 5589.0494 2969.0867 5718.9104 2761.2535 5999 2756.2217 Z" fill="none" stroke="#865327" opacity="0.6" stroke-width="1" class="st__albans"/>
<path d="M 5476.298 3029.3513 5503.8288 3106.5006 5328.5757 3171.0853 5333.1149 3223.1805 5343.3621 3246.21 5349.0353 3289.3132 5339.2217 3340.7622 5266.1799 3294.8396 5174.3116 3215.7593 5147.1168 3170.6378 5111.984 3189.8622 5077.1124 3127.2373 5106.4612 3109.4131 5207.6817 3051.9839 5246.6942 3102.8306 5260.789 3094.2634 5328.7903 3079.5575 5476.298 3029.3513 Z" fill="none" stroke="#865327" opacity="0.6" stroke-width="1" class="st__albans"/>
<path d="M 5188.297 2983.1081 5271.6537 3002.2539 5330.1789 3079.5537 5257.1062 3101.881 5188.297 2983.1081 Z" fill="none" stroke="#865327" opacity="0.6" stroke-width="1" class="st__albans"/>
<path d="M 5176.177 2949.0239 5524.7816 2831.9028 5610.0189 2862.9953 5500.7897 3175.9053 5320.4574 3250.192 5176.177 2949.0239 Z" fill="none" stroke="#865327" opacity="0.6" stroke-width="1" class="st__albans"/>
<path d="M 5017.9553 2971.5431 5424.9091 2859.8469 5532.3696 3210.859 5125.3162 3338.3228 5026.2901 2973.3672 5017.9553 2971.5431 Z" fill="none" stroke="#865327" opacity="0.6" stroke-width="1" class="st__albans"/>
<path d="M 5320.9883 3119.5646 5537.2437 3135.6078 5679.9593 3183.1339 5703.9179 3290.0897 5653.4518 3384.4827 5560.5907 3501.8637 5463.1203 3523.6814 5265.8295 3515.9208 5235.6084 3478.3123 5120.1137 3293.5546 5150.0268 3176.2119 5320.9883 3119.5646 Z" fill="none" stroke="#865327" opacity="0.6" stroke-width="1" class="st__albans"/>
<path d="M 5147.1116 3168.5628 5203.2925 3054.9921 5183.6218 2964.6793 5273.5099 3004.0931 5332.6278 2958.7539 5451.0824 2951.0484 5504.3004 3109.4963 5497.0784 3173.1493 5341.74 3245.5226 5244.5912 3271.6074 5150.8241 3172.2424 5147.1116 3168.5628 Z" fill="none" stroke="#865327" opacity="0.6" stroke-width="1" class="st__albans"/>
<path d="M 4872.9256 3101.8939 4886.7743 3085.2641 5684.8502 2819.4369 5695.4334 2949.4001 5707.9876 3414.1725 5397.8164 3433.5369 5069.0888 3443.6202 4872.9256 3101.8939 Z" fill="none" stroke="#865327" opacity="0.6" stroke-width="1" class="st__albans"/>
<path d="M 5173.3861 2943.4989 5519.2261 2830.9971 5611.8699 2862.9897 5527.425 3102.9738 5295.2735 3181.0891 5173.3861 2943.4989 Z" fill="none" stroke="#865327" opacity="0.6" stroke-width="1" class="st__albans"/>
<path d="M 5149.8657 3159.3337 5169.2321 3129.774 5308.22 3175.5209 5121.9356 3096.6948 5168.1516 3068.914 5186.6561 3065.1783 5223.7007 3071.5375 5329.9136 2981.8122 5379.2313 3075.7307 5403.6755 3210.3048 5387.2919 3311.8056 5304.9282 3328.6333 5227.8938 3259.6608 5155.4834 3184.2197 5149.8657 3159.3337 Z" fill="none" stroke="#865327" opacity="0.6" stroke-width="1" class="st__albans"/>
<path d="M 4782.1862 3093.7925 5599.0319 2902.6723 5457.5449 3270.1024 4782.1862 3093.7925 Z" fill="none" stroke="#865327" opacity="0.6" stroke-width="1" class="st__albans"/>
<path d="M 5190.0844 2958.2085 5419.4027 2876.4572 5507.2275 3161.1309 5146.1579 3157.4986 5028.2452 3016.6994 5190.0844 2958.2085 Z" fill="none" stroke="#865327" opacity="0.6" stroke-width="1" class="st__albans"/>
<path d="M 5295.7301 3005.878 5321.6279 2998.4317 5346.5116 2958.7161 5422.5734 3016.5947 5466.4927 3161.2482 5352.8934 3261.1715 5241.248 3055.8155 5295.7301 3005.878 Z" fill="none" stroke="#865327" opacity="0.6" stroke-width="1" class="st__albans"/></svg>