<?xml version="1.0"?><svg xmlns="http://www.w3.org/2000/svg" version="1.2" baseProfile="tiny" width="6000" height="5918" viewBox="0 0 6000 5918" stroke-linecap="round" stroke-linejoin="round"><path d="M 1915.2225 3989.8943 1952.0436 4003.0798 1938.813 4033.1827 1937.6385 4051.6431 1959.069 4050.0463 1960.7928 4066.0863 1963.7884 4085.1279 1967.248 4103.4778 1952.8838 4103.581 1955.195 4110.1603 1964.6778 4129.0928 1952.167 4128.9668 1925.5141 4139.2136 1915.0822 4145.8972 1921.2083 4161.2506 1879.9517 4177.5995 1869.7817 4151.6253 1858.5448 4151.4992 1843.7098 4158.5241 1869.6654 4152.0867 1885.3797 4195.7226 1863.0233 4192.8165 1861.9696 4204.4711 1858.9577 4204.122 1858.017 4218.6621 1849.2059 4225.1163 1850.0054 4237.0039 1851.1445 4257.0861 1823.3121 4283.7189 1818.0058 4260.4004 1816.852 4255.6675 1821.2634 4246.7854 1815.82 4244.9334 1829.6481 4203.2857 1832.675 4188.4018 1837.464 4148.4784 1843.2808 4123.2125 1836.7683 4149.0547 1831.1134 4127.3548 1856.8571 4099.4549 1861.8597 4076.9588 1879.5942 4064.5137 1887.7078 4058.9828 1911.3665 4027.2739 1918.0822 4029.9337 1924.0064 4011.0165 1915.2225 3989.8943 Z" fill="none" stroke="#865327" opacity="0.6" stroke-width="1" class="stapleton"/>
<path d="M 1858.0644 4289.9852 1891.9272 4256.3168 1921.9757 4339.9044 1858.0644 4289.9852 Z" fill="none" stroke="#865327" opacity="0.6" stroke-width="1" class="stapleton"/>
<path d="M 1956.0064 4109.584 1979.1382 4152.9919 1825.172 4277.4884 1842.9107 4146.4066 1956.0064 4109.584 Z" fill="none" stroke="#865327" opacity="0.6" stroke-width="1" class="stapleton"/>
<path d="M 1984.6721 4185.3082 1848.4256 4193.4948 1826.1888 4187.0105 1823.4194 4175.9293 1822.5028 4165.7732 1814.185 4142.6854 1813.2945 4106.6817 1824.4408 4080.8455 1836.5168 4051.3184 1841.1853 4015.3236 1854.191 3981.1842 1866.2551 3961.8127 1895.9055 3961.8404 1913.4954 3978.4705 1932.0109 3996.9473 1957.9528 4000.6619 1946.8063 4032.0359 1953.2706 4057.8875 1959.7368 4081.8935 1963.4225 4106.8209 1980.0803 4134.5293 1986.5402 4167.7689 1828.0488 4180.5499 1853.0578 4195.3457 1884.5596 4205.5311 1913.2833 4213.8665 1940.1708 4202.8115 1963.3504 4191.7528 1984.6721 4185.3082 Z" fill="none" stroke="#865327" opacity="0.6" stroke-width="1" class="stapleton"/>
<path d="M 1831.8899 4044.8523 1962.5812 4006.2041 2135.6164 4370.0803 2093.8849 4394.9834 1944.6574 4372.7041 1720.3669 4338.3181 1744.606 4210.0065 1831.8899 4044.8523 Z" fill="none" stroke="#865327" opacity="0.6" stroke-width="1" class="stapleton"/>
<path d="M 1947.8659 3963.6421 1963.7407 4071.0916 1990.9555 4149.4361 1933.9335 4187.119 1891.1483 4202.7571 1838.332 4190.705 1845.9772 4149.6723 1832.6261 4075.381 1845.8511 4043.8265 1864.9057 4016.3466 1874.9364 3997.5939 1908.0791 4016.0959 1910.5239 4002.3679 1902.0721 3998.4373 1908.5906 3976.414 1917.8547 3978.3837 1921.2187 3972.7333 1935.0066 3967.0921 1947.8659 3963.6421 Z" fill="none" stroke="#865327" opacity="0.6" stroke-width="1" class="stapleton"/>
<path d="M 1846.5181 4248.8876 1833.544 4247.0284 1827.9966 4233.174 1821.5299 4211.9329 1818.7883 4173.1551 1811.3936 4153.7607 1809.5783 4115.9093 1820.746 4068.8415 1843.9571 4023.6337 1869.9422 3982.1223 1907.0135 3973.8496 1950.563 3973.8881 1954.2234 4027.427 1964.3562 4098.5136 2005.9839 4190.8648 2014.3053 4215.7986 1967.9338 4251.7676 1917.8521 4286.809 1870.6068 4259.0667 1846.5181 4248.8876 Z" fill="none" stroke="#865327" opacity="0.6" stroke-width="1" class="stapleton"/>
<path d="M 1916.0315 3991.8565 1976.2451 4010.6 1985.1955 4112.6087 1985.6495 4123.9176 1995.1354 4140.0806 1996.0582 4144.928 1982.3827 4152.0714 1925.5825 4192.6433 1872.0601 4192.3634 1838.9279 4191.4083 1843.8379 4145.9459 1855.696 4102.3386 1863.8348 4070.7297 1895.3785 4031.0669 1911.3851 4006.6207 1914.8728 3992.3169 1916.0303 3993.241 1916.0315 3991.8565 Z" fill="none" stroke="#865327" opacity="0.6" stroke-width="1" class="stapleton"/>
<path d="M 1965.3602 4007.1295 1958.3933 4027.4305 1971.2879 4120.6747 1992.5816 4146.5407 1902.3982 4208.3172 1824.238 4284.6431 1816.3875 4256.7057 1831.4791 4226.253 1837.5381 4190.9454 1844.2972 4150.1006 1854.998 4105.3381 1859.1895 4083.1872 1872.1859 4059.199 1908.1326 4017.002 1915.5697 3990.2408 1965.3602 4007.1295 Z" fill="none" stroke="#865327" opacity="0.6" stroke-width="1" class="stapleton"/>
<path d="M 2074.5124 4265.7006 1825.9825 4394.7553 1698.3172 4163.7949 1826.0008 4376.2873 1741.1127 4012.4514 1950.6584 3863.1342 2052.3092 4210.2886 2074.5124 4265.7006 Z" fill="none" stroke="#865327" opacity="0.6" stroke-width="1" class="stapleton"/>
<path d="M 1949.6682 3936.9679 2083.7944 4247.2418 1801.0166 4332.8636 1949.6682 3936.9679 Z" fill="none" stroke="#865327" opacity="0.6" stroke-width="1" class="stapleton"/>
<path d="M 1915.3146 4016.3162 1973.6372 4081.9053 1891.0661 4185.2263 1792.9761 4039.2747 1915.3146 4016.3162 Z" fill="none" stroke="#865327" opacity="0.6" stroke-width="1" class="stapleton"/>
<path d="M 1968.8767 3957.7513 1983.3052 4157.1496 1981.4701 4134.992 1978.704 4117.9114 1974.5558 4091.5987 1969.9417 4068.5172 1940.2892 4067.1071 1982.3811 4153.9177 1935.0875 4186.6508 1841.4998 4167.6384 1857.0896 4098.6474 1911.8797 3972.008 1968.8767 3957.7513 Z" fill="none" stroke="#865327" opacity="0.6" stroke-width="1" class="stapleton"/>
<path d="M 1959.806 4000.6635 2081.878 4334.0316 1940.054 4336.6886 1842.8567 4201.7984 1910.6756 4022.7734 1959.806 4000.6635 Z" fill="none" stroke="#865327" opacity="0.6" stroke-width="1" class="stapleton"/>
<path d="M 1978.208 4157.1454 1889.4128 4219.1533 1880.6201 4206.1044 1849.6913 4202.3821 1868.454 4085.7346 1891.7387 4084.1409 1917.0262 4045.0479 1932.8836 4058.2159 1937.8655 4057.0664 1937.9846 4053.2588 1958.7216 4049.9306 1990.6138 4144.5774 1978.208 4157.1454 Z" fill="none" stroke="#865327" opacity="0.6" stroke-width="1" class="stapleton"/>
<path d="M 1951.025 3975.3884 1982.2657 4153.4561 1940.9605 4227.1626 1908.0791 4203.8216 1838.3507 4189.3305 1867.7598 4084.9262 1933.8494 4013.6789 1951.025 3975.3884 Z" fill="none" stroke="#865327" opacity="0.6" stroke-width="1" class="stapleton"/>
<path d="M 1915.3195 4010.7779 1936.1637 4016.3347 1978.7762 4031.14 2091.2046 4253.71 1938.2611 4266.9762 1833.5108 4280.7282 1836.8097 4224.8734 1856.3677 4126.5716 1866.152 4070.2704 1915.3195 4010.7779 Z" fill="none" stroke="#865327" opacity="0.6" stroke-width="1" class="stapleton"/>
<path d="M 1917.9816 4131.865 1952.2695 4108.9328 2056.1348 4273.7104 1950.8455 4351.6684 1846.1824 4157.547 1917.9816 4131.865 Z" fill="none" stroke="#865327" opacity="0.6" stroke-width="1" class="stapleton"/>
<path d="M 1939.4569 3959.1105 2207.873 4450.4638 2070.5363 4631.3892 1764.7361 4455.6396 1796.3545 4359.6364 1939.4569 3959.1105 Z" fill="none" stroke="#865327" opacity="0.6" stroke-width="1" class="stapleton"/>
<path d="M 1720.7402 4000.4296 1888.4749 3981.2166 1928.0667 4265.5823 1548.1731 4169.1527 1720.7402 4000.4296 Z" fill="none" stroke="#865327" opacity="0.6" stroke-width="1" class="stapleton"/>
<path d="M 1978.6632 4083.4585 1939.8543 4087.6634 1906.4848 4096.8648 1855.3975 4101.4327 1831.3067 4097.7167 1815.5759 4074.6232 1828.5732 4050.6358 1832.3045 4025.7167 1865.6818 4006.3651 1850.8568 4005.4279 1851.7924 3996.1985 1815.6034 4047.2527 1808.1518 4085.092 1978.6632 4083.4585 Z" fill="none" stroke="#865327" opacity="0.6" stroke-width="1" class="stapleton"/>
<path d="M 1944.2854 4181.3905 1926.9563 4179.0062 1891.2072 4178.6516 1882.6239 4189.9529 1831.5865 4185.2811 1833.598 4150.7927 1830.2568 4124.1589 1833.5199 4104.3146 1839.5025 4090.6525 1839.0565 4072.8822 1843.9252 4069.1946 1853.2038 4056.9726 1844.9228 4044.4511 1865.5738 4009.8564 1870.2798 4010.3992 1883.6803 4040.5724 1902.5283 4026.6465 1919.0236 3973.5872 1929.2075 3983.2878 1930.3246 3990.0488 1940.7484 3990.5194 1945.1498 3990.5232 1953.8292 3997.3978 1952.0311 4007.4035 1950.4832 4021.3081 1952.5592 4031.6942 1949.3044 4045.0759 1939.6357 4053.0187 1959.7933 4049.9206 1958.643 4051.9021 1962.0917 4070.5258 1964.0816 4091.7683 1968.3287 4108.0645 1972.0238 4122.1455 1985.0497 4140.2322 1988.8949 4143.8485 1996.5323 4154.1251 2002.4141 4164.2045 2007.1581 4171.2477 2012.3644 4179.9068 2001.3598 4178.6286 1993.3025 4171.0121 1988.5712 4161.5243 1975.2735 4144.1952 1979.1792 4149.2799 1980.8739 4155.4167 1979.1509 4158.8947 1974.9774 4162.584 1970.1099 4164.8879 1963.8493 4170.6525 1955.5049 4174.569 1953.8803 4177.7988 1949.0115 4181.4874 1944.2854 4181.3905 Z" fill="none" stroke="#865327" opacity="0.6" stroke-width="1" class="stapleton"/>
<path d="M 1942.247 3947.1142 1951.5158 3943.4303 1975.4289 4155.7583 1834.5635 4152.8606 1849.4632 4079.0238 1942.247 3947.1142 Z" fill="none" stroke="#865327" opacity="0.6" stroke-width="1" class="stapleton"/>
<path d="M 1968.9812 4108.6719 1968.9804 4109.595 1841.979 4151.4831 1826.7509 4087.5403 1843.7054 4044.1716 1925.1169 3934.4082 1975.8477 3931.6831 1968.9812 4108.6719 Z" fill="none" stroke="#865327" opacity="0.6" stroke-width="1" class="stapleton"/>
<path d="M 1919.9539 4009.3975 1926.9177 3993.4815 1952.1587 4003.8876 1935.9073 4044.4878 1937.5217 4052.7969 1959.7642 4049.8161 1966.9009 4102.9006 1952.5363 4103.5807 1968.2642 4134.7502 1876.2561 4165.3637 1867.6814 4167.4328 1851.6096 4255.3554 1823.544 4283.4883 1808.2751 4259.0057 1835.7492 4125.1669 1919.9539 4009.3975 Z" fill="none" stroke="#865327" opacity="0.6" stroke-width="1" class="stapleton"/>
<path d="M 1954.2685 3974.8143 1996.7527 4145.621 1827.9655 4264.5651 1713.9707 4255.2125 1954.2685 3974.8143 Z" fill="none" stroke="#865327" opacity="0.6" stroke-width="1" class="stapleton"/>
<path d="M 1726.3324 3970.8993 1980.2727 3902.8446 1991.2587 4064.381 1940.2771 4080.9536 1867.0905 4057.8095 1804.0949 4040.2091 1716.0846 4020.7313 1688.2752 4029.9306 1693.8831 3987.4772 1726.3324 3970.8993 Z" fill="none" stroke="#865327" opacity="0.6" stroke-width="1" class="stapleton"/>
<path d="M 1824.8921 4273.7377 1910.965 4029.1466 1959.7664 4032.1804 1989.0468 4155.7124 1824.8921 4273.7377 Z" fill="none" stroke="#865327" opacity="0.6" stroke-width="1" class="stapleton"/>
<path d="M 1943.1736 3947.115 1963.5594 3945.2865 1998.6025 4150.2383 1979.1329 4159.4541 1890.1094 4217.5383 1835.4458 4198.0983 1855.0109 4091.9528 1924.6383 3951.7136 1943.1736 3947.115 Z" fill="none" stroke="#865327" opacity="0.6" stroke-width="1" class="stapleton"/>
<path d="M 1911.8493 4005.6981 1960.0168 4025.1243 1990.9599 4146.3086 1820.9946 4283.9474 1836.5934 4209.1781 1911.8493 4005.6981 Z" fill="none" stroke="#865327" opacity="0.6" stroke-width="1" class="stapleton"/>
<path d="M 1987.9474 4146.9985 1934.1603 4187.1116 1924.2108 4171.8699 1885.0353 4192.3756 1871.8292 4191.44 1852.3663 4191.6522 1836.3808 4189.7902 1845.9462 4122.1766 1856.1666 4094.7232 1897.1979 4067.9917 1915.9842 4044.4701 1928.7476 4019.7896 1958.3966 4023.5076 1967.8148 4118.1331 1985.633 4143.9963 1987.9474 4146.9985 Z" fill="none" stroke="#865327" opacity="0.6" stroke-width="1" class="stapleton"/>
<path d="M 1950.5105 4034.8083 1952.7692 4102.1962 1893.3396 4106.7589 1873.2985 4107.6633 1867.0633 4086.4256 1861.0685 4056.4192 1867.5705 4040.2715 1870.8146 4039.3515 1908.8073 4039.3867 1950.5105 4034.8083 Z" fill="none" stroke="#865327" opacity="0.6" stroke-width="1" class="stapleton"/>
<path d="M 1960.3014 4034.837 1992.4059 4145.4563 1837.9452 4191.2703 1911.1821 4052.6029 1960.3014 4034.837 Z" fill="none" stroke="#865327" opacity="0.6" stroke-width="1" class="stapleton"/>
<path d="M 1941.3178 3950.113 2043.0107 4249.9814 1890.9705 4288.6312 1752.4725 4220.6322 1788.7122 4130.1968 1791.7408 4114.0448 1815.4401 4046.4513 1825.6476 4032.154 1844.6626 4012.7886 1852.7837 3999.1817 1880.3668 3981.6706 1911.0794 3960.4698 1914.7935 3951.7048 1915.146 3946.1672 1915.7338 3936.4765 1924.8843 3935.5617 1937.1522 3945.7252 1939.8141 3947.9196 1941.3178 3950.113 Z" fill="none" stroke="#865327" opacity="0.6" stroke-width="1" class="stapleton"/>
<path d="M 1839.2059 4144.095 1856.8692 4086.8774 1930.6247 3992.7925 1952.3915 4002.5032 1981.4521 4156.6865 1822.8484 4283.9492 1811.307 4239.6201 1839.6716 4141.7876 1839.2059 4144.095 Z" fill="none" stroke="#865327" opacity="0.6" stroke-width="1" class="stapleton"/></svg>