<?xml version="1.0"?><svg xmlns="http://www.w3.org/2000/svg" version="1.2" baseProfile="tiny" width="6000" height="5918" viewBox="0 0 6000 5918" stroke-linecap="round" stroke-linejoin="round"><path d="M 3994.5217 3726.5689 4035.4792 3701.8312 4098.3967 3814.7871 4084.7766 3846.8758 4068.3764 3879.1999 4007.7578 3753.7736 3979.0688 3775.9581 4065.1327 3878.5122 3994.5217 3726.5689 Z" fill="none" stroke="#12852D" opacity="0.6" stroke-width="1" class="starrett_city"/>
<path d="M 3978.1406 3774.5751 3997.5738 3758.4009 4008.914 3752.3879 3994.0561 3724.724 4036.1724 3700.6768 4108.8377 3827.923 4075.1066 3888.6506 3978.1406 3774.5751 Z" fill="none" stroke="#12852D" opacity="0.6" stroke-width="1" class="starrett_city"/>
<path d="M 4067.217 3878.2786 3960.9692 3748.2972 4060.015 3693.2626 4124.5554 3805.7521 4067.217 3878.2786 Z" fill="none" stroke="#12852D" opacity="0.6" stroke-width="1" class="starrett_city"/>
<path d="M 4003.6691 3759.6018 3998.124 3727.8072 4000.9054 3729.6491 4036.0719 3703.7653 4045.3638 3724.9761 4098.2915 3814.4153 4087.2182 3845.8083 4069.6676 3883.6715 3984.2847 3771.1962 4010.2017 3754.552 4003.6691 3759.6018 Z" fill="none" stroke="#12852D" opacity="0.6" stroke-width="1" class="starrett_city"/>
<path d="M 4006.3725 3757.0052 4089.4147 3851.0223 4076.9241 3863.0373 4069.0751 3881.9677 4029.646 3842.3367 3975.8323 3780.5763 3989.2394 3760.7187 4002.1821 3740.4005 3988.7297 3724.7309 4042.4269 3702.0525 4080.4907 3762.9032 4105.5801 3817.3148 4096.1147 3839.0154 4091.9618 3850.5573 4078.5105 3837.8865 4059.4832 3812.3033 4030.956 3782.8112 4006.3725 3757.0052 Z" fill="none" stroke="#12852D" opacity="0.6" stroke-width="1" class="starrett_city"/>
<path d="M 4102.3689 3675.6718 3648.072 3357.9214 3793.4396 3453.5944 3827.2566 3570.1451 3901.9148 3556.9111 3960.9421 3543.8067 4033.1648 3530.2198 4139.3129 3442.2003 4205.0438 3429.1877 4225.5837 3537.0922 4112.494 3630.6761 4121.1237 3673.7997 4102.3689 3675.6718 Z" fill="none" stroke="#12852D" opacity="0.6" stroke-width="1" class="starrett_city"/>
<path d="M 3992.432 3722.4192 3997.0625 3721.4904 4040.5668 3696.5186 4103.7299 3819.1631 4065.8324 3881.9722 3953.5571 3747.3837 3992.432 3722.4192 Z" fill="none" stroke="#12852D" opacity="0.6" stroke-width="1" class="starrett_city"/>
<path d="M 3992.5499 3724.0339 4037.0993 3701.1369 4104.4224 3817.5471 4070.9259 3880.3501 3979.0647 3772.7283 3992.5499 3724.0339 Z" fill="none" stroke="#12852D" opacity="0.6" stroke-width="1" class="starrett_city"/>
<path d="M 4008.6818 3751.9268 3991.5075 3723.8046 4035.9371 3697.9089 4103.7292 3818.7017 4068.6125 3882.4298 3977.2131 3773.6535 4008.6818 3751.9268 Z" fill="none" stroke="#12852D" opacity="0.6" stroke-width="1" class="starrett_city"/>
<path d="M 3836.9534 3851.8035 3829.5386 3849.0432 4061.8606 3688.185 4156.6656 3906.762 4006.7632 4054.6525 3836.9534 3851.8035 Z" fill="none" stroke="#12852D" opacity="0.6" stroke-width="1" class="starrett_city"/></svg>