<?xml version="1.0"?><svg xmlns="http://www.w3.org/2000/svg" version="1.2" baseProfile="tiny" width="6000" height="5918" viewBox="0 0 6000 5918" stroke-linecap="round" stroke-linejoin="round"><path d="M 3310.8756 1316.774 3355.1765 1236.4432 3383.1359 1253.6821 3344.6142 1338.3842 3310.8756 1316.774 Z" fill="none" stroke="#A9159C" opacity="0.6" stroke-width="1" class="sugar_hill"/>
<path d="M 3380.323 1190.6407 3414.5223 1214.5461 3364.6888 1302.935 3330.486 1276.2644 3380.323 1190.6407 Z" fill="none" stroke="#A9159C" opacity="0.6" stroke-width="1" class="sugar_hill"/>
<path d="M 3408.9746 1208.1076 3359.6035 1297.4157 3267.642 1246.3877 3314.2455 1153.4098 3408.9746 1208.1076 Z" fill="none" stroke="#A9159C" opacity="0.6" stroke-width="1" class="sugar_hill"/>
<path d="M 3303.6864 1267.0762 3316.611 1249.1215 3320.3028 1242.6768 3320.759 1232.7827 3322.3742 1230.0207 3340.6106 1212.7534 3342.4544 1206.31 3347.982 1180.9981 3385.4091 1197.9999 3385.4094 1198.46 3389.3532 1224.6868 3377.5993 1264.27 3379.6766 1261.9677 3367.218 1284.5252 3370.8001 1287.3992 3357.528 1302.9395 3358.8007 1306.5053 3347.3809 1329.6383 3345.8831 1335.6221 3334.5601 1329.0708 3324.6246 1324.8197 3313.9959 1319.9937 3310.1828 1317.0045 3308.7994 1321.6075 3303.4907 1328.859 3292.9874 1341.6361 3288.5979 1340.8332 3281.6649 1335.4293 3276.0038 1332.556 3269.9969 1330.7184 3265.2593 1326.809 3270.3366 1318.0622 3270.4514 1316.7965 3301.8495 1286.4055 3303.6864 1267.0762 Z" fill="none" stroke="#A9159C" opacity="0.6" stroke-width="1" class="sugar_hill"/>
<path d="M 3365.0744 1182.828 3347.9776 1173.7508 3358.0142 1157.6395 3369.2037 1138.997 3417.9528 1165.3073 3407.1261 1207.0735 3359.8344 1297.3005 3299.296 1263.9724 3346.2452 1173.5217 3365.0744 1182.828 Z" fill="none" stroke="#A9159C" opacity="0.6" stroke-width="1" class="sugar_hill"/>
<path d="M 3395.8043 1200.5239 3408.5133 1209.0283 3359.6036 1297.6458 3303.6853 1265.2354 3325.1465 1231.1695 3302.5307 1265.6963 3288.4336 1252.819 3304.5847 1222.2081 3317.4819 1158.6994 3321.1682 1143.2828 3343.1052 1137.518 3356.7319 1138.4298 3415.6446 1167.3795 3395.8043 1200.5239 Z" fill="none" stroke="#A9159C" opacity="0.6" stroke-width="1" class="sugar_hill"/>
<path d="M 3305.8735 1254.4198 3314.7562 1237.2729 3344.1002 1253.5918 3334.4093 1270.6247 3305.8735 1254.4198 Z" fill="none" stroke="#A9159C" opacity="0.6" stroke-width="1" class="sugar_hill"/>
<path d="M 3360.1813 1297.9906 3299.0652 1264.3177 3317.2935 1231.4042 3328.7146 1211.035 3389.713 1244.8192 3384.2829 1241.6016 3390.1749 1244.8189 3360.1813 1297.9906 Z" fill="none" stroke="#A9159C" opacity="0.6" stroke-width="1" class="sugar_hill"/>
<path d="M 3309.9514 1316.3143 3379.3993 1190.8714 3424.6861 1216.1496 3377.8598 1309.8297 3354.318 1341.1396 3309.9514 1316.3143 Z" fill="none" stroke="#A9159C" opacity="0.6" stroke-width="1" class="sugar_hill"/>
<path d="M 3328.641 1281.0976 3379.8628 1193.1719 3381.7106 1193.4007 3399.0386 1201.6721 3411.5132 1205.1148 3416.6002 1213.3943 3370.4646 1304.542 3328.641 1281.0976 Z" fill="none" stroke="#A9159C" opacity="0.6" stroke-width="1" class="sugar_hill"/>
<path d="M 3332.8706 1328.7939 3278.3717 1298.0302 3331.7129 1201.9353 3387.3485 1230.8528 3332.8706 1328.7939 Z" fill="none" stroke="#A9159C" opacity="0.6" stroke-width="1" class="sugar_hill"/>
<path d="M 3244.401 1434.0003 3272.5808 1424.3199 3256.8675 1416.9639 3237.6548 1367.9068 3283.1776 1393.6567 3244.401 1434.0003 Z" fill="none" stroke="#A9159C" opacity="0.6" stroke-width="1" class="sugar_hill"/>
<path d="M 3463.5057 1238.44 3379.537 1402.3356 3229.8044 1333.3853 3345.2006 1164.8947 3463.5057 1238.44 Z" fill="none" stroke="#A9159C" opacity="0.6" stroke-width="1" class="sugar_hill"/>
<path d="M 3420.5265 1213.1615 3371.1575 1304.3115 3327.2555 1281.7887 3378.0134 1190.6422 3420.5265 1213.1615 Z" fill="none" stroke="#A9159C" opacity="0.6" stroke-width="1" class="sugar_hill"/>
<path d="M 3379.3986 1189.721 3402.5031 1201.6698 3362.8374 1297.4137 3331.411 1278.1046 3379.3986 1189.721 Z" fill="none" stroke="#A9159C" opacity="0.6" stroke-width="1" class="sugar_hill"/>
<path d="M 3407.3566 1206.2681 3408.2828 1209.7187 3360.5277 1297.8753 3328.8724 1281.7877 3379.1685 1191.1016 3407.3566 1206.2681 Z" fill="none" stroke="#A9159C" opacity="0.6" stroke-width="1" class="sugar_hill"/>
<path d="M 3413.599 1215.4671 3406.4538 1237.3301 3395.1509 1259.6565 3383.613 1276.6913 3375.9998 1291.1925 3368.3831 1300.4015 3364.4558 1299.7137 3339.5016 1287.994 3332.3357 1279.2546 3341.3341 1262.9123 3356.5608 1233.9114 3370.8621 1203.9914 3379.169 1191.7919 3402.2737 1203.9707 3413.599 1215.4671 Z" fill="none" stroke="#A9159C" opacity="0.6" stroke-width="1" class="sugar_hill"/>
<path d="M 3383.0721 1297.3233 3411.6831 1280.4295 3430.1244 1227.0353 3396.8432 1195.767 3420.8253 1140.5334 3448.5569 1164.4408 3450.4246 1192.0483 3383.0721 1297.3233 Z" fill="none" stroke="#A9159C" opacity="0.6" stroke-width="1" class="sugar_hill"/>
<path d="M 3362.8391 1300.1749 3334.1845 1280.8641 3388.6372 1189.715 3437.6239 1220.9723 3381.3229 1307.0662 3362.8391 1300.1749 Z" fill="none" stroke="#A9159C" opacity="0.6" stroke-width="1" class="sugar_hill"/>
<path d="M 3404.3614 1217.314 3359.6325 1343.4374 3360.0945 1343.4371 3340.6799 1326.4209 3404.3614 1217.314 Z" fill="none" stroke="#A9159C" opacity="0.6" stroke-width="1" class="sugar_hill"/>
<path d="M 3396.0389 1206.0456 3397.4229 1203.2837 3441.3229 1225.8014 3392.645 1312.121 3361.4514 1297.4146 3396.0389 1206.0456 Z" fill="none" stroke="#A9159C" opacity="0.6" stroke-width="1" class="sugar_hill"/>
<path d="M 3347.7074 1289.4991 3332.1193 1276.4003 3382.326 1190.7604 3409.8234 1209.1484 3360.253 1296.5998 3347.7074 1289.4991 Z" fill="none" stroke="#A9159C" opacity="0.6" stroke-width="1" class="sugar_hill"/>
<path d="M 3321.6184 1123.4971 3463.0091 1191.5035 3467.676 1255.4636 3448.7559 1283.5493 3305.0207 1176.8823 3321.6184 1123.4971 Z" fill="none" stroke="#A9159C" opacity="0.6" stroke-width="1" class="sugar_hill"/>
<path d="M 3379.1684 1190.8716 3408.0501 1207.1879 3408.7444 1209.2582 3410.8252 1212.2478 3413.3673 1214.3168 3414.5245 1217.7673 3414.0656 1222.1392 3369.7709 1303.392 3329.5648 1280.8669 3379.1684 1190.8716 Z" fill="none" stroke="#A9159C" opacity="0.6" stroke-width="1" class="sugar_hill"/>
<path d="M 3412.6701 1208.1051 3376.2146 1266.1116 3357.7556 1297.4169 3346.2301 1336.5423 3310.6446 1316.7741 3381.7076 1188.7992 3412.6701 1208.1051 Z" fill="none" stroke="#A9159C" opacity="0.6" stroke-width="1" class="sugar_hill"/>
<path d="M 3409.6678 1208.5673 3410.3626 1211.3278 3414.5237 1216.6169 3415.2188 1219.8376 3410.8376 1230.4245 3394.226 1258.2766 3380.1309 1250.2327 3395.5729 1199.8338 3409.6678 1208.5673 Z" fill="none" stroke="#A9159C" opacity="0.6" stroke-width="1" class="sugar_hill"/>
<path d="M 3440.3086 1099.4936 3468.9568 1114.6564 3471.3882 1277.55 3472.8649 1398.5882 3324.0473 1325.0502 3437.5399 1103.1764 3440.3086 1099.4936 Z" fill="none" stroke="#A9159C" opacity="0.6" stroke-width="1" class="sugar_hill"/>
<path d="M 3347.935 1291.9006 3342.5048 1288.5674 3385.8937 1232.512 3418.9278 1239.1622 3379.8237 1310.5187 3347.935 1291.9006 Z" fill="none" stroke="#A9159C" opacity="0.6" stroke-width="1" class="sugar_hill"/>
<path d="M 3453.7014 1096.9533 3407.355 1203.9673 3358.2453 1341.5974 3357.7824 1340.217 3284.9942 1298.8404 3453.7014 1096.9533 Z" fill="none" stroke="#A9159C" opacity="0.6" stroke-width="1" class="sugar_hill"/>
<path d="M 3346.2301 1336.5423 3325.2025 1325.5097 3344.5846 1290.0618 3360.7589 1298.1053 3343.8908 1288.6816 3348.9662 1278.5541 3384.3209 1299.4708 3396.5672 1305.2152 3388.9497 1313.0439 3378.7832 1308.9087 3356.8602 1342.9789 3346.2301 1336.5423 Z" fill="none" stroke="#A9159C" opacity="0.6" stroke-width="1" class="sugar_hill"/>
<path d="M 3398.3442 1199.3718 3409.9 1210.4078 3418.6616 1188.3142 3462.9706 1139.5075 3471.3668 1249.0183 3400.7679 1368.7234 3346.2315 1338.8435 3373.4472 1273.0163 3398.3442 1199.3718 Z" fill="none" stroke="#A9159C" opacity="0.6" stroke-width="1" class="sugar_hill"/>
<path d="M 3407.5894 1209.0289 3412.4442 1215.4679 3414.2965 1222.139 3405.0715 1242.6231 3370.4639 1303.3915 3328.6406 1280.4073 3379.1684 1190.8716 3407.5894 1209.0289 Z" fill="none" stroke="#A9159C" opacity="0.6" stroke-width="1" class="sugar_hill"/>
<path d="M 3329.7958 1280.8668 3378.4765 1192.4825 3407.5894 1209.0289 3416.1418 1218.4564 3370.6943 1302.4709 3329.7958 1280.8668 Z" fill="none" stroke="#A9159C" opacity="0.6" stroke-width="1" class="sugar_hill"/>
<path d="M 3377.5515 1190.6425 3347.9772 1173.1756 3396.8785 1080.1992 3428.3009 1101.3425 3377.5515 1190.6425 Z" fill="none" stroke="#A9159C" opacity="0.6" stroke-width="1" class="sugar_hill"/>
<path d="M 3320.0643 1229.792 3349.8708 1247.2607 3379.4453 1261.5076 3372.5428 1303.3902 3296.5288 1272.1424 3320.0643 1229.792 Z" fill="none" stroke="#A9159C" opacity="0.6" stroke-width="1" class="sugar_hill"/>
<path d="M 3331.8755 1282.2461 3382.1705 1190.1794 3467.188 1220.4906 3420.6052 1326.3687 3331.8755 1282.2461 Z" fill="none" stroke="#A9159C" opacity="0.6" stroke-width="1" class="sugar_hill"/>
<path d="M 3406.2023 1207.1892 3459.7854 1204.8504 3470.552 1394.9079 3327.7786 1384.4181 3406.2023 1207.1892 Z" fill="none" stroke="#A9159C" opacity="0.6" stroke-width="1" class="sugar_hill"/>
<path d="M 3336.7841 1377.7391 3288.7201 1352.9141 3318.4861 1295.5999 3368.3235 1207.2142 3408.0664 1231.1166 3336.7841 1377.7391 Z" fill="none" stroke="#A9159C" opacity="0.6" stroke-width="1" class="sugar_hill"/>
<path d="M 3427.5333 1159.2038 3346.4615 1337.2325 3310.4138 1317.1194 3405.3525 1146.1052 3429.1494 1158.3974 3427.5333 1159.2038 Z" fill="none" stroke="#A9159C" opacity="0.6" stroke-width="1" class="sugar_hill"/>
<path d="M 3378.9373 1190.6416 3407.1265 1207.6487 3413.599 1215.4671 3414.9918 1225.5898 3370.232 1302.011 3355.4742 1342.9798 3308.7961 1315.8548 3378.9373 1190.6416 Z" fill="none" stroke="#A9159C" opacity="0.6" stroke-width="1" class="sugar_hill"/>
<path d="M 3379.3896 1175.9165 3452.4028 1216.3599 3374.8905 1361.8369 3263.0537 1305.7553 3347.0448 1159.3719 3379.3896 1175.9165 Z" fill="none" stroke="#A9159C" opacity="0.6" stroke-width="1" class="sugar_hill"/>
<path d="M 3354.5499 1342.5201 3341.611 1337.9258 3362.8315 1288.2096 3378.5154 1252.3045 3417.2379 1133.5585 3434.7967 1142.7488 3412.6789 1220.9897 3395.1472 1254.1343 3354.5499 1342.5201 Z" fill="none" stroke="#A9159C" opacity="0.6" stroke-width="1" class="sugar_hill"/>
<path d="M 3403.6008 1287.8378 3340.1493 1403.281 3280.6445 1370.4076 3345.0248 1254.6266 3403.6008 1287.8378 Z" fill="none" stroke="#A9159C" opacity="0.6" stroke-width="1" class="sugar_hill"/>
<path d="M 3303.2 1148.1025 3469.5634 1241.9842 3372.1009 1422.1531 3209.7687 1331.5817 3303.2 1148.1025 Z" fill="none" stroke="#A9159C" opacity="0.6" stroke-width="1" class="sugar_hill"/>
<path d="M 3332.939 1130.3922 3421.8792 1165.5346 3290.1843 1493.5247 3192.6367 1384.7191 3332.939 1130.3922 Z" fill="none" stroke="#A9159C" opacity="0.6" stroke-width="1" class="sugar_hill"/>
<path d="M 3370.0019 1303.3918 3357.9863 1296.9565 3385.6768 1253.9105 3394.8858 1208.5773 3405.0455 1204.1989 3406.1875 1185.3317 3419.5703 1166.4565 3414.7186 1164.1592 3421.4101 1155.1818 3429.0341 1158.6275 3409.1909 1186.7102 3408.5119 1206.9575 3418.909 1212.0122 3370.0019 1303.3918 Z" fill="none" stroke="#A9159C" opacity="0.6" stroke-width="1" class="sugar_hill"/>
<path d="M 3410.8387 1232.0351 3448.7259 1242.1323 3456.1536 1291.8275 3448.7839 1322.2068 3424.7731 1340.6327 3371.1654 1316.7372 3342.5068 1291.9039 3336.9474 1266.1363 3366.4951 1237.5865 3410.8387 1232.0351 Z" fill="none" stroke="#A9159C" opacity="0.6" stroke-width="1" class="sugar_hill"/>
<path d="M 3336.0327 1281.3232 3385.8698 1196.159 3446.4048 1226.488 3393.8018 1314.8815 3336.0327 1281.3232 Z" fill="none" stroke="#A9159C" opacity="0.6" stroke-width="1" class="sugar_hill"/>
<path d="M 3413.7852 1150.3557 3430.1895 1159.547 3412.8864 1186.7076 3407.1245 1204.6577 3417.3009 1224.6679 3405.075 1247.6851 3389.8474 1273.4658 3373.0035 1301.3189 3343.8927 1291.903 3391.6612 1222.1543 3399.9569 1193.3886 3413.7852 1150.3557 Z" fill="none" stroke="#A9159C" opacity="0.6" stroke-width="1" class="sugar_hill"/>
<path d="M 3282.4294 1255.1232 3312.397 1152.0304 3410.1296 1208.3369 3367.4419 1273.4804 3360.2944 1294.1939 3359.602 1295.1147 3360.0646 1296.0348 3299.0644 1262.9371 3299.527 1264.0873 3282.4294 1255.1232 Z" fill="none" stroke="#A9159C" opacity="0.6" stroke-width="1" class="sugar_hill"/>
<path d="M 3329.3338 1280.867 3379.3999 1191.7917 3409.6671 1207.5319 3361.3364 1298.22 3329.3338 1280.867 Z" fill="none" stroke="#A9159C" opacity="0.6" stroke-width="1" class="sugar_hill"/>
<path d="M 3369.5398 1303.162 3329.7958 1280.8668 3378.7067 1191.332 3410.1297 1208.567 3414.5283 1223.2893 3369.5398 1303.162 Z" fill="none" stroke="#A9159C" opacity="0.6" stroke-width="1" class="sugar_hill"/>
<path d="M 3384.9454 1195.2392 3407.1293 1211.7902 3319.4695 1396.8498 3286.1886 1370.1744 3384.9454 1195.2392 Z" fill="none" stroke="#A9159C" opacity="0.6" stroke-width="1" class="sugar_hill"/>
<path d="M 3410.8223 1208.1064 3344.3841 1339.7651 3260.029 1264.1089 3324.8713 1156.6245 3410.8223 1208.1064 Z" fill="none" stroke="#A9159C" opacity="0.6" stroke-width="1" class="sugar_hill"/>
<path d="M 3319.3272 1154.5571 3424.918 1217.53 3355.012 1342.7499 3256.3459 1288.5012 3320.0207 1155.7071 3319.3272 1154.5571 Z" fill="none" stroke="#A9159C" opacity="0.6" stroke-width="1" class="sugar_hill"/>
<path d="M 3369.3091 1303.6224 3330.4886 1280.6363 3381.2474 1191.3304 3397.6531 1202.1332 3408.7435 1207.8777 3411.992 1229.7334 3369.3091 1303.6224 Z" fill="none" stroke="#A9159C" opacity="0.6" stroke-width="1" class="sugar_hill"/>
<path d="M 3396.2665 1200.9837 3426.5347 1217.2988 3380.1684 1307.7572 3345.046 1289.1411 3396.2665 1200.9837 Z" fill="none" stroke="#A9159C" opacity="0.6" stroke-width="1" class="sugar_hill"/>
<path d="M 3302.7827 1149.8586 3469.7652 1242.2369 3371.4113 1423.2096 3210.5009 1334.5056 3302.7827 1149.8586 Z" fill="none" stroke="#A9159C" opacity="0.6" stroke-width="1" class="sugar_hill"/>
<path d="M 3346.6924 1337.0023 3336.9879 1332.8662 3327.7449 1327.8093 3316.1891 1317.6913 3313.8788 1317.2325 3361.8732 1233.908 3390.4952 1205.3591 3414.0559 1208.1041 3419.1468 1221.9056 3406.6893 1244.0025 3389.1545 1273.4662 3377.1585 1296.9443 3374.853 1303.8489 3369.3145 1312.1363 3365.6283 1327.3257 3358.7059 1339.2959 3346.6924 1337.0023 Z" fill="none" stroke="#A9159C" opacity="0.6" stroke-width="1" class="sugar_hill"/>
<path d="M 3380.6771 1193.112 3410.4812 1207.1269 3417.6502 1220.0066 3370.644 1304.7096 3329.8942 1281.6748 3380.6771 1193.112 Z" fill="none" stroke="#A9159C" opacity="0.6" stroke-width="1" class="sugar_hill"/>
<path d="M 3380.323 1190.6407 3468.1266 1240.2773 3421.9966 1334.1915 3329.3338 1280.867 3380.323 1190.6407 Z" fill="none" stroke="#A9159C" opacity="0.6" stroke-width="1" class="sugar_hill"/>
<path d="M 3395.342 1200.064 3378.0618 1265.1901 3369.5247 1279.6917 3339.7173 1262.9132 3378.707 1191.7922 3395.342 1200.064 Z" fill="none" stroke="#A9159C" opacity="0.6" stroke-width="1" class="sugar_hill"/>
<path d="M 3363.5251 1273.9336 3339.4709 1287.0267 3355.647 1298.0616 3383.76 1230.4228 3391.1567 1238.7011 3360.2439 1299.0063 3363.5251 1273.9336 Z" fill="none" stroke="#A9159C" opacity="0.6" stroke-width="1" class="sugar_hill"/>
<path d="M 3343.8913 1289.602 3370.1934 1241.7257 3386.1246 1232.2818 3389.8133 1221.9255 3396.9594 1200.9832 3407.3564 1206.038 3414.2926 1216.3869 3400.6868 1248.3783 3376.6916 1289.3512 3370.0019 1303.3918 3343.8913 1289.602 Z" fill="none" stroke="#A9159C" opacity="0.6" stroke-width="1" class="sugar_hill"/>
<path d="M 3378.0588 1260.5882 3325.8414 1234.3903 3320.7569 1229.3314 3378.0588 1260.5882 Z" fill="none" stroke="#A9159C" opacity="0.6" stroke-width="1" class="sugar_hill"/>
<path d="M 3322.1751 1284.0927 3304.6043 1256.4914 3312.9215 1259.7079 3389.0474 1111.4918 3441.2552 1131.241 3364.2233 1297.4128 3322.1751 1284.0927 Z" fill="none" stroke="#A9159C" opacity="0.6" stroke-width="1" class="sugar_hill"/>
<path d="M 3409.8481 1134.4839 3457.0026 1189.6673 3391.49 1312.1218 3328.6403 1279.9471 3409.8481 1134.4839 Z" fill="none" stroke="#A9159C" opacity="0.6" stroke-width="1" class="sugar_hill"/>
<path d="M 3379.6303 1190.8713 3420.7586 1214.7719 3354.78 1341.1393 3311.567 1314.0123 3379.6303 1190.8713 Z" fill="none" stroke="#A9159C" opacity="0.6" stroke-width="1" class="sugar_hill"/>
<path d="M 3466.2781 1239.3583 3369.3864 1424.4348 3203.9388 1347.2045 3314.7098 1157.5507 3345.2062 1174.0976 3466.2781 1239.3583 Z" fill="none" stroke="#A9159C" opacity="0.6" stroke-width="1" class="sugar_hill"/>
<path d="M 3359.6033 1297.1856 3345.0746 1335.6226 3319.4325 1333.7971 3252.1922 1296.3268 3250.8064 1296.5576 3306.8874 1210.0124 3380.5927 1250.0023 3359.6033 1297.1856 Z" fill="none" stroke="#A9159C" opacity="0.6" stroke-width="1" class="sugar_hill"/>
<path d="M 3367.2293 1302.2431 3328.1809 1284.3192 3378.7066 1191.1019 3411.2855 1209.9467 3369.0772 1302.2419 3367.2293 1302.2431 Z" fill="none" stroke="#A9159C" opacity="0.6" stroke-width="1" class="sugar_hill"/>
<path d="M 3347.9773 1173.4056 3460.6969 1188.054 3393.3392 1313.9614 3298.8331 1262.4771 3347.9773 1173.4056 Z" fill="none" stroke="#A9159C" opacity="0.6" stroke-width="1" class="sugar_hill"/></svg>