<?xml version="1.0"?><svg xmlns="http://www.w3.org/2000/svg" version="1.2" baseProfile="tiny" width="6000" height="5918" viewBox="0 0 6000 5918" stroke-linecap="round" stroke-linejoin="round"><path d="M 1626.8524 4249.572 1686.2428 4186.8612 1701.0466 4209.0353 1740.9187 4191.5381 1757.5883 4203.5578 1746.4327 4234.9361 1719.536 4251.5255 1708.3951 4268.1322 1682.4321 4277.3358 1649.0403 4297.6097 1626.8524 4249.572 Z" fill="none" stroke="#012394" opacity="0.6" stroke-width="1" class="sunnyside__staten_island_"/>
<path d="M 1442.1235 4287.1864 1647.7179 4240.1334 1703.0135 4314.5226 1457.3604 4328.2957 1442.1235 4287.1864 Z" fill="none" stroke="#012394" opacity="0.6" stroke-width="1" class="sunnyside__staten_island_"/>
<path d="M 1625.8266 4331.7454 1560.9434 4329.8183 1486.8061 4316.7942 1442.4327 4231.79 1603.7457 4196.9188 1631.5764 4174.7956 1676.0449 4189.6191 1701.9412 4237.6569 1724.096 4318.9319 1686.9917 4342.8974 1625.8266 4331.7454 Z" fill="none" stroke="#012394" opacity="0.6" stroke-width="1" class="sunnyside__staten_island_"/>
<path d="M 1509.0486 4319.594 1500.7593 4279.8802 1661.1536 4243.1497 1635.246 4206.1892 1681.6311 4167.4687 1720.523 4197.0551 1712.9791 4313.3796 1625.8266 4331.7454 1509.0486 4319.594 Z" fill="none" stroke="#012394" opacity="0.6" stroke-width="1" class="sunnyside__staten_island_"/>
<path d="M 1716.867 4150.8911 1723.3543 4150.8983 1648.1876 4234.8252 1576.895 4175.6516 1562.2157 4058.3939 1733.6866 4024.4429 1695.6068 4101.9402 1716.867 4150.8911 Z" fill="none" stroke="#012394" opacity="0.6" stroke-width="1" class="sunnyside__staten_island_"/>
<path d="M 1647.4864 4239.9023 1662.7501 4265.0794 1692.6066 4296.0443 1706.0239 4316.3726 1658.982 4316.8959 1634.6507 4316.5208 1625.6171 4313.2783 1591.0904 4312.4282 1545.9216 4298.0595 1541.0833 4276.4709 1561.5963 4271.9962 1618.5026 4256.2556 1647.4864 4239.9023 Z" fill="none" stroke="#012394" opacity="0.6" stroke-width="1" class="sunnyside__staten_island_"/>
<path d="M 1599.8427 4261.7725 1665.114 4224.92 1706.0921 4255.4345 1711.7513 4271.4829 1705.9362 4291.212 1692.8387 4295.6984 1705.5603 4316.4875 1625.1536 4313.2778 1599.8427 4261.7725 Z" fill="none" stroke="#012394" opacity="0.6" stroke-width="1" class="sunnyside__staten_island_"/>
<path d="M 1540.1562 4276.7005 1647.9501 4239.672 1634.3106 4213.3432 1667.2521 4179.4537 1692.0274 4193.7919 1714.4895 4205.3574 1717.4439 4257.5245 1696.5477 4294.433 1704.1716 4314.9856 1628.8596 4314.6672 1627.2375 4314.6653 1567.6999 4301.2035 1540.1562 4276.7005 Z" fill="none" stroke="#012394" opacity="0.6" stroke-width="1" class="sunnyside__staten_island_"/>
<path d="M 1655.5774 4256.069 1700.473 4306.9023 1608.7008 4313.2578 1508.1358 4308.9745 1499.3616 4285.4182 1567.5068 4270.7341 1642.6177 4242.2047 1678.8317 4184.0831 1642.6594 4207.1213 1627.827 4209.8733 1655.5774 4256.069 Z" fill="none" stroke="#012394" opacity="0.6" stroke-width="1" class="sunnyside__staten_island_"/>
<path d="M 1577.9874 4274.808 1555.1277 4275.5749 1547.7138 4274.6421 1680.3318 4210.175 1724.3139 4267.4667 1710.3594 4313.6167 1623.2268 4315.3622 1568.5619 4296.8281 1552.8235 4282.0351 1577.9874 4274.808 Z" fill="none" stroke="#012394" opacity="0.6" stroke-width="1" class="sunnyside__staten_island_"/>
<path d="M 1625.6161 4313.3667 1624.5916 4310.6834 1612.3409 4285.2773 1600.5517 4261.9497 1620.5507 4255.5098 1659.8441 4232.5519 1690.0115 4194.5517 1711.7705 4205.358 1717.1757 4255.4641 1711.5198 4271.3076 1707.0863 4290.9395 1708.138 4281.7538 1694.2182 4296.2802 1701.6157 4311.9851 1682.9706 4316.6164 1651.1044 4315.0129 1625.6161 4313.3667 Z" fill="none" stroke="#012394" opacity="0.6" stroke-width="1" class="sunnyside__staten_island_"/>
<path d="M 2530.629 3880.0684 2437.9835 3868.9659 2460.2346 3820.9837 2756.6967 3533.1456 3012.3633 3717.6466 3034.7698 4330.5469 2530.629 3880.0684 Z" fill="none" stroke="#012394" opacity="0.6" stroke-width="1" class="sunnyside__staten_island_"/>
<path d="M 1599.847 4129.7059 1724.8125 4260.0255 1575.5174 4315.2479 1487.5823 4224.6507 1599.847 4129.7059 Z" fill="none" stroke="#012394" opacity="0.6" stroke-width="1" class="sunnyside__staten_island_"/>
<path d="M 1542.9338 4279.0124 1641.2785 4199.2722 1672.8134 4178.9985 1704.3044 4196.5754 1725.088 4259.8411 1723.1925 4297.6943 1706.4866 4317.0657 1589.7013 4311.3877 1565.6132 4302.1242 1542.9338 4279.0124 Z" fill="none" stroke="#012394" opacity="0.6" stroke-width="1" class="sunnyside__staten_island_"/>
<path d="M 1501.6603 4299.2709 1473.7309 4388.7995 1468.1664 4390.6387 1501.6603 4299.2709 Z" fill="none" stroke="#012394" opacity="0.6" stroke-width="1" class="sunnyside__staten_island_"/>
<path d="M 1543.6819 4291.8431 1542.3161 4272.9137 1647.4494 4241.0129 1691.5785 4194.1071 1711.9563 4204.7471 1720.2435 4253.6886 1701.1894 4301.2172 1701.8444 4315.5582 1599.2311 4320.6569 1543.6819 4291.8431 Z" fill="none" stroke="#012394" opacity="0.6" stroke-width="1" class="sunnyside__staten_island_"/></svg>