<?xml version="1.0"?><svg xmlns="http://www.w3.org/2000/svg" version="1.2" baseProfile="tiny" width="6000" height="5918" viewBox="0 0 6000 5918" stroke-linecap="round" stroke-linejoin="round"><path d="M 2875.0947 2244.2504 2945.1314 2119.4079 3006.4062 2154.1704 2935.2188 2278.3312 2875.0947 2244.2504 Z" fill="none" stroke="#A9159C" opacity="0.6" stroke-width="1" class="times_square__theater_district"/>
<path d="M 2912.0938 2266.1271 2904.925 2261.5215 2931.9665 2193.34 2941.9095 2198.175 2912.0938 2266.1271 Z" fill="none" stroke="#A9159C" opacity="0.6" stroke-width="1" class="times_square__theater_district"/>
<path d="M 2878.7942 2243.3286 2841.7982 2238.7257 2859.3666 2194.5017 2919.4644 2090.3948 3014.7277 2147.4893 2933.3692 2280.1743 2848.2731 2247.0171 2878.7942 2243.3286 Z" fill="none" stroke="#A9159C" opacity="0.6" stroke-width="1" class="times_square__theater_district"/>
<path d="M 3023.1001 2328.0661 3005.5231 2317.9353 2914.9041 2491.1929 2877.8962 2469.0806 2839.0401 2450.6537 2880.6603 2376.9302 2788.1571 2330.8652 2921.3142 2092.2369 3101.6726 2187.0762 3023.1001 2328.0661 Z" fill="none" stroke="#A9159C" opacity="0.6" stroke-width="1" class="times_square__theater_district"/>
<path d="M 2909.7686 2182.0581 2971.5084 2215.9038 2913.0276 2323.022 2850.5892 2289.399 2909.7686 2182.0581 Z" fill="none" stroke="#A9159C" opacity="0.6" stroke-width="1" class="times_square__theater_district"/>
<path d="M 2834.8622 2246.5575 2884.3324 2155.3453 2915.316 2171.9233 2976.362 2207.3808 2925.9725 2295.8389 2834.8622 2246.5575 Z" fill="none" stroke="#A9159C" opacity="0.6" stroke-width="1" class="times_square__theater_district"/>
<path d="M 2811.7488 2429.9213 2904.6937 2261.2912 3005.5227 2316.5532 2912.1279 2485.6639 2811.7488 2429.9213 Z" fill="none" stroke="#A9159C" opacity="0.6" stroke-width="1" class="times_square__theater_district"/>
<path d="M 2767.8072 2163.1833 2768.732 2169.6321 3009.2117 2274.6296 2921.3673 2413.7833 2687.3381 2290.321 2767.8072 2163.1833 Z" fill="none" stroke="#A9159C" opacity="0.6" stroke-width="1" class="times_square__theater_district"/>
<path d="M 2834.8622 2246.5575 2887.106 2148.8962 2979.5968 2197.7065 2925.0477 2296.7604 2834.8622 2246.5575 Z" fill="none" stroke="#A9159C" opacity="0.6" stroke-width="1" class="times_square__theater_district"/>
<path d="M 2912.0995 2303.2122 2957.4265 2325.3175 2916.7398 2399.9618 2855.2202 2356.2004 2890.3623 2295.8442 2912.0995 2303.2122 Z" fill="none" stroke="#A9159C" opacity="0.6" stroke-width="1" class="times_square__theater_district"/>
<path d="M 2814.9787 2280.1879 2881.0968 2164.5581 3006.4265 2233.6308 2944.0193 2351.1199 2814.9787 2280.1879 Z" fill="none" stroke="#A9159C" opacity="0.6" stroke-width="1" class="times_square__theater_district"/>
<path d="M 2917.6284 2174.2261 2958.3253 2197.2505 2986.9985 2210.1422 2936.1482 2303.2081 2884.3493 2289.3954 2865.8472 2257.1501 2869.5397 2192.658 2917.6284 2174.2261 Z" fill="none" stroke="#A9159C" opacity="0.6" stroke-width="1" class="times_square__theater_district"/>
<path d="M 2934.7309 2136.9129 2996.2376 2171.4464 2930.1334 2288.4671 2839.486 2238.2652 2934.7309 2136.9129 Z" fill="none" stroke="#A9159C" opacity="0.6" stroke-width="1" class="times_square__theater_district"/>
<path d="M 2939.8156 2128.1604 2970.3369 2144.9666 2900.7642 2270.2749 2870.0088 2253.0036 2939.8156 2128.1604 Z" fill="none" stroke="#A9159C" opacity="0.6" stroke-width="1" class="times_square__theater_district"/>
<path d="M 2906.5442 2265.437 2874.8632 2241.9471 2921.0947 2163.4008 2953.6976 2179.9775 2906.5442 2265.437 Z" fill="none" stroke="#A9159C" opacity="0.6" stroke-width="1" class="times_square__theater_district"/>
<path d="M 2894.9846 2278.7983 2803.415 2228.1329 2828.846 2182.5276 2921.8 2233.6486 2935.6748 2242.8594 2909.7843 2284.785 2894.9846 2278.7983 Z" fill="none" stroke="#A9159C" opacity="0.6" stroke-width="1" class="times_square__theater_district"/>
<path d="M 2879.7107 2174.2315 3011.9725 2221.1916 2945.3966 2297.6781 2849.1986 2253.4663 2879.7107 2174.2315 Z" fill="none" stroke="#A9159C" opacity="0.6" stroke-width="1" class="times_square__theater_district"/>
<path d="M 2876.9446 2244.7108 2911.1558 2181.8276 2969.8898 2215.2132 2933.8308 2275.3371 2876.9446 2244.7108 Z" fill="none" stroke="#A9159C" opacity="0.6" stroke-width="1" class="times_square__theater_district"/>
<path d="M 2884.3327 2157.6484 2976.8247 2208.302 2916.7254 2310.5825 2821.4522 2263.6032 2884.3327 2157.6484 Z" fill="none" stroke="#A9159C" opacity="0.6" stroke-width="1" class="times_square__theater_district"/>
<path d="M 2873.2452 2246.0932 2915.3159 2171.4627 2944.9137 2190.3435 2908.8561 2263.1333 2873.2452 2246.0932 Z" fill="none" stroke="#A9159C" opacity="0.6" stroke-width="1" class="times_square__theater_district"/>
<path d="M 2952.4937 1938.4065 2952.9557 1936.5643 2993.4118 1958.8907 2946.505 2048.4773 2903.9649 2021.7719 2952.4937 1938.4065 Z" fill="none" stroke="#A9159C" opacity="0.6" stroke-width="1" class="times_square__theater_district"/>
<path d="M 2887.115 2218.4521 2988.8421 2184.3459 3087.8158 2233.1458 3063.8132 2373.2043 3003.7229 2515.1357 2789.0863 2499.4985 2753.0078 2347.451 2818.6762 2240.5699 2887.115 2218.4521 Z" fill="none" stroke="#A9159C" opacity="0.6" stroke-width="1" class="times_square__theater_district"/>
<path d="M 2936.8201 2183.2052 2947.4569 2189.4218 2960.4066 2199.3229 2955.784 2207.3851 2947.2314 2219.1334 2936.5987 2237.101 2930.1268 2250.231 2918.568 2264.9744 2909.5499 2263.8242 2845.9594 2229.5122 2863.7597 2195.4225 2894.0497 2205.553 2915.548 2176.7599 2934.2763 2180.2115 2936.8201 2183.2052 Z" fill="none" stroke="#A9159C" opacity="0.6" stroke-width="1" class="times_square__theater_district"/>
<path d="M 2865.1541 2262.4479 2934.7311 2138.0644 2995.7753 2171.6768 2926.8975 2296.2994 2865.1541 2262.4479 Z" fill="none" stroke="#A9159C" opacity="0.6" stroke-width="1" class="times_square__theater_district"/>
<path d="M 2865.6166 2262.9085 2900.0605 2200.0244 2961.5699 2233.8715 2926.6664 2296.7601 2865.6166 2262.9085 Z" fill="none" stroke="#A9159C" opacity="0.6" stroke-width="1" class="times_square__theater_district"/></svg>