<?xml version="1.0"?><svg xmlns="http://www.w3.org/2000/svg" version="1.2" baseProfile="tiny" width="6000" height="5918" viewBox="0 0 6000 5918" stroke-linecap="round" stroke-linejoin="round"><path d="M 1556.7167 4736.1733 1539.08 4749.5449 1543.2787 4729.6898 1553.041 4709.8422 1563.7297 4690.458 1571.6443 4664.6048 1571.6746 4640.5896 1563.8048 4631.3432 1568.4941 4589.3244 1572.232 4566.2394 1577.8181 4547.775 1564.8832 4512.2023 1566.2938 4496.5043 1556.5693 4488.6421 1545.4692 4469.2345 1530.6662 4446.1284 1521.4103 4435.0348 1527.4723 4407.3396 1544.2002 4375.0421 1547.9746 4323.3383 1613.7742 4333.5775 1723.1549 4331.8577 1779.6807 4348.5387 1763.8932 4376.2236 1772.1759 4433.4844 1763.8179 4447.3275 1773.9864 4475.0425 1762.8233 4511.0475 1724.7884 4532.2477 1699.736 4549.7673 1678.3946 4564.5202 1677.4536 4576.5256 1678.3553 4598.693 1673.698 4617.1601 1662.551 4634.6962 1643.979 4657.7658 1622.1636 4678.2915 1588.2724 4714.9672 1556.7167 4736.1733 Z" fill="none" stroke="#FBC20F" opacity="0.6" stroke-width="1" class="todt_hill"/>
<path d="M 1563.3441 4629.0335 1558.5855 4725.0908 1449.0459 4808.0843 1384.1546 4789.5157 1332.3442 4708.1482 1316.6606 4655.4739 1496.9589 4349.1252 1575.5578 4502.057 1563.3441 4629.0335 Z" fill="none" stroke="#FBC20F" opacity="0.6" stroke-width="1" class="todt_hill"/>
<path d="M 1567.4039 4351.9872 1604.4731 4359.4204 1617.4472 4362.2064 1747.2155 4368.8186 1742.5786 4370.6604 1743.3609 4504.562 1618.9878 4620.7899 1584.7003 4605.0461 1543.266 4380.5812 1567.4039 4351.9872 Z" fill="none" stroke="#FBC20F" opacity="0.6" stroke-width="1" class="todt_hill"/>
<path d="M 1372.2606 4364.6472 1380.9716 4429.7608 1386.0628 4434.8472 1402.689 4476.8892 1415.6641 4479.6783 1436.5325 4473.2434 1460.2016 4452.4981 1490.8137 4438.2262 1503.7559 4465.4858 1502.3536 4474.2571 1499.1051 4477.0232 1579.3316 4449.8845 1550.6772 4384.2844 1521.0403 4363.9312 1625.712 4426.8552 1652.6284 4399.1843 1700.7962 4431.5599 1696.1015 4484.1926 1653.3937 4536.7842 1626.4634 4572.7713 1632.9204 4600.487 1506.9736 4485.8069 1372.2606 4364.6472 Z" fill="none" stroke="#FBC20F" opacity="0.6" stroke-width="1" class="todt_hill"/>
<path d="M 1570.4914 4476.1926 1694.4727 4387.4592 1692.7379 4384.5716 1691.0003 4384.1079 1686.7106 4386.1807 1691.11 4389.533 1686.7062 4390.1051 1589.497 4475.7546 1570.4914 4476.1926 Z" fill="none" stroke="#FBC20F" opacity="0.6" stroke-width="1" class="todt_hill"/>
<path d="M 1772.1235 4483.3519 1760.0439 4509.1975 1711.7992 4540.5453 1680.2489 4564.5223 1670.9089 4623.6222 1530.7284 4753.691 1569.7833 4669.6827 1576.4402 4537.6142 1523.7279 4435.0379 1631.3904 4329.9054 1668.4314 4361.3435 1652.5948 4427.8106 1694.2557 4476.8025 1710.9699 4452.8108 1772.1235 4483.3519 Z" fill="none" stroke="#FBC20F" opacity="0.6" stroke-width="1" class="todt_hill"/>
<path d="M 1664.9633 4354.4141 1676.6993 4627.7853 1527.0139 4757.6121 1512.4771 4355.3787 1664.9633 4354.4141 Z" fill="none" stroke="#FBC20F" opacity="0.6" stroke-width="1" class="todt_hill"/>
<path d="M 1458.2011 4347.0937 1479.2483 4285.7366 1538.0896 4325.1828 1664.0955 4354.9833 1718.0275 4358.2833 1708.5911 4386.7393 1711.7635 4396.5033 1631.1336 4471.8188 1627.2268 4521.036 1652.9046 4568.5229 1672.4289 4598.5084 1633.6673 4662.9057 1540.8492 4733.9155 1506.1856 4536.3481 1446.4168 4481.4163 1469.1704 4448.823 1458.2011 4347.0937 Z" fill="none" stroke="#FBC20F" opacity="0.6" stroke-width="1" class="todt_hill"/>
<path d="M 1546.9121 4742.5669 1512.5994 4323.2922 1784.1284 4359.1132 1546.9121 4742.5669 Z" fill="none" stroke="#FBC20F" opacity="0.6" stroke-width="1" class="todt_hill"/>
<path d="M 1336.6755 4296.2662 1647.2553 4239.4404 1678.3383 4613.4709 1538.1472 4753.7006 1352.7339 4715.5686 1270.352 4621.2269 1354.9314 4485.5925 1336.6755 4296.2662 Z" fill="none" stroke="#FBC20F" opacity="0.6" stroke-width="1" class="todt_hill"/>
<path d="M 1536.9941 4749.0803 1526.5542 4754.6093 1519.1226 4764.2991 1510.3023 4772.1395 1499.6264 4780.4393 1489.419 4785.0445 1488.0417 4774.881 1477.8815 4744.8449 1472.7956 4734.2149 1457.5163 4718.4904 1435.3088 4684.2822 1440.8925 4669.9729 1458.0936 4636.2831 1467.8663 4609.5112 1472.9962 4587.3516 1480.4325 4573.5078 1464.701 4551.3205 1439.2374 4527.7346 1442.0465 4507.8826 1454.1169 4494.9702 1486.0929 4501.4785 1506.9598 4496.1963 1515.093 4480.2767 1515.5867 4457.4211 1522.563 4439.6536 1532.5332 4436.2037 1545.2892 4429.0635 1557.5789 4424.0003 1570.0993 4419.6299 1578.4393 4422.1799 1584.6904 4427.2666 1595.1132 4432.3585 1611.5571 4441.3824 1618.504 4446.239 1626.6029 4456.8686 1632.15 4469.5731 1630.5149 4480.1913 1631.4273 4492.4288 1626.0885 4499.1178 1620.983 4504.4219 1618.1953 4509.7287 1617.4896 4518.2705 1620.5013 4519.4286 1624.4327 4526.8216 1627.8997 4534.9068 1632.7563 4543.9173 1637.1515 4551.311 1644.7893 4560.7866 1653.8228 4566.1079 1655.9027 4571.4209 1649.6394 4575.5697 1640.5951 4579.2533 1640.1296 4580.869 1633.173 4583.1697 1633.1658 4589.1731 1635.2456 4594.4863 1636.1659 4600.26 1642.4239 4600.7292 1655.4064 4599.3591 1661.6698 4595.2102 1670.9369 4599.3772 1672.555 4603.3044 1670.6977 4605.8422 1667.9075 4613.2279 1664.4232 4619.4584 1663.0278 4623.3822 1658.3887 4625.9168 1656.9908 4631.9188 1651.8873 4635.1455 1647.0138 4639.758 1643.7611 4645.9888 1640.2823 4647.3702 1635.6367 4655.2158 1630.7609 4661.6756 1626.35 4666.9814 1621.0165 4668.3605 1618.6961 4670.2051 1613.5863 4678.2811 1606.6213 4686.8167 1599.6561 4695.3524 1593.625 4698.347 1589.443 4705.7315 1585.9576 4712.1931 1580.8562 4713.1105 1574.128 4717.2588 1571.3437 4719.1027 1564.6198 4719.787 1552.3248 4726.0065 1546.2883 4732.9268 1542.3379 4740.0807 1539.3184 4744.4646 1536.9941 4749.0803 Z" fill="none" stroke="#FBC20F" opacity="0.6" stroke-width="1" class="todt_hill"/>
<path d="M 1539.3139 4747.9287 1540.4812 4741.6949 1539.1045 4730.6082 1536.818 4706.1265 1521.0787 4687.1699 1511.8518 4652.5198 1513.2866 4619.2705 1515.6395 4592.9505 1512.9135 4550.9238 1506.4622 4521.8234 1523.4216 4491.8314 1514.6346 4476.3512 1525.808 4439.427 1532.3162 4424.8912 1539.7578 4405.2779 1556.4717 4383.5992 1645.7136 4367.3189 1679.5452 4369.8976 1690.4423 4365.2931 1697.6282 4363.6853 1716.642 4353.7803 1716.4016 4361.6287 1712.2187 4372.0122 1711.044 4386.3235 1724.9252 4407.8083 1706.3767 4415.1751 1695.9509 4412.3931 1688.3049 4410.7684 1679.9599 4412.3749 1675.3187 4417.6793 1674.3728 4434.0693 1643.9814 4460.1216 1633.315 4464.4954 1641.1541 4498.905 1646.7102 4504.4526 1639.0553 4509.7538 1628.8587 4508.3563 1622.8185 4519.8931 1629.0589 4534.6773 1638.5436 4550.1582 1640.8546 4555.9332 1647.5716 4560.0973 1654.525 4560.3363 1658.9258 4563.1122 1660.2992 4577.8911 1643.1404 4582.9507 1645.2187 4589.6492 1646.6034 4594.7307 1651.7033 4594.5058 1675.1181 4591.7623 1676.5052 4594.9965 1676.267 4600.5379 1673.4742 4610.2326 1661.1688 4627.3055 1636.7941 4656.6026 1615.44 4678.9761 1587.3482 4712.4258 1569.4897 4718.6385 1539.3139 4747.9287 Z" fill="none" stroke="#FBC20F" opacity="0.6" stroke-width="1" class="todt_hill"/></svg>