<?xml version="1.0"?><svg xmlns="http://www.w3.org/2000/svg" version="1.2" baseProfile="tiny" width="6000" height="5918" viewBox="0 0 6000 5918" stroke-linecap="round" stroke-linejoin="round"><path d="M 1885.1773 4039.8266 1857.8655 4014.4167 1862.9795 3995.9609 1869.016 3981.6599 1882.93 3965.5204 1897.7586 3961.8421 1919.529 3966.4768 1913.4638 4013.5454 1885.1773 4039.8266 Z" fill="none" stroke="#012394" opacity="0.6" stroke-width="1" class="tompkinsville"/>
<path d="M 1924.6553 3932.585 1974.224 3934.3468 1969.0556 4020.3091 1907.9009 4017.0249 1924.6553 3932.585 Z" fill="none" stroke="#012394" opacity="0.6" stroke-width="1" class="tompkinsville"/>
<path d="M 1836.6029 3963.63 1933.8974 3959.1056 1871.7169 4065.1986 1797.6036 4044.8179 1836.6029 3963.63 Z" fill="none" stroke="#012394" opacity="0.6" stroke-width="1" class="tompkinsville"/>
<path d="M 1954.3004 3937.6641 1944.9648 4018.4192 1904.3855 4061.5366 1883.3156 4048.8248 1850.4303 4037.2551 1825.432 4016.0004 1838.6604 3991.553 1854.2023 3969.4159 1915.1609 3929.5538 1938.548 3938.8042 1954.3004 3937.6641 Z" fill="none" stroke="#012394" opacity="0.6" stroke-width="1" class="tompkinsville"/>
<path d="M 1946.8862 3939.7344 1959.7392 4079.1242 1953.2516 4080.0418 1933.7903 4080.948 1917.1198 4069.8559 1903.2272 4061.5355 1886.5591 4048.597 1886.566 4041.2125 1875.46 4026.4331 1860.6497 4009.8042 1839.3528 3994.092 1845.8516 3981.1761 1860.6948 3962.7304 1882.0155 3952.5977 1909.8341 3928.626 1929.2874 3933.2582 1946.8862 3939.7344 Z" fill="none" stroke="#012394" opacity="0.6" stroke-width="1" class="tompkinsville"/>
<path d="M 1781.1372 3839.9007 1874.6438 3909.2115 1927.3427 4036.6341 1858.2502 3987.1729 1760.8662 4072.9189 1798.5211 4065.5933 1822.5872 4081.0744 1834.3059 4058.4566 1839.9113 4038.6175 1844.9908 4029.5057 1850.6707 4025.1267 1854.2511 4022.0746 1846.252 4029.1052 1781.1372 3839.9007 Z" fill="none" stroke="#012394" opacity="0.6" stroke-width="1" class="tompkinsville"/>
<path d="M 1844.6321 3994.1539 1917.7417 3933.6602 1917.1996 3933.4127 1918.3578 3933.2983 1895.0434 4017.5669 1895.4372 4017.3102 1863.0917 4072.1944 1818.579 4035.0315 1827.6144 4021.3327 1827.5707 4020.5794 1844.6321 3994.1539 Z" fill="none" stroke="#012394" opacity="0.6" stroke-width="1" class="tompkinsville"/>
<path d="M 1392.3928 4225.2559 1844.979 3925.7962 1772.362 4256.1988 1392.3928 4225.2559 Z" fill="none" stroke="#012394" opacity="0.6" stroke-width="1" class="tompkinsville"/>
<path d="M 1881.1042 3936.214 1904.7352 3931.8517 1911.2221 3930.7039 1915.624 3929.7849 1923.9608 3932.0998 1931.8332 3935.7986 1940.6346 3936.7293 1951.984 3937.6621 1981.4049 3934.2258 2003.4046 3941.3968 2004.0952 3946.7045 1980.1953 3996.0655 1975.0818 4016.5988 1946.2379 4019.5742 1934.0798 4015.1791 1911.733 4006.1595 1908.3654 4015.733 1897.9282 4029.4539 1886.5645 4042.8278 1880.085 4035.2065 1848.8485 3996.1781 1841.6712 3992.2483 1828.9397 3982.7748 1816.4268 3986.6851 1812.7174 3989.6812 1796.9888 3966.59 1805.8048 3953.2157 1813.2318 3938.917 1822.9629 3936.6193 1835.8053 3950.2459 1880.2881 3941.9818 1881.1042 3936.214 Z" fill="none" stroke="#012394" opacity="0.6" stroke-width="1" class="tompkinsville"/>
<path d="M 1931.1544 3917.5696 1972.8436 3923.1432 1973.6758 4035.751 1945.8605 4054.1888 1831.8762 4058.6985 1797.6499 3999.5884 1817.1597 3948.8429 1931.1544 3917.5696 Z" fill="none" stroke="#012394" opacity="0.6" stroke-width="1" class="tompkinsville"/>
<path d="M 1832.1395 3791.9642 1834.9251 3785.5072 1963.4436 4081.8967 1867.9374 4141.8148 1655.082 3888.6747 1832.1395 3791.9642 Z" fill="none" stroke="#012394" opacity="0.6" stroke-width="1" class="tompkinsville"/>
<path d="M 1973.9923 3934.4504 2006.8793 3941.1689 1978.3166 4026.755 1945.7747 4019.4584 1911.8487 4006.3904 1906.057 4006.7313 1897.6995 4026.223 1882.7555 4028.4014 1867.8305 4010.3879 1864.1202 4014.4227 1849.6177 4039.1005 1824.39 4015.5378 1819.6327 4023.8405 1793.5876 4007.7762 1787.6907 3997.8475 1786.4268 3987.9237 1776.3522 3985.8364 1774.1692 3968.9893 1775.2167 3964.1446 1804.1954 3941.3307 1822.963 3936.504 1825.7396 3939.5064 1836.1526 3950.477 1880.4039 3941.9819 1881.1044 3936.0987 1914.002 3930.3603 1918.7512 3929.6724 1924.54 3931.9849 1935.0756 3936.3783 1952.4475 3937.4318 1960.0921 3936.7461 1973.9923 3934.4504 Z" fill="none" stroke="#012394" opacity="0.6" stroke-width="1" class="tompkinsville"/></svg>