<?xml version="1.0"?><svg xmlns="http://www.w3.org/2000/svg" version="1.2" baseProfile="tiny" width="6000" height="5918" viewBox="0 0 6000 5918" stroke-linecap="round" stroke-linejoin="round"><path d="M 295.6651 5844.2485 294.4955 5847.7135 285.6628 5852.5458 269.4117 5853.8904 257.3305 5858.2514 251.9933 5857.7749 234.5747 5861.6591 216.2045 5874.0952 200.6348 5880.7584 191.5774 5882.5835 168.3083 5903.5608 145.53 5914.5967 122.9942 5921.7021 96.7408 5929.9526 88.857 5926.9244 73.7893 5919.7138 56.1849 5906.7152 32.3446 5883.0625 24.7444 5862.4626 15.0636 5839.0826 13.9769 5813.6473 6.6205 5789.3505 9.456 5772.0194 19.4786 5757.2526 27.1822 5741.7857 31.3936 5730.0077 36.3005 5718.463 39.3487 5707.6066 50.0578 5695.8477 53.5494 5692.1589 61.685 5687.5588 82.8377 5675.3672 90.0362 5673.7694 111.1792 5664.8135 123.2354 5668.777 134.625 5662.105 148.7985 5655.6717 164.6305 5636.7604 166.7583 5622.4347 169.7813 5620.1315 175.102 5626.156 182.2862 5629.6429 188.5314 5637.0569 198.9494 5646.1003 207.7526 5651.6719 215.8572 5658.1662 225.8165 5665.3589 230.2028 5673.9237 239.0452 5664.932 249.0502 5655.0187 250.9024 5656.6417 254.1242 5666.8214 256.8637 5683.9348 258.2151 5699.4266 261.8958 5711.6885 267.1841 5730.4276 269.7095 5740.8373 275.4775 5753.7987 277.9782 5773.6872 280.7372 5783.6356 285.1106 5797.5186 287.1746 5807.003 289.9247 5820.4197 291.9792 5833.6035 295.6651 5844.2485 Z" fill="none" stroke="#FBC20F" opacity="0.6" stroke-width="1" class="tottenville"/>
<path d="M 1 5790.0671 1 5782.4444 1 5781.4041 1 5781.3159 1 5780.9081 1 5780.2789 1 5779.8742 1 5779.5392 1 5779.5264 1 5778.0544 1 5778.0353 1 5777.6293 1 5776.8853 27.9345 5722.3689 94.0367 5654.1319 154.4712 5618.2402 164.7042 5609.947 249.9257 5674.9009 292.1703 5849.3259 158.7673 5912.321 38.1535 5880.9983 1 5790.0671 Z" fill="none" stroke="#FBC20F" opacity="0.6" stroke-width="1" class="tottenville"/>
<path d="M 295.4246 5847.4848 170.8161 5920.2156 90.7688 5941.2404 90.5491 5941.2404 90.2878 5941.2404 89.0874 5941.2404 87.031 5941.2404 86.2481 5941.2404 86.2047 5941.2404 47.3717 5904.1465 17.765 5867.9915 1 5781.4041 1 5781.3159 1 5780.9081 1 5780.2789 1 5779.8742 1 5779.5392 1 5779.5264 1 5778.0544 1 5778.0353 1 5777.6293 1 5776.8853 1 5776.7926 27.4931 5714.5076 160.4243 5647.382 186.4474 5635.4331 247.195 5654.5514 276.1124 5777.1502 295.4246 5847.4848 Z" fill="none" stroke="#FBC20F" opacity="0.6" stroke-width="1" class="tottenville"/>
<path d="M 170.8161 5920.2156 123.1115 5941.2404 122.482 5941.2404 115.7279 5941.2404 109.632 5941.2404 108.7415 5941.2404 108.2697 5941.2404 103.2432 5941.2404 102.6638 5941.2404 98.9188 5941.2404 98.5283 5941.2404 96.3627 5941.2404 96.358 5941.2404 95.6737 5941.2404 95.4741 5941.2404 92.7716 5941.2404 90.7688 5941.2404 90.5491 5941.2404 90.2878 5941.2404 89.0874 5941.2404 87.031 5941.2404 86.2481 5941.2404 86.2047 5941.2404 86.1356 5941.2404 85.0131 5941.2404 83.685 5941.2404 82.3144 5941.2404 81.6208 5941.2404 80.7238 5941.2404 80.6824 5941.2404 80.6606 5941.2404 80.1584 5941.2404 79.3757 5941.2404 79.3479 5941.2404 77.0272 5941.2404 73.9857 5941.2404 55.6565 5929.1423 11.2847 5861.4987 5.0497 5770.8507 47.0668 5686.8235 156.7242 5642.7487 171.72 5590.0876 216.2597 5594.8314 243.9499 5653.1558 266.0176 5732.7363 287.9827 5853.0143 200.5103 5926.7708 170.8161 5920.2156 Z" fill="none" stroke="#FBC20F" opacity="0.6" stroke-width="1" class="tottenville"/>
<path d="M 1 5884.0683 1 5880.1385 1 5866.0838 1 5857.6677 1 5851.7413 1 5851.0918 1 5847.8699 1 5841.5918 1 5831.4573 1 5820.8703 1 5817.8378 1 5807.7424 1 5801.97 1 5799.0726 1 5797.0473 1 5792.2142 1 5790.0671 1 5782.4444 1 5781.4041 1 5781.3159 1 5780.9081 1 5780.2789 1 5779.8742 1 5779.5392 1 5779.5264 1 5778.0544 1 5778.0353 1 5777.6293 1 5776.8853 1 5776.7926 1 5775.8491 1 5775.1736 1 5773.1127 1 5771.1911 1 5769.9058 1 5769.3668 1 5768.5205 1 5768.0767 1 5765.0125 1 5757.9085 1 5757.1143 1 5757.0046 1.0632 5756.2632 58.8999 5658.4131 141.8153 5560.1771 191.9248 5564.0128 324.168 5884.5123 84.5121 5940.8727 1 5884.0683 Z" fill="none" stroke="#FBC20F" opacity="0.6" stroke-width="1" class="tottenville"/>
<path d="M 223.0026 5589.7644 230.7615 5638.5577 246.7302 5654.7814 253.3956 5679.0711 276.8074 5777.6144 224.5318 5798.2829 188.5297 5808.3582 40.3402 5847.0167 12.935 5852.7176 1 5779.8742 1 5779.5392 1 5779.5264 1 5778.0544 1 5778.0353 1 5777.6293 1 5776.8853 1 5776.7926 1 5775.8491 1 5775.1736 1 5773.1127 1 5771.1911 1 5769.9058 1 5769.3668 29.5911 5711.2773 61.0528 5665.134 175.9107 5585.014 223.0026 5589.7644 Z" fill="none" stroke="#FBC20F" opacity="0.6" stroke-width="1" class="tottenville"/>
<path d="M 219.9053 5619.8052 308.4368 5841.9697 69.5551 5939.356 33.9245 5737.6439 41.4095 5717.3218 40.5477 5694.2022 219.9053 5619.8052 Z" fill="none" stroke="#FBC20F" opacity="0.6" stroke-width="1" class="tottenville"/>
<path d="M 301.1136 5855.8304 95.3974 5932.5321 16.8528 5801.9044 96.1478 5666.198 174.6243 5583.2908 219.1537 5591.7327 250.5446 5654.6898 301.1136 5855.8304 Z" fill="none" stroke="#FBC20F" opacity="0.6" stroke-width="1" class="tottenville"/>
<path d="M 281.6922 5773.4658 302.8495 5848.4289 86.3285 5918.1307 6.8849 5778.2541 43.3139 5700.6829 117.7131 5651.8868 160.4447 5639.9851 172.5874 5612.2801 181.9374 5587.3418 221.8387 5591.1481 249.5168 5654.0953 281.6922 5773.4658 Z" fill="none" stroke="#FBC20F" opacity="0.6" stroke-width="1" class="tottenville"/>
<path d="M 51.9041 5618.4143 216.7462 5586.5116 300.5357 5845.6484 95.1309 5924.6299 15.2629 5770.418 69.8711 5665.1592 84.7884 5642.0856 51.9041 5618.4143 Z" fill="none" stroke="#FBC20F" opacity="0.6" stroke-width="1" class="tottenville"/>
<path d="M 41.4839 5691.4308 44.3139 5675.7196 101.9488 5646.2948 139.1213 5630.68 170.7741 5596.5571 147.5646 5598.3424 141.1878 5554.8703 134.8911 5482.7413 172.9265 5488.3931 227.6579 5497.7861 217.3097 5549.5309 221.784 5611.4889 253.2027 5664.2761 268.7197 5764.1842 300.033 5860.4444 254.5005 5875.1223 198.736 5896.2447 171.737 5922.9928 138.306 5924.7505 101.1219 5940.3702 71.4095 5940.2861 52.0008 5908.7842 27.0067 5882.8158 4.8234 5848.5323 2.1325 5816.1561 1.3094 5780.0873 27.3995 5746.8723 28.4187 5715.435 41.4839 5691.4308 Z" fill="none" stroke="#FBC20F" opacity="0.6" stroke-width="1" class="tottenville"/>
<path d="M 247.6603 5654.0904 257.9757 5702.2 263.0232 5724.1749 264.186 5723.2532 264.4236 5721.1733 298.196 5852.8097 236.1673 5873.6863 185.2574 5901.9886 171.7389 5922.2992 147.8314 5921.771 98.9188 5941.2404 98.5283 5941.2404 69.7965 5936.1195 52.68 5914.7979 48.5402 5901.3752 27.9224 5887.2116 2.5664 5826.5613 1 5782.4444 1 5781.4041 1 5781.3159 1 5780.9081 1 5780.2789 1 5779.8742 1 5779.5392 1 5779.5264 1 5778.0544 25.0734 5748.715 26.7975 5714.2744 40.9965 5699.5204 39.626 5691.8878 62.1946 5671.6099 61.7417 5667.6788 83.1254 5655.7192 160.7466 5614.5591 166.5954 5597.2391 177.7695 5584.0945 222.0775 5588.6062 231.2207 5640.4082 247.6603 5654.0904 Z" fill="none" stroke="#FBC20F" opacity="0.6" stroke-width="1" class="tottenville"/>
<path d="M 247.6628 5653.1657 306.2469 5612.6365 357.2622 5626.6366 405.6026 5597.1712 431.7214 5544.5363 586.7862 5515.3211 635.7654 5608.8117 488.8407 5721.2768 275.1889 5775.2982 247.6628 5653.1657 Z" fill="none" stroke="#FBC20F" opacity="0.6" stroke-width="1" class="tottenville"/>
<path d="M 277.1039 5753.1094 300.0426 5856.7451 264.7427 5864.0513 84.4349 5931.074 30.8139 5850.4573 21.7493 5774.5982 54.4109 5715.5097 90.7552 5665.6807 121.426 5651.8972 163.3335 5602.0842 162.4307 5592.8359 180.0761 5589.1859 208.8443 5591.1131 229.269 5589.3189 231.056 5615.2121 243.0462 5643.9071 260.636 5661.5219 254.082 5682.7716 273.4587 5727.2077 277.1039 5753.1094 Z" fill="none" stroke="#FBC20F" opacity="0.6" stroke-width="1" class="tottenville"/>
<path d="M 297.0224 5850.2266 177.5059 5922.9042 80.2232 5923.1727 6.3826 5772.214 40.4663 5710.8546 124.1488 5662.0842 179.9629 5528.7173 227.3776 5540.8126 297.0224 5850.2266 Z" fill="none" stroke="#FBC20F" opacity="0.6" stroke-width="1" class="tottenville"/>
<path d="M 109.632 5941.2404 108.7415 5941.2404 108.2697 5941.2404 103.2432 5941.2404 102.6638 5941.2404 98.9188 5941.2404 98.5283 5941.2404 96.3627 5941.2404 96.358 5941.2404 95.6737 5941.2404 95.4741 5941.2404 92.7716 5941.2404 90.7688 5941.2404 90.5491 5941.2404 90.2878 5941.2404 89.0874 5941.2404 87.031 5941.2404 86.2481 5941.2404 86.2047 5941.2404 86.1356 5941.2404 85.0131 5941.2404 83.685 5941.2404 82.3144 5941.2404 81.6208 5941.2404 80.7238 5941.2404 80.6824 5941.2404 29.069 5883.3693 8.0391 5775.6339 94.2624 5639.2774 148.3605 5582.0517 230.8534 5588.9681 276.1584 5773.4041 305.4517 5854.5867 172.29 5922.4348 109.632 5941.2404 Z" fill="none" stroke="#FBC20F" opacity="0.6" stroke-width="1" class="tottenville"/>
<path d="M 175.2495 5941.2404 158.5447 5941.2404 148.6911 5941.2404 141.8009 5941.2404 135.2183 5941.2404 129.4262 5941.2404 126.8882 5941.2404 123.1115 5941.2404 122.482 5941.2404 115.7279 5941.2404 109.632 5941.2404 108.7415 5941.2404 108.2697 5941.2404 103.2432 5941.2404 102.6638 5941.2404 98.9188 5941.2404 98.5283 5941.2404 96.3627 5941.2404 96.358 5941.2404 95.6737 5941.2404 95.4741 5941.2404 92.7716 5941.2404 90.7688 5941.2404 90.5491 5941.2404 90.2878 5941.2404 89.0874 5941.2404 87.031 5941.2404 86.2481 5941.2404 86.2047 5941.2404 86.1356 5941.2404 85.0131 5941.2404 83.685 5941.2404 82.3144 5941.2404 81.6208 5941.2404 80.7238 5941.2404 80.6824 5941.2404 80.6606 5941.2404 80.1584 5941.2404 79.3757 5941.2404 79.3479 5941.2404 77.0272 5941.2404 73.9857 5941.2404 71.6885 5941.2404 70.1016 5941.2404 69.9081 5941.2404 61.603 5941.2404 57.7939 5941.2404 56.2753 5941.2404 52.2356 5941.2404 21.3502 5912.3955 1 5866.0838 1 5857.6677 1 5851.7413 1 5851.0918 1 5847.8699 1 5841.5918 1 5831.4573 1 5820.8703 1 5817.8378 1 5807.7424 1 5801.97 1 5799.0726 1 5797.0473 1 5792.2142 1 5790.0671 1 5782.4444 1 5781.4041 1 5781.3159 1 5780.9081 1 5780.2789 1 5779.8742 1 5779.5392 1 5779.5264 1 5778.0544 1 5778.0353 1 5777.6293 1 5776.8853 1 5776.7926 1 5775.8491 1 5775.1736 1 5773.1127 1 5771.1911 1 5769.9058 1 5769.3668 1 5768.5205 1 5768.0767 1 5765.0125 1 5757.9085 1 5757.1143 1 5757.0046 1 5754.725 1.3984 5749.571 63.91 5639.7147 157.7844 5594.7878 159.8804 5592.0199 164.1847 5587.8711 177.1796 5587.6756 190.4022 5589.0985 205.1341 5590.1785 224.2726 5592.0792 229.941 5598.3353 235.8217 5611.9888 246.4777 5618.8361 263.9822 5624.6612 277.9706 5643.9995 276.9817 5667.1128 279.2574 5684.225 283.0189 5710.0102 286.4513 5728.6288 285.1331 5744.5767 295.4637 5743.4478 302.7556 5750.6334 305.0467 5762.083 277.9852 5771.0286 280.9644 5785.4857 283.0341 5792.7737 285.3284 5802.9523 288.4227 5817.8726 292.3222 5835.5696 293.1144 5843.317 296.6813 5855.1179 297.7309 5853.1553 294.8425 5848.1769 295.3016 5850.1433 296.8057 5851.8813 178.1884 5940.5837 175.2495 5941.2404 Z" fill="none" stroke="#FBC20F" opacity="0.6" stroke-width="1" class="tottenville"/>
<path d="M 162.5301 5685.3743 226.425 5611.5013 248.564 5663.3392 278.088 5731.8434 305.6348 5848.4361 250.8864 5863.5966 170.191 5910.1225 90.2697 5935.3349 23.4782 5869.1363 48.0183 5715.7785 193.6389 5612.9671 183.4011 5623.1099 162.5301 5685.3743 Z" fill="none" stroke="#FBC20F" opacity="0.6" stroke-width="1" class="tottenville"/>
<path d="M 270.5277 5782.684 33.5965 5851.3902 35.9303 5685.8668 224.5413 5621.6669 240.3232 5620.7845 270.5277 5782.684 Z" fill="none" stroke="#FBC20F" opacity="0.6" stroke-width="1" class="tottenville"/>
<path d="M 1 5769.9058 31.6717 5714.0573 55.9593 5660.9586 91.7774 5632.3968 139.3264 5556.7142 170.4531 5544.3188 232.6585 5536.6287 265.8279 5628.7113 272.2001 5676.3468 279.975 5720.2895 282.6896 5747.1133 309.1288 5754.1177 285.4443 5758.6797 305.1694 5848.8973 248.9912 5851.9867 85.0131 5941.2404 83.685 5941.2404 82.3144 5941.2404 81.6208 5941.2404 80.7238 5941.2404 1 5775.8491 1 5775.1736 1 5773.1127 1 5771.1911 1 5769.9058 Z" fill="none" stroke="#FBC20F" opacity="0.6" stroke-width="1" class="tottenville"/>
<path d="M 108.7415 5941.2404 108.2697 5941.2404 103.2432 5941.2404 102.6638 5941.2404 98.9188 5941.2404 98.5283 5941.2404 96.3627 5941.2404 96.358 5941.2404 95.6737 5941.2404 95.4741 5941.2404 92.7716 5941.2404 90.7688 5941.2404 90.5491 5941.2404 90.2878 5941.2404 89.0874 5941.2404 87.031 5941.2404 86.2481 5941.2404 41.8008 5904.1305 11.2955 5857.7994 5.9188 5791.1979 14.403 5746.8346 45.1572 5705.3116 72.1299 5686.8951 156.7114 5647.3718 181.94 5586.4173 222.7544 5595.7735 238.452 5626.3271 254.1481 5657.8061 263.2254 5735.5031 295.4197 5849.3344 285.3088 5810.4661 277.048 5774.3784 299.6037 5847.0332 295.4089 5853.4961 275.8815 5865.0054 197.7925 5901.7914 171.7344 5923.9177 108.7415 5941.2404 Z" fill="none" stroke="#FBC20F" opacity="0.6" stroke-width="1" class="tottenville"/>
<path d="M 108.2697 5941.2404 103.2432 5941.2404 102.6638 5941.2404 98.9188 5941.2404 98.5283 5941.2404 96.3627 5941.2404 96.358 5941.2404 95.6737 5941.2404 95.4741 5941.2404 92.7716 5941.2404 90.7688 5941.2404 90.5491 5941.2404 90.2878 5941.2404 89.0874 5941.2404 87.031 5941.2404 86.2481 5941.2404 86.2047 5941.2404 86.1356 5941.2404 85.0131 5941.2404 83.685 5941.2404 68.6306 5937.966 48.7352 5914.3241 48.7723 5901.3759 24.2146 5885.1199 2.0948 5829.1032 1 5801.97 1 5799.0726 1 5797.0473 1 5792.2142 1 5790.0671 1 5782.4444 1 5781.4041 1 5781.3159 1 5780.9081 1 5780.2789 1 5779.8742 1 5779.5392 1 5779.5264 1 5778.0544 1 5778.0353 1 5777.6293 1 5776.8853 1 5776.7926 1 5775.8491 1 5775.1736 1 5773.1127 38.235 5691.4215 157.7351 5612.7016 227.7838 5623.9871 245.3459 5651.7726 295.8864 5848.4108 168.9591 5920.2106 108.2697 5941.2404 Z" fill="none" stroke="#FBC20F" opacity="0.6" stroke-width="1" class="tottenville"/>
<path d="M 129.4262 5941.2404 126.8882 5941.2404 123.1115 5941.2404 122.482 5941.2404 115.7279 5941.2404 109.632 5941.2404 108.7415 5941.2404 108.2697 5941.2404 103.2432 5941.2404 102.6638 5941.2404 98.9188 5941.2404 98.5283 5941.2404 96.3627 5941.2404 96.358 5941.2404 95.6737 5941.2404 95.4741 5941.2404 92.7716 5941.2404 90.7688 5941.2404 90.5491 5941.2404 90.2878 5941.2404 89.0874 5941.2404 87.031 5941.2404 86.2481 5941.2404 86.2047 5941.2404 86.1356 5941.2404 85.0131 5941.2404 83.685 5941.2404 82.3144 5941.2404 81.6208 5941.2404 80.7238 5941.2404 80.6824 5941.2404 80.6606 5941.2404 80.1584 5941.2404 79.3757 5941.2404 79.3479 5941.2404 77.0272 5941.2404 73.9857 5941.2404 71.6885 5941.2404 70.1016 5941.2404 1 5851.0918 1 5847.8699 1 5841.5918 1 5831.4573 1 5820.8703 1 5817.8378 1 5807.7424 1 5801.97 1 5799.0726 1 5797.0473 1 5792.2142 1 5790.0671 1 5782.4444 1 5781.4041 1 5781.3159 1 5780.9081 1 5780.2789 1 5779.8742 1 5779.5392 1 5779.5264 1 5778.0544 1 5778.0353 1 5777.6293 1 5776.8853 1 5776.7926 1 5775.8491 1 5775.1736 1 5773.1127 1 5771.1911 1 5769.9058 1 5769.3668 1 5768.5205 1 5768.0767 1 5765.0125 1 5757.9085 8.9515 5706.1316 145.7543 5581.695 222.7743 5588.3769 222.747 5598.5472 233.7764 5639.2593 245.7989 5655.9347 299.1262 5852.1185 129.4262 5941.2404 Z" fill="none" stroke="#FBC20F" opacity="0.6" stroke-width="1" class="tottenville"/>
<path d="M 126.8882 5941.2404 123.1115 5941.2404 122.482 5941.2404 115.7279 5941.2404 109.632 5941.2404 108.7415 5941.2404 108.2697 5941.2404 103.2432 5941.2404 102.6638 5941.2404 98.9188 5941.2404 98.5283 5941.2404 96.3627 5941.2404 96.358 5941.2404 95.6737 5941.2404 95.4741 5941.2404 92.7716 5941.2404 90.7688 5941.2404 90.5491 5941.2404 90.2878 5941.2404 89.0874 5941.2404 87.031 5941.2404 86.2481 5941.2404 86.2047 5941.2404 86.1356 5941.2404 85.0131 5941.2404 83.685 5941.2404 82.3144 5941.2404 81.6208 5941.2404 80.7238 5941.2404 80.6824 5941.2404 80.6606 5941.2404 80.1584 5941.2404 79.3757 5941.2404 79.3479 5941.2404 1 5741.3916 1 5727.0566 1 5718.3306 170.7969 5588.236 246.2618 5656.3982 290.7825 5847.4726 126.8882 5941.2404 Z" fill="none" stroke="#FBC20F" opacity="0.6" stroke-width="1" class="tottenville"/>
<path d="M 301.9355 5842.8776 171.7851 5905.4201 86.3991 5893.1591 23.6006 5776.4531 102.5859 5749.8608 263.4085 5666.1524 301.9355 5842.8776 Z" fill="none" stroke="#FBC20F" opacity="0.6" stroke-width="1" class="tottenville"/>
<path d="M 1 5792.2142 1 5790.0671 1 5782.4444 1 5781.4041 1 5781.3159 1 5780.9081 1 5780.2789 1 5779.8742 1 5779.5392 1 5779.5264 1 5778.0544 1 5778.0353 1 5777.6293 18.0895 5756.0927 33.0762 5709.9003 61.9823 5664.6744 112.1514 5649.0973 159.5622 5623.3396 175.6793 5584.7822 178.8391 5532.3229 217.8235 5531.0418 226.6338 5533.6079 227.5427 5540.7754 222.2953 5593.9231 232.8395 5642.493 248.5701 5661.0276 276.1014 5781.3116 295.8731 5853.4973 272.1812 5859.9091 248.4668 5874.6439 220.1318 5881.0422 189.4412 5899.919 175.9341 5916.0676 154.093 5923.8693 130.4189 5922.8789 112.2887 5931.6148 95.6737 5941.2404 95.4741 5941.2404 92.7716 5941.2404 90.7688 5941.2404 90.5491 5941.2404 90.2878 5941.2404 89.0874 5941.2404 74.2069 5936.132 48.722 5918.9486 43.6671 5900.8988 24.6976 5878.6473 13.1228 5867.978 2.0597 5841.1256 6.7933 5809.6961 1 5792.2142 Z" fill="none" stroke="#FBC20F" opacity="0.6" stroke-width="1" class="tottenville"/>
<path d="M 38.6778 5698.8202 162.324 5631.6687 222.6725 5626.2849 257.8537 5660.5899 280.7493 5779.0119 290.7849 5846.5478 168.0382 5917.4333 132.7993 5901.6131 66.9487 5876.4564 38.2333 5853.2532 4.1187 5771.7727 38.6778 5698.8202 Z" fill="none" stroke="#FBC20F" opacity="0.6" stroke-width="1" class="tottenville"/>
<path d="M 159.5071 5646.76 173.9071 5584.5462 220.919 5591.4508 247.3401 5659.3322 296.9734 5848.1084 86.3805 5903.0275 6.2668 5780.1018 55.9717 5711.8154 159.5071 5646.76 Z" fill="none" stroke="#FBC20F" opacity="0.6" stroke-width="1" class="tottenville"/>
<path d="M 1 5750.5098 185.5947 5607.6926 321.4227 5846.6273 158.5447 5941.2404 148.6911 5941.2404 141.8009 5941.2404 135.2183 5941.2404 129.4262 5941.2404 126.8882 5941.2404 123.1115 5941.2404 122.482 5941.2404 115.7279 5941.2404 109.632 5941.2404 108.7415 5941.2404 108.2697 5941.2404 103.2432 5941.2404 102.6638 5941.2404 98.9188 5941.2404 98.5283 5941.2404 96.3627 5941.2404 96.358 5941.2404 95.6737 5941.2404 95.4741 5941.2404 92.7716 5941.2404 90.7688 5941.2404 90.5491 5941.2404 90.2878 5941.2404 89.0874 5941.2404 87.031 5941.2404 86.2481 5941.2404 86.2047 5941.2404 86.1356 5941.2404 85.0131 5941.2404 83.685 5941.2404 82.3144 5941.2404 81.6208 5941.2404 80.7238 5941.2404 80.6824 5941.2404 80.6606 5941.2404 80.1584 5941.2404 79.3757 5941.2404 79.3479 5941.2404 77.0272 5941.2404 73.9857 5941.2404 71.6885 5941.2404 70.1016 5941.2404 69.9081 5941.2404 61.603 5941.2404 57.7939 5941.2404 56.2753 5941.2404 52.2356 5941.2404 42.5708 5941.2404 33.6282 5941.2404 1 5841.5918 1 5831.4573 1 5820.8703 1 5817.8378 1 5807.7424 1 5801.97 1 5799.0726 1 5797.0473 1 5792.2142 1 5790.0671 1 5782.4444 1 5781.4041 1 5781.3159 1 5780.9081 1 5780.2789 1 5779.8742 1 5779.5392 1 5779.5264 1 5778.0544 1 5778.0353 1 5777.6293 1 5776.8853 1 5776.7926 1 5775.8491 1 5775.1736 1 5773.1127 1 5771.1911 1 5769.9058 1 5769.3668 1 5768.5205 1 5768.0767 1 5765.0125 1 5757.9085 1 5757.1143 1 5757.0046 1 5754.725 1 5750.5098 Z" fill="none" stroke="#FBC20F" opacity="0.6" stroke-width="1" class="tottenville"/>
<path d="M 90.2878 5941.2404 89.0874 5941.2404 87.031 5941.2404 86.2481 5941.2404 86.2047 5941.2404 86.1356 5941.2404 85.0131 5941.2404 83.685 5941.2404 82.3144 5941.2404 81.6208 5941.2404 80.7238 5941.2404 80.6824 5941.2404 80.6606 5941.2404 80.1584 5941.2404 79.3757 5941.2404 79.3479 5941.2404 77.0272 5941.2404 37.2277 5880.0708 3.1445 5787.4908 61.099 5648.953 178.6851 5588.7198 222.7718 5589.3015 247.6554 5655.9396 294.4865 5851.1816 177.3155 5920.2334 90.2878 5941.2404 Z" fill="none" stroke="#FBC20F" opacity="0.6" stroke-width="1" class="tottenville"/>
<path d="M 1 5797.0473 1 5792.2142 1 5790.0671 1 5782.4444 1 5781.4041 1 5781.3159 1 5780.9081 1 5780.2789 1 5779.8742 1 5779.5392 1 5779.5264 1 5778.0544 1 5778.0353 1 5777.6293 1 5776.8853 1 5776.7926 1 5775.8491 1 5775.1736 1 5773.1127 1 5771.1911 1 5769.9058 1 5769.3668 1 5768.5205 1 5768.0767 20.9642 5725.1228 48.9498 5677.5823 149.8174 5622.8504 227.3173 5624.9104 231.9175 5640.1789 247.6579 5655.015 298.6584 5853.5046 175.0006 5917.9149 92.3389 5926.9342 49.2021 5913.4006 12.6828 5859.6531 1 5797.0473 Z" fill="none" stroke="#FBC20F" opacity="0.6" stroke-width="1" class="tottenville"/>
<path d="M 246.9408 5657.1887 294.2148 5849.4543 63.595 5912.9793 10.0815 5777.8546 246.9408 5657.1887 Z" fill="none" stroke="#FBC20F" opacity="0.6" stroke-width="1" class="tottenville"/>
<path d="M 96.358 5941.2404 95.6737 5941.2404 95.4741 5941.2404 92.7716 5941.2404 90.7688 5941.2404 90.5491 5941.2404 90.2878 5941.2404 89.0874 5941.2404 87.031 5941.2404 86.2481 5941.2404 86.2047 5941.2404 86.1356 5941.2404 1 5780.9081 1 5780.2789 1 5779.8742 1 5779.5392 1 5779.5264 1 5778.0544 1 5778.0353 1 5777.6293 1 5776.8853 1 5776.7926 1 5775.8491 1 5775.1736 1 5773.1127 1 5771.1911 164.2388 5610.408 246.7223 5657.7864 298.2026 5850.2665 96.358 5941.2404 Z" fill="none" stroke="#FBC20F" opacity="0.6" stroke-width="1" class="tottenville"/>
<path d="M 223.0026 5589.7644 231.4558 5639.2531 246.9374 5654.805 269.8718 5751.3057 295.8277 5854.718 274.2689 5857.5525 259.9881 5862.0501 242.9414 5870.1668 225.7504 5875.67 210.0933 5882.9153 195.7142 5893.8666 179.9992 5908.2135 166.9637 5921.5887 144.2117 5922.9134 128.4299 5921.9447 109.1997 5928.3958 92.7716 5941.2404 90.7688 5941.2404 90.5491 5941.2404 90.2878 5941.2404 89.0874 5941.2404 87.031 5941.2404 66.916 5936.8512 55.3559 5920.6324 44.2711 5900.7155 24.573 5880.6141 6.9817 5839.3976 4.7969 5813.3394 1.2339 5780.1749 9.6349 5764.4786 23.6188 5744.175 22.9847 5717.2779 34.1941 5705.9365 37.4439 5692.1275 98.8398 5646.0697 158.6767 5607.8344 156.8687 5590.2623 175.6104 5584.5989 223.0026 5589.7644 Z" fill="none" stroke="#FBC20F" opacity="0.6" stroke-width="1" class="tottenville"/>
<path d="M 91.3383 5834.6908 212.1436 5793.4084 254.6574 5865.6569 136.5738 5927.3031 91.3383 5834.6908 Z" fill="none" stroke="#FBC20F" opacity="0.6" stroke-width="1" class="tottenville"/>
<path d="M 141.8009 5941.2404 135.2183 5941.2404 129.4262 5941.2404 126.8882 5941.2404 123.1115 5941.2404 122.482 5941.2404 115.7279 5941.2404 109.632 5941.2404 108.7415 5941.2404 108.2697 5941.2404 103.2432 5941.2404 102.6638 5941.2404 98.9188 5941.2404 98.5283 5941.2404 96.3627 5941.2404 96.358 5941.2404 95.6737 5941.2404 95.4741 5941.2404 92.7716 5941.2404 90.7688 5941.2404 90.5491 5941.2404 90.2878 5941.2404 89.0874 5941.2404 87.031 5941.2404 86.2481 5941.2404 86.2047 5941.2404 86.1356 5941.2404 85.0131 5941.2404 83.685 5941.2404 82.3144 5941.2404 81.6208 5941.2404 80.7238 5941.2404 80.6824 5941.2404 80.6606 5941.2404 80.1584 5941.2404 79.3757 5941.2404 79.3479 5941.2404 77.0272 5941.2404 73.9857 5941.2404 71.6885 5941.2404 70.1016 5941.2404 69.9081 5941.2404 61.603 5941.2404 13.0127 5905.8971 1 5880.1385 1 5866.0838 1 5857.6677 1 5851.7413 1 5851.0918 1 5847.8699 1 5841.5918 1 5831.4573 1 5820.8703 1 5817.8378 1 5807.7424 1 5801.97 1 5799.0726 1 5797.0473 1 5792.2142 1 5790.0671 1 5782.4444 1 5781.4041 1 5781.3159 1 5780.9081 1 5780.2789 1 5779.8742 1 5779.5392 1 5779.5264 1 5778.0544 1 5778.0353 1 5777.6293 1 5776.8853 1 5776.7926 1 5775.8491 1 5775.1736 1 5773.1127 1 5771.1911 1 5769.9058 1 5769.3668 1 5768.5205 1 5768.0767 1 5765.0125 1 5757.9085 1 5757.1143 1 5757.0046 1 5754.725 1 5750.5098 1 5741.3916 1 5727.0566 1 5718.3306 1 5715.1902 5.2518 5701.4974 53.652 5656.3288 88.9771 5637.9366 131.7316 5617.715 155.8825 5611.3096 235.6106 5647.5858 296.9278 5849.5695 297.6148 5853.155 192.204 5908.2504 141.8009 5941.2404 Z" fill="none" stroke="#FBC20F" opacity="0.6" stroke-width="1" class="tottenville"/>
<path d="M 175.2495 5941.2404 158.5447 5941.2404 148.6911 5941.2404 141.8009 5941.2404 135.2183 5941.2404 129.4262 5941.2404 126.8882 5941.2404 123.1115 5941.2404 122.482 5941.2404 115.7279 5941.2404 109.632 5941.2404 108.7415 5941.2404 108.2697 5941.2404 103.2432 5941.2404 102.6638 5941.2404 98.9188 5941.2404 98.5283 5941.2404 96.3627 5941.2404 96.358 5941.2404 95.6737 5941.2404 95.4741 5941.2404 92.7716 5941.2404 90.7688 5941.2404 90.5491 5941.2404 90.2878 5941.2404 89.0874 5941.2404 87.031 5941.2404 86.2481 5941.2404 86.2047 5941.2404 86.1356 5941.2404 85.0131 5941.2404 83.685 5941.2404 82.3144 5941.2404 81.6208 5941.2404 80.7238 5941.2404 80.6824 5941.2404 80.6606 5941.2404 80.1584 5941.2404 79.3757 5941.2404 79.3479 5941.2404 77.0272 5941.2404 73.9857 5941.2404 71.6885 5941.2404 70.1016 5941.2404 69.9081 5941.2404 61.603 5941.2404 57.7939 5941.2404 56.2753 5941.2404 1 5888.097 1 5884.0683 1 5880.1385 1 5866.0838 1 5857.6677 1 5851.7413 1 5851.0918 1 5847.8699 1 5841.5918 1 5831.4573 1 5820.8703 1 5817.8378 1 5807.7424 1 5801.97 1 5799.0726 1 5797.0473 1 5792.2142 1 5790.0671 1 5782.4444 1 5781.4041 1 5781.3159 1 5780.9081 1 5780.2789 1 5779.8742 1 5779.5392 1 5779.5264 1 5778.0544 1 5778.0353 1 5777.6293 1 5776.8853 1 5776.7926 1 5775.8491 1 5775.1736 1 5773.1127 1 5771.1911 1 5769.9058 1 5769.3668 1 5768.5205 1 5768.0767 1 5765.0125 1 5757.9085 1 5757.1143 1 5757.0046 1 5754.725 1 5750.5098 1 5741.3916 1 5727.0566 11.8277 5674.7011 137.4034 5580.7473 176.3785 5583.6284 220.9155 5589.2965 229.1526 5632.7746 246.7321 5654.0879 297.2766 5849.3392 189.9686 5941.2404 175.2495 5941.2404 Z" fill="none" stroke="#FBC20F" opacity="0.6" stroke-width="1" class="tottenville"/>
<path d="M 80.1584 5941.2404 49.1968 5915.2504 34.4076 5892.0859 4.7911 5859.6302 1 5847.8699 1 5841.5918 1 5831.4573 1 5820.8703 1 5817.8378 1 5807.7424 1 5801.97 1 5799.0726 1 5797.0473 1 5792.2142 1 5790.0671 1 5782.4444 1 5781.4041 1 5781.3159 1 5780.9081 1 5780.2789 1 5779.8742 1 5779.5392 1 5779.5264 1 5778.0544 1 5778.0353 1 5777.6293 1 5776.8853 1 5776.7926 1 5775.8491 1 5775.1736 1 5773.1127 1 5771.1911 1 5769.9058 1 5769.3668 1 5768.5205 1 5768.0767 1 5765.0125 6.9414 5758.8345 17.2738 5717.2521 26.5835 5708.0321 45.2421 5675.7223 60.1391 5660.0459 80.6101 5642.536 84.3308 5639.7727 101.9851 5633.3502 123.3572 5625.0885 127.0829 5620.4758 137.3059 5615.8812 148.2128 5615.6803 160.7587 5610.1673 167.0557 5598.6272 174.9825 5585.0114 220.9124 5590.4522 228.9113 5636.2412 246.0304 5656.1665 256.5943 5698.0353 267.8346 5747.7678 297.496 5854.1951 251.0391 5867.4831 211.7657 5884.7191 192.9243 5899.466 178.5007 5911.219 170.1127 5922.7572 144.1097 5924.5354 114.3972 5924.684 96.3627 5941.2404 96.358 5941.2404 95.6737 5941.2404 95.4741 5941.2404 92.7716 5941.2404 90.7688 5941.2404 90.5491 5941.2404 80.2337 5939.1551 81.6208 5941.2404 80.7238 5941.2404 80.6824 5941.2404 80.6606 5941.2404 80.1584 5941.2404 Z" fill="none" stroke="#FBC20F" opacity="0.6" stroke-width="1" class="tottenville"/>
<path d="M 300.5445 5842.2571 178.4025 5579.0111 228.5082 5584.694 249.0617 5650.7034 279.3681 5774.6924 300.5445 5842.2571 Z" fill="none" stroke="#FBC20F" opacity="0.6" stroke-width="1" class="tottenville"/>
<path d="M 297.3057 5852.327 169.2966 5922.397 87.5447 5937.8929 14.1881 5863.367 15.9895 5774.0257 43.7884 5684.4664 160.8562 5645.9602 145.3756 5537.742 227.7937 5536.9025 297.3057 5852.327 Z" fill="none" stroke="#FBC20F" opacity="0.6" stroke-width="1" class="tottenville"/>
<path d="M 103.2432 5941.2404 102.6638 5941.2404 98.9188 5941.2404 98.5283 5941.2404 96.3627 5941.2404 96.358 5941.2404 95.6737 5941.2404 95.4741 5941.2404 92.7716 5941.2404 90.7688 5941.2404 90.5491 5941.2404 90.2878 5941.2404 89.0874 5941.2404 87.031 5941.2404 86.2481 5941.2404 86.2047 5941.2404 86.1356 5941.2404 85.0131 5941.2404 83.685 5941.2404 82.3144 5941.2404 62.621 5928.931 52.6992 5908.0925 41.8221 5896.7315 24.6862 5882.5779 18.4855 5859.67 8.1052 5837.444 5.6234 5812.9295 1 5781.3159 1 5780.9081 1 5780.2789 1 5779.8742 1 5779.5392 1 5779.5264 1 5778.0544 1 5778.0353 9.9478 5762.5422 25.2981 5751.2587 29.3403 5717.7494 40.5403 5696.745 51.2731 5676.6643 74.983 5662.8621 80.5773 5654.0939 102.643 5646.9902 118.936 5629.4681 131.0098 5626.959 150.7558 5619.1546 161.2133 5613.6358 168.6201 5620.475 185.9795 5636.8188 198.7174 5646.0996 216.4345 5659.2079 228.1189 5672.1844 247.3085 5655.4764 242.981 5668.4099 294.4913 5849.332 287.1534 5815.0949 282.5757 5790.5762 278.0055 5763.2839 265.5449 5735.9716 264.2293 5706.84 247.6136 5671.6585 250.4278 5660.5702 294.0181 5852.7988 298.4166 5857.2032 285.1859 5857.3999 244.0696 5869.7767 216.8728 5884.5016 187.8082 5902.9204 165.4709 5922.5132 148.7567 5922.9297 137.6096 5924.7486 103.2432 5941.2404 Z" fill="none" stroke="#FBC20F" opacity="0.6" stroke-width="1" class="tottenville"/>
<path d="M 295.4246 5847.4848 137.3749 5925.6729 110.5962 5872.8803 64.1554 5879.2231 9.5651 5814.3281 7.8294 5772.7083 32.1372 5713.5963 75.885 5672.1112 112.1411 5652.7958 157.6931 5627.9575 170.7463 5606.7275 171.7377 5583.6157 223.7 5589.304 232.8407 5642.0306 252.2819 5661.4997 277.0359 5779.0021 295.4246 5847.4848 Z" fill="none" stroke="#FBC20F" opacity="0.6" stroke-width="1" class="tottenville"/>
<path d="M 115.7279 5941.2404 109.632 5941.2404 108.7415 5941.2404 108.2697 5941.2404 103.2432 5941.2404 102.6638 5941.2404 98.9188 5941.2404 98.5283 5941.2404 96.3627 5941.2404 96.358 5941.2404 95.6737 5941.2404 95.4741 5941.2404 92.7716 5941.2404 90.7688 5941.2404 90.5491 5941.2404 90.2878 5941.2404 89.0874 5941.2404 87.031 5941.2404 86.2481 5941.2404 86.2047 5941.2404 86.1356 5941.2404 85.0131 5941.2404 83.685 5941.2404 82.3144 5941.2404 81.6208 5941.2404 80.7238 5941.2404 80.6824 5941.2404 80.6606 5941.2404 80.1584 5941.2404 79.3757 5941.2404 30.0474 5895.6821 1 5817.8378 1 5807.7424 1 5801.97 1 5799.0726 1 5797.0473 1 5792.2142 1 5790.0671 1 5782.4444 1 5781.4041 1 5781.3159 1 5780.9081 1 5780.2789 1 5779.8742 1 5779.5392 1 5779.5264 19.0069 5727.5343 48.8796 5669.3655 101.9067 5627.9077 156.7218 5609.5681 190.1391 5608.735 206.7715 5636.5183 228.3672 5645.302 259.3417 5634.289 265.277 5661.6164 280.9722 5694.0208 300.3672 5731.9839 308.6453 5761.5967 305.7474 5805.0529 309.3219 5858.7011 276.7879 5873.4137 227.5332 5890.8554 168.0228 5923.065 115.7279 5941.2404 Z" fill="none" stroke="#FBC20F" opacity="0.6" stroke-width="1" class="tottenville"/>
<path d="M 1 5831.4573 1 5820.8703 1 5817.8378 1 5807.7424 1 5801.97 1 5799.0726 1 5797.0473 1 5792.2142 1 5790.0671 1 5782.4444 1 5781.4041 1 5781.3159 1 5780.9081 1 5780.2789 11.6073 5750.5254 49.8595 5684.0575 116.8339 5634.3164 161.3932 5632.5907 188.3063 5634.5136 254.9686 5698.4934 266.9093 5746.6095 298.2195 5843.7927 266.5874 5868.6803 208.9816 5884.2491 166.1914 5913.7287 91.8368 5940.344 64.989 5912.5208 6.6587 5855.9363 1 5831.4573 Z" fill="none" stroke="#FBC20F" opacity="0.6" stroke-width="1" class="tottenville"/>
<path d="M 1 5888.097 1 5884.0683 1 5880.1385 1 5866.0838 1 5857.6677 1 5851.7413 1 5851.0918 1 5847.8699 1 5841.5918 1 5831.4573 1 5820.8703 1 5817.8378 1 5807.7424 1 5801.97 1 5799.0726 1 5797.0473 1 5792.2142 1 5790.0671 1 5782.4444 1 5781.4041 1 5781.3159 1 5780.9081 1 5780.2789 1 5779.8742 1 5779.5392 1 5779.5264 1 5778.0544 1 5778.0353 1 5777.6293 1 5776.8853 1 5776.7926 1 5775.8491 1 5775.1736 1 5773.1127 1 5771.1911 1 5769.9058 1 5769.3668 1 5768.5205 1 5768.0767 1 5765.0125 1 5757.9085 1 5757.1143 1 5757.0046 1 5754.725 1 5750.5098 1 5741.3916 1 5727.0566 1 5718.3306 1 5715.1902 1 5695.5014 1 5687.6593 5.3434 5670.0589 102.0215 5620.4057 139.1341 5626.057 174.4312 5616.9081 222.6676 5628.1341 311.1574 5866.9471 255.3628 5900.0959 190.2842 5931.3676 121.5595 5936.7277 21.2966 5930.8932 1 5908.1632 1 5888.097 Z" fill="none" stroke="#FBC20F" opacity="0.6" stroke-width="1" class="tottenville"/>
<path d="M 148.6911 5941.2404 141.8009 5941.2404 135.2183 5941.2404 129.4262 5941.2404 126.8882 5941.2404 123.1115 5941.2404 122.482 5941.2404 115.7279 5941.2404 109.632 5941.2404 108.7415 5941.2404 108.2697 5941.2404 103.2432 5941.2404 102.6638 5941.2404 98.9188 5941.2404 98.5283 5941.2404 96.3627 5941.2404 96.358 5941.2404 95.6737 5941.2404 95.4741 5941.2404 92.7716 5941.2404 90.7688 5941.2404 90.5491 5941.2404 90.2878 5941.2404 89.0874 5941.2404 87.031 5941.2404 86.2481 5941.2404 86.2047 5941.2404 86.1356 5941.2404 85.0131 5941.2404 83.685 5941.2404 82.3144 5941.2404 81.6208 5941.2404 80.7238 5941.2404 80.6824 5941.2404 80.6606 5941.2404 80.1584 5941.2404 79.3757 5941.2404 79.3479 5941.2404 77.0272 5941.2404 73.9857 5941.2404 71.6885 5941.2404 70.1016 5941.2404 69.9081 5941.2404 61.603 5941.2404 57.7939 5941.2404 33.4165 5913.8177 3.8263 5872.1127 1 5857.6677 1 5851.7413 1 5851.0918 1 5847.8699 1 5841.5918 1 5831.4573 1 5820.8703 1 5817.8378 1 5807.7424 1 5801.97 1 5799.0726 13.0293 5740.3576 34.1057 5674.7656 52.3377 5629.0485 99.2721 5607.9159 137.2751 5626.9764 142.0429 5581.2225 178.6952 5585.0216 222.7643 5592.0752 236.0994 5638.3409 249.5094 5656.8692 274.2484 5779.9195 275.6251 5785.9341 294.0633 5835.4586 311.6025 5874.3471 282.3467 5877.9703 255.391 5889.46 213.5242 5921.2565 190.2754 5934.6047 162.8782 5936.8421 148.6911 5941.2404 Z" fill="none" stroke="#FBC20F" opacity="0.6" stroke-width="1" class="tottenville"/>
<path d="M 135.2183 5941.2404 129.4262 5941.2404 126.8882 5941.2404 123.1115 5941.2404 122.482 5941.2404 115.7279 5941.2404 109.632 5941.2404 108.7415 5941.2404 108.2697 5941.2404 103.2432 5941.2404 102.6638 5941.2404 98.9188 5941.2404 98.5283 5941.2404 96.3627 5941.2404 96.358 5941.2404 95.6737 5941.2404 95.4741 5941.2404 92.7716 5941.2404 90.7688 5941.2404 90.5491 5941.2404 90.2878 5941.2404 89.0874 5941.2404 87.031 5941.2404 86.2481 5941.2404 86.2047 5941.2404 86.1356 5941.2404 85.0131 5941.2404 83.685 5941.2404 82.3144 5941.2404 81.6208 5941.2404 80.7238 5941.2404 80.6824 5941.2404 80.6606 5941.2404 80.1584 5941.2404 79.3757 5941.2404 79.3479 5941.2404 77.0272 5941.2404 73.9857 5941.2404 71.6885 5941.2404 70.1016 5941.2404 69.9081 5941.2404 61.603 5941.2404 57.7939 5941.2404 56.2753 5941.2404 52.2356 5941.2404 42.5708 5941.2404 1 5851.7413 1 5851.0918 1 5847.8699 1 5841.5918 1 5831.4573 1 5820.8703 1 5817.8378 1 5807.7424 1 5801.97 1 5799.0726 1 5797.0473 1 5792.2142 1 5790.0671 1 5782.4444 1 5781.4041 1 5781.3159 1 5780.9081 1 5780.2789 1 5779.8742 1 5779.5392 1 5779.5264 1 5778.0544 1 5778.0353 1 5777.6293 1 5776.8853 1 5776.7926 1 5775.8491 1 5775.1736 1 5773.1127 1 5771.1911 1 5769.9058 1 5769.3668 1 5768.5205 1 5768.0767 1 5765.0125 1 5757.9085 1 5757.1143 1 5757.0046 1 5754.725 1 5750.5098 1 5741.3916 1 5727.0566 1 5718.3306 1 5715.1902 1 5695.5014 13.251 5664.0717 140.6532 5580.2941 223.6975 5590.2285 230.9905 5639.7141 248.5898 5653.6305 277.9691 5777.155 297.2501 5859.5123 135.2183 5941.2404 Z" fill="none" stroke="#FBC20F" opacity="0.6" stroke-width="1" class="tottenville"/>
<path d="M 122.482 5941.2404 115.7279 5941.2404 109.632 5941.2404 108.7415 5941.2404 108.2697 5941.2404 103.2432 5941.2404 102.6638 5941.2404 98.9188 5941.2404 98.5283 5941.2404 96.3627 5941.2404 96.358 5941.2404 95.6737 5941.2404 95.4741 5941.2404 92.7716 5941.2404 90.7688 5941.2404 90.5491 5941.2404 90.2878 5941.2404 89.0874 5941.2404 87.031 5941.2404 86.2481 5941.2404 86.2047 5941.2404 86.1356 5941.2404 85.0131 5941.2404 83.685 5941.2404 82.3144 5941.2404 81.6208 5941.2404 80.7238 5941.2404 80.6824 5941.2404 80.6606 5941.2404 80.1584 5941.2404 79.3757 5941.2404 79.3479 5941.2404 77.0272 5941.2404 73.9857 5941.2404 71.6885 5941.2404 51.0829 5905.082 23.2928 5882.8051 3.034 5825.4067 1 5807.7424 1 5801.97 1 5799.0726 1 5797.0473 1 5792.2142 1 5790.0671 1 5782.4444 1 5781.4041 1 5781.3159 1 5780.9081 1 5780.2789 1 5779.8742 1 5779.5392 1 5779.5264 1 5778.0544 1 5778.0353 1 5777.6293 1 5776.8853 1 5776.7926 1 5775.8491 1 5775.1736 1 5773.1127 1 5771.1911 1 5769.9058 1 5769.3668 1 5768.5205 1 5768.0767 1 5765.0125 1 5757.9085 1 5757.1143 165.2304 5587.2961 174.5172 5585.4724 198.6394 5589.2364 220.8956 5596.6931 233.8011 5630.0132 243.0389 5646.681 248.5542 5667.0377 257.7877 5685.5554 257.7289 5707.7475 259.5317 5728.0956 263.1863 5750.2986 276.1197 5774.3759 283.4738 5802.1382 283.4011 5829.8818 275.8913 5861.3061 246.1469 5874.1753 190.3345 5912.8698 151.2973 5927.5612 122.482 5941.2404 Z" fill="none" stroke="#FBC20F" opacity="0.6" stroke-width="1" class="tottenville"/>
<path d="M 102.6638 5941.2404 98.9188 5941.2404 98.5283 5941.2404 96.3627 5941.2404 96.358 5941.2404 95.6737 5941.2404 95.4741 5941.2404 92.7716 5941.2404 90.7688 5941.2404 90.5491 5941.2404 90.2878 5941.2404 89.0874 5941.2404 87.031 5941.2404 86.2481 5941.2404 86.2047 5941.2404 86.1356 5941.2404 85.0131 5941.2404 83.685 5941.2404 82.3144 5941.2404 81.6208 5941.2404 80.7238 5941.2404 80.6824 5941.2404 80.6606 5941.2404 80.1584 5941.2404 79.3757 5941.2404 79.3479 5941.2404 77.0272 5941.2404 73.9857 5941.2404 71.6885 5941.2404 70.1016 5941.2404 69.9081 5941.2404 66.5424 5937.6132 63.7602 5936.4491 55.0941 5922.8976 52.7848 5918.729 49.798 5907.9686 51.5531 5903.0024 47.953 5903.8013 36.3696 5895.9066 25.3882 5880.6146 25.2859 5875.8745 21.4583 5875.0541 16.1533 5863.4782 12.1045 5858.9578 10.6274 5848.0868 9.1298 5844.2675 7.6396 5837.905 3.7188 5829.3391 2.5779 5822.6309 1 5820.8703 1 5817.8378 1 5807.7424 1 5801.97 1 5799.0726 1 5797.0473 1 5792.2142 1 5790.0671 1 5782.4444 1 5781.4041 1 5781.3159 1 5780.9081 1 5780.2789 1 5779.8742 1 5779.5392 1 5779.5264 1 5778.0544 1 5778.0353 1 5777.6293 1 5776.8853 1 5776.7926 1 5775.8491 1 5775.1736 1 5773.1127 1 5771.1911 1 5769.9058 1 5769.3668 1 5768.5205 13.5511 5760.472 14.1414 5757.0059 15.0912 5749.6108 18.5644 5752.3951 19.9917 5740.3778 21.8591 5736.6843 31.1956 5718.2171 37.7469 5699.7422 51.2635 5680.0161 78.3511 5661.7158 101.7008 5651.9575 113.4465 5642.3974 137.4899 5633.2182 155.0545 5617.0861 165.8657 5609.4879 172.1458 5604.0731 176.0153 5589.1748 190.7538 5587.8281 220.6843 5588.9492 227.2567 5604.2224 231.4936 5625.1528 245.12 5649.4604 247.7754 5654.4374 250.8886 5661.8428 254.8945 5682.6581 260.1709 5705.789 266.0213 5731.3493 272.4577 5754.8311 277.5137 5773.8016 280.8253 5794.2707 285.0891 5805.726 291.5367 5825.2791 292.0965 5833.1414 294.7403 5842.8589 298.7696 5855.3545 273.9208 5860.3761 249.2964 5868.1721 236.8581 5875.769 221.6439 5879.7745 204.4391 5890.2485 192.4566 5900.7364 174.5364 5917.9136 155.6177 5918.0929 138.3159 5921.1666 122.8691 5924.9389 114.1602 5926.4175 112.1639 5934.736 109.4834 5938.6594 102.6638 5941.2404 Z" fill="none" stroke="#FBC20F" opacity="0.6" stroke-width="1" class="tottenville"/>
<path d="M 33.0868 5706.2015 39.5875 5705.2956 172.5748 5616.903 254.1604 5653.183 313.4284 5706.9686 303.7731 5850.281 81.6258 5939.3902 4.8827 5828.1865 33.0868 5706.2015 Z" fill="none" stroke="#FBC20F" opacity="0.6" stroke-width="1" class="tottenville"/>
<path d="M 176.841 5584.2075 222.8866 5589.7641 247.7739 5655.0153 295.5379 5848.5255 165.7373 5910.0279 66.0071 5881.078 2.2701 5768.9931 31.9031 5714.2892 50.3038 5690.9938 176.841 5584.2075 Z" fill="none" stroke="#FBC20F" opacity="0.6" stroke-width="1" class="tottenville"/>
<path d="M 9.479 5843.9217 19.0902 5731.128 63.794 5680.3987 157.7313 5614.0885 252.277 5663.349 307.6932 5770.7593 315.8283 5855.8612 209.8826 5894.4251 88.1332 5936.6339 9.479 5843.9217 Z" fill="none" stroke="#FBC20F" opacity="0.6" stroke-width="1" class="tottenville"/>
<path d="M 95.4741 5941.2404 92.7716 5941.2404 90.7688 5941.2404 90.5491 5941.2404 90.2878 5941.2404 89.0874 5941.2404 87.031 5941.2404 86.2481 5941.2404 86.2047 5941.2404 86.1356 5941.2404 85.0131 5941.2404 83.685 5941.2404 82.3144 5941.2404 81.6208 5941.2404 80.7238 5941.2404 80.6824 5941.2404 80.6606 5941.2404 47.3385 5915.7075 48.7697 5902.3007 26.5277 5887.9012 20.5503 5867.9995 3.0164 5831.4179 4.05 5795.354 1 5779.5392 1 5779.5264 1 5778.0544 1 5778.0353 1 5777.6293 1 5776.8853 1 5776.7926 1 5775.8491 1 5775.1736 31.2049 5714.9807 61.9625 5671.6092 54.5776 5657.2561 78.7602 5640.2192 166.4984 5632.6047 167.4203 5634.9188 170.2138 5631.6903 172.0778 5628.9216 176.7327 5623.8489 179.5236 5621.5451 185.0991 5619.2487 186.9606 5617.4046 193.0064 5612.798 196.2538 5613.2692 204.1447 5612.8282 218.0725 5611.0166 225.4856 5615.6595 230.0957 5627.2294 231.4732 5632.7808 237.4683 5647.1285 243.0204 5653.6157 251.345 5664.7335 251.318 5674.9046 258.2298 5693.8786 277.4988 5779.4657 298.6512 5856.279 293.077 5857.6517 286.5671 5861.7965 281.4619 5861.3207 277.2803 5862.697 268.9183 5864.9871 261.0155 5869.128 248.0087 5872.3305 239.1811 5875.0816 227.1014 5878.7487 220.5861 5884.7428 210.3618 5888.8772 202.4599 5892.5553 192.6796 5904.0897 182.455 5908.2239 178.7234 5914.6879 178.2453 5919.7735 168.0242 5922.5202 159.6691 5922.0348 145.7404 5922.4589 135.5179 5925.6677 125.3096 5923.7895 119.7257 5928.3985 95.4741 5941.2404 Z" fill="none" stroke="#FBC20F" opacity="0.6" stroke-width="1" class="tottenville"/></svg>