<?xml version="1.0"?><svg xmlns="http://www.w3.org/2000/svg" version="1.2" baseProfile="tiny" width="6000" height="5918" viewBox="0 0 6000 5918" stroke-linecap="round" stroke-linejoin="round"><path d="M 569.5535 4663.2802 785.3054 4451.3078 863.0628 4508.7242 705.8969 4730.9907 569.5535 4663.2802 Z" fill="none" stroke="#12852D" opacity="0.6" stroke-width="1" class="travis"/>
<path d="M 801.8996 4552.3707 770.5244 4592.0193 764.4816 4599.6263 751.9192 4620.843 742.735 4633.8698 730.067 4649.8912 688.0195 4690.5573 556.9251 4689.914 559.2022 4657.8212 557.3752 4646.0403 555.7654 4640.4946 557.2873 4634.0326 558.9148 4631.9582 560.4326 4627.228 558.584 4624.6837 555.7897 4630.1036 554.3997 4629.754 554.3048 4620.7483 556.6355 4615.3274 560.1147 4614.4118 563.4888 4608.8779 566.8459 4610.6175 569.4032 4607.3908 572.0702 4606.8197 575.7898 4602.2102 577.5245 4603.8306 579.6118 4603.3736 583.2127 4599.9184 583.3328 4598.0714 581.949 4595.0665 584.3903 4591.8395 584.9765 4588.9546 582.6622 4587.3329 582.7813 4585.9478 587.8938 4580.3025 586.855 4578.453 586.8611 4575.7976 589.0696 4573.032 592.3107 4574.7711 594.8673 4571.7753 598.2243 4573.5148 599.5026 4572.0169 598.5799 4570.0521 599.8622 4566.8225 602.6434 4566.9443 612.0623 4553.2276 610.7919 4551.2621 617.9967 4542.7356 619.852 4542.278 621.5988 4538.5877 620.6751 4537.0849 623.3594 4528.779 625.7949 4527.9764 627.3169 4521.1687 632.8882 4517.3717 638.3087 4477.5573 635.7811 4467.855 666.4028 4455.1101 679.8596 4448.5602 708.7377 4437.7727 713.257 4437.7825 743.7216 4443.3889 754.034 4443.8726 765.3947 4441.8189 771.8884 4439.7548 777.1156 4433.7633 778.8545 4433.4207 791.6921 4445.4525 805.9275 4454.1396 840.5344 4474.7582 858.5878 4487.0311 868.3069 4494.6695 866.9114 4497.091 867.3669 4501.1322 867.2456 4503.7871 864.1127 4505.7433 859.1239 4508.5038 857.1448 4513.002 856.6677 4519.6967 851.43 4530.884 853.36 4550.7444 849.5266 4555.1236 841.0675 4554.5292 828.3147 4556.6967 801.8996 4552.3707 Z" fill="none" stroke="#12852D" opacity="0.6" stroke-width="1" class="travis"/>
<path d="M 840.1887 4473.834 695.379 4664.4792 736.7006 4637.3206 796.7052 4542.3162 692.5922 4666.7823 651.8719 4631.1312 699.4269 4509.323 840.1887 4473.834 Z" fill="none" stroke="#12852D" opacity="0.6" stroke-width="1" class="travis"/>
<path d="M 556.7558 4633.7164 648.4606 4498.1281 777.4419 4443.9221 873.8123 4506.1266 810.4981 4637.1471 793.5076 4781.2121 693.3388 4786.5408 539.4717 4752.9354 556.7558 4633.7164 Z" fill="none" stroke="#12852D" opacity="0.6" stroke-width="1" class="travis"/>
<path d="M 515.2442 4767.5254 641.7012 4411.7682 775.6131 4431.9133 871.9008 4493.9841 851.4449 4523.4957 853.2376 4553.9766 825.4211 4554.8436 810.5141 4589.9092 836.3888 4632.449 797.3586 4673.9336 828.7422 4744.201 808.2548 4785.7286 702.4991 4801.2086 569.9951 4751.9499 515.2442 4767.5254 Z" fill="none" stroke="#12852D" opacity="0.6" stroke-width="1" class="travis"/>
<path d="M 860.9857 4389.6112 992.2865 4567.1775 707.1602 4790.1331 583.9308 4740.8971 583.2037 4654.0668 860.9857 4389.6112 Z" fill="none" stroke="#12852D" opacity="0.6" stroke-width="1" class="travis"/>
<path d="M 736.2241 4643.3233 709.0451 4669.5892 696.0583 4671.8701 665.441 4679.654 622.1075 4672.1674 615.1792 4660.6057 614.7434 4648.3661 615.0015 4636.821 632.4288 4618.3876 651.9044 4616.584 664.207 4608.9915 668.1609 4602.9967 674.2025 4596.3139 680.0128 4589.3997 676.089 4581.7713 680.756 4567.6969 684.7071 4562.8568 691.2215 4551.7882 698.8851 4545.1091 700.5197 4539.5714 701.921 4534.7258 705.4345 4517.8788 715.8711 4514.9 730.0021 4518.3937 746.2203 4521.43 761.29 4519.6149 776.1545 4505.1007 785.6766 4495.8855 809.5785 4481.8518 822.3249 4482.3398 836.7023 4478.6752 836.6839 4487.6793 826.2224 4503.1267 816.6901 4517.4218 807.1657 4527.792 800.4205 4539.0914 798.0815 4549.2457 793.1996 4556.1623 785.989 4568.1538 778.3132 4580.837 771.5663 4592.5988 760.4053 4608.9693 748.7906 4620.49 746.6812 4631.3383 736.233 4639.1669 736.2241 4643.3233 Z" fill="none" stroke="#12852D" opacity="0.6" stroke-width="1" class="travis"/>
<path d="M 622.3282 4574.7241 643.2901 4529.9783 627.9872 4532.2528 634.0063 4535.4988 664.1741 4519.4042 676.1879 4536.9782 713.1813 4579.5435 703.8753 4595.2245 700.106 4622.925 682.499 4618.2682 664.9413 4591.4445 643.647 4577.543 622.3282 4574.7241 Z" fill="none" stroke="#12852D" opacity="0.6" stroke-width="1" class="travis"/>
<path d="M 540.4832 4654.0328 736.516 4441.5016 896.983 4533.1851 788.7148 4784.8298 540.4832 4654.0328 Z" fill="none" stroke="#12852D" opacity="0.6" stroke-width="1" class="travis"/>
<path d="M 626.7825 4655.0899 745.9972 4408.7645 906.3449 4422.0213 690.6941 4686.6374 626.7825 4655.0899 Z" fill="none" stroke="#12852D" opacity="0.6" stroke-width="1" class="travis"/>
<path d="M 702.9199 4608.1531 719.6915 4570.3217 767.9628 4542.7177 802.1023 4622.2185 733.363 4680.2641 702.9199 4608.1531 Z" fill="none" stroke="#12852D" opacity="0.6" stroke-width="1" class="travis"/>
<path d="M 597.1167 4652.2514 703.1252 4513.9487 746.741 4494.6488 781.0532 4490.1039 800.526 4488.2975 821.8585 4483.7241 849.6692 4484.7043 826.4258 4516.98 797.6525 4532.6208 781.8448 4554.7532 790.1159 4589.8668 765.9505 4617.5246 741.8231 4626.7097 732.5231 4639.6208 727.8749 4645.1527 722.2995 4650.6826 712.0858 4657.1262 700.0274 4658.9473 689.8175 4663.5433 677.7427 4672.7536 661.0518 4672.7166 646.2217 4669.9125 615.6512 4656.912 597.1167 4652.2514 Z" fill="none" stroke="#12852D" opacity="0.6" stroke-width="1" class="travis"/>
<path d="M 710.8858 4782.7509 563.5359 4738.0786 563.667 4681.7319 675.1139 4603.4739 684.5322 4536.9966 709.6672 4489.9515 739.437 4441.9945 774.6802 4434.6817 845.0619 4470.8425 779.1273 4524.2702 803.1751 4552.027 692.583 4670.9388 710.8858 4782.7509 Z" fill="none" stroke="#12852D" opacity="0.6" stroke-width="1" class="travis"/>
<path d="M 843.2003 4474.5327 696.2699 4681.1075 562.7246 4688.1956 579.6291 4595.8693 689.2813 4485.2894 748.5676 4507.582 843.2003 4474.5327 Z" fill="none" stroke="#12852D" opacity="0.6" stroke-width="1" class="travis"/>
<path d="M 636.4665 4472.2431 710.7086 4437.3153 753.3387 4443.8711 779.3173 4433.768 872.8187 4498.6035 850.5047 4529.9586 850.4505 4556.7417 802.246 4552.9487 765.9934 4597.205 742.7247 4638.719 686.991 4683.8582 555.2869 4696.4916 558.1808 4648.4667 554.5495 4615.207 579.6206 4599.5637 590.8149 4570.0343 630.7957 4520.253 636.4665 4472.2431 Z" fill="none" stroke="#12852D" opacity="0.6" stroke-width="1" class="travis"/></svg>