<?xml version="1.0"?><svg xmlns="http://www.w3.org/2000/svg" version="1.2" baseProfile="tiny" width="6000" height="5918" viewBox="0 0 6000 5918" stroke-linecap="round" stroke-linejoin="round"><path d="M 2616.9534 2859.8913 2645.2026 2690.0459 2713.9048 2751.5816 2641.2456 2874.8762 2636.8497 2872.8012 2616.9534 2859.8913 Z" fill="none" stroke="#A9159C" opacity="0.352112676056338" stroke-width="1" class="tribeca"/>
<path d="M 2744.9046 2781.0815 2703.9508 2844.6893 2697.2404 2854.8299 2627.3721 2812.8759 2648.21 2689.355 2744.9046 2781.0815 Z" fill="none" stroke="#A9159C" opacity="0.352112676056338" stroke-width="1" class="tribeca"/>
<path d="M 2645.2028 2688.4328 2745.136 2780.6206 2673.4052 2894.0103 2655.3585 2884.7888 2660.4499 2875.109 2619.7311 2851.5944 2622.7433 2823.0159 2645.8964 2691.4287 2645.2028 2688.4328 Z" fill="none" stroke="#A9159C" opacity="0.352112676056338" stroke-width="1" class="tribeca"/>
<path d="M 2647.5163 2686.5896 2695.6296 2734.9878 2765.9579 2800.6712 2721.5338 2869.1212 2697.009 2854.369 2683.356 2878.3381 2620.8893 2842.8365 2647.5163 2686.5896 Z" fill="none" stroke="#A9159C" opacity="0.352112676056338" stroke-width="1" class="tribeca"/>
<path d="M 2648.9039 2689.8159 2746.5242 2779.6988 2679.4219 2885.2523 2618.8054 2853.4381 2648.9039 2689.8159 Z" fill="none" stroke="#A9159C" opacity="0.352112676056338" stroke-width="1" class="tribeca"/>
<path d="M 2744.5576 2780.7358 2743.0537 2783.847 2709.5085 2763.6803 2714.9458 2753.3101 2743.2852 2779.2378 2744.5576 2780.7358 Z" fill="none" stroke="#A9159C" opacity="0.352112676056338" stroke-width="1" class="tribeca"/>
<path d="M 2649.3663 2692.1204 2708.584 2749.2768 2750.2257 2785.2299 2688.2157 2868.1972 2618.8081 2835.9219 2649.3663 2692.1204 Z" fill="none" stroke="#A9159C" opacity="0.352112676056338" stroke-width="1" class="tribeca"/>
<path d="M 2713.2103 2760.3389 2792.7962 2824.8701 2715.9803 2877.4184 2713.2103 2760.3389 Z" fill="none" stroke="#A9159C" opacity="0.352112676056338" stroke-width="1" class="tribeca"/>
<path d="M 2647.5162 2687.9723 2767.8088 2803.2063 2705.3365 2884.3324 2674.331 2890.7835 2652.1144 2924.4331 2605.3779 2899.994 2647.5162 2687.9723 Z" fill="none" stroke="#A9159C" opacity="0.352112676056338" stroke-width="1" class="tribeca"/>
<path d="M 2649.3662 2693.0422 2776.1378 2812.8859 2808.5291 2825.7914 2684.5117 2892.1674 2617.8803 2850.6722 2649.3662 2693.0422 Z" fill="none" stroke="#A9159C" opacity="0.352112676056338" stroke-width="1" class="tribeca"/>
<path d="M 2742.3597 2783.3861 2686.3722 2778.7738 2642.8889 2692.5805 2740.0462 2782.0032 2642.8639 2885.7092 2669.2412 2885.2513 2678.0341 2879.7205 2722.9245 2814.7288 2742.3597 2783.3861 Z" fill="none" stroke="#A9159C" opacity="0.352112676056338" stroke-width="1" class="tribeca"/>
<path d="M 2647.5162 2687.9723 2743.7479 2780.851 2697.9345 2854.1386 2626.6785 2809.6492 2647.5162 2687.9723 Z" fill="none" stroke="#A9159C" opacity="0.352112676056338" stroke-width="1" class="tribeca"/>
<path d="M 2745.5987 2780.6206 2675.257 2885.7129 2618.8058 2850.6724 2647.5162 2687.5114 2745.5987 2780.6206 Z" fill="none" stroke="#A9159C" opacity="0.352112676056338" stroke-width="1" class="tribeca"/>
<path d="M 2688.6783 2870.502 2686.7116 2871.0781 2623.666 2841.1083 2649.2509 2689.5855 2746.4084 2780.9663 2688.6783 2870.502 Z" fill="none" stroke="#A9159C" opacity="0.352112676056338" stroke-width="1" class="tribeca"/>
<path d="M 2646.589 2702.2595 2623.9223 2675.2949 2717.3749 2754.3473 2687.5273 2799.0547 2667.1639 2836.6196 2627.8345 2814.7197 2637.5589 2762.1754 2646.589 2702.2595 Z" fill="none" stroke="#A9159C" opacity="0.352112676056338" stroke-width="1" class="tribeca"/>
<path d="M 2653.067 2697.6514 2651.2166 2695.3468 2745.1359 2783.847 2691.8025 2862.7811 2620.1987 2820.2499 2653.067 2697.6514 Z" fill="none" stroke="#A9159C" opacity="0.352112676056338" stroke-width="1" class="tribeca"/>
<path d="M 2685.439 2870.5018 2594.2864 2817.9408 2649.3675 2682.442 2740.5086 2792.1436 2685.439 2870.5018 Z" fill="none" stroke="#A9159C" opacity="0.352112676056338" stroke-width="1" class="tribeca"/>
<path d="M 2643.8131 2701.3374 2747.4494 2787.9954 2631.7437 2984.3614 2591.9425 2982.5109 2643.8131 2701.3374 Z" fill="none" stroke="#A9159C" opacity="0.352112676056338" stroke-width="1" class="tribeca"/>
<path d="M 2677.3397 2883.293 2623.6648 2849.5207 2648.2096 2692.3507 2742.3597 2781.5424 2677.3397 2883.293 Z" fill="none" stroke="#A9159C" opacity="0.352112676056338" stroke-width="1" class="tribeca"/>
<path d="M 2623.2019 2850.6731 2623.4335 2848.5988 2625.2855 2841.9152 2628.5262 2831.3138 2631.5375 2806.6538 2638.0213 2764.0191 2647.7469 2692.8115 2684.0634 2723.6949 2744.4419 2782.0033 2678.2653 2882.4864 2623.2019 2850.6731 Z" fill="none" stroke="#A9159C" opacity="0.352112676056338" stroke-width="1" class="tribeca"/>
<path d="M 2722.4636 2775.0887 2672.4846 2844.2258 2643.7973 2823.9408 2628.9912 2815.6418 2654.9166 2706.8694 2722.4636 2775.0887 Z" fill="none" stroke="#A9159C" opacity="0.352112676056338" stroke-width="1" class="tribeca"/>
<path d="M 2647.516 2688.894 2746.0614 2782.0034 2676.6453 2885.713 2618.8059 2849.7505 2647.516 2688.894 Z" fill="none" stroke="#A9159C" opacity="0.352112676056338" stroke-width="1" class="tribeca"/>
<path d="M 2645.6659 2684.7459 2745.5988 2777.855 2673.4061 2884.7908 2612.3279 2847.9056 2645.6659 2684.7459 Z" fill="none" stroke="#A9159C" opacity="0.352112676056338" stroke-width="1" class="tribeca"/>
<path d="M 2648.9034 2693.9639 2672.4978 2710.0975 2691.4662 2725.7695 2712.2856 2747.8943 2716.4494 2755.73 2698.4028 2775.5483 2680.8182 2796.2885 2671.0985 2822.5611 2671.0977 2830.8581 2630.3807 2806.4232 2648.9034 2693.9639 Z" fill="none" stroke="#A9159C" opacity="0.352112676056338" stroke-width="1" class="tribeca"/>
<path d="M 2647.9787 2688.8941 2745.5987 2781.0815 2676.6454 2884.3301 2621.1197 2849.7508 2647.9787 2688.8941 Z" fill="none" stroke="#A9159C" opacity="0.352112676056338" stroke-width="1" class="tribeca"/>
<path d="M 2617.877 2871.8765 2645.6651 2691.1982 2745.5988 2778.7769 2657.6683 2919.8238 2641.0089 2915.2118 2633.607 2897.6934 2634.5348 2881.0984 2617.877 2871.8765 Z" fill="none" stroke="#A9159C" opacity="0.352112676056338" stroke-width="1" class="tribeca"/>
<path d="M 2748.375 2778.7769 2704.8755 2856.2133 2627.1407 2812.8759 2653.0675 2693.0426 2748.375 2778.7769 Z" fill="none" stroke="#A9159C" opacity="0.352112676056338" stroke-width="1" class="tribeca"/>
<path d="M 2647.0531 2690.9679 2684.7577 2721.16 2707.1962 2743.5154 2745.136 2780.1596 2698.6286 2854.83 2626.6781 2811.7235 2636.8653 2758.7184 2647.0531 2690.9679 Z" fill="none" stroke="#A9159C" opacity="0.352112676056338" stroke-width="1" class="tribeca"/>
<path d="M 2744.2106 2782.4642 2691.6867 2863.8183 2626.9079 2822.7861 2647.053 2692.1201 2744.2106 2782.4642 Z" fill="none" stroke="#A9159C" opacity="0.352112676056338" stroke-width="1" class="tribeca"/>
<path d="M 2772.4343 2571.3844 2771.0462 2532.6761 2771.5091 2582.4442 2762.7196 2562.168 2735.8908 2494.4297 2738.2038 2488.4396 2804.8147 2523.9201 2772.4343 2571.3844 Z" fill="none" stroke="#A9159C" opacity="0.352112676056338" stroke-width="1" class="tribeca"/>
<path d="M 2698.6286 2854.5996 2665.7758 2835.467 2628.9918 2811.2628 2648.6727 2688.8942 2745.3674 2780.3901 2698.6286 2854.5996 Z" fill="none" stroke="#A9159C" opacity="0.352112676056338" stroke-width="1" class="tribeca"/>
<path d="M 2744.2106 2782.4642 2700.711 2854.3692 2628.0662 2812.4151 2650.7543 2692.1206 2653.5302 2693.0427 2744.2106 2782.4642 Z" fill="none" stroke="#A9159C" opacity="0.352112676056338" stroke-width="1" class="tribeca"/>
<path d="M 2645.7799 2698.1114 2742.3597 2784.4231 2655.5936 2852.406 2623.0878 2839.9558 2645.0857 2699.3788 2645.7799 2698.1114 Z" fill="none" stroke="#A9159C" opacity="0.352112676056338" stroke-width="1" class="tribeca"/>
<path d="M 2715.2928 2753.6558 2664.3875 2835.9278 2628.7603 2812.1847 2647.9785 2690.2767 2715.2928 2753.6558 Z" fill="none" stroke="#A9159C" opacity="0.352112676056338" stroke-width="1" class="tribeca"/>
<path d="M 2744.6733 2780.6206 2687.2902 2868.1971 2643.795 2842.3787 2619.7331 2838.6877 2642.8897 2686.589 2744.6733 2780.6206 Z" fill="none" stroke="#A9159C" opacity="0.352112676056338" stroke-width="1" class="tribeca"/>
<path d="M 2647.5162 2687.5114 2746.5241 2784.308 2668.3147 2894.4708 2620.1925 2860.3528 2647.5162 2687.5114 Z" fill="none" stroke="#A9159C" opacity="0.352112676056338" stroke-width="1" class="tribeca"/>
<path d="M 2638.2558 2740.9736 2641.0325 2736.3649 2674.3452 2743.7432 2738.1952 2787.0734 2733.5679 2792.6043 2699.3227 2855.291 2681.7395 2842.3829 2675.2601 2853.4452 2623.437 2825.7817 2626.2151 2813.7976 2638.2558 2740.9736 Z" fill="none" stroke="#A9159C" opacity="0.352112676056338" stroke-width="1" class="tribeca"/>
<path d="M 2651.2166 2694.8859 2772.436 2808.2766 2725.2361 2860.824 2681.7357 2885.7135 2651.2166 2694.8859 Z" fill="none" stroke="#A9159C" opacity="0.352112676056338" stroke-width="1" class="tribeca"/>
<path d="M 2743.0538 2780.851 2714.1318 2830.6309 2703.2565 2848.1465 2686.133 2872.3457 2670.4005 2861.2811 2655.5935 2853.6736 2641.7123 2844.9137 2625.2857 2840.7628 2621.8153 2839.6099 2648.6725 2690.7377 2743.0538 2780.851 Z" fill="none" stroke="#A9159C" opacity="0.352112676056338" stroke-width="1" class="tribeca"/>
<path d="M 2640.0905 2861.969 2664.6326 2707.7922 2714.5987 2753.4253 2645.8742 2866.5794 2640.0905 2861.969 Z" fill="none" stroke="#A9159C" opacity="0.352112676056338" stroke-width="1" class="tribeca"/>
<path d="M 2621.5825 2848.829 2685.4541 2693.0459 2676.1826 2884.791 2621.5825 2848.829 Z" fill="none" stroke="#A9159C" opacity="0.352112676056338" stroke-width="1" class="tribeca"/>
<path d="M 2677.108 2886.635 2639.165 2861.7384 2660.4649 2740.0545 2737.2696 2794.4482 2677.108 2886.635 Z" fill="none" stroke="#A9159C" opacity="0.352112676056338" stroke-width="1" class="tribeca"/>
<path d="M 2744.9047 2779.4683 2671.3227 2894.4711 2590.8107 2846.2885 2648.2106 2684.7462 2744.9047 2779.4683 Z" fill="none" stroke="#A9159C" opacity="0.352112676056338" stroke-width="1" class="tribeca"/>
<path d="M 2647.9786 2689.5854 2728.4791 2765.6402 2669.9378 2860.8201 2622.972 2840.532 2647.9786 2689.5854 Z" fill="none" stroke="#A9159C" opacity="0.352112676056338" stroke-width="1" class="tribeca"/>
<path d="M 2656.763 2743.7413 2750.2255 2799.9797 2691.9156 2895.8558 2628.0593 2859.893 2656.763 2743.7413 Z" fill="none" stroke="#A9159C" opacity="0.352112676056338" stroke-width="1" class="tribeca"/>
<path d="M 2742.8224 2781.5424 2685.4392 2869.1189 2641.0185 2842.3784 2620.6585 2839.6098 2645.6664 2681.0589 2646.591 2686.5895 2742.8224 2781.5424 Z" fill="none" stroke="#A9159C" opacity="0.352112676056338" stroke-width="1" class="tribeca"/>
<path d="M 2639.8644 2682.579 2754.2605 2791.5262 2649.0869 2931.4859 2605.33 2909.6838 2639.8644 2682.579 Z" fill="none" stroke="#A9159C" opacity="0.352112676056338" stroke-width="1" class="tribeca"/>
<path d="M 2646.8716 2692.463 2779.1955 2814.1507 2621.8416 2995.5371 2646.8716 2692.463 Z" fill="none" stroke="#A9159C" opacity="0.352112676056338" stroke-width="1" class="tribeca"/>
<path d="M 2743.7479 2779.2378 2698.3971 2856.6739 2628.0668 2808.7276 2647.9793 2684.2853 2743.7479 2779.2378 Z" fill="none" stroke="#A9159C" opacity="0.352112676056338" stroke-width="1" class="tribeca"/>
<path d="M 2647.0534 2688.4331 2744.6733 2781.0815 2691.9182 2861.9744 2625.751 2823.4773 2647.0534 2688.4331 Z" fill="none" stroke="#A9159C" opacity="0.352112676056338" stroke-width="1" class="tribeca"/>
<path d="M 2744.2106 2781.5424 2686.5959 2870.5019 2644.0259 2846.0664 2620.1957 2840.0706 2646.8209 2697.8811 2649.3668 2688.4334 2717.8376 2754.3473 2744.2106 2781.5424 Z" fill="none" stroke="#A9159C" opacity="0.352112676056338" stroke-width="1" class="tribeca"/>
<path d="M 2647.5159 2689.8158 2716.9121 2754.8082 2746.0614 2781.0815 2609.0649 2991.2733 2583.6113 2986.1975 2647.5159 2689.8158 Z" fill="none" stroke="#A9159C" opacity="0.352112676056338" stroke-width="1" class="tribeca"/>
<path d="M 2649.1351 2690.9682 2744.789 2780.9663 2736.9225 2794.2177 2697.2403 2855.2909 2627.6034 2812.9912 2631.8868 2790.0603 2643.6965 2708.4811 2649.1351 2690.9682 Z" fill="none" stroke="#A9159C" opacity="0.352112676056338" stroke-width="1" class="tribeca"/>
<path d="M 2639.1864 2701.3368 2831.6621 2776.0092 2753.9264 2870.9661 2616.0331 2826.7025 2639.1864 2701.3368 Z" fill="none" stroke="#A9159C" opacity="0.352112676056338" stroke-width="1" class="tribeca"/>
<path d="M 2697.9344 2855.291 2627.3721 2812.8759 2639.1814 2739.1301 2650.9796 2741.897 2656.7681 2699.4954 2745.136 2780.3901 2736.807 2790.2998 2753.6959 2800.2102 2738.4255 2825.5615 2730.0971 2803.6666 2697.9344 2855.291 Z" fill="none" stroke="#A9159C" opacity="0.352112676056338" stroke-width="1" class="tribeca"/>
<path d="M 2744.6733 2781.0815 2671.554 2894.9321 2616.9533 2860.3523 2641.5019 2685.2062 2744.6733 2781.0815 Z" fill="none" stroke="#A9159C" opacity="0.352112676056338" stroke-width="1" class="tribeca"/>
<path d="M 2647.863 2689.2397 2748.375 2779.6988 2675.2572 2883.869 2617.3002 2861.5047 2647.863 2689.2397 Z" fill="none" stroke="#A9159C" opacity="0.352112676056338" stroke-width="1" class="tribeca"/>
<path d="M 2648.4405 2695.8073 2740.9716 2780.6205 2687.6371 2870.6172 2622.8565 2839.4948 2647.1683 2695.2311 2648.4405 2695.8073 Z" fill="none" stroke="#A9159C" opacity="0.352112676056338" stroke-width="1" class="tribeca"/>
<path d="M 2680.8247 2723.4642 2695.6293 2739.136 2688.2216 2796.2892 2668.3207 2836.3892 2645.6481 2825.3238 2656.3054 2699.4954 2680.8247 2723.4642 Z" fill="none" stroke="#A9159C" opacity="0.352112676056338" stroke-width="1" class="tribeca"/>
<path d="M 2649.3666 2689.816 2746.9868 2782.0034 2611.8421 2989.4297 2585.9255 2985.2759 2649.3666 2689.816 Z" fill="none" stroke="#A9159C" opacity="0.352112676056338" stroke-width="1" class="tribeca"/>
<path d="M 2645.6658 2685.6676 2751.1511 2787.9955 2745.5984 2793.5265 2680.8098 2889.4012 2617.8805 2849.7503 2645.6658 2685.6676 Z" fill="none" stroke="#A9159C" opacity="0.352112676056338" stroke-width="1" class="tribeca"/>
<path d="M 2763.1816 2802.7454 2713.2035 2882.9499 2674.3309 2892.1665 2668.7851 2820.2561 2680.8245 2726.2295 2763.1816 2802.7454 Z" fill="none" stroke="#A9159C" opacity="0.352112676056338" stroke-width="1" class="tribeca"/>
<path d="M 2653.0679 2689.3556 2750.2258 2778.777 2696.0836 2853.2165 2626.9096 2811.0321 2653.0679 2689.3556 Z" fill="none" stroke="#A9159C" opacity="0.352112676056338" stroke-width="1" class="tribeca"/>
<path d="M 2746.0614 2780.6206 2693.075 2863.0117 2660.222 2844.1093 2655.3623 2852.1755 2623.7819 2839.6102 2649.8287 2694.4249 2746.0614 2780.6206 Z" fill="none" stroke="#A9159C" opacity="0.352112676056338" stroke-width="1" class="tribeca"/>
<path d="M 2619.731 2852.5164 2639.1784 2761.2537 2707.6572 2772.3224 2711.3585 2777.8537 2662.3009 2875.5702 2619.731 2852.5164 Z" fill="none" stroke="#A9159C" opacity="0.352112676056338" stroke-width="1" class="tribeca"/>
<path d="M 2649.8293 2689.3552 2744.6733 2782.0033 2686.3645 2871.4238 2684.051 2867.7359 2670.6319 2861.2811 2655.3584 2885.2498 2618.8041 2861.7354 2649.8293 2689.3552 Z" fill="none" stroke="#A9159C" opacity="0.352112676056338" stroke-width="1" class="tribeca"/>
<path d="M 2680.8249 2721.6206 2744.6733 2782.4643 2685.439 2870.9627 2658.6013 2853.4435 2680.8249 2721.6206 Z" fill="none" stroke="#A9159C" opacity="0.352112676056338" stroke-width="1" class="tribeca"/>
<path d="M 2723.3817 2937.3468 2822.4126 2852.5259 2886.2677 2824.8628 2930.6859 2802.7309 2655.8224 2874.6475 2666.9453 2714.2449 2722.4683 2670.0045 2782.613 2651.5707 2826.1034 2678.2993 2723.3817 2937.3468 Z" fill="none" stroke="#A9159C" opacity="0.352112676056338" stroke-width="1" class="tribeca"/>
<path d="M 2648.9039 2690.0464 2745.5987 2781.312 2686.133 2872.1152 2643.1006 2844.2225 2622.7407 2839.8405 2648.9039 2690.0464 Z" fill="none" stroke="#A9159C" opacity="0.352112676056338" stroke-width="1" class="tribeca"/>
<path d="M 2713.6733 2753.8862 2768.2715 2808.5071 2627.1394 2821.6338 2648.9036 2692.1203 2713.6733 2753.8862 Z" fill="none" stroke="#A9159C" opacity="0.352112676056338" stroke-width="1" class="tribeca"/>
<path d="M 2623.4348 2840.4583 2648.0711 2690.203 2745.0434 2780.9156 2687.4751 2871.2579 2623.4348 2840.4583 Z" fill="none" stroke="#A9159C" opacity="0.352112676056338" stroke-width="1" class="tribeca"/>
<path d="M 2677.108 2886.635 2620.6568 2850.6727 2640.1068 2739.1302 2739.1205 2791.6827 2677.108 2886.635 Z" fill="none" stroke="#A9159C" opacity="0.352112676056338" stroke-width="1" class="tribeca"/>
<path d="M 2651.6795 2693.0424 2743.7479 2780.1596 2681.2734 2880.1818 2621.5826 2848.368 2651.6795 2693.0424 Z" fill="none" stroke="#A9159C" opacity="0.352112676056338" stroke-width="1" class="tribeca"/>
<path d="M 2647.5159 2689.8158 2766.4206 2801.1321 2706.4934 2884.5629 2683.3549 2890.3234 2621.3508 2850.9033 2647.5159 2689.8158 Z" fill="none" stroke="#A9159C" opacity="0.352112676056338" stroke-width="1" class="tribeca"/>
<path d="M 2647.2846 2689.5853 2718.0689 2753.8864 2665.7759 2833.8537 2628.7604 2811.7238 2647.2846 2689.5853 Z" fill="none" stroke="#A9159C" opacity="0.352112676056338" stroke-width="1" class="tribeca"/>
<path d="M 2645.6656 2687.5111 2714.3674 2754.1167 2702.7989 2770.7089 2718.7617 2778.7759 2660.9127 2874.8786 2591.273 2848.3629 2590.8202 2795.1238 2645.6656 2687.5111 Z" fill="none" stroke="#A9159C" opacity="0.352112676056338" stroke-width="1" class="tribeca"/>
<path d="M 2648.4414 2688.4333 2744.2106 2780.1596 2676.1826 2885.252 2619.7314 2849.7506 2648.4414 2688.4333 Z" fill="none" stroke="#A9159C" opacity="0.352112676056338" stroke-width="1" class="tribeca"/>
<path d="M 2745.136 2781.0815 2678.2651 2884.5607 2620.4254 2850.4422 2649.8287 2693.964 2745.136 2781.0815 Z" fill="none" stroke="#A9159C" opacity="0.352112676056338" stroke-width="1" class="tribeca"/>
<path d="M 2647.7473 2689.8158 2759.9426 2795.14 2721.7652 2868.1993 2621.584 2839.3794 2647.7473 2689.8158 Z" fill="none" stroke="#A9159C" opacity="0.352112676056338" stroke-width="1" class="tribeca"/>
<path d="M 2646.3066 2700.5291 2681.1453 2723.7154 2676.9784 2753.2128 2637.5093 2748.9221 2646.3066 2700.5291 Z" fill="none" stroke="#A9159C" opacity="0.352112676056338" stroke-width="1" class="tribeca"/>
<path d="M 2647.5163 2687.0505 2746.0614 2782.4643 2682.1998 2870.0405 2624.8238 2835.0009 2651.6795 2693.0424 2717.8376 2752.9646 2647.5163 2687.0505 Z" fill="none" stroke="#A9159C" opacity="0.352112676056338" stroke-width="1" class="tribeca"/>
<path d="M 2647.0531 2690.9679 2757.629 2797.4446 2731.9469 2836.1631 2728.0131 2847.9173 2725.2364 2855.2925 2719.6827 2869.8126 2708.1133 2880.6448 2693.3047 2884.562 2681.5038 2890.7842 2667.8522 2891.9353 2655.5899 2884.7889 2639.1634 2873.493 2624.3563 2867.0374 2610.9376 2860.3513 2624.3627 2823.9381 2626.6808 2793.9775 2635.7094 2752.4959 2639.8761 2734.2907 2639.8774 2724.151 2642.6565 2701.3372 2644.9707 2694.1938 2647.0531 2690.9679 Z" fill="none" stroke="#A9159C" opacity="0.352112676056338" stroke-width="1" class="tribeca"/>
<path d="M 2648.2099 2689.8159 2716.2181 2754.1168 2744.9047 2780.6206 2687.7527 2871.4239 2643.3319 2844.9139 2624.3602 2840.9932 2623.6663 2839.3797 2648.2099 2689.8159 Z" fill="none" stroke="#A9159C" opacity="0.352112676056338" stroke-width="1" class="tribeca"/>
<path d="M 2646.5904 2691.1983 2746.5241 2784.308 2673.6365 2895.1628 2616.9533 2860.1218 2646.8214 2693.7332 2646.5904 2691.1983 Z" fill="none" stroke="#A9159C" opacity="0.352112676056338" stroke-width="1" class="tribeca"/>
<path d="M 2647.9785 2690.2767 2715.7554 2754.3472 2638.469 2875.7978 2615.7964 2860.813 2617.879 2859.2 2647.9785 2690.2767 Z" fill="none" stroke="#A9159C" opacity="0.352112676056338" stroke-width="1" class="tribeca"/>
<path d="M 2653.0604 2752.9591 2706.7332 2749.2767 2699.3258 2811.0399 2647.5003 2814.7224 2653.0604 2752.9591 Z" fill="none" stroke="#A9159C" opacity="0.352112676056338" stroke-width="1" class="tribeca"/>
<path d="M 2744.4419 2781.7729 2697.4717 2854.83 2627.1408 2811.954 2648.4409 2692.5812 2744.4419 2781.7729 Z" fill="none" stroke="#A9159C" opacity="0.352112676056338" stroke-width="1" class="tribeca"/>
<path d="M 2617.8787 2860.8134 2647.9783 2692.5811 2742.3598 2777.394 2670.629 2889.8612 2617.8787 2860.8134 Z" fill="none" stroke="#A9159C" opacity="0.352112676056338" stroke-width="1" class="tribeca"/>
<path d="M 2666.9285 2874.6487 2645.6645 2695.807 2747.4494 2786.1517 2666.9285 2874.6487 Z" fill="none" stroke="#A9159C" opacity="0.352112676056338" stroke-width="1" class="tribeca"/>
<path d="M 2746.5241 2784.308 2680.347 2889.8622 2624.3584 2852.5171 2617.8802 2851.5942 2650.7548 2687.9727 2746.5241 2784.308 Z" fill="none" stroke="#A9159C" opacity="0.352112676056338" stroke-width="1" class="tribeca"/>
<path d="M 2647.0533 2689.3548 2745.136 2781.0815 2678.0336 2885.9436 2617.4178 2849.5198 2647.0533 2689.3548 Z" fill="none" stroke="#A9159C" opacity="0.352112676056338" stroke-width="1" class="tribeca"/>
<path d="M 2645.6655 2688.4329 2717.8401 2702.9571 2700.9529 2699.9603 2701.1815 2740.5191 2731.9481 2800.4401 2687.7529 2869.8105 2642.6381 2842.8395 2622.9723 2838.6882 2645.6655 2688.4329 Z" fill="none" stroke="#A9159C" opacity="0.352112676056338" stroke-width="1" class="tribeca"/>
<path d="M 2670.8708 2786.3776 2671.3336 2785.6863 2690.4205 2783.729 2689.4941 2796.7502 2670.8708 2786.3776 Z" fill="none" stroke="#A9159C" opacity="0.352112676056338" stroke-width="1" class="tribeca"/>
<path d="M 2647.2846 2689.5853 2744.9046 2781.0815 2692.1495 2862.8964 2625.7512 2822.0945 2647.2846 2689.5853 Z" fill="none" stroke="#A9159C" opacity="0.352112676056338" stroke-width="1" class="tribeca"/>
<path d="M 2623.4334 2849.7512 2647.5168 2682.9026 2746.5242 2778.7769 2680.8107 2879.2598 2623.4334 2849.7512 Z" fill="none" stroke="#A9159C" opacity="0.352112676056338" stroke-width="1" class="tribeca"/>
<path d="M 2678.0336 2885.9436 2619.0372 2850.4419 2647.5163 2687.0505 2745.136 2781.5424 2678.0336 2885.9436 Z" fill="none" stroke="#A9159C" opacity="0.352112676056338" stroke-width="1" class="tribeca"/>
<path d="M 2745.136 2779.6987 2648.9034 2694.4248 2682.6705 2779.2344 2742.3598 2778.7768 2696.5462 2854.8299 2627.6032 2814.2588 2647.5159 2690.2767 2648.9036 2692.5812 2745.136 2779.6987 Z" fill="none" stroke="#A9159C" opacity="0.352112676056338" stroke-width="1" class="tribeca"/>
<path d="M 2677.5708 2885.7131 2622.5076 2851.8254 2647.9786 2689.5854 2743.9792 2781.0815 2677.5708 2885.7131 Z" fill="none" stroke="#A9159C" opacity="0.352112676056338" stroke-width="1" class="tribeca"/>
<path d="M 2698.6286 2854.5996 2690.7624 2849.0675 2681.508 2843.5352 2672.9477 2840.0773 2665.7759 2834.5451 2668.3224 2820.4865 2669.2492 2806.428 2672.7218 2784.3036 2675.4994 2770.9372 2673.8809 2760.7968 2678.2778 2747.2004 2680.8245 2725.7686 2747.4496 2780.3902 2743.7478 2784.5384 2741.6655 2789.3781 2738.8891 2792.6045 2735.4185 2800.4402 2730.7911 2805.5104 2729.1715 2808.7369 2725.0067 2814.9594 2722.693 2817.9554 2715.2887 2830.631 2707.6529 2841.6934 2698.6286 2854.5996 Z" fill="none" stroke="#A9159C" opacity="0.352112676056338" stroke-width="1" class="tribeca"/>
<path d="M 2742.3597 2783.3861 2711.1238 2835.7012 2680.3476 2883.4085 2621.351 2850.2118 2649.1351 2691.1986 2745.3673 2781.5424 2746.5241 2781.7729 2724.7754 2814.4984 2742.3597 2783.3861 Z" fill="none" stroke="#A9159C" opacity="0.352112676056338" stroke-width="1" class="tribeca"/>
<path d="M 2647.5158 2691.1984 2742.8225 2780.3901 2678.2651 2884.0998 2622.5078 2850.212 2647.5158 2691.1984 Z" fill="none" stroke="#A9159C" opacity="0.352112676056338" stroke-width="1" class="tribeca"/>
<path d="M 2644.7401 2688.8937 2760.1739 2794.6791 2737.7313 2826.7139 2721.0735 2816.1115 2686.5958 2871.4238 2643.1006 2843.992 2620.1957 2839.6097 2644.7401 2688.8937 Z" fill="none" stroke="#A9159C" opacity="0.352112676056338" stroke-width="1" class="tribeca"/>
<path d="M 2616.9534 2859.8913 2647.9785 2690.2767 2744.2106 2782.0033 2669.703 2894.9319 2655.8213 2884.3279 2616.9534 2859.8913 Z" fill="none" stroke="#A9159C" opacity="0.352112676056338" stroke-width="1" class="tribeca"/>
<path d="M 2652.6045 2695.8079 2743.2851 2783.847 2691.9182 2862.6659 2628.528 2818.8683 2649.8291 2691.1987 2652.6045 2695.8079 Z" fill="none" stroke="#A9159C" opacity="0.352112676056338" stroke-width="1" class="tribeca"/>
<path d="M 2653.0677 2691.1991 2718.7627 2758.4956 2745.5987 2782.4643 2686.8274 2869.119 2620.6581 2841.9145 2653.0677 2691.1991 Z" fill="none" stroke="#A9159C" opacity="0.352112676056338" stroke-width="1" class="tribeca"/>
<path d="M 2748.3749 2781.5425 2737.7322 2796.7529 2724.3125 2817.4945 2703.0248 2852.0646 2698.9756 2854.8301 2692.8445 2851.6029 2686.5978 2847.6843 2681.1609 2844.1114 2675.4927 2841.1147 2670.5185 2838.5789 2665.6601 2835.467 2669.9411 2828.0923 2675.6104 2820.0263 2681.2796 2810.6928 2681.8583 2807.5815 2686.7173 2802.0507 2690.7668 2792.7172 2696.6669 2786.0342 2702.22 2778.0836 2703.4928 2772.7831 2707.6576 2765.2934 2715.4084 2753.8863 2720.1509 2756.9977 2726.5127 2763.6812 2732.2962 2770.4799 2737.7328 2774.8589 2743.8636 2778.5464 2746.9868 2782.5795 2748.3749 2781.5425 Z" fill="none" stroke="#A9159C" opacity="0.352112676056338" stroke-width="1" class="tribeca"/>
<path d="M 2619.7375 2810.1091 2641.0387 2689.3541 2728.9419 2763.1051 2668.7835 2835.9283 2619.7375 2810.1091 Z" fill="none" stroke="#A9159C" opacity="0.352112676056338" stroke-width="1" class="tribeca"/>
<path d="M 2647.0534 2688.894 2744.2106 2781.5424 2677.8023 2885.2522 2620.8881 2850.9032 2647.0534 2688.894 Z" fill="none" stroke="#A9159C" opacity="0.352112676056338" stroke-width="1" class="tribeca"/>
<path d="M 2647.9786 2689.8158 2744.6733 2779.6987 2679.4219 2885.7133 2620.888 2851.3641 2647.9786 2689.8158 Z" fill="none" stroke="#A9159C" opacity="0.352112676056338" stroke-width="1" class="tribeca"/>
<path d="M 2745.3674 2780.851 2677.5708 2885.7131 2619.5 2849.9811 2647.7473 2689.3549 2745.3674 2780.851 Z" fill="none" stroke="#A9159C" opacity="0.352112676056338" stroke-width="1" class="tribeca"/>
<path d="M 2687.3024 2721.6211 2742.3598 2780.6205 2700.2488 2846.072 2610.4721 2877.1765 2628.0669 2807.8057 2635.9385 2768.628 2635.4799 2739.1296 2650.2916 2692.1205 2687.3024 2721.6211 Z" fill="none" stroke="#A9159C" opacity="0.352112676056338" stroke-width="1" class="tribeca"/>
<path d="M 2656.7693 2689.356 2749.3004 2780.6207 2675.2578 2877.4154 2626.2112 2840.5325 2656.7693 2689.356 Z" fill="none" stroke="#A9159C" opacity="0.352112676056338" stroke-width="1" class="tribeca"/>
<path d="M 2744.9046 2781.0815 2677.8022 2885.9436 2620.4254 2850.6726 2645.203 2687.0502 2744.9046 2781.0815 Z" fill="none" stroke="#A9159C" opacity="0.352112676056338" stroke-width="1" class="tribeca"/>
<path d="M 2649.8293 2689.3552 2746.5242 2777.3941 2677.5709 2884.7912 2619.5001 2849.5201 2649.8293 2689.3552 Z" fill="none" stroke="#A9159C" opacity="0.352112676056338" stroke-width="1" class="tribeca"/>
<path d="M 2647.9787 2688.8941 2746.0614 2781.5424 2677.3395 2885.7131 2621.3508 2851.1337 2647.9787 2688.8941 Z" fill="none" stroke="#A9159C" opacity="0.352112676056338" stroke-width="1" class="tribeca"/>
<path d="M 2686.8273 2870.2714 2642.4065 2844.4528 2593.3564 2842.6014 2585.7223 2837.299 2589.4286 2813.3305 2603.7754 2799.7355 2625.2901 2811.0318 2647.0532 2690.7375 2743.5165 2780.1596 2686.8273 2870.2714 Z" fill="none" stroke="#A9159C" opacity="0.352112676056338" stroke-width="1" class="tribeca"/>
<path d="M 2743.7479 2780.6205 2694.9267 2853.2164 2603.0814 2799.5049 2647.5156 2692.5811 2743.7479 2780.6205 Z" fill="none" stroke="#A9159C" opacity="0.352112676056338" stroke-width="1" class="tribeca"/>
<path d="M 2745.136 2781.0815 2677.1081 2885.9436 2618.3431 2850.4418 2648.4412 2690.0463 2745.136 2781.0815 Z" fill="none" stroke="#A9159C" opacity="0.352112676056338" stroke-width="1" class="tribeca"/>
<path d="M 2655.8428 2699.4953 2740.046 2787.0734 2624.3587 2850.6732 2655.8428 2699.4953 Z" fill="none" stroke="#A9159C" opacity="0.352112676056338" stroke-width="1" class="tribeca"/>
<path d="M 2647.9787 2689.355 2744.2106 2781.5424 2678.0337 2884.3302 2620.6567 2851.1336 2647.9787 2689.355 Z" fill="none" stroke="#A9159C" opacity="0.352112676056338" stroke-width="1" class="tribeca"/>
<path d="M 2741.897 2781.5423 2676.1824 2887.5569 2617.881 2846.0627 2644.7386 2700.4157 2661.3946 2701.3395 2741.897 2781.5423 Z" fill="none" stroke="#A9159C" opacity="0.352112676056338" stroke-width="1" class="tribeca"/>
<path d="M 2619.7331 2838.6877 2647.5155 2693.0419 2740.9717 2779.6986 2682.6626 2869.1186 2619.7331 2838.6877 Z" fill="none" stroke="#A9159C" opacity="0.352112676056338" stroke-width="1" class="tribeca"/>
<path d="M 2622.0466 2840.0709 2647.399 2699.6095 2660.9319 2701.5699 2715.7554 2753.8863 2745.5987 2781.1967 2713.0907 2830.2852 2687.29 2870.9629 2643.1006 2844.6834 2622.0466 2840.0709 Z" fill="none" stroke="#A9159C" opacity="0.352112676056338" stroke-width="1" class="tribeca"/>
<path d="M 2647.0534 2688.894 2745.136 2781.5424 2700.2483 2852.5254 2629.4543 2812.8762 2647.0534 2688.894 Z" fill="none" stroke="#A9159C" opacity="0.352112676056338" stroke-width="1" class="tribeca"/>
<path d="M 2645.1999 2711.4771 2676.1986 2716.3199 2741.6656 2783.6165 2688.2156 2870.2715 2626.2115 2838.4582 2645.1999 2711.4771 Z" fill="none" stroke="#A9159C" opacity="0.352112676056338" stroke-width="1" class="tribeca"/>
<path d="M 2646.3581 2699.2637 2659.0813 2700.4174 2759.4799 2793.9877 2733.1037 2834.5498 2725.236 2864.0508 2721.071 2869.8127 2628.5286 2814.7198 2646.3581 2699.2637 Z" fill="none" stroke="#A9159C" opacity="0.352112676056338" stroke-width="1" class="tribeca"/>
<path d="M 2647.2847 2688.894 2716.4495 2753.4254 2701.4103 2776.9312 2631.543 2767.7055 2647.2847 2688.894 Z" fill="none" stroke="#A9159C" opacity="0.352112676056338" stroke-width="1" class="tribeca"/>
<path d="M 2645.2029 2687.5111 2759.9426 2795.6009 2728.0135 2839.6201 2727.087 2863.5899 2721.5338 2868.1993 2696.5463 2853.447 2687.5214 2871.0782 2659.9895 2853.9046 2641.4811 2843.3003 2622.5093 2840.5319 2645.2029 2687.5111 Z" fill="none" stroke="#A9159C" opacity="0.352112676056338" stroke-width="1" class="tribeca"/>
<path d="M 2647.9787 2688.8941 2745.1359 2783.3861 2677.6865 2886.0589 2620.4253 2851.0184 2647.9787 2688.8941 Z" fill="none" stroke="#A9159C" opacity="0.352112676056338" stroke-width="1" class="tribeca"/>
<path d="M 2715.9868 2753.4254 2656.7507 2850.2166 2643.3319 2844.5682 2664.8641 2706.2944 2715.9868 2753.4254 Z" fill="none" stroke="#A9159C" opacity="0.352112676056338" stroke-width="1" class="tribeca"/>
<path d="M 2749.3001 2795.3703 2745.136 2782.4643 2696.0836 2853.6775 2645.6482 2824.6324 2663.7071 2708.4835 2749.3001 2795.3703 Z" fill="none" stroke="#A9159C" opacity="0.352112676056338" stroke-width="1" class="tribeca"/>
<path d="M 2681.0563 2720.4684 2748.1437 2778.0856 2696.7769 2864.2796 2646.3408 2836.3867 2667.6401 2705.949 2681.0563 2720.4684 Z" fill="none" stroke="#A9159C" opacity="0.352112676056338" stroke-width="1" class="tribeca"/>
<path d="M 2648.4414 2688.8941 2745.3674 2780.851 2677.8022 2885.4826 2618.806 2849.52 2648.4414 2688.8941 Z" fill="none" stroke="#A9159C" opacity="0.352112676056338" stroke-width="1" class="tribeca"/>
<path d="M 2677.3394 2886.1741 2618.1119 2849.5199 2642.4233 2715.3943 2647.9787 2688.8941 2744.9046 2782.0033 2677.3394 2886.1741 Z" fill="none" stroke="#A9159C" opacity="0.352112676056338" stroke-width="1" class="tribeca"/>
<path d="M 2744.9047 2780.6206 2706.0334 2840.5409 2697.009 2854.369 2626.4468 2811.4929 2646.5904 2691.1983 2744.9047 2780.6206 Z" fill="none" stroke="#A9159C" opacity="0.352112676056338" stroke-width="1" class="tribeca"/>
<path d="M 2679.8965 2754.8055 2736.3442 2793.5263 2571.6028 2866.3366 2639.1798 2751.1137 2679.8965 2754.8055 Z" fill="none" stroke="#A9159C" opacity="0.352112676056338" stroke-width="1" class="tribeca"/>
<path d="M 2652.1418 2695.8078 2746.5241 2782.0034 2686.5959 2870.2714 2625.286 2838.4581 2652.1418 2695.8078 Z" fill="none" stroke="#A9159C" opacity="0.352112676056338" stroke-width="1" class="tribeca"/>
<path d="M 2744.9046 2781.5424 2677.5708 2885.9436 2619.4999 2850.6725 2646.822 2689.5852 2744.9046 2781.5424 Z" fill="none" stroke="#A9159C" opacity="0.352112676056338" stroke-width="1" class="tribeca"/>
<path d="M 2647.5159 2689.8158 2715.2928 2753.6558 2665.5445 2834.7756 2630.6111 2812.8764 2647.5159 2689.8158 Z" fill="none" stroke="#A9159C" opacity="0.352112676056338" stroke-width="1" class="tribeca"/>
<path d="M 2645.6656 2687.5111 2743.7479 2781.0815 2677.5708 2885.7131 2614.6409 2852.0546 2645.6656 2687.5111 Z" fill="none" stroke="#A9159C" opacity="0.352112676056338" stroke-width="1" class="tribeca"/>
<path d="M 2648.21 2689.5854 2765.2638 2800.4407 2761.3307 2803.8977 2755.3154 2801.593 2731.9469 2835.2412 2715.0576 2824.8692 2680.1166 2878.7988 2641.4798 2853.4414 2646.8051 2824.1716 2628.0663 2811.9541 2627.8351 2810.5713 2648.21 2689.5854 Z" fill="none" stroke="#A9159C" opacity="0.352112676056338" stroke-width="1" class="tribeca"/>
<path d="M 2646.8218 2690.7374 2714.83 2754.8081 2665.5443 2836.1584 2628.7604 2811.9542 2646.8218 2690.7374 Z" fill="none" stroke="#A9159C" opacity="0.352112676056338" stroke-width="1" class="tribeca"/>
<path d="M 2737.9637 2791.6826 2666.9256 2902.5378 2610.6996 2900.9168 2638.0235 2748.1176 2709.2781 2746.9723 2745.5987 2781.7729 2737.9637 2791.6826 Z" fill="none" stroke="#A9159C" opacity="0.352112676056338" stroke-width="1" class="tribeca"/>
<path d="M 2647.7472 2690.2767 2759.9426 2794.9095 2685.2059 2891.015 2619.9627 2850.6726 2647.7472 2690.2767 Z" fill="none" stroke="#A9159C" opacity="0.352112676056338" stroke-width="1" class="tribeca"/>
<path d="M 2646.1281 2688.433 2745.5987 2781.0815 2679.422 2883.8694 2620.194 2850.6726 2646.1281 2688.433 Z" fill="none" stroke="#A9159C" opacity="0.352112676056338" stroke-width="1" class="tribeca"/>
<path d="M 2647.516 2689.3549 2747.4495 2781.5425 2697.9345 2854.369 2628.067 2807.3447 2647.516 2689.3549 Z" fill="none" stroke="#A9159C" opacity="0.352112676056338" stroke-width="1" class="tribeca"/>
<path d="M 2758.5545 2793.5267 2583.6117 2983.8924 2648.9043 2686.5898 2816.3956 2827.1739 2758.5545 2793.5267 Z" fill="none" stroke="#A9159C" opacity="0.352112676056338" stroke-width="1" class="tribeca"/>
<path d="M 2648.9039 2690.0464 2728.7105 2765.6402 2665.5409 2868.4255 2620.427 2840.5316 2648.9039 2690.0464 Z" fill="none" stroke="#A9159C" opacity="0.352112676056338" stroke-width="1" class="tribeca"/>
<path d="M 2743.7479 2778.7768 2740.9714 2789.6085 2731.9481 2802.2839 2725.2382 2811.9633 2717.834 2824.1779 2708.5786 2838.2363 2697.2405 2853.4471 2631.5367 2812.1851 2650.2919 2690.277 2651.2172 2690.2771 2649.1353 2689.816 2649.5979 2689.5856 2733.1059 2770.9409 2743.7479 2778.7768 Z" fill="none" stroke="#A9159C" opacity="0.352112676056338" stroke-width="1" class="tribeca"/>
<path d="M 2648.4413 2689.355 2727.5538 2763.7965 2661.6068 2875.3396 2621.1195 2850.4423 2648.4413 2689.355 Z" fill="none" stroke="#A9159C" opacity="0.352112676056338" stroke-width="1" class="tribeca"/>
<path d="M 2647.0534 2689.1244 2745.83 2781.7729 2679.6532 2886.1743 2621.3509 2850.4423 2647.0534 2689.1244 Z" fill="none" stroke="#A9159C" opacity="0.352112676056338" stroke-width="1" class="tribeca"/>
<path d="M 2648.4415 2687.5115 2748.3749 2783.3862 2609.5278 2990.8124 2648.4415 2687.5115 Z" fill="none" stroke="#A9159C" opacity="0.352112676056338" stroke-width="1" class="tribeca"/>
<path d="M 2649.3666 2689.816 2715.9868 2754.3472 2640.0887 2875.1065 2649.3666 2689.816 Z" fill="none" stroke="#A9159C" opacity="0.352112676056338" stroke-width="1" class="tribeca"/>
<path d="M 2624.8238 2835.0009 2626.4445 2827.165 2626.6775 2815.8719 2628.9925 2806.8839 2631.5387 2797.8961 2632.6971 2786.6035 2634.7816 2770.0106 2638.2543 2751.8049 2640.1073 2734.7517 2643.348 2720.6947 2643.8126 2705.7158 2648.4413 2689.8159 2654.4553 2694.4254 2661.3945 2701.8004 2666.7147 2706.4098 2679.6684 2719.5465 2687.0709 2723.6952 2692.8537 2732.2222 2700.9504 2736.3709 2710.8974 2748.816 2721.0763 2757.5738 2732.8747 2767.7145 2744.2106 2780.851 2740.2774 2788.2257 2736.5755 2793.2958 2730.0972 2801.5924 2726.3952 2808.9672 2721.7675 2817.2639 2715.7517 2824.6387 2709.7355 2836.3926 2700.7113 2849.2987 2695.6205 2857.5956 2690.761 2866.3535 2683.5875 2876.2637 2678.0338 2883.4083 2672.7122 2882.2553 2665.5401 2876.4925 2656.054 2873.0341 2649.3447 2867.5017 2638.471 2860.8164 2629.9106 2857.5884 2621.1197 2849.7508 2622.9716 2843.0673 2624.8238 2835.0009 Z" fill="none" stroke="#A9159C" opacity="0.352112676056338" stroke-width="1" class="tribeca"/>
<path d="M 2677.5708 2885.7131 2621.1195 2850.9032 2679.437 2719.316 2745.136 2780.1596 2677.5708 2885.7131 Z" fill="none" stroke="#A9159C" opacity="0.352112676056338" stroke-width="1" class="tribeca"/>
<path d="M 2786.3059 3282.7063 2824.9042 3238.4263 2873.5799 3248.6539 2874.8789 3336.032 2849.8828 3390.4568 2780.432 3408.9094 2756.3553 3402.4523 2727.6502 3360.0199 2767.1728 3254.2714 2786.3059 3282.7063 Z" fill="none" stroke="#A9159C" opacity="0.352112676056338" stroke-width="1" class="tribeca"/>
<path d="M 2647.516 2689.3549 2727.3224 2764.7183 2679.4256 2844.4569 2625.984 2811.9538 2647.516 2689.3549 Z" fill="none" stroke="#A9159C" opacity="0.352112676056338" stroke-width="1" class="tribeca"/>
<path d="M 2647.9787 2688.8941 2766.4206 2799.9798 2766.4206 2801.8235 2728.4753 2863.129 2674.3307 2894.4714 2623.4329 2852.5169 2647.9787 2688.8941 Z" fill="none" stroke="#A9159C" opacity="0.352112676056338" stroke-width="1" class="tribeca"/>
<path d="M 2642.8891 2691.1978 2646.1278 2690.7374 2745.136 2781.0815 2692.1495 2862.8964 2625.9824 2823.0164 2642.8891 2691.1978 Z" fill="none" stroke="#A9159C" opacity="0.352112676056338" stroke-width="1" class="tribeca"/>
<path d="M 2672.7111 2893.5493 2655.8214 2883.1755 2640.7847 2861.2776 2624.5917 2840.0713 2648.6724 2691.1986 2699.0997 2735.6795 2692.3862 2795.1372 2694.4684 2794.9069 2690.0723 2798.8244 2717.6027 2824.4083 2672.9428 2890.5529 2672.7111 2893.5493 Z" fill="none" stroke="#A9159C" opacity="0.352112676056338" stroke-width="1" class="tribeca"/>
<path d="M 2647.5161 2688.4331 2746.9868 2782.4643 2697.9345 2853.9081 2625.7527 2811.4928 2647.5161 2688.4331 Z" fill="none" stroke="#A9159C" opacity="0.352112676056338" stroke-width="1" class="tribeca"/>
<path d="M 2647.0533 2689.3548 2745.3674 2781.0815 2697.2403 2855.9823 2625.7527 2811.7233 2647.0533 2689.3548 Z" fill="none" stroke="#A9159C" opacity="0.352112676056338" stroke-width="1" class="tribeca"/>
<path d="M 2654.9181 2693.9646 2765.0325 2794.4486 2616.9341 2982.5151 2592.873 2955.7722 2654.9181 2693.9646 Z" fill="none" stroke="#A9159C" opacity="0.352112676056338" stroke-width="1" class="tribeca"/>
<path d="M 2748.3749 2783.3862 2678.0337 2884.7912 2642.8888 2693.9631 2647.5156 2692.1202 2748.3749 2783.3862 Z" fill="none" stroke="#A9159C" opacity="0.352112676056338" stroke-width="1" class="tribeca"/>
<path d="M 2647.5159 2690.0462 2744.9046 2780.851 2678.0336 2885.7132 2620.4252 2852.0555 2647.5159 2690.0462 Z" fill="none" stroke="#A9159C" opacity="0.352112676056338" stroke-width="1" class="tribeca"/>
<path d="M 2745.5987 2781.5424 2596.5686 2993.5763 2652.1406 2705.9473 2648.9034 2694.4248 2745.5987 2781.5424 Z" fill="none" stroke="#A9159C" opacity="0.352112676056338" stroke-width="1" class="tribeca"/>
<path d="M 2759.4799 2794.4486 2732.4096 2834.7803 2716.6772 2824.6388 2687.29 2871.4239 2642.8692 2844.2224 2619.9644 2839.3792 2647.7471 2690.968 2759.4799 2794.4486 Z" fill="none" stroke="#A9159C" opacity="0.352112676056338" stroke-width="1" class="tribeca"/>
<path d="M 2751.3827 2774.3982 2694.9264 2857.3651 2649.1188 2823.0196 2668.566 2700.6489 2745.3674 2780.1597 2746.7556 2777.3941 2751.3827 2774.3982 Z" fill="none" stroke="#A9159C" opacity="0.352112676056338" stroke-width="1" class="tribeca"/>
<path d="M 2742.8224 2784.3079 2692.8438 2861.2831 2629.9171 2812.6458 2742.8224 2784.3079 Z" fill="none" stroke="#A9159C" opacity="0.352112676056338" stroke-width="1" class="tribeca"/>
<path d="M 2647.9078 2695.6957 2652.7439 2694.9762 2745.9283 2783.8418 2689.5159 2870.5371 2645.5577 2844.4883 2623.4429 2840.3074 2647.9078 2695.6957 Z" fill="none" stroke="#A9159C" opacity="0.352112676056338" stroke-width="1" class="tribeca"/>
<path d="M 2651.6857 2641.886 2737.7364 2654.7965 2799.2698 2693.9705 2744.2106 2781.0815 2651.2175 2687.9727 2651.6857 2641.886 Z" fill="none" stroke="#A9159C" opacity="0.352112676056338" stroke-width="1" class="tribeca"/>
<path d="M 2641.9639 2690.2759 2741.8971 2776.9331 2684.513 2876.4943 2621.5831 2845.1413 2641.9639 2690.2759 Z" fill="none" stroke="#A9159C" opacity="0.352112676056338" stroke-width="1" class="tribeca"/>
<path d="M 2643.815 2686.5892 2766.8833 2801.8235 2707.6503 2884.7935 2618.8132 2802.734 2643.815 2686.5892 Z" fill="none" stroke="#A9159C" opacity="0.352112676056338" stroke-width="1" class="tribeca"/>
<path d="M 2744.6733 2779.6987 2675.2569 2886.6348 2619.7316 2848.8287 2649.3661 2693.9639 2744.6733 2779.6987 Z" fill="none" stroke="#A9159C" opacity="0.352112676056338" stroke-width="1" class="tribeca"/>
<path d="M 2612.3296 2837.3037 2669.2439 2858.7457 2685.4389 2872.5761 2637.9963 2949.5557 2612.3296 2837.3037 Z" fill="none" stroke="#A9159C" opacity="0.352112676056338" stroke-width="1" class="tribeca"/>
<path d="M 2744.6732 2787.0735 2677.1079 2887.557 2626.2093 2853.4393 2649.3658 2695.8075 2744.6732 2787.0735 Z" fill="none" stroke="#A9159C" opacity="0.352112676056338" stroke-width="1" class="tribeca"/>
<path d="M 2684.7452 2867.0445 2677.5729 2863.8171 2625.0546 2838.6885 2650.9848 2698.573 2742.1284 2782.2337 2687.753 2867.9666 2684.7452 2867.0445 Z" fill="none" stroke="#A9159C" opacity="0.352112676056338" stroke-width="1" class="tribeca"/>
<path d="M 2644.7379 2705.9464 2782.6159 2808.2765 2742.8205 2861.7466 2681.7354 2888.4793 2620.6566 2851.5946 2644.7379 2705.9464 Z" fill="none" stroke="#A9159C" opacity="0.352112676056338" stroke-width="1" class="tribeca"/>
<path d="M 2646.5907 2689.3548 2747.4495 2780.6206 2680.8106 2881.1037 2616.955 2849.7502 2646.5907 2689.3548 Z" fill="none" stroke="#A9159C" opacity="0.352112676056338" stroke-width="1" class="tribeca"/>
<path d="M 2650.754 2694.8859 2780.7651 2814.2687 2613.7082 2896.7685 2650.754 2694.8859 Z" fill="none" stroke="#A9159C" opacity="0.352112676056338" stroke-width="1" class="tribeca"/>
<path d="M 2743.7479 2781.5424 2658.5988 2875.5698 2613.253 2849.7496 2648.441 2691.6594 2743.7479 2781.5424 Z" fill="none" stroke="#A9159C" opacity="0.352112676056338" stroke-width="1" class="tribeca"/>
<path d="M 2646.5904 2691.1983 2648.9038 2691.1986 2743.7479 2780.1596 2677.571 2883.4082 2622.0451 2850.2119 2646.5904 2691.1983 Z" fill="none" stroke="#A9159C" opacity="0.352112676056338" stroke-width="1" class="tribeca"/>
<path d="M 2672.9423 2895.1627 2654.8959 2883.4059 2662.5323 2874.8788 2639.859 2862.1994 2617.4177 2849.7503 2646.8221 2688.2026 2745.5987 2781.5424 2672.9423 2895.1627 Z" fill="none" stroke="#A9159C" opacity="0.352112676056338" stroke-width="1" class="tribeca"/>
<path d="M 2648.4402 2698.5726 2742.8225 2779.6987 2678.034 2881.1034 2615.1037 2851.5937 2648.4402 2698.5726 Z" fill="none" stroke="#A9159C" opacity="0.352112676056338" stroke-width="1" class="tribeca"/>
<path d="M 2646.5908 2688.433 2706.7334 2746.5112 2709.0439 2794.9078 2668.3181 2862.2028 2620.6587 2838.2269 2647.053 2691.6592 2646.5908 2688.433 Z" fill="none" stroke="#A9159C" opacity="0.352112676056338" stroke-width="1" class="tribeca"/>
<path d="M 2745.3674 2781.0815 2687.5214 2870.9629 2642.8692 2844.4529 2622.972 2840.532 2647.7473 2689.8158 2745.3674 2781.0815 Z" fill="none" stroke="#A9159C" opacity="0.352112676056338" stroke-width="1" class="tribeca"/>
<path d="M 2719.9195 2757.3433 2708.1214 2747.4331 2758.5544 2795.6009 2721.7651 2869.3517 2625.2901 2810.5709 2623.2063 2821.4027 2622.7434 2822.3245 2645.2025 2690.7372 2722.0016 2759.1871 2645.434 2689.5851 2719.4569 2756.4215 2759.7112 2794.4486 2719.9195 2757.3433 Z" fill="none" stroke="#A9159C" opacity="0.352112676056338" stroke-width="1" class="tribeca"/>
<path d="M 2744.4419 2781.7729 2627.372 2813.3368 2647.0535 2688.2026 2744.4419 2781.7729 Z" fill="none" stroke="#A9159C" opacity="0.352112676056338" stroke-width="1" class="tribeca"/>
<path d="M 2745.1359 2783.3861 2624.1273 2850.6732 2636.864 2768.3976 2716.4494 2756.1909 2745.1359 2783.3861 Z" fill="none" stroke="#A9159C" opacity="0.352112676056338" stroke-width="1" class="tribeca"/>
<path d="M 2768.2715 2799.9798 2718.2942 2874.6527 2675.719 2894.0105 2618.8065 2846.0628 2640.1071 2736.8257 2768.2715 2799.9798 Z" fill="none" stroke="#A9159C" opacity="0.352112676056338" stroke-width="1" class="tribeca"/>
<path d="M 2743.8265 2781.1575 2692.3046 2862.8964 2625.9825 2822.325 2647.4397 2688.6613 2743.8265 2781.1575 Z" fill="none" stroke="#A9159C" opacity="0.352112676056338" stroke-width="1" class="tribeca"/>
<path d="M 2647.516 2689.3549 2745.3674 2780.6206 2687.9842 2870.502 2587.8069 2824.8538 2647.516 2689.3549 Z" fill="none" stroke="#A9159C" opacity="0.352112676056338" stroke-width="1" class="tribeca"/>
<path d="M 2727.3224 2763.7965 2679.4257 2844.2265 2647.0363 2825.324 2666.0206 2707.7924 2727.3224 2763.7965 Z" fill="none" stroke="#A9159C" opacity="0.352112676056338" stroke-width="1" class="tribeca"/>
<path d="M 2625.9841 2811.4929 2631.5405 2785.451 2635.7093 2753.1873 2644.736 2720.4644 2645.4321 2704.3333 2646.3587 2694.6549 2647.7473 2689.5854 2726.8597 2765.4096 2703.4909 2801.8215 2695.8549 2817.7233 2679.1942 2844.6874 2665.541 2867.7341 2641.711 2854.5938 2631.7625 2851.1353 2620.4263 2844.6802 2625.9841 2811.4929 Z" fill="none" stroke="#A9159C" opacity="0.352112676056338" stroke-width="1" class="tribeca"/>
<path d="M 2743.0538 2780.851 2694.9267 2854.1383 2625.2902 2810.11 2648.9042 2687.2811 2743.0538 2780.851 Z" fill="none" stroke="#A9159C" opacity="0.352112676056338" stroke-width="1" class="tribeca"/>
<path d="M 2744.6733 2781.0815 2697.2403 2855.0604 2625.9841 2811.4929 2628.994 2796.5129 2621.5909 2794.2072 2623.6756 2777.3837 2618.8174 2776.0002 2619.0491 2773.6956 2586.6611 2766.5458 2588.2819 2759.4019 2624.14 2766.0912 2624.8347 2761.4822 2594.5291 2755.0244 2594.7618 2747.6499 2616.739 2751.8018 2617.665 2747.8842 2628.7693 2749.96 2638.7254 2689.3538 2639.8831 2681.0581 2744.6733 2781.0815 Z" fill="none" stroke="#A9159C" opacity="0.352112676056338" stroke-width="1" class="tribeca"/>
<path d="M 2745.136 2781.0815 2686.5959 2870.7324 2643.332 2844.453 2619.733 2839.8401 2641.5018 2685.6671 2745.136 2781.0815 Z" fill="none" stroke="#A9159C" opacity="0.352112676056338" stroke-width="1" class="tribeca"/>
<path d="M 2745.136 2779.6987 2687.7527 2871.8849 2623.435 2838.6883 2647.9788 2688.4332 2745.136 2779.6987 Z" fill="none" stroke="#A9159C" opacity="0.352112676056338" stroke-width="1" class="tribeca"/>
<path d="M 2744.6733 2780.6206 2697.4718 2854.369 2621.126 2808.4961 2640.5767 2684.5148 2640.5769 2683.1321 2744.6733 2780.6206 Z" fill="none" stroke="#A9159C" opacity="0.352112676056338" stroke-width="1" class="tribeca"/>
<path d="M 2647.0533 2689.5853 2726.1657 2763.7964 2666.2352 2867.2732 2621.1207 2842.606 2620.1952 2843.2973 2647.0533 2689.5853 Z" fill="none" stroke="#A9159C" opacity="0.352112676056338" stroke-width="1" class="tribeca"/>
<path d="M 2647.516 2689.3549 2768.7342 2805.511 2733.5657 2856.2147 2628.0666 2810.1104 2647.516 2689.3549 Z" fill="none" stroke="#A9159C" opacity="0.352112676056338" stroke-width="1" class="tribeca"/>
<path d="M 2646.3591 2691.1983 2743.2852 2779.9291 2700.0175 2845.3805 2625.0587 2811.0318 2646.3591 2691.1983 Z" fill="none" stroke="#A9159C" opacity="0.352112676056338" stroke-width="1" class="tribeca"/>
<path d="M 2651.6799 2689.8163 2746.9869 2779.2378 2679.8848 2883.6389 2622.5078 2849.9815 2651.6799 2689.8163 Z" fill="none" stroke="#A9159C" opacity="0.352112676056338" stroke-width="1" class="tribeca"/>
<path d="M 2745.5987 2780.6206 2678.3807 2885.3675 2621.0037 2851.2489 2647.0534 2688.4331 2745.5987 2780.6206 Z" fill="none" stroke="#A9159C" opacity="0.352112676056338" stroke-width="1" class="tribeca"/>
<path d="M 2697.9359 2835.1242 2703.7195 2843.076 2678.7278 2885.2522 2619.4994 2854.1297 2633.1678 2729.796 2738.0794 2792.0283 2706.9589 2840.7714 2697.9359 2835.1242 Z" fill="none" stroke="#A9159C" opacity="0.352112676056338" stroke-width="1" class="tribeca"/>
<path d="M 2615.1124 2796.7413 2612.3362 2796.7408 2612.798 2802.2721 2650.7622 2627.1386 2721.5444 2640.5093 2727.0928 2721.6236 2680.351 2845.1485 2615.1124 2796.7413 Z" fill="none" stroke="#A9159C" opacity="0.352112676056338" stroke-width="1" class="tribeca"/>
<path d="M 2651.2272 2607.3223 3089.8108 2656.1238 2995.4914 2905.0503 2787.2463 2947.4896 2641.9166 3051.6745 2602.1163 3028.6159 2556.7724 2967.7512 2579.9477 2787.9774 2626.2191 2787.0635 2652.1503 2625.7562 2651.2272 2607.3223 Z" fill="none" stroke="#A9159C" opacity="0.352112676056338" stroke-width="1" class="tribeca"/>
<path d="M 2744.6733 2780.6206 2671.5541 2894.4711 2617.4158 2861.7352 2640.114 2684.7452 2744.6733 2780.6206 Z" fill="none" stroke="#A9159C" opacity="0.352112676056338" stroke-width="1" class="tribeca"/>
<path d="M 2648.4414 2688.8941 2746.0614 2781.0815 2688.2156 2870.041 2624.3616 2831.3132 2648.4414 2688.8941 Z" fill="none" stroke="#A9159C" opacity="0.352112676056338" stroke-width="1" class="tribeca"/>
<path d="M 2676.5589 2722.5936 2748.5267 2783.4378 2677.26 2883.9208 2676.5589 2722.5936 Z" fill="none" stroke="#A9159C" opacity="0.352112676056338" stroke-width="1" class="tribeca"/>
<path d="M 2648.6726 2689.8159 2759.4799 2794.6791 2680.1158 2888.0182 2616.0296 2849.2891 2648.6726 2689.8159 Z" fill="none" stroke="#A9159C" opacity="0.352112676056338" stroke-width="1" class="tribeca"/>
<path d="M 2645.6657 2686.5894 2743.7478 2782.4642 2671.7856 2893.3187 2614.1771 2858.508 2645.6657 2686.5894 Z" fill="none" stroke="#A9159C" opacity="0.352112676056338" stroke-width="1" class="tribeca"/>
<path d="M 2647.2848 2687.9722 2712.9793 2752.7339 2658.1399 2842.3805 2623.4376 2821.4027 2647.2848 2687.9722 Z" fill="none" stroke="#A9159C" opacity="0.352112676056338" stroke-width="1" class="tribeca"/>
<path d="M 2645.6655 2688.4329 2745.5987 2781.0815 2696.7776 2855.0604 2625.5214 2811.4928 2644.7379 2705.9464 2645.6655 2688.4329 Z" fill="none" stroke="#A9159C" opacity="0.352112676056338" stroke-width="1" class="tribeca"/>
<path d="M 2626.6802 2797.6649 2652.148 2644.1903 2722.0066 2650.1873 2798.3444 2693.5096 2701.1738 2852.9864 2626.2157 2810.1101 2626.6802 2797.6649 Z" fill="none" stroke="#A9159C" opacity="0.352112676056338" stroke-width="1" class="tribeca"/>
<path d="M 2616.9544 2853.4378 2640.107 2737.2866 2762.2561 2802.7454 2689.1391 2894.9337 2616.9544 2853.4378 Z" fill="none" stroke="#A9159C" opacity="0.352112676056338" stroke-width="1" class="tribeca"/>
<path d="M 2648.2099 2689.8159 2759.9426 2794.4486 2737.7313 2826.7139 2721.9989 2816.5725 2687.5214 2871.1934 2643.1006 2843.992 2622.0466 2840.0709 2648.2099 2689.8159 Z" fill="none" stroke="#A9159C" opacity="0.352112676056338" stroke-width="1" class="tribeca"/>
<path d="M 2603.8911 2799.505 2625.1765 2797.2038 2630.2705 2768.1662 2638.487 2741.665 2645.4337 2692.1199 2695.8608 2737.5228 2726.1658 2761.7223 2692.8498 2783.614 2666.0089 2818.873 2626.9116 2797.4345 2639.4068 2783.8388 2603.8911 2799.505 Z" fill="none" stroke="#A9159C" opacity="0.352112676056338" stroke-width="1" class="tribeca"/>
<path d="M 2649.3662 2693.0422 2743.2852 2780.6205 2687.2902 2868.6581 2643.795 2842.3787 2625.7488 2838.2277 2649.3662 2693.0422 Z" fill="none" stroke="#A9159C" opacity="0.352112676056338" stroke-width="1" class="tribeca"/>
<path d="M 2647.516 2689.2397 2758.9015 2794.7943 2722.3436 2868.7756 2627.372 2813.5673 2647.516 2689.2397 Z" fill="none" stroke="#A9159C" opacity="0.352112676056338" stroke-width="1" class="tribeca"/>
<path d="M 2649.2508 2690.7377 2743.0538 2779.4682 2678.9594 2882.4864 2624.5903 2849.2904 2649.2508 2690.7377 Z" fill="none" stroke="#A9159C" opacity="0.352112676056338" stroke-width="1" class="tribeca"/>
<path d="M 2748.3749 2781.5425 2699.3227 2854.3691 2656.753 2830.8565 2624.8277 2808.7271 2648.9041 2687.9724 2748.3749 2781.5425 Z" fill="none" stroke="#A9159C" opacity="0.352112676056338" stroke-width="1" class="tribeca"/>
<path d="M 2646.1283 2687.0503 2767.346 2801.8235 2657.6682 2920.7458 2600.2899 2886.1637 2646.1283 2687.0503 Z" fill="none" stroke="#A9159C" opacity="0.352112676056338" stroke-width="1" class="tribeca"/>
<path d="M 2671.9011 2894.5864 2617.4167 2856.2037 2647.4001 2690.968 2666.1363 2706.9858 2744.4419 2781.1967 2671.9011 2894.5864 Z" fill="none" stroke="#A9159C" opacity="0.352112676056338" stroke-width="1" class="tribeca"/>
<path d="M 2695.6204 2858.9785 2668.7832 2838.694 2693.7748 2787.9929 2753.0015 2823.0266 2727.0866 2874.6531 2695.6204 2858.9785 Z" fill="none" stroke="#A9159C" opacity="0.352112676056338" stroke-width="1" class="tribeca"/>
<path d="M 2648.9034 2693.9639 2661.3969 2680.5999 2684.0672 2679.6803 2727.0943 2685.6745 2749.3019 2692.1274 2742.3612 2720.2414 2736.3455 2750.6608 2723.8511 2787.5338 2709.9682 2814.7281 2687.2909 2859.8997 2672.0195 2868.1957 2622.9719 2841.4539 2626.68 2799.0477 2635.0153 2752.9568 2648.9034 2693.9639 Z" fill="none" stroke="#A9159C" opacity="0.352112676056338" stroke-width="1" class="tribeca"/>
<path d="M 2621.8135 2851.5948 2648.4404 2696.7291 2664.8646 2701.3398 2744.6733 2779.9292 2678.4964 2884.7913 2621.8135 2851.5948 Z" fill="none" stroke="#A9159C" opacity="0.352112676056338" stroke-width="1" class="tribeca"/>
<path d="M 2621.1196 2850.2118 2646.1282 2687.9721 2646.5906 2690.0461 2778.2201 2812.425 2807.1409 2825.1001 2738.1926 2877.8803 2683.5862 2891.2454 2621.1196 2850.2118 Z" fill="none" stroke="#A9159C" opacity="0.352112676056338" stroke-width="1" class="tribeca"/>
<path d="M 2621.8135 2851.5948 2644.7401 2688.4328 2745.5986 2784.308 2678.2651 2884.7912 2621.8135 2851.5948 Z" fill="none" stroke="#A9159C" opacity="0.352112676056338" stroke-width="1" class="tribeca"/>
<path d="M 2647.9787 2688.6636 2747.9123 2780.3902 2686.8274 2869.3495 2620.6592 2834.5393 2647.9787 2688.6636 Z" fill="none" stroke="#A9159C" opacity="0.352112676056338" stroke-width="1" class="tribeca"/>
<path d="M 2676.8767 2885.4826 2621.5817 2854.3605 2646.5905 2690.2765 2715.9869 2751.1208 2702.1066 2743.7455 2745.136 2779.9292 2676.8767 2885.4826 Z" fill="none" stroke="#A9159C" opacity="0.352112676056338" stroke-width="1" class="tribeca"/>
<path d="M 2677.108 2886.635 2619.2688 2848.8286 2646.1284 2686.1286 2746.5241 2782.4643 2677.108 2886.635 Z" fill="none" stroke="#A9159C" opacity="0.352112676056338" stroke-width="1" class="tribeca"/>
<path d="M 2644.7401 2688.8937 2746.0614 2781.5424 2672.711 2894.4712 2617.4159 2861.2743 2644.7401 2688.8937 Z" fill="none" stroke="#A9159C" opacity="0.352112676056338" stroke-width="1" class="tribeca"/>
<path d="M 2624.8273 2811.2622 2634.8995 2753.7633 2638.8355 2730.6034 2648.2099 2690.2767 2707.5431 2745.9351 2744.442 2780.1596 2742.3597 2783.847 2698.1658 2854.83 2624.8273 2811.2622 Z" fill="none" stroke="#A9159C" opacity="0.352112676056338" stroke-width="1" class="tribeca"/>
<path d="M 2645.6655 2688.4329 2743.7479 2778.3159 2678.0336 2885.9436 2621.5821 2851.5947 2645.6655 2688.4329 Z" fill="none" stroke="#A9159C" opacity="0.352112676056338" stroke-width="1" class="tribeca"/>
<path d="M 2630.3749 2846.9865 2625.0529 2850.3276 2633.0357 2846.2954 2649.5979 2690.0465 2744.0949 2779.5835 2677.4553 2884.3302 2623.7802 2851.3646 2630.3749 2846.9865 Z" fill="none" stroke="#A9159C" opacity="0.352112676056338" stroke-width="1" class="tribeca"/>
<path d="M 2628.9912 2815.6418 2641.0318 2741.8958 2650.2852 2744.6624 2643.8098 2727.1473 2643.811 2717.9294 2740.9716 2781.5423 2696.5459 2858.9785 2628.9912 2815.6418 Z" fill="none" stroke="#A9159C" opacity="0.352112676056338" stroke-width="1" class="tribeca"/>
<path d="M 2663.9392 2702.2615 2653.7613 2694.6558 2670.1844 2710.0973 2683.1381 2723.0035 2692.1599 2729.9177 2701.1814 2740.7495 2711.5915 2748.816 2719.6883 2754.1169 2727.0911 2762.8746 2736.3448 2773.2456 2743.7479 2778.5464 2740.5087 2788.9171 2734.9558 2799.2879 2725.9323 2811.7328 2719.4536 2824.178 2710.6609 2838.4669 2697.7032 2853.6776 2694.3478 2859.6698 2691.5709 2865.3164 2689.2568 2869.5802 2687.6371 2870.8477 2683.1255 2867.5053 2678.614 2864.1629 2671.7889 2859.7831 2665.195 2857.2471 2658.0231 2851.4843 2651.3138 2847.5654 2645.2986 2844.338 2639.9773 2842.8392 2633.1521 2841.4554 2627.8307 2840.8784 2624.5918 2839.2646 2625.4027 2831.8895 2626.2134 2825.4364 2628.0655 2817.3702 2628.1823 2809.3037 2629.8035 2798.1263 2633.3912 2786.0274 2633.3926 2776.1176 2635.4758 2768.7431 2636.7498 2757.2204 2638.2543 2752.0354 2640.9163 2740.3978 2641.3801 2731.9864 2642.4223 2723.2295 2643.9272 2714.127 2645.4321 2703.9877 2646.4737 2699.3789 2648.2093 2694.7703 2649.0196 2689.4703 2663.9392 2702.2615 Z" fill="none" stroke="#A9159C" opacity="0.352112676056338" stroke-width="1" class="tribeca"/>
<path d="M 2714.1362 2751.1207 2664.1566 2831.5488 2630.38 2811.263 2652.836 2694.6557 2714.1362 2751.1207 Z" fill="none" stroke="#A9159C" opacity="0.352112676056338" stroke-width="1" class="tribeca"/>
<path d="M 2647.5162 2687.5114 2753.9274 2786.1518 2749.3004 2782.4643 2745.5987 2782.4643 2657.6934 2699.4955 2746.9868 2782.9252 2680.8102 2885.7134 2619.4995 2853.4382 2646.5903 2692.1201 2647.5162 2687.5114 Z" fill="none" stroke="#A9159C" opacity="0.352112676056338" stroke-width="1" class="tribeca"/>
<path d="M 2759.4799 2794.4486 2715.5181 2866.8161 2647.4993 2823.0193 2668.7965 2708.7145 2759.4799 2794.4486 Z" fill="none" stroke="#A9159C" opacity="0.352112676056338" stroke-width="1" class="tribeca"/>
<path d="M 2617.427 2790.2886 2644.7392 2695.8069 2740.0462 2781.5423 2683.1252 2870.9625 2647.0352 2834.082 2617.427 2790.2886 Z" fill="none" stroke="#A9159C" opacity="0.352112676056338" stroke-width="1" class="tribeca"/>
<path d="M 2647.7473 2689.8158 2651.217 2691.4293 2743.9792 2781.7729 2677.571 2884.3302 2619.9627 2850.6726 2647.7473 2689.8158 Z" fill="none" stroke="#A9159C" opacity="0.352112676056338" stroke-width="1" class="tribeca"/>
<path d="M 2648.6724 2690.9681 2715.0614 2753.8862 2663.2307 2835.9277 2628.0661 2813.3369 2648.6724 2690.9681 Z" fill="none" stroke="#A9159C" opacity="0.352112676056338" stroke-width="1" class="tribeca"/>
<path d="M 2665.0921 2737.2896 2740.9726 2743.7473 2740.971 2806.4326 2657.6813 2805.5048 2665.0921 2737.2896 Z" fill="none" stroke="#A9159C" opacity="0.352112676056338" stroke-width="1" class="tribeca"/>
<path d="M 2678.9592 2885.2523 2621.1193 2852.0556 2646.1279 2689.8156 2774.7496 2811.0422 2678.9592 2885.2523 Z" fill="none" stroke="#A9159C" opacity="0.352112676056338" stroke-width="1" class="tribeca"/>
<path d="M 2677.1234 2721.6202 2724.3148 2766.3314 2694.6977 2822.1022 2680.8166 2813.8041 2671.561 2825.3268 2666.9337 2824.8654 2672.0299 2762.1794 2686.3738 2759.4152 2691.9272 2746.5102 2678.5093 2744.6654 2677.1234 2721.6202 Z" fill="none" stroke="#A9159C" opacity="0.352112676056338" stroke-width="1" class="tribeca"/>
<path d="M 2654.9172 2701.3387 2767.8088 2799.0579 2701.1714 2887.5589 2634.5393 2848.8309 2619.7304 2856.204 2654.9172 2701.3387 Z" fill="none" stroke="#A9159C" opacity="0.352112676056338" stroke-width="1" class="tribeca"/>
<path d="M 2641.9639 2690.2759 2680.478 2720.4683 2715.4085 2752.6188 2727.6694 2764.9488 2744.789 2780.3901 2737.848 2791.7979 2754.1586 2802.0539 2738.6568 2825.4463 2733.3351 2834.6651 2716.5615 2825.5606 2703.0252 2847.1093 2697.356 2855.2909 2680.1197 2844.8027 2660.686 2832.2398 2640.096 2820.1375 2627.2566 2811.3778 2604.4695 2799.2747 2625.7577 2777.7297 2632.5822 2780.7267 2635.3615 2759.1791 2645.2019 2695.2308 2641.9639 2690.2759 Z" fill="none" stroke="#A9159C" opacity="0.352112676056338" stroke-width="1" class="tribeca"/>
<path d="M 2721.7651 2869.5822 2697.0089 2855.2909 2687.5214 2870.9629 2643.7946 2845.3749 2622.9721 2840.0711 2649.3664 2691.1986 2767.8088 2802.7454 2742.5896 2841.4644 2727.3185 2861.0546 2721.7651 2869.5822 Z" fill="none" stroke="#A9159C" opacity="0.352112676056338" stroke-width="1" class="tribeca"/>
<path d="M 2648.9038 2691.1986 2714.483 2754.4623 2684.5193 2803.6638 2630.6151 2785.2204 2648.9038 2691.1986 Z" fill="none" stroke="#A9159C" opacity="0.352112676056338" stroke-width="1" class="tribeca"/>
<path d="M 2623.8976 2839.6102 2650.5235 2687.9726 2761.3307 2794.6791 2736.1118 2825.5615 2725.238 2817.725 2688.9097 2870.2716 2626.2111 2840.763 2623.8976 2839.6102 Z" fill="none" stroke="#A9159C" opacity="0.352112676056338" stroke-width="1" class="tribeca"/>
<path d="M 2683.1246 2877.9923 2619.7326 2842.0296 2646.9377 2689.1244 2715.0614 2753.3101 2745.136 2780.9663 2683.1246 2877.9923 Z" fill="none" stroke="#A9159C" opacity="0.352112676056338" stroke-width="1" class="tribeca"/>
<path d="M 2647.2846 2689.5853 2746.2927 2782.2338 2680.1161 2884.5609 2621.8138 2849.7509 2647.2846 2689.5853 Z" fill="none" stroke="#A9159C" opacity="0.352112676056338" stroke-width="1" class="tribeca"/>
<path d="M 2583.1862 2790.7436 2646.5906 2689.8157 2745.5987 2782.0034 2677.1082 2884.7911 2579.0124 2838.2196 2583.1862 2790.7436 Z" fill="none" stroke="#A9159C" opacity="0.352112676056338" stroke-width="1" class="tribeca"/>
<path d="M 2729.8714 2654.3354 2850.1651 2717.9334 2788.17 2870.9659 2751.1493 2906.9222 2622.5111 2828.5472 2629.9196 2795.3607 2652.1452 2668.1552 2729.8714 2654.3354 Z" fill="none" stroke="#A9159C" opacity="0.352112676056338" stroke-width="1" class="tribeca"/>
<path d="M 2666.2341 2877.184 2676.4141 2883.8691 2622.0457 2846.0633 2646.8219 2690.2766 2724.7777 2761.9527 2742.3597 2782.4642 2675.2575 2880.8727 2677.3396 2884.0997 2666.2341 2877.184 Z" fill="none" stroke="#A9159C" opacity="0.352112676056338" stroke-width="1" class="tribeca"/>
<path d="M 2760.4053 2788.9174 2687.2897 2874.1897 2635.0031 2841.4557 2651.2168 2693.5033 2760.4053 2788.9174 Z" fill="none" stroke="#A9159C" opacity="0.352112676056338" stroke-width="1" class="tribeca"/>
<path d="M 2647.9787 2689.355 2745.5987 2780.1597 2667.852 2894.4707 2614.6396 2859.8909 2647.9787 2689.355 Z" fill="none" stroke="#A9159C" opacity="0.352112676056338" stroke-width="1" class="tribeca"/>
<path d="M 2650.2921 2688.4335 2751.1512 2782.9253 2690.5293 2870.0412 2672.5953 2894.5864 2618.9196 2863.1183 2650.2921 2688.4335 Z" fill="none" stroke="#A9159C" opacity="0.352112676056338" stroke-width="1" class="tribeca"/>
<path d="M 2677.3394 2886.1741 2676.1824 2887.5569 2610.9163 2990.5821 2582.6857 2985.7363 2647.9785 2690.5072 2745.136 2781.312 2677.3394 2886.1741 Z" fill="none" stroke="#A9159C" opacity="0.352112676056338" stroke-width="1" class="tribeca"/>
<path d="M 2627.1407 2812.8759 2647.6314 2691.7745 2648.4412 2690.2768 2744.6733 2781.5424 2697.1246 2855.2909 2627.1407 2812.8759 Z" fill="none" stroke="#A9159C" opacity="0.352112676056338" stroke-width="1" class="tribeca"/>
<path d="M 2746.9868 2782.4643 2700.2484 2851.6034 2626.6789 2806.8836 2645.6653 2689.8155 2746.9868 2782.4643 Z" fill="none" stroke="#A9159C" opacity="0.352112676056338" stroke-width="1" class="tribeca"/>
<path d="M 2647.5158 2691.1984 2765.4952 2800.4407 2743.2838 2839.1596 2715.5203 2825.3301 2699.3227 2854.8301 2627.1406 2813.3368 2647.5158 2691.1984 Z" fill="none" stroke="#A9159C" opacity="0.352112676056338" stroke-width="1" class="tribeca"/>
<path d="M 2622.0449 2851.5948 2645.6652 2690.2764 2726.6283 2764.9487 2660.9125 2876.492 2622.0449 2851.5948 Z" fill="none" stroke="#A9159C" opacity="0.352112676056338" stroke-width="1" class="tribeca"/>
<path d="M 2649.3665 2690.2769 2717.3749 2753.8864 2647.4895 2901.3831 2609.0832 2880.6335 2649.3665 2690.2769 Z" fill="none" stroke="#A9159C" opacity="0.352112676056338" stroke-width="1" class="tribeca"/>
<path d="M 2744.6733 2782.0033 2684.9762 2870.9627 2620.6587 2838.2269 2647.0533 2689.8157 2744.6733 2782.0033 Z" fill="none" stroke="#A9159C" opacity="0.352112676056338" stroke-width="1" class="tribeca"/>
<path d="M 2647.5159 2689.8158 2759.7112 2794.9095 2732.4097 2834.0889 2726.6242 2864.0508 2721.7651 2869.1213 2695.8521 2854.8298 2678.0337 2884.7912 2621.8134 2851.8252 2647.5159 2689.8158 Z" fill="none" stroke="#A9159C" opacity="0.352112676056338" stroke-width="1" class="tribeca"/>
<path d="M 2733.8039 2653.6442 2799.0385 2696.0444 2743.9792 2780.6205 2708.1215 2746.0504 2733.8039 2653.6442 Z" fill="none" stroke="#A9159C" opacity="0.352112676056338" stroke-width="1" class="tribeca"/>
<path d="M 2657.6932 2701.1086 2760.6367 2794.9095 2707.8827 2867.0462 2646.1108 2825.0934 2657.6932 2701.1086 Z" fill="none" stroke="#A9159C" opacity="0.352112676056338" stroke-width="1" class="tribeca"/>
<path d="M 2622.625 2840.4167 2622.3936 2840.1862 2647.6317 2689.2397 2745.2517 2780.6206 2687.7528 2870.9629 2622.625 2840.4167 Z" fill="none" stroke="#A9159C" opacity="0.352112676056338" stroke-width="1" class="tribeca"/>
<path d="M 2650.4073 2692.0053 2743.6322 2779.9292 2687.0586 2871.6543 2626.679 2806.1922 2650.4073 2692.0053 Z" fill="none" stroke="#A9159C" opacity="0.352112676056338" stroke-width="1" class="tribeca"/>
<path d="M 2650.2919 2690.277 2727.3224 2765.4097 2681.508 2844.2267 2627.835 2811.4932 2628.298 2809.419 2650.2919 2690.277 Z" fill="none" stroke="#A9159C" opacity="0.352112676056338" stroke-width="1" class="tribeca"/>
<path d="M 2627.3721 2812.8759 2646.3593 2689.5852 2647.5158 2690.7375 2647.9786 2689.5854 2743.7479 2782.0033 2698.3972 2855.0605 2627.3721 2812.8759 Z" fill="none" stroke="#A9159C" opacity="0.352112676056338" stroke-width="1" class="tribeca"/>
<path d="M 2620.6568 2850.6727 2646.128 2689.3547 2743.2852 2779.6987 2677.571 2884.3302 2620.6568 2850.6727 Z" fill="none" stroke="#A9159C" opacity="0.352112676056338" stroke-width="1" class="tribeca"/>
<path d="M 2648.4402 2698.5726 2745.8301 2781.0815 2677.6865 2885.8284 2621.0037 2851.2489 2647.7462 2698.2269 2648.4402 2698.5726 Z" fill="none" stroke="#A9159C" opacity="0.352112676056338" stroke-width="1" class="tribeca"/>
<path d="M 2637.8462 2738.3731 2736.3328 2801.4635 2685.4266 2886.2762 2622.4968 2849.3915 2637.8462 2738.3731 Z" fill="none" stroke="#A9159C" opacity="0.352112676056338" stroke-width="1" class="tribeca"/>
<path d="M 2750.2258 2780.6207 2694.6946 2863.588 2623.435 2838.6883 2650.2923 2686.59 2750.2258 2780.6207 Z" fill="none" stroke="#A9159C" opacity="0.352112676056338" stroke-width="1" class="tribeca"/>
<path d="M 2647.7472 2690.0462 2745.3674 2781.0815 2697.2403 2855.7519 2625.9841 2811.2624 2647.7472 2690.0462 Z" fill="none" stroke="#A9159C" opacity="0.352112676056338" stroke-width="1" class="tribeca"/>
<path d="M 2648.21 2689.5854 2745.0203 2781.312 2687.9842 2870.7325 2642.6378 2844.4529 2623.4348 2840.4168 2648.21 2689.5854 Z" fill="none" stroke="#A9159C" opacity="0.352112676056338" stroke-width="1" class="tribeca"/>
<path d="M 2647.5163 2686.5896 2745.5987 2781.0815 2685.9018 2870.7323 2641.7125 2843.7613 2622.9721 2840.0711 2632.6974 2784.5293 2643.812 2710.0942 2647.5163 2686.5896 Z" fill="none" stroke="#A9159C" opacity="0.352112676056338" stroke-width="1" class="tribeca"/>
<path d="M 2715.0545 2882.95 2573.4597 2837.7575 2647.0538 2685.6678 2768.7342 2804.1282 2715.0545 2882.95 Z" fill="none" stroke="#A9159C" opacity="0.352112676056338" stroke-width="1" class="tribeca"/>
<path d="M 2648.6346 2692.2858 2715.4898 2754.3274 2666.0069 2835.512 2627.1643 2811.3186 2648.6346 2692.2858 Z" fill="none" stroke="#A9159C" opacity="0.352112676056338" stroke-width="1" class="tribeca"/>
<path d="M 2744.6733 2780.6206 2671.9012 2894.4711 2615.1008 2870.0322 2649.3664 2690.9682 2715.5241 2753.1949 2744.6733 2780.6206 Z" fill="none" stroke="#A9159C" opacity="0.352112676056338" stroke-width="1" class="tribeca"/></svg>