<?xml version="1.0"?><svg xmlns="http://www.w3.org/2000/svg" version="1.2" baseProfile="tiny" width="6000" height="5918" viewBox="0 0 6000 5918" stroke-linecap="round" stroke-linejoin="round"><path d="M 3074.3372 2379.0752 3065.4319 2373.0886 3067.2807 2369.1718 3058.3755 2362.8397 3073.7452 2336.6892 3100.1114 2348.6587 3090.8665 2363.0594 3084.8571 2372.3911 3080.1195 2381.9528 3074.3372 2379.0752 Z" fill="none" stroke="#FBC20F" opacity="0.6" stroke-width="1" class="tudor_city"/>
<path d="M 3080.4672 2384.2564 3056.4119 2369.5208 3078.5973 2324.3637 3105.4254 2335.4114 3080.4672 2384.2564 Z" fill="none" stroke="#FBC20F" opacity="0.6" stroke-width="1" class="tudor_city"/>
<path d="M 3075.3776 2378.3837 3057.3368 2369.0598 3066.6968 2350.8584 3084.622 2360.9883 3075.3776 2378.3837 Z" fill="none" stroke="#FBC20F" opacity="0.6" stroke-width="1" class="tudor_city"/>
<path d="M 3075.1468 2379.6508 3056.8745 2369.751 3072.3592 2341.1816 3092.4816 2352.4623 3086.5887 2364.2127 3079.0789 2382.0683 3075.1468 2379.6508 Z" fill="none" stroke="#FBC20F" opacity="0.6" stroke-width="1" class="tudor_city"/>
<path d="M 3076.8675 2338.0703 3097.2209 2348.7749 3093.638 2353.0378 3087.2818 2362.2544 3082.66 2372.0463 3078.6157 2379.9952 3064.7378 2371.937 3066.7022 2368.0202 3059.185 2363.185 3061.4961 2358.6922 3064.8489 2357.6545 3066.6987 2356.8477 3076.8675 2338.0703 Z" fill="none" stroke="#FBC20F" opacity="0.6" stroke-width="1" class="tudor_city"/>
<path d="M 3072.8202 2336.5743 3097.6839 2350.2721 3088.6691 2361.5628 3082.6602 2372.6222 3081.0435 2378.8426 3079.4256 2381.3771 3063.8128 2372.0525 3066.2399 2368.7114 3061.6134 2363.9905 3059.4161 2362.7242 3060.3404 2360.3051 3072.8202 2336.5743 Z" fill="none" stroke="#FBC20F" opacity="0.6" stroke-width="1" class="tudor_city"/>
<path d="M 3069.3606 2364.7943 3071.0937 2360.6472 3080.5766 2365.712 3086.7011 2354.6527 3081.4969 2351.5446 3086.3506 2344.1715 3095.8334 2348.8906 3079.1944 2381.6076 3073.6433 2378.6147 3067.1652 2369.5174 3069.3606 2364.7943 Z" fill="none" stroke="#FBC20F" opacity="0.6" stroke-width="1" class="tudor_city"/>
<path d="M 3079.5379 2371.3563 3057.3341 2360.306 3070.277 2338.1876 3088.7817 2352.9243 3079.5379 2371.3563 Z" fill="none" stroke="#FBC20F" opacity="0.6" stroke-width="1" class="tudor_city"/>
<path d="M 3070.2776 2340.0305 3096.2979 2354.419 3080.8134 2382.183 3054.9083 2367.9087 3070.2776 2340.0305 Z" fill="none" stroke="#FBC20F" opacity="0.6" stroke-width="1" class="tudor_city"/>
<path d="M 3081.3916 2382.4131 3031.4327 2355.7065 3042.5275 2338.1962 3090.6358 2364.9024 3081.3916 2382.4131 Z" fill="none" stroke="#FBC20F" opacity="0.6" stroke-width="1" class="tudor_city"/>
<path d="M 3118.1529 2359.5942 3101.0509 2389.3173 3066.8197 2373.8944 3069.3623 2369.9774 3056.8729 2364.683 3072.5887 2335.8833 3118.1529 2359.5942 Z" fill="none" stroke="#FBC20F" opacity="0.6" stroke-width="1" class="tudor_city"/>
<path d="M 3070.1623 2340.8368 3071.6641 2336.9202 3092.3639 2346.7034 3075.3773 2377.4623 3055.6017 2366.7567 3070.1623 2340.8368 Z" fill="none" stroke="#FBC20F" opacity="0.6" stroke-width="1" class="tudor_city"/>
<path d="M 2994.8812 2298.3584 3074.8994 2330.5845 3060.8202 2415.8234 2925.3003 2422.9976 2994.8812 2298.3584 Z" fill="none" stroke="#FBC20F" opacity="0.6" stroke-width="1" class="tudor_city"/>
<path d="M 3059.8775 2359.1534 3070.2777 2340.1457 3095.8352 2353.8433 3084.7418 2373.4278 3059.8775 2359.1534 Z" fill="none" stroke="#FBC20F" opacity="0.6" stroke-width="1" class="tudor_city"/>
<path d="M 3060.4558 2359.7292 3070.0464 2340.0305 3089.5904 2350.966 3079.1907 2370.4349 3060.4558 2359.7292 Z" fill="none" stroke="#FBC20F" opacity="0.6" stroke-width="1" class="tudor_city"/></svg>