<?xml version="1.0"?><svg xmlns="http://www.w3.org/2000/svg" version="1.2" baseProfile="tiny" width="6000" height="5918" viewBox="0 0 6000 5918" stroke-linecap="round" stroke-linejoin="round"><path d="M 3165.6399 2276.7645 3105.4373 2368.5829 3065.3089 2349.8222 3093.6187 2297.6382 3120.4248 2251.5607 3165.6399 2276.7645 Z" fill="none" stroke="#012394" opacity="0.6" stroke-width="1" class="turtle_bay"/>
<path d="M 3164.6038 2287.4758 3125.7792 2346.4609 3037.8915 2299.4987 3074.8672 2232.2288 3164.6038 2287.4758 Z" fill="none" stroke="#012394" opacity="0.6" stroke-width="1" class="turtle_bay"/>
<path d="M 3025.4125 2327.8351 3061.0045 2265.6316 3144.7288 2314.8951 3092.7168 2363.9802 3025.4125 2327.8351 Z" fill="none" stroke="#012394" opacity="0.6" stroke-width="1" class="turtle_bay"/>
<path d="M 3069.3345 2283.8258 3100.7622 2227.6134 3149.7922 2256.1558 3100.8031 2342.7844 3053.6192 2311.4721 3069.3345 2283.8258 Z" fill="none" stroke="#012394" opacity="0.6" stroke-width="1" class="turtle_bay"/>
<path d="M 3122.0889 2372.2626 3044.374 2326.2173 3118.3241 2199.0468 3201.5807 2243.2347 3122.0889 2372.2626 Z" fill="none" stroke="#012394" opacity="0.6" stroke-width="1" class="turtle_bay"/>
<path d="M 3082.2499 2183.3979 3198.8082 2247.8426 3110.0641 2373.1885 3009.222 2314.2488 3082.2499 2183.3979 Z" fill="none" stroke="#012394" opacity="0.6" stroke-width="1" class="turtle_bay"/>
<path d="M 3090.5898 2231.3022 3095.2071 2211.0319 3122.0333 2224.8417 3136.8395 2246.0263 3132.2215 2262.6122 3113.7322 2286.5745 3082.2938 2314.2271 3047.142 2303.1815 3046.2075 2270.9339 3073.9402 2225.78 3076.7246 2255.2614 3090.5898 2231.3022 Z" fill="none" stroke="#012394" opacity="0.6" stroke-width="1" class="turtle_bay"/>
<path d="M 3060.5084 2158.0704 3196.024 2227.1141 3147.0431 2319.7315 3013.8305 2252.5161 3060.5084 2158.0704 Z" fill="none" stroke="#012394" opacity="0.6" stroke-width="1" class="turtle_bay"/>
<path d="M 3125.0679 2300.3909 3098.7024 2287.7317 3108.4078 2269.992 3134.0796 2283.8027 3125.0679 2300.3909 Z" fill="none" stroke="#012394" opacity="0.6" stroke-width="1" class="turtle_bay"/>
<path d="M 3108.2137 2372.2677 3039.7518 2335.4327 3091.5179 2240.5151 3167.3735 2275.4969 3108.2137 2372.2677 Z" fill="none" stroke="#012394" opacity="0.6" stroke-width="1" class="turtle_bay"/>
<path d="M 3111.9124 2368.5806 3007.3697 2305.0353 3040.1699 2182.9504 3155.3353 2240.9516 3162.2882 2279.6451 3111.9124 2368.5806 Z" fill="none" stroke="#012394" opacity="0.6" stroke-width="1" class="turtle_bay"/>
<path d="M 3105.9021 2375.0329 3039.0583 2336.124 3076.9617 2273.2276 3076.9621 2274.3793 3145.6531 2313.2823 3105.9021 2375.0329 Z" fill="none" stroke="#012394" opacity="0.6" stroke-width="1" class="turtle_bay"/>
<path d="M 3107.2745 2333.1072 3103.1119 2332.648 3057.7803 2307.7852 3093.8288 2236.829 3142.3974 2267.215 3107.2745 2333.1072 Z" fill="none" stroke="#012394" opacity="0.6" stroke-width="1" class="turtle_bay"/>
<path d="M 3169.224 2276.8781 3129.248 2346.6899 3106.5821 2336.7931 3057.3176 2307.0943 3094.0609 2239.3626 3169.224 2276.8781 Z" fill="none" stroke="#012394" opacity="0.6" stroke-width="1" class="turtle_bay"/>
<path d="M 3115.5507 2202.042 3164.1165 2228.5101 3091.3292 2363.7503 3039.7523 2337.2756 3115.5507 2202.042 Z" fill="none" stroke="#012394" opacity="0.6" stroke-width="1" class="turtle_bay"/>
<path d="M 3077.6408 2229.0033 3174.7757 2281.9432 3128.0911 2345.0779 3112.8381 2370.4231 3092.9457 2357.0693 3026.3358 2321.6154 3077.6408 2229.0033 Z" fill="none" stroke="#012394" opacity="0.6" stroke-width="1" class="turtle_bay"/>
<path d="M 3086.2678 2348.0457 3062.2129 2331.9287 3033.073 2320.8805 3047.3998 2286.7851 3086.9946 2218.2863 3168.8707 2278.1415 3119.4011 2364.4364 3086.2678 2348.0457 Z" fill="none" stroke="#012394" opacity="0.6" stroke-width="1" class="turtle_bay"/>
<path d="M 3101.9605 2346.009 3075.3619 2330.5843 3050.153 2319.5354 3036.7379 2308.7129 3069.785 2246.511 3130.3835 2293.0178 3101.9605 2346.009 Z" fill="none" stroke="#012394" opacity="0.6" stroke-width="1" class="turtle_bay"/>
<path d="M 3057.3184 2309.6282 3075.8051 2271.846 3095.2242 2259.8618 3124.8373 2302.2338 3110.052 2340.0168 3145.1791 2284.7197 3126.6936 2318.8181 3057.3184 2309.6282 Z" fill="none" stroke="#012394" opacity="0.6" stroke-width="1" class="turtle_bay"/>
<path d="M 3059.1683 2309.6276 3089.6697 2245.1224 3136.8497 2271.8239 3106.3497 2333.5682 3059.1683 2309.6276 Z" fill="none" stroke="#012394" opacity="0.6" stroke-width="1" class="turtle_bay"/>
<path d="M 3145.171 2264.4498 3107.2717 2325.2752 3081.3676 2310.5418 3115.5701 2254.3265 3119.268 2249.7184 3145.171 2264.4498 Z" fill="none" stroke="#012394" opacity="0.6" stroke-width="1" class="turtle_bay"/>
<path d="M 3108.8334 2372.1661 3099.5895 2363.5724 3068.7446 2347.6143 3071.8318 2340.8592 3138.9929 2218.5979 3189.5677 2246.216 3108.8334 2372.1661 Z" fill="none" stroke="#012394" opacity="0.6" stroke-width="1" class="turtle_bay"/>
<path d="M 3206.2035 2239.5472 3062.9097 2441.3945 2931.5345 2365.8652 3044.3244 2158.5359 3206.2035 2239.5472 Z" fill="none" stroke="#012394" opacity="0.6" stroke-width="1" class="turtle_bay"/>
<path d="M 3128.0932 2350.6064 3054.0809 2309.1685 3121.5587 2192.5966 3205.2788 2240.0083 3128.0932 2350.6064 Z" fill="none" stroke="#012394" opacity="0.6" stroke-width="1" class="turtle_bay"/>
<path d="M 3111.9023 2340.9375 3115.6077 2355.679 3065.646 2318.8395 3125.7271 2210.0995 3189.5584 2246.0041 3111.9023 2340.9375 Z" fill="none" stroke="#012394" opacity="0.6" stroke-width="1" class="turtle_bay"/>
<path d="M 2877.3407 2465.3945 2970.5542 2293.6189 3111.1744 2373.9253 3014.276 2539.0946 2865.4987 2459.498 2877.3407 2465.3945 Z" fill="none" stroke="#012394" opacity="0.6" stroke-width="1" class="turtle_bay"/>
<path d="M 3103.5266 2199.0522 3136.7917 2124.4186 3183.9649 2146.5082 3113.7237 2263.5406 3084.1191 2241.439 3084.1182 2238.675 3103.5266 2199.0522 Z" fill="none" stroke="#012394" opacity="0.6" stroke-width="1" class="turtle_bay"/>
<path d="M 3112.1459 2374.5699 3024.6029 2326.914 3108.1421 2174.9823 3208.9726 2227.7991 3112.1459 2374.5699 Z" fill="none" stroke="#012394" opacity="0.6" stroke-width="1" class="turtle_bay"/>
<path d="M 3159.0339 2238.6467 3131.7705 2292.0959 3103.7864 2278.7465 3086.2243 2312.6133 3027.2495 2281.0743 3076.9352 2192.8427 3159.0339 2238.6467 Z" fill="none" stroke="#012394" opacity="0.6" stroke-width="1" class="turtle_bay"/>
<path d="M 3111.9158 2377.7951 3052.7037 2342.8002 3127.3447 2207.7956 3154.172 2223.4471 3118.819 2285.6513 3158.3689 2307.5184 3132.0217 2343.4639 3111.9158 2377.7951 Z" fill="none" stroke="#012394" opacity="0.6" stroke-width="1" class="turtle_bay"/>
<path d="M 3077.6408 2229.0033 3177.0886 2283.3242 3134.5667 2346.9182 3037.8915 2299.4987 3077.6408 2229.0033 Z" fill="none" stroke="#012394" opacity="0.6" stroke-width="1" class="turtle_bay"/>
<path d="M 3195.099 2226.6539 3159.0554 2290.2422 3085.9748 2258.9437 3118.3207 2189.834 3195.099 2226.6539 Z" fill="none" stroke="#012394" opacity="0.6" stroke-width="1" class="turtle_bay"/>
<path d="M 3166.913 2280.1039 3129.0163 2345.5382 3036.0406 2296.2744 3076.2536 2229.4644 3166.913 2280.1039 Z" fill="none" stroke="#012394" opacity="0.6" stroke-width="1" class="turtle_bay"/>
<path d="M 3104.9637 2337.7151 3050.8433 2308.2481 3118.3191 2185.6883 3173.8205 2211.9225 3104.9637 2337.7151 Z" fill="none" stroke="#012394" opacity="0.6" stroke-width="1" class="turtle_bay"/>
<path d="M 3073.7271 2281.2906 3055.4678 2307.3253 3053.1557 2308.2474 3043.4422 2303.1826 3040.8969 2297.4247 3071.6324 2239.1398 3090.1328 2246.9649 3115.8035 2260.3151 3082.2964 2322.059 3057.3182 2308.9371 3073.7271 2281.2906 Z" fill="none" stroke="#012394" opacity="0.6" stroke-width="1" class="turtle_bay"/>
<path d="M 3086.8982 2254.3367 3127.377 2292.0976 3101.2654 2342.3235 3039.2807 2305.7177 3037.8932 2305.4877 3086.8982 2254.3367 Z" fill="none" stroke="#012394" opacity="0.6" stroke-width="1" class="turtle_bay"/>
<path d="M 3095.4851 2344.6291 3098.0286 2344.1675 3049.2272 2316.7714 3085.0489 2255.9496 3134.3105 2282.8812 3100.1104 2345.7793 3095.4851 2344.6291 Z" fill="none" stroke="#012394" opacity="0.6" stroke-width="1" class="turtle_bay"/>
<path d="M 3082.2613 2217.4854 3184.945 2270.8824 3121.1535 2344.6198 3045.288 2289.3614 3082.2613 2217.4854 Z" fill="none" stroke="#012394" opacity="0.6" stroke-width="1" class="turtle_bay"/>
<path d="M 3070.2776 2340.0305 3045.9928 2326.7927 3105.4996 2220.3564 3154.9914 2248.092 3110.9727 2328.4988 3085.1839 2313.1895 3070.2776 2340.0305 Z" fill="none" stroke="#012394" opacity="0.6" stroke-width="1" class="turtle_bay"/>
<path d="M 2955.7111 2414.7556 3010.5899 2310.4071 3121.35 2367.7561 3055.4619 2487.0325 2955.7111 2414.7556 Z" fill="none" stroke="#012394" opacity="0.6" stroke-width="1" class="turtle_bay"/>
<path d="M 3081.3247 2182.4769 3193.2576 2245.0811 3149.8128 2306.8309 3045.2738 2241.4513 3081.3247 2182.4769 Z" fill="none" stroke="#012394" opacity="0.6" stroke-width="1" class="turtle_bay"/>
<path d="M 3122.5253 2303.156 3098.0085 2287.0409 3132.2111 2235.8936 3156.7268 2251.0856 3122.5253 2303.156 Z" fill="none" stroke="#012394" opacity="0.6" stroke-width="1" class="turtle_bay"/>
<path d="M 3103.1128 2334.9515 3052.2295 2304.1014 3099.3747 2227.1533 3171.5329 2269.0456 3141.4941 2321.5766 3122.5291 2313.2913 3108.1998 2334.0283 3104.5011 2337.2545 3103.1128 2334.9515 Z" fill="none" stroke="#012394" opacity="0.6" stroke-width="1" class="turtle_bay"/>
<path d="M 3158.1358 2303.1419 3065.626 2256.1864 3091.5045 2201.8203 3183.0858 2249.6923 3158.1358 2303.1419 Z" fill="none" stroke="#012394" opacity="0.6" stroke-width="1" class="turtle_bay"/>
<path d="M 3135.9439 2320.6573 3103.5761 2337.2549 3024.9405 2293.0527 3082.2502 2184.3191 3192.3323 2244.1602 3135.9439 2320.6573 Z" fill="none" stroke="#012394" opacity="0.6" stroke-width="1" class="turtle_bay"/>
<path d="M 3023.0986 2322.5377 3029.5731 2321.6145 3085.0371 2221.1697 3145.1699 2261.6858 3095.2619 2367.6651 3023.0986 2322.5377 Z" fill="none" stroke="#012394" opacity="0.6" stroke-width="1" class="turtle_bay"/>
<path d="M 3110.9891 2373.1882 2987.9451 2302.276 3041.5648 2209.2065 3173.85 2280.1009 3110.9891 2373.1882 Z" fill="none" stroke="#012394" opacity="0.6" stroke-width="1" class="turtle_bay"/>
<path d="M 3039.7526 2338.197 3096.1388 2230.379 3130.3632 2240.5009 3058.2591 2360.3058 3033.2806 2348.3345 3039.7526 2338.197 Z" fill="none" stroke="#012394" opacity="0.6" stroke-width="1" class="turtle_bay"/>
<path d="M 3116.8763 2205.2024 3189.5797 2246.052 3111.9209 2333.6141 3061.9619 2301.3821 3116.8763 2205.2024 Z" fill="none" stroke="#012394" opacity="0.6" stroke-width="1" class="turtle_bay"/>
<path d="M 3074.8805 2272.7676 3125.9935 2302.2333 3090.4046 2364.9024 3039.752 2336.1238 3074.8805 2272.7676 Z" fill="none" stroke="#012394" opacity="0.6" stroke-width="1" class="turtle_bay"/>
<path d="M 3031.4129 2285.6799 3089.6495 2186.1592 3162.7288 2227.5894 3112.8222 2327.116 3031.4129 2285.6799 Z" fill="none" stroke="#012394" opacity="0.6" stroke-width="1" class="turtle_bay"/>
<path d="M 3107.1038 2371.2172 3002.7933 2316.9506 3061.7992 2220.4836 3177.4817 2275.7514 3107.1038 2371.2172 Z" fill="none" stroke="#012394" opacity="0.6" stroke-width="1" class="turtle_bay"/>
<path d="M 3093.3421 2166.8114 3213.5982 2230.3306 3062.9091 2439.5515 2973.1654 2390.7363 3093.3421 2166.8114 Z" fill="none" stroke="#012394" opacity="0.6" stroke-width="1" class="turtle_bay"/>
<path d="M 3206.2005 2233.098 3167.3806 2292.0814 3120.2067 2286.5721 3167.3543 2230.3514 3206.2005 2233.098 Z" fill="none" stroke="#012394" opacity="0.6" stroke-width="1" class="turtle_bay"/>
<path d="M 3176.8525 2272.0377 3143.8074 2323.8791 3070.4901 2281.9827 3100.9941 2229.456 3176.8525 2272.0377 Z" fill="none" stroke="#012394" opacity="0.6" stroke-width="1" class="turtle_bay"/>
<path d="M 3027.7254 2329.6773 3023.7934 2326.4535 3053.1449 2272.7745 3146.1194 2322.7265 3110.2962 2375.7224 3090.8666 2363.5201 3098.7242 2349.4655 3072.589 2336.5744 3064.7306 2349.2465 3027.7254 2329.6773 Z" fill="none" stroke="#012394" opacity="0.6" stroke-width="1" class="turtle_bay"/>
<path d="M 2949.1364 2503.1673 2877.8959 2467.2376 2915.814 2395.3546 2978.7249 2432.2021 2949.1364 2503.1673 Z" fill="none" stroke="#012394" opacity="0.6" stroke-width="1" class="turtle_bay"/>
<path d="M 3147.9554 2288.404 3131.3023 2277.3542 3122.0517 2273.6723 3099.8533 2272.7591 3103.5467 2255.2522 3086.8957 2246.966 3097.0637 2230.3787 3118.3217 2192.5978 3122.9545 2215.1677 3135.4415 2218.8481 3143.0743 2225.2942 3148.8568 2230.3591 3147.9554 2288.404 Z" fill="none" stroke="#012394" opacity="0.6" stroke-width="1" class="turtle_bay"/>
<path d="M 3077.6408 2229.0033 3169.6868 2277.7993 3112.3763 2372.2662 3028.1849 2318.8507 3055.4564 2270.0097 3062.3884 2254.8054 3067.4729 2246.9724 3070.2461 2242.3649 3073.0188 2236.3754 3075.3296 2232.2287 3077.6408 2229.0033 Z" fill="none" stroke="#012394" opacity="0.6" stroke-width="1" class="turtle_bay"/>
<path d="M 3190.9509 2257.5202 3153.0528 2313.2793 3101.244 2281.9722 3130.8211 2228.9842 3190.9509 2257.5202 Z" fill="none" stroke="#012394" opacity="0.6" stroke-width="1" class="turtle_bay"/>
<path d="M 3054.5925 2469.5038 2982.4264 2437.2696 3039.2897 2336.815 3108.2152 2376.4143 3056.4429 2469.9641 3054.5925 2469.5038 Z" fill="none" stroke="#012394" opacity="0.6" stroke-width="1" class="turtle_bay"/>
<path d="M 3110.9891 2373.1882 3028.6492 2325.3004 3075.7888 2222.0941 3165.5237 2275.4976 3110.9891 2373.1882 Z" fill="none" stroke="#012394" opacity="0.6" stroke-width="1" class="turtle_bay"/>
<path d="M 3078.1199 2226.2839 3174.0433 2280.0059 3111.56 2375.0254 3026.2556 2326.0101 3078.1199 2226.2839 Z" fill="none" stroke="#012394" opacity="0.6" stroke-width="1" class="turtle_bay"/>
<path d="M 3169.2261 2281.9456 3078.6288 2419.2732 3074.927 2414.667 3010.1656 2386.1201 3090.5921 2237.7515 3169.2261 2281.9456 Z" fill="none" stroke="#012394" opacity="0.6" stroke-width="1" class="turtle_bay"/>
<path d="M 3079.5075 2280.137 3099.8667 2310.5354 3082.2768 2263.5517 3110.0119 2230.374 3126.6506 2206.4139 3176.6007 2224.8195 3204.3545 2241.3907 3122.0701 2322.5055 3166.4686 2322.4877 3213.6104 2256.1277 3207.1378 2259.8161 3210.8279 2239.5451 3202.5174 2268.5711 3177.5467 2273.1891 3136.8687 2320.1963 3139.1786 2313.7456 3079.5075 2280.137 Z" fill="none" stroke="#012394" opacity="0.6" stroke-width="1" class="turtle_bay"/>
<path d="M 3038.5851 2299.2682 3078.1029 2228.0819 3175.7005 2281.7125 3132.4864 2349.2226 3038.5851 2299.2682 Z" fill="none" stroke="#012394" opacity="0.6" stroke-width="1" class="turtle_bay"/>
<path d="M 3108.213 2370.4248 3037.9016 2334.5119 3099.8354 2222.0859 3170.1467 2271.8102 3108.213 2370.4248 Z" fill="none" stroke="#012394" opacity="0.6" stroke-width="1" class="turtle_bay"/>
<path d="M 3139.621 2263.07 3073.9938 2389.7873 2994.4278 2335.4448 3063.7646 2219.3341 3139.621 2263.07 Z" fill="none" stroke="#012394" opacity="0.6" stroke-width="1" class="turtle_bay"/>
<path d="M 3168.2992 2277.3392 3117.4601 2362.1284 3027.7209 2313.3224 3077.64 2226.7 3168.2992 2277.3392 Z" fill="none" stroke="#012394" opacity="0.6" stroke-width="1" class="turtle_bay"/>
<path d="M 3087.8344 2287.5051 3110.5966 2248.57 3115.2261 2262.0428 3140.7833 2278.7326 3133.5016 2283.9181 3132.8179 2309.6018 3123.3349 2303.8468 3123.5626 2294.6329 3115.8108 2279.8939 3105.9843 2282.0857 3115.8224 2311.1055 3106.7999 2299.5915 3104.2495 2280.5891 3086.3259 2271.3818 3088.0606 2272.8784 3087.8294 2272.7633 3087.8344 2287.5051 Z" fill="none" stroke="#012394" opacity="0.6" stroke-width="1" class="turtle_bay"/>
<path d="M 3153.4804 2228.5145 3104.4908 2308.691 3055.4595 2280.1447 3099.8285 2202.7387 3153.4804 2228.5145 Z" fill="none" stroke="#012394" opacity="0.6" stroke-width="1" class="turtle_bay"/>
<path d="M 2922.5204 2394.8927 2928.3008 2388.4415 2938.7089 2396.7329 2931.3096 2402.4934 2922.5204 2394.8927 Z" fill="none" stroke="#012394" opacity="0.6" stroke-width="1" class="turtle_bay"/>
<path d="M 3107.271 2323.4324 3020.313 2282.9189 3067.4585 2201.8283 3147.9386 2246.9432 3107.271 2323.4324 Z" fill="none" stroke="#012394" opacity="0.6" stroke-width="1" class="turtle_bay"/>
<path d="M 3194.1896 2260.7434 3126.7017 2340.0106 3042.5113 2282.9127 3087.8092 2213.7984 3194.1896 2260.7434 Z" fill="none" stroke="#012394" opacity="0.6" stroke-width="1" class="turtle_bay"/>
<path d="M 3111.8676 2374.6247 3042.8719 2336.3845 3082.8252 2262.9737 3154.9548 2306.6726 3111.8676 2374.6247 Z" fill="none" stroke="#012394" opacity="0.6" stroke-width="1" class="turtle_bay"/>
<path d="M 3217.2946 2223.8796 3109.1397 2375.0318 2971.2942 2293.9873 3057.266 2140.1073 3217.2946 2223.8796 Z" fill="none" stroke="#012394" opacity="0.6" stroke-width="1" class="turtle_bay"/>
<path d="M 3107.2206 2184.3104 3203.4327 2247.8405 3123.0153 2375.9481 3028.6466 2316.0864 3107.2206 2184.3104 Z" fill="none" stroke="#012394" opacity="0.6" stroke-width="1" class="turtle_bay"/>
<path d="M 3023.7935 2326.6838 3078.1027 2227.3909 3168.7625 2279.1817 3141.2641 2324.8016 3122.9917 2313.5215 3092.023 2363.7501 3023.7935 2326.6838 Z" fill="none" stroke="#012394" opacity="0.6" stroke-width="1" class="turtle_bay"/>
<path d="M 3093.3709 2249.7278 3102.6141 2233.6013 3152.1042 2255.6942 3088.3214 2359.3745 3085.547 2361.2183 3065.6565 2352.0105 3042.5271 2336.8141 3051.7721 2320.6866 3058.2414 2303.1782 3071.1844 2283.8252 3081.3534 2268.1587 3087.8262 2263.5498 3093.3709 2249.7278 Z" fill="none" stroke="#012394" opacity="0.6" stroke-width="1" class="turtle_bay"/>
<path d="M 3166.4474 2272.7332 3047.175 2413.7542 3048.985 2280.1466 3166.4474 2272.7332 Z" fill="none" stroke="#012394" opacity="0.6" stroke-width="1" class="turtle_bay"/>
<path d="M 3101.2668 2346.2396 3033.7316 2308.0227 3087.3456 2210.3437 3154.8754 2247.1707 3124.1444 2304.3072 3113.2833 2323.4302 3101.2668 2346.2396 Z" fill="none" stroke="#012394" opacity="0.6" stroke-width="1" class="turtle_bay"/></svg>