<?xml version="1.0"?><svg xmlns="http://www.w3.org/2000/svg" version="1.2" baseProfile="tiny" width="6000" height="5918" viewBox="0 0 6000 5918" stroke-linecap="round" stroke-linejoin="round"><path d="M 2976.0952 3084.8556 2980.7128 3036.9044 2932.5778 3035.0699 2931.6411 2972.3698 3001.0614 2972.355 2976.0952 3084.8556 Z" fill="none" stroke="#E71E24" opacity="0.6" stroke-width="1" class="vinegar_hill"/>
<path d="M 2930.7192 2993.5769 2930.951 2995.882 2932.3361 2976.5188 2997.3591 2972.817 3038.3343 3032.279 3105.205 3008.7443 3047.374 3080.6874 2933.5012 3022.1605 2930.7192 2993.5769 Z" fill="none" stroke="#E71E24" opacity="0.6" stroke-width="1" class="vinegar_hill"/>
<path d="M 2890.4536 2986.6677 2989.4925 2976.968 2982.1016 3037.8262 2903.8818 3032.3083 2887.2144 2990.1259 2890.4536 2986.6677 Z" fill="none" stroke="#E71E24" opacity="0.6" stroke-width="1" class="vinegar_hill"/>
<path d="M 2950.626 3023.5405 2956.6332 2976.0532 2971.4422 2972.823 2995.9733 2983.4207 2971.916 3023.075 2950.626 3023.5405 Z" fill="none" stroke="#E71E24" opacity="0.6" stroke-width="1" class="vinegar_hill"/>
<path d="M 2929.1088 3047.8647 2932.4518 2976.9798 2970.9792 2971.7858 2990.4167 2971.2051 2998.2857 2976.8506 2999.4459 2989.759 2969.1402 3028.7234 2977.3591 3044.8583 2974.8214 3080.8215 2928.0726 3077.9491 2929.1088 3047.8647 Z" fill="none" stroke="#E71E24" opacity="0.6" stroke-width="1" class="vinegar_hill"/>
<path d="M 2930.7305 3058.1229 2927.0213 3020.3175 2968.6758 3021.2316 2974.2428 3080.2453 2968.6839 3059.0376 2930.7305 3058.1229 Z" fill="none" stroke="#E71E24" opacity="0.6" stroke-width="1" class="vinegar_hill"/>
<path d="M 2930.7305 3058.1229 2927.9471 3021.2394 2967.7511 3025.8422 2969.6015 3021.2314 2976.0936 3077.4785 2969.6092 3057.1932 2930.7305 3058.1229 Z" fill="none" stroke="#E71E24" opacity="0.6" stroke-width="1" class="vinegar_hill"/>
<path d="M 2930.0323 3035.3009 2931.4135 2993.6921 2953.8601 2994.8404 2955.2455 2979.5111 2971.6753 2980.6602 2969.9449 3004.2882 2981.6312 3004.7466 2976.5433 3018.5789 2972.6132 3036.6757 2930.0323 3035.3009 Z" fill="none" stroke="#E71E24" opacity="0.6" stroke-width="1" class="vinegar_hill"/>
<path d="M 2986.4839 2975.5857 2977.9408 3059.0356 2948.7813 3057.6585 2939.7559 3057.6602 2938.8284 3047.7477 2929.3397 3044.7525 2931.4136 2994.7294 2936.5018 2979.0537 2986.4839 2975.5857 Z" fill="none" stroke="#E71E24" opacity="0.6" stroke-width="1" class="vinegar_hill"/>
<path d="M 2954.7827 2979.5112 2988.1048 2980.1955 2971.9173 3029.0686 2970.5302 3035.5235 2929.5691 3033.4568 2930.2613 3021.4696 2931.876 2992.1937 2952.9342 2993.5728 2954.7827 2979.5112 Z" fill="none" stroke="#E71E24" opacity="0.6" stroke-width="1" class="vinegar_hill"/>
<path d="M 2931.6452 2995.4209 2931.8738 2979.5155 2954.7823 2977.6671 2986.4841 2976.5077 2987.644 2988.494 2984.8689 2996.1016 2970.29 2994.9523 2970.7549 3004.4033 2980.9373 3006.2451 2978.3932 3012.4697 2968.6739 3012.2413 2971.2248 3037.137 2929.8009 3035.762 2931.6452 2995.4209 Z" fill="none" stroke="#E71E24" opacity="0.6" stroke-width="1" class="vinegar_hill"/>
<path d="M 2941.8245 2981.5883 2979.7723 2971.4381 3008.4703 2988.0278 3018.6551 2999.0898 2962.1982 3030.4538 2941.8245 2981.5883 Z" fill="none" stroke="#E71E24" opacity="0.6" stroke-width="1" class="vinegar_hill"/>
<path d="M 2931.8763 2993.5767 2931.642 2977.441 2955.0129 2973.7484 2989.7229 2972.8188 3010.5551 2996.3258 3025.3738 3027.9028 3017.0468 3042.6585 2997.1492 3060.1837 2939.5248 3059.274 2940.4484 3047.9779 2928.183 3047.2885 2931.8763 2993.5767 Z" fill="none" stroke="#E71E24" opacity="0.6" stroke-width="1" class="vinegar_hill"/>
<path d="M 2931.6449 2993.8073 2953.1643 2986.6574 2987.6436 2986.8804 2972.1507 3038.2894 2929.1066 3035.3011 2931.6449 2993.8073 Z" fill="none" stroke="#E71E24" opacity="0.6" stroke-width="1" class="vinegar_hill"/>
<path d="M 2912.2067 2993.119 2955.9393 2977.4364 2989.264 2989.1851 2973.7712 3040.5943 2909.4358 3032.7685 2912.2067 2993.119 Z" fill="none" stroke="#E71E24" opacity="0.6" stroke-width="1" class="vinegar_hill"/>
<path d="M 2931.645 2994.3836 2955.4768 2979.1653 2983.0143 2981.4645 2977.9375 3044.3971 2970.6464 3037.5982 2929.6852 3035.301 2931.645 2994.3836 Z" fill="none" stroke="#E71E24" opacity="0.6" stroke-width="1" class="vinegar_hill"/>
<path d="M 2922.4028 3079.3332 2913.6053 3058.3563 2910.3635 3045.9083 2908.2797 3039.2234 2913.3632 2990.1221 2941.5998 3017.5487 2937.8923 2990.8095 2953.6268 2985.5047 2968.6682 2985.7321 2992.5027 2985.2657 2990.4226 2995.8697 2982.3254 3004.6312 2980.4756 3011.0861 2970.9887 3015.4681 2953.4011 3013.8581 2954.097 3022.1567 2949.4707 3032.3005 2952.9469 3057.1966 2951.0995 3077.7143 2958.7391 3090.1617 2961.7521 3111.1401 2950.1806 3112.2952 2935.1368 3109.762 2930.2744 3096.8526 2922.4028 3079.3332 Z" fill="none" stroke="#E71E24" opacity="0.6" stroke-width="1" class="vinegar_hill"/>
<path d="M 2931.1821 2994.0379 2972.3719 2991.7246 3009.4202 3082.0812 2925.1808 3083.9435 2931.1821 2994.0379 Z" fill="none" stroke="#E71E24" opacity="0.6" stroke-width="1" class="vinegar_hill"/>
<path d="M 2896.9369 3014.7897 2911.7419 2980.6714 2995.9714 2975.5834 2972.845 3038.2893 2905.7326 3029.0807 2896.9369 3014.7897 Z" fill="none" stroke="#E71E24" opacity="0.6" stroke-width="1" class="vinegar_hill"/>
<path d="M 2954.6666 2977.5519 2949.6894 2967.4105 2996.4321 2967.0545 2979.6672 3018.1171 2972.3784 3021.1155 2969.2524 3012.3564 2968.5616 3028.1472 2972.8449 3037.8282 2950.5129 3036.4497 2951.2026 3013.5128 2955.1299 2980.2027 2954.6666 2977.5519 Z" fill="none" stroke="#E71E24" opacity="0.6" stroke-width="1" class="vinegar_hill"/>
<path d="M 2909.4395 3057.2043 2976.0989 3101.4543 2990.0017 3172.46 2902.9762 3170.6322 2909.4395 3057.2043 Z" fill="none" stroke="#E71E24" opacity="0.6" stroke-width="1" class="vinegar_hill"/></svg>