<?xml version="1.0"?><svg xmlns="http://www.w3.org/2000/svg" version="1.2" baseProfile="tiny" width="6000" height="5918" viewBox="0 0 6000 5918" stroke-linecap="round" stroke-linejoin="round"><path d="M 4060.6328 385.2904 4063.1185 424.6786 4051.5029 282.9735 4041.1347 464.5924 4067.1618 487.8779 4274.1309 303.7035 4158.7069 269.8622 4054.4317 283.802 4181.4756 185.9075 4272.2884 206.6386 4325.8635 235.0518 4510.5179 208.2784 4490.0545 380.2013 4350.1155 511.2926 4071.9471 490.9244 4099.7548 478.3904 4060.6328 385.2904 Z" fill="none" stroke="#865327" opacity="0.6" stroke-width="1" class="wakefield"/>
<path d="M 4391.3621 124.6553 4394.2765 125.4218 4417.5953 135.4933 4411.3891 148.6041 4407.1819 161.4434 4401.6691 175.4726 4396.0489 193.9784 4382.6003 220.6934 4365.1581 248.7593 4352.7708 279.3443 4344.4859 303.793 4339.1507 324.2229 4329.6269 344.392 4320.6036 371.1311 4311.177 392.2958 4298.3303 430.1583 4287.5247 454.3887 4278.9767 480.9955 4267.1995 509.4755 4255.6941 536.41 4250.4211 558.9507 4243.9952 557.9381 4238.2231 556.7975 4233.136 550.8274 4219.2794 545.5607 4195.6376 537.4846 4169.0047 528.3371 4171.288 519.6362 4177.353 480.0658 4192.7568 440.9595 4202.935 397.7455 4216.8901 356.7969 4232.2911 321.8425 4252.7052 292.7121 4264.8758 266.5656 4269.3875 250.1624 4279.4977 223.9437 4291.2659 209.7474 4300.3934 194.6526 4316.5443 168.1078 4328.7397 148.5523 4346.079 124.2387 4365.0388 111.1411 4391.3621 124.6553 Z" fill="none" stroke="#865327" opacity="0.6" stroke-width="1" class="wakefield"/>
<path d="M 4466.2319 182.3327 4497.2169 282.4889 4519.6105 288.6537 4533.2004 337.3597 4544.2242 370.6708 4463.2487 383.3488 4358.0581 338.3617 4329.6558 326.8009 4299.5201 313.0584 4332.7449 241.7482 4372.6618 174.2231 4427.5723 174.2427 4460.7761 163.4964 4466.2319 182.3327 Z" fill="none" stroke="#865327" opacity="0.6" stroke-width="1" class="wakefield"/>
<path d="M 4465.3225 381.6209 4300.8999 310.1829 4350.5792 213.5625 4378.2851 224.5479 4413.3301 209.7773 4411.4602 195.9903 4472.3405 179.3338 4525.3115 375.9936 4465.3225 381.6209 Z" fill="none" stroke="#865327" opacity="0.6" stroke-width="1" class="wakefield"/>
<path d="M 4370.2559 116.3114 4408.8184 136.4691 4469.7565 153.8274 4525.5478 378.9816 4246.4157 292.8006 4370.2559 116.3114 Z" fill="none" stroke="#865327" opacity="0.6" stroke-width="1" class="wakefield"/>
<path d="M 4373.2343 104.1261 4430.2724 135.5121 4440.9434 168.3583 4470.9233 161.1798 4506.4402 279.0241 4534.5356 372.5281 4232.097 284.7779 4262.4327 207.7308 4292.9121 222.3917 4301.6171 183.9946 4354.5299 93.5864 4373.2343 104.1261 Z" fill="none" stroke="#865327" opacity="0.6" stroke-width="1" class="wakefield"/>
<path d="M 4243.1167 284.9629 4279.1707 182.1233 4357.694 228.8809 4317.2235 312.6156 4297.8839 339.312 4243.1167 284.9629 Z" fill="none" stroke="#865327" opacity="0.6" stroke-width="1" class="wakefield"/>
<path d="M 4389.1968 129.8383 4425.6899 153.4465 4435.8404 152.9689 4471.386 161.8684 4485.7838 213.0954 4418.4391 228.6154 4374.0402 170.7732 4389.1968 129.8383 Z" fill="none" stroke="#865327" opacity="0.6" stroke-width="1" class="wakefield"/>
<path d="M 4421.4955 129.782 4495.4662 208.7107 4527.0304 307.9482 4539.1678 381.4848 4367.451 366.1606 4366.5014 350.5306 4298.1474 320.3014 4258.4377 307.4927 4374.4082 116.0745 4197.4293 247.8248 4253.8082 298.3056 4337.5773 164.8592 4367.0429 126.1991 4421.4955 129.782 Z" fill="none" stroke="#865327" opacity="0.6" stroke-width="1" class="wakefield"/>
<path d="M 4664.325 1 4720.0263 1 4751.9848 186.1402 4759.7415 362.6533 4721.2942 517.2241 4499.7231 515.8186 4305.7254 438.9077 4281.5096 305.617 4312.7176 199.8351 4364.184 72.8872 4496.9436 8.3087 4592.2584 1 4664.325 1 Z" fill="none" stroke="#865327" opacity="0.6" stroke-width="1" class="wakefield"/>
<path d="M 4234.7599 285.7295 4233.7111 283.1981 4270.3582 268.0259 4346.4184 124.2773 4373.3379 106.7116 4395.0733 119.8204 4410.5351 127.1402 4398.2236 186.5032 4370.1818 236.5098 4345.153 292.9588 4358.9631 339.4661 4330.6031 326.3727 4301.3663 314.3208 4234.7599 285.7295 Z" fill="none" stroke="#865327" opacity="0.6" stroke-width="1" class="wakefield"/>
<path d="M 4140.1362 831.9065 4149.0525 614.8072 4171.9948 520.9632 4245.5028 299.2381 4323.6067 87.663 4706.8322 219.3311 4684.179 425.3389 4603.9546 469.6393 4545.031 553.4409 4564.6033 649.9764 4601.7801 775.004 4562.205 844.9959 4429.1629 813.9615 4140.1362 831.9065 Z" fill="none" stroke="#865327" opacity="0.6" stroke-width="1" class="wakefield"/>
<path d="M 4314.1151 137.6637 4335.6139 94.3076 4349.5819 100.7189 4373.3751 119.0639 4389.1937 127.9997 4388.5055 130.2991 4407.3198 137.0462 4419.2018 137.3702 4428.6646 139.5368 4423.6117 152.4159 4428.4765 163.6689 4438.0466 161.1238 4459.3799 156.8339 4469.7558 153.4827 4472.7853 170.1398 4482.7766 208.8488 4492.7266 224.5748 4494.9318 231.8109 4488.5046 249.9806 4496.639 281.9154 4520.9958 289.1108 4521.8212 298.6485 4531.7385 296.1015 4548.6902 352.732 4545.2653 372.0482 4526.8134 377.0253 4513.7822 380.8426 4490.2417 379.6216 4474.0919 381.72 4464.2884 384.0365 4427.3387 368.8154 4394.3142 354.1609 4342.473 332.986 4299.7516 313.5178 4250.225 294.0588 4239.8343 289.4779 4268.127 233.8089 4314.1151 137.6637 Z" fill="none" stroke="#865327" opacity="0.6" stroke-width="1" class="wakefield"/>
<path d="M 4332.9661 166.7055 4565.8277 324.4252 4455.1457 368.7659 4303.6509 299.1449 4277.8162 304.7035 4244.5625 288.2063 4290.4731 141.0347 4332.9661 166.7055 Z" fill="none" stroke="#865327" opacity="0.6" stroke-width="1" class="wakefield"/>
<path d="M 4233.4759 380.5565 4264.2152 264.5379 4347.1548 124.4507 4371.5859 104.1904 4395.5603 119.8552 4266.3971 392.9047 4233.4759 380.5565 Z" fill="none" stroke="#865327" opacity="0.6" stroke-width="1" class="wakefield"/>
<path d="M 4579.0727 372.2136 4205.6738 433.6634 4348.8146 124.6212 4473.2588 176.804 4579.0727 372.2136 Z" fill="none" stroke="#865327" opacity="0.6" stroke-width="1" class="wakefield"/>
<path d="M 4242.0163 288.8424 4324.4157 104.3313 4435.3674 139.0354 4441.787 154.1925 4373.7765 344.6018 4295.9198 320.7882 4263.8212 305.6687 4242.0163 288.8424 Z" fill="none" stroke="#865327" opacity="0.6" stroke-width="1" class="wakefield"/>
<path d="M 4370.5063 104.1687 4394.063 118.8365 4426.5417 134.1007 4430.2357 135.6271 4446.5188 189.1103 4475.5727 179.8646 4475.6027 196.4127 4492.7284 224.8816 4495.2026 232.2321 4489.235 249.4046 4495.9062 279.8859 4503.1822 304.6974 4370.9535 343.5498 4254.1136 295.8548 4251.0316 293.4047 4239.3363 289.7453 4295.1683 190.9782 4370.5063 104.1687 Z" fill="none" stroke="#865327" opacity="0.6" stroke-width="1" class="wakefield"/>
<path d="M 4257.4955 295.3115 4335.2361 144.4086 4412.1563 198.2874 4474.1875 180.02 4488.8518 250.5546 4524.1598 377.1452 4464.1695 382.0827 4257.4955 295.3115 Z" fill="none" stroke="#865327" opacity="0.6" stroke-width="1" class="wakefield"/>
<path d="M 4347.8903 123.7034 4428.2253 152.063 4407.5343 193.9286 4456.2756 355.431 4422.8316 364.6855 4356.6011 500.4372 4203.7281 444.1267 4347.8903 123.7034 Z" fill="none" stroke="#865327" opacity="0.6" stroke-width="1" class="wakefield"/>
<path d="M 4415.9819 143.1214 4273.9196 321.0301 4314.2879 312.9193 4273.2034 306.09 4287.7443 308.3653 4286.51 258.4881 4326.438 264.8587 4306.796 246.9626 4297.8443 204.9158 4315.4948 205.0019 4321.2312 185.801 4342.433 171.2863 4367.6075 186.8725 4384.0024 194.8887 4391.6174 195.5651 4411.4168 171.1683 4413.453 148.182 4472.1131 181.1729 4468.8881 183.9367 4485.5757 225.5073 4494.9104 282.9529 4502.5223 281.5597 4496.2674 268.0098 4532.1064 307.7089 4533.7471 321.2678 4540.409 305.3946 4537.4045 302.8718 4540.3813 290.6835 4546.7161 346.0694 4547.2133 364.9182 4554.4534 410.4214 4553.3388 431.1137 4505.0657 409.3645 4472.4013 467.5878 4422.744 446.0658 4359.8066 485.2578 4254.7756 472.3251 4261.4173 440.1286 4251.6727 407.2695 4250.0076 375.778 4242.5687 341.0784 4250.4314 205.4514 4252.7601 219.0084 4322.0215 105.591 4346.2834 128.5323 4363.1311 132.181 4385.5902 179.0274 4404.4797 162.2171 4415.9819 143.1214 Z" fill="none" stroke="#865327" opacity="0.6" stroke-width="1" class="wakefield"/>
<path d="M 4275.7726 181.5082 4425.3131 201.4821 4418.1849 346.7634 4351.7483 359.7506 4307.409 339.5953 4283.4252 348.8292 4242.7973 339.6989 4255.6149 273.478 4240.7756 227.5314 4270.253 192.5491 4275.7726 181.5082 Z" fill="none" stroke="#865327" opacity="0.6" stroke-width="1" class="wakefield"/>
<path d="M 4346.3214 219.8903 4361.9488 190.4721 4350.8325 186.2671 4350.8308 185.2328 4342.9985 181.2847 4328.7559 205.8008 4355.1865 159.7993 4374.574 172.539 4382.5679 178.5822 4360.9036 130.5702 4382.9505 139.036 4390.092 142.1563 4403.3962 146.4435 4425.7566 153.118 4426.0506 155.8458 4432.0483 172.2236 4460.0807 163.593 4470.7873 161.9429 4486.4403 211.7549 4431.8551 226.2023 4422.4899 229.2942 4383.6609 241.4742 4366.1681 246.2864 4350.486 250.9099 4333.0771 243.8784 4342.8947 227.4391 4346.462 222.0318 4346.3214 219.8903 Z" fill="none" stroke="#865327" opacity="0.6" stroke-width="1" class="wakefield"/>
<path d="M 4317.4941 298.2028 4212.2443 279.0622 4324.4854 61.0039 4654.0274 120.1517 4464.3978 380.703 4317.4941 298.2028 Z" fill="none" stroke="#865327" opacity="0.6" stroke-width="1" class="wakefield"/></svg>