<?xml version="1.0"?><svg xmlns="http://www.w3.org/2000/svg" version="1.2" baseProfile="tiny" width="6000" height="5918" viewBox="0 0 6000 5918" stroke-linecap="round" stroke-linejoin="round"><path d="M 4006.2986 1061.4203 4039.7066 1004.2111 4032.2182 1016.4129 4048.2247 985.107 4058.1576 987.7388 4067.0561 993.7073 4077.9132 996.5676 4090.5108 1005.5212 4087.1781 1016.6825 4085.5647 1018.8701 4079.1179 1032.5664 4078.3126 1034.6378 4071.9822 1049.1392 4065.873 1056.7391 4054.9097 1061.1251 4053.4102 1062.2773 4051.1126 1070.9072 4049.7386 1079.4209 4049.6352 1088.2781 4048.9507 1094.3754 4048.0417 1105.1892 4047.1313 1115.083 4046.3277 1118.535 4045.9936 1127.6228 4043.0011 1134.8739 4040.589 1144.4248 4040.2532 1152.2476 4042.3439 1161.2174 4040.0508 1173.4143 4040.9783 1176.0589 4033.1254 1175.9545 4024.8081 1173.8949 4018.4518 1170.2223 4016.7182 1169.1892 4006.898 1165.8662 4003.6601 1162.4194 4001.115 1158.9717 3992.2262 1161.284 3993.7235 1158.2911 3990.2529 1153.4642 3985.6299 1150.4793 3982.8498 1143.8109 3984.2272 1137.3673 3988.8391 1131.8398 3992.076 1134.5964 4001.0755 1128.8331 3992.289 1120.7924 3996.6637 1110.6641 3996.4145 1096.631 3998.9437 1088.1157 4003.3089 1070.8562 4031.4141 1019.5195 4020.1246 1038.8578 4014.1348 1049.6777 4006.2986 1061.4203 Z" fill="none" stroke="#A9159C" opacity="0.6" stroke-width="1" class="west_farms"/>
<path d="M 4054.6266 991.92 4130.5263 1052.0486 4136.1315 1095.2897 4054.9182 1152.4595 3976.3379 1109.3119 3991.0789 1078.9257 4021.4032 959.2672 4114.8204 1050.2309 4054.6266 991.92 Z" fill="none" stroke="#A9159C" opacity="0.6" stroke-width="1" class="west_farms"/>
<path d="M 4026.2409 950.0581 4086.1289 1009.5529 4079.4624 1031.1857 4140.9255 1056.4026 4117.4282 1096.6953 4049.5335 1098.4006 3998.1751 1206.8312 3927.6909 1175.4001 3873.1552 1150.8482 4026.2409 950.0581 Z" fill="none" stroke="#A9159C" opacity="0.6" stroke-width="1" class="west_farms"/>
<path d="M 4180.1397 1018.2775 4151.363 930.3311 4167.7798 790.4683 4304.4738 803.134 4367.3986 878.4668 4358.3403 983.3689 4290.0791 1038.6899 4180.1397 1018.2775 Z" fill="none" stroke="#A9159C" opacity="0.6" stroke-width="1" class="west_farms"/>
<path d="M 3987.8971 939.7578 4080.3598 1012.3214 4079.463 1031.6457 4134.9293 1061.9324 4128.5323 1109.7925 4052.8252 1141.1873 3991.15 1310.6126 3958.8411 1334.5854 3837.7878 1326.4468 3874.5525 1160.7395 3869.8698 1106.45 3978.6527 933.3293 3987.8971 939.7578 Z" fill="none" stroke="#A9159C" opacity="0.6" stroke-width="1" class="west_farms"/>
<path d="M 4092.9879 1124.7971 4076.6043 1134.7127 4064.1536 1149.6842 3974.9528 1109.0818 3972.8729 1107.9342 3984.8457 1079.8522 3989.9123 1069.0333 3991.7403 1054.0779 3995.6367 1031.5288 3998.6047 1005.5309 3999.9794 997.248 4009.6588 982.7434 4015.1894 974.2252 4019.5645 965.0184 4022.0886 953.0539 4085.4413 1013.2344 4076.4645 1034.1803 4088.9381 1036.6933 4134.2305 1057.7926 4128.5117 1095.529 4121.3989 1127.7475 4092.9879 1124.7971 Z" fill="none" stroke="#A9159C" opacity="0.6" stroke-width="1" class="west_farms"/>
<path d="M 4004.4201 941.4853 4180.0476 1035.0897 4127.6024 1177.8023 3978.6836 1241.6445 3899.0859 1123.945 4004.4201 941.4853 Z" fill="none" stroke="#A9159C" opacity="0.6" stroke-width="1" class="west_farms"/>
<path d="M 3983.6619 964.4315 3968.2088 974.3861 3963.1398 983.1335 3958.0364 964.738 3964.4867 952.7688 3995.9511 954.2726 4027.3778 971.7127 4033.4062 990.1067 3994.1572 995.2193 3965.782 980.27 3971.9067 980.2539 3983.6619 964.4315 Z" fill="none" stroke="#A9159C" opacity="0.6" stroke-width="1" class="west_farms"/>
<path d="M 3979.5872 1144.7786 3992.4308 1075.7447 4056.1592 1068.298 4105.2128 1135.4059 4034.2136 1234.8969 3969.5087 1210.1326 3979.5872 1144.7786 Z" fill="none" stroke="#A9159C" opacity="0.6" stroke-width="1" class="west_farms"/>
<path d="M 4017.3195 839.4373 4088.4237 834.7404 4167.8592 843.8252 4187.421 955.1192 4214.4452 1110.5846 4260.7977 1213.5838 4184.1751 1253.2773 4079.7978 1271.8362 4007.7464 1283.899 3930.9914 1229.6949 4017.3195 839.4373 Z" fill="none" stroke="#A9159C" opacity="0.6" stroke-width="1" class="west_farms"/>
<path d="M 4002.9213 1127.4503 4024.1551 1117.2995 3971.4851 1106.3255 4049.6325 832.0341 4539.0962 834 4505.6209 1210.4028 4148.9108 1147.493 4083.3379 1160.4708 4002.9213 1127.4503 Z" fill="none" stroke="#A9159C" opacity="0.6" stroke-width="1" class="west_farms"/>
<path d="M 4056.4694 1103.9124 3992.6805 1066.7292 4023.4863 962.2529 4089.1419 1017.3699 4056.4694 1103.9124 Z" fill="none" stroke="#A9159C" opacity="0.6" stroke-width="1" class="west_farms"/>
<path d="M 4019.3223 1159.3084 4001.7454 1140.9262 3981.3955 1120.7071 3988.7765 1099.2599 3993.3618 1073.4881 4003.4988 1055.0711 4007.161 1030.2218 4012.6068 1006.923 4003.3555 995.8937 3985.7903 983.9551 3970.0964 990.4161 3984.8643 982.1161 4020.9039 994.9504 4040.3072 999.525 4068.0249 1005.0078 4087.4363 1015.1023 4108.7231 1044.5171 4112.4653 1077.6384 4078.3571 1128.2989 4019.3223 1159.3084 Z" fill="none" stroke="#A9159C" opacity="0.6" stroke-width="1" class="west_farms"/>
<path d="M 4078.6785 951.2388 3918.1103 960.5521 3940.2477 936.6028 3994.2865 918.3647 4030.6729 942.7956 4128.5389 916.8976 4119.6122 1132.2252 4117.4884 1158.6334 4070.0097 1195.7607 3990.5419 1183.9032 3952.6095 1140.6985 3929.4574 1094.7155 3913.3968 1043.8937 3937.3162 965.6533 4010.2593 947.1581 4114.9541 1128.7791 4106.492 1024.8087 4078.6785 951.2388 Z" fill="none" stroke="#A9159C" opacity="0.6" stroke-width="1" class="west_farms"/>
<path d="M 3990.8596 944.359 4154.4578 1024.1816 4101.0763 1160.4505 3942.203 1180.9085 3932.7891 1039.2047 3990.8596 944.359 Z" fill="none" stroke="#A9159C" opacity="0.6" stroke-width="1" class="west_farms"/>
<path d="M 4132.6166 1059.6353 4110.9733 1104.7565 4037.0596 1096.1169 3993.1394 1064.4282 4026.2523 958.5689 4132.6166 1059.6353 Z" fill="none" stroke="#A9159C" opacity="0.6" stroke-width="1" class="west_farms"/></svg>