<?xml version="1.0"?><svg xmlns="http://www.w3.org/2000/svg" version="1.2" baseProfile="tiny" width="6000" height="5918" viewBox="0 0 6000 5918" stroke-linecap="round" stroke-linejoin="round"><path d="M 1352.9962 4074.2587 1356.2547 4064.1095 1378.443 3941.6096 1611.8386 3830.7113 1697.5471 4025.0951 1615.8009 4191.3943 1352.9962 4074.2587 Z" fill="none" stroke="#E71E24" opacity="0.6" stroke-width="1" class="west_brighton"/>
<path d="M 1511.4775 4060.6357 1499.7675 3982.1608 1490.8474 3897.4661 1537.4486 3863.6107 1550.8863 3860.6286 1553.4466 3850.9416 1593.769 3833.9192 1634.9992 3831.2007 1630.5831 3844.1157 1617.6102 3846.1765 1627.4796 3920.9447 1654.1245 3914.9772 1685.8705 3904.1694 1694.4418 3903.2562 1709.2669 3902.5807 1711.3325 3919.6575 1725.6937 3919.6734 1748.399 3914.8526 1752.779 3934.4701 1759.2444 3953.6288 1766.6419 3967.943 1758.5235 3978.0874 1725.6361 3972.0523 1716.582 3990.041 1716.5479 4020.7319 1697.7753 4028.0953 1637.0689 4037.7169 1590.0327 4044.8134 1541.6009 4055.5982 1511.4775 4060.6357 Z" fill="none" stroke="#E71E24" opacity="0.6" stroke-width="1" class="west_brighton"/>
<path d="M 1621.3382 4210.7887 1495.3952 4133.0794 1417.4831 4179.1307 1389.0899 3947.3938 1667.1812 3841.621 1804.0883 4046.6706 1621.3382 4210.7887 Z" fill="none" stroke="#E71E24" opacity="0.6" stroke-width="1" class="west_brighton"/>
<path d="M 1523.4193 3964.1935 1558.6551 3943.9335 1600.3683 3929.2183 1640.181 3953.2638 1686.4272 4025.3132 1658.5535 4088.9739 1565.8743 4096.2458 1539.0573 4051.9025 1530.7752 4007.5849 1523.4193 3964.1935 Z" fill="none" stroke="#E71E24" opacity="0.6" stroke-width="1" class="west_brighton"/>
<path d="M 1725.5494 3840.3027 1766.3335 3969.2999 1672.2971 4120.5466 1592.7522 4185.4477 1454.426 4084.0443 1415.2949 4088.8887 1360.6278 4100.3691 1349.8097 4098.01 1377.8289 3948.993 1374.5982 3940.6815 1487.7 3894.6935 1649.241 3834.7283 1725.5494 3840.3027 Z" fill="none" stroke="#E71E24" opacity="0.6" stroke-width="1" class="west_brighton"/>
<path d="M 1495.8738 3949.1584 1653.6626 3913.823 1662.6454 3957.4437 1715.1923 3989.8087 1717.4769 4018.656 1690.825 4028.5489 1696.8075 4064.5556 1676.6467 4069.3789 1684 4122.0053 1638.3541 4125.6446 1541.7197 4142.8337 1510.5496 4061.5575 1495.8738 3949.1584 Z" fill="none" stroke="#E71E24" opacity="0.6" stroke-width="1" class="west_brighton"/>
<path d="M 1651.9014 4229.29 1418.5742 4063.7387 1432.5173 4033.2969 1505.7811 3989.0914 1818.0132 4021.762 1651.9014 4229.29 Z" fill="none" stroke="#E71E24" opacity="0.6" stroke-width="1" class="west_brighton"/>
<path d="M 1492.9292 3899.5455 1598.4526 3979.9802 1725.4078 3969.0523 1858.8399 3964.5746 1647.252 4242.2101 1395.5799 3944.6343 1492.9292 3899.5455 Z" fill="none" stroke="#E71E24" opacity="0.6" stroke-width="1" class="west_brighton"/>
<path d="M 1517.0405 3882.965 1588.0072 4183.0512 1427.8449 4060.9826 1389.1692 3892.9397 1517.0405 3882.965 Z" fill="none" stroke="#E71E24" opacity="0.6" stroke-width="1" class="west_brighton"/>
<path d="M 1806.8683 4046.6735 1656.528 4235.7582 1622.2661 4209.8666 1550.9807 4147.9231 1463.0291 4082.263 1437.1206 4054.5341 1409.4094 3992.6502 1496.5201 3985.387 1531.7404 3978.0495 1656.8257 3981.8964 1715.1898 3992.1162 1744.8311 4001.379 1770.7685 4008.7909 1792.9988 4017.1214 1808.7665 4002.3688 1834.7071 4007.0099 1806.8683 4046.6735 Z" fill="none" stroke="#E71E24" opacity="0.6" stroke-width="1" class="west_brighton"/>
<path d="M 1801.8517 3968.2102 1805.4821 4042.9798 1542.8722 4057.7921 1528.8409 3981.0455 1801.8517 3968.2102 Z" fill="none" stroke="#E71E24" opacity="0.6" stroke-width="1" class="west_brighton"/>
<path d="M 1393.311 3911.8659 1591.6876 3831.3787 1623.8648 4037.2395 1512.634 4062.0218 1489.0051 4061.0672 1458.4001 4079.0258 1434.3335 4059.6071 1404.7757 3993.1051 1393.311 3911.8659 Z" fill="none" stroke="#E71E24" opacity="0.6" stroke-width="1" class="west_brighton"/>
<path d="M 1459.9949 4071.0459 1425.624 3946.9183 1697.3398 3841.1378 1704.642 4165.0104 1459.9949 4071.0459 Z" fill="none" stroke="#E71E24" opacity="0.6" stroke-width="1" class="west_brighton"/>
<path d="M 1514.958 4056.4864 1727.2052 4019.8206 1814.2844 4043.9117 1661.172 4227.4544 1653.7421 4240.3713 1548.1992 4148.8427 1545.4309 4139.6074 1514.958 4056.4864 Z" fill="none" stroke="#E71E24" opacity="0.6" stroke-width="1" class="west_brighton"/>
<path d="M 1454.7631 4028.7127 1421.4579 3990.8214 1463.2045 3954.8826 1541.9556 3960.5257 1654.9541 3997.5856 1649.3094 4069.5778 1549.2031 4088.8396 1440.8131 4064.6932 1454.7631 4028.7127 Z" fill="none" stroke="#E71E24" opacity="0.6" stroke-width="1" class="west_brighton"/>
<path d="M 1521.3457 4131.7292 1464.7682 4165.3489 1389.094 3944.6249 1493.8594 3896.778 1603.1615 3918.1463 1635.3447 4123.5639 1521.3457 4131.7292 Z" fill="none" stroke="#E71E24" opacity="0.6" stroke-width="1" class="west_brighton"/>
<path d="M 1351.7985 4100.5657 1366.7884 3990.7421 1513.2172 3971.5641 1802.2397 4042.0534 1642.6112 4247.7442 1357.0949 4277.8306 1351.7985 4100.5657 Z" fill="none" stroke="#E71E24" opacity="0.6" stroke-width="1" class="west_brighton"/>
<path d="M 1394.6547 3943.71 1591.2244 3831.3781 1605.9343 3923.6874 1611.4271 3978.1501 1639.2204 3981.8756 1662.2011 4139.7509 1624.1705 4167.8627 1596.3449 4185.8311 1516.7078 4134.9541 1454.6915 4080.4053 1416.7604 4036.0438 1394.6547 3943.71 Z" fill="none" stroke="#E71E24" opacity="0.6" stroke-width="1" class="west_brighton"/>
<path d="M 1525.2761 3961.427 1600.432 3877.5339 1807.8053 4036.5206 1659.3107 4233.915 1510.3051 4071.2497 1525.2761 3961.427 Z" fill="none" stroke="#E71E24" opacity="0.6" stroke-width="1" class="west_brighton"/>
<path d="M 1498.3819 3978.9284 1668.0134 3922.8385 1805.996 3993.1358 1719.6268 4169.3578 1664.0503 4143.4457 1599.1287 4183.0649 1539.856 4150.6783 1456.541 4083.1772 1401.0726 3990.7922 1498.3819 3978.9284 Z" fill="none" stroke="#E71E24" opacity="0.6" stroke-width="1" class="west_brighton"/>
<path d="M 1612.0353 4173.8543 1273.0497 4126.7967 1629.0182 4042.3651 1785.7676 4047.3885 1778.1038 4287.4103 1612.0353 4173.8543 Z" fill="none" stroke="#E71E24" opacity="0.6" stroke-width="1" class="west_brighton"/>
<path d="M 1601.4164 3830.4678 1628.1768 3919.0996 1655.0137 3946.8205 1681.7284 4082.5389 1602.8382 4181.2231 1456.5474 4078.5616 1348.3272 4098.0219 1380.3491 3905.3864 1601.4164 3830.4678 Z" fill="none" stroke="#E71E24" opacity="0.6" stroke-width="1" class="west_brighton"/>
<path d="M 1488.311 3888.9256 1572.9204 3836.6617 1636.62 3831.6641 1653.1948 3917.745 1657.5685 3941.0549 1687.6586 3961.1645 1707.7922 3978.4935 1710.296 4018.1865 1696.5737 4066.4015 1618.7184 4078.3106 1521.398 4092.0343 1510.3155 4063.4034 1501.373 3994.1621 1496.7982 3950.7749 1488.311 3888.9256 Z" fill="none" stroke="#E71E24" opacity="0.6" stroke-width="1" class="west_brighton"/>
<path d="M 1493.5777 4106.3058 1455.6271 4073.9449 1415.4271 3996.3509 1656.8219 3985.127 1721.1893 4013.3526 1804.554 4044.3634 1651.8928 4236.676 1605.1444 4189.9964 1564.3987 4163.6343 1531.5345 4135.8968 1552.8259 4154.3877 1502.8091 4133.0894 1493.5777 4106.3058 Z" fill="none" stroke="#E71E24" opacity="0.6" stroke-width="1" class="west_brighton"/>
<path d="M 1505.9053 3895.8712 1505.9213 3883.8732 1696.8225 3846.2693 1729.9801 4024.4389 1462.1177 4071.1845 1505.9053 3895.8712 Z" fill="none" stroke="#E71E24" opacity="0.6" stroke-width="1" class="west_brighton"/>
<path d="M 1460.2541 4078.5668 1487.1549 4058.7569 1543.6853 4056.0624 1616.9121 4039.5388 1713.7701 4018.8827 1805.944 4044.3648 1647.2525 4241.7485 1620.4209 4202.9401 1568.5581 4172.4099 1542.6452 4143.7581 1500.9716 4121.0859 1469.0368 4093.8102 1460.2541 4078.5668 Z" fill="none" stroke="#E71E24" opacity="0.6" stroke-width="1" class="west_brighton"/>
<path d="M 1395.5792 3945.0958 1601.4301 3819.3935 1657.603 4109.2815 1500.035 4128.4699 1384.4194 3973.2307 1390.9457 3945.5505 1395.5792 3945.0958 Z" fill="none" stroke="#E71E24" opacity="0.6" stroke-width="1" class="west_brighton"/>
<path d="M 1376.5905 3941.1454 1378.6704 3944.4943 1387.7063 3943.123 1678.4017 3852.7085 1703.0305 4093.0635 1664.0094 4178.5267 1631.3591 4162.7938 1581.7579 4177.8503 1458.4027 4077.1796 1394.3084 3942.9018 1376.5905 3941.1454 Z" fill="none" stroke="#E71E24" opacity="0.6" stroke-width="1" class="west_brighton"/>
<path d="M 1598.194 4189.5263 1452.8483 4073.0179 1390.9498 3942.7816 1462.3581 3896.7351 1480.8808 3902.298 1549.4987 3859.0118 1601.8788 3831.1606 1615.7603 3843.6363 1628.4073 3920.0229 1636.5158 3918.8789 1630.0088 3936.6381 1650.382 3945.892 1660.5353 3979.1317 1721.6862 3982.8933 1724.4324 4013.3562 1707.7367 4028.1065 1705.8576 4051.1811 1692.855 4077.013 1691.877 4122.245 1668.7044 4125.9111 1668.6798 4147.1438 1642.712 4162.8073 1598.194 4189.5263 Z" fill="none" stroke="#E71E24" opacity="0.6" stroke-width="1" class="west_brighton"/>
<path d="M 1727.643 4146.9324 1643.1868 4229.7145 1486.2311 4280.061 1465.0964 4168.0026 1431.3716 4095.2542 1459.2008 4074.9846 1505.1296 4064.9916 1483.205 3983.073 1522.1933 3944.701 1564.2144 3943.9406 1587.6582 3935.3728 1608.0833 3929.6505 1616.7778 3981.4817 1649.957 3982.7214 1658.5919 4034.1909 1681.453 4093.2075 1727.643 4146.9324 Z" fill="none" stroke="#E71E24" opacity="0.6" stroke-width="1" class="west_brighton"/>
<path d="M 1650.9583 4243.1378 1393.7281 3943.7086 1405.7919 3930.8045 1402.0937 3925.2614 1598.636 3831.3873 1687.5621 3842.5673 1802.236 4045.7457 1650.9583 4243.1378 Z" fill="none" stroke="#E71E24" opacity="0.6" stroke-width="1" class="west_brighton"/>
<path d="M 1952.4463 3938.8162 1459.3211 4083.181 1454.6863 4084.0977 1952.4463 3938.8162 Z" fill="none" stroke="#E71E24" opacity="0.6" stroke-width="1" class="west_brighton"/>
<path d="M 1617.5943 4205.4719 1576.8476 4179.1099 1544.1998 4143.4522 1501.9011 4123.2478 1487.5454 4116.7665 1456.2082 4077.2665 1433.9943 4058.3121 1410.8915 3992.6362 1399.3783 3944.6236 1413.6054 3945.1056 1441.4099 3939.6071 1453.9394 3924.3956 1477.8453 3896.3262 1496.3743 3897.2742 1549.2263 3865.5031 1595.52 3828.2785 1606.5197 3924.2747 1615.5608 3977.5898 1625.2709 4033.417 1644.898 4157.528 1630.0094 4207.825 1617.5943 4205.4719 Z" fill="none" stroke="#E71E24" opacity="0.6" stroke-width="1" class="west_brighton"/>
<path d="M 1402.0189 3977.1791 1497.7294 3947.3149 1522.0546 3945.0398 1536.5345 4032.284 1402.0189 3977.1791 Z" fill="none" stroke="#E71E24" opacity="0.6" stroke-width="1" class="west_brighton"/>
<path d="M 1431.1649 4170.8413 1429.7685 4175.2245 1428.6234 4165.7601 1422.8547 4149.1347 1419.6291 4136.4365 1419.6501 4121.6661 1416.9032 4098.3529 1412.7713 4071.5768 1424.5976 4063.7473 1435.9591 4056.8402 1424.1768 4033.7467 1406.3969 3993.3381 1397.4313 3945.7907 1439.6094 3931.7754 1466.9907 3896.7414 1476.7234 3893.5245 1483.4356 3897.2254 1490.6104 3901.3883 1498.0306 3895.3992 1510.316 3888.4936 1524.2308 3875.3604 1539.0678 3865.2278 1549.4966 3860.6268 1554.6029 3852.3274 1565.2695 3842.6507 1574.5425 3835.9716 1590.9931 3831.1471 1597.2027 3866.6858 1605.7177 3911.458 1611.6925 3950.4605 1616.7522 3980.4641 1621.1113 4015.3137 1625.9464 4040.0113 1623.8544 4045.7779 1630.5361 4076.2479 1636.0571 4109.0253 1640.419 4142.7255 1626.2721 4154.2482 1605.405 4166.4551 1579.6725 4177.9631 1558.1424 4164.0879 1536.1598 4142.3649 1511.1556 4128.7155 1502.359 4123.1649 1490.0661 4133.3031 1485.4061 4152.6833 1473.5745 4163.9762 1454.8013 4168.3355 1431.6218 4175.4579 1431.1649 4170.8413 Z" fill="none" stroke="#E71E24" opacity="0.6" stroke-width="1" class="west_brighton"/>
<path d="M 1419.0781 4116.5879 1414.3701 4087.6181 1437.8902 4083.9589 1446.8117 4082.4713 1455.7372 4078.099 1466.1694 4073.0363 1481.2389 4064.9798 1487.2667 4061.7571 1511.3608 4061.3278 1542.1784 4056.8682 1564.4252 4051.5889 1604.9789 4041.6011 1623.2839 4038.6234 1635.6799 4036.9076 1646.4537 4035.6512 1681.2097 4029.8072 1691.1737 4027.5109 1696.3422 4066.2859 1695.635 4077.0161 1674.7718 4088.0696 1683.653 4121.5433 1658.5098 4126.3608 1666.0194 4143.6788 1637.166 4150.5686 1642.2524 4159.5756 1427.6869 4172.6828 1418.9541 4122.3574 1419.0781 4116.5879 Z" fill="none" stroke="#E71E24" opacity="0.6" stroke-width="1" class="west_brighton"/>
<path d="M 1405.7813 3938.1882 1570.8286 3842.427 1619.7742 3971.6992 1622.5473 3977.2406 1562.0935 4154.3996 1676.0206 4009.6095 1652.7511 3999.5444 1768.45 4010.6345 1663.1747 4099.5952 1568.5867 4149.7919 1405.7813 3938.1882 Z" fill="none" stroke="#E71E24" opacity="0.6" stroke-width="1" class="west_brighton"/>
<path d="M 1533.7427 3863.6059 1895.1148 3814.1724 1968.9338 4164.9847 1396.016 4283.4276 1529.1079 3865.4456 1533.7427 3863.6059 Z" fill="none" stroke="#E71E24" opacity="0.6" stroke-width="1" class="west_brighton"/>
<path d="M 1519.2754 4045.2416 1502.4165 3948.9623 1511.6882 3944.3597 1614.5652 3920.4934 1654.3957 4029.5997 1615.5023 4039.8399 1577.5066 4042.2132 1545.7627 4048.986 1519.2754 4045.2416 Z" fill="none" stroke="#E71E24" opacity="0.6" stroke-width="1" class="west_brighton"/>
<path d="M 1581.9064 4175.446 1386.6652 3995.2908 1408.0998 3992.8408 1636.5942 3980.5041 1648.0913 4038.2123 1658.7846 4142.1314 1638.8566 4144.5681 1581.9064 4175.446 Z" fill="none" stroke="#E71E24" opacity="0.6" stroke-width="1" class="west_brighton"/>
<path d="M 1443.6731 4007.4672 1442.3987 4007.6962 1440.891 4009.0786 1439.5059 4005.6153 1436.5069 3996.7269 1434.0799 3992.916 1434.1972 3991.8778 1435.3692 3982.0724 1433.0609 3976.3003 1433.5219 3977.9162 1429.8299 3967.758 1424.2933 3951.5978 1424.3162 3935.4457 1498.9633 3890.7858 1523.0815 3868.6679 1605.1188 3833.241 1637.0835 3831.434 1696.8371 3833.3491 1720.4468 3846.7572 1724.148 3850.9142 1726.452 3861.9915 1735.6816 3894.3035 1738.4511 3903.5358 1738.4311 3921.9947 1746.752 3938.617 1758.3056 3965.1651 1757.8435 3964.0109 1758.7618 3971.8574 1759.6717 3987.5495 1759.6643 3994.4721 1767.9809 4016.1723 1769.3664 4020.3274 1773.2978 4026.7929 1775.3782 4031.1796 1782.5469 4043.4177 1784.1619 4049.8809 1774.4324 4049.4093 1746.1758 4043.3792 1742.0028 4046.1439 1730.8855 4043.8242 1720.2295 4043.3509 1709.1076 4045.1847 1696.1328 4046.5547 1691.0352 4047.472 1679.4472 4051.6126 1667.8591 4055.7531 1659.5202 4054.8203 1652.1009 4059.8886 1640.0509 4062.6436 1633.5581 4067.7129 1626.138 4073.2425 1615.4767 4076.922 1602.9545 4086.5994 1609.9106 4081.7616 1609.9064 4085.2232 1602.9516 4088.9072 1599.7093 4087.9801 1588.5832 4092.5819 1568.187 4099.4797 1547.3278 4105.915 1533.4246 4107.7432 1510.2438 4117.4057 1490.7826 4117.3797 1469.473 4113.6581 1454.6582 4104.4064 1446.3332 4093.3173 1441.7152 4082.2334 1437.5607 4071.1504 1435.7086 4070.2247 1437.1245 4051.7649 1438.7549 4045.5364 1436.5648 4037.918 1434.8379 4030.4156 1441.3239 4030.7709 1440.6344 4026.8469 1442.7255 4022.4654 1443.8893 4018.544 1442.9672 4015.3121 1443.6731 4007.4672 Z" fill="none" stroke="#E71E24" opacity="0.6" stroke-width="1" class="west_brighton"/>
<path d="M 1469.0438 4088.7331 1523.2992 4055.5743 1623.6304 4039.4316 1524.1211 4135.4255 1469.0438 4088.7331 Z" fill="none" stroke="#E71E24" opacity="0.6" stroke-width="1" class="west_brighton"/>
<path d="M 1353.1941 4096.8753 1380.7577 3942.7667 1617.627 3832.3334 1635.9145 4034.4848 1352.9586 4099.4135 1353.1941 4096.8753 Z" fill="none" stroke="#E71E24" opacity="0.6" stroke-width="1" class="west_brighton"/>
<path d="M 1663.4069 3928.9173 1661.8482 4000.5953 1648.819 4048.5788 1624.6546 4107.6287 1563.1626 4099.333 1531.6714 4086.3687 1507.0284 4067.0138 1468.6383 4042.5095 1449.9677 3977.4297 1453.7381 3931.2856 1515.4963 3912.8677 1578.4885 3922.1784 1663.4069 3928.9173 Z" fill="none" stroke="#E71E24" opacity="0.6" stroke-width="1" class="west_brighton"/>
<path d="M 1285.8728 3591.0344 1585.6185 3869.2094 1583.7032 3919.0451 1601.1721 4028.9043 1544.6185 4050.9867 1480.6613 4063.8251 1419.5574 4024.048 1401.1206 3957.564 1285.8728 3591.0344 Z" fill="none" stroke="#E71E24" opacity="0.6" stroke-width="1" class="west_brighton"/>
<path d="M 1347.1705 4096.8663 1334.1973 4096.3851 1331.6475 4097.3044 1401.5306 3994.4849 1401.516 4004.6382 1408.907 4019.8791 1407.5204 4017.5694 1416.1801 4036.8507 1429.4822 4049.9079 1431.8829 4072.4116 1444.2755 4073.6983 1418.1955 4085.6619 1405.8406 4058.0666 1397.0665 4037.8616 1398.6936 4034.0563 1395.8346 4088.6299 1373.585 4094.5977 1354.1229 4095.492 1347.1705 4096.8663 Z" fill="none" stroke="#E71E24" opacity="0.6" stroke-width="1" class="west_brighton"/>
<path d="M 1394.6547 3943.71 1591.6853 3833.2244 1616.5205 3980.4638 1554.2075 3980.1553 1561.0967 4027.4696 1507.804 4035.7077 1490.6592 4037.0694 1435.0321 4057.0696 1408.4659 4004.4175 1396.0425 3945.0964 1394.6547 3943.71 Z" fill="none" stroke="#E71E24" opacity="0.6" stroke-width="1" class="west_brighton"/>
<path d="M 1805.7156 4041.1339 1459.3284 4077.8732 1395.3446 3947.1721 1468.8415 3898.3591 1551.8131 3860.3991 1592.8457 3831.3801 1616.0589 3979.0787 1718.8993 3989.3513 1768.6919 4000.9429 1793.4702 4009.276 1819.6334 4023.1482 1809.8865 4040.215 1805.7156 4041.1339 Z" fill="none" stroke="#E71E24" opacity="0.6" stroke-width="1" class="west_brighton"/>
<path d="M 1618.8477 3971.6981 1640.0767 4040.9513 1459.3338 4073.95 1401.9966 3992.6395 1499.3036 3982.6216 1498.4227 3948.4696 1607.7863 3924.6126 1618.8477 3971.6981 Z" fill="none" stroke="#E71E24" opacity="0.6" stroke-width="1" class="west_brighton"/>
<path d="M 1610.1933 4039.9921 1610.0783 4039.2997 1610.3108 4038.6077 1601.0401 4042.0578 1601.3877 4041.9429 1601.1558 4042.1734 1592.0034 4043.5466 1592.0016 4044.9313 1592.0025 4044.239 1591.5393 4044.123 1582.9634 4047.5738 1580.066 4048.8394 1582.8457 4049.0737 1573.8102 4049.5239 1574.0416 4049.7549 1562.5704 4052.7404 1564.8886 4051.4741 1552.8385 4054.228 1554.5782 4052.4995 1544.1495 4055.3707 1541.9482 4055.714 1532.2175 4056.2783 1531.2899 4056.9694 1522.3689 4058.3423 1517.8476 4061.221 1532.0893 4065.7398 1538.799 4072.441 1526.5282 4066.5402 1525.2516 4068.3847 1513.6773 4061.4463 1511.7077 4061.7898 1511.4749 4062.5972 1509.9881 4048.2875 1508.8348 4044.4782 1507.578 4031.4383 1510.0095 4032.1338 1509.4325 4030.5177 1507.3497 4028.8995 1506.8925 4024.2837 1506.893 4023.9375 1506.9021 4017.13 1507.7101 4019.208 1505.4104 4006.5131 1503.9195 3995.4347 1505.1943 3994.8595 1501.962 3986.7788 1500.346 3982.623 1502.5488 3981.0107 1501.5099 3978.3557 1500.2424 3973.5082 1500.3658 3967.855 1500.2518 3966.4703 1499.2083 3967.2765 1499.677 3963.2391 1497.826 3961.6213 1497.7164 3957.0062 1496.9261 3941.776 1496.4615 3942.6983 1496.3434 3944.4288 1495.5353 3942.4664 1495.7748 3936.5827 1495.4404 3926.8912 1493.587 3927.1194 1493.596 3920.428 1491.2786 3921.2325 1493.0245 3914.7741 1492.4472 3913.5043 1494.1931 3907.0461 1483.7968 3887.0737 1497.563 3898.6288 1687.5456 3958.6262 1690.4291 3969.2439 1692.0175 3998.436 1702.5234 4028.9083 1691.6345 4029.7037 1691.865 4030.7424 1682.5984 4030.8472 1677.27 4031.0718 1676.6908 4031.0712 1675.7638 4031.4162 1667.1913 4032.3294 1665.5711 4031.0583 1667.3091 4030.5988 1658.8519 4031.9735 1657.5778 4031.972 1649.9301 4034.3861 1647.035 4033.8057 1639.2725 4035.4119 1638.3462 4035.0646 1630.9304 4037.2481 1628.9601 4038.2841 1620.7337 4040.2357 1609.9598 4041.4919 1609.7282 4041.4916 1610.1933 4039.9921 Z" fill="none" stroke="#E71E24" opacity="0.6" stroke-width="1" class="west_brighton"/>
<path d="M 1508.0215 4046.3233 1496.071 3974.7717 1542.8887 3955.4505 1631.3698 3960.6372 1649.3519 4033.5777 1591.3633 4092.5853 1508.0215 4046.3233 Z" fill="none" stroke="#E71E24" opacity="0.6" stroke-width="1" class="west_brighton"/>
<path d="M 1607.8722 3854.4706 1800.6181 3815.0035 1823.6658 3928.5441 1713.3458 3983.807 1607.8722 3854.4706 Z" fill="none" stroke="#E71E24" opacity="0.6" stroke-width="1" class="west_brighton"/>
<path d="M 1579.6661 4183.0407 1460.2554 4077.6437 1513.1035 4057.407 1721.6505 4015.1992 1790.1828 4052.1949 1680.7583 4120.3861 1579.6661 4183.0407 Z" fill="none" stroke="#E71E24" opacity="0.6" stroke-width="1" class="west_brighton"/>
<path d="M 1211.9988 4019.1146 1221.2923 4002.515 1256.5316 3985.0345 1782.7541 4066.9566 1663.0439 4211.7614 1485.046 4247.5441 1403.4696 4256.6629 1317.2785 4251.9185 1204.2414 4227.7338 1211.9988 4019.1146 Z" fill="none" stroke="#E71E24" opacity="0.6" stroke-width="1" class="west_brighton"/>
<path d="M 1380.5367 4093.6848 1379.9627 4011.0682 1385.1568 3944.1576 1568.5154 3840.1169 1589.8793 3981.8156 1648.0247 3980.5015 1657.4601 4033.5873 1380.5367 4093.6848 Z" fill="none" stroke="#E71E24" opacity="0.6" stroke-width="1" class="west_brighton"/>
<path d="M 1514.9495 4062.948 1481.8073 3902.2993 1749.6466 3831.5616 1747.5851 4025.381 1514.9495 4062.948 Z" fill="none" stroke="#E71E24" opacity="0.6" stroke-width="1" class="west_brighton"/>
<path d="M 1669.8771 3913.6112 1679.8231 4127.7702 1538.9352 4146.0612 1496.5275 3979.8489 1493.8657 3892.1633 1646.8122 3830.5226 1669.8771 3913.6112 Z" fill="none" stroke="#E71E24" opacity="0.6" stroke-width="1" class="west_brighton"/>
<path d="M 1464.8863 4079.4963 1752.2005 4042.0011 1779.0811 4034.645 1729.0544 4023.5148 1691.052 4032.703 1649.3465 4038.193 1605.7895 4041.8329 1554.8082 4053.769 1483.4401 4064.752 1805.9445 4043.9033 1794.8066 4061.4305 1770.6802 4092.7909 1746.5491 4126.9213 1721.513 4139.8182 1713.1548 4155.5029 1686.2449 4185.0148 1667.6866 4204.381 1648.2083 4217.2835 1608.3808 4196.0013 1575.9741 4171.0345 1556.5306 4156.2388 1531.5357 4134.9736 1514.8726 4121.1044 1492.6547 4103.5351 1481.5454 4095.212 1464.8863 4079.4963 Z" fill="none" stroke="#E71E24" opacity="0.6" stroke-width="1" class="west_brighton"/>
<path d="M 1364.7779 4096.8925 1366.2028 4073.3552 1374.0898 4066.4436 1393.5587 4060.472 1409.7728 4062.3415 1428.3213 4051.7525 1438.5081 4056.3822 1451.473 4062.4004 1463.08 4045.3394 1484.3943 4044.4455 1503.8528 4045.3947 1497.8178 4054.1559 1490.3783 4073.5308 1515.906 4040.3338 1542.7843 4036.2151 1567.8131 4028.8627 1597.4798 4017.3616 1622.9716 4009.5469 1653.5533 4006.8142 1657.7106 4017.4341 1660.9139 4051.5912 1659.0336 4074.6662 1660.8681 4090.8228 1668.7017 4128.2189 1670.5322 4148.0691 1632.9875 4157.2566 1608.4074 4174.3059 1598.1945 4189.0647 1601.4468 4182.1446 1586.6136 4185.819 1368.4248 4137.5162 1329.4958 4141.1506 1368.3648 4178.1362 1425.8229 4180.0657 1364.7779 4096.8925 Z" fill="none" stroke="#E71E24" opacity="0.6" stroke-width="1" class="west_brighton"/>
<path d="M 1649.5528 4228.556 1621.8303 4205.669 1604.9307 4193.6466 1579.0458 4180.5041 1563.8155 4169.5369 1543.5339 4148.8552 1532.5449 4140.2776 1496.8365 4123.5881 1455.6451 4076.6364 1478.8302 4063.5141 1512.1942 4064.0403 1500.0201 3982.6367 1496.4944 3947.7388 1606.1376 3928.3253 1613.5571 3980.4507 1646.9654 3982.991 1655.9251 4035.354 1680.0216 4032.1513 1649.5528 4228.556 Z" fill="none" stroke="#E71E24" opacity="0.6" stroke-width="1" class="west_brighton"/>
<path d="M 1460.2516 4080.413 1408.5344 3956.6517 1417.8817 3899.4415 1396.5666 3903.1026 1379.8933 3900.3096 1397.4637 3923.4088 1450.3096 3899.4872 1517.9816 3871.8913 1585.6599 3835.9855 1589.3635 3837.8359 1593.9911 3841.5331 1593.9843 3847.0704 1628.0358 4036.3215 1460.2516 4080.413 Z" fill="none" stroke="#E71E24" opacity="0.6" stroke-width="1" class="west_brighton"/>
<path d="M 1493.3332 3896.7495 1576.3988 3830.3564 1695.0926 3846.4483 1710.3783 3996.7426 1502.4837 3982.5982 1493.3332 3896.7495 Z" fill="none" stroke="#E71E24" opacity="0.6" stroke-width="1" class="west_brighton"/>
<path d="M 1486.1602 4109.0652 1473.3274 4005.6621 1465.0856 3934.5797 1484.6019 3891.2279 1604.1912 3834.1627 1600.4638 3851.6928 1625.4161 3903.4063 1651.3357 3922.819 1660.5795 3941.2891 1679.0788 3969.0002 1709.5724 4043.8006 1691.0163 4064.0875 1688.1879 4106.5475 1658.4855 4147.1319 1593.5646 4185.8277 1486.1602 4109.0652 Z" fill="none" stroke="#E71E24" opacity="0.6" stroke-width="1" class="west_brighton"/></svg>