<?xml version="1.0"?><svg xmlns="http://www.w3.org/2000/svg" version="1.2" baseProfile="tiny" width="6000" height="5918" viewBox="0 0 6000 5918" stroke-linecap="round" stroke-linejoin="round"><path d="M 4607.2312 1675.0901 4650.6454 1660.272 4696.7652 1613.2208 4768.9347 1648.9791 4847.5516 1671.828 4958.4905 1679.8637 4993.6414 1690.8308 4990.0786 1747.9303 5020.7139 1802.1895 5070.7696 1857.3244 5081.0409 1898.7433 5085.829 1965.9668 5085.8539 1976.0985 4994.394 2009.4782 4965.7424 2015.0721 4942.6003 2004.0725 4892.4716 1916.6863 4858.3095 1937.9463 4729.8566 1969.5382 4658.6515 1965.0784 4641.1076 1977.0873 4612.4441 1977.1438 4651.949 1849.9661 4590.9424 1855.6118 4579.7314 1794.8524 4564.898 1772.7795 4587.9465 1740.5052 4601.7981 1733.1116 4593.3805 1682.4833 4607.2312 1675.0901 Z" fill="none" stroke="#FBC20F" opacity="0.6" stroke-width="1" class="whitestone"/>
<path d="M 4994.3054 1971.9441 4966.794 1970.3968 4906.4509 1965.4698 4837.3181 1957.5648 4769.8054 1950.112 4713.3961 1946.0854 4639.8658 1933.8003 4654.585 1896.7002 4637.151 1847.0025 4636.581 1792.6693 4616.1072 1723.415 4620.4147 1681.0494 4624.3209 1669.7621 4637.2688 1673.4196 4672.5836 1653.092 4698.8736 1627.2576 4709.9574 1623.5519 4726.6204 1635.9473 4773.5989 1668.9958 4811.5113 1675.8202 4859.6037 1687.9151 4903.2796 1688.0473 4970.565 1704.6971 4981.4311 1706.7434 4984.9348 1722.6194 4978.2714 1738.9798 4987.1616 1785.0023 5007.9719 1789.3272 5042.4925 1824.4694 5072.1766 1865.6096 5081.5258 1907.9521 5085.5186 1933.7309 5058.9636 1944.8483 4994.3054 1971.9441 Z" fill="none" stroke="#FBC20F" opacity="0.6" stroke-width="1" class="whitestone"/>
<path d="M 4845.3738 1732.1457 4843.6437 1786.02 4809.4673 1798.9871 4789.0226 1749.3039 4772.7505 1704.6783 4845.3738 1732.1457 Z" fill="none" stroke="#FBC20F" opacity="0.6" stroke-width="1" class="whitestone"/>
<path d="M 4692.7062 1888.5644 4660.8499 1678.6671 4721.7263 1615.9315 4997.4129 1722.1295 5049.4278 1825.1433 4872.2319 1961.8626 4720.5799 1954.8205 4692.7062 1888.5644 Z" fill="none" stroke="#FBC20F" opacity="0.6" stroke-width="1" class="whitestone"/>
<path d="M 4647.9037 1675.9306 4716.2054 1627.9124 4967.8241 1718.5157 4991.1486 1809.6269 5005.6605 2081.3005 4744.8302 2055.1699 4623.7391 2078.4451 4527.6138 2103.5014 4641.0728 1959.5872 4647.9037 1675.9306 Z" fill="none" stroke="#FBC20F" opacity="0.6" stroke-width="1" class="whitestone"/>
<path d="M 4966.6714 2016.9122 4911.2947 1960.8535 4863.382 1932.1786 4759.8917 1962.3369 4729.6307 1972.0716 4745.6818 1800.0441 4680.904 1767.7166 4636.3468 1674.5724 4702.3203 1617.813 4983.4866 1696.3795 4979.7892 1696.3882 5094.966 1921.7343 5013.7088 1966.1414 5024.8747 1995.5892 4966.6714 2016.9122 Z" fill="none" stroke="#FBC20F" opacity="0.6" stroke-width="1" class="whitestone"/>
<path d="M 4959.7767 1835.4863 4934.8261 1840.1487 4798.9154 1835.8467 4775.4304 1660.9351 4974.243 1696.4012 4993.0258 1821.5944 4997.9336 1942.2315 4959.7767 1835.4863 Z" fill="none" stroke="#FBC20F" opacity="0.6" stroke-width="1" class="whitestone"/>
<path d="M 4635.8874 1675.9545 4705.0931 1617.8073 4981.6638 1707.4335 5000.426 1823.4188 5010.9064 1954.1743 4949.0814 2007.7419 4907.3756 1965.4677 4858.7259 1917.2223 4745.9631 1934.0441 4643.7861 1929.1874 4667.5969 1815.8602 4689.7222 1785.4255 4635.8874 1675.9545 Z" fill="none" stroke="#FBC20F" opacity="0.6" stroke-width="1" class="whitestone"/>
<path d="M 4833.3779 1952.738 4682.1901 1838.3455 4654.1566 1689.2217 4718.7465 1633.8441 4989.0009 1700.1548 4976.917 1818.1789 4833.3779 1952.738 Z" fill="none" stroke="#FBC20F" opacity="0.6" stroke-width="1" class="whitestone"/>
<path d="M 4581.9681 1799.2737 4587.1395 1765.8783 4594.5063 1751.1302 4627.7486 1732.6483 4612.8574 1681.1122 4622.0936 1677.4109 4701.4541 1612.7988 4718.1025 1618.2888 4792.1435 1664.17 4853.1896 1682.4525 4932.6828 1682.2732 4988.217 1713.4513 5012.4568 1799.9548 5021.9832 1917.815 4983.1816 1930.8013 4877.9655 1922.6429 4731.952 1971.206 4619.3368 1963.2743 4660.9497 1823.3703 4588.0965 1831.2135 4581.9681 1799.2737 Z" fill="none" stroke="#FBC20F" opacity="0.6" stroke-width="1" class="whitestone"/>
<path d="M 4528.9021 1803.2369 4565.0895 1873.1598 4618.7247 1879.5028 4643.6376 1854.5875 4664.8142 1811.2612 4638.7189 1705.4144 4561.3721 1863.0363 4382.0773 1899.2787 4342.2892 1880.0053 4349.52 1781.4536 4416.854 1695.7 4502.8138 1692.7832 4528.9021 1803.2369 Z" fill="none" stroke="#FBC20F" opacity="0.6" stroke-width="1" class="whitestone"/>
<path d="M 4637.7433 1679.634 4703.2635 1627.0184 4845.7456 1691.1685 4977.0549 1712.9692 5014.2448 1803.1258 5086.7921 1981.6227 4944.456 2006.8315 4756.0408 1999.6487 4729.3953 1969.9997 4658.6506 1964.6179 4672.1411 1777.1733 4637.7433 1679.634 Z" fill="none" stroke="#FBC20F" opacity="0.6" stroke-width="1" class="whitestone"/>
<path d="M 4710.0599 1785.3838 4723.9323 1788.1178 4762.7472 1782.5111 4854.2972 1796.1263 4941.1914 1794.0881 4967.0824 1796.7907 4964.5237 1888.8911 4941.5121 1933.1529 4945.3508 1993.9341 4886.217 2013.4119 4847.3973 2020.8673 4785.462 2029.292 4731.7903 2010.0619 4655.9976 2024.9546 4619.0087 2024.1068 4710.0599 1785.3838 Z" fill="none" stroke="#FBC20F" opacity="0.6" stroke-width="1" class="whitestone"/>
<path d="M 4588.9937 1804.0435 4588.9083 1759.8413 4610.0258 1686.1341 4625.7269 1679.6578 4655.2781 1665.7873 4686.6676 1647.3087 4710.6749 1635.2898 4727.316 1637.0968 4748.6154 1656.3881 4768.0554 1670.1586 4803.2097 1683.895 4855.9053 1687.4629 4919.6851 1687.3194 4950.2013 1692.774 4973.3575 1712.9779 4973.4372 1747.0486 4981.8455 1784.7845 4980.0788 1819.7831 4957.0182 1841.9393 4925.6824 1884.3759 4890.6163 1913.9275 4836.1113 1934.3111 4782.5029 1942.7166 4753.3724 1940.0153 4733.4907 1938.6754 4692.3398 1935.5367 4671.9524 1912.5526 4650.669 1903.3853 4656.637 1882.651 4657.0513 1858.705 4665.7683 1825.994 4655.0972 1806.2157 4645.847 1803.4715 4616.2824 1812.739 4588.9937 1804.0435 Z" fill="none" stroke="#FBC20F" opacity="0.6" stroke-width="1" class="whitestone"/>
<path d="M 4601.911 1791.1259 4575.8286 1688.0419 4730.9383 1601.1809 4947.3686 1666.9985 4992.6838 2068.4349 4635.6474 2021.3107 4601.911 1791.1259 Z" fill="none" stroke="#FBC20F" opacity="0.6" stroke-width="1" class="whitestone"/>
<path d="M 4631.3929 1673.9258 4700.9565 1625.2701 4789.3882 1665.9613 4931.7785 1684.9815 4978.5934 1711.9307 4974.9951 1754.2976 4996.2901 1803.9844 4963.076 1832.6109 4928.7346 1827.2411 4878.2253 1828.5039 4811.6955 1820.0187 4747.209 1804.4492 4681.5032 1770.5121 4631.3929 1673.9258 Z" fill="none" stroke="#FBC20F" opacity="0.6" stroke-width="1" class="whitestone"/>
<path d="M 4568.8041 1763.7844 4702.2597 1601.8442 4981.6375 1708.0376 5007.3415 2010.3687 4750.674 1998.6302 4627.5296 1967.5141 4568.8041 1763.7844 Z" fill="none" stroke="#FBC20F" opacity="0.6" stroke-width="1" class="whitestone"/>
<path d="M 4843.3397 2067.8543 4844.2482 2060.483 4825.2927 2060.9852 4808.1775 2057.3378 4754.5474 2058.8341 4782.0751 1958.8358 4710.7509 1896.3558 4588.0586 1798.5199 4707.8896 1629.3107 4915.5476 1696.9972 4926.5148 2046.0205 4843.3397 2067.8543 Z" fill="none" stroke="#FBC20F" opacity="0.6" stroke-width="1" class="whitestone"/>
<path d="M 4641.3363 1627.1436 4996.4341 1699.1114 4986.8016 1926.6002 4653.8902 1896.0109 4627.6356 1710.0404 4641.3363 1627.1436 Z" fill="none" stroke="#FBC20F" opacity="0.6" stroke-width="1" class="whitestone"/>
<path d="M 4639.7011 1850.9115 4570.6036 1855.8812 4563.5794 1808.4666 4619.5628 1717.8832 4608.6438 1688.4388 4686.8757 1636.0291 4708.5701 1623.0944 4805.275 1677.2148 4936.8025 1694.6465 4978.2034 1709.9739 4975.5247 1750.2667 4987.8647 1789.1446 5009.1319 1791.1663 5013.3141 1897.5256 5019.4673 1957.6079 5025.3327 1993.746 4880.3929 1993.3911 4759.2372 1980.7597 4660.2728 1966.687 4680.011 1897.1095 4684.5148 1838.6189 4659.799 1845.8061 4639.7011 1850.9115 Z" fill="none" stroke="#FBC20F" opacity="0.6" stroke-width="1" class="whitestone"/>
<path d="M 4581.1305 1801.296 4590.4828 1856.9942 4571.8418 1778.2915 4586.5848 1753.3998 4616.5992 1738.6078 4605.4158 1692.1283 4700.9499 1625.642 4784.6755 1661.8362 4980.274 1706.0556 5010.4966 1781.9541 5018.7755 1958.3003 4909.2196 1963.1609 4748.9643 2042.2652 4682.8679 2051.8435 4612.4152 1962.4068 4579.8554 1859.3171 4581.1305 1801.296 Z" fill="none" stroke="#FBC20F" opacity="0.6" stroke-width="1" class="whitestone"/>
<path d="M 4526.0823 1778.378 4603.7653 1793.885 4655.9986 1794.7026 4583.8959 1797.1466 4575.5466 1781.968 4610.2618 1688.6658 4706.73 1627.2414 4787.6815 1662.7505 4884.7849 1684.6361 4984.2134 1710.6504 4987.167 1787.3045 4970.6427 1836.8424 4761.9672 1960.0299 4740.1476 1806.0416 4665.7721 1827.8359 4534.5058 1833.6167 4526.0823 1778.378 Z" fill="none" stroke="#FBC20F" opacity="0.6" stroke-width="1" class="whitestone"/>
<path d="M 4653.8469 1874.3678 4663.912 1822.314 4681.3611 1765.1833 4644.2339 1689.7498 4710.69 1642.6557 4781.0215 1682.1011 4868.8574 1692.4985 4916.7141 1701.8288 4918.6742 1750.6284 4914.8409 1792.5369 4912.1299 1819.9401 4905.8863 1920.3401 4940.9081 2072.2403 4926.3614 2180.9775 4739.438 2129.7972 4576.7548 2170.658 4506.4345 2152.3653 4513.6862 2073.1283 4639.1413 1918.1444 4653.8469 1874.3678 Z" fill="none" stroke="#FBC20F" opacity="0.6" stroke-width="1" class="whitestone"/>
<path d="M 4644.1327 1674.6795 4707.8074 1623.909 4979.4196 1711.4342 5006.4363 1799.773 4995.6173 2073.9918 4524.1204 2106.1204 4644.1327 1674.6795 Z" fill="none" stroke="#FBC20F" opacity="0.6" stroke-width="1" class="whitestone"/>
<path d="M 5029.6744 1972.781 4761.2708 1958.6498 4782.8574 1676.1121 5018.3884 1796.2092 5029.6744 1972.781 Z" fill="none" stroke="#FBC20F" opacity="0.6" stroke-width="1" class="whitestone"/>
<path d="M 4734.6585 2055.1912 4516.5116 2100.7585 4595.9008 2028.7576 4683.2174 1768.863 4641.448 1683.3098 4622.905 1654.8024 4639.5865 1676.868 4697.7159 1626.109 4711.5783 1625.1598 4764.3541 1668.3248 4789.3129 1669.1924 4826.3202 1684.7656 4920.6137 1689.1589 4979.8173 1708.3587 4969.746 1749.8198 4984.6383 1793.066 5003.1601 1806.8358 4970.8297 1817.9629 4966.2654 1842.8387 4998.2496 2075.791 4734.6585 2055.1912 Z" fill="none" stroke="#FBC20F" opacity="0.6" stroke-width="1" class="whitestone"/>
<path d="M 4706.9758 1634.3766 4984.9357 1708.82 4981.3463 1754.8702 5009.2057 1808.2157 4931.703 1874.7047 4870.7005 1882.2106 4772.7114 1887.9501 4656.1786 1867.9293 4650.2745 1689.2902 4706.9758 1634.3766 Z" fill="none" stroke="#FBC20F" opacity="0.6" stroke-width="1" class="whitestone"/>
<path d="M 4647.9841 1843.1849 4588.5855 1789.4122 4588.0903 1746.0448 4614.9394 1685.0776 4662.0315 1660.4058 4711.8964 1624.7844 4778.928 1658.3422 4863.9043 1685.6717 4917.5309 1691.9965 4960.0854 1697.5282 4980.4653 1717.046 4980.9344 1745.1893 4986.5806 1787.5361 4995.7666 1807.7742 5007.8853 1850.1083 4998.9023 1887.4234 4902.8042 1911.5919 4810.9061 1908.3658 4724.1559 1895.8676 4618.486 1757.9419 4647.9841 1843.1849 Z" fill="none" stroke="#FBC20F" opacity="0.6" stroke-width="1" class="whitestone"/>
<path d="M 4711.584 1627.922 4986.2943 1711.1059 4996.6475 1789.3541 4972.7282 1839.1399 4982.9972 1881.48 4983.0925 1922.0038 4894.3062 1910.2351 4684.3816 1886.7394 4569.7526 1894.3335 4561.2564 1802.2549 4711.584 1627.922 Z" fill="none" stroke="#FBC20F" opacity="0.6" stroke-width="1" class="whitestone"/>
<path d="M 4634.963 1675.9564 4704.1783 1622.4128 4978.8799 1702.836 4982.757 1779.2571 4979.3942 1922.0125 4700.1233 1898.6802 4676.8528 1821.367 4687.8865 1791.8755 4634.963 1675.9564 Z" fill="none" stroke="#FBC20F" opacity="0.6" stroke-width="1" class="whitestone"/>
<path d="M 4706.0269 1622.409 4970.5994 1719.4301 4962.0095 2000.3431 4679.6972 1856.3569 4648.8482 1686.0574 4706.0269 1622.409 Z" fill="none" stroke="#FBC20F" opacity="0.6" stroke-width="1" class="whitestone"/>
<path d="M 4679.5235 1770.7122 4634.963 1675.9564 4706.9739 1633.4559 4970.5865 1713.9052 5026.7196 1993.7426 4628.1064 1948.5602 4679.5235 1770.7122 Z" fill="none" stroke="#FBC20F" opacity="0.6" stroke-width="1" class="whitestone"/>
<path d="M 4997.3915 2006.2473 4731.0138 1970.2266 4657.726 1964.6197 4691.7065 1851.7277 4641.9019 1679.1653 4706.0359 1626.7825 4852.9047 1689.0809 4834.476 1821.0345 4974.5395 1823.0193 4997.3915 2006.2473 Z" fill="none" stroke="#FBC20F" opacity="0.6" stroke-width="1" class="whitestone"/>
<path d="M 4746.9544 1745.7097 4902.2289 1734.3207 5010.6851 1861.1531 4702.7646 1834.2071 4746.9544 1745.7097 Z" fill="none" stroke="#FBC20F" opacity="0.6" stroke-width="1" class="whitestone"/>
<path d="M 4637.7433 1679.634 4820.7626 1679.4832 4979.597 1712.9633 4982.5297 1780.8692 4945.2687 1858.3134 4886.7086 1923.6069 4789.466 1956.0568 4681.9962 1964.1102 4637.7433 1679.634 Z" fill="none" stroke="#FBC20F" opacity="0.6" stroke-width="1" class="whitestone"/>
<path d="M 4538.7178 2107.1654 4531.3111 2102.5733 4529.8352 1807.8396 4694.0413 1637.1654 4928.0169 1692.8251 5002.7575 2026.9596 4538.7178 2107.1654 Z" fill="none" stroke="#FBC20F" opacity="0.6" stroke-width="1" class="whitestone"/>
<path d="M 4635.8892 1676.8753 4666.3625 1662.082 4683.4213 1641.7908 4699.1146 1632.0909 4728.2489 1641.2382 4752.7758 1656.8397 4777.2869 1664.6143 4793.0409 1683.4565 4809.7379 1710.5842 4816.2505 1729.9073 4819.9992 1753.3808 4820.0644 1783.3089 4820.1075 1803.1081 4816.9179 1824.2961 4816.0295 1840.8748 4810.0622 1860.2277 4807.7898 1878.1916 4801.8191 1896.1637 4782.4075 1898.0474 4762.5325 1899.4712 4738.9516 1897.2183 4705.1941 1891.7623 4683.0051 1891.8077 4652.938 1882.1979 4658.4298 1854.5579 4670.8474 1823.221 4674.4577 1779.9312 4667.9208 1747.2537 4650.2936 1715.5203 4636.3797 1691.1466 4635.8892 1676.8753 Z" fill="none" stroke="#FBC20F" opacity="0.6" stroke-width="1" class="whitestone"/>
<path d="M 4571.4254 1802.2355 4701.4319 1635.3088 4989.9636 1699.1267 5035.0525 1998.3281 4643.8448 1958.6606 4576.2068 1885.1113 4560.4073 1841.8562 4571.4254 1802.2355 Z" fill="none" stroke="#FBC20F" opacity="0.6" stroke-width="1" class="whitestone"/>
<path d="M 4847.9927 1871.6569 4958.9572 1880.6152 4929.3721 1880.6835 4868.3405 1875.2956 4847.9927 1871.6569 Z" fill="none" stroke="#FBC20F" opacity="0.6" stroke-width="1" class="whitestone"/>
<path d="M 4939.3255 1786.7271 4914.8425 1793.2276 4836.2858 1787.0689 4783.1513 1813.5481 4745.9005 1684.0171 4909.3518 1690.1477 4949.3004 1702.9049 4939.3255 1786.7271 Z" fill="none" stroke="#FBC20F" opacity="0.6" stroke-width="1" class="whitestone"/>
<path d="M 4796.7135 1671.9388 4845.7274 1682.8814 4867.0056 1691.1214 4881.7766 1682.8012 4983.5147 1708.35 4967.8951 1748.9032 4987.3922 1784.7715 5022.5672 1804.0268 5076.3685 1878.493 5092.4875 2041.4807 4995.4885 2081.3246 4873.3931 2067.7877 4721.7183 2057.9815 4574.7585 2094.2003 4561.7227 2047.2459 4613.3669 1976.221 4680.4628 1778.0773 4634.0423 1677.7997 4706.9511 1622.4071 4785.6353 1678.4081 4786.5281 1663.6737 4792.9944 1661.8183 4796.7135 1671.9388 Z" fill="none" stroke="#FBC20F" opacity="0.6" stroke-width="1" class="whitestone"/>
<path d="M 4846.6237 1901.5376 4892.0279 1913.9287 4861.2937 1933.8945 4846.1921 1941.844 4830.8791 1944.2238 4805.841 1951.4326 4785.5107 1956.2476 4728.7215 1971.8817 4684.4133 1963.9526 4658.7686 1964.7086 4639.74 1965.4721 4624.4068 1965.8482 4680.8997 1794.9803 4816.5891 1829.6661 4810.841 1844.1064 4822.4088 1849.3767 4830.5456 1865.5798 4836.8651 1848.8736 4829.3338 1839.9108 4828.9786 1835.9976 4827.7024 1833.6981 4837.7326 1839.817 4840.5233 1847.6389 4846.794 1867.8719 4841.9471 1870.9909 4813.3949 1890.6145 4786.6206 1908.1712 4791.2612 1916.4504 4833.6888 1887.4827 4854.4941 1888.8183 4830.7129 1880.8309 4854.7366 1874.3312 4861.693 1884.4465 4872.83 1906.3722 4867.1158 1878.8584 4847.1586 1845.2811 4846.6237 1901.5376 Z" fill="none" stroke="#FBC20F" opacity="0.6" stroke-width="1" class="whitestone"/>
<path d="M 4634.5123 1681.7122 4671.8853 1658.3915 4706.9658 1637.1426 4722.7075 1650.9213 4739.4067 1680.3512 4757.9518 1707.9362 4768.1687 1730.9352 4748.7701 1737.422 4719.1971 1741.1671 4704.4313 1753.1686 4677.1751 1757.2549 4670.9416 1746.8001 4665.3729 1735.8811 4661.3057 1728.3971 4643.0848 1692.9748 4634.5123 1681.7122 Z" fill="none" stroke="#FBC20F" opacity="0.6" stroke-width="1" class="whitestone"/>
<path d="M 4994.829 1802.251 4987.5787 1863.9707 4993.2628 1921.9799 5000.8448 2000.2519 4986.0807 2013.1822 4896.4195 2027.2057 4816.9092 2032.9086 4754.0229 2029.3587 4753.9201 1980.5406 4686.345 1942.9172 4637.2665 1905.254 4654.6598 1818.6489 4656.4036 1766.1545 4589.863 1775.4942 4621.2067 1731.232 4624.828 1692.5506 4651.6139 1682.3687 4685.7545 1652.8351 4705.1348 1638.0634 4708.8092 1627.007 4726.406 1644.0043 4761.1093 1663.7279 4790.258 1678.8586 4816.5956 1676.0393 4850.8163 1685.1722 4873.9455 1694.3287 4899.3651 1694.2716 4925.2523 1696.5146 4954.3854 1703.3535 4972.8888 1710.2165 4980.7859 1727.2333 4979.0193 1762.2297 4992.9606 1793.9673 4994.829 1802.251 Z" fill="none" stroke="#FBC20F" opacity="0.6" stroke-width="1" class="whitestone"/>
<path d="M 4547.2382 1722.1663 4547.2313 1718.483 4699.5116 1600.3252 4977.0463 1709.286 5004.2812 1889.7186 4584.5543 1898.9101 4547.2382 1722.1663 Z" fill="none" stroke="#FBC20F" opacity="0.6" stroke-width="1" class="whitestone"/>
<path d="M 4867.018 1696.6462 4919.0782 1826.3708 4864.4866 1805.3127 4646.3212 1809.4564 4675.5983 1658.3803 4983.519 1710.1916 5000.8666 2009.4629 4867.018 1696.6462 Z" fill="none" stroke="#FBC20F" opacity="0.6" stroke-width="1" class="whitestone"/>
<path d="M 4641.9047 1680.5465 4973.8326 1718.5017 4974.6818 1883.802 4690.719 1820.8783 4641.9047 1680.5465 Z" fill="none" stroke="#FBC20F" opacity="0.6" stroke-width="1" class="whitestone"/>
<path d="M 4640.3158 1685.6794 4633.8836 1686.3307 4750.0167 1666.6959 4851.9867 1689.425 4991.1283 1706.7777 5004.3842 1823.0659 5015.6844 1909.61 4979.6502 1919.8263 4945.3792 1913.564 4897.5669 1918.1043 4843.2798 1935.0249 4697.4765 1968.1042 4670.2021 1969.0807 4636.923 1972.8315 4636.3931 1938.7536 4647.1057 1870.9055 4658.0766 1823.232 4666.7004 1754.0778 4640.3158 1685.6794 Z" fill="none" stroke="#FBC20F" opacity="0.6" stroke-width="1" class="whitestone"/>
<path d="M 4788.6295 1781.5351 4790.4685 1776.9267 4869.789 1695.7192 4952.8505 2038.1301 4751.2043 2008.1791 4788.6295 1781.5351 Z" fill="none" stroke="#FBC20F" opacity="0.6" stroke-width="1" class="whitestone"/>
<path d="M 4599.8215 2142.976 4613.4264 2006.6167 4598.682 2032.4367 4534.9825 2087.8274 4572.076 2142.1083 4678.6737 1807.5496 4832.2233 1847.7466 5031.6481 2120.8498 5060.3025 2115.2533 4879.1394 2156.2104 4780.0831 2108.5234 4599.8215 2142.976 Z" fill="none" stroke="#FBC20F" opacity="0.6" stroke-width="1" class="whitestone"/>
<path d="M 4843.9091 1696.6974 4974.8619 1960.7068 4670.6529 1955.8437 4843.9091 1696.6974 Z" fill="none" stroke="#FBC20F" opacity="0.6" stroke-width="1" class="whitestone"/>
<path d="M 4731.4785 1971.3769 4592.6844 1800.3528 4701.4225 1630.7051 4846.7573 1730.7614 4848.8074 1821.9239 4892.4592 1911.1603 4731.4785 1971.3769 Z" fill="none" stroke="#FBC20F" opacity="0.6" stroke-width="1" class="whitestone"/>
<path d="M 4705.1064 1624.2524 4736.117 1646.7463 4744.9008 1648.109 4751.8525 1657.302 4783.7817 1676.1101 4786.9834 1660.4501 4794.8421 1661.354 4794.3967 1669.1815 4861.9187 1689.7515 4885.0201 1686.4771 4897.506 1689.6718 4906.2811 1686.8895 4922.4655 1690.5358 4934.0178 1689.5885 4978.8896 1706.9796 4982.6044 1714.3374 4972.5257 1752.5758 4986.0174 1789.8396 4970.7953 1803.2284 4976.3874 1822.5545 4971.7973 1836.3792 4980.2377 1887.4729 4968.4842 2001.2491 4765.9393 1980.0547 4730.7831 1970.4573 4687.3118 1963.6389 4658.6543 1966.46 4642.4945 1977.0845 4620.3025 1976.6679 4652.9638 1895.0917 4665.7646 1824.1522 4674.9293 1784.5347 4634.0405 1676.879 4705.1064 1624.2524 Z" fill="none" stroke="#FBC20F" opacity="0.6" stroke-width="1" class="whitestone"/>
<path d="M 4640.5218 1682.3908 4690.2953 1613.234 4810.5186 1644.2861 4978.8907 1707.44 5019.796 1804.9544 5077.3021 1882.1746 5085.8448 1972.4143 5003.6275 2003.9297 4894.6034 2041.9479 4748.4923 2037.6605 4754.833 1975.0123 4618.9219 1979.8944 4641.0014 1923.6668 4666.7411 1849.9364 4679.5235 1770.7122 4640.5218 1682.3908 Z" fill="none" stroke="#FBC20F" opacity="0.6" stroke-width="1" class="whitestone"/>
<path d="M 4703.7658 1636.8268 4954.6372 1711.2853 4790.805 2042.2592 4648.9006 1906.7983 4703.7658 1636.8268 Z" fill="none" stroke="#FBC20F" opacity="0.6" stroke-width="1" class="whitestone"/>
<path d="M 4796.7135 1671.9388 4805.9608 1673.7604 4821.6724 1672.8055 4835.5556 1681.0622 4847.574 1681.9566 4860.5209 1684.6903 4867.0036 1690.2006 4874.3984 1690.1841 4881.7828 1685.5636 4882.6968 1680.9576 4887.3185 1680.9472 4890.1019 1685.5449 4897.5029 1688.2906 4907.6561 1681.822 4919.6809 1685.4778 4924.3089 1688.2296 4940.0207 1687.2727 4950.2098 1696.4572 4957.6089 1698.2816 4974.2581 1702.8468 4985.3613 1707.4248 4985.3894 1719.3954 4979.8605 1726.775 4978.0398 1738.7502 4977.1478 1752.565 4977.1672 1760.8527 4982.7397 1771.8901 4984.6145 1782.9362 4992.9497 1789.3628 4978.178 1797.6857 4975.437 1811.5057 4974.5298 1818.8752 4967.1641 1831.7854 4951.4478 1831.8219 4935.7336 1832.7791 4923.7216 1835.5695 4901.5297 1833.7781 4871.0113 1829.242 4855.293 1828.356 4834.0238 1825.6401 4804.4365 1823.8627 4782.2352 1817.4639 4760.0362 1811.9856 4738.7503 1800.9795 4725.7831 1789.0349 4695.2594 1780.8098 4685.9944 1770.6991 4672.1057 1759.6768 4655.3814 1717.3517 4638.6604 1675.949 4661.7354 1659.329 4682.0461 1647.3181 4692.1852 1633.4862 4707.8773 1623.326 4730.0946 1639.8532 4749.5359 1654.5446 4764.3444 1663.721 4787.4722 1672.8795 4790.2195 1660.9035 4797.618 1662.7292 4796.7135 1671.9388 Z" fill="none" stroke="#FBC20F" opacity="0.6" stroke-width="1" class="whitestone"/>
<path d="M 4990.6954 2009.4869 5105.4287 2039.6064 5091.4017 1976.0849 4999.1808 2078.5523 4990.6954 2009.4869 Z" fill="none" stroke="#FBC20F" opacity="0.6" stroke-width="1" class="whitestone"/>
<path d="M 4490.7686 1677.1519 4987.9391 1624.5492 5038.6047 1937.5292 4543.0414 1947.8033 4490.7686 1677.1519 Z" fill="none" stroke="#FBC20F" opacity="0.6" stroke-width="1" class="whitestone"/>
<path d="M 4645.1344 1677.7777 4679.2984 1659.7539 4705.1225 1632.0786 4781.0019 1672.8933 4821.2253 1679.7124 4863.7725 1692.0494 4914.138 1686.8717 4977.9685 1708.363 4981.7049 1724.929 4972.0581 1750.2748 4986.9419 1789.8374 4999.4273 1792.1102 5002.6989 1807.2973 4975.0093 1826.2414 4935.2703 1832.3197 4887.653 1829.6652 4852.9757 1825.5984 4818.7629 1822.4502 4773.4419 1812.4177 4740.5983 1800.5152 4723.9351 1789.4992 4691.0929 1777.5952 4657.8271 1784.5692 4615.3146 1790.6393 4584.359 1797.6062 4575.5555 1786.5724 4577.8277 1766.3087 4589.8282 1757.5373 4599.5328 1756.5977 4620.2913 1735.838 4607.2564 1687.9811 4623.4215 1682.4247 4645.1344 1677.7777 Z" fill="none" stroke="#FBC20F" opacity="0.6" stroke-width="1" class="whitestone"/>
<path d="M 4978.9594 1711.5099 4967.2072 2017.6006 4559.0906 2047.0141 4584.8319 1822.0159 4713.2025 1639.1499 4978.9594 1711.5099 Z" fill="none" stroke="#FBC20F" opacity="0.6" stroke-width="1" class="whitestone"/>
<path d="M 4974.2581 1702.8468 5010.8429 1927.4643 4656.7266 1927.3195 4642.8579 1927.3472 4630.3523 1681.4902 4974.2581 1702.8468 Z" fill="none" stroke="#FBC20F" opacity="0.6" stroke-width="1" class="whitestone"/>
<path d="M 4647.0014 1686.9819 4685.762 1656.5181 4718.0654 1633.433 4747.6989 1660.0731 4798.5761 1678.3803 4849.4674 1702.2099 4972.4288 1711.1384 5003.1011 1781.9717 5010.5459 1802.6742 5017.3732 1951.8563 5018.7964 1967.0503 5023.949 1995.1309 5038.9031 2061.4159 5041.7728 2101.0196 5036.3207 2141.1055 4968.1917 2074.0193 4950.0199 2013.727 4880.7144 2033.6889 4820.1325 2026.9143 4757.7246 2030.7326 4767.7641 1968.5374 4753.3995 1952.9098 4721.4901 1947.9108 4675.2825 1959.058 4658.621 1949.8811 4654.8977 1937.4545 4663.1931 1924.5434 4671.3841 1860.0576 4678.7232 1831.9539 4691.5325 1766.5438 4647.0014 1686.9819 Z" fill="none" stroke="#FBC20F" opacity="0.6" stroke-width="1" class="whitestone"/>
<path d="M 4977.9761 1711.5858 5021.6405 1803.1081 4968.0907 1832.7041 4866.4217 1843.9873 4753.5669 1812.9202 4694.3218 1774.3656 4637.747 1681.4755 4703.2729 1631.622 4977.9761 1711.5858 Z" fill="none" stroke="#FBC20F" opacity="0.6" stroke-width="1" class="whitestone"/>
<path d="M 4890.1019 1685.5449 4898.4314 1690.1301 4915.0655 1688.2507 4978.8907 1707.44 4985.3873 1718.4746 4974.3789 1754.4132 4989.2562 1791.2133 4981.8931 1805.0442 4977.4694 1889.7818 5001.8022 2014.0662 5004.7379 2082.2239 4991.7895 2081.3333 4750.3843 2057.9217 4752.1677 2026.5993 4760.3321 1951.9742 4771.1455 1819.3294 4678.627 1784.5272 4657.4499 1826.9316 4593.6642 1828.8993 4554.8481 1835.4202 4551.0821 1799.5115 4583.4239 1792.0826 4572.2988 1775.528 4587.0523 1756.1614 4602.762 1753.3684 4621.1976 1726.6279 4606.3392 1691.6661 4622.0332 1681.5066 4686.6582 1642.705 4707.883 1626.0881 4747.6737 1648.1032 4787.4761 1674.721 4791.1418 1659.9808 4799.4766 1667.329 4802.2654 1674.6892 4876.245 1689.2592 4890.1019 1685.5449 Z" fill="none" stroke="#FBC20F" opacity="0.6" stroke-width="1" class="whitestone"/>
<path d="M 4700.4925 1627.9448 4719.9273 1639.8744 4904.8998 1689.1946 4968.7378 1713.9095 5171.0999 1683.9494 5189.9227 1814.6626 5072.6253 1860.0827 5083.2678 2052.5571 4638.4306 2025.9107 4604.1852 2009.3981 4662.0686 1825.0805 4623.8964 1688.8693 4700.4925 1627.9448 Z" fill="none" stroke="#FBC20F" opacity="0.6" stroke-width="1" class="whitestone"/>
<path d="M 4682.7865 1898.0248 4660.3606 1895.3071 4639.096 1895.3496 4599.3408 1895.6579 4558.201 1897.1185 4503.4184 1895.6092 4503.3977 1884.3272 4505.873 1847.9445 4506.9968 1830.6748 4508.8011 1806.4974 4511.3165 1791.9885 4521.4696 1783.4515 4535.5699 1784.8065 4544.8277 1791.9259 4556.4017 1801.5735 4582.0363 1791.6248 4574.1564 1780.1289 4583.3609 1759.3916 4595.6063 1757.7564 4607.3804 1751.5177 4618.8993 1733.0782 4608.6429 1687.9784 4643.9698 1673.1761 4664.7403 1659.7833 4704.6485 1626.325 4744.2056 1647.1898 4765.5052 1666.2507 4788.832 1660.4461 4797.6299 1668.2538 4835.7836 1679.6805 4862.8415 1689.0589 4892.8801 1687.8406 4936.0997 1690.5046 4955.2997 1698.9776 4979.1164 1705.1375 4981.0219 1729.3046 4976.4367 1744.9696 4975.0894 1761.7785 4982.5302 1781.0994 4980.4767 1792.3851 4974.2599 1802.2994 4977.9982 1819.5577 4973.4071 1832.9219 4966.4874 1838.9242 4949.4194 1854.1595 4933.9656 1868.0096 4919.6729 1884.3896 4911.6119 1897.0716 4895.704 1915.0673 4881.5997 1913.0267 4851.312 1909.4101 4818.9468 1906.9483 4792.5914 1904.4726 4754.9098 1901.7898 4713.5231 1895.6594 4682.7865 1898.0248 Z" fill="none" stroke="#FBC20F" opacity="0.6" stroke-width="1" class="whitestone"/>
<path d="M 5098.3774 1805.6843 5088.6717 1806.1687 4783.6347 1823.4469 4746.7581 1652.2486 5098.1952 1732.0148 5098.3774 1805.6843 Z" fill="none" stroke="#FBC20F" opacity="0.6" stroke-width="1" class="whitestone"/>
<path d="M 4635.8983 1681.4792 4707.8792 1624.2467 4915.076 1692.8547 4911.5713 1777.5799 4966.1666 1800.4765 4997.6765 1833.5555 5011.7148 1905.3579 4997.0765 1970.7862 4995.3165 2008.5549 4632.775 1971.5774 4635.8983 1681.4792 Z" fill="none" stroke="#FBC20F" opacity="0.6" stroke-width="1" class="whitestone"/>
<path d="M 5045.5619 2138.3195 4992.9056 2162.3976 4861.5722 2158.0921 4863.2375 2075.1796 5001.979 2088.6787 5007.5275 2088.6655 4753.172 2064.3639 4774.8414 1818.4006 4839.5707 1825.628 4846.034 1821.93 5002.895 2084.9918 5045.5619 2138.3195 Z" fill="none" stroke="#FBC20F" opacity="0.6" stroke-width="1" class="whitestone"/>
<path d="M 4885.0834 1920.387 4860.0688 1897.4177 4841.4379 1833.9122 4797.8243 1758.4935 4779.1689 1680.2635 4990.0917 1753.4554 4981.6768 1712.9584 4930.8111 1702.0267 4946.6061 1736.9817 5036.4762 1821.4909 5078.2785 1903.3551 5063.6583 1974.3107 4969.4239 2007.6947 4955.492 1981.0155 4885.0834 1920.387 Z" fill="none" stroke="#FBC20F" opacity="0.6" stroke-width="1" class="whitestone"/>
<path d="M 5071.0013 1952.1873 4764.0871 1978.677 4771.0789 1788.0188 4992.9519 1790.2837 5071.0013 1952.1873 Z" fill="none" stroke="#FBC20F" opacity="0.6" stroke-width="1" class="whitestone"/>
<path d="M 4635.8874 1675.9545 4699.572 1629.7882 4842.9584 1684.7291 4834.9362 1820.1126 4849.7502 1830.2102 4891.5367 1912.0834 4862.9202 1932.4099 4758.4985 1959.3465 4734.4836 1971.3707 4712.2869 1968.6535 4691.0131 1965.0129 4660.4989 1964.1536 4625.3671 1966.0657 4654.8184 1897.851 4663.0116 1834.2879 4679.5347 1776.2374 4635.8874 1675.9545 Z" fill="none" stroke="#FBC20F" opacity="0.6" stroke-width="1" class="whitestone"/>
<path d="M 4655.3076 1680.5197 4695.8466 1615.9848 4732.8598 1636.1645 4775.4402 1665.539 4806.8831 1672.8377 4867.9382 1694.8025 4919.6977 1692.8441 4988.104 1694.5271 4999.2791 1729.4917 5004.9259 1771.8377 5006.8754 1814.1943 4979.2018 1840.0456 4942.2773 1864.0763 4918.3323 1904.6546 4881.4036 1928.6845 4838.8931 1937.9892 4800.1159 1963.8629 4746.5153 1976.8719 4698.4346 1976.9716 4648.4972 1973.3883 4617.06 1973.4505 4644.7107 1929.1856 4650.1294 1864.7051 4662.9986 1827.8414 4675.822 1768.878 4664.6548 1732.0664 4655.3076 1680.5197 Z" fill="none" stroke="#FBC20F" opacity="0.6" stroke-width="1" class="whitestone"/>
<path d="M 4706.4881 1621.9477 4848.5055 1685.1773 4833.5515 1821.0365 4851.5885 1825.3712 4891.3175 1917.3797 4866.1563 1932.4027 4733.5565 1970.2213 4626.2935 1966.9849 4681.4724 1819.9762 4634.499 1675.0365 4706.4881 1621.9477 Z" fill="none" stroke="#FBC20F" opacity="0.6" stroke-width="1" class="whitestone"/>
<path d="M 4831.2544 1827.4881 4783.2129 1842.327 4694.0244 1628.8788 4766.1149 1626.8872 4843.8604 1674.5985 4993.6719 1703.722 5165.5749 1692.2506 5182.4538 1786.1337 5180.9538 1922.4391 5057.1904 1976.1686 4844.6436 2030.0846 4804.4325 1822.0208 4831.2544 1827.4881 Z" fill="none" stroke="#FBC20F" opacity="0.6" stroke-width="1" class="whitestone"/>
<path d="M 5003.757 2069.8521 4986.0171 1714.6848 4957.7167 1716.0042 4611.6273 1854.1468 4616.9252 1691.8147 4951.2692 1714.4455 5003.757 2069.8521 Z" fill="none" stroke="#FBC20F" opacity="0.6" stroke-width="1" class="whitestone"/>
<path d="M 4706.0269 1622.409 4980.7438 1709.2773 4996.239 2007.6316 4569.1643 2070.2605 4525.376 1895.3383 4633.118 1677.8016 4706.0269 1622.409 Z" fill="none" stroke="#FBC20F" opacity="0.6" stroke-width="1" class="whitestone"/>
<path d="M 4625.3689 1966.9867 4653.66 1896.4718 4666.2283 1824.8419 4665.463 1789.1583 4708.9006 1783.5445 4745.2235 1801.8868 4838.9982 1775.44 4832.1658 1821.5 4849.2762 1824.9159 4893.6248 1915.5325 4864.3076 1932.637 4732.171 1970.915 4686.8509 1964.3306 4659.1166 1966.4591 4625.3689 1966.9867 Z" fill="none" stroke="#FBC20F" opacity="0.6" stroke-width="1" class="whitestone"/>
<path d="M 4627.6759 1964.6795 4697.7178 1627.0298 5027.1564 1790.2023 4912.4442 1958.0877 4627.6759 1964.6795 Z" fill="none" stroke="#FBC20F" opacity="0.6" stroke-width="1" class="whitestone"/>
<path d="M 4626.2944 1967.4454 4605.8734 1689.8254 4701.8714 1624.259 4983.0482 1706.5094 5057.7917 1843.0813 5083.0042 1945.2501 5019.0033 1956.9182 5012.766 1958.5449 5021.617 1986.6164 4996.4364 1993.3542 4997.1549 2003.9451 4968.2514 2000.5589 4848.0202 1988.8577 4734.9478 1972.2908 4686.39 1965.0223 4626.2944 1967.4454 Z" fill="none" stroke="#FBC20F" opacity="0.6" stroke-width="1" class="whitestone"/>
<path d="M 4585.6379 1821.6466 4621.0525 1763.8811 4639.3739 1699.1707 4723.5165 1641.6852 4776.5319 1722.4001 4764.4011 1665.1704 4985.177 1725.9358 4995.7303 1791.062 4969.045 1829.2523 4919.3211 2043.7212 4871.6829 2030.8603 4626.5553 1967.6572 4672.9032 1825.8422 4585.6379 1821.6466 Z" fill="none" stroke="#FBC20F" opacity="0.6" stroke-width="1" class="whitestone"/>
<path d="M 4648.8446 1684.2158 4709.7373 1628.8465 4744.8989 1647.1883 4807.8075 1672.8357 4811.5627 1699.5305 4811.6246 1728.0757 4829.1879 1728.0375 4847.6736 1727.076 4852.2874 1723.3825 4846.7756 1739.0489 4843.1368 1765.7617 4833.9754 1803.5382 4848.8155 1825.6076 4872.9117 1852.2613 4897.0778 1909.3078 4873.0762 1925.9401 4856.4461 1931.5032 4815.7884 1942.6448 4769.5919 1958.4019 4728.0054 1968.621 4690.0753 1958.5674 4649.4292 1977.0707 4629.0801 1973.4269 4634.5932 1955.9158 4630.8766 1946.7127 4638.224 1921.8303 4645.5692 1896.0275 4656.6158 1872.0598 4662.0797 1830.6061 4677.7138 1790.0544 4685.0213 1746.7586 4648.8446 1684.2158 Z" fill="none" stroke="#FBC20F" opacity="0.6" stroke-width="1" class="whitestone"/>
<path d="M 4597.8306 1832.1144 4592.3248 1813.63 4590.7833 1813.2108 4581.5976 1803.8276 4580.6284 1780.5769 4612.0257 1684.749 4709.3427 1624.3203 4970.5779 1710.2219 4996.8885 1858.7299 4998.3173 2006.7056 4620.768 1978.2793 4597.8306 1832.1144 Z" fill="none" stroke="#FBC20F" opacity="0.6" stroke-width="1" class="whitestone"/>
<path d="M 4657.4314 1817.7225 4817.4032 1834.8857 4906.7732 1903.7599 4977.787 1828.0768 4811.387 1831.6755 4862.9182 1931.4888 4769.5958 1960.244 4712.3002 1975.101 4647.2765 2056.7512 4604.7328 2053.1504 4613.4039 1995.1031 4632.2635 1946.7099 4655.7033 1878.048 4658.3799 1829.6926 4657.4314 1817.7225 Z" fill="none" stroke="#FBC20F" opacity="0.6" stroke-width="1" class="whitestone"/>
<path d="M 4680.7058 1897.7988 4679.6281 1822.2823 4975.4952 1836.3706 5007.5121 2082.2173 4654.2441 2072.8575 4680.7058 1897.7988 Z" fill="none" stroke="#FBC20F" opacity="0.6" stroke-width="1" class="whitestone"/>
<path d="M 4945.3806 2006.8294 4767.0028 1936.5326 4773.7387 1843.2681 4913.0711 1827.3054 4945.3806 2006.8294 Z" fill="none" stroke="#FBC20F" opacity="0.6" stroke-width="1" class="whitestone"/>
<path d="M 4641.3625 1678.4196 4711.1448 1634.5835 4812.9589 1699.7429 4811.3858 1826.8259 4685.9649 1793.4348 4641.3625 1678.4196 Z" fill="none" stroke="#FBC20F" opacity="0.6" stroke-width="1" class="whitestone"/>
<path d="M 4993.9329 1814.2249 4980.3564 1908.9171 4886.1794 1966.2377 4798.4668 1961.5251 4663.451 1950.7537 4615.3283 1928.7444 4664.8253 1816.7867 4627.2292 1683.9751 4730.6787 1646.9345 4867.5334 1672.4209 4948.9767 1716.4343 4993.9329 1814.2249 Z" fill="none" stroke="#FBC20F" opacity="0.6" stroke-width="1" class="whitestone"/>
<path d="M 4663.1181 1954.3778 4697.9627 1812.4758 4758.6429 1653.9656 4975.3245 1821.0762 5007.2817 2042.0481 4663.1181 1954.3778 Z" fill="none" stroke="#FBC20F" opacity="0.6" stroke-width="1" class="whitestone"/>
<path d="M 4633.9676 1640.0485 4815.6893 1684.3284 4825.6311 1792.5057 4709.2218 1827.2869 4700.9128 1832.8295 4672.9221 1706.2666 4644.1257 1635.4246 4633.9676 1640.0485 Z" fill="none" stroke="#FBC20F" opacity="0.6" stroke-width="1" class="whitestone"/>
<path d="M 4643.293 1681.4645 4646.9665 1669.4871 4715.2887 1631.5973 4862.4023 1699.4189 4989.0739 1713.8618 5007.324 2002.9999 4991.7808 2077.6487 4747.6063 2056.0852 4528.5317 2099.8149 4679.7757 1895.0377 4643.293 1681.4645 Z" fill="none" stroke="#FBC20F" opacity="0.6" stroke-width="1" class="whitestone"/>
<path d="M 4695.9125 1648.2106 4997.3127 1679.7726 4990.0048 1716.6221 4990.1525 1779.2397 4982.7483 1775.5736 4982.9042 1841.8788 4934.8642 1856.7257 4913.6267 1868.2863 4910.8698 1875.6604 4908.1161 1884.4159 4908.1078 1880.732 4909.0239 1877.046 4899.8328 1901.0126 4888.7879 1923.1418 4874.0235 1936.0693 4864.8022 1947.1423 4848.2041 1967.4423 4818.6123 1965.665 4761.3405 1991.578 4687.4028 2008.3112 4691.0338 1975.1446 4663.4172 2035.9932 4679.9607 1986.2201 4663.1912 1923.6224 4624.1957 1840.8118 4612.9864 1781.8954 4609.1626 1717.4432 4695.9125 1648.2106 Z" fill="none" stroke="#FBC20F" opacity="0.6" stroke-width="1" class="whitestone"/></svg>