<?xml version="1.0"?><svg xmlns="http://www.w3.org/2000/svg" version="1.2" baseProfile="tiny" width="6000" height="5918" viewBox="0 0 6000 5918" stroke-linecap="round" stroke-linejoin="round"><path d="M 347.6871 5332.4005 348.7431 5327.666 349.2286 5319.2329 349.4658 5317.1538 356.1855 5320.1749 364.3029 5320.8888 347.5298 5348.5759 347.273 5358.2809 357.0199 5356.9192 366.3017 5356.0184 372.6836 5355.1102 382.4299 5353.9793 396.2356 5352.9741 404.9387 5351.4938 412.7099 5351.6287 414.6168 5331.067 413.9567 5316.6229 413.2884 5305.5296 411.3301 5300.0945 407.6404 5291.3046 405.6986 5279.2841 400.739 5268.1805 397.7521 5256.7354 394.6435 5247.6006 407.7575 5244.283 419.8244 5242.2334 424.9301 5241.2063 436.419 5238.3464 447.3232 5237.4489 462.8727 5234.021 473.8936 5232.7769 479.6964 5231.1736 496.6305 5230.6366 501.4703 5243.703 505.1507 5256.6512 509.7602 5269.1397 515.9865 5284.636 518.3985 5294.5778 507.0273 5296.5148 493.9146 5299.1408 483.5916 5299.2315 468.6261 5300.5818 451.5765 5300.4247 437.8902 5300.3912 423.6208 5301.6269 415.2644 5303.8014 347.6871 5332.4005 Z" fill="none" stroke="#FBC20F" opacity="0.6" stroke-width="1" class="woodrow"/>
<path d="M 516.3072 5296.0748 629.1188 5263.5243 678.494 5383.7954 564.2584 5424.6723 517.2274 5299.312 516.3072 5296.0748 Z" fill="none" stroke="#FBC20F" opacity="0.6" stroke-width="1" class="woodrow"/>
<path d="M 342.0363 5410.2636 336.6201 5351.0899 349.8469 5258.6939 403.9178 5156.2437 472.7118 5098.1929 536.7701 5078.0159 593.4257 5048.5776 622.2745 5007.986 682.7636 4919.4203 712.5883 4852.9653 712.7405 4782.7549 701.7168 4734.695 675.931 4653.3524 1502.887 4769.3583 1450.8879 4817.325 339.8394 5543.3809 342.0363 5410.2636 Z" fill="none" stroke="#FBC20F" opacity="0.6" stroke-width="1" class="woodrow"/>
<path d="M 412.8187 5307.8392 630.9631 5268.6119 667.8193 5385.1584 529.4276 5437.5325 349.4201 5425.9974 346.0033 5310.4437 412.8187 5307.8392 Z" fill="none" stroke="#FBC20F" opacity="0.6" stroke-width="1" class="woodrow"/>
<path d="M 545.529 5298.9166 540.4235 5299.8289 626.7752 5274.148 673.8572 5382.3986 568.4291 5426.993 529.7473 5302.1145 544.1491 5293.8298 552.4989 5294.3115 536.3209 5268.856 600.9462 5208.0065 630.0071 5281.0874 545.529 5298.9166 Z" fill="none" stroke="#FBC20F" opacity="0.6" stroke-width="1" class="woodrow"/>
<path d="M 525.1243 5295.1714 740.6238 5187.5212 808.2845 5220.0104 572.1658 5416.3709 525.1243 5295.1714 Z" fill="none" stroke="#FBC20F" opacity="0.6" stroke-width="1" class="woodrow"/>
<path d="M 294.8362 5717.0919 238.9512 5787.2242 276.5716 5602.3885 280.4492 5539.5288 492.0783 5532.6642 562.4343 5610.4932 313.4308 5706.0439 294.8362 5717.0919 Z" fill="none" stroke="#FBC20F" opacity="0.6" stroke-width="1" class="woodrow"/>
<path d="M 630.031 5270.4583 670.6277 5374.0721 421.679 5477.0232 403.2147 5438.1506 349.4178 5426.9218 349.7008 5315.999 630.031 5270.4583 Z" fill="none" stroke="#FBC20F" opacity="0.6" stroke-width="1" class="woodrow"/>
<path d="M 660.3873 5388.8394 618.5741 5412.7796 564.7096 5430.2198 531.2684 5444.0079 474.6163 5461.4369 422.6002 5479.7988 401.6863 5306.8871 466.6409 5306.1228 515.8411 5296.998 636.499 5282.4884 660.3873 5388.8394 Z" fill="none" stroke="#FBC20F" opacity="0.6" stroke-width="1" class="woodrow"/>
<path d="M 411.8296 5162.9682 640.572 5075.1266 419.9191 5467.3776 411.8296 5162.9682 Z" fill="none" stroke="#FBC20F" opacity="0.6" stroke-width="1" class="woodrow"/>
<path d="M 619.7702 5396.8366 423.9923 5479.8023 385.463 5208.6447 489.1544 5108.1667 619.7702 5396.8366 Z" fill="none" stroke="#FBC20F" opacity="0.6" stroke-width="1" class="woodrow"/>
<path d="M 400.8415 5273.6108 400.8322 5277.3079 539.1837 5235.1277 603.7114 5419.2167 379.8814 5490.7859 347.5547 5429.6903 334.8828 5304.8694 400.8415 5273.6108 Z" fill="none" stroke="#FBC20F" opacity="0.6" stroke-width="1" class="woodrow"/>
<path d="M 695.8644 5290.9385 709.8046 5280.8018 763.2711 5446.3756 494.2205 5413.414 695.8644 5290.9385 Z" fill="none" stroke="#FBC20F" opacity="0.6" stroke-width="1" class="woodrow"/></svg>