<?xml version="1.0"?><svg xmlns="http://www.w3.org/2000/svg" version="1.2" baseProfile="tiny" width="6000" height="5918" viewBox="0 0 6000 5918" stroke-linecap="round" stroke-linejoin="round"><path d="M 4395.1971 3073.33 4444.9548 3204.0796 4209.4648 3292.2028 4169.8768 3133.1712 4178.3208 3130.7379 4256.7436 3108.2546 4353.3323 3087.2334 4350.9993 3076.0563 4344.9627 3064.4245 4335.2169 3048.7648 4334.8655 3046.2296 4341.4556 3042.9912 4346.784 3046.4402 4358.3585 3048.4955 4369.8145 3048.9372 4395.1971 3073.33 Z" fill="none" stroke="#E71E24" opacity="0.6" stroke-width="1" class="woodhaven"/>
<path d="M 4193.7323 3167.757 4199.8997 3136.4359 4211.9177 3125.3513 4240.828 3118.7637 4276.9115 3105.7963 4303.7503 3101.1422 4326.8921 3100.182 4341.693 3093.7024 4347.2782 3112.1363 4351.9487 3137.0274 4350.1265 3154.5523 4193.7323 3167.757 Z" fill="none" stroke="#E71E24" opacity="0.6" stroke-width="1" class="woodhaven"/>
<path d="M 4449.0199 3203.418 4209.2979 3291.5345 4190.422 3180.4323 4167.4669 3149.7541 4402.0289 3075.7673 4449.0199 3203.418 Z" fill="none" stroke="#E71E24" opacity="0.6" stroke-width="1" class="woodhaven"/>
<path d="M 4433.4597 3117.0656 4456.9694 3192.1841 4391.285 3220.659 4377.0624 3227.9463 4232.5869 3275.5651 4205.9646 3273.8767 4206.061 3261.1947 4218.6624 3252.1828 4201.3976 3238.8359 4190.4297 3179.8275 4196.4425 3176.5906 4181.9108 3132.5769 4415.7914 3071.7958 4455.6914 3189.4196 4433.4597 3117.0656 Z" fill="none" stroke="#E71E24" opacity="0.6" stroke-width="1" class="woodhaven"/>
<path d="M 4219.647 3290.3425 4209.462 3290.3581 4190.7795 3181.5562 4187.8993 3113.3174 4197.9664 3036.765 4315.511 3027.3585 4410.01 3074.2264 4453.7455 3201.4124 4399.1519 3219.0314 4219.647 3290.3425 Z" fill="none" stroke="#E71E24" opacity="0.6" stroke-width="1" class="woodhaven"/>
<path d="M 4190.7071 3133.6011 4334.933 3017.1835 4472.9162 3051.0618 4518.5175 3181.9272 4228.9119 3294.0176 4190.7071 3133.6011 Z" fill="none" stroke="#E71E24" opacity="0.6" stroke-width="1" class="woodhaven"/>
<path d="M 4227.4858 3120.4038 4327.5309 3019.0399 4588.637 3056.3782 4619.3403 3135.6239 4506.9407 3179.643 4232.5991 3283.4049 4215.7661 3174.832 4238.4407 3169.9552 4227.4858 3120.4038 Z" fill="none" stroke="#E71E24" opacity="0.6" stroke-width="1" class="woodhaven"/>
<path d="M 4166.2917 3056.6378 4386.5687 3035.077 4444.7219 3203.273 4207.8486 3294.9723 4166.2917 3056.6378 Z" fill="none" stroke="#E71E24" opacity="0.6" stroke-width="1" class="woodhaven"/>
<path d="M 4326.1025 3095.7542 4389.8757 3079.5341 4396.4353 3125.6309 4344.6192 3141.3962 4326.1025 3095.7542 Z" fill="none" stroke="#E71E24" opacity="0.6" stroke-width="1" class="woodhaven"/>
<path d="M 4237.9124 3127.9956 4385.9591 3084.4115 4423.1138 3156.2771 4261.1877 3210.9594 4246.315 3173.1707 4237.9124 3127.9956 Z" fill="none" stroke="#E71E24" opacity="0.6" stroke-width="1" class="woodhaven"/>
<path d="M 4324.7585 3021.8108 4333.0909 3022.7191 4365.534 3049.4055 4434.1825 3133.2025 4480.7502 3287.1376 4413.1907 3305.7048 4329.7608 3247.7398 4324.7585 3021.8108 Z" fill="none" stroke="#E71E24" opacity="0.6" stroke-width="1" class="woodhaven"/>
<path d="M 4352.6001 3061.9211 4551.2815 3220.372 4282.2245 3248.3882 4352.6001 3061.9211 Z" fill="none" stroke="#E71E24" opacity="0.6" stroke-width="1" class="woodhaven"/>
<path d="M 4192.5545 3130.8318 4350.7897 3089.0819 4381.5655 3221.8285 4223.318 3269.1232 4200.0936 3218.4323 4192.5545 3130.8318 Z" fill="none" stroke="#E71E24" opacity="0.6" stroke-width="1" class="woodhaven"/>
<path d="M 4339.1399 3042.073 4369.2289 3044.7887 4388.2647 3079.3358 4413.7016 3067.7651 4461.1397 3194.4822 4207.608 3288.9774 4186.6092 3178.7958 4197.7119 3174.1678 4180.9928 3137.7656 4182.8326 3129.9242 4340.1439 3089.0997 4339.1399 3042.073 Z" fill="none" stroke="#E71E24" opacity="0.6" stroke-width="1" class="woodhaven"/>
<path d="M 4208.0727 3290.1297 4188.924 3179.0228 4190.0809 3178.7905 4199.7995 3177.1619 4178.8995 3130.8523 4352.1744 3086.7742 4402.2588 3075.162 4445.7643 3203.7323 4208.0727 3290.1297 Z" fill="none" stroke="#E71E24" opacity="0.6" stroke-width="1" class="woodhaven"/>
<path d="M 4269.9839 3211.4066 4355.4183 3089.0742 4360.0484 3089.9885 4394.5274 3221.8062 4394.5354 3226.4176 4270.9971 3266.2815 4208.4614 3241.4767 4210.3117 3240.5516 4197.2587 3180.6242 4188.8528 3131.7596 4192.5503 3128.0652 4276.7588 3105.8021 4279.5345 3104.8755 4349.8725 3094.1553 4351.2572 3091.8476 4269.9839 3211.4066 Z" fill="none" stroke="#E71E24" opacity="0.6" stroke-width="1" class="woodhaven"/>
<path d="M 4194.1651 3124.6046 4355.6474 3087.6906 4396.6086 3220.6498 4226.1224 3286.4126 4194.1651 3124.6046 Z" fill="none" stroke="#E71E24" opacity="0.6" stroke-width="1" class="woodhaven"/>
<path d="M 4354.0629 3384.2098 4248.1362 3153.8012 4473.0312 3114.6894 4565.2208 3398.5904 4363.3293 3387.8839 4354.0629 3384.2098 Z" fill="none" stroke="#E71E24" opacity="0.6" stroke-width="1" class="woodhaven"/>
<path d="M 4211.3177 3292.8917 4206.2044 3279.295 4204.5524 3258.5453 4200.8261 3243.5635 4199.1821 3227.8871 4189.3897 3180.8666 4198.4104 3176.9335 4195.3932 3171.4047 4187.0311 3151.5896 4179.3672 3134.0793 4185.3812 3131.7648 4194.1707 3128.2933 4228.4073 3117.6359 4279.0698 3103.7235 4313.3121 3097.674 4355.8749 3085.3848 4354.6969 3072.9379 4344.95 3056.8171 4350.5016 3055.3093 4363.1187 3058.0544 4375.966 3059.9921 4384.5486 3071.6193 4390.3469 3078.9864 4402.4893 3074.5853 4406.5394 3074.6935 4411.3122 3091.0533 4416.0875 3108.7965 4422.3621 3123.5403 4418.894 3125.5061 4418.4353 3127.9276 4420.5251 3131.8432 4424.2415 3139.4448 4427.0326 3147.2786 4431.2153 3156.7239 4435.4033 3169.1665 4437.499 3176.3101 4443.071 3185.9837 4444.7068 3194.7422 4446.1103 3203.04 4438.0166 3207.2045 4392.908 3222.2702 4377.8755 3229.6742 4360.5239 3234.5456 4339.2444 3243.8043 4320.0444 3250.9839 4305.236 3254.4668 4297.3716 3257.9382 4283.0304 3264.187 4267.0694 3270.8993 4254.5767 3275.3002 4243.0116 3280.8523 4234.2194 3283.4024 4225.1968 3286.6446 4218.2553 3288.5 4211.3177 3292.8917 Z" fill="none" stroke="#E71E24" opacity="0.6" stroke-width="1" class="woodhaven"/>
<path d="M 4394.1856 3023.5378 4469.7091 3325.8967 4201.9397 3214.7404 4172.1219 3086.5984 4394.1856 3023.5378 Z" fill="none" stroke="#E71E24" opacity="0.6" stroke-width="1" class="woodhaven"/>
<path d="M 4274.2115 3104.884 4353.1059 3090.2307 4396.6106 3221.8026 4313.3333 3251.9172 4274.2115 3104.884 Z" fill="none" stroke="#E71E24" opacity="0.6" stroke-width="1" class="woodhaven"/>
<path d="M 4405.3859 3076.7704 4428.0685 3078.3445 4460.9169 3199.3245 4209.9298 3293.5856 4181.6775 3131.3092 4405.3859 3076.7704 Z" fill="none" stroke="#E71E24" opacity="0.6" stroke-width="1" class="woodhaven"/>
<path d="M 4324.0578 3017.8931 4331.9751 3047.6175 4370.8407 3176.1951 4213.0522 3216.3375 4189.7734 3128.3 4187.7869 3038.6246 4297.2069 3013.5571 4324.0578 3017.8931 Z" fill="none" stroke="#E71E24" opacity="0.6" stroke-width="1" class="woodhaven"/>
<path d="M 4206.6701 3281.139 4191.6259 3128.9888 4341.5433 3095.5525 4340.6283 3102.0091 4340.6437 3111.2307 4347.1563 3130.5856 4355.5362 3159.1599 4382.4851 3218.1378 4206.6701 3281.139 Z" fill="none" stroke="#E71E24" opacity="0.6" stroke-width="1" class="woodhaven"/>
<path d="M 4189.8551 3182.4798 4198.827 3177.5482 4184.8856 3141.3723 4186.9689 3141.5997 4186.41 3130.0759 4218.6965 3120.5121 4277.7695 3107.5858 4357.0072 3090.511 4418.4933 3070.6066 4461.4413 3197.3418 4206.8137 3297.2798 4189.8551 3182.4798 Z" fill="none" stroke="#E71E24" opacity="0.6" stroke-width="1" class="woodhaven"/>
<path d="M 4395.458 3224.5715 4270.0735 3267.6664 4235.1208 3118.7782 4356.3394 3086.3062 4572.8263 3017.6804 4623.0579 3142.9942 4395.458 3224.5715 Z" fill="none" stroke="#E71E24" opacity="0.6" stroke-width="1" class="woodhaven"/>
<path d="M 4188.2304 3179.485 4183.6024 3180.1836 4177.328 3163.3624 4168.0742 3166.1428 4161.7985 3148.1689 4187.0117 3138.6788 4166.5683 3087.0677 4181.3569 3071.8304 4185.9494 3047.8484 4192.4096 3034.9292 4204.4278 3024.768 4218.307 3021.0584 4234.0366 3016.8847 4251.1647 3019.1631 4271.5349 3022.8192 4295.1286 3016.3267 4297.9041 3015.4002 4324.7539 3019.0445 4377.0649 3025.8724 4380.0737 3026.0978 4380.0816 3030.7082 4382.4048 3036.0063 4402.3753 3075.6229 4421.4388 3124.9252 4446.3429 3203.7312 4208.5385 3291.9736 4203.8647 3262.9273 4188.2304 3179.485 Z" fill="none" stroke="#E71E24" opacity="0.6" stroke-width="1" class="woodhaven"/>
<path d="M 4386.9979 3087.1707 4422.6589 3214.0969 4209.1193 3290.2932 4182.9626 3136.3139 4181.0917 3123.4061 4386.9979 3087.1707 Z" fill="none" stroke="#E71E24" opacity="0.6" stroke-width="1" class="woodhaven"/>
<path d="M 4191.6273 3129.911 4359.1243 3090.9122 4414.6369 3073.2962 4459.2905 3195.8689 4224.2182 3252.5201 4191.6273 3129.911 Z" fill="none" stroke="#E71E24" opacity="0.6" stroke-width="1" class="woodhaven"/>
<path d="M 4165.7075 3130.872 4172.4775 3130.3566 4390.9788 3074.8851 4438.9619 3204.7471 4211.8287 3292.095 4201.3351 3241.3834 4201.3344 3240.9222 4165.7075 3130.872 Z" fill="none" stroke="#E71E24" opacity="0.6" stroke-width="1" class="woodhaven"/>
<path d="M 4188.932 3184.3257 4180.5182 3129.9277 4412.7791 3069.611 4461.1422 3195.8656 4208.5403 3293.1266 4192.6422 3188.9313 4188.932 3184.3257 Z" fill="none" stroke="#E71E24" opacity="0.6" stroke-width="1" class="woodhaven"/>
<path d="M 4207.843 3291.2829 4206.9132 3288.7479 4206.7924 3285.4046 4206.5512 3279.0639 4205.8503 3274.7992 4206.0769 3271.5707 4205.3763 3267.5366 4204.3183 3256.8163 4199.7273 3242.0791 4195.3295 3218.7577 4190.9791 3190.0646 4189.327 3179.9641 4197.0225 3177.0367 4184.1813 3141.1368 4178.1764 3131.5737 4172.0993 3108.758 4189.444 3100.202 4210.4313 3095.4837 4228.3664 3099.378 4249.5836 3097.5419 4268.3948 3094.0029 4294.4905 3084.908 4307.4635 3059.1407 4338.0626 3044.6347 4376.0894 3059.7149 4389.3499 3079.2587 4405.2809 3122.1108 4420.4103 3159.7873 4436.9716 3206.3093 4441.6598 3224.133 4403.9235 3239.4186 4357.0943 3257.8206 4309.6315 3274.8649 4235.9153 3302.1317 4230.486 3283.9578 4219.4376 3254.5268 4197.2373 3176.8116 4197.0064 3177.1578 4209.0509 3295.2647 4207.843 3291.2829 Z" fill="none" stroke="#E71E24" opacity="0.6" stroke-width="1" class="woodhaven"/>
<path d="M 4187.5586 3194.4725 4185.1318 3119.7768 4188.7445 3059.8316 4225.2316 3009.5218 4228.0085 3009.5175 4292.3465 3013.104 4340.9489 3016.7125 4354.8577 3030.9815 4385.0334 3084.4131 4403.6356 3135.1003 4423.1721 3189.4773 4404.6861 3207.0323 4368.5888 3213.089 4320.0148 3232.9992 4277.4636 3257.048 4243.1951 3250.1849 4216.7857 3235.9302 4198.6929 3210.5952 4187.5586 3194.4725 Z" fill="none" stroke="#E71E24" opacity="0.6" stroke-width="1" class="woodhaven"/>
<path d="M 4424.0057 3091.5659 4452.9006 3202.1794 4207.6909 3291.1264 4206.4415 3079.0128 4424.0057 3091.5659 Z" fill="none" stroke="#E71E24" opacity="0.6" stroke-width="1" class="woodhaven"/>
<path d="M 4190.7836 3184.3229 4361.0699 3146.7007 4397.3066 3222.7237 4211.7803 3292.6604 4190.7836 3184.3229 Z" fill="none" stroke="#E71E24" opacity="0.6" stroke-width="1" class="woodhaven"/>
<path d="M 4187.3025 3178.1031 4184.7479 3172.3429 4187.5058 3159.4277 4186.553 3141.4461 4192.0749 3119.7663 4198.9865 3099.0071 4233.6763 3082.8162 4260.0255 3061.5658 4290.5421 3042.1527 4321.0923 3043.9471 4335.0035 3059.6 4359.0776 3063.2482 4377.6104 3074.2823 4395.8974 3076.7868 4400.2993 3079.5456 4407.2754 3098.6681 4411.452 3104.8854 4416.3403 3121.0149 4423.7552 3126.0739 4428.3949 3132.2905 4436.7529 3147.0309 4439.0865 3157.8628 4437.4876 3169.8545 4447.0324 3200.9632 4433.3833 3204.907 4425.0581 3209.0719 4413.2594 3212.3205 4400.9996 3216.7225 4390.3615 3222.044 4380.1858 3227.134 4368.8472 3228.9978 4359.5972 3234.0861 4351.0311 3232.9476 4339.0068 3240.1155 4325.3571 3244.2884 4308.9335 3250.7715 4297.6027 3257.7073 4286.4988 3261.8756 4278.6317 3263.7329 4266.8336 3268.1327 4258.9613 3266.7617 4248.7739 3265.1637 4238.8123 3259.876 4229.7814 3257.5842 4220.5151 3252.7564 4210.7888 3249.7739 4199.1992 3239.1851 4195.7056 3224.8949 4192.2107 3209.6827 4190.8035 3197.4649 4188.704 3186.6317 4187.3025 3178.1031 Z" fill="none" stroke="#E71E24" opacity="0.6" stroke-width="1" class="woodhaven"/>
<path d="M 4331.4507 3708.9999 4190.6296 3696.3043 4187.7376 3005.8907 4328.2887 2917.6152 4331.4507 3708.9999 Z" fill="none" stroke="#E71E24" opacity="0.6" stroke-width="1" class="woodhaven"/>
<path d="M 4329.3608 3006.1279 4435.4261 3313.0447 4027.0196 3262.9494 3960.9944 3036.1725 4321.0331 3007.9858 4329.3608 3006.1279 Z" fill="none" stroke="#E71E24" opacity="0.6" stroke-width="1" class="woodhaven"/>
<path d="M 4208.0808 3295.4331 4181.4481 3132.6929 4354.9516 3086.7696 4340.5422 3050.3696 4375.2552 3050.3111 4392.8972 3081.6332 4445.8841 3206.0377 4208.0808 3295.4331 Z" fill="none" stroke="#E71E24" opacity="0.6" stroke-width="1" class="woodhaven"/>
<path d="M 4193.5743 3193.08 4350.8439 3121.3576 4361.066 3144.3952 4394.0565 3217.1957 4382.5009 3227.3606 4283.0308 3264.4176 4206.6125 3243.3241 4149.0303 3121.6747 4193.5743 3193.08 Z" fill="none" stroke="#E71E24" opacity="0.6" stroke-width="1" class="woodhaven"/>
<path d="M 4205.5154 3285.9148 4181.2869 3182.655 4165.4785 3135.6456 4158.0823 3095.3234 4406.1218 3034.3679 4406.5774 3030.2176 4459.9333 3190.3283 4458.9187 3199.1787 4213.1897 3285.5369 4205.5154 3285.9148 Z" fill="none" stroke="#E71E24" opacity="0.6" stroke-width="1" class="woodhaven"/>
<path d="M 4184.2393 3141.9106 4178.6695 3131.7748 4395.2059 3078.4017 4440.3259 3204.2031 4212.2411 3291.2762 4184.2393 3141.9106 Z" fill="none" stroke="#E71E24" opacity="0.6" stroke-width="1" class="woodhaven"/>
<path d="M 4201.6177 3125.0809 4389.3234 3078.7484 4436.8889 3204.5827 4266.1672 3269.0151 4219.8504 3254.7916 4201.6177 3125.0809 Z" fill="none" stroke="#E71E24" opacity="0.6" stroke-width="1" class="woodhaven"/>
<path d="M 4391.9619 3076.102 4417.0624 3136.9214 4397.2285 3177.5333 4262.0843 3192.5129 4193.5402 3170.4852 4182.3808 3137.3024 4391.9619 3076.102 Z" fill="none" stroke="#E71E24" opacity="0.6" stroke-width="1" class="woodhaven"/>
<path d="M 4394.529 3222.7285 4270.5371 3268.1268 4260.7317 3215.3409 4252.5529 3166.0136 4250.0077 3166.4788 4235.5793 3116.0109 4296.188 3098.8546 4328.1165 3093.2694 4353.104 3089.0781 4353.152 3117.665 4359.6758 3143.4753 4394.529 3222.7285 Z" fill="none" stroke="#E71E24" opacity="0.6" stroke-width="1" class="woodhaven"/>
<path d="M 4207.6696 3288.5584 4179.6766 3131.6763 4340.0568 3045.0588 4394.9308 3078.1206 4445.8346 3203.2553 4209.2227 3291.7967 4207.6696 3288.5584 Z" fill="none" stroke="#E71E24" opacity="0.6" stroke-width="1" class="woodhaven"/>
<path d="M 4116.5921 3095.9009 4464.6381 3080.5847 4655.7218 3273.8911 4640.3182 3443.6455 4116.5921 3095.9009 Z" fill="none" stroke="#E71E24" opacity="0.6" stroke-width="1" class="woodhaven"/>
<path d="M 4453.7372 3196.8011 4264.0544 3267.2148 4250.1631 3265.3921 4187.1609 3237.8198 4177.7409 3129.9319 4411.8486 3066.8462 4453.7372 3196.8011 Z" fill="none" stroke="#E71E24" opacity="0.6" stroke-width="1" class="woodhaven"/>
<path d="M 4414.5152 3069.8385 4433.0054 3121.9078 4432.0833 3123.9843 4461.6082 3197.594 4268.11 3270.2059 4209.3517 3293.9324 4188.9233 3178.5617 4197.7169 3177.5109 4182.5015 3140.6452 4186.2015 3138.5647 4182.6 3129.1177 4411.3913 3070.0744 4414.5152 3069.8385 Z" fill="none" stroke="#E71E24" opacity="0.6" stroke-width="1" class="woodhaven"/>
<path d="M 4394.5322 3224.5731 4031.0609 2824.0226 4212.3633 2766.6068 4574.5699 2961.4319 4610.0917 3140.253 4394.5322 3224.5731 Z" fill="none" stroke="#E71E24" opacity="0.6" stroke-width="1" class="woodhaven"/>
<path d="M 4188.2304 3179.485 4197.9482 3177.3953 4182.8485 3140.5294 4168.6494 3085.912 4177.4282 3075.5248 4181.3479 3065.8366 4183.6452 3054.5371 4187.3247 3039.0863 4200.0303 3024.3136 4220.6154 3017.3665 4236.1183 3016.1899 4248.8484 3017.7837 4262.7368 3020.0669 4273.3833 3020.9721 4281.9437 3019.8058 4297.4375 3013.0957 4380.0733 3025.8672 4381.0104 3032.5508 4385.8772 3036.6919 4392.8265 3040.5989 4404.644 3049.3385 4410.2045 3053.0172 4412.9916 3058.7756 4433.7013 3122.8288 4461.3769 3197.7097 4207.8434 3291.5135 4204.3287 3263.6184 4199.6649 3241.029 4192.6684 3206.2235 4188.2304 3179.485 Z" fill="none" stroke="#E71E24" opacity="0.6" stroke-width="1" class="woodhaven"/>
<path d="M 4195.3415 3137.2829 4530.2085 2997.4755 4503.7182 3189.3325 4235.4105 3305.0757 4195.3415 3137.2829 Z" fill="none" stroke="#E71E24" opacity="0.6" stroke-width="1" class="woodhaven"/>
<path d="M 4350.7618 3072.4834 4497.8995 3045.4836 4549.9411 3153.2794 4224.2695 3285.7237 4201.892 3183.3839 4185.1498 3131.7651 4350.7618 3072.4834 Z" fill="none" stroke="#E71E24" opacity="0.6" stroke-width="1" class="woodhaven"/>
<path d="M 4190.7809 3182.4784 4215.714 3140.9407 4453.4423 3031.7326 4437.0838 3203.2865 4383.4283 3228.2813 4352.8937 3239.4005 4318.6533 3249.6027 4298.7574 3256.0914 4288.5854 3263.9475 4264.9825 3268.5968 4253.4037 3265.387 4245.0606 3258.9439 4232.559 3257.5799 4220.0567 3255.7546 4207.5496 3250.7011 4199.6635 3240.1067 4195.9245 3216.5941 4190.7809 3182.4784 Z" fill="none" stroke="#E71E24" opacity="0.6" stroke-width="1" class="woodhaven"/>
<path d="M 4209.5161 3022.916 4359.0123 3024.5199 4416.9447 3069.6037 4461.1447 3197.249 4206.9174 3291.5149 4188.6933 3179.4843 4173.2807 3087.7494 4209.5161 3022.916 Z" fill="none" stroke="#E71E24" opacity="0.6" stroke-width="1" class="woodhaven"/>
<path d="M 4409.3899 3128.277 4439.2706 3206.3888 4208.5288 3291.0921 4186.231 3145.2428 4189.9122 3130.7127 4388.8367 3082.2933 4409.3899 3128.277 Z" fill="none" stroke="#E71E24" opacity="0.6" stroke-width="1" class="woodhaven"/>
<path d="M 4150.0668 3197.2949 4148.141 3146.5752 4364.6755 3089.0585 4400.0809 3220.8744 4182.6284 3302.3893 4150.0668 3197.2949 Z" fill="none" stroke="#E71E24" opacity="0.6" stroke-width="1" class="woodhaven"/>
<path d="M 4193.0822 3173.7137 4202.0901 3161.4806 4201.2704 3155.1416 4198.2532 3149.6129 4197.2007 3142.3522 4197.7748 3139.3542 4195.6871 3136.2449 4193.1334 3131.0615 4192.4349 3128.296 4191.8542 3126.9136 4192.5465 3125.5292 4195.7857 3124.948 4201.4521 3122.4034 4207.4575 3114.5557 4209.311 3115.8209 4211.9622 3109.1311 4209.1808 3106.3688 4204.5451 3101.7651 4204.0836 3102.688 4204.5428 3100.2666 4205.1059 3090.122 4207.7686 3090.9249 4218.0738 3095.174 4229.5248 3092.0441 4230.6868 3095.1545 4232.1933 3096.5354 4240.1793 3097.5604 4243.3068 3099.6304 4253.031 3102.1511 4253.6087 3101.5738 4265.2999 3103.976 4266.5749 3105.3572 4281.834 3095.6502 4291.0875 3093.3299 4296.6352 3089.1713 4306.3447 3082.7004 4336.8686 3067.896 4349.8284 3067.8744 4355.4214 3090.9185 4339.2482 3107.0833 4342.9688 3117.6821 4343.4471 3126.9031 4345.3109 3134.2775 4344.3798 3131.0514 4347.1814 3145.5713 4348.5797 3151.3327 4355.5533 3169.3043 4369.4434 3171.1252 4380.5861 3190.4733 4382.4535 3199.6926 4386.1726 3208.9088 4382.4677 3207.9929 4380.6271 3214.4519 4376.9371 3222.2975 4376.473 3221.6066 4378.6831 3228.1741 4374.6384 3231.6396 4375.1205 3242.9368 4373.4769 3229.2205 4370.005 3229.2264 4367.4592 3229.4613 4362.1391 3231.5455 4363.0665 3232.4662 4359.6011 3236.3918 4355.8979 3236.5133 4347.6901 3242.0609 4348.0331 3239.524 4336.8173 3245.7682 4338.666 3243.9205 4340.6317 3242.8797 4339.8166 3239.8836 4338.7775 3241.384 4334.151 3243.121 4331.6043 3242.7794 4327.787 3243.9386 4319.6767 3238.5335 4316.5672 3247.8768 4317.262 3248.1063 4312.6393 3252.1489 4307.6636 3252.7335 4299.3361 3256.0904 4298.641 3255.6304 4286.7264 3259.4542 4287.536 3259.107 4277.9349 3262.2352 4278.0493 3261.428 4276.5507 3265.1197 4272.9639 3265.8172 4267.1859 3271.3603 4266.7167 3267.4412 4261.854 3266.296 4257.9275 3271.7208 4254.9147 3269.4198 4247.6305 3274.0429 4251.6628 3262.2769 4242.0508 3258.4875 4252.002 3257.2037 4252.6961 3256.972 4250.2604 3253.6325 4254.1963 3254.2027 4250.1383 3249.5976 4250.8276 3246.3684 4248.8574 3244.6422 4250.1265 3242.1039 4243.1872 3245.1122 4237.6345 3246.7349 4232.0807 3247.6659 4234.7433 3248.1229 4230.9233 3247.6677 4220.8644 3254.1393 4219.8212 3253.1034 4209.8745 3257.3843 4220.1656 3251.2582 4217.3808 3246.651 4211.9242 3235.4765 4214.5852 3234.896 4212.4889 3226.3681 4214.5737 3227.4025 4214.5592 3217.9491 4214.3323 3220.9469 4214.3131 3208.381 4213.9714 3211.9553 4212.6824 3201.5818 4212.2255 3205.5021 4210.8204 3194.783 4210.8255 3198.1262 4209.1905 3188.4451 4209.8926 3193.5163 4207.4454 3182.4532 4208.3778 3186.7171 4205.932 3176.5762 4206.6297 3178.7654 4208.364 3177.7253 4207.7726 3169.3108 4211.8247 3170.4574 4213.6606 3160.1949 4213.4332 3162.8466 4218.5412 3173.3291 4214.1245 3160.8858 4216.5526 3159.4988 4217.0153 3159.3828 4214.463 3155.2368 4205.438 3156.1728 4201.9723 3160.0975 4193.0822 3173.7137 Z" fill="none" stroke="#E71E24" opacity="0.6" stroke-width="1" class="woodhaven"/>
<path d="M 4301.7925 3157.6031 4385.4329 3079.5864 4511.4313 3043.3577 4553.3047 3153.3994 4341.5161 3238.8265 4301.7925 3157.6031 Z" fill="none" stroke="#E71E24" opacity="0.6" stroke-width="1" class="woodhaven"/>
<path d="M 4436.8581 3206.5149 4339.2421 3242.4208 4268.2261 3270.4363 4200.8335 3248.4056 4187.9989 3179.4854 4197.4839 3176.4738 4183.0796 3140.2985 4186.3021 3128.5357 4257.5559 3109.7518 4353.1036 3088.8475 4331.969 3043.9291 4369.0006 3046.6333 4394.5287 3088.3159 4409.4192 3133.707 4436.8581 3206.5149 Z" fill="none" stroke="#E71E24" opacity="0.6" stroke-width="1" class="woodhaven"/>
<path d="M 4195.0593 3247.4883 4169.3578 3091.0537 4330.2 3008.7378 4397.7826 3222.2581 4264.532 3267.6715 4195.0593 3247.4883 Z" fill="none" stroke="#E71E24" opacity="0.6" stroke-width="1" class="woodhaven"/>
<path d="M 4324.7524 3018.1225 4354.4755 3078.9322 4350.8377 3117.6689 4359.2083 3140.7095 4392.6837 3226.4208 4258.5107 3274.6022 4205.6964 3249.7816 4192.6868 3218.4436 4186.1463 3178.7965 4160.9057 3013.7683 4248.8303 3006.2578 4324.7524 3018.1225 Z" fill="none" stroke="#E71E24" opacity="0.6" stroke-width="1" class="woodhaven"/>
<path d="M 3878.1132 3400.5715 3871.5944 3369.2164 3878.0524 3348.9158 3882.643 3315.7046 3885.3881 3288.0307 3941.7701 3208.6443 3969.5122 3182.7863 4045.4037 3164.242 4085.1934 3150.354 4094.4305 3135.5859 4118.4594 3106.9642 4147.1383 3094.0125 4161.9308 3081.0807 4185.0265 3049.694 4205.3493 3022.0003 4254.3929 3011.7814 4277.5384 3014.5109 4334.9024 2998.7422 4363.5392 2964.5785 4387.5572 2936.8771 4426.4262 2934.0436 4460.6689 2932.1387 4486.5427 2909.0423 4560.523 2875.7141 4584.5436 2853.5418 4704.0602 2915.9968 4772.9074 3083.6686 4861.3185 3294.6713 4642.0348 3375.38 4441.9322 3326.8688 4315.0163 3290.1909 4265.9106 3269.9788 4107.6662 3329.2474 3878.1132 3400.5715 Z" fill="none" stroke="#E71E24" opacity="0.6" stroke-width="1" class="woodhaven"/>
<path d="M 4284.3544 3223.8343 4339.827 3176.7084 4392.6408 3201.5196 4420.0997 3285.4011 4395.178 3330.6401 4330.8226 3329.8265 4255.3086 3299.0493 4257.0855 3251.5465 4284.3544 3223.8343 Z" fill="none" stroke="#E71E24" opacity="0.6" stroke-width="1" class="woodhaven"/>
<path d="M 4210.6981 3190.5178 4192.085 3126.4521 4354.7209 3087.231 4397.3062 3222.4932 4226.815 3285.2586 4213.9834 3219.7946 4212.3434 3206.8853 4210.0179 3199.7414 4210.6981 3190.5178 Z" fill="none" stroke="#E71E24" opacity="0.6" stroke-width="1" class="woodhaven"/>
<path d="M 4207.843 3291.2829 4204.3297 3264.3101 4199.6646 3240.7984 4195.0021 3218.9012 4188.23 3179.2545 4197.7164 3177.1651 4182.3863 3140.9912 4157.5463 3089.617 4173.734 3081.2937 4179.7314 3068.1443 4184.7978 3051.5385 4188.0172 3037.9326 4199.1064 3025.4676 4211.5946 3020.1466 4226.1686 3016.8969 4239.358 3016.1849 4255.3283 3018.004 4269.9136 3021.8997 4285.4153 3020.0307 4296.9762 3014.0185 4379.6105 3025.868 4380.3154 3032.0909 4385.8772 3036.6919 4409.7405 3052.3265 4432.545 3123.2919 4460.914 3197.7105 4207.843 3291.2829 Z" fill="none" stroke="#E71E24" opacity="0.6" stroke-width="1" class="woodhaven"/>
<path d="M 4183.7577 3129.4618 4434.9804 3060.8118 4498.616 3183.8084 4229.8171 3280.6423 4183.7577 3129.4618 Z" fill="none" stroke="#E71E24" opacity="0.6" stroke-width="1" class="woodhaven"/>
<path d="M 4296.3121 3253.7684 4272.3478 3276.5669 4244.5337 3263.0029 4248.201 3239.9395 4237.9389 3190.153 4232.2795 3122.8402 4277.4731 3104.4389 4349.6448 3083.1111 4356.1878 3108.9989 4364.5475 3125.5839 4363.6623 3149.5625 4375.732 3169.8308 4384.1053 3193.7947 4397.1098 3218.6734 4376.7663 3233.4648 4355.4871 3242.7238 4327.7201 3248.3039 4296.3121 3253.7684 Z" fill="none" stroke="#E71E24" opacity="0.6" stroke-width="1" class="woodhaven"/>
<path d="M 4190.7756 3179.0201 4180.7521 3131.5412 4354.027 3087.4627 4339.1437 3044.3782 4369.6965 3047.5542 4388.7251 3077.9518 4444.9521 3202.5809 4209.0025 3292.6647 4190.7756 3179.0201 Z" fill="none" stroke="#E71E24" opacity="0.6" stroke-width="1" class="woodhaven"/>
<path d="M 4200.4928 3176.4692 4196.7916 3177.8582 4570.5985 3062.8677 4618.42 3138.3923 4263.13 3268.1386 4200.4928 3176.4692 Z" fill="none" stroke="#E71E24" opacity="0.6" stroke-width="1" class="woodhaven"/>
<path d="M 4208.5396 3292.6654 4185.1453 3128.768 4330.1963 3091.4216 4293.422 3105.7753 4436.3689 3060.8093 4480.5744 3190.297 4208.5396 3292.6654 Z" fill="none" stroke="#E71E24" opacity="0.6" stroke-width="1" class="woodhaven"/>
<path d="M 4192.6589 3199.9983 4155.6191 3195.4423 4137.0397 3152.1246 4149.0087 3106.92 4174.9128 3095.8157 4217.4494 3065.3207 4273.8755 3039.4131 4371.0552 3030.032 4448.8764 3066.7809 4454.4932 3101.8124 4467.6263 3197.6985 4391.7689 3232.8784 4210.4584 3336.4749 4069.7429 3358.8171 3910.4447 3335.0412 3910.3509 3257.5641 4041.6893 3155.947 4123.1053 3118.9458 4192.6589 3199.9983 Z" fill="none" stroke="#E71E24" opacity="0.6" stroke-width="1" class="woodhaven"/>
<path d="M 4427.613 3082.4949 4426.7083 3094.4844 4432.292 3111.0735 4440.6547 3128.5801 4444.8558 3148.3999 4456.4693 3171.4346 4464.3743 3191.2486 4394.9911 3222.2666 4339.4717 3241.2676 4277.0125 3264.4272 4256.953 3167.6206 4251.3163 3115.5252 4415.0982 3072.3733 4427.613 3082.4949 Z" fill="none" stroke="#E71E24" opacity="0.6" stroke-width="1" class="woodhaven"/>
<path d="M 4300.705 3030.149 4304.4031 3027.3767 4373.8212 3023.5727 4395.3689 3172.9253 4338.9412 3200.6883 4300.705 3030.149 Z" fill="none" stroke="#E71E24" opacity="0.6" stroke-width="1" class="woodhaven"/></svg>