<?xml version="1.0"?><svg xmlns="http://www.w3.org/2000/svg" version="1.2" baseProfile="tiny" width="6000" height="5918" viewBox="0 0 6000 5918" stroke-linecap="round" stroke-linejoin="round"><path d="M 4252.7386 205.4478 4244.0599 262.0035 4233.0225 286.3855 4216.8606 279.9745 4155.463 266.2758 4088.5754 285.2203 4092.2426 267.7461 4106.9804 247.0386 4130.0278 229.0774 4171.0571 201.8958 4187.6365 180.2664 4252.7386 205.4478 Z" fill="none" stroke="#A9159C" opacity="0.6" stroke-width="1" class="woodlawn"/>
<path d="M 4190.3849 166.932 4198.685 163.2422 4212.0795 171.7254 4223.1605 176.0751 4231.9385 182.9565 4242.8028 196.0401 4255.273 203.1454 4255.0604 214.6377 4250.0138 233.263 4244.7373 252.5785 4241.9991 272.1203 4233.9437 285.2347 4218.4779 281.3511 4196.7798 275.8678 4161.4679 270.1744 4138.172 276.1849 4112.3379 282.4283 4087.8844 286.1407 4089.7142 274.6453 4098.9204 258.0828 4108.824 245.427 4131.1815 229.0757 4157.4642 215.2467 4179.1193 193.1499 4190.3849 166.932 Z" fill="none" stroke="#A9159C" opacity="0.6" stroke-width="1" class="woodlawn"/>
<path d="M 4055.3478 284.8066 4187.1785 182.5654 4241.6567 200.8685 4217.7849 280.8925 4055.3478 284.8066 Z" fill="none" stroke="#A9159C" opacity="0.6" stroke-width="1" class="woodlawn"/>
<path d="M 4262.8963 209.1091 4245.4595 271.6552 4234.3983 280.8667 4089.4835 274.6456 4186.2584 184.4055 4183.4635 166.9425 4191.7734 169.6879 4262.8963 209.1091 Z" fill="none" stroke="#A9159C" opacity="0.6" stroke-width="1" class="woodlawn"/>
<path d="M 4237.6044 285.9995 4096.4561 263.2893 4184.02 185.9341 4224.6136 177.5981 4256.8588 205.0625 4237.6044 285.9995 Z" fill="none" stroke="#A9159C" opacity="0.6" stroke-width="1" class="woodlawn"/>
<path d="M 4237.1787 288.2178 4119.957 285.6354 4081.1884 282.932 4125.3349 174.8424 4193.617 168.3061 4262.44 212.3276 4237.1787 288.2178 Z" fill="none" stroke="#A9159C" opacity="0.6" stroke-width="1" class="woodlawn"/>
<path d="M 4056.2745 287.5637 4190.8422 164.1734 4242.5738 197.1896 4245.4855 288.2048 4056.2745 287.5637 Z" fill="none" stroke="#A9159C" opacity="0.6" stroke-width="1" class="woodlawn"/>
<path d="M 4240.7223 193.5151 4271.1789 194.3863 4251.9376 282.6781 4161.4649 268.1057 4102.3984 270.0302 4198.2376 172.4361 4240.7223 193.5151 Z" fill="none" stroke="#A9159C" opacity="0.6" stroke-width="1" class="woodlawn"/>
<path d="M 4096.6293 269.5787 4095.4528 253.4907 4186.4944 187.8526 4245.3512 202.7014 4238.5157 257.8749 4096.6293 269.5787 Z" fill="none" stroke="#A9159C" opacity="0.6" stroke-width="1" class="woodlawn"/>
<path d="M 4089.9559 282.46 4093.163 265.9059 4100.9879 251.6441 4115.2776 240.591 4134.1769 226.3133 4156.3119 216.1678 4174.7452 199.5919 4185.7977 184.8658 4189.9353 174.747 4224.0877 178.8317 4237.9515 192.1405 4260.1211 204.9764 4256.4826 238.5393 4248.666 256.4798 4246.8353 266.1365 4244.0823 276.2544 4238.5654 289.5948 4219.6287 279.5105 4200.7016 275.4021 4183.6296 277.2668 4169.7728 269.0128 4149.4692 269.9623 4123.1742 276.4365 4105.6438 280.599 4089.9559 282.46 Z" fill="none" stroke="#A9159C" opacity="0.6" stroke-width="1" class="woodlawn"/>
<path d="M 4237.1586 275.3459 4054.4348 292.1634 4083.7617 143.1853 4205.6289 177.9407 4254.8199 208.4324 4237.1586 275.3459 Z" fill="none" stroke="#A9159C" opacity="0.6" stroke-width="1" class="woodlawn"/>
<path d="M 4071.0485 292.1405 4062.7277 282.0382 4067.1125 282.4919 4067.3457 284.3304 4194.0802 169.4546 4205.6258 175.8723 4213.9375 179.7667 4235.8714 189.8454 4273.0541 212.7704 4271.22 220.1282 4264.7889 238.5261 4255.5902 257.848 4243.6237 278.094 4212.2471 280.901 4208.5285 263.4377 4173.4688 271.7655 4147.634 277.3203 4114.4205 286.5628 4096.8879 289.346 4071.0485 292.1405 Z" fill="none" stroke="#A9159C" opacity="0.6" stroke-width="1" class="woodlawn"/>
<path d="M 4065.503 286.6316 4079.1539 147.7883 4270.2795 209.0974 4245.4971 295.5603 4065.503 286.6316 Z" fill="none" stroke="#A9159C" opacity="0.6" stroke-width="1" class="woodlawn"/>
<path d="M 4059.0409 285.721 4189.0034 168.7728 4261.9763 210.9493 4228.8705 287.3114 4059.0409 285.721 Z" fill="none" stroke="#A9159C" opacity="0.6" stroke-width="1" class="woodlawn"/>
<path d="M 4209.4867 286.4218 4140.6112 287.4443 4143.2631 286.2912 4130.4712 296.1938 4129.0893 298.0346 4123.0976 303.3301 4113.2994 309.3206 4109.61 311.1648 4098.0677 307.7333 4094.6056 307.1635 4076.5926 296.6151 4082.8058 284.5388 4084.2941 276.2619 4092.5926 270.5038 4097.6455 253.9473 4100.408 249.4613 4111.5902 243.5843 4132.5672 229.9931 4144.0956 224.4601 4151.6998 217.7835 4163.2218 208.1131 4186.7414 198.6546 4165.0351 186.2759 4212.1003 185.2855 4203.7804 176.1049 4244.4124 192.59 4253.6499 198.0915 4298.8055 157.5686 4304.3621 169.5107 4304.3876 185.1392 4301.6985 233.8697 4296.1953 255.0247 4296.2192 269.7352 4209.4867 286.4218 Z" fill="none" stroke="#A9159C" opacity="0.6" stroke-width="1" class="woodlawn"/>
<path d="M 4215.9079 260.6682 4071.0102 264.5578 4185.3231 176.1329 4237.038 198.1176 4215.9079 260.6682 Z" fill="none" stroke="#A9159C" opacity="0.6" stroke-width="1" class="woodlawn"/>
<path d="M 4188.9979 165.0955 4191.7247 137.5123 4272.9849 169.5614 4232.551 279.9502 4081.1845 280.1738 4188.9979 165.0955 Z" fill="none" stroke="#A9159C" opacity="0.6" stroke-width="1" class="woodlawn"/>
<path d="M 4232.7896 285.0067 4195.8568 275.8692 4158.0038 268.1109 4111.6437 281.0502 4086.6134 284.7633 4099.4936 255.5536 4110.8968 242.7808 4161.8405 210.1837 4182.5711 187.169 4190.1511 164.8639 4204.9329 175.4137 4226.1716 183.6549 4231.4888 190.5417 4242.1164 199.7186 4253.2001 205.4471 4238.7688 272.1254 4232.7896 285.0067 Z" fill="none" stroke="#A9159C" opacity="0.6" stroke-width="1" class="woodlawn"/>
<path d="M 4061.8136 288.4755 4161.4635 267.1863 4467.1703 382.5371 4497.8074 478.117 4430.5239 538.9352 4389.934 557.3998 4341.0685 597.0306 4152.6103 522.8312 4104.7226 606.5935 4058.6189 650.8066 3984.4884 446.7348 3975.165 375.0216 4061.8136 288.4755 Z" fill="none" stroke="#A9159C" opacity="0.6" stroke-width="1" class="woodlawn"/>
<path d="M 4251.8157 205.4493 4233.4782 282.707 4070.1153 284.7863 4189.9291 170.61 4251.8157 205.4493 Z" fill="none" stroke="#A9159C" opacity="0.6" stroke-width="1" class="woodlawn"/>
<path d="M 4068.2681 283.8694 4059.9576 281.1226 4078.2208 140.4352 4116.8359 40.183 4300.6092 131.8254 4238.0916 281.7804 4068.2681 283.8694 Z" fill="none" stroke="#A9159C" opacity="0.6" stroke-width="1" class="woodlawn"/>
<path d="M 4157.7724 267.6515 4088.5766 286.1397 4089.031 281.0822 4091.3177 266.3682 4106.0575 247.0399 4126.3381 230.4618 4161.8391 209.2644 4181.1951 192.6872 4190.8471 167.391 4223.6312 182.05 4233.3357 191.2283 4244.4297 203.6222 4273.977 212.7689 4264.7772 231.171 4251.9064 262.9106 4240.4091 288.2128 4232.0959 284.0883 4157.7724 267.6515 Z" fill="none" stroke="#A9159C" opacity="0.6" stroke-width="1" class="woodlawn"/>
<path d="M 4126.6634 191.1486 4155.5724 240.9774 4090.4456 145.0495 4181.8532 176.1731 4216.9404 188.071 4252.9602 205.4824 4233.6984 281.8222 4160.7539 261.7058 4065.7194 282.9885 4078.4436 141.3891 4126.6634 191.1486 Z" fill="none" stroke="#A9159C" opacity="0.6" stroke-width="1" class="woodlawn"/>
<path d="M 4103.2848 244.2856 4184.4113 183.4889 4192.6949 168.7672 4240.7194 191.6765 4255.5131 209.1208 4232.5624 287.3056 4159.619 268.1085 4081.1909 284.7709 4103.2848 244.2856 Z" fill="none" stroke="#A9159C" opacity="0.6" stroke-width="1" class="woodlawn"/>
<path d="M 4255.7355 203.8342 4233.7115 284.3157 4218.4768 280.6616 4198.1649 276.3254 4167.4634 267.6371 4159.8473 266.4991 4138.7431 272.2765 4112.4472 278.1758 4102.0688 281.6384 4087.9961 283.4972 4095.3532 264.6387 4100.4158 254.9777 4111.8191 242.3198 4121.2675 234.2616 4130.26 230.1114 4149.5109 219.8553 4163.1091 209.952 4174.5107 197.0641 4185.1087 186.9354 4199.8712 184.6147 4210.0203 182.9903 4218.5572 183.207 4235.4107 190.3058 4241.4217 198.1108 4255.7355 203.8342 Z" fill="none" stroke="#A9159C" opacity="0.6" stroke-width="1" class="woodlawn"/>
<path d="M 4039.9527 1 4063.437 1 4090.3986 1 4187.9473 1 4361.697 1 4362.2489 1 4400.9901 1 4250.0975 286.3587 3997.078 191.1072 4039.9527 1 Z" fill="none" stroke="#A9159C" opacity="0.6" stroke-width="1" class="woodlawn"/>
<path d="M 4192.7018 173.3638 4266.1272 209.5637 4233.0232 286.8452 4155.4704 271.3326 4090.4155 281.0803 4098.7014 266.3578 4141.0914 221.2466 4192.7018 173.3638 Z" fill="none" stroke="#A9159C" opacity="0.6" stroke-width="1" class="woodlawn"/>
<path d="M 4189.9207 165.0941 4249.9656 202.6941 4235.3313 287.3013 4157.769 265.353 4093.1857 281.9958 4083.0382 285.6878 4083.024 275.5741 4189.9207 165.0941 Z" fill="none" stroke="#A9159C" opacity="0.6" stroke-width="1" class="woodlawn"/>
<path d="M 4239.0232 287.2955 4159.1588 269.0286 4087.1819 278.7862 4112.0441 238.2971 4151.2346 215.2559 4183.9464 181.1913 4224.0862 177.9123 4263.3504 204.5116 4239.0232 287.2955 Z" fill="none" stroke="#A9159C" opacity="0.6" stroke-width="1" class="woodlawn"/>
<path d="M 4091.3872 281.6094 4100.5791 254.9333 4119.9384 239.276 4141.1402 221.777 4166.957 205.1904 4181.6943 185.8621 4184.5608 176.7491 4080.227 141.0474 4083.8514 93.2403 4112.392 47.2369 4203.0778 114.8182 4301.8508 134.8864 4240.7007 285.7593 4091.3872 281.6094 Z" fill="none" stroke="#A9159C" opacity="0.6" stroke-width="1" class="woodlawn"/>
<path d="M 4134.1342 514.5813 4141.5251 518.2492 4224.4223 394.8982 4241.1904 492.3483 4232.0703 564.0966 4154.6235 635.9535 4115.8759 658.0846 4019.7926 615.9079 4006.7622 536.8297 4056.5378 479.7446 4134.1342 514.5813 Z" fill="none" stroke="#A9159C" opacity="0.6" stroke-width="1" class="woodlawn"/>
<path d="M 4229.7921 286.3905 4161.4621 266.2669 4088.567 279.244 4182.5559 177.0564 4004.3534 109.2798 4018.1134 47.6731 4254.5713 197.1707 4229.7921 286.3905 Z" fill="none" stroke="#A9159C" opacity="0.6" stroke-width="1" class="woodlawn"/>
<path d="M 4076.7565 414.4258 4054.9231 648.9721 3942.4069 753.0607 3838.9671 739.386 4076.7565 414.4258 Z" fill="none" stroke="#A9159C" opacity="0.6" stroke-width="1" class="woodlawn"/>
<path d="M 4186.2491 178.2 4186.9437 179.8078 4190.1827 185.7786 4209.0974 182.9918 4218.4311 251.0105 4226.7354 249.6186 4224.4423 258.8162 4217.5531 280.2033 4196.7791 275.4081 4158.6957 267.88 4136.7832 273.1988 4111.8735 280.3603 4086.4974 284.3038 4094.0837 264.2957 4100.0689 254.4036 4111.8186 241.975 4121.7292 234.3758 4149.1638 219.1662 4171.2878 201.8955 4182.8018 187.1687 4186.2491 178.2 Z" fill="none" stroke="#A9159C" opacity="0.6" stroke-width="1" class="woodlawn"/>
<path d="M 4188.1243 197.7331 4184.4172 187.3961 4217.1722 182.7495 4240.7306 198.8014 4216.163 276.5277 4092.9507 279.008 4184.4283 194.7508 4184.8849 191.5324 4113.6668 243.5813 4097.3124 263.1418 4093.8575 267.5139 4092.2569 277.8597 4188.1243 197.7331 Z" fill="none" stroke="#A9159C" opacity="0.6" stroke-width="1" class="woodlawn"/>
<path d="M 4164.7917 177.7587 4087.2219 142.9369 4234.0468 203.3948 4127.8155 672.1211 4062.5064 665.7746 4014.2926 515.0044 3985.5043 374.3849 4081.4923 159.5944 4164.7917 177.7587 Z" fill="none" stroke="#A9159C" opacity="0.6" stroke-width="1" class="woodlawn"/>
<path d="M 4085.7916 274.6508 4114.3626 246.1086 4141.0927 222.166 4189.0271 184.4013 4219.4847 186.1934 4249.9801 211.8877 4235.3285 285.4624 4157.7771 270.8694 4090.4148 280.6205 4085.7916 274.6508 Z" fill="none" stroke="#A9159C" opacity="0.6" stroke-width="1" class="woodlawn"/>
<path d="M 4158.2338 267.6508 4111.6444 281.5099 4087.1896 284.3028 4094.9992 259.0078 4114.3507 237.8341 4148.9341 219.8561 4177.0428 193.1531 4186.7046 174.2922 4199.178 183.9262 4222.2469 182.0522 4241.6553 199.9491 4261.9741 209.5703 4238.1039 289.5956 4158.2338 267.6508 Z" fill="none" stroke="#A9159C" opacity="0.6" stroke-width="1" class="woodlawn"/>
<path d="M 4402.6844 1 4133.3055 596.2532 4002.1134 530.216 3863.5331 445.7818 3954.6235 180.7696 4012.1743 1 4013.7067 1 4036.7589 1 4039.9527 1 4063.437 1 4090.3986 1 4187.9473 1 4361.697 1 4362.2489 1 4400.9901 1 4402.6844 1 Z" fill="none" stroke="#A9159C" opacity="0.6" stroke-width="1" class="woodlawn"/>
<path d="M 4232.5603 285.9265 4226.7906 285.2459 4203.2415 276.5475 4158.0041 268.3407 4086.0343 283.1551 4118.4993 234.6103 4132.1047 229.3042 4162.9903 207.6538 4180.7285 189.2403 4189.9193 164.1748 4204.4708 174.9547 4224.5544 182.2784 4234.4925 193.295 4253.1997 205.2172 4244.0491 255.108 4232.5603 285.9265 Z" fill="none" stroke="#A9159C" opacity="0.6" stroke-width="1" class="woodlawn"/>
<path d="M 4253.6615 205.4463 4227.9447 285.4739 4094.0983 274.6391 4088.5592 273.7275 4191.7762 171.5265 4253.6615 205.4463 Z" fill="none" stroke="#A9159C" opacity="0.6" stroke-width="1" class="woodlawn"/>
<path d="M 4056.7322 284.8047 4079.5948 133.079 4089.6548 68.2575 4118.2193 39.7214 4305.2098 123.5444 4262.8963 209.1091 4258.3649 261.5212 4239.0261 289.1344 4056.7322 284.8047 Z" fill="none" stroke="#A9159C" opacity="0.6" stroke-width="1" class="woodlawn"/>
<path d="M 4194.4736 124.6382 4296.0041 137.3486 4254.5902 209.1223 4241.795 289.1301 4170.6985 270.8503 4085.8019 282.0062 4084.8609 269.1356 4153.0838 217.5516 4078.2055 129.4038 4194.4736 124.6382 Z" fill="none" stroke="#A9159C" opacity="0.6" stroke-width="1" class="woodlawn"/>
<path d="M 4092.2446 269.1252 4079.3181 265.4656 4183.4912 185.329 4247.181 192.5857 4231.5922 256.9663 4092.2446 269.1252 Z" fill="none" stroke="#A9159C" opacity="0.6" stroke-width="1" class="woodlawn"/>
<path d="M 4185.3259 177.9716 4265.6504 199.9112 4232.561 286.3862 4089.4886 278.3233 4185.3259 177.9716 Z" fill="none" stroke="#A9159C" opacity="0.6" stroke-width="1" class="woodlawn"/>
<path d="M 4246.3998 282.6868 4075.6544 285.6981 4134.6163 211.1431 4190.8561 173.3666 4259.1785 192.5667 4246.3998 282.6868 Z" fill="none" stroke="#A9159C" opacity="0.6" stroke-width="1" class="woodlawn"/>
<path d="M 4232.7896 285.0067 4086.7265 283.1542 4112.0539 245.1925 4112.0549 245.8821 4181.8803 188.0894 4219.7104 182.9754 4189.2477 177.7358 4190.617 167.851 4197.3126 171.0585 4256.8982 209.5783 4232.7896 285.0067 Z" fill="none" stroke="#A9159C" opacity="0.6" stroke-width="1" class="woodlawn"/>
<path d="M 4236.0225 286.6106 4200.0129 277.7017 4158.4663 268.7997 4112.1049 280.8196 4085.3433 284.0755 4088.7896 273.4973 4099.374 252.5658 4115.9636 236.2229 4149.6229 217.5567 4180.726 187.6315 4189.2234 161.6477 4219.7009 176.77 4255.7388 205.9027 4236.0225 286.6106 Z" fill="none" stroke="#A9159C" opacity="0.6" stroke-width="1" class="woodlawn"/>
<path d="M 4106.7841 278.981 4156.5563 232.9386 4092.9228 267.0482 4113.1988 246.7925 4133.4807 231.1336 4173.1332 209.0103 4192.4889 192.4329 4190.6376 188.7583 4198.9085 165.7626 4211.8567 184.1293 4237.7187 197.8794 4252.5182 219.0014 4236.882 253.0432 4224.4622 279.4193 4106.7841 278.981 Z" fill="none" stroke="#A9159C" opacity="0.6" stroke-width="1" class="woodlawn"/>
<path d="M 4073.797 277.4258 4083.7578 140.4275 4266.585 207.2645 4239.9462 287.2941 4073.797 277.4258 Z" fill="none" stroke="#A9159C" opacity="0.6" stroke-width="1" class="woodlawn"/>
<path d="M 4178.8755 184.4166 4258.2775 206.3584 4229.7864 282.7128 4083.0343 282.9295 4071.9536 279.2672 4178.8755 184.4166 Z" fill="none" stroke="#A9159C" opacity="0.6" stroke-width="1" class="woodlawn"/>
<path d="M 4186.2543 181.6475 4261.9646 203.5945 4236.2529 286.3804 4156.2678 498.9149 4049.1037 443.8902 4077.4914 279.2595 4186.2543 181.6475 Z" fill="none" stroke="#A9159C" opacity="0.6" stroke-width="1" class="woodlawn"/>
<path d="M 4085.8032 282.9256 4093.8516 263.3766 4106.9814 247.7281 4123.8041 233.2236 4145.9353 220.3202 4172.4387 200.055 4189.4607 166.0141 4253.433 206.8257 4232.7928 287.0754 4180.1619 272.9048 4158.4625 266.2713 4118.7921 277.8219 4089.9572 283.3795 4085.8032 282.9256 Z" fill="none" stroke="#A9159C" opacity="0.6" stroke-width="1" class="woodlawn"/>
<path d="M 4190.3825 165.3232 4242.5756 198.3388 4224.2144 260.6553 4158.4636 266.9609 4086.2666 284.3041 4099.8349 252.1054 4190.3825 165.3232 Z" fill="none" stroke="#A9159C" opacity="0.6" stroke-width="1" class="woodlawn"/>
<path d="M 4191.3022 163.2534 4207.9312 174.7196 4234.2571 190.3076 4255.0451 204.9845 4279.5195 215.9778 4272.6279 234.836 4238.5754 296.0309 4209.5903 354.0025 4196.739 400.9177 4175.5954 459.3425 4149.3811 524.2155 4141.0649 519.1695 4141.0447 505.3747 4114.2703 504.034 4116.548 482.8791 4081.4542 473.2728 4079.0527 406.1467 4054.4267 286.1871 4079.6032 139.0543 4184.8665 179.3512 4191.3022 163.2534 Z" fill="none" stroke="#A9159C" opacity="0.6" stroke-width="1" class="woodlawn"/>
<path d="M 4101.3281 274.8062 4095.7473 257.4666 4115.1068 241.8093 4190.6882 176.4235 4258.6014 203.4784 4239.5529 283.7015 4120.7815 273.0132 4101.3281 274.8062 Z" fill="none" stroke="#A9159C" opacity="0.6" stroke-width="1" class="woodlawn"/>
<path d="M 4239.9433 285.4552 4093.1753 274.6404 4152.1704 223.9885 4198.2278 166.0008 4266.582 205.4258 4239.9433 285.4552 Z" fill="none" stroke="#A9159C" opacity="0.6" stroke-width="1" class="woodlawn"/>
<path d="M 4086.2602 279.7069 4194.0687 161.8702 4196.8093 143.48 4250.8682 189.8218 4261.501 202.2162 4237.1852 292.3553 4086.2602 279.7069 Z" fill="none" stroke="#A9159C" opacity="0.6" stroke-width="1" class="woodlawn"/>
<path d="M 4233.4811 284.5459 4158.7001 270.8681 4086.7313 286.602 4060.8843 283.8796 4082.8208 130.3166 4094.776 100.8832 4272.9908 173.2387 4233.4811 284.5459 Z" fill="none" stroke="#A9159C" opacity="0.6" stroke-width="1" class="woodlawn"/>
<path d="M 4098.7235 281.988 4088.5695 281.0828 4140.1765 226.7642 4194.5392 167.8451 4264.745 210.9449 4239.0218 286.3761 4160.5433 269.0265 4096.4245 287.9675 4098.7235 281.988 Z" fill="none" stroke="#A9159C" opacity="0.6" stroke-width="1" class="woodlawn"/>
<path d="M 4111.5912 244.2738 4181.6385 180.7351 4199.1731 180.7086 4247.2056 208.2146 4247.3257 284.5242 4162.3919 270.8626 4081.2012 292.1264 4111.5912 244.2738 Z" fill="none" stroke="#A9159C" opacity="0.6" stroke-width="1" class="woodlawn"/>
<path d="M 4232.5596 285.4668 4158.696 268.1098 4083.0279 278.3323 4112.5128 243.3531 4153.096 225.8259 4177.954 185.3373 4187.1577 168.7756 4205.6233 174.2634 4247.1969 202.6985 4232.5596 285.4668 Z" fill="none" stroke="#A9159C" opacity="0.6" stroke-width="1" class="woodlawn"/>
<path d="M 4262.8963 209.1091 4236.2515 285.461 4159.6176 267.189 4090.4181 282.9191 4091.31 260.8518 4115.2697 235.0747 4169.6673 198.2205 4181.6344 177.9771 4262.8963 209.1091 Z" fill="none" stroke="#A9159C" opacity="0.6" stroke-width="1" class="woodlawn"/>
<path d="M 4255.6988 206.8805 4249.9348 223.2828 4240.7569 255.9355 4233.5756 286.5262 4154.7573 269.9802 4088.5302 282.6666 4190.8275 167.562 4222.6859 180.3838 4255.6988 206.8805 Z" fill="none" stroke="#A9159C" opacity="0.6" stroke-width="1" class="woodlawn"/>
<path d="M 4252.7386 205.4478 4233.9426 284.5452 4159.6169 266.7293 4087.1909 285.2222 4088.1061 279.7044 4093.1546 259.9298 4114.8129 238.2932 4154.9262 215.2504 4182.5663 183.9514 4189.4572 163.7158 4205.6247 175.1828 4227.7863 183.4226 4231.9506 190.7708 4252.7386 205.4478 Z" fill="none" stroke="#A9159C" opacity="0.6" stroke-width="1" class="woodlawn"/>
<path d="M 4099.6152 259.9207 4109.7387 239.6795 4140.1738 224.9255 4157.6929 213.8673 4186.2903 205.5504 4181.662 196.3638 4188.0959 178.8867 4202.8617 178.8643 4227.8177 203.6481 4237.0509 206.3918 4247.2302 223.8438 4241.7216 242.2401 4238.9844 262.4712 4234.3998 281.7862 4096.8801 283.8294 4099.6152 259.9207 Z" fill="none" stroke="#A9159C" opacity="0.6" stroke-width="1" class="woodlawn"/>
<path d="M 4080.9906 141.3506 4080.0601 135.8362 4259.2003 206.3569 4246.4099 289.1228 4049.8225 294.0086 4080.9906 141.3506 Z" fill="none" stroke="#A9159C" opacity="0.6" stroke-width="1" class="woodlawn"/>
<path d="M 4086.2686 285.6832 4088.3265 272.3487 4093.7295 258.5499 4107.4345 241.8663 4125.4126 228.6244 4147.3168 218.3645 4162.8712 205.1257 4173.2375 194.193 4182.6769 180.8485 4187.1496 163.3746 4190.493 162.1055 4206.4254 170.6998 4213.4682 174.5962 4224.3187 179.0611 4233.9053 186.6307 4242.2279 197.3051 4259.2029 207.9658 4254.8471 225.6705 4257.7713 250.949 4250.645 267.7395 4239.7178 288.7885 4233.5993 286.3846 4227.3664 284.5554 4217.2086 281.2382 4197.0112 276.3272 4159.0436 269.1437 4138.4001 274.3457 4112.3361 281.1641 4102.5322 283.0169 4086.2686 285.6832 Z" fill="none" stroke="#A9159C" opacity="0.6" stroke-width="1" class="woodlawn"/>
<path d="M 4255.5015 201.766 4235.3357 290.0596 4154.0745 263.5196 4083.956 282.0087 4195.4662 170.6016 4255.5015 201.766 Z" fill="none" stroke="#A9159C" opacity="0.6" stroke-width="1" class="woodlawn"/>
<path d="M 4086.7275 283.8437 4093.1669 268.6642 4108.3602 243.8187 4128.1826 229.5398 4150.7765 217.555 4175.664 196.8325 4188.9951 163.2569 4254.5822 204.0659 4233.0218 285.9257 4187.7774 273.5829 4158.2332 267.1911 4086.7275 283.8437 Z" fill="none" stroke="#A9159C" opacity="0.6" stroke-width="1" class="woodlawn"/>
<path d="M 4231.6352 284.5488 4219.6323 281.8091 4072.8804 282.0242 4179.7831 174.3026 4255.5044 203.6047 4231.6352 284.5488 Z" fill="none" stroke="#A9159C" opacity="0.6" stroke-width="1" class="woodlawn"/>
<path d="M 4051.7224 333.5427 4089.6903 93.5364 4255.4331 158.5576 4229.8178 302.9404 4051.7224 333.5427 Z" fill="none" stroke="#A9159C" opacity="0.6" stroke-width="1" class="woodlawn"/>
<path d="M 4087.6508 284.0723 4093.6225 264.5262 4099.3763 254.1747 4109.9744 243.1269 4121.7275 233.2266 4150.0857 218.4754 4182.8008 186.4792 4209.3292 183.6809 4254.1237 205.9053 4236.7162 287.529 4218.0153 280.6623 4158.4642 267.4206 4087.6508 284.0723 Z" fill="none" stroke="#A9159C" opacity="0.6" stroke-width="1" class="woodlawn"/>
<path d="M 4257.3546 206.3599 4233.7154 286.8441 4218.7079 280.8911 4158.9267 268.1095 4112.3356 280.8193 4086.0359 284.3044 4093.3915 264.2966 4102.6014 250.4925 4119.8843 235.068 4131.4119 228.8456 4157 213.4087 4174.5111 197.2939 4186.0191 178.66 4257.3546 206.3599 Z" fill="none" stroke="#A9159C" opacity="0.6" stroke-width="1" class="woodlawn"/>
<path d="M 4095.0277 279.2349 4067.3388 279.2736 4092.9848 139.4952 4257.3444 199.9244 4240.862 282.6955 4095.0277 279.2349 Z" fill="none" stroke="#A9159C" opacity="0.6" stroke-width="1" class="woodlawn"/>
<path d="M 4233.4868 288.2236 4083.0163 270.0576 4194.5601 181.6349 4252.743 208.2059 4233.4868 288.2236 Z" fill="none" stroke="#A9159C" opacity="0.6" stroke-width="1" class="woodlawn"/>
<path d="M 4251.8157 205.4493 4231.6344 284.089 4157.3089 266.273 4087.6485 282.4633 4091.3236 270.5056 4103.7547 250.261 4113.8926 240.1333 4138.7881 224.0081 4177.9691 195.45 4187.1827 185.3234 4186.2501 178.8895 4228.7134 186.1792 4251.8157 205.4493 Z" fill="none" stroke="#A9159C" opacity="0.6" stroke-width="1" class="woodlawn"/>
<path d="M 4088.1158 286.6001 4086.723 280.6257 4104.6796 251.6388 4142.017 223.084 4193.6087 162.7902 4258.7404 207.277 4235.3335 288.6804 4160.0804 268.1078 4088.1158 286.6001 Z" fill="none" stroke="#A9159C" opacity="0.6" stroke-width="1" class="woodlawn"/>
<path d="M 4232.0966 284.548 4226.0916 280.8796 4154.542 267.6563 4088.1132 284.7612 4094.55 267.7428 4110.6715 246.5736 4130.4966 234.1333 4147.0943 223.996 4173.8272 202.811 4183.9416 177.9736 4192.2251 163.252 4218.5519 179.7595 4232.8793 194.4467 4252.7401 206.3672 4232.0966 284.548 Z" fill="none" stroke="#A9159C" opacity="0.6" stroke-width="1" class="woodlawn"/>
<path d="M 4188.9965 164.1762 4258.276 205.439 4237.183 290.9762 4078.4156 280.1776 4186.2473 177.0508 4188.9965 164.1762 Z" fill="none" stroke="#A9159C" opacity="0.6" stroke-width="1" class="woodlawn"/>
<path d="M 4188.9965 164.1762 4252.7372 204.5284 4233.4811 284.5459 4156.8474 266.2737 4089.4964 283.8398 4100.5264 251.6447 4119.879 231.3905 4150.311 214.7976 4177.0449 194.5321 4188.9965 164.1762 Z" fill="none" stroke="#A9159C" opacity="0.6" stroke-width="1" class="woodlawn"/>
<path d="M 4003.4609 483.4943 3987.2059 406.73 3989.9244 367.6464 4041.5125 291.7213 4221.4896 289.1617 4148.8945 507.2025 4003.4609 483.4943 Z" fill="none" stroke="#A9159C" opacity="0.6" stroke-width="1" class="woodlawn"/>
<path d="M 4191.3022 163.2534 4255.5066 204.9837 4230.7172 287.7682 4158.2338 267.6508 4092.2575 278.3194 4056.2758 288.4831 4090.4174 282.4594 4090.4109 277.8623 4095.9228 259.4662 4191.3022 163.2534 Z" fill="none" stroke="#A9159C" opacity="0.6" stroke-width="1" class="woodlawn"/>
<path d="M 4231.638 286.3876 4060.8906 288.4768 4080.0652 139.5133 4187.166 174.2915 4205.5038 96.1242 4225.7752 76.7889 4301.5155 121.7118 4231.638 286.3876 Z" fill="none" stroke="#A9159C" opacity="0.6" stroke-width="1" class="woodlawn"/>
<path d="M 4086.7081 270.0524 4194.5224 156.8133 4258.2702 201.7616 4240.8735 290.0509 4078.4182 282.0165 4086.7081 270.0524 Z" fill="none" stroke="#A9159C" opacity="0.6" stroke-width="1" class="woodlawn"/>
<path d="M 4362.2489 1 4400.9901 1 4402.6844 1 4417.5556 1 4483.8796 1 4432.4229 47.0309 4401.1264 91.2085 4430.7757 159.1832 4499.1646 212.3813 4490.9882 283.1899 4456.0655 366.9252 4390.5035 352.3285 4330.4617 325.7651 4272.2723 301.0346 4235.3428 294.6568 4190.8631 177.9632 4249.8642 138.3417 4321.6989 49.978 4362.2489 1 Z" fill="none" stroke="#A9159C" opacity="0.6" stroke-width="1" class="woodlawn"/>
<path d="M 4190.8436 165.0927 4240.7554 214.6602 4229.7821 279.9545 4192.6809 159.574 4072.8765 279.2659 4080.2551 275.5779 4087.6479 282.0036 4188.082 169.6935 4190.8436 165.0927 Z" fill="none" stroke="#A9159C" opacity="0.6" stroke-width="1" class="woodlawn"/>
<path d="M 4087.6508 284.0723 4094.7782 265.9037 4100.0711 256.0125 4111.5912 244.2738 4131.6466 231.6034 4152.1629 218.932 4183.2671 189.6962 4187.4023 177.9684 4191.9996 166.6998 4204.4729 176.3337 4209.0911 178.8548 4219.7083 181.5964 4232.411 190.0806 4242.8096 200.407 4250.6658 207.7495 4247.9452 238.3229 4243.8227 257.8665 4239.9218 271.6639 4232.5603 285.9265 4197.9345 276.5556 4158.9233 265.811 4137.9366 272.9672 4111.8741 280.82 4099.8798 283.8252 4083.2683 285.2277 4087.6508 284.0723 Z" fill="none" stroke="#A9159C" opacity="0.6" stroke-width="1" class="woodlawn"/>
<path d="M 4251.8114 202.6912 4237.1687 281.7818 4054.426 285.7273 4188.0709 162.339 4251.8114 202.6912 Z" fill="none" stroke="#A9159C" opacity="0.6" stroke-width="1" class="woodlawn"/>
<path d="M 4232.5596 285.4668 4091.3423 283.8372 4122.6491 232.3059 4164.1395 204.6642 4185.3286 179.8102 4211.176 184.3676 4238.8694 188.9213 4263.8134 205.4302 4232.5596 285.4668 Z" fill="none" stroke="#A9159C" opacity="0.6" stroke-width="1" class="woodlawn"/>
<path d="M 4157.7724 267.6515 4087.6492 282.923 4096.3803 256.7073 4187.1855 187.1621 4257.8255 212.3349 4231.6366 285.4682 4157.7724 267.6515 Z" fill="none" stroke="#A9159C" opacity="0.6" stroke-width="1" class="woodlawn"/>
<path d="M 4098.8817 271.1689 4119.8867 237.3637 4143.8518 216.1833 4172.4302 194.9959 4190.3142 164.723 4229.752 176.3205 4257.4642 192.825 4264.8736 209.3616 4252.9253 240.6392 4251.1374 277.4184 4241.0194 299.5007 4163.4627 282.1497 4098.8817 271.1689 Z" fill="none" stroke="#A9159C" opacity="0.6" stroke-width="1" class="woodlawn"/>
<path d="M 4190.8436 165.0927 4261.0491 208.1927 4228.8734 289.1502 4152.2299 264.4417 4086.7275 283.8437 4123.5667 228.6271 4083.9483 276.4922 4190.8436 165.0927 Z" fill="none" stroke="#A9159C" opacity="0.6" stroke-width="1" class="woodlawn"/>
<path d="M 4258.276 205.439 4227.0175 282.7171 4085.7942 276.4896 4184.3711 156.8287 4258.276 205.439 Z" fill="none" stroke="#A9159C" opacity="0.6" stroke-width="1" class="woodlawn"/>
<path d="M 4185.1234 181.3854 4221.111 178.5724 4248.8245 195.9966 4240.6654 289.7874 4153.4337 515.207 4074.8891 462.9005 4076.6484 400.367 4058.9671 296.4887 4185.1234 181.3854 Z" fill="none" stroke="#A9159C" opacity="0.6" stroke-width="1" class="woodlawn"/>
<path d="M 4090.4058 274.1846 4160.3105 111.8196 4197.233 118.6587 4295.9958 132.2925 4235.7964 289.5992 4199.8221 303.906 4197.9726 301.6102 4090.4058 274.1846 Z" fill="none" stroke="#A9159C" opacity="0.6" stroke-width="1" class="woodlawn"/>
<path d="M 4187.3981 175.2105 4208.4056 183.2226 4232.8735 190.7694 4253.893 205.9057 4232.0981 285.4675 4218.2457 280.4321 4157.0798 267.4227 4114.1815 280.8167 4086.7284 284.5333 4097.9961 257.1647 4110.6666 243.1259 4122.1916 235.0647 4150.7786 218.934 4162.9938 209.9522 4183.494 187.1677 4187.3981 175.2105 Z" fill="none" stroke="#A9159C" opacity="0.6" stroke-width="1" class="woodlawn"/>
<path d="M 4189.9207 165.0941 4255.5117 208.2015 4241.7821 280.8552 4068.2681 283.8694 4184.4002 176.1343 4189.9207 165.0941 Z" fill="none" stroke="#A9159C" opacity="0.6" stroke-width="1" class="woodlawn"/>
<path d="M 4063.652 282.9564 4080.997 145.9471 4259.1901 199.9215 4247.3271 285.4436 4063.652 282.9564 Z" fill="none" stroke="#A9159C" opacity="0.6" stroke-width="1" class="woodlawn"/>
<path d="M 4252.7386 205.4478 4243.5905 256.9475 4229.7907 285.4711 4158.6919 265.3516 4085.8071 285.6839 4103.2848 244.2856 4134.6457 231.3692 4163.2276 212.0204 4187.1758 180.7268 4192.6893 165.0899 4223.1691 181.5911 4233.3335 189.8493 4241.6524 198.1104 4252.7386 205.4478 Z" fill="none" stroke="#A9159C" opacity="0.6" stroke-width="1" class="woodlawn"/>
<path d="M 4059.9677 288.478 4075.4421 133.0848 4175.1675 173.3902 4252.7328 201.7704 4235.3213 280.8653 4059.9677 288.478 Z" fill="none" stroke="#A9159C" opacity="0.6" stroke-width="1" class="woodlawn"/>
<path d="M 4047.0285 275.6237 4077.2903 134.9208 4256.3545 157.6368 4240.8663 285.4538 4047.0285 275.6237 Z" fill="none" stroke="#A9159C" opacity="0.6" stroke-width="1" class="woodlawn"/>
<path d="M 4185.3259 177.9716 4198.6168 118.4268 4199.3072 117.2766 4307.5273 129.9755 4233.484 286.3847 4155.9251 266.7348 4057.1968 287.1027 4080.2934 137.6744 4185.3259 177.9716 Z" fill="none" stroke="#A9159C" opacity="0.6" stroke-width="1" class="woodlawn"/>
<path d="M 4090.4058 274.1846 4105.1424 252.5576 4128.6501 233.6763 4151.7035 220.3117 4183.4822 179.3533 4195.4718 174.2789 4205.6177 170.5862 4274.8733 196.2191 4260.1612 230.259 4242.0074 277.407 4238.1035 289.3657 4229.7885 284.0919 4226.5688 290.9927 4196.0896 277.248 4158.7048 274.086 4144.4003 275.0265 4101.0381 287.0416 4083.9676 290.2836 4090.4058 274.1846 Z" fill="none" stroke="#A9159C" opacity="0.6" stroke-width="1" class="woodlawn"/>
<path d="M 4087.8799 282.9227 4101.6833 253.9416 4181.192 190.6186 4183.2617 186.1338 4220.6306 181.2503 4232.7569 189.9651 4243.4994 198.912 4253.5456 205.1018 4243.476 257.5223 4234.174 285.0045 4217.2072 280.3187 4199.7796 275.9782 4181.6612 272.5577 4158.8109 267.7649 4138.5126 272.3918 4112.2191 280.015 4087.8799 282.9227 Z" fill="none" stroke="#A9159C" opacity="0.6" stroke-width="1" class="woodlawn"/></svg>